<svg xmlns="http://www.w3.org/2000/svg" width="512" height="512"><rect width="512" height="512" fill="#0a0f1a"/><text x="12" y="20" font-family="monospace" font-size="11" fill="#4a7fa5">FRONT (XZ)</text><g stroke="#00d4ff" stroke-width="0.6" opacity="0.85"><line x1="478.92" y1="165.95" x2="36.31" y2="187.70"/><line x1="113.90" y1="317.15" x2="131.55" y2="330.25"/><line x1="190.97" y1="358.35" x2="321.03" y2="358.35"/><line x1="97.61" y1="302.39" x2="414.39" y2="302.39"/><line x1="36.31" y1="187.70" x2="41.65" y2="209.03"/><line x1="69.75" y1="268.45" x2="442.25" y2="268.45"/><line x1="380.45" y1="330.25" x2="150.41" y2="341.55"/><line x1="475.69" y1="187.70" x2="470.35" y2="209.03"/><line x1="82.85" y1="286.10" x2="97.61" y2="302.39"/><line x1="150.41" y1="341.55" x2="361.59" y2="341.55"/><line x1="277.96" y1="366.92" x2="256.00" y2="368.00"/><line x1="480.00" y1="144.00" x2="33.08" y2="165.95"/><line x1="49.05" y1="229.72" x2="462.95" y2="229.72"/><line x1="361.59" y1="341.55" x2="341.72" y2="350.95"/><line x1="462.95" y1="229.72" x2="453.55" y2="249.59"/><line x1="414.39" y1="302.39" x2="113.90" y2="317.15"/><line x1="58.45" y1="249.59" x2="69.75" y2="268.45"/><line x1="398.10" y1="317.15" x2="380.45" y2="330.25"/><line x1="341.72" y1="350.95" x2="190.97" y2="358.35"/><line x1="321.03" y1="358.35" x2="212.30" y2="363.70"/><line x1="212.30" y1="363.70" x2="234.04" y2="366.92"/><line x1="442.25" y1="268.45" x2="82.85" y2="286.10"/><line x1="41.65" y1="209.03" x2="49.05" y2="229.72"/><line x1="429.15" y1="286.10" x2="414.39" y2="302.39"/><line x1="170.28" y1="350.95" x2="190.97" y2="358.35"/><line x1="113.90" y1="317.15" x2="398.10" y2="317.15"/><line x1="36.31" y1="187.70" x2="475.69" y2="187.70"/><line x1="475.69" y1="187.70" x2="41.65" y2="209.03"/><line x1="131.55" y1="330.25" x2="150.41" y2="341.55"/><line x1="299.70" y1="363.70" x2="277.96" y2="366.92"/><line x1="82.85" y1="286.10" x2="429.15" y2="286.10"/><line x1="361.59" y1="341.55" x2="170.28" y2="350.95"/><line x1="480.00" y1="144.00" x2="32.00" y2="144.00"/><line x1="462.95" y1="229.72" x2="58.45" y2="249.59"/><line x1="33.08" y1="165.95" x2="36.31" y2="187.70"/><line x1="32.00" y1="144.00" x2="33.08" y2="165.95"/><line x1="58.45" y1="249.59" x2="453.55" y2="249.59"/><line x1="453.55" y1="249.59" x2="442.25" y2="268.45"/><line x1="398.10" y1="317.15" x2="131.55" y2="330.25"/><line x1="212.30" y1="363.70" x2="299.70" y2="363.70"/><line x1="234.04" y1="366.92" x2="256.00" y2="368.00"/><line x1="234.04" y1="366.92" x2="277.96" y2="366.92"/><line x1="470.35" y1="209.03" x2="462.95" y2="229.72"/><line x1="41.65" y1="209.03" x2="470.35" y2="209.03"/><line x1="429.15" y1="286.10" x2="97.61" y2="302.39"/><line x1="170.28" y1="350.95" x2="341.72" y2="350.95"/><line x1="97.61" y1="302.39" x2="113.90" y2="317.15"/><line x1="341.72" y1="350.95" x2="321.03" y2="358.35"/><line x1="190.97" y1="358.35" x2="212.30" y2="363.70"/><line x1="478.92" y1="165.95" x2="475.69" y2="187.70"/><line x1="69.75" y1="268.45" x2="82.85" y2="286.10"/><line x1="131.55" y1="330.25" x2="380.45" y2="330.25"/><line x1="380.45" y1="330.25" x2="361.59" y2="341.55"/><line x1="299.70" y1="363.70" x2="234.04" y2="366.92"/><line x1="150.41" y1="341.55" x2="170.28" y2="350.95"/><line x1="480.00" y1="144.00" x2="478.92" y2="165.95"/><line x1="49.05" y1="229.72" x2="58.45" y2="249.59"/><line x1="414.39" y1="302.39" x2="398.10" y2="317.15"/><line x1="33.08" y1="165.95" x2="478.92" y2="165.95"/><line x1="453.55" y1="249.59" x2="69.75" y2="268.45"/><line x1="321.03" y1="358.35" x2="299.70" y2="363.70"/><line x1="442.25" y1="268.45" x2="429.15" y2="286.10"/><line x1="470.35" y1="209.03" x2="49.05" y2="229.72"/></g></svg>