<svg xmlns="http://www.w3.org/2000/svg" width="512" height="512"><rect width="512" height="512" fill="#0a0f1a"/><text x="12" y="20" font-family="monospace" font-size="11" fill="#4a7fa5">FRONT (XZ)</text><g stroke="#00d4ff" stroke-width="0.6" opacity="0.85"><line x1="186.78" y1="183.21" x2="325.22" y2="183.21"/><line x1="325.22" y1="183.21" x2="256.00" y2="42.96"/><line x1="186.78" y1="183.21" x2="144.00" y2="314.88"/><line x1="32.00" y1="205.71" x2="144.00" y2="314.88"/><line x1="325.22" y1="183.21" x2="368.00" y2="314.88"/><line x1="368.00" y1="314.88" x2="394.44" y2="469.04"/><line x1="144.00" y1="314.88" x2="117.56" y2="469.04"/><line x1="186.78" y1="183.21" x2="32.00" y2="205.71"/><line x1="325.22" y1="183.21" x2="144.00" y2="314.88"/><line x1="368.00" y1="314.88" x2="256.00" y2="396.25"/><line x1="256.00" y1="396.25" x2="117.56" y2="469.04"/><line x1="186.78" y1="183.21" x2="256.00" y2="42.96"/><line x1="144.00" y1="314.88" x2="368.00" y2="314.88"/><line x1="368.00" y1="314.88" x2="480.00" y2="205.71"/><line x1="325.22" y1="183.21" x2="480.00" y2="205.71"/><line x1="144.00" y1="314.88" x2="256.00" y2="396.25"/><line x1="256.00" y1="396.25" x2="394.44" y2="469.04"/></g></svg>