<svg xmlns="http://www.w3.org/2000/svg" width="512" height="512"><rect width="512" height="512" fill="#0a0f1a"/><text x="12" y="20" font-family="monospace" font-size="11" fill="#4a7fa5">FRONT (XZ)</text><g stroke="#00d4ff" stroke-width="0.6" opacity="0.85"><line x1="32.00" y1="107.36" x2="107.36" y2="480.00"/><line x1="39.66" y1="74.22" x2="90.09" y2="33.99"/><line x1="437.78" y1="472.34" x2="463.44" y2="451.77"/><line x1="90.09" y1="478.01" x2="39.66" y2="437.78"/><line x1="90.09" y1="33.99" x2="107.36" y2="32.00"/><line x1="421.91" y1="33.99" x2="472.34" y2="74.22"/><line x1="404.64" y1="480.00" x2="478.01" y2="421.91"/><line x1="33.99" y1="90.09" x2="32.00" y2="107.36"/><line x1="437.78" y1="39.66" x2="451.77" y2="48.56"/><line x1="48.56" y1="60.23" x2="60.23" y2="48.56"/><line x1="404.64" y1="32.00" x2="480.00" y2="404.64"/><line x1="90.09" y1="478.01" x2="74.22" y2="472.34"/><line x1="404.64" y1="32.00" x2="421.91" y2="33.99"/><line x1="107.36" y1="480.00" x2="404.64" y2="480.00"/><line x1="480.00" y1="404.64" x2="107.36" y2="480.00"/><line x1="107.36" y1="480.00" x2="32.00" y2="404.64"/><line x1="74.22" y1="39.66" x2="39.66" y2="74.22"/><line x1="463.44" y1="451.77" x2="451.77" y2="463.44"/><line x1="472.34" y1="437.78" x2="437.78" y2="472.34"/><line x1="472.34" y1="74.22" x2="437.78" y2="39.66"/><line x1="107.36" y1="32.00" x2="404.64" y2="32.00"/><line x1="421.91" y1="478.01" x2="437.78" y2="472.34"/><line x1="32.00" y1="404.64" x2="33.99" y2="421.91"/><line x1="90.09" y1="33.99" x2="33.99" y2="90.09"/><line x1="33.99" y1="90.09" x2="107.36" y2="32.00"/><line x1="404.64" y1="480.00" x2="421.91" y2="478.01"/><line x1="74.22" y1="472.34" x2="60.23" y2="463.44"/><line x1="478.01" y1="421.91" x2="472.34" y2="437.78"/><line x1="437.78" y1="39.66" x2="463.44" y2="60.23"/><line x1="39.66" y1="437.78" x2="48.56" y2="451.77"/><line x1="404.64" y1="32.00" x2="478.01" y2="90.09"/><line x1="48.56" y1="60.23" x2="74.22" y2="39.66"/><line x1="480.00" y1="404.64" x2="480.00" y2="107.36"/><line x1="74.22" y1="39.66" x2="60.23" y2="48.56"/><line x1="480.00" y1="107.36" x2="478.01" y2="90.09"/><line x1="107.36" y1="480.00" x2="90.09" y2="478.01"/><line x1="33.99" y1="421.91" x2="39.66" y2="437.78"/><line x1="478.01" y1="90.09" x2="472.34" y2="74.22"/><line x1="33.99" y1="421.91" x2="90.09" y2="478.01"/><line x1="480.00" y1="404.64" x2="478.01" y2="421.91"/><line x1="48.56" y1="451.77" x2="60.23" y2="463.44"/><line x1="32.00" y1="107.36" x2="480.00" y2="404.64"/><line x1="107.36" y1="32.00" x2="32.00" y2="107.36"/><line x1="463.44" y1="60.23" x2="451.77" y2="48.56"/><line x1="421.91" y1="478.01" x2="472.34" y2="437.78"/><line x1="472.34" y1="437.78" x2="463.44" y2="451.77"/><line x1="437.78" y1="472.34" x2="451.77" y2="463.44"/><line x1="32.00" y1="107.36" x2="32.00" y2="404.64"/><line x1="39.66" y1="74.22" x2="33.99" y2="90.09"/><line x1="421.91" y1="33.99" x2="437.78" y2="39.66"/><line x1="74.22" y1="472.34" x2="48.56" y2="451.77"/><line x1="478.01" y1="421.91" x2="421.91" y2="478.01"/><line x1="48.56" y1="60.23" x2="39.66" y2="74.22"/><line x1="404.64" y1="32.00" x2="480.00" y2="107.36"/><line x1="107.36" y1="480.00" x2="33.99" y2="421.91"/><line x1="74.22" y1="39.66" x2="90.09" y2="33.99"/><line x1="39.66" y1="437.78" x2="74.22" y2="472.34"/><line x1="478.01" y1="90.09" x2="421.91" y2="33.99"/><line x1="480.00" y1="404.64" x2="404.64" y2="480.00"/><line x1="472.34" y1="74.22" x2="463.44" y2="60.23"/><line x1="32.00" y1="107.36" x2="404.64" y2="32.00"/></g></svg>