<svg xmlns="http://www.w3.org/2000/svg" width="512" height="512"><rect width="512" height="512" fill="#0a0f1a"/><text x="12" y="20" font-family="monospace" font-size="11" fill="#4a7fa5">FRONT (XZ)</text><g stroke="#00d4ff" stroke-width="0.6" opacity="0.85"><line x1="228.47" y1="97.96" x2="212.58" y2="90.44"/><line x1="286.10" y1="82.85" x2="268.45" y2="69.75"/><line x1="330.25" y1="131.55" x2="293.00" y2="156.45"/><line x1="317.15" y1="113.90" x2="302.39" y2="97.61"/><line x1="229.72" y1="462.95" x2="212.58" y2="421.56"/><line x1="302.04" y1="340.47" x2="309.56" y2="324.58"/><line x1="350.95" y1="170.28" x2="309.56" y2="187.43"/><line x1="363.70" y1="299.70" x2="366.92" y2="277.96"/><line x1="350.95" y1="341.72" x2="358.35" y2="321.03"/><line x1="309.56" y1="187.43" x2="341.55" y2="150.41"/><line x1="317.15" y1="398.10" x2="282.52" y2="369.69"/><line x1="178.96" y1="80.24" x2="161.57" y2="77.67"/><line x1="330.25" y1="380.45" x2="341.55" y2="361.59"/><line x1="286.10" y1="429.15" x2="257.68" y2="394.52"/><line x1="212.58" y1="421.56" x2="249.59" y2="453.55"/><line x1="212.58" y1="90.44" x2="196.02" y2="84.52"/><line x1="243.56" y1="107.00" x2="228.47" y2="97.96"/><line x1="257.68" y1="394.52" x2="302.39" y2="414.39"/><line x1="282.52" y1="142.31" x2="302.39" y2="97.61"/><line x1="309.56" y1="324.58" x2="315.48" y2="308.02"/><line x1="341.55" y1="150.41" x2="302.04" y2="171.53"/><line x1="322.34" y1="238.44" x2="319.76" y2="221.04"/><line x1="358.35" y1="190.97" x2="315.48" y2="203.98"/><line x1="322.34" y1="273.56" x2="323.20" y2="256.00"/><line x1="302.39" y1="97.61" x2="270.71" y2="129.29"/><line x1="315.48" y1="308.02" x2="319.76" y2="290.96"/><line x1="302.39" y1="414.39" x2="270.71" y2="382.71"/><line x1="196.02" y1="84.52" x2="178.96" y2="80.24"/><line x1="268.45" y1="442.25" x2="243.56" y2="405.00"/><line x1="178.96" y1="431.76" x2="196.02" y2="427.48"/><line x1="341.55" y1="361.59" x2="302.04" y2="340.47"/><line x1="187.70" y1="36.31" x2="165.95" y2="33.08"/><line x1="165.95" y1="478.92" x2="144.00" y2="480.00"/><line x1="270.71" y1="129.29" x2="286.10" y2="82.85"/><line x1="144.00" y1="435.20" x2="161.57" y2="434.33"/><line x1="243.56" y1="405.00" x2="286.10" y2="429.15"/><line x1="293.00" y1="156.45" x2="317.15" y2="113.90"/><line x1="228.47" y1="97.96" x2="229.72" y2="49.05"/><line x1="323.20" y1="256.00" x2="322.34" y2="238.44"/><line x1="286.10" y1="82.85" x2="257.68" y2="117.48"/><line x1="257.68" y1="117.48" x2="268.45" y2="69.75"/><line x1="319.76" y1="290.96" x2="322.34" y2="273.56"/><line x1="317.15" y1="113.90" x2="282.52" y2="142.31"/><line x1="315.48" y1="203.98" x2="309.56" y2="187.43"/><line x1="302.04" y1="340.47" x2="350.95" y2="341.72"/><line x1="282.52" y1="369.69" x2="330.25" y2="380.45"/><line x1="196.02" y1="427.48" x2="212.58" y2="421.56"/><line x1="350.95" y1="341.72" x2="309.56" y2="324.58"/><line x1="165.95" y1="33.08" x2="144.00" y2="32.00"/><line x1="229.72" y1="49.05" x2="212.58" y2="90.44"/><line x1="161.57" y1="434.33" x2="178.96" y2="431.76"/><line x1="330.25" y1="380.45" x2="293.00" y2="355.56"/><line x1="209.03" y1="41.65" x2="187.70" y2="36.31"/><line x1="268.45" y1="69.75" x2="243.56" y2="107.00"/><line x1="350.95" y1="170.28" x2="341.55" y2="150.41"/><line x1="212.58" y1="90.44" x2="209.03" y2="41.65"/><line x1="363.70" y1="212.30" x2="358.35" y2="190.97"/><line x1="243.56" y1="107.00" x2="249.59" y2="58.45"/><line x1="366.92" y1="277.96" x2="322.34" y2="273.56"/><line x1="161.57" y1="77.67" x2="144.00" y2="76.80"/><line x1="309.56" y1="324.58" x2="358.35" y2="321.03"/><line x1="368.00" y1="256.00" x2="366.92" y2="234.04"/><line x1="358.35" y1="321.03" x2="315.48" y2="308.02"/><line x1="187.70" y1="475.69" x2="209.02" y2="470.35"/><line x1="293.00" y1="355.56" x2="341.55" y2="361.59"/><line x1="286.10" y1="429.15" x2="302.39" y2="414.39"/><line x1="322.34" y1="273.56" x2="368.00" y2="256.00"/><line x1="270.71" y1="382.71" x2="317.15" y2="398.10"/><line x1="249.59" y1="453.55" x2="268.45" y2="442.25"/><line x1="315.48" y1="308.02" x2="363.70" y2="299.70"/><line x1="319.76" y1="221.04" x2="315.48" y2="203.98"/><line x1="249.59" y1="58.45" x2="228.47" y2="97.96"/><line x1="282.52" y1="142.31" x2="270.71" y2="129.29"/><line x1="144.00" y1="32.00" x2="144.00" y2="76.80"/><line x1="209.02" y1="470.35" x2="229.72" y2="462.95"/><line x1="302.04" y1="171.53" x2="293.00" y2="156.45"/><line x1="178.96" y1="431.76" x2="209.02" y2="470.35"/><line x1="187.70" y1="36.31" x2="178.96" y2="80.24"/><line x1="358.35" y1="190.97" x2="350.95" y2="170.28"/><line x1="144.00" y1="435.20" x2="144.00" y2="480.00"/><line x1="165.95" y1="478.92" x2="187.70" y2="475.69"/><line x1="366.92" y1="234.04" x2="363.70" y2="212.30"/><line x1="228.47" y1="414.04" x2="243.56" y2="405.00"/><line x1="363.70" y1="299.70" x2="319.76" y2="290.96"/><line x1="268.45" y1="442.25" x2="286.10" y2="429.15"/><line x1="319.76" y1="290.96" x2="366.92" y2="277.96"/><line x1="330.25" y1="131.55" x2="317.15" y2="113.90"/><line x1="178.96" y1="80.24" x2="165.95" y2="33.08"/><line x1="229.72" y1="462.95" x2="249.59" y2="453.55"/><line x1="293.00" y1="156.45" x2="282.52" y2="142.31"/><line x1="165.95" y1="33.08" x2="161.57" y2="77.67"/><line x1="309.56" y1="187.43" x2="302.04" y2="171.53"/><line x1="161.57" y1="434.33" x2="187.70" y2="475.69"/><line x1="209.03" y1="41.65" x2="196.02" y2="84.52"/><line x1="317.15" y1="398.10" x2="330.25" y2="380.45"/><line x1="322.34" y1="238.44" x2="363.70" y2="212.30"/><line x1="257.68" y1="117.48" x2="243.56" y2="107.00"/><line x1="212.58" y1="421.56" x2="228.47" y2="414.04"/><line x1="282.52" y1="369.69" x2="293.00" y2="355.56"/><line x1="363.70" y1="212.30" x2="319.76" y2="221.04"/><line x1="161.57" y1="77.67" x2="144.00" y2="32.00"/><line x1="229.72" y1="49.05" x2="209.03" y2="41.65"/><line x1="257.68" y1="394.52" x2="270.71" y2="382.71"/><line x1="368.00" y1="256.00" x2="323.20" y2="256.00"/><line x1="341.55" y1="150.41" x2="330.25" y2="131.55"/><line x1="187.70" y1="475.69" x2="178.96" y2="431.76"/><line x1="196.02" y1="84.52" x2="187.70" y2="36.31"/><line x1="268.45" y1="69.75" x2="249.59" y2="58.45"/><line x1="165.95" y1="478.92" x2="144.00" y2="435.20"/><line x1="302.39" y1="97.61" x2="286.10" y2="82.85"/><line x1="249.59" y1="453.55" x2="228.47" y2="414.04"/><line x1="319.76" y1="221.04" x2="358.35" y2="190.97"/><line x1="366.92" y1="277.96" x2="368.00" y2="256.00"/><line x1="209.02" y1="470.35" x2="196.02" y2="427.48"/><line x1="302.39" y1="414.39" x2="317.15" y2="398.10"/><line x1="323.20" y1="256.00" x2="366.92" y2="234.04"/><line x1="358.35" y1="321.03" x2="363.70" y2="299.70"/><line x1="302.04" y1="171.53" x2="330.25" y2="131.55"/><line x1="293.00" y1="355.56" x2="302.04" y2="340.47"/><line x1="341.55" y1="361.59" x2="350.95" y2="341.72"/><line x1="315.48" y1="203.98" x2="350.95" y2="170.28"/><line x1="165.95" y1="478.92" x2="161.57" y2="434.33"/><line x1="270.71" y1="382.71" x2="282.52" y2="369.69"/><line x1="366.92" y1="234.04" x2="322.34" y2="238.44"/><line x1="270.71" y1="129.29" x2="257.68" y2="117.48"/><line x1="228.47" y1="414.04" x2="268.45" y2="442.25"/><line x1="249.59" y1="58.45" x2="229.72" y2="49.05"/><line x1="243.56" y1="405.00" x2="257.68" y2="394.52"/><line x1="196.02" y1="427.48" x2="229.72" y2="462.95"/></g></svg>