<svg xmlns="http://www.w3.org/2000/svg" width="512" height="512"><rect width="512" height="512" fill="#0a0f1a"/><text x="12" y="20" font-family="monospace" font-size="11" fill="#4a7fa5">FRONT (XZ)</text><g stroke="#00d4ff" stroke-width="0.6" opacity="0.85"><line x1="270.10" y1="282.78" x2="294.15" y2="264.03"/><line x1="273.20" y1="316.56" x2="294.43" y2="343.65"/><line x1="279.61" y1="295.16" x2="280.31" y2="297.12"/><line x1="266.83" y1="349.54" x2="267.70" y2="318.45"/><line x1="237.10" y1="183.07" x2="214.01" y2="200.88"/><line x1="294.15" y1="264.03" x2="295.64" y2="266.50"/><line x1="281.10" y1="305.26" x2="306.41" y2="306.82"/><line x1="214.01" y1="200.88" x2="238.81" y2="185.77"/><line x1="235.27" y1="232.12" x2="235.41" y2="233.93"/><line x1="306.41" y1="306.82" x2="280.80" y2="307.01"/><line x1="234.48" y1="305.72" x2="230.64" y2="302.83"/><line x1="235.41" y1="233.93" x2="243.49" y2="223.68"/><line x1="280.31" y1="297.12" x2="306.08" y2="293.60"/><line x1="299.27" y1="272.73" x2="276.32" y2="289.68"/><line x1="260.94" y1="318.68" x2="250.76" y2="340.06"/><line x1="226.18" y1="172.26" x2="217.75" y2="170.53"/><line x1="220.60" y1="207.27" x2="222.88" y2="208.62"/><line x1="286.80" y1="253.28" x2="270.10" y2="282.78"/><line x1="276.32" y1="289.68" x2="300.20" y2="274.42"/><line x1="222.88" y1="208.62" x2="242.09" y2="193.43"/><line x1="252.73" y1="224.33" x2="238.96" y2="243.87"/><line x1="304.17" y1="321.92" x2="277.57" y2="313.11"/><line x1="238.96" y1="243.87" x2="240.58" y2="247.03"/><line x1="250.25" y1="315.59" x2="247.40" y2="314.18"/><line x1="211.27" y1="172.93" x2="210.19" y2="173.83"/><line x1="303.25" y1="281.23" x2="278.72" y2="293.27"/><line x1="231.29" y1="210.29" x2="232.55" y2="210.08"/><line x1="232.42" y1="323.13" x2="227.59" y2="317.75"/><line x1="272.63" y1="236.74" x2="250.26" y2="262.37"/><line x1="273.20" y1="316.56" x2="296.99" y2="340.11"/><line x1="227.59" y1="317.75" x2="222.67" y2="311.92"/><line x1="246.46" y1="223.50" x2="252.73" y2="224.33"/><line x1="305.49" y1="289.77" x2="305.81" y2="291.67"/><line x1="239.71" y1="205.87" x2="240.63" y2="204.77"/><line x1="277.62" y1="291.44" x2="302.73" y2="279.79"/><line x1="242.71" y1="198.16" x2="237.45" y2="207.82"/><line x1="480.00" y1="32.02" x2="447.51" y2="32.02"/><line x1="234.48" y1="305.72" x2="222.67" y2="311.92"/><line x1="242.55" y1="195.83" x2="242.71" y2="198.16"/><line x1="259.77" y1="272.45" x2="263.66" y2="276.27"/><line x1="276.92" y1="351.67" x2="273.74" y2="351.43"/><line x1="228.44" y1="173.67" x2="208.41" y2="176.00"/><line x1="232.89" y1="177.68" x2="235.08" y2="180.30"/><line x1="286.80" y1="253.28" x2="267.11" y2="279.72"/><line x1="281.10" y1="301.25" x2="306.55" y2="301.54"/><line x1="212.42" y1="172.18" x2="211.27" y2="172.93"/><line x1="238.92" y1="225.09" x2="235.49" y2="229.84"/><line x1="271.48" y1="317.37" x2="281.05" y2="351.35"/><line x1="302.73" y1="279.79" x2="303.25" y2="281.23"/><line x1="263.09" y1="347.88" x2="259.17" y2="345.75"/><line x1="242.71" y1="198.16" x2="231.29" y2="210.29"/><line x1="272.63" y1="285.46" x2="274.70" y2="287.76"/><line x1="265.63" y1="318.72" x2="263.44" y2="318.81"/><line x1="299.24" y1="335.94" x2="273.20" y2="316.56"/><line x1="216.16" y1="203.40" x2="218.35" y2="205.53"/><line x1="297.00" y1="268.77" x2="298.21" y2="270.85"/><line x1="246.51" y1="257.00" x2="272.63" y2="236.74"/><line x1="305.96" y1="311.96" x2="305.21" y2="317.00"/><line x1="228.44" y1="173.67" x2="213.64" y2="171.55"/><line x1="238.06" y1="308.29" x2="227.59" y2="317.75"/><line x1="228.44" y1="173.67" x2="206.64" y2="181.81"/><line x1="206.85" y1="180.17" x2="206.64" y2="181.81"/><line x1="235.85" y1="236.02" x2="236.59" y2="238.36"/><line x1="272.63" y1="236.74" x2="248.43" y2="259.83"/><line x1="280.30" y1="308.67" x2="279.59" y2="310.24"/><line x1="305.10" y1="287.91" x2="305.49" y2="289.77"/><line x1="227.59" y1="317.75" x2="234.48" y2="305.72"/><line x1="206.64" y1="181.81" x2="206.56" y2="183.57"/><line x1="246.46" y1="223.50" x2="237.62" y2="240.99"/><line x1="238.62" y1="206.90" x2="239.71" y2="205.87"/><line x1="305.49" y1="289.77" x2="280.31" y2="297.12"/><line x1="255.74" y1="317.65" x2="253.03" y2="316.75"/><line x1="284.87" y1="350.39" x2="281.05" y2="351.35"/><line x1="239.71" y1="205.87" x2="242.63" y2="199.63"/><line x1="277.62" y1="291.44" x2="302.19" y2="278.45"/><line x1="242.71" y1="198.16" x2="236.25" y2="208.60"/><line x1="255.42" y1="268.24" x2="259.77" y2="272.45"/><line x1="281.05" y1="351.35" x2="276.92" y2="351.67"/><line x1="480.00" y1="32.02" x2="480.00" y2="64.50"/><line x1="242.55" y1="195.83" x2="230.00" y2="210.36"/><line x1="208.99" y1="193.06" x2="232.89" y2="177.68"/><line x1="259.77" y1="272.45" x2="286.80" y2="253.28"/><line x1="276.26" y1="314.41" x2="274.79" y2="315.58"/><line x1="306.44" y1="297.51" x2="281.10" y2="301.25"/><line x1="480.00" y1="479.91" x2="480.00" y2="447.42"/><line x1="228.44" y1="173.67" x2="209.23" y2="174.85"/><line x1="232.89" y1="177.68" x2="210.36" y2="195.61"/><line x1="228.44" y1="173.67" x2="230.68" y2="175.48"/><line x1="236.18" y1="227.91" x2="238.92" y2="225.09"/><line x1="281.10" y1="301.25" x2="306.53" y2="299.52"/><line x1="267.70" y1="318.45" x2="263.09" y2="347.88"/><line x1="238.81" y1="185.77" x2="240.22" y2="188.40"/><line x1="238.92" y1="225.09" x2="237.32" y2="226.32"/><line x1="295.64" y1="266.50" x2="272.63" y2="285.46"/><line x1="271.48" y1="317.37" x2="284.87" y2="350.39"/><line x1="263.09" y1="347.88" x2="265.63" y2="318.72"/><line x1="447.51" y1="479.91" x2="480.00" y2="447.42"/><line x1="272.63" y1="285.46" x2="297.00" y2="268.77"/><line x1="242.71" y1="198.16" x2="242.63" y2="199.63"/><line x1="217.75" y1="170.53" x2="216.31" y2="170.73"/><line x1="216.16" y1="203.40" x2="240.22" y2="188.40"/><line x1="305.96" y1="311.96" x2="280.30" y2="308.67"/><line x1="228.44" y1="173.67" x2="214.94" y2="171.07"/><line x1="242.09" y1="193.43" x2="242.55" y2="195.83"/><line x1="228.44" y1="173.67" x2="206.85" y2="180.17"/><line x1="235.85" y1="236.02" x2="246.46" y2="223.50"/><line x1="300.99" y1="275.91" x2="301.63" y2="277.20"/><line x1="258.38" y1="318.29" x2="255.74" y2="317.65"/><line x1="225.20" y1="209.59" x2="227.58" y2="210.17"/><line x1="302.82" y1="326.71" x2="301.18" y2="331.38"/><line x1="259.19" y1="226.81" x2="265.82" y2="230.95"/><line x1="237.15" y1="328.05" x2="232.42" y2="323.13"/><line x1="240.97" y1="224.21" x2="243.49" y2="223.68"/><line x1="244.47" y1="312.51" x2="241.39" y2="310.55"/><line x1="480.00" y1="479.91" x2="447.51" y2="479.91"/><line x1="228.44" y1="173.67" x2="210.19" y2="173.83"/><line x1="304.22" y1="284.38" x2="304.67" y2="286.10"/><line x1="294.43" y1="343.65" x2="291.55" y2="346.53"/><line x1="238.81" y1="185.77" x2="216.16" y2="203.40"/><line x1="271.48" y1="317.37" x2="288.37" y2="348.78"/><line x1="280.80" y1="307.01" x2="305.96" y2="311.96"/><line x1="222.67" y1="311.92" x2="226.56" y2="299.64"/><line x1="243.49" y1="223.68" x2="235.85" y2="236.02"/><line x1="217.75" y1="170.53" x2="228.44" y2="173.67"/><line x1="240.63" y1="204.77" x2="241.38" y2="203.60"/><line x1="306.08" y1="293.60" x2="306.29" y2="295.54"/><line x1="300.20" y1="274.42" x2="300.99" y2="275.91"/><line x1="269.65" y1="318.00" x2="270.38" y2="350.72"/><line x1="242.38" y1="201.02" x2="241.96" y2="202.35"/><line x1="242.09" y1="193.43" x2="225.20" y2="209.59"/><line x1="306.55" y1="301.54" x2="306.41" y2="306.82"/><line x1="300.99" y1="275.91" x2="277.62" y2="291.44"/><line x1="225.20" y1="209.59" x2="242.55" y2="195.83"/><line x1="240.58" y1="247.03" x2="259.19" y2="226.81"/><line x1="302.82" y1="326.71" x2="276.26" y2="314.41"/><line x1="219.27" y1="170.45" x2="226.18" y2="172.26"/><line x1="212.03" y1="198.21" x2="214.01" y2="200.88"/><line x1="210.19" y1="173.83" x2="209.23" y2="174.85"/><line x1="274.70" y1="287.76" x2="276.32" y2="289.68"/><line x1="259.19" y1="226.81" x2="242.51" y2="250.46"/><line x1="278.72" y1="293.27" x2="303.74" y2="282.76"/><line x1="237.15" y1="328.05" x2="244.47" y2="312.51"/><line x1="209.23" y1="174.85" x2="208.41" y2="176.00"/><line x1="240.97" y1="224.21" x2="235.41" y2="233.93"/><line x1="232.55" y1="210.08" x2="233.80" y2="209.72"/><line x1="305.21" y1="317.00" x2="304.17" y2="321.92"/><line x1="303.74" y1="282.76" x2="304.22" y2="284.38"/><line x1="263.44" y1="318.81" x2="260.94" y2="318.68"/><line x1="241.31" y1="190.95" x2="242.09" y2="193.43"/><line x1="233.80" y1="209.72" x2="235.04" y2="209.23"/><line x1="250.76" y1="340.06" x2="258.38" y2="318.29"/><line x1="248.43" y1="259.83" x2="250.26" y2="262.37"/><line x1="294.43" y1="343.65" x2="271.48" y2="317.37"/><line x1="206.56" y1="183.57" x2="206.71" y2="185.85"/><line x1="242.63" y1="199.63" x2="242.38" y2="201.02"/><line x1="250.26" y1="262.37" x2="252.05" y2="264.62"/><line x1="222.67" y1="311.92" x2="230.64" y2="302.83"/><line x1="206.71" y1="185.85" x2="207.17" y2="188.18"/><line x1="277.57" y1="313.11" x2="302.82" y2="326.71"/><line x1="305.81" y1="291.67" x2="306.08" y2="293.60"/><line x1="210.36" y1="195.61" x2="212.03" y2="198.21"/><line x1="265.82" y1="230.95" x2="272.63" y2="236.74"/><line x1="240.63" y1="204.77" x2="242.38" y2="201.02"/><line x1="247.40" y1="314.18" x2="237.15" y2="328.05"/><line x1="269.65" y1="318.00" x2="273.74" y2="351.43"/><line x1="235.08" y1="180.30" x2="237.10" y2="183.07"/><line x1="279.61" y1="295.16" x2="305.49" y2="289.77"/><line x1="263.66" y1="276.27" x2="267.11" y2="279.72"/><line x1="306.55" y1="301.54" x2="281.10" y2="305.26"/><line x1="296.99" y1="340.11" x2="294.43" y2="343.65"/><line x1="235.49" y1="229.84" x2="235.27" y2="232.12"/><line x1="259.17" y1="345.75" x2="255.06" y2="343.15"/><line x1="219.27" y1="170.45" x2="221.60" y2="170.66"/><line x1="240.22" y1="188.40" x2="241.31" y2="190.95"/><line x1="274.70" y1="287.76" x2="299.27" y2="272.73"/><line x1="280.31" y1="297.12" x2="305.81" y2="291.67"/><line x1="218.35" y1="205.53" x2="220.60" y2="207.27"/><line x1="279.63" y1="244.18" x2="286.80" y2="253.28"/><line x1="305.21" y1="317.00" x2="278.68" y2="311.72"/><line x1="246.31" y1="336.52" x2="241.78" y2="332.52"/><line x1="242.63" y1="199.63" x2="240.63" y2="204.77"/><line x1="253.03" y1="316.75" x2="250.25" y2="315.59"/><line x1="480.00" y1="64.50" x2="447.51" y2="32.02"/><line x1="301.18" y1="331.38" x2="299.24" y2="335.94"/><line x1="210.36" y1="195.61" x2="235.08" y2="180.30"/><line x1="265.82" y1="230.95" x2="246.51" y2="257.00"/><line x1="232.42" y1="323.13" x2="238.06" y2="308.29"/><line x1="279.61" y1="295.16" x2="305.10" y2="287.91"/><line x1="306.55" y1="301.54" x2="281.20" y2="303.42"/><line x1="259.17" y1="345.75" x2="263.44" y2="318.81"/><line x1="230.68" y1="175.48" x2="232.89" y2="177.68"/><line x1="240.22" y1="188.40" x2="218.35" y2="205.53"/><line x1="280.81" y1="299.15" x2="281.10" y2="301.25"/><line x1="276.92" y1="351.67" x2="269.65" y2="318.00"/><line x1="305.21" y1="317.00" x2="279.59" y2="310.24"/><line x1="217.64" y1="305.62" x2="217.64" y2="292.32"/><line x1="286.80" y1="253.28" x2="263.66" y2="276.27"/><line x1="216.31" y1="170.73" x2="214.94" y2="171.07"/><line x1="272.63" y1="236.74" x2="279.63" y2="244.18"/><line x1="270.10" y1="282.78" x2="272.63" y2="285.46"/><line x1="246.31" y1="336.52" x2="253.03" y2="316.75"/><line x1="306.53" y1="299.52" x2="306.55" y2="301.54"/><line x1="301.63" y1="277.20" x2="302.19" y2="278.45"/><line x1="265.63" y1="318.72" x2="259.17" y2="345.75"/><line x1="301.18" y1="331.38" x2="274.79" y2="315.58"/><line x1="297.00" y1="268.77" x2="274.70" y2="287.76"/><line x1="265.82" y1="230.95" x2="244.54" y2="253.87"/><line x1="232.42" y1="323.13" x2="241.39" y2="310.55"/><line x1="280.30" y1="308.67" x2="305.21" y2="317.00"/><line x1="276.32" y1="289.68" x2="277.62" y2="291.44"/><line x1="279.61" y1="295.16" x2="304.67" y2="286.10"/><line x1="246.46" y1="223.50" x2="236.59" y2="238.36"/><line x1="32.16" y1="32.09" x2="32.16" y2="64.58"/><line x1="252.73" y1="224.33" x2="259.19" y2="226.81"/><line x1="255.74" y1="317.65" x2="246.31" y2="336.52"/><line x1="253.76" y1="266.58" x2="255.42" y2="268.24"/><line x1="241.78" y1="332.52" x2="237.15" y2="328.05"/><line x1="291.55" y1="346.53" x2="288.37" y2="348.78"/><line x1="226.56" y1="299.64" x2="222.23" y2="296.13"/><line x1="277.62" y1="291.44" x2="301.63" y2="277.20"/><line x1="242.71" y1="198.16" x2="235.04" y2="209.23"/><line x1="230.68" y1="175.48" x2="208.99" y2="193.06"/><line x1="280.81" y1="299.15" x2="306.44" y2="297.51"/><line x1="242.55" y1="195.83" x2="227.58" y2="210.17"/><line x1="242.51" y1="250.46" x2="244.54" y2="253.87"/><line x1="276.26" y1="314.41" x2="301.18" y2="331.38"/><line x1="228.44" y1="173.67" x2="207.17" y2="188.18"/><line x1="272.63" y1="236.74" x2="253.76" y2="266.58"/><line x1="270.10" y1="282.78" x2="295.64" y2="266.50"/><line x1="273.20" y1="316.56" x2="271.48" y2="317.37"/><line x1="237.10" y1="183.07" x2="238.81" y2="185.77"/><line x1="281.10" y1="305.26" x2="280.80" y2="307.01"/><line x1="277.62" y1="291.44" x2="278.72" y2="293.27"/><line x1="208.41" y1="176.00" x2="207.74" y2="177.27"/><line x1="242.71" y1="198.16" x2="239.71" y2="205.87"/><line x1="207.17" y1="188.18" x2="207.93" y2="190.59"/><line x1="255.06" y1="343.15" x2="250.76" y2="340.06"/><line x1="299.27" y1="272.73" x2="300.20" y2="274.42"/><line x1="228.44" y1="173.67" x2="216.31" y2="170.73"/><line x1="228.44" y1="173.67" x2="207.22" y2="178.66"/><line x1="32.00" y1="479.98" x2="64.49" y2="479.98"/><line x1="278.68" y1="311.72" x2="277.57" y2="313.11"/><line x1="252.73" y1="224.33" x2="240.58" y2="247.03"/><line x1="271.48" y1="317.37" x2="269.65" y2="318.00"/><line x1="241.78" y1="332.52" x2="247.40" y2="314.18"/><line x1="242.71" y1="198.16" x2="233.80" y2="209.72"/><line x1="242.51" y1="250.46" x2="265.82" y2="230.95"/><line x1="244.47" y1="312.51" x2="232.42" y2="323.13"/><line x1="228.44" y1="173.67" x2="211.27" y2="172.93"/><line x1="228.44" y1="173.67" x2="206.71" y2="185.85"/><line x1="304.22" y1="284.38" x2="279.61" y2="295.16"/><line x1="272.63" y1="236.74" x2="252.05" y2="264.62"/><line x1="235.04" y1="209.23" x2="236.25" y2="208.60"/><line x1="271.48" y1="317.37" x2="291.55" y2="346.53"/><line x1="252.05" y1="264.62" x2="253.76" y2="266.58"/><line x1="277.62" y1="291.44" x2="303.25" y2="281.23"/><line x1="242.71" y1="198.16" x2="238.62" y2="206.90"/><line x1="230.64" y1="302.83" x2="226.56" y2="299.64"/><line x1="207.17" y1="188.18" x2="230.68" y2="175.48"/><line x1="255.06" y1="343.15" x2="260.94" y2="318.68"/><line x1="306.08" y1="293.60" x2="280.81" y2="299.15"/><line x1="242.38" y1="201.02" x2="241.38" y2="203.60"/><line x1="228.44" y1="173.67" x2="207.74" y2="177.27"/><line x1="236.18" y1="227.91" x2="235.49" y2="229.84"/><line x1="273.74" y1="351.43" x2="270.38" y2="350.72"/><line x1="32.00" y1="479.98" x2="32.00" y2="447.50"/><line x1="281.10" y1="301.25" x2="281.20" y2="303.42"/><line x1="278.68" y1="311.72" x2="304.17" y2="321.92"/><line x1="267.11" y1="279.72" x2="270.10" y2="282.78"/><line x1="238.92" y1="225.09" x2="240.97" y2="224.21"/><line x1="271.48" y1="317.37" x2="276.92" y2="351.67"/><line x1="212.03" y1="198.21" x2="237.10" y2="183.07"/><line x1="241.78" y1="332.52" x2="250.25" y2="315.59"/><line x1="281.20" y1="303.42" x2="281.10" y2="305.26"/><line x1="242.71" y1="198.16" x2="232.55" y2="210.08"/><line x1="223.90" y1="171.26" x2="226.18" y2="172.26"/><line x1="299.24" y1="335.94" x2="296.99" y2="340.11"/><line x1="240.97" y1="224.21" x2="235.27" y2="232.12"/><line x1="263.44" y1="318.81" x2="255.06" y2="343.15"/><line x1="246.51" y1="257.00" x2="248.43" y2="259.83"/><line x1="241.31" y1="190.95" x2="222.88" y2="208.62"/><line x1="228.44" y1="173.67" x2="212.42" y2="172.18"/><line x1="238.06" y1="308.29" x2="234.48" y2="305.72"/><line x1="228.44" y1="173.67" x2="206.56" y2="183.57"/><line x1="237.62" y1="240.99" x2="238.96" y2="243.87"/><line x1="230.00" y1="210.36" x2="231.29" y2="210.29"/><line x1="208.99" y1="193.06" x2="210.36" y2="195.61"/><line x1="274.79" y1="315.58" x2="273.20" y2="316.56"/><line x1="306.44" y1="297.51" x2="306.53" y2="299.52"/><line x1="235.08" y1="180.30" x2="212.03" y2="198.21"/><line x1="236.18" y1="227.91" x2="237.32" y2="226.32"/><line x1="267.70" y1="318.45" x2="265.63" y2="318.72"/><line x1="235.49" y1="229.84" x2="240.97" y2="224.21"/><line x1="295.64" y1="266.50" x2="297.00" y2="268.77"/><line x1="219.27" y1="170.45" x2="223.90" y2="171.26"/><line x1="274.70" y1="287.76" x2="298.21" y2="270.85"/><line x1="223.90" y1="171.26" x2="221.60" y2="170.66"/><line x1="218.35" y1="205.53" x2="241.31" y2="190.95"/><line x1="279.63" y1="244.18" x2="259.77" y2="272.45"/><line x1="298.21" y1="270.85" x2="299.27" y2="272.73"/><line x1="269.65" y1="318.00" x2="267.70" y2="318.45"/><line x1="241.31" y1="190.95" x2="220.60" y2="207.27"/><line x1="236.59" y1="238.36" x2="237.62" y2="240.99"/><line x1="279.59" y1="310.24" x2="278.68" y2="311.72"/><line x1="214.94" y1="171.07" x2="213.64" y2="171.55"/><line x1="237.62" y1="240.99" x2="252.73" y2="224.33"/><line x1="253.03" y1="316.75" x2="241.78" y2="332.52"/><line x1="213.64" y1="171.55" x2="212.42" y2="172.18"/><line x1="227.58" y1="210.17" x2="230.00" y2="210.36"/><line x1="302.19" y1="278.45" x2="302.73" y2="279.79"/><line x1="278.72" y1="293.27" x2="279.61" y2="295.16"/><line x1="230.00" y1="210.36" x2="242.71" y2="198.16"/><line x1="274.79" y1="315.58" x2="299.24" y2="335.94"/><line x1="207.74" y1="177.27" x2="207.22" y2="178.66"/><line x1="244.54" y1="253.87" x2="246.51" y2="257.00"/><line x1="250.76" y1="340.06" x2="246.31" y2="336.52"/><line x1="241.39" y1="310.55" x2="238.06" y2="308.29"/><line x1="207.22" y1="178.66" x2="206.85" y2="180.17"/><line x1="304.67" y1="286.10" x2="305.10" y2="287.91"/><line x1="280.80" y1="307.01" x2="280.30" y2="308.67"/><line x1="237.45" y1="207.82" x2="238.62" y2="206.90"/><line x1="222.67" y1="311.92" x2="217.64" y2="305.62"/><line x1="288.37" y1="348.78" x2="284.87" y2="350.39"/><line x1="243.49" y1="223.68" x2="246.46" y2="223.50"/><line x1="64.64" y1="32.09" x2="32.16" y2="64.58"/><line x1="279.63" y1="244.18" x2="255.42" y2="268.24"/><line x1="217.64" y1="305.62" x2="222.23" y2="296.13"/><line x1="269.65" y1="318.00" x2="266.83" y2="349.54"/><line x1="306.29" y1="295.54" x2="306.44" y2="297.51"/><line x1="266.83" y1="349.54" x2="263.09" y2="347.88"/><line x1="222.23" y1="296.13" x2="217.64" y2="292.32"/><line x1="240.58" y1="247.03" x2="242.51" y2="250.46"/><line x1="214.01" y1="200.88" x2="216.16" y2="203.40"/><line x1="219.27" y1="170.45" x2="217.75" y2="170.53"/><line x1="306.41" y1="306.82" x2="305.96" y2="311.96"/><line x1="278.72" y1="293.27" x2="304.22" y2="284.38"/><line x1="235.41" y1="233.93" x2="235.85" y2="236.02"/><line x1="280.31" y1="297.12" x2="280.81" y2="299.15"/><line x1="260.94" y1="318.68" x2="258.38" y2="318.29"/><line x1="226.18" y1="172.26" x2="228.44" y2="173.67"/><line x1="286.80" y1="253.28" x2="294.15" y2="264.03"/><line x1="236.25" y1="208.60" x2="237.45" y2="207.82"/><line x1="276.32" y1="289.68" x2="300.99" y2="275.91"/><line x1="250.76" y1="340.06" x2="255.74" y2="317.65"/><line x1="32.16" y1="32.09" x2="64.64" y2="32.09"/><line x1="222.88" y1="208.62" x2="225.20" y2="209.59"/><line x1="253.76" y1="266.58" x2="279.63" y2="244.18"/><line x1="304.17" y1="321.92" x2="302.82" y2="326.71"/><line x1="226.56" y1="299.64" x2="217.64" y2="305.62"/><line x1="230.68" y1="175.48" x2="207.93" y2="190.59"/><line x1="277.57" y1="313.11" x2="276.26" y2="314.41"/><line x1="280.81" y1="299.15" x2="306.29" y2="295.54"/><line x1="207.93" y1="190.59" x2="208.99" y2="193.06"/><line x1="241.38" y1="203.60" x2="241.96" y2="202.35"/><line x1="303.25" y1="281.23" x2="303.74" y2="282.76"/><line x1="247.40" y1="314.18" x2="244.47" y2="312.51"/><line x1="270.38" y1="350.72" x2="266.83" y2="349.54"/><line x1="32.00" y1="447.50" x2="64.49" y2="479.98"/></g></svg>