<svg xmlns="http://www.w3.org/2000/svg" width="512" height="512"><rect width="512" height="512" fill="#0a0f1a"/><text x="12" y="20" font-family="monospace" font-size="11" fill="#4a7fa5">FRONT (XZ)</text><g stroke="#00d4ff" stroke-width="0.6" opacity="0.85"><line x1="291.03" y1="278.00" x2="311.81" y2="261.56"/><line x1="301.48" y1="291.98" x2="324.59" y2="279.27"/><line x1="302.42" y1="316.85" x2="317.76" y2="337.05"/><line x1="303.20" y1="295.30" x2="304.55" y2="298.52"/><line x1="219.03" y1="246.95" x2="216.79" y2="244.84"/><line x1="284.33" y1="413.74" x2="305.43" y2="390.58"/><line x1="280.04" y1="234.69" x2="267.89" y2="258.31"/><line x1="317.76" y1="337.05" x2="301.58" y2="317.38"/><line x1="248.71" y1="281.38" x2="245.73" y2="277.92"/><line x1="277.67" y1="308.42" x2="262.50" y2="320.42"/><line x1="243.88" y1="354.36" x2="251.08" y2="366.54"/><line x1="267.89" y1="258.31" x2="283.92" y2="237.34"/><line x1="304.55" y1="298.52" x2="328.49" y2="288.46"/><line x1="262.50" y1="320.42" x2="274.51" y2="305.83"/><line x1="314.91" y1="440.49" x2="326.84" y2="431.61"/><line x1="328.49" y1="288.46" x2="329.11" y2="290.68"/><line x1="279.68" y1="334.32" x2="276.41" y2="331.98"/><line x1="307.84" y1="344.32" x2="305.21" y2="344.63"/><line x1="204.65" y1="239.00" x2="203.64" y2="239.05"/><line x1="219.80" y1="213.35" x2="215.97" y2="220.35"/><line x1="294.64" y1="245.40" x2="280.47" y2="267.88"/><line x1="326.84" y1="431.61" x2="318.50" y2="441.83"/><line x1="305.21" y1="344.63" x2="302.72" y2="344.50"/><line x1="321.63" y1="442.28" x2="323.09" y2="442.14"/><line x1="227.40" y1="324.68" x2="182.90" y2="292.58"/><line x1="290.44" y1="374.55" x2="292.23" y2="376.27"/><line x1="280.47" y1="267.88" x2="297.90" y2="248.13"/><line x1="330.22" y1="299.25" x2="330.06" y2="303.71"/><line x1="263.11" y1="295.88" x2="246.47" y2="304.96"/><line x1="323.09" y1="442.14" x2="326.10" y2="440.07"/><line x1="330.06" y1="303.71" x2="306.08" y2="304.66"/><line x1="278.05" y1="406.13" x2="301.64" y2="386.16"/><line x1="198.71" y1="241.28" x2="198.10" y2="241.98"/><line x1="220.66" y1="230.41" x2="232.44" y2="212.13"/><line x1="326.10" y1="440.07" x2="324.31" y2="441.73"/><line x1="300.69" y1="317.80" x2="307.84" y2="344.32"/><line x1="291.88" y1="341.42" x2="297.67" y2="318.34"/><line x1="301.64" y1="386.16" x2="284.33" y2="413.74"/><line x1="271.59" y1="397.60" x2="278.05" y2="406.13"/><line x1="291.03" y1="278.00" x2="309.35" y2="258.91"/><line x1="251.50" y1="284.50" x2="248.71" y2="281.38"/><line x1="249.79" y1="217.54" x2="256.61" y2="220.79"/><line x1="284.33" y1="413.74" x2="303.57" y2="388.36"/><line x1="305.51" y1="301.63" x2="330.22" y2="299.25"/><line x1="232.57" y1="290.57" x2="199.85" y2="263.83"/><line x1="291.84" y1="317.27" x2="289.74" y2="316.43"/><line x1="480.00" y1="32.02" x2="447.51" y2="32.02"/><line x1="196.55" y1="250.50" x2="196.97" y2="253.37"/><line x1="322.37" y1="329.78" x2="303.18" y2="316.19"/><line x1="242.01" y1="300.43" x2="237.38" y2="295.63"/><line x1="271.79" y1="229.45" x2="275.99" y2="232.06"/><line x1="312.23" y1="399.60" x2="313.78" y2="401.89"/><line x1="283.02" y1="312.49" x2="280.51" y2="310.64"/><line x1="227.40" y1="324.68" x2="182.90" y2="304.46"/><line x1="322.75" y1="418.09" x2="324.66" y2="422.89"/><line x1="227.68" y1="211.77" x2="220.66" y2="230.41"/><line x1="232.57" y1="290.57" x2="196.42" y2="247.95"/><line x1="325.80" y1="281.63" x2="326.84" y2="283.94"/><line x1="232.57" y1="290.57" x2="258.84" y2="347.59"/><line x1="269.63" y1="326.64" x2="266.10" y2="323.64"/><line x1="294.72" y1="342.58" x2="291.88" y2="341.42"/><line x1="306.43" y1="435.15" x2="310.89" y2="438.26"/><line x1="299.70" y1="384.02" x2="301.64" y2="386.16"/><line x1="306.72" y1="256.25" x2="291.03" y2="278.00"/><line x1="315.37" y1="339.78" x2="312.92" y2="341.90"/><line x1="304.55" y1="298.52" x2="305.51" y2="301.63"/><line x1="237.38" y1="295.63" x2="251.50" y2="284.50"/><line x1="272.53" y1="359.02" x2="288.68" y2="372.92"/><line x1="272.25" y1="261.41" x2="291.22" y2="242.70"/><line x1="300.69" y1="317.80" x2="310.41" y2="343.41"/><line x1="327.66" y1="316.89" x2="306.08" y2="310.22"/><line x1="258.76" y1="316.95" x2="254.84" y2="313.23"/><line x1="258.11" y1="377.81" x2="264.94" y2="388.16"/><line x1="196.46" y1="246.74" x2="196.42" y2="247.95"/><line x1="318.50" y1="441.83" x2="321.63" y2="442.28"/><line x1="234.73" y1="240.28" x2="249.79" y2="217.54"/><line x1="329.60" y1="292.87" x2="329.94" y2="295.02"/><line x1="271.59" y1="397.60" x2="295.91" y2="379.97"/><line x1="299.74" y1="318.10" x2="298.74" y2="318.28"/><line x1="306.08" y1="310.22" x2="305.84" y2="311.43"/><line x1="271.03" y1="302.88" x2="267.23" y2="299.56"/><line x1="282.86" y1="336.45" x2="291.84" y2="317.27"/><line x1="232.57" y1="290.57" x2="204.65" y2="239.00"/><line x1="196.42" y1="247.95" x2="196.55" y2="250.50"/><line x1="284.23" y1="271.20" x2="287.75" y2="274.57"/><line x1="232.57" y1="290.57" x2="197.59" y2="242.76"/><line x1="249.79" y1="217.54" x2="241.51" y2="243.53"/><line x1="327.11" y1="435.52" x2="326.99" y2="437.31"/><line x1="305.51" y1="301.63" x2="330.15" y2="297.16"/><line x1="296.88" y1="285.04" x2="318.23" y2="269.39"/><line x1="232.57" y1="290.57" x2="198.62" y2="260.03"/><line x1="291.84" y1="317.27" x2="279.68" y2="334.32"/><line x1="235.78" y1="265.82" x2="232.55" y2="261.95"/><line x1="310.63" y1="397.32" x2="312.23" y2="399.60"/><line x1="318.23" y1="269.39" x2="320.05" y2="271.93"/><line x1="304.52" y1="314.55" x2="322.37" y2="329.78"/><line x1="232.55" y1="261.95" x2="229.50" y2="258.37"/><line x1="295.91" y1="379.97" x2="297.79" y2="381.95"/><line x1="480.00" y1="32.02" x2="480.00" y2="64.50"/><line x1="254.75" y1="250.11" x2="271.79" y2="229.45"/><line x1="322.37" y1="329.78" x2="303.89" y2="315.42"/><line x1="242.01" y1="300.43" x2="254.09" y2="287.29"/><line x1="285.33" y1="314.04" x2="283.02" y2="312.49"/><line x1="480.00" y1="479.91" x2="480.00" y2="447.42"/><line x1="203.15" y1="272.34" x2="227.40" y2="324.68"/><line x1="271.79" y1="229.45" x2="259.14" y2="252.67"/><line x1="324.59" y1="279.27" x2="325.80" y2="281.63"/><line x1="283.02" y1="312.49" x2="269.63" y2="326.64"/><line x1="232.57" y1="290.57" x2="214.61" y2="243.05"/><line x1="216.79" y1="244.84" x2="214.61" y2="243.05"/><line x1="232.57" y1="290.57" x2="200.92" y2="239.74"/><line x1="294.07" y1="281.49" x2="296.88" y2="285.04"/><line x1="283.92" y1="237.34" x2="287.65" y2="240.01"/><line x1="322.75" y1="418.09" x2="306.43" y2="435.15"/><line x1="326.21" y1="321.22" x2="324.45" y2="325.51"/><line x1="232.57" y1="290.57" x2="196.46" y2="246.74"/><line x1="325.80" y1="281.63" x2="303.20" y2="295.30"/><line x1="301.58" y1="317.38" x2="315.37" y2="339.78"/><line x1="232.57" y1="290.57" x2="227.40" y2="324.68"/><line x1="214.61" y1="243.05" x2="212.49" y2="241.60"/><line x1="447.51" y1="479.91" x2="480.00" y2="447.42"/><line x1="315.37" y1="339.78" x2="300.69" y2="317.80"/><line x1="215.97" y1="220.35" x2="216.49" y2="223.72"/><line x1="272.53" y1="359.02" x2="258.11" y2="377.81"/><line x1="299.37" y1="288.56" x2="301.48" y2="291.98"/><line x1="272.25" y1="261.41" x2="287.65" y2="240.01"/><line x1="258.76" y1="316.95" x2="271.03" y2="302.88"/><line x1="221.94" y1="212.47" x2="224.57" y2="211.94"/><line x1="297.90" y1="248.13" x2="301.00" y2="250.85"/><line x1="318.50" y1="441.83" x2="327.11" y2="435.52"/><line x1="329.60" y1="292.87" x2="305.51" y2="301.63"/><line x1="299.74" y1="318.10" x2="297.47" y2="343.48"/><line x1="232.57" y1="290.57" x2="226.63" y2="255.08"/><line x1="202.68" y1="239.18" x2="201.77" y2="239.42"/><line x1="232.57" y1="290.57" x2="206.52" y2="239.16"/><line x1="284.23" y1="271.20" x2="303.94" y2="253.56"/><line x1="232.57" y1="290.57" x2="198.10" y2="241.98"/><line x1="232.57" y1="290.57" x2="197.65" y2="256.55"/><line x1="258.67" y1="291.83" x2="256.48" y2="289.73"/><line x1="232.44" y1="212.13" x2="237.71" y2="213.21"/><line x1="329.58" y1="308.14" x2="328.78" y2="312.53"/><line x1="290.42" y1="420.44" x2="296.20" y2="426.23"/><line x1="224.31" y1="233.72" x2="229.00" y2="237.01"/><line x1="288.96" y1="340.02" x2="285.96" y2="338.35"/><line x1="480.00" y1="479.91" x2="447.51" y2="479.91"/><line x1="311.81" y1="261.56" x2="314.11" y2="264.20"/><line x1="295.80" y1="318.22" x2="293.86" y2="317.86"/><line x1="232.57" y1="290.57" x2="242.55" y2="274.12"/><line x1="232.57" y1="290.57" x2="216.79" y2="244.84"/><line x1="232.57" y1="290.57" x2="201.77" y2="239.42"/><line x1="283.92" y1="237.34" x2="272.25" y2="261.41"/><line x1="326.21" y1="321.22" x2="305.06" y2="313.59"/><line x1="232.57" y1="290.57" x2="196.61" y2="245.62"/><line x1="274.51" y1="305.83" x2="258.76" y2="316.95"/><line x1="256.61" y1="220.79" x2="263.94" y2="224.75"/><line x1="329.11" y1="290.68" x2="329.60" y2="292.87"/><line x1="289.74" y1="316.43" x2="287.58" y2="315.35"/><line x1="215.97" y1="220.35" x2="221.94" y2="212.47"/><line x1="299.37" y1="288.56" x2="323.24" y2="276.86"/><line x1="276.41" y1="331.98" x2="273.06" y2="329.42"/><line x1="302.72" y1="344.50" x2="299.74" y2="318.10"/><line x1="317.31" y1="407.59" x2="320.31" y2="412.99"/><line x1="297.90" y1="248.13" x2="284.23" y2="271.20"/><line x1="303.18" y1="316.19" x2="302.42" y2="316.85"/><line x1="299.74" y1="318.10" x2="300.14" y2="344.12"/><line x1="232.57" y1="290.57" x2="229.50" y2="258.37"/><line x1="232.57" y1="290.57" x2="208.45" y2="239.65"/><line x1="294.06" y1="378.08" x2="295.91" y2="379.97"/><line x1="284.23" y1="271.20" x2="301.00" y2="250.85"/><line x1="320.10" y1="333.71" x2="317.76" y2="337.05"/><line x1="306.08" y1="304.66" x2="329.58" y2="308.14"/><line x1="258.67" y1="291.83" x2="242.01" y2="300.43"/><line x1="216.21" y1="218.07" x2="219.80" y2="213.35"/><line x1="182.90" y1="304.46" x2="243.88" y2="354.36"/><line x1="324.66" y1="422.89" x2="326.02" y2="427.40"/><line x1="263.52" y1="255.40" x2="267.89" y2="258.31"/><line x1="232.44" y1="212.13" x2="224.31" y2="233.72"/><line x1="324.31" y1="441.73" x2="325.32" y2="441.04"/><line x1="329.58" y1="308.14" x2="306.27" y2="307.57"/><line x1="266.10" y1="323.64" x2="262.50" y2="320.42"/><line x1="297.67" y1="318.34" x2="288.96" y2="340.02"/><line x1="290.42" y1="420.44" x2="317.31" y2="407.59"/><line x1="288.68" y1="372.92" x2="290.44" y2="374.55"/><line x1="197.59" y1="242.76" x2="197.17" y2="243.63"/><line x1="310.89" y1="438.26" x2="314.91" y2="440.49"/><line x1="224.31" y1="233.72" x2="237.71" y2="213.21"/><line x1="327.74" y1="286.21" x2="328.49" y2="288.46"/><line x1="309.35" y1="258.91" x2="311.81" y2="261.56"/><line x1="288.96" y1="340.02" x2="295.80" y2="318.22"/><line x1="303.57" y1="388.36" x2="305.43" y2="390.58"/><line x1="311.81" y1="261.56" x2="294.07" y2="281.49"/><line x1="203.64" y1="239.05" x2="202.68" y2="239.18"/><line x1="305.84" y1="311.43" x2="326.21" y2="321.22"/><line x1="232.57" y1="290.57" x2="245.73" y2="277.92"/><line x1="232.57" y1="290.57" x2="219.03" y2="246.95"/><line x1="241.51" y1="243.53" x2="256.61" y2="220.79"/><line x1="320.05" y1="271.93" x2="321.73" y2="274.42"/><line x1="326.21" y1="321.22" x2="305.49" y2="312.55"/><line x1="292.23" y1="376.27" x2="294.06" y2="378.08"/><line x1="196.97" y1="253.37" x2="197.65" y2="256.55"/><line x1="256.61" y1="220.79" x2="245.94" y2="245.54"/><line x1="246.47" y1="304.96" x2="258.67" y2="291.83"/><line x1="298.74" y1="318.28" x2="297.67" y2="318.34"/><line x1="289.74" y1="316.43" x2="276.41" y2="331.98"/><line x1="259.14" y1="252.67" x2="263.52" y2="255.40"/><line x1="313.78" y1="401.89" x2="317.31" y2="407.59"/><line x1="299.37" y1="288.56" x2="321.73" y2="274.42"/><line x1="198.10" y1="241.98" x2="197.59" y2="242.76"/><line x1="226.63" y1="255.08" x2="223.92" y2="252.08"/><line x1="275.99" y1="232.06" x2="280.04" y2="234.69"/><line x1="303.20" y1="295.30" x2="327.74" y2="286.21"/><line x1="303.18" y1="316.19" x2="320.10" y2="333.71"/><line x1="280.51" y1="310.64" x2="277.67" y2="308.42"/><line x1="248.71" y1="281.38" x2="232.57" y2="290.57"/><line x1="216.21" y1="218.07" x2="216.92" y2="216.14"/><line x1="324.66" y1="422.89" x2="310.89" y2="438.26"/><line x1="288.68" y1="372.92" x2="271.59" y2="397.60"/><line x1="279.68" y1="334.32" x2="289.74" y2="316.43"/><line x1="291.22" y1="242.70" x2="294.64" y2="245.40"/><line x1="254.84" y1="313.23" x2="250.74" y2="309.23"/><line x1="216.49" y1="223.72" x2="218.05" y2="227.08"/><line x1="321.63" y1="442.28" x2="326.66" y2="438.83"/><line x1="273.06" y1="329.42" x2="269.63" y2="326.64"/><line x1="284.33" y1="413.74" x2="290.42" y2="420.44"/><line x1="224.57" y1="211.94" x2="227.68" y2="211.77"/><line x1="258.84" y1="347.59" x2="272.53" y2="359.02"/><line x1="320.05" y1="271.93" x2="299.37" y2="288.56"/><line x1="297.47" y1="343.48" x2="294.72" y2="342.58"/><line x1="278.05" y1="406.13" x2="299.70" y2="384.02"/><line x1="480.00" y1="64.50" x2="447.51" y2="32.02"/><line x1="303.94" y1="253.56" x2="306.72" y2="256.25"/><line x1="259.14" y1="252.67" x2="275.99" y2="232.06"/><line x1="328.78" y1="312.53" x2="327.66" y2="316.89"/><line x1="229.00" y1="237.01" x2="234.73" y2="240.28"/><line x1="303.20" y1="295.30" x2="326.84" y2="283.94"/><line x1="285.96" y1="338.35" x2="282.86" y2="336.45"/><line x1="280.51" y1="310.64" x2="266.10" y2="323.64"/><line x1="210.44" y1="240.46" x2="208.45" y2="239.65"/><line x1="263.94" y1="224.75" x2="271.79" y2="229.45"/><line x1="308.96" y1="395.06" x2="310.63" y2="397.32"/><line x1="287.65" y1="240.01" x2="291.22" y2="242.70"/><line x1="300.69" y1="317.80" x2="299.74" y2="318.10"/><line x1="288.68" y1="372.92" x2="264.94" y2="388.16"/><line x1="229.50" y1="258.37" x2="226.63" y2="255.08"/><line x1="254.84" y1="313.23" x2="267.23" y2="299.56"/><line x1="303.89" y1="315.42" x2="303.18" y2="316.19"/><line x1="216.49" y1="223.72" x2="224.57" y2="211.94"/><line x1="301.48" y1="291.98" x2="303.20" y2="295.30"/><line x1="321.63" y1="442.28" x2="326.99" y2="437.31"/><line x1="227.40" y1="324.68" x2="258.84" y2="347.59"/><line x1="273.06" y1="329.42" x2="283.02" y2="312.49"/><line x1="284.33" y1="413.74" x2="308.96" y2="395.06"/><line x1="200.92" y1="239.74" x2="200.13" y2="240.16"/><line x1="320.31" y1="412.99" x2="322.75" y2="418.09"/><line x1="269.63" y1="326.64" x2="280.51" y2="310.64"/><line x1="297.47" y1="343.48" x2="298.74" y2="318.28"/><line x1="306.43" y1="435.15" x2="324.66" y2="422.89"/><line x1="237.71" y1="213.21" x2="243.50" y2="215.01"/><line x1="278.05" y1="406.13" x2="297.79" y2="381.95"/><line x1="304.55" y1="298.52" x2="329.60" y2="292.87"/><line x1="212.49" y1="241.60" x2="210.44" y2="240.46"/><line x1="256.48" y1="289.73" x2="254.09" y2="287.29"/><line x1="300.69" y1="317.80" x2="312.92" y2="341.90"/><line x1="328.78" y1="312.53" x2="306.23" y2="308.93"/><line x1="258.11" y1="377.81" x2="288.68" y2="372.92"/><line x1="271.59" y1="397.60" x2="294.06" y2="378.08"/><line x1="196.84" y1="244.58" x2="196.61" y2="245.62"/><line x1="271.03" y1="302.88" x2="254.84" y2="313.23"/><line x1="285.96" y1="338.35" x2="293.86" y2="317.86"/><line x1="327.11" y1="435.52" x2="321.63" y2="442.28"/><line x1="305.51" y1="301.63" x2="329.94" y2="295.02"/><line x1="32.16" y1="32.09" x2="32.16" y2="64.58"/><line x1="307.22" y1="392.81" x2="308.96" y2="395.06"/><line x1="201.77" y1="239.42" x2="200.92" y2="239.74"/><line x1="305.06" y1="313.59" x2="304.52" y2="314.55"/><line x1="242.55" y1="274.12" x2="239.17" y2="269.99"/><line x1="300.14" y1="344.12" x2="297.47" y2="343.48"/><line x1="263.94" y1="224.75" x2="254.75" y2="250.11"/><line x1="295.91" y1="379.97" x2="278.05" y2="406.13"/><line x1="287.58" y1="315.35" x2="285.33" y2="314.04"/><line x1="301.00" y1="250.85" x2="303.94" y2="253.56"/><line x1="306.27" y1="307.57" x2="306.23" y2="308.93"/><line x1="296.20" y1="426.23" x2="301.54" y2="431.13"/><line x1="300.69" y1="317.80" x2="302.72" y2="344.50"/><line x1="242.01" y1="300.43" x2="256.48" y2="289.73"/><line x1="323.24" y1="276.86" x2="324.59" y2="279.27"/><line x1="291.03" y1="278.00" x2="294.07" y2="281.49"/><line x1="302.42" y1="316.85" x2="301.58" y2="317.38"/><line x1="294.07" y1="281.49" x2="316.25" y2="266.81"/><line x1="305.51" y1="301.63" x2="306.08" y2="304.66"/><line x1="232.57" y1="290.57" x2="203.15" y2="272.34"/><line x1="280.04" y1="234.69" x2="283.92" y2="237.34"/><line x1="277.67" y1="308.42" x2="274.51" y2="305.83"/><line x1="326.02" y1="427.40" x2="326.84" y2="431.61"/><line x1="237.71" y1="213.21" x2="229.00" y2="237.01"/><line x1="304.55" y1="298.52" x2="329.11" y2="290.68"/><line x1="245.94" y1="245.54" x2="250.35" y2="247.74"/><line x1="221.94" y1="212.47" x2="216.49" y2="223.72"/><line x1="271.59" y1="397.60" x2="292.23" y2="376.27"/><line x1="294.64" y1="245.40" x2="297.90" y2="248.13"/><line x1="32.00" y1="479.98" x2="64.49" y2="479.98"/><line x1="250.74" y1="309.23" x2="246.47" y2="304.96"/><line x1="227.40" y1="324.68" x2="243.88" y2="354.36"/><line x1="232.57" y1="290.57" x2="198.71" y2="241.28"/><line x1="232.57" y1="290.57" x2="196.97" y2="253.37"/><line x1="323.09" y1="442.14" x2="324.31" y2="441.73"/><line x1="237.38" y1="295.63" x2="232.57" y2="290.57"/><line x1="306.27" y1="307.57" x2="328.78" y2="312.53"/><line x1="296.20" y1="426.23" x2="320.31" y2="412.99"/><line x1="300.69" y1="317.80" x2="305.21" y2="344.63"/><line x1="327.66" y1="316.89" x2="326.21" y2="321.22"/><line x1="197.17" y1="243.63" x2="196.84" y2="244.58"/><line x1="301.64" y1="386.16" x2="303.57" y2="388.36"/><line x1="295.80" y1="318.22" x2="285.96" y2="338.35"/><line x1="305.43" y1="390.58" x2="307.22" y2="392.81"/><line x1="232.57" y1="290.57" x2="202.68" y2="239.18"/><line x1="294.07" y1="281.49" x2="314.11" y2="264.20"/><line x1="232.57" y1="290.57" x2="196.84" y2="244.58"/><line x1="305.51" y1="301.63" x2="330.06" y2="303.71"/><line x1="296.88" y1="285.04" x2="299.37" y2="288.56"/><line x1="232.57" y1="290.57" x2="201.37" y2="267.93"/><line x1="245.73" y1="277.92" x2="242.55" y2="274.12"/><line x1="305.49" y1="312.55" x2="305.06" y2="313.59"/><line x1="326.02" y1="427.40" x2="314.91" y2="440.49"/><line x1="197.65" y1="256.55" x2="198.62" y2="260.03"/><line x1="326.66" y1="438.83" x2="326.10" y2="440.07"/><line x1="245.94" y1="245.54" x2="263.94" y2="224.75"/><line x1="206.52" y1="239.16" x2="204.65" y2="239.00"/><line x1="276.41" y1="331.98" x2="287.58" y2="315.35"/><line x1="322.37" y1="329.78" x2="320.10" y2="333.71"/><line x1="317.31" y1="407.59" x2="296.20" y2="426.23"/><line x1="321.73" y1="274.42" x2="323.24" y2="276.86"/><line x1="271.59" y1="397.60" x2="290.44" y2="374.55"/><line x1="223.92" y1="252.08" x2="221.39" y2="249.37"/><line x1="232.57" y1="290.57" x2="232.55" y2="261.95"/><line x1="32.00" y1="479.98" x2="32.00" y2="447.50"/><line x1="232.57" y1="290.57" x2="210.44" y2="240.46"/><line x1="250.74" y1="309.23" x2="263.11" y2="295.88"/><line x1="232.57" y1="290.57" x2="199.39" y2="240.67"/><line x1="320.10" y1="333.71" x2="302.42" y2="316.85"/><line x1="227.68" y1="211.77" x2="232.44" y2="212.13"/><line x1="232.57" y1="290.57" x2="196.55" y2="250.50"/><line x1="182.90" y1="304.46" x2="182.90" y2="292.58"/><line x1="263.52" y1="255.40" x2="280.04" y2="234.69"/><line x1="199.39" y1="240.67" x2="198.71" y2="241.28"/><line x1="266.10" y1="323.64" x2="277.67" y2="308.42"/><line x1="306.72" y1="256.25" x2="309.35" y2="258.91"/><line x1="290.42" y1="420.44" x2="313.78" y2="401.89"/><line x1="218.12" y1="214.57" x2="219.80" y2="213.35"/><line x1="310.89" y1="438.26" x2="326.02" y2="427.40"/><line x1="237.38" y1="295.63" x2="248.71" y2="281.38"/><line x1="327.74" y1="286.21" x2="304.55" y2="298.52"/><line x1="272.25" y1="261.41" x2="276.48" y2="264.61"/><line x1="208.45" y1="239.65" x2="206.52" y2="239.16"/><line x1="327.66" y1="316.89" x2="305.84" y2="311.43"/><line x1="276.48" y1="264.61" x2="280.47" y2="267.88"/><line x1="234.73" y1="240.28" x2="241.51" y2="243.53"/><line x1="267.23" y1="299.56" x2="263.11" y2="295.88"/><line x1="264.94" y1="388.16" x2="271.59" y2="397.60"/><line x1="282.86" y1="336.45" x2="279.68" y2="334.32"/><line x1="232.57" y1="290.57" x2="221.39" y2="249.37"/><line x1="232.57" y1="290.57" x2="203.64" y2="239.05"/><line x1="232.57" y1="290.57" x2="197.17" y2="243.63"/><line x1="296.88" y1="285.04" x2="320.05" y2="271.93"/><line x1="218.05" y1="227.08" x2="220.66" y2="230.41"/><line x1="298.74" y1="318.28" x2="291.88" y2="341.42"/><line x1="304.52" y1="314.55" x2="303.89" y2="315.42"/><line x1="287.75" y1="274.57" x2="291.03" y2="278.00"/><line x1="326.66" y1="438.83" x2="323.09" y2="442.14"/><line x1="254.75" y1="250.11" x2="259.14" y2="252.67"/><line x1="254.09" y1="287.29" x2="251.50" y2="284.50"/><line x1="275.99" y1="232.06" x2="263.52" y2="255.40"/><line x1="306.23" y1="308.93" x2="306.08" y2="310.22"/><line x1="243.50" y1="215.01" x2="249.79" y2="217.54"/><line x1="232.57" y1="290.57" x2="235.78" y2="265.82"/><line x1="232.57" y1="290.57" x2="212.49" y2="241.60"/><line x1="326.84" y1="283.94" x2="327.74" y2="286.21"/><line x1="293.86" y1="317.86" x2="291.84" y2="317.27"/><line x1="232.57" y1="290.57" x2="200.13" y2="240.16"/><line x1="301.58" y1="317.38" x2="300.69" y2="317.80"/><line x1="216.21" y1="218.07" x2="218.12" y2="214.57"/><line x1="316.25" y1="266.81" x2="318.23" y2="269.39"/><line x1="312.92" y1="341.90" x2="310.41" y2="343.41"/><line x1="290.42" y1="420.44" x2="312.23" y2="399.60"/><line x1="218.12" y1="214.57" x2="216.92" y2="216.14"/><line x1="291.22" y1="242.70" x2="276.48" y2="264.61"/><line x1="324.45" y1="325.51" x2="322.37" y2="329.78"/><line x1="310.41" y1="343.41" x2="307.84" y2="344.32"/><line x1="276.48" y1="264.61" x2="294.64" y2="245.40"/><line x1="329.94" y1="295.02" x2="330.15" y2="297.16"/><line x1="267.23" y1="299.56" x2="250.74" y2="309.23"/><line x1="224.57" y1="211.94" x2="218.05" y2="227.08"/><line x1="232.57" y1="290.57" x2="223.92" y2="252.08"/><line x1="258.84" y1="347.59" x2="251.08" y2="366.54"/><line x1="326.99" y1="437.31" x2="326.66" y2="438.83"/><line x1="330.15" y1="297.16" x2="330.22" y2="299.25"/><line x1="200.13" y1="240.16" x2="199.39" y2="240.67"/><line x1="301.54" y1="431.13" x2="306.43" y2="435.15"/><line x1="218.05" y1="227.08" x2="227.68" y2="211.77"/><line x1="303.94" y1="253.56" x2="287.75" y2="274.57"/><line x1="298.74" y1="318.28" x2="294.72" y2="342.58"/><line x1="297.79" y1="381.95" x2="299.70" y2="384.02"/><line x1="287.75" y1="274.57" x2="306.72" y2="256.25"/><line x1="254.09" y1="287.29" x2="237.38" y2="295.63"/><line x1="251.08" y1="366.54" x2="258.11" y2="377.81"/><line x1="229.00" y1="237.01" x2="243.50" y2="215.01"/><line x1="306.23" y1="308.93" x2="327.66" y2="316.89"/><line x1="196.61" y1="245.62" x2="196.46" y2="246.74"/><line x1="243.50" y1="215.01" x2="234.73" y2="240.28"/><line x1="232.57" y1="290.57" x2="239.17" y2="269.99"/><line x1="293.86" y1="317.86" x2="282.86" y2="336.45"/><line x1="308.96" y1="395.06" x2="290.42" y2="420.44"/><line x1="274.51" y1="305.83" x2="271.03" y2="302.88"/><line x1="316.25" y1="266.81" x2="296.88" y2="285.04"/><line x1="239.17" y1="269.99" x2="235.78" y2="265.82"/><line x1="64.64" y1="32.09" x2="32.16" y2="64.58"/><line x1="290.42" y1="420.44" x2="310.63" y2="397.32"/><line x1="324.45" y1="325.51" x2="304.52" y2="314.55"/><line x1="199.85" y1="263.83" x2="201.37" y2="267.93"/><line x1="302.72" y1="344.50" x2="300.14" y2="344.12"/><line x1="301.48" y1="291.98" x2="325.80" y2="281.63"/><line x1="273.06" y1="329.42" x2="285.33" y2="314.04"/><line x1="284.33" y1="413.74" x2="307.22" y2="392.81"/><line x1="201.37" y1="267.93" x2="203.15" y2="272.34"/><line x1="320.31" y1="412.99" x2="301.54" y2="431.13"/><line x1="258.84" y1="347.59" x2="243.88" y2="354.36"/><line x1="317.76" y1="337.05" x2="315.37" y2="339.78"/><line x1="306.08" y1="304.66" x2="306.27" y2="307.57"/><line x1="267.89" y1="258.31" x2="272.25" y2="261.41"/><line x1="301.54" y1="431.13" x2="322.75" y2="418.09"/><line x1="216.21" y1="218.07" x2="215.97" y2="220.35"/><line x1="262.50" y1="320.42" x2="258.76" y2="316.95"/><line x1="297.67" y1="318.34" x2="295.80" y2="318.22"/><line x1="314.91" y1="440.49" x2="318.50" y2="441.83"/><line x1="219.80" y1="213.35" x2="221.94" y2="212.47"/><line x1="251.08" y1="366.54" x2="272.53" y2="359.02"/><line x1="326.84" y1="431.61" x2="327.11" y2="435.52"/><line x1="314.11" y1="264.20" x2="316.25" y2="266.81"/><line x1="305.84" y1="311.43" x2="305.49" y2="312.55"/><line x1="32.16" y1="32.09" x2="64.64" y2="32.09"/><line x1="280.47" y1="267.88" x2="284.23" y2="271.20"/><line x1="305.06" y1="313.59" x2="324.45" y2="325.51"/><line x1="241.51" y1="243.53" x2="245.94" y2="245.54"/><line x1="263.11" y1="295.88" x2="258.67" y2="291.83"/><line x1="198.62" y1="260.03" x2="199.85" y2="263.83"/><line x1="263.94" y1="224.75" x2="250.35" y2="247.74"/><line x1="330.06" y1="303.71" x2="329.58" y2="308.14"/><line x1="278.05" y1="406.13" x2="284.33" y2="413.74"/><line x1="246.47" y1="304.96" x2="242.01" y2="300.43"/><line x1="287.58" y1="315.35" x2="273.06" y2="329.42"/><line x1="220.66" y1="230.41" x2="224.31" y2="233.72"/><line x1="326.10" y1="440.07" x2="325.32" y2="441.04"/><line x1="250.35" y1="247.74" x2="254.75" y2="250.11"/><line x1="323.24" y1="276.86" x2="301.48" y2="291.98"/><line x1="291.88" y1="341.42" x2="288.96" y2="340.02"/><line x1="221.39" y1="249.37" x2="219.03" y2="246.95"/><line x1="32.00" y1="447.50" x2="64.49" y2="479.98"/></g></svg>