<svg xmlns="http://www.w3.org/2000/svg" width="512" height="512"><rect width="512" height="512" fill="#0a0f1a"/><text x="12" y="20" font-family="monospace" font-size="11" fill="#4a7fa5">FRONT (XZ)</text><g stroke="#00d4ff" stroke-width="0.6" opacity="0.85"><line x1="279.91" y1="323.82" x2="282.15" y2="322.31"/><line x1="288.90" y1="314.03" x2="310.31" y2="320.60"/><line x1="297.53" y1="265.79" x2="280.17" y2="284.48"/><line x1="229.96" y1="267.17" x2="246.34" y2="263.59"/><line x1="267.33" y1="355.77" x2="270.29" y2="356.36"/><line x1="280.17" y1="284.48" x2="278.42" y2="282.99"/><line x1="222.53" y1="215.90" x2="220.86" y2="216.37"/><line x1="270.29" y1="356.36" x2="272.15" y2="326.71"/><line x1="312.36" y1="308.90" x2="291.01" y2="306.05"/><line x1="220.86" y1="216.37" x2="219.26" y2="217.02"/><line x1="244.16" y1="274.73" x2="245.03" y2="274.20"/><line x1="291.01" y1="306.05" x2="312.66" y2="304.87"/><line x1="246.81" y1="222.83" x2="242.67" y2="220.60"/><line x1="285.86" y1="253.68" x2="280.60" y2="248.64"/><line x1="246.22" y1="265.42" x2="235.81" y2="272.54"/><line x1="212.42" y1="301.75" x2="232.24" y2="334.61"/><line x1="281.79" y1="356.19" x2="284.51" y2="355.38"/><line x1="280.60" y1="248.64" x2="275.44" y2="243.93"/><line x1="284.51" y1="355.38" x2="287.15" y2="354.24"/><line x1="290.84" y1="299.78" x2="312.30" y2="293.92"/><line x1="211.90" y1="224.48" x2="211.25" y2="226.13"/><line x1="312.30" y1="293.92" x2="290.44" y2="298.18"/><line x1="246.31" y1="267.26" x2="246.58" y2="270.01"/><line x1="242.98" y1="320.79" x2="235.73" y2="337.53"/><line x1="260.59" y1="231.84" x2="249.22" y2="262.34"/><line x1="246.72" y1="262.81" x2="218.20" y2="251.40"/><line x1="279.91" y1="323.82" x2="299.23" y2="343.95"/><line x1="288.27" y1="293.49" x2="307.22" y2="278.69"/><line x1="211.52" y1="237.61" x2="212.38" y2="240.00"/><line x1="246.20" y1="272.53" x2="245.71" y2="273.47"/><line x1="247.36" y1="262.34" x2="247.01" y2="262.53"/><line x1="306.51" y1="331.66" x2="307.95" y2="328.08"/><line x1="265.43" y1="235.53" x2="249.76" y2="262.53"/><line x1="480.00" y1="32.02" x2="447.51" y2="32.02"/><line x1="244.16" y1="274.73" x2="245.71" y2="273.47"/><line x1="277.49" y1="325.06" x2="297.04" y2="346.52"/><line x1="246.72" y1="262.81" x2="211.52" y2="237.61"/><line x1="266.13" y1="327.26" x2="264.34" y2="354.93"/><line x1="246.72" y1="262.81" x2="225.80" y2="262.37"/><line x1="283.34" y1="287.46" x2="281.82" y2="285.97"/><line x1="238.45" y1="318.45" x2="242.98" y2="320.79"/><line x1="289.89" y1="311.53" x2="311.87" y2="312.87"/><line x1="249.76" y1="262.53" x2="260.59" y2="231.84"/><line x1="232.04" y1="269.28" x2="233.99" y2="271.07"/><line x1="297.04" y1="346.52" x2="279.91" y2="323.82"/><line x1="294.06" y1="261.98" x2="290.17" y2="257.95"/><line x1="246.24" y1="264.10" x2="246.22" y2="264.69"/><line x1="210.90" y1="235.42" x2="211.52" y2="237.61"/><line x1="276.54" y1="281.51" x2="251.52" y2="263.59"/><line x1="309.93" y1="284.45" x2="288.27" y2="293.49"/><line x1="246.72" y1="262.81" x2="220.86" y2="216.37"/><line x1="246.72" y1="262.81" x2="210.79" y2="227.88"/><line x1="243.09" y1="275.04" x2="246.20" y2="272.53"/><line x1="255.41" y1="325.64" x2="245.79" y2="345.14"/><line x1="246.72" y1="262.81" x2="216.44" y2="248.36"/><line x1="291.16" y1="303.06" x2="291.08" y2="301.42"/><line x1="288.27" y1="293.49" x2="308.69" y2="281.52"/><line x1="251.24" y1="225.47" x2="247.36" y2="262.34"/><line x1="246.20" y1="272.53" x2="244.16" y2="274.73"/><line x1="245.79" y1="345.14" x2="249.02" y2="347.29"/><line x1="312.75" y1="300.79" x2="312.64" y2="297.29"/><line x1="304.92" y1="335.03" x2="306.51" y2="331.66"/><line x1="247.36" y1="262.34" x2="246.81" y2="222.83"/><line x1="220.01" y1="254.31" x2="221.87" y2="257.11"/><line x1="306.51" y1="331.66" x2="286.06" y2="318.53"/><line x1="265.43" y1="235.53" x2="250.32" y2="262.80"/><line x1="303.21" y1="272.70" x2="284.75" y2="288.96"/><line x1="221.87" y1="257.11" x2="223.81" y2="259.80"/><line x1="480.00" y1="32.02" x2="480.00" y2="64.50"/><line x1="277.49" y1="325.06" x2="294.69" y2="348.90"/><line x1="258.30" y1="352.55" x2="266.13" y2="327.26"/><line x1="284.75" y1="288.96" x2="283.34" y2="287.46"/><line x1="246.72" y1="262.81" x2="231.90" y2="216.34"/><line x1="246.72" y1="262.81" x2="214.98" y2="220.11"/><line x1="480.00" y1="479.91" x2="480.00" y2="447.42"/><line x1="282.15" y1="322.31" x2="284.22" y2="320.53"/><line x1="246.72" y1="262.81" x2="210.90" y2="235.42"/><line x1="266.13" y1="327.26" x2="261.33" y2="353.87"/><line x1="310.31" y1="320.60" x2="289.89" y2="311.53"/><line x1="246.72" y1="262.81" x2="223.81" y2="259.80"/><line x1="255.86" y1="228.49" x2="251.24" y2="225.47"/><line x1="231.90" y1="216.34" x2="228.87" y2="215.72"/><line x1="246.34" y1="263.59" x2="232.04" y2="269.28"/><line x1="272.15" y1="326.71" x2="276.18" y2="356.84"/><line x1="289.89" y1="311.53" x2="311.19" y2="316.76"/><line x1="278.42" y1="282.99" x2="294.06" y2="261.98"/><line x1="232.04" y1="269.28" x2="246.24" y2="264.10"/><line x1="447.51" y1="479.91" x2="480.00" y2="447.42"/><line x1="294.06" y1="261.98" x2="276.54" y2="281.51"/><line x1="232.24" y1="334.61" x2="223.54" y2="309.42"/><line x1="273.25" y1="356.72" x2="276.18" y2="356.84"/><line x1="217.75" y1="217.86" x2="216.32" y2="218.90"/><line x1="246.72" y1="262.81" x2="222.53" y2="215.90"/><line x1="246.72" y1="262.81" x2="211.25" y2="226.13"/><line x1="246.72" y1="262.81" x2="214.84" y2="245.37"/><line x1="291.16" y1="303.06" x2="312.75" y2="300.79"/><line x1="246.23" y1="265.79" x2="246.24" y2="266.16"/><line x1="289.73" y1="352.79" x2="292.25" y2="351.00"/><line x1="269.23" y1="327.12" x2="272.15" y2="326.71"/><line x1="235.73" y1="337.53" x2="239.16" y2="340.26"/><line x1="311.74" y1="290.65" x2="310.95" y2="287.49"/><line x1="247.31" y1="322.76" x2="251.45" y2="324.38"/><line x1="232.24" y1="334.61" x2="242.98" y2="320.79"/><line x1="251.52" y1="263.59" x2="270.38" y2="239.56"/><line x1="248.71" y1="262.22" x2="248.23" y2="262.18"/><line x1="274.91" y1="326.02" x2="289.73" y2="352.79"/><line x1="246.72" y1="262.81" x2="216.32" y2="218.90"/><line x1="480.00" y1="479.91" x2="447.51" y2="479.91"/><line x1="282.15" y1="322.31" x2="303.17" y2="338.21"/><line x1="246.72" y1="262.81" x2="210.53" y2="233.45"/><line x1="255.86" y1="228.49" x2="247.77" y2="262.22"/><line x1="272.15" y1="326.71" x2="273.25" y2="356.72"/><line x1="307.22" y1="278.69" x2="305.43" y2="275.82"/><line x1="219.26" y1="217.02" x2="217.75" y2="217.86"/><line x1="259.17" y1="326.54" x2="262.75" y2="327.08"/><line x1="287.23" y1="291.97" x2="286.05" y2="290.47"/><line x1="312.66" y1="304.87" x2="291.16" y2="303.06"/><line x1="247.01" y1="262.53" x2="238.80" y2="218.77"/><line x1="232.24" y1="334.61" x2="218.09" y2="305.75"/><line x1="307.95" y1="328.08" x2="309.23" y2="324.37"/><line x1="275.44" y1="243.93" x2="270.38" y2="239.56"/><line x1="246.72" y1="262.81" x2="224.29" y2="215.62"/><line x1="287.62" y1="316.36" x2="288.90" y2="314.03"/><line x1="287.15" y1="354.24" x2="289.73" y2="352.79"/><line x1="300.59" y1="269.36" x2="297.53" y2="265.79"/><line x1="270.38" y1="239.56" x2="265.43" y2="235.53"/><line x1="227.85" y1="264.83" x2="229.96" y2="267.17"/><line x1="289.73" y1="352.79" x2="277.49" y2="325.06"/><line x1="281.82" y1="285.97" x2="280.17" y2="284.48"/><line x1="290.44" y1="298.18" x2="311.74" y2="290.65"/><line x1="233.99" y1="271.07" x2="246.22" y2="265.42"/><line x1="210.79" y1="227.88" x2="210.51" y2="229.72"/><line x1="200.36" y1="304.92" x2="212.42" y2="301.75"/><line x1="269.23" y1="327.12" x2="270.29" y2="356.36"/><line x1="235.73" y1="337.53" x2="247.31" y2="322.76"/><line x1="311.74" y1="290.65" x2="289.88" y2="296.59"/><line x1="249.22" y1="262.34" x2="248.71" y2="262.22"/><line x1="239.07" y1="274.50" x2="240.52" y2="274.98"/><line x1="247.31" y1="322.76" x2="239.16" y2="340.26"/><line x1="290.59" y1="308.87" x2="291.01" y2="306.05"/><line x1="232.24" y1="334.61" x2="238.45" y2="318.45"/><line x1="299.23" y1="343.95" x2="282.15" y2="322.31"/><line x1="251.52" y1="263.59" x2="275.44" y2="243.93"/><line x1="248.71" y1="262.22" x2="255.86" y2="228.49"/><line x1="274.91" y1="326.02" x2="287.15" y2="354.24"/><line x1="282.15" y1="322.31" x2="301.28" y2="341.19"/><line x1="235.81" y1="272.54" x2="246.23" y2="265.79"/><line x1="308.69" y1="281.52" x2="307.22" y2="278.69"/><line x1="213.49" y1="242.58" x2="214.84" y2="245.37"/><line x1="249.02" y1="347.29" x2="259.17" y2="326.54"/><line x1="286.06" y1="318.53" x2="287.62" y2="316.36"/><line x1="307.22" y1="278.69" x2="287.23" y2="291.97"/><line x1="245.71" y1="273.47" x2="245.03" y2="274.20"/><line x1="259.17" y1="326.54" x2="252.17" y2="349.24"/><line x1="211.25" y1="226.13" x2="210.79" y2="227.88"/><line x1="247.01" y1="262.53" x2="242.67" y2="220.60"/><line x1="307.95" y1="328.08" x2="287.62" y2="316.36"/><line x1="246.58" y1="270.01" x2="239.07" y2="274.50"/><line x1="225.80" y1="262.37" x2="227.85" y2="264.83"/><line x1="264.34" y1="354.93" x2="267.33" y2="355.77"/><line x1="300.59" y1="269.36" x2="281.82" y2="285.97"/><line x1="235.81" y1="272.54" x2="237.51" y2="273.68"/><line x1="212.38" y1="240.00" x2="213.49" y2="242.58"/><line x1="311.87" y1="312.87" x2="312.36" y2="308.90"/><line x1="233.99" y1="271.07" x2="246.22" y2="265.06"/><line x1="200.36" y1="304.92" x2="200.36" y2="292.76"/><line x1="284.22" y1="320.53" x2="286.06" y2="318.53"/><line x1="290.17" y1="257.95" x2="285.86" y2="253.68"/><line x1="246.81" y1="222.83" x2="247.01" y2="262.53"/><line x1="279.02" y1="356.67" x2="281.79" y2="356.19"/><line x1="291.08" y1="301.42" x2="290.84" y2="299.78"/><line x1="286.06" y1="318.53" x2="307.95" y2="328.08"/><line x1="246.29" y1="266.89" x2="246.31" y2="267.26"/><line x1="480.00" y1="64.50" x2="447.51" y2="32.02"/><line x1="261.33" y1="353.87" x2="264.34" y2="354.93"/><line x1="310.95" y1="287.49" x2="309.93" y2="284.45"/><line x1="241.84" y1="275.15" x2="243.09" y2="275.04"/><line x1="251.45" y1="324.38" x2="255.41" y2="325.64"/><line x1="311.19" y1="316.76" x2="311.87" y2="312.87"/><line x1="235.81" y1="272.54" x2="246.29" y2="266.89"/><line x1="226.13" y1="215.53" x2="224.29" y2="215.62"/><line x1="246.48" y1="271.37" x2="246.20" y2="272.53"/><line x1="233.99" y1="271.07" x2="246.22" y2="264.69"/><line x1="262.75" y1="327.08" x2="266.13" y2="327.26"/><line x1="276.18" y1="356.84" x2="279.02" y2="356.67"/><line x1="223.81" y1="259.80" x2="225.80" y2="262.37"/><line x1="246.58" y1="270.01" x2="246.48" y2="271.37"/><line x1="214.98" y1="220.11" x2="213.77" y2="221.47"/><line x1="283.34" y1="287.46" x2="300.59" y2="269.36"/><line x1="223.54" y1="309.42" x2="228.74" y2="312.76"/><line x1="297.53" y1="265.79" x2="294.06" y2="261.98"/><line x1="235.21" y1="217.35" x2="231.90" y2="216.34"/><line x1="246.27" y1="266.52" x2="246.29" y2="266.89"/><line x1="228.87" y1="215.72" x2="226.13" y2="215.53"/><line x1="250.91" y1="263.16" x2="250.32" y2="262.80"/><line x1="239.16" y1="340.26" x2="242.51" y2="342.80"/><line x1="246.24" y1="264.10" x2="233.99" y2="271.07"/><line x1="210.41" y1="231.67" x2="210.53" y2="233.45"/><line x1="276.54" y1="281.51" x2="290.17" y2="257.95"/><line x1="310.95" y1="287.49" x2="289.16" y2="295.02"/><line x1="241.84" y1="275.15" x2="246.48" y2="271.37"/><line x1="216.32" y1="218.90" x2="214.98" y2="220.11"/><line x1="303.17" y1="338.21" x2="304.92" y2="335.03"/><line x1="248.23" y1="262.18" x2="247.77" y2="262.22"/><line x1="312.75" y1="300.79" x2="291.08" y2="301.42"/><line x1="32.16" y1="32.09" x2="32.16" y2="64.58"/><line x1="246.24" y1="266.16" x2="246.27" y2="266.52"/><line x1="305.43" y1="275.82" x2="303.21" y2="272.70"/><line x1="237.51" y1="273.68" x2="239.07" y2="274.50"/><line x1="216.44" y1="248.36" x2="218.20" y2="251.40"/><line x1="265.43" y1="235.53" x2="250.91" y2="263.16"/><line x1="262.75" y1="327.08" x2="258.30" y2="352.55"/><line x1="277.49" y1="325.06" x2="292.25" y2="351.00"/><line x1="289.88" y1="296.59" x2="289.16" y2="295.02"/><line x1="210.51" y1="229.72" x2="210.41" y2="231.67"/><line x1="309.23" y1="324.37" x2="310.31" y2="320.60"/><line x1="260.59" y1="231.84" x2="255.86" y2="228.49"/><line x1="246.50" y1="263.16" x2="246.34" y2="263.59"/><line x1="246.72" y1="262.81" x2="221.87" y2="257.11"/><line x1="297.53" y1="265.79" x2="278.42" y2="282.99"/><line x1="239.16" y1="340.26" x2="251.45" y2="324.38"/><line x1="312.36" y1="308.90" x2="312.66" y2="304.87"/><line x1="252.17" y1="349.24" x2="255.26" y2="351.01"/><line x1="218.09" y1="305.75" x2="223.54" y2="309.42"/><line x1="246.72" y1="262.81" x2="211.90" y2="224.48"/><line x1="246.72" y1="262.81" x2="213.49" y2="242.58"/><line x1="246.72" y1="262.81" x2="246.50" y2="263.16"/><line x1="32.00" y1="479.98" x2="64.49" y2="479.98"/><line x1="290.84" y1="299.78" x2="290.44" y2="298.18"/><line x1="237.51" y1="273.68" x2="246.58" y2="270.01"/><line x1="289.88" y1="296.59" x2="310.95" y2="287.49"/><line x1="240.52" y1="274.98" x2="241.84" y2="275.15"/><line x1="246.72" y1="262.81" x2="217.75" y2="217.86"/><line x1="246.72" y1="262.81" x2="210.41" y2="231.67"/><line x1="255.41" y1="325.64" x2="259.17" y2="326.54"/><line x1="246.72" y1="262.81" x2="220.01" y2="254.31"/><line x1="255.86" y1="228.49" x2="248.23" y2="262.18"/><line x1="288.27" y1="293.49" x2="287.23" y2="291.97"/><line x1="301.28" y1="341.19" x2="303.17" y2="338.21"/><line x1="214.84" y1="245.37" x2="216.44" y2="248.36"/><line x1="287.23" y1="291.97" x2="305.43" y2="275.82"/><line x1="265.43" y1="235.53" x2="260.59" y2="231.84"/><line x1="303.21" y1="272.70" x2="300.59" y2="269.36"/><line x1="252.17" y1="349.24" x2="262.75" y2="327.08"/><line x1="246.22" y1="265.06" x2="246.22" y2="265.42"/><line x1="277.49" y1="325.06" x2="279.91" y2="323.82"/><line x1="242.67" y1="220.60" x2="238.80" y2="218.77"/><line x1="246.72" y1="262.81" x2="226.13" y2="215.53"/><line x1="246.72" y1="262.81" x2="212.74" y2="222.92"/><line x1="287.62" y1="316.36" x2="309.23" y2="324.37"/><line x1="246.72" y1="262.81" x2="212.38" y2="240.00"/><line x1="266.13" y1="327.26" x2="269.23" y2="327.12"/><line x1="246.72" y1="262.81" x2="227.85" y2="264.83"/><line x1="227.85" y1="264.83" x2="246.50" y2="263.16"/><line x1="32.00" y1="479.98" x2="32.00" y2="447.50"/><line x1="212.74" y1="222.92" x2="211.90" y2="224.48"/><line x1="281.82" y1="285.97" x2="297.53" y2="265.79"/><line x1="272.15" y1="326.71" x2="274.91" y2="326.02"/><line x1="289.89" y1="311.53" x2="290.59" y2="308.87"/><line x1="249.76" y1="262.53" x2="249.22" y2="262.34"/><line x1="269.23" y1="327.12" x2="267.33" y2="355.77"/><line x1="237.51" y1="273.68" x2="246.31" y2="267.26"/><line x1="224.29" y1="215.62" x2="222.53" y2="215.90"/><line x1="297.04" y1="346.52" x2="299.23" y2="343.95"/><line x1="206.51" y1="297.42" x2="212.42" y2="301.75"/><line x1="290.59" y1="308.87" x2="312.36" y2="308.90"/><line x1="232.24" y1="334.61" x2="233.71" y2="315.77"/><line x1="251.52" y1="263.59" x2="280.60" y2="248.64"/><line x1="246.22" y1="264.69" x2="246.22" y2="265.06"/><line x1="309.93" y1="284.45" x2="308.69" y2="281.52"/><line x1="274.91" y1="326.02" x2="284.51" y2="355.38"/><line x1="246.72" y1="262.81" x2="219.26" y2="217.02"/><line x1="246.72" y1="262.81" x2="210.51" y2="229.72"/><line x1="243.09" y1="275.04" x2="244.16" y2="274.73"/><line x1="255.41" y1="325.64" x2="249.02" y2="347.29"/><line x1="251.24" y1="225.47" x2="246.81" y2="222.83"/><line x1="312.64" y1="297.29" x2="312.30" y2="293.92"/><line x1="303.21" y1="272.70" x2="283.34" y2="287.46"/><line x1="258.30" y1="352.55" x2="261.33" y2="353.87"/><line x1="251.52" y1="263.59" x2="250.91" y2="263.16"/><line x1="246.72" y1="262.81" x2="228.87" y2="215.72"/><line x1="264.34" y1="354.93" x2="269.23" y2="327.12"/><line x1="289.16" y1="295.02" x2="288.27" y2="293.49"/><line x1="246.72" y1="262.81" x2="213.77" y2="221.47"/><line x1="310.31" y1="320.60" x2="311.19" y2="316.76"/><line x1="242.51" y1="342.80" x2="245.79" y2="345.14"/><line x1="246.34" y1="263.59" x2="246.24" y2="264.10"/><line x1="311.87" y1="312.87" x2="290.59" y2="308.87"/><line x1="247.77" y1="262.22" x2="247.36" y2="262.34"/><line x1="272.15" y1="326.71" x2="279.02" y2="356.67"/><line x1="278.42" y1="282.99" x2="276.54" y2="281.51"/><line x1="200.36" y1="304.92" x2="206.51" y2="297.42"/><line x1="284.22" y1="320.53" x2="306.51" y2="331.66"/><line x1="290.17" y1="257.95" x2="251.52" y2="263.59"/><line x1="247.01" y1="262.53" x2="246.72" y2="262.81"/><line x1="206.51" y1="297.42" x2="200.36" y2="292.76"/><line x1="279.02" y1="356.67" x2="274.91" y2="326.02"/><line x1="286.05" y1="290.47" x2="284.75" y2="288.96"/><line x1="232.24" y1="334.61" x2="228.74" y2="312.76"/><line x1="251.52" y1="263.59" x2="285.86" y2="253.68"/><line x1="274.91" y1="326.02" x2="281.79" y2="356.19"/><line x1="291.08" y1="301.42" x2="312.64" y2="297.29"/><line x1="213.77" y1="221.47" x2="212.74" y2="222.92"/><line x1="228.74" y1="312.76" x2="233.71" y2="315.77"/><line x1="312.64" y1="297.29" x2="290.84" y2="299.78"/><line x1="246.29" y1="266.89" x2="237.51" y2="273.68"/><line x1="233.71" y1="315.77" x2="238.45" y2="318.45"/><line x1="292.25" y1="351.00" x2="294.69" y2="348.90"/><line x1="250.32" y1="262.80" x2="249.76" y2="262.53"/><line x1="294.69" y1="348.90" x2="297.04" y2="346.52"/><line x1="232.24" y1="334.61" x2="235.73" y2="337.53"/><line x1="251.52" y1="263.59" x2="265.43" y2="235.53"/><line x1="210.53" y1="233.45" x2="210.90" y2="235.42"/><line x1="251.45" y1="324.38" x2="242.51" y2="342.80"/><line x1="274.91" y1="326.02" x2="277.49" y2="325.06"/><line x1="289.16" y1="295.02" x2="309.93" y2="284.45"/><line x1="235.81" y1="272.54" x2="246.27" y2="266.52"/><line x1="246.48" y1="271.37" x2="243.09" y2="275.04"/><line x1="242.51" y1="342.80" x2="255.41" y2="325.64"/><line x1="247.77" y1="262.22" x2="251.24" y2="225.47"/><line x1="284.22" y1="320.53" x2="304.92" y2="335.03"/><line x1="218.20" y1="251.40" x2="220.01" y2="254.31"/><line x1="312.66" y1="304.87" x2="312.75" y2="300.79"/><line x1="64.64" y1="32.09" x2="32.16" y2="64.58"/><line x1="247.01" y1="262.53" x2="235.21" y2="217.35"/><line x1="286.05" y1="290.47" x2="303.21" y2="272.70"/><line x1="246.58" y1="270.01" x2="241.84" y2="275.15"/><line x1="288.90" y1="314.03" x2="289.89" y2="311.53"/><line x1="235.21" y1="217.35" x2="246.72" y2="262.81"/><line x1="229.96" y1="267.17" x2="232.04" y2="269.28"/><line x1="290.44" y1="298.18" x2="289.88" y2="296.59"/><line x1="270.29" y1="356.36" x2="273.25" y2="356.72"/><line x1="233.99" y1="271.07" x2="235.81" y2="272.54"/><line x1="200.36" y1="304.92" x2="232.24" y2="334.61"/><line x1="291.01" y1="306.05" x2="291.16" y2="303.06"/><line x1="299.23" y1="343.95" x2="301.28" y2="341.19"/><line x1="246.22" y1="265.42" x2="246.23" y2="265.79"/><line x1="212.42" y1="301.75" x2="218.09" y2="305.75"/><line x1="303.17" y1="338.21" x2="284.22" y2="320.53"/><line x1="235.81" y1="272.54" x2="246.24" y2="266.16"/><line x1="32.16" y1="32.09" x2="64.64" y2="32.09"/><line x1="305.43" y1="275.82" x2="286.05" y2="290.47"/><line x1="249.02" y1="347.29" x2="252.17" y2="349.24"/><line x1="262.75" y1="327.08" x2="255.26" y2="351.01"/><line x1="312.30" y1="293.92" x2="311.74" y2="290.65"/><line x1="238.80" y1="218.77" x2="235.21" y2="217.35"/><line x1="242.98" y1="320.79" x2="247.31" y2="322.76"/><line x1="255.26" y1="351.01" x2="258.30" y2="352.55"/><line x1="309.23" y1="324.37" x2="288.90" y2="314.03"/><line x1="260.59" y1="231.84" x2="248.71" y2="262.22"/><line x1="246.58" y1="270.01" x2="240.52" y2="274.98"/><line x1="246.50" y1="263.16" x2="229.96" y2="267.17"/><line x1="32.00" y1="447.50" x2="64.49" y2="479.98"/></g></svg>