<svg xmlns="http://www.w3.org/2000/svg" width="512" height="512"><rect width="512" height="512" fill="#0a0f1a"/><text x="12" y="20" font-family="monospace" font-size="11" fill="#4a7fa5">FRONT (XZ)</text><g stroke="#00d4ff" stroke-width="0.6" opacity="0.85"><line x1="241.56" y1="311.53" x2="241.77" y2="307.17"/><line x1="236.83" y1="279.73" x2="234.66" y2="273.85"/><line x1="300.89" y1="309.29" x2="302.70" y2="310.86"/><line x1="344.75" y1="307.99" x2="321.33" y2="307.88"/><line x1="226.73" y1="347.01" x2="233.98" y2="323.27"/><line x1="260.32" y1="292.58" x2="252.58" y2="263.69"/><line x1="251.37" y1="249.62" x2="256.23" y2="220.22"/><line x1="256.81" y1="354.20" x2="258.39" y2="353.00"/><line x1="175.04" y1="135.03" x2="176.13" y2="134.63"/><line x1="302.70" y1="310.86" x2="292.59" y2="327.05"/><line x1="320.65" y1="315.09" x2="320.98" y2="314.40"/><line x1="323.34" y1="348.23" x2="324.81" y2="347.45"/><line x1="290.76" y1="268.89" x2="301.32" y2="239.36"/><line x1="258.39" y1="353.00" x2="259.78" y2="351.53"/><line x1="229.24" y1="261.75" x2="248.93" y2="256.25"/><line x1="324.81" y1="347.45" x2="326.34" y2="346.35"/><line x1="328.32" y1="261.91" x2="309.72" y2="280.85"/><line x1="177.79" y1="173.35" x2="198.73" y2="157.10"/><line x1="248.93" y1="256.25" x2="248.23" y2="254.25"/><line x1="316.69" y1="318.18" x2="317.38" y2="317.97"/><line x1="308.36" y1="315.44" x2="299.05" y2="333.28"/><line x1="345.52" y1="297.58" x2="345.17" y2="292.52"/><line x1="197.07" y1="301.11" x2="198.42" y2="319.00"/><line x1="264.07" y1="340.21" x2="264.46" y2="337.16"/><line x1="198.73" y1="157.10" x2="174.68" y2="167.58"/><line x1="299.05" y1="333.28" x2="309.38" y2="316.15"/><line x1="219.77" y1="243.32" x2="216.30" y2="237.13"/><line x1="283.11" y1="228.93" x2="267.06" y2="256.37"/><line x1="251.37" y1="249.62" x2="246.09" y2="223.90"/><line x1="264.46" y1="337.16" x2="264.70" y2="333.86"/><line x1="184.16" y1="137.94" x2="170.97" y2="138.23"/><line x1="223.08" y1="249.49" x2="219.77" y2="243.32"/><line x1="211.90" y1="179.34" x2="208.36" y2="173.06"/><line x1="335.96" y1="333.85" x2="318.65" y2="317.31"/><line x1="181.48" y1="179.67" x2="201.77" y2="161.95"/><line x1="190.61" y1="145.43" x2="168.73" y2="153.62"/><line x1="218.03" y1="339.74" x2="226.73" y2="347.01"/><line x1="251.55" y1="261.91" x2="238.61" y2="285.48"/><line x1="316.64" y1="290.79" x2="339.91" y2="277.27"/><line x1="215.09" y1="316.39" x2="217.79" y2="318.31"/><line x1="168.73" y1="153.62" x2="188.26" y2="142.47"/><line x1="304.75" y1="338.45" x2="313.69" y2="318.16"/><line x1="186.11" y1="139.98" x2="184.16" y2="137.94"/><line x1="263.40" y1="221.19" x2="251.37" y2="249.62"/><line x1="320.25" y1="315.73" x2="320.65" y2="315.09"/><line x1="312.51" y1="283.48" x2="311.39" y2="282.31"/><line x1="226.73" y1="347.01" x2="231.17" y2="323.60"/><line x1="251.37" y1="249.62" x2="259.59" y2="220.46"/><line x1="184.16" y1="137.94" x2="167.87" y2="144.35"/><line x1="311.84" y1="344.24" x2="313.80" y2="345.65"/><line x1="342.44" y1="318.27" x2="343.38" y2="314.86"/><line x1="263.32" y1="309.41" x2="262.50" y2="303.91"/><line x1="167.87" y1="144.35" x2="168.22" y2="143.04"/><line x1="251.55" y1="261.91" x2="263.96" y2="314.79"/><line x1="251.55" y1="261.91" x2="232.09" y2="267.84"/><line x1="343.38" y1="314.86" x2="321.58" y2="311.21"/><line x1="480.00" y1="32.02" x2="447.51" y2="32.02"/><line x1="328.32" y1="261.91" x2="311.39" y2="282.31"/><line x1="264.77" y1="330.29" x2="251.55" y2="261.91"/><line x1="182.41" y1="136.35" x2="172.95" y2="136.31"/><line x1="261.50" y1="298.30" x2="260.32" y2="292.58"/><line x1="318.11" y1="252.14" x2="312.71" y2="247.63"/><line x1="243.61" y1="225.97" x2="241.12" y2="228.50"/><line x1="180.86" y1="135.22" x2="179.52" y2="134.53"/><line x1="300.48" y1="274.60" x2="295.98" y2="271.90"/><line x1="212.16" y1="314.14" x2="215.09" y2="316.39"/><line x1="232.09" y1="267.84" x2="250.60" y2="260.08"/><line x1="184.16" y1="137.94" x2="170.08" y2="139.37"/><line x1="312.89" y1="317.94" x2="304.75" y2="338.45"/><line x1="345.18" y1="304.54" x2="345.44" y2="301.07"/><line x1="181.48" y1="179.67" x2="204.98" y2="167.27"/><line x1="267.65" y1="222.40" x2="263.40" y2="221.19"/><line x1="177.23" y1="134.39" x2="178.37" y2="134.31"/><line x1="251.55" y1="261.91" x2="241.56" y2="311.53"/><line x1="218.03" y1="339.74" x2="227.25" y2="323.02"/><line x1="251.55" y1="261.91" x2="262.50" y2="303.91"/><line x1="289.06" y1="323.54" x2="302.70" y2="310.86"/><line x1="321.01" y1="305.91" x2="320.57" y2="303.74"/><line x1="340.09" y1="324.97" x2="320.25" y2="315.73"/><line x1="284.84" y1="265.57" x2="278.68" y2="262.23"/><line x1="251.55" y1="261.91" x2="252.58" y2="263.69"/><line x1="305.85" y1="313.49" x2="307.19" y2="314.55"/><line x1="258.61" y1="271.86" x2="259.99" y2="273.34"/><line x1="318.03" y1="317.68" x2="324.81" y2="347.45"/><line x1="295.34" y1="235.60" x2="289.16" y2="232.08"/><line x1="313.59" y1="284.91" x2="312.51" y2="283.48"/><line x1="174.68" y1="167.58" x2="172.13" y2="162.37"/><line x1="227.25" y1="323.02" x2="226.73" y2="347.01"/><line x1="226.24" y1="255.63" x2="247.06" y2="250.09"/><line x1="259.99" y1="273.34" x2="261.53" y2="274.89"/><line x1="315.97" y1="318.30" x2="311.84" y2="344.24"/><line x1="319.30" y1="298.80" x2="318.48" y2="296.02"/><line x1="312.51" y1="283.48" x2="328.32" y2="261.91"/><line x1="195.86" y1="152.73" x2="193.15" y2="148.85"/><line x1="226.73" y1="347.01" x2="229.28" y2="323.46"/><line x1="311.84" y1="344.24" x2="316.69" y2="318.18"/><line x1="344.12" y1="287.44" x2="342.36" y2="282.36"/><line x1="321.43" y1="312.89" x2="343.38" y2="314.86"/><line x1="246.09" y1="223.90" x2="243.61" y2="225.97"/><line x1="311.20" y1="317.22" x2="312.06" y2="317.62"/><line x1="251.55" y1="261.91" x2="241.57" y2="301.95"/><line x1="289.06" y1="323.54" x2="272.73" y2="285.01"/><line x1="251.55" y1="261.91" x2="234.66" y2="273.85"/><line x1="343.38" y1="314.86" x2="321.54" y2="312.07"/><line x1="261.60" y1="253.85" x2="256.36" y2="251.60"/><line x1="480.00" y1="32.02" x2="480.00" y2="64.50"/><line x1="264.77" y1="330.29" x2="240.91" y2="315.22"/><line x1="241.94" y1="355.31" x2="248.45" y2="356.35"/><line x1="182.41" y1="136.35" x2="171.95" y2="137.19"/><line x1="272.73" y1="285.01" x2="275.69" y2="287.52"/><line x1="319.22" y1="316.86" x2="319.76" y2="316.32"/><line x1="318.03" y1="317.68" x2="318.46" y2="348.34"/><line x1="318.03" y1="317.68" x2="331.20" y2="341.19"/><line x1="480.00" y1="479.91" x2="480.00" y2="447.42"/><line x1="318.11" y1="252.14" x2="300.48" y2="274.60"/><line x1="167.88" y1="150.08" x2="167.59" y2="147.08"/><line x1="248.45" y1="356.35" x2="250.84" y2="356.21"/><line x1="234.66" y1="273.85" x2="232.09" y2="267.84"/><line x1="318.46" y1="348.34" x2="319.60" y2="348.72"/><line x1="321.33" y1="307.88" x2="345.18" y2="304.54"/><line x1="208.89" y1="224.67" x2="181.48" y2="179.67"/><line x1="292.59" y1="327.05" x2="304.36" y2="312.26"/><line x1="345.18" y1="304.54" x2="321.01" y2="305.91"/><line x1="447.51" y1="479.91" x2="480.00" y2="447.42"/><line x1="177.23" y1="134.39" x2="179.52" y2="134.53"/><line x1="304.36" y1="312.26" x2="305.85" y2="313.49"/><line x1="251.55" y1="261.91" x2="239.99" y2="291.10"/><line x1="289.06" y1="323.54" x2="300.89" y2="309.29"/><line x1="198.42" y1="319.00" x2="205.28" y2="308.42"/><line x1="284.84" y1="265.57" x2="295.34" y2="235.60"/><line x1="260.97" y1="349.78" x2="261.98" y2="347.78"/><line x1="317.38" y1="317.97" x2="318.03" y2="317.68"/><line x1="327.91" y1="344.94" x2="329.53" y2="343.22"/><line x1="318.03" y1="317.68" x2="323.34" y2="348.23"/><line x1="318.03" y1="317.68" x2="318.65" y2="317.31"/><line x1="264.70" y1="333.86" x2="264.77" y2="330.29"/><line x1="174.68" y1="167.58" x2="195.86" y2="152.73"/><line x1="226.24" y1="255.63" x2="247.60" y2="252.19"/><line x1="319.30" y1="298.80" x2="344.12" y2="287.44"/><line x1="277.51" y1="226.27" x2="272.36" y2="224.09"/><line x1="238.31" y1="320.59" x2="239.83" y2="318.24"/><line x1="337.41" y1="331.06" x2="338.79" y2="328.10"/><line x1="188.26" y1="142.47" x2="186.11" y2="139.98"/><line x1="315.67" y1="288.57" x2="314.65" y2="286.62"/><line x1="220.36" y1="319.93" x2="222.79" y2="321.25"/><line x1="314.46" y1="318.29" x2="315.21" y2="318.34"/><line x1="336.75" y1="272.16" x2="332.89" y2="267.05"/><line x1="318.03" y1="317.68" x2="329.53" y2="343.22"/><line x1="480.00" y1="479.91" x2="447.51" y2="479.91"/><line x1="241.77" y1="307.17" x2="241.57" y2="301.95"/><line x1="307.31" y1="340.65" x2="309.68" y2="342.57"/><line x1="341.33" y1="321.67" x2="342.44" y2="318.27"/><line x1="259.78" y1="351.53" x2="260.97" y2="349.78"/><line x1="320.98" y1="314.40" x2="321.24" y2="313.67"/><line x1="326.34" y1="346.35" x2="327.91" y2="344.94"/><line x1="208.59" y1="330.41" x2="220.36" y2="319.93"/><line x1="248.23" y1="254.25" x2="226.24" y2="255.63"/><line x1="313.80" y1="345.65" x2="315.56" y2="346.80"/><line x1="289.06" y1="323.54" x2="298.91" y2="307.55"/><line x1="309.72" y1="280.85" x2="307.35" y2="279.07"/><line x1="198.42" y1="319.00" x2="201.35" y2="304.96"/><line x1="262.50" y1="303.91" x2="261.50" y2="298.30"/><line x1="246.59" y1="247.92" x2="246.09" y2="223.90"/><line x1="317.38" y1="317.97" x2="317.11" y2="347.70"/><line x1="309.38" y1="316.15" x2="310.30" y2="316.73"/><line x1="321.58" y1="311.21" x2="321.52" y2="309.65"/><line x1="318.03" y1="317.68" x2="321.91" y2="348.70"/><line x1="238.66" y1="231.49" x2="211.90" y2="179.34"/><line x1="238.61" y1="285.48" x2="236.83" y2="279.73"/><line x1="264.70" y1="333.86" x2="238.31" y2="320.59"/><line x1="310.30" y1="316.73" x2="311.20" y2="317.22"/><line x1="260.32" y1="292.58" x2="265.30" y2="278.45"/><line x1="344.15" y1="311.44" x2="344.75" y2="307.99"/><line x1="312.71" y1="247.63" x2="307.11" y2="243.37"/><line x1="277.51" y1="226.27" x2="261.60" y2="253.85"/><line x1="173.99" y1="135.59" x2="175.04" y2="135.03"/><line x1="238.31" y1="320.59" x2="264.77" y2="330.29"/><line x1="252.58" y1="263.69" x2="253.66" y2="265.42"/><line x1="345.44" y1="301.07" x2="345.52" y2="297.58"/><line x1="337.41" y1="331.06" x2="319.22" y2="316.86"/><line x1="187.51" y1="305.51" x2="197.07" y2="301.11"/><line x1="295.98" y1="271.90" x2="290.76" y2="268.89"/><line x1="217.79" y1="318.31" x2="220.36" y2="319.93"/><line x1="188.26" y1="142.47" x2="167.88" y2="150.08"/><line x1="295.92" y1="330.30" x2="299.05" y2="333.28"/><line x1="253.66" y1="265.42" x2="254.81" y2="267.10"/><line x1="313.69" y1="318.16" x2="314.46" y2="318.29"/><line x1="236.36" y1="322.26" x2="255.02" y2="355.14"/><line x1="315.67" y1="288.57" x2="336.75" y2="272.16"/><line x1="236.36" y1="322.26" x2="264.46" y2="337.16"/><line x1="220.36" y1="319.93" x2="218.03" y2="339.74"/><line x1="249.72" y1="258.19" x2="248.93" y2="256.25"/><line x1="314.46" y1="318.29" x2="307.31" y2="340.65"/><line x1="259.59" y1="220.46" x2="256.23" y2="220.22"/><line x1="345.17" y1="292.52" x2="319.30" y2="298.80"/><line x1="261.53" y1="274.89" x2="263.30" y2="276.59"/><line x1="260.32" y1="292.58" x2="257.29" y2="270.32"/><line x1="341.33" y1="321.67" x2="320.98" y2="314.40"/><line x1="289.16" y1="232.08" x2="283.11" y2="228.93"/><line x1="229.28" y1="323.46" x2="231.17" y2="323.60"/><line x1="239.99" y1="291.10" x2="238.61" y2="285.48"/><line x1="168.22" y1="143.04" x2="168.70" y2="141.78"/><line x1="302.00" y1="336.00" x2="304.75" y2="338.45"/><line x1="263.30" y1="276.59" x2="265.30" y2="278.45"/><line x1="267.06" y1="256.37" x2="277.51" y2="226.27"/><line x1="342.36" y1="282.36" x2="339.91" y2="277.27"/><line x1="208.59" y1="330.41" x2="217.79" y2="318.31"/><line x1="311.39" y1="282.31" x2="309.72" y2="280.85"/><line x1="231.17" y1="323.60" x2="233.98" y2="323.27"/><line x1="318.65" y1="317.31" x2="337.41" y2="331.06"/><line x1="313.80" y1="345.65" x2="317.38" y2="317.97"/><line x1="256.36" y1="251.60" x2="251.37" y2="249.62"/><line x1="236.36" y1="322.26" x2="260.97" y2="349.78"/><line x1="241.12" y1="228.50" x2="238.66" y2="231.49"/><line x1="339.91" y1="277.27" x2="315.67" y2="288.57"/><line x1="321.58" y1="311.21" x2="344.15" y2="311.44"/><line x1="172.95" y1="136.31" x2="173.99" y2="135.59"/><line x1="289.54" y1="299.32" x2="298.91" y2="307.55"/><line x1="332.89" y1="267.05" x2="328.32" y2="261.91"/><line x1="260.32" y1="292.58" x2="263.30" y2="276.59"/><line x1="312.71" y1="247.63" x2="295.98" y2="271.90"/><line x1="320.65" y1="315.09" x2="341.33" y2="321.67"/><line x1="345.44" y1="301.07" x2="320.00" y2="301.37"/><line x1="187.51" y1="305.51" x2="187.51" y2="292.21"/><line x1="208.36" y1="173.06" x2="204.98" y2="167.27"/><line x1="295.92" y1="330.30" x2="308.36" y2="315.44"/><line x1="236.36" y1="322.26" x2="253.03" y2="355.81"/><line x1="278.68" y1="262.23" x2="272.76" y2="259.16"/><line x1="316.69" y1="318.18" x2="313.80" y2="345.65"/><line x1="236.36" y1="322.26" x2="264.07" y2="340.21"/><line x1="246.59" y1="247.92" x2="251.37" y2="249.62"/><line x1="172.13" y1="162.37" x2="170.14" y2="157.72"/><line x1="219.77" y1="243.32" x2="238.66" y2="231.49"/><line x1="251.37" y1="249.62" x2="248.61" y2="222.29"/><line x1="260.32" y1="292.58" x2="256.01" y2="268.73"/><line x1="318.48" y1="296.02" x2="317.58" y2="293.27"/><line x1="211.90" y1="179.34" x2="181.48" y2="179.67"/><line x1="260.32" y1="292.58" x2="289.06" y2="323.54"/><line x1="208.89" y1="311.48" x2="212.16" y2="314.14"/><line x1="193.15" y1="148.85" x2="190.61" y2="145.43"/><line x1="302.00" y1="336.00" x2="312.89" y2="317.94"/><line x1="342.36" y1="282.36" x2="316.64" y2="290.79"/><line x1="272.36" y1="224.09" x2="267.65" y2="222.40"/><line x1="480.00" y1="64.50" x2="447.51" y2="32.02"/><line x1="338.79" y1="328.10" x2="340.09" y2="324.97"/><line x1="256.36" y1="251.60" x2="263.40" y2="221.19"/><line x1="236.36" y1="322.26" x2="259.78" y2="351.53"/><line x1="186.11" y1="139.98" x2="167.66" y2="145.69"/><line x1="250.84" y1="356.21" x2="253.03" y2="355.81"/><line x1="314.65" y1="286.62" x2="313.59" y2="284.91"/><line x1="299.05" y1="333.28" x2="302.00" y2="336.00"/><line x1="315.21" y1="318.34" x2="315.97" y2="318.30"/><line x1="320.53" y1="348.85" x2="321.91" y2="348.70"/><line x1="332.89" y1="267.05" x2="312.51" y2="283.48"/><line x1="260.32" y1="292.58" x2="261.53" y2="274.89"/><line x1="342.44" y1="318.27" x2="321.43" y2="312.89"/><line x1="323.31" y1="256.90" x2="318.11" y2="252.14"/><line x1="345.44" y1="301.07" x2="320.57" y2="303.74"/><line x1="261.98" y1="347.78" x2="262.84" y2="345.52"/><line x1="236.36" y1="322.26" x2="250.84" y2="356.21"/><line x1="278.68" y1="262.23" x2="289.16" y2="232.08"/><line x1="321.54" y1="312.07" x2="321.58" y2="311.21"/><line x1="331.20" y1="341.19" x2="332.86" y2="338.92"/><line x1="171.95" y1="137.19" x2="172.95" y2="136.31"/><line x1="275.69" y1="287.52" x2="289.54" y2="299.32"/><line x1="205.28" y1="308.42" x2="208.89" y2="311.48"/><line x1="180.86" y1="135.22" x2="177.23" y2="134.39"/><line x1="172.13" y1="162.37" x2="193.15" y2="148.85"/><line x1="300.48" y1="274.60" x2="312.71" y2="247.63"/><line x1="317.11" y1="347.70" x2="318.46" y2="348.34"/><line x1="251.37" y1="249.62" x2="251.13" y2="221.14"/><line x1="318.48" y1="296.02" x2="342.36" y2="282.36"/><line x1="184.16" y1="137.94" x2="169.32" y2="140.55"/><line x1="211.90" y1="179.34" x2="208.89" y2="224.67"/><line x1="319.60" y1="348.72" x2="320.53" y2="348.85"/><line x1="302.00" y1="336.00" x2="312.06" y2="317.62"/><line x1="181.48" y1="179.67" x2="208.36" y2="173.06"/><line x1="218.03" y1="339.74" x2="225.09" y2="322.28"/><line x1="272.36" y1="224.09" x2="256.36" y2="251.60"/><line x1="229.24" y1="261.75" x2="226.24" y2="255.63"/><line x1="321.01" y1="305.91" x2="345.44" y2="301.07"/><line x1="320.00" y1="301.37" x2="319.30" y2="298.80"/><line x1="338.79" y1="328.10" x2="319.76" y2="316.32"/><line x1="179.52" y1="134.53" x2="178.37" y2="134.31"/><line x1="305.85" y1="313.49" x2="295.92" y2="330.30"/><line x1="186.11" y1="139.98" x2="167.59" y2="147.08"/><line x1="256.01" y1="268.73" x2="257.29" y2="270.32"/><line x1="295.34" y1="235.60" x2="278.68" y2="262.23"/><line x1="314.65" y1="286.62" x2="332.89" y2="267.05"/><line x1="329.53" y1="343.22" x2="331.20" y2="341.19"/><line x1="241.57" y1="301.95" x2="240.98" y2="296.59"/><line x1="299.05" y1="333.28" x2="311.20" y2="317.22"/><line x1="315.21" y1="318.34" x2="309.68" y2="342.57"/><line x1="195.86" y1="152.73" x2="172.13" y2="162.37"/><line x1="247.60" y1="252.19" x2="247.06" y2="250.09"/><line x1="32.16" y1="32.09" x2="32.16" y2="64.58"/><line x1="253.68" y1="220.45" x2="251.13" y2="221.14"/><line x1="344.12" y1="287.44" x2="318.48" y2="296.02"/><line x1="342.44" y1="318.27" x2="321.24" y2="313.67"/><line x1="323.31" y1="256.90" x2="304.27" y2="276.99"/><line x1="311.20" y1="317.22" x2="302.00" y2="336.00"/><line x1="251.55" y1="261.91" x2="264.41" y2="320.07"/><line x1="234.71" y1="352.20" x2="241.94" y2="355.31"/><line x1="251.55" y1="261.91" x2="236.83" y2="279.73"/><line x1="169.32" y1="140.55" x2="170.08" y2="139.37"/><line x1="261.60" y1="253.85" x2="272.36" y2="224.09"/><line x1="264.77" y1="330.29" x2="239.83" y2="318.24"/><line x1="216.30" y1="237.13" x2="212.67" y2="230.91"/><line x1="319.22" y1="316.86" x2="338.79" y2="328.10"/><line x1="304.75" y1="338.45" x2="307.31" y2="340.65"/><line x1="167.88" y1="150.08" x2="186.11" y2="139.98"/><line x1="321.52" y1="309.65" x2="321.33" y2="307.88"/><line x1="180.86" y1="135.22" x2="176.13" y2="134.63"/><line x1="264.41" y1="320.07" x2="263.96" y2="314.79"/><line x1="226.73" y1="347.01" x2="234.71" y2="352.20"/><line x1="307.11" y1="243.37" x2="301.32" y2="239.36"/><line x1="184.16" y1="137.94" x2="168.70" y2="141.78"/><line x1="201.77" y1="161.95" x2="198.73" y2="157.10"/><line x1="218.03" y1="339.74" x2="222.79" y2="321.25"/><line x1="251.55" y1="261.91" x2="263.32" y2="309.41"/><line x1="229.24" y1="261.75" x2="248.23" y2="254.25"/><line x1="251.55" y1="261.91" x2="250.60" y2="260.08"/><line x1="233.98" y1="323.27" x2="236.36" y2="322.26"/><line x1="320.00" y1="301.37" x2="345.17" y2="292.52"/><line x1="264.77" y1="330.29" x2="264.68" y2="325.24"/><line x1="182.41" y1="136.35" x2="180.86" y2="135.22"/><line x1="308.36" y1="315.44" x2="309.38" y2="316.15"/><line x1="201.35" y1="304.96" x2="205.28" y2="308.42"/><line x1="318.03" y1="317.68" x2="335.96" y2="333.85"/><line x1="272.76" y1="259.16" x2="267.06" y2="256.37"/><line x1="32.00" y1="479.98" x2="64.49" y2="479.98"/><line x1="232.09" y1="267.84" x2="229.24" y2="261.75"/><line x1="184.16" y1="137.94" x2="182.41" y2="136.35"/><line x1="181.48" y1="179.67" x2="177.79" y2="173.35"/><line x1="251.55" y1="261.91" x2="241.77" y2="307.17"/><line x1="190.61" y1="145.43" x2="188.26" y2="142.47"/><line x1="251.55" y1="261.91" x2="261.50" y2="298.30"/><line x1="340.09" y1="324.97" x2="341.33" y2="321.67"/><line x1="254.81" y1="267.10" x2="256.01" y2="268.73"/><line x1="216.30" y1="237.13" x2="211.90" y2="179.34"/><line x1="336.75" y1="272.16" x2="314.65" y2="286.62"/><line x1="318.03" y1="317.68" x2="327.91" y2="344.94"/><line x1="263.40" y1="221.19" x2="259.59" y2="220.46"/><line x1="226.24" y1="255.63" x2="223.08" y2="249.49"/><line x1="307.31" y1="340.65" x2="315.21" y2="318.34"/><line x1="180.86" y1="135.22" x2="175.04" y2="135.03"/><line x1="256.23" y1="220.22" x2="253.68" y2="220.45"/><line x1="307.11" y1="243.37" x2="290.76" y2="268.89"/><line x1="184.16" y1="137.94" x2="168.22" y2="143.04"/><line x1="320.98" y1="314.40" x2="342.44" y2="318.27"/><line x1="168.70" y1="141.78" x2="169.32" y2="140.55"/><line x1="265.30" y1="278.45" x2="267.55" y2="280.48"/><line x1="201.77" y1="161.95" x2="177.79" y2="173.35"/><line x1="251.55" y1="261.91" x2="240.98" y2="296.59"/><line x1="289.06" y1="323.54" x2="289.54" y2="299.32"/><line x1="309.72" y1="280.85" x2="323.31" y2="256.90"/><line x1="170.14" y1="157.72" x2="168.73" y2="153.62"/><line x1="251.55" y1="261.91" x2="260.32" y2="292.58"/><line x1="233.98" y1="323.27" x2="234.71" y2="352.20"/><line x1="343.38" y1="314.86" x2="344.15" y2="311.44"/><line x1="320.00" y1="301.37" x2="345.52" y2="297.58"/><line x1="317.38" y1="317.97" x2="315.56" y2="346.80"/><line x1="182.41" y1="136.35" x2="173.99" y2="135.59"/><line x1="318.03" y1="317.68" x2="320.53" y2="348.85"/><line x1="238.66" y1="231.49" x2="216.30" y2="237.13"/><line x1="318.03" y1="317.68" x2="334.44" y2="336.47"/><line x1="272.76" y1="259.16" x2="283.11" y2="228.93"/><line x1="344.15" y1="311.44" x2="321.52" y2="309.65"/><line x1="32.00" y1="479.98" x2="32.00" y2="447.50"/><line x1="334.44" y1="336.47" x2="335.96" y2="333.85"/><line x1="173.99" y1="135.59" x2="180.86" y2="135.22"/><line x1="298.91" y1="307.55" x2="300.89" y2="309.29"/><line x1="232.09" y1="267.84" x2="249.72" y2="258.19"/><line x1="292.59" y1="327.05" x2="295.92" y2="330.30"/><line x1="295.98" y1="271.90" x2="307.11" y2="243.37"/><line x1="312.89" y1="317.94" x2="313.69" y2="318.16"/><line x1="255.02" y1="355.14" x2="256.81" y2="354.20"/><line x1="317.58" y1="293.27" x2="316.64" y2="290.79"/><line x1="321.91" y1="348.70" x2="323.34" y2="348.23"/><line x1="251.55" y1="261.91" x2="264.68" y2="325.24"/><line x1="192.46" y1="296.86" x2="197.07" y2="301.11"/><line x1="289.06" y1="323.54" x2="292.59" y2="327.05"/><line x1="204.98" y1="167.27" x2="201.77" y2="161.95"/><line x1="340.09" y1="324.97" x2="320.65" y2="315.09"/><line x1="249.72" y1="258.19" x2="229.24" y2="261.75"/><line x1="198.42" y1="319.00" x2="208.59" y2="330.41"/><line x1="246.59" y1="247.92" x2="238.66" y2="231.49"/><line x1="320.57" y1="303.74" x2="320.00" y2="301.37"/><line x1="318.03" y1="317.68" x2="326.34" y2="346.35"/><line x1="227.25" y1="323.02" x2="229.28" y2="323.46"/><line x1="226.24" y1="255.63" x2="246.59" y2="247.92"/><line x1="289.16" y1="232.08" x2="272.76" y2="259.16"/><line x1="315.97" y1="318.30" x2="316.69" y2="318.18"/><line x1="246.59" y1="247.92" x2="219.77" y2="243.32"/><line x1="240.98" y1="296.59" x2="239.99" y2="291.10"/><line x1="208.59" y1="330.41" x2="215.09" y2="316.39"/><line x1="321.43" y1="312.89" x2="321.54" y2="312.07"/><line x1="289.06" y1="323.54" x2="275.69" y2="287.52"/><line x1="240.91" y1="315.22" x2="241.56" y2="311.53"/><line x1="170.14" y1="157.72" x2="190.61" y2="145.43"/><line x1="319.76" y1="316.32" x2="320.25" y2="315.73"/><line x1="318.03" y1="317.68" x2="319.60" y2="348.72"/><line x1="253.03" y1="355.81" x2="255.02" y2="355.14"/><line x1="318.03" y1="317.68" x2="332.86" y2="338.92"/><line x1="167.66" y1="145.69" x2="167.87" y2="144.35"/><line x1="321.33" y1="307.88" x2="321.01" y2="305.91"/><line x1="250.60" y1="260.08" x2="249.72" y2="258.19"/><line x1="309.68" y1="342.57" x2="311.84" y2="344.24"/><line x1="292.59" y1="327.05" x2="305.85" y2="313.49"/><line x1="187.51" y1="305.51" x2="192.46" y2="296.86"/><line x1="263.96" y1="314.79" x2="263.32" y2="309.41"/><line x1="295.92" y1="330.30" x2="307.19" y2="314.55"/><line x1="192.46" y1="296.86" x2="187.51" y2="292.21"/><line x1="236.36" y1="322.26" x2="263.53" y2="342.99"/><line x1="262.84" y1="345.52" x2="263.53" y2="342.99"/><line x1="270.02" y1="282.67" x2="272.73" y2="285.01"/><line x1="198.42" y1="319.00" x2="208.89" y2="311.48"/><line x1="307.19" y1="314.55" x2="308.36" y2="315.44"/><line x1="246.59" y1="247.92" x2="241.12" y2="228.50"/><line x1="170.97" y1="138.23" x2="171.95" y2="137.19"/><line x1="263.53" y1="342.99" x2="264.07" y2="340.21"/><line x1="247.06" y1="250.09" x2="246.59" y2="247.92"/><line x1="332.86" y1="338.92" x2="334.44" y2="336.47"/><line x1="260.32" y1="292.58" x2="254.81" y2="267.10"/><line x1="304.27" y1="276.99" x2="300.48" y2="274.60"/><line x1="260.32" y1="292.58" x2="270.02" y2="282.67"/><line x1="208.89" y1="311.48" x2="208.59" y2="330.41"/><line x1="193.15" y1="148.85" x2="170.14" y2="157.72"/><line x1="246.59" y1="247.92" x2="223.08" y2="249.49"/><line x1="342.36" y1="282.36" x2="317.58" y2="293.27"/><line x1="208.59" y1="330.41" x2="212.16" y2="314.14"/><line x1="239.83" y1="318.24" x2="240.91" y2="315.22"/><line x1="312.06" y1="317.62" x2="312.89" y2="317.94"/><line x1="256.36" y1="251.60" x2="267.65" y2="222.40"/><line x1="236.36" y1="322.26" x2="258.39" y2="353.00"/><line x1="240.91" y1="315.22" x2="251.55" y2="261.91"/><line x1="236.36" y1="322.26" x2="238.31" y2="320.59"/><line x1="319.76" y1="316.32" x2="340.09" y2="324.97"/><line x1="301.32" y1="239.36" x2="295.34" y2="235.60"/><line x1="222.79" y1="321.25" x2="225.09" y2="322.28"/><line x1="167.59" y1="147.08" x2="167.66" y2="145.69"/><line x1="257.29" y1="270.32" x2="258.61" y2="271.86"/><line x1="332.89" y1="267.05" x2="313.59" y2="284.91"/><line x1="260.32" y1="292.58" x2="259.99" y2="273.34"/><line x1="225.09" y1="322.28" x2="227.25" y2="323.02"/><line x1="167.66" y1="145.69" x2="184.16" y2="137.94"/><line x1="309.68" y1="342.57" x2="315.97" y2="318.30"/><line x1="251.13" y1="221.14" x2="248.61" y2="222.29"/><line x1="208.59" y1="330.41" x2="218.03" y2="339.74"/><line x1="321.24" y1="313.67" x2="321.43" y2="312.89"/><line x1="248.23" y1="254.25" x2="247.60" y2="252.19"/><line x1="64.64" y1="32.09" x2="32.16" y2="64.58"/><line x1="236.36" y1="322.26" x2="248.45" y2="356.35"/><line x1="248.61" y1="222.29" x2="246.09" y2="223.90"/><line x1="170.08" y1="139.37" x2="170.97" y2="138.23"/><line x1="236.36" y1="322.26" x2="262.84" y2="345.52"/><line x1="270.02" y1="282.67" x2="289.06" y2="323.54"/><line x1="307.35" y1="279.07" x2="304.27" y2="276.99"/><line x1="246.59" y1="247.92" x2="243.61" y2="225.97"/><line x1="170.97" y1="138.23" x2="182.41" y2="136.35"/><line x1="317.11" y1="347.70" x2="318.03" y2="317.68"/><line x1="344.75" y1="307.99" x2="345.18" y2="304.54"/><line x1="251.37" y1="249.62" x2="253.68" y2="220.45"/><line x1="260.32" y1="292.58" x2="253.66" y2="265.42"/><line x1="304.27" y1="276.99" x2="318.11" y2="252.14"/><line x1="211.90" y1="179.34" x2="212.67" y2="230.91"/><line x1="260.32" y1="292.58" x2="267.55" y2="280.48"/><line x1="302.70" y1="310.86" x2="304.36" y2="312.26"/><line x1="290.76" y1="268.89" x2="284.84" y2="265.57"/><line x1="212.67" y1="230.91" x2="208.89" y2="224.67"/><line x1="187.51" y1="305.51" x2="198.42" y2="319.00"/><line x1="328.32" y1="261.91" x2="323.31" y2="256.90"/><line x1="177.79" y1="173.35" x2="174.68" y2="167.58"/><line x1="236.36" y1="322.26" x2="256.81" y2="354.20"/><line x1="176.13" y1="134.63" x2="177.23" y2="134.39"/><line x1="236.36" y1="322.26" x2="264.70" y2="333.86"/><line x1="264.68" y1="325.24" x2="264.41" y2="320.07"/><line x1="197.07" y1="301.11" x2="201.35" y2="304.96"/><line x1="301.32" y1="239.36" x2="284.84" y2="265.57"/><line x1="198.73" y1="157.10" x2="195.86" y2="152.73"/><line x1="299.05" y1="333.28" x2="310.30" y2="316.73"/><line x1="345.17" y1="292.52" x2="344.12" y2="287.44"/><line x1="283.11" y1="228.93" x2="277.51" y2="226.27"/><line x1="32.16" y1="32.09" x2="64.64" y2="32.09"/><line x1="260.32" y1="292.58" x2="258.61" y2="271.86"/><line x1="267.55" y1="280.48" x2="270.02" y2="282.67"/><line x1="335.96" y1="333.85" x2="337.41" y2="331.06"/><line x1="267.06" y1="256.37" x2="261.60" y2="253.85"/><line x1="323.31" y1="256.90" x2="307.35" y2="279.07"/><line x1="234.71" y1="352.20" x2="236.36" y2="322.26"/><line x1="318.65" y1="317.31" x2="319.22" y2="316.86"/><line x1="315.56" y1="346.80" x2="317.11" y2="347.70"/><line x1="316.64" y1="290.79" x2="315.67" y2="288.57"/><line x1="168.73" y1="153.62" x2="167.88" y2="150.08"/><line x1="236.36" y1="322.26" x2="241.94" y2="355.31"/><line x1="236.36" y1="322.26" x2="261.98" y2="347.78"/><line x1="304.75" y1="338.45" x2="314.46" y2="318.29"/><line x1="339.91" y1="277.27" x2="336.75" y2="272.16"/><line x1="321.52" y1="309.65" x2="344.75" y2="307.99"/><line x1="32.00" y1="447.50" x2="64.49" y2="479.98"/></g></svg>