<svg xmlns="http://www.w3.org/2000/svg" width="512" height="512"><rect width="512" height="512" fill="#0a0f1a"/><text x="12" y="20" font-family="monospace" font-size="11" fill="#4a7fa5">FRONT (XZ)</text><g stroke="#00d4ff" stroke-width="0.6" opacity="0.85"><line x1="202.29" y1="180.97" x2="205.33" y2="177.88"/><line x1="225.98" y1="215.07" x2="244.99" y2="199.78"/><line x1="257.88" y1="234.13" x2="259.45" y2="267.00"/><line x1="326.17" y1="410.61" x2="324.29" y2="407.60"/><line x1="262.99" y1="273.64" x2="253.40" y2="281.34"/><line x1="340.58" y1="381.15" x2="339.07" y2="377.50"/><line x1="217.95" y1="280.33" x2="215.96" y2="276.90"/><line x1="234.27" y1="321.29" x2="239.79" y2="351.67"/><line x1="198.64" y1="228.09" x2="200.91" y2="228.86"/><line x1="244.99" y1="199.78" x2="228.90" y2="218.51"/><line x1="344.29" y1="421.41" x2="345.41" y2="419.43"/><line x1="346.46" y1="403.06" x2="345.96" y2="399.51"/><line x1="339.00" y1="423.97" x2="338.42" y2="423.88"/><line x1="239.79" y1="351.67" x2="236.10" y2="320.66"/><line x1="214.89" y1="257.39" x2="180.19" y2="228.74"/><line x1="208.37" y1="177.50" x2="203.08" y2="186.18"/><line x1="214.89" y1="257.39" x2="189.52" y2="226.40"/><line x1="294.84" y1="304.62" x2="302.83" y2="318.48"/><line x1="338.42" y1="423.88" x2="337.73" y2="423.60"/><line x1="214.89" y1="257.39" x2="210.01" y2="233.20"/><line x1="317.07" y1="339.76" x2="255.30" y2="312.56"/><line x1="212.68" y1="259.04" x2="181.25" y2="250.86"/><line x1="203.08" y1="186.18" x2="203.80" y2="187.79"/><line x1="299.22" y1="283.00" x2="307.47" y2="292.28"/><line x1="243.33" y1="238.97" x2="257.88" y2="234.13"/><line x1="328.10" y1="356.70" x2="305.26" y2="363.66"/><line x1="212.17" y1="268.15" x2="211.62" y2="265.75"/><line x1="193.33" y1="327.41" x2="185.41" y2="306.56"/><line x1="245.25" y1="351.25" x2="246.40" y2="351.06"/><line x1="181.25" y1="250.86" x2="180.29" y2="247.00"/><line x1="214.61" y1="235.98" x2="216.92" y2="237.52"/><line x1="257.88" y1="234.13" x2="246.34" y2="243.89"/><line x1="319.39" y1="343.17" x2="317.07" y2="339.76"/><line x1="229.59" y1="296.45" x2="216.97" y2="302.35"/><line x1="246.40" y1="351.06" x2="247.56" y2="350.84"/><line x1="207.18" y1="193.52" x2="218.24" y2="178.59"/><line x1="216.92" y1="237.52" x2="219.24" y2="239.16"/><line x1="344.29" y1="421.41" x2="339.00" y2="423.97"/><line x1="312.41" y1="333.04" x2="274.27" y2="312.08"/><line x1="244.99" y1="199.78" x2="240.43" y2="234.40"/><line x1="333.86" y1="420.61" x2="346.70" y2="413.74"/><line x1="214.89" y1="257.39" x2="179.08" y2="233.81"/><line x1="218.24" y1="178.59" x2="208.67" y2="195.66"/><line x1="214.89" y1="257.39" x2="182.57" y2="226.91"/><line x1="274.27" y1="312.08" x2="314.70" y2="336.34"/><line x1="214.89" y1="257.39" x2="198.64" y2="228.09"/><line x1="295.80" y1="342.04" x2="294.06" y2="338.55"/><line x1="317.07" y1="339.76" x2="263.20" y2="311.35"/><line x1="204.37" y1="336.05" x2="216.64" y2="322.37"/><line x1="179.08" y1="233.81" x2="179.18" y2="232.51"/><line x1="224.02" y1="258.06" x2="227.39" y2="259.60"/><line x1="269.47" y1="248.11" x2="277.34" y2="242.51"/><line x1="205.11" y1="289.71" x2="217.95" y2="280.33"/><line x1="254.13" y1="349.14" x2="255.15" y2="348.81"/><line x1="229.02" y1="183.42" x2="231.42" y2="185.28"/><line x1="227.39" y1="259.60" x2="231.05" y2="261.75"/><line x1="263.20" y1="311.35" x2="261.35" y2="311.36"/><line x1="257.88" y1="234.13" x2="256.01" y2="260.70"/><line x1="326.17" y1="410.61" x2="346.46" y2="403.06"/><line x1="262.99" y1="273.64" x2="248.62" y2="276.40"/><line x1="287.10" y1="342.04" x2="284.96" y2="342.78"/><line x1="213.65" y1="258.08" x2="179.05" y2="235.25"/><line x1="224.90" y1="322.98" x2="226.80" y2="322.84"/><line x1="217.95" y1="280.33" x2="201.64" y2="285.67"/><line x1="180.60" y1="228.14" x2="181.11" y2="227.66"/><line x1="300.82" y1="271.46" x2="307.41" y2="279.04"/><line x1="261.35" y1="311.36" x2="259.86" y2="311.45"/><line x1="344.29" y1="421.41" x2="336.02" y2="422.47"/><line x1="195.40" y1="277.71" x2="192.64" y2="273.80"/><line x1="181.11" y1="227.66" x2="181.77" y2="227.25"/><line x1="214.89" y1="257.39" x2="179.84" y2="229.47"/><line x1="214.89" y1="257.39" x2="187.24" y2="226.32"/><line x1="344.38" y1="392.27" x2="343.30" y2="388.59"/><line x1="480.00" y1="32.02" x2="447.51" y2="32.02"/><line x1="220.06" y1="208.82" x2="223.03" y2="211.84"/><line x1="253.40" y1="281.34" x2="258.23" y2="286.71"/><line x1="319.45" y1="398.36" x2="307.30" y2="368.83"/><line x1="231.00" y1="350.45" x2="234.01" y2="351.13"/><line x1="212.17" y1="268.15" x2="192.64" y2="273.80"/><line x1="239.25" y1="192.95" x2="242.07" y2="196.20"/><line x1="326.01" y1="353.33" x2="247.24" y2="316.27"/><line x1="211.58" y1="261.80" x2="212.00" y2="260.28"/><line x1="200.75" y1="333.35" x2="204.37" y2="336.05"/><line x1="236.10" y1="320.66" x2="271.61" y2="342.54"/><line x1="344.29" y1="421.41" x2="342.85" y2="422.84"/><line x1="185.79" y1="262.30" x2="184.00" y2="258.51"/><line x1="220.30" y1="284.00" x2="205.11" y2="289.71"/><line x1="253.11" y1="349.46" x2="254.13" y2="349.14"/><line x1="346.76" y1="406.58" x2="326.17" y2="410.61"/><line x1="230.96" y1="315.93" x2="226.06" y2="311.30"/><line x1="247.24" y1="316.27" x2="272.50" y2="342.24"/><line x1="212.01" y1="199.99" x2="229.02" y2="183.42"/><line x1="236.10" y1="320.66" x2="242.27" y2="310.96"/><line x1="237.67" y1="305.89" x2="233.44" y2="301.05"/><line x1="180.29" y1="247.00" x2="179.60" y2="243.11"/><line x1="218.24" y1="345.05" x2="224.90" y2="322.98"/><line x1="211.83" y1="177.62" x2="205.85" y2="191.47"/><line x1="229.02" y1="183.42" x2="213.85" y2="202.18"/><line x1="307.30" y1="368.83" x2="337.46" y2="373.89"/><line x1="336.02" y1="422.47" x2="334.99" y2="421.64"/><line x1="290.14" y1="272.54" x2="300.82" y2="271.46"/><line x1="326.01" y1="353.33" x2="301.33" y2="354.17"/><line x1="213.65" y1="258.08" x2="179.18" y2="239.19"/><line x1="224.90" y1="322.98" x2="221.54" y2="346.81"/><line x1="219.24" y1="239.16" x2="218.20" y2="256.84"/><line x1="269.52" y1="343.28" x2="270.62" y2="342.88"/><line x1="236.10" y1="320.66" x2="265.61" y2="344.78"/><line x1="248.62" y1="276.40" x2="253.40" y2="281.34"/><line x1="300.82" y1="271.46" x2="299.22" y2="283.00"/><line x1="320.93" y1="401.48" x2="344.38" y2="392.27"/><line x1="195.40" y1="277.71" x2="212.17" y2="268.15"/><line x1="270.62" y1="342.88" x2="271.61" y2="342.54"/><line x1="252.68" y1="254.75" x2="256.01" y2="260.70"/><line x1="236.54" y1="190.04" x2="220.06" y2="208.82"/><line x1="251.56" y1="314.10" x2="249.47" y2="315.10"/><line x1="344.38" y1="392.27" x2="319.45" y2="398.36"/><line x1="212.78" y1="298.03" x2="208.82" y2="293.81"/><line x1="247.24" y1="316.27" x2="278.24" y2="343.60"/><line x1="480.00" y1="32.02" x2="480.00" y2="64.50"/><line x1="230.56" y1="322.26" x2="231.00" y2="350.45"/><line x1="210.29" y1="197.82" x2="212.01" y2="199.99"/><line x1="187.24" y1="226.32" x2="189.52" y2="226.40"/><line x1="270.95" y1="311.78" x2="268.00" y2="311.55"/><line x1="220.06" y1="208.82" x2="239.25" y2="192.95"/><line x1="330.33" y1="416.51" x2="328.18" y2="413.57"/><line x1="321.46" y1="294.59" x2="321.46" y2="307.32"/><line x1="480.00" y1="479.91" x2="480.00" y2="447.42"/><line x1="278.24" y1="343.60" x2="277.51" y2="343.45"/><line x1="231.00" y1="350.45" x2="232.43" y2="321.83"/><line x1="205.33" y1="177.88" x2="202.17" y2="182.23"/><line x1="280.22" y1="260.91" x2="290.14" y2="272.54"/><line x1="262.74" y1="244.38" x2="268.11" y2="255.22"/><line x1="307.30" y1="368.83" x2="330.14" y2="360.05"/><line x1="339.07" y1="377.50" x2="337.46" y2="373.89"/><line x1="326.01" y1="353.33" x2="294.06" y2="338.55"/><line x1="236.10" y1="320.66" x2="241.92" y2="351.60"/><line x1="211.58" y1="261.80" x2="185.79" y2="262.30"/><line x1="235.03" y1="264.52" x2="239.30" y2="267.89"/><line x1="202.17" y1="182.23" x2="202.27" y2="183.40"/><line x1="236.10" y1="320.66" x2="252.05" y2="349.77"/><line x1="228.90" y1="218.51" x2="231.81" y2="222.17"/><line x1="236.10" y1="320.66" x2="270.62" y2="342.88"/><line x1="337.46" y1="373.89" x2="335.76" y2="370.35"/><line x1="447.51" y1="479.91" x2="480.00" y2="447.42"/><line x1="203.18" y1="229.78" x2="205.45" y2="230.82"/><line x1="231.81" y1="222.17" x2="234.71" y2="226.03"/><line x1="247.24" y1="316.27" x2="284.96" y2="342.78"/><line x1="230.96" y1="315.93" x2="237.67" y2="305.89"/><line x1="202.67" y1="179.91" x2="202.29" y2="180.97"/><line x1="247.24" y1="316.27" x2="274.06" y2="342.64"/><line x1="240.84" y1="351.66" x2="241.92" y2="351.60"/><line x1="303.92" y1="320.28" x2="305.21" y2="322.33"/><line x1="336.93" y1="423.13" x2="336.02" y2="422.47"/><line x1="236.10" y1="320.66" x2="272.50" y2="342.24"/><line x1="204.19" y1="178.37" x2="205.33" y2="177.88"/><line x1="180.29" y1="247.00" x2="213.65" y2="258.08"/><line x1="211.83" y1="177.62" x2="204.72" y2="189.55"/><line x1="305.21" y1="322.33" x2="306.71" y2="324.63"/><line x1="307.30" y1="368.83" x2="339.07" y2="377.50"/><line x1="326.01" y1="353.33" x2="303.27" y2="358.78"/><line x1="226.12" y1="292.06" x2="223.02" y2="287.92"/><line x1="236.10" y1="320.66" x2="246.40" y2="351.06"/><line x1="219.24" y1="239.16" x2="216.41" y2="256.98"/><line x1="236.10" y1="320.66" x2="264.09" y2="345.39"/><line x1="216.64" y1="322.37" x2="211.43" y2="340.91"/><line x1="221.20" y1="179.43" x2="223.97" y2="180.52"/><line x1="216.41" y1="256.98" x2="218.20" y2="256.84"/><line x1="314.70" y1="336.34" x2="270.95" y2="311.78"/><line x1="247.24" y1="316.27" x2="323.86" y2="349.96"/><line x1="247.24" y1="316.27" x2="278.76" y2="343.69"/><line x1="282.78" y1="249.55" x2="288.51" y2="256.72"/><line x1="270.95" y1="311.78" x2="317.07" y2="339.76"/><line x1="291.64" y1="339.93" x2="289.33" y2="341.09"/><line x1="201.64" y1="285.67" x2="214.33" y2="273.73"/><line x1="480.00" y1="479.91" x2="447.51" y2="479.91"/><line x1="280.22" y1="260.91" x2="294.52" y2="264.02"/><line x1="324.29" y1="407.60" x2="322.54" y2="404.56"/><line x1="307.30" y1="368.83" x2="332.11" y2="363.43"/><line x1="326.01" y1="353.33" x2="295.80" y2="342.04"/><line x1="277.94" y1="312.46" x2="287.38" y2="291.37"/><line x1="236.10" y1="320.66" x2="240.84" y2="351.66"/><line x1="277.94" y1="312.46" x2="274.27" y2="312.08"/><line x1="231.42" y1="185.28" x2="233.93" y2="187.49"/><line x1="235.03" y1="264.52" x2="262.99" y2="273.64"/><line x1="236.10" y1="320.66" x2="250.96" y2="350.06"/><line x1="345.96" y1="399.51" x2="345.27" y2="395.91"/><line x1="236.10" y1="320.66" x2="269.52" y2="343.28"/><line x1="337.73" y1="423.60" x2="336.93" y2="423.13"/><line x1="226.80" y1="322.84" x2="228.69" y2="322.60"/><line x1="240.25" y1="255.54" x2="231.05" y2="261.75"/><line x1="215.80" y1="204.37" x2="217.87" y2="206.59"/><line x1="203.80" y1="187.79" x2="211.83" y2="177.62"/><line x1="307.41" y1="279.04" x2="314.29" y2="286.75"/><line x1="247.24" y1="316.27" x2="319.39" y2="343.17"/><line x1="192.64" y1="273.80" x2="190.12" y2="269.92"/><line x1="185.41" y1="306.56" x2="194.10" y2="312.50"/><line x1="202.67" y1="179.91" x2="203.30" y2="179.04"/><line x1="247.24" y1="316.27" x2="275.41" y2="342.97"/><line x1="307.47" y1="292.28" x2="314.88" y2="300.39"/><line x1="246.34" y1="243.89" x2="249.46" y2="249.14"/><line x1="343.30" y1="388.59" x2="342.01" y2="384.86"/><line x1="211.62" y1="265.75" x2="211.44" y2="263.59"/><line x1="204.19" y1="178.37" x2="202.29" y2="180.97"/><line x1="247.56" y1="350.84" x2="248.72" y2="350.59"/><line x1="223.03" y1="211.84" x2="225.98" y2="215.07"/><line x1="249.46" y1="249.14" x2="252.68" y2="254.75"/><line x1="307.30" y1="368.83" x2="340.58" y2="381.15"/><line x1="226.12" y1="292.06" x2="212.78" y2="298.03"/><line x1="277.94" y1="312.46" x2="305.21" y2="322.33"/><line x1="248.72" y1="350.59" x2="249.85" y2="350.33"/><line x1="242.07" y1="196.20" x2="244.99" y2="199.78"/><line x1="236.10" y1="320.66" x2="245.25" y2="351.25"/><line x1="208.67" y1="195.66" x2="221.20" y2="179.43"/><line x1="236.10" y1="320.66" x2="255.15" y2="348.81"/><line x1="332.61" y1="419.40" x2="330.33" y2="416.51"/><line x1="166.26" y1="303.89" x2="193.33" y2="327.41"/><line x1="212.00" y1="260.28" x2="182.49" y2="254.70"/><line x1="236.93" y1="351.53" x2="239.79" y2="351.67"/><line x1="216.64" y1="322.37" x2="207.94" y2="338.57"/><line x1="179.18" y1="232.51" x2="179.33" y2="231.36"/><line x1="221.20" y1="179.43" x2="210.29" y2="197.82"/><line x1="277.34" y1="242.51" x2="282.78" y2="249.55"/><line x1="176.13" y1="299.32" x2="185.41" y2="306.56"/><line x1="247.24" y1="316.27" x2="291.64" y2="339.93"/><line x1="207.94" y1="338.57" x2="211.43" y2="340.91"/><line x1="247.24" y1="316.27" x2="279.07" y2="343.73"/><line x1="202.57" y1="184.71" x2="203.08" y2="186.18"/><line x1="255.15" y1="348.81" x2="264.09" y2="345.39"/><line x1="257.88" y1="234.13" x2="262.74" y2="244.38"/><line x1="231.05" y1="261.75" x2="235.03" y2="264.52"/><line x1="282.78" y1="249.55" x2="280.22" y2="260.91"/><line x1="201.64" y1="285.67" x2="215.96" y2="276.90"/><line x1="264.09" y1="345.39" x2="265.61" y2="344.78"/><line x1="305.26" y1="363.66" x2="326.01" y2="353.33"/><line x1="213.85" y1="202.18" x2="231.42" y2="185.28"/><line x1="259.86" y1="311.45" x2="258.48" y2="311.66"/><line x1="324.29" y1="407.60" x2="345.96" y2="399.51"/><line x1="233.44" y1="301.05" x2="229.59" y2="296.45"/><line x1="221.54" y1="346.81" x2="226.80" y2="322.84"/><line x1="277.94" y1="312.46" x2="280.43" y2="278.71"/><line x1="181.77" y1="227.25" x2="182.57" y2="226.91"/><line x1="247.24" y1="316.27" x2="249.47" y2="315.10"/><line x1="248.02" y1="203.72" x2="269.47" y2="248.11"/><line x1="277.94" y1="312.46" x2="312.41" y2="333.04"/><line x1="231.42" y1="185.28" x2="215.80" y2="204.37"/><line x1="216.97" y1="302.35" x2="226.12" y2="292.06"/><line x1="209.71" y1="320.40" x2="216.64" y2="322.37"/><line x1="284.96" y1="342.78" x2="282.91" y2="343.30"/><line x1="226.80" y1="322.84" x2="224.77" y2="348.29"/><line x1="346.70" y1="413.74" x2="332.61" y2="419.40"/><line x1="240.25" y1="255.54" x2="227.39" y2="259.60"/><line x1="214.89" y1="257.39" x2="219.24" y2="239.16"/><line x1="258.23" y1="286.71" x2="263.10" y2="292.50"/><line x1="307.41" y1="279.04" x2="307.47" y2="292.28"/><line x1="232.43" y1="321.83" x2="236.93" y2="351.53"/><line x1="192.64" y1="273.80" x2="211.62" y2="265.75"/><line x1="202.67" y1="179.91" x2="204.19" y2="178.37"/><line x1="294.06" y1="338.55" x2="247.24" y2="316.27"/><line x1="343.30" y1="388.59" x2="307.30" y2="368.83"/><line x1="222.97" y1="323.04" x2="224.90" y2="322.98"/><line x1="202.27" y1="183.40" x2="202.57" y2="184.71"/><line x1="191.81" y1="226.61" x2="194.09" y2="226.96"/><line x1="223.03" y1="211.84" x2="242.07" y2="196.20"/><line x1="341.08" y1="423.68" x2="339.00" y2="423.97"/><line x1="276.57" y1="343.24" x2="275.41" y2="342.97"/><line x1="346.46" y1="403.06" x2="324.29" y2="407.60"/><line x1="206.72" y1="177.60" x2="208.37" y2="177.50"/><line x1="277.94" y1="312.46" x2="303.92" y2="320.28"/><line x1="274.01" y1="266.67" x2="280.43" y2="278.71"/><line x1="166.26" y1="303.89" x2="166.26" y2="290.76"/><line x1="212.00" y1="260.28" x2="184.00" y2="258.51"/><line x1="214.89" y1="257.39" x2="207.73" y2="231.96"/><line x1="317.07" y1="339.76" x2="256.96" y2="312.03"/><line x1="226.06" y1="311.30" x2="221.40" y2="306.77"/><line x1="299.22" y1="283.00" x2="307.41" y2="279.04"/><line x1="257.88" y1="234.13" x2="262.99" y2="273.64"/><line x1="257.88" y1="234.13" x2="277.94" y2="312.46"/><line x1="345.41" y1="419.43" x2="346.21" y2="416.87"/><line x1="202.20" y1="317.10" x2="209.71" y2="320.40"/><line x1="205.85" y1="191.47" x2="207.18" y2="193.52"/><line x1="262.99" y1="273.64" x2="268.00" y2="298.72"/><line x1="197.07" y1="330.47" x2="200.75" y2="333.35"/><line x1="244.99" y1="199.78" x2="237.58" y2="230.11"/><line x1="218.20" y1="256.84" x2="220.96" y2="257.15"/><line x1="277.94" y1="312.46" x2="274.01" y2="266.67"/><line x1="223.02" y1="287.92" x2="220.30" y2="284.00"/><line x1="214.89" y1="257.39" x2="181.77" y2="227.25"/><line x1="480.00" y1="64.50" x2="447.51" y2="32.02"/><line x1="214.89" y1="257.39" x2="196.36" y2="227.45"/><line x1="240.25" y1="255.54" x2="224.02" y2="258.06"/><line x1="214.89" y1="257.39" x2="216.92" y2="237.52"/><line x1="317.07" y1="339.76" x2="265.41" y2="311.41"/><line x1="346.85" y1="410.05" x2="346.76" y2="406.58"/><line x1="317.07" y1="339.76" x2="249.47" y2="315.10"/><line x1="208.82" y1="293.81" x2="205.11" y2="289.71"/><line x1="232.43" y1="321.83" x2="234.01" y2="351.13"/><line x1="193.33" y1="327.41" x2="197.07" y2="330.47"/><line x1="323.86" y1="349.96" x2="321.65" y2="346.57"/><line x1="222.97" y1="323.04" x2="218.24" y2="345.05"/><line x1="257.88" y1="234.13" x2="248.02" y2="203.72"/><line x1="262.99" y1="273.64" x2="243.87" y2="271.89"/><line x1="202.27" y1="183.40" x2="206.72" y2="177.60"/><line x1="341.08" y1="423.68" x2="342.85" y2="422.84"/><line x1="289.33" y1="341.09" x2="287.10" y2="342.04"/><line x1="214.33" y1="273.73" x2="213.07" y2="270.82"/><line x1="344.29" y1="421.41" x2="336.93" y2="423.13"/><line x1="322.54" y1="404.56" x2="320.93" y2="401.48"/><line x1="333.98" y1="366.86" x2="332.11" y2="363.43"/><line x1="214.89" y1="257.39" x2="179.55" y2="230.35"/><line x1="198.41" y1="281.67" x2="195.40" y2="277.71"/><line x1="214.89" y1="257.39" x2="185.85" y2="226.36"/><line x1="241.92" y1="351.60" x2="243.01" y2="351.52"/><line x1="214.89" y1="257.39" x2="205.45" y2="230.82"/><line x1="207.73" y1="231.96" x2="210.01" y2="233.20"/><line x1="317.07" y1="339.76" x2="258.48" y2="311.66"/><line x1="345.27" y1="395.91" x2="344.38" y2="392.27"/><line x1="226.06" y1="311.30" x2="233.44" y2="301.05"/><line x1="319.45" y1="398.36" x2="343.30" y2="388.59"/><line x1="306.71" y1="324.63" x2="308.41" y2="327.18"/><line x1="345.41" y1="419.43" x2="334.99" y2="421.64"/><line x1="189.52" y1="226.40" x2="191.81" y2="226.61"/><line x1="239.25" y1="192.95" x2="223.03" y2="211.84"/><line x1="202.20" y1="317.10" x2="197.07" y2="330.47"/><line x1="179.60" y1="243.11" x2="179.18" y2="239.19"/><line x1="277.51" y1="343.45" x2="276.57" y2="343.24"/><line x1="262.99" y1="273.64" x2="263.10" y2="292.50"/><line x1="314.88" y1="300.39" x2="321.46" y2="307.32"/><line x1="301.33" y1="354.17" x2="299.44" y2="349.85"/><line x1="268.11" y1="255.22" x2="274.01" y2="266.67"/><line x1="211.44" y1="263.59" x2="211.58" y2="261.80"/><line x1="344.29" y1="421.41" x2="341.08" y2="423.68"/><line x1="244.99" y1="199.78" x2="234.71" y2="226.03"/><line x1="218.20" y1="256.84" x2="240.25" y2="255.54"/><line x1="185.79" y1="262.30" x2="212.00" y2="260.28"/><line x1="211.43" y1="340.91" x2="214.86" y2="343.07"/><line x1="223.02" y1="287.92" x2="208.82" y2="293.81"/><line x1="208.37" y1="177.50" x2="211.83" y2="177.62"/><line x1="214.89" y1="257.39" x2="181.11" y2="227.66"/><line x1="335.76" y1="370.35" x2="333.98" y2="366.86"/><line x1="214.89" y1="257.39" x2="194.09" y2="226.96"/><line x1="214.89" y1="257.39" x2="214.61" y2="235.98"/><line x1="317.07" y1="339.76" x2="268.00" y2="311.55"/><line x1="346.85" y1="410.05" x2="328.18" y2="413.57"/><line x1="205.45" y1="230.82" x2="207.73" y2="231.96"/><line x1="317.07" y1="339.76" x2="251.56" y2="314.10"/><line x1="234.71" y1="226.03" x2="237.58" y2="230.11"/><line x1="212.68" y1="259.04" x2="213.65" y2="258.08"/><line x1="179.55" y1="230.35" x2="179.84" y2="229.47"/><line x1="223.97" y1="180.52" x2="226.58" y2="181.85"/><line x1="237.67" y1="305.89" x2="226.06" y2="311.30"/><line x1="193.33" y1="327.41" x2="202.20" y2="317.10"/><line x1="336.02" y1="422.47" x2="345.41" y2="419.43"/><line x1="257.88" y1="234.13" x2="252.68" y2="254.75"/><line x1="262.99" y1="273.64" x2="239.30" y2="267.89"/><line x1="288.51" y1="256.72" x2="294.52" y2="264.02"/><line x1="213.65" y1="258.08" x2="179.60" y2="243.11"/><line x1="204.72" y1="189.55" x2="205.85" y2="191.47"/><line x1="32.16" y1="32.09" x2="32.16" y2="64.58"/><line x1="214.33" y1="273.73" x2="198.41" y2="281.67"/><line x1="344.29" y1="421.41" x2="337.73" y2="423.60"/><line x1="303.27" y1="358.78" x2="301.33" y2="354.17"/><line x1="233.93" y1="187.49" x2="236.54" y2="190.04"/><line x1="322.54" y1="404.56" x2="345.27" y2="395.91"/><line x1="214.89" y1="257.39" x2="179.33" y2="231.36"/><line x1="228.69" y1="322.60" x2="230.56" y2="322.26"/><line x1="183.52" y1="226.65" x2="184.62" y2="226.47"/><line x1="214.89" y1="257.39" x2="184.62" y2="226.47"/><line x1="212.78" y1="298.03" x2="223.02" y2="287.92"/><line x1="214.89" y1="257.39" x2="203.18" y2="229.78"/><line x1="314.29" y1="286.75" x2="321.46" y2="294.59"/><line x1="249.85" y1="350.33" x2="250.96" y2="350.06"/><line x1="210.29" y1="197.82" x2="226.58" y2="181.85"/><line x1="190.12" y1="269.92" x2="187.84" y2="266.09"/><line x1="330.33" y1="416.51" x2="346.85" y2="410.05"/><line x1="269.47" y1="248.11" x2="280.22" y2="260.91"/><line x1="179.33" y1="231.36" x2="179.55" y2="230.35"/><line x1="225.98" y1="215.07" x2="228.90" y2="218.51"/><line x1="234.27" y1="321.29" x2="236.10" y2="320.66"/><line x1="182.49" y1="254.70" x2="181.25" y2="250.86"/><line x1="211.43" y1="340.91" x2="222.97" y2="323.04"/><line x1="214.89" y1="257.39" x2="180.60" y2="228.14"/><line x1="208.37" y1="177.50" x2="203.80" y2="187.79"/><line x1="224.77" y1="348.29" x2="227.92" y2="349.51"/><line x1="256.96" y1="312.03" x2="255.30" y2="312.56"/><line x1="243.33" y1="238.97" x2="246.34" y2="243.89"/><line x1="194.10" y1="312.50" x2="202.20" y2="317.10"/><line x1="221.40" y1="306.77" x2="216.97" y2="302.35"/><line x1="32.00" y1="479.98" x2="64.49" y2="479.98"/><line x1="259.45" y1="267.00" x2="262.99" y2="273.64"/><line x1="346.21" y1="416.87" x2="346.70" y2="413.74"/><line x1="326.01" y1="353.33" x2="323.86" y2="349.96"/><line x1="207.18" y1="193.52" x2="208.67" y2="195.66"/><line x1="344.29" y1="421.41" x2="338.42" y2="423.88"/><line x1="312.41" y1="333.04" x2="314.70" y2="336.34"/><line x1="214.89" y1="257.39" x2="179.18" y2="232.51"/><line x1="210.29" y1="197.82" x2="223.97" y2="180.52"/><line x1="190.12" y1="269.92" x2="211.44" y2="263.59"/><line x1="205.11" y1="289.71" x2="201.64" y2="285.67"/><line x1="280.22" y1="260.91" x2="288.51" y2="256.72"/><line x1="307.30" y1="368.83" x2="333.98" y2="366.86"/><line x1="196.36" y1="227.45" x2="198.64" y2="228.09"/><line x1="326.01" y1="353.33" x2="297.60" y2="345.81"/><line x1="215.96" y1="276.90" x2="214.33" y2="273.73"/><line x1="265.61" y1="344.78" x2="267.02" y2="344.23"/><line x1="213.65" y1="258.08" x2="214.89" y2="257.39"/><line x1="236.10" y1="320.66" x2="249.85" y2="350.33"/><line x1="274.06" y1="342.64" x2="272.50" y2="342.24"/><line x1="258.48" y1="311.66" x2="256.96" y2="312.03"/><line x1="345.96" y1="399.51" x2="322.54" y2="404.56"/><line x1="236.10" y1="320.66" x2="268.32" y2="343.72"/><line x1="182.57" y1="226.91" x2="183.52" y2="226.65"/><line x1="215.80" y1="204.37" x2="233.93" y2="187.49"/><line x1="182.49" y1="254.70" x2="212.68" y2="259.04"/><line x1="282.91" y1="343.30" x2="280.95" y2="343.62"/><line x1="179.05" y1="235.25" x2="179.08" y2="233.81"/><line x1="247.24" y1="316.27" x2="287.10" y2="342.04"/><line x1="224.77" y1="348.29" x2="228.69" y2="322.60"/><line x1="247.24" y1="316.27" x2="276.57" y2="343.24"/><line x1="330.14" y1="360.05" x2="328.10" y2="356.70"/><line x1="263.10" y1="292.50" x2="268.00" y2="298.72"/><line x1="307.47" y1="292.28" x2="314.29" y2="286.75"/><line x1="211.62" y1="265.75" x2="190.12" y2="269.92"/><line x1="204.19" y1="178.37" x2="203.30" y2="179.04"/><line x1="268.00" y1="298.72" x2="272.95" y2="305.37"/><line x1="221.40" y1="306.77" x2="229.59" y2="296.45"/><line x1="205.33" y1="177.88" x2="206.72" y2="177.60"/><line x1="307.30" y1="368.83" x2="342.01" y2="384.86"/><line x1="32.00" y1="479.98" x2="32.00" y2="447.50"/><line x1="307.30" y1="368.83" x2="305.26" y2="363.66"/><line x1="346.21" y1="416.87" x2="333.86" y2="420.61"/><line x1="194.09" y1="226.96" x2="196.36" y2="227.45"/><line x1="242.07" y1="196.20" x2="225.98" y2="215.07"/><line x1="236.10" y1="320.66" x2="244.12" y2="351.40"/><line x1="236.10" y1="320.66" x2="254.13" y2="349.14"/><line x1="275.41" y1="342.97" x2="274.06" y2="342.64"/><line x1="236.93" y1="351.53" x2="234.27" y2="321.29"/><line x1="297.60" y1="345.81" x2="295.80" y2="342.04"/><line x1="280.43" y1="278.71" x2="287.38" y2="291.37"/><line x1="220.30" y1="284.00" x2="217.95" y2="280.33"/><line x1="176.13" y1="299.32" x2="193.33" y2="327.41"/><line x1="184.00" y1="258.51" x2="182.49" y2="254.70"/><line x1="346.76" y1="406.58" x2="346.46" y2="403.06"/><line x1="202.57" y1="184.71" x2="208.37" y2="177.50"/><line x1="247.24" y1="316.27" x2="280.95" y2="343.62"/><line x1="287.38" y1="291.37" x2="294.84" y2="304.62"/><line x1="247.24" y1="316.27" x2="242.27" y2="310.96"/><line x1="332.11" y1="363.43" x2="330.14" y2="360.05"/><line x1="212.01" y1="199.99" x2="213.85" y2="202.18"/><line x1="210.01" y1="233.20" x2="212.31" y2="234.54"/><line x1="236.10" y1="320.66" x2="230.96" y2="315.93"/><line x1="321.65" y1="346.57" x2="319.39" y2="343.17"/><line x1="218.24" y1="345.05" x2="221.54" y2="346.81"/><line x1="334.99" y1="421.64" x2="333.86" y2="420.61"/><line x1="211.83" y1="177.62" x2="215.13" y2="177.98"/><line x1="307.30" y1="368.83" x2="335.76" y2="370.35"/><line x1="233.44" y1="301.05" x2="221.40" y2="306.77"/><line x1="290.14" y1="272.54" x2="299.22" y2="283.00"/><line x1="326.01" y1="353.33" x2="299.44" y2="349.85"/><line x1="215.13" y1="177.98" x2="218.24" y2="178.59"/><line x1="212.31" y1="234.54" x2="214.61" y2="235.98"/><line x1="308.41" y1="327.18" x2="310.30" y2="329.98"/><line x1="277.94" y1="312.46" x2="310.30" y2="329.98"/><line x1="236.10" y1="320.66" x2="248.72" y2="350.59"/><line x1="219.24" y1="239.16" x2="240.25" y2="255.54"/><line x1="236.10" y1="320.66" x2="267.02" y2="344.23"/><line x1="209.71" y1="320.40" x2="204.37" y2="336.05"/><line x1="320.93" y1="401.48" x2="319.45" y2="398.36"/><line x1="310.30" y1="329.98" x2="312.41" y2="333.04"/><line x1="236.54" y1="190.04" x2="239.25" y2="192.95"/><line x1="179.05" y1="235.25" x2="214.89" y2="257.39"/><line x1="247.24" y1="316.27" x2="321.65" y2="346.57"/><line x1="247.24" y1="316.27" x2="277.51" y2="343.45"/><line x1="230.56" y1="322.26" x2="232.43" y2="321.83"/><line x1="328.18" y1="413.57" x2="326.17" y2="410.61"/><line x1="234.01" y1="351.13" x2="236.93" y2="351.53"/><line x1="226.58" y1="181.85" x2="229.02" y2="183.42"/><line x1="220.96" y1="257.15" x2="224.02" y2="258.06"/><line x1="205.33" y1="177.88" x2="202.27" y2="183.40"/><line x1="307.30" y1="368.83" x2="328.10" y2="356.70"/><line x1="206.72" y1="177.60" x2="202.57" y2="184.71"/><line x1="277.94" y1="312.46" x2="302.83" y2="318.48"/><line x1="294.52" y1="264.02" x2="300.82" y2="271.46"/><line x1="236.10" y1="320.66" x2="243.01" y2="351.52"/><line x1="236.10" y1="320.66" x2="253.11" y2="349.46"/><line x1="166.26" y1="303.89" x2="176.13" y2="299.32"/><line x1="240.25" y1="255.54" x2="262.99" y2="273.64"/><line x1="237.58" y1="230.11" x2="240.43" y2="234.40"/><line x1="213.07" y1="270.82" x2="212.17" y2="268.15"/><line x1="176.13" y1="299.32" x2="166.26" y2="290.76"/><line x1="243.01" y1="351.52" x2="244.12" y2="351.40"/><line x1="217.87" y1="206.59" x2="220.06" y2="208.82"/><line x1="247.24" y1="316.27" x2="282.91" y2="343.30"/><line x1="240.43" y1="234.40" x2="243.33" y2="238.97"/><line x1="257.88" y1="234.13" x2="272.95" y2="305.37"/><line x1="236.10" y1="320.66" x2="247.24" y2="316.27"/><line x1="244.12" y1="351.40" x2="245.25" y2="351.25"/><line x1="205.85" y1="191.47" x2="215.13" y2="177.98"/><line x1="334.99" y1="421.64" x2="346.21" y2="416.87"/><line x1="197.07" y1="330.47" x2="209.71" y2="320.40"/><line x1="179.18" y1="239.19" x2="179.05" y2="235.25"/><line x1="247.24" y1="316.27" x2="317.07" y2="339.76"/><line x1="277.94" y1="312.46" x2="268.11" y2="255.22"/><line x1="215.13" y1="177.98" x2="207.18" y2="193.52"/><line x1="277.94" y1="312.46" x2="308.41" y2="327.18"/><line x1="236.10" y1="320.66" x2="247.56" y2="350.84"/><line x1="299.44" y1="349.85" x2="297.60" y2="345.81"/><line x1="187.84" y1="266.09" x2="185.79" y2="262.30"/><line x1="209.71" y1="320.40" x2="200.75" y2="333.35"/><line x1="250.96" y1="350.06" x2="252.05" y2="349.77"/><line x1="240.25" y1="255.54" x2="220.96" y2="257.15"/><line x1="216.64" y1="322.37" x2="222.97" y2="323.04"/><line x1="256.01" y1="260.70" x2="259.45" y2="267.00"/><line x1="314.70" y1="336.34" x2="317.07" y2="339.76"/><line x1="208.82" y1="293.81" x2="220.30" y2="284.00"/><line x1="252.05" y1="349.77" x2="253.11" y2="349.46"/><line x1="247.24" y1="316.27" x2="289.33" y2="341.09"/><line x1="268.00" y1="311.55" x2="265.41" y2="311.41"/><line x1="328.18" y1="413.57" x2="346.76" y2="406.58"/><line x1="242.27" y1="310.96" x2="237.67" y2="305.89"/><line x1="222.97" y1="323.04" x2="214.86" y2="343.07"/><line x1="179.84" y1="229.47" x2="180.19" y2="228.74"/><line x1="226.58" y1="181.85" x2="212.01" y2="199.99"/><line x1="201.64" y1="285.67" x2="198.41" y2="281.67"/><line x1="265.41" y1="311.41" x2="263.20" y2="311.35"/><line x1="214.86" y1="343.07" x2="218.24" y2="345.05"/><line x1="180.19" y1="228.74" x2="180.60" y2="228.14"/><line x1="239.30" y1="267.89" x2="243.87" y2="271.89"/><line x1="244.99" y1="199.78" x2="257.88" y2="234.13"/><line x1="277.94" y1="312.46" x2="294.84" y2="304.62"/><line x1="294.52" y1="264.02" x2="290.14" y2="272.54"/><line x1="198.41" y1="281.67" x2="213.07" y2="270.82"/><line x1="268.32" y1="343.72" x2="269.52" y2="343.28"/><line x1="243.87" y1="271.89" x2="248.62" y2="276.40"/><line x1="346.70" y1="413.74" x2="346.85" y2="410.05"/><line x1="240.25" y1="255.54" x2="235.03" y2="264.52"/><line x1="255.30" y1="312.56" x2="253.50" y2="313.25"/><line x1="317.07" y1="339.76" x2="259.86" y2="311.45"/><line x1="345.27" y1="395.91" x2="320.93" y2="401.48"/><line x1="203.80" y1="187.79" x2="204.72" y2="189.55"/><line x1="64.64" y1="32.09" x2="32.16" y2="64.58"/><line x1="227.92" y1="349.51" x2="231.00" y2="350.45"/><line x1="213.07" y1="270.82" x2="195.40" y2="277.71"/><line x1="184.62" y1="226.47" x2="185.85" y2="226.36"/><line x1="217.87" y1="206.59" x2="236.54" y2="190.04"/><line x1="253.50" y1="313.25" x2="251.56" y2="314.10"/><line x1="257.88" y1="234.13" x2="268.00" y2="298.72"/><line x1="279.07" y1="343.73" x2="278.76" y2="343.69"/><line x1="202.29" y1="180.97" x2="202.17" y2="182.23"/><line x1="185.85" y1="226.36" x2="187.24" y2="226.32"/><line x1="272.95" y1="305.37" x2="277.94" y2="312.46"/><line x1="257.88" y1="234.13" x2="269.47" y2="248.11"/><line x1="262.99" y1="273.64" x2="258.23" y2="286.71"/><line x1="314.88" y1="300.39" x2="321.46" y2="294.59"/><line x1="278.76" y1="343.69" x2="278.24" y2="343.60"/><line x1="211.44" y1="263.59" x2="187.84" y2="266.09"/><line x1="244.99" y1="199.78" x2="231.81" y2="222.17"/><line x1="277.94" y1="312.46" x2="262.74" y2="244.38"/><line x1="244.99" y1="199.78" x2="248.02" y2="203.72"/><line x1="277.94" y1="312.46" x2="306.71" y2="324.63"/><line x1="208.67" y1="195.66" x2="210.29" y2="197.82"/><line x1="239.79" y1="351.67" x2="240.84" y2="351.66"/><line x1="187.84" y1="266.09" x2="211.58" y2="261.80"/><line x1="214.89" y1="257.39" x2="191.81" y2="226.61"/><line x1="212.00" y1="260.28" x2="212.68" y2="259.04"/><line x1="214.89" y1="257.39" x2="212.31" y2="234.54"/><line x1="317.07" y1="339.76" x2="253.50" y2="313.25"/><line x1="212.68" y1="259.04" x2="180.29" y2="247.00"/><line x1="200.91" y1="228.86" x2="203.18" y2="229.78"/><line x1="328.10" y1="356.70" x2="326.01" y2="353.33"/><line x1="193.33" y1="327.41" x2="194.10" y2="312.50"/><line x1="271.61" y1="342.54" x2="272.50" y2="342.24"/><line x1="242.27" y1="310.96" x2="230.96" y2="315.93"/><line x1="267.02" y1="344.23" x2="268.32" y2="343.72"/><line x1="257.88" y1="234.13" x2="249.46" y2="249.14"/><line x1="302.83" y1="318.48" x2="303.92" y2="320.28"/><line x1="305.26" y1="363.66" x2="303.27" y2="358.78"/><line x1="213.85" y1="202.18" x2="215.80" y2="204.37"/><line x1="229.59" y1="296.45" x2="226.12" y2="292.06"/><line x1="32.16" y1="32.09" x2="64.64" y2="32.09"/><line x1="233.93" y1="187.49" x2="217.87" y2="206.59"/><line x1="221.54" y1="346.81" x2="224.77" y2="348.29"/><line x1="244.99" y1="199.78" x2="243.33" y2="238.97"/><line x1="333.86" y1="420.61" x2="332.61" y2="419.40"/><line x1="248.02" y1="203.72" x2="277.34" y2="242.51"/><line x1="216.97" y1="302.35" x2="212.78" y2="298.03"/><line x1="280.95" y1="343.62" x2="279.07" y2="343.73"/><line x1="228.69" y1="322.60" x2="227.92" y2="349.51"/><line x1="218.24" y1="178.59" x2="221.20" y2="179.43"/><line x1="214.89" y1="257.39" x2="183.52" y2="226.65"/><line x1="274.27" y1="312.08" x2="270.95" y2="311.78"/><line x1="214.89" y1="257.39" x2="200.91" y2="228.86"/><line x1="346.70" y1="413.74" x2="330.33" y2="416.51"/><line x1="314.29" y1="286.75" x2="314.88" y2="300.39"/><line x1="214.89" y1="257.39" x2="216.41" y2="256.98"/><line x1="317.07" y1="339.76" x2="261.35" y2="311.36"/><line x1="204.37" y1="336.05" x2="207.94" y2="338.57"/><line x1="227.92" y1="349.51" x2="230.56" y2="322.26"/><line x1="269.47" y1="248.11" x2="282.78" y2="249.55"/><line x1="232.43" y1="321.83" x2="234.27" y2="321.29"/><line x1="294.06" y1="338.55" x2="291.64" y2="339.93"/><line x1="342.01" y1="384.86" x2="340.58" y2="381.15"/><line x1="32.00" y1="447.50" x2="64.49" y2="479.98"/></g></svg>