<svg xmlns="http://www.w3.org/2000/svg" width="512" height="512"><rect width="512" height="512" fill="#0a0f1a"/><text x="12" y="20" font-family="monospace" font-size="11" fill="#4a7fa5">FRONT (XZ)</text><g stroke="#00d4ff" stroke-width="0.6" opacity="0.85"><line x1="262.70" y1="229.93" x2="256.83" y2="221.49"/><line x1="220.32" y1="309.37" x2="213.74" y2="358.04"/><line x1="132.07" y1="136.33" x2="133.60" y2="140.80"/><line x1="163.16" y1="141.60" x2="129.54" y2="124.70"/><line x1="348.40" y1="301.72" x2="346.18" y2="300.81"/><line x1="278.27" y1="297.36" x2="286.90" y2="341.03"/><line x1="256.83" y1="221.49" x2="240.24" y2="227.02"/><line x1="157.86" y1="111.07" x2="155.28" y2="109.64"/><line x1="207.94" y1="235.88" x2="208.48" y2="238.56"/><line x1="256.41" y1="347.80" x2="261.65" y2="346.51"/><line x1="346.18" y1="300.81" x2="343.82" y2="299.97"/><line x1="225.68" y1="268.28" x2="222.60" y2="262.71"/><line x1="319.90" y1="268.66" x2="317.78" y2="268.26"/><line x1="155.28" y1="109.64" x2="152.79" y2="108.43"/><line x1="288.74" y1="296.17" x2="305.79" y2="338.10"/><line x1="167.42" y1="209.85" x2="194.71" y2="202.89"/><line x1="167.42" y1="209.85" x2="207.94" y2="235.88"/><line x1="137.65" y1="150.62" x2="168.25" y2="159.19"/><line x1="184.31" y1="319.15" x2="180.41" y2="348.40"/><line x1="267.36" y1="264.46" x2="264.04" y2="264.54"/><line x1="167.42" y1="209.85" x2="205.41" y2="251.50"/><line x1="167.55" y1="333.95" x2="174.25" y2="341.90"/><line x1="222.60" y1="262.71" x2="223.15" y2="261.37"/><line x1="323.09" y1="269.33" x2="326.78" y2="267.42"/><line x1="166.49" y1="141.80" x2="164.51" y2="141.35"/><line x1="221.60" y1="202.72" x2="202.51" y2="178.88"/><line x1="162.66" y1="141.92" x2="162.26" y2="142.37"/><line x1="161.83" y1="145.26" x2="162.02" y2="146.20"/><line x1="383.23" y1="348.11" x2="379.05" y2="351.59"/><line x1="330.12" y1="297.01" x2="326.92" y2="296.64"/><line x1="180.41" y1="348.40" x2="188.90" y2="317.92"/><line x1="305.79" y1="338.10" x2="310.27" y2="337.67"/><line x1="202.51" y1="178.88" x2="204.52" y2="154.67"/><line x1="220.32" y1="309.37" x2="199.59" y2="359.96"/><line x1="163.16" y1="141.60" x2="140.09" y2="105.75"/><line x1="163.16" y1="141.60" x2="130.41" y2="113.82"/><line x1="207.35" y1="250.10" x2="206.47" y2="250.98"/><line x1="326.92" y1="296.64" x2="323.53" y2="296.34"/><line x1="242.61" y1="266.64" x2="226.99" y2="257.70"/><line x1="310.27" y1="337.67" x2="314.65" y2="337.36"/><line x1="298.05" y1="265.34" x2="294.54" y2="265.08"/><line x1="140.09" y1="105.75" x2="138.54" y2="106.00"/><line x1="199.59" y1="359.96" x2="201.66" y2="359.87"/><line x1="226.99" y1="257.70" x2="229.00" y2="256.57"/><line x1="267.36" y1="264.46" x2="350.95" y2="343.04"/><line x1="294.54" y1="265.08" x2="291.01" y2="264.91"/><line x1="165.84" y1="154.87" x2="166.97" y2="156.92"/><line x1="167.42" y1="209.85" x2="202.14" y2="218.42"/><line x1="137.65" y1="150.62" x2="163.35" y2="149.88"/><line x1="381.42" y1="338.30" x2="380.12" y2="335.92"/><line x1="201.66" y1="359.87" x2="204.11" y2="359.65"/><line x1="137.65" y1="150.62" x2="175.01" y2="170.48"/><line x1="331.35" y1="337.56" x2="333.89" y2="337.89"/><line x1="323.09" y1="269.33" x2="322.56" y2="269.20"/><line x1="179.74" y1="152.63" x2="189.57" y2="138.33"/><line x1="196.48" y1="248.49" x2="193.74" y2="246.70"/><line x1="377.35" y1="351.74" x2="375.94" y2="351.64"/><line x1="333.89" y1="337.89" x2="336.31" y2="338.33"/><line x1="325.37" y1="260.24" x2="324.74" y2="259.25"/><line x1="163.16" y1="141.60" x2="150.40" y2="107.44"/><line x1="131.71" y1="110.92" x2="130.99" y2="112.30"/><line x1="163.16" y1="141.60" x2="134.60" y2="107.72"/><line x1="190.26" y1="195.23" x2="192.55" y2="199.05"/><line x1="193.74" y1="246.70" x2="190.66" y2="244.52"/><line x1="163.16" y1="141.60" x2="129.37" y2="121.42"/><line x1="222.06" y1="356.21" x2="256.41" y2="347.80"/><line x1="324.16" y1="269.30" x2="323.09" y2="269.38"/><line x1="242.61" y1="266.64" x2="237.10" y2="253.59"/><line x1="179.03" y1="127.83" x2="175.67" y2="124.71"/><line x1="324.74" y1="259.25" x2="324.02" y2="258.25"/><line x1="256.41" y1="347.80" x2="252.83" y2="301.63"/><line x1="267.36" y1="264.46" x2="367.04" y2="349.22"/><line x1="129.54" y1="124.70" x2="130.04" y2="128.28"/><line x1="480.00" y1="32.02" x2="447.51" y2="32.02"/><line x1="167.42" y1="209.85" x2="192.55" y2="199.05"/><line x1="137.65" y1="150.62" x2="166.97" y2="156.92"/><line x1="260.64" y1="264.71" x2="264.04" y2="264.54"/><line x1="167.55" y1="333.95" x2="171.55" y2="322.27"/><line x1="323.09" y1="269.33" x2="323.09" y2="269.38"/><line x1="379.05" y1="351.59" x2="316.19" y2="295.94"/><line x1="162.66" y1="141.92" x2="130.89" y2="132.16"/><line x1="287.47" y1="264.82" x2="327.06" y2="264.74"/><line x1="169.13" y1="224.73" x2="165.46" y2="220.49"/><line x1="267.98" y1="298.85" x2="273.10" y2="298.07"/><line x1="322.56" y1="269.20" x2="327.11" y2="265.54"/><line x1="275.23" y1="248.39" x2="268.83" y2="238.90"/><line x1="163.16" y1="141.60" x2="163.35" y2="114.65"/><line x1="318.16" y1="253.32" x2="315.30" y2="252.01"/><line x1="163.16" y1="141.60" x2="141.74" y2="105.67"/><line x1="163.16" y1="141.60" x2="130.99" y2="112.30"/><line x1="382.44" y1="340.36" x2="381.42" y2="338.30"/><line x1="222.55" y1="265.30" x2="224.51" y2="267.81"/><line x1="193.22" y1="142.16" x2="179.74" y2="152.63"/><line x1="171.55" y1="322.27" x2="175.63" y2="321.32"/><line x1="198.90" y1="249.88" x2="196.48" y2="248.49"/><line x1="283.49" y1="296.73" x2="288.74" y2="296.17"/><line x1="267.36" y1="264.46" x2="377.35" y2="351.74"/><line x1="267.36" y1="264.46" x2="353.98" y2="344.19"/><line x1="256.77" y1="250.22" x2="256.83" y2="221.49"/><line x1="267.36" y1="264.46" x2="322.37" y2="256.41"/><line x1="161.82" y1="143.63" x2="161.76" y2="144.45"/><line x1="132.55" y1="109.70" x2="131.71" y2="110.92"/><line x1="267.36" y1="264.46" x2="296.68" y2="248.79"/><line x1="137.65" y1="150.62" x2="162.78" y2="148.51"/><line x1="291.76" y1="340.13" x2="296.54" y2="339.33"/><line x1="379.05" y1="351.59" x2="354.50" y2="305.06"/><line x1="137.65" y1="150.62" x2="173.08" y2="167.33"/><line x1="246.35" y1="266.10" x2="244.05" y2="251.99"/><line x1="379.05" y1="351.59" x2="333.14" y2="297.44"/><line x1="379.05" y1="351.59" x2="377.35" y2="351.74"/><line x1="175.01" y1="170.48" x2="190.26" y2="195.23"/><line x1="275.23" y1="248.39" x2="283.08" y2="248.39"/><line x1="188.90" y1="317.92" x2="220.32" y2="309.37"/><line x1="371.16" y1="322.09" x2="369.34" y2="319.65"/><line x1="227.12" y1="268.56" x2="228.81" y2="268.65"/><line x1="244.05" y1="251.99" x2="247.98" y2="251.32"/><line x1="169.01" y1="143.15" x2="179.03" y2="127.83"/><line x1="163.16" y1="141.60" x2="152.79" y2="108.43"/><line x1="163.16" y1="141.60" x2="135.80" y2="106.98"/><line x1="190.26" y1="195.23" x2="167.42" y2="209.85"/><line x1="186.02" y1="353.46" x2="191.09" y2="357.06"/><line x1="369.34" y1="319.65" x2="367.54" y2="317.36"/><line x1="163.16" y1="141.60" x2="129.44" y2="119.30"/><line x1="224.06" y1="260.09" x2="225.34" y2="258.87"/><line x1="364.00" y1="348.11" x2="360.63" y2="346.80"/><line x1="324.16" y1="269.30" x2="323.09" y2="269.33"/><line x1="242.61" y1="266.64" x2="234.08" y2="254.50"/><line x1="179.03" y1="127.83" x2="166.49" y2="141.80"/><line x1="129.37" y1="121.42" x2="129.54" y2="124.70"/><line x1="172.80" y1="228.70" x2="169.13" y2="224.73"/><line x1="360.63" y1="346.80" x2="357.21" y2="345.44"/><line x1="200.69" y1="150.33" x2="196.92" y2="146.16"/><line x1="267.36" y1="264.46" x2="369.75" y2="350.13"/><line x1="256.77" y1="250.22" x2="260.64" y2="264.71"/><line x1="267.36" y1="264.46" x2="325.90" y2="261.21"/><line x1="319.32" y1="254.02" x2="318.16" y2="253.32"/><line x1="129.54" y1="124.70" x2="162.66" y2="141.92"/><line x1="348.12" y1="342.00" x2="345.49" y2="341.06"/><line x1="267.36" y1="264.46" x2="318.16" y2="253.32"/><line x1="480.00" y1="32.02" x2="480.00" y2="64.50"/><line x1="358.38" y1="307.92" x2="356.46" y2="306.43"/><line x1="379.05" y1="351.59" x2="363.93" y2="313.19"/><line x1="262.89" y1="299.70" x2="267.98" y2="298.85"/><line x1="260.64" y1="264.71" x2="275.23" y2="248.39"/><line x1="379.05" y1="351.59" x2="346.18" y2="300.81"/><line x1="169.28" y1="119.19" x2="163.16" y2="141.60"/><line x1="379.05" y1="351.59" x2="319.96" y2="296.10"/><line x1="480.00" y1="479.91" x2="480.00" y2="447.42"/><line x1="202.14" y1="218.42" x2="203.69" y2="222.36"/><line x1="356.46" y1="306.43" x2="354.50" y2="305.06"/><line x1="223.60" y1="267.16" x2="222.55" y2="265.30"/><line x1="322.56" y1="269.20" x2="327.03" y2="266.56"/><line x1="163.16" y1="141.60" x2="166.26" y2="116.79"/><line x1="133.60" y1="140.80" x2="161.98" y2="142.93"/><line x1="163.16" y1="141.60" x2="143.76" y2="105.78"/><line x1="167.64" y1="323.13" x2="171.55" y2="322.27"/><line x1="222.55" y1="265.30" x2="222.94" y2="266.32"/><line x1="240.24" y1="227.02" x2="251.21" y2="213.59"/><line x1="290.24" y1="248.49" x2="283.08" y2="248.39"/><line x1="161.98" y1="142.93" x2="161.82" y2="143.63"/><line x1="447.51" y1="479.91" x2="480.00" y2="447.42"/><line x1="252.22" y1="250.72" x2="256.77" y2="250.22"/><line x1="283.49" y1="296.73" x2="291.76" y2="340.13"/><line x1="327.06" y1="264.74" x2="301.54" y2="265.69"/><line x1="251.21" y1="213.59" x2="245.86" y2="206.21"/><line x1="267.36" y1="264.46" x2="357.21" y2="345.44"/><line x1="256.77" y1="250.22" x2="262.70" y2="229.93"/><line x1="267.36" y1="264.46" x2="323.23" y2="257.31"/><line x1="379.05" y1="351.59" x2="383.75" y2="344.62"/><line x1="208.80" y1="240.97" x2="208.90" y2="243.09"/><line x1="308.11" y1="295.80" x2="287.47" y2="264.82"/><line x1="267.36" y1="264.46" x2="302.41" y2="249.29"/><line x1="341.34" y1="299.21" x2="338.73" y2="298.54"/><line x1="379.05" y1="351.59" x2="372.98" y2="324.65"/><line x1="326.78" y1="267.42" x2="326.37" y2="268.13"/><line x1="379.05" y1="351.59" x2="356.46" y2="306.43"/><line x1="315.13" y1="267.77" x2="311.95" y2="267.19"/><line x1="150.40" y1="107.44" x2="148.09" y2="106.66"/><line x1="379.05" y1="351.59" x2="336.00" y2="297.95"/><line x1="379.05" y1="351.59" x2="267.36" y2="264.46"/><line x1="188.90" y1="317.92" x2="186.02" y2="353.46"/><line x1="227.12" y1="268.56" x2="224.06" y2="260.09"/><line x1="189.53" y1="163.45" x2="184.37" y2="157.59"/><line x1="311.95" y1="267.19" x2="308.49" y2="266.60"/><line x1="162.33" y1="147.28" x2="162.78" y2="148.51"/><line x1="314.65" y1="337.36" x2="318.92" y2="337.18"/><line x1="240.24" y1="227.02" x2="221.60" y2="202.72"/><line x1="327.06" y1="264.74" x2="317.78" y2="268.26"/><line x1="318.92" y1="337.18" x2="323.09" y2="337.12"/><line x1="327.06" y1="264.74" x2="326.92" y2="263.91"/><line x1="267.36" y1="264.46" x2="326.34" y2="262.15"/><line x1="267.36" y1="264.46" x2="319.32" y2="254.02"/><line x1="379.05" y1="351.59" x2="381.42" y2="338.30"/><line x1="379.05" y1="351.59" x2="365.73" y2="315.20"/><line x1="175.63" y1="148.57" x2="172.06" y2="145.41"/><line x1="326.92" y1="263.91" x2="326.67" y2="263.05"/><line x1="379.05" y1="351.59" x2="348.40" y2="301.72"/><line x1="379.05" y1="351.59" x2="323.53" y2="296.34"/><line x1="480.00" y1="479.91" x2="447.51" y2="479.91"/><line x1="186.00" y1="134.66" x2="182.48" y2="131.16"/><line x1="252.83" y1="301.63" x2="266.83" y2="345.28"/><line x1="343.82" y1="299.97" x2="341.34" y2="299.21"/><line x1="250.03" y1="265.65" x2="253.64" y2="265.26"/><line x1="338.61" y1="338.86" x2="340.82" y2="339.50"/><line x1="152.79" y1="108.43" x2="150.40" y2="107.44"/><line x1="252.22" y1="250.72" x2="257.18" y2="264.95"/><line x1="223.15" y1="261.37" x2="227.12" y2="268.56"/><line x1="327.06" y1="264.74" x2="305.03" y2="266.10"/><line x1="175.67" y1="124.71" x2="172.42" y2="121.83"/><line x1="267.36" y1="264.46" x2="327.06" y2="264.74"/><line x1="256.77" y1="250.22" x2="268.83" y2="238.90"/><line x1="267.36" y1="264.46" x2="324.02" y2="258.25"/><line x1="167.42" y1="209.85" x2="165.46" y2="220.49"/><line x1="379.05" y1="351.59" x2="383.62" y2="346.51"/><line x1="379.05" y1="351.59" x2="374.80" y2="327.36"/><line x1="326.78" y1="267.42" x2="325.80" y2="268.67"/><line x1="164.51" y1="141.35" x2="163.78" y2="141.41"/><line x1="379.05" y1="351.59" x2="358.38" y2="307.92"/><line x1="204.52" y1="154.67" x2="189.53" y2="163.45"/><line x1="276.99" y1="343.02" x2="281.98" y2="341.99"/><line x1="323.53" y1="296.34" x2="319.96" y2="296.10"/><line x1="189.53" y1="163.45" x2="200.69" y2="150.33"/><line x1="130.89" y1="132.16" x2="132.07" y2="136.33"/><line x1="205.41" y1="251.50" x2="204.15" y2="251.67"/><line x1="273.10" y1="298.07" x2="278.27" y2="297.36"/><line x1="319.96" y1="296.10" x2="316.19" y2="295.94"/><line x1="229.00" y1="256.57" x2="231.37" y2="255.51"/><line x1="240.24" y1="227.02" x2="235.94" y2="193.04"/><line x1="137.11" y1="106.41" x2="135.80" y2="106.98"/><line x1="382.57" y1="349.42" x2="383.23" y2="348.11"/><line x1="174.25" y1="341.90" x2="179.89" y2="320.28"/><line x1="380.12" y1="335.92" x2="378.52" y2="333.22"/><line x1="204.11" y1="359.65" x2="206.94" y2="359.27"/><line x1="327.06" y1="264.74" x2="319.90" y2="268.66"/><line x1="288.74" y1="296.17" x2="336.31" y2="338.33"/><line x1="231.37" y1="255.51" x2="234.08" y2="254.50"/><line x1="189.57" y1="138.33" x2="175.63" y2="148.57"/><line x1="327.06" y1="264.74" x2="291.01" y2="264.91"/><line x1="267.36" y1="264.46" x2="326.67" y2="263.05"/><line x1="380.49" y1="351.16" x2="379.05" y2="351.59"/><line x1="168.25" y1="159.19" x2="169.70" y2="161.68"/><line x1="167.42" y1="209.85" x2="183.66" y2="239.02"/><line x1="378.52" y1="333.22" x2="376.62" y2="330.20"/><line x1="222.42" y1="264.09" x2="222.60" y2="262.71"/><line x1="379.05" y1="351.59" x2="382.44" y2="340.36"/><line x1="375.94" y1="351.64" x2="374.20" y2="351.34"/><line x1="235.94" y1="193.04" x2="204.52" y2="154.67"/><line x1="336.31" y1="338.33" x2="338.61" y2="338.86"/><line x1="379.05" y1="351.59" x2="367.54" y2="317.36"/><line x1="175.63" y1="148.57" x2="186.00" y2="134.66"/><line x1="161.76" y1="144.45" x2="161.83" y2="145.26"/><line x1="190.66" y1="244.52" x2="187.25" y2="241.94"/><line x1="220.32" y1="309.37" x2="252.83" y2="301.63"/><line x1="374.20" y1="351.34" x2="372.14" y2="350.83"/><line x1="162.02" y1="146.20" x2="162.33" y2="147.28"/><line x1="247.98" y1="251.32" x2="250.03" y2="265.65"/><line x1="324.02" y1="258.25" x2="323.23" y2="257.31"/><line x1="130.41" y1="113.82" x2="129.96" y2="115.49"/><line x1="367.54" y1="317.36" x2="365.73" y2="315.20"/><line x1="252.83" y1="301.63" x2="261.65" y2="346.51"/><line x1="184.37" y1="157.59" x2="179.74" y2="152.63"/><line x1="250.03" y1="265.65" x2="252.22" y2="250.72"/><line x1="206.47" y1="250.98" x2="205.41" y2="251.50"/><line x1="192.55" y1="199.05" x2="194.71" y2="202.89"/><line x1="365.73" y1="315.20" x2="363.93" y2="313.19"/><line x1="138.54" y1="106.00" x2="137.11" y2="106.41"/><line x1="288.74" y1="296.17" x2="323.09" y2="337.12"/><line x1="327.06" y1="264.74" x2="308.49" y2="266.60"/><line x1="288.74" y1="296.17" x2="345.49" y2="341.06"/><line x1="175.67" y1="124.71" x2="164.51" y2="141.35"/><line x1="167.42" y1="209.85" x2="208.80" y2="245.37"/><line x1="348.12" y1="342.00" x2="288.74" y2="296.17"/><line x1="167.42" y1="209.85" x2="198.90" y2="249.88"/><line x1="167.42" y1="209.85" x2="169.13" y2="224.73"/><line x1="165.46" y1="220.49" x2="161.76" y2="215.99"/><line x1="353.98" y1="344.19" x2="350.95" y2="343.04"/><line x1="166.97" y1="156.92" x2="168.25" y2="159.19"/><line x1="315.30" y1="252.01" x2="311.71" y2="250.90"/><line x1="130.04" y1="128.28" x2="130.89" y2="132.16"/><line x1="220.32" y1="309.37" x2="210.15" y2="358.73"/><line x1="276.99" y1="343.02" x2="273.10" y2="298.07"/><line x1="205.07" y1="226.16" x2="206.24" y2="229.68"/><line x1="130.99" y1="112.30" x2="130.41" y2="113.82"/><line x1="224.51" y1="267.81" x2="225.68" y2="268.28"/><line x1="327.11" y1="265.54" x2="327.06" y2="264.74"/><line x1="135.46" y1="145.56" x2="137.65" y2="150.62"/><line x1="382.57" y1="349.42" x2="381.66" y2="350.43"/><line x1="174.25" y1="341.90" x2="175.63" y2="321.32"/><line x1="288.74" y1="296.17" x2="301.21" y2="338.66"/><line x1="288.74" y1="296.17" x2="333.89" y2="337.89"/><line x1="167.42" y1="209.85" x2="207.20" y2="232.92"/><line x1="267.36" y1="264.46" x2="275.23" y2="248.39"/><line x1="167.42" y1="209.85" x2="206.47" y2="250.98"/><line x1="166.49" y1="141.80" x2="175.67" y2="124.71"/><line x1="167.42" y1="209.85" x2="187.25" y2="241.94"/><line x1="271.94" y1="344.12" x2="276.99" y2="343.02"/><line x1="220.32" y1="309.37" x2="195.61" y2="359.23"/><line x1="228.81" y1="268.65" x2="242.61" y2="266.64"/><line x1="220.32" y1="309.37" x2="256.41" y2="347.80"/><line x1="357.21" y1="345.44" x2="353.98" y2="344.19"/><line x1="184.37" y1="157.59" x2="193.22" y2="142.16"/><line x1="480.00" y1="64.50" x2="447.51" y2="32.02"/><line x1="288.74" y1="296.17" x2="318.92" y2="337.18"/><line x1="167.42" y1="209.85" x2="200.47" y2="214.51"/><line x1="288.74" y1="296.17" x2="343.05" y2="340.23"/><line x1="167.42" y1="209.85" x2="208.90" y2="243.09"/><line x1="167.42" y1="209.85" x2="200.98" y2="250.88"/><line x1="354.50" y1="305.06" x2="352.52" y2="303.83"/><line x1="167.42" y1="209.85" x2="172.80" y2="228.70"/><line x1="220.32" y1="309.37" x2="206.94" y2="359.27"/><line x1="172.06" y1="145.41" x2="169.01" y2="143.15"/><line x1="163.35" y1="114.65" x2="160.55" y2="112.74"/><line x1="135.46" y1="145.56" x2="161.76" y2="144.45"/><line x1="266.83" y1="345.28" x2="271.94" y2="344.12"/><line x1="338.73" y1="298.54" x2="336.00" y2="297.95"/><line x1="288.74" y1="296.17" x2="296.54" y2="339.33"/><line x1="167.42" y1="209.85" x2="206.24" y2="229.68"/><line x1="137.65" y1="150.62" x2="165.84" y2="154.87"/><line x1="167.42" y1="209.85" x2="207.35" y2="250.10"/><line x1="167.55" y1="333.95" x2="167.64" y2="323.13"/><line x1="208.80" y1="245.37" x2="208.51" y2="247.30"/><line x1="167.42" y1="209.85" x2="190.66" y2="244.52"/><line x1="257.84" y1="300.63" x2="262.89" y2="299.70"/><line x1="162.66" y1="141.92" x2="130.04" y2="128.28"/><line x1="308.49" y1="266.60" x2="305.03" y2="266.10"/><line x1="162.26" y1="142.37" x2="161.98" y2="142.93"/><line x1="145.88" y1="106.11" x2="143.76" y2="105.78"/><line x1="267.98" y1="298.85" x2="276.99" y2="343.02"/><line x1="275.23" y1="248.39" x2="264.04" y2="264.54"/><line x1="383.75" y1="344.62" x2="383.60" y2="343.52"/><line x1="220.32" y1="309.37" x2="191.09" y2="357.06"/><line x1="203.69" y1="222.36" x2="205.07" y2="226.16"/><line x1="163.78" y1="141.41" x2="163.16" y2="141.60"/><line x1="163.16" y1="141.60" x2="131.71" y2="110.92"/><line x1="163.35" y1="149.88" x2="164.05" y2="151.39"/><line x1="327.03" y1="266.56" x2="327.11" y2="265.54"/><line x1="163.89" y1="323.89" x2="167.64" y2="323.13"/><line x1="166.26" y1="116.79" x2="163.35" y2="114.65"/><line x1="323.09" y1="337.12" x2="325.96" y2="337.17"/><line x1="184.37" y1="157.59" x2="196.92" y2="146.16"/><line x1="171.55" y1="322.27" x2="174.25" y2="341.90"/><line x1="202.73" y1="251.47" x2="200.98" y2="250.88"/><line x1="225.68" y1="268.28" x2="227.12" y2="268.56"/><line x1="161.82" y1="143.63" x2="135.46" y2="145.56"/><line x1="326.67" y1="263.05" x2="326.34" y2="262.15"/><line x1="167.42" y1="209.85" x2="198.67" y2="210.62"/><line x1="137.65" y1="150.62" x2="162.33" y2="147.28"/><line x1="134.60" y1="107.72" x2="133.52" y2="108.62"/><line x1="291.76" y1="340.13" x2="288.74" y2="296.17"/><line x1="167.42" y1="209.85" x2="208.80" y2="240.97"/><line x1="137.65" y1="150.62" x2="171.31" y2="164.40"/><line x1="245.86" y1="206.21" x2="240.78" y2="199.36"/><line x1="210.15" y1="358.73" x2="213.74" y2="358.04"/><line x1="237.10" y1="253.59" x2="240.42" y2="252.75"/><line x1="208.90" y1="243.09" x2="208.80" y2="245.37"/><line x1="171.31" y1="164.40" x2="173.08" y2="167.33"/><line x1="148.09" y1="106.66" x2="145.88" y2="106.11"/><line x1="163.16" y1="141.60" x2="155.28" y2="109.64"/><line x1="340.82" y1="339.50" x2="343.05" y2="340.23"/><line x1="163.16" y1="141.60" x2="137.11" y2="106.41"/><line x1="172.06" y1="145.41" x2="182.48" y2="131.16"/><line x1="186.02" y1="353.46" x2="220.32" y2="309.37"/><line x1="163.16" y1="141.60" x2="129.63" y2="117.32"/><line x1="224.06" y1="260.09" x2="228.81" y2="268.65"/><line x1="32.16" y1="32.09" x2="32.16" y2="64.58"/><line x1="183.66" y1="239.02" x2="180.06" y2="235.84"/><line x1="242.61" y1="266.64" x2="231.37" y2="255.51"/><line x1="162.78" y1="148.51" x2="163.35" y2="149.88"/><line x1="129.63" y1="117.32" x2="129.44" y2="119.30"/><line x1="200.69" y1="150.33" x2="184.37" y2="157.59"/><line x1="267.36" y1="264.46" x2="372.14" y2="350.83"/><line x1="267.36" y1="264.46" x2="287.47" y2="264.82"/><line x1="266.83" y1="345.28" x2="257.84" y2="300.63"/><line x1="204.15" y1="251.67" x2="202.73" y2="251.47"/><line x1="172.42" y1="121.83" x2="169.28" y2="119.19"/><line x1="316.19" y1="295.94" x2="312.25" y2="295.84"/><line x1="137.65" y1="150.62" x2="164.87" y2="153.04"/><line x1="137.65" y1="150.62" x2="167.42" y2="209.85"/><line x1="135.80" y1="106.98" x2="134.60" y2="107.72"/><line x1="167.55" y1="333.95" x2="160.31" y2="324.56"/><line x1="206.94" y1="359.27" x2="210.15" y2="358.73"/><line x1="162.26" y1="142.37" x2="133.60" y2="140.80"/><line x1="281.98" y1="341.99" x2="286.90" y2="341.03"/><line x1="163.16" y1="141.60" x2="145.88" y2="106.11"/><line x1="163.16" y1="141.60" x2="132.55" y2="109.70"/><line x1="163.16" y1="141.60" x2="162.66" y2="141.92"/><line x1="324.16" y1="269.30" x2="325.06" y2="269.06"/><line x1="242.61" y1="266.64" x2="246.35" y2="266.10"/><line x1="376.62" y1="330.20" x2="374.80" y2="327.36"/><line x1="267.36" y1="264.46" x2="360.63" y2="346.80"/><line x1="225.68" y1="268.28" x2="223.15" y2="261.37"/><line x1="267.36" y1="264.46" x2="307.42" y2="250.00"/><line x1="137.65" y1="150.62" x2="162.02" y2="146.20"/><line x1="322.37" y1="256.41" x2="321.43" y2="255.57"/><line x1="137.65" y1="150.62" x2="169.70" y2="161.68"/><line x1="379.05" y1="351.59" x2="338.73" y2="298.54"/><line x1="379.05" y1="351.59" x2="308.11" y2="295.80"/><line x1="383.62" y1="346.51" x2="383.75" y2="344.62"/><line x1="287.47" y1="264.82" x2="291.01" y2="264.91"/><line x1="322.56" y1="269.20" x2="321.49" y2="268.97"/><line x1="32.00" y1="479.98" x2="64.49" y2="479.98"/><line x1="163.16" y1="141.60" x2="157.86" y2="111.07"/><line x1="163.16" y1="141.60" x2="138.54" y2="106.00"/><line x1="163.16" y1="141.60" x2="129.96" y2="115.49"/><line x1="242.61" y1="266.64" x2="229.00" y2="256.57"/><line x1="267.36" y1="264.46" x2="374.20" y2="351.34"/><line x1="267.36" y1="264.46" x2="348.12" y2="342.00"/><line x1="267.36" y1="264.46" x2="320.42" y2="254.77"/><line x1="267.36" y1="264.46" x2="283.08" y2="248.39"/><line x1="234.08" y1="254.50" x2="237.10" y2="253.59"/><line x1="137.65" y1="150.62" x2="164.05" y2="151.39"/><line x1="379.05" y1="351.59" x2="350.50" y2="302.72"/><line x1="167.55" y1="333.95" x2="163.89" y2="323.89"/><line x1="246.35" y1="266.10" x2="250.03" y2="265.65"/><line x1="169.70" y1="161.68" x2="171.31" y2="164.40"/><line x1="379.05" y1="351.59" x2="326.92" y2="296.64"/><line x1="186.00" y1="134.66" x2="172.06" y2="145.41"/><line x1="281.98" y1="341.99" x2="278.27" y2="297.36"/><line x1="163.16" y1="141.60" x2="148.09" y2="106.66"/><line x1="187.25" y1="241.94" x2="183.66" y2="239.02"/><line x1="372.14" y1="350.83" x2="369.75" y2="350.13"/><line x1="163.16" y1="141.60" x2="133.52" y2="108.62"/><line x1="207.20" y1="232.92" x2="207.94" y2="235.88"/><line x1="323.23" y1="257.31" x2="322.37" y2="256.41"/><line x1="129.96" y1="115.49" x2="129.63" y2="117.32"/><line x1="324.16" y1="269.30" x2="326.78" y2="267.42"/><line x1="242.61" y1="266.64" x2="240.42" y2="252.75"/><line x1="261.65" y1="346.51" x2="266.83" y2="345.28"/><line x1="252.22" y1="250.72" x2="253.64" y2="265.26"/><line x1="179.89" y1="320.28" x2="184.31" y2="319.15"/><line x1="267.36" y1="264.46" x2="364.00" y2="348.11"/><line x1="194.71" y1="202.89" x2="196.76" y2="206.74"/><line x1="267.36" y1="264.46" x2="324.74" y2="259.25"/><line x1="363.93" y1="313.19" x2="362.11" y2="311.30"/><line x1="267.36" y1="264.46" x2="311.71" y2="250.90"/><line x1="379.05" y1="351.59" x2="376.62" y2="330.20"/><line x1="137.65" y1="150.62" x2="161.83" y2="145.26"/><line x1="326.78" y1="267.42" x2="325.06" y2="269.06"/><line x1="164.51" y1="141.35" x2="172.42" y2="121.83"/><line x1="379.05" y1="351.59" x2="360.26" y2="309.54"/><line x1="379.05" y1="351.59" x2="341.34" y2="299.21"/><line x1="379.05" y1="351.59" x2="312.25" y2="295.84"/><line x1="350.95" y1="343.04" x2="348.12" y2="342.00"/><line x1="325.06" y1="269.06" x2="325.80" y2="268.67"/><line x1="208.02" y1="248.87" x2="207.35" y2="250.10"/><line x1="311.71" y1="250.90" x2="307.42" y2="250.00"/><line x1="223.60" y1="267.16" x2="224.51" y2="267.81"/><line x1="130.89" y1="132.16" x2="162.26" y2="142.37"/><line x1="322.56" y1="269.20" x2="327.06" y2="264.74"/><line x1="32.00" y1="479.98" x2="32.00" y2="447.50"/><line x1="163.16" y1="141.60" x2="160.55" y2="112.74"/><line x1="133.60" y1="140.80" x2="135.46" y2="145.56"/><line x1="141.74" y1="105.67" x2="140.09" y2="105.75"/><line x1="273.10" y1="298.07" x2="281.98" y2="341.99"/><line x1="268.83" y1="238.90" x2="262.70" y2="229.93"/><line x1="307.42" y1="250.00" x2="302.41" y2="249.29"/><line x1="222.55" y1="265.30" x2="222.42" y2="264.09"/><line x1="240.24" y1="227.02" x2="240.78" y2="199.36"/><line x1="206.24" y1="229.68" x2="207.20" y2="232.92"/><line x1="193.22" y1="142.16" x2="189.57" y2="138.33"/><line x1="350.50" y1="302.72" x2="348.40" y2="301.72"/><line x1="164.87" y1="153.04" x2="165.84" y2="154.87"/><line x1="327.06" y1="264.74" x2="321.49" y2="268.97"/><line x1="160.55" y1="112.74" x2="157.86" y2="111.07"/><line x1="327.06" y1="264.74" x2="294.54" y2="265.08"/><line x1="267.36" y1="264.46" x2="375.94" y2="351.64"/><line x1="267.36" y1="264.46" x2="326.92" y2="263.91"/><line x1="380.49" y1="351.16" x2="383.23" y2="348.11"/><line x1="256.77" y1="250.22" x2="240.24" y2="227.02"/><line x1="175.63" y1="321.32" x2="179.89" y2="320.28"/><line x1="267.36" y1="264.46" x2="321.43" y2="255.57"/><line x1="222.42" y1="264.09" x2="225.68" y2="268.28"/><line x1="379.05" y1="351.59" x2="383.17" y2="342.10"/><line x1="267.36" y1="264.46" x2="290.24" y2="248.49"/><line x1="235.94" y1="193.04" x2="202.51" y2="178.88"/><line x1="321.49" y1="268.97" x2="319.90" y2="268.66"/><line x1="379.05" y1="351.59" x2="369.34" y2="319.65"/><line x1="326.78" y1="267.42" x2="327.03" y2="266.56"/><line x1="161.76" y1="144.45" x2="137.65" y2="150.62"/><line x1="379.05" y1="351.59" x2="352.52" y2="303.83"/><line x1="246.35" y1="266.10" x2="247.98" y2="251.32"/><line x1="379.05" y1="351.59" x2="330.12" y2="297.01"/><line x1="296.54" y1="339.33" x2="301.21" y2="338.66"/><line x1="208.51" y1="247.30" x2="208.02" y2="248.87"/><line x1="169.01" y1="143.15" x2="166.49" y2="141.80"/><line x1="225.34" y1="258.87" x2="226.99" y2="257.70"/><line x1="301.21" y1="338.66" x2="305.79" y2="338.10"/><line x1="305.03" y1="266.10" x2="301.54" y2="265.69"/><line x1="301.54" y1="265.69" x2="298.05" y2="265.34"/><line x1="327.06" y1="264.74" x2="311.95" y2="267.19"/><line x1="256.77" y1="250.22" x2="275.23" y2="248.39"/><line x1="267.36" y1="264.46" x2="325.37" y2="260.24"/><line x1="195.61" y1="359.23" x2="199.59" y2="359.96"/><line x1="267.36" y1="264.46" x2="315.30" y2="252.01"/><line x1="379.05" y1="351.59" x2="378.52" y2="333.22"/><line x1="379.05" y1="351.59" x2="362.11" y2="311.30"/><line x1="379.05" y1="351.59" x2="343.82" y2="299.97"/><line x1="169.28" y1="119.19" x2="166.26" y2="116.79"/><line x1="352.52" y1="303.83" x2="350.50" y2="302.72"/><line x1="240.42" y1="252.75" x2="244.05" y2="251.99"/><line x1="328.72" y1="337.31" x2="331.35" y2="337.56"/><line x1="223.60" y1="267.16" x2="222.94" y2="266.32"/><line x1="133.60" y1="140.80" x2="161.82" y2="143.63"/><line x1="224.51" y1="267.81" x2="222.42" y2="264.09"/><line x1="182.48" y1="131.16" x2="179.03" y2="127.83"/><line x1="240.24" y1="227.02" x2="245.86" y2="206.21"/><line x1="382.57" y1="349.42" x2="380.49" y2="351.16"/><line x1="240.78" y1="199.36" x2="235.94" y2="193.04"/><line x1="288.74" y1="296.17" x2="331.35" y2="337.56"/><line x1="327.06" y1="264.74" x2="298.05" y2="265.34"/><line x1="380.49" y1="351.16" x2="381.66" y2="350.43"/><line x1="336.00" y1="297.95" x2="333.14" y2="297.44"/><line x1="257.18" y1="264.95" x2="260.64" y2="264.71"/><line x1="379.05" y1="351.59" x2="383.60" y2="343.52"/><line x1="235.94" y1="193.04" x2="221.60" y2="202.72"/><line x1="379.05" y1="351.59" x2="371.16" y2="322.09"/><line x1="326.78" y1="267.42" x2="322.56" y2="269.20"/><line x1="271.94" y1="344.12" x2="267.98" y2="298.85"/><line x1="333.14" y1="297.44" x2="330.12" y2="297.01"/><line x1="228.81" y1="268.65" x2="225.34" y2="258.87"/><line x1="220.32" y1="309.37" x2="222.06" y2="356.21"/><line x1="143.76" y1="105.78" x2="141.74" y2="105.67"/><line x1="383.60" y1="343.52" x2="383.17" y2="342.10"/><line x1="191.09" y1="357.06" x2="195.61" y2="359.23"/><line x1="225.34" y1="258.87" x2="242.61" y2="266.64"/><line x1="164.05" y1="151.39" x2="164.87" y2="153.04"/><line x1="383.17" y1="342.10" x2="382.44" y2="340.36"/><line x1="312.25" y1="295.84" x2="308.11" y2="295.80"/><line x1="174.25" y1="341.90" x2="180.41" y2="348.40"/><line x1="325.96" y1="337.17" x2="328.72" y2="337.31"/><line x1="288.74" y1="296.17" x2="314.65" y2="337.36"/><line x1="196.92" y1="146.16" x2="193.22" y2="142.16"/><line x1="327.06" y1="264.74" x2="315.13" y2="267.77"/><line x1="288.74" y1="296.17" x2="340.82" y2="339.50"/><line x1="167.42" y1="209.85" x2="202.73" y2="251.47"/><line x1="200.98" y1="250.88" x2="198.90" y2="249.88"/><line x1="286.90" y1="341.03" x2="291.76" y2="340.13"/><line x1="308.11" y1="295.80" x2="267.36" y2="264.46"/><line x1="167.42" y1="209.85" x2="176.43" y2="232.40"/><line x1="326.34" y1="262.15" x2="325.90" y2="261.21"/><line x1="379.05" y1="351.59" x2="380.12" y2="335.92"/><line x1="133.52" y1="108.62" x2="132.55" y2="109.70"/><line x1="374.80" y1="327.36" x2="372.98" y2="324.65"/><line x1="213.74" y1="358.04" x2="217.71" y2="357.20"/><line x1="220.32" y1="309.37" x2="204.11" y2="359.65"/><line x1="240.42" y1="252.75" x2="246.35" y2="266.10"/><line x1="325.90" y1="261.21" x2="325.37" y2="260.24"/><line x1="173.08" y1="167.33" x2="175.01" y2="170.48"/><line x1="372.98" y1="324.65" x2="371.16" y2="322.09"/><line x1="217.71" y1="357.20" x2="222.06" y2="356.21"/><line x1="343.05" y1="340.23" x2="345.49" y2="341.06"/><line x1="182.48" y1="131.16" x2="169.01" y2="143.15"/><line x1="252.83" y1="301.63" x2="257.84" y2="300.63"/><line x1="180.06" y1="235.84" x2="176.43" y2="232.40"/><line x1="367.04" y1="349.22" x2="364.00" y2="348.11"/><line x1="321.43" y1="255.57" x2="320.42" y2="254.77"/><line x1="288.74" y1="296.17" x2="328.72" y2="337.31"/><line x1="129.44" y1="119.30" x2="129.37" y2="121.42"/><line x1="167.42" y1="209.85" x2="205.07" y2="226.16"/><line x1="223.15" y1="261.37" x2="224.06" y2="260.09"/><line x1="64.64" y1="32.09" x2="32.16" y2="64.58"/><line x1="167.42" y1="209.85" x2="208.02" y2="248.87"/><line x1="176.43" y1="232.40" x2="172.80" y2="228.70"/><line x1="167.42" y1="209.85" x2="193.74" y2="246.70"/><line x1="257.84" y1="300.63" x2="271.94" y2="344.12"/><line x1="257.18" y1="264.95" x2="256.77" y2="250.22"/><line x1="167.42" y1="209.85" x2="161.76" y2="215.99"/><line x1="320.42" y1="254.77" x2="319.32" y2="254.02"/><line x1="198.67" y1="210.62" x2="200.47" y2="214.51"/><line x1="204.52" y1="154.67" x2="200.69" y2="150.33"/><line x1="271.94" y1="344.12" x2="262.89" y2="299.70"/><line x1="325.80" y1="268.67" x2="326.37" y2="268.13"/><line x1="220.32" y1="309.37" x2="217.71" y2="357.20"/><line x1="163.78" y1="141.41" x2="169.28" y2="119.19"/><line x1="200.47" y1="214.51" x2="202.14" y2="218.42"/><line x1="163.89" y1="323.89" x2="160.31" y2="324.56"/><line x1="278.27" y1="297.36" x2="283.49" y2="296.73"/><line x1="256.83" y1="221.49" x2="251.21" y2="213.59"/><line x1="302.41" y1="249.29" x2="296.68" y2="248.79"/><line x1="174.25" y1="341.90" x2="184.31" y2="319.15"/><line x1="296.68" y1="248.79" x2="290.24" y2="248.49"/><line x1="288.74" y1="296.17" x2="310.27" y2="337.67"/><line x1="167.42" y1="209.85" x2="196.76" y2="206.74"/><line x1="288.74" y1="296.17" x2="338.61" y2="338.86"/><line x1="167.42" y1="209.85" x2="208.48" y2="238.56"/><line x1="189.57" y1="138.33" x2="186.00" y2="134.66"/><line x1="184.31" y1="319.15" x2="188.90" y2="317.92"/><line x1="167.42" y1="209.85" x2="204.15" y2="251.67"/><line x1="286.90" y1="341.03" x2="283.49" y2="296.73"/><line x1="167.42" y1="209.85" x2="180.06" y2="235.84"/><line x1="383.23" y1="348.11" x2="383.62" y2="346.51"/><line x1="208.48" y1="238.56" x2="208.80" y2="240.97"/><line x1="180.41" y1="348.40" x2="186.02" y2="353.46"/><line x1="369.75" y1="350.13" x2="367.04" y2="349.22"/><line x1="202.51" y1="178.88" x2="189.53" y2="163.45"/><line x1="220.32" y1="309.37" x2="201.66" y2="359.87"/><line x1="317.78" y1="268.26" x2="315.13" y2="267.77"/><line x1="247.98" y1="251.32" x2="252.22" y2="250.72"/><line x1="32.16" y1="32.09" x2="64.64" y2="32.09"/><line x1="253.64" y1="265.26" x2="257.18" y2="264.95"/><line x1="196.76" y1="206.74" x2="198.67" y2="210.62"/><line x1="362.11" y1="311.30" x2="360.26" y2="309.54"/><line x1="267.36" y1="264.46" x2="288.74" y2="296.17"/><line x1="172.42" y1="121.83" x2="163.78" y2="141.41"/><line x1="288.74" y1="296.17" x2="325.96" y2="337.17"/><line x1="167.42" y1="209.85" x2="203.69" y2="222.36"/><line x1="167.42" y1="209.85" x2="208.51" y2="247.30"/><line x1="137.65" y1="150.62" x2="190.26" y2="195.23"/><line x1="360.26" y1="309.54" x2="358.38" y2="307.92"/><line x1="167.42" y1="209.85" x2="196.48" y2="248.49"/><line x1="179.74" y1="152.63" x2="175.63" y2="148.57"/><line x1="162.26" y1="142.37" x2="132.07" y2="136.33"/><line x1="32.00" y1="447.50" x2="64.49" y2="479.98"/></g></svg>