<svg xmlns="http://www.w3.org/2000/svg" width="512" height="512"><rect width="512" height="512" fill="#0a0f1a"/><text x="12" y="20" font-family="monospace" font-size="11" fill="#4a7fa5">FRONT (XZ)</text><g stroke="#00d4ff" stroke-width="0.6" opacity="0.85"><line x1="172.43" y1="132.04" x2="167.67" y2="166.11"/><line x1="189.83" y1="170.09" x2="204.90" y2="154.50"/><line x1="301.82" y1="110.56" x2="304.78" y2="111.39"/><line x1="211.76" y1="160.32" x2="218.75" y2="166.60"/><line x1="336.65" y1="171.12" x2="355.55" y2="141.28"/><line x1="142.81" y1="152.16" x2="160.86" y2="126.25"/><line x1="341.39" y1="363.54" x2="328.26" y2="362.07"/><line x1="304.78" y1="111.39" x2="279.18" y2="129.84"/><line x1="368.19" y1="203.91" x2="384.10" y2="197.12"/><line x1="290.92" y1="201.82" x2="291.19" y2="207.90"/><line x1="160.86" y1="126.25" x2="145.40" y2="154.25"/><line x1="218.75" y1="166.60" x2="210.33" y2="184.59"/><line x1="166.45" y1="128.91" x2="172.43" y2="132.04"/><line x1="384.10" y1="197.12" x2="366.64" y2="202.35"/><line x1="283.32" y1="236.95" x2="292.68" y2="225.18"/><line x1="349.79" y1="137.09" x2="325.49" y2="161.67"/><line x1="338.18" y1="365.55" x2="332.55" y2="365.77"/><line x1="349.79" y1="137.09" x2="307.40" y2="149.77"/><line x1="293.56" y1="284.54" x2="301.97" y2="300.97"/><line x1="210.33" y1="184.59" x2="215.09" y2="188.56"/><line x1="319.74" y1="118.02" x2="324.21" y2="120.48"/><line x1="323.21" y1="159.92" x2="320.98" y2="158.26"/><line x1="309.81" y1="270.45" x2="355.02" y2="270.45"/><line x1="127.84" y1="128.45" x2="129.59" y2="124.51"/><line x1="299.46" y1="254.49" x2="289.48" y2="276.56"/><line x1="172.43" y1="132.04" x2="156.64" y2="161.66"/><line x1="316.73" y1="336.61" x2="347.99" y2="325.67"/><line x1="332.55" y1="365.77" x2="333.73" y2="366.11"/><line x1="172.43" y1="132.04" x2="173.31" y2="165.76"/><line x1="324.21" y1="120.48" x2="275.65" y2="154.76"/><line x1="318.74" y1="341.58" x2="351.04" y2="333.69"/><line x1="275.65" y1="154.76" x2="297.00" y2="151.72"/><line x1="293.39" y1="230.62" x2="294.17" y2="235.70"/><line x1="156.64" y1="161.66" x2="159.28" y2="163.05"/><line x1="241.02" y1="188.12" x2="232.10" y2="204.21"/><line x1="333.73" y1="366.11" x2="334.96" y2="366.22"/><line x1="360.88" y1="196.32" x2="385.30" y2="185.20"/><line x1="351.04" y1="333.69" x2="351.43" y2="335.89"/><line x1="232.10" y1="204.21" x2="235.79" y2="207.96"/><line x1="349.79" y1="137.09" x2="355.55" y2="141.28"/><line x1="308.95" y1="150.55" x2="307.40" y2="149.77"/><line x1="133.40" y1="121.58" x2="134.47" y2="121.09"/><line x1="351.43" y1="335.89" x2="351.66" y2="338.16"/><line x1="378.76" y1="209.34" x2="376.77" y2="210.00"/><line x1="299.46" y1="254.49" x2="286.84" y2="271.59"/><line x1="170.60" y1="166.18" x2="171.96" y2="166.02"/><line x1="172.43" y1="132.04" x2="165.89" y2="165.72"/><line x1="178.68" y1="135.65" x2="185.05" y2="139.69"/><line x1="383.63" y1="169.99" x2="382.66" y2="167.48"/><line x1="286.84" y1="271.59" x2="287.45" y2="272.69"/><line x1="127.92" y1="131.69" x2="128.41" y2="133.85"/><line x1="322.25" y1="349.98" x2="350.71" y2="348.29"/><line x1="380.55" y1="207.39" x2="373.46" y2="208.60"/><line x1="178.74" y1="163.66" x2="191.55" y2="144.18"/><line x1="350.71" y1="348.29" x2="349.91" y2="350.79"/><line x1="480.00" y1="32.02" x2="447.51" y2="32.02"/><line x1="294.73" y1="155.89" x2="292.97" y2="161.71"/><line x1="296.83" y1="109.90" x2="282.27" y2="121.11"/><line x1="293.56" y1="284.54" x2="241.96" y2="284.54"/><line x1="378.76" y1="209.34" x2="379.68" y2="208.53"/><line x1="365.41" y1="148.96" x2="360.76" y2="145.26"/><line x1="275.87" y1="186.12" x2="276.70" y2="194.81"/><line x1="320.57" y1="346.04" x2="351.28" y2="345.74"/><line x1="150.88" y1="122.39" x2="155.67" y2="124.08"/><line x1="309.81" y1="270.45" x2="346.81" y2="254.49"/><line x1="299.46" y1="254.49" x2="289.03" y2="275.67"/><line x1="344.58" y1="360.20" x2="342.99" y2="362.04"/><line x1="172.43" y1="132.04" x2="171.96" y2="166.02"/><line x1="370.74" y1="206.37" x2="369.56" y2="205.25"/><line x1="290.70" y1="189.18" x2="290.75" y2="195.58"/><line x1="250.11" y1="300.97" x2="301.97" y2="300.97"/><line x1="127.92" y1="131.69" x2="133.40" y2="121.58"/><line x1="275.65" y1="154.76" x2="299.77" y2="149.22"/><line x1="195.17" y1="173.51" x2="200.36" y2="177.06"/><line x1="382.89" y1="202.03" x2="383.54" y2="199.66"/><line x1="298.51" y1="252.75" x2="299.46" y2="254.49"/><line x1="339.79" y1="364.72" x2="338.18" y2="365.55"/><line x1="169.24" y1="166.23" x2="170.60" y2="166.18"/><line x1="384.38" y1="172.67" x2="383.63" y2="169.99"/><line x1="279.35" y1="214.41" x2="281.16" y2="225.31"/><line x1="148.11" y1="156.26" x2="150.90" y2="158.18"/><line x1="329.27" y1="363.34" x2="330.32" y2="364.38"/><line x1="311.64" y1="114.04" x2="315.53" y2="115.86"/><line x1="268.69" y1="218.27" x2="276.39" y2="227.75"/><line x1="384.55" y1="194.40" x2="384.90" y2="191.51"/><line x1="127.77" y1="129.57" x2="132.35" y2="122.17"/><line x1="299.77" y1="149.22" x2="297.00" y2="151.72"/><line x1="291.58" y1="213.82" x2="292.07" y2="219.58"/><line x1="138.91" y1="120.22" x2="129.21" y2="136.06"/><line x1="230.27" y1="177.50" x2="224.04" y2="196.51"/><line x1="172.43" y1="132.04" x2="163.90" y2="165.09"/><line x1="276.39" y1="227.75" x2="283.32" y2="236.95"/><line x1="364.90" y1="200.56" x2="362.99" y2="198.55"/><line x1="374.95" y1="209.49" x2="380.55" y2="207.39"/><line x1="297.00" y1="151.72" x2="294.73" y2="155.89"/><line x1="348.99" y1="327.55" x2="349.83" y2="329.52"/><line x1="129.21" y1="136.06" x2="130.33" y2="138.31"/><line x1="127.92" y1="131.69" x2="137.77" y2="120.28"/><line x1="177.38" y1="164.34" x2="178.74" y2="163.66"/><line x1="380.55" y1="207.39" x2="374.23" y2="209.10"/><line x1="372.99" y1="155.46" x2="369.49" y2="152.36"/><line x1="342.44" y1="176.81" x2="369.49" y2="152.36"/><line x1="289.88" y1="277.40" x2="309.81" y2="270.45"/><line x1="251.01" y1="198.44" x2="260.23" y2="208.50"/><line x1="178.74" y1="163.66" x2="185.05" y2="139.69"/><line x1="286.24" y1="114.88" x2="296.83" y2="109.90"/><line x1="369.49" y1="152.36" x2="365.41" y2="148.96"/><line x1="480.00" y1="32.02" x2="480.00" y2="64.50"/><line x1="135.62" y1="145.34" x2="150.88" y2="122.39"/><line x1="346.17" y1="358.02" x2="344.58" y2="360.20"/><line x1="296.83" y1="109.90" x2="291.10" y2="111.14"/><line x1="371.75" y1="207.26" x2="370.74" y2="206.37"/><line x1="480.00" y1="479.91" x2="480.00" y2="447.42"/><line x1="275.87" y1="186.12" x2="290.70" y2="189.18"/><line x1="320.57" y1="346.04" x2="351.62" y2="343.15"/><line x1="150.88" y1="122.39" x2="137.92" y2="147.70"/><line x1="204.90" y1="154.50" x2="195.17" y2="173.51"/><line x1="370.74" y1="206.37" x2="382.89" y2="202.03"/><line x1="355.55" y1="141.28" x2="334.55" y2="169.22"/><line x1="250.11" y1="300.97" x2="241.96" y2="284.54"/><line x1="275.57" y1="254.49" x2="286.20" y2="270.45"/><line x1="195.17" y1="173.51" x2="211.76" y2="160.32"/><line x1="279.18" y1="129.84" x2="308.05" y2="112.55"/><line x1="342.44" y1="176.81" x2="381.48" y2="165.15"/><line x1="334.55" y1="169.22" x2="332.39" y2="167.32"/><line x1="447.51" y1="479.91" x2="480.00" y2="447.42"/><line x1="323.76" y1="353.40" x2="325.11" y2="356.31"/><line x1="339.79" y1="364.72" x2="329.27" y2="363.34"/><line x1="308.05" y1="112.55" x2="311.64" y2="114.04"/><line x1="275.21" y1="170.95" x2="275.37" y2="178.17"/><line x1="129.59" y1="124.51" x2="130.38" y2="123.67"/><line x1="279.35" y1="214.41" x2="291.58" y2="213.82"/><line x1="148.11" y1="156.26" x2="166.45" y2="128.91"/><line x1="384.55" y1="194.40" x2="364.90" y2="200.56"/><line x1="127.77" y1="129.57" x2="131.33" y2="122.88"/><line x1="347.99" y1="325.67" x2="348.99" y2="327.55"/><line x1="230.27" y1="177.50" x2="219.68" y2="192.57"/><line x1="360.76" y1="145.26" x2="355.55" y2="141.28"/><line x1="318.80" y1="156.71" x2="316.67" y2="155.26"/><line x1="334.96" y1="366.22" x2="336.58" y2="366.06"/><line x1="342.44" y1="176.81" x2="385.24" y2="178.57"/><line x1="342.44" y1="176.81" x2="372.99" y2="155.46"/><line x1="351.66" y1="338.16" x2="351.73" y2="340.52"/><line x1="251.01" y1="198.44" x2="242.50" y2="215.28"/><line x1="331.86" y1="300.97" x2="316.73" y2="336.61"/><line x1="480.00" y1="479.91" x2="447.51" y2="479.91"/><line x1="349.91" y1="350.79" x2="348.90" y2="353.25"/><line x1="145.40" y1="154.25" x2="148.11" y2="156.26"/><line x1="275.57" y1="254.49" x2="226.97" y2="254.49"/><line x1="320.01" y1="284.54" x2="362.16" y2="284.54"/><line x1="366.64" y1="202.35" x2="384.55" y2="194.40"/><line x1="342.44" y1="176.81" x2="382.66" y2="167.48"/><line x1="292.97" y1="161.71" x2="291.71" y2="169.20"/><line x1="142.50" y1="120.46" x2="146.49" y2="121.19"/><line x1="323.76" y1="353.40" x2="347.65" y2="355.66"/><line x1="235.19" y1="270.45" x2="286.20" y2="270.45"/><line x1="215.09" y1="188.56" x2="230.27" y2="177.50"/><line x1="373.46" y1="208.60" x2="372.63" y2="207.99"/><line x1="275.21" y1="170.95" x2="290.95" y2="178.36"/><line x1="129.59" y1="124.51" x2="127.77" y2="129.57"/><line x1="191.55" y1="144.18" x2="198.16" y2="149.12"/><line x1="381.38" y1="205.93" x2="382.15" y2="204.14"/><line x1="275.65" y1="154.76" x2="328.89" y2="123.23"/><line x1="340.58" y1="174.91" x2="338.66" y2="173.01"/><line x1="155.67" y1="124.08" x2="160.86" y2="126.25"/><line x1="326.29" y1="358.70" x2="327.31" y2="360.57"/><line x1="184.36" y1="166.81" x2="189.83" y2="170.09"/><line x1="159.28" y1="163.05" x2="161.69" y2="164.20"/><line x1="282.27" y1="121.11" x2="301.82" y2="110.56"/><line x1="328.89" y1="123.23" x2="333.80" y2="126.27"/><line x1="360.76" y1="145.26" x2="336.65" y2="171.12"/><line x1="276.70" y1="194.81" x2="277.86" y2="204.23"/><line x1="294.98" y1="240.22" x2="295.82" y2="244.19"/><line x1="342.99" y1="362.04" x2="341.39" y2="363.54"/><line x1="161.69" y1="164.20" x2="163.90" y2="165.09"/><line x1="235.79" y1="207.96" x2="251.01" y2="198.44"/><line x1="342.44" y1="176.81" x2="385.35" y2="181.77"/><line x1="128.05" y1="127.38" x2="127.84" y2="128.45"/><line x1="290.75" y1="195.58" x2="290.92" y2="201.82"/><line x1="134.47" y1="121.09" x2="135.55" y2="120.71"/><line x1="351.66" y1="338.16" x2="320.57" y2="346.04"/><line x1="276.97" y1="141.05" x2="324.21" y2="120.48"/><line x1="251.01" y1="198.44" x2="239.26" y2="211.65"/><line x1="383.54" y1="199.66" x2="384.10" y2="197.12"/><line x1="376.77" y1="210.00" x2="377.79" y2="209.83"/><line x1="128.93" y1="125.41" x2="129.59" y2="124.51"/><line x1="306.04" y1="149.17" x2="304.86" y2="148.74"/><line x1="331.86" y1="300.97" x2="370.36" y2="300.97"/><line x1="135.55" y1="120.71" x2="136.65" y2="120.44"/><line x1="205.41" y1="180.76" x2="210.33" y2="184.59"/><line x1="171.96" y1="166.02" x2="173.31" y2="165.76"/><line x1="275.65" y1="154.76" x2="349.79" y2="137.09"/><line x1="287.45" y1="272.69" x2="288.01" y2="273.72"/><line x1="173.31" y1="165.76" x2="174.66" y2="165.39"/><line x1="320.98" y1="158.26" x2="318.80" y2="156.71"/><line x1="283.32" y1="236.95" x2="275.57" y2="254.49"/><line x1="381.48" y1="165.15" x2="380.08" y2="162.99"/><line x1="130.33" y1="138.31" x2="142.50" y2="120.46"/><line x1="349.91" y1="350.79" x2="323.76" y2="353.40"/><line x1="275.57" y1="254.49" x2="235.19" y2="270.45"/><line x1="294.17" y1="235.70" x2="294.98" y2="240.22"/><line x1="320.01" y1="284.54" x2="331.86" y2="300.97"/><line x1="292.97" y1="161.71" x2="275.21" y2="170.95"/><line x1="142.50" y1="120.46" x2="131.77" y2="140.61"/><line x1="385.30" y1="185.20" x2="342.44" y2="176.81"/><line x1="283.32" y1="236.95" x2="295.82" y2="244.19"/><line x1="349.79" y1="137.09" x2="316.67" y2="155.26"/><line x1="373.46" y1="208.60" x2="381.38" y2="205.93"/><line x1="349.79" y1="137.09" x2="303.05" y2="148.39"/><line x1="137.92" y1="147.70" x2="140.31" y2="149.97"/><line x1="346.81" y1="254.49" x2="355.02" y2="270.45"/><line x1="242.50" y1="215.28" x2="276.39" y2="227.75"/><line x1="191.55" y1="144.18" x2="184.36" y2="166.81"/><line x1="307.40" y1="149.77" x2="306.04" y2="149.17"/><line x1="340.58" y1="174.91" x2="360.76" y2="145.26"/><line x1="155.67" y1="124.08" x2="142.81" y2="152.16"/><line x1="211.76" y1="160.32" x2="205.41" y2="180.76"/><line x1="326.29" y1="358.70" x2="342.99" y2="362.04"/><line x1="282.27" y1="121.11" x2="299.17" y2="110.06"/><line x1="369.56" y1="205.25" x2="368.19" y2="203.91"/><line x1="276.70" y1="194.81" x2="290.75" y2="195.58"/><line x1="382.66" y1="167.48" x2="381.48" y2="165.15"/><line x1="128.05" y1="127.38" x2="128.42" y2="126.37"/><line x1="166.45" y1="128.91" x2="153.80" y2="160.00"/><line x1="301.97" y1="300.97" x2="331.86" y2="300.97"/><line x1="338.18" y1="365.55" x2="331.41" y2="365.18"/><line x1="349.79" y1="137.09" x2="327.83" y2="163.52"/><line x1="276.97" y1="141.05" x2="319.74" y2="118.02"/><line x1="283.32" y1="236.95" x2="299.46" y2="254.49"/><line x1="349.79" y1="137.09" x2="308.95" y2="150.55"/><line x1="281.16" y1="225.31" x2="292.68" y2="225.18"/><line x1="374.23" y1="209.10" x2="373.46" y2="208.60"/><line x1="384.90" y1="191.51" x2="385.15" y2="188.44"/><line x1="290.95" y1="178.36" x2="290.70" y2="189.18"/><line x1="325.11" y1="356.31" x2="326.29" y2="358.70"/><line x1="318.74" y1="341.58" x2="350.51" y2="331.57"/><line x1="382.15" y1="204.14" x2="382.89" y2="202.03"/><line x1="185.05" y1="139.69" x2="191.55" y2="144.18"/><line x1="320.01" y1="284.54" x2="301.97" y2="300.97"/><line x1="480.00" y1="64.50" x2="447.51" y2="32.02"/><line x1="283.32" y1="236.95" x2="294.98" y2="240.22"/><line x1="349.79" y1="137.09" x2="318.80" y2="156.71"/><line x1="338.18" y1="365.55" x2="336.58" y2="366.06"/><line x1="349.79" y1="137.09" x2="303.86" y2="148.48"/><line x1="137.92" y1="147.70" x2="155.67" y2="124.08"/><line x1="242.50" y1="215.28" x2="268.69" y2="218.27"/><line x1="299.46" y1="254.49" x2="346.81" y2="254.49"/><line x1="137.77" y1="120.28" x2="138.91" y2="120.22"/><line x1="178.68" y1="135.65" x2="178.74" y2="163.66"/><line x1="318.74" y1="341.58" x2="320.57" y2="346.04"/><line x1="211.76" y1="160.32" x2="200.36" y2="177.06"/><line x1="375.61" y1="209.77" x2="374.95" y2="209.49"/><line x1="369.56" y1="205.25" x2="383.54" y2="199.66"/><line x1="275.65" y1="154.76" x2="275.21" y2="170.95"/><line x1="330.14" y1="165.41" x2="327.83" y2="163.52"/><line x1="146.49" y1="121.19" x2="150.88" y2="122.39"/><line x1="166.45" y1="128.91" x2="150.90" y2="158.18"/><line x1="283.32" y1="236.95" x2="281.16" y2="225.31"/><line x1="349.79" y1="137.09" x2="330.14" y2="165.41"/><line x1="338.18" y1="365.55" x2="330.32" y2="364.38"/><line x1="283.32" y1="236.95" x2="298.51" y2="252.75"/><line x1="349.79" y1="137.09" x2="310.67" y2="151.51"/><line x1="293.56" y1="284.54" x2="250.11" y2="300.97"/><line x1="281.16" y1="225.31" x2="292.07" y2="219.58"/><line x1="347.65" y1="355.66" x2="346.17" y2="358.02"/><line x1="378.76" y1="209.34" x2="375.61" y2="209.77"/><line x1="365.41" y1="148.96" x2="340.58" y2="174.91"/><line x1="384.90" y1="191.51" x2="362.99" y2="198.55"/><line x1="299.46" y1="254.49" x2="288.54" y2="274.72"/><line x1="290.95" y1="178.36" x2="275.87" y2="186.12"/><line x1="344.58" y1="360.20" x2="326.29" y2="358.70"/><line x1="130.38" y1="123.67" x2="131.33" y2="122.88"/><line x1="172.43" y1="132.04" x2="170.60" y2="166.18"/><line x1="318.74" y1="341.58" x2="349.83" y2="329.52"/><line x1="290.70" y1="189.18" x2="276.70" y2="194.81"/><line x1="382.15" y1="204.14" x2="370.74" y2="206.37"/><line x1="275.65" y1="154.76" x2="303.05" y2="148.39"/><line x1="277.86" y1="204.23" x2="279.35" y2="214.41"/><line x1="314.60" y1="153.90" x2="312.58" y2="152.63"/><line x1="382.89" y1="202.03" x2="369.56" y2="205.25"/><line x1="286.20" y1="270.45" x2="286.84" y2="271.59"/><line x1="338.91" y1="129.59" x2="344.24" y2="133.20"/><line x1="160.86" y1="126.25" x2="166.45" y2="128.91"/><line x1="296.69" y1="247.60" x2="297.58" y2="250.45"/><line x1="218.75" y1="166.60" x2="230.27" y2="177.50"/><line x1="332.39" y1="167.32" x2="330.14" y2="165.41"/><line x1="283.32" y1="236.95" x2="294.17" y2="235.70"/><line x1="349.79" y1="137.09" x2="320.98" y2="158.26"/><line x1="385.24" y1="178.57" x2="384.92" y2="175.53"/><line x1="329.27" y1="363.34" x2="338.18" y2="365.55"/><line x1="311.64" y1="114.04" x2="276.97" y2="141.05"/><line x1="351.73" y1="340.52" x2="351.62" y2="343.15"/><line x1="242.50" y1="215.28" x2="260.23" y2="208.50"/><line x1="291.58" y1="213.82" x2="281.16" y2="225.31"/><line x1="309.81" y1="270.45" x2="315.46" y2="278.33"/><line x1="303.86" y1="148.48" x2="303.05" y2="148.39"/><line x1="299.46" y1="254.49" x2="309.81" y2="270.45"/><line x1="172.43" y1="132.04" x2="161.69" y2="164.20"/><line x1="364.90" y1="200.56" x2="384.90" y2="191.51"/><line x1="172.43" y1="132.04" x2="178.68" y2="135.65"/><line x1="178.68" y1="135.65" x2="177.38" y2="164.34"/><line x1="375.61" y1="209.77" x2="379.68" y2="208.53"/><line x1="348.99" y1="327.55" x2="318.74" y2="341.58"/><line x1="219.68" y1="192.57" x2="224.04" y2="196.51"/><line x1="127.92" y1="131.69" x2="136.65" y2="120.44"/><line x1="275.65" y1="154.76" x2="292.97" y2="161.71"/><line x1="32.16" y1="32.09" x2="32.16" y2="64.58"/><line x1="288.54" y1="274.72" x2="289.03" y2="275.67"/><line x1="241.02" y1="188.12" x2="251.01" y2="198.44"/><line x1="316.67" y1="155.26" x2="314.60" y2="153.90"/><line x1="378.29" y1="160.77" x2="375.93" y2="158.26"/><line x1="333.80" y1="126.27" x2="338.91" y2="129.59"/><line x1="146.49" y1="121.19" x2="135.62" y2="145.34"/><line x1="348.90" y1="353.25" x2="347.65" y2="355.66"/><line x1="295.82" y1="244.19" x2="296.69" y2="247.60"/><line x1="349.79" y1="137.09" x2="332.39" y2="167.32"/><line x1="372.63" y1="207.99" x2="371.75" y2="207.26"/><line x1="163.90" y1="165.09" x2="165.89" y2="165.72"/><line x1="293.56" y1="284.54" x2="320.01" y2="284.54"/><line x1="385.35" y1="181.77" x2="385.24" y2="178.57"/><line x1="198.16" y1="149.12" x2="204.90" y2="154.50"/><line x1="378.76" y1="209.34" x2="376.22" y2="209.93"/><line x1="320.57" y1="346.04" x2="351.73" y2="340.52"/><line x1="299.46" y1="254.49" x2="288.01" y2="273.72"/><line x1="172.43" y1="132.04" x2="169.24" y2="166.23"/><line x1="327.31" y1="360.57" x2="328.26" y2="362.07"/><line x1="174.66" y1="165.39" x2="176.02" y2="164.92"/><line x1="277.86" y1="204.23" x2="291.19" y2="207.90"/><line x1="322.25" y1="349.98" x2="323.76" y2="353.40"/><line x1="142.81" y1="152.16" x2="145.40" y2="154.25"/><line x1="368.19" y1="203.91" x2="366.64" y2="202.35"/><line x1="289.88" y1="277.40" x2="293.56" y2="284.54"/><line x1="136.65" y1="120.44" x2="137.77" y2="120.28"/><line x1="218.75" y1="166.60" x2="215.09" y2="188.56"/><line x1="131.77" y1="140.61" x2="133.54" y2="142.95"/><line x1="127.77" y1="129.57" x2="130.38" y2="123.67"/><line x1="299.46" y1="254.49" x2="289.88" y2="277.40"/><line x1="172.43" y1="132.04" x2="159.28" y2="163.05"/><line x1="32.00" y1="479.98" x2="64.49" y2="479.98"/><line x1="172.43" y1="132.04" x2="174.66" y2="165.39"/><line x1="385.15" y1="188.44" x2="385.30" y2="185.20"/><line x1="127.92" y1="131.69" x2="135.55" y2="120.71"/><line x1="275.65" y1="154.76" x2="294.73" y2="155.89"/><line x1="241.02" y1="188.12" x2="235.79" y2="207.96"/><line x1="342.44" y1="176.81" x2="375.93" y2="158.26"/><line x1="239.26" y1="211.65" x2="242.50" y2="215.28"/><line x1="293.56" y1="284.54" x2="315.46" y2="278.33"/><line x1="304.86" y1="148.74" x2="303.86" y2="148.48"/><line x1="138.91" y1="120.22" x2="142.50" y2="120.46"/><line x1="299.46" y1="254.49" x2="287.45" y2="272.69"/><line x1="230.27" y1="177.50" x2="241.02" y2="188.12"/><line x1="376.22" y1="209.93" x2="375.61" y2="209.77"/><line x1="327.31" y1="360.57" x2="341.39" y2="363.54"/><line x1="288.01" y1="273.72" x2="288.54" y2="274.72"/><line x1="174.66" y1="165.39" x2="178.68" y2="135.65"/><line x1="277.86" y1="204.23" x2="290.92" y2="201.82"/><line x1="322.25" y1="349.98" x2="349.91" y2="350.79"/><line x1="380.08" y1="162.99" x2="378.29" y2="160.77"/><line x1="342.44" y1="176.81" x2="383.63" y2="169.99"/><line x1="380.55" y1="207.39" x2="381.38" y2="205.93"/><line x1="342.44" y1="176.81" x2="340.58" y2="174.91"/><line x1="323.76" y1="353.40" x2="348.90" y2="353.25"/><line x1="235.19" y1="270.45" x2="226.97" y2="254.49"/><line x1="178.74" y1="163.66" x2="184.36" y2="166.81"/><line x1="362.16" y1="284.54" x2="370.36" y2="300.97"/><line x1="286.24" y1="114.88" x2="282.27" y2="121.11"/><line x1="275.21" y1="170.95" x2="291.71" y2="169.20"/><line x1="131.77" y1="140.61" x2="146.49" y2="121.19"/><line x1="325.49" y1="161.67" x2="323.21" y2="159.92"/><line x1="381.38" y1="205.93" x2="372.63" y2="207.99"/><line x1="296.83" y1="109.90" x2="299.17" y2="110.06"/><line x1="184.36" y1="166.81" x2="198.16" y2="149.12"/><line x1="320.57" y1="346.04" x2="322.25" y2="349.98"/><line x1="292.68" y1="225.18" x2="293.39" y2="230.62"/><line x1="360.76" y1="145.26" x2="338.66" y2="173.01"/><line x1="32.00" y1="479.98" x2="32.00" y2="447.50"/><line x1="385.15" y1="188.44" x2="360.88" y2="196.32"/><line x1="342.99" y1="362.04" x2="327.31" y2="360.57"/><line x1="299.17" y1="110.06" x2="301.82" y2="110.56"/><line x1="127.92" y1="131.69" x2="134.47" y2="121.09"/><line x1="279.18" y1="129.84" x2="276.97" y2="141.05"/><line x1="290.75" y1="195.58" x2="277.86" y2="204.23"/><line x1="342.44" y1="176.81" x2="378.29" y2="160.77"/><line x1="140.31" y1="149.97" x2="142.81" y2="152.16"/><line x1="310.67" y1="151.51" x2="308.95" y2="150.55"/><line x1="383.54" y1="199.66" x2="368.19" y2="203.91"/><line x1="128.93" y1="125.41" x2="127.84" y2="128.45"/><line x1="331.86" y1="300.97" x2="362.16" y2="284.54"/><line x1="205.41" y1="180.76" x2="218.75" y2="166.60"/><line x1="327.83" y1="163.52" x2="325.49" y2="161.67"/><line x1="275.65" y1="154.76" x2="344.24" y2="133.20"/><line x1="153.80" y1="160.00" x2="156.64" y2="161.66"/><line x1="330.32" y1="364.38" x2="331.41" y2="365.18"/><line x1="127.77" y1="129.57" x2="127.92" y2="131.69"/><line x1="138.91" y1="120.22" x2="130.33" y2="138.31"/><line x1="362.99" y1="198.55" x2="360.88" y2="196.32"/><line x1="230.27" y1="177.50" x2="228.18" y2="200.39"/><line x1="292.07" y1="219.58" x2="292.68" y2="225.18"/><line x1="374.95" y1="209.49" x2="374.23" y2="209.10"/><line x1="228.18" y1="200.39" x2="232.10" y2="204.21"/><line x1="331.41" y1="365.18" x2="332.55" y2="365.77"/><line x1="132.35" y1="122.17" x2="133.40" y2="121.58"/><line x1="342.44" y1="176.81" x2="384.38" y2="172.67"/><line x1="342.44" y1="176.81" x2="365.41" y2="148.96"/><line x1="286.24" y1="114.88" x2="291.10" y2="111.14"/><line x1="350.51" y1="331.57" x2="351.04" y2="333.69"/><line x1="135.62" y1="145.34" x2="137.92" y2="147.70"/><line x1="155.67" y1="124.08" x2="140.31" y2="149.97"/><line x1="204.90" y1="154.50" x2="211.76" y2="160.32"/><line x1="128.41" y1="133.85" x2="129.21" y2="136.06"/><line x1="351.28" y1="345.74" x2="350.71" y2="348.29"/><line x1="355.55" y1="141.28" x2="332.39" y2="167.32"/><line x1="200.36" y1="177.06" x2="205.41" y2="180.76"/><line x1="379.68" y1="208.53" x2="380.55" y2="207.39"/><line x1="279.18" y1="129.84" x2="311.64" y2="114.04"/><line x1="128.05" y1="127.38" x2="128.93" y2="125.41"/><line x1="342.44" y1="176.81" x2="380.08" y2="162.99"/><line x1="276.97" y1="141.05" x2="315.53" y2="115.86"/><line x1="128.93" y1="125.41" x2="128.42" y2="126.37"/><line x1="150.90" y1="158.18" x2="153.80" y2="160.00"/><line x1="315.53" y1="115.86" x2="319.74" y2="118.02"/><line x1="275.57" y1="254.49" x2="299.46" y2="254.49"/><line x1="275.65" y1="154.76" x2="338.91" y2="129.59"/><line x1="325.11" y1="356.31" x2="344.58" y2="360.20"/><line x1="153.80" y1="160.00" x2="172.43" y2="132.04"/><line x1="224.04" y1="196.51" x2="228.18" y2="200.39"/><line x1="282.27" y1="121.11" x2="279.18" y2="129.84"/><line x1="362.99" y1="198.55" x2="385.15" y2="188.44"/><line x1="131.33" y1="122.88" x2="132.35" y2="122.17"/><line x1="349.83" y1="329.52" x2="350.51" y2="331.57"/><line x1="228.18" y1="200.39" x2="241.02" y2="188.12"/><line x1="312.58" y1="152.63" x2="310.67" y2="151.51"/><line x1="132.35" y1="122.17" x2="127.92" y2="131.69"/><line x1="342.44" y1="176.81" x2="384.92" y2="175.53"/><line x1="165.89" y1="165.72" x2="167.67" y2="166.11"/><line x1="301.97" y1="300.97" x2="316.73" y2="336.61"/><line x1="338.18" y1="365.55" x2="334.96" y2="366.22"/><line x1="344.24" y1="133.20" x2="349.79" y2="137.09"/><line x1="349.79" y1="137.09" x2="304.86" y2="148.74"/><line x1="297.58" y1="250.45" x2="298.51" y2="252.75"/><line x1="328.26" y1="362.07" x2="329.27" y2="363.34"/><line x1="167.67" y1="166.11" x2="169.24" y2="166.23"/><line x1="331.86" y1="300.97" x2="347.99" y2="325.67"/><line x1="384.92" y1="175.53" x2="384.38" y2="172.67"/><line x1="291.19" y1="207.90" x2="291.58" y2="213.82"/><line x1="316.73" y1="336.61" x2="318.74" y2="341.58"/><line x1="137.77" y1="120.28" x2="128.41" y2="133.85"/><line x1="351.62" y1="343.15" x2="351.28" y2="345.74"/><line x1="318.74" y1="341.58" x2="351.66" y2="338.16"/><line x1="260.23" y1="208.50" x2="268.69" y2="218.27"/><line x1="303.05" y1="148.39" x2="299.77" y2="149.22"/><line x1="128.41" y1="133.85" x2="138.91" y2="120.22"/><line x1="351.28" y1="345.74" x2="322.25" y2="349.98"/><line x1="379.68" y1="208.53" x2="374.95" y2="209.49"/><line x1="289.03" y1="275.67" x2="289.48" y2="276.56"/><line x1="366.64" y1="202.35" x2="364.90" y2="200.56"/><line x1="176.02" y1="164.92" x2="177.38" y2="164.34"/><line x1="283.32" y1="236.95" x2="297.58" y2="250.45"/><line x1="375.93" y1="158.26" x2="372.99" y2="155.46"/><line x1="349.79" y1="137.09" x2="312.58" y2="152.63"/><line x1="215.09" y1="188.56" x2="219.68" y2="192.57"/><line x1="64.64" y1="32.09" x2="32.16" y2="64.58"/><line x1="289.48" y1="276.56" x2="289.88" y2="277.40"/><line x1="347.65" y1="355.66" x2="325.11" y2="356.31"/><line x1="242.50" y1="215.28" x2="275.57" y2="254.49"/><line x1="290.95" y1="178.36" x2="275.37" y2="178.17"/><line x1="275.65" y1="154.76" x2="333.80" y2="126.27"/><line x1="189.83" y1="170.09" x2="195.17" y2="173.51"/><line x1="325.11" y1="356.31" x2="346.17" y2="358.02"/><line x1="382.15" y1="204.14" x2="371.75" y2="207.26"/><line x1="336.65" y1="171.12" x2="334.55" y2="169.22"/><line x1="282.27" y1="121.11" x2="304.78" y2="111.39"/><line x1="275.37" y1="178.17" x2="275.87" y2="186.12"/><line x1="315.46" y1="278.33" x2="320.01" y2="284.54"/><line x1="341.39" y1="363.54" x2="339.79" y2="364.72"/><line x1="286.20" y1="270.45" x2="299.46" y2="254.49"/><line x1="304.78" y1="111.39" x2="308.05" y2="112.55"/><line x1="235.79" y1="207.96" x2="239.26" y2="211.65"/><line x1="160.86" y1="126.25" x2="148.11" y2="156.26"/><line x1="384.10" y1="197.12" x2="384.55" y2="194.40"/><line x1="283.32" y1="236.95" x2="293.39" y2="230.62"/><line x1="349.79" y1="137.09" x2="323.21" y2="159.92"/><line x1="338.18" y1="365.55" x2="333.73" y2="366.11"/><line x1="276.97" y1="141.05" x2="275.65" y2="154.76"/><line x1="349.79" y1="137.09" x2="306.04" y2="149.17"/><line x1="376.77" y1="210.00" x2="376.22" y2="209.93"/><line x1="328.26" y1="362.07" x2="339.79" y2="364.72"/><line x1="309.81" y1="270.45" x2="293.56" y2="284.54"/><line x1="127.84" y1="128.45" x2="127.77" y2="129.57"/><line x1="291.19" y1="207.90" x2="279.35" y2="214.41"/><line x1="316.73" y1="336.61" x2="348.99" y2="327.55"/><line x1="178.68" y1="135.65" x2="176.02" y2="164.92"/><line x1="324.21" y1="120.48" x2="328.89" y2="123.23"/><line x1="318.74" y1="341.58" x2="351.43" y2="335.89"/><line x1="32.16" y1="32.09" x2="64.64" y2="32.09"/><line x1="130.33" y1="138.31" x2="131.77" y2="140.61"/><line x1="360.88" y1="196.32" x2="342.44" y2="176.81"/><line x1="291.71" y1="169.20" x2="290.95" y2="178.36"/><line x1="146.49" y1="121.19" x2="133.54" y2="142.95"/><line x1="385.30" y1="185.20" x2="385.35" y2="181.77"/><line x1="372.63" y1="207.99" x2="382.15" y2="204.14"/><line x1="283.32" y1="236.95" x2="296.69" y2="247.60"/><line x1="349.79" y1="137.09" x2="314.60" y2="153.90"/><line x1="133.54" y1="142.95" x2="135.62" y2="145.34"/><line x1="198.16" y1="149.12" x2="189.83" y2="170.09"/><line x1="378.76" y1="209.34" x2="377.79" y2="209.83"/><line x1="242.50" y1="215.28" x2="283.32" y2="236.95"/><line x1="338.66" y1="173.01" x2="336.65" y2="171.12"/><line x1="32.00" y1="447.50" x2="64.49" y2="479.98"/></g></svg>