<svg xmlns="http://www.w3.org/2000/svg" width="512" height="512"><rect width="512" height="512" fill="#0a0f1a"/><text x="12" y="20" font-family="monospace" font-size="11" fill="#4a7fa5">FRONT (XZ)</text><g stroke="#00d4ff" stroke-width="0.6" opacity="0.85"><line x1="118.25" y1="128.18" x2="107.93" y2="112.89"/><line x1="256.00" y1="256.00" x2="189.48" y2="431.80"/><line x1="256.00" y1="256.00" x2="206.33" y2="99.96"/><line x1="335.64" y1="85.75" x2="334.37" y2="98.64"/><line x1="256.00" y1="256.00" x2="244.45" y2="431.37"/><line x1="256.00" y1="256.00" x2="252.25" y2="50.12"/><line x1="412.04" y1="206.33" x2="407.64" y2="213.16"/><line x1="111.53" y1="178.90" x2="119.42" y2="177.39"/><line x1="256.00" y1="256.00" x2="280.86" y2="405.51"/><line x1="334.62" y1="392.58" x2="336.12" y2="384.69"/><line x1="256.00" y1="256.00" x2="412.04" y2="206.33"/><line x1="256.00" y1="256.00" x2="431.37" y2="267.55"/><line x1="80.63" y1="267.55" x2="93.03" y2="271.59"/><line x1="380.11" y1="158.91" x2="378.54" y2="166.78"/><line x1="108.77" y1="292.01" x2="104.36" y2="298.84"/><line x1="280.86" y1="405.51" x2="286.43" y2="404.37"/><line x1="414.39" y1="414.39" x2="404.07" y2="399.11"/><line x1="256.00" y1="256.00" x2="177.39" y2="392.58"/><line x1="418.97" y1="271.59" x2="431.37" y2="267.55"/><line x1="256.00" y1="256.00" x2="177.63" y2="98.64"/><line x1="256.00" y1="256.00" x2="206.33" y2="412.05"/><line x1="256.00" y1="256.00" x2="219.99" y2="108.77"/><line x1="256.00" y1="256.00" x2="252.25" y2="461.88"/><line x1="256.00" y1="256.00" x2="412.04" y2="305.68"/><line x1="256.00" y1="256.00" x2="403.24" y2="219.99"/><line x1="256.00" y1="256.00" x2="461.88" y2="259.76"/><line x1="256.00" y1="256.00" x2="171.33" y2="381.61"/><line x1="256.00" y1="256.00" x2="177.63" y2="413.37"/><line x1="256.00" y1="256.00" x2="172.59" y2="67.68"/><line x1="197.91" y1="421.93" x2="206.33" y2="412.05"/><line x1="256.00" y1="256.00" x2="219.99" y2="403.24"/><line x1="256.00" y1="256.00" x2="231.14" y2="106.50"/><line x1="381.61" y1="340.67" x2="384.68" y2="336.13"/><line x1="64.90" y1="179.15" x2="49.61" y2="168.81"/><line x1="267.55" y1="80.63" x2="271.59" y2="93.03"/><line x1="256.00" y1="256.00" x2="413.37" y2="334.38"/><line x1="404.37" y1="225.57" x2="405.51" y2="231.14"/><line x1="151.05" y1="381.68" x2="158.91" y2="380.11"/><line x1="256.00" y1="256.00" x2="444.33" y2="172.59"/><line x1="256.00" y1="256.00" x2="403.24" y2="292.01"/><line x1="345.23" y1="378.54" x2="353.09" y2="380.11"/><line x1="256.00" y1="256.00" x2="405.51" y2="231.14"/><line x1="256.00" y1="256.00" x2="461.88" y2="252.25"/><line x1="206.33" y1="99.96" x2="213.16" y2="104.36"/><line x1="256.00" y1="256.00" x2="124.29" y2="139.62"/><line x1="336.12" y1="127.32" x2="340.67" y2="130.39"/><line x1="256.00" y1="256.00" x2="151.05" y2="381.68"/><line x1="384.68" y1="175.88" x2="392.58" y2="177.39"/><line x1="256.00" y1="256.00" x2="166.77" y2="133.46"/><line x1="119.42" y1="334.62" x2="127.32" y2="336.13"/><line x1="256.00" y1="256.00" x2="172.59" y2="444.33"/><line x1="225.57" y1="404.37" x2="231.14" y2="405.51"/><line x1="256.00" y1="256.00" x2="179.14" y2="64.90"/><line x1="298.84" y1="407.65" x2="305.68" y2="412.05"/><line x1="413.37" y1="334.38" x2="426.26" y2="335.64"/><line x1="461.88" y1="259.76" x2="480.00" y2="256.00"/><line x1="158.91" y1="131.90" x2="166.77" y2="133.46"/><line x1="286.43" y1="107.64" x2="292.01" y2="108.77"/><line x1="353.09" y1="131.89" x2="360.95" y2="130.33"/><line x1="106.50" y1="280.86" x2="107.64" y2="286.44"/><line x1="256.00" y1="256.00" x2="378.54" y2="166.78"/><line x1="431.37" y1="244.45" x2="443.76" y2="248.49"/><line x1="256.00" y1="256.00" x2="444.33" y2="339.42"/><line x1="240.42" y1="418.97" x2="244.45" y2="431.37"/><line x1="256.00" y1="256.00" x2="447.10" y2="179.15"/><line x1="256.00" y1="256.00" x2="405.51" y2="280.86"/><line x1="383.83" y1="393.75" x2="399.11" y2="404.07"/><line x1="462.40" y1="343.20" x2="447.10" y2="332.86"/><line x1="256.00" y1="256.00" x2="418.97" y2="240.42"/><line x1="127.32" y1="175.88" x2="130.39" y2="171.33"/><line x1="231.14" y1="106.50" x2="235.78" y2="99.77"/><line x1="256.00" y1="256.00" x2="124.29" y2="372.39"/><line x1="305.68" y1="99.96" x2="314.10" y2="90.08"/><line x1="256.00" y1="256.00" x2="107.93" y2="112.89"/><line x1="426.26" y1="176.37" x2="444.33" y2="172.59"/><line x1="256.00" y1="256.00" x2="166.77" y2="378.54"/><line x1="256.00" y1="256.00" x2="175.88" y2="127.32"/><line x1="177.63" y1="413.37" x2="176.37" y2="426.26"/><line x1="256.00" y1="256.00" x2="179.14" y2="447.10"/><line x1="332.86" y1="447.10" x2="343.20" y2="462.40"/><line x1="177.39" y1="119.42" x2="178.90" y2="111.53"/><line x1="256.00" y1="256.00" x2="399.11" y2="107.94"/><line x1="399.11" y1="107.94" x2="414.39" y2="97.61"/><line x1="256.00" y1="256.00" x2="378.54" y2="345.22"/><line x1="256.00" y1="256.00" x2="384.68" y2="175.88"/><line x1="256.00" y1="256.00" x2="447.10" y2="332.86"/><line x1="256.00" y1="480.00" x2="259.76" y2="461.88"/><line x1="256.00" y1="256.00" x2="421.93" y2="197.91"/><line x1="412.04" y1="305.68" x2="407.64" y2="298.84"/><line x1="130.32" y1="151.05" x2="124.29" y2="139.62"/><line x1="256.00" y1="256.00" x2="111.53" y2="333.10"/><line x1="256.00" y1="256.00" x2="127.32" y2="175.88"/><line x1="343.20" y1="49.61" x2="339.41" y2="67.68"/><line x1="256.00" y1="256.00" x2="107.93" y2="399.11"/><line x1="256.00" y1="256.00" x2="112.89" y2="107.94"/><line x1="80.63" y1="244.45" x2="93.03" y2="240.42"/><line x1="256.00" y1="256.00" x2="175.88" y2="384.69"/><line x1="151.05" y1="130.33" x2="158.91" y2="131.90"/><line x1="345.23" y1="133.46" x2="353.09" y2="131.89"/><line x1="133.46" y1="345.22" x2="131.89" y2="353.09"/><line x1="256.00" y1="256.00" x2="399.11" y2="404.07"/><line x1="256.00" y1="256.00" x2="404.07" y2="112.89"/><line x1="256.00" y1="256.00" x2="384.68" y2="336.13"/><line x1="256.00" y1="256.00" x2="400.48" y2="178.90"/><line x1="256.00" y1="256.00" x2="421.93" y2="314.10"/><line x1="256.00" y1="256.00" x2="64.90" y2="179.15"/><line x1="256.00" y1="256.00" x2="127.32" y2="336.13"/><line x1="256.00" y1="256.00" x2="133.46" y2="166.78"/><line x1="256.00" y1="256.00" x2="112.89" y2="404.07"/><line x1="107.64" y1="225.57" x2="108.77" y2="219.99"/><line x1="256.00" y1="256.00" x2="139.61" y2="124.29"/><line x1="139.61" y1="124.29" x2="151.05" y2="130.33"/><line x1="131.89" y1="158.91" x2="130.32" y2="151.05"/><line x1="244.45" y1="80.63" x2="248.49" y2="68.24"/><line x1="340.67" y1="130.39" x2="345.23" y2="133.46"/><line x1="383.83" y1="118.25" x2="399.11" y2="107.94"/><line x1="447.10" y1="179.15" x2="431.81" y2="189.48"/><line x1="118.25" y1="383.83" x2="107.93" y2="399.11"/><line x1="256.00" y1="256.00" x2="336.12" y2="384.69"/><line x1="256.00" y1="256.00" x2="372.39" y2="387.72"/><line x1="335.64" y1="426.26" x2="334.37" y2="413.37"/><line x1="256.00" y1="256.00" x2="383.83" y2="118.25"/><line x1="130.39" y1="340.67" x2="133.46" y2="345.22"/><line x1="99.96" y1="206.33" x2="90.08" y2="197.91"/><line x1="256.00" y1="256.00" x2="387.71" y2="139.62"/><line x1="256.00" y1="256.00" x2="400.48" y2="333.10"/><line x1="176.37" y1="85.75" x2="172.59" y2="67.68"/><line x1="256.00" y1="256.00" x2="104.36" y2="298.84"/><line x1="393.75" y1="128.18" x2="387.71" y2="139.62"/><line x1="256.00" y1="256.00" x2="64.90" y2="332.86"/><line x1="64.90" y1="332.86" x2="49.61" y2="343.20"/><line x1="256.00" y1="256.00" x2="67.68" y2="172.59"/><line x1="256.00" y1="256.00" x2="133.46" y2="345.22"/><line x1="267.55" y1="431.37" x2="271.59" y2="418.97"/><line x1="256.00" y1="256.00" x2="130.32" y2="151.05"/><line x1="380.11" y1="353.09" x2="378.54" y2="345.22"/><line x1="404.37" y1="286.44" x2="405.51" y2="280.86"/><line x1="107.93" y1="112.89" x2="97.61" y2="97.61"/><line x1="259.76" y1="50.12" x2="263.51" y2="68.24"/><line x1="334.37" y1="98.64" x2="333.10" y2="111.53"/><line x1="407.64" y1="213.16" x2="403.24" y2="219.99"/><line x1="256.00" y1="256.00" x2="339.41" y2="67.68"/><line x1="206.33" y1="412.05" x2="213.16" y2="407.65"/><line x1="256.00" y1="256.00" x2="345.23" y2="378.54"/><line x1="256.00" y1="256.00" x2="360.95" y2="130.33"/><line x1="336.12" y1="384.69" x2="340.67" y2="381.61"/><line x1="384.68" y1="336.13" x2="392.58" y2="334.62"/><line x1="256.00" y1="256.00" x2="387.71" y2="372.39"/><line x1="49.61" y1="168.81" x2="67.68" y2="172.59"/><line x1="256.00" y1="256.00" x2="380.11" y2="158.91"/><line x1="189.48" y1="80.20" x2="197.91" y2="90.08"/><line x1="271.59" y1="93.03" x2="276.23" y2="99.77"/><line x1="256.00" y1="256.00" x2="106.50" y2="280.86"/><line x1="378.54" y1="166.78" x2="381.61" y2="171.33"/><line x1="256.00" y1="256.00" x2="108.77" y2="219.99"/><line x1="405.51" y1="231.14" x2="412.24" y2="235.78"/><line x1="106.50" y1="231.14" x2="107.64" y2="225.57"/><line x1="256.00" y1="256.00" x2="67.68" y2="339.42"/><line x1="158.91" y1="380.11" x2="166.77" y2="378.54"/><line x1="256.00" y1="256.00" x2="98.64" y2="177.63"/><line x1="286.43" y1="404.37" x2="292.01" y2="403.24"/><line x1="256.00" y1="256.00" x2="130.32" y2="360.95"/><line x1="353.09" y1="380.11" x2="360.95" y2="381.68"/><line x1="50.12" y1="252.25" x2="68.24" y2="248.49"/><line x1="431.37" y1="267.55" x2="443.76" y2="263.52"/><line x1="213.16" y1="104.36" x2="219.99" y2="108.77"/><line x1="256.00" y1="256.00" x2="292.01" y2="108.77"/><line x1="392.58" y1="177.39" x2="400.48" y2="178.90"/><line x1="256.00" y1="256.00" x2="339.41" y2="444.33"/><line x1="256.00" y1="256.00" x2="334.37" y2="98.64"/><line x1="231.14" y1="405.51" x2="235.78" y2="412.24"/><line x1="256.00" y1="256.00" x2="360.95" y2="381.68"/><line x1="256.00" y1="256.00" x2="404.07" y2="399.11"/><line x1="426.26" y1="335.64" x2="444.33" y2="339.42"/><line x1="480.00" y1="256.00" x2="461.88" y2="252.25"/><line x1="292.01" y1="108.77" x2="298.84" y2="104.36"/><line x1="256.00" y1="256.00" x2="50.12" y2="252.25"/><line x1="256.00" y1="256.00" x2="108.77" y2="292.01"/><line x1="99.77" y1="235.78" x2="106.50" y2="231.14"/><line x1="256.00" y1="256.00" x2="99.96" y2="206.33"/><line x1="177.39" y1="392.58" x2="178.90" y2="400.47"/><line x1="256.00" y1="256.00" x2="98.64" y2="334.38"/><line x1="399.11" y1="404.07" x2="414.39" y2="414.39"/><line x1="256.00" y1="256.00" x2="259.76" y2="50.12"/><line x1="256.00" y1="256.00" x2="292.01" y2="403.24"/><line x1="444.33" y1="172.59" x2="462.40" y2="168.81"/><line x1="256.00" y1="256.00" x2="305.68" y2="99.96"/><line x1="128.18" y1="118.25" x2="139.61" y2="124.29"/><line x1="256.00" y1="256.00" x2="334.37" y2="413.37"/><line x1="256.00" y1="256.00" x2="334.62" y2="119.43"/><line x1="256.00" y1="256.00" x2="80.63" y2="244.45"/><line x1="256.00" y1="256.00" x2="99.96" y2="305.68"/><line x1="175.88" y1="384.69" x2="177.39" y2="392.58"/><line x1="256.00" y1="256.00" x2="259.76" y2="461.88"/><line x1="305.68" y1="412.05" x2="314.10" y2="421.93"/><line x1="256.00" y1="256.00" x2="267.55" y2="80.63"/><line x1="93.03" y1="240.42" x2="99.77" y2="235.78"/><line x1="256.00" y1="256.00" x2="305.68" y2="412.05"/><line x1="256.00" y1="256.00" x2="322.52" y2="80.20"/><line x1="166.77" y1="133.46" x2="171.33" y2="130.39"/><line x1="256.00" y1="256.00" x2="334.62" y2="392.58"/><line x1="360.95" y1="130.33" x2="372.39" y2="124.29"/><line x1="107.64" y1="286.44" x2="108.77" y2="292.01"/><line x1="131.89" y1="353.09" x2="130.32" y2="360.95"/><line x1="244.45" y1="431.37" x2="248.49" y2="443.77"/><line x1="256.00" y1="256.00" x2="32.00" y2="256.00"/><line x1="447.10" y1="332.86" x2="431.81" y2="322.52"/><line x1="256.00" y1="256.00" x2="99.77" y2="235.78"/><line x1="130.39" y1="171.33" x2="133.46" y2="166.78"/><line x1="314.10" y1="90.08" x2="322.52" y2="80.20"/><line x1="99.96" y1="305.68" x2="90.08" y2="314.10"/><line x1="256.00" y1="256.00" x2="231.14" y2="405.51"/><line x1="176.37" y1="426.26" x2="172.59" y2="444.33"/><line x1="256.00" y1="256.00" x2="240.42" y2="93.03"/><line x1="256.00" y1="256.00" x2="267.55" y2="431.37"/><line x1="393.75" y1="383.83" x2="387.71" y2="372.39"/><line x1="256.00" y1="256.00" x2="276.23" y2="99.77"/><line x1="108.77" y1="219.99" x2="104.36" y2="213.16"/><line x1="256.00" y1="256.00" x2="322.52" y2="431.80"/><line x1="248.49" y1="68.24" x2="252.25" y2="50.12"/><line x1="414.39" y1="97.61" x2="404.07" y2="112.89"/><line x1="431.81" y1="189.48" x2="421.93" y2="197.91"/><line x1="32.00" y1="256.00" x2="50.12" y2="252.25"/><line x1="107.93" y1="399.11" x2="97.61" y2="414.39"/><line x1="334.37" y1="413.37" x2="333.10" y2="400.47"/><line x1="407.64" y1="298.84" x2="403.24" y2="292.01"/><line x1="172.59" y1="67.68" x2="168.80" y2="49.61"/><line x1="387.71" y1="139.62" x2="381.68" y2="151.05"/><line x1="49.61" y1="343.20" x2="67.68" y2="339.42"/><line x1="256.00" y1="256.00" x2="197.91" y2="90.08"/><line x1="256.00" y1="256.00" x2="240.42" y2="418.97"/><line x1="271.59" y1="418.97" x2="276.23" y2="412.24"/><line x1="256.00" y1="256.00" x2="248.49" y2="68.24"/><line x1="68.24" y1="263.51" x2="80.63" y2="267.55"/><line x1="256.00" y1="256.00" x2="276.23" y2="412.24"/><line x1="378.54" y1="345.22" x2="381.61" y2="340.67"/><line x1="405.51" y1="280.86" x2="412.24" y2="276.23"/><line x1="256.00" y1="256.00" x2="286.43" y2="107.64"/><line x1="333.10" y1="111.53" x2="334.62" y2="119.43"/><line x1="403.24" y1="219.99" x2="404.37" y2="225.57"/><line x1="256.00" y1="256.00" x2="418.97" y2="271.59"/><line x1="256.00" y1="256.00" x2="443.76" y2="248.49"/><line x1="340.67" y1="381.61" x2="345.23" y2="378.54"/><line x1="256.00" y1="256.00" x2="178.90" y2="111.53"/><line x1="381.61" y1="171.33" x2="384.68" y2="175.88"/><line x1="256.00" y1="256.00" x2="197.91" y2="421.93"/><line x1="171.33" y1="381.61" x2="175.88" y2="384.69"/><line x1="256.00" y1="256.00" x2="213.16" y2="104.36"/><line x1="256.00" y1="256.00" x2="248.49" y2="443.77"/><line x1="292.01" y1="403.24" x2="298.84" y2="407.65"/><line x1="372.39" y1="387.72" x2="383.83" y2="393.75"/><line x1="256.00" y1="256.00" x2="256.00" y2="32.00"/><line x1="443.76" y1="263.52" x2="461.88" y2="259.76"/><line x1="90.08" y1="197.91" x2="80.19" y2="189.48"/><line x1="256.00" y1="256.00" x2="407.64" y2="213.16"/><line x1="256.00" y1="256.00" x2="443.76" y2="263.52"/><line x1="372.39" y1="124.29" x2="383.83" y2="118.25"/><line x1="256.00" y1="256.00" x2="178.90" y2="400.47"/><line x1="104.36" y1="298.84" x2="99.96" y2="305.68"/><line x1="256.00" y1="256.00" x2="176.37" y2="85.75"/><line x1="256.00" y1="256.00" x2="213.16" y2="407.65"/><line x1="97.61" y1="97.61" x2="112.89" y2="107.94"/><line x1="256.00" y1="256.00" x2="225.57" y2="107.64"/><line x1="256.00" y1="256.00" x2="256.00" y2="480.00"/><line x1="68.24" y1="263.51" x2="50.12" y2="259.76"/><line x1="213.16" y1="407.65" x2="219.99" y2="403.24"/><line x1="256.00" y1="256.00" x2="426.26" y2="176.37"/><line x1="392.58" y1="334.62" x2="400.48" y2="333.10"/><line x1="67.68" y1="172.59" x2="85.75" y2="176.37"/><line x1="256.00" y1="256.00" x2="407.64" y2="298.84"/><line x1="256.00" y1="256.00" x2="404.37" y2="225.57"/><line x1="276.23" y1="99.77" x2="280.86" y2="106.50"/><line x1="256.00" y1="256.00" x2="480.00" y2="256.00"/><line x1="179.14" y1="447.10" x2="189.48" y2="431.80"/><line x1="412.24" y1="235.78" x2="418.97" y2="240.42"/><line x1="256.00" y1="256.00" x2="139.61" y2="387.72"/><line x1="256.00" y1="256.00" x2="158.91" y2="131.90"/><line x1="256.00" y1="256.00" x2="176.37" y2="426.26"/><line x1="68.24" y1="248.49" x2="80.63" y2="244.45"/><line x1="256.00" y1="256.00" x2="168.80" y2="49.61"/><line x1="256.00" y1="256.00" x2="225.57" y2="404.37"/><line x1="219.99" y1="108.77" x2="225.57" y2="107.64"/><line x1="128.17" y1="393.75" x2="139.61" y2="387.72"/><line x1="400.48" y1="178.90" x2="413.37" y2="177.63"/><line x1="314.10" y1="421.93" x2="322.52" y2="431.80"/><line x1="256.00" y1="256.00" x2="426.26" y2="335.64"/><line x1="256.00" y1="256.00" x2="462.40" y2="168.81"/><line x1="171.33" y1="130.39" x2="175.88" y2="127.32"/><line x1="256.00" y1="256.00" x2="404.37" y2="286.44"/><line x1="98.64" y1="334.38" x2="111.53" y2="333.10"/><line x1="256.00" y1="256.00" x2="412.24" y2="235.78"/><line x1="256.00" y1="256.00" x2="118.25" y2="128.18"/><line x1="248.49" y1="443.77" x2="252.25" y2="461.88"/><line x1="256.00" y1="256.00" x2="158.91" y2="380.11"/><line x1="256.00" y1="256.00" x2="171.33" y2="130.39"/><line x1="431.81" y1="322.52" x2="421.93" y2="314.10"/><line x1="256.00" y1="256.00" x2="168.80" y2="462.40"/><line x1="133.46" y1="166.78" x2="131.89" y2="158.91"/><line x1="93.03" y1="271.59" x2="99.77" y2="276.23"/><line x1="256.00" y1="256.00" x2="189.48" y2="80.20"/><line x1="322.52" y1="80.20" x2="332.86" y2="64.90"/><line x1="172.59" y1="444.33" x2="168.80" y2="462.40"/><line x1="256.00" y1="256.00" x2="380.11" y2="353.09"/><line x1="256.00" y1="256.00" x2="381.61" y2="171.33"/><line x1="387.71" y1="372.39" x2="381.68" y2="360.95"/><line x1="256.00" y1="256.00" x2="462.40" y2="343.20"/><line x1="256.00" y1="256.00" x2="431.81" y2="189.48"/><line x1="256.00" y1="256.00" x2="412.24" y2="276.23"/><line x1="256.00" y1="256.00" x2="119.42" y2="177.39"/><line x1="256.00" y1="256.00" x2="118.25" y2="383.83"/><line x1="256.00" y1="256.00" x2="97.61" y2="97.61"/><line x1="256.00" y1="256.00" x2="151.05" y2="130.33"/><line x1="403.24" y1="292.01" x2="404.37" y2="286.44"/><line x1="256.00" y1="256.00" x2="177.39" y2="119.42"/><line x1="256.00" y1="256.00" x2="383.83" y2="393.75"/><line x1="256.00" y1="256.00" x2="414.39" y2="97.61"/><line x1="256.00" y1="256.00" x2="381.61" y2="340.67"/><line x1="256.00" y1="256.00" x2="392.58" y2="177.39"/><line x1="256.00" y1="256.00" x2="431.81" y2="322.52"/><line x1="256.00" y1="256.00" x2="80.19" y2="189.48"/><line x1="256.00" y1="256.00" x2="119.42" y2="334.62"/><line x1="256.00" y1="256.00" x2="130.39" y2="171.33"/><line x1="256.00" y1="256.00" x2="97.61" y2="414.39"/><line x1="256.00" y1="256.00" x2="128.18" y2="118.25"/><line x1="104.36" y1="213.16" x2="99.96" y2="206.33"/><line x1="256.00" y1="256.00" x2="340.67" y2="130.39"/><line x1="256.00" y1="256.00" x2="414.39" y2="414.39"/><line x1="252.25" y1="50.12" x2="256.00" y2="32.00"/><line x1="256.00" y1="256.00" x2="393.75" y2="128.18"/><line x1="256.00" y1="256.00" x2="392.58" y2="334.62"/><line x1="421.93" y1="197.91" x2="412.04" y2="206.33"/><line x1="256.00" y1="256.00" x2="413.37" y2="177.63"/><line x1="97.61" y1="414.39" x2="112.89" y2="404.07"/><line x1="443.76" y1="248.49" x2="461.88" y2="252.25"/><line x1="256.00" y1="256.00" x2="80.20" y2="322.52"/><line x1="333.10" y1="400.47" x2="334.62" y2="392.58"/><line x1="256.00" y1="256.00" x2="49.61" y2="168.81"/><line x1="235.78" y1="99.77" x2="240.42" y2="93.03"/><line x1="256.00" y1="256.00" x2="111.53" y2="178.90"/><line x1="256.00" y1="256.00" x2="131.89" y2="158.91"/><line x1="168.80" y1="49.61" x2="179.14" y2="64.90"/><line x1="130.32" y1="360.95" x2="124.29" y2="372.39"/><line x1="256.00" y1="256.00" x2="128.17" y2="393.75"/><line x1="381.68" y1="151.05" x2="380.11" y2="158.91"/><line x1="67.68" y1="339.42" x2="85.75" y2="335.64"/><line x1="343.20" y1="462.40" x2="339.41" y2="444.33"/><line x1="276.23" y1="412.24" x2="280.86" y2="405.51"/><line x1="178.90" y1="111.53" x2="177.63" y2="98.64"/><line x1="256.00" y1="256.00" x2="343.20" y2="49.61"/><line x1="256.00" y1="256.00" x2="340.67" y2="381.61"/><line x1="112.89" y1="107.94" x2="128.18" y2="118.25"/><line x1="256.00" y1="256.00" x2="353.09" y2="131.89"/><line x1="90.08" y1="314.10" x2="80.20" y2="322.52"/><line x1="256.00" y1="256.00" x2="393.75" y2="383.83"/><line x1="334.62" y1="119.43" x2="336.12" y2="127.32"/><line x1="256.00" y1="256.00" x2="381.68" y2="151.05"/><line x1="50.12" y1="259.76" x2="32.00" y2="256.00"/><line x1="259.76" y1="461.88" x2="263.51" y2="443.77"/><line x1="256.00" y1="256.00" x2="99.77" y2="276.23"/><line x1="219.99" y1="403.24" x2="225.57" y2="404.37"/><line x1="256.00" y1="256.00" x2="107.64" y2="225.57"/><line x1="124.29" y1="139.62" x2="118.25" y2="128.18"/><line x1="256.00" y1="256.00" x2="49.61" y2="343.20"/><line x1="256.00" y1="256.00" x2="85.75" y2="176.37"/><line x1="85.75" y1="176.37" x2="98.64" y2="177.63"/><line x1="339.41" y1="67.68" x2="335.64" y2="85.75"/><line x1="256.00" y1="256.00" x2="131.89" y2="353.09"/><line x1="280.86" y1="106.50" x2="286.43" y2="107.64"/><line x1="127.32" y1="336.13" x2="130.39" y2="340.67"/><line x1="189.48" y1="431.80" x2="197.91" y2="421.93"/><line x1="80.19" y1="189.48" x2="64.90" y2="179.15"/><line x1="256.00" y1="256.00" x2="343.20" y2="462.40"/><line x1="263.51" y1="68.24" x2="267.55" y2="80.63"/><line x1="256.00" y1="256.00" x2="335.64" y2="85.75"/><line x1="256.00" y1="256.00" x2="353.09" y2="380.11"/><line x1="225.57" y1="107.64" x2="231.14" y2="106.50"/><line x1="256.00" y1="256.00" x2="372.39" y2="124.29"/><line x1="139.61" y1="387.72" x2="151.05" y2="381.68"/><line x1="256.00" y1="256.00" x2="381.68" y2="360.95"/><line x1="256.00" y1="256.00" x2="80.63" y2="267.55"/><line x1="412.24" y1="276.23" x2="418.97" y2="271.59"/><line x1="256.00" y1="256.00" x2="107.64" y2="286.44"/><line x1="256.00" y1="256.00" x2="104.36" y2="213.16"/><line x1="197.91" y1="90.08" x2="206.33" y2="99.96"/><line x1="256.00" y1="256.00" x2="85.75" y2="335.64"/><line x1="256.00" y1="256.00" x2="130.39" y2="340.67"/><line x1="400.48" y1="333.10" x2="413.37" y2="334.38"/><line x1="256.00" y1="256.00" x2="286.43" y2="404.37"/><line x1="256.00" y1="256.00" x2="298.84" y2="104.36"/><line x1="256.00" y1="256.00" x2="335.64" y2="426.26"/><line x1="256.00" y1="256.00" x2="333.10" y2="111.53"/><line x1="256.00" y1="256.00" x2="345.23" y2="133.46"/><line x1="418.97" y1="240.42" x2="431.37" y2="244.45"/><line x1="256.00" y1="256.00" x2="68.24" y2="248.49"/><line x1="256.00" y1="256.00" x2="106.50" y2="231.14"/><line x1="256.00" y1="256.00" x2="90.08" y2="197.91"/><line x1="413.37" y1="177.63" x2="426.26" y2="176.37"/><line x1="404.07" y1="399.11" x2="393.75" y2="383.83"/><line x1="256.00" y1="256.00" x2="263.51" y2="68.24"/><line x1="256.00" y1="256.00" x2="298.84" y2="407.65"/><line x1="256.00" y1="256.00" x2="314.10" y2="90.08"/><line x1="256.00" y1="256.00" x2="333.10" y2="400.47"/><line x1="256.00" y1="256.00" x2="336.12" y2="127.32"/><line x1="322.52" y1="431.80" x2="332.86" y2="447.10"/><line x1="175.88" y1="127.32" x2="177.39" y2="119.42"/><line x1="256.00" y1="256.00" x2="50.12" y2="259.76"/><line x1="111.53" y1="333.10" x2="119.42" y2="334.62"/><line x1="256.00" y1="256.00" x2="93.03" y2="240.42"/><line x1="256.00" y1="256.00" x2="90.08" y2="314.10"/><line x1="252.25" y1="461.88" x2="256.00" y2="480.00"/><line x1="256.00" y1="256.00" x2="235.78" y2="99.77"/><line x1="256.00" y1="256.00" x2="263.51" y2="443.77"/><line x1="99.77" y1="276.23" x2="106.50" y2="280.86"/><line x1="256.00" y1="256.00" x2="271.59" y2="93.03"/><line x1="256.00" y1="256.00" x2="314.10" y2="421.93"/><line x1="235.78" y1="412.24" x2="240.42" y2="418.97"/><line x1="256.00" y1="256.00" x2="332.86" y2="64.90"/><line x1="168.80" y1="462.40" x2="179.14" y2="447.10"/><line x1="444.33" y1="339.42" x2="462.40" y2="343.20"/><line x1="119.42" y1="177.39" x2="127.32" y2="175.88"/><line x1="298.84" y1="104.36" x2="305.68" y2="99.96"/><line x1="256.00" y1="32.00" x2="259.76" y2="50.12"/><line x1="256.00" y1="256.00" x2="93.03" y2="271.59"/><line x1="178.90" y1="400.47" x2="177.63" y2="413.37"/><line x1="112.89" y1="404.07" x2="128.17" y2="393.75"/><line x1="240.42" y1="93.03" x2="244.45" y2="80.63"/><line x1="256.00" y1="256.00" x2="235.78" y2="412.24"/><line x1="256.00" y1="256.00" x2="244.45" y2="80.63"/><line x1="179.14" y1="64.90" x2="189.48" y2="80.20"/><line x1="462.40" y1="168.81" x2="447.10" y2="179.15"/><line x1="68.24" y1="263.51" x2="256.00" y2="256.00"/><line x1="256.00" y1="256.00" x2="271.59" y2="418.97"/><line x1="124.29" y1="372.39" x2="118.25" y2="383.83"/><line x1="256.00" y1="256.00" x2="280.86" y2="106.50"/><line x1="256.00" y1="256.00" x2="332.86" y2="447.10"/><line x1="85.75" y1="335.64" x2="98.64" y2="334.38"/><line x1="339.41" y1="444.33" x2="335.64" y2="426.26"/><line x1="421.93" y1="314.10" x2="412.04" y2="305.68"/><line x1="177.63" y1="98.64" x2="176.37" y2="85.75"/><line x1="332.86" y1="64.90" x2="343.20" y2="49.61"/><line x1="256.00" y1="256.00" x2="431.37" y2="244.45"/><line x1="404.07" y1="112.89" x2="393.75" y2="128.18"/><line x1="80.20" y1="322.52" x2="64.90" y2="332.86"/><line x1="166.77" y1="378.54" x2="171.33" y2="381.61"/><line x1="263.51" y1="443.77" x2="267.55" y2="431.37"/><line x1="98.64" y1="177.63" x2="111.53" y2="178.90"/><line x1="381.68" y1="360.95" x2="380.11" y2="353.09"/><line x1="360.95" y1="381.68" x2="372.39" y2="387.72"/></g></svg>