<svg xmlns="http://www.w3.org/2000/svg" width="512" height="512"><rect width="512" height="512" fill="#0a0f1a"/><text x="12" y="20" font-family="monospace" font-size="11" fill="#4a7fa5">FRONT (XZ)</text><g stroke="#00d4ff" stroke-width="0.6" opacity="0.85"><line x1="196.78" y1="134.27" x2="199.68" y2="134.07"/><line x1="232.37" y1="134.07" x2="328.80" y2="417.23"/><line x1="56.97" y1="96.17" x2="32.00" y2="127.70"/><line x1="34.60" y1="144.64" x2="192.10" y2="238.81"/><line x1="187.59" y1="137.74" x2="189.52" y2="136.47"/><line x1="68.10" y1="94.77" x2="181.83" y2="150.08"/><line x1="34.60" y1="144.64" x2="183.34" y2="158.47"/><line x1="68.10" y1="94.77" x2="194.11" y2="134.74"/><line x1="189.52" y1="136.47" x2="191.69" y2="135.47"/><line x1="175.68" y1="248.16" x2="180.52" y2="246.64"/><line x1="34.60" y1="144.64" x2="164.54" y2="249.54"/><line x1="32.00" y1="127.70" x2="62.30" y2="95.20"/><line x1="34.60" y1="144.64" x2="197.29" y2="230.98"/><line x1="68.10" y1="94.77" x2="182.48" y2="145.27"/><line x1="68.10" y1="94.77" x2="199.68" y2="134.07"/><line x1="164.54" y1="249.54" x2="70.56" y2="249.54"/><line x1="370.48" y1="94.77" x2="328.80" y2="417.23"/><line x1="191.69" y1="135.47" x2="194.11" y2="134.74"/><line x1="184.46" y1="141.08" x2="185.90" y2="139.28"/><line x1="34.60" y1="144.64" x2="170.35" y2="249.13"/><line x1="328.80" y1="417.23" x2="480.00" y2="417.23"/><line x1="34.60" y1="144.64" x2="199.92" y2="221.83"/><line x1="68.10" y1="94.77" x2="184.46" y2="141.08"/><line x1="68.10" y1="94.77" x2="370.48" y2="94.77"/><line x1="68.10" y1="94.77" x2="33.09" y2="138.70"/><line x1="192.10" y1="238.81" x2="194.98" y2="235.11"/><line x1="40.48" y1="105.57" x2="43.87" y2="102.39"/><line x1="34.60" y1="144.64" x2="180.52" y2="246.64"/><line x1="68.10" y1="94.77" x2="183.34" y2="158.47"/><line x1="34.60" y1="144.64" x2="199.90" y2="211.48"/><line x1="68.10" y1="94.77" x2="187.59" y2="137.74"/><line x1="47.76" y1="99.77" x2="37.56" y2="109.30"/><line x1="33.09" y1="138.70" x2="34.60" y2="144.64"/><line x1="199.68" y1="134.07" x2="232.37" y2="134.07"/><line x1="232.37" y1="134.07" x2="370.48" y2="94.77"/><line x1="194.98" y1="235.11" x2="197.29" y2="230.98"/><line x1="34.60" y1="144.64" x2="188.73" y2="241.97"/><line x1="68.10" y1="94.77" x2="182.00" y2="152.72"/><line x1="34.60" y1="144.64" x2="197.23" y2="199.94"/><line x1="68.10" y1="94.77" x2="191.69" y2="135.47"/><line x1="180.52" y1="246.64" x2="184.86" y2="244.58"/><line x1="32.42" y1="122.65" x2="32.00" y2="127.70"/><line x1="197.29" y1="230.98" x2="198.94" y2="226.56"/><line x1="37.56" y1="109.30" x2="35.20" y2="113.45"/><line x1="184.86" y1="244.58" x2="188.73" y2="241.97"/><line x1="34.60" y1="144.64" x2="194.98" y2="235.11"/><line x1="68.10" y1="94.77" x2="181.99" y2="147.60"/><line x1="197.23" y1="199.94" x2="183.34" y2="158.47"/><line x1="198.94" y1="226.56" x2="199.92" y2="221.83"/><line x1="199.92" y1="221.83" x2="200.24" y2="216.80"/><line x1="52.13" y1="97.69" x2="33.49" y2="117.90"/><line x1="188.73" y1="241.97" x2="192.10" y2="238.81"/><line x1="34.60" y1="144.64" x2="70.56" y2="249.54"/><line x1="183.34" y1="158.47" x2="182.50" y2="155.52"/><line x1="34.60" y1="144.64" x2="198.94" y2="226.56"/><line x1="68.10" y1="94.77" x2="183.30" y2="143.10"/><line x1="170.35" y1="249.13" x2="175.68" y2="248.16"/><line x1="62.30" y1="95.20" x2="68.10" y2="94.77"/><line x1="200.24" y1="216.80" x2="199.90" y2="211.48"/><line x1="370.48" y1="94.77" x2="480.00" y2="417.23"/><line x1="35.20" y1="113.45" x2="33.49" y2="117.90"/><line x1="52.13" y1="97.69" x2="56.97" y2="96.17"/><line x1="34.60" y1="144.64" x2="175.68" y2="248.16"/><line x1="47.76" y1="99.77" x2="43.87" y2="102.39"/><line x1="32.22" y1="133.05" x2="33.09" y2="138.70"/><line x1="199.90" y1="211.48" x2="198.90" y2="205.86"/><line x1="68.10" y1="94.77" x2="34.60" y2="144.64"/><line x1="198.90" y1="205.86" x2="197.23" y2="199.94"/><line x1="56.97" y1="96.17" x2="62.30" y2="95.20"/><line x1="47.76" y1="99.77" x2="52.13" y2="97.69"/><line x1="68.10" y1="94.77" x2="196.78" y2="134.27"/><line x1="37.56" y1="109.30" x2="52.13" y2="97.69"/><line x1="181.99" y1="147.60" x2="182.48" y2="145.27"/><line x1="32.00" y1="127.70" x2="32.22" y2="133.05"/><line x1="182.48" y1="145.27" x2="183.30" y2="143.10"/><line x1="68.10" y1="94.77" x2="232.37" y2="134.07"/><line x1="164.54" y1="249.54" x2="170.35" y2="249.13"/><line x1="182.50" y1="155.52" x2="182.00" y2="152.72"/><line x1="52.13" y1="97.69" x2="35.20" y2="113.45"/><line x1="40.48" y1="105.57" x2="47.76" y2="99.77"/><line x1="62.30" y1="95.20" x2="32.22" y2="133.05"/><line x1="34.60" y1="144.64" x2="200.24" y2="216.80"/><line x1="68.10" y1="94.77" x2="185.90" y2="139.28"/><line x1="183.30" y1="143.10" x2="184.46" y2="141.08"/><line x1="33.49" y1="117.90" x2="32.42" y2="122.65"/><line x1="182.00" y1="152.72" x2="181.83" y2="150.08"/><line x1="194.11" y1="134.74" x2="196.78" y2="134.27"/><line x1="52.13" y1="97.69" x2="32.42" y2="122.65"/><line x1="185.90" y1="139.28" x2="187.59" y2="137.74"/><line x1="40.48" y1="105.57" x2="37.56" y2="109.30"/><line x1="34.60" y1="144.64" x2="184.86" y2="244.58"/><line x1="181.83" y1="150.08" x2="181.99" y2="147.60"/><line x1="68.10" y1="94.77" x2="182.50" y2="155.52"/><line x1="32.22" y1="133.05" x2="68.10" y2="94.77"/><line x1="34.60" y1="144.64" x2="198.90" y2="205.86"/><line x1="68.10" y1="94.77" x2="189.52" y2="136.47"/><line x1="32.42" y1="122.65" x2="56.97" y2="96.17"/></g></svg>