<svg xmlns="http://www.w3.org/2000/svg" width="512" height="512"><rect width="512" height="512" fill="#0a0f1a"/><text x="12" y="20" font-family="monospace" font-size="11" fill="#4a7fa5">FRONT (XZ)</text><g stroke="#00d4ff" stroke-width="0.6" opacity="0.85"><line x1="137.38" y1="411.18" x2="262.84" y2="352.71"/><line x1="265.89" y1="357.94" x2="264.25" y2="355.40"/><line x1="327.72" y1="362.58" x2="478.70" y2="368.91"/><line x1="445.64" y1="411.18" x2="322.80" y2="369.83"/><line x1="274.51" y1="366.61" x2="272.03" y2="364.67"/><line x1="327.72" y1="362.58" x2="465.20" y2="406.37"/><line x1="272.03" y1="364.67" x2="269.77" y2="362.57"/><line x1="137.38" y1="411.18" x2="277.11" y2="368.35"/><line x1="465.20" y1="406.37" x2="461.02" y2="408.37"/><line x1="137.38" y1="411.18" x2="177.48" y2="100.82"/><line x1="477.10" y1="363.19" x2="328.35" y2="357.94"/><line x1="477.16" y1="393.21" x2="474.93" y2="397.20"/><line x1="327.72" y1="362.58" x2="480.00" y2="379.49"/><line x1="445.64" y1="411.18" x2="318.86" y2="372.02"/><line x1="478.70" y1="368.91" x2="479.67" y2="374.34"/><line x1="474.93" y1="397.20" x2="472.16" y2="400.79"/><line x1="261.63" y1="349.87" x2="177.48" y2="100.82"/><line x1="137.38" y1="411.18" x2="272.03" y2="364.67"/><line x1="269.77" y1="362.57" x2="267.72" y2="360.33"/><line x1="477.10" y1="363.19" x2="327.72" y2="362.58"/><line x1="279.77" y1="369.83" x2="277.11" y2="368.35"/><line x1="445.64" y1="411.18" x2="137.38" y2="411.18"/><line x1="177.48" y1="100.82" x2="32.00" y2="100.82"/><line x1="472.16" y1="400.79" x2="468.91" y2="403.85"/><line x1="137.38" y1="411.18" x2="290.94" y2="373.17"/><line x1="137.38" y1="411.18" x2="267.72" y2="360.33"/><line x1="479.69" y1="384.35" x2="478.74" y2="388.92"/><line x1="445.64" y1="411.18" x2="326.93" y2="364.67"/><line x1="326.90" y1="349.87" x2="242.75" y2="100.82"/><line x1="388.24" y1="100.82" x2="477.10" y2="363.19"/><line x1="478.74" y1="388.92" x2="477.16" y2="393.21"/><line x1="264.25" y1="355.40" x2="262.84" y2="352.71"/><line x1="137.38" y1="411.18" x2="285.25" y2="372.02"/><line x1="137.38" y1="411.18" x2="264.25" y2="355.40"/><line x1="316.53" y1="372.72" x2="313.96" y2="373.17"/><line x1="262.84" y1="352.71" x2="261.63" y2="349.87"/><line x1="445.64" y1="411.18" x2="324.43" y2="368.35"/><line x1="326.93" y1="364.67" x2="325.82" y2="366.61"/><line x1="461.02" y1="408.37" x2="456.36" y2="409.83"/><line x1="327.72" y1="362.58" x2="456.36" y2="409.83"/><line x1="325.82" y1="366.61" x2="324.43" y2="368.35"/><line x1="137.38" y1="411.18" x2="279.77" y2="369.83"/><line x1="137.38" y1="411.18" x2="261.63" y2="349.87"/><line x1="477.10" y1="363.19" x2="328.18" y2="355.40"/><line x1="456.36" y1="409.83" x2="451.23" y2="410.77"/><line x1="445.64" y1="411.18" x2="320.95" y2="371.05"/><line x1="327.72" y1="362.58" x2="478.74" y2="388.92"/><line x1="327.72" y1="362.58" x2="445.64" y2="411.18"/><line x1="137.38" y1="411.18" x2="313.96" y2="373.17"/><line x1="324.43" y1="368.35" x2="322.80" y2="369.83"/><line x1="137.38" y1="411.18" x2="274.51" y2="366.61"/><line x1="137.38" y1="411.18" x2="32.00" y2="100.82"/><line x1="322.80" y1="369.83" x2="320.95" y2="371.05"/><line x1="477.10" y1="363.19" x2="328.20" y2="360.33"/><line x1="451.23" y1="410.77" x2="445.64" y2="411.18"/><line x1="313.96" y1="373.17" x2="311.17" y2="373.37"/><line x1="468.91" y1="403.85" x2="465.20" y2="406.37"/><line x1="327.72" y1="362.58" x2="474.93" y2="397.20"/><line x1="320.95" y1="371.05" x2="318.86" y2="372.02"/><line x1="137.38" y1="411.18" x2="293.87" y2="373.37"/><line x1="137.38" y1="411.18" x2="269.77" y2="362.57"/><line x1="477.10" y1="363.19" x2="478.70" y2="368.91"/><line x1="328.18" y1="355.40" x2="328.35" y2="357.94"/><line x1="388.24" y1="100.82" x2="242.75" y2="100.82"/><line x1="326.90" y1="349.87" x2="327.70" y2="352.71"/><line x1="327.72" y1="362.58" x2="468.91" y2="403.85"/><line x1="318.86" y1="372.02" x2="316.53" y2="372.72"/><line x1="137.38" y1="411.18" x2="288.07" y2="372.72"/><line x1="137.38" y1="411.18" x2="265.89" y2="357.94"/><line x1="316.53" y1="372.72" x2="137.38" y2="411.18"/><line x1="327.72" y1="362.58" x2="479.67" y2="374.34"/><line x1="327.72" y1="362.58" x2="461.02" y2="408.37"/><line x1="137.38" y1="411.18" x2="282.48" y2="371.05"/><line x1="477.10" y1="363.19" x2="327.70" y2="352.71"/><line x1="288.07" y1="372.72" x2="285.25" y2="372.02"/><line x1="327.72" y1="362.58" x2="479.69" y2="384.35"/><line x1="445.64" y1="411.18" x2="316.53" y2="372.72"/><line x1="327.72" y1="362.58" x2="451.23" y2="410.77"/><line x1="285.25" y1="372.02" x2="282.48" y2="371.05"/><line x1="311.17" y1="373.37" x2="293.87" y2="373.37"/><line x1="327.70" y1="352.71" x2="328.18" y2="355.40"/><line x1="326.90" y1="349.87" x2="388.24" y2="100.82"/><line x1="327.72" y1="362.58" x2="477.16" y2="393.21"/><line x1="479.67" y1="374.34" x2="480.00" y2="379.49"/><line x1="327.72" y1="362.58" x2="326.93" y2="364.67"/><line x1="282.48" y1="371.05" x2="279.77" y2="369.83"/><line x1="137.38" y1="411.18" x2="311.17" y2="373.37"/><line x1="328.35" y1="357.94" x2="328.20" y2="360.33"/><line x1="293.87" y1="373.37" x2="290.94" y2="373.17"/><line x1="267.72" y1="360.33" x2="265.89" y2="357.94"/><line x1="445.64" y1="411.18" x2="325.82" y2="366.61"/><line x1="277.11" y1="368.35" x2="274.51" y2="366.61"/><line x1="326.90" y1="349.87" x2="477.10" y2="363.19"/><line x1="327.72" y1="362.58" x2="472.16" y2="400.79"/><line x1="290.94" y1="373.17" x2="288.07" y2="372.72"/><line x1="480.00" y1="379.49" x2="479.69" y2="384.35"/><line x1="328.20" y1="360.33" x2="327.72" y2="362.58"/></g></svg>