<svg xmlns="http://www.w3.org/2000/svg" width="512" height="512"><rect width="512" height="512" fill="#0a0f1a"/><text x="12" y="20" font-family="monospace" font-size="11" fill="#4a7fa5">FRONT (XZ)</text><g stroke="#00d4ff" stroke-width="0.6" opacity="0.85"><line x1="187.19" y1="244.05" x2="111.35" y2="394.56"/><line x1="323.41" y1="266.43" x2="397.84" y2="117.44"/><line x1="187.19" y1="244.05" x2="260.20" y2="387.61"/><line x1="371.42" y1="390.59" x2="374.21" y2="391.63"/><line x1="245.70" y1="128.00" x2="244.32" y2="129.74"/><line x1="360.83" y1="385.14" x2="363.37" y2="386.69"/><line x1="241.96" y1="133.53" x2="270.04" y2="117.44"/><line x1="261.69" y1="118.36" x2="241.96" y2="133.53"/><line x1="323.41" y1="266.43" x2="376.99" y2="392.51"/><line x1="363.37" y1="386.69" x2="365.98" y2="388.11"/><line x1="187.19" y1="244.05" x2="245.10" y2="394.17"/><line x1="187.19" y1="244.05" x2="263.42" y2="384.52"/><line x1="270.04" y1="117.44" x2="218.08" y2="181.09"/><line x1="244.32" y1="129.74" x2="243.07" y2="131.59"/><line x1="218.08" y1="181.09" x2="187.19" y2="244.05"/><line x1="323.41" y1="266.43" x2="382.54" y2="393.80"/><line x1="379.77" y1="393.24" x2="382.54" y2="393.80"/><line x1="187.19" y1="244.05" x2="249.94" y2="393.10"/><line x1="365.98" y1="388.11" x2="368.67" y2="389.42"/><line x1="291.81" y1="329.38" x2="353.61" y2="379.75"/><line x1="187.19" y1="244.05" x2="266.10" y2="380.98"/><line x1="355.94" y1="381.67" x2="358.34" y2="383.46"/><line x1="382.54" y1="393.80" x2="385.31" y2="394.21"/><line x1="323.41" y1="266.43" x2="363.37" y2="386.69"/><line x1="187.19" y1="244.05" x2="140.14" y2="117.44"/><line x1="323.41" y1="266.43" x2="388.07" y2="394.47"/><line x1="187.19" y1="244.05" x2="254.37" y2="391.36"/><line x1="187.19" y1="244.05" x2="291.81" y2="329.38"/><line x1="264.33" y1="117.88" x2="267.12" y2="117.57"/><line x1="248.87" y1="124.84" x2="247.22" y2="126.37"/><line x1="245.10" y1="394.17" x2="247.57" y2="393.71"/><line x1="252.58" y1="122.07" x2="254.64" y2="120.88"/><line x1="385.31" y1="394.21" x2="388.07" y2="394.47"/><line x1="256.84" y1="119.86" x2="250.65" y2="123.40"/><line x1="267.12" y1="117.57" x2="270.04" y2="117.44"/><line x1="374.21" y1="391.63" x2="376.99" y2="392.51"/><line x1="323.41" y1="266.43" x2="368.67" y2="389.42"/><line x1="187.19" y1="244.05" x2="239.85" y2="394.56"/><line x1="323.41" y1="266.43" x2="480.00" y2="394.56"/><line x1="388.07" y1="394.47" x2="390.82" y2="394.56"/><line x1="187.19" y1="244.05" x2="258.39" y2="388.98"/><line x1="390.82" y1="394.56" x2="480.00" y2="394.56"/><line x1="376.99" y1="392.51" x2="379.77" y2="393.24"/><line x1="247.57" y1="393.71" x2="249.94" y2="393.10"/><line x1="239.85" y1="394.56" x2="111.35" y2="394.56"/><line x1="323.41" y1="266.43" x2="374.21" y2="391.63"/><line x1="249.94" y1="393.10" x2="252.21" y2="392.31"/><line x1="187.19" y1="244.05" x2="242.53" y2="394.45"/><line x1="187.19" y1="244.05" x2="261.87" y2="386.12"/><line x1="250.65" y1="123.40" x2="248.87" y2="124.84"/><line x1="323.41" y1="266.43" x2="355.94" y2="381.67"/><line x1="261.87" y1="386.12" x2="263.42" y2="384.52"/><line x1="323.41" y1="266.43" x2="379.77" y2="393.24"/><line x1="252.21" y1="392.31" x2="254.37" y2="391.36"/><line x1="187.19" y1="244.05" x2="247.57" y2="393.71"/><line x1="270.04" y1="117.44" x2="397.84" y2="117.44"/><line x1="254.37" y1="391.36" x2="256.44" y2="390.24"/><line x1="259.19" y1="119.03" x2="261.69" y2="118.36"/><line x1="242.53" y1="394.45" x2="245.10" y2="394.17"/><line x1="270.04" y1="117.44" x2="187.19" y2="244.05"/><line x1="263.42" y1="384.52" x2="264.82" y2="382.81"/><line x1="140.14" y1="117.44" x2="32.00" y2="117.44"/><line x1="256.44" y1="390.24" x2="258.39" y2="388.98"/><line x1="323.41" y1="266.43" x2="360.83" y2="385.14"/><line x1="323.41" y1="266.43" x2="385.31" y2="394.21"/><line x1="261.69" y1="118.36" x2="245.70" y2="128.00"/><line x1="248.87" y1="124.84" x2="261.69" y2="118.36"/><line x1="256.84" y1="119.86" x2="254.64" y2="120.88"/><line x1="241.96" y1="133.53" x2="267.12" y2="117.57"/><line x1="258.39" y1="388.98" x2="260.20" y2="387.61"/><line x1="323.41" y1="266.43" x2="365.98" y2="388.11"/><line x1="323.41" y1="266.43" x2="390.82" y2="394.56"/><line x1="261.69" y1="118.36" x2="243.07" y2="131.59"/><line x1="260.20" y1="387.61" x2="261.87" y2="386.12"/><line x1="256.84" y1="119.86" x2="259.19" y2="119.03"/><line x1="241.96" y1="133.53" x2="218.08" y2="181.09"/><line x1="323.41" y1="266.43" x2="371.42" y2="390.59"/><line x1="261.69" y1="118.36" x2="264.33" y2="117.88"/><line x1="250.65" y1="123.40" x2="259.19" y2="119.03"/><line x1="291.81" y1="329.38" x2="323.41" y2="266.43"/><line x1="187.19" y1="244.05" x2="264.82" y2="382.81"/><line x1="239.85" y1="394.56" x2="242.53" y2="394.45"/><line x1="323.41" y1="266.43" x2="353.61" y2="379.75"/><line x1="218.08" y1="181.09" x2="140.14" y2="117.44"/><line x1="264.82" y1="382.81" x2="266.10" y2="380.98"/><line x1="187.19" y1="244.05" x2="252.21" y2="392.31"/><line x1="259.19" y1="119.03" x2="248.87" y2="124.84"/><line x1="187.19" y1="244.05" x2="267.23" y2="379.04"/><line x1="252.58" y1="122.07" x2="256.84" y2="119.86"/><line x1="243.07" y1="131.59" x2="241.96" y2="133.53"/><line x1="323.41" y1="266.43" x2="358.34" y2="383.46"/><line x1="353.61" y1="379.75" x2="355.94" y2="381.67"/><line x1="270.04" y1="117.44" x2="323.41" y2="266.43"/><line x1="261.69" y1="118.36" x2="247.22" y2="126.37"/><line x1="187.19" y1="244.05" x2="32.00" y2="117.44"/><line x1="266.10" y1="380.98" x2="267.23" y2="379.04"/><line x1="368.67" y1="389.42" x2="371.42" y2="390.59"/><line x1="187.19" y1="244.05" x2="256.44" y2="390.24"/><line x1="187.19" y1="244.05" x2="323.41" y2="266.43"/><line x1="358.34" y1="383.46" x2="360.83" y2="385.14"/><line x1="252.58" y1="122.07" x2="250.65" y2="123.40"/><line x1="267.23" y1="379.04" x2="291.81" y2="329.38"/><line x1="241.96" y1="133.53" x2="264.33" y2="117.88"/><line x1="261.69" y1="118.36" x2="244.32" y2="129.74"/><line x1="247.22" y1="126.37" x2="245.70" y2="128.00"/></g></svg>