<svg xmlns="http://www.w3.org/2000/svg" width="512" height="512"><rect width="512" height="512" fill="#0a0f1a"/><text x="12" y="20" font-family="monospace" font-size="11" fill="#4a7fa5">FRONT (XZ)</text><g stroke="#00d4ff" stroke-width="0.6" opacity="0.85"><line x1="99.54" y1="238.66" x2="82.09" y2="255.01"/><line x1="253.76" y1="230.20" x2="255.25" y2="228.32"/><line x1="110.12" y1="236.07" x2="104.57" y2="237.08"/><line x1="116.16" y1="235.63" x2="80.42" y2="281.22"/><line x1="247.73" y1="234.17" x2="258.50" y2="276.60"/><line x1="244.49" y1="286.16" x2="245.69" y2="284.01"/><line x1="381.13" y1="122.10" x2="377.25" y2="116.85"/><line x1="261.52" y1="276.37" x2="255.25" y2="228.32"/><line x1="291.81" y1="382.59" x2="288.76" y2="381.83"/><line x1="244.52" y1="301.82" x2="155.31" y2="418.96"/><line x1="179.91" y1="424.16" x2="244.52" y2="301.82"/><line x1="242.96" y1="293.41" x2="116.16" y2="235.63"/><line x1="244.52" y1="301.82" x2="113.51" y2="378.45"/><line x1="250.95" y1="279.02" x2="253.22" y2="277.92"/><line x1="377.25" y1="116.85" x2="372.91" y2="111.90"/><line x1="257.31" y1="223.94" x2="409.94" y2="268.46"/><line x1="257.31" y1="223.94" x2="418.80" y2="224.60"/><line x1="261.52" y1="424.16" x2="282.83" y2="379.46"/><line x1="116.16" y1="235.63" x2="243.12" y2="290.86"/><line x1="389.89" y1="139.75" x2="387.45" y2="133.55"/><line x1="267.83" y1="366.58" x2="266.06" y2="363.82"/><line x1="255.25" y1="228.32" x2="256.46" y2="226.21"/><line x1="298.08" y1="383.29" x2="261.52" y2="424.16"/><line x1="261.52" y1="276.37" x2="257.31" y2="223.94"/><line x1="203.72" y1="128.71" x2="147.61" y2="87.84"/><line x1="179.91" y1="424.16" x2="274.47" y2="373.86"/><line x1="244.52" y1="301.82" x2="143.75" y2="412.93"/><line x1="288.76" y1="381.83" x2="285.76" y2="380.78"/><line x1="82.09" y1="255.01" x2="84.49" y2="250.70"/><line x1="244.52" y1="301.82" x2="82.16" y2="287.40"/><line x1="256.46" y1="226.21" x2="257.31" y2="223.94"/><line x1="256.42" y1="210.18" x2="339.67" y2="90.87"/><line x1="345.64" y1="93.04" x2="339.67" y2="90.87"/><line x1="257.31" y1="223.94" x2="416.46" y2="261.30"/><line x1="237.72" y1="154.17" x2="236.41" y2="151.24"/><line x1="274.47" y1="373.86" x2="272.03" y2="371.60"/><line x1="261.52" y1="424.16" x2="277.14" y2="375.97"/><line x1="248.95" y1="280.39" x2="250.95" y2="279.02"/><line x1="116.16" y1="235.63" x2="244.49" y2="286.16"/><line x1="321.03" y1="87.84" x2="228.96" y2="140.79"/><line x1="243.12" y1="290.86" x2="243.63" y2="288.45"/><line x1="418.80" y1="224.60" x2="258.00" y2="218.93"/><line x1="339.67" y1="90.87" x2="333.58" y2="89.29"/><line x1="222.42" y1="35.98" x2="129.76" y2="35.98"/><line x1="243.65" y1="298.89" x2="243.13" y2="296.08"/><line x1="179.91" y1="424.16" x2="269.82" y2="369.17"/><line x1="244.52" y1="301.82" x2="132.86" y2="404.73"/><line x1="362.79" y1="102.95" x2="357.20" y2="99.07"/><line x1="405.93" y1="271.19" x2="409.94" y2="268.46"/><line x1="256.42" y1="210.18" x2="377.25" y2="116.85"/><line x1="257.31" y1="223.94" x2="384.79" y2="276.37"/><line x1="256.42" y1="210.18" x2="327.37" y2="88.27"/><line x1="258.50" y1="276.60" x2="261.52" y2="276.37"/><line x1="420.57" y1="252.37" x2="421.59" y2="247.45"/><line x1="257.31" y1="223.94" x2="420.57" y2="252.37"/><line x1="272.03" y1="371.60" x2="269.82" y2="369.17"/><line x1="252.00" y1="231.80" x2="253.76" y2="230.20"/><line x1="239.42" y1="87.84" x2="218.33" y2="132.74"/><line x1="409.94" y1="268.46" x2="413.46" y2="265.17"/><line x1="321.03" y1="87.84" x2="223.91" y2="136.35"/><line x1="418.80" y1="224.60" x2="257.29" y2="213.25"/><line x1="333.58" y1="89.29" x2="327.37" y2="88.27"/><line x1="223.91" y1="136.35" x2="239.42" y2="87.84"/><line x1="279.96" y1="377.85" x2="277.14" y2="375.97"/><line x1="244.52" y1="301.82" x2="173.58" y2="423.73"/><line x1="390.84" y1="275.93" x2="396.37" y2="274.92"/><line x1="466.40" y1="383.29" x2="480.00" y2="424.16"/><line x1="179.91" y1="424.16" x2="266.06" y2="363.82"/><line x1="244.52" y1="301.82" x2="123.69" y2="395.15"/><line x1="245.21" y1="234.94" x2="247.73" y2="234.17"/><line x1="80.42" y1="281.22" x2="110.12" y2="236.07"/><line x1="256.42" y1="210.18" x2="368.09" y2="107.27"/><line x1="357.20" y1="99.07" x2="351.48" y2="95.76"/><line x1="233.13" y1="145.75" x2="231.16" y2="143.21"/><line x1="257.31" y1="223.94" x2="396.37" y2="274.92"/><line x1="353.33" y1="424.16" x2="298.08" y2="383.29"/><line x1="327.37" y1="88.27" x2="321.03" y2="87.84"/><line x1="256.42" y1="210.18" x2="237.72" y2="154.17"/><line x1="257.31" y1="223.94" x2="421.93" y2="242.20"/><line x1="277.14" y1="375.97" x2="179.91" y2="424.16"/><line x1="245.69" y1="284.01" x2="247.20" y2="282.05"/><line x1="99.54" y1="238.66" x2="80.38" y2="259.63"/><line x1="321.03" y1="87.84" x2="237.72" y2="154.17"/><line x1="110.12" y1="236.07" x2="79.37" y2="275.35"/><line x1="351.48" y1="95.76" x2="345.64" y2="93.04"/><line x1="239.42" y1="87.84" x2="212.60" y2="130.28"/><line x1="413.46" y1="265.17" x2="416.46" y2="261.30"/><line x1="418.80" y1="224.60" x2="389.89" y2="139.75"/><line x1="79.37" y1="275.35" x2="104.57" y2="237.08"/><line x1="247.20" y1="282.05" x2="248.95" y2="280.39"/><line x1="244.52" y1="301.82" x2="161.28" y2="421.13"/><line x1="173.58" y1="423.73" x2="167.37" y2="422.71"/><line x1="179.91" y1="424.16" x2="263.23" y2="357.83"/><line x1="396.37" y1="274.92" x2="401.40" y2="273.34"/><line x1="255.73" y1="277.12" x2="258.50" y2="276.60"/><line x1="416.46" y1="261.30" x2="418.86" y2="256.99"/><line x1="256.42" y1="210.18" x2="357.20" y2="99.07"/><line x1="257.31" y1="223.94" x2="405.93" y2="271.19"/><line x1="353.33" y1="424.16" x2="371.19" y2="476.02"/><line x1="231.16" y1="143.21" x2="228.96" y2="140.79"/><line x1="266.06" y1="363.82" x2="264.53" y2="360.91"/><line x1="257.31" y1="223.94" x2="420.53" y2="230.78"/><line x1="239.42" y1="235.63" x2="242.44" y2="235.43"/><line x1="167.37" y1="422.71" x2="161.28" y2="421.13"/><line x1="99.54" y1="238.66" x2="95.02" y2="240.81"/><line x1="401.40" y1="273.34" x2="405.93" y2="271.19"/><line x1="80.38" y1="259.63" x2="82.09" y2="255.01"/><line x1="321.03" y1="87.84" x2="234.88" y2="148.43"/><line x1="239.42" y1="87.84" x2="206.72" y2="128.95"/><line x1="228.96" y1="140.79" x2="226.54" y2="138.51"/><line x1="95.02" y1="240.81" x2="87.50" y2="246.83"/><line x1="264.53" y1="360.91" x2="263.23" y2="357.83"/><line x1="104.57" y1="237.08" x2="79.02" y2="269.80"/><line x1="244.52" y1="301.82" x2="149.47" y2="416.24"/><line x1="116.16" y1="235.63" x2="239.42" y2="235.63"/><line x1="179.91" y1="424.16" x2="173.58" y2="423.73"/><line x1="242.96" y1="293.41" x2="243.12" y2="290.86"/><line x1="82.09" y1="255.01" x2="95.02" y2="240.81"/><line x1="256.42" y1="210.18" x2="387.45" y2="133.55"/><line x1="420.53" y1="230.78" x2="418.80" y2="224.60"/><line x1="256.42" y1="210.18" x2="345.64" y2="93.04"/><line x1="236.41" y1="151.24" x2="234.88" y2="148.43"/><line x1="203.72" y1="128.71" x2="45.60" y2="128.71"/><line x1="257.31" y1="223.94" x2="413.46" y2="265.17"/><line x1="79.02" y1="269.80" x2="79.35" y2="264.55"/><line x1="132.86" y1="404.73" x2="128.04" y2="400.10"/><line x1="253.22" y1="277.92" x2="245.21" y2="234.94"/><line x1="161.28" y1="421.13" x2="155.31" y2="418.96"/><line x1="321.03" y1="87.84" x2="231.16" y2="143.21"/><line x1="147.61" y1="87.84" x2="45.60" y2="128.71"/><line x1="418.80" y1="224.60" x2="257.83" y2="221.51"/><line x1="239.42" y1="87.84" x2="222.42" y2="35.98"/><line x1="155.31" y1="418.96" x2="149.47" y2="416.24"/><line x1="298.08" y1="383.29" x2="294.91" y2="383.08"/><line x1="116.16" y1="235.63" x2="247.20" y2="282.05"/><line x1="278.53" y1="476.02" x2="261.52" y2="424.16"/><line x1="263.23" y1="357.83" x2="244.52" y2="301.82"/><line x1="104.57" y1="237.08" x2="99.54" y2="238.66"/><line x1="179.91" y1="424.16" x2="272.03" y2="371.60"/><line x1="128.04" y1="400.10" x2="123.69" y2="395.15"/><line x1="249.99" y1="233.13" x2="252.00" y2="231.80"/><line x1="421.59" y1="247.45" x2="421.93" y2="242.20"/><line x1="256.42" y1="210.18" x2="381.13" y2="122.10"/><line x1="234.88" y1="148.43" x2="233.13" y2="145.75"/><line x1="256.42" y1="210.18" x2="333.58" y2="89.29"/><line x1="212.60" y1="130.28" x2="209.69" y2="129.47"/><line x1="269.82" y1="369.17" x2="267.83" y2="366.58"/><line x1="149.47" y1="416.24" x2="143.75" y2="412.93"/><line x1="82.16" y1="287.40" x2="243.13" y2="296.08"/><line x1="79.35" y1="264.55" x2="99.54" y2="238.66"/><line x1="242.44" y1="235.43" x2="245.21" y2="234.94"/><line x1="321.03" y1="87.84" x2="226.54" y2="138.51"/><line x1="239.42" y1="87.84" x2="221.14" y2="134.40"/><line x1="261.52" y1="424.16" x2="291.81" y2="382.59"/><line x1="116.16" y1="235.63" x2="250.95" y2="279.02"/><line x1="87.50" y1="246.83" x2="91.00" y2="243.54"/><line x1="179.91" y1="424.16" x2="267.83" y2="366.58"/><line x1="261.52" y1="276.37" x2="253.76" y2="230.20"/><line x1="421.93" y1="242.20" x2="421.57" y2="236.65"/><line x1="256.42" y1="210.18" x2="372.91" y2="111.90"/><line x1="387.45" y1="133.55" x2="384.52" y2="127.67"/><line x1="257.31" y1="223.94" x2="390.84" y2="275.93"/><line x1="353.33" y1="424.16" x2="480.00" y2="424.16"/><line x1="256.42" y1="210.18" x2="321.03" y2="87.84"/><line x1="244.52" y1="301.82" x2="116.43" y2="384.33"/><line x1="143.75" y1="412.93" x2="138.16" y2="409.05"/><line x1="250.95" y1="279.02" x2="239.42" y2="235.63"/><line x1="257.82" y1="216.17" x2="257.29" y2="213.25"/><line x1="82.16" y1="287.40" x2="116.16" y2="235.63"/><line x1="421.57" y1="236.65" x2="420.53" y2="230.78"/><line x1="239.42" y1="87.84" x2="215.49" y2="131.36"/><line x1="321.03" y1="87.84" x2="239.42" y2="87.84"/><line x1="221.14" y1="134.40" x2="218.33" y2="132.74"/><line x1="261.52" y1="424.16" x2="285.76" y2="380.78"/><line x1="116.16" y1="235.63" x2="110.12" y2="236.07"/><line x1="138.16" y1="409.05" x2="132.86" y2="404.73"/><line x1="247.73" y1="234.17" x2="249.99" y2="233.13"/><line x1="418.86" y1="256.99" x2="420.57" y2="252.37"/><line x1="82.16" y1="287.40" x2="80.42" y2="281.22"/><line x1="203.72" y1="128.71" x2="222.42" y2="35.98"/><line x1="261.52" y1="276.37" x2="256.46" y2="226.21"/><line x1="256.42" y1="210.18" x2="362.79" y2="102.95"/><line x1="218.33" y1="132.74" x2="215.49" y2="131.36"/><line x1="353.33" y1="424.16" x2="278.53" y2="476.02"/><line x1="244.52" y1="301.82" x2="111.06" y2="372.26"/><line x1="215.49" y1="131.36" x2="212.60" y2="130.28"/><line x1="239.42" y1="235.63" x2="253.22" y2="277.92"/><line x1="226.54" y1="138.51" x2="223.91" y2="136.35"/><line x1="321.03" y1="87.84" x2="236.41" y2="151.24"/><line x1="257.29" y1="213.25" x2="256.42" y2="210.18"/><line x1="257.31" y1="223.94" x2="257.83" y2="221.51"/><line x1="239.42" y1="87.84" x2="209.69" y2="129.47"/><line x1="261.52" y1="424.16" x2="279.96" y2="377.85"/><line x1="116.16" y1="235.63" x2="243.63" y2="288.45"/><line x1="298.08" y1="383.29" x2="278.53" y2="476.02"/><line x1="95.02" y1="240.81" x2="84.49" y2="250.70"/><line x1="79.37" y1="275.35" x2="79.02" y2="269.80"/><line x1="113.51" y1="378.45" x2="111.06" y2="372.26"/><line x1="256.42" y1="210.18" x2="389.89" y2="139.75"/><line x1="261.52" y1="276.37" x2="384.79" y2="276.37"/><line x1="222.42" y1="35.98" x2="147.61" y2="87.84"/><line x1="256.42" y1="210.18" x2="351.48" y2="95.76"/><line x1="244.52" y1="301.82" x2="138.16" y2="409.05"/><line x1="244.52" y1="301.82" x2="243.65" y2="298.89"/><line x1="111.06" y1="372.26" x2="82.16" y2="287.40"/><line x1="257.83" y1="221.51" x2="258.00" y2="218.93"/><line x1="258.50" y1="276.60" x2="249.99" y2="233.13"/><line x1="257.31" y1="223.94" x2="418.86" y2="256.99"/><line x1="253.22" y1="277.92" x2="242.44" y2="235.43"/><line x1="321.03" y1="87.84" x2="233.13" y2="145.75"/><line x1="147.61" y1="87.84" x2="129.76" y2="35.98"/><line x1="239.42" y1="87.84" x2="203.72" y2="128.71"/><line x1="261.52" y1="424.16" x2="179.91" y2="424.16"/><line x1="123.69" y1="395.15" x2="119.82" y2="389.90"/><line x1="116.16" y1="235.63" x2="245.69" y2="284.01"/><line x1="95.02" y1="240.81" x2="91.00" y2="243.54"/><line x1="278.53" y1="476.02" x2="371.19" y2="476.02"/><line x1="84.49" y1="250.70" x2="87.50" y2="246.83"/><line x1="104.57" y1="237.08" x2="79.35" y2="264.55"/><line x1="249.99" y1="233.13" x2="261.52" y2="276.37"/><line x1="418.80" y1="224.60" x2="257.82" y2="216.17"/><line x1="209.69" y1="129.47" x2="206.72" y2="128.95"/><line x1="372.91" y1="111.90" x2="368.09" y2="107.27"/><line x1="256.42" y1="210.18" x2="384.52" y2="127.67"/><line x1="466.40" y1="383.29" x2="353.33" y2="424.16"/><line x1="244.52" y1="301.82" x2="128.04" y2="400.10"/><line x1="285.76" y1="380.78" x2="282.83" y2="379.46"/><line x1="245.21" y1="234.94" x2="255.73" y2="277.12"/><line x1="82.16" y1="287.40" x2="243.65" y2="298.89"/><line x1="258.00" y1="218.93" x2="257.82" y2="216.17"/><line x1="368.09" y1="107.27" x2="362.79" y2="102.95"/><line x1="257.31" y1="223.94" x2="421.59" y2="247.45"/><line x1="253.22" y1="277.92" x2="255.73" y2="277.12"/><line x1="261.52" y1="424.16" x2="294.91" y2="383.08"/><line x1="147.61" y1="87.84" x2="32.00" y2="87.84"/><line x1="119.82" y1="389.90" x2="116.43" y2="384.33"/><line x1="116.16" y1="235.63" x2="248.95" y2="280.39"/><line x1="243.63" y1="288.45" x2="244.49" y2="286.16"/><line x1="384.52" y1="127.67" x2="381.13" y2="122.10"/><line x1="418.80" y1="224.60" x2="256.42" y2="210.18"/><line x1="261.52" y1="276.37" x2="252.00" y2="231.80"/><line x1="206.72" y1="128.95" x2="203.72" y2="128.71"/><line x1="223.91" y1="136.35" x2="221.14" y2="134.40"/><line x1="244.52" y1="301.82" x2="167.37" y2="422.71"/><line x1="243.13" y1="296.08" x2="242.96" y2="293.41"/><line x1="45.60" y1="128.71" x2="32.00" y2="87.84"/><line x1="466.40" y1="383.29" x2="298.08" y2="383.29"/><line x1="179.91" y1="424.16" x2="264.53" y2="360.91"/><line x1="244.52" y1="301.82" x2="119.82" y2="389.90"/><line x1="116.43" y1="384.33" x2="113.51" y2="378.45"/><line x1="80.42" y1="281.22" x2="79.37" y2="275.35"/><line x1="282.83" y1="379.46" x2="279.96" y2="377.85"/><line x1="255.73" y1="277.12" x2="247.73" y2="234.17"/><line x1="384.79" y1="276.37" x2="390.84" y2="275.93"/><line x1="257.31" y1="223.94" x2="401.40" y2="273.34"/><line x1="82.16" y1="287.40" x2="242.96" y2="293.41"/><line x1="79.35" y1="264.55" x2="80.38" y2="259.63"/><line x1="257.31" y1="223.94" x2="421.57" y2="236.65"/><line x1="277.14" y1="375.97" x2="274.47" y2="373.86"/><line x1="261.52" y1="424.16" x2="288.76" y2="381.83"/><line x1="294.91" y1="383.08" x2="291.81" y2="382.59"/></g></svg>