<svg xmlns="http://www.w3.org/2000/svg" width="512" height="512"><rect width="512" height="512" fill="#0a0f1a"/><text x="12" y="20" font-family="monospace" font-size="11" fill="#4a7fa5">FRONT (XZ)</text><g stroke="#00d4ff" stroke-width="0.6" opacity="0.85"><line x1="228.21" y1="330.43" x2="328.54" y2="321.57"/><line x1="374.38" y1="330.43" x2="479.10" y2="334.84"/><line x1="373.81" y1="321.57" x2="387.14" y2="148.09"/><line x1="183.46" y1="190.43" x2="283.91" y2="188.54"/><line x1="374.38" y1="330.43" x2="469.73" y2="360.85"/><line x1="309.76" y1="174.19" x2="311.68" y2="174.52"/><line x1="149.10" y1="174.04" x2="147.15" y2="174.19"/><line x1="152.01" y1="230.19" x2="153.14" y2="231.91"/><line x1="95.63" y1="348.74" x2="98.72" y2="351.72"/><line x1="344.92" y1="337.02" x2="343.00" y2="336.35"/><line x1="311.68" y1="174.52" x2="313.58" y2="175.04"/><line x1="32.21" y1="166.43" x2="32.00" y2="169.81"/><line x1="463.61" y1="363.26" x2="460.05" y2="363.91"/><line x1="343.00" y1="336.35" x2="341.12" y2="335.50"/><line x1="182.62" y1="188.54" x2="181.64" y2="186.73"/><line x1="32.00" y1="169.81" x2="32.23" y2="173.39"/><line x1="182.37" y1="321.57" x2="90.36" y2="342.19"/><line x1="116.96" y1="362.24" x2="120.86" y2="363.26"/><line x1="182.37" y1="321.57" x2="120.86" y2="363.26"/><line x1="181.64" y1="186.73" x2="284.74" y2="180.34"/><line x1="137.62" y1="181.82" x2="48.39" y2="148.74"/><line x1="322.70" y1="180.34" x2="324.26" y2="181.82"/><line x1="55.83" y1="147.81" x2="138.94" y2="178.96"/><line x1="150.19" y1="226.50" x2="92.76" y2="268.83"/><line x1="137.62" y1="181.82" x2="32.00" y2="169.81"/><line x1="162.77" y1="240.29" x2="164.65" y2="241.18"/><line x1="120.86" y1="363.26" x2="124.85" y2="363.91"/><line x1="335.76" y1="331.89" x2="225.93" y2="334.46"/><line x1="373.81" y1="321.57" x2="406.33" y2="155.02"/><line x1="374.38" y1="330.43" x2="479.13" y2="348.74"/><line x1="324.26" y1="181.82" x2="325.66" y2="183.37"/><line x1="368.24" y1="337.02" x2="366.62" y2="337.51"/><line x1="225.93" y1="334.46" x2="334.19" y2="330.43"/><line x1="177.81" y1="181.82" x2="176.24" y2="180.34"/><line x1="137.63" y1="188.54" x2="138.19" y2="190.43"/><line x1="176.24" y1="180.34" x2="287.58" y2="176.63"/><line x1="374.82" y1="327.20" x2="374.71" y2="328.87"/><line x1="182.37" y1="321.57" x2="102.13" y2="354.49"/><line x1="188.01" y1="330.43" x2="189.59" y2="331.89"/><line x1="210.18" y1="269.11" x2="166.57" y2="241.88"/><line x1="55.83" y1="147.81" x2="145.38" y2="174.52"/><line x1="150.19" y1="226.50" x2="73.77" y2="261.90"/><line x1="137.62" y1="181.82" x2="37.43" y2="155.02"/><line x1="413.37" y1="160.28" x2="409.94" y2="157.51"/><line x1="373.81" y1="321.57" x2="419.36" y2="166.43"/><line x1="228.21" y1="330.43" x2="329.38" y2="323.55"/><line x1="373.81" y1="321.57" x2="391.14" y2="148.74"/><line x1="34.01" y1="181.14" x2="137.30" y2="186.73"/><line x1="60.75" y1="250.49" x2="63.58" y2="253.67"/><line x1="456.17" y1="364.19" x2="362.90" y2="337.96"/><line x1="409.94" y1="157.51" x2="406.33" y2="155.02"/><line x1="182.37" y1="321.57" x2="88.18" y2="338.61"/><line x1="479.10" y1="334.84" x2="479.77" y2="338.61"/><line x1="182.37" y1="321.57" x2="116.96" y2="362.24"/><line x1="150.19" y1="226.50" x2="58.24" y2="247.12"/><line x1="373.81" y1="321.57" x2="424.17" y2="173.39"/><line x1="55.83" y1="147.81" x2="139.90" y2="177.70"/><line x1="150.19" y1="226.50" x2="88.85" y2="268.18"/><line x1="128.92" y1="364.19" x2="193.11" y2="334.46"/><line x1="373.81" y1="321.57" x2="409.94" y2="157.51"/><line x1="456.17" y1="364.19" x2="370.97" y2="335.50"/><line x1="186.59" y1="328.87" x2="188.01" y2="330.43"/><line x1="424.17" y1="173.39" x2="421.91" y2="169.81"/><line x1="147.15" y1="174.19" x2="55.83" y2="147.81"/><line x1="416.51" y1="163.26" x2="413.37" y2="160.28"/><line x1="330.36" y1="325.43" x2="228.21" y2="330.43"/><line x1="58.24" y1="247.12" x2="60.75" y2="250.49"/><line x1="182.37" y1="321.57" x2="98.72" y2="351.72"/><line x1="182.37" y1="321.57" x2="183.20" y2="323.55"/><line x1="290.21" y1="175.04" x2="291.75" y2="174.52"/><line x1="150.19" y1="226.50" x2="70.15" y2="259.41"/><line x1="128.92" y1="364.19" x2="185.32" y2="327.20"/><line x1="426.13" y1="177.16" x2="424.17" y2="173.39"/><line x1="198.75" y1="337.02" x2="200.70" y2="337.51"/><line x1="128.92" y1="364.19" x2="200.70" y2="337.51"/><line x1="180.51" y1="185.01" x2="179.23" y2="183.37"/><line x1="291.75" y1="174.52" x2="383.08" y2="147.81"/><line x1="96.74" y1="269.11" x2="154.41" y2="233.55"/><line x1="34.01" y1="181.14" x2="137.18" y2="185.01"/><line x1="138.94" y1="178.96" x2="138.17" y2="180.34"/><line x1="373.81" y1="321.57" x2="395.05" y2="149.76"/><line x1="226.88" y1="333.25" x2="227.66" y2="331.89"/><line x1="200.70" y1="337.51" x2="202.70" y2="337.83"/><line x1="456.17" y1="364.19" x2="364.85" y2="337.83"/><line x1="285.52" y1="178.96" x2="286.48" y2="177.70"/><line x1="228.20" y1="323.55" x2="227.64" y2="321.57"/><line x1="138.17" y1="180.34" x2="137.62" y2="181.82"/><line x1="81.19" y1="265.78" x2="84.99" y2="267.16"/><line x1="227.64" y1="321.57" x2="210.18" y2="269.11"/><line x1="163.12" y1="174.19" x2="161.09" y2="174.04"/><line x1="84.99" y1="267.16" x2="88.85" y2="268.18"/><line x1="182.37" y1="321.57" x2="86.31" y2="334.84"/><line x1="220.45" y1="337.51" x2="222.06" y2="337.02"/><line x1="161.09" y1="174.04" x2="149.10" y2="174.04"/><line x1="150.19" y1="226.50" x2="56.04" y2="243.54"/><line x1="39.69" y1="152.90" x2="37.43" y2="155.02"/><line x1="329.63" y1="190.43" x2="373.81" y2="321.57"/><line x1="373.81" y1="321.57" x2="426.13" y2="177.16"/><line x1="150.19" y1="226.50" x2="84.99" y2="267.16"/><line x1="476.49" y1="354.49" x2="474.57" y2="356.98"/><line x1="128.92" y1="364.19" x2="191.30" y2="333.25"/><line x1="328.54" y1="321.57" x2="228.53" y2="325.43"/><line x1="222.06" y1="337.02" x2="223.51" y2="336.35"/><line x1="283.91" y1="188.54" x2="283.67" y2="186.73"/><line x1="37.43" y1="155.02" x2="35.51" y2="157.51"/><line x1="96.74" y1="269.11" x2="160.92" y2="239.22"/><line x1="153.14" y1="231.91" x2="154.41" y2="233.55"/><line x1="456.17" y1="364.19" x2="372.10" y2="334.46"/><line x1="341.12" y1="335.50" x2="339.28" y2="334.46"/><line x1="283.67" y1="186.73" x2="283.63" y2="185.01"/><line x1="313.58" y1="175.04" x2="315.46" y2="175.74"/><line x1="154.41" y1="233.55" x2="155.84" y2="235.11"/><line x1="456.17" y1="364.19" x2="218.67" y2="337.83"/><line x1="102.13" y1="354.49" x2="105.71" y2="356.98"/><line x1="456.17" y1="364.19" x2="350.91" y2="337.96"/><line x1="315.46" y1="175.74" x2="317.32" y2="176.63"/><line x1="373.83" y1="331.89" x2="373.06" y2="333.25"/><line x1="32.90" y1="177.16" x2="34.01" y2="181.14"/><line x1="128.92" y1="364.19" x2="184.19" y2="325.43"/><line x1="334.19" y1="330.43" x2="332.77" y2="328.87"/><line x1="128.92" y1="364.19" x2="198.75" y2="337.02"/><line x1="328.54" y1="321.57" x2="172.55" y2="242.89"/><line x1="180.51" y1="185.01" x2="285.52" y2="178.96"/><line x1="96.74" y1="269.11" x2="153.14" y2="231.91"/><line x1="166.57" y1="241.88" x2="168.52" y2="242.40"/><line x1="383.08" y1="147.81" x2="55.83" y2="147.81"/><line x1="226.88" y1="333.25" x2="331.49" y2="327.20"/><line x1="456.17" y1="364.19" x2="366.62" y2="337.51"/><line x1="52.56" y1="235.78" x2="54.14" y2="239.76"/><line x1="284.16" y1="181.82" x2="284.74" y2="180.34"/><line x1="373.81" y1="321.57" x2="427.81" y2="181.14"/><line x1="98.72" y1="351.72" x2="102.13" y2="354.49"/><line x1="128.92" y1="364.19" x2="189.59" y2="331.89"/><line x1="328.54" y1="321.57" x2="228.64" y2="327.20"/><line x1="383.08" y1="147.81" x2="311.68" y2="174.52"/><line x1="456.17" y1="364.19" x2="374.38" y2="330.43"/><line x1="96.74" y1="269.11" x2="159.12" y2="237.97"/><line x1="383.08" y1="147.81" x2="326.90" y2="185.01"/><line x1="169.00" y1="175.74" x2="167.08" y2="175.04"/><line x1="477.99" y1="330.86" x2="374.37" y2="323.55"/><line x1="32.23" y1="173.39" x2="32.90" y2="177.16"/><line x1="456.17" y1="364.19" x2="216.73" y2="337.96"/><line x1="284.74" y1="180.34" x2="180.51" y2="185.01"/><line x1="124.85" y1="363.91" x2="128.92" y2="364.19"/><line x1="325.66" y1="183.37" x2="326.90" y2="185.01"/><line x1="170.88" y1="176.63" x2="169.00" y2="175.74"/><line x1="200.91" y1="242.89" x2="183.46" y2="190.43"/><line x1="334.19" y1="330.43" x2="226.88" y2="333.25"/><line x1="328.54" y1="321.57" x2="210.18" y2="269.11"/><line x1="383.08" y1="147.81" x2="161.09" y2="174.04"/><line x1="326.90" y1="185.01" x2="327.97" y2="186.73"/><line x1="96.74" y1="269.11" x2="152.01" y2="230.19"/><line x1="383.08" y1="147.81" x2="319.16" y2="177.70"/><line x1="383.08" y1="147.81" x2="147.15" y2="174.19"/><line x1="364.85" y1="337.83" x2="362.90" y2="337.96"/><line x1="226.88" y1="333.25" x2="332.77" y2="328.87"/><line x1="287.58" y1="176.63" x2="174.53" y2="178.96"/><line x1="52.56" y1="235.78" x2="150.19" y2="226.50"/><line x1="189.59" y1="331.89" x2="191.30" y2="333.25"/><line x1="456.17" y1="364.19" x2="223.51" y2="336.35"/><line x1="174.53" y1="178.96" x2="172.72" y2="177.70"/><line x1="145.38" y1="174.52" x2="143.76" y2="175.04"/><line x1="374.37" y1="323.55" x2="373.81" y2="321.57"/><line x1="224.80" y1="335.50" x2="225.93" y2="334.46"/><line x1="191.30" y1="333.25" x2="193.11" y2="334.46"/><line x1="223.51" y1="336.35" x2="339.28" y2="334.46"/><line x1="284.16" y1="181.82" x2="181.64" y2="186.73"/><line x1="329.38" y1="323.55" x2="328.54" y2="321.57"/><line x1="143.76" y1="175.04" x2="142.31" y2="175.74"/><line x1="183.46" y1="190.43" x2="284.16" y2="181.82"/><line x1="374.38" y1="330.43" x2="373.83" y2="331.89"/><line x1="406.33" y1="155.02" x2="402.65" y2="152.90"/><line x1="328.54" y1="321.57" x2="228.54" y2="328.87"/><line x1="164.65" y1="241.18" x2="166.57" y2="241.88"/><line x1="383.08" y1="147.81" x2="169.00" y2="175.74"/><line x1="383.08" y1="147.81" x2="309.76" y2="174.19"/><line x1="66.71" y1="256.64" x2="70.15" y2="259.41"/><line x1="383.08" y1="147.81" x2="325.66" y2="183.37"/><line x1="202.70" y1="337.83" x2="456.17" y2="364.19"/><line x1="286.48" y1="177.70" x2="287.58" y2="176.63"/><line x1="366.62" y1="337.51" x2="364.85" y2="337.83"/><line x1="477.99" y1="330.86" x2="374.71" y2="328.87"/><line x1="479.77" y1="338.61" x2="480.00" y2="342.19"/><line x1="456.17" y1="364.19" x2="204.73" y2="337.96"/><line x1="138.19" y1="190.43" x2="52.56" y2="235.78"/><line x1="51.95" y1="148.09" x2="48.39" y2="148.74"/><line x1="223.51" y1="336.35" x2="346.88" y2="337.51"/><line x1="172.55" y1="242.89" x2="200.91" y2="242.89"/><line x1="137.62" y1="181.82" x2="137.29" y2="183.37"/><line x1="92.76" y1="268.83" x2="96.74" y2="269.11"/><line x1="374.38" y1="330.43" x2="472.31" y2="359.10"/><line x1="88.18" y1="338.61" x2="90.36" y2="342.19"/><line x1="170.88" y1="176.63" x2="383.08" y2="147.81"/><line x1="295.27" y1="174.04" x2="307.82" y2="174.04"/><line x1="383.08" y1="147.81" x2="163.12" y2="174.19"/><line x1="84.73" y1="330.86" x2="86.31" y2="334.84"/><line x1="383.08" y1="147.81" x2="317.32" y2="176.63"/><line x1="472.31" y1="359.10" x2="469.73" y2="360.85"/><line x1="63.58" y1="253.67" x2="66.71" y2="256.64"/><line x1="477.99" y1="330.86" x2="427.81" y2="181.14"/><line x1="339.28" y1="334.46" x2="337.47" y2="333.25"/><line x1="137.62" y1="181.82" x2="51.95" y2="148.09"/><line x1="224.80" y1="335.50" x2="335.76" y2="331.89"/><line x1="137.62" y1="181.82" x2="32.21" y2="166.43"/><line x1="223.51" y1="336.35" x2="350.91" y2="337.96"/><line x1="374.38" y1="330.43" x2="479.79" y2="345.57"/><line x1="183.46" y1="190.43" x2="283.80" y2="183.37"/><line x1="374.38" y1="330.43" x2="460.05" y2="363.91"/><line x1="179.23" y1="183.37" x2="177.81" y2="181.82"/><line x1="383.08" y1="147.81" x2="307.82" y2="174.04"/><line x1="210.18" y1="269.11" x2="172.55" y2="242.89"/><line x1="477.99" y1="330.86" x2="374.82" y2="327.20"/><line x1="419.36" y1="166.43" x2="416.51" y2="163.26"/><line x1="86.31" y1="334.84" x2="88.18" y2="338.61"/><line x1="331.49" y1="327.20" x2="330.36" y2="325.43"/><line x1="210.18" y1="269.11" x2="164.65" y2="241.18"/><line x1="137.62" y1="181.82" x2="39.69" y2="152.90"/><line x1="223.51" y1="336.35" x2="348.88" y2="337.83"/><line x1="288.82" y1="175.74" x2="290.21" y2="175.04"/><line x1="55.83" y1="147.81" x2="51.95" y2="148.09"/><line x1="137.62" y1="181.82" x2="34.01" y2="181.14"/><line x1="374.38" y1="330.43" x2="474.57" y2="356.98"/><line x1="283.63" y1="185.01" x2="283.80" y2="183.37"/><line x1="33.97" y1="160.28" x2="32.87" y2="163.26"/><line x1="84.73" y1="330.86" x2="182.37" y2="321.57"/><line x1="105.71" y1="356.98" x2="109.38" y2="359.10"/><line x1="350.91" y1="337.96" x2="362.90" y2="337.96"/><line x1="157.40" y1="236.58" x2="159.12" y2="237.97"/><line x1="339.28" y1="334.46" x2="224.80" y2="335.50"/><line x1="182.37" y1="321.57" x2="113.13" y2="360.85"/><line x1="372.10" y1="334.46" x2="370.97" y2="335.50"/><line x1="55.83" y1="147.81" x2="141.03" y2="176.63"/><line x1="88.85" y1="268.18" x2="92.76" y2="268.83"/><line x1="137.62" y1="181.82" x2="32.87" y2="163.26"/><line x1="223.51" y1="336.35" x2="341.12" y2="335.50"/><line x1="137.29" y1="183.37" x2="137.18" y2="185.01"/><line x1="373.81" y1="321.57" x2="413.37" y2="160.28"/><line x1="374.38" y1="330.43" x2="480.00" y2="342.19"/><line x1="183.20" y1="323.55" x2="184.19" y2="325.43"/><line x1="183.46" y1="190.43" x2="283.63" y2="185.01"/><line x1="34.01" y1="181.14" x2="52.56" y2="235.78"/><line x1="374.38" y1="330.43" x2="463.61" y2="363.26"/><line x1="474.57" y1="356.98" x2="472.31" y2="359.10"/><line x1="35.51" y1="157.51" x2="33.97" y2="160.28"/><line x1="328.89" y1="188.54" x2="329.63" y2="190.43"/><line x1="419.36" y1="166.43" x2="421.91" y2="169.81"/><line x1="155.84" y1="235.11" x2="157.40" y2="236.58"/><line x1="182.37" y1="321.57" x2="95.63" y2="348.74"/><line x1="54.14" y1="239.76" x2="56.04" y2="243.54"/><line x1="182.37" y1="321.57" x2="128.92" y2="364.19"/><line x1="210.18" y1="269.11" x2="96.74" y2="269.11"/><line x1="317.32" y1="176.63" x2="319.16" y2="177.70"/><line x1="210.18" y1="269.11" x2="162.77" y2="240.29"/><line x1="150.19" y1="226.50" x2="66.71" y2="256.64"/><line x1="137.62" y1="181.82" x2="42.27" y2="151.15"/><line x1="288.82" y1="175.74" x2="170.88" y2="176.63"/><line x1="55.83" y1="147.81" x2="137.62" y2="181.82"/><line x1="137.62" y1="181.82" x2="32.90" y2="177.16"/><line x1="150.19" y1="226.50" x2="151.02" y2="228.38"/><line x1="373.06" y1="333.25" x2="372.10" y2="334.46"/><line x1="373.81" y1="321.57" x2="398.88" y2="151.15"/><line x1="34.01" y1="181.14" x2="137.29" y2="183.37"/><line x1="141.03" y1="176.63" x2="139.90" y2="177.70"/><line x1="285.52" y1="178.96" x2="179.23" y2="183.37"/><line x1="84.73" y1="330.86" x2="73.28" y2="296.98"/><line x1="398.88" y1="151.15" x2="395.05" y2="149.76"/><line x1="168.52" y1="242.40" x2="170.52" y2="242.74"/><line x1="374.70" y1="325.43" x2="374.37" y2="323.55"/><line x1="73.77" y1="261.90" x2="77.45" y2="264.03"/><line x1="327.97" y1="186.73" x2="328.89" y2="188.54"/><line x1="332.77" y1="328.87" x2="331.49" y2="327.20"/><line x1="182.37" y1="321.57" x2="109.38" y2="359.10"/><line x1="172.72" y1="177.70" x2="170.88" y2="176.63"/><line x1="150.19" y1="226.50" x2="54.14" y2="239.76"/><line x1="284.36" y1="190.43" x2="283.91" y2="188.54"/><line x1="210.18" y1="269.11" x2="170.52" y2="242.74"/><line x1="55.83" y1="147.81" x2="142.31" y2="175.74"/><line x1="150.19" y1="226.50" x2="81.19" y2="265.78"/><line x1="373.81" y1="321.57" x2="416.51" y2="163.26"/><line x1="228.21" y1="330.43" x2="228.54" y2="328.87"/><line x1="34.01" y1="181.14" x2="138.19" y2="190.43"/><line x1="456.17" y1="364.19" x2="373.06" y2="333.25"/><line x1="193.11" y1="334.46" x2="194.95" y2="335.50"/><line x1="182.37" y1="321.57" x2="92.84" y2="345.57"/><line x1="182.37" y1="321.57" x2="124.85" y2="363.91"/><line x1="210.18" y1="269.11" x2="160.92" y2="239.22"/><line x1="150.19" y1="226.50" x2="63.58" y2="253.67"/><line x1="128.92" y1="364.19" x2="183.20" y2="323.55"/><line x1="150.19" y1="226.50" x2="96.74" y2="269.11"/><line x1="128.92" y1="364.19" x2="196.83" y2="336.35"/><line x1="335.76" y1="331.89" x2="334.19" y2="330.43"/><line x1="373.81" y1="321.57" x2="402.65" y2="152.90"/><line x1="456.17" y1="364.19" x2="368.24" y2="337.02"/><line x1="293.44" y1="174.19" x2="295.27" y2="174.04"/><line x1="182.37" y1="321.57" x2="105.71" y2="356.98"/><line x1="172.72" y1="177.70" x2="288.82" y2="175.74"/><line x1="150.19" y1="226.50" x2="77.45" y2="264.03"/><line x1="128.92" y1="364.19" x2="188.01" y2="330.43"/><line x1="128.92" y1="364.19" x2="456.17" y2="364.19"/><line x1="142.31" y1="175.74" x2="141.03" y2="176.63"/><line x1="373.81" y1="321.57" x2="421.91" y2="169.81"/><line x1="291.75" y1="174.52" x2="293.44" y2="174.19"/><line x1="96.74" y1="269.11" x2="157.40" y2="236.58"/><line x1="34.01" y1="181.14" x2="137.63" y2="188.54"/><line x1="402.65" y1="152.90" x2="398.88" y2="151.15"/><line x1="228.54" y1="328.87" x2="228.64" y2="327.20"/><line x1="456.17" y1="364.19" x2="373.83" y2="331.89"/><line x1="466.83" y1="362.24" x2="463.61" y2="363.26"/><line x1="70.15" y1="259.41" x2="73.77" y2="261.90"/><line x1="480.00" y1="342.19" x2="479.79" y2="345.57"/><line x1="204.73" y1="337.96" x2="216.73" y2="337.96"/><line x1="160.92" y1="239.22" x2="162.77" y2="240.29"/><line x1="48.39" y1="148.74" x2="45.17" y2="149.76"/><line x1="150.19" y1="226.50" x2="60.75" y2="250.49"/><line x1="200.91" y1="242.89" x2="284.36" y2="190.43"/><line x1="128.92" y1="364.19" x2="194.95" y2="335.50"/><line x1="328.54" y1="321.57" x2="227.64" y2="321.57"/><line x1="369.69" y1="336.35" x2="368.24" y2="337.02"/><line x1="96.74" y1="269.11" x2="151.02" y2="228.38"/><line x1="90.36" y1="342.19" x2="92.84" y2="345.57"/><line x1="383.08" y1="147.81" x2="329.63" y2="190.43"/><line x1="137.30" y1="186.73" x2="137.63" y2="188.54"/><line x1="307.82" y1="174.04" x2="309.76" y2="174.19"/><line x1="456.17" y1="364.19" x2="369.69" y2="336.35"/><line x1="469.73" y1="360.85" x2="466.83" y2="362.24"/><line x1="147.15" y1="174.19" x2="145.38" y2="174.52"/><line x1="346.88" y1="337.51" x2="344.92" y2="337.02"/><line x1="456.17" y1="364.19" x2="222.06" y2="337.02"/><line x1="374.70" y1="325.43" x2="374.82" y2="327.20"/><line x1="32.87" y1="163.26" x2="32.21" y2="166.43"/><line x1="330.36" y1="325.43" x2="329.38" y2="323.55"/><line x1="284.16" y1="181.82" x2="182.62" y2="188.54"/><line x1="159.12" y1="237.97" x2="160.92" y2="239.22"/><line x1="128.92" y1="364.19" x2="186.59" y2="328.87"/><line x1="128.92" y1="364.19" x2="202.70" y2="337.83"/><line x1="328.54" y1="321.57" x2="284.36" y2="190.43"/><line x1="96.74" y1="269.11" x2="155.84" y2="235.11"/><line x1="383.08" y1="147.81" x2="324.26" y2="181.82"/><line x1="370.97" y1="335.50" x2="369.69" y2="336.35"/><line x1="286.48" y1="177.70" x2="176.24" y2="180.34"/><line x1="456.17" y1="364.19" x2="460.05" y2="363.91"/><line x1="227.66" y1="331.89" x2="228.21" y2="330.43"/><line x1="348.88" y1="337.83" x2="346.88" y2="337.51"/><line x1="170.88" y1="176.63" x2="291.75" y2="174.52"/><line x1="328.54" y1="321.57" x2="228.20" y2="323.55"/><line x1="383.08" y1="147.81" x2="165.12" y2="174.52"/><line x1="383.08" y1="147.81" x2="315.46" y2="175.74"/><line x1="383.08" y1="147.81" x2="328.89" y2="188.54"/><line x1="283.80" y1="183.37" x2="284.16" y2="181.82"/><line x1="477.99" y1="330.86" x2="374.38" y2="330.43"/><line x1="109.38" y1="359.10" x2="113.13" y2="360.85"/><line x1="456.17" y1="364.19" x2="220.45" y2="337.51"/><line x1="319.16" y1="177.70" x2="320.97" y2="178.96"/><line x1="174.19" y1="296.98" x2="182.37" y2="321.57"/><line x1="113.13" y1="360.85" x2="116.96" y2="362.24"/><line x1="224.80" y1="335.50" x2="337.47" y2="333.25"/><line x1="320.97" y1="178.96" x2="322.70" y2="180.34"/><line x1="337.47" y1="333.25" x2="335.76" y2="331.89"/><line x1="348.88" y1="337.83" x2="350.91" y2="337.96"/><line x1="179.23" y1="183.37" x2="286.48" y2="177.70"/><line x1="328.54" y1="321.57" x2="200.91" y2="242.89"/><line x1="137.18" y1="185.01" x2="137.30" y2="186.73"/><line x1="383.08" y1="147.81" x2="295.27" y2="174.04"/><line x1="184.19" y1="325.43" x2="185.32" y2="327.20"/><line x1="383.08" y1="147.81" x2="322.70" y2="180.34"/><line x1="286.48" y1="177.70" x2="177.81" y2="181.82"/><line x1="287.58" y1="176.63" x2="288.82" y2="175.74"/><line x1="477.99" y1="330.86" x2="374.70" y2="325.43"/><line x1="185.32" y1="327.20" x2="186.59" y2="328.87"/><line x1="477.99" y1="330.86" x2="479.10" y2="334.84"/><line x1="331.49" y1="327.20" x2="227.66" y2="331.89"/><line x1="227.66" y1="331.89" x2="330.36" y2="325.43"/><line x1="56.04" y1="243.54" x2="58.24" y2="247.12"/><line x1="194.95" y1="335.50" x2="196.83" y2="336.35"/><line x1="374.38" y1="330.43" x2="476.49" y2="354.49"/><line x1="170.88" y1="176.63" x2="290.21" y2="175.04"/><line x1="383.08" y1="147.81" x2="167.08" y2="175.04"/><line x1="427.81" y1="181.14" x2="426.13" y2="177.16"/><line x1="383.08" y1="147.81" x2="313.58" y2="175.04"/><line x1="196.83" y1="336.35" x2="198.75" y2="337.02"/><line x1="383.08" y1="147.81" x2="327.97" y2="186.73"/><line x1="139.90" y1="177.70" x2="138.94" y2="178.96"/><line x1="477.99" y1="330.86" x2="373.81" y2="321.57"/><line x1="395.05" y1="149.76" x2="391.14" y2="148.74"/><line x1="228.53" y1="325.43" x2="228.20" y2="323.55"/><line x1="77.45" y1="264.03" x2="81.19" y2="265.78"/><line x1="284.74" y1="180.34" x2="285.52" y2="178.96"/><line x1="174.19" y1="296.98" x2="73.28" y2="296.98"/><line x1="383.08" y1="147.81" x2="387.14" y2="148.09"/><line x1="391.14" y1="148.74" x2="387.14" y2="148.09"/><line x1="165.12" y1="174.52" x2="163.12" y2="174.19"/><line x1="223.51" y1="336.35" x2="343.00" y2="336.35"/><line x1="137.62" y1="181.82" x2="33.97" y2="160.28"/><line x1="374.71" y1="328.87" x2="374.38" y2="330.43"/><line x1="479.13" y1="348.74" x2="478.03" y2="351.72"/><line x1="374.38" y1="330.43" x2="479.77" y2="338.61"/><line x1="183.46" y1="190.43" x2="283.67" y2="186.73"/><line x1="374.38" y1="330.43" x2="466.83" y2="362.24"/><line x1="42.27" y1="151.15" x2="39.69" y2="152.90"/><line x1="478.03" y1="351.72" x2="476.49" y2="354.49"/><line x1="383.08" y1="147.81" x2="149.10" y2="174.04"/><line x1="383.08" y1="147.81" x2="320.97" y2="178.96"/><line x1="172.55" y1="242.89" x2="170.52" y2="242.74"/><line x1="287.58" y1="176.63" x2="172.72" y2="177.70"/><line x1="181.64" y1="186.73" x2="180.51" y2="185.01"/><line x1="137.62" y1="181.82" x2="45.17" y2="149.76"/><line x1="55.83" y1="147.81" x2="138.17" y2="180.34"/><line x1="137.62" y1="181.82" x2="32.23" y2="173.39"/><line x1="223.51" y1="336.35" x2="224.80" y2="335.50"/><line x1="374.38" y1="330.43" x2="478.03" y2="351.72"/><line x1="228.64" y1="327.20" x2="228.53" y2="325.43"/><line x1="183.46" y1="190.43" x2="182.62" y2="188.54"/><line x1="383.08" y1="147.81" x2="293.44" y2="174.19"/><line x1="84.73" y1="330.86" x2="174.19" y2="296.98"/><line x1="225.93" y1="334.46" x2="226.88" y2="333.25"/><line x1="167.08" y1="175.04" x2="165.12" y2="174.52"/><line x1="202.70" y1="337.83" x2="204.73" y2="337.96"/><line x1="479.79" y1="345.57" x2="479.13" y2="348.74"/><line x1="383.08" y1="147.81" x2="373.81" y2="321.57"/><line x1="216.73" y1="337.96" x2="218.67" y2="337.83"/><line x1="176.24" y1="180.34" x2="174.53" y2="178.96"/><line x1="138.19" y1="190.43" x2="150.19" y2="226.50"/><line x1="45.17" y1="149.76" x2="42.27" y2="151.15"/><line x1="218.67" y1="337.83" x2="220.45" y2="337.51"/><line x1="284.36" y1="190.43" x2="183.46" y2="190.43"/><line x1="210.18" y1="269.11" x2="168.52" y2="242.40"/><line x1="55.83" y1="147.81" x2="143.76" y2="175.04"/><line x1="137.62" y1="181.82" x2="35.51" y2="157.51"/><line x1="223.51" y1="336.35" x2="344.92" y2="337.02"/><line x1="151.02" y1="228.38" x2="152.01" y2="230.19"/><line x1="92.84" y1="345.57" x2="95.63" y2="348.74"/></g></svg>