<svg xmlns="http://www.w3.org/2000/svg" width="512" height="512"><rect width="512" height="512" fill="#0a0f1a"/><text x="12" y="20" font-family="monospace" font-size="11" fill="#4a7fa5">FRONT (XZ)</text><g stroke="#00d4ff" stroke-width="0.6" opacity="0.85"><line x1="314.74" y1="311.52" x2="336.64" y2="374.84"/><line x1="175.36" y1="137.83" x2="197.26" y2="201.15"/><line x1="399.69" y1="137.83" x2="420.93" y2="201.15"/><line x1="197.26" y1="201.15" x2="255.67" y2="137.83"/><line x1="197.26" y1="201.15" x2="170.71" y2="311.52"/><line x1="170.71" y1="311.52" x2="191.95" y2="374.84"/><line x1="111.64" y1="137.83" x2="84.43" y2="57.52"/><line x1="32.00" y1="137.83" x2="133.54" y2="201.15"/><line x1="336.64" y1="374.84" x2="363.19" y2="454.48"/><line x1="111.64" y1="137.83" x2="32.00" y2="137.83"/><line x1="234.43" y1="311.52" x2="191.95" y2="374.84"/><line x1="148.15" y1="57.52" x2="175.36" y2="137.83"/><line x1="133.54" y1="201.15" x2="170.71" y2="311.52"/><line x1="219.17" y1="454.48" x2="282.88" y2="454.48"/><line x1="399.69" y1="374.84" x2="363.19" y2="454.48"/><line x1="378.46" y1="311.52" x2="458.76" y2="311.52"/><line x1="399.69" y1="374.84" x2="480.00" y2="374.84"/><line x1="378.46" y1="311.52" x2="399.69" y2="374.84"/><line x1="255.67" y1="137.83" x2="229.12" y2="57.52"/><line x1="341.29" y1="201.15" x2="420.93" y2="201.15"/><line x1="255.67" y1="374.84" x2="282.88" y2="454.48"/><line x1="314.74" y1="311.52" x2="378.46" y2="311.52"/><line x1="197.26" y1="201.15" x2="32.00" y2="137.83"/><line x1="175.36" y1="137.83" x2="255.67" y2="137.83"/><line x1="197.26" y1="201.15" x2="234.43" y2="311.52"/><line x1="170.71" y1="311.52" x2="90.41" y2="311.52"/><line x1="112.31" y1="374.84" x2="191.95" y2="374.84"/><line x1="234.43" y1="311.52" x2="314.74" y2="311.52"/><line x1="336.64" y1="374.84" x2="255.67" y2="374.84"/><line x1="191.95" y1="374.84" x2="219.17" y2="454.48"/><line x1="111.64" y1="137.83" x2="148.15" y2="57.52"/><line x1="319.38" y1="137.83" x2="399.69" y2="137.83"/><line x1="234.43" y1="311.52" x2="255.67" y2="374.84"/><line x1="148.15" y1="57.52" x2="84.43" y2="57.52"/><line x1="111.64" y1="137.83" x2="197.26" y2="201.15"/><line x1="133.54" y1="201.15" x2="53.24" y2="201.15"/><line x1="319.38" y1="137.83" x2="277.57" y2="201.15"/><line x1="378.46" y1="311.52" x2="336.64" y2="374.84"/><line x1="336.64" y1="374.84" x2="399.69" y2="374.84"/><line x1="399.69" y1="374.84" x2="458.76" y2="311.52"/><line x1="363.19" y1="454.48" x2="426.90" y2="454.48"/><line x1="458.76" y1="311.52" x2="480.00" y2="374.84"/><line x1="292.17" y1="57.52" x2="319.38" y2="137.83"/><line x1="255.67" y1="137.83" x2="292.17" y2="57.52"/><line x1="255.67" y1="137.83" x2="277.57" y2="201.15"/><line x1="341.29" y1="201.15" x2="399.69" y2="137.83"/><line x1="341.29" y1="201.15" x2="314.74" y2="311.52"/><line x1="341.29" y1="201.15" x2="378.46" y2="311.52"/><line x1="255.67" y1="374.84" x2="219.17" y2="454.48"/><line x1="314.74" y1="311.52" x2="255.67" y2="374.84"/><line x1="170.71" y1="311.52" x2="234.43" y2="311.52"/><line x1="112.31" y1="374.84" x2="90.41" y2="311.52"/><line x1="197.26" y1="201.15" x2="133.54" y2="201.15"/><line x1="32.00" y1="137.83" x2="53.24" y2="201.15"/><line x1="197.26" y1="201.15" x2="277.57" y2="201.15"/><line x1="170.71" y1="311.52" x2="112.31" y2="374.84"/><line x1="191.95" y1="374.84" x2="255.67" y2="374.84"/><line x1="111.64" y1="137.83" x2="175.36" y2="137.83"/><line x1="319.38" y1="137.83" x2="341.29" y2="201.15"/><line x1="399.69" y1="374.84" x2="426.90" y2="454.48"/><line x1="277.57" y1="201.15" x2="314.74" y2="311.52"/><line x1="277.57" y1="201.15" x2="341.29" y2="201.15"/><line x1="255.67" y1="137.83" x2="319.38" y2="137.83"/><line x1="292.17" y1="57.52" x2="229.12" y2="57.52"/></g></svg>