<svg xmlns="http://www.w3.org/2000/svg" width="512" height="512"><rect width="512" height="512" fill="#0a0f1a"/><text x="12" y="20" font-family="monospace" font-size="11" fill="#4a7fa5">FRONT (XZ)</text><g stroke="#00d4ff" stroke-width="0.6" opacity="0.85"><line x1="188.76" y1="194.63" x2="197.09" y2="194.80"/><line x1="232.88" y1="38.47" x2="201.85" y2="35.16"/><line x1="146.96" y1="64.49" x2="144.52" y2="65.43"/><line x1="387.66" y1="71.89" x2="385.04" y2="70.51"/><line x1="160.76" y1="319.25" x2="168.34" y2="315.88"/><line x1="105.18" y1="238.87" x2="106.30" y2="231.75"/><line x1="250.27" y1="335.62" x2="226.10" y2="325.66"/><line x1="176.09" y1="311.54" x2="113.07" y2="281.97"/><line x1="144.52" y1="65.43" x2="259.41" y2="149.66"/><line x1="332.33" y1="191.54" x2="262.47" y2="151.32"/><line x1="230.52" y1="400.81" x2="234.05" y2="390.43"/><line x1="106.30" y1="231.75" x2="108.54" y2="225.38"/><line x1="179.79" y1="50.12" x2="250.03" y2="71.68"/><line x1="316.60" y1="316.42" x2="386.83" y2="218.93"/><line x1="396.45" y1="226.19" x2="400.24" y2="230.51"/><line x1="262.47" y1="151.32" x2="339.81" y2="185.19"/><line x1="278.08" y1="63.63" x2="282.41" y2="54.49"/><line x1="113.07" y1="281.97" x2="112.97" y2="281.08"/><line x1="172.38" y1="460.26" x2="204.30" y2="470.30"/><line x1="297.29" y1="294.79" x2="354.24" y2="207.78"/><line x1="250.03" y1="71.68" x2="179.38" y2="50.64"/><line x1="259.67" y1="158.54" x2="259.87" y2="166.05"/><line x1="125.22" y1="86.14" x2="124.73" y2="91.88"/><line x1="370.48" y1="63.60" x2="367.54" y2="62.24"/><line x1="263.20" y1="141.55" x2="382.27" y2="69.13"/><line x1="112.97" y1="281.08" x2="183.92" y2="306.38"/><line x1="133.22" y1="203.55" x2="140.21" y2="200.95"/><line x1="204.30" y1="470.30" x2="176.84" y2="450.98"/><line x1="259.01" y1="139.68" x2="146.96" y2="64.49"/><line x1="236.16" y1="287.04" x2="261.00" y2="287.14"/><line x1="124.73" y1="91.88" x2="125.53" y2="97.89"/><line x1="330.10" y1="327.57" x2="389.05" y2="303.45"/><line x1="140.21" y1="200.95" x2="147.66" y2="198.84"/><line x1="176.91" y1="52.39" x2="175.72" y2="53.03"/><line x1="261.00" y1="287.14" x2="239.23" y2="273.23"/><line x1="403.96" y1="267.79" x2="400.73" y2="276.12"/><line x1="372.89" y1="153.56" x2="378.39" y2="147.32"/><line x1="215.78" y1="441.01" x2="190.06" y2="422.57"/><line x1="175.72" y1="53.03" x2="256.33" y2="105.79"/><line x1="400.73" y1="276.12" x2="396.21" y2="285.12"/><line x1="356.88" y1="57.18" x2="354.67" y2="56.03"/><line x1="112.23" y1="275.98" x2="112.04" y2="274.89"/><line x1="190.06" y1="422.57" x2="219.54" y2="431.12"/><line x1="271.18" y1="254.69" x2="275.54" y2="262.49"/><line x1="151.44" y1="137.55" x2="158.30" y2="144.45"/><line x1="263.20" y1="141.55" x2="394.30" y2="75.86"/><line x1="390.14" y1="299.46" x2="390.45" y2="298.50"/><line x1="188.76" y1="194.63" x2="228.16" y2="265.20"/><line x1="275.54" y1="262.49" x2="280.39" y2="270.53"/><line x1="400.48" y1="111.37" x2="402.02" y2="105.71"/><line x1="390.45" y1="298.50" x2="390.78" y2="297.50"/><line x1="191.76" y1="300.50" x2="199.52" y2="294.05"/><line x1="330.10" y1="327.57" x2="323.33" y2="322.41"/><line x1="202.83" y1="392.70" x2="230.52" y2="400.81"/><line x1="339.32" y1="205.61" x2="346.84" y2="206.56"/><line x1="205.30" y1="184.59" x2="213.13" y2="190.76"/><line x1="230.52" y1="400.81" x2="206.94" y2="382.29"/><line x1="123.23" y1="311.74" x2="119.06" y2="304.64"/><line x1="278.08" y1="63.63" x2="337.51" y2="43.59"/><line x1="214.48" y1="279.97" x2="126.80" y2="206.70"/><line x1="154.22" y1="61.72" x2="151.82" y2="62.63"/><line x1="297.29" y1="294.79" x2="346.84" y2="206.56"/><line x1="263.20" y1="141.55" x2="383.42" y2="141.14"/><line x1="263.20" y1="141.55" x2="402.23" y2="89.52"/><line x1="316.66" y1="34.44" x2="307.91" y2="34.11"/><line x1="392.67" y1="292.34" x2="393.07" y2="291.33"/><line x1="263.20" y1="141.55" x2="385.04" y2="70.51"/><line x1="244.10" y1="358.21" x2="247.25" y2="347.04"/><line x1="259.01" y1="139.68" x2="149.39" y2="63.56"/><line x1="191.76" y1="300.50" x2="112.23" y2="275.98"/><line x1="261.37" y1="167.05" x2="261.88" y2="159.92"/><line x1="145.13" y1="130.68" x2="151.44" y2="137.55"/><line x1="259.41" y1="149.66" x2="205.30" y2="184.59"/><line x1="113.23" y1="284.23" x2="113.19" y2="283.56"/><line x1="389.86" y1="300.38" x2="390.14" y2="299.46"/><line x1="258.41" y1="128.85" x2="154.22" y2="61.72"/><line x1="253.17" y1="323.94" x2="255.93" y2="311.99"/><line x1="316.78" y1="204.18" x2="324.22" y2="204.44"/><line x1="221.52" y1="272.61" x2="188.76" y2="194.63"/><line x1="379.39" y1="67.74" x2="376.44" y2="66.35"/><line x1="398.28" y1="117.14" x2="400.48" y2="111.37"/><line x1="374.55" y1="328.93" x2="379.83" y2="322.54"/><line x1="214.48" y1="279.97" x2="106.30" y2="231.75"/><line x1="229.59" y1="313.23" x2="232.95" y2="300.37"/><line x1="214.48" y1="279.97" x2="155.50" y2="197.20"/><line x1="257.53" y1="117.47" x2="167.49" y2="56.65"/><line x1="263.20" y1="141.55" x2="354.02" y2="172.49"/><line x1="263.20" y1="141.55" x2="398.28" y2="117.14"/><line x1="343.61" y1="334.83" x2="336.88" y2="331.75"/><line x1="349.74" y1="52.97" x2="274.44" y2="73.82"/><line x1="263.20" y1="141.55" x2="395.99" y2="77.11"/><line x1="176.84" y1="450.98" x2="181.29" y2="441.63"/><line x1="111.16" y1="270.66" x2="110.93" y2="269.67"/><line x1="252.64" y1="82.62" x2="177.93" y2="51.77"/><line x1="167.49" y1="56.65" x2="165.47" y2="57.44"/><line x1="197.30" y1="178.22" x2="205.30" y2="184.59"/><line x1="265.38" y1="119.58" x2="361.91" y2="59.63"/><line x1="274.44" y1="73.82" x2="278.08" y2="63.63"/><line x1="316.60" y1="316.42" x2="393.90" y2="289.42"/><line x1="208.15" y1="460.58" x2="211.98" y2="450.82"/><line x1="110.93" y1="269.67" x2="110.68" y2="268.74"/><line x1="239.23" y1="273.23" x2="242.13" y2="258.91"/><line x1="191.76" y1="300.50" x2="111.40" y2="271.68"/><line x1="239.92" y1="250.78" x2="220.68" y2="196.70"/><line x1="339.32" y1="205.61" x2="297.29" y2="294.79"/><line x1="259.41" y1="149.66" x2="124.73" y2="91.88"/><line x1="205.30" y1="184.59" x2="259.67" y2="158.54"/><line x1="259.41" y1="149.66" x2="165.62" y2="151.35"/><line x1="398.34" y1="79.48" x2="397.35" y2="78.32"/><line x1="392.26" y1="293.37" x2="392.67" y2="292.34"/><line x1="263.30" y1="274.22" x2="265.42" y2="260.94"/><line x1="220.68" y1="196.70" x2="244.87" y2="244.04"/><line x1="156.59" y1="60.83" x2="154.22" y2="61.72"/><line x1="397.35" y1="78.32" x2="395.99" y2="77.11"/><line x1="123.23" y1="311.74" x2="146.41" y2="322.56"/><line x1="214.48" y1="279.97" x2="109.66" y2="265.65"/><line x1="240.85" y1="369.15" x2="244.10" y2="358.21"/><line x1="214.48" y1="279.97" x2="121.02" y2="210.42"/><line x1="154.22" y1="61.72" x2="259.01" y2="139.68"/><line x1="214.48" y1="279.97" x2="221.52" y2="272.61"/><line x1="316.78" y1="204.18" x2="260.87" y2="172.46"/><line x1="263.20" y1="141.55" x2="378.39" y2="147.32"/><line x1="168.34" y1="315.88" x2="176.09" y2="311.54"/><line x1="263.20" y1="141.55" x2="402.93" y2="94.78"/><line x1="316.66" y1="34.44" x2="300.17" y2="36.22"/><line x1="194.38" y1="412.81" x2="198.63" y2="402.86"/><line x1="109.66" y1="265.65" x2="109.40" y2="265.09"/><line x1="263.20" y1="141.55" x2="387.66" y2="71.89"/><line x1="201.85" y1="35.16" x2="238.30" y2="44.65"/><line x1="368.38" y1="211.17" x2="374.97" y2="213.38"/><line x1="260.87" y1="172.46" x2="261.37" y2="167.05"/><line x1="385.04" y1="70.51" x2="382.27" y2="69.13"/><line x1="316.60" y1="316.42" x2="391.87" y2="294.41"/><line x1="395.10" y1="286.93" x2="395.49" y2="286.24"/><line x1="316.60" y1="316.42" x2="395.49" y2="286.24"/><line x1="324.22" y1="204.44" x2="331.76" y2="204.91"/><line x1="238.30" y1="44.65" x2="242.92" y2="52.42"/><line x1="259.41" y1="149.66" x2="142.10" y2="66.39"/><line x1="259.41" y1="149.66" x2="134.58" y2="117.15"/><line x1="382.27" y1="69.13" x2="379.39" y2="67.74"/><line x1="259.41" y1="149.66" x2="197.30" y2="178.22"/><line x1="113.23" y1="284.23" x2="176.09" y2="311.54"/><line x1="258.41" y1="128.85" x2="156.59" y2="60.83"/><line x1="253.17" y1="323.94" x2="229.59" y2="313.23"/><line x1="316.78" y1="204.18" x2="280.39" y2="270.53"/><line x1="142.10" y1="66.39" x2="135.43" y2="70.77"/><line x1="207.12" y1="287.17" x2="214.48" y2="279.97"/><line x1="183.92" y1="306.38" x2="112.73" y2="279.13"/><line x1="374.55" y1="328.93" x2="343.61" y2="334.83"/><line x1="211.14" y1="32.24" x2="232.88" y2="38.47"/><line x1="111.80" y1="219.73" x2="115.99" y2="214.75"/><line x1="214.48" y1="279.97" x2="105.18" y2="238.87"/><line x1="403.24" y1="235.34" x2="405.39" y2="240.69"/><line x1="214.48" y1="279.97" x2="147.66" y2="198.84"/><line x1="263.20" y1="141.55" x2="347.05" y2="178.84"/><line x1="263.20" y1="141.55" x2="395.43" y2="123.00"/><line x1="176.84" y1="450.98" x2="208.15" y2="460.58"/><line x1="252.64" y1="82.62" x2="178.75" y2="51.19"/><line x1="405.39" y1="240.69" x2="406.61" y2="246.58"/><line x1="265.38" y1="119.58" x2="364.67" y2="60.92"/><line x1="316.60" y1="316.42" x2="393.48" y2="290.35"/><line x1="239.23" y1="273.23" x2="263.30" y2="274.22"/><line x1="259.41" y1="149.66" x2="125.22" y2="86.14"/><line x1="368.90" y1="333.41" x2="350.23" y2="336.68"/><line x1="259.41" y1="149.66" x2="158.30" y2="144.45"/><line x1="219.54" y1="431.12" x2="223.26" y2="421.13"/><line x1="263.30" y1="274.22" x2="242.13" y2="258.91"/><line x1="396.21" y1="285.12" x2="395.86" y2="285.63"/><line x1="268.94" y1="96.27" x2="351.07" y2="53.92"/><line x1="280.39" y1="270.53" x2="285.67" y2="278.68"/><line x1="214.48" y1="279.97" x2="115.99" y2="214.75"/><line x1="257.53" y1="117.47" x2="258.41" y2="128.85"/><line x1="263.20" y1="141.55" x2="372.89" y2="153.56"/><line x1="390.78" y1="297.50" x2="391.13" y2="296.48"/><line x1="168.34" y1="315.88" x2="113.23" y2="284.23"/><line x1="316.60" y1="316.42" x2="391.49" y2="295.45"/><line x1="206.94" y1="382.29" x2="210.97" y2="371.61"/><line x1="108.54" y1="225.38" x2="111.80" y2="219.73"/><line x1="163.37" y1="58.26" x2="161.18" y2="59.11"/><line x1="324.22" y1="204.44" x2="285.67" y2="278.68"/><line x1="339.81" y1="185.19" x2="263.20" y2="141.55"/><line x1="259.41" y1="149.66" x2="130.56" y2="110.56"/><line x1="337.51" y1="43.59" x2="326.51" y2="37.51"/><line x1="110.43" y1="267.85" x2="110.18" y2="267.04"/><line x1="259.41" y1="149.66" x2="189.23" y2="171.67"/><line x1="234.05" y1="390.43" x2="237.50" y2="379.88"/><line x1="258.41" y1="128.85" x2="158.91" y2="59.96"/><line x1="179.38" y1="50.64" x2="252.64" y2="82.62"/><line x1="316.78" y1="204.18" x2="275.54" y2="262.49"/><line x1="213.13" y1="190.76" x2="260.06" y2="171.91"/><line x1="323.33" y1="322.41" x2="390.78" y2="297.50"/><line x1="282.41" y1="54.49" x2="287.49" y2="46.69"/><line x1="183.92" y1="306.38" x2="112.86" y2="280.13"/><line x1="211.14" y1="32.24" x2="219.37" y2="32.00"/><line x1="354.24" y1="207.78" x2="361.44" y2="209.32"/><line x1="125.53" y1="97.89" x2="127.51" y2="104.13"/><line x1="119.06" y1="304.64" x2="115.70" y2="295.51"/><line x1="218.76" y1="349.34" x2="222.49" y2="337.69"/><line x1="226.59" y1="34.17" x2="232.88" y2="38.47"/><line x1="147.66" y1="198.84" x2="155.50" y2="197.20"/><line x1="127.51" y1="104.13" x2="130.56" y2="110.56"/><line x1="199.52" y1="294.05" x2="110.43" y2="267.85"/><line x1="389.20" y1="302.79" x2="389.39" y2="302.06"/><line x1="247.25" y1="347.04" x2="250.27" y2="335.62"/><line x1="155.50" y1="197.20" x2="163.62" y2="196.00"/><line x1="256.33" y1="105.79" x2="174.36" y2="53.70"/><line x1="264.15" y1="130.88" x2="370.48" y2="63.60"/><line x1="259.41" y1="149.66" x2="127.10" y2="80.67"/><line x1="383.42" y1="141.14" x2="387.97" y2="135.02"/><line x1="368.90" y1="333.41" x2="362.93" y2="336.10"/><line x1="200.45" y1="480.00" x2="163.40" y2="478.67"/><line x1="112.04" y1="274.89" x2="111.84" y2="273.81"/><line x1="316.60" y1="316.42" x2="403.96" y2="267.79"/><line x1="219.54" y1="431.12" x2="194.38" y2="412.81"/><line x1="174.36" y1="53.70" x2="172.84" y2="54.40"/><line x1="261.88" y1="159.92" x2="262.47" y2="151.32"/><line x1="158.30" y1="144.45" x2="165.62" y2="151.35"/><line x1="268.94" y1="96.27" x2="352.73" y2="54.94"/><line x1="167.90" y1="469.48" x2="172.38" y2="460.26"/><line x1="111.84" y1="273.81" x2="111.62" y2="272.73"/><line x1="246.81" y1="61.52" x2="250.03" y2="71.68"/><line x1="183.92" y1="306.38" x2="191.76" y2="300.50"/><line x1="228.16" y1="265.20" x2="197.09" y2="194.80"/><line x1="280.39" y1="270.53" x2="324.22" y2="204.44"/><line x1="165.62" y1="151.35" x2="173.29" y2="158.20"/><line x1="390.78" y1="297.50" x2="316.60" y2="316.42"/><line x1="232.95" y1="300.37" x2="236.16" y2="287.04"/><line x1="197.09" y1="194.80" x2="205.25" y2="195.22"/><line x1="367.54" y1="62.24" x2="265.38" y2="119.58"/><line x1="165.47" y1="57.44" x2="163.37" y2="58.26"/><line x1="402.85" y1="100.18" x2="402.93" y2="94.78"/><line x1="336.88" y1="331.75" x2="330.10" y2="327.57"/><line x1="110.68" y1="268.74" x2="110.43" y2="267.85"/><line x1="254.72" y1="94.08" x2="256.33" y2="105.79"/><line x1="206.94" y1="382.29" x2="234.05" y2="390.43"/><line x1="163.37" y1="58.26" x2="258.41" y2="128.85"/><line x1="389.05" y1="303.45" x2="389.20" y2="302.79"/><line x1="256.33" y1="105.79" x2="257.53" y2="117.47"/><line x1="146.41" y1="322.56" x2="153.42" y2="321.52"/><line x1="337.51" y1="43.59" x2="282.41" y2="54.49"/><line x1="316.60" y1="316.42" x2="403.24" y2="235.34"/><line x1="110.43" y1="267.85" x2="207.12" y2="287.17"/><line x1="378.39" y1="147.32" x2="383.42" y2="141.14"/><line x1="346.84" y1="206.56" x2="354.24" y2="207.78"/><line x1="213.13" y1="190.76" x2="259.87" y2="166.05"/><line x1="323.33" y1="322.41" x2="390.45" y2="298.50"/><line x1="393.07" y1="291.33" x2="393.48" y2="290.35"/><line x1="220.68" y1="196.70" x2="213.13" y2="190.76"/><line x1="211.14" y1="32.24" x2="226.59" y2="34.17"/><line x1="354.67" y1="56.03" x2="268.94" y2="96.27"/><line x1="394.30" y1="75.86" x2="392.33" y2="74.57"/><line x1="119.06" y1="304.64" x2="153.42" y2="321.52"/><line x1="242.92" y1="52.42" x2="246.81" y2="61.52"/><line x1="218.76" y1="349.34" x2="247.25" y2="347.04"/><line x1="151.82" y1="62.63" x2="149.39" y2="63.56"/><line x1="324.63" y1="197.87" x2="332.33" y2="191.54"/><line x1="139.80" y1="322.23" x2="146.41" y2="322.56"/><line x1="199.52" y1="294.05" x2="110.68" y2="268.74"/><line x1="176.09" y1="311.54" x2="113.14" y2="282.80"/><line x1="402.02" y1="105.71" x2="402.85" y2="100.18"/><line x1="191.42" y1="41.03" x2="179.79" y2="50.12"/><line x1="381.14" y1="215.95" x2="386.83" y2="218.93"/><line x1="264.15" y1="130.88" x2="373.46" y2="64.96"/><line x1="316.60" y1="316.42" x2="381.14" y2="215.95"/><line x1="200.45" y1="480.00" x2="167.90" y2="469.48"/><line x1="316.60" y1="316.42" x2="405.97" y2="260.11"/><line x1="255.93" y1="311.99" x2="258.54" y2="299.72"/><line x1="379.83" y1="322.54" x2="384.68" y2="314.09"/><line x1="259.67" y1="158.54" x2="213.13" y2="190.76"/><line x1="220.68" y1="196.70" x2="316.78" y2="204.18"/><line x1="214.91" y1="360.64" x2="218.76" y2="349.34"/><line x1="181.29" y1="441.63" x2="185.70" y2="432.17"/><line x1="177.93" y1="51.77" x2="176.91" y2="52.39"/><line x1="211.98" y1="450.82" x2="215.78" y2="441.01"/><line x1="359.30" y1="58.38" x2="356.88" y2="57.18"/><line x1="389.61" y1="301.25" x2="389.86" y2="300.38"/><line x1="146.41" y1="322.56" x2="119.06" y2="304.64"/><line x1="316.60" y1="316.42" x2="400.24" y2="230.51"/><line x1="316.60" y1="316.42" x2="395.86" y2="285.63"/><line x1="323.33" y1="322.41" x2="390.14" y2="299.46"/><line x1="223.26" y1="421.13" x2="226.92" y2="411.04"/><line x1="109.40" y1="265.09" x2="106.63" y2="255.51"/><line x1="351.07" y1="53.92" x2="349.74" y2="52.97"/><line x1="111.40" y1="271.68" x2="111.16" y2="270.66"/><line x1="198.63" y1="402.86" x2="202.83" y2="392.70"/><line x1="285.67" y1="278.68" x2="291.32" y2="286.81"/><line x1="242.92" y1="52.42" x2="191.42" y2="41.03"/><line x1="324.63" y1="197.87" x2="261.88" y2="159.92"/><line x1="330.10" y1="327.57" x2="389.61" y2="301.25"/><line x1="139.80" y1="322.23" x2="123.23" y2="311.74"/><line x1="271.42" y1="84.80" x2="274.44" y2="73.82"/><line x1="176.09" y1="311.54" x2="113.19" y2="283.56"/><line x1="331.76" y1="204.91" x2="339.32" y2="205.61"/><line x1="326.51" y1="37.51" x2="316.66" y2="34.44"/><line x1="264.15" y1="130.88" x2="376.44" y2="66.35"/><line x1="316.60" y1="316.42" x2="374.97" y2="213.38"/><line x1="210.97" y1="371.61" x2="214.91" y2="360.64"/><line x1="115.99" y1="214.75" x2="121.02" y2="210.42"/><line x1="316.60" y1="316.42" x2="406.82" y2="253.05"/><line x1="255.93" y1="311.99" x2="232.95" y2="300.37"/><line x1="379.83" y1="322.54" x2="336.88" y2="331.75"/><line x1="237.50" y1="379.88" x2="240.85" y2="369.15"/><line x1="395.99" y1="77.11" x2="394.30" y2="75.86"/><line x1="406.61" y1="246.58" x2="406.82" y2="253.05"/><line x1="354.02" y1="172.49" x2="360.67" y2="166.15"/><line x1="244.10" y1="358.21" x2="218.76" y2="349.34"/><line x1="115.70" y1="295.51" x2="113.23" y2="284.23"/><line x1="259.01" y1="139.68" x2="151.82" y2="62.63"/><line x1="112.73" y1="279.13" x2="112.57" y2="278.11"/><line x1="181.29" y1="441.63" x2="211.98" y2="450.82"/><line x1="361.44" y1="209.32" x2="368.38" y2="211.17"/><line x1="300.17" y1="36.22" x2="307.91" y2="34.11"/><line x1="260.32" y1="175.85" x2="260.87" y2="172.46"/><line x1="361.91" y1="59.63" x2="359.30" y2="58.38"/><line x1="374.97" y1="213.38" x2="381.14" y2="215.95"/><line x1="261.37" y1="167.05" x2="324.63" y2="197.87"/><line x1="176.09" y1="311.54" x2="183.92" y2="306.38"/><line x1="242.13" y1="258.91" x2="265.42" y2="260.94"/><line x1="134.58" y1="117.15" x2="139.47" y2="123.86"/><line x1="389.61" y1="301.25" x2="323.33" y2="322.41"/><line x1="379.39" y1="67.74" x2="264.15" y2="130.88"/><line x1="391.98" y1="128.97" x2="395.43" y2="123.00"/><line x1="229.59" y1="313.23" x2="255.93" y2="311.99"/><line x1="135.43" y1="70.77" x2="130.46" y2="75.55"/><line x1="223.26" y1="421.13" x2="198.63" y2="402.86"/><line x1="171.18" y1="55.13" x2="169.40" y2="55.88"/><line x1="343.61" y1="334.83" x2="379.83" y2="322.54"/><line x1="263.20" y1="141.55" x2="397.35" y2="78.32"/><line x1="263.20" y1="141.55" x2="264.15" y2="130.88"/><line x1="351.07" y1="53.92" x2="271.42" y2="84.80"/><line x1="259.01" y1="139.68" x2="259.41" y2="149.66"/><line x1="347.05" y1="178.84" x2="354.02" y2="172.49"/><line x1="234.32" y1="257.89" x2="239.92" y2="250.78"/><line x1="285.67" y1="278.68" x2="331.76" y2="204.91"/><line x1="181.19" y1="164.99" x2="189.23" y2="171.67"/><line x1="208.15" y1="460.58" x2="181.29" y2="441.63"/><line x1="178.75" y1="51.19" x2="177.93" y2="51.77"/><line x1="191.76" y1="300.50" x2="111.62" y2="272.73"/><line x1="330.10" y1="327.57" x2="389.39" y2="302.06"/><line x1="139.80" y1="322.23" x2="133.68" y2="320.41"/><line x1="391.13" y1="296.48" x2="391.49" y2="295.45"/><line x1="364.67" y1="60.92" x2="361.91" y2="59.63"/><line x1="266.95" y1="107.96" x2="268.94" y2="96.27"/><line x1="402.23" y1="89.52" x2="400.71" y2="84.42"/><line x1="326.51" y1="37.51" x2="293.38" y2="40.51"/><line x1="130.56" y1="110.56" x2="134.58" y2="117.15"/><line x1="210.97" y1="371.61" x2="237.50" y2="379.88"/><line x1="389.39" y1="302.06" x2="389.61" y2="301.25"/><line x1="163.62" y1="196.00" x2="171.92" y2="195.19"/><line x1="387.97" y1="135.02" x2="391.98" y2="128.97"/><line x1="214.48" y1="279.97" x2="180.34" y2="194.75"/><line x1="263.20" y1="141.55" x2="402.85" y2="100.18"/><line x1="194.38" y1="412.81" x2="223.26" y2="421.13"/><line x1="263.20" y1="141.55" x2="390.11" y2="73.24"/><line x1="115.70" y1="295.51" x2="168.34" y2="315.88"/><line x1="222.49" y1="337.69" x2="226.10" y2="325.66"/><line x1="205.25" y1="195.22" x2="213.15" y2="195.87"/><line x1="316.60" y1="316.42" x2="395.10" y2="286.93"/><line x1="244.87" y1="244.04" x2="267.36" y2="247.28"/><line x1="356.68" y1="337.15" x2="350.23" y2="336.68"/><line x1="332.33" y1="191.54" x2="339.81" y2="185.19"/><line x1="111.62" y1="272.73" x2="111.40" y2="271.68"/><line x1="179.79" y1="50.12" x2="179.38" y2="50.64"/><line x1="207.12" y1="287.17" x2="109.92" y2="266.30"/><line x1="214.48" y1="279.97" x2="105.25" y2="246.78"/><line x1="214.48" y1="279.97" x2="140.21" y2="200.95"/><line x1="297.29" y1="294.79" x2="303.53" y2="302.47"/><line x1="263.20" y1="141.55" x2="391.98" y2="128.97"/><line x1="112.86" y1="280.13" x2="112.73" y2="279.13"/><line x1="263.20" y1="141.55" x2="398.34" y2="79.48"/><line x1="303.53" y1="302.47" x2="309.99" y2="309.73"/><line x1="263.20" y1="141.55" x2="379.39" y2="67.74"/><line x1="384.68" y1="314.09" x2="389.05" y2="303.45"/><line x1="236.16" y1="287.04" x2="239.23" y2="273.23"/><line x1="153.42" y1="321.52" x2="160.76" y2="319.25"/><line x1="316.60" y1="316.42" x2="393.07" y2="291.33"/><line x1="191.76" y1="300.50" x2="111.84" y2="273.81"/><line x1="259.41" y1="149.66" x2="151.44" y2="137.55"/><line x1="266.95" y1="107.96" x2="354.67" y2="56.03"/><line x1="215.78" y1="441.01" x2="219.54" y2="431.12"/><line x1="172.84" y1="54.40" x2="171.18" y2="55.13"/><line x1="214.48" y1="279.97" x2="111.80" y2="219.73"/><line x1="393.90" y1="289.42" x2="394.30" y2="288.53"/><line x1="214.48" y1="279.97" x2="171.92" y2="195.19"/><line x1="257.53" y1="117.47" x2="163.37" y2="58.26"/><line x1="263.20" y1="141.55" x2="366.98" y2="159.84"/><line x1="352.73" y1="54.94" x2="351.07" y2="53.92"/><line x1="263.20" y1="141.55" x2="402.02" y2="105.71"/><line x1="349.74" y1="52.97" x2="337.51" y2="43.59"/><line x1="263.20" y1="141.55" x2="392.33" y2="74.57"/><line x1="173.29" y1="158.20" x2="181.19" y2="164.99"/><line x1="222.49" y1="337.69" x2="250.27" y2="335.62"/><line x1="265.38" y1="119.58" x2="266.95" y2="107.96"/><line x1="316.60" y1="316.42" x2="391.13" y2="296.48"/><line x1="258.54" y1="299.72" x2="261.00" y2="287.14"/><line x1="205.25" y1="195.22" x2="234.32" y2="257.89"/><line x1="316.60" y1="316.42" x2="394.71" y2="287.69"/><line x1="244.87" y1="244.04" x2="265.42" y2="260.94"/><line x1="356.68" y1="337.15" x2="362.93" y2="336.10"/><line x1="202.83" y1="392.70" x2="206.94" y2="382.29"/><line x1="402.93" y1="94.78" x2="402.23" y2="89.52"/><line x1="259.41" y1="149.66" x2="127.51" y2="104.13"/><line x1="259.41" y1="149.66" x2="181.19" y2="164.99"/><line x1="234.05" y1="390.43" x2="210.97" y2="371.61"/><line x1="258.41" y1="128.85" x2="161.18" y2="59.11"/><line x1="316.78" y1="204.18" x2="271.18" y2="254.69"/><line x1="282.41" y1="54.49" x2="326.51" y2="37.51"/><line x1="185.70" y1="432.17" x2="190.06" y2="422.57"/><line x1="207.12" y1="287.17" x2="110.18" y2="267.04"/><line x1="373.46" y1="64.96" x2="370.48" y2="63.60"/><line x1="354.24" y1="207.78" x2="303.53" y2="302.47"/><line x1="214.48" y1="279.97" x2="106.63" y2="255.51"/><line x1="259.87" y1="166.05" x2="260.06" y2="171.91"/><line x1="214.48" y1="279.97" x2="133.22" y2="203.55"/><line x1="316.78" y1="204.18" x2="324.63" y2="197.87"/><line x1="263.20" y1="141.55" x2="387.97" y2="135.02"/><line x1="393.48" y1="290.35" x2="393.90" y2="289.42"/><line x1="226.59" y1="34.17" x2="219.37" y2="32.00"/><line x1="263.20" y1="141.55" x2="400.71" y2="84.42"/><line x1="303.53" y1="302.47" x2="361.44" y2="209.32"/><line x1="384.68" y1="314.09" x2="330.10" y2="327.57"/><line x1="201.85" y1="35.16" x2="191.42" y2="41.03"/><line x1="392.33" y1="74.57" x2="390.11" y2="73.24"/><line x1="153.42" y1="321.52" x2="115.70" y2="295.51"/><line x1="366.98" y1="159.84" x2="372.89" y2="153.56"/><line x1="316.60" y1="316.42" x2="392.67" y2="292.34"/><line x1="247.25" y1="347.04" x2="222.49" y2="337.69"/><line x1="149.39" y1="63.56" x2="146.96" y2="64.49"/><line x1="191.76" y1="300.50" x2="112.04" y2="274.89"/><line x1="259.41" y1="149.66" x2="130.46" y2="75.55"/><line x1="368.90" y1="333.41" x2="356.68" y2="337.15"/><line x1="259.41" y1="149.66" x2="145.13" y2="130.68"/><line x1="105.25" y1="246.78" x2="105.18" y2="238.87"/><line x1="259.41" y1="149.66" x2="259.67" y2="158.54"/><line x1="266.95" y1="107.96" x2="356.88" y2="57.18"/><line x1="386.83" y1="218.93" x2="391.96" y2="222.34"/><line x1="258.41" y1="128.85" x2="259.01" y2="139.68"/><line x1="261.88" y1="159.92" x2="332.33" y2="191.54"/><line x1="221.52" y1="272.61" x2="228.16" y2="265.20"/><line x1="167.90" y1="469.48" x2="163.40" y2="478.67"/><line x1="246.81" y1="61.52" x2="179.79" y2="50.12"/><line x1="183.92" y1="306.38" x2="112.41" y2="277.05"/><line x1="391.96" y1="222.34" x2="396.45" y2="226.19"/><line x1="214.48" y1="279.97" x2="108.54" y2="225.38"/><line x1="376.44" y1="66.35" x2="373.46" y2="64.96"/><line x1="214.48" y1="279.97" x2="163.62" y2="196.00"/><line x1="257.53" y1="117.47" x2="165.47" y2="57.44"/><line x1="263.20" y1="141.55" x2="360.67" y2="166.15"/><line x1="263.20" y1="141.55" x2="400.48" y2="111.37"/><line x1="232.95" y1="300.37" x2="258.54" y2="299.72"/><line x1="349.74" y1="52.97" x2="278.08" y2="63.63"/><line x1="252.64" y1="82.62" x2="254.72" y2="94.08"/><line x1="336.88" y1="331.75" x2="384.68" y2="314.09"/><line x1="265.38" y1="119.58" x2="359.30" y2="58.38"/><line x1="254.72" y1="94.08" x2="175.72" y2="53.03"/><line x1="258.54" y1="299.72" x2="236.16" y2="287.04"/><line x1="316.60" y1="316.42" x2="394.30" y2="288.53"/><line x1="244.87" y1="244.04" x2="242.13" y2="258.91"/><line x1="406.82" y1="253.05" x2="405.97" y2="260.11"/><line x1="256.33" y1="105.79" x2="169.40" y2="55.88"/><line x1="239.92" y1="250.78" x2="244.87" y2="244.04"/><line x1="112.41" y1="277.05" x2="112.23" y2="275.98"/><line x1="259.41" y1="149.66" x2="125.53" y2="97.89"/><line x1="259.41" y1="149.66" x2="173.29" y2="158.20"/><line x1="405.97" y1="260.11" x2="403.96" y2="267.79"/><line x1="316.78" y1="204.18" x2="267.36" y2="247.28"/><line x1="244.87" y1="244.04" x2="316.78" y2="204.18"/><line x1="180.34" y1="194.75" x2="188.76" y2="194.63"/><line x1="185.70" y1="432.17" x2="215.78" y2="441.01"/><line x1="214.48" y1="279.97" x2="109.40" y2="265.09"/><line x1="316.78" y1="204.18" x2="261.37" y2="167.05"/><line x1="106.63" y1="255.51" x2="105.25" y2="246.78"/><line x1="169.40" y1="55.88" x2="167.49" y2="56.65"/><line x1="267.36" y1="247.28" x2="271.18" y2="254.69"/><line x1="201.85" y1="35.16" x2="242.92" y2="52.42"/><line x1="199.52" y1="294.05" x2="110.93" y2="269.67"/><line x1="226.92" y1="411.04" x2="230.52" y2="400.81"/><line x1="191.42" y1="41.03" x2="246.81" y2="61.52"/><line x1="316.60" y1="316.42" x2="392.26" y2="293.37"/><line x1="259.41" y1="149.66" x2="135.43" y2="70.77"/><line x1="113.19" y1="283.56" x2="113.14" y2="282.80"/><line x1="213.15" y1="195.87" x2="220.68" y2="196.70"/><line x1="259.41" y1="149.66" x2="139.47" y2="123.86"/><line x1="291.32" y1="286.81" x2="297.29" y2="294.79"/><line x1="130.46" y1="75.55" x2="127.10" y2="80.67"/><line x1="128.14" y1="316.96" x2="123.23" y2="311.74"/><line x1="113.14" y1="282.80" x2="113.07" y2="281.97"/><line x1="121.02" y1="210.42" x2="126.80" y2="206.70"/><line x1="220.68" y1="196.70" x2="260.32" y2="175.85"/><line x1="183.92" y1="306.38" x2="112.57" y2="278.11"/><line x1="211.14" y1="32.24" x2="201.85" y2="35.16"/><line x1="127.10" y1="80.67" x2="125.22" y2="86.14"/><line x1="214.91" y1="360.64" x2="244.10" y2="358.21"/><line x1="126.80" y1="206.70" x2="133.22" y2="203.55"/><line x1="177.93" y1="51.77" x2="254.72" y2="94.08"/><line x1="360.67" y1="166.15" x2="366.98" y2="159.84"/><line x1="293.38" y1="40.51" x2="300.17" y2="36.22"/><line x1="112.57" y1="278.11" x2="112.41" y2="277.05"/><line x1="211.98" y1="450.82" x2="185.70" y2="432.17"/><line x1="309.99" y1="309.73" x2="374.97" y2="213.38"/><line x1="254.72" y1="94.08" x2="176.91" y2="52.39"/><line x1="256.33" y1="105.79" x2="171.18" y2="55.13"/><line x1="359.30" y1="58.38" x2="266.95" y2="107.96"/><line x1="264.15" y1="130.88" x2="265.38" y2="119.58"/><line x1="112.41" y1="277.05" x2="191.76" y2="300.50"/><line x1="171.92" y1="195.19" x2="180.34" y2="194.75"/><line x1="368.90" y1="333.41" x2="374.55" y2="328.93"/><line x1="316.60" y1="316.42" x2="396.45" y2="226.19"/><line x1="200.45" y1="480.00" x2="204.30" y2="470.30"/><line x1="265.42" y1="260.94" x2="267.36" y2="247.28"/><line x1="316.60" y1="316.42" x2="396.21" y2="285.12"/><line x1="139.47" y1="123.86" x2="145.13" y2="130.68"/><line x1="323.33" y1="322.41" x2="389.86" y2="300.38"/><line x1="226.10" y1="325.66" x2="229.59" y2="313.23"/><line x1="180.34" y1="194.75" x2="221.52" y2="272.61"/><line x1="268.94" y1="96.27" x2="271.42" y2="84.80"/><line x1="395.49" y1="286.24" x2="395.86" y2="285.63"/><line x1="228.16" y1="265.20" x2="234.32" y2="257.89"/><line x1="395.43" y1="123.00" x2="398.28" y2="117.14"/><line x1="350.23" y1="336.68" x2="343.61" y2="334.83"/><line x1="111.40" y1="271.68" x2="199.52" y2="294.05"/><line x1="198.63" y1="402.86" x2="226.92" y2="411.04"/><line x1="169.40" y1="55.88" x2="257.53" y2="117.47"/><line x1="271.42" y1="84.80" x2="349.74" y2="52.97"/><line x1="199.52" y1="294.05" x2="111.16" y2="270.66"/><line x1="226.92" y1="411.04" x2="202.83" y2="392.70"/><line x1="331.76" y1="204.91" x2="291.32" y2="286.81"/><line x1="189.23" y1="171.67" x2="197.30" y2="178.22"/><line x1="391.49" y1="295.45" x2="391.87" y2="294.41"/><line x1="339.81" y1="185.19" x2="347.05" y2="178.84"/><line x1="213.15" y1="195.87" x2="239.92" y2="250.78"/><line x1="291.32" y1="286.81" x2="339.32" y2="205.61"/><line x1="316.60" y1="316.42" x2="406.61" y2="246.58"/><line x1="400.71" y1="84.42" x2="398.34" y2="79.48"/><line x1="179.38" y1="50.64" x2="178.75" y2="51.19"/><line x1="128.14" y1="316.96" x2="133.68" y2="320.41"/><line x1="109.92" y1="266.30" x2="109.66" y2="265.65"/><line x1="391.87" y1="294.41" x2="392.26" y2="293.37"/><line x1="323.33" y1="322.41" x2="316.60" y2="316.42"/><line x1="237.50" y1="379.88" x2="214.91" y2="360.64"/><line x1="158.91" y1="59.96" x2="156.59" y2="60.83"/><line x1="220.68" y1="196.70" x2="260.06" y2="171.91"/><line x1="287.49" y1="46.69" x2="293.38" y2="40.51"/><line x1="232.88" y1="38.47" x2="238.30" y2="44.65"/><line x1="214.91" y1="360.64" x2="240.85" y2="369.15"/><line x1="361.44" y1="209.32" x2="309.99" y2="309.73"/><line x1="260.32" y1="175.85" x2="316.78" y2="204.18"/><line x1="293.38" y1="40.51" x2="316.66" y2="34.44"/><line x1="394.30" y1="288.53" x2="394.71" y2="287.69"/><line x1="250.27" y1="335.62" x2="253.17" y2="323.94"/><line x1="199.52" y1="294.05" x2="207.12" y2="287.17"/><line x1="176.09" y1="311.54" x2="112.97" y2="281.08"/><line x1="144.52" y1="65.43" x2="142.10" y2="66.39"/><line x1="309.99" y1="309.73" x2="368.38" y2="211.17"/><line x1="256.33" y1="105.79" x2="172.84" y2="54.40"/><line x1="394.71" y1="287.69" x2="395.10" y2="286.93"/><line x1="264.15" y1="130.88" x2="367.54" y2="62.24"/><line x1="316.60" y1="316.42" x2="391.96" y2="222.34"/><line x1="200.45" y1="480.00" x2="172.38" y2="460.26"/><line x1="262.47" y1="151.32" x2="263.20" y2="141.55"/><line x1="316.60" y1="316.42" x2="400.73" y2="276.12"/><line x1="172.38" y1="460.26" x2="176.84" y2="450.98"/><line x1="250.03" y1="71.68" x2="252.64" y2="82.62"/><line x1="226.10" y1="325.66" x2="253.17" y2="323.94"/><line x1="228.16" y1="265.20" x2="205.25" y2="195.22"/><line x1="112.97" y1="281.08" x2="112.86" y2="280.13"/><line x1="350.23" y1="336.68" x2="374.55" y2="328.93"/><line x1="204.30" y1="470.30" x2="208.15" y2="460.58"/><line x1="259.01" y1="139.68" x2="144.52" y2="65.43"/><line x1="234.32" y1="257.89" x2="213.15" y2="195.87"/><line x1="400.24" y1="230.51" x2="403.24" y2="235.34"/><line x1="367.54" y1="62.24" x2="364.67" y2="60.92"/><line x1="330.10" y1="327.57" x2="389.20" y2="302.79"/><line x1="139.80" y1="322.23" x2="128.14" y2="316.96"/><line x1="261.00" y1="287.14" x2="263.30" y2="274.22"/><line x1="161.18" y1="59.11" x2="158.91" y2="59.96"/><line x1="326.51" y1="37.51" x2="287.49" y2="46.69"/><line x1="110.18" y1="267.04" x2="109.92" y2="266.30"/><line x1="175.72" y1="53.03" x2="174.36" y2="53.70"/><line x1="316.60" y1="316.42" x2="309.99" y2="309.73"/><line x1="316.60" y1="316.42" x2="405.39" y2="240.69"/><line x1="260.06" y1="171.91" x2="260.32" y2="175.85"/><line x1="190.06" y1="422.57" x2="194.38" y2="412.81"/><line x1="109.92" y1="266.30" x2="214.48" y2="279.97"/><line x1="354.67" y1="56.03" x2="352.73" y2="54.94"/><line x1="390.11" y1="73.24" x2="387.66" y2="71.89"/><line x1="115.70" y1="295.51" x2="160.76" y2="319.25"/></g></svg>