<svg xmlns="http://www.w3.org/2000/svg" width="512" height="512"><rect width="512" height="512" fill="#0a0f1a"/><text x="12" y="20" font-family="monospace" font-size="11" fill="#4a7fa5">FRONT (XZ)</text><g stroke="#00d4ff" stroke-width="0.6" opacity="0.85"><line x1="143.34" y1="455.59" x2="103.07" y2="457.92"/><line x1="261.58" y1="414.17" x2="240.40" y2="397.15"/><line x1="227.86" y1="428.31" x2="188.64" y2="442.20"/><line x1="333.99" y1="61.06" x2="333.99" y2="122.05"/><line x1="420.69" y1="244.09" x2="477.53" y2="249.04"/><line x1="304.32" y1="358.95" x2="315.02" y2="386.02"/><line x1="411.53" y1="268.48" x2="432.92" y2="300.13"/><line x1="315.02" y1="386.02" x2="290.44" y2="400.00"/><line x1="409.19" y1="194.91" x2="454.77" y2="170.73"/><line x1="469.28" y1="194.31" x2="477.43" y2="214.95"/><line x1="401.98" y1="109.26" x2="390.74" y2="170.38"/><line x1="333.99" y1="122.05" x2="350.80" y2="70.44"/><line x1="420.69" y1="244.09" x2="460.79" y2="276.32"/><line x1="304.32" y1="358.95" x2="272.88" y2="378.67"/><line x1="91.34" y1="468.26" x2="32.05" y2="480.00"/><line x1="390.74" y1="170.38" x2="419.37" y2="126.82"/><line x1="207.02" y1="414.35" x2="188.64" y2="442.20"/><line x1="290.44" y1="400.00" x2="272.88" y2="378.67"/><line x1="409.19" y1="194.91" x2="419.54" y2="219.53"/><line x1="363.51" y1="315.86" x2="353.79" y2="359.56"/><line x1="334.58" y1="338.00" x2="335.94" y2="372.47"/><line x1="416.59" y1="311.77" x2="399.62" y2="323.79"/><line x1="188.64" y1="442.20" x2="172.91" y2="430.22"/><line x1="333.99" y1="122.05" x2="365.31" y2="146.05"/><line x1="460.79" y1="276.32" x2="447.89" y2="288.46"/><line x1="390.74" y1="170.38" x2="409.19" y2="194.91"/><line x1="419.37" y1="126.82" x2="436.96" y2="147.20"/><line x1="365.31" y1="146.05" x2="384.78" y2="94.22"/><line x1="297.90" y1="98.52" x2="317.27" y2="52.94"/><line x1="477.43" y1="214.95" x2="420.69" y2="244.09"/><line x1="215.80" y1="53.36" x2="172.02" y2="32.00"/><line x1="172.91" y1="430.22" x2="143.34" y2="455.59"/><line x1="267.41" y1="32.98" x2="258.13" y2="75.58"/><line x1="384.78" y1="94.22" x2="401.98" y2="109.26"/><line x1="240.40" y1="397.15" x2="227.86" y2="428.31"/><line x1="143.34" y1="455.59" x2="138.21" y2="444.75"/><line x1="138.21" y1="444.75" x2="103.07" y2="457.92"/><line x1="365.31" y1="146.05" x2="390.74" y2="170.38"/><line x1="297.90" y1="98.52" x2="333.99" y2="122.05"/><line x1="227.86" y1="428.31" x2="207.02" y2="414.35"/><line x1="335.94" y1="372.47" x2="315.02" y2="386.02"/><line x1="420.69" y1="244.09" x2="479.95" y2="233.06"/><line x1="454.77" y1="170.73" x2="469.28" y2="194.31"/><line x1="411.53" y1="268.48" x2="390.95" y2="292.55"/><line x1="479.95" y1="233.06" x2="477.53" y2="249.04"/><line x1="258.13" y1="75.58" x2="297.90" y2="98.52"/><line x1="469.28" y1="194.31" x2="419.54" y2="219.53"/><line x1="103.07" y1="457.92" x2="91.34" y2="468.26"/><line x1="420.69" y1="244.09" x2="470.91" y2="263.33"/><line x1="304.32" y1="358.95" x2="290.44" y2="400.00"/><line x1="91.34" y1="468.26" x2="67.63" y2="469.68"/><line x1="432.92" y1="300.13" x2="416.59" y2="311.77"/><line x1="477.53" y1="249.04" x2="470.91" y2="263.33"/><line x1="390.95" y1="292.55" x2="382.73" y2="336.60"/><line x1="470.91" y1="263.33" x2="460.79" y2="276.32"/><line x1="284.00" y1="39.21" x2="300.61" y2="45.76"/><line x1="419.54" y1="219.53" x2="477.43" y2="214.95"/><line x1="401.98" y1="109.26" x2="419.37" y2="126.82"/><line x1="416.59" y1="311.77" x2="390.95" y2="292.55"/><line x1="420.69" y1="244.09" x2="411.53" y2="268.48"/><line x1="436.96" y1="147.20" x2="409.19" y2="194.91"/><line x1="460.79" y1="276.32" x2="411.53" y2="268.48"/><line x1="353.79" y1="359.56" x2="335.94" y2="372.47"/><line x1="67.63" y1="469.68" x2="32.05" y2="480.00"/><line x1="207.02" y1="414.35" x2="172.91" y2="430.22"/><line x1="272.88" y1="378.67" x2="240.40" y2="397.15"/><line x1="297.90" y1="98.52" x2="300.61" y2="45.76"/><line x1="334.58" y1="338.00" x2="304.32" y2="358.95"/><line x1="267.41" y1="32.98" x2="172.02" y2="32.00"/><line x1="382.73" y1="336.60" x2="369.19" y2="347.53"/><line x1="367.72" y1="81.38" x2="384.78" y2="94.22"/><line x1="411.53" y1="268.48" x2="447.89" y2="288.46"/><line x1="143.34" y1="455.59" x2="91.34" y2="468.26"/><line x1="365.31" y1="146.05" x2="401.98" y2="109.26"/><line x1="447.89" y1="288.46" x2="432.92" y2="300.13"/><line x1="261.58" y1="414.17" x2="227.86" y2="428.31"/><line x1="333.99" y1="61.06" x2="350.80" y2="70.44"/><line x1="267.41" y1="32.98" x2="284.00" y2="39.21"/><line x1="411.53" y1="268.48" x2="416.59" y2="311.77"/><line x1="240.40" y1="397.15" x2="207.02" y2="414.35"/><line x1="258.13" y1="75.58" x2="284.00" y2="39.21"/><line x1="409.19" y1="194.91" x2="469.28" y2="194.31"/><line x1="363.51" y1="315.86" x2="369.19" y2="347.53"/><line x1="333.99" y1="122.05" x2="367.72" y2="81.38"/><line x1="369.19" y1="347.53" x2="353.79" y2="359.56"/><line x1="390.74" y1="170.38" x2="436.96" y2="147.20"/><line x1="390.95" y1="292.55" x2="399.62" y2="323.79"/><line x1="290.44" y1="400.00" x2="261.58" y2="414.17"/><line x1="284.00" y1="39.21" x2="297.90" y2="98.52"/><line x1="363.51" y1="315.86" x2="334.58" y2="338.00"/><line x1="103.07" y1="457.92" x2="67.63" y2="469.68"/><line x1="215.80" y1="53.36" x2="267.41" y2="32.98"/><line x1="188.64" y1="442.20" x2="143.34" y2="455.59"/><line x1="350.80" y1="70.44" x2="367.72" y2="81.38"/><line x1="353.79" y1="359.56" x2="334.58" y2="338.00"/><line x1="300.61" y1="45.76" x2="317.27" y2="52.94"/><line x1="390.95" y1="292.55" x2="363.51" y2="315.86"/><line x1="399.62" y1="323.79" x2="382.73" y2="336.60"/><line x1="272.88" y1="378.67" x2="261.58" y2="414.17"/><line x1="419.54" y1="219.53" x2="420.69" y2="244.09"/><line x1="297.90" y1="98.52" x2="333.99" y2="61.06"/><line x1="477.43" y1="214.95" x2="479.95" y2="233.06"/><line x1="335.94" y1="372.47" x2="304.32" y2="358.95"/><line x1="215.80" y1="53.36" x2="258.13" y2="75.58"/><line x1="436.96" y1="147.20" x2="454.77" y2="170.73"/><line x1="382.73" y1="336.60" x2="363.51" y2="315.86"/><line x1="172.91" y1="430.22" x2="138.21" y2="444.75"/><line x1="367.72" y1="81.38" x2="365.31" y2="146.05"/><line x1="317.27" y1="52.94" x2="333.99" y2="61.06"/></g></svg>