<svg xmlns="http://www.w3.org/2000/svg" width="512" height="512"><rect width="512" height="512" fill="#0a0f1a"/><text x="12" y="20" font-family="monospace" font-size="11" fill="#4a7fa5">FRONT (XZ)</text><g stroke="#00d4ff" stroke-width="0.6" opacity="0.85"><line x1="336.68" y1="432.19" x2="268.04" y2="385.66"/><line x1="356.66" y1="105.19" x2="407.52" y2="32.82"/><line x1="338.09" y1="139.58" x2="409.62" y2="141.46"/><line x1="268.04" y1="385.66" x2="274.27" y2="340.68"/><line x1="306.44" y1="214.64" x2="378.35" y2="216.22"/><line x1="340.44" y1="386.27" x2="346.59" y2="341.56"/><line x1="321.31" y1="176.11" x2="338.09" y2="139.58"/><line x1="335.40" y1="479.18" x2="262.93" y2="479.18"/><line x1="282.82" y1="297.07" x2="355.03" y2="298.22"/><line x1="355.03" y1="298.22" x2="365.65" y2="256.38"/><line x1="409.62" y1="141.46" x2="356.66" y2="105.19"/><line x1="264.22" y1="431.88" x2="336.68" y2="432.19"/><line x1="293.57" y1="255.01" x2="306.44" y2="214.64"/><line x1="378.35" y1="216.22" x2="321.31" y2="176.11"/><line x1="274.27" y1="340.68" x2="282.82" y2="297.07"/><line x1="393.04" y1="177.86" x2="409.62" y2="141.46"/><line x1="356.66" y1="105.19" x2="427.96" y2="107.18"/><line x1="268.04" y1="385.66" x2="340.44" y2="386.27"/><line x1="340.44" y1="386.27" x2="274.27" y2="340.68"/><line x1="407.52" y1="32.82" x2="480.00" y2="32.82"/><line x1="321.31" y1="176.11" x2="393.04" y2="177.86"/><line x1="335.40" y1="479.18" x2="264.22" y2="431.88"/><line x1="355.03" y1="298.22" x2="293.57" y2="255.01"/><line x1="264.22" y1="431.88" x2="262.93" y2="479.18"/><line x1="293.57" y1="255.01" x2="365.65" y2="256.38"/><line x1="365.65" y1="256.38" x2="378.35" y2="216.22"/><line x1="427.96" y1="107.18" x2="407.52" y2="32.82"/><line x1="346.59" y1="341.56" x2="355.03" y2="298.22"/><line x1="274.27" y1="340.68" x2="346.59" y2="341.56"/><line x1="393.04" y1="177.86" x2="338.09" y2="139.58"/><line x1="338.09" y1="139.58" x2="356.66" y2="105.19"/><line x1="356.66" y1="105.19" x2="32.00" y2="32.82"/><line x1="336.68" y1="432.19" x2="340.44" y2="386.27"/><line x1="306.44" y1="214.64" x2="321.31" y2="176.11"/><line x1="407.52" y1="32.82" x2="32.00" y2="32.82"/><line x1="335.40" y1="479.18" x2="336.68" y2="432.19"/><line x1="282.82" y1="297.07" x2="293.57" y2="255.01"/><line x1="409.62" y1="141.46" x2="427.96" y2="107.18"/><line x1="264.22" y1="431.88" x2="268.04" y2="385.66"/><line x1="365.65" y1="256.38" x2="306.44" y2="214.64"/><line x1="427.96" y1="107.18" x2="480.00" y2="32.82"/><line x1="378.35" y1="216.22" x2="393.04" y2="177.86"/><line x1="346.59" y1="341.56" x2="282.82" y2="297.07"/></g></svg>