<svg xmlns="http://www.w3.org/2000/svg" width="512" height="512"><rect width="512" height="512" fill="#0a0f1a"/><text x="12" y="20" font-family="monospace" font-size="11" fill="#4a7fa5">FRONT (XZ)</text><g stroke="#00d4ff" stroke-width="0.6" opacity="0.85"><line x1="232.90" y1="385.12" x2="212.28" y2="405.48"/><line x1="189.27" y1="196.69" x2="230.49" y2="221.82"/><line x1="194.27" y1="378.56" x2="192.46" y2="372.62"/><line x1="251.13" y1="347.26" x2="254.43" y2="347.32"/><line x1="288.32" y1="242.03" x2="285.78" y2="237.30"/><line x1="286.55" y1="201.36" x2="271.37" y2="223.30"/><line x1="264.34" y1="394.26" x2="260.90" y2="420.48"/><line x1="254.43" y1="347.32" x2="255.04" y2="321.97"/><line x1="313.15" y1="227.45" x2="310.32" y2="222.87"/><line x1="293.87" y1="277.49" x2="323.65" y2="276.93"/><line x1="250.97" y1="218.60" x2="222.95" y2="199.52"/><line x1="234.98" y1="220.43" x2="232.70" y2="221.09"/><line x1="260.90" y1="420.48" x2="257.78" y2="394.01"/><line x1="218.83" y1="354.00" x2="189.47" y2="352.31"/><line x1="323.65" y1="276.93" x2="294.12" y2="271.81"/><line x1="189.47" y1="352.31" x2="218.61" y2="348.10"/><line x1="288.03" y1="298.11" x2="290.23" y2="293.27"/><line x1="265.59" y1="319.50" x2="273.98" y2="344.21"/><line x1="264.60" y1="194.43" x2="256.63" y2="218.90"/><line x1="319.30" y1="403.89" x2="302.49" y2="382.97"/><line x1="246.24" y1="391.98" x2="239.30" y2="418.16"/><line x1="273.98" y1="344.21" x2="278.72" y2="342.47"/><line x1="239.30" y1="418.16" x2="234.32" y2="416.86"/><line x1="222.90" y1="313.30" x2="227.22" y2="316.04"/><line x1="293.14" y1="282.96" x2="293.87" y2="277.49"/><line x1="322.34" y1="253.41" x2="321.18" y2="247.94"/><line x1="250.97" y1="218.60" x2="234.04" y2="195.73"/><line x1="227.22" y1="316.04" x2="231.56" y2="318.29"/><line x1="266.82" y1="221.25" x2="261.91" y2="219.78"/><line x1="243.72" y1="193.96" x2="241.17" y2="194.27"/><line x1="303.17" y1="412.14" x2="292.38" y2="388.17"/><line x1="260.50" y1="321.04" x2="265.59" y2="319.50"/><line x1="278.61" y1="311.18" x2="296.70" y2="331.74"/><line x1="232.90" y1="385.12" x2="216.22" y2="408.53"/><line x1="230.58" y1="342.60" x2="232.81" y2="343.61"/><line x1="288.32" y1="242.03" x2="313.15" y2="227.45"/><line x1="282.89" y1="391.60" x2="279.78" y2="392.42"/><line x1="218.61" y1="335.53" x2="222.90" y2="313.30"/><line x1="311.02" y1="315.59" x2="313.97" y2="310.73"/><line x1="250.97" y1="218.60" x2="246.35" y2="193.74"/><line x1="250.97" y1="218.60" x2="225.14" y2="198.66"/><line x1="299.89" y1="210.81" x2="295.77" y2="207.35"/><line x1="480.00" y1="32.02" x2="447.51" y2="32.02"/><line x1="225.14" y1="198.66" x2="222.95" y2="199.52"/><line x1="279.34" y1="229.17" x2="275.54" y2="225.94"/><line x1="270.50" y1="393.97" x2="267.42" y2="394.19"/><line x1="245.04" y1="346.80" x2="247.99" y2="347.08"/><line x1="320.62" y1="294.73" x2="322.04" y2="289.00"/><line x1="295.68" y1="386.64" x2="303.17" y2="412.14"/><line x1="220.62" y1="364.72" x2="219.50" y2="359.54"/><line x1="293.14" y1="282.96" x2="323.04" y2="283.07"/><line x1="292.48" y1="334.95" x2="278.61" y2="311.18"/><line x1="281.51" y1="198.98" x2="276.16" y2="197.03"/><line x1="250.97" y1="218.60" x2="236.33" y2="195.16"/><line x1="250.97" y1="218.60" x2="189.27" y2="196.69"/><line x1="220.40" y1="411.17" x2="232.90" y2="385.12"/><line x1="259.41" y1="347.12" x2="264.33" y2="346.54"/><line x1="266.82" y1="221.25" x2="270.53" y2="195.51"/><line x1="315.65" y1="232.32" x2="288.32" y2="242.03"/><line x1="260.50" y1="321.04" x2="269.18" y2="345.57"/><line x1="228.29" y1="341.46" x2="230.58" y2="342.60"/><line x1="229.56" y1="197.08" x2="227.34" y2="197.84"/><line x1="289.98" y1="416.72" x2="282.89" y2="391.60"/><line x1="189.27" y1="344.70" x2="218.61" y2="310.06"/><line x1="270.30" y1="317.34" x2="274.64" y2="314.57"/><line x1="230.58" y1="342.60" x2="240.32" y2="321.28"/><line x1="323.68" y1="264.74" x2="323.18" y2="259.01"/><line x1="285.36" y1="302.75" x2="311.02" y2="315.59"/><line x1="258.38" y1="193.78" x2="251.87" y2="193.56"/><line x1="227.34" y1="197.84" x2="225.14" y2="198.66"/><line x1="282.89" y1="391.60" x2="285.37" y2="417.87"/><line x1="226.63" y1="378.09" x2="201.99" y2="393.87"/><line x1="311.02" y1="315.59" x2="288.03" y2="298.11"/><line x1="250.97" y1="218.60" x2="249.07" y2="193.61"/><line x1="303.70" y1="214.55" x2="299.89" y2="210.81"/><line x1="250.97" y1="218.60" x2="227.34" y2="197.84"/><line x1="201.99" y1="393.87" x2="199.07" y2="389.18"/><line x1="239.67" y1="345.87" x2="242.27" y2="346.39"/><line x1="299.89" y1="210.81" x2="279.34" y2="229.17"/><line x1="480.00" y1="32.02" x2="480.00" y2="64.50"/><line x1="229.50" y1="415.28" x2="224.85" y2="413.40"/><line x1="275.88" y1="419.53" x2="270.50" y2="393.97"/><line x1="242.27" y1="346.39" x2="245.04" y2="346.80"/><line x1="319.67" y1="242.60" x2="317.83" y2="237.39"/><line x1="291.93" y1="288.22" x2="320.62" y2="294.73"/><line x1="480.00" y1="479.91" x2="480.00" y2="447.42"/><line x1="248.04" y1="218.65" x2="245.21" y2="218.81"/><line x1="270.50" y1="393.97" x2="270.98" y2="420.05"/><line x1="192.46" y1="372.62" x2="220.62" y2="364.72"/><line x1="282.20" y1="307.17" x2="285.36" y2="302.75"/><line x1="320.62" y1="294.73" x2="293.14" y2="282.96"/><line x1="271.37" y1="223.30" x2="281.51" y2="198.98"/><line x1="229.52" y1="381.82" x2="226.63" y2="378.09"/><line x1="257.78" y1="394.01" x2="249.77" y2="419.90"/><line x1="220.62" y1="364.72" x2="191.07" y2="366.26"/><line x1="255.04" y1="321.97" x2="259.41" y2="347.12"/><line x1="281.51" y1="198.98" x2="266.82" y2="221.25"/><line x1="447.51" y1="479.91" x2="480.00" y2="447.42"/><line x1="189.27" y1="344.70" x2="189.27" y2="196.69"/><line x1="259.41" y1="347.12" x2="260.50" y2="321.04"/><line x1="280.68" y1="418.80" x2="275.88" y2="419.53"/><line x1="302.49" y1="382.97" x2="311.44" y2="408.32"/><line x1="230.49" y1="221.82" x2="228.36" y2="222.57"/><line x1="255.25" y1="420.33" x2="249.77" y2="419.90"/><line x1="290.23" y1="293.27" x2="291.93" y2="288.22"/><line x1="323.85" y1="270.60" x2="323.68" y2="264.74"/><line x1="234.32" y1="416.86" x2="229.50" y2="415.28"/><line x1="189.27" y1="344.70" x2="218.61" y2="335.53"/><line x1="270.30" y1="317.34" x2="288.02" y2="337.82"/><line x1="275.54" y1="225.94" x2="271.37" y2="223.30"/><line x1="258.38" y1="193.78" x2="250.97" y2="218.60"/><line x1="241.26" y1="390.20" x2="236.82" y2="387.92"/><line x1="292.03" y1="252.71" x2="290.41" y2="247.17"/><line x1="292.38" y1="388.17" x2="289.16" y2="389.51"/><line x1="298.88" y1="413.83" x2="294.47" y2="415.36"/><line x1="300.65" y1="328.20" x2="304.36" y2="324.33"/><line x1="480.00" y1="479.91" x2="447.51" y2="479.91"/><line x1="212.28" y1="405.48" x2="208.60" y2="402.02"/><line x1="282.20" y1="307.17" x2="307.82" y2="320.12"/><line x1="285.78" y1="237.30" x2="307.17" y2="218.57"/><line x1="257.78" y1="394.01" x2="255.25" y2="420.33"/><line x1="294.12" y1="271.81" x2="323.85" y2="270.60"/><line x1="279.78" y1="392.42" x2="276.68" y2="393.08"/><line x1="218.61" y1="348.10" x2="189.27" y2="344.70"/><line x1="313.97" y1="310.73" x2="316.59" y2="305.60"/><line x1="302.49" y1="382.97" x2="315.42" y2="406.18"/><line x1="224.18" y1="374.00" x2="222.17" y2="369.54"/><line x1="290.23" y1="293.27" x2="318.81" y2="300.27"/><line x1="278.72" y1="342.47" x2="270.30" y2="317.34"/><line x1="295.77" y1="207.35" x2="291.32" y2="204.18"/><line x1="196.46" y1="384.08" x2="194.27" y2="378.56"/><line x1="234.32" y1="416.86" x2="241.26" y2="390.20"/><line x1="249.20" y1="322.28" x2="251.13" y2="347.26"/><line x1="270.30" y1="317.34" x2="283.40" y2="340.34"/><line x1="275.54" y1="225.94" x2="286.55" y2="201.36"/><line x1="241.26" y1="390.20" x2="229.50" y2="415.28"/><line x1="231.56" y1="318.29" x2="221.11" y2="337.21"/><line x1="292.03" y1="252.71" x2="319.67" y2="242.60"/><line x1="306.00" y1="380.83" x2="319.30" y2="403.89"/><line x1="265.99" y1="420.37" x2="260.90" y2="420.48"/><line x1="292.38" y1="388.17" x2="298.88" y2="413.83"/><line x1="221.11" y1="337.21" x2="223.56" y2="338.76"/><line x1="323.04" y1="283.07" x2="323.65" y2="276.93"/><line x1="296.70" y1="331.74" x2="300.65" y2="328.20"/><line x1="238.70" y1="194.67" x2="236.33" y2="195.16"/><line x1="298.88" y1="413.83" x2="289.16" y2="389.51"/><line x1="244.75" y1="322.02" x2="249.20" y2="322.28"/><line x1="190.07" y1="359.49" x2="189.47" y2="352.31"/><line x1="216.22" y1="408.53" x2="212.28" y2="405.48"/><line x1="218.61" y1="226.80" x2="220.43" y2="225.90"/><line x1="300.65" y1="328.20" x2="282.20" y2="307.17"/><line x1="189.27" y1="196.69" x2="242.49" y2="219.06"/><line x1="270.53" y1="195.51" x2="264.60" y2="194.43"/><line x1="189.27" y1="196.69" x2="222.33" y2="225.02"/><line x1="212.28" y1="405.48" x2="229.52" y2="381.82"/><line x1="256.63" y1="218.90" x2="258.38" y2="193.78"/><line x1="240.32" y1="321.28" x2="232.81" y2="343.61"/><line x1="285.78" y1="237.30" x2="310.32" y2="222.87"/><line x1="285.37" y1="417.87" x2="279.78" y2="392.42"/><line x1="199.07" y1="389.18" x2="196.46" y2="384.08"/><line x1="232.81" y1="343.61" x2="235.00" y2="344.49"/><line x1="222.95" y1="199.52" x2="220.77" y2="200.45"/><line x1="236.82" y1="387.92" x2="232.90" y2="385.12"/><line x1="279.78" y1="392.42" x2="280.68" y2="418.80"/><line x1="321.18" y1="247.94" x2="292.03" y2="252.71"/><line x1="290.41" y1="247.17" x2="288.32" y2="242.03"/><line x1="313.97" y1="310.73" x2="290.23" y2="293.27"/><line x1="218.61" y1="226.80" x2="189.27" y2="196.69"/><line x1="270.98" y1="420.05" x2="265.99" y2="420.37"/><line x1="224.18" y1="374.00" x2="196.46" y2="384.08"/><line x1="241.17" y1="194.27" x2="238.70" y2="194.67"/><line x1="295.77" y1="207.35" x2="275.54" y2="225.94"/><line x1="189.27" y1="196.69" x2="232.70" y2="221.09"/><line x1="267.42" y1="394.19" x2="264.34" y2="394.26"/><line x1="235.93" y1="320.04" x2="240.32" y2="321.28"/><line x1="191.07" y1="366.26" x2="190.07" y2="359.49"/><line x1="249.20" y1="322.28" x2="247.99" y2="347.08"/><line x1="242.49" y1="219.06" x2="239.88" y2="219.42"/><line x1="313.15" y1="227.45" x2="285.78" y2="237.30"/><line x1="219.50" y1="359.54" x2="218.83" y2="354.00"/><line x1="306.00" y1="380.83" x2="309.59" y2="378.50"/><line x1="249.77" y1="419.90" x2="244.45" y2="419.17"/><line x1="282.76" y1="232.99" x2="279.34" y2="229.17"/><line x1="288.03" y1="298.11" x2="313.97" y2="310.73"/><line x1="251.74" y1="393.25" x2="246.24" y2="391.98"/><line x1="244.75" y1="322.02" x2="245.04" y2="346.80"/><line x1="293.89" y1="265.04" x2="293.19" y2="258.67"/><line x1="189.27" y1="196.69" x2="245.21" y2="218.81"/><line x1="311.44" y1="408.32" x2="307.36" y2="410.30"/><line x1="189.27" y1="196.69" x2="224.27" y2="224.18"/><line x1="218.61" y1="310.06" x2="222.90" y2="313.30"/><line x1="299.05" y1="384.91" x2="295.68" y2="386.64"/><line x1="199.07" y1="389.18" x2="224.18" y2="374.00"/><line x1="288.02" y1="337.82" x2="292.48" y2="334.95"/><line x1="480.00" y1="64.50" x2="447.51" y2="32.02"/><line x1="236.82" y1="387.92" x2="220.40" y2="411.17"/><line x1="290.41" y1="247.17" x2="315.65" y2="232.32"/><line x1="270.98" y1="420.05" x2="267.42" y2="394.19"/><line x1="225.95" y1="340.17" x2="228.29" y2="341.46"/><line x1="189.27" y1="196.69" x2="234.98" y2="220.43"/><line x1="294.47" y1="415.36" x2="289.98" y2="416.72"/><line x1="191.07" y1="366.26" x2="219.50" y2="359.54"/><line x1="322.04" y1="289.00" x2="323.04" y2="283.07"/><line x1="307.17" y1="218.57" x2="303.70" y2="214.55"/><line x1="276.16" y1="197.03" x2="270.53" y2="195.51"/><line x1="249.77" y1="419.90" x2="251.74" y2="393.25"/><line x1="282.76" y1="232.99" x2="299.89" y2="210.81"/><line x1="226.28" y1="223.36" x2="224.27" y2="224.18"/><line x1="222.17" y1="369.54" x2="220.62" y2="364.72"/><line x1="279.34" y1="229.17" x2="295.77" y2="207.35"/><line x1="293.89" y1="265.04" x2="323.18" y2="259.01"/><line x1="189.27" y1="196.69" x2="248.04" y2="218.65"/><line x1="245.04" y1="346.80" x2="249.20" y2="322.28"/><line x1="311.44" y1="408.32" x2="299.05" y2="384.91"/><line x1="245.21" y1="218.81" x2="242.49" y2="219.06"/><line x1="318.81" y1="300.27" x2="320.62" y2="294.73"/><line x1="218.61" y1="335.53" x2="221.11" y2="337.21"/><line x1="251.87" y1="193.56" x2="249.07" y2="193.61"/><line x1="293.14" y1="282.96" x2="322.04" y2="289.00"/><line x1="250.97" y1="218.60" x2="238.70" y2="194.67"/><line x1="288.02" y1="337.82" x2="274.64" y2="314.57"/><line x1="250.97" y1="218.60" x2="218.61" y2="201.43"/><line x1="289.16" y1="389.51" x2="286.00" y2="390.64"/><line x1="266.82" y1="221.25" x2="276.16" y2="197.03"/><line x1="290.41" y1="247.17" x2="317.83" y2="237.39"/><line x1="260.50" y1="321.04" x2="264.33" y2="346.54"/><line x1="265.59" y1="319.50" x2="270.30" y2="317.34"/><line x1="225.95" y1="340.17" x2="235.93" y2="320.04"/><line x1="228.36" y1="222.57" x2="226.28" y2="223.36"/><line x1="234.04" y1="195.73" x2="231.79" y2="196.38"/><line x1="246.24" y1="391.98" x2="241.26" y2="390.20"/><line x1="323.68" y1="264.74" x2="293.89" y2="265.04"/><line x1="293.19" y1="258.67" x2="292.03" y2="252.71"/><line x1="304.36" y1="324.33" x2="307.82" y2="320.12"/><line x1="218.61" y1="335.53" x2="218.61" y2="310.06"/><line x1="32.16" y1="32.09" x2="32.16" y2="64.58"/><line x1="250.97" y1="218.60" x2="251.87" y2="193.56"/><line x1="237.24" y1="345.24" x2="239.67" y2="345.87"/><line x1="250.97" y1="218.60" x2="229.56" y2="197.08"/><line x1="307.17" y1="218.57" x2="282.76" y2="232.99"/><line x1="218.61" y1="201.43" x2="218.61" y2="196.69"/><line x1="283.40" y1="340.34" x2="288.02" y2="337.82"/><line x1="229.50" y1="415.28" x2="236.82" y2="387.92"/><line x1="319.67" y1="242.60" x2="290.41" y2="247.17"/><line x1="222.17" y1="369.54" x2="192.46" y2="372.62"/><line x1="278.61" y1="311.18" x2="282.20" y2="307.17"/><line x1="232.90" y1="385.12" x2="229.52" y2="381.82"/><line x1="229.52" y1="381.82" x2="205.17" y2="398.15"/><line x1="218.61" y1="335.53" x2="231.56" y2="318.29"/><line x1="264.34" y1="394.26" x2="257.78" y2="394.01"/><line x1="250.97" y1="218.60" x2="241.17" y2="194.27"/><line x1="293.87" y1="277.49" x2="294.12" y2="271.81"/><line x1="250.97" y1="218.60" x2="220.77" y2="200.45"/><line x1="289.16" y1="389.51" x2="294.47" y2="415.36"/><line x1="218.83" y1="354.00" x2="218.61" y2="348.10"/><line x1="280.68" y1="418.80" x2="273.58" y2="393.60"/><line x1="261.91" y1="219.78" x2="256.63" y2="218.90"/><line x1="265.59" y1="319.50" x2="278.72" y2="342.47"/><line x1="315.42" y1="406.18" x2="311.44" y2="408.32"/><line x1="246.24" y1="391.98" x2="234.32" y2="416.86"/><line x1="32.00" y1="479.98" x2="64.49" y2="479.98"/><line x1="293.19" y1="258.67" x2="321.18" y2="247.94"/><line x1="250.97" y1="218.60" x2="231.79" y2="196.38"/><line x1="250.97" y1="218.60" x2="248.04" y2="218.65"/><line x1="223.56" y1="338.76" x2="225.95" y2="340.17"/><line x1="236.33" y1="195.16" x2="234.04" y2="195.73"/><line x1="282.20" y1="307.17" x2="304.36" y2="324.33"/><line x1="229.52" y1="381.82" x2="208.60" y2="402.02"/><line x1="237.38" y1="219.87" x2="234.98" y2="220.43"/><line x1="218.61" y1="335.53" x2="227.22" y2="316.04"/><line x1="226.63" y1="378.09" x2="224.18" y2="374.00"/><line x1="310.32" y1="222.87" x2="307.17" y2="218.57"/><line x1="250.97" y1="218.60" x2="243.72" y2="193.96"/><line x1="235.00" y1="344.49" x2="237.24" y2="345.24"/><line x1="220.77" y1="200.45" x2="218.61" y2="201.43"/><line x1="280.68" y1="418.80" x2="276.68" y2="393.08"/><line x1="261.91" y1="219.78" x2="264.60" y2="194.43"/><line x1="290.23" y1="293.27" x2="316.59" y2="305.60"/><line x1="196.46" y1="384.08" x2="222.17" y2="369.54"/><line x1="222.33" y1="225.02" x2="220.43" y2="225.90"/><line x1="275.54" y1="225.94" x2="291.32" y2="204.18"/><line x1="32.00" y1="479.98" x2="32.00" y2="447.50"/><line x1="293.19" y1="258.67" x2="322.34" y2="253.41"/><line x1="247.99" y1="347.08" x2="251.13" y2="347.26"/><line x1="295.68" y1="386.64" x2="292.38" y2="388.17"/><line x1="239.88" y1="219.42" x2="237.38" y2="219.87"/><line x1="292.48" y1="334.95" x2="296.70" y2="331.74"/><line x1="265.99" y1="420.37" x2="264.34" y2="394.26"/><line x1="246.35" y1="193.74" x2="243.72" y2="193.96"/><line x1="323.04" y1="283.07" x2="293.87" y2="277.49"/><line x1="220.40" y1="411.17" x2="216.22" y2="408.53"/><line x1="323.07" y1="401.45" x2="319.30" y2="403.89"/><line x1="315.65" y1="232.32" x2="313.15" y2="227.45"/><line x1="190.07" y1="359.49" x2="218.83" y2="354.00"/><line x1="269.18" y1="345.57" x2="273.98" y2="344.21"/><line x1="270.53" y1="195.51" x2="261.91" y2="219.78"/><line x1="244.45" y1="419.17" x2="239.30" y2="418.16"/><line x1="289.98" y1="416.72" x2="285.37" y2="417.87"/><line x1="323.18" y1="259.01" x2="322.34" y2="253.41"/><line x1="189.27" y1="344.70" x2="218.61" y2="226.80"/><line x1="224.27" y1="224.18" x2="222.33" y2="225.02"/><line x1="285.36" y1="302.75" x2="288.03" y2="298.11"/><line x1="231.56" y1="318.29" x2="235.93" y2="320.04"/><line x1="226.63" y1="378.09" x2="199.07" y2="389.18"/><line x1="307.36" y1="410.30" x2="303.17" y2="412.14"/><line x1="274.64" y1="314.57" x2="278.61" y2="311.18"/><line x1="275.88" y1="419.53" x2="270.98" y2="420.05"/><line x1="291.93" y1="288.22" x2="293.14" y2="282.96"/><line x1="267.42" y1="394.19" x2="265.99" y2="420.37"/><line x1="235.93" y1="320.04" x2="230.58" y2="342.60"/><line x1="240.32" y1="321.28" x2="244.75" y2="322.02"/><line x1="192.46" y1="372.62" x2="191.07" y2="366.26"/><line x1="286.00" y1="390.64" x2="282.89" y2="391.60"/><line x1="271.37" y1="223.30" x2="266.82" y2="221.25"/><line x1="219.50" y1="359.54" x2="190.07" y2="359.49"/><line x1="307.82" y1="320.12" x2="311.02" y2="315.59"/><line x1="257.78" y1="394.01" x2="251.74" y2="393.25"/><line x1="255.04" y1="321.97" x2="260.50" y2="321.04"/><line x1="306.00" y1="380.83" x2="323.07" y2="401.45"/><line x1="294.12" y1="271.81" x2="293.89" y2="265.04"/><line x1="205.17" y1="398.15" x2="201.99" y2="393.87"/><line x1="264.33" y1="346.54" x2="269.18" y2="345.57"/><line x1="323.07" y1="401.45" x2="309.59" y2="378.50"/><line x1="251.74" y1="393.25" x2="244.45" y2="419.17"/><line x1="244.75" y1="322.02" x2="242.27" y2="346.39"/><line x1="302.49" y1="382.97" x2="299.05" y2="384.91"/><line x1="269.18" y1="345.57" x2="265.59" y2="319.50"/><line x1="189.27" y1="196.69" x2="226.28" y2="223.36"/><line x1="244.45" y1="419.17" x2="246.24" y2="391.98"/><line x1="218.61" y1="310.06" x2="218.61" y2="226.80"/><line x1="249.20" y1="322.28" x2="255.04" y2="321.97"/><line x1="323.18" y1="259.01" x2="293.19" y2="258.67"/><line x1="299.05" y1="384.91" x2="307.36" y2="410.30"/><line x1="231.56" y1="318.29" x2="225.95" y2="340.17"/><line x1="249.07" y1="193.61" x2="246.35" y2="193.74"/><line x1="307.36" y1="410.30" x2="295.68" y2="386.64"/><line x1="236.82" y1="387.92" x2="224.85" y2="413.40"/><line x1="274.64" y1="314.57" x2="292.48" y2="334.95"/><line x1="224.85" y1="413.40" x2="220.40" y2="411.17"/><line x1="317.83" y1="237.39" x2="315.65" y2="232.32"/><line x1="189.27" y1="196.69" x2="237.38" y2="219.87"/><line x1="294.47" y1="415.36" x2="286.00" y2="390.64"/><line x1="235.93" y1="320.04" x2="228.29" y2="341.46"/><line x1="240.32" y1="321.28" x2="237.24" y2="345.24"/><line x1="231.79" y1="196.38" x2="229.56" y2="197.08"/><line x1="286.00" y1="390.64" x2="289.98" y2="416.72"/><line x1="285.78" y1="237.30" x2="282.76" y2="232.99"/><line x1="307.82" y1="320.12" x2="285.36" y2="302.75"/><line x1="294.12" y1="271.81" x2="323.68" y2="264.74"/><line x1="205.17" y1="398.15" x2="226.63" y2="378.09"/><line x1="282.76" y1="232.99" x2="303.70" y2="214.55"/><line x1="218.61" y1="348.10" x2="218.61" y2="335.53"/><line x1="64.64" y1="32.09" x2="32.16" y2="64.58"/><line x1="273.58" y1="393.60" x2="270.50" y2="393.97"/><line x1="244.75" y1="322.02" x2="239.67" y2="345.87"/><line x1="189.27" y1="196.69" x2="218.61" y2="196.69"/><line x1="278.72" y1="342.47" x2="283.40" y2="340.34"/><line x1="189.27" y1="196.69" x2="228.36" y2="222.57"/><line x1="318.81" y1="300.27" x2="291.93" y2="288.22"/><line x1="286.55" y1="201.36" x2="281.51" y2="198.98"/><line x1="249.20" y1="322.28" x2="254.43" y2="347.32"/><line x1="254.43" y1="347.32" x2="259.41" y2="347.12"/><line x1="231.56" y1="318.29" x2="223.56" y2="338.76"/><line x1="260.90" y1="420.48" x2="255.25" y2="420.33"/><line x1="306.00" y1="380.83" x2="302.49" y2="382.97"/><line x1="323.65" y1="276.93" x2="323.85" y2="270.60"/><line x1="189.47" y1="352.31" x2="189.27" y2="344.70"/><line x1="264.60" y1="194.43" x2="258.38" y2="193.78"/><line x1="319.30" y1="403.89" x2="315.42" y2="406.18"/><line x1="232.70" y1="221.09" x2="230.49" y2="221.82"/><line x1="189.27" y1="196.69" x2="239.88" y2="219.42"/><line x1="208.60" y1="402.02" x2="205.17" y2="398.15"/><line x1="189.27" y1="196.69" x2="220.43" y2="225.90"/><line x1="256.63" y1="218.90" x2="250.97" y2="218.60"/><line x1="240.32" y1="321.28" x2="235.00" y2="344.49"/><line x1="32.16" y1="32.09" x2="64.64" y2="32.09"/><line x1="237.24" y1="345.24" x2="244.75" y2="322.02"/><line x1="285.37" y1="417.87" x2="280.68" y2="418.80"/><line x1="218.61" y1="201.43" x2="189.27" y2="196.69"/><line x1="276.68" y1="393.08" x2="273.58" y2="393.60"/><line x1="321.18" y1="247.94" x2="319.67" y2="242.60"/><line x1="316.59" y1="305.60" x2="318.81" y2="300.27"/><line x1="303.17" y1="412.14" x2="298.88" y2="413.83"/><line x1="273.58" y1="393.60" x2="275.88" y2="419.53"/><line x1="222.17" y1="369.54" x2="194.27" y2="378.56"/><line x1="278.61" y1="311.18" x2="300.65" y2="328.20"/><line x1="291.32" y1="204.18" x2="286.55" y2="201.36"/><line x1="32.00" y1="447.50" x2="64.49" y2="479.98"/></g></svg>