<svg xmlns="http://www.w3.org/2000/svg" width="512" height="512"><rect width="512" height="512" fill="#0a0f1a"/><text x="12" y="20" font-family="monospace" font-size="11" fill="#4a7fa5">FRONT (XZ)</text><g stroke="#00d4ff" stroke-width="0.6" opacity="0.85"><line x1="225.37" y1="196.97" x2="221.90" y2="198.47"/><line x1="197.44" y1="229.03" x2="224.94" y2="240.12"/><line x1="242.07" y1="218.83" x2="232.68" y2="194.79"/><line x1="202.54" y1="216.91" x2="227.49" y2="232.89"/><line x1="251.65" y1="194.04" x2="248.82" y2="217.24"/><line x1="276.03" y1="225.52" x2="273.48" y2="223.68"/><line x1="255.31" y1="217.14" x2="258.59" y2="195.48"/><line x1="289.61" y1="216.26" x2="288.83" y2="216.26"/><line x1="280.96" y1="207.81" x2="278.08" y2="205.41"/><line x1="286.33" y1="213.24" x2="283.71" y2="210.42"/><line x1="258.59" y1="195.48" x2="252.52" y2="217.04"/><line x1="194.29" y1="248.49" x2="194.16" y2="253.94"/><line x1="224.94" y1="240.12" x2="196.26" y2="233.54"/><line x1="212.39" y1="204.64" x2="209.62" y2="207.28"/><line x1="281.30" y1="229.97" x2="278.63" y2="227.62"/><line x1="480.00" y1="479.91" x2="447.51" y2="479.91"/><line x1="196.26" y1="233.54" x2="195.34" y2="238.29"/><line x1="239.05" y1="220.22" x2="225.37" y2="196.97"/><line x1="318.96" y1="120.01" x2="286.79" y2="235.46"/><line x1="244.55" y1="193.56" x2="245.33" y2="217.83"/><line x1="273.48" y1="223.68" x2="270.99" y2="222.10"/><line x1="252.52" y1="217.04" x2="255.14" y2="194.64"/><line x1="224.94" y1="240.12" x2="224.14" y2="244.15"/><line x1="268.71" y1="199.44" x2="265.37" y2="197.88"/><line x1="258.05" y1="217.45" x2="262.00" y2="196.56"/><line x1="265.96" y1="219.62" x2="271.96" y2="201.23"/><line x1="245.33" y1="217.83" x2="240.48" y2="193.70"/><line x1="223.50" y1="253.06" x2="194.16" y2="253.94"/><line x1="195.34" y1="238.29" x2="224.14" y2="244.15"/><line x1="227.49" y1="232.89" x2="198.89" y2="224.74"/><line x1="270.99" y1="222.10" x2="268.50" y2="220.76"/><line x1="318.96" y1="120.01" x2="289.61" y2="120.01"/><line x1="286.79" y1="235.46" x2="289.61" y2="216.26"/><line x1="226.05" y1="236.37" x2="197.44" y2="229.03"/><line x1="207.05" y1="210.19" x2="204.69" y2="213.41"/><line x1="194.16" y1="253.94" x2="223.50" y2="344.58"/><line x1="252.52" y1="217.04" x2="248.82" y2="217.24"/><line x1="233.67" y1="224.19" x2="212.39" y2="204.64"/><line x1="318.96" y1="344.58" x2="289.61" y2="238.59"/><line x1="278.63" y1="227.62" x2="276.03" y2="225.52"/><line x1="194.69" y1="243.27" x2="223.66" y2="248.47"/><line x1="32.16" y1="32.09" x2="32.16" y2="64.58"/><line x1="229.24" y1="229.69" x2="202.54" y2="216.91"/><line x1="240.48" y1="193.70" x2="242.07" y2="218.83"/><line x1="289.61" y1="238.59" x2="289.61" y2="344.58"/><line x1="248.82" y1="217.24" x2="248.12" y2="193.69"/><line x1="225.37" y1="196.97" x2="236.24" y2="222.00"/><line x1="286.79" y1="235.46" x2="284.01" y2="232.59"/><line x1="271.96" y1="201.23" x2="268.71" y2="199.44"/><line x1="242.07" y1="218.83" x2="236.52" y2="194.11"/><line x1="223.50" y1="344.58" x2="194.16" y2="344.58"/><line x1="236.52" y1="194.11" x2="232.68" y2="194.79"/><line x1="318.96" y1="344.58" x2="318.96" y2="120.01"/><line x1="268.50" y1="220.76" x2="265.96" y2="219.62"/><line x1="248.12" y1="193.69" x2="244.55" y2="193.56"/><line x1="262.00" y1="196.56" x2="258.59" y2="195.48"/><line x1="276.03" y1="225.52" x2="286.33" y2="213.24"/><line x1="223.66" y1="248.47" x2="194.29" y2="248.49"/><line x1="284.01" y1="232.59" x2="281.30" y2="229.97"/><line x1="289.61" y1="238.59" x2="286.79" y2="235.46"/><line x1="248.82" y1="217.24" x2="245.33" y2="217.83"/><line x1="231.32" y1="226.77" x2="207.05" y2="210.19"/><line x1="286.33" y1="213.24" x2="273.48" y2="223.68"/><line x1="194.29" y1="248.49" x2="223.50" y2="253.06"/><line x1="197.44" y1="229.03" x2="196.26" y2="233.54"/><line x1="236.24" y1="222.00" x2="221.90" y2="198.47"/><line x1="480.00" y1="32.02" x2="447.51" y2="32.02"/><line x1="281.30" y1="229.97" x2="288.83" y2="216.26"/><line x1="218.55" y1="200.25" x2="215.37" y2="202.30"/><line x1="232.68" y1="194.79" x2="239.05" y2="220.22"/><line x1="255.31" y1="217.14" x2="252.52" y2="217.04"/><line x1="221.90" y1="198.47" x2="218.55" y2="200.25"/><line x1="260.74" y1="217.97" x2="258.05" y2="217.45"/><line x1="239.05" y1="220.22" x2="228.96" y2="195.74"/><line x1="278.08" y1="205.41" x2="265.96" y2="219.62"/><line x1="273.48" y1="223.68" x2="283.71" y2="210.42"/><line x1="236.24" y1="222.00" x2="233.67" y2="224.19"/><line x1="224.94" y1="240.12" x2="195.34" y2="238.29"/><line x1="283.71" y1="210.42" x2="270.99" y2="222.10"/><line x1="288.83" y1="216.26" x2="278.63" y2="227.62"/><line x1="265.96" y1="219.62" x2="275.08" y2="203.22"/><line x1="289.61" y1="216.26" x2="289.61" y2="120.01"/><line x1="270.99" y1="222.10" x2="280.96" y2="207.81"/><line x1="239.05" y1="220.22" x2="236.24" y2="222.00"/><line x1="265.37" y1="197.88" x2="262.00" y2="196.56"/><line x1="228.96" y1="195.74" x2="225.37" y2="196.97"/><line x1="244.55" y1="193.56" x2="240.48" y2="193.70"/><line x1="207.05" y1="210.19" x2="229.24" y2="229.69"/><line x1="32.00" y1="479.98" x2="64.49" y2="479.98"/><line x1="215.37" y1="202.30" x2="212.39" y2="204.64"/><line x1="288.83" y1="216.26" x2="286.33" y2="213.24"/><line x1="258.05" y1="217.45" x2="255.31" y2="217.14"/><line x1="198.89" y1="224.74" x2="197.44" y2="229.03"/><line x1="223.50" y1="253.06" x2="223.50" y2="344.58"/><line x1="195.34" y1="238.29" x2="194.69" y2="243.27"/><line x1="64.64" y1="32.09" x2="32.16" y2="64.58"/><line x1="289.61" y1="216.26" x2="281.30" y2="229.97"/><line x1="263.38" y1="218.69" x2="260.74" y2="217.97"/><line x1="280.96" y1="207.81" x2="268.50" y2="220.76"/><line x1="224.14" y1="244.15" x2="223.66" y2="248.47"/><line x1="226.05" y1="236.37" x2="224.94" y2="240.12"/><line x1="242.07" y1="218.83" x2="239.05" y2="220.22"/><line x1="318.96" y1="344.58" x2="289.61" y2="344.58"/><line x1="268.50" y1="220.76" x2="278.08" y2="205.41"/><line x1="202.54" y1="216.91" x2="200.60" y2="220.69"/><line x1="251.65" y1="194.04" x2="248.12" y2="193.69"/><line x1="212.39" y1="204.64" x2="231.32" y2="226.77"/><line x1="194.69" y1="243.27" x2="194.29" y2="248.49"/><line x1="248.82" y1="217.24" x2="244.55" y2="193.56"/><line x1="231.32" y1="226.77" x2="209.62" y2="207.28"/><line x1="258.59" y1="195.48" x2="255.14" y2="194.64"/><line x1="480.00" y1="32.02" x2="480.00" y2="64.50"/><line x1="218.55" y1="200.25" x2="233.67" y2="224.19"/><line x1="268.71" y1="199.44" x2="260.74" y2="217.97"/><line x1="223.66" y1="248.47" x2="223.50" y2="253.06"/><line x1="480.00" y1="479.91" x2="480.00" y2="447.42"/><line x1="260.74" y1="217.97" x2="265.37" y2="197.88"/><line x1="227.49" y1="232.89" x2="200.60" y2="220.69"/><line x1="231.32" y1="226.77" x2="229.24" y2="229.69"/><line x1="209.62" y1="207.28" x2="207.05" y2="210.19"/><line x1="236.24" y1="222.00" x2="218.55" y2="200.25"/><line x1="318.96" y1="120.01" x2="289.61" y2="216.26"/><line x1="275.08" y1="203.22" x2="271.96" y2="201.23"/><line x1="252.52" y1="217.04" x2="251.65" y2="194.04"/><line x1="480.00" y1="64.50" x2="447.51" y2="32.02"/><line x1="233.67" y1="224.19" x2="215.37" y2="202.30"/><line x1="232.68" y1="194.79" x2="228.96" y2="195.74"/><line x1="200.60" y1="220.69" x2="198.89" y2="224.74"/><line x1="32.16" y1="32.09" x2="64.64" y2="32.09"/><line x1="265.96" y1="219.62" x2="263.38" y2="218.69"/><line x1="245.33" y1="217.83" x2="242.07" y2="218.83"/><line x1="447.51" y1="479.91" x2="480.00" y2="447.42"/><line x1="229.24" y1="229.69" x2="204.69" y2="213.41"/><line x1="265.37" y1="197.88" x2="258.05" y2="217.45"/><line x1="227.49" y1="232.89" x2="226.05" y2="236.37"/><line x1="278.08" y1="205.41" x2="275.08" y2="203.22"/><line x1="32.00" y1="479.98" x2="32.00" y2="447.50"/><line x1="271.96" y1="201.23" x2="263.38" y2="218.69"/><line x1="283.71" y1="210.42" x2="280.96" y2="207.81"/><line x1="255.14" y1="194.64" x2="251.65" y2="194.04"/><line x1="194.16" y1="253.94" x2="194.16" y2="344.58"/><line x1="233.67" y1="224.19" x2="231.32" y2="226.77"/><line x1="288.83" y1="216.26" x2="276.03" y2="225.52"/><line x1="198.89" y1="224.74" x2="226.05" y2="236.37"/><line x1="262.00" y1="196.56" x2="255.31" y2="217.14"/><line x1="289.61" y1="216.26" x2="284.01" y2="232.59"/><line x1="263.38" y1="218.69" x2="268.71" y2="199.44"/><line x1="229.24" y1="229.69" x2="227.49" y2="232.89"/><line x1="240.48" y1="193.70" x2="236.52" y2="194.11"/><line x1="204.69" y1="213.41" x2="202.54" y2="216.91"/><line x1="224.14" y1="244.15" x2="194.69" y2="243.27"/><line x1="289.61" y1="238.59" x2="318.96" y2="120.01"/><line x1="32.00" y1="447.50" x2="64.49" y2="479.98"/></g></svg>