<svg xmlns="http://www.w3.org/2000/svg" width="512" height="512"><rect width="512" height="512" fill="#0a0f1a"/><text x="12" y="20" font-family="monospace" font-size="11" fill="#4a7fa5">FRONT (XZ)</text><g stroke="#00d4ff" stroke-width="0.6" opacity="0.85"><line x1="218.74" y1="145.68" x2="212.38" y2="118.86"/><line x1="260.05" y1="127.16" x2="241.08" y2="149.84"/><line x1="222.50" y1="145.44" x2="221.37" y2="117.09"/><line x1="247.61" y1="156.05" x2="269.30" y2="136.68"/><line x1="246.22" y1="154.27" x2="244.67" y2="152.65"/><line x1="253.71" y1="182.38" x2="253.65" y2="179.02"/><line x1="275.35" y1="146.06" x2="248.84" y2="157.98"/><line x1="282.20" y1="169.70" x2="281.53" y2="164.99"/><line x1="282.95" y1="180.15" x2="282.67" y2="174.75"/><line x1="248.84" y1="157.98" x2="273.53" y2="142.82"/><line x1="283.05" y1="196.69" x2="253.71" y2="196.69"/><line x1="212.38" y1="118.86" x2="216.85" y2="145.98"/><line x1="222.50" y1="145.44" x2="220.62" y2="145.50"/><line x1="231.67" y1="146.25" x2="228.81" y2="145.80"/><line x1="480.00" y1="479.91" x2="447.51" y2="479.91"/><line x1="236.78" y1="147.68" x2="234.32" y2="146.88"/><line x1="216.85" y1="145.98" x2="209.32" y2="119.71"/><line x1="253.71" y1="222.91" x2="253.71" y2="196.69"/><line x1="283.05" y1="222.91" x2="303.80" y2="196.69"/><line x1="255.60" y1="123.90" x2="250.93" y2="121.24"/><line x1="266.90" y1="133.79" x2="244.67" y2="152.65"/><line x1="248.84" y1="157.98" x2="247.61" y2="156.05"/><line x1="253.65" y1="179.02" x2="253.47" y2="175.82"/><line x1="273.53" y1="142.82" x2="271.52" y2="139.69"/><line x1="251.58" y1="164.66" x2="250.82" y2="162.28"/><line x1="276.97" y1="149.41" x2="249.91" y2="160.06"/><line x1="252.77" y1="169.92" x2="252.23" y2="167.21"/><line x1="244.67" y1="152.65" x2="264.29" y2="131.02"/><line x1="209.32" y1="119.71" x2="214.97" y2="146.40"/><line x1="253.47" y1="175.82" x2="253.18" y2="172.79"/><line x1="283.05" y1="222.91" x2="283.05" y2="196.69"/><line x1="303.80" y1="196.69" x2="303.80" y2="222.91"/><line x1="215.41" y1="118.14" x2="218.74" y2="145.68"/><line x1="227.20" y1="116.56" x2="224.30" y2="116.76"/><line x1="234.32" y1="146.88" x2="231.67" y2="146.25"/><line x1="283.05" y1="344.58" x2="253.71" y2="222.91"/><line x1="235.61" y1="116.79" x2="230.06" y2="116.49"/><line x1="283.05" y1="185.88" x2="253.71" y2="182.38"/><line x1="213.08" y1="146.93" x2="211.20" y2="147.59"/><line x1="32.16" y1="32.09" x2="32.16" y2="64.58"/><line x1="244.67" y1="152.65" x2="242.96" y2="151.16"/><line x1="225.76" y1="145.53" x2="222.50" y2="145.44"/><line x1="264.29" y1="131.02" x2="260.05" y2="127.16"/><line x1="209.32" y1="119.71" x2="211.20" y2="147.59"/><line x1="253.71" y1="222.91" x2="253.71" y2="344.58"/><line x1="269.30" y1="136.68" x2="246.22" y2="154.27"/><line x1="250.93" y1="121.24" x2="246.04" y2="119.16"/><line x1="252.23" y1="167.21" x2="251.58" y2="164.66"/><line x1="260.05" y1="127.16" x2="242.96" y2="151.16"/><line x1="242.96" y1="151.16" x2="241.08" y2="149.84"/><line x1="283.05" y1="344.58" x2="283.05" y2="222.91"/><line x1="253.18" y1="172.79" x2="252.77" y2="169.92"/><line x1="246.22" y1="154.27" x2="266.90" y2="133.79"/><line x1="249.91" y1="160.06" x2="248.84" y2="157.98"/><line x1="253.71" y1="182.38" x2="282.95" y2="180.15"/><line x1="211.20" y1="147.59" x2="209.32" y2="148.37"/><line x1="224.30" y1="116.76" x2="221.37" y2="117.09"/><line x1="253.71" y1="196.69" x2="227.01" y2="222.91"/><line x1="230.06" y1="116.49" x2="227.20" y2="116.56"/><line x1="282.95" y1="180.15" x2="253.65" y2="179.02"/><line x1="218.74" y1="145.68" x2="216.85" y2="145.98"/><line x1="246.04" y1="119.16" x2="236.78" y2="147.68"/><line x1="480.00" y1="32.02" x2="447.51" y2="32.02"/><line x1="227.01" y1="222.91" x2="227.01" y2="196.69"/><line x1="240.93" y1="117.68" x2="235.61" y2="116.79"/><line x1="241.08" y1="149.84" x2="255.60" y2="123.90"/><line x1="275.35" y1="146.06" x2="273.53" y2="142.82"/><line x1="236.78" y1="147.68" x2="240.93" y2="117.68"/><line x1="253.71" y1="196.69" x2="283.05" y2="185.88"/><line x1="278.40" y1="152.88" x2="276.97" y2="149.41"/><line x1="255.60" y1="123.90" x2="239.03" y2="148.67"/><line x1="281.53" y1="164.99" x2="252.77" y2="169.92"/><line x1="228.81" y1="145.80" x2="225.76" y2="145.53"/><line x1="253.65" y1="179.02" x2="282.67" y2="174.75"/><line x1="212.38" y1="118.86" x2="209.32" y2="119.71"/><line x1="280.68" y1="160.61" x2="279.63" y2="156.58"/><line x1="282.67" y1="174.75" x2="253.47" y2="175.82"/><line x1="218.41" y1="117.55" x2="215.41" y2="118.14"/><line x1="252.77" y1="169.92" x2="280.68" y2="160.61"/><line x1="253.47" y1="175.82" x2="282.20" y2="169.70"/><line x1="250.82" y1="162.28" x2="249.91" y2="160.06"/><line x1="239.03" y1="148.67" x2="250.93" y2="121.24"/><line x1="266.90" y1="133.79" x2="264.29" y2="131.02"/><line x1="227.20" y1="116.56" x2="225.76" y2="145.53"/><line x1="32.00" y1="479.98" x2="64.49" y2="479.98"/><line x1="271.52" y1="139.69" x2="269.30" y2="136.68"/><line x1="235.61" y1="116.79" x2="231.67" y2="146.25"/><line x1="276.97" y1="149.41" x2="275.35" y2="146.06"/><line x1="220.62" y1="145.50" x2="218.74" y2="145.68"/><line x1="209.32" y1="119.71" x2="213.08" y2="146.93"/><line x1="64.64" y1="32.09" x2="32.16" y2="64.58"/><line x1="279.63" y1="156.58" x2="278.40" y2="152.88"/><line x1="282.20" y1="169.70" x2="253.18" y2="172.79"/><line x1="239.03" y1="148.67" x2="236.78" y2="147.68"/><line x1="215.41" y1="118.14" x2="212.38" y2="118.86"/><line x1="260.05" y1="127.16" x2="255.60" y2="123.90"/><line x1="283.05" y1="344.58" x2="253.71" y2="344.58"/><line x1="253.18" y1="172.79" x2="281.53" y2="164.99"/><line x1="222.50" y1="145.44" x2="218.41" y2="117.55"/><line x1="247.61" y1="156.05" x2="246.22" y2="154.27"/><line x1="231.67" y1="146.25" x2="230.06" y2="116.49"/><line x1="269.30" y1="136.68" x2="266.90" y2="133.79"/><line x1="230.06" y1="116.49" x2="228.81" y2="145.80"/><line x1="248.84" y1="157.98" x2="271.52" y2="139.69"/><line x1="480.00" y1="32.02" x2="480.00" y2="64.50"/><line x1="240.93" y1="117.68" x2="234.32" y2="146.88"/><line x1="251.58" y1="164.66" x2="278.40" y2="152.88"/><line x1="480.00" y1="479.91" x2="480.00" y2="447.42"/><line x1="253.71" y1="196.69" x2="227.01" y2="196.69"/><line x1="278.40" y1="152.88" x2="250.82" y2="162.28"/><line x1="216.85" y1="145.98" x2="214.97" y2="146.40"/><line x1="221.37" y1="117.09" x2="218.41" y2="117.55"/><line x1="228.81" y1="145.80" x2="227.20" y2="116.56"/><line x1="246.04" y1="119.16" x2="240.93" y2="117.68"/><line x1="253.71" y1="222.91" x2="227.01" y2="222.91"/><line x1="283.05" y1="222.91" x2="303.80" y2="222.91"/><line x1="280.68" y1="160.61" x2="252.23" y2="167.21"/><line x1="480.00" y1="64.50" x2="447.51" y2="32.02"/><line x1="283.05" y1="196.69" x2="283.05" y2="185.88"/><line x1="241.08" y1="149.84" x2="239.03" y2="148.67"/><line x1="234.32" y1="146.88" x2="235.61" y2="116.79"/><line x1="218.41" y1="117.55" x2="220.62" y2="145.50"/><line x1="32.16" y1="32.09" x2="64.64" y2="32.09"/><line x1="244.67" y1="152.65" x2="260.05" y2="127.16"/><line x1="447.51" y1="479.91" x2="480.00" y2="447.42"/><line x1="225.76" y1="145.53" x2="224.30" y2="116.76"/><line x1="253.71" y1="196.69" x2="253.71" y2="182.38"/><line x1="250.82" y1="162.28" x2="276.97" y2="149.41"/><line x1="281.53" y1="164.99" x2="280.68" y2="160.61"/><line x1="32.00" y1="479.98" x2="32.00" y2="447.50"/><line x1="283.05" y1="222.91" x2="253.71" y2="196.69"/><line x1="303.80" y1="196.69" x2="283.05" y2="196.69"/><line x1="252.23" y1="167.21" x2="279.63" y2="156.58"/><line x1="282.67" y1="174.75" x2="282.20" y2="169.70"/><line x1="271.52" y1="139.69" x2="247.61" y2="156.05"/><line x1="220.62" y1="145.50" x2="215.41" y2="118.14"/><line x1="283.05" y1="185.88" x2="282.95" y2="180.15"/><line x1="249.91" y1="160.06" x2="275.35" y2="146.06"/><line x1="279.63" y1="156.58" x2="251.58" y2="164.66"/><line x1="224.30" y1="116.76" x2="222.50" y2="145.44"/><line x1="214.97" y1="146.40" x2="213.08" y2="146.93"/><line x1="209.32" y1="119.71" x2="209.32" y2="148.37"/><line x1="239.03" y1="148.67" x2="246.04" y2="119.16"/><line x1="253.71" y1="222.91" x2="283.05" y2="222.91"/><line x1="32.00" y1="447.50" x2="64.49" y2="479.98"/></g></svg>