<svg xmlns="http://www.w3.org/2000/svg" width="512" height="512"><rect width="512" height="512" fill="#0a0f1a"/><text x="12" y="20" font-family="monospace" font-size="11" fill="#4a7fa5">FRONT (XZ)</text><g stroke="#00d4ff" stroke-width="0.6" opacity="0.85"><line x1="272.85" y1="221.86" x2="269.32" y2="220.95"/><line x1="251.19" y1="193.76" x2="249.98" y2="220.29"/><line x1="207.59" y1="265.19" x2="207.46" y2="269.23"/><line x1="210.94" y1="290.82" x2="177.55" y2="262.96"/><line x1="238.49" y1="345.50" x2="245.73" y2="319.95"/><line x1="270.11" y1="346.50" x2="269.59" y2="319.93"/><line x1="313.14" y1="215.28" x2="291.31" y2="232.50"/><line x1="207.46" y1="269.23" x2="207.53" y2="272.63"/><line x1="221.12" y1="307.16" x2="206.03" y2="331.14"/><line x1="291.31" y1="232.50" x2="310.00" y2="212.39"/><line x1="233.02" y1="196.71" x2="238.83" y2="222.98"/><line x1="206.03" y1="331.14" x2="223.09" y2="309.06"/><line x1="238.83" y1="222.98" x2="227.32" y2="198.49"/><line x1="187.41" y1="309.84" x2="190.46" y2="314.74"/><line x1="210.01" y1="288.05" x2="210.94" y2="290.82"/><line x1="292.80" y1="339.93" x2="284.45" y2="313.75"/><line x1="299.70" y1="204.90" x2="282.78" y2="226.14"/><line x1="210.94" y1="290.82" x2="184.91" y2="235.27"/><line x1="210.94" y1="290.82" x2="179.18" y2="287.84"/><line x1="282.78" y1="226.14" x2="295.97" y2="202.81"/><line x1="228.85" y1="227.96" x2="211.31" y2="206.13"/><line x1="221.21" y1="340.05" x2="232.10" y2="315.26"/><line x1="211.31" y1="206.13" x2="225.87" y2="230.06"/><line x1="311.81" y1="327.20" x2="315.78" y2="323.20"/><line x1="304.92" y1="257.51" x2="333.84" y2="251.64"/><line x1="177.34" y1="268.99" x2="177.54" y2="275.50"/><line x1="272.85" y1="221.86" x2="279.73" y2="196.43"/><line x1="218.15" y1="237.58" x2="215.97" y2="240.50"/><line x1="210.94" y1="290.82" x2="178.18" y2="257.09"/><line x1="238.49" y1="345.50" x2="242.83" y2="319.30"/><line x1="301.69" y1="292.69" x2="330.68" y2="298.67"/><line x1="328.02" y1="235.62" x2="326.02" y2="231.89"/><line x1="212.00" y1="293.48" x2="213.19" y2="296.03"/><line x1="261.92" y1="219.91" x2="258.05" y2="219.78"/><line x1="254.85" y1="321.03" x2="258.05" y2="321.10"/><line x1="480.00" y1="32.02" x2="447.51" y2="32.02"/><line x1="328.44" y1="304.06" x2="330.68" y2="298.67"/><line x1="257.61" y1="347.32" x2="263.96" y2="347.11"/><line x1="318.87" y1="221.52" x2="316.10" y2="218.33"/><line x1="217.55" y1="303.04" x2="219.26" y2="305.15"/><line x1="334.68" y1="255.85" x2="304.92" y2="257.51"/><line x1="244.97" y1="194.35" x2="238.91" y2="195.33"/><line x1="197.57" y1="323.58" x2="201.63" y2="327.51"/><line x1="177.55" y1="262.96" x2="177.34" y2="268.99"/><line x1="283.93" y1="197.70" x2="272.85" y2="221.86"/><line x1="281.84" y1="344.04" x2="287.42" y2="342.19"/><line x1="240.02" y1="318.50" x2="238.49" y2="345.50"/><line x1="306.72" y1="209.70" x2="303.28" y2="207.20"/><line x1="197.99" y1="216.76" x2="218.15" y2="237.58"/><line x1="210.78" y1="334.44" x2="227.37" y2="312.43"/><line x1="325.78" y1="309.28" x2="301.69" y2="292.69"/><line x1="329.82" y1="239.48" x2="328.02" y2="235.62"/><line x1="235.37" y1="224.39" x2="232.03" y2="226.06"/><line x1="218.15" y1="237.58" x2="194.21" y2="220.94"/><line x1="184.73" y1="304.68" x2="212.00" y2="293.48"/><line x1="301.69" y1="292.69" x2="328.44" y2="304.06"/><line x1="328.02" y1="235.62" x2="301.54" y2="247.05"/><line x1="221.78" y1="200.65" x2="216.42" y2="203.22"/><line x1="266.67" y1="194.02" x2="261.92" y2="219.91"/><line x1="212.00" y1="293.48" x2="187.41" y2="309.84"/><line x1="302.91" y1="334.23" x2="307.52" y2="330.88"/><line x1="251.73" y1="320.82" x2="254.85" y2="321.03"/><line x1="305.77" y1="275.40" x2="304.96" y2="281.53"/><line x1="261.92" y1="219.91" x2="262.17" y2="193.68"/><line x1="212.27" y1="246.90" x2="210.80" y2="250.31"/><line x1="254.85" y1="321.03" x2="257.61" y2="347.32"/><line x1="480.00" y1="32.02" x2="480.00" y2="64.50"/><line x1="279.58" y1="224.45" x2="276.27" y2="223.03"/><line x1="321.45" y1="224.84" x2="318.87" y2="221.52"/><line x1="210.80" y1="250.31" x2="209.60" y2="253.85"/><line x1="215.96" y1="300.81" x2="217.55" y2="303.04"/><line x1="480.00" y1="479.91" x2="480.00" y2="447.42"/><line x1="269.32" y1="220.95" x2="265.67" y2="220.30"/><line x1="318.87" y1="221.52" x2="296.01" y2="237.74"/><line x1="249.98" y1="220.29" x2="244.97" y2="194.35"/><line x1="217.55" y1="303.04" x2="197.57" y2="323.58"/><line x1="269.59" y1="319.93" x2="276.07" y2="345.47"/><line x1="244.97" y1="194.35" x2="246.14" y2="220.93"/><line x1="207.53" y1="272.63" x2="207.74" y2="275.93"/><line x1="276.07" y1="345.47" x2="281.84" y2="344.04"/><line x1="447.51" y1="479.91" x2="480.00" y2="447.42"/><line x1="207.74" y1="275.93" x2="208.10" y2="279.11"/><line x1="306.72" y1="209.70" x2="288.66" y2="230.18"/><line x1="210.78" y1="334.44" x2="225.17" y2="310.81"/><line x1="235.37" y1="224.39" x2="221.78" y2="200.65"/><line x1="297.98" y1="337.26" x2="302.91" y2="334.23"/><line x1="292.09" y1="200.90" x2="288.07" y2="199.20"/><line x1="226.77" y1="342.27" x2="237.28" y2="317.56"/><line x1="206.54" y1="209.36" x2="202.10" y2="212.90"/><line x1="296.25" y1="302.39" x2="322.77" y2="314.24"/><line x1="332.74" y1="247.50" x2="331.40" y2="243.45"/><line x1="480.00" y1="479.91" x2="447.51" y2="479.91"/><line x1="269.32" y1="220.95" x2="271.09" y2="194.60"/><line x1="245.73" y1="319.95" x2="248.69" y2="320.45"/><line x1="310.00" y1="212.39" x2="306.72" y2="209.70"/><line x1="215.97" y1="240.50" x2="214.01" y2="243.62"/><line x1="244.66" y1="346.51" x2="251.03" y2="347.11"/><line x1="223.09" y1="309.06" x2="210.78" y2="334.44"/><line x1="330.68" y1="298.67" x2="332.52" y2="293.10"/><line x1="326.02" y1="231.89" x2="323.84" y2="228.30"/><line x1="190.76" y1="225.42" x2="187.65" y2="230.23"/><line x1="227.32" y1="198.49" x2="235.37" y2="224.39"/><line x1="213.19" y1="296.03" x2="214.50" y2="298.48"/><line x1="303.60" y1="287.29" x2="304.96" y2="281.53"/><line x1="305.77" y1="275.40" x2="334.96" y2="281.40"/><line x1="258.05" y1="219.78" x2="253.96" y2="219.90"/><line x1="187.65" y1="230.23" x2="207.74" y2="275.93"/><line x1="190.46" y1="314.74" x2="193.85" y2="319.32"/><line x1="184.91" y1="235.27" x2="182.60" y2="240.48"/><line x1="258.05" y1="321.10" x2="263.98" y2="320.81"/><line x1="257.61" y1="193.56" x2="251.19" y2="193.76"/><line x1="295.97" y1="202.81" x2="292.09" y2="200.90"/><line x1="182.60" y1="240.48" x2="180.71" y2="245.86"/><line x1="263.96" y1="347.11" x2="270.11" y2="346.50"/><line x1="292.09" y1="200.90" x2="279.58" y2="224.45"/><line x1="225.87" y1="230.06" x2="206.54" y2="209.36"/><line x1="226.77" y1="342.27" x2="234.63" y2="316.47"/><line x1="335.78" y1="268.99" x2="335.66" y2="264.53"/><line x1="293.76" y1="235.01" x2="291.31" y2="232.50"/><line x1="333.84" y1="251.64" x2="332.74" y2="247.50"/><line x1="206.54" y1="209.36" x2="223.10" y2="232.36"/><line x1="201.63" y1="327.51" x2="206.03" y2="331.14"/><line x1="177.54" y1="275.50" x2="178.16" y2="281.78"/><line x1="306.05" y1="268.91" x2="305.77" y2="275.40"/><line x1="296.25" y1="302.39" x2="319.44" y2="318.88"/><line x1="332.74" y1="247.50" x2="304.04" y2="253.92"/><line x1="187.65" y1="230.23" x2="208.66" y2="257.50"/><line x1="242.42" y1="221.83" x2="238.83" y2="222.98"/><line x1="279.73" y1="196.43" x2="269.32" y2="220.95"/><line x1="187.65" y1="230.23" x2="210.01" y2="288.05"/><line x1="178.16" y1="281.78" x2="179.18" y2="287.84"/><line x1="287.42" y1="342.19" x2="292.80" y2="339.93"/><line x1="269.32" y1="220.95" x2="275.45" y2="195.40"/><line x1="284.45" y1="313.75" x2="297.98" y2="337.26"/><line x1="194.21" y1="220.94" x2="215.97" y2="240.50"/><line x1="245.73" y1="319.95" x2="244.66" y2="346.51"/><line x1="301.54" y1="247.05" x2="326.02" y2="231.89"/><line x1="262.17" y1="193.68" x2="257.61" y2="193.56"/><line x1="215.97" y1="240.50" x2="190.76" y2="225.42"/><line x1="330.68" y1="298.67" x2="303.60" y2="287.29"/><line x1="326.02" y1="231.89" x2="299.91" y2="243.78"/><line x1="232.10" y1="315.26" x2="226.77" y2="342.27"/><line x1="213.19" y1="296.03" x2="190.46" y2="314.74"/><line x1="296.01" y1="237.74" x2="293.76" y2="235.01"/><line x1="258.05" y1="219.78" x2="257.61" y2="193.56"/><line x1="187.65" y1="230.23" x2="207.53" y2="272.63"/><line x1="315.78" y1="323.20" x2="296.25" y2="302.39"/><line x1="258.05" y1="321.10" x2="263.96" y2="347.11"/><line x1="316.10" y1="218.33" x2="313.14" y2="215.28"/><line x1="246.14" y1="220.93" x2="242.42" y2="221.83"/><line x1="210.94" y1="290.82" x2="212.00" y2="293.48"/><line x1="208.66" y1="257.50" x2="208.00" y2="261.29"/><line x1="219.26" y1="305.15" x2="221.12" y2="307.16"/><line x1="302.92" y1="250.43" x2="301.54" y2="247.05"/><line x1="242.83" y1="319.30" x2="245.73" y2="319.95"/><line x1="238.91" y1="195.33" x2="233.02" y2="196.71"/><line x1="274.87" y1="318.46" x2="279.82" y2="316.39"/><line x1="335.78" y1="268.99" x2="335.58" y2="275.29"/><line x1="288.66" y1="230.18" x2="285.82" y2="228.06"/><line x1="251.03" y1="347.11" x2="257.61" y2="347.32"/><line x1="187.41" y1="309.84" x2="213.19" y2="296.03"/><line x1="303.28" y1="207.20" x2="299.70" y2="204.90"/><line x1="187.65" y1="230.23" x2="209.60" y2="253.85"/><line x1="187.65" y1="230.23" x2="209.23" y2="285.17"/><line x1="227.37" y1="312.43" x2="229.68" y2="313.91"/><line x1="305.92" y1="265.00" x2="305.55" y2="261.20"/><line x1="232.03" y1="226.06" x2="228.85" y2="227.96"/><line x1="210.94" y1="290.82" x2="178.16" y2="281.78"/><line x1="193.85" y1="319.32" x2="197.57" y2="323.58"/><line x1="288.75" y1="310.51" x2="292.72" y2="306.69"/><line x1="335.29" y1="260.15" x2="334.68" y2="255.85"/><line x1="262.17" y1="193.68" x2="258.05" y2="219.78"/><line x1="307.52" y1="330.88" x2="311.81" y2="327.20"/><line x1="480.00" y1="64.50" x2="447.51" y2="32.02"/><line x1="288.07" y1="199.20" x2="283.93" y2="197.70"/><line x1="237.28" y1="317.56" x2="240.02" y2="318.50"/><line x1="296.01" y1="237.74" x2="316.10" y2="218.33"/><line x1="202.10" y1="212.90" x2="197.99" y2="216.76"/><line x1="187.65" y1="230.23" x2="207.46" y2="269.23"/><line x1="335.66" y1="264.53" x2="335.29" y2="260.15"/><line x1="322.77" y1="314.24" x2="325.78" y2="309.28"/><line x1="331.40" y1="243.45" x2="329.82" y2="239.48"/><line x1="210.94" y1="290.82" x2="179.23" y2="251.39"/><line x1="246.14" y1="220.93" x2="238.91" y2="195.33"/><line x1="210.94" y1="290.82" x2="184.73" y2="304.68"/><line x1="219.26" y1="305.15" x2="201.63" y2="327.51"/><line x1="299.25" y1="297.72" x2="301.69" y2="292.69"/><line x1="248.69" y1="320.45" x2="251.73" y2="320.82"/><line x1="274.87" y1="318.46" x2="287.42" y2="342.19"/><line x1="288.66" y1="230.18" x2="303.28" y2="207.20"/><line x1="251.03" y1="347.11" x2="254.85" y2="321.03"/><line x1="334.96" y1="281.40" x2="333.95" y2="287.34"/><line x1="298.06" y1="240.65" x2="296.01" y2="237.74"/><line x1="257.61" y1="347.32" x2="258.05" y2="321.10"/><line x1="227.37" y1="312.43" x2="215.86" y2="337.43"/><line x1="209.60" y1="253.85" x2="208.66" y2="257.50"/><line x1="305.92" y1="265.00" x2="335.29" y2="260.15"/><line x1="210.94" y1="290.82" x2="177.54" y2="275.50"/><line x1="193.85" y1="319.32" x2="217.55" y2="303.04"/><line x1="288.75" y1="310.51" x2="307.52" y2="330.88"/><line x1="197.57" y1="323.58" x2="219.26" y2="305.15"/><line x1="179.23" y1="251.39" x2="178.18" y2="257.09"/><line x1="291.31" y1="232.50" x2="288.66" y2="230.18"/><line x1="304.04" y1="253.92" x2="302.92" y2="250.43"/><line x1="281.84" y1="344.04" x2="274.87" y2="318.46"/><line x1="237.28" y1="317.56" x2="232.52" y2="344.08"/><line x1="335.58" y1="275.29" x2="334.96" y2="281.40"/><line x1="208.10" y1="279.11" x2="208.59" y2="282.20"/><line x1="202.10" y1="212.90" x2="220.52" y2="234.87"/><line x1="335.66" y1="264.53" x2="305.92" y2="265.00"/><line x1="322.77" y1="314.24" x2="299.25" y2="297.72"/><line x1="225.17" y1="310.81" x2="227.37" y2="312.43"/><line x1="271.09" y1="194.60" x2="266.67" y2="194.02"/><line x1="210.94" y1="290.82" x2="180.71" y2="245.86"/><line x1="210.94" y1="290.82" x2="182.48" y2="299.29"/><line x1="180.62" y1="293.68" x2="182.48" y2="299.29"/><line x1="221.78" y1="200.65" x2="232.03" y2="226.06"/><line x1="32.16" y1="32.09" x2="32.16" y2="64.58"/><line x1="282.78" y1="226.14" x2="279.58" y2="224.45"/><line x1="302.91" y1="334.23" x2="288.75" y2="310.51"/><line x1="214.01" y1="243.62" x2="212.27" y2="246.90"/><line x1="292.72" y1="306.69" x2="296.25" y2="302.39"/><line x1="248.69" y1="320.45" x2="251.03" y2="347.11"/><line x1="332.52" y1="293.10" x2="333.95" y2="287.34"/><line x1="180.71" y1="245.86" x2="179.23" y2="251.39"/><line x1="323.84" y1="228.30" x2="321.45" y2="224.84"/><line x1="214.50" y1="298.48" x2="215.96" y2="300.81"/><line x1="279.58" y1="224.45" x2="288.07" y2="199.20"/><line x1="223.10" y1="232.36" x2="220.52" y2="234.87"/><line x1="334.96" y1="281.40" x2="304.96" y2="281.53"/><line x1="304.92" y1="257.51" x2="304.04" y2="253.92"/><line x1="234.63" y1="316.47" x2="237.28" y2="317.56"/><line x1="253.96" y1="219.90" x2="249.98" y2="220.29"/><line x1="263.98" y1="320.81" x2="269.59" y2="319.93"/><line x1="238.49" y1="345.50" x2="244.66" y2="346.51"/><line x1="313.14" y1="215.28" x2="310.00" y2="212.39"/><line x1="221.12" y1="307.16" x2="223.09" y2="309.06"/><line x1="304.04" y1="253.92" x2="331.40" y2="243.45"/><line x1="233.02" y1="196.71" x2="227.32" y2="198.49"/><line x1="299.91" y1="243.78" x2="298.06" y2="240.65"/><line x1="279.82" y1="316.39" x2="284.45" y2="313.75"/><line x1="335.58" y1="275.29" x2="305.77" y2="275.40"/><line x1="299.70" y1="204.90" x2="295.97" y2="202.81"/><line x1="32.00" y1="479.98" x2="64.49" y2="479.98"/><line x1="229.68" y1="313.91" x2="232.10" y2="315.26"/><line x1="228.85" y1="227.96" x2="225.87" y2="230.06"/><line x1="292.72" y1="306.69" x2="315.78" y2="323.20"/><line x1="223.10" y1="232.36" x2="202.10" y2="212.90"/><line x1="319.44" y1="318.88" x2="322.77" y2="314.24"/><line x1="179.18" y1="287.84" x2="180.62" y2="293.68"/><line x1="275.45" y1="195.40" x2="271.09" y2="194.60"/><line x1="301.69" y1="292.69" x2="303.60" y2="287.29"/><line x1="244.66" y1="346.51" x2="248.69" y2="320.45"/><line x1="190.76" y1="225.42" x2="214.01" y2="243.62"/><line x1="303.60" y1="287.29" x2="332.52" y2="293.10"/><line x1="299.91" y1="243.78" x2="323.84" y2="228.30"/><line x1="279.82" y1="316.39" x2="292.80" y2="339.93"/><line x1="190.46" y1="314.74" x2="214.50" y2="298.48"/><line x1="257.61" y1="193.56" x2="253.96" y2="219.90"/><line x1="263.96" y1="347.11" x2="263.98" y2="320.81"/><line x1="32.00" y1="479.98" x2="32.00" y2="447.50"/><line x1="269.59" y1="319.93" x2="274.87" y2="318.46"/><line x1="229.68" y1="313.91" x2="221.21" y2="340.05"/><line x1="208.00" y1="261.29" x2="207.59" y2="265.19"/><line x1="334.68" y1="255.85" x2="333.84" y2="251.64"/><line x1="293.76" y1="235.01" x2="313.14" y2="215.28"/><line x1="292.72" y1="306.69" x2="311.81" y2="327.20"/><line x1="201.63" y1="327.51" x2="221.12" y2="307.16"/><line x1="283.93" y1="197.70" x2="279.73" y2="196.43"/><line x1="306.05" y1="268.91" x2="335.66" y2="264.53"/><line x1="240.02" y1="318.50" x2="242.83" y2="319.30"/><line x1="242.42" y1="221.83" x2="233.02" y2="196.71"/><line x1="287.42" y1="342.19" x2="279.82" y2="316.39"/><line x1="197.99" y1="216.76" x2="194.21" y2="220.94"/><line x1="210.78" y1="334.44" x2="215.86" y2="337.43"/><line x1="285.82" y1="228.06" x2="282.78" y2="226.14"/><line x1="325.78" y1="309.28" x2="328.44" y2="304.06"/><line x1="215.86" y1="337.43" x2="221.21" y2="340.05"/><line x1="184.73" y1="304.68" x2="187.41" y2="309.84"/><line x1="216.42" y1="203.22" x2="211.31" y2="206.13"/><line x1="266.67" y1="194.02" x2="262.17" y2="193.68"/><line x1="305.55" y1="261.20" x2="304.92" y2="257.51"/><line x1="276.27" y1="223.03" x2="272.85" y2="221.86"/><line x1="232.52" y1="344.08" x2="238.49" y2="345.50"/><line x1="316.10" y1="218.33" x2="293.76" y2="235.01"/><line x1="220.52" y1="234.87" x2="218.15" y2="237.58"/><line x1="249.98" y1="220.29" x2="246.14" y2="220.93"/><line x1="302.92" y1="250.43" x2="328.02" y2="235.62"/><line x1="269.59" y1="319.93" x2="281.84" y2="344.04"/><line x1="238.91" y1="195.33" x2="242.42" y2="221.83"/><line x1="335.78" y1="268.99" x2="306.05" y2="268.91"/><line x1="265.67" y1="220.30" x2="261.92" y2="219.91"/><line x1="208.59" y1="282.20" x2="209.23" y2="285.17"/><line x1="306.05" y1="268.91" x2="335.58" y2="275.29"/><line x1="303.28" y1="207.20" x2="285.82" y2="228.06"/><line x1="187.65" y1="230.23" x2="210.80" y2="250.31"/><line x1="187.65" y1="230.23" x2="208.59" y2="282.20"/><line x1="209.23" y1="285.17" x2="210.01" y2="288.05"/><line x1="285.82" y1="228.06" x2="299.70" y2="204.90"/><line x1="232.03" y1="226.06" x2="216.42" y2="203.22"/><line x1="215.86" y1="337.43" x2="229.68" y2="313.91"/><line x1="335.29" y1="260.15" x2="305.55" y2="261.20"/><line x1="216.42" y1="203.22" x2="228.85" y2="227.96"/><line x1="307.52" y1="330.88" x2="292.72" y2="306.69"/><line x1="305.55" y1="261.20" x2="334.68" y2="255.85"/><line x1="226.77" y1="342.27" x2="232.52" y2="344.08"/><line x1="288.07" y1="199.20" x2="276.27" y2="223.03"/><line x1="178.18" y1="257.09" x2="177.55" y2="262.96"/><line x1="306.05" y1="268.91" x2="305.92" y2="265.00"/><line x1="276.27" y1="223.03" x2="283.93" y2="197.70"/><line x1="296.25" y1="302.39" x2="299.25" y2="297.72"/><line x1="187.65" y1="230.23" x2="207.59" y2="265.19"/><line x1="187.65" y1="230.23" x2="184.91" y2="235.27"/><line x1="232.52" y1="344.08" x2="240.02" y2="318.50"/><line x1="331.40" y1="243.45" x2="302.92" y2="250.43"/><line x1="220.52" y1="234.87" x2="197.99" y2="216.76"/><line x1="284.45" y1="313.75" x2="288.75" y2="310.51"/><line x1="299.25" y1="297.72" x2="325.78" y2="309.28"/><line x1="302.92" y1="250.43" x2="329.82" y2="239.48"/><line x1="182.48" y1="299.29" x2="184.73" y2="304.68"/><line x1="223.09" y1="309.06" x2="225.17" y2="310.81"/><line x1="265.67" y1="220.30" x2="266.67" y2="194.02"/><line x1="251.03" y1="347.11" x2="251.73" y2="320.82"/><line x1="227.32" y1="198.49" x2="221.78" y2="200.65"/><line x1="64.64" y1="32.09" x2="32.16" y2="64.58"/><line x1="298.06" y1="240.65" x2="318.87" y2="221.52"/><line x1="187.65" y1="230.23" x2="212.27" y2="246.90"/><line x1="187.65" y1="230.23" x2="208.10" y2="279.11"/><line x1="304.96" y1="281.53" x2="333.95" y2="287.34"/><line x1="251.19" y1="193.76" x2="244.97" y2="194.35"/><line x1="210.94" y1="290.82" x2="177.34" y2="268.99"/><line x1="193.85" y1="319.32" x2="215.96" y2="300.81"/><line x1="270.11" y1="346.50" x2="276.07" y2="345.47"/><line x1="225.87" y1="230.06" x2="223.10" y2="232.36"/><line x1="291.31" y1="232.50" x2="306.72" y2="209.70"/><line x1="206.03" y1="331.14" x2="210.78" y2="334.44"/><line x1="238.83" y1="222.98" x2="235.37" y2="224.39"/><line x1="187.65" y1="230.23" x2="208.00" y2="261.29"/><line x1="279.73" y1="196.43" x2="275.45" y2="195.40"/><line x1="292.80" y1="339.93" x2="297.98" y2="337.26"/><line x1="187.65" y1="230.23" x2="210.94" y2="290.82"/><line x1="271.09" y1="194.60" x2="265.67" y2="220.30"/><line x1="210.94" y1="290.82" x2="182.60" y2="240.48"/><line x1="210.94" y1="290.82" x2="180.62" y2="293.68"/><line x1="284.45" y1="313.75" x2="302.91" y2="334.23"/><line x1="194.21" y1="220.94" x2="190.76" y2="225.42"/><line x1="32.16" y1="32.09" x2="64.64" y2="32.09"/><line x1="282.78" y1="226.14" x2="292.09" y2="200.90"/><line x1="214.01" y1="243.62" x2="187.65" y2="230.23"/><line x1="301.54" y1="247.05" x2="299.91" y2="243.78"/><line x1="221.21" y1="340.05" x2="226.77" y2="342.27"/><line x1="332.52" y1="293.10" x2="304.96" y2="281.53"/><line x1="323.84" y1="228.30" x2="298.06" y2="240.65"/><line x1="211.31" y1="206.13" x2="206.54" y2="209.36"/><line x1="232.10" y1="315.26" x2="234.63" y2="316.47"/><line x1="214.50" y1="298.48" x2="193.85" y2="319.32"/><line x1="304.92" y1="257.51" x2="332.74" y2="247.50"/><line x1="298.06" y1="240.65" x2="321.45" y2="224.84"/><line x1="253.96" y1="219.90" x2="251.19" y2="193.76"/><line x1="315.78" y1="323.20" x2="319.44" y2="318.88"/><line x1="263.98" y1="320.81" x2="270.11" y2="346.50"/><line x1="32.00" y1="447.50" x2="64.49" y2="479.98"/></g></svg>