<svg xmlns="http://www.w3.org/2000/svg" width="512" height="512"><rect width="512" height="512" fill="#0a0f1a"/><text x="12" y="20" font-family="monospace" font-size="11" fill="#4a7fa5">FRONT (XZ)</text><g stroke="#00d4ff" stroke-width="0.6" opacity="0.85"><line x1="256.31" y1="214.71" x2="282.73" y2="222.92"/><line x1="229.91" y1="222.91" x2="165.24" y2="108.67"/><line x1="480.00" y1="32.02" x2="480.00" y2="64.50"/><line x1="175.54" y1="247.16" x2="175.54" y2="222.91"/><line x1="270.83" y1="270.25" x2="337.74" y2="292.15"/><line x1="270.83" y1="344.58" x2="241.49" y2="292.15"/><line x1="270.83" y1="247.16" x2="241.49" y2="247.16"/><line x1="315.54" y1="108.67" x2="347.87" y2="108.67"/><line x1="32.16" y1="32.09" x2="32.16" y2="64.58"/><line x1="241.49" y1="247.16" x2="229.91" y2="222.91"/><line x1="480.00" y1="479.91" x2="480.00" y2="447.42"/><line x1="337.74" y1="292.15" x2="337.74" y2="270.25"/><line x1="241.49" y1="270.25" x2="175.54" y2="270.25"/><line x1="229.91" y1="222.91" x2="175.54" y2="247.16"/><line x1="241.49" y1="292.15" x2="241.49" y2="344.58"/><line x1="282.73" y1="222.92" x2="337.74" y2="247.16"/><line x1="270.83" y1="270.25" x2="241.49" y2="270.25"/><line x1="32.00" y1="479.98" x2="64.49" y2="479.98"/><line x1="270.83" y1="292.15" x2="337.74" y2="292.15"/><line x1="241.49" y1="292.15" x2="175.54" y2="292.15"/><line x1="270.83" y1="270.25" x2="270.83" y2="247.16"/><line x1="229.91" y1="222.91" x2="199.18" y2="108.67"/><line x1="480.00" y1="64.50" x2="447.51" y2="32.02"/><line x1="270.83" y1="344.58" x2="270.83" y2="292.15"/><line x1="241.49" y1="247.16" x2="256.31" y2="214.71"/><line x1="32.16" y1="32.09" x2="64.64" y2="32.09"/><line x1="480.00" y1="479.91" x2="447.51" y2="479.91"/><line x1="64.64" y1="32.09" x2="32.16" y2="64.58"/><line x1="447.51" y1="479.91" x2="480.00" y2="447.42"/><line x1="241.49" y1="270.25" x2="241.49" y2="247.16"/><line x1="241.49" y1="270.25" x2="175.54" y2="292.15"/><line x1="199.18" y1="108.67" x2="165.24" y2="108.67"/><line x1="241.49" y1="292.15" x2="270.83" y2="270.25"/><line x1="282.73" y1="222.92" x2="347.87" y2="108.67"/><line x1="282.73" y1="222.92" x2="315.54" y2="108.67"/><line x1="241.49" y1="292.15" x2="241.49" y2="270.25"/><line x1="32.00" y1="479.98" x2="32.00" y2="447.50"/><line x1="270.83" y1="292.15" x2="270.83" y2="270.25"/><line x1="256.31" y1="214.71" x2="229.91" y2="222.91"/><line x1="256.31" y1="214.71" x2="199.18" y2="108.67"/><line x1="270.83" y1="270.25" x2="337.74" y2="270.25"/><line x1="229.91" y1="222.91" x2="175.54" y2="222.91"/><line x1="256.31" y1="214.71" x2="315.54" y2="108.67"/><line x1="337.74" y1="247.16" x2="337.74" y2="222.91"/><line x1="270.83" y1="344.58" x2="241.49" y2="344.58"/><line x1="480.00" y1="32.02" x2="447.51" y2="32.02"/><line x1="175.54" y1="292.15" x2="175.54" y2="270.25"/><line x1="241.49" y1="247.16" x2="175.54" y2="247.16"/><line x1="270.83" y1="247.16" x2="256.31" y2="214.71"/><line x1="270.83" y1="247.16" x2="282.73" y2="222.92"/><line x1="282.73" y1="222.92" x2="337.74" y2="222.91"/><line x1="270.83" y1="247.16" x2="337.74" y2="247.16"/><line x1="241.49" y1="270.25" x2="270.83" y2="247.16"/><line x1="241.49" y1="292.15" x2="270.83" y2="292.15"/><line x1="32.00" y1="447.50" x2="64.49" y2="479.98"/></g></svg>