<svg xmlns="http://www.w3.org/2000/svg" width="512" height="512"><rect width="512" height="512" fill="#0a0f1a"/><text x="12" y="20" font-family="monospace" font-size="11" fill="#4a7fa5">FRONT (XZ)</text><g stroke="#00d4ff" stroke-width="0.6" opacity="0.85"><line x1="206.68" y1="349.37" x2="223.00" y2="325.04"/><line x1="300.85" y1="263.63" x2="356.48" y2="261.30"/><line x1="244.60" y1="211.93" x2="239.61" y2="213.52"/><line x1="300.37" y1="289.39" x2="356.47" y2="289.88"/><line x1="270.98" y1="384.02" x2="267.75" y2="339.28"/><line x1="260.62" y1="169.56" x2="255.45" y2="210.66"/><line x1="356.98" y1="275.73" x2="356.48" y2="261.30"/><line x1="284.12" y1="221.97" x2="308.95" y2="177.87"/><line x1="239.94" y1="338.08" x2="244.75" y2="339.71"/><line x1="280.90" y1="383.44" x2="290.41" y2="381.69"/><line x1="210.67" y1="197.66" x2="226.42" y2="222.12"/><line x1="256.10" y1="382.46" x2="261.62" y2="340.58"/><line x1="218.31" y1="362.81" x2="222.55" y2="366.54"/><line x1="291.48" y1="230.77" x2="288.00" y2="226.06"/><line x1="255.45" y1="210.66" x2="251.35" y2="171.32"/><line x1="156.13" y1="95.38" x2="210.67" y2="95.38"/><line x1="231.01" y1="332.87" x2="214.24" y2="358.70"/><line x1="206.68" y1="349.37" x2="212.21" y2="301.62"/><line x1="261.62" y1="340.58" x2="261.05" y2="383.33"/><line x1="348.96" y1="224.14" x2="344.45" y2="213.80"/><line x1="216.52" y1="314.62" x2="214.09" y2="308.44"/><line x1="356.48" y1="261.30" x2="300.05" y2="255.82"/><line x1="266.04" y1="211.92" x2="270.27" y2="168.98"/><line x1="296.46" y1="309.82" x2="298.14" y2="303.75"/><line x1="480.00" y1="479.91" x2="447.51" y2="479.91"/><line x1="291.99" y1="319.71" x2="294.41" y2="315.13"/><line x1="300.05" y1="255.82" x2="354.98" y2="247.89"/><line x1="225.80" y1="183.61" x2="239.61" y2="213.52"/><line x1="270.94" y1="213.49" x2="266.04" y2="211.92"/><line x1="226.42" y1="222.12" x2="222.61" y2="226.25"/><line x1="316.43" y1="369.44" x2="324.28" y2="363.03"/><line x1="273.45" y1="337.10" x2="290.41" y2="381.69"/><line x1="261.62" y1="340.58" x2="270.98" y2="384.02"/><line x1="206.68" y1="349.37" x2="210.37" y2="354.21"/><line x1="261.05" y1="383.33" x2="266.01" y2="383.85"/><line x1="249.79" y1="340.69" x2="246.23" y2="379.68"/><line x1="279.99" y1="218.51" x2="275.60" y2="215.69"/><line x1="239.61" y1="213.52" x2="234.92" y2="215.75"/><line x1="255.06" y1="341.01" x2="251.15" y2="381.24"/><line x1="226.99" y1="369.90" x2="231.60" y2="372.89"/><line x1="290.41" y1="381.69" x2="278.73" y2="334.06"/><line x1="325.12" y1="188.98" x2="317.30" y2="182.87"/><line x1="242.46" y1="174.25" x2="233.94" y2="178.35"/><line x1="294.43" y1="236.09" x2="344.45" y2="213.80"/><line x1="300.08" y1="173.98" x2="290.67" y2="171.20"/><line x1="354.98" y1="247.89" x2="298.71" y2="248.62"/><line x1="225.80" y1="183.61" x2="218.05" y2="190.05"/><line x1="356.47" y1="289.88" x2="356.98" y2="275.73"/><line x1="288.00" y1="226.06" x2="325.12" y2="188.98"/><line x1="235.35" y1="335.80" x2="239.94" y2="338.08"/><line x1="206.68" y1="349.37" x2="216.52" y2="314.62"/><line x1="210.67" y1="197.66" x2="210.67" y2="95.38"/><line x1="301.12" y1="272.06" x2="300.85" y2="263.63"/><line x1="352.34" y1="315.42" x2="354.92" y2="303.11"/><line x1="344.45" y1="213.80" x2="338.93" y2="204.49"/><line x1="294.41" y1="315.13" x2="296.46" y2="309.82"/><line x1="234.92" y1="215.75" x2="218.05" y2="190.05"/><line x1="251.35" y1="171.32" x2="242.46" y2="174.25"/><line x1="210.04" y1="267.57" x2="209.78" y2="277.29"/><line x1="206.68" y1="379.59" x2="156.13" y2="95.38"/><line x1="344.09" y1="337.28" x2="348.73" y2="326.81"/><line x1="352.47" y1="235.50" x2="296.83" y2="242.05"/><line x1="255.06" y1="341.01" x2="261.62" y2="340.58"/><line x1="32.16" y1="32.09" x2="32.16" y2="64.58"/><line x1="299.44" y1="296.95" x2="300.37" y2="289.39"/><line x1="278.73" y1="334.06" x2="299.50" y2="378.77"/><line x1="294.43" y1="236.09" x2="291.48" y2="230.77"/><line x1="270.27" y1="168.98" x2="260.62" y2="169.56"/><line x1="233.94" y1="178.35" x2="244.60" y2="211.93"/><line x1="216.32" y1="236.79" x2="213.97" y2="243.27"/><line x1="156.13" y1="95.38" x2="213.97" y2="243.27"/><line x1="275.60" y1="215.69" x2="270.94" y2="213.49"/><line x1="218.05" y1="190.05" x2="230.52" y2="218.62"/><line x1="156.13" y1="95.38" x2="156.13" y2="379.59"/><line x1="267.75" y1="339.28" x2="280.90" y2="383.44"/><line x1="156.13" y1="95.38" x2="212.21" y2="301.62"/><line x1="324.28" y1="363.03" x2="331.71" y2="355.45"/><line x1="290.67" y1="171.20" x2="280.74" y2="169.54"/><line x1="230.52" y1="218.62" x2="226.42" y2="222.12"/><line x1="299.50" y1="378.77" x2="308.17" y2="374.69"/><line x1="244.60" y1="211.93" x2="225.80" y2="183.61"/><line x1="260.87" y1="210.97" x2="255.45" y2="210.66"/><line x1="338.93" y1="204.49" x2="291.48" y2="230.77"/><line x1="308.17" y1="374.69" x2="283.58" y2="330.15"/><line x1="206.68" y1="379.59" x2="206.68" y2="349.37"/><line x1="239.94" y1="338.08" x2="226.99" y2="369.90"/><line x1="280.90" y1="383.44" x2="273.45" y2="337.10"/><line x1="332.41" y1="196.20" x2="325.12" y2="188.98"/><line x1="296.83" y1="242.05" x2="348.96" y2="224.14"/><line x1="278.73" y1="334.06" x2="283.58" y2="330.15"/><line x1="354.92" y1="303.11" x2="356.47" y2="289.88"/><line x1="291.48" y1="230.77" x2="332.41" y2="196.20"/><line x1="156.13" y1="95.38" x2="210.83" y2="258.66"/><line x1="213.97" y1="243.27" x2="212.14" y2="250.55"/><line x1="156.13" y1="95.38" x2="210.67" y2="197.66"/><line x1="348.73" y1="326.81" x2="352.34" y2="315.42"/><line x1="231.01" y1="332.87" x2="210.37" y2="354.21"/><line x1="348.96" y1="224.14" x2="294.43" y2="236.09"/><line x1="300.85" y1="263.63" x2="300.05" y2="255.82"/><line x1="331.71" y1="355.45" x2="291.99" y2="319.71"/><line x1="260.62" y1="169.56" x2="251.35" y2="171.32"/><line x1="212.14" y1="250.55" x2="210.83" y2="258.66"/><line x1="480.00" y1="32.02" x2="447.51" y2="32.02"/><line x1="219.49" y1="320.15" x2="223.00" y2="325.04"/><line x1="338.42" y1="346.82" x2="344.09" y2="337.28"/><line x1="283.58" y1="330.15" x2="316.43" y2="369.44"/><line x1="256.10" y1="382.46" x2="261.05" y2="383.33"/><line x1="291.99" y1="319.71" x2="338.42" y2="346.82"/><line x1="280.74" y1="169.54" x2="270.27" y2="168.98"/><line x1="222.61" y1="226.25" x2="219.21" y2="231.11"/><line x1="308.95" y1="177.87" x2="279.99" y2="218.51"/><line x1="156.13" y1="95.38" x2="209.78" y2="277.29"/><line x1="316.43" y1="369.44" x2="288.00" y2="325.37"/><line x1="222.55" y1="366.54" x2="226.99" y2="369.90"/><line x1="298.14" y1="303.75" x2="299.44" y2="296.95"/><line x1="210.37" y1="354.21" x2="214.24" y2="358.70"/><line x1="266.04" y1="211.92" x2="260.87" y2="210.97"/><line x1="356.48" y1="261.30" x2="354.98" y2="247.89"/><line x1="279.99" y1="218.51" x2="300.08" y2="173.98"/><line x1="244.75" y1="339.71" x2="236.41" y2="375.51"/><line x1="214.24" y1="358.70" x2="235.35" y2="335.80"/><line x1="223.00" y1="325.04" x2="226.88" y2="329.28"/><line x1="300.93" y1="281.10" x2="301.12" y2="272.06"/><line x1="226.99" y1="369.90" x2="244.75" y2="339.71"/><line x1="325.12" y1="188.98" x2="284.12" y2="221.97"/><line x1="156.13" y1="95.38" x2="222.61" y2="226.25"/><line x1="219.21" y1="231.11" x2="216.32" y2="236.79"/><line x1="225.80" y1="183.61" x2="234.92" y2="215.75"/><line x1="156.13" y1="95.38" x2="210.86" y2="294.16"/><line x1="235.35" y1="335.80" x2="218.31" y2="362.81"/><line x1="246.23" y1="379.68" x2="251.15" y2="381.24"/><line x1="288.00" y1="325.37" x2="324.28" y2="363.03"/><line x1="273.45" y1="337.10" x2="278.73" y2="334.06"/><line x1="352.34" y1="315.42" x2="299.44" y2="296.95"/><line x1="249.87" y1="210.98" x2="233.94" y2="178.35"/><line x1="209.78" y1="277.29" x2="210.05" y2="286.05"/><line x1="32.00" y1="479.98" x2="64.49" y2="479.98"/><line x1="206.68" y1="349.37" x2="219.49" y2="320.15"/><line x1="344.09" y1="337.28" x2="296.46" y2="309.82"/><line x1="255.06" y1="341.01" x2="256.10" y2="382.46"/><line x1="356.98" y1="275.73" x2="300.85" y2="263.63"/><line x1="284.12" y1="221.97" x2="317.30" y2="182.87"/><line x1="294.43" y1="236.09" x2="338.93" y2="204.49"/><line x1="270.27" y1="168.98" x2="260.87" y2="210.97"/><line x1="156.13" y1="95.38" x2="216.32" y2="236.79"/><line x1="354.98" y1="247.89" x2="352.47" y2="235.50"/><line x1="64.64" y1="32.09" x2="32.16" y2="64.58"/><line x1="210.67" y1="197.66" x2="230.52" y2="218.62"/><line x1="236.41" y1="375.51" x2="241.31" y2="377.77"/><line x1="218.31" y1="362.81" x2="239.94" y2="338.08"/><line x1="298.71" y1="248.62" x2="296.83" y2="242.05"/><line x1="290.67" y1="171.20" x2="270.94" y2="213.49"/><line x1="288.00" y1="325.37" x2="291.99" y2="319.71"/><line x1="317.30" y1="182.87" x2="308.95" y2="177.87"/><line x1="210.05" y1="286.05" x2="210.86" y2="294.16"/><line x1="206.68" y1="349.37" x2="226.88" y2="329.28"/><line x1="234.92" y1="215.75" x2="230.52" y2="218.62"/><line x1="206.68" y1="379.59" x2="156.13" y2="379.59"/><line x1="239.94" y1="338.08" x2="222.55" y2="366.54"/><line x1="300.37" y1="289.39" x2="300.93" y2="281.10"/><line x1="270.98" y1="384.02" x2="280.90" y2="383.44"/><line x1="296.46" y1="309.82" x2="348.73" y2="326.81"/><line x1="352.47" y1="235.50" x2="348.96" y2="224.14"/><line x1="332.41" y1="196.20" x2="288.00" y2="226.06"/><line x1="284.12" y1="221.97" x2="279.99" y2="218.51"/><line x1="233.94" y1="178.35" x2="225.80" y2="183.61"/><line x1="156.13" y1="95.38" x2="212.14" y2="250.55"/><line x1="210.67" y1="197.66" x2="222.61" y2="226.25"/><line x1="267.75" y1="339.28" x2="273.45" y2="337.10"/><line x1="348.73" y1="326.81" x2="298.14" y2="303.75"/><line x1="255.45" y1="210.66" x2="249.87" y2="210.98"/><line x1="210.83" y1="258.66" x2="210.04" y2="267.57"/><line x1="270.94" y1="213.49" x2="280.74" y2="169.54"/><line x1="338.93" y1="204.49" x2="332.41" y2="196.20"/><line x1="231.01" y1="332.87" x2="235.35" y2="335.80"/><line x1="206.68" y1="349.37" x2="231.01" y2="332.87"/><line x1="480.00" y1="32.02" x2="480.00" y2="64.50"/><line x1="261.62" y1="340.58" x2="266.01" y2="383.85"/><line x1="216.52" y1="314.62" x2="219.49" y2="320.15"/><line x1="249.79" y1="340.69" x2="241.31" y2="377.77"/><line x1="308.17" y1="374.69" x2="316.43" y2="369.44"/><line x1="338.42" y1="346.82" x2="294.41" y2="315.13"/><line x1="296.83" y1="242.05" x2="294.43" y2="236.09"/><line x1="280.74" y1="169.54" x2="266.04" y2="211.92"/><line x1="156.13" y1="95.38" x2="210.04" y2="267.57"/><line x1="480.00" y1="479.91" x2="480.00" y2="447.42"/><line x1="300.05" y1="255.82" x2="298.71" y2="248.62"/><line x1="241.31" y1="377.77" x2="246.23" y2="379.68"/><line x1="300.08" y1="173.98" x2="275.60" y2="215.69"/><line x1="356.47" y1="289.88" x2="300.93" y2="281.10"/><line x1="298.14" y1="303.75" x2="352.34" y2="315.42"/><line x1="331.71" y1="355.45" x2="338.42" y2="346.82"/><line x1="244.75" y1="339.71" x2="231.60" y2="372.89"/><line x1="261.62" y1="340.58" x2="267.75" y2="339.28"/><line x1="480.00" y1="64.50" x2="447.51" y2="32.02"/><line x1="249.79" y1="340.69" x2="255.06" y2="341.01"/><line x1="283.58" y1="330.15" x2="288.00" y2="325.37"/><line x1="294.41" y1="315.13" x2="344.09" y2="337.28"/><line x1="300.93" y1="281.10" x2="356.98" y2="275.73"/><line x1="251.35" y1="171.32" x2="249.87" y2="210.98"/><line x1="308.95" y1="177.87" x2="300.08" y2="173.98"/><line x1="32.16" y1="32.09" x2="64.64" y2="32.09"/><line x1="156.13" y1="95.38" x2="210.05" y2="286.05"/><line x1="290.41" y1="381.69" x2="299.50" y2="378.77"/><line x1="447.51" y1="479.91" x2="480.00" y2="447.42"/><line x1="299.44" y1="296.95" x2="354.92" y2="303.11"/><line x1="214.09" y1="308.44" x2="212.21" y2="301.62"/><line x1="246.23" y1="379.68" x2="255.06" y2="341.01"/><line x1="275.60" y1="215.69" x2="290.67" y2="171.20"/><line x1="288.00" y1="226.06" x2="284.12" y2="221.97"/><line x1="249.87" y1="210.98" x2="242.46" y2="174.25"/><line x1="32.00" y1="479.98" x2="32.00" y2="447.50"/><line x1="206.68" y1="349.37" x2="214.09" y2="308.44"/><line x1="244.75" y1="339.71" x2="249.79" y2="340.69"/><line x1="212.21" y1="301.62" x2="210.86" y2="294.16"/><line x1="231.60" y1="372.89" x2="236.41" y2="375.51"/><line x1="214.24" y1="358.70" x2="218.31" y2="362.81"/><line x1="266.01" y1="383.85" x2="270.98" y2="384.02"/><line x1="260.87" y1="210.97" x2="260.62" y2="169.56"/><line x1="356.98" y1="275.73" x2="301.12" y2="272.06"/><line x1="156.13" y1="95.38" x2="219.21" y2="231.11"/><line x1="226.88" y1="329.28" x2="231.01" y2="332.87"/><line x1="251.15" y1="381.24" x2="256.10" y2="382.46"/><line x1="210.67" y1="197.66" x2="218.05" y2="190.05"/><line x1="236.41" y1="375.51" x2="249.79" y2="340.69"/><line x1="278.73" y1="334.06" x2="308.17" y2="374.69"/><line x1="354.92" y1="303.11" x2="300.37" y2="289.39"/><line x1="298.71" y1="248.62" x2="352.47" y2="235.50"/><line x1="288.00" y1="325.37" x2="331.71" y2="355.45"/><line x1="249.87" y1="210.98" x2="244.60" y2="211.93"/><line x1="156.13" y1="95.38" x2="206.68" y2="349.37"/><line x1="32.00" y1="447.50" x2="64.49" y2="479.98"/></g></svg>