<svg xmlns="http://www.w3.org/2000/svg" width="512" height="512"><rect width="512" height="512" fill="#0a0f1a"/><text x="12" y="20" font-family="monospace" font-size="11" fill="#4a7fa5">FRONT (XZ)</text><g stroke="#00d4ff" stroke-width="0.6" opacity="0.85"><line x1="273.13" y1="410.57" x2="274.96" y2="411.23"/><line x1="286.12" y1="412.31" x2="291.87" y2="460.54"/><line x1="206.46" y1="372.97" x2="261.02" y2="376.72"/><line x1="269.83" y1="408.82" x2="271.42" y2="409.77"/><line x1="283.53" y1="412.41" x2="286.37" y2="461.49"/><line x1="231.41" y1="453.84" x2="267.07" y2="406.64"/><line x1="289.09" y1="461.05" x2="291.87" y2="460.54"/><line x1="206.88" y1="393.57" x2="261.56" y2="392.15"/><line x1="220.59" y1="444.72" x2="265.91" y2="405.47"/><line x1="264.03" y1="402.94" x2="264.90" y2="404.24"/><line x1="262.28" y1="398.33" x2="262.74" y2="400.18"/><line x1="289.85" y1="411.92" x2="303.59" y2="457.94"/><line x1="265.91" y1="405.47" x2="223.81" y2="448.05"/><line x1="291.87" y1="460.54" x2="287.02" y2="412.24"/><line x1="276.02" y1="462.68" x2="278.53" y2="462.48"/><line x1="261.02" y1="376.72" x2="261.13" y2="382.68"/><line x1="480.00" y1="479.91" x2="447.51" y2="479.91"/><line x1="287.02" y1="412.24" x2="294.71" y2="459.98"/><line x1="240.45" y1="458.30" x2="268.38" y2="407.76"/><line x1="289.85" y1="411.92" x2="297.13" y2="410.66"/><line x1="265.91" y1="405.47" x2="231.41" y2="453.84"/><line x1="261.56" y1="392.15" x2="261.89" y2="395.65"/><line x1="223.81" y1="448.05" x2="227.42" y2="451.09"/><line x1="215.32" y1="437.20" x2="217.76" y2="441.11"/><line x1="209.08" y1="417.38" x2="210.24" y2="423.42"/><line x1="268.38" y1="407.76" x2="245.46" y2="459.97"/><line x1="300.56" y1="458.68" x2="303.59" y2="457.94"/><line x1="294.71" y1="459.98" x2="287.94" y2="412.15"/><line x1="286.37" y1="461.49" x2="289.09" y2="461.05"/><line x1="206.46" y1="372.97" x2="260.99" y2="173.41"/><line x1="285.23" y1="412.36" x2="286.12" y2="412.31"/><line x1="281.09" y1="462.21" x2="283.70" y2="461.88"/><line x1="303.59" y1="457.94" x2="306.66" y2="457.14"/><line x1="206.46" y1="145.93" x2="260.99" y2="95.38"/><line x1="261.13" y1="382.68" x2="206.88" y2="393.57"/><line x1="288.88" y1="412.04" x2="297.60" y2="459.36"/><line x1="32.16" y1="32.09" x2="32.16" y2="64.58"/><line x1="281.20" y1="412.33" x2="283.53" y2="412.41"/><line x1="245.46" y1="459.97" x2="269.83" y2="408.82"/><line x1="294.71" y1="459.98" x2="297.60" y2="459.36"/><line x1="260.99" y1="95.38" x2="206.46" y2="95.38"/><line x1="267.07" y1="406.64" x2="235.77" y2="456.26"/><line x1="273.13" y1="410.57" x2="268.79" y2="462.95"/><line x1="206.46" y1="372.97" x2="260.99" y2="369.92"/><line x1="210.24" y1="423.42" x2="211.61" y2="428.52"/><line x1="269.83" y1="408.82" x2="250.80" y2="461.27"/><line x1="306.66" y1="457.14" x2="297.13" y2="410.66"/><line x1="250.80" y1="461.27" x2="271.42" y2="409.77"/><line x1="206.46" y1="145.93" x2="260.99" y2="145.93"/><line x1="208.13" y1="410.39" x2="209.08" y2="417.38"/><line x1="235.77" y1="456.26" x2="240.45" y2="458.30"/><line x1="206.88" y1="393.57" x2="261.31" y2="387.83"/><line x1="297.60" y1="459.36" x2="289.85" y2="411.92"/><line x1="283.70" y1="461.88" x2="286.37" y2="461.49"/><line x1="260.99" y1="369.92" x2="261.02" y2="376.72"/><line x1="267.07" y1="406.64" x2="268.38" y2="407.76"/><line x1="279.00" y1="412.11" x2="281.09" y2="462.21"/><line x1="261.31" y1="387.83" x2="261.56" y2="392.15"/><line x1="289.85" y1="411.92" x2="300.56" y2="458.68"/><line x1="286.12" y1="412.31" x2="287.02" y2="412.24"/><line x1="206.46" y1="372.97" x2="206.56" y2="383.74"/><line x1="268.79" y1="462.95" x2="274.96" y2="411.23"/><line x1="480.00" y1="32.02" x2="447.51" y2="32.02"/><line x1="261.02" y1="376.72" x2="206.56" y2="383.74"/><line x1="276.92" y1="411.74" x2="273.56" y2="462.83"/><line x1="271.42" y1="409.77" x2="256.46" y2="462.20"/><line x1="206.88" y1="393.57" x2="207.40" y2="402.45"/><line x1="220.59" y1="444.72" x2="223.81" y2="448.05"/><line x1="274.96" y1="411.23" x2="276.92" y2="411.74"/><line x1="213.27" y1="433.01" x2="215.32" y2="437.20"/><line x1="256.46" y1="462.20" x2="262.47" y2="462.76"/><line x1="262.74" y1="400.18" x2="209.08" y2="417.38"/><line x1="289.85" y1="411.92" x2="306.66" y2="457.14"/><line x1="261.56" y1="392.15" x2="207.40" y2="402.45"/><line x1="268.79" y1="462.95" x2="271.15" y2="462.92"/><line x1="291.87" y1="460.54" x2="294.71" y2="459.98"/><line x1="263.31" y1="401.59" x2="264.03" y2="402.94"/><line x1="207.40" y1="402.45" x2="261.89" y2="395.65"/><line x1="276.92" y1="411.74" x2="279.00" y2="412.11"/><line x1="206.56" y1="383.74" x2="261.13" y2="382.68"/><line x1="271.42" y1="409.77" x2="273.13" y2="410.57"/><line x1="284.37" y1="412.39" x2="285.23" y2="412.36"/><line x1="209.08" y1="417.38" x2="263.31" y2="401.59"/><line x1="260.99" y1="173.41" x2="206.46" y2="173.41"/><line x1="261.89" y1="395.65" x2="262.28" y2="398.33"/><line x1="264.90" y1="404.24" x2="217.76" y2="441.11"/><line x1="262.47" y1="462.76" x2="273.13" y2="410.57"/><line x1="240.45" y1="458.30" x2="245.46" y2="459.97"/><line x1="281.09" y1="462.21" x2="281.20" y2="412.33"/><line x1="32.00" y1="479.98" x2="64.49" y2="479.98"/><line x1="207.40" y1="402.45" x2="208.13" y2="410.39"/><line x1="273.56" y1="462.83" x2="276.02" y2="462.68"/><line x1="289.09" y1="461.05" x2="286.12" y2="412.31"/><line x1="294.71" y1="459.98" x2="288.88" y2="412.04"/><line x1="64.64" y1="32.09" x2="32.16" y2="64.58"/><line x1="264.03" y1="402.94" x2="213.27" y2="433.01"/><line x1="262.28" y1="398.33" x2="208.13" y2="410.39"/><line x1="264.90" y1="404.24" x2="265.91" y2="405.47"/><line x1="206.46" y1="145.93" x2="206.46" y2="95.38"/><line x1="208.13" y1="410.39" x2="262.74" y2="400.18"/><line x1="283.53" y1="412.41" x2="284.37" y2="412.39"/><line x1="231.41" y1="453.84" x2="235.77" y2="456.26"/><line x1="276.02" y1="462.68" x2="279.00" y2="412.11"/><line x1="288.88" y1="412.04" x2="289.85" y2="411.92"/><line x1="267.07" y1="406.64" x2="240.45" y2="458.30"/><line x1="279.00" y1="412.11" x2="278.53" y2="462.48"/><line x1="265.91" y1="405.47" x2="227.42" y2="451.09"/><line x1="480.00" y1="32.02" x2="480.00" y2="64.50"/><line x1="276.92" y1="411.74" x2="271.15" y2="462.92"/><line x1="250.80" y1="461.27" x2="256.46" y2="462.20"/><line x1="211.61" y1="428.52" x2="213.27" y2="433.01"/><line x1="297.60" y1="459.36" x2="300.56" y2="458.68"/><line x1="480.00" y1="479.91" x2="480.00" y2="447.42"/><line x1="287.02" y1="412.24" x2="287.94" y2="412.15"/><line x1="213.27" y1="433.01" x2="264.90" y2="404.24"/><line x1="286.37" y1="461.49" x2="284.37" y2="412.39"/><line x1="279.00" y1="412.11" x2="281.20" y2="412.33"/><line x1="278.53" y1="462.48" x2="281.09" y2="462.21"/><line x1="268.79" y1="462.95" x2="276.92" y2="411.74"/><line x1="263.31" y1="401.59" x2="210.24" y2="423.42"/><line x1="265.91" y1="405.47" x2="267.07" y2="406.64"/><line x1="276.92" y1="411.74" x2="276.02" y2="462.68"/><line x1="480.00" y1="64.50" x2="447.51" y2="32.02"/><line x1="271.15" y1="462.92" x2="273.56" y2="462.83"/><line x1="271.42" y1="409.77" x2="262.47" y2="462.76"/><line x1="284.37" y1="412.39" x2="289.09" y2="461.05"/><line x1="32.16" y1="32.09" x2="64.64" y2="32.09"/><line x1="268.38" y1="407.76" x2="269.83" y2="408.82"/><line x1="447.51" y1="479.91" x2="480.00" y2="447.42"/><line x1="281.20" y1="412.33" x2="283.70" y2="461.88"/><line x1="264.90" y1="404.24" x2="215.32" y2="437.20"/><line x1="262.74" y1="400.18" x2="263.31" y2="401.59"/><line x1="32.00" y1="479.98" x2="32.00" y2="447.50"/><line x1="206.46" y1="372.97" x2="206.46" y2="173.41"/><line x1="210.24" y1="423.42" x2="264.03" y2="402.94"/><line x1="207.40" y1="402.45" x2="262.28" y2="398.33"/><line x1="227.42" y1="451.09" x2="231.41" y2="453.84"/><line x1="206.56" y1="383.74" x2="206.88" y2="393.57"/><line x1="289.09" y1="461.05" x2="285.23" y2="412.36"/><line x1="261.13" y1="382.68" x2="261.31" y2="387.83"/><line x1="217.76" y1="441.11" x2="220.59" y2="444.72"/><line x1="260.99" y1="173.41" x2="260.99" y2="369.92"/><line x1="264.03" y1="402.94" x2="211.61" y2="428.52"/><line x1="245.46" y1="459.97" x2="250.80" y2="461.27"/><line x1="283.70" y1="461.88" x2="283.53" y2="412.41"/><line x1="287.94" y1="412.15" x2="288.88" y2="412.04"/><line x1="264.90" y1="404.24" x2="220.59" y2="444.72"/><line x1="262.47" y1="462.76" x2="268.79" y2="462.95"/><line x1="260.99" y1="95.38" x2="260.99" y2="145.93"/><line x1="32.00" y1="447.50" x2="64.49" y2="479.98"/></g></svg>