<svg xmlns="http://www.w3.org/2000/svg" width="512" height="512"><rect width="512" height="512" fill="#0a0f1a"/><text x="12" y="20" font-family="monospace" font-size="11" fill="#4a7fa5">FRONT (XZ)</text><g stroke="#00d4ff" stroke-width="0.6" opacity="0.85"><line x1="350.33" y1="173.41" x2="292.74" y2="243.08"/><line x1="232.10" y1="216.09" x2="207.80" y2="172.30"/><line x1="174.35" y1="195.00" x2="172.45" y2="198.05"/><line x1="236.84" y1="213.43" x2="221.92" y2="169.51"/><line x1="184.34" y1="184.08" x2="181.41" y2="186.59"/><line x1="254.19" y1="171.81" x2="243.36" y2="169.69"/><line x1="247.87" y1="210.77" x2="244.92" y2="211.10"/><line x1="163.03" y1="238.87" x2="162.84" y2="245.01"/><line x1="243.36" y1="169.69" x2="239.40" y2="212.44"/><line x1="254.93" y1="210.82" x2="264.45" y2="175.35"/><line x1="283.26" y1="186.67" x2="262.51" y2="212.09"/><line x1="224.57" y1="223.72" x2="178.78" y2="189.26"/><line x1="220.79" y1="231.32" x2="164.99" y2="218.83"/><line x1="350.33" y1="173.41" x2="290.31" y2="235.42"/><line x1="264.45" y1="175.35" x2="250.95" y2="210.66"/><line x1="295.03" y1="260.70" x2="294.44" y2="253.94"/><line x1="172.45" y1="198.05" x2="170.74" y2="201.21"/><line x1="480.00" y1="479.91" x2="447.51" y2="479.91"/><line x1="207.80" y1="172.30" x2="203.35" y2="173.75"/><line x1="170.74" y1="201.21" x2="221.88" y2="228.61"/><line x1="224.57" y1="223.72" x2="223.14" y2="226.07"/><line x1="234.40" y1="214.65" x2="232.10" y2="216.09"/><line x1="350.33" y1="173.41" x2="295.71" y2="276.88"/><line x1="242.10" y1="211.66" x2="239.40" y2="212.44"/><line x1="350.33" y1="173.41" x2="286.78" y2="228.93"/><line x1="250.95" y1="210.66" x2="254.19" y2="171.81"/><line x1="217.96" y1="250.20" x2="217.60" y2="257.33"/><line x1="274.14" y1="180.30" x2="258.78" y2="211.30"/><line x1="291.81" y1="194.45" x2="273.02" y2="216.36"/><line x1="239.40" y1="212.44" x2="231.96" y2="168.98"/><line x1="165.78" y1="214.95" x2="164.99" y2="218.83"/><line x1="162.78" y1="251.60" x2="217.39" y2="265.42"/><line x1="221.88" y1="228.61" x2="169.22" y2="204.47"/><line x1="219.09" y1="238.84" x2="163.34" y2="233.18"/><line x1="299.79" y1="203.64" x2="282.11" y2="223.26"/><line x1="350.33" y1="173.41" x2="295.03" y2="260.70"/><line x1="295.71" y1="276.88" x2="295.46" y2="268.35"/><line x1="223.14" y1="226.07" x2="174.35" y2="195.00"/><line x1="164.99" y1="218.83" x2="219.87" y2="234.60"/><line x1="203.35" y1="173.75" x2="199.02" y2="175.48"/><line x1="350.33" y1="379.59" x2="295.80" y2="286.30"/><line x1="227.99" y1="219.55" x2="194.91" y2="177.41"/><line x1="291.64" y1="238.98" x2="290.31" y2="235.42"/><line x1="167.88" y1="207.85" x2="166.74" y2="211.34"/><line x1="274.14" y1="180.30" x2="264.45" y2="175.35"/><line x1="32.16" y1="32.09" x2="32.16" y2="64.58"/><line x1="187.56" y1="181.71" x2="184.34" y2="184.08"/><line x1="231.96" y1="168.98" x2="236.84" y2="213.43"/><line x1="221.88" y1="228.61" x2="166.74" y2="211.34"/><line x1="295.80" y1="286.30" x2="295.80" y2="379.59"/><line x1="299.79" y1="203.64" x2="291.81" y2="194.45"/><line x1="244.92" y1="211.10" x2="243.36" y2="169.69"/><line x1="232.10" y1="216.09" x2="212.38" y2="171.10"/><line x1="223.14" y1="226.07" x2="170.74" y2="201.21"/><line x1="273.02" y1="216.36" x2="269.63" y2="214.62"/><line x1="236.84" y1="213.43" x2="226.88" y2="169.11"/><line x1="218.46" y1="244.04" x2="217.96" y2="250.20"/><line x1="219.87" y1="234.60" x2="164.31" y2="223.16"/><line x1="226.88" y1="169.11" x2="221.92" y2="169.51"/><line x1="350.33" y1="379.59" x2="350.33" y2="173.41"/><line x1="163.76" y1="227.95" x2="163.34" y2="233.18"/><line x1="243.36" y1="169.69" x2="242.10" y2="211.66"/><line x1="290.31" y1="235.42" x2="288.69" y2="232.08"/><line x1="166.74" y1="211.34" x2="220.79" y2="231.32"/><line x1="224.57" y1="223.72" x2="181.41" y2="186.59"/><line x1="164.31" y1="223.16" x2="163.76" y2="227.95"/><line x1="294.44" y1="253.94" x2="293.67" y2="248.06"/><line x1="295.80" y1="286.30" x2="295.71" y2="276.88"/><line x1="194.91" y1="177.41" x2="191.09" y2="179.49"/><line x1="288.69" y1="232.08" x2="286.78" y2="228.93"/><line x1="232.10" y1="216.09" x2="229.95" y2="217.73"/><line x1="220.79" y1="231.32" x2="165.78" y2="214.95"/><line x1="212.38" y1="171.10" x2="207.80" y2="172.30"/><line x1="219.87" y1="234.60" x2="219.09" y2="238.84"/><line x1="480.00" y1="32.02" x2="447.51" y2="32.02"/><line x1="293.67" y1="248.06" x2="292.74" y2="243.08"/><line x1="229.95" y1="217.73" x2="227.99" y2="219.55"/><line x1="221.92" y1="169.51" x2="234.40" y2="214.65"/><line x1="243.36" y1="169.69" x2="231.96" y2="168.98"/><line x1="254.93" y1="210.82" x2="250.95" y2="210.66"/><line x1="207.80" y1="172.30" x2="229.95" y2="217.73"/><line x1="162.84" y1="245.01" x2="217.96" y2="250.20"/><line x1="224.57" y1="223.72" x2="176.44" y2="192.06"/><line x1="234.40" y1="214.65" x2="217.09" y2="170.17"/><line x1="279.33" y1="220.74" x2="291.81" y2="194.45"/><line x1="220.79" y1="231.32" x2="219.87" y2="234.60"/><line x1="226.19" y1="221.55" x2="187.56" y2="181.71"/><line x1="286.78" y1="228.93" x2="284.59" y2="226.00"/><line x1="217.96" y1="250.20" x2="162.78" y2="251.60"/><line x1="350.33" y1="173.41" x2="299.79" y2="203.64"/><line x1="284.59" y1="226.00" x2="299.79" y2="203.64"/><line x1="292.74" y1="243.08" x2="291.64" y2="238.98"/><line x1="291.81" y1="194.45" x2="276.28" y2="218.42"/><line x1="163.34" y1="233.18" x2="163.03" y2="238.87"/><line x1="295.46" y1="268.35" x2="295.03" y2="260.70"/><line x1="299.79" y1="203.64" x2="299.79" y2="173.41"/><line x1="162.78" y1="251.60" x2="217.32" y2="379.59"/><line x1="262.51" y1="212.09" x2="258.78" y2="211.30"/><line x1="217.09" y1="170.17" x2="232.10" y2="216.09"/><line x1="219.09" y1="238.84" x2="218.46" y2="244.04"/><line x1="191.09" y1="179.49" x2="187.56" y2="181.71"/><line x1="32.00" y1="479.98" x2="64.49" y2="479.98"/><line x1="350.33" y1="173.41" x2="293.67" y2="248.06"/><line x1="284.59" y1="226.00" x2="282.11" y2="223.26"/><line x1="254.19" y1="171.81" x2="244.92" y2="211.10"/><line x1="227.99" y1="219.55" x2="199.02" y2="175.48"/><line x1="274.14" y1="180.30" x2="254.93" y2="210.82"/><line x1="176.44" y1="192.06" x2="174.35" y2="195.00"/><line x1="163.03" y1="238.87" x2="218.46" y2="244.04"/><line x1="221.88" y1="228.61" x2="167.88" y2="207.85"/><line x1="64.64" y1="32.09" x2="32.16" y2="64.58"/><line x1="283.26" y1="186.67" x2="266.13" y2="213.20"/><line x1="299.79" y1="203.64" x2="279.33" y2="220.74"/><line x1="217.39" y1="265.42" x2="217.32" y2="274.47"/><line x1="223.14" y1="226.07" x2="172.45" y2="198.05"/><line x1="218.46" y1="244.04" x2="162.84" y2="245.01"/><line x1="350.33" y1="173.41" x2="291.64" y2="238.98"/><line x1="236.84" y1="213.43" x2="234.40" y2="214.65"/><line x1="350.33" y1="379.59" x2="295.80" y2="379.59"/><line x1="282.11" y1="223.26" x2="279.33" y2="220.74"/><line x1="227.99" y1="219.55" x2="226.19" y2="221.55"/><line x1="163.76" y1="227.95" x2="219.09" y2="238.84"/><line x1="199.02" y1="175.48" x2="194.91" y2="177.41"/><line x1="283.26" y1="186.67" x2="274.14" y2="180.30"/><line x1="244.92" y1="211.10" x2="242.10" y2="211.66"/><line x1="194.91" y1="177.41" x2="226.19" y2="221.55"/><line x1="217.32" y1="274.47" x2="217.32" y2="379.59"/><line x1="223.14" y1="226.07" x2="221.88" y2="228.61"/><line x1="219.87" y1="234.60" x2="163.76" y2="227.95"/><line x1="350.33" y1="173.41" x2="288.69" y2="232.08"/><line x1="480.00" y1="32.02" x2="480.00" y2="64.50"/><line x1="264.45" y1="175.35" x2="254.19" y2="171.81"/><line x1="229.95" y1="217.73" x2="203.35" y2="173.75"/><line x1="269.63" y1="214.62" x2="266.13" y2="213.20"/><line x1="166.74" y1="211.34" x2="165.78" y2="214.95"/><line x1="217.32" y1="379.59" x2="162.78" y2="379.59"/><line x1="480.00" y1="479.91" x2="480.00" y2="447.42"/><line x1="170.74" y1="201.21" x2="169.22" y2="204.47"/><line x1="266.13" y1="213.20" x2="262.51" y2="212.09"/><line x1="162.78" y1="251.60" x2="217.60" y2="257.33"/><line x1="181.41" y1="186.59" x2="178.78" y2="189.26"/><line x1="226.19" y1="221.55" x2="191.09" y2="179.49"/><line x1="350.33" y1="173.41" x2="295.46" y2="268.35"/><line x1="276.28" y1="218.42" x2="273.02" y2="216.36"/><line x1="350.33" y1="173.41" x2="284.59" y2="226.00"/><line x1="250.95" y1="210.66" x2="247.87" y2="210.77"/><line x1="480.00" y1="64.50" x2="447.51" y2="32.02"/><line x1="203.35" y1="173.75" x2="227.99" y2="219.55"/><line x1="221.92" y1="169.51" x2="217.09" y2="170.17"/><line x1="178.78" y1="189.26" x2="176.44" y2="192.06"/><line x1="162.84" y1="245.01" x2="162.78" y2="251.60"/><line x1="32.16" y1="32.09" x2="64.64" y2="32.09"/><line x1="291.81" y1="194.45" x2="283.26" y2="186.67"/><line x1="239.40" y1="212.44" x2="236.84" y2="213.43"/><line x1="447.51" y1="479.91" x2="480.00" y2="447.42"/><line x1="187.56" y1="181.71" x2="224.57" y2="223.72"/><line x1="162.78" y1="251.60" x2="217.32" y2="274.47"/><line x1="262.51" y1="212.09" x2="274.14" y2="180.30"/><line x1="217.60" y1="257.33" x2="217.39" y2="265.42"/><line x1="279.33" y1="220.74" x2="276.28" y2="218.42"/><line x1="219.09" y1="238.84" x2="163.03" y2="238.87"/><line x1="226.19" y1="221.55" x2="224.57" y2="223.72"/><line x1="32.00" y1="479.98" x2="32.00" y2="447.50"/><line x1="350.33" y1="173.41" x2="294.44" y2="253.94"/><line x1="273.02" y1="216.36" x2="283.26" y2="186.67"/><line x1="350.33" y1="173.41" x2="299.79" y2="173.41"/><line x1="254.19" y1="171.81" x2="247.87" y2="210.77"/><line x1="164.99" y1="218.83" x2="164.31" y2="223.16"/><line x1="176.44" y1="192.06" x2="223.14" y2="226.07"/><line x1="258.78" y1="211.30" x2="254.93" y2="210.82"/><line x1="283.26" y1="186.67" x2="269.63" y2="214.62"/><line x1="231.96" y1="168.98" x2="226.88" y2="169.11"/><line x1="224.57" y1="223.72" x2="184.34" y2="184.08"/><line x1="169.22" y1="204.47" x2="167.88" y2="207.85"/><line x1="221.88" y1="228.61" x2="220.79" y2="231.32"/><line x1="162.78" y1="251.60" x2="162.78" y2="379.59"/><line x1="217.09" y1="170.17" x2="212.38" y2="171.10"/><line x1="295.80" y1="286.30" x2="350.33" y2="173.41"/><line x1="32.00" y1="447.50" x2="64.49" y2="479.98"/></g></svg>