<svg xmlns="http://www.w3.org/2000/svg" width="512" height="512"><rect width="512" height="512" fill="#0a0f1a"/><text x="12" y="20" font-family="monospace" font-size="11" fill="#4a7fa5">FRONT (XZ)</text><g stroke="#00d4ff" stroke-width="0.6" opacity="0.85"><line x1="284.83" y1="157.81" x2="334.04" y2="140.65"/><line x1="278.17" y1="212.79" x2="277.03" y2="215.98"/><line x1="285.87" y1="161.74" x2="286.50" y2="165.88"/><line x1="283.34" y1="325.61" x2="279.30" y2="325.05"/><line x1="172.00" y1="378.90" x2="168.08" y2="377.63"/><line x1="249.70" y1="90.50" x2="250.90" y2="133.96"/><line x1="277.03" y1="215.98" x2="216.65" y2="258.99"/><line x1="351.01" y1="328.31" x2="327.72" y2="376.22"/><line x1="284.08" y1="313.41" x2="326.30" y2="293.93"/><line x1="356.52" y1="332.93" x2="362.53" y2="337.46"/><line x1="210.77" y1="335.25" x2="214.93" y2="383.35"/><line x1="250.90" y1="133.96" x2="256.76" y2="90.71"/><line x1="286.50" y1="165.88" x2="339.68" y2="163.79"/><line x1="326.30" y1="293.93" x2="287.99" y2="318.61"/><line x1="250.50" y1="375.82" x2="242.44" y2="378.00"/><line x1="339.68" y1="163.79" x2="286.71" y2="170.23"/><line x1="321.65" y1="263.87" x2="321.54" y2="265.46"/><line x1="266.79" y1="324.68" x2="265.00" y2="324.76"/><line x1="214.72" y1="167.27" x2="165.54" y2="145.96"/><line x1="263.14" y1="135.85" x2="276.98" y2="93.75"/><line x1="321.54" y1="265.46" x2="268.07" y2="260.21"/><line x1="196.21" y1="383.70" x2="192.25" y2="383.30"/><line x1="276.98" y1="93.75" x2="283.40" y2="95.58"/><line x1="339.26" y1="183.09" x2="286.20" y2="178.14"/><line x1="337.50" y1="313.95" x2="307.05" y2="368.99"/><line x1="286.20" y1="178.14" x2="338.46" y2="189.72"/><line x1="255.99" y1="325.87" x2="265.86" y2="371.80"/><line x1="272.62" y1="370.30" x2="259.96" y2="325.19"/><line x1="177.41" y1="122.21" x2="221.82" y2="149.24"/><line x1="268.22" y1="258.99" x2="321.65" y2="263.87"/><line x1="267.66" y1="266.31" x2="321.42" y2="268.55"/><line x1="206.28" y1="335.02" x2="201.41" y2="334.31"/><line x1="176.05" y1="380.07" x2="172.00" y2="378.90"/><line x1="301.61" y1="103.49" x2="307.05" y2="106.90"/><line x1="283.91" y1="191.66" x2="283.08" y2="195.42"/><line x1="320.79" y1="373.12" x2="351.01" y2="328.31"/><line x1="242.58" y1="329.14" x2="236.22" y2="330.76"/><line x1="203.12" y1="100.35" x2="211.17" y2="96.81"/><line x1="172.00" y1="378.90" x2="184.56" y2="329.37"/><line x1="339.75" y1="176.45" x2="339.26" y2="183.09"/><line x1="356.52" y1="332.93" x2="334.68" y2="380.00"/><line x1="281.50" y1="150.62" x2="328.39" y2="129.56"/><line x1="334.68" y1="380.00" x2="341.69" y2="384.47"/><line x1="196.17" y1="333.13" x2="190.55" y2="331.49"/><line x1="480.00" y1="32.02" x2="447.51" y2="32.02"/><line x1="250.50" y1="375.82" x2="236.22" y2="330.76"/><line x1="272.62" y1="370.30" x2="265.86" y2="371.80"/><line x1="322.18" y1="258.99" x2="362.53" y2="258.99"/><line x1="220.76" y1="334.13" x2="216.82" y2="334.75"/><line x1="239.41" y1="135.63" x2="243.04" y2="134.70"/><line x1="153.81" y1="371.58" x2="150.59" y2="369.84"/><line x1="323.17" y1="284.18" x2="280.68" y2="308.52"/><line x1="227.73" y1="381.34" x2="221.09" y2="382.52"/><line x1="219.68" y1="153.04" x2="177.41" y2="122.21"/><line x1="336.15" y1="146.32" x2="337.80" y2="152.06"/><line x1="327.72" y1="376.22" x2="334.68" y2="380.00"/><line x1="267.69" y1="265.09" x2="267.66" y2="266.31"/><line x1="278.76" y1="369.13" x2="270.55" y2="324.61"/><line x1="190.55" y1="331.49" x2="176.05" y2="380.07"/><line x1="331.97" y1="215.98" x2="322.18" y2="258.99"/><line x1="273.48" y1="141.54" x2="301.61" y2="103.49"/><line x1="209.24" y1="383.86" x2="204.02" y2="384.02"/><line x1="255.19" y1="134.16" x2="259.27" y2="134.80"/><line x1="272.62" y1="370.30" x2="261.59" y2="325.01"/><line x1="322.19" y1="279.41" x2="323.17" y2="284.18"/><line x1="268.22" y1="258.99" x2="321.80" y2="262.27"/><line x1="335.86" y1="202.89" x2="283.91" y2="191.66"/><line x1="328.46" y1="298.91" x2="331.01" y2="303.96"/><line x1="206.28" y1="335.02" x2="200.14" y2="383.94"/><line x1="246.11" y1="328.25" x2="242.58" y2="329.14"/><line x1="226.84" y1="143.08" x2="203.12" y2="100.35"/><line x1="201.41" y1="334.31" x2="196.17" y2="333.13"/><line x1="283.91" y1="191.66" x2="334.08" y2="209.45"/><line x1="284.28" y1="368.29" x2="278.76" y2="369.13"/><line x1="292.39" y1="324.16" x2="297.29" y2="330.04"/><line x1="321.60" y1="274.70" x2="268.71" y2="280.25"/><line x1="242.58" y1="329.14" x2="250.50" y2="375.82"/><line x1="203.12" y1="100.35" x2="229.68" y2="140.66"/><line x1="339.75" y1="176.45" x2="286.48" y2="175.30"/><line x1="321.03" y1="119.36" x2="281.50" y2="150.62"/><line x1="268.71" y1="280.25" x2="269.54" y2="284.30"/><line x1="157.17" y1="373.24" x2="153.81" y2="371.58"/><line x1="281.50" y1="150.62" x2="324.91" y2="124.27"/><line x1="267.83" y1="262.65" x2="267.75" y2="263.87"/><line x1="280.28" y1="206.13" x2="322.18" y2="258.99"/><line x1="334.68" y1="380.00" x2="362.53" y2="337.46"/><line x1="196.17" y1="333.13" x2="180.15" y2="381.12"/><line x1="480.00" y1="32.02" x2="480.00" y2="64.50"/><line x1="289.67" y1="97.82" x2="295.78" y2="100.46"/><line x1="229.17" y1="92.08" x2="239.41" y2="135.63"/><line x1="337.32" y1="196.32" x2="335.86" y2="202.89"/><line x1="322.18" y1="258.99" x2="362.53" y2="215.98"/><line x1="313.90" y1="370.71" x2="346.00" y2="323.60"/><line x1="275.37" y1="299.76" x2="323.17" y2="284.18"/><line x1="480.00" y1="479.91" x2="480.00" y2="447.42"/><line x1="220.76" y1="334.13" x2="227.73" y2="381.34"/><line x1="239.41" y1="135.63" x2="239.12" y2="90.89"/><line x1="334.04" y1="140.65" x2="336.15" y2="146.32"/><line x1="323.17" y1="284.18" x2="277.77" y2="303.97"/><line x1="279.30" y1="325.05" x2="278.76" y2="369.13"/><line x1="256.76" y1="90.71" x2="263.66" y2="91.32"/><line x1="336.15" y1="146.32" x2="285.87" y2="161.74"/><line x1="216.65" y1="258.99" x2="216.65" y2="215.98"/><line x1="278.76" y1="369.13" x2="275.03" y2="324.73"/><line x1="290.75" y1="327.38" x2="287.16" y2="326.38"/><line x1="447.51" y1="479.91" x2="480.00" y2="447.42"/><line x1="331.97" y1="215.98" x2="280.28" y2="206.13"/><line x1="242.44" y1="378.00" x2="234.85" y2="379.84"/><line x1="165.54" y1="145.96" x2="168.78" y2="137.35"/><line x1="209.24" y1="383.86" x2="206.28" y2="335.02"/><line x1="255.19" y1="134.16" x2="263.66" y2="91.32"/><line x1="322.19" y1="279.41" x2="275.37" y2="299.76"/><line x1="328.46" y1="298.91" x2="292.39" y2="324.16"/><line x1="216.12" y1="162.05" x2="217.78" y2="157.31"/><line x1="283.40" y1="95.58" x2="289.67" y2="97.82"/><line x1="339.91" y1="169.77" x2="339.75" y2="176.45"/><line x1="284.28" y1="368.29" x2="279.30" y2="325.05"/><line x1="263.27" y1="324.87" x2="261.59" y2="325.01"/><line x1="188.25" y1="382.73" x2="184.22" y2="382.01"/><line x1="266.80" y1="137.33" x2="270.25" y2="139.22"/><line x1="221.09" y1="382.52" x2="214.93" y2="383.35"/><line x1="221.82" y1="149.24" x2="188.92" y2="109.81"/><line x1="285.79" y1="181.20" x2="285.28" y2="184.48"/><line x1="184.56" y1="329.37" x2="164.31" y2="376.26"/><line x1="480.00" y1="479.91" x2="447.51" y2="479.91"/><line x1="276.50" y1="144.28" x2="279.21" y2="147.34"/><line x1="267.76" y1="271.87" x2="268.12" y2="276.10"/><line x1="321.60" y1="274.70" x2="322.19" y2="279.41"/><line x1="256.76" y1="90.71" x2="255.19" y2="134.16"/><line x1="283.08" y1="195.42" x2="282.20" y2="199.09"/><line x1="287.99" y1="318.61" x2="328.46" y2="298.91"/><line x1="236.22" y1="330.76" x2="230.46" y2="332.13"/><line x1="211.17" y1="96.81" x2="219.86" y2="94.05"/><line x1="290.75" y1="327.38" x2="284.28" y2="368.29"/><line x1="331.97" y1="215.98" x2="281.27" y2="202.66"/><line x1="286.71" y1="170.23" x2="339.91" y2="169.77"/><line x1="270.61" y1="288.26" x2="271.91" y2="292.11"/><line x1="280.28" y1="206.13" x2="279.25" y2="209.50"/><line x1="242.44" y1="378.00" x2="225.31" y2="333.26"/><line x1="165.54" y1="145.96" x2="216.12" y2="162.05"/><line x1="328.39" y1="129.56" x2="331.45" y2="135.06"/><line x1="322.19" y1="279.41" x2="273.45" y2="295.88"/><line x1="268.07" y1="260.21" x2="267.94" y2="261.43"/><line x1="283.38" y1="154.10" x2="284.83" y2="157.81"/><line x1="283.40" y1="95.58" x2="266.80" y2="137.33"/><line x1="267.94" y1="261.43" x2="267.83" y2="262.65"/><line x1="297.29" y1="330.04" x2="293.48" y2="367.62"/><line x1="284.28" y1="368.29" x2="283.34" y2="325.61"/><line x1="216.82" y1="334.75" x2="213.49" y2="335.13"/><line x1="188.25" y1="382.73" x2="196.17" y2="333.13"/><line x1="266.80" y1="137.33" x2="289.67" y2="97.82"/><line x1="338.46" y1="189.72" x2="285.79" y2="181.20"/><line x1="341.50" y1="318.81" x2="313.90" y2="370.71"/><line x1="213.55" y1="172.97" x2="214.72" y2="167.27"/><line x1="221.09" y1="382.52" x2="210.77" y2="335.25"/><line x1="246.87" y1="134.14" x2="250.90" y2="133.96"/><line x1="221.82" y1="149.24" x2="182.81" y2="115.67"/><line x1="285.79" y1="181.20" x2="337.32" y2="196.32"/><line x1="324.54" y1="289.02" x2="326.30" y2="293.93"/><line x1="321.42" y1="268.55" x2="267.64" y2="267.53"/><line x1="178.18" y1="326.78" x2="171.43" y2="323.73"/><line x1="163.03" y1="155.24" x2="165.54" y2="145.96"/><line x1="254.16" y1="326.28" x2="251.90" y2="326.82"/><line x1="182.81" y1="115.67" x2="188.92" y2="109.81"/><line x1="338.98" y1="157.89" x2="339.68" y2="163.79"/><line x1="307.05" y1="106.90" x2="276.50" y2="144.28"/><line x1="267.64" y1="267.53" x2="267.76" y2="271.87"/><line x1="268.64" y1="324.63" x2="266.79" y2="324.68"/><line x1="184.56" y1="329.37" x2="168.08" y2="377.63"/><line x1="276.50" y1="144.28" x2="312.10" y2="110.68"/><line x1="265.00" y1="324.76" x2="263.27" y2="324.87"/><line x1="334.08" y1="209.45" x2="283.08" y2="195.42"/><line x1="297.29" y1="330.04" x2="307.05" y2="368.99"/><line x1="200.14" y1="383.94" x2="196.21" y2="383.70"/><line x1="229.68" y1="140.66" x2="211.17" y2="96.81"/><line x1="321.47" y1="267.02" x2="267.66" y2="266.31"/><line x1="283.08" y1="195.42" x2="331.97" y2="215.98"/><line x1="192.25" y1="383.30" x2="188.25" y2="382.73"/><line x1="236.22" y1="330.76" x2="242.44" y2="378.00"/><line x1="211.17" y1="96.81" x2="232.73" y2="138.61"/><line x1="307.05" y1="368.99" x2="341.50" y2="318.81"/><line x1="270.61" y1="288.26" x2="322.19" y2="279.41"/><line x1="239.12" y1="90.89" x2="246.87" y2="134.14"/><line x1="150.59" y1="369.84" x2="171.43" y2="323.73"/><line x1="328.39" y1="129.56" x2="283.38" y2="154.10"/><line x1="265.86" y1="371.80" x2="254.16" y2="326.28"/><line x1="346.00" y1="323.60" x2="351.01" y2="328.31"/><line x1="285.87" y1="161.74" x2="338.98" y2="157.89"/><line x1="280.68" y1="308.52" x2="284.08" y2="313.41"/><line x1="258.49" y1="373.65" x2="250.50" y2="375.82"/><line x1="216.82" y1="334.75" x2="221.09" y2="382.52"/><line x1="213.55" y1="172.97" x2="161.23" y2="165.21"/><line x1="263.66" y1="91.32" x2="270.40" y2="92.33"/><line x1="269.54" y1="284.30" x2="270.61" y2="288.26"/><line x1="259.27" y1="134.80" x2="263.14" y2="135.85"/><line x1="331.01" y1="303.96" x2="334.00" y2="308.99"/><line x1="168.78" y1="137.35" x2="172.74" y2="129.45"/><line x1="217.78" y1="157.31" x2="219.68" y2="153.04"/><line x1="324.91" y1="124.27" x2="328.39" y2="129.56"/><line x1="321.47" y1="267.02" x2="267.69" y2="265.09"/><line x1="480.00" y1="64.50" x2="447.51" y2="32.02"/><line x1="270.25" y1="139.22" x2="273.48" y2="141.54"/><line x1="300.24" y1="367.97" x2="293.48" y2="367.62"/><line x1="180.15" y1="381.12" x2="176.05" y2="380.07"/><line x1="239.12" y1="90.89" x2="243.04" y2="134.70"/><line x1="249.22" y1="327.47" x2="246.11" y2="328.25"/><line x1="224.21" y1="145.92" x2="226.84" y2="143.08"/><line x1="279.21" y1="147.34" x2="281.50" y2="150.62"/><line x1="321.54" y1="265.46" x2="321.47" y2="267.02"/><line x1="285.87" y1="161.74" x2="337.80" y2="152.06"/><line x1="321.40" y1="270.06" x2="321.60" y2="274.70"/><line x1="280.68" y1="308.52" x2="324.54" y2="289.02"/><line x1="258.49" y1="373.65" x2="242.58" y2="329.14"/><line x1="270.55" y1="324.61" x2="268.64" y2="324.63"/><line x1="160.67" y1="374.80" x2="157.17" y2="373.24"/><line x1="263.66" y1="91.32" x2="259.27" y2="134.80"/><line x1="272.62" y1="370.30" x2="255.99" y2="325.87"/><line x1="204.02" y1="384.02" x2="200.14" y2="383.94"/><line x1="362.53" y1="337.46" x2="341.69" y2="384.47"/><line x1="265.86" y1="371.80" x2="258.49" y2="373.65"/><line x1="331.01" y1="303.96" x2="297.29" y2="330.04"/><line x1="225.31" y1="333.26" x2="220.76" y2="334.13"/><line x1="362.53" y1="215.98" x2="362.53" y2="258.99"/><line x1="168.78" y1="137.35" x2="217.78" y2="157.31"/><line x1="284.83" y1="157.81" x2="285.87" y2="161.74"/><line x1="227.73" y1="381.34" x2="216.82" y2="334.75"/><line x1="259.96" y1="325.19" x2="258.39" y2="325.40"/><line x1="277.77" y1="303.97" x2="280.68" y2="308.52"/><line x1="277.03" y1="215.98" x2="268.22" y2="258.99"/><line x1="321.47" y1="267.02" x2="267.75" y2="263.87"/><line x1="210.77" y1="335.25" x2="206.28" y2="335.02"/><line x1="188.92" y1="109.81" x2="195.70" y2="104.69"/><line x1="184.22" y1="382.01" x2="180.15" y2="381.12"/><line x1="275.03" y1="324.73" x2="270.55" y2="324.61"/><line x1="272.62" y1="370.30" x2="263.27" y2="324.87"/><line x1="268.22" y1="258.99" x2="321.98" y2="260.64"/><line x1="322.18" y1="258.99" x2="277.03" y2="215.98"/><line x1="285.28" y1="184.48" x2="284.65" y2="187.97"/><line x1="206.28" y1="335.02" x2="204.02" y2="384.02"/><line x1="201.41" y1="334.31" x2="188.25" y2="382.73"/><line x1="249.22" y1="327.47" x2="258.49" y2="373.65"/><line x1="263.14" y1="135.85" x2="266.80" y2="137.33"/><line x1="292.39" y1="324.16" x2="331.01" y2="303.96"/><line x1="279.21" y1="147.34" x2="321.03" y2="119.36"/><line x1="321.54" y1="265.46" x2="267.83" y2="262.65"/><line x1="321.40" y1="270.06" x2="268.12" y2="276.10"/><line x1="339.75" y1="176.45" x2="286.65" y2="172.66"/><line x1="32.16" y1="32.09" x2="32.16" y2="64.58"/><line x1="164.31" y1="376.26" x2="160.67" y2="374.80"/><line x1="261.59" y1="325.01" x2="259.96" y2="325.19"/><line x1="267.83" y1="262.65" x2="321.47" y2="267.02"/><line x1="219.86" y1="94.05" x2="229.17" y2="92.08"/><line x1="196.17" y1="333.13" x2="184.22" y2="382.01"/><line x1="289.67" y1="97.82" x2="270.25" y2="139.22"/><line x1="337.32" y1="196.32" x2="284.65" y2="187.97"/><line x1="272.62" y1="370.30" x2="257.40" y2="325.57"/><line x1="268.22" y1="258.99" x2="268.07" y2="260.21"/><line x1="331.45" y1="135.06" x2="334.04" y2="140.65"/><line x1="322.18" y1="258.99" x2="321.98" y2="260.64"/><line x1="320.79" y1="373.12" x2="327.72" y2="376.22"/><line x1="312.10" y1="110.68" x2="316.77" y2="114.84"/><line x1="249.70" y1="90.50" x2="256.76" y2="90.71"/><line x1="284.08" y1="313.41" x2="287.99" y2="318.61"/><line x1="188.92" y1="109.81" x2="224.21" y2="145.92"/><line x1="286.50" y1="165.88" x2="286.71" y2="170.23"/><line x1="232.73" y1="138.61" x2="235.97" y2="136.93"/><line x1="272.62" y1="370.30" x2="265.00" y2="324.76"/><line x1="322.18" y1="258.99" x2="278.17" y2="212.79"/><line x1="216.12" y1="162.05" x2="168.78" y2="137.35"/><line x1="201.41" y1="334.31" x2="192.25" y2="383.30"/><line x1="263.14" y1="135.85" x2="283.40" y2="95.58"/><line x1="32.00" y1="479.98" x2="64.49" y2="479.98"/><line x1="339.26" y1="183.09" x2="338.46" y2="189.72"/><line x1="278.76" y1="369.13" x2="272.62" y2="370.30"/><line x1="190.55" y1="331.49" x2="184.56" y2="329.37"/><line x1="273.48" y1="141.54" x2="276.50" y2="144.28"/><line x1="293.48" y1="367.62" x2="289.19" y2="367.79"/><line x1="337.32" y1="196.32" x2="285.28" y2="184.48"/><line x1="272.62" y1="370.30" x2="258.39" y2="325.40"/><line x1="268.22" y1="258.99" x2="321.54" y2="265.46"/><line x1="322.18" y1="258.99" x2="268.22" y2="258.99"/><line x1="251.90" y1="326.82" x2="249.22" y2="327.47"/><line x1="267.76" y1="271.87" x2="321.40" y2="270.06"/><line x1="321.60" y1="274.70" x2="270.61" y2="288.26"/><line x1="168.08" y1="377.63" x2="164.31" y2="376.26"/><line x1="312.10" y1="110.68" x2="279.21" y2="147.34"/><line x1="213.49" y1="335.13" x2="210.77" y2="335.25"/><line x1="327.72" y1="376.22" x2="356.52" y2="332.93"/><line x1="331.97" y1="215.98" x2="282.20" y2="199.09"/><line x1="281.50" y1="150.62" x2="283.38" y2="154.10"/><line x1="242.44" y1="378.00" x2="230.46" y2="332.13"/><line x1="232.73" y1="138.61" x2="219.86" y2="94.05"/><line x1="272.62" y1="370.30" x2="266.79" y2="324.68"/><line x1="322.19" y1="279.41" x2="271.91" y2="292.11"/><line x1="322.18" y1="258.99" x2="279.25" y2="209.50"/><line x1="313.90" y1="370.71" x2="320.79" y2="373.12"/><line x1="283.38" y1="154.10" x2="331.45" y2="135.06"/><line x1="201.41" y1="334.31" x2="196.21" y2="383.70"/><line x1="284.28" y1="368.29" x2="287.16" y2="326.38"/><line x1="32.00" y1="479.98" x2="32.00" y2="447.50"/><line x1="323.17" y1="284.18" x2="324.54" y2="289.02"/><line x1="334.00" y1="308.99" x2="337.50" y2="313.95"/><line x1="279.25" y1="209.50" x2="278.17" y2="212.79"/><line x1="219.68" y1="153.04" x2="221.82" y2="149.24"/><line x1="221.09" y1="382.52" x2="213.49" y2="335.13"/><line x1="246.87" y1="134.14" x2="249.70" y2="90.50"/><line x1="278.76" y1="369.13" x2="268.64" y2="324.63"/><line x1="257.40" y1="325.57" x2="255.99" y2="325.87"/><line x1="190.55" y1="331.49" x2="172.00" y2="378.90"/><line x1="331.97" y1="215.98" x2="362.53" y2="215.98"/><line x1="324.54" y1="289.02" x2="284.08" y2="313.41"/><line x1="273.48" y1="141.54" x2="307.05" y2="106.90"/><line x1="178.18" y1="326.78" x2="150.59" y2="369.84"/><line x1="163.03" y1="155.24" x2="214.72" y2="167.27"/><line x1="338.98" y1="157.89" x2="286.50" y2="165.88"/><line x1="268.64" y1="324.63" x2="272.62" y2="370.30"/><line x1="335.86" y1="202.89" x2="334.08" y2="209.45"/><line x1="270.40" y1="92.33" x2="276.98" y2="93.75"/><line x1="226.84" y1="143.08" x2="229.68" y2="140.66"/><line x1="297.29" y1="330.04" x2="337.50" y2="313.95"/><line x1="297.29" y1="330.04" x2="289.19" y2="367.79"/><line x1="200.14" y1="383.94" x2="201.41" y2="334.31"/><line x1="321.60" y1="274.70" x2="269.54" y2="284.30"/><line x1="286.48" y1="175.30" x2="286.20" y2="178.14"/><line x1="321.03" y1="119.36" x2="324.91" y2="124.27"/><line x1="172.74" y1="129.45" x2="177.41" y2="122.21"/><line x1="295.78" y1="100.46" x2="301.61" y2="103.49"/><line x1="229.17" y1="92.08" x2="239.12" y2="90.89"/><line x1="346.00" y1="323.60" x2="320.79" y2="373.12"/><line x1="275.37" y1="299.76" x2="277.77" y2="303.97"/><line x1="243.04" y1="134.70" x2="246.87" y2="134.14"/><line x1="284.65" y1="187.97" x2="283.91" y2="191.66"/><line x1="184.56" y1="329.37" x2="178.18" y2="326.78"/><line x1="297.29" y1="330.04" x2="300.24" y2="367.97"/><line x1="195.70" y1="104.69" x2="203.12" y2="100.35"/><line x1="289.19" y1="367.79" x2="290.75" y2="327.38"/><line x1="279.30" y1="325.05" x2="275.03" y2="324.73"/><line x1="337.80" y1="152.06" x2="338.98" y2="157.89"/><line x1="268.12" y1="276.10" x2="268.71" y2="280.25"/><line x1="216.65" y1="258.99" x2="268.22" y2="258.99"/><line x1="213.55" y1="172.97" x2="163.03" y2="155.24"/><line x1="321.98" y1="260.64" x2="321.80" y2="262.27"/><line x1="286.71" y1="170.23" x2="286.65" y2="172.66"/><line x1="178.18" y1="326.78" x2="153.81" y2="371.58"/><line x1="163.03" y1="155.24" x2="161.23" y2="165.21"/><line x1="259.27" y1="134.80" x2="270.40" y2="92.33"/><line x1="321.80" y1="262.27" x2="321.65" y2="263.87"/><line x1="270.40" y1="92.33" x2="263.14" y2="135.85"/><line x1="286.65" y1="172.66" x2="286.48" y2="175.30"/><line x1="297.29" y1="330.04" x2="334.00" y2="308.99"/><line x1="234.85" y1="379.84" x2="227.73" y2="381.34"/><line x1="217.78" y1="157.31" x2="172.74" y2="129.45"/><line x1="289.19" y1="367.79" x2="284.28" y2="368.29"/><line x1="286.48" y1="175.30" x2="339.26" y2="183.09"/><line x1="258.39" y1="325.40" x2="257.40" y2="325.57"/><line x1="172.74" y1="129.45" x2="219.68" y2="153.04"/><line x1="341.50" y1="318.81" x2="346.00" y2="323.60"/><line x1="270.25" y1="139.22" x2="295.78" y2="100.46"/><line x1="221.82" y1="149.24" x2="224.21" y2="145.92"/><line x1="267.75" y1="263.87" x2="267.69" y2="265.09"/><line x1="321.42" y1="268.55" x2="321.40" y2="270.06"/><line x1="180.15" y1="381.12" x2="190.55" y2="331.49"/><line x1="295.78" y1="100.46" x2="273.48" y2="141.54"/><line x1="224.21" y1="145.92" x2="195.70" y2="104.69"/><line x1="284.65" y1="187.97" x2="335.86" y2="202.89"/><line x1="184.56" y1="329.37" x2="160.67" y2="374.80"/><line x1="258.49" y1="373.65" x2="246.11" y2="328.25"/><line x1="195.70" y1="104.69" x2="226.84" y2="143.08"/><line x1="297.29" y1="330.04" x2="294.13" y2="328.59"/><line x1="289.19" y1="367.79" x2="294.13" y2="328.59"/><line x1="268.12" y1="276.10" x2="321.60" y2="274.70"/><line x1="160.67" y1="374.80" x2="178.18" y2="326.78"/><line x1="287.99" y1="318.61" x2="292.39" y2="324.16"/><line x1="316.77" y1="114.84" x2="321.03" y2="119.36"/><line x1="307.05" y1="368.99" x2="300.24" y2="367.97"/><line x1="294.13" y1="328.59" x2="290.75" y2="327.38"/><line x1="286.71" y1="170.23" x2="339.75" y2="176.45"/><line x1="64.64" y1="32.09" x2="32.16" y2="64.58"/><line x1="235.97" y1="136.93" x2="239.41" y2="135.63"/><line x1="178.18" y1="326.78" x2="157.17" y2="373.24"/><line x1="281.27" y1="202.66" x2="280.28" y2="206.13"/><line x1="265.86" y1="371.80" x2="249.22" y2="327.47"/><line x1="225.31" y1="333.26" x2="234.85" y2="379.84"/><line x1="284.83" y1="157.81" x2="336.15" y2="146.32"/><line x1="273.45" y1="295.88" x2="275.37" y2="299.76"/><line x1="234.85" y1="379.84" x2="220.76" y2="334.13"/><line x1="277.03" y1="215.98" x2="216.65" y2="215.98"/><line x1="351.01" y1="328.31" x2="356.52" y2="332.93"/><line x1="338.46" y1="189.72" x2="337.32" y2="196.32"/><line x1="210.77" y1="335.25" x2="209.24" y2="383.86"/><line x1="250.90" y1="133.96" x2="255.19" y2="134.16"/><line x1="326.30" y1="293.93" x2="328.46" y2="298.91"/><line x1="321.42" y1="268.55" x2="267.76" y2="271.87"/><line x1="339.68" y1="163.79" x2="339.91" y2="169.77"/><line x1="307.05" y1="106.90" x2="312.10" y2="110.68"/><line x1="214.72" y1="167.27" x2="216.12" y2="162.05"/><line x1="214.93" y1="383.35" x2="209.24" y2="383.86"/><line x1="279.21" y1="147.34" x2="316.77" y2="114.84"/><line x1="321.54" y1="265.46" x2="267.94" y2="261.43"/><line x1="334.08" y1="209.45" x2="331.97" y2="215.98"/><line x1="32.16" y1="32.09" x2="64.64" y2="32.09"/><line x1="282.20" y1="199.09" x2="281.27" y2="202.66"/><line x1="229.68" y1="140.66" x2="232.73" y2="138.61"/><line x1="337.50" y1="313.95" x2="341.50" y2="318.81"/><line x1="321.47" y1="267.02" x2="321.42" y2="268.55"/><line x1="230.46" y1="332.13" x2="225.31" y2="333.26"/><line x1="219.86" y1="94.05" x2="235.97" y2="136.93"/><line x1="286.20" y1="178.14" x2="285.79" y2="181.20"/><line x1="307.05" y1="368.99" x2="313.90" y2="370.71"/><line x1="271.91" y1="292.11" x2="273.45" y2="295.88"/><line x1="255.99" y1="325.87" x2="254.16" y2="326.28"/><line x1="177.41" y1="122.21" x2="182.81" y2="115.67"/><line x1="235.97" y1="136.93" x2="229.17" y2="92.08"/><line x1="331.45" y1="135.06" x2="284.83" y2="157.81"/><line x1="267.66" y1="266.31" x2="267.64" y2="267.53"/><line x1="239.12" y1="90.89" x2="249.70" y2="90.50"/><line x1="265.86" y1="371.80" x2="251.90" y2="326.82"/><line x1="287.16" y1="326.38" x2="283.34" y2="325.61"/><line x1="32.00" y1="447.50" x2="64.49" y2="479.98"/></g></svg>