<svg xmlns="http://www.w3.org/2000/svg" width="512" height="512"><rect width="512" height="512" fill="#0a0f1a"/><text x="12" y="20" font-family="monospace" font-size="11" fill="#4a7fa5">FRONT (XZ)</text><g stroke="#00d4ff" stroke-width="0.6" opacity="0.85"><line x1="307.37" y1="165.88" x2="263.50" y2="165.88"/><line x1="283.91" y1="266.08" x2="316.13" y2="208.89"/><line x1="283.91" y1="266.08" x2="241.60" y2="266.08"/><line x1="480.00" y1="32.02" x2="480.00" y2="64.50"/><line x1="197.84" y1="266.08" x2="150.14" y2="309.09"/><line x1="241.60" y1="266.08" x2="230.29" y2="208.89"/><line x1="283.91" y1="266.08" x2="351.88" y2="384.47"/><line x1="316.13" y1="208.89" x2="362.97" y2="208.89"/><line x1="362.97" y1="266.08" x2="336.54" y2="309.09"/><line x1="250.09" y1="309.09" x2="264.98" y2="384.47"/><line x1="206.53" y1="309.09" x2="197.84" y2="266.08"/><line x1="362.97" y1="165.88" x2="362.97" y2="208.89"/><line x1="292.03" y1="90.50" x2="248.15" y2="90.50"/><line x1="32.16" y1="32.09" x2="32.16" y2="64.58"/><line x1="177.58" y1="165.88" x2="206.90" y2="90.50"/><line x1="150.14" y1="208.89" x2="150.14" y2="165.88"/><line x1="480.00" y1="479.91" x2="480.00" y2="447.42"/><line x1="351.88" y1="384.47" x2="292.67" y2="309.09"/><line x1="221.77" y1="384.47" x2="264.98" y2="384.47"/><line x1="150.14" y1="309.09" x2="150.14" y2="266.08"/><line x1="336.54" y1="309.09" x2="362.97" y2="309.09"/><line x1="336.54" y1="309.09" x2="351.88" y2="384.47"/><line x1="263.50" y1="165.88" x2="230.29" y2="208.89"/><line x1="32.00" y1="479.98" x2="64.49" y2="479.98"/><line x1="230.29" y1="208.89" x2="197.84" y2="266.08"/><line x1="292.67" y1="309.09" x2="308.01" y2="384.47"/><line x1="327.79" y1="266.08" x2="316.13" y2="208.89"/><line x1="230.29" y1="208.89" x2="186.27" y2="208.89"/><line x1="283.91" y1="266.08" x2="272.26" y2="208.89"/><line x1="480.00" y1="64.50" x2="447.51" y2="32.02"/><line x1="241.60" y1="266.08" x2="206.53" y2="309.09"/><line x1="241.60" y1="266.08" x2="197.84" y2="266.08"/><line x1="316.13" y1="208.89" x2="272.26" y2="208.89"/><line x1="197.84" y1="266.08" x2="186.27" y2="208.89"/><line x1="362.97" y1="266.08" x2="327.79" y2="266.08"/><line x1="316.13" y1="208.89" x2="362.97" y2="165.88"/><line x1="186.27" y1="208.89" x2="150.14" y2="208.89"/><line x1="250.09" y1="309.09" x2="221.77" y2="384.47"/><line x1="177.58" y1="165.88" x2="150.14" y2="165.88"/><line x1="32.16" y1="32.09" x2="64.64" y2="32.09"/><line x1="480.00" y1="479.91" x2="447.51" y2="479.91"/><line x1="64.64" y1="32.09" x2="32.16" y2="64.58"/><line x1="447.51" y1="479.91" x2="480.00" y2="447.42"/><line x1="221.79" y1="165.88" x2="206.90" y2="90.50"/><line x1="221.79" y1="165.88" x2="177.58" y2="165.88"/><line x1="336.54" y1="309.09" x2="283.91" y2="266.08"/><line x1="263.50" y1="165.88" x2="248.15" y2="90.50"/><line x1="263.50" y1="165.88" x2="292.03" y2="90.50"/><line x1="32.00" y1="479.98" x2="32.00" y2="447.50"/><line x1="327.79" y1="266.08" x2="283.91" y2="266.08"/><line x1="307.37" y1="165.88" x2="272.26" y2="208.89"/><line x1="283.91" y1="266.08" x2="250.09" y2="309.09"/><line x1="283.91" y1="266.08" x2="292.67" y2="309.09"/><line x1="272.26" y1="208.89" x2="230.29" y2="208.89"/><line x1="292.67" y1="309.09" x2="250.09" y2="309.09"/><line x1="307.37" y1="165.88" x2="292.03" y2="90.50"/><line x1="272.26" y1="208.89" x2="263.50" y2="165.88"/><line x1="230.29" y1="208.89" x2="221.79" y2="165.88"/><line x1="197.84" y1="266.08" x2="150.14" y2="266.08"/><line x1="362.97" y1="266.08" x2="362.97" y2="309.09"/><line x1="480.00" y1="32.02" x2="447.51" y2="32.02"/><line x1="206.90" y1="90.50" x2="162.34" y2="90.50"/><line x1="250.09" y1="309.09" x2="241.60" y2="266.08"/><line x1="316.13" y1="208.89" x2="307.37" y2="165.88"/><line x1="250.09" y1="309.09" x2="206.53" y2="309.09"/><line x1="206.53" y1="309.09" x2="150.14" y2="309.09"/><line x1="362.97" y1="165.88" x2="307.37" y2="165.88"/><line x1="186.27" y1="208.89" x2="177.58" y2="165.88"/><line x1="263.50" y1="165.88" x2="221.79" y2="165.88"/><line x1="177.58" y1="165.88" x2="150.14" y2="208.89"/><line x1="351.88" y1="384.47" x2="308.01" y2="384.47"/><line x1="177.58" y1="165.88" x2="162.34" y2="90.50"/><line x1="221.79" y1="165.88" x2="186.27" y2="208.89"/><line x1="221.77" y1="384.47" x2="206.53" y2="309.09"/><line x1="336.54" y1="309.09" x2="327.79" y2="266.08"/><line x1="32.00" y1="447.50" x2="64.49" y2="479.98"/></g></svg>