<svg xmlns="http://www.w3.org/2000/svg" width="512" height="512"><rect width="512" height="512" fill="#0a0f1a"/><text x="12" y="20" font-family="monospace" font-size="11" fill="#4a7fa5">FRONT (XZ)</text><g stroke="#00d4ff" stroke-width="0.6" opacity="0.85"><line x1="209.05" y1="363.72" x2="210.65" y2="365.06"/><line x1="60.57" y1="272.65" x2="57.87" y2="286.39"/><line x1="414.40" y1="313.83" x2="417.09" y2="318.07"/><line x1="45.35" y1="252.75" x2="51.10" y2="270.64"/><line x1="406.48" y1="399.88" x2="439.01" y2="457.90"/><line x1="339.91" y1="379.04" x2="337.05" y2="374.50"/><line x1="243.82" y1="405.25" x2="235.92" y2="407.13"/><line x1="131.54" y1="61.91" x2="135.30" y2="68.81"/><line x1="278.36" y1="475.86" x2="276.18" y2="475.74"/><line x1="94.32" y1="220.64" x2="100.28" y2="233.64"/><line x1="287.70" y1="172.34" x2="297.45" y2="172.09"/><line x1="136.57" y1="435.91" x2="145.95" y2="434.28"/><line x1="361.29" y1="261.65" x2="381.92" y2="247.22"/><line x1="78.91" y1="297.17" x2="83.90" y2="302.66"/><line x1="271.51" y1="408.09" x2="277.10" y2="410.85"/><line x1="162.23" y1="327.47" x2="174.62" y2="357.72"/><line x1="439.01" y1="457.90" x2="401.39" y2="402.59"/><line x1="286.16" y1="418.06" x2="282.00" y2="414.21"/><line x1="319.47" y1="461.71" x2="346.43" y2="387.51"/><line x1="222.30" y1="137.90" x2="234.47" y2="127.04"/><line x1="193.14" y1="247.63" x2="192.70" y2="252.52"/><line x1="62.03" y1="100.50" x2="72.10" y2="108.85"/><line x1="173.41" y1="310.16" x2="173.67" y2="312.87"/><line x1="381.92" y1="247.22" x2="364.32" y2="264.02"/><line x1="73.87" y1="312.07" x2="89.00" y2="307.82"/><line x1="460.87" y1="324.94" x2="425.51" y2="336.30"/><line x1="252.16" y1="363.18" x2="243.82" y2="405.25"/><line x1="273.87" y1="205.48" x2="267.36" y2="194.13"/><line x1="346.43" y1="387.51" x2="314.08" y2="462.49"/><line x1="168.90" y1="251.28" x2="192.44" y2="257.38"/><line x1="167.39" y1="165.69" x2="180.20" y2="161.83"/><line x1="304.37" y1="180.73" x2="295.00" y2="189.26"/><line x1="166.38" y1="425.62" x2="177.50" y2="418.37"/><line x1="192.72" y1="271.78" x2="163.08" y2="260.02"/><line x1="234.35" y1="353.29" x2="237.74" y2="355.75"/><line x1="49.10" y1="366.13" x2="58.95" y2="371.44"/><line x1="425.51" y1="336.30" x2="426.94" y2="341.04"/><line x1="341.80" y1="465.84" x2="337.74" y2="464.22"/><line x1="390.97" y1="406.07" x2="394.60" y2="479.23"/><line x1="135.68" y1="332.64" x2="141.28" y2="354.32"/><line x1="300.09" y1="302.44" x2="316.59" y2="292.20"/><line x1="149.38" y1="94.76" x2="154.64" y2="104.84"/><line x1="264.02" y1="473.30" x2="261.43" y2="472.53"/><line x1="102.94" y1="272.28" x2="114.51" y2="281.45"/><line x1="295.00" y1="189.26" x2="308.15" y2="185.17"/><line x1="178.70" y1="440.82" x2="189.18" y2="435.86"/><line x1="96.57" y1="421.83" x2="97.62" y2="440.92"/><line x1="376.08" y1="273.42" x2="378.93" y2="275.78"/><line x1="163.08" y1="260.02" x2="192.45" y2="267.02"/><line x1="199.98" y1="358.31" x2="219.20" y2="338.27"/><line x1="394.60" y1="479.23" x2="385.88" y2="406.71"/><line x1="316.59" y1="292.20" x2="296.12" y2="290.53"/><line x1="143.50" y1="99.94" x2="148.53" y2="112.18"/><line x1="77.93" y1="158.32" x2="62.92" y2="167.87"/><line x1="378.93" y1="275.78" x2="401.50" y2="259.46"/><line x1="244.79" y1="359.98" x2="248.44" y2="361.72"/><line x1="52.72" y1="259.42" x2="56.51" y2="266.09"/><line x1="429.33" y1="355.37" x2="470.74" y2="364.88"/><line x1="219.20" y1="338.27" x2="201.87" y2="359.19"/><line x1="104.72" y1="320.90" x2="110.01" y2="324.32"/><line x1="233.36" y1="168.30" x2="227.34" y2="153.23"/><line x1="123.98" y1="48.86" x2="124.61" y2="47.81"/><line x1="155.23" y1="267.39" x2="158.83" y2="296.24"/><line x1="175.36" y1="205.95" x2="193.11" y2="209.59"/><line x1="58.95" y1="371.44" x2="64.73" y2="381.40"/><line x1="201.74" y1="397.41" x2="222.96" y2="415.25"/><line x1="166.17" y1="300.15" x2="194.63" y2="285.88"/><line x1="56.51" y1="266.09" x2="60.57" y2="272.65"/><line x1="470.74" y1="364.88" x2="429.43" y2="360.09"/><line x1="158.16" y1="329.21" x2="167.33" y2="357.63"/><line x1="190.38" y1="356.76" x2="186.28" y2="357.15"/><line x1="270.51" y1="460.17" x2="266.56" y2="473.99"/><line x1="284.88" y1="265.64" x2="297.99" y2="248.12"/><line x1="251.13" y1="463.76" x2="248.51" y2="467.99"/><line x1="76.05" y1="421.11" x2="86.57" y2="432.50"/><line x1="193.11" y1="209.59" x2="175.92" y2="218.50"/><line x1="308.37" y1="209.40" x2="321.11" y2="199.10"/><line x1="196.23" y1="356.93" x2="198.10" y2="357.55"/><line x1="127.70" y1="435.91" x2="132.66" y2="451.21"/><line x1="194.63" y1="285.88" x2="168.91" y2="302.44"/><line x1="396.15" y1="404.71" x2="390.97" y2="406.07"/><line x1="207.35" y1="362.45" x2="209.05" y2="363.72"/><line x1="167.33" y1="357.63" x2="162.23" y2="327.47"/><line x1="366.60" y1="477.18" x2="362.10" y2="475.53"/><line x1="297.99" y1="248.12" x2="278.03" y2="252.68"/><line x1="170.57" y1="138.10" x2="175.55" y2="149.88"/><line x1="127.30" y1="60.53" x2="131.54" y2="61.91"/><line x1="72.46" y1="218.53" x2="94.32" y2="220.64"/><line x1="132.66" y1="451.21" x2="136.57" y2="435.91"/><line x1="392.61" y1="288.01" x2="395.21" y2="290.58"/><line x1="282.00" y1="414.21" x2="287.02" y2="361.17"/><line x1="74.06" y1="291.38" x2="78.91" y2="297.17"/><line x1="425.84" y1="378.11" x2="423.85" y2="382.28"/><line x1="209.05" y1="363.72" x2="227.90" y2="347.78"/><line x1="275.33" y1="365.24" x2="271.51" y2="408.09"/><line x1="339.91" y1="379.04" x2="286.16" y2="418.06"/><line x1="71.48" y1="37.05" x2="69.54" y2="41.07"/><line x1="131.54" y1="61.91" x2="130.42" y2="68.62"/><line x1="193.18" y1="276.52" x2="193.82" y2="281.22"/><line x1="172.87" y1="241.34" x2="193.14" y2="247.63"/><line x1="337.17" y1="214.00" x2="343.35" y2="219.20"/><line x1="94.32" y1="220.64" x2="77.94" y2="233.99"/><line x1="198.21" y1="299.62" x2="173.41" y2="310.16"/><line x1="214.67" y1="369.43" x2="215.68" y2="370.97"/><line x1="78.91" y1="297.17" x2="73.87" y2="312.07"/><line x1="271.51" y1="408.09" x2="279.24" y2="364.31"/><line x1="262.95" y1="225.77" x2="273.87" y2="205.48"/><line x1="114.74" y1="254.48" x2="123.34" y2="261.74"/><line x1="193.14" y1="247.63" x2="168.90" y2="251.28"/><line x1="167.67" y1="445.13" x2="166.38" y2="425.62"/><line x1="438.02" y1="288.46" x2="409.90" y2="307.48"/><line x1="173.41" y1="310.16" x2="199.77" y2="304.11"/><line x1="290.98" y1="278.26" x2="284.88" y2="265.64"/><line x1="294.67" y1="356.25" x2="328.62" y2="355.25"/><line x1="273.87" y1="205.48" x2="255.16" y2="211.85"/><line x1="144.33" y1="85.32" x2="149.38" y2="94.76"/><line x1="285.47" y1="161.77" x2="285.95" y2="165.09"/><line x1="251.13" y1="463.76" x2="238.93" y2="464.24"/><line x1="205.60" y1="317.31" x2="193.14" y2="356.48"/><line x1="166.38" y1="425.62" x2="178.70" y2="440.82"/><line x1="414.99" y1="393.58" x2="411.01" y2="396.87"/><line x1="234.35" y1="353.29" x2="215.68" y2="370.97"/><line x1="254.12" y1="169.72" x2="247.49" y2="156.43"/><line x1="70.38" y1="65.80" x2="70.57" y2="78.96"/><line x1="149.38" y1="94.76" x2="143.50" y2="99.94"/><line x1="350.07" y1="252.34" x2="358.24" y2="259.26"/><line x1="102.94" y1="272.28" x2="123.34" y2="261.74"/><line x1="217.44" y1="375.71" x2="217.54" y2="377.31"/><line x1="454.39" y1="439.15" x2="447.29" y2="449.08"/><line x1="99.43" y1="316.98" x2="104.72" y2="320.90"/><line x1="329.14" y1="462.00" x2="324.46" y2="461.57"/><line x1="330.25" y1="360.14" x2="328.62" y2="355.25"/><line x1="175.15" y1="230.36" x2="172.87" y2="241.34"/><line x1="64.58" y1="71.79" x2="63.15" y2="85.50"/><line x1="143.17" y1="292.74" x2="149.01" y2="293.53"/><line x1="53.27" y1="361.12" x2="58.95" y2="371.44"/><line x1="304.39" y1="204.07" x2="308.37" y2="209.40"/><line x1="454.73" y1="312.19" x2="421.80" y2="326.99"/><line x1="244.79" y1="359.98" x2="217.36" y2="378.89"/><line x1="270.65" y1="239.38" x2="262.95" y2="225.77"/><line x1="324.98" y1="330.94" x2="322.82" y2="317.25"/><line x1="353.92" y1="394.85" x2="350.06" y2="391.34"/><line x1="371.37" y1="478.54" x2="366.60" y2="477.18"/><line x1="273.88" y1="475.48" x2="271.51" y2="475.09"/><line x1="233.36" y1="168.30" x2="247.49" y2="156.43"/><line x1="277.84" y1="457.28" x2="278.36" y2="475.86"/><line x1="158.56" y1="138.36" x2="163.21" y2="151.96"/><line x1="155.23" y1="267.39" x2="154.23" y2="294.71"/><line x1="89.16" y1="206.32" x2="72.46" y2="218.53"/><line x1="201.74" y1="397.41" x2="216.01" y2="419.93"/><line x1="389.95" y1="285.48" x2="392.61" y2="288.01"/><line x1="121.82" y1="348.28" x2="130.73" y2="332.28"/><line x1="429.57" y1="465.47" x2="419.01" y2="471.65"/><line x1="158.83" y1="296.24" x2="193.18" y2="276.52"/><line x1="303.62" y1="325.14" x2="302.66" y2="313.98"/><line x1="270.51" y1="460.17" x2="269.06" y2="474.59"/><line x1="343.04" y1="383.40" x2="339.91" y2="379.04"/><line x1="61.33" y1="116.50" x2="61.17" y2="133.25"/><line x1="76.05" y1="421.11" x2="89.69" y2="415.38"/><line x1="196.23" y1="356.93" x2="216.09" y2="334.19"/><line x1="396.15" y1="404.71" x2="407.34" y2="476.29"/><line x1="470.47" y1="391.46" x2="425.84" y2="378.11"/><line x1="293.16" y1="441.01" x2="291.29" y2="445.57"/><line x1="228.18" y1="110.70" x2="222.11" y2="93.11"/><line x1="73.52" y1="125.02" x2="75.45" y2="141.60"/><line x1="71.03" y1="35.21" x2="71.48" y2="37.05"/><line x1="192.45" y1="267.02" x2="192.36" y2="262.21"/><line x1="323.12" y1="226.60" x2="337.17" y2="214.00"/><line x1="465.56" y1="338.06" x2="468.85" y2="351.43"/><line x1="282.00" y1="414.21" x2="283.14" y2="362.95"/><line x1="251.39" y1="404.52" x2="259.76" y2="365.22"/><line x1="425.84" y1="378.11" x2="468.35" y2="404.29"/><line x1="308.24" y1="464.02" x2="301.90" y2="466.39"/><line x1="371.27" y1="404.78" x2="345.78" y2="467.68"/><line x1="261.63" y1="462.36" x2="256.23" y2="470.83"/><line x1="288.16" y1="449.88" x2="283.70" y2="453.82"/><line x1="71.48" y1="37.05" x2="72.26" y2="32.00"/><line x1="193.18" y1="276.52" x2="162.81" y2="298.06"/><line x1="337.17" y1="214.00" x2="329.04" y2="232.74"/><line x1="428.07" y1="345.82" x2="428.87" y2="350.61"/><line x1="405.20" y1="301.53" x2="438.02" y2="288.46"/><line x1="150.52" y1="356.06" x2="153.46" y2="330.64"/><line x1="214.67" y1="369.43" x2="234.35" y2="353.29"/><line x1="312.64" y1="280.62" x2="308.18" y2="269.49"/><line x1="345.78" y1="467.68" x2="341.80" y2="465.84"/><line x1="277.84" y1="457.28" x2="287.42" y2="473.94"/><line x1="188.00" y1="185.91" x2="190.95" y2="197.85"/><line x1="111.34" y1="431.44" x2="119.30" y2="434.38"/><line x1="114.74" y1="254.48" x2="102.94" y2="272.28"/><line x1="203.74" y1="360.18" x2="205.57" y2="361.27"/><line x1="438.02" y1="288.46" x2="407.57" y2="304.46"/><line x1="382.04" y1="480.00" x2="376.50" y2="479.50"/><line x1="460.29" y1="428.28" x2="414.99" y2="393.58"/><line x1="294.67" y1="356.25" x2="330.25" y2="360.14"/><line x1="287.42" y1="473.94" x2="285.91" y2="474.70"/><line x1="65.06" y1="185.19" x2="68.20" y2="202.17"/><line x1="285.47" y1="161.77" x2="291.16" y2="163.78"/><line x1="109.08" y1="446.65" x2="120.81" y2="449.98"/><line x1="357.16" y1="230.00" x2="350.07" y2="252.34"/><line x1="57.87" y1="286.39" x2="69.36" y2="285.34"/><line x1="471.27" y1="378.27" x2="470.47" y2="391.46"/><line x1="205.60" y1="317.31" x2="172.33" y2="318.22"/><line x1="414.99" y1="393.58" x2="454.39" y2="439.15"/><line x1="357.98" y1="397.99" x2="329.14" y2="462.00"/><line x1="126.08" y1="51.32" x2="128.43" y2="56.05"/><line x1="254.12" y1="169.72" x2="233.36" y2="168.30"/><line x1="194.37" y1="221.05" x2="194.62" y2="232.12"/><line x1="297.45" y1="172.09" x2="290.66" y2="180.40"/><line x1="70.38" y1="65.80" x2="64.58" y2="71.79"/><line x1="427.40" y1="277.76" x2="402.77" y2="298.68"/><line x1="195.64" y1="290.50" x2="196.83" y2="295.08"/><line x1="350.07" y1="252.34" x2="364.84" y2="235.59"/><line x1="207.97" y1="425.13" x2="201.74" y2="397.41"/><line x1="417.09" y1="318.07" x2="454.73" y2="312.19"/><line x1="174.62" y1="357.72" x2="180.99" y2="357.51"/><line x1="376.01" y1="406.03" x2="371.27" y2="404.78"/><line x1="217.44" y1="375.71" x2="244.79" y2="359.98"/><line x1="292.34" y1="237.64" x2="286.41" y2="227.11"/><line x1="329.14" y1="462.00" x2="353.92" y2="394.85"/><line x1="276.18" y1="475.74" x2="273.88" y2="475.48"/><line x1="175.15" y1="230.36" x2="193.75" y2="242.71"/><line x1="165.34" y1="126.61" x2="158.56" y2="138.36"/><line x1="214.93" y1="383.47" x2="228.68" y2="411.36"/><line x1="144.51" y1="450.61" x2="156.23" y2="448.49"/><line x1="143.17" y1="292.74" x2="155.23" y2="267.39"/><line x1="454.73" y1="312.19" x2="419.56" y2="322.47"/><line x1="165.68" y1="325.45" x2="168.52" y2="323.21"/><line x1="401.39" y1="402.59" x2="429.57" y2="465.47"/><line x1="270.65" y1="239.38" x2="280.24" y2="216.44"/><line x1="324.98" y1="330.94" x2="303.62" y2="325.14"/><line x1="135.30" y1="68.81" x2="139.60" y2="76.64"/><line x1="273.88" y1="475.48" x2="270.51" y2="460.17"/><line x1="277.84" y1="457.28" x2="280.45" y2="475.83"/><line x1="289.02" y1="176.27" x2="290.66" y2="180.40"/><line x1="173.67" y1="312.87" x2="173.31" y2="315.57"/><line x1="158.56" y1="138.36" x2="170.57" y2="138.10"/><line x1="76.78" y1="399.80" x2="76.05" y2="421.11"/><line x1="145.95" y1="434.28" x2="155.88" y2="430.89"/><line x1="51.10" y1="270.64" x2="57.87" y2="286.39"/><line x1="213.18" y1="330.05" x2="196.23" y2="356.93"/><line x1="121.82" y1="348.28" x2="125.67" y2="331.23"/><line x1="429.57" y1="465.47" x2="396.15" y2="404.71"/><line x1="303.62" y1="325.14" x2="322.82" y2="317.25"/><line x1="134.27" y1="78.00" x2="138.69" y2="88.49"/><line x1="218.46" y1="122.31" x2="228.18" y2="110.70"/><line x1="308.15" y1="185.17" x2="312.18" y2="189.72"/><line x1="61.33" y1="116.50" x2="73.52" y2="125.02"/><line x1="76.05" y1="421.11" x2="83.11" y2="408.00"/><line x1="367.31" y1="266.38" x2="370.27" y2="268.72"/><line x1="237.74" y1="355.75" x2="241.22" y2="357.99"/><line x1="89.00" y1="307.82" x2="94.19" y2="312.61"/><line x1="293.16" y1="441.01" x2="308.24" y2="464.02"/><line x1="228.18" y1="110.70" x2="216.04" y2="106.48"/><line x1="170.92" y1="179.37" x2="184.38" y2="173.87"/><line x1="297.72" y1="194.00" x2="300.85" y2="198.93"/><line x1="401.50" y1="259.46" x2="384.52" y2="280.57"/><line x1="465.56" y1="338.06" x2="428.07" y2="345.82"/><line x1="282.00" y1="414.21" x2="277.10" y2="410.85"/><line x1="251.39" y1="404.52" x2="255.94" y2="364.35"/><line x1="247.49" y1="197.62" x2="240.15" y2="183.10"/><line x1="296.12" y1="290.53" x2="312.64" y2="280.62"/><line x1="261.63" y1="462.36" x2="258.83" y2="471.71"/><line x1="57.18" y1="388.21" x2="66.22" y2="406.44"/><line x1="81.01" y1="174.87" x2="84.74" y2="190.97"/><line x1="184.38" y1="173.87" x2="188.00" y2="185.91"/><line x1="189.18" y1="435.86" x2="198.99" y2="430.53"/><line x1="201.87" y1="359.19" x2="203.74" y2="360.18"/><line x1="150.52" y1="356.06" x2="148.16" y2="331.72"/><line x1="293.41" y1="431.53" x2="291.94" y2="426.84"/><line x1="312.64" y1="280.62" x2="290.98" y2="278.26"/><line x1="124.61" y1="47.81" x2="124.12" y2="45.62"/><line x1="321.11" y1="199.10" x2="326.08" y2="203.95"/><line x1="277.84" y1="457.28" x2="270.51" y2="460.17"/><line x1="168.91" y1="302.44" x2="171.03" y2="304.91"/><line x1="217.36" y1="378.89" x2="243.82" y2="405.25"/><line x1="111.34" y1="431.44" x2="109.08" y2="446.65"/><line x1="429.15" y1="364.76" x2="428.46" y2="369.33"/><line x1="203.74" y1="360.18" x2="221.96" y2="341.58"/><line x1="278.03" y1="252.68" x2="270.65" y2="239.38"/><line x1="120.50" y1="329.52" x2="121.82" y2="348.28"/><line x1="175.92" y1="218.50" x2="194.37" y2="221.05"/><line x1="312.80" y1="214.94" x2="317.71" y2="220.67"/><line x1="227.90" y1="347.78" x2="212.13" y2="366.47"/><line x1="57.87" y1="286.39" x2="64.86" y2="279.09"/><line x1="357.84" y1="473.67" x2="353.73" y2="471.68"/><line x1="263.62" y1="365.75" x2="267.51" y2="365.95"/><line x1="216.87" y1="380.45" x2="216.07" y2="381.98"/><line x1="130.42" y1="68.62" x2="134.27" y2="78.00"/><line x1="293.16" y1="441.01" x2="293.84" y2="436.29"/><line x1="77.94" y1="233.99" x2="84.78" y2="248.28"/><line x1="194.37" y1="221.05" x2="175.15" y2="230.36"/><line x1="297.45" y1="172.09" x2="289.02" y2="176.27"/><line x1="216.09" y1="334.19" x2="219.20" y2="338.27"/><line x1="427.40" y1="277.76" x2="400.30" y2="295.91"/><line x1="193.14" y1="356.48" x2="190.38" y2="356.76"/><line x1="279.24" y1="364.31" x2="283.14" y2="362.95"/><line x1="376.01" y1="406.03" x2="349.74" y2="469.66"/><line x1="174.62" y1="357.72" x2="165.68" y2="325.45"/><line x1="337.05" y1="374.50" x2="334.47" y2="369.81"/><line x1="292.34" y1="237.64" x2="270.65" y2="239.38"/><line x1="43.20" y1="239.27" x2="40.73" y2="232.62"/><line x1="261.63" y1="462.36" x2="251.13" y2="463.76"/><line x1="100.28" y1="233.64" x2="107.06" y2="245.01"/><line x1="214.93" y1="383.47" x2="222.96" y2="415.25"/><line x1="199.77" y1="304.11" x2="201.52" y2="308.56"/><line x1="332.20" y1="365.00" x2="294.67" y2="356.25"/><line x1="364.32" y1="264.02" x2="367.31" y2="266.38"/><line x1="259.76" y1="365.22" x2="258.59" y2="404.82"/><line x1="210.65" y1="365.06" x2="212.13" y2="366.47"/><line x1="144.51" y1="450.61" x2="145.95" y2="434.28"/><line x1="255.16" y1="211.85" x2="247.49" y2="197.62"/><line x1="282.00" y1="414.21" x2="332.20" y2="365.00"/><line x1="314.08" y1="462.49" x2="293.16" y2="441.01"/><line x1="69.54" y1="41.07" x2="67.89" y2="49.30"/><line x1="135.30" y1="68.81" x2="134.27" y2="78.00"/><line x1="343.35" y1="219.20" x2="350.01" y2="224.53"/><line x1="277.84" y1="457.28" x2="282.41" y2="475.63"/><line x1="51.10" y1="270.64" x2="60.57" y2="272.65"/><line x1="173.67" y1="312.87" x2="203.47" y2="312.97"/><line x1="235.92" y1="407.13" x2="214.93" y2="383.47"/><line x1="215.68" y1="370.97" x2="216.50" y2="372.54"/><line x1="421.40" y1="386.26" x2="418.45" y2="390.03"/><line x1="426.94" y1="341.04" x2="465.56" y2="338.06"/><line x1="83.90" y1="302.66" x2="89.00" y2="307.82"/><line x1="366.67" y1="403.00" x2="362.23" y2="400.73"/><line x1="103.77" y1="427.22" x2="111.34" y2="431.44"/><line x1="267.36" y1="194.13" x2="260.76" y2="182.25"/><line x1="70.88" y1="44.56" x2="70.49" y2="54.24"/><line x1="415.24" y1="268.05" x2="427.40" y2="277.76"/><line x1="123.34" y1="261.74" x2="132.93" y2="266.50"/><line x1="308.15" y1="185.17" x2="297.72" y2="194.00"/><line x1="177.50" y1="418.37" x2="189.28" y2="409.00"/><line x1="237.74" y1="355.75" x2="217.09" y2="374.12"/><line x1="337.74" y1="464.22" x2="333.54" y2="462.92"/><line x1="385.88" y1="406.71" x2="388.05" y2="479.94"/><line x1="154.64" y1="104.84" x2="160.00" y2="115.49"/><line x1="114.51" y1="281.45" x2="127.88" y2="288.36"/><line x1="224.86" y1="344.75" x2="227.90" y2="347.78"/><line x1="193.14" y1="356.48" x2="210.46" y2="325.86"/><line x1="412.18" y1="310.60" x2="414.40" y2="313.83"/><line x1="401.50" y1="259.46" x2="381.75" y2="278.16"/><line x1="101.97" y1="337.94" x2="111.87" y2="343.71"/><line x1="411.01" y1="396.87" x2="406.48" y2="399.88"/><line x1="327.35" y1="350.39" x2="326.44" y2="345.59"/><line x1="388.05" y1="479.94" x2="382.04" y2="480.00"/><line x1="247.49" y1="156.43" x2="240.92" y2="142.25"/><line x1="70.57" y1="78.96" x2="71.13" y2="93.40"/><line x1="57.18" y1="388.21" x2="70.67" y2="390.89"/><line x1="81.01" y1="174.87" x2="65.06" y2="185.19"/><line x1="65.50" y1="300.16" x2="73.87" y2="312.07"/><line x1="381.75" y1="278.16" x2="384.52" y2="280.57"/><line x1="447.29" y1="449.08" x2="439.01" y2="457.90"/><line x1="429.43" y1="360.09" x2="429.15" y2="364.76"/><line x1="227.34" y1="153.23" x2="222.30" y2="137.90"/><line x1="63.15" y1="85.50" x2="62.03" y2="100.50"/><line x1="373.09" y1="241.34" x2="381.92" y2="247.22"/><line x1="321.11" y1="199.10" x2="312.80" y2="214.94"/><line x1="168.91" y1="302.44" x2="195.64" y2="290.50"/><line x1="217.36" y1="378.89" x2="252.16" y2="363.18"/><line x1="429.15" y1="364.76" x2="471.27" y2="378.27"/><line x1="322.82" y1="317.25" x2="320.00" y2="304.37"/><line x1="350.06" y1="391.34" x2="346.43" y2="387.51"/><line x1="362.10" y1="475.53" x2="357.84" y2="473.67"/><line x1="278.03" y1="252.68" x2="292.34" y2="237.64"/><line x1="163.21" y1="151.96" x2="167.39" y2="165.69"/><line x1="246.01" y1="467.02" x2="243.58" y2="466.07"/><line x1="391.38" y1="253.27" x2="378.93" y2="275.78"/><line x1="312.80" y1="214.94" x2="326.08" y2="203.95"/><line x1="192.36" y1="262.21" x2="192.44" y2="257.38"/><line x1="423.79" y1="331.60" x2="425.51" y2="336.30"/><line x1="395.21" y1="290.58" x2="427.40" y2="277.76"/><line x1="130.73" y1="332.28" x2="135.68" y2="332.64"/><line x1="227.90" y1="347.78" x2="210.65" y2="365.06"/><line x1="302.66" y1="313.98" x2="300.09" y2="302.44"/><line x1="357.84" y1="473.67" x2="376.01" y2="406.03"/><line x1="130.42" y1="68.62" x2="135.30" y2="68.81"/><line x1="89.69" y1="415.38" x2="96.57" y2="421.83"/><line x1="77.94" y1="233.99" x2="100.28" y2="233.64"/><line x1="468.85" y1="351.43" x2="470.74" y2="364.88"/><line x1="216.09" y1="334.19" x2="199.98" y2="358.31"/><line x1="427.40" y1="277.76" x2="397.78" y2="293.22"/><line x1="261.43" y1="472.53" x2="261.63" y2="462.36"/><line x1="131.67" y1="351.77" x2="141.28" y2="354.32"/><line x1="468.35" y1="404.29" x2="423.85" y2="382.28"/><line x1="301.90" y1="466.39" x2="294.97" y2="469.66"/><line x1="279.24" y1="364.31" x2="277.10" y2="410.85"/><line x1="222.11" y1="93.11" x2="216.30" y2="74.12"/><line x1="337.05" y1="374.50" x2="282.00" y2="414.21"/><line x1="75.45" y1="141.60" x2="77.93" y2="158.32"/><line x1="329.04" y1="232.74" x2="343.35" y2="219.20"/><line x1="49.23" y1="252.70" x2="52.72" y2="259.42"/><line x1="92.24" y1="330.82" x2="101.97" y2="337.94"/><line x1="199.77" y1="304.11" x2="173.67" y2="312.87"/><line x1="380.89" y1="406.68" x2="366.60" y2="477.18"/><line x1="423.85" y1="382.28" x2="421.40" y2="386.26"/><line x1="62.92" y1="167.87" x2="81.01" y2="174.87"/><line x1="255.16" y1="211.85" x2="267.36" y2="194.13"/><line x1="173.63" y1="192.85" x2="175.36" y2="205.95"/><line x1="316.49" y1="194.35" x2="321.11" y2="199.10"/><line x1="291.16" y1="163.78" x2="286.68" y2="168.61"/><line x1="69.54" y1="41.07" x2="70.88" y2="44.56"/><line x1="343.35" y1="219.20" x2="335.49" y2="239.07"/><line x1="51.10" y1="270.64" x2="56.51" y2="266.09"/><line x1="153.46" y1="330.64" x2="158.16" y2="329.21"/><line x1="215.68" y1="370.97" x2="237.74" y2="355.75"/><line x1="366.67" y1="403.00" x2="337.74" y2="464.22"/><line x1="415.24" y1="268.05" x2="395.21" y2="290.58"/><line x1="364.84" y1="235.59" x2="373.09" y2="241.34"/><line x1="123.34" y1="261.74" x2="114.51" y2="281.45"/><line x1="177.50" y1="418.37" x2="189.18" y2="435.86"/><line x1="409.90" y1="307.48" x2="412.18" y2="310.60"/><line x1="248.51" y1="467.99" x2="246.01" y2="467.02"/><line x1="265.32" y1="406.05" x2="271.51" y2="408.09"/><line x1="159.25" y1="357.12" x2="167.33" y2="357.63"/><line x1="289.50" y1="422.31" x2="286.16" y2="418.06"/><line x1="328.62" y1="355.25" x2="327.35" y2="350.39"/><line x1="284.23" y1="475.26" x2="282.41" y2="475.63"/><line x1="45.35" y1="252.75" x2="49.23" y2="252.70"/><line x1="285.95" y1="165.09" x2="286.68" y2="168.61"/><line x1="120.81" y1="449.98" x2="132.66" y2="451.21"/><line x1="358.24" y1="259.26" x2="361.29" y2="261.65"/><line x1="193.14" y1="356.48" x2="207.94" y2="321.61"/><line x1="101.97" y1="337.94" x2="110.01" y2="324.32"/><line x1="411.01" y1="396.87" x2="447.29" y2="449.08"/><line x1="324.46" y1="461.57" x2="319.47" y2="461.71"/><line x1="136.57" y1="435.91" x2="144.51" y2="450.61"/><line x1="247.49" y1="156.43" x2="227.34" y2="153.23"/><line x1="290.66" y1="180.40" x2="292.65" y2="184.73"/><line x1="70.57" y1="78.96" x2="63.15" y2="85.50"/><line x1="57.18" y1="388.21" x2="64.73" y2="381.40"/><line x1="286.16" y1="418.06" x2="337.05" y2="374.50"/><line x1="231.06" y1="350.63" x2="234.35" y2="353.29"/><line x1="65.50" y1="300.16" x2="78.91" y2="297.17"/><line x1="217.54" y1="377.31" x2="217.36" y2="378.89"/><line x1="73.87" y1="312.07" x2="83.90" y2="302.66"/><line x1="300.82" y1="176.37" x2="304.37" y2="180.73"/><line x1="370.27" y1="268.72" x2="373.19" y2="271.07"/><line x1="149.01" y1="293.53" x2="154.23" y2="294.71"/><line x1="222.96" y1="415.25" x2="228.68" y2="411.36"/><line x1="346.43" y1="387.51" x2="293.41" y2="431.53"/><line x1="168.90" y1="251.28" x2="192.70" y2="252.52"/><line x1="322.82" y1="317.25" x2="302.66" y2="313.98"/><line x1="138.69" y1="88.49" x2="143.50" y2="99.94"/><line x1="288.17" y1="159.73" x2="291.16" y2="163.78"/><line x1="49.10" y1="366.13" x2="53.27" y2="361.12"/><line x1="61.17" y1="133.25" x2="61.66" y2="150.46"/><line x1="341.80" y1="465.84" x2="366.67" y2="403.00"/><line x1="163.21" y1="151.96" x2="175.55" y2="149.88"/><line x1="391.38" y1="253.27" x2="376.08" y2="273.42"/><line x1="130.73" y1="332.28" x2="131.67" y2="351.77"/><line x1="291.29" y1="445.57" x2="288.16" y2="449.88"/><line x1="178.70" y1="440.82" x2="177.50" y2="418.37"/><line x1="312.18" y1="189.72" x2="316.49" y2="194.35"/><line x1="189.28" y1="409.00" x2="201.74" y2="397.41"/><line x1="89.69" y1="415.38" x2="86.57" y2="432.50"/><line x1="468.85" y1="351.43" x2="429.33" y2="355.37"/><line x1="143.50" y1="99.94" x2="154.64" y2="104.84"/><line x1="222.11" y1="93.11" x2="215.24" y2="90.41"/><line x1="104.72" y1="320.90" x2="101.97" y2="337.94"/><line x1="300.85" y1="198.93" x2="304.39" y2="204.07"/><line x1="170.74" y1="320.79" x2="190.38" y2="356.76"/><line x1="162.81" y1="298.06" x2="166.17" y2="300.15"/><line x1="111.87" y1="343.71" x2="121.82" y2="348.28"/><line x1="221.96" y1="341.58" x2="224.86" y2="344.75"/><line x1="49.23" y1="252.70" x2="51.10" y2="270.64"/><line x1="407.57" y1="304.46" x2="409.90" y2="307.48"/><line x1="380.89" y1="406.68" x2="371.37" y2="478.54"/><line x1="58.95" y1="371.44" x2="57.18" y2="388.21"/><line x1="381.92" y1="247.22" x2="391.38" y2="253.27"/><line x1="84.74" y1="190.97" x2="89.16" y2="206.32"/><line x1="173.63" y1="192.85" x2="190.95" y2="197.85"/><line x1="291.16" y1="163.78" x2="285.95" y2="165.09"/><line x1="119.30" y1="434.38" x2="127.70" y2="435.91"/><line x1="387.26" y1="283.01" x2="389.95" y2="285.48"/><line x1="252.16" y1="363.18" x2="255.94" y2="364.35"/><line x1="205.57" y1="361.27" x2="207.35" y2="362.45"/><line x1="267.51" y1="365.95" x2="271.42" y2="365.79"/><line x1="153.46" y1="330.64" x2="159.25" y2="357.12"/><line x1="346.43" y1="387.51" x2="343.04" y2="383.40"/><line x1="216.01" y1="419.93" x2="222.96" y2="415.25"/><line x1="125.10" y1="53.89" x2="127.30" y2="60.53"/><line x1="68.20" y1="202.17" x2="72.46" y2="218.53"/><line x1="171.03" y1="304.91" x2="172.53" y2="307.49"/><line x1="364.84" y1="235.59" x2="358.24" y2="259.26"/><line x1="69.36" y1="285.34" x2="74.06" y2="291.38"/><line x1="170.57" y1="138.10" x2="163.21" y2="151.96"/><line x1="265.32" y1="406.05" x2="275.33" y2="365.24"/><line x1="125.67" y1="331.23" x2="130.73" y2="332.28"/><line x1="317.71" y1="220.67" x2="323.12" y2="226.60"/><line x1="45.35" y1="252.75" x2="46.04" y2="245.97"/><line x1="196.83" y1="295.08" x2="198.21" y2="299.62"/><line x1="216.04" y1="106.48" x2="215.24" y2="90.41"/><line x1="212.13" y1="366.47" x2="213.48" y2="367.92"/><line x1="419.56" y1="322.47" x2="421.80" y2="326.99"/><line x1="180.99" y1="357.51" x2="186.28" y2="357.15"/><line x1="83.11" y1="408.00" x2="89.69" y2="415.38"/><line x1="324.46" y1="461.57" x2="350.06" y2="391.34"/><line x1="285.25" y1="158.66" x2="285.47" y2="161.77"/><line x1="84.78" y1="248.28" x2="93.08" y2="261.14"/><line x1="290.66" y1="180.40" x2="300.82" y2="176.37"/><line x1="156.23" y1="448.49" x2="167.67" y2="445.13"/><line x1="231.06" y1="350.63" x2="214.67" y2="369.43"/><line x1="123.98" y1="48.86" x2="125.10" y2="53.89"/><line x1="380.89" y1="406.68" x2="376.01" y2="406.03"/><line x1="139.60" y1="76.64" x2="144.33" y2="85.32"/><line x1="271.51" y1="475.09" x2="269.06" y2="474.59"/><line x1="97.62" y1="440.92" x2="109.08" y2="446.65"/><line x1="107.06" y1="245.01" x2="114.74" y2="254.48"/><line x1="290.98" y1="278.26" x2="303.28" y2="258.70"/><line x1="370.27" y1="268.72" x2="391.38" y2="253.27"/><line x1="258.59" y1="404.82" x2="265.32" y2="406.05"/><line x1="270.51" y1="460.17" x2="261.63" y2="462.36"/><line x1="82.83" y1="322.24" x2="92.24" y2="330.82"/><line x1="251.13" y1="463.76" x2="241.21" y2="465.14"/><line x1="49.10" y1="366.13" x2="42.10" y2="339.91"/><line x1="61.17" y1="133.25" x2="75.45" y2="141.60"/><line x1="447.12" y1="299.98" x2="454.73" y2="312.19"/><line x1="203.47" y1="312.97" x2="205.60" y2="317.31"/><line x1="285.91" y1="474.70" x2="284.23" y2="475.26"/><line x1="255.94" y1="364.35" x2="259.76" y2="365.22"/><line x1="260.76" y1="182.25" x2="254.12" y2="169.72"/><line x1="291.29" y1="445.57" x2="301.90" y2="466.39"/><line x1="172.33" y1="318.22" x2="193.14" y2="356.48"/><line x1="70.49" y1="54.24" x2="70.38" y2="65.80"/><line x1="454.39" y1="439.15" x2="411.01" y2="396.87"/><line x1="312.18" y1="189.72" x2="300.85" y2="198.93"/><line x1="210.46" y1="325.86" x2="213.18" y2="330.05"/><line x1="189.28" y1="409.00" x2="207.97" y2="425.13"/><line x1="217.09" y1="374.12" x2="217.44" y2="375.71"/><line x1="64.58" y1="71.79" x2="70.57" y2="78.96"/><line x1="333.54" y1="462.92" x2="329.14" y2="462.00"/><line x1="160.00" y1="115.49" x2="165.34" y2="126.61"/><line x1="256.23" y1="470.83" x2="253.63" y2="469.90"/><line x1="244.79" y1="359.98" x2="217.54" y2="377.31"/><line x1="127.88" y1="288.36" x2="143.17" y2="292.74"/><line x1="353.92" y1="394.85" x2="324.46" y2="461.57"/><line x1="111.87" y1="343.71" x2="120.50" y2="329.52"/><line x1="221.96" y1="341.58" x2="205.57" y2="361.27"/><line x1="326.44" y1="345.59" x2="324.98" y2="330.94"/><line x1="380.89" y1="406.68" x2="376.50" y2="479.50"/><line x1="155.23" y1="267.39" x2="149.01" y2="293.53"/><line x1="70.67" y1="390.89" x2="76.78" y2="399.80"/><line x1="381.92" y1="247.22" x2="370.27" y2="268.72"/><line x1="326.08" y1="203.95" x2="331.42" y2="208.91"/><line x1="84.74" y1="190.97" x2="68.20" y2="202.17"/><line x1="460.87" y1="324.94" x2="465.56" y2="338.06"/><line x1="270.51" y1="460.17" x2="271.51" y2="475.09"/><line x1="252.16" y1="363.18" x2="251.39" y2="404.52"/><line x1="267.51" y1="365.95" x2="265.32" y2="406.05"/><line x1="291.94" y1="426.84" x2="289.50" y2="422.31"/><line x1="346.43" y1="387.51" x2="289.50" y2="422.31"/><line x1="396.15" y1="404.71" x2="419.01" y2="471.65"/><line x1="192.72" y1="271.78" x2="193.18" y2="276.52"/><line x1="171.03" y1="304.91" x2="196.83" y2="295.08"/><line x1="428.46" y1="369.33" x2="427.37" y2="373.79"/><line x1="73.52" y1="125.02" x2="61.17" y2="133.25"/><line x1="241.21" y1="465.14" x2="238.93" y2="464.24"/><line x1="308.24" y1="464.02" x2="291.29" y2="445.57"/><line x1="216.04" y1="106.48" x2="222.11" y2="93.11"/><line x1="212.13" y1="366.47" x2="231.06" y2="350.63"/><line x1="353.73" y1="471.68" x2="349.74" y2="469.66"/><line x1="46.04" y1="245.97" x2="49.23" y2="252.70"/><line x1="428.07" y1="345.82" x2="468.85" y2="351.43"/><line x1="285.25" y1="158.66" x2="285.25" y2="155.74"/><line x1="84.78" y1="248.28" x2="107.06" y2="245.01"/><line x1="258.83" y1="471.71" x2="256.23" y2="470.83"/><line x1="464.95" y1="416.62" x2="460.29" y2="428.28"/><line x1="188.00" y1="185.91" x2="173.63" y2="192.85"/><line x1="123.98" y1="48.86" x2="126.08" y2="51.32"/><line x1="334.47" y1="369.81" x2="332.20" y2="365.00"/><line x1="155.23" y1="267.39" x2="163.08" y2="260.02"/><line x1="67.89" y1="49.30" x2="66.19" y2="59.63"/><line x1="382.04" y1="480.00" x2="380.89" y2="406.68"/><line x1="148.16" y1="331.72" x2="153.46" y2="330.64"/><line x1="350.01" y1="224.53" x2="357.16" y2="230.00"/><line x1="290.98" y1="278.26" x2="308.18" y2="269.49"/><line x1="470.74" y1="364.88" x2="471.27" y2="378.27"/><line x1="201.52" y1="308.56" x2="203.47" y2="312.97"/><line x1="270.51" y1="460.17" x2="261.43" y2="472.53"/><line x1="65.06" y1="185.19" x2="84.74" y2="190.97"/><line x1="362.23" y1="400.73" x2="357.98" y2="397.99"/><line x1="384.52" y1="280.57" x2="387.26" y2="283.01"/><line x1="251.13" y1="463.76" x2="243.58" y2="466.07"/><line x1="109.08" y1="446.65" x2="119.30" y2="434.38"/><line x1="471.27" y1="378.27" x2="427.37" y2="373.79"/><line x1="132.93" y1="266.50" x2="143.54" y2="268.48"/><line x1="447.12" y1="299.98" x2="417.09" y2="318.07"/><line x1="126.08" y1="51.32" x2="125.10" y2="53.89"/><line x1="283.70" y1="453.82" x2="277.84" y2="457.28"/><line x1="195.64" y1="290.50" x2="171.03" y2="304.91"/><line x1="64.86" y1="279.09" x2="69.36" y2="285.34"/><line x1="294.24" y1="167.90" x2="297.45" y2="172.09"/><line x1="282.00" y1="414.21" x2="294.67" y2="356.25"/><line x1="251.39" y1="404.52" x2="258.59" y2="404.82"/><line x1="210.46" y1="325.86" x2="194.42" y2="356.44"/><line x1="406.48" y1="399.88" x2="401.39" y2="402.59"/><line x1="175.15" y1="230.36" x2="194.62" y2="232.12"/><line x1="71.13" y1="93.40" x2="72.10" y2="108.85"/><line x1="165.68" y1="325.45" x2="180.99" y2="357.51"/><line x1="361.29" y1="261.65" x2="364.32" y2="264.02"/><line x1="270.65" y1="239.38" x2="286.41" y2="227.11"/><line x1="170.74" y1="320.79" x2="186.28" y2="357.15"/><line x1="111.87" y1="343.71" x2="115.28" y2="327.21"/><line x1="319.47" y1="461.71" x2="314.08" y2="462.49"/><line x1="145.95" y1="434.28" x2="156.23" y2="448.49"/><line x1="222.30" y1="137.90" x2="218.46" y2="122.31"/><line x1="438.02" y1="288.46" x2="447.12" y2="299.98"/><line x1="326.08" y1="203.95" x2="317.71" y2="220.67"/><line x1="460.87" y1="324.94" x2="426.94" y2="341.04"/><line x1="294.67" y1="356.25" x2="299.83" y2="346.28"/><line x1="134.27" y1="78.00" x2="139.60" y2="76.64"/><line x1="335.49" y1="239.07" x2="342.50" y2="245.60"/><line x1="89.00" y1="307.82" x2="82.83" y2="322.24"/><line x1="167.39" y1="165.69" x2="170.92" y2="179.37"/><line x1="304.37" y1="180.73" x2="308.15" y2="185.17"/><line x1="283.14" y1="362.95" x2="287.02" y2="361.17"/><line x1="135.68" y1="332.64" x2="142.23" y2="332.41"/><line x1="390.97" y1="406.07" x2="385.88" y2="406.71"/><line x1="297.72" y1="194.00" x2="312.18" y2="189.72"/><line x1="300.09" y1="302.44" x2="296.12" y2="290.53"/><line x1="61.66" y1="150.46" x2="62.92" y2="167.87"/><line x1="172.33" y1="318.22" x2="170.74" y2="320.79"/><line x1="96.57" y1="421.83" x2="103.77" y2="427.22"/><line x1="247.49" y1="197.62" x2="260.76" y2="182.25"/><line x1="199.98" y1="358.31" x2="201.87" y2="359.19"/><line x1="286.68" y1="168.61" x2="287.70" y2="172.34"/><line x1="148.53" y1="112.18" x2="153.61" y2="125.04"/><line x1="288.16" y1="449.88" x2="294.97" y2="469.66"/><line x1="189.18" y1="435.86" x2="189.28" y2="409.00"/><line x1="110.01" y1="324.32" x2="115.28" y2="327.21"/><line x1="299.83" y1="346.28" x2="302.75" y2="335.91"/><line x1="454.73" y1="312.19" x2="460.87" y2="324.94"/><line x1="429.33" y1="355.37" x2="429.43" y2="360.09"/><line x1="216.07" y1="381.98" x2="214.93" y2="383.47"/><line x1="277.84" y1="457.28" x2="273.88" y2="475.48"/><line x1="251.05" y1="468.95" x2="248.51" y2="467.99"/><line x1="155.23" y1="267.39" x2="192.72" y2="271.78"/><line x1="175.36" y1="205.95" x2="175.92" y2="218.50"/><line x1="166.17" y1="300.15" x2="168.91" y2="302.44"/><line x1="240.92" y1="142.25" x2="234.47" y2="127.04"/><line x1="158.83" y1="296.24" x2="162.81" y2="298.06"/><line x1="158.16" y1="329.21" x2="162.23" y2="327.47"/><line x1="270.51" y1="460.17" x2="264.02" y2="473.30"/><line x1="284.88" y1="265.64" x2="278.03" y2="252.68"/><line x1="471.27" y1="378.27" x2="428.46" y2="369.33"/><line x1="127.70" y1="435.91" x2="136.57" y2="435.91"/><line x1="132.93" y1="266.50" x2="127.88" y2="288.36"/><line x1="216.87" y1="380.45" x2="235.92" y2="407.13"/><line x1="175.55" y1="149.88" x2="180.20" y2="161.83"/><line x1="243.58" y1="466.07" x2="241.21" y2="465.14"/><line x1="71.03" y1="35.21" x2="69.54" y2="41.07"/><line x1="127.30" y1="60.53" x2="130.42" y2="68.62"/><line x1="72.46" y1="218.53" x2="77.94" y2="233.99"/><line x1="320.00" y1="304.37" x2="316.59" y2="292.20"/><line x1="376.01" y1="406.03" x2="353.73" y2="471.68"/><line x1="282.00" y1="414.21" x2="290.87" y2="358.94"/><line x1="371.27" y1="404.78" x2="366.67" y2="403.00"/><line x1="275.33" y1="365.24" x2="279.24" y2="364.31"/><line x1="261.63" y1="462.36" x2="251.05" y2="468.95"/><line x1="100.28" y1="233.64" x2="84.78" y2="248.28"/><line x1="86.57" y1="432.50" x2="97.62" y2="440.92"/><line x1="397.78" y1="293.22" x2="400.30" y2="295.91"/><line x1="71.48" y1="37.05" x2="70.88" y2="44.56"/><line x1="172.87" y1="241.34" x2="168.90" y2="251.28"/><line x1="71.13" y1="93.40" x2="62.03" y2="100.50"/><line x1="277.10" y1="410.85" x2="283.14" y2="362.95"/><line x1="198.21" y1="299.62" x2="199.77" y2="304.11"/><line x1="282.00" y1="414.21" x2="334.47" y2="369.81"/><line x1="170.74" y1="320.79" x2="168.52" y2="323.21"/><line x1="192.70" y1="252.52" x2="192.44" y2="257.38"/><line x1="277.84" y1="457.28" x2="284.23" y2="475.26"/><line x1="262.95" y1="225.77" x2="255.16" y2="211.85"/><line x1="173.67" y1="312.87" x2="201.52" y2="308.56"/><line x1="421.40" y1="386.26" x2="464.95" y2="416.62"/><line x1="167.67" y1="445.13" x2="178.70" y2="440.82"/><line x1="438.02" y1="288.46" x2="412.18" y2="310.60"/><line x1="158.83" y1="296.24" x2="192.72" y2="271.78"/><line x1="267.36" y1="194.13" x2="247.49" y2="197.62"/><line x1="190.95" y1="197.85" x2="193.11" y2="209.59"/><line x1="70.88" y1="44.56" x2="67.89" y2="49.30"/><line x1="294.67" y1="356.25" x2="327.35" y2="350.39"/><line x1="193.82" y1="281.22" x2="194.63" y2="285.88"/><line x1="335.49" y1="239.07" x2="350.01" y2="224.53"/><line x1="266.56" y1="473.99" x2="264.02" y2="473.30"/><line x1="237.74" y1="355.75" x2="216.50" y2="372.54"/><line x1="303.28" y1="258.70" x2="297.99" y2="248.12"/><line x1="337.74" y1="464.22" x2="362.23" y2="400.73"/><line x1="205.60" y1="317.31" x2="207.94" y2="321.61"/><line x1="154.64" y1="104.84" x2="148.53" y2="112.18"/><line x1="114.51" y1="281.45" x2="132.93" y2="266.50"/><line x1="224.86" y1="344.75" x2="209.05" y2="363.72"/><line x1="412.18" y1="310.60" x2="447.12" y2="299.98"/><line x1="427.40" y1="277.76" x2="438.02" y2="288.46"/><line x1="216.50" y1="372.54" x2="217.09" y2="374.12"/><line x1="61.66" y1="150.46" x2="77.93" y2="158.32"/><line x1="327.35" y1="350.39" x2="299.83" y2="346.28"/><line x1="128.43" y1="56.05" x2="131.54" y2="61.91"/><line x1="282.41" y1="475.63" x2="280.45" y2="475.83"/><line x1="148.53" y1="112.18" x2="160.00" y2="115.49"/><line x1="286.68" y1="168.61" x2="294.24" y2="167.90"/><line x1="207.94" y1="321.61" x2="210.46" y2="325.86"/><line x1="110.01" y1="324.32" x2="111.87" y2="343.71"/><line x1="447.29" y1="449.08" x2="406.48" y2="399.88"/><line x1="299.83" y1="346.28" x2="326.44" y2="345.59"/><line x1="454.73" y1="312.19" x2="423.79" y2="331.60"/><line x1="227.34" y1="153.23" x2="240.92" y2="142.25"/><line x1="63.15" y1="85.50" x2="71.13" y2="93.40"/><line x1="64.73" y1="381.40" x2="70.67" y2="390.89"/><line x1="373.09" y1="241.34" x2="361.29" y2="261.65"/><line x1="277.84" y1="457.28" x2="276.18" y2="475.74"/><line x1="251.05" y1="468.95" x2="251.13" y2="463.76"/><line x1="217.36" y1="378.89" x2="248.44" y2="361.72"/><line x1="89.16" y1="206.32" x2="94.32" y2="220.64"/><line x1="350.06" y1="391.34" x2="319.47" y2="461.71"/><line x1="213.18" y1="330.05" x2="216.09" y2="334.19"/><line x1="240.92" y1="142.25" x2="222.30" y2="137.90"/><line x1="121.82" y1="348.28" x2="131.67" y2="351.77"/><line x1="292.65" y1="184.73" x2="295.00" y2="189.26"/><line x1="154.23" y1="294.71" x2="158.83" y2="296.24"/><line x1="228.68" y1="411.36" x2="233.05" y2="408.56"/><line x1="423.79" y1="331.60" x2="460.87" y2="324.94"/><line x1="407.34" y1="476.29" x2="394.60" y2="479.23"/><line x1="248.44" y1="361.72" x2="252.16" y2="363.18"/><line x1="302.66" y1="313.98" x2="320.00" y2="304.37"/><line x1="269.06" y1="474.59" x2="266.56" y2="473.99"/><line x1="470.47" y1="391.46" x2="468.35" y2="404.29"/><line x1="175.55" y1="149.88" x2="167.39" y2="165.69"/><line x1="216.09" y1="334.19" x2="198.10" y2="357.55"/><line x1="170.92" y1="179.37" x2="173.63" y2="192.85"/><line x1="71.03" y1="35.21" x2="72.26" y2="32.00"/><line x1="131.67" y1="351.77" x2="135.68" y2="332.64"/><line x1="401.50" y1="259.46" x2="415.24" y2="268.05"/><line x1="323.12" y1="226.60" x2="329.04" y2="232.74"/><line x1="320.00" y1="304.37" x2="300.09" y2="302.44"/><line x1="75.45" y1="141.60" x2="61.66" y2="150.46"/><line x1="371.27" y1="404.78" x2="341.80" y2="465.84"/><line x1="86.57" y1="432.50" x2="96.57" y2="421.83"/><line x1="261.63" y1="462.36" x2="253.63" y2="469.90"/><line x1="235.92" y1="407.13" x2="233.05" y2="408.56"/><line x1="198.10" y1="357.55" x2="199.98" y2="358.31"/><line x1="214.93" y1="383.47" x2="201.74" y2="397.41"/><line x1="92.24" y1="330.82" x2="104.72" y2="320.90"/><line x1="405.20" y1="301.53" x2="407.57" y2="304.46"/><line x1="215.24" y1="90.41" x2="216.30" y2="74.12"/><line x1="150.52" y1="356.06" x2="159.25" y2="357.12"/><line x1="316.49" y1="194.35" x2="308.37" y2="209.40"/><line x1="277.84" y1="457.28" x2="285.91" y2="474.70"/><line x1="51.10" y1="270.64" x2="52.72" y2="259.42"/><line x1="235.92" y1="407.13" x2="216.07" y2="381.98"/><line x1="460.29" y1="428.28" x2="454.39" y2="439.15"/><line x1="190.95" y1="197.85" x2="175.36" y2="205.95"/><line x1="163.08" y1="260.02" x2="168.90" y2="251.28"/><line x1="415.24" y1="268.05" x2="392.61" y2="288.01"/><line x1="193.82" y1="281.22" x2="166.17" y2="300.15"/><line x1="159.25" y1="357.12" x2="158.16" y2="329.21"/><line x1="357.16" y1="230.00" x2="364.84" y2="235.59"/><line x1="289.50" y1="422.31" x2="339.91" y2="379.04"/><line x1="303.28" y1="258.70" x2="284.88" y2="265.64"/><line x1="57.87" y1="286.39" x2="65.50" y2="300.16"/><line x1="357.98" y1="397.99" x2="353.92" y2="394.85"/><line x1="120.81" y1="449.98" x2="127.70" y2="435.91"/><line x1="358.24" y1="259.26" x2="373.09" y2="241.34"/><line x1="427.37" y1="373.79" x2="425.84" y2="378.11"/><line x1="224.86" y1="344.75" x2="207.35" y2="362.45"/><line x1="297.45" y1="172.09" x2="300.82" y2="176.37"/><line x1="427.40" y1="277.76" x2="405.20" y2="301.53"/><line x1="207.97" y1="425.13" x2="216.01" y2="419.93"/><line x1="417.09" y1="318.07" x2="419.56" y2="322.47"/><line x1="128.43" y1="56.05" x2="127.30" y2="60.53"/><line x1="193.75" y1="242.71" x2="193.14" y2="247.63"/><line x1="331.42" y1="208.91" x2="337.17" y2="214.00"/><line x1="172.53" y1="307.49" x2="173.41" y2="310.16"/><line x1="65.50" y1="300.16" x2="74.06" y2="291.38"/><line x1="421.80" y1="326.99" x2="423.79" y2="331.60"/><line x1="165.34" y1="126.61" x2="170.57" y2="138.10"/><line x1="349.74" y1="469.66" x2="345.78" y2="467.68"/><line x1="214.93" y1="383.47" x2="233.05" y2="408.56"/><line x1="259.76" y1="365.22" x2="263.62" y2="365.75"/><line x1="280.24" y1="216.44" x2="273.87" y2="205.48"/><line x1="401.39" y1="402.59" x2="396.15" y2="404.71"/><line x1="300.82" y1="176.37" x2="292.65" y2="184.73"/><line x1="155.88" y1="430.89" x2="166.38" y2="425.62"/><line x1="168.52" y1="323.21" x2="186.28" y2="357.15"/><line x1="419.01" y1="471.65" x2="407.34" y2="476.29"/><line x1="76.78" y1="399.80" x2="83.11" y2="408.00"/><line x1="294.97" y1="469.66" x2="287.42" y2="473.94"/><line x1="138.69" y1="88.49" x2="149.38" y2="94.76"/><line x1="288.17" y1="159.73" x2="285.47" y2="161.77"/><line x1="93.08" y1="261.14" x2="102.94" y2="272.28"/><line x1="292.65" y1="184.73" x2="304.37" y2="180.73"/><line x1="391.38" y1="253.27" x2="373.19" y2="271.07"/><line x1="218.46" y1="122.31" x2="216.04" y2="106.48"/><line x1="418.45" y1="390.03" x2="414.99" y2="393.58"/><line x1="192.36" y1="262.21" x2="168.90" y2="251.28"/><line x1="94.19" y1="312.61" x2="99.43" y2="316.98"/><line x1="407.34" y1="476.29" x2="390.97" y2="406.07"/><line x1="385.88" y1="406.71" x2="380.89" y2="406.68"/><line x1="47.66" y1="350.58" x2="53.27" y2="361.12"/><line x1="173.31" y1="315.57" x2="172.33" y2="318.22"/><line x1="373.19" y1="271.07" x2="376.08" y2="273.42"/><line x1="468.85" y1="351.43" x2="428.87" y2="350.61"/><line x1="170.92" y1="179.37" x2="188.00" y2="185.91"/><line x1="193.14" y1="356.48" x2="194.42" y2="356.44"/><line x1="401.50" y1="259.46" x2="387.26" y2="283.01"/><line x1="240.15" y1="183.10" x2="233.36" y2="168.30"/><line x1="301.90" y1="466.39" x2="288.16" y2="449.88"/><line x1="66.19" y1="59.63" x2="64.58" y2="71.79"/><line x1="300.85" y1="198.93" x2="316.49" y2="194.35"/><line x1="296.12" y1="290.53" x2="290.98" y2="278.26"/><line x1="162.81" y1="298.06" x2="193.82" y2="281.22"/><line x1="241.22" y1="357.99" x2="244.79" y2="359.98"/><line x1="92.24" y1="330.82" x2="99.43" y2="316.98"/><line x1="428.87" y1="350.61" x2="429.33" y2="355.37"/><line x1="308.18" y1="269.49" x2="303.28" y2="258.70"/><line x1="153.61" y1="125.04" x2="158.56" y2="138.36"/><line x1="253.63" y1="469.90" x2="251.05" y2="468.95"/><line x1="143.54" y1="268.48" x2="155.23" y2="267.39"/><line x1="316.49" y1="194.35" x2="304.39" y2="204.07"/><line x1="119.30" y1="434.38" x2="120.81" y2="449.98"/><line x1="387.26" y1="283.01" x2="415.24" y2="268.05"/><line x1="124.61" y1="47.81" x2="126.08" y2="51.32"/><line x1="205.57" y1="361.27" x2="224.86" y2="344.75"/><line x1="302.75" y1="335.91" x2="303.62" y2="325.14"/><line x1="376.50" y1="479.50" x2="371.37" y2="478.54"/><line x1="217.36" y1="378.89" x2="216.87" y2="380.45"/><line x1="125.10" y1="53.89" x2="128.43" y2="56.05"/><line x1="66.22" y1="406.44" x2="76.05" y2="421.11"/><line x1="68.20" y1="202.17" x2="89.16" y2="206.32"/><line x1="194.42" y1="356.44" x2="196.23" y2="356.93"/><line x1="415.24" y1="268.05" x2="389.95" y2="285.48"/><line x1="120.50" y1="329.52" x2="125.67" y2="331.23"/><line x1="69.36" y1="285.34" x2="65.50" y2="300.16"/><line x1="175.92" y1="218.50" x2="175.15" y2="230.36"/><line x1="265.32" y1="406.05" x2="271.42" y2="365.79"/><line x1="234.47" y1="127.04" x2="228.18" y2="110.70"/><line x1="289.50" y1="422.31" x2="343.04" y2="383.40"/><line x1="227.90" y1="347.78" x2="231.06" y2="350.63"/><line x1="72.10" y1="108.85" x2="73.52" y2="125.02"/><line x1="163.08" y1="260.02" x2="192.36" y2="262.21"/><line x1="194.62" y1="232.12" x2="193.75" y2="242.71"/><line x1="317.71" y1="220.67" x2="331.42" y2="208.91"/><line x1="45.35" y1="252.75" x2="40.73" y2="232.62"/><line x1="196.83" y1="295.08" x2="172.53" y2="307.49"/><line x1="243.82" y1="405.25" x2="251.39" y2="404.52"/><line x1="427.37" y1="373.79" x2="470.47" y2="391.46"/><line x1="180.99" y1="357.51" x2="168.52" y2="323.21"/><line x1="271.42" y1="365.79" x2="275.33" y2="365.24"/><line x1="286.41" y1="227.11" x2="280.24" y2="216.44"/><line x1="468.35" y1="404.29" x2="464.95" y2="416.62"/><line x1="180.20" y1="161.83" x2="184.38" y2="173.87"/><line x1="193.75" y1="242.71" x2="172.87" y2="241.34"/><line x1="331.42" y1="208.91" x2="323.12" y2="226.60"/><line x1="219.20" y1="338.27" x2="221.96" y2="341.58"/><line x1="156.23" y1="448.49" x2="155.88" y2="430.89"/><line x1="172.53" y1="307.49" x2="198.21" y2="299.62"/><line x1="43.20" y1="239.27" x2="46.04" y2="245.97"/><line x1="141.28" y1="354.32" x2="150.52" y2="356.06"/><line x1="231.06" y1="350.63" x2="213.48" y2="367.92"/><line x1="349.74" y1="469.66" x2="371.27" y2="404.78"/><line x1="332.20" y1="365.00" x2="330.25" y2="360.14"/><line x1="380.89" y1="406.68" x2="357.84" y2="473.67"/><line x1="280.24" y1="216.44" x2="262.95" y2="225.77"/><line x1="139.60" y1="76.64" x2="138.69" y2="88.49"/><line x1="97.62" y1="440.92" x2="111.34" y2="431.44"/><line x1="107.06" y1="245.01" x2="93.08" y2="261.14"/><line x1="314.08" y1="462.49" x2="308.24" y2="464.02"/><line x1="402.77" y1="298.68" x2="405.20" y2="301.53"/><line x1="258.59" y1="404.82" x2="267.51" y2="365.95"/><line x1="155.88" y1="430.89" x2="167.67" y2="445.13"/><line x1="213.48" y1="367.92" x2="214.67" y2="369.43"/><line x1="82.83" y1="322.24" x2="94.19" y2="312.61"/><line x1="142.23" y1="332.41" x2="148.16" y2="331.72"/><line x1="287.02" y1="361.17" x2="290.87" y2="358.94"/><line x1="346.43" y1="387.51" x2="293.84" y2="436.29"/><line x1="294.97" y1="469.66" x2="277.84" y2="457.28"/><line x1="426.94" y1="341.04" x2="428.07" y2="345.82"/><line x1="288.17" y1="159.73" x2="285.25" y2="155.74"/><line x1="138.69" y1="88.49" x2="144.33" y2="85.32"/><line x1="49.10" y1="366.13" x2="47.66" y2="350.58"/><line x1="342.50" y1="245.60" x2="350.07" y2="252.34"/><line x1="93.08" y1="261.14" x2="114.74" y2="254.48"/><line x1="203.47" y1="312.97" x2="173.31" y2="315.57"/><line x1="94.19" y1="312.61" x2="92.24" y2="330.82"/><line x1="418.45" y1="390.03" x2="460.29" y2="428.28"/><line x1="290.87" y1="358.94" x2="294.67" y2="356.25"/><line x1="260.76" y1="182.25" x2="240.15" y2="183.10"/><line x1="70.49" y1="54.24" x2="66.19" y2="59.63"/><line x1="385.88" y1="406.71" x2="382.04" y2="480.00"/><line x1="47.66" y1="350.58" x2="42.10" y2="339.91"/><line x1="60.57" y1="272.65" x2="64.86" y2="279.09"/><line x1="189.28" y1="409.00" x2="198.99" y2="430.53"/><line x1="173.31" y1="315.57" x2="205.60" y2="317.31"/><line x1="217.09" y1="374.12" x2="241.22" y2="357.99"/><line x1="333.54" y1="462.92" x2="357.98" y2="397.99"/><line x1="193.14" y1="356.48" x2="170.74" y2="320.79"/><line x1="240.15" y1="183.10" x2="254.12" y2="169.72"/><line x1="160.00" y1="115.49" x2="153.61" y2="125.04"/><line x1="287.70" y1="172.34" x2="289.02" y2="176.27"/><line x1="66.19" y1="59.63" x2="70.38" y2="65.80"/><line x1="127.88" y1="288.36" x2="143.54" y2="268.48"/><line x1="198.99" y1="430.53" x2="207.97" y2="425.13"/><line x1="162.23" y1="327.47" x2="165.68" y2="325.45"/><line x1="439.01" y1="457.90" x2="429.57" y2="465.47"/><line x1="241.22" y1="357.99" x2="217.44" y2="375.71"/><line x1="326.44" y1="345.59" x2="302.75" y2="335.91"/><line x1="62.03" y1="100.50" x2="61.33" y2="116.50"/><line x1="153.61" y1="125.04" x2="165.34" y2="126.61"/><line x1="70.67" y1="390.89" x2="66.22" y2="406.44"/><line x1="381.92" y1="247.22" x2="367.31" y2="266.38"/><line x1="143.54" y1="268.48" x2="143.17" y2="292.74"/><line x1="73.87" y1="312.07" x2="82.83" y2="322.24"/><line x1="115.28" y1="327.21" x2="120.50" y2="329.52"/><line x1="346.43" y1="387.51" x2="293.16" y2="441.01"/><line x1="302.75" y1="335.91" x2="324.98" y2="330.94"/><line x1="346.43" y1="387.51" x2="291.94" y2="426.84"/><line x1="192.72" y1="271.78" x2="192.45" y2="267.02"/><line x1="66.22" y1="406.44" x2="76.78" y2="399.80"/><line x1="49.10" y1="366.13" x2="57.18" y2="388.21"/><line x1="194.42" y1="356.44" x2="213.18" y2="330.05"/><line x1="391.38" y1="253.27" x2="401.50" y2="259.46"/><line x1="395.21" y1="290.58" x2="397.78" y2="293.22"/><line x1="234.47" y1="127.04" x2="218.46" y2="122.31"/><line x1="295.00" y1="189.26" x2="297.72" y2="194.00"/><line x1="72.10" y1="108.85" x2="61.33" y2="116.50"/><line x1="45.35" y1="252.75" x2="43.20" y2="239.27"/><line x1="400.30" y1="295.91" x2="402.77" y2="298.68"/><line x1="394.60" y1="479.23" x2="388.05" y2="479.94"/><line x1="243.82" y1="405.25" x2="216.87" y2="380.45"/><line x1="316.59" y1="292.20" x2="312.64" y2="280.62"/><line x1="261.43" y1="472.53" x2="258.83" y2="471.71"/><line x1="468.35" y1="404.29" x2="421.40" y2="386.26"/><line x1="77.93" y1="158.32" x2="81.01" y2="174.87"/><line x1="285.25" y1="158.66" x2="288.17" y2="159.73"/><line x1="180.20" y1="161.83" x2="170.92" y2="179.37"/><line x1="378.93" y1="275.78" x2="381.75" y2="278.16"/><line x1="219.20" y1="338.27" x2="203.74" y2="360.18"/><line x1="141.28" y1="354.32" x2="142.23" y2="332.41"/><line x1="464.95" y1="416.62" x2="418.45" y2="390.03"/><line x1="329.04" y1="232.74" x2="335.49" y2="239.07"/><line x1="293.84" y1="436.29" x2="293.41" y2="431.53"/><line x1="123.98" y1="48.86" x2="124.12" y2="45.62"/><line x1="380.89" y1="406.68" x2="362.10" y2="475.53"/><line x1="62.92" y1="167.87" x2="65.06" y2="185.19"/><line x1="67.89" y1="49.30" x2="70.49" y2="54.24"/><line x1="97.62" y1="440.92" x2="103.77" y2="427.22"/><line x1="350.01" y1="224.53" x2="342.50" y2="245.60"/><line x1="470.74" y1="364.88" x2="429.15" y2="364.76"/><line x1="291.16" y1="163.78" x2="294.24" y2="167.90"/><line x1="258.59" y1="404.82" x2="263.62" y2="365.75"/><line x1="142.23" y1="332.41" x2="150.52" y2="356.06"/><line x1="294.97" y1="469.66" x2="283.70" y2="453.82"/><line x1="362.23" y1="400.73" x2="333.54" y2="462.92"/><line x1="251.13" y1="463.76" x2="246.01" y2="467.02"/><line x1="193.11" y1="209.59" x2="194.37" y2="221.05"/><line x1="308.37" y1="209.40" x2="312.80" y2="214.94"/><line x1="194.63" y1="285.88" x2="195.64" y2="290.50"/><line x1="342.50" y1="245.60" x2="357.16" y2="230.00"/><line x1="447.12" y1="299.98" x2="414.40" y2="313.83"/><line x1="167.33" y1="357.63" x2="174.62" y2="357.72"/><line x1="297.99" y1="248.12" x2="292.34" y2="237.64"/><line x1="280.45" y1="475.83" x2="278.36" y2="475.86"/><line x1="294.24" y1="167.90" x2="287.70" y2="172.34"/><line x1="132.66" y1="451.21" x2="144.51" y2="450.61"/></g></svg>