<svg xmlns="http://www.w3.org/2000/svg" width="512" height="512"><rect width="512" height="512" fill="#0a0f1a"/><text x="12" y="20" font-family="monospace" font-size="11" fill="#4a7fa5">FRONT (XZ)</text><g stroke="#00d4ff" stroke-width="0.6" opacity="0.85"><line x1="85.10" y1="208.80" x2="84.65" y2="206.06"/><line x1="153.43" y1="200.50" x2="145.56" y2="190.11"/><line x1="346.00" y1="388.34" x2="364.24" y2="352.12"/><line x1="398.82" y1="337.86" x2="380.56" y2="350.41"/><line x1="226.24" y1="131.26" x2="223.53" y2="135.19"/><line x1="278.38" y1="182.77" x2="284.76" y2="172.30"/><line x1="322.39" y1="373.23" x2="322.22" y2="371.78"/><line x1="263.31" y1="363.98" x2="252.40" y2="279.30"/><line x1="255.54" y1="376.12" x2="257.42" y2="373.09"/><line x1="98.40" y1="159.86" x2="101.93" y2="168.63"/><line x1="284.76" y1="172.30" x2="280.81" y2="183.54"/><line x1="347.84" y1="187.34" x2="346.74" y2="200.49"/><line x1="322.22" y1="371.78" x2="322.21" y2="370.24"/><line x1="283.97" y1="403.18" x2="246.26" y2="394.36"/><line x1="325.22" y1="395.79" x2="324.61" y2="394.80"/><line x1="78.65" y1="379.99" x2="80.97" y2="387.41"/><line x1="340.58" y1="384.90" x2="343.52" y2="386.60"/><line x1="346.74" y1="200.49" x2="351.45" y2="188.49"/><line x1="134.26" y1="62.40" x2="117.35" y2="32.00"/><line x1="91.83" y1="198.06" x2="79.20" y2="182.55"/><line x1="346.00" y1="388.34" x2="360.46" y2="352.16"/><line x1="322.60" y1="353.46" x2="324.26" y2="351.82"/><line x1="225.23" y1="438.20" x2="213.59" y2="442.76"/><line x1="166.61" y1="472.53" x2="175.71" y2="474.95"/><line x1="360.46" y1="352.16" x2="322.58" y2="366.90"/><line x1="299.69" y1="361.14" x2="299.92" y2="357.24"/><line x1="367.92" y1="401.52" x2="368.92" y2="400.51"/><line x1="321.90" y1="446.23" x2="323.82" y2="445.47"/><line x1="359.86" y1="210.54" x2="362.60" y2="209.86"/><line x1="315.08" y1="364.36" x2="315.94" y2="362.38"/><line x1="368.92" y1="400.51" x2="369.87" y2="399.48"/><line x1="415.63" y1="300.27" x2="414.49" y2="301.05"/><line x1="365.34" y1="450.24" x2="375.79" y2="445.01"/><line x1="329.33" y1="463.50" x2="325.72" y2="444.72"/><line x1="405.89" y1="421.94" x2="415.13" y2="412.18"/><line x1="110.03" y1="358.19" x2="158.10" y2="350.22"/><line x1="361.25" y1="407.00" x2="362.42" y2="406.18"/><line x1="414.49" y1="301.05" x2="415.51" y2="300.47"/><line x1="395.28" y1="397.82" x2="402.41" y2="390.42"/><line x1="430.45" y1="243.09" x2="411.21" y2="254.58"/><line x1="70.24" y1="303.52" x2="70.92" y2="301.75"/><line x1="346.00" y1="388.34" x2="381.57" y2="361.91"/><line x1="387.91" y1="299.04" x2="386.81" y2="298.60"/><line x1="70.92" y1="301.75" x2="56.68" y2="297.42"/><line x1="244.31" y1="277.65" x2="255.49" y2="368.86"/><line x1="83.13" y1="234.99" x2="99.72" y2="239.48"/><line x1="83.95" y1="202.41" x2="83.58" y2="200.59"/><line x1="398.51" y1="348.45" x2="385.49" y2="355.51"/><line x1="99.72" y1="239.48" x2="100.15" y2="237.21"/><line x1="371.97" y1="347.24" x2="374.37" y2="347.44"/><line x1="219.30" y1="123.26" x2="220.32" y2="127.24"/><line x1="227.06" y1="429.19" x2="225.56" y2="437.03"/><line x1="280.50" y1="437.50" x2="279.17" y2="439.83"/><line x1="91.83" y1="198.06" x2="83.58" y2="200.59"/><line x1="250.36" y1="385.24" x2="251.99" y2="382.20"/><line x1="270.90" y1="179.67" x2="274.69" y2="181.37"/><line x1="225.23" y1="438.20" x2="109.25" y2="195.84"/><line x1="87.11" y1="288.62" x2="110.71" y2="303.24"/><line x1="262.54" y1="442.74" x2="260.57" y2="441.64"/><line x1="360.46" y1="352.16" x2="327.19" y2="379.56"/><line x1="110.71" y1="303.24" x2="84.92" y2="293.63"/><line x1="337.75" y1="197.43" x2="344.21" y2="186.24"/><line x1="86.89" y1="402.03" x2="110.26" y2="398.60"/><line x1="283.46" y1="408.47" x2="244.33" y2="400.44"/><line x1="184.79" y1="133.33" x2="182.49" y2="159.78"/><line x1="285.34" y1="392.07" x2="251.99" y2="382.20"/><line x1="326.56" y1="398.96" x2="326.20" y2="397.88"/><line x1="149.69" y1="466.05" x2="157.94" y2="469.56"/><line x1="110.26" y1="398.60" x2="90.48" y2="409.17"/><line x1="195.01" y1="463.20" x2="199.94" y2="478.82"/><line x1="170.62" y1="424.05" x2="158.11" y2="423.72"/><line x1="354.86" y1="232.76" x2="319.54" y2="356.86"/><line x1="199.94" y1="478.82" x2="204.80" y2="464.40"/><line x1="363.73" y1="209.64" x2="392.16" y2="210.55"/><line x1="110.62" y1="334.68" x2="152.80" y2="329.11"/><line x1="353.38" y1="398.89" x2="366.89" y2="402.51"/><line x1="363.49" y1="425.23" x2="375.79" y2="445.01"/><line x1="320.00" y1="466.25" x2="319.99" y2="446.99"/><line x1="225.56" y1="437.03" x2="56.18" y2="62.07"/><line x1="342.90" y1="213.24" x2="349.93" y2="212.44"/><line x1="338.54" y1="460.52" x2="333.30" y2="441.69"/><line x1="113.11" y1="379.64" x2="111.59" y2="372.77"/><line x1="152.80" y1="329.11" x2="111.39" y2="326.51"/><line x1="360.46" y1="352.16" x2="323.98" y2="361.37"/><line x1="161.44" y1="363.84" x2="159.80" y2="357.10"/><line x1="416.11" y1="374.09" x2="438.86" y2="378.40"/><line x1="73.66" y1="294.58" x2="58.73" y2="289.03"/><line x1="409.57" y1="271.78" x2="390.36" y2="299.92"/><line x1="55.67" y1="305.51" x2="69.58" y2="305.29"/><line x1="404.85" y1="224.93" x2="393.69" y2="244.23"/><line x1="84.85" y1="228.33" x2="100.83" y2="230.45"/><line x1="380.56" y1="350.41" x2="382.32" y2="351.97"/><line x1="223.53" y1="135.19" x2="225.66" y2="139.13"/><line x1="249.72" y1="373.75" x2="231.99" y2="273.04"/><line x1="81.52" y1="191.54" x2="81.07" y2="189.74"/><line x1="58.47" y1="71.70" x2="77.04" y2="116.77"/><line x1="398.81" y1="341.42" x2="398.71" y2="344.97"/><line x1="248.36" y1="278.63" x2="244.31" y2="277.65"/><line x1="84.65" y1="206.06" x2="84.31" y2="204.23"/><line x1="255.04" y1="437.43" x2="253.41" y2="435.84"/><line x1="228.78" y1="134.94" x2="225.66" y2="139.13"/><line x1="230.18" y1="415.41" x2="228.60" y2="422.00"/><line x1="253.41" y1="435.84" x2="282.41" y2="422.43"/><line x1="287.22" y1="380.80" x2="259.35" y2="370.05"/><line x1="267.98" y1="166.02" x2="272.14" y2="167.88"/><line x1="283.72" y1="184.33" x2="288.96" y2="173.38"/><line x1="283.02" y1="413.50" x2="243.02" y2="409.56"/><line x1="259.35" y1="370.05" x2="261.32" y2="367.01"/><line x1="323.92" y1="393.85" x2="304.30" y2="400.86"/><line x1="80.97" y1="387.41" x2="83.72" y2="394.77"/><line x1="350.87" y1="202.14" x2="355.04" y2="189.71"/><line x1="225.56" y1="437.03" x2="84.48" y2="95.75"/><line x1="151.19" y1="89.29" x2="168.06" y2="112.86"/><line x1="307.39" y1="407.43" x2="323.60" y2="410.85"/><line x1="247.48" y1="391.32" x2="248.85" y2="388.28"/><line x1="299.92" y1="357.24" x2="300.25" y2="353.72"/><line x1="304.30" y1="400.86" x2="321.35" y2="390.43"/><line x1="175.71" y1="474.95" x2="183.52" y2="476.55"/><line x1="353.75" y1="402.16" x2="353.65" y2="400.55"/><line x1="109.88" y1="350.54" x2="110.10" y2="342.70"/><line x1="381.57" y1="361.91" x2="380.54" y2="359.93"/><line x1="352.14" y1="395.43" x2="370.77" y2="398.45"/><line x1="164.49" y1="376.79" x2="163.01" y2="370.42"/><line x1="415.13" y1="412.18" x2="423.78" y2="401.59"/><line x1="156.36" y1="343.24" x2="154.59" y2="336.19"/><line x1="436.81" y1="336.78" x2="454.19" y2="340.39"/><line x1="56.68" y1="297.42" x2="72.29" y2="298.19"/><line x1="415.93" y1="299.70" x2="416.34" y2="298.76"/><line x1="402.41" y1="390.42" x2="409.41" y2="382.50"/><line x1="55.99" y1="312.90" x2="55.64" y2="309.32"/><line x1="307.39" y1="407.43" x2="305.74" y2="404.38"/><line x1="368.57" y1="234.64" x2="365.10" y2="233.79"/><line x1="100.15" y1="237.21" x2="100.48" y2="234.95"/><line x1="412.29" y1="275.74" x2="393.08" y2="300.74"/><line x1="401.85" y1="263.19" x2="396.69" y2="258.58"/><line x1="76.22" y1="287.10" x2="67.89" y2="265.65"/><line x1="406.98" y1="251.72" x2="402.61" y2="249.04"/><line x1="362.30" y1="352.08" x2="360.46" y2="352.16"/><line x1="83.80" y1="232.79" x2="84.37" y2="230.57"/><line x1="219.52" y1="266.10" x2="242.24" y2="383.54"/><line x1="398.24" y1="351.86" x2="386.90" y2="357.36"/><line x1="327.19" y1="379.56" x2="325.88" y2="378.82"/><line x1="240.22" y1="276.39" x2="236.12" y2="274.85"/><line x1="237.70" y1="145.20" x2="233.80" y2="150.59"/><line x1="90.14" y1="105.40" x2="84.48" y2="95.75"/><line x1="260.57" y1="441.64" x2="258.64" y2="440.36"/><line x1="220.32" y1="127.24" x2="221.74" y2="131.22"/><line x1="222.04" y1="441.74" x2="220.87" y2="442.29"/><line x1="84.92" y1="293.63" x2="82.84" y2="298.68"/><line x1="225.56" y1="437.03" x2="153.43" y2="200.50"/><line x1="294.81" y1="186.93" x2="300.08" y2="175.89"/><line x1="282.02" y1="429.36" x2="256.80" y2="438.95"/><line x1="58.47" y1="71.70" x2="90.31" y2="142.58"/><line x1="329.54" y1="347.01" x2="363.65" y2="349.93"/><line x1="300.08" y1="175.89" x2="299.12" y2="187.88"/><line x1="365.74" y1="193.85" x2="361.15" y2="207.62"/><line x1="253.72" y1="379.17" x2="255.54" y2="376.12"/><line x1="280.56" y1="171.01" x2="284.76" y2="172.30"/><line x1="76.22" y1="287.10" x2="98.53" y2="244.01"/><line x1="299.26" y1="348.84" x2="296.93" y2="352.08"/><line x1="361.15" y1="207.62" x2="366.94" y2="194.39"/><line x1="201.29" y1="150.91" x2="198.78" y2="177.84"/><line x1="152.46" y1="449.35" x2="149.69" y2="466.05"/><line x1="98.99" y1="367.81" x2="100.74" y2="375.01"/><line x1="342.36" y1="198.92" x2="346.74" y2="200.49"/><line x1="94.50" y1="416.14" x2="115.02" y2="407.20"/><line x1="126.98" y1="63.08" x2="138.67" y2="91.24"/><line x1="208.49" y1="479.50" x2="217.25" y2="479.90"/><line x1="313.44" y1="266.59" x2="359.86" y2="210.54"/><line x1="198.78" y1="177.84" x2="217.46" y2="165.80"/><line x1="310.60" y1="468.76" x2="314.24" y2="449.32"/><line x1="163.01" y1="370.42" x2="113.11" y2="379.64"/><line x1="171.32" y1="419.58" x2="171.32" y2="416.53"/><line x1="307.39" y1="407.43" x2="325.66" y2="408.38"/><line x1="366.89" y1="402.51" x2="367.92" y2="401.52"/><line x1="368.80" y1="421.20" x2="386.10" y2="438.48"/><line x1="55.64" y1="309.32" x2="68.32" y2="308.84"/><line x1="159.80" y1="357.10" x2="158.10" y2="350.22"/><line x1="422.37" y1="365.28" x2="428.02" y2="356.08"/><line x1="112.36" y1="318.23" x2="113.49" y2="309.86"/><line x1="352.88" y1="397.18" x2="368.92" y2="400.51"/><line x1="447.27" y1="264.69" x2="428.91" y2="271.35"/><line x1="417.47" y1="293.84" x2="409.54" y2="302.45"/><line x1="74.32" y1="292.76" x2="74.98" y2="290.90"/><line x1="116.00" y1="292.98" x2="98.46" y2="263.36"/><line x1="366.62" y1="348.42" x2="369.39" y2="347.54"/><line x1="247.82" y1="375.78" x2="245.95" y2="378.07"/><line x1="100.85" y1="228.20" x2="85.24" y2="226.06"/><line x1="389.10" y1="299.48" x2="387.91" y2="299.04"/><line x1="397.03" y1="361.43" x2="391.69" y2="363.74"/><line x1="225.66" y1="139.13" x2="228.11" y2="143.02"/><line x1="386.81" y1="298.60" x2="388.75" y2="300.58"/><line x1="80.62" y1="187.94" x2="80.15" y2="186.14"/><line x1="398.71" y1="344.97" x2="398.51" y2="348.45"/><line x1="231.56" y1="138.49" x2="234.54" y2="141.91"/><line x1="76.22" y1="287.10" x2="72.24" y2="257.25"/><line x1="211.98" y1="442.35" x2="210.36" y2="441.75"/><line x1="288.96" y1="173.38" x2="292.67" y2="174.24"/><line x1="282.41" y1="422.43" x2="251.91" y2="434.20"/><line x1="220.08" y1="119.52" x2="221.87" y2="123.54"/><line x1="91.83" y1="198.06" x2="79.68" y2="184.35"/><line x1="177.78" y1="229.50" x2="169.56" y2="220.27"/><line x1="287.05" y1="185.16" x2="290.77" y2="186.03"/><line x1="281.88" y1="431.88" x2="268.56" y2="444.71"/><line x1="284.60" y1="397.68" x2="285.34" y2="392.07"/><line x1="225.23" y1="438.20" x2="215.17" y2="443.00"/><line x1="358.62" y1="191.01" x2="362.19" y2="192.39"/><line x1="326.82" y1="405.45" x2="327.00" y2="404.41"/><line x1="288.39" y1="375.29" x2="263.31" y2="363.98"/><line x1="168.06" y1="112.86" x2="184.79" y2="133.33"/><line x1="315.08" y1="364.36" x2="299.92" y2="357.24"/><line x1="303.07" y1="396.97" x2="319.20" y2="387.18"/><line x1="329.33" y1="463.50" x2="323.82" y2="445.47"/><line x1="167.52" y1="426.12" x2="170.62" y2="424.05"/><line x1="361.25" y1="407.00" x2="353.75" y2="402.16"/><line x1="300.25" y1="353.72" x2="300.69" y2="350.66"/><line x1="395.28" y1="397.82" x2="415.13" y2="412.18"/><line x1="110.10" y1="342.70" x2="110.62" y2="334.68"/><line x1="379.25" y1="358.21" x2="377.76" y2="356.74"/><line x1="152.80" y1="329.11" x2="104.52" y2="247.19"/><line x1="363.73" y1="209.64" x2="311.99" y2="269.70"/><line x1="413.37" y1="301.54" x2="412.17" y2="301.93"/><line x1="415.28" y1="257.61" x2="411.21" y2="254.58"/><line x1="154.59" y1="336.19" x2="152.80" y2="329.11"/><line x1="439.63" y1="326.77" x2="456.90" y2="327.34"/><line x1="72.29" y1="298.19" x2="72.97" y2="296.39"/><line x1="399.05" y1="302.04" x2="397.52" y2="301.77"/><line x1="257.44" y1="367.52" x2="255.49" y2="368.86"/><line x1="57.59" y1="293.24" x2="73.66" y2="294.58"/><line x1="361.94" y1="233.18" x2="359.15" y2="232.80"/><line x1="100.48" y1="234.95" x2="100.70" y2="232.70"/><line x1="100.01" y1="219.32" x2="85.81" y2="219.02"/><line x1="227.06" y1="429.19" x2="169.56" y2="220.27"/><line x1="236.12" y1="274.85" x2="231.99" y2="273.04"/><line x1="84.37" y1="230.57" x2="84.85" y2="228.33"/><line x1="77.22" y1="175.38" x2="76.72" y2="173.59"/><line x1="225.23" y1="438.20" x2="107.45" y2="186.58"/><line x1="169.56" y1="220.27" x2="225.56" y2="437.03"/><line x1="324.79" y1="377.95" x2="323.90" y2="376.95"/><line x1="241.04" y1="148.34" x2="237.00" y2="154.23"/><line x1="323.90" y1="376.95" x2="323.22" y2="375.82"/><line x1="263.31" y1="363.98" x2="261.34" y2="365.12"/><line x1="256.80" y1="438.95" x2="255.04" y2="437.43"/><line x1="106.23" y1="241.48" x2="104.52" y2="247.19"/><line x1="97.87" y1="360.91" x2="98.99" y2="367.81"/><line x1="284.76" y1="172.30" x2="288.96" y2="173.38"/><line x1="105.82" y1="313.68" x2="79.09" y2="309.04"/><line x1="283.97" y1="403.18" x2="284.60" y2="397.68"/><line x1="402.97" y1="221.47" x2="404.05" y2="223.22"/><line x1="98.93" y1="422.91" x2="103.80" y2="429.46"/><line x1="134.26" y1="62.40" x2="151.19" y2="89.29"/><line x1="91.83" y1="198.06" x2="78.22" y2="178.96"/><line x1="368.37" y1="195.10" x2="370.02" y2="195.96"/><line x1="320.00" y1="466.25" x2="318.08" y2="447.75"/><line x1="342.90" y1="213.24" x2="313.44" y2="266.59"/><line x1="225.23" y1="438.20" x2="210.36" y2="441.75"/><line x1="360.46" y1="352.16" x2="323.42" y2="363.27"/><line x1="215.29" y1="193.76" x2="233.23" y2="178.22"/><line x1="365.81" y1="403.48" x2="366.89" y2="402.51"/><line x1="161.44" y1="363.84" x2="111.59" y2="372.77"/><line x1="338.91" y1="439.33" x2="340.76" y2="438.52"/><line x1="171.08" y1="412.97" x2="149.71" y2="420.75"/><line x1="366.25" y1="352.28" x2="364.24" y2="352.12"/><line x1="415.63" y1="300.27" x2="415.93" y2="299.70"/><line x1="55.67" y1="305.51" x2="68.94" y2="307.06"/><line x1="60.04" y1="284.83" x2="76.22" y2="287.10"/><line x1="391.69" y1="300.33" x2="390.36" y2="299.92"/><line x1="414.49" y1="301.05" x2="416.34" y2="298.76"/><line x1="408.14" y1="302.59" x2="417.55" y2="291.55"/><line x1="81.53" y1="239.37" x2="82.37" y2="237.18"/><line x1="430.45" y1="243.09" x2="418.81" y2="233.52"/><line x1="100.79" y1="225.97" x2="100.62" y2="223.74"/><line x1="346.00" y1="388.34" x2="379.25" y2="358.21"/><line x1="398.81" y1="341.42" x2="382.32" y2="351.97"/><line x1="248.36" y1="278.63" x2="259.39" y2="366.29"/><line x1="388.75" y1="300.58" x2="390.49" y2="302.82"/><line x1="83.13" y1="234.99" x2="83.80" y2="232.79"/><line x1="104.98" y1="177.52" x2="107.45" y2="186.58"/><line x1="230.18" y1="415.41" x2="177.78" y2="229.50"/><line x1="247.63" y1="164.39" x2="255.83" y2="159.43"/><line x1="107.45" y1="186.58" x2="109.25" y2="195.84"/><line x1="267.98" y1="166.02" x2="267.03" y2="177.71"/><line x1="93.96" y1="273.60" x2="91.66" y2="278.62"/><line x1="234.54" y1="141.91" x2="237.70" y2="145.20"/><line x1="270.53" y1="444.82" x2="268.56" y2="444.71"/><line x1="91.83" y1="198.06" x2="82.80" y2="196.96"/><line x1="91.66" y1="278.62" x2="89.36" y2="283.62"/><line x1="225.23" y1="438.20" x2="224.69" y2="439.27"/><line x1="290.77" y1="186.03" x2="294.81" y2="186.93"/><line x1="247.48" y1="391.32" x2="284.60" y2="397.68"/><line x1="360.46" y1="352.16" x2="324.79" y2="377.95"/><line x1="103.17" y1="382.52" x2="83.72" y2="394.77"/><line x1="362.19" y1="192.39" x2="365.74" y2="193.85"/><line x1="285.34" y1="392.07" x2="286.21" y2="386.42"/><line x1="302.05" y1="392.76" x2="301.22" y2="388.32"/><line x1="186.02" y1="461.56" x2="183.52" y2="476.55"/><line x1="354.86" y1="232.76" x2="322.60" y2="353.46"/><line x1="325.72" y1="444.72" x2="327.62" y2="443.97"/><line x1="156.36" y1="343.24" x2="110.10" y2="342.70"/><line x1="363.73" y1="209.64" x2="396.40" y2="214.19"/><line x1="373.11" y1="395.33" x2="373.75" y2="394.30"/><line x1="320.00" y1="466.25" x2="329.33" y2="463.50"/><line x1="402.41" y1="390.42" x2="423.78" y2="401.59"/><line x1="307.39" y1="407.43" x2="326.56" y2="398.96"/><line x1="338.54" y1="460.52" x2="337.05" y2="440.13"/><line x1="71.59" y1="299.97" x2="72.29" y2="298.19"/><line x1="152.80" y1="329.11" x2="113.49" y2="309.86"/><line x1="65.43" y1="319.98" x2="65.79" y2="318.05"/><line x1="406.98" y1="251.72" x2="418.81" y2="233.52"/><line x1="83.80" y1="232.79" x2="100.48" y2="234.95"/><line x1="67.89" y1="265.65" x2="69.45" y2="262.49"/><line x1="409.57" y1="271.78" x2="406.12" y2="267.60"/><line x1="418.81" y1="233.52" x2="402.61" y2="249.04"/><line x1="240.22" y1="276.39" x2="253.56" y2="370.32"/><line x1="404.85" y1="224.93" x2="384.81" y2="240.21"/><line x1="83.19" y1="198.77" x2="82.80" y2="196.96"/><line x1="84.85" y1="228.33" x2="85.24" y2="226.06"/><line x1="398.74" y1="334.28" x2="398.82" y2="337.86"/><line x1="253.56" y1="370.32" x2="236.12" y2="274.85"/><line x1="225.56" y1="437.03" x2="161.44" y2="210.57"/><line x1="82.80" y1="196.96" x2="82.38" y2="195.16"/><line x1="282.02" y1="429.36" x2="258.64" y2="440.36"/><line x1="94.50" y1="151.19" x2="98.40" y2="159.86"/><line x1="223.92" y1="127.46" x2="221.74" y2="131.22"/><line x1="58.47" y1="71.70" x2="85.94" y2="134.00"/><line x1="329.54" y1="347.01" x2="365.61" y2="238.25"/><line x1="161.44" y1="210.57" x2="153.43" y2="200.50"/><line x1="240.39" y1="157.76" x2="243.95" y2="161.15"/><line x1="258.64" y1="440.36" x2="256.80" y2="438.95"/><line x1="253.72" y1="379.17" x2="286.21" y2="386.42"/><line x1="280.56" y1="171.01" x2="278.38" y2="182.77"/><line x1="76.22" y1="287.10" x2="82.37" y2="237.18"/><line x1="322.72" y1="374.59" x2="322.39" y2="373.23"/><line x1="307.49" y1="177.47" x2="311.20" y2="178.27"/><line x1="286.21" y1="386.42" x2="255.54" y2="376.12"/><line x1="287.22" y1="380.80" x2="288.39" y2="375.29"/><line x1="98.99" y1="367.81" x2="78.65" y2="379.99"/><line x1="342.36" y1="198.92" x2="347.84" y2="187.34"/><line x1="126.98" y1="63.08" x2="117.35" y2="32.00"/><line x1="208.49" y1="479.50" x2="215.41" y2="465.09"/><line x1="79.09" y1="309.04" x2="77.49" y2="314.39"/><line x1="363.73" y1="209.64" x2="373.85" y2="198.10"/><line x1="325.75" y1="396.82" x2="325.22" y2="395.79"/><line x1="157.94" y1="469.56" x2="166.61" y2="472.53"/><line x1="350.87" y1="202.14" x2="354.67" y2="203.88"/><line x1="335.18" y1="440.92" x2="337.05" y2="440.13"/><line x1="225.56" y1="437.03" x2="74.25" y2="77.95"/><line x1="307.39" y1="407.43" x2="325.08" y2="409.27"/><line x1="231.67" y1="207.71" x2="247.54" y2="219.82"/><line x1="321.02" y1="355.14" x2="322.60" y2="353.46"/><line x1="422.37" y1="365.28" x2="445.05" y2="366.03"/><line x1="354.86" y1="232.76" x2="356.78" y2="232.66"/><line x1="352.88" y1="397.18" x2="367.92" y2="401.52"/><line x1="116.00" y1="292.98" x2="100.61" y2="258.11"/><line x1="352.14" y1="395.43" x2="372.39" y2="396.37"/><line x1="388.20" y1="404.65" x2="395.28" y2="397.82"/><line x1="384.81" y1="240.21" x2="380.49" y2="238.50"/><line x1="389.10" y1="299.48" x2="406.12" y2="267.60"/><line x1="419.12" y1="260.81" x2="415.28" y2="257.61"/><line x1="99.17" y1="241.74" x2="99.72" y2="239.48"/><line x1="227.85" y1="270.98" x2="245.95" y2="378.07"/><line x1="374.37" y1="347.44" x2="376.59" y2="348.08"/><line x1="406.12" y1="267.60" x2="387.91" y2="299.04"/><line x1="398.71" y1="344.97" x2="383.96" y2="353.69"/><line x1="259.39" y1="366.29" x2="257.44" y2="367.52"/><line x1="231.56" y1="138.49" x2="228.11" y2="143.02"/><line x1="76.22" y1="287.10" x2="70.91" y2="259.68"/><line x1="93.00" y1="200.11" x2="91.83" y2="198.06"/><line x1="115.88" y1="147.10" x2="109.02" y2="136.36"/><line x1="383.96" y1="353.69" x2="398.51" y2="348.45"/><line x1="220.08" y1="119.52" x2="219.30" y2="123.26"/><line x1="228.11" y1="143.02" x2="234.54" y2="141.91"/><line x1="177.78" y1="229.50" x2="227.06" y2="429.19"/><line x1="287.05" y1="185.16" x2="292.67" y2="174.24"/><line x1="109.02" y1="136.36" x2="102.43" y2="125.78"/><line x1="322.95" y1="365.12" x2="323.42" y2="363.27"/><line x1="281.88" y1="431.88" x2="270.53" y2="444.82"/><line x1="223.97" y1="440.22" x2="224.69" y2="439.27"/><line x1="292.67" y1="174.24" x2="290.77" y2="186.03"/><line x1="358.62" y1="191.01" x2="354.67" y2="203.88"/><line x1="225.56" y1="437.03" x2="137.85" y2="179.51"/><line x1="323.42" y1="363.27" x2="323.98" y2="361.37"/><line x1="113.34" y1="298.10" x2="87.11" y2="288.62"/><line x1="247.71" y1="427.82" x2="246.14" y2="424.78"/><line x1="58.47" y1="71.70" x2="225.23" y2="438.20"/><line x1="354.67" y1="203.88" x2="362.19" y2="192.39"/><line x1="301.83" y1="346.24" x2="299.26" y2="348.84"/><line x1="311.42" y1="411.83" x2="319.37" y2="413.05"/><line x1="106.33" y1="390.38" x2="86.89" y2="402.03"/><line x1="166.80" y1="139.44" x2="184.79" y2="133.33"/><line x1="300.25" y1="353.72" x2="354.86" y2="232.76"/><line x1="371.61" y1="397.41" x2="372.39" y2="396.37"/><line x1="301.22" y1="388.32" x2="300.57" y2="383.73"/><line x1="191.61" y1="477.83" x2="195.01" y2="463.20"/><line x1="313.44" y1="266.59" x2="311.99" y2="269.70"/><line x1="353.65" y1="400.55" x2="353.38" y2="398.89"/><line x1="413.37" y1="301.54" x2="416.79" y2="297.46"/><line x1="409.41" y1="382.50" x2="416.11" y2="374.09"/><line x1="154.59" y1="336.19" x2="110.62" y2="334.68"/><line x1="364.70" y1="404.42" x2="365.81" y2="403.48"/><line x1="311.99" y1="269.70" x2="294.82" y2="355.89"/><line x1="57.59" y1="293.24" x2="72.97" y2="296.39"/><line x1="383.39" y1="248.76" x2="375.10" y2="243.59"/><line x1="447.27" y1="264.69" x2="439.90" y2="253.53"/><line x1="431.73" y1="390.29" x2="416.11" y2="374.09"/><line x1="398.17" y1="246.55" x2="393.69" y2="244.23"/><line x1="72.97" y1="296.39" x2="73.66" y2="294.58"/><line x1="236.12" y1="274.85" x2="249.72" y2="373.75"/><line x1="84.37" y1="230.57" x2="100.70" y2="232.70"/><line x1="393.08" y1="300.74" x2="391.69" y2="300.33"/><line x1="116.00" y1="292.98" x2="93.96" y2="273.60"/><line x1="388.21" y1="359.18" x2="397.49" y2="358.37"/><line x1="100.70" y1="232.70" x2="84.85" y2="228.33"/><line x1="82.38" y1="195.16" x2="81.96" y2="193.35"/><line x1="398.82" y1="337.86" x2="398.81" y2="341.42"/><line x1="226.24" y1="131.26" x2="228.78" y2="134.94"/><line x1="218.18" y1="442.95" x2="216.71" y2="443.06"/><line x1="397.03" y1="361.43" x2="393.71" y2="365.37"/><line x1="81.96" y1="193.35" x2="81.52" y2="191.54"/><line x1="256.80" y1="438.95" x2="282.18" y2="426.18"/><line x1="216.71" y1="443.06" x2="215.17" y2="443.00"/><line x1="284.76" y1="172.30" x2="283.72" y2="184.33"/><line x1="105.82" y1="313.68" x2="80.89" y2="303.82"/><line x1="76.22" y1="287.10" x2="74.78" y2="252.88"/><line x1="282.18" y1="426.18" x2="255.04" y2="437.43"/><line x1="282.41" y1="422.43" x2="249.41" y2="430.91"/><line x1="80.89" y1="303.82" x2="79.09" y2="309.04"/><line x1="346.74" y1="200.49" x2="350.87" y2="202.14"/><line x1="98.93" y1="422.91" x2="120.66" y2="416.23"/><line x1="91.83" y1="198.06" x2="78.71" y2="180.75"/><line x1="329.54" y1="347.01" x2="360.46" y2="352.16"/><line x1="311.20" y1="178.27" x2="314.89" y2="179.06"/><line x1="257.42" y1="373.09" x2="287.22" y2="380.80"/><line x1="281.88" y1="431.88" x2="264.54" y2="443.64"/><line x1="225.23" y1="438.20" x2="211.98" y2="442.35"/><line x1="120.66" y1="416.23" x2="103.80" y2="429.46"/><line x1="217.25" y1="479.90" x2="226.17" y2="480.00"/><line x1="324.61" y1="394.80" x2="323.92" y2="393.85"/><line x1="100.74" y1="375.01" x2="103.17" y2="382.52"/><line x1="226.17" y1="480.00" x2="226.87" y2="465.19"/><line x1="338.91" y1="439.33" x2="347.64" y2="457.31"/><line x1="114.73" y1="301.43" x2="116.00" y2="292.98"/><line x1="324.26" y1="351.82" x2="325.99" y2="350.20"/><line x1="177.82" y1="459.55" x2="186.02" y2="461.56"/><line x1="329.33" y1="463.50" x2="327.62" y2="443.97"/><line x1="347.64" y1="457.31" x2="340.76" y2="438.52"/><line x1="110.03" y1="358.19" x2="109.88" y2="350.54"/><line x1="414.49" y1="301.05" x2="415.93" y2="299.70"/><line x1="158.10" y1="350.22" x2="156.36" y2="343.24"/><line x1="432.89" y1="346.57" x2="450.21" y2="353.33"/><line x1="369.87" y1="399.48" x2="352.14" y2="395.43"/><line x1="346.00" y1="388.34" x2="380.54" y2="359.93"/><line x1="70.92" y1="301.75" x2="71.59" y2="299.97"/><line x1="376.32" y1="237.00" x2="372.33" y2="235.70"/><line x1="85.53" y1="223.76" x2="100.62" y2="223.74"/><line x1="386.81" y1="298.60" x2="396.69" y2="258.58"/><line x1="398.51" y1="348.45" x2="398.24" y2="351.86"/><line x1="223.69" y1="268.66" x2="244.08" y2="380.64"/><line x1="79.20" y1="182.55" x2="78.71" y2="180.75"/><line x1="385.49" y1="355.51" x2="386.90" y2="357.36"/><line x1="234.54" y1="141.91" x2="230.83" y2="146.85"/><line x1="91.83" y1="198.06" x2="83.19" y2="198.77"/><line x1="102.43" y1="125.78" x2="96.13" y2="115.43"/><line x1="249.41" y1="430.91" x2="248.45" y2="429.32"/><line x1="230.83" y1="146.85" x2="237.70" y2="145.20"/><line x1="225.23" y1="438.20" x2="223.97" y2="440.22"/><line x1="290.77" y1="186.03" x2="296.38" y2="175.07"/><line x1="96.13" y1="115.43" x2="90.14" y2="105.40"/><line x1="360.46" y1="352.16" x2="325.88" y2="378.82"/><line x1="323.98" y1="361.37" x2="324.63" y2="359.40"/><line x1="248.45" y1="429.32" x2="247.71" y2="427.82"/><line x1="110.71" y1="303.24" x2="108.20" y2="308.43"/><line x1="296.38" y1="175.07" x2="294.81" y2="186.93"/><line x1="362.19" y1="192.39" x2="358.12" y2="205.71"/><line x1="283.46" y1="408.47" x2="283.97" y2="403.18"/><line x1="324.63" y1="359.40" x2="325.34" y2="357.41"/><line x1="285.34" y1="392.07" x2="253.72" y2="379.17"/><line x1="316.45" y1="413.46" x2="311.42" y2="411.83"/><line x1="302.05" y1="392.76" x2="317.45" y2="384.10"/><line x1="110.26" y1="398.60" x2="94.50" y2="416.14"/><line x1="358.12" y1="205.71" x2="365.74" y2="193.85"/><line x1="354.86" y1="232.76" x2="321.02" y2="355.14"/><line x1="317.45" y1="384.10" x2="301.22" y2="388.32"/><line x1="199.94" y1="478.82" x2="208.49" y2="479.50"/><line x1="182.49" y1="159.78" x2="201.29" y2="150.91"/><line x1="363.73" y1="209.64" x2="394.34" y2="212.36"/><line x1="91.83" y1="198.06" x2="77.22" y2="175.38"/><line x1="346.00" y1="388.34" x2="343.52" y2="386.60"/><line x1="305.74" y1="404.38" x2="325.75" y2="396.82"/><line x1="353.11" y1="411.11" x2="352.16" y2="410.72"/><line x1="373.11" y1="395.33" x2="351.11" y2="393.67"/><line x1="320.00" y1="466.25" x2="321.90" y2="446.23"/><line x1="204.80" y1="464.40" x2="215.41" y2="465.09"/><line x1="225.23" y1="438.20" x2="207.15" y2="439.99"/><line x1="338.54" y1="460.52" x2="335.18" y2="440.92"/><line x1="158.11" y1="423.72" x2="171.10" y2="422.10"/><line x1="152.80" y1="329.11" x2="112.36" y2="318.23"/><line x1="360.46" y1="352.16" x2="324.63" y2="359.40"/><line x1="351.11" y1="393.67" x2="373.75" y2="394.30"/><line x1="416.11" y1="374.09" x2="422.37" y2="365.28"/><line x1="73.66" y1="294.58" x2="74.32" y2="292.76"/><line x1="417.19" y1="295.82" x2="410.89" y2="302.23"/><line x1="438.86" y1="378.40" x2="445.05" y2="366.03"/><line x1="55.67" y1="305.51" x2="56.02" y2="301.52"/><line x1="111.39" y1="326.51" x2="112.36" y2="318.23"/><line x1="404.85" y1="224.93" x2="389.23" y2="242.12"/><line x1="84.85" y1="228.33" x2="100.85" y2="228.20"/><line x1="152.80" y1="329.11" x2="225.23" y2="438.20"/><line x1="58.73" y1="289.03" x2="74.32" y2="292.76"/><line x1="249.72" y1="373.75" x2="247.82" y2="375.78"/><line x1="238.65" y1="390.41" x2="206.97" y2="257.10"/><line x1="363.73" y1="209.64" x2="356.78" y2="232.66"/><line x1="346.00" y1="388.34" x2="376.08" y2="355.50"/><line x1="389.44" y1="360.89" x2="390.60" y2="362.44"/><line x1="231.99" y1="273.04" x2="227.85" y2="270.98"/><line x1="240.39" y1="157.76" x2="248.19" y2="154.20"/><line x1="65.61" y1="62.63" x2="61.94" y2="56.09"/><line x1="263.31" y1="363.98" x2="306.72" y2="272.39"/><line x1="228.78" y1="134.94" x2="231.56" y2="138.49"/><line x1="215.17" y1="443.00" x2="213.59" y2="442.76"/><line x1="307.49" y1="177.47" x2="308.39" y2="189.91"/><line x1="253.41" y1="435.84" x2="251.91" y2="434.20"/><line x1="213.59" y1="442.76" x2="211.98" y2="442.35"/><line x1="283.72" y1="184.33" x2="287.05" y2="185.16"/><line x1="79.09" y1="309.04" x2="103.64" y2="319.02"/><line x1="363.73" y1="209.64" x2="371.85" y2="196.96"/><line x1="103.64" y1="319.02" x2="77.49" y2="314.39"/><line x1="350.87" y1="202.14" x2="358.62" y2="191.01"/><line x1="225.56" y1="437.03" x2="79.18" y2="86.58"/><line x1="103.80" y1="429.46" x2="109.09" y2="435.74"/><line x1="371.85" y1="196.96" x2="373.85" y2="198.10"/><line x1="231.67" y1="207.71" x2="248.52" y2="188.38"/><line x1="360.46" y1="352.16" x2="323.22" y2="375.82"/><line x1="304.30" y1="400.86" x2="303.07" y2="396.97"/><line x1="109.09" y1="435.74" x2="127.21" y2="425.67"/><line x1="248.52" y1="188.38" x2="247.54" y2="219.82"/><line x1="170.64" y1="408.95" x2="170.02" y2="404.48"/><line x1="321.35" y1="390.43" x2="319.20" y2="387.18"/><line x1="319.99" y1="446.99" x2="321.90" y2="446.23"/><line x1="186.02" y1="461.56" x2="195.01" y2="463.20"/><line x1="152.07" y1="116.64" x2="166.80" y2="139.44"/><line x1="235.26" y1="479.82" x2="239.17" y2="464.63"/><line x1="170.02" y1="404.48" x2="142.29" y2="417.22"/><line x1="354.86" y1="232.76" x2="325.99" y2="350.20"/><line x1="352.14" y1="395.43" x2="371.61" y2="397.41"/><line x1="388.20" y1="404.65" x2="405.89" y2="421.94"/><line x1="169.87" y1="425.39" x2="168.85" y2="426.09"/><line x1="342.60" y1="437.68" x2="344.43" y2="436.83"/><line x1="436.81" y1="336.78" x2="439.63" y2="326.77"/><line x1="363.73" y1="209.64" x2="400.08" y2="217.86"/><line x1="61.92" y1="324.18" x2="64.73" y2="326.00"/><line x1="152.80" y1="329.11" x2="116.00" y2="292.98"/><line x1="61.49" y1="280.69" x2="63.04" y2="276.65"/><line x1="412.29" y1="275.74" x2="409.57" y2="271.78"/><line x1="416.34" y1="298.76" x2="416.79" y2="297.46"/><line x1="219.52" y1="266.10" x2="215.34" y2="263.32"/><line x1="100.36" y1="221.52" x2="85.72" y2="221.42"/><line x1="398.24" y1="351.86" x2="397.90" y2="355.17"/><line x1="418.81" y1="233.52" x2="404.85" y2="224.93"/><line x1="395.61" y1="365.23" x2="396.53" y2="364.33"/><line x1="237.70" y1="145.20" x2="241.04" y2="148.34"/><line x1="404.85" y1="224.93" x2="376.32" y2="237.00"/><line x1="78.22" y1="178.96" x2="77.72" y2="177.17"/><line x1="386.90" y1="357.36" x2="388.21" y2="359.18"/><line x1="233.80" y1="150.59" x2="237.00" y2="154.23"/><line x1="204.12" y1="437.40" x2="202.70" y2="435.79"/><line x1="294.81" y1="186.93" x2="299.12" y2="187.88"/><line x1="225.56" y1="437.03" x2="145.56" y2="190.11"/><line x1="282.02" y1="429.36" x2="282.18" y2="426.18"/><line x1="77.72" y1="177.17" x2="77.22" y2="175.38"/><line x1="247.71" y1="427.82" x2="282.68" y2="418.17"/><line x1="58.47" y1="71.70" x2="94.50" y2="151.19"/><line x1="300.08" y1="175.89" x2="303.79" y2="176.68"/><line x1="98.74" y1="335.84" x2="74.14" y2="331.39"/><line x1="282.68" y1="418.17" x2="246.14" y2="424.78"/><line x1="311.42" y1="411.83" x2="313.80" y2="413.03"/><line x1="108.20" y1="308.43" x2="105.82" y2="313.68"/><line x1="361.15" y1="207.62" x2="368.37" y2="195.10"/><line x1="286.21" y1="386.42" x2="287.22" y2="380.80"/><line x1="301.22" y1="388.32" x2="316.06" y2="381.18"/><line x1="94.50" y1="416.14" x2="98.93" y2="422.91"/><line x1="198.78" y1="177.84" x2="215.29" y2="193.76"/><line x1="363.73" y1="209.64" x2="378.19" y2="200.72"/><line x1="316.06" y1="381.18" x2="300.57" y2="383.73"/><line x1="217.46" y1="165.80" x2="233.23" y2="178.22"/><line x1="225.56" y1="437.03" x2="65.61" y2="62.63"/><line x1="272.64" y1="476.36" x2="282.14" y2="474.84"/><line x1="307.39" y1="407.43" x2="326.14" y2="407.45"/><line x1="364.70" y1="404.42" x2="353.38" y2="398.89"/><line x1="311.99" y1="269.70" x2="296.93" y2="352.08"/><line x1="353.36" y1="432.17" x2="365.34" y2="450.24"/><line x1="352.88" y1="397.18" x2="369.87" y2="399.48"/><line x1="376.56" y1="389.22" x2="349.77" y2="391.88"/><line x1="417.47" y1="293.84" x2="408.14" y2="302.59"/><line x1="398.17" y1="246.55" x2="404.85" y2="224.93"/><line x1="458.02" y1="301.40" x2="439.83" y2="295.92"/><line x1="116.00" y1="292.98" x2="96.24" y2="268.52"/><line x1="251.63" y1="371.94" x2="249.72" y2="373.75"/><line x1="445.05" y1="366.03" x2="432.89" y2="346.57"/><line x1="74.98" y1="290.90" x2="75.61" y2="289.02"/><line x1="292.92" y1="360.20" x2="291.23" y2="364.91"/><line x1="100.85" y1="228.20" x2="100.79" y2="225.97"/><line x1="397.03" y1="361.43" x2="392.73" y2="364.74"/><line x1="145.56" y1="190.11" x2="137.85" y2="179.51"/><line x1="85.24" y1="226.06" x2="85.53" y2="223.76"/><line x1="202.78" y1="253.68" x2="236.89" y2="394.45"/><line x1="406.12" y1="267.60" x2="401.85" y2="263.19"/><line x1="76.22" y1="287.10" x2="73.39" y2="255.25"/><line x1="243.95" y1="161.15" x2="251.96" y2="156.89"/><line x1="58.73" y1="50.41" x2="56.00" y2="45.65"/><line x1="282.41" y1="422.43" x2="250.57" y2="432.54"/><line x1="243.06" y1="412.60" x2="243.02" y2="409.56"/><line x1="251.96" y1="156.89" x2="247.63" y2="164.39"/><line x1="311.20" y1="178.27" x2="313.25" y2="191.01"/><line x1="281.88" y1="431.88" x2="266.56" y2="444.31"/><line x1="322.70" y1="411.53" x2="323.60" y2="410.85"/><line x1="101.70" y1="324.48" x2="100.04" y2="330.08"/><line x1="313.25" y1="191.01" x2="314.89" y2="179.06"/><line x1="373.85" y1="198.10" x2="375.96" y2="199.35"/><line x1="288.39" y1="375.29" x2="289.72" y2="369.97"/><line x1="100.74" y1="375.01" x2="80.97" y2="387.41"/><line x1="375.96" y1="199.35" x2="378.19" y2="200.72"/><line x1="303.07" y1="396.97" x2="302.05" y2="392.76"/><line x1="177.82" y1="459.55" x2="175.71" y2="474.95"/><line x1="244.47" y1="479.36" x2="253.78" y2="478.63"/><line x1="167.52" y1="426.12" x2="158.11" y2="423.72"/><line x1="263.23" y1="196.48" x2="262.53" y2="230.27"/><line x1="353.29" y1="406.49" x2="357.72" y2="409.15"/><line x1="158.10" y1="350.22" x2="109.88" y2="350.54"/><line x1="169.21" y1="399.61" x2="168.23" y2="394.38"/><line x1="382.48" y1="372.82" x2="382.81" y2="369.62"/><line x1="439.63" y1="326.77" x2="441.18" y2="316.59"/><line x1="65.13" y1="321.94" x2="59.68" y2="321.92"/><line x1="386.81" y1="298.60" x2="401.85" y2="263.19"/><line x1="416.81" y1="286.07" x2="403.68" y2="302.58"/><line x1="57.59" y1="293.24" x2="58.73" y2="289.03"/><line x1="64.65" y1="272.77" x2="66.28" y2="269.08"/><line x1="100.01" y1="219.32" x2="99.56" y2="217.12"/><line x1="385.49" y1="355.51" x2="398.24" y2="351.86"/><line x1="416.79" y1="297.46" x2="417.19" y2="295.82"/><line x1="394.60" y1="310.83" x2="395.62" y2="313.85"/><line x1="223.08" y1="441.05" x2="222.04" y2="441.74"/><line x1="116.00" y1="292.98" x2="89.36" y2="283.62"/><line x1="169.56" y1="220.27" x2="161.44" y2="210.57"/><line x1="64.78" y1="90.25" x2="58.47" y2="71.70"/><line x1="241.04" y1="148.34" x2="244.55" y2="151.35"/><line x1="240.44" y1="386.79" x2="238.65" y2="390.41"/><line x1="237.00" y1="154.23" x2="240.39" y2="157.76"/><line x1="325.95" y1="181.52" x2="329.62" y2="182.39"/><line x1="244.90" y1="421.74" x2="243.99" y2="418.69"/><line x1="105.82" y1="313.68" x2="103.64" y2="319.02"/><line x1="303.79" y1="176.68" x2="307.49" y2="177.47"/><line x1="282.18" y1="426.18" x2="282.41" y2="422.43"/><line x1="282.41" y1="422.43" x2="247.71" y2="427.82"/><line x1="90.48" y1="409.17" x2="94.50" y2="416.14"/><line x1="91.83" y1="198.06" x2="77.72" y2="177.17"/><line x1="305.74" y1="404.38" x2="326.20" y2="397.88"/><line x1="315.03" y1="378.40" x2="314.33" y2="375.76"/><line x1="225.23" y1="438.20" x2="208.75" y2="440.97"/><line x1="204.80" y1="464.40" x2="208.49" y2="479.50"/><line x1="120.66" y1="416.23" x2="127.21" y2="425.67"/><line x1="215.29" y1="193.76" x2="231.67" y2="207.71"/><line x1="298.56" y1="253.14" x2="314.60" y2="212.52"/><line x1="354.24" y1="410.74" x2="355.38" y2="410.28"/><line x1="333.30" y1="441.69" x2="335.18" y2="440.92"/><line x1="171.08" y1="412.97" x2="170.64" y2="408.95"/><line x1="121.23" y1="398.23" x2="164.49" y2="376.79"/><line x1="378.80" y1="384.55" x2="380.52" y2="380.27"/><line x1="329.33" y1="463.50" x2="331.42" y2="442.46"/><line x1="438.86" y1="378.40" x2="422.37" y2="365.28"/><line x1="347.64" y1="457.31" x2="344.43" y2="436.83"/><line x1="149.71" y1="420.75" x2="170.02" y2="404.48"/><line x1="355.62" y1="430.77" x2="359.05" y2="428.43"/><line x1="60.04" y1="284.83" x2="61.49" y2="280.69"/><line x1="66.68" y1="314.30" x2="55.99" y2="312.90"/><line x1="414.49" y1="301.05" x2="413.37" y2="301.54"/><line x1="408.14" y1="302.59" x2="406.69" y2="302.66"/><line x1="393.69" y1="244.23" x2="389.23" y2="242.12"/><line x1="100.83" y1="230.45" x2="100.85" y2="228.20"/><line x1="363.73" y1="209.64" x2="359.15" y2="232.80"/><line x1="456.22" y1="288.75" x2="436.60" y2="285.53"/><line x1="346.00" y1="388.34" x2="377.76" y2="356.74"/><line x1="74.78" y1="252.88" x2="76.09" y2="250.55"/><line x1="231.99" y1="273.04" x2="247.82" y2="375.78"/><line x1="81.07" y1="189.74" x2="80.62" y2="187.94"/><line x1="85.53" y1="223.76" x2="85.72" y2="221.42"/><line x1="97.72" y1="210.61" x2="85.44" y2="211.46"/><line x1="386.81" y1="298.60" x2="383.39" y2="248.76"/><line x1="130.31" y1="168.75" x2="122.99" y2="157.92"/><line x1="247.63" y1="164.39" x2="251.42" y2="167.46"/><line x1="122.99" y1="157.92" x2="115.88" y2="147.10"/><line x1="322.34" y1="368.61" x2="322.58" y2="366.90"/><line x1="91.83" y1="198.06" x2="82.38" y2="195.16"/><line x1="225.23" y1="438.20" x2="223.08" y2="441.05"/><line x1="322.58" y1="366.90" x2="322.95" y2="365.12"/><line x1="318.58" y1="179.86" x2="322.27" y2="180.68"/><line x1="261.32" y1="367.01" x2="288.39" y2="375.29"/><line x1="360.46" y1="352.16" x2="323.90" y2="376.95"/><line x1="103.17" y1="382.52" x2="106.33" y2="390.38"/><line x1="355.04" y1="189.71" x2="358.62" y2="191.01"/><line x1="100.04" y1="330.08" x2="98.74" y2="335.84"/><line x1="321.35" y1="390.43" x2="303.07" y2="396.97"/><line x1="316.45" y1="413.46" x2="319.37" y2="413.05"/><line x1="186.02" y1="461.56" x2="191.61" y2="477.83"/><line x1="152.07" y1="116.64" x2="168.06" y2="112.86"/><line x1="277.28" y1="202.73" x2="290.58" y2="207.35"/><line x1="301.22" y1="348.14" x2="301.83" y2="346.24"/><line x1="354.86" y1="232.76" x2="324.26" y2="351.82"/><line x1="169.87" y1="425.39" x2="167.52" y2="426.12"/><line x1="363.73" y1="209.64" x2="398.32" y2="216.02"/><line x1="305.74" y1="404.38" x2="324.61" y2="394.80"/><line x1="135.78" y1="413.18" x2="130.13" y2="408.64"/><line x1="370.77" y1="398.45" x2="371.61" y2="397.41"/><line x1="363.73" y1="209.64" x2="404.85" y2="224.93"/><line x1="353.11" y1="411.11" x2="352.40" y2="409.86"/><line x1="152.80" y1="329.11" x2="199.11" y2="429.59"/><line x1="338.54" y1="460.52" x2="338.91" y2="439.33"/><line x1="158.11" y1="423.72" x2="171.32" y2="416.53"/><line x1="356.57" y1="453.88" x2="351.61" y2="433.17"/><line x1="152.80" y1="329.11" x2="114.73" y2="301.43"/><line x1="360.46" y1="352.16" x2="326.11" y2="355.37"/><line x1="416.34" y1="298.76" x2="413.37" y2="301.54"/><line x1="351.11" y1="393.67" x2="349.77" y2="391.88"/><line x1="382.74" y1="366.75" x2="382.31" y2="364.18"/><line x1="396.69" y1="258.58" x2="390.56" y2="253.76"/><line x1="418.81" y1="233.52" x2="398.17" y2="246.55"/><line x1="402.14" y1="302.46" x2="415.84" y2="282.89"/><line x1="404.85" y1="224.93" x2="380.49" y2="238.50"/><line x1="386.90" y1="357.36" x2="397.90" y2="355.17"/><line x1="253.56" y1="370.32" x2="251.63" y2="371.94"/><line x1="233.80" y1="150.59" x2="241.04" y2="148.34"/><line x1="84.48" y1="95.75" x2="79.18" y2="86.58"/><line x1="238.65" y1="390.41" x2="236.89" y2="394.45"/><line x1="85.80" y1="216.56" x2="98.42" y2="212.77"/><line x1="223.92" y1="127.46" x2="226.24" y2="131.26"/><line x1="397.90" y1="355.17" x2="388.21" y2="359.18"/><line x1="346.00" y1="388.34" x2="372.34" y2="353.67"/><line x1="220.87" y1="442.29" x2="219.57" y2="442.70"/><line x1="326.11" y1="355.37" x2="326.93" y2="353.31"/><line x1="219.57" y1="442.70" x2="218.18" y2="442.95"/><line x1="263.31" y1="363.98" x2="283.24" y2="277.11"/><line x1="108.20" y1="308.43" x2="82.84" y2="298.68"/><line x1="286.21" y1="386.42" x2="257.42" y2="373.09"/><line x1="82.84" y1="298.68" x2="105.82" y2="313.68"/><line x1="366.94" y1="194.39" x2="368.37" y2="195.10"/><line x1="363.73" y1="209.64" x2="375.96" y2="199.35"/><line x1="115.02" y1="407.20" x2="98.93" y2="422.91"/><line x1="217.46" y1="165.80" x2="215.29" y2="193.76"/><line x1="225.56" y1="437.03" x2="69.72" y2="69.93"/><line x1="147.89" y1="446.61" x2="152.46" y2="449.35"/><line x1="360.46" y1="352.16" x2="322.39" y2="373.23"/><line x1="314.33" y1="375.76" x2="313.94" y2="373.25"/><line x1="215.41" y1="465.09" x2="217.25" y2="479.90"/><line x1="171.32" y1="416.53" x2="171.08" y2="412.97"/><line x1="301.14" y1="471.03" x2="310.60" y2="468.76"/><line x1="327.76" y1="348.60" x2="329.54" y2="347.01"/><line x1="355.38" y1="410.28" x2="356.54" y2="409.75"/><line x1="337.05" y1="440.13" x2="338.91" y2="439.33"/><line x1="113.49" y1="309.86" x2="114.73" y2="301.43"/><line x1="117.88" y1="392.39" x2="115.19" y2="386.19"/><line x1="354.86" y1="232.76" x2="301.22" y2="348.14"/><line x1="352.14" y1="395.43" x2="373.11" y2="395.33"/><line x1="445.05" y1="366.03" x2="428.02" y2="356.08"/><line x1="74.98" y1="290.90" x2="60.04" y2="284.83"/><line x1="363.73" y1="209.64" x2="402.97" y2="221.47"/><line x1="61.92" y1="324.18" x2="59.68" y2="321.92"/><line x1="67.19" y1="312.46" x2="67.74" y2="310.64"/><line x1="428.02" y1="356.08" x2="432.89" y2="346.57"/><line x1="227.85" y1="270.98" x2="223.69" y2="268.66"/><line x1="85.24" y1="226.06" x2="100.79" y2="225.97"/><line x1="406.12" y1="267.60" x2="386.81" y2="298.60"/><line x1="380.49" y1="238.50" x2="376.32" y2="237.00"/><line x1="80.15" y1="186.14" x2="79.68" y2="184.35"/><line x1="383.96" y1="353.69" x2="385.49" y2="355.51"/><line x1="228.11" y1="143.02" x2="230.83" y2="146.85"/><line x1="210.36" y1="441.75" x2="208.75" y2="440.97"/><line x1="245.95" y1="378.07" x2="223.69" y2="268.66"/><line x1="79.68" y1="184.35" x2="79.20" y2="182.55"/><line x1="251.91" y1="434.20" x2="250.57" y2="432.54"/><line x1="223.97" y1="440.22" x2="223.08" y2="441.05"/><line x1="292.67" y1="174.24" x2="296.38" y2="175.07"/><line x1="101.70" y1="324.48" x2="76.11" y2="319.88"/><line x1="225.56" y1="437.03" x2="130.31" y2="168.75"/><line x1="259.81" y1="161.80" x2="263.86" y2="164.00"/><line x1="250.57" y1="432.54" x2="249.41" y2="430.91"/><line x1="113.34" y1="298.10" x2="110.71" y2="303.24"/><line x1="354.67" y1="203.88" x2="358.12" y2="205.71"/><line x1="114.79" y1="441.73" x2="120.93" y2="447.38"/><line x1="98.74" y1="335.84" x2="97.82" y2="341.78"/><line x1="322.27" y1="180.68" x2="325.95" y2="181.52"/><line x1="263.31" y1="363.98" x2="289.72" y2="369.97"/><line x1="311.42" y1="411.83" x2="309.29" y2="409.94"/><line x1="106.33" y1="390.38" x2="110.26" y2="398.60"/><line x1="120.93" y1="447.38" x2="134.74" y2="435.59"/><line x1="166.80" y1="139.44" x2="182.49" y2="159.78"/><line x1="244.47" y1="479.36" x2="252.36" y2="463.33"/><line x1="361.15" y1="207.62" x2="363.73" y2="209.64"/><line x1="319.20" y1="387.18" x2="302.05" y2="392.76"/><line x1="191.61" y1="477.83" x2="199.94" y2="478.82"/><line x1="314.44" y1="366.43" x2="315.08" y2="364.36"/><line x1="252.36" y1="463.33" x2="253.78" y2="478.63"/><line x1="346.24" y1="435.95" x2="348.05" y2="435.05"/><line x1="290.58" y1="207.35" x2="303.05" y2="210.55"/><line x1="353.70" y1="403.69" x2="361.25" y2="407.00"/><line x1="348.05" y1="435.05" x2="356.57" y2="453.88"/><line x1="307.39" y1="407.43" x2="326.82" y2="405.45"/><line x1="372.39" y1="396.37" x2="373.11" y2="395.33"/><line x1="331.42" y1="442.46" x2="333.30" y2="441.69"/><line x1="311.99" y1="269.70" x2="292.92" y2="360.20"/><line x1="456.90" y1="327.34" x2="441.18" y2="316.59"/><line x1="416.79" y1="297.46" x2="412.17" y2="301.93"/><line x1="431.73" y1="390.29" x2="438.86" y2="378.40"/><line x1="311.99" y1="269.70" x2="299.26" y2="348.84"/><line x1="359.15" y1="232.80" x2="356.78" y2="232.66"/><line x1="412.17" y1="301.93" x2="417.19" y2="295.82"/><line x1="116.00" y1="292.98" x2="91.66" y2="278.62"/><line x1="388.21" y1="359.18" x2="389.44" y2="360.89"/><line x1="100.70" y1="232.70" x2="100.83" y2="230.45"/><line x1="240.44" y1="386.79" x2="211.16" y2="260.31"/><line x1="375.10" y1="243.59" x2="365.61" y2="238.25"/><line x1="237.00" y1="154.23" x2="244.55" y2="151.35"/><line x1="397.03" y1="361.43" x2="394.67" y2="365.56"/><line x1="329.54" y1="347.01" x2="386.81" y2="298.60"/><line x1="211.16" y1="260.31" x2="238.65" y2="390.41"/><line x1="74.25" y1="77.95" x2="69.72" y2="69.93"/><line x1="244.90" y1="421.74" x2="283.02" y2="413.50"/><line x1="397.49" y1="358.37" x2="389.44" y2="360.89"/><line x1="244.55" y1="151.35" x2="240.39" y2="157.76"/><line x1="303.79" y1="176.68" x2="303.67" y2="188.87"/><line x1="76.22" y1="287.10" x2="76.09" y2="250.55"/><line x1="69.72" y1="69.93" x2="65.61" y2="62.63"/><line x1="282.18" y1="426.18" x2="253.41" y2="435.84"/><line x1="327.78" y1="351.22" x2="328.66" y2="349.12"/><line x1="404.05" y1="223.22" x2="404.85" y2="224.93"/><line x1="282.41" y1="422.43" x2="248.45" y2="429.32"/><line x1="309.29" y1="409.94" x2="307.39" y2="407.43"/><line x1="281.76" y1="433.67" x2="281.65" y2="434.66"/><line x1="303.67" y1="188.87" x2="307.49" y2="177.47"/><line x1="257.42" y1="373.09" x2="259.35" y2="370.05"/><line x1="281.88" y1="431.88" x2="262.54" y2="442.74"/><line x1="315.03" y1="378.40" x2="300.09" y2="379.06"/><line x1="120.66" y1="416.23" x2="109.09" y2="435.74"/><line x1="370.02" y1="195.96" x2="363.73" y2="209.64"/><line x1="300.09" y1="379.06" x2="314.33" y2="375.76"/><line x1="354.24" y1="410.74" x2="352.69" y2="408.87"/><line x1="226.17" y1="480.00" x2="235.26" y2="479.82"/><line x1="233.23" y1="178.22" x2="231.67" y2="207.71"/><line x1="311.44" y1="262.89" x2="342.90" y2="213.24"/><line x1="352.69" y1="408.87" x2="355.38" y2="410.28"/><line x1="378.80" y1="384.55" x2="348.08" y2="390.10"/><line x1="329.33" y1="463.50" x2="329.53" y2="443.21"/><line x1="226.87" y1="465.19" x2="239.17" y2="464.63"/><line x1="347.64" y1="457.31" x2="342.60" y2="437.68"/><line x1="149.71" y1="420.75" x2="170.64" y2="408.95"/><line x1="348.08" y1="390.10" x2="380.52" y2="380.27"/><line x1="432.89" y1="346.57" x2="436.81" y2="336.78"/><line x1="369.87" y1="399.48" x2="370.77" y2="398.45"/><line x1="417.55" y1="291.55" x2="406.69" y2="302.66"/><line x1="450.21" y1="353.33" x2="454.19" y2="340.39"/><line x1="64.90" y1="323.94" x2="61.92" y2="324.18"/><line x1="75.61" y1="289.02" x2="76.22" y2="287.10"/><line x1="85.53" y1="223.76" x2="100.36" y2="221.52"/><line x1="386.81" y1="298.60" x2="390.56" y2="253.76"/><line x1="390.49" y1="302.82" x2="392.03" y2="305.29"/><line x1="76.22" y1="287.10" x2="61.49" y2="280.69"/><line x1="223.69" y1="268.66" x2="219.52" y2="266.10"/><line x1="392.03" y1="305.29" x2="371.97" y2="347.24"/><line x1="393.71" y1="365.37" x2="394.67" y2="365.56"/><line x1="244.08" y1="380.64" x2="242.24" y2="383.54"/><line x1="100.62" y1="223.74" x2="100.36" y2="221.52"/><line x1="394.67" y1="365.56" x2="395.61" y2="365.23"/><line x1="230.83" y1="146.85" x2="233.80" y2="150.59"/><line x1="207.15" y1="439.99" x2="205.61" y2="438.80"/><line x1="64.78" y1="90.25" x2="68.59" y2="99.23"/><line x1="318.58" y1="179.86" x2="318.18" y2="192.16"/><line x1="78.71" y1="180.75" x2="78.22" y2="178.96"/><line x1="205.61" y1="438.80" x2="204.12" y2="437.40"/><line x1="296.38" y1="175.07" x2="300.08" y2="175.89"/><line x1="100.04" y1="330.08" x2="74.98" y2="325.54"/><line x1="380.49" y1="202.17" x2="382.83" y2="203.72"/><line x1="263.86" y1="164.00" x2="267.98" y2="166.02"/><line x1="316.45" y1="413.46" x2="313.80" y2="413.03"/><line x1="110.26" y1="398.60" x2="115.02" y2="407.20"/><line x1="74.98" y1="325.54" x2="98.74" y2="335.84"/><line x1="358.12" y1="205.71" x2="361.15" y2="207.62"/><line x1="134.74" y1="435.59" x2="136.14" y2="437.20"/><line x1="277.28" y1="202.73" x2="276.27" y2="239.20"/><line x1="317.45" y1="384.10" x2="316.06" y2="381.18"/><line x1="136.14" y1="437.20" x2="138.13" y2="439.17"/><line x1="182.49" y1="159.78" x2="198.78" y2="177.84"/><line x1="253.78" y1="478.63" x2="263.18" y2="477.63"/><line x1="91.83" y1="198.06" x2="76.72" y2="173.59"/><line x1="305.74" y1="404.38" x2="325.22" y2="395.79"/><line x1="135.78" y1="413.18" x2="167.11" y2="388.81"/><line x1="353.11" y1="411.11" x2="352.01" y2="411.41"/><line x1="225.23" y1="438.20" x2="205.61" y2="438.80"/><line x1="263.18" y1="477.63" x2="266.44" y2="461.23"/><line x1="158.11" y1="423.72" x2="171.32" y2="419.58"/><line x1="356.57" y1="453.88" x2="349.83" y2="434.12"/><line x1="360.46" y1="352.16" x2="325.34" y2="357.41"/><line x1="167.11" y1="388.81" x2="130.13" y2="408.64"/><line x1="352.16" y1="410.72" x2="352.40" y2="409.86"/><line x1="351.11" y1="393.67" x2="376.56" y2="389.22"/><line x1="349.83" y1="434.12" x2="351.61" y2="433.17"/><line x1="65.79" y1="318.05" x2="57.97" y2="319.25"/><line x1="417.19" y1="295.82" x2="417.47" y2="293.84"/><line x1="347.64" y1="457.31" x2="348.05" y2="435.05"/><line x1="458.22" y1="314.30" x2="441.31" y2="306.29"/><line x1="69.45" y1="262.49" x2="70.91" y2="259.68"/><line x1="410.89" y1="302.23" x2="409.54" y2="302.45"/><line x1="58.73" y1="289.03" x2="74.98" y2="290.90"/><line x1="296.93" y1="352.08" x2="294.82" y2="355.89"/><line x1="70.91" y1="259.68" x2="72.24" y2="257.25"/><line x1="238.65" y1="390.41" x2="202.78" y2="253.68"/><line x1="85.80" y1="216.56" x2="99.03" y2="214.94"/><line x1="346.00" y1="388.34" x2="374.27" y2="354.48"/><line x1="99.03" y1="214.94" x2="98.42" y2="212.77"/><line x1="75.70" y1="170.01" x2="75.19" y2="168.22"/><line x1="263.31" y1="363.98" x2="297.26" y2="274.81"/><line x1="311.99" y1="269.70" x2="263.31" y2="363.98"/><line x1="390.60" y1="362.44" x2="391.69" y2="363.74"/><line x1="206.97" y1="257.10" x2="202.78" y2="253.68"/><line x1="243.99" y1="418.69" x2="243.39" y2="415.64"/><line x1="248.19" y1="154.20" x2="243.95" y2="161.15"/><line x1="97.34" y1="347.92" x2="73.59" y2="350.35"/><line x1="61.94" y1="56.09" x2="58.73" y2="50.41"/><line x1="91.83" y1="198.06" x2="81.52" y2="191.54"/><line x1="243.39" y1="415.64" x2="243.06" y2="412.60"/><line x1="320.59" y1="412.64" x2="321.70" y2="412.12"/><line x1="103.64" y1="319.02" x2="101.70" y2="324.48"/><line x1="308.39" y1="189.91" x2="311.20" y2="178.27"/><line x1="225.23" y1="438.20" x2="220.87" y2="442.29"/><line x1="147.89" y1="446.61" x2="141.87" y2="462.05"/><line x1="360.46" y1="352.16" x2="322.72" y2="374.59"/><line x1="321.70" y1="412.12" x2="322.70" y2="411.53"/><line x1="314.33" y1="375.76" x2="299.77" y2="374.38"/><line x1="109.09" y1="435.74" x2="114.79" y2="441.73"/><line x1="248.52" y1="188.38" x2="263.23" y2="196.48"/><line x1="301.14" y1="471.03" x2="297.36" y2="454.30"/><line x1="299.77" y1="374.38" x2="313.94" y2="373.25"/><line x1="355.38" y1="410.28" x2="353.00" y2="407.74"/><line x1="127.21" y1="425.67" x2="120.93" y2="447.38"/><line x1="235.26" y1="479.82" x2="244.47" y2="479.36"/><line x1="170.02" y1="404.48" x2="169.21" y2="399.61"/><line x1="354.86" y1="232.76" x2="327.76" y2="348.60"/><line x1="353.00" y1="407.74" x2="356.54" y2="409.75"/><line x1="239.17" y1="464.63" x2="252.36" y2="463.33"/><line x1="169.87" y1="425.39" x2="170.62" y2="424.05"/><line x1="142.29" y1="417.22" x2="168.23" y2="394.38"/><line x1="363.73" y1="209.64" x2="401.64" y2="219.68"/><line x1="375.79" y1="445.01" x2="368.80" y2="421.20"/><line x1="61.92" y1="324.18" x2="65.13" y2="321.94"/><line x1="346.00" y1="388.34" x2="381.73" y2="376.37"/><line x1="152.80" y1="329.11" x2="110.43" y2="215.09"/><line x1="158.11" y1="423.72" x2="149.71" y2="420.75"/><line x1="356.57" y1="453.88" x2="365.34" y2="450.24"/><line x1="431.45" y1="275.17" x2="447.27" y2="264.69"/><line x1="360.46" y1="352.16" x2="327.78" y2="351.22"/><line x1="417.36" y1="288.96" x2="405.20" y2="302.65"/><line x1="454.19" y1="340.39" x2="456.90" y2="327.34"/><line x1="264.29" y1="279.45" x2="260.36" y2="279.72"/><line x1="100.36" y1="221.52" x2="100.01" y2="219.32"/><line x1="363.65" y1="349.93" x2="360.46" y2="352.16"/><line x1="371.97" y1="347.24" x2="393.40" y2="307.96"/><line x1="404.85" y1="224.93" x2="372.33" y2="235.70"/><line x1="85.72" y1="221.42" x2="85.81" y2="219.02"/><line x1="233.46" y1="403.91" x2="190.24" y2="242.32"/><line x1="242.24" y1="383.54" x2="240.44" y2="386.79"/><line x1="259.81" y1="161.80" x2="255.28" y2="170.34"/><line x1="360.46" y1="352.16" x2="337.16" y2="383.25"/><line x1="255.28" y1="170.34" x2="263.86" y2="164.00"/><line x1="98.74" y1="335.84" x2="73.60" y2="337.46"/><line x1="322.27" y1="180.68" x2="323.15" y2="193.38"/><line x1="282.68" y1="418.17" x2="244.90" y2="421.74"/><line x1="202.70" y1="435.79" x2="201.38" y2="433.96"/><line x1="361.15" y1="207.62" x2="370.02" y2="195.96"/><line x1="323.15" y1="193.38" x2="325.95" y2="181.52"/><line x1="385.20" y1="205.34" x2="387.56" y2="207.03"/><line x1="299.12" y1="187.88" x2="303.67" y2="188.87"/><line x1="314.44" y1="366.43" x2="299.69" y2="361.14"/><line x1="74.14" y1="331.39" x2="73.60" y2="337.46"/><line x1="127.48" y1="452.68" x2="143.99" y2="443.96"/><line x1="387.56" y1="207.03" x2="389.89" y2="208.77"/><line x1="363.73" y1="209.64" x2="380.49" y2="202.17"/><line x1="290.58" y1="207.35" x2="288.41" y2="246.77"/><line x1="319.37" y1="413.05" x2="307.39" y2="407.43"/><line x1="316.06" y1="381.18" x2="315.03" y2="378.40"/><line x1="353.70" y1="403.69" x2="360.08" y2="407.78"/><line x1="225.56" y1="437.03" x2="61.94" y2="56.09"/><line x1="307.39" y1="407.43" x2="326.53" y2="406.47"/><line x1="288.41" y1="246.77" x2="303.05" y2="210.55"/><line x1="130.13" y1="408.64" x2="125.30" y2="403.65"/><line x1="300.57" y1="383.73" x2="300.09" y2="379.06"/><line x1="331.42" y1="442.46" x2="338.54" y2="460.52"/><line x1="215.41" y1="465.09" x2="226.87" y2="465.19"/><line x1="353.36" y1="432.17" x2="355.62" y2="430.77"/><line x1="125.30" y1="403.65" x2="165.86" y2="382.93"/><line x1="352.88" y1="397.18" x2="352.14" y2="395.43"/><line x1="352.40" y1="409.86" x2="352.69" y2="408.87"/><line x1="376.56" y1="389.22" x2="378.80" y2="384.55"/><line x1="417.47" y1="293.84" x2="417.55" y2="291.55"/><line x1="380.54" y1="359.93" x2="379.25" y2="358.21"/><line x1="458.02" y1="301.40" x2="456.22" y2="288.75"/><line x1="66.21" y1="316.16" x2="56.75" y2="316.23"/><line x1="349.77" y1="391.88" x2="348.08" y2="390.10"/><line x1="414.36" y1="279.44" x2="399.05" y2="302.04"/><line x1="445.05" y1="366.03" x2="450.21" y2="353.33"/><line x1="439.83" y1="295.92" x2="436.60" y2="285.53"/><line x1="72.24" y1="257.25" x2="73.39" y2="255.25"/><line x1="397.78" y1="323.72" x2="398.22" y2="327.19"/><line x1="202.78" y1="253.68" x2="198.59" y2="250.07"/><line x1="98.42" y1="212.77" x2="85.67" y2="214.05"/><line x1="369.39" y1="347.54" x2="390.49" y2="302.82"/><line x1="77.04" y1="116.77" x2="81.48" y2="125.41"/><line x1="243.95" y1="161.15" x2="247.63" y2="164.39"/><line x1="236.89" y1="394.45" x2="235.16" y2="398.94"/><line x1="85.67" y1="214.05" x2="97.72" y2="210.61"/><line x1="281.76" y1="433.67" x2="280.50" y2="437.50"/><line x1="251.96" y1="156.89" x2="255.83" y2="159.43"/><line x1="109.62" y1="225.16" x2="107.73" y2="235.57"/><line x1="280.50" y1="437.50" x2="281.65" y2="434.66"/><line x1="313.25" y1="191.01" x2="318.58" y2="179.86"/><line x1="97.34" y1="354.30" x2="74.22" y2="357.69"/><line x1="225.56" y1="437.03" x2="115.88" y2="147.10"/><line x1="243.02" y1="409.56" x2="283.46" y2="408.47"/><line x1="311.44" y1="262.89" x2="334.62" y2="213.66"/><line x1="58.47" y1="71.70" x2="225.56" y2="437.03"/><line x1="323.60" y1="410.85" x2="324.39" y2="410.09"/><line x1="299.61" y1="369.79" x2="314.02" y2="368.60"/><line x1="226.87" y1="465.19" x2="235.26" y2="479.82"/><line x1="120.93" y1="447.38" x2="138.13" y2="439.17"/><line x1="149.69" y1="466.05" x2="157.72" y2="452.08"/><line x1="263.23" y1="196.48" x2="277.28" y2="202.73"/><line x1="325.99" y1="350.20" x2="327.76" y2="348.60"/><line x1="353.29" y1="406.49" x2="353.54" y2="405.14"/><line x1="340.76" y1="438.52" x2="342.60" y2="437.68"/><line x1="252.36" y1="463.33" x2="266.44" y2="461.23"/><line x1="262.53" y1="230.27" x2="276.27" y2="239.20"/><line x1="314.24" y1="449.32" x2="320.00" y2="466.25"/><line x1="450.21" y1="353.33" x2="436.81" y2="336.78"/><line x1="168.23" y1="394.38" x2="167.11" y2="388.81"/><line x1="386.10" y1="438.48" x2="374.79" y2="416.39"/><line x1="65.13" y1="321.94" x2="65.43" y2="319.98"/><line x1="307.39" y1="407.43" x2="327.10" y2="403.33"/><line x1="68.32" y1="308.84" x2="55.67" y2="305.51"/><line x1="311.99" y1="269.70" x2="306.72" y2="272.39"/><line x1="416.81" y1="286.07" x2="402.14" y2="302.46"/><line x1="372.33" y1="235.70" x2="368.57" y2="234.64"/><line x1="59.68" y1="321.92" x2="65.79" y2="318.05"/><line x1="428.91" y1="271.35" x2="425.99" y2="267.68"/><line x1="80.61" y1="241.58" x2="81.53" y2="239.37"/><line x1="244.08" y1="380.64" x2="219.52" y2="266.10"/><line x1="256.39" y1="279.67" x2="252.40" y2="279.30"/><line x1="116.00" y1="292.98" x2="113.34" y2="298.10"/><line x1="95.13" y1="204.25" x2="84.65" y2="206.06"/><line x1="64.78" y1="90.25" x2="61.38" y2="81.08"/><line x1="85.81" y1="219.02" x2="85.80" y2="216.56"/><line x1="231.80" y1="409.39" x2="186.07" y2="238.20"/><line x1="274.29" y1="444.03" x2="272.45" y2="444.60"/><line x1="58.47" y1="71.70" x2="68.59" y2="99.23"/><line x1="397.03" y1="361.43" x2="396.53" y2="364.33"/><line x1="263.86" y1="164.00" x2="259.20" y2="173.02"/><line x1="397.49" y1="358.37" x2="397.03" y2="361.43"/><line x1="245.20" y1="397.40" x2="246.26" y2="394.36"/><line x1="325.34" y1="357.41" x2="326.11" y2="355.37"/><line x1="76.22" y1="287.10" x2="78.51" y2="246.01"/><line x1="259.20" y1="173.02" x2="267.98" y2="166.02"/><line x1="282.41" y1="422.43" x2="282.68" y2="418.17"/><line x1="97.82" y1="341.78" x2="97.34" y2="347.92"/><line x1="329.62" y1="182.39" x2="328.10" y2="194.66"/><line x1="281.88" y1="431.88" x2="282.02" y2="429.36"/><line x1="143.99" y1="443.96" x2="147.89" y2="446.61"/><line x1="392.16" y1="210.55" x2="394.34" y2="212.36"/><line x1="298.56" y1="253.14" x2="306.36" y2="258.46"/><line x1="352.16" y1="410.72" x2="352.01" y2="411.41"/><line x1="299.92" y1="357.24" x2="315.94" y2="362.38"/><line x1="171.10" y1="422.10" x2="171.32" y2="419.58"/><line x1="281.43" y1="458.23" x2="301.14" y2="471.03"/><line x1="121.23" y1="398.23" x2="117.88" y2="392.39"/><line x1="373.75" y1="394.30" x2="376.56" y2="389.22"/><line x1="329.33" y1="463.50" x2="338.54" y2="460.52"/><line x1="353.75" y1="402.16" x2="362.42" y2="406.18"/><line x1="347.64" y1="457.31" x2="346.24" y2="435.95"/><line x1="149.71" y1="420.75" x2="142.29" y2="417.22"/><line x1="66.68" y1="314.30" x2="67.19" y2="312.46"/><line x1="410.89" y1="302.23" x2="417.47" y2="293.84"/><line x1="377.76" y1="356.74" x2="376.08" y2="355.50"/><line x1="456.22" y1="288.75" x2="452.67" y2="276.47"/><line x1="363.65" y1="349.93" x2="366.62" y2="348.42"/><line x1="397.52" y1="301.77" x2="412.29" y2="275.74"/><line x1="255.49" y1="368.86" x2="240.22" y2="276.39"/><line x1="97.72" y1="210.61" x2="96.93" y2="208.48"/><line x1="386.81" y1="298.60" x2="375.10" y2="243.59"/><line x1="390.60" y1="362.44" x2="397.03" y2="361.43"/><line x1="376.59" y1="348.08" x2="398.54" y2="330.72"/><line x1="76.22" y1="287.10" x2="64.65" y2="272.77"/><line x1="221.87" y1="123.54" x2="220.32" y2="127.24"/><line x1="85.44" y1="211.46" x2="96.07" y2="206.36"/><line x1="85.94" y1="134.00" x2="90.31" y2="142.58"/><line x1="91.83" y1="198.06" x2="81.96" y2="193.35"/><line x1="235.16" y1="398.94" x2="233.46" y2="403.91"/><line x1="276.34" y1="169.54" x2="274.69" y2="181.37"/><line x1="281.88" y1="431.88" x2="277.67" y2="441.67"/><line x1="225.23" y1="438.20" x2="222.04" y2="441.74"/><line x1="255.83" y1="159.43" x2="259.81" y2="161.80"/><line x1="261.32" y1="367.01" x2="263.31" y2="363.98"/><line x1="340.58" y1="185.21" x2="344.21" y2="186.24"/><line x1="77.49" y1="314.39" x2="101.70" y2="324.48"/><line x1="127.21" y1="425.67" x2="114.79" y2="441.73"/><line x1="314.02" y1="368.60" x2="314.44" y2="366.43"/><line x1="239.17" y1="464.63" x2="244.47" y2="479.36"/><line x1="142.29" y1="417.22" x2="169.21" y2="399.61"/><line x1="91.83" y1="198.06" x2="75.70" y2="170.01"/><line x1="305.74" y1="404.38" x2="323.92" y2="393.85"/><line x1="313.44" y1="266.59" x2="349.93" y2="212.44"/><line x1="353.11" y1="411.11" x2="354.24" y2="410.74"/><line x1="152.80" y1="329.11" x2="110.28" y2="205.33"/><line x1="353.54" y1="405.14" x2="353.70" y2="403.69"/><line x1="225.23" y1="438.20" x2="202.70" y2="435.79"/><line x1="344.43" y1="436.83" x2="346.24" y2="435.95"/><line x1="363.73" y1="209.64" x2="313.44" y2="266.59"/><line x1="338.54" y1="460.52" x2="347.64" y2="457.31"/><line x1="158.11" y1="423.72" x2="171.08" y2="412.97"/><line x1="276.27" y1="239.20" x2="288.41" y2="246.77"/><line x1="356.57" y1="453.88" x2="353.36" y2="432.17"/><line x1="360.46" y1="352.16" x2="326.93" y2="353.31"/><line x1="167.11" y1="388.81" x2="165.86" y2="382.93"/><line x1="396.18" y1="430.75" x2="388.20" y2="404.65"/><line x1="111.59" y1="372.77" x2="159.80" y2="357.10"/><line x1="454.19" y1="340.39" x2="439.63" y2="326.77"/><line x1="63.04" y1="276.65" x2="64.65" y2="272.77"/><line x1="439.90" y1="253.53" x2="419.12" y2="260.81"/><line x1="68.94" y1="307.06" x2="69.58" y2="305.29"/><line x1="402.14" y1="302.46" x2="400.59" y2="302.27"/><line x1="365.10" y1="233.79" x2="361.94" y2="233.18"/><line x1="85.72" y1="221.42" x2="100.01" y2="219.32"/><line x1="82.37" y1="237.18" x2="98.53" y2="244.01"/><line x1="242.24" y1="383.54" x2="215.34" y2="263.32"/><line x1="382.32" y1="351.97" x2="398.71" y2="344.97"/><line x1="85.80" y1="216.56" x2="85.67" y2="214.05"/><line x1="397.90" y1="355.17" x2="397.49" y2="358.37"/><line x1="346.00" y1="388.34" x2="370.34" y2="353.04"/><line x1="94.10" y1="202.17" x2="84.31" y2="204.23"/><line x1="397.21" y1="320.32" x2="397.78" y2="323.72"/><line x1="215.34" y1="263.32" x2="240.44" y2="386.79"/><line x1="218.71" y1="119.30" x2="218.57" y2="115.39"/><line x1="263.31" y1="363.98" x2="264.29" y2="279.45"/><line x1="79.18" y1="86.58" x2="74.25" y2="77.95"/><line x1="246.14" y1="424.78" x2="244.90" y2="421.74"/><line x1="82.84" y1="298.68" x2="80.89" y2="303.82"/><line x1="299.12" y1="187.88" x2="303.79" y2="176.68"/><line x1="127.48" y1="452.68" x2="140.75" y2="441.46"/><line x1="326.93" y1="353.31" x2="327.78" y2="351.22"/><line x1="333.28" y1="183.28" x2="336.94" y2="184.23"/><line x1="91.83" y1="198.06" x2="80.62" y2="187.94"/><line x1="319.37" y1="413.05" x2="309.29" y2="409.94"/><line x1="115.02" y1="407.20" x2="120.66" y2="416.23"/><line x1="225.23" y1="438.20" x2="218.18" y2="442.95"/><line x1="300.57" y1="383.73" x2="315.03" y2="378.40"/><line x1="360.46" y1="352.16" x2="322.22" y2="371.78"/><line x1="215.41" y1="465.09" x2="226.17" y2="480.00"/><line x1="306.36" y1="258.46" x2="311.44" y2="262.89"/><line x1="352.40" y1="409.86" x2="354.24" y2="410.74"/><line x1="365.34" y1="450.24" x2="355.62" y2="430.77"/><line x1="349.77" y1="391.88" x2="378.80" y2="384.55"/><line x1="354.86" y1="232.76" x2="301.83" y2="346.24"/><line x1="352.14" y1="395.43" x2="351.11" y2="393.67"/><line x1="363.57" y1="405.32" x2="353.65" y2="400.55"/><line x1="439.83" y1="295.92" x2="456.22" y2="288.75"/><line x1="363.73" y1="209.64" x2="404.05" y2="223.22"/><line x1="409.54" y1="302.45" x2="408.14" y2="302.59"/><line x1="346.00" y1="388.34" x2="382.81" y2="369.62"/><line x1="369.39" y1="347.54" x2="388.75" y2="300.58"/><line x1="236.89" y1="394.45" x2="198.59" y2="250.07"/><line x1="58.47" y1="71.70" x2="56.18" y2="62.07"/><line x1="391.69" y1="363.74" x2="392.73" y2="364.74"/><line x1="371.97" y1="347.24" x2="395.62" y2="313.85"/><line x1="245.95" y1="378.07" x2="244.08" y2="380.64"/><line x1="198.59" y1="250.07" x2="235.16" y2="398.94"/><line x1="404.85" y1="224.93" x2="365.10" y2="233.79"/><line x1="56.00" y1="45.65" x2="53.78" y2="41.91"/><line x1="96.07" y1="206.36" x2="95.13" y2="204.25"/><line x1="392.73" y1="364.74" x2="393.71" y2="365.37"/><line x1="225.56" y1="437.03" x2="122.99" y2="157.92"/><line x1="53.78" y1="41.91" x2="54.58" y2="52.15"/><line x1="360.46" y1="352.16" x2="333.22" y2="381.66"/><line x1="208.75" y1="440.97" x2="207.15" y2="439.99"/><line x1="314.89" y1="179.06" x2="318.58" y2="179.86"/><line x1="299.61" y1="369.79" x2="313.84" y2="370.87"/><line x1="244.33" y1="400.44" x2="245.20" y2="397.40"/><line x1="76.11" y1="319.88" x2="100.04" y2="330.08"/><line x1="120.93" y1="447.38" x2="136.14" y2="437.20"/><line x1="378.19" y1="200.72" x2="380.49" y2="202.17"/><line x1="323.15" y1="193.38" x2="328.10" y2="194.66"/><line x1="319.20" y1="387.18" x2="317.45" y2="384.10"/><line x1="252.36" y1="463.33" x2="263.18" y2="477.63"/><line x1="262.53" y1="230.27" x2="277.28" y2="202.73"/><line x1="170.38" y1="457.26" x2="177.82" y2="459.55"/><line x1="363.73" y1="209.64" x2="385.20" y2="205.34"/><line x1="353.70" y1="403.69" x2="353.75" y2="402.16"/><line x1="348.05" y1="435.05" x2="349.83" y2="434.12"/><line x1="168.23" y1="394.38" x2="135.78" y2="413.18"/><line x1="225.56" y1="437.03" x2="56.00" y2="45.65"/><line x1="307.39" y1="407.43" x2="327.00" y2="404.41"/><line x1="355.61" y1="211.47" x2="359.86" y2="210.54"/><line x1="382.81" y1="369.62" x2="382.74" y2="366.75"/><line x1="311.99" y1="269.70" x2="291.23" y2="364.91"/><line x1="456.90" y1="327.34" x2="458.22" y2="314.30"/><line x1="59.68" y1="321.92" x2="65.43" y2="319.98"/><line x1="110.58" y1="365.61" x2="110.03" y2="358.19"/><line x1="56.02" y1="301.52" x2="70.92" y2="301.75"/><line x1="403.68" y1="302.58" x2="402.14" y2="302.46"/><line x1="441.18" y1="316.59" x2="441.31" y2="306.29"/><line x1="66.28" y1="269.08" x2="67.89" y2="265.65"/><line x1="412.17" y1="301.93" x2="410.89" y2="302.23"/><line x1="329.54" y1="347.01" x2="328.66" y2="349.12"/><line x1="395.62" y1="313.85" x2="396.49" y2="317.03"/><line x1="414.36" y1="279.44" x2="412.29" y2="275.74"/><line x1="85.81" y1="219.02" x2="99.56" y2="217.12"/><line x1="58.47" y1="71.70" x2="61.38" y2="81.08"/><line x1="397.03" y1="361.43" x2="395.61" y2="365.23"/><line x1="211.16" y1="260.31" x2="206.97" y2="257.10"/><line x1="99.56" y1="217.12" x2="85.80" y2="216.56"/><line x1="76.72" y1="173.59" x2="76.20" y2="171.80"/><line x1="397.49" y1="358.37" x2="390.60" y2="362.44"/><line x1="369.39" y1="347.54" x2="371.97" y2="347.24"/><line x1="244.55" y1="151.35" x2="248.19" y2="154.20"/><line x1="200.18" y1="431.89" x2="199.11" y2="429.59"/><line x1="76.22" y1="287.10" x2="77.34" y2="248.26"/><line x1="76.20" y1="171.80" x2="75.70" y2="170.01"/><line x1="281.76" y1="433.67" x2="281.88" y2="431.88"/><line x1="303.67" y1="188.87" x2="308.39" y2="189.91"/><line x1="97.82" y1="341.78" x2="73.42" y2="343.78"/><line x1="272.14" y1="167.88" x2="276.34" y2="169.54"/><line x1="281.88" y1="431.88" x2="260.57" y2="441.64"/><line x1="283.02" y1="413.50" x2="243.99" y2="418.69"/><line x1="73.42" y1="343.78" x2="97.34" y2="347.92"/><line x1="370.02" y1="195.96" x2="371.85" y2="196.96"/><line x1="143.99" y1="443.96" x2="134.46" y2="457.58"/><line x1="225.56" y1="437.03" x2="102.43" y2="125.78"/><line x1="336.94" y1="184.23" x2="340.58" y2="185.21"/><line x1="307.39" y1="407.43" x2="320.59" y2="412.64"/><line x1="300.09" y1="379.06" x2="299.77" y2="374.38"/><line x1="134.46" y1="457.58" x2="147.89" y2="446.61"/><line x1="233.23" y1="178.22" x2="248.52" y2="188.38"/><line x1="281.43" y1="458.23" x2="291.64" y2="473.06"/><line x1="311.44" y1="262.89" x2="313.44" y2="266.59"/><line x1="352.69" y1="408.87" x2="353.00" y2="407.74"/><line x1="291.64" y1="473.06" x2="301.14" y2="471.03"/><line x1="348.08" y1="390.10" x2="346.00" y2="388.34"/><line x1="359.05" y1="428.43" x2="363.49" y2="425.23"/><line x1="417.55" y1="291.55" x2="417.36" y2="288.96"/><line x1="64.90" y1="323.94" x2="64.73" y2="326.00"/><line x1="436.60" y1="285.53" x2="452.67" y2="276.47"/><line x1="76.09" y1="250.55" x2="77.34" y2="248.26"/><line x1="307.39" y1="407.43" x2="327.01" y2="401.15"/><line x1="380.52" y1="380.27" x2="346.00" y2="388.34"/><line x1="406.69" y1="302.66" x2="405.20" y2="302.65"/><line x1="452.67" y1="276.47" x2="431.45" y2="275.17"/><line x1="76.22" y1="287.10" x2="63.04" y2="276.65"/><line x1="297.26" y1="274.81" x2="283.24" y2="277.11"/><line x1="85.44" y1="211.46" x2="96.93" y2="208.48"/><line x1="392.03" y1="305.29" x2="393.40" y2="307.96"/><line x1="283.24" y1="277.11" x2="264.29" y2="279.45"/><line x1="235.16" y1="398.94" x2="194.41" y2="246.29"/><line x1="281.88" y1="431.88" x2="279.17" y2="439.83"/><line x1="255.83" y1="159.43" x2="251.42" y2="167.46"/><line x1="194.41" y1="246.29" x2="233.46" y2="403.91"/><line x1="54.58" y1="52.15" x2="56.18" y2="62.07"/><line x1="279.17" y1="439.83" x2="277.67" y2="441.67"/><line x1="243.23" y1="406.53" x2="243.67" y2="403.48"/><line x1="251.42" y1="167.46" x2="259.81" y2="161.80"/><line x1="243.67" y1="403.48" x2="244.33" y2="400.44"/><line x1="325.08" y1="409.27" x2="325.66" y2="408.38"/><line x1="74.98" y1="325.54" x2="74.14" y2="331.39"/><line x1="318.18" y1="192.16" x2="322.27" y2="180.68"/><line x1="76.22" y1="287.10" x2="80.61" y2="241.58"/><line x1="351.45" y1="188.49" x2="355.04" y2="189.71"/><line x1="325.66" y1="408.38" x2="326.14" y2="407.45"/><line x1="314.02" y1="368.60" x2="299.58" y2="365.35"/><line x1="382.83" y1="203.72" x2="385.20" y2="205.34"/><line x1="91.83" y1="198.06" x2="76.20" y2="171.80"/><line x1="316.16" y1="448.53" x2="318.08" y2="447.75"/><line x1="138.67" y1="91.24" x2="152.07" y2="116.64"/><line x1="299.58" y1="365.35" x2="314.44" y2="366.43"/><line x1="353.54" y1="405.14" x2="358.90" y2="408.49"/><line x1="225.23" y1="438.20" x2="204.12" y2="437.40"/><line x1="138.13" y1="439.17" x2="140.75" y2="441.46"/><line x1="263.18" y1="477.63" x2="272.64" y2="476.36"/><line x1="276.27" y1="239.20" x2="290.58" y2="207.35"/><line x1="167.11" y1="388.81" x2="125.30" y2="403.65"/><line x1="396.18" y1="430.75" x2="381.31" y2="410.86"/><line x1="358.90" y1="408.49" x2="353.70" y2="403.69"/><line x1="266.44" y1="461.23" x2="282.14" y2="474.84"/><line x1="65.79" y1="318.05" x2="66.21" y2="316.16"/><line x1="439.90" y1="253.53" x2="422.71" y2="264.17"/><line x1="382.31" y1="364.18" x2="381.57" y2="361.91"/><line x1="347.64" y1="457.31" x2="356.57" y2="453.88"/><line x1="458.22" y1="314.30" x2="458.02" y2="301.40"/><line x1="415.84" y1="282.89" x2="400.59" y2="302.27"/><line x1="116.00" y1="292.98" x2="104.52" y2="247.19"/><line x1="441.31" y1="306.29" x2="439.83" y2="295.92"/><line x1="58.73" y1="289.03" x2="60.04" y2="284.83"/><line x1="57.97" y1="319.25" x2="66.21" y2="316.16"/><line x1="261.34" y1="365.12" x2="259.39" y2="366.29"/><line x1="400.59" y1="302.27" x2="414.36" y2="279.44"/><line x1="397.21" y1="320.32" x2="374.37" y2="347.44"/><line x1="218.71" y1="119.30" x2="220.08" y2="119.52"/><line x1="181.92" y1="233.92" x2="177.78" y2="229.50"/><line x1="311.99" y1="269.70" x2="289.72" y2="369.97"/><line x1="386.81" y1="298.60" x2="363.65" y2="349.93"/><line x1="374.37" y1="347.44" x2="397.78" y2="323.72"/><line x1="68.59" y1="99.23" x2="72.71" y2="108.05"/><line x1="376.59" y1="348.08" x2="378.64" y2="349.10"/><line x1="263.12" y1="175.48" x2="267.03" y2="177.71"/><line x1="328.74" y1="380.14" x2="327.19" y2="379.56"/><line x1="72.71" y1="108.05" x2="77.04" y2="116.77"/><line x1="248.19" y1="154.20" x2="251.96" y2="156.89"/><line x1="110.28" y1="205.33" x2="110.43" y2="215.09"/><line x1="267.03" y1="177.71" x2="272.14" y2="167.88"/><line x1="97.34" y1="347.92" x2="97.34" y2="354.30"/><line x1="333.28" y1="183.28" x2="332.99" y2="196.01"/><line x1="91.83" y1="198.06" x2="81.07" y2="189.74"/><line x1="281.88" y1="431.88" x2="274.29" y2="444.03"/><line x1="110.43" y1="215.09" x2="109.62" y2="225.16"/><line x1="308.39" y1="189.91" x2="313.25" y2="191.01"/><line x1="225.23" y1="438.20" x2="219.57" y2="442.70"/><line x1="332.99" y1="196.01" x2="336.94" y2="184.23"/><line x1="396.40" y1="214.19" x2="398.32" y2="216.02"/><line x1="73.59" y1="350.35" x2="97.34" y2="354.30"/><line x1="398.32" y1="216.02" x2="400.08" y2="217.86"/><line x1="306.36" y1="258.46" x2="325.16" y2="213.49"/><line x1="299.77" y1="374.38" x2="299.61" y2="369.79"/><line x1="127.21" y1="425.67" x2="134.74" y2="435.59"/><line x1="141.87" y1="462.05" x2="152.46" y2="449.35"/><line x1="325.16" y1="213.49" x2="311.44" y2="262.89"/><line x1="313.94" y1="373.25" x2="313.84" y2="370.87"/><line x1="353.00" y1="407.74" x2="353.29" y2="406.49"/><line x1="247.54" y1="219.82" x2="262.53" y2="230.27"/><line x1="374.27" y1="354.48" x2="372.34" y2="353.67"/><line x1="297.36" y1="454.30" x2="310.60" y2="468.76"/><line x1="142.29" y1="417.22" x2="135.78" y2="413.18"/><line x1="375.79" y1="445.01" x2="386.10" y2="438.48"/><line x1="115.19" y1="386.19" x2="163.01" y2="370.42"/><line x1="356.54" y1="409.75" x2="357.72" y2="409.15"/><line x1="346.00" y1="388.34" x2="382.48" y2="372.82"/><line x1="152.80" y1="329.11" x2="109.62" y2="225.16"/><line x1="225.23" y1="438.20" x2="200.18" y2="431.89"/><line x1="431.45" y1="275.17" x2="428.91" y2="271.35"/><line x1="360.46" y1="352.16" x2="328.66" y2="349.12"/><line x1="67.74" y1="310.64" x2="55.64" y2="309.32"/><line x1="300.69" y1="350.66" x2="301.22" y2="348.14"/><line x1="417.36" y1="288.96" x2="416.81" y2="286.07"/><line x1="78.51" y1="246.01" x2="79.60" y2="243.78"/><line x1="405.20" y1="302.65" x2="403.68" y2="302.58"/><line x1="371.97" y1="347.24" x2="394.60" y2="310.83"/><line x1="378.64" y1="349.10" x2="398.82" y2="337.86"/><line x1="404.85" y1="224.93" x2="368.57" y2="234.64"/><line x1="79.60" y1="243.78" x2="80.61" y2="241.58"/><line x1="233.46" y1="403.91" x2="231.80" y2="409.39"/><line x1="96.07" y1="206.36" x2="85.10" y2="208.80"/><line x1="82.37" y1="237.18" x2="83.13" y2="234.99"/><line x1="152.80" y1="329.11" x2="109.25" y2="195.84"/><line x1="225.23" y1="438.20" x2="98.40" y2="159.86"/><line x1="190.24" y1="242.32" x2="186.07" y2="238.20"/><line x1="85.10" y1="208.80" x2="95.13" y2="204.25"/><line x1="360.46" y1="352.16" x2="340.58" y2="384.90"/><line x1="277.67" y1="441.67" x2="276.04" y2="443.06"/><line x1="346.00" y1="388.34" x2="366.25" y2="352.28"/><line x1="255.28" y1="170.34" x2="259.20" y2="173.02"/><line x1="100.61" y1="258.11" x2="98.46" y2="263.36"/><line x1="337.16" y1="383.25" x2="333.22" y2="381.66"/><line x1="282.68" y1="418.17" x2="283.02" y2="413.50"/><line x1="276.04" y1="443.06" x2="274.29" y2="444.03"/><line x1="244.33" y1="400.44" x2="283.97" y2="403.18"/><line x1="263.31" y1="363.98" x2="256.39" y2="279.67"/><line x1="98.46" y1="263.36" x2="96.24" y2="268.52"/><line x1="323.15" y1="193.38" x2="329.62" y2="182.39"/><line x1="76.75" y1="372.54" x2="78.65" y2="379.99"/><line x1="283.97" y1="403.18" x2="245.20" y2="397.40"/><line x1="326.14" y1="407.45" x2="326.53" y2="406.47"/><line x1="127.48" y1="452.68" x2="134.46" y2="457.58"/><line x1="78.65" y1="379.99" x2="100.74" y2="375.01"/><line x1="170.38" y1="457.26" x2="166.61" y2="472.53"/><line x1="363.73" y1="209.64" x2="382.83" y2="203.72"/><line x1="319.37" y1="413.05" x2="320.59" y2="412.64"/><line x1="326.53" y1="406.47" x2="326.82" y2="405.45"/><line x1="73.60" y1="337.46" x2="73.42" y2="343.78"/><line x1="225.56" y1="437.03" x2="58.73" y2="50.41"/><line x1="166.61" y1="472.53" x2="177.82" y2="459.55"/><line x1="288.41" y1="246.77" x2="298.56" y2="253.14"/><line x1="360.46" y1="352.16" x2="322.34" y2="368.61"/><line x1="299.69" y1="361.14" x2="315.08" y2="364.36"/><line x1="303.05" y1="210.55" x2="314.60" y2="212.52"/><line x1="321.90" y1="446.23" x2="329.33" y2="463.50"/><line x1="125.30" y1="403.65" x2="121.23" y2="398.23"/><line x1="56.02" y1="301.52" x2="70.24" y2="303.52"/><line x1="360.08" y1="407.78" x2="361.25" y2="407.00"/><line x1="441.18" y1="316.59" x2="458.22" y2="314.30"/><line x1="282.14" y1="474.84" x2="291.64" y2="473.06"/><line x1="365.34" y1="450.24" x2="363.49" y2="425.23"/><line x1="165.86" y1="382.93" x2="164.49" y2="376.79"/><line x1="405.89" y1="421.94" x2="395.28" y2="397.82"/><line x1="66.21" y1="316.16" x2="66.68" y2="314.30"/><line x1="354.86" y1="232.76" x2="329.54" y2="347.01"/><line x1="414.36" y1="279.44" x2="397.52" y2="301.77"/><line x1="56.75" y1="316.23" x2="55.99" y2="312.90"/><line x1="430.45" y1="243.09" x2="415.28" y2="257.61"/><line x1="346.00" y1="388.34" x2="382.31" y2="364.18"/><line x1="244.31" y1="277.65" x2="257.44" y2="367.52"/><line x1="98.42" y1="212.77" x2="97.72" y2="210.61"/><line x1="83.95" y1="202.41" x2="91.83" y2="198.06"/><line x1="369.39" y1="347.54" x2="392.03" y2="305.29"/><line x1="398.22" y1="327.19" x2="398.54" y2="330.72"/><line x1="85.67" y1="214.05" x2="85.44" y2="211.46"/><line x1="228.60" y1="422.00" x2="227.06" y2="429.19"/><line x1="264.54" y1="443.64" x2="262.54" y2="442.74"/><line x1="371.97" y1="347.24" x2="397.21" y2="320.32"/><line x1="219.30" y1="123.26" x2="221.87" y2="123.54"/><line x1="272.14" y1="167.88" x2="270.90" y2="179.67"/><line x1="404.85" y1="224.93" x2="359.15" y2="232.80"/><line x1="280.50" y1="437.50" x2="281.88" y2="431.88"/><line x1="325.88" y1="378.82" x2="324.79" y2="377.95"/><line x1="250.36" y1="385.24" x2="285.34" y2="392.07"/><line x1="313.25" y1="191.01" x2="318.18" y2="192.16"/><line x1="270.90" y1="179.67" x2="276.34" y2="169.54"/><line x1="97.34" y1="354.30" x2="97.87" y2="360.91"/><line x1="225.56" y1="437.03" x2="109.02" y2="136.36"/><line x1="336.94" y1="184.23" x2="337.75" y2="197.43"/><line x1="243.02" y1="409.56" x2="243.23" y2="406.53"/><line x1="360.46" y1="352.16" x2="328.74" y2="380.14"/><line x1="326.83" y1="400.05" x2="326.56" y2="398.96"/><line x1="74.22" y1="357.69" x2="75.27" y2="365.10"/><line x1="337.75" y1="197.43" x2="340.58" y2="185.21"/><line x1="400.08" y1="217.86" x2="401.64" y2="219.68"/><line x1="283.46" y1="408.47" x2="243.67" y2="403.48"/><line x1="299.61" y1="369.79" x2="299.58" y2="365.35"/><line x1="326.56" y1="398.96" x2="305.74" y2="404.38"/><line x1="318.19" y1="358.64" x2="354.86" y2="232.76"/><line x1="120.93" y1="447.38" x2="127.48" y2="452.68"/><line x1="311.99" y1="269.70" x2="354.86" y2="232.76"/><line x1="149.69" y1="466.05" x2="163.68" y2="454.74"/><line x1="401.64" y1="219.68" x2="402.97" y2="221.47"/><line x1="354.86" y1="232.76" x2="300.69" y2="350.66"/><line x1="314.24" y1="449.32" x2="316.16" y2="448.53"/><line x1="334.62" y1="213.66" x2="342.90" y2="213.24"/><line x1="363.73" y1="209.64" x2="389.89" y2="208.77"/><line x1="353.38" y1="398.89" x2="365.81" y2="403.48"/><line x1="225.56" y1="437.03" x2="54.58" y2="52.15"/><line x1="386.10" y1="438.48" x2="396.18" y2="430.75"/><line x1="307.39" y1="407.43" x2="327.10" y2="402.25"/><line x1="113.11" y1="379.64" x2="161.44" y2="363.84"/><line x1="68.32" y1="308.84" x2="68.94" y2="307.06"/><line x1="406.69" y1="302.66" x2="417.36" y2="288.96"/><line x1="357.72" y1="409.15" x2="358.90" y2="408.49"/><line x1="416.81" y1="286.07" x2="415.84" y2="282.89"/><line x1="368.29" y1="352.58" x2="366.25" y2="352.28"/><line x1="374.79" y1="416.39" x2="381.31" y2="410.86"/><line x1="59.68" y1="321.92" x2="57.97" y2="319.25"/><line x1="409.57" y1="271.78" x2="391.69" y2="300.33"/><line x1="425.99" y1="267.68" x2="422.71" y2="264.17"/><line x1="95.13" y1="204.25" x2="94.10" y2="202.17"/><line x1="380.56" y1="350.41" x2="398.81" y2="341.42"/><line x1="223.53" y1="135.19" x2="228.78" y2="134.94"/><line x1="231.80" y1="409.39" x2="230.18" y2="415.41"/><line x1="137.85" y1="179.51" x2="130.31" y2="168.75"/><line x1="58.47" y1="71.70" x2="72.71" y2="108.05"/><line x1="101.93" y1="168.63" x2="104.98" y2="177.52"/><line x1="186.07" y1="238.20" x2="181.92" y2="233.92"/><line x1="280.81" y1="183.54" x2="283.72" y2="184.33"/><line x1="84.65" y1="206.06" x2="94.10" y2="202.17"/><line x1="322.21" y1="370.24" x2="322.34" y2="368.61"/><line x1="76.22" y1="287.10" x2="79.60" y2="243.78"/><line x1="259.20" y1="173.02" x2="263.12" y2="175.48"/><line x1="96.24" y1="268.52" x2="93.96" y2="273.60"/><line x1="333.22" y1="381.66" x2="328.74" y2="380.14"/><line x1="351.45" y1="188.49" x2="350.87" y2="202.14"/><line x1="329.62" y1="182.39" x2="333.28" y2="183.28"/><line x1="283.02" y1="413.50" x2="243.06" y2="412.60"/><line x1="138.67" y1="91.24" x2="151.19" y2="89.29"/><line x1="138.13" y1="439.17" x2="127.48" y2="452.68"/><line x1="328.10" y1="194.66" x2="332.99" y2="196.01"/><line x1="80.97" y1="387.41" x2="103.17" y2="382.52"/><line x1="225.56" y1="437.03" x2="90.14" y2="105.40"/><line x1="151.19" y1="89.29" x2="152.07" y2="116.64"/><line x1="307.39" y1="407.43" x2="322.70" y2="411.53"/><line x1="299.92" y1="357.24" x2="316.98" y2="360.48"/><line x1="266.44" y1="461.23" x2="272.64" y2="476.36"/><line x1="281.43" y1="458.23" x2="297.36" y2="454.30"/><line x1="175.71" y1="474.95" x2="186.02" y2="461.56"/><line x1="353.75" y1="402.16" x2="363.57" y2="405.32"/><line x1="351.61" y1="433.17" x2="353.36" y2="432.17"/><line x1="314.60" y1="212.52" x2="325.16" y2="213.49"/><line x1="323.82" y1="445.47" x2="325.72" y2="444.72"/><line x1="109.88" y1="350.54" x2="156.36" y2="343.24"/><line x1="109.25" y1="195.84" x2="110.28" y2="205.33"/><line x1="441.31" y1="306.29" x2="458.02" y2="301.40"/><line x1="164.49" y1="376.79" x2="115.19" y2="386.19"/><line x1="415.13" y1="412.18" x2="402.41" y2="390.42"/><line x1="56.68" y1="297.42" x2="71.59" y2="299.97"/><line x1="397.52" y1="301.77" x2="396.01" y2="301.46"/><line x1="294.82" y1="355.89" x2="292.92" y2="360.20"/><line x1="55.99" y1="312.90" x2="67.74" y2="310.64"/><line x1="255.49" y1="368.86" x2="253.56" y2="370.32"/><line x1="100.15" y1="237.21" x2="83.80" y2="232.79"/><line x1="412.29" y1="275.74" x2="394.52" y2="301.11"/><line x1="376.59" y1="348.08" x2="398.74" y2="334.28"/><line x1="76.22" y1="287.10" x2="66.28" y2="269.08"/><line x1="221.87" y1="123.54" x2="223.92" y2="127.46"/><line x1="85.44" y1="211.46" x2="85.10" y2="208.80"/><line x1="83.58" y1="200.59" x2="83.19" y2="198.77"/><line x1="276.34" y1="169.54" x2="280.56" y2="171.01"/><line x1="281.88" y1="431.88" x2="276.04" y2="443.06"/><line x1="260.57" y1="441.64" x2="282.02" y2="429.36"/><line x1="220.32" y1="127.24" x2="223.92" y2="127.46"/><line x1="274.69" y1="181.37" x2="278.38" y2="182.77"/><line x1="84.92" y1="293.63" x2="108.20" y2="308.43"/><line x1="77.49" y1="314.39" x2="76.11" y2="319.88"/><line x1="251.99" y1="382.20" x2="253.72" y2="379.17"/><line x1="344.21" y1="186.24" x2="347.84" y2="187.34"/><line x1="75.27" y1="365.10" x2="76.75" y2="372.54"/><line x1="313.94" y1="373.25" x2="299.61" y2="369.79"/><line x1="326.20" y1="397.88" x2="325.75" y2="396.82"/><line x1="247.54" y1="219.82" x2="263.23" y2="196.48"/><line x1="91.83" y1="198.06" x2="75.19" y2="168.22"/><line x1="163.68" y1="454.74" x2="170.38" y2="457.26"/><line x1="305.74" y1="404.38" x2="304.30" y2="400.86"/><line x1="313.44" y1="266.59" x2="355.61" y2="211.47"/><line x1="356.54" y1="409.75" x2="353.29" y2="406.49"/><line x1="225.23" y1="438.20" x2="201.38" y2="433.96"/><line x1="319.54" y1="356.86" x2="321.02" y2="355.14"/><line x1="396.18" y1="430.75" x2="405.89" y2="421.94"/><line x1="111.59" y1="372.77" x2="110.58" y2="365.61"/><line x1="381.73" y1="376.37" x2="382.48" y2="372.82"/><line x1="366.89" y1="402.51" x2="352.88" y2="397.18"/><line x1="159.80" y1="357.10" x2="110.03" y2="358.19"/><line x1="439.90" y1="253.53" x2="430.45" y2="243.09"/><line x1="405.20" y1="302.65" x2="416.81" y2="286.07"/><line x1="364.24" y1="352.12" x2="362.30" y2="352.08"/><line x1="260.36" y1="279.72" x2="256.39" y2="279.67"/><line x1="69.58" y1="305.29" x2="70.24" y2="303.52"/><line x1="389.23" y1="242.12" x2="384.81" y2="240.21"/><line x1="82.37" y1="237.18" x2="99.17" y2="241.74"/><line x1="393.40" y1="307.96" x2="394.60" y2="310.83"/><line x1="390.36" y1="299.92" x2="389.10" y2="299.48"/><line x1="382.32" y1="351.97" x2="383.96" y2="353.69"/><line x1="190.24" y1="242.32" x2="231.80" y2="409.39"/><line x1="346.00" y1="388.34" x2="368.29" y2="352.58"/><line x1="247.82" y1="375.78" x2="227.85" y2="270.98"/><line x1="94.10" y1="202.17" x2="93.00" y2="200.11"/><line x1="215.34" y1="263.32" x2="211.16" y2="260.31"/><line x1="218.71" y1="119.30" x2="219.30" y2="123.26"/><line x1="337.16" y1="383.25" x2="340.58" y2="384.90"/><line x1="225.66" y1="139.13" x2="231.56" y2="138.49"/><line x1="263.31" y1="363.98" x2="260.36" y2="279.72"/><line x1="84.31" y1="204.23" x2="83.95" y2="202.41"/><line x1="386.81" y1="298.60" x2="369.39" y2="347.54"/><line x1="288.96" y1="173.38" x2="287.05" y2="185.16"/><line x1="201.38" y1="433.96" x2="200.18" y2="431.89"/><line x1="89.36" y1="283.62" x2="87.11" y2="288.62"/><line x1="91.83" y1="198.06" x2="80.15" y2="186.14"/><line x1="284.60" y1="397.68" x2="250.36" y2="385.24"/><line x1="73.60" y1="337.46" x2="97.82" y2="341.78"/><line x1="389.89" y1="208.77" x2="392.16" y2="210.55"/><line x1="225.23" y1="438.20" x2="216.71" y2="443.06"/><line x1="83.72" y1="394.77" x2="86.89" y2="402.03"/><line x1="360.46" y1="352.16" x2="322.21" y2="370.24"/><line x1="140.75" y1="441.46" x2="143.99" y2="443.96"/><line x1="303.05" y1="210.55" x2="298.56" y2="253.14"/><line x1="168.06" y1="112.86" x2="166.80" y2="139.44"/><line x1="316.98" y1="360.48" x2="318.19" y2="358.64"/><line x1="282.14" y1="474.84" x2="281.43" y2="458.23"/><line x1="365.34" y1="450.24" x2="359.05" y2="428.43"/><line x1="165.86" y1="382.93" x2="121.23" y2="398.23"/><line x1="167.52" y1="426.12" x2="168.85" y2="426.09"/><line x1="354.86" y1="232.76" x2="299.26" y2="348.84"/><line x1="363.57" y1="405.32" x2="364.70" y2="404.42"/><line x1="56.75" y1="316.23" x2="66.68" y2="314.30"/><line x1="423.78" y1="401.59" x2="431.73" y2="390.29"/><line x1="110.10" y1="342.70" x2="154.59" y2="336.19"/><line x1="346.00" y1="388.34" x2="382.74" y2="366.75"/><line x1="152.80" y1="329.11" x2="106.23" y2="241.48"/><line x1="363.73" y1="209.64" x2="362.60" y2="209.86"/><line x1="73.39" y1="255.25" x2="74.78" y2="252.88"/><line x1="72.29" y1="298.19" x2="57.59" y2="293.24"/><line x1="398.22" y1="327.19" x2="376.59" y2="348.08"/><line x1="390.56" y1="253.76" x2="383.39" y2="248.76"/><line x1="100.48" y1="234.95" x2="84.37" y2="230.57"/><line x1="371.97" y1="347.24" x2="396.49" y2="317.03"/><line x1="81.48" y1="125.41" x2="85.94" y2="134.00"/><line x1="306.72" y1="272.39" x2="297.26" y2="274.81"/><line x1="198.59" y1="250.07" x2="194.41" y2="246.29"/><line x1="404.85" y1="224.93" x2="361.94" y2="233.18"/><line x1="107.73" y1="235.57" x2="106.23" y2="241.48"/><line x1="225.23" y1="438.20" x2="104.98" y2="177.52"/><line x1="221.74" y1="131.22" x2="223.53" y2="135.19"/><line x1="360.46" y1="352.16" x2="343.52" y2="386.60"/><line x1="346.00" y1="388.34" x2="362.30" y2="352.08"/><line x1="225.23" y1="438.20" x2="225.56" y2="437.03"/><line x1="74.22" y1="357.69" x2="97.87" y2="360.91"/><line x1="278.38" y1="182.77" x2="280.81" y2="183.54"/><line x1="283.46" y1="408.47" x2="243.23" y2="406.53"/><line x1="76.11" y1="319.88" x2="74.98" y2="325.54"/><line x1="263.31" y1="363.98" x2="248.36" y2="278.63"/><line x1="97.87" y1="360.91" x2="75.27" y2="365.10"/><line x1="347.84" y1="187.34" x2="351.45" y2="188.49"/><line x1="324.39" y1="410.09" x2="325.08" y2="409.27"/><line x1="283.97" y1="403.18" x2="247.48" y2="391.32"/><line x1="157.72" y1="452.08" x2="163.68" y2="454.74"/><line x1="363.73" y1="209.64" x2="387.56" y2="207.03"/><line x1="134.26" y1="62.40" x2="138.67" y2="91.24"/><line x1="313.84" y1="370.87" x2="314.02" y2="368.60"/><line x1="320.00" y1="466.25" x2="316.16" y2="448.53"/><line x1="225.56" y1="437.03" x2="53.78" y2="41.91"/><line x1="357.72" y1="409.15" x2="353.54" y2="405.14"/><line x1="360.46" y1="352.16" x2="322.95" y2="365.12"/><line x1="374.79" y1="416.39" x2="396.18" y2="430.75"/><line x1="56.02" y1="301.52" x2="56.68" y2="297.42"/><line x1="415.63" y1="300.27" x2="415.51" y2="300.47"/><line x1="425.99" y1="267.68" x2="439.90" y2="253.53"/><line x1="60.04" y1="284.83" x2="75.61" y2="289.02"/><line x1="252.40" y1="279.30" x2="248.36" y2="278.63"/><line x1="430.45" y1="243.09" x2="406.98" y2="251.72"/><line x1="100.79" y1="225.97" x2="85.53" y2="223.76"/><line x1="248.36" y1="278.63" x2="261.34" y2="365.12"/><line x1="99.56" y1="217.12" x2="99.03" y2="214.94"/><line x1="186.07" y1="238.20" x2="230.18" y2="415.41"/><line x1="244.31" y1="277.65" x2="240.22" y2="276.39"/><line x1="272.45" y1="444.60" x2="270.53" y2="444.82"/><line x1="83.13" y1="234.99" x2="100.15" y2="237.21"/><line x1="396.49" y1="317.03" x2="397.21" y2="320.32"/><line x1="230.18" y1="415.41" x2="181.92" y2="233.92"/><line x1="246.26" y1="394.36" x2="247.48" y2="391.32"/><line x1="267.98" y1="166.02" x2="263.12" y2="175.48"/><line x1="283.02" y1="413.50" x2="243.39" y2="415.64"/><line x1="327.00" y1="404.41" x2="327.10" y2="403.33"/><line x1="73.42" y1="343.78" x2="73.59" y2="350.35"/><line x1="328.10" y1="194.66" x2="333.28" y2="183.28"/><line x1="225.56" y1="437.03" x2="96.13" y2="115.43"/><line x1="87.11" y1="288.62" x2="84.92" y2="293.63"/><line x1="307.39" y1="407.43" x2="321.70" y2="412.12"/><line x1="327.10" y1="403.33" x2="327.10" y2="402.25"/><line x1="354.86" y1="232.76" x2="365.61" y2="238.25"/><line x1="134.46" y1="457.58" x2="141.87" y2="462.05"/><line x1="394.34" y1="212.36" x2="396.40" y2="214.19"/><line x1="337.75" y1="197.43" x2="342.36" y2="198.92"/><line x1="86.89" y1="402.03" x2="90.48" y2="409.17"/><line x1="184.79" y1="133.33" x2="201.29" y2="150.91"/><line x1="315.94" y1="362.38" x2="316.98" y2="360.48"/><line x1="318.19" y1="358.64" x2="319.54" y2="356.86"/><line x1="314.60" y1="212.52" x2="306.36" y2="258.46"/><line x1="195.01" y1="463.20" x2="204.80" y2="464.40"/><line x1="170.62" y1="424.05" x2="171.10" y2="422.10"/><line x1="362.42" y1="406.18" x2="363.57" y2="405.32"/><line x1="164.49" y1="376.79" x2="117.88" y2="392.39"/><line x1="411.21" y1="254.58" x2="406.98" y2="251.72"/><line x1="110.62" y1="334.68" x2="111.39" y2="326.51"/><line x1="376.08" y1="355.50" x2="374.27" y2="354.48"/><line x1="353.38" y1="398.89" x2="352.88" y2="397.18"/><line x1="64.90" y1="323.94" x2="65.13" y2="321.94"/><line x1="363.49" y1="425.23" x2="368.80" y2="421.20"/><line x1="436.60" y1="285.53" x2="431.45" y2="275.17"/><line x1="55.99" y1="312.90" x2="67.19" y2="312.46"/><line x1="307.39" y1="407.43" x2="326.83" y2="400.05"/><line x1="380.52" y1="380.27" x2="381.73" y2="376.37"/><line x1="412.29" y1="275.74" x2="396.01" y2="301.46"/><line x1="452.67" y1="276.47" x2="447.27" y2="264.69"/><line x1="396.01" y1="301.46" x2="394.52" y2="301.11"/><line x1="398.54" y1="330.72" x2="398.74" y2="334.28"/><line x1="409.57" y1="271.78" x2="389.10" y2="299.48"/><line x1="77.34" y1="248.26" x2="78.51" y2="246.01"/><line x1="398.74" y1="334.28" x2="378.64" y2="349.10"/><line x1="90.31" y1="142.58" x2="94.50" y2="151.19"/><line x1="194.41" y1="246.29" x2="190.24" y2="242.32"/><line x1="274.69" y1="181.37" x2="280.56" y2="171.01"/><line x1="96.93" y1="208.48" x2="96.07" y2="206.36"/><line x1="323.22" y1="375.82" x2="322.72" y2="374.59"/><line x1="94.50" y1="151.19" x2="225.23" y2="438.20"/><line x1="251.42" y1="167.46" x2="255.28" y2="170.34"/><line x1="58.47" y1="71.70" x2="81.48" y2="125.41"/><line x1="104.52" y1="247.19" x2="102.63" y2="252.73"/><line x1="329.54" y1="347.01" x2="375.10" y2="243.59"/><line x1="344.21" y1="186.24" x2="342.36" y2="198.92"/><line x1="102.63" y1="252.73" x2="100.61" y2="258.11"/><line x1="318.18" y1="192.16" x2="323.15" y2="193.38"/><line x1="75.27" y1="365.10" x2="98.99" y2="367.81"/><line x1="76.22" y1="287.10" x2="81.53" y2="239.37"/><line x1="287.22" y1="380.80" x2="261.32" y2="367.01"/><line x1="98.99" y1="367.81" x2="76.75" y2="372.54"/><line x1="163.68" y1="454.74" x2="157.94" y2="469.56"/><line x1="126.98" y1="63.08" x2="134.26" y2="62.40"/><line x1="283.02" y1="413.50" x2="283.46" y2="408.47"/><line x1="299.58" y1="365.35" x2="299.69" y2="361.14"/><line x1="323.92" y1="393.85" x2="321.35" y2="390.43"/><line x1="157.94" y1="469.56" x2="170.38" y2="457.26"/><line x1="349.93" y1="212.44" x2="355.61" y2="211.47"/><line x1="307.39" y1="407.43" x2="324.39" y2="410.09"/><line x1="358.90" y1="408.49" x2="360.08" y2="407.78"/><line x1="266.44" y1="461.23" x2="281.43" y2="458.23"/><line x1="318.08" y1="447.75" x2="319.99" y2="446.99"/><line x1="159.80" y1="357.10" x2="110.58" y2="365.61"/><line x1="381.31" y1="410.86" x2="388.20" y2="404.65"/><line x1="69.58" y1="305.29" x2="56.02" y2="301.52"/><line x1="415.84" y1="282.89" x2="414.36" y2="279.44"/><line x1="116.00" y1="292.98" x2="102.63" y2="252.73"/><line x1="57.97" y1="319.25" x2="56.75" y2="316.23"/><line x1="422.71" y1="264.17" x2="419.12" y2="260.81"/><line x1="98.53" y1="244.01" x2="99.17" y2="241.74"/><line x1="56.68" y1="297.42" x2="57.59" y2="293.24"/><line x1="400.59" y1="302.27" x2="399.05" y2="302.04"/><line x1="289.72" y1="369.97" x2="291.23" y2="364.91"/><line x1="419.12" y1="260.81" x2="430.45" y2="243.09"/><line x1="99.17" y1="241.74" x2="83.13" y2="234.99"/><line x1="84.31" y1="204.23" x2="93.00" y2="200.11"/><line x1="386.81" y1="298.60" x2="366.62" y2="348.42"/><line x1="374.37" y1="347.44" x2="398.22" y2="327.19"/><line x1="259.39" y1="366.29" x2="244.31" y2="277.65"/><line x1="76.22" y1="287.10" x2="69.45" y2="262.49"/><line x1="93.00" y1="200.11" x2="83.95" y2="202.41"/><line x1="268.56" y1="444.71" x2="266.56" y2="444.31"/><line x1="220.08" y1="119.52" x2="218.57" y2="115.39"/><line x1="267.03" y1="177.71" x2="270.90" y2="179.67"/><line x1="89.36" y1="283.62" x2="113.34" y2="298.10"/><line x1="177.78" y1="229.50" x2="228.60" y2="422.00"/><line x1="266.56" y1="444.31" x2="264.54" y2="443.64"/><line x1="281.88" y1="431.88" x2="272.45" y2="444.60"/><line x1="284.60" y1="397.68" x2="248.85" y2="388.28"/><line x1="332.99" y1="196.01" x2="337.75" y2="197.43"/><line x1="83.72" y1="394.77" x2="106.33" y2="390.38"/><line x1="248.85" y1="388.28" x2="250.36" y2="385.24"/><line x1="327.10" y1="402.25" x2="327.01" y2="401.15"/><line x1="73.59" y1="350.35" x2="74.22" y2="357.69"/><line x1="183.52" y1="476.55" x2="191.61" y2="477.83"/><line x1="365.74" y1="193.85" x2="366.94" y2="194.39"/><line x1="327.01" y1="401.15" x2="326.83" y2="400.05"/><line x1="316.98" y1="360.48" x2="300.25" y2="353.72"/><line x1="141.87" y1="462.05" x2="149.69" y2="466.05"/><line x1="325.16" y1="213.49" x2="334.62" y2="213.66"/><line x1="327.62" y1="443.97" x2="329.53" y2="443.21"/><line x1="201.29" y1="150.91" x2="217.46" y2="165.80"/><line x1="300.25" y1="353.72" x2="318.19" y2="358.64"/><line x1="152.46" y1="449.35" x2="157.72" y2="452.08"/><line x1="297.36" y1="454.30" x2="314.24" y2="449.32"/><line x1="329.53" y1="443.21" x2="331.42" y2="442.46"/><line x1="115.19" y1="386.19" x2="113.11" y2="379.64"/><line x1="423.78" y1="401.59" x2="409.41" y2="382.50"/><line x1="313.44" y1="266.59" x2="362.60" y2="209.86"/><line x1="353.65" y1="400.55" x2="364.70" y2="404.42"/><line x1="152.80" y1="329.11" x2="107.73" y2="235.57"/><line x1="225.23" y1="438.20" x2="199.11" y2="429.59"/><line x1="310.60" y1="468.76" x2="320.00" y2="466.25"/><line x1="163.01" y1="370.42" x2="161.44" y2="363.84"/><line x1="409.41" y1="382.50" x2="431.73" y2="390.29"/><line x1="67.74" y1="310.64" x2="68.32" y2="308.84"/><line x1="363.73" y1="209.64" x2="354.86" y2="232.76"/><line x1="372.34" y1="353.67" x2="370.34" y2="353.04"/><line x1="368.80" y1="421.20" x2="374.79" y2="416.39"/><line x1="55.64" y1="309.32" x2="55.67" y2="305.51"/><line x1="402.61" y1="249.04" x2="398.17" y2="246.55"/><line x1="370.34" y1="353.04" x2="368.29" y2="352.58"/><line x1="394.52" y1="301.11" x2="393.08" y2="300.74"/><line x1="378.64" y1="349.10" x2="380.56" y2="350.41"/><line x1="447.27" y1="264.69" x2="425.99" y2="267.68"/><line x1="236.12" y1="274.85" x2="251.63" y2="371.94"/><line x1="393.08" y1="300.74" x2="409.57" y2="271.78"/><line x1="225.23" y1="438.20" x2="101.93" y2="168.63"/><line x1="221.74" y1="131.22" x2="226.24" y2="131.26"/></g></svg>