<svg xmlns="http://www.w3.org/2000/svg" width="512" height="512"><rect width="512" height="512" fill="#0a0f1a"/><text x="12" y="20" font-family="monospace" font-size="11" fill="#4a7fa5">FRONT (XZ)</text><g stroke="#00d4ff" stroke-width="0.6" opacity="0.85"><line x1="282.81" y1="302.92" x2="305.85" y2="318.85"/><line x1="306.25" y1="315.72" x2="282.81" y2="302.92"/><line x1="304.49" y1="181.16" x2="305.47" y2="186.70"/><line x1="286.73" y1="295.07" x2="286.29" y2="296.99"/><line x1="276.02" y1="196.56" x2="299.23" y2="166.88"/><line x1="271.94" y1="352.66" x2="265.25" y2="352.07"/><line x1="238.63" y1="323.90" x2="237.78" y2="323.90"/><line x1="301.37" y1="171.25" x2="303.13" y2="176.02"/><line x1="206.88" y1="407.44" x2="251.86" y2="360.49"/><line x1="274.11" y1="196.29" x2="290.64" y2="156.39"/><line x1="238.95" y1="204.35" x2="238.08" y2="207.95"/><line x1="272.04" y1="196.17" x2="244.99" y2="161.72"/><line x1="302.09" y1="334.20" x2="301.30" y2="335.76"/><line x1="280.03" y1="304.87" x2="278.38" y2="305.59"/><line x1="265.25" y1="352.07" x2="270.03" y2="306.89"/><line x1="274.55" y1="306.56" x2="272.38" y2="306.81"/><line x1="238.17" y1="173.34" x2="238.95" y2="204.35"/><line x1="278.38" y1="305.59" x2="303.36" y2="330.92"/><line x1="290.64" y1="156.39" x2="293.82" y2="159.37"/><line x1="279.89" y1="351.91" x2="272.38" y2="306.81"/><line x1="219.00" y1="197.74" x2="237.78" y2="212.20"/><line x1="240.42" y1="201.40" x2="242.47" y2="199.11"/><line x1="305.85" y1="318.85" x2="281.51" y2="303.97"/><line x1="276.02" y1="196.56" x2="277.79" y2="196.97"/><line x1="286.77" y1="207.43" x2="287.00" y2="209.40"/><line x1="480.00" y1="479.91" x2="447.51" y2="479.91"/><line x1="274.11" y1="196.29" x2="296.70" y2="162.89"/><line x1="306.25" y1="198.94" x2="285.85" y2="203.99"/><line x1="281.51" y1="303.97" x2="305.42" y2="321.74"/><line x1="244.93" y1="337.99" x2="241.46" y2="331.53"/><line x1="243.07" y1="303.92" x2="237.78" y2="323.90"/><line x1="238.17" y1="173.34" x2="242.47" y2="199.11"/><line x1="206.88" y1="197.74" x2="219.00" y2="197.74"/><line x1="282.16" y1="199.07" x2="283.32" y2="200.06"/><line x1="277.79" y1="196.97" x2="303.13" y2="176.02"/><line x1="306.25" y1="315.72" x2="286.73" y2="295.07"/><line x1="278.38" y1="305.59" x2="302.09" y2="334.20"/><line x1="238.83" y1="173.34" x2="252.15" y2="196.17"/><line x1="219.00" y1="197.74" x2="219.00" y2="360.49"/><line x1="293.82" y1="159.37" x2="296.70" y2="162.89"/><line x1="241.46" y1="331.53" x2="238.63" y2="323.90"/><line x1="283.37" y1="152.06" x2="287.15" y2="153.95"/><line x1="303.13" y1="176.02" x2="279.40" y2="197.52"/><line x1="253.81" y1="347.38" x2="253.99" y2="306.89"/><line x1="303.93" y1="328.99" x2="303.36" y2="330.92"/><line x1="306.25" y1="198.94" x2="286.77" y2="207.43"/><line x1="292.96" y1="345.87" x2="290.05" y2="347.95"/><line x1="305.42" y1="321.74" x2="280.03" y2="304.87"/><line x1="301.30" y1="335.76" x2="300.40" y2="337.32"/><line x1="219.00" y1="197.74" x2="238.95" y2="204.35"/><line x1="306.25" y1="315.72" x2="285.68" y2="298.74"/><line x1="283.95" y1="301.70" x2="282.81" y2="302.92"/><line x1="303.36" y1="330.92" x2="302.76" y2="332.63"/><line x1="238.83" y1="173.34" x2="241.63" y2="167.05"/><line x1="238.63" y1="323.90" x2="249.69" y2="306.56"/><line x1="270.03" y1="306.89" x2="253.81" y2="347.38"/><line x1="206.88" y1="150.40" x2="238.17" y2="173.34"/><line x1="245.11" y1="197.48" x2="248.34" y2="196.50"/><line x1="237.78" y1="212.20" x2="237.78" y2="290.70"/><line x1="304.95" y1="324.40" x2="304.45" y2="326.81"/><line x1="32.16" y1="32.09" x2="32.16" y2="64.58"/><line x1="279.40" y1="197.52" x2="304.49" y2="181.16"/><line x1="253.99" y1="306.89" x2="249.05" y2="343.27"/><line x1="272.38" y1="306.81" x2="271.94" y2="352.66"/><line x1="274.55" y1="306.56" x2="286.90" y2="349.65"/><line x1="249.69" y1="306.56" x2="246.05" y2="305.56"/><line x1="238.17" y1="173.34" x2="238.17" y2="150.40"/><line x1="237.78" y1="290.70" x2="206.88" y2="407.44"/><line x1="299.23" y1="166.88" x2="301.37" y2="171.25"/><line x1="283.32" y1="200.06" x2="284.31" y2="201.20"/><line x1="272.04" y1="196.17" x2="287.15" y2="153.95"/><line x1="246.05" y1="305.56" x2="243.07" y2="303.92"/><line x1="306.25" y1="315.72" x2="283.95" y2="301.70"/><line x1="304.49" y1="181.16" x2="280.86" y2="198.22"/><line x1="249.05" y1="343.27" x2="244.93" y2="337.99"/><line x1="302.76" y1="332.63" x2="302.09" y2="334.20"/><line x1="238.63" y1="323.90" x2="243.07" y2="303.92"/><line x1="280.86" y1="198.22" x2="305.47" y2="186.70"/><line x1="206.88" y1="150.40" x2="206.88" y2="197.74"/><line x1="276.55" y1="306.16" x2="300.40" y2="337.32"/><line x1="301.37" y1="171.25" x2="277.79" y2="196.97"/><line x1="287.15" y1="153.95" x2="290.64" y2="156.39"/><line x1="237.78" y1="290.70" x2="219.00" y2="360.49"/><line x1="304.45" y1="326.81" x2="278.38" y2="305.59"/><line x1="253.99" y1="306.89" x2="241.46" y2="331.53"/><line x1="302.09" y1="334.20" x2="276.55" y2="306.16"/><line x1="272.38" y1="306.81" x2="270.03" y2="306.89"/><line x1="206.88" y1="407.44" x2="238.11" y2="294.99"/><line x1="274.55" y1="306.56" x2="279.89" y2="351.91"/><line x1="242.47" y1="199.11" x2="245.11" y2="197.48"/><line x1="238.17" y1="173.34" x2="219.00" y2="197.74"/><line x1="272.04" y1="196.17" x2="253.39" y2="153.97"/><line x1="306.25" y1="315.72" x2="287.08" y2="211.54"/><line x1="278.38" y1="305.59" x2="303.93" y2="328.99"/><line x1="282.81" y1="302.92" x2="281.51" y2="303.97"/><line x1="219.00" y1="197.74" x2="238.08" y2="207.95"/><line x1="284.31" y1="201.20" x2="306.25" y2="198.94"/><line x1="306.25" y1="315.72" x2="305.85" y2="318.85"/><line x1="480.00" y1="32.02" x2="447.51" y2="32.02"/><line x1="305.47" y1="186.70" x2="282.16" y2="199.07"/><line x1="276.55" y1="306.16" x2="298.25" y2="340.39"/><line x1="274.11" y1="196.29" x2="293.82" y2="159.37"/><line x1="306.25" y1="198.94" x2="285.16" y2="202.51"/><line x1="237.78" y1="323.90" x2="206.88" y2="407.44"/><line x1="297.00" y1="341.92" x2="295.64" y2="343.43"/><line x1="253.99" y1="306.89" x2="249.69" y2="306.56"/><line x1="238.17" y1="173.34" x2="240.42" y2="201.40"/><line x1="282.16" y1="199.07" x2="306.05" y2="192.63"/><line x1="272.04" y1="196.17" x2="264.05" y2="150.10"/><line x1="244.99" y1="161.72" x2="248.91" y2="157.36"/><line x1="306.25" y1="315.72" x2="286.99" y2="292.97"/><line x1="278.38" y1="305.59" x2="302.76" y2="332.63"/><line x1="279.89" y1="351.91" x2="276.04" y2="352.47"/><line x1="238.83" y1="173.34" x2="248.34" y2="196.50"/><line x1="219.00" y1="197.74" x2="237.78" y2="290.70"/><line x1="305.85" y1="318.85" x2="305.42" y2="321.74"/><line x1="295.64" y1="343.43" x2="292.96" y2="345.87"/><line x1="243.07" y1="303.92" x2="240.76" y2="301.60"/><line x1="248.34" y1="196.50" x2="252.15" y2="196.17"/><line x1="238.08" y1="207.95" x2="237.78" y2="212.20"/><line x1="276.55" y1="306.16" x2="295.64" y2="343.43"/><line x1="248.91" y1="157.36" x2="253.39" y2="153.97"/><line x1="300.40" y1="337.32" x2="299.38" y2="338.86"/><line x1="274.11" y1="196.29" x2="276.02" y2="196.56"/><line x1="237.78" y1="323.90" x2="237.78" y2="360.49"/><line x1="206.88" y1="407.44" x2="240.76" y2="301.60"/><line x1="238.95" y1="204.35" x2="240.42" y2="201.40"/><line x1="252.15" y1="196.17" x2="272.04" y2="196.17"/><line x1="272.04" y1="196.17" x2="274.90" y2="149.88"/><line x1="306.05" y1="192.63" x2="283.32" y2="200.06"/><line x1="277.79" y1="196.97" x2="279.40" y2="197.52"/><line x1="287.08" y1="211.54" x2="287.08" y2="290.70"/><line x1="306.25" y1="315.72" x2="286.29" y2="296.99"/><line x1="238.83" y1="173.34" x2="272.04" y2="196.17"/><line x1="32.00" y1="479.98" x2="64.49" y2="479.98"/><line x1="278.38" y1="305.59" x2="276.55" y2="306.16"/><line x1="296.70" y1="162.89" x2="299.23" y2="166.88"/><line x1="245.11" y1="197.48" x2="238.83" y2="173.34"/><line x1="286.38" y1="205.63" x2="286.77" y2="207.43"/><line x1="276.55" y1="306.16" x2="274.55" y2="306.56"/><line x1="253.81" y1="347.38" x2="249.05" y2="343.27"/><line x1="299.38" y1="338.86" x2="298.25" y2="340.39"/><line x1="272.38" y1="306.81" x2="276.04" y2="352.47"/><line x1="206.88" y1="407.44" x2="239.10" y2="298.63"/><line x1="305.42" y1="321.74" x2="304.95" y2="324.40"/><line x1="64.64" y1="32.09" x2="32.16" y2="64.58"/><line x1="272.04" y1="196.17" x2="241.63" y2="167.05"/><line x1="280.03" y1="304.87" x2="304.45" y2="326.81"/><line x1="290.05" y1="347.95" x2="286.90" y2="349.65"/><line x1="272.04" y1="196.17" x2="283.37" y2="152.06"/><line x1="306.05" y1="192.63" x2="306.25" y2="198.94"/><line x1="306.25" y1="315.72" x2="284.90" y2="300.30"/><line x1="298.25" y1="340.39" x2="297.00" y2="341.92"/><line x1="238.17" y1="173.34" x2="238.83" y2="173.34"/><line x1="238.63" y1="323.90" x2="246.05" y2="305.56"/><line x1="206.88" y1="150.40" x2="238.17" y2="150.40"/><line x1="241.63" y1="167.05" x2="244.99" y2="161.72"/><line x1="276.55" y1="306.16" x2="301.30" y2="335.76"/><line x1="276.02" y1="196.56" x2="301.37" y2="171.25"/><line x1="286.77" y1="207.43" x2="306.25" y2="315.72"/><line x1="253.99" y1="306.89" x2="244.93" y2="337.99"/><line x1="272.38" y1="306.81" x2="265.25" y2="352.07"/><line x1="206.88" y1="407.44" x2="251.86" y2="407.44"/><line x1="272.04" y1="196.17" x2="248.91" y2="157.36"/><line x1="265.25" y1="352.07" x2="259.21" y2="350.32"/><line x1="306.25" y1="315.72" x2="287.00" y2="209.40"/><line x1="251.86" y1="360.49" x2="251.86" y2="407.44"/><line x1="272.04" y1="196.17" x2="274.11" y2="196.29"/><line x1="286.90" y1="349.65" x2="283.52" y2="350.97"/><line x1="480.00" y1="32.02" x2="480.00" y2="64.50"/><line x1="285.16" y1="202.51" x2="285.85" y2="203.99"/><line x1="280.86" y1="198.22" x2="282.16" y2="199.07"/><line x1="270.21" y1="149.62" x2="274.90" y2="149.88"/><line x1="276.55" y1="306.16" x2="299.38" y2="338.86"/><line x1="239.10" y1="298.63" x2="238.11" y2="294.99"/><line x1="304.45" y1="326.81" x2="303.93" y2="328.99"/><line x1="283.52" y1="350.97" x2="279.89" y2="351.91"/><line x1="253.99" y1="306.89" x2="238.63" y2="323.90"/><line x1="206.88" y1="407.44" x2="206.88" y2="360.49"/><line x1="237.78" y1="360.49" x2="251.86" y2="360.49"/><line x1="480.00" y1="479.91" x2="480.00" y2="447.42"/><line x1="306.25" y1="198.94" x2="286.38" y2="205.63"/><line x1="281.51" y1="303.97" x2="280.03" y2="304.87"/><line x1="274.90" y1="149.88" x2="279.29" y2="150.70"/><line x1="292.96" y1="345.87" x2="274.55" y2="306.56"/><line x1="272.04" y1="196.17" x2="258.43" y2="151.55"/><line x1="286.29" y1="296.99" x2="285.68" y2="298.74"/><line x1="306.25" y1="315.72" x2="287.08" y2="290.70"/><line x1="287.00" y1="209.40" x2="287.08" y2="211.54"/><line x1="284.31" y1="201.20" x2="285.16" y2="202.51"/><line x1="243.07" y1="303.92" x2="206.88" y2="407.44"/><line x1="238.17" y1="173.34" x2="245.11" y2="197.48"/><line x1="253.39" y1="153.97" x2="258.43" y2="151.55"/><line x1="237.78" y1="290.70" x2="238.11" y2="294.99"/><line x1="480.00" y1="64.50" x2="447.51" y2="32.02"/><line x1="285.85" y1="203.99" x2="286.38" y2="205.63"/><line x1="305.47" y1="186.70" x2="306.05" y2="192.63"/><line x1="285.68" y1="298.74" x2="284.90" y2="300.30"/><line x1="276.55" y1="306.16" x2="297.00" y2="341.92"/><line x1="270.03" y1="306.89" x2="259.21" y2="350.32"/><line x1="32.16" y1="32.09" x2="64.64" y2="32.09"/><line x1="219.00" y1="360.49" x2="206.88" y2="360.49"/><line x1="303.13" y1="176.02" x2="304.49" y2="181.16"/><line x1="447.51" y1="479.91" x2="480.00" y2="447.42"/><line x1="287.08" y1="290.70" x2="286.99" y2="292.97"/><line x1="306.25" y1="198.94" x2="306.25" y2="315.72"/><line x1="279.29" y1="150.70" x2="283.37" y2="152.06"/><line x1="272.04" y1="196.17" x2="270.21" y2="149.62"/><line x1="274.55" y1="306.56" x2="290.05" y2="347.95"/><line x1="259.21" y1="350.32" x2="253.81" y2="347.38"/><line x1="32.00" y1="479.98" x2="32.00" y2="447.50"/><line x1="258.43" y1="151.55" x2="264.05" y2="150.10"/><line x1="296.70" y1="162.89" x2="276.02" y2="196.56"/><line x1="276.04" y1="352.47" x2="271.94" y2="352.66"/><line x1="276.55" y1="306.16" x2="292.96" y2="345.87"/><line x1="284.90" y1="300.30" x2="283.95" y2="301.70"/><line x1="270.03" y1="306.89" x2="253.99" y2="306.89"/><line x1="219.00" y1="360.49" x2="206.88" y2="407.44"/><line x1="206.88" y1="407.44" x2="237.78" y2="360.49"/><line x1="287.15" y1="153.95" x2="274.11" y2="196.29"/><line x1="264.05" y1="150.10" x2="270.21" y2="149.62"/><line x1="279.40" y1="197.52" x2="280.86" y2="198.22"/><line x1="286.99" y1="292.97" x2="286.73" y2="295.07"/><line x1="240.76" y1="301.60" x2="239.10" y2="298.63"/><line x1="280.03" y1="304.87" x2="304.95" y2="324.40"/><line x1="274.55" y1="306.56" x2="283.52" y2="350.97"/><line x1="272.04" y1="196.17" x2="279.29" y2="150.70"/><line x1="306.05" y1="192.63" x2="284.31" y2="201.20"/><line x1="238.17" y1="173.34" x2="206.88" y2="197.74"/><line x1="32.00" y1="447.50" x2="64.49" y2="479.98"/></g></svg>