<svg xmlns="http://www.w3.org/2000/svg" width="512" height="512"><rect width="512" height="512" fill="#0a0f1a"/><text x="12" y="20" font-family="monospace" font-size="11" fill="#4a7fa5">FRONT (XZ)</text><g stroke="#00d4ff" stroke-width="0.6" opacity="0.85"><line x1="288.64" y1="173.21" x2="255.17" y2="167.02"/><line x1="280.30" y1="328.27" x2="261.91" y2="344.89"/><line x1="289.73" y1="328.35" x2="312.03" y2="341.62"/><line x1="314.46" y1="329.65" x2="291.13" y2="297.10"/><line x1="244.44" y1="250.31" x2="245.11" y2="245.56"/><line x1="281.59" y1="329.50" x2="269.56" y2="351.27"/><line x1="255.76" y1="208.72" x2="280.89" y2="214.17"/><line x1="312.03" y1="341.62" x2="313.10" y2="338.93"/><line x1="267.85" y1="252.98" x2="268.72" y2="248.28"/><line x1="271.47" y1="272.02" x2="268.93" y2="273.55"/><line x1="274.18" y1="106.48" x2="270.49" y2="103.40"/><line x1="205.70" y1="141.17" x2="205.70" y2="194.85"/><line x1="198.66" y1="327.66" x2="222.20" y2="273.68"/><line x1="269.56" y1="351.27" x2="282.97" y2="330.38"/><line x1="198.66" y1="327.66" x2="228.42" y2="284.53"/><line x1="268.93" y1="273.55" x2="266.60" y2="275.34"/><line x1="255.17" y1="167.02" x2="288.41" y2="141.26"/><line x1="230.25" y1="174.46" x2="229.44" y2="178.28"/><line x1="238.85" y1="166.13" x2="235.89" y2="167.16"/><line x1="282.97" y1="330.38" x2="271.68" y2="352.37"/><line x1="288.06" y1="292.68" x2="294.51" y2="269.11"/><line x1="290.84" y1="325.76" x2="314.46" y2="329.65"/><line x1="259.30" y1="193.78" x2="285.01" y2="197.88"/><line x1="200.83" y1="341.25" x2="218.23" y2="354.84"/><line x1="224.42" y1="280.98" x2="225.24" y2="282.08"/><line x1="229.44" y1="178.28" x2="229.17" y2="182.79"/><line x1="289.24" y1="329.08" x2="289.73" y2="328.35"/><line x1="314.46" y1="329.65" x2="291.08" y2="324.79"/><line x1="243.46" y1="96.53" x2="240.19" y2="96.87"/><line x1="225.24" y1="282.08" x2="226.19" y2="283.05"/><line x1="281.40" y1="355.06" x2="285.93" y2="331.08"/><line x1="266.73" y1="268.57" x2="243.26" y2="268.22"/><line x1="205.70" y1="141.17" x2="231.59" y2="171.33"/><line x1="285.93" y1="331.08" x2="284.14" y2="355.31"/><line x1="260.47" y1="180.97" x2="288.23" y2="179.97"/><line x1="234.73" y1="354.92" x2="236.66" y2="354.64"/><line x1="314.46" y1="294.82" x2="290.68" y2="295.58"/><line x1="250.09" y1="165.78" x2="266.45" y2="100.89"/><line x1="225.53" y1="102.02" x2="222.95" y2="103.72"/><line x1="250.09" y1="165.78" x2="231.06" y2="99.27"/><line x1="255.90" y1="339.87" x2="256.91" y2="337.90"/><line x1="288.64" y1="173.21" x2="257.08" y2="168.57"/><line x1="287.68" y1="330.58" x2="299.70" y2="353.14"/><line x1="314.46" y1="329.65" x2="291.38" y2="298.89"/><line x1="244.44" y1="250.31" x2="267.85" y2="252.98"/><line x1="222.95" y1="103.72" x2="220.55" y2="105.60"/><line x1="305.59" y1="273.40" x2="300.61" y2="270.72"/><line x1="205.70" y1="141.17" x2="229.17" y2="194.85"/><line x1="480.00" y1="32.02" x2="447.51" y2="32.02"/><line x1="255.17" y1="167.02" x2="288.64" y2="147.94"/><line x1="307.02" y1="348.47" x2="308.99" y2="346.39"/><line x1="238.85" y1="166.13" x2="205.70" y2="141.17"/><line x1="250.09" y1="165.78" x2="282.97" y2="118.80"/><line x1="199.20" y1="335.02" x2="240.02" y2="353.91"/><line x1="209.57" y1="120.76" x2="208.39" y2="123.85"/><line x1="250.09" y1="165.78" x2="246.84" y2="96.41"/><line x1="199.20" y1="335.02" x2="251.65" y2="346.32"/><line x1="289.24" y1="329.08" x2="310.66" y2="344.10"/><line x1="243.26" y1="285.72" x2="274.71" y2="300.88"/><line x1="232.62" y1="355.13" x2="234.73" y2="354.92"/><line x1="263.71" y1="346.80" x2="265.59" y2="348.50"/><line x1="291.13" y1="297.10" x2="314.46" y2="294.82"/><line x1="205.70" y1="141.17" x2="233.47" y2="168.90"/><line x1="228.24" y1="100.54" x2="225.53" y2="102.02"/><line x1="290.17" y1="327.55" x2="290.54" y2="326.69"/><line x1="243.92" y1="254.96" x2="244.44" y2="250.31"/><line x1="313.85" y1="336.04" x2="314.31" y2="332.94"/><line x1="293.77" y1="354.84" x2="287.68" y2="330.58"/><line x1="285.27" y1="292.13" x2="268.93" y2="273.55"/><line x1="199.20" y1="335.02" x2="230.35" y2="355.28"/><line x1="258.56" y1="170.74" x2="257.08" y2="168.57"/><line x1="250.09" y1="165.78" x2="270.49" y2="103.40"/><line x1="244.34" y1="352.23" x2="245.68" y2="351.49"/><line x1="199.20" y1="335.02" x2="245.68" y2="351.49"/><line x1="250.09" y1="165.78" x2="233.99" y2="98.24"/><line x1="287.68" y1="330.58" x2="296.84" y2="354.12"/><line x1="309.47" y1="277.14" x2="305.59" y2="273.40"/><line x1="259.94" y1="189.28" x2="260.34" y2="185.01"/><line x1="257.08" y1="168.57" x2="255.17" y2="167.02"/><line x1="245.68" y1="351.49" x2="246.96" y2="350.66"/><line x1="276.29" y1="354.06" x2="278.78" y2="354.64"/><line x1="305.59" y1="273.40" x2="288.06" y2="292.68"/><line x1="286.12" y1="192.86" x2="287.02" y2="188.20"/><line x1="246.89" y1="235.68" x2="271.21" y2="239.64"/><line x1="210.96" y1="117.80" x2="209.57" y2="120.76"/><line x1="205.70" y1="141.17" x2="229.17" y2="182.79"/><line x1="274.71" y1="300.88" x2="275.93" y2="298.55"/><line x1="288.75" y1="329.69" x2="307.02" y2="348.47"/><line x1="271.21" y1="239.64" x2="272.82" y2="235.68"/><line x1="480.00" y1="32.02" x2="480.00" y2="64.50"/><line x1="252.75" y1="344.91" x2="253.83" y2="343.37"/><line x1="307.02" y1="348.47" x2="289.24" y2="329.08"/><line x1="266.86" y1="263.12" x2="267.22" y2="257.92"/><line x1="285.27" y1="292.13" x2="283.71" y2="268.71"/><line x1="480.00" y1="479.91" x2="480.00" y2="447.42"/><line x1="250.09" y1="165.78" x2="285.01" y2="123.78"/><line x1="199.20" y1="335.02" x2="238.43" y2="354.31"/><line x1="253.83" y1="343.37" x2="254.87" y2="341.68"/><line x1="250.09" y1="165.78" x2="252.26" y2="96.69"/><line x1="199.20" y1="335.02" x2="250.52" y2="347.58"/><line x1="261.91" y1="344.89" x2="263.71" y2="346.80"/><line x1="283.71" y1="268.71" x2="280.34" y2="269.12"/><line x1="280.89" y1="214.17" x2="303.49" y2="235.68"/><line x1="205.81" y1="137.46" x2="205.70" y2="141.17"/><line x1="263.71" y1="346.80" x2="281.59" y2="329.50"/><line x1="313.10" y1="338.93" x2="290.17" y2="327.55"/><line x1="303.49" y1="235.68" x2="303.49" y2="214.17"/><line x1="447.51" y1="479.91" x2="480.00" y2="447.42"/><line x1="288.22" y1="330.19" x2="288.75" y2="329.69"/><line x1="290.17" y1="327.55" x2="313.85" y2="336.04"/><line x1="275.93" y1="298.55" x2="277.25" y2="296.59"/><line x1="218.23" y1="354.84" x2="225.30" y2="355.40"/><line x1="279.08" y1="326.70" x2="280.30" y2="328.27"/><line x1="266.45" y1="100.89" x2="262.07" y2="98.92"/><line x1="222.39" y1="275.38" x2="222.70" y2="276.96"/><line x1="283.48" y1="292.30" x2="281.78" y2="292.84"/><line x1="285.27" y1="292.13" x2="271.47" y2="272.02"/><line x1="199.20" y1="335.02" x2="227.91" y2="355.37"/><line x1="250.09" y1="165.78" x2="274.18" y2="106.48"/><line x1="229.17" y1="182.79" x2="229.17" y2="194.85"/><line x1="199.20" y1="335.02" x2="244.34" y2="352.23"/><line x1="273.92" y1="353.30" x2="276.29" y2="354.06"/><line x1="199.20" y1="335.02" x2="254.87" y2="341.68"/><line x1="259.94" y1="189.28" x2="286.12" y2="192.86"/><line x1="280.89" y1="214.17" x2="283.70" y2="203.27"/><line x1="243.33" y1="263.91" x2="243.55" y2="259.49"/><line x1="266.60" y1="275.34" x2="266.73" y2="268.57"/><line x1="222.13" y1="271.85" x2="222.20" y2="273.68"/><line x1="287.01" y1="355.40" x2="290.50" y2="355.26"/><line x1="260.26" y1="176.94" x2="288.64" y2="173.21"/><line x1="313.90" y1="287.85" x2="312.24" y2="281.96"/><line x1="480.00" y1="479.91" x2="447.51" y2="479.91"/><line x1="199.20" y1="335.02" x2="236.66" y2="354.64"/><line x1="290.01" y1="294.33" x2="289.14" y2="293.37"/><line x1="245.11" y1="245.56" x2="245.92" y2="240.67"/><line x1="222.20" y1="273.68" x2="222.39" y2="275.38"/><line x1="299.70" y1="353.14" x2="302.35" y2="351.86"/><line x1="268.72" y1="248.28" x2="269.84" y2="243.83"/><line x1="266.60" y1="275.34" x2="283.48" y2="292.30"/><line x1="246.89" y1="235.68" x2="222.52" y2="235.68"/><line x1="288.22" y1="330.19" x2="304.78" y2="350.31"/><line x1="271.68" y1="352.37" x2="273.92" y2="353.30"/><line x1="242.36" y1="165.78" x2="220.55" y2="105.60"/><line x1="288.41" y1="141.26" x2="287.73" y2="135.01"/><line x1="242.36" y1="165.78" x2="238.85" y2="166.13"/><line x1="218.23" y1="354.84" x2="199.20" y2="335.02"/><line x1="279.08" y1="326.70" x2="260.17" y2="342.77"/><line x1="294.51" y1="269.11" x2="287.30" y2="268.57"/><line x1="291.08" y1="324.79" x2="291.24" y2="323.75"/><line x1="254.07" y1="214.17" x2="222.52" y2="214.17"/><line x1="285.27" y1="292.13" x2="274.21" y2="270.79"/><line x1="198.66" y1="254.67" x2="198.66" y2="327.66"/><line x1="207.42" y1="127.06" x2="206.66" y2="130.40"/><line x1="226.19" y1="283.05" x2="227.25" y2="283.87"/><line x1="291.24" y1="323.75" x2="291.34" y2="322.65"/><line x1="280.89" y1="214.17" x2="258.38" y2="198.53"/><line x1="237.04" y1="97.44" x2="233.99" y2="98.24"/><line x1="227.25" y1="283.87" x2="228.42" y2="284.53"/><line x1="310.66" y1="344.10" x2="312.03" y2="341.62"/><line x1="284.14" y1="355.31" x2="287.01" y2="355.40"/><line x1="243.33" y1="263.91" x2="266.86" y2="263.12"/><line x1="212.25" y1="353.13" x2="200.83" y2="341.25"/><line x1="266.60" y1="275.34" x2="277.25" y2="296.59"/><line x1="222.13" y1="271.85" x2="198.66" y2="327.66"/><line x1="236.66" y1="354.64" x2="238.43" y2="354.31"/><line x1="243.26" y1="285.72" x2="266.73" y2="268.57"/><line x1="287.01" y1="355.40" x2="286.53" y2="331.02"/><line x1="290.68" y1="295.58" x2="313.90" y2="287.85"/><line x1="260.26" y1="176.94" x2="288.54" y2="176.41"/><line x1="242.36" y1="165.78" x2="212.55" y2="114.99"/><line x1="238.43" y1="354.31" x2="240.02" y2="353.91"/><line x1="256.91" y1="337.90" x2="234.25" y2="285.72"/><line x1="313.90" y1="287.85" x2="290.01" y2="294.33"/><line x1="258.38" y1="198.53" x2="259.30" y2="193.78"/><line x1="220.55" y1="105.60" x2="218.30" y2="107.67"/><line x1="284.41" y1="330.90" x2="285.93" y2="331.08"/><line x1="234.25" y1="285.72" x2="243.26" y2="285.72"/><line x1="285.01" y1="197.88" x2="259.94" y2="189.28"/><line x1="296.84" y1="354.12" x2="299.70" y2="353.14"/><line x1="260.34" y1="185.01" x2="260.47" y2="180.97"/><line x1="245.11" y1="245.56" x2="268.72" y2="248.28"/><line x1="246.96" y1="350.66" x2="248.19" y2="349.73"/><line x1="299.70" y1="353.14" x2="288.22" y2="330.19"/><line x1="240.19" y1="96.87" x2="237.04" y2="97.44"/><line x1="198.66" y1="327.66" x2="223.72" y2="279.77"/><line x1="288.64" y1="147.94" x2="288.41" y2="141.26"/><line x1="198.66" y1="327.66" x2="255.90" y2="339.87"/><line x1="248.19" y1="349.73" x2="249.38" y2="348.72"/><line x1="243.26" y1="268.22" x2="243.33" y2="263.91"/><line x1="300.61" y1="270.72" x2="294.51" y2="269.11"/><line x1="242.36" y1="165.78" x2="222.95" y2="103.72"/><line x1="208.39" y1="123.85" x2="207.42" y2="127.06"/><line x1="242.36" y1="165.78" x2="207.42" y2="127.06"/><line x1="279.08" y1="326.70" x2="258.50" y2="340.44"/><line x1="288.23" y1="179.97" x2="260.26" y2="176.94"/><line x1="256.91" y1="337.90" x2="277.93" y2="324.77"/><line x1="267.22" y1="257.92" x2="267.85" y2="252.98"/><line x1="254.07" y1="214.17" x2="222.52" y2="235.68"/><line x1="198.66" y1="254.67" x2="222.13" y2="254.67"/><line x1="281.59" y1="329.50" x2="267.54" y2="349.99"/><line x1="308.99" y1="346.39" x2="310.66" y2="344.10"/><line x1="282.97" y1="118.80" x2="280.48" y2="114.25"/><line x1="267.85" y1="252.98" x2="245.11" y2="245.56"/><line x1="289.14" y1="293.37" x2="288.06" y2="292.68"/><line x1="212.25" y1="353.13" x2="207.35" y2="350.30"/><line x1="198.66" y1="327.66" x2="227.25" y2="283.87"/><line x1="235.89" y1="167.16" x2="233.47" y2="168.90"/><line x1="290.54" y1="326.69" x2="290.84" y2="325.76"/><line x1="288.06" y1="292.68" x2="300.61" y2="270.72"/><line x1="242.36" y1="165.78" x2="214.31" y2="112.36"/><line x1="256.91" y1="337.90" x2="258.50" y2="340.44"/><line x1="284.41" y1="330.90" x2="281.40" y2="355.06"/><line x1="255.76" y1="208.72" x2="257.20" y2="203.50"/><line x1="260.34" y1="185.01" x2="287.73" y2="183.91"/><line x1="198.66" y1="327.66" x2="223.15" y2="278.43"/><line x1="231.06" y1="99.27" x2="228.24" y2="100.54"/><line x1="480.00" y1="64.50" x2="447.51" y2="32.02"/><line x1="198.66" y1="327.66" x2="232.62" y2="285.65"/><line x1="243.26" y1="285.72" x2="266.60" y2="275.34"/><line x1="243.55" y1="259.49" x2="243.92" y2="254.96"/><line x1="242.36" y1="165.78" x2="225.53" y2="102.02"/><line x1="282.97" y1="330.38" x2="284.41" y2="330.90"/><line x1="290.50" y1="355.26" x2="293.77" y2="354.84"/><line x1="272.82" y1="235.68" x2="303.49" y2="235.68"/><line x1="288.64" y1="173.21" x2="258.56" y2="170.74"/><line x1="271.07" y1="309.79" x2="274.71" y2="300.88"/><line x1="314.46" y1="329.65" x2="291.38" y2="321.51"/><line x1="281.59" y1="329.50" x2="265.59" y2="348.50"/><line x1="312.24" y1="281.96" x2="309.47" y2="277.14"/><line x1="277.17" y1="269.81" x2="274.21" y2="270.79"/><line x1="245.92" y1="240.67" x2="246.89" y2="235.68"/><line x1="252.84" y1="166.09" x2="250.09" y2="165.78"/><line x1="257.20" y1="203.50" x2="258.38" y2="198.53"/><line x1="198.66" y1="327.66" x2="226.19" y2="283.05"/><line x1="222.70" y1="276.96" x2="223.15" y2="278.43"/><line x1="269.84" y1="243.83" x2="271.21" y2="239.64"/><line x1="238.85" y1="166.13" x2="205.81" y2="137.46"/><line x1="257.34" y1="97.53" x2="252.26" y2="96.69"/><line x1="272.82" y1="235.68" x2="254.07" y2="214.17"/><line x1="280.18" y1="293.73" x2="278.67" y2="294.98"/><line x1="289.24" y1="329.08" x2="308.99" y2="346.39"/><line x1="225.30" y1="355.40" x2="227.91" y2="355.37"/><line x1="280.30" y1="328.27" x2="281.59" y2="329.50"/><line x1="289.73" y1="328.35" x2="290.17" y2="327.55"/><line x1="285.01" y1="123.78" x2="282.97" y2="118.80"/><line x1="287.30" y1="268.57" x2="283.71" y2="268.71"/><line x1="260.34" y1="185.01" x2="287.02" y2="188.20"/><line x1="280.34" y1="269.12" x2="277.17" y2="269.81"/><line x1="291.38" y1="321.51" x2="291.38" y2="298.89"/><line x1="205.70" y1="141.17" x2="235.89" y2="167.16"/><line x1="198.66" y1="327.66" x2="222.70" y2="276.96"/><line x1="231.06" y1="99.27" x2="242.36" y2="165.78"/><line x1="243.55" y1="259.49" x2="267.22" y2="257.92"/><line x1="313.85" y1="336.04" x2="290.54" y2="326.69"/><line x1="282.97" y1="330.38" x2="276.29" y2="354.06"/><line x1="290.50" y1="355.26" x2="287.12" y2="330.86"/><line x1="272.82" y1="235.68" x2="280.89" y2="214.17"/><line x1="262.07" y1="98.92" x2="257.34" y2="97.53"/><line x1="250.09" y1="165.78" x2="237.04" y2="97.44"/><line x1="288.64" y1="173.21" x2="259.62" y2="173.53"/><line x1="281.78" y1="292.84" x2="280.18" y2="293.73"/><line x1="314.46" y1="329.65" x2="291.34" y2="322.65"/><line x1="312.24" y1="281.96" x2="289.14" y2="293.37"/><line x1="229.17" y1="194.85" x2="205.70" y2="194.85"/><line x1="276.29" y1="354.06" x2="284.41" y2="330.90"/><line x1="32.16" y1="32.09" x2="32.16" y2="64.58"/><line x1="216.22" y1="109.92" x2="214.31" y2="112.36"/><line x1="286.12" y1="192.86" x2="260.34" y2="185.01"/><line x1="266.73" y1="268.57" x2="266.86" y2="263.12"/><line x1="245.92" y1="240.67" x2="269.84" y2="243.83"/><line x1="205.70" y1="141.17" x2="229.44" y2="178.28"/><line x1="252.84" y1="166.09" x2="286.60" y2="129.19"/><line x1="291.34" y1="322.65" x2="291.38" y2="321.51"/><line x1="285.93" y1="331.08" x2="286.53" y2="331.02"/><line x1="275.93" y1="298.55" x2="266.60" y2="275.34"/><line x1="233.99" y1="98.24" x2="231.06" y2="99.27"/><line x1="286.77" y1="292.26" x2="285.27" y2="292.13"/><line x1="228.42" y1="284.53" x2="229.71" y2="285.05"/><line x1="286.53" y1="331.02" x2="287.12" y2="330.86"/><line x1="238.85" y1="166.13" x2="206.13" y2="133.87"/><line x1="266.86" y1="263.12" x2="243.55" y2="259.49"/><line x1="260.17" y1="342.77" x2="261.91" y2="344.89"/><line x1="250.09" y1="165.78" x2="257.34" y2="97.53"/><line x1="199.20" y1="335.02" x2="249.38" y2="348.72"/><line x1="199.20" y1="335.02" x2="198.66" y2="327.66"/><line x1="289.73" y1="328.35" x2="313.10" y2="338.93"/><line x1="240.02" y1="353.91" x2="241.51" y2="353.45"/><line x1="269.56" y1="351.27" x2="271.68" y2="352.37"/><line x1="283.70" y1="203.27" x2="285.01" y2="197.88"/><line x1="290.84" y1="325.76" x2="291.08" y2="324.79"/><line x1="199.20" y1="335.02" x2="225.30" y2="355.40"/><line x1="272.82" y1="235.68" x2="255.76" y2="208.72"/><line x1="250.09" y1="165.78" x2="277.53" y2="110.11"/><line x1="199.20" y1="335.02" x2="242.95" y2="352.89"/><line x1="250.09" y1="165.78" x2="240.19" y2="96.87"/><line x1="199.20" y1="335.02" x2="253.83" y2="343.37"/><line x1="32.00" y1="479.98" x2="64.49" y2="479.98"/><line x1="281.40" y1="355.06" x2="284.14" y2="355.31"/><line x1="287.73" y1="183.91" x2="288.23" y2="179.97"/><line x1="205.70" y1="141.17" x2="230.25" y2="174.46"/><line x1="232.62" y1="285.65" x2="234.25" y2="285.72"/><line x1="286.53" y1="331.02" x2="290.50" y2="355.26"/><line x1="238.85" y1="166.13" x2="206.66" y2="130.40"/><line x1="288.54" y1="176.41" x2="288.64" y2="173.21"/><line x1="285.27" y1="292.13" x2="283.48" y2="292.30"/><line x1="199.20" y1="335.02" x2="234.73" y2="354.92"/><line x1="250.09" y1="165.78" x2="262.07" y2="98.92"/><line x1="199.20" y1="335.02" x2="248.19" y2="349.73"/><line x1="290.01" y1="294.33" x2="312.24" y2="281.96"/><line x1="250.09" y1="165.78" x2="242.36" y2="165.78"/><line x1="287.68" y1="330.58" x2="288.22" y2="330.19"/><line x1="218.30" y1="107.67" x2="216.22" y2="109.92"/><line x1="243.26" y1="285.72" x2="271.07" y2="309.79"/><line x1="277.53" y1="110.11" x2="274.18" y2="106.48"/><line x1="277.93" y1="324.77" x2="279.08" y2="326.70"/><line x1="268.72" y1="248.28" x2="245.92" y2="240.67"/><line x1="246.89" y1="235.68" x2="254.07" y2="214.17"/><line x1="288.22" y1="330.19" x2="302.35" y2="351.86"/><line x1="231.59" y1="171.33" x2="230.25" y2="174.46"/><line x1="288.41" y1="141.26" x2="252.84" y2="166.09"/><line x1="249.38" y1="348.72" x2="250.52" y2="347.58"/><line x1="283.70" y1="203.27" x2="259.30" y2="193.78"/><line x1="294.51" y1="269.11" x2="286.77" y2="292.26"/><line x1="285.27" y1="292.13" x2="277.17" y2="269.81"/><line x1="207.42" y1="127.06" x2="238.85" y2="166.13"/><line x1="258.50" y1="340.44" x2="260.17" y2="342.77"/><line x1="250.09" y1="165.78" x2="280.48" y2="114.25"/><line x1="199.20" y1="335.02" x2="241.51" y2="353.45"/><line x1="246.84" y1="96.41" x2="243.46" y2="96.53"/><line x1="250.09" y1="165.78" x2="243.46" y2="96.53"/><line x1="199.20" y1="335.02" x2="252.75" y2="344.91"/><line x1="222.52" y1="235.68" x2="222.52" y2="214.17"/><line x1="32.00" y1="479.98" x2="32.00" y2="447.50"/><line x1="280.89" y1="214.17" x2="257.20" y2="203.50"/><line x1="243.26" y1="285.72" x2="275.93" y2="298.55"/><line x1="310.66" y1="344.10" x2="289.73" y2="328.35"/><line x1="280.48" y1="114.25" x2="277.53" y2="110.11"/><line x1="266.60" y1="275.34" x2="278.67" y2="294.98"/><line x1="291.13" y1="297.10" x2="290.68" y2="295.58"/><line x1="222.13" y1="271.85" x2="222.13" y2="254.67"/><line x1="287.73" y1="183.91" x2="260.47" y2="180.97"/><line x1="274.21" y1="270.79" x2="271.47" y2="272.02"/><line x1="232.62" y1="285.65" x2="256.91" y2="337.90"/><line x1="203.55" y1="346.35" x2="200.83" y2="341.25"/><line x1="233.47" y1="168.90" x2="231.59" y2="171.33"/><line x1="267.54" y1="349.99" x2="269.56" y2="351.27"/><line x1="314.31" y1="332.94" x2="314.46" y2="329.65"/><line x1="258.38" y1="198.53" x2="283.70" y2="203.27"/><line x1="293.77" y1="354.84" x2="296.84" y2="354.12"/><line x1="285.27" y1="292.13" x2="266.60" y2="275.34"/><line x1="199.20" y1="335.02" x2="232.62" y2="355.13"/><line x1="199.20" y1="335.02" x2="246.96" y2="350.66"/><line x1="252.26" y1="96.69" x2="246.84" y2="96.41"/><line x1="246.89" y1="235.68" x2="272.82" y2="235.68"/><line x1="288.75" y1="329.69" x2="289.24" y2="329.08"/><line x1="242.36" y1="165.78" x2="208.39" y2="123.85"/><line x1="256.91" y1="337.90" x2="276.85" y2="322.50"/><line x1="267.22" y1="257.92" x2="244.44" y2="250.31"/><line x1="285.27" y1="292.13" x2="280.34" y2="269.12"/><line x1="198.66" y1="254.67" x2="222.13" y2="271.85"/><line x1="287.12" y1="330.86" x2="287.68" y2="330.58"/><line x1="280.89" y1="214.17" x2="303.49" y2="214.17"/><line x1="265.59" y1="348.50" x2="267.54" y2="349.99"/><line x1="289.14" y1="293.37" x2="305.59" y2="273.40"/><line x1="313.10" y1="338.93" x2="313.85" y2="336.04"/><line x1="212.25" y1="353.13" x2="203.55" y2="346.35"/><line x1="266.60" y1="275.34" x2="280.18" y2="293.73"/><line x1="290.54" y1="326.69" x2="314.31" y2="332.94"/><line x1="203.55" y1="346.35" x2="207.35" y2="350.30"/><line x1="242.36" y1="165.78" x2="216.22" y2="109.92"/><line x1="223.15" y1="278.43" x2="223.72" y2="279.77"/><line x1="304.78" y1="350.31" x2="307.02" y2="348.47"/><line x1="314.31" y1="332.94" x2="290.84" y2="325.76"/><line x1="256.91" y1="337.90" x2="279.08" y2="326.70"/><line x1="223.72" y1="279.77" x2="224.42" y2="280.98"/><line x1="284.41" y1="330.90" x2="278.78" y2="354.64"/><line x1="278.67" y1="294.98" x2="277.25" y2="296.59"/><line x1="286.60" y1="129.19" x2="285.01" y2="123.78"/><line x1="227.91" y1="355.37" x2="230.35" y2="355.28"/><line x1="278.78" y1="354.64" x2="281.40" y2="355.06"/><line x1="287.02" y1="188.20" x2="287.73" y2="183.91"/><line x1="230.35" y1="355.28" x2="232.62" y2="355.13"/><line x1="229.71" y1="285.05" x2="231.11" y2="285.42"/><line x1="198.66" y1="327.66" x2="231.11" y2="285.42"/><line x1="291.38" y1="298.89" x2="291.13" y2="297.10"/><line x1="242.36" y1="165.78" x2="228.24" y2="100.54"/><line x1="231.11" y1="285.42" x2="232.62" y2="285.65"/><line x1="260.26" y1="176.94" x2="259.62" y2="173.53"/><line x1="242.36" y1="165.78" x2="209.57" y2="120.76"/><line x1="256.91" y1="337.90" x2="271.07" y2="309.79"/><line x1="267.22" y1="257.92" x2="243.92" y2="254.96"/><line x1="254.87" y1="341.68" x2="255.90" y2="339.87"/><line x1="241.51" y1="353.45" x2="242.95" y2="352.89"/><line x1="287.12" y1="330.86" x2="293.77" y2="354.84"/><line x1="259.62" y1="173.53" x2="258.56" y2="170.74"/><line x1="242.95" y1="352.89" x2="244.34" y2="352.23"/><line x1="289.14" y1="293.37" x2="309.47" y2="277.14"/><line x1="214.31" y1="112.36" x2="212.55" y2="114.99"/><line x1="198.66" y1="327.66" x2="225.24" y2="282.08"/><line x1="266.60" y1="275.34" x2="281.78" y2="292.84"/><line x1="276.85" y1="322.50" x2="277.93" y2="324.77"/><line x1="269.84" y1="243.83" x2="246.89" y2="235.68"/><line x1="64.64" y1="32.09" x2="32.16" y2="64.58"/><line x1="212.55" y1="114.99" x2="210.96" y2="117.80"/><line x1="242.36" y1="165.78" x2="218.30" y2="107.67"/><line x1="304.78" y1="350.31" x2="288.75" y2="329.69"/><line x1="254.87" y1="341.68" x2="198.66" y2="327.66"/><line x1="287.73" y1="135.01" x2="286.60" y2="129.19"/><line x1="288.64" y1="173.21" x2="288.64" y2="147.94"/><line x1="254.07" y1="214.17" x2="255.76" y2="208.72"/><line x1="280.30" y1="328.27" x2="263.71" y2="346.80"/><line x1="314.46" y1="329.65" x2="314.46" y2="294.82"/><line x1="287.30" y1="268.57" x2="285.27" y2="292.13"/><line x1="281.59" y1="329.50" x2="282.97" y2="330.38"/><line x1="286.60" y1="129.19" x2="250.09" y2="165.78"/><line x1="206.66" y1="130.40" x2="206.13" y2="133.87"/><line x1="198.66" y1="327.66" x2="222.39" y2="275.38"/><line x1="206.13" y1="133.87" x2="205.81" y2="137.46"/><line x1="212.25" y1="353.13" x2="218.23" y2="354.84"/><line x1="198.66" y1="327.66" x2="229.71" y2="285.05"/><line x1="255.17" y1="167.02" x2="252.84" y2="166.09"/><line x1="243.26" y1="285.72" x2="243.26" y2="268.22"/><line x1="290.68" y1="295.58" x2="290.01" y2="294.33"/><line x1="282.97" y1="330.38" x2="273.92" y2="353.30"/><line x1="288.06" y1="292.68" x2="286.77" y2="292.26"/><line x1="242.36" y1="165.78" x2="210.96" y2="117.80"/><line x1="256.91" y1="337.90" x2="243.26" y2="285.72"/><line x1="259.30" y1="193.78" x2="259.94" y2="189.28"/><line x1="200.83" y1="341.25" x2="199.20" y2="335.02"/><line x1="270.49" y1="103.40" x2="266.45" y2="100.89"/><line x1="271.07" y1="309.79" x2="276.85" y2="322.50"/><line x1="314.46" y1="329.65" x2="291.24" y2="323.75"/><line x1="285.01" y1="197.88" x2="286.12" y2="192.86"/><line x1="32.16" y1="32.09" x2="64.64" y2="32.09"/><line x1="302.35" y1="351.86" x2="304.78" y2="350.31"/><line x1="266.73" y1="268.57" x2="243.33" y2="263.91"/><line x1="252.84" y1="166.09" x2="287.73" y2="135.01"/><line x1="250.52" y1="347.58" x2="251.65" y2="346.32"/><line x1="198.66" y1="327.66" x2="224.42" y2="280.98"/><line x1="285.93" y1="331.08" x2="287.01" y2="355.40"/><line x1="198.66" y1="327.66" x2="256.91" y2="337.90"/><line x1="286.77" y1="292.26" x2="287.30" y2="268.57"/><line x1="260.47" y1="180.97" x2="260.26" y2="176.94"/><line x1="251.65" y1="346.32" x2="252.75" y2="344.91"/><line x1="260.17" y1="342.77" x2="280.30" y2="328.27"/><line x1="314.46" y1="294.82" x2="313.90" y2="287.85"/><line x1="288.23" y1="179.97" x2="288.54" y2="176.41"/><line x1="32.00" y1="447.50" x2="64.49" y2="479.98"/></g></svg>