<svg xmlns="http://www.w3.org/2000/svg" width="512" height="512"><rect width="512" height="512" fill="#0a0f1a"/><text x="12" y="20" font-family="monospace" font-size="11" fill="#4a7fa5">FRONT (XZ)</text><g stroke="#00d4ff" stroke-width="0.6" opacity="0.85"><line x1="271.84" y1="155.63" x2="269.78" y2="152.22"/><line x1="242.13" y1="362.43" x2="246.83" y2="372.94"/><line x1="252.92" y1="133.60" x2="251.27" y2="132.31"/><line x1="280.77" y1="186.29" x2="268.78" y2="179.36"/><line x1="257.35" y1="348.85" x2="270.55" y2="349.46"/><line x1="250.50" y1="355.97" x2="253.16" y2="368.42"/><line x1="269.54" y1="313.77" x2="280.88" y2="314.76"/><line x1="242.13" y1="139.87" x2="247.99" y2="130.01"/><line x1="266.49" y1="170.07" x2="262.69" y2="161.48"/><line x1="258.64" y1="363.65" x2="260.62" y2="361.79"/><line x1="280.88" y1="314.76" x2="280.88" y2="190.49"/><line x1="246.28" y1="128.93" x2="237.63" y2="124.33"/><line x1="242.13" y1="362.43" x2="249.91" y2="370.91"/><line x1="242.94" y1="375.16" x2="245.00" y2="374.02"/><line x1="235.02" y1="123.10" x2="232.24" y2="121.84"/><line x1="480.00" y1="479.91" x2="447.51" y2="479.91"/><line x1="250.50" y1="355.97" x2="256.73" y2="365.38"/><line x1="269.54" y1="313.77" x2="269.54" y2="189.34"/><line x1="262.69" y1="161.48" x2="271.84" y2="155.63"/><line x1="238.07" y1="377.66" x2="242.13" y2="362.43"/><line x1="279.87" y1="178.12" x2="279.09" y2="174.16"/><line x1="246.28" y1="128.93" x2="242.31" y2="126.69"/><line x1="280.88" y1="190.49" x2="269.54" y2="189.34"/><line x1="257.35" y1="153.58" x2="250.50" y2="146.38"/><line x1="266.49" y1="332.63" x2="279.23" y2="329.30"/><line x1="268.78" y1="323.53" x2="280.47" y2="322.14"/><line x1="279.09" y1="174.16" x2="266.49" y2="170.07"/><line x1="250.50" y1="355.97" x2="257.35" y2="348.85"/><line x1="237.63" y1="124.33" x2="240.06" y2="125.52"/><line x1="242.13" y1="362.43" x2="240.63" y2="376.37"/><line x1="232.24" y1="134.05" x2="246.28" y2="128.93"/><line x1="256.26" y1="136.45" x2="254.58" y2="134.98"/><line x1="265.09" y1="145.72" x2="262.46" y2="142.64"/><line x1="235.27" y1="379.01" x2="232.24" y2="368.23"/><line x1="250.50" y1="146.38" x2="259.63" y2="139.67"/><line x1="249.91" y1="370.91" x2="250.50" y2="355.97"/><line x1="242.31" y1="126.69" x2="244.39" y2="127.83"/><line x1="32.16" y1="32.09" x2="32.16" y2="64.58"/><line x1="242.13" y1="139.87" x2="252.92" y2="133.60"/><line x1="266.49" y1="170.07" x2="278.07" y2="170.28"/><line x1="232.24" y1="368.23" x2="232.24" y2="380.44"/><line x1="268.78" y1="179.36" x2="280.43" y2="182.17"/><line x1="271.84" y1="155.63" x2="257.35" y2="153.58"/><line x1="242.13" y1="362.43" x2="245.00" y2="374.02"/><line x1="262.69" y1="341.07" x2="266.49" y2="332.63"/><line x1="278.07" y1="170.28" x2="276.84" y2="166.48"/><line x1="232.24" y1="134.05" x2="232.24" y2="121.84"/><line x1="276.84" y1="166.48" x2="275.37" y2="162.76"/><line x1="235.27" y1="379.01" x2="238.07" y2="377.66"/><line x1="257.35" y1="348.85" x2="265.99" y2="355.74"/><line x1="280.43" y1="182.17" x2="279.87" y2="178.12"/><line x1="250.50" y1="146.38" x2="256.26" y2="136.45"/><line x1="280.47" y1="322.14" x2="280.88" y2="314.76"/><line x1="250.50" y1="355.97" x2="251.49" y2="369.73"/><line x1="266.49" y1="170.07" x2="275.37" y2="162.76"/><line x1="245.00" y1="374.02" x2="246.83" y2="372.94"/><line x1="232.24" y1="368.23" x2="242.13" y2="362.43"/><line x1="268.78" y1="179.36" x2="279.09" y2="174.16"/><line x1="251.49" y1="369.73" x2="253.16" y2="368.42"/><line x1="242.13" y1="362.43" x2="248.41" y2="371.94"/><line x1="257.35" y1="153.58" x2="269.78" y2="152.22"/><line x1="480.00" y1="32.02" x2="447.51" y2="32.02"/><line x1="246.83" y1="372.94" x2="248.41" y2="371.94"/><line x1="275.37" y1="162.76" x2="262.69" y2="161.48"/><line x1="257.35" y1="348.85" x2="262.69" y2="341.07"/><line x1="250.50" y1="355.97" x2="254.91" y2="366.97"/><line x1="269.54" y1="313.77" x2="280.88" y2="190.49"/><line x1="269.78" y1="152.22" x2="267.54" y2="148.91"/><line x1="262.69" y1="161.48" x2="273.71" y2="159.14"/><line x1="260.62" y1="361.79" x2="265.99" y2="355.74"/><line x1="253.16" y1="368.42" x2="254.91" y2="366.97"/><line x1="242.13" y1="362.43" x2="250.50" y2="355.97"/><line x1="257.35" y1="153.58" x2="265.09" y2="145.72"/><line x1="235.02" y1="123.10" x2="237.63" y2="124.33"/><line x1="270.55" y1="349.46" x2="274.27" y2="342.97"/><line x1="254.91" y1="366.97" x2="256.73" y2="365.38"/><line x1="248.41" y1="371.94" x2="249.91" y2="370.91"/><line x1="265.99" y1="355.74" x2="270.55" y2="349.46"/><line x1="250.50" y1="355.97" x2="258.64" y2="363.65"/><line x1="240.63" y1="376.37" x2="242.94" y2="375.16"/><line x1="256.73" y1="365.38" x2="258.64" y2="363.65"/><line x1="262.69" y1="161.48" x2="257.35" y2="153.58"/><line x1="279.23" y1="329.30" x2="280.47" y2="322.14"/><line x1="273.71" y1="159.14" x2="271.84" y2="155.63"/><line x1="256.26" y1="136.45" x2="242.13" y2="139.87"/><line x1="32.00" y1="479.98" x2="64.49" y2="479.98"/><line x1="269.54" y1="189.34" x2="268.78" y2="179.36"/><line x1="250.50" y1="146.38" x2="262.46" y2="142.64"/><line x1="268.78" y1="323.53" x2="269.54" y2="313.77"/><line x1="247.99" y1="130.01" x2="246.28" y2="128.93"/><line x1="64.64" y1="32.09" x2="32.16" y2="64.58"/><line x1="274.27" y1="342.97" x2="277.16" y2="336.25"/><line x1="242.13" y1="139.87" x2="249.63" y2="131.11"/><line x1="258.64" y1="363.65" x2="257.35" y2="348.85"/><line x1="232.24" y1="134.05" x2="235.02" y2="123.10"/><line x1="235.27" y1="379.01" x2="232.24" y2="380.44"/><line x1="257.35" y1="348.85" x2="260.62" y2="361.79"/><line x1="250.50" y1="146.38" x2="257.94" y2="138.01"/><line x1="280.77" y1="186.29" x2="280.43" y2="182.17"/><line x1="262.46" y1="142.64" x2="259.63" y2="139.67"/><line x1="242.13" y1="139.87" x2="232.24" y2="134.05"/><line x1="268.78" y1="179.36" x2="279.87" y2="178.12"/><line x1="259.63" y1="139.67" x2="257.94" y2="138.01"/><line x1="232.24" y1="134.05" x2="237.63" y2="124.33"/><line x1="480.00" y1="32.02" x2="480.00" y2="64.50"/><line x1="267.54" y1="148.91" x2="265.09" y2="145.72"/><line x1="246.28" y1="128.93" x2="240.06" y2="125.52"/><line x1="266.49" y1="332.63" x2="277.16" y2="336.25"/><line x1="250.50" y1="146.38" x2="242.13" y2="139.87"/><line x1="480.00" y1="479.91" x2="480.00" y2="447.42"/><line x1="277.16" y1="336.25" x2="279.23" y2="329.30"/><line x1="251.27" y1="132.31" x2="249.63" y2="131.11"/><line x1="268.78" y1="179.36" x2="266.49" y2="170.07"/><line x1="257.94" y1="138.01" x2="256.26" y2="136.45"/><line x1="257.35" y1="153.58" x2="267.54" y2="148.91"/><line x1="238.07" y1="377.66" x2="240.63" y2="376.37"/><line x1="270.55" y1="349.46" x2="262.69" y2="341.07"/><line x1="246.28" y1="128.93" x2="244.39" y2="127.83"/><line x1="280.88" y1="190.49" x2="280.77" y2="186.29"/><line x1="480.00" y1="64.50" x2="447.51" y2="32.02"/><line x1="266.49" y1="332.63" x2="268.78" y2="323.53"/><line x1="275.37" y1="162.76" x2="273.71" y2="159.14"/><line x1="265.09" y1="145.72" x2="250.50" y2="146.38"/><line x1="249.63" y1="131.11" x2="247.99" y2="130.01"/><line x1="32.16" y1="32.09" x2="64.64" y2="32.09"/><line x1="279.09" y1="174.16" x2="278.07" y2="170.28"/><line x1="447.51" y1="479.91" x2="480.00" y2="447.42"/><line x1="242.13" y1="139.87" x2="254.58" y2="134.98"/><line x1="279.23" y1="329.30" x2="268.78" y2="323.53"/><line x1="32.00" y1="479.98" x2="32.00" y2="447.50"/><line x1="242.13" y1="362.43" x2="242.94" y2="375.16"/><line x1="262.69" y1="341.07" x2="274.27" y2="342.97"/><line x1="269.54" y1="189.34" x2="280.77" y2="186.29"/><line x1="247.99" y1="130.01" x2="232.24" y2="134.05"/><line x1="249.91" y1="370.91" x2="251.49" y2="369.73"/><line x1="280.47" y1="322.14" x2="269.54" y2="313.77"/><line x1="274.27" y1="342.97" x2="266.49" y2="332.63"/><line x1="242.13" y1="139.87" x2="251.27" y2="132.31"/><line x1="266.49" y1="170.07" x2="276.84" y2="166.48"/><line x1="254.58" y1="134.98" x2="252.92" y2="133.60"/><line x1="240.06" y1="125.52" x2="242.31" y2="126.69"/><line x1="232.24" y1="368.23" x2="238.07" y2="377.66"/><line x1="32.00" y1="447.50" x2="64.49" y2="479.98"/></g></svg>