<svg xmlns="http://www.w3.org/2000/svg" width="512" height="512"><rect width="512" height="512" fill="#0a0f1a"/><text x="12" y="20" font-family="monospace" font-size="11" fill="#4a7fa5">FRONT (XZ)</text><g stroke="#00d4ff" stroke-width="0.6" opacity="0.85"><line x1="344.85" y1="353.93" x2="337.69" y2="353.93"/><line x1="302.52" y1="297.13" x2="343.32" y2="335.79"/><line x1="305.76" y1="227.56" x2="305.38" y2="221.07"/><line x1="291.19" y1="338.88" x2="290.66" y2="339.87"/><line x1="383.24" y1="126.89" x2="384.49" y2="126.63"/><line x1="121.54" y1="276.53" x2="117.95" y2="281.57"/><line x1="177.10" y1="291.76" x2="143.94" y2="298.11"/><line x1="205.95" y1="146.43" x2="198.33" y2="131.07"/><line x1="349.88" y1="158.75" x2="346.46" y2="158.43"/><line x1="352.03" y1="349.00" x2="350.45" y2="348.77"/><line x1="275.46" y1="149.22" x2="275.71" y2="149.19"/><line x1="285.40" y1="208.68" x2="285.94" y2="214.30"/><line x1="148.64" y1="162.78" x2="142.12" y2="162.84"/><line x1="129.90" y1="189.68" x2="127.22" y2="195.51"/><line x1="201.13" y1="337.53" x2="169.46" y2="340.88"/><line x1="270.06" y1="155.84" x2="272.33" y2="159.70"/><line x1="121.97" y1="293.25" x2="124.37" y2="298.65"/><line x1="381.89" y1="134.82" x2="375.79" y2="134.54"/><line x1="375.73" y1="134.33" x2="375.69" y2="134.11"/><line x1="388.23" y1="144.64" x2="387.73" y2="146.19"/><line x1="186.46" y1="171.76" x2="177.92" y2="150.27"/><line x1="381.89" y1="134.82" x2="377.33" y2="130.43"/><line x1="257.96" y1="132.72" x2="261.30" y2="133.58"/><line x1="350.45" y1="348.77" x2="349.05" y2="348.46"/><line x1="287.32" y1="343.62" x2="286.51" y2="344.14"/><line x1="282.88" y1="171.52" x2="283.83" y2="174.41"/><line x1="377.05" y1="135.75" x2="376.85" y2="135.71"/><line x1="169.46" y1="340.88" x2="197.28" y2="333.23"/><line x1="127.62" y1="295.39" x2="129.80" y2="300.25"/><line x1="146.68" y1="187.25" x2="149.49" y2="181.66"/><line x1="396.69" y1="150.51" x2="394.62" y2="153.31"/><line x1="387.30" y1="138.13" x2="398.01" y2="133.49"/><line x1="345.92" y1="166.90" x2="345.09" y2="168.48"/><line x1="231.16" y1="135.48" x2="233.33" y2="128.80"/><line x1="342.83" y1="328.77" x2="306.25" y2="248.46"/><line x1="276.25" y1="156.12" x2="277.14" y2="157.77"/><line x1="286.51" y1="344.14" x2="285.61" y2="344.58"/><line x1="155.52" y1="156.60" x2="158.87" y2="153.90"/><line x1="285.56" y1="151.61" x2="284.24" y2="151.05"/><line x1="227.01" y1="358.53" x2="227.03" y2="351.48"/><line x1="154.77" y1="319.74" x2="148.82" y2="308.98"/><line x1="286.67" y1="268.37" x2="291.27" y2="272.80"/><line x1="160.38" y1="146.84" x2="167.37" y2="142.56"/><line x1="173.10" y1="259.25" x2="135.28" y2="253.37"/><line x1="280.73" y1="182.29" x2="281.93" y2="187.30"/><line x1="211.80" y1="142.24" x2="214.72" y2="140.60"/><line x1="385.60" y1="361.61" x2="385.92" y2="361.48"/><line x1="339.30" y1="157.40" x2="335.55" y2="156.69"/><line x1="368.31" y1="158.05" x2="366.49" y2="163.21"/><line x1="302.52" y1="297.13" x2="344.89" y2="345.50"/><line x1="233.33" y1="128.80" x2="233.60" y2="135.23"/><line x1="274.23" y1="149.90" x2="274.09" y2="150.07"/><line x1="291.70" y1="227.88" x2="291.95" y2="234.96"/><line x1="227.03" y1="351.48" x2="223.85" y2="350.56"/><line x1="121.05" y1="215.08" x2="119.75" y2="222.29"/><line x1="238.01" y1="358.16" x2="229.97" y2="352.14"/><line x1="291.27" y1="272.80" x2="285.68" y2="278.45"/><line x1="390.77" y1="126.79" x2="392.31" y2="127.24"/><line x1="376.73" y1="131.12" x2="377.33" y2="130.43"/><line x1="134.96" y1="310.14" x2="136.11" y2="311.92"/><line x1="388.71" y1="157.68" x2="384.86" y2="159.26"/><line x1="197.15" y1="154.98" x2="184.90" y2="144.91"/><line x1="205.95" y1="146.43" x2="208.88" y2="144.18"/><line x1="386.42" y1="136.71" x2="396.72" y2="130.93"/><line x1="344.89" y1="345.50" x2="344.53" y2="344.45"/><line x1="285.55" y1="355.40" x2="273.12" y2="345.31"/><line x1="276.25" y1="168.11" x2="277.90" y2="172.67"/><line x1="280.82" y1="345.68" x2="279.32" y2="345.78"/><line x1="224.32" y1="128.49" x2="227.32" y2="128.52"/><line x1="274.09" y1="150.07" x2="273.97" y2="150.25"/><line x1="281.93" y1="187.30" x2="287.34" y2="189.00"/><line x1="306.19" y1="241.25" x2="306.03" y2="234.28"/><line x1="165.38" y1="149.26" x2="168.55" y2="147.31"/><line x1="274.49" y1="327.37" x2="280.45" y2="322.68"/><line x1="212.93" y1="346.22" x2="168.93" y2="341.17"/><line x1="189.66" y1="322.52" x2="169.34" y2="339.36"/><line x1="273.81" y1="150.65" x2="273.78" y2="150.87"/><line x1="381.89" y1="134.82" x2="376.33" y2="135.43"/><line x1="377.33" y1="130.43" x2="378.07" y2="129.73"/><line x1="381.89" y1="134.82" x2="375.65" y2="133.67"/><line x1="399.30" y1="138.49" x2="388.12" y2="140.51"/><line x1="384.18" y1="150.77" x2="382.32" y2="152.28"/><line x1="342.03" y1="190.04" x2="323.10" y2="153.65"/><line x1="242.34" y1="129.71" x2="244.47" y2="136.00"/><line x1="381.89" y1="134.82" x2="380.95" y2="127.74"/><line x1="306.03" y1="234.28" x2="305.76" y2="227.56"/><line x1="279.32" y1="345.78" x2="277.71" y2="345.81"/><line x1="167.37" y1="142.56" x2="171.65" y2="145.62"/><line x1="287.34" y1="189.00" x2="283.00" y2="192.45"/><line x1="118.25" y1="237.73" x2="118.07" y2="245.96"/><line x1="282.50" y1="298.46" x2="287.36" y2="299.40"/><line x1="116.44" y1="275.28" x2="121.54" y2="276.53"/><line x1="136.89" y1="223.35" x2="138.15" y2="214.75"/><line x1="388.12" y1="140.51" x2="399.35" y2="139.71"/><line x1="385.40" y1="357.93" x2="384.04" y2="356.77"/><line x1="353.19" y1="158.94" x2="350.30" y2="164.09"/><line x1="244.47" y1="136.00" x2="245.35" y2="130.14"/><line x1="273.78" y1="150.87" x2="273.77" y2="151.09"/><line x1="136.95" y1="169.22" x2="148.64" y2="162.78"/><line x1="206.65" y1="357.32" x2="200.05" y2="356.37"/><line x1="113.76" y1="247.23" x2="118.14" y2="250.13"/><line x1="287.36" y1="299.40" x2="280.32" y2="308.37"/><line x1="396.72" y1="130.93" x2="397.41" y2="132.21"/><line x1="382.06" y1="127.26" x2="383.24" y2="126.89"/><line x1="203.02" y1="148.98" x2="205.95" y2="146.43"/><line x1="350.30" y1="164.09" x2="349.88" y2="158.75"/><line x1="344.85" y1="353.93" x2="300.42" y2="308.29"/><line x1="302.84" y1="197.58" x2="302.04" y2="192.44"/><line x1="302.52" y1="297.13" x2="343.59" y2="338.64"/><line x1="273.77" y1="151.09" x2="273.84" y2="151.34"/><line x1="289.65" y1="203.47" x2="285.40" y2="208.68"/><line x1="132.71" y1="184.24" x2="129.90" y2="189.68"/><line x1="165.96" y1="335.14" x2="164.98" y2="334.06"/><line x1="140.87" y1="324.63" x2="146.10" y2="330.26"/><line x1="383.24" y1="126.89" x2="383.73" y2="135.03"/><line x1="374.80" y1="156.34" x2="371.70" y2="157.30"/><line x1="398.17" y1="147.32" x2="388.23" y2="144.64"/><line x1="370.94" y1="356.77" x2="366.31" y2="355.74"/><line x1="205.95" y1="146.43" x2="188.22" y2="141.39"/><line x1="285.55" y1="355.40" x2="280.82" y2="345.68"/><line x1="254.69" y1="131.95" x2="257.96" y2="132.72"/><line x1="302.04" y1="192.44" x2="301.21" y2="187.65"/><line x1="285.40" y1="208.68" x2="290.31" y2="208.98"/><line x1="212.93" y1="346.22" x2="174.64" y2="349.75"/><line x1="381.89" y1="134.82" x2="377.05" y2="135.75"/><line x1="273.41" y1="338.33" x2="270.29" y2="335.10"/><line x1="121.97" y1="293.25" x2="127.62" y2="295.39"/><line x1="189.66" y1="322.52" x2="185.91" y2="316.11"/><line x1="381.89" y1="134.82" x2="375.86" y2="134.74"/><line x1="388.23" y1="144.64" x2="396.69" y2="150.51"/><line x1="381.89" y1="134.82" x2="376.73" y2="131.12"/><line x1="257.96" y1="132.72" x2="255.64" y2="140.54"/><line x1="346.85" y1="165.67" x2="345.92" y2="166.90"/><line x1="286.79" y1="225.53" x2="287.08" y2="231.15"/><line x1="153.84" y1="151.65" x2="155.52" y2="156.60"/><line x1="377.05" y1="135.75" x2="377.28" y2="135.76"/><line x1="200.09" y1="151.83" x2="188.29" y2="141.85"/><line x1="385.23" y1="135.66" x2="389.07" y2="126.51"/><line x1="480.00" y1="32.02" x2="447.51" y2="32.02"/><line x1="146.68" y1="187.25" x2="177.99" y2="195.61"/><line x1="345.92" y1="166.90" x2="339.30" y2="157.40"/><line x1="302.52" y1="297.13" x2="304.15" y2="285.57"/><line x1="251.66" y1="357.34" x2="244.08" y2="351.96"/><line x1="276.25" y1="156.12" x2="272.33" y2="159.70"/><line x1="342.83" y1="328.77" x2="306.01" y2="261.24"/><line x1="122.74" y1="208.22" x2="121.05" y2="215.08"/><line x1="154.77" y1="319.74" x2="179.50" y2="300.79"/><line x1="181.92" y1="182.78" x2="184.12" y2="177.05"/><line x1="389.07" y1="126.51" x2="390.77" y2="126.79"/><line x1="356.16" y1="354.38" x2="354.37" y2="349.23"/><line x1="211.80" y1="142.24" x2="215.39" y2="128.78"/><line x1="295.05" y1="144.54" x2="301.41" y2="146.77"/><line x1="280.03" y1="163.87" x2="280.99" y2="166.25"/><line x1="270.29" y1="335.10" x2="275.93" y2="333.29"/><line x1="277.74" y1="318.24" x2="282.44" y2="317.12"/><line x1="295.64" y1="165.94" x2="294.71" y2="163.38"/><line x1="302.52" y1="297.13" x2="300.42" y2="308.29"/><line x1="291.70" y1="227.88" x2="287.08" y2="231.15"/><line x1="307.40" y1="148.80" x2="275.98" y2="149.17"/><line x1="159.15" y1="167.00" x2="162.78" y2="162.82"/><line x1="134.96" y1="310.14" x2="132.17" y2="313.02"/><line x1="388.71" y1="157.68" x2="384.18" y2="150.77"/><line x1="386.21" y1="359.16" x2="385.40" y2="357.93"/><line x1="285.55" y1="355.40" x2="274.37" y2="345.59"/><line x1="276.25" y1="168.11" x2="281.94" y2="168.80"/><line x1="287.47" y1="248.04" x2="292.06" y2="258.03"/><line x1="165.38" y1="149.26" x2="167.37" y2="142.56"/><line x1="212.93" y1="346.22" x2="206.65" y2="357.32"/><line x1="175.24" y1="281.82" x2="173.90" y2="270.99"/><line x1="376.06" y1="135.12" x2="375.95" y2="134.93"/><line x1="381.89" y1="134.82" x2="376.49" y2="135.56"/><line x1="226.00" y1="136.49" x2="228.62" y2="135.90"/><line x1="188.29" y1="141.85" x2="203.02" y2="148.98"/><line x1="381.89" y1="134.82" x2="375.67" y2="133.90"/><line x1="342.03" y1="190.04" x2="327.59" y2="154.86"/><line x1="381.89" y1="134.82" x2="379.91" y2="128.31"/><line x1="232.69" y1="352.53" x2="229.97" y2="352.14"/><line x1="118.25" y1="237.73" x2="113.76" y2="247.23"/><line x1="140.15" y1="287.11" x2="137.44" y2="275.99"/><line x1="166.94" y1="336.22" x2="165.96" y2="335.14"/><line x1="141.95" y1="318.96" x2="144.69" y2="321.87"/><line x1="376.13" y1="161.63" x2="371.42" y2="162.52"/><line x1="279.38" y1="177.41" x2="280.73" y2="182.29"/><line x1="278.28" y1="328.07" x2="280.45" y2="322.68"/><line x1="272.15" y1="344.92" x2="271.45" y2="344.43"/><line x1="182.32" y1="135.67" x2="181.25" y2="141.14"/><line x1="191.54" y1="162.49" x2="194.28" y2="158.52"/><line x1="176.41" y1="202.80" x2="144.07" y2="193.20"/><line x1="190.20" y1="133.08" x2="187.67" y2="140.70"/><line x1="233.60" y1="135.23" x2="235.97" y2="135.14"/><line x1="373.15" y1="352.74" x2="370.94" y2="356.77"/><line x1="284.60" y1="344.96" x2="283.45" y2="345.27"/><line x1="158.87" y1="153.90" x2="162.15" y2="151.45"/><line x1="337.69" y1="353.93" x2="286.51" y2="344.14"/><line x1="220.13" y1="358.40" x2="213.34" y2="357.99"/><line x1="302.52" y1="297.13" x2="343.89" y2="341.02"/><line x1="271.45" y1="344.43" x2="271.03" y2="343.82"/><line x1="169.62" y1="340.49" x2="169.64" y2="340.23"/><line x1="168.62" y1="347.00" x2="168.68" y2="341.19"/><line x1="284.75" y1="177.55" x2="285.65" y2="181.04"/><line x1="172.84" y1="246.59" x2="172.98" y2="236.79"/><line x1="387.63" y1="138.91" x2="387.91" y2="139.70"/><line x1="140.87" y1="324.63" x2="144.69" y2="321.87"/><line x1="144.07" y1="193.20" x2="146.68" y2="187.25"/><line x1="335.55" y1="156.69" x2="331.69" y2="155.86"/><line x1="236.33" y1="129.03" x2="239.34" y2="129.33"/><line x1="370.94" y1="356.77" x2="369.45" y2="351.90"/><line x1="285.55" y1="355.40" x2="282.20" y2="345.51"/><line x1="294.29" y1="331.03" x2="293.76" y2="332.58"/><line x1="275.49" y1="154.70" x2="276.25" y2="156.12"/><line x1="168.68" y1="341.19" x2="167.27" y2="340.93"/><line x1="119.20" y1="263.04" x2="119.84" y2="267.47"/><line x1="135.46" y1="242.66" x2="136.00" y2="232.65"/><line x1="212.93" y1="346.22" x2="180.83" y2="351.92"/><line x1="350.65" y1="354.05" x2="347.84" y2="348.05"/><line x1="162.01" y1="330.65" x2="161.81" y2="330.36"/><line x1="398.87" y1="136.01" x2="399.14" y2="137.25"/><line x1="154.89" y1="331.89" x2="158.07" y2="334.73"/><line x1="212.93" y1="346.22" x2="169.15" y2="341.11"/><line x1="381.89" y1="134.82" x2="375.95" y2="134.93"/><line x1="208.88" y1="144.18" x2="211.80" y2="142.24"/><line x1="361.32" y1="163.70" x2="355.92" y2="163.99"/><line x1="293.76" y1="332.58" x2="293.23" y2="334.03"/><line x1="342.03" y1="190.04" x2="340.84" y2="211.12"/><line x1="343.06" y1="332.51" x2="342.83" y2="328.77"/><line x1="252.06" y1="349.85" x2="251.66" y2="357.34"/><line x1="286.79" y1="225.53" x2="291.70" y2="227.88"/><line x1="134.97" y1="317.19" x2="137.87" y2="321.06"/><line x1="161.81" y1="330.36" x2="154.77" y2="319.74"/><line x1="200.09" y1="151.83" x2="188.08" y2="142.18"/><line x1="480.00" y1="32.02" x2="480.00" y2="64.50"/><line x1="360.65" y1="158.90" x2="356.38" y2="159.00"/><line x1="385.70" y1="149.26" x2="388.71" y2="157.68"/><line x1="359.72" y1="350.00" x2="356.16" y2="354.38"/><line x1="268.21" y1="135.57" x2="295.05" y2="144.54"/><line x1="288.14" y1="193.50" x2="288.91" y2="198.31"/><line x1="117.95" y1="281.57" x2="119.80" y2="287.55"/><line x1="376.19" y1="135.29" x2="376.06" y2="135.12"/><line x1="399.06" y1="143.72" x2="388.37" y2="142.21"/><line x1="190.20" y1="133.08" x2="184.05" y2="140.25"/><line x1="480.00" y1="479.91" x2="480.00" y2="447.42"/><line x1="181.92" y1="182.78" x2="159.15" y2="167.00"/><line x1="337.69" y1="353.93" x2="294.83" y2="329.39"/><line x1="248.39" y1="130.66" x2="251.50" y2="131.26"/><line x1="356.16" y1="354.38" x2="356.94" y2="349.57"/><line x1="331.69" y1="155.86" x2="342.03" y2="190.04"/><line x1="337.69" y1="353.93" x2="290.09" y2="340.78"/><line x1="290.66" y1="339.87" x2="290.09" y2="340.78"/><line x1="307.40" y1="148.80" x2="279.19" y2="149.52"/><line x1="280.03" y1="163.87" x2="276.25" y2="168.11"/><line x1="142.12" y1="162.84" x2="147.76" y2="156.98"/><line x1="277.74" y1="318.24" x2="284.25" y2="311.38"/><line x1="122.67" y1="281.16" x2="124.06" y2="285.84"/><line x1="168.62" y1="347.00" x2="162.75" y2="343.68"/><line x1="143.94" y1="298.11" x2="175.24" y2="281.82"/><line x1="198.33" y1="131.07" x2="190.20" y2="133.08"/><line x1="394.86" y1="128.72" x2="395.87" y2="129.73"/><line x1="349.04" y1="164.27" x2="347.89" y2="164.79"/><line x1="223.30" y1="137.25" x2="226.00" y2="136.49"/><line x1="290.09" y1="340.78" x2="289.47" y2="341.60"/><line x1="132.22" y1="176.13" x2="127.94" y2="183.56"/><line x1="235.18" y1="352.66" x2="232.69" y2="352.53"/><line x1="124.18" y1="191.47" x2="120.99" y2="199.76"/><line x1="287.47" y1="248.04" x2="292.16" y2="250.29"/><line x1="175.24" y1="281.82" x2="140.15" y2="287.11"/><line x1="381.89" y1="134.82" x2="376.66" y2="135.65"/><line x1="447.51" y1="479.91" x2="480.00" y2="447.42"/><line x1="350.65" y1="354.05" x2="302.52" y2="297.13"/><line x1="395.87" y1="129.73" x2="396.72" y2="130.93"/><line x1="377.61" y1="155.17" x2="376.13" y2="161.63"/><line x1="346.46" y1="158.43" x2="342.94" y2="157.98"/><line x1="275.22" y1="149.28" x2="274.99" y2="149.36"/><line x1="145.20" y1="166.30" x2="141.88" y2="170.21"/><line x1="289.78" y1="154.29" x2="288.88" y2="153.55"/><line x1="127.22" y1="195.51" x2="124.79" y2="201.69"/><line x1="292.16" y1="250.29" x2="292.06" y2="258.03"/><line x1="127.94" y1="183.56" x2="135.64" y2="179.18"/><line x1="385.80" y1="126.47" x2="387.19" y2="126.42"/><line x1="375.67" y1="133.90" x2="375.65" y2="133.67"/><line x1="379.34" y1="359.49" x2="385.40" y2="357.93"/><line x1="124.37" y1="298.65" x2="126.87" y2="303.75"/><line x1="141.95" y1="318.96" x2="140.87" y2="324.63"/><line x1="188.94" y1="166.90" x2="191.54" y2="162.49"/><line x1="376.13" y1="161.63" x2="374.80" y2="156.34"/><line x1="347.84" y1="348.05" x2="346.83" y2="347.54"/><line x1="168.93" y1="341.17" x2="169.15" y2="341.11"/><line x1="279.38" y1="177.41" x2="284.75" y2="177.55"/><line x1="290.88" y1="214.89" x2="291.34" y2="221.19"/><line x1="182.32" y1="135.67" x2="179.35" y2="141.93"/><line x1="169.56" y1="340.70" x2="169.62" y2="340.49"/><line x1="129.80" y1="300.25" x2="132.25" y2="305.16"/><line x1="375.65" y1="133.67" x2="375.72" y2="133.06"/><line x1="394.62" y1="153.31" x2="391.96" y2="155.69"/><line x1="398.49" y1="134.75" x2="387.63" y2="138.91"/><line x1="267.59" y1="152.24" x2="274.04" y2="151.83"/><line x1="307.40" y1="148.80" x2="293.81" y2="161.09"/><line x1="190.20" y1="133.08" x2="187.19" y2="140.45"/><line x1="233.60" y1="135.23" x2="236.33" y2="129.03"/><line x1="337.69" y1="353.93" x2="292.71" y2="335.38"/><line x1="304.15" y1="285.57" x2="305.31" y2="273.60"/><line x1="284.60" y1="344.96" x2="285.55" y2="355.40"/><line x1="291.95" y1="234.96" x2="292.11" y2="242.42"/><line x1="307.40" y1="148.80" x2="285.56" y2="151.61"/><line x1="337.69" y1="353.93" x2="287.32" y2="343.62"/><line x1="220.13" y1="358.40" x2="216.80" y2="347.93"/><line x1="284.75" y1="177.55" x2="280.73" y2="182.29"/><line x1="285.68" y1="278.45" x2="290.59" y2="279.82"/><line x1="118.70" y1="258.67" x2="119.20" y2="263.04"/><line x1="172.84" y1="246.59" x2="135.46" y2="242.66"/><line x1="384.86" y1="159.26" x2="380.61" y2="160.54"/><line x1="186.39" y1="143.70" x2="187.44" y2="142.80"/><line x1="387.63" y1="138.91" x2="398.87" y2="136.01"/><line x1="335.55" y1="156.69" x2="343.78" y2="172.70"/><line x1="162.15" y1="151.45" x2="165.38" y2="149.26"/><line x1="273.97" y1="150.25" x2="273.88" y2="150.45"/><line x1="281.61" y1="150.13" x2="280.37" y2="149.79"/><line x1="119.75" y1="222.29" x2="118.81" y2="229.84"/><line x1="290.59" y1="279.82" x2="289.71" y2="286.59"/><line x1="378.07" y1="129.73" x2="378.94" y2="128.99"/><line x1="212.93" y1="346.22" x2="187.15" y2="353.68"/><line x1="350.65" y1="354.05" x2="349.05" y2="348.46"/><line x1="154.89" y1="331.89" x2="157.04" y2="339.78"/><line x1="361.32" y1="163.70" x2="360.65" y2="158.90"/><line x1="127.94" y1="183.56" x2="145.20" y2="166.30"/><line x1="273.88" y1="150.45" x2="273.81" y2="150.65"/><line x1="283.00" y1="192.45" x2="288.14" y2="193.50"/><line x1="186.59" y1="140.27" x2="187.19" y2="140.45"/><line x1="134.97" y1="317.19" x2="139.61" y2="316.32"/><line x1="379.34" y1="359.49" x2="386.17" y2="361.30"/><line x1="174.12" y1="218.74" x2="175.13" y2="210.51"/><line x1="378.94" y1="128.99" x2="379.91" y2="128.31"/><line x1="290.56" y1="155.07" x2="289.78" y2="154.29"/><line x1="399.35" y1="139.71" x2="399.06" y2="143.72"/><line x1="379.34" y1="359.49" x2="375.29" y2="358.01"/><line x1="277.90" y1="172.67" x2="279.38" y2="177.41"/><line x1="305.38" y1="221.07" x2="304.90" y2="214.82"/><line x1="185.91" y1="316.11" x2="161.81" y2="330.36"/><line x1="288.14" y1="193.50" x2="283.93" y2="197.73"/><line x1="307.40" y1="148.80" x2="305.38" y2="221.07"/><line x1="383.73" y1="135.03" x2="385.80" y2="126.47"/><line x1="139.77" y1="206.86" x2="141.73" y2="199.67"/><line x1="371.42" y1="162.52" x2="366.49" y2="163.21"/><line x1="307.40" y1="148.80" x2="298.51" y2="175.33"/><line x1="188.22" y1="141.39" x2="188.01" y2="141.01"/><line x1="399.06" y1="143.72" x2="388.28" y2="141.35"/><line x1="480.00" y1="479.91" x2="447.51" y2="479.91"/><line x1="117.95" y1="281.57" x2="122.67" y2="281.16"/><line x1="271.27" y1="356.15" x2="251.66" y2="357.34"/><line x1="264.91" y1="148.86" x2="274.78" y2="149.46"/><line x1="307.40" y1="148.80" x2="290.56" y2="155.07"/><line x1="337.69" y1="353.93" x2="290.66" y2="339.87"/><line x1="264.91" y1="148.86" x2="267.59" y2="152.24"/><line x1="290.31" y1="208.98" x2="290.88" y2="214.89"/><line x1="307.40" y1="148.80" x2="280.37" y2="149.79"/><line x1="337.69" y1="353.93" x2="285.55" y2="355.40"/><line x1="277.74" y1="318.24" x2="285.89" y2="305.48"/><line x1="146.10" y1="330.26" x2="151.49" y2="335.30"/><line x1="198.33" y1="131.07" x2="206.73" y2="129.64"/><line x1="255.64" y1="140.54" x2="258.95" y2="142.91"/><line x1="349.04" y1="164.27" x2="346.46" y2="158.43"/><line x1="349.05" y1="348.46" x2="347.84" y2="348.05"/><line x1="270.90" y1="343.11" x2="273.41" y2="338.33"/><line x1="274.04" y1="151.83" x2="274.39" y2="152.55"/><line x1="285.94" y1="214.30" x2="286.41" y2="219.91"/><line x1="124.18" y1="191.47" x2="127.22" y2="195.51"/><line x1="197.28" y1="333.23" x2="169.56" y2="340.70"/><line x1="387.91" y1="139.70" x2="388.12" y2="140.51"/><line x1="177.99" y1="195.61" x2="179.85" y2="188.96"/><line x1="384.49" y1="126.63" x2="385.80" y2="126.47"/><line x1="387.73" y1="146.19" x2="386.88" y2="147.73"/><line x1="366.31" y1="355.74" x2="361.38" y2="354.95"/><line x1="350.65" y1="354.05" x2="345.35" y2="346.27"/><line x1="261.30" y1="133.58" x2="264.72" y2="134.53"/><line x1="272.33" y1="159.70" x2="278.11" y2="159.63"/><line x1="265.16" y1="341.42" x2="259.08" y2="346.34"/><line x1="285.61" y1="344.58" x2="284.60" y2="344.96"/><line x1="300.35" y1="183.20" x2="299.44" y2="179.09"/><line x1="165.50" y1="340.15" x2="162.75" y2="343.68"/><line x1="364.63" y1="158.58" x2="361.32" y2="163.70"/><line x1="127.94" y1="183.56" x2="138.70" y2="174.51"/><line x1="149.49" y1="181.66" x2="152.51" y2="176.41"/><line x1="124.37" y1="298.65" x2="129.80" y2="300.25"/><line x1="379.34" y1="359.49" x2="386.21" y2="359.16"/><line x1="215.39" y1="128.78" x2="217.64" y2="139.27"/><line x1="385.92" y1="361.48" x2="386.17" y2="361.30"/><line x1="345.09" y1="168.48" x2="344.38" y2="170.42"/><line x1="185.91" y1="316.11" x2="164.12" y2="333.13"/><line x1="287.08" y1="231.15" x2="287.30" y2="236.78"/><line x1="223.85" y1="350.56" x2="220.13" y2="358.40"/><line x1="116.36" y1="217.55" x2="114.92" y2="227.04"/><line x1="385.87" y1="136.13" x2="386.42" y2="136.71"/><line x1="307.40" y1="148.80" x2="302.84" y2="197.58"/><line x1="169.15" y1="341.11" x2="169.32" y2="341.01"/><line x1="271.27" y1="356.15" x2="270.90" y2="343.11"/><line x1="264.91" y1="148.86" x2="307.40" y2="148.80"/><line x1="267.59" y1="152.24" x2="273.84" y2="151.34"/><line x1="344.53" y1="344.45" x2="344.20" y2="342.96"/><line x1="307.40" y1="148.80" x2="294.71" y2="163.38"/><line x1="337.69" y1="353.93" x2="293.23" y2="334.03"/><line x1="244.08" y1="351.96" x2="238.01" y2="358.16"/><line x1="264.91" y1="148.86" x2="274.09" y2="150.07"/><line x1="291.95" y1="234.96" x2="287.43" y2="242.40"/><line x1="307.40" y1="148.80" x2="286.77" y2="152.21"/><line x1="337.69" y1="353.93" x2="288.09" y2="343.02"/><line x1="220.13" y1="358.40" x2="220.44" y2="349.37"/><line x1="179.50" y1="300.79" x2="177.10" y2="291.76"/><line x1="382.84" y1="134.87" x2="383.73" y2="135.03"/><line x1="136.11" y1="311.92" x2="137.67" y2="313.98"/><line x1="184.12" y1="177.05" x2="166.60" y2="159.00"/><line x1="384.86" y1="159.26" x2="380.12" y2="153.78"/><line x1="186.39" y1="143.70" x2="200.09" y2="151.83"/><line x1="344.20" y1="342.96" x2="343.89" y2="341.02"/><line x1="275.93" y1="333.29" x2="274.49" y2="327.37"/><line x1="277.71" y1="345.81" x2="275.90" y2="345.75"/><line x1="173.90" y1="270.99" x2="173.10" y2="259.25"/><line x1="168.96" y1="338.75" x2="168.44" y2="338.02"/><line x1="206.73" y1="129.64" x2="215.39" y2="128.78"/><line x1="385.21" y1="361.69" x2="385.60" y2="361.61"/><line x1="227.32" y1="128.52" x2="230.33" y2="128.63"/><line x1="350.65" y1="354.05" x2="350.45" y2="348.77"/><line x1="384.04" y1="356.77" x2="382.13" y2="355.67"/><line x1="245.35" y1="130.14" x2="248.39" y2="130.66"/><line x1="188.01" y1="141.01" x2="187.67" y2="140.70"/><line x1="229.97" y1="352.14" x2="227.03" y2="351.48"/><line x1="281.94" y1="168.80" x2="282.88" y2="171.52"/><line x1="275.90" y1="345.75" x2="274.37" y2="345.59"/><line x1="292.06" y1="258.03" x2="291.77" y2="265.54"/><line x1="169.32" y1="341.01" x2="169.46" y2="340.88"/><line x1="200.05" y1="356.37" x2="193.55" y2="355.16"/><line x1="171.65" y1="145.62" x2="174.55" y2="144.16"/><line x1="280.32" y1="308.37" x2="277.74" y2="318.24"/><line x1="386.89" y1="137.39" x2="387.30" y2="138.13"/><line x1="379.34" y1="359.49" x2="385.92" y2="361.48"/><line x1="174.12" y1="218.74" x2="139.77" y2="206.86"/><line x1="228.62" y1="135.90" x2="231.16" y2="135.48"/><line x1="382.13" y1="355.67" x2="379.69" y2="354.63"/><line x1="300.42" y1="308.29" x2="337.69" y2="353.93"/><line x1="273.84" y1="151.34" x2="274.04" y2="151.83"/><line x1="193.45" y1="328.22" x2="189.66" y2="322.52"/><line x1="287.27" y1="258.23" x2="286.67" y2="268.37"/><line x1="193.55" y1="355.16" x2="187.15" y2="353.68"/><line x1="185.91" y1="316.11" x2="162.01" y2="330.65"/><line x1="307.40" y1="148.80" x2="313.01" y2="150.62"/><line x1="118.14" y1="250.13" x2="118.35" y2="254.37"/><line x1="307.40" y1="148.80" x2="305.76" y2="227.56"/><line x1="144.69" y1="321.87" x2="147.82" y2="325.06"/><line x1="383.73" y1="135.03" x2="384.49" y2="126.63"/><line x1="371.42" y1="162.52" x2="368.31" y2="158.05"/><line x1="307.40" y1="148.80" x2="299.44" y2="179.09"/><line x1="188.22" y1="141.39" x2="198.33" y2="131.07"/><line x1="337.69" y1="353.93" x2="297.86" y2="319.04"/><line x1="271.27" y1="356.15" x2="252.06" y2="349.85"/><line x1="135.28" y1="253.37" x2="172.84" y2="246.59"/><line x1="271.03" y1="343.82" x2="270.90" y2="343.11"/><line x1="264.91" y1="148.86" x2="274.99" y2="149.36"/><line x1="307.40" y1="148.80" x2="291.25" y2="155.89"/><line x1="264.91" y1="148.86" x2="275.98" y2="149.17"/><line x1="290.31" y1="208.98" x2="285.94" y2="214.30"/><line x1="118.39" y1="208.45" x2="116.36" y2="217.55"/><line x1="164.12" y1="333.13" x2="163.40" y2="332.31"/><line x1="146.10" y1="330.26" x2="151.34" y2="328.53"/><line x1="194.28" y1="158.52" x2="197.15" y2="154.98"/><line x1="148.64" y1="162.78" x2="152.11" y2="159.56"/><line x1="369.45" y1="351.90" x2="366.31" y2="355.74"/><line x1="255.64" y1="140.54" x2="261.30" y2="133.58"/><line x1="270.90" y1="343.11" x2="265.16" y2="341.42"/><line x1="184.90" y1="144.91" x2="186.39" y2="143.70"/><line x1="115.27" y1="268.71" x2="120.62" y2="271.97"/><line x1="387.91" y1="139.70" x2="399.30" y2="138.49"/><line x1="177.99" y1="195.61" x2="149.49" y2="181.66"/><line x1="355.92" y1="163.99" x2="350.30" y2="164.09"/><line x1="366.31" y1="355.74" x2="365.99" y2="351.17"/><line x1="169.34" y1="339.36" x2="168.96" y2="338.75"/><line x1="272.33" y1="159.70" x2="277.14" y2="157.77"/><line x1="127.94" y1="183.56" x2="141.88" y2="170.21"/><line x1="215.39" y1="128.78" x2="214.72" y2="140.60"/><line x1="345.09" y1="168.48" x2="335.55" y2="156.69"/><line x1="292.71" y1="335.38" x2="292.20" y2="336.65"/><line x1="138.15" y1="214.75" x2="174.12" y2="218.74"/><line x1="185.91" y1="316.11" x2="164.98" y2="334.06"/><line x1="287.08" y1="231.15" x2="291.95" y2="234.96"/><line x1="119.80" y1="287.55" x2="121.97" y2="293.25"/><line x1="116.36" y1="217.55" x2="119.75" y2="222.29"/><line x1="182.44" y1="308.90" x2="179.50" y2="300.79"/><line x1="375.29" y1="358.01" x2="370.94" y2="356.77"/><line x1="307.40" y1="148.80" x2="303.61" y2="203.05"/><line x1="354.37" y1="349.23" x2="352.03" y2="349.00"/><line x1="271.27" y1="356.15" x2="271.03" y2="343.82"/><line x1="264.91" y1="148.86" x2="301.41" y2="146.77"/><line x1="307.40" y1="148.80" x2="295.64" y2="165.94"/><line x1="147.76" y1="156.98" x2="153.84" y2="151.65"/><line x1="293.81" y1="161.09" x2="292.94" y2="159.08"/><line x1="264.91" y1="148.86" x2="274.23" y2="149.90"/><line x1="205.03" y1="341.12" x2="201.13" y2="337.53"/><line x1="349.88" y1="158.75" x2="349.04" y2="164.27"/><line x1="375.95" y1="134.93" x2="375.86" y2="134.74"/><line x1="136.11" y1="311.92" x2="134.97" y2="317.19"/><line x1="184.12" y1="177.05" x2="162.78" y2="162.82"/><line x1="252.13" y1="138.59" x2="255.64" y2="140.54"/><line x1="384.86" y1="159.26" x2="382.32" y2="152.28"/><line x1="164.98" y1="334.06" x2="164.12" y2="333.13"/><line x1="270.06" y1="155.84" x2="276.25" y2="156.12"/><line x1="129.90" y1="189.68" x2="124.18" y2="191.47"/><line x1="280.99" y1="166.25" x2="281.94" y2="168.80"/><line x1="168.55" y1="147.31" x2="171.65" y2="145.62"/><line x1="173.90" y1="270.99" x2="135.82" y2="264.74"/><line x1="301.21" y1="187.65" x2="300.35" y2="183.20"/><line x1="206.73" y1="129.64" x2="211.80" y2="142.24"/><line x1="385.21" y1="361.69" x2="384.75" y2="361.71"/><line x1="342.94" y1="157.98" x2="339.30" y2="157.40"/><line x1="227.32" y1="128.52" x2="228.62" y2="135.90"/><line x1="323.10" y1="153.65" x2="318.25" y2="152.24"/><line x1="127.62" y1="295.39" x2="124.37" y2="298.65"/><line x1="229.97" y1="352.14" x2="227.01" y2="358.53"/><line x1="396.69" y1="150.51" x2="387.73" y2="146.19"/><line x1="292.06" y1="258.03" x2="287.27" y2="258.23"/><line x1="118.07" y1="245.96" x2="118.14" y2="250.13"/><line x1="180.67" y1="148.19" x2="183.00" y2="146.40"/><line x1="167.27" y1="340.93" x2="165.50" y2="340.15"/><line x1="386.89" y1="137.39" x2="397.41" y2="132.21"/><line x1="280.45" y1="322.68" x2="277.74" y2="318.24"/><line x1="160.38" y1="146.84" x2="165.38" y2="149.26"/><line x1="280.73" y1="182.29" x2="286.51" y2="184.86"/><line x1="287.88" y1="152.86" x2="286.77" y2="152.21"/><line x1="193.45" y1="328.22" x2="169.56" y2="339.86"/><line x1="339.30" y1="157.40" x2="345.09" y2="168.48"/><line x1="185.91" y1="316.11" x2="162.34" y2="331.08"/><line x1="307.40" y1="148.80" x2="306.03" y2="234.28"/><line x1="144.69" y1="321.87" x2="146.10" y2="330.26"/><line x1="262.04" y1="145.71" x2="264.91" y2="148.86"/><line x1="235.97" y1="135.14" x2="240.33" y2="135.36"/><line x1="371.42" y1="162.52" x2="371.70" y2="157.30"/><line x1="274.39" y1="163.78" x2="276.25" y2="168.11"/><line x1="121.05" y1="215.08" x2="116.36" y2="217.55"/><line x1="390.77" y1="126.79" x2="385.87" y2="136.13"/><line x1="271.27" y1="356.15" x2="259.08" y2="346.34"/><line x1="264.91" y1="148.86" x2="275.22" y2="149.28"/><line x1="181.25" y1="141.14" x2="182.82" y2="140.58"/><line x1="386.42" y1="136.71" x2="395.87" y2="129.73"/><line x1="172.98" y1="236.79" x2="173.41" y2="227.50"/><line x1="375.93" y1="132.43" x2="376.26" y2="131.78"/><line x1="224.32" y1="128.49" x2="226.00" y2="136.49"/><line x1="294.71" y1="163.38" x2="293.81" y2="161.09"/><line x1="239.34" y1="129.33" x2="242.34" y2="129.71"/><line x1="148.64" y1="162.78" x2="127.94" y2="183.56"/><line x1="273.81" y1="150.65" x2="267.59" y2="152.24"/><line x1="306.01" y1="261.24" x2="306.25" y2="248.46"/><line x1="293.23" y1="334.03" x2="292.71" y2="335.38"/><line x1="132.17" y1="313.02" x2="136.11" y2="311.92"/><line x1="216.80" y1="347.93" x2="212.93" y2="346.22"/><line x1="384.18" y1="150.77" x2="384.86" y2="159.26"/><line x1="284.29" y1="288.48" x2="282.50" y2="298.46"/><line x1="115.27" y1="268.71" x2="119.84" y2="267.47"/><line x1="136.00" y1="232.65" x2="136.89" y2="223.35"/><line x1="387.91" y1="139.70" x2="399.14" y2="137.25"/><line x1="167.37" y1="142.56" x2="168.55" y2="147.31"/><line x1="480.00" y1="64.50" x2="447.51" y2="32.02"/><line x1="355.92" y1="163.99" x2="353.19" y2="158.94"/><line x1="174.71" y1="138.82" x2="182.32" y2="135.67"/><line x1="283.93" y1="197.73" x2="284.73" y2="203.14"/><line x1="279.19" y1="149.52" x2="278.06" y2="149.33"/><line x1="167.77" y1="337.18" x2="166.94" y2="336.22"/><line x1="327.59" y1="154.86" x2="323.10" y2="153.65"/><line x1="380.95" y1="127.74" x2="382.06" y2="127.26"/><line x1="248.41" y1="137.08" x2="252.13" y2="138.59"/><line x1="113.76" y1="247.23" x2="118.07" y2="245.96"/><line x1="356.94" y1="349.57" x2="354.37" y2="349.23"/><line x1="273.12" y1="345.31" x2="272.15" y2="344.92"/><line x1="396.72" y1="130.93" x2="386.89" y2="137.39"/><line x1="288.91" y1="198.31" x2="289.65" y2="203.47"/><line x1="177.92" y1="150.27" x2="180.67" y2="148.19"/><line x1="175.13" y1="210.51" x2="176.41" y2="202.80"/><line x1="288.88" y1="153.55" x2="287.88" y2="152.86"/><line x1="119.80" y1="287.55" x2="125.71" y2="290.59"/><line x1="375.29" y1="358.01" x2="373.15" y2="352.74"/><line x1="251.50" y1="131.26" x2="254.69" y2="131.95"/><line x1="274.39" y1="152.55" x2="274.87" y2="153.51"/><line x1="289.47" y1="341.60" x2="288.80" y2="342.35"/><line x1="147.76" y1="156.98" x2="152.11" y2="159.56"/><line x1="374.80" y1="156.34" x2="371.42" y2="162.52"/><line x1="205.03" y1="341.12" x2="169.32" y2="341.01"/><line x1="141.73" y1="199.67" x2="144.07" y2="193.20"/><line x1="188.01" y1="141.01" x2="190.20" y2="133.08"/><line x1="179.35" y1="141.93" x2="181.25" y2="141.14"/><line x1="347.89" y1="164.79" x2="346.85" y2="165.67"/><line x1="270.06" y1="155.84" x2="275.49" y2="154.70"/><line x1="148.64" y1="162.78" x2="145.20" y2="166.30"/><line x1="189.66" y1="322.52" x2="167.77" y2="337.18"/><line x1="120.99" y1="199.76" x2="118.39" y2="208.45"/><line x1="381.89" y1="134.82" x2="376.26" y2="131.78"/><line x1="179.85" y1="188.96" x2="181.92" y2="182.78"/><line x1="384.52" y1="135.29" x2="385.23" y2="135.66"/><line x1="173.90" y1="270.99" x2="137.44" y2="275.99"/><line x1="361.38" y1="354.95" x2="356.16" y2="354.38"/><line x1="206.73" y1="129.64" x2="208.88" y2="144.18"/><line x1="289.71" y1="286.59" x2="288.63" y2="293.12"/><line x1="258.95" y1="142.91" x2="262.04" y2="145.71"/><line x1="346.83" y1="347.54" x2="345.99" y2="346.95"/><line x1="274.78" y1="149.46" x2="274.58" y2="149.58"/><line x1="162.75" y1="343.68" x2="160.90" y2="337.06"/><line x1="286.41" y1="219.91" x2="286.79" y2="225.53"/><line x1="342.83" y1="328.77" x2="305.31" y2="273.60"/><line x1="386.88" y1="147.73" x2="385.70" y2="149.26"/><line x1="180.67" y1="148.19" x2="194.28" y2="158.52"/><line x1="264.72" y1="134.53" x2="268.21" y2="135.57"/><line x1="154.77" y1="319.74" x2="182.44" y2="308.90"/><line x1="160.38" y1="146.84" x2="162.15" y2="151.45"/><line x1="280.73" y1="182.29" x2="285.65" y2="181.04"/><line x1="193.45" y1="328.22" x2="169.64" y2="340.23"/><line x1="295.05" y1="144.54" x2="264.91" y2="148.86"/><line x1="386.34" y1="361.07" x2="386.45" y2="360.78"/><line x1="302.52" y1="297.13" x2="344.85" y2="353.93"/><line x1="235.97" y1="135.14" x2="239.34" y2="129.33"/><line x1="238.01" y1="358.16" x2="232.69" y2="352.53"/><line x1="274.39" y1="163.78" x2="280.03" y2="163.87"/><line x1="159.15" y1="167.00" x2="184.12" y2="177.05"/><line x1="160.90" y1="337.06" x2="158.07" y2="334.73"/><line x1="163.38" y1="338.86" x2="160.90" y2="337.06"/><line x1="114.92" y1="227.04" x2="114.05" y2="236.94"/><line x1="205.95" y1="146.43" x2="206.73" y2="129.64"/><line x1="386.42" y1="136.71" x2="394.86" y2="128.72"/><line x1="285.55" y1="355.40" x2="275.90" y2="345.75"/><line x1="172.98" y1="236.79" x2="136.00" y2="232.65"/><line x1="276.25" y1="168.11" x2="280.99" y2="166.25"/><line x1="224.32" y1="128.49" x2="223.30" y2="137.25"/><line x1="208.96" y1="344.02" x2="205.03" y2="341.12"/><line x1="274.49" y1="327.37" x2="278.28" y2="328.07"/><line x1="287.43" y1="242.40" x2="287.47" y2="248.04"/><line x1="216.80" y1="347.93" x2="213.34" y2="357.99"/><line x1="226.00" y1="136.49" x2="227.32" y2="128.52"/><line x1="381.89" y1="134.82" x2="375.69" y2="134.11"/><line x1="275.98" y1="149.17" x2="276.99" y2="149.21"/><line x1="381.89" y1="134.82" x2="378.94" y2="128.99"/><line x1="380.12" y1="153.78" x2="377.61" y2="155.17"/><line x1="379.69" y1="354.63" x2="376.69" y2="353.65"/><line x1="187.44" y1="142.80" x2="188.08" y2="142.18"/><line x1="153.84" y1="151.65" x2="160.38" y2="146.84"/><line x1="140.15" y1="287.11" x2="173.90" y2="270.99"/><line x1="174.71" y1="138.82" x2="177.12" y2="142.93"/><line x1="283.93" y1="197.73" x2="288.91" y2="198.31"/><line x1="167.77" y1="337.18" x2="185.91" y2="316.11"/><line x1="274.99" y1="149.36" x2="274.78" y2="149.46"/><line x1="387.30" y1="138.13" x2="387.63" y2="138.91"/><line x1="139.61" y1="316.32" x2="141.95" y2="318.96"/><line x1="248.41" y1="137.08" x2="251.50" y2="131.26"/><line x1="227.01" y1="358.53" x2="220.13" y2="358.40"/><line x1="280.45" y1="322.68" x2="282.44" y2="317.12"/><line x1="273.12" y1="345.31" x2="271.27" y2="356.15"/><line x1="191.54" y1="162.49" x2="180.67" y2="148.19"/><line x1="119.80" y1="287.55" x2="124.06" y2="285.84"/><line x1="175.13" y1="210.51" x2="141.73" y2="199.67"/><line x1="302.52" y1="297.13" x2="344.20" y2="342.96"/><line x1="169.62" y1="340.49" x2="193.45" y2="328.22"/><line x1="126.87" y1="303.75" x2="129.47" y2="308.53"/><line x1="302.52" y1="297.13" x2="342.83" y2="328.77"/><line x1="375.72" y1="133.06" x2="375.93" y2="132.43"/><line x1="274.39" y1="152.55" x2="270.06" y2="155.84"/><line x1="238.01" y1="358.16" x2="227.01" y2="358.53"/><line x1="180.83" y1="351.92" x2="174.64" y2="349.75"/><line x1="236.33" y1="129.03" x2="235.97" y2="135.14"/><line x1="118.35" y1="254.37" x2="118.70" y2="258.67"/><line x1="305.31" y1="273.60" x2="306.01" y2="261.24"/><line x1="285.55" y1="355.40" x2="283.45" y2="345.27"/><line x1="197.15" y1="154.98" x2="200.09" y2="151.83"/><line x1="32.16" y1="32.09" x2="32.16" y2="64.58"/><line x1="274.49" y1="327.37" x2="277.74" y2="318.24"/><line x1="119.20" y1="263.04" x2="115.27" y2="268.71"/><line x1="135.46" y1="242.66" x2="172.98" y2="236.79"/><line x1="398.87" y1="136.01" x2="387.91" y2="139.70"/><line x1="189.66" y1="322.52" x2="168.44" y2="338.02"/><line x1="381.89" y1="134.82" x2="376.06" y2="135.12"/><line x1="173.41" y1="227.50" x2="174.12" y2="218.74"/><line x1="120.99" y1="199.76" x2="124.79" y2="201.69"/><line x1="162.80" y1="331.63" x2="162.34" y2="331.08"/><line x1="381.89" y1="134.82" x2="375.93" y2="132.43"/><line x1="151.34" y1="328.53" x2="154.89" y2="331.89"/><line x1="179.85" y1="188.96" x2="155.73" y2="171.53"/><line x1="220.44" y1="349.37" x2="216.80" y2="347.93"/><line x1="342.03" y1="190.04" x2="313.01" y2="150.62"/><line x1="280.37" y1="149.79" x2="279.19" y2="149.52"/><line x1="361.38" y1="354.95" x2="359.72" y2="350.00"/><line x1="289.71" y1="286.59" x2="284.29" y2="288.48"/><line x1="258.95" y1="142.91" x2="264.72" y2="134.53"/><line x1="157.04" y1="339.78" x2="158.07" y2="334.73"/><line x1="200.09" y1="151.83" x2="187.44" y2="142.80"/><line x1="360.65" y1="158.90" x2="355.92" y2="163.99"/><line x1="343.89" y1="341.02" x2="343.59" y2="338.64"/><line x1="388.12" y1="140.51" x2="388.28" y2="141.35"/><line x1="342.83" y1="328.77" x2="304.15" y2="285.57"/><line x1="217.64" y1="139.27" x2="220.51" y2="138.17"/><line x1="168.44" y1="338.02" x2="167.77" y2="337.18"/><line x1="187.19" y1="140.45" x2="187.67" y2="140.70"/><line x1="379.91" y1="128.31" x2="380.95" y2="127.74"/><line x1="136.95" y1="169.22" x2="132.22" y2="176.13"/><line x1="287.36" y1="299.40" x2="285.89" y2="305.48"/><line x1="132.17" y1="313.02" x2="134.97" y2="317.19"/><line x1="248.39" y1="130.66" x2="248.41" y2="137.08"/><line x1="148.82" y1="308.98" x2="143.94" y2="298.11"/><line x1="304.90" y1="214.82" x2="304.31" y2="208.81"/><line x1="302.52" y1="297.13" x2="343.06" y2="332.51"/><line x1="122.67" y1="281.16" x2="119.80" y2="287.55"/><line x1="238.01" y1="358.16" x2="235.18" y2="352.66"/><line x1="388.28" y1="141.35" x2="388.37" y2="142.21"/><line x1="297.86" y1="319.04" x2="294.83" y2="329.39"/><line x1="114.92" y1="227.04" x2="118.81" y2="229.84"/><line x1="166.60" y1="159.00" x2="177.92" y2="150.27"/><line x1="285.55" y1="355.40" x2="277.71" y2="345.81"/><line x1="113.93" y1="254.68" x2="114.43" y2="261.84"/><line x1="285.89" y1="305.48" x2="284.25" y2="311.38"/><line x1="292.08" y1="157.35" x2="291.25" y2="155.89"/><line x1="212.93" y1="346.22" x2="168.68" y2="341.19"/><line x1="381.89" y1="134.82" x2="376.85" y2="135.71"/><line x1="201.13" y1="337.53" x2="197.28" y2="333.23"/><line x1="346.46" y1="158.43" x2="347.89" y2="164.79"/><line x1="381.89" y1="134.82" x2="375.73" y2="134.33"/><line x1="350.65" y1="354.05" x2="344.85" y2="353.93"/><line x1="381.89" y1="134.82" x2="378.07" y2="129.73"/><line x1="230.33" y1="128.63" x2="233.33" y2="128.80"/><line x1="127.22" y1="195.51" x2="120.99" y2="199.76"/><line x1="379.69" y1="354.63" x2="375.29" y2="358.01"/><line x1="385.80" y1="126.47" x2="384.52" y2="135.29"/><line x1="153.84" y1="151.65" x2="158.87" y2="153.90"/><line x1="365.99" y1="351.17" x2="362.74" y2="350.53"/><line x1="174.71" y1="138.82" x2="174.55" y2="144.16"/><line x1="385.23" y1="135.66" x2="385.87" y2="136.13"/><line x1="135.82" y1="264.74" x2="135.28" y2="253.37"/><line x1="299.44" y1="179.09" x2="298.51" y2="175.33"/><line x1="387.30" y1="138.13" x2="398.49" y2="134.75"/><line x1="290.88" y1="214.89" x2="286.41" y2="219.91"/><line x1="251.66" y1="357.34" x2="238.01" y2="358.16"/><line x1="313.01" y1="150.62" x2="340.84" y2="211.12"/><line x1="129.80" y1="300.25" x2="126.87" y2="303.75"/><line x1="227.01" y1="358.53" x2="223.85" y2="350.56"/><line x1="394.62" y1="153.31" x2="386.88" y2="147.73"/><line x1="386.17" y1="361.30" x2="386.34" y2="361.07"/><line x1="286.67" y1="268.37" x2="285.68" y2="278.45"/><line x1="278.11" y1="159.63" x2="279.07" y2="161.67"/><line x1="183.00" y1="146.40" x2="184.90" y2="144.91"/><line x1="158.87" y1="153.90" x2="160.38" y2="146.84"/><line x1="368.31" y1="158.05" x2="364.63" y2="158.58"/><line x1="302.52" y1="297.13" x2="344.53" y2="344.45"/><line x1="376.66" y1="135.65" x2="376.49" y2="135.56"/><line x1="392.31" y1="127.24" x2="393.67" y2="127.89"/><line x1="32.00" y1="479.98" x2="64.49" y2="479.98"/><line x1="126.87" y1="303.75" x2="132.25" y2="305.16"/><line x1="169.56" y1="339.86" x2="169.34" y2="339.36"/><line x1="335.55" y1="156.69" x2="344.38" y2="170.42"/><line x1="119.75" y1="222.29" x2="114.92" y2="227.04"/><line x1="285.55" y1="355.40" x2="271.27" y2="356.15"/><line x1="212.93" y1="346.22" x2="193.55" y2="355.16"/><line x1="281.93" y1="187.30" x2="283.00" y2="192.45"/><line x1="381.89" y1="134.82" x2="376.19" y2="135.29"/><line x1="173.41" y1="227.50" x2="138.15" y2="214.75"/><line x1="188.29" y1="141.85" x2="188.22" y2="141.39"/><line x1="381.89" y1="134.82" x2="375.72" y2="133.06"/><line x1="399.30" y1="138.49" x2="399.35" y2="139.71"/><line x1="342.03" y1="190.04" x2="318.25" y2="152.24"/><line x1="242.34" y1="129.71" x2="245.35" y2="130.14"/><line x1="134.97" y1="317.19" x2="137.67" y2="313.98"/><line x1="127.94" y1="183.56" x2="124.18" y2="191.47"/><line x1="379.34" y1="359.49" x2="379.69" y2="354.63"/><line x1="282.50" y1="298.46" x2="280.32" y2="308.37"/><line x1="277.90" y1="172.67" x2="283.83" y2="174.41"/><line x1="274.37" y1="345.59" x2="273.12" y2="345.31"/><line x1="353.19" y1="158.94" x2="349.88" y2="158.75"/><line x1="217.64" y1="139.27" x2="224.32" y2="128.49"/><line x1="397.41" y1="132.21" x2="398.01" y2="133.49"/><line x1="182.32" y1="135.67" x2="184.05" y2="140.25"/><line x1="139.77" y1="206.86" x2="175.13" y2="210.51"/><line x1="137.67" y1="313.98" x2="139.61" y2="316.32"/><line x1="176.41" y1="202.80" x2="177.99" y2="195.61"/><line x1="337.69" y1="353.93" x2="291.19" y2="338.88"/><line x1="291.77" y1="265.54" x2="291.27" y2="272.80"/><line x1="187.15" y1="353.68" x2="180.83" y2="351.92"/><line x1="307.40" y1="148.80" x2="281.61" y2="150.13"/><line x1="337.69" y1="353.93" x2="284.60" y2="344.96"/><line x1="168.62" y1="347.00" x2="165.50" y2="340.15"/><line x1="289.65" y1="203.47" x2="290.31" y2="208.98"/><line x1="198.33" y1="131.07" x2="188.01" y2="141.01"/><line x1="398.17" y1="147.32" x2="396.69" y2="150.51"/><line x1="166.60" y1="159.00" x2="186.46" y2="171.76"/><line x1="285.55" y1="355.40" x2="279.32" y2="345.78"/><line x1="285.94" y1="214.30" x2="290.88" y2="214.89"/><line x1="113.93" y1="254.68" x2="118.35" y2="254.37"/><line x1="163.40" y1="332.31" x2="162.80" y2="331.63"/><line x1="168.68" y1="341.19" x2="168.93" y2="341.17"/><line x1="387.73" y1="146.19" x2="394.62" y2="153.31"/><line x1="212.93" y1="346.22" x2="168.62" y2="347.00"/><line x1="350.65" y1="354.05" x2="345.99" y2="346.95"/><line x1="261.30" y1="133.58" x2="258.95" y2="142.91"/><line x1="381.89" y1="134.82" x2="377.28" y2="135.76"/><line x1="286.51" y1="184.86" x2="287.34" y2="189.00"/><line x1="212.93" y1="346.22" x2="208.96" y2="344.02"/><line x1="265.16" y1="341.42" x2="273.41" y2="338.33"/><line x1="230.33" y1="128.63" x2="231.16" y2="135.48"/><line x1="376.85" y1="135.71" x2="376.66" y2="135.65"/><line x1="252.06" y1="349.85" x2="244.08" y2="351.96"/><line x1="149.49" y1="181.66" x2="179.85" y2="188.96"/><line x1="379.34" y1="359.49" x2="386.49" y2="360.44"/><line x1="240.33" y1="135.36" x2="244.47" y2="136.00"/><line x1="365.99" y1="351.17" x2="361.38" y2="354.95"/><line x1="200.09" y1="151.83" x2="203.02" y2="148.98"/><line x1="385.23" y1="135.66" x2="390.77" y2="126.79"/><line x1="135.82" y1="264.74" x2="173.10" y2="259.25"/><line x1="277.14" y1="157.77" x2="278.11" y2="159.63"/><line x1="288.63" y1="293.12" x2="287.36" y2="299.40"/><line x1="120.62" y1="271.97" x2="121.54" y2="276.53"/><line x1="385.87" y1="136.13" x2="392.31" y2="127.24"/><line x1="169.15" y1="341.11" x2="205.03" y2="341.12"/><line x1="214.72" y1="140.60" x2="217.64" y2="139.27"/><line x1="267.59" y1="152.24" x2="273.77" y2="151.09"/><line x1="399.06" y1="143.72" x2="398.17" y2="147.32"/><line x1="292.20" y1="336.65" x2="291.68" y2="337.81"/><line x1="190.20" y1="133.08" x2="185.83" y2="140.17"/><line x1="337.69" y1="353.93" x2="293.76" y2="332.58"/><line x1="278.11" y1="159.63" x2="274.39" y2="163.78"/><line x1="356.16" y1="354.38" x2="350.65" y2="354.05"/><line x1="183.00" y1="146.40" x2="197.15" y2="154.98"/><line x1="291.95" y1="234.96" x2="287.30" y2="236.78"/><line x1="337.69" y1="353.93" x2="288.80" y2="342.35"/><line x1="382.84" y1="134.87" x2="383.24" y2="126.89"/><line x1="179.50" y1="300.79" x2="148.82" y2="308.98"/><line x1="307.40" y1="148.80" x2="287.88" y2="152.86"/><line x1="307.40" y1="148.80" x2="276.99" y2="149.21"/><line x1="392.31" y1="127.24" x2="386.42" y2="136.71"/><line x1="32.00" y1="479.98" x2="32.00" y2="447.50"/><line x1="169.56" y1="339.86" x2="189.66" y2="322.52"/><line x1="301.41" y1="146.77" x2="307.40" y2="148.80"/><line x1="292.94" y1="159.08" x2="292.08" y2="157.35"/><line x1="287.30" y1="236.78" x2="287.43" y2="242.40"/><line x1="375.86" y1="134.74" x2="375.79" y2="134.54"/><line x1="162.78" y1="162.82" x2="166.60" y2="159.00"/><line x1="287.47" y1="248.04" x2="287.27" y2="258.23"/><line x1="212.93" y1="346.22" x2="200.05" y2="356.37"/><line x1="350.65" y1="354.05" x2="352.03" y2="349.00"/><line x1="382.32" y1="152.28" x2="380.12" y2="153.78"/><line x1="173.41" y1="227.50" x2="136.89" y2="223.35"/><line x1="281.94" y1="168.80" x2="277.90" y2="172.67"/><line x1="188.29" y1="141.85" x2="205.95" y2="146.43"/><line x1="265.16" y1="341.42" x2="270.29" y2="335.10"/><line x1="169.32" y1="341.01" x2="201.13" y2="337.53"/><line x1="171.65" y1="145.62" x2="174.71" y2="138.82"/><line x1="375.79" y1="134.54" x2="375.73" y2="134.33"/><line x1="125.71" y1="290.59" x2="127.62" y2="295.39"/><line x1="379.34" y1="359.49" x2="385.60" y2="361.61"/><line x1="127.94" y1="183.56" x2="129.90" y2="189.68"/><line x1="228.62" y1="135.90" x2="230.33" y2="128.63"/><line x1="379.34" y1="359.49" x2="382.13" y2="355.67"/><line x1="318.25" y1="152.24" x2="313.01" y2="150.62"/><line x1="288.09" y1="343.02" x2="287.32" y2="343.62"/><line x1="152.11" y1="159.56" x2="155.52" y2="156.60"/><line x1="277.90" y1="172.67" x2="282.88" y2="171.52"/><line x1="287.27" y1="258.23" x2="291.77" y2="265.54"/><line x1="118.14" y1="250.13" x2="113.93" y2="254.68"/><line x1="137.44" y1="275.99" x2="135.82" y2="264.74"/><line x1="397.41" y1="132.21" x2="387.30" y2="138.13"/><line x1="182.32" y1="135.67" x2="182.82" y2="140.58"/><line x1="345.35" y1="346.27" x2="344.89" y2="345.50"/><line x1="307.40" y1="148.80" x2="300.35" y2="183.20"/><line x1="274.58" y1="149.58" x2="274.40" y2="149.73"/><line x1="267.59" y1="152.24" x2="270.06" y2="155.84"/><line x1="176.41" y1="202.80" x2="146.68" y2="187.25"/><line x1="307.40" y1="148.80" x2="292.08" y2="157.35"/><line x1="286.77" y1="152.21" x2="285.56" y2="151.61"/><line x1="118.39" y1="208.45" x2="121.05" y2="215.08"/><line x1="373.15" y1="352.74" x2="369.45" y2="351.90"/><line x1="337.69" y1="353.93" x2="291.68" y2="337.81"/><line x1="264.91" y1="148.86" x2="273.81" y2="150.65"/><line x1="291.77" y1="265.54" x2="286.67" y2="268.37"/><line x1="307.40" y1="148.80" x2="282.89" y2="150.55"/><line x1="337.69" y1="353.93" x2="285.61" y2="344.58"/><line x1="146.10" y1="330.26" x2="147.82" y2="325.06"/><line x1="194.28" y1="158.52" x2="183.00" y2="146.40"/><line x1="285.68" y1="278.45" x2="284.29" y2="288.48"/><line x1="168.62" y1="347.00" x2="167.27" y2="340.93"/><line x1="371.70" y1="157.30" x2="368.31" y2="158.05"/><line x1="274.40" y1="149.73" x2="274.23" y2="149.90"/><line x1="285.65" y1="181.04" x2="286.51" y2="184.86"/><line x1="182.82" y1="140.58" x2="184.05" y2="140.25"/><line x1="275.93" y1="333.29" x2="278.28" y2="328.07"/><line x1="129.47" y1="308.53" x2="132.17" y2="313.02"/><line x1="376.26" y1="131.78" x2="376.73" y2="131.12"/><line x1="147.82" y1="325.06" x2="151.34" y2="328.53"/><line x1="306.25" y1="248.46" x2="306.19" y2="241.25"/><line x1="350.65" y1="354.05" x2="346.83" y2="347.54"/><line x1="213.34" y1="357.99" x2="206.65" y2="357.32"/><line x1="286.51" y1="184.86" x2="281.93" y2="187.30"/><line x1="184.05" y1="140.25" x2="184.95" y2="140.14"/><line x1="119.84" y1="267.47" x2="120.62" y2="271.97"/><line x1="399.14" y1="137.25" x2="399.30" y2="138.49"/><line x1="379.34" y1="359.49" x2="386.45" y2="360.78"/><line x1="240.33" y1="135.36" x2="242.34" y2="129.71"/><line x1="278.06" y1="149.33" x2="276.99" y2="149.21"/><line x1="385.70" y1="149.26" x2="384.18" y2="150.77"/><line x1="359.72" y1="350.00" x2="356.94" y2="349.57"/><line x1="185.91" y1="316.11" x2="165.96" y2="335.14"/><line x1="288.63" y1="293.12" x2="282.50" y2="298.46"/><line x1="120.62" y1="271.97" x2="116.44" y2="275.28"/><line x1="185.91" y1="316.11" x2="182.44" y2="308.90"/><line x1="307.40" y1="148.80" x2="304.31" y2="208.81"/><line x1="169.15" y1="341.11" x2="208.96" y2="344.02"/><line x1="356.38" y1="159.00" x2="353.19" y2="158.94"/><line x1="354.37" y1="349.23" x2="350.65" y2="354.05"/><line x1="271.27" y1="356.15" x2="271.45" y2="344.43"/><line x1="267.59" y1="152.24" x2="273.78" y2="150.87"/><line x1="399.06" y1="143.72" x2="388.40" y2="143.09"/><line x1="284.73" y1="203.14" x2="285.40" y2="208.68"/><line x1="307.40" y1="148.80" x2="296.58" y2="168.78"/><line x1="337.69" y1="353.93" x2="294.29" y2="331.03"/><line x1="264.91" y1="148.86" x2="274.40" y2="149.73"/><line x1="307.40" y1="148.80" x2="288.88" y2="153.55"/><line x1="190.20" y1="133.08" x2="184.95" y2="140.14"/><line x1="331.69" y1="155.86" x2="327.59" y2="154.86"/><line x1="337.69" y1="353.93" x2="289.47" y2="341.60"/><line x1="382.84" y1="134.87" x2="382.06" y2="127.26"/><line x1="307.40" y1="148.80" x2="278.06" y2="149.33"/><line x1="388.40" y1="143.09" x2="388.23" y2="144.64"/><line x1="138.70" y1="174.51" x2="135.64" y2="179.18"/><line x1="252.13" y1="138.59" x2="257.96" y2="132.72"/><line x1="143.94" y1="298.11" x2="140.15" y2="287.11"/><line x1="303.61" y1="203.05" x2="302.84" y2="197.58"/><line x1="288.80" y1="342.35" x2="288.09" y2="343.02"/><line x1="114.43" y1="261.84" x2="115.27" y2="268.71"/><line x1="135.64" y1="179.18" x2="132.71" y2="184.24"/><line x1="124.06" y1="285.84" x2="125.71" y2="290.59"/><line x1="385.21" y1="361.69" x2="379.34" y2="359.49"/><line x1="197.28" y1="333.23" x2="193.45" y2="328.22"/><line x1="342.94" y1="157.98" x2="345.92" y2="166.90"/><line x1="377.61" y1="155.17" x2="374.80" y2="156.34"/><line x1="124.79" y1="201.69" x2="122.74" y2="208.22"/><line x1="162.75" y1="343.68" x2="157.04" y2="339.78"/><line x1="387.19" y1="126.42" x2="389.07" y2="126.51"/><line x1="125.71" y1="290.59" x2="121.97" y2="293.25"/><line x1="379.34" y1="359.49" x2="384.75" y2="361.71"/><line x1="127.94" y1="183.56" x2="132.71" y2="184.24"/><line x1="345.99" y1="346.95" x2="345.35" y2="346.27"/><line x1="379.34" y1="359.49" x2="384.04" y2="356.77"/><line x1="291.34" y1="221.19" x2="291.70" y2="227.88"/><line x1="152.11" y1="159.56" x2="153.84" y2="151.65"/><line x1="132.25" y1="305.16" x2="134.96" y2="310.14"/><line x1="185.91" y1="316.11" x2="162.80" y2="331.63"/><line x1="391.96" y1="155.69" x2="388.71" y2="157.68"/><line x1="307.40" y1="148.80" x2="306.19" y2="241.25"/><line x1="262.04" y1="145.71" x2="295.05" y2="144.54"/><line x1="345.35" y1="346.27" x2="302.52" y2="297.13"/><line x1="307.40" y1="148.80" x2="301.21" y2="187.65"/><line x1="190.20" y1="133.08" x2="182.32" y2="135.67"/><line x1="283.45" y1="345.27" x2="282.20" y2="345.51"/><line x1="398.49" y1="134.75" x2="398.87" y2="136.01"/><line x1="267.59" y1="152.24" x2="274.39" y2="152.55"/><line x1="264.91" y1="148.86" x2="275.71" y2="149.19"/><line x1="307.40" y1="148.80" x2="292.94" y2="159.08"/><line x1="118.39" y1="208.45" x2="122.74" y2="208.22"/><line x1="337.69" y1="353.93" x2="292.20" y2="336.65"/><line x1="244.08" y1="351.96" x2="235.18" y2="352.66"/><line x1="169.64" y1="340.23" x2="169.56" y2="339.86"/><line x1="155.73" y1="171.53" x2="159.15" y2="167.00"/><line x1="264.91" y1="148.86" x2="273.88" y2="150.45"/><line x1="307.40" y1="148.80" x2="284.24" y2="151.05"/><line x1="386.45" y1="360.78" x2="386.49" y2="360.44"/><line x1="285.68" y1="278.45" x2="289.71" y2="286.59"/><line x1="343.78" y1="172.70" x2="342.03" y2="190.04"/><line x1="239.34" y1="129.33" x2="240.33" y2="135.36"/><line x1="148.64" y1="162.78" x2="147.76" y2="156.98"/><line x1="296.58" y1="168.78" x2="295.64" y2="165.94"/><line x1="282.20" y1="345.51" x2="280.82" y2="345.68"/><line x1="118.81" y1="229.84" x2="118.25" y2="237.73"/><line x1="284.29" y1="288.48" x2="288.63" y2="293.12"/><line x1="129.47" y1="308.53" x2="134.96" y2="310.14"/><line x1="136.00" y1="232.65" x2="173.41" y2="227.50"/><line x1="386.49" y1="360.44" x2="386.21" y2="359.16"/><line x1="355.92" y1="163.99" x2="356.38" y2="159.00"/><line x1="343.59" y1="338.64" x2="343.32" y2="335.79"/><line x1="292.11" y1="242.42" x2="292.16" y2="250.29"/><line x1="213.34" y1="357.99" x2="212.93" y2="346.22"/><line x1="114.05" y1="236.94" x2="113.76" y2="247.23"/><line x1="380.95" y1="127.74" x2="382.84" y2="134.87"/><line x1="283.00" y1="192.45" x2="283.93" y2="197.73"/><line x1="380.61" y1="160.54" x2="376.13" y2="161.63"/><line x1="188.08" y1="142.18" x2="188.29" y2="141.85"/><line x1="379.34" y1="359.49" x2="386.34" y2="361.07"/><line x1="343.32" y1="335.79" x2="343.06" y2="332.51"/><line x1="304.31" y1="208.81" x2="303.61" y2="203.05"/><line x1="275.71" y1="149.19" x2="275.98" y2="149.17"/><line x1="288.91" y1="198.31" x2="284.73" y2="203.14"/><line x1="185.91" y1="316.11" x2="166.94" y2="336.22"/><line x1="137.87" y1="321.06" x2="140.87" y2="324.63"/><line x1="177.92" y1="150.27" x2="191.54" y2="162.49"/><line x1="307.40" y1="148.80" x2="340.28" y2="234.91"/><line x1="185.91" y1="316.11" x2="154.77" y2="319.74"/><line x1="388.37" y1="142.21" x2="388.40" y2="143.09"/><line x1="375.29" y1="358.01" x2="376.69" y2="353.65"/><line x1="342.83" y1="328.77" x2="307.40" y2="148.80"/><line x1="307.40" y1="148.80" x2="304.90" y2="214.82"/><line x1="251.50" y1="131.26" x2="252.13" y2="138.59"/><line x1="383.73" y1="135.03" x2="384.52" y2="135.29"/><line x1="283.83" y1="174.41" x2="284.75" y2="177.55"/><line x1="271.27" y1="356.15" x2="272.15" y2="344.92"/><line x1="307.40" y1="148.80" x2="297.55" y2="171.90"/><line x1="177.12" y1="142.93" x2="179.35" y2="141.93"/><line x1="284.73" y1="203.14" x2="289.65" y2="203.47"/><line x1="307.40" y1="148.80" x2="289.78" y2="154.29"/><line x1="264.91" y1="148.86" x2="274.58" y2="149.58"/><line x1="284.25" y1="311.38" x2="282.44" y2="317.12"/><line x1="141.73" y1="199.67" x2="176.41" y2="202.80"/><line x1="388.40" y1="143.09" x2="398.17" y2="147.32"/><line x1="376.69" y1="353.65" x2="373.15" y2="352.74"/><line x1="347.89" y1="164.79" x2="342.94" y2="157.98"/><line x1="252.13" y1="138.59" x2="254.69" y2="131.95"/><line x1="270.06" y1="155.84" x2="274.87" y2="153.51"/><line x1="174.64" y1="349.75" x2="168.62" y2="347.00"/><line x1="114.43" y1="261.84" x2="119.20" y2="263.04"/><line x1="384.52" y1="135.29" x2="387.19" y2="126.42"/><line x1="366.49" y1="163.21" x2="361.32" y2="163.70"/><line x1="197.28" y1="333.23" x2="169.62" y2="340.49"/><line x1="294.83" y1="329.39" x2="294.29" y2="331.03"/><line x1="342.94" y1="157.98" x2="346.85" y2="165.67"/><line x1="298.51" y1="175.33" x2="297.55" y2="171.90"/><line x1="274.87" y1="153.51" x2="275.49" y2="154.70"/><line x1="286.41" y1="219.91" x2="291.34" y2="221.19"/><line x1="124.79" y1="201.69" x2="118.39" y2="208.45"/><line x1="162.34" y1="331.08" x2="162.01" y2="330.65"/><line x1="272.33" y1="159.70" x2="274.39" y2="163.78"/><line x1="151.49" y1="335.30" x2="157.04" y2="339.78"/><line x1="387.19" y1="126.42" x2="385.23" y2="135.66"/><line x1="64.64" y1="32.09" x2="32.16" y2="64.58"/><line x1="165.50" y1="340.15" x2="163.38" y2="338.86"/><line x1="244.47" y1="136.00" x2="248.41" y2="137.08"/><line x1="386.88" y1="147.73" x2="391.96" y2="155.69"/><line x1="364.63" y1="158.58" x2="360.65" y2="158.90"/><line x1="264.72" y1="134.53" x2="262.04" y2="145.71"/><line x1="297.55" y1="171.90" x2="296.58" y2="168.78"/><line x1="259.08" y1="346.34" x2="252.06" y2="349.85"/><line x1="215.39" y1="128.78" x2="224.32" y2="128.49"/><line x1="291.34" y1="221.19" x2="286.79" y2="225.53"/><line x1="376.49" y1="135.56" x2="376.33" y2="135.43"/><line x1="132.25" y1="305.16" x2="129.47" y2="308.53"/><line x1="185.91" y1="316.11" x2="163.40" y2="332.31"/><line x1="152.51" y1="176.41" x2="155.73" y2="171.53"/><line x1="223.85" y1="350.56" x2="220.44" y2="349.37"/><line x1="391.96" y1="155.69" x2="385.70" y2="149.26"/><line x1="307.40" y1="148.80" x2="306.25" y2="248.46"/><line x1="344.38" y1="170.42" x2="343.78" y2="172.70"/><line x1="262.04" y1="145.71" x2="268.21" y2="135.57"/><line x1="307.40" y1="148.80" x2="302.04" y2="192.44"/><line x1="274.39" y1="163.78" x2="279.07" y2="161.67"/><line x1="160.90" y1="337.06" x2="157.04" y2="339.78"/><line x1="271.27" y1="356.15" x2="265.16" y2="341.42"/><line x1="264.91" y1="148.86" x2="275.46" y2="149.22"/><line x1="121.54" y1="276.53" x2="122.67" y2="281.16"/><line x1="177.10" y1="291.76" x2="175.24" y2="281.82"/><line x1="376.33" y1="135.43" x2="376.19" y2="135.29"/><line x1="264.91" y1="148.86" x2="273.97" y2="150.25"/><line x1="155.73" y1="171.53" x2="181.92" y2="182.78"/><line x1="386.42" y1="136.71" x2="393.67" y2="127.89"/><line x1="141.88" y1="170.21" x2="138.70" y2="174.51"/><line x1="224.32" y1="128.49" x2="220.51" y2="138.17"/><line x1="275.46" y1="149.22" x2="275.22" y2="149.28"/><line x1="343.78" y1="172.70" x2="331.69" y2="155.86"/><line x1="184.12" y1="177.05" x2="186.46" y2="171.76"/><line x1="148.64" y1="162.78" x2="132.22" y2="176.13"/><line x1="279.07" y1="161.67" x2="280.03" y2="163.87"/><line x1="273.41" y1="338.33" x2="275.93" y2="333.29"/><line x1="287.43" y1="242.40" x2="292.11" y2="242.42"/><line x1="190.20" y1="133.08" x2="186.59" y2="140.27"/><line x1="118.81" y1="229.84" x2="114.05" y2="236.94"/><line x1="186.46" y1="171.76" x2="188.94" y2="166.90"/><line x1="393.67" y1="127.89" x2="394.86" y2="128.72"/><line x1="380.12" y1="153.78" x2="380.61" y2="160.54"/><line x1="220.51" y1="138.17" x2="223.30" y2="137.25"/><line x1="291.25" y1="155.89" x2="290.56" y2="155.07"/><line x1="169.46" y1="340.88" x2="169.56" y2="340.70"/><line x1="292.11" y1="242.42" x2="287.47" y2="248.04"/><line x1="114.05" y1="236.94" x2="118.25" y2="237.73"/><line x1="139.61" y1="316.32" x2="137.87" y2="321.06"/><line x1="231.16" y1="135.48" x2="233.60" y2="135.23"/><line x1="380.61" y1="160.54" x2="377.61" y2="155.17"/><line x1="174.55" y1="144.16" x2="177.12" y2="142.93"/><line x1="300.42" y1="308.29" x2="297.86" y2="319.04"/><line x1="173.10" y1="259.25" x2="172.84" y2="246.59"/><line x1="375.69" y1="134.11" x2="375.67" y2="133.90"/><line x1="137.87" y1="321.06" x2="141.95" y2="318.96"/><line x1="177.92" y1="150.27" x2="188.94" y2="166.90"/><line x1="307.40" y1="148.80" x2="340.84" y2="211.12"/><line x1="233.33" y1="128.80" x2="236.33" y2="129.03"/><line x1="270.29" y1="335.10" x2="274.49" y2="327.37"/><line x1="340.84" y1="211.12" x2="340.28" y2="234.91"/><line x1="283.83" y1="174.41" x2="279.38" y2="177.41"/><line x1="291.27" y1="272.80" x2="290.59" y2="279.82"/><line x1="177.12" y1="142.93" x2="182.32" y2="135.67"/><line x1="118.35" y1="254.37" x2="114.43" y2="261.84"/><line x1="135.28" y1="253.37" x2="135.46" y2="242.66"/><line x1="197.15" y1="154.98" x2="186.39" y2="143.70"/><line x1="398.01" y1="133.49" x2="398.49" y2="134.75"/><line x1="32.16" y1="32.09" x2="64.64" y2="32.09"/><line x1="386.42" y1="136.71" x2="386.89" y2="137.39"/><line x1="284.24" y1="151.05" x2="282.89" y2="150.55"/><line x1="369.45" y1="351.90" x2="365.99" y2="351.17"/><line x1="189.66" y1="322.52" x2="168.96" y2="338.75"/><line x1="114.43" y1="261.84" x2="118.70" y2="258.67"/><line x1="151.34" y1="328.53" x2="151.49" y2="335.30"/><line x1="179.85" y1="188.96" x2="152.51" y2="176.41"/><line x1="366.49" y1="163.21" x2="364.63" y2="158.58"/><line x1="381.89" y1="134.82" x2="382.84" y2="134.87"/><line x1="361.38" y1="354.95" x2="362.74" y2="350.53"/><line x1="115.27" y1="268.71" x2="116.44" y2="275.28"/><line x1="167.37" y1="142.56" x2="174.71" y2="138.82"/><line x1="287.34" y1="189.00" x2="288.14" y2="193.50"/><line x1="282.89" y1="150.55" x2="281.61" y2="150.13"/><line x1="184.95" y1="140.14" x2="185.83" y2="140.17"/><line x1="162.75" y1="343.68" x2="163.38" y2="338.86"/><line x1="116.44" y1="275.28" x2="117.95" y2="281.57"/><line x1="388.12" y1="140.51" x2="399.06" y2="143.72"/><line x1="151.49" y1="335.30" x2="154.89" y2="331.89"/><line x1="342.83" y1="328.77" x2="340.28" y2="234.91"/><line x1="244.47" y1="136.00" x2="248.39" y2="130.66"/><line x1="362.74" y1="350.53" x2="359.72" y2="350.00"/><line x1="291.68" y1="337.81" x2="291.19" y2="338.88"/><line x1="136.95" y1="169.22" x2="142.12" y2="162.84"/><line x1="113.76" y1="247.23" x2="113.93" y2="254.68"/><line x1="287.36" y1="299.40" x2="277.74" y2="318.24"/><line x1="185.83" y1="140.17" x2="186.59" y2="140.27"/><line x1="138.15" y1="214.75" x2="139.77" y2="206.86"/><line x1="148.82" y1="308.98" x2="177.10" y2="291.76"/><line x1="32.00" y1="447.50" x2="64.49" y2="479.98"/><line x1="350.30" y1="164.09" x2="349.04" y2="164.27"/></g></svg>