<svg xmlns="http://www.w3.org/2000/svg" width="512" height="512"><rect width="512" height="512" fill="#0a0f1a"/><text x="12" y="20" font-family="monospace" font-size="11" fill="#4a7fa5">FRONT (XZ)</text><g stroke="#00d4ff" stroke-width="0.6" opacity="0.85"><line x1="324.24" y1="133.28" x2="325.41" y2="144.68"/><line x1="333.78" y1="402.90" x2="340.34" y2="390.85"/><line x1="289.83" y1="136.57" x2="281.51" y2="171.16"/><line x1="193.25" y1="135.52" x2="183.77" y2="127.86"/><line x1="203.46" y1="139.98" x2="202.01" y2="146.75"/><line x1="201.23" y1="145.21" x2="202.01" y2="146.75"/><line x1="235.66" y1="325.08" x2="205.28" y2="311.00"/><line x1="251.87" y1="402.09" x2="255.62" y2="403.45"/><line x1="352.14" y1="136.28" x2="351.03" y2="137.64"/><line x1="321.57" y1="388.23" x2="326.65" y2="403.58"/><line x1="320.64" y1="169.48" x2="319.62" y2="170.84"/><line x1="202.01" y1="146.75" x2="202.84" y2="148.59"/><line x1="266.60" y1="263.31" x2="267.01" y2="274.80"/><line x1="159.02" y1="121.62" x2="159.00" y2="121.80"/><line x1="219.41" y1="382.03" x2="225.88" y2="381.97"/><line x1="307.21" y1="394.23" x2="309.85" y2="392.98"/><line x1="351.03" y1="137.64" x2="349.68" y2="138.85"/><line x1="260.95" y1="137.03" x2="249.83" y2="154.42"/><line x1="341.88" y1="124.63" x2="340.36" y2="126.88"/><line x1="346.00" y1="404.69" x2="340.71" y2="407.05"/><line x1="337.84" y1="128.87" x2="342.44" y2="142.37"/><line x1="312.11" y1="144.94" x2="288.72" y2="174.37"/><line x1="267.01" y1="274.80" x2="266.96" y2="277.79"/><line x1="328.78" y1="403.12" x2="330.58" y2="402.84"/><line x1="215.40" y1="356.11" x2="215.90" y2="359.95"/><line x1="283.82" y1="404.05" x2="285.88" y2="403.46"/><line x1="336.51" y1="403.72" x2="337.45" y2="404.15"/><line x1="249.83" y1="154.42" x2="252.78" y2="136.84"/><line x1="252.15" y1="209.76" x2="256.70" y2="219.96"/><line x1="206.64" y1="158.95" x2="216.43" y2="155.27"/><line x1="301.54" y1="177.27" x2="299.88" y2="177.13"/><line x1="225.60" y1="333.22" x2="223.17" y2="335.37"/><line x1="267.10" y1="405.72" x2="271.00" y2="405.87"/><line x1="341.73" y1="120.09" x2="343.91" y2="118.84"/><line x1="342.44" y1="142.37" x2="334.31" y2="130.60"/><line x1="285.88" y1="403.46" x2="288.36" y2="412.41"/><line x1="330.58" y1="402.84" x2="330.10" y2="387.09"/><line x1="203.46" y1="139.98" x2="197.96" y2="140.54"/><line x1="315.28" y1="174.40" x2="313.64" y2="175.31"/><line x1="216.43" y1="155.27" x2="208.45" y2="164.99"/><line x1="299.88" y1="177.13" x2="314.86" y2="147.85"/><line x1="162.78" y1="125.38" x2="164.44" y2="126.14"/><line x1="230.57" y1="395.10" x2="237.52" y2="393.81"/><line x1="334.31" y1="130.60" x2="340.36" y2="142.97"/><line x1="230.00" y1="135.47" x2="224.61" y2="143.59"/><line x1="330.10" y1="387.09" x2="332.02" y2="402.74"/><line x1="345.22" y1="409.51" x2="344.86" y2="410.97"/><line x1="264.22" y1="293.36" x2="263.37" y2="295.58"/><line x1="164.44" y1="126.14" x2="166.99" y2="122.50"/><line x1="297.39" y1="411.56" x2="295.55" y2="399.79"/><line x1="224.61" y1="143.59" x2="223.00" y2="134.76"/><line x1="341.88" y1="124.63" x2="351.84" y2="123.19"/><line x1="344.86" y1="410.97" x2="341.91" y2="410.91"/><line x1="291.99" y1="175.50" x2="290.39" y2="174.98"/><line x1="217.51" y1="342.01" x2="216.69" y2="343.80"/><line x1="346.69" y1="119.40" x2="342.38" y2="122.12"/><line x1="295.55" y1="399.79" x2="301.80" y2="410.83"/><line x1="210.01" y1="147.44" x2="206.64" y2="158.95"/><line x1="337.38" y1="388.76" x2="333.78" y2="402.90"/><line x1="234.99" y1="180.91" x2="212.93" y2="191.57"/><line x1="290.39" y1="174.98" x2="288.72" y2="174.37"/><line x1="179.71" y1="126.74" x2="183.77" y2="127.86"/><line x1="248.15" y1="400.43" x2="251.87" y2="402.09"/><line x1="324.24" y1="133.28" x2="328.29" y2="144.53"/><line x1="203.46" y1="139.98" x2="198.28" y2="131.03"/><line x1="333.78" y1="402.90" x2="338.92" y2="389.70"/><line x1="203.46" y1="139.98" x2="201.23" y2="145.21"/><line x1="255.78" y1="307.63" x2="254.07" y2="309.48"/><line x1="207.89" y1="352.85" x2="209.49" y2="359.37"/><line x1="183.77" y1="127.86" x2="188.22" y2="128.95"/><line x1="251.87" y1="402.09" x2="250.46" y2="407.11"/><line x1="310.44" y1="408.71" x2="307.21" y2="394.23"/><line x1="342.81" y1="393.70" x2="343.80" y2="395.23"/><line x1="256.36" y1="409.06" x2="262.64" y2="410.57"/><line x1="213.20" y1="217.50" x2="212.84" y2="223.91"/><line x1="320.64" y1="169.48" x2="322.46" y2="163.32"/><line x1="205.23" y1="331.29" x2="205.77" y2="338.81"/><line x1="262.64" y1="410.57" x2="269.30" y2="411.65"/><line x1="206.25" y1="293.89" x2="205.94" y2="298.22"/><line x1="310.65" y1="134.99" x2="303.66" y2="135.63"/><line x1="307.21" y1="394.23" x2="314.66" y2="407.33"/><line x1="321.62" y1="158.56" x2="320.56" y2="156.03"/><line x1="341.88" y1="124.63" x2="353.87" y2="127.22"/><line x1="205.94" y1="298.22" x2="205.67" y2="302.52"/><line x1="160.92" y1="119.86" x2="160.79" y2="119.96"/><line x1="480.00" y1="32.02" x2="447.51" y2="32.02"/><line x1="215.40" y1="356.11" x2="209.49" y2="359.37"/><line x1="321.34" y1="405.08" x2="318.24" y2="389.33"/><line x1="336.51" y1="403.72" x2="343.80" y2="395.23"/><line x1="206.66" y1="346.00" x2="207.89" y2="352.85"/><line x1="242.75" y1="319.61" x2="239.93" y2="321.81"/><line x1="213.74" y1="371.41" x2="216.40" y2="376.91"/><line x1="267.10" y1="405.72" x2="269.30" y2="411.65"/><line x1="345.67" y1="400.17" x2="345.94" y2="401.92"/><line x1="203.46" y1="139.98" x2="196.92" y2="139.33"/><line x1="263.30" y1="241.12" x2="265.37" y2="252.09"/><line x1="315.28" y1="174.40" x2="320.56" y2="156.03"/><line x1="203.46" y1="139.98" x2="210.01" y2="147.44"/><line x1="219.42" y1="371.21" x2="221.26" y2="374.87"/><line x1="276.34" y1="412.30" x2="279.95" y2="404.94"/><line x1="342.35" y1="121.86" x2="346.69" y2="119.40"/><line x1="339.29" y1="405.30" x2="340.06" y2="406.09"/><line x1="210.92" y1="246.37" x2="209.99" y2="254.93"/><line x1="212.23" y1="184.57" x2="234.99" y2="180.91"/><line x1="231.84" y1="328.07" x2="205.08" y2="319.33"/><line x1="159.49" y1="120.89" x2="159.31" y2="121.07"/><line x1="244.93" y1="404.74" x2="248.15" y2="400.43"/><line x1="330.99" y1="144.35" x2="324.24" y2="133.28"/><line x1="203.71" y1="150.73" x2="204.64" y2="153.17"/><line x1="341.88" y1="124.63" x2="351.02" y2="122.21"/><line x1="209.99" y1="254.93" x2="252.18" y2="311.39"/><line x1="257.34" y1="305.78" x2="255.78" y2="307.63"/><line x1="222.78" y1="386.77" x2="226.50" y2="391.13"/><line x1="348.07" y1="139.91" x2="346.29" y2="140.83"/><line x1="205.06" y1="323.45" x2="205.23" y2="331.29"/><line x1="324.96" y1="387.50" x2="326.66" y2="387.27"/><line x1="210.01" y1="147.44" x2="205.61" y2="155.91"/><line x1="206.65" y1="139.98" x2="203.46" y2="139.98"/><line x1="228.51" y1="385.25" x2="231.32" y2="388.32"/><line x1="215.23" y1="352.22" x2="207.89" y2="352.85"/><line x1="288.36" y1="412.41" x2="290.43" y2="401.89"/><line x1="351.02" y1="122.21" x2="351.84" y2="123.19"/><line x1="244.90" y1="136.51" x2="237.31" y2="136.06"/><line x1="222.74" y1="163.45" x2="228.92" y2="172.00"/><line x1="345.74" y1="406.90" x2="345.51" y2="408.16"/><line x1="203.46" y1="139.98" x2="203.89" y2="132.02"/><line x1="213.41" y1="211.64" x2="213.20" y2="217.50"/><line x1="203.46" y1="139.98" x2="200.50" y2="143.97"/><line x1="221.20" y1="337.25" x2="219.69" y2="338.85"/><line x1="207.89" y1="352.85" x2="215.40" y2="356.11"/><line x1="351.84" y1="123.19" x2="352.54" y2="124.18"/><line x1="332.02" y1="402.74" x2="333.97" y2="387.51"/><line x1="240.62" y1="150.01" x2="232.21" y2="146.40"/><line x1="315.70" y1="144.91" x2="310.65" y2="134.99"/><line x1="342.81" y1="393.70" x2="336.51" y2="403.72"/><line x1="213.20" y1="217.50" x2="252.15" y2="209.76"/><line x1="205.23" y1="331.29" x2="218.51" y2="340.36"/><line x1="245.38" y1="317.47" x2="205.94" y2="298.22"/><line x1="205.77" y1="338.81" x2="206.66" y2="346.00"/><line x1="262.64" y1="410.57" x2="267.10" y2="405.72"/><line x1="310.65" y1="134.99" x2="312.11" y2="144.94"/><line x1="209.99" y1="254.93" x2="266.79" y2="280.67"/><line x1="196.92" y1="139.33" x2="197.96" y2="140.54"/><line x1="209.99" y1="254.93" x2="260.10" y2="301.89"/><line x1="321.62" y1="158.56" x2="315.28" y2="174.40"/><line x1="205.94" y1="298.22" x2="242.75" y2="319.61"/><line x1="240.90" y1="396.25" x2="244.47" y2="398.47"/><line x1="480.00" y1="32.02" x2="480.00" y2="64.50"/><line x1="335.89" y1="143.86" x2="333.51" y2="144.14"/><line x1="354.05" y1="128.26" x2="354.12" y2="129.30"/><line x1="321.34" y1="405.08" x2="316.47" y2="390.03"/><line x1="197.96" y1="140.54" x2="198.90" y2="141.72"/><line x1="211.70" y1="238.34" x2="263.30" y2="241.12"/><line x1="206.66" y1="346.00" x2="215.23" y2="352.22"/><line x1="159.70" y1="120.71" x2="159.49" y2="120.89"/><line x1="480.00" y1="479.91" x2="480.00" y2="447.42"/><line x1="213.74" y1="371.41" x2="219.42" y2="371.21"/><line x1="354.12" y1="129.30" x2="354.00" y2="131.28"/><line x1="281.51" y1="171.16" x2="282.98" y2="136.86"/><line x1="345.67" y1="400.17" x2="339.29" y2="405.30"/><line x1="263.30" y1="241.12" x2="210.92" y2="246.37"/><line x1="205.28" y1="311.00" x2="231.84" y2="328.07"/><line x1="276.34" y1="412.30" x2="278.07" y2="405.28"/><line x1="198.28" y1="131.03" x2="193.25" y2="135.52"/><line x1="340.34" y1="390.85" x2="341.65" y2="392.21"/><line x1="282.98" y1="136.86" x2="276.17" y2="137.04"/><line x1="202.84" y1="148.59" x2="203.71" y2="150.73"/><line x1="308.52" y1="177.06" x2="306.74" y2="177.31"/><line x1="162.70" y1="120.61" x2="164.68" y2="121.54"/><line x1="231.84" y1="328.07" x2="205.16" y2="315.18"/><line x1="447.51" y1="479.91" x2="480.00" y2="447.42"/><line x1="195.79" y1="138.09" x2="196.92" y2="139.33"/><line x1="323.26" y1="387.82" x2="324.96" y2="387.50"/><line x1="203.71" y1="150.73" x2="210.01" y2="147.44"/><line x1="209.99" y1="254.93" x2="264.97" y2="291.05"/><line x1="306.74" y1="177.31" x2="304.94" y2="177.39"/><line x1="209.99" y1="254.93" x2="254.07" y2="309.48"/><line x1="159.15" y1="122.49" x2="159.60" y2="123.20"/><line x1="343.91" y1="118.84" x2="342.14" y2="121.12"/><line x1="222.78" y1="386.77" x2="228.51" y2="385.25"/><line x1="348.07" y1="139.91" x2="337.84" y2="128.87"/><line x1="337.45" y1="404.15" x2="338.40" y2="404.67"/><line x1="318.37" y1="172.11" x2="316.89" y2="173.32"/><line x1="345.90" y1="405.75" x2="345.74" y2="406.90"/><line x1="266.79" y1="280.67" x2="266.50" y2="283.44"/><line x1="159.60" y1="123.20" x2="160.36" y2="123.91"/><line x1="288.36" y1="412.41" x2="288.08" y2="402.74"/><line x1="244.90" y1="136.51" x2="240.62" y2="150.01"/><line x1="222.74" y1="163.45" x2="211.25" y2="177.80"/><line x1="345.74" y1="406.90" x2="341.23" y2="408.17"/><line x1="314.86" y1="147.85" x2="298.25" y2="176.93"/><line x1="221.20" y1="337.25" x2="205.23" y2="331.29"/><line x1="235.00" y1="398.71" x2="239.78" y2="401.93"/><line x1="324.17" y1="404.24" x2="326.65" y2="403.58"/><line x1="332.02" y1="402.74" x2="332.09" y2="387.20"/><line x1="162.70" y1="120.61" x2="160.44" y2="120.20"/><line x1="162.70" y1="120.61" x2="159.00" y2="121.80"/><line x1="298.25" y1="176.93" x2="296.65" y2="176.66"/><line x1="166.99" y1="122.50" x2="166.41" y2="126.90"/><line x1="342.38" y1="122.12" x2="341.88" y2="124.63"/><line x1="301.80" y1="410.83" x2="301.27" y2="397.15"/><line x1="340.06" y1="406.09" x2="340.71" y2="407.05"/><line x1="217.82" y1="141.58" x2="211.83" y2="140.38"/><line x1="332.09" y1="387.20" x2="333.97" y2="387.51"/><line x1="209.99" y1="254.93" x2="266.96" y2="277.79"/><line x1="341.91" y1="410.91" x2="344.44" y2="412.52"/><line x1="209.99" y1="254.93" x2="261.31" y2="299.85"/><line x1="216.05" y1="345.70" x2="215.60" y2="347.75"/><line x1="166.41" y1="126.90" x2="169.65" y2="123.50"/><line x1="347.92" y1="119.90" x2="349.05" y2="120.53"/><line x1="213.34" y1="198.82" x2="213.49" y2="206.31"/><line x1="344.44" y1="412.52" x2="342.06" y2="412.52"/><line x1="206.66" y1="346.00" x2="215.32" y2="349.91"/><line x1="250.46" y1="407.11" x2="256.36" y2="409.06"/><line x1="480.00" y1="479.91" x2="447.51" y2="479.91"/><line x1="317.18" y1="150.68" x2="314.86" y2="147.85"/><line x1="322.46" y1="163.32" x2="318.37" y2="172.11"/><line x1="240.95" y1="190.19" x2="246.78" y2="199.82"/><line x1="287.00" y1="173.68" x2="285.23" y2="172.92"/><line x1="255.62" y1="403.45" x2="259.41" y2="404.51"/><line x1="314.66" y1="407.33" x2="312.27" y2="391.86"/><line x1="349.68" y1="138.85" x2="348.07" y2="139.91"/><line x1="198.28" y1="131.03" x2="194.57" y2="136.82"/><line x1="340.34" y1="390.85" x2="334.68" y2="403.10"/><line x1="162.70" y1="120.61" x2="159.49" y2="120.89"/><line x1="164.68" y1="121.54" x2="166.99" y2="122.50"/><line x1="250.10" y1="313.36" x2="247.83" y2="315.38"/><line x1="266.96" y1="277.79" x2="266.79" y2="280.67"/><line x1="162.70" y1="120.61" x2="161.42" y2="124.64"/><line x1="209.49" y1="359.37" x2="216.74" y2="363.75"/><line x1="341.64" y1="409.46" x2="341.91" y2="410.91"/><line x1="343.80" y1="395.23" x2="344.60" y2="396.83"/><line x1="252.78" y1="136.84" x2="244.90" y2="136.51"/><line x1="212.84" y1="223.91" x2="212.34" y2="230.85"/><line x1="209.99" y1="254.93" x2="265.59" y2="288.63"/><line x1="209.99" y1="254.93" x2="255.78" y2="307.63"/><line x1="269.30" y1="411.65" x2="272.71" y2="405.83"/><line x1="343.91" y1="118.84" x2="341.96" y2="120.64"/><line x1="337.45" y1="404.15" x2="345.23" y2="398.47"/><line x1="320.56" y1="156.03" x2="311.96" y2="176.06"/><line x1="256.70" y1="219.96" x2="260.41" y2="230.41"/><line x1="208.45" y1="164.99" x2="222.74" y2="163.45"/><line x1="205.67" y1="302.52" x2="205.45" y2="306.77"/><line x1="318.24" y1="389.33" x2="319.90" y2="388.73"/><line x1="296.72" y1="136.16" x2="289.83" y2="136.57"/><line x1="340.36" y1="142.97" x2="338.18" y2="143.47"/><line x1="281.51" y1="171.16" x2="259.84" y2="159.64"/><line x1="222.74" y1="163.45" x2="209.99" y2="171.28"/><line x1="239.93" y1="321.81" x2="235.66" y2="325.08"/><line x1="216.40" y1="376.91" x2="223.44" y2="378.49"/><line x1="235.00" y1="398.71" x2="240.90" y2="396.25"/><line x1="324.17" y1="404.24" x2="321.57" y2="388.23"/><line x1="338.18" y1="143.47" x2="335.89" y2="143.86"/><line x1="345.94" y1="401.92" x2="346.03" y2="403.72"/><line x1="223.00" y1="134.76" x2="217.82" y2="141.58"/><line x1="162.70" y1="120.61" x2="160.63" y2="120.07"/><line x1="162.70" y1="120.61" x2="159.02" y2="121.62"/><line x1="262.40" y1="297.75" x2="261.31" y2="299.85"/><line x1="341.44" y1="119.47" x2="341.73" y2="120.09"/><line x1="342.38" y1="122.12" x2="347.92" y2="119.90"/><line x1="301.80" y1="410.83" x2="298.34" y2="398.54"/><line x1="340.06" y1="406.09" x2="346.00" y2="404.69"/><line x1="217.82" y1="141.58" x2="216.27" y2="133.91"/><line x1="209.99" y1="254.93" x2="267.01" y2="274.80"/><line x1="212.93" y1="191.57" x2="213.34" y2="198.82"/><line x1="288.72" y1="174.37" x2="287.00" y2="173.68"/><line x1="340.36" y1="126.88" x2="353.00" y2="134.76"/><line x1="226.50" y1="391.13" x2="230.57" y2="395.10"/><line x1="342.38" y1="118.78" x2="343.91" y2="118.84"/><line x1="216.05" y1="345.70" x2="206.66" y2="346.00"/><line x1="281.87" y1="404.53" x2="283.82" y2="404.05"/><line x1="347.92" y1="119.90" x2="341.88" y2="124.63"/><line x1="259.84" y1="159.64" x2="249.83" y2="154.42"/><line x1="328.29" y1="144.53" x2="325.41" y2="144.68"/><line x1="338.92" y1="389.70" x2="340.34" y2="390.85"/><line x1="303.22" y1="177.36" x2="301.54" y2="177.27"/><line x1="213.34" y1="198.82" x2="240.95" y2="190.19"/><line x1="228.48" y1="330.79" x2="225.60" y2="333.22"/><line x1="193.25" y1="135.52" x2="166.41" y2="126.90"/><line x1="188.22" y1="128.95" x2="193.06" y2="130.01"/><line x1="250.46" y1="407.11" x2="255.62" y2="403.45"/><line x1="325.41" y1="144.68" x2="322.35" y2="144.78"/><line x1="223.17" y1="335.37" x2="221.20" y2="337.25"/><line x1="203.89" y1="132.02" x2="198.28" y2="131.03"/><line x1="322.46" y1="163.32" x2="319.62" y2="170.84"/><line x1="161.42" y1="124.64" x2="162.78" y2="125.38"/><line x1="252.18" y1="311.39" x2="250.10" y2="313.36"/><line x1="345.35" y1="119.06" x2="346.69" y2="119.40"/><line x1="352.54" y1="124.18" x2="353.11" y2="125.19"/><line x1="312.11" y1="144.94" x2="296.72" y2="136.16"/><line x1="314.66" y1="407.33" x2="309.85" y2="392.98"/><line x1="345.51" y1="408.16" x2="345.22" y2="409.51"/><line x1="198.28" y1="131.03" x2="195.79" y2="138.09"/><line x1="237.52" y1="393.81" x2="235.00" y2="398.71"/><line x1="162.70" y1="120.61" x2="159.70" y2="120.71"/><line x1="160.79" y1="119.96" x2="160.63" y2="120.07"/><line x1="162.70" y1="120.61" x2="160.36" y2="123.91"/><line x1="209.49" y1="359.37" x2="215.90" y2="359.95"/><line x1="329.78" y1="132.07" x2="324.24" y2="133.28"/><line x1="353.11" y1="125.19" x2="353.55" y2="126.21"/><line x1="263.37" y1="295.58" x2="262.40" y2="297.75"/><line x1="332.89" y1="402.78" x2="333.78" y2="402.90"/><line x1="319.08" y1="153.40" x2="303.22" y2="177.36"/><line x1="343.80" y1="395.23" x2="337.45" y2="404.15"/><line x1="212.84" y1="223.91" x2="256.70" y2="219.96"/><line x1="340.36" y1="126.88" x2="348.07" y2="139.91"/><line x1="269.30" y1="411.65" x2="271.00" y2="405.87"/><line x1="303.66" y1="135.63" x2="296.72" y2="136.16"/><line x1="216.69" y1="343.80" x2="216.05" y2="345.70"/><line x1="322.35" y1="164.98" x2="320.64" y2="169.48"/><line x1="320.56" y1="156.03" x2="313.64" y2="175.31"/><line x1="205.67" y1="302.52" x2="239.93" y2="321.81"/><line x1="193.25" y1="135.52" x2="179.71" y2="126.74"/><line x1="209.89" y1="132.98" x2="203.89" y2="132.02"/><line x1="318.24" y1="389.33" x2="324.17" y2="404.24"/><line x1="199.75" y1="142.86" x2="200.50" y2="143.97"/><line x1="161.01" y1="119.79" x2="160.92" y2="119.86"/><line x1="265.37" y1="252.09" x2="266.60" y2="263.31"/><line x1="159.31" y1="121.07" x2="159.17" y2="121.26"/><line x1="216.40" y1="376.91" x2="221.26" y2="374.87"/><line x1="254.07" y1="309.48" x2="252.18" y2="311.39"/><line x1="269.41" y1="137.09" x2="260.95" y2="137.03"/><line x1="246.78" y1="199.82" x2="252.15" y2="209.76"/><line x1="345.94" y1="401.92" x2="340.06" y2="406.09"/><line x1="162.70" y1="120.61" x2="160.79" y2="119.96"/><line x1="205.08" y1="319.33" x2="205.06" y2="323.45"/><line x1="341.44" y1="119.47" x2="341.10" y2="118.78"/><line x1="312.11" y1="144.94" x2="290.39" y2="174.98"/><line x1="337.84" y1="128.87" x2="344.41" y2="141.65"/><line x1="279.95" y1="404.94" x2="281.87" y2="404.53"/><line x1="328.78" y1="403.12" x2="328.37" y2="387.13"/><line x1="304.94" y1="177.39" x2="303.22" y2="177.36"/><line x1="340.36" y1="126.88" x2="353.62" y2="133.10"/><line x1="226.50" y1="391.13" x2="234.32" y2="391.17"/><line x1="252.15" y1="209.76" x2="212.84" y2="223.91"/><line x1="269.30" y1="411.65" x2="276.34" y2="412.30"/><line x1="341.23" y1="408.17" x2="341.64" y2="409.46"/><line x1="342.14" y1="121.12" x2="342.28" y2="121.52"/><line x1="290.43" y1="401.89" x2="292.92" y2="400.90"/><line x1="237.31" y1="136.06" x2="230.00" y2="135.47"/><line x1="161.42" y1="124.64" x2="164.68" y2="121.54"/><line x1="345.35" y1="119.06" x2="342.35" y2="121.86"/><line x1="292.91" y1="412.10" x2="297.39" y2="411.56"/><line x1="333.97" y1="387.51" x2="335.73" y2="388.03"/><line x1="312.11" y1="144.94" x2="303.66" y2="135.63"/><line x1="211.25" y1="177.80" x2="212.23" y2="184.57"/><line x1="218.51" y1="340.36" x2="217.51" y2="342.01"/><line x1="239.78" y1="401.93" x2="244.93" y2="404.74"/><line x1="480.00" y1="64.50" x2="447.51" y2="32.02"/><line x1="329.78" y1="132.07" x2="330.99" y2="144.35"/><line x1="332.89" y1="402.78" x2="337.38" y2="388.76"/><line x1="319.08" y1="153.40" x2="304.94" y2="177.39"/><line x1="244.47" y1="398.47" x2="248.15" y2="400.43"/><line x1="340.36" y1="126.88" x2="349.68" y2="138.85"/><line x1="301.27" y1="397.15" x2="304.35" y2="395.62"/><line x1="326.65" y1="403.58" x2="328.78" y2="403.12"/><line x1="354.00" y1="131.28" x2="353.62" y2="133.10"/><line x1="211.83" y1="140.38" x2="206.65" y2="139.98"/><line x1="322.35" y1="164.98" x2="322.01" y2="166.55"/><line x1="193.25" y1="135.52" x2="176.02" y2="125.62"/><line x1="317.68" y1="134.23" x2="310.65" y2="134.99"/><line x1="306.16" y1="409.87" x2="310.44" y2="408.71"/><line x1="340.71" y1="407.05" x2="341.23" y2="408.17"/><line x1="334.68" y1="403.10" x2="335.59" y2="403.37"/><line x1="276.17" y1="137.04" x2="269.41" y2="137.09"/><line x1="213.49" y1="206.31" x2="213.41" y2="211.64"/><line x1="161.01" y1="119.79" x2="161.07" y2="119.73"/><line x1="265.37" y1="252.09" x2="209.99" y2="254.93"/><line x1="334.31" y1="130.60" x2="329.78" y2="132.07"/><line x1="256.36" y1="409.06" x2="263.24" y2="405.26"/><line x1="341.65" y1="392.21" x2="342.81" y2="393.70"/><line x1="206.25" y1="293.89" x2="245.38" y2="317.47"/><line x1="205.08" y1="319.33" x2="228.48" y2="330.79"/><line x1="341.88" y1="124.63" x2="353.55" y2="126.21"/><line x1="312.27" y1="391.86" x2="314.48" y2="390.88"/><line x1="337.84" y1="128.87" x2="346.29" y2="140.83"/><line x1="312.11" y1="144.94" x2="291.99" y2="175.50"/><line x1="328.78" y1="403.12" x2="326.66" y2="387.27"/><line x1="322.26" y1="160.99" x2="321.62" y2="158.56"/><line x1="340.36" y1="126.88" x2="354.00" y2="131.28"/><line x1="226.50" y1="391.13" x2="231.32" y2="388.32"/><line x1="318.17" y1="406.11" x2="321.34" y2="405.08"/><line x1="242.75" y1="319.61" x2="205.67" y2="302.52"/><line x1="341.23" y1="408.17" x2="345.51" y2="408.16"/><line x1="266.10" y1="286.09" x2="265.59" y2="288.63"/><line x1="316.47" y1="390.03" x2="318.24" y2="389.33"/><line x1="211.44" y1="365.55" x2="213.74" y2="371.41"/><line x1="324.24" y1="133.28" x2="317.68" y2="134.23"/><line x1="198.90" y1="141.72" x2="199.75" y2="142.86"/><line x1="342.14" y1="121.12" x2="345.35" y2="119.06"/><line x1="290.43" y1="401.89" x2="292.91" y2="412.10"/><line x1="203.46" y1="139.98" x2="203.71" y2="150.73"/><line x1="345.23" y1="398.47" x2="345.67" y2="400.17"/><line x1="219.42" y1="371.21" x2="216.40" y2="376.91"/><line x1="260.41" y1="230.41" x2="263.30" y2="241.12"/><line x1="219.69" y1="338.85" x2="218.51" y2="340.36"/><line x1="339.29" y1="405.30" x2="345.94" y2="401.92"/><line x1="210.92" y1="246.37" x2="265.37" y2="252.09"/><line x1="333.97" y1="387.51" x2="332.89" y2="402.78"/><line x1="310.25" y1="176.65" x2="308.52" y2="177.06"/><line x1="211.25" y1="177.80" x2="228.92" y2="172.00"/><line x1="278.07" y1="405.28" x2="279.95" y2="404.94"/><line x1="283.75" y1="412.52" x2="288.36" y2="412.41"/><line x1="341.88" y1="124.63" x2="350.09" y2="121.30"/><line x1="239.78" y1="401.93" x2="244.47" y2="398.47"/><line x1="312.11" y1="144.94" x2="314.86" y2="147.85"/><line x1="205.16" y1="315.18" x2="205.08" y2="319.33"/><line x1="205.06" y1="323.45" x2="221.20" y2="337.25"/><line x1="260.10" y1="301.89" x2="258.78" y2="303.86"/><line x1="324.96" y1="387.50" x2="328.78" y2="403.12"/><line x1="210.01" y1="147.44" x2="204.64" y2="153.17"/><line x1="249.83" y1="154.42" x2="240.62" y2="150.01"/><line x1="301.27" y1="397.15" x2="306.16" y2="409.87"/><line x1="211.83" y1="140.38" x2="209.89" y2="132.98"/><line x1="228.51" y1="385.25" x2="226.50" y2="391.13"/><line x1="215.60" y1="347.75" x2="215.32" y2="349.91"/><line x1="266.50" y1="283.44" x2="266.10" y2="286.09"/><line x1="317.68" y1="134.23" x2="315.70" y2="144.91"/><line x1="203.46" y1="139.98" x2="199.75" y2="142.86"/><line x1="160.36" y1="123.91" x2="161.42" y2="124.64"/><line x1="334.68" y1="403.10" x2="341.65" y2="392.21"/><line x1="213.49" y1="206.31" x2="246.78" y2="199.82"/><line x1="288.08" y1="402.74" x2="290.43" y2="401.89"/><line x1="240.62" y1="150.01" x2="237.31" y2="136.06"/><line x1="32.16" y1="32.09" x2="32.16" y2="64.58"/><line x1="334.31" y1="130.60" x2="335.89" y2="143.86"/><line x1="256.36" y1="409.06" x2="259.41" y2="404.51"/><line x1="205.23" y1="331.29" x2="219.69" y2="338.85"/><line x1="205.77" y1="338.81" x2="216.05" y2="345.70"/><line x1="206.25" y1="293.89" x2="247.83" y2="315.38"/><line x1="216.74" y1="363.75" x2="217.91" y2="367.50"/><line x1="209.99" y1="171.28" x2="211.25" y2="177.80"/><line x1="353.87" y1="127.22" x2="354.05" y2="128.26"/><line x1="296.65" y1="176.66" x2="295.08" y2="176.34"/><line x1="341.88" y1="124.63" x2="353.11" y2="125.19"/><line x1="312.27" y1="391.86" x2="318.17" y2="406.11"/><line x1="240.90" y1="396.25" x2="239.78" y2="401.93"/><line x1="212.34" y1="230.85" x2="211.70" y2="238.34"/><line x1="335.89" y1="143.86" x2="329.78" y2="132.07"/><line x1="216.27" y1="133.91" x2="209.89" y2="132.98"/><line x1="261.31" y1="299.85" x2="260.10" y2="301.89"/><line x1="283.40" y1="172.07" x2="281.51" y2="171.16"/><line x1="169.65" y1="123.50" x2="172.66" y2="124.54"/><line x1="234.99" y1="180.91" x2="240.95" y2="190.19"/><line x1="298.34" y1="398.54" x2="301.27" y2="397.15"/><line x1="205.45" y1="306.77" x2="205.28" y2="311.00"/><line x1="324.24" y1="133.28" x2="322.35" y2="144.78"/><line x1="203.46" y1="139.98" x2="202.84" y2="148.59"/><line x1="322.35" y1="144.78" x2="319.12" y2="144.87"/><line x1="223.44" y1="378.49" x2="225.88" y2="381.97"/><line x1="283.75" y1="412.52" x2="285.88" y2="403.46"/><line x1="341.88" y1="124.63" x2="349.05" y2="120.53"/><line x1="260.95" y1="137.03" x2="252.78" y2="136.84"/><line x1="346.00" y1="404.69" x2="345.90" y2="405.75"/><line x1="205.06" y1="323.45" x2="223.17" y2="335.37"/><line x1="318.37" y1="172.11" x2="322.26" y2="160.99"/><line x1="206.64" y1="158.95" x2="208.45" y2="164.99"/><line x1="341.96" y1="120.64" x2="342.14" y2="121.12"/><line x1="234.32" y1="391.17" x2="237.52" y2="393.81"/><line x1="283.40" y1="172.07" x2="285.23" y2="172.92"/><line x1="342.44" y1="142.37" x2="340.36" y2="142.97"/><line x1="160.44" y1="120.20" x2="160.21" y2="120.35"/><line x1="330.58" y1="402.84" x2="332.02" y2="402.74"/><line x1="32.00" y1="479.98" x2="64.49" y2="479.98"/><line x1="203.46" y1="139.98" x2="198.90" y2="141.72"/><line x1="276.34" y1="412.30" x2="283.75" y2="412.52"/><line x1="230.00" y1="135.47" x2="223.00" y2="134.76"/><line x1="205.77" y1="338.81" x2="216.69" y2="343.80"/><line x1="244.93" y1="404.74" x2="250.46" y2="407.11"/><line x1="297.39" y1="411.56" x2="301.80" y2="410.83"/><line x1="209.99" y1="254.93" x2="262.40" y2="297.75"/><line x1="209.99" y1="254.93" x2="206.25" y2="293.89"/><line x1="216.27" y1="133.91" x2="211.83" y2="140.38"/><line x1="272.71" y1="405.83" x2="274.45" y2="405.72"/><line x1="210.01" y1="147.44" x2="216.43" y2="155.27"/><line x1="337.38" y1="388.76" x2="338.92" y2="389.70"/><line x1="206.66" y1="346.00" x2="215.60" y2="347.75"/><line x1="317.18" y1="150.68" x2="299.88" y2="177.13"/><line x1="240.95" y1="190.19" x2="213.49" y2="206.31"/><line x1="203.46" y1="139.98" x2="195.79" y2="138.09"/><line x1="319.90" y1="388.73" x2="321.57" y2="388.23"/><line x1="255.62" y1="403.45" x2="256.36" y2="409.06"/><line x1="328.37" y1="387.13" x2="330.10" y2="387.09"/><line x1="322.35" y1="144.78" x2="317.68" y2="134.23"/><line x1="223.44" y1="378.49" x2="219.41" y2="382.03"/><line x1="319.62" y1="170.84" x2="318.37" y2="172.11"/><line x1="310.44" y1="408.71" x2="314.66" y2="407.33"/><line x1="164.68" y1="121.54" x2="164.44" y2="126.14"/><line x1="250.10" y1="313.36" x2="206.25" y2="293.89"/><line x1="309.85" y1="392.98" x2="312.27" y2="391.86"/><line x1="341.64" y1="409.46" x2="344.86" y2="410.97"/><line x1="195.79" y1="138.09" x2="194.57" y2="136.82"/><line x1="209.99" y1="254.93" x2="266.10" y2="286.09"/><line x1="283.75" y1="412.52" x2="283.82" y2="404.05"/><line x1="160.63" y1="120.07" x2="160.44" y2="120.20"/><line x1="209.99" y1="254.93" x2="257.34" y2="305.78"/><line x1="215.90" y1="359.95" x2="216.74" y2="363.75"/><line x1="292.92" y1="400.90" x2="295.55" y2="399.79"/><line x1="353.55" y1="126.21" x2="353.87" y2="127.22"/><line x1="205.06" y1="323.45" x2="225.60" y2="333.22"/><line x1="337.45" y1="404.15" x2="344.60" y2="396.83"/><line x1="256.70" y1="219.96" x2="212.34" y2="230.85"/><line x1="321.34" y1="405.08" x2="324.17" y2="404.24"/><line x1="271.00" y1="405.87" x2="272.71" y2="405.83"/><line x1="296.72" y1="136.16" x2="283.40" y2="172.07"/><line x1="344.60" y1="396.83" x2="345.23" y2="398.47"/><line x1="234.32" y1="391.17" x2="230.57" y2="395.10"/><line x1="313.64" y1="175.31" x2="311.96" y2="176.06"/><line x1="281.51" y1="171.16" x2="269.41" y2="137.09"/><line x1="239.93" y1="321.81" x2="205.45" y2="306.77"/><line x1="32.00" y1="479.98" x2="32.00" y2="447.50"/><line x1="264.97" y1="291.05" x2="264.22" y2="293.36"/><line x1="324.17" y1="404.24" x2="319.90" y2="388.73"/><line x1="200.50" y1="143.97" x2="201.23" y2="145.21"/><line x1="276.34" y1="412.30" x2="281.87" y2="404.53"/><line x1="342.35" y1="121.86" x2="342.38" y2="122.12"/><line x1="311.96" y1="176.06" x2="310.25" y2="176.65"/><line x1="162.70" y1="120.61" x2="159.08" y2="121.44"/><line x1="159.17" y1="121.26" x2="159.08" y2="121.44"/><line x1="221.26" y1="374.87" x2="223.44" y2="378.49"/><line x1="212.23" y1="184.57" x2="212.93" y2="191.57"/><line x1="353.00" y1="134.76" x2="352.14" y2="136.28"/><line x1="231.84" y1="328.07" x2="228.48" y2="330.79"/><line x1="205.77" y1="338.81" x2="217.51" y2="342.01"/><line x1="340.06" y1="406.09" x2="346.03" y2="403.72"/><line x1="198.28" y1="131.03" x2="193.06" y2="130.01"/><line x1="244.93" y1="404.74" x2="251.87" y2="402.09"/><line x1="209.99" y1="254.93" x2="266.60" y2="263.31"/><line x1="330.99" y1="144.35" x2="328.29" y2="144.53"/><line x1="159.08" y1="121.44" x2="159.02" y2="121.62"/><line x1="209.99" y1="254.93" x2="263.37" y2="295.58"/><line x1="342.38" y1="118.78" x2="341.73" y2="120.09"/><line x1="209.99" y1="254.93" x2="250.10" y2="313.36"/><line x1="281.87" y1="404.53" x2="283.75" y2="412.52"/><line x1="259.84" y1="159.64" x2="260.95" y2="137.03"/><line x1="346.03" y1="403.72" x2="346.00" y2="404.69"/><line x1="303.22" y1="177.36" x2="317.18" y2="150.68"/><line x1="228.48" y1="330.79" x2="205.06" y2="323.45"/><line x1="326.66" y1="387.27" x2="328.37" y2="387.13"/><line x1="215.23" y1="352.22" x2="215.40" y2="356.11"/><line x1="288.36" y1="412.41" x2="292.91" y2="412.10"/><line x1="317.18" y1="150.68" x2="301.54" y2="177.27"/><line x1="231.32" y1="388.32" x2="234.32" y2="391.17"/><line x1="314.86" y1="147.85" x2="295.08" y2="176.34"/><line x1="232.21" y1="146.40" x2="224.61" y2="143.59"/><line x1="328.37" y1="387.13" x2="330.58" y2="402.84"/><line x1="345.51" y1="408.16" x2="341.64" y2="409.46"/><line x1="332.02" y1="402.74" x2="332.89" y2="402.78"/><line x1="162.70" y1="120.61" x2="159.96" y2="120.53"/><line x1="315.70" y1="144.91" x2="312.11" y2="144.94"/><line x1="164.68" y1="121.54" x2="162.78" y2="125.38"/><line x1="162.70" y1="120.61" x2="159.60" y2="123.20"/><line x1="245.38" y1="317.47" x2="242.75" y2="319.61"/><line x1="228.92" y1="172.00" x2="234.99" y2="180.91"/><line x1="341.64" y1="409.46" x2="345.22" y2="409.51"/><line x1="209.99" y1="254.93" x2="266.50" y2="283.44"/><line x1="209.99" y1="254.93" x2="258.78" y2="303.86"/><line x1="292.92" y1="400.90" x2="297.39" y2="411.56"/><line x1="293.54" y1="175.96" x2="291.99" y2="175.50"/><line x1="211.70" y1="238.34" x2="210.92" y2="246.37"/><line x1="353.62" y1="133.10" x2="353.00" y2="134.76"/><line x1="209.89" y1="132.98" x2="203.46" y2="139.98"/><line x1="335.73" y1="388.03" x2="337.38" y2="388.76"/><line x1="321.44" y1="168.05" x2="320.64" y2="169.48"/><line x1="281.51" y1="171.16" x2="276.17" y2="137.04"/><line x1="176.02" y1="125.62" x2="179.71" y2="126.74"/><line x1="304.35" y1="395.62" x2="307.21" y2="394.23"/><line x1="205.28" y1="311.00" x2="205.16" y2="315.18"/><line x1="269.41" y1="137.09" x2="259.84" y2="159.64"/><line x1="246.78" y1="199.82" x2="213.20" y2="217.50"/><line x1="162.70" y1="120.61" x2="160.92" y2="119.86"/><line x1="162.70" y1="120.61" x2="159.17" y2="121.26"/><line x1="341.44" y1="119.47" x2="342.38" y2="118.78"/><line x1="335.59" y1="403.37" x2="336.51" y2="403.72"/><line x1="204.64" y1="153.17" x2="205.61" y2="155.91"/><line x1="209.99" y1="254.93" x2="264.22" y2="293.36"/><line x1="263.24" y1="405.26" x2="267.10" y2="405.72"/><line x1="342.38" y1="118.78" x2="341.10" y2="118.78"/><line x1="322.35" y1="164.98" x2="322.46" y2="163.32"/><line x1="346.29" y1="140.83" x2="344.41" y2="141.65"/><line x1="269.30" y1="411.65" x2="276.24" y2="405.54"/><line x1="343.91" y1="118.84" x2="345.35" y2="119.06"/><line x1="316.89" y1="173.32" x2="315.28" y2="174.40"/><line x1="205.61" y1="155.91" x2="206.64" y2="158.95"/><line x1="320.56" y1="156.03" x2="319.08" y2="153.40"/><line x1="314.48" y1="390.88" x2="316.47" y2="390.03"/><line x1="193.25" y1="135.52" x2="193.06" y2="130.01"/><line x1="344.41" y1="141.65" x2="342.44" y2="142.37"/><line x1="237.31" y1="136.06" x2="232.21" y2="146.40"/><line x1="265.59" y1="288.63" x2="264.97" y2="291.05"/><line x1="217.91" y1="367.50" x2="219.42" y2="371.21"/><line x1="345.35" y1="119.06" x2="342.28" y2="121.52"/><line x1="314.86" y1="147.85" x2="296.65" y2="176.66"/><line x1="292.91" y1="412.10" x2="292.92" y2="400.90"/><line x1="338.40" y1="404.67" x2="339.29" y2="405.30"/><line x1="232.21" y1="146.40" x2="230.00" y2="135.47"/><line x1="295.08" y1="176.34" x2="293.54" y2="175.96"/><line x1="162.70" y1="120.61" x2="160.21" y2="120.35"/><line x1="218.51" y1="340.36" x2="205.77" y2="338.81"/><line x1="276.24" y1="405.54" x2="278.07" y2="405.28"/><line x1="162.70" y1="120.61" x2="159.15" y2="122.49"/><line x1="342.28" y1="121.52" x2="342.35" y2="121.86"/><line x1="329.78" y1="132.07" x2="333.51" y2="144.14"/><line x1="312.11" y1="144.94" x2="285.23" y2="172.92"/><line x1="166.99" y1="122.50" x2="169.65" y2="123.50"/><line x1="332.89" y1="402.78" x2="335.73" y2="388.03"/><line x1="319.08" y1="153.40" x2="306.74" y2="177.31"/><line x1="228.92" y1="172.00" x2="212.23" y2="184.57"/><line x1="301.80" y1="410.83" x2="306.16" y2="409.87"/><line x1="172.66" y1="124.54" x2="176.02" y2="125.62"/><line x1="341.91" y1="410.91" x2="342.06" y2="412.52"/><line x1="244.47" y1="398.47" x2="244.93" y2="404.74"/><line x1="340.36" y1="126.88" x2="351.03" y2="137.64"/><line x1="326.65" y1="403.58" x2="324.96" y2="387.50"/><line x1="333.51" y1="144.14" x2="330.99" y2="144.35"/><line x1="322.35" y1="164.98" x2="321.44" y2="168.05"/><line x1="258.78" y1="303.86" x2="257.34" y2="305.78"/><line x1="225.88" y1="381.97" x2="228.51" y2="385.25"/><line x1="349.05" y1="120.53" x2="350.09" y2="121.30"/><line x1="193.25" y1="135.52" x2="172.66" y2="124.54"/><line x1="306.16" y1="409.87" x2="304.35" y2="395.62"/><line x1="340.71" y1="407.05" x2="345.74" y2="406.90"/><line x1="209.89" y1="132.98" x2="206.65" y2="139.98"/><line x1="321.44" y1="168.05" x2="322.01" y2="166.55"/><line x1="161.01" y1="119.79" x2="162.70" y2="120.61"/><line x1="215.32" y1="349.91" x2="215.23" y2="352.22"/><line x1="322.46" y1="163.32" x2="322.26" y2="160.99"/><line x1="350.09" y1="121.30" x2="351.02" y2="122.21"/><line x1="304.35" y1="395.62" x2="310.44" y2="408.71"/><line x1="341.65" y1="392.21" x2="335.59" y2="403.37"/><line x1="246.78" y1="199.82" x2="213.41" y2="211.64"/><line x1="314.66" y1="407.33" x2="318.17" y2="406.11"/><line x1="162.70" y1="120.61" x2="161.07" y2="119.73"/><line x1="162.70" y1="120.61" x2="159.31" y2="121.07"/><line x1="259.41" y1="404.51" x2="263.24" y2="405.26"/><line x1="312.11" y1="144.94" x2="293.54" y2="175.96"/><line x1="319.12" y1="144.87" x2="315.70" y2="144.91"/><line x1="209.49" y1="359.37" x2="211.44" y2="365.55"/><line x1="335.59" y1="403.37" x2="342.81" y2="393.70"/><line x1="322.26" y1="160.99" x2="316.89" y2="173.32"/><line x1="247.83" y1="315.38" x2="245.38" y2="317.47"/><line x1="64.64" y1="32.09" x2="32.16" y2="64.58"/><line x1="340.36" y1="126.88" x2="354.12" y2="129.30"/><line x1="263.24" y1="405.26" x2="262.64" y2="410.57"/><line x1="318.17" y1="406.11" x2="314.48" y2="390.88"/><line x1="269.30" y1="411.65" x2="274.45" y2="405.72"/><line x1="316.89" y1="173.32" x2="321.62" y2="158.56"/><line x1="160.21" y1="120.35" x2="159.96" y2="120.53"/><line x1="211.44" y1="365.55" x2="217.91" y2="367.50"/><line x1="320.56" y1="156.03" x2="310.25" y2="176.65"/><line x1="208.45" y1="164.99" x2="209.99" y2="171.28"/><line x1="333.78" y1="402.90" x2="334.68" y2="403.10"/><line x1="289.83" y1="136.57" x2="282.98" y2="136.86"/><line x1="314.48" y1="390.88" x2="321.34" y2="405.08"/><line x1="193.25" y1="135.52" x2="188.22" y2="128.95"/><line x1="345.23" y1="398.47" x2="338.40" y2="404.67"/><line x1="260.41" y1="230.41" x2="211.70" y2="238.34"/><line x1="235.66" y1="325.08" x2="231.84" y2="328.07"/><line x1="159.96" y1="120.53" x2="159.70" y2="120.71"/><line x1="217.91" y1="367.50" x2="213.74" y2="371.41"/><line x1="274.45" y1="405.72" x2="276.24" y2="405.54"/><line x1="321.57" y1="388.23" x2="323.26" y2="387.82"/><line x1="216.40" y1="376.91" x2="219.41" y2="382.03"/><line x1="338.40" y1="404.67" x2="345.67" y2="400.17"/><line x1="310.25" y1="176.65" x2="319.08" y2="153.40"/><line x1="223.00" y1="134.76" x2="216.27" y2="133.91"/><line x1="219.41" y1="382.03" x2="222.78" y2="386.77"/><line x1="276.24" y1="405.54" x2="276.34" y2="412.30"/><line x1="312.11" y1="144.94" x2="287.00" y2="173.68"/><line x1="337.84" y1="128.87" x2="334.31" y2="130.60"/><line x1="319.08" y1="153.40" x2="308.52" y2="177.06"/><line x1="340.36" y1="126.88" x2="352.14" y2="136.28"/><line x1="249.83" y1="154.42" x2="244.90" y2="136.51"/><line x1="326.65" y1="403.58" x2="323.26" y2="387.82"/><line x1="159.00" y1="121.80" x2="159.15" y2="122.49"/><line x1="341.73" y1="120.09" x2="341.96" y2="120.64"/><line x1="225.88" y1="381.97" x2="222.78" y2="386.77"/><line x1="285.88" y1="403.46" x2="288.08" y2="402.74"/><line x1="193.25" y1="135.52" x2="169.65" y2="123.50"/><line x1="317.68" y1="134.23" x2="319.12" y2="144.87"/><line x1="216.43" y1="155.27" x2="222.74" y2="163.45"/><line x1="340.71" y1="407.05" x2="345.90" y2="405.75"/><line x1="299.88" y1="177.13" x2="298.25" y2="176.93"/><line x1="230.57" y1="395.10" x2="235.00" y2="398.71"/><line x1="32.16" y1="32.09" x2="64.64" y2="32.09"/><line x1="334.31" y1="130.60" x2="338.18" y2="143.47"/><line x1="330.10" y1="387.09" x2="332.09" y2="387.20"/><line x1="194.57" y1="136.82" x2="193.25" y2="135.52"/><line x1="312.11" y1="144.94" x2="283.40" y2="172.07"/><line x1="164.44" y1="126.14" x2="166.41" y2="126.90"/><line x1="237.52" y1="393.81" x2="240.90" y2="396.25"/><line x1="216.74" y1="363.75" x2="211.44" y2="365.55"/><line x1="353.87" y1="127.22" x2="340.36" y2="126.88"/><line x1="224.61" y1="143.59" x2="217.82" y2="141.58"/><line x1="341.88" y1="124.63" x2="352.54" y2="124.18"/><line x1="312.11" y1="144.94" x2="295.08" y2="176.34"/><line x1="344.86" y1="410.97" x2="344.44" y2="412.52"/><line x1="212.34" y1="230.85" x2="260.41" y2="230.41"/><line x1="319.08" y1="153.40" x2="317.18" y2="150.68"/><line x1="346.69" y1="119.40" x2="347.92" y2="119.90"/><line x1="295.55" y1="399.79" x2="298.34" y2="398.54"/><line x1="340.36" y1="126.88" x2="354.05" y2="128.26"/><line x1="283.40" y1="172.07" x2="289.83" y2="136.57"/><line x1="340.36" y1="126.88" x2="337.84" y2="128.87"/><line x1="234.99" y1="180.91" x2="213.34" y2="198.82"/><line x1="205.45" y1="306.77" x2="235.66" y2="325.08"/><line x1="32.00" y1="447.50" x2="64.49" y2="479.98"/></g></svg>