<svg xmlns="http://www.w3.org/2000/svg" width="512" height="512"><rect width="512" height="512" fill="#0a0f1a"/><text x="12" y="20" font-family="monospace" font-size="11" fill="#4a7fa5">FRONT (XZ)</text><g stroke="#00d4ff" stroke-width="0.6" opacity="0.85"><line x1="240.62" y1="140.46" x2="241.45" y2="140.49"/><line x1="373.79" y1="213.78" x2="378.99" y2="210.70"/><line x1="156.87" y1="132.25" x2="236.34" y2="140.71"/><line x1="370.62" y1="166.67" x2="370.52" y2="163.73"/><line x1="146.98" y1="190.07" x2="146.33" y2="210.28"/><line x1="275.96" y1="358.18" x2="287.10" y2="346.83"/><line x1="376.37" y1="125.73" x2="370.93" y2="122.92"/><line x1="134.95" y1="127.44" x2="135.37" y2="127.65"/><line x1="226.59" y1="153.01" x2="226.52" y2="151.80"/><line x1="367.66" y1="127.45" x2="367.11" y2="128.15"/><line x1="152.12" y1="132.12" x2="220.75" y2="142.52"/><line x1="370.52" y1="163.73" x2="353.66" y2="169.91"/><line x1="222.97" y1="142.52" x2="223.58" y2="143.28"/><line x1="374.65" y1="129.53" x2="375.13" y2="128.50"/><line x1="334.01" y1="371.20" x2="337.86" y2="365.20"/><line x1="219.34" y1="358.94" x2="223.92" y2="358.63"/><line x1="367.11" y1="128.15" x2="366.55" y2="128.78"/><line x1="372.81" y1="210.91" x2="372.65" y2="210.30"/><line x1="147.24" y1="188.72" x2="146.98" y2="190.07"/><line x1="255.59" y1="357.59" x2="243.45" y2="346.07"/><line x1="255.59" y1="357.59" x2="239.17" y2="349.59"/><line x1="342.05" y1="378.15" x2="340.99" y2="383.84"/><line x1="245.73" y1="314.08" x2="245.39" y2="323.71"/><line x1="376.63" y1="125.06" x2="371.93" y2="121.86"/><line x1="139.18" y1="128.97" x2="140.87" y2="121.54"/><line x1="372.65" y1="210.30" x2="370.94" y2="204.51"/><line x1="370.43" y1="157.00" x2="370.43" y2="156.36"/><line x1="288.70" y1="352.32" x2="275.96" y2="358.18"/><line x1="345.57" y1="386.27" x2="346.24" y2="386.22"/><line x1="136.25" y1="122.48" x2="136.80" y2="122.15"/><line x1="375.50" y1="121.32" x2="376.91" y2="123.09"/><line x1="228.56" y1="296.34" x2="234.81" y2="284.56"/><line x1="363.69" y1="130.76" x2="362.97" y2="131.00"/><line x1="140.87" y1="121.54" x2="141.60" y2="121.69"/><line x1="143.03" y1="131.91" x2="195.94" y2="148.36"/><line x1="370.43" y1="156.36" x2="370.49" y2="151.96"/><line x1="346.24" y1="386.22" x2="346.89" y2="386.11"/><line x1="322.28" y1="358.68" x2="317.45" y2="364.76"/><line x1="133.64" y1="125.34" x2="133.85" y2="126.54"/><line x1="237.92" y1="140.53" x2="239.68" y2="140.46"/><line x1="375.53" y1="196.49" x2="367.94" y2="194.77"/><line x1="195.94" y1="148.36" x2="143.97" y2="133.52"/><line x1="145.47" y1="211.90" x2="144.73" y2="213.22"/><line x1="340.04" y1="374.91" x2="337.53" y2="373.11"/><line x1="356.43" y1="131.95" x2="354.70" y2="132.04"/><line x1="317.45" y1="364.76" x2="317.45" y2="357.28"/><line x1="243.22" y1="346.84" x2="242.96" y2="347.50"/><line x1="143.88" y1="122.92" x2="144.33" y2="123.42"/><line x1="255.59" y1="357.59" x2="282.16" y2="257.22"/><line x1="239.68" y1="140.46" x2="240.62" y2="140.46"/><line x1="367.94" y1="194.77" x2="374.53" y2="192.63"/><line x1="144.73" y1="213.22" x2="144.12" y2="214.28"/><line x1="245.21" y1="143.17" x2="245.85" y2="177.38"/><line x1="349.88" y1="384.36" x2="350.39" y2="383.81"/><line x1="255.59" y1="357.59" x2="242.33" y2="348.49"/><line x1="157.59" y1="367.00" x2="157.91" y2="367.28"/><line x1="242.96" y1="347.50" x2="242.67" y2="348.05"/><line x1="376.63" y1="125.06" x2="373.70" y2="121.12"/><line x1="233.02" y1="165.00" x2="226.65" y2="154.32"/><line x1="144.33" y1="123.42" x2="144.83" y2="124.03"/><line x1="139.18" y1="128.97" x2="140.64" y2="129.64"/><line x1="145.71" y1="140.23" x2="181.61" y2="156.27"/><line x1="371.37" y1="140.66" x2="335.34" y2="157.84"/><line x1="350.39" y1="383.81" x2="350.82" y2="383.25"/><line x1="285.33" y1="358.91" x2="275.96" y2="358.18"/><line x1="134.28" y1="124.11" x2="134.95" y2="127.44"/><line x1="226.65" y1="154.32" x2="226.59" y2="153.01"/><line x1="376.87" y1="218.50" x2="376.47" y2="218.32"/><line x1="158.94" y1="364.16" x2="160.31" y2="363.55"/><line x1="243.72" y1="140.68" x2="244.03" y2="140.75"/><line x1="364.44" y1="184.75" x2="363.55" y2="182.63"/><line x1="181.61" y1="156.27" x2="177.10" y2="160.10"/><line x1="142.57" y1="214.07" x2="142.00" y2="213.95"/><line x1="293.90" y1="144.42" x2="292.21" y2="144.18"/><line x1="275.96" y1="358.18" x2="287.87" y2="349.70"/><line x1="228.25" y1="320.94" x2="228.48" y2="309.60"/><line x1="240.11" y1="349.46" x2="239.17" y2="349.59"/><line x1="376.37" y1="125.73" x2="371.31" y2="122.48"/><line x1="134.95" y1="127.44" x2="134.66" y2="123.69"/><line x1="147.24" y1="127.69" x2="147.94" y2="128.90"/><line x1="168.57" y1="169.64" x2="147.76" y2="169.66"/><line x1="244.03" y1="140.75" x2="244.26" y2="140.87"/><line x1="142.00" y1="213.95" x2="141.30" y2="213.81"/><line x1="351.79" y1="380.37" x2="351.62" y2="379.05"/><line x1="136.39" y1="128.08" x2="137.00" y2="128.30"/><line x1="239.17" y1="349.59" x2="238.07" y2="349.69"/><line x1="226.17" y1="148.82" x2="226.02" y2="148.05"/><line x1="374.87" y1="216.29" x2="374.49" y2="215.46"/><line x1="147.94" y1="128.90" x2="148.22" y2="129.59"/><line x1="286.09" y1="144.66" x2="285.20" y2="145.17"/><line x1="351.62" y1="379.05" x2="351.11" y2="377.63"/><line x1="285.22" y1="336.74" x2="284.73" y2="332.89"/><line x1="480.00" y1="32.02" x2="447.51" y2="32.02"/><line x1="162.06" y1="362.91" x2="164.20" y2="362.22"/><line x1="226.02" y1="148.05" x2="225.85" y2="147.38"/><line x1="376.63" y1="125.06" x2="372.26" y2="121.63"/><line x1="375.62" y1="127.45" x2="364.31" y2="130.49"/><line x1="370.96" y1="172.21" x2="370.77" y2="169.50"/><line x1="147.53" y1="165.04" x2="147.76" y2="169.66"/><line x1="288.70" y1="352.32" x2="285.33" y2="358.91"/><line x1="345.64" y1="370.91" x2="343.41" y2="368.99"/><line x1="350.32" y1="132.17" x2="347.67" y2="132.21"/><line x1="284.73" y1="332.89" x2="284.32" y2="328.79"/><line x1="198.29" y1="361.25" x2="210.79" y2="351.68"/><line x1="136.25" y1="122.48" x2="137.00" y2="128.30"/><line x1="358.35" y1="174.72" x2="356.13" y2="172.27"/><line x1="340.75" y1="383.43" x2="340.99" y2="383.84"/><line x1="373.30" y1="132.25" x2="309.36" y2="147.91"/><line x1="138.39" y1="128.75" x2="138.76" y2="121.44"/><line x1="232.57" y1="349.25" x2="232.21" y2="348.96"/><line x1="376.82" y1="124.51" x2="376.63" y2="125.06"/><line x1="224.73" y1="348.81" x2="225.75" y2="347.08"/><line x1="338.57" y1="159.57" x2="371.37" y2="140.66"/><line x1="340.04" y1="374.91" x2="343.41" y2="368.99"/><line x1="134.60" y1="127.23" x2="134.28" y2="124.11"/><line x1="224.12" y1="144.02" x2="223.58" y2="143.28"/><line x1="379.33" y1="217.02" x2="376.87" y2="218.50"/><line x1="255.59" y1="357.59" x2="282.56" y2="297.21"/><line x1="370.45" y1="160.66" x2="370.43" y2="157.48"/><line x1="295.86" y1="144.76" x2="293.90" y2="144.42"/><line x1="375.62" y1="127.45" x2="367.11" y2="128.15"/><line x1="340.48" y1="382.57" x2="340.58" y2="383.01"/><line x1="350.95" y1="167.63" x2="347.99" y2="165.45"/><line x1="372.32" y1="182.64" x2="364.44" y2="184.75"/><line x1="282.26" y1="155.06" x2="243.64" y2="345.19"/><line x1="329.50" y1="369.17" x2="323.98" y2="367.02"/><line x1="198.29" y1="361.25" x2="160.31" y2="363.55"/><line x1="371.93" y1="121.86" x2="376.37" y2="125.73"/><line x1="364.44" y1="184.75" x2="371.82" y2="179.83"/><line x1="373.30" y1="132.25" x2="325.41" y2="153.36"/><line x1="157.23" y1="366.22" x2="157.18" y2="365.72"/><line x1="160.31" y1="363.55" x2="162.06" y2="362.91"/><line x1="377.87" y1="218.51" x2="377.28" y2="218.57"/><line x1="232.22" y1="152.37" x2="225.63" y2="146.75"/><line x1="376.37" y1="125.73" x2="371.63" y2="122.13"/><line x1="143.97" y1="133.52" x2="144.72" y2="135.44"/><line x1="379.52" y1="215.55" x2="374.87" y2="216.29"/><line x1="168.57" y1="169.64" x2="147.53" y2="165.04"/><line x1="325.41" y1="153.36" x2="322.07" y2="152.09"/><line x1="157.38" y1="365.24" x2="157.96" y2="364.72"/><line x1="287.13" y1="144.28" x2="286.09" y2="144.66"/><line x1="136.39" y1="128.08" x2="136.25" y2="122.48"/><line x1="366.64" y1="190.82" x2="365.47" y2="187.48"/><line x1="191.12" y1="150.47" x2="186.28" y2="153.06"/><line x1="374.87" y1="216.29" x2="379.46" y2="214.19"/><line x1="370.67" y1="147.87" x2="370.96" y2="144.11"/><line x1="379.33" y1="217.02" x2="379.47" y2="216.35"/><line x1="360.33" y1="177.27" x2="370.96" y2="172.21"/><line x1="340.58" y1="383.01" x2="340.75" y2="383.43"/><line x1="310.23" y1="362.86" x2="302.47" y2="361.25"/><line x1="133.77" y1="124.93" x2="133.98" y2="124.52"/><line x1="480.00" y1="32.02" x2="480.00" y2="64.50"/><line x1="378.58" y1="208.56" x2="378.05" y2="206.17"/><line x1="233.06" y1="349.48" x2="232.57" y2="349.25"/><line x1="375.62" y1="127.45" x2="370.01" y2="124.12"/><line x1="149.87" y1="131.69" x2="150.25" y2="131.85"/><line x1="375.62" y1="127.45" x2="364.87" y2="130.18"/><line x1="282.26" y1="155.06" x2="245.73" y2="314.08"/><line x1="370.96" y1="172.21" x2="358.35" y2="174.72"/><line x1="373.34" y1="132.21" x2="373.45" y2="132.00"/><line x1="288.70" y1="352.32" x2="294.17" y2="359.94"/><line x1="345.64" y1="370.91" x2="340.04" y2="374.91"/><line x1="480.00" y1="479.91" x2="480.00" y2="447.42"/><line x1="204.09" y1="360.39" x2="207.44" y2="359.99"/><line x1="198.29" y1="361.25" x2="187.21" y2="356.54"/><line x1="370.01" y1="124.12" x2="369.46" y2="124.87"/><line x1="224.59" y1="144.74" x2="224.12" y2="144.02"/><line x1="378.99" y1="210.70" x2="373.49" y2="213.00"/><line x1="147.92" y1="179.39" x2="147.87" y2="181.59"/><line x1="373.45" y1="132.00" x2="373.64" y2="131.63"/><line x1="373.30" y1="132.25" x2="312.43" y2="148.82"/><line x1="283.87" y1="146.67" x2="283.43" y2="147.64"/><line x1="245.85" y1="177.38" x2="246.16" y2="273.27"/><line x1="232.22" y1="152.37" x2="226.42" y2="150.70"/><line x1="138.39" y1="128.75" x2="138.31" y2="121.53"/><line x1="373.49" y1="213.00" x2="373.23" y2="212.26"/><line x1="353.66" y1="169.91" x2="370.45" y2="160.66"/><line x1="343.09" y1="385.62" x2="343.58" y2="385.85"/><line x1="352.66" y1="132.12" x2="290.80" y2="144.03"/><line x1="283.43" y1="147.64" x2="283.09" y2="148.78"/><line x1="246.16" y1="273.27" x2="246.16" y2="276.77"/><line x1="447.51" y1="479.91" x2="480.00" y2="447.42"/><line x1="227.31" y1="337.85" x2="227.86" y2="330.35"/><line x1="362.06" y1="179.90" x2="360.33" y2="177.27"/><line x1="370.45" y1="160.66" x2="350.95" y2="167.63"/><line x1="343.58" y1="385.85" x2="344.07" y2="386.03"/><line x1="286.41" y1="343.71" x2="285.79" y2="340.35"/><line x1="334.53" y1="363.44" x2="329.50" y2="369.17"/><line x1="376.91" y1="123.09" x2="376.97" y2="123.81"/><line x1="255.59" y1="357.59" x2="225.75" y2="347.08"/><line x1="227.86" y1="330.35" x2="228.25" y2="320.94"/><line x1="366.00" y1="129.32" x2="365.44" y2="129.79"/><line x1="164.55" y1="175.35" x2="160.68" y2="181.68"/><line x1="375.62" y1="127.45" x2="367.66" y2="127.45"/><line x1="282.26" y1="155.06" x2="245.85" y2="177.38"/><line x1="340.48" y1="382.57" x2="340.45" y2="382.12"/><line x1="151.04" y1="201.00" x2="149.68" y2="203.74"/><line x1="282.26" y1="155.06" x2="243.79" y2="344.20"/><line x1="362.14" y1="131.21" x2="361.22" y2="131.41"/><line x1="329.50" y1="369.17" x2="330.82" y2="361.77"/><line x1="244.95" y1="331.94" x2="244.42" y2="338.77"/><line x1="374.86" y1="121.15" x2="374.10" y2="121.10"/><line x1="379.28" y1="212.57" x2="378.99" y2="210.70"/><line x1="378.78" y1="218.01" x2="378.37" y2="218.32"/><line x1="141.60" y1="121.69" x2="142.27" y2="121.91"/><line x1="152.12" y1="132.12" x2="153.07" y2="132.17"/><line x1="378.05" y1="206.17" x2="377.41" y2="203.52"/><line x1="232.74" y1="142.01" x2="233.76" y2="141.45"/><line x1="344.90" y1="163.37" x2="341.75" y2="161.42"/><line x1="149.68" y1="203.74" x2="148.43" y2="206.20"/><line x1="346.89" y1="386.11" x2="347.53" y2="385.92"/><line x1="157.23" y1="366.22" x2="157.38" y2="365.24"/><line x1="134.04" y1="126.78" x2="134.29" y2="127.01"/><line x1="244.42" y1="338.77" x2="243.79" y2="344.20"/><line x1="217.10" y1="142.68" x2="220.75" y2="142.52"/><line x1="377.87" y1="218.51" x2="379.11" y2="217.58"/><line x1="232.22" y1="152.37" x2="225.85" y2="147.38"/><line x1="356.13" y1="172.27" x2="353.66" y2="169.91"/><line x1="138.39" y1="128.75" x2="139.18" y2="128.97"/><line x1="143.97" y1="133.52" x2="191.12" y2="150.47"/><line x1="352.66" y1="132.12" x2="300.61" y2="145.74"/><line x1="347.53" y1="385.92" x2="348.14" y2="385.64"/><line x1="306.33" y1="147.10" x2="356.43" y2="131.95"/><line x1="317.45" y1="357.28" x2="310.23" y2="362.86"/><line x1="234.75" y1="253.14" x2="234.53" y2="225.47"/><line x1="366.64" y1="190.82" x2="372.93" y2="185.71"/><line x1="191.12" y1="150.47" x2="144.72" y2="135.44"/><line x1="144.12" y1="214.28" x2="143.48" y2="214.28"/><line x1="310.23" y1="362.86" x2="288.70" y2="352.32"/><line x1="342.05" y1="378.15" x2="349.05" y2="374.47"/><line x1="242.67" y1="348.05" x2="242.33" y2="348.49"/><line x1="378.58" y1="208.56" x2="370.94" y2="204.51"/><line x1="347.99" y1="165.45" x2="344.90" y2="163.37"/><line x1="177.10" y1="160.10" x2="146.81" y2="153.90"/><line x1="225.75" y1="347.08" x2="226.60" y2="343.43"/><line x1="241.45" y1="140.49" x2="242.18" y2="140.51"/><line x1="375.62" y1="127.45" x2="365.44" y2="129.79"/><line x1="371.89" y1="137.54" x2="372.54" y2="134.73"/><line x1="143.48" y1="214.28" x2="143.46" y2="214.26"/><line x1="282.26" y1="155.06" x2="245.97" y2="303.05"/><line x1="158.82" y1="367.59" x2="159.41" y2="367.63"/><line x1="234.18" y1="318.91" x2="234.81" y2="284.56"/><line x1="134.66" y1="123.69" x2="135.12" y2="123.27"/><line x1="242.33" y1="348.49" x2="241.97" y2="348.81"/><line x1="480.00" y1="479.91" x2="447.51" y2="479.91"/><line x1="198.29" y1="361.25" x2="166.74" y2="361.49"/><line x1="141.93" y1="130.61" x2="209.22" y2="143.98"/><line x1="332.07" y1="156.23" x2="328.76" y2="154.74"/><line x1="323.98" y1="367.02" x2="317.45" y2="364.76"/><line x1="351.17" y1="382.69" x2="351.44" y2="382.12"/><line x1="231.92" y1="142.69" x2="232.74" y2="142.01"/><line x1="373.30" y1="132.25" x2="315.58" y2="149.82"/><line x1="140.64" y1="129.64" x2="144.83" y2="124.03"/><line x1="135.37" y1="127.65" x2="135.85" y2="127.87"/><line x1="160.68" y1="181.68" x2="147.46" y2="187.19"/><line x1="232.22" y1="152.37" x2="226.52" y2="151.80"/><line x1="366.55" y1="128.78" x2="366.00" y2="129.32"/><line x1="146.30" y1="147.38" x2="146.81" y2="153.90"/><line x1="232.22" y1="152.37" x2="231.29" y2="143.49"/><line x1="341.46" y1="132.25" x2="244.48" y2="141.07"/><line x1="157.96" y1="364.72" x2="158.33" y2="367.47"/><line x1="306.33" y1="147.10" x2="362.14" y2="131.21"/><line x1="352.66" y1="132.12" x2="292.21" y2="144.18"/><line x1="287.10" y1="346.83" x2="286.41" y2="343.71"/><line x1="147.76" y1="169.66" x2="147.89" y2="173.65"/><line x1="362.06" y1="179.90" x2="371.20" y2="174.81"/><line x1="370.94" y1="204.51" x2="378.05" y2="206.17"/><line x1="244.48" y1="141.07" x2="244.67" y2="141.34"/><line x1="228.56" y1="274.87" x2="234.75" y2="253.14"/><line x1="342.05" y1="378.15" x2="348.14" y2="385.64"/><line x1="342.05" y1="378.15" x2="351.75" y2="380.96"/><line x1="137.00" y1="128.30" x2="137.67" y2="128.52"/><line x1="376.91" y1="123.09" x2="374.86" y2="121.15"/><line x1="374.49" y1="215.46" x2="374.12" y2="214.60"/><line x1="225.75" y1="347.08" x2="233.06" y2="349.48"/><line x1="164.55" y1="175.35" x2="147.94" y2="177.01"/><line x1="282.26" y1="155.06" x2="282.18" y2="157.07"/><line x1="370.49" y1="151.96" x2="344.90" y2="163.37"/><line x1="285.20" y1="145.17" x2="284.47" y2="145.85"/><line x1="141.93" y1="130.61" x2="148.22" y2="129.59"/><line x1="136.80" y1="122.15" x2="137.33" y2="121.89"/><line x1="150.72" y1="131.95" x2="151.34" y2="132.04"/><line x1="379.28" y1="212.57" x2="373.79" y2="213.78"/><line x1="378.78" y1="218.01" x2="377.87" y2="218.51"/><line x1="146.98" y1="190.07" x2="142.00" y2="213.95"/><line x1="370.77" y1="169.50" x2="370.62" y2="166.67"/><line x1="378.99" y1="210.70" x2="378.58" y2="208.56"/><line x1="344.90" y1="163.37" x2="370.67" y2="147.87"/><line x1="347.67" y1="132.21" x2="344.72" y2="132.23"/><line x1="343.41" y1="368.99" x2="340.82" y2="367.04"/><line x1="375.62" y1="127.45" x2="375.13" y2="128.50"/><line x1="134.04" y1="126.78" x2="133.77" y2="124.93"/><line x1="217.10" y1="142.68" x2="152.12" y2="132.12"/><line x1="377.87" y1="218.51" x2="378.37" y2="218.32"/><line x1="356.13" y1="172.27" x2="370.52" y2="163.73"/><line x1="374.53" y1="192.63" x2="366.64" y2="190.82"/><line x1="341.46" y1="132.25" x2="242.80" y2="140.55"/><line x1="337.53" y1="373.11" x2="334.01" y2="371.20"/><line x1="341.46" y1="132.25" x2="245.12" y2="142.60"/><line x1="352.66" y1="132.12" x2="303.39" y2="146.36"/><line x1="376.03" y1="121.59" x2="375.50" y2="121.32"/><line x1="306.33" y1="147.10" x2="357.86" y2="131.85"/><line x1="215.07" y1="359.27" x2="219.34" y2="358.94"/><line x1="373.70" y1="121.12" x2="373.32" y2="121.18"/><line x1="144.83" y1="124.03" x2="145.36" y2="124.76"/><line x1="366.64" y1="190.82" x2="373.67" y2="189.05"/><line x1="245.21" y1="143.17" x2="285.20" y2="145.17"/><line x1="342.05" y1="378.15" x2="345.06" y2="386.24"/><line x1="335.34" y1="157.84" x2="371.89" y2="137.54"/><line x1="245.21" y1="143.17" x2="282.39" y2="153.23"/><line x1="342.05" y1="378.15" x2="350.39" y2="383.81"/><line x1="350.82" y1="383.25" x2="351.17" y2="382.69"/><line x1="133.71" y1="126.29" x2="133.64" y2="125.34"/><line x1="376.73" y1="122.48" x2="376.91" y2="123.09"/><line x1="158.33" y1="367.47" x2="158.82" y2="367.59"/><line x1="342.05" y1="378.15" x2="350.26" y2="376.09"/><line x1="228.56" y1="274.87" x2="233.02" y2="165.00"/><line x1="373.32" y1="121.18" x2="372.95" y2="121.28"/><line x1="378.58" y1="208.56" x2="372.65" y2="210.30"/><line x1="376.47" y1="218.32" x2="376.06" y2="217.99"/><line x1="347.99" y1="165.45" x2="370.49" y2="151.96"/><line x1="177.10" y1="160.10" x2="146.30" y2="147.38"/><line x1="225.75" y1="347.08" x2="231.92" y2="348.18"/><line x1="371.89" y1="137.54" x2="332.07" y2="156.23"/><line x1="210.79" y1="351.68" x2="211.11" y2="359.62"/><line x1="287.87" y1="349.70" x2="287.10" y2="346.83"/><line x1="282.26" y1="155.06" x2="255.59" y2="357.59"/><line x1="234.18" y1="318.91" x2="228.56" y2="296.34"/><line x1="134.66" y1="123.69" x2="135.37" y2="127.65"/><line x1="141.93" y1="130.61" x2="149.51" y2="131.45"/><line x1="146.98" y1="190.07" x2="143.48" y2="214.28"/><line x1="376.06" y1="217.99" x2="375.67" y2="217.56"/><line x1="309.36" y1="147.91" x2="373.90" y2="131.10"/><line x1="141.93" y1="130.61" x2="213.26" y2="143.16"/><line x1="371.82" y1="179.83" x2="363.55" y2="182.63"/><line x1="141.30" y1="213.81" x2="140.46" y2="213.64"/><line x1="323.98" y1="367.02" x2="322.28" y2="358.68"/><line x1="290.80" y1="144.03" x2="289.65" y2="143.99"/><line x1="374.10" y1="121.10" x2="376.63" y2="125.06"/><line x1="133.60" y1="125.76" x2="133.64" y2="125.34"/><line x1="231.29" y1="143.49" x2="153.07" y2="132.17"/><line x1="140.64" y1="129.64" x2="144.33" y2="123.42"/><line x1="371.63" y1="122.13" x2="371.31" y2="122.48"/><line x1="160.68" y1="181.68" x2="147.63" y2="185.49"/><line x1="379.46" y1="214.19" x2="379.28" y2="212.57"/><line x1="148.22" y1="129.59" x2="148.52" y2="130.18"/><line x1="363.55" y1="182.63" x2="362.06" y2="179.90"/><line x1="133.85" y1="126.54" x2="134.04" y2="126.78"/><line x1="341.46" y1="132.25" x2="244.26" y2="140.87"/><line x1="157.96" y1="364.72" x2="157.91" y2="367.28"/><line x1="351.11" y1="377.63" x2="350.26" y2="376.09"/><line x1="164.20" y1="362.22" x2="166.74" y2="361.49"/><line x1="306.33" y1="147.10" x2="303.39" y2="146.36"/><line x1="371.31" y1="122.48" x2="370.93" y2="122.92"/><line x1="354.70" y1="132.04" x2="352.66" y2="132.12"/><line x1="186.28" y1="153.06" x2="181.61" y2="156.27"/><line x1="255.59" y1="357.59" x2="234.48" y2="349.74"/><line x1="147.76" y1="169.66" x2="164.55" y2="175.35"/><line x1="342.05" y1="378.15" x2="342.61" y2="385.33"/><line x1="318.79" y1="150.91" x2="315.58" y2="149.82"/><line x1="245.21" y1="143.17" x2="283.87" y2="146.67"/><line x1="342.05" y1="378.15" x2="347.53" y2="385.92"/><line x1="232.73" y1="339.51" x2="234.18" y2="318.91"/><line x1="342.05" y1="378.15" x2="351.64" y2="381.54"/><line x1="137.00" y1="128.30" x2="136.80" y2="122.15"/><line x1="225.63" y1="146.75" x2="225.35" y2="146.10"/><line x1="374.49" y1="215.46" x2="379.28" y2="212.57"/><line x1="157.91" y1="367.28" x2="158.33" y2="367.47"/><line x1="340.99" y1="383.84" x2="341.30" y2="384.24"/><line x1="156.87" y1="132.25" x2="234.96" y2="141.02"/><line x1="141.93" y1="130.61" x2="147.94" y2="128.90"/><line x1="146.98" y1="190.07" x2="147.32" y2="208.38"/><line x1="141.93" y1="130.61" x2="217.10" y2="142.68"/><line x1="150.72" y1="131.95" x2="217.10" y2="142.68"/><line x1="146.98" y1="190.07" x2="142.57" y2="214.07"/><line x1="370.77" y1="169.50" x2="356.13" y2="172.27"/><line x1="309.36" y1="147.91" x2="306.33" y2="147.10"/><line x1="141.93" y1="130.61" x2="143.03" y2="131.91"/><line x1="226.59" y1="153.01" x2="232.22" y2="152.37"/><line x1="343.41" y1="368.99" x2="337.53" y2="373.11"/><line x1="211.11" y1="359.62" x2="215.07" y2="359.27"/><line x1="232.00" y1="348.60" x2="231.92" y2="348.18"/><line x1="292.21" y1="144.18" x2="290.80" y2="144.03"/><line x1="140.64" y1="129.64" x2="141.93" y2="130.61"/><line x1="231.29" y1="143.49" x2="231.92" y2="142.69"/><line x1="373.00" y1="211.56" x2="372.81" y2="210.91"/><line x1="160.68" y1="181.68" x2="151.04" y2="201.00"/><line x1="147.76" y1="183.62" x2="147.63" y2="185.49"/><line x1="341.46" y1="132.25" x2="242.18" y2="140.51"/><line x1="266.04" y1="357.74" x2="284.73" y2="332.89"/><line x1="244.26" y1="140.87" x2="244.48" y2="141.07"/><line x1="341.46" y1="132.25" x2="244.99" y2="142.11"/><line x1="376.03" y1="121.59" x2="376.44" y2="121.98"/><line x1="255.59" y1="357.59" x2="243.64" y2="345.19"/><line x1="138.76" y1="121.44" x2="139.18" y2="121.41"/><line x1="255.59" y1="357.59" x2="240.11" y2="349.46"/><line x1="153.07" y1="132.17" x2="154.18" y2="132.21"/><line x1="342.05" y1="378.15" x2="340.75" y2="383.43"/><line x1="370.43" y1="157.48" x2="370.43" y2="157.00"/><line x1="238.07" y1="349.69" x2="236.82" y2="349.75"/><line x1="245.21" y1="143.17" x2="350.32" y2="132.17"/><line x1="344.07" y1="386.03" x2="344.56" y2="386.16"/><line x1="342.05" y1="378.15" x2="344.56" y2="386.16"/><line x1="245.21" y1="143.17" x2="282.57" y2="151.57"/><line x1="342.05" y1="378.15" x2="349.88" y2="384.36"/><line x1="228.56" y1="274.87" x2="233.67" y2="181.40"/><line x1="133.71" y1="126.29" x2="133.63" y2="126.03"/><line x1="322.07" y1="152.09" x2="318.79" y2="150.91"/><line x1="246.11" y1="290.61" x2="245.97" y2="303.05"/><line x1="342.05" y1="378.15" x2="351.11" y2="377.63"/><line x1="225.75" y1="347.08" x2="232.00" y2="348.60"/><line x1="225.85" y1="147.38" x2="225.63" y2="146.75"/><line x1="210.79" y1="351.68" x2="207.44" y2="359.99"/><line x1="376.97" y1="123.81" x2="376.93" y2="124.09"/><line x1="142.88" y1="122.19" x2="143.42" y2="122.53"/><line x1="234.18" y1="318.91" x2="228.48" y2="309.60"/><line x1="141.93" y1="130.61" x2="149.16" y2="131.11"/><line x1="376.65" y1="200.60" x2="375.53" y2="196.49"/><line x1="146.98" y1="190.07" x2="144.12" y2="214.28"/><line x1="309.36" y1="147.91" x2="373.64" y2="131.63"/><line x1="284.32" y1="328.79" x2="282.56" y2="297.21"/><line x1="323.98" y1="367.02" x2="326.74" y2="360.18"/><line x1="374.10" y1="121.10" x2="376.82" y2="124.51"/><line x1="231.29" y1="143.49" x2="223.58" y2="143.28"/><line x1="140.64" y1="129.64" x2="143.88" y2="122.92"/><line x1="160.68" y1="181.68" x2="147.76" y2="183.62"/><line x1="144.72" y1="135.44" x2="145.30" y2="137.68"/><line x1="234.96" y1="141.02" x2="236.34" y2="140.71"/><line x1="379.46" y1="214.19" x2="374.49" y2="215.46"/><line x1="341.75" y1="161.42" x2="338.57" y2="159.57"/><line x1="232.21" y1="348.96" x2="232.00" y2="348.60"/><line x1="341.46" y1="132.25" x2="244.03" y2="140.75"/><line x1="157.96" y1="364.72" x2="157.59" y2="367.00"/><line x1="134.29" y1="127.01" x2="134.60" y2="127.23"/><line x1="243.64" y1="345.19" x2="243.45" y2="346.07"/><line x1="480.00" y1="64.50" x2="447.51" y2="32.02"/><line x1="379.11" y1="217.58" x2="379.33" y2="217.02"/><line x1="255.59" y1="357.59" x2="242.67" y2="348.05"/><line x1="186.28" y1="153.06" x2="145.71" y2="140.23"/><line x1="255.59" y1="357.59" x2="235.40" y2="349.76"/><line x1="342.05" y1="378.15" x2="342.13" y2="384.99"/><line x1="245.21" y1="143.17" x2="344.72" y2="132.23"/><line x1="342.05" y1="378.15" x2="346.89" y2="386.11"/><line x1="139.18" y1="128.97" x2="142.88" y2="122.19"/><line x1="232.73" y1="339.51" x2="228.25" y2="320.94"/><line x1="133.98" y1="124.52" x2="134.28" y2="124.11"/><line x1="145.94" y1="125.62" x2="146.57" y2="126.60"/><line x1="369.46" y1="124.87" x2="368.86" y2="125.72"/><line x1="372.93" y1="185.71" x2="372.32" y2="182.64"/><line x1="246.16" y1="276.77" x2="246.11" y2="290.61"/><line x1="158.94" y1="364.16" x2="198.29" y2="361.25"/><line x1="156.87" y1="132.25" x2="233.76" y2="141.45"/><line x1="141.93" y1="130.61" x2="147.24" y2="127.69"/><line x1="330.82" y1="361.77" x2="326.74" y2="360.18"/><line x1="146.98" y1="190.07" x2="148.43" y2="206.20"/><line x1="146.81" y1="153.90" x2="147.21" y2="159.78"/><line x1="373.23" y1="212.26" x2="373.00" y2="211.56"/><line x1="372.54" y1="134.73" x2="373.30" y2="132.25"/><line x1="228.25" y1="320.94" x2="234.18" y2="318.91"/><line x1="309.36" y1="147.91" x2="375.13" y2="128.50"/><line x1="373.90" y1="131.10" x2="374.24" y2="130.40"/><line x1="344.72" y1="132.23" x2="341.46" y2="132.25"/><line x1="135.12" y1="123.27" x2="135.67" y2="122.86"/><line x1="172.75" y1="164.56" x2="168.57" y2="169.64"/><line x1="341.46" y1="132.25" x2="156.87" y2="132.25"/><line x1="288.32" y1="144.06" x2="287.13" y2="144.28"/><line x1="255.59" y1="357.59" x2="266.04" y2="357.74"/><line x1="266.04" y1="357.74" x2="285.22" y2="336.74"/><line x1="282.80" y1="150.08" x2="282.57" y2="151.57"/><line x1="135.85" y1="127.87" x2="136.39" y2="128.08"/><line x1="365.44" y1="129.79" x2="364.87" y2="130.18"/><line x1="209.22" y1="143.98" x2="204.99" y2="145.11"/><line x1="255.59" y1="357.59" x2="240.89" y2="349.28"/><line x1="342.05" y1="378.15" x2="340.58" y2="383.01"/><line x1="245.21" y1="143.17" x2="286.09" y2="144.66"/><line x1="342.05" y1="378.15" x2="344.07" y2="386.03"/><line x1="376.63" y1="125.06" x2="372.59" y2="121.43"/><line x1="137.67" y1="128.52" x2="138.39" y2="128.75"/><line x1="133.71" y1="126.29" x2="133.60" y2="125.76"/><line x1="148.43" y1="206.20" x2="147.32" y2="208.38"/><line x1="347.52" y1="372.74" x2="345.64" y2="370.91"/><line x1="360.20" y1="131.58" x2="359.08" y2="131.72"/><line x1="150.25" y1="131.85" x2="150.72" y2="131.95"/><line x1="210.79" y1="351.68" x2="204.09" y2="360.39"/><line x1="358.35" y1="174.72" x2="370.77" y2="169.50"/><line x1="376.97" y1="123.81" x2="374.10" y2="121.10"/><line x1="225.00" y1="145.43" x2="224.59" y2="144.74"/><line x1="142.88" y1="122.19" x2="140.64" y2="129.64"/><line x1="156.87" y1="132.25" x2="239.68" y2="140.46"/><line x1="147.94" y1="177.01" x2="147.92" y2="179.39"/><line x1="207.44" y1="359.99" x2="211.11" y2="359.62"/><line x1="309.36" y1="147.91" x2="373.45" y2="132.00"/><line x1="275.96" y1="358.18" x2="266.04" y2="357.74"/><line x1="224.73" y1="348.81" x2="255.59" y2="357.59"/><line x1="147.87" y1="181.59" x2="147.76" y2="183.62"/><line x1="373.64" y1="131.63" x2="373.90" y2="131.10"/><line x1="144.72" y1="135.44" x2="186.28" y2="153.06"/><line x1="341.75" y1="161.42" x2="370.96" y2="144.11"/><line x1="138.31" y1="121.53" x2="138.76" y2="121.44"/><line x1="334.01" y1="371.20" x2="329.50" y2="369.17"/><line x1="255.59" y1="357.59" x2="284.32" y2="328.79"/><line x1="226.60" y1="343.43" x2="227.31" y2="337.85"/><line x1="134.29" y1="127.01" x2="133.98" y2="124.52"/><line x1="283.09" y1="148.78" x2="282.80" y2="150.08"/><line x1="255.59" y1="357.59" x2="242.96" y2="347.50"/><line x1="143.46" y1="214.26" x2="143.30" y2="214.22"/><line x1="255.59" y1="357.59" x2="236.82" y2="349.75"/><line x1="300.61" y1="145.74" x2="298.10" y2="145.20"/><line x1="213.26" y1="143.16" x2="209.22" y2="143.98"/><line x1="350.95" y1="167.63" x2="370.43" y2="157.48"/><line x1="139.18" y1="128.97" x2="142.27" y2="121.91"/><line x1="145.94" y1="125.62" x2="141.93" y2="130.61"/><line x1="372.93" y1="185.71" x2="365.47" y2="187.48"/><line x1="158.94" y1="364.16" x2="159.41" y2="367.63"/><line x1="361.22" y1="131.41" x2="360.20" y2="131.58"/><line x1="379.47" y1="216.35" x2="379.52" y2="215.55"/><line x1="330.82" y1="361.77" x2="323.98" y2="367.02"/><line x1="146.81" y1="153.90" x2="172.75" y2="164.56"/><line x1="372.54" y1="134.73" x2="328.76" y2="154.74"/><line x1="142.27" y1="121.91" x2="142.88" y2="122.19"/><line x1="233.76" y1="141.45" x2="234.96" y2="141.02"/><line x1="377.41" y1="203.52" x2="376.65" y2="200.60"/><line x1="133.64" y1="125.34" x2="133.77" y2="124.93"/><line x1="32.16" y1="32.09" x2="32.16" y2="64.58"/><line x1="135.12" y1="123.27" x2="135.85" y2="127.87"/><line x1="157.38" y1="365.24" x2="157.18" y2="365.72"/><line x1="222.97" y1="142.52" x2="231.29" y2="143.49"/><line x1="243.79" y1="344.20" x2="243.64" y2="345.19"/><line x1="288.32" y1="144.06" x2="245.21" y2="143.17"/><line x1="370.67" y1="147.87" x2="341.75" y2="161.42"/><line x1="379.33" y1="217.02" x2="375.67" y2="217.56"/><line x1="255.59" y1="357.59" x2="282.18" y2="157.07"/><line x1="376.03" y1="126.53" x2="375.62" y2="127.45"/><line x1="348.14" y1="385.64" x2="348.75" y2="385.30"/><line x1="148.83" y1="130.69" x2="149.16" y2="131.11"/><line x1="133.77" y1="124.93" x2="134.29" y2="127.01"/><line x1="234.53" y1="225.47" x2="234.17" y2="201.55"/><line x1="376.63" y1="125.06" x2="372.95" y2="121.28"/><line x1="233.02" y1="165.00" x2="232.22" y2="152.37"/><line x1="137.67" y1="128.52" x2="137.83" y2="121.68"/><line x1="303.39" y1="146.36" x2="300.61" y2="145.74"/><line x1="145.71" y1="140.23" x2="146.30" y2="147.38"/><line x1="288.70" y1="352.32" x2="302.47" y2="361.25"/><line x1="145.36" y1="124.76" x2="145.94" y2="125.62"/><line x1="284.47" y1="145.85" x2="283.87" y2="146.67"/><line x1="242.18" y1="140.51" x2="242.80" y2="140.55"/><line x1="241.97" y1="348.81" x2="241.51" y2="349.07"/><line x1="375.67" y1="217.56" x2="375.27" y2="216.98"/><line x1="275.96" y1="358.18" x2="286.41" y2="343.71"/><line x1="376.37" y1="125.73" x2="376.03" y2="126.53"/><line x1="224.73" y1="348.81" x2="223.92" y2="358.63"/><line x1="351.44" y1="382.12" x2="351.64" y2="381.54"/><line x1="226.52" y1="151.80" x2="226.42" y2="150.70"/><line x1="334.01" y1="371.20" x2="334.53" y2="363.44"/><line x1="255.59" y1="357.59" x2="284.73" y2="332.89"/><line x1="140.06" y1="121.45" x2="140.87" y2="121.54"/><line x1="372.95" y1="121.28" x2="372.59" y2="121.43"/><line x1="286.41" y1="343.71" x2="266.04" y2="357.74"/><line x1="370.93" y1="122.92" x2="370.50" y2="123.47"/><line x1="244.67" y1="141.34" x2="244.84" y2="141.68"/><line x1="375.62" y1="127.45" x2="368.21" y2="126.67"/><line x1="340.48" y1="382.57" x2="342.05" y2="378.15"/><line x1="375.62" y1="127.45" x2="362.97" y2="131.00"/><line x1="282.26" y1="155.06" x2="244.42" y2="338.77"/><line x1="155.44" y1="132.23" x2="156.87" y2="132.25"/><line x1="288.70" y1="352.32" x2="287.87" y2="349.70"/><line x1="235.40" y1="349.76" x2="234.48" y2="349.74"/><line x1="374.86" y1="121.15" x2="376.97" y2="123.81"/><line x1="228.56" y1="296.34" x2="228.56" y2="274.87"/><line x1="349.05" y1="374.47" x2="347.52" y2="372.74"/><line x1="143.03" y1="131.91" x2="143.97" y2="133.52"/><line x1="32.00" y1="479.98" x2="64.49" y2="479.98"/><line x1="225.35" y1="146.10" x2="225.00" y2="145.43"/><line x1="322.28" y1="358.68" x2="317.45" y2="357.28"/><line x1="232.22" y1="152.37" x2="226.02" y2="148.05"/><line x1="138.39" y1="128.75" x2="140.06" y2="121.45"/><line x1="375.53" y1="196.49" x2="374.53" y2="192.63"/><line x1="352.66" y1="132.12" x2="245.21" y2="143.17"/><line x1="231.92" y1="348.18" x2="232.73" y2="339.51"/><line x1="379.33" y1="217.02" x2="376.06" y2="217.99"/><line x1="340.82" y1="367.04" x2="337.86" y2="365.20"/><line x1="362.97" y1="131.00" x2="362.14" y2="131.21"/><line x1="373.67" y1="189.05" x2="372.93" y2="185.71"/><line x1="375.62" y1="127.45" x2="366.00" y2="129.32"/><line x1="282.26" y1="155.06" x2="246.11" y2="290.61"/><line x1="233.02" y1="165.00" x2="226.59" y2="153.01"/><line x1="137.67" y1="128.52" x2="137.33" y2="121.89"/><line x1="145.71" y1="140.23" x2="177.10" y2="160.10"/><line x1="158.82" y1="367.59" x2="158.94" y2="364.16"/><line x1="198.29" y1="361.25" x2="164.20" y2="362.22"/><line x1="134.28" y1="124.11" x2="134.66" y2="123.69"/><line x1="332.07" y1="156.23" x2="372.54" y2="134.73"/><line x1="151.34" y1="132.04" x2="152.12" y2="132.12"/><line x1="373.30" y1="132.25" x2="318.79" y2="150.91"/><line x1="157.23" y1="366.22" x2="157.37" y2="366.65"/><line x1="135.37" y1="127.65" x2="135.12" y2="123.27"/><line x1="200.56" y1="146.58" x2="195.94" y2="148.36"/><line x1="375.67" y1="217.56" x2="379.47" y2="216.35"/><line x1="232.22" y1="152.37" x2="225.00" y2="145.43"/><line x1="224.73" y1="348.81" x2="219.34" y2="358.94"/><line x1="289.65" y1="143.99" x2="288.32" y2="144.06"/><line x1="168.57" y1="169.64" x2="164.55" y2="175.35"/><line x1="352.66" y1="132.12" x2="293.90" y2="144.42"/><line x1="236.82" y1="349.75" x2="235.40" y2="349.76"/><line x1="148.52" y1="130.18" x2="148.83" y2="130.69"/><line x1="362.06" y1="179.90" x2="371.47" y2="177.28"/><line x1="140.06" y1="121.45" x2="139.18" y2="128.97"/><line x1="350.26" y1="376.09" x2="349.05" y2="374.47"/><line x1="166.74" y1="361.49" x2="187.21" y2="356.54"/><line x1="370.93" y1="122.92" x2="376.03" y2="126.53"/><line x1="282.39" y1="153.23" x2="282.26" y2="155.06"/><line x1="164.55" y1="175.35" x2="147.89" y2="173.65"/><line x1="375.62" y1="127.45" x2="368.86" y2="125.72"/><line x1="315.58" y1="149.82" x2="312.43" y2="148.82"/><line x1="375.62" y1="127.45" x2="363.69" y2="130.76"/><line x1="282.26" y1="155.06" x2="244.95" y2="331.94"/><line x1="282.56" y1="297.21" x2="282.16" y2="257.22"/><line x1="136.80" y1="122.15" x2="137.67" y2="128.52"/><line x1="379.28" y1="212.57" x2="374.12" y2="214.60"/><line x1="147.89" y1="173.65" x2="147.94" y2="177.01"/><line x1="198.29" y1="361.25" x2="201.03" y2="360.81"/><line x1="341.30" y1="384.24" x2="341.68" y2="384.63"/><line x1="378.99" y1="210.70" x2="373.00" y2="211.56"/><line x1="282.16" y1="257.22" x2="282.16" y2="159.26"/><line x1="32.00" y1="479.98" x2="32.00" y2="447.50"/><line x1="373.30" y1="132.25" x2="373.34" y2="132.21"/><line x1="357.86" y1="131.85" x2="356.43" y2="131.95"/><line x1="217.10" y1="142.68" x2="151.34" y2="132.04"/><line x1="232.22" y1="152.37" x2="226.17" y2="148.82"/><line x1="356.13" y1="172.27" x2="370.62" y2="166.67"/><line x1="138.39" y1="128.75" x2="139.18" y2="121.41"/><line x1="341.68" y1="384.63" x2="342.13" y2="384.99"/><line x1="337.53" y1="373.11" x2="340.82" y2="367.04"/><line x1="215.07" y1="359.27" x2="224.73" y2="348.81"/><line x1="306.33" y1="147.10" x2="359.08" y2="131.72"/><line x1="338.57" y1="159.57" x2="335.34" y2="157.84"/><line x1="368.21" y1="126.67" x2="367.66" y2="127.45"/><line x1="352.66" y1="132.12" x2="288.32" y2="144.06"/><line x1="231.92" y1="348.18" x2="226.60" y2="343.43"/><line x1="157.37" y1="366.65" x2="157.59" y2="367.00"/><line x1="147.63" y1="185.49" x2="147.46" y2="187.19"/><line x1="134.60" y1="127.23" x2="134.95" y2="127.44"/><line x1="374.24" y1="130.40" x2="374.65" y2="129.53"/><line x1="370.94" y1="204.51" x2="369.37" y2="199.34"/><line x1="379.33" y1="217.02" x2="376.47" y2="218.32"/><line x1="340.82" y1="367.04" x2="334.01" y2="371.20"/><line x1="362.97" y1="131.00" x2="306.33" y2="147.10"/><line x1="376.73" y1="122.48" x2="375.50" y2="121.32"/><line x1="139.18" y1="121.41" x2="140.06" y2="121.45"/><line x1="154.18" y1="132.21" x2="155.44" y2="132.23"/><line x1="378.58" y1="208.56" x2="372.81" y2="210.91"/><line x1="347.99" y1="165.45" x2="370.43" y2="156.36"/><line x1="147.46" y1="187.19" x2="147.24" y2="188.72"/><line x1="344.56" y1="386.16" x2="345.06" y2="386.24"/><line x1="375.62" y1="127.45" x2="366.55" y2="128.78"/><line x1="282.26" y1="155.06" x2="246.16" y2="276.77"/><line x1="282.57" y1="151.57" x2="282.39" y2="153.23"/><line x1="372.32" y1="182.64" x2="371.82" y2="179.83"/><line x1="245.97" y1="303.05" x2="245.73" y2="314.08"/><line x1="204.99" y1="145.11" x2="200.56" y2="146.58"/><line x1="245.21" y1="143.17" x2="245.12" y2="142.60"/><line x1="198.29" y1="361.25" x2="162.06" y2="362.91"/><line x1="371.93" y1="121.86" x2="371.63" y2="122.13"/><line x1="345.06" y1="386.24" x2="345.57" y2="386.27"/><line x1="133.60" y1="125.76" x2="133.63" y2="126.03"/><line x1="373.30" y1="132.25" x2="322.07" y2="152.09"/><line x1="228.48" y1="309.60" x2="228.56" y2="296.34"/><line x1="157.23" y1="366.22" x2="157.96" y2="364.72"/><line x1="369.37" y1="199.34" x2="367.94" y2="194.77"/><line x1="200.56" y1="146.58" x2="143.03" y2="131.91"/><line x1="217.10" y1="142.68" x2="213.26" y2="143.16"/><line x1="147.32" y1="208.38" x2="146.33" y2="210.28"/><line x1="232.22" y1="152.37" x2="225.35" y2="146.10"/><line x1="379.52" y1="215.55" x2="379.46" y2="214.19"/><line x1="326.74" y1="360.18" x2="322.28" y2="358.68"/><line x1="352.66" y1="132.12" x2="295.86" y2="144.76"/><line x1="306.33" y1="147.10" x2="352.66" y2="132.12"/><line x1="352.66" y1="132.12" x2="350.32" y2="132.17"/><line x1="236.34" y1="140.71" x2="237.92" y2="140.53"/><line x1="370.96" y1="144.11" x2="371.37" y2="140.66"/><line x1="146.33" y1="210.28" x2="145.47" y2="211.90"/><line x1="360.33" y1="177.27" x2="358.35" y2="174.72"/><line x1="342.05" y1="378.15" x2="351.44" y2="382.12"/><line x1="243.45" y1="346.07" x2="243.22" y2="346.84"/><line x1="377.28" y1="218.57" x2="376.87" y2="218.50"/><line x1="143.42" y1="122.53" x2="143.88" y2="122.92"/><line x1="342.05" y1="378.15" x2="341.54" y2="376.58"/><line x1="375.62" y1="127.45" x2="369.46" y2="124.87"/><line x1="349.32" y1="384.86" x2="349.88" y2="384.36"/><line x1="282.26" y1="155.06" x2="245.39" y2="323.71"/><line x1="233.67" y1="181.40" x2="233.02" y2="165.00"/><line x1="368.86" y1="125.72" x2="368.21" y2="126.67"/><line x1="365.47" y1="187.48" x2="364.44" y2="184.75"/><line x1="141.93" y1="130.61" x2="150.72" y2="131.95"/><line x1="145.30" y1="137.68" x2="145.71" y2="140.23"/><line x1="146.98" y1="190.07" x2="143.00" y2="214.16"/><line x1="141.93" y1="130.61" x2="200.56" y2="146.58"/><line x1="378.99" y1="210.70" x2="373.23" y2="212.26"/><line x1="294.17" y1="359.94" x2="285.33" y2="358.91"/><line x1="231.29" y1="143.49" x2="156.87" y2="132.25"/><line x1="140.64" y1="129.64" x2="145.94" y2="125.62"/><line x1="243.32" y1="140.61" x2="243.72" y2="140.68"/><line x1="373.00" y1="211.56" x2="378.58" y2="208.56"/><line x1="160.68" y1="181.68" x2="146.98" y2="190.07"/><line x1="328.76" y1="154.74" x2="325.41" y2="153.36"/><line x1="232.22" y1="152.37" x2="226.30" y2="149.71"/><line x1="341.46" y1="132.25" x2="241.45" y2="140.49"/><line x1="341.46" y1="132.25" x2="244.84" y2="141.68"/><line x1="353.66" y1="169.91" x2="350.95" y2="167.63"/><line x1="157.96" y1="364.72" x2="158.94" y2="364.16"/><line x1="376.03" y1="121.59" x2="376.73" y2="122.48"/><line x1="306.33" y1="147.10" x2="360.20" y2="131.58"/><line x1="375.27" y1="216.98" x2="374.87" y2="216.29"/><line x1="352.66" y1="132.12" x2="289.65" y2="143.99"/><line x1="147.21" y1="159.78" x2="147.53" y2="165.04"/><line x1="370.43" y1="157.48" x2="347.99" y2="165.45"/><line x1="370.94" y1="204.51" x2="376.65" y2="200.60"/><line x1="245.21" y1="143.17" x2="282.80" y2="150.08"/><line x1="342.05" y1="378.15" x2="349.32" y2="384.86"/><line x1="135.67" y1="122.86" x2="136.25" y2="122.48"/><line x1="228.56" y1="274.87" x2="234.17" y2="201.55"/><line x1="376.73" y1="122.48" x2="376.44" y2="121.98"/><line x1="342.05" y1="378.15" x2="351.62" y2="379.05"/><line x1="364.87" y1="130.18" x2="364.31" y2="130.49"/><line x1="334.53" y1="363.44" x2="330.82" y2="361.77"/><line x1="371.20" y1="174.81" x2="370.96" y2="172.21"/><line x1="347.99" y1="165.45" x2="370.43" y2="157.00"/><line x1="225.75" y1="347.08" x2="232.21" y2="348.96"/><line x1="282.26" y1="155.06" x2="246.16" y2="273.27"/><line x1="364.31" y1="130.49" x2="363.69" y2="130.76"/><line x1="141.93" y1="130.61" x2="148.83" y2="130.69"/><line x1="376.65" y1="200.60" x2="369.37" y2="199.34"/><line x1="146.98" y1="190.07" x2="144.73" y2="213.22"/><line x1="378.78" y1="218.01" x2="379.11" y2="217.58"/><line x1="146.98" y1="190.07" x2="140.46" y2="213.64"/><line x1="359.08" y1="131.72" x2="357.86" y2="131.85"/><line x1="341.54" y1="376.58" x2="340.04" y2="374.91"/><line x1="375.62" y1="127.45" x2="309.36" y2="147.91"/><line x1="374.10" y1="121.10" x2="376.93" y2="124.09"/><line x1="231.29" y1="143.49" x2="224.12" y2="144.02"/><line x1="140.64" y1="129.64" x2="143.42" y2="122.53"/><line x1="160.68" y1="181.68" x2="147.87" y2="181.59"/><line x1="369.37" y1="199.34" x2="375.53" y2="196.49"/><line x1="348.75" y1="385.30" x2="349.32" y2="384.86"/><line x1="341.46" y1="132.25" x2="243.72" y2="140.68"/><line x1="157.96" y1="364.72" x2="157.37" y2="366.65"/><line x1="137.83" y1="121.68" x2="138.31" y2="121.53"/><line x1="376.93" y1="124.09" x2="376.82" y2="124.51"/><line x1="352.66" y1="132.12" x2="298.10" y2="145.20"/><line x1="234.17" y1="201.55" x2="233.67" y2="181.40"/><line x1="379.11" y1="217.58" x2="377.28" y2="218.57"/><line x1="306.33" y1="147.10" x2="354.70" y2="132.04"/><line x1="317.45" y1="357.28" x2="288.70" y2="352.32"/><line x1="186.28" y1="153.06" x2="145.30" y2="137.68"/><line x1="370.96" y1="144.11" x2="338.57" y2="159.57"/><line x1="342.05" y1="378.15" x2="341.68" y2="384.63"/><line x1="245.21" y1="143.17" x2="284.47" y2="145.85"/><line x1="342.05" y1="378.15" x2="346.24" y2="386.22"/><line x1="302.47" y1="361.25" x2="294.17" y2="359.94"/><line x1="232.73" y1="339.51" x2="227.86" y2="330.35"/><line x1="245.21" y1="143.17" x2="341.46" y2="132.25"/><line x1="133.98" y1="124.52" x2="134.60" y2="127.23"/><line x1="342.05" y1="378.15" x2="351.17" y2="382.69"/><line x1="377.28" y1="218.57" x2="379.33" y2="217.02"/><line x1="342.05" y1="378.15" x2="347.52" y2="372.74"/><line x1="242.80" y1="140.55" x2="243.32" y2="140.61"/><line x1="143.30" y1="214.22" x2="143.00" y2="214.16"/><line x1="298.10" y1="145.20" x2="295.86" y2="144.76"/><line x1="177.10" y1="160.10" x2="172.75" y2="164.56"/><line x1="210.79" y1="351.68" x2="224.73" y2="348.81"/><line x1="241.51" y1="349.07" x2="240.89" y2="349.28"/><line x1="372.59" y1="121.43" x2="372.26" y2="121.63"/><line x1="156.87" y1="132.25" x2="232.74" y2="142.01"/><line x1="141.93" y1="130.61" x2="146.57" y2="126.60"/><line x1="146.98" y1="190.07" x2="149.68" y2="203.74"/><line x1="365.47" y1="187.48" x2="372.32" y2="182.64"/><line x1="141.93" y1="130.61" x2="150.25" y2="131.85"/><line x1="146.98" y1="190.07" x2="143.30" y2="214.22"/><line x1="143.00" y1="214.16" x2="142.57" y2="214.07"/><line x1="309.36" y1="147.91" x2="374.65" y2="129.53"/><line x1="141.93" y1="130.61" x2="204.99" y2="145.11"/><line x1="351.64" y1="381.54" x2="351.75" y2="380.96"/><line x1="371.82" y1="179.83" x2="371.47" y2="177.28"/><line x1="152.12" y1="132.12" x2="231.29" y2="143.49"/><line x1="159.41" y1="367.63" x2="198.29" y2="361.25"/><line x1="240.89" y1="349.28" x2="240.11" y2="349.46"/><line x1="372.26" y1="121.63" x2="371.93" y2="121.86"/><line x1="226.42" y1="150.70" x2="226.30" y2="149.71"/><line x1="146.57" y1="126.60" x2="147.24" y2="127.69"/><line x1="231.29" y1="143.49" x2="155.44" y2="132.23"/><line x1="140.64" y1="129.64" x2="145.36" y2="124.76"/><line x1="172.75" y1="164.56" x2="147.21" y2="159.78"/><line x1="160.68" y1="181.68" x2="147.24" y2="188.72"/><line x1="328.76" y1="154.74" x2="373.30" y2="132.25"/><line x1="351.75" y1="380.96" x2="351.79" y2="380.37"/><line x1="341.46" y1="132.25" x2="240.62" y2="140.46"/><line x1="266.04" y1="357.74" x2="285.79" y2="340.35"/><line x1="234.81" y1="284.56" x2="234.75" y2="253.14"/><line x1="341.46" y1="132.25" x2="244.67" y2="141.34"/><line x1="157.96" y1="364.72" x2="158.82" y2="367.59"/><line x1="135.85" y1="127.87" x2="135.67" y2="122.86"/><line x1="306.33" y1="147.10" x2="361.22" y2="131.41"/><line x1="375.27" y1="216.98" x2="379.52" y2="215.55"/><line x1="226.30" y1="149.71" x2="226.17" y2="148.82"/><line x1="244.84" y1="141.68" x2="244.99" y2="142.11"/><line x1="147.21" y1="159.78" x2="168.57" y2="169.64"/><line x1="255.59" y1="357.59" x2="241.51" y2="349.07"/><line x1="342.05" y1="378.15" x2="340.45" y2="382.12"/><line x1="255.59" y1="357.59" x2="233.06" y2="349.48"/><line x1="245.21" y1="143.17" x2="287.13" y2="144.28"/><line x1="342.05" y1="378.15" x2="343.58" y2="385.85"/><line x1="370.94" y1="204.51" x2="377.41" y2="203.52"/><line x1="64.64" y1="32.09" x2="32.16" y2="64.58"/><line x1="245.21" y1="143.17" x2="283.09" y2="148.78"/><line x1="342.05" y1="378.15" x2="348.75" y2="385.30"/><line x1="370.50" y1="123.47" x2="370.01" y2="124.12"/><line x1="135.67" y1="122.86" x2="136.39" y2="128.08"/><line x1="285.79" y1="340.35" x2="285.22" y2="336.74"/><line x1="149.16" y1="131.11" x2="149.51" y2="131.45"/><line x1="342.05" y1="378.15" x2="351.79" y2="380.37"/><line x1="234.48" y1="349.74" x2="233.70" y2="349.64"/><line x1="228.56" y1="274.87" x2="234.53" y2="225.47"/><line x1="371.20" y1="174.81" x2="360.33" y2="177.27"/><line x1="244.99" y1="142.11" x2="245.12" y2="142.60"/><line x1="347.52" y1="372.74" x2="341.54" y2="376.58"/><line x1="225.75" y1="347.08" x2="232.57" y2="349.25"/><line x1="210.79" y1="351.68" x2="201.03" y2="360.81"/><line x1="370.49" y1="151.96" x2="370.67" y2="147.87"/><line x1="233.70" y1="349.64" x2="233.06" y2="349.48"/><line x1="225.00" y1="145.43" x2="231.29" y2="143.49"/><line x1="373.79" y1="213.78" x2="373.49" y2="213.00"/><line x1="149.51" y1="131.45" x2="149.87" y2="131.69"/><line x1="156.87" y1="132.25" x2="237.92" y2="140.53"/><line x1="141.93" y1="130.61" x2="148.52" y2="130.18"/><line x1="147.94" y1="177.01" x2="160.68" y2="181.68"/><line x1="146.98" y1="190.07" x2="145.47" y2="211.90"/><line x1="309.36" y1="147.91" x2="373.34" y2="132.21"/><line x1="146.98" y1="190.07" x2="141.30" y2="213.81"/><line x1="341.54" y1="376.58" x2="345.64" y2="370.91"/><line x1="282.16" y1="159.26" x2="282.18" y2="157.07"/><line x1="201.03" y1="360.81" x2="204.09" y2="360.39"/><line x1="137.33" y1="121.89" x2="137.83" y2="121.68"/><line x1="152.12" y1="132.12" x2="222.97" y2="142.52"/><line x1="231.29" y1="143.49" x2="224.59" y2="144.74"/><line x1="375.62" y1="127.45" x2="306.33" y2="147.10"/><line x1="370.52" y1="163.73" x2="370.45" y2="160.66"/><line x1="160.68" y1="181.68" x2="147.92" y2="179.39"/><line x1="342.13" y1="384.99" x2="342.61" y2="385.33"/><line x1="374.53" y1="192.63" x2="373.67" y2="189.05"/><line x1="341.46" y1="132.25" x2="243.32" y2="140.61"/><line x1="226.60" y1="343.43" x2="232.73" y2="339.51"/><line x1="137.83" y1="121.68" x2="138.39" y2="128.75"/><line x1="255.59" y1="357.59" x2="243.22" y2="346.84"/><line x1="342.61" y1="385.33" x2="343.09" y2="385.62"/><line x1="255.59" y1="357.59" x2="238.07" y2="349.69"/><line x1="342.05" y1="378.15" x2="341.30" y2="384.24"/><line x1="245.21" y1="143.17" x2="347.67" y2="132.21"/><line x1="342.05" y1="378.15" x2="345.57" y2="386.27"/><line x1="376.63" y1="125.06" x2="376.37" y2="125.73"/><line x1="335.34" y1="157.84" x2="332.07" y2="156.23"/><line x1="139.18" y1="128.97" x2="141.60" y2="121.69"/><line x1="245.21" y1="143.17" x2="282.26" y2="155.06"/><line x1="342.05" y1="378.15" x2="350.82" y2="383.25"/><line x1="220.75" y1="142.52" x2="222.97" y2="142.52"/><line x1="133.71" y1="126.29" x2="133.85" y2="126.54"/><line x1="232.73" y1="339.51" x2="227.31" y2="337.85"/><line x1="228.56" y1="274.87" x2="226.65" y2="154.32"/><line x1="337.86" y1="365.20" x2="334.53" y2="363.44"/><line x1="375.50" y1="121.32" x2="374.86" y2="121.15"/><line x1="223.92" y1="358.63" x2="255.59" y2="357.59"/><line x1="210.79" y1="351.68" x2="215.07" y2="359.27"/><line x1="156.87" y1="132.25" x2="231.92" y2="142.69"/><line x1="379.47" y1="216.35" x2="375.27" y2="216.98"/><line x1="146.98" y1="190.07" x2="151.04" y2="201.00"/><line x1="141.93" y1="130.61" x2="149.87" y2="131.69"/><line x1="146.98" y1="190.07" x2="143.46" y2="214.26"/><line x1="309.36" y1="147.91" x2="374.24" y2="130.40"/><line x1="371.82" y1="179.83" x2="362.06" y2="179.90"/><line x1="133.64" y1="125.34" x2="134.04" y2="126.78"/><line x1="32.16" y1="32.09" x2="64.64" y2="32.09"/><line x1="245.39" y1="323.71" x2="244.95" y2="331.94"/><line x1="195.94" y1="148.36" x2="191.12" y2="150.47"/><line x1="374.10" y1="121.10" x2="373.70" y2="121.12"/><line x1="231.29" y1="143.49" x2="154.18" y2="132.21"/><line x1="371.47" y1="177.28" x2="371.20" y2="174.81"/><line x1="317.45" y1="364.76" x2="310.23" y2="362.86"/><line x1="341.46" y1="132.25" x2="239.68" y2="140.46"/><line x1="187.21" y1="356.54" x2="210.79" y2="351.68"/><line x1="255.59" y1="357.59" x2="282.16" y2="159.26"/><line x1="234.81" y1="284.56" x2="228.56" y2="274.87"/><line x1="376.03" y1="126.53" x2="370.50" y2="123.47"/><line x1="367.94" y1="194.77" x2="366.64" y2="190.82"/><line x1="255.59" y1="357.59" x2="241.97" y2="348.81"/><line x1="312.43" y1="148.82" x2="309.36" y2="147.91"/><line x1="255.59" y1="357.59" x2="233.70" y2="349.64"/><line x1="342.05" y1="378.15" x2="343.09" y2="385.62"/><line x1="376.63" y1="125.06" x2="373.32" y2="121.18"/><line x1="245.21" y1="143.17" x2="283.43" y2="147.64"/><line x1="370.50" y1="123.47" x2="375.62" y2="127.45"/><line x1="374.12" y1="214.60" x2="373.79" y2="213.78"/><line x1="371.37" y1="140.66" x2="371.89" y2="137.54"/><line x1="32.00" y1="447.50" x2="64.49" y2="479.98"/></g></svg>