<svg xmlns="http://www.w3.org/2000/svg" width="512" height="512"><rect width="512" height="512" fill="#0a0f1a"/><text x="12" y="20" font-family="monospace" font-size="11" fill="#4a7fa5">FRONT (XZ)</text><g stroke="#00d4ff" stroke-width="0.6" opacity="0.85"><line x1="186.92" y1="136.29" x2="192.39" y2="143.37"/><line x1="178.16" y1="136.60" x2="177.74" y2="136.73"/><line x1="187.18" y1="393.81" x2="187.50" y2="393.87"/><line x1="353.34" y1="221.73" x2="353.02" y2="221.64"/><line x1="333.04" y1="357.20" x2="351.04" y2="356.88"/><line x1="326.01" y1="166.65" x2="338.96" y2="134.03"/><line x1="250.94" y1="143.52" x2="244.62" y2="142.70"/><line x1="281.61" y1="343.88" x2="281.79" y2="345.14"/><line x1="351.99" y1="186.65" x2="356.12" y2="221.53"/><line x1="282.74" y1="263.55" x2="278.98" y2="336.30"/><line x1="187.50" y1="393.87" x2="187.84" y2="393.91"/><line x1="350.74" y1="121.69" x2="346.09" y2="132.78"/><line x1="282.74" y1="263.55" x2="314.82" y2="304.33"/><line x1="351.99" y1="186.65" x2="353.34" y2="221.73"/><line x1="244.62" y1="142.70" x2="238.29" y2="142.06"/><line x1="242.07" y1="212.51" x2="240.72" y2="256.74"/><line x1="236.26" y1="134.85" x2="263.56" y2="145.70"/><line x1="350.99" y1="354.82" x2="351.04" y2="355.61"/><line x1="346.09" y1="132.78" x2="351.25" y2="126.03"/><line x1="298.38" y1="154.99" x2="292.98" y2="153.21"/><line x1="346.09" y1="132.78" x2="348.90" y2="121.65"/><line x1="176.57" y1="138.67" x2="177.17" y2="140.14"/><line x1="164.79" y1="279.66" x2="163.14" y2="285.84"/><line x1="189.66" y1="393.92" x2="189.96" y2="393.86"/><line x1="351.04" y1="355.61" x2="351.04" y2="356.88"/><line x1="314.82" y1="304.33" x2="339.57" y2="336.34"/><line x1="350.09" y1="162.95" x2="336.23" y2="172.71"/><line x1="186.92" y1="136.29" x2="203.25" y2="141.83"/><line x1="281.24" y1="347.56" x2="280.93" y2="348.01"/><line x1="189.96" y1="393.86" x2="190.24" y2="393.77"/><line x1="350.38" y1="121.65" x2="350.00" y2="121.63"/><line x1="333.04" y1="357.20" x2="350.28" y2="352.23"/><line x1="214.05" y1="141.31" x2="211.41" y2="141.39"/><line x1="326.01" y1="166.65" x2="306.94" y2="133.42"/><line x1="221.14" y1="359.43" x2="222.67" y2="335.14"/><line x1="351.99" y1="186.65" x2="354.76" y2="221.82"/><line x1="282.74" y1="263.55" x2="281.79" y2="345.14"/><line x1="350.00" y1="121.63" x2="349.59" y2="121.63"/><line x1="351.99" y1="186.65" x2="351.99" y2="221.21"/><line x1="192.08" y1="147.36" x2="193.25" y2="149.09"/><line x1="236.26" y1="134.85" x2="238.29" y2="142.06"/><line x1="179.44" y1="304.59" x2="172.52" y2="312.61"/><line x1="222.67" y1="335.14" x2="215.71" y2="359.48"/><line x1="285.85" y1="358.08" x2="249.68" y2="344.50"/><line x1="322.05" y1="164.66" x2="317.83" y2="162.67"/><line x1="346.09" y1="132.78" x2="350.35" y2="135.28"/><line x1="277.09" y1="349.58" x2="275.98" y2="349.68"/><line x1="189.91" y1="379.36" x2="189.81" y2="377.63"/><line x1="191.43" y1="166.90" x2="197.97" y2="178.83"/><line x1="186.92" y1="136.29" x2="216.66" y2="141.26"/><line x1="186.92" y1="136.29" x2="193.80" y2="142.96"/><line x1="195.61" y1="142.60" x2="193.80" y2="142.96"/><line x1="197.97" y1="178.83" x2="205.70" y2="192.85"/><line x1="244.46" y1="358.95" x2="229.38" y2="337.92"/><line x1="196.79" y1="321.09" x2="203.11" y2="325.04"/><line x1="275.98" y1="349.68" x2="274.74" y2="349.74"/><line x1="326.01" y1="166.65" x2="340.00" y2="133.96"/><line x1="351.99" y1="186.65" x2="355.86" y2="221.62"/><line x1="282.74" y1="263.55" x2="277.40" y2="332.52"/><line x1="350.30" y1="167.91" x2="341.22" y2="176.41"/><line x1="480.00" y1="32.02" x2="447.51" y2="32.02"/><line x1="236.26" y1="134.85" x2="269.77" y2="147.02"/><line x1="242.07" y1="212.51" x2="205.70" y2="192.85"/><line x1="285.85" y1="358.08" x2="280.56" y2="348.40"/><line x1="285.85" y1="358.08" x2="271.29" y2="349.62"/><line x1="285.85" y1="358.08" x2="244.46" y2="358.95"/><line x1="255.51" y1="346.11" x2="249.68" y2="344.50"/><line x1="314.82" y1="304.33" x2="315.85" y2="357.52"/><line x1="186.92" y1="136.29" x2="206.01" y2="141.65"/><line x1="186.92" y1="136.29" x2="184.99" y2="136.30"/><line x1="170.55" y1="306.34" x2="179.44" y2="304.59"/><line x1="351.60" y1="123.95" x2="351.41" y2="121.79"/><line x1="341.22" y1="176.41" x2="350.59" y2="172.76"/><line x1="190.58" y1="144.91" x2="178.16" y2="136.60"/><line x1="190.58" y1="144.91" x2="178.95" y2="143.68"/><line x1="278.05" y1="349.43" x2="277.09" y2="349.58"/><line x1="190.03" y1="381.15" x2="189.91" y2="379.36"/><line x1="329.70" y1="168.68" x2="349.96" y2="157.88"/><line x1="197.82" y1="142.30" x2="195.61" y2="142.60"/><line x1="285.85" y1="358.08" x2="281.65" y2="346.48"/><line x1="285.85" y1="358.08" x2="278.05" y2="349.43"/><line x1="285.85" y1="358.08" x2="255.51" y2="346.11"/><line x1="347.94" y1="121.79" x2="347.65" y2="121.86"/><line x1="231.94" y1="141.61" x2="225.59" y2="141.33"/><line x1="208.89" y1="171.03" x2="197.97" y2="178.83"/><line x1="177.22" y1="329.93" x2="196.79" y2="321.09"/><line x1="313.35" y1="160.72" x2="308.60" y2="158.78"/><line x1="347.65" y1="121.86" x2="347.37" y2="121.95"/><line x1="186.92" y1="136.29" x2="219.23" y2="141.24"/><line x1="346.41" y1="182.66" x2="351.44" y2="182.13"/><line x1="186.92" y1="136.29" x2="195.61" y2="142.60"/><line x1="197.97" y1="178.83" x2="242.07" y2="212.51"/><line x1="244.46" y1="358.95" x2="236.20" y2="340.40"/><line x1="196.79" y1="321.09" x2="178.51" y2="335.34"/><line x1="189.63" y1="370.12" x2="189.68" y2="368.95"/><line x1="351.60" y1="123.95" x2="351.25" y2="126.03"/><line x1="181.92" y1="149.33" x2="186.08" y2="157.07"/><line x1="190.58" y1="144.91" x2="183.28" y2="136.32"/><line x1="190.58" y1="144.91" x2="176.86" y2="137.44"/><line x1="260.59" y1="347.43" x2="255.51" y2="346.11"/><line x1="189.68" y1="368.95" x2="189.74" y2="367.69"/><line x1="342.27" y1="133.64" x2="341.10" y2="133.83"/><line x1="183.28" y1="136.32" x2="181.80" y2="136.34"/><line x1="480.00" y1="32.02" x2="480.00" y2="64.50"/><line x1="285.85" y1="358.08" x2="280.93" y2="348.01"/><line x1="181.55" y1="350.51" x2="216.05" y2="332.06"/><line x1="285.85" y1="358.08" x2="273.35" y2="349.76"/><line x1="354.76" y1="221.82" x2="354.49" y2="221.84"/><line x1="341.10" y1="133.83" x2="340.00" y2="133.96"/><line x1="281.71" y1="149.94" x2="275.82" y2="148.44"/><line x1="480.00" y1="479.91" x2="480.00" y2="447.42"/><line x1="275.47" y1="328.12" x2="277.40" y2="332.52"/><line x1="216.05" y1="332.06" x2="182.30" y2="355.21"/><line x1="351.71" y1="121.86" x2="351.60" y2="123.95"/><line x1="275.82" y1="148.44" x2="269.77" y2="147.02"/><line x1="177.74" y1="136.73" x2="177.38" y2="136.90"/><line x1="349.34" y1="350.32" x2="349.85" y2="351.29"/><line x1="351.60" y1="123.95" x2="351.99" y2="121.95"/><line x1="177.38" y1="136.90" x2="177.09" y2="137.14"/><line x1="203.11" y1="325.04" x2="209.53" y2="328.70"/><line x1="190.58" y1="144.91" x2="178.73" y2="136.52"/><line x1="447.51" y1="479.91" x2="480.00" y2="447.42"/><line x1="190.58" y1="144.91" x2="177.17" y2="140.14"/><line x1="352.69" y1="221.52" x2="352.34" y2="221.38"/><line x1="163.14" y1="285.84" x2="165.85" y2="292.95"/><line x1="285.85" y1="358.08" x2="281.75" y2="345.84"/><line x1="188.21" y1="393.95" x2="188.59" y2="393.97"/><line x1="285.85" y1="358.08" x2="278.88" y2="349.24"/><line x1="346.41" y1="182.66" x2="351.99" y2="221.21"/><line x1="285.85" y1="358.08" x2="260.59" y2="347.43"/><line x1="231.94" y1="141.61" x2="186.92" y2="136.29"/><line x1="169.37" y1="288.91" x2="174.25" y2="297.22"/><line x1="350.96" y1="128.22" x2="350.71" y2="130.48"/><line x1="178.95" y1="143.68" x2="181.92" y2="149.33"/><line x1="306.94" y1="133.42" x2="317.83" y2="162.67"/><line x1="306.94" y1="133.42" x2="303.60" y2="156.86"/><line x1="172.52" y1="312.61" x2="174.26" y2="318.59"/><line x1="190.58" y1="144.91" x2="177.09" y2="137.14"/><line x1="184.92" y1="311.03" x2="190.71" y2="316.53"/><line x1="285.85" y1="358.08" x2="281.24" y2="347.56"/><line x1="182.30" y1="355.21" x2="189.74" y2="367.69"/><line x1="196.60" y1="153.92" x2="198.77" y2="157.01"/><line x1="480.00" y1="479.91" x2="447.51" y2="479.91"/><line x1="344.62" y1="179.74" x2="345.72" y2="181.25"/><line x1="355.86" y1="221.62" x2="355.58" y2="221.69"/><line x1="187.84" y1="393.91" x2="188.21" y2="393.95"/><line x1="350.23" y1="137.81" x2="326.01" y2="166.65"/><line x1="186.08" y1="157.07" x2="194.75" y2="151.28"/><line x1="238.29" y1="142.06" x2="231.94" y2="141.61"/><line x1="203.11" y1="325.04" x2="180.67" y2="345.63"/><line x1="190.58" y1="144.91" x2="179.53" y2="136.45"/><line x1="344.76" y1="133.12" x2="343.48" y2="133.41"/><line x1="351.25" y1="126.03" x2="350.96" y2="128.22"/><line x1="302.96" y1="133.42" x2="236.26" y2="134.85"/><line x1="240.72" y1="256.74" x2="254.41" y2="283.66"/><line x1="163.14" y1="285.84" x2="169.37" y2="288.91"/><line x1="190.26" y1="361.81" x2="193.65" y2="361.19"/><line x1="216.05" y1="332.06" x2="222.67" y2="335.14"/><line x1="182.30" y1="355.21" x2="189.67" y2="374.32"/><line x1="292.98" y1="153.21" x2="287.43" y2="151.53"/><line x1="182.30" y1="355.21" x2="190.26" y2="361.81"/><line x1="315.85" y1="357.52" x2="333.04" y2="357.20"/><line x1="190.24" y1="393.77" x2="190.48" y2="393.65"/><line x1="280.56" y1="348.40" x2="280.11" y2="348.73"/><line x1="190.48" y1="393.65" x2="190.71" y2="393.51"/><line x1="349.59" y1="121.63" x2="349.24" y2="121.63"/><line x1="208.73" y1="141.50" x2="206.01" y2="141.65"/><line x1="160.19" y1="278.43" x2="164.79" y2="279.66"/><line x1="172.52" y1="312.61" x2="184.92" y2="311.03"/><line x1="215.71" y1="359.48" x2="210.63" y2="359.63"/><line x1="349.96" y1="157.88" x2="350.09" y2="162.95"/><line x1="349.24" y1="121.63" x2="348.90" y2="121.65"/><line x1="194.75" y1="151.28" x2="196.60" y2="153.92"/><line x1="346.41" y1="182.66" x2="351.99" y2="186.65"/><line x1="184.92" y1="311.03" x2="174.26" y2="318.59"/><line x1="182.30" y1="355.21" x2="188.59" y2="393.97"/><line x1="189.81" y1="377.63" x2="189.72" y2="375.94"/><line x1="333.13" y1="170.71" x2="336.23" y2="172.71"/><line x1="182.30" y1="355.21" x2="190.18" y2="382.99"/><line x1="216.05" y1="332.06" x2="201.47" y2="360.21"/><line x1="343.12" y1="178.12" x2="344.62" y2="179.74"/><line x1="182.30" y1="355.21" x2="189.68" y2="368.95"/><line x1="274.74" y1="349.74" x2="273.35" y2="349.76"/><line x1="189.72" y1="375.94" x2="189.67" y2="374.32"/><line x1="177.17" y1="140.14" x2="178.95" y2="143.68"/><line x1="192.39" y1="143.37" x2="191.38" y2="143.83"/><line x1="174.25" y1="297.22" x2="179.44" y2="304.59"/><line x1="281.48" y1="347.05" x2="281.24" y2="347.56"/><line x1="178.51" y1="335.34" x2="203.11" y2="325.04"/><line x1="355.86" y1="221.62" x2="356.12" y2="221.53"/><line x1="350.23" y1="137.81" x2="344.76" y2="133.12"/><line x1="280.93" y1="348.01" x2="280.56" y2="348.40"/><line x1="186.08" y1="157.07" x2="193.25" y2="149.09"/><line x1="205.70" y1="192.85" x2="240.72" y2="256.74"/><line x1="203.11" y1="325.04" x2="179.65" y2="340.57"/><line x1="211.41" y1="141.39" x2="208.73" y2="141.50"/><line x1="308.60" y1="158.78" x2="303.60" y2="156.86"/><line x1="302.96" y1="133.42" x2="292.98" y2="153.21"/><line x1="182.30" y1="355.21" x2="186.60" y2="393.66"/><line x1="346.09" y1="132.78" x2="347.65" y2="121.86"/><line x1="189.83" y1="366.35" x2="189.95" y2="364.93"/><line x1="182.30" y1="355.21" x2="189.96" y2="393.86"/><line x1="193.25" y1="149.09" x2="194.75" y2="151.28"/><line x1="182.30" y1="355.21" x2="189.72" y2="375.94"/><line x1="180.55" y1="136.39" x2="179.53" y2="136.45"/><line x1="182.30" y1="355.21" x2="190.09" y2="363.41"/><line x1="190.71" y1="316.53" x2="196.79" y2="321.09"/><line x1="186.88" y1="393.74" x2="187.18" y2="393.81"/><line x1="354.21" y1="221.85" x2="353.93" y2="221.84"/><line x1="350.97" y1="177.50" x2="351.44" y2="182.13"/><line x1="338.96" y1="134.03" x2="337.98" y2="134.06"/><line x1="278.98" y1="336.30" x2="280.21" y2="339.46"/><line x1="333.04" y1="357.20" x2="351.04" y2="355.61"/><line x1="193.80" y1="142.96" x2="192.39" y2="143.37"/><line x1="351.99" y1="186.65" x2="353.64" y2="221.79"/><line x1="160.19" y1="278.43" x2="156.99" y2="270.75"/><line x1="350.28" y1="352.23" x2="350.61" y2="353.13"/><line x1="298.38" y1="154.99" x2="302.96" y2="133.42"/><line x1="346.09" y1="132.78" x2="349.24" y2="121.63"/><line x1="182.30" y1="355.21" x2="188.21" y2="393.95"/><line x1="182.30" y1="355.21" x2="190.90" y2="393.34"/><line x1="216.05" y1="332.06" x2="205.88" y2="359.87"/><line x1="182.30" y1="355.21" x2="189.63" y2="370.12"/><line x1="165.85" y1="292.95" x2="168.32" y2="299.79"/><line x1="190.74" y1="145.27" x2="191.25" y2="146.09"/><line x1="333.04" y1="357.20" x2="349.85" y2="351.29"/><line x1="174.25" y1="297.22" x2="170.55" y2="306.34"/><line x1="349.91" y1="152.70" x2="349.96" y2="157.88"/><line x1="189.74" y1="367.69" x2="189.83" y2="366.35"/><line x1="326.01" y1="166.65" x2="349.91" y2="152.70"/><line x1="338.92" y1="174.62" x2="341.22" y2="176.41"/><line x1="186.08" y1="157.07" x2="192.08" y2="147.36"/><line x1="282.74" y1="263.55" x2="281.61" y2="343.88"/><line x1="351.99" y1="186.65" x2="355.04" y2="221.79"/><line x1="480.00" y1="64.50" x2="447.51" y2="32.02"/><line x1="351.99" y1="186.65" x2="352.34" y2="221.38"/><line x1="236.26" y1="134.85" x2="244.62" y2="142.70"/><line x1="346.09" y1="132.78" x2="350.50" y2="132.84"/><line x1="182.30" y1="355.21" x2="186.88" y2="393.74"/><line x1="346.09" y1="132.78" x2="347.94" y2="121.79"/><line x1="182.30" y1="355.21" x2="189.66" y2="393.92"/><line x1="182.30" y1="355.21" x2="189.81" y2="377.63"/><line x1="191.43" y1="166.90" x2="208.89" y2="171.03"/><line x1="190.71" y1="316.53" x2="177.22" y2="329.93"/><line x1="350.97" y1="177.50" x2="346.41" y2="182.66"/><line x1="263.56" y1="145.70" x2="257.26" y2="144.52"/><line x1="333.04" y1="357.20" x2="350.99" y2="354.82"/><line x1="326.01" y1="166.65" x2="341.10" y2="133.83"/><line x1="190.78" y1="144.34" x2="190.58" y2="144.91"/><line x1="282.74" y1="263.55" x2="275.47" y2="328.12"/><line x1="176.86" y1="137.44" x2="176.70" y2="137.79"/><line x1="351.99" y1="186.65" x2="353.93" y2="221.84"/><line x1="188.59" y1="393.97" x2="188.99" y2="393.98"/><line x1="236.26" y1="134.85" x2="275.82" y2="148.44"/><line x1="184.99" y1="136.30" x2="183.28" y2="136.32"/><line x1="281.65" y1="346.48" x2="281.48" y2="347.05"/><line x1="346.09" y1="132.78" x2="349.59" y2="121.63"/><line x1="350.59" y1="172.76" x2="350.97" y2="177.50"/><line x1="181.80" y1="136.34" x2="180.55" y2="136.39"/><line x1="182.30" y1="355.21" x2="187.84" y2="393.91"/><line x1="346.09" y1="132.78" x2="344.76" y2="133.12"/><line x1="225.59" y1="141.33" x2="219.23" y2="141.24"/><line x1="354.49" y1="221.84" x2="354.21" y2="221.85"/><line x1="340.00" y1="133.96" x2="338.96" y2="134.03"/><line x1="165.85" y1="292.95" x2="174.25" y2="297.22"/><line x1="186.92" y1="136.29" x2="208.73" y2="141.50"/><line x1="243.11" y1="342.60" x2="236.20" y2="340.40"/><line x1="186.92" y1="136.29" x2="190.78" y2="144.34"/><line x1="277.40" y1="332.52" x2="278.98" y2="336.30"/><line x1="190.74" y1="145.27" x2="186.08" y2="157.07"/><line x1="333.04" y1="357.20" x2="349.34" y2="350.32"/><line x1="269.77" y1="147.02" x2="263.56" y2="145.70"/><line x1="326.01" y1="166.65" x2="336.86" y2="134.06"/><line x1="349.85" y1="351.29" x2="350.28" y2="352.23"/><line x1="351.99" y1="186.65" x2="355.31" y2="221.75"/><line x1="282.74" y1="263.55" x2="281.08" y2="341.98"/><line x1="174.26" y1="318.59" x2="175.81" y2="324.35"/><line x1="279.56" y1="349.01" x2="278.88" y2="349.24"/><line x1="351.99" y1="186.65" x2="352.69" y2="221.52"/><line x1="177.09" y1="137.14" x2="176.86" y2="137.44"/><line x1="236.26" y1="134.85" x2="250.94" y2="143.52"/><line x1="203.25" y1="141.83" x2="200.44" y2="142.04"/><line x1="352.34" y1="221.38" x2="351.99" y2="221.21"/><line x1="346.09" y1="132.78" x2="350.71" y2="130.48"/><line x1="205.88" y1="359.87" x2="201.47" y2="360.21"/><line x1="317.83" y1="162.67" x2="313.35" y2="160.72"/><line x1="348.57" y1="121.69" x2="348.25" y2="121.73"/><line x1="281.75" y1="345.84" x2="281.65" y2="346.48"/><line x1="191.43" y1="166.90" x2="198.77" y2="157.01"/><line x1="186.92" y1="136.29" x2="225.59" y2="141.33"/><line x1="350.09" y1="162.95" x2="350.30" y2="167.91"/><line x1="186.92" y1="136.29" x2="197.82" y2="142.30"/><line x1="350.97" y1="177.50" x2="345.72" y2="181.25"/><line x1="244.46" y1="358.95" x2="243.11" y2="342.60"/><line x1="350.71" y1="130.48" x2="350.50" y2="132.84"/><line x1="32.16" y1="32.09" x2="32.16" y2="64.58"/><line x1="351.60" y1="123.95" x2="346.09" y2="132.78"/><line x1="271.29" y1="349.62" x2="268.48" y2="349.18"/><line x1="181.92" y1="149.33" x2="190.74" y2="145.27"/><line x1="326.01" y1="166.65" x2="342.27" y2="133.64"/><line x1="326.01" y1="166.65" x2="322.05" y2="164.66"/><line x1="190.78" y1="144.34" x2="184.99" y2="136.30"/><line x1="282.74" y1="263.55" x2="273.19" y2="323.08"/><line x1="350.30" y1="167.91" x2="338.92" y2="174.62"/><line x1="180.67" y1="345.63" x2="181.55" y2="350.51"/><line x1="351.99" y1="186.65" x2="354.21" y2="221.85"/><line x1="355.58" y1="221.69" x2="355.31" y2="221.75"/><line x1="350.74" y1="121.69" x2="350.38" y2="121.65"/><line x1="280.11" y1="348.73" x2="279.56" y2="349.01"/><line x1="236.26" y1="134.85" x2="281.71" y2="149.94"/><line x1="190.71" y1="393.51" x2="190.90" y2="393.34"/><line x1="236.26" y1="134.85" x2="186.92" y2="136.29"/><line x1="285.85" y1="358.08" x2="274.74" y2="349.74"/><line x1="339.57" y1="336.34" x2="348.73" y2="349.32"/><line x1="206.01" y1="141.65" x2="203.25" y2="141.83"/><line x1="350.59" y1="172.76" x2="344.62" y2="179.74"/><line x1="210.63" y1="359.63" x2="205.88" y2="359.87"/><line x1="186.92" y1="136.29" x2="211.41" y2="141.39"/><line x1="336.86" y1="134.06" x2="306.94" y2="133.42"/><line x1="186.92" y1="136.29" x2="191.38" y2="143.83"/><line x1="190.58" y1="144.91" x2="176.57" y2="138.67"/><line x1="282.74" y1="263.55" x2="280.21" y2="339.46"/><line x1="174.26" y1="318.59" x2="190.71" y2="316.53"/><line x1="236.26" y1="134.85" x2="257.26" y2="144.52"/><line x1="285.85" y1="358.08" x2="279.56" y2="349.01"/><line x1="285.85" y1="358.08" x2="264.91" y2="348.45"/><line x1="169.37" y1="288.91" x2="165.85" y2="292.95"/><line x1="32.00" y1="479.98" x2="64.49" y2="479.98"/><line x1="186.92" y1="136.29" x2="200.44" y2="142.04"/><line x1="351.60" y1="123.95" x2="350.74" y2="121.69"/><line x1="341.22" y1="176.41" x2="343.12" y2="178.12"/><line x1="306.94" y1="133.42" x2="302.96" y2="133.42"/><line x1="190.58" y1="144.91" x2="177.38" y2="136.90"/><line x1="190.58" y1="144.91" x2="190.74" y2="145.27"/><line x1="221.14" y1="359.43" x2="215.71" y2="359.48"/><line x1="285.85" y1="358.08" x2="314.82" y2="304.33"/><line x1="348.90" y1="121.65" x2="348.57" y2="121.69"/><line x1="285.85" y1="358.08" x2="275.98" y2="349.68"/><line x1="178.73" y1="136.52" x2="178.16" y2="136.60"/><line x1="285.85" y1="358.08" x2="315.85" y2="357.52"/><line x1="339.57" y1="336.34" x2="333.04" y2="357.20"/><line x1="196.60" y1="153.92" x2="191.43" y2="166.90"/><line x1="344.62" y1="179.74" x2="350.97" y2="177.50"/><line x1="353.64" y1="221.79" x2="353.34" y2="221.73"/><line x1="186.92" y1="136.29" x2="214.05" y2="141.31"/><line x1="273.35" y1="349.76" x2="271.29" y2="349.62"/><line x1="189.67" y1="374.32" x2="189.63" y2="372.74"/><line x1="244.46" y1="358.95" x2="221.14" y2="359.43"/><line x1="281.08" y1="341.98" x2="281.61" y2="343.88"/><line x1="350.23" y1="137.81" x2="349.91" y2="152.70"/><line x1="191.38" y1="143.83" x2="190.78" y2="144.34"/><line x1="306.94" y1="133.42" x2="313.35" y2="160.72"/><line x1="190.58" y1="144.91" x2="180.55" y2="136.39"/><line x1="190.58" y1="144.91" x2="176.60" y2="138.20"/><line x1="344.76" y1="133.12" x2="326.01" y2="166.65"/><line x1="350.84" y1="354.00" x2="350.99" y2="354.82"/><line x1="350.30" y1="167.91" x2="350.59" y2="172.76"/><line x1="240.72" y1="256.74" x2="282.74" y2="263.55"/><line x1="229.38" y1="337.92" x2="222.67" y2="335.14"/><line x1="179.65" y1="340.57" x2="180.67" y2="345.63"/><line x1="176.60" y1="138.20" x2="176.57" y2="138.67"/><line x1="285.85" y1="358.08" x2="280.11" y2="348.73"/><line x1="292.98" y1="153.21" x2="236.26" y2="134.85"/><line x1="285.85" y1="358.08" x2="268.48" y2="349.18"/><line x1="315.85" y1="357.52" x2="339.57" y2="336.34"/><line x1="189.95" y1="364.93" x2="190.09" y2="363.41"/><line x1="351.71" y1="121.86" x2="351.41" y2="121.79"/><line x1="179.53" y1="136.45" x2="178.73" y2="136.52"/><line x1="32.00" y1="479.98" x2="32.00" y2="447.50"/><line x1="216.66" y1="141.26" x2="214.05" y2="141.31"/><line x1="353.93" y1="221.84" x2="353.64" y2="221.79"/><line x1="337.98" y1="134.06" x2="336.86" y2="134.06"/><line x1="170.55" y1="306.34" x2="172.52" y2="312.61"/><line x1="351.60" y1="123.95" x2="351.08" y2="121.73"/><line x1="280.21" y1="339.46" x2="281.08" y2="341.98"/><line x1="306.94" y1="133.42" x2="298.38" y2="154.99"/><line x1="190.58" y1="144.91" x2="177.74" y2="136.73"/><line x1="191.25" y1="146.09" x2="192.08" y2="147.36"/><line x1="190.58" y1="144.91" x2="181.92" y2="149.33"/><line x1="257.26" y1="144.52" x2="250.94" y2="143.52"/><line x1="329.70" y1="168.68" x2="333.13" y2="170.71"/><line x1="160.49" y1="269.48" x2="164.79" y2="279.66"/><line x1="350.61" y1="353.13" x2="350.84" y2="354.00"/><line x1="351.08" y1="121.73" x2="350.74" y2="121.69"/><line x1="285.85" y1="358.08" x2="281.48" y2="347.05"/><line x1="333.13" y1="170.71" x2="350.09" y2="162.95"/><line x1="249.68" y1="344.50" x2="243.11" y2="342.60"/><line x1="285.85" y1="358.08" x2="277.09" y2="349.58"/><line x1="176.70" y1="137.79" x2="176.60" y2="138.20"/><line x1="351.44" y1="182.13" x2="351.99" y2="186.65"/><line x1="208.89" y1="171.03" x2="242.07" y2="212.51"/><line x1="177.22" y1="329.93" x2="178.51" y2="335.34"/><line x1="350.35" y1="135.28" x2="350.23" y2="137.81"/><line x1="190.58" y1="144.91" x2="181.80" y2="136.34"/><line x1="190.58" y1="144.91" x2="176.70" y2="137.79"/><line x1="229.38" y1="337.92" x2="221.14" y2="359.43"/><line x1="181.55" y1="350.51" x2="182.30" y2="355.21"/><line x1="182.30" y1="355.21" x2="189.95" y2="364.93"/><line x1="186.88" y1="393.74" x2="186.60" y2="393.66"/><line x1="351.71" y1="121.86" x2="351.99" y2="121.95"/><line x1="351.41" y1="121.79" x2="351.08" y2="121.73"/><line x1="306.94" y1="133.42" x2="322.05" y2="164.66"/><line x1="186.08" y1="157.07" x2="191.43" y2="166.90"/><line x1="160.19" y1="278.43" x2="160.49" y2="269.48"/><line x1="306.94" y1="133.42" x2="308.60" y2="158.78"/><line x1="349.96" y1="157.88" x2="333.13" y2="170.71"/><line x1="160.49" y1="269.48" x2="156.99" y2="270.75"/><line x1="188.99" y1="393.98" x2="189.34" y2="393.96"/><line x1="182.30" y1="355.21" x2="190.71" y2="393.51"/><line x1="249.68" y1="344.50" x2="244.46" y2="358.95"/><line x1="216.05" y1="332.06" x2="210.63" y2="359.63"/><line x1="182.30" y1="355.21" x2="189.62" y2="371.21"/><line x1="336.23" y1="172.71" x2="338.92" y2="174.62"/><line x1="189.34" y1="393.96" x2="189.66" y2="393.92"/><line x1="350.50" y1="132.84" x2="350.35" y2="135.28"/><line x1="219.23" y1="141.24" x2="216.66" y2="141.26"/><line x1="174.25" y1="297.22" x2="168.32" y2="299.79"/><line x1="236.20" y1="340.40" x2="229.38" y2="337.92"/><line x1="186.08" y1="157.07" x2="191.25" y2="146.09"/><line x1="168.32" y1="299.79" x2="170.55" y2="306.34"/><line x1="190.90" y1="393.34" x2="190.18" y2="382.99"/><line x1="278.88" y1="349.24" x2="278.05" y2="349.43"/><line x1="190.18" y1="382.99" x2="190.03" y2="381.15"/><line x1="346.09" y1="132.78" x2="348.25" y2="121.73"/><line x1="182.30" y1="355.21" x2="189.34" y2="393.96"/><line x1="200.44" y1="142.04" x2="197.82" y2="142.30"/><line x1="182.30" y1="355.21" x2="189.91" y2="379.36"/><line x1="281.79" y1="345.14" x2="281.75" y2="345.84"/><line x1="216.05" y1="332.06" x2="193.65" y2="361.19"/><line x1="182.30" y1="355.21" x2="189.83" y2="366.35"/><line x1="190.71" y1="316.53" x2="175.81" y2="324.35"/><line x1="201.47" y1="360.21" x2="197.39" y2="360.65"/><line x1="348.25" y1="121.73" x2="347.94" y2="121.79"/><line x1="198.77" y1="157.01" x2="208.89" y2="171.03"/><line x1="175.81" y1="324.35" x2="177.22" y2="329.93"/><line x1="333.04" y1="357.20" x2="350.84" y2="354.00"/><line x1="197.39" y1="360.65" x2="193.65" y2="361.19"/><line x1="345.72" y1="181.25" x2="346.41" y2="182.66"/><line x1="186.08" y1="157.07" x2="196.60" y2="153.92"/><line x1="268.48" y1="349.18" x2="264.91" y2="348.45"/><line x1="189.62" y1="371.21" x2="189.63" y2="370.12"/><line x1="184.99" y1="136.30" x2="190.58" y2="144.91"/><line x1="64.64" y1="32.09" x2="32.16" y2="64.58"/><line x1="209.53" y1="328.70" x2="216.05" y2="332.06"/><line x1="303.60" y1="156.86" x2="298.38" y2="154.99"/><line x1="264.91" y1="348.45" x2="260.59" y2="347.43"/><line x1="355.31" y1="221.75" x2="355.04" y2="221.79"/><line x1="346.09" y1="132.78" x2="350.00" y2="121.63"/><line x1="343.48" y1="133.41" x2="342.27" y2="133.64"/><line x1="182.30" y1="355.21" x2="187.50" y2="393.87"/><line x1="346.09" y1="132.78" x2="350.23" y2="137.81"/><line x1="182.30" y1="355.21" x2="190.48" y2="393.65"/><line x1="254.41" y1="283.66" x2="273.19" y2="323.08"/><line x1="182.30" y1="355.21" x2="189.63" y2="372.74"/><line x1="336.23" y1="172.71" x2="350.30" y2="167.91"/><line x1="355.04" y1="221.79" x2="354.76" y2="221.82"/><line x1="287.43" y1="151.53" x2="281.71" y2="149.94"/><line x1="273.19" y1="323.08" x2="275.47" y2="328.12"/><line x1="333.04" y1="357.20" x2="348.73" y2="349.32"/><line x1="349.91" y1="152.70" x2="329.70" y2="168.68"/><line x1="326.01" y1="166.65" x2="337.98" y2="134.06"/><line x1="351.99" y1="186.65" x2="355.58" y2="221.69"/><line x1="348.73" y1="349.32" x2="349.34" y2="350.32"/><line x1="351.99" y1="186.65" x2="353.02" y2="221.64"/><line x1="160.19" y1="278.43" x2="163.14" y2="285.84"/><line x1="242.07" y1="212.51" x2="282.74" y2="263.55"/><line x1="346.09" y1="132.78" x2="350.96" y2="128.22"/><line x1="353.02" y1="221.64" x2="352.69" y2="221.52"/><line x1="346.09" y1="132.78" x2="348.57" y2="121.69"/><line x1="182.30" y1="355.21" x2="188.99" y2="393.98"/><line x1="182.30" y1="355.21" x2="190.03" y2="381.15"/><line x1="164.79" y1="279.66" x2="169.37" y2="288.91"/><line x1="281.79" y1="345.14" x2="285.85" y2="358.08"/><line x1="216.05" y1="332.06" x2="197.39" y2="360.65"/><line x1="189.63" y1="372.74" x2="189.62" y2="371.21"/><line x1="216.05" y1="332.06" x2="190.26" y2="361.81"/><line x1="32.16" y1="32.09" x2="64.64" y2="32.09"/><line x1="333.04" y1="357.20" x2="350.61" y2="353.13"/><line x1="326.01" y1="166.65" x2="343.48" y2="133.41"/><line x1="178.51" y1="335.34" x2="179.65" y2="340.57"/><line x1="326.01" y1="166.65" x2="329.70" y2="168.68"/><line x1="282.74" y1="263.55" x2="254.41" y2="283.66"/><line x1="180.67" y1="345.63" x2="209.53" y2="328.70"/><line x1="282.74" y1="263.55" x2="285.85" y2="358.08"/><line x1="351.99" y1="186.65" x2="354.49" y2="221.84"/><line x1="236.26" y1="134.85" x2="287.43" y2="151.53"/><line x1="236.26" y1="134.85" x2="231.94" y2="141.61"/><line x1="179.44" y1="304.59" x2="184.92" y2="311.03"/><line x1="222.67" y1="335.14" x2="210.63" y2="359.63"/><line x1="209.53" y1="328.70" x2="181.55" y2="350.51"/><line x1="190.09" y1="363.41" x2="190.26" y2="361.81"/><line x1="346.09" y1="132.78" x2="350.38" y2="121.65"/><line x1="350.59" y1="172.76" x2="343.12" y2="178.12"/><line x1="182.30" y1="355.21" x2="187.18" y2="393.81"/><line x1="346.09" y1="132.78" x2="347.37" y2="121.95"/><line x1="182.30" y1="355.21" x2="190.24" y2="393.77"/><line x1="32.00" y1="447.50" x2="64.49" y2="479.98"/></g></svg>