<svg xmlns="http://www.w3.org/2000/svg" width="512" height="512"><rect width="512" height="512" fill="#0a0f1a"/><text x="12" y="20" font-family="monospace" font-size="11" fill="#4a7fa5">FRONT (XZ)</text><g stroke="#00d4ff" stroke-width="0.6" opacity="0.85"><line x1="264.68" y1="358.62" x2="260.14" y2="361.11"/><line x1="158.84" y1="146.14" x2="163.70" y2="228.45"/><line x1="236.70" y1="292.33" x2="251.11" y2="274.84"/><line x1="223.34" y1="135.38" x2="216.08" y2="143.13"/><line x1="126.48" y1="131.23" x2="130.95" y2="131.41"/><line x1="148.11" y1="172.13" x2="155.44" y2="151.70"/><line x1="389.57" y1="130.92" x2="389.25" y2="131.24"/><line x1="251.11" y1="274.84" x2="240.59" y2="283.83"/><line x1="340.28" y1="132.67" x2="311.32" y2="142.80"/><line x1="305.04" y1="143.05" x2="292.61" y2="143.83"/><line x1="122.89" y1="133.14" x2="122.81" y2="133.82"/><line x1="260.14" y1="361.11" x2="236.05" y2="332.91"/><line x1="155.44" y1="151.70" x2="147.98" y2="175.93"/><line x1="187.00" y1="254.00" x2="185.32" y2="249.27"/><line x1="260.14" y1="361.11" x2="234.17" y2="338.52"/><line x1="260.14" y1="361.11" x2="254.78" y2="359.08"/><line x1="292.61" y1="143.83" x2="291.76" y2="143.37"/><line x1="177.56" y1="174.65" x2="176.43" y2="178.92"/><line x1="354.92" y1="131.51" x2="362.09" y2="141.33"/><line x1="185.32" y1="249.27" x2="183.76" y2="244.58"/><line x1="294.88" y1="146.45" x2="303.05" y2="145.84"/><line x1="192.33" y1="281.70" x2="190.75" y2="263.45"/><line x1="271.33" y1="226.83" x2="280.87" y2="203.15"/><line x1="250.64" y1="355.78" x2="252.18" y2="357.14"/><line x1="192.33" y1="281.70" x2="196.38" y2="288.14"/><line x1="145.47" y1="133.03" x2="126.48" y2="131.23"/><line x1="216.08" y1="143.13" x2="159.23" y2="134.06"/><line x1="264.68" y1="358.62" x2="262.71" y2="360.42"/><line x1="340.28" y1="132.67" x2="355.43" y2="152.43"/><line x1="150.59" y1="193.13" x2="157.38" y2="148.80"/><line x1="176.43" y1="178.92" x2="175.62" y2="183.24"/><line x1="158.84" y1="146.14" x2="158.94" y2="145.71"/><line x1="386.25" y1="132.90" x2="385.59" y2="133.21"/><line x1="280.87" y1="203.15" x2="290.04" y2="179.67"/><line x1="252.18" y1="357.14" x2="253.50" y2="358.19"/><line x1="125.74" y1="136.77" x2="126.79" y2="137.14"/><line x1="157.38" y1="148.80" x2="152.05" y2="198.31"/><line x1="260.14" y1="361.11" x2="274.10" y2="340.30"/><line x1="196.38" y1="288.14" x2="202.22" y2="286.62"/><line x1="385.59" y1="133.21" x2="379.21" y2="128.26"/><line x1="235.07" y1="331.89" x2="236.05" y2="332.91"/><line x1="256.45" y1="295.37" x2="250.48" y2="308.98"/><line x1="196.38" y1="288.14" x2="235.07" y2="331.89"/><line x1="306.64" y1="142.42" x2="284.01" y2="142.59"/><line x1="374.37" y1="136.26" x2="371.98" y2="136.92"/><line x1="340.28" y1="132.67" x2="316.00" y2="145.81"/><line x1="260.14" y1="361.11" x2="311.98" y2="161.25"/><line x1="260.14" y1="361.11" x2="239.10" y2="332.41"/><line x1="175.52" y1="204.36" x2="175.94" y2="208.59"/><line x1="260.14" y1="361.11" x2="213.15" y2="312.69"/><line x1="202.22" y1="286.62" x2="204.87" y2="291.13"/><line x1="250.48" y1="308.98" x2="242.43" y2="326.56"/><line x1="260.14" y1="361.11" x2="246.53" y2="351.77"/><line x1="260.14" y1="361.11" x2="259.20" y2="361.03"/><line x1="130.95" y1="131.41" x2="129.37" y2="131.31"/><line x1="265.28" y1="357.78" x2="265.94" y2="356.76"/><line x1="175.94" y1="208.59" x2="176.48" y2="212.89"/><line x1="371.98" y1="136.92" x2="369.88" y2="137.51"/><line x1="293.76" y1="151.93" x2="299.54" y2="154.45"/><line x1="192.33" y1="281.70" x2="183.76" y2="244.58"/><line x1="140.39" y1="139.87" x2="143.98" y2="140.46"/><line x1="216.08" y1="143.13" x2="126.48" y2="131.23"/><line x1="158.84" y1="146.14" x2="160.91" y2="222.10"/><line x1="369.88" y1="137.51" x2="368.10" y2="138.03"/><line x1="216.08" y1="143.13" x2="214.89" y2="143.18"/><line x1="306.10" y1="142.49" x2="286.58" y2="142.73"/><line x1="238.48" y1="333.14" x2="237.95" y2="333.58"/><line x1="143.98" y1="140.46" x2="146.94" y2="140.94"/><line x1="260.14" y1="361.11" x2="269.15" y2="350.88"/><line x1="388.90" y1="126.03" x2="388.39" y2="125.97"/><line x1="364.01" y1="139.47" x2="363.17" y2="140.10"/><line x1="196.38" y1="288.14" x2="213.53" y2="304.08"/><line x1="302.03" y1="148.10" x2="302.55" y2="146.90"/><line x1="237.95" y1="333.58" x2="237.49" y2="333.73"/><line x1="306.64" y1="142.42" x2="285.71" y2="134.90"/><line x1="260.14" y1="361.11" x2="250.48" y2="308.98"/><line x1="260.14" y1="361.11" x2="236.86" y2="333.52"/><line x1="260.14" y1="361.11" x2="229.98" y2="333.82"/><line x1="260.14" y1="361.11" x2="253.50" y2="358.19"/><line x1="275.20" y1="337.80" x2="288.98" y2="305.26"/><line x1="480.00" y1="32.02" x2="447.51" y2="32.02"/><line x1="208.63" y1="144.14" x2="207.32" y2="144.48"/><line x1="260.14" y1="361.11" x2="340.28" y2="132.67"/><line x1="240.43" y1="299.16" x2="229.94" y2="306.27"/><line x1="354.92" y1="131.51" x2="363.17" y2="140.10"/><line x1="260.14" y1="361.11" x2="315.73" y2="149.71"/><line x1="192.33" y1="281.70" x2="192.81" y2="268.14"/><line x1="156.95" y1="142.92" x2="157.48" y2="143.15"/><line x1="216.08" y1="143.13" x2="164.53" y2="134.33"/><line x1="158.84" y1="146.14" x2="173.29" y2="248.19"/><line x1="304.03" y1="144.16" x2="304.53" y2="143.53"/><line x1="213.15" y1="312.69" x2="217.37" y2="318.31"/><line x1="260.14" y1="361.11" x2="265.28" y2="357.78"/><line x1="361.62" y1="130.81" x2="364.58" y2="139.21"/><line x1="260.14" y1="361.11" x2="273.04" y2="342.68"/><line x1="158.94" y1="145.71" x2="158.90" y2="145.14"/><line x1="293.91" y1="144.83" x2="293.32" y2="144.32"/><line x1="292.28" y1="156.43" x2="293.76" y2="151.93"/><line x1="260.14" y1="361.11" x2="313.27" y2="157.58"/><line x1="137.19" y1="139.33" x2="140.39" y2="139.87"/><line x1="260.14" y1="361.11" x2="239.81" y2="331.39"/><line x1="158.33" y1="215.86" x2="158.84" y2="146.14"/><line x1="260.14" y1="361.11" x2="208.93" y2="306.83"/><line x1="270.89" y1="142.42" x2="223.34" y2="135.38"/><line x1="123.13" y1="134.96" x2="123.54" y2="135.46"/><line x1="154.18" y1="153.50" x2="155.44" y2="151.70"/><line x1="249.38" y1="263.79" x2="280.45" y2="187.99"/><line x1="233.91" y1="330.45" x2="219.90" y2="312.21"/><line x1="211.20" y1="143.62" x2="209.92" y2="143.86"/><line x1="270.07" y1="349.02" x2="271.02" y2="347.04"/><line x1="219.90" y1="312.21" x2="232.57" y2="328.61"/><line x1="306.10" y1="142.49" x2="288.72" y2="142.91"/><line x1="294.95" y1="147.03" x2="302.03" y2="148.10"/><line x1="209.92" y1="143.86" x2="208.63" y2="144.14"/><line x1="191.22" y1="151.89" x2="157.48" y2="143.15"/><line x1="271.02" y1="347.04" x2="272.01" y2="344.92"/><line x1="379.21" y1="128.26" x2="374.37" y2="136.26"/><line x1="181.03" y1="235.32" x2="179.87" y2="230.74"/><line x1="260.14" y1="361.11" x2="268.26" y2="352.60"/><line x1="158.94" y1="145.71" x2="176.90" y2="255.00"/><line x1="364.01" y1="139.47" x2="354.92" y2="131.51"/><line x1="196.38" y1="288.14" x2="210.53" y2="299.86"/><line x1="302.03" y1="148.10" x2="294.88" y2="146.45"/><line x1="315.42" y1="144.77" x2="316.00" y2="145.81"/><line x1="156.20" y1="142.69" x2="156.95" y2="142.92"/><line x1="260.14" y1="361.11" x2="256.45" y2="295.37"/><line x1="176.90" y1="255.00" x2="180.65" y2="261.82"/><line x1="287.55" y1="169.49" x2="290.21" y2="162.28"/><line x1="224.53" y1="316.12" x2="240.43" y2="299.16"/><line x1="208.93" y1="306.83" x2="213.15" y2="312.69"/><line x1="316.00" y1="145.81" x2="316.20" y2="147.03"/><line x1="480.00" y1="32.02" x2="480.00" y2="64.50"/><line x1="153.83" y1="203.85" x2="155.95" y2="209.74"/><line x1="154.18" y1="153.50" x2="152.53" y2="156.10"/><line x1="390.30" y1="128.55" x2="390.28" y2="129.12"/><line x1="240.43" y1="299.16" x2="227.06" y2="311.70"/><line x1="294.36" y1="145.35" x2="304.03" y2="144.16"/><line x1="179.87" y1="230.74" x2="178.83" y2="226.21"/><line x1="480.00" y1="479.91" x2="480.00" y2="447.42"/><line x1="125.50" y1="131.28" x2="124.68" y2="131.44"/><line x1="194.98" y1="272.80" x2="197.27" y2="277.43"/><line x1="294.65" y1="148.80" x2="294.95" y2="147.03"/><line x1="357.45" y1="148.74" x2="355.43" y2="152.43"/><line x1="304.03" y1="144.16" x2="293.91" y2="144.83"/><line x1="198.48" y1="135.38" x2="170.21" y2="134.58"/><line x1="384.25" y1="127.25" x2="390.19" y2="129.64"/><line x1="191.22" y1="151.89" x2="158.78" y2="144.63"/><line x1="188.08" y1="154.86" x2="185.29" y2="158.28"/><line x1="384.25" y1="127.25" x2="386.86" y2="132.60"/><line x1="361.62" y1="130.81" x2="365.45" y2="138.89"/><line x1="260.14" y1="361.11" x2="272.01" y2="344.92"/><line x1="158.94" y1="145.71" x2="192.33" y2="281.70"/><line x1="240.59" y1="283.83" x2="244.82" y2="274.32"/><line x1="237.77" y1="342.48" x2="241.04" y2="346.02"/><line x1="170.21" y1="134.58" x2="164.53" y2="134.33"/><line x1="447.51" y1="479.91" x2="480.00" y2="447.42"/><line x1="260.14" y1="361.11" x2="314.33" y2="154.44"/><line x1="223.25" y1="316.12" x2="224.53" y2="316.12"/><line x1="388.87" y1="131.52" x2="388.44" y2="131.77"/><line x1="244.82" y1="274.32" x2="249.38" y2="263.79"/><line x1="241.04" y1="346.02" x2="243.95" y2="349.11"/><line x1="123.13" y1="134.96" x2="122.89" y2="134.41"/><line x1="148.15" y1="179.70" x2="148.63" y2="183.82"/><line x1="154.18" y1="153.50" x2="148.11" y2="172.13"/><line x1="314.33" y1="154.44" x2="313.27" y2="157.58"/><line x1="305.56" y1="142.70" x2="306.10" y2="142.49"/><line x1="367.90" y1="130.04" x2="361.62" y2="130.81"/><line x1="152.05" y1="198.31" x2="153.83" y2="203.85"/><line x1="175.62" y1="183.24" x2="175.14" y2="187.62"/><line x1="182.33" y1="239.93" x2="181.03" y2="235.32"/><line x1="313.27" y1="157.58" x2="311.98" y2="161.25"/><line x1="253.50" y1="358.19" x2="254.78" y2="359.08"/><line x1="141.61" y1="132.62" x2="138.10" y2="132.19"/><line x1="384.25" y1="127.25" x2="389.95" y2="126.81"/><line x1="191.22" y1="151.89" x2="156.95" y2="142.92"/><line x1="384.25" y1="127.25" x2="389.25" y2="131.24"/><line x1="158.07" y1="147.68" x2="158.55" y2="146.79"/><line x1="379.21" y1="128.26" x2="384.88" y2="133.53"/><line x1="196.38" y1="288.14" x2="200.50" y2="294.48"/><line x1="254.78" y1="359.08" x2="255.98" y2="359.81"/><line x1="384.88" y1="133.53" x2="374.37" y2="136.26"/><line x1="242.43" y1="326.56" x2="241.47" y2="328.46"/><line x1="158.90" y1="145.14" x2="177.15" y2="217.27"/><line x1="280.45" y1="187.99" x2="284.29" y2="178.06"/><line x1="368.10" y1="138.03" x2="366.62" y2="138.49"/><line x1="300.22" y1="152.64" x2="300.86" y2="150.97"/><line x1="241.47" y1="328.46" x2="240.60" y2="330.07"/><line x1="122.81" y1="133.82" x2="131.90" y2="138.35"/><line x1="122.81" y1="133.82" x2="155.08" y2="142.43"/><line x1="480.00" y1="479.91" x2="447.51" y2="479.91"/><line x1="294.65" y1="148.80" x2="301.46" y2="149.46"/><line x1="191.22" y1="151.89" x2="123.11" y2="132.56"/><line x1="126.48" y1="131.23" x2="125.50" y2="131.28"/><line x1="384.25" y1="127.25" x2="390.28" y2="129.12"/><line x1="147.98" y1="175.93" x2="148.15" y2="179.70"/><line x1="191.22" y1="151.89" x2="158.57" y2="144.18"/><line x1="384.25" y1="127.25" x2="387.43" y2="132.32"/><line x1="361.62" y1="130.81" x2="366.62" y2="138.49"/><line x1="291.76" y1="143.37" x2="305.56" y2="142.70"/><line x1="223.25" y1="316.12" x2="229.37" y2="323.70"/><line x1="183.76" y1="244.58" x2="182.33" y2="239.93"/><line x1="158.90" y1="145.14" x2="185.29" y2="158.28"/><line x1="315.73" y1="149.71" x2="315.15" y2="151.81"/><line x1="158.90" y1="145.14" x2="175.04" y2="196.08"/><line x1="262.71" y1="360.42" x2="262.22" y2="360.67"/><line x1="303.05" y1="145.84" x2="303.54" y2="144.94"/><line x1="290.04" y1="179.67" x2="284.29" y2="178.06"/><line x1="122.81" y1="133.82" x2="124.84" y2="136.37"/><line x1="122.81" y1="133.82" x2="143.98" y2="140.46"/><line x1="367.90" y1="130.04" x2="368.10" y2="138.03"/><line x1="152.05" y1="198.31" x2="158.07" y2="147.68"/><line x1="284.29" y1="178.06" x2="287.55" y2="169.49"/><line x1="126.48" y1="131.23" x2="207.32" y2="144.48"/><line x1="384.25" y1="127.25" x2="389.68" y2="126.45"/><line x1="128.12" y1="137.51" x2="129.82" y2="137.91"/><line x1="191.22" y1="151.89" x2="156.20" y2="142.69"/><line x1="384.25" y1="127.25" x2="389.57" y2="130.92"/><line x1="158.07" y1="147.68" x2="153.83" y2="203.85"/><line x1="204.87" y1="291.13" x2="207.64" y2="295.55"/><line x1="384.25" y1="127.25" x2="379.21" y2="128.26"/><line x1="281.01" y1="142.50" x2="277.60" y2="142.44"/><line x1="264.13" y1="359.29" x2="264.68" y2="358.62"/><line x1="265.94" y1="356.76" x2="266.66" y2="355.55"/><line x1="176.48" y1="212.89" x2="177.15" y2="217.27"/><line x1="207.64" y1="295.55" x2="210.53" y2="299.86"/><line x1="293.32" y1="144.32" x2="292.61" y2="143.83"/><line x1="299.54" y1="154.45" x2="300.22" y2="152.64"/><line x1="263.18" y1="360.12" x2="262.71" y2="360.42"/><line x1="158.90" y1="145.14" x2="177.56" y2="174.65"/><line x1="156.51" y1="150.14" x2="157.38" y2="148.80"/><line x1="266.66" y1="355.55" x2="267.43" y2="354.17"/><line x1="158.90" y1="145.14" x2="176.48" y2="212.89"/><line x1="160.91" y1="222.10" x2="163.70" y2="228.45"/><line x1="280.45" y1="187.99" x2="290.04" y2="179.67"/><line x1="368.10" y1="138.03" x2="361.62" y2="130.81"/><line x1="300.22" y1="152.64" x2="294.65" y2="148.80"/><line x1="122.81" y1="133.82" x2="129.82" y2="137.91"/><line x1="122.81" y1="133.82" x2="153.59" y2="142.12"/><line x1="146.94" y1="140.94" x2="149.52" y2="141.37"/><line x1="199.68" y1="282.04" x2="202.22" y2="286.62"/><line x1="163.70" y1="228.45" x2="166.69" y2="234.92"/><line x1="126.48" y1="131.23" x2="141.61" y2="132.62"/><line x1="126.48" y1="131.23" x2="213.68" y2="143.27"/><line x1="237.49" y1="333.73" x2="236.86" y2="333.52"/><line x1="191.22" y1="151.89" x2="123.48" y2="132.08"/><line x1="309.17" y1="142.52" x2="311.32" y2="142.80"/><line x1="126.48" y1="131.23" x2="191.22" y2="151.89"/><line x1="272.01" y1="344.92" x2="273.04" y2="342.68"/><line x1="384.25" y1="127.25" x2="390.30" y2="128.55"/><line x1="389.33" y1="126.19" x2="389.68" y2="126.45"/><line x1="298.83" y1="156.43" x2="293.76" y2="151.93"/><line x1="126.79" y1="137.14" x2="128.12" y2="137.51"/><line x1="207.32" y1="144.48" x2="202.77" y2="145.67"/><line x1="158.55" y1="146.79" x2="158.84" y2="146.14"/><line x1="273.04" y1="342.68" x2="274.10" y2="340.30"/><line x1="284.01" y1="142.59" x2="281.01" y2="142.50"/><line x1="363.17" y1="140.10" x2="362.09" y2="141.33"/><line x1="302.55" y1="146.90" x2="303.05" y2="145.84"/><line x1="158.90" y1="145.14" x2="188.08" y2="154.86"/><line x1="158.90" y1="145.14" x2="174.98" y2="192.05"/><line x1="157.48" y1="143.15" x2="157.92" y2="143.44"/><line x1="184.47" y1="268.54" x2="188.36" y2="275.17"/><line x1="129.37" y1="131.31" x2="127.88" y2="131.25"/><line x1="285.71" y1="134.90" x2="340.28" y2="132.67"/><line x1="340.28" y1="132.67" x2="288.98" y2="305.26"/><line x1="264.68" y1="358.62" x2="260.68" y2="361.08"/><line x1="122.81" y1="133.82" x2="124.11" y2="135.93"/><line x1="217.37" y1="318.31" x2="221.58" y2="323.71"/><line x1="316.08" y1="148.11" x2="315.73" y2="149.71"/><line x1="122.81" y1="133.82" x2="140.39" y2="139.87"/><line x1="390.19" y1="129.64" x2="390.04" y2="130.12"/><line x1="229.94" y1="306.27" x2="233.15" y2="299.81"/><line x1="126.48" y1="131.23" x2="132.61" y2="131.54"/><line x1="304.53" y1="143.53" x2="305.04" y2="143.05"/><line x1="126.48" y1="131.23" x2="208.63" y2="144.14"/><line x1="124.01" y1="131.71" x2="123.48" y2="132.08"/><line x1="384.25" y1="127.25" x2="389.33" y2="126.19"/><line x1="340.28" y1="132.67" x2="309.17" y2="142.52"/><line x1="353.18" y1="156.73" x2="337.17" y2="189.75"/><line x1="264.13" y1="359.29" x2="263.64" y2="359.76"/><line x1="148.63" y1="183.82" x2="149.44" y2="188.30"/><line x1="182.87" y1="162.15" x2="180.78" y2="166.26"/><line x1="260.14" y1="361.11" x2="235.07" y2="331.89"/><line x1="261.40" y1="250.72" x2="271.33" y2="226.83"/><line x1="243.95" y1="349.11" x2="246.53" y2="351.77"/><line x1="294.88" y1="146.45" x2="302.55" y2="146.90"/><line x1="158.90" y1="145.14" x2="179.00" y2="170.43"/><line x1="156.51" y1="150.14" x2="150.59" y2="193.13"/><line x1="192.33" y1="281.70" x2="179.87" y2="230.74"/><line x1="340.28" y1="132.67" x2="357.45" y2="148.74"/><line x1="122.81" y1="133.82" x2="128.12" y2="137.51"/><line x1="199.68" y1="282.04" x2="196.38" y2="288.14"/><line x1="126.48" y1="131.23" x2="214.89" y2="143.18"/><line x1="126.48" y1="131.23" x2="194.71" y2="149.36"/><line x1="251.11" y1="274.84" x2="261.40" y2="250.72"/><line x1="374.37" y1="136.26" x2="367.90" y2="130.04"/><line x1="340.28" y1="132.67" x2="315.42" y2="144.77"/><line x1="180.65" y1="261.82" x2="184.47" y2="268.54"/><line x1="298.83" y1="156.43" x2="292.28" y2="156.43"/><line x1="306.64" y1="142.42" x2="309.17" y2="142.52"/><line x1="155.44" y1="151.70" x2="156.51" y2="150.14"/><line x1="480.00" y1="64.50" x2="447.51" y2="32.02"/><line x1="260.14" y1="361.11" x2="243.95" y2="349.11"/><line x1="158.55" y1="146.79" x2="158.33" y2="215.86"/><line x1="260.14" y1="361.11" x2="258.19" y2="360.79"/><line x1="273.75" y1="142.42" x2="270.89" y2="142.42"/><line x1="158.90" y1="145.14" x2="158.78" y2="144.63"/><line x1="150.01" y1="161.91" x2="149.12" y2="165.11"/><line x1="192.33" y1="281.70" x2="185.32" y2="249.27"/><line x1="216.08" y1="143.13" x2="145.47" y2="133.03"/><line x1="264.68" y1="358.62" x2="261.21" y2="361.00"/><line x1="122.81" y1="133.82" x2="123.54" y2="135.46"/><line x1="340.28" y1="132.67" x2="324.83" y2="217.91"/><line x1="192.81" y1="268.14" x2="190.75" y2="263.45"/><line x1="126.48" y1="131.23" x2="134.36" y2="131.72"/><line x1="304.53" y1="143.53" x2="293.32" y2="144.32"/><line x1="126.48" y1="131.23" x2="209.92" y2="143.86"/><line x1="306.64" y1="142.42" x2="273.75" y2="142.42"/><line x1="340.28" y1="132.67" x2="315.73" y2="149.71"/><line x1="260.14" y1="361.11" x2="237.49" y2="333.73"/><line x1="159.23" y1="134.06" x2="154.28" y2="133.75"/><line x1="260.14" y1="361.11" x2="225.78" y2="328.88"/><line x1="260.14" y1="361.11" x2="196.38" y2="288.14"/><line x1="148.63" y1="183.82" x2="156.51" y2="150.14"/><line x1="260.14" y1="361.11" x2="252.18" y2="357.14"/><line x1="387.96" y1="132.04" x2="387.43" y2="132.32"/><line x1="151.14" y1="158.90" x2="150.01" y2="161.91"/><line x1="123.54" y1="135.46" x2="124.11" y2="135.93"/><line x1="192.33" y1="281.70" x2="197.27" y2="277.43"/><line x1="316.20" y1="147.03" x2="316.08" y2="148.11"/><line x1="192.33" y1="281.70" x2="199.68" y2="282.04"/><line x1="311.98" y1="161.25" x2="310.46" y2="165.41"/><line x1="216.08" y1="143.13" x2="170.21" y2="134.58"/><line x1="290.45" y1="143.12" x2="288.72" y2="142.91"/><line x1="390.28" y1="129.12" x2="390.19" y2="129.64"/><line x1="158.84" y1="146.14" x2="169.89" y2="241.50"/><line x1="227.06" y1="311.70" x2="229.94" y2="306.27"/><line x1="261.72" y1="360.86" x2="261.21" y2="361.00"/><line x1="174.98" y1="192.05" x2="175.04" y2="196.08"/><line x1="347.81" y1="132.13" x2="357.45" y2="148.74"/><line x1="124.68" y1="131.44" x2="124.01" y2="131.71"/><line x1="303.54" y1="144.94" x2="304.03" y2="144.16"/><line x1="223.34" y1="135.38" x2="198.48" y2="135.38"/><line x1="136.19" y1="131.93" x2="134.36" y2="131.72"/><line x1="355.43" y1="152.43" x2="353.18" y2="156.73"/><line x1="293.91" y1="144.83" x2="304.53" y2="143.53"/><line x1="251.11" y1="274.84" x2="249.38" y2="263.79"/><line x1="374.37" y1="136.26" x2="373.77" y2="129.19"/><line x1="340.28" y1="132.67" x2="314.44" y2="143.92"/><line x1="305.04" y1="143.05" x2="305.56" y2="142.70"/><line x1="298.83" y1="156.43" x2="290.21" y2="162.28"/><line x1="306.64" y1="142.42" x2="340.28" y2="132.67"/><line x1="185.29" y1="158.28" x2="182.87" y2="162.15"/><line x1="260.14" y1="361.11" x2="240.60" y2="330.07"/><line x1="260.14" y1="361.11" x2="204.70" y2="300.74"/><line x1="155.44" y1="151.70" x2="148.63" y2="183.82"/><line x1="131.90" y1="138.35" x2="134.35" y2="138.82"/><line x1="260.14" y1="361.11" x2="241.04" y2="346.02"/><line x1="164.53" y1="134.33" x2="159.23" y2="134.06"/><line x1="260.14" y1="361.11" x2="257.11" y2="360.38"/><line x1="240.60" y1="330.07" x2="239.81" y2="331.39"/><line x1="273.75" y1="142.42" x2="285.71" y2="134.90"/><line x1="388.44" y1="131.77" x2="387.96" y2="132.04"/><line x1="249.38" y1="263.79" x2="261.40" y2="250.72"/><line x1="240.43" y1="299.16" x2="251.11" y2="274.84"/><line x1="354.92" y1="131.51" x2="347.81" y2="132.13"/><line x1="177.92" y1="221.71" x2="178.83" y2="226.21"/><line x1="192.33" y1="281.70" x2="187.00" y2="254.00"/><line x1="213.53" y1="304.08" x2="216.66" y2="308.20"/><line x1="216.08" y1="143.13" x2="149.70" y2="133.40"/><line x1="264.68" y1="358.62" x2="261.72" y2="360.86"/><line x1="213.68" y1="143.27" x2="212.45" y2="143.42"/><line x1="340.28" y1="132.67" x2="337.17" y2="189.75"/><line x1="306.10" y1="142.49" x2="290.45" y2="143.12"/><line x1="366.62" y1="138.49" x2="365.45" y2="138.89"/><line x1="300.86" y1="150.97" x2="301.46" y2="149.46"/><line x1="175.14" y1="187.62" x2="174.98" y2="192.05"/><line x1="260.14" y1="361.11" x2="267.43" y2="354.17"/><line x1="32.16" y1="32.09" x2="32.16" y2="64.58"/><line x1="151.74" y1="141.76" x2="153.59" y2="142.12"/><line x1="196.38" y1="288.14" x2="207.64" y2="295.55"/><line x1="138.10" y1="132.19" x2="136.19" y2="131.93"/><line x1="306.64" y1="142.42" x2="277.60" y2="142.44"/><line x1="260.14" y1="361.11" x2="298.83" y2="194.94"/><line x1="313.07" y1="143.27" x2="314.44" y2="143.92"/><line x1="260.14" y1="361.11" x2="237.95" y2="333.58"/><line x1="287.55" y1="169.49" x2="298.83" y2="156.43"/><line x1="255.98" y1="359.81" x2="257.11" y2="360.38"/><line x1="260.14" y1="361.11" x2="221.58" y2="323.71"/><line x1="389.95" y1="126.81" x2="390.15" y2="127.29"/><line x1="260.14" y1="361.11" x2="250.64" y2="355.78"/><line x1="129.82" y1="137.91" x2="131.90" y2="138.35"/><line x1="294.69" y1="145.89" x2="294.36" y2="145.35"/><line x1="153.83" y1="203.85" x2="158.55" y2="146.79"/><line x1="270.89" y1="142.42" x2="248.43" y2="142.73"/><line x1="277.60" y1="142.44" x2="273.75" y2="142.42"/><line x1="192.33" y1="281.70" x2="194.98" y2="272.80"/><line x1="293.76" y1="151.93" x2="294.65" y2="148.80"/><line x1="192.33" y1="281.70" x2="181.03" y2="235.32"/><line x1="177.15" y1="217.27" x2="177.92" y2="221.71"/><line x1="216.08" y1="143.13" x2="198.48" y2="135.38"/><line x1="340.28" y1="132.67" x2="347.81" y2="132.13"/><line x1="158.84" y1="146.14" x2="166.69" y2="234.92"/><line x1="236.70" y1="292.33" x2="240.59" y2="283.83"/><line x1="260.14" y1="361.11" x2="271.02" y2="347.04"/><line x1="158.94" y1="145.71" x2="188.36" y2="275.17"/><line x1="148.11" y1="172.13" x2="147.98" y2="175.93"/><line x1="197.27" y1="277.43" x2="199.68" y2="282.04"/><line x1="196.38" y1="288.14" x2="233.91" y2="330.45"/><line x1="305.04" y1="143.05" x2="291.76" y2="143.37"/><line x1="260.14" y1="361.11" x2="315.15" y2="151.81"/><line x1="260.14" y1="361.11" x2="241.47" y2="328.46"/><line x1="260.14" y1="361.11" x2="200.50" y2="294.48"/><line x1="267.43" y1="354.17" x2="268.26" y2="352.60"/><line x1="260.14" y1="361.11" x2="237.77" y2="342.48"/><line x1="154.18" y1="153.50" x2="148.49" y2="168.52"/><line x1="240.43" y1="299.16" x2="236.70" y2="292.33"/><line x1="354.92" y1="131.51" x2="360.78" y2="143.19"/><line x1="262.22" y1="360.67" x2="261.72" y2="360.86"/><line x1="360.78" y1="143.19" x2="359.23" y2="145.65"/><line x1="216.08" y1="143.13" x2="154.28" y2="133.75"/><line x1="150.59" y1="193.13" x2="152.05" y2="198.31"/><line x1="32.00" y1="479.98" x2="64.49" y2="479.98"/><line x1="286.58" y1="142.73" x2="284.01" y2="142.59"/><line x1="260.14" y1="361.11" x2="266.66" y2="355.55"/><line x1="361.62" y1="130.81" x2="354.92" y2="131.51"/><line x1="260.14" y1="361.11" x2="275.20" y2="337.80"/><line x1="196.38" y1="288.14" x2="204.87" y2="291.13"/><line x1="260.14" y1="361.11" x2="310.46" y2="165.41"/><line x1="260.14" y1="361.11" x2="238.48" y2="333.14"/><line x1="270.89" y1="142.42" x2="216.08" y2="143.13"/><line x1="210.53" y1="299.86" x2="213.53" y2="304.08"/><line x1="158.29" y1="143.78" x2="158.57" y2="144.18"/><line x1="233.91" y1="330.45" x2="235.07" y2="331.89"/><line x1="214.89" y1="143.18" x2="213.68" y2="143.27"/><line x1="294.65" y1="148.80" x2="300.86" y2="150.97"/><line x1="219.90" y1="312.21" x2="223.25" y2="316.12"/><line x1="389.84" y1="130.54" x2="389.57" y2="130.92"/><line x1="306.10" y1="142.49" x2="306.64" y2="142.42"/><line x1="149.52" y1="141.37" x2="151.74" y2="141.76"/><line x1="166.69" y1="234.92" x2="169.89" y2="241.50"/><line x1="191.22" y1="151.89" x2="158.29" y2="143.78"/><line x1="384.25" y1="127.25" x2="387.96" y2="132.04"/><line x1="123.11" y1="132.56" x2="122.89" y2="133.14"/><line x1="236.86" y1="333.52" x2="236.05" y2="332.91"/><line x1="260.14" y1="361.11" x2="270.07" y2="349.02"/><line x1="158.94" y1="145.71" x2="184.47" y2="268.54"/><line x1="311.32" y1="142.80" x2="313.07" y2="143.27"/><line x1="388.90" y1="126.03" x2="389.33" y2="126.19"/><line x1="196.38" y1="288.14" x2="216.66" y2="308.20"/><line x1="389.68" y1="126.45" x2="389.95" y2="126.81"/><line x1="260.14" y1="361.11" x2="288.98" y2="305.26"/><line x1="223.25" y1="316.12" x2="231.05" y2="326.36"/><line x1="260.14" y1="361.11" x2="242.43" y2="326.56"/><line x1="179.00" y1="170.43" x2="177.56" y2="174.65"/><line x1="202.77" y1="145.67" x2="198.56" y2="147.29"/><line x1="274.10" y1="340.30" x2="275.20" y2="337.80"/><line x1="149.70" y1="133.40" x2="145.47" y2="133.03"/><line x1="362.09" y1="141.33" x2="360.78" y2="143.19"/><line x1="154.18" y1="153.50" x2="149.12" y2="165.11"/><line x1="303.05" y1="145.84" x2="294.69" y2="145.89"/><line x1="240.43" y1="299.16" x2="233.15" y2="299.81"/><line x1="157.92" y1="143.44" x2="158.29" y2="143.78"/><line x1="367.90" y1="130.04" x2="369.88" y2="137.51"/><line x1="188.36" y1="275.17" x2="192.33" y2="281.70"/><line x1="360.78" y1="143.19" x2="347.81" y2="132.13"/><line x1="124.84" y1="136.37" x2="125.74" y2="136.77"/><line x1="221.58" y1="323.71" x2="225.78" y2="328.88"/><line x1="32.00" y1="479.98" x2="32.00" y2="447.50"/><line x1="286.58" y1="142.73" x2="306.64" y2="142.42"/><line x1="390.04" y1="130.12" x2="389.84" y2="130.54"/><line x1="384.25" y1="127.25" x2="389.84" y2="130.54"/><line x1="233.15" y1="299.81" x2="236.70" y2="292.33"/><line x1="384.25" y1="127.25" x2="385.59" y2="133.21"/><line x1="260.14" y1="361.11" x2="265.94" y2="356.76"/><line x1="361.62" y1="130.81" x2="364.01" y2="139.47"/><line x1="225.78" y1="328.88" x2="229.98" y2="333.82"/><line x1="123.48" y1="132.08" x2="123.11" y2="132.56"/><line x1="148.49" y1="168.52" x2="148.11" y2="172.13"/><line x1="132.61" y1="131.54" x2="130.95" y2="131.41"/><line x1="337.17" y1="189.75" x2="324.83" y2="217.91"/><line x1="293.32" y1="144.32" x2="305.04" y2="143.05"/><line x1="158.33" y1="215.86" x2="160.91" y2="222.10"/><line x1="263.18" y1="360.12" x2="264.68" y2="358.62"/><line x1="180.78" y1="166.26" x2="179.00" y2="170.43"/><line x1="158.90" y1="145.14" x2="175.94" y2="208.59"/><line x1="188.82" y1="258.74" x2="187.00" y2="254.00"/><line x1="280.45" y1="187.99" x2="280.87" y2="203.15"/><line x1="324.83" y1="217.91" x2="288.98" y2="305.26"/><line x1="246.53" y1="351.77" x2="248.75" y2="354.00"/><line x1="154.28" y1="133.75" x2="149.70" y2="133.40"/><line x1="233.91" y1="330.45" x2="232.57" y2="328.61"/><line x1="122.81" y1="133.82" x2="151.74" y2="141.76"/><line x1="387.43" y1="132.32" x2="386.86" y2="132.60"/><line x1="248.75" y1="354.00" x2="250.64" y2="355.78"/><line x1="191.22" y1="151.89" x2="124.01" y2="131.71"/><line x1="124.11" y1="135.93" x2="124.84" y2="136.37"/><line x1="294.95" y1="147.03" x2="294.88" y2="146.45"/><line x1="384.25" y1="127.25" x2="390.27" y2="127.87"/><line x1="386.86" y1="132.60" x2="386.25" y2="132.90"/><line x1="191.22" y1="151.89" x2="157.92" y2="143.44"/><line x1="384.25" y1="127.25" x2="388.44" y2="131.77"/><line x1="310.46" y1="165.41" x2="298.83" y2="194.94"/><line x1="379.21" y1="128.26" x2="373.77" y2="129.19"/><line x1="158.94" y1="145.71" x2="180.65" y2="261.82"/><line x1="298.83" y1="194.94" x2="256.45" y2="295.37"/><line x1="224.53" y1="316.12" x2="227.06" y2="311.70"/><line x1="158.90" y1="145.14" x2="175.14" y2="187.62"/><line x1="175.22" y1="200.18" x2="175.52" y2="204.36"/><line x1="158.90" y1="145.14" x2="178.83" y2="226.21"/><line x1="154.18" y1="153.50" x2="150.01" y2="161.91"/><line x1="285.71" y1="134.90" x2="223.34" y2="135.38"/><line x1="258.19" y1="360.79" x2="259.20" y2="361.03"/><line x1="122.81" y1="133.82" x2="137.19" y2="139.33"/><line x1="294.36" y1="145.35" x2="293.91" y2="144.83"/><line x1="149.12" y1="165.11" x2="148.49" y2="168.52"/><line x1="216.66" y1="308.20" x2="219.90" y2="312.21"/><line x1="367.90" y1="130.04" x2="371.98" y2="136.92"/><line x1="194.98" y1="272.80" x2="192.81" y2="268.14"/><line x1="191.22" y1="151.89" x2="122.81" y2="133.82"/><line x1="384.25" y1="127.25" x2="388.39" y2="125.97"/><line x1="190.75" y1="263.45" x2="188.82" y2="258.74"/><line x1="384.25" y1="127.25" x2="390.04" y2="130.12"/><line x1="301.46" y1="149.46" x2="302.03" y2="148.10"/><line x1="191.22" y1="151.89" x2="188.08" y2="154.86"/><line x1="384.25" y1="127.25" x2="386.25" y2="132.90"/><line x1="264.13" y1="359.29" x2="263.18" y2="360.12"/><line x1="291.76" y1="143.37" x2="290.45" y2="143.12"/><line x1="173.29" y1="248.19" x2="176.90" y2="255.00"/><line x1="261.40" y1="250.72" x2="280.45" y2="187.99"/><line x1="263.18" y1="360.12" x2="263.64" y2="359.76"/><line x1="158.90" y1="145.14" x2="180.78" y2="166.26"/><line x1="156.51" y1="150.14" x2="149.44" y2="188.30"/><line x1="229.37" y1="323.70" x2="240.43" y2="299.16"/><line x1="158.90" y1="145.14" x2="175.52" y2="204.36"/><line x1="280.45" y1="187.99" x2="271.33" y2="226.83"/><line x1="122.81" y1="133.82" x2="126.79" y2="137.14"/><line x1="290.04" y1="179.67" x2="298.83" y2="156.43"/><line x1="122.81" y1="133.82" x2="149.52" y2="141.37"/><line x1="149.44" y1="188.30" x2="150.59" y2="193.13"/><line x1="158.90" y1="145.14" x2="179.87" y2="230.74"/><line x1="288.72" y1="142.91" x2="286.58" y2="142.73"/><line x1="126.48" y1="131.23" x2="127.88" y2="131.25"/><line x1="191.22" y1="151.89" x2="124.68" y2="131.44"/><line x1="126.48" y1="131.23" x2="198.56" y2="147.29"/><line x1="261.21" y1="361.00" x2="260.68" y2="361.08"/><line x1="175.04" y1="196.08" x2="175.22" y2="200.18"/><line x1="384.25" y1="127.25" x2="390.15" y2="127.29"/><line x1="384.25" y1="127.25" x2="388.87" y2="131.52"/><line x1="257.11" y1="360.38" x2="258.19" y2="360.79"/><line x1="134.36" y1="131.72" x2="132.61" y2="131.54"/><line x1="260.68" y1="361.08" x2="260.14" y2="361.11"/><line x1="158.55" y1="146.79" x2="155.95" y2="209.74"/><line x1="373.77" y1="129.19" x2="367.90" y2="130.04"/><line x1="290.21" y1="162.28" x2="292.28" y2="156.43"/><line x1="134.35" y1="138.82" x2="137.19" y2="139.33"/><line x1="155.95" y1="209.74" x2="158.33" y2="215.86"/><line x1="158.90" y1="145.14" x2="175.62" y2="183.24"/><line x1="158.90" y1="145.14" x2="177.92" y2="221.71"/><line x1="239.81" y1="331.39" x2="239.10" y2="332.41"/><line x1="285.71" y1="134.90" x2="270.89" y2="142.42"/><line x1="122.81" y1="133.82" x2="122.89" y2="134.41"/><line x1="268.26" y1="352.60" x2="269.15" y2="350.88"/><line x1="122.81" y1="133.82" x2="134.35" y2="138.82"/><line x1="122.81" y1="133.82" x2="156.20" y2="142.69"/><line x1="216.66" y1="308.20" x2="233.91" y2="330.45"/><line x1="239.10" y1="332.41" x2="238.48" y2="333.14"/><line x1="126.48" y1="131.23" x2="136.19" y2="131.93"/><line x1="232.57" y1="328.61" x2="231.05" y2="326.36"/><line x1="212.45" y1="143.42" x2="211.20" y2="143.62"/><line x1="126.48" y1="131.23" x2="211.20" y2="143.62"/><line x1="191.22" y1="151.89" x2="122.89" y2="133.14"/><line x1="269.15" y1="350.88" x2="270.07" y2="349.02"/><line x1="384.25" y1="127.25" x2="388.90" y2="126.03"/><line x1="365.45" y1="138.89" x2="364.58" y2="139.21"/><line x1="301.46" y1="149.46" x2="294.95" y2="147.03"/><line x1="340.28" y1="132.67" x2="316.08" y2="148.11"/><line x1="153.59" y1="142.12" x2="155.08" y2="142.43"/><line x1="291.76" y1="143.37" x2="306.10" y2="142.49"/><line x1="173.29" y1="248.19" x2="158.94" y2="145.71"/><line x1="364.58" y1="139.21" x2="364.01" y2="139.47"/><line x1="200.50" y1="294.48" x2="204.70" y2="300.74"/><line x1="314.44" y1="143.92" x2="315.42" y2="144.77"/><line x1="64.64" y1="32.09" x2="32.16" y2="64.58"/><line x1="151.14" y1="158.90" x2="152.53" y2="156.10"/><line x1="155.08" y1="142.43" x2="156.20" y2="142.69"/><line x1="158.90" y1="145.14" x2="182.87" y2="162.15"/><line x1="390.15" y1="127.29" x2="390.27" y2="127.87"/><line x1="229.37" y1="323.70" x2="224.53" y2="316.12"/><line x1="158.90" y1="145.14" x2="175.22" y2="200.18"/><line x1="204.70" y1="300.74" x2="208.93" y2="306.83"/><line x1="194.71" y1="149.36" x2="191.22" y2="151.89"/><line x1="264.68" y1="358.62" x2="265.28" y2="357.78"/><line x1="290.04" y1="179.67" x2="287.55" y2="169.49"/><line x1="122.81" y1="133.82" x2="125.74" y2="136.77"/><line x1="122.81" y1="133.82" x2="146.94" y2="140.94"/><line x1="390.27" y1="127.87" x2="390.30" y2="128.55"/><line x1="347.81" y1="132.13" x2="359.23" y2="145.65"/><line x1="303.54" y1="144.94" x2="294.36" y2="145.35"/><line x1="126.48" y1="131.23" x2="129.37" y2="131.31"/><line x1="191.22" y1="151.89" x2="125.50" y2="131.28"/><line x1="126.48" y1="131.23" x2="202.77" y2="145.67"/><line x1="158.57" y1="144.18" x2="158.78" y2="144.63"/><line x1="251.11" y1="274.84" x2="244.82" y2="274.32"/><line x1="359.23" y1="145.65" x2="357.45" y2="148.74"/><line x1="340.28" y1="132.67" x2="313.07" y2="143.27"/><line x1="229.98" y1="333.82" x2="234.17" y2="338.52"/><line x1="155.44" y1="151.70" x2="148.15" y2="179.70"/><line x1="158.78" y1="144.63" x2="188.08" y2="154.86"/><line x1="260.14" y1="361.11" x2="255.98" y2="359.81"/><line x1="234.17" y1="338.52" x2="237.77" y2="342.48"/><line x1="389.25" y1="131.24" x2="388.87" y2="131.52"/><line x1="294.88" y1="146.45" x2="294.69" y2="145.89"/><line x1="192.33" y1="281.70" x2="188.82" y2="258.74"/><line x1="158.90" y1="145.14" x2="176.43" y2="178.92"/><line x1="145.47" y1="133.03" x2="141.61" y2="132.62"/><line x1="340.28" y1="132.67" x2="353.18" y2="156.73"/><line x1="264.68" y1="358.62" x2="262.22" y2="360.67"/><line x1="122.81" y1="133.82" x2="123.13" y2="134.96"/><line x1="169.89" y1="241.50" x2="173.29" y2="248.19"/><line x1="315.15" y1="151.81" x2="314.33" y2="154.44"/><line x1="126.48" y1="131.23" x2="138.10" y2="132.19"/><line x1="232.57" y1="328.61" x2="223.25" y2="316.12"/><line x1="32.16" y1="32.09" x2="64.64" y2="32.09"/><line x1="126.48" y1="131.23" x2="212.45" y2="143.42"/><line x1="157.38" y1="148.80" x2="158.07" y2="147.68"/><line x1="385.59" y1="133.21" x2="384.88" y2="133.53"/><line x1="231.05" y1="326.36" x2="229.37" y2="323.70"/><line x1="306.64" y1="142.42" x2="281.01" y2="142.50"/><line x1="340.28" y1="132.67" x2="316.20" y2="147.03"/><line x1="298.83" y1="156.43" x2="299.54" y2="154.45"/><line x1="198.56" y1="147.29" x2="194.71" y2="149.36"/><line x1="260.14" y1="361.11" x2="217.37" y2="318.31"/><line x1="260.14" y1="361.11" x2="248.75" y2="354.00"/><line x1="294.69" y1="145.89" x2="303.54" y2="144.94"/><line x1="151.14" y1="158.90" x2="154.18" y2="153.50"/><line x1="192.33" y1="281.70" x2="158.90" y2="145.14"/><line x1="293.76" y1="151.93" x2="300.22" y2="152.64"/><line x1="192.33" y1="281.70" x2="182.33" y2="239.93"/><line x1="216.08" y1="143.13" x2="248.43" y2="142.73"/><line x1="32.00" y1="447.50" x2="64.49" y2="479.98"/></g></svg>