<svg xmlns="http://www.w3.org/2000/svg" width="512" height="512"><rect width="512" height="512" fill="#0a0f1a"/><text x="12" y="20" font-family="monospace" font-size="11" fill="#4a7fa5">FRONT (XZ)</text><g stroke="#00d4ff" stroke-width="0.6" opacity="0.85"><line x1="211.93" y1="125.61" x2="222.13" y2="126.03"/><line x1="278.65" y1="380.22" x2="250.85" y2="374.27"/><line x1="252.44" y1="263.18" x2="250.28" y2="256.76"/><line x1="208.74" y1="158.78" x2="218.56" y2="166.30"/><line x1="252.14" y1="368.19" x2="253.14" y2="362.46"/><line x1="208.74" y1="158.78" x2="223.18" y2="161.22"/><line x1="249.53" y1="158.30" x2="245.83" y2="158.87"/><line x1="243.37" y1="400.43" x2="245.40" y2="394.20"/><line x1="250.28" y1="256.76" x2="238.51" y2="254.90"/><line x1="310.35" y1="159.45" x2="309.71" y2="159.19"/><line x1="270.38" y1="118.56" x2="274.27" y2="117.80"/><line x1="245.40" y1="394.20" x2="268.08" y2="413.04"/><line x1="253.14" y1="362.46" x2="275.79" y2="358.11"/><line x1="309.71" y1="159.19" x2="309.06" y2="158.76"/><line x1="222.13" y1="126.03" x2="206.21" y2="151.71"/><line x1="275.79" y1="358.11" x2="253.86" y2="357.09"/><line x1="227.44" y1="215.56" x2="208.74" y2="158.78"/><line x1="309.84" y1="145.65" x2="264.50" y2="155.65"/><line x1="309.84" y1="145.65" x2="229.72" y2="160.42"/><line x1="227.08" y1="160.70" x2="224.90" y2="160.96"/><line x1="229.67" y1="434.14" x2="230.51" y2="434.76"/><line x1="273.84" y1="408.96" x2="274.76" y2="408.25"/><line x1="208.74" y1="158.78" x2="227.28" y2="193.04"/><line x1="208.74" y1="158.78" x2="218.97" y2="162.86"/><line x1="287.78" y1="116.11" x2="288.58" y2="116.21"/><line x1="274.76" y1="408.25" x2="275.47" y2="407.67"/><line x1="272.14" y1="338.69" x2="254.26" y2="340.58"/><line x1="313.68" y1="155.33" x2="310.35" y2="159.45"/><line x1="311.63" y1="149.44" x2="305.29" y2="153.88"/><line x1="208.74" y1="158.78" x2="295.92" y2="122.23"/><line x1="254.26" y1="340.58" x2="270.64" y2="331.56"/><line x1="200.01" y1="125.34" x2="200.48" y2="125.26"/><line x1="229.64" y1="432.29" x2="232.74" y2="434.62"/><line x1="218.31" y1="164.45" x2="218.38" y2="163.87"/><line x1="309.84" y1="145.65" x2="290.26" y2="150.80"/><line x1="309.84" y1="145.65" x2="245.83" y2="158.87"/><line x1="292.66" y1="118.30" x2="293.29" y2="118.91"/><line x1="278.18" y1="403.72" x2="278.44" y2="402.89"/><line x1="211.93" y1="125.61" x2="202.30" y2="139.96"/><line x1="265.27" y1="308.23" x2="263.14" y2="299.94"/><line x1="312.92" y1="152.66" x2="306.29" y2="155.30"/><line x1="208.74" y1="158.78" x2="219.30" y2="169.32"/><line x1="297.70" y1="150.09" x2="295.66" y2="149.98"/><line x1="202.30" y1="139.96" x2="204.06" y2="145.43"/><line x1="293.29" y1="118.91" x2="293.93" y2="119.62"/><line x1="313.68" y1="155.33" x2="312.92" y2="152.66"/><line x1="208.74" y1="158.78" x2="285.33" y2="116.14"/><line x1="199.38" y1="128.32" x2="211.93" y2="125.61"/><line x1="208.74" y1="158.78" x2="292.66" y2="118.30"/><line x1="208.74" y1="158.78" x2="307.54" y2="141.30"/><line x1="480.00" y1="32.02" x2="447.51" y2="32.02"/><line x1="222.13" y1="126.03" x2="204.06" y2="145.43"/><line x1="256.73" y1="276.94" x2="254.59" y2="269.90"/><line x1="309.84" y1="145.65" x2="299.57" y2="150.42"/><line x1="309.84" y1="145.65" x2="270.80" y2="154.45"/><line x1="309.84" y1="145.65" x2="232.83" y2="160.14"/><line x1="304.73" y1="136.39" x2="307.54" y2="141.30"/><line x1="243.60" y1="275.82" x2="241.09" y2="265.25"/><line x1="312.42" y1="159.37" x2="311.75" y2="159.50"/><line x1="229.57" y1="433.09" x2="229.64" y2="432.29"/><line x1="278.15" y1="375.04" x2="277.51" y2="369.63"/><line x1="313.68" y1="155.33" x2="310.96" y2="159.54"/><line x1="218.56" y1="166.30" x2="218.31" y2="164.45"/><line x1="208.74" y1="158.78" x2="270.38" y2="118.56"/><line x1="208.74" y1="158.78" x2="289.35" y2="116.39"/><line x1="292.05" y1="117.77" x2="292.66" y2="118.30"/><line x1="277.86" y1="404.50" x2="278.18" y2="403.72"/><line x1="208.74" y1="158.78" x2="295.25" y2="121.28"/><line x1="230.53" y1="201.88" x2="233.12" y2="234.81"/><line x1="299.57" y1="150.42" x2="297.70" y2="150.09"/><line x1="251.69" y1="316.40" x2="265.27" y2="308.23"/><line x1="308.39" y1="158.16" x2="307.71" y2="157.38"/><line x1="309.84" y1="145.65" x2="292.94" y2="150.35"/><line x1="309.84" y1="145.65" x2="249.53" y2="158.30"/><line x1="200.93" y1="135.28" x2="202.30" y2="139.96"/><line x1="230.68" y1="429.00" x2="235.38" y2="433.70"/><line x1="274.72" y1="351.96" x2="273.50" y2="345.49"/><line x1="265.27" y1="308.23" x2="250.15" y2="307.08"/><line x1="312.92" y1="152.66" x2="307.00" y2="156.42"/><line x1="220.96" y1="161.74" x2="221.92" y2="161.47"/><line x1="199.18" y1="126.03" x2="199.23" y2="125.81"/><line x1="202.30" y1="139.96" x2="222.13" y2="126.03"/><line x1="235.38" y1="433.70" x2="236.20" y2="433.23"/><line x1="254.29" y1="352.07" x2="254.43" y2="347.40"/><line x1="279.23" y1="397.33" x2="279.28" y2="395.91"/><line x1="221.92" y1="161.47" x2="223.18" y2="161.22"/><line x1="199.39" y1="125.62" x2="199.65" y2="125.47"/><line x1="282.28" y1="152.26" x2="276.98" y2="153.26"/><line x1="208.74" y1="158.78" x2="233.48" y2="125.52"/><line x1="208.74" y1="158.78" x2="283.25" y2="116.35"/><line x1="199.38" y1="128.32" x2="201.73" y2="125.19"/><line x1="301.41" y1="130.92" x2="304.73" y2="136.39"/><line x1="208.74" y1="158.78" x2="292.05" y2="117.77"/><line x1="279.28" y1="395.91" x2="279.30" y2="394.39"/><line x1="258.87" y1="284.30" x2="256.73" y2="276.94"/><line x1="208.74" y1="158.78" x2="304.73" y2="136.39"/><line x1="230.53" y1="201.88" x2="227.28" y2="193.04"/><line x1="276.98" y1="153.26" x2="270.80" y2="154.45"/><line x1="480.00" y1="32.02" x2="480.00" y2="64.50"/><line x1="232.97" y1="424.37" x2="235.09" y2="420.55"/><line x1="256.73" y1="276.94" x2="243.60" y2="275.82"/><line x1="309.84" y1="145.65" x2="301.26" y2="150.96"/><line x1="313.94" y1="157.42" x2="312.42" y2="159.37"/><line x1="309.84" y1="145.65" x2="276.98" y2="153.26"/><line x1="480.00" y1="479.91" x2="480.00" y2="447.42"/><line x1="233.48" y1="125.52" x2="236.14" y2="125.22"/><line x1="235.09" y1="420.55" x2="237.19" y2="416.24"/><line x1="250.85" y1="374.27" x2="278.15" y2="375.04"/><line x1="312.42" y1="159.37" x2="313.68" y2="155.33"/><line x1="245.83" y1="158.87" x2="242.79" y2="159.29"/><line x1="278.15" y1="375.04" x2="252.14" y2="368.19"/><line x1="238.51" y1="254.90" x2="230.53" y2="201.88"/><line x1="242.79" y1="159.29" x2="240.41" y2="159.55"/><line x1="208.74" y1="158.78" x2="266.01" y2="119.47"/><line x1="447.51" y1="479.91" x2="480.00" y2="447.42"/><line x1="208.74" y1="158.78" x2="288.58" y2="116.21"/><line x1="208.74" y1="158.78" x2="294.58" y2="120.40"/><line x1="230.53" y1="201.88" x2="235.85" y2="244.75"/><line x1="230.51" y1="434.76" x2="230.84" y2="434.79"/><line x1="277.72" y1="117.18" x2="280.71" y2="116.70"/><line x1="269.84" y1="411.83" x2="271.37" y2="410.74"/><line x1="308.39" y1="158.16" x2="312.92" y2="152.66"/><line x1="229.60" y1="433.86" x2="229.57" y2="433.51"/><line x1="249.28" y1="380.70" x2="250.85" y2="374.27"/><line x1="274.72" y1="351.96" x2="254.29" y2="352.07"/><line x1="199.18" y1="126.03" x2="199.39" y2="125.62"/><line x1="241.09" y1="265.25" x2="238.51" y2="254.90"/><line x1="304.12" y1="152.69" x2="302.77" y2="151.72"/><line x1="208.74" y1="158.78" x2="230.75" y2="125.74"/><line x1="232.74" y1="434.62" x2="233.64" y2="434.40"/><line x1="208.74" y1="158.78" x2="280.71" y2="116.70"/><line x1="253.74" y1="333.15" x2="252.89" y2="325.09"/><line x1="229.85" y1="431.34" x2="230.19" y2="430.24"/><line x1="480.00" y1="479.91" x2="447.51" y2="479.91"/><line x1="268.08" y1="413.04" x2="269.84" y2="411.83"/><line x1="263.14" y1="299.94" x2="261.01" y2="291.96"/><line x1="309.06" y1="158.76" x2="308.39" y2="158.16"/><line x1="231.31" y1="427.60" x2="232.07" y2="426.06"/><line x1="208.74" y1="158.78" x2="241.26" y2="124.45"/><line x1="248.26" y1="297.15" x2="246.03" y2="286.58"/><line x1="253.86" y1="357.09" x2="274.72" y2="351.96"/><line x1="313.87" y1="157.98" x2="313.70" y2="158.46"/><line x1="230.51" y1="434.76" x2="229.60" y2="433.86"/><line x1="247.42" y1="387.48" x2="277.49" y2="405.23"/><line x1="279.23" y1="389.90" x2="279.01" y2="385.17"/><line x1="247.42" y1="387.48" x2="279.28" y2="395.91"/><line x1="313.39" y1="158.85" x2="312.97" y2="159.15"/><line x1="227.28" y1="193.04" x2="224.54" y2="185.37"/><line x1="249.28" y1="380.70" x2="278.65" y2="380.22"/><line x1="275.47" y1="407.67" x2="276.05" y2="407.13"/><line x1="254.59" y1="269.90" x2="252.44" y2="263.18"/><line x1="309.84" y1="145.65" x2="307.54" y2="141.30"/><line x1="224.54" y1="185.37" x2="222.30" y2="178.86"/><line x1="289.35" y1="116.39" x2="290.07" y2="116.63"/><line x1="276.05" y1="407.13" x2="276.58" y2="406.55"/><line x1="241.09" y1="265.25" x2="250.28" y2="256.76"/><line x1="270.64" y1="331.56" x2="253.74" y2="333.15"/><line x1="304.12" y1="152.69" x2="309.84" y2="145.65"/><line x1="230.22" y1="434.69" x2="229.67" y2="434.14"/><line x1="232.74" y1="434.62" x2="229.85" y2="431.34"/><line x1="253.74" y1="333.15" x2="268.99" y2="324.11"/><line x1="218.38" y1="163.87" x2="218.60" y2="163.34"/><line x1="266.12" y1="414.37" x2="241.33" y2="406.18"/><line x1="201.05" y1="125.21" x2="201.73" y2="125.19"/><line x1="247.42" y1="387.48" x2="274.76" y2="408.25"/><line x1="229.85" y1="431.34" x2="233.64" y2="434.40"/><line x1="276.72" y1="363.99" x2="275.79" y2="358.11"/><line x1="247.42" y1="387.48" x2="278.68" y2="401.99"/><line x1="278.44" y1="402.89" x2="278.68" y2="401.99"/><line x1="218.60" y1="163.34" x2="218.97" y2="162.86"/><line x1="293.93" y1="119.62" x2="294.58" y2="120.40"/><line x1="278.68" y1="401.99" x2="278.87" y2="400.98"/><line x1="250.15" y1="307.08" x2="263.14" y2="299.94"/><line x1="294.74" y1="150.08" x2="292.94" y2="150.35"/><line x1="236.20" y1="433.23" x2="231.31" y2="427.60"/><line x1="263.14" y1="299.94" x2="248.26" y2="297.15"/><line x1="288.58" y1="116.21" x2="289.35" y2="116.39"/><line x1="231.80" y1="434.75" x2="232.74" y2="434.62"/><line x1="204.06" y1="145.43" x2="206.21" y2="151.71"/><line x1="231.31" y1="427.60" x2="237.00" y2="432.67"/><line x1="305.29" y1="153.88" x2="304.12" y2="152.69"/><line x1="313.87" y1="157.98" x2="313.39" y2="158.85"/><line x1="247.42" y1="387.48" x2="277.06" y2="405.91"/><line x1="279.23" y1="389.90" x2="249.28" y2="380.70"/><line x1="200.48" y1="125.26" x2="201.05" y2="125.21"/><line x1="247.42" y1="387.48" x2="279.23" y2="397.33"/><line x1="264.50" y1="155.65" x2="258.86" y2="156.69"/><line x1="252.14" y1="368.19" x2="276.72" y2="363.99"/><line x1="208.74" y1="158.78" x2="221.92" y2="161.47"/><line x1="254.59" y1="269.90" x2="241.09" y2="265.25"/><line x1="238.74" y1="124.87" x2="241.26" y2="124.45"/><line x1="295.66" y1="149.98" x2="294.74" y2="150.08"/><line x1="230.22" y1="434.69" x2="229.99" y2="434.56"/><line x1="271.37" y1="410.74" x2="272.71" y2="409.79"/><line x1="266.12" y1="414.37" x2="239.27" y2="411.46"/><line x1="247.42" y1="387.48" x2="273.84" y2="408.96"/><line x1="246.03" y1="286.58" x2="243.60" y2="275.82"/><line x1="247.42" y1="387.48" x2="278.44" y2="402.89"/><line x1="230.84" y1="434.79" x2="231.80" y2="434.75"/><line x1="273.50" y1="345.49" x2="272.14" y2="338.69"/><line x1="208.74" y1="158.78" x2="218.60" y2="163.34"/><line x1="229.57" y1="433.51" x2="229.57" y2="433.09"/><line x1="208.74" y1="158.78" x2="309.84" y2="145.65"/><line x1="279.30" y1="394.39" x2="279.23" y2="389.90"/><line x1="199.65" y1="125.47" x2="200.01" y2="125.34"/><line x1="245.40" y1="394.20" x2="247.42" y2="387.48"/><line x1="480.00" y1="64.50" x2="447.51" y2="32.02"/><line x1="266.12" y1="414.37" x2="268.08" y2="413.04"/><line x1="237.19" y1="416.24" x2="239.27" y2="411.46"/><line x1="247.42" y1="387.48" x2="276.58" y2="406.55"/><line x1="252.89" y1="325.09" x2="251.69" y2="316.40"/><line x1="211.93" y1="125.61" x2="200.93" y2="135.28"/><line x1="230.19" y1="430.24" x2="230.68" y2="429.00"/><line x1="208.74" y1="158.78" x2="220.55" y2="173.51"/><line x1="252.14" y1="368.19" x2="277.51" y2="369.63"/><line x1="208.74" y1="158.78" x2="220.96" y2="161.74"/><line x1="311.75" y1="159.50" x2="310.96" y2="159.54"/><line x1="313.68" y1="155.33" x2="308.39" y2="158.16"/><line x1="236.39" y1="159.85" x2="232.83" y2="160.14"/><line x1="271.37" y1="410.74" x2="247.42" y2="387.48"/><line x1="266.12" y1="414.37" x2="237.19" y2="416.24"/><line x1="283.25" y1="116.35" x2="285.33" y2="116.14"/><line x1="270.80" y1="154.45" x2="264.50" y2="155.65"/><line x1="309.84" y1="145.65" x2="236.39" y2="159.85"/><line x1="307.71" y1="157.38" x2="307.00" y2="156.42"/><line x1="243.60" y1="275.82" x2="254.59" y2="269.90"/><line x1="230.84" y1="434.79" x2="229.57" y2="433.51"/><line x1="208.74" y1="158.78" x2="218.38" y2="163.87"/><line x1="236.14" y1="125.22" x2="238.74" y2="124.87"/><line x1="312.97" y1="159.15" x2="312.42" y2="159.37"/><line x1="313.68" y1="155.33" x2="311.75" y2="159.50"/><line x1="220.55" y1="173.51" x2="219.30" y2="169.32"/><line x1="245.40" y1="394.20" x2="271.37" y2="410.74"/><line x1="233.64" y1="434.40" x2="234.52" y2="434.10"/><line x1="290.77" y1="116.94" x2="291.42" y2="117.32"/><line x1="240.41" y1="159.55" x2="236.39" y2="159.85"/><line x1="302.77" y1="151.72" x2="301.26" y2="150.96"/><line x1="235.85" y1="244.75" x2="233.12" y2="234.81"/><line x1="309.84" y1="145.65" x2="294.74" y2="150.08"/><line x1="252.89" y1="325.09" x2="267.20" y2="316.33"/><line x1="309.84" y1="145.65" x2="253.87" y2="157.57"/><line x1="280.71" y1="116.70" x2="283.25" y2="116.35"/><line x1="309.84" y1="145.65" x2="224.90" y2="160.96"/><line x1="211.93" y1="125.61" x2="199.96" y2="131.40"/><line x1="312.92" y1="152.66" x2="307.71" y2="157.38"/><line x1="208.74" y1="158.78" x2="222.30" y2="178.86"/><line x1="208.74" y1="158.78" x2="220.15" y2="162.06"/><line x1="219.49" y1="162.43" x2="220.15" y2="162.06"/><line x1="254.29" y1="352.07" x2="273.50" y2="345.49"/><line x1="32.16" y1="32.09" x2="32.16" y2="64.58"/><line x1="295.25" y1="121.28" x2="295.92" y2="122.23"/><line x1="313.68" y1="155.33" x2="309.06" y2="158.76"/><line x1="199.39" y1="125.62" x2="199.23" y2="125.81"/><line x1="261.01" y1="291.96" x2="258.87" y2="284.30"/><line x1="311.63" y1="149.44" x2="309.84" y2="145.65"/><line x1="199.38" y1="128.32" x2="201.05" y2="125.21"/><line x1="290.26" y1="150.80" x2="286.71" y2="151.44"/><line x1="208.74" y1="158.78" x2="291.42" y2="117.32"/><line x1="222.30" y1="178.86" x2="220.55" y2="173.51"/><line x1="208.74" y1="158.78" x2="301.41" y2="130.92"/><line x1="232.07" y1="426.06" x2="232.97" y2="424.37"/><line x1="230.53" y1="201.88" x2="208.74" y2="158.78"/><line x1="290.07" y1="116.63" x2="290.77" y2="116.94"/><line x1="276.58" y1="406.55" x2="277.06" y2="405.91"/><line x1="268.99" y1="324.11" x2="267.20" y2="316.33"/><line x1="309.84" y1="145.65" x2="302.77" y2="151.72"/><line x1="309.84" y1="145.65" x2="282.28" y2="152.26"/><line x1="309.84" y1="145.65" x2="240.41" y2="159.55"/><line x1="208.74" y1="158.78" x2="287.78" y2="116.11"/><line x1="208.74" y1="158.78" x2="293.93" y2="119.62"/><line x1="233.64" y1="434.40" x2="230.19" y2="430.24"/><line x1="253.14" y1="362.46" x2="253.86" y2="357.09"/><line x1="237.00" y1="432.67" x2="266.12" y2="414.37"/><line x1="309.84" y1="145.65" x2="295.66" y2="149.98"/><line x1="229.60" y1="433.86" x2="230.84" y2="434.79"/><line x1="309.84" y1="145.65" x2="258.86" y2="156.69"/><line x1="309.84" y1="145.65" x2="227.08" y2="160.70"/><line x1="32.00" y1="479.98" x2="64.49" y2="479.98"/><line x1="306.29" y1="155.30" x2="305.29" y2="153.88"/><line x1="272.14" y1="338.69" x2="270.64" y2="331.56"/><line x1="313.68" y1="155.33" x2="309.71" y2="159.19"/><line x1="208.74" y1="158.78" x2="227.94" y2="125.91"/><line x1="208.74" y1="158.78" x2="277.72" y2="117.18"/><line x1="199.38" y1="128.32" x2="200.48" y2="125.26"/><line x1="208.74" y1="158.78" x2="290.77" y2="116.94"/><line x1="208.74" y1="158.78" x2="296.62" y2="123.29"/><line x1="230.53" y1="201.88" x2="227.44" y2="215.56"/><line x1="268.99" y1="324.11" x2="252.89" y2="325.09"/><line x1="201.73" y1="125.19" x2="211.93" y2="125.61"/><line x1="309.84" y1="145.65" x2="286.71" y2="151.44"/><line x1="309.84" y1="145.65" x2="242.79" y2="159.29"/><line x1="230.68" y1="429.00" x2="231.31" y2="427.60"/><line x1="218.97" y1="162.86" x2="219.49" y2="162.43"/><line x1="312.92" y1="152.66" x2="311.63" y2="149.44"/><line x1="199.18" y1="126.03" x2="199.38" y2="128.32"/><line x1="294.58" y1="120.40" x2="295.25" y2="121.28"/><line x1="278.87" y1="400.98" x2="279.02" y2="399.87"/><line x1="266.01" y1="119.47" x2="270.38" y2="118.56"/><line x1="292.94" y1="150.35" x2="290.26" y2="150.80"/><line x1="208.74" y1="158.78" x2="238.74" y2="124.87"/><line x1="208.74" y1="158.78" x2="286.95" y2="116.08"/><line x1="248.26" y1="297.15" x2="261.01" y2="291.96"/><line x1="199.38" y1="128.32" x2="199.96" y2="131.40"/><line x1="208.74" y1="158.78" x2="293.29" y2="118.91"/><line x1="206.21" y1="151.71" x2="225.07" y2="126.00"/><line x1="237.00" y1="432.67" x2="232.07" y2="426.06"/><line x1="229.72" y1="160.42" x2="227.08" y2="160.70"/><line x1="313.39" y1="158.85" x2="313.70" y2="158.46"/><line x1="309.84" y1="145.65" x2="297.70" y2="150.09"/><line x1="249.28" y1="380.70" x2="279.01" y2="385.17"/><line x1="286.95" y1="116.08" x2="287.78" y2="116.11"/><line x1="258.86" y1="156.69" x2="253.87" y2="157.57"/><line x1="32.00" y1="479.98" x2="32.00" y2="447.50"/><line x1="306.29" y1="155.30" x2="311.63" y2="149.44"/><line x1="241.09" y1="265.25" x2="252.44" y2="263.18"/><line x1="241.26" y1="124.45" x2="266.01" y2="119.47"/><line x1="208.74" y1="158.78" x2="225.07" y2="126.00"/><line x1="241.33" y1="406.18" x2="243.37" y2="400.43"/><line x1="208.74" y1="158.78" x2="274.27" y2="117.80"/><line x1="199.38" y1="128.32" x2="200.01" y2="125.34"/><line x1="208.74" y1="158.78" x2="290.07" y2="116.63"/><line x1="310.96" y1="159.54" x2="310.35" y2="159.45"/><line x1="230.53" y1="201.88" x2="230.32" y2="225.08"/><line x1="229.80" y1="434.37" x2="229.67" y2="434.14"/><line x1="276.72" y1="363.99" x2="253.14" y2="362.46"/><line x1="247.42" y1="387.48" x2="249.28" y2="380.70"/><line x1="232.83" y1="160.14" x2="229.72" y2="160.42"/><line x1="251.69" y1="316.40" x2="250.15" y2="307.08"/><line x1="230.68" y1="429.00" x2="236.20" y2="433.23"/><line x1="285.33" y1="116.14" x2="286.95" y2="116.08"/><line x1="199.18" y1="126.03" x2="199.65" y2="125.47"/><line x1="254.43" y1="347.40" x2="254.26" y2="340.58"/><line x1="231.80" y1="434.75" x2="229.64" y2="432.29"/><line x1="208.74" y1="158.78" x2="236.14" y2="125.22"/><line x1="247.42" y1="387.48" x2="279.14" y2="398.65"/><line x1="313.94" y1="157.42" x2="313.68" y2="155.33"/><line x1="239.27" y1="411.46" x2="241.33" y2="406.18"/><line x1="267.20" y1="316.33" x2="265.27" y2="308.23"/><line x1="250.85" y1="374.27" x2="252.14" y2="368.19"/><line x1="234.52" y1="434.10" x2="235.38" y2="433.70"/><line x1="277.51" y1="369.63" x2="276.72" y2="363.99"/><line x1="238.51" y1="254.90" x2="235.85" y2="244.75"/><line x1="230.22" y1="434.69" x2="229.80" y2="434.37"/><line x1="208.74" y1="158.78" x2="206.21" y2="151.71"/><line x1="233.12" y1="234.81" x2="230.32" y2="225.08"/><line x1="313.87" y1="157.98" x2="313.94" y2="157.42"/><line x1="229.80" y1="434.37" x2="229.99" y2="434.56"/><line x1="247.42" y1="387.48" x2="272.71" y2="409.79"/><line x1="246.03" y1="286.58" x2="256.73" y2="276.94"/><line x1="247.42" y1="387.48" x2="278.18" y2="403.72"/><line x1="230.32" y1="225.08" x2="227.44" y2="215.56"/><line x1="247.42" y1="387.48" x2="279.23" y2="389.90"/><line x1="272.71" y1="409.79" x2="273.84" y2="408.96"/><line x1="223.18" y1="161.22" x2="224.90" y2="160.96"/><line x1="273.50" y1="345.49" x2="254.43" y2="347.40"/><line x1="307.00" y1="156.42" x2="306.29" y2="155.30"/><line x1="229.57" y1="433.51" x2="231.80" y2="434.75"/><line x1="254.43" y1="347.40" x2="272.14" y2="338.69"/><line x1="199.65" y1="125.47" x2="199.38" y2="128.32"/><line x1="231.80" y1="434.75" x2="229.57" y2="433.09"/><line x1="277.06" y1="405.91" x2="277.49" y2="405.23"/><line x1="219.30" y1="169.32" x2="218.56" y2="166.30"/><line x1="291.42" y1="117.32" x2="292.05" y2="117.77"/><line x1="266.12" y1="414.37" x2="245.40" y2="394.20"/><line x1="277.49" y1="405.23" x2="277.86" y2="404.50"/><line x1="247.42" y1="387.48" x2="276.05" y2="407.13"/><line x1="247.42" y1="387.48" x2="279.02" y2="399.87"/><line x1="301.26" y1="150.96" x2="299.57" y2="150.42"/><line x1="230.19" y1="430.24" x2="234.52" y2="434.10"/><line x1="267.20" y1="316.33" x2="251.69" y2="316.40"/><line x1="199.96" y1="131.40" x2="200.93" y2="135.28"/><line x1="234.52" y1="434.10" x2="230.68" y2="429.00"/><line x1="220.15" y1="162.06" x2="220.96" y2="161.74"/><line x1="295.92" y1="122.23" x2="296.62" y2="123.29"/><line x1="279.14" y1="398.65" x2="279.23" y2="397.33"/><line x1="286.71" y1="151.44" x2="282.28" y2="152.26"/><line x1="253.86" y1="357.09" x2="254.29" y2="352.07"/><line x1="64.64" y1="32.09" x2="32.16" y2="64.58"/><line x1="313.87" y1="157.98" x2="312.97" y2="159.15"/><line x1="266.12" y1="414.37" x2="235.09" y2="420.55"/><line x1="296.62" y1="123.29" x2="301.41" y2="130.92"/><line x1="246.03" y1="286.58" x2="258.87" y2="284.30"/><line x1="247.42" y1="387.48" x2="277.86" y2="404.50"/><line x1="247.42" y1="387.48" x2="279.30" y2="394.39"/><line x1="227.94" y1="125.91" x2="230.75" y2="125.74"/><line x1="278.65" y1="380.22" x2="278.15" y2="375.04"/><line x1="208.74" y1="158.78" x2="218.31" y2="164.45"/><line x1="312.97" y1="159.15" x2="313.94" y2="157.42"/><line x1="230.75" y1="125.74" x2="233.48" y2="125.52"/><line x1="250.28" y1="256.76" x2="230.53" y2="201.88"/><line x1="270.64" y1="331.56" x2="268.99" y2="324.11"/><line x1="245.40" y1="394.20" x2="269.84" y2="411.83"/><line x1="230.22" y1="434.69" x2="230.51" y2="434.76"/><line x1="222.13" y1="126.03" x2="225.07" y2="126.00"/><line x1="266.12" y1="414.37" x2="243.37" y2="400.43"/><line x1="275.79" y1="358.11" x2="274.72" y2="351.96"/><line x1="247.42" y1="387.48" x2="275.47" y2="407.67"/><line x1="247.42" y1="387.48" x2="278.87" y2="400.98"/><line x1="223.18" y1="161.22" x2="309.84" y2="145.65"/><line x1="229.67" y1="434.14" x2="229.60" y2="433.86"/><line x1="274.27" y1="117.80" x2="277.72" y2="117.18"/><line x1="279.02" y1="399.87" x2="279.14" y2="398.65"/><line x1="208.74" y1="158.78" x2="224.54" y2="185.37"/><line x1="208.74" y1="158.78" x2="219.49" y2="162.43"/><line x1="250.15" y1="307.08" x2="248.26" y2="297.15"/><line x1="32.16" y1="32.09" x2="64.64" y2="32.09"/><line x1="261.01" y1="291.96" x2="246.03" y2="286.58"/><line x1="236.20" y1="433.23" x2="237.00" y2="432.67"/><line x1="311.63" y1="149.44" x2="304.12" y2="152.69"/><line x1="225.07" y1="126.00" x2="227.94" y2="125.91"/><line x1="232.07" y1="426.06" x2="266.12" y2="414.37"/><line x1="254.26" y1="340.58" x2="253.74" y2="333.15"/><line x1="229.64" y1="432.29" x2="229.85" y2="431.34"/><line x1="266.12" y1="414.37" x2="232.97" y2="424.37"/><line x1="279.01" y1="385.17" x2="278.65" y2="380.22"/><line x1="253.87" y1="157.57" x2="249.53" y2="158.30"/><line x1="32.00" y1="447.50" x2="64.49" y2="479.98"/></g></svg>