<svg xmlns="http://www.w3.org/2000/svg" width="512" height="512"><rect width="512" height="512" fill="#0a0f1a"/><text x="12" y="20" font-family="monospace" font-size="11" fill="#4a7fa5">FRONT (XZ)</text><g stroke="#00d4ff" stroke-width="0.6" opacity="0.85"><line x1="214.48" y1="355.34" x2="214.28" y2="354.56"/><line x1="223.07" y1="361.79" x2="225.00" y2="362.85"/><line x1="245.42" y1="398.67" x2="245.99" y2="398.77"/><line x1="214.03" y1="249.98" x2="249.95" y2="395.53"/><line x1="241.89" y1="135.16" x2="253.07" y2="149.41"/><line x1="201.07" y1="230.29" x2="188.34" y2="245.34"/><line x1="193.63" y1="248.28" x2="197.46" y2="247.96"/><line x1="201.07" y1="230.29" x2="197.46" y2="247.96"/><line x1="245.99" y1="398.77" x2="246.63" y2="398.80"/><line x1="207.87" y1="231.36" x2="262.19" y2="231.70"/><line x1="214.03" y1="225.63" x2="250.02" y2="166.10"/><line x1="299.83" y1="229.44" x2="298.93" y2="229.83"/><line x1="197.46" y1="247.96" x2="204.36" y2="247.33"/><line x1="232.76" y1="368.97" x2="233.94" y2="370.32"/><line x1="250.02" y1="166.10" x2="214.03" y2="125.30"/><line x1="266.48" y1="166.84" x2="282.09" y2="187.43"/><line x1="251.29" y1="163.54" x2="215.04" y2="115.19"/><line x1="311.94" y1="224.11" x2="298.64" y2="221.73"/><line x1="311.94" y1="224.11" x2="323.10" y2="237.46"/><line x1="297.84" y1="230.19" x2="296.54" y2="230.51"/><line x1="233.94" y1="370.32" x2="235.00" y2="371.63"/><line x1="249.74" y1="396.53" x2="249.95" y2="395.53"/><line x1="255.85" y1="166.74" x2="257.12" y2="168.15"/><line x1="188.58" y1="230.74" x2="191.76" y2="229.25"/><line x1="206.93" y1="231.16" x2="207.57" y2="231.27"/><line x1="296.54" y1="230.51" x2="294.62" y2="230.85"/><line x1="249.95" y1="395.53" x2="250.02" y2="394.35"/><line x1="214.03" y1="249.98" x2="247.53" y2="398.71"/><line x1="323.10" y1="237.46" x2="300.53" y2="229.01"/><line x1="325.59" y1="242.03" x2="325.64" y2="242.55"/><line x1="201.07" y1="230.29" x2="190.13" y2="247.55"/><line x1="275.51" y1="246.58" x2="294.62" y2="230.85"/><line x1="207.57" y1="231.27" x2="207.87" y2="231.36"/><line x1="238.48" y1="377.67" x2="238.88" y2="378.87"/><line x1="250.95" y1="163.60" x2="251.29" y2="163.54"/><line x1="238.88" y1="378.87" x2="239.28" y2="380.22"/><line x1="266.48" y1="166.84" x2="254.69" y2="165.59"/><line x1="311.94" y1="224.11" x2="293.40" y2="214.52"/><line x1="195.55" y1="229.57" x2="187.47" y2="237.48"/><line x1="311.94" y1="224.11" x2="300.74" y2="225.24"/><line x1="211.10" y1="247.25" x2="209.81" y2="247.07"/><line x1="324.79" y1="246.03" x2="324.47" y2="246.37"/><line x1="214.48" y1="355.34" x2="216.43" y2="358.18"/><line x1="214.03" y1="249.98" x2="244.43" y2="398.28"/><line x1="215.04" y1="115.19" x2="215.41" y2="113.95"/><line x1="214.03" y1="249.98" x2="249.74" y2="396.53"/><line x1="201.07" y1="230.29" x2="188.07" y2="244.45"/><line x1="324.47" y1="246.37" x2="324.09" y2="246.65"/><line x1="201.07" y1="230.29" x2="193.63" y2="248.28"/><line x1="275.51" y1="246.58" x2="279.09" y2="231.68"/><line x1="255.43" y1="231.08" x2="253.07" y2="230.53"/><line x1="207.87" y1="231.36" x2="266.59" y2="231.78"/><line x1="218.83" y1="359.72" x2="219.86" y2="360.26"/><line x1="266.48" y1="166.84" x2="274.45" y2="190.11"/><line x1="480.00" y1="32.02" x2="447.51" y2="32.02"/><line x1="299.87" y1="223.65" x2="300.35" y2="224.48"/><line x1="215.86" y1="357.68" x2="214.73" y2="356.05"/><line x1="311.94" y1="224.11" x2="297.84" y2="220.58"/><line x1="311.94" y1="224.11" x2="301.43" y2="227.52"/><line x1="301.43" y1="227.52" x2="301.32" y2="228.06"/><line x1="214.03" y1="249.98" x2="233.94" y2="370.32"/><line x1="320.12" y1="247.43" x2="319.54" y2="247.42"/><line x1="214.03" y1="249.98" x2="239.68" y2="381.73"/><line x1="214.03" y1="249.98" x2="242.80" y2="395.90"/><line x1="214.03" y1="249.98" x2="246.63" y2="398.80"/><line x1="323.10" y1="237.46" x2="301.03" y2="228.55"/><line x1="214.03" y1="249.98" x2="213.91" y2="249.19"/><line x1="194.10" y1="229.42" x2="195.55" y2="229.57"/><line x1="201.07" y1="230.29" x2="189.53" y2="247.14"/><line x1="208.29" y1="247.00" x2="209.81" y2="247.07"/><line x1="213.53" y1="228.43" x2="213.90" y2="227.15"/><line x1="212.15" y1="247.55" x2="211.10" y2="247.25"/><line x1="251.96" y1="163.67" x2="252.75" y2="164.05"/><line x1="207.87" y1="231.36" x2="209.50" y2="231.24"/><line x1="325.05" y1="245.62" x2="324.79" y2="246.03"/><line x1="214.73" y1="356.05" x2="214.48" y2="355.34"/><line x1="266.48" y1="166.84" x2="253.66" y2="164.70"/><line x1="214.73" y1="116.57" x2="215.04" y2="115.19"/><line x1="298.64" y1="221.73" x2="299.31" y2="222.74"/><line x1="214.03" y1="249.98" x2="226.80" y2="363.96"/><line x1="187.69" y1="242.17" x2="201.07" y2="230.29"/><line x1="214.03" y1="249.98" x2="237.45" y2="375.36"/><line x1="250.02" y1="247.00" x2="212.97" y2="247.98"/><line x1="241.64" y1="390.97" x2="241.34" y2="389.25"/><line x1="209.50" y1="231.24" x2="255.43" y2="231.08"/><line x1="214.03" y1="249.98" x2="244.01" y2="397.99"/><line x1="214.03" y1="249.98" x2="249.40" y2="397.35"/><line x1="299.31" y1="222.74" x2="299.87" y2="223.65"/><line x1="201.07" y1="230.29" x2="187.86" y2="243.40"/><line x1="214.06" y1="352.72" x2="218.83" y2="359.72"/><line x1="275.51" y1="246.58" x2="284.16" y2="231.55"/><line x1="274.45" y1="190.11" x2="291.98" y2="212.65"/><line x1="217.96" y1="110.16" x2="218.62" y2="109.90"/><line x1="320.98" y1="247.41" x2="320.12" y2="247.43"/><line x1="218.83" y1="359.72" x2="214.03" y2="351.66"/><line x1="243.35" y1="397.21" x2="243.65" y2="397.63"/><line x1="218.62" y1="109.90" x2="219.32" y2="109.81"/><line x1="480.00" y1="32.02" x2="480.00" y2="64.50"/><line x1="215.86" y1="357.68" x2="215.41" y2="357.19"/><line x1="189.53" y1="247.14" x2="190.13" y2="247.55"/><line x1="266.59" y1="231.78" x2="273.23" y2="231.75"/><line x1="243.65" y1="397.63" x2="244.01" y2="397.99"/><line x1="250.36" y1="228.97" x2="212.90" y2="229.48"/><line x1="480.00" y1="479.91" x2="480.00" y2="447.42"/><line x1="301.43" y1="227.52" x2="323.10" y2="237.46"/><line x1="190.13" y1="247.55" x2="190.84" y2="247.87"/><line x1="214.03" y1="249.98" x2="232.76" y2="368.97"/><line x1="225.00" y1="362.85" x2="226.80" y2="363.96"/><line x1="214.03" y1="249.98" x2="239.28" y2="380.22"/><line x1="250.02" y1="247.00" x2="266.59" y2="231.78"/><line x1="214.03" y1="249.98" x2="240.50" y2="385.19"/><line x1="212.90" y1="229.48" x2="213.53" y2="228.43"/><line x1="253.07" y1="149.41" x2="251.96" y2="163.67"/><line x1="204.36" y1="247.33" x2="204.66" y2="230.81"/><line x1="315.91" y1="247.20" x2="315.02" y2="247.11"/><line x1="226.80" y1="363.96" x2="228.48" y2="365.13"/><line x1="246.63" y1="398.80" x2="247.53" y2="398.71"/><line x1="251.96" y1="163.67" x2="266.48" y2="166.84"/><line x1="447.51" y1="479.91" x2="480.00" y2="447.42"/><line x1="247.53" y1="398.71" x2="248.29" y2="398.44"/><line x1="191.76" y1="229.25" x2="187.75" y2="233.44"/><line x1="323.77" y1="238.40" x2="324.34" y2="239.27"/><line x1="203.03" y1="230.57" x2="204.66" y2="230.81"/><line x1="240.09" y1="383.38" x2="240.50" y2="385.19"/><line x1="250.05" y1="165.42" x2="250.13" y2="164.85"/><line x1="298.93" y1="229.83" x2="318.24" y2="247.37"/><line x1="214.03" y1="249.98" x2="225.00" y2="362.85"/><line x1="294.62" y1="230.85" x2="291.92" y2="231.13"/><line x1="235.94" y1="372.91" x2="236.76" y2="374.15"/><line x1="214.03" y1="249.98" x2="236.76" y2="374.15"/><line x1="250.02" y1="247.00" x2="213.56" y2="248.52"/><line x1="258.52" y1="169.82" x2="274.45" y2="190.11"/><line x1="214.03" y1="125.30" x2="250.95" y2="163.60"/><line x1="187.47" y1="237.48" x2="187.49" y2="239.22"/><line x1="197.20" y1="229.77" x2="199.04" y2="230.01"/><line x1="298.93" y1="229.83" x2="325.43" y2="244.61"/><line x1="298.93" y1="229.83" x2="321.77" y2="247.35"/><line x1="480.00" y1="479.91" x2="447.51" y2="479.91"/><line x1="298.93" y1="229.83" x2="315.02" y2="247.11"/><line x1="214.28" y1="354.56" x2="214.14" y2="353.68"/><line x1="214.03" y1="249.98" x2="231.46" y2="367.63"/><line x1="250.02" y1="247.00" x2="209.81" y2="247.07"/><line x1="209.50" y1="231.24" x2="210.89" y2="230.89"/><line x1="204.36" y1="247.33" x2="203.03" y2="230.57"/><line x1="214.03" y1="125.30" x2="250.05" y2="165.42"/><line x1="235.00" y1="371.63" x2="235.94" y2="372.91"/><line x1="253.07" y1="230.53" x2="251.37" y2="229.83"/><line x1="251.29" y1="163.54" x2="251.96" y2="163.67"/><line x1="191.76" y1="229.25" x2="188.10" y2="231.93"/><line x1="219.86" y1="360.26" x2="221.01" y2="360.80"/><line x1="210.89" y1="230.89" x2="212.02" y2="230.31"/><line x1="250.02" y1="394.35" x2="250.02" y2="247.00"/><line x1="298.93" y1="229.83" x2="325.43" y2="241.45"/><line x1="298.93" y1="229.83" x2="324.47" y2="246.37"/><line x1="298.93" y1="229.83" x2="318.92" y2="247.40"/><line x1="214.03" y1="249.98" x2="223.07" y2="361.79"/><line x1="207.87" y1="231.36" x2="207.89" y2="231.34"/><line x1="298.93" y1="229.83" x2="297.84" y2="230.19"/><line x1="250.02" y1="227.96" x2="250.02" y2="166.10"/><line x1="250.02" y1="247.00" x2="213.91" y2="249.19"/><line x1="325.62" y1="243.31" x2="325.54" y2="243.99"/><line x1="239.28" y1="380.22" x2="239.68" y2="381.73"/><line x1="214.06" y1="123.30" x2="214.14" y2="121.43"/><line x1="189.21" y1="229.90" x2="188.58" y2="230.74"/><line x1="214.03" y1="125.30" x2="250.67" y2="163.75"/><line x1="187.47" y1="237.48" x2="197.20" y2="229.77"/><line x1="239.68" y1="381.73" x2="240.09" y2="383.38"/><line x1="251.29" y1="163.54" x2="221.63" y2="111.40"/><line x1="190.87" y1="229.23" x2="191.76" y2="229.25"/><line x1="294.70" y1="216.24" x2="295.87" y2="217.83"/><line x1="197.20" y1="229.77" x2="187.49" y2="239.22"/><line x1="216.43" y1="358.18" x2="214.28" y2="354.56"/><line x1="266.59" y1="231.78" x2="262.19" y2="231.70"/><line x1="298.93" y1="229.83" x2="325.54" y2="243.99"/><line x1="298.93" y1="229.83" x2="322.47" y2="247.24"/><line x1="208.29" y1="247.00" x2="207.87" y2="231.36"/><line x1="324.09" y1="246.65" x2="323.64" y2="246.89"/><line x1="298.93" y1="229.83" x2="315.91" y2="247.20"/><line x1="214.28" y1="354.56" x2="217.11" y2="358.68"/><line x1="257.12" y1="168.15" x2="258.52" y2="169.82"/><line x1="241.34" y1="389.25" x2="240.92" y2="387.14"/><line x1="215.82" y1="112.86" x2="216.29" y2="111.93"/><line x1="187.86" y1="243.40" x2="188.07" y2="244.45"/><line x1="214.03" y1="351.66" x2="214.03" y2="249.98"/><line x1="240.92" y1="387.14" x2="240.50" y2="385.19"/><line x1="325.64" y1="242.55" x2="325.62" y2="243.31"/><line x1="291.98" y1="212.65" x2="293.40" y2="214.52"/><line x1="187.54" y1="235.29" x2="187.47" y2="237.48"/><line x1="300.35" y1="224.48" x2="300.74" y2="225.24"/><line x1="188.07" y1="244.45" x2="188.34" y2="245.34"/><line x1="251.29" y1="163.54" x2="214.06" y2="123.30"/><line x1="251.29" y1="163.54" x2="216.80" y2="111.17"/><line x1="253.07" y1="230.53" x2="210.89" y2="230.89"/><line x1="251.29" y1="163.54" x2="253.07" y2="149.41"/><line x1="319.54" y1="247.42" x2="318.92" y2="247.40"/><line x1="242.52" y1="394.97" x2="241.64" y2="390.97"/><line x1="219.86" y1="360.26" x2="214.03" y2="249.98"/><line x1="293.40" y1="214.52" x2="294.70" y2="216.24"/><line x1="298.93" y1="229.83" x2="325.17" y2="240.79"/><line x1="221.63" y1="111.40" x2="226.17" y2="116.15"/><line x1="199.04" y1="230.01" x2="201.07" y2="230.29"/><line x1="298.93" y1="229.83" x2="324.79" y2="246.03"/><line x1="298.93" y1="229.83" x2="319.54" y2="247.42"/><line x1="258.47" y1="231.47" x2="255.43" y2="231.08"/><line x1="244.43" y1="398.28" x2="244.89" y2="398.51"/><line x1="250.02" y1="227.96" x2="214.03" y2="225.63"/><line x1="301.32" y1="228.06" x2="301.03" y2="228.55"/><line x1="215.41" y1="113.95" x2="215.82" y2="112.86"/><line x1="273.23" y1="231.75" x2="275.51" y2="246.58"/><line x1="189.21" y1="229.90" x2="189.97" y2="229.40"/><line x1="308.65" y1="246.58" x2="303.23" y2="246.27"/><line x1="251.29" y1="163.54" x2="214.73" y2="116.57"/><line x1="251.29" y1="163.54" x2="219.32" y2="109.81"/><line x1="205.96" y1="231.01" x2="206.93" y2="231.16"/><line x1="242.52" y1="394.97" x2="242.80" y2="395.90"/><line x1="298.93" y1="229.83" x2="325.62" y2="243.31"/><line x1="187.75" y1="233.44" x2="187.54" y2="235.29"/><line x1="282.09" y1="187.43" x2="296.01" y2="205.13"/><line x1="192.83" y1="229.31" x2="194.10" y2="229.42"/><line x1="214.03" y1="351.66" x2="219.86" y2="360.26"/><line x1="291.98" y1="212.65" x2="311.94" y2="224.11"/><line x1="480.00" y1="64.50" x2="447.51" y2="32.02"/><line x1="215.04" y1="356.66" x2="214.73" y2="356.05"/><line x1="251.29" y1="163.54" x2="216.29" y2="111.93"/><line x1="311.94" y1="224.11" x2="300.35" y2="224.48"/><line x1="251.29" y1="163.54" x2="241.89" y2="135.16"/><line x1="190.84" y1="247.87" x2="191.67" y2="248.10"/><line x1="242.52" y1="394.97" x2="242.23" y2="393.83"/><line x1="298.93" y1="229.83" x2="324.81" y2="240.07"/><line x1="199.04" y1="230.01" x2="187.69" y2="242.17"/><line x1="228.48" y1="365.13" x2="230.03" y2="366.35"/><line x1="258.47" y1="231.47" x2="209.50" y2="231.24"/><line x1="323.10" y1="237.46" x2="323.77" y2="238.40"/><line x1="250.02" y1="227.96" x2="213.90" y2="227.15"/><line x1="201.07" y1="230.29" x2="192.59" y2="248.23"/><line x1="252.75" y1="164.05" x2="253.66" y2="164.70"/><line x1="204.66" y1="230.81" x2="205.96" y2="231.01"/><line x1="266.48" y1="166.84" x2="258.52" y2="169.82"/><line x1="251.29" y1="163.54" x2="214.48" y2="118.06"/><line x1="311.94" y1="224.11" x2="296.92" y2="219.27"/><line x1="311.94" y1="224.11" x2="301.39" y2="227.06"/><line x1="324.81" y1="240.07" x2="325.17" y2="240.79"/><line x1="219.32" y1="109.81" x2="221.63" y2="111.40"/><line x1="250.26" y1="164.38" x2="250.44" y2="164.01"/><line x1="244.01" y1="397.99" x2="244.43" y2="398.28"/><line x1="187.75" y1="233.44" x2="192.83" y2="229.31"/><line x1="288.44" y1="231.36" x2="284.16" y2="231.55"/><line x1="214.03" y1="249.98" x2="245.99" y2="398.77"/><line x1="323.10" y1="237.46" x2="301.32" y2="228.06"/><line x1="212.02" y1="230.31" x2="212.90" y2="229.48"/><line x1="214.03" y1="249.98" x2="250.02" y2="247.00"/><line x1="201.07" y1="230.29" x2="189.03" y2="246.64"/><line x1="282.09" y1="187.43" x2="291.98" y2="212.65"/><line x1="201.07" y1="230.29" x2="203.03" y2="230.57"/><line x1="213.53" y1="228.43" x2="250.02" y2="227.96"/><line x1="213.56" y1="248.52" x2="212.97" y2="247.98"/><line x1="315.02" y1="247.11" x2="308.65" y2="246.58"/><line x1="296.97" y1="246.16" x2="294.62" y2="230.85"/><line x1="187.49" y1="239.22" x2="187.57" y2="240.78"/><line x1="325.43" y1="244.61" x2="325.26" y2="245.15"/><line x1="266.48" y1="166.84" x2="252.75" y2="164.05"/><line x1="214.28" y1="119.68" x2="214.48" y2="118.06"/><line x1="311.94" y1="224.11" x2="299.87" y2="223.65"/><line x1="248.29" y1="398.44" x2="248.91" y2="397.98"/><line x1="242.52" y1="394.97" x2="241.94" y2="392.49"/><line x1="324.34" y1="239.27" x2="324.81" y2="240.07"/><line x1="296.92" y1="219.27" x2="297.84" y2="220.58"/><line x1="250.13" y1="164.85" x2="250.26" y2="164.38"/><line x1="214.14" y1="353.68" x2="214.06" y2="352.72"/><line x1="214.03" y1="249.98" x2="243.65" y2="397.63"/><line x1="214.03" y1="249.98" x2="248.91" y2="397.98"/><line x1="323.10" y1="237.46" x2="298.93" y2="229.83"/><line x1="291.92" y1="231.13" x2="288.44" y2="231.36"/><line x1="236.76" y1="374.15" x2="237.45" y2="375.36"/><line x1="208.29" y1="247.00" x2="250.02" y2="247.00"/><line x1="32.16" y1="32.09" x2="32.16" y2="64.58"/><line x1="201.07" y1="230.29" x2="191.67" y2="248.10"/><line x1="275.51" y1="246.58" x2="288.44" y2="231.36"/><line x1="323.10" y1="247.09" x2="322.47" y2="247.24"/><line x1="274.45" y1="190.11" x2="282.09" y2="187.43"/><line x1="216.80" y1="111.17" x2="217.36" y2="110.57"/><line x1="213.91" y1="249.19" x2="213.56" y2="248.52"/><line x1="266.48" y1="166.84" x2="257.12" y2="168.15"/><line x1="325.54" y1="243.99" x2="325.43" y2="244.61"/><line x1="251.37" y1="229.83" x2="250.36" y2="228.97"/><line x1="215.86" y1="357.68" x2="215.04" y2="356.66"/><line x1="311.94" y1="224.11" x2="295.87" y2="217.83"/><line x1="311.94" y1="224.11" x2="301.26" y2="226.53"/><line x1="214.14" y1="121.43" x2="214.28" y2="119.68"/><line x1="214.03" y1="249.98" x2="238.88" y2="378.87"/><line x1="214.03" y1="249.98" x2="240.92" y2="387.14"/><line x1="214.03" y1="249.98" x2="245.42" y2="398.67"/><line x1="217.11" y1="358.68" x2="217.91" y2="359.20"/><line x1="214.03" y1="249.98" x2="250.02" y2="394.35"/><line x1="201.07" y1="230.29" x2="188.64" y2="246.05"/><line x1="275.51" y1="246.58" x2="296.97" y2="246.16"/><line x1="201.07" y1="230.29" x2="204.36" y2="247.33"/><line x1="207.87" y1="231.36" x2="250.02" y2="247.00"/><line x1="207.87" y1="231.36" x2="258.47" y2="231.47"/><line x1="214.03" y1="225.63" x2="214.03" y2="125.30"/><line x1="296.97" y1="246.16" x2="296.54" y2="230.51"/><line x1="187.49" y1="239.22" x2="199.04" y2="230.01"/><line x1="215.86" y1="357.68" x2="216.43" y2="358.18"/><line x1="311.94" y1="224.11" x2="299.31" y2="222.74"/><line x1="188.10" y1="231.93" x2="187.75" y2="233.44"/><line x1="214.03" y1="249.98" x2="235.94" y2="372.91"/><line x1="214.03" y1="249.98" x2="242.52" y2="394.97"/><line x1="250.02" y1="247.00" x2="273.23" y2="231.75"/><line x1="32.00" y1="479.98" x2="64.49" y2="479.98"/><line x1="214.03" y1="249.98" x2="243.35" y2="397.21"/><line x1="214.03" y1="249.98" x2="248.29" y2="398.44"/><line x1="323.10" y1="237.46" x2="299.83" y2="229.44"/><line x1="201.07" y1="230.29" x2="190.84" y2="247.87"/><line x1="275.51" y1="246.58" x2="291.92" y2="231.13"/><line x1="266.48" y1="166.84" x2="255.85" y2="166.74"/><line x1="318.24" y1="247.37" x2="317.52" y2="247.33"/><line x1="295.87" y1="217.83" x2="296.92" y2="219.27"/><line x1="214.03" y1="249.98" x2="230.03" y2="366.35"/><line x1="214.03" y1="249.98" x2="238.48" y2="377.67"/><line x1="262.19" y1="231.70" x2="258.47" y2="231.47"/><line x1="250.02" y1="247.00" x2="211.10" y2="247.25"/><line x1="214.03" y1="249.98" x2="241.34" y2="389.25"/><line x1="209.50" y1="231.24" x2="253.07" y2="230.53"/><line x1="214.03" y1="249.98" x2="244.89" y2="398.51"/><line x1="323.64" y1="246.89" x2="323.10" y2="247.09"/><line x1="217.11" y1="358.68" x2="214.14" y2="353.68"/><line x1="300.53" y1="229.01" x2="299.83" y2="229.44"/><line x1="216.29" y1="111.93" x2="216.80" y2="111.17"/><line x1="296.97" y1="246.16" x2="297.84" y2="230.19"/><line x1="300.74" y1="225.24" x2="301.04" y2="225.92"/><line x1="188.34" y1="245.34" x2="188.64" y2="246.05"/><line x1="254.69" y1="165.59" x2="255.85" y2="166.74"/><line x1="215.86" y1="357.68" x2="214.48" y2="355.34"/><line x1="210.89" y1="230.89" x2="251.37" y2="229.83"/><line x1="250.36" y1="228.97" x2="250.02" y2="227.96"/><line x1="318.92" y1="247.40" x2="318.24" y2="247.37"/><line x1="214.03" y1="249.98" x2="221.01" y2="360.80"/><line x1="298.93" y1="229.83" x2="296.97" y2="246.16"/><line x1="214.03" y1="249.98" x2="235.00" y2="371.63"/><line x1="325.43" y1="241.45" x2="325.59" y2="242.03"/><line x1="214.03" y1="249.98" x2="240.09" y2="383.38"/><line x1="226.17" y1="116.15" x2="232.92" y2="124.07"/><line x1="32.00" y1="479.98" x2="32.00" y2="447.50"/><line x1="214.03" y1="249.98" x2="243.08" y2="396.66"/><line x1="250.67" y1="163.75" x2="250.95" y2="163.60"/><line x1="244.89" y1="398.51" x2="245.42" y2="398.67"/><line x1="204.36" y1="247.33" x2="208.29" y2="247.00"/><line x1="301.03" y1="228.55" x2="300.53" y2="229.01"/><line x1="214.03" y1="125.30" x2="250.44" y2="164.01"/><line x1="192.59" y1="248.23" x2="193.63" y2="248.28"/><line x1="296.01" y1="205.13" x2="311.94" y2="224.11"/><line x1="213.90" y1="227.15" x2="214.03" y2="225.63"/><line x1="190.87" y1="229.23" x2="188.58" y2="230.74"/><line x1="303.23" y1="246.27" x2="296.97" y2="246.16"/><line x1="231.46" y1="367.63" x2="232.76" y2="368.97"/><line x1="253.66" y1="164.70" x2="254.69" y2="165.59"/><line x1="298.93" y1="229.83" x2="323.10" y2="247.09"/><line x1="208.29" y1="247.00" x2="207.57" y2="231.27"/><line x1="298.93" y1="229.83" x2="316.74" y2="247.26"/><line x1="214.03" y1="249.98" x2="228.48" y2="365.13"/><line x1="187.69" y1="242.17" x2="187.86" y2="243.40"/><line x1="214.03" y1="249.98" x2="238.03" y2="376.53"/><line x1="250.02" y1="247.00" x2="212.15" y2="247.55"/><line x1="325.17" y1="240.79" x2="325.43" y2="241.45"/><line x1="250.02" y1="247.00" x2="275.51" y2="246.58"/><line x1="214.06" y1="352.72" x2="214.03" y2="351.66"/><line x1="187.54" y1="235.29" x2="195.55" y2="229.57"/><line x1="214.03" y1="125.30" x2="214.06" y2="123.30"/><line x1="298.93" y1="229.83" x2="325.05" y2="245.62"/><line x1="250.36" y1="228.97" x2="213.53" y2="228.43"/><line x1="191.67" y1="248.10" x2="192.59" y2="248.23"/><line x1="298.93" y1="229.83" x2="320.12" y2="247.43"/><line x1="241.94" y1="392.49" x2="241.64" y2="390.97"/><line x1="298.93" y1="229.83" x2="303.23" y2="246.27"/><line x1="253.07" y1="149.41" x2="266.48" y2="166.84"/><line x1="230.03" y1="366.35" x2="231.46" y2="367.63"/><line x1="204.36" y1="247.33" x2="205.96" y2="231.01"/><line x1="189.21" y1="229.90" x2="190.87" y2="229.23"/><line x1="214.03" y1="125.30" x2="250.26" y2="164.38"/><line x1="217.91" y1="359.20" x2="218.83" y2="359.72"/><line x1="248.91" y1="397.98" x2="249.40" y2="397.35"/><line x1="251.29" y1="163.54" x2="218.62" y2="109.90"/><line x1="190.87" y1="229.23" x2="189.97" y2="229.40"/><line x1="205.96" y1="231.01" x2="208.29" y2="247.00"/><line x1="191.76" y1="229.25" x2="192.83" y2="229.31"/><line x1="249.40" y1="397.35" x2="249.74" y2="396.53"/><line x1="298.93" y1="229.83" x2="325.64" y2="242.55"/><line x1="298.93" y1="229.83" x2="323.64" y2="246.89"/><line x1="208.29" y1="247.00" x2="206.93" y2="231.16"/><line x1="237.45" y1="375.36" x2="238.03" y2="376.53"/><line x1="298.93" y1="229.83" x2="317.52" y2="247.33"/><line x1="250.44" y1="164.01" x2="250.67" y2="163.75"/><line x1="192.83" y1="229.31" x2="187.54" y2="235.29"/><line x1="284.16" y1="231.55" x2="279.09" y2="231.68"/><line x1="238.03" y1="376.53" x2="238.48" y2="377.67"/><line x1="291.98" y1="212.65" x2="296.01" y2="205.13"/><line x1="187.54" y1="235.29" x2="194.10" y2="229.42"/><line x1="215.04" y1="356.66" x2="215.41" y2="357.19"/><line x1="214.03" y1="125.30" x2="251.29" y2="163.54"/><line x1="212.97" y1="247.98" x2="212.15" y2="247.55"/><line x1="251.29" y1="163.54" x2="215.82" y2="112.86"/><line x1="251.29" y1="163.54" x2="232.92" y2="124.07"/><line x1="325.26" y1="245.15" x2="325.05" y2="245.62"/><line x1="214.48" y1="118.06" x2="214.73" y2="116.57"/><line x1="298.93" y1="229.83" x2="324.34" y2="239.27"/><line x1="199.04" y1="230.01" x2="187.57" y2="240.78"/><line x1="298.93" y1="229.83" x2="325.26" y2="245.15"/><line x1="298.93" y1="229.83" x2="320.98" y2="247.41"/><line x1="241.94" y1="392.49" x2="242.23" y2="393.83"/><line x1="298.93" y1="229.83" x2="308.65" y2="246.58"/><line x1="297.84" y1="220.58" x2="298.64" y2="221.73"/><line x1="187.57" y1="240.78" x2="187.69" y2="242.17"/><line x1="322.47" y1="247.24" x2="321.77" y2="247.35"/><line x1="214.03" y1="125.30" x2="250.13" y2="164.85"/><line x1="217.91" y1="359.20" x2="214.06" y2="352.72"/><line x1="251.29" y1="163.54" x2="214.28" y2="119.68"/><line x1="217.36" y1="110.57" x2="217.96" y2="110.16"/><line x1="251.29" y1="163.54" x2="217.96" y2="110.16"/><line x1="64.64" y1="32.09" x2="32.16" y2="64.58"/><line x1="321.77" y1="247.35" x2="320.98" y2="247.41"/><line x1="243.08" y1="396.66" x2="243.35" y2="397.21"/><line x1="301.26" y1="226.53" x2="301.39" y2="227.06"/><line x1="298.93" y1="229.83" x2="325.59" y2="242.03"/><line x1="298.93" y1="229.83" x2="324.09" y2="246.65"/><line x1="212.02" y1="230.31" x2="250.36" y2="228.97"/><line x1="301.39" y1="227.06" x2="301.43" y2="227.52"/><line x1="317.52" y1="247.33" x2="316.74" y2="247.26"/><line x1="316.74" y1="247.26" x2="315.91" y2="247.20"/><line x1="250.02" y1="166.10" x2="250.05" y2="165.42"/><line x1="251.29" y1="163.54" x2="215.41" y2="113.95"/><line x1="251.29" y1="163.54" x2="226.17" y2="116.15"/><line x1="216.43" y1="358.18" x2="217.11" y2="358.68"/><line x1="188.58" y1="230.74" x2="188.10" y2="231.93"/><line x1="298.93" y1="229.83" x2="323.77" y2="238.40"/><line x1="214.14" y1="353.68" x2="217.91" y2="359.20"/><line x1="32.16" y1="32.09" x2="64.64" y2="32.09"/><line x1="207.57" y1="231.27" x2="207.89" y2="231.34"/><line x1="242.80" y1="395.90" x2="243.08" y2="396.66"/><line x1="301.04" y1="225.92" x2="301.26" y2="226.53"/><line x1="188.64" y1="246.05" x2="189.03" y2="246.64"/><line x1="251.29" y1="163.54" x2="214.14" y2="121.43"/><line x1="251.37" y1="229.83" x2="212.02" y2="230.31"/><line x1="311.94" y1="224.11" x2="294.70" y2="216.24"/><line x1="251.29" y1="163.54" x2="217.36" y2="110.57"/><line x1="195.55" y1="229.57" x2="197.20" y2="229.77"/><line x1="311.94" y1="224.11" x2="301.04" y2="225.92"/><line x1="189.03" y1="246.64" x2="189.53" y2="247.14"/><line x1="221.01" y1="360.80" x2="223.07" y2="361.79"/><line x1="273.23" y1="231.75" x2="279.09" y2="231.68"/><line x1="242.52" y1="394.97" x2="241.34" y2="389.25"/><line x1="232.92" y1="124.07" x2="241.89" y2="135.16"/><line x1="32.00" y1="447.50" x2="64.49" y2="479.98"/></g></svg>