<svg xmlns="http://www.w3.org/2000/svg" width="512" height="512"><rect width="512" height="512" fill="#0a0f1a"/><text x="12" y="20" font-family="monospace" font-size="11" fill="#4a7fa5">FRONT (XZ)</text><g stroke="#00d4ff" stroke-width="0.6" opacity="0.85"><line x1="275.56" y1="144.14" x2="277.55" y2="145.96"/><line x1="298.72" y1="156.28" x2="280.99" y2="163.99"/><line x1="234.87" y1="185.75" x2="235.53" y2="180.56"/><line x1="302.73" y1="213.04" x2="269.11" y2="193.93"/><line x1="280.71" y1="167.33" x2="280.25" y2="170.55"/><line x1="289.45" y1="342.14" x2="264.15" y2="313.95"/><line x1="247.53" y1="322.97" x2="241.80" y2="350.85"/><line x1="251.60" y1="118.13" x2="253.48" y2="119.27"/><line x1="235.51" y1="198.83" x2="218.78" y2="203.34"/><line x1="269.11" y1="193.93" x2="300.19" y2="216.89"/><line x1="284.31" y1="283.98" x2="316.99" y2="277.87"/><line x1="221.73" y1="320.86" x2="221.64" y2="319.60"/><line x1="199.03" y1="312.89" x2="222.37" y2="323.92"/><line x1="253.48" y1="119.27" x2="255.69" y2="120.69"/><line x1="258.86" y1="145.37" x2="248.82" y2="116.59"/><line x1="280.25" y1="170.55" x2="305.58" y2="164.05"/><line x1="316.99" y1="277.87" x2="318.17" y2="282.45"/><line x1="278.01" y1="300.72" x2="306.53" y2="329.82"/><line x1="208.29" y1="249.62" x2="211.96" y2="245.89"/><line x1="203.98" y1="162.36" x2="204.13" y2="159.99"/><line x1="305.58" y1="164.05" x2="306.81" y2="165.91"/><line x1="289.83" y1="230.42" x2="260.30" y2="204.09"/><line x1="266.02" y1="356.47" x2="247.53" y2="322.97"/><line x1="200.24" y1="259.23" x2="238.14" y2="276.60"/><line x1="266.56" y1="128.22" x2="266.34" y2="142.98"/><line x1="211.96" y1="245.89" x2="216.13" y2="241.92"/><line x1="234.87" y1="185.75" x2="210.77" y2="195.23"/><line x1="260.30" y1="204.09" x2="285.47" y2="235.58"/><line x1="223.93" y1="300.65" x2="195.27" y2="299.86"/><line x1="266.34" y1="142.98" x2="269.45" y2="130.39"/><line x1="309.99" y1="173.45" x2="310.47" y2="175.61"/><line x1="210.77" y1="195.23" x2="209.01" y2="192.96"/><line x1="284.73" y1="277.62" x2="284.31" y2="283.98"/><line x1="319.59" y1="301.93" x2="319.34" y2="305.22"/><line x1="266.14" y1="253.07" x2="273.45" y2="248.07"/><line x1="249.20" y1="214.83" x2="273.45" y2="248.07"/><line x1="199.03" y1="312.89" x2="221.64" y2="319.60"/><line x1="310.47" y1="175.61" x2="278.81" y2="176.62"/><line x1="258.86" y1="145.37" x2="255.69" y2="120.69"/><line x1="241.80" y1="350.85" x2="242.45" y2="324.88"/><line x1="229.98" y1="124.37" x2="233.34" y2="122.17"/><line x1="273.45" y1="248.07" x2="250.68" y2="213.63"/><line x1="205.12" y1="183.28" x2="204.57" y2="179.95"/><line x1="193.44" y1="281.65" x2="193.58" y2="278.13"/><line x1="200.24" y1="259.23" x2="259.41" y2="257.96"/><line x1="275.56" y1="144.14" x2="281.60" y2="140.13"/><line x1="311.20" y1="189.22" x2="310.80" y2="192.61"/><line x1="204.57" y1="179.95" x2="204.18" y2="176.21"/><line x1="283.04" y1="289.95" x2="280.95" y2="295.53"/><line x1="234.87" y1="185.75" x2="205.82" y2="186.22"/><line x1="315.63" y1="318.74" x2="314.34" y2="320.96"/><line x1="280.95" y1="295.53" x2="278.01" y2="300.72"/><line x1="193.58" y1="278.13" x2="194.00" y2="274.71"/><line x1="279.62" y1="173.64" x2="309.99" y2="173.45"/><line x1="246.37" y1="215.62" x2="245.33" y2="215.16"/><line x1="290.45" y1="148.05" x2="293.27" y2="150.76"/><line x1="199.03" y1="312.89" x2="222.69" y2="324.68"/><line x1="245.33" y1="215.16" x2="244.23" y2="214.38"/><line x1="258.86" y1="145.37" x2="247.91" y2="116.21"/><line x1="199.03" y1="312.89" x2="197.55" y2="308.61"/><line x1="225.74" y1="295.34" x2="228.06" y2="290.29"/><line x1="480.00" y1="32.02" x2="447.51" y2="32.02"/><line x1="284.52" y1="272.75" x2="284.73" y2="277.62"/><line x1="226.50" y1="327.17" x2="225.61" y2="326.97"/><line x1="273.47" y1="187.81" x2="304.82" y2="209.51"/><line x1="203.98" y1="162.36" x2="240.17" y2="166.08"/><line x1="236.02" y1="346.48" x2="227.49" y2="327.30"/><line x1="200.24" y1="259.23" x2="234.25" y2="281.01"/><line x1="251.90" y1="150.16" x2="229.98" y2="124.37"/><line x1="236.63" y1="175.55" x2="238.18" y2="170.73"/><line x1="300.72" y1="158.27" x2="302.53" y2="160.23"/><line x1="284.73" y1="277.62" x2="315.49" y2="273.66"/><line x1="279.62" y1="255.65" x2="292.39" y2="248.77"/><line x1="284.31" y1="283.98" x2="283.04" y2="289.95"/><line x1="228.06" y1="290.29" x2="193.44" y2="281.65"/><line x1="278.52" y1="137.56" x2="275.56" y2="144.14"/><line x1="266.14" y1="253.07" x2="249.20" y2="214.83"/><line x1="297.19" y1="221.08" x2="293.74" y2="225.59"/><line x1="280.25" y1="170.55" x2="279.62" y2="173.64"/><line x1="278.87" y1="348.75" x2="272.73" y2="352.48"/><line x1="316.70" y1="316.43" x2="315.63" y2="318.74"/><line x1="234.75" y1="193.76" x2="234.65" y2="191.12"/><line x1="273.89" y1="248.15" x2="273.73" y2="248.11"/><line x1="266.48" y1="197.19" x2="263.54" y2="200.58"/><line x1="311.33" y1="185.82" x2="311.20" y2="189.22"/><line x1="319.01" y1="287.41" x2="319.51" y2="292.74"/><line x1="236.02" y1="346.48" x2="199.03" y2="312.89"/><line x1="228.58" y1="327.34" x2="227.49" y2="327.30"/><line x1="239.18" y1="118.78" x2="241.65" y2="117.60"/><line x1="307.85" y1="167.75" x2="308.70" y2="169.56"/><line x1="311.20" y1="189.22" x2="276.62" y2="182.20"/><line x1="283.04" y1="289.95" x2="319.68" y2="298.44"/><line x1="280.95" y1="295.53" x2="318.35" y2="311.22"/><line x1="227.49" y1="327.30" x2="226.50" y2="327.17"/><line x1="279.62" y1="173.64" x2="309.40" y2="171.42"/><line x1="251.90" y1="150.16" x2="255.32" y2="147.46"/><line x1="280.19" y1="151.78" x2="290.45" y2="148.05"/><line x1="203.90" y1="164.87" x2="203.98" y2="162.36"/><line x1="274.23" y1="305.52" x2="303.92" y2="332.04"/><line x1="198.43" y1="262.11" x2="200.24" y2="259.23"/><line x1="226.37" y1="209.83" x2="222.35" y2="206.48"/><line x1="290.45" y1="148.05" x2="280.86" y2="155.79"/><line x1="273.73" y1="248.11" x2="257.34" y2="207.19"/><line x1="274.72" y1="248.51" x2="277.37" y2="251.96"/><line x1="308.01" y1="202.76" x2="273.47" y2="187.81"/><line x1="303.92" y1="332.04" x2="301.04" y2="334.25"/><line x1="225.74" y1="295.34" x2="193.55" y2="286.30"/><line x1="480.00" y1="32.02" x2="480.00" y2="64.50"/><line x1="270.27" y1="142.68" x2="273.13" y2="143.04"/><line x1="245.73" y1="116.25" x2="247.32" y2="116.08"/><line x1="239.31" y1="208.13" x2="238.08" y2="205.91"/><line x1="281.46" y1="259.58" x2="282.89" y2="263.74"/><line x1="273.47" y1="187.81" x2="306.55" y2="206.14"/><line x1="318.35" y1="311.22" x2="317.61" y2="313.92"/><line x1="236.02" y1="346.48" x2="228.58" y2="327.34"/><line x1="480.00" y1="479.91" x2="480.00" y2="447.42"/><line x1="223.09" y1="325.32" x2="222.69" y2="324.68"/><line x1="247.32" y1="116.08" x2="247.91" y2="116.21"/><line x1="280.99" y1="163.99" x2="300.72" y2="158.27"/><line x1="297.38" y1="252.47" x2="301.78" y2="256.09"/><line x1="205.26" y1="152.01" x2="205.73" y2="150.29"/><line x1="264.15" y1="313.95" x2="284.45" y2="345.31"/><line x1="230.90" y1="285.52" x2="196.91" y2="265.10"/><line x1="259.41" y1="257.96" x2="266.14" y2="253.07"/><line x1="236.63" y1="175.55" x2="203.87" y2="167.53"/><line x1="300.72" y1="158.27" x2="280.71" y2="167.33"/><line x1="300.19" y1="216.89" x2="297.19" y2="221.08"/><line x1="284.45" y1="345.31" x2="278.87" y2="348.75"/><line x1="447.51" y1="479.91" x2="480.00" y2="447.42"/><line x1="226.37" y1="209.83" x2="240.62" y2="210.16"/><line x1="235.03" y1="196.33" x2="234.75" y2="193.76"/><line x1="297.19" y1="221.08" x2="266.48" y2="197.19"/><line x1="220.55" y1="131.18" x2="223.41" y2="128.98"/><line x1="221.61" y1="318.20" x2="221.87" y2="312.08"/><line x1="258.21" y1="122.35" x2="260.94" y2="124.20"/><line x1="319.01" y1="287.41" x2="283.04" y2="289.95"/><line x1="236.02" y1="346.48" x2="224.82" y2="326.68"/><line x1="248.62" y1="153.45" x2="226.55" y2="126.71"/><line x1="235.53" y1="180.56" x2="236.63" y2="175.55"/><line x1="281.07" y1="160.53" x2="280.99" y2="163.99"/><line x1="216.13" y1="241.92" x2="220.79" y2="237.69"/><line x1="307.85" y1="167.75" x2="279.62" y2="173.64"/><line x1="280.65" y1="241.06" x2="286.82" y2="244.96"/><line x1="200.24" y1="259.23" x2="266.14" y2="253.07"/><line x1="269.60" y1="309.93" x2="264.15" y2="313.95"/><line x1="258.60" y1="360.72" x2="254.97" y2="358.87"/><line x1="194.47" y1="295.40" x2="193.89" y2="290.88"/><line x1="272.41" y1="132.67" x2="275.44" y2="135.06"/><line x1="209.01" y1="192.96" x2="207.69" y2="190.91"/><line x1="226.37" y1="209.83" x2="236.18" y2="201.25"/><line x1="207.69" y1="190.91" x2="206.68" y2="188.77"/><line x1="228.06" y1="290.29" x2="230.90" y2="285.52"/><line x1="245.46" y1="157.34" x2="248.62" y2="153.45"/><line x1="204.18" y1="176.21" x2="203.95" y2="172.07"/><line x1="236.02" y1="346.48" x2="232.98" y2="327.06"/><line x1="194.00" y1="274.71" x2="194.69" y2="271.39"/><line x1="480.00" y1="479.91" x2="447.51" y2="479.91"/><line x1="277.55" y1="145.96" x2="279.09" y2="148.51"/><line x1="297.38" y1="252.47" x2="282.89" y2="263.74"/><line x1="230.90" y1="285.52" x2="195.66" y2="268.19"/><line x1="244.23" y1="214.38" x2="243.07" y2="213.28"/><line x1="255.69" y1="120.69" x2="258.21" y2="122.35"/><line x1="236.63" y1="175.55" x2="203.95" y2="172.07"/><line x1="318.17" y1="282.45" x2="319.01" y2="287.41"/><line x1="242.59" y1="161.62" x2="212.05" y2="139.36"/><line x1="274.23" y1="305.52" x2="269.60" y2="309.93"/><line x1="247.37" y1="215.78" x2="225.94" y2="233.20"/><line x1="226.37" y1="209.83" x2="241.87" y2="211.88"/><line x1="240.17" y1="166.08" x2="204.33" y2="157.77"/><line x1="310.14" y1="196.00" x2="309.21" y2="199.38"/><line x1="306.81" y1="165.91" x2="307.85" y2="167.75"/><line x1="242.59" y1="161.62" x2="205.73" y2="150.29"/><line x1="305.60" y1="259.61" x2="284.52" y2="272.75"/><line x1="224.82" y1="326.68" x2="224.14" y2="326.31"/><line x1="220.55" y1="131.18" x2="248.62" y2="153.45"/><line x1="293.27" y1="150.76" x2="296.03" y2="153.50"/><line x1="207.18" y1="146.77" x2="206.38" y2="148.54"/><line x1="285.47" y1="235.58" x2="280.65" y2="241.06"/><line x1="297.75" y1="336.61" x2="293.89" y2="339.24"/><line x1="235.53" y1="180.56" x2="204.18" y2="176.21"/><line x1="281.07" y1="160.53" x2="298.72" y2="156.28"/><line x1="269.45" y1="130.39" x2="272.41" y2="132.67"/><line x1="304.82" y1="209.51" x2="302.73" y2="213.04"/><line x1="280.65" y1="241.06" x2="274.72" y2="248.51"/><line x1="269.60" y1="309.93" x2="289.45" y2="342.14"/><line x1="194.47" y1="295.40" x2="225.74" y2="295.34"/><line x1="236.18" y1="201.25" x2="235.51" y2="198.83"/><line x1="272.41" y1="132.67" x2="270.27" y2="142.68"/><line x1="271.45" y1="190.81" x2="269.11" y2="193.93"/><line x1="278.81" y1="176.62" x2="310.85" y2="177.94"/><line x1="318.93" y1="308.31" x2="318.35" y2="311.22"/><line x1="215.72" y1="135.40" x2="213.74" y2="137.41"/><line x1="247.37" y1="215.78" x2="205.11" y2="253.07"/><line x1="250.68" y1="213.63" x2="252.53" y2="211.97"/><line x1="310.85" y1="177.94" x2="311.11" y2="180.41"/><line x1="240.17" y1="166.08" x2="205.73" y2="150.29"/><line x1="315.49" y1="273.66" x2="316.99" y2="277.87"/><line x1="222.64" y1="306.23" x2="223.93" y2="300.65"/><line x1="245.46" y1="157.34" x2="220.55" y2="131.18"/><line x1="238.85" y1="348.69" x2="236.02" y2="346.48"/><line x1="212.05" y1="139.36" x2="210.59" y2="141.26"/><line x1="304.15" y1="162.15" x2="305.58" y2="164.05"/><line x1="281.60" y1="140.13" x2="277.55" y2="145.96"/><line x1="204.18" y1="176.21" x2="236.63" y2="175.55"/><line x1="281.46" y1="259.58" x2="297.38" y2="252.47"/><line x1="272.73" y1="352.48" x2="266.02" y2="356.47"/><line x1="194.00" y1="274.71" x2="230.90" y2="285.52"/><line x1="234.65" y1="191.12" x2="234.87" y2="185.75"/><line x1="277.55" y1="145.96" x2="284.62" y2="142.73"/><line x1="247.53" y1="322.97" x2="258.60" y2="360.72"/><line x1="276.62" y1="182.20" x2="310.80" y2="192.61"/><line x1="312.79" y1="323.17" x2="310.97" y2="325.39"/><line x1="226.55" y1="126.71" x2="229.98" y2="124.37"/><line x1="209.28" y1="143.12" x2="208.15" y2="144.96"/><line x1="280.86" y1="155.79" x2="281.07" y2="160.53"/><line x1="240.37" y1="221.08" x2="226.37" y2="209.83"/><line x1="286.82" y1="244.96" x2="292.39" y2="248.77"/><line x1="244.23" y1="214.38" x2="226.37" y2="209.83"/><line x1="310.80" y1="192.61" x2="310.14" y2="196.00"/><line x1="195.27" y1="299.86" x2="194.47" y2="295.40"/><line x1="225.61" y1="326.97" x2="224.82" y2="326.68"/><line x1="208.15" y1="144.96" x2="207.18" y2="146.77"/><line x1="242.59" y1="161.62" x2="207.18" y2="146.77"/><line x1="319.34" y1="305.22" x2="318.93" y2="308.31"/><line x1="247.37" y1="215.78" x2="220.79" y2="237.69"/><line x1="240.17" y1="166.08" x2="204.13" y2="159.99"/><line x1="278.01" y1="300.72" x2="315.63" y2="318.74"/><line x1="234.25" y1="281.01" x2="238.14" y2="276.60"/><line x1="293.27" y1="150.76" x2="281.07" y2="160.53"/><line x1="242.45" y1="324.88" x2="238.85" y2="348.69"/><line x1="213.74" y1="137.41" x2="242.59" y2="161.62"/><line x1="297.75" y1="336.61" x2="269.60" y2="309.93"/><line x1="255.32" y1="147.46" x2="241.65" y2="117.60"/><line x1="277.81" y1="179.47" x2="276.62" y2="182.20"/><line x1="280.71" y1="167.33" x2="304.15" y2="162.15"/><line x1="237.03" y1="203.62" x2="236.18" y2="201.25"/><line x1="274.27" y1="248.30" x2="274.07" y2="248.21"/><line x1="260.30" y1="204.09" x2="274.07" y2="248.21"/><line x1="304.82" y1="209.51" x2="271.45" y2="190.81"/><line x1="247.53" y1="322.97" x2="244.90" y2="352.94"/><line x1="222.37" y1="323.92" x2="222.09" y2="323.02"/><line x1="314.34" y1="320.96" x2="312.79" y2="323.17"/><line x1="282.89" y1="263.74" x2="283.91" y2="268.13"/><line x1="258.38" y1="317.50" x2="252.84" y2="320.51"/><line x1="215.72" y1="135.40" x2="217.99" y2="133.33"/><line x1="258.86" y1="145.37" x2="262.53" y2="143.88"/><line x1="247.37" y1="215.78" x2="202.43" y2="256.29"/><line x1="238.18" y1="170.73" x2="240.17" y2="166.08"/><line x1="215.66" y1="200.42" x2="212.99" y2="197.71"/><line x1="242.59" y1="161.62" x2="240.17" y2="166.08"/><line x1="293.74" y1="225.59" x2="289.83" y2="230.42"/><line x1="240.17" y1="166.08" x2="205.26" y2="152.01"/><line x1="278.01" y1="300.72" x2="308.88" y2="327.61"/><line x1="273.45" y1="248.07" x2="273.58" y2="248.08"/><line x1="222.64" y1="306.23" x2="196.29" y2="304.27"/><line x1="283.91" y1="268.13" x2="305.60" y2="259.61"/><line x1="263.72" y1="126.15" x2="266.56" y2="128.22"/><line x1="213.74" y1="137.41" x2="212.05" y2="139.36"/><line x1="255.32" y1="147.46" x2="258.86" y2="145.37"/><line x1="226.55" y1="126.71" x2="251.90" y2="150.16"/><line x1="280.86" y1="155.79" x2="293.27" y2="150.76"/><line x1="286.82" y1="244.96" x2="279.62" y2="255.65"/><line x1="199.03" y1="312.89" x2="221.73" y2="320.86"/><line x1="480.00" y1="64.50" x2="447.51" y2="32.02"/><line x1="258.86" y1="145.37" x2="253.48" y2="119.27"/><line x1="275.44" y1="135.06" x2="278.52" y2="137.56"/><line x1="247.37" y1="215.78" x2="216.13" y2="241.92"/><line x1="205.82" y1="186.22" x2="205.12" y2="183.28"/><line x1="260.30" y1="204.09" x2="257.34" y2="207.19"/><line x1="278.01" y1="300.72" x2="316.70" y2="316.43"/><line x1="193.55" y1="286.30" x2="193.44" y2="281.65"/><line x1="218.78" y1="203.34" x2="215.66" y2="200.42"/><line x1="247.91" y1="116.21" x2="248.82" y2="116.59"/><line x1="311.28" y1="183.04" x2="311.33" y2="185.82"/><line x1="200.24" y1="259.23" x2="253.24" y2="262.76"/><line x1="255.32" y1="147.46" x2="239.18" y2="118.78"/><line x1="234.87" y1="185.75" x2="206.68" y2="188.77"/><line x1="280.71" y1="167.33" x2="302.53" y2="160.23"/><line x1="247.53" y1="322.97" x2="248.12" y2="354.98"/><line x1="313.64" y1="269.82" x2="315.49" y2="273.66"/><line x1="275.20" y1="184.94" x2="273.47" y2="187.81"/><line x1="203.87" y1="167.53" x2="203.90" y2="164.87"/><line x1="199.03" y1="312.89" x2="223.09" y2="325.32"/><line x1="258.38" y1="317.50" x2="272.73" y2="352.48"/><line x1="258.86" y1="145.37" x2="247.32" y2="116.08"/><line x1="199.03" y1="312.89" x2="222.64" y2="306.23"/><line x1="258.86" y1="145.37" x2="263.72" y2="126.15"/><line x1="260.94" y1="124.20" x2="263.72" y2="126.15"/><line x1="215.66" y1="200.42" x2="234.65" y2="191.12"/><line x1="306.53" y1="329.82" x2="303.92" y2="332.04"/><line x1="278.01" y1="300.72" x2="310.97" y2="325.39"/><line x1="273.45" y1="248.07" x2="257.34" y2="207.19"/><line x1="222.64" y1="306.23" x2="197.55" y2="308.61"/><line x1="301.04" y1="334.25" x2="297.75" y2="336.61"/><line x1="319.51" y1="292.74" x2="319.68" y2="298.44"/><line x1="238.08" y1="205.91" x2="237.03" y2="203.62"/><line x1="200.24" y1="259.23" x2="202.43" y2="256.29"/><line x1="306.55" y1="206.14" x2="304.82" y2="209.51"/><line x1="223.41" y1="128.98" x2="226.55" y2="126.71"/><line x1="225.94" y1="233.20" x2="240.37" y2="221.08"/><line x1="260.30" y1="204.09" x2="274.48" y2="248.39"/><line x1="222.69" y1="324.68" x2="222.37" y2="323.92"/><line x1="260.30" y1="204.09" x2="273.89" y2="248.15"/><line x1="241.65" y1="117.60" x2="243.84" y2="116.75"/><line x1="251.48" y1="356.95" x2="248.12" y2="354.98"/><line x1="205.73" y1="150.29" x2="206.38" y2="148.54"/><line x1="284.73" y1="277.62" x2="313.64" y2="269.82"/><line x1="269.11" y1="193.93" x2="266.48" y2="197.19"/><line x1="206.68" y1="188.77" x2="205.82" y2="186.22"/><line x1="284.31" y1="283.98" x2="319.01" y2="287.41"/><line x1="286.82" y1="244.96" x2="277.37" y2="251.96"/><line x1="266.14" y1="253.07" x2="247.37" y2="215.78"/><line x1="266.14" y1="253.07" x2="248.10" y2="215.54"/><line x1="199.03" y1="312.89" x2="221.88" y2="322.00"/><line x1="193.89" y1="290.88" x2="193.55" y2="286.30"/><line x1="258.86" y1="145.37" x2="251.60" y2="118.13"/><line x1="280.25" y1="170.55" x2="307.85" y2="167.75"/><line x1="278.87" y1="348.75" x2="258.38" y2="317.50"/><line x1="278.01" y1="300.72" x2="317.61" y2="313.92"/><line x1="234.75" y1="193.76" x2="215.66" y2="200.42"/><line x1="266.48" y1="197.19" x2="293.74" y2="225.59"/><line x1="254.75" y1="209.82" x2="257.34" y2="207.19"/><line x1="311.28" y1="183.04" x2="277.81" y2="179.47"/><line x1="221.87" y1="312.08" x2="222.64" y2="306.23"/><line x1="200.24" y1="259.23" x2="247.64" y2="267.47"/><line x1="237.60" y1="326.24" x2="232.98" y2="327.06"/><line x1="283.04" y1="289.95" x2="319.51" y2="292.74"/><line x1="234.87" y1="185.75" x2="207.69" y2="190.91"/><line x1="279.09" y1="148.51" x2="280.19" y2="151.78"/><line x1="260.30" y1="204.09" x2="274.72" y2="248.51"/><line x1="203.95" y1="172.07" x2="203.87" y2="167.53"/><line x1="280.95" y1="295.53" x2="318.93" y2="308.31"/><line x1="220.79" y1="237.69" x2="225.94" y2="233.20"/><line x1="279.62" y1="173.64" x2="308.70" y2="169.56"/><line x1="223.93" y1="300.65" x2="225.74" y2="295.34"/><line x1="32.16" y1="32.09" x2="32.16" y2="64.58"/><line x1="266.34" y1="142.98" x2="270.27" y2="142.68"/><line x1="194.69" y1="271.39" x2="195.66" y2="268.19"/><line x1="254.97" y1="358.87" x2="251.48" y2="356.95"/><line x1="275.20" y1="184.94" x2="308.01" y2="202.76"/><line x1="308.88" y1="327.61" x2="306.53" y2="329.82"/><line x1="199.03" y1="312.89" x2="223.56" y2="325.85"/><line x1="274.72" y1="248.51" x2="286.82" y2="244.96"/><line x1="258.86" y1="145.37" x2="245.73" y2="116.25"/><line x1="199.03" y1="312.89" x2="221.87" y2="312.08"/><line x1="243.07" y1="213.28" x2="241.87" y2="211.88"/><line x1="258.86" y1="145.37" x2="260.94" y2="124.20"/><line x1="225.74" y1="295.34" x2="193.89" y2="290.88"/><line x1="284.52" y1="272.75" x2="311.46" y2="266.36"/><line x1="270.27" y1="142.68" x2="275.44" y2="135.06"/><line x1="318.35" y1="311.22" x2="278.01" y2="300.72"/><line x1="292.39" y1="248.77" x2="297.38" y2="252.47"/><line x1="252.53" y1="211.97" x2="254.75" y2="209.82"/><line x1="200.24" y1="259.23" x2="247.37" y2="215.78"/><line x1="222.35" y1="206.48" x2="218.78" y2="203.34"/><line x1="302.73" y1="213.04" x2="300.19" y2="216.89"/><line x1="284.62" y1="142.73" x2="287.56" y2="145.37"/><line x1="241.65" y1="117.60" x2="258.86" y2="145.37"/><line x1="279.62" y1="173.64" x2="278.81" y2="176.62"/><line x1="284.31" y1="283.98" x2="318.17" y2="282.45"/><line x1="199.03" y1="312.89" x2="222.09" y2="323.02"/><line x1="274.72" y1="248.51" x2="274.48" y2="248.39"/><line x1="280.25" y1="170.55" x2="306.81" y2="165.91"/><line x1="252.84" y1="320.51" x2="247.53" y2="322.97"/><line x1="217.99" y1="133.33" x2="220.55" y2="131.18"/><line x1="289.83" y1="230.42" x2="285.47" y2="235.58"/><line x1="236.02" y1="346.48" x2="225.61" y2="326.97"/><line x1="248.62" y1="153.45" x2="223.41" y2="128.98"/><line x1="196.29" y1="304.27" x2="195.27" y2="299.86"/><line x1="266.56" y1="128.22" x2="269.45" y2="130.39"/><line x1="234.87" y1="185.75" x2="209.01" y2="192.96"/><line x1="32.00" y1="479.98" x2="64.49" y2="479.98"/><line x1="280.95" y1="295.53" x2="319.34" y2="305.22"/><line x1="230.90" y1="285.52" x2="234.25" y2="281.01"/><line x1="279.62" y1="255.65" x2="281.46" y2="259.58"/><line x1="226.37" y1="209.83" x2="237.03" y2="203.62"/><line x1="228.06" y1="290.29" x2="194.00" y2="274.71"/><line x1="249.20" y1="214.83" x2="250.68" y2="213.63"/><line x1="311.11" y1="180.41" x2="311.28" y2="183.04"/><line x1="242.61" y1="272.08" x2="247.64" y2="267.47"/><line x1="236.02" y1="346.48" x2="237.60" y2="326.24"/><line x1="222.35" y1="206.48" x2="235.51" y2="198.83"/><line x1="301.78" y1="256.09" x2="305.60" y2="259.61"/><line x1="230.90" y1="285.52" x2="194.69" y2="271.39"/><line x1="212.99" y1="197.71" x2="210.77" y2="195.23"/><line x1="284.62" y1="142.73" x2="279.09" y2="148.51"/><line x1="221.88" y1="322.00" x2="221.73" y2="320.86"/><line x1="279.62" y1="173.64" x2="310.47" y2="175.61"/><line x1="310.97" y1="325.39" x2="308.88" y2="327.61"/><line x1="274.07" y1="248.21" x2="273.89" y2="248.15"/><line x1="274.23" y1="305.52" x2="297.75" y2="336.61"/><line x1="226.37" y1="209.83" x2="243.07" y2="213.28"/><line x1="310.14" y1="196.00" x2="275.20" y2="184.94"/><line x1="205.11" y1="253.07" x2="208.29" y2="249.62"/><line x1="224.82" y1="326.68" x2="199.03" y2="312.89"/><line x1="245.46" y1="157.34" x2="242.59" y2="161.62"/><line x1="252.84" y1="320.51" x2="266.02" y2="356.47"/><line x1="204.13" y1="159.99" x2="204.33" y2="157.77"/><line x1="273.47" y1="187.81" x2="271.45" y2="190.81"/><line x1="311.46" y1="266.36" x2="313.64" y2="269.82"/><line x1="236.02" y1="346.48" x2="226.50" y2="327.17"/><line x1="238.14" y1="276.60" x2="242.61" y2="272.08"/><line x1="235.53" y1="180.56" x2="204.57" y2="179.95"/><line x1="281.07" y1="160.53" x2="296.03" y2="153.50"/><line x1="204.33" y1="157.77" x2="204.58" y2="155.70"/><line x1="196.29" y1="304.27" x2="223.93" y2="300.65"/><line x1="269.60" y1="309.93" x2="293.89" y2="339.24"/><line x1="32.00" y1="479.98" x2="32.00" y2="447.50"/><line x1="264.15" y1="313.95" x2="258.38" y2="317.50"/><line x1="280.95" y1="295.53" x2="319.59" y2="301.93"/><line x1="230.90" y1="285.52" x2="200.24" y2="259.23"/><line x1="236.18" y1="201.25" x2="222.35" y2="206.48"/><line x1="271.45" y1="190.81" x2="302.73" y2="213.04"/><line x1="251.90" y1="150.16" x2="233.34" y2="122.17"/><line x1="222.09" y1="323.02" x2="221.88" y2="322.00"/><line x1="250.05" y1="117.23" x2="251.60" y2="118.13"/><line x1="244.90" y1="352.94" x2="241.80" y2="350.85"/><line x1="226.37" y1="209.83" x2="238.08" y2="205.91"/><line x1="228.06" y1="290.29" x2="193.58" y2="278.13"/><line x1="315.49" y1="273.66" x2="284.31" y2="283.98"/><line x1="278.52" y1="137.56" x2="281.60" y2="140.13"/><line x1="245.46" y1="157.34" x2="213.74" y2="137.41"/><line x1="202.43" y1="256.29" x2="205.11" y2="253.07"/><line x1="304.15" y1="162.15" x2="280.25" y2="170.55"/><line x1="263.54" y1="200.58" x2="260.30" y2="204.09"/><line x1="272.73" y1="352.48" x2="252.84" y2="320.51"/><line x1="262.53" y1="143.88" x2="266.34" y2="142.98"/><line x1="234.65" y1="191.12" x2="212.99" y2="197.71"/><line x1="248.62" y1="153.45" x2="251.90" y2="150.16"/><line x1="319.68" y1="298.44" x2="319.59" y2="301.93"/><line x1="197.55" y1="308.61" x2="196.29" y2="304.27"/><line x1="301.78" y1="256.09" x2="283.91" y2="268.13"/><line x1="212.99" y1="197.71" x2="234.87" y2="185.75"/><line x1="240.37" y1="221.08" x2="244.23" y2="214.38"/><line x1="278.81" y1="176.62" x2="277.81" y2="179.47"/><line x1="280.19" y1="151.78" x2="280.86" y2="155.79"/><line x1="242.59" y1="161.62" x2="208.15" y2="144.96"/><line x1="274.23" y1="305.52" x2="301.04" y2="334.25"/><line x1="233.34" y1="122.17" x2="236.40" y2="120.31"/><line x1="273.73" y1="248.11" x2="273.58" y2="248.08"/><line x1="308.01" y1="202.76" x2="306.55" y2="206.14"/><line x1="273.13" y1="143.04" x2="275.56" y2="144.14"/><line x1="248.10" y1="215.54" x2="249.20" y2="214.83"/><line x1="311.46" y1="266.36" x2="284.73" y2="277.62"/><line x1="248.82" y1="116.59" x2="250.05" y2="117.23"/><line x1="277.81" y1="179.47" x2="311.20" y2="189.22"/><line x1="235.53" y1="180.56" x2="205.12" y2="183.28"/><line x1="280.99" y1="163.99" x2="280.71" y2="167.33"/><line x1="264.15" y1="313.95" x2="278.87" y2="348.75"/><line x1="302.53" y1="160.23" x2="304.15" y2="162.15"/><line x1="230.90" y1="285.52" x2="198.43" y2="262.11"/><line x1="215.72" y1="135.40" x2="245.46" y2="157.34"/><line x1="287.56" y1="145.37" x2="290.45" y2="148.05"/><line x1="238.18" y1="170.73" x2="203.98" y2="162.36"/><line x1="247.37" y1="215.78" x2="248.10" y2="215.54"/><line x1="293.74" y1="225.59" x2="263.54" y2="200.58"/><line x1="226.37" y1="209.83" x2="239.31" y2="208.13"/><line x1="240.17" y1="166.08" x2="204.89" y2="153.78"/><line x1="245.46" y1="157.34" x2="217.99" y2="133.33"/><line x1="263.72" y1="126.15" x2="262.53" y2="143.88"/><line x1="263.54" y1="200.58" x2="289.83" y2="230.42"/><line x1="262.53" y1="143.88" x2="266.56" y2="128.22"/><line x1="308.70" y1="169.56" x2="309.40" y2="171.42"/><line x1="319.68" y1="298.44" x2="280.95" y2="295.53"/><line x1="309.40" y1="171.42" x2="309.99" y2="173.45"/><line x1="240.37" y1="221.08" x2="245.33" y2="215.16"/><line x1="278.81" y1="176.62" x2="311.28" y2="183.04"/><line x1="248.12" y1="354.98" x2="244.90" y2="352.94"/><line x1="275.44" y1="135.06" x2="273.13" y2="143.04"/><line x1="242.59" y1="161.62" x2="209.28" y2="143.12"/><line x1="247.37" y1="215.78" x2="211.96" y2="245.89"/><line x1="205.82" y1="186.22" x2="235.53" y2="180.56"/><line x1="233.34" y1="122.17" x2="255.32" y2="147.46"/><line x1="277.37" y1="251.96" x2="279.62" y2="255.65"/><line x1="274.48" y1="248.39" x2="274.27" y2="248.30"/><line x1="193.55" y1="286.30" x2="228.06" y2="290.29"/><line x1="218.78" y1="203.34" x2="234.75" y2="193.76"/><line x1="273.13" y1="143.04" x2="278.52" y2="137.56"/><line x1="317.61" y1="313.92" x2="316.70" y2="316.43"/><line x1="255.32" y1="147.46" x2="236.40" y2="120.31"/><line x1="257.34" y1="207.19" x2="273.58" y2="248.08"/><line x1="277.81" y1="179.47" x2="311.33" y2="185.82"/><line x1="247.53" y1="322.97" x2="251.48" y2="356.95"/><line x1="276.62" y1="182.20" x2="275.20" y2="184.94"/><line x1="260.30" y1="204.09" x2="273.73" y2="248.11"/><line x1="232.98" y1="327.06" x2="228.58" y2="327.34"/><line x1="236.40" y1="120.31" x2="239.18" y2="118.78"/><line x1="203.87" y1="167.53" x2="238.18" y2="170.73"/><line x1="282.89" y1="263.74" x2="301.78" y2="256.09"/><line x1="195.66" y1="268.19" x2="196.91" y2="265.10"/><line x1="242.59" y1="161.62" x2="210.59" y2="141.26"/><line x1="287.56" y1="145.37" x2="280.19" y2="151.78"/><line x1="238.18" y1="170.73" x2="203.90" y2="164.87"/><line x1="247.37" y1="215.78" x2="240.37" y2="221.08"/><line x1="306.53" y1="329.82" x2="274.23" y2="305.52"/><line x1="247.37" y1="215.78" x2="246.37" y2="215.62"/><line x1="240.17" y1="166.08" x2="204.58" y2="155.70"/><line x1="278.01" y1="300.72" x2="312.79" y2="323.17"/><line x1="64.64" y1="32.09" x2="32.16" y2="64.58"/><line x1="305.60" y1="259.61" x2="308.82" y2="263.03"/><line x1="273.45" y1="248.07" x2="254.75" y2="209.82"/><line x1="196.91" y1="265.10" x2="198.43" y2="262.11"/><line x1="242.59" y1="161.62" x2="206.38" y2="148.54"/><line x1="241.87" y1="211.88" x2="240.62" y2="210.16"/><line x1="309.21" y1="199.38" x2="308.01" y2="202.76"/><line x1="242.45" y1="324.88" x2="237.60" y2="326.24"/><line x1="224.14" y1="326.31" x2="223.56" y2="325.85"/><line x1="298.72" y1="156.28" x2="300.72" y2="158.27"/><line x1="240.62" y1="210.16" x2="239.31" y2="208.13"/><line x1="204.58" y1="155.70" x2="204.89" y2="153.78"/><line x1="308.82" y1="263.03" x2="311.46" y2="266.36"/><line x1="289.45" y1="342.14" x2="284.45" y2="345.31"/><line x1="247.53" y1="322.97" x2="242.45" y2="324.88"/><line x1="223.56" y1="325.85" x2="223.09" y2="325.32"/><line x1="247.64" y1="267.47" x2="253.24" y2="262.76"/><line x1="235.51" y1="198.83" x2="235.03" y2="196.33"/><line x1="269.11" y1="193.93" x2="297.19" y2="221.08"/><line x1="204.89" y1="153.78" x2="205.26" y2="152.01"/><line x1="240.37" y1="221.08" x2="246.37" y2="215.62"/><line x1="278.81" y1="176.62" x2="311.11" y2="180.41"/><line x1="253.24" y1="262.76" x2="259.41" y2="257.96"/><line x1="258.86" y1="145.37" x2="250.05" y2="117.23"/><line x1="247.37" y1="215.78" x2="208.29" y2="249.62"/><line x1="278.01" y1="300.72" x2="274.23" y2="305.52"/><line x1="218.78" y1="203.34" x2="235.03" y2="196.33"/><line x1="283.91" y1="268.13" x2="284.52" y2="272.75"/><line x1="281.60" y1="140.13" x2="284.62" y2="142.73"/><line x1="266.02" y1="356.47" x2="258.60" y2="360.72"/><line x1="200.24" y1="259.23" x2="242.61" y2="272.08"/><line x1="221.64" y1="319.60" x2="221.61" y2="318.20"/><line x1="279.09" y1="148.51" x2="287.56" y2="145.37"/><line x1="260.30" y1="204.09" x2="280.65" y2="241.06"/><line x1="260.30" y1="204.09" x2="274.27" y2="248.30"/><line x1="247.53" y1="322.97" x2="254.97" y2="358.87"/><line x1="276.62" y1="182.20" x2="310.14" y2="196.00"/><line x1="223.93" y1="300.65" x2="194.47" y2="295.40"/><line x1="32.16" y1="32.09" x2="64.64" y2="32.09"/><line x1="266.34" y1="142.98" x2="272.41" y2="132.67"/><line x1="275.20" y1="184.94" x2="309.21" y2="199.38"/><line x1="199.03" y1="312.89" x2="224.14" y2="326.31"/><line x1="258.86" y1="145.37" x2="243.84" y2="116.75"/><line x1="199.03" y1="312.89" x2="221.61" y2="318.20"/><line x1="310.47" y1="175.61" x2="310.85" y2="177.94"/><line x1="210.59" y1="141.26" x2="209.28" y2="143.12"/><line x1="258.86" y1="145.37" x2="258.21" y2="122.35"/><line x1="284.52" y1="272.75" x2="308.82" y2="263.03"/><line x1="241.80" y1="350.85" x2="238.85" y2="348.69"/><line x1="278.01" y1="300.72" x2="314.34" y2="320.96"/><line x1="273.45" y1="248.07" x2="252.53" y2="211.97"/><line x1="243.84" y1="116.75" x2="245.73" y2="116.25"/><line x1="296.03" y1="153.50" x2="298.72" y2="156.28"/><line x1="292.39" y1="248.77" x2="281.46" y2="259.58"/><line x1="242.45" y1="324.88" x2="236.02" y2="346.48"/><line x1="293.89" y1="339.24" x2="289.45" y2="342.14"/><line x1="32.00" y1="447.50" x2="64.49" y2="479.98"/></g></svg>