<svg xmlns="http://www.w3.org/2000/svg" width="512" height="512"><rect width="512" height="512" fill="#0a0f1a"/><text x="12" y="20" font-family="monospace" font-size="11" fill="#4a7fa5">FRONT (XZ)</text><g stroke="#00d4ff" stroke-width="0.6" opacity="0.85"><line x1="204.54" y1="225.60" x2="206.48" y2="224.43"/><line x1="222.91" y1="328.93" x2="248.04" y2="327.83"/><line x1="234.08" y1="241.68" x2="222.89" y2="327.48"/><line x1="323.26" y1="397.46" x2="327.89" y2="394.17"/><line x1="254.17" y1="333.84" x2="220.31" y2="336.93"/><line x1="240.97" y1="358.25" x2="247.47" y2="358.38"/><line x1="291.44" y1="357.67" x2="292.42" y2="357.11"/><line x1="227.85" y1="179.03" x2="221.48" y2="180.30"/><line x1="286.64" y1="230.93" x2="285.85" y2="230.50"/><line x1="163.83" y1="287.33" x2="165.55" y2="292.65"/><line x1="175.20" y1="311.99" x2="178.20" y2="316.12"/><line x1="236.36" y1="239.33" x2="207.00" y2="232.17"/><line x1="273.70" y1="395.63" x2="276.44" y2="413.29"/><line x1="371.19" y1="292.47" x2="371.00" y2="285.19"/><line x1="292.42" y1="357.11" x2="293.47" y2="356.41"/><line x1="304.39" y1="333.53" x2="276.97" y2="328.80"/><line x1="285.00" y1="168.31" x2="275.45" y2="183.24"/><line x1="144.36" y1="238.71" x2="143.01" y2="246.57"/><line x1="250.74" y1="233.29" x2="251.73" y2="212.82"/><line x1="207.00" y1="232.17" x2="235.18" y2="240.18"/><line x1="253.30" y1="341.66" x2="258.75" y2="336.62"/><line x1="360.71" y1="350.66" x2="363.14" y2="344.32"/><line x1="309.49" y1="201.72" x2="304.43" y2="197.91"/><line x1="276.97" y1="328.80" x2="304.24" y2="332.73"/><line x1="260.09" y1="231.36" x2="259.68" y2="231.26"/><line x1="160.72" y1="248.31" x2="160.12" y2="253.67"/><line x1="168.10" y1="191.64" x2="179.78" y2="206.64"/><line x1="184.92" y1="323.50" x2="188.63" y2="326.76"/><line x1="204.62" y1="392.65" x2="204.91" y2="393.10"/><line x1="217.81" y1="337.64" x2="222.30" y2="356.30"/><line x1="340.82" y1="382.40" x2="344.77" y2="377.85"/><line x1="258.75" y1="336.62" x2="260.07" y2="337.21"/><line x1="306.12" y1="336.30" x2="272.64" y2="332.82"/><line x1="309.64" y1="342.37" x2="310.05" y2="341.99"/><line x1="217.81" y1="337.64" x2="250.15" y2="358.01"/><line x1="355.96" y1="230.27" x2="337.57" y2="235.47"/><line x1="217.81" y1="337.64" x2="251.77" y2="353.71"/><line x1="209.43" y1="184.34" x2="203.74" y2="187.12"/><line x1="263.73" y1="236.45" x2="263.66" y2="235.92"/><line x1="204.54" y1="225.60" x2="203.16" y2="228.28"/><line x1="175.29" y1="336.81" x2="179.63" y2="339.94"/><line x1="165.55" y1="292.65" x2="149.58" y2="303.25"/><line x1="234.08" y1="241.68" x2="222.59" y2="324.66"/><line x1="204.91" y1="393.10" x2="205.27" y2="393.50"/><line x1="298.01" y1="409.30" x2="295.30" y2="391.09"/><line x1="350.67" y1="271.43" x2="349.25" y2="265.26"/><line x1="310.05" y1="341.99" x2="310.36" y2="341.68"/><line x1="337.57" y1="235.47" x2="352.44" y2="224.02"/><line x1="196.64" y1="169.94" x2="190.32" y2="173.39"/><line x1="255.53" y1="178.91" x2="254.04" y2="161.29"/><line x1="217.81" y1="337.64" x2="249.70" y2="339.24"/><line x1="160.08" y1="264.91" x2="160.55" y2="270.68"/><line x1="222.59" y1="324.66" x2="222.68" y2="325.13"/><line x1="228.39" y1="357.21" x2="234.62" y2="357.86"/><line x1="260.21" y1="346.05" x2="263.42" y2="337.97"/><line x1="295.30" y1="391.09" x2="303.26" y2="407.55"/><line x1="368.56" y1="323.68" x2="351.39" y2="316.78"/><line x1="299.13" y1="174.40" x2="292.19" y2="171.16"/><line x1="277.42" y1="325.08" x2="277.44" y2="324.27"/><line x1="254.04" y1="161.29" x2="248.49" y2="178.27"/><line x1="142.08" y1="269.32" x2="142.55" y2="275.41"/><line x1="169.73" y1="221.53" x2="151.65" y2="216.66"/><line x1="189.00" y1="345.49" x2="194.04" y2="347.91"/><line x1="250.74" y1="233.29" x2="245.77" y2="210.21"/><line x1="226.18" y1="386.40" x2="221.60" y2="403.49"/><line x1="234.62" y1="357.86" x2="240.97" y2="358.25"/><line x1="263.42" y1="337.97" x2="264.00" y2="337.88"/><line x1="351.39" y1="316.78" x2="369.71" y2="316.28"/><line x1="327.16" y1="219.69" x2="339.76" y2="206.39"/><line x1="271.29" y1="224.06" x2="262.52" y2="233.37"/><line x1="151.65" y1="216.66" x2="167.13" y2="226.89"/><line x1="205.13" y1="230.29" x2="205.71" y2="230.67"/><line x1="200.55" y1="334.08" x2="204.72" y2="335.64"/><line x1="157.30" y1="317.59" x2="160.38" y2="321.90"/><line x1="221.60" y1="403.49" x2="230.08" y2="388.37"/><line x1="318.48" y1="400.45" x2="323.26" y2="397.46"/><line x1="217.81" y1="337.64" x2="247.47" y2="358.38"/><line x1="310.20" y1="339.51" x2="309.76" y2="339.00"/><line x1="230.21" y1="407.11" x2="239.25" y2="409.92"/><line x1="217.81" y1="337.64" x2="251.28" y2="357.03"/><line x1="339.76" y1="206.39" x2="323.13" y2="214.82"/><line x1="188.30" y1="198.01" x2="183.86" y2="202.19"/><line x1="230.18" y1="160.68" x2="227.85" y2="179.03"/><line x1="212.72" y1="378.45" x2="212.54" y2="378.44"/><line x1="160.38" y1="321.90" x2="175.20" y2="311.99"/><line x1="222.91" y1="328.93" x2="247.78" y2="327.03"/><line x1="249.73" y1="358.14" x2="250.15" y2="358.01"/><line x1="234.08" y1="241.68" x2="222.85" y2="326.82"/><line x1="323.26" y1="397.46" x2="313.80" y2="381.12"/><line x1="353.19" y1="296.37" x2="371.19" y2="292.47"/><line x1="277.28" y1="320.17" x2="277.21" y2="319.63"/><line x1="319.25" y1="376.72" x2="324.29" y2="371.99"/><line x1="227.85" y1="179.03" x2="223.22" y2="161.47"/><line x1="205.69" y1="393.85" x2="213.43" y2="399.07"/><line x1="161.73" y1="242.96" x2="144.36" y2="238.71"/><line x1="212.54" y1="378.44" x2="211.81" y2="378.52"/><line x1="163.83" y1="287.33" x2="147.55" y2="298.03"/><line x1="239.25" y1="409.92" x2="244.23" y2="393.46"/><line x1="324.29" y1="371.99" x2="328.92" y2="366.93"/><line x1="250.15" y1="358.01" x2="250.51" y2="357.84"/><line x1="269.47" y1="334.99" x2="271.07" y2="333.93"/><line x1="371.19" y1="292.47" x2="353.03" y2="290.10"/><line x1="274.63" y1="225.69" x2="262.86" y2="233.86"/><line x1="324.07" y1="190.71" x2="309.49" y2="201.72"/><line x1="144.36" y1="238.71" x2="160.72" y2="248.31"/><line x1="171.18" y1="333.43" x2="184.92" y2="323.50"/><line x1="221.98" y1="334.79" x2="221.25" y2="336.04"/><line x1="244.23" y1="393.46" x2="247.67" y2="394.21"/><line x1="239.96" y1="237.43" x2="237.95" y2="238.42"/><line x1="369.49" y1="270.89" x2="368.17" y2="263.87"/><line x1="248.73" y1="411.93" x2="258.65" y2="413.14"/><line x1="309.49" y1="201.72" x2="318.26" y2="186.13"/><line x1="203.10" y1="167.03" x2="209.43" y2="184.34"/><line x1="480.00" y1="32.02" x2="447.51" y2="32.02"/><line x1="260.09" y1="231.36" x2="264.10" y2="220.16"/><line x1="271.29" y1="224.06" x2="267.78" y2="222.22"/><line x1="258.65" y1="413.14" x2="265.81" y2="395.93"/><line x1="184.92" y1="323.50" x2="175.29" y2="336.81"/><line x1="217.81" y1="337.64" x2="216.34" y2="355.13"/><line x1="340.82" y1="382.40" x2="328.92" y2="366.93"/><line x1="217.81" y1="337.64" x2="249.73" y2="358.14"/><line x1="293.55" y1="191.12" x2="287.73" y2="188.14"/><line x1="209.43" y1="184.34" x2="196.64" y2="169.94"/><line x1="207.05" y1="382.53" x2="206.27" y2="383.69"/><line x1="249.70" y1="339.24" x2="250.66" y2="345.51"/><line x1="336.97" y1="355.81" x2="340.38" y2="349.75"/><line x1="251.69" y1="355.34" x2="251.75" y2="354.58"/><line x1="234.08" y1="241.68" x2="247.78" y2="327.03"/><line x1="241.49" y1="210.71" x2="250.74" y2="233.29"/><line x1="350.67" y1="271.43" x2="368.17" y2="263.87"/><line x1="255.06" y1="231.97" x2="253.05" y2="232.55"/><line x1="160.08" y1="264.91" x2="142.08" y2="269.32"/><line x1="206.48" y1="224.43" x2="205.13" y2="230.29"/><line x1="213.51" y1="378.76" x2="204.64" y2="387.07"/><line x1="355.10" y1="362.44" x2="358.03" y2="356.70"/><line x1="213.51" y1="378.76" x2="205.27" y2="393.50"/><line x1="345.46" y1="252.96" x2="343.11" y2="246.94"/><line x1="275.93" y1="330.10" x2="276.57" y2="329.41"/><line x1="310.52" y1="340.02" x2="310.20" y2="339.51"/><line x1="299.13" y1="174.40" x2="287.73" y2="188.14"/><line x1="178.50" y1="181.65" x2="173.12" y2="186.43"/><line x1="212.88" y1="378.47" x2="212.72" y2="378.45"/><line x1="281.92" y1="412.75" x2="287.34" y2="411.91"/><line x1="189.00" y1="345.49" x2="200.55" y2="334.08"/><line x1="222.91" y1="328.18" x2="222.91" y2="328.93"/><line x1="361.94" y1="243.33" x2="359.12" y2="236.71"/><line x1="253.30" y1="341.66" x2="249.70" y2="339.24"/><line x1="277.34" y1="320.75" x2="277.28" y2="320.17"/><line x1="242.39" y1="236.38" x2="235.57" y2="212.55"/><line x1="144.43" y1="287.07" x2="145.84" y2="292.64"/><line x1="277.79" y1="227.11" x2="274.63" y2="225.69"/><line x1="281.25" y1="394.72" x2="288.44" y2="393.21"/><line x1="345.98" y1="336.79" x2="348.19" y2="330.17"/><line x1="266.75" y1="349.89" x2="269.87" y2="351.59"/><line x1="269.00" y1="181.40" x2="262.36" y2="179.95"/><line x1="260.91" y1="231.77" x2="260.50" y2="231.53"/><line x1="222.04" y1="217.58" x2="227.17" y2="215.59"/><line x1="256.80" y1="343.93" x2="261.29" y2="337.62"/><line x1="365.27" y1="337.71" x2="367.08" y2="330.82"/><line x1="234.08" y1="241.68" x2="222.81" y2="326.22"/><line x1="269.87" y1="351.59" x2="272.90" y2="353.15"/><line x1="268.03" y1="335.90" x2="269.47" y2="334.99"/><line x1="263.54" y1="235.38" x2="263.36" y2="234.86"/><line x1="277.13" y1="319.11" x2="263.73" y2="236.45"/><line x1="176.06" y1="211.34" x2="172.72" y2="216.31"/><line x1="260.50" y1="231.53" x2="260.09" y2="231.36"/><line x1="205.69" y1="393.85" x2="222.11" y2="384.15"/><line x1="213.51" y1="378.76" x2="207.88" y2="381.45"/><line x1="227.17" y1="215.59" x2="231.68" y2="213.92"/><line x1="249.19" y1="329.60" x2="221.98" y2="334.79"/><line x1="213.51" y1="378.76" x2="204.13" y2="390.98"/><line x1="324.29" y1="371.99" x2="340.82" y2="382.40"/><line x1="334.38" y1="230.02" x2="330.91" y2="224.76"/><line x1="269.47" y1="334.99" x2="306.12" y2="336.30"/><line x1="274.63" y1="225.69" x2="263.14" y2="234.36"/><line x1="288.72" y1="233.64" x2="288.49" y2="233.01"/><line x1="159.12" y1="203.33" x2="155.16" y2="209.83"/><line x1="304.24" y1="332.73" x2="289.25" y2="236.09"/><line x1="151.90" y1="308.26" x2="154.47" y2="313.04"/><line x1="207.88" y1="381.45" x2="207.05" y2="382.53"/><line x1="263.53" y1="348.04" x2="266.77" y2="336.65"/><line x1="308.45" y1="405.49" x2="313.55" y2="403.13"/><line x1="221.98" y1="334.79" x2="250.10" y2="330.58"/><line x1="285.34" y1="357.95" x2="287.23" y2="358.27"/><line x1="369.49" y1="270.89" x2="350.67" y2="271.43"/><line x1="245.77" y1="160.64" x2="237.27" y2="160.41"/><line x1="288.49" y1="233.01" x2="288.24" y2="232.47"/><line x1="242.39" y1="236.38" x2="216.98" y2="219.61"/><line x1="480.00" y1="32.02" x2="480.00" y2="64.50"/><line x1="169.89" y1="302.86" x2="172.42" y2="307.57"/><line x1="141.93" y1="263.05" x2="160.08" y2="264.91"/><line x1="258.65" y1="413.14" x2="262.06" y2="395.86"/><line x1="352.39" y1="310.03" x2="352.99" y2="303.22"/><line x1="287.23" y1="358.27" x2="288.92" y2="358.38"/><line x1="305.02" y1="335.00" x2="275.07" y2="330.91"/><line x1="241.25" y1="178.02" x2="234.44" y2="178.27"/><line x1="293.55" y1="191.12" x2="299.13" y2="174.40"/><line x1="148.68" y1="223.75" x2="146.25" y2="231.10"/><line x1="480.00" y1="479.91" x2="480.00" y2="447.42"/><line x1="256.76" y1="231.56" x2="255.06" y2="231.97"/><line x1="233.84" y1="390.06" x2="237.42" y2="391.45"/><line x1="206.64" y1="231.61" x2="237.95" y2="238.42"/><line x1="196.48" y1="332.09" x2="189.00" y2="345.49"/><line x1="220.31" y1="336.93" x2="219.16" y2="337.46"/><line x1="336.97" y1="355.81" x2="355.10" y2="362.44"/><line x1="266.77" y1="336.65" x2="310.20" y2="339.51"/><line x1="334.84" y1="200.88" x2="329.60" y2="195.63"/><line x1="275.07" y1="330.91" x2="275.93" y2="330.10"/><line x1="285.85" y1="230.50" x2="284.87" y2="230.02"/><line x1="277.13" y1="319.11" x2="284.87" y2="230.02"/><line x1="164.93" y1="232.25" x2="163.13" y2="237.60"/><line x1="193.11" y1="194.08" x2="178.50" y2="181.65"/><line x1="213.51" y1="378.76" x2="211.81" y2="378.52"/><line x1="163.73" y1="325.98" x2="167.33" y2="329.82"/><line x1="235.18" y1="240.18" x2="207.48" y2="233.48"/><line x1="204.15" y1="389.25" x2="204.10" y2="390.31"/><line x1="327.89" y1="394.17" x2="332.35" y2="390.55"/><line x1="213.51" y1="378.76" x2="205.06" y2="385.97"/><line x1="219.16" y1="337.46" x2="217.81" y2="337.64"/><line x1="293.47" y1="356.41" x2="294.59" y2="355.54"/><line x1="213.51" y1="378.76" x2="204.91" y2="393.10"/><line x1="318.84" y1="210.17" x2="314.28" y2="205.81"/><line x1="345.46" y1="252.96" x2="361.94" y2="243.33"/><line x1="221.48" y1="180.30" x2="215.35" y2="182.07"/><line x1="284.87" y1="230.02" x2="283.70" y2="229.50"/><line x1="304.24" y1="332.73" x2="277.39" y2="321.36"/><line x1="178.50" y1="181.65" x2="188.30" y2="198.01"/><line x1="447.51" y1="479.91" x2="480.00" y2="447.42"/><line x1="178.20" y1="316.12" x2="181.44" y2="319.96"/><line x1="162.43" y1="281.89" x2="144.43" y2="287.07"/><line x1="281.92" y1="412.75" x2="281.25" y2="394.72"/><line x1="251.20" y1="348.28" x2="250.95" y2="346.94"/><line x1="294.59" y1="355.54" x2="295.79" y2="354.51"/><line x1="361.94" y1="243.33" x2="343.11" y2="246.94"/><line x1="216.38" y1="162.80" x2="209.68" y2="164.65"/><line x1="277.59" y1="165.90" x2="269.00" y2="181.40"/><line x1="235.57" y1="212.55" x2="238.84" y2="211.47"/><line x1="249.86" y1="211.84" x2="248.25" y2="211.08"/><line x1="242.39" y1="236.38" x2="206.21" y2="231.10"/><line x1="221.25" y1="336.04" x2="254.17" y2="333.84"/><line x1="207.27" y1="232.80" x2="207.48" y2="233.48"/><line x1="144.43" y1="287.07" x2="163.83" y2="287.33"/><line x1="352.56" y1="283.86" x2="351.77" y2="277.63"/><line x1="345.98" y1="336.79" x2="365.27" y2="337.71"/><line x1="277.13" y1="328.30" x2="277.21" y2="327.77"/><line x1="269.00" y1="181.40" x2="269.96" y2="163.92"/><line x1="160.12" y1="253.67" x2="159.92" y2="259.02"/><line x1="163.43" y1="197.27" x2="176.06" y2="211.34"/><line x1="205.27" y1="393.50" x2="205.69" y2="393.85"/><line x1="266.77" y1="336.65" x2="292.42" y2="357.11"/><line x1="333.15" y1="361.53" x2="336.97" y2="355.81"/><line x1="213.35" y1="337.42" x2="210.51" y2="353.71"/><line x1="266.77" y1="336.65" x2="310.59" y2="341.41"/><line x1="365.27" y1="337.71" x2="348.19" y2="330.17"/><line x1="312.17" y1="181.89" x2="305.79" y2="177.98"/><line x1="352.44" y1="224.02" x2="334.38" y2="230.02"/><line x1="277.13" y1="319.11" x2="287.96" y2="232.01"/><line x1="266.77" y1="336.65" x2="307.67" y2="337.44"/><line x1="263.54" y1="235.38" x2="274.63" y2="225.69"/><line x1="277.13" y1="319.11" x2="277.79" y2="227.11"/><line x1="213.51" y1="378.76" x2="213.17" y2="378.54"/><line x1="176.06" y1="211.34" x2="159.12" y2="203.33"/><line x1="179.63" y1="339.94" x2="184.19" y2="342.84"/><line x1="213.51" y1="378.76" x2="208.70" y2="380.52"/><line x1="303.26" y1="407.55" x2="308.45" y2="405.49"/><line x1="213.51" y1="378.76" x2="204.10" y2="390.31"/><line x1="334.38" y1="230.02" x2="348.56" y2="217.96"/><line x1="304.24" y1="332.73" x2="277.42" y2="325.08"/><line x1="248.49" y1="178.27" x2="245.77" y2="160.64"/><line x1="304.24" y1="332.73" x2="277.13" y2="319.11"/><line x1="151.90" y1="308.26" x2="169.89" y2="302.86"/><line x1="263.53" y1="348.04" x2="265.68" y2="337.22"/><line x1="308.45" y1="405.49" x2="301.82" y2="388.37"/><line x1="369.71" y1="316.28" x2="352.39" y2="310.03"/><line x1="323.13" y1="214.82" x2="318.84" y2="210.17"/><line x1="245.77" y1="160.64" x2="241.25" y2="178.02"/><line x1="251.41" y1="349.54" x2="251.20" y2="348.28"/><line x1="167.13" y1="226.89" x2="148.68" y2="223.75"/><line x1="242.39" y1="236.38" x2="212.70" y2="221.43"/><line x1="343.38" y1="343.37" x2="345.98" y2="336.79"/><line x1="313.80" y1="381.12" x2="319.25" y2="376.72"/><line x1="247.47" y1="358.38" x2="248.12" y2="358.36"/><line x1="352.39" y1="310.03" x2="370.53" y2="308.60"/><line x1="223.22" y1="161.47" x2="216.38" y2="162.80"/><line x1="148.68" y1="223.75" x2="164.93" y2="232.25"/><line x1="480.00" y1="479.91" x2="447.51" y2="479.91"/><line x1="288.44" y1="393.21" x2="295.30" y2="391.09"/><line x1="248.04" y1="327.83" x2="248.50" y2="328.68"/><line x1="266.77" y1="336.65" x2="287.23" y2="358.27"/><line x1="266.77" y1="336.65" x2="308.54" y2="343.26"/><line x1="353.03" y1="290.10" x2="352.56" y2="283.86"/><line x1="266.77" y1="336.65" x2="310.52" y2="340.02"/><line x1="277.13" y1="319.11" x2="289.10" y2="235.18"/><line x1="334.84" y1="200.88" x2="318.84" y2="210.17"/><line x1="204.82" y1="352.02" x2="213.35" y2="337.42"/><line x1="277.13" y1="319.11" x2="285.85" y2="230.50"/><line x1="213.51" y1="378.76" x2="212.54" y2="378.44"/><line x1="163.73" y1="325.98" x2="178.20" y2="316.12"/><line x1="235.18" y1="240.18" x2="207.27" y2="232.80"/><line x1="327.89" y1="394.17" x2="319.25" y2="376.72"/><line x1="213.51" y1="378.76" x2="205.60" y2="384.84"/><line x1="371.00" y1="285.19" x2="370.43" y2="277.99"/><line x1="318.26" y1="186.13" x2="312.17" y2="181.89"/><line x1="304.24" y1="332.73" x2="277.13" y2="328.30"/><line x1="264.10" y1="220.16" x2="259.27" y2="231.23"/><line x1="221.48" y1="180.30" x2="216.38" y2="162.80"/><line x1="304.24" y1="332.73" x2="277.42" y2="322.00"/><line x1="206.21" y1="231.10" x2="239.96" y2="237.43"/><line x1="143.01" y1="246.57" x2="142.20" y2="254.68"/><line x1="251.17" y1="394.83" x2="254.74" y2="395.31"/><line x1="328.92" y1="366.93" x2="333.15" y2="361.53"/><line x1="250.82" y1="357.65" x2="251.07" y2="357.39"/><line x1="260.07" y1="337.21" x2="256.80" y2="343.93"/><line x1="167.58" y1="297.85" x2="151.90" y2="308.26"/><line x1="304.43" y1="197.91" x2="299.12" y2="194.38"/><line x1="203.16" y1="228.28" x2="203.38" y2="228.73"/><line x1="188.63" y1="326.76" x2="192.51" y2="329.65"/><line x1="242.39" y1="236.38" x2="231.68" y2="213.92"/><line x1="221.25" y1="336.04" x2="252.59" y2="332.70"/><line x1="344.77" y1="377.85" x2="348.47" y2="373.01"/><line x1="368.17" y1="263.87" x2="366.47" y2="256.93"/><line x1="272.64" y1="332.82" x2="273.97" y2="331.81"/><line x1="310.36" y1="341.68" x2="310.59" y2="341.41"/><line x1="203.74" y1="187.12" x2="198.28" y2="190.41"/><line x1="172.42" y1="307.57" x2="175.20" y2="311.99"/><line x1="266.77" y1="336.65" x2="275.78" y2="354.54"/><line x1="265.81" y1="395.93" x2="270.91" y2="413.54"/><line x1="307.98" y1="385.05" x2="313.80" y2="381.12"/><line x1="222.68" y1="325.13" x2="222.75" y2="325.65"/><line x1="266.77" y1="336.65" x2="291.44" y2="357.67"/><line x1="349.25" y1="265.26" x2="347.51" y2="259.10"/><line x1="266.77" y1="336.65" x2="310.36" y2="341.68"/><line x1="310.59" y1="341.41" x2="310.73" y2="341.19"/><line x1="267.78" y1="222.22" x2="264.10" y2="220.16"/><line x1="287.73" y1="188.14" x2="281.69" y2="185.49"/><line x1="266.77" y1="336.65" x2="308.49" y2="337.96"/><line x1="277.13" y1="319.11" x2="288.24" y2="232.47"/><line x1="256.24" y1="215.42" x2="253.86" y2="214.01"/><line x1="160.55" y1="270.68" x2="161.33" y2="276.34"/><line x1="277.13" y1="319.11" x2="280.79" y2="228.32"/><line x1="213.51" y1="378.76" x2="213.41" y2="378.67"/><line x1="222.75" y1="325.65" x2="222.81" y2="326.22"/><line x1="213.51" y1="378.76" x2="209.50" y2="379.77"/><line x1="340.38" y1="349.75" x2="343.38" y2="343.37"/><line x1="264.00" y1="337.88" x2="263.53" y2="348.04"/><line x1="292.19" y1="171.16" x2="285.00" y2="168.31"/><line x1="277.44" y1="323.39" x2="277.44" y2="322.68"/><line x1="203.02" y1="227.81" x2="204.54" y2="225.60"/><line x1="304.24" y1="332.73" x2="277.39" y2="325.84"/><line x1="253.05" y1="232.55" x2="250.74" y2="233.29"/><line x1="205.71" y1="230.67" x2="242.39" y2="236.38"/><line x1="304.24" y1="332.73" x2="277.21" y2="319.63"/><line x1="194.04" y1="347.91" x2="199.31" y2="350.09"/><line x1="230.08" y1="388.37" x2="233.84" y2="390.06"/><line x1="358.03" y1="356.70" x2="360.71" y2="350.66"/><line x1="263.53" y1="348.04" x2="264.76" y2="337.63"/><line x1="343.11" y1="246.94" x2="340.48" y2="241.11"/><line x1="276.57" y1="329.41" x2="276.97" y2="328.80"/><line x1="309.76" y1="339.00" x2="309.19" y2="338.48"/><line x1="323.13" y1="214.82" x2="334.84" y2="200.88"/><line x1="173.12" y1="186.43" x2="168.10" y2="191.64"/><line x1="262.14" y1="232.89" x2="261.73" y2="232.44"/><line x1="242.39" y1="236.38" x2="209.20" y2="223.03"/><line x1="257.33" y1="335.86" x2="258.75" y2="336.62"/><line x1="247.78" y1="327.03" x2="248.04" y2="327.83"/><line x1="313.80" y1="381.12" x2="327.89" y2="394.17"/><line x1="359.12" y1="236.71" x2="355.96" y2="230.27"/><line x1="309.19" y1="338.48" x2="308.49" y2="337.96"/><line x1="223.22" y1="161.47" x2="221.48" y2="180.30"/><line x1="211.81" y1="378.52" x2="211.06" y2="378.77"/><line x1="288.44" y1="393.21" x2="298.01" y2="409.30"/><line x1="248.04" y1="327.83" x2="222.81" y2="331.24"/><line x1="266.77" y1="336.65" x2="285.34" y2="357.95"/><line x1="263.66" y1="235.92" x2="263.54" y2="235.38"/><line x1="272.90" y1="353.15" x2="275.78" y2="354.54"/><line x1="266.77" y1="336.65" x2="295.79" y2="354.51"/><line x1="353.03" y1="290.10" x2="371.00" y2="285.19"/><line x1="262.36" y1="179.95" x2="255.53" y2="178.91"/><line x1="266.77" y1="336.65" x2="310.71" y2="340.53"/><line x1="277.13" y1="319.11" x2="289.25" y2="236.09"/><line x1="277.13" y1="319.11" x2="286.64" y2="230.93"/><line x1="250.10" y1="330.58" x2="251.24" y2="331.60"/><line x1="247.67" y1="394.21" x2="251.17" y2="394.83"/><line x1="367.08" y1="330.82" x2="368.56" y2="323.68"/><line x1="275.78" y1="354.54" x2="278.47" y2="355.71"/><line x1="213.29" y1="378.60" x2="213.51" y2="378.76"/><line x1="318.26" y1="186.13" x2="304.43" y2="197.91"/><line x1="172.72" y1="216.31" x2="169.73" y2="221.53"/><line x1="264.10" y1="220.16" x2="259.68" y2="231.26"/><line x1="304.24" y1="332.73" x2="277.44" y2="322.68"/><line x1="277.44" y1="324.27" x2="277.44" y2="323.39"/><line x1="328.92" y1="366.93" x2="344.77" y2="377.85"/><line x1="271.07" y1="333.93" x2="272.64" y2="332.82"/><line x1="206.27" y1="383.69" x2="205.60" y2="384.84"/><line x1="188.63" y1="326.76" x2="179.63" y2="339.94"/><line x1="221.25" y1="336.04" x2="251.24" y2="331.60"/><line x1="262.52" y1="233.37" x2="262.14" y2="232.89"/><line x1="217.81" y1="337.64" x2="251.41" y2="349.54"/><line x1="368.17" y1="263.87" x2="349.25" y2="265.26"/><line x1="204.54" y1="225.60" x2="204.56" y2="229.94"/><line x1="287.96" y1="232.01" x2="287.65" y2="231.65"/><line x1="146.25" y1="231.10" x2="144.36" y2="238.71"/><line x1="172.42" y1="307.57" x2="160.38" y2="321.90"/><line x1="266.77" y1="336.65" x2="272.90" y2="353.15"/><line x1="217.81" y1="337.64" x2="257.33" y2="335.86"/><line x1="265.81" y1="395.93" x2="269.00" y2="413.54"/><line x1="251.77" y1="353.71" x2="251.75" y2="352.80"/><line x1="289.69" y1="358.29" x2="290.53" y2="358.06"/><line x1="266.77" y1="336.65" x2="290.53" y2="358.06"/><line x1="304.65" y1="334.29" x2="304.39" y2="333.53"/><line x1="175.20" y1="311.99" x2="163.73" y2="325.98"/><line x1="267.78" y1="222.22" x2="260.09" y2="231.36"/><line x1="287.73" y1="188.14" x2="292.19" y2="171.16"/><line x1="256.24" y1="215.42" x2="253.05" y2="232.55"/><line x1="160.55" y1="270.68" x2="142.55" y2="275.41"/><line x1="277.21" y1="319.63" x2="277.13" y2="319.11"/><line x1="306.83" y1="336.89" x2="306.12" y2="336.30"/><line x1="340.38" y1="349.75" x2="358.03" y2="356.70"/><line x1="215.35" y1="182.07" x2="209.43" y2="184.34"/><line x1="250.51" y1="357.84" x2="250.82" y2="357.65"/><line x1="203.02" y1="227.81" x2="202.98" y2="227.31"/><line x1="207.48" y1="233.48" x2="207.61" y2="234.24"/><line x1="204.13" y1="390.98" x2="204.23" y2="391.58"/><line x1="287.34" y1="411.91" x2="292.70" y2="410.75"/><line x1="194.04" y1="347.91" x2="204.72" y2="335.64"/><line x1="160.72" y1="248.31" x2="143.01" y2="246.57"/><line x1="343.11" y1="246.94" x2="359.12" y2="236.71"/><line x1="245.24" y1="235.26" x2="248.14" y2="234.19"/><line x1="173.12" y1="186.43" x2="183.86" y2="202.19"/><line x1="306.12" y1="336.30" x2="271.07" y2="333.93"/><line x1="234.42" y1="240.97" x2="234.08" y2="241.68"/><line x1="217.81" y1="337.64" x2="251.75" y2="354.58"/><line x1="348.19" y1="330.17" x2="349.99" y2="323.49"/><line x1="175.29" y1="336.81" x2="188.63" y2="326.76"/><line x1="254.17" y1="333.84" x2="255.80" y2="334.94"/><line x1="145.84" y1="292.64" x2="147.55" y2="298.03"/><line x1="196.64" y1="169.94" x2="203.74" y2="187.12"/><line x1="266.77" y1="336.65" x2="283.25" y2="357.41"/><line x1="262.36" y1="179.95" x2="262.11" y2="162.39"/><line x1="251.75" y1="354.58" x2="251.77" y2="353.71"/><line x1="222.11" y1="384.15" x2="226.18" y2="386.40"/><line x1="301.82" y1="388.37" x2="307.98" y2="385.05"/><line x1="216.34" y1="355.13" x2="222.30" y2="356.30"/><line x1="250.10" y1="330.58" x2="221.25" y2="336.04"/><line x1="142.08" y1="269.32" x2="160.55" y2="270.68"/><line x1="330.91" y1="224.76" x2="327.16" y2="219.69"/><line x1="250.74" y1="233.29" x2="246.88" y2="210.54"/><line x1="172.72" y1="216.31" x2="155.16" y2="209.83"/><line x1="480.00" y1="64.50" x2="447.51" y2="32.02"/><line x1="154.47" y1="313.04" x2="157.30" y2="317.59"/><line x1="313.55" y1="403.13" x2="318.48" y2="400.45"/><line x1="370.53" y1="308.60" x2="371.02" y2="300.67"/><line x1="200.55" y1="334.08" x2="194.04" y2="347.91"/><line x1="237.27" y1="160.41" x2="230.18" y2="160.68"/><line x1="217.81" y1="337.64" x2="240.97" y2="358.25"/><line x1="230.21" y1="407.11" x2="240.85" y2="392.56"/><line x1="217.81" y1="337.64" x2="251.07" y2="357.39"/><line x1="188.30" y1="198.01" x2="173.12" y2="186.43"/><line x1="217.81" y1="337.64" x2="251.57" y2="350.71"/><line x1="352.99" y1="303.22" x2="353.19" y2="296.37"/><line x1="204.54" y1="225.60" x2="204.08" y2="229.56"/><line x1="261.32" y1="232.08" x2="260.91" y2="231.77"/><line x1="250.95" y1="346.94" x2="250.66" y2="345.51"/><line x1="146.25" y1="231.10" x2="161.73" y2="242.96"/><line x1="269.96" y1="163.92" x2="262.11" y2="162.39"/><line x1="319.25" y1="376.72" x2="336.67" y2="386.63"/><line x1="217.81" y1="337.64" x2="255.80" y2="334.94"/><line x1="163.83" y1="287.33" x2="145.84" y2="292.64"/><line x1="329.60" y1="195.63" x2="324.07" y2="190.71"/><line x1="304.65" y1="334.29" x2="276.57" y2="329.41"/><line x1="267.78" y1="222.22" x2="260.50" y2="231.53"/><line x1="167.33" y1="329.82" x2="171.18" y2="333.43"/><line x1="215.35" y1="182.07" x2="203.10" y2="167.03"/><line x1="282.34" y1="228.93" x2="280.79" y2="228.32"/><line x1="239.96" y1="237.43" x2="206.64" y2="231.61"/><line x1="348.56" y1="217.96" x2="344.34" y2="212.08"/><line x1="248.73" y1="411.93" x2="258.37" y2="395.66"/><line x1="207.48" y1="233.48" x2="234.42" y2="240.97"/><line x1="287.34" y1="411.91" x2="288.44" y2="393.21"/><line x1="370.43" y1="277.99" x2="369.49" y2="270.89"/><line x1="271.29" y1="224.06" x2="261.32" y2="232.08"/><line x1="217.81" y1="337.64" x2="210.51" y2="353.71"/><line x1="142.20" y1="254.68" x2="141.93" y2="263.05"/><line x1="246.88" y1="210.54" x2="245.77" y2="210.21"/><line x1="217.81" y1="337.64" x2="249.25" y2="358.24"/><line x1="288.24" y1="232.47" x2="287.96" y2="232.01"/><line x1="217.81" y1="337.64" x2="251.69" y2="355.34"/><line x1="348.19" y1="330.17" x2="367.08" y2="330.82"/><line x1="217.81" y1="337.64" x2="250.66" y2="345.51"/><line x1="299.12" y1="194.38" x2="293.55" y2="191.12"/><line x1="277.28" y1="327.19" x2="277.34" y2="326.54"/><line x1="262.06" y1="395.86" x2="265.81" y2="395.93"/><line x1="258.17" y1="231.31" x2="256.76" y2="231.56"/><line x1="288.92" y1="358.38" x2="289.69" y2="358.29"/><line x1="203.68" y1="229.16" x2="204.08" y2="229.56"/><line x1="234.08" y1="241.68" x2="222.91" y2="328.93"/><line x1="254.17" y1="333.84" x2="217.81" y2="337.64"/><line x1="217.89" y1="381.60" x2="222.11" y2="384.15"/><line x1="192.51" y1="329.65" x2="196.48" y2="332.09"/><line x1="255.06" y1="231.97" x2="256.24" y2="215.42"/><line x1="273.97" y1="331.81" x2="275.07" y2="330.91"/><line x1="198.28" y1="190.41" x2="193.11" y2="194.08"/><line x1="263.36" y1="234.86" x2="263.14" y2="234.36"/><line x1="239.25" y1="409.92" x2="248.73" y2="411.93"/><line x1="355.10" y1="362.44" x2="340.38" y2="349.75"/><line x1="275.93" y1="330.10" x2="304.65" y2="334.29"/><line x1="273.70" y1="395.63" x2="281.25" y2="394.72"/><line x1="301.82" y1="388.37" x2="313.55" y2="403.13"/><line x1="347.51" y1="259.10" x2="345.46" y2="252.96"/><line x1="310.77" y1="341.03" x2="310.71" y2="340.53"/><line x1="204.10" y1="390.31" x2="204.13" y2="390.98"/><line x1="250.74" y1="233.29" x2="248.25" y2="211.08"/><line x1="161.33" y1="276.34" x2="162.43" y2="281.89"/><line x1="213.17" y1="378.54" x2="213.03" y2="378.49"/><line x1="253.30" y1="341.66" x2="256.80" y2="343.93"/><line x1="283.70" y1="229.50" x2="282.34" y2="228.93"/><line x1="370.53" y1="308.60" x2="352.99" y2="303.22"/><line x1="277.79" y1="227.11" x2="263.54" y2="235.38"/><line x1="277.42" y1="322.00" x2="277.39" y2="321.36"/><line x1="281.25" y1="394.72" x2="287.34" y2="411.91"/><line x1="295.79" y1="354.51" x2="308.54" y2="343.26"/><line x1="217.81" y1="337.64" x2="234.62" y2="357.86"/><line x1="199.31" y1="350.09" x2="204.82" y2="352.02"/><line x1="230.21" y1="407.11" x2="237.42" y2="391.45"/><line x1="217.81" y1="337.64" x2="250.82" y2="357.65"/><line x1="265.68" y1="337.22" x2="266.77" y2="336.65"/><line x1="248.25" y1="211.08" x2="246.88" y2="210.54"/><line x1="217.81" y1="337.64" x2="251.68" y2="351.79"/><line x1="206.64" y1="231.61" x2="207.00" y2="232.17"/><line x1="204.54" y1="225.60" x2="203.68" y2="229.16"/><line x1="261.32" y1="232.08" x2="267.78" y2="222.22"/><line x1="234.08" y1="241.68" x2="222.75" y2="325.65"/><line x1="277.21" y1="327.77" x2="277.28" y2="327.19"/><line x1="248.50" y1="328.68" x2="249.19" y2="329.60"/><line x1="269.96" y1="163.92" x2="262.36" y2="179.95"/><line x1="319.25" y1="376.72" x2="332.35" y2="390.55"/><line x1="307.67" y1="337.44" x2="306.83" y2="336.89"/><line x1="205.69" y1="393.85" x2="217.89" y2="381.60"/><line x1="210.51" y1="353.71" x2="216.34" y2="355.13"/><line x1="206.48" y1="224.43" x2="209.20" y2="223.03"/><line x1="32.16" y1="32.09" x2="32.16" y2="64.58"/><line x1="210.29" y1="379.19" x2="209.50" y2="379.77"/><line x1="260.21" y1="346.05" x2="263.53" y2="348.04"/><line x1="274.63" y1="225.69" x2="263.36" y2="234.86"/><line x1="159.12" y1="203.33" x2="172.72" y2="216.31"/><line x1="289.10" y1="235.18" x2="288.92" y2="234.37"/><line x1="310.73" y1="341.19" x2="310.77" y2="341.03"/><line x1="250.74" y1="233.29" x2="243.52" y2="210.25"/><line x1="348.56" y1="217.96" x2="330.91" y2="224.76"/><line x1="248.73" y1="411.93" x2="254.74" y2="395.31"/><line x1="305.51" y1="335.68" x2="305.02" y2="335.00"/><line x1="222.81" y1="326.22" x2="222.85" y2="326.82"/><line x1="271.29" y1="224.06" x2="261.73" y2="232.44"/><line x1="169.89" y1="302.86" x2="154.47" y2="313.04"/><line x1="217.81" y1="337.64" x2="213.35" y2="337.42"/><line x1="277.44" y1="322.68" x2="277.42" y2="322.00"/><line x1="217.81" y1="337.64" x2="248.72" y2="358.32"/><line x1="241.25" y1="178.02" x2="237.27" y2="160.41"/><line x1="217.81" y1="337.64" x2="251.60" y2="356.01"/><line x1="233.84" y1="390.06" x2="230.21" y2="407.11"/><line x1="248.12" y1="358.36" x2="248.72" y2="358.32"/><line x1="222.91" y1="328.93" x2="222.81" y2="331.24"/><line x1="234.08" y1="241.68" x2="222.91" y2="328.18"/><line x1="270.91" y1="413.54" x2="276.44" y2="413.29"/><line x1="164.93" y1="232.25" x2="146.25" y2="231.10"/><line x1="241.49" y1="210.71" x2="243.52" y2="210.25"/><line x1="222.81" y1="331.24" x2="222.50" y2="333.19"/><line x1="253.86" y1="214.01" x2="251.73" y2="212.82"/><line x1="239.25" y1="409.92" x2="251.17" y2="394.83"/><line x1="213.51" y1="378.76" x2="204.62" y2="392.65"/><line x1="236.36" y1="239.33" x2="235.18" y2="240.18"/><line x1="318.84" y1="210.17" x2="329.60" y2="195.63"/><line x1="251.68" y1="351.79" x2="251.57" y2="350.71"/><line x1="304.39" y1="333.53" x2="304.24" y2="332.73"/><line x1="178.20" y1="316.12" x2="167.33" y2="329.82"/><line x1="285.00" y1="168.31" x2="277.59" y2="165.90"/><line x1="209.20" y1="223.03" x2="212.70" y2="221.43"/><line x1="253.30" y1="341.66" x2="260.07" y2="337.21"/><line x1="216.38" y1="162.80" x2="215.35" y2="182.07"/><line x1="235.57" y1="212.55" x2="245.24" y2="235.26"/><line x1="277.79" y1="227.11" x2="263.66" y2="235.92"/><line x1="251.07" y1="357.39" x2="251.28" y2="357.03"/><line x1="238.84" y1="211.47" x2="241.49" y2="210.71"/><line x1="168.10" y1="191.64" x2="163.43" y2="197.27"/><line x1="352.56" y1="283.86" x2="370.43" y2="277.99"/><line x1="217.81" y1="337.64" x2="228.39" y2="357.21"/><line x1="199.31" y1="350.09" x2="208.98" y2="336.75"/><line x1="160.12" y1="253.67" x2="142.20" y2="254.68"/><line x1="203.38" y1="228.73" x2="203.68" y2="229.16"/><line x1="355.96" y1="230.27" x2="352.44" y2="224.02"/><line x1="333.15" y1="361.53" x2="351.90" y2="367.87"/><line x1="206.64" y1="231.61" x2="236.36" y2="239.33"/><line x1="165.55" y1="292.65" x2="167.58" y2="297.85"/><line x1="234.08" y1="241.68" x2="222.68" y2="325.13"/><line x1="312.17" y1="181.89" x2="299.12" y2="194.38"/><line x1="298.01" y1="409.30" x2="303.26" y2="407.55"/><line x1="32.00" y1="479.98" x2="64.49" y2="479.98"/><line x1="190.32" y1="173.39" x2="184.23" y2="177.30"/><line x1="179.63" y1="339.94" x2="192.51" y2="329.65"/><line x1="255.53" y1="178.91" x2="248.49" y2="178.27"/><line x1="206.48" y1="224.43" x2="242.39" y2="236.38"/><line x1="213.51" y1="378.76" x2="204.15" y2="389.25"/><line x1="366.47" y1="256.93" x2="364.39" y2="250.09"/><line x1="213.51" y1="378.76" x2="217.89" y2="381.60"/><line x1="260.21" y1="346.05" x2="264.00" y2="337.88"/><line x1="368.56" y1="323.68" x2="369.71" y2="316.28"/><line x1="142.55" y1="275.41" x2="143.33" y2="281.33"/><line x1="262.86" y1="233.86" x2="262.52" y2="233.37"/><line x1="169.73" y1="221.53" x2="167.13" y2="226.89"/><line x1="226.18" y1="386.40" x2="230.08" y2="388.37"/><line x1="281.69" y1="185.49" x2="275.45" y2="183.24"/><line x1="327.16" y1="219.69" x2="323.13" y2="214.82"/><line x1="204.72" y1="335.64" x2="208.98" y2="336.75"/><line x1="242.39" y1="236.38" x2="245.24" y2="235.26"/><line x1="343.38" y1="343.37" x2="363.14" y2="344.32"/><line x1="264.76" y1="337.63" x2="265.68" y2="337.22"/><line x1="205.06" y1="385.97" x2="204.64" y2="387.07"/><line x1="183.86" y1="202.19" x2="179.78" y2="206.64"/><line x1="261.73" y1="232.44" x2="261.32" y2="232.08"/><line x1="230.18" y1="160.68" x2="223.22" y2="161.47"/><line x1="340.48" y1="241.11" x2="337.57" y2="235.47"/><line x1="256.80" y1="343.93" x2="260.21" y2="346.05"/><line x1="308.49" y1="337.96" x2="307.67" y2="337.44"/><line x1="270.91" y1="413.54" x2="273.70" y2="395.63"/><line x1="353.19" y1="296.37" x2="353.03" y2="290.10"/><line x1="147.55" y1="298.03" x2="149.58" y2="303.25"/><line x1="211.06" y1="378.77" x2="210.29" y2="379.19"/><line x1="213.51" y1="378.76" x2="212.72" y2="378.45"/><line x1="222.81" y1="331.24" x2="248.50" y2="328.68"/><line x1="213.51" y1="378.76" x2="206.27" y2="383.69"/><line x1="161.73" y1="242.96" x2="160.72" y2="248.31"/><line x1="253.86" y1="214.01" x2="250.74" y2="233.29"/><line x1="371.00" y1="285.19" x2="352.56" y2="283.86"/><line x1="239.25" y1="409.92" x2="247.67" y2="394.21"/><line x1="213.51" y1="378.76" x2="204.39" y2="392.14"/><line x1="289.25" y1="236.09" x2="289.10" y2="235.18"/><line x1="262.11" y1="162.39" x2="254.04" y2="161.29"/><line x1="143.01" y1="246.57" x2="160.12" y2="253.67"/><line x1="274.63" y1="225.69" x2="271.29" y2="224.06"/><line x1="324.07" y1="190.71" x2="318.26" y2="186.13"/><line x1="251.17" y1="394.83" x2="248.73" y2="411.93"/><line x1="349.99" y1="323.49" x2="351.39" y2="316.78"/><line x1="278.47" y1="355.71" x2="280.96" y2="356.67"/><line x1="171.18" y1="333.43" x2="175.29" y2="336.81"/><line x1="204.39" y1="392.14" x2="204.62" y2="392.65"/><line x1="304.43" y1="197.91" x2="312.17" y2="181.89"/><line x1="155.16" y1="209.83" x2="151.65" y2="216.66"/><line x1="259.68" y1="231.26" x2="259.27" y2="231.23"/><line x1="213.43" y1="399.07" x2="221.60" y2="403.49"/><line x1="242.39" y1="236.38" x2="227.17" y2="215.59"/><line x1="203.10" y1="167.03" x2="196.64" y2="169.94"/><line x1="277.79" y1="227.11" x2="263.73" y2="236.45"/><line x1="344.77" y1="377.85" x2="333.15" y2="361.53"/><line x1="238.84" y1="211.47" x2="248.14" y2="234.19"/><line x1="344.34" y1="212.08" x2="339.76" y2="206.39"/><line x1="272.64" y1="332.82" x2="305.51" y2="335.68"/><line x1="258.65" y1="413.14" x2="269.00" y2="413.54"/><line x1="203.74" y1="187.12" x2="190.32" y2="173.39"/><line x1="305.02" y1="335.00" x2="304.65" y2="334.29"/><line x1="205.60" y1="384.84" x2="205.06" y2="385.97"/><line x1="307.98" y1="385.05" x2="323.26" y2="397.46"/><line x1="251.24" y1="331.60" x2="252.59" y2="332.70"/><line x1="333.15" y1="361.53" x2="348.47" y2="373.01"/><line x1="244.92" y1="210.10" x2="243.52" y2="210.25"/><line x1="349.25" y1="265.26" x2="366.47" y2="256.93"/><line x1="266.77" y1="336.65" x2="310.05" y2="341.99"/><line x1="234.44" y1="178.27" x2="227.85" y2="179.03"/><line x1="287.65" y1="231.65" x2="287.24" y2="231.31"/><line x1="266.77" y1="336.65" x2="309.19" y2="338.48"/><line x1="32.00" y1="479.98" x2="32.00" y2="447.50"/><line x1="277.13" y1="319.11" x2="288.49" y2="233.01"/><line x1="190.32" y1="173.39" x2="198.28" y2="190.41"/><line x1="277.13" y1="319.11" x2="282.34" y2="228.93"/><line x1="277.39" y1="325.84" x2="277.42" y2="325.08"/><line x1="269.00" y1="413.54" x2="270.91" y2="413.54"/><line x1="213.51" y1="378.76" x2="210.29" y2="379.19"/><line x1="290.53" y1="358.06" x2="291.44" y2="357.67"/><line x1="251.75" y1="352.80" x2="251.68" y2="351.79"/><line x1="206.48" y1="224.43" x2="205.71" y2="230.67"/><line x1="213.51" y1="378.76" x2="204.34" y2="388.17"/><line x1="366.47" y1="256.93" x2="347.51" y2="259.10"/><line x1="292.19" y1="171.16" x2="281.69" y2="185.49"/><line x1="213.51" y1="378.76" x2="205.69" y2="393.85"/><line x1="253.05" y1="232.55" x2="253.86" y2="214.01"/><line x1="304.24" y1="332.73" x2="277.34" y2="326.54"/><line x1="142.55" y1="275.41" x2="161.33" y2="276.34"/><line x1="304.24" y1="332.73" x2="277.28" y2="320.17"/><line x1="206.21" y1="231.10" x2="206.64" y2="231.61"/><line x1="262.86" y1="233.86" x2="271.29" y2="224.06"/><line x1="358.03" y1="356.70" x2="343.38" y2="343.37"/><line x1="276.57" y1="329.41" x2="304.39" y2="333.53"/><line x1="281.69" y1="185.49" x2="285.00" y2="168.31"/><line x1="203.37" y1="226.57" x2="204.54" y2="225.60"/><line x1="204.23" y1="391.58" x2="204.39" y2="392.14"/><line x1="204.72" y1="335.64" x2="199.31" y2="350.09"/><line x1="257.33" y1="335.86" x2="253.30" y2="341.66"/><line x1="242.39" y1="236.38" x2="239.96" y2="237.43"/><line x1="343.38" y1="343.37" x2="360.71" y2="350.66"/><line x1="359.12" y1="236.71" x2="340.48" y2="241.11"/><line x1="280.79" y1="228.32" x2="277.79" y2="227.11"/><line x1="183.86" y1="202.19" x2="168.10" y2="191.64"/><line x1="207.61" y1="234.24" x2="222.59" y2="324.66"/><line x1="288.44" y1="393.21" x2="292.70" y2="410.75"/><line x1="266.77" y1="336.65" x2="294.59" y2="355.54"/><line x1="340.48" y1="241.11" x2="355.96" y2="230.27"/><line x1="256.80" y1="343.93" x2="262.41" y2="337.88"/><line x1="260.26" y1="217.90" x2="256.24" y2="215.42"/><line x1="266.77" y1="336.65" x2="310.77" y2="341.03"/><line x1="245.77" y1="210.21" x2="244.92" y2="210.10"/><line x1="266.77" y1="336.65" x2="268.03" y2="335.90"/><line x1="277.13" y1="319.11" x2="287.24" y2="231.31"/><line x1="147.55" y1="298.03" x2="165.55" y2="292.65"/><line x1="262.41" y1="337.88" x2="263.42" y2="337.97"/><line x1="213.51" y1="378.76" x2="212.88" y2="378.47"/><line x1="292.70" y1="410.75" x2="298.01" y2="409.30"/><line x1="367.08" y1="330.82" x2="349.99" y2="323.49"/><line x1="213.51" y1="378.76" x2="207.05" y2="382.53"/><line x1="249.19" y1="329.60" x2="250.10" y2="330.58"/><line x1="213.51" y1="378.76" x2="204.23" y2="391.58"/><line x1="262.11" y1="162.39" x2="255.53" y2="178.91"/><line x1="204.56" y1="229.94" x2="205.13" y2="230.29"/><line x1="304.24" y1="332.73" x2="277.44" y2="323.39"/><line x1="222.30" y1="356.30" x2="228.39" y2="357.21"/><line x1="349.99" y1="323.49" x2="368.56" y2="323.68"/><line x1="263.53" y1="348.04" x2="266.75" y2="349.89"/><line x1="155.16" y1="209.83" x2="169.73" y2="221.53"/><line x1="248.14" y1="234.19" x2="250.74" y2="233.29"/><line x1="213.43" y1="399.07" x2="226.18" y2="386.40"/><line x1="242.39" y1="236.38" x2="222.04" y2="217.58"/><line x1="257.33" y1="335.86" x2="249.70" y2="339.24"/><line x1="141.93" y1="263.05" x2="142.08" y2="269.32"/><line x1="344.34" y1="212.08" x2="327.16" y2="219.69"/><line x1="305.02" y1="335.00" x2="275.93" y2="330.10"/><line x1="172.42" y1="307.57" x2="157.30" y2="317.59"/><line x1="248.14" y1="234.19" x2="241.49" y2="210.71"/><line x1="266.77" y1="336.65" x2="269.87" y2="351.59"/><line x1="307.98" y1="385.05" x2="318.48" y2="400.45"/><line x1="371.02" y1="300.67" x2="371.19" y2="292.47"/><line x1="266.77" y1="336.65" x2="289.69" y2="358.29"/><line x1="196.48" y1="332.09" x2="200.55" y2="334.08"/><line x1="266.77" y1="336.65" x2="309.64" y2="342.37"/><line x1="234.44" y1="178.27" x2="230.18" y2="160.68"/><line x1="266.77" y1="336.65" x2="309.76" y2="339.00"/><line x1="277.13" y1="319.11" x2="288.72" y2="233.64"/><line x1="240.85" y1="392.56" x2="244.23" y2="393.46"/><line x1="277.13" y1="319.11" x2="283.70" y2="229.50"/><line x1="249.25" y1="358.24" x2="249.73" y2="358.14"/><line x1="255.80" y1="334.94" x2="257.33" y2="335.86"/><line x1="193.11" y1="194.08" x2="188.30" y2="198.01"/><line x1="306.83" y1="336.89" x2="269.47" y2="334.99"/><line x1="213.51" y1="378.76" x2="211.06" y2="378.77"/><line x1="235.18" y1="240.18" x2="234.42" y2="240.97"/><line x1="314.28" y1="205.81" x2="309.49" y2="201.72"/><line x1="203.02" y1="227.81" x2="203.37" y2="226.57"/><line x1="304.24" y1="332.73" x2="277.28" y2="327.19"/><line x1="222.50" y1="333.19" x2="221.98" y2="334.79"/><line x1="264.10" y1="220.16" x2="260.26" y2="217.90"/><line x1="181.44" y1="319.96" x2="184.92" y2="323.50"/><line x1="336.67" y1="386.63" x2="340.82" y2="382.40"/><line x1="304.24" y1="332.73" x2="277.34" y2="320.75"/><line x1="205.71" y1="230.67" x2="206.21" y2="231.10"/><line x1="308.54" y1="343.26" x2="309.14" y2="342.78"/><line x1="162.43" y1="281.89" x2="163.83" y2="287.33"/><line x1="260.07" y1="337.21" x2="261.29" y2="337.62"/><line x1="203.37" y1="226.57" x2="202.98" y2="227.31"/><line x1="234.42" y1="240.97" x2="207.61" y2="234.24"/><line x1="277.59" y1="165.90" x2="269.96" y2="163.92"/><line x1="351.77" y1="277.63" x2="350.67" y2="271.43"/><line x1="221.25" y1="336.04" x2="220.31" y2="336.93"/><line x1="309.14" y1="342.78" x2="309.64" y2="342.37"/><line x1="159.92" y1="259.02" x2="160.08" y2="264.91"/><line x1="258.37" y1="395.66" x2="262.06" y2="395.86"/><line x1="207.61" y1="234.24" x2="234.08" y2="241.68"/><line x1="261.29" y1="337.62" x2="262.41" y2="337.88"/><line x1="163.43" y1="197.27" x2="159.12" y2="203.33"/><line x1="266.77" y1="336.65" x2="280.96" y2="356.67"/><line x1="305.79" y1="177.98" x2="299.13" y2="174.40"/><line x1="266.77" y1="336.65" x2="293.47" y2="356.41"/><line x1="277.34" y1="326.54" x2="277.39" y2="325.84"/><line x1="260.26" y1="217.90" x2="255.06" y2="231.97"/><line x1="266.77" y1="336.65" x2="310.73" y2="341.19"/><line x1="204.08" y1="229.56" x2="204.56" y2="229.94"/><line x1="352.44" y1="224.02" x2="348.56" y2="217.96"/><line x1="184.19" y1="342.84" x2="189.00" y2="345.49"/><line x1="266.77" y1="336.65" x2="306.83" y2="336.89"/><line x1="277.13" y1="319.11" x2="287.65" y2="231.65"/><line x1="222.11" y1="384.15" x2="213.43" y2="399.07"/><line x1="351.90" y1="367.87" x2="355.10" y2="362.44"/><line x1="262.41" y1="337.88" x2="260.21" y2="346.05"/><line x1="213.51" y1="378.76" x2="213.03" y2="378.49"/><line x1="251.60" y1="356.01" x2="251.69" y2="355.34"/><line x1="330.91" y1="224.76" x2="344.34" y2="212.08"/><line x1="184.23" y1="177.30" x2="178.50" y2="181.65"/><line x1="263.14" y1="234.36" x2="262.86" y2="233.86"/><line x1="204.56" y1="229.94" x2="206.48" y2="224.43"/><line x1="154.47" y1="313.04" x2="172.42" y2="307.57"/><line x1="222.85" y1="326.82" x2="222.89" y2="327.48"/><line x1="304.24" y1="332.73" x2="277.44" y2="324.27"/><line x1="248.49" y1="178.27" x2="241.25" y2="178.02"/><line x1="313.55" y1="403.13" x2="307.98" y2="385.05"/><line x1="364.39" y1="250.09" x2="361.94" y2="243.33"/><line x1="310.71" y1="340.53" x2="310.52" y2="340.02"/><line x1="237.27" y1="160.41" x2="234.44" y2="178.27"/><line x1="369.71" y1="316.28" x2="370.53" y2="308.60"/><line x1="143.33" y1="281.33" x2="144.43" y2="287.07"/><line x1="213.03" y1="378.49" x2="212.88" y2="378.47"/><line x1="222.89" y1="327.48" x2="222.91" y2="328.18"/><line x1="248.72" y1="358.32" x2="249.25" y2="358.24"/><line x1="167.13" y1="226.89" x2="164.93" y2="232.25"/><line x1="352.99" y1="303.22" x2="371.02" y2="300.67"/><line x1="275.45" y1="183.24" x2="269.00" y2="181.40"/><line x1="277.39" y1="321.36" x2="277.34" y2="320.75"/><line x1="146.25" y1="231.10" x2="163.13" y2="237.60"/><line x1="212.70" y1="221.43" x2="216.98" y2="219.61"/><line x1="208.98" y1="336.75" x2="213.35" y2="337.42"/><line x1="237.42" y1="391.45" x2="240.85" y2="392.56"/><line x1="363.14" y1="344.32" x2="365.27" y2="337.71"/><line x1="266.77" y1="336.65" x2="266.75" y2="349.89"/><line x1="371.02" y1="300.67" x2="353.19" y2="296.37"/><line x1="266.77" y1="336.65" x2="288.92" y2="358.38"/><line x1="329.60" y1="195.63" x2="314.28" y2="205.81"/><line x1="179.78" y1="206.64" x2="176.06" y2="211.34"/><line x1="266.77" y1="336.65" x2="309.14" y2="342.78"/><line x1="267.78" y1="222.22" x2="260.91" y2="231.77"/><line x1="163.13" y1="237.60" x2="161.73" y2="242.96"/><line x1="216.98" y1="219.61" x2="222.04" y2="217.58"/><line x1="277.13" y1="319.11" x2="288.92" y2="234.37"/><line x1="295.30" y1="391.09" x2="301.82" y2="388.37"/><line x1="240.85" y1="392.56" x2="239.25" y2="409.92"/><line x1="167.33" y1="329.82" x2="181.44" y2="319.96"/><line x1="204.82" y1="352.02" x2="210.51" y2="353.71"/><line x1="332.35" y1="390.55" x2="336.67" y2="386.63"/><line x1="306.83" y1="336.89" x2="268.03" y2="335.90"/><line x1="314.28" y1="205.81" x2="324.07" y2="190.71"/><line x1="213.29" y1="378.60" x2="213.17" y2="378.54"/><line x1="215.35" y1="182.07" x2="209.68" y2="164.65"/><line x1="149.58" y1="303.25" x2="151.90" y2="308.26"/><line x1="209.50" y1="379.77" x2="208.70" y2="380.52"/><line x1="304.24" y1="332.73" x2="277.21" y2="327.77"/><line x1="222.50" y1="333.19" x2="249.19" y2="329.60"/><line x1="264.10" y1="220.16" x2="258.17" y2="231.31"/><line x1="181.44" y1="319.96" x2="171.18" y2="333.43"/><line x1="336.67" y1="386.63" x2="324.29" y2="371.99"/><line x1="251.28" y1="357.03" x2="251.46" y2="356.57"/><line x1="370.43" y1="277.99" x2="351.77" y2="277.63"/><line x1="288.92" y1="234.37" x2="288.72" y2="233.64"/><line x1="209.68" y1="164.65" x2="203.10" y2="167.03"/><line x1="64.64" y1="32.09" x2="32.16" y2="64.58"/><line x1="221.60" y1="403.49" x2="230.21" y2="407.11"/><line x1="142.20" y1="254.68" x2="159.92" y2="259.02"/><line x1="208.70" y1="380.52" x2="207.88" y2="381.45"/><line x1="167.58" y1="297.85" x2="169.89" y2="302.86"/><line x1="254.74" y1="395.31" x2="258.37" y2="395.66"/><line x1="251.46" y1="356.57" x2="251.60" y2="356.01"/><line x1="283.25" y1="357.41" x2="285.34" y2="357.95"/><line x1="351.77" y1="277.63" x2="369.49" y2="270.89"/><line x1="217.81" y1="337.64" x2="250.95" y2="346.94"/><line x1="299.12" y1="194.38" x2="305.79" y2="177.98"/><line x1="258.17" y1="231.31" x2="260.26" y2="217.90"/><line x1="159.92" y1="259.02" x2="141.93" y2="263.05"/><line x1="192.51" y1="329.65" x2="184.19" y2="342.84"/><line x1="254.17" y1="333.84" x2="219.16" y2="337.46"/><line x1="258.37" y1="395.66" x2="258.65" y2="413.14"/><line x1="348.47" y1="373.01" x2="351.90" y2="367.87"/><line x1="266.77" y1="336.65" x2="278.47" y2="355.71"/><line x1="273.97" y1="331.81" x2="305.02" y2="335.00"/><line x1="265.81" y1="395.93" x2="273.70" y2="395.63"/><line x1="305.79" y1="177.98" x2="293.55" y2="191.12"/><line x1="198.28" y1="190.41" x2="184.23" y2="177.30"/><line x1="260.26" y1="217.90" x2="256.76" y2="231.56"/><line x1="204.64" y1="387.07" x2="204.34" y2="388.17"/><line x1="273.70" y1="395.63" x2="281.92" y2="412.75"/><line x1="184.19" y1="342.84" x2="196.48" y2="332.09"/><line x1="351.90" y1="367.87" x2="336.97" y2="355.81"/><line x1="347.51" y1="259.10" x2="364.39" y2="250.09"/><line x1="264.00" y1="337.88" x2="264.76" y2="337.63"/><line x1="250.74" y1="233.29" x2="249.86" y2="211.84"/><line x1="184.23" y1="177.30" x2="193.11" y2="194.08"/><line x1="161.33" y1="276.34" x2="143.33" y2="281.33"/><line x1="207.00" y1="232.17" x2="207.27" y2="232.80"/><line x1="204.34" y1="388.17" x2="204.15" y2="389.25"/><line x1="203.02" y1="227.81" x2="203.16" y2="228.28"/><line x1="251.57" y1="350.71" x2="251.41" y2="349.54"/><line x1="276.97" y1="328.80" x2="277.13" y2="328.30"/><line x1="364.39" y1="250.09" x2="345.46" y2="252.96"/><line x1="143.33" y1="281.33" x2="162.43" y2="281.89"/><line x1="276.44" y1="413.29" x2="281.92" y2="412.75"/><line x1="306.12" y1="336.30" x2="305.51" y2="335.68"/><line x1="217.81" y1="337.64" x2="250.51" y2="357.84"/><line x1="217.81" y1="337.64" x2="251.75" y2="352.80"/><line x1="275.45" y1="183.24" x2="277.59" y2="165.90"/><line x1="204.54" y1="225.60" x2="203.38" y2="228.73"/><line x1="251.73" y1="212.82" x2="249.86" y2="211.84"/><line x1="208.98" y1="336.75" x2="204.82" y2="352.02"/><line x1="248.50" y1="328.68" x2="222.50" y2="333.19"/><line x1="363.14" y1="344.32" x2="345.98" y2="336.79"/><line x1="337.57" y1="235.47" x2="334.38" y2="230.02"/><line x1="179.78" y1="206.64" x2="163.43" y2="197.27"/><line x1="32.16" y1="32.09" x2="64.64" y2="32.09"/><line x1="295.30" y1="391.09" x2="308.45" y2="405.49"/><line x1="280.96" y1="356.67" x2="283.25" y2="357.41"/><line x1="231.68" y1="213.92" x2="235.57" y2="212.55"/><line x1="254.04" y1="161.29" x2="245.77" y2="160.64"/><line x1="213.29" y1="378.60" x2="213.41" y2="378.67"/><line x1="259.27" y1="231.23" x2="258.17" y2="231.31"/><line x1="250.74" y1="233.29" x2="244.92" y2="210.10"/><line x1="149.58" y1="303.25" x2="167.58" y2="297.85"/><line x1="351.39" y1="316.78" x2="352.39" y2="310.03"/><line x1="305.51" y1="335.68" x2="273.97" y2="331.81"/><line x1="271.29" y1="224.06" x2="262.14" y2="232.89"/><line x1="151.65" y1="216.66" x2="148.68" y2="223.75"/><line x1="221.60" y1="403.49" x2="233.84" y2="390.06"/><line x1="245.24" y1="235.26" x2="238.84" y2="211.47"/><line x1="217.81" y1="337.64" x2="248.12" y2="358.36"/><line x1="252.59" y1="332.70" x2="254.17" y2="333.84"/><line x1="217.81" y1="337.64" x2="251.46" y2="356.57"/><line x1="237.95" y1="238.42" x2="236.36" y2="239.33"/><line x1="339.76" y1="206.39" x2="334.84" y2="200.88"/><line x1="217.81" y1="337.64" x2="251.20" y2="348.28"/><line x1="287.24" y1="231.31" x2="286.64" y2="230.93"/><line x1="32.00" y1="447.50" x2="64.49" y2="479.98"/><line x1="160.38" y1="321.90" x2="163.73" y2="325.98"/></g></svg>