<svg xmlns="http://www.w3.org/2000/svg" width="512" height="512"><rect width="512" height="512" fill="#0a0f1a"/><text x="12" y="20" font-family="monospace" font-size="11" fill="#4a7fa5">FRONT (XZ)</text><g stroke="#00d4ff" stroke-width="0.6" opacity="0.85"><line x1="220.77" y1="191.51" x2="221.87" y2="193.47"/><line x1="231.28" y1="201.78" x2="233.11" y2="201.45"/><line x1="293.63" y1="193.54" x2="267.57" y2="198.74"/><line x1="265.54" y1="196.48" x2="266.03" y2="196.85"/><line x1="266.49" y1="319.63" x2="265.25" y2="321.59"/><line x1="214.68" y1="179.19" x2="223.95" y2="172.53"/><line x1="212.80" y1="174.89" x2="213.28" y2="176.04"/><line x1="266.03" y1="196.85" x2="266.49" y2="197.30"/><line x1="295.27" y1="338.44" x2="298.35" y2="329.28"/><line x1="219.82" y1="332.44" x2="219.18" y2="332.50"/><line x1="223.95" y1="172.53" x2="215.59" y2="181.20"/><line x1="249.76" y1="197.98" x2="253.22" y2="197.26"/><line x1="298.35" y1="329.28" x2="298.06" y2="328.84"/><line x1="225.79" y1="341.47" x2="223.23" y2="340.06"/><line x1="253.22" y1="197.26" x2="256.17" y2="196.67"/><line x1="299.53" y1="335.07" x2="300.53" y2="331.90"/><line x1="267.96" y1="199.72" x2="268.05" y2="200.21"/><line x1="254.11" y1="331.05" x2="254.65" y2="355.23"/><line x1="212.27" y1="172.62" x2="212.45" y2="174.03"/><line x1="225.91" y1="173.17" x2="226.53" y2="173.30"/><line x1="293.63" y1="193.54" x2="265.54" y2="196.48"/><line x1="293.63" y1="193.54" x2="268.09" y2="200.71"/><line x1="268.05" y1="200.21" x2="268.09" y2="200.71"/><line x1="217.47" y1="334.78" x2="217.66" y2="336.17"/><line x1="267.91" y1="315.74" x2="267.38" y2="317.68"/><line x1="226.53" y1="173.30" x2="218.63" y2="187.49"/><line x1="212.80" y1="174.89" x2="216.26" y2="170.05"/><line x1="253.88" y1="170.04" x2="254.56" y2="170.00"/><line x1="288.18" y1="343.59" x2="296.93" y2="325.83"/><line x1="295.27" y1="338.44" x2="292.08" y2="340.80"/><line x1="254.56" y1="170.00" x2="257.59" y2="170.74"/><line x1="237.97" y1="334.66" x2="236.54" y2="334.64"/><line x1="213.44" y1="171.10" x2="213.80" y2="170.80"/><line x1="296.40" y1="199.71" x2="296.59" y2="201.88"/><line x1="299.53" y1="335.07" x2="297.76" y2="336.54"/><line x1="296.65" y1="204.36" x2="265.47" y2="358.68"/><line x1="220.77" y1="191.51" x2="251.36" y2="170.30"/><line x1="264.03" y1="174.72" x2="267.25" y2="176.81"/><line x1="293.63" y1="193.54" x2="267.27" y2="198.25"/><line x1="278.92" y1="350.04" x2="274.93" y2="352.75"/><line x1="228.74" y1="333.84" x2="227.06" y2="333.55"/><line x1="212.80" y1="174.89" x2="215.18" y2="170.07"/><line x1="212.80" y1="174.89" x2="217.34" y2="170.38"/><line x1="300.85" y1="332.65" x2="300.72" y2="332.27"/><line x1="480.00" y1="32.02" x2="447.51" y2="32.02"/><line x1="225.79" y1="341.47" x2="227.06" y2="333.55"/><line x1="263.97" y1="195.76" x2="264.51" y2="195.93"/><line x1="283.56" y1="346.82" x2="296.65" y2="321.36"/><line x1="296.65" y1="204.36" x2="278.92" y2="350.04"/><line x1="217.34" y1="170.38" x2="220.13" y2="171.25"/><line x1="296.65" y1="204.36" x2="261.47" y2="358.00"/><line x1="293.63" y1="193.54" x2="265.04" y2="196.17"/><line x1="297.76" y1="336.54" x2="298.98" y2="330.10"/><line x1="251.60" y1="353.90" x2="235.07" y2="334.58"/><line x1="221.76" y1="332.64" x2="220.92" y2="332.52"/><line x1="212.80" y1="174.89" x2="213.44" y2="171.10"/><line x1="267.91" y1="315.74" x2="259.59" y2="357.28"/><line x1="212.80" y1="174.89" x2="216.08" y2="170.01"/><line x1="296.09" y1="197.85" x2="296.40" y2="199.71"/><line x1="295.27" y1="338.44" x2="297.52" y2="327.88"/><line x1="228.89" y1="173.48" x2="220.77" y2="191.51"/><line x1="296.65" y1="321.36" x2="278.92" y2="350.04"/><line x1="216.58" y1="183.33" x2="225.28" y2="173.00"/><line x1="261.35" y1="173.02" x2="264.03" y2="174.72"/><line x1="230.39" y1="334.10" x2="228.74" y2="333.84"/><line x1="215.51" y1="170.00" x2="215.83" y2="169.98"/><line x1="296.65" y1="204.36" x2="266.86" y2="357.93"/><line x1="268.09" y1="313.83" x2="295.66" y2="196.30"/><line x1="264.03" y1="174.72" x2="260.53" y2="195.88"/><line x1="259.59" y1="357.28" x2="263.66" y2="323.58"/><line x1="297.52" y1="327.88" x2="297.29" y2="327.32"/><line x1="251.60" y1="353.90" x2="248.15" y2="333.37"/><line x1="228.74" y1="333.84" x2="225.79" y2="341.47"/><line x1="215.83" y1="169.98" x2="215.93" y2="169.99"/><line x1="252.58" y1="170.14" x2="253.22" y2="170.08"/><line x1="212.80" y1="174.89" x2="214.85" y2="170.19"/><line x1="226.09" y1="199.87" x2="226.97" y2="200.82"/><line x1="212.80" y1="174.89" x2="217.02" y2="170.27"/><line x1="300.85" y1="332.65" x2="299.53" y2="335.07"/><line x1="264.74" y1="358.92" x2="264.04" y2="358.82"/><line x1="226.97" y1="200.82" x2="227.79" y2="201.50"/><line x1="263.40" y1="195.66" x2="263.97" y2="195.76"/><line x1="264.04" y1="358.82" x2="262.95" y2="358.51"/><line x1="480.00" y1="32.02" x2="480.00" y2="64.50"/><line x1="227.70" y1="173.46" x2="228.25" y2="173.48"/><line x1="217.02" y1="170.27" x2="217.34" y2="170.38"/><line x1="263.97" y1="195.76" x2="293.63" y2="193.54"/><line x1="283.56" y1="346.82" x2="296.66" y2="322.66"/><line x1="299.68" y1="330.83" x2="297.76" y2="336.54"/><line x1="480.00" y1="479.91" x2="480.00" y2="447.42"/><line x1="222.80" y1="332.80" x2="221.76" y2="332.64"/><line x1="296.65" y1="204.36" x2="296.65" y2="321.36"/><line x1="217.34" y1="170.38" x2="213.28" y2="176.04"/><line x1="233.11" y1="201.45" x2="235.48" y2="200.99"/><line x1="296.65" y1="204.36" x2="262.95" y2="358.51"/><line x1="268.09" y1="313.83" x2="296.65" y2="204.36"/><line x1="297.76" y1="336.54" x2="299.32" y2="330.47"/><line x1="259.59" y1="357.28" x2="257.32" y2="356.36"/><line x1="265.25" y1="321.59" x2="263.66" y2="323.58"/><line x1="251.60" y1="353.90" x2="236.54" y2="334.64"/><line x1="267.25" y1="176.81" x2="271.00" y2="179.27"/><line x1="235.48" y1="200.99" x2="238.38" y2="200.41"/><line x1="212.80" y1="174.89" x2="215.93" y2="169.99"/><line x1="266.49" y1="197.30" x2="266.92" y2="197.77"/><line x1="263.66" y1="323.58" x2="261.71" y2="325.57"/><line x1="447.51" y1="479.91" x2="480.00" y2="447.42"/><line x1="266.92" y1="197.77" x2="267.27" y2="198.25"/><line x1="223.23" y1="340.06" x2="221.14" y2="338.83"/><line x1="212.45" y1="174.03" x2="212.58" y2="172.03"/><line x1="218.64" y1="332.70" x2="218.20" y2="333.02"/><line x1="216.58" y1="183.33" x2="224.62" y2="172.78"/><line x1="251.36" y1="170.30" x2="245.78" y2="198.83"/><line x1="297.78" y1="328.38" x2="297.52" y2="327.88"/><line x1="218.63" y1="187.49" x2="227.70" y2="173.46"/><line x1="296.65" y1="204.36" x2="268.90" y2="356.70"/><line x1="251.96" y1="170.21" x2="252.58" y2="170.14"/><line x1="268.09" y1="313.83" x2="295.11" y2="195.07"/><line x1="259.59" y1="357.28" x2="265.25" y2="321.59"/><line x1="251.60" y1="353.90" x2="251.21" y2="332.35"/><line x1="251.60" y1="353.90" x2="228.81" y2="343.04"/><line x1="296.80" y1="324.90" x2="296.72" y2="323.84"/><line x1="255.26" y1="169.99" x2="255.98" y2="169.98"/><line x1="251.36" y1="170.30" x2="231.28" y2="201.78"/><line x1="251.36" y1="170.30" x2="251.96" y2="170.21"/><line x1="480.00" y1="479.91" x2="447.51" y2="479.91"/><line x1="268.09" y1="313.83" x2="296.59" y2="201.88"/><line x1="259.59" y1="357.28" x2="256.84" y2="329.46"/><line x1="219.52" y1="337.77" x2="217.86" y2="333.47"/><line x1="251.60" y1="353.90" x2="237.97" y2="334.66"/><line x1="215.59" y1="181.20" x2="216.58" y2="183.33"/><line x1="267.25" y1="176.81" x2="262.82" y2="195.62"/><line x1="298.06" y1="328.84" x2="297.78" y2="328.38"/><line x1="227.06" y1="333.55" x2="225.45" y2="333.26"/><line x1="256.17" y1="196.67" x2="251.96" y2="170.21"/><line x1="223.23" y1="340.06" x2="224.03" y2="333.00"/><line x1="212.45" y1="174.03" x2="212.40" y2="172.33"/><line x1="251.36" y1="170.30" x2="226.97" y2="200.82"/><line x1="251.36" y1="170.30" x2="241.81" y2="199.68"/><line x1="268.09" y1="200.71" x2="268.09" y2="313.83"/><line x1="220.13" y1="171.25" x2="223.95" y2="172.53"/><line x1="218.63" y1="187.49" x2="227.12" y2="173.41"/><line x1="258.60" y1="196.21" x2="259.21" y2="171.68"/><line x1="268.09" y1="313.83" x2="294.43" y2="194.14"/><line x1="259.59" y1="357.28" x2="266.49" y2="319.63"/><line x1="219.52" y1="337.77" x2="220.27" y2="332.46"/><line x1="227.12" y1="173.41" x2="227.70" y2="173.46"/><line x1="257.59" y1="170.74" x2="255.26" y2="169.99"/><line x1="296.80" y1="324.90" x2="283.56" y2="346.82"/><line x1="212.23" y1="173.46" x2="212.27" y2="172.62"/><line x1="213.80" y1="170.80" x2="214.16" y2="170.55"/><line x1="255.26" y1="169.99" x2="256.52" y2="170.17"/><line x1="298.66" y1="329.70" x2="298.35" y2="329.28"/><line x1="296.59" y1="201.88" x2="296.65" y2="204.36"/><line x1="235.07" y1="334.58" x2="233.55" y2="334.46"/><line x1="214.16" y1="170.55" x2="214.50" y2="170.34"/><line x1="212.45" y1="174.03" x2="212.80" y2="174.89"/><line x1="251.36" y1="170.30" x2="221.87" y2="193.47"/><line x1="251.36" y1="170.30" x2="229.97" y2="201.98"/><line x1="292.08" y1="340.80" x2="288.18" y2="343.59"/><line x1="296.65" y1="204.36" x2="267.91" y2="315.74"/><line x1="256.84" y1="329.46" x2="254.11" y2="331.05"/><line x1="251.36" y1="170.30" x2="256.17" y2="196.67"/><line x1="217.59" y1="185.43" x2="218.63" y2="187.49"/><line x1="258.60" y1="196.21" x2="254.56" y2="170.00"/><line x1="221.87" y1="193.47" x2="223.00" y2="195.39"/><line x1="254.65" y1="355.23" x2="251.60" y2="353.90"/><line x1="260.53" y1="195.88" x2="267.25" y2="176.81"/><line x1="271.59" y1="354.97" x2="268.90" y2="356.70"/><line x1="217.62" y1="334.06" x2="217.47" y2="334.78"/><line x1="219.52" y1="337.77" x2="218.20" y2="333.02"/><line x1="215.93" y1="169.99" x2="216.08" y2="170.01"/><line x1="267.25" y1="176.81" x2="261.93" y2="195.69"/><line x1="217.66" y1="336.17" x2="217.42" y2="335.63"/><line x1="227.06" y1="333.55" x2="223.23" y2="340.06"/><line x1="219.69" y1="189.52" x2="220.77" y2="191.51"/><line x1="216.08" y1="170.01" x2="216.26" y2="170.05"/><line x1="296.93" y1="325.83" x2="296.80" y2="324.90"/><line x1="300.72" y1="332.27" x2="300.53" y2="331.90"/><line x1="213.28" y1="176.04" x2="213.91" y2="177.47"/><line x1="228.54" y1="201.90" x2="229.21" y2="202.04"/><line x1="236.54" y1="334.64" x2="235.07" y2="334.58"/><line x1="251.36" y1="170.30" x2="226.09" y2="199.87"/><line x1="251.36" y1="170.30" x2="238.38" y2="200.41"/><line x1="261.47" y1="358.00" x2="259.59" y2="357.28"/><line x1="220.13" y1="171.25" x2="214.68" y2="179.19"/><line x1="300.93" y1="333.05" x2="300.85" y2="332.65"/><line x1="264.51" y1="195.93" x2="265.04" y2="196.17"/><line x1="228.81" y1="343.04" x2="225.79" y2="341.47"/><line x1="219.52" y1="337.77" x2="220.92" y2="332.52"/><line x1="274.93" y1="352.75" x2="271.59" y2="354.97"/><line x1="300.59" y1="334.04" x2="299.53" y2="335.07"/><line x1="212.23" y1="173.46" x2="212.17" y2="173.18"/><line x1="299.53" y1="335.07" x2="300.72" y2="332.27"/><line x1="225.28" y1="173.00" x2="225.91" y2="173.17"/><line x1="271.00" y1="179.27" x2="293.63" y2="193.54"/><line x1="251.36" y1="170.30" x2="229.21" y2="202.04"/><line x1="292.08" y1="340.80" x2="297.09" y2="326.64"/><line x1="293.63" y1="193.54" x2="268.05" y2="200.21"/><line x1="258.60" y1="196.21" x2="253.88" y2="170.04"/><line x1="258.60" y1="196.21" x2="260.53" y2="195.88"/><line x1="219.52" y1="337.77" x2="218.64" y2="332.70"/><line x1="227.79" y1="201.50" x2="228.54" y2="201.90"/><line x1="480.00" y1="64.50" x2="447.51" y2="32.02"/><line x1="219.69" y1="189.52" x2="228.89" y2="173.48"/><line x1="299.53" y1="335.07" x2="299.68" y2="330.83"/><line x1="213.28" y1="176.04" x2="220.13" y2="171.25"/><line x1="231.99" y1="334.30" x2="230.39" y2="334.10"/><line x1="293.63" y1="193.54" x2="266.92" y2="197.77"/><line x1="238.38" y1="200.41" x2="241.81" y2="199.68"/><line x1="300.93" y1="333.05" x2="300.95" y2="333.45"/><line x1="298.98" y1="330.10" x2="298.66" y2="329.70"/><line x1="228.81" y1="343.04" x2="228.74" y2="333.84"/><line x1="259.40" y1="327.59" x2="256.84" y2="329.46"/><line x1="224.62" y1="172.78" x2="225.28" y2="173.00"/><line x1="217.86" y1="333.47" x2="217.62" y2="334.06"/><line x1="262.95" y1="358.51" x2="261.47" y2="358.00"/><line x1="292.08" y1="340.80" x2="297.29" y2="327.32"/><line x1="224.03" y1="333.00" x2="222.80" y2="332.80"/><line x1="293.63" y1="193.54" x2="264.51" y2="195.93"/><line x1="212.58" y1="172.03" x2="212.82" y2="171.73"/><line x1="293.63" y1="193.54" x2="267.96" y2="199.72"/><line x1="221.76" y1="332.64" x2="219.52" y2="337.77"/><line x1="248.15" y1="333.37" x2="244.93" y2="334.09"/><line x1="299.32" y1="330.47" x2="298.98" y2="330.10"/><line x1="295.27" y1="338.44" x2="297.78" y2="328.38"/><line x1="295.11" y1="195.07" x2="295.66" y2="196.30"/><line x1="223.95" y1="172.53" x2="224.62" y2="172.78"/><line x1="261.71" y1="325.57" x2="259.40" y2="327.59"/><line x1="296.72" y1="323.84" x2="296.66" y2="322.66"/><line x1="267.27" y1="198.25" x2="267.57" y2="198.74"/><line x1="299.53" y1="335.07" x2="300.01" y2="331.17"/><line x1="218.20" y1="333.02" x2="217.86" y2="333.47"/><line x1="254.11" y1="331.05" x2="251.21" y2="332.35"/><line x1="231.99" y1="334.30" x2="228.81" y2="343.04"/><line x1="293.63" y1="193.54" x2="266.49" y2="197.30"/><line x1="297.52" y1="327.88" x2="292.08" y2="340.80"/><line x1="293.63" y1="193.54" x2="294.43" y2="194.14"/><line x1="300.93" y1="333.05" x2="300.59" y2="334.04"/><line x1="252.58" y1="170.14" x2="258.60" y2="196.21"/><line x1="212.80" y1="174.89" x2="214.50" y2="170.34"/><line x1="32.16" y1="32.09" x2="32.16" y2="64.58"/><line x1="212.80" y1="174.89" x2="216.73" y2="170.18"/><line x1="251.21" y1="332.35" x2="248.15" y2="333.37"/><line x1="262.82" y1="195.62" x2="263.40" y2="195.66"/><line x1="288.18" y1="343.59" x2="283.56" y2="346.82"/><line x1="266.86" y1="357.93" x2="265.47" y2="358.68"/><line x1="294.43" y1="194.14" x2="295.11" y2="195.07"/><line x1="227.70" y1="173.46" x2="219.69" y2="189.52"/><line x1="283.56" y1="346.82" x2="296.72" y2="323.84"/><line x1="296.65" y1="204.36" x2="264.04" y2="358.82"/><line x1="293.63" y1="193.54" x2="267.79" y2="199.23"/><line x1="212.80" y1="174.89" x2="215.83" y2="169.98"/><line x1="214.68" y1="179.19" x2="215.59" y2="181.20"/><line x1="295.27" y1="338.44" x2="298.06" y2="328.84"/><line x1="214.50" y1="170.34" x2="214.85" y2="170.19"/><line x1="257.32" y1="356.36" x2="254.65" y2="355.23"/><line x1="212.40" y1="172.33" x2="212.58" y2="172.03"/><line x1="296.65" y1="204.36" x2="271.59" y2="354.97"/><line x1="218.35" y1="336.89" x2="217.66" y2="336.17"/><line x1="32.00" y1="479.98" x2="64.49" y2="479.98"/><line x1="297.76" y1="336.54" x2="295.27" y2="338.44"/><line x1="297.09" y1="326.64" x2="296.93" y2="325.83"/><line x1="251.60" y1="353.90" x2="231.99" y2="334.30"/><line x1="212.80" y1="174.89" x2="214.16" y2="170.55"/><line x1="212.80" y1="174.89" x2="216.48" y2="170.11"/><line x1="256.52" y1="170.17" x2="255.98" y2="169.98"/><line x1="233.55" y1="334.46" x2="231.99" y2="334.30"/><line x1="296.65" y1="204.36" x2="264.74" y2="358.92"/><line x1="268.09" y1="313.83" x2="296.40" y2="199.71"/><line x1="259.59" y1="357.28" x2="259.40" y2="327.59"/><line x1="251.60" y1="353.90" x2="241.53" y2="334.52"/><line x1="223.00" y1="195.39" x2="224.10" y2="197.15"/><line x1="220.27" y1="332.46" x2="219.82" y2="332.44"/><line x1="212.80" y1="174.89" x2="215.51" y2="170.00"/><line x1="268.90" y1="356.70" x2="266.86" y2="357.93"/><line x1="261.93" y1="195.69" x2="262.82" y2="195.62"/><line x1="223.23" y1="340.06" x2="225.45" y2="333.26"/><line x1="216.26" y1="170.05" x2="216.48" y2="170.11"/><line x1="257.32" y1="356.36" x2="254.11" y2="331.05"/><line x1="300.53" y1="331.90" x2="300.30" y2="331.53"/><line x1="283.56" y1="346.82" x2="278.92" y2="350.04"/><line x1="229.21" y1="202.04" x2="229.97" y2="201.98"/><line x1="296.65" y1="204.36" x2="274.93" y2="352.75"/><line x1="218.35" y1="336.89" x2="217.47" y2="334.78"/><line x1="296.65" y1="204.36" x2="259.59" y2="357.28"/><line x1="259.59" y1="357.28" x2="267.38" y2="317.68"/><line x1="32.00" y1="479.98" x2="32.00" y2="447.50"/><line x1="297.76" y1="336.54" x2="298.66" y2="329.70"/><line x1="297.09" y1="326.64" x2="288.18" y2="343.59"/><line x1="251.60" y1="353.90" x2="233.55" y2="334.46"/><line x1="265.04" y1="196.17" x2="265.54" y2="196.48"/><line x1="212.80" y1="174.89" x2="213.80" y2="170.80"/><line x1="220.92" y1="332.52" x2="220.27" y2="332.46"/><line x1="213.91" y1="177.47" x2="214.68" y2="179.19"/><line x1="241.53" y1="334.52" x2="237.97" y2="334.66"/><line x1="298.66" y1="329.70" x2="295.27" y2="338.44"/><line x1="228.89" y1="173.48" x2="251.36" y2="170.30"/><line x1="212.19" y1="172.91" x2="212.27" y2="172.62"/><line x1="245.78" y1="198.83" x2="249.76" y2="197.98"/><line x1="212.45" y1="174.03" x2="213.10" y2="171.42"/><line x1="216.58" y1="183.33" x2="217.59" y2="185.43"/><line x1="256.84" y1="329.46" x2="257.32" y2="356.36"/><line x1="251.36" y1="170.30" x2="253.22" y2="197.26"/><line x1="217.59" y1="185.43" x2="226.53" y2="173.30"/><line x1="221.14" y1="338.83" x2="219.52" y2="337.77"/><line x1="268.09" y1="313.83" x2="296.09" y2="197.85"/><line x1="259.59" y1="357.28" x2="261.71" y2="325.57"/><line x1="217.62" y1="334.06" x2="218.35" y2="336.89"/><line x1="251.60" y1="353.90" x2="244.93" y2="334.09"/><line x1="257.59" y1="170.74" x2="259.21" y2="171.68"/><line x1="213.10" y1="171.42" x2="213.44" y2="171.10"/><line x1="251.36" y1="170.30" x2="225.13" y2="198.64"/><line x1="251.36" y1="170.30" x2="235.48" y2="200.99"/><line x1="299.68" y1="330.83" x2="299.32" y2="330.47"/><line x1="220.13" y1="171.25" x2="213.91" y2="177.47"/><line x1="268.09" y1="313.83" x2="267.91" y2="315.74"/><line x1="219.52" y1="337.77" x2="218.35" y2="336.89"/><line x1="241.81" y1="199.68" x2="245.78" y2="198.83"/><line x1="300.59" y1="334.04" x2="300.85" y2="332.65"/><line x1="212.23" y1="173.46" x2="212.19" y2="172.91"/><line x1="267.57" y1="198.74" x2="267.79" y2="199.23"/><line x1="256.17" y1="196.67" x2="258.60" y2="196.21"/><line x1="212.19" y1="172.91" x2="212.17" y2="173.18"/><line x1="225.28" y1="173.00" x2="217.59" y2="185.43"/><line x1="271.00" y1="179.27" x2="263.97" y2="195.76"/><line x1="212.45" y1="174.03" x2="212.82" y2="171.73"/><line x1="267.79" y1="199.23" x2="267.96" y2="199.72"/><line x1="251.36" y1="170.30" x2="228.54" y2="201.90"/><line x1="251.36" y1="170.30" x2="249.76" y2="197.98"/><line x1="217.59" y1="185.43" x2="225.91" y2="173.17"/><line x1="258.60" y1="196.21" x2="253.22" y2="170.08"/><line x1="218.63" y1="187.49" x2="219.69" y2="189.52"/><line x1="258.60" y1="196.21" x2="264.03" y2="174.72"/><line x1="297.29" y1="327.32" x2="297.09" y2="326.64"/><line x1="221.14" y1="338.83" x2="221.76" y2="332.64"/><line x1="212.82" y1="171.73" x2="213.10" y2="171.42"/><line x1="219.52" y1="337.77" x2="219.18" y2="332.50"/><line x1="253.22" y1="170.08" x2="253.88" y2="170.04"/><line x1="244.93" y1="334.09" x2="241.53" y2="334.52"/><line x1="213.10" y1="171.42" x2="212.80" y2="174.89"/><line x1="219.69" y1="189.52" x2="228.25" y2="173.48"/><line x1="295.66" y1="196.30" x2="296.09" y2="197.85"/><line x1="228.25" y1="173.48" x2="228.89" y2="173.48"/><line x1="251.36" y1="170.30" x2="224.10" y2="197.15"/><line x1="296.66" y1="322.66" x2="296.65" y2="321.36"/><line x1="251.36" y1="170.30" x2="233.11" y2="201.45"/><line x1="214.85" y1="170.19" x2="215.18" y2="170.07"/><line x1="259.21" y1="171.68" x2="261.35" y2="173.02"/><line x1="228.81" y1="343.04" x2="230.39" y2="334.10"/><line x1="215.18" y1="170.07" x2="215.51" y2="170.00"/><line x1="219.52" y1="337.77" x2="217.62" y2="334.06"/><line x1="300.59" y1="334.04" x2="300.95" y2="333.45"/><line x1="225.13" y1="198.64" x2="226.09" y2="199.87"/><line x1="265.47" y1="358.68" x2="264.74" y2="358.92"/><line x1="256.17" y1="196.67" x2="252.58" y2="170.14"/><line x1="64.64" y1="32.09" x2="32.16" y2="64.58"/><line x1="271.00" y1="179.27" x2="263.40" y2="195.66"/><line x1="251.36" y1="170.30" x2="227.79" y2="201.50"/><line x1="224.03" y1="333.00" x2="221.14" y2="338.83"/><line x1="300.01" y1="331.17" x2="299.68" y2="330.83"/><line x1="258.60" y1="196.21" x2="261.35" y2="173.02"/><line x1="221.14" y1="338.83" x2="222.80" y2="332.80"/><line x1="219.52" y1="337.77" x2="219.82" y2="332.44"/><line x1="257.59" y1="170.74" x2="256.52" y2="170.17"/><line x1="223.95" y1="172.53" x2="216.58" y2="183.33"/><line x1="212.23" y1="173.46" x2="212.45" y2="174.03"/><line x1="299.53" y1="335.07" x2="300.30" y2="331.53"/><line x1="251.36" y1="170.30" x2="223.00" y2="195.39"/><line x1="254.11" y1="331.05" x2="251.60" y2="353.90"/><line x1="212.27" y1="172.62" x2="212.40" y2="172.33"/><line x1="219.18" y1="332.50" x2="218.64" y2="332.70"/><line x1="293.63" y1="193.54" x2="266.03" y2="196.85"/><line x1="224.10" y1="197.15" x2="225.13" y2="198.64"/><line x1="293.63" y1="193.54" x2="268.09" y2="313.83"/><line x1="258.60" y1="196.21" x2="257.59" y2="170.74"/><line x1="260.53" y1="195.88" x2="261.93" y2="195.69"/><line x1="217.47" y1="334.78" x2="217.42" y2="335.63"/><line x1="32.16" y1="32.09" x2="64.64" y2="32.09"/><line x1="226.53" y1="173.30" x2="227.12" y2="173.41"/><line x1="262.82" y1="195.62" x2="271.00" y2="179.27"/><line x1="288.18" y1="343.59" x2="296.80" y2="324.90"/><line x1="225.45" y1="333.26" x2="224.03" y2="333.00"/><line x1="216.48" y1="170.11" x2="216.73" y2="170.18"/><line x1="254.56" y1="170.00" x2="255.26" y2="169.99"/><line x1="300.30" y1="331.53" x2="300.01" y2="331.17"/><line x1="216.73" y1="170.18" x2="217.02" y2="170.27"/><line x1="229.97" y1="201.98" x2="231.28" y2="201.78"/><line x1="267.38" y1="317.68" x2="266.49" y2="319.63"/><line x1="32.00" y1="447.50" x2="64.49" y2="479.98"/></g></svg>