<svg xmlns="http://www.w3.org/2000/svg" width="512" height="512"><rect width="512" height="512" fill="#0a0f1a"/><text x="12" y="20" font-family="monospace" font-size="11" fill="#4a7fa5">FRONT (XZ)</text><g stroke="#00d4ff" stroke-width="0.6" opacity="0.85"><line x1="273.40" y1="211.09" x2="302.28" y2="215.04"/><line x1="309.95" y1="185.16" x2="308.73" y2="183.83"/><line x1="272.18" y1="187.92" x2="269.51" y2="194.42"/><line x1="240.08" y1="213.75" x2="205.69" y2="192.33"/><line x1="240.08" y1="213.75" x2="205.61" y2="196.76"/><line x1="206.12" y1="197.21" x2="207.26" y2="198.21"/><line x1="304.16" y1="204.62" x2="304.77" y2="203.08"/><line x1="210.42" y1="328.03" x2="210.37" y2="330.10"/><line x1="208.54" y1="335.68" x2="236.75" y2="356.57"/><line x1="240.08" y1="213.75" x2="210.42" y2="328.03"/><line x1="306.10" y1="200.82" x2="306.56" y2="200.23"/><line x1="269.51" y1="194.42" x2="271.59" y2="187.83"/><line x1="246.99" y1="201.06" x2="224.36" y2="178.71"/><line x1="236.75" y1="356.57" x2="235.33" y2="356.17"/><line x1="199.26" y1="336.82" x2="205.02" y2="334.69"/><line x1="306.56" y1="200.23" x2="271.59" y2="196.35"/><line x1="302.01" y1="177.35" x2="300.55" y2="176.09"/><line x1="224.36" y1="178.71" x2="245.68" y2="202.57"/><line x1="199.18" y1="333.73" x2="200.77" y2="332.74"/><line x1="300.55" y1="176.09" x2="299.15" y2="174.92"/><line x1="269.60" y1="187.15" x2="267.13" y2="193.68"/><line x1="210.42" y1="205.96" x2="210.42" y2="328.03"/><line x1="273.40" y1="211.09" x2="300.95" y2="312.17"/><line x1="308.84" y1="197.82" x2="309.44" y2="197.25"/><line x1="200.77" y1="332.74" x2="199.26" y2="333.50"/><line x1="267.13" y1="193.68" x2="268.88" y2="186.78"/><line x1="240.08" y1="213.75" x2="204.24" y2="194.59"/><line x1="208.54" y1="335.68" x2="238.16" y2="355.64"/><line x1="240.08" y1="213.75" x2="209.02" y2="200.45"/><line x1="207.87" y1="335.84" x2="199.26" y2="336.82"/><line x1="208.54" y1="335.68" x2="223.19" y2="350.13"/><line x1="309.44" y1="197.25" x2="270.66" y2="195.22"/><line x1="294.66" y1="171.80" x2="294.26" y2="171.71"/><line x1="248.41" y1="199.67" x2="246.99" y2="201.06"/><line x1="249.93" y1="198.40" x2="231.90" y2="173.95"/><line x1="242.34" y1="207.83" x2="214.64" y2="185.38"/><line x1="199.83" y1="332.85" x2="199.50" y2="333.11"/><line x1="294.26" y1="171.71" x2="293.82" y2="171.75"/><line x1="210.37" y1="330.10" x2="210.21" y2="331.85"/><line x1="302.67" y1="211.79" x2="273.39" y2="208.94"/><line x1="199.50" y1="333.11" x2="199.65" y2="332.97"/><line x1="262.09" y1="193.51" x2="260.26" y2="193.75"/><line x1="205.02" y1="334.69" x2="204.20" y2="334.27"/><line x1="313.03" y1="194.19" x2="313.44" y2="193.79"/><line x1="209.12" y1="335.20" x2="208.54" y2="335.68"/><line x1="240.08" y1="213.75" x2="206.85" y2="191.31"/><line x1="208.54" y1="335.68" x2="238.82" y2="352.53"/><line x1="240.08" y1="213.75" x2="205.19" y2="196.30"/><line x1="304.16" y1="204.62" x2="272.93" y2="200.82"/><line x1="208.54" y1="335.68" x2="237.10" y2="356.54"/><line x1="270.66" y1="195.22" x2="270.12" y2="194.79"/><line x1="240.08" y1="213.75" x2="210.42" y2="205.96"/><line x1="204.20" y1="334.27" x2="203.39" y2="333.86"/><line x1="249.93" y1="198.40" x2="239.61" y2="169.91"/><line x1="238.98" y1="347.51" x2="209.12" y2="335.20"/><line x1="480.00" y1="32.02" x2="447.51" y2="32.02"/><line x1="238.89" y1="351.49" x2="238.82" y2="352.53"/><line x1="305.33" y1="201.97" x2="305.69" y2="201.40"/><line x1="199.05" y1="336.43" x2="199.00" y2="336.25"/><line x1="231.90" y1="173.95" x2="229.46" y2="175.45"/><line x1="270.66" y1="195.22" x2="292.79" y2="172.12"/><line x1="240.08" y1="213.75" x2="204.21" y2="194.17"/><line x1="208.54" y1="335.68" x2="238.35" y2="355.23"/><line x1="270.66" y1="195.22" x2="274.87" y2="187.05"/><line x1="302.28" y1="215.04" x2="302.67" y2="211.79"/><line x1="240.08" y1="213.75" x2="208.22" y2="199.29"/><line x1="208.54" y1="335.68" x2="228.55" y2="352.94"/><line x1="248.41" y1="199.67" x2="226.89" y2="177.08"/><line x1="263.96" y1="193.43" x2="262.09" y2="193.51"/><line x1="249.93" y1="198.40" x2="234.04" y2="172.68"/><line x1="205.74" y1="335.04" x2="205.02" y2="334.69"/><line x1="312.53" y1="194.64" x2="313.03" y2="194.19"/><line x1="268.80" y1="194.12" x2="270.30" y2="187.43"/><line x1="208.34" y1="190.10" x2="240.08" y2="213.75"/><line x1="290.86" y1="173.35" x2="290.11" y2="173.94"/><line x1="221.87" y1="180.36" x2="219.43" y2="182.03"/><line x1="238.94" y1="350.31" x2="208.54" y2="335.68"/><line x1="199.26" y1="333.50" x2="200.28" y2="332.72"/><line x1="273.19" y1="203.56" x2="304.16" y2="204.62"/><line x1="290.11" y1="173.94" x2="284.06" y2="179.28"/><line x1="244.46" y1="204.21" x2="243.35" y2="205.96"/><line x1="251.54" y1="197.25" x2="249.93" y2="198.40"/><line x1="270.66" y1="195.22" x2="295.23" y2="172.07"/><line x1="208.54" y1="335.68" x2="238.89" y2="351.49"/><line x1="270.66" y1="195.22" x2="290.11" y2="173.94"/><line x1="304.16" y1="204.62" x2="273.08" y2="202.10"/><line x1="208.54" y1="335.68" x2="237.41" y2="356.43"/><line x1="270.66" y1="195.22" x2="272.74" y2="187.96"/><line x1="314.09" y1="191.76" x2="313.83" y2="190.86"/><line x1="249.93" y1="198.40" x2="240.26" y2="169.80"/><line x1="204.24" y1="194.59" x2="204.37" y2="195.01"/><line x1="238.98" y1="347.51" x2="209.58" y2="334.40"/><line x1="199.11" y1="336.58" x2="199.05" y2="336.43"/><line x1="313.83" y1="190.86" x2="313.40" y2="189.89"/><line x1="268.12" y1="186.36" x2="240.58" y2="169.80"/><line x1="274.22" y1="187.45" x2="273.64" y2="187.73"/><line x1="204.37" y1="195.01" x2="204.56" y2="195.44"/><line x1="303.11" y1="208.97" x2="303.61" y2="206.58"/><line x1="480.00" y1="32.02" x2="480.00" y2="64.50"/><line x1="305.02" y1="202.53" x2="305.33" y2="201.97"/><line x1="273.64" y1="187.73" x2="273.15" y2="187.90"/><line x1="234.04" y1="172.68" x2="231.90" y2="173.95"/><line x1="480.00" y1="479.91" x2="480.00" y2="447.42"/><line x1="238.16" y1="355.64" x2="237.95" y2="355.98"/><line x1="305.33" y1="201.97" x2="272.28" y2="197.85"/><line x1="308.73" y1="183.83" x2="307.46" y2="182.51"/><line x1="270.66" y1="195.22" x2="312.02" y2="187.69"/><line x1="231.90" y1="173.95" x2="248.41" y2="199.67"/><line x1="270.66" y1="195.22" x2="300.55" y2="176.09"/><line x1="207.26" y1="198.21" x2="208.22" y2="199.29"/><line x1="270.66" y1="195.22" x2="293.33" y2="171.89"/><line x1="271.59" y1="196.35" x2="307.64" y2="199.02"/><line x1="270.66" y1="195.22" x2="275.62" y2="186.54"/><line x1="208.54" y1="335.68" x2="238.50" y2="354.75"/><line x1="198.97" y1="334.87" x2="199.00" y2="334.56"/><line x1="307.46" y1="182.51" x2="306.16" y2="181.20"/><line x1="271.59" y1="187.83" x2="268.80" y2="194.12"/><line x1="208.22" y1="199.29" x2="209.02" y2="200.45"/><line x1="447.51" y1="479.91" x2="480.00" y2="447.42"/><line x1="268.80" y1="194.12" x2="270.96" y2="187.66"/><line x1="304.77" y1="203.08" x2="305.02" y2="202.53"/><line x1="232.59" y1="354.96" x2="228.55" y2="352.94"/><line x1="307.07" y1="199.63" x2="307.64" y2="199.02"/><line x1="221.87" y1="180.36" x2="244.46" y2="204.21"/><line x1="270.66" y1="195.22" x2="310.68" y2="196.15"/><line x1="199.26" y1="333.50" x2="200.54" y2="332.71"/><line x1="297.92" y1="173.95" x2="296.85" y2="173.14"/><line x1="270.66" y1="195.22" x2="314.17" y2="192.57"/><line x1="266.16" y1="193.54" x2="265.10" y2="193.46"/><line x1="270.66" y1="195.22" x2="307.46" y2="182.51"/><line x1="239.59" y1="215.78" x2="239.25" y2="217.84"/><line x1="270.66" y1="195.22" x2="295.96" y2="172.51"/><line x1="270.66" y1="195.22" x2="290.86" y2="173.35"/><line x1="241.45" y1="209.77" x2="210.16" y2="188.70"/><line x1="271.96" y1="197.06" x2="271.59" y2="196.35"/><line x1="273.39" y1="208.94" x2="273.35" y2="206.98"/><line x1="240.58" y1="169.80" x2="249.93" y2="198.40"/><line x1="201.10" y1="332.84" x2="200.77" y2="332.74"/><line x1="303.11" y1="208.97" x2="273.29" y2="205.18"/><line x1="480.00" y1="479.91" x2="447.51" y2="479.91"/><line x1="270.66" y1="195.22" x2="313.03" y2="194.19"/><line x1="270.66" y1="195.22" x2="312.79" y2="188.83"/><line x1="270.66" y1="195.22" x2="302.01" y2="177.35"/><line x1="270.66" y1="195.22" x2="293.82" y2="171.75"/><line x1="271.59" y1="196.35" x2="307.07" y2="199.63"/><line x1="245.68" y1="202.57" x2="221.87" y2="180.36"/><line x1="272.93" y1="200.82" x2="272.76" y2="199.72"/><line x1="240.58" y1="169.80" x2="258.46" y2="194.14"/><line x1="299.15" y1="174.92" x2="297.92" y2="173.95"/><line x1="300.95" y1="312.17" x2="300.79" y2="294.09"/><line x1="268.88" y1="186.78" x2="266.16" y2="193.54"/><line x1="270.66" y1="195.22" x2="310.06" y2="196.69"/><line x1="272.74" y1="187.96" x2="272.18" y2="187.92"/><line x1="270.66" y1="195.22" x2="314.13" y2="192.82"/><line x1="266.16" y1="193.54" x2="268.12" y2="186.36"/><line x1="270.66" y1="195.22" x2="308.73" y2="183.83"/><line x1="207.64" y1="335.81" x2="207.31" y2="335.71"/><line x1="310.06" y1="196.69" x2="310.68" y2="196.15"/><line x1="270.12" y1="194.79" x2="269.51" y2="194.42"/><line x1="293.82" y1="171.75" x2="293.33" y2="171.89"/><line x1="241.45" y1="209.77" x2="212.31" y2="187.08"/><line x1="201.52" y1="333.00" x2="199.00" y2="336.25"/><line x1="301.43" y1="335.26" x2="273.40" y2="211.09"/><line x1="199.05" y1="334.27" x2="199.11" y2="333.99"/><line x1="271.96" y1="197.06" x2="306.56" y2="200.23"/><line x1="273.39" y1="208.94" x2="303.11" y2="208.97"/><line x1="293.33" y1="171.89" x2="292.79" y2="172.12"/><line x1="240.58" y1="169.80" x2="251.54" y2="197.25"/><line x1="226.89" y1="177.08" x2="224.36" y2="178.71"/><line x1="260.26" y1="193.75" x2="258.46" y2="194.14"/><line x1="209.95" y1="333.29" x2="209.58" y2="334.40"/><line x1="271.16" y1="195.74" x2="309.44" y2="197.25"/><line x1="201.10" y1="332.84" x2="199.18" y2="333.73"/><line x1="303.11" y1="208.97" x2="273.35" y2="206.98"/><line x1="313.44" y1="193.79" x2="313.77" y2="193.43"/><line x1="258.46" y1="194.14" x2="256.69" y2="194.68"/><line x1="203.39" y1="333.86" x2="202.67" y2="333.51"/><line x1="313.77" y1="193.43" x2="313.99" y2="193.11"/><line x1="210.42" y1="328.03" x2="239.59" y2="215.78"/><line x1="270.66" y1="195.22" x2="312.53" y2="194.64"/><line x1="284.06" y1="179.28" x2="277.36" y2="185.17"/><line x1="270.66" y1="195.22" x2="313.40" y2="189.89"/><line x1="205.69" y1="192.33" x2="204.87" y2="193.14"/><line x1="273.08" y1="202.10" x2="272.93" y2="200.82"/><line x1="277.36" y1="185.17" x2="276.45" y2="185.91"/><line x1="199.26" y1="336.82" x2="207.64" y2="335.81"/><line x1="199.26" y1="336.82" x2="202.05" y2="333.22"/><line x1="238.82" y1="352.53" x2="238.73" y2="353.41"/><line x1="201.52" y1="333.00" x2="198.95" y2="335.20"/><line x1="272.93" y1="200.82" x2="304.77" y2="203.08"/><line x1="214.64" y1="185.38" x2="241.45" y2="209.77"/><line x1="240.58" y1="169.80" x2="260.26" y2="193.75"/><line x1="239.61" y1="169.91" x2="238.66" y2="170.25"/><line x1="272.28" y1="197.85" x2="271.96" y2="197.06"/><line x1="199.00" y1="336.25" x2="198.97" y2="336.04"/><line x1="312.79" y1="188.83" x2="312.02" y2="187.69"/><line x1="210.21" y1="331.85" x2="209.95" y2="333.29"/><line x1="273.40" y1="211.09" x2="301.95" y2="218.73"/><line x1="204.83" y1="195.87" x2="205.19" y2="196.30"/><line x1="305.69" y1="201.40" x2="306.10" y2="200.82"/><line x1="272.74" y1="187.96" x2="270.12" y2="194.79"/><line x1="210.42" y1="328.03" x2="238.98" y2="347.51"/><line x1="237.70" y1="356.24" x2="237.41" y2="356.43"/><line x1="206.85" y1="191.31" x2="205.69" y2="192.33"/><line x1="199.26" y1="336.82" x2="205.74" y2="335.04"/><line x1="201.52" y1="333.00" x2="199.05" y2="336.43"/><line x1="301.43" y1="335.26" x2="302.07" y2="355.01"/><line x1="307.64" y1="199.02" x2="308.23" y2="198.42"/><line x1="199.05" y1="334.27" x2="201.10" y2="332.84"/><line x1="201.52" y1="333.00" x2="201.10" y2="332.84"/><line x1="270.30" y1="187.43" x2="269.60" y2="187.15"/><line x1="240.58" y1="169.80" x2="253.23" y2="196.24"/><line x1="240.26" y1="169.80" x2="239.61" y2="169.91"/><line x1="271.16" y1="195.74" x2="308.84" y2="197.82"/><line x1="219.43" y1="182.03" x2="217.01" y2="183.70"/><line x1="200.05" y1="332.78" x2="199.83" y2="332.85"/><line x1="313.40" y1="189.89" x2="312.79" y2="188.83"/><line x1="265.10" y1="193.46" x2="263.96" y2="193.43"/><line x1="199.26" y1="336.82" x2="202.67" y2="333.51"/><line x1="480.00" y1="64.50" x2="447.51" y2="32.02"/><line x1="201.52" y1="333.00" x2="198.95" y2="335.55"/><line x1="210.16" y1="188.70" x2="208.34" y2="190.10"/><line x1="272.28" y1="197.85" x2="305.69" y2="201.40"/><line x1="273.40" y1="211.09" x2="301.67" y2="222.83"/><line x1="209.12" y1="335.20" x2="238.94" y2="350.31"/><line x1="273.29" y1="205.18" x2="273.19" y2="203.56"/><line x1="306.16" y1="181.20" x2="304.82" y2="179.90"/><line x1="240.08" y1="213.75" x2="204.83" y2="195.87"/><line x1="210.42" y1="328.03" x2="238.98" y2="222.05"/><line x1="229.46" y1="175.45" x2="226.89" y2="177.08"/><line x1="240.08" y1="213.75" x2="210.33" y2="204.46"/><line x1="208.54" y1="335.68" x2="207.87" y2="335.84"/><line x1="199.26" y1="336.82" x2="206.36" y2="335.33"/><line x1="209.63" y1="201.70" x2="210.07" y2="203.04"/><line x1="201.52" y1="333.00" x2="199.11" y2="336.58"/><line x1="307.64" y1="199.02" x2="271.16" y2="195.74"/><line x1="272.55" y1="198.74" x2="272.28" y2="197.85"/><line x1="223.19" y1="350.13" x2="216.52" y2="346.50"/><line x1="204.56" y1="195.44" x2="204.83" y2="195.87"/><line x1="219.43" y1="182.03" x2="243.35" y2="205.96"/><line x1="273.40" y1="211.09" x2="273.39" y2="208.94"/><line x1="273.15" y1="187.90" x2="272.74" y2="187.96"/><line x1="300.79" y1="276.02" x2="301.67" y2="222.83"/><line x1="200.28" y1="332.72" x2="200.05" y2="332.78"/><line x1="240.08" y1="213.75" x2="204.37" y2="193.76"/><line x1="237.95" y1="355.98" x2="237.70" y2="356.24"/><line x1="240.08" y1="213.75" x2="207.26" y2="198.21"/><line x1="208.54" y1="335.68" x2="232.59" y2="354.96"/><line x1="239.05" y1="219.94" x2="238.98" y2="222.05"/><line x1="248.41" y1="199.67" x2="229.46" y2="175.45"/><line x1="249.93" y1="198.40" x2="235.88" y2="171.64"/><line x1="265.10" y1="193.46" x2="240.58" y2="169.80"/><line x1="199.00" y1="334.56" x2="199.05" y2="334.27"/><line x1="206.88" y1="335.55" x2="206.36" y2="335.33"/><line x1="209.02" y1="200.45" x2="209.63" y2="201.70"/><line x1="210.16" y1="188.70" x2="240.69" y2="211.75"/><line x1="270.96" y1="187.66" x2="270.30" y2="187.43"/><line x1="292.20" y1="172.43" x2="291.55" y2="172.85"/><line x1="228.55" y1="352.94" x2="223.19" y2="350.13"/><line x1="273.40" y1="211.09" x2="300.79" y2="276.02"/><line x1="209.12" y1="335.20" x2="238.97" y2="348.98"/><line x1="244.46" y1="204.21" x2="219.43" y2="182.03"/><line x1="254.95" y1="195.38" x2="253.23" y2="196.24"/><line x1="240.08" y1="213.75" x2="204.56" y2="195.44"/><line x1="200.54" y1="332.71" x2="200.28" y2="332.72"/><line x1="208.54" y1="335.68" x2="237.70" y2="356.24"/><line x1="296.85" y1="173.14" x2="295.96" y2="172.51"/><line x1="270.66" y1="195.22" x2="273.15" y2="187.90"/><line x1="240.08" y1="213.75" x2="210.07" y2="203.04"/><line x1="32.16" y1="32.09" x2="32.16" y2="64.58"/><line x1="208.54" y1="335.68" x2="208.54" y2="342.06"/><line x1="202.05" y1="333.22" x2="201.52" y2="333.00"/><line x1="239.25" y1="217.84" x2="239.05" y2="219.94"/><line x1="238.98" y1="347.51" x2="209.95" y2="333.29"/><line x1="204.37" y1="193.76" x2="204.21" y2="194.17"/><line x1="268.12" y1="186.36" x2="265.10" y2="193.46"/><line x1="207.31" y1="335.71" x2="206.88" y2="335.55"/><line x1="310.68" y1="196.15" x2="311.30" y2="195.63"/><line x1="212.31" y1="187.08" x2="210.16" y2="188.70"/><line x1="272.18" y1="187.92" x2="271.59" y2="187.83"/><line x1="240.08" y1="213.75" x2="204.87" y2="193.14"/><line x1="208.54" y1="335.68" x2="238.63" y2="354.15"/><line x1="270.66" y1="195.22" x2="276.45" y2="185.91"/><line x1="240.08" y1="213.75" x2="206.12" y2="197.21"/><line x1="208.54" y1="335.68" x2="235.33" y2="356.17"/><line x1="249.93" y1="198.40" x2="237.42" y2="170.84"/><line x1="246.99" y1="201.06" x2="245.68" y2="202.57"/><line x1="273.35" y1="206.98" x2="273.29" y2="205.18"/><line x1="304.77" y1="203.08" x2="272.55" y2="198.74"/><line x1="269.60" y1="187.15" x2="268.88" y2="186.78"/><line x1="300.79" y1="294.09" x2="300.79" y2="276.02"/><line x1="208.54" y1="342.06" x2="199.26" y2="336.82"/><line x1="32.00" y1="479.98" x2="64.49" y2="479.98"/><line x1="270.66" y1="195.22" x2="296.85" y2="173.14"/><line x1="217.01" y1="183.70" x2="214.64" y2="185.38"/><line x1="270.66" y1="195.22" x2="291.55" y2="172.85"/><line x1="240.08" y1="213.75" x2="204.37" y2="195.01"/><line x1="208.54" y1="335.68" x2="237.95" y2="355.98"/><line x1="270.66" y1="195.22" x2="273.64" y2="187.73"/><line x1="208.54" y1="335.68" x2="216.52" y2="346.50"/><line x1="249.93" y1="198.40" x2="248.41" y2="199.67"/><line x1="238.98" y1="347.51" x2="210.21" y2="331.85"/><line x1="199.83" y1="332.85" x2="199.65" y2="332.97"/><line x1="292.79" y1="172.12" x2="292.20" y2="172.43"/><line x1="198.95" y1="335.81" x2="198.95" y2="335.55"/><line x1="209.58" y1="334.40" x2="209.12" y2="335.20"/><line x1="199.26" y1="333.50" x2="199.37" y2="333.29"/><line x1="256.69" y1="194.68" x2="254.95" y2="195.38"/><line x1="270.66" y1="195.22" x2="303.43" y2="178.61"/><line x1="202.67" y1="333.51" x2="202.05" y2="333.22"/><line x1="270.66" y1="195.22" x2="294.26" y2="171.71"/><line x1="313.99" y1="193.11" x2="314.13" y2="192.82"/><line x1="208.54" y1="335.68" x2="238.73" y2="353.41"/><line x1="270.66" y1="195.22" x2="277.36" y2="185.17"/><line x1="237.10" y1="356.54" x2="236.75" y2="356.57"/><line x1="204.87" y1="193.14" x2="204.37" y2="193.76"/><line x1="249.93" y1="198.40" x2="238.66" y2="170.25"/><line x1="276.45" y1="185.91" x2="275.62" y2="186.54"/><line x1="238.98" y1="347.51" x2="238.97" y2="348.98"/><line x1="199.11" y1="333.99" x2="199.18" y2="333.73"/><line x1="238.73" y1="353.41" x2="238.63" y2="354.15"/><line x1="199.37" y1="333.29" x2="199.50" y2="333.11"/><line x1="304.77" y1="203.08" x2="272.76" y2="199.72"/><line x1="210.33" y1="204.46" x2="210.42" y2="205.96"/><line x1="238.66" y1="170.25" x2="237.42" y2="170.84"/><line x1="198.97" y1="336.04" x2="198.95" y2="335.81"/><line x1="312.02" y1="187.69" x2="311.07" y2="186.47"/><line x1="270.66" y1="195.22" x2="313.99" y2="193.11"/><line x1="208.54" y1="342.06" x2="207.87" y2="335.84"/><line x1="205.19" y1="196.30" x2="205.61" y2="196.76"/><line x1="270.66" y1="195.22" x2="309.95" y2="185.16"/><line x1="32.00" y1="479.98" x2="32.00" y2="447.50"/><line x1="270.66" y1="195.22" x2="297.92" y2="173.95"/><line x1="217.01" y1="183.70" x2="242.34" y2="207.83"/><line x1="270.66" y1="195.22" x2="292.20" y2="172.43"/><line x1="270.12" y1="194.79" x2="272.18" y2="187.92"/><line x1="270.66" y1="195.22" x2="274.22" y2="187.45"/><line x1="237.41" y1="356.43" x2="237.10" y2="356.54"/><line x1="271.96" y1="197.06" x2="306.10" y2="200.82"/><line x1="238.98" y1="347.51" x2="210.37" y2="330.10"/><line x1="226.89" y1="177.08" x2="246.99" y2="201.06"/><line x1="268.80" y1="194.12" x2="268.01" y2="193.88"/><line x1="273.40" y1="355.01" x2="273.40" y2="211.09"/><line x1="201.10" y1="332.84" x2="199.11" y2="333.99"/><line x1="208.34" y1="190.10" x2="206.85" y2="191.31"/><line x1="303.43" y1="178.61" x2="302.01" y2="177.35"/><line x1="268.01" y1="193.88" x2="267.13" y2="193.68"/><line x1="210.07" y1="203.04" x2="210.33" y2="204.46"/><line x1="238.94" y1="350.31" x2="238.89" y2="351.49"/><line x1="270.66" y1="195.22" x2="311.94" y2="195.12"/><line x1="199.26" y1="333.50" x2="200.05" y2="332.78"/><line x1="273.19" y1="203.56" x2="273.08" y2="202.10"/><line x1="243.35" y1="205.96" x2="242.34" y2="207.83"/><line x1="270.66" y1="195.22" x2="313.83" y2="190.86"/><line x1="216.52" y1="346.50" x2="208.54" y2="342.06"/><line x1="270.66" y1="195.22" x2="304.82" y2="179.90"/><line x1="270.66" y1="195.22" x2="294.66" y2="171.80"/><line x1="270.66" y1="195.22" x2="284.06" y2="179.28"/><line x1="240.58" y1="169.80" x2="262.09" y2="193.51"/><line x1="199.37" y1="333.29" x2="199.83" y2="332.85"/><line x1="240.69" y1="211.75" x2="240.08" y2="213.75"/><line x1="305.69" y1="201.40" x2="271.96" y2="197.06"/><line x1="270.66" y1="195.22" x2="313.77" y2="193.43"/><line x1="270.66" y1="195.22" x2="311.07" y2="186.47"/><line x1="303.61" y1="206.58" x2="304.16" y2="204.62"/><line x1="270.66" y1="195.22" x2="299.15" y2="174.92"/><line x1="304.82" y1="179.90" x2="303.43" y2="178.61"/><line x1="271.59" y1="196.35" x2="271.16" y2="195.74"/><line x1="271.59" y1="187.83" x2="270.96" y2="187.66"/><line x1="301.43" y1="335.26" x2="273.40" y2="355.01"/><line x1="201.52" y1="333.00" x2="199.05" y2="334.27"/><line x1="270.30" y1="187.43" x2="268.01" y2="193.88"/><line x1="240.58" y1="169.80" x2="254.95" y2="195.38"/><line x1="273.40" y1="355.01" x2="302.07" y2="355.01"/><line x1="271.16" y1="195.74" x2="308.23" y2="198.42"/><line x1="268.01" y1="193.88" x2="269.60" y2="187.15"/><line x1="308.23" y1="198.42" x2="308.84" y2="197.82"/><line x1="295.96" y1="172.51" x2="295.23" y2="172.07"/><line x1="270.66" y1="195.22" x2="311.30" y2="195.63"/><line x1="243.35" y1="205.96" x2="217.01" y2="183.70"/><line x1="270.66" y1="195.22" x2="314.09" y2="191.76"/><line x1="301.67" y1="222.83" x2="301.95" y2="218.73"/><line x1="270.66" y1="195.22" x2="306.16" y2="181.20"/><line x1="200.05" y1="332.78" x2="199.37" y2="333.29"/><line x1="295.23" y1="172.07" x2="294.66" y2="171.80"/><line x1="238.98" y1="222.05" x2="238.98" y2="347.51"/><line x1="199.26" y1="336.82" x2="203.39" y2="333.86"/><line x1="301.95" y1="218.73" x2="302.28" y2="215.04"/><line x1="241.45" y1="209.77" x2="240.69" y2="211.75"/><line x1="201.52" y1="333.00" x2="198.95" y2="335.81"/><line x1="311.30" y1="195.63" x2="311.94" y2="195.12"/><line x1="240.58" y1="169.80" x2="263.96" y2="193.43"/><line x1="240.58" y1="169.80" x2="240.26" y2="169.80"/><line x1="206.36" y1="335.33" x2="205.74" y2="335.04"/><line x1="311.94" y1="195.12" x2="312.53" y2="194.64"/><line x1="240.69" y1="211.75" x2="208.34" y2="190.10"/><line x1="273.29" y1="205.18" x2="303.61" y2="206.58"/><line x1="291.55" y1="172.85" x2="290.86" y2="173.35"/><line x1="210.42" y1="328.03" x2="239.05" y2="219.94"/><line x1="270.66" y1="195.22" x2="313.44" y2="193.79"/><line x1="238.97" y1="348.98" x2="238.94" y2="350.31"/><line x1="303.61" y1="206.58" x2="273.19" y2="203.56"/><line x1="253.23" y1="196.24" x2="251.54" y2="197.25"/><line x1="199.26" y1="336.82" x2="206.88" y2="335.55"/><line x1="199.26" y1="336.82" x2="199.18" y2="336.71"/><line x1="201.52" y1="333.00" x2="199.18" y2="336.71"/><line x1="245.68" y1="202.57" x2="244.46" y2="204.21"/><line x1="314.17" y1="192.57" x2="314.09" y2="191.76"/><line x1="201.52" y1="333.00" x2="199.00" y2="334.56"/><line x1="240.58" y1="169.80" x2="256.69" y2="194.68"/><line x1="204.21" y1="194.17" x2="204.24" y2="194.59"/><line x1="64.64" y1="32.09" x2="32.16" y2="64.58"/><line x1="272.55" y1="198.74" x2="305.33" y2="201.97"/><line x1="199.18" y1="336.71" x2="199.11" y2="336.58"/><line x1="274.87" y1="187.05" x2="274.22" y2="187.45"/><line x1="238.50" y1="354.75" x2="238.35" y2="355.23"/><line x1="273.40" y1="211.09" x2="302.67" y2="211.79"/><line x1="268.88" y1="186.78" x2="268.12" y2="186.36"/><line x1="235.88" y1="171.64" x2="234.04" y2="172.68"/><line x1="238.35" y1="355.23" x2="238.16" y2="355.64"/><line x1="240.08" y1="213.75" x2="239.59" y2="215.78"/><line x1="198.95" y1="335.55" x2="198.95" y2="335.20"/><line x1="269.51" y1="194.42" x2="268.80" y2="194.12"/><line x1="199.26" y1="336.82" x2="204.20" y2="334.27"/><line x1="306.56" y1="200.23" x2="307.07" y2="199.63"/><line x1="198.95" y1="335.20" x2="198.97" y2="334.87"/><line x1="201.52" y1="333.00" x2="198.97" y2="336.04"/><line x1="301.43" y1="335.26" x2="300.95" y2="312.17"/><line x1="224.36" y1="178.71" x2="221.87" y2="180.36"/><line x1="199.18" y1="333.73" x2="199.26" y2="333.50"/><line x1="271.16" y1="195.74" x2="270.66" y2="195.22"/><line x1="273.40" y1="211.09" x2="300.79" y2="294.09"/><line x1="235.33" y1="356.17" x2="232.59" y2="354.96"/><line x1="200.77" y1="332.74" x2="200.54" y2="332.71"/><line x1="314.13" y1="192.82" x2="314.17" y2="192.57"/><line x1="267.13" y1="193.68" x2="266.16" y2="193.54"/><line x1="210.42" y1="328.03" x2="239.25" y2="217.84"/><line x1="240.08" y1="213.75" x2="209.63" y2="201.70"/><line x1="207.87" y1="335.84" x2="207.64" y2="335.81"/><line x1="32.16" y1="32.09" x2="64.64" y2="32.09"/><line x1="309.44" y1="197.25" x2="310.06" y2="196.69"/><line x1="275.62" y1="186.54" x2="274.87" y2="187.05"/><line x1="242.34" y1="207.83" x2="241.45" y2="209.77"/><line x1="199.26" y1="336.82" x2="207.31" y2="335.71"/><line x1="238.63" y1="354.15" x2="238.50" y2="354.75"/><line x1="272.76" y1="199.72" x2="272.55" y2="198.74"/><line x1="199.26" y1="336.82" x2="201.52" y2="333.00"/><line x1="201.52" y1="333.00" x2="198.97" y2="334.87"/><line x1="214.64" y1="185.38" x2="212.31" y2="187.08"/><line x1="237.42" y1="170.84" x2="235.88" y2="171.64"/><line x1="302.67" y1="211.79" x2="303.11" y2="208.97"/><line x1="272.55" y1="198.74" x2="305.02" y2="202.53"/><line x1="311.07" y1="186.47" x2="309.95" y2="185.16"/><line x1="205.61" y1="196.76" x2="206.12" y2="197.21"/><line x1="32.00" y1="447.50" x2="64.49" y2="479.98"/></g></svg>