<svg xmlns="http://www.w3.org/2000/svg" width="512" height="512"><rect width="512" height="512" fill="#0a0f1a"/><text x="12" y="20" font-family="monospace" font-size="11" fill="#4a7fa5">FRONT (XZ)</text><g stroke="#00d4ff" stroke-width="0.6" opacity="0.85"><line x1="270.06" y1="359.31" x2="267.72" y2="331.17"/><line x1="230.38" y1="355.04" x2="237.69" y2="337.33"/><line x1="309.63" y1="192.42" x2="309.35" y2="190.09"/><line x1="270.06" y1="359.31" x2="308.93" y2="346.11"/><line x1="282.67" y1="176.10" x2="281.83" y2="177.01"/><line x1="263.16" y1="193.43" x2="239.47" y2="170.86"/><line x1="270.06" y1="359.31" x2="310.40" y2="357.71"/><line x1="263.16" y1="193.43" x2="219.76" y2="181.66"/><line x1="217.18" y1="183.37" x2="214.67" y2="185.07"/><line x1="298.62" y1="358.92" x2="270.06" y2="359.31"/><line x1="279.04" y1="406.10" x2="283.07" y2="403.36"/><line x1="257.31" y1="334.92" x2="260.69" y2="333.99"/><line x1="281.83" y1="177.01" x2="280.94" y2="178.01"/><line x1="266.34" y1="188.30" x2="264.83" y2="187.31"/><line x1="298.62" y1="326.07" x2="298.73" y2="326.95"/><line x1="202.88" y1="198.99" x2="203.39" y2="199.34"/><line x1="237.84" y1="360.29" x2="239.52" y2="361.40"/><line x1="283.07" y1="403.36" x2="283.81" y2="402.78"/><line x1="307.17" y1="195.43" x2="305.43" y2="185.34"/><line x1="245.58" y1="337.59" x2="270.06" y2="359.31"/><line x1="298.73" y1="326.95" x2="299.05" y2="328.05"/><line x1="209.88" y1="188.50" x2="247.70" y2="197.88"/><line x1="205.89" y1="191.61" x2="204.40" y2="192.91"/><line x1="209.88" y1="188.50" x2="236.50" y2="210.84"/><line x1="211.76" y1="342.00" x2="230.38" y2="355.04"/><line x1="305.43" y1="185.34" x2="305.88" y2="196.97"/><line x1="276.19" y1="183.49" x2="275.31" y2="184.46"/><line x1="299.68" y1="205.07" x2="275.31" y2="184.46"/><line x1="255.25" y1="194.55" x2="253.32" y2="195.18"/><line x1="235.45" y1="331.39" x2="235.61" y2="332.65"/><line x1="248.53" y1="409.42" x2="248.72" y2="411.99"/><line x1="270.06" y1="359.31" x2="253.84" y2="335.79"/><line x1="286.53" y1="401.22" x2="286.88" y2="401.17"/><line x1="230.38" y1="355.04" x2="235.82" y2="333.77"/><line x1="300.34" y1="330.88" x2="301.30" y2="332.63"/><line x1="270.06" y1="359.31" x2="301.30" y2="332.63"/><line x1="275.31" y1="184.46" x2="274.46" y2="185.35"/><line x1="263.16" y1="193.43" x2="243.22" y2="171.56"/><line x1="270.06" y1="359.31" x2="311.37" y2="354.33"/><line x1="263.16" y1="193.43" x2="233.03" y2="173.73"/><line x1="270.06" y1="359.31" x2="307.79" y2="358.60"/><line x1="263.16" y1="193.43" x2="209.88" y2="188.50"/><line x1="206.47" y1="202.61" x2="206.63" y2="203.54"/><line x1="286.88" y1="401.17" x2="287.19" y2="401.27"/><line x1="301.55" y1="202.33" x2="298.45" y2="178.26"/><line x1="301.30" y1="332.63" x2="302.49" y2="334.58"/><line x1="258.39" y1="182.65" x2="245.88" y2="173.23"/><line x1="298.74" y1="207.04" x2="269.93" y2="200.68"/><line x1="237.69" y1="337.33" x2="238.28" y2="337.71"/><line x1="298.45" y1="178.26" x2="300.50" y2="203.80"/><line x1="209.88" y1="188.50" x2="257.20" y2="194.06"/><line x1="242.90" y1="201.49" x2="241.52" y2="202.87"/><line x1="209.88" y1="188.50" x2="241.52" y2="202.87"/><line x1="252.08" y1="413.42" x2="252.09" y2="407.39"/><line x1="299.68" y1="205.07" x2="286.82" y2="172.27"/><line x1="238.28" y1="337.71" x2="238.95" y2="337.97"/><line x1="309.99" y1="348.62" x2="310.76" y2="350.83"/><line x1="299.68" y1="205.07" x2="280.01" y2="179.08"/><line x1="271.50" y1="188.25" x2="270.89" y2="188.72"/><line x1="266.54" y1="194.24" x2="265.00" y2="193.63"/><line x1="235.25" y1="326.73" x2="206.68" y2="324.83"/><line x1="290.29" y1="405.79" x2="293.70" y2="411.97"/><line x1="270.06" y1="359.31" x2="265.90" y2="332.11"/><line x1="310.76" y1="350.83" x2="311.22" y2="352.73"/><line x1="263.16" y1="193.43" x2="260.85" y2="184.49"/><line x1="270.06" y1="359.31" x2="307.55" y2="343.30"/><line x1="240.97" y1="170.79" x2="240.30" y2="170.74"/><line x1="263.16" y1="193.43" x2="240.30" y2="170.74"/><line x1="270.06" y1="359.31" x2="310.74" y2="357.26"/><line x1="263.16" y1="193.43" x2="222.42" y2="179.97"/><line x1="267.03" y1="397.28" x2="268.72" y2="394.22"/><line x1="206.68" y1="324.83" x2="206.70" y2="327.45"/><line x1="241.86" y1="338.12" x2="237.84" y2="360.29"/><line x1="266.34" y1="188.30" x2="263.16" y2="193.43"/><line x1="206.90" y1="333.55" x2="207.01" y2="334.99"/><line x1="237.84" y1="360.29" x2="243.54" y2="337.92"/><line x1="299.10" y1="206.15" x2="298.74" y2="207.04"/><line x1="245.58" y1="337.59" x2="242.15" y2="362.83"/><line x1="209.88" y1="188.50" x2="249.53" y2="196.85"/><line x1="206.68" y1="323.07" x2="235.25" y2="217.61"/><line x1="480.00" y1="32.02" x2="447.51" y2="32.02"/><line x1="205.89" y1="191.61" x2="235.95" y2="212.51"/><line x1="209.88" y1="188.50" x2="237.21" y2="209.18"/><line x1="299.68" y1="205.07" x2="289.85" y2="171.71"/><line x1="299.68" y1="205.07" x2="284.22" y2="174.49"/><line x1="310.40" y1="357.71" x2="309.96" y2="358.06"/><line x1="299.68" y1="205.07" x2="276.19" y2="183.49"/><line x1="233.26" y1="357.11" x2="235.75" y2="358.86"/><line x1="235.45" y1="331.39" x2="207.01" y2="334.99"/><line x1="270.06" y1="359.31" x2="250.73" y2="336.52"/><line x1="304.98" y1="358.81" x2="303.15" y2="358.87"/><line x1="270.06" y1="359.31" x2="300.34" y2="330.88"/><line x1="263.16" y1="193.43" x2="244.06" y2="172.02"/><line x1="263.16" y1="193.43" x2="235.10" y2="172.66"/><line x1="250.87" y1="407.92" x2="252.08" y2="413.42"/><line x1="309.04" y1="193.15" x2="308.22" y2="194.15"/><line x1="298.74" y1="207.04" x2="271.50" y2="188.25"/><line x1="298.74" y1="207.04" x2="269.50" y2="198.46"/><line x1="235.25" y1="217.61" x2="235.25" y2="326.73"/><line x1="289.62" y1="404.56" x2="290.29" y2="405.79"/><line x1="209.88" y1="188.50" x2="259.17" y2="193.71"/><line x1="241.67" y1="170.94" x2="240.97" y2="170.79"/><line x1="253.83" y1="413.62" x2="255.91" y2="413.69"/><line x1="209.88" y1="188.50" x2="242.90" y2="201.49"/><line x1="299.68" y1="205.07" x2="287.40" y2="171.94"/><line x1="291.06" y1="172.27" x2="289.85" y2="171.71"/><line x1="299.68" y1="205.07" x2="280.94" y2="178.01"/><line x1="299.68" y1="205.07" x2="299.10" y2="206.15"/><line x1="236.50" y1="210.84" x2="207.72" y2="190.14"/><line x1="264.67" y1="400.07" x2="267.03" y2="397.28"/><line x1="304.36" y1="198.80" x2="302.84" y2="200.66"/><line x1="270.06" y1="359.31" x2="263.55" y2="333.06"/><line x1="289.85" y1="171.71" x2="288.90" y2="171.53"/><line x1="263.16" y1="193.43" x2="262.99" y2="186.04"/><line x1="269.38" y1="189.52" x2="268.99" y2="189.57"/><line x1="263.16" y1="193.43" x2="240.97" y2="170.79"/><line x1="207.72" y1="190.14" x2="205.89" y2="191.61"/><line x1="267.03" y1="397.28" x2="298.62" y2="358.92"/><line x1="303.37" y1="183.17" x2="300.93" y2="180.69"/><line x1="297.12" y1="413.55" x2="297.86" y2="413.66"/><line x1="310.74" y1="357.26" x2="310.40" y2="357.71"/><line x1="268.99" y1="189.57" x2="266.54" y2="194.24"/><line x1="233.03" y1="173.73" x2="230.65" y2="175.05"/><line x1="206.90" y1="333.55" x2="235.45" y2="331.39"/><line x1="297.86" y1="413.66" x2="298.62" y2="413.69"/><line x1="299.10" y1="206.15" x2="272.17" y2="187.66"/><line x1="286.22" y1="172.69" x2="285.59" y2="173.20"/><line x1="230.65" y1="175.05" x2="227.96" y2="176.60"/><line x1="253.83" y1="413.62" x2="261.63" y2="402.60"/><line x1="206.68" y1="323.07" x2="235.33" y2="215.90"/><line x1="480.00" y1="32.02" x2="480.00" y2="64.50"/><line x1="299.68" y1="205.07" x2="291.06" y2="172.27"/><line x1="242.15" y1="362.83" x2="270.06" y2="359.31"/><line x1="268.80" y1="196.65" x2="267.81" y2="195.25"/><line x1="285.59" y1="173.20" x2="284.92" y2="173.80"/><line x1="299.68" y1="205.07" x2="284.92" y2="173.80"/><line x1="267.54" y1="189.00" x2="265.00" y2="193.63"/><line x1="299.68" y1="205.07" x2="277.10" y2="182.46"/><line x1="480.00" y1="479.91" x2="480.00" y2="447.42"/><line x1="201.75" y1="196.46" x2="201.79" y2="197.06"/><line x1="235.61" y1="332.65" x2="210.74" y2="341.27"/><line x1="233.26" y1="357.11" x2="240.54" y2="338.18"/><line x1="263.41" y1="412.85" x2="267.24" y2="411.80"/><line x1="309.35" y1="190.09" x2="309.04" y2="193.15"/><line x1="304.98" y1="358.81" x2="301.03" y2="358.91"/><line x1="265.00" y1="193.63" x2="266.34" y2="188.30"/><line x1="214.67" y1="185.07" x2="212.23" y2="186.78"/><line x1="207.94" y1="338.41" x2="208.45" y2="339.12"/><line x1="309.04" y1="193.15" x2="308.41" y2="188.81"/><line x1="280.94" y1="178.01" x2="280.01" y2="179.08"/><line x1="298.62" y1="358.92" x2="296.40" y2="413.38"/><line x1="212.23" y1="186.78" x2="209.88" y2="188.50"/><line x1="235.95" y1="212.51" x2="203.98" y2="199.64"/><line x1="447.51" y1="479.91" x2="480.00" y2="447.42"/><line x1="235.95" y1="212.51" x2="235.56" y2="214.19"/><line x1="263.55" y1="333.06" x2="265.90" y2="332.11"/><line x1="280.01" y1="179.08" x2="279.03" y2="180.22"/><line x1="248.72" y1="411.99" x2="249.52" y2="412.60"/><line x1="203.98" y1="199.64" x2="204.69" y2="200.01"/><line x1="309.91" y1="191.09" x2="309.63" y2="192.42"/><line x1="284.49" y1="402.29" x2="285.09" y2="401.89"/><line x1="299.68" y1="205.07" x2="287.93" y2="171.71"/><line x1="268.80" y1="196.65" x2="269.50" y2="198.46"/><line x1="235.61" y1="332.65" x2="207.57" y2="337.70"/><line x1="249.08" y1="408.93" x2="249.86" y2="408.43"/><line x1="235.82" y1="333.77" x2="236.07" y2="334.74"/><line x1="304.36" y1="198.80" x2="303.37" y2="183.17"/><line x1="273.66" y1="186.19" x2="272.89" y2="186.97"/><line x1="251.41" y1="195.95" x2="249.53" y2="196.85"/><line x1="298.62" y1="358.92" x2="286.11" y2="401.35"/><line x1="302.49" y1="334.58" x2="303.88" y2="336.76"/><line x1="298.62" y1="358.92" x2="290.29" y2="405.79"/><line x1="235.95" y1="212.51" x2="201.93" y2="197.62"/><line x1="252.09" y1="407.39" x2="253.53" y2="406.85"/><line x1="235.95" y1="212.51" x2="206.19" y2="201.79"/><line x1="238.95" y1="337.97" x2="239.71" y2="338.14"/><line x1="296.21" y1="176.20" x2="294.23" y2="174.52"/><line x1="303.88" y1="336.76" x2="305.87" y2="340.18"/><line x1="253.83" y1="413.62" x2="257.92" y2="404.86"/><line x1="268.80" y1="196.65" x2="269.83" y2="189.36"/><line x1="206.70" y1="327.45" x2="206.74" y2="329.78"/><line x1="480.00" y1="479.91" x2="447.51" y2="479.91"/><line x1="235.61" y1="332.65" x2="209.85" y2="340.56"/><line x1="235.27" y1="328.43" x2="235.33" y2="329.98"/><line x1="243.54" y1="337.92" x2="245.58" y2="337.59"/><line x1="298.62" y1="358.92" x2="283.07" y2="403.36"/><line x1="283.81" y1="402.78" x2="284.49" y2="402.29"/><line x1="311.37" y1="354.33" x2="311.33" y2="355.23"/><line x1="298.62" y1="358.92" x2="287.55" y2="401.55"/><line x1="298.62" y1="358.92" x2="295.70" y2="413.13"/><line x1="299.05" y1="328.05" x2="269.80" y2="329.28"/><line x1="235.95" y1="212.51" x2="203.24" y2="194.05"/><line x1="268.72" y1="394.22" x2="269.73" y2="390.89"/><line x1="235.95" y1="212.51" x2="203.39" y2="199.34"/><line x1="239.52" y1="361.40" x2="240.80" y2="362.20"/><line x1="235.95" y1="212.51" x2="206.68" y2="323.07"/><line x1="305.88" y1="196.97" x2="304.36" y2="198.80"/><line x1="207.01" y1="334.99" x2="207.16" y2="336.14"/><line x1="248.72" y1="411.99" x2="249.08" y2="408.93"/><line x1="253.83" y1="413.62" x2="298.62" y2="358.92"/><line x1="309.91" y1="191.09" x2="310.10" y2="191.79"/><line x1="269.93" y1="200.68" x2="270.06" y2="203.29"/><line x1="274.46" y1="185.35" x2="273.66" y2="186.19"/><line x1="299.05" y1="328.05" x2="270.06" y2="359.31"/><line x1="235.61" y1="332.65" x2="207.32" y2="336.99"/><line x1="309.98" y1="191.96" x2="309.63" y2="192.42"/><line x1="287.19" y1="401.27" x2="287.55" y2="401.55"/><line x1="235.61" y1="332.65" x2="235.82" y2="333.77"/><line x1="270.06" y1="328.33" x2="298.73" y2="326.95"/><line x1="273.66" y1="186.19" x2="299.10" y2="206.15"/><line x1="206.68" y1="204.57" x2="206.68" y2="323.07"/><line x1="298.62" y1="358.92" x2="263.41" y2="412.85"/><line x1="287.55" y1="401.55" x2="287.97" y2="402.02"/><line x1="298.62" y1="358.92" x2="285.63" y2="401.58"/><line x1="300.50" y1="203.80" x2="296.21" y2="176.20"/><line x1="298.62" y1="358.92" x2="289.62" y2="404.56"/><line x1="269.80" y1="329.28" x2="270.06" y2="359.31"/><line x1="244.95" y1="172.58" x2="244.06" y2="172.02"/><line x1="248.24" y1="411.24" x2="248.53" y2="409.42"/><line x1="298.62" y1="358.92" x2="298.62" y2="413.69"/><line x1="269.80" y1="329.28" x2="269.02" y2="330.23"/><line x1="235.95" y1="212.51" x2="201.79" y2="197.06"/><line x1="252.09" y1="407.39" x2="253.83" y2="413.62"/><line x1="235.95" y1="212.51" x2="205.80" y2="201.09"/><line x1="238.95" y1="337.97" x2="233.26" y2="357.11"/><line x1="296.21" y1="176.20" x2="299.68" y2="205.07"/><line x1="270.89" y1="188.72" x2="268.80" y2="196.65"/><line x1="240.25" y1="204.36" x2="239.09" y2="205.92"/><line x1="253.83" y1="413.62" x2="253.53" y2="406.85"/><line x1="307.11" y1="187.22" x2="305.43" y2="185.34"/><line x1="293.70" y1="411.97" x2="294.35" y2="412.43"/><line x1="311.22" y1="352.73" x2="311.37" y2="354.33"/><line x1="268.80" y1="196.65" x2="270.33" y2="189.09"/><line x1="206.70" y1="327.45" x2="235.27" y2="328.43"/><line x1="294.35" y1="412.43" x2="295.01" y2="412.82"/><line x1="270.06" y1="203.29" x2="270.06" y2="328.33"/><line x1="253.32" y1="195.18" x2="251.41" y2="195.95"/><line x1="288.90" y1="171.53" x2="288.43" y2="171.57"/><line x1="239.47" y1="170.86" x2="238.32" y2="171.22"/><line x1="298.62" y1="358.92" x2="268.72" y2="394.22"/><line x1="243.54" y1="337.92" x2="239.52" y2="361.40"/><line x1="298.62" y1="358.92" x2="279.04" y2="406.10"/><line x1="288.43" y1="171.57" x2="287.93" y2="171.71"/><line x1="206.63" y1="203.54" x2="206.68" y2="204.57"/><line x1="298.62" y1="358.92" x2="287.19" y2="401.27"/><line x1="298.62" y1="358.92" x2="295.01" y2="412.82"/><line x1="235.95" y1="212.51" x2="204.40" y2="192.91"/><line x1="245.88" y1="173.23" x2="244.95" y2="172.58"/><line x1="235.95" y1="212.51" x2="202.88" y2="198.99"/><line x1="309.96" y1="358.06" x2="309.46" y2="358.29"/><line x1="269.50" y1="198.46" x2="269.93" y2="200.68"/><line x1="207.01" y1="334.99" x2="235.61" y2="332.65"/><line x1="309.91" y1="191.09" x2="309.98" y2="191.96"/><line x1="241.52" y1="202.87" x2="240.25" y2="204.36"/><line x1="225.15" y1="178.29" x2="222.42" y2="179.97"/><line x1="230.38" y1="355.04" x2="237.17" y2="336.84"/><line x1="308.41" y1="188.81" x2="307.11" y2="187.22"/><line x1="247.98" y1="337.12" x2="250.73" y2="336.52"/><line x1="284.22" y1="174.49" x2="283.47" y2="175.26"/><line x1="270.06" y1="328.33" x2="298.62" y2="326.07"/><line x1="201.93" y1="197.62" x2="202.16" y2="198.13"/><line x1="240.30" y1="170.74" x2="239.47" y2="170.86"/><line x1="298.62" y1="358.92" x2="270.06" y2="387.30"/><line x1="308.22" y1="194.15" x2="307.17" y2="195.43"/><line x1="267.81" y1="195.25" x2="266.54" y2="194.24"/><line x1="298.62" y1="358.92" x2="285.09" y2="401.89"/><line x1="235.33" y1="329.98" x2="235.45" y2="331.39"/><line x1="248.24" y1="411.24" x2="248.08" y2="410.35"/><line x1="209.08" y1="339.84" x2="209.85" y2="340.56"/><line x1="249.52" y1="412.60" x2="250.64" y2="413.08"/><line x1="230.38" y1="355.04" x2="233.26" y2="357.11"/><line x1="270.06" y1="359.31" x2="311.22" y2="352.73"/><line x1="302.84" y1="200.66" x2="301.55" y2="202.33"/><line x1="270.06" y1="359.31" x2="308.77" y2="358.46"/><line x1="263.16" y1="193.43" x2="212.23" y2="186.78"/><line x1="249.86" y1="408.43" x2="250.87" y2="407.92"/><line x1="480.00" y1="64.50" x2="447.51" y2="32.02"/><line x1="266.54" y1="194.24" x2="267.54" y2="189.00"/><line x1="267.24" y1="411.80" x2="271.12" y2="410.32"/><line x1="230.38" y1="355.04" x2="236.73" y2="336.26"/><line x1="270.06" y1="359.31" x2="305.87" y2="340.18"/><line x1="240.54" y1="338.18" x2="241.86" y2="338.12"/><line x1="270.06" y1="359.31" x2="311.02" y2="356.69"/><line x1="308.41" y1="188.81" x2="308.22" y2="194.15"/><line x1="269.83" y1="189.36" x2="269.38" y2="189.52"/><line x1="263.16" y1="193.43" x2="225.15" y2="178.29"/><line x1="270.06" y1="328.33" x2="298.62" y2="207.73"/><line x1="206.74" y1="329.78" x2="206.80" y2="331.81"/><line x1="261.15" y1="193.50" x2="259.17" y2="193.71"/><line x1="235.33" y1="329.98" x2="206.90" y2="333.55"/><line x1="245.58" y1="337.59" x2="241.67" y2="362.68"/><line x1="285.09" y1="401.89" x2="285.63" y2="401.58"/><line x1="209.88" y1="188.50" x2="251.41" y2="195.95"/><line x1="267.72" y1="331.17" x2="269.02" y2="330.23"/><line x1="209.88" y1="188.50" x2="238.08" y2="207.54"/><line x1="205.30" y1="200.49" x2="205.80" y2="201.09"/><line x1="227.96" y1="176.60" x2="225.15" y2="178.29"/><line x1="264.83" y1="187.31" x2="262.99" y2="186.04"/><line x1="270.06" y1="359.31" x2="247.98" y2="337.12"/><line x1="284.92" y1="173.80" x2="284.22" y2="174.49"/><line x1="270.06" y1="359.31" x2="299.59" y2="329.36"/><line x1="249.52" y1="412.60" x2="249.86" y2="408.43"/><line x1="263.16" y1="193.43" x2="244.95" y2="172.58"/><line x1="236.37" y1="335.56" x2="236.73" y2="336.26"/><line x1="270.06" y1="359.31" x2="310.76" y2="350.83"/><line x1="263.16" y1="193.43" x2="236.87" y2="171.82"/><line x1="201.79" y1="197.06" x2="201.93" y2="197.62"/><line x1="270.06" y1="359.31" x2="309.46" y2="358.29"/><line x1="263.16" y1="193.43" x2="214.67" y2="185.07"/><line x1="247.70" y1="197.88" x2="245.99" y2="198.99"/><line x1="301.03" y1="358.91" x2="303.15" y2="358.87"/><line x1="305.87" y1="340.18" x2="307.55" y2="343.30"/><line x1="272.89" y1="186.97" x2="272.17" y2="187.66"/><line x1="298.74" y1="207.04" x2="298.62" y2="207.73"/><line x1="208.45" y1="339.12" x2="209.08" y2="339.84"/><line x1="235.56" y1="214.19" x2="235.33" y2="215.90"/><line x1="209.88" y1="188.50" x2="261.15" y2="193.50"/><line x1="209.88" y1="188.50" x2="244.39" y2="200.19"/><line x1="243.22" y1="171.56" x2="242.42" y2="171.20"/><line x1="265.90" y1="332.11" x2="267.72" y2="331.17"/><line x1="279.03" y1="180.22" x2="278.05" y2="181.38"/><line x1="299.68" y1="205.07" x2="281.83" y2="177.01"/><line x1="305.43" y1="185.34" x2="303.37" y2="183.17"/><line x1="239.71" y1="338.14" x2="240.54" y2="338.18"/><line x1="299.68" y1="205.07" x2="273.66" y2="186.19"/><line x1="294.23" y1="174.52" x2="292.52" y2="173.21"/><line x1="204.69" y1="200.01" x2="205.30" y2="200.49"/><line x1="238.08" y1="207.54" x2="237.21" y2="209.18"/><line x1="270.06" y1="359.31" x2="260.69" y2="333.99"/><line x1="263.16" y1="193.43" x2="264.83" y2="187.31"/><line x1="270.06" y1="359.31" x2="303.88" y2="336.76"/><line x1="263.16" y1="193.43" x2="241.67" y2="170.94"/><line x1="311.33" y1="355.23" x2="311.22" y2="356.01"/><line x1="270.06" y1="359.31" x2="311.22" y2="356.01"/><line x1="269.83" y1="189.36" x2="267.81" y2="195.25"/><line x1="263.16" y1="193.43" x2="227.96" y2="176.60"/><line x1="236.07" y1="334.74" x2="236.37" y2="335.56"/><line x1="303.37" y1="183.17" x2="302.84" y2="200.66"/><line x1="32.16" y1="32.09" x2="32.16" y2="64.58"/><line x1="206.74" y1="329.78" x2="235.33" y2="329.98"/><line x1="249.53" y1="196.85" x2="247.70" y2="197.88"/><line x1="298.74" y1="207.04" x2="270.06" y2="203.29"/><line x1="236.87" y1="171.82" x2="235.10" y2="172.66"/><line x1="299.10" y1="206.15" x2="272.89" y2="186.97"/><line x1="269.73" y1="390.89" x2="270.06" y2="387.30"/><line x1="245.58" y1="337.59" x2="240.80" y2="362.20"/><line x1="209.88" y1="188.50" x2="253.32" y2="195.18"/><line x1="206.68" y1="323.07" x2="235.56" y2="214.19"/><line x1="268.42" y1="189.43" x2="267.54" y2="189.00"/><line x1="287.97" y1="402.02" x2="288.46" y2="402.68"/><line x1="209.88" y1="188.50" x2="239.09" y2="205.92"/><line x1="299.68" y1="205.07" x2="292.52" y2="173.21"/><line x1="299.68" y1="205.07" x2="285.59" y2="173.20"/><line x1="244.06" y1="172.02" x2="243.22" y2="171.56"/><line x1="299.68" y1="205.07" x2="278.05" y2="181.38"/><line x1="233.26" y1="357.11" x2="239.71" y2="338.14"/><line x1="235.25" y1="326.73" x2="235.27" y2="328.43"/><line x1="270.06" y1="359.31" x2="269.02" y2="330.23"/><line x1="263.16" y1="193.43" x2="245.88" y2="173.23"/><line x1="270.06" y1="359.31" x2="309.99" y2="348.62"/><line x1="263.16" y1="193.43" x2="238.32" y2="171.22"/><line x1="263.16" y1="193.43" x2="217.18" y2="183.37"/><line x1="268.99" y1="189.57" x2="268.42" y2="189.43"/><line x1="298.74" y1="207.04" x2="270.06" y2="328.33"/><line x1="253.53" y1="406.85" x2="257.92" y2="404.86"/><line x1="307.17" y1="195.43" x2="305.88" y2="196.97"/><line x1="255.91" y1="413.69" x2="259.64" y2="413.49"/><line x1="209.88" y1="188.50" x2="245.99" y2="198.99"/><line x1="206.68" y1="323.07" x2="206.68" y2="324.83"/><line x1="209.88" y1="188.50" x2="207.72" y2="190.14"/><line x1="299.68" y1="205.07" x2="288.43" y2="171.57"/><line x1="299.68" y1="205.07" x2="282.67" y2="176.10"/><line x1="299.68" y1="205.07" x2="274.46" y2="185.35"/><line x1="249.08" y1="408.93" x2="249.52" y2="412.60"/><line x1="270.06" y1="359.31" x2="257.31" y2="334.92"/><line x1="32.00" y1="479.98" x2="64.49" y2="479.98"/><line x1="263.16" y1="193.43" x2="242.42" y2="171.20"/><line x1="263.16" y1="193.43" x2="230.65" y2="175.05"/><line x1="301.55" y1="202.33" x2="300.50" y2="203.80"/><line x1="298.74" y1="207.04" x2="268.80" y2="196.65"/><line x1="209.88" y1="188.50" x2="255.25" y2="194.55"/><line x1="299.68" y1="205.07" x2="294.23" y2="174.52"/><line x1="299.68" y1="205.07" x2="286.22" y2="172.69"/><line x1="207.16" y1="336.14" x2="207.32" y2="336.99"/><line x1="299.68" y1="205.07" x2="279.03" y2="180.22"/><line x1="239.09" y1="205.92" x2="238.08" y2="207.54"/><line x1="235.61" y1="332.65" x2="209.08" y2="339.84"/><line x1="236.50" y1="210.84" x2="235.95" y2="212.51"/><line x1="235.25" y1="326.73" x2="206.70" y2="327.45"/><line x1="270.33" y1="189.09" x2="269.83" y2="189.36"/><line x1="253.84" y1="335.79" x2="257.31" y2="334.92"/><line x1="263.16" y1="193.43" x2="258.39" y2="182.65"/><line x1="265.00" y1="193.63" x2="263.16" y2="193.43"/><line x1="235.27" y1="328.43" x2="206.74" y2="329.78"/><line x1="295.01" y1="412.82" x2="295.70" y2="413.13"/><line x1="202.47" y1="198.59" x2="202.88" y2="198.99"/><line x1="241.86" y1="338.12" x2="243.54" y2="337.92"/><line x1="238.32" y1="171.22" x2="236.87" y2="171.82"/><line x1="239.52" y1="361.40" x2="245.58" y2="337.59"/><line x1="235.95" y1="212.51" x2="206.68" y2="204.57"/><line x1="287.93" y1="171.71" x2="287.40" y2="171.94"/><line x1="210.74" y1="341.27" x2="211.76" y2="342.00"/><line x1="204.40" y1="192.91" x2="203.24" y2="194.05"/><line x1="253.83" y1="413.62" x2="267.03" y2="397.28"/><line x1="206.68" y1="323.07" x2="235.25" y2="326.73"/><line x1="257.20" y1="194.06" x2="255.25" y2="194.55"/><line x1="309.46" y1="358.29" x2="308.77" y2="358.46"/><line x1="299.68" y1="205.07" x2="288.90" y2="171.53"/><line x1="299.68" y1="205.07" x2="283.47" y2="175.26"/><line x1="235.61" y1="332.65" x2="207.16" y2="336.14"/><line x1="309.98" y1="191.96" x2="310.10" y2="191.79"/><line x1="235.61" y1="332.65" x2="230.38" y2="355.04"/><line x1="308.77" y1="358.46" x2="307.79" y2="358.60"/><line x1="206.19" y1="201.79" x2="206.47" y2="202.61"/><line x1="222.42" y1="179.97" x2="219.76" y2="181.66"/><line x1="32.00" y1="479.98" x2="32.00" y2="447.50"/><line x1="260.85" y1="184.49" x2="258.39" y2="182.65"/><line x1="250.73" y1="336.52" x2="253.84" y2="335.79"/><line x1="283.47" y1="175.26" x2="282.67" y2="176.10"/><line x1="250.87" y1="407.92" x2="252.09" y2="407.39"/><line x1="298.62" y1="358.92" x2="289.01" y2="403.53"/><line x1="202.16" y1="198.13" x2="202.47" y2="198.59"/><line x1="298.62" y1="358.92" x2="297.86" y2="413.66"/><line x1="298.74" y1="207.04" x2="270.89" y2="188.72"/><line x1="275.05" y1="408.42" x2="279.04" y2="406.10"/><line x1="235.95" y1="212.51" x2="201.75" y2="196.46"/><line x1="235.95" y1="212.51" x2="205.30" y2="200.49"/><line x1="244.39" y1="200.19" x2="242.90" y2="201.49"/><line x1="298.62" y1="207.73" x2="298.62" y2="326.07"/><line x1="248.19" y1="409.90" x2="248.53" y2="409.42"/><line x1="209.85" y1="340.56" x2="210.74" y2="341.27"/><line x1="307.11" y1="187.22" x2="307.17" y2="195.43"/><line x1="259.17" y1="193.71" x2="257.20" y2="194.06"/><line x1="235.61" y1="332.65" x2="208.45" y2="339.12"/><line x1="236.50" y1="210.84" x2="205.89" y2="191.61"/><line x1="205.80" y1="201.09" x2="206.19" y2="201.79"/><line x1="300.93" y1="180.69" x2="298.45" y2="178.26"/><line x1="299.59" y1="329.36" x2="300.34" y2="330.88"/><line x1="298.62" y1="358.92" x2="275.05" y2="408.42"/><line x1="298.62" y1="358.92" x2="286.88" y2="401.17"/><line x1="298.62" y1="358.92" x2="294.35" y2="412.43"/><line x1="250.64" y1="413.08" x2="252.08" y2="413.42"/><line x1="235.95" y1="212.51" x2="202.47" y2="198.59"/><line x1="272.17" y1="187.66" x2="271.50" y2="188.25"/><line x1="235.95" y1="212.51" x2="206.63" y2="203.54"/><line x1="237.17" y1="336.84" x2="237.69" y2="337.33"/><line x1="253.83" y1="413.62" x2="264.67" y2="400.07"/><line x1="267.54" y1="189.00" x2="266.34" y2="188.30"/><line x1="271.12" y1="410.32" x2="275.05" y2="408.42"/><line x1="308.93" y1="346.11" x2="309.99" y2="348.62"/><line x1="235.61" y1="332.65" x2="211.76" y2="342.00"/><line x1="309.35" y1="190.09" x2="308.41" y2="188.81"/><line x1="235.75" y1="358.86" x2="237.84" y2="360.29"/><line x1="298.62" y1="358.92" x2="259.64" y2="413.49"/><line x1="308.22" y1="194.15" x2="307.11" y2="187.22"/><line x1="267.81" y1="195.25" x2="268.99" y2="189.57"/><line x1="298.62" y1="358.92" x2="284.49" y2="402.29"/><line x1="298.62" y1="358.92" x2="288.46" y2="402.68"/><line x1="248.24" y1="411.24" x2="248.19" y2="409.90"/><line x1="298.62" y1="358.92" x2="297.12" y2="413.55"/><line x1="235.95" y1="212.51" x2="201.91" y2="195.82"/><line x1="235.95" y1="212.51" x2="204.69" y2="200.01"/><line x1="278.05" y1="181.38" x2="277.10" y2="182.46"/><line x1="248.19" y1="409.90" x2="248.08" y2="410.35"/><line x1="285.63" y1="401.58" x2="286.11" y2="401.35"/><line x1="309.91" y1="191.09" x2="309.35" y2="190.09"/><line x1="277.10" y1="182.46" x2="276.19" y2="183.49"/><line x1="230.38" y1="355.04" x2="238.95" y2="337.97"/><line x1="286.11" y1="401.35" x2="286.53" y2="401.22"/><line x1="302.84" y1="200.66" x2="300.93" y2="180.69"/><line x1="235.61" y1="332.65" x2="207.94" y2="338.41"/><line x1="262.99" y1="186.04" x2="260.85" y2="184.49"/><line x1="270.06" y1="328.33" x2="269.80" y2="329.28"/><line x1="249.86" y1="408.43" x2="250.64" y2="413.08"/><line x1="236.73" y1="336.26" x2="237.17" y2="336.84"/><line x1="300.93" y1="180.69" x2="301.55" y2="202.33"/><line x1="298.62" y1="358.92" x2="271.12" y2="410.32"/><line x1="298.62" y1="358.92" x2="286.53" y2="401.22"/><line x1="245.99" y1="198.99" x2="244.39" y2="200.19"/><line x1="298.62" y1="358.92" x2="293.70" y2="411.97"/><line x1="250.64" y1="413.08" x2="250.87" y2="407.92"/><line x1="288.46" y1="402.68" x2="289.01" y2="403.53"/><line x1="235.95" y1="212.51" x2="202.16" y2="198.13"/><line x1="307.55" y1="343.30" x2="308.93" y2="346.11"/><line x1="272.17" y1="187.66" x2="298.74" y2="207.04"/><line x1="235.95" y1="212.51" x2="206.47" y2="202.61"/><line x1="235.33" y1="215.90" x2="235.25" y2="217.61"/><line x1="270.06" y1="387.30" x2="270.06" y2="359.31"/><line x1="289.01" y1="403.53" x2="289.62" y2="404.56"/><line x1="242.42" y1="171.20" x2="241.67" y2="170.94"/><line x1="230.38" y1="355.04" x2="236.37" y2="335.56"/><line x1="257.92" y1="404.86" x2="261.63" y2="402.60"/><line x1="240.54" y1="338.18" x2="235.75" y2="358.86"/><line x1="292.52" y1="173.21" x2="291.06" y2="172.27"/><line x1="270.06" y1="359.31" x2="304.98" y2="358.81"/><line x1="237.21" y1="209.18" x2="236.50" y2="210.84"/><line x1="261.63" y1="402.60" x2="264.67" y2="400.07"/><line x1="235.75" y1="358.86" x2="241.86" y2="338.12"/><line x1="311.22" y1="356.01" x2="311.02" y2="356.69"/><line x1="298.62" y1="358.92" x2="269.73" y2="390.89"/><line x1="267.81" y1="195.25" x2="269.38" y2="189.52"/><line x1="298.62" y1="358.92" x2="283.81" y2="402.78"/><line x1="298.62" y1="358.92" x2="301.03" y2="358.91"/><line x1="298.62" y1="358.92" x2="287.97" y2="402.02"/><line x1="235.33" y1="329.98" x2="206.80" y2="331.81"/><line x1="296.40" y1="413.38" x2="297.12" y2="413.55"/><line x1="235.95" y1="212.51" x2="202.41" y2="195.02"/><line x1="311.02" y1="356.69" x2="310.74" y2="357.26"/><line x1="235.10" y1="172.66" x2="233.03" y2="173.73"/><line x1="64.64" y1="32.09" x2="32.16" y2="64.58"/><line x1="259.64" y1="413.49" x2="263.41" y2="412.85"/><line x1="206.80" y1="331.81" x2="206.90" y2="333.55"/><line x1="240.80" y1="362.20" x2="241.67" y2="362.68"/><line x1="286.82" y1="172.27" x2="286.22" y2="172.69"/><line x1="202.41" y1="195.02" x2="201.91" y2="195.82"/><line x1="230.38" y1="355.04" x2="238.28" y2="337.71"/><line x1="309.63" y1="192.42" x2="309.04" y2="193.15"/><line x1="241.67" y1="362.68" x2="242.15" y2="362.83"/><line x1="299.05" y1="328.05" x2="299.59" y2="329.36"/><line x1="307.79" y1="358.60" x2="306.53" y2="358.72"/><line x1="270.06" y1="359.31" x2="309.96" y2="358.06"/><line x1="201.91" y1="195.82" x2="201.75" y2="196.46"/><line x1="270.06" y1="328.33" x2="299.05" y2="328.05"/><line x1="207.32" y1="336.99" x2="207.57" y2="337.70"/><line x1="306.53" y1="358.72" x2="304.98" y2="358.81"/><line x1="298.62" y1="358.92" x2="267.24" y2="411.80"/><line x1="300.50" y1="203.80" x2="299.68" y2="205.07"/><line x1="207.57" y1="337.70" x2="207.94" y2="338.41"/><line x1="248.24" y1="411.24" x2="248.72" y2="411.99"/><line x1="245.58" y1="337.59" x2="247.98" y2="337.12"/><line x1="270.89" y1="188.72" x2="270.33" y2="189.09"/><line x1="305.43" y1="185.34" x2="304.36" y2="198.80"/><line x1="260.69" y1="333.99" x2="263.55" y2="333.06"/><line x1="266.54" y1="194.24" x2="268.42" y2="189.43"/><line x1="248.53" y1="409.42" x2="249.08" y2="408.93"/><line x1="203.39" y1="199.34" x2="203.98" y2="199.64"/><line x1="230.38" y1="355.04" x2="236.07" y2="334.74"/><line x1="270.06" y1="359.31" x2="302.49" y2="334.58"/><line x1="295.70" y1="413.13" x2="296.40" y2="413.38"/><line x1="270.06" y1="359.31" x2="311.33" y2="355.23"/><line x1="270.06" y1="359.31" x2="306.53" y2="358.72"/><line x1="263.16" y1="193.43" x2="261.15" y2="193.50"/><line x1="32.16" y1="32.09" x2="64.64" y2="32.09"/><line x1="287.40" y1="171.94" x2="286.82" y2="172.27"/><line x1="298.62" y1="358.92" x2="255.91" y2="413.69"/><line x1="298.62" y1="358.92" x2="304.98" y2="358.81"/><line x1="203.24" y1="194.05" x2="202.41" y2="195.02"/><line x1="298.45" y1="178.26" x2="296.21" y2="176.20"/><line x1="209.88" y1="188.50" x2="240.25" y2="204.36"/><line x1="252.08" y1="413.42" x2="253.83" y2="413.62"/><line x1="219.76" y1="181.66" x2="217.18" y2="183.37"/><line x1="32.00" y1="447.50" x2="64.49" y2="479.98"/></g></svg>