<svg xmlns="http://www.w3.org/2000/svg" width="512" height="512"><rect width="512" height="512" fill="#0a0f1a"/><text x="12" y="20" font-family="monospace" font-size="11" fill="#4a7fa5">FRONT (XZ)</text><g stroke="#00d4ff" stroke-width="0.6" opacity="0.85"><line x1="321.40" y1="289.64" x2="323.19" y2="288.54"/><line x1="347.87" y1="200.60" x2="330.17" y2="196.17"/><line x1="192.96" y1="283.16" x2="192.21" y2="282.63"/><line x1="322.45" y1="320.02" x2="322.72" y2="319.89"/><line x1="195.04" y1="315.09" x2="193.88" y2="314.77"/><line x1="187.77" y1="302.62" x2="185.47" y2="305.52"/><line x1="186.37" y1="302.01" x2="184.93" y2="302.04"/><line x1="348.41" y1="201.91" x2="348.28" y2="201.42"/><line x1="314.57" y1="277.41" x2="313.51" y2="276.98"/><line x1="206.50" y1="188.51" x2="196.94" y2="198.75"/><line x1="268.94" y1="349.34" x2="266.62" y2="375.95"/><line x1="322.72" y1="319.89" x2="322.93" y2="319.70"/><line x1="196.49" y1="306.36" x2="192.93" y2="314.37"/><line x1="266.31" y1="314.87" x2="306.46" y2="306.49"/><line x1="268.94" y1="349.34" x2="258.28" y2="361.51"/><line x1="290.13" y1="184.77" x2="347.25" y2="200.04"/><line x1="203.69" y1="205.44" x2="202.55" y2="203.93"/><line x1="313.51" y1="276.98" x2="312.17" y2="276.64"/><line x1="191.53" y1="273.20" x2="190.16" y2="272.57"/><line x1="165.68" y1="186.68" x2="165.03" y2="185.31"/><line x1="267.35" y1="377.58" x2="271.57" y2="376.48"/><line x1="204.57" y1="185.49" x2="202.76" y2="182.78"/><line x1="297.02" y1="174.77" x2="296.05" y2="175.87"/><line x1="297.71" y1="221.06" x2="273.88" y2="213.35"/><line x1="190.16" y1="272.57" x2="188.98" y2="272.03"/><line x1="323.10" y1="318.20" x2="320.87" y2="319.67"/><line x1="210.70" y1="195.49" x2="208.54" y2="191.84"/><line x1="267.66" y1="336.42" x2="248.53" y2="359.29"/><line x1="184.59" y1="303.69" x2="186.37" y2="302.01"/><line x1="267.66" y1="336.42" x2="242.40" y2="356.99"/><line x1="321.40" y1="289.64" x2="322.45" y2="289.73"/><line x1="347.87" y1="200.60" x2="341.03" y2="202.30"/><line x1="308.37" y1="284.98" x2="306.46" y2="276.21"/><line x1="273.88" y1="213.35" x2="257.90" y2="242.87"/><line x1="202.76" y1="182.78" x2="201.06" y2="180.42"/><line x1="320.87" y1="319.67" x2="322.98" y2="317.87"/><line x1="248.53" y1="359.29" x2="247.41" y2="359.27"/><line x1="348.28" y1="204.36" x2="347.25" y2="204.98"/><line x1="306.46" y1="276.21" x2="265.04" y2="284.04"/><line x1="171.62" y1="179.09" x2="167.99" y2="181.38"/><line x1="185.00" y1="273.55" x2="184.83" y2="273.21"/><line x1="201.06" y1="180.42" x2="191.97" y2="198.25"/><line x1="269.93" y1="378.83" x2="267.35" y2="377.58"/><line x1="268.94" y1="349.34" x2="263.92" y2="367.91"/><line x1="201.24" y1="315.50" x2="199.81" y2="315.50"/><line x1="213.64" y1="221.15" x2="211.45" y2="217.41"/><line x1="184.83" y1="273.21" x2="186.52" y2="271.00"/><line x1="268.24" y1="342.52" x2="250.39" y2="359.35"/><line x1="267.35" y1="377.58" x2="270.43" y2="378.68"/><line x1="243.50" y1="358.35" x2="243.06" y2="358.01"/><line x1="184.93" y1="302.04" x2="185.16" y2="301.91"/><line x1="323.17" y1="288.26" x2="323.10" y2="287.96"/><line x1="211.45" y1="217.41" x2="209.49" y2="214.16"/><line x1="194.29" y1="174.05" x2="193.27" y2="173.87"/><line x1="175.48" y1="177.21" x2="168.96" y2="191.73"/><line x1="319.14" y1="318.86" x2="315.86" y2="308.71"/><line x1="243.06" y1="358.01" x2="242.70" y2="357.58"/><line x1="267.66" y1="336.42" x2="244.73" y2="358.88"/><line x1="348.49" y1="202.46" x2="348.41" y2="201.91"/><line x1="267.66" y1="336.42" x2="241.73" y2="353.14"/><line x1="347.87" y1="200.60" x2="332.20" y2="197.15"/><line x1="269.34" y1="378.88" x2="267.78" y2="378.15"/><line x1="185.79" y1="270.81" x2="185.45" y2="270.84"/><line x1="193.27" y1="173.87" x2="188.48" y2="174.08"/><line x1="271.57" y1="376.48" x2="268.94" y2="349.34"/><line x1="195.04" y1="315.09" x2="196.49" y2="306.36"/><line x1="246.79" y1="263.64" x2="216.05" y2="225.37"/><line x1="348.41" y1="201.91" x2="344.30" y2="204.02"/><line x1="204.93" y1="207.16" x2="203.69" y2="205.44"/><line x1="191.69" y1="282.01" x2="187.97" y2="271.59"/><line x1="185.54" y1="200.05" x2="172.25" y2="195.89"/><line x1="311.20" y1="315.63" x2="314.59" y2="307.63"/><line x1="268.94" y1="349.34" x2="266.97" y2="376.85"/><line x1="241.73" y1="353.14" x2="241.71" y2="351.81"/><line x1="196.57" y1="284.16" x2="195.14" y2="283.92"/><line x1="203.69" y1="205.44" x2="212.99" y2="199.46"/><line x1="241.71" y1="351.81" x2="241.71" y2="349.42"/><line x1="480.00" y1="32.02" x2="447.51" y2="32.02"/><line x1="297.02" y1="174.77" x2="300.46" y2="174.25"/><line x1="243.62" y1="284.04" x2="242.98" y2="306.82"/><line x1="322.13" y1="320.09" x2="321.76" y2="320.12"/><line x1="175.48" y1="177.21" x2="172.25" y2="195.89"/><line x1="293.50" y1="179.43" x2="291.92" y2="181.88"/><line x1="267.66" y1="336.42" x2="242.70" y2="357.58"/><line x1="336.73" y1="199.72" x2="334.39" y2="198.33"/><line x1="347.87" y1="200.60" x2="342.80" y2="203.26"/><line x1="199.01" y1="200.04" x2="198.33" y2="199.53"/><line x1="168.96" y1="191.73" x2="167.64" y2="189.89"/><line x1="321.69" y1="320.07" x2="321.39" y2="319.91"/><line x1="309.21" y1="315.23" x2="308.37" y2="315.18"/><line x1="262.96" y1="366.11" x2="261.91" y2="364.58"/><line x1="305.48" y1="176.24" x2="307.64" y2="177.27"/><line x1="323.19" y1="288.54" x2="323.17" y2="288.26"/><line x1="246.79" y1="263.64" x2="217.90" y2="208.33"/><line x1="191.69" y1="282.01" x2="194.23" y2="274.37"/><line x1="242.98" y1="314.87" x2="267.66" y2="336.42"/><line x1="171.62" y1="179.09" x2="166.55" y2="188.20"/><line x1="255.41" y1="360.28" x2="253.83" y2="359.85"/><line x1="309.30" y1="306.54" x2="307.41" y2="306.49"/><line x1="322.07" y1="316.47" x2="319.14" y2="318.86"/><line x1="345.54" y1="204.55" x2="348.49" y2="202.46"/><line x1="242.98" y1="306.82" x2="265.99" y2="306.82"/><line x1="268.24" y1="342.52" x2="252.16" y2="359.54"/><line x1="185.00" y1="304.73" x2="184.83" y2="304.37"/><line x1="197.50" y1="306.61" x2="195.04" y2="315.09"/><line x1="315.86" y1="278.56" x2="313.83" y2="286.22"/><line x1="310.29" y1="285.18" x2="309.28" y2="285.03"/><line x1="195.52" y1="198.29" x2="194.80" y2="198.16"/><line x1="186.07" y1="270.86" x2="185.79" y2="270.81"/><line x1="299.28" y1="173.97" x2="298.34" y2="173.87"/><line x1="196.52" y1="275.15" x2="191.69" y2="282.01"/><line x1="320.17" y1="289.04" x2="322.37" y2="286.64"/><line x1="187.97" y1="271.59" x2="185.22" y2="273.92"/><line x1="269.34" y1="378.88" x2="268.78" y2="378.79"/><line x1="185.79" y1="270.81" x2="184.54" y2="271.75"/><line x1="312.35" y1="315.98" x2="311.20" y2="315.63"/><line x1="246.79" y1="263.64" x2="218.69" y2="230.07"/><line x1="322.37" y1="286.64" x2="322.07" y2="286.27"/><line x1="321.39" y1="319.91" x2="323.07" y2="319.47"/><line x1="191.97" y1="198.25" x2="198.01" y2="176.78"/><line x1="198.39" y1="275.54" x2="196.57" y2="284.16"/><line x1="191.69" y1="282.01" x2="188.98" y2="272.03"/><line x1="185.54" y1="200.05" x2="175.48" y2="177.21"/><line x1="311.20" y1="315.63" x2="315.34" y2="308.12"/><line x1="195.38" y1="306.00" x2="194.15" y2="305.54"/><line x1="288.31" y1="236.01" x2="297.71" y2="221.06"/><line x1="339.01" y1="201.12" x2="336.73" y2="199.72"/><line x1="196.57" y1="284.16" x2="197.51" y2="275.39"/><line x1="322.62" y1="317.19" x2="322.37" y2="316.83"/><line x1="263.92" y1="367.91" x2="262.96" y2="366.11"/><line x1="194.15" y1="305.54" x2="192.81" y2="304.98"/><line x1="320.90" y1="289.39" x2="322.62" y2="286.99"/><line x1="480.00" y1="32.02" x2="480.00" y2="64.50"/><line x1="243.62" y1="284.04" x2="288.31" y2="236.01"/><line x1="315.20" y1="286.76" x2="313.83" y2="286.22"/><line x1="199.75" y1="200.69" x2="199.01" y2="200.04"/><line x1="322.13" y1="320.09" x2="321.69" y2="320.07"/><line x1="198.00" y1="315.45" x2="196.42" y2="315.31"/><line x1="310.96" y1="306.68" x2="309.21" y2="315.23"/><line x1="480.00" y1="479.91" x2="480.00" y2="447.42"/><line x1="293.50" y1="179.43" x2="305.48" y2="176.24"/><line x1="217.90" y1="208.33" x2="215.38" y2="203.74"/><line x1="313.83" y1="286.22" x2="312.56" y2="285.78"/><line x1="192.21" y1="282.63" x2="191.69" y2="282.01"/><line x1="168.96" y1="191.73" x2="171.62" y2="179.09"/><line x1="309.21" y1="315.23" x2="309.30" y2="306.54"/><line x1="185.47" y1="305.52" x2="185.22" y2="305.12"/><line x1="312.17" y1="276.64" x2="310.55" y2="276.40"/><line x1="324.95" y1="194.57" x2="323.51" y2="194.46"/><line x1="246.79" y1="263.64" x2="209.49" y2="214.16"/><line x1="189.85" y1="198.61" x2="187.71" y2="199.21"/><line x1="191.69" y1="282.01" x2="195.42" y2="274.81"/><line x1="321.39" y1="319.91" x2="323.10" y2="318.20"/><line x1="191.97" y1="198.25" x2="193.27" y2="173.87"/><line x1="322.93" y1="319.70" x2="323.07" y2="319.47"/><line x1="255.41" y1="360.28" x2="268.24" y2="342.52"/><line x1="185.22" y1="305.12" x2="185.00" y2="304.73"/><line x1="447.51" y1="479.91" x2="480.00" y2="447.42"/><line x1="184.62" y1="271.46" x2="184.75" y2="271.23"/><line x1="196.23" y1="198.48" x2="195.52" y2="198.29"/><line x1="323.07" y1="319.47" x2="323.16" y2="319.19"/><line x1="268.24" y1="342.52" x2="253.83" y2="359.85"/><line x1="315.86" y1="278.56" x2="315.20" y2="286.76"/><line x1="347.58" y1="200.29" x2="347.87" y2="200.60"/><line x1="310.29" y1="285.18" x2="310.55" y2="276.40"/><line x1="266.31" y1="316.45" x2="266.36" y2="319.04"/><line x1="196.52" y1="275.15" x2="192.21" y2="282.63"/><line x1="265.04" y1="284.04" x2="243.62" y2="284.04"/><line x1="257.90" y1="242.87" x2="246.79" y2="263.64"/><line x1="187.97" y1="271.59" x2="185.47" y2="274.32"/><line x1="269.34" y1="378.88" x2="268.26" y2="378.55"/><line x1="247.41" y1="359.27" x2="246.40" y2="359.18"/><line x1="184.53" y1="303.38" x2="184.51" y2="303.10"/><line x1="346.52" y1="204.88" x2="348.49" y2="203.58"/><line x1="265.99" y1="275.91" x2="277.74" y2="254.30"/><line x1="321.39" y1="319.91" x2="322.93" y2="319.70"/><line x1="191.97" y1="198.25" x2="199.48" y2="178.42"/><line x1="199.17" y1="306.82" x2="198.39" y2="306.76"/><line x1="246.40" y1="359.18" x2="245.51" y2="359.05"/><line x1="242.98" y1="314.87" x2="201.24" y2="315.50"/><line x1="323.10" y1="287.96" x2="322.98" y2="287.65"/><line x1="209.49" y1="214.16" x2="207.76" y2="211.39"/><line x1="199.48" y1="178.42" x2="198.01" y2="176.78"/><line x1="270.43" y1="378.68" x2="270.84" y2="378.43"/><line x1="243.31" y1="275.91" x2="221.55" y2="235.26"/><line x1="185.45" y1="301.83" x2="185.79" y2="301.81"/><line x1="320.90" y1="289.39" x2="322.82" y2="287.33"/><line x1="315.86" y1="278.56" x2="315.36" y2="277.94"/><line x1="167.99" y1="181.38" x2="164.60" y2="184.09"/><line x1="188.48" y1="174.08" x2="183.91" y2="174.70"/><line x1="270.84" y1="378.43" x2="271.16" y2="378.09"/><line x1="344.30" y1="204.02" x2="348.10" y2="200.98"/><line x1="480.00" y1="479.91" x2="447.51" y2="479.91"/><line x1="265.04" y1="284.04" x2="265.99" y2="306.82"/><line x1="242.40" y1="356.99" x2="242.15" y2="356.25"/><line x1="347.58" y1="204.94" x2="347.25" y2="204.98"/><line x1="194.08" y1="198.13" x2="191.97" y2="198.25"/><line x1="212.99" y1="199.46" x2="201.52" y2="202.63"/><line x1="312.17" y1="276.64" x2="310.29" y2="285.18"/><line x1="185.45" y1="270.84" x2="185.16" y2="270.92"/><line x1="189.85" y1="198.61" x2="183.91" y2="174.70"/><line x1="321.39" y1="319.91" x2="323.17" y2="318.53"/><line x1="191.97" y1="198.25" x2="194.29" y2="174.05"/><line x1="265.99" y1="306.82" x2="242.98" y2="314.87"/><line x1="242.98" y1="314.87" x2="266.31" y2="316.45"/><line x1="300.46" y1="174.25" x2="301.89" y2="174.72"/><line x1="319.22" y1="288.60" x2="318.05" y2="288.05"/><line x1="290.13" y1="184.77" x2="297.71" y2="221.06"/><line x1="172.25" y1="195.89" x2="181.16" y2="202.46"/><line x1="184.62" y1="271.46" x2="184.93" y2="271.05"/><line x1="188.98" y1="272.03" x2="187.97" y2="271.59"/><line x1="315.86" y1="308.71" x2="311.20" y2="315.63"/><line x1="296.05" y1="175.87" x2="294.88" y2="177.43"/><line x1="322.45" y1="289.73" x2="322.72" y2="289.60"/><line x1="195.14" y1="283.92" x2="193.93" y2="283.59"/><line x1="322.98" y1="317.87" x2="322.82" y2="317.53"/><line x1="215.38" y1="203.74" x2="212.99" y2="199.46"/><line x1="311.38" y1="285.43" x2="313.51" y2="276.98"/><line x1="208.54" y1="191.84" x2="197.63" y2="199.10"/><line x1="196.52" y1="275.15" x2="192.96" y2="283.16"/><line x1="265.04" y1="284.04" x2="265.99" y2="275.91"/><line x1="322.82" y1="317.53" x2="322.62" y2="317.19"/><line x1="291.92" y1="181.88" x2="310.05" y2="178.50"/><line x1="346.52" y1="204.88" x2="348.41" y2="204.00"/><line x1="265.99" y1="275.91" x2="243.62" y2="284.04"/><line x1="321.39" y1="319.91" x2="322.72" y2="319.89"/><line x1="186.52" y1="271.00" x2="184.69" y2="272.88"/><line x1="186.97" y1="302.26" x2="184.59" y2="303.69"/><line x1="199.17" y1="306.82" x2="198.00" y2="315.45"/><line x1="322.13" y1="289.81" x2="321.40" y2="289.64"/><line x1="242.98" y1="314.87" x2="267.17" y2="331.01"/><line x1="323.10" y1="287.96" x2="320.90" y2="289.39"/><line x1="290.13" y1="184.77" x2="324.95" y2="194.57"/><line x1="209.49" y1="214.16" x2="217.90" y2="208.33"/><line x1="166.55" y1="188.20" x2="165.68" y2="186.68"/><line x1="184.69" y1="272.88" x2="184.59" y2="272.60"/><line x1="191.69" y1="313.28" x2="191.36" y2="304.31"/><line x1="307.41" y1="306.49" x2="306.46" y2="306.49"/><line x1="315.86" y1="308.71" x2="317.93" y2="318.30"/><line x1="242.70" y1="357.58" x2="242.40" y2="356.99"/><line x1="348.10" y1="204.63" x2="348.28" y2="204.36"/><line x1="185.45" y1="301.83" x2="185.98" y2="301.85"/><line x1="320.90" y1="289.39" x2="322.98" y2="287.65"/><line x1="243.31" y1="275.91" x2="201.24" y2="284.35"/><line x1="188.48" y1="174.08" x2="189.85" y2="198.61"/><line x1="317.93" y1="318.30" x2="316.50" y2="317.65"/><line x1="242.98" y1="306.82" x2="199.17" y2="306.82"/><line x1="344.30" y1="204.02" x2="348.28" y2="201.42"/><line x1="201.24" y1="284.35" x2="200.13" y2="284.35"/><line x1="186.37" y1="302.01" x2="184.53" y2="303.38"/><line x1="265.04" y1="284.04" x2="242.98" y2="306.82"/><line x1="184.54" y1="271.75" x2="185.45" y2="270.84"/><line x1="266.97" y1="376.85" x2="266.62" y2="375.95"/><line x1="193.88" y1="314.77" x2="192.93" y2="314.37"/><line x1="347.58" y1="204.94" x2="348.28" y2="204.36"/><line x1="322.07" y1="286.27" x2="319.22" y2="288.60"/><line x1="187.16" y1="271.25" x2="186.52" y2="271.00"/><line x1="197.51" y1="275.39" x2="196.52" y2="275.15"/><line x1="212.99" y1="199.46" x2="202.55" y2="203.93"/><line x1="320.12" y1="319.31" x2="319.14" y2="318.86"/><line x1="185.45" y1="270.84" x2="184.62" y2="271.46"/><line x1="347.25" y1="204.98" x2="346.52" y2="204.88"/><line x1="186.52" y1="271.00" x2="186.07" y2="270.86"/><line x1="300.46" y1="174.25" x2="296.05" y2="175.87"/><line x1="319.22" y1="288.60" x2="315.86" y2="278.56"/><line x1="199.81" y1="315.50" x2="199.17" y2="306.82"/><line x1="290.13" y1="184.77" x2="305.92" y2="209.42"/><line x1="172.25" y1="195.89" x2="183.36" y2="201.14"/><line x1="314.59" y1="307.63" x2="313.61" y2="307.22"/><line x1="191.69" y1="313.28" x2="185.47" y2="305.52"/><line x1="315.86" y1="308.71" x2="312.35" y2="315.98"/><line x1="288.31" y1="236.01" x2="243.31" y2="275.91"/><line x1="334.39" y1="198.33" x2="332.20" y2="197.15"/><line x1="195.14" y1="283.92" x2="196.52" y2="275.15"/><line x1="185.16" y1="301.91" x2="185.45" y2="301.83"/><line x1="261.91" y1="364.58" x2="260.79" y2="363.31"/><line x1="321.40" y1="289.64" x2="323.16" y2="288.88"/><line x1="191.36" y1="304.31" x2="189.96" y2="303.64"/><line x1="215.38" y1="203.74" x2="203.69" y2="205.44"/><line x1="311.38" y1="285.43" x2="314.57" y2="277.41"/><line x1="184.51" y1="272.09" x2="184.54" y2="271.75"/><line x1="208.54" y1="191.84" x2="198.33" y2="199.53"/><line x1="186.37" y1="302.01" x2="184.75" y2="302.23"/><line x1="308.37" y1="315.18" x2="266.31" y2="314.87"/><line x1="297.78" y1="174.10" x2="297.02" y2="174.77"/><line x1="291.92" y1="181.88" x2="307.64" y2="177.27"/><line x1="196.49" y1="306.36" x2="193.88" y2="314.77"/><line x1="268.94" y1="349.34" x2="259.58" y2="362.31"/><line x1="167.64" y1="189.89" x2="166.55" y2="188.20"/><line x1="186.97" y1="302.26" x2="184.69" y2="304.02"/><line x1="322.13" y1="289.81" x2="321.76" y2="289.84"/><line x1="310.55" y1="276.40" x2="308.65" y2="276.26"/><line x1="318.82" y1="196.12" x2="312.96" y2="201.11"/><line x1="267.35" y1="377.58" x2="271.52" y2="377.12"/><line x1="290.13" y1="184.77" x2="326.54" y2="194.89"/><line x1="204.57" y1="185.49" x2="194.08" y2="198.13"/><line x1="191.69" y1="313.28" x2="192.81" y2="304.98"/><line x1="253.83" y1="359.85" x2="252.16" y2="359.54"/><line x1="348.10" y1="204.63" x2="347.87" y2="204.82"/><line x1="315.34" y1="308.12" x2="314.59" y2="307.63"/><line x1="210.70" y1="195.49" x2="199.01" y2="200.04"/><line x1="309.28" y1="285.03" x2="308.37" y2="284.98"/><line x1="268.26" y1="378.55" x2="267.78" y2="378.15"/><line x1="321.40" y1="289.64" x2="320.90" y2="289.39"/><line x1="185.22" y1="273.92" x2="185.00" y2="273.55"/><line x1="187.77" y1="302.62" x2="186.97" y2="302.26"/><line x1="186.37" y1="302.01" x2="185.98" y2="301.85"/><line x1="206.50" y1="188.51" x2="204.57" y2="185.49"/><line x1="268.94" y1="349.34" x2="264.80" y2="369.97"/><line x1="196.49" y1="306.36" x2="195.38" y2="306.00"/><line x1="197.51" y1="275.39" x2="195.14" y2="283.92"/><line x1="268.94" y1="349.34" x2="268.24" y2="342.52"/><line x1="320.12" y1="319.31" x2="322.07" y2="316.47"/><line x1="480.00" y1="64.50" x2="447.51" y2="32.02"/><line x1="290.13" y1="184.77" x2="312.96" y2="201.11"/><line x1="198.39" y1="306.76" x2="197.50" y2="306.61"/><line x1="191.69" y1="313.28" x2="187.77" y2="302.62"/><line x1="348.52" y1="203.07" x2="348.49" y2="202.46"/><line x1="175.48" y1="177.21" x2="170.49" y2="193.73"/><line x1="207.76" y1="211.39" x2="206.26" y2="209.10"/><line x1="312.56" y1="285.78" x2="311.38" y2="285.43"/><line x1="267.66" y1="336.42" x2="245.51" y2="359.05"/><line x1="267.66" y1="336.42" x2="241.81" y2="354.33"/><line x1="321.40" y1="289.64" x2="323.07" y2="289.17"/><line x1="347.87" y1="200.60" x2="334.39" y2="198.33"/><line x1="215.38" y1="203.74" x2="204.93" y2="207.16"/><line x1="320.87" y1="319.67" x2="320.12" y2="319.31"/><line x1="183.91" y1="174.70" x2="179.59" y2="175.75"/><line x1="195.42" y1="274.81" x2="194.23" y2="274.37"/><line x1="186.37" y1="302.01" x2="184.62" y2="302.46"/><line x1="308.37" y1="315.18" x2="307.41" y2="306.49"/><line x1="297.78" y1="174.10" x2="298.34" y2="173.87"/><line x1="187.71" y1="199.21" x2="185.54" y2="200.05"/><line x1="268.94" y1="349.34" x2="260.79" y2="363.31"/><line x1="186.97" y1="302.26" x2="184.83" y2="304.37"/><line x1="201.52" y1="202.63" x2="200.58" y2="201.55"/><line x1="310.55" y1="276.40" x2="309.28" y2="285.03"/><line x1="267.35" y1="377.58" x2="271.39" y2="377.65"/><line x1="204.57" y1="185.49" x2="194.80" y2="198.16"/><line x1="191.69" y1="313.28" x2="194.15" y2="305.54"/><line x1="348.10" y1="204.63" x2="347.58" y2="204.94"/><line x1="210.70" y1="195.49" x2="199.75" y2="200.69"/><line x1="192.81" y1="304.98" x2="191.36" y2="304.31"/><line x1="268.26" y1="378.55" x2="268.78" y2="378.79"/><line x1="267.66" y1="336.42" x2="243.06" y2="358.01"/><line x1="266.53" y1="322.33" x2="266.79" y2="326.32"/><line x1="347.87" y1="200.60" x2="348.10" y2="200.98"/><line x1="294.88" y1="177.43" x2="293.50" y2="179.43"/><line x1="199.01" y1="200.04" x2="208.54" y2="191.84"/><line x1="321.40" y1="289.64" x2="323.10" y2="287.96"/><line x1="321.69" y1="320.07" x2="321.76" y2="320.12"/><line x1="347.87" y1="200.60" x2="326.54" y2="194.89"/><line x1="322.93" y1="289.41" x2="323.07" y2="289.17"/><line x1="221.55" y1="235.26" x2="218.69" y2="230.07"/><line x1="305.48" y1="176.24" x2="291.92" y2="181.88"/><line x1="310.14" y1="315.38" x2="309.21" y2="315.23"/><line x1="187.77" y1="302.62" x2="185.00" y2="304.73"/><line x1="184.54" y1="302.76" x2="184.62" y2="302.46"/><line x1="171.62" y1="179.09" x2="167.64" y2="189.89"/><line x1="309.30" y1="306.54" x2="308.37" y2="315.18"/><line x1="206.50" y1="188.51" x2="195.52" y2="198.29"/><line x1="311.20" y1="315.63" x2="310.14" y2="315.38"/><line x1="268.94" y1="349.34" x2="265.60" y2="372.30"/><line x1="198.01" y1="176.78" x2="196.66" y2="175.51"/><line x1="196.49" y1="306.36" x2="191.69" y2="313.28"/><line x1="266.31" y1="314.87" x2="266.31" y2="316.45"/><line x1="268.94" y1="349.34" x2="255.41" y2="360.28"/><line x1="320.12" y1="319.31" x2="322.37" y2="316.83"/><line x1="323.51" y1="194.46" x2="318.82" y2="196.12"/><line x1="290.13" y1="184.77" x2="347.87" y2="200.60"/><line x1="348.49" y1="203.58" x2="348.52" y2="203.07"/><line x1="185.00" y1="304.73" x2="186.97" y2="302.26"/><line x1="267.35" y1="377.58" x2="266.97" y2="376.85"/><line x1="271.16" y1="378.09" x2="271.39" y2="377.65"/><line x1="243.62" y1="284.04" x2="201.24" y2="284.35"/><line x1="198.39" y1="306.76" x2="196.42" y2="315.31"/><line x1="195.52" y1="198.29" x2="204.57" y2="185.49"/><line x1="323.16" y1="319.19" x2="323.19" y2="318.85"/><line x1="207.76" y1="211.39" x2="215.38" y2="203.74"/><line x1="184.53" y1="272.33" x2="184.51" y2="272.09"/><line x1="267.66" y1="336.42" x2="246.40" y2="359.18"/><line x1="267.66" y1="336.42" x2="241.95" y2="355.36"/><line x1="321.40" y1="289.64" x2="322.93" y2="289.41"/><line x1="347.87" y1="200.60" x2="336.73" y2="199.72"/><line x1="266.36" y1="319.04" x2="266.53" y2="322.33"/><line x1="199.17" y1="275.59" x2="198.39" y2="275.54"/><line x1="320.87" y1="319.67" x2="322.62" y2="317.19"/><line x1="183.91" y1="174.70" x2="187.71" y2="199.21"/><line x1="315.00" y1="316.99" x2="313.62" y2="316.44"/><line x1="246.79" y1="263.64" x2="221.55" y2="235.26"/><line x1="185.47" y1="274.32" x2="185.22" y2="273.92"/><line x1="348.28" y1="204.36" x2="348.41" y2="204.00"/><line x1="32.16" y1="32.09" x2="32.16" y2="64.58"/><line x1="191.69" y1="282.01" x2="190.16" y2="272.57"/><line x1="184.51" y1="303.10" x2="184.54" y2="302.76"/><line x1="268.94" y1="349.34" x2="261.91" y2="364.58"/><line x1="192.20" y1="313.87" x2="191.69" y2="313.28"/><line x1="301.89" y1="174.72" x2="303.57" y2="175.38"/><line x1="322.62" y1="317.19" x2="320.12" y2="319.31"/><line x1="245.51" y1="359.05" x2="244.73" y2="358.88"/><line x1="201.52" y1="202.63" x2="210.70" y2="195.49"/><line x1="348.41" y1="204.00" x2="348.49" y2="203.58"/><line x1="312.40" y1="306.90" x2="310.96" y2="306.68"/><line x1="243.62" y1="284.04" x2="277.74" y2="254.30"/><line x1="198.00" y1="315.45" x2="198.39" y2="306.76"/><line x1="217.90" y1="208.33" x2="207.76" y2="211.39"/><line x1="267.66" y1="336.42" x2="243.50" y2="358.35"/><line x1="347.87" y1="200.60" x2="328.28" y2="195.43"/><line x1="197.63" y1="199.10" x2="196.94" y2="198.75"/><line x1="200.13" y1="284.35" x2="198.23" y2="284.31"/><line x1="246.79" y1="263.64" x2="211.45" y2="217.41"/><line x1="310.05" y1="178.50" x2="347.25" y2="200.04"/><line x1="242.15" y1="356.25" x2="241.95" y2="355.36"/><line x1="242.98" y1="314.87" x2="241.71" y2="349.42"/><line x1="311.20" y1="315.63" x2="312.40" y2="306.90"/><line x1="268.94" y1="349.34" x2="266.33" y2="374.89"/><line x1="266.31" y1="314.87" x2="242.98" y2="314.87"/><line x1="288.31" y1="236.01" x2="246.79" y2="263.64"/><line x1="322.98" y1="287.65" x2="322.82" y2="287.33"/><line x1="315.86" y1="278.56" x2="316.66" y2="287.41"/><line x1="243.62" y1="284.04" x2="243.31" y2="275.91"/><line x1="266.33" y1="374.89" x2="265.60" y2="372.30"/><line x1="322.13" y1="320.09" x2="322.45" y2="320.02"/><line x1="323.10" y1="318.20" x2="322.98" y2="317.87"/><line x1="322.72" y1="289.60" x2="322.93" y2="289.41"/><line x1="267.66" y1="336.42" x2="247.41" y2="359.27"/><line x1="347.87" y1="200.60" x2="339.01" y2="201.12"/><line x1="308.37" y1="284.98" x2="265.04" y2="284.04"/><line x1="32.00" y1="479.98" x2="64.49" y2="479.98"/><line x1="191.69" y1="282.01" x2="191.53" y2="273.20"/><line x1="269.93" y1="378.83" x2="270.43" y2="378.68"/><line x1="345.54" y1="204.55" x2="344.30" y2="204.02"/><line x1="243.31" y1="275.91" x2="246.79" y2="263.64"/><line x1="268.24" y1="342.52" x2="267.66" y2="336.42"/><line x1="315.86" y1="278.56" x2="311.38" y2="285.43"/><line x1="167.99" y1="181.38" x2="165.03" y2="185.31"/><line x1="184.59" y1="272.60" x2="184.53" y2="272.33"/><line x1="330.17" y1="196.17" x2="328.28" y2="195.43"/><line x1="185.98" y1="301.85" x2="185.79" y2="301.81"/><line x1="299.28" y1="173.97" x2="300.46" y2="174.25"/><line x1="320.17" y1="289.04" x2="319.22" y2="288.60"/><line x1="250.39" y1="359.35" x2="248.53" y2="359.29"/><line x1="316.50" y1="317.65" x2="315.00" y2="316.99"/><line x1="269.34" y1="378.88" x2="269.93" y2="378.83"/><line x1="197.63" y1="199.10" x2="206.50" y2="188.51"/><line x1="348.28" y1="201.42" x2="348.10" y2="200.98"/><line x1="194.08" y1="198.13" x2="201.06" y2="180.42"/><line x1="200.13" y1="284.35" x2="199.17" y2="275.59"/><line x1="246.79" y1="263.64" x2="213.64" y2="221.15"/><line x1="321.39" y1="319.91" x2="323.19" y2="318.85"/><line x1="310.05" y1="178.50" x2="290.13" y2="184.77"/><line x1="265.99" y1="306.82" x2="306.46" y2="306.49"/><line x1="191.97" y1="198.25" x2="195.42" y2="174.60"/><line x1="266.62" y1="375.95" x2="266.33" y2="374.89"/><line x1="191.69" y1="282.01" x2="185.47" y2="274.32"/><line x1="192.93" y1="314.37" x2="192.20" y2="313.87"/><line x1="185.54" y1="200.05" x2="183.36" y2="201.14"/><line x1="311.20" y1="315.63" x2="313.61" y2="307.22"/><line x1="202.55" y1="203.93" x2="201.52" y2="202.63"/><line x1="267.78" y1="378.15" x2="267.35" y2="377.58"/><line x1="184.62" y1="271.46" x2="185.16" y2="270.92"/><line x1="288.31" y1="236.01" x2="257.90" y2="242.87"/><line x1="305.92" y1="209.42" x2="297.71" y2="221.06"/><line x1="296.05" y1="175.87" x2="301.89" y2="174.72"/><line x1="315.86" y1="278.56" x2="318.05" y2="288.05"/><line x1="184.69" y1="304.02" x2="184.59" y2="303.69"/><line x1="183.36" y1="201.14" x2="181.16" y2="202.46"/><line x1="313.61" y1="307.22" x2="312.40" y2="306.90"/><line x1="322.13" y1="320.09" x2="321.39" y2="319.91"/><line x1="332.20" y1="197.15" x2="330.17" y2="196.17"/><line x1="196.52" y1="275.15" x2="193.93" y2="283.59"/><line x1="181.16" y1="202.46" x2="178.94" y2="204.02"/><line x1="260.79" y1="363.31" x2="259.58" y2="362.31"/><line x1="189.96" y1="303.64" x2="188.77" y2="303.08"/><line x1="32.00" y1="479.98" x2="32.00" y2="447.50"/><line x1="198.33" y1="199.53" x2="197.63" y2="199.10"/><line x1="321.39" y1="319.91" x2="322.45" y2="320.02"/><line x1="259.58" y1="362.31" x2="258.28" y2="361.51"/><line x1="191.69" y1="282.01" x2="192.93" y2="273.83"/><line x1="191.97" y1="198.25" x2="189.85" y2="198.61"/><line x1="307.64" y1="177.27" x2="310.05" y2="178.50"/><line x1="242.98" y1="314.87" x2="266.79" y2="326.32"/><line x1="322.07" y1="316.47" x2="315.86" y2="308.71"/><line x1="315.36" y1="277.94" x2="314.57" y2="277.41"/><line x1="184.75" y1="302.23" x2="184.93" y2="302.04"/><line x1="166.55" y1="188.20" x2="167.99" y2="181.38"/><line x1="345.54" y1="204.55" x2="348.41" y2="201.91"/><line x1="307.41" y1="306.49" x2="266.31" y2="314.87"/><line x1="321.69" y1="289.78" x2="321.40" y2="289.64"/><line x1="312.96" y1="201.11" x2="305.92" y2="209.42"/><line x1="197.50" y1="306.61" x2="196.49" y2="306.36"/><line x1="315.86" y1="278.56" x2="312.56" y2="285.78"/><line x1="192.93" y1="273.83" x2="191.53" y2="273.20"/><line x1="167.99" y1="181.38" x2="165.68" y2="186.68"/><line x1="252.16" y1="359.54" x2="250.39" y2="359.35"/><line x1="184.83" y1="304.37" x2="184.69" y2="304.02"/><line x1="242.98" y1="306.82" x2="199.81" y2="315.50"/><line x1="308.65" y1="276.26" x2="306.46" y2="276.21"/><line x1="194.80" y1="198.16" x2="194.08" y2="198.13"/><line x1="299.28" y1="173.97" x2="297.02" y2="174.77"/><line x1="196.52" y1="275.15" x2="195.42" y2="274.81"/><line x1="320.17" y1="289.04" x2="322.07" y2="286.27"/><line x1="250.39" y1="359.35" x2="267.66" y2="336.42"/><line x1="187.97" y1="271.59" x2="187.16" y2="271.25"/><line x1="347.58" y1="204.94" x2="347.87" y2="204.82"/><line x1="187.16" y1="271.25" x2="184.83" y2="273.21"/><line x1="346.52" y1="204.88" x2="345.54" y2="204.55"/><line x1="194.08" y1="198.13" x2="202.76" y2="182.78"/><line x1="321.39" y1="319.91" x2="323.16" y2="319.19"/><line x1="186.52" y1="271.00" x2="184.51" y2="272.09"/><line x1="265.99" y1="306.82" x2="266.31" y2="314.87"/><line x1="198.39" y1="275.54" x2="197.51" y2="275.39"/><line x1="191.97" y1="198.25" x2="196.66" y2="175.51"/><line x1="267.78" y1="378.15" x2="269.93" y2="378.83"/><line x1="288.31" y1="236.01" x2="273.88" y2="213.35"/><line x1="315.86" y1="308.71" x2="313.62" y2="316.44"/><line x1="216.05" y1="225.37" x2="213.64" y2="221.15"/><line x1="320.90" y1="289.39" x2="320.17" y2="289.04"/><line x1="196.42" y1="315.31" x2="195.04" y2="315.09"/><line x1="244.06" y1="358.64" x2="243.50" y2="358.35"/><line x1="310.96" y1="306.68" x2="309.30" y2="306.54"/><line x1="311.38" y1="285.43" x2="315.36" y2="277.94"/><line x1="184.51" y1="272.09" x2="185.79" y2="270.81"/><line x1="195.42" y1="174.60" x2="194.29" y2="174.05"/><line x1="322.62" y1="286.99" x2="322.37" y2="286.64"/><line x1="194.23" y1="274.37" x2="192.93" y2="273.83"/><line x1="321.39" y1="319.91" x2="320.87" y2="319.67"/><line x1="191.97" y1="198.25" x2="188.48" y2="174.08"/><line x1="322.13" y1="289.81" x2="321.69" y2="289.78"/><line x1="242.98" y1="314.87" x2="266.53" y2="322.33"/><line x1="198.23" y1="284.31" x2="196.57" y2="284.16"/><line x1="179.59" y1="175.75" x2="175.48" y2="177.21"/><line x1="323.19" y1="318.85" x2="323.17" y2="318.53"/><line x1="172.25" y1="195.89" x2="170.49" y2="193.73"/><line x1="321.69" y1="289.78" x2="321.76" y2="289.84"/><line x1="309.28" y1="285.03" x2="308.65" y2="276.26"/><line x1="323.17" y1="318.53" x2="323.10" y2="318.20"/><line x1="242.98" y1="306.82" x2="201.24" y2="315.50"/><line x1="308.65" y1="276.26" x2="308.37" y2="284.98"/><line x1="311.38" y1="285.43" x2="310.29" y2="285.18"/><line x1="185.22" y1="273.92" x2="187.16" y2="271.25"/><line x1="266.79" y1="326.32" x2="267.17" y2="331.01"/><line x1="186.37" y1="302.01" x2="185.45" y2="301.83"/><line x1="303.57" y1="175.38" x2="305.48" y2="176.24"/><line x1="323.07" y1="289.17" x2="323.16" y2="288.88"/><line x1="218.69" y1="230.07" x2="216.05" y2="225.37"/><line x1="187.16" y1="271.25" x2="185.00" y2="273.55"/><line x1="346.52" y1="204.88" x2="348.52" y2="203.07"/><line x1="244.73" y1="358.88" x2="244.06" y2="358.64"/><line x1="186.52" y1="271.00" x2="184.53" y2="272.33"/><line x1="184.62" y1="302.46" x2="184.75" y2="302.23"/><line x1="323.16" y1="288.88" x2="323.19" y2="288.54"/><line x1="277.74" y1="254.30" x2="288.31" y2="236.01"/><line x1="196.66" y1="175.51" x2="195.42" y2="174.60"/><line x1="290.13" y1="184.77" x2="318.82" y2="196.12"/><line x1="322.37" y1="316.83" x2="322.07" y2="316.47"/><line x1="191.69" y1="313.28" x2="188.77" y2="303.08"/><line x1="315.86" y1="308.71" x2="315.00" y2="316.99"/><line x1="348.52" y1="203.07" x2="345.54" y2="204.55"/><line x1="271.39" y1="377.65" x2="271.52" y2="377.12"/><line x1="243.31" y1="275.91" x2="199.17" y2="275.59"/><line x1="196.42" y1="315.31" x2="197.50" y2="306.61"/><line x1="322.82" y1="287.33" x2="322.62" y2="286.99"/><line x1="215.38" y1="203.74" x2="206.26" y2="209.10"/><line x1="184.51" y1="272.09" x2="186.07" y2="270.86"/><line x1="344.30" y1="204.02" x2="342.80" y2="203.26"/><line x1="271.52" y1="377.12" x2="271.57" y2="376.48"/><line x1="186.37" y1="302.01" x2="184.54" y2="302.76"/><line x1="241.95" y1="355.36" x2="241.81" y2="354.33"/><line x1="297.78" y1="174.10" x2="299.28" y2="173.97"/><line x1="322.62" y1="286.99" x2="320.17" y2="289.04"/><line x1="206.26" y1="209.10" x2="204.93" y2="207.16"/><line x1="187.71" y1="199.21" x2="179.59" y2="175.75"/><line x1="313.62" y1="316.44" x2="312.35" y2="315.98"/><line x1="212.99" y1="199.46" x2="210.70" y2="195.49"/><line x1="241.81" y1="354.33" x2="241.73" y2="353.14"/><line x1="342.80" y1="203.26" x2="341.03" y2="202.30"/><line x1="242.98" y1="314.87" x2="266.36" y2="319.04"/><line x1="198.23" y1="284.31" x2="198.39" y2="275.54"/><line x1="267.35" y1="377.58" x2="271.16" y2="378.09"/><line x1="179.59" y1="175.75" x2="185.54" y2="200.05"/><line x1="265.60" y1="372.30" x2="264.80" y2="369.97"/><line x1="290.13" y1="184.77" x2="273.88" y2="213.35"/><line x1="191.69" y1="313.28" x2="195.38" y2="306.00"/><line x1="172.25" y1="195.89" x2="178.94" y2="204.02"/><line x1="64.64" y1="32.09" x2="32.16" y2="64.58"/><line x1="341.03" y1="202.30" x2="339.01" y2="201.12"/><line x1="315.86" y1="308.71" x2="315.34" y2="308.12"/><line x1="210.70" y1="195.49" x2="200.58" y2="201.55"/><line x1="184.93" y1="271.05" x2="184.75" y2="271.23"/><line x1="264.80" y1="369.97" x2="263.92" y2="367.91"/><line x1="267.66" y1="336.42" x2="241.71" y2="349.42"/><line x1="294.88" y1="177.43" x2="303.57" y2="175.38"/><line x1="321.40" y1="289.64" x2="323.17" y2="288.26"/><line x1="267.17" y1="331.01" x2="267.66" y2="336.42"/><line x1="200.58" y1="201.55" x2="199.75" y2="200.69"/><line x1="311.38" y1="285.43" x2="312.17" y2="276.64"/><line x1="310.14" y1="315.38" x2="310.96" y2="306.68"/><line x1="208.54" y1="191.84" x2="206.50" y2="188.51"/><line x1="187.77" y1="302.62" x2="185.22" y2="305.12"/><line x1="186.37" y1="302.01" x2="185.16" y2="301.91"/><line x1="303.57" y1="175.38" x2="293.50" y2="179.43"/><line x1="328.28" y1="195.43" x2="326.54" y2="194.89"/><line x1="206.50" y1="188.51" x2="196.23" y2="198.48"/><line x1="291.92" y1="181.88" x2="290.13" y2="184.77"/><line x1="170.49" y1="193.73" x2="168.96" y2="191.73"/><line x1="196.49" y1="306.36" x2="192.20" y2="313.87"/><line x1="258.28" y1="361.51" x2="256.90" y2="360.83"/><line x1="268.94" y1="349.34" x2="256.90" y2="360.83"/><line x1="186.52" y1="271.00" x2="184.59" y2="272.60"/><line x1="290.13" y1="184.77" x2="347.58" y2="200.29"/><line x1="326.54" y1="194.89" x2="324.95" y2="194.57"/><line x1="186.97" y1="302.26" x2="186.37" y2="302.01"/><line x1="322.13" y1="289.81" x2="322.45" y2="289.73"/><line x1="267.35" y1="377.58" x2="268.94" y2="349.34"/><line x1="256.90" y1="360.83" x2="255.41" y2="360.28"/><line x1="290.13" y1="184.77" x2="323.51" y2="194.46"/><line x1="191.69" y1="313.28" x2="189.96" y2="303.64"/><line x1="315.86" y1="308.71" x2="316.50" y2="317.65"/><line x1="196.94" y1="198.75" x2="196.23" y2="198.48"/><line x1="243.31" y1="275.91" x2="200.13" y2="284.35"/><line x1="184.59" y1="303.69" x2="184.53" y2="303.38"/><line x1="267.66" y1="336.42" x2="242.15" y2="356.25"/><line x1="321.40" y1="289.64" x2="322.72" y2="289.60"/><line x1="347.25" y1="200.04" x2="347.58" y2="200.29"/><line x1="242.98" y1="306.82" x2="242.98" y2="314.87"/><line x1="199.17" y1="275.59" x2="198.23" y2="284.31"/><line x1="320.87" y1="319.67" x2="322.82" y2="317.53"/><line x1="165.03" y1="185.31" x2="164.60" y2="184.09"/><line x1="186.37" y1="302.01" x2="184.51" y2="303.10"/><line x1="184.54" y1="271.75" x2="184.62" y2="271.46"/><line x1="348.28" y1="204.36" x2="346.52" y2="204.88"/><line x1="32.16" y1="32.09" x2="64.64" y2="32.09"/><line x1="306.46" y1="276.21" x2="265.99" y2="275.91"/><line x1="201.06" y1="180.42" x2="199.48" y2="178.42"/><line x1="185.16" y1="270.92" x2="184.93" y2="271.05"/><line x1="268.94" y1="349.34" x2="262.96" y2="366.11"/><line x1="322.07" y1="286.27" x2="315.86" y2="278.56"/><line x1="301.89" y1="174.72" x2="294.88" y2="177.43"/><line x1="318.05" y1="288.05" x2="316.66" y2="287.41"/><line x1="184.83" y1="273.21" x2="184.69" y2="272.88"/><line x1="267.35" y1="377.58" x2="270.84" y2="378.43"/><line x1="199.81" y1="315.50" x2="198.00" y2="315.45"/><line x1="312.40" y1="306.90" x2="310.14" y2="315.38"/><line x1="316.66" y1="287.41" x2="315.20" y2="286.76"/><line x1="193.93" y1="283.59" x2="192.96" y2="283.16"/><line x1="175.48" y1="177.21" x2="171.62" y2="179.09"/><line x1="319.14" y1="318.86" x2="317.93" y2="318.30"/><line x1="267.66" y1="336.42" x2="244.06" y2="358.64"/><line x1="188.77" y1="303.08" x2="187.77" y2="302.62"/><line x1="347.87" y1="200.60" x2="344.30" y2="204.02"/><line x1="267.66" y1="336.42" x2="241.71" y2="351.81"/><line x1="32.00" y1="447.50" x2="64.49" y2="479.98"/></g></svg>