<svg xmlns="http://www.w3.org/2000/svg" width="512" height="512"><rect width="512" height="512" fill="#0a0f1a"/><text x="12" y="20" font-family="monospace" font-size="11" fill="#4a7fa5">FRONT (XZ)</text><g stroke="#00d4ff" stroke-width="0.6" opacity="0.85"><line x1="203.02" y1="176.11" x2="203.33" y2="175.42"/><line x1="327.38" y1="192.33" x2="331.15" y2="187.51"/><line x1="304.01" y1="196.30" x2="279.81" y2="195.64"/><line x1="287.74" y1="185.44" x2="285.79" y2="187.30"/><line x1="195.54" y1="359.59" x2="195.46" y2="345.42"/><line x1="296.26" y1="266.33" x2="277.60" y2="259.85"/><line x1="221.07" y1="354.56" x2="208.41" y2="337.15"/><line x1="334.25" y1="284.14" x2="339.12" y2="281.00"/><line x1="296.26" y1="266.33" x2="285.93" y2="271.43"/><line x1="346.83" y1="273.11" x2="347.43" y2="271.91"/><line x1="197.95" y1="261.60" x2="195.40" y2="262.97"/><line x1="168.05" y1="337.26" x2="169.39" y2="338.61"/><line x1="285.79" y1="187.30" x2="284.01" y2="189.20"/><line x1="296.34" y1="268.99" x2="288.05" y2="273.19"/><line x1="213.19" y1="261.20" x2="212.24" y2="260.07"/><line x1="347.43" y1="271.91" x2="347.93" y2="270.62"/><line x1="164.03" y1="281.83" x2="183.36" y2="282.38"/><line x1="323.08" y1="188.74" x2="323.77" y2="182.80"/><line x1="216.16" y1="175.91" x2="217.08" y2="176.81"/><line x1="326.72" y1="259.90" x2="349.04" y2="264.67"/><line x1="288.05" y1="273.19" x2="294.45" y2="278.39"/><line x1="183.28" y1="339.33" x2="183.50" y2="341.61"/><line x1="169.35" y1="261.50" x2="167.94" y2="263.61"/><line x1="203.52" y1="179.07" x2="203.99" y2="180.15"/><line x1="323.77" y1="182.80" x2="319.92" y2="188.89"/><line x1="202.98" y1="177.45" x2="203.18" y2="178.18"/><line x1="278.07" y1="201.18" x2="277.53" y2="204.34"/><line x1="232.46" y1="345.03" x2="233.84" y2="342.48"/><line x1="214.89" y1="322.62" x2="232.10" y2="271.51"/><line x1="195.40" y1="262.97" x2="184.15" y2="248.82"/><line x1="311.84" y1="291.20" x2="319.79" y2="291.84"/><line x1="349.04" y1="264.67" x2="349.08" y2="262.99"/><line x1="167.94" y1="263.61" x2="166.74" y2="265.99"/><line x1="304.01" y1="196.30" x2="287.74" y2="185.44"/><line x1="183.50" y1="341.61" x2="183.87" y2="343.48"/><line x1="305.04" y1="352.75" x2="301.84" y2="363.22"/><line x1="308.73" y1="289.20" x2="304.79" y2="286.40"/><line x1="277.53" y1="204.34" x2="277.21" y2="207.77"/><line x1="304.01" y1="196.30" x2="277.21" y2="207.77"/><line x1="296.26" y1="266.33" x2="279.20" y2="264.62"/><line x1="206.73" y1="250.85" x2="203.51" y2="259.77"/><line x1="349.08" y1="262.99" x2="327.62" y2="257.44"/><line x1="313.52" y1="176.79" x2="311.03" y2="175.51"/><line x1="183.87" y1="343.48" x2="184.38" y2="344.93"/><line x1="296.84" y1="361.94" x2="297.86" y2="362.51"/><line x1="298.84" y1="276.17" x2="299.78" y2="276.37"/><line x1="164.03" y1="281.83" x2="188.77" y2="268.85"/><line x1="311.03" y1="175.51" x2="309.01" y2="174.60"/><line x1="297.86" y1="362.51" x2="299.04" y2="362.91"/><line x1="214.71" y1="325.22" x2="214.89" y2="322.62"/><line x1="200.65" y1="260.53" x2="197.95" y2="261.60"/><line x1="328.35" y1="252.32" x2="342.17" y2="195.88"/><line x1="188.77" y1="268.85" x2="187.06" y2="271.23"/><line x1="202.98" y1="177.45" x2="203.02" y2="176.11"/><line x1="296.90" y1="208.95" x2="296.42" y2="211.92"/><line x1="194.44" y1="244.48" x2="193.35" y2="244.29"/><line x1="347.82" y1="208.22" x2="346.83" y2="204.39"/><line x1="305.04" y1="352.75" x2="295.96" y2="361.23"/><line x1="311.30" y1="191.21" x2="301.36" y2="176.24"/><line x1="203.02" y1="176.11" x2="202.91" y2="176.91"/><line x1="304.01" y1="196.30" x2="281.00" y2="193.27"/><line x1="305.04" y1="352.75" x2="307.19" y2="362.28"/><line x1="306.25" y1="362.69" x2="307.19" y2="362.28"/><line x1="195.54" y1="359.59" x2="198.21" y2="344.35"/><line x1="334.25" y1="284.14" x2="323.83" y2="264.58"/><line x1="193.35" y1="244.29" x2="192.85" y2="244.39"/><line x1="164.03" y1="321.70" x2="183.20" y2="285.56"/><line x1="205.58" y1="174.12" x2="206.75" y2="173.93"/><line x1="197.95" y1="261.60" x2="188.14" y2="246.60"/><line x1="307.19" y1="362.28" x2="307.86" y2="361.75"/><line x1="213.27" y1="330.20" x2="214.17" y2="327.75"/><line x1="188.14" y1="246.60" x2="186.28" y2="247.62"/><line x1="339.04" y1="193.12" x2="336.83" y2="191.44"/><line x1="183.20" y1="285.56" x2="183.20" y2="336.63"/><line x1="164.03" y1="281.83" x2="183.82" y2="279.34"/><line x1="200.65" y1="260.53" x2="195.99" y2="245.02"/><line x1="206.62" y1="362.27" x2="200.89" y2="342.98"/><line x1="480.00" y1="32.02" x2="447.51" y2="32.02"/><line x1="230.55" y1="268.67" x2="228.72" y2="266.33"/><line x1="328.35" y1="252.32" x2="348.52" y2="212.54"/><line x1="294.60" y1="180.17" x2="292.14" y2="181.87"/><line x1="203.52" y1="179.07" x2="206.75" y2="173.93"/><line x1="202.98" y1="177.45" x2="204.61" y2="174.43"/><line x1="212.86" y1="359.37" x2="216.72" y2="357.21"/><line x1="223.43" y1="261.87" x2="220.84" y2="260.00"/><line x1="195.40" y1="262.97" x2="186.28" y2="247.62"/><line x1="205.34" y1="182.82" x2="213.63" y2="174.61"/><line x1="304.01" y1="196.30" x2="289.85" y2="183.64"/><line x1="305.04" y1="352.75" x2="300.37" y2="363.15"/><line x1="214.47" y1="264.84" x2="213.94" y2="262.79"/><line x1="304.79" y1="286.40" x2="305.81" y2="275.77"/><line x1="297.69" y1="206.13" x2="296.90" y2="208.95"/><line x1="210.39" y1="334.90" x2="228.50" y2="349.51"/><line x1="195.99" y1="245.02" x2="194.44" y2="244.48"/><line x1="348.52" y1="212.54" x2="347.82" y2="208.22"/><line x1="206.62" y1="362.27" x2="195.54" y2="359.59"/><line x1="214.40" y1="255.67" x2="209.69" y2="259.16"/><line x1="200.65" y1="260.53" x2="192.08" y2="244.66"/><line x1="348.35" y1="269.26" x2="348.67" y2="267.81"/><line x1="328.35" y1="252.32" x2="344.00" y2="198.22"/><line x1="325.46" y1="262.28" x2="347.43" y2="271.91"/><line x1="172.87" y1="341.70" x2="174.98" y2="343.45"/><line x1="304.28" y1="174.72" x2="311.30" y2="191.21"/><line x1="311.53" y1="273.96" x2="314.26" y2="272.59"/><line x1="233.37" y1="274.84" x2="232.10" y2="271.51"/><line x1="319.49" y1="268.97" x2="334.25" y2="284.14"/><line x1="319.90" y1="180.43" x2="316.48" y2="178.43"/><line x1="277.10" y1="211.45" x2="298.79" y2="203.45"/><line x1="305.04" y1="352.75" x2="295.23" y2="360.35"/><line x1="311.30" y1="191.21" x2="302.98" y2="175.39"/><line x1="277.22" y1="256.05" x2="277.38" y2="258.08"/><line x1="305.04" y1="352.75" x2="306.25" y2="362.69"/><line x1="234.84" y1="339.72" x2="235.43" y2="336.76"/><line x1="232.10" y1="271.51" x2="230.55" y2="268.67"/><line x1="334.25" y1="284.14" x2="321.84" y2="266.81"/><line x1="316.90" y1="189.36" x2="314.03" y2="190.13"/><line x1="328.35" y1="199.74" x2="339.04" y2="193.12"/><line x1="205.58" y1="174.12" x2="203.52" y2="179.07"/><line x1="277.38" y1="258.08" x2="277.60" y2="259.85"/><line x1="213.27" y1="330.20" x2="235.63" y2="333.58"/><line x1="188.14" y1="246.60" x2="195.40" y2="262.97"/><line x1="185.05" y1="345.96" x2="185.87" y2="346.59"/><line x1="339.04" y1="193.12" x2="328.24" y2="196.82"/><line x1="306.29" y1="194.30" x2="294.60" y2="180.17"/><line x1="209.49" y1="361.06" x2="212.86" y2="359.37"/><line x1="200.65" y1="260.53" x2="197.99" y2="245.93"/><line x1="480.00" y1="32.02" x2="480.00" y2="64.50"/><line x1="328.35" y1="252.32" x2="348.94" y2="217.35"/><line x1="325.46" y1="262.28" x2="343.22" y2="277.68"/><line x1="164.81" y1="331.74" x2="165.16" y2="333.00"/><line x1="294.60" y1="180.17" x2="304.01" y2="196.30"/><line x1="200.91" y1="362.82" x2="198.63" y2="361.61"/><line x1="280.02" y1="265.71" x2="281.11" y2="266.94"/><line x1="480.00" y1="479.91" x2="480.00" y2="447.42"/><line x1="223.43" y1="261.87" x2="214.47" y2="264.84"/><line x1="343.22" y1="277.68" x2="344.32" y2="276.55"/><line x1="331.15" y1="187.51" x2="326.62" y2="190.76"/><line x1="205.34" y1="182.82" x2="212.02" y2="174.20"/><line x1="277.10" y1="211.45" x2="296.26" y2="215.03"/><line x1="305.04" y1="352.75" x2="299.04" y2="362.91"/><line x1="281.11" y1="266.94" x2="282.46" y2="268.30"/><line x1="208.41" y1="337.15" x2="210.39" y2="334.90"/><line x1="181.36" y1="348.70" x2="185.05" y2="345.96"/><line x1="179.07" y1="252.19" x2="176.78" y2="253.96"/><line x1="183.20" y1="336.63" x2="171.00" y2="340.09"/><line x1="326.62" y1="190.76" x2="325.66" y2="189.64"/><line x1="284.01" y1="189.20" x2="282.41" y2="191.16"/><line x1="191.63" y1="356.77" x2="189.77" y2="346.64"/><line x1="210.39" y1="334.90" x2="225.92" y2="351.43"/><line x1="323.83" y1="264.58" x2="341.98" y2="278.80"/><line x1="447.51" y1="479.91" x2="480.00" y2="447.42"/><line x1="308.73" y1="192.60" x2="306.29" y2="194.30"/><line x1="171.00" y1="340.09" x2="172.87" y2="341.70"/><line x1="282.41" y1="191.16" x2="281.00" y2="193.27"/><line x1="214.40" y1="255.67" x2="211.07" y2="259.38"/><line x1="200.65" y1="260.53" x2="192.85" y2="244.39"/><line x1="348.35" y1="269.26" x2="326.72" y2="259.90"/><line x1="325.46" y1="262.28" x2="346.83" y2="273.11"/><line x1="217.79" y1="177.87" x2="305.04" y2="352.75"/><line x1="296.55" y1="271.25" x2="296.91" y2="273.10"/><line x1="311.53" y1="273.96" x2="308.71" y2="275.01"/><line x1="166.74" y1="265.99" x2="165.77" y2="268.63"/><line x1="319.90" y1="180.43" x2="316.90" y2="189.36"/><line x1="277.10" y1="211.45" x2="300.22" y2="200.93"/><line x1="305.04" y1="352.75" x2="294.65" y2="359.31"/><line x1="234.84" y1="339.72" x2="213.27" y2="330.20"/><line x1="203.36" y1="248.85" x2="200.44" y2="247.21"/><line x1="314.03" y1="190.13" x2="311.30" y2="191.21"/><line x1="183.20" y1="336.63" x2="165.56" y2="334.01"/><line x1="184.38" y1="344.93" x2="185.05" y2="345.96"/><line x1="204.24" y1="362.98" x2="202.36" y2="363.22"/><line x1="322.65" y1="290.64" x2="326.02" y2="288.95"/><line x1="206.22" y1="184.42" x2="217.08" y2="176.81"/><line x1="185.05" y1="345.96" x2="186.90" y2="353.14"/><line x1="299.04" y1="362.91" x2="300.37" y2="363.15"/><line x1="325.46" y1="262.28" x2="326.72" y2="259.90"/><line x1="296.26" y1="215.03" x2="296.26" y2="266.33"/><line x1="212.01" y1="332.59" x2="233.84" y2="342.48"/><line x1="300.37" y1="363.15" x2="301.84" y2="363.22"/><line x1="480.00" y1="479.91" x2="447.51" y2="479.91"/><line x1="277.10" y1="251.24" x2="277.13" y2="253.77"/><line x1="277.10" y1="211.45" x2="296.42" y2="211.92"/><line x1="195.46" y1="345.42" x2="192.64" y2="346.18"/><line x1="192.08" y1="244.66" x2="191.04" y2="245.12"/><line x1="314.03" y1="190.13" x2="307.44" y2="174.05"/><line x1="183.20" y1="336.63" x2="164.16" y2="326.47"/><line x1="181.36" y1="348.70" x2="184.38" y2="344.93"/><line x1="347.93" y1="270.62" x2="348.35" y2="269.26"/><line x1="301.36" y1="176.24" x2="299.45" y2="177.27"/><line x1="183.20" y1="336.63" x2="169.39" y2="338.61"/><line x1="203.33" y1="175.42" x2="203.87" y2="174.86"/><line x1="235.63" y1="333.58" x2="235.63" y2="293.10"/><line x1="190.77" y1="266.64" x2="170.95" y2="259.53"/><line x1="294.45" y1="278.39" x2="296.55" y2="271.25"/><line x1="190.77" y1="266.64" x2="188.77" y2="268.85"/><line x1="323.83" y1="264.58" x2="340.62" y2="279.90"/><line x1="206.75" y1="173.93" x2="208.13" y2="173.87"/><line x1="308.73" y1="192.60" x2="297.23" y2="178.50"/><line x1="319.92" y1="188.89" x2="319.90" y2="180.43"/><line x1="227.37" y1="265.04" x2="225.61" y2="263.55"/><line x1="319.79" y1="291.84" x2="311.53" y2="273.96"/><line x1="336.83" y1="191.44" x2="334.21" y2="189.58"/><line x1="203.99" y1="180.15" x2="204.60" y2="181.40"/><line x1="277.21" y1="207.77" x2="277.10" y2="211.45"/><line x1="203.51" y1="341.30" x2="206.06" y2="339.32"/><line x1="184.15" y1="248.82" x2="181.53" y2="250.48"/><line x1="327.92" y1="194.35" x2="327.38" y2="192.33"/><line x1="327.62" y1="257.44" x2="328.17" y2="254.91"/><line x1="277.10" y1="211.45" x2="301.95" y2="198.54"/><line x1="216.72" y1="357.21" x2="221.07" y2="354.56"/><line x1="220.84" y1="260.00" x2="217.83" y2="257.93"/><line x1="203.36" y1="248.85" x2="200.65" y2="260.53"/><line x1="327.68" y1="185.26" x2="323.77" y2="182.80"/><line x1="328.17" y1="254.91" x2="328.35" y2="252.32"/><line x1="314.03" y1="190.13" x2="304.28" y2="174.72"/><line x1="183.20" y1="336.63" x2="165.16" y2="333.00"/><line x1="309.01" y1="174.60" x2="307.44" y2="174.05"/><line x1="213.63" y1="174.61" x2="215.00" y2="175.18"/><line x1="204.24" y1="362.98" x2="200.91" y2="362.82"/><line x1="317.44" y1="292.56" x2="311.84" y2="291.20"/><line x1="294.45" y1="278.39" x2="300.04" y2="282.80"/><line x1="213.94" y1="262.79" x2="213.19" y2="261.20"/><line x1="190.77" y1="266.64" x2="165.77" y2="268.63"/><line x1="187.06" y1="271.23" x2="185.68" y2="273.77"/><line x1="206.22" y1="184.42" x2="216.16" y2="175.91"/><line x1="307.44" y1="174.05" x2="306.34" y2="173.87"/><line x1="200.89" y1="342.98" x2="203.51" y2="341.30"/><line x1="285.93" y1="271.43" x2="288.05" y2="273.19"/><line x1="296.42" y1="211.92" x2="296.26" y2="215.03"/><line x1="235.63" y1="293.10" x2="235.48" y2="287.80"/><line x1="346.83" y1="204.39" x2="345.55" y2="201.06"/><line x1="296.26" y1="215.03" x2="277.10" y2="251.24"/><line x1="212.01" y1="332.59" x2="232.46" y2="345.03"/><line x1="189.77" y1="346.64" x2="186.83" y2="346.80"/><line x1="192.85" y1="244.39" x2="192.08" y2="244.66"/><line x1="345.55" y1="201.06" x2="344.00" y2="198.22"/><line x1="233.84" y1="342.48" x2="234.84" y2="339.72"/><line x1="302.98" y1="175.39" x2="301.36" y2="176.24"/><line x1="307.86" y1="361.75" x2="308.26" y2="361.10"/><line x1="195.46" y1="345.42" x2="191.63" y2="356.77"/><line x1="308.71" y1="275.01" x2="305.81" y2="275.77"/><line x1="210.55" y1="253.22" x2="206.73" y2="250.85"/><line x1="321.84" y1="266.81" x2="323.83" y2="264.58"/><line x1="314.03" y1="190.13" x2="309.01" y2="174.60"/><line x1="328.24" y1="196.82" x2="327.92" y2="194.35"/><line x1="183.20" y1="336.63" x2="164.07" y2="324.21"/><line x1="301.36" y1="176.24" x2="308.73" y2="192.60"/><line x1="203.51" y1="259.77" x2="203.36" y2="248.85"/><line x1="183.20" y1="336.63" x2="168.05" y2="337.26"/><line x1="235.63" y1="333.58" x2="214.89" y2="322.62"/><line x1="190.77" y1="266.64" x2="172.72" y2="257.63"/><line x1="314.26" y1="272.59" x2="322.65" y2="290.64"/><line x1="228.72" y1="266.33" x2="227.37" y2="265.04"/><line x1="190.77" y1="266.64" x2="164.03" y2="281.83"/><line x1="323.83" y1="264.58" x2="339.12" y2="281.00"/><line x1="206.75" y1="173.93" x2="203.99" y2="180.15"/><line x1="206.22" y1="184.42" x2="294.65" y2="359.31"/><line x1="277.88" y1="261.37" x2="278.22" y2="262.64"/><line x1="186.28" y1="247.62" x2="184.15" y2="248.82"/><line x1="336.83" y1="191.44" x2="327.92" y2="194.35"/><line x1="214.89" y1="322.62" x2="235.63" y2="293.10"/><line x1="214.89" y1="322.62" x2="214.89" y2="270.29"/><line x1="203.51" y1="341.30" x2="216.72" y2="357.21"/><line x1="325.66" y1="189.64" x2="324.48" y2="188.96"/><line x1="165.56" y1="334.01" x2="166.13" y2="334.96"/><line x1="296.26" y1="266.33" x2="277.38" y2="258.08"/><line x1="292.14" y1="181.87" x2="289.85" y2="183.64"/><line x1="296.26" y1="266.33" x2="284.06" y2="269.79"/><line x1="220.84" y1="260.00" x2="213.94" y2="262.79"/><line x1="198.21" y1="344.35" x2="195.46" y2="345.42"/><line x1="302.83" y1="276.22" x2="299.78" y2="276.37"/><line x1="327.68" y1="185.26" x2="323.08" y2="188.74"/><line x1="183.20" y1="336.63" x2="164.81" y2="331.74"/><line x1="213.63" y1="174.61" x2="206.22" y2="184.42"/><line x1="228.50" y1="349.51" x2="230.67" y2="347.37"/><line x1="317.44" y1="292.56" x2="315.58" y2="292.80"/><line x1="190.77" y1="266.64" x2="166.74" y2="265.99"/><line x1="326.72" y1="259.90" x2="348.90" y2="266.29"/><line x1="174.66" y1="255.77" x2="172.72" y2="257.63"/><line x1="183.28" y1="339.33" x2="181.36" y2="348.70"/><line x1="200.89" y1="342.98" x2="212.86" y2="359.37"/><line x1="209.69" y1="259.16" x2="206.53" y2="259.32"/><line x1="277.60" y1="259.85" x2="277.88" y2="261.37"/><line x1="214.89" y1="322.62" x2="233.37" y2="274.84"/><line x1="304.01" y1="196.30" x2="277.53" y2="204.34"/><line x1="316.48" y1="178.43" x2="313.52" y2="176.79"/><line x1="296.26" y1="266.33" x2="278.63" y2="263.66"/><line x1="308.71" y1="275.01" x2="304.79" y2="286.40"/><line x1="186.90" y1="353.14" x2="186.83" y2="346.80"/><line x1="328.24" y1="196.82" x2="336.83" y2="191.44"/><line x1="235.63" y1="333.58" x2="214.71" y2="325.22"/><line x1="190.77" y1="266.64" x2="174.66" y2="255.77"/><line x1="480.00" y1="64.50" x2="447.51" y2="32.02"/><line x1="344.32" y1="276.55" x2="345.29" y2="275.41"/><line x1="214.89" y1="322.62" x2="227.37" y2="265.04"/><line x1="316.92" y1="270.93" x2="319.49" y2="268.97"/><line x1="304.01" y1="196.30" x2="282.41" y2="191.16"/><line x1="325.66" y1="189.64" x2="327.68" y2="185.26"/><line x1="296.26" y1="266.33" x2="277.22" y2="256.05"/><line x1="296.26" y1="266.33" x2="282.46" y2="268.30"/><line x1="284.06" y1="269.79" x2="285.93" y2="271.43"/><line x1="349.08" y1="262.99" x2="349.08" y2="222.66"/><line x1="197.95" y1="261.60" x2="189.72" y2="245.77"/><line x1="204.61" y1="174.43" x2="205.58" y2="174.12"/><line x1="192.64" y1="346.18" x2="189.77" y2="346.64"/><line x1="228.50" y1="349.51" x2="212.01" y2="332.59"/><line x1="164.03" y1="281.83" x2="184.60" y2="276.48"/><line x1="326.72" y1="259.90" x2="348.67" y2="267.81"/><line x1="183.28" y1="339.33" x2="174.98" y2="343.45"/><line x1="200.89" y1="342.98" x2="209.49" y2="361.06"/><line x1="209.69" y1="259.16" x2="210.55" y2="253.22"/><line x1="202.98" y1="177.45" x2="203.87" y2="174.86"/><line x1="212.86" y1="359.37" x2="203.51" y2="341.30"/><line x1="294.65" y1="359.31" x2="295.23" y2="360.35"/><line x1="214.89" y1="322.62" x2="234.36" y2="278.66"/><line x1="297.41" y1="274.53" x2="298.06" y2="275.56"/><line x1="165.16" y1="333.00" x2="165.56" y2="334.01"/><line x1="225.61" y1="263.55" x2="223.43" y2="261.87"/><line x1="304.01" y1="196.30" x2="292.14" y2="181.87"/><line x1="308.73" y1="289.20" x2="308.71" y2="275.01"/><line x1="304.01" y1="196.30" x2="278.07" y2="201.18"/><line x1="165.01" y1="271.53" x2="164.46" y2="274.70"/><line x1="305.04" y1="352.75" x2="308.39" y2="360.32"/><line x1="204.60" y1="181.40" x2="205.34" y2="182.82"/><line x1="214.47" y1="264.84" x2="220.84" y2="260.00"/><line x1="296.26" y1="266.33" x2="278.22" y2="262.64"/><line x1="221.07" y1="354.56" x2="225.92" y2="351.43"/><line x1="217.83" y1="257.93" x2="214.40" y2="255.67"/><line x1="235.43" y1="336.76" x2="235.63" y2="333.58"/><line x1="212.02" y1="174.20" x2="213.63" y2="174.61"/><line x1="181.53" y1="250.48" x2="179.07" y2="252.19"/><line x1="282.46" y1="268.30" x2="284.06" y2="269.79"/><line x1="186.90" y1="353.14" x2="185.87" y2="346.59"/><line x1="198.21" y1="344.35" x2="200.89" y2="342.98"/><line x1="296.34" y1="268.99" x2="296.55" y2="271.25"/><line x1="300.22" y1="200.93" x2="298.79" y2="203.45"/><line x1="176.78" y1="253.96" x2="174.66" y2="255.77"/><line x1="326.02" y1="288.95" x2="329.88" y2="286.78"/><line x1="200.44" y1="247.21" x2="197.99" y2="245.93"/><line x1="225.92" y1="351.43" x2="228.50" y2="349.51"/><line x1="326.72" y1="259.90" x2="327.62" y2="257.44"/><line x1="301.84" y1="363.22" x2="303.58" y2="363.17"/><line x1="328.35" y1="252.32" x2="345.55" y2="201.06"/><line x1="172.87" y1="341.70" x2="183.28" y2="339.33"/><line x1="281.00" y1="193.27" x2="279.81" y2="195.64"/><line x1="184.60" y1="276.48" x2="183.82" y2="279.34"/><line x1="305.96" y1="173.97" x2="305.27" y2="174.25"/><line x1="211.07" y1="259.38" x2="209.69" y2="259.16"/><line x1="311.84" y1="291.20" x2="308.73" y2="289.20"/><line x1="235.06" y1="282.98" x2="234.36" y2="278.66"/><line x1="304.01" y1="196.30" x2="284.01" y2="189.20"/><line x1="296.91" y1="273.10" x2="297.41" y2="274.53"/><line x1="305.04" y1="352.75" x2="305.05" y2="362.99"/><line x1="304.01" y1="196.30" x2="301.95" y2="198.54"/><line x1="203.87" y1="174.86" x2="204.61" y2="174.43"/><line x1="296.26" y1="266.33" x2="277.13" y2="253.77"/><line x1="165.77" y1="268.63" x2="165.01" y2="271.53"/><line x1="316.90" y1="189.36" x2="316.48" y2="178.43"/><line x1="32.16" y1="32.09" x2="32.16" y2="64.58"/><line x1="349.08" y1="262.99" x2="328.35" y2="252.32"/><line x1="197.95" y1="261.60" x2="191.04" y2="245.12"/><line x1="213.27" y1="330.20" x2="235.43" y2="336.76"/><line x1="214.89" y1="270.29" x2="214.78" y2="267.34"/><line x1="301.95" y1="198.54" x2="300.22" y2="200.93"/><line x1="164.03" y1="281.83" x2="185.68" y2="273.77"/><line x1="164.16" y1="326.47" x2="164.31" y2="328.48"/><line x1="200.65" y1="260.53" x2="200.44" y2="247.21"/><line x1="328.35" y1="252.32" x2="349.08" y2="222.66"/><line x1="328.35" y1="252.32" x2="328.35" y2="199.74"/><line x1="193.01" y1="264.65" x2="190.77" y2="266.64"/><line x1="200.91" y1="362.82" x2="202.36" y2="363.22"/><line x1="202.98" y1="177.45" x2="203.33" y2="175.42"/><line x1="334.21" y1="189.58" x2="331.15" y2="187.51"/><line x1="185.68" y1="273.77" x2="184.60" y2="276.48"/><line x1="206.06" y1="339.32" x2="208.41" y2="337.15"/><line x1="305.04" y1="352.75" x2="297.86" y2="362.51"/><line x1="304.01" y1="196.30" x2="278.83" y2="198.28"/><line x1="305.04" y1="352.75" x2="308.26" y2="361.10"/><line x1="195.54" y1="359.59" x2="191.63" y2="356.77"/><line x1="217.83" y1="257.93" x2="212.24" y2="260.07"/><line x1="164.03" y1="321.70" x2="164.07" y2="324.21"/><line x1="296.34" y1="268.99" x2="294.45" y2="278.39"/><line x1="326.02" y1="288.95" x2="316.92" y2="270.93"/><line x1="164.03" y1="281.83" x2="164.03" y2="321.70"/><line x1="323.08" y1="188.74" x2="319.92" y2="188.89"/><line x1="200.65" y1="260.53" x2="193.35" y2="244.29"/><line x1="206.62" y1="362.27" x2="209.49" y2="361.06"/><line x1="328.35" y1="252.32" x2="346.83" y2="204.39"/><line x1="325.46" y1="262.28" x2="346.13" y2="274.26"/><line x1="311.53" y1="273.96" x2="308.73" y2="289.20"/><line x1="208.13" y1="173.87" x2="210.19" y2="173.95"/><line x1="206.53" y1="259.32" x2="203.51" y2="259.77"/><line x1="305.04" y1="352.75" x2="303.58" y2="363.17"/><line x1="32.00" y1="479.98" x2="64.49" y2="479.98"/><line x1="300.04" y1="282.80" x2="299.78" y2="276.37"/><line x1="304.79" y1="286.40" x2="302.83" y2="276.22"/><line x1="164.03" y1="281.83" x2="187.06" y2="271.23"/><line x1="306.34" y1="173.87" x2="305.96" y2="173.97"/><line x1="328.35" y1="252.32" x2="340.82" y2="194.60"/><line x1="325.46" y1="262.28" x2="348.35" y2="269.26"/><line x1="193.01" y1="264.65" x2="181.53" y2="250.48"/><line x1="202.98" y1="177.45" x2="202.91" y2="176.91"/><line x1="235.48" y1="287.80" x2="235.06" y2="282.98"/><line x1="277.10" y1="251.24" x2="296.26" y2="266.33"/><line x1="277.10" y1="211.45" x2="296.90" y2="208.95"/><line x1="305.04" y1="352.75" x2="296.84" y2="361.94"/><line x1="311.30" y1="191.21" x2="308.73" y2="192.60"/><line x1="166.96" y1="336.04" x2="168.05" y2="337.26"/><line x1="305.04" y1="352.75" x2="307.86" y2="361.75"/><line x1="192.08" y1="244.66" x2="197.95" y2="261.60"/><line x1="181.36" y1="348.70" x2="183.87" y2="343.48"/><line x1="344.00" y1="198.22" x2="342.17" y2="195.88"/><line x1="217.83" y1="257.93" x2="213.19" y2="261.20"/><line x1="308.26" y1="361.10" x2="308.39" y2="360.32"/><line x1="164.03" y1="321.70" x2="183.20" y2="336.63"/><line x1="191.63" y1="356.77" x2="192.64" y2="346.18"/><line x1="164.07" y1="324.21" x2="164.16" y2="326.47"/><line x1="308.73" y1="192.60" x2="299.45" y2="177.27"/><line x1="170.95" y1="259.53" x2="169.35" y2="261.50"/><line x1="227.37" y1="265.04" x2="214.89" y2="270.29"/><line x1="339.12" y1="281.00" x2="340.62" y2="279.90"/><line x1="200.65" y1="260.53" x2="194.44" y2="244.48"/><line x1="230.67" y1="347.37" x2="232.46" y2="345.03"/><line x1="328.35" y1="252.32" x2="347.82" y2="208.22"/><line x1="325.46" y1="262.28" x2="345.29" y2="275.41"/><line x1="203.99" y1="180.15" x2="208.13" y2="173.87"/><line x1="278.22" y1="262.64" x2="278.63" y2="263.66"/><line x1="184.15" y1="248.82" x2="193.01" y2="264.65"/><line x1="327.92" y1="194.35" x2="334.21" y2="189.58"/><line x1="208.13" y1="173.87" x2="204.60" y2="181.40"/><line x1="206.53" y1="259.32" x2="206.73" y2="250.85"/><line x1="331.15" y1="187.51" x2="327.68" y2="185.26"/><line x1="216.72" y1="357.21" x2="206.06" y2="339.32"/><line x1="205.34" y1="182.82" x2="206.22" y2="184.42"/><line x1="32.00" y1="479.98" x2="32.00" y2="447.50"/><line x1="300.04" y1="282.80" x2="298.84" y2="276.17"/><line x1="166.13" y1="334.96" x2="166.96" y2="336.04"/><line x1="314.03" y1="190.13" x2="305.27" y2="174.25"/><line x1="289.85" y1="183.64" x2="287.74" y2="185.44"/><line x1="183.20" y1="336.63" x2="183.28" y2="339.33"/><line x1="213.94" y1="262.79" x2="217.83" y2="257.93"/><line x1="294.45" y1="278.39" x2="298.06" y2="275.56"/><line x1="346.13" y1="274.26" x2="346.83" y2="273.11"/><line x1="210.39" y1="334.90" x2="212.01" y2="332.59"/><line x1="214.17" y1="327.75" x2="214.71" y2="325.22"/><line x1="206.22" y1="184.42" x2="215.00" y2="175.18"/><line x1="285.93" y1="271.43" x2="296.34" y2="268.99"/><line x1="314.12" y1="292.41" x2="311.84" y2="291.20"/><line x1="172.72" y1="257.63" x2="170.95" y2="259.53"/><line x1="206.62" y1="362.27" x2="198.21" y2="344.35"/><line x1="324.48" y1="188.96" x2="323.08" y2="188.74"/><line x1="319.79" y1="291.84" x2="314.26" y2="272.59"/><line x1="214.40" y1="255.67" x2="210.55" y2="253.22"/><line x1="215.00" y1="175.18" x2="216.16" y2="175.91"/><line x1="325.46" y1="262.28" x2="347.93" y2="270.62"/><line x1="212.01" y1="332.59" x2="230.67" y2="347.37"/><line x1="304.28" y1="174.72" x2="302.98" y2="175.39"/><line x1="174.98" y1="343.45" x2="181.36" y2="348.70"/><line x1="319.49" y1="268.97" x2="321.84" y2="266.81"/><line x1="298.06" y1="275.56" x2="298.84" y2="276.17"/><line x1="277.10" y1="211.45" x2="297.69" y2="206.13"/><line x1="210.55" y1="253.22" x2="206.53" y2="259.32"/><line x1="314.03" y1="190.13" x2="311.03" y2="175.51"/><line x1="181.36" y1="348.70" x2="183.50" y2="341.61"/><line x1="295.23" y1="360.35" x2="295.96" y2="361.23"/><line x1="183.20" y1="336.63" x2="166.96" y2="336.04"/><line x1="328.35" y1="199.74" x2="328.24" y2="196.82"/><line x1="204.24" y1="362.98" x2="206.62" y2="362.27"/><line x1="190.77" y1="266.64" x2="164.14" y2="278.13"/><line x1="295.96" y1="361.23" x2="296.84" y2="361.94"/><line x1="206.22" y1="184.42" x2="305.04" y2="352.75"/><line x1="306.29" y1="194.30" x2="304.01" y2="196.30"/><line x1="164.14" y1="278.13" x2="164.03" y2="281.83"/><line x1="325.46" y1="262.28" x2="344.32" y2="276.55"/><line x1="304.79" y1="286.40" x2="300.04" y2="282.80"/><line x1="198.63" y1="361.61" x2="195.54" y2="359.59"/><line x1="191.63" y1="356.77" x2="186.90" y2="353.14"/><line x1="212.01" y1="332.59" x2="213.27" y2="330.20"/><line x1="345.29" y1="275.41" x2="346.13" y2="274.26"/><line x1="331.15" y1="187.51" x2="325.66" y2="189.64"/><line x1="329.88" y1="286.78" x2="334.25" y2="284.14"/><line x1="277.10" y1="211.45" x2="277.10" y2="251.24"/><line x1="183.36" y1="282.38" x2="183.20" y2="285.56"/><line x1="327.68" y1="185.26" x2="324.48" y2="188.96"/><line x1="314.03" y1="190.13" x2="305.96" y2="173.97"/><line x1="183.20" y1="336.63" x2="164.53" y2="330.23"/><line x1="181.36" y1="348.70" x2="186.90" y2="353.14"/><line x1="183.20" y1="336.63" x2="172.87" y2="341.70"/><line x1="317.44" y1="292.56" x2="314.12" y2="292.41"/><line x1="294.45" y1="278.39" x2="297.41" y2="274.53"/><line x1="314.26" y1="272.59" x2="316.92" y2="270.93"/><line x1="340.82" y1="194.60" x2="339.04" y2="193.12"/><line x1="190.77" y1="266.64" x2="167.94" y2="263.61"/><line x1="203.18" y1="178.18" x2="203.52" y2="179.07"/><line x1="323.83" y1="264.58" x2="325.46" y2="262.28"/><line x1="279.81" y1="195.64" x2="278.83" y2="198.28"/><line x1="314.12" y1="292.41" x2="315.58" y2="292.80"/><line x1="348.67" y1="267.81" x2="348.90" y2="266.29"/><line x1="297.23" y1="178.50" x2="294.60" y2="180.17"/><line x1="278.83" y1="198.28" x2="278.07" y2="201.18"/><line x1="189.77" y1="346.64" x2="186.90" y2="353.14"/><line x1="348.90" y1="266.29" x2="349.04" y2="264.67"/><line x1="316.48" y1="178.43" x2="314.03" y2="190.13"/><line x1="298.06" y1="275.56" x2="300.04" y2="282.80"/><line x1="214.78" y1="267.34" x2="214.47" y2="264.84"/><line x1="164.46" y1="274.70" x2="164.14" y2="278.13"/><line x1="210.19" y1="173.95" x2="212.02" y2="174.20"/><line x1="314.03" y1="190.13" x2="313.52" y2="176.79"/><line x1="183.20" y1="336.63" x2="166.13" y2="334.96"/><line x1="235.63" y1="333.58" x2="214.17" y2="327.75"/><line x1="190.77" y1="266.64" x2="176.78" y2="253.96"/><line x1="204.24" y1="362.98" x2="198.63" y2="361.61"/><line x1="349.08" y1="222.66" x2="348.94" y2="217.35"/><line x1="190.77" y1="266.64" x2="164.46" y2="274.70"/><line x1="185.87" y1="346.59" x2="186.83" y2="346.80"/><line x1="298.79" y1="203.45" x2="297.69" y2="206.13"/><line x1="206.22" y1="184.42" x2="217.79" y2="177.87"/><line x1="197.99" y1="245.93" x2="195.99" y2="245.02"/><line x1="348.94" y1="217.35" x2="348.52" y2="212.54"/><line x1="303.58" y1="363.17" x2="305.05" y2="362.99"/><line x1="319.79" y1="291.84" x2="322.65" y2="290.64"/><line x1="198.63" y1="361.61" x2="206.62" y2="362.27"/><line x1="214.89" y1="322.62" x2="228.72" y2="266.33"/><line x1="212.24" y1="260.07" x2="211.07" y2="259.38"/><line x1="316.92" y1="270.93" x2="329.88" y2="286.78"/><line x1="212.01" y1="332.59" x2="234.84" y2="339.72"/><line x1="183.82" y1="279.34" x2="183.36" y2="282.38"/><line x1="305.27" y1="174.25" x2="304.28" y2="174.72"/><line x1="305.05" y1="362.99" x2="306.25" y2="362.69"/><line x1="296.26" y1="266.33" x2="281.11" y2="266.94"/><line x1="234.36" y1="278.66" x2="233.37" y2="274.84"/><line x1="329.88" y1="286.78" x2="319.49" y2="268.97"/><line x1="183.36" y1="282.38" x2="164.03" y2="321.70"/><line x1="302.83" y1="276.22" x2="300.04" y2="282.80"/><line x1="204.61" y1="174.43" x2="203.18" y2="178.18"/><line x1="314.03" y1="190.13" x2="306.34" y2="173.87"/><line x1="277.13" y1="253.77" x2="277.22" y2="256.05"/><line x1="183.20" y1="336.63" x2="164.31" y2="328.48"/><line x1="191.04" y1="245.12" x2="189.72" y2="245.77"/><line x1="190.77" y1="266.64" x2="169.35" y2="261.50"/><line x1="294.45" y1="278.39" x2="296.91" y2="273.10"/><line x1="314.26" y1="272.59" x2="326.02" y2="288.95"/><line x1="340.82" y1="194.60" x2="328.35" y2="199.74"/><line x1="203.18" y1="178.18" x2="205.58" y2="174.12"/><line x1="319.92" y1="188.89" x2="316.90" y2="189.36"/><line x1="64.64" y1="32.09" x2="32.16" y2="64.58"/><line x1="341.98" y1="278.80" x2="343.22" y2="277.68"/><line x1="189.72" y1="245.77" x2="188.14" y2="246.60"/><line x1="164.31" y1="328.48" x2="164.53" y2="330.23"/><line x1="297.23" y1="178.50" x2="306.29" y2="194.30"/><line x1="214.89" y1="322.62" x2="235.06" y2="282.98"/><line x1="225.61" y1="263.55" x2="214.78" y2="267.34"/><line x1="327.38" y1="192.33" x2="326.62" y2="190.76"/><line x1="164.53" y1="330.23" x2="164.81" y2="331.74"/><line x1="204.60" y1="181.40" x2="210.19" y2="173.95"/><line x1="279.20" y1="264.62" x2="280.02" y2="265.71"/><line x1="296.26" y1="266.33" x2="277.88" y2="261.37"/><line x1="221.07" y1="354.56" x2="210.39" y2="334.90"/><line x1="214.78" y1="267.34" x2="223.43" y2="261.87"/><line x1="296.26" y1="266.33" x2="296.34" y2="268.99"/><line x1="181.53" y1="250.48" x2="190.77" y2="266.64"/><line x1="210.19" y1="173.95" x2="205.34" y2="182.82"/><line x1="190.77" y1="266.64" x2="179.07" y2="252.19"/><line x1="317.44" y1="292.56" x2="319.79" y2="291.84"/><line x1="190.77" y1="266.64" x2="165.01" y2="271.53"/><line x1="326.72" y1="259.90" x2="349.08" y2="262.99"/><line x1="323.77" y1="182.80" x2="319.90" y2="180.43"/><line x1="169.39" y1="338.61" x2="171.00" y2="340.09"/><line x1="214.89" y1="322.62" x2="230.55" y2="268.67"/><line x1="195.40" y1="262.97" x2="193.01" y2="264.65"/><line x1="311.84" y1="291.20" x2="311.53" y2="273.96"/><line x1="212.24" y1="260.07" x2="214.40" y2="255.67"/><line x1="304.01" y1="196.30" x2="285.79" y2="187.30"/><line x1="342.17" y1="195.88" x2="340.82" y2="194.60"/><line x1="304.01" y1="196.30" x2="277.10" y2="211.45"/><line x1="217.08" y1="176.81" x2="217.79" y2="177.87"/><line x1="296.26" y1="266.33" x2="280.02" y2="265.71"/><line x1="206.73" y1="250.85" x2="203.36" y2="248.85"/><line x1="32.16" y1="32.09" x2="64.64" y2="32.09"/><line x1="349.08" y1="262.99" x2="328.17" y2="254.91"/><line x1="299.45" y1="177.27" x2="297.23" y2="178.50"/><line x1="203.51" y1="259.77" x2="200.65" y2="260.53"/><line x1="214.89" y1="270.29" x2="225.61" y2="263.55"/><line x1="340.62" y1="279.90" x2="341.98" y2="278.80"/><line x1="278.63" y1="263.66" x2="279.20" y2="264.62"/><line x1="305.81" y1="275.77" x2="302.83" y2="276.22"/><line x1="341.98" y1="278.80" x2="325.46" y2="262.28"/><line x1="334.21" y1="189.58" x2="327.38" y2="192.33"/><line x1="214.89" y1="322.62" x2="235.48" y2="287.80"/><line x1="206.06" y1="339.32" x2="221.07" y2="354.56"/><line x1="32.00" y1="447.50" x2="64.49" y2="479.98"/></g></svg>