<svg xmlns="http://www.w3.org/2000/svg" width="512" height="512"><rect width="512" height="512" fill="#0a0f1a"/><text x="12" y="20" font-family="monospace" font-size="11" fill="#4a7fa5">FRONT (XZ)</text><g stroke="#00d4ff" stroke-width="0.6" opacity="0.85"><line x1="251.40" y1="327.62" x2="257.89" y2="357.20"/><line x1="256.61" y1="323.57" x2="277.90" y2="345.31"/><line x1="291.81" y1="325.46" x2="291.64" y2="324.79"/><line x1="287.83" y1="338.29" x2="261.27" y2="318.27"/><line x1="250.39" y1="200.06" x2="247.47" y2="200.66"/><line x1="217.53" y1="338.28" x2="219.89" y2="339.52"/><line x1="207.20" y1="177.57" x2="211.05" y2="173.34"/><line x1="231.32" y1="333.08" x2="232.72" y2="333.10"/><line x1="207.20" y1="177.57" x2="207.48" y2="175.10"/><line x1="262.58" y1="314.27" x2="294.54" y2="329.51"/><line x1="262.58" y1="314.27" x2="291.81" y2="325.46"/><line x1="291.64" y1="324.79" x2="291.49" y2="324.01"/><line x1="288.38" y1="197.06" x2="264.87" y2="182.39"/><line x1="220.56" y1="176.67" x2="219.50" y2="176.41"/><line x1="232.72" y1="333.10" x2="234.91" y2="333.05"/><line x1="261.27" y1="318.27" x2="261.88" y2="316.97"/><line x1="264.87" y1="182.39" x2="262.64" y2="203.76"/><line x1="262.67" y1="204.26" x2="289.78" y2="198.65"/><line x1="264.87" y1="182.39" x2="259.84" y2="199.56"/><line x1="264.87" y1="182.39" x2="234.71" y2="175.17"/><line x1="259.29" y1="199.31" x2="234.71" y2="175.17"/><line x1="261.88" y1="316.97" x2="294.02" y2="333.99"/><line x1="291.23" y1="278.33" x2="262.67" y2="312.88"/><line x1="233.02" y1="203.89" x2="226.52" y2="176.41"/><line x1="213.03" y1="335.35" x2="214.10" y2="336.20"/><line x1="244.35" y1="351.81" x2="244.65" y2="331.17"/><line x1="251.40" y1="327.62" x2="263.65" y2="355.14"/><line x1="262.67" y1="312.88" x2="262.67" y2="308.58"/><line x1="208.70" y1="181.08" x2="214.94" y2="174.68"/><line x1="207.20" y1="177.57" x2="209.12" y2="173.71"/><line x1="244.65" y1="331.17" x2="246.34" y2="330.47"/><line x1="262.58" y1="314.27" x2="295.51" y2="331.51"/><line x1="295.04" y1="333.06" x2="295.26" y2="332.76"/><line x1="262.58" y1="314.27" x2="293.12" y2="327.88"/><line x1="262.58" y1="314.27" x2="291.30" y2="322.12"/><line x1="261.24" y1="200.74" x2="260.81" y2="200.28"/><line x1="295.26" y1="332.76" x2="295.41" y2="332.48"/><line x1="264.87" y1="182.39" x2="261.94" y2="201.75"/><line x1="227.83" y1="204.96" x2="225.98" y2="205.29"/><line x1="262.67" y1="204.26" x2="262.64" y2="203.76"/><line x1="214.40" y1="330.71" x2="214.66" y2="330.73"/><line x1="217.91" y1="278.33" x2="216.95" y2="271.68"/><line x1="291.23" y1="278.33" x2="306.20" y2="278.33"/><line x1="211.79" y1="173.49" x2="207.20" y2="177.57"/><line x1="251.40" y1="327.62" x2="255.92" y2="356.74"/><line x1="247.91" y1="173.49" x2="246.01" y2="173.68"/><line x1="217.53" y1="338.28" x2="221.41" y2="331.91"/><line x1="207.20" y1="177.57" x2="211.35" y2="173.38"/><line x1="262.58" y1="314.27" x2="295.04" y2="333.06"/><line x1="262.58" y1="314.27" x2="294.84" y2="329.91"/><line x1="262.67" y1="247.42" x2="213.76" y2="247.42"/><line x1="262.58" y1="314.27" x2="292.03" y2="326.01"/><line x1="262.58" y1="314.27" x2="262.67" y2="312.88"/><line x1="480.00" y1="32.02" x2="447.51" y2="32.02"/><line x1="262.67" y1="204.26" x2="290.30" y2="199.89"/><line x1="220.01" y1="202.25" x2="219.00" y2="200.79"/><line x1="213.51" y1="191.26" x2="212.46" y2="189.18"/><line x1="226.69" y1="332.71" x2="228.31" y2="332.88"/><line x1="208.73" y1="173.91" x2="208.36" y2="174.16"/><line x1="262.67" y1="254.07" x2="262.67" y2="247.42"/><line x1="251.40" y1="327.62" x2="261.64" y2="356.37"/><line x1="222.55" y1="176.97" x2="221.58" y2="176.85"/><line x1="206.98" y1="176.99" x2="207.00" y2="176.06"/><line x1="213.81" y1="330.78" x2="214.40" y2="330.71"/><line x1="258.37" y1="321.96" x2="259.51" y2="320.76"/><line x1="262.58" y1="314.27" x2="295.53" y2="331.92"/><line x1="262.58" y1="314.27" x2="293.45" y2="328.31"/><line x1="262.67" y1="271.68" x2="217.91" y2="278.33"/><line x1="212.36" y1="173.68" x2="211.79" y2="173.49"/><line x1="253.59" y1="355.97" x2="251.40" y2="327.62"/><line x1="210.42" y1="184.88" x2="209.49" y2="182.83"/><line x1="295.29" y1="330.70" x2="295.09" y2="330.30"/><line x1="291.23" y1="278.33" x2="305.25" y2="271.68"/><line x1="218.40" y1="176.07" x2="217.26" y2="175.65"/><line x1="221.78" y1="204.37" x2="220.94" y2="203.44"/><line x1="218.18" y1="331.32" x2="217.53" y2="338.28"/><line x1="262.67" y1="278.33" x2="291.23" y2="271.68"/><line x1="295.09" y1="330.30" x2="294.84" y2="329.91"/><line x1="291.23" y1="247.42" x2="262.67" y2="247.42"/><line x1="230.17" y1="204.49" x2="223.88" y2="176.85"/><line x1="220.94" y1="203.44" x2="220.01" y2="202.25"/><line x1="217.53" y1="338.28" x2="219.67" y2="331.59"/><line x1="262.58" y1="314.27" x2="294.76" y2="333.36"/><line x1="263.65" y1="355.14" x2="266.28" y2="353.42"/><line x1="262.67" y1="247.42" x2="214.72" y2="254.07"/><line x1="258.70" y1="199.13" x2="258.08" y2="199.02"/><line x1="209.12" y1="173.71" x2="208.73" y2="173.91"/><line x1="266.28" y1="353.42" x2="269.54" y2="351.21"/><line x1="305.25" y1="271.68" x2="291.23" y2="271.68"/><line x1="293.12" y1="327.88" x2="292.81" y2="327.44"/><line x1="258.08" y1="199.02" x2="257.42" y2="198.98"/><line x1="208.05" y1="179.61" x2="207.55" y2="178.44"/><line x1="480.00" y1="32.02" x2="480.00" y2="64.50"/><line x1="248.02" y1="329.65" x2="249.70" y2="328.70"/><line x1="225.00" y1="332.49" x2="226.69" y2="332.71"/><line x1="291.23" y1="254.07" x2="306.20" y2="254.07"/><line x1="292.81" y1="327.44" x2="292.53" y2="326.98"/><line x1="290.99" y1="203.24" x2="290.71" y2="201.42"/><line x1="480.00" y1="479.91" x2="480.00" y2="447.42"/><line x1="213.51" y1="191.26" x2="222.55" y2="176.97"/><line x1="226.69" y1="332.71" x2="240.53" y2="349.80"/><line x1="277.90" y1="345.31" x2="258.37" y2="321.96"/><line x1="262.67" y1="254.07" x2="291.23" y2="247.42"/><line x1="290.71" y1="201.42" x2="290.30" y2="199.89"/><line x1="247.47" y1="200.66" x2="244.07" y2="201.40"/><line x1="206.98" y1="176.99" x2="207.11" y2="175.74"/><line x1="258.37" y1="321.96" x2="287.83" y2="338.29"/><line x1="291.49" y1="324.01" x2="291.38" y2="323.12"/><line x1="244.07" y1="201.40" x2="240.21" y2="202.27"/><line x1="447.51" y1="479.91" x2="480.00" y2="447.42"/><line x1="291.38" y1="323.12" x2="291.30" y2="322.12"/><line x1="214.10" y1="336.20" x2="212.58" y2="331.81"/><line x1="210.42" y1="184.88" x2="218.40" y2="176.07"/><line x1="237.02" y1="332.89" x2="239.05" y2="332.62"/><line x1="214.10" y1="336.20" x2="215.60" y2="337.17"/><line x1="262.56" y1="203.26" x2="262.41" y2="202.75"/><line x1="273.41" y1="348.51" x2="277.90" y2="345.31"/><line x1="246.34" y1="330.47" x2="248.02" y2="329.65"/><line x1="262.32" y1="315.63" x2="262.58" y2="314.27"/><line x1="230.17" y1="204.49" x2="224.92" y2="176.67"/><line x1="213.94" y1="174.27" x2="213.08" y2="173.94"/><line x1="247.80" y1="353.50" x2="250.88" y2="354.89"/><line x1="223.48" y1="177.00" x2="220.94" y2="203.44"/><line x1="262.67" y1="271.68" x2="262.67" y2="254.07"/><line x1="212.21" y1="333.19" x2="212.35" y2="332.43"/><line x1="214.10" y1="336.20" x2="214.40" y2="330.71"/><line x1="291.23" y1="254.07" x2="305.25" y2="247.42"/><line x1="480.00" y1="479.91" x2="447.51" y2="479.91"/><line x1="291.23" y1="247.42" x2="291.23" y2="207.77"/><line x1="230.17" y1="204.49" x2="227.83" y2="204.96"/><line x1="234.91" y1="333.05" x2="237.02" y2="332.89"/><line x1="223.48" y1="177.00" x2="224.64" y2="205.49"/><line x1="262.64" y1="203.76" x2="262.56" y2="203.26"/><line x1="223.48" y1="177.00" x2="216.77" y2="197.19"/><line x1="221.41" y1="331.91" x2="223.24" y2="332.22"/><line x1="291.23" y1="271.68" x2="291.23" y2="254.07"/><line x1="294.02" y1="333.99" x2="262.32" y2="315.63"/><line x1="214.10" y1="336.20" x2="212.35" y2="332.43"/><line x1="253.12" y1="326.41" x2="254.85" y2="325.05"/><line x1="214.10" y1="336.20" x2="216.92" y2="331.10"/><line x1="291.23" y1="207.77" x2="291.17" y2="205.36"/><line x1="262.67" y1="308.58" x2="262.67" y2="278.33"/><line x1="273.41" y1="348.51" x2="256.61" y2="323.57"/><line x1="246.34" y1="330.47" x2="247.80" y2="353.50"/><line x1="212.46" y1="189.18" x2="211.43" y2="187.06"/><line x1="213.94" y1="174.27" x2="208.05" y2="179.61"/><line x1="247.80" y1="353.50" x2="248.02" y2="329.65"/><line x1="295.41" y1="332.48" x2="295.51" y2="332.19"/><line x1="236.36" y1="203.15" x2="233.02" y2="203.89"/><line x1="260.34" y1="199.88" x2="259.84" y2="199.56"/><line x1="223.48" y1="177.00" x2="221.78" y2="204.37"/><line x1="212.38" y1="334.65" x2="213.03" y2="335.35"/><line x1="221.58" y1="176.85" x2="220.56" y2="176.67"/><line x1="223.48" y1="177.00" x2="222.55" y2="176.97"/><line x1="214.66" y1="330.73" x2="215.17" y2="330.81"/><line x1="295.51" y1="332.19" x2="295.53" y2="331.92"/><line x1="234.71" y1="175.17" x2="256.36" y2="199.05"/><line x1="209.49" y1="182.83" x2="208.70" y2="181.08"/><line x1="212.21" y1="333.19" x2="214.10" y2="336.20"/><line x1="224.64" y1="205.49" x2="223.80" y2="205.56"/><line x1="215.17" y1="330.81" x2="215.92" y2="330.93"/><line x1="240.53" y1="349.80" x2="239.05" y2="332.62"/><line x1="214.10" y1="336.20" x2="213.81" y2="330.78"/><line x1="255.92" y1="356.74" x2="257.89" y2="357.20"/><line x1="291.23" y1="254.07" x2="262.67" y2="254.07"/><line x1="211.35" y1="173.38" x2="211.05" y2="173.34"/><line x1="257.89" y1="357.20" x2="259.49" y2="357.36"/><line x1="226.52" y1="176.41" x2="230.17" y2="204.49"/><line x1="294.84" y1="329.91" x2="294.54" y2="329.51"/><line x1="243.75" y1="173.94" x2="241.11" y2="174.27"/><line x1="219.67" y1="331.59" x2="221.41" y2="331.91"/><line x1="269.54" y1="351.21" x2="273.41" y2="348.51"/><line x1="294.54" y1="329.51" x2="294.18" y2="329.12"/><line x1="214.94" y1="174.68" x2="213.94" y2="174.27"/><line x1="223.48" y1="177.00" x2="225.98" y2="205.29"/><line x1="219.00" y1="200.79" x2="217.90" y2="199.07"/><line x1="223.48" y1="177.00" x2="217.90" y2="199.07"/><line x1="221.41" y1="331.91" x2="219.89" y2="339.52"/><line x1="260.81" y1="200.28" x2="260.34" y2="199.88"/><line x1="264.87" y1="182.39" x2="247.91" y2="173.49"/><line x1="234.71" y1="175.17" x2="247.47" y2="200.66"/><line x1="207.55" y1="178.44" x2="207.20" y2="177.57"/><line x1="240.53" y1="349.80" x2="229.85" y2="333.00"/><line x1="208.36" y1="174.16" x2="208.02" y2="174.47"/><line x1="253.12" y1="326.41" x2="273.41" y2="348.51"/><line x1="225.98" y1="205.29" x2="224.64" y2="205.49"/><line x1="256.36" y1="199.05" x2="254.84" y2="199.25"/><line x1="287.83" y1="338.29" x2="260.48" y2="319.53"/><line x1="292.27" y1="326.50" x2="292.03" y2="326.01"/><line x1="207.20" y1="177.57" x2="207.73" y2="174.78"/><line x1="212.46" y1="189.18" x2="221.58" y2="176.85"/><line x1="246.01" y1="173.68" x2="243.75" y2="173.94"/><line x1="236.36" y1="203.15" x2="228.69" y2="176.07"/><line x1="223.48" y1="177.00" x2="222.54" y2="205.03"/><line x1="212.38" y1="334.65" x2="212.17" y2="334.08"/><line x1="207.00" y1="176.06" x2="206.93" y2="176.39"/><line x1="264.87" y1="182.39" x2="260.34" y2="199.88"/><line x1="234.71" y1="175.17" x2="257.42" y2="198.98"/><line x1="264.87" y1="182.39" x2="238.10" y2="174.68"/><line x1="234.71" y1="175.17" x2="231.42" y2="175.65"/><line x1="209.49" y1="182.83" x2="216.07" y2="175.17"/><line x1="214.72" y1="254.07" x2="213.76" y2="247.42"/><line x1="240.53" y1="349.80" x2="237.02" y2="332.89"/><line x1="207.20" y1="177.57" x2="209.56" y2="173.55"/><line x1="223.88" y1="176.85" x2="223.40" y2="176.97"/><line x1="262.58" y1="314.27" x2="291.38" y2="323.12"/><line x1="269.54" y1="351.21" x2="253.12" y2="326.41"/><line x1="223.48" y1="177.00" x2="227.83" y2="204.96"/><line x1="213.08" y1="173.94" x2="212.36" y2="173.68"/><line x1="480.00" y1="64.50" x2="447.51" y2="32.02"/><line x1="250.88" y1="354.89" x2="253.59" y2="355.97"/><line x1="264.87" y1="182.39" x2="262.20" y2="202.25"/><line x1="262.67" y1="204.26" x2="264.87" y2="182.39"/><line x1="264.87" y1="182.39" x2="250.57" y2="173.34"/><line x1="234.71" y1="175.17" x2="250.39" y2="200.06"/><line x1="207.55" y1="178.44" x2="211.79" y2="173.49"/><line x1="240.53" y1="349.80" x2="228.31" y2="332.88"/><line x1="240.53" y1="349.80" x2="244.35" y2="351.81"/><line x1="216.92" y1="331.10" x2="218.18" y2="331.32"/><line x1="251.40" y1="327.62" x2="253.12" y2="326.41"/><line x1="287.83" y1="338.29" x2="259.51" y2="320.76"/><line x1="305.25" y1="247.42" x2="291.23" y2="247.42"/><line x1="289.78" y1="198.65" x2="289.13" y2="197.71"/><line x1="207.20" y1="177.57" x2="208.02" y2="174.47"/><line x1="262.58" y1="314.27" x2="295.09" y2="330.30"/><line x1="262.58" y1="314.27" x2="292.27" y2="326.50"/><line x1="262.58" y1="314.27" x2="291.23" y2="278.33"/><line x1="236.36" y1="203.15" x2="231.42" y2="175.65"/><line x1="239.05" y1="332.62" x2="240.99" y2="332.24"/><line x1="262.67" y1="204.26" x2="290.71" y2="201.42"/><line x1="264.87" y1="182.39" x2="260.81" y2="200.28"/><line x1="234.71" y1="175.17" x2="258.08" y2="199.02"/><line x1="264.87" y1="182.39" x2="241.11" y2="174.27"/><line x1="222.68" y1="340.90" x2="240.53" y2="349.80"/><line x1="209.49" y1="182.83" x2="217.26" y2="175.65"/><line x1="257.42" y1="198.98" x2="256.36" y2="199.05"/><line x1="240.53" y1="349.80" x2="234.91" y2="333.05"/><line x1="262.20" y1="202.25" x2="261.94" y2="201.75"/><line x1="251.40" y1="327.62" x2="260.25" y2="357.11"/><line x1="292.53" y1="326.98" x2="292.27" y2="326.50"/><line x1="212.58" y1="331.81" x2="212.90" y2="331.33"/><line x1="222.55" y1="176.97" x2="212.46" y2="189.18"/><line x1="287.83" y1="338.29" x2="294.02" y2="333.99"/><line x1="207.20" y1="177.57" x2="210.03" y2="173.43"/><line x1="211.43" y1="187.06" x2="210.42" y2="184.88"/><line x1="262.58" y1="314.27" x2="295.51" y2="332.19"/><line x1="223.88" y1="176.85" x2="223.48" y2="177.00"/><line x1="207.20" y1="177.57" x2="206.98" y2="176.99"/><line x1="262.58" y1="314.27" x2="293.80" y2="328.72"/><line x1="290.30" y1="199.89" x2="289.78" y2="198.65"/><line x1="262.58" y1="314.27" x2="291.49" y2="324.01"/><line x1="207.11" y1="175.74" x2="207.00" y2="176.06"/><line x1="213.08" y1="173.94" x2="207.55" y2="178.44"/><line x1="240.21" y1="202.27" x2="236.36" y2="203.15"/><line x1="264.87" y1="182.39" x2="262.41" y2="202.75"/><line x1="262.67" y1="204.26" x2="288.38" y2="197.06"/><line x1="264.87" y1="182.39" x2="249.42" y2="173.38"/><line x1="291.30" y1="322.12" x2="291.25" y2="321.01"/><line x1="291.23" y1="278.33" x2="262.67" y2="278.33"/><line x1="295.51" y1="331.51" x2="295.42" y2="331.10"/><line x1="218.40" y1="176.07" x2="209.49" y2="182.83"/><line x1="223.21" y1="205.43" x2="222.54" y2="205.03"/><line x1="244.35" y1="351.81" x2="247.80" y2="353.50"/><line x1="251.40" y1="327.62" x2="269.54" y2="351.21"/><line x1="262.41" y1="202.75" x2="262.20" y2="202.25"/><line x1="305.25" y1="247.42" x2="306.20" y2="254.07"/><line x1="262.58" y1="314.27" x2="294.43" y2="333.67"/><line x1="208.70" y1="181.08" x2="208.05" y2="179.61"/><line x1="32.16" y1="32.09" x2="32.16" y2="64.58"/><line x1="207.20" y1="177.57" x2="208.36" y2="174.16"/><line x1="262.58" y1="314.27" x2="295.29" y2="330.70"/><line x1="210.53" y1="173.36" x2="210.03" y2="173.43"/><line x1="262.58" y1="314.27" x2="292.53" y2="326.98"/><line x1="224.92" y1="176.67" x2="223.88" y2="176.85"/><line x1="262.58" y1="314.27" x2="291.23" y2="319.80"/><line x1="238.10" y1="174.68" x2="234.71" y2="175.17"/><line x1="305.25" y1="271.68" x2="306.20" y2="278.33"/><line x1="223.24" y1="332.22" x2="225.00" y2="332.49"/><line x1="208.05" y1="179.61" x2="213.08" y2="173.94"/><line x1="262.67" y1="204.26" x2="290.99" y2="203.24"/><line x1="248.02" y1="329.65" x2="250.88" y2="354.89"/><line x1="259.84" y1="199.56" x2="259.29" y2="199.31"/><line x1="251.40" y1="327.62" x2="259.49" y2="357.36"/><line x1="211.43" y1="187.06" x2="219.50" y2="176.41"/><line x1="262.58" y1="314.27" x2="295.41" y2="332.48"/><line x1="262.58" y1="314.27" x2="294.18" y2="329.12"/><line x1="262.67" y1="247.42" x2="262.67" y2="204.26"/><line x1="262.58" y1="314.27" x2="291.64" y2="324.79"/><line x1="215.92" y1="330.93" x2="216.92" y2="331.10"/><line x1="219.89" y1="339.52" x2="222.68" y2="340.90"/><line x1="262.67" y1="204.26" x2="289.13" y2="197.71"/><line x1="228.69" y1="176.07" x2="226.52" y2="176.41"/><line x1="291.23" y1="278.33" x2="262.67" y2="308.58"/><line x1="212.35" y1="332.43" x2="212.58" y2="331.81"/><line x1="216.07" y1="175.17" x2="214.94" y2="174.68"/><line x1="244.35" y1="351.81" x2="246.34" y2="330.47"/><line x1="32.00" y1="479.98" x2="64.49" y2="479.98"/><line x1="206.98" y1="176.99" x2="206.91" y2="176.71"/><line x1="262.58" y1="314.27" x2="295.42" y2="331.10"/><line x1="262.67" y1="271.68" x2="291.23" y2="254.07"/><line x1="295.53" y1="331.92" x2="295.51" y2="331.51"/><line x1="207.73" y1="174.78" x2="207.48" y2="175.10"/><line x1="223.80" y1="205.56" x2="223.21" y2="205.43"/><line x1="291.23" y1="278.33" x2="291.23" y2="271.68"/><line x1="211.79" y1="173.49" x2="211.35" y2="173.38"/><line x1="262.67" y1="278.33" x2="217.91" y2="278.33"/><line x1="211.05" y1="173.34" x2="210.53" y2="173.36"/><line x1="259.49" y1="357.36" x2="260.25" y2="357.11"/><line x1="211.43" y1="187.06" x2="220.56" y2="176.67"/><line x1="262.58" y1="314.27" x2="295.26" y2="332.76"/><line x1="241.11" y1="174.27" x2="238.10" y2="174.68"/><line x1="262.67" y1="247.42" x2="291.23" y2="207.77"/><line x1="294.18" y1="329.12" x2="293.80" y2="328.72"/><line x1="217.90" y1="199.07" x2="216.77" y2="197.19"/><line x1="219.89" y1="339.52" x2="223.24" y2="332.22"/><line x1="214.10" y1="336.20" x2="215.92" y2="330.93"/><line x1="228.69" y1="176.07" x2="233.02" y2="203.89"/><line x1="291.23" y1="207.77" x2="262.67" y2="204.26"/><line x1="208.02" y1="174.47" x2="207.73" y2="174.78"/><line x1="273.41" y1="348.51" x2="254.85" y2="325.05"/><line x1="216.07" y1="175.17" x2="208.70" y2="181.08"/><line x1="262.67" y1="254.07" x2="214.72" y2="254.07"/><line x1="254.84" y1="199.25" x2="252.85" y2="199.59"/><line x1="32.00" y1="479.98" x2="32.00" y2="447.50"/><line x1="261.62" y1="201.25" x2="261.24" y2="200.74"/><line x1="292.03" y1="326.01" x2="291.81" y2="325.46"/><line x1="206.98" y1="176.99" x2="206.93" y2="176.39"/><line x1="221.58" y1="176.85" x2="211.43" y2="187.06"/><line x1="262.67" y1="271.68" x2="216.95" y2="271.68"/><line x1="229.85" y1="333.00" x2="231.32" y2="333.08"/><line x1="223.48" y1="177.00" x2="213.51" y2="191.26"/><line x1="289.13" y1="197.71" x2="288.38" y2="197.06"/><line x1="253.59" y1="355.97" x2="255.92" y2="356.74"/><line x1="212.21" y1="333.19" x2="213.03" y2="335.35"/><line x1="206.93" y1="176.39" x2="206.91" y2="176.71"/><line x1="260.48" y1="319.53" x2="261.27" y2="318.27"/><line x1="214.10" y1="336.20" x2="213.30" y2="330.99"/><line x1="231.42" y1="175.65" x2="228.69" y2="176.07"/><line x1="242.86" y1="331.76" x2="244.65" y2="331.17"/><line x1="218.18" y1="331.32" x2="219.67" y2="331.59"/><line x1="262.67" y1="278.33" x2="262.67" y2="271.68"/><line x1="217.26" y1="175.65" x2="216.07" y2="175.17"/><line x1="230.17" y1="204.49" x2="223.48" y2="177.00"/><line x1="223.48" y1="177.00" x2="219.00" y2="200.79"/><line x1="249.70" y1="328.70" x2="251.40" y2="327.62"/><line x1="214.10" y1="336.20" x2="215.17" y2="330.81"/><line x1="249.42" y1="173.38" x2="247.91" y2="173.49"/><line x1="291.23" y1="254.07" x2="291.23" y2="247.42"/><line x1="228.31" y1="332.88" x2="229.85" y2="333.00"/><line x1="277.90" y1="345.31" x2="287.83" y2="338.29"/><line x1="215.60" y1="337.17" x2="217.53" y2="338.28"/><line x1="259.51" y1="320.76" x2="260.48" y2="319.53"/><line x1="223.48" y1="177.00" x2="223.21" y2="205.43"/><line x1="212.38" y1="334.65" x2="212.21" y2="333.19"/><line x1="223.48" y1="177.00" x2="214.58" y2="193.28"/><line x1="291.25" y1="321.01" x2="291.23" y2="319.80"/><line x1="294.02" y1="333.99" x2="294.43" y2="333.67"/><line x1="234.71" y1="175.17" x2="236.36" y2="203.15"/><line x1="212.21" y1="333.19" x2="212.17" y2="334.08"/><line x1="240.99" y1="332.24" x2="242.86" y2="331.76"/><line x1="214.10" y1="336.20" x2="212.90" y2="331.33"/><line x1="291.23" y1="319.80" x2="291.23" y2="278.33"/><line x1="242.86" y1="331.76" x2="244.35" y2="351.81"/><line x1="294.43" y1="333.67" x2="294.76" y2="333.36"/><line x1="261.94" y1="201.75" x2="261.62" y2="201.25"/><line x1="212.90" y1="331.33" x2="213.30" y2="330.99"/><line x1="294.76" y1="333.36" x2="295.04" y2="333.06"/><line x1="223.48" y1="177.00" x2="223.40" y2="176.97"/><line x1="207.27" y1="175.42" x2="207.11" y2="175.74"/><line x1="213.30" y1="330.99" x2="213.81" y2="330.78"/><line x1="223.48" y1="177.00" x2="220.01" y2="202.25"/><line x1="250.88" y1="354.89" x2="249.70" y2="328.70"/><line x1="291.23" y1="271.68" x2="262.67" y2="271.68"/><line x1="234.71" y1="175.17" x2="252.85" y2="199.59"/><line x1="207.55" y1="178.44" x2="212.36" y2="173.68"/><line x1="249.70" y1="328.70" x2="253.59" y2="355.97"/><line x1="240.53" y1="349.80" x2="242.86" y2="331.76"/><line x1="214.10" y1="336.20" x2="214.66" y2="330.73"/><line x1="249.42" y1="173.38" x2="250.57" y2="173.34"/><line x1="219.50" y1="176.41" x2="218.40" y2="176.07"/><line x1="216.92" y1="331.10" x2="215.60" y2="337.17"/><line x1="295.42" y1="331.10" x2="295.29" y2="330.70"/><line x1="222.54" y1="205.03" x2="221.78" y2="204.37"/><line x1="215.60" y1="337.17" x2="218.18" y2="331.32"/><line x1="223.48" y1="177.00" x2="223.80" y2="205.56"/><line x1="210.03" y1="173.43" x2="209.56" y2="173.55"/><line x1="261.64" y1="356.37" x2="263.65" y2="355.14"/><line x1="223.48" y1="177.00" x2="215.67" y2="195.26"/><line x1="264.87" y1="182.39" x2="261.24" y2="200.74"/><line x1="234.71" y1="175.17" x2="258.70" y2="199.13"/><line x1="294.02" y1="333.99" x2="262.58" y2="314.27"/><line x1="64.64" y1="32.09" x2="32.16" y2="64.58"/><line x1="264.87" y1="182.39" x2="243.75" y2="173.94"/><line x1="234.71" y1="175.17" x2="240.21" y2="202.27"/><line x1="222.68" y1="340.90" x2="226.69" y2="332.71"/><line x1="209.56" y1="173.55" x2="209.12" y2="173.71"/><line x1="293.45" y1="328.31" x2="293.12" y2="327.88"/><line x1="240.53" y1="349.80" x2="232.72" y2="333.10"/><line x1="215.67" y1="195.26" x2="214.58" y2="193.28"/><line x1="256.61" y1="323.57" x2="258.37" y2="321.96"/><line x1="291.17" y1="205.36" x2="290.99" y2="203.24"/><line x1="287.83" y1="338.29" x2="261.88" y2="316.97"/><line x1="207.20" y1="177.57" x2="210.53" y2="173.36"/><line x1="214.58" y1="193.28" x2="213.51" y2="191.26"/><line x1="207.20" y1="177.57" x2="207.27" y2="175.42"/><line x1="207.48" y1="175.10" x2="207.27" y2="175.42"/><line x1="207.27" y1="175.42" x2="206.98" y2="176.99"/><line x1="264.87" y1="182.39" x2="262.56" y2="203.26"/><line x1="264.87" y1="182.39" x2="259.29" y2="199.31"/><line x1="234.71" y1="175.17" x2="254.84" y2="199.25"/><line x1="259.29" y1="199.31" x2="258.70" y2="199.13"/><line x1="261.88" y1="316.97" x2="262.32" y2="315.63"/><line x1="240.53" y1="349.80" x2="240.99" y2="332.24"/><line x1="233.02" y1="203.89" x2="230.17" y2="204.49"/><line x1="219.50" y1="176.41" x2="210.42" y2="184.88"/><line x1="251.40" y1="327.62" x2="266.28" y2="353.42"/><line x1="260.25" y1="357.11" x2="261.64" y2="356.37"/><line x1="226.52" y1="176.41" x2="224.92" y2="176.67"/><line x1="208.70" y1="181.08" x2="213.94" y2="174.27"/><line x1="32.16" y1="32.09" x2="64.64" y2="32.09"/><line x1="207.20" y1="177.57" x2="208.73" y2="173.91"/><line x1="262.58" y1="314.27" x2="292.81" y2="327.44"/><line x1="293.80" y1="328.72" x2="293.45" y2="328.31"/><line x1="262.58" y1="314.27" x2="291.25" y2="321.01"/><line x1="216.77" y1="197.19" x2="215.67" y2="195.26"/><line x1="223.24" y1="332.22" x2="222.68" y2="340.90"/><line x1="262.67" y1="204.26" x2="291.17" y2="205.36"/><line x1="264.87" y1="182.39" x2="261.62" y2="201.25"/><line x1="264.87" y1="182.39" x2="246.01" y2="173.68"/><line x1="234.71" y1="175.17" x2="244.07" y2="201.40"/><line x1="222.68" y1="340.90" x2="225.00" y2="332.49"/><line x1="254.85" y1="325.05" x2="256.61" y2="323.57"/><line x1="240.53" y1="349.80" x2="231.32" y2="333.08"/><line x1="252.85" y1="199.59" x2="250.39" y2="200.06"/><line x1="32.00" y1="447.50" x2="64.49" y2="479.98"/></g></svg>