<svg xmlns="http://www.w3.org/2000/svg" width="512" height="512"><rect width="512" height="512" fill="#0a0f1a"/><text x="12" y="20" font-family="monospace" font-size="11" fill="#4a7fa5">FRONT (XZ)</text><g stroke="#00d4ff" stroke-width="0.6" opacity="0.85"><line x1="422.71" y1="254.99" x2="424.98" y2="245.21"/><line x1="175.51" y1="261.59" x2="184.32" y2="254.80"/><line x1="360.07" y1="236.93" x2="330.49" y2="231.62"/><line x1="374.63" y1="244.62" x2="375.88" y2="245.07"/><line x1="428.24" y1="254.70" x2="429.31" y2="247.08"/><line x1="360.07" y1="236.93" x2="346.74" y2="260.26"/><line x1="424.03" y1="254.80" x2="425.90" y2="254.70"/><line x1="88.64" y1="230.99" x2="89.82" y2="231.81"/><line x1="184.92" y1="256.06" x2="185.25" y2="256.79"/><line x1="257.59" y1="217.71" x2="276.06" y2="203.75"/><line x1="291.16" y1="260.33" x2="263.18" y2="248.11"/><line x1="311.95" y1="262.93" x2="312.92" y2="265.47"/><line x1="287.10" y1="253.26" x2="311.57" y2="224.52"/><line x1="471.07" y1="255.00" x2="469.71" y2="253.48"/><line x1="336.62" y1="277.67" x2="342.94" y2="274.86"/><line x1="433.90" y1="254.89" x2="437.03" y2="242.89"/><line x1="381.67" y1="259.98" x2="388.92" y2="262.07"/><line x1="181.57" y1="236.62" x2="183.26" y2="236.78"/><line x1="247.09" y1="202.31" x2="249.34" y2="205.98"/><line x1="212.37" y1="244.82" x2="214.31" y2="244.80"/><line x1="89.82" y1="231.81" x2="93.98" y2="228.62"/><line x1="180.02" y1="262.57" x2="185.63" y2="257.59"/><line x1="161.63" y1="258.77" x2="162.97" y2="246.96"/><line x1="290.35" y1="258.48" x2="321.52" y2="230.10"/><line x1="259.19" y1="271.91" x2="260.49" y2="273.00"/><line x1="295.64" y1="297.37" x2="322.37" y2="278.28"/><line x1="327.88" y1="270.88" x2="325.76" y2="269.12"/><line x1="240.56" y1="243.00" x2="240.73" y2="243.82"/><line x1="136.12" y1="254.93" x2="134.69" y2="239.83"/><line x1="90.86" y1="247.91" x2="89.09" y2="234.94"/><line x1="437.03" y1="242.89" x2="430.94" y2="254.76"/><line x1="382.17" y1="245.67" x2="383.95" y2="245.25"/><line x1="433.03" y1="245.98" x2="432.91" y2="245.32"/><line x1="203.72" y1="244.97" x2="199.99" y2="257.95"/><line x1="424.46" y1="259.54" x2="423.75" y2="257.72"/><line x1="208.56" y1="260.43" x2="210.36" y2="244.83"/><line x1="162.97" y1="246.96" x2="166.28" y2="259.67"/><line x1="257.50" y1="256.17" x2="253.20" y2="269.35"/><line x1="79.78" y1="246.74" x2="75.59" y2="233.78"/><line x1="214.94" y1="263.37" x2="217.95" y2="264.94"/><line x1="340.50" y1="264.11" x2="340.52" y2="262.02"/><line x1="345.21" y1="281.64" x2="336.62" y2="277.67"/><line x1="464.45" y1="255.64" x2="464.06" y2="253.09"/><line x1="332.02" y1="296.99" x2="331.12" y2="295.97"/><line x1="191.41" y1="254.23" x2="192.85" y2="254.88"/><line x1="432.91" y1="245.32" x2="432.79" y2="244.65"/><line x1="139.87" y1="255.31" x2="143.89" y2="255.81"/><line x1="96.59" y1="235.39" x2="100.98" y2="230.60"/><line x1="405.96" y1="238.54" x2="407.33" y2="238.47"/><line x1="269.29" y1="232.58" x2="289.67" y2="214.72"/><line x1="238.20" y1="248.33" x2="233.67" y2="270.93"/><line x1="435.01" y1="241.78" x2="432.42" y2="242.64"/><line x1="315.56" y1="269.89" x2="317.13" y2="271.92"/><line x1="44.17" y1="236.44" x2="48.15" y2="240.45"/><line x1="205.08" y1="259.19" x2="207.59" y2="245.32"/><line x1="330.75" y1="321.25" x2="329.65" y2="320.29"/><line x1="464.06" y1="253.09" x2="462.28" y2="255.79"/><line x1="360.07" y1="236.93" x2="343.67" y2="260.15"/><line x1="423.75" y1="257.72" x2="421.56" y2="263.78"/><line x1="331.12" y1="295.97" x2="330.24" y2="294.80"/><line x1="187.25" y1="253.00" x2="189.37" y2="236.84"/><line x1="360.07" y1="236.93" x2="327.92" y2="229.43"/><line x1="460.11" y1="255.91" x2="457.97" y2="255.99"/><line x1="222.11" y1="245.10" x2="224.26" y2="245.35"/><line x1="100.98" y1="230.60" x2="102.52" y2="249.06"/><line x1="359.66" y1="259.39" x2="365.04" y2="239.35"/><line x1="360.07" y1="236.93" x2="359.66" y2="259.39"/><line x1="233.67" y1="270.93" x2="237.37" y2="271.26"/><line x1="291.16" y1="260.33" x2="272.97" y2="259.78"/><line x1="85.26" y1="247.35" x2="87.44" y2="234.74"/><line x1="268.92" y1="279.81" x2="278.46" y2="272.86"/><line x1="342.11" y1="330.35" x2="343.32" y2="330.55"/><line x1="421.56" y1="263.78" x2="422.18" y2="255.76"/><line x1="373.42" y1="244.09" x2="372.67" y2="258.64"/><line x1="433.35" y1="240.80" x2="432.15" y2="241.39"/><line x1="189.37" y1="236.84" x2="188.60" y2="253.25"/><line x1="254.63" y1="253.70" x2="257.50" y2="256.17"/><line x1="207.59" y1="245.32" x2="208.56" y2="260.43"/><line x1="401.60" y1="264.69" x2="402.72" y2="238.69"/><line x1="166.89" y1="244.68" x2="167.06" y2="243.66"/><line x1="325.91" y1="283.53" x2="327.55" y2="286.70"/><line x1="278.46" y1="272.86" x2="310.87" y2="253.02"/><line x1="317.74" y1="261.64" x2="315.91" y2="259.61"/><line x1="342.35" y1="273.19" x2="334.41" y2="275.99"/><line x1="327.00" y1="288.50" x2="326.69" y2="287.51"/><line x1="329.09" y1="233.56" x2="327.96" y2="233.26"/><line x1="432.15" y1="241.39" x2="432.00" y2="240.81"/><line x1="343.62" y1="324.91" x2="343.56" y2="321.95"/><line x1="372.67" y1="258.64" x2="374.63" y2="244.62"/><line x1="208.56" y1="260.43" x2="208.32" y2="245.22"/><line x1="413.17" y1="238.89" x2="414.43" y2="239.28"/><line x1="241.87" y1="249.10" x2="241.79" y2="248.62"/><line x1="308.51" y1="223.12" x2="287.10" y2="253.26"/><line x1="60.04" y1="238.78" x2="63.86" y2="244.37"/><line x1="332.78" y1="233.87" x2="334.14" y2="233.76"/><line x1="79.78" y1="246.74" x2="82.64" y2="234.13"/><line x1="334.41" y1="275.99" x2="341.80" y2="271.50"/><line x1="457.45" y1="252.11" x2="455.85" y2="256.02"/><line x1="365.04" y1="239.35" x2="366.25" y2="240.06"/><line x1="329.81" y1="231.11" x2="329.16" y2="230.58"/><line x1="326.69" y1="287.51" x2="326.51" y2="286.72"/><line x1="192.88" y1="237.85" x2="193.47" y2="238.40"/><line x1="414.43" y1="239.28" x2="415.81" y2="239.81"/><line x1="117.74" y1="235.36" x2="120.73" y2="235.93"/><line x1="278.55" y1="243.58" x2="280.05" y2="245.18"/><line x1="435.01" y1="241.78" x2="433.03" y2="245.98"/><line x1="277.58" y1="285.86" x2="311.95" y2="262.93"/><line x1="240.42" y1="242.26" x2="240.56" y2="243.00"/><line x1="343.56" y1="321.95" x2="336.30" y2="326.66"/><line x1="241.79" y1="248.62" x2="246.03" y2="246.11"/><line x1="343.54" y1="327.79" x2="343.62" y2="324.91"/><line x1="422.71" y1="254.99" x2="424.00" y2="244.58"/><line x1="329.16" y1="230.58" x2="328.52" y2="230.02"/><line x1="360.07" y1="236.93" x2="331.18" y2="232.10"/><line x1="80.78" y1="226.45" x2="81.56" y2="227.22"/><line x1="193.47" y1="238.40" x2="194.15" y2="239.01"/><line x1="380.25" y1="245.82" x2="381.67" y2="259.98"/><line x1="210.36" y1="244.83" x2="212.37" y2="244.82"/><line x1="360.07" y1="236.93" x2="325.69" y2="226.86"/><line x1="402.72" y1="238.69" x2="404.44" y2="238.62"/><line x1="257.59" y1="217.71" x2="273.33" y2="201.42"/><line x1="184.92" y1="256.06" x2="180.02" y2="262.57"/><line x1="291.16" y1="260.33" x2="326.86" y2="232.88"/><line x1="291.16" y1="260.33" x2="265.05" y2="250.45"/><line x1="72.03" y1="235.97" x2="73.54" y2="233.86"/><line x1="311.95" y1="262.93" x2="280.53" y2="287.78"/><line x1="340.65" y1="266.09" x2="327.88" y2="270.88"/><line x1="451.44" y1="249.92" x2="449.22" y2="248.92"/><line x1="336.30" y1="326.66" x2="335.18" y2="325.60"/><line x1="298.74" y1="299.40" x2="330.24" y2="294.80"/><line x1="298.74" y1="299.40" x2="295.64" y2="297.37"/><line x1="197.48" y1="241.66" x2="198.36" y2="242.26"/><line x1="241.89" y1="249.40" x2="248.89" y2="248.67"/><line x1="381.67" y1="259.98" x2="382.17" y2="245.67"/><line x1="141.77" y1="242.38" x2="145.32" y2="243.60"/><line x1="212.37" y1="244.82" x2="211.82" y2="261.84"/><line x1="247.09" y1="202.31" x2="259.54" y2="191.79"/><line x1="251.21" y1="269.54" x2="257.50" y2="256.17"/><line x1="290.35" y1="258.48" x2="320.43" y2="229.44"/><line x1="327.88" y1="270.88" x2="340.50" y2="264.11"/><line x1="167.48" y1="235.18" x2="167.51" y2="236.27"/><line x1="326.49" y1="286.20" x2="326.65" y2="285.99"/><line x1="240.51" y1="183.79" x2="241.14" y2="184.18"/><line x1="257.50" y1="256.17" x2="252.24" y2="269.41"/><line x1="240.28" y1="241.17" x2="240.32" y2="241.65"/><line x1="289.51" y1="293.47" x2="315.56" y2="269.89"/><line x1="475.79" y1="253.74" x2="473.72" y2="253.66"/><line x1="79.78" y1="246.74" x2="73.54" y2="233.86"/><line x1="422.07" y1="243.25" x2="421.11" y2="242.59"/><line x1="241.51" y1="247.26" x2="241.67" y2="248.00"/><line x1="346.74" y1="260.26" x2="349.88" y2="260.20"/><line x1="191.41" y1="254.23" x2="198.36" y2="242.26"/><line x1="263.33" y1="261.04" x2="256.96" y2="270.37"/><line x1="269.29" y1="232.58" x2="286.48" y2="212.39"/><line x1="435.01" y1="241.78" x2="432.55" y2="243.30"/><line x1="82.64" y1="234.13" x2="84.24" y2="234.32"/><line x1="315.56" y1="269.89" x2="292.56" y2="295.40"/><line x1="440.23" y1="255.24" x2="437.03" y2="255.05"/><line x1="330.75" y1="321.25" x2="342.36" y2="313.02"/><line x1="201.34" y1="244.01" x2="202.56" y2="244.58"/><line x1="86.51" y1="229.50" x2="87.56" y2="230.22"/><line x1="388.94" y1="242.93" x2="390.61" y2="241.99"/><line x1="360.07" y1="236.93" x2="328.52" y2="230.02"/><line x1="152.50" y1="257.13" x2="157.03" y2="257.91"/><line x1="222.11" y1="245.10" x2="217.95" y2="264.94"/><line x1="240.99" y1="190.68" x2="242.97" y2="194.76"/><line x1="291.16" y1="260.33" x2="274.70" y2="262.20"/><line x1="325.78" y1="232.43" x2="326.86" y2="232.88"/><line x1="85.26" y1="247.35" x2="85.83" y2="234.53"/><line x1="291.16" y1="260.33" x2="258.95" y2="240.75"/><line x1="415.71" y1="265.25" x2="420.12" y2="241.97"/><line x1="298.74" y1="299.40" x2="337.93" y2="302.48"/><line x1="319.67" y1="263.59" x2="317.74" y2="261.64"/><line x1="457.97" y1="255.99" x2="457.45" y2="252.11"/><line x1="298.74" y1="299.40" x2="327.45" y2="289.65"/><line x1="195.75" y1="256.28" x2="197.20" y2="256.94"/><line x1="254.63" y1="253.70" x2="251.21" y2="269.54"/><line x1="223.93" y1="267.92" x2="227.01" y2="269.19"/><line x1="155.95" y1="246.40" x2="159.47" y2="246.85"/><line x1="114.59" y1="234.61" x2="117.74" y2="235.36"/><line x1="243.77" y1="185.51" x2="244.35" y2="185.73"/><line x1="34.28" y1="234.39" x2="37.15" y2="234.94"/><line x1="255.98" y1="269.89" x2="256.96" y2="270.37"/><line x1="325.91" y1="283.53" x2="327.00" y2="286.14"/><line x1="468.86" y1="255.23" x2="466.65" y2="255.45"/><line x1="337.44" y1="327.66" x2="343.56" y2="321.95"/><line x1="363.83" y1="238.68" x2="365.04" y2="239.35"/><line x1="453.75" y1="256.00" x2="451.68" y2="255.93"/><line x1="231.83" y1="246.72" x2="234.86" y2="247.45"/><line x1="277.08" y1="241.97" x2="278.55" y2="243.58"/><line x1="184.62" y1="255.39" x2="184.92" y2="256.06"/><line x1="201.32" y1="258.22" x2="205.08" y2="259.19"/><line x1="92.68" y1="233.55" x2="94.48" y2="234.46"/><line x1="79.85" y1="226.84" x2="80.78" y2="226.45"/><line x1="253.62" y1="189.16" x2="256.77" y2="190.49"/><line x1="166.45" y1="246.69" x2="175.51" y2="261.59"/><line x1="263.27" y1="275.38" x2="266.08" y2="277.65"/><line x1="435.01" y1="241.78" x2="433.16" y2="246.62"/><line x1="92.60" y1="235.26" x2="94.52" y2="235.35"/><line x1="74.41" y1="246.07" x2="72.03" y2="235.97"/><line x1="451.68" y1="255.93" x2="451.44" y2="249.92"/><line x1="343.54" y1="327.79" x2="339.74" y2="329.32"/><line x1="240.99" y1="190.68" x2="243.24" y2="185.28"/><line x1="204.80" y1="245.22" x2="205.82" y2="245.35"/><line x1="360.07" y1="236.93" x2="331.89" y2="232.56"/><line x1="80.78" y1="226.45" x2="77.83" y2="226.54"/><line x1="260.40" y1="258.62" x2="263.33" y2="261.04"/><line x1="238.98" y1="186.28" x2="241.71" y2="184.51"/><line x1="138.23" y1="241.10" x2="141.77" y2="242.38"/><line x1="283.01" y1="248.37" x2="284.44" y2="249.98"/><line x1="291.16" y1="260.33" x2="325.78" y2="232.43"/><line x1="269.07" y1="255.08" x2="267.04" y2="252.76"/><line x1="72.03" y1="235.97" x2="79.78" y2="246.74"/><line x1="422.06" y1="255.31" x2="423.03" y2="243.92"/><line x1="451.44" y1="249.92" x2="449.21" y2="255.80"/><line x1="415.71" y1="265.25" x2="417.36" y2="240.51"/><line x1="298.74" y1="299.40" x2="331.12" y2="295.97"/><line x1="371.01" y1="242.87" x2="372.21" y2="243.50"/><line x1="298.74" y1="299.40" x2="326.49" y2="286.20"/><line x1="197.48" y1="241.66" x2="191.41" y2="254.23"/><line x1="241.89" y1="249.40" x2="245.79" y2="270.49"/><line x1="274.23" y1="238.68" x2="275.63" y2="240.34"/><line x1="433.35" y1="240.80" x2="432.14" y2="239.99"/><line x1="430.94" y1="254.76" x2="428.24" y2="254.70"/><line x1="141.77" y1="242.38" x2="139.87" y2="255.31"/><line x1="184.38" y1="263.55" x2="187.43" y2="260.44"/><line x1="52.11" y1="237.93" x2="56.13" y2="238.48"/><line x1="303.47" y1="221.20" x2="305.84" y2="222.05"/><line x1="331.86" y1="322.29" x2="330.75" y2="321.25"/><line x1="191.91" y1="236.80" x2="192.08" y2="237.02"/><line x1="420.12" y1="241.97" x2="419.12" y2="241.39"/><line x1="107.92" y1="232.71" x2="111.31" y2="233.71"/><line x1="87.17" y1="227.12" x2="85.44" y2="228.83"/><line x1="326.49" y1="286.20" x2="325.91" y2="283.53"/><line x1="220.07" y1="244.94" x2="222.11" y2="245.10"/><line x1="310.88" y1="256.78" x2="311.25" y2="260.06"/><line x1="187.43" y1="260.44" x2="188.36" y2="261.56"/><line x1="240.28" y1="241.17" x2="240.30" y2="240.88"/><line x1="339.74" y1="329.32" x2="338.58" y2="328.55"/><line x1="475.79" y1="253.74" x2="475.53" y2="254.47"/><line x1="422.07" y1="243.25" x2="423.03" y2="243.92"/><line x1="444.29" y1="246.59" x2="440.23" y2="255.24"/><line x1="321.64" y1="265.49" x2="319.67" y2="263.59"/><line x1="375.88" y1="245.07" x2="378.17" y2="245.64"/><line x1="173.56" y1="234.83" x2="175.27" y2="235.32"/><line x1="85.44" y1="228.83" x2="86.51" y2="229.50"/><line x1="266.46" y1="195.95" x2="268.62" y2="197.57"/><line x1="152.41" y1="245.67" x2="152.50" y2="257.13"/><line x1="271.78" y1="281.89" x2="274.67" y2="283.90"/><line x1="263.33" y1="261.04" x2="255.98" y2="269.89"/><line x1="341.32" y1="269.76" x2="340.93" y2="267.96"/><line x1="469.71" y1="253.48" x2="467.78" y2="253.37"/><line x1="82.64" y1="234.13" x2="85.26" y2="247.35"/><line x1="424.98" y1="245.21" x2="425.99" y2="245.80"/><line x1="440.23" y1="255.24" x2="441.75" y2="245.34"/><line x1="375.78" y1="258.83" x2="378.78" y2="259.26"/><line x1="362.60" y1="238.04" x2="363.83" y2="238.68"/><line x1="429.31" y1="247.08" x2="430.55" y2="247.28"/><line x1="238.98" y1="186.28" x2="236.89" y2="181.45"/><line x1="201.34" y1="244.01" x2="195.75" y2="256.28"/><line x1="240.99" y1="190.68" x2="245.75" y2="186.23"/><line x1="247.40" y1="270.23" x2="248.82" y2="269.98"/><line x1="415.71" y1="265.25" x2="411.69" y2="265.47"/><line x1="152.50" y1="257.13" x2="155.95" y2="246.40"/><line x1="315.13" y1="226.36" x2="319.30" y2="228.75"/><line x1="37.48" y1="236.53" x2="34.28" y2="234.39"/><line x1="343.33" y1="318.96" x2="342.94" y2="315.97"/><line x1="324.16" y1="280.75" x2="325.91" y2="283.53"/><line x1="332.22" y1="274.30" x2="330.04" y2="272.60"/><line x1="395.56" y1="263.63" x2="401.60" y2="264.69"/><line x1="298.74" y1="299.40" x2="339.38" y2="304.85"/><line x1="430.55" y1="247.28" x2="431.87" y2="247.33"/><line x1="298.74" y1="299.40" x2="328.01" y2="290.90"/><line x1="188.60" y1="253.25" x2="193.47" y2="238.40"/><line x1="93.98" y1="228.62" x2="91.15" y2="232.66"/><line x1="238.01" y1="182.18" x2="238.96" y2="182.80"/><line x1="254.63" y1="253.70" x2="250.08" y2="269.74"/><line x1="223.93" y1="267.92" x2="231.83" y2="246.72"/><line x1="276.06" y1="203.75" x2="279.17" y2="206.39"/><line x1="312.92" y1="265.47" x2="286.49" y2="291.57"/><line x1="34.28" y1="234.39" x2="32.00" y2="234.07"/><line x1="430.94" y1="254.76" x2="433.29" y2="247.22"/><line x1="325.91" y1="283.53" x2="326.65" y2="285.99"/><line x1="468.86" y1="255.23" x2="467.78" y2="253.37"/><line x1="171.71" y1="234.28" x2="184.73" y2="253.22"/><line x1="331.49" y1="233.87" x2="332.78" y2="233.87"/><line x1="388.92" y1="262.07" x2="385.65" y2="244.62"/><line x1="83.91" y1="226.66" x2="87.17" y2="227.12"/><line x1="400.76" y1="238.72" x2="402.72" y2="238.69"/><line x1="91.15" y1="232.66" x2="92.68" y2="233.55"/><line x1="261.02" y1="222.19" x2="264.91" y2="227.11"/><line x1="231.83" y1="246.72" x2="227.01" y2="269.19"/><line x1="269.26" y1="265.82" x2="263.27" y2="275.38"/><line x1="271.07" y1="257.41" x2="269.07" y2="255.08"/><line x1="462.28" y1="255.79" x2="460.11" y2="255.91"/><line x1="90.80" y1="235.12" x2="92.60" y2="235.26"/><line x1="425.90" y1="254.70" x2="428.24" y2="254.70"/><line x1="216.21" y1="244.81" x2="218.12" y2="244.85"/><line x1="201.32" y1="258.22" x2="204.80" y2="245.22"/><line x1="253.62" y1="189.16" x2="247.09" y2="202.31"/><line x1="166.45" y1="246.69" x2="170.92" y2="260.62"/><line x1="322.60" y1="230.75" x2="323.66" y2="231.36"/><line x1="263.27" y1="275.38" x2="272.28" y2="268.19"/><line x1="340.52" y1="262.02" x2="340.72" y2="259.80"/><line x1="462.30" y1="252.90" x2="460.61" y2="252.68"/><line x1="428.15" y1="246.75" x2="429.31" y2="247.08"/><line x1="330.24" y1="294.80" x2="329.42" y2="293.53"/><line x1="369.82" y1="242.19" x2="371.01" y2="242.87"/><line x1="432.67" y1="243.97" x2="432.55" y2="243.30"/><line x1="240.99" y1="190.68" x2="242.73" y2="185.05"/><line x1="204.80" y1="245.22" x2="205.08" y2="259.19"/><line x1="238.98" y1="186.28" x2="241.14" y2="184.18"/><line x1="260.40" y1="258.62" x2="255.04" y2="269.57"/><line x1="237.37" y1="271.26" x2="241.89" y2="249.40"/><line x1="283.01" y1="248.37" x2="303.47" y2="221.20"/><line x1="48.09" y1="237.23" x2="52.11" y2="237.93"/><line x1="37.48" y1="236.53" x2="42.85" y2="238.64"/><line x1="344.70" y1="279.90" x2="344.14" y2="278.20"/><line x1="243.24" y1="185.28" x2="243.77" y2="185.51"/><line x1="298.74" y1="299.40" x2="332.02" y2="296.99"/><line x1="408.58" y1="238.42" x2="409.74" y2="238.42"/><line x1="188.60" y1="253.25" x2="189.98" y2="253.67"/><line x1="266.28" y1="263.44" x2="260.49" y2="273.00"/><line x1="241.89" y1="249.40" x2="241.39" y2="271.14"/><line x1="274.23" y1="238.68" x2="294.87" y2="217.87"/><line x1="310.87" y1="253.02" x2="310.88" y2="256.78"/><line x1="455.85" y1="256.02" x2="453.75" y2="256.00"/><line x1="362.96" y1="259.07" x2="366.24" y2="258.81"/><line x1="332.62" y1="232.99" x2="331.89" y2="232.56"/><line x1="431.84" y1="240.28" x2="431.66" y2="239.81"/><line x1="191.91" y1="236.80" x2="191.91" y2="236.72"/><line x1="208.32" y1="245.22" x2="208.97" y2="245.09"/><line x1="251.75" y1="251.20" x2="254.63" y2="253.70"/><line x1="264.29" y1="194.48" x2="266.46" y2="195.95"/><line x1="310.88" y1="256.78" x2="271.78" y2="281.89"/><line x1="398.35" y1="238.99" x2="400.76" y2="238.72"/><line x1="341.80" y1="271.50" x2="341.32" y2="269.76"/><line x1="456.01" y1="251.74" x2="454.92" y2="251.38"/><line x1="406.98" y1="265.29" x2="407.33" y2="238.47"/><line x1="375.88" y1="245.07" x2="375.78" y2="258.83"/><line x1="208.97" y1="245.09" x2="209.49" y2="244.97"/><line x1="280.53" y1="287.78" x2="283.49" y2="289.68"/><line x1="66.99" y1="238.34" x2="69.81" y2="237.43"/><line x1="184.73" y1="253.22" x2="179.98" y2="236.39"/><line x1="340.72" y1="259.80" x2="343.67" y2="260.15"/><line x1="335.18" y1="325.60" x2="334.07" y2="324.50"/><line x1="341.32" y1="269.76" x2="332.22" y2="274.30"/><line x1="469.71" y1="253.48" x2="468.86" y2="255.23"/><line x1="311.57" y1="224.52" x2="315.13" y2="226.36"/><line x1="424.98" y1="245.21" x2="424.03" y2="254.80"/><line x1="183.58" y1="253.78" x2="167.21" y2="242.63"/><line x1="211.82" y1="261.84" x2="216.21" y2="244.81"/><line x1="238.98" y1="186.28" x2="238.01" y2="182.18"/><line x1="247.40" y1="270.23" x2="254.63" y2="253.70"/><line x1="368.63" y1="241.48" x2="369.82" y2="242.19"/><line x1="334.14" y1="233.76" x2="333.37" y2="233.39"/><line x1="240.73" y1="243.82" x2="240.92" y2="244.69"/><line x1="343.33" y1="318.96" x2="332.96" y2="323.39"/><line x1="369.49" y1="258.65" x2="372.67" y2="258.64"/><line x1="395.56" y1="263.63" x2="394.19" y2="240.23"/><line x1="167.51" y1="236.27" x2="167.51" y2="237.35"/><line x1="327.92" y1="229.43" x2="327.33" y2="228.83"/><line x1="430.94" y1="254.76" x2="435.01" y2="241.78"/><line x1="278.46" y1="272.86" x2="278.14" y2="270.02"/><line x1="81.56" y1="227.22" x2="83.02" y2="227.69"/><line x1="194.91" y1="239.67" x2="195.73" y2="240.34"/><line x1="188.60" y1="253.25" x2="192.88" y2="237.85"/><line x1="276.06" y1="203.75" x2="261.02" y2="222.19"/><line x1="166.28" y1="259.67" x2="166.45" y2="246.69"/><line x1="312.92" y1="265.47" x2="283.49" y2="289.68"/><line x1="325.76" y1="269.12" x2="323.67" y2="267.33"/><line x1="449.22" y1="248.92" x2="446.80" y2="247.80"/><line x1="184.38" y1="263.55" x2="188.57" y2="264.51"/><line x1="171.71" y1="234.28" x2="167.51" y2="238.42"/><line x1="198.36" y1="242.26" x2="199.23" y2="242.80"/><line x1="83.91" y1="226.66" x2="84.30" y2="228.22"/><line x1="432.79" y1="244.65" x2="432.67" y2="243.97"/><line x1="388.92" y1="262.07" x2="383.95" y2="245.25"/><line x1="145.32" y1="243.60" x2="148.87" y2="244.72"/><line x1="333.37" y1="233.39" x2="332.62" y2="232.99"/><line x1="241.71" y1="184.51" x2="242.23" y2="184.80"/><line x1="253.20" y1="269.35" x2="254.13" y2="269.40"/><line x1="321.52" y1="230.10" x2="322.60" y2="230.75"/><line x1="342.36" y1="313.02" x2="341.58" y2="310.16"/><line x1="462.28" y1="255.79" x2="462.30" y2="252.90"/><line x1="192.85" y1="254.88" x2="194.30" y2="255.58"/><line x1="248.89" y1="248.67" x2="251.75" y2="251.20"/><line x1="217.95" y1="264.94" x2="226.57" y2="245.69"/><line x1="143.89" y1="255.81" x2="148.11" y2="256.42"/><line x1="102.52" y1="249.06" x2="104.47" y2="231.66"/><line x1="289.67" y1="214.72" x2="292.43" y2="216.51"/><line x1="189.50" y1="262.76" x2="190.88" y2="264.06"/><line x1="248.89" y1="248.67" x2="246.03" y2="246.11"/><line x1="340.72" y1="259.80" x2="332.78" y2="233.87"/><line x1="473.72" y1="253.66" x2="471.70" y2="253.57"/><line x1="329.65" y1="320.29" x2="328.55" y2="319.44"/><line x1="184.73" y1="253.22" x2="167.47" y2="239.49"/><line x1="428.15" y1="246.75" x2="428.24" y2="254.70"/><line x1="422.18" y1="255.76" x2="422.06" y2="255.31"/><line x1="90.53" y1="227.79" x2="88.64" y2="230.99"/><line x1="104.47" y1="231.66" x2="107.92" y2="232.71"/><line x1="256.96" y1="270.37" x2="258.02" y2="271.03"/><line x1="188.57" y1="264.51" x2="192.53" y2="265.45"/><line x1="169.66" y1="233.66" x2="171.71" y2="234.28"/><line x1="330.27" y1="233.77" x2="329.09" y2="233.56"/><line x1="37.48" y1="236.53" x2="40.48" y2="235.65"/><line x1="340.91" y1="329.93" x2="339.74" y2="329.32"/><line x1="278.46" y1="272.86" x2="291.16" y2="260.33"/><line x1="422.06" y1="255.31" x2="422.07" y2="243.25"/><line x1="202.56" y1="244.58" x2="198.61" y2="257.51"/><line x1="432.00" y1="240.81" x2="431.84" y2="240.28"/><line x1="319.30" y1="228.75" x2="320.43" y2="229.44"/><line x1="266.28" y1="263.44" x2="259.19" y2="271.91"/><line x1="167.21" y1="242.63" x2="167.32" y2="241.59"/><line x1="343.67" y1="260.15" x2="346.74" y2="260.26"/><line x1="411.69" y1="265.47" x2="413.17" y2="238.89"/><line x1="439.30" y1="244.09" x2="437.03" y2="242.89"/><line x1="455.85" y1="256.02" x2="456.01" y2="251.74"/><line x1="362.96" y1="259.07" x2="367.44" y2="240.77"/><line x1="326.51" y1="286.72" x2="326.49" y2="286.20"/><line x1="97.46" y1="229.57" x2="100.98" y2="230.60"/><line x1="431.84" y1="240.28" x2="432.14" y2="239.99"/><line x1="227.01" y1="269.19" x2="230.24" y2="270.22"/><line x1="159.47" y1="246.85" x2="162.97" y2="246.96"/><line x1="120.73" y1="235.93" x2="124.19" y2="236.61"/><line x1="245.75" y1="186.23" x2="249.97" y2="187.76"/><line x1="297.09" y1="218.91" x2="299.20" y2="219.74"/><line x1="251.75" y1="251.20" x2="247.40" y2="270.23"/><line x1="246.03" y1="246.11" x2="241.67" y2="248.00"/><line x1="243.18" y1="243.51" x2="241.12" y2="245.57"/><line x1="63.69" y1="238.76" x2="66.99" y2="238.34"/><line x1="423.33" y1="262.60" x2="421.56" y2="263.78"/><line x1="456.01" y1="251.74" x2="453.75" y2="256.00"/><line x1="424.00" y1="244.58" x2="424.98" y2="245.21"/><line x1="406.98" y1="265.29" x2="405.96" y2="238.54"/><line x1="194.15" y1="239.01" x2="194.91" y2="239.67"/><line x1="234.86" y1="247.45" x2="238.20" y2="248.33"/><line x1="124.19" y1="236.61" x2="127.67" y2="237.53"/><line x1="280.05" y1="245.18" x2="281.54" y2="246.77"/><line x1="40.48" y1="235.65" x2="44.17" y2="236.44"/><line x1="340.72" y1="259.80" x2="330.27" y2="233.77"/><line x1="280.53" y1="287.78" x2="312.92" y2="265.47"/><line x1="184.73" y1="253.22" x2="178.43" y2="236.10"/><line x1="340.72" y1="259.80" x2="360.07" y2="236.93"/><line x1="335.18" y1="325.60" x2="343.33" y2="318.96"/><line x1="185.96" y1="252.98" x2="187.25" y2="253.00"/><line x1="48.15" y1="240.45" x2="48.09" y2="237.23"/><line x1="183.58" y1="253.78" x2="167.06" y2="243.66"/><line x1="211.82" y1="261.84" x2="214.31" y2="244.80"/><line x1="266.08" y1="277.65" x2="268.92" y2="279.81"/><line x1="185.25" y1="256.79" x2="185.63" y2="257.59"/><line x1="449.21" y1="255.80" x2="449.22" y2="248.92"/><line x1="369.49" y1="258.65" x2="373.42" y2="244.09"/><line x1="395.56" y1="263.63" x2="392.35" y2="241.07"/><line x1="167.51" y1="236.27" x2="171.71" y2="234.28"/><line x1="136.12" y1="254.93" x2="117.74" y2="235.36"/><line x1="294.87" y1="217.87" x2="297.09" y2="218.91"/><line x1="81.56" y1="227.22" x2="83.91" y2="226.66"/><line x1="259.54" y1="191.79" x2="262.01" y2="193.11"/><line x1="284.44" y1="249.98" x2="285.81" y2="251.60"/><line x1="252.24" y1="269.41" x2="253.20" y2="269.35"/><line x1="475.53" y1="254.47" x2="473.30" y2="254.74"/><line x1="73.54" y1="233.86" x2="75.59" y2="233.78"/><line x1="449.22" y1="248.92" x2="446.41" y2="255.63"/><line x1="167.06" y1="243.66" x2="167.21" y2="242.63"/><line x1="198.36" y1="242.26" x2="192.85" y2="254.88"/><line x1="241.71" y1="184.51" x2="240.99" y2="190.68"/><line x1="145.32" y1="243.60" x2="143.89" y2="255.81"/><line x1="311.25" y1="260.06" x2="311.95" y2="262.93"/><line x1="305.84" y1="222.05" x2="308.51" y2="223.12"/><line x1="314.14" y1="257.50" x2="312.46" y2="255.31"/><line x1="243.18" y1="243.51" x2="240.32" y2="241.65"/><line x1="423.03" y1="243.92" x2="424.00" y2="244.58"/><line x1="441.75" y1="245.34" x2="439.30" y2="244.09"/><line x1="342.36" y1="313.02" x2="329.65" y2="320.29"/><line x1="353.10" y1="260.00" x2="356.37" y2="259.71"/><line x1="425.90" y1="254.70" x2="428.15" y2="246.75"/><line x1="63.86" y1="244.37" x2="63.69" y2="238.76"/><line x1="254.53" y1="213.58" x2="270.88" y2="199.38"/><line x1="217.95" y1="264.94" x2="224.26" y2="245.35"/><line x1="175.51" y1="261.59" x2="183.99" y2="254.26"/><line x1="289.67" y1="214.72" x2="274.23" y2="238.68"/><line x1="189.50" y1="262.76" x2="188.57" y2="264.51"/><line x1="340.72" y1="259.80" x2="331.49" y2="233.87"/><line x1="473.72" y1="253.66" x2="473.30" y2="254.74"/><line x1="167.43" y1="234.08" x2="167.48" y2="235.18"/><line x1="366.24" y1="258.81" x2="369.49" y2="258.65"/><line x1="437.03" y1="255.05" x2="433.90" y2="254.89"/><line x1="184.73" y1="253.22" x2="185.10" y2="236.87"/><line x1="176.87" y1="235.74" x2="178.43" y2="236.10"/><line x1="392.35" y1="241.07" x2="394.19" y2="240.23"/><line x1="90.53" y1="227.79" x2="87.56" y2="230.22"/><line x1="157.03" y1="257.91" x2="161.63" y2="258.77"/><line x1="336.62" y1="277.67" x2="343.54" y2="276.52"/><line x1="328.52" y1="230.02" x2="327.92" y2="229.43"/><line x1="256.96" y1="270.37" x2="266.28" y2="263.44"/><line x1="278.14" y1="270.02" x2="277.35" y2="267.30"/><line x1="467.78" y1="253.37" x2="465.89" y2="253.24"/><line x1="84.24" y1="234.32" x2="85.83" y2="234.53"/><line x1="169.66" y1="233.66" x2="167.51" y2="236.27"/><line x1="330.27" y1="233.77" x2="315.91" y2="259.61"/><line x1="180.02" y1="262.57" x2="185.25" y2="256.79"/><line x1="189.98" y1="253.67" x2="191.41" y2="254.23"/><line x1="378.78" y1="259.26" x2="381.67" y2="259.98"/><line x1="273.33" y1="201.42" x2="276.06" y2="203.75"/><line x1="295.64" y1="297.37" x2="320.58" y2="276.04"/><line x1="202.56" y1="244.58" x2="197.20" y2="256.94"/><line x1="136.12" y1="254.93" x2="131.17" y2="238.62"/><line x1="245.00" y1="185.97" x2="245.75" y2="186.23"/><line x1="319.30" y1="228.75" x2="290.35" y2="258.48"/><line x1="382.17" y1="245.67" x2="388.92" y2="262.07"/><line x1="466.65" y1="255.45" x2="464.45" y2="255.64"/><line x1="424.46" y1="259.54" x2="424.31" y2="261.18"/><line x1="337.93" y1="302.48" x2="336.23" y2="300.35"/><line x1="208.56" y1="260.43" x2="210.20" y2="244.81"/><line x1="362.96" y1="259.07" x2="366.25" y2="240.06"/><line x1="411.69" y1="265.47" x2="411.99" y2="238.64"/><line x1="214.94" y1="263.37" x2="222.11" y2="245.10"/><line x1="417.36" y1="240.51" x2="411.69" y2="265.47"/><line x1="97.46" y1="229.57" x2="96.59" y2="235.39"/><line x1="340.50" y1="264.11" x2="325.76" y2="269.12"/><line x1="320.43" y1="229.44" x2="321.52" y2="230.10"/><line x1="227.01" y1="269.19" x2="234.86" y2="247.45"/><line x1="477.76" y1="254.20" x2="475.53" y2="254.47"/><line x1="297.09" y1="218.91" x2="280.05" y2="245.18"/><line x1="246.03" y1="246.11" x2="241.51" y2="247.26"/><line x1="327.00" y1="286.14" x2="327.55" y2="286.70"/><line x1="139.87" y1="255.31" x2="145.32" y2="243.60"/><line x1="241.14" y1="184.18" x2="241.71" y2="184.51"/><line x1="243.18" y1="243.51" x2="240.92" y2="244.69"/><line x1="423.33" y1="262.60" x2="423.75" y2="257.72"/><line x1="205.08" y1="259.19" x2="206.75" y2="245.37"/><line x1="406.98" y1="265.29" x2="404.44" y2="238.62"/><line x1="349.88" y1="260.20" x2="353.10" y2="260.00"/><line x1="175.51" y1="261.59" x2="180.02" y2="262.57"/><line x1="340.72" y1="259.80" x2="317.74" y2="261.64"/><line x1="460.11" y1="255.91" x2="458.99" y2="252.42"/><line x1="359.66" y1="259.39" x2="363.83" y2="238.68"/><line x1="184.73" y1="253.22" x2="176.87" y2="235.74"/><line x1="340.72" y1="259.80" x2="334.14" y2="233.76"/><line x1="360.07" y1="236.93" x2="356.37" y2="259.71"/><line x1="194.30" y1="255.58" x2="195.75" y2="256.28"/><line x1="286.48" y1="212.39" x2="289.67" y2="214.72"/><line x1="292.56" y1="295.40" x2="317.13" y2="271.92"/><line x1="267.04" y1="252.76" x2="265.05" y2="250.45"/><line x1="256.77" y1="190.49" x2="259.54" y2="191.79"/><line x1="53.40" y1="241.99" x2="58.63" y2="243.28"/><line x1="266.08" y1="277.65" x2="275.35" y2="270.53"/><line x1="390.61" y1="241.99" x2="392.35" y2="241.07"/><line x1="401.60" y1="264.69" x2="400.76" y2="238.72"/><line x1="369.49" y1="258.65" x2="372.21" y2="243.50"/><line x1="180.02" y1="262.57" x2="184.38" y2="263.55"/><line x1="136.12" y1="254.93" x2="114.59" y2="234.61"/><line x1="317.74" y1="261.64" x2="330.27" y2="233.77"/><line x1="294.87" y1="217.87" x2="278.55" y2="243.58"/><line x1="136.12" y1="254.93" x2="139.87" y2="255.31"/><line x1="90.86" y1="247.91" x2="96.60" y2="248.47"/><line x1="56.13" y1="238.48" x2="60.04" y2="238.78"/><line x1="284.44" y1="249.98" x2="305.84" y2="222.05"/><line x1="343.62" y1="324.91" x2="337.44" y2="327.66"/><line x1="343.54" y1="276.52" x2="342.94" y2="274.86"/><line x1="475.53" y1="254.47" x2="473.72" y2="253.66"/><line x1="244.35" y1="185.73" x2="245.00" y2="185.97"/><line x1="419.01" y1="264.68" x2="421.11" y2="242.59"/><line x1="410.87" y1="238.49" x2="411.99" y2="238.64"/><line x1="79.78" y1="246.74" x2="81.00" y2="233.97"/><line x1="365.04" y1="239.35" x2="362.96" y2="259.07"/><line x1="311.25" y1="260.06" x2="277.58" y2="285.86"/><line x1="314.14" y1="257.50" x2="327.96" y2="233.26"/><line x1="243.18" y1="243.51" x2="240.30" y2="240.88"/><line x1="278.55" y1="243.58" x2="297.09" y2="218.91"/><line x1="441.75" y1="245.34" x2="437.03" y2="255.05"/><line x1="378.17" y1="245.64" x2="380.25" y2="245.82"/><line x1="326.65" y1="285.99" x2="327.00" y2="286.14"/><line x1="254.53" y1="213.58" x2="268.62" y2="197.57"/><line x1="288.30" y1="254.95" x2="289.39" y2="256.69"/><line x1="69.11" y1="245.29" x2="74.41" y2="246.07"/><line x1="402.72" y1="238.69" x2="406.98" y2="265.29"/><line x1="340.93" y1="267.96" x2="340.65" y2="266.09"/><line x1="366.24" y1="258.81" x2="371.01" y2="242.87"/><line x1="360.07" y1="236.93" x2="326.21" y2="227.54"/><line x1="167.43" y1="234.08" x2="167.37" y2="232.98"/><line x1="272.28" y1="268.19" x2="275.35" y2="270.53"/><line x1="195.73" y1="240.34" x2="196.59" y2="241.02"/><line x1="291.16" y1="260.33" x2="267.04" y2="252.76"/><line x1="431.87" y1="247.33" x2="433.29" y2="247.22"/><line x1="327.96" y1="233.26" x2="312.46" y2="255.31"/><line x1="268.92" y1="279.81" x2="271.78" y2="281.89"/><line x1="157.03" y1="257.91" x2="159.47" y2="246.85"/><line x1="336.62" y1="277.67" x2="344.14" y2="278.20"/><line x1="477.88" y1="253.82" x2="475.79" y2="253.74"/><line x1="69.81" y1="237.43" x2="72.03" y2="235.97"/><line x1="421.56" y1="263.78" x2="419.01" y2="264.68"/><line x1="247.09" y1="202.31" x2="256.77" y2="190.49"/><line x1="467.78" y1="253.37" x2="466.65" y2="255.45"/><line x1="189.37" y1="236.84" x2="192.08" y2="237.02"/><line x1="189.98" y1="253.67" x2="197.48" y2="241.66"/><line x1="295.64" y1="297.37" x2="318.82" y2="273.95"/><line x1="279.17" y1="206.39" x2="282.77" y2="209.41"/><line x1="136.12" y1="254.93" x2="127.67" y2="237.53"/><line x1="286.49" y1="291.57" x2="289.51" y2="293.47"/><line x1="37.15" y1="234.94" x2="40.48" y2="235.65"/><line x1="332.96" y1="323.39" x2="331.86" y2="322.29"/><line x1="424.46" y1="259.54" x2="423.33" y2="262.60"/><line x1="208.56" y1="260.43" x2="209.91" y2="244.87"/><line x1="419.01" y1="264.68" x2="415.71" y2="265.25"/><line x1="214.94" y1="263.37" x2="220.07" y2="244.94"/><line x1="186.70" y1="259.41" x2="187.43" y2="260.44"/><line x1="323.67" y1="267.33" x2="321.64" y2="265.49"/><line x1="96.60" y1="248.47" x2="94.52" y2="235.35"/><line x1="327.96" y1="233.26" x2="291.16" y2="260.33"/><line x1="243.18" y1="243.51" x2="240.73" y2="243.82"/><line x1="188.36" y1="261.56" x2="189.50" y2="262.76"/><line x1="435.01" y1="241.78" x2="432.67" y2="243.97"/><line x1="205.08" y1="259.19" x2="205.82" y2="245.35"/><line x1="175.51" y1="261.59" x2="183.58" y2="253.78"/><line x1="175.27" y1="235.32" x2="176.87" y2="235.74"/><line x1="241.79" y1="248.62" x2="241.67" y2="248.00"/><line x1="422.71" y1="254.99" x2="424.03" y2="254.80"/><line x1="86.51" y1="229.50" x2="90.53" y2="227.79"/><line x1="360.07" y1="236.93" x2="329.16" y2="230.58"/><line x1="460.11" y1="255.91" x2="460.61" y2="252.68"/><line x1="359.66" y1="259.39" x2="362.60" y2="238.04"/><line x1="328.68" y1="292.21" x2="328.01" y2="290.90"/><line x1="360.07" y1="236.93" x2="353.10" y2="260.00"/><line x1="194.30" y1="255.58" x2="201.34" y2="244.01"/><line x1="291.16" y1="260.33" x2="276.18" y2="264.70"/><line x1="85.26" y1="247.35" x2="84.24" y2="234.32"/><line x1="291.16" y1="260.33" x2="260.05" y2="243.28"/><line x1="148.11" y1="256.42" x2="152.50" y2="257.13"/><line x1="53.40" y1="241.99" x2="56.13" y2="238.48"/><line x1="195.75" y1="256.28" x2="202.56" y2="244.58"/><line x1="328.55" y1="319.44" x2="298.74" y2="299.40"/><line x1="155.95" y1="246.40" x2="157.03" y2="257.91"/><line x1="102.52" y1="249.06" x2="96.60" y2="248.47"/><line x1="401.60" y1="264.69" x2="398.35" y2="238.99"/><line x1="180.02" y1="262.57" x2="186.70" y2="259.41"/><line x1="220.93" y1="266.48" x2="223.93" y2="267.92"/><line x1="290.35" y1="258.48" x2="291.16" y2="260.33"/><line x1="136.12" y1="254.93" x2="111.31" y2="233.71"/><line x1="339.38" y1="304.85" x2="337.93" y2="302.48"/><line x1="295.64" y1="297.37" x2="325.91" y2="283.53"/><line x1="90.86" y1="247.91" x2="92.60" y2="235.26"/><line x1="453.75" y1="256.00" x2="453.37" y2="250.76"/><line x1="343.62" y1="324.91" x2="338.58" y2="328.55"/><line x1="203.72" y1="244.97" x2="204.80" y2="245.22"/><line x1="241.12" y1="245.57" x2="241.32" y2="246.44"/><line x1="208.56" y1="260.43" x2="211.82" y2="261.84"/><line x1="242.97" y1="194.76" x2="244.98" y2="198.60"/><line x1="209.49" y1="244.97" x2="209.91" y2="244.87"/><line x1="79.78" y1="246.74" x2="79.29" y2="233.85"/><line x1="183.99" y1="254.26" x2="184.32" y2="254.80"/><line x1="167.47" y1="239.49" x2="167.40" y2="240.54"/><line x1="345.21" y1="281.64" x2="344.70" y2="279.90"/><line x1="92.68" y1="233.55" x2="97.46" y2="229.57"/><line x1="367.44" y1="240.77" x2="368.63" y2="241.48"/><line x1="327.96" y1="233.26" x2="326.86" y2="232.88"/><line x1="435.01" y1="241.78" x2="433.29" y2="247.22"/><line x1="431.66" y1="239.81" x2="431.46" y2="239.39"/><line x1="92.60" y1="235.26" x2="96.60" y2="248.47"/><line x1="238.20" y1="248.33" x2="241.89" y2="249.40"/><line x1="435.01" y1="241.78" x2="433.35" y2="240.80"/><line x1="343.54" y1="327.79" x2="340.91" y2="329.93"/><line x1="288.30" y1="254.95" x2="319.30" y2="228.75"/><line x1="69.11" y1="245.29" x2="69.81" y2="237.43"/><line x1="360.07" y1="236.93" x2="332.62" y2="232.99"/><line x1="170.92" y1="260.62" x2="175.51" y2="261.59"/><line x1="291.16" y1="260.33" x2="324.72" y2="231.92"/><line x1="360.07" y1="236.93" x2="326.75" y2="228.19"/><line x1="424.03" y1="254.80" x2="427.04" y2="246.32"/><line x1="272.28" y1="268.19" x2="266.08" y2="277.65"/><line x1="195.73" y1="240.34" x2="189.98" y2="253.67"/><line x1="291.16" y1="260.33" x2="269.07" y2="255.08"/><line x1="131.17" y1="238.62" x2="134.69" y2="239.83"/><line x1="329.42" y1="293.53" x2="328.68" y2="292.21"/><line x1="268.92" y1="279.81" x2="310.88" y2="256.78"/><line x1="371.01" y1="242.87" x2="369.49" y2="258.65"/><line x1="432.55" y1="243.30" x2="432.42" y2="242.64"/><line x1="281.54" y1="246.77" x2="283.01" y2="248.37"/><line x1="477.88" y1="253.82" x2="480.00" y2="253.92"/><line x1="298.74" y1="299.40" x2="326.51" y2="286.72"/><line x1="421.56" y1="263.78" x2="422.07" y2="243.25"/><line x1="334.07" y1="324.50" x2="332.96" y2="323.39"/><line x1="433.35" y1="240.80" x2="431.84" y2="240.28"/><line x1="303.47" y1="221.20" x2="284.44" y2="249.98"/><line x1="52.11" y1="237.93" x2="53.40" y2="241.99"/><line x1="344.14" y1="278.20" x2="343.54" y2="276.52"/><line x1="295.64" y1="297.37" x2="317.13" y2="271.92"/><line x1="279.17" y1="206.39" x2="264.91" y2="227.11"/><line x1="186.10" y1="258.46" x2="186.70" y2="259.41"/><line x1="409.74" y1="238.42" x2="410.87" y2="238.49"/><line x1="107.92" y1="232.71" x2="136.12" y2="254.93"/><line x1="421.11" y1="242.59" x2="415.71" y2="265.25"/><line x1="446.80" y1="247.80" x2="444.29" y2="246.59"/><line x1="241.39" y1="271.14" x2="245.79" y2="270.49"/><line x1="372.67" y1="258.64" x2="375.78" y2="258.83"/><line x1="167.51" y1="237.35" x2="167.51" y2="238.42"/><line x1="240.28" y1="241.17" x2="243.18" y2="243.51"/><line x1="339.74" y1="329.32" x2="343.62" y2="324.91"/><line x1="262.01" y1="193.11" x2="264.29" y2="194.48"/><line x1="148.87" y1="244.72" x2="152.41" y2="245.67"/><line x1="422.07" y1="243.25" x2="419.01" y2="264.68"/><line x1="310.87" y1="253.02" x2="312.46" y2="255.31"/><line x1="331.89" y1="232.56" x2="331.18" y2="232.10"/><line x1="432.14" y1="239.99" x2="431.46" y2="239.39"/><line x1="334.41" y1="275.99" x2="332.22" y2="274.30"/><line x1="341.58" y1="310.16" x2="340.60" y2="307.42"/><line x1="266.46" y1="195.95" x2="254.53" y2="213.58"/><line x1="271.78" y1="281.89" x2="311.25" y2="260.06"/><line x1="435.01" y1="241.78" x2="432.79" y2="244.65"/><line x1="242.23" y1="184.80" x2="242.73" y2="185.05"/><line x1="326.49" y1="286.20" x2="295.64" y2="297.37"/><line x1="375.78" y1="258.83" x2="378.17" y2="245.64"/><line x1="343.56" y1="321.95" x2="343.33" y2="318.96"/><line x1="471.70" y1="253.57" x2="469.71" y2="253.48"/><line x1="240.99" y1="190.68" x2="245.00" y2="185.97"/><line x1="360.07" y1="236.93" x2="329.81" y2="231.11"/><line x1="315.13" y1="226.36" x2="288.30" y2="254.95"/><line x1="291.16" y1="260.33" x2="277.35" y2="267.30"/><line x1="360.07" y1="236.93" x2="349.88" y2="260.20"/><line x1="332.22" y1="274.30" x2="340.93" y2="267.96"/><line x1="257.59" y1="217.71" x2="261.02" y2="222.19"/><line x1="291.16" y1="260.33" x2="261.49" y2="245.73"/><line x1="292.43" y1="216.51" x2="294.87" y2="217.87"/><line x1="87.44" y1="234.74" x2="89.09" y2="234.94"/><line x1="298.74" y1="299.40" x2="328.68" y2="292.21"/><line x1="427.04" y1="246.32" x2="428.15" y2="246.75"/><line x1="238.01" y1="182.18" x2="236.89" y2="181.45"/><line x1="433.90" y1="254.89" x2="430.94" y2="254.76"/><line x1="254.63" y1="253.70" x2="248.82" y2="269.98"/><line x1="299.20" y1="219.74" x2="301.29" y2="220.47"/><line x1="310.87" y1="253.02" x2="291.16" y2="260.33"/><line x1="430.94" y1="254.76" x2="431.87" y2="247.33"/><line x1="401.60" y1="264.69" x2="396.18" y2="239.52"/><line x1="240.92" y1="244.69" x2="241.12" y2="245.57"/><line x1="161.63" y1="258.77" x2="166.28" y2="259.67"/><line x1="327.33" y1="228.83" x2="326.75" y2="228.19"/><line x1="290.35" y1="258.48" x2="322.60" y2="230.75"/><line x1="261.02" y1="222.19" x2="279.17" y2="206.39"/><line x1="453.75" y1="256.00" x2="454.92" y2="251.38"/><line x1="421.11" y1="242.59" x2="420.12" y2="241.97"/><line x1="283.49" y1="289.68" x2="286.49" y2="291.57"/><line x1="203.72" y1="244.97" x2="201.32" y2="258.22"/><line x1="446.41" y1="255.63" x2="443.39" y2="255.44"/><line x1="257.50" y1="256.17" x2="260.40" y2="258.62"/><line x1="242.97" y1="194.76" x2="249.97" y2="187.76"/><line x1="241.12" y1="245.57" x2="246.03" y2="246.11"/><line x1="42.85" y1="238.64" x2="48.15" y2="240.45"/><line x1="383.95" y1="245.25" x2="385.65" y2="244.62"/><line x1="345.21" y1="281.64" x2="345.64" y2="283.45"/><line x1="464.45" y1="255.64" x2="462.28" y2="255.79"/><line x1="216.21" y1="244.81" x2="214.94" y2="263.37"/><line x1="367.44" y1="240.77" x2="366.24" y2="258.81"/><line x1="322.60" y1="230.75" x2="291.16" y2="260.33"/><line x1="96.59" y1="235.39" x2="102.52" y2="249.06"/><line x1="340.52" y1="262.02" x2="323.67" y2="267.33"/><line x1="462.30" y1="252.90" x2="460.11" y2="255.91"/><line x1="238.20" y1="248.33" x2="237.37" y2="271.26"/><line x1="269.29" y1="232.58" x2="274.23" y2="238.68"/><line x1="435.01" y1="241.78" x2="432.29" y2="242.00"/><line x1="199.23" y1="242.80" x2="200.05" y2="243.24"/><line x1="343.54" y1="327.79" x2="343.32" y2="330.55"/><line x1="240.99" y1="190.68" x2="242.23" y2="184.80"/><line x1="360.07" y1="236.93" x2="333.37" y2="233.39"/><line x1="423.75" y1="257.72" x2="422.18" y2="255.76"/><line x1="260.40" y1="258.62" x2="254.13" y2="269.40"/><line x1="238.98" y1="186.28" x2="240.51" y2="183.79"/><line x1="187.25" y1="253.00" x2="188.60" y2="253.25"/><line x1="473.30" y1="254.74" x2="471.07" y2="255.00"/><line x1="291.16" y1="260.33" x2="323.66" y2="231.36"/><line x1="291.16" y1="260.33" x2="271.07" y2="257.41"/><line x1="356.37" y1="259.71" x2="359.66" y2="259.39"/><line x1="85.26" y1="247.35" x2="90.86" y2="247.91"/><line x1="268.92" y1="279.81" x2="310.87" y2="253.02"/><line x1="394.19" y1="240.23" x2="396.18" y2="239.52"/><line x1="298.74" y1="299.40" x2="334.27" y2="298.51"/><line x1="226.57" y1="245.69" x2="229.09" y2="246.14"/><line x1="298.74" y1="299.40" x2="326.69" y2="287.51"/><line x1="188.60" y1="253.25" x2="195.73" y2="240.34"/><line x1="274.23" y1="238.68" x2="292.43" y2="216.51"/><line x1="373.42" y1="244.09" x2="374.63" y2="244.62"/><line x1="433.35" y1="240.80" x2="432.00" y2="240.81"/><line x1="207.59" y1="245.32" x2="208.32" y2="245.22"/><line x1="315.91" y1="259.61" x2="314.14" y2="257.50"/><line x1="58.63" y1="243.28" x2="63.86" y2="244.37"/><line x1="342.35" y1="273.19" x2="341.80" y2="271.50"/><line x1="185.10" y1="236.87" x2="187.11" y2="236.89"/><line x1="277.35" y1="267.30" x2="276.18" y2="264.70"/><line x1="198.61" y1="257.51" x2="199.99" y2="257.95"/><line x1="310.87" y1="253.02" x2="327.96" y2="233.26"/><line x1="432.14" y1="239.99" x2="431.66" y2="239.81"/><line x1="341.58" y1="310.16" x2="328.55" y2="319.44"/><line x1="79.85" y1="226.84" x2="81.56" y2="227.22"/><line x1="276.18" y1="264.70" x2="274.70" y2="262.20"/><line x1="166.45" y1="246.69" x2="166.69" y2="245.69"/><line x1="66.99" y1="238.34" x2="69.11" y2="245.29"/><line x1="277.58" y1="285.86" x2="280.53" y2="287.78"/><line x1="343.56" y1="321.95" x2="335.18" y2="325.60"/><line x1="230.24" y1="270.22" x2="233.67" y2="270.93"/><line x1="127.67" y1="237.53" x2="131.17" y2="238.62"/><line x1="240.99" y1="190.68" x2="244.35" y2="185.73"/><line x1="380.25" y1="245.82" x2="382.17" y2="245.67"/><line x1="80.78" y1="226.45" x2="83.91" y2="226.66"/><line x1="179.98" y1="236.39" x2="181.57" y2="236.62"/><line x1="291.16" y1="260.33" x2="278.14" y2="270.02"/><line x1="343.33" y1="318.96" x2="334.07" y2="324.50"/><line x1="187.11" y1="236.89" x2="189.37" y2="236.84"/><line x1="96.59" y1="235.39" x2="94.52" y2="235.35"/><line x1="422.06" y1="255.31" x2="422.71" y2="254.99"/><line x1="340.65" y1="266.09" x2="340.50" y2="264.11"/><line x1="87.44" y1="234.74" x2="90.86" y2="247.91"/><line x1="298.74" y1="299.40" x2="329.42" y2="293.53"/><line x1="427.04" y1="246.32" x2="425.90" y2="254.70"/><line x1="167.32" y1="241.59" x2="167.40" y2="240.54"/><line x1="185.63" y1="257.59" x2="186.10" y2="258.46"/><line x1="188.60" y1="253.25" x2="192.42" y2="237.38"/><line x1="214.31" y1="244.80" x2="216.21" y2="244.81"/><line x1="241.89" y1="249.40" x2="241.87" y2="249.10"/><line x1="275.35" y1="270.53" x2="278.46" y2="272.86"/><line x1="299.20" y1="219.74" x2="281.54" y2="246.77"/><line x1="430.94" y1="254.76" x2="430.55" y2="247.28"/><line x1="325.76" y1="269.12" x2="340.52" y2="262.02"/><line x1="184.38" y1="263.55" x2="189.50" y2="262.76"/><line x1="251.21" y1="269.54" x2="252.24" y2="269.41"/><line x1="171.71" y1="234.28" x2="167.51" y2="237.35"/><line x1="83.91" y1="226.66" x2="83.02" y2="227.69"/><line x1="249.34" y1="205.98" x2="251.80" y2="209.70"/><line x1="334.27" y1="298.51" x2="332.02" y2="296.99"/><line x1="253.20" y1="269.35" x2="260.40" y2="258.62"/><line x1="87.17" y1="227.12" x2="90.53" y2="227.79"/><line x1="75.59" y1="233.78" x2="77.50" y2="233.78"/><line x1="446.41" y1="255.63" x2="446.80" y2="247.80"/><line x1="289.51" y1="293.47" x2="292.56" y2="295.40"/><line x1="42.85" y1="238.64" x2="44.17" y2="236.44"/><line x1="192.85" y1="254.88" x2="199.23" y2="242.80"/><line x1="248.89" y1="248.67" x2="241.79" y2="248.62"/><line x1="143.89" y1="255.81" x2="148.87" y2="244.72"/><line x1="285.81" y1="251.60" x2="287.10" y2="253.26"/><line x1="317.13" y1="271.92" x2="318.82" y2="273.95"/><line x1="329.65" y1="320.29" x2="341.58" y2="310.16"/><line x1="263.33" y1="261.04" x2="266.28" y2="263.44"/><line x1="199.23" y1="242.80" x2="194.30" y2="255.58"/><line x1="343.54" y1="327.79" x2="342.11" y2="330.35"/><line x1="224.26" y1="245.35" x2="226.57" y2="245.69"/><line x1="238.98" y1="186.28" x2="239.79" y2="183.34"/><line x1="188.57" y1="264.51" x2="190.88" y2="264.06"/><line x1="318.82" y1="273.95" x2="320.58" y2="276.04"/><line x1="473.30" y1="254.74" x2="471.70" y2="253.57"/><line x1="37.48" y1="236.53" x2="37.15" y2="234.94"/><line x1="166.69" y1="245.69" x2="166.89" y2="244.68"/><line x1="178.43" y1="236.10" x2="179.98" y2="236.39"/><line x1="394.19" y1="240.23" x2="401.60" y2="264.69"/><line x1="415.71" y1="265.25" x2="419.12" y2="241.39"/><line x1="87.56" y1="230.22" x2="88.64" y2="230.99"/><line x1="298.74" y1="299.40" x2="336.23" y2="300.35"/><line x1="457.97" y1="255.99" x2="455.85" y2="256.02"/><line x1="226.57" y1="245.69" x2="220.93" y2="266.48"/><line x1="270.88" y1="199.38" x2="273.33" y2="201.42"/><line x1="298.74" y1="299.40" x2="327.00" y2="288.50"/><line x1="188.60" y1="253.25" x2="194.91" y2="239.67"/><line x1="93.98" y1="228.62" x2="97.46" y2="229.57"/><line x1="266.28" y1="263.44" x2="258.02" y2="271.03"/><line x1="85.83" y1="234.53" x2="87.44" y2="234.74"/><line x1="315.91" y1="259.61" x2="329.09" y2="233.56"/><line x1="439.30" y1="244.09" x2="433.90" y2="254.89"/><line x1="58.63" y1="243.28" x2="60.04" y2="238.78"/><line x1="197.20" y1="256.94" x2="198.61" y2="257.51"/><line x1="337.44" y1="327.66" x2="336.30" y2="326.66"/><line x1="159.47" y1="246.85" x2="161.63" y2="258.77"/><line x1="185.10" y1="236.87" x2="185.96" y2="252.98"/><line x1="388.92" y1="262.07" x2="395.56" y2="263.63"/><line x1="258.02" y1="271.03" x2="259.19" y2="271.91"/><line x1="245.75" y1="186.23" x2="242.97" y2="194.76"/><line x1="342.94" y1="315.97" x2="342.36" y2="313.02"/><line x1="465.89" y1="253.24" x2="464.06" y2="253.09"/><line x1="336.23" y1="300.35" x2="334.27" y2="298.51"/><line x1="366.25" y1="240.06" x2="367.44" y2="240.77"/><line x1="433.16" y1="246.62" x2="433.03" y2="245.98"/><line x1="198.61" y1="257.51" x2="203.72" y2="244.97"/><line x1="234.86" y1="247.45" x2="230.24" y2="270.22"/><line x1="280.05" y1="245.18" x2="299.20" y2="219.74"/><line x1="40.48" y1="235.65" x2="42.85" y2="238.64"/><line x1="79.85" y1="226.84" x2="77.83" y2="226.54"/><line x1="166.45" y1="246.69" x2="183.58" y2="253.78"/><line x1="185.96" y1="252.98" x2="187.11" y2="236.89"/><line x1="74.41" y1="246.07" x2="79.78" y2="246.74"/><line x1="404.44" y1="238.62" x2="405.96" y2="238.54"/><line x1="282.77" y1="209.41" x2="286.48" y2="212.39"/><line x1="451.68" y1="255.93" x2="449.21" y2="255.80"/><line x1="183.58" y1="253.78" x2="166.89" y2="244.68"/><line x1="230.24" y1="270.22" x2="238.20" y2="248.33"/><line x1="240.99" y1="190.68" x2="243.77" y2="185.51"/><line x1="238.98" y1="186.28" x2="240.99" y2="190.68"/><line x1="265.05" y1="250.45" x2="263.18" y2="248.11"/><line x1="334.14" y1="233.76" x2="360.07" y2="236.93"/><line x1="395.56" y1="263.63" x2="390.61" y2="241.99"/><line x1="432.29" y1="242.00" x2="432.15" y2="241.39"/><line x1="187.11" y1="236.89" x2="187.25" y2="253.00"/><line x1="96.59" y1="235.39" x2="96.60" y2="248.47"/><line x1="205.82" y1="245.35" x2="206.75" y2="245.37"/><line x1="167.32" y1="241.59" x2="184.73" y2="253.22"/><line x1="259.54" y1="191.79" x2="249.34" y2="205.98"/><line x1="188.60" y1="253.25" x2="192.08" y2="237.02"/><line x1="275.35" y1="270.53" x2="268.92" y2="279.81"/><line x1="263.18" y1="248.11" x2="261.49" y2="245.73"/><line x1="458.99" y1="252.42" x2="457.45" y2="252.11"/><line x1="184.38" y1="263.55" x2="188.36" y2="261.56"/><line x1="372.21" y1="243.50" x2="373.42" y2="244.09"/><line x1="206.75" y1="245.37" x2="207.59" y2="245.32"/><line x1="249.34" y1="205.98" x2="262.01" y2="193.11"/><line x1="305.84" y1="222.05" x2="285.81" y2="251.60"/><line x1="87.17" y1="227.12" x2="86.51" y2="229.50"/><line x1="342.94" y1="274.86" x2="342.35" y2="273.19"/><line x1="423.03" y1="243.92" x2="422.71" y2="254.99"/><line x1="327.45" y1="289.65" x2="327.00" y2="288.50"/><line x1="411.99" y1="238.64" x2="413.17" y2="238.89"/><line x1="444.29" y1="246.59" x2="441.75" y2="245.34"/><line x1="248.89" y1="248.67" x2="241.87" y2="249.10"/><line x1="285.81" y1="251.60" x2="308.51" y2="223.12"/><line x1="152.41" y1="245.67" x2="155.95" y2="246.40"/><line x1="330.49" y1="231.62" x2="329.81" y2="231.11"/><line x1="437.03" y1="255.05" x2="439.30" y2="244.09"/><line x1="184.73" y1="253.22" x2="183.26" y2="236.78"/><line x1="192.42" y1="237.38" x2="192.88" y2="237.85"/><line x1="268.62" y1="197.57" x2="270.88" y2="199.38"/><line x1="183.58" y1="253.78" x2="183.99" y2="254.26"/><line x1="274.67" y1="283.90" x2="277.58" y2="285.86"/><line x1="238.98" y1="186.28" x2="238.96" y2="182.80"/><line x1="330.04" y1="272.60" x2="327.88" y2="270.88"/><line x1="453.37" y1="250.76" x2="451.44" y2="249.92"/><line x1="240.32" y1="241.65" x2="240.42" y2="242.26"/><line x1="169.66" y1="233.66" x2="167.48" y2="235.18"/><line x1="37.48" y1="236.53" x2="32.00" y2="234.07"/><line x1="378.78" y1="259.26" x2="380.25" y2="245.82"/><line x1="433.29" y1="247.22" x2="433.16" y2="246.62"/><line x1="270.88" y1="199.38" x2="257.59" y2="217.71"/><line x1="319.30" y1="228.75" x2="289.39" y2="256.69"/><line x1="188.60" y1="253.25" x2="194.15" y2="239.01"/><line x1="93.98" y1="228.62" x2="92.68" y2="233.55"/><line x1="466.65" y1="255.45" x2="465.89" y2="253.24"/><line x1="312.92" y1="265.47" x2="314.14" y2="267.76"/><line x1="411.69" y1="265.47" x2="410.87" y2="238.49"/><line x1="238.96" y1="182.80" x2="239.79" y2="183.34"/><line x1="97.46" y1="229.57" x2="94.48" y2="234.46"/><line x1="171.71" y1="234.28" x2="173.56" y2="234.83"/><line x1="264.91" y1="227.11" x2="269.29" y2="232.58"/><line x1="388.92" y1="262.07" x2="387.30" y2="243.82"/><line x1="314.14" y1="267.76" x2="315.56" y2="269.89"/><line x1="477.76" y1="254.20" x2="475.79" y2="253.74"/><line x1="289.39" y1="256.69" x2="290.35" y2="258.48"/><line x1="246.03" y1="246.11" x2="241.32" y2="246.44"/><line x1="342.94" y1="315.97" x2="330.75" y2="321.25"/><line x1="465.89" y1="253.24" x2="464.45" y2="255.64"/><line x1="423.33" y1="262.60" x2="424.31" y2="261.18"/><line x1="269.26" y1="265.82" x2="272.28" y2="268.19"/><line x1="84.30" y1="228.22" x2="85.44" y2="228.83"/><line x1="387.30" y1="243.82" x2="388.94" y2="242.93"/><line x1="251.80" y1="209.70" x2="254.53" y2="213.58"/><line x1="239.79" y1="183.34" x2="240.51" y2="183.79"/><line x1="94.48" y1="234.46" x2="96.59" y2="235.39"/><line x1="102.52" y1="249.06" x2="136.12" y2="254.93"/><line x1="175.51" y1="261.59" x2="184.92" y2="256.06"/><line x1="340.72" y1="259.80" x2="319.67" y2="263.59"/><line x1="241.32" y1="246.44" x2="241.51" y2="247.26"/><line x1="184.73" y1="253.22" x2="175.27" y2="235.32"/><line x1="432.42" y1="242.64" x2="432.29" y2="242.00"/><line x1="184.73" y1="253.22" x2="185.96" y2="252.98"/><line x1="287.10" y1="253.26" x2="288.30" y2="254.95"/><line x1="255.04" y1="269.57" x2="255.98" y2="269.89"/><line x1="282.77" y1="209.41" x2="269.29" y2="232.58"/><line x1="90.53" y1="227.79" x2="93.98" y2="228.62"/><line x1="183.58" y1="253.78" x2="166.69" y2="245.69"/><line x1="336.62" y1="277.67" x2="334.41" y2="275.99"/><line x1="460.61" y1="252.68" x2="458.99" y2="252.42"/><line x1="237.37" y1="271.26" x2="241.39" y2="271.14"/><line x1="328.01" y1="290.90" x2="327.45" y2="289.65"/><line x1="395.56" y1="263.63" x2="388.94" y2="242.93"/><line x1="330.27" y1="233.77" x2="331.49" y2="233.87"/><line x1="432.29" y1="242.00" x2="433.35" y2="240.80"/><line x1="294.87" y1="217.87" x2="277.08" y2="241.97"/><line x1="245.79" y1="270.49" x2="248.89" y2="248.67"/><line x1="136.12" y1="254.93" x2="141.77" y2="242.38"/><line x1="324.72" y1="231.92" x2="325.78" y2="232.43"/><line x1="56.13" y1="238.48" x2="58.63" y2="243.28"/><line x1="340.60" y1="307.42" x2="339.38" y2="304.85"/><line x1="266.28" y1="263.44" x2="269.26" y2="265.82"/><line x1="458.99" y1="252.42" x2="457.97" y2="255.99"/><line x1="331.18" y1="232.10" x2="330.49" y2="231.62"/><line x1="192.08" y1="237.02" x2="192.42" y2="237.38"/><line x1="411.69" y1="265.47" x2="415.81" y2="239.81"/><line x1="229.09" y1="246.14" x2="231.83" y2="246.72"/><line x1="111.31" y1="233.71" x2="114.59" y2="234.61"/><line x1="311.25" y1="260.06" x2="274.67" y2="283.90"/><line x1="338.58" y1="328.55" x2="337.44" y2="327.66"/><line x1="378.17" y1="245.64" x2="378.78" y2="259.26"/><line x1="249.97" y1="187.76" x2="253.62" y2="189.16"/><line x1="209.91" y1="244.87" x2="210.20" y2="244.81"/><line x1="260.49" y1="273.00" x2="263.27" y2="275.38"/><line x1="406.98" y1="265.29" x2="411.69" y2="265.47"/><line x1="184.32" y1="254.80" x2="184.62" y2="255.39"/><line x1="340.93" y1="267.96" x2="330.04" y2="272.60"/><line x1="454.92" y1="251.38" x2="453.37" y2="250.76"/><line x1="366.24" y1="258.81" x2="369.82" y2="242.19"/><line x1="167.43" y1="234.08" x2="169.66" y2="233.66"/><line x1="184.73" y1="253.22" x2="181.57" y2="236.62"/><line x1="244.98" y1="198.60" x2="247.09" y2="202.31"/><line x1="210.20" y1="244.81" x2="210.36" y2="244.83"/><line x1="48.15" y1="240.45" x2="53.40" y2="241.99"/><line x1="248.82" y1="269.98" x2="250.08" y2="269.74"/><line x1="336.62" y1="277.67" x2="344.70" y2="279.90"/><line x1="183.58" y1="253.78" x2="167.32" y2="241.59"/><line x1="69.81" y1="237.43" x2="74.41" y2="246.07"/><line x1="211.82" y1="261.84" x2="214.94" y2="263.37"/><line x1="330.04" y1="272.60" x2="340.65" y2="266.09"/><line x1="453.37" y1="250.76" x2="451.68" y2="255.93"/><line x1="189.37" y1="236.84" x2="191.91" y2="236.72"/><line x1="326.75" y1="228.19" x2="326.21" y2="227.54"/><line x1="169.66" y1="233.66" x2="167.37" y2="232.98"/><line x1="407.33" y1="238.47" x2="408.58" y2="238.42"/><line x1="189.98" y1="253.67" x2="196.59" y2="241.02"/><line x1="134.69" y1="239.83" x2="138.23" y2="241.10"/><line x1="301.29" y1="220.47" x2="303.47" y2="221.20"/><line x1="136.12" y1="254.93" x2="124.19" y2="236.61"/><line x1="250.08" y1="269.74" x2="251.21" y2="269.54"/><line x1="245.79" y1="270.49" x2="247.40" y2="270.23"/><line x1="286.49" y1="291.57" x2="314.14" y2="267.76"/><line x1="332.96" y1="323.39" x2="342.94" y2="315.97"/><line x1="166.28" y1="259.67" x2="170.92" y2="260.62"/><line x1="425.99" y1="245.80" x2="427.04" y2="246.32"/><line x1="208.56" y1="260.43" x2="209.49" y2="244.97"/><line x1="326.21" y1="227.54" x2="325.69" y2="226.86"/><line x1="196.59" y1="241.02" x2="197.48" y2="241.66"/><line x1="385.65" y1="244.62" x2="387.30" y2="243.82"/><line x1="411.69" y1="265.47" x2="409.74" y2="238.42"/><line x1="214.94" y1="263.37" x2="218.12" y2="244.85"/><line x1="264.91" y1="227.11" x2="282.77" y2="209.41"/><line x1="186.70" y1="259.41" x2="184.38" y2="263.55"/><line x1="417.36" y1="240.51" x2="415.81" y2="239.81"/><line x1="314.14" y1="267.76" x2="289.51" y2="293.47"/><line x1="477.76" y1="254.20" x2="480.00" y2="253.92"/><line x1="323.67" y1="267.33" x2="340.72" y2="259.80"/><line x1="443.39" y1="255.44" x2="440.23" y2="255.24"/><line x1="342.94" y1="315.97" x2="331.86" y2="322.29"/><line x1="243.18" y1="243.51" x2="240.56" y2="243.00"/><line x1="167.51" y1="238.42" x2="184.73" y2="253.22"/><line x1="387.30" y1="243.82" x2="395.56" y2="263.63"/><line x1="84.30" y1="228.22" x2="87.17" y2="227.12"/><line x1="167.51" y1="238.42" x2="167.47" y2="239.49"/><line x1="251.80" y1="209.70" x2="266.46" y2="195.95"/><line x1="218.12" y1="244.85" x2="220.07" y2="244.94"/><line x1="63.86" y1="244.37" x2="69.11" y2="245.29"/><line x1="254.13" y1="269.40" x2="255.04" y2="269.57"/><line x1="323.66" y1="231.36" x2="324.72" y2="231.92"/><line x1="79.29" y1="233.85" x2="81.00" y2="233.97"/><line x1="217.95" y1="264.94" x2="220.93" y2="266.48"/><line x1="102.52" y1="249.06" x2="107.92" y2="232.71"/><line x1="175.51" y1="261.59" x2="184.62" y2="255.39"/><line x1="340.72" y1="259.80" x2="321.64" y2="265.49"/><line x1="359.66" y1="259.39" x2="361.35" y2="237.46"/><line x1="428.24" y1="254.70" x2="430.55" y2="247.28"/><line x1="184.73" y1="253.22" x2="173.56" y2="234.83"/><line x1="194.30" y1="255.58" x2="200.05" y2="243.24"/><line x1="184.73" y1="253.22" x2="167.40" y2="240.54"/><line x1="242.73" y1="185.05" x2="243.24" y2="185.28"/><line x1="148.11" y1="256.42" x2="152.41" y2="245.67"/><line x1="287.10" y1="253.26" x2="315.13" y2="226.36"/><line x1="255.04" y1="269.57" x2="263.33" y2="261.04"/><line x1="90.53" y1="227.79" x2="89.82" y2="231.81"/><line x1="320.58" y1="276.04" x2="322.37" y2="278.28"/><line x1="471.07" y1="255.00" x2="468.86" y2="255.23"/><line x1="81.00" y1="233.97" x2="82.64" y2="234.13"/><line x1="336.62" y1="277.67" x2="342.35" y2="273.19"/><line x1="328.55" y1="319.44" x2="340.60" y2="307.42"/><line x1="361.35" y1="237.46" x2="362.60" y2="238.04"/><line x1="89.82" y1="231.81" x2="91.15" y2="232.66"/><line x1="200.05" y1="243.24" x2="201.34" y2="244.01"/><line x1="180.02" y1="262.57" x2="186.10" y2="258.46"/><line x1="220.93" y1="266.48" x2="229.09" y2="246.14"/><line x1="294.87" y1="217.87" x2="275.63" y2="240.34"/><line x1="295.64" y1="297.37" x2="324.16" y2="280.75"/><line x1="202.56" y1="244.58" x2="203.72" y2="244.97"/><line x1="136.12" y1="254.93" x2="138.23" y2="241.10"/><line x1="90.86" y1="247.91" x2="90.80" y2="235.12"/><line x1="322.37" y1="278.28" x2="324.16" y2="280.75"/><line x1="329.09" y1="233.56" x2="314.14" y2="257.50"/><line x1="437.03" y1="242.89" x2="435.01" y2="241.78"/><line x1="340.60" y1="307.42" x2="298.74" y2="299.40"/><line x1="396.18" y1="239.52" x2="398.35" y2="238.99"/><line x1="208.56" y1="260.43" x2="212.37" y2="244.82"/><line x1="411.69" y1="265.47" x2="414.43" y2="239.28"/><line x1="162.97" y1="246.96" x2="166.45" y2="246.69"/><line x1="229.09" y1="246.14" x2="223.93" y2="267.92"/><line x1="79.78" y1="246.74" x2="77.50" y2="233.78"/><line x1="275.63" y1="240.34" x2="277.08" y2="241.97"/><line x1="274.70" y1="262.20" x2="272.97" y2="259.78"/><line x1="183.26" y1="236.78" x2="185.10" y2="236.87"/><line x1="243.18" y1="243.51" x2="246.03" y2="246.11"/><line x1="249.97" y1="187.76" x2="244.98" y2="198.60"/><line x1="44.17" y1="236.44" x2="48.09" y2="237.23"/><line x1="205.08" y1="259.19" x2="208.56" y2="260.43"/><line x1="260.49" y1="273.00" x2="269.26" y2="265.82"/><line x1="272.97" y1="259.78" x2="271.07" y2="257.41"/><line x1="464.06" y1="253.09" x2="462.30" y2="252.90"/><line x1="89.09" y1="234.94" x2="90.80" y2="235.12"/><line x1="366.24" y1="258.81" x2="368.63" y2="241.48"/><line x1="360.07" y1="236.93" x2="327.33" y2="228.83"/><line x1="424.03" y1="254.80" x2="425.99" y2="245.80"/><line x1="359.66" y1="259.39" x2="362.96" y2="259.07"/><line x1="100.98" y1="230.60" x2="104.47" y2="231.66"/><line x1="199.99" y1="257.95" x2="201.32" y2="258.22"/><line x1="360.07" y1="236.93" x2="361.35" y2="237.46"/><line x1="244.98" y1="198.60" x2="253.62" y2="189.16"/><line x1="281.54" y1="246.77" x2="301.29" y2="220.47"/><line x1="48.15" y1="240.45" x2="52.11" y2="237.93"/><line x1="342.11" y1="330.35" x2="340.91" y2="329.93"/><line x1="336.62" y1="277.67" x2="345.64" y2="283.45"/><line x1="477.88" y1="253.82" x2="477.76" y2="254.20"/><line x1="421.56" y1="263.78" x2="422.06" y2="255.31"/><line x1="189.37" y1="236.84" x2="191.91" y2="236.80"/><line x1="407.33" y1="238.47" x2="411.69" y2="265.47"/><line x1="83.02" y1="227.69" x2="84.30" y2="228.22"/><line x1="401.60" y1="264.69" x2="406.98" y2="265.29"/><line x1="449.21" y1="255.80" x2="446.41" y2="255.63"/><line x1="295.64" y1="297.37" x2="292.56" y2="295.40"/><line x1="419.12" y1="241.39" x2="417.36" y2="240.51"/><line x1="301.29" y1="220.47" x2="283.01" y2="248.37"/><line x1="136.12" y1="254.93" x2="120.73" y2="235.93"/><line x1="261.49" y1="245.73" x2="260.05" y2="243.28"/><line x1="77.50" y1="233.78" x2="79.29" y2="233.85"/><line x1="245.79" y1="270.49" x2="251.75" y2="251.20"/><line x1="446.80" y1="247.80" x2="443.39" y2="255.44"/><line x1="372.67" y1="258.64" x2="375.88" y2="245.07"/><line x1="208.56" y1="260.43" x2="208.97" y2="245.09"/><line x1="411.69" y1="265.47" x2="408.58" y2="238.42"/><line x1="262.01" y1="193.11" x2="251.80" y2="209.70"/><line x1="148.87" y1="244.72" x2="148.11" y2="256.42"/><line x1="183.58" y1="253.78" x2="184.73" y2="253.22"/><line x1="60.04" y1="238.78" x2="63.69" y2="238.76"/><line x1="308.51" y1="223.12" x2="311.57" y2="224.52"/><line x1="79.78" y1="246.74" x2="85.26" y2="247.35"/><line x1="334.41" y1="275.99" x2="341.32" y2="269.76"/><line x1="457.45" y1="252.11" x2="456.01" y2="251.74"/><line x1="260.05" y1="243.28" x2="258.95" y2="240.75"/><line x1="443.39" y1="255.44" x2="444.29" y2="246.59"/><line x1="243.18" y1="243.51" x2="240.42" y2="242.26"/><line x1="435.01" y1="241.78" x2="432.91" y2="245.32"/><line x1="251.80" y1="209.70" x2="264.29" y2="194.48"/><line x1="63.86" y1="244.37" x2="66.99" y2="238.34"/><line x1="190.88" y1="264.06" x2="192.53" y2="265.45"/><line x1="254.53" y1="213.58" x2="257.59" y2="217.71"/><line x1="471.70" y1="253.57" x2="471.07" y2="255.00"/></g></svg>