<svg xmlns="http://www.w3.org/2000/svg" width="512" height="512"><rect width="512" height="512" fill="#0a0f1a"/><text x="12" y="20" font-family="monospace" font-size="11" fill="#4a7fa5">FRONT (XZ)</text><g stroke="#00d4ff" stroke-width="0.6" opacity="0.85"><line x1="282.81" y1="330.56" x2="286.86" y2="315.21"/><line x1="303.13" y1="139.98" x2="298.17" y2="123.56"/><line x1="46.15" y1="381.96" x2="39.44" y2="411.21"/><line x1="209.15" y1="417.26" x2="208.99" y2="421.39"/><line x1="292.53" y1="106.94" x2="285.76" y2="90.22"/><line x1="146.24" y1="281.28" x2="144.67" y2="302.51"/><line x1="82.52" y1="71.32" x2="76.84" y2="60.64"/><line x1="377.81" y1="169.85" x2="381.38" y2="195.89"/><line x1="311.80" y1="93.45" x2="318.54" y2="105.18"/><line x1="406.78" y1="187.14" x2="406.73" y2="183.21"/><line x1="148.22" y1="114.61" x2="129.39" y2="132.25"/><line x1="314.54" y1="189.06" x2="334.34" y2="196.34"/><line x1="421.30" y1="134.66" x2="403.54" y2="101.18"/><line x1="410.11" y1="348.08" x2="437.98" y2="414.99"/><line x1="57.63" y1="85.37" x2="51.86" y2="85.63"/><line x1="208.99" y1="421.39" x2="210.46" y2="427.85"/><line x1="273.88" y1="111.48" x2="270.52" y2="94.18"/><line x1="279.04" y1="156.70" x2="262.13" y2="163.76"/><line x1="219.19" y1="103.10" x2="225.24" y2="94.28"/><line x1="147.26" y1="406.28" x2="156.75" y2="437.16"/><line x1="450.11" y1="129.55" x2="459.58" y2="138.08"/><line x1="479.94" y1="173.98" x2="467.94" y2="396.79"/><line x1="196.09" y1="84.81" x2="184.97" y2="72.16"/><line x1="334.34" y1="196.34" x2="311.63" y2="204.36"/><line x1="201.40" y1="333.41" x2="211.39" y2="345.42"/><line x1="399.31" y1="371.47" x2="409.15" y2="366.21"/><line x1="286.92" y1="425.98" x2="281.68" y2="403.37"/><line x1="262.13" y1="163.76" x2="262.09" y2="175.18"/><line x1="100.56" y1="74.52" x2="96.53" y2="62.23"/><line x1="196.33" y1="309.31" x2="177.38" y2="311.23"/><line x1="163.34" y1="143.18" x2="198.87" y2="151.04"/><line x1="340.49" y1="417.58" x2="347.41" y2="433.44"/><line x1="196.85" y1="110.41" x2="191.97" y2="125.03"/><line x1="244.71" y1="83.45" x2="248.84" y2="95.40"/><line x1="331.23" y1="100.74" x2="334.29" y2="94.47"/><line x1="89.87" y1="405.86" x2="88.56" y2="398.96"/><line x1="81.34" y1="111.87" x2="103.77" y2="112.51"/><line x1="198.87" y1="151.04" x2="194.15" y2="141.73"/><line x1="381.38" y1="195.89" x2="362.62" y2="202.57"/><line x1="281.68" y1="403.37" x2="268.25" y2="402.53"/><line x1="191.97" y1="125.03" x2="203.83" y2="125.13"/><line x1="76.34" y1="288.62" x2="70.95" y2="132.08"/><line x1="114.24" y1="377.25" x2="119.61" y2="355.64"/><line x1="334.29" y1="94.47" x2="337.67" y2="105.80"/><line x1="88.56" y1="398.96" x2="87.35" y2="423.53"/><line x1="449.42" y1="111.50" x2="453.87" y2="124.70"/><line x1="196.05" y1="50.55" x2="194.19" y2="48.18"/><line x1="334.58" y1="212.77" x2="307.18" y2="323.18"/><line x1="183.74" y1="378.86" x2="184.78" y2="399.55"/><line x1="457.95" y1="185.99" x2="479.94" y2="173.98"/><line x1="268.25" y1="402.53" x2="279.00" y2="382.83"/><line x1="434.48" y1="183.75" x2="406.73" y2="183.21"/><line x1="241.04" y1="361.48" x2="228.81" y2="371.41"/><line x1="171.10" y1="73.79" x2="178.25" y2="89.44"/><line x1="392.18" y1="373.77" x2="349.75" y2="380.56"/><line x1="228.22" y1="134.50" x2="224.39" y2="119.26"/><line x1="311.00" y1="190.98" x2="260.51" y2="193.23"/><line x1="279.04" y1="156.70" x2="303.13" y2="139.98"/><line x1="363.83" y1="98.66" x2="361.63" y2="72.74"/><line x1="165.49" y1="330.09" x2="162.17" y2="342.51"/><line x1="379.99" y1="112.59" x2="382.11" y2="140.44"/><line x1="228.44" y1="152.01" x2="222.33" y2="137.35"/><line x1="406.73" y1="183.21" x2="431.77" y2="174.50"/><line x1="228.81" y1="371.41" x2="241.68" y2="375.09"/><line x1="349.75" y1="380.56" x2="391.73" y2="386.91"/><line x1="105.38" y1="327.53" x2="95.65" y2="332.34"/><line x1="123.19" y1="119.13" x2="111.44" y2="121.01"/><line x1="162.17" y1="342.51" x2="143.18" y2="349.80"/><line x1="156.22" y1="117.93" x2="151.52" y2="103.70"/><line x1="307.18" y1="323.18" x2="308.36" y2="331.18"/><line x1="330.55" y1="347.32" x2="317.59" y2="362.15"/><line x1="222.33" y1="137.35" x2="211.07" y2="140.27"/><line x1="109.52" y1="400.13" x2="114.24" y2="377.25"/><line x1="393.26" y1="121.21" x2="398.76" y2="147.20"/><line x1="41.04" y1="92.36" x2="46.15" y2="381.96"/><line x1="385.93" y1="210.39" x2="406.78" y2="187.14"/><line x1="211.39" y1="345.42" x2="209.10" y2="363.85"/><line x1="359.21" y1="219.61" x2="336.02" y2="171.94"/><line x1="95.65" y1="332.34" x2="98.80" y2="312.17"/><line x1="152.63" y1="438.99" x2="160.91" y2="475.22"/><line x1="179.05" y1="337.41" x2="178.23" y2="322.39"/><line x1="291.88" y1="369.11" x2="302.26" y2="369.37"/><line x1="467.94" y1="396.79" x2="462.85" y2="379.32"/><line x1="317.59" y1="362.15" x2="330.42" y2="360.60"/><line x1="282.81" y1="330.56" x2="248.86" y2="315.24"/><line x1="405.91" y1="152.08" x2="421.30" y2="134.66"/><line x1="250.07" y1="427.72" x2="252.51" y2="437.15"/><line x1="46.15" y1="381.96" x2="37.67" y2="81.15"/><line x1="387.53" y1="434.74" x2="401.15" y2="438.29"/><line x1="292.53" y1="106.94" x2="273.88" y2="111.48"/><line x1="146.24" y1="281.28" x2="172.83" y2="311.46"/><line x1="106.25" y1="78.53" x2="99.38" y2="64.27"/><line x1="302.26" y1="369.37" x2="305.39" y2="391.86"/><line x1="377.81" y1="169.85" x2="364.84" y2="184.56"/><line x1="155.64" y1="405.43" x2="147.26" y2="406.28"/><line x1="311.80" y1="93.45" x2="307.31" y2="69.49"/><line x1="462.85" y1="379.32" x2="457.47" y2="365.59"/><line x1="406.78" y1="187.14" x2="434.48" y2="183.75"/><line x1="197.41" y1="101.40" x2="196.09" y2="84.81"/><line x1="421.30" y1="134.66" x2="404.96" y2="128.26"/><line x1="410.11" y1="348.08" x2="440.57" y2="397.20"/><line x1="247.11" y1="80.52" x2="254.58" y2="95.34"/><line x1="401.15" y1="438.29" x2="404.96" y2="450.53"/><line x1="259.26" y1="198.24" x2="259.07" y2="190.46"/><line x1="147.26" y1="406.28" x2="155.91" y2="421.67"/><line x1="335.68" y1="402.50" x2="340.49" y2="417.58"/><line x1="196.09" y1="84.81" x2="191.44" y2="86.73"/><line x1="106.46" y1="389.29" x2="109.67" y2="359.10"/><line x1="262.10" y1="56.75" x2="260.16" y2="40.45"/><line x1="259.07" y1="190.46" x2="258.07" y2="180.52"/><line x1="316.66" y1="443.49" x2="329.16" y2="463.46"/><line x1="116.56" y1="83.90" x2="121.99" y2="102.09"/><line x1="100.56" y1="74.52" x2="99.38" y2="64.27"/><line x1="52.45" y1="63.06" x2="51.91" y2="67.42"/><line x1="340.49" y1="417.58" x2="339.97" y2="418.94"/><line x1="439.38" y1="197.23" x2="444.75" y2="151.26"/><line x1="247.81" y1="140.81" x2="241.17" y2="125.28"/><line x1="446.83" y1="101.23" x2="446.99" y2="99.47"/><line x1="328.61" y1="152.25" x2="332.22" y2="175.56"/><line x1="437.98" y1="414.99" x2="436.22" y2="431.72"/><line x1="406.47" y1="170.96" x2="405.91" y2="152.08"/><line x1="412.03" y1="394.38" x2="410.59" y2="384.90"/><line x1="205.37" y1="401.19" x2="207.23" y2="412.30"/><line x1="122.94" y1="267.42" x2="105.59" y2="274.25"/><line x1="444.75" y1="151.26" x2="440.54" y2="134.87"/><line x1="269.84" y1="129.44" x2="275.68" y2="144.89"/><line x1="114.24" y1="377.25" x2="109.67" y2="359.10"/><line x1="449.42" y1="111.50" x2="448.01" y2="112.32"/><line x1="248.11" y1="308.50" x2="206.14" y2="298.33"/><line x1="175.62" y1="111.03" x2="156.22" y2="117.93"/><line x1="202.56" y1="319.85" x2="215.34" y2="329.97"/><line x1="407.48" y1="391.06" x2="403.33" y2="380.17"/><line x1="117.74" y1="297.71" x2="121.08" y2="276.24"/><line x1="259.19" y1="137.13" x2="261.26" y2="151.01"/><line x1="346.85" y1="142.99" x2="359.21" y2="219.61"/><line x1="286.86" y1="315.21" x2="286.28" y2="327.55"/><line x1="79.71" y1="80.34" x2="80.84" y2="95.68"/><line x1="228.22" y1="134.50" x2="241.17" y2="125.28"/><line x1="187.22" y1="341.37" x2="191.20" y2="324.64"/><line x1="155.98" y1="128.27" x2="161.20" y2="138.23"/><line x1="279.04" y1="156.70" x2="306.61" y2="155.17"/><line x1="180.84" y1="81.94" x2="189.05" y2="95.62"/><line x1="472.46" y1="415.64" x2="467.94" y2="396.79"/><line x1="51.72" y1="96.18" x2="51.47" y2="106.40"/><line x1="379.99" y1="112.59" x2="393.26" y2="121.21"/><line x1="250.72" y1="330.25" x2="282.81" y2="330.56"/><line x1="328.72" y1="82.38" x2="326.15" y2="70.03"/><line x1="138.94" y1="298.10" x2="146.24" y2="281.28"/><line x1="201.40" y1="333.41" x2="201.19" y2="348.57"/><line x1="88.08" y1="81.86" x2="93.51" y2="92.24"/><line x1="276.51" y1="127.72" x2="292.53" y2="106.94"/><line x1="452.74" y1="149.70" x2="455.49" y2="169.58"/><line x1="366.10" y1="144.76" x2="365.97" y2="165.35"/><line x1="61.56" y1="100.84" x2="66.08" y2="116.96"/><line x1="163.34" y1="143.18" x2="162.39" y2="138.76"/><line x1="395.87" y1="367.09" x2="331.03" y2="334.18"/><line x1="328.33" y1="76.12" x2="331.11" y2="84.42"/><line x1="243.22" y1="419.76" x2="250.07" y2="427.72"/><line x1="109.52" y1="400.13" x2="106.46" y2="389.29"/><line x1="439.38" y1="197.23" x2="427.47" y2="78.01"/><line x1="359.21" y1="219.61" x2="307.18" y2="323.18"/><line x1="152.63" y1="438.99" x2="160.23" y2="470.94"/><line x1="465.79" y1="150.68" x2="471.76" y2="161.51"/><line x1="104.04" y1="86.52" x2="106.25" y2="78.53"/><line x1="221.25" y1="319.48" x2="202.56" y2="319.85"/><line x1="203.83" y1="125.13" x2="209.62" y2="138.57"/><line x1="333.45" y1="123.13" x2="335.11" y2="147.52"/><line x1="250.07" y1="427.72" x2="250.02" y2="437.38"/><line x1="241.08" y1="73.85" x2="247.11" y2="80.52"/><line x1="331.03" y1="334.18" x2="307.18" y2="323.18"/><line x1="80.91" y1="126.81" x2="112.97" y2="132.10"/><line x1="146.24" y1="281.28" x2="176.41" y2="305.76"/><line x1="172.83" y1="311.46" x2="169.11" y2="319.66"/><line x1="106.25" y1="78.53" x2="100.56" y2="74.52"/><line x1="377.57" y1="81.83" x2="387.14" y2="93.95"/><line x1="197.02" y1="140.31" x2="199.87" y2="150.80"/><line x1="311.80" y1="93.45" x2="312.88" y2="85.02"/><line x1="69.76" y1="300.08" x2="62.04" y2="322.23"/><line x1="406.78" y1="187.14" x2="436.69" y2="190.72"/><line x1="32.18" y1="447.66" x2="32.00" y2="53.54"/><line x1="94.02" y1="382.18" x2="99.36" y2="355.18"/><line x1="131.27" y1="144.55" x2="79.22" y2="138.39"/><line x1="247.11" y1="80.52" x2="244.71" y2="83.45"/><line x1="271.41" y1="60.12" x2="262.10" y2="56.75"/><line x1="144.67" y1="302.51" x2="143.48" y2="325.21"/><line x1="440.57" y1="397.20" x2="437.98" y2="414.99"/><line x1="48.08" y1="110.64" x2="44.61" y2="102.59"/><line x1="206.14" y1="298.33" x2="247.09" y2="313.13"/><line x1="208.17" y1="383.29" x2="203.63" y2="388.65"/><line x1="410.11" y1="348.08" x2="331.03" y2="334.18"/><line x1="106.46" y1="389.29" x2="114.24" y2="377.25"/><line x1="286.28" y1="327.55" x2="287.96" y2="346.19"/><line x1="262.10" y1="56.75" x2="265.09" y2="48.54"/><line x1="478.76" y1="448.14" x2="476.15" y2="433.54"/><line x1="116.56" y1="83.90" x2="127.32" y2="81.29"/><line x1="242.50" y1="337.73" x2="241.42" y2="348.98"/><line x1="278.53" y1="364.05" x2="279.92" y2="346.73"/><line x1="316.64" y1="136.10" x2="328.61" y2="152.25"/><line x1="160.23" y1="470.94" x2="160.91" y2="475.22"/><line x1="235.80" y1="396.59" x2="243.22" y2="419.76"/><line x1="52.45" y1="63.06" x2="51.67" y2="59.57"/><line x1="359.29" y1="397.36" x2="371.64" y2="415.33"/><line x1="439.38" y1="197.23" x2="449.22" y2="166.72"/><line x1="203.63" y1="388.65" x2="205.37" y2="401.19"/><line x1="202.34" y1="295.41" x2="176.41" y2="305.76"/><line x1="256.57" y1="123.06" x2="269.84" y2="129.44"/><line x1="303.16" y1="333.79" x2="301.52" y2="349.60"/><line x1="247.81" y1="140.81" x2="228.22" y2="134.50"/><line x1="76.34" y1="288.62" x2="96.89" y2="295.16"/><line x1="129.39" y1="132.25" x2="131.10" y2="141.36"/><line x1="446.83" y1="101.23" x2="449.42" y2="111.50"/><line x1="207.33" y1="128.75" x2="202.74" y2="115.61"/><line x1="328.61" y1="152.25" x2="317.12" y2="155.08"/><line x1="406.47" y1="170.96" x2="425.12" y2="149.80"/><line x1="387.14" y1="93.95" x2="379.99" y2="112.59"/><line x1="238.45" y1="67.42" x2="241.08" y2="73.85"/><line x1="412.03" y1="394.38" x2="407.48" y2="391.06"/><line x1="111.63" y1="301.89" x2="117.64" y2="280.97"/><line x1="122.94" y1="267.42" x2="117.64" y2="280.97"/><line x1="269.84" y1="129.44" x2="259.19" y2="137.13"/><line x1="157.29" y1="372.34" x2="156.17" y2="389.26"/><line x1="180.00" y1="354.46" x2="187.22" y2="341.37"/><line x1="51.13" y1="115.32" x2="48.08" y2="110.64"/><line x1="331.00" y1="374.14" x2="332.63" y2="388.06"/><line x1="248.11" y1="308.50" x2="208.95" y2="283.00"/><line x1="209.10" y1="363.85" x2="202.21" y2="375.31"/><line x1="39.44" y1="411.21" x2="34.54" y2="434.50"/><line x1="102.15" y1="292.84" x2="105.59" y2="274.25"/><line x1="117.74" y1="297.71" x2="138.94" y2="298.10"/><line x1="286.86" y1="315.21" x2="307.18" y2="323.18"/><line x1="297.99" y1="394.31" x2="306.26" y2="419.78"/><line x1="410.11" y1="348.08" x2="439.38" y2="197.23"/><line x1="79.71" y1="80.34" x2="88.08" y2="81.86"/><line x1="187.22" y1="341.37" x2="179.05" y2="337.41"/><line x1="155.98" y1="128.27" x2="131.10" y2="141.36"/><line x1="324.48" y1="381.49" x2="332.13" y2="401.02"/><line x1="373.79" y1="141.70" x2="366.10" y2="144.76"/><line x1="51.72" y1="96.18" x2="61.56" y2="100.84"/><line x1="66.79" y1="389.24" x2="73.55" y2="364.59"/><line x1="328.72" y1="82.38" x2="328.33" y2="76.12"/><line x1="138.94" y1="298.10" x2="121.08" y2="276.24"/><line x1="310.92" y1="415.86" x2="318.84" y2="440.13"/><line x1="212.49" y1="85.93" x2="216.35" y2="79.85"/><line x1="194.15" y1="141.73" x2="162.39" y2="138.76"/><line x1="452.74" y1="149.70" x2="465.79" y2="150.68"/><line x1="75.96" y1="144.51" x2="259.26" y2="198.24"/><line x1="366.10" y1="144.76" x2="377.81" y2="169.85"/><line x1="414.27" y1="410.79" x2="411.28" y2="401.98"/><line x1="109.52" y1="400.13" x2="105.52" y2="424.27"/><line x1="395.87" y1="367.09" x2="409.29" y2="357.06"/><line x1="439.38" y1="197.23" x2="432.11" y2="98.47"/><line x1="308.90" y1="168.89" x2="306.61" y2="155.17"/><line x1="216.35" y1="79.85" x2="207.96" y2="67.20"/><line x1="76.34" y1="288.62" x2="54.97" y2="439.51"/><line x1="152.63" y1="438.99" x2="159.15" y2="462.62"/><line x1="176.41" y1="305.76" x2="172.83" y2="311.46"/><line x1="221.25" y1="319.48" x2="244.00" y2="327.90"/><line x1="279.00" y1="382.83" x2="278.53" y2="364.05"/><line x1="203.83" y1="125.13" x2="197.02" y2="140.31"/><line x1="286.86" y1="315.21" x2="258.89" y2="203.57"/><line x1="406.00" y1="183.21" x2="406.78" y2="187.14"/><line x1="333.45" y1="123.13" x2="344.15" y2="130.53"/><line x1="232.21" y1="162.62" x2="213.81" y2="149.55"/><line x1="409.29" y1="357.06" x2="331.03" y2="334.18"/><line x1="410.11" y1="348.08" x2="385.93" y2="210.39"/><line x1="80.91" y1="126.81" x2="108.52" y2="122.39"/><line x1="172.83" y1="311.46" x2="144.67" y2="302.51"/><line x1="377.57" y1="81.83" x2="374.97" y2="47.81"/><line x1="259.90" y1="376.14" x2="254.23" y2="351.30"/><line x1="69.76" y1="300.08" x2="48.08" y2="110.64"/><line x1="113.68" y1="326.95" x2="117.74" y2="297.71"/><line x1="311.63" y1="204.36" x2="286.86" y2="315.21"/><line x1="94.02" y1="382.18" x2="90.41" y2="375.63"/><line x1="131.27" y1="144.55" x2="112.97" y2="132.10"/><line x1="307.18" y1="323.18" x2="286.28" y2="327.55"/><line x1="151.52" y1="103.70" x2="146.10" y2="88.34"/><line x1="386.04" y1="230.42" x2="385.93" y2="210.39"/><line x1="242.80" y1="388.86" x2="244.83" y2="402.76"/><line x1="48.08" y1="110.64" x2="62.04" y2="322.23"/><line x1="223.34" y1="347.80" x2="228.81" y2="371.41"/><line x1="391.73" y1="386.91" x2="359.29" y2="397.36"/><line x1="410.11" y1="348.08" x2="409.29" y2="357.06"/><line x1="98.80" y1="312.17" x2="102.15" y2="292.84"/><line x1="131.27" y1="144.55" x2="199.74" y2="154.18"/><line x1="109.45" y1="109.74" x2="106.99" y2="98.24"/><line x1="286.28" y1="327.55" x2="303.16" y2="333.79"/><line x1="143.18" y1="349.80" x2="159.36" y2="356.68"/><line x1="163.01" y1="92.81" x2="148.98" y2="74.80"/><line x1="242.50" y1="337.73" x2="223.34" y2="347.80"/><line x1="37.67" y1="81.15" x2="34.84" y2="70.15"/><line x1="359.29" y1="397.36" x2="393.67" y2="403.82"/><line x1="439.38" y1="197.23" x2="454.14" y2="181.46"/><line x1="395.87" y1="367.09" x2="392.18" y2="373.77"/><line x1="305.39" y1="391.86" x2="310.92" y2="415.86"/><line x1="118.17" y1="105.95" x2="112.52" y2="92.42"/><line x1="159.36" y1="356.68" x2="157.29" y2="372.34"/><line x1="76.34" y1="288.62" x2="88.63" y2="317.34"/><line x1="129.39" y1="132.25" x2="155.98" y2="128.27"/><line x1="66.08" y1="116.96" x2="70.95" y2="132.08"/><line x1="238.45" y1="67.42" x2="237.31" y2="64.97"/><line x1="204.20" y1="67.65" x2="194.19" y2="48.18"/><line x1="285.76" y1="90.22" x2="278.51" y2="74.31"/><line x1="111.63" y1="301.89" x2="102.15" y2="292.84"/><line x1="385.18" y1="188.96" x2="406.00" y2="183.21"/><line x1="452.05" y1="357.94" x2="447.74" y2="366.64"/><line x1="51.13" y1="115.32" x2="69.76" y2="300.08"/><line x1="331.00" y1="374.14" x2="324.48" y2="381.49"/><line x1="311.63" y1="204.36" x2="334.58" y2="212.77"/><line x1="459.72" y1="195.72" x2="439.38" y2="197.23"/><line x1="39.44" y1="411.21" x2="34.84" y2="70.15"/><line x1="258.07" y1="180.52" x2="256.02" y2="168.74"/><line x1="270.52" y1="94.18" x2="266.56" y2="75.91"/><line x1="262.09" y1="175.18" x2="308.90" y2="168.89"/><line x1="99.38" y1="64.27" x2="91.92" y2="49.62"/><line x1="297.99" y1="394.31" x2="310.92" y2="415.86"/><line x1="156.75" y1="437.16" x2="157.91" y2="451.09"/><line x1="184.97" y1="72.16" x2="178.12" y2="58.28"/><line x1="415.96" y1="413.47" x2="415.99" y2="415.34"/><line x1="403.54" y1="101.18" x2="401.57" y2="72.55"/><line x1="223.34" y1="347.80" x2="241.42" y2="348.98"/><line x1="254.58" y1="95.34" x2="252.95" y2="108.88"/><line x1="384.21" y1="217.02" x2="386.04" y2="230.42"/><line x1="143.48" y1="325.21" x2="143.18" y2="349.80"/><line x1="213.81" y1="149.55" x2="211.07" y2="140.27"/><line x1="75.96" y1="144.51" x2="105.59" y2="274.25"/><line x1="414.27" y1="410.79" x2="413.84" y2="403.92"/><line x1="109.67" y1="359.10" x2="113.68" y2="326.95"/><line x1="337.67" y1="105.80" x2="333.45" y2="123.13"/><line x1="182.74" y1="387.36" x2="181.18" y2="371.72"/><line x1="121.99" y1="102.09" x2="126.31" y2="118.68"/><line x1="76.34" y1="288.62" x2="60.59" y2="414.28"/><line x1="332.22" y1="175.56" x2="334.34" y2="196.34"/><line x1="258.89" y1="203.57" x2="259.26" y2="198.24"/><line x1="51.91" y1="67.42" x2="51.92" y2="75.71"/><line x1="221.25" y1="319.48" x2="204.26" y2="308.09"/><line x1="279.00" y1="382.83" x2="259.90" y2="376.14"/><line x1="208.28" y1="401.75" x2="209.15" y2="417.26"/><line x1="119.61" y1="355.64" x2="125.55" y2="335.26"/><line x1="244.00" y1="327.90" x2="242.50" y2="337.73"/><line x1="333.45" y1="123.13" x2="341.02" y2="117.98"/><line x1="241.17" y1="125.28" x2="233.79" y2="109.70"/><line x1="410.11" y1="348.08" x2="386.04" y2="230.42"/><line x1="365.43" y1="90.34" x2="369.57" y2="114.27"/><line x1="215.34" y1="329.97" x2="211.39" y2="345.42"/><line x1="54.52" y1="72.22" x2="57.63" y2="85.37"/><line x1="259.90" y1="376.14" x2="278.53" y2="364.05"/><line x1="410.59" y1="384.90" x2="409.61" y2="375.49"/><line x1="207.23" y1="412.30" x2="208.99" y2="421.39"/><line x1="241.68" y1="375.09" x2="242.80" y2="388.86"/><line x1="80.84" y1="95.68" x2="81.34" y2="111.87"/><line x1="224.39" y1="119.26" x2="219.19" y2="103.10"/><line x1="311.36" y1="198.88" x2="259.55" y2="199.47"/><line x1="448.01" y1="112.32" x2="450.11" y2="129.55"/><line x1="262.09" y1="175.18" x2="261.45" y2="185.07"/><line x1="178.25" y1="89.44" x2="185.46" y2="107.30"/><line x1="151.52" y1="103.70" x2="163.01" y2="92.81"/><line x1="382.11" y1="140.44" x2="383.87" y2="165.77"/><line x1="211.07" y1="140.27" x2="207.33" y2="128.75"/><line x1="232.21" y1="162.62" x2="258.07" y2="180.52"/><line x1="403.33" y1="380.17" x2="399.31" y2="371.47"/><line x1="242.80" y1="388.86" x2="235.80" y2="396.59"/><line x1="121.08" y1="276.24" x2="122.94" y2="267.42"/><line x1="261.26" y1="151.01" x2="262.13" y2="163.76"/><line x1="223.34" y1="347.80" x2="241.04" y2="361.48"/><line x1="336.02" y1="171.94" x2="335.92" y2="194.35"/><line x1="98.80" y1="312.17" x2="111.63" y2="301.89"/><line x1="455.49" y1="169.58" x2="457.95" y2="185.99"/><line x1="75.96" y1="144.51" x2="122.94" y2="267.42"/><line x1="109.45" y1="109.74" x2="118.17" y2="105.95"/><line x1="191.20" y1="324.64" x2="196.33" y2="309.31"/><line x1="279.80" y1="428.22" x2="268.25" y2="402.53"/><line x1="189.05" y1="95.62" x2="196.85" y2="110.41"/><line x1="163.01" y1="92.81" x2="146.10" y2="88.34"/><line x1="248.86" y1="315.24" x2="286.86" y2="315.21"/><line x1="37.67" y1="81.15" x2="39.44" y2="411.21"/><line x1="305.39" y1="391.86" x2="297.99" y2="394.31"/><line x1="457.47" y1="365.59" x2="452.05" y2="357.94"/><line x1="334.58" y1="212.77" x2="359.21" y2="219.61"/><line x1="66.08" y1="116.96" x2="76.34" y2="288.62"/><line x1="286.86" y1="315.21" x2="248.11" y2="308.50"/><line x1="103.77" y1="112.51" x2="80.91" y2="126.81"/><line x1="250.02" y1="437.38" x2="252.51" y2="437.15"/><line x1="404.96" y1="450.53" x2="407.65" y2="455.87"/><line x1="359.21" y1="219.61" x2="386.04" y2="230.42"/><line x1="112.97" y1="132.10" x2="123.19" y2="119.13"/><line x1="204.20" y1="67.65" x2="196.05" y2="50.55"/><line x1="285.76" y1="90.22" x2="270.52" y2="94.18"/><line x1="312.88" y1="85.02" x2="307.31" y2="69.49"/><line x1="247.09" y1="313.13" x2="221.25" y2="319.48"/><line x1="191.44" y1="86.73" x2="184.97" y2="72.16"/><line x1="252.51" y1="437.15" x2="254.32" y2="443.47"/><line x1="479.94" y1="173.98" x2="459.72" y2="195.72"/><line x1="479.94" y1="173.98" x2="410.11" y2="348.08"/><line x1="169.11" y1="319.66" x2="165.49" y2="330.09"/><line x1="127.32" y1="81.29" x2="138.48" y2="98.52"/><line x1="99.38" y1="64.27" x2="96.53" y2="62.23"/><line x1="260.51" y1="193.23" x2="311.36" y2="198.88"/><line x1="335.11" y1="147.52" x2="336.02" y2="171.94"/><line x1="415.96" y1="413.47" x2="414.27" y2="410.79"/><line x1="232.21" y1="162.62" x2="230.79" y2="148.92"/><line x1="254.58" y1="95.34" x2="248.84" y2="95.40"/><line x1="317.12" y1="155.08" x2="316.40" y2="172.69"/><line x1="436.22" y1="431.72" x2="435.43" y2="445.35"/><line x1="111.44" y1="121.01" x2="109.45" y2="109.74"/><line x1="109.67" y1="359.10" x2="119.61" y2="355.64"/><line x1="303.13" y1="139.98" x2="278.27" y2="142.83"/><line x1="260.16" y1="40.45" x2="257.29" y2="36.78"/><line x1="144.27" y1="376.69" x2="147.26" y2="406.28"/><line x1="121.99" y1="102.09" x2="138.48" y2="98.52"/><line x1="312.03" y1="344.78" x2="317.59" y2="362.15"/><line x1="105.59" y1="274.25" x2="96.89" y2="295.16"/><line x1="332.22" y1="175.56" x2="314.54" y2="189.06"/><line x1="220.47" y1="329.30" x2="242.50" y2="337.73"/><line x1="51.91" y1="67.42" x2="54.52" y2="72.22"/><line x1="241.03" y1="69.76" x2="247.11" y2="80.52"/><line x1="436.39" y1="117.35" x2="432.11" y2="98.47"/><line x1="208.28" y1="401.75" x2="207.23" y2="412.30"/><line x1="275.68" y1="144.89" x2="279.04" y2="156.70"/><line x1="330.42" y1="360.60" x2="331.00" y2="374.14"/><line x1="241.17" y1="125.28" x2="224.39" y2="119.26"/><line x1="131.10" y1="141.36" x2="131.27" y2="144.55"/><line x1="365.43" y1="90.34" x2="361.63" y2="72.74"/><line x1="273.88" y1="111.48" x2="285.76" y2="90.22"/><line x1="425.12" y1="149.80" x2="421.30" y2="134.66"/><line x1="215.34" y1="329.97" x2="201.40" y2="333.41"/><line x1="410.59" y1="384.90" x2="403.33" y2="380.17"/><line x1="258.89" y1="203.57" x2="75.96" y2="144.51"/><line x1="479.94" y1="173.98" x2="472.46" y2="415.64"/><line x1="331.03" y1="334.18" x2="330.55" y2="347.32"/><line x1="80.84" y1="95.68" x2="98.75" y2="102.45"/><line x1="404.96" y1="128.26" x2="403.54" y2="101.18"/><line x1="161.20" y1="138.23" x2="163.34" y2="143.18"/><line x1="332.13" y1="401.02" x2="339.97" y2="418.94"/><line x1="286.92" y1="425.98" x2="295.07" y2="450.98"/><line x1="178.25" y1="89.44" x2="189.05" y2="95.62"/><line x1="51.47" y1="106.40" x2="51.13" y2="115.32"/><line x1="382.11" y1="140.44" x2="398.76" y2="147.20"/><line x1="155.91" y1="421.67" x2="156.75" y2="437.16"/><line x1="121.08" y1="276.24" x2="146.24" y2="281.28"/><line x1="115.30" y1="64.21" x2="127.32" y2="81.29"/><line x1="455.49" y1="169.58" x2="476.73" y2="169.60"/><line x1="244.71" y1="83.45" x2="254.58" y2="95.34"/><line x1="191.20" y1="324.64" x2="178.23" y2="322.39"/><line x1="279.80" y1="428.22" x2="281.68" y2="403.37"/><line x1="80.84" y1="340.55" x2="88.63" y2="317.34"/><line x1="339.97" y1="418.94" x2="347.41" y2="433.44"/><line x1="258.89" y1="203.57" x2="122.94" y2="267.42"/><line x1="162.39" y1="138.76" x2="159.93" y2="129.98"/><line x1="51.82" y1="61.71" x2="51.91" y2="67.42"/><line x1="209.62" y1="138.57" x2="213.81" y2="149.55"/><line x1="365.97" y1="165.35" x2="364.84" y2="184.56"/><line x1="183.74" y1="378.86" x2="182.74" y2="387.36"/><line x1="359.21" y1="219.61" x2="384.21" y2="217.02"/><line x1="112.97" y1="132.10" x2="127.56" y2="132.00"/><line x1="204.20" y1="67.65" x2="200.92" y2="57.17"/><line x1="171.10" y1="73.79" x2="180.84" y2="81.94"/><line x1="440.54" y1="134.87" x2="436.39" y2="117.35"/><line x1="186.20" y1="127.87" x2="175.62" y2="111.03"/><line x1="410.11" y1="348.08" x2="435.74" y2="453.85"/><line x1="62.04" y1="322.23" x2="53.92" y2="350.92"/><line x1="438.35" y1="195.27" x2="436.69" y2="190.72"/><line x1="344.15" y1="130.53" x2="346.85" y2="142.99"/><line x1="363.83" y1="98.66" x2="365.43" y2="90.34"/><line x1="99.36" y1="355.18" x2="105.38" y2="327.53"/><line x1="479.94" y1="173.98" x2="452.05" y2="357.94"/><line x1="169.11" y1="319.66" x2="143.48" y2="325.21"/><line x1="127.32" y1="81.29" x2="121.99" y2="102.09"/><line x1="254.23" y1="351.30" x2="250.72" y2="330.25"/><line x1="44.61" y1="102.59" x2="41.04" y2="92.36"/><line x1="393.67" y1="403.82" x2="397.10" y2="421.84"/><line x1="232.21" y1="162.62" x2="252.68" y2="155.41"/><line x1="278.27" y1="142.83" x2="276.51" y2="127.72"/><line x1="393.26" y1="121.21" x2="382.11" y2="140.44"/><line x1="287.96" y1="346.19" x2="291.88" y2="369.11"/><line x1="211.39" y1="345.42" x2="201.33" y2="361.75"/><line x1="214.50" y1="120.22" x2="205.54" y2="102.19"/><line x1="317.12" y1="155.08" x2="332.22" y2="175.56"/><line x1="179.05" y1="337.41" x2="191.20" y2="324.64"/><line x1="371.64" y1="415.33" x2="387.53" y2="434.74"/><line x1="106.99" y1="98.24" x2="104.04" y2="86.52"/><line x1="73.55" y1="364.59" x2="80.84" y2="340.55"/><line x1="144.27" y1="376.69" x2="155.64" y2="405.43"/><line x1="148.98" y1="74.80" x2="134.13" y2="58.59"/><line x1="202.74" y1="115.61" x2="197.41" y2="101.40"/><line x1="207.96" y1="67.20" x2="200.92" y2="57.17"/><line x1="34.84" y1="70.15" x2="32.85" y2="60.55"/><line x1="241.03" y1="69.76" x2="241.08" y2="73.85"/><line x1="377.81" y1="169.85" x2="365.97" y2="165.35"/><line x1="275.68" y1="144.89" x2="261.26" y2="151.01"/><line x1="110.17" y1="65.58" x2="116.56" y2="83.90"/><line x1="112.52" y1="92.42" x2="106.25" y2="78.53"/><line x1="410.11" y1="348.08" x2="443.87" y2="380.41"/><line x1="131.10" y1="141.36" x2="161.20" y2="138.23"/><line x1="332.63" y1="388.06" x2="335.68" y2="402.50"/><line x1="34.54" y1="434.50" x2="32.18" y2="447.66"/><line x1="278.51" y1="74.31" x2="271.41" y2="60.12"/><line x1="479.94" y1="173.98" x2="476.15" y2="433.54"/><line x1="306.26" y1="419.78" x2="316.66" y2="443.49"/><line x1="331.03" y1="334.18" x2="312.03" y2="344.78"/><line x1="80.84" y1="95.68" x2="93.51" y2="92.24"/><line x1="90.41" y1="375.63" x2="92.82" y2="353.46"/><line x1="286.92" y1="425.98" x2="279.80" y2="428.22"/><line x1="51.47" y1="106.40" x2="66.08" y2="116.96"/><line x1="104.83" y1="412.64" x2="106.46" y2="389.29"/><line x1="266.56" y1="75.91" x2="262.10" y2="56.75"/><line x1="455.49" y1="169.58" x2="471.76" y2="161.51"/><line x1="265.09" y1="48.54" x2="260.16" y2="40.45"/><line x1="331.03" y1="334.18" x2="336.33" y2="349.25"/><line x1="78.27" y1="67.95" x2="79.71" y2="80.34"/><line x1="252.68" y1="155.41" x2="247.81" y2="140.81"/><line x1="205.37" y1="401.19" x2="208.28" y2="401.75"/><line x1="162.39" y1="138.76" x2="186.20" y2="127.87"/><line x1="380.89" y1="68.47" x2="387.14" y2="93.95"/><line x1="209.62" y1="138.57" x2="199.87" y2="150.80"/><line x1="413.84" y1="403.92" x2="412.03" y2="394.38"/><line x1="449.42" y1="111.50" x2="446.99" y2="99.47"/><line x1="262.49" y1="112.28" x2="269.84" y2="129.44"/><line x1="220.47" y1="329.30" x2="223.34" y2="347.80"/><line x1="82.52" y1="71.32" x2="88.08" y2="81.86"/><line x1="181.18" y1="371.72" x2="180.00" y2="354.46"/><line x1="359.21" y1="219.61" x2="362.62" y2="202.57"/><line x1="112.97" y1="132.10" x2="79.22" y2="138.39"/><line x1="407.48" y1="391.06" x2="410.59" y2="384.90"/><line x1="171.10" y1="73.79" x2="164.76" y2="62.68"/><line x1="421.30" y1="134.66" x2="398.96" y2="44.04"/><line x1="259.19" y1="137.13" x2="275.68" y2="144.89"/><line x1="410.11" y1="348.08" x2="435.43" y2="445.35"/><line x1="57.63" y1="85.37" x2="61.56" y2="100.84"/><line x1="62.04" y1="322.23" x2="44.61" y2="102.59"/><line x1="279.04" y1="156.70" x2="308.90" y2="168.89"/><line x1="344.15" y1="130.53" x2="335.11" y2="147.52"/><line x1="180.84" y1="81.94" x2="178.25" y2="89.44"/><line x1="279.04" y1="156.70" x2="278.27" y2="142.83"/><line x1="206.14" y1="298.33" x2="204.26" y2="308.09"/><line x1="369.57" y1="114.27" x2="373.79" y2="141.70"/><line x1="146.10" y1="88.34" x2="140.21" y2="72.94"/><line x1="88.08" y1="81.86" x2="80.84" y2="95.68"/><line x1="393.67" y1="403.82" x2="371.64" y2="415.33"/><line x1="278.27" y1="142.83" x2="298.17" y2="123.56"/><line x1="61.56" y1="100.84" x2="51.47" y2="106.40"/><line x1="163.34" y1="143.18" x2="199.74" y2="154.18"/><line x1="328.33" y1="76.12" x2="326.15" y2="70.03"/><line x1="383.87" y1="165.77" x2="385.18" y2="188.96"/><line x1="211.39" y1="345.42" x2="201.19" y2="348.57"/><line x1="214.50" y1="120.22" x2="202.74" y2="115.61"/><line x1="385.93" y1="210.39" x2="385.18" y2="188.96"/><line x1="331.23" y1="100.74" x2="333.45" y2="123.13"/><line x1="244.83" y1="402.76" x2="247.38" y2="415.99"/><line x1="465.79" y1="150.68" x2="455.49" y2="169.58"/><line x1="89.87" y1="405.86" x2="94.02" y2="382.18"/><line x1="106.99" y1="98.24" x2="112.52" y2="92.42"/><line x1="306.61" y1="155.17" x2="303.13" y2="139.98"/><line x1="208.88" y1="285.58" x2="208.95" y2="283.00"/><line x1="207.96" y1="67.20" x2="204.20" y2="67.65"/><line x1="34.84" y1="70.15" x2="34.54" y2="434.50"/><line x1="241.03" y1="69.76" x2="237.31" y2="64.97"/><line x1="197.02" y1="140.31" x2="209.62" y2="138.57"/><line x1="183.74" y1="378.86" x2="184.64" y2="359.46"/><line x1="406.78" y1="187.14" x2="438.35" y2="195.27"/><line x1="201.19" y1="348.57" x2="201.33" y2="361.75"/><line x1="110.17" y1="65.58" x2="102.96" y2="48.55"/><line x1="410.11" y1="348.08" x2="447.74" y2="366.64"/><line x1="108.52" y1="122.39" x2="112.97" y2="132.10"/><line x1="144.67" y1="302.51" x2="169.11" y2="319.66"/><line x1="75.96" y1="144.51" x2="70.95" y2="132.08"/><line x1="278.51" y1="74.31" x2="266.56" y2="75.91"/><line x1="363.83" y1="98.66" x2="365.36" y2="122.60"/><line x1="331.03" y1="334.18" x2="308.36" y2="331.18"/><line x1="341.02" y1="117.98" x2="344.15" y2="130.53"/><line x1="314.89" y1="115.61" x2="316.64" y2="136.10"/><line x1="90.41" y1="375.63" x2="99.36" y2="355.18"/><line x1="228.81" y1="371.41" x2="235.80" y2="396.59"/><line x1="186.74" y1="69.65" x2="178.12" y2="58.28"/><line x1="406.73" y1="183.21" x2="406.47" y2="170.96"/><line x1="478.76" y1="448.14" x2="480.00" y2="457.09"/><line x1="105.38" y1="327.53" x2="111.63" y2="301.89"/><line x1="252.95" y1="108.88" x2="256.57" y2="123.06"/><line x1="278.53" y1="364.05" x2="254.23" y2="351.30"/><line x1="123.19" y1="119.13" x2="118.17" y2="105.95"/><line x1="235.80" y1="396.59" x2="247.38" y2="415.99"/><line x1="199.74" y1="154.18" x2="232.21" y2="162.62"/><line x1="334.58" y1="212.77" x2="286.86" y2="315.21"/><line x1="245.63" y1="319.65" x2="244.00" y2="327.90"/><line x1="303.16" y1="333.79" x2="287.96" y2="346.19"/><line x1="207.33" y1="128.75" x2="214.50" y2="120.22"/><line x1="291.88" y1="369.11" x2="297.99" y2="394.31"/><line x1="78.27" y1="67.95" x2="76.84" y2="60.64"/><line x1="406.47" y1="170.96" x2="428.63" y2="163.13"/><line x1="126.31" y1="118.68" x2="129.39" y2="132.25"/><line x1="317.59" y1="362.15" x2="324.48" y2="381.49"/><line x1="51.92" y1="75.71" x2="51.86" y2="85.63"/><line x1="387.53" y1="434.74" x2="407.65" y2="455.87"/><line x1="209.15" y1="417.26" x2="210.46" y2="427.85"/><line x1="157.29" y1="372.34" x2="144.27" y2="376.69"/><line x1="248.11" y1="308.50" x2="207.81" y2="290.76"/><line x1="258.89" y1="203.57" x2="259.55" y2="199.47"/><line x1="311.80" y1="93.45" x2="314.89" y2="115.61"/><line x1="453.87" y1="124.70" x2="459.58" y2="138.08"/><line x1="314.54" y1="189.06" x2="311.63" y2="204.36"/><line x1="102.15" y1="292.84" x2="117.64" y2="280.97"/><line x1="421.30" y1="134.66" x2="401.57" y2="72.55"/><line x1="279.04" y1="156.70" x2="262.09" y2="175.18"/><line x1="324.48" y1="381.49" x2="332.63" y2="388.06"/><line x1="219.19" y1="103.10" x2="212.49" y2="85.93"/><line x1="147.26" y1="406.28" x2="152.63" y2="438.99"/><line x1="185.46" y1="107.30" x2="191.97" y2="125.03"/><line x1="146.10" y1="88.34" x2="148.98" y2="74.80"/><line x1="310.92" y1="415.86" x2="306.26" y2="419.78"/><line x1="399.31" y1="371.47" x2="395.87" y2="367.09"/><line x1="318.54" y1="105.18" x2="323.92" y2="128.19"/><line x1="199.74" y1="154.18" x2="79.22" y2="138.39"/><line x1="98.75" y1="102.45" x2="103.77" y2="112.51"/><line x1="401.57" y1="72.55" x2="398.96" y2="44.04"/><line x1="196.33" y1="309.31" x2="176.41" y2="305.76"/><line x1="163.34" y1="143.18" x2="194.15" y2="141.73"/><line x1="109.52" y1="400.13" x2="104.83" y2="412.64"/><line x1="439.38" y1="197.23" x2="436.39" y2="117.35"/><line x1="383.87" y1="165.77" x2="403.16" y2="168.89"/><line x1="331.23" y1="100.74" x2="337.67" y2="105.80"/><line x1="152.63" y1="438.99" x2="157.91" y2="451.09"/><line x1="89.87" y1="405.86" x2="87.35" y2="423.53"/><line x1="476.73" y1="169.60" x2="479.94" y2="173.98"/><line x1="381.38" y1="195.89" x2="384.21" y2="217.02"/><line x1="281.68" y1="403.37" x2="279.00" y2="382.83"/><line x1="256.02" y1="168.74" x2="252.68" y2="155.41"/><line x1="76.34" y1="288.62" x2="69.76" y2="300.08"/><line x1="138.48" y1="98.52" x2="148.22" y2="114.61"/><line x1="261.45" y1="185.07" x2="260.51" y2="193.23"/><line x1="377.57" y1="81.83" x2="380.89" y2="68.47"/><line x1="248.11" y1="308.50" x2="258.89" y2="203.57"/><line x1="175.62" y1="111.03" x2="163.01" y2="92.81"/><line x1="113.68" y1="326.95" x2="132.02" y2="316.08"/><line x1="202.56" y1="319.85" x2="201.40" y2="333.41"/><line x1="434.48" y1="183.75" x2="431.77" y2="174.50"/><line x1="241.04" y1="361.48" x2="241.68" y2="375.09"/><line x1="392.18" y1="373.77" x2="391.73" y2="386.91"/><line x1="75.96" y1="144.51" x2="76.34" y2="288.62"/><line x1="208.95" y1="283.00" x2="202.34" y2="295.41"/><line x1="233.79" y1="109.70" x2="225.24" y2="94.28"/><line x1="328.72" y1="82.38" x2="331.23" y2="100.74"/><line x1="105.38" y1="327.53" x2="98.80" y2="312.17"/><line x1="398.76" y1="147.20" x2="403.16" y2="168.89"/><line x1="409.61" y1="375.49" x2="409.15" y2="366.21"/><line x1="235.80" y1="396.59" x2="244.83" y2="402.76"/><line x1="330.55" y1="347.32" x2="330.42" y2="360.60"/><line x1="395.87" y1="367.09" x2="342.33" y2="364.62"/><line x1="202.34" y1="295.41" x2="196.33" y2="309.31"/><line x1="41.04" y1="92.36" x2="37.67" y2="81.15"/><line x1="178.23" y1="322.39" x2="177.38" y2="311.23"/><line x1="118.17" y1="105.95" x2="106.99" y2="98.24"/><line x1="76.34" y1="288.62" x2="80.84" y2="340.55"/><line x1="291.88" y1="369.11" x2="305.39" y2="391.86"/><line x1="221.25" y1="319.48" x2="215.34" y2="329.97"/><line x1="241.42" y1="348.98" x2="241.04" y2="361.48"/><line x1="238.45" y1="67.42" x2="241.03" y2="69.76"/><line x1="405.91" y1="152.08" x2="404.96" y2="128.26"/><line x1="51.92" y1="75.71" x2="57.63" y2="85.37"/><line x1="387.53" y1="434.74" x2="404.96" y2="450.53"/><line x1="364.84" y1="184.56" x2="362.62" y2="202.57"/><line x1="452.05" y1="357.94" x2="410.11" y2="348.08"/><line x1="248.11" y1="308.50" x2="208.88" y2="285.58"/><line x1="359.21" y1="219.61" x2="410.11" y2="348.08"/><line x1="155.64" y1="405.43" x2="155.91" y2="421.67"/><line x1="453.87" y1="124.70" x2="450.11" y2="129.55"/><line x1="208.95" y1="283.00" x2="258.89" y2="203.57"/><line x1="197.41" y1="101.40" x2="191.44" y2="86.73"/><line x1="270.52" y1="94.18" x2="278.51" y2="74.31"/><line x1="156.75" y1="437.16" x2="152.63" y2="438.99"/><line x1="184.97" y1="72.16" x2="186.74" y2="69.65"/><line x1="342.33" y1="364.62" x2="349.75" y2="380.56"/><line x1="254.32" y1="443.47" x2="255.10" y2="445.87"/><line x1="206.14" y1="298.33" x2="221.25" y2="319.48"/><line x1="185.46" y1="107.30" x2="196.85" y2="110.41"/><line x1="208.17" y1="383.29" x2="208.28" y2="401.75"/><line x1="143.48" y1="325.21" x2="162.17" y2="342.51"/><line x1="96.53" y1="62.23" x2="91.92" y2="49.62"/><line x1="213.81" y1="149.55" x2="222.33" y2="137.35"/><line x1="318.54" y1="105.18" x2="314.89" y2="115.61"/><line x1="262.10" y1="56.75" x2="257.29" y2="36.78"/><line x1="98.75" y1="102.45" x2="81.34" y2="111.87"/><line x1="414.27" y1="410.79" x2="415.99" y2="415.34"/><line x1="92.82" y1="353.46" x2="95.65" y2="332.34"/><line x1="248.84" y1="95.40" x2="252.95" y2="108.88"/><line x1="52.45" y1="63.06" x2="54.52" y2="72.22"/><line x1="439.38" y1="197.23" x2="440.54" y2="134.87"/><line x1="182.74" y1="387.36" x2="184.78" y2="399.55"/><line x1="435.43" y1="445.35" x2="435.74" y2="453.85"/><line x1="53.92" y1="350.92" x2="46.15" y2="381.96"/><line x1="221.25" y1="319.48" x2="245.63" y2="319.65"/><line x1="446.83" y1="101.23" x2="448.01" y2="112.32"/><line x1="476.73" y1="169.60" x2="457.95" y2="185.99"/><line x1="119.61" y1="355.64" x2="113.68" y2="326.95"/><line x1="301.52" y1="349.60" x2="302.26" y2="369.37"/><line x1="138.48" y1="98.52" x2="126.31" y2="118.68"/><line x1="261.45" y1="185.07" x2="311.00" y2="190.98"/><line x1="54.52" y1="72.22" x2="51.92" y2="75.71"/><line x1="459.72" y1="195.72" x2="410.11" y2="348.08"/><line x1="248.11" y1="308.50" x2="247.09" y2="313.13"/><line x1="207.23" y1="412.30" x2="209.15" y2="417.26"/><line x1="432.11" y1="98.47" x2="427.47" y2="78.01"/><line x1="175.62" y1="111.03" x2="151.52" y2="103.70"/><line x1="113.68" y1="326.95" x2="125.55" y2="335.26"/><line x1="224.39" y1="119.26" x2="233.79" y2="109.70"/><line x1="448.01" y1="112.32" x2="453.87" y2="124.70"/><line x1="262.09" y1="175.18" x2="310.27" y2="180.91"/><line x1="311.63" y1="204.36" x2="258.89" y2="203.57"/><line x1="316.40" y1="172.69" x2="314.54" y2="189.06"/><line x1="208.95" y1="283.00" x2="146.24" y2="281.28"/><line x1="127.56" y1="132.00" x2="123.19" y2="119.13"/><line x1="403.33" y1="380.17" x2="409.61" y2="375.49"/><line x1="261.26" y1="151.01" x2="279.04" y2="156.70"/><line x1="250.72" y1="330.25" x2="248.86" y2="315.24"/><line x1="233.79" y1="109.70" x2="219.19" y2="103.10"/><line x1="328.72" y1="82.38" x2="331.11" y2="84.42"/><line x1="189.05" y1="95.62" x2="185.46" y2="107.30"/><line x1="212.49" y1="85.93" x2="204.20" y2="67.65"/><line x1="276.51" y1="127.72" x2="273.88" y2="111.48"/><line x1="398.76" y1="147.20" x2="383.87" y2="165.77"/><line x1="75.96" y1="144.51" x2="258.07" y2="180.52"/><line x1="331.11" y1="84.42" x2="334.29" y2="94.47"/><line x1="409.61" y1="375.49" x2="399.31" y2="371.47"/><line x1="146.24" y1="281.28" x2="122.94" y2="267.42"/><line x1="93.51" y1="92.24" x2="98.75" y2="102.45"/><line x1="395.87" y1="367.09" x2="336.33" y2="349.25"/><line x1="243.22" y1="419.76" x2="250.02" y2="437.38"/><line x1="178.23" y1="322.39" x2="196.33" y2="309.31"/><line x1="308.90" y1="168.89" x2="310.27" y2="180.91"/><line x1="146.24" y1="281.28" x2="202.34" y2="295.41"/><line x1="76.34" y1="288.62" x2="73.55" y2="364.59"/><line x1="66.08" y1="116.96" x2="51.13" y2="115.32"/><line x1="104.04" y1="86.52" x2="100.56" y2="74.52"/><line x1="221.25" y1="319.48" x2="220.47" y2="329.30"/><line x1="88.63" y1="317.34" x2="96.89" y2="295.16"/><line x1="310.27" y1="180.91" x2="311.00" y2="190.98"/><line x1="471.76" y1="161.51" x2="476.73" y2="169.60"/><line x1="241.08" y1="73.85" x2="244.71" y2="83.45"/><line x1="364.84" y1="184.56" x2="381.38" y2="195.89"/><line x1="80.91" y1="126.81" x2="79.22" y2="138.39"/><line x1="51.13" y1="115.32" x2="76.34" y2="288.62"/><line x1="336.33" y1="349.25" x2="342.33" y2="364.62"/><line x1="377.57" y1="81.83" x2="379.99" y2="112.59"/><line x1="200.92" y1="57.17" x2="196.05" y2="50.55"/><line x1="76.34" y1="288.62" x2="105.59" y2="274.25"/><line x1="159.93" y1="129.98" x2="156.22" y2="117.93"/><line x1="131.27" y1="144.55" x2="127.56" y2="132.00"/><line x1="271.41" y1="60.12" x2="265.09" y2="48.54"/><line x1="436.69" y1="190.72" x2="434.48" y2="183.75"/><line x1="335.11" y1="147.52" x2="359.21" y2="219.61"/><line x1="342.33" y1="364.62" x2="392.18" y2="373.77"/><line x1="208.17" y1="383.29" x2="205.37" y2="401.19"/><line x1="143.48" y1="325.21" x2="165.49" y2="330.09"/><line x1="279.92" y1="346.73" x2="282.81" y2="330.56"/><line x1="213.81" y1="149.55" x2="228.44" y2="152.01"/><line x1="143.18" y1="349.80" x2="144.27" y2="376.69"/><line x1="316.64" y1="136.10" x2="317.12" y2="155.08"/><line x1="298.17" y1="123.56" x2="292.53" y2="106.94"/><line x1="92.82" y1="353.46" x2="105.38" y2="327.53"/><line x1="256.57" y1="123.06" x2="259.19" y2="137.13"/><line x1="312.03" y1="344.78" x2="330.55" y2="347.32"/><line x1="332.22" y1="175.56" x2="316.40" y2="172.69"/><line x1="247.38" y1="415.99" x2="250.07" y2="427.72"/><line x1="53.92" y1="350.92" x2="41.04" y2="92.36"/><line x1="397.10" y1="421.84" x2="401.15" y2="438.29"/><line x1="201.33" y1="361.75" x2="202.21" y2="375.31"/><line x1="387.14" y1="93.95" x2="393.26" y2="121.21"/><line x1="244.00" y1="327.90" x2="220.47" y2="329.30"/><line x1="301.52" y1="349.60" x2="291.88" y2="369.11"/><line x1="205.54" y1="102.19" x2="196.09" y2="84.81"/><line x1="425.12" y1="149.80" x2="405.91" y2="152.08"/><line x1="180.00" y1="354.46" x2="179.05" y2="337.41"/><line x1="438.35" y1="195.27" x2="439.38" y2="197.23"/><line x1="209.10" y1="363.85" x2="208.17" y2="383.29"/><line x1="161.20" y1="138.23" x2="131.27" y2="144.55"/><line x1="332.13" y1="401.02" x2="340.49" y2="417.58"/><line x1="207.81" y1="290.76" x2="206.14" y2="298.33"/><line x1="79.22" y1="138.39" x2="75.96" y2="144.51"/><line x1="32.85" y1="60.55" x2="32.00" y2="53.54"/><line x1="373.79" y1="141.70" x2="377.81" y2="169.85"/><line x1="318.84" y1="440.13" x2="329.16" y2="463.46"/><line x1="115.30" y1="64.21" x2="116.56" y2="83.90"/><line x1="131.27" y1="144.55" x2="163.34" y2="143.18"/><line x1="279.80" y1="428.22" x2="295.07" y2="450.98"/><line x1="212.49" y1="85.93" x2="207.96" y2="67.20"/><line x1="202.21" y1="375.31" x2="203.63" y2="388.65"/><line x1="194.15" y1="141.73" x2="186.20" y2="127.87"/><line x1="75.96" y1="144.51" x2="259.07" y2="190.46"/><line x1="331.11" y1="84.42" x2="331.23" y2="100.74"/><line x1="199.74" y1="154.18" x2="213.81" y2="149.55"/><line x1="258.89" y1="203.57" x2="146.24" y2="281.28"/><line x1="431.77" y1="174.50" x2="428.63" y2="163.13"/><line x1="51.82" y1="61.71" x2="51.67" y2="59.57"/><line x1="76.34" y1="288.62" x2="66.79" y2="389.24"/><line x1="201.33" y1="361.75" x2="209.10" y2="363.85"/><line x1="230.79" y1="148.92" x2="228.22" y2="134.50"/><line x1="310.27" y1="180.91" x2="261.45" y2="185.07"/><line x1="232.21" y1="162.62" x2="228.44" y2="152.01"/><line x1="186.20" y1="127.87" x2="159.93" y2="129.98"/><line x1="199.87" y1="150.80" x2="213.81" y2="149.55"/><line x1="411.28" y1="401.98" x2="407.48" y2="391.06"/><line x1="449.22" y1="166.72" x2="444.75" y2="151.26"/><line x1="99.36" y1="355.18" x2="92.82" y2="353.46"/><line x1="184.64" y1="359.46" x2="187.22" y2="341.37"/><line x1="479.94" y1="173.98" x2="457.47" y2="365.59"/><line x1="172.61" y1="70.56" x2="180.84" y2="81.94"/><line x1="159.93" y1="129.98" x2="175.62" y2="111.03"/><line x1="308.36" y1="331.18" x2="312.03" y2="344.78"/><line x1="254.23" y1="351.30" x2="279.92" y2="346.73"/><line x1="307.18" y1="323.18" x2="303.16" y2="333.79"/><line x1="60.59" y1="414.28" x2="66.79" y2="389.24"/><line x1="44.61" y1="102.59" x2="53.92" y2="350.92"/><line x1="132.02" y1="316.08" x2="138.94" y2="298.10"/><line x1="335.11" y1="147.52" x2="346.85" y2="142.99"/><line x1="232.21" y1="162.62" x2="256.02" y2="168.74"/><line x1="287.96" y1="346.19" x2="301.52" y2="349.60"/><line x1="391.73" y1="386.91" x2="393.67" y2="403.82"/><line x1="365.36" y1="122.60" x2="366.10" y2="144.76"/><line x1="476.15" y1="433.54" x2="472.46" y2="415.64"/><line x1="311.63" y1="204.36" x2="259.55" y2="199.47"/><line x1="279.92" y1="346.73" x2="250.72" y2="330.25"/><line x1="428.63" y1="163.13" x2="425.12" y2="149.80"/><line x1="143.18" y1="349.80" x2="157.29" y2="372.34"/><line x1="371.64" y1="415.33" x2="397.10" y2="421.84"/><line x1="225.24" y1="94.28" x2="216.35" y2="79.85"/><line x1="298.17" y1="123.56" x2="276.51" y2="127.72"/><line x1="459.58" y1="138.08" x2="465.79" y2="150.68"/><line x1="144.27" y1="376.69" x2="156.17" y2="389.26"/><line x1="148.98" y1="74.80" x2="140.21" y2="72.94"/><line x1="403.16" y1="168.89" x2="406.00" y2="183.21"/><line x1="202.74" y1="115.61" x2="205.54" y2="102.19"/><line x1="409.15" y1="366.21" x2="409.29" y2="357.06"/><line x1="247.38" y1="415.99" x2="243.22" y2="419.76"/><line x1="88.56" y1="398.96" x2="90.41" y2="375.63"/><line x1="334.58" y1="212.77" x2="335.92" y2="194.35"/><line x1="397.10" y1="421.84" x2="387.53" y2="434.74"/><line x1="117.64" y1="280.97" x2="105.59" y2="274.25"/><line x1="250.02" y1="437.38" x2="255.10" y2="445.87"/><line x1="112.52" y1="92.42" x2="104.04" y2="86.52"/><line x1="156.17" y1="389.26" x2="155.64" y2="405.43"/><line x1="140.21" y1="72.94" x2="134.13" y2="58.59"/><line x1="385.18" y1="188.96" x2="406.78" y2="187.14"/><line x1="332.63" y1="388.06" x2="332.13" y2="401.02"/><line x1="205.54" y1="102.19" x2="197.41" y2="101.40"/><line x1="34.54" y1="434.50" x2="32.85" y2="60.55"/><line x1="479.94" y1="173.98" x2="480.00" y2="457.09"/><line x1="306.26" y1="419.78" x2="318.84" y2="440.13"/><line x1="459.72" y1="195.72" x2="454.14" y2="181.46"/><line x1="447.74" y1="366.64" x2="443.87" y2="380.41"/><line x1="332.13" y1="401.02" x2="335.68" y2="402.50"/><line x1="79.22" y1="138.39" x2="232.21" y2="162.62"/><line x1="32.85" y1="60.55" x2="32.18" y2="447.66"/><line x1="104.83" y1="412.64" x2="105.52" y2="424.27"/><line x1="266.56" y1="75.91" x2="271.41" y2="60.12"/><line x1="415.96" y1="413.47" x2="413.84" y2="403.92"/><line x1="359.21" y1="219.61" x2="331.03" y2="334.18"/><line x1="318.84" y1="440.13" x2="316.66" y2="443.49"/><line x1="115.30" y1="64.21" x2="102.96" y2="48.55"/><line x1="254.58" y1="95.34" x2="262.49" y2="112.28"/><line x1="222.33" y1="137.35" x2="214.50" y2="120.22"/><line x1="323.92" y1="128.19" x2="328.61" y2="152.25"/><line x1="443.87" y1="380.41" x2="440.57" y2="397.20"/><line x1="157.91" y1="451.09" x2="159.15" y2="462.62"/><line x1="454.14" y1="181.46" x2="449.22" y2="166.72"/><line x1="202.21" y1="375.31" x2="208.17" y2="383.29"/><line x1="252.68" y1="155.41" x2="230.79" y2="148.92"/><line x1="232.21" y1="162.62" x2="75.96" y2="144.51"/><line x1="199.74" y1="154.18" x2="199.87" y2="150.80"/><line x1="337.67" y1="105.80" x2="341.02" y2="117.98"/><line x1="159.15" y1="462.62" x2="160.23" y2="470.94"/><line x1="431.77" y1="174.50" x2="406.47" y2="170.96"/><line x1="380.89" y1="68.47" x2="374.97" y2="47.81"/><line x1="204.26" y1="308.09" x2="202.56" y2="319.85"/><line x1="51.82" y1="61.71" x2="52.45" y2="63.06"/><line x1="413.84" y1="403.92" x2="411.28" y2="401.98"/><line x1="262.49" y1="112.28" x2="256.57" y2="123.06"/><line x1="82.52" y1="71.32" x2="79.71" y2="80.34"/><line x1="230.79" y1="148.92" x2="247.81" y2="140.81"/><line x1="181.18" y1="371.72" x2="184.64" y2="359.46"/><line x1="148.22" y1="114.61" x2="155.98" y2="128.27"/><line x1="171.10" y1="73.79" x2="172.61" y2="70.56"/><line x1="410.11" y1="348.08" x2="436.22" y2="431.72"/><line x1="57.63" y1="85.37" x2="51.72" y2="96.18"/><line x1="411.28" y1="401.98" x2="412.03" y2="394.38"/><line x1="125.55" y1="335.26" x2="132.02" y2="316.08"/><line x1="450.11" y1="129.55" x2="452.74" y2="149.70"/><line x1="184.64" y1="359.46" x2="180.00" y2="354.46"/><line x1="479.94" y1="173.98" x2="462.85" y2="379.32"/><line x1="196.09" y1="84.81" x2="186.74" y2="69.65"/><line x1="334.34" y1="196.34" x2="334.58" y2="212.77"/><line x1="172.61" y1="70.56" x2="164.76" y2="62.68"/><line x1="369.57" y1="114.27" x2="365.36" y2="122.60"/><line x1="60.59" y1="414.28" x2="54.97" y2="439.51"/><line x1="132.02" y1="316.08" x2="117.74" y2="297.71"/><line x1="196.85" y1="110.41" x2="203.83" y2="125.13"/><line x1="365.36" y1="122.60" x2="373.79" y2="141.70"/><line x1="51.86" y1="85.63" x2="51.72" y2="96.18"/><line x1="311.63" y1="204.36" x2="311.36" y2="198.88"/><line x1="385.93" y1="210.39" x2="439.38" y2="197.23"/><line x1="248.86" y1="315.24" x2="248.11" y2="308.50"/><line x1="81.34" y1="111.87" x2="80.91" y2="126.81"/><line x1="225.24" y1="94.28" x2="212.49" y2="85.93"/><line x1="198.87" y1="151.04" x2="199.74" y2="154.18"/><line x1="459.58" y1="138.08" x2="452.74" y2="149.70"/><line x1="191.97" y1="125.03" x2="197.02" y2="140.31"/><line x1="403.16" y1="168.89" x2="385.18" y2="188.96"/><line x1="208.88" y1="285.58" x2="207.81" y2="290.76"/><line x1="409.15" y1="366.21" x2="395.87" y2="367.09"/><line x1="88.56" y1="398.96" x2="94.02" y2="382.18"/><line x1="183.74" y1="378.86" x2="181.18" y2="371.72"/><line x1="103.77" y1="112.51" x2="108.52" y2="122.39"/><line x1="250.02" y1="437.38" x2="254.32" y2="443.47"/><line x1="457.95" y1="185.99" x2="459.72" y2="195.72"/><line x1="110.17" y1="65.58" x2="115.30" y2="64.21"/><line x1="177.38" y1="311.23" x2="176.41" y2="305.76"/><line x1="268.25" y1="402.53" x2="259.90" y2="376.14"/><line x1="112.97" y1="132.10" x2="111.44" y2="121.01"/><line x1="312.88" y1="85.02" x2="318.54" y2="105.18"/><line x1="311.00" y1="190.98" x2="311.36" y2="198.88"/><line x1="247.09" y1="313.13" x2="245.63" y2="319.65"/><line x1="363.83" y1="98.66" x2="369.57" y2="114.27"/><line x1="479.94" y1="173.98" x2="478.76" y2="448.14"/><line x1="362.62" y1="202.57" x2="384.21" y2="217.02"/><line x1="314.89" y1="115.61" x2="323.92" y2="128.19"/><line x1="228.81" y1="371.41" x2="242.80" y2="388.86"/><line x1="349.75" y1="380.56" x2="359.29" y2="397.36"/><line x1="260.51" y1="193.23" x2="259.55" y2="199.47"/><line x1="252.95" y1="108.88" x2="262.49" y2="112.28"/><line x1="123.19" y1="119.13" x2="109.45" y2="109.74"/><line x1="162.17" y1="342.51" x2="159.36" y2="356.68"/><line x1="222.33" y1="137.35" x2="207.33" y2="128.75"/><line x1="323.92" y1="128.19" x2="316.64" y2="136.10"/><line x1="385.93" y1="210.39" x2="438.35" y2="195.27"/><line x1="359.21" y1="219.61" x2="335.92" y2="194.35"/><line x1="78.27" y1="67.95" x2="82.52" y2="71.32"/><line x1="126.31" y1="118.68" x2="148.22" y2="114.61"/><line x1="317.59" y1="362.15" x2="331.00" y2="374.14"/></g></svg>