<svg xmlns="http://www.w3.org/2000/svg" width="512" height="512"><rect width="512" height="512" fill="#0a0f1a"/><text x="12" y="20" font-family="monospace" font-size="11" fill="#4a7fa5">FRONT (XZ)</text><g stroke="#00d4ff" stroke-width="0.6" opacity="0.85"><line x1="376.97" y1="107.42" x2="380.55" y2="108.91"/><line x1="62.13" y1="383.75" x2="35.58" y2="111.85"/><line x1="349.57" y1="388.27" x2="337.05" y2="118.06"/><line x1="66.79" y1="108.73" x2="77.64" y2="117.99"/><line x1="366.85" y1="417.49" x2="365.59" y2="416.27"/><line x1="173.90" y1="116.38" x2="176.54" y2="114.16"/><line x1="373.03" y1="393.96" x2="388.01" y2="406.36"/><line x1="271.43" y1="384.47" x2="269.93" y2="384.37"/><line x1="107.93" y1="384.78" x2="107.43" y2="383.11"/><line x1="388.01" y1="406.36" x2="389.67" y2="406.13"/><line x1="189.93" y1="403.30" x2="184.63" y2="401.76"/><line x1="243.02" y1="403.09" x2="253.26" y2="397.15"/><line x1="74.71" y1="406.31" x2="73.59" y2="404.98"/><line x1="184.63" y1="401.76" x2="190.78" y2="401.70"/><line x1="215.15" y1="96.56" x2="216.79" y2="105.34"/><line x1="407.86" y1="120.10" x2="440.10" y2="394.30"/><line x1="377.93" y1="416.87" x2="379.30" y2="416.72"/><line x1="202.59" y1="383.17" x2="163.67" y2="385.50"/><line x1="317.53" y1="397.40" x2="315.71" y2="394.81"/><line x1="78.39" y1="393.16" x2="88.12" y2="400.83"/><line x1="411.06" y1="123.21" x2="450.75" y2="408.40"/><line x1="315.71" y1="394.81" x2="319.18" y2="397.67"/><line x1="261.54" y1="385.48" x2="259.51" y2="386.38"/><line x1="426.51" y1="112.64" x2="425.62" y2="114.21"/><line x1="340.06" y1="115.30" x2="380.55" y2="108.91"/><line x1="320.56" y1="397.60" x2="313.90" y2="380.66"/><line x1="376.97" y1="107.42" x2="350.93" y2="102.66"/><line x1="62.13" y1="383.75" x2="46.33" y2="123.25"/><line x1="96.78" y1="391.17" x2="94.79" y2="392.45"/><line x1="272.80" y1="122.58" x2="276.46" y2="121.10"/><line x1="296.20" y1="128.91" x2="336.33" y2="390.89"/><line x1="62.13" y1="383.75" x2="77.71" y2="121.38"/><line x1="78.39" y1="393.16" x2="128.47" y2="128.45"/><line x1="55.69" y1="110.22" x2="53.49" y2="112.06"/><line x1="283.51" y1="381.30" x2="301.32" y2="381.92"/><line x1="336.33" y1="390.89" x2="294.93" y2="129.09"/><line x1="326.56" y1="392.10" x2="293.57" y2="128.98"/><line x1="95.32" y1="112.24" x2="93.89" y2="114.41"/><line x1="306.01" y1="130.28" x2="308.32" y2="130.10"/><line x1="372.08" y1="419.89" x2="370.18" y2="419.19"/><line x1="245.14" y1="112.64" x2="248.49" y2="112.16"/><line x1="297.73" y1="384.84" x2="301.10" y2="384.49"/><line x1="275.85" y1="382.87" x2="275.20" y2="383.84"/><line x1="179.16" y1="110.06" x2="184.49" y2="107.24"/><line x1="376.79" y1="417.19" x2="364.35" y2="413.36"/><line x1="92.50" y1="108.10" x2="93.89" y2="114.41"/><line x1="184.49" y1="107.24" x2="179.83" y2="108.00"/><line x1="184.77" y1="404.67" x2="184.73" y2="403.69"/><line x1="72.69" y1="399.52" x2="73.20" y2="398.18"/><line x1="373.03" y1="393.96" x2="392.49" y2="405.08"/><line x1="164.86" y1="389.75" x2="164.97" y2="390.37"/><line x1="274.17" y1="384.34" x2="275.20" y2="383.84"/><line x1="73.20" y1="398.18" x2="73.99" y2="397.18"/><line x1="120.82" y1="129.45" x2="119.28" y2="130.35"/><line x1="407.86" y1="120.10" x2="349.57" y2="388.27"/><line x1="156.13" y1="387.92" x2="151.48" y2="390.15"/><line x1="466.25" y1="407.92" x2="467.95" y2="404.47"/><line x1="220.04" y1="98.57" x2="217.66" y2="97.55"/><line x1="49.63" y1="123.24" x2="46.33" y2="123.25"/><line x1="164.65" y1="386.58" x2="170.62" y2="390.97"/><line x1="32.96" y1="114.43" x2="57.53" y2="384.97"/><line x1="119.28" y1="130.35" x2="117.75" y2="131.11"/><line x1="230.13" y1="394.95" x2="230.03" y2="396.55"/><line x1="460.82" y1="124.86" x2="471.41" y2="399.02"/><line x1="218.30" y1="123.88" x2="304.94" y2="381.60"/><line x1="46.98" y1="395.07" x2="44.94" y2="394.38"/><line x1="471.41" y1="399.02" x2="473.39" y2="398.35"/><line x1="315.80" y1="395.70" x2="316.53" y2="396.99"/><line x1="343.39" y1="105.84" x2="340.60" y2="106.87"/><line x1="326.56" y1="392.10" x2="281.68" y2="124.21"/><line x1="339.33" y1="111.92" x2="338.09" y2="108.03"/><line x1="308.32" y1="130.10" x2="346.45" y2="388.56"/><line x1="32.96" y1="114.43" x2="39.26" y2="390.57"/><line x1="252.23" y1="114.75" x2="241.73" y2="118.81"/><line x1="77.66" y1="119.69" x2="77.71" y2="121.38"/><line x1="218.30" y1="123.88" x2="169.97" y2="118.48"/><line x1="84.35" y1="112.91" x2="82.63" y2="115.81"/><line x1="364.67" y1="414.66" x2="364.35" y2="413.36"/><line x1="124.39" y1="393.54" x2="107.93" y2="384.78"/><line x1="176.54" y1="114.16" x2="178.18" y2="112.09"/><line x1="82.63" y1="115.81" x2="92.75" y2="119.04"/><line x1="268.48" y1="384.36" x2="266.04" y2="384.54"/><line x1="371.70" y1="395.43" x2="380.76" y2="416.48"/><line x1="186.28" y1="406.98" x2="184.78" y2="405.66"/><line x1="391.20" y1="405.72" x2="392.49" y2="405.08"/><line x1="95.55" y1="108.07" x2="99.28" y2="108.30"/><line x1="266.04" y1="384.54" x2="263.72" y2="384.89"/><line x1="239.98" y1="401.05" x2="253.44" y2="395.14"/><line x1="184.55" y1="400.83" x2="191.41" y2="400.04"/><line x1="218.30" y1="123.88" x2="266.04" y2="384.54"/><line x1="168.76" y1="391.25" x2="164.81" y2="388.94"/><line x1="253.44" y1="395.14" x2="237.20" y2="398.73"/><line x1="454.05" y1="413.37" x2="458.23" y2="412.82"/><line x1="222.04" y1="99.45" x2="221.09" y2="102.48"/><line x1="210.81" y1="95.42" x2="209.49" y2="95.65"/><line x1="425.06" y1="112.41" x2="423.65" y2="112.05"/><line x1="357.50" y1="99.71" x2="354.91" y2="100.58"/><line x1="315.58" y1="393.77" x2="320.56" y2="397.60"/><line x1="32.96" y1="114.43" x2="53.10" y2="386.85"/><line x1="423.88" y1="112.80" x2="422.30" y2="111.51"/><line x1="276.46" y1="121.10" x2="278.16" y2="122.56"/><line x1="460.82" y1="124.86" x2="477.72" y2="396.94"/><line x1="338.74" y1="116.64" x2="337.05" y2="118.06"/><line x1="96.58" y1="390.22" x2="93.66" y2="392.17"/><line x1="339.50" y1="389.87" x2="342.98" y2="389.09"/><line x1="248.49" y1="112.16" x2="243.91" y2="114.85"/><line x1="70.84" y1="108.98" x2="66.79" y2="108.73"/><line x1="53.06" y1="112.91" x2="52.89" y2="113.79"/><line x1="365.33" y1="405.18" x2="365.90" y2="404.02"/><line x1="93.89" y1="114.41" x2="87.89" y2="109.36"/><line x1="146.79" y1="129.25" x2="147.79" y2="126.99"/><line x1="333.81" y1="392.17" x2="329.71" y2="393.48"/><line x1="179.83" y1="108.00" x2="183.36" y2="105.61"/><line x1="397.67" y1="399.97" x2="401.36" y2="398.43"/><line x1="218.30" y1="123.88" x2="173.90" y2="116.38"/><line x1="401.36" y1="398.43" x2="404.99" y2="396.66"/><line x1="178.12" y1="393.54" x2="182.85" y2="400.81"/><line x1="62.13" y1="383.75" x2="109.35" y2="131.57"/><line x1="276.04" y1="381.27" x2="271.43" y2="384.47"/><line x1="407.86" y1="120.10" x2="420.35" y2="392.59"/><line x1="77.71" y1="121.38" x2="52.03" y2="119.71"/><line x1="386.32" y1="406.47" x2="388.01" y2="406.36"/><line x1="224.89" y1="386.46" x2="223.27" y2="385.78"/><line x1="182.85" y1="400.81" x2="177.63" y2="394.51"/><line x1="142.50" y1="135.23" x2="139.60" y2="135.97"/><line x1="81.10" y1="404.62" x2="81.22" y2="403.85"/><line x1="184.69" y1="402.71" x2="184.63" y2="401.76"/><line x1="74.99" y1="396.35" x2="76.10" y2="395.51"/><line x1="204.87" y1="381.78" x2="160.59" y2="383.64"/><line x1="217.66" y1="97.55" x2="215.15" y2="96.56"/><line x1="34.19" y1="113.21" x2="32.96" y2="114.43"/><line x1="431.03" y1="113.09" x2="429.50" y2="112.92"/><line x1="267.28" y1="124.13" x2="236.72" y2="123.27"/><line x1="413.45" y1="124.20" x2="416.32" y2="124.54"/><line x1="431.85" y1="399.24" x2="431.33" y2="397.11"/><line x1="427.38" y1="115.73" x2="425.62" y2="114.21"/><line x1="218.30" y1="123.88" x2="221.09" y2="385.28"/><line x1="475.51" y1="397.66" x2="477.72" y2="396.94"/><line x1="312.09" y1="380.57" x2="313.90" y2="380.66"/><line x1="326.56" y1="392.10" x2="228.88" y2="124.73"/><line x1="96.96" y1="392.10" x2="97.08" y2="393.00"/><line x1="90.26" y1="391.46" x2="96.10" y2="386.32"/><line x1="62.13" y1="383.75" x2="36.96" y2="110.73"/><line x1="349.57" y1="388.27" x2="310.18" y2="129.55"/><line x1="95.94" y1="392.73" x2="96.78" y2="391.17"/><line x1="375.73" y1="419.28" x2="376.02" y2="417.91"/><line x1="52.47" y1="119.00" x2="52.03" y2="119.71"/><line x1="157.42" y1="382.04" x2="165.21" y2="120.16"/><line x1="254.14" y1="115.73" x2="256.10" y2="116.66"/><line x1="74.51" y1="109.30" x2="70.84" y2="108.98"/><line x1="77.71" y1="121.38" x2="55.69" y2="110.22"/><line x1="156.08" y1="124.78" x2="157.40" y2="125.27"/><line x1="92.75" y1="119.04" x2="82.20" y2="117.05"/><line x1="191.79" y1="398.37" x2="199.21" y2="398.13"/><line x1="148.90" y1="389.87" x2="145.69" y2="389.40"/><line x1="79.16" y1="407.65" x2="77.59" y2="407.69"/><line x1="176.43" y1="391.17" x2="174.45" y2="390.65"/><line x1="164.81" y1="388.94" x2="164.86" y2="389.75"/><line x1="224.89" y1="386.46" x2="259.51" y2="386.38"/><line x1="301.32" y1="381.92" x2="303.14" y2="381.84"/><line x1="252.16" y1="402.77" x2="246.08" y2="404.51"/><line x1="253.76" y1="393.28" x2="234.95" y2="396.46"/><line x1="53.10" y1="386.85" x2="51.61" y2="387.45"/><line x1="457.66" y1="123.98" x2="469.60" y2="399.67"/><line x1="376.97" y1="107.42" x2="352.32" y2="101.26"/><line x1="62.13" y1="383.75" x2="63.11" y2="390.43"/><line x1="226.50" y1="387.66" x2="224.89" y2="386.46"/><line x1="202.59" y1="383.17" x2="204.87" y2="381.78"/><line x1="278.16" y1="122.56" x2="279.88" y2="123.55"/><line x1="157.42" y1="382.04" x2="156.08" y2="124.78"/><line x1="340.46" y1="113.80" x2="339.33" y2="111.92"/><line x1="78.39" y1="393.16" x2="130.07" y2="129.89"/><line x1="96.38" y1="389.26" x2="96.22" y2="388.28"/><line x1="270.98" y1="124.39" x2="326.56" y2="392.10"/><line x1="328.91" y1="393.31" x2="328.11" y2="393.03"/><line x1="402.64" y1="99.58" x2="403.22" y2="94.61"/><line x1="299.42" y1="127.28" x2="298.38" y2="127.88"/><line x1="212.90" y1="383.97" x2="210.67" y2="383.77"/><line x1="297.73" y1="384.84" x2="301.17" y2="383.97"/><line x1="342.98" y1="389.09" x2="308.32" y2="130.10"/><line x1="303.26" y1="130.17" x2="339.50" y2="389.87"/><line x1="157.42" y1="382.04" x2="218.30" y2="123.88"/><line x1="376.79" y1="417.19" x2="364.67" y2="414.66"/><line x1="377.93" y1="416.87" x2="369.15" y2="397.07"/><line x1="62.13" y1="383.75" x2="32.96" y2="114.43"/><line x1="250.34" y1="113.60" x2="252.23" y2="114.75"/><line x1="349.57" y1="388.27" x2="334.94" y2="121.98"/><line x1="373.03" y1="393.96" x2="391.20" y2="405.72"/><line x1="86.05" y1="110.80" x2="84.35" y2="112.91"/><line x1="169.97" y1="118.48" x2="171.12" y2="118.03"/><line x1="81.08" y1="405.40" x2="81.10" y2="404.62"/><line x1="208.06" y1="381.92" x2="210.67" y2="383.77"/><line x1="180.53" y1="105.80" x2="183.10" y2="104.02"/><line x1="293.57" y1="128.98" x2="333.81" y2="392.17"/><line x1="82.05" y1="402.58" x2="82.70" y2="402.31"/><line x1="181.13" y1="400.87" x2="177.02" y2="395.41"/><line x1="442.30" y1="393.98" x2="440.10" y2="394.30"/><line x1="164.73" y1="387.24" x2="164.77" y2="388.06"/><line x1="407.86" y1="120.10" x2="435.75" y2="395.57"/><line x1="202.59" y1="383.17" x2="162.73" y2="384.84"/><line x1="159.49" y1="383.09" x2="158.42" y2="382.55"/><line x1="315.80" y1="395.70" x2="316.01" y2="396.42"/><line x1="78.39" y1="393.16" x2="89.01" y2="398.06"/><line x1="468.01" y1="400.31" x2="469.60" y2="399.67"/><line x1="419.50" y1="124.41" x2="422.81" y2="123.98"/><line x1="480.00" y1="396.19" x2="467.20" y2="124.86"/><line x1="339.33" y1="111.92" x2="340.60" y2="106.87"/><line x1="421.20" y1="396.82" x2="420.87" y2="395.43"/><line x1="32.96" y1="114.43" x2="40.87" y2="391.80"/><line x1="303.30" y1="129.69" x2="303.26" y2="130.17"/><line x1="376.97" y1="107.42" x2="340.46" y2="113.80"/><line x1="62.13" y1="383.75" x2="42.19" y2="122.03"/><line x1="77.66" y1="119.69" x2="62.69" y2="108.74"/><line x1="89.12" y1="391.33" x2="144.45" y2="133.67"/><line x1="126.99" y1="392.57" x2="129.81" y2="391.53"/><line x1="78.39" y1="393.16" x2="125.22" y2="127.45"/><line x1="364.00" y1="401.20" x2="364.40" y2="403.23"/><line x1="129.81" y1="391.53" x2="132.45" y2="390.63"/><line x1="188.62" y1="108.94" x2="178.18" y2="112.09"/><line x1="95.55" y1="108.07" x2="97.16" y2="110.20"/><line x1="245.14" y1="112.64" x2="243.91" y2="114.85"/><line x1="297.73" y1="384.84" x2="301.08" y2="385.42"/><line x1="81.90" y1="119.46" x2="81.62" y2="120.44"/><line x1="157.42" y1="382.04" x2="107.20" y2="381.29"/><line x1="393.86" y1="400.99" x2="397.67" y2="399.97"/><line x1="114.65" y1="131.66" x2="115.67" y2="131.63"/><line x1="72.83" y1="403.31" x2="72.52" y2="401.35"/><line x1="222.04" y1="99.45" x2="223.41" y2="99.99"/><line x1="274.17" y1="384.34" x2="272.88" y2="384.50"/><line x1="233.50" y1="394.61" x2="255.92" y2="389.41"/><line x1="125.22" y1="127.45" x2="123.80" y2="127.85"/><line x1="51.80" y1="390.74" x2="51.32" y2="393.05"/><line x1="164.65" y1="386.58" x2="164.73" y2="387.24"/><line x1="32.96" y1="114.43" x2="54.57" y2="386.21"/><line x1="423.88" y1="112.80" x2="423.65" y2="112.05"/><line x1="460.82" y1="124.86" x2="475.51" y2="397.66"/><line x1="218.30" y1="123.88" x2="308.52" y2="380.95"/><line x1="429.50" y1="112.92" x2="427.99" y2="112.79"/><line x1="431.33" y1="397.11" x2="433.56" y2="396.35"/><line x1="423.71" y1="402.69" x2="421.84" y2="401.06"/><line x1="339.50" y1="389.87" x2="306.01" y2="130.28"/><line x1="326.56" y1="392.10" x2="283.60" y2="124.72"/><line x1="403.22" y1="94.61" x2="401.45" y2="90.68"/><line x1="308.32" y1="130.10" x2="310.18" y2="129.55"/><line x1="301.32" y1="381.92" x2="301.36" y2="382.40"/><line x1="32.96" y1="114.43" x2="32.00" y2="115.14"/><line x1="243.91" y1="114.85" x2="250.34" y2="113.60"/><line x1="89.99" y1="108.49" x2="87.89" y2="109.36"/><line x1="311.57" y1="128.56" x2="312.47" y2="127.05"/><line x1="368.41" y1="418.43" x2="376.79" y2="417.19"/><line x1="218.30" y1="123.88" x2="172.41" y2="117.36"/><line x1="366.28" y1="398.97" x2="364.80" y2="403.06"/><line x1="87.89" y1="109.36" x2="86.05" y2="110.80"/><line x1="276.04" y1="381.27" x2="272.88" y2="384.50"/><line x1="77.71" y1="121.38" x2="52.47" y2="119.00"/><line x1="386.32" y1="406.47" x2="373.03" y2="393.96"/><line x1="124.39" y1="393.54" x2="126.99" y2="392.57"/><line x1="272.88" y1="384.50" x2="271.43" y2="384.47"/><line x1="81.10" y1="404.62" x2="74.71" y2="406.31"/><line x1="407.86" y1="120.10" x2="352.03" y2="388.22"/><line x1="184.69" y1="402.71" x2="189.93" y2="403.30"/><line x1="371.70" y1="395.43" x2="383.62" y2="414.93"/><line x1="170.62" y1="390.97" x2="164.73" y2="387.24"/><line x1="76.45" y1="392.49" x2="74.34" y2="391.98"/><line x1="183.10" y1="104.02" x2="183.15" y2="103.09"/><line x1="178.48" y1="392.51" x2="200.13" y2="388.81"/><line x1="283.51" y1="381.30" x2="282.46" y2="381.25"/><line x1="253.07" y1="399.18" x2="243.02" y2="403.09"/><line x1="267.28" y1="124.13" x2="265.20" y2="122.69"/><line x1="218.30" y1="123.88" x2="277.10" y2="381.23"/><line x1="42.80" y1="393.16" x2="40.87" y2="391.80"/><line x1="82.70" y1="402.31" x2="83.50" y2="402.22"/><line x1="218.14" y1="104.20" x2="215.15" y2="96.56"/><line x1="201.06" y1="385.65" x2="202.59" y2="383.17"/><line x1="316.53" y1="396.99" x2="317.53" y2="397.40"/><line x1="407.86" y1="120.10" x2="385.12" y2="109.02"/><line x1="338.09" y1="108.03" x2="336.11" y2="109.43"/><line x1="326.56" y1="392.10" x2="231.36" y2="124.71"/><line x1="32.96" y1="114.43" x2="51.80" y2="390.74"/><line x1="95.94" y1="392.73" x2="97.08" y2="393.00"/><line x1="74.51" y1="109.30" x2="77.63" y2="112.86"/><line x1="77.71" y1="121.38" x2="58.87" y2="109.17"/><line x1="364.22" y1="411.80" x2="364.28" y2="410.08"/><line x1="218.30" y1="123.88" x2="320.56" y2="397.60"/><line x1="58.87" y1="109.17" x2="55.69" y2="110.22"/><line x1="374.07" y1="420.63" x2="372.08" y2="419.89"/><line x1="132.45" y1="390.63" x2="134.98" y2="389.91"/><line x1="364.28" y1="410.08" x2="364.50" y2="408.33"/><line x1="393.44" y1="404.12" x2="393.93" y2="402.78"/><line x1="93.89" y1="114.41" x2="93.00" y2="116.69"/><line x1="134.98" y1="389.91" x2="137.49" y2="389.39"/><line x1="393.93" y1="402.78" x2="393.86" y2="400.99"/><line x1="191.79" y1="398.37" x2="199.36" y2="395.47"/><line x1="333.81" y1="392.17" x2="328.11" y2="393.03"/><line x1="186.09" y1="108.19" x2="179.16" y2="110.06"/><line x1="81.62" y1="120.44" x2="80.97" y2="121.15"/><line x1="199.36" y1="395.47" x2="199.21" y2="398.13"/><line x1="252.16" y1="402.77" x2="251.15" y2="404.07"/><line x1="62.13" y1="383.75" x2="110.80" y2="131.63"/><line x1="276.04" y1="381.27" x2="268.48" y2="384.36"/><line x1="207.96" y1="97.20" x2="207.31" y2="99.10"/><line x1="77.71" y1="121.38" x2="51.00" y2="121.11"/><line x1="81.50" y1="403.15" x2="72.69" y2="399.52"/><line x1="408.64" y1="394.91" x2="412.38" y2="393.46"/><line x1="166.95" y1="391.25" x2="164.86" y2="389.75"/><line x1="315.24" y1="392.55" x2="314.63" y2="390.89"/><line x1="255.92" y1="389.41" x2="227.94" y2="389.24"/><line x1="407.86" y1="120.10" x2="416.25" y2="392.60"/><line x1="210.67" y1="383.77" x2="208.13" y2="382.41"/><line x1="122.33" y1="128.57" x2="120.82" y2="129.45"/><line x1="462.64" y1="410.86" x2="466.25" y2="407.92"/><line x1="140.05" y1="389.12" x2="107.20" y2="381.29"/><line x1="144.45" y1="133.67" x2="142.50" y2="135.23"/><line x1="335.59" y1="119.76" x2="334.94" y2="121.98"/><line x1="157.42" y1="382.04" x2="154.74" y2="124.27"/><line x1="257.63" y1="387.66" x2="224.89" y2="386.46"/><line x1="340.46" y1="113.80" x2="343.39" y2="105.84"/><line x1="466.68" y1="400.95" x2="443.54" y2="117.21"/><line x1="270.98" y1="124.39" x2="279.88" y2="123.55"/><line x1="218.30" y1="123.88" x2="217.02" y2="384.50"/><line x1="92.52" y1="391.90" x2="96.22" y2="388.28"/><line x1="299.42" y1="127.28" x2="303.26" y2="130.17"/><line x1="279.88" y1="123.55" x2="326.56" y2="392.10"/><line x1="326.56" y1="392.10" x2="223.89" y2="124.17"/><line x1="52.97" y1="115.61" x2="53.03" y2="116.52"/><line x1="62.13" y1="383.75" x2="34.19" y2="113.21"/><line x1="250.34" y1="113.60" x2="242.83" y2="116.91"/><line x1="349.57" y1="388.27" x2="335.59" y2="119.76"/><line x1="66.79" y1="108.73" x2="77.66" y2="119.69"/><line x1="151.07" y1="123.85" x2="152.20" y2="123.69"/><line x1="242.83" y1="116.91" x2="252.23" y2="114.75"/><line x1="157.42" y1="382.04" x2="167.77" y2="119.14"/><line x1="86.05" y1="110.80" x2="93.00" y2="116.69"/><line x1="466.68" y1="400.95" x2="468.01" y2="400.31"/><line x1="77.71" y1="121.38" x2="53.06" y2="112.91"/><line x1="152.20" y1="123.69" x2="153.44" y2="123.87"/><line x1="180.53" y1="105.80" x2="183.15" y2="104.84"/><line x1="93.00" y1="116.69" x2="84.35" y2="112.91"/><line x1="92.75" y1="119.04" x2="81.90" y2="119.46"/><line x1="183.15" y1="104.84" x2="183.10" y2="104.02"/><line x1="184.63" y1="401.76" x2="184.55" y2="400.83"/><line x1="82.05" y1="402.58" x2="77.26" y2="394.50"/><line x1="269.93" y1="384.37" x2="268.48" y2="384.36"/><line x1="77.26" y1="394.50" x2="82.70" y2="402.31"/><line x1="164.73" y1="387.24" x2="168.76" y2="391.25"/><line x1="407.86" y1="120.10" x2="437.92" y2="394.86"/><line x1="72.14" y1="391.59" x2="69.86" y2="391.28"/><line x1="191.79" y1="398.37" x2="178.12" y2="393.54"/><line x1="253.26" y1="397.15" x2="239.98" y2="401.05"/><line x1="81.22" y1="403.85" x2="72.83" y2="403.31"/><line x1="69.86" y1="391.28" x2="67.56" y2="391.00"/><line x1="39.26" y1="390.57" x2="37.84" y2="389.53"/><line x1="480.00" y1="396.19" x2="464.00" y2="125.07"/><line x1="218.30" y1="123.88" x2="201.36" y2="109.48"/><line x1="216.79" y1="105.34" x2="212.78" y2="95.78"/><line x1="315.71" y1="394.81" x2="315.58" y2="393.77"/><line x1="450.75" y1="408.40" x2="451.21" y2="412.04"/><line x1="37.84" y1="389.53" x2="32.00" y2="115.14"/><line x1="426.51" y1="112.64" x2="425.06" y2="112.41"/><line x1="340.06" y1="115.30" x2="338.74" y2="116.64"/><line x1="425.62" y1="114.21" x2="423.88" y2="112.80"/><line x1="376.97" y1="107.42" x2="348.81" y2="103.83"/><line x1="62.13" y1="383.75" x2="43.90" y2="122.88"/><line x1="319.18" y1="397.67" x2="315.58" y2="393.77"/><line x1="96.78" y1="391.17" x2="96.58" y2="390.22"/><line x1="272.80" y1="122.58" x2="274.73" y2="119.04"/><line x1="331.39" y1="393.66" x2="332.26" y2="393.69"/><line x1="157.42" y1="382.04" x2="158.69" y2="125.64"/><line x1="380.55" y1="108.91" x2="338.74" y2="116.64"/><line x1="94.79" y1="392.45" x2="93.66" y2="392.17"/><line x1="78.39" y1="393.16" x2="126.55" y2="127.52"/><line x1="336.33" y1="390.89" x2="339.50" y2="389.87"/><line x1="258.07" y1="117.65" x2="260.07" y2="118.83"/><line x1="364.50" y1="408.33" x2="364.85" y2="406.66"/><line x1="245.14" y1="112.64" x2="246.68" y2="110.30"/><line x1="297.73" y1="384.84" x2="301.06" y2="384.97"/><line x1="81.90" y1="119.46" x2="93.27" y2="121.46"/><line x1="364.85" y1="406.66" x2="365.33" y2="405.18"/><line x1="376.79" y1="417.19" x2="364.22" y2="411.80"/><line x1="393.86" y1="400.99" x2="372.23" y2="392.57"/><line x1="92.50" y1="108.10" x2="89.99" y2="108.49"/><line x1="93.27" y1="121.46" x2="81.62" y2="120.44"/><line x1="278.17" y1="381.21" x2="279.24" y2="381.20"/><line x1="184.49" y1="107.24" x2="183.79" y2="106.39"/><line x1="372.23" y1="392.57" x2="397.67" y2="399.97"/><line x1="373.03" y1="393.96" x2="393.44" y2="404.12"/><line x1="274.17" y1="384.34" x2="276.04" y2="381.27"/><line x1="279.24" y1="381.20" x2="280.32" y2="381.20"/><line x1="233.50" y1="394.61" x2="254.37" y2="391.71"/><line x1="156.13" y1="387.92" x2="156.91" y2="385.54"/><line x1="254.37" y1="391.71" x2="255.92" y2="389.41"/><line x1="207.12" y1="101.20" x2="207.03" y2="103.37"/><line x1="164.97" y1="390.37" x2="165.17" y2="390.69"/><line x1="230.13" y1="394.95" x2="229.69" y2="396.76"/><line x1="246.08" y1="404.51" x2="253.07" y2="399.18"/><line x1="207.03" y1="103.37" x2="215.72" y2="106.95"/><line x1="314.13" y1="389.23" x2="313.76" y2="387.56"/><line x1="117.75" y1="131.11" x2="74.34" y2="391.98"/><line x1="467.95" y1="404.47" x2="466.68" y2="400.95"/><line x1="202.59" y1="383.17" x2="161.68" y2="384.22"/><line x1="219.62" y1="103.32" x2="218.14" y2="104.20"/><line x1="315.80" y1="395.70" x2="317.53" y2="397.40"/><line x1="313.76" y1="387.56" x2="313.53" y2="385.88"/><line x1="78.39" y1="393.16" x2="89.11" y2="394.84"/><line x1="326.56" y1="392.10" x2="269.17" y2="124.80"/><line x1="480.00" y1="396.19" x2="473.61" y2="124.28"/><line x1="339.33" y1="111.92" x2="336.11" y2="109.43"/><line x1="473.39" y1="398.35" x2="475.51" y2="397.66"/><line x1="308.32" y1="130.10" x2="349.57" y2="388.27"/><line x1="91.39" y1="391.66" x2="96.12" y2="387.30"/><line x1="32.96" y1="114.43" x2="37.84" y2="389.53"/><line x1="252.23" y1="114.75" x2="254.14" y2="115.73"/><line x1="53.01" y1="117.41" x2="52.81" y2="118.27"/><line x1="366.28" y1="398.97" x2="365.19" y2="403.07"/><line x1="241.73" y1="118.81" x2="256.10" y2="116.66"/><line x1="124.39" y1="393.54" x2="107.43" y2="383.11"/><line x1="153.44" y1="123.87" x2="154.74" y2="124.27"/><line x1="368.41" y1="391.18" x2="366.20" y2="390.85"/><line x1="364.00" y1="401.20" x2="363.60" y2="403.72"/><line x1="82.63" y1="115.81" x2="82.20" y2="117.05"/><line x1="188.62" y1="108.94" x2="186.09" y2="108.19"/><line x1="371.70" y1="395.43" x2="382.20" y2="415.91"/><line x1="154.74" y1="124.27" x2="156.08" y2="124.78"/><line x1="183.10" y1="104.02" x2="181.59" y2="103.36"/><line x1="95.55" y1="108.07" x2="95.32" y2="112.24"/><line x1="178.18" y1="112.09" x2="179.16" y2="110.06"/><line x1="181.59" y1="103.36" x2="183.15" y2="103.09"/><line x1="184.55" y1="400.83" x2="191.79" y2="398.37"/><line x1="218.30" y1="123.88" x2="263.72" y2="384.89"/><line x1="82.70" y1="402.31" x2="78.39" y2="393.16"/><line x1="168.76" y1="391.25" x2="166.95" y2="391.25"/><line x1="253.44" y1="395.14" x2="253.76" y2="393.28"/><line x1="78.39" y1="393.16" x2="83.50" y2="402.22"/><line x1="442.10" y1="405.01" x2="440.84" y2="402.58"/><line x1="426.07" y1="123.43" x2="429.10" y2="122.93"/><line x1="222.04" y1="99.45" x2="220.04" y2="98.57"/><line x1="237.20" y1="398.73" x2="234.95" y2="396.46"/><line x1="56.04" y1="385.57" x2="54.57" y2="386.21"/><line x1="65.30" y1="390.73" x2="63.11" y2="390.43"/><line x1="429.10" y1="122.93" x2="431.73" y2="122.66"/><line x1="315.58" y1="393.77" x2="315.24" y2="392.55"/><line x1="32.96" y1="114.43" x2="51.61" y2="387.45"/><line x1="36.53" y1="388.71" x2="35.19" y2="388.13"/><line x1="470.40" y1="124.51" x2="473.61" y2="124.28"/><line x1="460.82" y1="124.86" x2="480.00" y2="396.19"/><line x1="320.56" y1="397.60" x2="314.63" y2="390.89"/><line x1="218.30" y1="123.88" x2="312.09" y2="380.57"/><line x1="290.14" y1="126.87" x2="290.93" y2="127.50"/><line x1="96.58" y1="390.22" x2="96.38" y2="389.26"/><line x1="326.56" y1="392.10" x2="288.05" y2="125.81"/><line x1="330.54" y1="393.60" x2="329.71" y2="393.48"/><line x1="403.22" y1="94.61" x2="404.56" y2="90.59"/><line x1="93.66" y1="392.17" x2="92.52" y2="391.90"/><line x1="50.01" y1="122.52" x2="49.63" y2="123.24"/><line x1="262.83" y1="120.82" x2="238.83" y2="122.01"/><line x1="365.90" y1="404.02" x2="369.15" y2="397.07"/><line x1="160.64" y1="123.28" x2="161.31" y2="122.43"/><line x1="238.83" y1="122.01" x2="265.20" y2="122.69"/><line x1="81.62" y1="120.44" x2="94.66" y2="123.90"/><line x1="218.30" y1="123.88" x2="208.06" y2="381.92"/><line x1="208.14" y1="382.65" x2="208.15" y2="382.89"/><line x1="276.04" y1="381.27" x2="269.93" y2="384.37"/><line x1="94.66" y1="123.90" x2="80.97" y2="121.15"/><line x1="77.71" y1="121.38" x2="51.53" y2="120.41"/><line x1="280.32" y1="381.20" x2="281.39" y2="381.22"/><line x1="182.85" y1="400.81" x2="181.13" y2="400.87"/><line x1="144.45" y1="133.67" x2="145.77" y2="131.57"/><line x1="281.39" y1="381.22" x2="282.46" y2="381.25"/><line x1="255.92" y1="389.41" x2="229.12" y2="391.06"/><line x1="407.86" y1="120.10" x2="412.38" y2="393.46"/><line x1="371.70" y1="395.43" x2="385.46" y2="412.65"/><line x1="170.62" y1="390.97" x2="168.76" y2="391.25"/><line x1="204.87" y1="381.78" x2="159.49" y2="383.09"/><line x1="229.12" y1="391.06" x2="227.94" y2="389.24"/><line x1="218.30" y1="123.88" x2="278.17" y2="381.21"/><line x1="39.91" y1="116.00" x2="39.60" y2="112.61"/><line x1="215.00" y1="384.20" x2="212.90" y2="383.97"/><line x1="206.64" y1="105.47" x2="215.07" y2="109.28"/><line x1="313.46" y1="384.17" x2="313.58" y2="382.44"/><line x1="326.56" y1="392.10" x2="226.42" y2="124.50"/><line x1="90.26" y1="391.46" x2="89.12" y2="391.33"/><line x1="416.25" y1="392.60" x2="420.35" y2="392.59"/><line x1="349.57" y1="388.27" x2="311.57" y2="128.56"/><line x1="95.94" y1="392.73" x2="94.79" y2="392.45"/><line x1="157.42" y1="382.04" x2="166.58" y2="119.56"/><line x1="157.42" y1="382.04" x2="148.90" y2="389.87"/><line x1="77.71" y1="121.38" x2="53.49" y2="112.06"/><line x1="256.10" y1="116.66" x2="258.07" y2="117.65"/><line x1="92.75" y1="119.04" x2="82.03" y2="118.29"/><line x1="100.23" y1="128.24" x2="102.58" y2="129.40"/><line x1="363.42" y1="390.71" x2="360.37" y2="390.63"/><line x1="310.30" y1="380.69" x2="312.09" y2="380.57"/><line x1="204.87" y1="381.78" x2="208.06" y2="381.92"/><line x1="191.79" y1="398.37" x2="199.61" y2="392.22"/><line x1="360.37" y1="390.63" x2="357.39" y2="390.47"/><line x1="200.13" y1="388.81" x2="201.06" y2="385.65"/><line x1="277.10" y1="381.23" x2="278.17" y2="381.21"/><line x1="81.22" y1="403.85" x2="73.59" y2="404.98"/><line x1="178.12" y1="393.54" x2="178.48" y2="392.51"/><line x1="252.16" y1="402.77" x2="252.75" y2="401.09"/><line x1="62.13" y1="383.75" x2="113.38" y2="131.66"/><line x1="253.76" y1="393.28" x2="233.50" y2="394.61"/><line x1="128.47" y1="128.45" x2="126.55" y2="127.52"/><line x1="77.71" y1="121.38" x2="50.01" y2="122.52"/><line x1="81.50" y1="403.15" x2="73.99" y2="397.18"/><line x1="450.75" y1="408.40" x2="454.05" y2="413.37"/><line x1="166.95" y1="391.25" x2="165.17" y2="390.69"/><line x1="201.36" y1="109.48" x2="216.79" y2="117.64"/><line x1="425.62" y1="114.21" x2="425.06" y2="112.41"/><line x1="210.67" y1="383.77" x2="208.15" y2="382.89"/><line x1="443.54" y1="117.21" x2="439.95" y2="115.65"/><line x1="161.68" y1="384.22" x2="160.59" y2="383.64"/><line x1="372.07" y1="101.29" x2="362.55" y2="97.42"/><line x1="157.42" y1="382.04" x2="157.40" y2="125.27"/><line x1="476.81" y1="124.43" x2="480.00" y2="125.22"/><line x1="94.79" y1="392.45" x2="96.58" y2="390.22"/><line x1="395.50" y1="103.18" x2="395.52" y2="101.28"/><line x1="218.30" y1="123.88" x2="212.90" y2="383.97"/><line x1="291.68" y1="128.11" x2="292.53" y2="128.62"/><line x1="53.49" y1="112.06" x2="53.06" y2="112.91"/><line x1="102.51" y1="383.12" x2="103.70" y2="381.93"/><line x1="342.98" y1="389.09" x2="346.45" y2="388.56"/><line x1="303.26" y1="130.17" x2="306.01" y2="130.28"/><line x1="145.77" y1="131.57" x2="146.79" y2="129.25"/><line x1="326.56" y1="392.10" x2="218.30" y2="123.88"/><line x1="120.40" y1="394.57" x2="117.03" y2="393.97"/><line x1="62.13" y1="383.75" x2="60.56" y2="384.02"/><line x1="349.57" y1="388.27" x2="385.12" y2="109.02"/><line x1="369.15" y1="397.07" x2="366.28" y2="398.97"/><line x1="157.42" y1="382.04" x2="169.97" y2="118.48"/><line x1="62.13" y1="383.75" x2="79.74" y2="121.50"/><line x1="180.53" y1="105.80" x2="181.59" y2="103.36"/><line x1="191.77" y1="109.47" x2="188.62" y2="108.94"/><line x1="93.00" y1="116.69" x2="92.75" y2="119.04"/><line x1="73.99" y1="397.18" x2="74.99" y2="396.35"/><line x1="246.08" y1="404.51" x2="252.75" y2="401.09"/><line x1="117.75" y1="131.11" x2="76.45" y2="392.49"/><line x1="407.86" y1="120.10" x2="411.06" y2="123.21"/><line x1="219.62" y1="103.32" x2="217.66" y2="97.55"/><line x1="444.77" y1="397.01" x2="448.29" y2="407.57"/><line x1="81.22" y1="403.85" x2="81.50" y2="403.15"/><line x1="78.39" y1="393.16" x2="89.11" y2="396.49"/><line x1="205.58" y1="107.36" x2="203.45" y2="108.89"/><line x1="44.94" y1="394.38" x2="42.80" y2="393.16"/><line x1="480.00" y1="396.19" x2="470.40" y2="124.51"/><line x1="216.79" y1="105.34" x2="209.49" y2="95.65"/><line x1="208.06" y1="381.92" x2="208.11" y2="382.17"/><line x1="450.75" y1="408.40" x2="462.64" y2="410.86"/><line x1="449.74" y1="408.05" x2="450.75" y2="408.40"/><line x1="421.51" y1="398.21" x2="428.08" y2="402.41"/><line x1="346.45" y1="388.56" x2="349.57" y2="388.27"/><line x1="62.13" y1="383.75" x2="41.06" y2="120.64"/><line x1="303.08" y1="127.56" x2="300.51" y2="126.79"/><line x1="272.80" y1="122.58" x2="270.98" y2="124.39"/><line x1="241.73" y1="118.81" x2="254.14" y2="115.73"/><line x1="291.29" y1="386.21" x2="294.42" y2="385.31"/><line x1="340.46" y1="113.80" x2="340.06" y2="115.30"/><line x1="78.39" y1="393.16" x2="123.80" y2="127.85"/><line x1="364.00" y1="401.20" x2="364.00" y2="403.48"/><line x1="221.21" y1="123.91" x2="218.30" y2="123.88"/><line x1="178.18" y1="112.09" x2="186.09" y2="108.19"/><line x1="376.79" y1="417.19" x2="364.50" y2="408.33"/><line x1="354.78" y1="390.10" x2="352.89" y2="389.39"/><line x1="191.41" y1="400.04" x2="191.79" y2="398.37"/><line x1="372.23" y1="392.57" x2="404.99" y2="396.66"/><line x1="373.03" y1="393.96" x2="393.86" y2="400.99"/><line x1="237.20" y1="398.73" x2="253.76" y2="393.28"/><line x1="233.50" y1="394.61" x2="229.12" y2="391.06"/><line x1="164.77" y1="388.06" x2="164.81" y2="388.94"/><line x1="443.32" y1="405.67" x2="443.37" y2="398.28"/><line x1="209.49" y1="95.65" x2="207.96" y2="97.20"/><line x1="320.56" y1="397.60" x2="315.24" y2="392.55"/><line x1="218.30" y1="123.88" x2="310.30" y2="380.69"/><line x1="423.71" y1="402.69" x2="421.75" y2="402.53"/><line x1="337.05" y1="118.06" x2="335.59" y2="119.76"/><line x1="78.39" y1="393.16" x2="142.50" y2="135.23"/><line x1="360.07" y1="98.66" x2="374.20" y2="104.80"/><line x1="326.56" y1="392.10" x2="285.71" y2="125.20"/><line x1="403.22" y1="94.61" x2="402.94" y2="90.47"/><line x1="480.00" y1="396.19" x2="480.00" y2="125.22"/><line x1="93.66" y1="392.17" x2="96.38" y2="389.26"/><line x1="402.64" y1="99.58" x2="395.20" y2="99.12"/><line x1="52.89" y1="113.79" x2="52.89" y2="114.69"/><line x1="365.90" y1="404.02" x2="377.93" y2="416.87"/><line x1="243.91" y1="114.85" x2="242.83" y2="116.91"/><line x1="288.49" y1="386.90" x2="286.16" y2="386.73"/><line x1="368.41" y1="418.43" x2="366.85" y2="417.49"/><line x1="52.89" y1="114.69" x2="52.97" y2="115.61"/><line x1="147.79" y1="126.99" x2="149.11" y2="125.09"/><line x1="149.11" y1="125.09" x2="151.07" y2="123.85"/><line x1="183.79" y1="106.39" x2="183.36" y2="105.61"/><line x1="183.36" y1="105.61" x2="180.53" y2="105.80"/><line x1="371.70" y1="395.43" x2="384.69" y2="413.85"/><line x1="177.63" y1="394.51" x2="181.13" y2="400.87"/><line x1="178.48" y1="392.51" x2="201.06" y2="385.65"/><line x1="253.07" y1="399.18" x2="253.26" y2="397.15"/><line x1="76.10" y1="395.51" x2="82.05" y2="402.58"/><line x1="160.59" y1="383.64" x2="159.49" y2="383.09"/><line x1="218.30" y1="123.88" x2="261.54" y2="385.48"/><line x1="179.42" y1="400.90" x2="176.30" y2="396.24"/><line x1="218.14" y1="104.20" x2="216.79" y2="105.34"/><line x1="229.89" y1="393.01" x2="232.39" y2="395.39"/><line x1="74.34" y1="391.98" x2="72.14" y2="391.59"/><line x1="78.39" y1="393.16" x2="85.23" y2="402.29"/><line x1="416.32" y1="124.54" x2="419.50" y2="124.41"/><line x1="442.10" y1="405.01" x2="441.14" y2="401.00"/><line x1="203.45" y1="108.89" x2="216.03" y2="115.60"/><line x1="40.87" y1="391.80" x2="39.26" y2="390.57"/><line x1="477.72" y1="396.94" x2="480.00" y2="396.19"/><line x1="407.86" y1="120.10" x2="405.41" y2="115.75"/><line x1="32.96" y1="114.43" x2="51.32" y2="393.05"/><line x1="283.60" y1="124.72" x2="285.71" y2="125.20"/><line x1="429.97" y1="401.80" x2="431.31" y2="400.78"/><line x1="140.05" y1="389.12" x2="137.49" y2="389.39"/><line x1="310.18" y1="129.55" x2="311.57" y2="128.56"/><line x1="157.42" y1="382.04" x2="156.91" y2="385.54"/><line x1="256.10" y1="116.66" x2="240.45" y2="120.52"/><line x1="157.40" y1="125.27" x2="158.69" y2="125.64"/><line x1="240.45" y1="120.52" x2="258.07" y2="117.65"/><line x1="82.20" y1="117.05" x2="82.03" y2="118.29"/><line x1="183.26" y1="101.97" x2="183.35" y2="100.61"/><line x1="333.81" y1="392.17" x2="327.33" y2="392.64"/><line x1="82.03" y1="118.29" x2="81.90" y2="119.46"/><line x1="186.09" y1="108.19" x2="184.49" y2="107.24"/><line x1="199.36" y1="395.47" x2="199.61" y2="392.22"/><line x1="84.36" y1="402.23" x2="85.23" y2="402.29"/><line x1="62.13" y1="383.75" x2="112.04" y2="131.66"/><line x1="77.71" y1="121.38" x2="50.48" y2="121.81"/><line x1="81.50" y1="403.15" x2="73.20" y2="398.18"/><line x1="85.23" y1="402.29" x2="86.03" y2="402.31"/><line x1="166.95" y1="391.25" x2="164.97" y2="390.37"/><line x1="46.33" y1="123.25" x2="43.90" y2="122.88"/><line x1="175.52" y1="396.99" x2="174.95" y2="399.55"/><line x1="234.95" y1="396.46" x2="233.50" y2="394.61"/><line x1="255.92" y1="389.41" x2="226.50" y2="387.66"/><line x1="210.67" y1="383.77" x2="208.14" y2="382.65"/><line x1="43.90" y1="122.88" x2="42.19" y2="122.03"/><line x1="371.70" y1="395.43" x2="386.26" y2="409.87"/><line x1="33.71" y1="387.86" x2="32.00" y2="387.91"/><line x1="204.87" y1="381.78" x2="157.42" y2="382.04"/><line x1="161.68" y1="384.22" x2="204.87" y2="381.78"/><line x1="443.37" y1="398.28" x2="446.61" y2="406.99"/><line x1="207.31" y1="99.10" x2="207.12" y2="101.20"/><line x1="257.63" y1="387.66" x2="259.51" y2="386.38"/><line x1="447.10" y1="118.92" x2="450.63" y2="120.68"/><line x1="314.63" y1="390.89" x2="314.13" y2="389.23"/><line x1="218.30" y1="123.88" x2="215.00" y2="384.20"/><line x1="92.52" y1="391.90" x2="91.39" y2="391.66"/><line x1="279.88" y1="123.55" x2="281.68" y2="124.21"/><line x1="385.12" y1="109.02" x2="405.41" y2="115.75"/><line x1="326.56" y1="392.10" x2="221.21" y2="123.91"/><line x1="66.79" y1="108.73" x2="62.69" y2="108.74"/><line x1="96.22" y1="388.28" x2="91.39" y2="391.66"/><line x1="369.15" y1="397.07" x2="365.56" y2="403.36"/><line x1="242.83" y1="116.91" x2="241.73" y2="118.81"/><line x1="157.42" y1="382.04" x2="168.88" y2="118.82"/><line x1="157.42" y1="382.04" x2="142.76" y2="389.11"/><line x1="107.20" y1="381.29" x2="126.99" y2="392.57"/><line x1="62.13" y1="383.75" x2="96.14" y2="125.47"/><line x1="53.03" y1="116.52" x2="53.01" y2="117.41"/><line x1="77.71" y1="121.38" x2="52.89" y2="113.79"/><line x1="365.56" y1="403.36" x2="366.28" y2="398.97"/><line x1="191.77" y1="109.47" x2="176.54" y2="114.16"/><line x1="408.64" y1="394.91" x2="407.86" y2="120.10"/><line x1="364.80" y1="403.06" x2="364.40" y2="403.23"/><line x1="93.00" y1="116.69" x2="82.63" y2="115.81"/><line x1="92.75" y1="119.04" x2="93.27" y2="121.46"/><line x1="303.14" y1="381.84" x2="304.94" y2="381.60"/><line x1="407.86" y1="120.10" x2="368.41" y2="391.18"/><line x1="226.50" y1="387.66" x2="257.63" y2="387.66"/><line x1="77.26" y1="394.50" x2="78.39" y2="393.16"/><line x1="253.26" y1="397.15" x2="253.44" y2="395.14"/><line x1="81.22" y1="403.85" x2="72.52" y2="401.35"/><line x1="205.58" y1="107.36" x2="215.02" y2="111.45"/><line x1="158.42" y1="382.55" x2="157.42" y2="382.04"/><line x1="216.79" y1="105.34" x2="210.81" y2="95.42"/><line x1="62.13" y1="383.75" x2="115.67" y2="131.63"/><line x1="215.02" y1="111.45" x2="203.45" y2="108.89"/><line x1="81.50" y1="403.15" x2="76.10" y2="395.51"/><line x1="450.75" y1="408.40" x2="458.23" y2="412.82"/><line x1="37.84" y1="389.53" x2="36.53" y2="388.71"/><line x1="449.74" y1="408.05" x2="411.06" y2="123.21"/><line x1="422.81" y1="123.98" x2="426.07" y2="123.43"/><line x1="367.08" y1="94.36" x2="370.41" y2="97.12"/><line x1="32.00" y1="115.14" x2="35.19" y2="388.13"/><line x1="210.67" y1="383.77" x2="208.19" y2="383.38"/><line x1="464.00" y1="125.07" x2="467.20" y2="124.86"/><line x1="319.18" y1="397.67" x2="320.56" y2="397.60"/><line x1="393.41" y1="106.27" x2="403.73" y2="110.58"/><line x1="272.80" y1="122.58" x2="278.16" y2="122.56"/><line x1="467.20" y1="124.86" x2="470.40" y2="124.51"/><line x1="288.05" y1="125.81" x2="289.22" y2="126.28"/><line x1="469.60" y1="399.67" x2="460.82" y2="124.86"/><line x1="331.39" y1="393.66" x2="330.54" y2="393.60"/><line x1="157.42" y1="382.04" x2="159.90" y2="125.76"/><line x1="144.45" y1="133.67" x2="98.39" y2="386.39"/><line x1="466.68" y1="400.95" x2="447.10" y2="118.92"/><line x1="289.22" y1="126.28" x2="290.14" y2="126.87"/><line x1="98.39" y1="386.39" x2="100.08" y2="385.67"/><line x1="51.00" y1="121.11" x2="50.48" y2="121.81"/><line x1="50.48" y1="121.81" x2="50.01" y2="122.52"/><line x1="159.90" y1="125.76" x2="160.17" y2="124.37"/><line x1="376.79" y1="417.19" x2="364.28" y2="410.08"/><line x1="120.40" y1="394.57" x2="122.24" y2="394.22"/><line x1="354.78" y1="390.10" x2="352.03" y2="388.22"/><line x1="260.07" y1="118.83" x2="262.83" y2="120.82"/><line x1="93.27" y1="121.46" x2="94.66" y2="123.90"/><line x1="160.17" y1="124.37" x2="160.64" y2="123.28"/><line x1="372.23" y1="392.57" x2="401.36" y2="398.43"/><line x1="208.11" y1="382.17" x2="208.13" y2="382.41"/><line x1="373.03" y1="393.96" x2="393.93" y2="402.78"/><line x1="62.13" y1="383.75" x2="100.23" y2="128.24"/><line x1="208.13" y1="382.41" x2="208.14" y2="382.65"/><line x1="86.03" y1="402.31" x2="86.71" y2="402.24"/><line x1="443.32" y1="405.67" x2="442.07" y2="399.59"/><line x1="86.71" y1="402.24" x2="87.19" y2="402.01"/><line x1="42.19" y1="122.03" x2="41.06" y2="120.64"/><line x1="246.08" y1="404.51" x2="243.02" y2="403.09"/><line x1="431.32" y1="120.82" x2="436.29" y2="114.32"/><line x1="62.13" y1="383.75" x2="117.75" y2="131.11"/><line x1="207.03" y1="103.37" x2="206.64" y2="105.47"/><line x1="117.75" y1="131.11" x2="72.14" y2="391.59"/><line x1="41.06" y1="120.64" x2="40.35" y2="118.66"/><line x1="315.80" y1="395.70" x2="315.71" y2="394.81"/><line x1="215.72" y1="106.95" x2="215.07" y2="109.28"/><line x1="157.42" y1="382.04" x2="146.79" y2="129.25"/><line x1="78.39" y1="393.16" x2="89.09" y2="393.11"/><line x1="466.68" y1="400.95" x2="416.32" y2="124.54"/><line x1="421.84" y1="401.06" x2="421.75" y2="402.53"/><line x1="480.00" y1="396.19" x2="476.81" y2="124.43"/><line x1="216.79" y1="105.34" x2="207.31" y2="99.10"/><line x1="405.41" y1="115.75" x2="390.85" y2="107.54"/><line x1="450.75" y1="408.40" x2="467.95" y2="404.47"/><line x1="312.47" y1="127.05" x2="312.87" y2="124.95"/><line x1="91.39" y1="391.66" x2="90.26" y2="391.46"/><line x1="281.68" y1="124.21" x2="283.60" y2="124.72"/><line x1="301.72" y1="126.51" x2="303.06" y2="127.05"/><line x1="288.49" y1="386.90" x2="284.45" y2="385.08"/><line x1="62.13" y1="383.75" x2="39.91" y2="116.00"/><line x1="96.12" y1="387.30" x2="96.10" y2="386.32"/><line x1="241.73" y1="118.81" x2="240.45" y2="120.52"/><line x1="284.45" y1="385.08" x2="286.16" y2="386.73"/><line x1="231.36" y1="124.71" x2="228.88" y2="124.73"/><line x1="78.39" y1="393.16" x2="120.82" y2="129.45"/><line x1="364.00" y1="401.20" x2="363.22" y2="403.86"/><line x1="228.88" y1="124.73" x2="226.42" y2="124.50"/><line x1="204.87" y1="381.78" x2="218.30" y2="123.88"/><line x1="365.19" y1="403.07" x2="364.80" y2="403.06"/><line x1="95.55" y1="108.07" x2="92.50" y2="108.10"/><line x1="80.94" y1="406.68" x2="79.16" y2="407.65"/><line x1="98.04" y1="126.92" x2="100.23" y2="128.24"/><line x1="306.73" y1="381.28" x2="308.52" y2="380.95"/><line x1="181.59" y1="103.36" x2="183.26" y2="101.97"/><line x1="366.20" y1="390.85" x2="363.42" y2="390.71"/><line x1="376.79" y1="417.19" x2="365.33" y2="405.18"/><line x1="89.11" y1="394.84" x2="89.09" y2="393.11"/><line x1="308.52" y1="380.95" x2="310.30" y2="380.69"/><line x1="229.89" y1="393.01" x2="233.00" y2="395.02"/><line x1="78.39" y1="393.16" x2="84.36" y2="402.23"/><line x1="372.23" y1="392.57" x2="407.86" y2="120.10"/><line x1="442.10" y1="405.01" x2="441.43" y2="404.39"/><line x1="36.96" y1="110.73" x2="35.58" y2="111.85"/><line x1="233.00" y1="395.02" x2="232.39" y2="395.39"/><line x1="203.45" y1="108.89" x2="215.39" y2="113.55"/><line x1="215.39" y1="113.55" x2="216.03" y2="115.60"/><line x1="431.73" y1="122.66" x2="439.95" y2="115.65"/><line x1="460.82" y1="124.86" x2="464.00" y2="125.07"/><line x1="320.56" y1="397.60" x2="314.13" y2="389.23"/><line x1="423.71" y1="402.69" x2="425.91" y2="402.68"/><line x1="394.88" y1="104.83" x2="402.81" y2="105.04"/><line x1="78.39" y1="393.16" x2="136.90" y2="135.73"/><line x1="326.56" y1="392.10" x2="289.22" y2="126.28"/><line x1="405.41" y1="115.75" x2="393.41" y2="106.27"/><line x1="100.08" y1="385.67" x2="101.37" y2="384.48"/><line x1="262.83" y1="120.82" x2="265.20" y2="122.69"/><line x1="212.90" y1="383.97" x2="208.06" y2="381.92"/><line x1="365.90" y1="404.02" x2="365.56" y2="403.36"/><line x1="157.42" y1="382.04" x2="144.45" y2="133.67"/><line x1="363.60" y1="403.72" x2="363.22" y2="403.86"/><line x1="238.83" y1="122.01" x2="236.72" y2="123.27"/><line x1="218.30" y1="123.88" x2="176.54" y2="114.16"/><line x1="94.66" y1="123.90" x2="62.13" y2="383.75"/><line x1="161.31" y1="122.43" x2="162.12" y2="121.76"/><line x1="412.38" y1="393.46" x2="416.25" y2="392.60"/><line x1="175.52" y1="396.99" x2="176.28" y2="400.36"/><line x1="116.25" y1="131.58" x2="117.75" y2="131.11"/><line x1="230.03" y1="396.55" x2="229.69" y2="396.76"/><line x1="371.70" y1="395.43" x2="385.97" y2="411.34"/><line x1="208.15" y1="382.89" x2="208.16" y2="383.13"/><line x1="204.87" y1="381.78" x2="158.42" y2="382.55"/><line x1="176.28" y1="400.36" x2="174.95" y2="399.55"/><line x1="178.48" y1="392.51" x2="176.43" y2="391.17"/><line x1="443.37" y1="398.28" x2="444.88" y2="406.35"/><line x1="198.48" y1="109.76" x2="195.17" y2="109.75"/><line x1="184.55" y1="400.83" x2="178.12" y2="393.54"/><line x1="218.30" y1="123.88" x2="279.24" y2="381.20"/><line x1="444.88" y1="406.35" x2="446.61" y2="406.99"/><line x1="206.64" y1="105.47" x2="205.58" y2="107.36"/><line x1="48.79" y1="395.13" x2="46.98" y2="395.07"/><line x1="229.89" y1="393.01" x2="230.13" y2="394.95"/><line x1="215.07" y1="109.28" x2="215.02" y2="111.45"/><line x1="390.85" y1="107.54" x2="393.41" y2="106.27"/><line x1="354.91" y1="100.58" x2="376.97" y2="107.42"/><line x1="421.74" y1="399.62" x2="425.91" y2="402.68"/><line x1="395.96" y1="93.16" x2="394.56" y2="93.81"/><line x1="32.96" y1="114.43" x2="48.79" y2="395.13"/><line x1="303.06" y1="127.05" x2="303.11" y2="126.58"/><line x1="77.57" y1="111.18" x2="77.44" y2="109.51"/><line x1="157.42" y1="382.04" x2="145.69" y2="389.40"/><line x1="107.20" y1="381.29" x2="107.43" y2="383.11"/><line x1="96.10" y1="386.32" x2="144.45" y2="133.67"/><line x1="124.39" y1="393.54" x2="113.10" y2="391.28"/><line x1="364.80" y1="403.06" x2="364.00" y2="401.20"/><line x1="283.51" y1="381.30" x2="291.29" y2="386.21"/><line x1="226.42" y1="124.50" x2="223.89" y2="124.17"/><line x1="167.77" y1="119.14" x2="168.88" y2="118.82"/><line x1="240.45" y1="120.52" x2="262.83" y2="120.82"/><line x1="223.89" y1="124.17" x2="221.21" y2="123.91"/><line x1="218.30" y1="123.88" x2="276.04" y2="381.27"/><line x1="102.58" y1="129.40" x2="104.97" y2="130.35"/><line x1="201.06" y1="385.65" x2="176.43" y2="391.17"/><line x1="62.13" y1="383.75" x2="114.65" y2="131.66"/><line x1="446.89" y1="394.37" x2="444.55" y2="393.97"/><line x1="276.04" y1="381.27" x2="277.10" y2="381.23"/><line x1="253.76" y1="393.28" x2="254.37" y2="391.71"/><line x1="77.71" y1="121.38" x2="49.63" y2="123.24"/><line x1="231.75" y1="395.73" x2="231.11" y2="396.03"/><line x1="81.50" y1="403.15" x2="74.99" y2="396.35"/><line x1="67.56" y1="391.00" x2="65.30" y2="390.73"/><line x1="176.30" y1="396.24" x2="177.79" y2="400.77"/><line x1="139.60" y1="135.97" x2="136.90" y2="135.73"/><line x1="212.78" y1="95.78" x2="210.81" y2="95.42"/><line x1="201.36" y1="109.48" x2="217.53" y2="119.68"/><line x1="210.67" y1="383.77" x2="208.16" y2="383.13"/><line x1="32.00" y1="115.14" x2="36.53" y2="388.71"/><line x1="441.14" y1="401.00" x2="442.07" y2="399.59"/><line x1="32.96" y1="114.43" x2="60.56" y2="384.02"/><line x1="372.07" y1="101.29" x2="360.07" y2="98.66"/><line x1="439.95" y1="115.65" x2="436.29" y2="114.32"/><line x1="431.33" y1="397.11" x2="421.20" y2="396.82"/><line x1="270.98" y1="124.39" x2="269.17" y2="124.80"/><line x1="303.28" y1="129.17" x2="303.30" y2="129.69"/><line x1="334.94" y1="121.98" x2="312.47" y2="127.05"/><line x1="395.52" y1="101.28" x2="395.20" y2="99.12"/><line x1="385.12" y1="109.02" x2="390.85" y2="107.54"/><line x1="301.33" y1="382.91" x2="301.26" y2="383.44"/><line x1="326.56" y1="392.10" x2="326.00" y2="393.22"/><line x1="120.40" y1="394.57" x2="118.72" y2="394.50"/><line x1="323.13" y1="396.40" x2="321.89" y2="397.15"/><line x1="117.03" y1="393.97" x2="122.24" y2="394.22"/><line x1="379.30" y1="416.72" x2="380.76" y2="416.48"/><line x1="107.20" y1="381.29" x2="132.45" y2="390.63"/><line x1="62.13" y1="383.75" x2="98.04" y2="126.92"/><line x1="112.04" y1="131.66" x2="113.38" y2="131.66"/><line x1="77.71" y1="121.38" x2="52.97" y2="115.61"/><line x1="380.76" y1="416.48" x2="382.20" y2="415.91"/><line x1="407.86" y1="120.10" x2="363.42" y2="390.71"/><line x1="181.13" y1="400.87" x2="179.42" y2="400.90"/><line x1="186.28" y1="406.98" x2="184.79" y2="406.63"/><line x1="174.70" y1="397.65" x2="173.86" y2="398.22"/><line x1="444.77" y1="397.01" x2="446.04" y2="395.73"/><line x1="215.72" y1="106.95" x2="206.64" y2="105.47"/><line x1="157.42" y1="382.04" x2="145.77" y2="131.57"/><line x1="466.68" y1="400.95" x2="413.45" y2="124.20"/><line x1="218.30" y1="123.88" x2="218.08" y2="121.75"/><line x1="432.56" y1="113.34" x2="429.01" y2="117.35"/><line x1="216.79" y1="105.34" x2="207.96" y2="97.20"/><line x1="313.53" y1="385.88" x2="313.46" y2="384.17"/><line x1="223.27" y1="385.78" x2="221.09" y2="385.28"/><line x1="450.75" y1="408.40" x2="466.25" y2="407.92"/><line x1="421.51" y1="398.21" x2="429.97" y2="401.80"/><line x1="367.08" y1="94.36" x2="364.90" y2="95.99"/><line x1="352.32" y1="101.26" x2="350.93" y2="102.66"/><line x1="32.00" y1="115.14" x2="32.00" y2="387.91"/><line x1="62.13" y1="383.75" x2="40.35" y2="118.66"/><line x1="303.08" y1="127.56" x2="303.14" y2="128.09"/><line x1="96.12" y1="387.30" x2="90.26" y2="391.46"/><line x1="397.32" y1="92.44" x2="398.67" y2="91.74"/><line x1="157.42" y1="382.04" x2="160.64" y2="123.28"/><line x1="300.51" y1="126.79" x2="303.22" y2="128.64"/><line x1="52.81" y1="118.27" x2="52.47" y2="119.00"/><line x1="78.39" y1="393.16" x2="122.33" y2="128.57"/><line x1="144.45" y1="133.67" x2="101.37" y2="384.48"/><line x1="466.68" y1="400.95" x2="450.63" y2="120.68"/><line x1="77.63" y1="112.86" x2="70.84" y2="108.98"/><line x1="336.33" y1="390.89" x2="333.81" y2="392.17"/><line x1="376.02" y1="417.91" x2="370.18" y2="419.19"/><line x1="294.42" y1="385.31" x2="297.73" y2="384.84"/><line x1="111.85" y1="390.16" x2="110.67" y2="388.97"/><line x1="386.26" y1="409.87" x2="386.36" y2="408.25"/><line x1="218.30" y1="123.88" x2="325.23" y2="394.37"/><line x1="376.79" y1="417.19" x2="364.85" y2="406.66"/><line x1="377.93" y1="416.87" x2="371.70" y2="395.43"/><line x1="263.72" y1="384.89" x2="261.54" y2="385.48"/><line x1="188.88" y1="404.77" x2="184.73" y2="403.69"/><line x1="183.15" y1="103.09" x2="183.26" y2="101.97"/><line x1="372.23" y1="392.57" x2="408.64" y2="394.91"/><line x1="373.03" y1="393.96" x2="372.23" y2="392.57"/><line x1="62.13" y1="383.75" x2="49.63" y2="123.24"/><line x1="153.49" y1="390.04" x2="151.48" y2="390.15"/><line x1="83.50" y1="402.22" x2="84.36" y2="402.23"/><line x1="443.32" y1="405.67" x2="444.88" y2="406.35"/><line x1="431.73" y1="122.66" x2="443.54" y2="117.21"/><line x1="431.32" y1="120.82" x2="430.37" y2="119.05"/><line x1="440.10" y1="394.30" x2="437.92" y2="394.86"/><line x1="35.19" y1="388.13" x2="33.71" y2="387.86"/><line x1="473.61" y1="124.28" x2="476.81" y2="124.43"/><line x1="423.71" y1="402.69" x2="421.74" y2="399.62"/><line x1="157.42" y1="382.04" x2="149.11" y2="125.09"/><line x1="78.39" y1="393.16" x2="139.60" y2="135.97"/><line x1="360.07" y1="98.66" x2="357.50" y2="99.71"/><line x1="466.68" y1="400.95" x2="422.81" y2="123.98"/><line x1="411.06" y1="123.21" x2="466.68" y2="400.95"/><line x1="290.93" y1="127.50" x2="291.68" y2="128.11"/><line x1="420.87" y1="395.43" x2="420.57" y2="394.02"/><line x1="216.79" y1="105.34" x2="207.03" y2="103.37"/><line x1="402.64" y1="99.58" x2="394.79" y2="96.64"/><line x1="329.71" y1="393.48" x2="328.91" y2="393.31"/><line x1="303.26" y1="130.17" x2="298.38" y2="127.88"/><line x1="62.69" y1="108.74" x2="77.71" y2="121.38"/><line x1="288.49" y1="386.90" x2="283.51" y2="381.30"/><line x1="62.13" y1="383.75" x2="39.12" y2="110.73"/><line x1="301.17" y1="383.97" x2="301.10" y2="384.49"/><line x1="366.28" y1="398.97" x2="364.00" y2="401.20"/><line x1="375.73" y1="419.28" x2="376.06" y2="421.53"/><line x1="78.39" y1="393.16" x2="117.75" y2="131.11"/><line x1="122.24" y1="394.22" x2="124.39" y2="393.54"/><line x1="80.97" y1="121.15" x2="62.13" y2="383.75"/><line x1="293.57" y1="128.98" x2="336.33" y2="390.89"/><line x1="183.36" y1="105.61" x2="183.15" y2="104.84"/><line x1="404.99" y1="396.66" x2="408.64" y2="394.91"/><line x1="177.63" y1="394.51" x2="177.02" y2="395.41"/><line x1="88.12" y1="400.83" x2="88.71" y2="399.51"/><line x1="80.94" y1="406.68" x2="81.05" y2="406.11"/><line x1="76.10" y1="395.51" x2="77.26" y2="394.50"/><line x1="407.86" y1="120.10" x2="446.89" y2="394.37"/><line x1="202.59" y1="383.17" x2="164.49" y2="386.20"/><line x1="227.94" y1="389.24" x2="226.50" y2="387.66"/><line x1="229.89" y1="393.01" x2="231.75" y2="395.73"/><line x1="78.39" y1="393.16" x2="86.03" y2="402.31"/><line x1="442.10" y1="405.01" x2="443.32" y2="405.67"/><line x1="446.04" y1="395.73" x2="446.89" y2="394.37"/><line x1="215.07" y1="109.28" x2="205.58" y2="107.36"/><line x1="233.50" y1="394.61" x2="229.89" y2="393.01"/><line x1="203.45" y1="108.89" x2="201.36" y2="109.48"/><line x1="429.01" y1="117.35" x2="431.03" y2="113.09"/><line x1="313.58" y1="382.44" x2="313.90" y2="380.66"/><line x1="219.04" y1="384.85" x2="217.02" y2="384.50"/><line x1="32.96" y1="114.43" x2="50.27" y2="394.49"/><line x1="348.81" y1="103.83" x2="346.21" y2="104.86"/><line x1="320.56" y1="397.60" x2="313.53" y2="385.88"/><line x1="312.87" y1="124.95" x2="312.74" y2="122.17"/><line x1="96.10" y1="386.32" x2="89.12" y2="391.33"/><line x1="326.56" y1="392.10" x2="290.93" y2="127.50"/><line x1="303.22" y1="128.64" x2="303.28" y2="129.17"/><line x1="52.03" y1="119.71" x2="51.53" y2="120.41"/><line x1="240.45" y1="120.52" x2="260.07" y2="118.83"/><line x1="297.73" y1="384.84" x2="301.33" y2="382.91"/><line x1="51.53" y1="120.41" x2="51.00" y2="121.11"/><line x1="158.69" y1="125.64" x2="159.90" y2="125.76"/><line x1="357.39" y1="390.47" x2="354.78" y2="390.10"/><line x1="352.03" y1="388.22" x2="349.57" y2="388.27"/><line x1="231.75" y1="395.73" x2="230.13" y2="394.95"/><line x1="175.52" y1="396.99" x2="174.70" y2="397.65"/><line x1="255.92" y1="389.41" x2="257.63" y2="387.66"/><line x1="151.48" y1="390.15" x2="148.90" y2="389.87"/><line x1="371.70" y1="395.43" x2="386.36" y2="408.25"/><line x1="441.14" y1="401.00" x2="443.32" y2="405.67"/><line x1="443.37" y1="398.28" x2="444.77" y2="397.01"/><line x1="229.12" y1="391.06" x2="229.89" y2="393.01"/><line x1="439.95" y1="115.65" x2="431.32" y2="120.82"/><line x1="218.30" y1="123.88" x2="281.39" y2="381.22"/><line x1="362.55" y1="97.42" x2="360.07" y2="98.66"/><line x1="427.99" y1="112.79" x2="426.51" y2="112.64"/><line x1="395.52" y1="101.28" x2="402.64" y2="99.58"/><line x1="292.53" y1="128.62" x2="293.57" y2="128.98"/><line x1="103.70" y1="381.93" x2="105.19" y2="381.21"/><line x1="32.96" y1="114.43" x2="44.94" y2="394.38"/><line x1="328.11" y1="393.03" x2="327.33" y2="392.64"/><line x1="96.22" y1="388.28" x2="96.12" y2="387.30"/><line x1="117.03" y1="393.97" x2="118.72" y2="394.50"/><line x1="236.72" y1="123.27" x2="233.95" y2="124.28"/><line x1="157.42" y1="382.04" x2="140.05" y2="389.12"/><line x1="107.20" y1="381.29" x2="129.81" y2="391.53"/><line x1="77.71" y1="121.38" x2="52.89" y2="114.69"/><line x1="365.56" y1="403.36" x2="365.19" y2="403.07"/><line x1="163.06" y1="121.20" x2="164.10" y2="120.69"/><line x1="124.39" y1="393.54" x2="110.67" y2="388.97"/><line x1="233.95" y1="124.28" x2="231.36" y2="124.71"/><line x1="164.10" y1="120.69" x2="165.21" y2="120.16"/><line x1="407.86" y1="120.10" x2="366.20" y2="390.85"/><line x1="208.19" y1="383.38" x2="208.24" y2="383.62"/><line x1="177.02" y1="395.41" x2="179.42" y2="400.90"/><line x1="89.01" y1="398.06" x2="89.11" y2="396.49"/><line x1="187.65" y1="406.02" x2="188.88" y2="404.77"/><line x1="304.94" y1="381.60" x2="306.73" y2="381.28"/><line x1="248.88" y1="404.95" x2="246.08" y2="404.51"/><line x1="89.11" y1="396.49" x2="89.11" y2="394.84"/><line x1="39.12" y1="110.73" x2="38.19" y2="110.23"/><line x1="164.49" y1="386.20" x2="164.65" y2="386.58"/><line x1="62.13" y1="383.75" x2="116.25" y2="131.58"/><line x1="215.02" y1="111.45" x2="215.39" y2="113.55"/><line x1="81.50" y1="403.15" x2="82.05" y2="402.58"/><line x1="221.09" y1="102.48" x2="219.62" y2="103.32"/><line x1="38.19" y1="110.23" x2="36.96" y2="110.73"/><line x1="367.08" y1="94.36" x2="369.04" y2="92.54"/><line x1="201.36" y1="109.48" x2="198.48" y2="109.76"/><line x1="210.67" y1="383.77" x2="208.24" y2="383.62"/><line x1="32.00" y1="115.14" x2="33.71" y2="387.86"/><line x1="443.54" y1="117.21" x2="447.10" y2="118.92"/><line x1="393.41" y1="106.27" x2="394.88" y2="104.83"/><line x1="469.60" y1="399.67" x2="471.41" y2="399.02"/><line x1="157.42" y1="382.04" x2="160.17" y2="124.37"/><line x1="300.51" y1="126.79" x2="303.14" y2="128.09"/><line x1="370.41" y1="97.12" x2="369.04" y2="92.54"/><line x1="431.33" y1="397.11" x2="420.57" y2="394.02"/><line x1="403.73" y1="110.58" x2="402.81" y2="105.04"/><line x1="144.45" y1="133.67" x2="100.08" y2="385.67"/><line x1="294.42" y1="385.31" x2="301.32" y2="381.92"/><line x1="334.94" y1="121.98" x2="312.87" y2="124.95"/><line x1="218.30" y1="123.88" x2="326.00" y2="393.22"/><line x1="364.40" y1="403.23" x2="364.00" y2="403.48"/><line x1="333.81" y1="392.17" x2="331.39" y2="393.66"/><line x1="326.00" y1="393.22" x2="325.23" y2="394.37"/><line x1="107.27" y1="131.09" x2="109.35" y2="131.57"/><line x1="364.00" y1="403.48" x2="363.60" y2="403.72"/><line x1="369.15" y1="397.07" x2="371.70" y2="395.43"/><line x1="109.35" y1="131.57" x2="109.84" y2="131.60"/><line x1="107.20" y1="381.29" x2="137.49" y2="389.39"/><line x1="62.13" y1="383.75" x2="102.58" y2="129.40"/><line x1="153.49" y1="390.04" x2="155.02" y2="389.36"/><line x1="77.71" y1="121.38" x2="53.01" y2="117.41"/><line x1="435.75" y1="395.57" x2="420.35" y2="392.59"/><line x1="352.03" y1="388.22" x2="352.89" y2="389.39"/><line x1="218.30" y1="123.88" x2="313.90" y2="380.66"/><line x1="190.78" y1="401.70" x2="191.41" y2="400.04"/><line x1="231.11" y1="396.03" x2="230.52" y2="396.30"/><line x1="407.86" y1="120.10" x2="357.39" y2="390.47"/><line x1="177.79" y1="400.77" x2="175.52" y2="396.99"/><line x1="59.03" y1="384.44" x2="57.53" y2="384.97"/><line x1="230.52" y1="396.30" x2="230.03" y2="396.55"/><line x1="217.53" y1="119.68" x2="218.08" y2="121.75"/><line x1="117.75" y1="131.11" x2="69.86" y2="391.28"/><line x1="177.02" y1="395.41" x2="176.30" y2="396.24"/><line x1="442.07" y1="399.59" x2="443.37" y2="398.28"/><line x1="191.79" y1="398.37" x2="178.48" y2="392.51"/><line x1="436.29" y1="114.32" x2="430.37" y2="119.05"/><line x1="157.42" y1="382.04" x2="147.79" y2="126.99"/><line x1="466.68" y1="400.95" x2="419.50" y2="124.41"/><line x1="421.84" y1="401.06" x2="421.74" y2="399.62"/><line x1="218.30" y1="123.88" x2="195.17" y2="109.75"/><line x1="432.56" y1="113.34" x2="431.03" y2="113.09"/><line x1="216.79" y1="105.34" x2="207.12" y2="101.20"/><line x1="374.20" y1="104.80" x2="357.50" y2="99.71"/><line x1="450.75" y1="408.40" x2="466.68" y2="400.95"/><line x1="421.51" y1="398.21" x2="431.85" y2="399.24"/><line x1="395.20" y1="99.12" x2="394.79" y2="96.64"/><line x1="326.56" y1="392.10" x2="236.72" y2="123.27"/><line x1="301.72" y1="126.51" x2="303.11" y2="126.58"/><line x1="62.13" y1="383.75" x2="39.60" y2="112.61"/><line x1="394.79" y1="96.64" x2="395.96" y2="93.16"/><line x1="375.73" y1="419.28" x2="374.07" y2="420.63"/><line x1="284.45" y1="385.08" x2="283.51" y2="381.30"/><line x1="157.42" y1="382.04" x2="162.12" y2="121.76"/><line x1="78.39" y1="393.16" x2="119.28" y2="130.35"/><line x1="74.51" y1="109.30" x2="77.57" y2="111.18"/><line x1="122.24" y1="394.22" x2="115.22" y2="392.92"/><line x1="144.45" y1="133.67" x2="103.70" y2="381.93"/><line x1="466.68" y1="400.95" x2="454.14" y2="122.40"/><line x1="383.62" y1="414.93" x2="384.69" y2="413.85"/><line x1="376.02" y1="417.91" x2="376.79" y2="417.19"/><line x1="115.22" y1="392.92" x2="124.39" y2="393.54"/><line x1="165.21" y1="120.16" x2="166.58" y2="119.56"/><line x1="384.69" y1="413.85" x2="385.46" y2="412.65"/><line x1="80.94" y1="406.68" x2="80.66" y2="407.05"/><line x1="218.30" y1="123.88" x2="323.13" y2="396.40"/><line x1="181.59" y1="103.36" x2="183.35" y2="100.61"/><line x1="166.58" y1="119.56" x2="167.77" y2="119.14"/><line x1="376.79" y1="417.19" x2="365.90" y2="404.02"/><line x1="184.78" y1="405.66" x2="187.65" y2="406.02"/><line x1="407.86" y1="120.10" x2="449.74" y2="408.05"/><line x1="202.59" y1="383.17" x2="174.45" y2="390.65"/><line x1="188.88" y1="404.77" x2="189.93" y2="403.30"/><line x1="79.16" y1="407.65" x2="80.66" y2="407.05"/><line x1="372.23" y1="392.57" x2="368.41" y2="391.18"/><line x1="174.45" y1="390.65" x2="164.49" y2="386.20"/><line x1="446.04" y1="395.73" x2="449.74" y2="408.05"/><line x1="199.61" y1="392.22" x2="178.48" y2="392.51"/><line x1="449.74" y1="408.05" x2="446.89" y2="394.37"/><line x1="440.84" y1="402.58" x2="441.14" y2="401.00"/><line x1="348.81" y1="103.83" x2="340.46" y2="113.80"/><line x1="35.58" y1="111.85" x2="34.19" y2="113.21"/><line x1="431.73" y1="122.66" x2="431.32" y2="120.82"/><line x1="320.56" y1="397.60" x2="313.76" y2="387.56"/><line x1="216.03" y1="115.60" x2="216.79" y2="117.64"/><line x1="62.13" y1="383.75" x2="69.86" y2="391.28"/><line x1="431.31" y1="400.78" x2="431.85" y2="399.24"/><line x1="364.90" y1="95.99" x2="362.55" y2="97.42"/><line x1="157.42" y1="382.04" x2="152.20" y2="123.69"/><line x1="394.88" y1="104.83" x2="395.50" y2="103.18"/><line x1="78.39" y1="393.16" x2="134.77" y2="134.75"/><line x1="466.68" y1="400.95" x2="429.10" y2="122.93"/><line x1="326.56" y1="392.10" x2="290.14" y2="126.87"/><line x1="303.22" y1="128.64" x2="299.42" y2="127.28"/><line x1="402.81" y1="105.04" x2="395.52" y2="101.28"/><line x1="405.41" y1="115.75" x2="403.73" y2="110.58"/><line x1="77.65" y1="116.27" x2="66.79" y2="108.73"/><line x1="283.51" y1="381.30" x2="218.30" y2="123.88"/><line x1="299.42" y1="127.28" x2="303.28" y2="129.17"/><line x1="297.73" y1="384.84" x2="301.36" y2="382.40"/><line x1="303.26" y1="130.17" x2="296.20" y2="128.91"/><line x1="108.67" y1="386.30" x2="107.93" y2="384.78"/><line x1="301.36" y1="382.40" x2="301.33" y2="382.91"/><line x1="325.23" y1="394.37" x2="324.26" y2="395.45"/><line x1="376.97" y1="107.42" x2="340.06" y2="115.30"/><line x1="349.57" y1="388.27" x2="338.74" y2="116.64"/><line x1="94.66" y1="123.90" x2="96.14" y2="125.47"/><line x1="324.26" y1="395.45" x2="323.13" y2="396.40"/><line x1="109.84" y1="131.60" x2="110.80" y2="131.63"/><line x1="76.08" y1="407.23" x2="74.71" y2="406.31"/><line x1="80.97" y1="121.15" x2="79.74" y2="121.50"/><line x1="110.80" y1="131.63" x2="112.04" y2="131.66"/><line x1="151.48" y1="390.15" x2="156.91" y2="385.54"/><line x1="89.12" y1="391.33" x2="78.39" y2="393.16"/><line x1="74.71" y1="406.31" x2="81.22" y2="403.85"/><line x1="131.54" y1="131.58" x2="130.07" y2="129.89"/><line x1="156.91" y1="385.54" x2="148.90" y2="389.87"/><line x1="184.55" y1="400.83" x2="182.85" y2="400.81"/><line x1="218.30" y1="123.88" x2="280.32" y2="381.20"/><line x1="174.95" y1="399.55" x2="173.86" y2="398.22"/><line x1="130.07" y1="129.89" x2="128.47" y2="128.45"/><line x1="407.86" y1="120.10" x2="442.30" y2="393.98"/><line x1="78.39" y1="393.16" x2="87.19" y2="402.01"/><line x1="446.61" y1="406.99" x2="448.29" y2="407.57"/><line x1="54.57" y1="386.21" x2="53.10" y2="386.85"/><line x1="430.37" y1="119.05" x2="432.56" y2="113.34"/><line x1="420.35" y1="392.59" x2="433.56" y2="396.35"/><line x1="195.17" y1="109.75" x2="191.77" y2="109.47"/><line x1="354.91" y1="100.58" x2="352.32" y2="101.26"/><line x1="450.63" y1="120.68" x2="454.14" y2="122.40"/><line x1="421.74" y1="399.62" x2="421.51" y2="398.21"/><line x1="395.96" y1="93.16" x2="397.32" y2="92.44"/><line x1="32.96" y1="114.43" x2="46.98" y2="395.07"/><line x1="425.91" y1="402.68" x2="428.08" y2="402.41"/><line x1="303.06" y1="127.05" x2="303.08" y2="127.56"/><line x1="320.56" y1="397.60" x2="313.58" y2="382.44"/><line x1="301.32" y1="381.92" x2="218.30" y2="123.88"/><line x1="77.57" y1="111.18" x2="77.63" y2="112.86"/><line x1="96.10" y1="386.32" x2="98.39" y2="386.39"/><line x1="124.39" y1="393.54" x2="111.85" y2="390.16"/><line x1="283.51" y1="381.30" x2="294.42" y2="385.31"/><line x1="326.56" y1="392.10" x2="292.53" y2="128.62"/><line x1="95.32" y1="112.24" x2="92.50" y2="108.10"/><line x1="372.08" y1="419.89" x2="376.02" y2="417.91"/><line x1="385.46" y1="412.65" x2="385.97" y2="411.34"/><line x1="240.45" y1="120.52" x2="238.83" y2="122.01"/><line x1="275.85" y1="382.87" x2="274.17" y2="384.34"/><line x1="385.97" y1="411.34" x2="386.26" y2="409.87"/><line x1="187.65" y1="406.02" x2="184.77" y2="404.67"/><line x1="248.88" y1="404.95" x2="251.15" y2="404.07"/><line x1="184.77" y1="404.67" x2="188.88" y2="404.77"/><line x1="164.49" y1="386.20" x2="172.51" y2="390.68"/><line x1="221.09" y1="102.48" x2="220.04" y2="98.57"/><line x1="176.30" y1="396.24" x2="175.52" y2="396.99"/><line x1="172.51" y1="390.68" x2="164.65" y2="386.58"/><line x1="156.13" y1="387.92" x2="155.02" y2="389.36"/><line x1="201.36" y1="109.48" x2="218.08" y2="121.75"/><line x1="220.04" y1="98.57" x2="219.62" y2="103.32"/><line x1="371.70" y1="395.43" x2="373.03" y2="393.96"/><line x1="32.96" y1="114.43" x2="59.03" y2="384.44"/><line x1="444.55" y1="393.97" x2="442.30" y2="393.98"/><line x1="230.13" y1="394.95" x2="230.52" y2="396.30"/><line x1="372.07" y1="101.29" x2="374.20" y2="104.80"/><line x1="218.30" y1="123.88" x2="303.14" y2="381.84"/><line x1="431.33" y1="397.11" x2="420.87" y2="395.43"/><line x1="403.73" y1="110.58" x2="394.88" y2="104.83"/><line x1="343.39" y1="105.84" x2="339.33" y2="111.92"/><line x1="402.94" y1="90.47" x2="404.56" y2="90.59"/><line x1="77.64" y1="117.99" x2="77.66" y2="119.69"/><line x1="365.59" y1="416.27" x2="364.67" y2="414.66"/><line x1="311.57" y1="128.56" x2="334.94" y2="121.98"/><line x1="117.03" y1="393.97" x2="115.22" y2="392.92"/><line x1="389.67" y1="406.13" x2="391.20" y2="405.72"/><line x1="301.26" y1="383.44" x2="301.17" y2="383.97"/><line x1="107.20" y1="381.29" x2="134.98" y2="389.91"/><line x1="77.71" y1="121.38" x2="53.03" y2="116.52"/><line x1="124.39" y1="393.54" x2="108.67" y2="386.30"/><line x1="176.54" y1="114.16" x2="188.62" y2="108.94"/><line x1="190.78" y1="401.70" x2="184.55" y2="400.83"/><line x1="407.86" y1="120.10" x2="360.37" y2="390.63"/><line x1="371.70" y1="395.43" x2="379.30" y2="416.72"/><line x1="186.28" y1="406.98" x2="184.80" y2="407.59"/><line x1="87.19" y1="402.01" x2="88.12" y2="400.83"/><line x1="184.79" y1="406.63" x2="184.78" y2="405.66"/><line x1="73.59" y1="404.98" x2="72.83" y2="403.31"/><line x1="218.30" y1="123.88" x2="268.48" y2="384.36"/><line x1="168.76" y1="391.25" x2="164.77" y2="388.06"/><line x1="40.35" y1="118.66" x2="39.91" y2="116.00"/><line x1="126.55" y1="127.52" x2="125.22" y2="127.45"/><line x1="218.30" y1="123.88" x2="198.48" y2="109.76"/><line x1="454.05" y1="413.37" x2="451.21" y2="412.04"/><line x1="448.29" y1="407.57" x2="449.74" y2="408.05"/><line x1="51.61" y1="387.45" x2="51.80" y2="390.74"/><line x1="421.51" y1="398.21" x2="431.31" y2="400.78"/><line x1="425.06" y1="112.41" x2="423.88" y2="112.80"/><line x1="454.14" y1="122.40" x2="457.66" y2="123.98"/><line x1="276.46" y1="121.10" x2="274.73" y2="119.04"/><line x1="157.42" y1="382.04" x2="161.31" y2="122.43"/><line x1="300.51" y1="126.79" x2="299.42" y2="127.28"/><line x1="380.55" y1="108.91" x2="385.12" y2="109.02"/><line x1="370.41" y1="97.12" x2="372.07" y2="101.29"/><line x1="144.45" y1="133.67" x2="102.51" y2="383.12"/><line x1="398.67" y1="91.74" x2="400.03" y2="91.13"/><line x1="77.63" y1="112.86" x2="77.65" y2="114.57"/><line x1="376.02" y1="417.91" x2="368.41" y2="418.43"/><line x1="248.49" y1="112.16" x2="246.68" y2="110.30"/><line x1="70.84" y1="108.98" x2="77.65" y2="116.27"/><line x1="269.17" y1="124.80" x2="267.28" y2="124.13"/><line x1="218.30" y1="123.88" x2="324.26" y2="395.45"/><line x1="93.89" y1="114.41" x2="89.99" y2="108.49"/><line x1="370.18" y1="419.19" x2="368.41" y2="418.43"/><line x1="333.81" y1="392.17" x2="330.54" y2="393.60"/><line x1="179.83" y1="108.00" x2="183.79" y2="106.39"/><line x1="188.88" y1="404.77" x2="184.69" y2="402.71"/><line x1="62.13" y1="383.75" x2="107.27" y2="131.09"/><line x1="77.59" y1="407.69" x2="76.08" y2="407.23"/><line x1="163.67" y1="385.50" x2="162.73" y2="384.84"/><line x1="232.39" y1="395.39" x2="231.75" y2="395.73"/><line x1="252.75" y1="401.09" x2="253.07" y2="399.18"/><line x1="440.84" y1="402.58" x2="441.43" y2="404.39"/><line x1="216.03" y1="115.60" x2="201.36" y2="109.48"/><line x1="217.66" y1="97.55" x2="218.14" y2="104.20"/><line x1="436.29" y1="114.32" x2="432.56" y2="113.34"/><line x1="364.90" y1="95.99" x2="372.07" y2="101.29"/><line x1="157.42" y1="382.04" x2="151.07" y2="123.85"/><line x1="316.01" y1="396.42" x2="316.53" y2="396.99"/><line x1="466.68" y1="400.95" x2="426.07" y2="123.43"/><line x1="411.06" y1="123.21" x2="413.45" y2="124.20"/><line x1="427.38" y1="115.73" x2="426.51" y2="112.64"/><line x1="218.30" y1="123.88" x2="223.27" y2="385.78"/><line x1="216.79" y1="105.34" x2="215.72" y2="106.95"/><line x1="402.81" y1="105.04" x2="395.50" y2="103.18"/><line x1="374.20" y1="104.80" x2="376.97" y2="107.42"/><line x1="402.64" y1="99.58" x2="395.96" y2="93.16"/><line x1="340.60" y1="106.87" x2="338.09" y2="108.03"/><line x1="421.51" y1="398.21" x2="421.20" y2="396.82"/><line x1="303.26" y1="130.17" x2="297.32" y2="128.46"/><line x1="101.37" y1="384.48" x2="102.51" y2="383.12"/><line x1="96.96" y1="392.10" x2="95.94" y2="392.73"/><line x1="62.69" y1="108.74" x2="58.87" y2="109.17"/><line x1="457.66" y1="123.98" x2="460.82" y2="124.86"/><line x1="301.72" y1="126.51" x2="300.51" y2="126.79"/><line x1="288.49" y1="386.90" x2="291.29" y2="386.21"/><line x1="62.13" y1="383.75" x2="38.19" y2="110.23"/><line x1="349.57" y1="388.27" x2="380.55" y2="108.91"/><line x1="375.73" y1="419.28" x2="372.08" y2="419.89"/><line x1="364.35" y1="413.36" x2="364.22" y2="411.80"/><line x1="157.42" y1="382.04" x2="164.10" y2="120.69"/><line x1="78.39" y1="393.16" x2="76.45" y2="392.49"/><line x1="144.45" y1="133.67" x2="107.20" y2="381.29"/><line x1="466.68" y1="400.95" x2="457.66" y2="123.98"/><line x1="392.49" y1="405.08" x2="393.44" y2="404.12"/><line x1="293.57" y1="128.98" x2="294.93" y2="129.09"/><line x1="97.16" y1="110.20" x2="95.32" y2="112.24"/><line x1="162.12" y1="121.76" x2="163.06" y2="121.20"/><line x1="208.16" y1="383.13" x2="208.19" y2="383.38"/><line x1="144.45" y1="133.67" x2="78.39" y2="393.16"/><line x1="174.95" y1="399.55" x2="174.70" y2="397.65"/><line x1="179.42" y1="400.90" x2="177.79" y2="400.77"/><line x1="407.86" y1="120.10" x2="444.55" y2="393.97"/><line x1="72.52" y1="401.35" x2="72.69" y2="399.52"/><line x1="88.71" y1="399.51" x2="89.01" y2="398.06"/><line x1="78.39" y1="393.16" x2="86.71" y2="402.24"/><line x1="79.16" y1="407.65" x2="81.08" y2="405.40"/><line x1="446.61" y1="406.99" x2="444.77" y2="397.01"/><line x1="176.43" y1="391.17" x2="202.59" y2="383.17"/><line x1="164.81" y1="388.94" x2="166.95" y2="391.25"/><line x1="233.50" y1="394.61" x2="233.00" y2="395.02"/><line x1="222.40" y1="101.44" x2="221.09" y2="102.48"/><line x1="39.60" y1="112.61" x2="39.12" y2="110.73"/><line x1="199.61" y1="392.22" x2="200.13" y2="388.81"/><line x1="326.56" y1="392.10" x2="333.81" y2="392.17"/><line x1="429.01" y1="117.35" x2="429.50" y2="112.92"/><line x1="458.23" y1="412.82" x2="462.64" y2="410.86"/><line x1="89.12" y1="391.33" x2="89.09" y2="393.11"/><line x1="425.91" y1="402.68" x2="421.51" y2="398.21"/><line x1="457.66" y1="123.98" x2="468.01" y2="400.31"/><line x1="320.56" y1="397.60" x2="313.46" y2="384.17"/><line x1="423.65" y1="112.05" x2="422.30" y2="111.51"/><line x1="62.13" y1="383.75" x2="65.30" y2="390.73"/><line x1="278.16" y1="122.56" x2="270.98" y2="124.39"/><line x1="218.30" y1="123.88" x2="259.51" y2="386.38"/><line x1="78.39" y1="393.16" x2="131.54" y2="131.58"/><line x1="96.38" y1="389.26" x2="92.52" y2="391.90"/><line x1="326.56" y1="392.10" x2="291.68" y2="128.11"/><line x1="306.01" y1="130.28" x2="342.98" y2="389.09"/><line x1="113.10" y1="391.28" x2="111.85" y2="390.16"/><line x1="402.64" y1="99.58" x2="398.67" y2="91.74"/><line x1="297.73" y1="384.84" x2="301.26" y2="383.44"/><line x1="168.88" y1="118.82" x2="169.97" y2="118.48"/><line x1="376.79" y1="417.19" x2="365.59" y2="416.27"/><line x1="81.05" y1="406.11" x2="81.08" y2="405.40"/><line x1="373.03" y1="393.96" x2="389.67" y2="406.13"/><line x1="104.97" y1="130.35" x2="107.27" y2="131.09"/><line x1="81.08" y1="405.40" x2="77.59" y2="407.69"/><line x1="189.93" y1="403.30" x2="190.78" y2="401.70"/><line x1="156.13" y1="387.92" x2="153.49" y2="390.04"/><line x1="371.70" y1="395.43" x2="386.32" y2="406.47"/><line x1="243.02" y1="403.09" x2="239.98" y2="401.05"/><line x1="136.90" y1="135.73" x2="134.77" y2="134.75"/><line x1="162.73" y1="384.84" x2="161.68" y2="384.22"/><line x1="230.13" y1="394.95" x2="231.11" y2="396.03"/><line x1="215.15" y1="96.56" x2="212.78" y2="95.78"/><line x1="218.30" y1="123.88" x2="282.46" y2="381.25"/><line x1="60.56" y1="384.02" x2="59.03" y2="384.44"/><line x1="216.79" y1="117.64" x2="217.53" y2="119.68"/><line x1="317.53" y1="397.40" x2="319.18" y2="397.67"/><line x1="78.39" y1="393.16" x2="88.71" y2="399.51"/><line x1="430.37" y1="119.05" x2="429.01" y2="117.35"/><line x1="429.01" y1="117.35" x2="427.38" y2="115.73"/><line x1="285.71" y1="125.20" x2="288.05" y2="125.81"/><line x1="32.96" y1="114.43" x2="42.80" y2="393.16"/><line x1="321.89" y1="397.15" x2="320.56" y2="397.60"/><line x1="296.20" y1="128.91" x2="294.93" y2="129.09"/><line x1="105.19" y1="381.21" x2="107.20" y2="381.29"/><line x1="124.39" y1="393.54" x2="109.59" y2="387.68"/><line x1="326.56" y1="392.10" x2="267.28" y2="124.13"/><line x1="113.38" y1="131.66" x2="114.65" y2="131.66"/><line x1="382.20" y1="415.91" x2="383.62" y2="414.93"/><line x1="96.14" y1="125.47" x2="98.04" y2="126.92"/><line x1="145.69" y1="389.40" x2="142.76" y2="389.11"/><line x1="275.85" y1="382.87" x2="276.04" y2="381.27"/><line x1="184.79" y1="406.63" x2="184.80" y2="407.59"/><line x1="179.16" y1="110.06" x2="179.83" y2="108.00"/><line x1="142.76" y1="389.11" x2="140.05" y2="389.12"/><line x1="164.49" y1="386.20" x2="163.67" y2="385.50"/><line x1="222.04" y1="99.45" x2="222.40" y2="101.44"/><line x1="448.29" y1="407.57" x2="446.04" y2="395.73"/><line x1="172.51" y1="390.68" x2="170.62" y2="390.97"/><line x1="221.09" y1="385.28" x2="219.04" y2="384.85"/><line x1="32.96" y1="114.43" x2="56.04" y2="385.57"/><line x1="460.82" y1="124.86" x2="473.39" y2="398.35"/><line x1="350.93" y1="102.66" x2="348.81" y2="103.83"/><line x1="428.08" y1="402.41" x2="429.97" y2="401.80"/><line x1="218.30" y1="123.88" x2="306.73" y2="381.28"/><line x1="429.50" y1="112.92" x2="427.38" y2="115.73"/><line x1="370.41" y1="97.12" x2="364.90" y2="95.99"/><line x1="107.20" y1="381.29" x2="124.39" y2="393.54"/><line x1="431.33" y1="397.11" x2="420.35" y2="392.59"/><line x1="398.67" y1="91.74" x2="403.22" y2="94.61"/><line x1="334.94" y1="121.98" x2="312.74" y2="122.17"/><line x1="403.22" y1="94.61" x2="400.03" y2="91.13"/><line x1="70.84" y1="108.98" x2="77.65" y2="114.57"/><line x1="79.74" y1="121.50" x2="77.71" y2="121.38"/><line x1="303.14" y1="128.09" x2="303.22" y2="128.64"/><line x1="77.65" y1="114.57" x2="77.65" y2="116.27"/><line x1="110.67" y1="388.97" x2="109.59" y2="387.68"/><line x1="386.36" y1="408.25" x2="386.32" y2="406.47"/><line x1="333.81" y1="392.17" x2="332.26" y2="393.69"/><line x1="301.32" y1="381.92" x2="297.73" y2="384.84"/><line x1="109.59" y1="387.68" x2="108.67" y2="386.30"/><line x1="171.12" y1="118.03" x2="172.41" y2="117.36"/><line x1="218.30" y1="123.88" x2="171.12" y2="118.03"/><line x1="184.73" y1="403.69" x2="184.69" y2="402.71"/><line x1="62.13" y1="383.75" x2="104.97" y2="130.35"/><line x1="77.71" y1="121.38" x2="52.81" y2="118.27"/><line x1="435.75" y1="395.57" x2="433.56" y2="396.35"/><line x1="172.41" y1="117.36" x2="173.90" y2="116.38"/><line x1="77.59" y1="407.69" x2="81.10" y2="404.62"/><line x1="81.10" y1="404.62" x2="76.08" y2="407.23"/><line x1="407.86" y1="120.10" x2="354.78" y2="390.10"/><line x1="177.79" y1="400.77" x2="176.28" y2="400.36"/><line x1="134.77" y1="134.75" x2="133.05" y2="133.29"/><line x1="186.28" y1="406.98" x2="187.65" y2="406.02"/><line x1="239.98" y1="401.05" x2="237.20" y2="398.73"/><line x1="267.28" y1="124.13" x2="238.83" y2="122.01"/><line x1="133.05" y1="133.29" x2="131.54" y2="131.58"/><line x1="437.92" y1="394.86" x2="435.75" y2="395.57"/><line x1="57.53" y1="384.97" x2="56.04" y2="385.57"/><line x1="427.38" y1="115.73" x2="427.99" y2="112.79"/><line x1="218.30" y1="123.88" x2="191.77" y2="109.47"/><line x1="374.20" y1="104.80" x2="354.91" y2="100.58"/><line x1="420.57" y1="394.02" x2="420.35" y2="392.59"/><line x1="421.51" y1="398.21" x2="431.33" y2="397.11"/><line x1="326.56" y1="392.10" x2="233.95" y2="124.28"/><line x1="301.72" y1="126.51" x2="303.08" y2="127.56"/><line x1="298.38" y1="127.88" x2="297.32" y2="128.46"/><line x1="394.79" y1="96.64" x2="394.56" y2="93.81"/><line x1="297.32" y1="128.46" x2="296.20" y2="128.91"/><line x1="157.42" y1="382.04" x2="163.06" y2="121.20"/><line x1="301.10" y1="384.49" x2="301.06" y2="384.97"/><line x1="74.51" y1="109.30" x2="77.44" y2="109.51"/><line x1="144.45" y1="133.67" x2="105.19" y2="381.21"/><line x1="301.06" y1="384.97" x2="301.08" y2="385.42"/><line x1="97.16" y1="110.20" x2="99.28" y2="108.30"/><line x1="248.49" y1="112.16" x2="250.34" y2="113.60"/><line x1="115.22" y1="392.92" x2="113.10" y2="391.28"/><line x1="374.07" y1="420.63" x2="376.06" y2="421.53"/><line x1="218.30" y1="123.88" x2="321.89" y2="397.15"/><line x1="115.67" y1="131.63" x2="116.25" y2="131.58"/><line x1="93.89" y1="114.41" x2="86.05" y2="110.80"/><line x1="376.79" y1="417.19" x2="377.93" y2="416.87"/><line x1="184.78" y1="405.66" x2="184.77" y2="404.67"/><line x1="72.52" y1="401.35" x2="81.50" y2="403.15"/><line x1="333.81" y1="392.17" x2="328.91" y2="393.31"/><line x1="179.83" y1="108.00" x2="180.53" y2="105.80"/><line x1="79.16" y1="407.65" x2="81.05" y2="406.11"/><line x1="174.45" y1="390.65" x2="172.51" y2="390.68"/><line x1="123.80" y1="127.85" x2="122.33" y2="128.57"/><line x1="178.12" y1="393.54" x2="177.63" y2="394.51"/><line x1="252.16" y1="402.77" x2="248.88" y2="404.95"/><line x1="62.13" y1="383.75" x2="109.84" y2="131.60"/><line x1="222.40" y1="101.44" x2="223.41" y2="99.99"/><line x1="51.32" y1="393.05" x2="50.27" y2="394.49"/><line x1="210.67" y1="383.77" x2="208.11" y2="382.17"/><line x1="50.27" y1="394.49" x2="48.79" y2="395.13"/><line x1="62.13" y1="383.75" x2="67.56" y2="391.00"/><line x1="217.02" y1="384.50" x2="215.00" y2="384.20"/><line x1="157.42" y1="382.04" x2="153.44" y2="123.87"/><line x1="218.30" y1="123.88" x2="224.89" y2="386.46"/><line x1="340.46" y1="113.80" x2="346.21" y2="104.86"/><line x1="78.39" y1="393.16" x2="133.05" y2="133.29"/><line x1="466.68" y1="400.95" x2="431.73" y2="122.66"/><line x1="218.30" y1="123.88" x2="219.04" y2="384.85"/><line x1="402.81" y1="105.04" x2="402.64" y2="99.58"/><line x1="346.21" y1="104.86" x2="343.39" y2="105.84"/><line x1="400.03" y1="91.13" x2="401.45" y2="90.68"/><line x1="402.64" y1="99.58" x2="397.32" y2="92.44"/><line x1="77.65" y1="116.27" x2="77.64" y2="117.99"/><line x1="326.56" y1="392.10" x2="327.33" y2="392.64"/><line x1="299.42" y1="127.28" x2="303.30" y2="129.69"/><line x1="303.26" y1="130.17" x2="336.33" y2="390.89"/><line x1="401.45" y1="90.68" x2="402.94" y2="90.47"/><line x1="96.96" y1="392.10" x2="96.78" y2="391.17"/><line x1="376.79" y1="417.19" x2="366.85" y2="417.49"/></g></svg>