<svg xmlns="http://www.w3.org/2000/svg" width="512" height="512"><rect width="512" height="512" fill="#0a0f1a"/><text x="12" y="20" font-family="monospace" font-size="11" fill="#4a7fa5">FRONT (XZ)</text><g stroke="#00d4ff" stroke-width="0.6" opacity="0.85"><line x1="100.30" y1="263.54" x2="102.69" y2="264.24"/><line x1="120.69" y1="154.93" x2="117.68" y2="155.91"/><line x1="117.06" y1="269.99" x2="115.67" y2="272.31"/><line x1="383.50" y1="373.06" x2="380.70" y2="371.63"/><line x1="435.82" y1="365.29" x2="437.60" y2="366.56"/><line x1="466.35" y1="271.34" x2="461.91" y2="263.04"/><line x1="306.03" y1="292.73" x2="414.00" y2="201.62"/><line x1="109.86" y1="242.62" x2="63.26" y2="233.44"/><line x1="291.37" y1="175.74" x2="292.61" y2="178.01"/><line x1="133.11" y1="242.89" x2="149.18" y2="234.39"/><line x1="173.73" y1="143.47" x2="167.95" y2="143.64"/><line x1="64.46" y1="206.28" x2="56.51" y2="223.00"/><line x1="101.51" y1="176.01" x2="100.35" y2="174.62"/><line x1="95.65" y1="274.26" x2="95.60" y2="284.94"/><line x1="369.02" y1="193.99" x2="366.16" y2="191.48"/><line x1="425.80" y1="372.51" x2="415.85" y2="373.99"/><line x1="380.70" y1="371.63" x2="404.80" y2="363.58"/><line x1="451.21" y1="364.37" x2="439.35" y2="367.88"/><line x1="389.11" y1="374.66" x2="404.22" y2="365.01"/><line x1="441.48" y1="232.72" x2="335.28" y2="325.14"/><line x1="236.43" y1="290.69" x2="233.89" y2="288.04"/><line x1="196.77" y1="142.50" x2="180.87" y2="240.74"/><line x1="281.57" y1="152.96" x2="292.02" y2="147.12"/><line x1="48.74" y1="302.22" x2="43.25" y2="299.94"/><line x1="56.51" y1="223.00" x2="59.30" y2="207.98"/><line x1="108.46" y1="158.31" x2="105.36" y2="159.06"/><line x1="398.66" y1="382.89" x2="399.83" y2="382.95"/><line x1="413.05" y1="370.34" x2="411.62" y2="368.60"/><line x1="36.19" y1="273.07" x2="35.53" y2="272.60"/><line x1="335.28" y1="325.14" x2="436.18" y2="226.12"/><line x1="99.60" y1="278.26" x2="101.66" y2="280.24"/><line x1="429.38" y1="361.90" x2="461.45" y2="351.92"/><line x1="260.50" y1="154.75" x2="193.38" y2="249.21"/><line x1="98.88" y1="317.84" x2="82.78" y2="320.94"/><line x1="425.87" y1="365.22" x2="426.17" y2="363.85"/><line x1="461.91" y1="263.04" x2="344.49" y2="334.53"/><line x1="367.29" y1="360.59" x2="478.56" y2="306.05"/><line x1="446.80" y1="370.79" x2="444.99" y2="372.36"/><line x1="429.00" y1="217.71" x2="421.60" y2="209.55"/><line x1="279.37" y1="318.84" x2="291.56" y2="311.46"/><line x1="208.91" y1="261.62" x2="279.97" y2="168.38"/><line x1="139.05" y1="144.92" x2="133.32" y2="145.40"/><line x1="196.96" y1="135.53" x2="196.96" y2="134.89"/><line x1="82.78" y1="320.94" x2="98.02" y2="312.16"/><line x1="99.24" y1="160.68" x2="94.74" y2="169.64"/><line x1="101.66" y1="280.24" x2="100.78" y2="285.15"/><line x1="478.56" y1="306.05" x2="364.83" y2="358.05"/><line x1="291.56" y1="311.46" x2="276.52" y2="317.62"/><line x1="90.82" y1="264.13" x2="40.93" y2="258.83"/><line x1="284.62" y1="145.29" x2="288.27" y2="146.01"/><line x1="363.20" y1="189.08" x2="360.17" y2="186.77"/><line x1="196.91" y1="141.31" x2="196.95" y2="140.69"/><line x1="90.82" y1="264.13" x2="60.58" y2="244.60"/><line x1="285.05" y1="163.46" x2="286.24" y2="166.02"/><line x1="213.29" y1="135.57" x2="208.98" y2="134.80"/><line x1="108.62" y1="247.36" x2="95.51" y2="263.07"/><line x1="122.55" y1="147.02" x2="121.93" y2="146.74"/><line x1="394.79" y1="381.27" x2="393.97" y2="380.60"/><line x1="100.78" y1="285.15" x2="103.64" y2="282.21"/><line x1="446.80" y1="239.77" x2="441.48" y2="232.72"/><line x1="32.39" y1="269.70" x2="32.14" y2="269.00"/><line x1="406.73" y1="364.43" x2="479.75" y2="314.85"/><line x1="326.17" y1="319.23" x2="324.85" y2="318.39"/><line x1="360.17" y1="186.77" x2="357.07" y2="184.56"/><line x1="204.80" y1="134.30" x2="196.98" y2="140.07"/><line x1="242.92" y1="145.58" x2="239.04" y2="143.90"/><line x1="196.77" y1="142.50" x2="196.85" y2="141.91"/><line x1="95.24" y1="296.75" x2="69.43" y2="311.84"/><line x1="393.97" y1="380.60" x2="401.49" y2="377.08"/><line x1="307.32" y1="154.22" x2="311.07" y2="156.37"/><line x1="425.92" y1="374.49" x2="417.27" y2="375.78"/><line x1="32.14" y1="269.00" x2="32.00" y2="268.17"/><line x1="427.26" y1="362.07" x2="428.18" y2="361.78"/><line x1="293.90" y1="302.96" x2="267.85" y2="313.72"/><line x1="429.38" y1="361.90" x2="477.22" y2="334.40"/><line x1="357.49" y1="174.16" x2="354.09" y2="169.33"/><line x1="200.78" y1="134.10" x2="196.98" y2="136.18"/><line x1="239.04" y1="143.90" x2="234.97" y2="142.25"/><line x1="115.90" y1="238.18" x2="95.95" y2="195.09"/><line x1="179.52" y1="143.29" x2="160.83" y2="229.07"/><line x1="69.43" y1="311.84" x2="94.57" y2="292.65"/><line x1="107.05" y1="286.11" x2="106.28" y2="287.65"/><line x1="417.27" y1="375.78" x2="425.80" y2="372.51"/><line x1="470.33" y1="279.85" x2="356.25" y2="348.80"/><line x1="292.61" y1="178.01" x2="212.56" y2="265.02"/><line x1="267.85" y1="313.72" x2="294.71" y2="300.15"/><line x1="267.18" y1="159.08" x2="263.87" y2="156.88"/><line x1="340.88" y1="174.39" x2="337.58" y2="172.46"/><line x1="311.07" y1="156.37" x2="291.37" y2="175.74"/><line x1="160.83" y1="229.07" x2="173.73" y2="143.47"/><line x1="100.30" y1="263.54" x2="110.36" y2="255.51"/><line x1="111.55" y1="157.56" x2="101.51" y2="176.01"/><line x1="402.07" y1="374.04" x2="402.35" y2="372.51"/><line x1="106.28" y1="287.65" x2="107.36" y2="288.34"/><line x1="36.57" y1="261.89" x2="38.65" y2="260.37"/><line x1="90.82" y1="264.13" x2="32.38" y2="266.05"/><line x1="317.39" y1="312.13" x2="316.19" y2="310.71"/><line x1="435.82" y1="365.29" x2="451.21" y2="364.37"/><line x1="348.54" y1="143.21" x2="337.90" y2="144.86"/><line x1="90.82" y1="264.13" x2="50.07" y2="253.24"/><line x1="213.29" y1="135.57" x2="196.77" y2="142.50"/><line x1="291.37" y1="175.74" x2="314.72" y2="158.58"/><line x1="54.14" y1="304.51" x2="48.74" y2="302.22"/><line x1="101.51" y1="176.01" x2="108.46" y2="158.31"/><line x1="347.83" y1="338.72" x2="346.18" y2="336.62"/><line x1="38.65" y1="260.37" x2="40.93" y2="258.83"/><line x1="382.00" y1="171.64" x2="373.72" y2="164.46"/><line x1="296.55" y1="294.67" x2="256.84" y2="307.88"/><line x1="389.11" y1="374.66" x2="403.73" y2="366.47"/><line x1="369.02" y1="193.99" x2="366.61" y2="188.91"/><line x1="196.77" y1="142.50" x2="185.12" y2="243.52"/><line x1="150.58" y1="144.24" x2="144.81" y2="144.54"/><line x1="109.58" y1="267.71" x2="111.73" y2="269.17"/><line x1="48.74" y1="302.22" x2="43.27" y2="298.03"/><line x1="413.05" y1="370.34" x2="425.87" y2="365.22"/><line x1="309.56" y1="298.94" x2="308.43" y2="296.78"/><line x1="256.84" y1="307.88" x2="254.35" y2="306.30"/><line x1="286.27" y1="173.19" x2="208.91" y2="261.62"/><line x1="142.28" y1="246.34" x2="139.27" y2="245.40"/><line x1="340.77" y1="149.88" x2="337.90" y2="144.86"/><line x1="93.14" y1="263.39" x2="63.38" y2="238.90"/><line x1="429.38" y1="361.90" x2="465.18" y2="347.66"/><line x1="144.81" y1="144.54" x2="139.05" y2="144.92"/><line x1="92.50" y1="270.22" x2="91.44" y2="268.20"/><line x1="298.92" y1="289.50" x2="241.57" y2="295.80"/><line x1="429.00" y1="217.71" x2="307.26" y2="294.69"/><line x1="446.80" y1="370.79" x2="443.88" y2="371.48"/><line x1="280.99" y1="147.65" x2="281.10" y2="145.00"/><line x1="208.91" y1="261.62" x2="283.12" y2="170.77"/><line x1="60.79" y1="228.16" x2="69.96" y2="204.74"/><line x1="330.99" y1="168.61" x2="334.27" y2="170.54"/><line x1="81.23" y1="201.65" x2="75.61" y2="203.24"/><line x1="90.82" y1="264.13" x2="38.06" y2="274.91"/><line x1="99.24" y1="160.68" x2="96.16" y2="170.87"/><line x1="341.01" y1="330.51" x2="339.19" y2="328.61"/><line x1="90.82" y1="264.13" x2="32.75" y2="270.31"/><line x1="53.34" y1="251.27" x2="54.32" y2="250.60"/><line x1="90.82" y1="264.13" x2="38.65" y2="260.37"/><line x1="284.62" y1="145.29" x2="281.16" y2="150.30"/><line x1="93.34" y1="333.16" x2="90.18" y2="328.65"/><line x1="90.82" y1="264.13" x2="57.92" y2="247.56"/><line x1="108.30" y1="288.03" x2="109.13" y2="289.93"/><line x1="196.91" y1="141.31" x2="204.80" y2="134.30"/><line x1="109.86" y1="242.62" x2="63.65" y2="236.14"/><line x1="118.18" y1="272.77" x2="119.02" y2="275.45"/><line x1="295.58" y1="297.38" x2="296.55" y2="294.67"/><line x1="284.86" y1="321.15" x2="289.75" y2="317.00"/><line x1="446.80" y1="239.77" x2="337.27" y2="326.81"/><line x1="358.18" y1="350.85" x2="470.33" y2="279.85"/><line x1="406.73" y1="364.43" x2="427.26" y2="362.07"/><line x1="369.02" y1="193.99" x2="406.21" y2="193.88"/><line x1="244.17" y1="298.23" x2="241.57" y2="295.80"/><line x1="130.02" y1="241.52" x2="126.98" y2="240.24"/><line x1="99.94" y1="329.13" x2="99.55" y2="323.55"/><line x1="290.09" y1="173.40" x2="311.07" y2="156.37"/><line x1="97.57" y1="276.26" x2="99.60" y2="278.26"/><line x1="128.29" y1="150.14" x2="127.79" y2="149.77"/><line x1="304.74" y1="290.93" x2="303.38" y2="289.36"/><line x1="318.60" y1="313.42" x2="317.39" y2="312.13"/><line x1="200.78" y1="134.10" x2="196.99" y2="136.84"/><line x1="53.85" y1="220.45" x2="50.95" y2="217.91"/><line x1="127.61" y1="146.00" x2="121.93" y2="146.74"/><line x1="96.70" y1="284.64" x2="97.96" y2="284.60"/><line x1="391.08" y1="377.32" x2="402.07" y2="374.04"/><line x1="292.61" y1="178.01" x2="216.13" y2="268.57"/><line x1="152.22" y1="229.12" x2="103.38" y2="183.19"/><line x1="343.90" y1="154.82" x2="348.54" y2="143.21"/><line x1="283.00" y1="158.25" x2="283.96" y2="160.87"/><line x1="81.23" y1="201.65" x2="109.86" y2="242.62"/><line x1="400.78" y1="380.07" x2="395.66" y2="381.84"/><line x1="402.07" y1="374.04" x2="390.41" y2="376.43"/><line x1="90.82" y1="264.13" x2="35.53" y2="272.60"/><line x1="349.48" y1="340.82" x2="347.83" y2="338.72"/><line x1="366.61" y1="188.91" x2="363.83" y2="183.92"/><line x1="90.82" y1="264.13" x2="32.00" y2="267.19"/><line x1="348.54" y1="143.21" x2="340.77" y2="149.88"/><line x1="90.82" y1="264.13" x2="47.97" y2="254.49"/><line x1="108.81" y1="249.97" x2="109.42" y2="252.70"/><line x1="97.05" y1="306.65" x2="96.10" y2="301.46"/><line x1="133.32" y1="145.40" x2="128.77" y2="150.54"/><line x1="103.64" y1="282.21" x2="103.68" y2="286.27"/><line x1="112.91" y1="261.30" x2="109.58" y2="267.71"/><line x1="426.14" y1="378.19" x2="426.04" y2="376.40"/><line x1="93.93" y1="272.24" x2="92.50" y2="270.22"/><line x1="404.80" y1="363.58" x2="478.56" y2="306.05"/><line x1="292.35" y1="308.64" x2="293.13" y2="305.80"/><line x1="347.83" y1="338.72" x2="461.91" y2="263.04"/><line x1="382.00" y1="171.64" x2="360.76" y2="179.01"/><line x1="310.66" y1="301.13" x2="309.56" y2="298.94"/><line x1="369.02" y1="193.99" x2="390.19" y2="178.93"/><line x1="436.18" y1="226.12" x2="313.93" y2="307.35"/><line x1="249.91" y1="148.86" x2="246.55" y2="147.25"/><line x1="191.04" y1="142.82" x2="185.29" y2="143.08"/><line x1="327.72" y1="166.68" x2="330.99" y2="168.61"/><line x1="109.58" y1="267.71" x2="114.33" y2="264.23"/><line x1="420.35" y1="379.05" x2="418.76" y2="377.49"/><line x1="362.49" y1="355.53" x2="360.26" y2="353.11"/><line x1="402.96" y1="369.46" x2="403.31" y2="367.95"/><line x1="457.78" y1="356.23" x2="454.30" y2="360.43"/><line x1="51.89" y1="252.16" x2="53.34" y2="251.27"/><line x1="309.56" y1="298.94" x2="429.00" y2="217.71"/><line x1="287.49" y1="168.53" x2="288.78" y2="170.99"/><line x1="127.61" y1="146.00" x2="125.00" y2="148.15"/><line x1="142.28" y1="246.34" x2="148.29" y2="240.00"/><line x1="400.34" y1="381.53" x2="400.78" y2="380.07"/><line x1="196.85" y1="141.91" x2="196.91" y2="141.31"/><line x1="167.67" y1="232.54" x2="164.01" y2="230.49"/><line x1="200.78" y1="134.10" x2="196.96" y2="134.25"/><line x1="117.68" y1="155.91" x2="114.64" y2="156.77"/><line x1="42.87" y1="289.84" x2="42.62" y2="287.75"/><line x1="403.31" y1="367.95" x2="403.73" y2="366.47"/><line x1="430.79" y1="362.37" x2="432.37" y2="363.13"/><line x1="63.65" y1="236.14" x2="63.38" y2="238.90"/><line x1="452.04" y1="247.20" x2="341.01" y2="330.51"/><line x1="298.92" y1="289.50" x2="244.17" y2="298.23"/><line x1="149.18" y1="234.39" x2="149.93" y2="232.19"/><line x1="280.99" y1="147.65" x2="284.62" y2="145.29"/><line x1="64.51" y1="309.26" x2="59.40" y2="306.83"/><line x1="103.12" y1="179.21" x2="102.45" y2="177.53"/><line x1="128.77" y1="150.54" x2="128.29" y2="150.14"/><line x1="81.23" y1="201.65" x2="62.29" y2="230.78"/><line x1="115.67" y1="272.31" x2="118.18" y2="272.77"/><line x1="415.85" y1="373.99" x2="414.46" y2="372.15"/><line x1="90.82" y1="264.13" x2="39.08" y2="276.42"/><line x1="265.00" y1="312.33" x2="262.19" y2="310.90"/><line x1="341.01" y1="330.51" x2="446.80" y2="239.77"/><line x1="90.82" y1="264.13" x2="33.19" y2="270.83"/><line x1="414.00" y1="201.62" x2="369.02" y2="193.99"/><line x1="292.61" y1="178.01" x2="324.77" y2="164.87"/><line x1="94.22" y1="286.90" x2="42.28" y2="285.69"/><line x1="90.82" y1="264.13" x2="36.57" y2="261.89"/><line x1="201.32" y1="255.21" x2="270.43" y2="161.34"/><line x1="111.56" y1="258.39" x2="112.91" y2="261.30"/><line x1="59.30" y1="207.98" x2="54.70" y2="209.98"/><line x1="93.34" y1="333.16" x2="99.94" y2="329.13"/><line x1="402.35" y1="372.51" x2="402.64" y2="370.98"/><line x1="108.30" y1="288.03" x2="108.82" y2="289.52"/><line x1="118.18" y1="272.77" x2="117.43" y2="273.90"/><line x1="158.09" y1="228.25" x2="162.15" y2="143.81"/><line x1="133.32" y1="145.40" x2="127.61" y2="146.00"/><line x1="153.82" y1="228.30" x2="155.77" y2="228.01"/><line x1="404.80" y1="363.58" x2="377.92" y2="369.86"/><line x1="295.58" y1="297.38" x2="259.47" y2="309.41"/><line x1="41.86" y1="283.68" x2="41.33" y2="281.72"/><line x1="284.86" y1="321.15" x2="287.45" y2="322.25"/><line x1="300.38" y1="287.08" x2="366.16" y2="191.48"/><line x1="425.70" y1="370.54" x2="425.67" y2="368.62"/><line x1="369.02" y1="193.99" x2="304.74" y2="290.93"/><line x1="436.18" y1="226.12" x2="319.82" y2="314.58"/><line x1="300.38" y1="287.08" x2="337.58" y2="172.46"/><line x1="270.43" y1="161.34" x2="267.18" y2="159.08"/><line x1="130.02" y1="241.52" x2="149.93" y2="232.19"/><line x1="436.18" y1="226.12" x2="309.56" y2="298.94"/><line x1="197.00" y1="138.14" x2="200.78" y2="134.10"/><line x1="100.35" y1="174.62" x2="99.03" y2="173.32"/><line x1="97.57" y1="276.26" x2="96.70" y2="284.64"/><line x1="91.22" y1="165.58" x2="90.50" y2="163.99"/><line x1="377.92" y1="369.86" x2="375.17" y2="367.80"/><line x1="297.65" y1="292.03" x2="246.77" y2="300.52"/><line x1="439.35" y1="367.88" x2="441.01" y2="369.18"/><line x1="340.11" y1="136.15" x2="331.70" y2="129.05"/><line x1="231.40" y1="285.37" x2="228.94" y2="282.68"/><line x1="63.26" y1="233.44" x2="63.65" y2="236.14"/><line x1="121.16" y1="238.38" x2="99.49" y2="191.89"/><line x1="282.20" y1="155.61" x2="283.00" y2="158.25"/><line x1="63.38" y1="238.90" x2="62.37" y2="241.72"/><line x1="200.78" y1="134.10" x2="197.00" y2="137.49"/><line x1="53.85" y1="220.45" x2="54.70" y2="209.98"/><line x1="127.61" y1="146.00" x2="122.55" y2="147.02"/><line x1="105.36" y1="159.06" x2="102.28" y2="159.84"/><line x1="34.89" y1="272.16" x2="34.28" y2="271.74"/><line x1="63.65" y1="236.14" x2="95.51" y2="263.07"/><line x1="478.69" y1="332.82" x2="477.22" y2="334.40"/><line x1="333.17" y1="323.61" x2="331.70" y2="322.64"/><line x1="292.61" y1="178.01" x2="219.60" y2="272.28"/><line x1="228.94" y1="282.68" x2="226.52" y2="280.00"/><line x1="99.48" y1="339.35" x2="99.95" y2="334.45"/><line x1="257.06" y1="152.70" x2="253.53" y2="150.73"/><line x1="95.51" y1="263.07" x2="93.14" y2="263.39"/><line x1="98.02" y1="312.16" x2="97.05" y2="306.65"/><line x1="90.85" y1="266.17" x2="90.82" y2="264.13"/><line x1="125.00" y1="148.15" x2="124.40" y2="147.86"/><line x1="400.78" y1="380.07" x2="396.59" y2="382.32"/><line x1="426.17" y1="363.85" x2="426.62" y2="362.78"/><line x1="476.53" y1="297.25" x2="473.75" y2="288.50"/><line x1="34.28" y1="271.74" x2="33.70" y2="271.30"/><line x1="90.82" y1="264.13" x2="36.19" y2="273.07"/><line x1="276.52" y1="317.62" x2="292.35" y2="308.64"/><line x1="205.15" y1="258.36" x2="201.32" y2="255.21"/><line x1="148.64" y1="237.00" x2="149.18" y2="234.39"/><line x1="366.61" y1="188.91" x2="382.00" y2="171.64"/><line x1="94.22" y1="286.90" x2="43.25" y2="296.04"/><line x1="303.51" y1="152.15" x2="307.32" y2="154.22"/><line x1="253.53" y1="150.73" x2="249.91" y2="148.86"/><line x1="408.49" y1="365.59" x2="406.73" y2="364.43"/><line x1="108.81" y1="249.97" x2="97.90" y2="263.13"/><line x1="103.64" y1="282.21" x2="102.24" y2="285.65"/><line x1="479.75" y1="314.85" x2="480.00" y2="323.60"/><line x1="426.14" y1="378.19" x2="420.35" y2="379.05"/><line x1="300.38" y1="287.08" x2="233.89" y2="288.04"/><line x1="404.80" y1="363.58" x2="367.29" y2="360.59"/><line x1="292.35" y1="308.64" x2="273.64" y2="316.36"/><line x1="436.18" y1="226.12" x2="326.17" y2="319.23"/><line x1="357.07" y1="184.56" x2="353.91" y2="182.42"/><line x1="300.38" y1="287.08" x2="353.91" y2="182.42"/><line x1="95.95" y1="195.09" x2="91.59" y2="197.70"/><line x1="436.18" y1="226.12" x2="315.04" y2="309.14"/><line x1="369.02" y1="193.99" x2="301.93" y2="288.06"/><line x1="94.57" y1="292.65" x2="94.20" y2="289.32"/><line x1="191.04" y1="142.82" x2="167.67" y2="232.54"/><line x1="102.24" y1="285.65" x2="103.68" y2="286.27"/><line x1="32.00" y1="268.17" x2="32.00" y2="267.19"/><line x1="294.71" y1="300.15" x2="295.58" y2="297.38"/><line x1="457.78" y1="356.23" x2="430.79" y2="362.37"/><line x1="197.39" y1="252.17" x2="193.38" y2="249.21"/><line x1="102.03" y1="187.96" x2="152.22" y2="229.12"/><line x1="365.37" y1="157.34" x2="347.21" y2="159.69"/><line x1="353.91" y1="182.42" x2="350.70" y2="180.34"/><line x1="92.21" y1="167.04" x2="91.22" y2="165.58"/><line x1="234.97" y1="142.25" x2="230.76" y2="140.66"/><line x1="113.56" y1="238.98" x2="111.46" y2="240.54"/><line x1="127.61" y1="146.00" x2="125.59" y2="148.45"/><line x1="400.34" y1="381.53" x2="397.59" y2="382.67"/><line x1="426.19" y1="381.17" x2="426.20" y2="379.81"/><line x1="107.36" y1="288.34" x2="108.22" y2="288.98"/><line x1="117.68" y1="155.91" x2="103.12" y2="179.21"/><line x1="32.00" y1="267.19" x2="32.38" y2="266.05"/><line x1="314.72" y1="158.58" x2="318.24" y2="160.76"/><line x1="230.76" y1="140.66" x2="226.44" y2="139.15"/><line x1="149.18" y1="234.39" x2="130.02" y2="241.52"/><line x1="102.69" y1="264.24" x2="105.04" y2="265.20"/><line x1="423.97" y1="381.48" x2="422.08" y2="380.39"/><line x1="415.85" y1="373.99" x2="425.70" y2="370.54"/><line x1="352.79" y1="344.93" x2="351.12" y2="342.90"/><line x1="404.80" y1="363.58" x2="479.75" y2="314.85"/><line x1="265.00" y1="312.33" x2="295.58" y2="297.38"/><line x1="125.59" y1="148.45" x2="125.00" y2="148.15"/><line x1="292.61" y1="178.01" x2="321.60" y2="162.88"/><line x1="94.22" y1="286.90" x2="42.62" y2="287.75"/><line x1="43.27" y1="298.03" x2="43.25" y2="296.04"/><line x1="158.09" y1="228.25" x2="167.95" y2="143.64"/><line x1="59.30" y1="207.98" x2="53.85" y2="220.45"/><line x1="402.35" y1="372.51" x2="389.11" y2="374.66"/><line x1="108.30" y1="288.03" x2="108.22" y2="288.98"/><line x1="254.35" y1="306.30" x2="251.99" y2="304.67"/><line x1="437.60" y1="366.56" x2="439.35" y2="367.88"/><line x1="436.18" y1="226.12" x2="333.17" y2="323.61"/><line x1="300.38" y1="287.08" x2="224.16" y2="277.36"/><line x1="337.90" y1="144.86" x2="335.39" y2="139.73"/><line x1="219.60" y1="272.28" x2="216.13" y2="268.57"/><line x1="189.29" y1="246.33" x2="239.04" y2="143.90"/><line x1="436.18" y1="226.12" x2="321.06" y2="315.64"/><line x1="300.38" y1="287.08" x2="340.88" y2="174.39"/><line x1="436.18" y1="226.12" x2="310.66" y2="301.13"/><line x1="91.44" y1="268.20" x2="90.85" y2="266.17"/><line x1="100.35" y1="174.62" x2="105.36" y2="159.06"/><line x1="397.59" y1="382.67" x2="400.78" y2="380.07"/><line x1="411.62" y1="368.60" x2="410.11" y2="367.00"/><line x1="297.65" y1="292.03" x2="249.38" y2="302.68"/><line x1="340.11" y1="136.15" x2="333.30" y2="134.47"/><line x1="129.22" y1="150.95" x2="126.47" y2="152.49"/><line x1="111.73" y1="269.17" x2="113.77" y2="270.72"/><line x1="127.61" y1="146.00" x2="123.17" y2="147.30"/><line x1="41.33" y1="281.72" x2="40.70" y2="279.85"/><line x1="292.61" y1="178.01" x2="300.38" y2="287.08"/><line x1="344.49" y1="334.53" x2="342.78" y2="332.49"/><line x1="364.83" y1="358.05" x2="476.53" y2="297.25"/><line x1="279.97" y1="168.38" x2="276.82" y2="166.00"/><line x1="139.27" y1="245.40" x2="136.20" y2="244.21"/><line x1="99.48" y1="339.35" x2="98.43" y2="343.68"/><line x1="115.74" y1="267.13" x2="117.06" y2="269.99"/><line x1="95.51" y1="263.07" x2="108.81" y2="249.97"/><line x1="94.74" y1="169.64" x2="93.40" y2="168.38"/><line x1="404.22" y1="365.01" x2="383.50" y2="373.06"/><line x1="476.53" y1="297.25" x2="362.49" y2="355.53"/><line x1="241.57" y1="295.80" x2="238.98" y2="293.29"/><line x1="307.26" y1="294.69" x2="306.03" y2="292.73"/><line x1="155.77" y1="228.01" x2="117.68" y2="155.91"/><line x1="303.51" y1="152.15" x2="287.49" y2="168.53"/><line x1="41.86" y1="283.68" x2="95.65" y2="274.26"/><line x1="401.49" y1="377.08" x2="393.19" y2="379.85"/><line x1="479.75" y1="314.85" x2="429.38" y2="361.90"/><line x1="300.38" y1="287.08" x2="236.43" y2="290.69"/><line x1="404.80" y1="363.58" x2="369.84" y2="363.11"/><line x1="323.57" y1="317.53" x2="322.30" y2="316.62"/><line x1="281.16" y1="150.30" x2="281.57" y2="152.96"/><line x1="436.18" y1="226.12" x2="327.50" y2="320.05"/><line x1="300.38" y1="287.08" x2="357.07" y2="184.56"/><line x1="90.18" y1="328.65" x2="86.65" y2="324.60"/><line x1="58.84" y1="225.57" x2="56.51" y2="223.00"/><line x1="95.95" y1="195.09" x2="113.56" y2="238.98"/><line x1="436.18" y1="226.12" x2="316.19" y2="310.71"/><line x1="189.29" y1="246.33" x2="222.05" y2="137.78"/><line x1="94.57" y1="292.65" x2="64.51" y2="309.26"/><line x1="127.27" y1="149.42" x2="126.73" y2="149.08"/><line x1="393.19" y1="379.85" x2="392.46" y2="379.05"/><line x1="289.75" y1="317.00" x2="290.70" y2="314.25"/><line x1="337.27" y1="326.81" x2="335.28" y2="325.14"/><line x1="356.25" y1="348.80" x2="354.50" y2="346.91"/><line x1="294.71" y1="300.15" x2="265.00" y2="312.33"/><line x1="197.39" y1="252.17" x2="260.50" y2="154.75"/><line x1="102.03" y1="187.96" x2="121.16" y2="238.38"/><line x1="365.37" y1="157.34" x2="350.64" y2="164.52"/><line x1="99.55" y1="323.55" x2="98.88" y2="317.84"/><line x1="113.56" y1="238.98" x2="91.59" y2="197.70"/><line x1="400.34" y1="381.53" x2="399.83" y2="382.95"/><line x1="110.36" y1="255.51" x2="102.69" y2="264.24"/><line x1="426.19" y1="381.17" x2="426.06" y2="382.24"/><line x1="107.36" y1="288.34" x2="108.30" y2="288.03"/><line x1="282.16" y1="320.01" x2="279.37" y2="318.84"/><line x1="354.50" y1="346.91" x2="352.79" y2="344.93"/><line x1="303.38" y1="289.36" x2="301.93" y2="288.06"/><line x1="221.85" y1="274.78" x2="219.60" y2="272.28"/><line x1="314.72" y1="158.58" x2="292.61" y2="178.01"/><line x1="155.77" y1="228.01" x2="156.36" y2="144.00"/><line x1="102.69" y1="264.24" x2="111.56" y2="258.39"/><line x1="390.19" y1="178.93" x2="366.61" y2="188.91"/><line x1="423.97" y1="381.48" x2="426.20" y2="379.81"/><line x1="390.41" y1="376.43" x2="402.35" y2="372.51"/><line x1="40.93" y1="258.83" x2="43.31" y2="257.31"/><line x1="315.04" y1="309.14" x2="313.93" y2="307.35"/><line x1="118.44" y1="238.02" x2="115.90" y2="238.18"/><line x1="283.96" y1="160.87" x2="285.05" y2="163.46"/><line x1="224.16" y1="277.36" x2="221.85" y2="274.78"/><line x1="155.77" y1="228.01" x2="103.44" y2="181.09"/><line x1="94.22" y1="286.90" x2="42.87" y2="289.84"/><line x1="401.16" y1="378.59" x2="401.49" y2="377.08"/><line x1="114.33" y1="264.23" x2="115.74" y2="267.13"/><line x1="43.27" y1="298.03" x2="43.25" y2="299.94"/><line x1="473.75" y1="288.50" x2="470.33" y2="279.85"/><line x1="402.35" y1="372.51" x2="389.76" y2="375.54"/><line x1="286.24" y1="166.02" x2="303.51" y2="152.15"/><line x1="254.35" y1="306.30" x2="297.65" y2="292.03"/><line x1="300.38" y1="287.08" x2="226.52" y2="280.00"/><line x1="189.29" y1="246.33" x2="242.92" y2="145.58"/><line x1="148.29" y1="240.00" x2="148.64" y2="237.00"/><line x1="337.90" y1="144.86" x2="340.11" y2="136.15"/><line x1="97.90" y1="263.13" x2="100.30" y2="263.54"/><line x1="436.18" y1="226.12" x2="322.30" y2="316.62"/><line x1="324.85" y1="318.39" x2="323.57" y2="317.53"/><line x1="189.29" y1="246.33" x2="185.12" y2="243.52"/><line x1="426.04" y1="376.40" x2="425.92" y2="374.49"/><line x1="91.44" y1="268.20" x2="41.33" y2="281.72"/><line x1="411.62" y1="368.60" x2="426.17" y2="363.85"/><line x1="346.18" y1="336.62" x2="344.49" y2="334.53"/><line x1="109.42" y1="252.70" x2="110.36" y2="255.51"/><line x1="172.14" y1="235.27" x2="191.04" y2="142.82"/><line x1="401.79" y1="375.56" x2="402.07" y2="374.04"/><line x1="129.22" y1="150.95" x2="133.32" y2="145.40"/><line x1="111.73" y1="269.17" x2="115.74" y2="267.13"/><line x1="108.94" y1="244.90" x2="108.62" y2="247.36"/><line x1="354.09" y1="169.33" x2="365.37" y2="157.34"/><line x1="418.76" y1="377.49" x2="417.27" y2="375.78"/><line x1="454.30" y1="360.43" x2="434.06" y2="364.13"/><line x1="54.32" y1="250.60" x2="57.92" y2="247.56"/><line x1="444.99" y1="372.36" x2="445.82" y2="372.97"/><line x1="308.43" y1="296.78" x2="307.26" y2="294.69"/><line x1="111.46" y1="240.54" x2="109.86" y2="242.62"/><line x1="139.27" y1="245.40" x2="148.64" y2="237.00"/><line x1="164.01" y1="230.49" x2="160.83" y2="229.07"/><line x1="69.96" y1="204.74" x2="64.46" y2="206.28"/><line x1="42.28" y1="285.69" x2="41.86" y2="283.68"/><line x1="155.77" y1="228.01" x2="129.22" y2="150.95"/><line x1="466.35" y1="271.34" x2="347.83" y2="338.72"/><line x1="94.74" y1="169.64" x2="96.25" y2="161.63"/><line x1="404.22" y1="365.01" x2="386.30" y2="374.09"/><line x1="414.46" y1="372.15" x2="413.05" y2="370.34"/><line x1="193.38" y1="249.21" x2="189.29" y2="246.33"/><line x1="173.73" y1="143.47" x2="158.09" y2="228.25"/><line x1="148.08" y1="243.34" x2="148.29" y2="240.00"/><line x1="241.57" y1="295.80" x2="300.38" y2="287.08"/><line x1="149.93" y1="232.19" x2="102.03" y2="187.96"/><line x1="196.95" y1="140.69" x2="196.98" y2="140.07"/><line x1="316.19" y1="310.71" x2="315.04" y2="309.14"/><line x1="102.45" y1="177.53" x2="101.51" y2="176.01"/><line x1="451.21" y1="364.37" x2="437.60" y2="366.56"/><line x1="38.06" y1="274.91" x2="37.47" y2="274.20"/><line x1="448.66" y1="367.87" x2="446.80" y2="370.79"/><line x1="204.80" y1="134.30" x2="200.78" y2="134.10"/><line x1="479.75" y1="314.85" x2="428.18" y2="361.78"/><line x1="212.56" y1="265.02" x2="208.91" y2="261.62"/><line x1="406.21" y1="193.88" x2="398.27" y2="186.33"/><line x1="108.46" y1="158.31" x2="100.35" y2="174.62"/><line x1="126.98" y1="240.24" x2="124.01" y2="239.16"/><line x1="189.29" y1="246.33" x2="226.44" y2="139.15"/><line x1="54.70" y1="209.98" x2="50.82" y2="212.40"/><line x1="90.18" y1="328.65" x2="99.55" y2="323.55"/><line x1="99.60" y1="278.26" x2="99.34" y2="284.78"/><line x1="127.27" y1="149.42" x2="127.61" y2="146.00"/><line x1="185.12" y1="243.52" x2="180.87" y2="240.74"/><line x1="289.75" y1="317.00" x2="282.16" y2="320.01"/><line x1="75.61" y1="203.24" x2="69.96" y2="204.74"/><line x1="295.83" y1="148.55" x2="299.67" y2="150.24"/><line x1="461.91" y1="263.04" x2="346.18" y2="336.62"/><line x1="197.39" y1="252.17" x2="263.87" y2="156.88"/><line x1="425.87" y1="365.22" x2="411.62" y2="368.60"/><line x1="50.95" y1="217.91" x2="47.87" y2="215.37"/><line x1="426.19" y1="381.17" x2="423.97" y2="381.48"/><line x1="139.05" y1="144.92" x2="129.22" y2="150.95"/><line x1="208.98" y1="134.80" x2="204.80" y2="134.30"/><line x1="78.60" y1="317.63" x2="74.14" y2="314.61"/><line x1="196.99" y1="136.84" x2="196.98" y2="136.18"/><line x1="443.88" y1="371.48" x2="444.99" y2="372.36"/><line x1="155.77" y1="228.01" x2="162.15" y2="143.81"/><line x1="395.66" y1="381.84" x2="394.79" y2="381.27"/><line x1="283.12" y1="170.77" x2="279.97" y2="168.38"/><line x1="426.62" y1="362.78" x2="427.26" y2="362.07"/><line x1="474.97" y1="336.83" x2="472.10" y2="339.96"/><line x1="96.16" y1="170.87" x2="94.74" y2="169.64"/><line x1="96.10" y1="301.46" x2="95.24" y2="296.75"/><line x1="103.68" y1="286.27" x2="105.04" y2="286.95"/><line x1="123.79" y1="147.58" x2="123.17" y2="147.30"/><line x1="114.33" y1="264.23" x2="111.73" y2="269.17"/><line x1="334.27" y1="170.54" x2="300.38" y2="287.08"/><line x1="473.75" y1="288.50" x2="358.18" y2="350.85"/><line x1="204.80" y1="134.30" x2="196.95" y2="140.69"/><line x1="293.13" y1="305.80" x2="293.90" y2="302.96"/><line x1="196.77" y1="142.50" x2="208.98" y2="134.80"/><line x1="360.76" y1="179.01" x2="357.49" y2="174.16"/><line x1="307.32" y1="154.22" x2="290.09" y2="173.40"/><line x1="189.29" y1="246.33" x2="246.55" y2="147.25"/><line x1="148.29" y1="240.00" x2="139.27" y2="245.40"/><line x1="185.29" y1="143.08" x2="179.52" y2="143.29"/><line x1="427.26" y1="362.07" x2="479.75" y2="314.85"/><line x1="93.33" y1="162.72" x2="90.50" y2="163.99"/><line x1="105.47" y1="284.17" x2="107.05" y2="286.11"/><line x1="429.38" y1="361.90" x2="478.69" y2="332.82"/><line x1="288.68" y1="319.67" x2="289.75" y2="317.00"/><line x1="426.04" y1="376.40" x2="418.76" y2="377.49"/><line x1="127.79" y1="149.77" x2="127.27" y2="149.42"/><line x1="94.20" y1="289.32" x2="94.22" y2="286.90"/><line x1="114.64" y1="156.77" x2="111.55" y2="157.56"/><line x1="401.79" y1="375.56" x2="391.08" y2="377.32"/><line x1="267.18" y1="159.08" x2="197.39" y2="252.17"/><line x1="454.30" y1="360.43" x2="432.37" y2="363.13"/><line x1="292.02" y1="147.12" x2="295.83" y2="148.55"/><line x1="347.21" y1="159.69" x2="343.90" y2="154.82"/><line x1="111.46" y1="240.54" x2="81.23" y2="201.65"/><line x1="59.40" y1="306.83" x2="54.14" y2="304.51"/><line x1="117.43" y1="273.90" x2="119.02" y2="275.45"/><line x1="414.46" y1="372.15" x2="425.71" y2="366.83"/><line x1="466.35" y1="271.34" x2="349.48" y2="340.82"/><line x1="197.00" y1="137.49" x2="196.99" y2="136.84"/><line x1="339.19" y1="328.61" x2="337.27" y2="326.81"/><line x1="193.38" y1="249.21" x2="249.91" y2="148.86"/><line x1="148.08" y1="243.34" x2="142.28" y2="246.34"/><line x1="356.97" y1="150.27" x2="348.54" y2="143.21"/><line x1="477.22" y1="334.40" x2="474.97" y2="336.83"/><line x1="149.93" y1="232.19" x2="126.98" y2="240.24"/><line x1="389.11" y1="374.66" x2="403.31" y2="367.95"/><line x1="448.66" y1="367.87" x2="442.54" y2="370.39"/><line x1="204.80" y1="134.30" x2="197.00" y2="138.14"/><line x1="212.56" y1="265.02" x2="286.27" y2="173.19"/><line x1="62.29" y1="230.78" x2="60.79" y2="228.16"/><line x1="273.64" y1="316.36" x2="270.75" y2="315.06"/><line x1="54.70" y1="209.98" x2="50.95" y2="217.91"/><line x1="99.03" y1="173.32" x2="97.61" y2="172.08"/><line x1="99.60" y1="278.26" x2="97.96" y2="284.60"/><line x1="429.38" y1="361.90" x2="468.78" y2="343.63"/><line x1="96.10" y1="338.15" x2="93.34" y2="333.16"/><line x1="295.83" y1="148.55" x2="283.96" y2="160.87"/><line x1="470.33" y1="279.85" x2="466.35" y2="271.34"/><line x1="429.00" y1="217.71" x2="308.43" y2="296.78"/><line x1="410.11" y1="367.00" x2="408.49" y2="365.59"/><line x1="33.70" y1="271.30" x2="33.19" y2="270.83"/><line x1="330.26" y1="321.74" x2="328.87" y2="320.88"/><line x1="42.62" y1="287.75" x2="42.28" y2="285.69"/><line x1="403.73" y1="366.47" x2="404.22" y2="365.01"/><line x1="99.49" y1="191.89" x2="118.44" y2="238.02"/><line x1="78.60" y1="317.63" x2="96.10" y2="301.46"/><line x1="284.62" y1="145.29" x2="281.10" y2="145.00"/><line x1="342.78" y1="332.49" x2="341.01" y2="330.51"/><line x1="90.82" y1="264.13" x2="54.32" y2="250.60"/><line x1="306.03" y1="292.73" x2="304.74" y2="290.93"/><line x1="363.83" y1="183.92" x2="360.76" y2="179.01"/><line x1="39.08" y1="276.42" x2="38.06" y2="274.91"/><line x1="446.80" y1="239.77" x2="339.19" y2="328.61"/><line x1="93.40" y1="168.38" x2="92.21" y2="167.04"/><line x1="103.68" y1="286.27" x2="105.47" y2="284.17"/><line x1="473.75" y1="288.50" x2="360.26" y2="353.11"/><line x1="99.94" y1="329.13" x2="90.18" y2="328.65"/><line x1="196.77" y1="142.50" x2="172.14" y2="235.27"/><line x1="91.59" y1="197.70" x2="86.63" y2="199.85"/><line x1="307.32" y1="154.22" x2="288.78" y2="170.99"/><line x1="429.38" y1="361.90" x2="479.22" y2="332.26"/><line x1="32.38" y1="266.05" x2="33.34" y2="264.77"/><line x1="429.38" y1="361.90" x2="430.79" y2="362.37"/><line x1="321.06" y1="315.64" x2="319.82" y2="314.58"/><line x1="96.70" y1="284.64" x2="99.60" y2="278.26"/><line x1="375.17" y1="367.80" x2="372.47" y2="365.53"/><line x1="478.56" y1="306.05" x2="479.75" y2="314.85"/><line x1="94.20" y1="289.32" x2="59.40" y2="306.83"/><line x1="401.79" y1="375.56" x2="391.76" y2="378.20"/><line x1="283.00" y1="158.25" x2="295.83" y2="148.55"/><line x1="299.67" y1="150.24" x2="303.51" y2="152.15"/><line x1="347.21" y1="159.69" x2="356.97" y2="150.27"/><line x1="331.70" y1="322.64" x2="330.26" y2="321.74"/><line x1="99.49" y1="191.89" x2="95.95" y2="195.09"/><line x1="90.82" y1="264.13" x2="32.00" y2="268.17"/><line x1="226.52" y1="280.00" x2="224.16" y2="277.36"/><line x1="108.22" y1="288.98" x2="108.82" y2="289.52"/><line x1="90.82" y1="264.13" x2="45.69" y2="255.86"/><line x1="466.35" y1="271.34" x2="351.12" y2="342.90"/><line x1="97.05" y1="306.65" x2="78.60" y2="317.63"/><line x1="124.40" y1="147.86" x2="123.79" y2="147.58"/><line x1="396.59" y1="382.32" x2="395.66" y2="381.84"/><line x1="148.08" y1="243.34" x2="148.01" y2="247.01"/><line x1="318.24" y1="160.76" x2="321.60" y2="162.88"/><line x1="382.00" y1="171.64" x2="363.83" y2="183.92"/><line x1="389.11" y1="374.66" x2="402.96" y2="369.46"/><line x1="249.91" y1="148.86" x2="189.29" y2="246.33"/><line x1="373.72" y1="164.46" x2="365.37" y2="157.34"/><line x1="448.66" y1="367.87" x2="441.01" y2="369.18"/><line x1="312.84" y1="305.38" x2="311.75" y2="303.29"/><line x1="204.80" y1="134.30" x2="197.00" y2="138.79"/><line x1="420.35" y1="379.05" x2="426.04" y2="376.40"/><line x1="362.49" y1="355.53" x2="473.75" y2="288.50"/><line x1="273.64" y1="316.36" x2="293.13" y2="305.80"/><line x1="43.25" y1="296.04" x2="43.18" y2="294.00"/><line x1="287.49" y1="168.53" x2="307.32" y2="154.22"/><line x1="457.11" y1="254.97" x2="452.04" y2="247.20"/><line x1="167.67" y1="232.54" x2="185.29" y2="143.08"/><line x1="429.38" y1="361.90" x2="472.10" y2="339.96"/><line x1="200.78" y1="134.10" x2="196.96" y2="134.89"/><line x1="392.46" y1="379.05" x2="391.76" y2="378.20"/><line x1="96.10" y1="338.15" x2="99.95" y2="334.45"/><line x1="322.30" y1="316.62" x2="321.06" y2="315.64"/><line x1="107.05" y1="286.11" x2="108.30" y2="288.03"/><line x1="430.79" y1="362.37" x2="454.30" y2="360.43"/><line x1="113.77" y1="270.72" x2="115.67" y2="272.31"/><line x1="350.70" y1="180.34" x2="347.45" y2="178.32"/><line x1="470.33" y1="279.85" x2="352.79" y2="344.93"/><line x1="410.11" y1="367.00" x2="426.62" y2="362.78"/><line x1="64.51" y1="309.26" x2="94.20" y2="289.32"/><line x1="421.60" y1="209.55" x2="414.00" y2="201.62"/><line x1="103.12" y1="179.21" x2="114.64" y2="156.77"/><line x1="81.23" y1="201.65" x2="63.26" y2="233.44"/><line x1="94.71" y1="285.55" x2="95.60" y2="284.94"/><line x1="90.82" y1="264.13" x2="33.70" y2="271.30"/><line x1="226.44" y1="139.15" x2="222.05" y2="137.78"/><line x1="90.82" y1="264.13" x2="34.76" y2="263.37"/><line x1="111.56" y1="258.39" x2="107.35" y2="266.37"/><line x1="133.32" y1="145.40" x2="127.27" y2="149.42"/><line x1="90.82" y1="264.13" x2="53.34" y2="251.27"/><line x1="288.27" y1="146.01" x2="292.02" y2="147.12"/><line x1="425.70" y1="370.54" x2="414.46" y2="372.15"/><line x1="64.46" y1="206.28" x2="59.30" y2="207.98"/><line x1="41.86" y1="283.68" x2="91.44" y2="268.20"/><line x1="295.58" y1="297.38" x2="262.19" y2="310.90"/><line x1="93.40" y1="168.38" x2="93.33" y2="162.72"/><line x1="296.55" y1="294.67" x2="297.65" y2="292.03"/><line x1="441.48" y1="232.72" x2="436.18" y2="226.12"/><line x1="167.95" y1="143.64" x2="162.15" y2="143.81"/><line x1="196.77" y1="142.50" x2="176.54" y2="238.00"/><line x1="86.65" y1="324.60" x2="82.78" y2="320.94"/><line x1="439.35" y1="367.88" x2="448.66" y2="367.87"/><line x1="91.59" y1="197.70" x2="111.46" y2="240.54"/><line x1="398.66" y1="382.89" x2="397.59" y2="382.67"/><line x1="216.13" y1="268.57" x2="212.56" y2="265.02"/><line x1="429.38" y1="361.90" x2="480.00" y2="323.60"/><line x1="398.27" y1="186.33" x2="390.19" y2="178.93"/><line x1="105.36" y1="159.06" x2="99.03" y2="173.32"/><line x1="260.50" y1="154.75" x2="257.06" y2="152.70"/><line x1="124.01" y1="239.16" x2="121.16" y2="238.38"/><line x1="45.69" y1="255.86" x2="47.97" y2="254.49"/><line x1="63.65" y1="236.14" x2="108.62" y2="247.36"/><line x1="126.73" y1="149.08" x2="126.16" y2="148.76"/><line x1="292.61" y1="178.01" x2="221.85" y2="274.78"/><line x1="367.29" y1="360.59" x2="364.83" y2="358.05"/><line x1="176.54" y1="238.00" x2="172.14" y2="235.27"/><line x1="446.80" y1="370.79" x2="445.82" y2="372.97"/><line x1="279.37" y1="318.84" x2="276.52" y2="317.62"/><line x1="208.91" y1="261.62" x2="205.15" y2="258.36"/><line x1="90.85" y1="266.17" x2="39.95" y2="278.08"/><line x1="299.67" y1="150.24" x2="286.24" y2="166.02"/><line x1="426.17" y1="363.85" x2="410.11" y2="367.00"/><line x1="251.99" y1="304.67" x2="249.38" y2="302.68"/><line x1="90.82" y1="264.13" x2="36.84" y2="273.59"/><line x1="99.24" y1="160.68" x2="96.25" y2="161.63"/><line x1="101.66" y1="280.24" x2="103.64" y2="282.21"/><line x1="148.64" y1="237.00" x2="133.11" y2="242.89"/><line x1="205.15" y1="258.36" x2="273.64" y2="163.65"/><line x1="90.82" y1="264.13" x2="32.14" y2="269.00"/><line x1="292.61" y1="178.01" x2="334.27" y2="170.54"/><line x1="90.82" y1="264.13" x2="43.31" y2="257.31"/><line x1="96.25" y1="161.63" x2="93.33" y2="162.72"/><line x1="90.82" y1="264.13" x2="62.37" y2="241.72"/><line x1="109.86" y1="242.62" x2="108.94" y2="244.90"/><line x1="103.44" y1="181.09" x2="103.12" y2="179.21"/><line x1="369.02" y1="193.99" x2="398.27" y2="186.33"/><line x1="373.72" y1="164.46" x2="354.09" y2="169.33"/><line x1="95.24" y1="296.75" x2="94.57" y2="292.65"/><line x1="425.92" y1="374.49" x2="425.80" y2="372.51"/><line x1="293.90" y1="302.96" x2="294.71" y2="300.15"/><line x1="127.61" y1="146.00" x2="126.16" y2="148.76"/><line x1="200.78" y1="134.10" x2="196.96" y2="135.53"/><line x1="392.46" y1="379.05" x2="401.79" y2="375.56"/><line x1="179.52" y1="143.29" x2="173.73" y2="143.47"/><line x1="96.10" y1="338.15" x2="98.43" y2="343.68"/><line x1="107.05" y1="286.11" x2="107.36" y2="288.34"/><line x1="350.64" y1="164.52" x2="347.21" y2="159.69"/><line x1="292.61" y1="178.01" x2="289.43" y2="175.60"/><line x1="311.07" y1="156.37" x2="314.72" y2="158.58"/><line x1="290.70" y1="314.25" x2="291.56" y2="311.46"/><line x1="352.79" y1="344.93" x2="466.35" y2="271.34"/><line x1="111.55" y1="157.56" x2="108.46" y2="158.31"/><line x1="94.71" y1="285.55" x2="95.65" y2="274.26"/><line x1="90.82" y1="264.13" x2="34.28" y2="271.74"/><line x1="292.61" y1="178.01" x2="318.24" y2="160.76"/><line x1="90.82" y1="264.13" x2="33.34" y2="264.77"/><line x1="99.34" y1="284.78" x2="100.78" y2="285.15"/><line x1="111.56" y1="258.39" x2="105.04" y2="265.20"/><line x1="348.54" y1="143.21" x2="340.11" y2="136.15"/><line x1="90.82" y1="264.13" x2="51.89" y2="252.16"/><line x1="133.32" y1="145.40" x2="127.79" y2="149.77"/><line x1="288.27" y1="146.01" x2="281.57" y2="152.96"/><line x1="43.31" y1="257.31" x2="45.69" y2="255.86"/><line x1="313.93" y1="307.35" x2="312.84" y2="305.38"/><line x1="41.86" y1="283.68" x2="92.50" y2="270.22"/><line x1="300.38" y1="287.08" x2="344.17" y2="176.34"/><line x1="180.87" y1="240.74" x2="176.54" y2="238.00"/><line x1="296.55" y1="294.67" x2="254.35" y2="306.30"/><line x1="436.18" y1="226.12" x2="311.75" y2="303.29"/><line x1="389.76" y1="375.54" x2="389.11" y2="374.66"/><line x1="86.65" y1="324.60" x2="98.88" y2="317.84"/><line x1="297.65" y1="292.03" x2="251.99" y2="304.67"/><line x1="340.11" y1="136.15" x2="335.39" y2="139.73"/><line x1="102.03" y1="187.96" x2="103.38" y2="183.19"/><line x1="74.14" y1="314.61" x2="69.43" y2="311.84"/><line x1="63.26" y1="233.44" x2="62.29" y2="230.78"/><line x1="286.27" y1="173.19" x2="283.12" y2="170.77"/><line x1="127.61" y1="146.00" x2="123.79" y2="147.58"/><line x1="41.33" y1="281.72" x2="90.85" y2="266.17"/><line x1="270.75" y1="315.06" x2="267.85" y2="313.72"/><line x1="344.49" y1="334.53" x2="457.11" y2="254.97"/><line x1="279.97" y1="168.38" x2="205.15" y2="258.36"/><line x1="99.48" y1="339.35" x2="96.10" y2="338.15"/><line x1="298.92" y1="289.50" x2="300.38" y2="287.08"/><line x1="105.04" y1="286.95" x2="106.28" y2="287.65"/><line x1="115.74" y1="267.13" x2="113.77" y2="270.72"/><line x1="280.99" y1="147.65" x2="281.16" y2="150.30"/><line x1="90.85" y1="266.17" x2="40.70" y2="279.85"/><line x1="60.79" y1="228.16" x2="58.84" y2="225.57"/><line x1="299.67" y1="150.24" x2="285.05" y2="163.46"/><line x1="57.92" y1="247.56" x2="60.58" y2="244.60"/><line x1="307.26" y1="294.69" x2="421.60" y2="209.55"/><line x1="90.82" y1="264.13" x2="37.47" y2="274.20"/><line x1="155.77" y1="228.01" x2="120.69" y2="154.93"/><line x1="205.15" y1="258.36" x2="276.82" y2="166.00"/><line x1="148.64" y1="237.00" x2="136.20" y2="244.21"/><line x1="90.82" y1="264.13" x2="32.39" y2="269.70"/><line x1="414.00" y1="201.62" x2="406.21" y2="193.88"/><line x1="327.50" y1="320.05" x2="326.17" y2="319.23"/><line x1="292.61" y1="178.01" x2="330.99" y2="168.61"/><line x1="94.22" y1="286.90" x2="94.71" y2="285.55"/><line x1="41.86" y1="283.68" x2="94.71" y2="285.55"/><line x1="386.30" y1="374.09" x2="383.50" y2="373.06"/><line x1="201.32" y1="255.21" x2="197.39" y2="252.17"/><line x1="96.25" y1="161.63" x2="93.40" y2="168.38"/><line x1="60.58" y1="244.60" x2="62.37" y2="241.72"/><line x1="300.38" y1="287.08" x2="238.98" y2="293.29"/><line x1="103.44" y1="181.09" x2="117.68" y2="155.91"/><line x1="404.80" y1="363.58" x2="372.47" y2="365.53"/><line x1="281.16" y1="150.30" x2="288.27" y2="146.01"/><line x1="436.18" y1="226.12" x2="328.87" y2="320.88"/><line x1="284.86" y1="321.15" x2="282.16" y2="320.01"/><line x1="358.18" y1="350.85" x2="356.25" y2="348.80"/><line x1="58.84" y1="225.57" x2="64.46" y2="206.28"/><line x1="369.02" y1="193.99" x2="303.38" y2="289.36"/><line x1="436.18" y1="226.12" x2="317.39" y2="312.13"/><line x1="300.38" y1="287.08" x2="360.17" y2="186.77"/><line x1="196.98" y1="140.07" x2="197.00" y2="139.43"/><line x1="373.72" y1="164.46" x2="357.49" y2="174.16"/><line x1="37.47" y1="274.20" x2="36.84" y2="273.59"/><line x1="290.09" y1="173.40" x2="291.37" y2="175.74"/><line x1="337.27" y1="326.81" x2="441.48" y2="232.72"/><line x1="428.18" y1="361.78" x2="429.38" y2="361.90"/><line x1="238.98" y1="293.29" x2="236.43" y2="290.69"/><line x1="102.03" y1="187.96" x2="150.94" y2="230.42"/><line x1="99.55" y1="323.55" x2="86.65" y2="324.60"/><line x1="93.14" y1="263.39" x2="90.82" y2="264.13"/><line x1="400.34" y1="381.53" x2="398.66" y2="382.89"/><line x1="127.61" y1="146.00" x2="126.73" y2="149.08"/><line x1="425.71" y1="366.83" x2="425.87" y2="365.22"/><line x1="36.84" y1="273.59" x2="36.19" y2="273.07"/><line x1="282.16" y1="320.01" x2="290.70" y2="314.25"/><line x1="63.65" y1="236.14" x2="93.14" y2="263.39"/><line x1="391.08" y1="377.32" x2="390.41" y2="376.43"/><line x1="263.87" y1="156.88" x2="260.50" y2="154.75"/><line x1="97.96" y1="284.60" x2="99.34" y2="284.78"/><line x1="152.22" y1="229.12" x2="153.82" y2="228.30"/><line x1="343.90" y1="154.82" x2="340.77" y2="149.88"/><line x1="423.97" y1="381.48" x2="426.06" y2="382.24"/><line x1="442.54" y1="370.39" x2="443.88" y2="371.48"/><line x1="290.70" y1="314.25" x2="279.37" y2="318.84"/><line x1="400.78" y1="380.07" x2="401.16" y2="378.59"/><line x1="404.80" y1="363.58" x2="406.73" y2="364.43"/><line x1="283.96" y1="160.87" x2="299.67" y2="150.24"/><line x1="90.82" y1="264.13" x2="34.89" y2="272.16"/><line x1="196.98" y1="136.18" x2="196.96" y2="135.53"/><line x1="94.22" y1="286.90" x2="43.05" y2="291.93"/><line x1="97.61" y1="172.08" x2="96.16" y2="170.87"/><line x1="401.16" y1="378.59" x2="393.97" y2="380.60"/><line x1="99.34" y1="284.78" x2="101.66" y2="280.24"/><line x1="33.19" y1="270.83" x2="32.75" y2="270.31"/><line x1="133.32" y1="145.40" x2="128.29" y2="150.14"/><line x1="472.10" y1="339.96" x2="468.78" y2="343.63"/><line x1="103.64" y1="282.21" x2="105.47" y2="284.17"/><line x1="112.91" y1="261.30" x2="114.33" y2="264.23"/><line x1="366.16" y1="191.48" x2="363.20" y2="189.08"/><line x1="41.86" y1="283.68" x2="93.93" y2="272.24"/><line x1="300.38" y1="287.08" x2="228.94" y2="282.68"/><line x1="436.18" y1="226.12" x2="323.57" y2="317.53"/><line x1="103.38" y1="183.19" x2="103.44" y2="181.09"/><line x1="300.38" y1="287.08" x2="347.45" y2="178.32"/><line x1="189.29" y1="246.33" x2="196.77" y2="142.50"/><line x1="123.17" y1="147.30" x2="122.55" y2="147.02"/><line x1="436.18" y1="226.12" x2="312.84" y2="305.38"/><line x1="32.75" y1="270.31" x2="32.39" y2="269.70"/><line x1="468.78" y1="343.63" x2="465.18" y2="347.66"/><line x1="301.93" y1="288.06" x2="300.38" y2="287.08"/><line x1="246.55" y1="147.25" x2="242.92" y2="145.58"/><line x1="109.42" y1="252.70" x2="100.30" y2="263.54"/><line x1="74.14" y1="314.61" x2="95.24" y2="296.75"/><line x1="127.61" y1="146.00" x2="124.40" y2="147.86"/><line x1="418.76" y1="377.49" x2="425.92" y2="374.49"/><line x1="63.65" y1="236.14" x2="108.94" y2="244.90"/><line x1="270.75" y1="315.06" x2="293.90" y2="302.96"/><line x1="292.61" y1="178.01" x2="224.16" y2="277.36"/><line x1="452.04" y1="247.20" x2="446.80" y2="239.77"/><line x1="164.01" y1="230.49" x2="179.52" y2="143.29"/><line x1="69.96" y1="204.74" x2="58.84" y2="225.57"/><line x1="105.04" y1="286.95" x2="107.05" y2="286.11"/><line x1="155.77" y1="228.01" x2="139.05" y2="144.92"/><line x1="432.37" y1="363.13" x2="434.06" y2="364.13"/><line x1="115.67" y1="272.31" x2="117.43" y2="273.90"/><line x1="344.17" y1="176.34" x2="340.88" y2="174.39"/><line x1="94.22" y1="286.90" x2="48.74" y2="302.22"/><line x1="102.45" y1="177.53" x2="111.55" y2="157.56"/><line x1="292.61" y1="178.01" x2="327.72" y2="166.68"/><line x1="94.22" y1="286.90" x2="41.86" y2="283.68"/><line x1="201.32" y1="255.21" x2="267.18" y2="159.08"/><line x1="259.47" y1="309.41" x2="256.84" y2="307.88"/><line x1="434.06" y1="364.13" x2="435.82" y2="365.29"/><line x1="404.80" y1="363.58" x2="375.17" y2="367.80"/><line x1="126.98" y1="240.24" x2="102.03" y2="187.96"/><line x1="436.18" y1="226.12" x2="330.26" y2="321.74"/><line x1="107.35" y1="266.37" x2="109.58" y2="267.71"/><line x1="300.38" y1="287.08" x2="363.20" y2="189.08"/><line x1="189.29" y1="246.33" x2="230.76" y2="140.66"/><line x1="436.18" y1="226.12" x2="318.60" y2="313.42"/><line x1="425.67" y1="368.62" x2="425.71" y2="366.83"/><line x1="372.47" y1="365.53" x2="369.84" y2="363.11"/><line x1="436.18" y1="226.12" x2="429.00" y2="217.71"/><line x1="197.00" y1="138.14" x2="197.00" y2="137.49"/><line x1="145.21" y1="246.91" x2="142.28" y2="246.34"/><line x1="297.65" y1="292.03" x2="298.92" y2="289.50"/><line x1="102.03" y1="187.96" x2="124.01" y2="239.16"/><line x1="50.95" y1="217.91" x2="50.82" y2="212.40"/><line x1="102.28" y1="159.84" x2="99.24" y2="160.68"/><line x1="121.16" y1="238.38" x2="118.44" y2="238.02"/><line x1="129.22" y1="150.95" x2="128.77" y2="150.54"/><line x1="369.84" y1="363.11" x2="367.29" y2="360.59"/><line x1="425.71" y1="366.83" x2="413.05" y2="370.34"/><line x1="208.98" y1="134.80" x2="196.91" y2="141.31"/><line x1="50.82" y1="212.40" x2="47.87" y2="215.37"/><line x1="395.66" y1="381.84" x2="401.16" y2="378.59"/><line x1="426.62" y1="362.78" x2="406.73" y2="364.43"/><line x1="155.77" y1="228.01" x2="123.62" y2="153.80"/><line x1="95.51" y1="263.07" x2="97.90" y2="263.13"/><line x1="246.77" y1="300.52" x2="244.17" y2="298.23"/><line x1="404.22" y1="365.01" x2="404.80" y2="363.58"/><line x1="328.87" y1="320.88" x2="327.50" y2="320.05"/><line x1="442.54" y1="370.39" x2="446.80" y2="370.79"/><line x1="276.52" y1="317.62" x2="273.64" y2="316.36"/><line x1="96.10" y1="301.46" x2="74.14" y2="314.61"/><line x1="94.22" y1="286.90" x2="43.18" y2="294.00"/><line x1="39.95" y1="278.08" x2="39.08" y2="276.42"/><line x1="401.16" y1="378.59" x2="394.79" y2="381.27"/><line x1="97.61" y1="172.08" x2="99.24" y2="160.68"/><line x1="95.65" y1="274.26" x2="93.93" y2="272.24"/><line x1="293.13" y1="305.80" x2="270.75" y2="315.06"/><line x1="401.49" y1="377.08" x2="401.79" y2="375.56"/><line x1="273.64" y1="163.65" x2="270.43" y2="161.34"/><line x1="360.76" y1="179.01" x2="373.72" y2="164.46"/><line x1="99.95" y1="334.45" x2="99.94" y2="329.13"/><line x1="300.38" y1="287.08" x2="231.40" y2="285.37"/><line x1="103.38" y1="183.19" x2="153.82" y2="228.30"/><line x1="334.27" y1="170.54" x2="337.58" y2="172.46"/><line x1="185.29" y1="143.08" x2="164.01" y2="230.49"/><line x1="97.90" y1="263.13" x2="109.42" y2="252.70"/><line x1="436.18" y1="226.12" x2="324.85" y2="318.39"/><line x1="103.38" y1="183.19" x2="155.77" y2="228.01"/><line x1="105.47" y1="284.17" x2="105.04" y2="286.95"/><line x1="300.38" y1="287.08" x2="350.70" y2="180.34"/><line x1="288.68" y1="319.67" x2="287.45" y2="322.25"/><line x1="189.29" y1="246.33" x2="213.29" y2="135.57"/><line x1="360.26" y1="353.11" x2="358.18" y2="350.85"/><line x1="93.33" y1="162.72" x2="91.22" y2="165.58"/><line x1="63.38" y1="238.90" x2="90.82" y2="264.13"/><line x1="347.45" y1="178.32" x2="344.17" y2="176.34"/><line x1="288.78" y1="170.99" x2="290.09" y2="173.40"/><line x1="95.60" y1="284.94" x2="96.70" y2="284.64"/><line x1="102.03" y1="187.96" x2="99.49" y2="191.89"/><line x1="365.37" y1="157.34" x2="356.97" y2="150.27"/><line x1="114.64" y1="156.77" x2="102.45" y2="177.53"/><line x1="33.34" y1="264.77" x2="34.76" y2="263.37"/><line x1="319.82" y1="314.58" x2="318.60" y2="313.42"/><line x1="292.02" y1="147.12" x2="283.00" y2="158.25"/><line x1="82.78" y1="320.94" x2="78.60" y2="317.63"/><line x1="222.05" y1="137.78" x2="217.66" y2="136.58"/><line x1="111.46" y1="240.54" x2="86.63" y2="199.85"/><line x1="59.40" y1="306.83" x2="94.22" y2="286.90"/><line x1="391.76" y1="378.20" x2="391.08" y2="377.32"/><line x1="155.77" y1="228.01" x2="144.81" y2="144.54"/><line x1="34.76" y1="263.37" x2="36.57" y2="261.89"/><line x1="414.46" y1="372.15" x2="425.67" y2="368.62"/><line x1="262.19" y1="310.90" x2="259.47" y2="309.41"/><line x1="193.38" y1="249.21" x2="253.53" y2="150.73"/><line x1="356.97" y1="150.27" x2="343.90" y2="154.82"/><line x1="217.66" y1="136.58" x2="213.29" y2="135.57"/><line x1="86.63" y1="199.85" x2="81.23" y2="201.65"/><line x1="162.15" y1="143.81" x2="156.36" y2="144.00"/><line x1="94.22" y1="286.90" x2="54.14" y2="304.51"/><line x1="426.20" y1="379.81" x2="426.14" y2="378.19"/><line x1="108.82" y1="289.52" x2="109.13" y2="289.93"/><line x1="123.62" y1="153.80" x2="120.69" y2="154.93"/><line x1="351.12" y1="342.90" x2="349.48" y2="340.82"/><line x1="259.47" y1="309.41" x2="296.55" y2="294.67"/><line x1="212.56" y1="265.02" x2="289.43" y2="175.60"/><line x1="321.60" y1="162.88" x2="324.77" y2="164.87"/><line x1="436.18" y1="226.12" x2="331.70" y2="322.64"/><line x1="107.35" y1="266.37" x2="112.91" y2="261.30"/><line x1="189.29" y1="246.33" x2="234.97" y2="142.25"/><line x1="156.36" y1="144.00" x2="150.58" y2="144.24"/><line x1="99.03" y1="173.32" x2="102.28" y2="159.84"/><line x1="422.08" y1="380.39" x2="420.35" y2="379.05"/><line x1="47.97" y1="254.49" x2="50.07" y2="253.24"/><line x1="441.01" y1="369.18" x2="442.54" y2="370.39"/><line x1="311.75" y1="303.29" x2="310.66" y2="301.13"/><line x1="397.59" y1="382.67" x2="396.59" y2="382.32"/><line x1="145.21" y1="246.91" x2="148.01" y2="247.01"/><line x1="289.43" y1="175.60" x2="286.27" y2="173.19"/><line x1="75.61" y1="203.24" x2="60.79" y2="228.16"/><line x1="324.77" y1="164.87" x2="327.72" y2="166.68"/><line x1="43.18" y1="294.00" x2="43.05" y2="291.93"/><line x1="102.28" y1="159.84" x2="97.61" y2="172.08"/><line x1="402.64" y1="370.98" x2="402.96" y2="369.46"/><line x1="50.07" y1="253.24" x2="51.89" y2="252.16"/><line x1="249.38" y1="302.68" x2="246.77" y2="300.52"/><line x1="454.30" y1="360.43" x2="451.21" y2="364.37"/><line x1="333.30" y1="134.47" x2="331.70" y2="129.05"/><line x1="364.83" y1="358.05" x2="362.49" y2="355.53"/><line x1="208.98" y1="134.80" x2="196.85" y2="141.91"/><line x1="126.47" y1="152.49" x2="123.62" y2="153.80"/><line x1="117.06" y1="269.99" x2="118.18" y2="272.77"/><line x1="43.05" y1="291.93" x2="42.87" y2="289.84"/><line x1="40.70" y1="279.85" x2="39.95" y2="278.08"/><line x1="155.77" y1="228.01" x2="158.09" y2="228.25"/><line x1="426.62" y1="362.78" x2="408.49" y2="365.59"/><line x1="342.78" y1="332.49" x2="452.04" y2="247.20"/><line x1="155.77" y1="228.01" x2="126.47" y2="152.49"/><line x1="306.03" y1="292.73" x2="369.02" y2="193.99"/><line x1="246.77" y1="300.52" x2="298.92" y2="289.50"/><line x1="404.22" y1="365.01" x2="380.70" y2="371.63"/><line x1="276.82" y1="166.00" x2="273.64" y2="163.65"/><line x1="133.11" y1="242.89" x2="130.02" y2="241.52"/><line x1="369.02" y1="193.99" x2="300.38" y2="287.08"/><line x1="95.65" y1="274.26" x2="97.57" y2="276.26"/><line x1="149.93" y1="232.19" x2="150.94" y2="230.42"/><line x1="425.80" y1="372.51" x2="425.70" y2="370.54"/><line x1="380.70" y1="371.63" x2="377.92" y2="369.86"/><line x1="39.95" y1="278.08" x2="90.82" y2="264.13"/><line x1="451.21" y1="364.37" x2="448.66" y2="367.87"/><line x1="389.11" y1="374.66" x2="386.30" y2="374.09"/><line x1="401.49" y1="377.08" x2="392.46" y2="379.05"/><line x1="281.57" y1="152.96" x2="282.20" y2="155.61"/><line x1="48.74" y1="302.22" x2="43.25" y2="296.04"/><line x1="273.64" y1="163.65" x2="201.32" y2="255.21"/><line x1="56.51" y1="223.00" x2="53.85" y2="220.45"/><line x1="99.95" y1="334.45" x2="93.34" y2="333.16"/><line x1="197.00" y1="139.43" x2="197.00" y2="138.79"/><line x1="196.77" y1="142.50" x2="191.04" y2="142.82"/><line x1="189.29" y1="246.33" x2="217.66" y2="136.58"/><line x1="93.33" y1="162.72" x2="92.21" y2="167.04"/><line x1="335.28" y1="325.14" x2="333.17" y2="323.61"/><line x1="288.68" y1="319.67" x2="284.86" y2="321.15"/><line x1="429.38" y1="361.90" x2="457.78" y2="356.23"/><line x1="98.88" y1="317.84" x2="98.02" y2="312.16"/><line x1="197.00" y1="138.79" x2="197.00" y2="138.14"/><line x1="95.60" y1="284.94" x2="97.57" y2="276.26"/><line x1="461.91" y1="263.04" x2="457.11" y2="254.97"/><line x1="480.00" y1="323.60" x2="479.22" y2="332.26"/><line x1="110.36" y1="255.51" x2="111.56" y2="258.39"/><line x1="233.89" y1="288.04" x2="231.40" y2="285.37"/><line x1="150.94" y1="230.42" x2="152.22" y2="229.12"/><line x1="292.02" y1="147.12" x2="282.20" y2="155.61"/><line x1="82.78" y1="320.94" x2="97.05" y2="306.65"/><line x1="126.16" y1="148.76" x2="125.59" y2="148.45"/><line x1="99.49" y1="191.89" x2="115.90" y2="238.18"/><line x1="105.04" y1="265.20" x2="107.35" y2="266.37"/><line x1="478.56" y1="306.05" x2="476.53" y2="297.25"/><line x1="35.53" y1="272.60" x2="34.89" y2="272.16"/><line x1="291.56" y1="311.46" x2="292.35" y2="308.64"/><line x1="155.77" y1="228.01" x2="150.58" y2="144.24"/><line x1="479.22" y1="332.26" x2="478.69" y2="332.82"/><line x1="390.19" y1="178.93" x2="382.00" y2="171.64"/><line x1="390.41" y1="376.43" x2="389.76" y2="375.54"/><line x1="193.38" y1="249.21" x2="257.06" y2="152.70"/><line x1="148.08" y1="243.34" x2="145.21" y2="246.91"/><line x1="108.62" y1="247.36" x2="108.81" y2="249.97"/><line x1="100.78" y1="285.15" x2="102.24" y2="285.65"/><line x1="426.20" y1="379.81" x2="422.08" y2="380.39"/><line x1="389.11" y1="374.66" x2="402.64" y2="370.98"/><line x1="204.80" y1="134.30" x2="197.00" y2="139.43"/><line x1="286.24" y1="166.02" x2="287.49" y2="168.53"/><line x1="335.39" y1="139.73" x2="333.30" y2="134.47"/><line x1="196.96" y1="134.89" x2="196.96" y2="134.25"/><line x1="62.29" y1="230.78" x2="75.61" y2="203.24"/><line x1="393.97" y1="380.60" x2="393.19" y2="379.85"/><line x1="422.08" y1="380.39" x2="426.14" y2="378.19"/><line x1="465.18" y1="347.66" x2="461.45" y2="351.92"/><line x1="457.11" y1="254.97" x2="342.78" y2="332.49"/><line x1="429.38" y1="361.90" x2="474.97" y2="336.83"/><line x1="115.90" y1="238.18" x2="113.56" y2="238.98"/><line x1="69.43" y1="311.84" x2="64.51" y2="309.26"/><line x1="113.77" y1="270.72" x2="117.06" y2="269.99"/><line x1="417.27" y1="375.78" x2="415.85" y2="373.99"/><line x1="470.33" y1="279.85" x2="354.50" y2="346.91"/><line x1="267.85" y1="313.72" x2="265.00" y2="312.33"/><line x1="172.14" y1="235.27" x2="167.67" y2="232.54"/><line x1="461.45" y1="351.92" x2="457.78" y2="356.23"/><line x1="354.09" y1="169.33" x2="350.64" y2="164.52"/><line x1="421.60" y1="209.55" x2="306.03" y2="292.73"/><line x1="454.30" y1="360.43" x2="435.82" y2="365.29"/><line x1="136.20" y1="244.21" x2="133.11" y2="242.89"/><line x1="160.83" y1="229.07" x2="158.09" y2="228.25"/></g></svg>