<svg xmlns="http://www.w3.org/2000/svg" width="512" height="512"><rect width="512" height="512" fill="#0a0f1a"/><text x="12" y="20" font-family="monospace" font-size="11" fill="#4a7fa5">FRONT (XZ)</text><g stroke="#00d4ff" stroke-width="0.6" opacity="0.85"><line x1="342.27" y1="229.68" x2="342.21" y2="235.10"/><line x1="118.68" y1="281.11" x2="126.60" y2="280.41"/><line x1="399.18" y1="285.45" x2="390.59" y2="240.31"/><line x1="278.09" y1="247.65" x2="280.71" y2="247.40"/><line x1="414.78" y1="289.26" x2="400.82" y2="234.32"/><line x1="344.40" y1="236.20" x2="346.75" y2="229.01"/><line x1="408.42" y1="223.23" x2="417.93" y2="294.68"/><line x1="357.78" y1="232.11" x2="357.80" y2="237.97"/><line x1="389.01" y1="227.46" x2="389.03" y2="227.06"/><line x1="347.54" y1="229.03" x2="348.32" y2="229.10"/><line x1="360.31" y1="251.34" x2="368.35" y2="287.47"/><line x1="39.12" y1="275.46" x2="41.78" y2="281.24"/><line x1="471.28" y1="225.31" x2="471.09" y2="224.57"/><line x1="320.70" y1="235.92" x2="320.47" y2="233.47"/><line x1="401.22" y1="285.42" x2="402.27" y2="285.52"/><line x1="401.81" y1="230.79" x2="401.77" y2="230.38"/><line x1="334.92" y1="231.31" x2="335.78" y2="234.79"/><line x1="401.43" y1="233.26" x2="401.58" y2="232.85"/><line x1="270.51" y1="248.56" x2="247.56" y2="288.91"/><line x1="443.26" y1="210.40" x2="441.49" y2="210.70"/><line x1="313.68" y1="286.07" x2="315.55" y2="286.21"/><line x1="461.61" y1="213.31" x2="459.56" y2="211.46"/><line x1="357.80" y1="237.97" x2="358.41" y2="232.28"/><line x1="270.51" y1="248.56" x2="276.80" y2="288.92"/><line x1="386.83" y1="224.41" x2="389.02" y2="226.92"/><line x1="378.81" y1="225.50" x2="380.69" y2="225.23"/><line x1="428.54" y1="213.05" x2="426.70" y2="213.46"/><line x1="472.32" y1="227.75" x2="473.07" y2="229.35"/><line x1="348.81" y1="292.97" x2="349.71" y2="292.82"/><line x1="365.36" y1="249.33" x2="367.89" y2="248.31"/><line x1="454.43" y1="292.66" x2="452.62" y2="293.89"/><line x1="137.35" y1="279.61" x2="134.88" y2="272.22"/><line x1="405.10" y1="224.54" x2="404.33" y2="224.94"/><line x1="223.99" y1="282.82" x2="227.34" y2="283.78"/><line x1="460.96" y1="211.49" x2="460.26" y2="211.47"/><line x1="335.78" y1="234.79" x2="335.85" y2="231.13"/><line x1="415.75" y1="289.82" x2="416.01" y2="290.07"/><line x1="348.32" y1="229.10" x2="346.02" y2="237.06"/><line x1="305.73" y1="250.03" x2="307.36" y2="250.72"/><line x1="380.69" y1="225.23" x2="384.21" y2="234.35"/><line x1="467.80" y1="224.05" x2="466.93" y2="223.77"/><line x1="126.60" y1="280.41" x2="122.54" y2="269.80"/><line x1="408.42" y1="223.23" x2="421.19" y2="298.60"/><line x1="373.77" y1="286.14" x2="375.44" y2="286.23"/><line x1="369.95" y1="293.41" x2="364.28" y2="296.93"/><line x1="322.93" y1="232.82" x2="324.03" y2="236.00"/><line x1="404.38" y1="285.91" x2="405.44" y2="286.17"/><line x1="191.85" y1="262.09" x2="197.08" y2="261.22"/><line x1="288.65" y1="247.01" x2="291.30" y2="247.07"/><line x1="346.02" y1="237.06" x2="346.93" y2="237.42"/><line x1="461.23" y1="215.65" x2="456.74" y2="211.55"/><line x1="370.08" y1="227.17" x2="371.74" y2="226.75"/><line x1="361.15" y1="237.84" x2="362.27" y2="237.88"/><line x1="418.74" y1="296.67" x2="419.04" y2="297.07"/><line x1="334.55" y1="257.92" x2="334.19" y2="288.74"/><line x1="68.04" y1="283.75" x2="69.13" y2="272.51"/><line x1="324.03" y1="236.00" x2="323.79" y2="232.67"/><line x1="398.07" y1="236.62" x2="406.51" y2="286.48"/><line x1="399.18" y1="285.45" x2="382.69" y2="242.97"/><line x1="338.18" y1="234.57" x2="338.99" y2="234.57"/><line x1="197.08" y1="261.22" x2="197.02" y2="277.12"/><line x1="408.42" y1="223.23" x2="416.69" y2="291.21"/><line x1="266.98" y1="290.14" x2="270.23" y2="289.88"/><line x1="325.54" y1="257.77" x2="327.01" y2="257.96"/><line x1="408.42" y1="223.23" x2="418.74" y2="296.67"/><line x1="362.27" y1="237.88" x2="361.06" y2="231.51"/><line x1="334.19" y1="288.74" x2="336.06" y2="257.76"/><line x1="132.94" y1="279.88" x2="133.35" y2="272.11"/><line x1="350.09" y1="254.90" x2="356.06" y2="292.24"/><line x1="361.57" y1="293.69" x2="368.82" y2="289.44"/><line x1="360.31" y1="251.34" x2="362.84" y2="250.35"/><line x1="375.45" y1="245.38" x2="380.70" y2="286.99"/><line x1="141.58" y1="271.29" x2="142.77" y2="270.92"/><line x1="402.45" y1="226.48" x2="402.02" y2="227.16"/><line x1="338.99" y1="234.57" x2="338.82" y2="230.48"/><line x1="297.15" y1="286.81" x2="300.09" y2="286.67"/><line x1="414.37" y1="289.10" x2="400.56" y2="234.64"/><line x1="348.79" y1="237.93" x2="351.79" y2="230.10"/><line x1="270.23" y1="289.88" x2="273.49" y2="289.47"/><line x1="455.33" y1="211.57" x2="454.62" y2="211.56"/><line x1="270.51" y1="248.56" x2="260.53" y2="290.25"/><line x1="307.87" y1="286.28" x2="313.90" y2="253.75"/><line x1="387.75" y1="230.91" x2="384.31" y2="224.60"/><line x1="280.15" y1="288.21" x2="281.62" y2="287.94"/><line x1="356.06" y1="292.24" x2="352.66" y2="254.10"/><line x1="370.92" y1="297.39" x2="365.40" y2="299.25"/><line x1="399.30" y1="235.78" x2="399.65" y2="235.50"/><line x1="207.26" y1="278.60" x2="210.62" y2="279.31"/><line x1="400.56" y1="234.64" x2="414.78" y2="289.26"/><line x1="351.79" y1="230.10" x2="349.74" y2="238.08"/><line x1="461.13" y1="217.44" x2="461.18" y2="218.05"/><line x1="461.67" y1="212.73" x2="460.26" y2="211.47"/><line x1="313.90" y1="253.75" x2="309.83" y2="286.15"/><line x1="361.02" y1="293.26" x2="368.56" y2="288.45"/><line x1="408.42" y1="223.23" x2="432.59" y2="301.52"/><line x1="340.56" y1="257.07" x2="342.03" y2="256.80"/><line x1="408.42" y1="223.23" x2="425.32" y2="300.43"/><line x1="99.55" y1="282.62" x2="102.78" y2="269.71"/><line x1="381.12" y1="243.47" x2="388.49" y2="287.80"/><line x1="126.60" y1="280.41" x2="128.72" y2="271.28"/><line x1="365.40" y1="299.25" x2="371.07" y2="298.38"/><line x1="327.32" y1="235.91" x2="327.26" y2="232.30"/><line x1="408.62" y1="287.15" x2="409.67" y2="287.51"/><line x1="400.19" y1="285.39" x2="392.14" y2="239.69"/><line x1="210.62" y1="279.31" x2="212.74" y2="258.25"/><line x1="466.06" y1="223.44" x2="466.93" y2="223.77"/><line x1="281.62" y1="287.94" x2="278.09" y2="247.65"/><line x1="460.26" y1="211.47" x2="461.61" y2="213.31"/><line x1="365.38" y1="228.87" x2="366.79" y2="238.26"/><line x1="342.03" y1="256.80" x2="343.48" y2="256.51"/><line x1="363.26" y1="295.47" x2="363.79" y2="296.18"/><line x1="359.64" y1="292.60" x2="360.31" y2="251.34"/><line x1="456.16" y1="291.38" x2="454.43" y2="292.66"/><line x1="149.86" y1="268.26" x2="151.04" y2="267.82"/><line x1="392.14" y1="239.69" x2="401.22" y2="285.42"/><line x1="342.27" y1="229.68" x2="341.75" y2="234.96"/><line x1="118.68" y1="281.11" x2="119.44" y2="269.26"/><line x1="399.18" y1="285.45" x2="389.02" y2="240.90"/><line x1="352.67" y1="238.26" x2="353.67" y2="238.24"/><line x1="278.09" y1="247.65" x2="283.54" y2="287.70"/><line x1="401.25" y1="233.64" x2="401.43" y2="233.26"/><line x1="318.85" y1="255.89" x2="313.68" y2="286.07"/><line x1="408.42" y1="223.23" x2="417.73" y2="294.02"/><line x1="347.51" y1="255.60" x2="350.09" y2="254.90"/><line x1="430.41" y1="212.67" x2="428.54" y2="213.05"/><line x1="389.01" y1="227.46" x2="386.83" y2="224.41"/><line x1="364.73" y1="297.70" x2="365.10" y2="298.48"/><line x1="119.44" y1="269.26" x2="120.99" y2="269.50"/><line x1="360.31" y1="251.34" x2="360.50" y2="292.94"/><line x1="330.29" y1="232.02" x2="331.24" y2="231.91"/><line x1="151.04" y1="267.82" x2="152.22" y2="267.40"/><line x1="401.81" y1="230.79" x2="405.10" y2="224.54"/><line x1="220.65" y1="281.87" x2="223.99" y2="282.82"/><line x1="401.43" y1="233.26" x2="415.75" y2="289.82"/><line x1="335.48" y1="289.06" x2="336.19" y2="289.35"/><line x1="443.26" y1="210.40" x2="461.89" y2="220.11"/><line x1="371.29" y1="238.40" x2="372.42" y2="238.31"/><line x1="313.68" y1="286.07" x2="320.52" y2="256.49"/><line x1="339.51" y1="291.31" x2="340.41" y2="291.75"/><line x1="472.32" y1="227.75" x2="467.80" y2="224.05"/><line x1="365.36" y1="249.33" x2="373.77" y2="286.14"/><line x1="408.42" y1="223.23" x2="460.78" y2="287.48"/><line x1="396.63" y1="237.49" x2="404.38" y2="285.91"/><line x1="343.37" y1="235.61" x2="343.71" y2="235.80"/><line x1="223.99" y1="282.82" x2="228.39" y2="255.17"/><line x1="460.96" y1="211.49" x2="461.67" y2="212.73"/><line x1="408.42" y1="223.23" x2="442.89" y2="298.92"/><line x1="405.10" y1="224.54" x2="401.77" y2="230.38"/><line x1="320.20" y1="286.68" x2="322.78" y2="286.98"/><line x1="461.32" y1="215.06" x2="461.23" y2="215.65"/><line x1="233.60" y1="254.23" x2="238.83" y2="253.37"/><line x1="408.42" y1="223.23" x2="429.27" y2="301.48"/><line x1="340.41" y1="291.75" x2="341.33" y2="292.16"/><line x1="408.42" y1="223.23" x2="422.06" y2="299.03"/><line x1="318.25" y1="234.49" x2="318.95" y2="234.10"/><line x1="126.60" y1="280.41" x2="120.99" y2="269.50"/><line x1="442.89" y1="298.92" x2="440.85" y2="299.66"/><line x1="238.83" y1="253.37" x2="244.06" y2="252.60"/><line x1="404.38" y1="285.91" x2="398.07" y2="236.62"/><line x1="355.72" y1="238.13" x2="356.76" y2="238.06"/><line x1="288.65" y1="247.01" x2="291.23" y2="287.12"/><line x1="419.55" y1="215.37" x2="418.75" y2="215.67"/><line x1="128.72" y1="271.28" x2="130.26" y2="271.62"/><line x1="368.56" y1="288.45" x2="361.57" y2="293.69"/><line x1="333.08" y1="231.64" x2="333.99" y2="231.48"/><line x1="162.07" y1="265.15" x2="163.79" y2="264.94"/><line x1="402.99" y1="225.90" x2="402.45" y2="226.48"/><line x1="237.48" y1="286.65" x2="240.89" y2="287.51"/><line x1="299.12" y1="247.99" x2="301.64" y2="248.60"/><line x1="356.55" y1="231.74" x2="357.16" y2="231.93"/><line x1="408.42" y1="223.23" x2="416.46" y2="290.76"/><line x1="375.19" y1="226.07" x2="376.98" y2="225.77"/><line x1="325.54" y1="257.77" x2="322.78" y2="286.98"/><line x1="408.42" y1="223.23" x2="418.50" y2="296.25"/><line x1="476.78" y1="237.12" x2="477.67" y2="239.14"/><line x1="132.94" y1="279.88" x2="131.81" y2="271.90"/><line x1="375.45" y1="245.38" x2="378.94" y2="286.69"/><line x1="326.39" y1="232.37" x2="327.32" y2="235.91"/><line x1="402.45" y1="226.48" x2="401.66" y2="229.16"/><line x1="344.75" y1="236.42" x2="345.14" y2="236.63"/><line x1="297.15" y1="286.81" x2="304.11" y2="249.40"/><line x1="455.33" y1="211.57" x2="461.13" y2="217.44"/><line x1="379.89" y1="236.49" x2="382.28" y2="235.46"/><line x1="365.66" y1="238.16" x2="365.38" y2="228.87"/><line x1="45.15" y1="274.84" x2="52.36" y2="274.11"/><line x1="346.84" y1="293.30" x2="347.70" y2="293.19"/><line x1="369.37" y1="291.42" x2="369.66" y2="292.42"/><line x1="321.79" y1="235.97" x2="322.09" y2="233.00"/><line x1="406.74" y1="223.86" x2="405.91" y2="224.19"/><line x1="408.42" y1="223.23" x2="473.38" y2="273.19"/><line x1="430.90" y1="301.60" x2="430.08" y2="301.57"/><line x1="148.69" y1="268.72" x2="149.86" y2="268.26"/><line x1="399.30" y1="235.78" x2="408.62" y2="287.15"/><line x1="408.42" y1="223.23" x2="452.62" y2="293.89"/><line x1="341.24" y1="234.83" x2="342.27" y2="229.68"/><line x1="358.87" y1="237.89" x2="359.71" y2="232.64"/><line x1="408.42" y1="223.23" x2="434.66" y2="301.23"/><line x1="331.51" y1="258.11" x2="333.03" y2="258.04"/><line x1="414.91" y1="218.43" x2="414.34" y2="218.99"/><line x1="49.36" y1="282.64" x2="58.22" y2="283.45"/><line x1="386.05" y1="224.41" x2="389.01" y2="227.46"/><line x1="408.42" y1="223.23" x2="426.11" y2="300.72"/><line x1="408.42" y1="223.23" x2="407.58" y2="223.54"/><line x1="381.12" y1="243.47" x2="387.18" y2="287.84"/><line x1="336.58" y1="234.69" x2="337.37" y2="234.61"/><line x1="416.01" y1="290.07" x2="416.24" y2="290.38"/><line x1="430.08" y1="301.57" x2="429.27" y2="301.48"/><line x1="302.92" y1="286.54" x2="310.62" y2="252.21"/><line x1="353.57" y1="230.77" x2="352.67" y2="238.26"/><line x1="385.74" y1="233.20" x2="386.90" y2="232.04"/><line x1="352.02" y1="292.51" x2="353.34" y2="292.38"/><line x1="325.15" y1="235.99" x2="326.26" y2="235.95"/><line x1="117.90" y1="269.12" x2="119.44" y2="269.26"/><line x1="137.93" y1="272.08" x2="139.16" y2="271.88"/><line x1="330.14" y1="235.70" x2="330.29" y2="232.02"/><line x1="400.29" y1="234.94" x2="413.33" y2="288.76"/><line x1="399.18" y1="285.45" x2="387.45" y2="241.44"/><line x1="352.67" y1="238.26" x2="354.16" y2="230.98"/><line x1="408.42" y1="223.23" x2="417.48" y2="293.26"/><line x1="381.57" y1="225.09" x2="382.47" y2="224.93"/><line x1="370.16" y1="238.43" x2="371.29" y2="238.40"/><line x1="464.41" y1="222.59" x2="465.22" y2="223.05"/><line x1="78.44" y1="283.65" x2="89.07" y2="283.25"/><line x1="364.73" y1="297.70" x2="370.72" y2="296.40"/><line x1="479.16" y1="258.99" x2="478.19" y2="262.83"/><line x1="119.44" y1="269.26" x2="126.60" y2="280.41"/><line x1="406.51" y1="286.48" x2="407.57" y2="286.80"/><line x1="200.46" y1="277.49" x2="203.87" y2="277.99"/><line x1="330.29" y1="232.02" x2="330.98" y2="235.60"/><line x1="349.96" y1="229.46" x2="350.84" y2="229.74"/><line x1="344.24" y1="229.27" x2="343.37" y2="235.61"/><line x1="286.00" y1="247.06" x2="288.65" y2="247.01"/><line x1="335.48" y1="289.06" x2="339.07" y2="257.33"/><line x1="463.66" y1="222.07" x2="418.00" y2="216.02"/><line x1="371.29" y1="238.40" x2="370.08" y2="227.17"/><line x1="410.70" y1="222.20" x2="409.99" y2="222.57"/><line x1="78.01" y1="271.70" x2="86.80" y2="270.94"/><line x1="388.12" y1="224.69" x2="388.90" y2="225.47"/><line x1="463.66" y1="222.07" x2="412.61" y2="220.69"/><line x1="408.42" y1="223.23" x2="474.88" y2="233.06"/><line x1="408.42" y1="223.23" x2="479.77" y2="254.93"/><line x1="317.78" y1="235.60" x2="318.25" y2="234.49"/><line x1="424.52" y1="300.12" x2="423.72" y2="299.78"/><line x1="402.02" y1="227.16" x2="401.85" y2="227.56"/><line x1="160.34" y1="265.41" x2="162.07" y2="265.15"/><line x1="408.42" y1="223.23" x2="463.63" y2="284.85"/><line x1="343.37" y1="235.61" x2="345.12" y2="229.13"/><line x1="460.96" y1="211.49" x2="461.67" y2="211.54"/><line x1="362.46" y1="230.50" x2="363.89" y2="229.63"/><line x1="355.94" y1="231.56" x2="355.72" y2="238.13"/><line x1="408.42" y1="223.23" x2="444.91" y2="298.08"/><line x1="320.20" y1="286.68" x2="325.54" y2="257.77"/><line x1="408.42" y1="223.23" x2="430.08" y2="301.57"/><line x1="357.37" y1="292.27" x2="358.57" y2="292.39"/><line x1="388.90" y1="225.47" x2="388.59" y2="225.01"/><line x1="318.25" y1="234.49" x2="318.68" y2="235.74"/><line x1="401.83" y1="231.60" x2="406.74" y2="223.86"/><line x1="339.89" y1="230.23" x2="341.14" y2="229.94"/><line x1="333.41" y1="235.20" x2="333.08" y2="231.64"/><line x1="372.93" y1="246.32" x2="375.45" y2="245.38"/><line x1="400.82" y1="234.32" x2="401.04" y2="233.99"/><line x1="238.83" y1="253.37" x2="237.48" y2="286.65"/><line x1="315.54" y1="254.50" x2="317.20" y2="255.22"/><line x1="355.72" y1="238.13" x2="356.55" y2="231.74"/><line x1="388.72" y1="228.89" x2="388.92" y2="228.08"/><line x1="373.44" y1="226.39" x2="375.19" y2="226.07"/><line x1="355.22" y1="253.24" x2="357.77" y2="252.31"/><line x1="345.95" y1="293.32" x2="346.84" y2="293.30"/><line x1="365.60" y1="300.01" x2="365.70" y2="300.74"/><line x1="320.47" y1="233.47" x2="321.27" y2="233.22"/><line x1="128.72" y1="271.28" x2="132.94" y2="279.88"/><line x1="213.97" y1="280.11" x2="217.31" y2="280.96"/><line x1="333.08" y1="231.64" x2="334.21" y2="235.06"/><line x1="415.15" y1="289.42" x2="415.47" y2="289.61"/><line x1="407.57" y1="286.80" x2="399.30" y2="235.78"/><line x1="346.75" y1="229.01" x2="344.75" y2="236.42"/><line x1="459.56" y1="211.46" x2="458.86" y2="211.48"/><line x1="299.12" y1="247.99" x2="297.15" y2="286.81"/><line x1="375.19" y1="226.07" x2="379.89" y2="236.49"/><line x1="41.78" y1="281.24" x2="45.15" y2="274.84"/><line x1="371.18" y1="299.37" x2="371.22" y2="300.35"/><line x1="362.71" y1="294.81" x2="369.37" y2="291.42"/><line x1="393.66" y1="239.01" x2="395.16" y2="238.28"/><line x1="343.30" y1="229.46" x2="344.24" y2="229.27"/><line x1="335.85" y1="231.13" x2="336.81" y2="230.93"/><line x1="172.52" y1="264.23" x2="174.30" y2="264.11"/><line x1="280.71" y1="247.40" x2="283.34" y2="247.19"/><line x1="344.75" y1="236.42" x2="347.54" y2="229.03"/><line x1="461.52" y1="213.90" x2="461.43" y2="214.48"/><line x1="358.41" y1="232.28" x2="358.87" y2="237.89"/><line x1="463.66" y1="222.07" x2="424.87" y2="213.89"/><line x1="330.00" y1="258.12" x2="331.51" y2="258.11"/><line x1="368.35" y1="287.47" x2="369.45" y2="286.81"/><line x1="463.66" y1="222.07" x2="415.47" y2="217.89"/><line x1="45.15" y1="274.84" x2="49.36" y2="282.64"/><line x1="408.42" y1="223.23" x2="478.46" y2="241.11"/><line x1="369.37" y1="291.42" x2="363.26" y2="295.47"/><line x1="321.79" y1="235.97" x2="321.27" y2="233.22"/><line x1="402.27" y1="285.52" x2="403.32" y2="285.69"/><line x1="384.12" y1="287.55" x2="381.12" y2="243.47"/><line x1="408.42" y1="223.23" x2="475.27" y2="269.92"/><line x1="401.58" y1="232.85" x2="401.71" y2="232.41"/><line x1="401.77" y1="230.38" x2="401.73" y2="229.98"/><line x1="250.83" y1="289.43" x2="254.08" y2="289.83"/><line x1="408.42" y1="223.23" x2="454.43" y2="292.66"/><line x1="417.93" y1="294.68" x2="418.12" y2="295.26"/><line x1="358.87" y1="237.89" x2="359.05" y2="232.46"/><line x1="408.42" y1="223.23" x2="436.72" y2="300.82"/><line x1="331.51" y1="258.11" x2="330.32" y2="288.04"/><line x1="473.07" y1="229.35" x2="473.94" y2="231.14"/><line x1="350.80" y1="292.66" x2="352.02" y2="292.51"/><line x1="479.77" y1="254.93" x2="479.16" y2="258.99"/><line x1="323.79" y1="232.67" x2="324.66" y2="232.55"/><line x1="136.41" y1="272.22" x2="137.93" y2="272.08"/><line x1="404.33" y1="224.94" x2="403.63" y2="225.38"/><line x1="381.12" y1="243.47" x2="385.71" y2="287.75"/><line x1="336.58" y1="234.69" x2="336.81" y2="230.93"/><line x1="416.01" y1="290.07" x2="401.79" y2="232.00"/><line x1="336.19" y1="289.35" x2="336.97" y2="289.85"/><line x1="371.74" y1="226.75" x2="373.44" y2="226.39"/><line x1="302.92" y1="286.54" x2="308.99" y2="251.45"/><line x1="322.19" y1="257.02" x2="323.86" y2="257.45"/><line x1="452.48" y1="211.36" x2="443.26" y2="210.40"/><line x1="385.74" y1="233.20" x2="381.57" y2="225.09"/><line x1="352.02" y1="292.51" x2="347.51" y2="255.60"/><line x1="375.44" y1="286.23" x2="377.17" y2="286.43"/><line x1="370.23" y1="294.41" x2="364.73" y2="297.70"/><line x1="325.15" y1="235.99" x2="325.52" y2="232.45"/><line x1="345.96" y1="229.05" x2="346.75" y2="229.01"/><line x1="338.82" y1="230.48" x2="339.89" y2="230.23"/><line x1="197.02" y1="277.12" x2="200.46" y2="277.49"/><line x1="425.32" y1="300.43" x2="424.52" y2="300.12"/><line x1="400.29" y1="234.94" x2="412.69" y2="288.55"/><line x1="349.12" y1="229.25" x2="349.96" y2="229.46"/><line x1="456.74" y1="211.55" x2="456.04" y2="211.57"/><line x1="462.98" y1="221.49" x2="463.66" y2="222.07"/><line x1="363.41" y1="237.96" x2="364.53" y2="238.05"/><line x1="308.99" y1="251.45" x2="310.62" y2="252.21"/><line x1="336.06" y1="257.76" x2="335.48" y2="289.06"/><line x1="464.41" y1="222.59" x2="410.70" y2="222.20"/><line x1="78.44" y1="283.65" x2="78.01" y2="271.70"/><line x1="364.73" y1="297.70" x2="370.49" y2="295.40"/><line x1="461.12" y1="216.83" x2="455.33" y2="211.57"/><line x1="406.51" y1="286.48" x2="398.92" y2="236.05"/><line x1="339.82" y1="234.62" x2="340.67" y2="234.73"/><line x1="273.49" y1="289.47" x2="276.80" y2="288.92"/><line x1="344.91" y1="256.21" x2="343.19" y2="292.83"/><line x1="344.91" y1="256.21" x2="349.71" y2="292.82"/><line x1="335.48" y1="289.06" x2="337.57" y2="257.56"/><line x1="463.66" y1="222.07" x2="418.75" y2="215.67"/><line x1="352.66" y1="254.10" x2="357.37" y2="292.27"/><line x1="408.42" y1="223.23" x2="473.94" y2="231.14"/><line x1="463.66" y1="222.07" x2="413.20" y2="220.13"/><line x1="327.26" y1="232.30" x2="328.31" y2="232.22"/><line x1="408.42" y1="223.23" x2="480.00" y2="250.63"/><line x1="468.89" y1="279.28" x2="466.34" y2="282.12"/><line x1="212.74" y1="258.25" x2="217.96" y2="257.21"/><line x1="385.87" y1="241.97" x2="387.45" y2="241.44"/><line x1="402.02" y1="227.16" x2="401.67" y2="228.36"/><line x1="408.42" y1="223.23" x2="466.34" y2="282.12"/><line x1="350.71" y1="238.19" x2="351.69" y2="238.24"/><line x1="276.80" y1="288.92" x2="280.15" y2="288.21"/><line x1="382.28" y1="235.46" x2="384.21" y2="234.35"/><line x1="309.83" y1="286.15" x2="315.54" y2="254.50"/><line x1="461.18" y1="218.05" x2="461.31" y2="218.67"/><line x1="343.48" y1="256.51" x2="337.78" y2="290.35"/><line x1="437.85" y1="211.32" x2="436.00" y2="211.64"/><line x1="109.54" y1="281.88" x2="118.68" y2="281.11"/><line x1="357.37" y1="292.27" x2="355.22" y2="253.24"/><line x1="417.73" y1="294.02" x2="417.93" y2="294.68"/><line x1="371.07" y1="298.38" x2="365.60" y2="300.01"/><line x1="328.33" y1="235.85" x2="329.28" y2="235.78"/><line x1="401.83" y1="231.60" x2="407.58" y2="223.54"/><line x1="193.54" y1="276.90" x2="169.00" y2="264.47"/><line x1="300.09" y1="286.67" x2="302.92" y2="286.54"/><line x1="283.54" y1="287.70" x2="285.84" y2="287.49"/><line x1="400.82" y1="234.32" x2="415.15" y2="289.42"/><line x1="193.54" y1="276.90" x2="197.02" y2="277.12"/><line x1="367.91" y1="238.35" x2="369.04" y2="238.41"/><line x1="315.54" y1="254.50" x2="311.35" y2="286.02"/><line x1="360.50" y1="292.94" x2="361.02" y2="293.26"/><line x1="109.32" y1="269.30" x2="114.47" y2="269.10"/><line x1="471.09" y1="224.57" x2="470.33" y2="224.52"/><line x1="365.60" y1="300.01" x2="371.18" y2="299.37"/><line x1="320.47" y1="233.47" x2="321.79" y2="235.97"/><line x1="342.21" y1="235.10" x2="342.62" y2="235.26"/><line x1="372.19" y1="286.18" x2="373.77" y2="286.14"/><line x1="320.52" y1="256.49" x2="322.19" y2="257.02"/><line x1="366.90" y1="228.22" x2="368.47" y2="227.66"/><line x1="459.56" y1="211.46" x2="461.52" y2="213.90"/><line x1="336.97" y1="289.85" x2="337.78" y2="290.35"/><line x1="411.71" y1="288.22" x2="400.29" y2="234.94"/><line x1="452.62" y1="293.89" x2="450.76" y2="295.05"/><line x1="228.39" y1="255.17" x2="233.60" y2="254.23"/><line x1="393.66" y1="239.01" x2="402.27" y2="285.52"/><line x1="335.85" y1="231.13" x2="336.58" y2="234.69"/><line x1="353.67" y1="238.24" x2="354.69" y2="238.20"/><line x1="280.71" y1="247.40" x2="285.84" y2="287.49"/><line x1="461.89" y1="220.11" x2="462.39" y2="220.83"/><line x1="315.55" y1="286.21" x2="317.75" y2="286.42"/><line x1="344.91" y1="256.21" x2="346.84" y2="293.30"/><line x1="463.66" y1="222.07" x2="426.70" y2="213.46"/><line x1="389.02" y1="226.92" x2="389.06" y2="226.10"/><line x1="384.21" y1="234.35" x2="385.74" y2="233.20"/><line x1="368.35" y1="287.47" x2="361.02" y2="293.26"/><line x1="463.66" y1="222.07" x2="416.06" y2="217.37"/><line x1="367.89" y1="248.31" x2="370.41" y2="247.30"/><line x1="331.24" y1="231.91" x2="332.16" y2="231.78"/><line x1="408.42" y1="223.23" x2="477.67" y2="239.14"/><line x1="401.77" y1="230.38" x2="404.33" y2="224.94"/><line x1="227.34" y1="283.78" x2="230.70" y2="284.75"/><line x1="408.42" y1="223.23" x2="476.88" y2="266.47"/><line x1="291.23" y1="287.12" x2="293.93" y2="247.23"/><line x1="354.75" y1="231.18" x2="355.34" y2="231.37"/><line x1="346.93" y1="237.42" x2="349.12" y2="229.25"/><line x1="401.58" y1="232.85" x2="416.01" y2="290.07"/><line x1="372.42" y1="238.31" x2="373.55" y2="238.15"/><line x1="384.28" y1="242.47" x2="385.87" y2="241.97"/><line x1="473.07" y1="229.35" x2="466.93" y2="223.77"/><line x1="207.52" y1="259.28" x2="212.74" y2="258.25"/><line x1="323.79" y1="232.67" x2="325.15" y2="235.99"/><line x1="193.54" y1="276.90" x2="160.34" y2="265.41"/><line x1="343.71" y1="235.80" x2="344.05" y2="236.00"/><line x1="193.54" y1="276.90" x2="176.11" y2="263.97"/><line x1="336.19" y1="289.35" x2="343.48" y2="256.51"/><line x1="322.78" y1="286.98" x2="325.39" y2="287.32"/><line x1="371.74" y1="226.75" x2="377.00" y2="237.40"/><line x1="361.06" y1="231.51" x2="363.41" y2="237.96"/><line x1="35.88" y1="279.14" x2="32.00" y2="276.26"/><line x1="318.95" y1="234.10" x2="319.70" y2="233.77"/><line x1="438.79" y1="300.29" x2="436.72" y2="300.82"/><line x1="401.66" y1="229.16" x2="401.65" y2="228.76"/><line x1="244.06" y1="252.60" x2="244.25" y2="288.27"/><line x1="345.96" y1="229.05" x2="344.40" y2="236.20"/><line x1="338.82" y1="230.48" x2="339.82" y2="234.62"/><line x1="356.76" y1="238.06" x2="357.78" y2="232.11"/><line x1="462.98" y1="221.49" x2="428.54" y2="213.05"/><line x1="327.01" y1="257.96" x2="328.50" y2="258.08"/><line x1="363.41" y1="237.96" x2="362.46" y2="230.50"/><line x1="34.64" y1="275.95" x2="39.12" y2="275.46"/><line x1="380.70" y1="286.99" x2="382.45" y2="287.29"/><line x1="143.96" y1="270.52" x2="145.15" y2="270.09"/><line x1="415.47" y1="289.61" x2="415.75" y2="289.82"/><line x1="339.82" y1="234.62" x2="339.89" y2="230.23"/><line x1="349.74" y1="238.08" x2="350.71" y2="238.19"/><line x1="344.91" y1="256.21" x2="342.26" y2="292.52"/><line x1="454.62" y1="211.56" x2="453.91" y2="211.52"/><line x1="344.91" y1="256.21" x2="348.81" y2="292.97"/><line x1="388.34" y1="229.84" x2="388.72" y2="228.89"/><line x1="463.66" y1="222.07" x2="419.55" y2="215.37"/><line x1="334.99" y1="234.92" x2="335.78" y2="234.79"/><line x1="327.26" y1="232.30" x2="328.33" y2="235.85"/><line x1="399.65" y1="235.50" x2="399.98" y2="235.22"/><line x1="212.74" y1="258.25" x2="213.97" y2="280.11"/><line x1="359.71" y1="232.64" x2="362.27" y2="237.88"/><line x1="304.11" y1="249.40" x2="305.73" y2="250.03"/><line x1="350.71" y1="238.19" x2="352.39" y2="230.33"/><line x1="330.32" y1="288.04" x2="332.44" y2="288.40"/><line x1="382.28" y1="235.46" x2="380.69" y2="225.23"/><line x1="366.79" y1="238.26" x2="367.91" y2="238.35"/><line x1="370.74" y1="286.39" x2="372.19" y2="286.18"/><line x1="461.18" y1="218.05" x2="453.20" y2="211.46"/><line x1="343.48" y1="256.51" x2="336.97" y2="289.85"/><line x1="193.54" y1="276.90" x2="141.58" y2="271.29"/><line x1="369.66" y1="292.42" x2="369.95" y2="293.41"/><line x1="109.54" y1="281.88" x2="109.32" y2="269.30"/><line x1="193.54" y1="276.90" x2="152.22" y2="267.40"/><line x1="328.33" y1="235.85" x2="328.31" y2="232.22"/><line x1="345.55" y1="236.85" x2="346.02" y2="237.06"/><line x1="341.75" y1="234.96" x2="342.21" y2="235.10"/><line x1="193.54" y1="276.90" x2="167.25" y2="264.60"/><line x1="458.15" y1="211.50" x2="457.45" y2="211.52"/><line x1="283.54" y1="287.70" x2="280.71" y2="247.40"/><line x1="386.90" y1="232.04" x2="387.75" y2="230.91"/><line x1="193.54" y1="276.90" x2="197.08" y2="261.22"/><line x1="367.91" y1="238.35" x2="366.90" y2="228.22"/><line x1="333.03" y1="258.04" x2="334.55" y2="257.92"/><line x1="58.22" y1="283.45" x2="68.04" y2="283.75"/><line x1="360.50" y1="292.94" x2="368.35" y2="287.47"/><line x1="337.79" y1="230.71" x2="338.82" y2="230.48"/><line x1="152.22" y1="267.40" x2="153.40" y2="267.02"/><line x1="342.21" y1="235.10" x2="343.30" y2="229.46"/><line x1="69.13" y1="272.51" x2="78.44" y2="283.65"/><line x1="354.16" y1="230.98" x2="353.67" y2="238.24"/><line x1="320.52" y1="256.49" x2="315.55" y2="286.21"/><line x1="89.07" y1="283.25" x2="99.55" y2="282.62"/><line x1="389.03" y1="227.06" x2="389.02" y2="226.92"/><line x1="401.69" y1="229.57" x2="401.66" y2="229.16"/><line x1="330.98" y1="235.60" x2="331.24" y2="231.91"/><line x1="345.12" y1="229.13" x2="345.96" y2="229.05"/><line x1="228.39" y1="255.17" x2="227.34" y2="283.78"/><line x1="305.53" y1="286.41" x2="307.87" y2="286.28"/><line x1="353.67" y1="238.24" x2="354.75" y2="231.18"/><line x1="142.77" y1="270.92" x2="143.96" y2="270.52"/><line x1="461.89" y1="220.11" x2="439.68" y2="211.01"/><line x1="344.91" y1="256.21" x2="345.95" y2="293.32"/><line x1="465.22" y1="223.05" x2="409.23" y2="222.91"/><line x1="341.33" y1="292.16" x2="342.26" y2="292.52"/><line x1="344.91" y1="256.21" x2="347.51" y2="255.60"/><line x1="370.72" y1="296.40" x2="370.92" y2="297.39"/><line x1="318.68" y1="235.74" x2="319.67" y2="235.84"/><line x1="120.99" y1="269.50" x2="122.54" y2="269.80"/><line x1="331.24" y1="231.91" x2="331.80" y2="235.48"/><line x1="384.31" y1="224.60" x2="388.34" y2="229.84"/><line x1="461.69" y1="212.14" x2="461.67" y2="212.73"/><line x1="291.23" y1="287.12" x2="291.30" y2="247.07"/><line x1="457.45" y1="211.52" x2="456.74" y2="211.55"/><line x1="372.42" y1="238.31" x2="371.74" y2="226.75"/><line x1="193.54" y1="276.90" x2="146.33" y2="269.64"/><line x1="334.21" y1="235.06" x2="334.99" y2="234.92"/><line x1="163.79" y1="264.94" x2="165.52" y2="264.76"/><line x1="351.69" y1="238.24" x2="352.67" y2="238.26"/><line x1="193.54" y1="276.90" x2="158.62" y2="265.72"/><line x1="343.71" y1="235.80" x2="345.96" y2="229.05"/><line x1="102.78" y1="269.71" x2="109.54" y2="281.88"/><line x1="405.44" y1="286.17" x2="406.51" y2="286.48"/><line x1="193.54" y1="276.90" x2="174.30" y2="264.11"/><line x1="434.14" y1="211.97" x2="432.28" y2="212.31"/><line x1="322.78" y1="286.98" x2="327.01" y2="257.96"/><line x1="418.00" y1="216.02" x2="417.31" y2="216.43"/><line x1="35.88" y1="279.14" x2="34.64" y2="275.95"/><line x1="318.95" y1="234.10" x2="319.67" y2="235.84"/><line x1="390.59" y1="240.31" x2="392.14" y2="239.69"/><line x1="333.99" y1="231.48" x2="334.92" y2="231.31"/><line x1="401.66" y1="229.16" x2="402.02" y2="227.16"/><line x1="347.54" y1="229.03" x2="345.55" y2="236.85"/><line x1="244.06" y1="252.60" x2="240.89" y2="287.51"/><line x1="416.69" y1="291.21" x2="416.92" y2="291.76"/><line x1="356.76" y1="238.06" x2="357.16" y2="231.93"/><line x1="462.98" y1="221.49" x2="430.41" y2="212.67"/><line x1="376.98" y1="225.77" x2="378.81" y2="225.50"/><line x1="401.22" y1="285.42" x2="393.66" y2="239.01"/><line x1="347.70" y1="293.19" x2="347.75" y2="293.17"/><line x1="478.46" y1="241.11" x2="479.10" y2="242.95"/><line x1="130.26" y1="271.62" x2="131.81" y2="271.90"/><line x1="401.83" y1="231.19" x2="401.81" y2="230.79"/><line x1="223.17" y1="256.17" x2="228.39" y2="255.17"/><line x1="270.51" y1="248.56" x2="273.49" y2="289.47"/><line x1="386.83" y1="224.41" x2="389.03" y2="227.06"/><line x1="380.70" y1="286.99" x2="377.98" y2="244.49"/><line x1="415.47" y1="289.61" x2="401.43" y2="233.26"/><line x1="428.54" y1="213.05" x2="463.66" y2="222.07"/><line x1="368.47" y1="227.66" x2="370.08" y2="227.17"/><line x1="301.64" y1="248.60" x2="304.11" y2="249.40"/><line x1="344.91" y1="256.21" x2="341.33" y2="292.16"/><line x1="454.62" y1="211.56" x2="461.18" y2="218.05"/><line x1="471.70" y1="226.38" x2="472.32" y2="227.75"/><line x1="52.36" y1="274.11" x2="60.47" y2="273.32"/><line x1="415.75" y1="289.82" x2="401.58" y2="232.85"/><line x1="322.09" y1="233.00" x2="322.93" y2="232.82"/><line x1="429.27" y1="301.48" x2="428.47" y2="301.35"/><line x1="336.81" y1="230.93" x2="337.79" y2="230.71"/><line x1="176.11" y1="263.97" x2="181.36" y2="263.48"/><line x1="288.43" y1="287.29" x2="291.23" y2="287.12"/><line x1="399.65" y1="235.50" x2="409.67" y2="287.51"/><line x1="467.80" y1="224.05" x2="473.07" y2="229.35"/><line x1="461.43" y1="214.48" x2="461.32" y2="215.06"/><line x1="359.71" y1="232.64" x2="361.15" y2="237.84"/><line x1="373.77" y1="286.14" x2="367.89" y2="248.31"/><line x1="330.32" y1="288.04" x2="333.03" y2="258.04"/><line x1="413.78" y1="219.56" x2="413.20" y2="220.13"/><line x1="193.54" y1="276.90" x2="140.37" y2="271.61"/><line x1="370.08" y1="227.17" x2="372.42" y2="238.31"/><line x1="369.66" y1="292.42" x2="363.79" y2="296.18"/><line x1="461.23" y1="215.65" x2="457.45" y2="211.52"/><line x1="337.37" y1="234.61" x2="338.18" y2="234.57"/><line x1="193.54" y1="276.90" x2="151.04" y2="267.82"/><line x1="462.39" y1="220.83" x2="462.98" y2="221.49"/><line x1="193.54" y1="276.90" x2="165.52" y2="264.76"/><line x1="310.62" y1="252.21" x2="312.25" y2="252.98"/><line x1="418.30" y1="295.78" x2="418.50" y2="296.25"/><line x1="440.85" y1="299.66" x2="438.79" y2="300.29"/><line x1="386.90" y1="232.04" x2="383.39" y2="224.76"/><line x1="398.07" y1="236.62" x2="405.44" y2="286.17"/><line x1="377.17" y1="286.43" x2="378.94" y2="286.69"/><line x1="478.19" y1="262.83" x2="476.88" y2="266.47"/><line x1="202.30" y1="260.28" x2="207.52" y2="259.28"/><line x1="387.18" y1="287.84" x2="388.49" y2="287.80"/><line x1="294.17" y1="286.96" x2="297.15" y2="286.81"/><line x1="418.75" y1="215.67" x2="418.00" y2="216.02"/><line x1="347.85" y1="237.71" x2="348.79" y2="237.93"/><line x1="377.00" y1="237.40" x2="379.89" y2="236.49"/><line x1="360.31" y1="251.34" x2="370.74" y2="286.39"/><line x1="471.28" y1="225.31" x2="471.70" y2="226.38"/><line x1="461.52" y1="219.31" x2="461.89" y2="220.11"/><line x1="89.07" y1="283.25" x2="95.16" y2="270.26"/><line x1="353.34" y1="292.38" x2="354.70" y2="292.28"/><line x1="416.46" y1="290.76" x2="416.69" y2="291.21"/><line x1="325.52" y1="232.45" x2="326.39" y2="232.37"/><line x1="270.51" y1="248.56" x2="257.31" y2="290.11"/><line x1="203.87" y1="277.99" x2="207.26" y2="278.60"/><line x1="280.15" y1="288.21" x2="275.52" y2="247.94"/><line x1="413.33" y1="288.76" x2="413.88" y2="288.94"/><line x1="345.12" y1="229.13" x2="343.71" y2="235.80"/><line x1="477.67" y1="239.14" x2="478.46" y2="241.11"/><line x1="364.53" y1="238.05" x2="365.66" y2="238.16"/><line x1="378.94" y1="286.69" x2="380.70" y2="286.99"/><line x1="339.07" y1="257.33" x2="340.56" y2="257.07"/><line x1="137.35" y1="279.61" x2="193.54" y2="276.90"/><line x1="465.22" y1="223.05" x2="409.99" y2="222.57"/><line x1="370.72" y1="296.40" x2="365.10" y2="298.48"/><line x1="461.13" y1="217.44" x2="454.62" y2="211.56"/><line x1="318.68" y1="235.74" x2="318.95" y2="234.10"/><line x1="340.67" y1="234.73" x2="341.24" y2="234.83"/><line x1="327.94" y1="287.67" x2="330.32" y2="288.04"/><line x1="311.35" y1="286.02" x2="312.25" y2="286.00"/><line x1="126.60" y1="280.41" x2="127.18" y2="270.91"/><line x1="461.69" y1="212.14" x2="461.67" y2="211.54"/><line x1="385.20" y1="224.48" x2="386.05" y2="224.41"/><line x1="408.62" y1="287.15" x2="399.65" y2="235.50"/><line x1="358.57" y1="292.39" x2="359.64" y2="292.60"/><line x1="463.63" y1="284.85" x2="460.78" y2="287.48"/><line x1="399.98" y1="235.22" x2="400.29" y2="234.94"/><line x1="193.54" y1="276.90" x2="145.15" y2="270.09"/><line x1="217.96" y1="257.21" x2="223.17" y2="256.17"/><line x1="334.21" y1="235.06" x2="333.99" y2="231.48"/><line x1="401.04" y1="233.99" x2="401.25" y2="233.64"/><line x1="351.69" y1="238.24" x2="353.57" y2="230.77"/><line x1="193.54" y1="276.90" x2="156.89" y2="266.08"/><line x1="363.26" y1="295.47" x2="369.66" y2="292.42"/><line x1="317.20" y1="255.22" x2="318.85" y2="255.89"/><line x1="414.34" y1="218.99" x2="413.78" y2="219.56"/><line x1="434.14" y1="211.97" x2="462.98" y2="221.49"/><line x1="469.52" y1="224.42" x2="468.67" y2="224.26"/><line x1="118.68" y1="281.11" x2="117.90" y2="269.12"/><line x1="418.12" y1="295.26" x2="418.30" y2="295.78"/><line x1="365.70" y1="300.74" x2="365.68" y2="301.42"/><line x1="329.28" y1="235.78" x2="330.14" y2="235.70"/><line x1="217.31" y1="280.96" x2="220.65" y2="281.87"/><line x1="347.51" y1="255.60" x2="354.70" y2="292.28"/><line x1="408.42" y1="223.23" x2="419.88" y2="297.82"/><line x1="285.84" y1="287.49" x2="288.43" y2="287.29"/><line x1="347.54" y1="229.03" x2="345.14" y2="236.63"/><line x1="458.86" y1="211.48" x2="458.15" y2="211.50"/><line x1="369.04" y1="238.41" x2="370.16" y2="238.43"/><line x1="385.71" y1="287.75" x2="387.18" y2="287.84"/><line x1="338.63" y1="290.84" x2="339.51" y2="291.31"/><line x1="376.98" y1="225.77" x2="382.28" y2="235.46"/><line x1="317.58" y1="234.94" x2="318.25" y2="234.49"/><line x1="443.26" y1="210.40" x2="461.52" y2="219.31"/><line x1="321.27" y1="233.22" x2="322.09" y2="233.00"/><line x1="395.16" y1="238.28" x2="396.63" y2="237.49"/><line x1="270.51" y1="248.56" x2="270.23" y2="289.88"/><line x1="354.69" y1="238.20" x2="355.72" y2="238.13"/><line x1="283.34" y1="247.19" x2="286.00" y2="247.06"/><line x1="387.53" y1="224.49" x2="388.12" y2="224.69"/><line x1="52.36" y1="274.11" x2="58.22" y2="283.45"/><line x1="332.16" y1="231.78" x2="333.08" y2="231.64"/><line x1="233.60" y1="254.23" x2="234.08" y2="285.71"/><line x1="336.81" y1="230.93" x2="337.37" y2="234.61"/><line x1="408.42" y1="223.23" x2="422.90" y2="299.42"/><line x1="257.31" y1="290.11" x2="260.53" y2="290.25"/><line x1="317.75" y1="286.42" x2="320.20" y2="286.68"/><line x1="423.72" y1="299.78" x2="422.90" y2="299.42"/><line x1="389.06" y1="226.10" x2="388.90" y2="225.47"/><line x1="370.41" y1="247.30" x2="372.93" y2="246.32"/><line x1="193.54" y1="276.90" x2="139.16" y2="271.88"/><line x1="362.84" y1="250.35" x2="365.36" y2="249.33"/><line x1="403.63" y1="225.38" x2="402.99" y2="225.90"/><line x1="461.16" y1="216.24" x2="461.12" y2="216.83"/><line x1="310.62" y1="252.21" x2="305.53" y2="286.41"/><line x1="386.90" y1="232.04" x2="382.47" y2="224.93"/><line x1="237.48" y1="286.65" x2="244.06" y2="252.60"/><line x1="356.55" y1="231.74" x2="356.76" y2="238.06"/><line x1="324.66" y1="232.55" x2="325.52" y2="232.45"/><line x1="408.42" y1="223.23" x2="418.30" y2="295.78"/><line x1="202.30" y1="260.28" x2="203.87" y2="277.99"/><line x1="294.17" y1="286.96" x2="299.12" y2="247.99"/><line x1="132.94" y1="279.88" x2="130.26" y2="271.62"/><line x1="377.00" y1="237.40" x2="375.19" y2="226.07"/><line x1="360.31" y1="251.34" x2="369.45" y2="286.81"/><line x1="362.14" y1="294.21" x2="362.71" y2="294.81"/><line x1="89.07" y1="283.25" x2="86.80" y2="270.94"/><line x1="297.15" y1="286.81" x2="301.64" y2="248.60"/><line x1="379.89" y1="236.49" x2="376.98" y2="225.77"/><line x1="270.51" y1="248.56" x2="254.08" y2="289.83"/><line x1="270.51" y1="248.56" x2="272.99" y2="248.25"/><line x1="280.15" y1="288.21" x2="272.99" y2="248.25"/><line x1="328.50" y1="258.08" x2="330.00" y2="258.12"/><line x1="406.74" y1="223.86" x2="401.83" y2="231.19"/><line x1="364.53" y1="238.05" x2="363.89" y2="229.63"/><line x1="174.30" y1="264.11" x2="176.11" y2="263.97"/><line x1="137.35" y1="279.61" x2="137.93" y2="272.08"/><line x1="382.45" y1="287.29" x2="384.12" y2="287.55"/><line x1="328.31" y1="232.22" x2="329.32" y2="232.12"/><line x1="146.33" y1="269.64" x2="147.51" y2="269.18"/><line x1="348.32" y1="229.10" x2="349.12" y2="229.25"/><line x1="401.67" y1="228.36" x2="401.74" y2="227.96"/><line x1="49.36" y1="282.64" x2="52.36" y2="274.11"/><line x1="408.42" y1="223.23" x2="426.90" y2="300.97"/><line x1="380.69" y1="225.23" x2="381.57" y2="225.09"/><line x1="311.35" y1="286.02" x2="317.20" y2="255.22"/><line x1="126.60" y1="280.41" x2="125.63" y2="270.52"/><line x1="408.42" y1="223.23" x2="401.83" y2="231.60"/><line x1="385.20" y1="224.48" x2="388.92" y2="228.08"/><line x1="254.08" y1="289.83" x2="257.31" y2="290.11"/><line x1="359.05" y1="232.46" x2="359.71" y2="232.64"/><line x1="399.98" y1="235.22" x2="411.71" y2="288.22"/><line x1="217.96" y1="257.21" x2="217.31" y2="280.96"/><line x1="351.69" y1="238.24" x2="352.98" y2="230.56"/><line x1="137.93" y1="272.08" x2="193.54" y2="276.90"/><line x1="401.73" y1="229.98" x2="401.69" y2="229.57"/><line x1="469.52" y1="224.42" x2="471.70" y2="226.38"/><line x1="118.68" y1="281.11" x2="114.47" y2="269.10"/><line x1="399.18" y1="285.45" x2="385.87" y2="241.97"/><line x1="408.42" y1="223.23" x2="417.18" y2="292.40"/><line x1="381.57" y1="225.09" x2="386.90" y2="232.04"/><line x1="347.51" y1="255.60" x2="353.34" y2="292.38"/><line x1="408.42" y1="223.23" x2="419.41" y2="297.45"/><line x1="285.84" y1="287.49" x2="283.34" y2="247.19"/><line x1="369.04" y1="238.41" x2="368.47" y2="227.66"/><line x1="200.46" y1="277.49" x2="202.30" y2="260.28"/><line x1="412.69" y1="288.55" x2="413.33" y2="288.76"/><line x1="349.96" y1="229.46" x2="347.85" y2="237.71"/><line x1="317.58" y1="234.94" x2="317.78" y2="235.60"/><line x1="155.15" y1="266.51" x2="156.89" y2="266.08"/><line x1="410.70" y1="222.20" x2="465.22" y2="223.05"/><line x1="78.01" y1="271.70" x2="89.07" y2="283.25"/><line x1="270.51" y1="248.56" x2="266.98" y2="290.14"/><line x1="354.69" y1="238.20" x2="355.94" y2="231.56"/><line x1="370.49" y1="295.40" x2="370.72" y2="296.40"/><line x1="424.87" y1="213.89" x2="423.06" y2="214.35"/><line x1="387.53" y1="224.49" x2="389.06" y2="226.10"/><line x1="460.96" y1="211.49" x2="461.69" y2="212.14"/><line x1="362.46" y1="230.50" x2="364.53" y2="238.05"/><line x1="408.42" y1="223.23" x2="446.90" y2="297.16"/><line x1="332.16" y1="231.78" x2="333.41" y2="235.20"/><line x1="337.57" y1="257.56" x2="339.07" y2="257.33"/><line x1="351.79" y1="230.10" x2="352.39" y2="230.33"/><line x1="233.60" y1="254.23" x2="230.70" y2="284.75"/><line x1="408.42" y1="223.23" x2="430.90" y2="301.60"/><line x1="466.34" y1="282.12" x2="463.63" y2="284.85"/><line x1="145.15" y1="270.09" x2="146.33" y2="269.64"/><line x1="439.68" y1="211.01" x2="437.85" y2="211.32"/><line x1="408.42" y1="223.23" x2="423.72" y2="299.78"/><line x1="387.45" y1="241.44" x2="389.02" y2="240.90"/><line x1="339.89" y1="230.23" x2="340.67" y2="234.73"/><line x1="381.12" y1="243.47" x2="382.69" y2="242.97"/><line x1="352.39" y1="230.33" x2="352.98" y2="230.56"/><line x1="436.00" y1="211.64" x2="434.14" y2="211.97"/><line x1="388.72" y1="228.89" x2="385.20" y2="224.48"/><line x1="355.22" y1="253.24" x2="358.57" y2="292.39"/><line x1="365.38" y1="228.87" x2="366.90" y2="228.22"/><line x1="461.16" y1="216.24" x2="456.04" y2="211.57"/><line x1="213.97" y1="280.11" x2="217.96" y2="257.21"/><line x1="407.58" y1="223.54" x2="406.74" y2="223.86"/><line x1="415.15" y1="289.42" x2="401.04" y2="233.99"/><line x1="400.29" y1="234.94" x2="400.56" y2="234.64"/><line x1="319.70" y1="233.77" x2="320.47" y2="233.47"/><line x1="342.27" y1="229.68" x2="343.30" y2="229.46"/><line x1="399.18" y1="285.45" x2="400.19" y2="285.39"/><line x1="244.25" y1="288.27" x2="247.56" y2="288.91"/><line x1="408.42" y1="223.23" x2="418.12" y2="295.26"/><line x1="470.33" y1="224.52" x2="469.52" y2="224.42"/><line x1="357.78" y1="232.11" x2="358.41" y2="232.28"/><line x1="371.18" y1="299.37" x2="365.70" y2="300.74"/><line x1="343.30" y1="229.46" x2="343.00" y2="235.43"/><line x1="416.67" y1="216.88" x2="416.06" y2="217.37"/><line x1="133.35" y1="272.11" x2="134.88" y2="272.22"/><line x1="461.52" y1="213.90" x2="458.86" y2="211.48"/><line x1="334.92" y1="231.31" x2="335.85" y2="231.13"/><line x1="337.78" y1="290.35" x2="338.63" y2="290.84"/><line x1="417.18" y1="292.40" x2="417.48" y2="293.26"/><line x1="450.76" y1="295.05" x2="448.85" y2="296.15"/><line x1="463.66" y1="222.07" x2="464.41" y2="222.59"/><line x1="402.27" y1="285.52" x2="395.16" y2="238.28"/><line x1="408.42" y1="223.23" x2="456.16" y2="291.38"/><line x1="426.70" y1="213.46" x2="424.87" y2="213.89"/><line x1="408.42" y1="223.23" x2="438.79" y2="300.29"/><line x1="328.31" y1="232.22" x2="329.28" y2="235.78"/><line x1="348.32" y1="229.10" x2="346.93" y2="237.42"/><line x1="408.42" y1="223.23" x2="427.68" y2="301.18"/><line x1="448.85" y1="296.15" x2="446.90" y2="297.16"/><line x1="331.80" y1="235.48" x2="332.61" y2="235.34"/><line x1="453.91" y1="211.52" x2="453.20" y2="211.46"/><line x1="408.42" y1="223.23" x2="420.46" y2="298.20"/><line x1="362.84" y1="250.35" x2="372.19" y2="286.18"/><line x1="404.33" y1="224.94" x2="401.73" y2="229.98"/><line x1="60.47" y1="273.32" x2="69.13" y2="272.51"/><line x1="416.01" y1="290.07" x2="401.71" y2="232.41"/><line x1="369.95" y1="293.41" x2="370.23" y2="294.41"/><line x1="322.93" y1="232.82" x2="323.79" y2="232.67"/><line x1="322.19" y1="257.02" x2="317.75" y2="286.42"/><line x1="399.98" y1="235.22" x2="410.70" y2="287.87"/><line x1="466.93" y1="223.77" x2="473.94" y2="231.14"/><line x1="375.44" y1="286.23" x2="370.41" y2="247.30"/><line x1="325.15" y1="235.99" x2="324.66" y2="232.55"/><line x1="334.55" y1="257.92" x2="336.06" y2="257.76"/><line x1="401.73" y1="229.98" x2="403.63" y2="225.38"/><line x1="368.56" y1="288.45" x2="368.82" y2="289.44"/><line x1="293.93" y1="247.23" x2="296.55" y2="247.54"/><line x1="456.74" y1="211.55" x2="461.16" y2="216.24"/><line x1="399.18" y1="285.45" x2="384.28" y2="242.47"/><line x1="343.19" y1="292.83" x2="344.12" y2="293.07"/><line x1="408.42" y1="223.23" x2="416.92" y2="291.76"/><line x1="368.82" y1="289.44" x2="369.08" y2="290.43"/><line x1="319.67" y1="235.84" x2="320.70" y2="235.92"/><line x1="473.94" y1="231.14" x2="474.88" y2="233.06"/><line x1="408.42" y1="223.23" x2="419.04" y2="297.07"/><line x1="436.72" y1="300.82" x2="434.66" y2="301.23"/><line x1="383.39" y1="224.76" x2="384.31" y2="224.60"/><line x1="406.51" y1="286.48" x2="398.51" y2="236.33"/><line x1="132.94" y1="279.88" x2="137.35" y2="279.61"/><line x1="350.09" y1="254.90" x2="352.66" y2="254.10"/><line x1="375.45" y1="245.38" x2="377.98" y2="244.49"/><line x1="325.39" y1="287.32" x2="327.94" y2="287.67"/><line x1="417.31" y1="216.43" x2="416.67" y2="216.88"/><line x1="414.37" y1="289.10" x2="414.78" y2="289.26"/><line x1="348.79" y1="237.93" x2="349.74" y2="238.08"/><line x1="307.87" y1="286.28" x2="309.83" y2="286.15"/><line x1="368.35" y1="287.47" x2="368.56" y2="288.45"/><line x1="377.98" y1="244.49" x2="379.54" y2="243.97"/><line x1="463.66" y1="222.07" x2="413.78" y2="219.56"/><line x1="408.42" y1="223.23" x2="479.81" y2="246.08"/><line x1="434.66" y1="301.23" x2="432.59" y2="301.52"/><line x1="402.02" y1="227.16" x2="401.65" y2="228.76"/><line x1="95.16" y1="270.26" x2="102.78" y2="269.71"/><line x1="408.42" y1="223.23" x2="468.89" y2="279.28"/><line x1="370.92" y1="297.39" x2="371.07" y2="298.38"/><line x1="408.42" y1="223.23" x2="448.85" y2="296.15"/><line x1="479.10" y1="242.95" x2="479.56" y2="244.63"/><line x1="408.42" y1="223.23" x2="431.73" y2="301.59"/><line x1="461.67" y1="212.73" x2="461.61" y2="213.31"/><line x1="361.02" y1="293.26" x2="361.57" y2="293.69"/><line x1="408.42" y1="223.23" x2="424.52" y2="300.12"/><line x1="409.67" y1="287.51" x2="410.70" y2="287.87"/><line x1="401.65" y1="228.76" x2="401.67" y2="228.36"/><line x1="300.09" y1="286.67" x2="307.36" y2="250.72"/><line x1="381.12" y1="243.47" x2="399.18" y2="285.45"/><line x1="352.39" y1="230.33" x2="351.69" y2="238.24"/><line x1="400.19" y1="285.39" x2="401.22" y2="285.42"/><line x1="167.25" y1="264.60" x2="169.00" y2="264.47"/><line x1="281.62" y1="287.94" x2="283.54" y2="287.70"/><line x1="363.79" y1="296.18" x2="364.28" y2="296.93"/><line x1="109.32" y1="269.30" x2="118.68" y2="281.11"/><line x1="479.56" y1="244.63" x2="479.81" y2="246.08"/><line x1="359.64" y1="292.60" x2="360.50" y2="292.94"/><line x1="372.19" y1="286.18" x2="365.36" y2="249.33"/><line x1="332.44" y1="288.40" x2="334.19" y2="288.74"/><line x1="400.29" y1="234.94" x2="414.37" y2="289.10"/><line x1="366.90" y1="228.22" x2="369.04" y2="238.41"/><line x1="244.25" y1="288.27" x2="270.51" y2="248.56"/><line x1="318.85" y1="255.89" x2="320.52" y2="256.49"/><line x1="427.68" y1="301.18" x2="426.90" y2="300.97"/><line x1="153.40" y1="267.02" x2="155.15" y2="266.51"/><line x1="343.30" y1="229.46" x2="342.62" y2="235.26"/><line x1="133.35" y1="272.11" x2="137.35" y2="279.61"/><line x1="315.55" y1="286.21" x2="322.19" y2="257.02"/><line x1="354.70" y1="292.28" x2="356.06" y2="292.24"/><line x1="412.61" y1="220.69" x2="411.98" y2="221.24"/><line x1="389.02" y1="226.92" x2="387.53" y2="224.49"/><line x1="463.66" y1="222.07" x2="416.67" y2="216.88"/><line x1="367.89" y1="248.31" x2="375.44" y2="286.23"/><line x1="408.42" y1="223.23" x2="476.78" y2="237.12"/><line x1="463.66" y1="222.07" x2="411.32" y2="221.78"/><line x1="227.34" y1="283.78" x2="233.60" y2="254.23"/><line x1="408.42" y1="223.23" x2="478.19" y2="262.83"/><line x1="312.25" y1="252.98" x2="313.90" y2="253.75"/><line x1="354.75" y1="231.18" x2="354.69" y2="238.20"/><line x1="408.42" y1="223.23" x2="457.83" y2="290.03"/><line x1="396.63" y1="237.49" x2="398.07" y2="236.62"/><line x1="186.61" y1="262.85" x2="191.85" y2="262.09"/><line x1="342.26" y1="292.52" x2="343.19" y2="292.83"/><line x1="365.10" y1="298.48" x2="365.40" y2="299.25"/><line x1="408.42" y1="223.23" x2="440.85" y2="299.66"/><line x1="122.54" y1="269.80" x2="124.08" y2="270.15"/><line x1="207.52" y1="259.28" x2="210.62" y2="279.31"/><line x1="408.42" y1="223.23" x2="428.47" y2="301.35"/><line x1="331.80" y1="235.48" x2="332.16" y2="231.78"/><line x1="60.47" y1="273.32" x2="68.04" y2="283.75"/><line x1="291.30" y1="247.07" x2="293.93" y2="247.23"/><line x1="336.19" y1="289.35" x2="342.03" y2="256.80"/><line x1="371.74" y1="226.75" x2="373.55" y2="238.15"/><line x1="165.52" y1="264.76" x2="167.25" y2="264.60"/><line x1="275.52" y1="247.94" x2="278.09" y2="247.65"/><line x1="345.96" y1="229.05" x2="344.05" y2="236.00"/><line x1="293.93" y1="247.23" x2="294.17" y2="286.96"/><line x1="140.37" y1="271.61" x2="141.58" y2="271.29"/><line x1="327.01" y1="257.96" x2="325.39" y2="287.32"/><line x1="357.77" y1="252.31" x2="360.31" y2="251.34"/><line x1="34.64" y1="275.95" x2="32.00" y2="276.26"/><line x1="368.82" y1="289.44" x2="362.14" y2="294.21"/><line x1="319.67" y1="235.84" x2="319.70" y2="233.77"/><line x1="383.39" y1="224.76" x2="387.75" y2="230.91"/><line x1="240.89" y1="287.51" x2="244.25" y2="288.27"/><line x1="416.92" y1="291.76" x2="417.18" y2="292.40"/><line x1="357.16" y1="231.93" x2="357.78" y2="232.11"/><line x1="326.39" y1="232.37" x2="327.26" y2="232.30"/><line x1="325.39" y1="287.32" x2="328.50" y2="258.08"/><line x1="347.75" y1="293.17" x2="348.14" y2="293.09"/><line x1="344.91" y1="256.21" x2="348.14" y2="293.09"/><line x1="408.42" y1="223.23" x2="466.06" y2="223.44"/><line x1="463.66" y1="222.07" x2="421.29" y2="214.84"/><line x1="131.81" y1="271.90" x2="133.35" y2="272.11"/><line x1="405.91" y1="224.19" x2="405.10" y2="224.54"/><line x1="365.66" y1="238.16" x2="366.79" y2="238.26"/><line x1="334.99" y1="234.92" x2="334.92" y2="231.31"/><line x1="377.98" y1="244.49" x2="382.45" y2="287.29"/><line x1="463.66" y1="222.07" x2="414.34" y2="218.99"/><line x1="408.42" y1="223.23" x2="479.56" y2="244.63"/><line x1="321.79" y1="235.97" x2="322.91" y2="236.00"/><line x1="95.16" y1="270.26" x2="99.55" y2="282.62"/><line x1="304.11" y1="249.40" x2="300.09" y2="286.67"/><line x1="408.42" y1="223.23" x2="471.25" y2="276.31"/><line x1="461.18" y1="218.05" x2="453.91" y2="211.52"/><line x1="382.28" y1="235.46" x2="378.81" y2="225.50"/><line x1="468.67" y1="224.26" x2="467.80" y2="224.05"/><line x1="408.42" y1="223.23" x2="450.76" y2="295.05"/><line x1="341.24" y1="234.83" x2="341.75" y2="234.96"/><line x1="348.14" y1="293.09" x2="348.81" y2="292.97"/><line x1="358.87" y1="237.89" x2="360.01" y2="237.84"/><line x1="322.91" y1="236.00" x2="324.03" y2="236.00"/><line x1="428.47" y1="301.35" x2="427.68" y2="301.18"/><line x1="181.36" y1="263.48" x2="186.61" y2="262.85"/><line x1="386.05" y1="224.41" x2="386.83" y2="224.41"/><line x1="345.55" y1="236.85" x2="348.32" y2="229.10"/><line x1="409.67" y1="287.51" x2="399.98" y2="235.22"/><line x1="458.15" y1="211.50" x2="461.23" y2="215.65"/><line x1="300.09" y1="286.67" x2="305.73" y2="250.03"/><line x1="333.03" y1="258.04" x2="332.44" y2="288.40"/><line x1="193.54" y1="276.90" x2="191.85" y2="262.09"/><line x1="413.20" y1="220.13" x2="412.61" y2="220.69"/><line x1="58.22" y1="283.45" x2="60.47" y2="273.32"/><line x1="302.92" y1="286.54" x2="305.53" y2="286.41"/><line x1="353.57" y1="230.77" x2="354.16" y2="230.98"/><line x1="363.79" y1="296.18" x2="369.95" y2="293.41"/><line x1="337.79" y1="230.71" x2="338.99" y2="234.57"/><line x1="260.53" y1="290.25" x2="263.75" y2="290.27"/><line x1="418.50" y1="296.25" x2="418.74" y2="296.67"/><line x1="330.14" y1="235.70" x2="330.98" y2="235.60"/><line x1="332.44" y1="288.40" x2="334.55" y2="257.92"/><line x1="400.29" y1="234.94" x2="413.88" y2="288.94"/><line x1="476.88" y1="266.47" x2="475.27" y2="269.92"/><line x1="139.16" y1="271.88" x2="140.37" y2="271.61"/><line x1="401.69" y1="229.57" x2="402.45" y2="226.48"/><line x1="388.49" y1="287.80" x2="399.18" y2="285.45"/><line x1="416.24" y1="290.38" x2="416.46" y2="290.76"/><line x1="350.84" y1="229.74" x2="351.79" y2="230.10"/><line x1="263.75" y1="290.27" x2="266.98" y2="290.14"/><line x1="305.53" y1="286.41" x2="312.25" y2="252.98"/><line x1="461.89" y1="220.11" x2="441.49" y2="210.70"/><line x1="344.91" y1="256.21" x2="345.04" y2="293.23"/><line x1="344.24" y1="229.27" x2="345.12" y2="229.13"/><line x1="354.70" y1="292.28" x2="350.09" y2="254.90"/><line x1="344.91" y1="256.21" x2="352.02" y2="292.51"/><line x1="326.26" y1="235.95" x2="327.32" y2="235.91"/><line x1="475.27" y1="269.92" x2="473.38" y2="273.19"/><line x1="463.66" y1="222.07" x2="417.31" y2="216.43"/><line x1="422.90" y1="299.42" x2="422.06" y2="299.03"/><line x1="408.42" y1="223.23" x2="475.84" y2="235.07"/><line x1="388.12" y1="224.69" x2="388.59" y2="225.01"/><line x1="413.88" y1="288.94" x2="414.37" y2="289.10"/><line x1="463.66" y1="222.07" x2="411.98" y2="221.24"/><line x1="408.42" y1="223.23" x2="479.16" y2="258.99"/><line x1="317.78" y1="235.60" x2="318.68" y2="235.74"/><line x1="363.89" y1="229.63" x2="365.38" y2="228.87"/><line x1="312.25" y1="252.98" x2="307.87" y2="286.28"/><line x1="441.49" y1="210.70" x2="439.68" y2="211.01"/><line x1="409.99" y1="222.57" x2="409.23" y2="222.91"/><line x1="355.94" y1="231.56" x2="356.55" y2="231.74"/><line x1="343.48" y1="256.51" x2="344.91" y2="256.21"/><line x1="365.10" y1="298.48" x2="370.92" y2="297.39"/><line x1="422.06" y1="299.03" x2="421.19" y2="298.60"/><line x1="341.14" y1="229.94" x2="342.27" y2="229.68"/><line x1="207.52" y1="259.28" x2="207.26" y2="278.60"/><line x1="401.83" y1="231.60" x2="401.83" y2="231.19"/><line x1="193.54" y1="276.90" x2="172.52" y2="264.23"/><line x1="333.41" y1="235.20" x2="334.21" y2="235.06"/><line x1="388.92" y1="228.08" x2="389.01" y2="227.46"/><line x1="336.19" y1="289.35" x2="340.56" y2="257.07"/><line x1="409.23" y1="222.91" x2="466.06" y2="223.44"/><line x1="460.78" y1="287.48" x2="457.83" y2="290.03"/><line x1="419.88" y1="297.82" x2="420.46" y2="298.20"/><line x1="390.59" y1="240.31" x2="400.19" y2="285.39"/><line x1="333.99" y1="231.48" x2="334.99" y2="234.92"/><line x1="275.52" y1="247.94" x2="281.62" y2="287.94"/><line x1="461.31" y1="218.67" x2="461.52" y2="219.31"/><line x1="312.25" y1="286.00" x2="313.68" y2="286.07"/><line x1="462.98" y1="221.49" x2="432.28" y2="212.31"/><line x1="407.57" y1="286.80" x2="408.62" y2="287.15"/><line x1="346.75" y1="229.01" x2="347.54" y2="229.03"/><line x1="357.77" y1="252.31" x2="359.64" y2="292.60"/><line x1="457.83" y1="290.03" x2="456.16" y2="291.38"/><line x1="329.32" y1="232.12" x2="330.29" y2="232.02"/><line x1="401.83" y1="231.19" x2="405.91" y2="224.19"/><line x1="223.17" y1="256.17" x2="223.99" y2="282.82"/><line x1="41.78" y1="281.24" x2="49.36" y2="282.64"/><line x1="415.47" y1="289.61" x2="401.25" y2="233.64"/><line x1="345.14" y1="236.63" x2="345.55" y2="236.85"/><line x1="362.71" y1="294.81" x2="363.26" y2="295.47"/><line x1="368.47" y1="227.66" x2="371.29" y2="238.40"/><line x1="344.91" y1="256.21" x2="340.41" y2="291.75"/><line x1="432.28" y1="212.31" x2="430.41" y2="212.67"/><line x1="471.70" y1="226.38" x2="468.67" y2="224.26"/><line x1="344.91" y1="256.21" x2="347.75" y2="293.17"/><line x1="408.42" y1="223.23" x2="409.23" y2="222.91"/><line x1="358.41" y1="232.28" x2="359.05" y2="232.46"/><line x1="463.66" y1="222.07" x2="423.06" y2="214.35"/><line x1="322.09" y1="233.00" x2="322.91" y2="236.00"/><line x1="403.32" y1="285.69" x2="404.38" y2="285.91"/><line x1="343.00" y1="235.43" x2="343.37" y2="235.61"/><line x1="405.91" y1="224.19" x2="401.81" y2="230.79"/><line x1="463.66" y1="222.07" x2="414.91" y2="218.43"/><line x1="288.43" y1="287.29" x2="288.65" y2="247.01"/><line x1="408.42" y1="223.23" x2="479.10" y2="242.95"/><line x1="461.43" y1="214.48" x2="458.15" y2="211.50"/><line x1="359.71" y1="232.64" x2="360.01" y2="237.84"/><line x1="384.12" y1="287.55" x2="385.71" y2="287.75"/><line x1="346.93" y1="237.42" x2="347.85" y2="237.71"/><line x1="468.67" y1="224.26" x2="472.32" y2="227.75"/><line x1="446.90" y1="297.16" x2="444.91" y2="298.08"/><line x1="322.91" y1="236.00" x2="322.93" y2="232.82"/><line x1="337.37" y1="234.61" x2="337.79" y2="230.71"/><line x1="193.54" y1="276.90" x2="149.86" y2="268.26"/><line x1="401.79" y1="232.00" x2="408.42" y2="223.23"/><line x1="462.39" y1="220.83" x2="434.14" y2="211.97"/><line x1="323.86" y1="257.45" x2="325.54" y2="257.77"/><line x1="193.54" y1="276.90" x2="163.79" y2="264.94"/><line x1="360.01" y1="237.84" x2="361.15" y2="237.84"/><line x1="458.15" y1="211.50" x2="461.32" y2="215.06"/><line x1="193.54" y1="276.90" x2="186.61" y2="262.85"/><line x1="377.17" y1="286.43" x2="375.45" y2="245.38"/><line x1="444.91" y1="298.08" x2="442.89" y2="298.92"/><line x1="35.88" y1="279.14" x2="41.78" y2="281.24"/><line x1="234.08" y1="285.71" x2="237.48" y2="286.65"/><line x1="337.79" y1="230.71" x2="338.18" y2="234.57"/><line x1="347.85" y1="237.71" x2="350.84" y2="229.74"/><line x1="370.23" y1="294.41" x2="370.49" y2="295.40"/><line x1="456.04" y1="211.57" x2="455.33" y2="211.57"/><line x1="471.28" y1="225.31" x2="469.52" y2="224.42"/><line x1="421.29" y1="214.84" x2="419.55" y2="215.37"/><line x1="382.47" y1="224.93" x2="383.39" y2="224.76"/><line x1="325.52" y1="232.45" x2="326.26" y2="235.95"/><line x1="336.06" y1="257.76" x2="337.57" y2="257.56"/><line x1="398.92" y1="236.05" x2="399.30" y2="235.78"/><line x1="203.87" y1="277.99" x2="207.52" y2="259.28"/><line x1="401.69" y1="229.57" x2="402.99" y2="225.90"/><line x1="416.24" y1="290.38" x2="408.42" y2="223.23"/><line x1="350.84" y1="229.74" x2="348.79" y2="237.93"/><line x1="461.12" y1="216.83" x2="461.13" y2="217.44"/><line x1="339.07" y1="257.33" x2="336.19" y2="289.35"/><line x1="344.91" y1="256.21" x2="344.12" y2="293.07"/><line x1="369.08" y1="290.43" x2="369.37" y2="291.42"/><line x1="86.80" y1="270.94" x2="95.16" y2="270.26"/><line x1="475.84" y1="235.07" x2="476.78" y2="237.12"/><line x1="401.79" y1="232.00" x2="401.83" y2="231.60"/><line x1="344.91" y1="256.21" x2="350.80" y2="292.66"/><line x1="326.26" y1="235.95" x2="326.39" y2="232.37"/><line x1="389.02" y1="240.90" x2="390.59" y2="240.31"/><line x1="340.67" y1="234.73" x2="341.14" y2="229.94"/><line x1="352.66" y1="254.10" x2="355.22" y2="253.24"/><line x1="272.99" y1="248.25" x2="275.52" y2="247.94"/><line x1="327.94" y1="287.67" x2="331.51" y2="258.11"/><line x1="363.89" y1="229.63" x2="365.66" y2="238.16"/><line x1="358.57" y1="292.39" x2="357.77" y2="252.31"/><line x1="309.83" y1="286.15" x2="311.35" y2="286.02"/><line x1="379.54" y1="243.97" x2="381.12" y2="243.47"/><line x1="147.51" y1="269.18" x2="148.69" y2="268.72"/><line x1="343.48" y1="256.51" x2="338.63" y2="290.84"/><line x1="193.54" y1="276.90" x2="143.96" y2="270.52"/><line x1="341.14" y1="229.94" x2="341.24" y2="234.83"/><line x1="401.04" y1="233.99" x2="415.47" y2="289.61"/><line x1="193.54" y1="276.90" x2="155.15" y2="266.51"/><line x1="371.07" y1="298.38" x2="371.18" y2="299.37"/><line x1="317.20" y1="255.22" x2="312.25" y2="286.00"/><line x1="453.20" y1="211.46" x2="452.48" y2="211.36"/><line x1="193.54" y1="276.90" x2="170.75" y2="264.35"/><line x1="388.92" y1="228.08" x2="386.05" y2="224.41"/><line x1="197.08" y1="261.22" x2="202.30" y2="260.28"/><line x1="365.70" y1="300.74" x2="371.22" y2="300.35"/><line x1="329.28" y1="235.78" x2="329.32" y2="232.12"/><line x1="217.31" y1="280.96" x2="223.17" y2="256.17"/><line x1="307.36" y1="250.72" x2="308.99" y2="251.45"/><line x1="352.98" y1="230.56" x2="353.57" y2="230.77"/><line x1="461.31" y1="218.67" x2="443.26" y2="210.40"/><line x1="458.86" y1="211.48" x2="461.43" y2="214.48"/><line x1="312.25" y1="286.00" x2="318.85" y2="255.89"/><line x1="338.63" y1="290.84" x2="344.91" y2="256.21"/><line x1="364.28" y1="296.93" x2="364.73" y2="297.70"/><line x1="114.47" y1="269.10" x2="117.90" y2="269.12"/><line x1="371.22" y1="300.35" x2="365.68" y2="301.42"/><line x1="329.32" y1="232.12" x2="330.14" y2="235.70"/><line x1="411.71" y1="288.22" x2="412.69" y2="288.55"/><line x1="395.16" y1="238.28" x2="403.32" y2="285.69"/><line x1="223.17" y1="256.17" x2="220.65" y2="281.87"/><line x1="283.34" y1="247.19" x2="288.43" y2="287.29"/><line x1="368.47" y1="227.66" x2="370.16" y2="238.43"/><line x1="411.32" y1="221.78" x2="410.70" y2="222.20"/><line x1="344.91" y1="256.21" x2="339.51" y2="291.31"/><line x1="369.45" y1="286.81" x2="370.74" y2="286.39"/><line x1="344.91" y1="256.21" x2="347.70" y2="293.19"/><line x1="156.89" y1="266.08" x2="158.62" y2="265.72"/><line x1="403.32" y1="285.69" x2="396.63" y2="237.49"/><line x1="343.00" y1="235.43" x2="344.24" y2="229.27"/><line x1="401.71" y1="232.41" x2="401.79" y2="232.00"/><line x1="288.43" y1="287.29" x2="286.00" y2="247.06"/><line x1="384.31" y1="224.60" x2="385.20" y2="224.48"/><line x1="317.75" y1="286.42" x2="323.86" y2="257.45"/><line x1="423.06" y1="214.35" x2="421.29" y2="214.84"/><line x1="389.06" y1="226.10" x2="388.12" y2="224.69"/><line x1="291.23" y1="287.12" x2="294.17" y2="286.96"/><line x1="346.93" y1="237.42" x2="349.96" y2="229.46"/><line x1="316.96" y1="235.44" x2="317.78" y2="235.60"/><line x1="370.74" y1="286.39" x2="362.84" y2="250.35"/><line x1="370.41" y1="247.30" x2="377.17" y2="286.43"/><line x1="158.62" y1="265.72" x2="160.34" y2="265.41"/><line x1="403.63" y1="225.38" x2="401.69" y2="229.57"/><line x1="230.70" y1="284.75" x2="234.08" y2="285.71"/><line x1="193.54" y1="276.90" x2="148.69" y2="268.72"/><line x1="355.34" y1="231.37" x2="355.94" y2="231.56"/><line x1="401.79" y1="232.00" x2="416.24" y2="290.38"/><line x1="462.39" y1="220.83" x2="436.00" y2="211.64"/><line x1="323.86" y1="257.45" x2="320.20" y2="286.68"/><line x1="193.54" y1="276.90" x2="162.07" y2="265.15"/><line x1="344.12" y1="293.07" x2="345.04" y2="293.23"/><line x1="193.54" y1="276.90" x2="181.36" y2="263.48"/><line x1="125.63" y1="270.52" x2="127.18" y2="270.91"/><line x1="474.88" y1="233.06" x2="475.84" y2="235.07"/><line x1="361.06" y1="231.51" x2="362.46" y2="230.50"/><line x1="377.17" y1="286.43" x2="372.93" y2="246.32"/><line x1="35.88" y1="279.14" x2="39.12" y2="275.46"/><line x1="398.51" y1="236.33" x2="398.92" y2="236.05"/><line x1="344.40" y1="236.20" x2="344.75" y2="236.42"/><line x1="234.08" y1="285.71" x2="238.83" y2="253.37"/><line x1="414.78" y1="289.26" x2="415.15" y2="289.42"/><line x1="294.17" y1="286.96" x2="296.55" y2="247.54"/><line x1="456.04" y1="211.57" x2="461.12" y2="216.83"/><line x1="377.00" y1="237.40" x2="373.44" y2="226.39"/><line x1="244.06" y1="252.60" x2="270.51" y2="248.56"/><line x1="471.28" y1="225.31" x2="470.33" y2="224.52"/><line x1="39.12" y1="275.46" x2="45.15" y2="274.84"/><line x1="345.04" y1="293.23" x2="345.95" y2="293.32"/><line x1="356.76" y1="238.06" x2="357.80" y2="237.97"/><line x1="362.14" y1="294.21" x2="369.08" y2="290.43"/><line x1="320.70" y1="235.92" x2="321.79" y2="235.97"/><line x1="127.18" y1="270.91" x2="128.72" y2="271.28"/><line x1="432.59" y1="301.52" x2="431.73" y2="301.59"/><line x1="169.00" y1="264.47" x2="170.75" y2="264.35"/><line x1="270.51" y1="248.56" x2="250.83" y2="289.43"/><line x1="398.92" y1="236.05" x2="407.57" y2="286.80"/><line x1="461.61" y1="213.31" x2="461.52" y2="213.90"/><line x1="357.80" y1="237.97" x2="358.87" y2="237.89"/><line x1="270.51" y1="248.56" x2="280.15" y2="288.21"/><line x1="386.83" y1="224.41" x2="387.53" y2="224.49"/><line x1="296.55" y1="247.54" x2="299.12" y2="247.99"/><line x1="328.50" y1="258.08" x2="327.94" y2="287.67"/><line x1="416.06" y1="217.37" x2="415.47" y2="217.89"/><line x1="137.35" y1="279.61" x2="136.41" y2="272.22"/><line x1="369.08" y1="290.43" x2="362.71" y2="294.81"/><line x1="382.45" y1="287.29" x2="379.54" y2="243.97"/><line x1="335.78" y1="234.79" x2="336.58" y2="234.69"/><line x1="170.75" y1="264.35" x2="172.52" y2="264.23"/><line x1="431.73" y1="301.59" x2="430.90" y2="301.60"/><line x1="401.67" y1="228.36" x2="401.85" y2="227.56"/><line x1="417.48" y1="293.26" x2="417.73" y2="294.02"/><line x1="380.69" y1="225.23" x2="385.74" y2="233.20"/><line x1="327.94" y1="287.67" x2="330.00" y2="258.12"/><line x1="126.60" y1="280.41" x2="124.08" y2="270.15"/><line x1="415.47" y1="217.89" x2="414.91" y2="218.43"/><line x1="359.71" y1="232.64" x2="361.06" y2="231.51"/><line x1="479.81" y1="246.08" x2="480.00" y2="250.63"/><line x1="379.54" y1="243.97" x2="384.12" y2="287.55"/><line x1="401.85" y1="227.56" x2="401.74" y2="227.96"/><line x1="247.56" y1="288.91" x2="250.83" y2="289.43"/><line x1="193.54" y1="276.90" x2="142.77" y2="270.92"/><line x1="461.23" y1="215.65" x2="461.16" y2="216.24"/><line x1="193.54" y1="276.90" x2="153.40" y2="267.02"/><line x1="453.20" y1="211.46" x2="461.31" y2="218.67"/><line x1="68.04" y1="283.75" x2="78.44" y2="283.65"/><line x1="349.71" y1="292.82" x2="350.80" y2="292.66"/><line x1="480.00" y1="250.63" x2="479.77" y2="254.93"/><line x1="324.03" y1="236.00" x2="325.15" y2="235.99"/><line x1="134.88" y1="272.22" x2="136.41" y2="272.22"/><line x1="398.07" y1="236.62" x2="398.51" y2="236.33"/><line x1="197.08" y1="261.22" x2="200.46" y2="277.49"/><line x1="426.90" y1="300.97" x2="426.11" y2="300.72"/><line x1="410.70" y1="287.87" x2="411.71" y2="288.22"/><line x1="342.62" y1="235.26" x2="343.00" y2="235.43"/><line x1="362.27" y1="237.88" x2="363.41" y2="237.96"/><line x1="307.36" y1="250.72" x2="302.92" y2="286.54"/><line x1="334.19" y1="288.74" x2="335.48" y2="289.06"/><line x1="461.31" y1="218.67" x2="452.48" y2="211.36"/><line x1="361.57" y1="293.69" x2="362.14" y2="294.21"/><line x1="411.98" y1="221.24" x2="411.32" y2="221.78"/><line x1="69.13" y1="272.51" x2="78.01" y2="271.70"/><line x1="354.16" y1="230.98" x2="354.75" y2="231.18"/><line x1="364.28" y1="296.93" x2="370.23" y2="294.41"/><line x1="317.58" y1="234.94" x2="316.96" y2="235.44"/><line x1="426.11" y1="300.72" x2="425.32" y2="300.43"/><line x1="338.99" y1="234.57" x2="339.82" y2="234.62"/><line x1="270.51" y1="248.56" x2="263.75" y2="290.27"/><line x1="419.04" y1="297.07" x2="419.41" y2="297.45"/><line x1="354.69" y1="238.20" x2="355.34" y2="231.37"/><line x1="330.98" y1="235.60" x2="331.80" y2="235.48"/><line x1="387.75" y1="230.91" x2="388.34" y2="229.84"/><line x1="356.06" y1="292.24" x2="357.37" y2="292.27"/><line x1="411.32" y1="221.78" x2="464.41" y2="222.59"/><line x1="473.38" y1="273.19" x2="471.25" y2="276.31"/><line x1="124.08" y1="270.15" x2="125.63" y2="270.52"/><line x1="382.69" y1="242.97" x2="384.28" y2="242.47"/><line x1="465.22" y1="223.05" x2="466.06" y2="223.44"/><line x1="332.16" y1="231.78" x2="332.61" y2="235.34"/><line x1="400.56" y1="234.64" x2="400.82" y2="234.32"/><line x1="351.79" y1="230.10" x2="350.71" y2="238.19"/><line x1="313.90" y1="253.75" x2="315.54" y2="254.50"/><line x1="419.41" y1="297.45" x2="419.88" y2="297.82"/><line x1="439.68" y1="211.01" x2="462.39" y2="220.83"/><line x1="384.31" y1="224.60" x2="388.72" y2="228.89"/><line x1="373.55" y1="238.15" x2="377.00" y2="237.40"/><line x1="99.55" y1="282.62" x2="109.54" y2="281.88"/><line x1="126.60" y1="280.41" x2="132.94" y2="279.88"/><line x1="365.40" y1="299.25" x2="365.60" y2="300.01"/><line x1="327.32" y1="235.91" x2="328.33" y2="235.85"/><line x1="466.06" y1="223.44" x2="473.94" y2="231.14"/><line x1="471.25" y1="276.31" x2="468.89" y2="279.28"/><line x1="210.62" y1="279.31" x2="213.97" y2="280.11"/><line x1="421.19" y1="298.60" x2="420.46" y2="298.20"/><line x1="332.61" y1="235.34" x2="333.41" y2="235.20"/><line x1="344.05" y1="236.00" x2="344.40" y2="236.20"/><line x1="460.26" y1="211.47" x2="459.56" y2="211.46"/><line x1="365.38" y1="228.87" x2="367.91" y2="238.35"/><line x1="193.54" y1="276.90" x2="147.51" y2="269.18"/><line x1="462.39" y1="220.83" x2="437.85" y2="211.32"/><line x1="102.78" y1="269.71" x2="109.32" y2="269.30"/><line x1="319.70" y1="233.77" x2="320.70" y2="235.92"/><line x1="392.14" y1="239.69" x2="393.66" y2="239.01"/></g></svg>