<svg xmlns="http://www.w3.org/2000/svg" width="512" height="512"><rect width="512" height="512" fill="#0a0f1a"/><text x="12" y="20" font-family="monospace" font-size="11" fill="#4a7fa5">FRONT (XZ)</text><g stroke="#00d4ff" stroke-width="0.6" opacity="0.85"><line x1="285.05" y1="189.31" x2="287.73" y2="185.96"/><line x1="304.82" y1="332.70" x2="316.04" y2="315.76"/><line x1="239.43" y1="131.69" x2="243.72" y2="130.60"/><line x1="274.66" y1="135.20" x2="278.38" y2="137.61"/><line x1="287.73" y1="146.97" x2="289.91" y2="150.49"/><line x1="262.24" y1="130.60" x2="266.59" y2="201.25"/><line x1="198.40" y1="313.20" x2="197.09" y2="309.45"/><line x1="231.43" y1="197.74" x2="235.33" y2="199.71"/><line x1="252.90" y1="129.73" x2="257.67" y2="129.94"/><line x1="252.90" y1="203.22" x2="257.67" y2="203.00"/><line x1="260.23" y1="309.45" x2="290.50" y2="229.49"/><line x1="260.23" y1="309.45" x2="210.26" y2="327.57"/><line x1="257.67" y1="203.00" x2="257.67" y2="129.94"/><line x1="304.82" y1="332.70" x2="315.86" y2="312.71"/><line x1="204.46" y1="322.69" x2="202.09" y2="319.82"/><line x1="221.07" y1="143.62" x2="212.56" y2="170.68"/><line x1="316.04" y1="315.76" x2="315.99" y2="314.25"/><line x1="224.23" y1="140.46" x2="214.50" y2="178.70"/><line x1="480.00" y1="479.91" x2="447.51" y2="479.91"/><line x1="287.73" y1="185.96" x2="289.91" y2="182.43"/><line x1="315.99" y1="314.25" x2="315.86" y2="312.71"/><line x1="260.23" y1="309.45" x2="230.35" y2="334.12"/><line x1="260.23" y1="309.45" x2="204.46" y2="322.69"/><line x1="281.89" y1="140.46" x2="285.05" y2="189.31"/><line x1="212.56" y1="162.14" x2="218.39" y2="146.97"/><line x1="270.73" y1="133.23" x2="270.73" y2="199.71"/><line x1="304.82" y1="332.70" x2="299.89" y2="333.83"/><line x1="257.67" y1="129.94" x2="262.24" y2="202.34"/><line x1="243.72" y1="202.34" x2="248.21" y2="129.94"/><line x1="224.23" y1="140.46" x2="218.39" y2="185.96"/><line x1="248.21" y1="203.00" x2="252.90" y2="129.73"/><line x1="235.33" y1="133.23" x2="239.43" y2="131.69"/><line x1="270.73" y1="199.71" x2="274.66" y2="197.74"/><line x1="314.45" y1="306.23" x2="294.06" y2="334.21"/><line x1="315.86" y1="312.71" x2="315.64" y2="311.14"/><line x1="314.24" y1="324.79" x2="311.99" y2="328.18"/><line x1="290.50" y1="229.49" x2="235.36" y2="229.49"/><line x1="260.23" y1="309.45" x2="224.55" y2="333.36"/><line x1="227.73" y1="137.61" x2="231.43" y2="197.74"/><line x1="260.23" y1="309.45" x2="200.07" y2="316.66"/><line x1="218.39" y1="146.97" x2="212.32" y2="166.39"/><line x1="270.73" y1="133.23" x2="274.66" y2="135.20"/><line x1="293.56" y1="162.14" x2="292.83" y2="158.07"/><line x1="315.58" y1="320.65" x2="304.82" y2="332.70"/><line x1="294.06" y1="334.21" x2="313.88" y2="304.53"/><line x1="213.29" y1="158.07" x2="216.21" y2="150.49"/><line x1="224.23" y1="140.46" x2="224.23" y2="192.48"/><line x1="214.50" y1="178.70" x2="216.21" y2="182.43"/><line x1="299.89" y1="333.83" x2="315.33" y2="309.53"/><line x1="32.16" y1="32.09" x2="32.16" y2="64.58"/><line x1="289.91" y1="150.49" x2="291.62" y2="154.19"/><line x1="274.66" y1="197.74" x2="274.66" y2="135.20"/><line x1="260.23" y1="309.45" x2="218.99" y2="331.84"/><line x1="216.21" y1="150.49" x2="214.50" y2="154.19"/><line x1="266.59" y1="201.25" x2="266.59" y2="131.69"/><line x1="285.05" y1="189.31" x2="285.05" y2="143.62"/><line x1="239.43" y1="131.69" x2="243.72" y2="202.34"/><line x1="274.66" y1="135.20" x2="278.38" y2="195.33"/><line x1="294.06" y1="334.21" x2="233.35" y2="334.21"/><line x1="313.88" y1="304.53" x2="260.23" y2="309.45"/><line x1="278.38" y1="195.33" x2="278.38" y2="137.61"/><line x1="213.29" y1="158.07" x2="212.56" y2="162.14"/><line x1="231.43" y1="197.74" x2="235.33" y2="133.23"/><line x1="266.59" y1="131.69" x2="270.73" y2="133.23"/><line x1="299.89" y1="333.83" x2="314.45" y2="306.23"/><line x1="252.90" y1="129.73" x2="257.67" y2="203.00"/><line x1="216.21" y1="182.43" x2="218.39" y2="185.96"/><line x1="315.33" y1="309.53" x2="314.93" y2="307.90"/><line x1="260.23" y1="309.45" x2="233.35" y2="334.21"/><line x1="212.56" y1="170.68" x2="224.23" y2="140.46"/><line x1="216.21" y1="150.49" x2="218.39" y2="146.97"/><line x1="266.59" y1="201.25" x2="270.73" y2="199.71"/><line x1="218.39" y1="185.96" x2="221.07" y2="189.31"/><line x1="314.93" y1="307.90" x2="314.45" y2="306.23"/><line x1="304.82" y1="332.70" x2="315.99" y2="314.25"/><line x1="285.05" y1="143.62" x2="287.73" y2="185.96"/><line x1="313.88" y1="304.53" x2="290.50" y2="229.49"/><line x1="480.00" y1="32.02" x2="447.51" y2="32.02"/><line x1="224.23" y1="140.46" x2="213.29" y2="174.79"/><line x1="278.38" y1="195.33" x2="281.89" y2="192.48"/><line x1="287.73" y1="146.97" x2="291.62" y2="178.70"/><line x1="278.38" y1="137.61" x2="281.89" y2="140.46"/><line x1="287.73" y1="185.96" x2="287.73" y2="146.97"/><line x1="224.55" y1="333.36" x2="221.74" y2="332.70"/><line x1="281.89" y1="140.46" x2="281.89" y2="192.48"/><line x1="231.43" y1="135.20" x2="235.33" y2="133.23"/><line x1="221.07" y1="189.31" x2="224.23" y2="192.48"/><line x1="221.74" y1="332.70" x2="218.99" y2="331.84"/><line x1="235.33" y1="199.71" x2="239.43" y2="201.25"/><line x1="224.23" y1="192.48" x2="227.73" y2="137.61"/><line x1="287.73" y1="146.97" x2="293.56" y2="170.68"/><line x1="224.23" y1="140.46" x2="216.21" y2="182.43"/><line x1="213.29" y1="174.79" x2="214.50" y2="178.70"/><line x1="308.86" y1="330.82" x2="315.58" y2="320.65"/><line x1="235.33" y1="133.23" x2="235.33" y2="199.71"/><line x1="212.32" y1="166.39" x2="221.07" y2="143.62"/><line x1="227.73" y1="137.61" x2="227.73" y2="195.33"/><line x1="281.89" y1="140.46" x2="285.05" y2="143.62"/><line x1="248.21" y1="129.94" x2="252.90" y2="129.73"/><line x1="281.89" y1="192.48" x2="285.05" y2="189.31"/><line x1="270.73" y1="133.23" x2="274.66" y2="197.74"/><line x1="293.56" y1="162.14" x2="289.91" y2="150.49"/><line x1="260.23" y1="309.45" x2="197.09" y2="309.45"/><line x1="32.00" y1="479.98" x2="64.49" y2="479.98"/><line x1="262.24" y1="202.34" x2="266.59" y2="201.25"/><line x1="224.23" y1="140.46" x2="221.07" y2="189.31"/><line x1="291.62" y1="178.70" x2="292.83" y2="174.79"/><line x1="287.73" y1="146.97" x2="293.56" y2="162.14"/><line x1="248.21" y1="203.00" x2="252.90" y2="203.22"/><line x1="230.35" y1="334.12" x2="227.42" y2="333.83"/><line x1="314.45" y1="306.23" x2="313.88" y2="304.53"/><line x1="202.09" y1="319.82" x2="200.07" y2="316.66"/><line x1="64.64" y1="32.09" x2="32.16" y2="64.58"/><line x1="227.73" y1="137.61" x2="231.43" y2="135.20"/><line x1="227.73" y1="195.33" x2="231.43" y2="197.74"/><line x1="315.64" y1="311.14" x2="315.33" y2="309.53"/><line x1="213.68" y1="329.57" x2="210.26" y2="327.57"/><line x1="260.23" y1="309.45" x2="213.68" y2="329.57"/><line x1="315.58" y1="320.65" x2="316.04" y2="315.76"/><line x1="227.42" y1="333.83" x2="224.55" y2="333.36"/><line x1="213.29" y1="158.07" x2="214.50" y2="154.19"/><line x1="231.43" y1="197.74" x2="231.43" y2="135.20"/><line x1="262.24" y1="130.60" x2="266.59" y2="131.69"/><line x1="292.83" y1="174.79" x2="293.56" y2="170.68"/><line x1="299.89" y1="333.83" x2="314.93" y2="307.90"/><line x1="260.23" y1="309.45" x2="235.36" y2="229.49"/><line x1="266.59" y1="201.25" x2="270.73" y2="133.23"/><line x1="293.56" y1="170.68" x2="293.80" y2="166.39"/><line x1="210.26" y1="327.57" x2="207.18" y2="325.27"/><line x1="260.23" y1="309.45" x2="207.18" y2="325.27"/><line x1="257.67" y1="203.00" x2="262.24" y2="202.34"/><line x1="480.00" y1="32.02" x2="480.00" y2="64.50"/><line x1="287.73" y1="146.97" x2="289.91" y2="182.43"/><line x1="221.07" y1="143.62" x2="224.23" y2="140.46"/><line x1="243.72" y1="202.34" x2="243.72" y2="130.60"/><line x1="278.38" y1="195.33" x2="281.89" y2="140.46"/><line x1="304.82" y1="332.70" x2="315.64" y2="311.14"/><line x1="233.35" y1="334.21" x2="230.35" y2="334.12"/><line x1="299.89" y1="333.83" x2="294.06" y2="334.21"/><line x1="207.18" y1="325.27" x2="204.46" y2="322.69"/><line x1="480.00" y1="479.91" x2="480.00" y2="447.42"/><line x1="212.56" y1="170.68" x2="213.29" y2="174.79"/><line x1="243.72" y1="130.60" x2="248.21" y2="129.94"/><line x1="218.99" y1="331.84" x2="216.30" y2="330.80"/><line x1="314.24" y1="324.79" x2="308.86" y2="330.82"/><line x1="260.23" y1="309.45" x2="227.42" y2="333.83"/><line x1="293.80" y1="166.39" x2="293.56" y2="162.14"/><line x1="260.23" y1="309.45" x2="202.09" y2="319.82"/><line x1="285.05" y1="143.62" x2="287.73" y2="146.97"/><line x1="212.56" y1="162.14" x2="212.32" y2="166.39"/><line x1="235.33" y1="199.71" x2="239.43" y2="131.69"/><line x1="287.73" y1="146.97" x2="292.83" y2="174.79"/><line x1="257.67" y1="129.94" x2="262.24" y2="130.60"/><line x1="480.00" y1="64.50" x2="447.51" y2="32.02"/><line x1="243.72" y1="202.34" x2="248.21" y2="203.00"/><line x1="289.91" y1="182.43" x2="291.62" y2="178.70"/><line x1="308.86" y1="330.82" x2="311.99" y2="328.18"/><line x1="32.16" y1="32.09" x2="64.64" y2="32.09"/><line x1="447.51" y1="479.91" x2="480.00" y2="447.42"/><line x1="289.91" y1="150.49" x2="292.83" y2="158.07"/><line x1="248.21" y1="129.94" x2="248.21" y2="203.00"/><line x1="314.24" y1="324.79" x2="315.58" y2="320.65"/><line x1="260.23" y1="309.45" x2="221.74" y2="332.70"/><line x1="216.30" y1="330.80" x2="213.68" y2="329.57"/><line x1="260.23" y1="309.45" x2="198.40" y2="313.20"/><line x1="32.00" y1="479.98" x2="32.00" y2="447.50"/><line x1="218.39" y1="146.97" x2="221.07" y2="143.62"/><line x1="239.43" y1="131.69" x2="239.43" y2="201.25"/><line x1="224.23" y1="192.48" x2="227.73" y2="195.33"/><line x1="262.24" y1="202.34" x2="262.24" y2="130.60"/><line x1="287.73" y1="146.97" x2="293.80" y2="166.39"/><line x1="294.06" y1="334.21" x2="260.23" y2="309.45"/><line x1="200.07" y1="316.66" x2="198.40" y2="313.20"/><line x1="308.86" y1="330.82" x2="304.82" y2="332.70"/><line x1="224.23" y1="140.46" x2="227.73" y2="137.61"/><line x1="252.90" y1="129.73" x2="252.90" y2="203.22"/><line x1="212.32" y1="166.39" x2="212.56" y2="170.68"/><line x1="239.43" y1="201.25" x2="243.72" y2="202.34"/><line x1="274.66" y1="197.74" x2="278.38" y2="195.33"/><line x1="292.83" y1="158.07" x2="291.62" y2="154.19"/><line x1="315.64" y1="311.14" x2="299.89" y2="333.83"/><line x1="260.23" y1="309.45" x2="216.30" y2="330.80"/><line x1="216.21" y1="150.49" x2="212.56" y2="162.14"/><line x1="32.00" y1="447.50" x2="64.49" y2="479.98"/></g></svg>