<svg xmlns="http://www.w3.org/2000/svg" width="512" height="512"><rect width="512" height="512" fill="#0a0f1a"/><text x="12" y="20" font-family="monospace" font-size="11" fill="#4a7fa5">FRONT (XZ)</text><g stroke="#00d4ff" stroke-width="0.6" opacity="0.85"><line x1="195.65" y1="334.49" x2="199.38" y2="334.63"/><line x1="232.57" y1="225.96" x2="285.93" y2="238.40"/><line x1="276.11" y1="265.20" x2="221.00" y2="256.03"/><line x1="178.25" y1="329.35" x2="181.56" y2="330.96"/><line x1="232.57" y1="225.96" x2="289.22" y2="224.61"/><line x1="269.51" y1="288.96" x2="214.12" y2="291.02"/><line x1="344.02" y1="299.12" x2="349.80" y2="312.48"/><line x1="332.97" y1="292.93" x2="335.30" y2="293.73"/><line x1="349.75" y1="311.91" x2="349.55" y2="310.13"/><line x1="224.36" y1="309.88" x2="165.72" y2="318.18"/><line x1="269.64" y1="287.20" x2="214.49" y2="279.89"/><line x1="224.36" y1="309.88" x2="192.00" y2="334.04"/><line x1="332.68" y1="332.96" x2="328.04" y2="291.89"/><line x1="349.80" y1="312.48" x2="349.75" y2="311.91"/><line x1="312.30" y1="293.25" x2="317.77" y2="292.08"/><line x1="214.49" y1="279.89" x2="214.05" y2="283.76"/><line x1="342.01" y1="297.42" x2="349.85" y2="313.58"/><line x1="232.57" y1="225.96" x2="286.82" y2="236.37"/><line x1="284.76" y1="240.70" x2="285.37" y2="239.51"/><line x1="199.38" y1="334.63" x2="316.19" y2="334.63"/><line x1="289.31" y1="222.59" x2="230.85" y2="223.25"/><line x1="269.51" y1="288.96" x2="215.83" y2="297.94"/><line x1="344.02" y1="299.12" x2="345.72" y2="300.99"/><line x1="349.75" y1="311.91" x2="349.70" y2="311.33"/><line x1="224.36" y1="309.88" x2="169.52" y2="323.07"/><line x1="480.00" y1="479.91" x2="447.51" y2="479.91"/><line x1="269.64" y1="287.20" x2="213.91" y2="287.33"/><line x1="224.36" y1="309.88" x2="199.38" y2="334.63"/><line x1="316.19" y1="334.63" x2="285.56" y2="304.86"/><line x1="349.55" y1="310.13" x2="349.63" y2="310.74"/><line x1="332.68" y1="332.96" x2="332.97" y2="292.93"/><line x1="276.11" y1="265.20" x2="232.57" y2="225.96"/><line x1="215.83" y1="297.94" x2="217.32" y2="301.16"/><line x1="342.01" y1="297.42" x2="344.02" y2="299.12"/><line x1="289.31" y1="222.59" x2="226.61" y2="200.42"/><line x1="232.57" y1="225.96" x2="287.69" y2="233.81"/><line x1="214.05" y1="283.76" x2="213.91" y2="287.33"/><line x1="217.53" y1="266.48" x2="216.23" y2="271.25"/><line x1="349.63" y1="310.74" x2="349.70" y2="311.33"/><line x1="269.51" y1="288.96" x2="219.24" y2="304.22"/><line x1="224.36" y1="309.88" x2="275.50" y2="306.60"/><line x1="270.04" y1="284.89" x2="215.21" y2="275.72"/><line x1="217.32" y1="301.16" x2="219.24" y2="304.22"/><line x1="224.36" y1="309.88" x2="175.02" y2="327.44"/><line x1="347.13" y1="303.02" x2="348.23" y2="305.22"/><line x1="325.12" y1="334.21" x2="317.77" y2="292.08"/><line x1="316.19" y1="334.63" x2="299.89" y2="297.67"/><line x1="339.69" y1="295.89" x2="347.11" y2="324.16"/><line x1="285.56" y1="304.86" x2="292.97" y2="300.92"/><line x1="328.04" y1="291.89" x2="330.55" y2="292.32"/><line x1="232.57" y1="225.96" x2="284.08" y2="241.95"/><line x1="192.00" y1="334.04" x2="195.65" y2="334.49"/><line x1="317.77" y1="292.08" x2="322.76" y2="291.60"/><line x1="289.31" y1="222.59" x2="226.23" y2="208.65"/><line x1="232.57" y1="225.96" x2="288.53" y2="230.32"/><line x1="163.66" y1="312.78" x2="164.47" y2="315.54"/><line x1="269.51" y1="288.96" x2="224.36" y2="309.88"/><line x1="349.75" y1="311.91" x2="347.13" y2="303.02"/><line x1="226.23" y1="208.65" x2="226.63" y2="211.71"/><line x1="283.32" y1="243.28" x2="293.52" y2="281.32"/><line x1="286.82" y1="236.37" x2="287.16" y2="235.46"/><line x1="224.36" y1="309.88" x2="163.66" y2="312.78"/><line x1="299.89" y1="297.67" x2="306.33" y2="295.11"/><line x1="32.16" y1="32.09" x2="32.16" y2="64.58"/><line x1="277.66" y1="309.50" x2="316.19" y2="334.63"/><line x1="224.36" y1="309.88" x2="181.56" y2="330.96"/><line x1="219.24" y1="304.22" x2="221.59" y2="307.13"/><line x1="325.12" y1="334.21" x2="332.68" y2="332.96"/><line x1="348.23" y1="305.22" x2="349.04" y2="307.59"/><line x1="316.19" y1="334.63" x2="312.30" y2="293.25"/><line x1="230.77" y1="192.00" x2="228.18" y2="195.91"/><line x1="244.81" y1="183.84" x2="289.31" y2="222.59"/><line x1="293.52" y1="281.32" x2="324.34" y2="281.32"/><line x1="214.12" y1="291.02" x2="214.76" y2="294.55"/><line x1="272.17" y1="300.77" x2="273.66" y2="303.69"/><line x1="289.31" y1="222.59" x2="251.56" y2="182.31"/><line x1="232.57" y1="225.96" x2="285.37" y2="239.51"/><line x1="219.12" y1="261.41" x2="217.53" y2="266.48"/><line x1="221.59" y1="307.13" x2="224.36" y2="309.88"/><line x1="338.86" y1="330.86" x2="337.54" y2="294.72"/><line x1="349.83" y1="313.04" x2="349.80" y2="312.48"/><line x1="232.57" y1="225.96" x2="289.07" y2="226.58"/><line x1="322.76" y1="291.60" x2="332.68" y2="332.96"/><line x1="349.04" y1="307.59" x2="349.55" y2="310.13"/><line x1="289.31" y1="222.59" x2="227.28" y2="214.69"/><line x1="224.36" y1="309.88" x2="269.67" y2="291.93"/><line x1="349.75" y1="311.91" x2="349.04" y2="307.59"/><line x1="283.32" y1="243.28" x2="276.11" y2="265.20"/><line x1="214.76" y1="294.55" x2="215.83" y2="297.94"/><line x1="224.36" y1="309.88" x2="164.47" y2="315.54"/><line x1="215.21" y1="275.72" x2="214.49" y2="279.89"/><line x1="287.16" y1="235.46" x2="287.69" y2="233.81"/><line x1="306.33" y1="295.11" x2="312.30" y2="293.25"/><line x1="224.36" y1="309.88" x2="188.44" y2="333.31"/><line x1="332.68" y1="332.96" x2="325.45" y2="291.65"/><line x1="228.18" y1="195.91" x2="226.61" y2="200.42"/><line x1="285.37" y1="239.51" x2="285.93" y2="238.40"/><line x1="287.69" y1="233.81" x2="288.15" y2="232.10"/><line x1="312.30" y1="293.25" x2="325.12" y2="334.21"/><line x1="289.31" y1="222.59" x2="234.41" y2="188.68"/><line x1="232.57" y1="225.96" x2="286.41" y2="237.35"/><line x1="273.66" y1="303.69" x2="275.50" y2="306.60"/><line x1="338.86" y1="330.86" x2="343.67" y2="327.93"/><line x1="289.31" y1="222.59" x2="229.40" y2="220.47"/><line x1="232.57" y1="225.96" x2="221.00" y2="256.03"/><line x1="344.02" y1="299.12" x2="349.75" y2="311.91"/><line x1="226.61" y1="200.42" x2="226.09" y2="205.52"/><line x1="480.00" y1="32.02" x2="447.51" y2="32.02"/><line x1="285.93" y1="238.40" x2="286.41" y2="237.35"/><line x1="224.36" y1="309.88" x2="271.01" y2="297.84"/><line x1="283.32" y1="243.28" x2="284.08" y2="241.95"/><line x1="269.67" y1="291.93" x2="270.17" y2="294.89"/><line x1="224.36" y1="309.88" x2="167.40" y2="320.69"/><line x1="269.64" y1="287.20" x2="214.05" y2="283.76"/><line x1="275.50" y1="306.60" x2="277.66" y2="309.50"/><line x1="224.36" y1="309.88" x2="195.65" y2="334.49"/><line x1="349.85" y1="314.11" x2="349.85" y2="313.58"/><line x1="335.30" y1="293.73" x2="337.54" y2="294.72"/><line x1="239.09" y1="185.96" x2="234.41" y2="188.68"/><line x1="270.72" y1="282.04" x2="270.04" y2="284.89"/><line x1="270.17" y1="294.89" x2="271.01" y2="297.84"/><line x1="221.00" y1="256.03" x2="274.36" y2="270.22"/><line x1="342.01" y1="297.42" x2="349.83" y2="313.04"/><line x1="288.15" y1="232.10" x2="288.53" y2="230.32"/><line x1="232.57" y1="225.96" x2="287.16" y2="235.46"/><line x1="289.31" y1="222.59" x2="228.18" y2="195.91"/><line x1="337.54" y1="294.72" x2="339.69" y2="295.89"/><line x1="272.87" y1="274.71" x2="271.66" y2="278.65"/><line x1="288.53" y1="230.32" x2="288.83" y2="228.48"/><line x1="224.36" y1="309.88" x2="273.66" y2="303.69"/><line x1="286.41" y1="237.35" x2="286.82" y2="236.37"/><line x1="274.36" y1="270.22" x2="272.87" y2="274.71"/><line x1="224.36" y1="309.88" x2="172.05" y2="325.32"/><line x1="330.55" y1="292.32" x2="332.97" y2="292.93"/><line x1="269.64" y1="287.20" x2="269.51" y2="288.96"/><line x1="224.36" y1="309.88" x2="316.19" y2="334.63"/><line x1="234.41" y1="188.68" x2="230.77" y2="192.00"/><line x1="284.08" y1="241.95" x2="284.76" y2="240.70"/><line x1="288.83" y1="228.48" x2="289.07" y2="226.58"/><line x1="339.69" y1="295.89" x2="349.85" y2="314.11"/><line x1="216.23" y1="271.25" x2="215.21" y2="275.72"/><line x1="271.01" y1="297.84" x2="272.17" y2="300.77"/><line x1="221.00" y1="256.03" x2="219.12" y2="261.41"/><line x1="169.52" y1="323.07" x2="172.05" y2="325.32"/><line x1="289.31" y1="222.59" x2="226.09" y2="205.52"/><line x1="226.63" y1="211.71" x2="227.28" y2="214.69"/><line x1="32.00" y1="479.98" x2="64.49" y2="479.98"/><line x1="213.91" y1="287.33" x2="214.12" y2="291.02"/><line x1="224.36" y1="309.88" x2="277.66" y2="309.50"/><line x1="270.04" y1="284.89" x2="269.64" y2="287.20"/><line x1="224.36" y1="309.88" x2="178.25" y2="329.35"/><line x1="332.97" y1="292.93" x2="338.86" y2="330.86"/><line x1="325.12" y1="334.21" x2="322.76" y2="291.60"/><line x1="349.85" y1="313.58" x2="349.83" y2="313.04"/><line x1="232.57" y1="225.96" x2="289.31" y2="222.59"/><line x1="64.64" y1="32.09" x2="32.16" y2="64.58"/><line x1="271.66" y1="278.65" x2="270.72" y2="282.04"/><line x1="289.07" y1="226.58" x2="289.22" y2="224.61"/><line x1="347.11" y1="324.16" x2="349.16" y2="319.56"/><line x1="244.81" y1="183.84" x2="239.09" y2="185.96"/><line x1="338.86" y1="330.86" x2="335.30" y2="293.73"/><line x1="289.31" y1="222.59" x2="226.63" y2="211.71"/><line x1="227.28" y1="214.69" x2="228.21" y2="217.62"/><line x1="283.32" y1="243.28" x2="324.34" y2="281.32"/><line x1="276.11" y1="265.20" x2="274.36" y2="270.22"/><line x1="325.45" y1="291.65" x2="328.04" y2="291.89"/><line x1="269.51" y1="288.96" x2="214.76" y2="294.55"/><line x1="224.36" y1="309.88" x2="163.26" y2="309.88"/><line x1="164.47" y1="315.54" x2="165.72" y2="318.18"/><line x1="277.66" y1="309.50" x2="285.56" y2="304.86"/><line x1="349.75" y1="311.91" x2="349.63" y2="310.74"/><line x1="228.21" y1="217.62" x2="229.40" y2="220.47"/><line x1="229.40" y1="220.47" x2="230.85" y2="223.25"/><line x1="332.68" y1="332.96" x2="330.55" y2="292.32"/><line x1="165.72" y1="318.18" x2="167.40" y2="320.69"/><line x1="226.09" y1="205.52" x2="226.23" y2="208.65"/><line x1="289.31" y1="222.59" x2="239.09" y2="185.96"/><line x1="349.16" y1="319.56" x2="349.85" y2="314.11"/><line x1="338.86" y1="330.86" x2="339.69" y2="295.89"/><line x1="289.31" y1="222.59" x2="228.21" y2="217.62"/><line x1="322.76" y1="291.60" x2="325.45" y2="291.65"/><line x1="480.00" y1="32.02" x2="480.00" y2="64.50"/><line x1="224.36" y1="309.88" x2="270.17" y2="294.89"/><line x1="217.53" y1="266.48" x2="270.72" y2="282.04"/><line x1="283.32" y1="243.28" x2="232.57" y2="225.96"/><line x1="269.51" y1="288.96" x2="217.32" y2="301.16"/><line x1="349.85" y1="314.11" x2="342.01" y2="297.42"/><line x1="480.00" y1="479.91" x2="480.00" y2="447.42"/><line x1="316.19" y1="334.63" x2="292.97" y2="300.92"/><line x1="270.72" y1="282.04" x2="216.23" y2="271.25"/><line x1="339.69" y1="295.89" x2="343.67" y2="327.93"/><line x1="232.57" y1="225.96" x2="230.85" y2="223.25"/><line x1="181.56" y1="330.96" x2="184.95" y2="332.29"/><line x1="332.68" y1="332.96" x2="338.86" y2="330.86"/><line x1="167.40" y1="320.69" x2="169.52" y2="323.07"/><line x1="289.31" y1="222.59" x2="230.77" y2="192.00"/><line x1="272.87" y1="274.71" x2="219.12" y2="261.41"/><line x1="232.57" y1="225.96" x2="288.15" y2="232.10"/><line x1="480.00" y1="64.50" x2="447.51" y2="32.02"/><line x1="224.36" y1="309.88" x2="272.17" y2="300.77"/><line x1="163.66" y1="312.78" x2="163.26" y2="309.88"/><line x1="184.95" y1="332.29" x2="188.44" y2="333.31"/><line x1="269.51" y1="288.96" x2="221.59" y2="307.13"/><line x1="349.75" y1="311.91" x2="345.72" y2="300.99"/><line x1="32.16" y1="32.09" x2="64.64" y2="32.09"/><line x1="447.51" y1="479.91" x2="480.00" y2="447.42"/><line x1="172.05" y1="325.32" x2="175.02" y2="327.44"/><line x1="316.19" y1="334.63" x2="306.33" y2="295.11"/><line x1="339.69" y1="295.89" x2="349.16" y2="319.56"/><line x1="289.22" y1="224.61" x2="289.31" y2="222.59"/><line x1="216.23" y1="271.25" x2="270.04" y2="284.89"/><line x1="343.67" y1="327.93" x2="347.11" y2="324.16"/><line x1="221.00" y1="256.03" x2="272.87" y2="274.71"/><line x1="345.72" y1="300.99" x2="347.13" y2="303.02"/><line x1="32.00" y1="479.98" x2="32.00" y2="447.50"/><line x1="232.57" y1="225.96" x2="284.76" y2="240.70"/><line x1="219.12" y1="261.41" x2="271.66" y2="278.65"/><line x1="213.91" y1="287.33" x2="269.51" y2="288.96"/><line x1="232.57" y1="225.96" x2="288.83" y2="228.48"/><line x1="349.83" y1="313.04" x2="344.02" y2="299.12"/><line x1="269.51" y1="288.96" x2="269.67" y2="291.93"/><line x1="188.44" y1="333.31" x2="192.00" y2="334.04"/><line x1="349.75" y1="311.91" x2="348.23" y2="305.22"/><line x1="215.21" y1="275.72" x2="269.64" y2="287.20"/><line x1="271.66" y1="278.65" x2="217.53" y2="266.48"/><line x1="224.36" y1="309.88" x2="184.95" y2="332.29"/><line x1="175.02" y1="327.44" x2="178.25" y2="329.35"/><line x1="316.19" y1="334.63" x2="325.12" y2="334.21"/><line x1="292.97" y1="300.92" x2="299.89" y2="297.67"/><line x1="339.69" y1="295.89" x2="342.01" y2="297.42"/><line x1="244.81" y1="183.84" x2="251.56" y2="182.31"/><line x1="293.52" y1="281.32" x2="276.11" y2="265.20"/><line x1="32.00" y1="447.50" x2="64.49" y2="479.98"/></g></svg>