<svg xmlns="http://www.w3.org/2000/svg" width="512" height="512"><rect width="512" height="512" fill="#0a0f1a"/><text x="12" y="20" font-family="monospace" font-size="11" fill="#4a7fa5">FRONT (XZ)</text><g stroke="#00d4ff" stroke-width="0.6" opacity="0.85"><line x1="216.63" y1="309.45" x2="243.88" y2="229.49"/><line x1="155.25" y1="313.00" x2="154.18" y2="309.45"/><line x1="358.90" y1="310.29" x2="358.77" y2="308.69"/><line x1="280.92" y1="326.84" x2="276.97" y2="323.59"/><line x1="303.87" y1="309.45" x2="294.87" y2="333.03"/><line x1="342.72" y1="333.02" x2="358.55" y2="307.07"/><line x1="276.97" y1="323.59" x2="273.36" y2="319.76"/><line x1="216.63" y1="309.45" x2="165.35" y2="326.92"/><line x1="350.37" y1="329.46" x2="358.81" y2="314.62"/><line x1="480.00" y1="479.91" x2="447.51" y2="479.91"/><line x1="216.63" y1="309.45" x2="183.84" y2="334.10"/><line x1="357.76" y1="319.62" x2="352.46" y2="327.74"/><line x1="271.52" y1="326.84" x2="269.21" y2="329.49"/><line x1="216.63" y1="309.45" x2="160.37" y2="322.11"/><line x1="272.44" y1="309.45" x2="243.88" y2="229.49"/><line x1="289.88" y1="331.55" x2="285.23" y2="329.49"/><line x1="269.21" y1="329.49" x2="265.99" y2="331.55"/><line x1="339.72" y1="333.68" x2="357.84" y2="303.80"/><line x1="216.63" y1="309.45" x2="178.48" y2="333.24"/><line x1="352.46" y1="327.74" x2="358.41" y2="317.20"/><line x1="272.44" y1="309.45" x2="216.63" y2="309.45"/><line x1="216.63" y1="309.45" x2="156.64" y2="316.29"/><line x1="273.36" y1="319.76" x2="272.44" y2="309.45"/><line x1="356.83" y1="321.88" x2="354.18" y2="325.95"/><line x1="358.95" y1="311.88" x2="358.90" y2="310.29"/><line x1="32.16" y1="32.09" x2="32.16" y2="64.58"/><line x1="265.99" y1="331.55" x2="261.84" y2="333.03"/><line x1="354.18" y1="325.95" x2="355.64" y2="323.99"/><line x1="272.44" y1="309.45" x2="272.90" y2="323.59"/><line x1="216.63" y1="309.45" x2="173.31" y2="331.53"/><line x1="183.84" y1="334.10" x2="181.14" y2="333.78"/><line x1="333.04" y1="334.21" x2="305.90" y2="334.21"/><line x1="261.84" y1="333.03" x2="256.77" y2="333.91"/><line x1="216.63" y1="309.45" x2="154.18" y2="309.45"/><line x1="256.77" y1="333.91" x2="250.78" y2="334.21"/><line x1="356.83" y1="321.88" x2="357.76" y2="319.62"/><line x1="357.84" y1="303.80" x2="357.35" y2="302.15"/><line x1="272.90" y1="323.59" x2="271.52" y2="326.84"/><line x1="358.90" y1="310.29" x2="342.72" y2="333.02"/><line x1="358.81" y1="314.62" x2="348.05" y2="330.91"/><line x1="303.87" y1="309.45" x2="285.23" y2="329.49"/><line x1="354.18" y1="325.95" x2="352.46" y2="327.74"/><line x1="272.44" y1="309.45" x2="269.21" y2="329.49"/><line x1="342.72" y1="333.02" x2="358.77" y2="308.69"/><line x1="216.63" y1="309.45" x2="168.31" y2="328.95"/><line x1="181.14" y1="333.78" x2="178.48" y2="333.24"/><line x1="216.63" y1="309.45" x2="188.53" y2="229.49"/><line x1="480.00" y1="32.02" x2="447.51" y2="32.02"/><line x1="348.05" y1="330.91" x2="345.50" y2="332.10"/><line x1="250.78" y1="334.21" x2="216.63" y2="309.45"/><line x1="178.48" y1="333.24" x2="175.87" y2="332.49"/><line x1="358.81" y1="314.62" x2="358.95" y2="311.88"/><line x1="303.87" y1="309.45" x2="276.97" y2="323.59"/><line x1="216.63" y1="309.45" x2="186.58" y2="334.21"/><line x1="336.50" y1="334.08" x2="357.35" y2="302.15"/><line x1="272.44" y1="309.45" x2="261.84" y2="333.03"/><line x1="216.63" y1="309.45" x2="162.70" y2="324.64"/><line x1="358.77" y1="308.69" x2="358.55" y2="307.07"/><line x1="356.78" y1="300.49" x2="303.87" y2="309.45"/><line x1="358.55" y1="307.07" x2="339.72" y2="333.68"/><line x1="356.78" y1="300.49" x2="330.77" y2="229.49"/><line x1="345.50" y1="332.10" x2="358.95" y2="311.88"/><line x1="357.35" y1="302.15" x2="356.78" y2="300.49"/><line x1="358.41" y1="317.20" x2="350.37" y2="329.46"/><line x1="339.72" y1="333.68" x2="358.23" y2="305.44"/><line x1="303.87" y1="309.45" x2="330.77" y2="229.49"/><line x1="216.63" y1="309.45" x2="181.14" y2="333.78"/><line x1="186.58" y1="334.21" x2="183.84" y2="334.10"/><line x1="336.50" y1="334.08" x2="333.04" y2="334.21"/><line x1="272.44" y1="309.45" x2="250.78" y2="334.21"/><line x1="160.37" y1="322.11" x2="158.35" y2="319.32"/><line x1="216.63" y1="309.45" x2="158.35" y2="319.32"/><line x1="32.00" y1="479.98" x2="64.49" y2="479.98"/><line x1="170.78" y1="330.34" x2="168.31" y2="328.95"/><line x1="345.50" y1="332.10" x2="342.72" y2="333.02"/><line x1="64.64" y1="32.09" x2="32.16" y2="64.58"/><line x1="303.87" y1="309.45" x2="300.22" y2="333.91"/><line x1="339.72" y1="333.68" x2="336.50" y2="334.08"/><line x1="358.23" y1="305.44" x2="357.84" y2="303.80"/><line x1="303.87" y1="309.45" x2="272.44" y2="309.45"/><line x1="216.63" y1="309.45" x2="175.87" y2="332.49"/><line x1="356.83" y1="321.88" x2="355.64" y2="323.99"/><line x1="357.84" y1="303.80" x2="336.50" y2="334.08"/><line x1="168.31" y1="328.95" x2="165.35" y2="326.92"/><line x1="303.87" y1="309.45" x2="289.88" y2="331.55"/><line x1="272.44" y1="309.45" x2="271.52" y2="326.84"/><line x1="165.35" y1="326.92" x2="162.70" y2="324.64"/><line x1="342.72" y1="333.02" x2="339.72" y2="333.68"/><line x1="480.00" y1="32.02" x2="480.00" y2="64.50"/><line x1="175.87" y1="332.49" x2="173.31" y2="331.53"/><line x1="350.37" y1="329.46" x2="348.05" y2="330.91"/><line x1="305.90" y1="334.21" x2="300.22" y2="333.91"/><line x1="480.00" y1="479.91" x2="480.00" y2="447.42"/><line x1="358.81" y1="314.62" x2="345.50" y2="332.10"/><line x1="300.22" y1="333.91" x2="294.87" y2="333.03"/><line x1="303.87" y1="309.45" x2="280.92" y2="326.84"/><line x1="272.44" y1="309.45" x2="265.99" y2="331.55"/><line x1="162.70" y1="324.64" x2="160.37" y2="322.11"/><line x1="357.76" y1="319.62" x2="358.41" y2="317.20"/><line x1="356.78" y1="300.49" x2="333.04" y2="334.21"/><line x1="480.00" y1="64.50" x2="447.51" y2="32.02"/><line x1="173.31" y1="331.53" x2="170.78" y2="330.34"/><line x1="250.78" y1="334.21" x2="186.58" y2="334.21"/><line x1="243.88" y1="229.49" x2="188.53" y2="229.49"/><line x1="32.16" y1="32.09" x2="64.64" y2="32.09"/><line x1="447.51" y1="479.91" x2="480.00" y2="447.42"/><line x1="158.35" y1="319.32" x2="156.64" y2="316.29"/><line x1="303.87" y1="309.45" x2="273.36" y2="319.76"/><line x1="294.87" y1="333.03" x2="289.88" y2="331.55"/><line x1="336.50" y1="334.08" x2="356.78" y2="300.49"/><line x1="272.44" y1="309.45" x2="256.77" y2="333.91"/><line x1="32.00" y1="479.98" x2="32.00" y2="447.50"/><line x1="352.46" y1="327.74" x2="350.37" y2="329.46"/><line x1="333.04" y1="334.21" x2="303.87" y2="309.45"/><line x1="216.63" y1="309.45" x2="155.25" y2="313.00"/><line x1="358.55" y1="307.07" x2="358.23" y2="305.44"/><line x1="330.77" y1="229.49" x2="274.97" y2="229.49"/><line x1="273.36" y1="319.76" x2="272.90" y2="323.59"/><line x1="345.50" y1="332.10" x2="358.90" y2="310.29"/><line x1="285.23" y1="329.49" x2="280.92" y2="326.84"/><line x1="358.41" y1="317.20" x2="358.81" y2="314.62"/><line x1="303.87" y1="309.45" x2="305.90" y2="334.21"/><line x1="156.64" y1="316.29" x2="155.25" y2="313.00"/><line x1="303.87" y1="309.45" x2="274.97" y2="229.49"/><line x1="354.18" y1="325.95" x2="357.76" y2="319.62"/><line x1="32.00" y1="447.50" x2="64.49" y2="479.98"/><line x1="216.63" y1="309.45" x2="170.78" y2="330.34"/></g></svg>