<svg xmlns="http://www.w3.org/2000/svg" width="512" height="512"><rect width="512" height="512" fill="#0a0f1a"/><text x="12" y="20" font-family="monospace" font-size="11" fill="#4a7fa5">FRONT (XZ)</text><g stroke="#00d4ff" stroke-width="0.6" opacity="0.85"><line x1="260.14" y1="229.49" x2="164.61" y2="252.73"/><line x1="480.00" y1="32.02" x2="480.00" y2="64.50"/><line x1="260.14" y1="229.49" x2="173.69" y2="254.15"/><line x1="260.14" y1="229.49" x2="156.04" y2="249.60"/><line x1="318.06" y1="305.26" x2="306.46" y2="334.21"/><line x1="306.46" y1="334.21" x2="241.51" y2="254.24"/><line x1="156.04" y1="249.60" x2="152.28" y2="247.60"/><line x1="318.06" y1="305.26" x2="374.79" y2="229.49"/><line x1="170.60" y1="253.87" x2="167.58" y2="253.39"/><line x1="260.14" y1="229.49" x2="145.99" y2="242.73"/><line x1="167.58" y1="253.39" x2="164.61" y2="252.73"/><line x1="260.14" y1="229.49" x2="139.63" y2="233.24"/><line x1="141.34" y1="236.69" x2="139.63" y2="233.24"/><line x1="32.16" y1="32.09" x2="32.16" y2="64.58"/><line x1="480.00" y1="479.91" x2="480.00" y2="447.42"/><line x1="241.51" y1="254.24" x2="260.14" y2="229.49"/><line x1="152.28" y1="247.60" x2="148.93" y2="245.31"/><line x1="158.84" y1="250.83" x2="156.04" y2="249.60"/><line x1="374.79" y1="229.49" x2="318.82" y2="229.49"/><line x1="32.00" y1="479.98" x2="64.49" y2="479.98"/><line x1="139.63" y1="233.24" x2="138.32" y2="229.49"/><line x1="260.14" y1="229.49" x2="176.83" y2="254.24"/><line x1="480.00" y1="64.50" x2="447.51" y2="32.02"/><line x1="260.14" y1="229.49" x2="167.58" y2="253.39"/><line x1="260.14" y1="229.49" x2="148.93" y2="245.31"/><line x1="260.14" y1="229.49" x2="158.84" y2="250.83"/><line x1="318.06" y1="305.26" x2="368.32" y2="334.21"/><line x1="260.14" y1="229.49" x2="141.34" y2="236.69"/><line x1="318.06" y1="305.26" x2="260.14" y2="229.49"/><line x1="164.61" y1="252.73" x2="161.70" y2="251.88"/><line x1="32.16" y1="32.09" x2="64.64" y2="32.09"/><line x1="480.00" y1="479.91" x2="447.51" y2="479.91"/><line x1="64.64" y1="32.09" x2="32.16" y2="64.58"/><line x1="447.51" y1="479.91" x2="480.00" y2="447.42"/><line x1="176.83" y1="254.24" x2="173.69" y2="254.15"/><line x1="148.93" y1="245.31" x2="145.99" y2="242.73"/><line x1="143.46" y1="239.85" x2="141.34" y2="236.69"/><line x1="32.00" y1="479.98" x2="32.00" y2="447.50"/><line x1="368.32" y1="334.21" x2="306.46" y2="334.21"/><line x1="161.70" y1="251.88" x2="158.84" y2="250.83"/><line x1="260.14" y1="229.49" x2="170.60" y2="253.87"/><line x1="260.14" y1="229.49" x2="161.70" y2="251.88"/><line x1="318.06" y1="305.26" x2="318.82" y2="229.49"/><line x1="480.00" y1="32.02" x2="447.51" y2="32.02"/><line x1="173.69" y1="254.15" x2="170.60" y2="253.87"/><line x1="260.14" y1="229.49" x2="152.28" y2="247.60"/><line x1="318.06" y1="305.26" x2="241.51" y2="254.24"/><line x1="145.99" y1="242.73" x2="143.46" y2="239.85"/><line x1="260.14" y1="229.49" x2="143.46" y2="239.85"/><line x1="260.14" y1="229.49" x2="138.32" y2="229.49"/><line x1="241.51" y1="254.24" x2="176.83" y2="254.24"/><line x1="374.79" y1="229.49" x2="368.32" y2="334.21"/><line x1="32.00" y1="447.50" x2="64.49" y2="479.98"/></g></svg>