<svg xmlns="http://www.w3.org/2000/svg" width="512" height="512"><rect width="512" height="512" fill="#0a0f1a"/><text x="12" y="20" font-family="monospace" font-size="11" fill="#4a7fa5">FRONT (XZ)</text><g stroke="#00d4ff" stroke-width="0.6" opacity="0.85"><line x1="175.11" y1="145.26" x2="183.31" y2="146.99"/><line x1="167.47" y1="145.37" x2="167.46" y2="145.15"/><line x1="138.99" y1="112.05" x2="144.68" y2="182.54"/><line x1="312.81" y1="297.62" x2="317.01" y2="300.92"/><line x1="285.46" y1="309.45" x2="317.01" y2="300.92"/><line x1="394.43" y1="297.27" x2="375.49" y2="299.70"/><line x1="138.99" y1="112.05" x2="167.51" y2="153.62"/><line x1="151.13" y1="111.90" x2="183.31" y2="146.99"/><line x1="285.46" y1="309.45" x2="174.04" y2="332.19"/><line x1="350.58" y1="305.24" x2="355.11" y2="304.36"/><line x1="214.91" y1="229.49" x2="227.57" y2="265.02"/><line x1="138.99" y1="112.05" x2="167.57" y2="146.62"/><line x1="126.84" y1="112.21" x2="131.63" y2="185.86"/><line x1="214.91" y1="229.49" x2="184.10" y2="249.38"/><line x1="117.60" y1="185.20" x2="122.13" y2="185.86"/><line x1="102.27" y1="119.88" x2="105.97" y2="117.53"/><line x1="317.01" y1="300.92" x2="321.44" y2="303.49"/><line x1="387.96" y1="297.66" x2="391.38" y2="297.37"/><line x1="191.54" y1="334.21" x2="419.27" y2="316.12"/><line x1="251.06" y1="291.58" x2="242.01" y2="283.69"/><line x1="94.78" y1="172.07" x2="97.96" y2="175.25"/><line x1="131.63" y1="185.86" x2="136.20" y2="185.20"/><line x1="302.93" y1="285.40" x2="305.13" y2="288.82"/><line x1="95.34" y1="125.86" x2="86.21" y2="153.59"/><line x1="183.31" y1="146.99" x2="190.67" y2="152.14"/><line x1="285.46" y1="309.45" x2="296.20" y2="272.10"/><line x1="138.99" y1="112.05" x2="152.33" y2="178.13"/><line x1="285.46" y1="309.45" x2="326.12" y2="305.33"/><line x1="394.43" y1="297.27" x2="384.18" y2="298.15"/><line x1="138.99" y1="112.05" x2="167.75" y2="149.13"/><line x1="151.13" y1="111.90" x2="280.44" y2="229.49"/><line x1="285.46" y1="309.45" x2="191.54" y2="334.21"/><line x1="214.91" y1="229.49" x2="215.88" y2="254.18"/><line x1="480.00" y1="479.91" x2="447.51" y2="479.91"/><line x1="126.84" y1="112.21" x2="140.54" y2="184.10"/><line x1="214.91" y1="229.49" x2="176.43" y2="244.52"/><line x1="190.67" y1="152.14" x2="280.44" y2="229.49"/><line x1="331.03" y1="306.43" x2="191.54" y2="334.21"/><line x1="375.49" y1="299.70" x2="380.02" y2="298.82"/><line x1="156.38" y1="321.58" x2="161.13" y2="326.13"/><line x1="423.36" y1="324.41" x2="419.27" y2="316.12"/><line x1="191.54" y1="334.21" x2="336.18" y2="306.80"/><line x1="86.22" y1="144.96" x2="92.47" y2="129.28"/><line x1="152.33" y1="178.13" x2="155.84" y2="175.26"/><line x1="98.72" y1="122.65" x2="101.48" y2="178.12"/><line x1="136.20" y1="185.20" x2="140.54" y2="184.10"/><line x1="95.34" y1="125.86" x2="88.17" y2="161.50"/><line x1="291.62" y1="260.70" x2="293.92" y2="266.66"/><line x1="285.46" y1="309.45" x2="300.71" y2="281.48"/><line x1="161.13" y1="326.13" x2="167.01" y2="329.66"/><line x1="138.99" y1="112.05" x2="159.00" y2="172.09"/><line x1="285.46" y1="309.45" x2="152.77" y2="316.02"/><line x1="215.88" y1="254.18" x2="210.10" y2="253.99"/><line x1="394.43" y1="297.27" x2="391.38" y2="297.37"/><line x1="214.91" y1="229.49" x2="272.78" y2="304.46"/><line x1="204.83" y1="253.68" x2="200.07" y2="253.23"/><line x1="122.36" y1="112.42" x2="126.87" y2="186.08"/><line x1="214.91" y1="229.49" x2="204.83" y2="253.68"/><line x1="289.31" y1="254.24" x2="285.46" y2="309.45"/><line x1="155.84" y1="175.26" x2="159.00" y2="172.09"/><line x1="195.08" y1="117.70" x2="254.76" y2="164.12"/><line x1="214.91" y1="229.49" x2="171.26" y2="237.89"/><line x1="280.44" y1="229.49" x2="197.20" y2="160.73"/><line x1="315.73" y1="229.49" x2="289.31" y2="254.24"/><line x1="227.57" y1="265.02" x2="222.17" y2="254.24"/><line x1="280.44" y1="229.49" x2="315.73" y2="229.49"/><line x1="101.48" y1="178.12" x2="105.21" y2="180.56"/><line x1="92.47" y1="129.28" x2="85.96" y2="149.38"/><line x1="172.35" y1="145.11" x2="175.11" y2="145.26"/><line x1="254.76" y1="164.12" x2="213.53" y2="124.95"/><line x1="261.31" y1="298.50" x2="251.06" y2="291.58"/><line x1="95.34" y1="125.86" x2="92.08" y2="168.72"/><line x1="285.46" y1="309.45" x2="305.13" y2="288.82"/><line x1="394.43" y1="297.27" x2="360.02" y2="303.30"/><line x1="167.01" y1="329.66" x2="174.04" y2="332.19"/><line x1="138.99" y1="112.05" x2="163.86" y2="165.21"/><line x1="285.46" y1="309.45" x2="156.38" y2="321.58"/><line x1="87.00" y1="140.74" x2="90.13" y2="132.90"/><line x1="214.91" y1="229.49" x2="251.06" y2="291.58"/><line x1="89.88" y1="165.20" x2="92.08" y2="168.72"/><line x1="32.16" y1="32.09" x2="32.16" y2="64.58"/><line x1="289.31" y1="254.24" x2="291.62" y2="260.70"/><line x1="214.91" y1="229.49" x2="195.83" y2="252.66"/><line x1="159.00" y1="172.09" x2="161.67" y2="168.74"/><line x1="152.77" y1="316.02" x2="150.32" y2="309.45"/><line x1="214.91" y1="229.49" x2="168.59" y2="229.49"/><line x1="342.63" y1="306.41" x2="346.41" y2="305.92"/><line x1="280.44" y1="229.49" x2="263.79" y2="182.98"/><line x1="174.04" y1="332.19" x2="182.22" y2="333.71"/><line x1="90.13" y1="132.90" x2="88.31" y2="136.72"/><line x1="176.43" y1="244.52" x2="173.54" y2="241.43"/><line x1="144.68" y1="182.54" x2="148.61" y2="180.56"/><line x1="167.76" y1="149.41" x2="167.75" y2="149.13"/><line x1="182.22" y1="333.71" x2="191.54" y2="334.21"/><line x1="109.84" y1="115.62" x2="113.85" y2="114.13"/><line x1="161.67" y1="168.74" x2="163.86" y2="165.21"/><line x1="285.46" y1="309.45" x2="291.62" y2="260.70"/><line x1="213.53" y1="124.95" x2="243.37" y2="148.16"/><line x1="285.46" y1="309.45" x2="312.81" y2="297.62"/><line x1="192.10" y1="251.97" x2="188.88" y2="251.15"/><line x1="285.46" y1="309.45" x2="167.01" y2="329.66"/><line x1="163.86" y1="165.21" x2="165.56" y2="161.52"/><line x1="350.58" y1="305.24" x2="394.43" y2="297.27"/><line x1="87.00" y1="140.74" x2="86.22" y2="144.96"/><line x1="105.21" y1="180.56" x2="109.14" y2="182.54"/><line x1="148.61" y1="180.56" x2="152.33" y2="178.13"/><line x1="211.74" y1="207.15" x2="214.91" y2="229.49"/><line x1="126.87" y1="186.08" x2="131.63" y2="185.86"/><line x1="92.08" y1="168.72" x2="94.78" y2="172.07"/><line x1="263.79" y1="182.98" x2="174.29" y2="113.35"/><line x1="214.91" y1="229.49" x2="234.19" y2="274.84"/><line x1="202.88" y1="172.77" x2="207.73" y2="188.24"/><line x1="210.10" y1="253.99" x2="204.83" y2="253.68"/><line x1="214.91" y1="229.49" x2="188.88" y2="251.15"/><line x1="243.37" y1="148.16" x2="229.63" y2="135.11"/><line x1="138.99" y1="112.05" x2="167.50" y2="145.93"/><line x1="242.01" y1="283.69" x2="234.19" y2="274.84"/><line x1="346.41" y1="305.92" x2="350.58" y2="305.24"/><line x1="86.21" y1="153.59" x2="86.94" y2="157.63"/><line x1="90.13" y1="132.90" x2="92.47" y2="129.28"/><line x1="94.78" y1="172.07" x2="98.72" y2="122.65"/><line x1="174.29" y1="113.35" x2="195.08" y2="117.70"/><line x1="167.75" y1="149.13" x2="167.75" y2="148.84"/><line x1="285.46" y1="309.45" x2="293.92" y2="266.66"/><line x1="191.54" y1="334.21" x2="410.22" y2="304.05"/><line x1="285.46" y1="309.45" x2="321.44" y2="303.49"/><line x1="480.00" y1="32.02" x2="447.51" y2="32.02"/><line x1="86.94" y1="157.63" x2="88.17" y2="161.50"/><line x1="285.46" y1="309.45" x2="182.22" y2="333.71"/><line x1="165.56" y1="161.52" x2="166.78" y2="157.66"/><line x1="214.91" y1="229.49" x2="222.17" y2="254.24"/><line x1="263.79" y1="182.98" x2="254.76" y2="164.12"/><line x1="126.84" y1="112.21" x2="136.20" y2="185.20"/><line x1="167.75" y1="148.84" x2="167.73" y2="148.52"/><line x1="138.99" y1="112.05" x2="167.73" y2="148.52"/><line x1="336.18" y1="306.80" x2="339.22" y2="306.69"/><line x1="138.99" y1="112.05" x2="167.47" y2="145.37"/><line x1="184.10" y1="249.38" x2="179.95" y2="247.17"/><line x1="118.03" y1="113.06" x2="122.36" y2="112.42"/><line x1="166.78" y1="157.66" x2="167.51" y2="153.62"/><line x1="105.97" y1="117.53" x2="109.14" y2="182.54"/><line x1="98.72" y1="122.65" x2="97.96" y2="175.25"/><line x1="191.54" y1="334.21" x2="342.63" y2="306.41"/><line x1="285.46" y1="309.45" x2="298.47" y2="277.05"/><line x1="200.07" y1="253.23" x2="195.83" y2="252.66"/><line x1="113.27" y1="184.09" x2="117.60" y2="185.20"/><line x1="285.46" y1="309.45" x2="331.03" y2="306.43"/><line x1="191.54" y1="334.21" x2="399.98" y2="298.03"/><line x1="97.96" y1="175.25" x2="101.48" y2="178.12"/><line x1="88.17" y1="161.50" x2="89.88" y2="165.20"/><line x1="167.45" y1="144.96" x2="172.35" y2="145.11"/><line x1="109.14" y1="182.54" x2="113.27" y2="184.09"/><line x1="289.31" y1="254.24" x2="329.29" y2="254.24"/><line x1="222.17" y1="254.24" x2="215.88" y2="254.18"/><line x1="214.91" y1="229.49" x2="210.10" y2="253.99"/><line x1="126.84" y1="112.21" x2="138.99" y2="112.05"/><line x1="138.99" y1="112.05" x2="167.68" y2="147.81"/><line x1="151.13" y1="111.90" x2="174.29" y2="113.35"/><line x1="331.03" y1="306.43" x2="336.18" y2="306.80"/><line x1="339.22" y1="306.69" x2="342.63" y2="306.41"/><line x1="399.98" y1="298.03" x2="394.43" y2="297.27"/><line x1="85.96" y1="149.38" x2="95.34" y2="125.86"/><line x1="138.99" y1="112.05" x2="167.45" y2="144.96"/><line x1="101.48" y1="178.12" x2="102.27" y2="119.88"/><line x1="122.13" y1="185.86" x2="126.87" y2="186.08"/><line x1="167.51" y1="153.62" x2="167.76" y2="149.41"/><line x1="105.97" y1="117.53" x2="109.84" y2="115.62"/><line x1="167.53" y1="146.26" x2="167.50" y2="145.93"/><line x1="419.27" y1="316.12" x2="414.89" y2="309.33"/><line x1="98.72" y1="122.65" x2="102.27" y2="119.88"/><line x1="32.00" y1="479.98" x2="64.49" y2="479.98"/><line x1="285.46" y1="309.45" x2="302.93" y2="285.40"/><line x1="191.54" y1="334.21" x2="350.58" y2="305.24"/><line x1="195.83" y1="252.66" x2="192.10" y2="251.97"/><line x1="140.54" y1="184.10" x2="144.68" y2="182.54"/><line x1="167.68" y1="147.81" x2="167.64" y2="147.43"/><line x1="95.34" y1="125.86" x2="98.72" y2="122.65"/><line x1="214.91" y1="229.49" x2="261.31" y2="298.50"/><line x1="122.36" y1="112.42" x2="126.84" y2="112.21"/><line x1="394.43" y1="297.27" x2="370.58" y2="300.77"/><line x1="138.99" y1="112.05" x2="166.78" y2="157.66"/><line x1="151.13" y1="111.90" x2="175.11" y2="145.26"/><line x1="195.08" y1="117.70" x2="213.53" y2="124.95"/><line x1="305.13" y1="288.82" x2="308.85" y2="293.59"/><line x1="138.99" y1="112.05" x2="167.60" y2="147.03"/><line x1="173.54" y1="241.43" x2="171.26" y2="237.89"/><line x1="280.44" y1="229.49" x2="202.88" y2="172.77"/><line x1="64.64" y1="32.09" x2="32.16" y2="64.58"/><line x1="117.60" y1="185.20" x2="118.03" y2="113.06"/><line x1="102.27" y1="119.88" x2="105.21" y2="180.56"/><line x1="285.46" y1="309.45" x2="272.78" y2="304.46"/><line x1="296.20" y1="272.10" x2="298.47" y2="277.05"/><line x1="188.88" y1="251.15" x2="184.10" y2="249.38"/><line x1="285.46" y1="309.45" x2="207.73" y2="188.24"/><line x1="414.89" y1="309.33" x2="410.22" y2="304.05"/><line x1="191.54" y1="334.21" x2="427.15" y2="334.21"/><line x1="285.46" y1="309.45" x2="308.85" y2="293.59"/><line x1="87.00" y1="140.74" x2="88.31" y2="136.72"/><line x1="105.21" y1="180.56" x2="105.97" y2="117.53"/><line x1="138.99" y1="112.05" x2="148.61" y2="180.56"/><line x1="167.64" y1="147.43" x2="167.60" y2="147.03"/><line x1="394.43" y1="297.27" x2="380.02" y2="298.82"/><line x1="360.02" y1="303.30" x2="365.30" y2="302.03"/><line x1="138.99" y1="112.05" x2="167.76" y2="149.41"/><line x1="151.13" y1="111.90" x2="190.67" y2="152.14"/><line x1="152.77" y1="316.02" x2="156.38" y2="321.58"/><line x1="410.22" y1="304.05" x2="405.25" y2="300.29"/><line x1="138.99" y1="112.05" x2="167.53" y2="146.26"/><line x1="171.26" y1="237.89" x2="169.62" y2="233.91"/><line x1="214.91" y1="229.49" x2="179.95" y2="247.17"/><line x1="405.25" y1="300.29" x2="399.98" y2="298.03"/><line x1="167.60" y1="147.03" x2="167.57" y2="146.62"/><line x1="423.36" y1="324.41" x2="427.15" y2="334.21"/><line x1="298.47" y1="277.05" x2="300.71" y2="281.48"/><line x1="285.46" y1="309.45" x2="211.74" y2="207.15"/><line x1="213.53" y1="124.95" x2="229.63" y2="135.11"/><line x1="191.54" y1="334.21" x2="414.89" y2="309.33"/><line x1="169.62" y1="233.91" x2="168.59" y2="229.49"/><line x1="480.00" y1="32.02" x2="480.00" y2="64.50"/><line x1="167.73" y1="148.52" x2="167.70" y2="148.18"/><line x1="95.34" y1="125.86" x2="86.94" y2="157.63"/><line x1="113.85" y1="114.13" x2="118.03" y2="113.06"/><line x1="138.99" y1="112.05" x2="155.84" y2="175.26"/><line x1="263.79" y1="182.98" x2="195.08" y2="117.70"/><line x1="300.71" y1="281.48" x2="302.93" y2="285.40"/><line x1="394.43" y1="297.27" x2="387.96" y2="297.66"/><line x1="138.99" y1="112.05" x2="167.75" y2="148.84"/><line x1="365.30" y1="302.03" x2="370.58" y2="300.77"/><line x1="179.95" y1="247.17" x2="176.43" y2="244.52"/><line x1="138.99" y1="112.05" x2="167.48" y2="145.63"/><line x1="480.00" y1="479.91" x2="480.00" y2="447.42"/><line x1="214.91" y1="229.49" x2="173.54" y2="241.43"/><line x1="190.67" y1="152.14" x2="197.20" y2="160.73"/><line x1="118.03" y1="113.06" x2="122.13" y2="185.86"/><line x1="167.46" y1="145.15" x2="167.45" y2="144.96"/><line x1="167.57" y1="146.62" x2="167.53" y2="146.26"/><line x1="191.54" y1="334.21" x2="339.22" y2="306.69"/><line x1="370.58" y1="300.77" x2="375.49" y2="299.70"/><line x1="86.22" y1="144.96" x2="85.96" y2="149.38"/><line x1="113.27" y1="184.09" x2="109.84" y2="115.62"/><line x1="191.54" y1="334.21" x2="405.25" y2="300.29"/><line x1="480.00" y1="64.50" x2="447.51" y2="32.02"/><line x1="95.34" y1="125.86" x2="89.88" y2="165.20"/><line x1="167.70" y1="148.18" x2="167.68" y2="147.81"/><line x1="167.45" y1="144.96" x2="151.13" y2="111.90"/><line x1="394.43" y1="297.27" x2="355.11" y2="304.36"/><line x1="138.99" y1="112.05" x2="161.67" y2="168.74"/><line x1="321.44" y1="303.49" x2="326.12" y2="305.33"/><line x1="285.46" y1="309.45" x2="150.32" y2="309.45"/><line x1="138.99" y1="112.05" x2="167.70" y2="148.18"/><line x1="151.13" y1="111.90" x2="263.79" y2="182.98"/><line x1="207.73" y1="188.24" x2="211.74" y2="207.15"/><line x1="32.16" y1="32.09" x2="64.64" y2="32.09"/><line x1="138.99" y1="112.05" x2="167.46" y2="145.15"/><line x1="214.91" y1="229.49" x2="200.07" y2="253.23"/><line x1="447.51" y1="479.91" x2="480.00" y2="447.42"/><line x1="167.50" y1="145.93" x2="167.48" y2="145.63"/><line x1="214.91" y1="229.49" x2="169.62" y2="233.91"/><line x1="122.13" y1="185.86" x2="122.36" y2="112.42"/><line x1="293.92" y1="266.66" x2="296.20" y2="272.10"/><line x1="105.97" y1="117.53" x2="113.27" y2="184.09"/><line x1="315.73" y1="229.49" x2="329.29" y2="254.24"/><line x1="280.44" y1="229.49" x2="289.31" y2="254.24"/><line x1="326.12" y1="305.33" x2="331.03" y2="306.43"/><line x1="32.00" y1="479.98" x2="32.00" y2="447.50"/><line x1="191.54" y1="334.21" x2="346.41" y2="305.92"/><line x1="191.54" y1="334.21" x2="394.43" y2="297.27"/><line x1="92.47" y1="129.28" x2="95.34" y2="125.86"/><line x1="109.84" y1="115.62" x2="117.60" y2="185.20"/><line x1="234.19" y1="274.84" x2="227.57" y2="265.02"/><line x1="254.76" y1="164.12" x2="243.37" y2="148.16"/><line x1="140.54" y1="184.10" x2="138.99" y2="112.05"/><line x1="308.85" y1="293.59" x2="312.81" y2="297.62"/><line x1="95.34" y1="125.86" x2="94.78" y2="172.07"/><line x1="394.43" y1="297.27" x2="365.30" y2="302.03"/><line x1="138.99" y1="112.05" x2="165.56" y2="161.52"/><line x1="151.13" y1="111.90" x2="172.35" y2="145.11"/><line x1="285.46" y1="309.45" x2="161.13" y2="326.13"/><line x1="355.11" y1="304.36" x2="360.02" y2="303.30"/><line x1="272.78" y1="304.46" x2="261.31" y2="298.50"/><line x1="138.99" y1="112.05" x2="167.64" y2="147.43"/><line x1="214.91" y1="229.49" x2="242.01" y2="283.69"/><line x1="126.87" y1="186.08" x2="126.84" y2="112.21"/><line x1="380.02" y1="298.82" x2="384.18" y2="298.15"/><line x1="214.91" y1="229.49" x2="192.10" y2="251.97"/><line x1="85.96" y1="149.38" x2="86.21" y2="153.59"/><line x1="117.60" y1="185.20" x2="113.85" y2="114.13"/><line x1="138.99" y1="112.05" x2="151.13" y2="111.90"/><line x1="202.88" y1="172.77" x2="285.46" y2="309.45"/><line x1="167.48" y1="145.63" x2="167.47" y2="145.37"/><line x1="285.46" y1="309.45" x2="214.91" y2="229.49"/><line x1="197.20" y1="160.73" x2="202.88" y2="172.77"/><line x1="384.18" y1="298.15" x2="387.96" y2="297.66"/><line x1="280.44" y1="229.49" x2="285.46" y2="309.45"/><line x1="90.13" y1="132.90" x2="86.22" y2="144.96"/><line x1="191.54" y1="334.21" x2="423.36" y2="324.41"/><line x1="32.00" y1="447.50" x2="64.49" y2="479.98"/></g></svg>