<svg xmlns="http://www.w3.org/2000/svg" width="512" height="512"><rect width="512" height="512" fill="#0a0f1a"/><text x="12" y="20" font-family="monospace" font-size="11" fill="#4a7fa5">FRONT (XZ)</text><g stroke="#00d4ff" stroke-width="0.6" opacity="0.85"><line x1="283.80" y1="325.28" x2="291.42" y2="334.29"/><line x1="232.55" y1="212.81" x2="233.33" y2="219.63"/><line x1="261.38" y1="294.20" x2="268.91" y2="305.52"/><line x1="240.43" y1="252.34" x2="206.35" y2="276.91"/><line x1="231.55" y1="172.13" x2="231.14" y2="186.15"/><line x1="192.47" y1="234.70" x2="235.44" y2="233.47"/><line x1="231.49" y1="199.36" x2="231.93" y2="206.05"/><line x1="193.03" y1="168.91" x2="190.77" y2="186.16"/><line x1="235.44" y1="233.47" x2="237.47" y2="242.73"/><line x1="208.84" y1="123.35" x2="234.85" y2="145.52"/><line x1="202.06" y1="137.51" x2="196.79" y2="152.70"/><line x1="480.00" y1="479.91" x2="447.51" y2="479.91"/><line x1="192.47" y1="234.70" x2="197.94" y2="256.31"/><line x1="249.23" y1="332.61" x2="283.80" y2="325.28"/><line x1="241.44" y1="120.85" x2="217.13" y2="110.22"/><line x1="249.07" y1="272.58" x2="217.70" y2="296.49"/><line x1="231.14" y1="186.15" x2="231.23" y2="192.72"/><line x1="237.47" y1="242.73" x2="197.94" y2="256.31"/><line x1="190.82" y1="222.29" x2="191.27" y2="226.52"/><line x1="191.82" y1="230.65" x2="234.30" y2="226.52"/><line x1="217.70" y1="296.49" x2="254.77" y2="283.21"/><line x1="217.13" y1="110.22" x2="237.73" y2="132.95"/><line x1="292.52" y1="364.67" x2="315.00" y2="357.93"/><line x1="226.92" y1="98.12" x2="245.96" y2="109.25"/><line x1="196.79" y1="152.70" x2="231.55" y2="172.13"/><line x1="32.16" y1="32.09" x2="32.16" y2="64.58"/><line x1="217.70" y1="296.49" x2="231.99" y2="315.07"/><line x1="254.77" y1="283.21" x2="261.38" y2="294.20"/><line x1="245.96" y1="109.25" x2="251.32" y2="98.12"/><line x1="206.35" y1="276.91" x2="244.29" y2="262.28"/><line x1="283.80" y1="325.28" x2="269.40" y2="349.16"/><line x1="232.55" y1="212.81" x2="190.82" y2="222.29"/><line x1="261.38" y1="294.20" x2="231.99" y2="315.07"/><line x1="231.99" y1="315.07" x2="268.91" y2="305.52"/><line x1="226.92" y1="98.12" x2="241.44" y2="120.85"/><line x1="190.02" y1="204.43" x2="190.07" y2="209.04"/><line x1="244.29" y1="262.28" x2="249.07" y2="272.58"/><line x1="234.30" y1="226.52" x2="235.44" y2="233.47"/><line x1="231.55" y1="172.13" x2="193.03" y2="168.91"/><line x1="234.85" y1="145.52" x2="202.06" y2="137.51"/><line x1="206.35" y1="276.91" x2="217.70" y2="296.49"/><line x1="193.03" y1="168.91" x2="231.14" y2="186.15"/><line x1="269.40" y1="349.16" x2="291.42" y2="334.29"/><line x1="480.00" y1="32.02" x2="447.51" y2="32.02"/><line x1="202.06" y1="137.51" x2="232.78" y2="158.59"/><line x1="299.16" y1="342.74" x2="307.02" y2="350.63"/><line x1="268.91" y1="305.52" x2="249.23" y2="332.61"/><line x1="192.47" y1="234.70" x2="237.47" y2="242.73"/><line x1="291.42" y1="334.29" x2="299.16" y2="342.74"/><line x1="233.33" y1="219.63" x2="191.82" y2="230.65"/><line x1="249.23" y1="332.61" x2="276.30" y2="315.69"/><line x1="231.93" y1="206.05" x2="190.07" y2="209.04"/><line x1="231.14" y1="186.15" x2="190.77" y2="186.16"/><line x1="269.40" y1="349.16" x2="292.52" y2="364.67"/><line x1="190.22" y1="213.55" x2="190.47" y2="217.97"/><line x1="190.77" y1="186.16" x2="231.23" y2="192.72"/><line x1="232.78" y1="158.59" x2="196.79" y2="152.70"/><line x1="190.07" y1="209.04" x2="190.22" y2="213.55"/><line x1="237.73" y1="132.95" x2="208.84" y2="123.35"/><line x1="231.23" y1="192.72" x2="231.49" y2="199.36"/><line x1="249.23" y1="332.61" x2="269.40" y2="349.16"/><line x1="276.30" y1="315.69" x2="283.80" y2="325.28"/><line x1="231.93" y1="206.05" x2="232.55" y2="212.81"/><line x1="249.07" y1="272.58" x2="254.77" y2="283.21"/><line x1="32.00" y1="479.98" x2="64.49" y2="479.98"/><line x1="190.77" y1="186.16" x2="190.02" y2="204.43"/><line x1="197.94" y1="256.31" x2="206.35" y2="276.91"/><line x1="307.02" y1="350.63" x2="315.00" y2="357.93"/><line x1="191.82" y1="230.65" x2="192.47" y2="234.70"/><line x1="64.64" y1="32.09" x2="32.16" y2="64.58"/><line x1="231.49" y1="199.36" x2="190.02" y2="204.43"/><line x1="226.92" y1="98.12" x2="251.32" y2="98.12"/><line x1="190.02" y1="204.43" x2="231.93" y2="206.05"/><line x1="240.43" y1="252.34" x2="244.29" y2="262.28"/><line x1="315.00" y1="357.93" x2="323.10" y2="364.67"/><line x1="206.35" y1="276.91" x2="249.07" y2="272.58"/><line x1="480.00" y1="32.02" x2="480.00" y2="64.50"/><line x1="299.16" y1="342.74" x2="292.52" y2="364.67"/><line x1="208.84" y1="123.35" x2="202.06" y2="137.51"/><line x1="190.82" y1="222.29" x2="233.33" y2="219.63"/><line x1="226.92" y1="98.12" x2="217.13" y2="110.22"/><line x1="231.99" y1="315.07" x2="249.23" y2="332.61"/><line x1="480.00" y1="479.91" x2="480.00" y2="447.42"/><line x1="234.85" y1="145.52" x2="232.78" y2="158.59"/><line x1="233.33" y1="219.63" x2="191.27" y2="226.52"/><line x1="269.40" y1="349.16" x2="299.16" y2="342.74"/><line x1="241.44" y1="120.85" x2="237.73" y2="132.95"/><line x1="190.22" y1="213.55" x2="232.55" y2="212.81"/><line x1="237.47" y1="242.73" x2="240.43" y2="252.34"/><line x1="480.00" y1="64.50" x2="447.51" y2="32.02"/><line x1="292.52" y1="364.67" x2="307.02" y2="350.63"/><line x1="268.91" y1="305.52" x2="276.30" y2="315.69"/><line x1="32.16" y1="32.09" x2="64.64" y2="32.09"/><line x1="217.70" y1="296.49" x2="261.38" y2="294.20"/><line x1="447.51" y1="479.91" x2="480.00" y2="447.42"/><line x1="233.33" y1="219.63" x2="234.30" y2="226.52"/><line x1="191.27" y1="226.52" x2="191.82" y2="230.65"/><line x1="231.93" y1="206.05" x2="190.22" y2="213.55"/><line x1="32.00" y1="479.98" x2="32.00" y2="447.50"/><line x1="217.13" y1="110.22" x2="208.84" y2="123.35"/><line x1="232.55" y1="212.81" x2="190.47" y2="217.97"/><line x1="190.77" y1="186.16" x2="231.49" y2="199.36"/><line x1="197.94" y1="256.31" x2="240.43" y2="252.34"/><line x1="292.52" y1="364.67" x2="323.10" y2="364.67"/><line x1="232.78" y1="158.59" x2="231.55" y2="172.13"/><line x1="196.79" y1="152.70" x2="193.03" y2="168.91"/><line x1="234.30" y1="226.52" x2="192.47" y2="234.70"/><line x1="237.73" y1="132.95" x2="234.85" y2="145.52"/><line x1="190.47" y1="217.97" x2="190.82" y2="222.29"/><line x1="245.96" y1="109.25" x2="241.44" y2="120.85"/><line x1="32.00" y1="447.50" x2="64.49" y2="479.98"/></g></svg>