<svg xmlns="http://www.w3.org/2000/svg" width="512" height="512"><rect width="512" height="512" fill="#0a0f1a"/><text x="12" y="20" font-family="monospace" font-size="11" fill="#4a7fa5">FRONT (XZ)</text><g stroke="#00d4ff" stroke-width="0.6" opacity="0.85"><line x1="291.84" y1="138.65" x2="292.22" y2="139.85"/><line x1="286.35" y1="158.35" x2="285.13" y2="159.66"/><line x1="290.08" y1="354.48" x2="290.49" y2="354.19"/><line x1="291.45" y1="155.39" x2="290.94" y2="155.94"/><line x1="284.59" y1="331.85" x2="285.50" y2="332.64"/><line x1="233.71" y1="112.43" x2="239.00" y2="91.15"/><line x1="228.86" y1="331.14" x2="228.53" y2="331.45"/><line x1="291.12" y1="353.45" x2="290.84" y2="353.85"/><line x1="291.50" y1="352.40" x2="289.61" y2="354.71"/><line x1="247.87" y1="90.15" x2="238.65" y2="116.72"/><line x1="279.09" y1="124.27" x2="284.67" y2="101.52"/><line x1="228.53" y1="331.45" x2="285.50" y2="332.64"/><line x1="290.65" y1="336.46" x2="291.22" y2="337.91"/><line x1="286.61" y1="333.32" x2="225.50" y2="354.97"/><line x1="291.95" y1="346.00" x2="291.91" y2="347.73"/><line x1="278.98" y1="97.49" x2="275.28" y2="95.78"/><line x1="238.65" y1="116.72" x2="243.07" y2="90.40"/><line x1="283.88" y1="330.93" x2="229.11" y2="330.84"/><line x1="288.94" y1="109.08" x2="288.09" y2="106.36"/><line x1="285.13" y1="159.66" x2="284.18" y2="161.26"/><line x1="285.98" y1="135.93" x2="235.18" y2="135.93"/><line x1="291.22" y1="337.91" x2="291.64" y2="339.66"/><line x1="480.00" y1="479.91" x2="447.51" y2="479.91"/><line x1="292.22" y1="139.85" x2="292.35" y2="141.26"/><line x1="284.18" y1="161.26" x2="283.51" y2="163.16"/><line x1="287.93" y1="333.88" x2="289.00" y2="334.45"/><line x1="226.45" y1="332.60" x2="224.94" y2="333.36"/><line x1="286.61" y1="333.32" x2="221.35" y2="352.59"/><line x1="283.37" y1="329.90" x2="283.88" y2="330.93"/><line x1="221.22" y1="338.62" x2="220.88" y2="340.49"/><line x1="286.61" y1="333.32" x2="288.46" y2="355.01"/><line x1="282.74" y1="122.91" x2="289.22" y2="112.02"/><line x1="230.75" y1="107.64" x2="230.01" y2="105.06"/><line x1="269.35" y1="125.36" x2="271.31" y2="94.28"/><line x1="243.07" y1="90.40" x2="235.94" y2="114.63"/><line x1="249.04" y1="121.95" x2="245.38" y2="120.46"/><line x1="283.06" y1="328.74" x2="229.52" y2="329.65"/><line x1="224.94" y1="333.36" x2="223.66" y2="334.34"/><line x1="291.33" y1="352.99" x2="291.12" y2="353.45"/><line x1="288.46" y1="355.01" x2="291.75" y2="350.52"/><line x1="291.64" y1="339.66" x2="291.88" y2="341.70"/><line x1="289.61" y1="354.71" x2="291.33" y2="352.99"/><line x1="251.73" y1="90.26" x2="241.86" y2="118.69"/><line x1="256.77" y1="124.13" x2="252.83" y2="123.18"/><line x1="230.01" y1="105.06" x2="235.68" y2="92.40"/><line x1="227.64" y1="332.04" x2="286.61" y2="333.32"/><line x1="232.52" y1="136.36" x2="231.53" y2="136.90"/><line x1="283.51" y1="163.16" x2="283.10" y2="165.36"/><line x1="286.61" y1="333.32" x2="220.88" y2="340.49"/><line x1="229.76" y1="141.21" x2="229.76" y2="325.55"/><line x1="291.75" y1="350.52" x2="291.64" y2="351.57"/><line x1="286.61" y1="333.32" x2="221.86" y2="353.71"/><line x1="271.31" y1="94.28" x2="260.83" y2="124.82"/><line x1="289.22" y1="112.02" x2="279.09" y2="124.27"/><line x1="287.83" y1="157.36" x2="286.35" y2="158.35"/><line x1="231.53" y1="136.90" x2="230.75" y2="137.65"/><line x1="235.18" y1="135.93" x2="290.94" y2="155.94"/><line x1="243.07" y1="90.40" x2="239.00" y2="91.15"/><line x1="292.35" y1="141.26" x2="285.98" y2="135.93"/><line x1="283.06" y1="328.74" x2="283.37" y2="329.90"/><line x1="235.18" y1="135.93" x2="282.97" y2="167.86"/><line x1="288.46" y1="355.01" x2="291.22" y2="337.91"/><line x1="223.66" y1="334.34" x2="222.62" y2="335.54"/><line x1="291.96" y1="344.04" x2="291.95" y2="346.00"/><line x1="285.50" y1="332.64" x2="227.64" y2="332.04"/><line x1="221.17" y1="351.64" x2="221.35" y2="352.59"/><line x1="288.82" y1="115.56" x2="285.57" y2="121.00"/><line x1="288.46" y1="355.01" x2="291.50" y2="352.40"/><line x1="274.62" y1="125.09" x2="282.11" y2="99.40"/><line x1="282.97" y1="167.86" x2="282.97" y2="327.48"/><line x1="32.16" y1="32.09" x2="32.16" y2="64.58"/><line x1="235.68" y1="92.40" x2="229.76" y2="102.37"/><line x1="282.97" y1="327.48" x2="229.76" y2="325.55"/><line x1="229.11" y1="330.84" x2="228.86" y2="331.14"/><line x1="286.61" y1="333.32" x2="227.08" y2="332.32"/><line x1="220.78" y1="344.99" x2="220.83" y2="347.08"/><line x1="286.61" y1="333.32" x2="220.78" y2="344.99"/><line x1="222.62" y1="335.54" x2="221.81" y2="336.97"/><line x1="286.61" y1="333.32" x2="222.89" y2="354.43"/><line x1="285.57" y1="121.00" x2="287.60" y2="118.55"/><line x1="239.00" y1="91.15" x2="231.98" y2="110.09"/><line x1="229.41" y1="330.14" x2="229.28" y2="330.52"/><line x1="291.84" y1="138.65" x2="291.19" y2="137.67"/><line x1="290.28" y1="136.90" x2="289.11" y2="136.36"/><line x1="221.81" y1="336.97" x2="221.22" y2="338.62"/><line x1="252.83" y1="123.18" x2="249.04" y2="121.95"/><line x1="229.76" y1="102.37" x2="230.13" y2="99.13"/><line x1="235.18" y1="135.93" x2="289.59" y2="156.66"/><line x1="284.59" y1="331.85" x2="228.53" y2="331.45"/><line x1="230.75" y1="137.65" x2="230.20" y2="138.62"/><line x1="227.08" y1="332.32" x2="226.45" y2="332.60"/><line x1="288.46" y1="355.01" x2="291.88" y2="341.70"/><line x1="235.18" y1="135.93" x2="233.74" y2="136.03"/><line x1="291.12" y1="353.45" x2="290.49" y2="354.19"/><line x1="230.13" y1="99.13" x2="233.09" y2="94.14"/><line x1="291.50" y1="352.40" x2="289.07" y2="354.89"/><line x1="288.82" y1="115.56" x2="282.74" y2="122.91"/><line x1="260.83" y1="124.82" x2="256.77" y2="124.13"/><line x1="231.98" y1="110.09" x2="230.75" y2="107.64"/><line x1="274.62" y1="125.09" x2="269.35" y2="125.36"/><line x1="241.86" y1="118.69" x2="238.65" y2="116.72"/><line x1="282.11" y1="99.40" x2="278.98" y2="97.49"/><line x1="282.97" y1="327.48" x2="233.74" y2="136.03"/><line x1="289.07" y1="354.89" x2="289.61" y2="354.71"/><line x1="235.68" y1="92.40" x2="233.09" y2="94.14"/><line x1="282.97" y1="327.48" x2="229.72" y2="327.52"/><line x1="230.20" y1="138.62" x2="229.87" y2="139.81"/><line x1="286.61" y1="333.32" x2="224.94" y2="333.36"/><line x1="291.91" y1="347.73" x2="291.85" y2="349.24"/><line x1="286.61" y1="333.32" x2="220.91" y2="348.90"/><line x1="220.83" y1="347.08" x2="220.91" y2="348.90"/><line x1="288.09" y1="106.36" x2="286.67" y2="103.83"/><line x1="286.61" y1="333.32" x2="224.49" y2="354.86"/><line x1="239.00" y1="91.15" x2="230.01" y2="105.06"/><line x1="292.35" y1="151.96" x2="292.30" y2="153.01"/><line x1="278.98" y1="97.49" x2="269.35" y2="125.36"/><line x1="233.74" y1="136.03" x2="232.52" y2="136.36"/><line x1="235.18" y1="135.93" x2="286.35" y2="158.35"/><line x1="288.46" y1="355.01" x2="291.95" y2="346.00"/><line x1="220.91" y1="348.90" x2="221.02" y2="350.41"/><line x1="480.00" y1="32.02" x2="447.51" y2="32.02"/><line x1="286.67" y1="103.83" x2="284.67" y2="101.52"/><line x1="289.11" y1="136.36" x2="287.68" y2="136.04"/><line x1="291.50" y1="352.40" x2="291.33" y2="352.99"/><line x1="233.09" y1="94.14" x2="231.24" y2="96.38"/><line x1="282.97" y1="327.48" x2="231.53" y2="136.90"/><line x1="247.87" y1="90.15" x2="243.07" y2="90.40"/><line x1="292.22" y1="139.85" x2="289.11" y2="136.36"/><line x1="229.28" y1="330.52" x2="229.11" y2="330.84"/><line x1="220.88" y1="340.49" x2="220.76" y2="342.59"/><line x1="282.97" y1="327.48" x2="283.06" y2="328.74"/><line x1="229.67" y1="328.35" x2="283.06" y2="328.74"/><line x1="286.61" y1="333.32" x2="222.62" y2="335.54"/><line x1="286.61" y1="333.32" x2="221.17" y2="351.64"/><line x1="255.60" y1="90.61" x2="251.73" y2="90.26"/><line x1="286.61" y1="333.32" x2="226.65" y2="355.01"/><line x1="267.35" y1="93.02" x2="256.77" y2="124.13"/><line x1="235.18" y1="135.93" x2="292.13" y2="153.93"/><line x1="269.35" y1="125.36" x2="275.28" y2="95.78"/><line x1="283.88" y1="330.93" x2="284.59" y2="331.85"/><line x1="288.46" y1="355.01" x2="289.00" y2="334.45"/><line x1="283.06" y1="328.74" x2="229.61" y2="329.06"/><line x1="235.18" y1="135.93" x2="284.18" y2="161.26"/><line x1="291.33" y1="352.99" x2="290.08" y2="354.48"/><line x1="263.42" y1="91.99" x2="259.50" y2="91.19"/><line x1="288.46" y1="355.01" x2="291.85" y2="349.24"/><line x1="275.28" y1="95.78" x2="271.31" y2="94.28"/><line x1="284.67" y1="101.52" x2="274.62" y2="125.09"/><line x1="256.77" y1="124.13" x2="263.42" y2="91.99"/><line x1="229.76" y1="325.55" x2="229.75" y2="326.59"/><line x1="291.64" y1="351.57" x2="291.50" y2="352.40"/><line x1="282.97" y1="327.48" x2="230.20" y2="138.62"/><line x1="220.76" y1="342.59" x2="220.78" y2="344.99"/><line x1="286.61" y1="333.32" x2="221.22" y2="338.62"/><line x1="222.89" y1="354.43" x2="223.61" y2="354.69"/><line x1="279.09" y1="124.27" x2="288.94" y2="109.08"/><line x1="286.61" y1="333.32" x2="221.56" y2="353.24"/><line x1="271.31" y1="94.28" x2="265.02" y2="125.22"/><line x1="286.61" y1="333.32" x2="287.93" y2="333.88"/><line x1="245.38" y1="120.46" x2="241.86" y2="118.69"/><line x1="290.28" y1="136.90" x2="291.84" y2="138.65"/><line x1="292.30" y1="153.01" x2="292.13" y2="153.93"/><line x1="235.18" y1="135.93" x2="291.45" y2="155.39"/><line x1="269.35" y1="125.36" x2="265.02" y2="125.22"/><line x1="32.00" y1="479.98" x2="64.49" y2="479.98"/><line x1="221.35" y1="352.59" x2="221.56" y2="353.24"/><line x1="288.46" y1="355.01" x2="290.65" y2="336.46"/><line x1="235.18" y1="135.93" x2="283.10" y2="165.36"/><line x1="290.08" y1="354.48" x2="291.12" y2="353.45"/><line x1="288.46" y1="355.01" x2="291.64" y2="351.57"/><line x1="287.68" y1="136.04" x2="285.98" y2="135.93"/><line x1="251.73" y1="90.26" x2="247.87" y2="90.15"/><line x1="227.64" y1="332.04" x2="227.08" y2="332.32"/><line x1="229.75" y1="326.59" x2="229.72" y2="327.52"/><line x1="282.97" y1="327.48" x2="229.76" y2="141.21"/><line x1="229.11" y1="330.84" x2="284.59" y2="331.85"/><line x1="286.61" y1="333.32" x2="220.76" y2="342.59"/><line x1="64.64" y1="32.09" x2="32.16" y2="64.58"/><line x1="279.09" y1="124.27" x2="286.67" y2="103.83"/><line x1="259.50" y1="91.19" x2="255.60" y2="90.61"/><line x1="286.61" y1="333.32" x2="222.30" y2="354.10"/><line x1="271.31" y1="94.28" x2="267.35" y2="93.02"/><line x1="265.02" y1="125.22" x2="260.83" y2="124.82"/><line x1="229.41" y1="330.14" x2="283.37" y2="329.90"/><line x1="290.49" y1="354.19" x2="290.84" y2="353.85"/><line x1="290.28" y1="136.90" x2="292.22" y2="139.85"/><line x1="229.72" y1="327.52" x2="229.67" y2="328.35"/><line x1="235.18" y1="135.93" x2="290.32" y2="156.36"/><line x1="221.56" y1="353.24" x2="221.86" y2="353.71"/><line x1="288.46" y1="355.01" x2="291.64" y2="339.66"/><line x1="235.18" y1="135.93" x2="282.97" y2="327.48"/><line x1="288.46" y1="355.01" x2="289.07" y2="354.89"/><line x1="288.82" y1="115.56" x2="287.60" y2="118.55"/><line x1="260.83" y1="124.82" x2="267.35" y2="93.02"/><line x1="229.87" y1="139.81" x2="229.76" y2="141.21"/><line x1="233.71" y1="112.43" x2="231.98" y2="110.09"/><line x1="285.98" y1="135.93" x2="292.35" y2="151.96"/><line x1="225.50" y1="354.97" x2="226.65" y2="355.01"/><line x1="282.97" y1="327.48" x2="229.75" y2="326.59"/><line x1="286.61" y1="333.32" x2="226.45" y2="332.60"/><line x1="221.86" y1="353.71" x2="222.30" y2="354.10"/><line x1="286.61" y1="333.32" x2="220.83" y2="347.08"/><line x1="279.09" y1="124.27" x2="274.62" y2="125.09"/><line x1="286.61" y1="333.32" x2="223.61" y2="354.69"/><line x1="222.30" y1="354.10" x2="222.89" y2="354.43"/><line x1="239.00" y1="91.15" x2="230.75" y2="107.64"/><line x1="292.35" y1="151.96" x2="235.18" y2="135.93"/><line x1="228.53" y1="331.45" x2="228.13" y2="331.75"/><line x1="221.02" y1="350.41" x2="221.17" y2="351.64"/><line x1="283.37" y1="329.90" x2="229.28" y2="330.52"/><line x1="235.18" y1="135.93" x2="287.83" y2="157.36"/><line x1="288.46" y1="355.01" x2="291.96" y2="344.04"/><line x1="238.65" y1="116.72" x2="235.94" y2="114.63"/><line x1="480.00" y1="32.02" x2="480.00" y2="64.50"/><line x1="289.11" y1="136.36" x2="292.35" y2="141.26"/><line x1="230.13" y1="99.13" x2="231.24" y2="96.38"/><line x1="249.04" y1="121.95" x2="255.60" y2="90.61"/><line x1="288.82" y1="115.56" x2="289.22" y2="112.02"/><line x1="282.97" y1="327.48" x2="232.52" y2="136.36"/><line x1="229.28" y1="330.52" x2="283.88" y2="330.93"/><line x1="226.65" y1="355.01" x2="288.46" y2="355.01"/><line x1="282.97" y1="327.48" x2="229.67" y2="328.35"/><line x1="286.61" y1="333.32" x2="223.66" y2="334.34"/><line x1="286.61" y1="333.32" x2="221.02" y2="350.41"/><line x1="480.00" y1="479.91" x2="480.00" y2="447.42"/><line x1="255.60" y1="90.61" x2="245.38" y2="120.46"/><line x1="229.61" y1="329.06" x2="229.52" y2="329.65"/><line x1="290.94" y1="155.94" x2="290.32" y2="156.36"/><line x1="239.00" y1="91.15" x2="235.68" y2="92.40"/><line x1="235.18" y1="135.93" x2="292.30" y2="153.01"/><line x1="288.46" y1="355.01" x2="287.93" y2="333.88"/><line x1="235.18" y1="135.93" x2="285.13" y2="159.66"/><line x1="282.74" y1="122.91" x2="279.09" y2="124.27"/><line x1="263.42" y1="91.99" x2="252.83" y2="123.18"/><line x1="288.46" y1="355.01" x2="291.91" y2="347.73"/><line x1="243.07" y1="90.40" x2="233.71" y2="112.43"/><line x1="480.00" y1="64.50" x2="447.51" y2="32.02"/><line x1="292.35" y1="141.26" x2="287.68" y2="136.04"/><line x1="283.06" y1="328.74" x2="229.41" y2="330.14"/><line x1="290.32" y1="156.36" x2="289.59" y2="156.66"/><line x1="223.61" y1="354.69" x2="224.49" y2="354.86"/><line x1="285.50" y1="332.64" x2="228.13" y2="331.75"/><line x1="282.97" y1="327.48" x2="230.75" y2="137.65"/><line x1="229.67" y1="328.35" x2="229.61" y2="329.06"/><line x1="286.61" y1="333.32" x2="221.81" y2="336.97"/><line x1="32.16" y1="32.09" x2="64.64" y2="32.09"/><line x1="289.61" y1="354.71" x2="290.08" y2="354.48"/><line x1="230.01" y1="105.06" x2="229.76" y2="102.37"/><line x1="447.51" y1="479.91" x2="480.00" y2="447.42"/><line x1="292.13" y1="153.93" x2="291.85" y2="154.72"/><line x1="245.38" y1="120.46" x2="251.73" y2="90.26"/><line x1="229.52" y1="329.65" x2="229.41" y2="330.14"/><line x1="267.35" y1="93.02" x2="263.42" y2="91.99"/><line x1="228.13" y1="331.75" x2="227.64" y2="332.04"/><line x1="235.18" y1="135.93" x2="291.85" y2="154.72"/><line x1="32.00" y1="479.98" x2="32.00" y2="447.50"/><line x1="288.46" y1="355.01" x2="289.91" y2="335.31"/><line x1="235.18" y1="135.93" x2="283.51" y2="163.16"/><line x1="289.22" y1="112.02" x2="288.94" y2="109.08"/><line x1="252.83" y1="123.18" x2="259.50" y2="91.19"/><line x1="291.85" y1="349.24" x2="291.75" y2="350.52"/><line x1="235.94" y1="114.63" x2="233.71" y2="112.43"/><line x1="284.59" y1="331.85" x2="228.86" y2="331.14"/><line x1="292.35" y1="141.26" x2="292.35" y2="151.96"/><line x1="284.67" y1="101.52" x2="282.11" y2="99.40"/><line x1="289.59" y1="156.66" x2="287.83" y2="157.36"/><line x1="285.50" y1="332.64" x2="286.61" y2="333.32"/><line x1="282.97" y1="327.48" x2="229.87" y2="139.81"/><line x1="224.49" y1="354.86" x2="225.50" y2="354.97"/><line x1="291.88" y1="341.70" x2="291.96" y2="344.04"/><line x1="274.62" y1="125.09" x2="278.98" y2="97.49"/><line x1="241.86" y1="118.69" x2="247.87" y2="90.15"/><line x1="289.00" y1="334.45" x2="289.91" y2="335.31"/><line x1="279.09" y1="124.27" x2="288.09" y2="106.36"/><line x1="259.50" y1="91.19" x2="249.04" y2="121.95"/><line x1="235.68" y1="92.40" x2="230.13" y2="99.13"/><line x1="291.85" y1="154.72" x2="291.45" y2="155.39"/><line x1="283.10" y1="165.36" x2="282.97" y2="167.86"/><line x1="289.91" y1="335.31" x2="290.65" y2="336.46"/><line x1="290.28" y1="136.90" x2="291.19" y2="137.67"/><line x1="285.57" y1="121.00" x2="282.74" y2="122.91"/><line x1="32.00" y1="447.50" x2="64.49" y2="479.98"/></g></svg>