<svg xmlns="http://www.w3.org/2000/svg" width="512" height="512"><rect width="512" height="512" fill="#0a0f1a"/><text x="12" y="20" font-family="monospace" font-size="11" fill="#4a7fa5">FRONT (XZ)</text><g stroke="#00d4ff" stroke-width="0.6" opacity="0.85"><line x1="212.67" y1="339.03" x2="216.62" y2="343.89"/><line x1="224.67" y1="299.62" x2="206.16" y2="283.86"/><line x1="241.73" y1="335.06" x2="243.05" y2="356.98"/><line x1="313.68" y1="238.25" x2="313.12" y2="227.96"/><line x1="224.67" y1="299.62" x2="199.83" y2="291.94"/><line x1="216.91" y1="144.95" x2="235.90" y2="159.56"/><line x1="249.68" y1="357.36" x2="257.51" y2="356.76"/><line x1="235.01" y1="166.47" x2="235.14" y2="167.92"/><line x1="199.68" y1="293.81" x2="199.64" y2="295.90"/><line x1="313.12" y1="227.96" x2="312.19" y2="218.20"/><line x1="243.26" y1="133.89" x2="246.14" y2="153.99"/><line x1="224.81" y1="208.95" x2="222.55" y2="209.68"/><line x1="199.64" y1="295.90" x2="199.90" y2="302.85"/><line x1="257.51" y1="356.76" x2="247.73" y2="333.61"/><line x1="246.14" y1="153.99" x2="245.06" y2="153.92"/><line x1="247.73" y1="333.61" x2="264.93" y2="355.03"/><line x1="265.34" y1="135.93" x2="260.40" y2="134.63"/><line x1="302.01" y1="177.42" x2="299.15" y2="170.87"/><line x1="206.18" y1="158.31" x2="203.68" y2="163.23"/><line x1="236.19" y1="174.90" x2="199.52" y2="179.19"/><line x1="220.72" y1="284.59" x2="223.82" y2="287.66"/><line x1="225.50" y1="312.01" x2="203.89" y2="322.13"/><line x1="299.15" y1="170.87" x2="296.13" y2="164.86"/><line x1="212.60" y1="209.65" x2="206.73" y2="206.49"/><line x1="203.89" y1="322.13" x2="226.13" y2="315.67"/><line x1="251.96" y1="329.35" x2="278.55" y2="348.10"/><line x1="249.72" y1="133.57" x2="243.26" y2="133.89"/><line x1="240.76" y1="154.87" x2="239.79" y2="155.40"/><line x1="278.55" y1="348.10" x2="252.70" y2="328.01"/><line x1="237.07" y1="182.70" x2="237.13" y2="184.08"/><line x1="224.77" y1="292.84" x2="214.98" y2="283.55"/><line x1="254.18" y1="162.45" x2="278.57" y2="142.86"/><line x1="202.56" y1="200.71" x2="220.10" y2="210.11"/><line x1="212.67" y1="339.03" x2="230.49" y2="327.81"/><line x1="254.34" y1="322.17" x2="254.41" y2="320.58"/><line x1="216.91" y1="144.95" x2="236.47" y2="158.59"/><line x1="200.07" y1="193.40" x2="235.49" y2="196.41"/><line x1="252.39" y1="158.28" x2="251.67" y2="157.29"/><line x1="235.44" y1="333.24" x2="237.39" y2="334.25"/><line x1="254.41" y1="164.70" x2="313.12" y2="227.96"/><line x1="254.41" y1="164.70" x2="292.95" y2="159.39"/><line x1="234.97" y1="162.76" x2="234.90" y2="163.92"/><line x1="480.00" y1="32.02" x2="447.51" y2="32.02"/><line x1="236.22" y1="193.88" x2="235.49" y2="196.41"/><line x1="206.18" y1="158.31" x2="234.93" y2="165.14"/><line x1="202.56" y1="200.71" x2="230.53" y2="205.04"/><line x1="249.11" y1="155.02" x2="248.17" y2="154.54"/><line x1="216.69" y1="283.71" x2="224.77" y2="292.84"/><line x1="243.39" y1="334.96" x2="244.95" y2="334.70"/><line x1="249.72" y1="133.57" x2="247.17" y2="154.20"/><line x1="282.44" y1="146.20" x2="254.18" y2="162.45"/><line x1="201.74" y1="168.35" x2="235.56" y2="171.18"/><line x1="254.41" y1="164.70" x2="310.56" y2="289.15"/><line x1="229.14" y1="325.20" x2="212.67" y2="339.03"/><line x1="254.41" y1="164.70" x2="307.14" y2="192.14"/><line x1="237.15" y1="157.68" x2="216.91" y2="144.95"/><line x1="224.77" y1="303.99" x2="225.04" y2="308.11"/><line x1="254.13" y1="323.70" x2="254.34" y2="322.17"/><line x1="237.20" y1="134.84" x2="242.83" y2="154.16"/><line x1="224.26" y1="289.10" x2="224.58" y2="290.83"/><line x1="236.74" y1="191.19" x2="200.07" y2="193.40"/><line x1="217.47" y1="210.26" x2="214.94" y2="210.11"/><line x1="202.56" y1="200.71" x2="222.55" y2="209.68"/><line x1="209.23" y1="283.47" x2="207.61" y2="283.61"/><line x1="254.34" y1="322.17" x2="295.85" y2="329.09"/><line x1="253.01" y1="159.28" x2="252.39" y2="158.28"/><line x1="200.07" y1="193.40" x2="236.22" y2="193.88"/><line x1="206.29" y1="328.03" x2="209.21" y2="333.66"/><line x1="207.61" y1="283.61" x2="206.16" y2="283.86"/><line x1="250.07" y1="331.81" x2="251.08" y2="330.64"/><line x1="225.85" y1="351.37" x2="235.44" y2="333.24"/><line x1="252.39" y1="158.28" x2="265.34" y2="135.93"/><line x1="236.66" y1="178.20" x2="236.84" y2="179.76"/><line x1="209.23" y1="153.58" x2="234.97" y2="162.76"/><line x1="284.73" y1="342.91" x2="290.50" y2="336.58"/><line x1="235.44" y1="333.24" x2="231.14" y2="353.99"/><line x1="254.41" y1="164.70" x2="313.68" y2="238.25"/><line x1="307.99" y1="300.58" x2="310.56" y2="289.15"/><line x1="254.41" y1="164.70" x2="296.13" y2="164.86"/><line x1="234.97" y1="162.76" x2="206.18" y2="158.31"/><line x1="480.00" y1="32.02" x2="480.00" y2="64.50"/><line x1="201.41" y1="286.61" x2="200.87" y2="287.61"/><line x1="310.56" y1="289.15" x2="312.40" y2="276.75"/><line x1="255.19" y1="133.85" x2="249.11" y2="155.02"/><line x1="480.00" y1="479.91" x2="480.00" y2="447.42"/><line x1="202.56" y1="200.71" x2="232.07" y2="203.15"/><line x1="200.87" y1="287.61" x2="200.42" y2="288.85"/><line x1="243.05" y1="356.98" x2="243.39" y2="334.96"/><line x1="249.11" y1="155.02" x2="249.72" y2="133.57"/><line x1="235.14" y1="167.92" x2="201.74" y2="168.35"/><line x1="199.90" y1="302.85" x2="200.70" y2="309.54"/><line x1="243.39" y1="334.96" x2="249.68" y2="357.36"/><line x1="312.19" y1="218.20" x2="310.88" y2="208.98"/><line x1="212.83" y1="149.06" x2="209.23" y2="153.58"/><line x1="201.74" y1="168.35" x2="235.33" y2="169.49"/><line x1="447.51" y1="479.91" x2="480.00" y2="447.42"/><line x1="254.41" y1="164.70" x2="307.99" y2="300.58"/><line x1="254.41" y1="164.70" x2="309.20" y2="200.29"/><line x1="310.88" y1="208.98" x2="309.20" y2="200.29"/><line x1="254.41" y1="164.70" x2="254.35" y2="163.56"/><line x1="220.10" y1="210.11" x2="217.47" y2="210.26"/><line x1="224.77" y1="303.99" x2="200.70" y2="309.54"/><line x1="260.40" y1="134.63" x2="255.19" y2="133.85"/><line x1="237.20" y1="134.84" x2="243.92" y2="153.98"/><line x1="224.26" y1="289.10" x2="218.21" y2="283.94"/><line x1="236.87" y1="355.86" x2="243.05" y2="356.98"/><line x1="226.13" y1="315.67" x2="226.95" y2="319.08"/><line x1="202.56" y1="200.71" x2="224.81" y2="208.95"/><line x1="248.95" y1="332.80" x2="250.07" y2="331.81"/><line x1="236.44" y1="176.58" x2="236.66" y2="178.20"/><line x1="206.29" y1="328.03" x2="227.96" y2="322.26"/><line x1="226.26" y1="138.63" x2="237.96" y2="156.83"/><line x1="214.98" y1="283.55" x2="213.10" y2="283.44"/><line x1="284.73" y1="342.91" x2="253.79" y2="325.18"/><line x1="254.41" y1="164.70" x2="313.87" y2="249.08"/><line x1="199.34" y1="187.87" x2="237.04" y2="188.37"/><line x1="224.84" y1="295.12" x2="224.67" y2="299.62"/><line x1="253.90" y1="161.37" x2="253.51" y2="160.31"/><line x1="200.35" y1="173.67" x2="199.52" y2="179.19"/><line x1="480.00" y1="479.91" x2="447.51" y2="479.91"/><line x1="216.62" y1="343.89" x2="221.01" y2="348.01"/><line x1="274.42" y1="140.04" x2="270.01" y2="137.73"/><line x1="235.90" y1="159.56" x2="235.47" y2="160.57"/><line x1="199.90" y1="302.85" x2="224.77" y2="303.99"/><line x1="212.83" y1="149.06" x2="235.16" y2="161.63"/><line x1="245.06" y1="153.92" x2="237.20" y2="134.84"/><line x1="235.49" y1="196.41" x2="234.56" y2="198.81"/><line x1="254.41" y1="164.70" x2="304.68" y2="311.05"/><line x1="264.93" y1="355.03" x2="248.95" y2="332.80"/><line x1="251.67" y1="157.29" x2="250.86" y2="156.40"/><line x1="200.72" y1="195.96" x2="201.55" y2="198.40"/><line x1="223.82" y1="287.66" x2="224.26" y2="289.10"/><line x1="237.39" y1="334.25" x2="239.49" y2="334.86"/><line x1="260.40" y1="134.63" x2="250.00" y2="155.64"/><line x1="296.13" y1="164.86" x2="292.95" y2="159.39"/><line x1="236.87" y1="355.86" x2="241.73" y2="335.06"/><line x1="226.13" y1="315.67" x2="206.29" y2="328.03"/><line x1="292.95" y1="159.39" x2="289.61" y2="154.46"/><line x1="234.93" y1="165.14" x2="235.01" y2="166.47"/><line x1="210.45" y1="208.90" x2="208.49" y2="207.85"/><line x1="206.29" y1="328.03" x2="226.95" y2="319.08"/><line x1="252.70" y1="328.01" x2="284.73" y2="342.91"/><line x1="226.26" y1="138.63" x2="238.85" y2="156.06"/><line x1="221.70" y1="285.02" x2="220.72" y2="284.59"/><line x1="214.98" y1="283.55" x2="224.84" y2="295.12"/><line x1="284.73" y1="342.91" x2="253.32" y2="326.62"/><line x1="247.17" y1="154.20" x2="246.14" y2="153.99"/><line x1="278.57" y1="142.86" x2="253.90" y2="161.37"/><line x1="223.24" y1="286.50" x2="223.82" y2="287.66"/><line x1="199.34" y1="187.87" x2="237.15" y2="185.40"/><line x1="224.84" y1="295.12" x2="213.10" y2="283.44"/><line x1="246.40" y1="334.25" x2="247.73" y2="333.61"/><line x1="230.49" y1="327.81" x2="216.62" y2="343.89"/><line x1="253.90" y1="161.37" x2="274.42" y2="140.04"/><line x1="200.35" y1="173.67" x2="236.19" y2="174.90"/><line x1="224.67" y1="299.62" x2="202.04" y2="285.82"/><line x1="224.67" y1="299.62" x2="224.77" y2="303.99"/><line x1="271.95" y1="352.14" x2="278.55" y2="348.10"/><line x1="216.62" y1="343.89" x2="231.99" y2="330.02"/><line x1="199.52" y1="179.19" x2="236.44" y2="176.58"/><line x1="295.85" y1="329.09" x2="254.41" y2="320.58"/><line x1="199.25" y1="184.91" x2="237.07" y2="182.70"/><line x1="235.90" y1="159.56" x2="212.83" y2="149.06"/><line x1="214.94" y1="210.11" x2="212.60" y2="209.65"/><line x1="206.16" y1="283.86" x2="204.87" y2="284.20"/><line x1="231.14" y1="353.99" x2="236.87" y2="355.86"/><line x1="254.41" y1="320.58" x2="254.41" y2="164.70"/><line x1="206.73" y1="206.49" x2="210.45" y2="208.90"/><line x1="235.49" y1="196.41" x2="200.72" y2="195.96"/><line x1="204.87" y1="284.20" x2="203.76" y2="284.64"/><line x1="239.79" y1="155.40" x2="226.26" y2="138.63"/><line x1="251.67" y1="157.29" x2="260.40" y2="134.63"/><line x1="237.39" y1="334.25" x2="236.87" y2="355.86"/><line x1="237.13" y1="184.08" x2="199.34" y2="187.87"/><line x1="234.90" y1="163.92" x2="234.93" y2="165.14"/><line x1="224.67" y1="299.62" x2="207.61" y2="283.61"/><line x1="224.67" y1="299.62" x2="200.08" y2="290.28"/><line x1="290.50" y1="336.58" x2="295.85" y2="329.09"/><line x1="249.68" y1="357.36" x2="246.40" y2="334.25"/><line x1="313.51" y1="263.40" x2="313.87" y2="249.08"/><line x1="230.53" y1="205.04" x2="228.81" y2="206.63"/><line x1="236.47" y1="158.59" x2="235.90" y2="159.56"/><line x1="270.01" y1="137.73" x2="265.34" y2="135.93"/><line x1="235.56" y1="171.18" x2="235.85" y2="172.98"/><line x1="221.70" y1="285.02" x2="222.54" y2="285.62"/><line x1="200.70" y1="309.54" x2="202.03" y2="315.97"/><line x1="203.76" y1="202.88" x2="205.15" y2="204.84"/><line x1="265.34" y1="135.93" x2="251.67" y2="157.29"/><line x1="225.04" y1="308.11" x2="225.50" y2="312.01"/><line x1="224.67" y1="299.62" x2="202.81" y2="285.18"/><line x1="224.67" y1="299.62" x2="199.90" y2="302.85"/><line x1="271.95" y1="352.14" x2="251.96" y2="329.35"/><line x1="199.25" y1="184.91" x2="236.98" y2="181.25"/><line x1="218.21" y1="283.94" x2="216.69" y2="283.71"/><line x1="231.14" y1="353.99" x2="237.39" y2="334.25"/><line x1="286.11" y1="150.06" x2="282.44" y2="146.20"/><line x1="480.00" y1="64.50" x2="447.51" y2="32.02"/><line x1="227.96" y1="322.26" x2="229.14" y2="325.20"/><line x1="237.96" y1="156.83" x2="237.15" y2="157.68"/><line x1="200.42" y1="288.85" x2="200.08" y2="290.28"/><line x1="253.79" y1="325.18" x2="254.13" y2="323.70"/><line x1="237.04" y1="188.37" x2="236.74" y2="191.19"/><line x1="224.67" y1="299.62" x2="209.23" y2="283.47"/><line x1="224.67" y1="299.62" x2="200.42" y2="288.85"/><line x1="249.68" y1="357.36" x2="244.95" y2="334.70"/><line x1="253.51" y1="160.31" x2="253.01" y2="159.28"/><line x1="248.17" y1="154.54" x2="247.17" y2="154.20"/><line x1="199.62" y1="190.70" x2="200.07" y2="193.40"/><line x1="235.56" y1="171.18" x2="200.35" y2="173.67"/><line x1="200.70" y1="309.54" x2="225.04" y2="308.11"/><line x1="235.16" y1="161.63" x2="234.97" y2="162.76"/><line x1="203.76" y1="202.88" x2="214.94" y2="210.11"/><line x1="206.18" y1="158.31" x2="234.90" y2="163.92"/><line x1="203.68" y1="163.23" x2="201.74" y2="168.35"/><line x1="242.83" y1="154.16" x2="241.77" y2="154.45"/><line x1="201.55" y1="198.40" x2="202.56" y2="200.71"/><line x1="312.40" y1="276.75" x2="313.51" y2="263.40"/><line x1="219.56" y1="284.23" x2="218.21" y2="283.94"/><line x1="224.67" y1="299.62" x2="203.76" y2="284.64"/><line x1="232.07" y1="203.15" x2="230.53" y2="205.04"/><line x1="250.00" y1="155.64" x2="249.11" y2="155.02"/><line x1="199.25" y1="184.91" x2="236.84" y2="179.76"/><line x1="249.72" y1="133.57" x2="248.17" y2="154.54"/><line x1="243.26" y1="133.89" x2="237.20" y2="134.84"/><line x1="286.11" y1="150.06" x2="254.35" y2="163.56"/><line x1="213.10" y1="283.44" x2="211.03" y2="283.42"/><line x1="235.33" y1="169.49" x2="235.56" y2="171.18"/><line x1="237.96" y1="156.83" x2="221.39" y2="141.48"/><line x1="309.20" y1="200.29" x2="307.14" y2="192.14"/><line x1="253.79" y1="325.18" x2="290.50" y2="336.58"/><line x1="217.47" y1="210.26" x2="203.76" y2="202.88"/><line x1="220.72" y1="284.59" x2="219.56" y2="284.23"/><line x1="237.04" y1="188.37" x2="199.62" y2="190.70"/><line x1="243.92" y1="153.98" x2="242.83" y2="154.16"/><line x1="221.01" y1="348.01" x2="225.85" y2="351.37"/><line x1="231.53" y1="136.42" x2="226.26" y2="138.63"/><line x1="253.51" y1="160.31" x2="270.01" y2="137.73"/><line x1="250.07" y1="331.81" x2="271.95" y2="352.14"/><line x1="32.16" y1="32.09" x2="32.16" y2="64.58"/><line x1="236.66" y1="178.20" x2="199.25" y2="184.91"/><line x1="235.47" y1="160.57" x2="235.16" y2="161.63"/><line x1="234.56" y1="198.81" x2="233.42" y2="201.05"/><line x1="289.61" y1="154.46" x2="286.11" y2="150.06"/><line x1="254.41" y1="164.70" x2="299.15" y2="170.87"/><line x1="226.95" y1="319.08" x2="227.96" y2="322.26"/><line x1="238.85" y1="156.06" x2="237.96" y2="156.83"/><line x1="203.68" y1="163.23" x2="235.14" y2="167.92"/><line x1="202.56" y1="200.71" x2="203.76" y2="202.88"/><line x1="216.91" y1="144.95" x2="212.83" y2="149.06"/><line x1="231.99" y1="330.02" x2="233.65" y2="331.83"/><line x1="243.26" y1="133.89" x2="245.06" y2="153.92"/><line x1="254.41" y1="164.70" x2="310.88" y2="208.98"/><line x1="213.10" y1="283.44" x2="224.67" y2="299.62"/><line x1="257.51" y1="356.76" x2="264.93" y2="355.03"/><line x1="254.41" y1="164.70" x2="286.11" y2="150.06"/><line x1="224.26" y1="289.10" x2="219.56" y2="284.23"/><line x1="202.56" y1="200.71" x2="226.90" y2="207.94"/><line x1="205.15" y1="204.84" x2="206.73" y2="206.49"/><line x1="225.50" y1="312.01" x2="226.13" y2="315.67"/><line x1="32.00" y1="479.98" x2="64.49" y2="479.98"/><line x1="231.53" y1="136.42" x2="239.79" y2="155.40"/><line x1="251.96" y1="329.35" x2="252.70" y2="328.01"/><line x1="254.41" y1="164.70" x2="313.51" y2="263.40"/><line x1="254.41" y1="164.70" x2="302.01" y2="177.42"/><line x1="253.32" y1="326.62" x2="253.79" y2="325.18"/><line x1="237.20" y1="134.84" x2="231.53" y2="136.42"/><line x1="237.15" y1="185.40" x2="237.04" y2="188.37"/><line x1="202.56" y1="200.71" x2="217.47" y2="210.26"/><line x1="274.42" y1="140.04" x2="253.51" y2="160.31"/><line x1="231.99" y1="330.02" x2="221.01" y2="348.01"/><line x1="200.07" y1="193.40" x2="200.72" y2="195.96"/><line x1="226.90" y1="207.94" x2="224.81" y2="208.95"/><line x1="212.83" y1="149.06" x2="235.47" y2="160.57"/><line x1="254.41" y1="164.70" x2="300.63" y2="320.56"/><line x1="254.41" y1="164.70" x2="312.19" y2="218.20"/><line x1="254.41" y1="164.70" x2="289.61" y2="154.46"/><line x1="200.72" y1="195.96" x2="234.56" y2="198.81"/><line x1="203.76" y1="284.64" x2="202.81" y2="285.18"/><line x1="235.85" y1="172.98" x2="236.19" y2="174.90"/><line x1="260.40" y1="134.63" x2="250.86" y2="156.40"/><line x1="236.87" y1="355.86" x2="239.49" y2="334.86"/><line x1="202.56" y1="200.71" x2="228.81" y2="206.63"/><line x1="205.15" y1="204.84" x2="212.60" y2="209.65"/><line x1="234.93" y1="165.14" x2="203.68" y2="163.23"/><line x1="32.00" y1="479.98" x2="32.00" y2="447.50"/><line x1="231.53" y1="136.42" x2="240.76" y2="154.87"/><line x1="313.87" y1="249.08" x2="313.68" y2="238.25"/><line x1="216.69" y1="283.71" x2="214.98" y2="283.55"/><line x1="228.81" y1="206.63" x2="226.90" y2="207.94"/><line x1="282.44" y1="146.20" x2="278.57" y2="142.86"/><line x1="199.83" y1="291.94" x2="199.68" y2="293.81"/><line x1="201.74" y1="168.35" x2="200.35" y2="173.67"/><line x1="236.98" y1="181.25" x2="237.07" y2="182.70"/><line x1="254.41" y1="164.70" x2="312.40" y2="276.75"/><line x1="247.17" y1="154.20" x2="243.26" y2="133.89"/><line x1="229.14" y1="325.20" x2="230.49" y2="327.81"/><line x1="254.41" y1="164.70" x2="304.71" y2="184.51"/><line x1="223.24" y1="286.50" x2="220.72" y2="284.59"/><line x1="237.15" y1="157.68" x2="236.47" y2="158.59"/><line x1="246.40" y1="334.25" x2="257.51" y2="356.76"/><line x1="200.35" y1="173.67" x2="235.85" y2="172.98"/><line x1="237.20" y1="134.84" x2="241.77" y2="154.45"/><line x1="202.03" y1="315.97" x2="203.89" y2="322.13"/><line x1="236.74" y1="191.19" x2="236.22" y2="193.88"/><line x1="241.77" y1="154.45" x2="240.76" y2="154.87"/><line x1="214.94" y1="210.11" x2="205.15" y2="204.84"/><line x1="225.85" y1="351.37" x2="231.14" y2="353.99"/><line x1="224.58" y1="290.83" x2="224.77" y2="292.84"/><line x1="209.23" y1="153.58" x2="206.18" y2="158.31"/><line x1="254.35" y1="163.56" x2="254.18" y2="162.45"/><line x1="209.21" y1="333.66" x2="212.67" y2="339.03"/><line x1="221.39" y1="141.48" x2="216.91" y2="144.95"/><line x1="255.19" y1="133.85" x2="249.72" y2="133.57"/><line x1="200.08" y1="290.28" x2="199.83" y2="291.94"/><line x1="290.50" y1="336.58" x2="254.34" y2="322.17"/><line x1="243.05" y1="356.98" x2="249.68" y2="357.36"/><line x1="235.14" y1="167.92" x2="235.33" y2="169.49"/><line x1="244.95" y1="334.70" x2="246.40" y2="334.25"/><line x1="270.01" y1="137.73" x2="252.39" y2="158.28"/><line x1="221.70" y1="285.02" x2="223.24" y2="286.50"/><line x1="233.65" y1="331.83" x2="235.44" y2="333.24"/><line x1="307.14" y1="192.14" x2="304.71" y2="184.51"/><line x1="264.93" y1="355.03" x2="271.95" y2="352.14"/><line x1="223.24" y1="286.50" x2="222.54" y2="285.62"/><line x1="225.04" y1="308.11" x2="202.03" y2="315.97"/><line x1="304.71" y1="184.51" x2="302.01" y2="177.42"/><line x1="202.03" y1="315.97" x2="225.50" y2="312.01"/><line x1="224.67" y1="299.62" x2="199.64" y2="295.90"/><line x1="271.95" y1="352.14" x2="251.08" y2="330.64"/><line x1="241.77" y1="154.45" x2="231.53" y2="136.42"/><line x1="233.42" y1="201.05" x2="232.07" y2="203.15"/><line x1="218.21" y1="283.94" x2="224.58" y2="290.83"/><line x1="251.08" y1="330.64" x2="251.96" y2="329.35"/><line x1="236.84" y1="179.76" x2="236.98" y2="181.25"/><line x1="224.58" y1="290.83" x2="216.69" y2="283.71"/><line x1="226.26" y1="138.63" x2="221.39" y2="141.48"/><line x1="227.96" y1="322.26" x2="209.21" y2="333.66"/><line x1="254.35" y1="163.56" x2="282.44" y2="146.20"/><line x1="209.21" y1="333.66" x2="229.14" y2="325.20"/><line x1="199.34" y1="187.87" x2="199.62" y2="190.70"/><line x1="221.39" y1="141.48" x2="237.15" y2="157.68"/><line x1="224.67" y1="299.62" x2="211.03" y2="283.42"/><line x1="224.67" y1="299.62" x2="200.87" y2="287.61"/><line x1="290.50" y1="336.58" x2="254.13" y2="323.70"/><line x1="199.52" y1="179.19" x2="199.25" y2="184.91"/><line x1="295.85" y1="329.09" x2="300.63" y2="320.56"/><line x1="199.62" y1="190.70" x2="236.74" y2="191.19"/><line x1="199.25" y1="184.91" x2="199.34" y2="187.87"/><line x1="211.03" y1="283.42" x2="209.23" y2="283.47"/><line x1="270.01" y1="137.73" x2="253.01" y2="159.28"/><line x1="245.06" y1="153.92" x2="243.92" y2="153.98"/><line x1="233.65" y1="331.83" x2="225.85" y2="351.37"/><line x1="235.16" y1="161.63" x2="209.23" y2="153.58"/><line x1="264.93" y1="355.03" x2="250.07" y2="331.81"/><line x1="64.64" y1="32.09" x2="32.16" y2="64.58"/><line x1="304.68" y1="311.05" x2="307.99" y2="300.58"/><line x1="201.55" y1="198.40" x2="233.42" y2="201.05"/><line x1="224.67" y1="299.62" x2="204.87" y2="284.20"/><line x1="241.73" y1="335.06" x2="243.39" y2="334.96"/><line x1="224.67" y1="299.62" x2="199.68" y2="293.81"/><line x1="250.00" y1="155.64" x2="255.19" y2="133.85"/><line x1="233.42" y1="201.05" x2="202.56" y2="200.71"/><line x1="252.70" y1="328.01" x2="253.32" y2="326.62"/><line x1="278.57" y1="142.86" x2="274.42" y2="140.04"/><line x1="247.73" y1="333.61" x2="248.95" y2="332.80"/><line x1="230.49" y1="327.81" x2="231.99" y2="330.02"/><line x1="236.19" y1="174.90" x2="236.44" y2="176.58"/><line x1="220.72" y1="284.59" x2="224.26" y2="289.10"/><line x1="222.55" y1="209.68" x2="220.10" y2="210.11"/><line x1="221.01" y1="348.01" x2="233.65" y2="331.83"/><line x1="224.67" y1="299.62" x2="201.41" y2="286.61"/><line x1="199.52" y1="179.19" x2="236.66" y2="178.20"/><line x1="295.85" y1="329.09" x2="254.41" y2="164.70"/><line x1="212.60" y1="209.65" x2="210.45" y2="208.90"/><line x1="32.16" y1="32.09" x2="64.64" y2="32.09"/><line x1="203.89" y1="322.13" x2="206.29" y2="328.03"/><line x1="199.25" y1="184.91" x2="237.13" y2="184.08"/><line x1="300.63" y1="320.56" x2="304.68" y2="311.05"/><line x1="206.73" y1="206.49" x2="208.49" y2="207.85"/><line x1="234.56" y1="198.81" x2="201.55" y2="198.40"/><line x1="202.81" y1="285.18" x2="202.04" y2="285.82"/><line x1="278.55" y1="348.10" x2="284.73" y2="342.91"/><line x1="239.79" y1="155.40" x2="238.85" y2="156.06"/><line x1="250.86" y1="156.40" x2="250.00" y2="155.64"/><line x1="224.77" y1="292.84" x2="224.84" y2="295.12"/><line x1="202.04" y1="285.82" x2="201.41" y2="286.61"/><line x1="239.49" y1="334.86" x2="241.73" y2="335.06"/><line x1="254.18" y1="162.45" x2="253.90" y2="161.37"/><line x1="237.13" y1="184.08" x2="237.15" y2="185.40"/><line x1="203.68" y1="163.23" x2="235.01" y2="166.47"/><line x1="32.00" y1="447.50" x2="64.49" y2="479.98"/></g></svg>