<svg xmlns="http://www.w3.org/2000/svg" width="512" height="512"><rect width="512" height="512" fill="#0a0f1a"/><text x="12" y="20" font-family="monospace" font-size="11" fill="#4a7fa5">FRONT (XZ)</text><g stroke="#00d4ff" stroke-width="0.6" opacity="0.85"><line x1="227.83" y1="328.20" x2="230.22" y2="330.53"/><line x1="257.98" y1="356.80" x2="253.27" y2="333.43"/><line x1="222.00" y1="318.87" x2="223.68" y2="322.31"/><line x1="245.19" y1="335.84" x2="247.38" y2="335.69"/><line x1="302.68" y1="162.55" x2="263.21" y2="168.98"/><line x1="218.66" y1="306.67" x2="193.78" y2="314.24"/><line x1="263.21" y1="221.99" x2="320.68" y2="217.42"/><line x1="301.07" y1="329.82" x2="263.21" y2="308.05"/><line x1="241.30" y1="168.98" x2="192.18" y2="203.37"/><line x1="217.41" y1="290.09" x2="193.98" y2="284.72"/><line x1="219.49" y1="311.05" x2="220.61" y2="315.11"/><line x1="217.83" y1="296.97" x2="191.16" y2="300.99"/><line x1="242.12" y1="356.96" x2="249.49" y2="357.36"/><line x1="320.68" y1="217.42" x2="318.68" y2="204.29"/><line x1="241.52" y1="164.98" x2="212.33" y2="151.52"/><line x1="252.18" y1="153.92" x2="249.29" y2="154.22"/><line x1="199.27" y1="173.62" x2="196.24" y2="182.70"/><line x1="259.49" y1="326.22" x2="260.62" y2="323.77"/><line x1="191.16" y1="300.99" x2="218.11" y2="301.97"/><line x1="257.98" y1="356.80" x2="266.10" y2="355.11"/><line x1="322.28" y1="246.91" x2="263.21" y2="242.34"/><line x1="217.14" y1="288.43" x2="211.31" y2="283.77"/><line x1="253.27" y1="333.43" x2="255.01" y2="332.07"/><line x1="263.21" y1="221.99" x2="315.88" y2="192.24"/><line x1="235.60" y1="333.93" x2="238.60" y2="334.99"/><line x1="268.44" y1="135.94" x2="255.10" y2="154.22"/><line x1="212.33" y1="151.52" x2="241.30" y2="168.98"/><line x1="244.85" y1="156.69" x2="243.30" y2="158.84"/><line x1="217.41" y1="290.09" x2="206.94" y2="283.45"/><line x1="241.30" y1="168.98" x2="241.30" y2="221.99"/><line x1="217.41" y1="290.09" x2="192.55" y2="285.80"/><line x1="480.00" y1="479.91" x2="447.51" y2="479.91"/><line x1="230.22" y1="330.53" x2="232.81" y2="332.44"/><line x1="255.01" y1="332.07" x2="266.10" y2="355.11"/><line x1="283.63" y1="143.04" x2="276.28" y2="138.90"/><line x1="249.29" y1="154.22" x2="246.85" y2="155.15"/><line x1="223.55" y1="141.55" x2="242.19" y2="161.60"/><line x1="262.31" y1="161.60" x2="283.63" y2="143.04"/><line x1="206.90" y1="338.07" x2="227.83" y2="328.20"/><line x1="214.32" y1="284.40" x2="216.82" y2="287.09"/><line x1="196.08" y1="320.53" x2="220.61" y2="315.11"/><line x1="218.11" y1="301.97" x2="192.14" y2="307.72"/><line x1="190.83" y1="242.34" x2="190.83" y2="227.40"/><line x1="263.21" y1="168.98" x2="296.83" y2="154.87"/><line x1="263.21" y1="221.99" x2="307.88" y2="171.37"/><line x1="241.30" y1="168.98" x2="207.38" y2="157.99"/><line x1="217.41" y1="290.09" x2="201.89" y2="283.45"/><line x1="229.81" y1="138.06" x2="223.55" y2="141.55"/><line x1="190.83" y1="294.03" x2="217.75" y2="294.36"/><line x1="217.41" y1="290.09" x2="191.60" y2="287.68"/><line x1="220.61" y1="315.11" x2="199.03" y2="326.60"/><line x1="262.80" y1="315.03" x2="263.10" y2="311.65"/><line x1="312.28" y1="181.27" x2="307.88" y2="171.37"/><line x1="281.20" y1="348.37" x2="260.62" y2="323.77"/><line x1="266.10" y1="355.11" x2="256.63" y2="330.41"/><line x1="263.21" y1="308.05" x2="318.39" y2="289.26"/><line x1="247.38" y1="335.69" x2="249.46" y2="335.24"/><line x1="294.82" y1="337.13" x2="262.80" y2="315.03"/><line x1="263.21" y1="242.34" x2="190.83" y2="242.34"/><line x1="243.67" y1="134.07" x2="236.52" y2="135.57"/><line x1="192.18" y1="203.37" x2="191.17" y2="214.97"/><line x1="216.82" y1="287.09" x2="212.99" y2="284.05"/><line x1="251.43" y1="334.48" x2="257.98" y2="356.80"/><line x1="235.19" y1="355.78" x2="242.12" y2="356.96"/><line x1="260.62" y1="323.77" x2="288.21" y2="343.31"/><line x1="260.09" y1="134.17" x2="251.25" y2="133.57"/><line x1="202.99" y1="165.39" x2="199.27" y2="173.62"/><line x1="232.81" y1="332.44" x2="235.60" y2="333.93"/><line x1="246.85" y1="155.15" x2="244.85" y2="156.69"/><line x1="296.83" y1="154.87" x2="262.99" y2="164.98"/><line x1="263.21" y1="221.99" x2="190.83" y2="242.34"/><line x1="255.10" y1="154.22" x2="260.09" y2="134.17"/><line x1="215.31" y1="284.84" x2="216.43" y2="286.06"/><line x1="241.30" y1="168.98" x2="199.27" y2="173.62"/><line x1="217.41" y1="290.09" x2="197.94" y2="283.74"/><line x1="206.94" y1="283.45" x2="204.25" y2="283.42"/><line x1="222.60" y1="351.06" x2="228.68" y2="353.82"/><line x1="190.83" y1="294.03" x2="191.16" y2="300.99"/><line x1="32.16" y1="32.09" x2="32.16" y2="64.58"/><line x1="217.41" y1="290.09" x2="191.02" y2="290.42"/><line x1="273.84" y1="352.30" x2="258.14" y2="328.45"/><line x1="241.79" y1="335.63" x2="245.19" y2="335.84"/><line x1="199.03" y1="326.60" x2="222.00" y2="318.87"/><line x1="307.88" y1="171.37" x2="302.68" y2="162.55"/><line x1="263.21" y1="242.34" x2="263.21" y2="221.99"/><line x1="276.28" y1="138.90" x2="259.61" y2="156.69"/><line x1="263.21" y1="308.05" x2="321.85" y2="262.17"/><line x1="262.99" y1="164.98" x2="290.48" y2="148.36"/><line x1="216.43" y1="286.06" x2="215.97" y2="285.35"/><line x1="193.78" y1="314.24" x2="219.49" y2="311.05"/><line x1="227.83" y1="328.20" x2="211.71" y2="343.19"/><line x1="290.48" y1="148.36" x2="262.31" y2="161.60"/><line x1="222.00" y1="318.87" x2="202.64" y2="332.44"/><line x1="321.89" y1="231.62" x2="320.68" y2="217.42"/><line x1="288.21" y1="343.31" x2="261.55" y2="321.08"/><line x1="236.52" y1="135.57" x2="229.81" y2="138.06"/><line x1="202.64" y1="332.44" x2="223.68" y2="322.31"/><line x1="241.30" y1="221.99" x2="190.83" y2="227.40"/><line x1="215.31" y1="284.84" x2="214.32" y2="284.40"/><line x1="262.28" y1="318.17" x2="262.80" y2="315.03"/><line x1="217.41" y1="290.09" x2="195.04" y2="284.32"/><line x1="219.49" y1="311.05" x2="196.08" y2="320.53"/><line x1="273.84" y1="352.30" x2="281.20" y2="348.37"/><line x1="204.25" y1="283.42" x2="201.89" y2="283.45"/><line x1="258.14" y1="328.45" x2="259.49" y2="326.22"/><line x1="217.41" y1="290.09" x2="217.61" y2="292.06"/><line x1="241.30" y1="168.98" x2="193.87" y2="192.61"/><line x1="242.12" y1="356.96" x2="247.38" y2="335.69"/><line x1="261.55" y1="321.08" x2="262.28" y2="318.17"/><line x1="251.25" y1="133.57" x2="243.67" y2="134.07"/><line x1="217.72" y1="146.04" x2="212.33" y2="151.52"/><line x1="263.21" y1="308.05" x2="263.21" y2="242.34"/><line x1="259.61" y1="156.69" x2="268.44" y2="135.94"/><line x1="196.24" y1="182.70" x2="193.87" y2="192.61"/><line x1="211.31" y1="283.77" x2="217.41" y2="290.09"/><line x1="216.43" y1="286.06" x2="216.82" y2="287.09"/><line x1="228.68" y1="353.82" x2="235.19" y2="355.78"/><line x1="201.89" y1="283.45" x2="199.79" y2="283.56"/><line x1="259.49" y1="326.22" x2="281.20" y2="348.37"/><line x1="257.98" y1="356.80" x2="255.01" y2="332.07"/><line x1="211.71" y1="343.19" x2="230.22" y2="330.53"/><line x1="302.68" y1="162.55" x2="296.83" y2="154.87"/><line x1="288.21" y1="343.31" x2="294.82" y2="337.13"/><line x1="263.21" y1="221.99" x2="318.68" y2="204.29"/><line x1="268.44" y1="135.94" x2="257.58" y2="155.15"/><line x1="480.00" y1="32.02" x2="447.51" y2="32.02"/><line x1="217.41" y1="290.09" x2="209.30" y2="283.57"/><line x1="216.94" y1="347.51" x2="222.60" y2="351.06"/><line x1="223.68" y1="322.31" x2="206.90" y2="338.07"/><line x1="241.30" y1="168.98" x2="191.17" y2="214.97"/><line x1="217.41" y1="290.09" x2="193.18" y2="285.19"/><line x1="217.83" y1="296.97" x2="218.11" y2="301.97"/><line x1="230.22" y1="330.53" x2="216.94" y2="347.51"/><line x1="283.63" y1="143.04" x2="261.18" y2="158.84"/><line x1="263.21" y1="308.05" x2="306.70" y2="321.39"/><line x1="241.52" y1="164.98" x2="241.30" y2="168.98"/><line x1="190.88" y1="292.11" x2="190.83" y2="294.03"/><line x1="206.90" y1="338.07" x2="225.63" y2="325.44"/><line x1="193.18" y1="285.19" x2="192.55" y2="285.80"/><line x1="238.60" y1="334.99" x2="241.79" y2="335.63"/><line x1="199.79" y1="283.56" x2="197.94" y2="283.74"/><line x1="322.28" y1="246.91" x2="321.89" y2="231.62"/><line x1="243.30" y1="158.84" x2="242.19" y2="161.60"/><line x1="306.70" y1="321.39" x2="311.46" y2="311.82"/><line x1="263.21" y1="221.99" x2="312.28" y2="181.27"/><line x1="197.94" y1="283.74" x2="196.36" y2="283.99"/><line x1="217.41" y1="290.09" x2="204.25" y2="283.42"/><line x1="209.30" y1="283.57" x2="206.94" y2="283.45"/><line x1="249.49" y1="357.36" x2="251.43" y2="334.48"/><line x1="192.55" y1="285.80" x2="192.03" y2="286.63"/><line x1="217.41" y1="290.09" x2="192.03" y2="286.63"/><line x1="262.80" y1="315.03" x2="301.07" y2="329.82"/><line x1="191.17" y1="214.97" x2="241.30" y2="221.99"/><line x1="223.55" y1="141.55" x2="217.72" y2="146.04"/><line x1="261.18" y1="158.84" x2="276.28" y2="138.90"/><line x1="263.21" y1="308.05" x2="315.36" y2="301.11"/><line x1="243.67" y1="134.07" x2="246.85" y2="155.15"/><line x1="212.99" y1="284.05" x2="217.14" y2="288.43"/><line x1="196.36" y1="283.99" x2="195.04" y2="284.32"/><line x1="206.90" y1="338.07" x2="211.71" y2="343.19"/><line x1="217.61" y1="292.06" x2="217.75" y2="294.36"/><line x1="225.63" y1="325.44" x2="227.83" y2="328.20"/><line x1="263.21" y1="221.99" x2="241.30" y2="221.99"/><line x1="196.08" y1="320.53" x2="199.03" y2="326.60"/><line x1="235.19" y1="355.78" x2="241.79" y2="335.63"/><line x1="260.09" y1="134.17" x2="252.18" y2="153.92"/><line x1="32.00" y1="479.98" x2="64.49" y2="479.98"/><line x1="263.21" y1="221.99" x2="302.68" y2="162.55"/><line x1="192.14" y1="307.72" x2="193.78" y2="314.24"/><line x1="217.41" y1="290.09" x2="199.79" y2="283.56"/><line x1="222.60" y1="351.06" x2="235.60" y2="333.93"/><line x1="241.30" y1="168.98" x2="202.99" y2="165.39"/><line x1="190.83" y1="294.03" x2="217.83" y2="296.97"/><line x1="301.07" y1="329.82" x2="263.10" y2="311.65"/><line x1="281.20" y1="348.37" x2="288.21" y2="343.31"/><line x1="263.21" y1="242.34" x2="321.89" y2="231.62"/><line x1="266.10" y1="355.11" x2="273.84" y2="352.30"/><line x1="64.64" y1="32.09" x2="32.16" y2="64.58"/><line x1="263.21" y1="308.05" x2="320.55" y2="276.28"/><line x1="242.19" y1="161.60" x2="241.52" y2="164.98"/><line x1="195.04" y1="284.32" x2="193.98" y2="284.72"/><line x1="256.63" y1="330.41" x2="258.14" y2="328.45"/><line x1="318.39" y1="289.26" x2="320.55" y2="276.28"/><line x1="251.43" y1="334.48" x2="253.27" y2="333.43"/><line x1="263.10" y1="311.65" x2="263.21" y2="308.05"/><line x1="252.18" y1="153.92" x2="251.25" y2="133.57"/><line x1="296.83" y1="154.87" x2="290.48" y2="148.36"/><line x1="215.31" y1="284.84" x2="215.97" y2="285.35"/><line x1="193.98" y1="284.72" x2="193.18" y2="285.19"/><line x1="262.28" y1="318.17" x2="294.82" y2="337.13"/><line x1="218.66" y1="306.67" x2="219.49" y2="311.05"/><line x1="235.60" y1="333.93" x2="228.68" y2="353.82"/><line x1="273.84" y1="352.30" x2="259.49" y2="326.22"/><line x1="244.85" y1="156.69" x2="229.81" y2="138.06"/><line x1="301.07" y1="329.82" x2="306.70" y2="321.39"/><line x1="251.25" y1="133.57" x2="249.29" y2="154.22"/><line x1="263.21" y1="308.05" x2="322.28" y2="246.91"/><line x1="249.29" y1="154.22" x2="243.67" y2="134.07"/><line x1="193.78" y1="314.24" x2="196.08" y2="320.53"/><line x1="228.68" y1="353.82" x2="238.60" y2="334.99"/><line x1="257.58" y1="155.15" x2="255.10" y2="154.22"/><line x1="290.48" y1="148.36" x2="283.63" y2="143.04"/><line x1="320.55" y1="276.28" x2="321.85" y2="262.17"/><line x1="288.21" y1="343.31" x2="262.28" y2="318.17"/><line x1="191.16" y1="300.99" x2="192.14" y2="307.72"/><line x1="480.00" y1="32.02" x2="480.00" y2="64.50"/><line x1="216.94" y1="347.51" x2="232.81" y2="332.44"/><line x1="217.14" y1="288.43" x2="217.41" y2="290.09"/><line x1="191.02" y1="290.42" x2="190.88" y2="292.11"/><line x1="202.64" y1="332.44" x2="206.90" y2="338.07"/><line x1="190.83" y1="242.34" x2="241.30" y2="221.99"/><line x1="268.44" y1="135.94" x2="260.09" y2="134.17"/><line x1="212.33" y1="151.52" x2="207.38" y2="157.99"/><line x1="321.85" y1="262.17" x2="322.28" y2="246.91"/><line x1="229.81" y1="138.06" x2="243.30" y2="158.84"/><line x1="259.61" y1="156.69" x2="257.58" y2="155.15"/><line x1="480.00" y1="479.91" x2="480.00" y2="447.42"/><line x1="211.31" y1="283.77" x2="209.30" y2="283.57"/><line x1="190.88" y1="292.11" x2="217.61" y2="292.06"/><line x1="255.01" y1="332.07" x2="256.63" y2="330.41"/><line x1="311.46" y1="311.82" x2="315.36" y2="301.11"/><line x1="247.38" y1="335.69" x2="249.49" y2="357.36"/><line x1="238.60" y1="334.99" x2="235.19" y2="355.78"/><line x1="211.71" y1="343.19" x2="216.94" y2="347.51"/><line x1="262.31" y1="161.60" x2="261.18" y2="158.84"/><line x1="243.30" y1="158.84" x2="223.55" y2="141.55"/><line x1="214.32" y1="284.40" x2="212.99" y2="284.05"/><line x1="192.03" y1="286.63" x2="191.60" y2="287.68"/><line x1="218.11" y1="301.97" x2="218.66" y2="306.67"/><line x1="480.00" y1="64.50" x2="447.51" y2="32.02"/><line x1="232.81" y1="332.44" x2="222.60" y2="351.06"/><line x1="223.68" y1="322.31" x2="225.63" y2="325.44"/><line x1="249.49" y1="357.36" x2="249.46" y2="335.24"/><line x1="263.21" y1="168.98" x2="262.99" y2="164.98"/><line x1="246.85" y1="155.15" x2="236.52" y2="135.57"/><line x1="318.68" y1="204.29" x2="315.88" y2="192.24"/><line x1="263.21" y1="308.05" x2="311.46" y2="311.82"/><line x1="32.16" y1="32.09" x2="64.64" y2="32.09"/><line x1="217.41" y1="290.09" x2="191.26" y2="288.94"/><line x1="220.61" y1="315.11" x2="222.00" y2="318.87"/><line x1="447.51" y1="479.91" x2="480.00" y2="447.42"/><line x1="241.79" y1="335.63" x2="242.12" y2="356.96"/><line x1="217.61" y1="292.06" x2="190.83" y2="294.03"/><line x1="315.36" y1="301.11" x2="318.39" y2="289.26"/><line x1="294.82" y1="337.13" x2="301.07" y2="329.82"/><line x1="315.88" y1="192.24" x2="312.28" y2="181.27"/><line x1="32.00" y1="479.98" x2="32.00" y2="447.50"/><line x1="216.82" y1="287.09" x2="217.14" y2="288.43"/><line x1="191.60" y1="287.68" x2="191.26" y2="288.94"/><line x1="193.87" y1="192.61" x2="192.18" y2="203.37"/><line x1="260.62" y1="323.77" x2="261.55" y2="321.08"/><line x1="192.14" y1="307.72" x2="218.66" y2="306.67"/><line x1="321.89" y1="231.62" x2="263.21" y2="221.99"/><line x1="249.49" y1="357.36" x2="257.98" y2="356.80"/><line x1="191.17" y1="214.97" x2="190.83" y2="227.40"/><line x1="249.46" y1="335.24" x2="251.43" y2="334.48"/><line x1="263.21" y1="221.99" x2="263.21" y2="168.98"/><line x1="255.10" y1="154.22" x2="252.18" y2="153.92"/><line x1="236.52" y1="135.57" x2="244.85" y2="156.69"/><line x1="207.38" y1="157.99" x2="202.99" y2="165.39"/><line x1="217.41" y1="290.09" x2="196.36" y2="283.99"/><line x1="261.18" y1="158.84" x2="259.61" y2="156.69"/><line x1="217.75" y1="294.36" x2="217.83" y2="296.97"/><line x1="242.19" y1="161.60" x2="217.72" y2="146.04"/><line x1="241.30" y1="168.98" x2="196.24" y2="182.70"/><line x1="212.99" y1="284.05" x2="211.31" y2="283.77"/><line x1="191.26" y1="288.94" x2="191.02" y2="290.42"/><line x1="217.41" y1="290.09" x2="190.88" y2="292.11"/><line x1="199.03" y1="326.60" x2="202.64" y2="332.44"/><line x1="242.12" y1="356.96" x2="245.19" y2="335.84"/><line x1="276.28" y1="138.90" x2="268.44" y2="135.94"/><line x1="256.63" y1="330.41" x2="273.84" y2="352.30"/><line x1="217.72" y1="146.04" x2="241.52" y2="164.98"/><line x1="262.99" y1="164.98" x2="262.31" y2="161.60"/><line x1="216.43" y1="286.06" x2="214.32" y2="284.40"/><line x1="32.00" y1="447.50" x2="64.49" y2="479.98"/></g></svg>