<svg xmlns="http://www.w3.org/2000/svg" width="512" height="512"><rect width="512" height="512" fill="#0a0f1a"/><text x="12" y="20" font-family="monospace" font-size="11" fill="#4a7fa5">FRONT (XZ)</text><g stroke="#00d4ff" stroke-width="0.6" opacity="0.85"><line x1="294.70" y1="355.01" x2="218.63" y2="355.01"/><line x1="290.19" y1="331.49" x2="289.46" y2="331.04"/><line x1="219.05" y1="121.61" x2="218.41" y2="123.09"/><line x1="260.55" y1="129.19" x2="226.69" y2="304.15"/><line x1="258.71" y1="96.02" x2="331.40" y2="113.62"/><line x1="213.50" y1="353.76" x2="213.92" y2="354.08"/><line x1="258.71" y1="96.02" x2="323.07" y2="121.33"/><line x1="218.41" y1="123.09" x2="218.03" y2="124.57"/><line x1="218.06" y1="129.05" x2="218.02" y2="128.76"/><line x1="213.92" y1="354.08" x2="214.44" y2="354.37"/><line x1="287.28" y1="328.21" x2="287.04" y2="327.34"/><line x1="286.63" y1="283.81" x2="212.24" y2="348.14"/><line x1="286.63" y1="283.81" x2="215.07" y2="354.60"/><line x1="288.84" y1="235.29" x2="261.33" y2="124.98"/><line x1="287.04" y1="327.34" x2="286.86" y2="326.32"/><line x1="254.18" y1="113.48" x2="256.92" y2="117.83"/><line x1="182.54" y1="97.76" x2="182.04" y2="98.73"/><line x1="331.48" y1="100.37" x2="326.82" y2="96.02"/><line x1="212.91" y1="336.91" x2="214.54" y2="334.71"/><line x1="182.04" y1="98.73" x2="181.74" y2="99.92"/><line x1="299.86" y1="352.53" x2="298.49" y2="354.12"/><line x1="226.19" y1="97.76" x2="225.51" y2="97.00"/><line x1="254.39" y1="98.99" x2="254.60" y2="98.20"/><line x1="286.63" y1="283.81" x2="212.32" y2="341.66"/><line x1="217.90" y1="126.03" x2="182.84" y2="114.57"/><line x1="286.63" y1="283.81" x2="212.87" y2="352.65"/><line x1="329.67" y1="116.83" x2="328.88" y2="117.42"/><line x1="286.63" y1="283.81" x2="226.69" y2="323.46"/><line x1="218.49" y1="332.87" x2="220.66" y2="331.96"/><line x1="182.84" y1="114.57" x2="183.52" y2="115.32"/><line x1="186.54" y1="96.02" x2="219.95" y2="120.10"/><line x1="185.31" y1="116.81" x2="184.34" y2="116.07"/><line x1="294.70" y1="355.01" x2="300.32" y2="340.88"/><line x1="256.03" y1="96.55" x2="256.59" y2="96.31"/><line x1="212.32" y1="341.66" x2="212.24" y2="343.92"/><line x1="255.77" y1="116.94" x2="256.31" y2="117.39"/><line x1="226.69" y1="283.81" x2="226.69" y2="255.79"/><line x1="217.90" y1="126.03" x2="181.64" y2="101.34"/><line x1="286.63" y1="283.81" x2="212.21" y2="346.53"/><line x1="286.63" y1="283.81" x2="214.44" y2="354.37"/><line x1="480.00" y1="32.02" x2="447.51" y2="32.02"/><line x1="319.73" y1="126.85" x2="318.96" y2="129.16"/><line x1="186.54" y1="96.02" x2="225.58" y2="114.09"/><line x1="186.54" y1="96.02" x2="217.90" y2="126.03"/><line x1="239.36" y1="200.96" x2="225.61" y2="235.29"/><line x1="212.66" y1="338.15" x2="286.63" y2="283.81"/><line x1="258.61" y1="118.97" x2="253.90" y2="108.04"/><line x1="226.69" y1="255.79" x2="181.64" y2="255.79"/><line x1="217.52" y1="333.24" x2="218.49" y2="332.87"/><line x1="182.31" y1="113.81" x2="182.84" y2="114.57"/><line x1="331.10" y1="98.24" x2="329.10" y2="96.38"/><line x1="187.04" y1="118.12" x2="185.31" y2="116.81"/><line x1="300.32" y1="350.15" x2="294.70" y2="355.01"/><line x1="217.90" y1="126.03" x2="184.14" y2="96.45"/><line x1="286.63" y1="283.81" x2="225.18" y2="328.37"/><line x1="217.90" y1="126.03" x2="182.31" y2="113.81"/><line x1="255.56" y1="96.84" x2="256.03" y2="96.55"/><line x1="226.69" y1="323.46" x2="226.69" y2="304.15"/><line x1="186.54" y1="96.02" x2="227.06" y2="110.85"/><line x1="260.13" y1="120.56" x2="260.66" y2="121.43"/><line x1="186.54" y1="96.02" x2="221.09" y2="118.59"/><line x1="212.66" y1="338.15" x2="216.64" y2="333.60"/><line x1="321.79" y1="122.93" x2="320.68" y2="124.77"/><line x1="217.95" y1="128.03" x2="217.93" y2="127.60"/><line x1="218.63" y1="355.01" x2="287.04" y2="327.34"/><line x1="227.06" y1="110.85" x2="227.00" y2="111.45"/><line x1="253.97" y1="102.64" x2="254.07" y2="101.21"/><line x1="255.32" y1="116.47" x2="255.77" y2="116.94"/><line x1="320.68" y1="124.77" x2="319.73" y2="126.85"/><line x1="297.93" y1="335.36" x2="296.59" y2="334.34"/><line x1="255.77" y1="116.94" x2="254.18" y2="113.48"/><line x1="261.28" y1="125.61" x2="261.20" y2="126.27"/><line x1="296.59" y1="334.34" x2="294.94" y2="333.45"/><line x1="255.17" y1="97.20" x2="260.13" y2="120.56"/><line x1="224.93" y1="114.80" x2="224.16" y2="115.52"/><line x1="217.90" y1="126.03" x2="181.74" y2="99.92"/><line x1="255.17" y1="97.20" x2="288.84" y2="235.29"/><line x1="261.20" y1="126.27" x2="261.09" y2="126.96"/><line x1="480.00" y1="32.02" x2="480.00" y2="64.50"/><line x1="297.45" y1="354.61" x2="296.19" y2="354.91"/><line x1="212.32" y1="349.56" x2="212.45" y2="350.78"/><line x1="254.95" y1="115.97" x2="254.31" y2="114.32"/><line x1="224.16" y1="115.52" x2="222.50" y2="117.07"/><line x1="261.04" y1="122.36" x2="261.27" y2="123.33"/><line x1="186.54" y1="96.02" x2="226.11" y2="113.40"/><line x1="254.00" y1="111.17" x2="258.61" y2="118.97"/><line x1="288.84" y1="235.29" x2="331.48" y2="235.29"/><line x1="186.54" y1="96.02" x2="218.03" y2="124.57"/><line x1="480.00" y1="479.91" x2="480.00" y2="447.42"/><line x1="239.36" y1="200.96" x2="226.69" y2="255.79"/><line x1="212.66" y1="338.15" x2="222.50" y2="330.91"/><line x1="218.63" y1="355.01" x2="298.97" y2="336.53"/><line x1="212.45" y1="350.78" x2="212.63" y2="351.81"/><line x1="289.46" y1="331.04" x2="288.84" y2="330.57"/><line x1="218.63" y1="355.01" x2="288.84" y2="330.57"/><line x1="218.63" y1="355.01" x2="286.63" y2="322.49"/><line x1="258.61" y1="118.97" x2="253.94" y2="109.71"/><line x1="329.95" y1="96.82" x2="331.10" y2="98.24"/><line x1="288.84" y1="330.57" x2="288.32" y2="330.07"/><line x1="218.03" y1="124.57" x2="217.90" y2="126.03"/><line x1="331.10" y1="98.24" x2="330.62" y2="97.44"/><line x1="447.51" y1="479.91" x2="480.00" y2="447.42"/><line x1="226.69" y1="323.46" x2="260.55" y2="129.19"/><line x1="217.90" y1="126.03" x2="185.24" y2="96.13"/><line x1="255.17" y1="97.20" x2="254.21" y2="99.98"/><line x1="217.90" y1="126.03" x2="181.94" y2="113.04"/><line x1="181.64" y1="304.15" x2="226.69" y2="304.15"/><line x1="214.54" y1="334.71" x2="215.15" y2="334.34"/><line x1="217.98" y1="128.41" x2="217.95" y2="128.03"/><line x1="215.07" y1="354.60" x2="215.80" y2="354.78"/><line x1="186.54" y1="96.02" x2="222.50" y2="117.07"/><line x1="212.66" y1="338.15" x2="215.85" y2="333.97"/><line x1="298.49" y1="354.12" x2="297.45" y2="354.61"/><line x1="239.36" y1="200.96" x2="218.06" y2="129.05"/><line x1="218.63" y1="355.01" x2="293.00" y2="332.71"/><line x1="217.90" y1="126.03" x2="185.31" y2="116.81"/><line x1="286.73" y1="325.18" x2="286.65" y2="323.90"/><line x1="218.63" y1="355.01" x2="287.28" y2="328.21"/><line x1="331.48" y1="112.61" x2="331.40" y2="113.62"/><line x1="226.69" y1="323.46" x2="288.84" y2="235.29"/><line x1="223.58" y1="96.13" x2="222.32" y2="96.02"/><line x1="255.17" y1="97.20" x2="253.91" y2="104.30"/><line x1="255.17" y1="97.20" x2="261.04" y2="122.36"/><line x1="222.50" y1="330.91" x2="224.01" y2="329.72"/><line x1="254.95" y1="115.97" x2="254.67" y2="115.47"/><line x1="186.54" y1="96.02" x2="226.53" y2="112.73"/><line x1="331.48" y1="235.29" x2="331.48" y2="255.64"/><line x1="480.00" y1="479.91" x2="447.51" y2="479.91"/><line x1="217.90" y1="126.03" x2="192.41" y2="124.87"/><line x1="212.66" y1="338.15" x2="220.66" y2="331.96"/><line x1="218.63" y1="355.01" x2="299.72" y2="337.84"/><line x1="218.63" y1="355.01" x2="289.46" y2="331.04"/><line x1="254.46" y1="114.95" x2="254.31" y2="114.32"/><line x1="218.63" y1="355.01" x2="286.65" y2="323.90"/><line x1="225.61" y1="235.29" x2="194.16" y2="129.16"/><line x1="224.64" y1="96.45" x2="223.58" y2="96.13"/><line x1="214.44" y1="354.37" x2="215.07" y2="354.60"/><line x1="212.24" y1="343.92" x2="212.21" y2="346.53"/><line x1="286.86" y1="326.32" x2="286.73" y2="325.18"/><line x1="255.17" y1="97.20" x2="254.07" y2="101.21"/><line x1="181.64" y1="304.15" x2="181.64" y2="283.81"/><line x1="214.54" y1="334.71" x2="212.66" y2="338.15"/><line x1="181.74" y1="99.92" x2="181.64" y2="101.34"/><line x1="217.90" y1="126.03" x2="194.16" y2="129.16"/><line x1="298.49" y1="354.12" x2="299.29" y2="353.42"/><line x1="217.90" y1="126.03" x2="187.04" y2="118.12"/><line x1="218.63" y1="355.01" x2="294.94" y2="333.45"/><line x1="218.63" y1="355.01" x2="287.56" y2="328.94"/><line x1="181.64" y1="101.34" x2="181.64" y2="111.49"/><line x1="225.61" y1="235.29" x2="181.64" y2="235.29"/><line x1="192.41" y1="124.87" x2="191.30" y2="122.96"/><line x1="226.67" y1="98.73" x2="223.58" y2="96.13"/><line x1="213.22" y1="336.02" x2="212.91" y2="336.91"/><line x1="220.66" y1="331.96" x2="222.50" y2="330.91"/><line x1="223.58" y1="96.13" x2="226.96" y2="99.92"/><line x1="255.17" y1="97.20" x2="259.45" y2="119.73"/><line x1="194.16" y1="129.16" x2="217.90" y2="126.60"/><line x1="214.02" y1="335.08" x2="214.54" y2="334.71"/><line x1="327.94" y1="117.93" x2="326.15" y2="118.82"/><line x1="222.50" y1="330.91" x2="286.63" y2="283.81"/><line x1="300.32" y1="340.88" x2="218.63" y2="355.01"/><line x1="254.95" y1="115.97" x2="254.46" y2="114.95"/><line x1="331.38" y1="99.22" x2="331.48" y2="100.37"/><line x1="331.48" y1="235.29" x2="286.63" y2="255.64"/><line x1="217.90" y1="126.03" x2="193.36" y2="126.94"/><line x1="218.63" y1="355.01" x2="300.17" y2="339.28"/><line x1="326.82" y1="96.02" x2="331.48" y2="112.61"/><line x1="227.00" y1="111.45" x2="226.82" y2="112.08"/><line x1="258.71" y1="96.02" x2="329.67" y2="116.83"/><line x1="257.22" y1="96.15" x2="257.92" y2="96.05"/><line x1="258.71" y1="96.02" x2="318.96" y2="129.16"/><line x1="225.61" y1="235.29" x2="217.95" y2="128.03"/><line x1="224.64" y1="96.45" x2="226.67" y2="98.73"/><line x1="226.82" y1="112.08" x2="226.53" y2="112.73"/><line x1="193.36" y1="126.94" x2="192.41" y2="124.87"/><line x1="286.63" y1="283.81" x2="286.63" y2="255.64"/><line x1="254.60" y1="98.20" x2="254.86" y2="97.63"/><line x1="288.84" y1="235.29" x2="256.03" y2="96.55"/><line x1="286.63" y1="322.49" x2="286.63" y2="304.15"/><line x1="256.31" y1="117.39" x2="256.92" y2="117.83"/><line x1="288.84" y1="235.29" x2="260.94" y2="127.68"/><line x1="293.00" y1="332.71" x2="291.96" y2="332.33"/><line x1="328.88" y1="117.42" x2="327.94" y2="117.93"/><line x1="260.94" y1="127.68" x2="260.76" y2="128.43"/><line x1="221.09" y1="118.59" x2="219.95" y2="120.10"/><line x1="253.90" y1="108.04" x2="253.89" y2="106.16"/><line x1="258.71" y1="96.02" x2="331.48" y2="112.61"/><line x1="258.71" y1="96.02" x2="324.53" y2="119.96"/><line x1="225.61" y1="235.29" x2="181.64" y2="255.79"/><line x1="256.59" y1="96.31" x2="257.22" y2="96.15"/><line x1="254.31" y1="114.32" x2="254.18" y2="113.48"/><line x1="329.10" y1="96.38" x2="328.05" y2="96.11"/><line x1="213.22" y1="336.02" x2="213.58" y2="335.46"/><line x1="288.84" y1="235.29" x2="261.35" y2="124.37"/><line x1="226.69" y1="323.46" x2="286.63" y2="255.64"/><line x1="194.16" y1="129.16" x2="217.92" y2="127.12"/><line x1="254.18" y1="113.48" x2="256.31" y2="117.39"/><line x1="258.71" y1="96.02" x2="330.32" y2="116.16"/><line x1="258.71" y1="96.02" x2="319.73" y2="126.85"/><line x1="225.61" y1="235.29" x2="217.98" y2="128.41"/><line x1="294.94" y1="333.45" x2="293.00" y2="332.71"/><line x1="480.00" y1="64.50" x2="447.51" y2="32.02"/><line x1="300.20" y1="351.43" x2="300.32" y2="350.15"/><line x1="286.63" y1="283.81" x2="212.63" y2="351.81"/><line x1="286.63" y1="283.81" x2="217.59" y2="354.99"/><line x1="288.84" y1="235.29" x2="255.56" y2="96.84"/><line x1="288.84" y1="235.29" x2="261.09" y2="126.96"/><line x1="212.63" y1="351.81" x2="212.87" y2="352.65"/><line x1="222.32" y1="96.02" x2="186.54" y2="96.02"/><line x1="260.66" y1="121.43" x2="261.04" y2="122.36"/><line x1="224.01" y1="329.72" x2="225.18" y2="328.37"/><line x1="288.32" y1="330.07" x2="287.90" y2="329.54"/><line x1="253.90" y1="108.04" x2="255.17" y2="97.20"/><line x1="258.71" y1="96.02" x2="326.82" y2="96.02"/><line x1="299.86" y1="352.53" x2="300.20" y2="351.43"/><line x1="258.71" y1="96.02" x2="326.15" y2="118.82"/><line x1="226.69" y1="283.81" x2="239.36" y2="200.96"/><line x1="329.10" y1="96.38" x2="331.38" y2="99.22"/><line x1="286.63" y1="304.15" x2="331.48" y2="304.15"/><line x1="286.63" y1="283.81" x2="226.52" y2="325.24"/><line x1="215.80" y1="354.78" x2="216.64" y2="354.90"/><line x1="286.63" y1="283.81" x2="213.92" y2="354.08"/><line x1="257.62" y1="118.25" x2="258.61" y2="118.97"/><line x1="288.84" y1="235.29" x2="257.92" y2="96.05"/><line x1="288.84" y1="235.29" x2="258.71" y2="96.02"/><line x1="194.16" y1="129.16" x2="217.93" y2="127.60"/><line x1="261.09" y1="126.96" x2="260.94" y2="127.68"/><line x1="222.50" y1="117.07" x2="221.09" y2="118.59"/><line x1="215.15" y1="334.34" x2="215.85" y2="333.97"/><line x1="226.69" y1="255.79" x2="225.61" y2="235.29"/><line x1="331.19" y1="114.56" x2="330.83" y2="115.40"/><line x1="258.71" y1="96.02" x2="330.83" y2="115.40"/><line x1="253.94" y1="109.71" x2="253.90" y2="108.04"/><line x1="181.71" y1="112.27" x2="181.94" y2="113.04"/><line x1="286.63" y1="283.81" x2="212.47" y2="339.73"/><line x1="190.04" y1="121.20" x2="188.62" y2="119.58"/><line x1="286.63" y1="283.81" x2="212.45" y2="350.78"/><line x1="286.63" y1="283.81" x2="216.64" y2="354.90"/><line x1="288.84" y1="235.29" x2="261.27" y2="123.33"/><line x1="185.24" y1="96.13" x2="184.14" y2="96.45"/><line x1="254.18" y1="113.48" x2="254.08" y2="112.43"/><line x1="222.32" y1="96.02" x2="227.06" y2="101.34"/><line x1="217.95" y1="128.03" x2="194.16" y2="129.16"/><line x1="324.53" y1="119.96" x2="323.07" y2="121.33"/><line x1="258.61" y1="118.97" x2="259.45" y2="119.73"/><line x1="286.65" y1="323.90" x2="286.63" y2="322.49"/><line x1="32.16" y1="32.09" x2="32.16" y2="64.58"/><line x1="299.86" y1="352.53" x2="297.45" y2="354.61"/><line x1="331.40" y1="113.62" x2="331.19" y2="114.56"/><line x1="261.35" y1="124.37" x2="261.33" y2="124.98"/><line x1="226.69" y1="283.81" x2="226.69" y2="304.15"/><line x1="181.64" y1="111.49" x2="181.71" y2="112.27"/><line x1="217.90" y1="126.03" x2="182.04" y2="98.73"/><line x1="286.63" y1="283.81" x2="212.24" y2="343.92"/><line x1="191.30" y1="122.96" x2="190.04" y2="121.20"/><line x1="286.63" y1="283.81" x2="213.50" y2="353.76"/><line x1="257.62" y1="118.25" x2="254.00" y2="111.17"/><line x1="297.45" y1="354.61" x2="300.20" y2="351.43"/><line x1="226.96" y1="99.92" x2="227.06" y2="101.34"/><line x1="261.04" y1="122.36" x2="288.84" y2="235.29"/><line x1="186.54" y1="96.02" x2="218.41" y2="123.09"/><line x1="183.52" y1="115.32" x2="184.34" y2="116.07"/><line x1="253.89" y1="106.16" x2="253.91" y2="104.30"/><line x1="286.63" y1="283.81" x2="224.01" y2="329.72"/><line x1="217.90" y1="126.03" x2="181.71" y2="112.27"/><line x1="286.63" y1="283.81" x2="212.32" y2="349.56"/><line x1="328.05" y1="96.11" x2="326.82" y2="96.02"/><line x1="186.54" y1="96.02" x2="224.16" y2="115.52"/><line x1="212.66" y1="338.15" x2="215.15" y2="334.34"/><line x1="212.66" y1="338.15" x2="212.47" y2="339.73"/><line x1="32.00" y1="479.98" x2="64.49" y2="479.98"/><line x1="226.19" y1="97.76" x2="226.67" y2="98.73"/><line x1="217.90" y1="126.03" x2="182.54" y2="97.76"/><line x1="255.17" y1="97.20" x2="254.86" y2="97.63"/><line x1="217.90" y1="126.03" x2="183.52" y2="115.32"/><line x1="218.63" y1="355.01" x2="286.63" y2="304.15"/><line x1="226.52" y1="325.24" x2="226.69" y2="323.46"/><line x1="226.96" y1="99.92" x2="222.32" y2="96.02"/><line x1="186.54" y1="96.02" x2="226.82" y2="112.08"/><line x1="326.15" y1="118.82" x2="324.53" y2="119.96"/><line x1="186.54" y1="96.02" x2="219.05" y2="121.61"/><line x1="212.66" y1="338.15" x2="218.49" y2="332.87"/><line x1="218.63" y1="355.01" x2="290.19" y2="331.49"/><line x1="254.46" y1="114.95" x2="254.67" y2="115.47"/><line x1="218.63" y1="355.01" x2="286.73" y2="325.18"/><line x1="286.63" y1="255.64" x2="331.48" y2="255.64"/><line x1="300.17" y1="339.28" x2="299.72" y2="337.84"/><line x1="226.53" y1="112.73" x2="226.11" y2="113.40"/><line x1="255.17" y1="97.20" x2="260.66" y2="121.43"/><line x1="217.90" y1="126.03" x2="181.64" y2="111.49"/><line x1="255.17" y1="97.20" x2="255.56" y2="96.84"/><line x1="181.64" y1="304.15" x2="226.69" y2="283.81"/><line x1="328.05" y1="96.11" x2="331.48" y2="100.37"/><line x1="256.92" y1="117.83" x2="257.62" y2="118.25"/><line x1="186.54" y1="96.02" x2="224.93" y2="114.80"/><line x1="186.54" y1="96.02" x2="185.24" y2="96.13"/><line x1="291.96" y1="332.33" x2="291.02" y2="331.92"/><line x1="217.90" y1="126.03" x2="188.62" y2="119.58"/><line x1="218.63" y1="355.01" x2="296.59" y2="334.34"/><line x1="217.92" y1="127.12" x2="217.90" y2="126.60"/><line x1="218.63" y1="355.01" x2="287.90" y2="329.54"/><line x1="260.76" y1="128.43" x2="260.55" y2="129.19"/><line x1="32.00" y1="479.98" x2="32.00" y2="447.50"/><line x1="258.61" y1="118.97" x2="255.17" y2="97.20"/><line x1="329.95" y1="96.82" x2="329.10" y2="96.38"/><line x1="254.21" y1="99.98" x2="254.39" y2="98.99"/><line x1="219.95" y1="120.10" x2="219.05" y2="121.61"/><line x1="181.64" y1="255.79" x2="181.64" y2="235.29"/><line x1="213.16" y1="353.30" x2="213.50" y2="353.76"/><line x1="331.10" y1="98.24" x2="331.38" y2="99.22"/><line x1="330.32" y1="116.16" x2="329.67" y2="116.83"/><line x1="255.17" y1="97.20" x2="253.89" y2="106.16"/><line x1="300.32" y1="350.15" x2="300.32" y2="340.88"/><line x1="255.17" y1="97.20" x2="254.60" y2="98.20"/><line x1="217.90" y1="126.03" x2="183.24" y2="97.00"/><line x1="214.02" y1="335.08" x2="212.91" y2="336.91"/><line x1="287.56" y1="328.94" x2="287.28" y2="328.21"/><line x1="331.38" y1="99.22" x2="328.05" y2="96.11"/><line x1="186.54" y1="96.02" x2="227.00" y2="111.45"/><line x1="217.90" y1="126.03" x2="217.90" y2="126.60"/><line x1="212.66" y1="338.15" x2="217.52" y2="333.24"/><line x1="217.59" y1="354.99" x2="218.63" y2="355.01"/><line x1="225.18" y1="328.37" x2="226.02" y2="326.88"/><line x1="218.63" y1="355.01" x2="291.02" y2="331.92"/><line x1="218.63" y1="355.01" x2="286.86" y2="326.32"/><line x1="217.93" y1="127.60" x2="217.92" y2="127.12"/><line x1="224.64" y1="96.45" x2="225.51" y2="97.00"/><line x1="257.92" y1="96.05" x2="258.71" y2="96.02"/><line x1="255.17" y1="97.20" x2="253.97" y2="102.64"/><line x1="296.19" y1="354.91" x2="294.70" y2="355.01"/><line x1="288.84" y1="235.29" x2="318.96" y2="129.16"/><line x1="254.95" y1="115.97" x2="255.32" y2="116.47"/><line x1="254.00" y1="111.17" x2="253.94" y2="109.71"/><line x1="212.87" y1="352.65" x2="213.16" y2="353.30"/><line x1="227.06" y1="101.34" x2="227.06" y2="110.85"/><line x1="288.84" y1="235.29" x2="286.63" y2="255.64"/><line x1="217.90" y1="126.03" x2="190.04" y2="121.20"/><line x1="218.63" y1="355.01" x2="297.93" y2="335.36"/><line x1="218.63" y1="355.01" x2="288.32" y2="330.07"/><line x1="212.47" y1="339.73" x2="212.32" y2="341.66"/><line x1="329.95" y1="96.82" x2="330.62" y2="97.44"/><line x1="287.90" y1="329.54" x2="287.56" y2="328.94"/><line x1="254.31" y1="114.32" x2="255.77" y2="116.94"/><line x1="286.63" y1="283.81" x2="331.48" y2="283.81"/><line x1="213.22" y1="336.02" x2="214.02" y2="335.08"/><line x1="184.14" y1="96.45" x2="183.24" y2="97.00"/><line x1="255.17" y1="97.20" x2="254.39" y2="98.99"/><line x1="214.02" y1="335.08" x2="213.58" y2="335.46"/><line x1="216.64" y1="354.90" x2="217.59" y2="354.99"/><line x1="183.24" y1="97.00" x2="182.54" y2="97.76"/><line x1="261.27" y1="123.33" x2="261.35" y2="124.37"/><line x1="217.90" y1="126.03" x2="184.34" y2="116.07"/><line x1="218.63" y1="355.01" x2="291.96" y2="332.33"/><line x1="254.07" y1="101.21" x2="254.21" y2="99.98"/><line x1="215.85" y1="333.97" x2="216.64" y2="333.60"/><line x1="258.71" y1="96.02" x2="320.68" y2="124.77"/><line x1="225.61" y1="235.29" x2="218.02" y2="128.76"/><line x1="224.64" y1="96.45" x2="226.19" y2="97.76"/><line x1="330.83" y1="115.40" x2="330.32" y2="116.16"/><line x1="216.64" y1="333.60" x2="217.52" y2="333.24"/><line x1="300.20" y1="351.43" x2="296.19" y2="354.91"/><line x1="181.94" y1="113.04" x2="182.31" y2="113.81"/><line x1="288.84" y1="235.29" x2="261.20" y2="126.27"/><line x1="188.62" y1="119.58" x2="187.04" y2="118.12"/><line x1="296.19" y1="354.91" x2="300.32" y2="350.15"/><line x1="227.06" y1="101.34" x2="186.54" y2="96.02"/><line x1="217.90" y1="126.03" x2="191.30" y2="122.96"/><line x1="323.07" y1="121.33" x2="321.79" y2="122.93"/><line x1="258.71" y1="96.02" x2="327.94" y2="117.93"/><line x1="254.31" y1="114.32" x2="255.32" y2="116.47"/><line x1="286.63" y1="283.81" x2="286.63" y2="304.15"/><line x1="286.63" y1="304.15" x2="331.48" y2="283.81"/><line x1="253.91" y1="104.30" x2="253.97" y2="102.64"/><line x1="298.97" y1="336.53" x2="297.93" y2="335.36"/><line x1="261.33" y1="124.98" x2="261.28" y2="125.61"/><line x1="288.84" y1="235.29" x2="257.22" y2="96.15"/><line x1="64.64" y1="32.09" x2="32.16" y2="64.58"/><line x1="331.48" y1="283.81" x2="331.48" y2="304.15"/><line x1="288.84" y1="235.29" x2="260.55" y2="129.19"/><line x1="225.58" y1="114.09" x2="224.93" y2="114.80"/><line x1="260.55" y1="129.19" x2="239.36" y2="200.96"/><line x1="254.08" y1="112.43" x2="254.00" y2="111.17"/><line x1="226.69" y1="304.15" x2="239.36" y2="200.96"/><line x1="258.71" y1="96.02" x2="331.19" y2="114.56"/><line x1="258.71" y1="96.02" x2="321.79" y2="122.93"/><line x1="225.61" y1="235.29" x2="218.06" y2="129.05"/><line x1="226.67" y1="98.73" x2="226.96" y2="99.92"/><line x1="259.45" y1="119.73" x2="260.13" y2="120.56"/><line x1="286.63" y1="283.81" x2="215.80" y2="354.78"/><line x1="288.84" y1="235.29" x2="261.28" y2="125.61"/><line x1="194.16" y1="129.16" x2="193.36" y2="126.94"/><line x1="254.18" y1="113.48" x2="257.62" y2="118.25"/><line x1="300.32" y1="340.88" x2="300.17" y2="339.28"/><line x1="331.48" y1="100.37" x2="331.48" y2="112.61"/><line x1="212.91" y1="336.91" x2="212.66" y2="338.15"/><line x1="218.02" y1="128.76" x2="217.98" y2="128.41"/><line x1="299.72" y1="337.84" x2="298.97" y2="336.53"/><line x1="32.16" y1="32.09" x2="64.64" y2="32.09"/><line x1="299.86" y1="352.53" x2="299.29" y2="353.42"/><line x1="258.71" y1="96.02" x2="328.88" y2="117.42"/><line x1="226.11" y1="113.40" x2="225.58" y2="114.09"/><line x1="226.02" y1="326.88" x2="226.52" y2="325.24"/><line x1="226.69" y1="283.81" x2="181.64" y2="283.81"/><line x1="212.21" y1="346.53" x2="212.24" y2="348.14"/><line x1="286.63" y1="283.81" x2="226.02" y2="326.88"/><line x1="286.63" y1="283.81" x2="213.16" y2="353.30"/><line x1="257.62" y1="118.25" x2="254.08" y2="112.43"/><line x1="288.84" y1="235.29" x2="256.59" y2="96.31"/><line x1="286.63" y1="283.81" x2="218.63" y2="355.01"/><line x1="212.24" y1="348.14" x2="212.32" y2="349.56"/><line x1="288.84" y1="235.29" x2="260.76" y2="128.43"/><line x1="291.02" y1="331.92" x2="290.19" y2="331.49"/><line x1="32.00" y1="447.50" x2="64.49" y2="479.98"/></g></svg>