<svg xmlns="http://www.w3.org/2000/svg" width="512" height="512"><rect width="512" height="512" fill="#0a0f1a"/><text x="12" y="20" font-family="monospace" font-size="11" fill="#4a7fa5">FRONT (XZ)</text><g stroke="#00d4ff" stroke-width="0.6" opacity="0.85"><line x1="210.71" y1="102.21" x2="207.07" y2="104.28"/><line x1="259.68" y1="299.10" x2="287.19" y2="294.48"/><line x1="199.93" y1="294.63" x2="187.25" y2="285.35"/><line x1="215.39" y1="357.12" x2="218.86" y2="357.59"/><line x1="281.20" y1="344.35" x2="286.24" y2="349.17"/><line x1="199.93" y1="294.63" x2="178.01" y2="288.82"/><line x1="252.75" y1="268.81" x2="252.29" y2="263.03"/><line x1="252.77" y1="246.25" x2="256.47" y2="216.91"/><line x1="302.79" y1="246.25" x2="335.83" y2="218.27"/><line x1="177.31" y1="290.86" x2="176.89" y2="293.34"/><line x1="302.79" y1="246.25" x2="330.70" y2="216.13"/><line x1="243.80" y1="94.96" x2="244.52" y2="115.30"/><line x1="187.99" y1="172.56" x2="224.36" y2="173.95"/><line x1="286.24" y1="349.17" x2="291.46" y2="352.92"/><line x1="292.60" y1="267.55" x2="252.13" y2="257.33"/><line x1="301.06" y1="293.20" x2="299.47" y2="293.22"/><line x1="295.41" y1="260.55" x2="252.34" y2="251.82"/><line x1="336.22" y1="242.83" x2="332.76" y2="246.16"/><line x1="293.87" y1="105.89" x2="286.46" y2="101.91"/><line x1="176.89" y1="293.34" x2="176.75" y2="296.28"/><line x1="229.50" y1="357.19" x2="231.90" y2="356.76"/><line x1="181.87" y1="140.01" x2="181.25" y2="144.59"/><line x1="201.47" y1="297.42" x2="203.69" y2="299.70"/><line x1="299.47" y1="293.22" x2="297.75" y2="293.30"/><line x1="217.79" y1="217.37" x2="216.82" y2="217.93"/><line x1="326.38" y1="176.60" x2="326.59" y2="170.27"/><line x1="231.23" y1="129.41" x2="193.94" y2="115.66"/><line x1="231.90" y1="356.76" x2="229.62" y2="303.38"/><line x1="259.68" y1="299.10" x2="318.25" y2="356.19"/><line x1="315.08" y1="357.06" x2="318.25" y2="356.19"/><line x1="259.68" y1="299.10" x2="335.74" y2="334.10"/><line x1="216.88" y1="245.72" x2="216.40" y2="245.49"/><line x1="231.54" y1="153.78" x2="231.09" y2="158.09"/><line x1="259.68" y1="299.10" x2="326.21" y2="301.37"/><line x1="197.79" y1="286.75" x2="196.10" y2="285.80"/><line x1="203.69" y1="299.70" x2="178.69" y2="315.96"/><line x1="259.68" y1="299.10" x2="297.75" y2="293.30"/><line x1="326.59" y1="170.27" x2="264.81" y2="163.32"/><line x1="227.62" y1="96.68" x2="237.73" y2="118.13"/><line x1="318.25" y1="356.19" x2="321.20" y2="354.97"/><line x1="302.79" y1="246.25" x2="336.37" y2="222.51"/><line x1="178.69" y1="315.96" x2="179.78" y2="320.38"/><line x1="302.79" y1="246.25" x2="334.51" y2="216.75"/><line x1="244.63" y1="352.17" x2="247.74" y2="350.30"/><line x1="237.73" y1="118.13" x2="222.91" y2="97.71"/><line x1="231.09" y1="158.09" x2="182.33" y2="160.51"/><line x1="256.47" y1="216.91" x2="302.79" y2="246.25"/><line x1="187.99" y1="172.56" x2="214.78" y2="180.28"/><line x1="257.68" y1="292.86" x2="287.67" y2="287.91"/><line x1="265.56" y1="148.13" x2="320.08" y2="136.98"/><line x1="219.15" y1="303.76" x2="224.27" y2="303.66"/><line x1="247.74" y1="350.30" x2="235.18" y2="302.91"/><line x1="182.33" y1="160.51" x2="183.32" y2="163.82"/><line x1="215.17" y1="242.39" x2="215.11" y2="241.50"/><line x1="198.82" y1="290.08" x2="192.44" y2="285.50"/><line x1="320.08" y1="136.98" x2="316.41" y2="129.73"/><line x1="233.97" y1="122.60" x2="210.71" y2="102.21"/><line x1="259.68" y1="299.10" x2="296.83" y2="355.60"/><line x1="333.88" y1="340.89" x2="334.96" y2="337.62"/><line x1="259.68" y1="299.10" x2="328.73" y2="349.26"/><line x1="259.68" y1="299.10" x2="335.54" y2="317.45"/><line x1="335.59" y1="217.76" x2="335.32" y2="217.35"/><line x1="259.68" y1="299.10" x2="313.02" y2="294.70"/><line x1="186.48" y1="335.97" x2="188.65" y2="339.28"/><line x1="246.99" y1="301.38" x2="253.22" y2="300.34"/><line x1="210.71" y1="102.21" x2="233.03" y2="124.27"/><line x1="227.94" y1="168.75" x2="187.99" y2="172.56"/><line x1="252.75" y1="268.81" x2="292.60" y2="267.55"/><line x1="215.52" y1="219.76" x2="216.06" y2="218.73"/><line x1="335.32" y1="217.35" x2="334.96" y2="217.03"/><line x1="302.79" y1="246.25" x2="336.02" y2="218.90"/><line x1="300.61" y1="110.75" x2="293.87" y2="105.89"/><line x1="200.22" y1="109.35" x2="197.01" y2="112.35"/><line x1="302.79" y1="246.25" x2="331.67" y2="216.15"/><line x1="187.99" y1="172.56" x2="226.30" y2="171.54"/><line x1="295.41" y1="260.55" x2="252.25" y2="253.41"/><line x1="219.15" y1="303.76" x2="205.47" y2="353.82"/><line x1="335.78" y1="244.71" x2="335.96" y2="244.21"/><line x1="293.87" y1="105.89" x2="262.06" y2="125.95"/><line x1="480.00" y1="32.02" x2="447.51" y2="32.02"/><line x1="217.79" y1="217.37" x2="216.06" y2="218.73"/><line x1="255.85" y1="117.88" x2="251.58" y2="115.86"/><line x1="259.68" y1="299.10" x2="271.59" y2="331.48"/><line x1="231.23" y1="129.41" x2="197.01" y2="112.35"/><line x1="288.72" y1="281.22" x2="290.37" y2="274.44"/><line x1="259.68" y1="299.10" x2="315.08" y2="357.06"/><line x1="259.68" y1="299.10" x2="334.96" y2="337.62"/><line x1="334.83" y1="245.66" x2="334.27" y2="245.88"/><line x1="265.17" y1="139.39" x2="264.01" y2="132.00"/><line x1="330.70" y1="216.13" x2="316.77" y2="216.13"/><line x1="259.68" y1="299.10" x2="328.90" y2="303.88"/><line x1="260.05" y1="95.29" x2="249.87" y2="94.84"/><line x1="212.02" y1="181.06" x2="209.10" y2="181.54"/><line x1="335.96" y1="244.21" x2="336.11" y2="243.58"/><line x1="262.59" y1="182.08" x2="324.79" y2="189.49"/><line x1="193.93" y1="285.58" x2="198.82" y2="290.08"/><line x1="224.27" y1="303.66" x2="224.75" y2="357.69"/><line x1="186.14" y1="127.13" x2="184.31" y2="131.28"/><line x1="200.03" y1="180.95" x2="197.28" y2="180.02"/><line x1="332.48" y1="343.92" x2="333.88" y2="340.89"/><line x1="335.83" y1="218.27" x2="335.59" y2="217.76"/><line x1="256.47" y1="216.91" x2="258.88" y2="204.40"/><line x1="238.06" y1="95.30" x2="240.87" y2="116.25"/><line x1="184.49" y1="332.42" x2="186.48" y2="335.97"/><line x1="219.15" y1="303.76" x2="218.86" y2="357.59"/><line x1="290.37" y1="274.44" x2="252.75" y2="268.81"/><line x1="336.30" y1="241.96" x2="336.35" y2="240.97"/><line x1="176.87" y1="301.50" x2="177.23" y2="306.52"/><line x1="231.69" y1="149.08" x2="231.54" y2="153.78"/><line x1="262.75" y1="338.85" x2="246.99" y2="301.38"/><line x1="259.68" y1="299.10" x2="291.46" y2="352.92"/><line x1="259.68" y1="299.10" x2="326.44" y2="351.51"/><line x1="331.81" y1="246.23" x2="330.72" y2="246.25"/><line x1="218.98" y1="217.02" x2="215.52" y2="219.76"/><line x1="264.81" y1="163.32" x2="324.96" y2="152.77"/><line x1="188.20" y1="285.37" x2="187.72" y2="285.36"/><line x1="181.05" y1="149.33" x2="181.19" y2="153.25"/><line x1="246.99" y1="301.38" x2="264.31" y2="337.48"/><line x1="335.54" y1="317.45" x2="334.50" y2="313.53"/><line x1="215.52" y1="219.76" x2="217.79" y2="217.37"/><line x1="206.56" y1="301.48" x2="210.10" y2="302.74"/><line x1="256.47" y1="216.91" x2="215.09" y2="240.51"/><line x1="187.72" y1="285.36" x2="187.25" y2="285.35"/><line x1="222.91" y1="97.71" x2="218.53" y2="98.97"/><line x1="199.25" y1="350.04" x2="219.15" y2="303.76"/><line x1="224.27" y1="303.66" x2="229.62" y2="303.38"/><line x1="200.22" y1="109.35" x2="231.23" y2="129.41"/><line x1="334.50" y1="313.53" x2="333.05" y2="309.96"/><line x1="252.19" y1="254.86" x2="252.25" y2="253.41"/><line x1="331.67" y1="216.15" x2="330.70" y2="216.13"/><line x1="236.34" y1="119.42" x2="235.08" y2="120.94"/><line x1="219.15" y1="303.76" x2="202.32" y2="352.09"/><line x1="269.56" y1="333.06" x2="259.68" y2="299.10"/><line x1="214.78" y1="180.28" x2="212.02" y2="181.06"/><line x1="252.25" y1="253.41" x2="252.34" y2="251.82"/><line x1="480.00" y1="32.02" x2="480.00" y2="64.50"/><line x1="183.59" y1="285.22" x2="181.78" y2="285.44"/><line x1="255.85" y1="117.88" x2="260.05" y2="95.29"/><line x1="230.34" y1="162.03" x2="229.30" y2="165.58"/><line x1="259.68" y1="299.10" x2="270.62" y2="332.22"/><line x1="288.72" y1="281.22" x2="253.52" y2="274.68"/><line x1="320.01" y1="297.36" x2="316.61" y2="295.87"/><line x1="259.68" y1="299.10" x2="311.69" y2="357.58"/><line x1="480.00" y1="479.91" x2="480.00" y2="447.42"/><line x1="334.83" y1="245.66" x2="335.96" y2="244.21"/><line x1="214.29" y1="303.51" x2="196.31" y2="347.72"/><line x1="265.17" y1="139.39" x2="306.65" y2="116.50"/><line x1="181.78" y1="285.44" x2="180.24" y2="286.12"/><line x1="218.86" y1="357.59" x2="224.27" y2="303.66"/><line x1="188.38" y1="123.13" x2="186.14" y2="127.13"/><line x1="316.61" y1="295.87" x2="313.02" y2="294.70"/><line x1="256.47" y1="216.91" x2="221.34" y2="246.25"/><line x1="256.47" y1="216.91" x2="215.58" y2="244.41"/><line x1="262.59" y1="182.08" x2="323.38" y2="196.04"/><line x1="253.22" y1="300.34" x2="268.39" y2="334.01"/><line x1="207.07" y1="104.28" x2="203.57" y2="106.66"/><line x1="224.27" y1="303.66" x2="222.40" y2="357.75"/><line x1="291.46" y1="352.92" x2="296.83" y2="355.60"/><line x1="200.03" y1="180.95" x2="194.70" y2="178.72"/><line x1="221.34" y1="246.25" x2="220.17" y2="246.23"/><line x1="447.51" y1="479.91" x2="480.00" y2="447.42"/><line x1="238.06" y1="95.30" x2="242.63" y2="115.66"/><line x1="296.83" y1="355.60" x2="302.38" y2="357.21"/><line x1="194.70" y1="178.72" x2="197.28" y2="180.02"/><line x1="196.10" y1="285.80" x2="198.32" y2="288.09"/><line x1="336.30" y1="241.96" x2="331.81" y2="246.23"/><line x1="176.87" y1="301.50" x2="201.47" y2="297.42"/><line x1="231.69" y1="149.08" x2="181.05" y2="149.33"/><line x1="295.90" y1="293.43" x2="293.92" y2="293.62"/><line x1="179.78" y1="320.38" x2="181.12" y2="324.60"/><line x1="264.81" y1="163.32" x2="326.18" y2="161.30"/><line x1="234.32" y1="356.20" x2="236.75" y2="355.51"/><line x1="181.05" y1="149.33" x2="231.54" y2="153.78"/><line x1="216.05" y1="245.21" x2="215.80" y2="244.86"/><line x1="256.47" y1="216.91" x2="217.49" y2="245.91"/><line x1="206.56" y1="301.48" x2="182.70" y2="328.62"/><line x1="256.47" y1="216.91" x2="215.11" y2="241.50"/><line x1="222.91" y1="97.71" x2="236.34" y2="119.42"/><line x1="255.99" y1="286.71" x2="254.60" y2="280.65"/><line x1="192.44" y1="285.50" x2="190.70" y2="285.43"/><line x1="316.41" y1="129.73" x2="311.94" y2="122.90"/><line x1="236.34" y1="119.42" x2="218.53" y2="98.97"/><line x1="229.62" y1="303.38" x2="247.74" y2="350.30"/><line x1="183.32" y1="163.82" x2="230.34" y2="162.03"/><line x1="263.89" y1="172.26" x2="326.59" y2="170.27"/><line x1="199.05" y1="291.34" x2="199.93" y2="294.63"/><line x1="233.03" y1="124.27" x2="232.26" y2="125.97"/><line x1="230.34" y1="162.03" x2="184.59" y2="166.94"/><line x1="215.09" y1="222.49" x2="215.20" y2="221.01"/><line x1="480.00" y1="479.91" x2="447.51" y2="479.91"/><line x1="214.29" y1="303.51" x2="193.57" y2="345.16"/><line x1="256.47" y1="216.91" x2="215.80" y2="244.86"/><line x1="262.06" y1="125.95" x2="278.34" y2="98.82"/><line x1="176.75" y1="296.28" x2="176.87" y2="301.50"/><line x1="253.22" y1="300.34" x2="267.13" y2="335.06"/><line x1="207.07" y1="104.28" x2="232.26" y2="125.97"/><line x1="252.13" y1="257.33" x2="252.14" y2="256.16"/><line x1="297.75" y1="293.30" x2="295.90" y2="293.43"/><line x1="229.62" y1="303.38" x2="234.32" y2="356.20"/><line x1="210.10" y1="302.74" x2="214.29" y2="303.51"/><line x1="316.77" y1="216.13" x2="260.92" y2="192.80"/><line x1="196.10" y1="285.80" x2="198.06" y2="287.33"/><line x1="193.94" y1="115.66" x2="191.02" y2="119.28"/><line x1="321.20" y1="354.97" x2="323.93" y2="353.41"/><line x1="251.58" y1="115.86" x2="246.53" y2="115.19"/><line x1="179.78" y1="320.38" x2="206.56" y2="301.48"/><line x1="206.05" y1="181.70" x2="202.95" y2="181.51"/><line x1="323.93" y1="353.41" x2="326.44" y2="351.51"/><line x1="252.60" y1="248.25" x2="252.77" y2="246.25"/><line x1="334.27" y1="245.88" x2="333.58" y2="246.04"/><line x1="256.47" y1="216.91" x2="218.25" y2="246.06"/><line x1="336.35" y1="221.45" x2="336.28" y2="220.49"/><line x1="249.87" y1="94.84" x2="243.80" y2="94.96"/><line x1="206.56" y1="301.48" x2="181.12" y2="324.60"/><line x1="231.69" y1="145.56" x2="182.88" y2="135.57"/><line x1="235.18" y1="302.91" x2="251.10" y2="348.03"/><line x1="255.99" y1="286.71" x2="288.72" y2="281.22"/><line x1="196.79" y1="285.94" x2="197.79" y2="286.75"/><line x1="336.11" y1="243.58" x2="336.22" y2="242.83"/><line x1="324.79" y1="189.49" x2="325.78" y2="183.01"/><line x1="192.44" y1="285.50" x2="199.05" y2="291.34"/><line x1="316.41" y1="129.73" x2="265.17" y2="139.39"/><line x1="251.10" y1="348.03" x2="254.72" y2="345.37"/><line x1="229.62" y1="303.38" x2="244.63" y2="352.17"/><line x1="334.96" y1="337.62" x2="335.74" y2="334.10"/><line x1="215.09" y1="240.51" x2="215.09" y2="222.49"/><line x1="263.89" y1="172.26" x2="326.38" y2="176.60"/><line x1="199.05" y1="291.34" x2="190.70" y2="285.43"/><line x1="188.65" y1="339.28" x2="214.29" y2="303.51"/><line x1="233.03" y1="124.27" x2="207.07" y2="104.28"/><line x1="335.74" y1="334.10" x2="336.22" y2="330.35"/><line x1="199.93" y1="294.63" x2="185.51" y2="285.22"/><line x1="334.96" y1="217.03" x2="334.51" y2="216.75"/><line x1="199.93" y1="294.63" x2="176.87" y2="301.50"/><line x1="232.67" y1="95.88" x2="227.62" y2="96.68"/><line x1="214.29" y1="303.51" x2="191.02" y2="342.34"/><line x1="216.40" y1="245.49" x2="216.05" y2="245.21"/><line x1="298.81" y1="253.46" x2="302.79" y2="246.25"/><line x1="264.31" y1="337.48" x2="253.22" y2="300.34"/><line x1="226.30" y1="171.54" x2="224.36" y2="173.95"/><line x1="252.29" y1="263.03" x2="252.13" y2="257.33"/><line x1="330.72" y1="246.25" x2="302.79" y2="246.25"/><line x1="187.25" y1="285.35" x2="186.80" y2="285.32"/><line x1="262.06" y1="125.95" x2="286.46" y2="101.91"/><line x1="253.22" y1="300.34" x2="265.76" y2="336.22"/><line x1="336.37" y1="222.51" x2="336.35" y2="221.45"/><line x1="216.06" y1="218.73" x2="216.82" y2="217.93"/><line x1="186.80" y1="285.32" x2="186.35" y2="285.29"/><line x1="287.67" y1="287.91" x2="255.99" y2="286.71"/><line x1="197.01" y1="112.35" x2="193.94" y2="115.66"/><line x1="331.18" y1="306.74" x2="328.90" y2="303.88"/><line x1="210.10" y1="302.74" x2="188.65" y2="339.28"/><line x1="316.77" y1="216.13" x2="258.88" y2="204.40"/><line x1="240.97" y1="302.24" x2="246.99" y2="301.38"/><line x1="205.47" y1="353.82" x2="208.70" y2="355.23"/><line x1="215.11" y1="241.50" x2="215.09" y2="240.51"/><line x1="209.10" y1="181.54" x2="206.05" y2="181.70"/><line x1="252.46" y1="250.11" x2="252.60" y2="248.25"/><line x1="259.68" y1="299.10" x2="289.57" y2="294.14"/><line x1="199.93" y1="294.63" x2="187.72" y2="285.36"/><line x1="199.93" y1="294.63" x2="178.98" y2="287.25"/><line x1="251.58" y1="115.86" x2="249.87" y2="94.84"/><line x1="271.59" y1="331.48" x2="276.31" y2="338.45"/><line x1="334.27" y1="245.88" x2="336.11" y2="243.58"/><line x1="264.01" y1="132.00" x2="262.06" y2="125.95"/><line x1="292.60" y1="267.55" x2="252.29" y2="263.03"/><line x1="187.99" y1="172.56" x2="190.05" y2="174.98"/><line x1="231.69" y1="145.56" x2="184.31" y2="131.28"/><line x1="196.79" y1="285.94" x2="197.22" y2="286.10"/><line x1="201.47" y1="297.42" x2="177.84" y2="311.34"/><line x1="324.79" y1="189.49" x2="263.89" y2="172.26"/><line x1="240.87" y1="116.25" x2="239.24" y2="117.07"/><line x1="336.35" y1="240.97" x2="336.37" y2="239.86"/><line x1="333.05" y1="309.96" x2="331.18" y2="306.74"/><line x1="231.54" y1="153.78" x2="181.62" y2="156.98"/><line x1="259.68" y1="299.10" x2="299.47" y2="293.22"/><line x1="198.32" y1="288.09" x2="198.58" y2="289.00"/><line x1="199.93" y1="294.63" x2="185.92" y2="285.26"/><line x1="324.96" y1="152.77" x2="322.93" y2="144.66"/><line x1="199.93" y1="294.63" x2="176.75" y2="296.28"/><line x1="302.79" y1="246.25" x2="334.96" y2="217.03"/><line x1="195.14" y1="285.69" x2="193.93" y2="285.58"/><line x1="265.37" y1="155.28" x2="265.56" y2="148.13"/><line x1="187.99" y1="172.56" x2="217.40" y2="179.17"/><line x1="230.89" y1="132.93" x2="231.69" y2="145.56"/><line x1="218.53" y1="98.97" x2="214.50" y2="100.46"/><line x1="202.32" y1="352.09" x2="205.47" y2="353.82"/><line x1="231.69" y1="145.56" x2="231.69" y2="149.08"/><line x1="295.41" y1="260.55" x2="298.81" y2="253.46"/><line x1="480.00" y1="64.50" x2="447.51" y2="32.02"/><line x1="182.70" y1="328.62" x2="184.49" y2="332.42"/><line x1="235.08" y1="120.94" x2="233.97" y2="122.60"/><line x1="184.59" y1="166.94" x2="186.15" y2="169.85"/><line x1="180.24" y1="286.12" x2="178.98" y2="287.25"/><line x1="240.97" y1="302.24" x2="262.75" y2="338.85"/><line x1="259.68" y1="299.10" x2="336.16" y2="321.72"/><line x1="229.30" y1="165.58" x2="227.94" y2="168.75"/><line x1="259.68" y1="299.10" x2="316.61" y2="295.87"/><line x1="220.38" y1="216.91" x2="218.98" y2="217.02"/><line x1="259.68" y1="299.10" x2="291.81" y2="293.85"/><line x1="199.93" y1="294.63" x2="188.20" y2="285.37"/><line x1="306.65" y1="116.50" x2="300.61" y2="110.75"/><line x1="199.93" y1="294.63" x2="180.24" y2="286.12"/><line x1="232.26" y1="125.97" x2="231.66" y2="127.68"/><line x1="222.40" y1="357.75" x2="224.75" y2="357.69"/><line x1="309.23" y1="293.86" x2="305.24" y2="293.36"/><line x1="302.79" y1="246.25" x2="336.17" y2="219.64"/><line x1="215.20" y1="221.01" x2="215.52" y2="219.76"/><line x1="302.79" y1="246.25" x2="332.53" y2="216.22"/><line x1="203.57" y1="106.66" x2="200.22" y2="109.35"/><line x1="187.99" y1="172.56" x2="206.05" y2="181.70"/><line x1="295.41" y1="260.55" x2="252.19" y2="254.86"/><line x1="335.78" y1="244.71" x2="334.83" y2="245.66"/><line x1="219.15" y1="246.16" x2="218.25" y2="246.06"/><line x1="278.34" y1="98.82" x2="269.54" y2="96.61"/><line x1="201.47" y1="297.42" x2="177.23" y2="306.52"/><line x1="240.87" y1="116.25" x2="232.67" y2="95.88"/><line x1="260.92" y1="192.80" x2="262.59" y2="182.08"/><line x1="336.35" y1="240.97" x2="330.72" y2="246.25"/><line x1="259.34" y1="121.24" x2="255.85" y2="117.88"/><line x1="252.34" y1="251.82" x2="252.46" y2="250.11"/><line x1="259.68" y1="299.10" x2="333.88" y2="340.89"/><line x1="231.54" y1="153.78" x2="181.19" y2="153.25"/><line x1="259.68" y1="299.10" x2="331.18" y2="306.74"/><line x1="291.81" y1="293.85" x2="289.57" y2="294.14"/><line x1="260.05" y1="95.29" x2="251.58" y2="115.86"/><line x1="335.27" y1="245.40" x2="334.83" y2="245.66"/><line x1="259.68" y1="299.10" x2="301.06" y2="293.20"/><line x1="270.62" y1="332.22" x2="271.59" y2="331.48"/><line x1="198.32" y1="288.09" x2="195.14" y2="285.69"/><line x1="199.93" y1="294.63" x2="186.35" y2="285.29"/><line x1="324.96" y1="152.77" x2="265.37" y2="155.28"/><line x1="191.02" y1="119.28" x2="188.38" y2="123.13"/><line x1="335.96" y1="244.21" x2="334.27" y2="245.88"/><line x1="215.58" y1="244.41" x2="215.40" y2="243.84"/><line x1="302.79" y1="246.25" x2="335.32" y2="217.35"/><line x1="186.14" y1="127.13" x2="231.69" y2="145.56"/><line x1="313.02" y1="294.70" x2="309.23" y2="293.86"/><line x1="187.99" y1="172.56" x2="219.86" y2="177.74"/><line x1="218.53" y1="98.97" x2="235.08" y2="120.94"/><line x1="202.95" y1="181.51" x2="200.03" y2="180.95"/><line x1="328.73" y1="349.26" x2="330.76" y2="346.71"/><line x1="323.38" y1="196.04" x2="324.79" y2="189.49"/><line x1="256.47" y1="216.91" x2="316.77" y2="216.13"/><line x1="295.41" y1="260.55" x2="252.60" y2="248.25"/><line x1="219.15" y1="303.76" x2="215.39" y2="357.12"/><line x1="190.70" y1="285.43" x2="188.69" y2="285.37"/><line x1="336.17" y1="219.64" x2="336.02" y2="218.90"/><line x1="220.17" y1="246.23" x2="219.15" y2="246.16"/><line x1="184.59" y1="166.94" x2="229.30" y2="165.58"/><line x1="254.60" y1="280.65" x2="253.52" y2="274.68"/><line x1="242.63" y1="115.66" x2="240.87" y2="116.25"/><line x1="302.38" y1="357.21" x2="308.08" y2="357.75"/><line x1="259.68" y1="299.10" x2="286.24" y2="349.17"/><line x1="311.94" y1="122.90" x2="306.65" y2="116.50"/><line x1="259.68" y1="299.10" x2="323.93" y2="353.41"/><line x1="240.97" y1="302.24" x2="258.60" y2="342.31"/><line x1="331.81" y1="246.23" x2="336.35" y2="240.97"/><line x1="259.68" y1="299.10" x2="336.37" y2="326.35"/><line x1="259.68" y1="299.10" x2="320.01" y2="297.36"/><line x1="220.38" y1="216.91" x2="215.20" y2="221.01"/><line x1="203.69" y1="299.70" x2="206.56" y2="301.48"/><line x1="259.68" y1="299.10" x2="293.92" y2="293.62"/><line x1="293.92" y1="293.62" x2="291.81" y2="293.85"/><line x1="232.26" y1="125.97" x2="203.57" y2="106.66"/><line x1="336.37" y1="326.35" x2="336.16" y2="321.72"/><line x1="326.18" y1="161.30" x2="324.96" y2="152.77"/><line x1="236.75" y1="355.51" x2="239.20" y2="354.71"/><line x1="302.79" y1="246.25" x2="336.28" y2="220.49"/><line x1="32.16" y1="32.09" x2="32.16" y2="64.58"/><line x1="224.27" y1="303.66" x2="231.90" y2="356.76"/><line x1="333.95" y1="216.52" x2="333.30" y2="216.35"/><line x1="302.79" y1="246.25" x2="333.30" y2="216.35"/><line x1="215.80" y1="244.86" x2="215.58" y2="244.41"/><line x1="231.09" y1="158.09" x2="230.34" y2="162.03"/><line x1="187.99" y1="172.56" x2="209.10" y2="181.54"/><line x1="295.41" y1="260.55" x2="252.14" y2="256.16"/><line x1="335.78" y1="244.71" x2="335.56" y2="245.10"/><line x1="326.44" y1="351.51" x2="328.73" y2="349.26"/><line x1="265.56" y1="148.13" x2="265.17" y2="139.39"/><line x1="278.34" y1="98.82" x2="259.34" y2="121.24"/><line x1="336.28" y1="220.49" x2="336.17" y2="219.64"/><line x1="181.12" y1="324.60" x2="182.70" y2="328.62"/><line x1="254.72" y1="345.37" x2="258.60" y2="342.31"/><line x1="260.92" y1="192.80" x2="321.58" y2="202.66"/><line x1="288.72" y1="281.22" x2="254.60" y2="280.65"/><line x1="259.68" y1="299.10" x2="308.08" y2="357.75"/><line x1="259.68" y1="299.10" x2="332.48" y2="343.92"/><line x1="265.17" y1="139.39" x2="311.94" y2="122.90"/><line x1="259.68" y1="299.10" x2="333.05" y2="309.96"/><line x1="298.81" y1="253.46" x2="256.47" y2="216.91"/><line x1="259.68" y1="299.10" x2="305.24" y2="293.36"/><line x1="246.53" y1="115.19" x2="244.52" y2="115.30"/><line x1="333.58" y1="246.04" x2="332.76" y2="246.16"/><line x1="302.79" y1="246.25" x2="335.59" y2="217.76"/><line x1="187.99" y1="172.56" x2="222.18" y2="176.00"/><line x1="219.15" y1="303.76" x2="212.01" y2="356.33"/><line x1="190.70" y1="285.43" x2="199.93" y2="294.63"/><line x1="222.18" y1="176.00" x2="219.86" y2="177.74"/><line x1="259.68" y1="299.10" x2="281.20" y2="344.35"/><line x1="231.23" y1="129.41" x2="230.97" y2="131.16"/><line x1="259.68" y1="299.10" x2="321.20" y2="354.97"/><line x1="198.06" y1="287.33" x2="198.32" y2="288.09"/><line x1="259.68" y1="299.10" x2="336.22" y2="330.35"/><line x1="230.97" y1="131.16" x2="230.89" y2="132.93"/><line x1="336.37" y1="239.86" x2="336.37" y2="222.51"/><line x1="203.69" y1="299.70" x2="179.78" y2="320.38"/><line x1="227.62" y1="96.68" x2="222.91" y2="97.71"/><line x1="32.00" y1="479.98" x2="64.49" y2="479.98"/><line x1="287.19" y1="294.48" x2="287.67" y2="287.91"/><line x1="256.47" y1="216.91" x2="215.17" y2="242.39"/><line x1="190.05" y1="174.98" x2="192.29" y2="177.04"/><line x1="224.27" y1="303.66" x2="229.50" y2="357.19"/><line x1="231.09" y1="158.09" x2="183.32" y2="163.82"/><line x1="265.56" y1="148.13" x2="316.41" y2="129.73"/><line x1="254.72" y1="345.37" x2="240.97" y2="302.24"/><line x1="298.81" y1="253.46" x2="252.77" y2="246.25"/><line x1="260.92" y1="192.80" x2="319.38" y2="209.36"/><line x1="233.97" y1="122.60" x2="233.03" y2="124.27"/><line x1="259.68" y1="299.10" x2="302.38" y2="357.21"/><line x1="215.09" y1="222.49" x2="220.38" y2="216.91"/><line x1="259.68" y1="299.10" x2="330.76" y2="346.71"/><line x1="336.22" y1="330.35" x2="336.37" y2="326.35"/><line x1="246.53" y1="115.19" x2="243.80" y2="94.96"/><line x1="227.94" y1="168.75" x2="226.30" y2="171.54"/><line x1="334.51" y1="216.75" x2="333.95" y2="216.52"/><line x1="239.24" y1="117.07" x2="237.73" y2="118.13"/><line x1="256.47" y1="216.91" x2="216.05" y2="245.21"/><line x1="191.02" y1="342.34" x2="193.57" y2="345.16"/><line x1="256.47" y1="216.91" x2="220.38" y2="216.91"/><line x1="333.58" y1="246.04" x2="336.22" y2="242.83"/><line x1="224.36" y1="173.95" x2="222.18" y2="176.00"/><line x1="252.13" y1="257.33" x2="295.41" y2="260.55"/><line x1="286.46" y1="101.91" x2="278.34" y2="98.82"/><line x1="181.62" y1="156.98" x2="182.33" y2="160.51"/><line x1="265.76" y1="336.22" x2="267.13" y2="335.06"/><line x1="219.15" y1="303.76" x2="208.70" y2="355.23"/><line x1="325.78" y1="183.01" x2="326.38" y2="176.60"/><line x1="322.93" y1="144.66" x2="320.08" y2="136.98"/><line x1="186.35" y1="285.29" x2="185.92" y2="285.26"/><line x1="217.49" y1="245.91" x2="216.88" y2="245.72"/><line x1="193.94" y1="115.66" x2="230.97" y2="131.16"/><line x1="328.90" y1="303.88" x2="326.21" y2="301.37"/><line x1="259.68" y1="299.10" x2="276.31" y2="338.45"/><line x1="258.88" y1="204.40" x2="260.92" y2="192.80"/><line x1="214.50" y1="100.46" x2="210.71" y2="102.21"/><line x1="208.70" y1="355.23" x2="212.01" y2="356.33"/><line x1="214.29" y1="303.51" x2="219.15" y2="303.76"/><line x1="230.97" y1="131.16" x2="191.02" y2="119.28"/><line x1="336.37" y1="239.86" x2="302.79" y2="246.25"/><line x1="206.05" y1="181.70" x2="190.05" y2="174.98"/><line x1="252.60" y1="248.25" x2="298.81" y2="253.46"/><line x1="32.00" y1="479.98" x2="32.00" y2="447.50"/><line x1="256.47" y1="216.91" x2="219.15" y2="246.16"/><line x1="287.19" y1="294.48" x2="257.68" y2="292.86"/><line x1="249.87" y1="94.84" x2="246.53" y2="115.19"/><line x1="256.47" y1="216.91" x2="215.26" y2="243.17"/><line x1="276.31" y1="338.45" x2="281.20" y2="344.35"/><line x1="262.59" y1="182.08" x2="263.89" y2="172.26"/><line x1="193.93" y1="285.58" x2="192.44" y2="285.50"/><line x1="253.22" y1="300.34" x2="259.68" y2="299.10"/><line x1="224.27" y1="303.66" x2="227.12" y2="357.50"/><line x1="190.05" y1="174.98" x2="202.95" y2="181.51"/><line x1="336.11" y1="243.58" x2="333.58" y2="246.04"/><line x1="178.01" y1="288.82" x2="177.31" y2="290.86"/><line x1="215.26" y1="243.17" x2="215.17" y2="242.39"/><line x1="184.31" y1="131.28" x2="182.88" y2="135.57"/><line x1="305.24" y1="293.36" x2="301.06" y2="293.20"/><line x1="229.62" y1="303.38" x2="241.79" y2="353.63"/><line x1="238.06" y1="95.30" x2="232.67" y2="95.88"/><line x1="197.51" y1="286.34" x2="197.79" y2="286.75"/><line x1="263.89" y1="172.26" x2="325.78" y2="183.01"/><line x1="290.37" y1="274.44" x2="292.60" y2="267.55"/><line x1="227.12" y1="357.50" x2="229.50" y2="357.19"/><line x1="182.88" y1="135.57" x2="181.87" y2="140.01"/><line x1="218.25" y1="246.06" x2="217.49" y2="245.91"/><line x1="262.75" y1="338.85" x2="264.31" y2="337.48"/><line x1="177.84" y1="311.34" x2="178.69" y2="315.96"/><line x1="232.67" y1="95.88" x2="239.24" y2="117.07"/><line x1="218.98" y1="217.02" x2="217.79" y2="217.37"/><line x1="264.81" y1="163.32" x2="265.37" y2="155.28"/><line x1="330.72" y1="246.25" x2="336.37" y2="239.86"/><line x1="239.24" y1="117.07" x2="227.62" y2="96.68"/><line x1="256.47" y1="216.91" x2="216.40" y2="245.49"/><line x1="181.19" y1="153.25" x2="181.62" y2="156.98"/><line x1="256.47" y1="216.91" x2="215.09" y2="222.49"/><line x1="199.25" y1="350.04" x2="202.32" y2="352.09"/><line x1="198.58" y1="289.00" x2="198.82" y2="290.08"/><line x1="181.62" y1="156.98" x2="231.09" y2="158.09"/><line x1="269.56" y1="333.06" x2="270.62" y2="332.22"/><line x1="210.10" y1="302.74" x2="186.48" y2="335.97"/><line x1="322.93" y1="144.66" x2="265.56" y2="148.13"/><line x1="253.52" y1="274.68" x2="252.75" y2="268.81"/><line x1="178.98" y1="287.25" x2="178.01" y2="288.82"/><line x1="214.50" y1="100.46" x2="233.97" y2="122.60"/><line x1="186.15" y1="169.85" x2="187.99" y2="172.56"/><line x1="214.29" y1="303.51" x2="199.25" y2="350.04"/><line x1="218.86" y1="357.59" x2="222.40" y2="357.75"/><line x1="264.01" y1="132.00" x2="293.87" y2="105.89"/><line x1="256.47" y1="216.91" x2="220.17" y2="246.23"/><line x1="224.75" y1="357.69" x2="227.12" y2="357.50"/><line x1="256.47" y1="216.91" x2="215.40" y2="243.84"/><line x1="253.22" y1="300.34" x2="269.56" y2="333.06"/><line x1="196.79" y1="285.94" x2="197.51" y2="286.34"/><line x1="231.66" y1="127.68" x2="231.23" y2="129.41"/><line x1="308.08" y1="357.75" x2="311.69" y2="357.58"/><line x1="229.62" y1="303.38" x2="239.20" y2="354.71"/><line x1="197.51" y1="286.34" x2="197.22" y2="286.10"/><line x1="177.23" y1="306.52" x2="177.84" y2="311.34"/><line x1="196.10" y1="285.80" x2="195.14" y2="285.69"/><line x1="311.69" y1="357.58" x2="315.08" y2="357.06"/><line x1="269.54" y1="96.61" x2="260.05" y2="95.29"/><line x1="177.84" y1="311.34" x2="203.69" y2="299.70"/><line x1="199.93" y1="294.63" x2="176.89" y2="293.34"/><line x1="239.20" y1="354.71" x2="241.79" y2="353.63"/><line x1="289.57" y1="294.14" x2="287.19" y2="294.48"/><line x1="195.14" y1="285.69" x2="198.58" y2="289.00"/><line x1="265.37" y1="155.28" x2="322.93" y2="144.66"/><line x1="230.89" y1="132.93" x2="186.14" y2="127.13"/><line x1="241.79" y1="353.63" x2="244.63" y2="352.17"/><line x1="256.47" y1="216.91" x2="216.88" y2="245.72"/><line x1="231.69" y1="145.56" x2="181.25" y2="144.59"/><line x1="235.18" y1="302.91" x2="240.97" y2="302.24"/><line x1="215.40" y1="243.84" x2="215.26" y2="243.17"/><line x1="321.58" y1="202.66" x2="323.38" y2="196.04"/><line x1="198.58" y1="289.00" x2="193.93" y2="285.58"/><line x1="182.70" y1="328.62" x2="210.10" y2="302.74"/><line x1="235.08" y1="120.94" x2="214.50" y2="100.46"/><line x1="192.29" y1="177.04" x2="194.70" y2="178.72"/><line x1="330.76" y1="346.71" x2="332.48" y2="343.92"/><line x1="229.62" y1="303.38" x2="235.18" y2="302.91"/><line x1="183.32" y1="163.82" x2="184.59" y2="166.94"/><line x1="336.02" y1="218.90" x2="335.83" y2="218.27"/><line x1="244.52" y1="115.30" x2="242.63" y2="115.66"/><line x1="210.10" y1="302.74" x2="184.49" y2="332.42"/><line x1="263.89" y1="172.26" x2="264.81" y2="163.32"/><line x1="229.30" y1="165.58" x2="186.15" y2="169.85"/><line x1="253.52" y1="274.68" x2="290.37" y2="274.44"/><line x1="332.76" y1="246.16" x2="331.81" y2="246.23"/><line x1="199.93" y1="294.63" x2="188.69" y2="285.37"/><line x1="306.65" y1="116.50" x2="264.01" y2="132.00"/><line x1="199.93" y1="294.63" x2="181.78" y2="285.44"/><line x1="181.25" y1="144.59" x2="181.05" y2="149.33"/><line x1="258.60" y1="342.31" x2="262.75" y2="338.85"/><line x1="186.15" y1="169.85" x2="227.94" y2="168.75"/><line x1="215.20" y1="221.01" x2="218.98" y2="217.02"/><line x1="188.69" y1="285.37" x2="188.20" y2="285.37"/><line x1="264.01" y1="132.00" x2="300.61" y2="110.75"/><line x1="203.57" y1="106.66" x2="231.66" y2="127.68"/><line x1="336.16" y1="321.72" x2="335.54" y2="317.45"/><line x1="262.06" y1="125.95" x2="259.34" y2="121.24"/><line x1="333.30" y1="216.35" x2="332.53" y2="216.22"/><line x1="196.31" y1="347.72" x2="199.25" y2="350.04"/><line x1="231.66" y1="127.68" x2="200.22" y2="109.35"/><line x1="219.86" y1="177.74" x2="217.40" y2="179.17"/><line x1="252.14" y1="256.16" x2="252.19" y2="254.86"/><line x1="229.62" y1="303.38" x2="236.75" y2="355.51"/><line x1="64.64" y1="32.09" x2="32.16" y2="64.58"/><line x1="332.53" y1="216.22" x2="331.67" y2="216.15"/><line x1="259.34" y1="121.24" x2="269.54" y2="96.61"/><line x1="268.39" y1="334.01" x2="269.56" y2="333.06"/><line x1="316.77" y1="216.13" x2="319.38" y2="209.36"/><line x1="217.40" y1="179.17" x2="214.78" y2="180.28"/><line x1="335.27" y1="245.40" x2="335.56" y2="245.10"/><line x1="259.68" y1="299.10" x2="257.68" y2="292.86"/><line x1="199.93" y1="294.63" x2="186.80" y2="285.32"/><line x1="269.54" y1="96.61" x2="255.85" y2="117.88"/><line x1="191.02" y1="119.28" x2="230.89" y2="132.93"/><line x1="199.93" y1="294.63" x2="177.31" y2="290.86"/><line x1="323.21" y1="299.20" x2="320.01" y2="297.36"/><line x1="252.77" y1="246.25" x2="221.34" y2="246.25"/><line x1="319.38" y1="209.36" x2="321.58" y2="202.66"/><line x1="302.79" y1="246.25" x2="316.77" y2="216.13"/><line x1="243.80" y1="94.96" x2="238.06" y2="95.30"/><line x1="230.89" y1="132.93" x2="188.38" y2="123.13"/><line x1="292.60" y1="267.55" x2="295.41" y2="260.55"/><line x1="202.95" y1="181.51" x2="192.29" y2="177.04"/><line x1="231.69" y1="145.56" x2="181.87" y2="140.01"/><line x1="235.18" y1="302.91" x2="254.72" y2="345.37"/><line x1="295.41" y1="260.55" x2="252.46" y2="250.11"/><line x1="336.22" y1="242.83" x2="336.30" y2="241.96"/><line x1="321.58" y1="202.66" x2="262.59" y2="182.08"/><line x1="196.79" y1="285.94" x2="196.10" y2="285.80"/><line x1="192.29" y1="177.04" x2="200.03" y2="180.95"/><line x1="231.90" y1="356.76" x2="234.32" y2="356.20"/><line x1="244.52" y1="115.30" x2="238.06" y2="95.30"/><line x1="188.65" y1="339.28" x2="191.02" y2="342.34"/><line x1="259.68" y1="299.10" x2="323.21" y2="299.20"/><line x1="197.79" y1="286.75" x2="198.06" y2="287.33"/><line x1="332.76" y1="246.16" x2="336.30" y2="241.96"/><line x1="326.59" y1="170.27" x2="326.18" y2="161.30"/><line x1="259.68" y1="299.10" x2="295.90" y2="293.43"/><line x1="193.57" y1="345.16" x2="196.31" y2="347.72"/><line x1="199.93" y1="294.63" x2="183.59" y2="285.22"/><line x1="181.25" y1="144.59" x2="231.69" y2="149.08"/><line x1="199.93" y1="294.63" x2="201.47" y2="297.42"/><line x1="264.31" y1="337.48" x2="265.76" y2="336.22"/><line x1="302.79" y1="246.25" x2="336.35" y2="221.45"/><line x1="32.16" y1="32.09" x2="64.64" y2="32.09"/><line x1="302.79" y1="246.25" x2="333.95" y2="216.52"/><line x1="237.73" y1="118.13" x2="236.34" y2="119.42"/><line x1="267.13" y1="335.06" x2="268.39" y2="334.01"/><line x1="187.99" y1="172.56" x2="212.02" y2="181.06"/><line x1="257.68" y1="292.86" x2="255.99" y2="286.71"/><line x1="335.78" y1="244.71" x2="335.27" y2="245.40"/><line x1="185.92" y1="285.26" x2="185.51" y2="285.22"/><line x1="247.74" y1="350.30" x2="251.10" y2="348.03"/><line x1="287.67" y1="287.91" x2="288.72" y2="281.22"/><line x1="326.21" y1="301.37" x2="323.21" y2="299.20"/><line x1="198.82" y1="290.08" x2="199.05" y2="291.34"/><line x1="185.51" y1="285.22" x2="183.59" y2="285.22"/><line x1="212.01" y1="356.33" x2="215.39" y2="357.12"/><line x1="259.68" y1="299.10" x2="334.50" y2="313.53"/><line x1="32.00" y1="447.50" x2="64.49" y2="479.98"/><line x1="259.68" y1="299.10" x2="309.23" y2="293.86"/></g></svg>