<svg xmlns="http://www.w3.org/2000/svg" width="512" height="512"><rect width="512" height="512" fill="#0a0f1a"/><text x="12" y="20" font-family="monospace" font-size="11" fill="#4a7fa5">FRONT (XZ)</text><g stroke="#00d4ff" stroke-width="0.6" opacity="0.85"><line x1="213.53" y1="133.38" x2="202.38" y2="95.22"/><line x1="184.30" y1="160.70" x2="195.27" y2="173.80"/><line x1="226.04" y1="336.54" x2="223.63" y2="356.39"/><line x1="296.31" y1="315.42" x2="300.26" y2="305.97"/><line x1="246.44" y1="119.95" x2="243.07" y2="117.74"/><line x1="228.15" y1="116.44" x2="222.67" y2="98.41"/><line x1="211.79" y1="307.46" x2="185.46" y2="313.82"/><line x1="300.26" y1="305.97" x2="303.72" y2="295.69"/><line x1="254.78" y1="97.00" x2="247.24" y2="95.38"/><line x1="309.85" y1="179.87" x2="252.45" y2="137.66"/><line x1="252.45" y1="216.52" x2="313.48" y2="225.86"/><line x1="203.83" y1="95.58" x2="203.20" y2="95.38"/><line x1="191.94" y1="173.83" x2="190.60" y2="173.70"/><line x1="185.46" y1="313.82" x2="212.03" y2="310.60"/><line x1="235.29" y1="337.79" x2="236.45" y2="357.67"/><line x1="252.45" y1="137.66" x2="307.67" y2="168.22"/><line x1="209.79" y1="101.30" x2="208.85" y2="100.35"/><line x1="202.24" y1="170.99" x2="201.15" y2="171.87"/><line x1="236.45" y1="357.67" x2="237.51" y2="337.70"/><line x1="215.40" y1="102.62" x2="214.87" y2="102.92"/><line x1="184.30" y1="160.70" x2="211.02" y2="143.15"/><line x1="186.12" y1="296.63" x2="189.35" y2="293.64"/><line x1="189.06" y1="326.71" x2="213.50" y2="320.96"/><line x1="184.30" y1="160.70" x2="202.24" y2="170.99"/><line x1="201.15" y1="171.87" x2="199.90" y2="172.59"/><line x1="313.16" y1="236.07" x2="252.45" y2="236.07"/><line x1="195.67" y1="94.84" x2="194.54" y2="94.89"/><line x1="213.50" y1="320.96" x2="190.95" y2="330.90"/><line x1="243.33" y1="336.26" x2="256.10" y2="355.64"/><line x1="252.45" y1="192.26" x2="309.85" y2="179.87"/><line x1="252.08" y1="131.90" x2="281.49" y2="114.22"/><line x1="184.22" y1="160.99" x2="184.15" y2="161.33"/><line x1="256.10" y1="355.64" x2="244.99" y2="335.39"/><line x1="252.45" y1="137.66" x2="292.64" y2="129.11"/><line x1="213.44" y1="103.45" x2="218.46" y2="121.67"/><line x1="193.85" y1="292.61" x2="184.82" y2="302.84"/><line x1="184.15" y1="161.33" x2="184.09" y2="161.70"/><line x1="313.38" y1="233.33" x2="313.42" y2="232.17"/><line x1="190.07" y1="97.25" x2="189.67" y2="98.08"/><line x1="184.30" y1="160.70" x2="206.81" y2="161.18"/><line x1="198.23" y1="342.41" x2="200.93" y2="345.47"/><line x1="250.11" y1="330.08" x2="250.95" y2="328.35"/><line x1="184.30" y1="160.70" x2="196.96" y2="173.55"/><line x1="313.16" y1="236.07" x2="313.25" y2="235.28"/><line x1="246.44" y1="119.95" x2="254.78" y2="97.00"/><line x1="189.67" y1="98.08" x2="189.29" y2="99.17"/><line x1="184.03" y1="165.25" x2="191.94" y2="173.83"/><line x1="221.37" y1="334.31" x2="223.56" y2="335.56"/><line x1="191.94" y1="173.83" x2="184.15" y2="166.75"/><line x1="480.00" y1="32.02" x2="447.51" y2="32.02"/><line x1="209.79" y1="101.30" x2="214.78" y2="129.48"/><line x1="188.33" y1="173.19" x2="187.41" y2="172.80"/><line x1="184.30" y1="160.70" x2="212.28" y2="137.94"/><line x1="185.01" y1="170.26" x2="185.46" y2="171.11"/><line x1="252.45" y1="319.89" x2="252.45" y2="259.94"/><line x1="184.99" y1="300.96" x2="193.85" y2="292.61"/><line x1="228.83" y1="337.23" x2="231.91" y2="337.66"/><line x1="252.45" y1="192.26" x2="213.72" y2="192.26"/><line x1="313.32" y1="234.37" x2="313.38" y2="233.33"/><line x1="219.61" y1="99.97" x2="216.64" y2="101.82"/><line x1="190.54" y1="96.61" x2="190.07" y2="97.25"/><line x1="216.53" y1="328.87" x2="198.23" y2="342.41"/><line x1="225.63" y1="117.02" x2="223.40" y2="117.83"/><line x1="261.97" y1="99.68" x2="246.44" y2="119.95"/><line x1="186.31" y1="318.17" x2="187.52" y2="322.47"/><line x1="249.09" y1="331.66" x2="250.11" y2="330.08"/><line x1="216.02" y1="126.22" x2="210.67" y2="102.07"/><line x1="199.77" y1="292.48" x2="201.49" y2="292.68"/><line x1="241.19" y1="357.75" x2="248.84" y2="357.22"/><line x1="250.11" y1="330.08" x2="275.68" y2="344.54"/><line x1="313.46" y1="223.89" x2="313.42" y2="222.08"/><line x1="221.46" y1="118.88" x2="214.03" y2="103.32"/><line x1="210.67" y1="102.07" x2="209.79" y2="101.30"/><line x1="201.49" y1="292.68" x2="203.07" y2="293.02"/><line x1="252.45" y1="259.94" x2="306.68" y2="284.60"/><line x1="239.59" y1="337.41" x2="241.53" y2="336.93"/><line x1="209.73" y1="352.17" x2="221.37" y2="334.31"/><line x1="313.42" y1="222.08" x2="313.38" y2="220.45"/><line x1="234.06" y1="115.97" x2="235.85" y2="94.99"/><line x1="187.82" y1="108.66" x2="184.30" y2="160.70"/><line x1="221.37" y1="334.31" x2="212.90" y2="353.57"/><line x1="286.87" y1="331.85" x2="252.36" y2="322.24"/><line x1="235.85" y1="94.99" x2="232.42" y2="95.41"/><line x1="193.42" y1="173.87" x2="191.94" y2="173.83"/><line x1="480.00" y1="32.02" x2="480.00" y2="64.50"/><line x1="193.18" y1="335.03" x2="195.64" y2="338.93"/><line x1="208.93" y1="296.82" x2="209.73" y2="298.27"/><line x1="188.33" y1="173.19" x2="185.01" y2="170.26"/><line x1="252.36" y1="322.24" x2="252.45" y2="319.89"/><line x1="480.00" y1="479.91" x2="480.00" y2="447.42"/><line x1="206.66" y1="97.74" x2="206.08" y2="97.13"/><line x1="209.73" y1="298.27" x2="210.41" y2="300.06"/><line x1="223.63" y1="356.39" x2="228.83" y2="337.23"/><line x1="311.40" y1="192.26" x2="252.45" y2="192.26"/><line x1="222.67" y1="98.41" x2="219.61" y2="99.97"/><line x1="212.03" y1="310.60" x2="212.34" y2="314.33"/><line x1="206.81" y1="161.18" x2="205.87" y2="164.17"/><line x1="228.83" y1="337.23" x2="227.67" y2="356.98"/><line x1="303.72" y1="295.69" x2="306.68" y2="284.60"/><line x1="219.61" y1="99.97" x2="225.63" y2="117.02"/><line x1="447.51" y1="479.91" x2="480.00" y2="447.42"/><line x1="281.46" y1="338.72" x2="286.87" y2="331.85"/><line x1="306.68" y1="284.60" x2="309.12" y2="272.68"/><line x1="193.42" y1="173.87" x2="184.04" y2="162.11"/><line x1="189.35" y1="293.64" x2="190.64" y2="293.20"/><line x1="202.38" y1="95.22" x2="201.39" y2="95.08"/><line x1="223.56" y1="335.56" x2="226.04" y2="336.54"/><line x1="186.31" y1="318.17" x2="212.34" y2="314.33"/><line x1="304.86" y1="157.32" x2="301.41" y2="147.17"/><line x1="185.64" y1="297.86" x2="185.25" y2="299.30"/><line x1="190.95" y1="330.90" x2="193.18" y2="335.03"/><line x1="199.90" y1="172.59" x2="198.51" y2="173.15"/><line x1="241.19" y1="357.75" x2="239.59" y2="337.41"/><line x1="184.30" y1="160.70" x2="205.87" y2="164.17"/><line x1="221.46" y1="118.88" x2="214.42" y2="103.16"/><line x1="184.94" y1="309.40" x2="185.46" y2="313.82"/><line x1="214.33" y1="323.86" x2="215.35" y2="326.50"/><line x1="252.45" y1="259.94" x2="303.72" y2="295.69"/><line x1="250.95" y1="127.03" x2="268.82" y2="103.45"/><line x1="184.82" y1="302.84" x2="184.77" y2="304.94"/><line x1="246.50" y1="334.33" x2="247.88" y2="333.08"/><line x1="195.78" y1="292.46" x2="197.92" y2="292.41"/><line x1="193.42" y1="173.87" x2="184.03" y2="165.25"/><line x1="223.40" y1="117.83" x2="214.87" y2="102.92"/><line x1="212.19" y1="103.11" x2="211.47" y2="102.68"/><line x1="213.53" y1="133.38" x2="189.29" y2="99.17"/><line x1="480.00" y1="479.91" x2="447.51" y2="479.91"/><line x1="217.88" y1="330.95" x2="219.47" y2="332.77"/><line x1="243.07" y1="117.74" x2="238.94" y2="116.41"/><line x1="184.94" y1="309.40" x2="209.73" y2="298.27"/><line x1="184.15" y1="166.75" x2="184.35" y2="168.09"/><line x1="212.03" y1="310.60" x2="186.31" y2="318.17"/><line x1="250.95" y1="328.35" x2="251.61" y2="326.46"/><line x1="247.24" y1="95.38" x2="239.37" y2="94.84"/><line x1="307.67" y1="168.22" x2="304.86" y2="157.32"/><line x1="214.78" y1="129.48" x2="207.84" y2="99.23"/><line x1="234.06" y1="115.97" x2="230.96" y2="116.09"/><line x1="190.60" y1="173.70" x2="189.40" y2="173.49"/><line x1="281.46" y1="338.72" x2="252.08" y2="324.42"/><line x1="237.51" y1="337.70" x2="241.19" y2="357.75"/><line x1="193.42" y1="173.87" x2="184.09" y2="161.70"/><line x1="189.35" y1="293.64" x2="185.64" y2="297.86"/><line x1="223.56" y1="335.56" x2="219.82" y2="355.62"/><line x1="252.45" y1="236.07" x2="217.08" y2="259.94"/><line x1="229.08" y1="96.13" x2="225.83" y2="97.13"/><line x1="213.53" y1="133.38" x2="191.80" y2="95.63"/><line x1="213.53" y1="133.38" x2="188.07" y2="106.23"/><line x1="187.41" y1="172.80" x2="186.63" y2="172.34"/><line x1="190.95" y1="330.90" x2="214.33" y2="323.86"/><line x1="291.84" y1="324.05" x2="296.31" y2="315.42"/><line x1="217.08" y1="259.94" x2="213.72" y2="236.07"/><line x1="230.96" y1="116.09" x2="228.15" y2="116.44"/><line x1="184.94" y1="309.40" x2="204.52" y2="293.49"/><line x1="184.94" y1="309.40" x2="211.79" y2="307.46"/><line x1="193.51" y1="95.04" x2="192.60" y2="95.29"/><line x1="185.46" y1="171.11" x2="185.98" y2="171.79"/><line x1="214.33" y1="323.86" x2="193.18" y2="335.03"/><line x1="252.45" y1="259.94" x2="300.26" y2="305.97"/><line x1="244.99" y1="335.39" x2="246.50" y2="334.33"/><line x1="252.45" y1="216.52" x2="311.40" y2="192.26"/><line x1="250.95" y1="127.03" x2="275.33" y2="108.30"/><line x1="186.72" y1="295.62" x2="186.12" y2="296.63"/><line x1="184.82" y1="302.84" x2="195.78" y2="292.46"/><line x1="184.09" y1="161.70" x2="184.04" y2="162.11"/><line x1="311.07" y1="259.94" x2="313.16" y2="236.07"/><line x1="246.50" y1="334.33" x2="263.00" y2="352.99"/><line x1="313.42" y1="232.17" x2="313.46" y2="230.90"/><line x1="188.28" y1="294.18" x2="189.35" y2="293.64"/><line x1="212.85" y1="103.37" x2="212.19" y2="103.11"/><line x1="195.78" y1="292.46" x2="184.77" y2="304.94"/><line x1="231.94" y1="357.41" x2="236.45" y2="357.67"/><line x1="200.93" y1="345.47" x2="217.88" y2="330.95"/><line x1="313.46" y1="230.90" x2="313.48" y2="229.51"/><line x1="213.53" y1="133.38" x2="205.51" y2="96.60"/><line x1="223.40" y1="117.83" x2="215.40" y2="102.62"/><line x1="213.53" y1="133.38" x2="197.37" y2="94.86"/><line x1="213.53" y1="133.38" x2="189.67" y2="98.08"/><line x1="189.29" y1="99.17" x2="188.95" y2="100.53"/><line x1="248.84" y1="357.22" x2="256.10" y2="355.64"/><line x1="217.88" y1="330.95" x2="203.74" y2="348.12"/><line x1="214.87" y1="102.92" x2="221.46" y2="118.88"/><line x1="275.68" y1="344.54" x2="250.95" y2="328.35"/><line x1="243.07" y1="117.74" x2="247.24" y2="95.38"/><line x1="184.94" y1="309.40" x2="208.93" y2="296.82"/><line x1="203.07" y1="293.02" x2="204.52" y2="293.49"/><line x1="212.90" y1="353.57" x2="216.24" y2="354.68"/><line x1="184.15" y1="166.75" x2="190.60" y2="173.70"/><line x1="252.45" y1="216.52" x2="313.38" y2="233.33"/><line x1="250.95" y1="328.35" x2="281.46" y2="338.72"/><line x1="194.54" y1="94.89" x2="193.51" y2="95.04"/><line x1="252.45" y1="216.52" x2="313.32" y2="218.97"/><line x1="214.78" y1="129.48" x2="208.85" y2="100.35"/><line x1="204.52" y1="293.49" x2="205.82" y2="294.09"/><line x1="281.49" y1="114.22" x2="250.95" y2="127.03"/><line x1="313.32" y1="218.97" x2="313.25" y2="217.66"/><line x1="212.28" y1="137.94" x2="211.02" y2="143.15"/><line x1="223.56" y1="335.56" x2="216.24" y2="354.68"/><line x1="218.46" y1="121.67" x2="212.85" y2="103.37"/><line x1="229.08" y1="96.13" x2="230.96" y2="116.09"/><line x1="213.53" y1="133.38" x2="203.20" y2="95.38"/><line x1="213.53" y1="133.38" x2="192.60" y2="95.29"/><line x1="269.53" y1="349.29" x2="275.68" y2="344.54"/><line x1="227.67" y1="356.98" x2="231.94" y2="357.41"/><line x1="213.53" y1="133.38" x2="188.34" y2="104.06"/><line x1="187.41" y1="172.80" x2="185.46" y2="171.11"/><line x1="291.84" y1="324.05" x2="252.45" y2="259.94"/><line x1="184.94" y1="309.40" x2="203.07" y2="293.02"/><line x1="205.51" y1="96.60" x2="204.95" y2="96.17"/><line x1="184.94" y1="309.40" x2="211.44" y2="304.66"/><line x1="254.78" y1="97.00" x2="243.07" y2="117.74"/><line x1="231.91" y1="337.66" x2="235.29" y2="337.79"/><line x1="252.45" y1="216.52" x2="313.48" y2="227.99"/><line x1="216.64" y1="101.82" x2="215.99" y2="102.26"/><line x1="186.72" y1="295.62" x2="187.41" y2="294.82"/><line x1="212.34" y1="314.33" x2="212.84" y2="317.78"/><line x1="204.95" y1="166.63" x2="204.06" y2="168.55"/><line x1="311.07" y1="259.94" x2="329.13" y2="259.94"/><line x1="313.38" y1="220.45" x2="313.32" y2="218.97"/><line x1="187.52" y1="322.47" x2="189.06" y2="326.71"/><line x1="213.53" y1="133.38" x2="206.08" y2="97.13"/><line x1="184.30" y1="160.70" x2="203.18" y2="169.94"/><line x1="190.64" y1="293.20" x2="192.14" y2="292.86"/><line x1="213.53" y1="133.38" x2="198.88" y2="94.91"/><line x1="213.53" y1="133.38" x2="190.07" y2="97.25"/><line x1="248.84" y1="357.22" x2="243.33" y2="336.26"/><line x1="185.25" y1="299.30" x2="184.99" y2="300.96"/><line x1="212.90" y1="353.57" x2="223.56" y2="335.56"/><line x1="252.45" y1="216.52" x2="313.32" y2="234.37"/><line x1="252.45" y1="216.52" x2="313.38" y2="220.45"/><line x1="213.70" y1="103.42" x2="213.44" y2="103.45"/><line x1="480.00" y1="64.50" x2="447.51" y2="32.02"/><line x1="215.35" y1="326.50" x2="216.53" y2="328.87"/><line x1="252.45" y1="137.66" x2="297.35" y2="137.76"/><line x1="268.82" y1="103.45" x2="261.97" y2="99.68"/><line x1="210.41" y1="300.06" x2="210.98" y2="302.19"/><line x1="247.88" y1="333.08" x2="249.09" y2="331.66"/><line x1="184.30" y1="160.70" x2="207.76" y2="157.66"/><line x1="217.25" y1="123.62" x2="216.02" y2="126.22"/><line x1="213.53" y1="133.38" x2="203.83" y2="95.58"/><line x1="184.30" y1="160.70" x2="198.51" y2="173.15"/><line x1="197.92" y1="292.41" x2="199.77" y2="292.48"/><line x1="219.47" y1="332.77" x2="221.37" y2="334.31"/><line x1="213.53" y1="133.38" x2="193.51" y2="95.04"/><line x1="313.16" y1="236.07" x2="252.45" y2="216.52"/><line x1="227.67" y1="356.98" x2="231.91" y2="337.66"/><line x1="217.08" y1="216.52" x2="213.72" y2="192.26"/><line x1="211.47" y1="102.68" x2="210.67" y2="102.07"/><line x1="238.94" y1="116.41" x2="234.06" y2="115.97"/><line x1="252.45" y1="216.52" x2="313.48" y2="229.51"/><line x1="216.64" y1="101.82" x2="223.40" y2="117.83"/><line x1="184.35" y1="168.09" x2="184.64" y2="169.26"/><line x1="212.34" y1="314.33" x2="187.52" y2="322.47"/><line x1="313.16" y1="216.52" x2="311.40" y2="192.26"/><line x1="239.37" y1="94.84" x2="235.85" y2="94.99"/><line x1="200.23" y1="94.98" x2="198.88" y2="94.91"/><line x1="189.40" y1="173.49" x2="188.33" y2="173.19"/><line x1="232.42" y1="95.41" x2="229.08" y2="96.13"/><line x1="297.35" y1="137.76" x2="292.64" y2="129.11"/><line x1="185.01" y1="170.26" x2="187.41" y2="172.80"/><line x1="213.53" y1="133.38" x2="206.66" y2="97.74"/><line x1="184.30" y1="160.70" x2="204.06" y2="168.55"/><line x1="252.45" y1="319.89" x2="291.84" y2="324.05"/><line x1="190.64" y1="293.20" x2="185.25" y2="299.30"/><line x1="184.30" y1="160.70" x2="184.22" y2="160.99"/><line x1="196.96" y1="173.55" x2="195.27" y2="173.80"/><line x1="206.08" y1="97.13" x2="205.51" y2="96.60"/><line x1="325.78" y1="192.26" x2="311.40" y2="192.26"/><line x1="228.15" y1="116.44" x2="225.63" y2="117.02"/><line x1="214.03" y1="103.32" x2="213.70" y2="103.42"/><line x1="252.45" y1="192.26" x2="217.08" y2="216.52"/><line x1="252.45" y1="216.52" x2="313.25" y2="235.28"/><line x1="205.87" y1="164.17" x2="204.95" y2="166.63"/><line x1="184.77" y1="304.94" x2="184.94" y2="309.40"/><line x1="191.80" y1="95.63" x2="191.11" y2="96.07"/><line x1="225.63" y1="117.02" x2="216.64" y2="101.82"/><line x1="252.45" y1="137.66" x2="301.41" y2="147.17"/><line x1="268.82" y1="103.45" x2="249.07" y2="123.05"/><line x1="309.12" y1="272.68" x2="311.07" y2="259.94"/><line x1="184.01" y1="162.57" x2="183.99" y2="163.06"/><line x1="247.88" y1="333.08" x2="269.53" y2="349.29"/><line x1="201.39" y1="95.08" x2="200.23" y2="94.98"/><line x1="184.30" y1="160.70" x2="208.74" y2="153.60"/><line x1="217.25" y1="123.62" x2="211.47" y2="102.68"/><line x1="184.30" y1="160.70" x2="199.90" y2="172.59"/><line x1="301.41" y1="147.17" x2="297.35" y2="137.76"/><line x1="219.47" y1="332.77" x2="209.73" y2="352.17"/><line x1="313.48" y1="227.99" x2="313.48" y2="225.86"/><line x1="198.51" y1="173.15" x2="196.96" y2="173.55"/><line x1="239.59" y1="337.41" x2="248.84" y2="357.22"/><line x1="32.16" y1="32.09" x2="32.16" y2="64.58"/><line x1="188.63" y1="102.16" x2="188.34" y2="104.06"/><line x1="214.42" y1="103.16" x2="214.03" y2="103.32"/><line x1="238.94" y1="116.41" x2="239.37" y2="94.84"/><line x1="207.84" y1="99.23" x2="207.24" y2="98.44"/><line x1="256.10" y1="355.64" x2="263.00" y2="352.99"/><line x1="184.35" y1="168.09" x2="189.40" y2="173.49"/><line x1="192.60" y1="95.29" x2="191.80" y2="95.63"/><line x1="313.16" y1="216.52" x2="329.13" y2="216.52"/><line x1="193.18" y1="335.03" x2="215.35" y2="326.50"/><line x1="263.00" y1="352.99" x2="269.53" y2="349.29"/><line x1="275.33" y1="108.30" x2="268.82" y2="103.45"/><line x1="219.82" y1="355.62" x2="223.63" y2="356.39"/><line x1="184.04" y1="162.11" x2="184.01" y2="162.57"/><line x1="225.83" y1="97.13" x2="222.67" y2="98.41"/><line x1="184.30" y1="160.70" x2="204.95" y2="166.63"/><line x1="203.74" y1="348.12" x2="206.68" y2="350.36"/><line x1="211.79" y1="307.46" x2="212.03" y2="310.60"/><line x1="309.85" y1="179.87" x2="307.67" y2="168.22"/><line x1="184.77" y1="304.94" x2="197.92" y2="292.41"/><line x1="235.29" y1="337.79" x2="237.51" y2="337.70"/><line x1="185.64" y1="297.86" x2="190.64" y2="293.20"/><line x1="189.06" y1="326.71" x2="190.95" y2="330.90"/><line x1="32.00" y1="479.98" x2="64.49" y2="479.98"/><line x1="311.40" y1="192.26" x2="309.85" y2="179.87"/><line x1="287.30" y1="121.21" x2="281.49" y2="114.22"/><line x1="252.45" y1="259.94" x2="217.08" y2="259.94"/><line x1="243.33" y1="336.26" x2="244.99" y2="335.39"/><line x1="252.45" y1="192.26" x2="252.45" y2="137.66"/><line x1="219.82" y1="120.16" x2="218.46" y2="121.67"/><line x1="216.53" y1="328.87" x2="217.88" y2="330.95"/><line x1="193.42" y1="173.87" x2="183.99" y2="163.59"/><line x1="263.00" y1="352.99" x2="247.88" y2="333.08"/><line x1="209.74" y1="149.01" x2="208.74" y2="153.60"/><line x1="212.19" y1="103.11" x2="217.25" y2="123.62"/><line x1="216.02" y1="126.22" x2="214.78" y2="129.48"/><line x1="313.48" y1="229.51" x2="313.48" y2="227.99"/><line x1="186.63" y1="172.34" x2="185.98" y2="171.79"/><line x1="221.46" y1="118.88" x2="219.82" y2="120.16"/><line x1="188.95" y1="100.53" x2="188.63" y2="102.16"/><line x1="203.74" y1="348.12" x2="219.47" y2="332.77"/><line x1="252.45" y1="259.94" x2="311.07" y2="259.94"/><line x1="204.39" y1="95.83" x2="203.83" y2="95.58"/><line x1="184.03" y1="165.25" x2="184.15" y2="166.75"/><line x1="247.24" y1="95.38" x2="238.94" y2="116.41"/><line x1="234.06" y1="115.97" x2="229.08" y2="96.13"/><line x1="190.60" y1="173.70" x2="184.35" y2="168.09"/><line x1="281.46" y1="338.72" x2="251.61" y2="326.46"/><line x1="203.18" y1="169.94" x2="202.24" y2="170.99"/><line x1="286.87" y1="331.85" x2="291.84" y2="324.05"/><line x1="208.85" y1="100.35" x2="207.84" y2="99.23"/><line x1="193.42" y1="173.87" x2="184.15" y2="161.33"/><line x1="205.82" y1="294.09" x2="206.99" y2="294.84"/><line x1="215.99" y1="102.26" x2="215.40" y2="102.62"/><line x1="313.25" y1="217.66" x2="313.16" y2="216.52"/><line x1="211.02" y1="143.15" x2="209.74" y2="149.01"/><line x1="216.24" y1="354.68" x2="219.82" y2="355.62"/><line x1="197.37" y1="94.86" x2="195.67" y2="94.84"/><line x1="230.96" y1="116.09" x2="225.83" y2="97.13"/><line x1="32.00" y1="479.98" x2="32.00" y2="447.50"/><line x1="287.30" y1="121.21" x2="252.08" y2="131.90"/><line x1="185.46" y1="171.11" x2="186.63" y2="172.34"/><line x1="252.45" y1="259.94" x2="296.31" y2="315.42"/><line x1="184.99" y1="300.96" x2="184.82" y2="302.84"/><line x1="252.45" y1="259.94" x2="252.45" y2="236.07"/><line x1="204.95" y1="96.17" x2="204.39" y2="95.83"/><line x1="211.44" y1="304.66" x2="211.79" y2="307.46"/><line x1="219.82" y1="120.16" x2="213.44" y2="103.45"/><line x1="216.53" y1="328.87" x2="200.93" y2="345.47"/><line x1="188.28" y1="294.18" x2="186.12" y2="296.63"/><line x1="204.06" y1="168.55" x2="203.18" y2="169.94"/><line x1="193.42" y1="173.87" x2="183.99" y2="163.06"/><line x1="261.97" y1="99.68" x2="254.78" y2="97.00"/><line x1="231.94" y1="357.41" x2="235.29" y2="337.79"/><line x1="325.78" y1="236.07" x2="313.16" y2="236.07"/><line x1="223.40" y1="117.83" x2="215.99" y2="102.26"/><line x1="212.84" y1="317.78" x2="213.50" y2="320.96"/><line x1="216.02" y1="126.22" x2="209.79" y2="101.30"/><line x1="213.53" y1="133.38" x2="212.28" y2="137.94"/><line x1="198.88" y1="94.91" x2="197.37" y2="94.86"/><line x1="184.94" y1="309.40" x2="208.02" y2="295.71"/><line x1="221.46" y1="118.88" x2="213.70" y2="103.42"/><line x1="252.45" y1="259.94" x2="309.12" y2="272.68"/><line x1="209.73" y1="352.17" x2="212.90" y2="353.57"/><line x1="192.14" y1="292.86" x2="193.85" y2="292.61"/><line x1="234.06" y1="115.97" x2="232.42" y2="95.41"/><line x1="286.87" y1="331.85" x2="252.45" y2="319.89"/><line x1="195.64" y1="338.93" x2="198.23" y2="342.41"/><line x1="193.42" y1="173.87" x2="184.22" y2="160.99"/><line x1="249.07" y1="123.05" x2="246.44" y2="119.95"/><line x1="210.98" y1="302.19" x2="211.44" y2="304.66"/><line x1="269.53" y1="349.29" x2="250.11" y2="330.08"/><line x1="213.53" y1="133.38" x2="188.63" y2="102.16"/><line x1="223.63" y1="356.39" x2="227.67" y2="356.98"/><line x1="184.94" y1="309.40" x2="201.49" y2="292.68"/><line x1="184.94" y1="309.40" x2="210.98" y2="302.19"/><line x1="231.91" y1="337.66" x2="231.94" y2="357.41"/><line x1="186.72" y1="295.62" x2="188.28" y2="294.18"/><line x1="311.07" y1="259.94" x2="325.78" y2="236.07"/><line x1="188.28" y1="294.18" x2="187.41" y2="294.82"/><line x1="187.52" y1="322.47" x2="212.84" y2="317.78"/><line x1="252.08" y1="324.42" x2="252.36" y2="322.24"/><line x1="193.42" y1="173.87" x2="184.01" y2="162.57"/><line x1="325.78" y1="236.07" x2="329.13" y2="259.94"/><line x1="252.45" y1="236.07" x2="252.45" y2="216.52"/><line x1="213.53" y1="133.38" x2="200.23" y2="94.98"/><line x1="184.64" y1="169.26" x2="185.01" y2="170.26"/><line x1="212.84" y1="317.78" x2="189.06" y2="326.71"/><line x1="213.53" y1="133.38" x2="190.54" y2="96.61"/><line x1="248.84" y1="357.22" x2="241.53" y2="336.93"/><line x1="213.53" y1="133.38" x2="184.30" y2="160.70"/><line x1="292.64" y1="129.11" x2="287.30" y2="121.21"/><line x1="185.25" y1="299.30" x2="192.14" y2="292.86"/><line x1="184.94" y1="309.40" x2="206.99" y2="294.84"/><line x1="195.27" y1="173.80" x2="193.42" y2="173.87"/><line x1="241.53" y1="336.93" x2="243.33" y2="336.26"/><line x1="252.45" y1="216.52" x2="313.42" y2="222.08"/><line x1="213.70" y1="103.42" x2="219.82" y2="120.16"/><line x1="252.45" y1="216.52" x2="217.08" y2="216.52"/><line x1="192.14" y1="292.86" x2="184.99" y2="300.96"/><line x1="250.95" y1="127.03" x2="249.07" y2="123.05"/><line x1="215.35" y1="326.50" x2="195.64" y2="338.93"/><line x1="313.25" y1="235.28" x2="313.32" y2="234.37"/><line x1="191.11" y1="96.07" x2="190.54" y2="96.61"/><line x1="195.64" y1="338.93" x2="216.53" y2="328.87"/><line x1="249.07" y1="123.05" x2="261.97" y2="99.68"/><line x1="213.53" y1="133.38" x2="204.39" y2="95.83"/><line x1="197.92" y1="292.41" x2="184.94" y2="309.40"/><line x1="223.40" y1="117.83" x2="221.46" y2="118.88"/><line x1="213.53" y1="133.38" x2="194.54" y2="94.89"/><line x1="183.99" y1="163.06" x2="183.99" y2="163.59"/><line x1="269.53" y1="349.29" x2="249.09" y2="331.66"/><line x1="213.53" y1="133.38" x2="188.95" y2="100.53"/><line x1="211.47" y1="102.68" x2="216.02" y2="126.22"/><line x1="184.94" y1="309.40" x2="199.77" y2="292.48"/><line x1="183.99" y1="163.59" x2="184.03" y2="165.25"/><line x1="184.94" y1="309.40" x2="210.41" y2="300.06"/><line x1="313.48" y1="225.86" x2="313.46" y2="223.89"/><line x1="252.45" y1="216.52" x2="313.46" y2="230.90"/><line x1="252.45" y1="216.52" x2="313.16" y2="216.52"/><line x1="188.34" y1="104.06" x2="188.07" y2="106.23"/><line x1="206.68" y1="350.36" x2="209.73" y2="352.17"/><line x1="214.78" y1="129.48" x2="213.53" y2="133.38"/><line x1="252.45" y1="137.66" x2="252.08" y2="131.90"/><line x1="239.37" y1="94.84" x2="234.06" y2="115.97"/><line x1="237.51" y1="337.70" x2="239.59" y2="337.41"/><line x1="64.64" y1="32.09" x2="32.16" y2="64.58"/><line x1="188.07" y1="106.23" x2="187.82" y2="108.66"/><line x1="189.40" y1="173.49" x2="184.64" y2="169.26"/><line x1="252.08" y1="324.42" x2="286.87" y2="331.85"/><line x1="218.46" y1="121.67" x2="217.25" y2="123.62"/><line x1="213.53" y1="133.38" x2="207.24" y2="98.44"/><line x1="252.45" y1="236.07" x2="213.72" y2="236.07"/><line x1="213.53" y1="133.38" x2="201.39" y2="95.08"/><line x1="184.30" y1="160.70" x2="193.42" y2="173.87"/><line x1="226.04" y1="336.54" x2="228.83" y2="337.23"/><line x1="184.64" y1="169.26" x2="188.33" y2="173.19"/><line x1="213.53" y1="133.38" x2="191.11" y2="96.07"/><line x1="325.78" y1="192.26" x2="329.13" y2="216.52"/><line x1="213.53" y1="133.38" x2="187.82" y2="108.66"/><line x1="228.15" y1="116.44" x2="219.61" y2="99.97"/><line x1="207.24" y1="98.44" x2="206.66" y2="97.74"/><line x1="208.74" y1="153.60" x2="207.76" y2="157.66"/><line x1="184.94" y1="309.40" x2="205.82" y2="294.09"/><line x1="252.45" y1="216.52" x2="313.46" y2="223.89"/><line x1="185.46" y1="313.82" x2="186.31" y2="318.17"/><line x1="252.45" y1="216.52" x2="252.45" y2="192.26"/><line x1="207.76" y1="157.66" x2="206.81" y2="161.18"/><line x1="252.45" y1="137.66" x2="304.86" y2="157.32"/><line x1="311.07" y1="259.94" x2="252.45" y2="236.07"/><line x1="236.45" y1="357.67" x2="241.19" y2="357.75"/><line x1="200.93" y1="345.47" x2="203.74" y2="348.12"/><line x1="184.30" y1="160.70" x2="209.74" y2="149.01"/><line x1="186.12" y1="296.63" x2="185.64" y2="297.86"/><line x1="203.20" y1="95.38" x2="202.38" y2="95.22"/><line x1="213.53" y1="133.38" x2="204.95" y2="96.17"/><line x1="184.30" y1="160.70" x2="201.15" y2="171.87"/><line x1="219.47" y1="332.77" x2="206.68" y2="350.36"/><line x1="213.53" y1="133.38" x2="195.67" y2="94.84"/><line x1="214.87" y1="102.92" x2="214.42" y2="103.16"/><line x1="275.68" y1="344.54" x2="281.46" y2="338.72"/><line x1="32.16" y1="32.09" x2="64.64" y2="32.09"/><line x1="213.50" y1="320.96" x2="214.33" y2="323.86"/><line x1="251.61" y1="326.46" x2="252.08" y2="324.42"/><line x1="252.08" y1="131.90" x2="250.95" y2="127.03"/><line x1="252.45" y1="216.52" x2="313.42" y2="232.17"/><line x1="207.84" y1="99.23" x2="213.53" y2="133.38"/><line x1="252.45" y1="216.52" x2="313.25" y2="217.66"/><line x1="206.99" y1="294.84" x2="208.02" y2="295.71"/><line x1="256.10" y1="355.64" x2="246.50" y2="334.33"/><line x1="281.49" y1="114.22" x2="275.33" y2="108.30"/><line x1="313.16" y1="216.52" x2="325.78" y2="192.26"/><line x1="252.45" y1="137.66" x2="287.30" y2="121.21"/><line x1="213.44" y1="103.45" x2="212.85" y2="103.37"/><line x1="193.85" y1="292.61" x2="195.78" y2="292.46"/><line x1="208.02" y1="295.71" x2="208.93" y2="296.82"/><line x1="219.82" y1="355.62" x2="226.04" y2="336.54"/><line x1="218.46" y1="121.67" x2="212.19" y2="103.11"/><line x1="225.83" y1="97.13" x2="228.15" y2="116.44"/><line x1="32.00" y1="447.50" x2="64.49" y2="479.98"/></g></svg>