<svg xmlns="http://www.w3.org/2000/svg" width="512" height="512"><rect width="512" height="512" fill="#0a0f1a"/><text x="12" y="20" font-family="monospace" font-size="11" fill="#4a7fa5">FRONT (XZ)</text><g stroke="#00d4ff" stroke-width="0.6" opacity="0.85"><line x1="468.17" y1="377.28" x2="451.32" y2="330.13"/><line x1="83.36" y1="37.91" x2="72.54" y2="131.37"/><line x1="32.03" y1="126.70" x2="32.00" y2="32.00"/><line x1="150.22" y1="149.33" x2="113.08" y2="136.05"/><line x1="220.20" y1="183.48" x2="169.22" y2="199.90"/><line x1="113.08" y1="136.05" x2="72.54" y2="131.37"/><line x1="335.61" y1="408.43" x2="323.91" y2="375.69"/><line x1="375.96" y1="398.96" x2="362.68" y2="361.82"/><line x1="275.38" y1="284.99" x2="307.70" y2="259.04"/><line x1="181.87" y1="60.68" x2="134.72" y2="43.83"/><line x1="380.64" y1="439.50" x2="335.61" y2="408.43"/><line x1="434.46" y1="282.98" x2="408.02" y2="241.39"/><line x1="451.32" y1="330.13" x2="362.68" y2="361.82"/><line x1="474.09" y1="428.64" x2="375.96" y2="398.96"/><line x1="408.02" y1="241.39" x2="328.55" y2="291.84"/><line x1="227.09" y1="236.70" x2="220.20" y2="183.48"/><line x1="252.99" y1="204.33" x2="270.61" y2="103.98"/><line x1="72.54" y1="131.37" x2="67.82" y2="172.35"/><line x1="134.72" y1="43.83" x2="83.36" y2="37.91"/><line x1="187.41" y1="162.63" x2="181.87" y2="60.68"/><line x1="328.55" y1="291.84" x2="293.78" y2="313.94"/><line x1="169.22" y1="199.90" x2="150.22" y2="149.33"/><line x1="275.38" y1="284.99" x2="251.24" y2="260.85"/><line x1="312.17" y1="342.87" x2="349.40" y2="324.63"/><line x1="280.34" y1="231.69" x2="251.24" y2="260.85"/><line x1="346.89" y1="165.11" x2="252.99" y2="204.33"/><line x1="474.09" y1="428.64" x2="480.00" y2="480.00"/><line x1="451.32" y1="330.13" x2="434.46" y2="282.98"/><line x1="385.30" y1="480.00" x2="380.64" y2="439.50"/><line x1="349.40" y1="324.63" x2="434.46" y2="282.98"/><line x1="270.61" y1="103.98" x2="187.41" y2="162.63"/><line x1="103.66" y1="176.48" x2="67.82" y2="172.35"/><line x1="328.55" y1="291.84" x2="307.70" y2="259.04"/><line x1="280.34" y1="231.69" x2="252.99" y2="204.33"/><line x1="83.36" y1="37.91" x2="32.00" y2="32.00"/><line x1="251.24" y1="260.85" x2="227.09" y2="236.70"/><line x1="307.70" y1="259.04" x2="381.58" y2="199.80"/><line x1="349.40" y1="324.63" x2="328.55" y2="291.84"/><line x1="375.96" y1="398.96" x2="451.32" y2="330.13"/><line x1="227.09" y1="236.70" x2="252.99" y2="204.33"/><line x1="181.87" y1="60.68" x2="113.08" y2="136.05"/><line x1="380.64" y1="439.50" x2="339.74" y2="444.25"/><line x1="381.58" y1="199.80" x2="346.89" y2="165.11"/><line x1="312.17" y1="342.87" x2="293.78" y2="313.94"/><line x1="32.03" y1="126.70" x2="72.54" y2="131.37"/><line x1="307.70" y1="259.04" x2="280.34" y2="231.69"/><line x1="169.22" y1="199.90" x2="187.41" y2="162.63"/><line x1="252.99" y1="204.33" x2="312.20" y2="130.42"/><line x1="312.20" y1="130.42" x2="270.61" y2="103.98"/><line x1="380.64" y1="439.50" x2="375.96" y2="398.96"/><line x1="346.89" y1="165.11" x2="280.34" y2="231.69"/><line x1="187.41" y1="162.63" x2="229.02" y2="77.54"/><line x1="32.03" y1="126.70" x2="32.08" y2="168.23"/><line x1="293.78" y1="313.94" x2="275.38" y2="284.99"/><line x1="362.68" y1="361.82" x2="312.17" y2="342.87"/><line x1="270.61" y1="103.98" x2="220.20" y2="183.48"/><line x1="113.08" y1="136.05" x2="83.36" y2="37.91"/><line x1="252.99" y1="204.33" x2="220.20" y2="183.48"/><line x1="408.02" y1="241.39" x2="381.58" y2="199.80"/><line x1="339.74" y1="444.25" x2="335.61" y2="408.43"/><line x1="385.30" y1="480.00" x2="480.00" y2="480.00"/><line x1="150.22" y1="149.33" x2="103.66" y2="176.48"/><line x1="220.20" y1="183.48" x2="198.15" y2="218.30"/><line x1="103.66" y1="176.48" x2="72.54" y2="131.37"/><line x1="169.22" y1="199.90" x2="136.39" y2="188.17"/><line x1="335.61" y1="408.43" x2="362.68" y2="361.82"/><line x1="198.15" y1="218.30" x2="169.22" y2="199.90"/><line x1="346.89" y1="165.11" x2="312.20" y2="130.42"/><line x1="385.30" y1="480.00" x2="343.85" y2="480.00"/><line x1="270.61" y1="103.98" x2="229.02" y2="77.54"/><line x1="220.20" y1="183.48" x2="187.41" y2="162.63"/><line x1="380.64" y1="439.50" x2="343.85" y2="480.00"/><line x1="136.39" y1="188.17" x2="103.66" y2="176.48"/><line x1="312.17" y1="342.87" x2="328.55" y2="291.84"/><line x1="474.09" y1="428.64" x2="468.17" y2="377.28"/><line x1="307.70" y1="259.04" x2="346.89" y2="165.11"/><line x1="103.66" y1="176.48" x2="113.08" y2="136.05"/><line x1="229.02" y1="77.54" x2="181.87" y2="60.68"/><line x1="227.09" y1="236.70" x2="198.15" y2="218.30"/><line x1="72.54" y1="131.37" x2="32.08" y2="168.23"/><line x1="343.85" y1="480.00" x2="339.74" y2="444.25"/><line x1="275.38" y1="284.99" x2="280.34" y2="231.69"/><line x1="474.09" y1="428.64" x2="385.30" y2="480.00"/><line x1="187.41" y1="162.63" x2="150.22" y2="149.33"/><line x1="362.68" y1="361.82" x2="323.91" y2="375.69"/><line x1="451.32" y1="330.13" x2="349.40" y2="324.63"/><line x1="113.08" y1="136.05" x2="134.72" y2="43.83"/><line x1="335.61" y1="408.43" x2="375.96" y2="398.96"/><line x1="408.02" y1="241.39" x2="307.70" y2="259.04"/><line x1="328.55" y1="291.84" x2="275.38" y2="284.99"/><line x1="181.87" y1="60.68" x2="150.22" y2="149.33"/><line x1="67.82" y1="172.35" x2="32.08" y2="168.23"/><line x1="280.34" y1="231.69" x2="227.09" y2="236.70"/><line x1="83.36" y1="37.91" x2="32.03" y2="126.70"/><line x1="474.09" y1="428.64" x2="380.64" y2="439.50"/><line x1="150.22" y1="149.33" x2="136.39" y2="188.17"/><line x1="362.68" y1="361.82" x2="349.40" y2="324.63"/><line x1="323.91" y1="375.69" x2="312.17" y2="342.87"/><line x1="349.40" y1="324.63" x2="408.02" y2="241.39"/><line x1="375.96" y1="398.96" x2="468.17" y2="377.28"/></g></svg>