<svg xmlns="http://www.w3.org/2000/svg" width="512" height="512"><rect width="512" height="512" fill="#0a0f1a"/><text x="12" y="20" font-family="monospace" font-size="11" fill="#4a7fa5">FRONT (XZ)</text><g stroke="#00d4ff" stroke-width="0.6" opacity="0.85"><line x1="299.33" y1="347.13" x2="279.41" y2="339.34"/><line x1="318.46" y1="327.53" x2="273.78" y2="320.23"/><line x1="244.29" y1="223.99" x2="243.31" y2="224.84"/><line x1="113.02" y1="319.48" x2="115.09" y2="320.44"/><line x1="373.72" y1="293.38" x2="367.58" y2="338.10"/><line x1="480.00" y1="314.51" x2="479.71" y2="305.77"/><line x1="302.84" y1="147.25" x2="317.18" y2="136.59"/><line x1="243.31" y1="224.84" x2="242.31" y2="225.76"/><line x1="102.64" y1="299.43" x2="101.72" y2="297.39"/><line x1="203.96" y1="336.16" x2="202.47" y2="337.92"/><line x1="126.87" y1="271.07" x2="129.42" y2="273.62"/><line x1="75.33" y1="372.48" x2="60.95" y2="367.40"/><line x1="479.71" y1="305.77" x2="417.10" y2="276.68"/><line x1="272.97" y1="294.77" x2="320.13" y2="326.88"/><line x1="405.42" y1="270.18" x2="402.32" y2="269.30"/><line x1="272.97" y1="294.77" x2="339.15" y2="315.58"/><line x1="149.54" y1="239.08" x2="113.80" y2="241.22"/><line x1="202.47" y1="337.92" x2="200.97" y2="339.75"/><line x1="158.22" y1="218.50" x2="160.45" y2="215.18"/><line x1="363.25" y1="324.44" x2="365.01" y2="331.16"/><line x1="272.97" y1="294.77" x2="364.55" y2="271.94"/><line x1="149.54" y1="239.08" x2="126.87" y2="271.07"/><line x1="397.60" y1="280.03" x2="403.32" y2="279.32"/><line x1="419.64" y1="279.43" x2="415.49" y2="376.19"/><line x1="275.22" y1="162.12" x2="264.96" y2="186.91"/><line x1="419.64" y1="279.43" x2="474.76" y2="340.70"/><line x1="320.13" y1="326.88" x2="322.22" y2="326.74"/><line x1="148.23" y1="308.79" x2="219.50" y2="221.15"/><line x1="159.00" y1="234.89" x2="170.32" y2="213.55"/><line x1="98.21" y1="291.08" x2="96.76" y2="289.03"/><line x1="260.83" y1="160.12" x2="262.91" y2="160.20"/><line x1="403.32" y1="279.32" x2="370.83" y2="344.90"/><line x1="264.96" y1="186.91" x2="277.12" y2="162.38"/><line x1="281.31" y1="207.48" x2="244.29" y2="223.99"/><line x1="336.17" y1="153.90" x2="340.89" y2="159.37"/><line x1="219.57" y1="331.61" x2="224.83" y2="329.49"/><line x1="170.32" y1="213.55" x2="157.56" y2="230.92"/><line x1="133.20" y1="279.47" x2="158.05" y2="240.16"/><line x1="144.45" y1="312.35" x2="148.23" y2="308.79"/><line x1="273.39" y1="354.07" x2="283.16" y2="354.76"/><line x1="334.75" y1="324.71" x2="336.52" y2="322.48"/><line x1="340.89" y1="159.37" x2="345.57" y2="164.35"/><line x1="383.15" y1="266.04" x2="380.06" y2="266.07"/><line x1="191.11" y1="346.85" x2="189.36" y2="347.29"/><line x1="158.05" y1="240.16" x2="133.82" y2="281.98"/><line x1="282.48" y1="162.85" x2="276.28" y2="196.06"/><line x1="121.45" y1="363.70" x2="32.74" y2="314.29"/><line x1="336.52" y1="322.48" x2="337.94" y2="319.35"/><line x1="184.08" y1="348.62" x2="151.33" y2="350.23"/><line x1="121.45" y1="363.70" x2="45.60" y2="355.49"/><line x1="272.97" y1="294.77" x2="329.80" y2="326.84"/><line x1="380.06" y1="266.07" x2="377.13" y2="266.42"/><line x1="158.22" y1="218.50" x2="167.44" y2="212.89"/><line x1="272.97" y1="294.77" x2="343.61" y2="299.59"/><line x1="149.54" y1="239.08" x2="114.70" y2="256.87"/><line x1="60.80" y1="280.66" x2="53.92" y2="284.48"/><line x1="272.97" y1="294.77" x2="281.31" y2="207.48"/><line x1="419.64" y1="279.43" x2="389.04" y2="365.90"/><line x1="276.28" y1="196.06" x2="284.32" y2="162.81"/><line x1="419.64" y1="279.43" x2="444.01" y2="370.06"/><line x1="379.71" y1="187.67" x2="386.69" y2="191.04"/><line x1="148.23" y1="308.79" x2="237.99" y2="228.92"/><line x1="227.78" y1="326.08" x2="213.74" y2="331.42"/><line x1="167.44" y1="212.89" x2="166.47" y2="212.66"/><line x1="134.31" y1="294.27" x2="135.05" y2="297.41"/><line x1="151.33" y1="350.23" x2="150.48" y2="352.66"/><line x1="299.33" y1="347.13" x2="279.67" y2="340.81"/><line x1="386.69" y1="191.04" x2="393.55" y2="194.20"/><line x1="281.31" y1="207.48" x2="240.22" y2="227.55"/><line x1="227.01" y1="227.06" x2="223.30" y2="224.35"/><line x1="131.59" y1="276.39" x2="133.20" y2="279.47"/><line x1="253.94" y1="303.00" x2="260.51" y2="298.85"/><line x1="135.05" y1="297.41" x2="136.49" y2="300.39"/><line x1="150.48" y1="352.66" x2="149.73" y2="355.13"/><line x1="286.94" y1="159.78" x2="289.98" y2="157.70"/><line x1="223.30" y1="224.35" x2="219.50" y2="221.15"/><line x1="114.55" y1="237.48" x2="149.54" y2="239.08"/><line x1="121.45" y1="363.70" x2="60.80" y2="280.66"/><line x1="289.98" y1="157.70" x2="293.25" y2="156.34"/><line x1="217.61" y1="331.61" x2="215.64" y2="331.50"/><line x1="121.45" y1="363.70" x2="40.97" y2="349.99"/><line x1="159.65" y1="239.52" x2="134.04" y2="291.05"/><line x1="272.97" y1="294.77" x2="337.94" y2="319.35"/><line x1="149.54" y1="239.08" x2="115.35" y2="233.88"/><line x1="158.22" y1="218.50" x2="163.85" y2="212.76"/><line x1="363.25" y1="324.44" x2="367.78" y2="301.13"/><line x1="272.97" y1="294.77" x2="359.05" y2="276.53"/><line x1="100.68" y1="295.29" x2="99.51" y2="293.18"/><line x1="36.21" y1="341.47" x2="40.97" y2="349.99"/><line x1="149.54" y1="239.08" x2="124.14" y2="268.62"/><line x1="144.20" y1="307.20" x2="146.14" y2="308.05"/><line x1="305.21" y1="153.77" x2="326.67" y2="143.36"/><line x1="419.64" y1="279.43" x2="410.70" y2="375.56"/><line x1="159.65" y1="239.52" x2="146.14" y2="308.05"/><line x1="435.28" y1="216.80" x2="441.98" y2="222.93"/><line x1="148.23" y1="308.79" x2="223.30" y2="224.35"/><line x1="260.83" y1="160.12" x2="255.92" y2="167.78"/><line x1="281.31" y1="207.48" x2="245.25" y2="223.24"/><line x1="331.42" y1="148.40" x2="336.17" y2="153.90"/><line x1="200.91" y1="209.66" x2="197.07" y2="208.94"/><line x1="259.02" y1="177.44" x2="270.98" y2="161.59"/><line x1="383.73" y1="361.64" x2="419.64" y2="279.43"/><line x1="313.28" y1="335.22" x2="318.46" y2="327.53"/><line x1="101.72" y1="297.39" x2="100.68" y2="295.29"/><line x1="161.09" y1="238.28" x2="177.53" y2="212.82"/><line x1="215.64" y1="331.50" x2="227.78" y2="326.08"/><line x1="116.73" y1="260.80" x2="118.88" y2="263.59"/><line x1="121.45" y1="363.70" x2="113.02" y2="319.48"/><line x1="121.45" y1="363.70" x2="95.15" y2="287.05"/><line x1="152.08" y1="347.91" x2="151.33" y2="350.23"/><line x1="279.57" y1="343.69" x2="299.33" y2="347.13"/><line x1="121.45" y1="363.70" x2="35.50" y2="305.44"/><line x1="121.45" y1="363.70" x2="44.63" y2="354.46"/><line x1="272.97" y1="294.77" x2="327.17" y2="326.99"/><line x1="104.57" y1="305.33" x2="104.09" y2="303.29"/><line x1="159.65" y1="239.52" x2="137.80" y2="302.19"/><line x1="137.10" y1="354.81" x2="132.49" y2="320.01"/><line x1="247.32" y1="308.08" x2="253.94" y2="303.00"/><line x1="343.61" y1="299.59" x2="346.37" y2="293.76"/><line x1="148.23" y1="308.79" x2="239.12" y2="228.31"/><line x1="152.82" y1="239.83" x2="154.58" y2="240.18"/><line x1="32.00" y1="323.39" x2="33.19" y2="332.53"/><line x1="415.49" y1="376.19" x2="422.01" y2="376.08"/><line x1="346.37" y1="293.76" x2="349.91" y2="287.76"/><line x1="210.44" y1="331.87" x2="209.97" y2="332.05"/><line x1="33.19" y1="332.53" x2="36.21" y2="341.47"/><line x1="278.93" y1="162.61" x2="280.71" y2="162.78"/><line x1="422.01" y1="376.08" x2="429.10" y2="374.99"/><line x1="313.28" y1="335.22" x2="277.66" y2="335.09"/><line x1="428.43" y1="211.68" x2="435.28" y2="216.80"/><line x1="161.09" y1="238.28" x2="189.66" y2="208.90"/><line x1="156.88" y1="226.66" x2="157.07" y2="222.43"/><line x1="209.97" y1="332.05" x2="209.51" y2="332.22"/><line x1="121.45" y1="363.70" x2="100.68" y2="295.29"/><line x1="152.54" y1="343.96" x2="148.23" y2="308.79"/><line x1="121.45" y1="363.70" x2="120.95" y2="322.04"/><line x1="121.45" y1="363.70" x2="67.92" y2="278.21"/><line x1="277.66" y1="335.09" x2="276.95" y2="333.65"/><line x1="217.61" y1="331.61" x2="227.07" y2="326.92"/><line x1="274.38" y1="208.85" x2="267.49" y2="210.98"/><line x1="121.45" y1="363.70" x2="36.21" y2="341.47"/><line x1="204.69" y1="210.84" x2="200.91" y2="209.66"/><line x1="159.65" y1="239.52" x2="134.01" y2="287.87"/><line x1="121.45" y1="363.70" x2="105.80" y2="370.02"/><line x1="159.65" y1="239.52" x2="144.20" y2="307.20"/><line x1="363.25" y1="324.44" x2="365.48" y2="305.18"/><line x1="464.29" y1="356.24" x2="470.35" y2="348.78"/><line x1="305.21" y1="153.77" x2="331.42" y2="148.40"/><line x1="114.70" y1="256.87" x2="116.73" y2="260.80"/><line x1="367.58" y1="338.10" x2="380.83" y2="286.96"/><line x1="45.60" y1="355.49" x2="46.54" y2="356.44"/><line x1="470.35" y1="348.78" x2="474.76" y2="340.70"/><line x1="124.64" y1="322.07" x2="128.51" y2="321.38"/><line x1="296.16" y1="206.49" x2="407.44" y2="200.35"/><line x1="273.78" y1="320.23" x2="273.53" y2="315.02"/><line x1="296.16" y1="206.49" x2="470.39" y2="266.34"/><line x1="474.13" y1="277.05" x2="476.86" y2="287.43"/><line x1="115.09" y1="320.44" x2="117.17" y2="321.19"/><line x1="306.77" y1="341.73" x2="313.28" y2="335.22"/><line x1="259.02" y1="177.44" x2="269.29" y2="161.32"/><line x1="273.53" y1="315.02" x2="273.50" y2="309.83"/><line x1="161.09" y1="238.28" x2="208.31" y2="212.49"/><line x1="313.28" y1="335.22" x2="274.44" y2="325.44"/><line x1="242.31" y1="225.76" x2="241.28" y2="226.68"/><line x1="101.72" y1="297.39" x2="121.45" y2="363.70"/><line x1="161.09" y1="238.28" x2="179.57" y2="212.08"/><line x1="181.63" y1="211.23" x2="179.57" y2="212.08"/><line x1="117.17" y1="321.19" x2="119.16" y2="321.73"/><line x1="121.45" y1="363.70" x2="111.07" y2="318.33"/><line x1="377.17" y1="289.95" x2="380.83" y2="286.96"/><line x1="152.54" y1="343.96" x2="152.55" y2="345.79"/><line x1="281.31" y1="207.48" x2="148.23" y2="308.79"/><line x1="121.45" y1="363.70" x2="96.76" y2="289.03"/><line x1="303.00" y1="143.96" x2="304.04" y2="140.95"/><line x1="121.45" y1="363.70" x2="40.37" y2="297.08"/><line x1="241.28" y1="226.68" x2="240.22" y2="227.55"/><line x1="179.57" y1="212.08" x2="177.53" y2="212.82"/><line x1="151.13" y1="239.42" x2="152.82" y2="239.83"/><line x1="159.65" y1="239.52" x2="136.49" y2="300.39"/><line x1="370.83" y1="344.90" x2="374.59" y2="351.19"/><line x1="137.10" y1="354.81" x2="128.51" y2="321.38"/><line x1="414.37" y1="274.46" x2="411.48" y2="272.69"/><line x1="399.24" y1="268.56" x2="396.11" y2="267.88"/><line x1="199.36" y1="341.62" x2="197.54" y2="343.43"/><line x1="152.82" y1="239.83" x2="131.59" y2="276.39"/><line x1="408.96" y1="279.10" x2="414.43" y2="279.20"/><line x1="367.58" y1="338.10" x2="403.32" y2="279.32"/><line x1="283.16" y1="354.76" x2="277.49" y2="349.11"/><line x1="277.12" y1="162.38" x2="278.93" y2="162.61"/><line x1="296.16" y1="206.49" x2="372.68" y2="183.99"/><line x1="324.61" y1="326.86" x2="327.17" y2="326.99"/><line x1="296.16" y1="206.49" x2="435.28" y2="216.80"/><line x1="370.59" y1="268.47" x2="377.13" y2="266.42"/><line x1="225.61" y1="328.67" x2="226.35" y2="327.80"/><line x1="396.11" y1="267.88" x2="392.89" y2="267.23"/><line x1="296.16" y1="206.49" x2="288.51" y2="206.74"/><line x1="157.56" y1="230.92" x2="156.88" y2="226.66"/><line x1="365.01" y1="331.16" x2="367.58" y2="338.10"/><line x1="95.15" y1="287.05" x2="88.89" y2="281.56"/><line x1="292.57" y1="204.14" x2="299.80" y2="154.92"/><line x1="321.91" y1="139.26" x2="317.18" y2="136.59"/><line x1="345.57" y1="164.35" x2="352.05" y2="170.18"/><line x1="161.09" y1="238.28" x2="193.29" y2="208.69"/><line x1="156.88" y1="226.66" x2="169.39" y2="213.40"/><line x1="161.09" y1="238.28" x2="159.00" y2="234.89"/><line x1="133.82" y1="281.98" x2="159.65" y2="239.52"/><line x1="152.54" y1="343.96" x2="144.45" y2="312.35"/><line x1="121.45" y1="363.70" x2="119.16" y2="321.73"/><line x1="284.32" y1="162.81" x2="284.60" y2="200.16"/><line x1="352.05" y1="170.18" x2="358.78" y2="175.34"/><line x1="121.45" y1="363.70" x2="75.10" y2="277.38"/><line x1="159.65" y1="239.52" x2="134.01" y2="284.82"/><line x1="261.76" y1="182.40" x2="264.96" y2="186.91"/><line x1="281.31" y1="207.48" x2="389.62" y2="266.67"/><line x1="239.12" y1="228.31" x2="237.99" y2="228.92"/><line x1="367.58" y1="338.10" x2="377.17" y2="289.95"/><line x1="296.16" y1="206.49" x2="340.89" y2="159.37"/><line x1="279.41" y1="339.34" x2="278.96" y2="337.91"/><line x1="124.64" y1="322.07" x2="137.10" y2="354.81"/><line x1="296.16" y1="206.49" x2="400.45" y2="197.26"/><line x1="219.50" y1="221.15" x2="215.63" y2="217.80"/><line x1="234.46" y1="319.60" x2="240.78" y2="313.73"/><line x1="296.16" y1="206.49" x2="465.47" y2="255.42"/><line x1="104.99" y1="307.45" x2="105.44" y2="309.57"/><line x1="165.54" y1="212.52" x2="164.66" y2="212.53"/><line x1="417.10" y1="276.68" x2="414.37" y2="274.46"/><line x1="400.45" y1="197.26" x2="407.44" y2="200.35"/><line x1="161.09" y1="238.28" x2="211.66" y2="214.61"/><line x1="101.72" y1="297.39" x2="106.02" y2="311.66"/><line x1="200.97" y1="339.75" x2="199.36" y2="341.62"/><line x1="161.09" y1="238.28" x2="181.63" y2="211.23"/><line x1="479.71" y1="305.77" x2="296.16" y2="206.49"/><line x1="137.80" y1="302.19" x2="139.20" y2="303.74"/><line x1="121.45" y1="363.70" x2="109.34" y2="316.99"/><line x1="322.22" y1="326.74" x2="324.61" y2="326.86"/><line x1="209.04" y1="332.38" x2="208.58" y2="332.55"/><line x1="317.18" y1="136.59" x2="312.47" y2="135.81"/><line x1="255.92" y1="167.78" x2="256.99" y2="172.43"/><line x1="370.83" y1="344.90" x2="408.96" y2="279.10"/><line x1="281.31" y1="207.48" x2="405.42" y2="270.18"/><line x1="247.32" y1="308.08" x2="152.54" y2="343.96"/><line x1="224.83" y1="329.49" x2="225.61" y2="328.67"/><line x1="281.31" y1="207.48" x2="377.13" y2="266.42"/><line x1="367.78" y1="301.13" x2="370.55" y2="297.15"/><line x1="262.91" y1="160.20" x2="265.11" y2="160.51"/><line x1="367.58" y1="338.10" x2="397.60" y2="280.03"/><line x1="283.16" y1="354.76" x2="275.66" y2="351.66"/><line x1="152.54" y1="343.96" x2="199.36" y2="341.62"/><line x1="296.16" y1="206.49" x2="365.68" y2="179.91"/><line x1="296.16" y1="206.49" x2="428.43" y2="211.68"/><line x1="225.61" y1="328.67" x2="217.61" y2="331.61"/><line x1="152.54" y1="343.96" x2="260.51" y2="298.85"/><line x1="47.41" y1="357.30" x2="90.35" y2="373.15"/><line x1="292.57" y1="204.14" x2="296.58" y2="155.49"/><line x1="321.91" y1="139.26" x2="302.84" y2="147.25"/><line x1="275.66" y1="351.66" x2="277.49" y2="349.11"/><line x1="240.78" y1="313.73" x2="209.04" y2="332.38"/><line x1="337.94" y1="319.35" x2="339.15" y2="315.58"/><line x1="187.56" y1="347.71" x2="185.78" y2="348.14"/><line x1="256.03" y1="163.87" x2="255.92" y2="167.78"/><line x1="270.98" y1="161.59" x2="273.19" y2="161.85"/><line x1="389.04" y1="365.90" x2="394.53" y2="369.40"/><line x1="284.32" y1="162.81" x2="280.43" y2="198.21"/><line x1="224.03" y1="330.20" x2="219.57" y2="331.61"/><line x1="339.15" y1="315.58" x2="340.21" y2="311.45"/><line x1="213.74" y1="331.42" x2="228.49" y2="325.34"/><line x1="166.47" y1="212.66" x2="165.54" y2="212.52"/><line x1="47.45" y1="289.43" x2="40.37" y2="297.08"/><line x1="275.20" y1="357.09" x2="273.39" y2="354.07"/><line x1="261.76" y1="182.40" x2="275.22" y2="162.12"/><line x1="394.53" y1="369.40" x2="400.07" y2="372.17"/><line x1="260.48" y1="214.00" x2="253.13" y2="218.04"/><line x1="479.71" y1="305.77" x2="281.31" y2="207.48"/><line x1="279.67" y1="340.81" x2="279.41" y2="339.34"/><line x1="393.55" y1="194.20" x2="400.45" y2="197.26"/><line x1="228.49" y1="325.34" x2="234.46" y2="319.60"/><line x1="281.31" y1="207.48" x2="392.89" y2="267.23"/><line x1="136.49" y1="300.39" x2="137.80" y2="302.19"/><line x1="318.46" y1="327.53" x2="273.40" y2="299.67"/><line x1="149.73" y1="355.13" x2="149.25" y2="357.56"/><line x1="296.16" y1="206.49" x2="336.17" y2="153.90"/><line x1="279.41" y1="339.34" x2="306.77" y2="341.73"/><line x1="152.54" y1="343.96" x2="207.28" y2="333.21"/><line x1="96.76" y1="289.03" x2="95.15" y2="287.05"/><line x1="349.91" y1="287.76" x2="354.15" y2="281.91"/><line x1="296.16" y1="206.49" x2="393.55" y2="194.20"/><line x1="152.54" y1="343.96" x2="192.75" y2="346.37"/><line x1="219.50" y1="221.15" x2="161.09" y2="238.28"/><line x1="104.99" y1="307.45" x2="101.72" y2="297.39"/><line x1="414.43" y1="279.20" x2="419.64" y2="279.43"/><line x1="429.10" y1="374.99" x2="436.52" y2="372.98"/><line x1="293.25" y1="156.34" x2="296.58" y2="155.49"/><line x1="354.15" y1="281.91" x2="359.05" y2="276.53"/><line x1="148.23" y1="308.79" x2="266.90" y2="295.99"/><line x1="40.97" y1="349.99" x2="41.79" y2="351.13"/><line x1="436.52" y1="372.98" x2="444.01" y2="370.06"/><line x1="189.36" y1="347.29" x2="187.56" y2="347.71"/><line x1="441.98" y1="222.93" x2="451.42" y2="233.58"/><line x1="209.04" y1="332.38" x2="247.32" y2="308.08"/><line x1="419.64" y1="279.43" x2="479.71" y2="305.77"/><line x1="317.18" y1="136.59" x2="308.78" y2="136.65"/><line x1="255.92" y1="167.78" x2="262.91" y2="160.20"/><line x1="276.28" y1="332.16" x2="275.70" y2="330.60"/><line x1="53.92" y1="284.48" x2="47.45" y2="289.43"/><line x1="411.48" y1="272.69" x2="281.31" y2="207.48"/><line x1="103.45" y1="301.38" x2="102.64" y2="299.43"/><line x1="281.31" y1="207.48" x2="408.48" y2="271.28"/><line x1="197.07" y1="208.94" x2="193.29" y2="208.69"/><line x1="107.94" y1="315.47" x2="109.34" y2="316.99"/><line x1="281.31" y1="207.48" x2="380.06" y2="266.07"/><line x1="367.78" y1="301.13" x2="365.01" y2="331.16"/><line x1="326.67" y1="143.36" x2="321.91" y2="139.26"/><line x1="253.13" y1="218.04" x2="245.25" y2="223.24"/><line x1="152.54" y1="343.96" x2="200.97" y2="339.75"/><line x1="152.54" y1="343.96" x2="185.78" y2="348.14"/><line x1="118.88" y1="263.59" x2="121.41" y2="266.16"/><line x1="47.41" y1="357.30" x2="105.80" y2="370.02"/><line x1="292.57" y1="204.14" x2="293.25" y2="156.34"/><line x1="102.64" y1="299.43" x2="104.99" y2="307.45"/><line x1="240.78" y1="313.73" x2="209.51" y2="332.22"/><line x1="256.03" y1="163.87" x2="260.83" y2="160.12"/><line x1="184.08" y1="348.62" x2="149.25" y2="359.86"/><line x1="270.98" y1="161.59" x2="261.76" y2="182.40"/><line x1="224.03" y1="330.20" x2="223.16" y2="330.76"/><line x1="106.02" y1="311.66" x2="106.83" y2="313.64"/><line x1="177.53" y1="212.82" x2="175.40" y2="213.37"/><line x1="363.76" y1="309.20" x2="365.48" y2="305.18"/><line x1="419.64" y1="279.43" x2="470.35" y2="348.78"/><line x1="209.51" y1="332.22" x2="209.04" y2="332.38"/><line x1="275.20" y1="357.09" x2="267.82" y2="358.48"/><line x1="260.48" y1="214.00" x2="281.31" y2="207.48"/><line x1="374.59" y1="351.19" x2="378.76" y2="356.62"/><line x1="318.46" y1="327.53" x2="273.52" y2="304.70"/><line x1="268.39" y1="190.56" x2="272.22" y2="193.57"/><line x1="152.54" y1="343.96" x2="207.70" y2="332.96"/><line x1="148.23" y1="308.79" x2="159.65" y2="239.52"/><line x1="152.54" y1="343.96" x2="194.21" y2="345.80"/><line x1="154.58" y1="240.18" x2="156.34" y2="240.33"/><line x1="414.43" y1="279.20" x2="383.73" y2="361.64"/><line x1="280.71" y1="162.78" x2="282.48" y2="162.85"/><line x1="276.95" y1="333.65" x2="276.28" y2="332.16"/><line x1="157.07" y1="222.43" x2="158.22" y2="218.50"/><line x1="184.08" y1="348.62" x2="152.08" y2="347.91"/><line x1="365.48" y1="305.18" x2="367.78" y2="301.13"/><line x1="278.82" y1="346.45" x2="279.57" y2="343.69"/><line x1="272.97" y1="294.77" x2="342.34" y2="303.18"/><line x1="149.54" y1="239.08" x2="113.56" y2="252.91"/><line x1="419.64" y1="279.43" x2="436.52" y2="372.98"/><line x1="419.64" y1="279.43" x2="480.00" y2="314.51"/><line x1="317.18" y1="136.59" x2="305.97" y2="138.44"/><line x1="474.76" y1="340.70" x2="477.72" y2="332.16"/><line x1="129.42" y1="273.62" x2="131.59" y2="276.39"/><line x1="281.31" y1="207.48" x2="241.28" y2="226.68"/><line x1="131.59" y1="276.39" x2="156.34" y2="240.33"/><line x1="273.50" y1="309.83" x2="273.52" y2="304.70"/><line x1="211.98" y1="331.50" x2="210.44" y2="331.87"/><line x1="152.54" y1="343.96" x2="202.47" y2="337.92"/><line x1="207.28" y1="333.21" x2="205.54" y2="334.57"/><line x1="362.43" y1="318.28" x2="363.25" y2="324.44"/><line x1="380.83" y1="286.96" x2="386.26" y2="283.67"/><line x1="120.95" y1="322.04" x2="124.64" y2="322.07"/><line x1="256.03" y1="163.87" x2="257.59" y2="161.13"/><line x1="169.39" y1="213.40" x2="168.42" y2="213.16"/><line x1="184.08" y1="348.62" x2="149.25" y2="357.56"/><line x1="272.97" y1="294.77" x2="336.52" y2="322.48"/><line x1="411.48" y1="272.69" x2="408.48" y2="271.28"/><line x1="305.97" y1="138.44" x2="308.78" y2="136.65"/><line x1="158.22" y1="218.50" x2="164.66" y2="212.53"/><line x1="272.97" y1="294.77" x2="354.15" y2="281.91"/><line x1="149.54" y1="239.08" x2="121.41" y2="266.16"/><line x1="419.64" y1="279.43" x2="405.51" y2="374.22"/><line x1="256.99" y1="172.43" x2="259.02" y2="177.44"/><line x1="419.64" y1="279.43" x2="464.29" y2="356.24"/><line x1="132.49" y1="320.01" x2="136.52" y2="318.01"/><line x1="302.73" y1="154.42" x2="305.21" y2="153.77"/><line x1="148.23" y1="308.79" x2="227.01" y2="227.06"/><line x1="106.83" y1="313.64" x2="107.94" y2="315.47"/><line x1="392.89" y1="267.23" x2="389.62" y2="266.67"/><line x1="195.42" y1="345.12" x2="194.21" y2="345.80"/><line x1="331.42" y1="148.40" x2="326.67" y2="143.36"/><line x1="281.31" y1="207.48" x2="253.13" y2="218.04"/><line x1="374.59" y1="351.19" x2="414.43" y2="279.20"/><line x1="318.46" y1="327.53" x2="273.50" y2="309.83"/><line x1="268.39" y1="190.56" x2="280.71" y2="162.78"/><line x1="272.97" y1="294.77" x2="370.59" y2="268.47"/><line x1="46.54" y1="356.44" x2="47.41" y2="357.30"/><line x1="152.54" y1="343.96" x2="253.94" y2="303.00"/><line x1="82.15" y1="278.42" x2="75.10" y2="277.38"/><line x1="476.86" y1="287.43" x2="478.72" y2="297.33"/><line x1="207.70" y1="332.96" x2="207.28" y2="333.21"/><line x1="358.78" y1="175.34" x2="365.68" y2="179.91"/><line x1="226.35" y1="327.80" x2="227.07" y2="326.92"/><line x1="269.29" y1="161.32" x2="270.98" y2="161.59"/><line x1="479.71" y1="305.77" x2="411.48" y2="272.69"/><line x1="184.08" y1="348.62" x2="152.55" y2="345.79"/><line x1="121.45" y1="363.70" x2="43.65" y2="353.38"/><line x1="272.97" y1="294.77" x2="324.61" y2="326.86"/><line x1="479.71" y1="305.77" x2="288.51" y2="206.74"/><line x1="119.16" y1="321.73" x2="120.95" y2="322.04"/><line x1="121.45" y1="363.70" x2="137.10" y2="354.81"/><line x1="272.97" y1="294.77" x2="341.25" y2="307.23"/><line x1="149.54" y1="239.08" x2="113.14" y2="248.96"/><line x1="237.99" y1="228.92" x2="234.35" y2="229.68"/><line x1="149.54" y1="239.08" x2="151.13" y2="239.42"/><line x1="304.04" y1="140.95" x2="305.97" y2="138.44"/><line x1="419.64" y1="279.43" x2="429.10" y2="374.99"/><line x1="364.55" y1="271.94" x2="370.59" y2="268.47"/><line x1="419.64" y1="279.43" x2="479.40" y2="323.38"/><line x1="284.60" y1="200.16" x2="288.68" y2="202.09"/><line x1="341.25" y1="307.23" x2="342.34" y2="303.18"/><line x1="128.51" y1="321.38" x2="132.49" y2="320.01"/><line x1="35.50" y1="305.44" x2="32.74" y2="314.29"/><line x1="281.31" y1="207.48" x2="242.31" y2="225.76"/><line x1="197.54" y1="343.43" x2="195.42" y2="345.12"/><line x1="131.59" y1="276.39" x2="154.58" y2="240.18"/><line x1="219.57" y1="331.61" x2="217.61" y2="331.61"/><line x1="407.44" y1="200.35" x2="414.47" y2="203.64"/><line x1="211.98" y1="331.50" x2="240.78" y2="313.73"/><line x1="278.93" y1="162.61" x2="268.39" y2="190.56"/><line x1="327.17" y1="326.99" x2="329.80" y2="326.84"/><line x1="362.43" y1="318.28" x2="362.70" y2="313.05"/><line x1="88.89" y1="281.56" x2="82.15" y2="278.42"/><line x1="105.44" y1="309.57" x2="106.02" y2="311.66"/><line x1="217.61" y1="331.61" x2="226.35" y2="327.80"/><line x1="121.45" y1="363.70" x2="33.19" y2="332.53"/><line x1="169.39" y1="213.40" x2="157.07" y2="222.43"/><line x1="161.09" y1="238.28" x2="159.65" y2="239.52"/><line x1="299.80" y1="154.92" x2="302.73" y2="154.42"/><line x1="121.45" y1="363.70" x2="47.41" y2="357.30"/><line x1="272.97" y1="294.77" x2="334.75" y2="324.71"/><line x1="158.22" y1="218.50" x2="165.54" y2="212.52"/><line x1="159.65" y1="239.52" x2="142.40" y2="306.22"/><line x1="272.97" y1="294.77" x2="349.91" y2="287.76"/><line x1="277.49" y1="349.11" x2="278.82" y2="346.45"/><line x1="208.58" y1="332.55" x2="208.14" y2="332.74"/><line x1="149.54" y1="239.08" x2="118.88" y2="263.59"/><line x1="419.64" y1="279.43" x2="400.07" y2="372.17"/><line x1="256.99" y1="172.43" x2="267.29" y2="160.92"/><line x1="274.44" y1="325.44" x2="273.78" y2="320.23"/><line x1="148.23" y1="308.79" x2="230.70" y2="228.95"/><line x1="134.01" y1="284.82" x2="134.01" y2="287.87"/><line x1="280.43" y1="198.21" x2="284.60" y2="200.16"/><line x1="299.33" y1="347.13" x2="306.77" y2="341.73"/><line x1="272.97" y1="294.77" x2="266.90" y2="295.99"/><line x1="306.77" y1="341.73" x2="278.35" y2="336.50"/><line x1="313.28" y1="335.22" x2="275.70" y2="330.60"/><line x1="164.66" y1="212.53" x2="163.85" y2="212.76"/><line x1="152.54" y1="343.96" x2="137.10" y2="354.81"/><line x1="114.55" y1="237.48" x2="113.80" y2="241.22"/><line x1="152.54" y1="343.96" x2="184.08" y2="348.62"/><line x1="121.45" y1="363.70" x2="98.21" y2="291.08"/><line x1="121.45" y1="363.70" x2="47.45" y2="289.43"/><line x1="400.07" y1="372.17" x2="405.51" y2="374.22"/><line x1="121.45" y1="363.70" x2="42.69" y2="352.26"/><line x1="272.97" y1="294.77" x2="322.22" y2="326.74"/><line x1="479.71" y1="305.77" x2="478.72" y2="297.33"/><line x1="139.20" y1="303.74" x2="140.74" y2="305.07"/><line x1="159.65" y1="239.52" x2="135.05" y2="297.41"/><line x1="272.97" y1="294.77" x2="340.21" y2="311.45"/><line x1="149.54" y1="239.08" x2="113.27" y2="245.06"/><line x1="215.63" y1="217.80" x2="211.66" y2="214.61"/><line x1="305.21" y1="153.77" x2="303.58" y2="150.60"/><line x1="148.23" y1="308.79" x2="161.09" y2="238.28"/><line x1="408.96" y1="279.10" x2="374.59" y2="351.19"/><line x1="159.00" y1="234.89" x2="157.56" y2="230.92"/><line x1="113.27" y1="245.06" x2="113.14" y2="248.96"/><line x1="296.16" y1="206.49" x2="478.72" y2="297.33"/><line x1="365.01" y1="331.16" x2="373.72" y2="293.38"/><line x1="133.20" y1="279.47" x2="133.82" y2="281.98"/><line x1="161.09" y1="238.28" x2="197.07" y2="208.94"/><line x1="161.09" y1="238.28" x2="173.03" y2="213.64"/><line x1="152.54" y1="343.96" x2="140.52" y2="315.44"/><line x1="121.45" y1="363.70" x2="117.17" y2="321.19"/><line x1="121.45" y1="363.70" x2="82.15" y2="278.42"/><line x1="282.48" y1="162.85" x2="284.32" y2="162.81"/><line x1="121.45" y1="363.70" x2="32.00" y2="323.39"/><line x1="121.45" y1="363.70" x2="46.54" y2="356.44"/><line x1="104.57" y1="305.33" x2="104.99" y2="307.45"/><line x1="158.22" y1="218.50" x2="166.47" y2="212.66"/><line x1="159.65" y1="239.52" x2="140.74" y2="305.07"/><line x1="340.21" y1="311.45" x2="341.25" y2="307.23"/><line x1="256.99" y1="172.43" x2="265.11" y2="160.51"/><line x1="40.37" y1="297.08" x2="35.50" y2="305.44"/><line x1="148.23" y1="308.79" x2="234.35" y2="229.68"/><line x1="173.03" y1="213.64" x2="170.32" y2="213.55"/><line x1="234.46" y1="319.60" x2="211.98" y2="331.50"/><line x1="296.16" y1="206.49" x2="459.20" y2="244.46"/><line x1="303.58" y1="150.60" x2="302.84" y2="147.25"/><line x1="149.25" y1="357.56" x2="149.25" y2="359.86"/><line x1="272.97" y1="294.77" x2="148.23" y2="308.79"/><line x1="306.77" y1="341.73" x2="278.96" y2="337.91"/><line x1="90.35" y1="373.15" x2="75.33" y2="372.48"/><line x1="161.09" y1="238.28" x2="215.63" y2="217.80"/><line x1="313.28" y1="335.22" x2="276.28" y2="332.16"/><line x1="156.34" y1="240.33" x2="158.05" y2="240.16"/><line x1="101.72" y1="297.39" x2="105.44" y2="309.57"/><line x1="161.09" y1="238.28" x2="183.82" y2="210.37"/><line x1="121.45" y1="363.70" x2="107.94" y2="315.47"/><line x1="114.55" y1="237.48" x2="115.35" y2="233.88"/><line x1="296.58" y1="155.49" x2="299.80" y2="154.92"/><line x1="121.45" y1="363.70" x2="99.51" y2="293.18"/><line x1="359.05" y1="276.53" x2="364.55" y2="271.94"/><line x1="284.32" y1="162.81" x2="286.94" y2="159.78"/><line x1="121.45" y1="363.70" x2="53.92" y2="284.48"/><line x1="273.19" y1="161.85" x2="275.22" y2="162.12"/><line x1="113.80" y1="241.22" x2="113.27" y2="245.06"/><line x1="121.45" y1="363.70" x2="41.79" y2="351.13"/><line x1="41.79" y1="351.13" x2="42.69" y2="352.26"/><line x1="272.22" y1="193.57" x2="276.28" y2="196.06"/><line x1="159.65" y1="239.52" x2="134.31" y2="294.27"/><line x1="444.01" y1="370.06" x2="451.30" y2="366.28"/><line x1="99.51" y1="293.18" x2="98.21" y2="291.08"/><line x1="451.42" y1="233.58" x2="459.20" y2="244.46"/><line x1="168.42" y1="213.16" x2="167.44" y2="212.89"/><line x1="247.32" y1="308.08" x2="208.58" y2="332.55"/><line x1="305.21" y1="153.77" x2="321.91" y2="139.26"/><line x1="260.51" y1="298.85" x2="266.90" y2="295.99"/><line x1="262.91" y1="160.20" x2="256.99" y2="172.43"/><line x1="275.70" y1="330.60" x2="274.44" y2="325.44"/><line x1="367.58" y1="338.10" x2="391.88" y2="281.42"/><line x1="296.16" y1="206.49" x2="358.78" y2="175.34"/><line x1="459.20" y1="244.46" x2="465.47" y2="255.42"/><line x1="140.52" y1="315.44" x2="144.45" y2="312.35"/><line x1="296.16" y1="206.49" x2="421.48" y2="207.36"/><line x1="193.29" y1="208.69" x2="189.66" y2="208.90"/><line x1="109.34" y1="316.99" x2="111.07" y2="318.33"/><line x1="296.16" y1="206.49" x2="476.86" y2="287.43"/><line x1="365.01" y1="331.16" x2="370.55" y2="297.15"/><line x1="192.75" y1="346.37" x2="191.11" y2="346.85"/><line x1="321.91" y1="139.26" x2="303.58" y2="150.60"/><line x1="245.25" y1="223.24" x2="244.29" y2="223.99"/><line x1="259.02" y1="177.44" x2="261.76" y2="182.40"/><line x1="383.73" y1="361.64" x2="389.04" y2="365.90"/><line x1="189.66" y1="208.90" x2="186.28" y2="209.57"/><line x1="161.09" y1="238.28" x2="200.91" y2="209.66"/><line x1="121.41" y1="266.16" x2="124.14" y2="268.62"/><line x1="105.80" y1="370.02" x2="90.35" y2="373.15"/><line x1="161.09" y1="238.28" x2="175.40" y2="213.37"/><line x1="215.64" y1="331.50" x2="213.74" y2="331.42"/><line x1="479.40" y1="323.38" x2="480.00" y2="314.51"/><line x1="152.54" y1="343.96" x2="136.52" y2="318.01"/><line x1="121.45" y1="363.70" x2="115.09" y2="320.44"/><line x1="67.92" y1="278.21" x2="60.80" y2="280.66"/><line x1="281.31" y1="207.48" x2="370.59" y2="268.47"/><line x1="121.45" y1="363.70" x2="88.89" y2="281.56"/><line x1="205.54" y1="334.57" x2="203.96" y2="336.16"/><line x1="279.57" y1="343.69" x2="279.67" y2="340.81"/><line x1="124.14" y1="268.62" x2="126.87" y2="271.07"/><line x1="261.76" y1="182.40" x2="273.19" y2="161.85"/><line x1="104.57" y1="305.33" x2="102.64" y2="299.43"/><line x1="273.40" y1="299.67" x2="272.97" y2="294.77"/><line x1="137.10" y1="354.81" x2="136.52" y2="318.01"/><line x1="159.65" y1="239.52" x2="139.20" y2="303.74"/><line x1="221.44" y1="331.37" x2="219.57" y2="331.61"/><line x1="408.48" y1="271.28" x2="405.42" y2="270.18"/><line x1="175.40" y1="213.37" x2="173.03" y2="213.64"/><line x1="281.31" y1="207.48" x2="396.11" y2="267.88"/><line x1="270.75" y1="356.35" x2="273.39" y2="354.07"/><line x1="308.78" y1="136.65" x2="312.47" y2="135.81"/><line x1="283.16" y1="354.76" x2="291.33" y2="351.46"/><line x1="296.16" y1="206.49" x2="386.69" y2="191.04"/><line x1="173.03" y1="213.64" x2="159.00" y2="234.89"/><line x1="296.16" y1="206.49" x2="451.42" y2="233.58"/><line x1="136.52" y1="318.01" x2="140.52" y2="315.44"/><line x1="292.57" y1="204.14" x2="296.16" y2="206.49"/><line x1="240.22" y1="227.55" x2="148.23" y2="308.79"/><line x1="389.62" y1="266.67" x2="386.36" y2="266.26"/><line x1="313.28" y1="335.22" x2="276.95" y2="333.65"/><line x1="156.34" y1="240.33" x2="133.20" y2="279.47"/><line x1="161.09" y1="238.28" x2="186.28" y2="209.57"/><line x1="121.45" y1="363.70" x2="106.83" y2="313.64"/><line x1="227.07" y1="326.92" x2="227.78" y2="326.08"/><line x1="121.45" y1="363.70" x2="124.64" y2="322.07"/><line x1="284.32" y1="162.81" x2="292.57" y2="204.14"/><line x1="386.36" y1="266.26" x2="383.15" y2="266.04"/><line x1="240.22" y1="227.55" x2="239.12" y2="228.31"/><line x1="274.38" y1="208.85" x2="281.31" y2="207.48"/><line x1="291.33" y1="351.46" x2="299.33" y2="347.13"/><line x1="272.22" y1="193.57" x2="282.48" y2="162.85"/><line x1="103.45" y1="301.38" x2="104.09" y2="303.29"/><line x1="281.31" y1="207.48" x2="288.51" y2="206.74"/><line x1="168.42" y1="213.16" x2="158.22" y2="218.50"/><line x1="281.31" y1="207.48" x2="383.15" y2="266.04"/><line x1="260.51" y1="298.85" x2="148.23" y2="308.79"/><line x1="208.14" y1="332.74" x2="207.70" y2="332.96"/><line x1="477.72" y1="332.16" x2="479.40" y2="323.38"/><line x1="372.68" y1="183.99" x2="379.71" y2="187.67"/><line x1="367.58" y1="338.10" x2="386.26" y2="283.67"/><line x1="296.16" y1="206.49" x2="352.05" y2="170.18"/><line x1="296.16" y1="206.49" x2="414.47" y2="203.64"/><line x1="152.54" y1="343.96" x2="187.56" y2="347.71"/><line x1="134.04" y1="291.05" x2="134.31" y2="294.27"/><line x1="296.16" y1="206.49" x2="474.13" y2="277.05"/><line x1="292.57" y1="204.14" x2="289.98" y2="157.70"/><line x1="273.52" y1="304.70" x2="273.40" y2="299.67"/><line x1="240.78" y1="313.73" x2="209.97" y2="332.05"/><line x1="161.09" y1="238.28" x2="204.69" y2="210.84"/><line x1="386.26" y1="283.67" x2="391.88" y2="281.42"/><line x1="278.35" y1="336.50" x2="277.66" y2="335.09"/><line x1="224.03" y1="330.20" x2="221.44" y2="331.37"/><line x1="363.76" y1="309.20" x2="363.25" y2="324.44"/><line x1="259.01" y1="160.39" x2="260.83" y2="160.12"/><line x1="391.88" y1="281.42" x2="397.60" y2="280.03"/><line x1="275.20" y1="357.09" x2="270.75" y2="356.35"/><line x1="260.48" y1="214.00" x2="267.49" y2="210.98"/><line x1="221.44" y1="331.37" x2="223.16" y2="330.76"/><line x1="281.31" y1="207.48" x2="399.24" y2="268.56"/><line x1="296.16" y1="206.49" x2="331.42" y2="148.40"/><line x1="270.75" y1="356.35" x2="267.82" y2="358.48"/><line x1="329.80" y1="326.84" x2="332.36" y2="326.17"/><line x1="367.58" y1="338.10" x2="370.83" y2="344.90"/><line x1="283.16" y1="354.76" x2="278.82" y2="346.45"/><line x1="152.54" y1="343.96" x2="195.42" y2="345.12"/><line x1="194.21" y1="345.80" x2="192.75" y2="346.37"/><line x1="296.16" y1="206.49" x2="379.71" y2="187.67"/><line x1="296.16" y1="206.49" x2="441.98" y2="222.93"/><line x1="414.43" y1="279.20" x2="378.76" y2="356.62"/><line x1="47.41" y1="357.30" x2="60.95" y2="367.40"/><line x1="280.71" y1="162.78" x2="272.22" y2="193.57"/><line x1="292.57" y1="204.14" x2="302.73" y2="154.42"/><line x1="332.36" y1="326.17" x2="334.75" y2="324.71"/><line x1="157.07" y1="222.43" x2="168.42" y2="213.16"/><line x1="75.10" y1="277.38" x2="67.92" y2="278.21"/><line x1="267.29" y1="160.92" x2="269.29" y2="161.32"/><line x1="378.76" y1="356.62" x2="383.73" y2="361.64"/><line x1="278.82" y1="346.45" x2="291.33" y2="351.46"/><line x1="133.82" y1="281.98" x2="134.01" y2="284.82"/><line x1="365.68" y1="179.91" x2="372.68" y2="183.99"/><line x1="227.07" y1="326.92" x2="215.64" y2="331.50"/><line x1="284.32" y1="162.81" x2="288.68" y2="202.09"/><line x1="134.01" y1="287.87" x2="134.04" y2="291.05"/><line x1="213.74" y1="331.42" x2="211.98" y2="331.50"/><line x1="152.55" y1="345.79" x2="152.08" y2="347.91"/><line x1="317.18" y1="136.59" x2="304.04" y2="140.95"/><line x1="291.33" y1="351.46" x2="279.57" y2="343.69"/><line x1="234.35" y1="229.68" x2="230.70" y2="228.95"/><line x1="129.42" y1="273.62" x2="152.82" y2="239.83"/><line x1="103.45" y1="301.38" x2="104.57" y2="305.33"/><line x1="264.96" y1="186.91" x2="268.39" y2="190.56"/><line x1="281.31" y1="207.48" x2="386.36" y2="266.26"/><line x1="405.51" y1="374.22" x2="410.70" y2="375.56"/><line x1="288.68" y1="202.09" x2="292.57" y2="204.14"/><line x1="318.46" y1="327.53" x2="320.13" y2="326.88"/><line x1="342.34" y1="303.18" x2="343.61" y2="299.59"/><line x1="170.32" y1="213.55" x2="169.39" y2="213.40"/><line x1="296.16" y1="206.49" x2="345.57" y2="164.35"/><line x1="185.78" y1="348.14" x2="184.08" y2="348.62"/><line x1="152.54" y1="343.96" x2="203.96" y2="336.16"/><line x1="230.70" y1="228.95" x2="227.01" y2="227.06"/><line x1="163.85" y1="212.76" x2="160.45" y2="215.18"/><line x1="152.54" y1="343.96" x2="189.36" y2="347.29"/><line x1="32.74" y1="314.29" x2="32.00" y2="323.39"/><line x1="148.23" y1="308.79" x2="146.14" y2="308.05"/><line x1="410.70" y1="375.56" x2="415.49" y2="376.19"/><line x1="292.57" y1="204.14" x2="286.94" y2="159.78"/><line x1="414.47" y1="203.64" x2="421.48" y2="207.36"/><line x1="240.78" y1="313.73" x2="210.44" y2="331.87"/><line x1="140.74" y1="305.07" x2="142.40" y2="306.22"/><line x1="256.03" y1="163.87" x2="259.01" y2="160.39"/><line x1="184.08" y1="348.62" x2="149.73" y2="355.13"/><line x1="278.35" y1="336.50" x2="313.28" y2="335.22"/><line x1="421.48" y1="207.36" x2="428.43" y2="211.68"/><line x1="211.66" y1="214.61" x2="208.31" y2="212.49"/><line x1="106.02" y1="311.66" x2="121.45" y2="363.70"/><line x1="142.40" y1="306.22" x2="144.20" y2="307.20"/><line x1="363.76" y1="309.20" x2="362.70" y2="313.05"/><line x1="419.64" y1="279.43" x2="458.14" y2="361.66"/><line x1="259.01" y1="160.39" x2="257.59" y2="161.13"/><line x1="302.73" y1="154.42" x2="296.16" y2="206.49"/><line x1="260.48" y1="214.00" x2="274.38" y2="208.85"/><line x1="208.31" y1="212.49" x2="204.69" y2="210.84"/><line x1="113.14" y1="248.96" x2="113.56" y2="252.91"/><line x1="43.65" y1="353.38" x2="44.63" y2="354.46"/><line x1="281.31" y1="207.48" x2="402.32" y2="269.30"/><line x1="318.46" y1="327.53" x2="273.53" y2="315.02"/><line x1="296.16" y1="206.49" x2="305.21" y2="153.77"/><line x1="465.47" y1="255.42" x2="470.39" y2="266.34"/><line x1="152.54" y1="343.96" x2="208.14" y2="332.74"/><line x1="113.56" y1="252.91" x2="114.70" y2="256.87"/><line x1="152.54" y1="343.96" x2="197.54" y2="343.43"/><line x1="373.72" y1="293.38" x2="377.17" y2="289.95"/><line x1="44.63" y1="354.46" x2="45.60" y2="355.49"/><line x1="265.11" y1="160.51" x2="267.29" y2="160.92"/><line x1="302.84" y1="147.25" x2="303.00" y2="143.96"/><line x1="47.41" y1="357.30" x2="75.33" y2="372.48"/><line x1="470.39" y1="266.34" x2="474.13" y2="277.05"/><line x1="186.28" y1="209.57" x2="183.82" y2="210.37"/><line x1="240.78" y1="313.73" x2="247.32" y2="308.08"/><line x1="479.71" y1="305.77" x2="414.37" y2="274.46"/><line x1="267.29" y1="160.92" x2="259.02" y2="177.44"/><line x1="183.82" y1="210.37" x2="181.63" y2="211.23"/><line x1="149.54" y1="239.08" x2="129.42" y2="273.62"/><line x1="224.03" y1="330.20" x2="224.83" y2="329.49"/><line x1="419.64" y1="279.43" x2="422.01" y2="376.08"/><line x1="213.74" y1="331.42" x2="234.46" y2="319.60"/><line x1="275.22" y1="162.12" x2="277.12" y2="162.38"/><line x1="419.64" y1="279.43" x2="477.72" y2="332.16"/><line x1="317.18" y1="136.59" x2="303.00" y2="143.96"/><line x1="275.20" y1="357.09" x2="283.16" y2="354.76"/><line x1="129.42" y1="273.62" x2="151.13" y2="239.42"/><line x1="403.32" y1="279.32" x2="408.96" y2="279.10"/><line x1="264.96" y1="186.91" x2="278.93" y2="162.61"/><line x1="281.31" y1="207.48" x2="243.31" y2="224.84"/><line x1="278.96" y1="337.91" x2="278.35" y2="336.50"/><line x1="318.46" y1="327.53" x2="272.97" y2="294.77"/><line x1="219.57" y1="331.61" x2="225.61" y2="328.67"/><line x1="402.32" y1="269.30" x2="399.24" y2="268.56"/><line x1="170.32" y1="213.55" x2="156.88" y2="226.66"/><line x1="152.54" y1="343.96" x2="205.54" y2="334.57"/><line x1="362.43" y1="318.28" x2="363.76" y2="309.20"/><line x1="152.54" y1="343.96" x2="191.11" y2="346.85"/><line x1="273.39" y1="354.07" x2="275.66" y2="351.66"/><line x1="158.05" y1="240.16" x2="159.65" y2="239.52"/><line x1="42.69" y1="352.26" x2="43.65" y2="353.38"/><line x1="451.30" y1="366.28" x2="458.14" y2="361.66"/><line x1="184.08" y1="348.62" x2="150.48" y2="352.66"/><line x1="272.97" y1="294.77" x2="332.36" y2="326.17"/><line x1="272.97" y1="294.77" x2="346.37" y2="293.76"/><line x1="208.58" y1="332.55" x2="152.54" y2="343.96"/><line x1="149.54" y1="239.08" x2="116.73" y2="260.80"/><line x1="419.64" y1="279.43" x2="394.53" y2="369.40"/><line x1="276.28" y1="196.06" x2="280.43" y2="198.21"/><line x1="419.64" y1="279.43" x2="451.30" y2="366.28"/><line x1="458.14" y1="361.66" x2="464.29" y2="356.24"/><line x1="274.44" y1="325.44" x2="318.46" y2="327.53"/><line x1="419.64" y1="279.43" x2="417.10" y2="276.68"/><line x1="227.78" y1="326.08" x2="228.49" y2="325.34"/><line x1="111.07" y1="318.33" x2="113.02" y2="319.48"/><line x1="370.55" y1="297.15" x2="373.72" y2="293.38"/></g></svg>