<svg xmlns="http://www.w3.org/2000/svg" width="512" height="512"><rect width="512" height="512" fill="#0a0f1a"/><text x="12" y="20" font-family="monospace" font-size="11" fill="#4a7fa5">FRONT (XZ)</text><g stroke="#00d4ff" stroke-width="0.6" opacity="0.85"><line x1="151.35" y1="271.83" x2="147.61" y2="286.02"/><line x1="88.16" y1="262.05" x2="32.00" y2="263.81"/><line x1="89.53" y1="262.02" x2="91.24" y2="262.83"/><line x1="212.72" y1="295.21" x2="213.93" y2="294.56"/><line x1="438.42" y1="250.68" x2="452.40" y2="243.02"/><line x1="422.16" y1="241.00" x2="403.53" y2="234.23"/><line x1="32.00" y1="263.81" x2="33.30" y2="246.87"/><line x1="143.65" y1="227.72" x2="149.73" y2="229.84"/><line x1="165.82" y1="241.45" x2="191.15" y2="313.03"/><line x1="165.82" y1="241.45" x2="207.00" y2="296.13"/><line x1="292.18" y1="319.56" x2="283.67" y2="328.44"/><line x1="165.82" y1="241.45" x2="218.26" y2="284.39"/><line x1="151.57" y1="291.39" x2="163.53" y2="264.95"/><line x1="149.73" y1="229.84" x2="154.57" y2="234.65"/><line x1="403.53" y1="234.23" x2="406.12" y2="200.78"/><line x1="163.53" y1="264.95" x2="181.86" y2="305.58"/><line x1="70.17" y1="199.58" x2="78.40" y2="198.19"/><line x1="220.75" y1="278.76" x2="222.09" y2="276.05"/><line x1="406.12" y1="200.78" x2="382.52" y2="230.81"/><line x1="291.53" y1="296.47" x2="287.74" y2="289.74"/><line x1="361.50" y1="230.23" x2="341.26" y2="231.73"/><line x1="78.40" y1="198.19" x2="86.50" y2="198.31"/><line x1="88.16" y1="262.05" x2="88.46" y2="261.67"/><line x1="287.74" y1="289.74" x2="274.92" y2="332.18"/><line x1="140.09" y1="298.26" x2="151.44" y2="325.79"/><line x1="165.82" y1="241.45" x2="183.76" y2="306.90"/><line x1="165.82" y1="241.45" x2="199.22" y2="308.15"/><line x1="165.82" y1="241.45" x2="212.72" y2="295.21"/><line x1="151.44" y1="325.79" x2="139.89" y2="330.48"/><line x1="151.57" y1="291.39" x2="172.46" y2="313.10"/><line x1="331.29" y1="176.71" x2="322.50" y2="235.61"/><line x1="121.36" y1="221.72" x2="123.51" y2="231.51"/><line x1="276.51" y1="280.98" x2="226.42" y2="284.05"/><line x1="245.69" y1="331.75" x2="238.74" y2="325.45"/><line x1="105.64" y1="293.27" x2="80.37" y2="329.27"/><line x1="193.22" y1="313.15" x2="195.84" y2="312.32"/><line x1="101.41" y1="265.83" x2="93.42" y2="263.87"/><line x1="165.82" y1="241.45" x2="189.47" y2="312.35"/><line x1="144.33" y1="279.97" x2="144.00" y2="277.19"/><line x1="473.23" y1="280.00" x2="467.52" y2="266.80"/><line x1="90.75" y1="274.41" x2="39.89" y2="296.12"/><line x1="276.51" y1="280.98" x2="245.69" y2="331.75"/><line x1="88.16" y1="262.05" x2="45.68" y2="216.95"/><line x1="341.26" y1="231.73" x2="331.29" y2="176.71"/><line x1="149.02" y1="287.72" x2="150.39" y2="289.46"/><line x1="116.55" y1="212.83" x2="121.36" y2="221.72"/><line x1="443.38" y1="232.31" x2="433.62" y2="222.29"/><line x1="96.85" y1="285.01" x2="90.75" y2="274.41"/><line x1="255.69" y1="334.92" x2="245.69" y2="331.75"/><line x1="191.15" y1="313.03" x2="193.22" y2="313.15"/><line x1="45.68" y1="216.95" x2="56.48" y2="206.15"/><line x1="276.51" y1="280.98" x2="282.64" y2="284.39"/><line x1="101.41" y1="334.92" x2="105.64" y2="293.27"/><line x1="157.25" y1="242.17" x2="146.40" y2="262.72"/><line x1="276.51" y1="280.98" x2="228.66" y2="295.33"/><line x1="181.86" y1="305.58" x2="183.76" y2="306.90"/><line x1="292.29" y1="251.71" x2="256.73" y2="187.51"/><line x1="105.64" y1="293.27" x2="90.95" y2="332.93"/><line x1="109.57" y1="263.60" x2="101.41" y2="265.83"/><line x1="256.73" y1="187.51" x2="241.96" y2="193.48"/><line x1="101.41" y1="265.83" x2="91.24" y2="262.83"/><line x1="203.37" y1="299.52" x2="205.52" y2="297.06"/><line x1="128.07" y1="300.48" x2="116.32" y2="298.62"/><line x1="144.33" y1="279.97" x2="147.43" y2="274.27"/><line x1="51.95" y1="311.17" x2="90.75" y2="274.41"/><line x1="205.52" y1="297.06" x2="207.00" y2="296.13"/><line x1="473.23" y1="280.00" x2="463.87" y2="276.92"/><line x1="276.51" y1="280.98" x2="197.28" y2="220.93"/><line x1="90.75" y1="274.41" x2="44.96" y2="303.74"/><line x1="276.51" y1="280.98" x2="255.69" y2="334.92"/><line x1="126.02" y1="245.01" x2="127.71" y2="251.92"/><line x1="197.28" y1="220.93" x2="191.85" y2="225.78"/><line x1="147.61" y1="286.02" x2="149.02" y2="287.72"/><line x1="213.93" y1="294.56" x2="214.98" y2="293.28"/><line x1="283.67" y1="328.44" x2="294.04" y2="311.92"/><line x1="149.02" y1="287.72" x2="155.50" y2="269.62"/><line x1="33.30" y1="246.87" x2="37.91" y2="230.89"/><line x1="214.98" y1="293.28" x2="216.02" y2="290.26"/><line x1="282.24" y1="264.54" x2="202.68" y2="216.62"/><line x1="443.38" y1="232.31" x2="422.16" y2="241.00"/><line x1="96.85" y1="285.01" x2="51.95" y2="311.17"/><line x1="37.91" y1="230.89" x2="45.68" y2="216.95"/><line x1="382.52" y1="230.81" x2="361.50" y2="230.23"/><line x1="276.51" y1="280.98" x2="173.37" y2="239.00"/><line x1="276.51" y1="280.98" x2="274.92" y2="332.18"/><line x1="157.25" y1="242.17" x2="138.66" y2="260.79"/><line x1="276.51" y1="280.98" x2="230.97" y2="306.49"/><line x1="389.83" y1="191.82" x2="371.90" y2="184.56"/><line x1="274.92" y1="332.18" x2="270.34" y2="333.64"/><line x1="166.92" y1="261.98" x2="169.56" y2="258.26"/><line x1="322.50" y1="235.61" x2="289.91" y2="179.05"/><line x1="128.07" y1="300.48" x2="114.84" y2="335.29"/><line x1="157.25" y1="242.17" x2="165.82" y2="241.45"/><line x1="452.40" y1="243.02" x2="443.38" y2="232.31"/><line x1="120.66" y1="250.57" x2="116.05" y2="258.24"/><line x1="283.67" y1="328.44" x2="287.86" y2="326.41"/><line x1="80.37" y1="329.27" x2="70.08" y2="324.22"/><line x1="154.57" y1="234.65" x2="157.25" y2="242.17"/><line x1="169.56" y1="258.26" x2="165.82" y2="241.45"/><line x1="282.24" y1="264.54" x2="215.11" y2="208.19"/><line x1="96.85" y1="285.01" x2="60.47" y2="318.09"/><line x1="181.86" y1="305.58" x2="166.92" y2="261.98"/><line x1="88.46" y1="261.67" x2="112.76" y2="208.88"/><line x1="382.52" y1="230.81" x2="389.83" y2="191.82"/><line x1="86.50" y1="198.31" x2="94.24" y2="199.68"/><line x1="467.52" y1="266.80" x2="460.52" y2="254.49"/><line x1="274.92" y1="332.18" x2="282.64" y2="284.39"/><line x1="132.18" y1="257.19" x2="157.25" y2="242.17"/><line x1="94.24" y1="199.68" x2="101.36" y2="202.07"/><line x1="34.15" y1="280.59" x2="32.00" y2="263.81"/><line x1="139.89" y1="330.48" x2="128.07" y2="300.48"/><line x1="185.33" y1="308.39" x2="186.70" y2="309.89"/><line x1="322.50" y1="235.61" x2="308.69" y2="176.86"/><line x1="88.46" y1="261.67" x2="78.40" y2="198.19"/><line x1="128.07" y1="300.48" x2="127.67" y2="333.73"/><line x1="123.51" y1="231.51" x2="123.21" y2="241.40"/><line x1="88.46" y1="261.67" x2="123.21" y2="241.40"/><line x1="308.69" y1="176.86" x2="289.91" y2="179.05"/><line x1="159.64" y1="267.41" x2="163.53" y2="264.95"/><line x1="238.74" y1="325.45" x2="234.08" y2="316.78"/><line x1="123.21" y1="241.40" x2="120.66" y2="250.57"/><line x1="279.36" y1="330.40" x2="274.92" y2="332.18"/><line x1="234.08" y1="316.78" x2="230.97" y2="306.49"/><line x1="132.18" y1="257.19" x2="131.62" y2="231.30"/><line x1="90.95" y1="332.93" x2="80.37" y2="329.27"/><line x1="197.76" y1="310.57" x2="199.22" y2="308.15"/><line x1="241.96" y1="193.48" x2="282.24" y2="264.54"/><line x1="147.43" y1="274.27" x2="145.13" y2="282.28"/><line x1="80.37" y1="329.27" x2="96.85" y2="285.01"/><line x1="463.87" y1="276.92" x2="452.32" y2="262.80"/><line x1="169.56" y1="258.26" x2="162.61" y2="261.47"/><line x1="282.24" y1="264.54" x2="228.14" y2="200.42"/><line x1="183.76" y1="306.90" x2="185.33" y2="308.39"/><line x1="88.46" y1="261.67" x2="107.61" y2="205.22"/><line x1="93.42" y1="263.87" x2="95.95" y2="264.88"/><line x1="223.51" y1="273.41" x2="165.82" y2="241.45"/><line x1="223.51" y1="273.41" x2="222.09" y2="276.05"/><line x1="208.49" y1="295.70" x2="209.97" y2="295.56"/><line x1="467.52" y1="266.80" x2="452.32" y2="262.80"/><line x1="155.50" y1="269.62" x2="159.64" y2="267.41"/><line x1="89.53" y1="262.02" x2="101.41" y2="265.83"/><line x1="39.89" y1="296.12" x2="34.15" y2="280.59"/><line x1="132.18" y1="257.19" x2="154.57" y2="234.65"/><line x1="422.16" y1="241.00" x2="420.73" y2="211.06"/><line x1="195.84" y1="312.32" x2="197.76" y2="310.57"/><line x1="150.39" y1="289.46" x2="151.57" y2="291.39"/><line x1="165.82" y1="241.45" x2="205.52" y2="297.06"/><line x1="165.82" y1="241.45" x2="217.11" y2="287.29"/><line x1="88.46" y1="261.67" x2="70.17" y2="199.58"/><line x1="88.46" y1="261.67" x2="123.51" y2="231.51"/><line x1="473.10" y1="292.60" x2="463.87" y2="276.92"/><line x1="91.24" y1="262.83" x2="93.42" y2="263.87"/><line x1="293.73" y1="304.04" x2="291.53" y2="296.47"/><line x1="361.50" y1="230.23" x2="352.37" y2="179.40"/><line x1="132.18" y1="257.19" x2="127.54" y2="236.91"/><line x1="147.43" y1="274.27" x2="144.00" y2="277.19"/><line x1="165.82" y1="241.45" x2="197.76" y2="310.57"/><line x1="165.82" y1="241.45" x2="211.39" y2="295.47"/><line x1="165.82" y1="241.45" x2="222.09" y2="276.05"/><line x1="463.87" y1="276.92" x2="467.52" y2="266.80"/><line x1="88.46" y1="261.67" x2="101.36" y2="202.07"/><line x1="191.85" y1="225.78" x2="186.18" y2="230.71"/><line x1="114.84" y1="335.29" x2="101.41" y2="334.92"/><line x1="305.94" y1="242.16" x2="292.29" y2="251.71"/><line x1="155.50" y1="269.62" x2="150.39" y2="289.46"/><line x1="89.53" y1="262.02" x2="109.57" y2="263.60"/><line x1="132.18" y1="257.19" x2="149.73" y2="229.84"/><line x1="131.62" y1="231.30" x2="137.30" y2="228.22"/><line x1="477.45" y1="294.17" x2="473.23" y2="280.00"/><line x1="422.16" y1="241.00" x2="433.62" y2="222.29"/><line x1="165.82" y1="241.45" x2="188.04" y2="311.26"/><line x1="165.82" y1="241.45" x2="203.37" y2="299.52"/><line x1="165.82" y1="241.45" x2="216.02" y2="290.26"/><line x1="217.11" y1="287.29" x2="218.26" y2="284.39"/><line x1="294.04" y1="311.92" x2="293.73" y2="304.04"/><line x1="207.00" y1="296.13" x2="208.49" y2="295.70"/><line x1="146.40" y1="262.72" x2="154.64" y2="262.95"/><line x1="44.96" y1="303.74" x2="39.89" y2="296.12"/><line x1="361.50" y1="230.23" x2="371.90" y2="184.56"/><line x1="151.35" y1="271.83" x2="155.50" y2="269.62"/><line x1="88.16" y1="262.05" x2="37.91" y2="230.89"/><line x1="132.18" y1="257.19" x2="127.71" y2="251.92"/><line x1="438.42" y1="250.68" x2="422.16" y2="241.00"/><line x1="127.54" y1="236.91" x2="131.62" y2="231.30"/><line x1="107.61" y1="205.22" x2="112.76" y2="208.88"/><line x1="165.82" y1="241.45" x2="195.84" y2="312.32"/><line x1="165.82" y1="241.45" x2="209.97" y2="295.56"/><line x1="292.18" y1="319.56" x2="294.04" y2="311.92"/><line x1="289.91" y1="179.05" x2="272.66" y2="182.65"/><line x1="165.82" y1="241.45" x2="220.75" y2="278.76"/><line x1="216.02" y1="290.26" x2="217.11" y2="287.29"/><line x1="188.04" y1="311.26" x2="189.47" y2="312.35"/><line x1="45.68" y1="216.95" x2="88.46" y2="261.67"/><line x1="114.84" y1="335.29" x2="116.32" y2="298.62"/><line x1="181.86" y1="305.58" x2="165.82" y2="241.45"/><line x1="138.66" y1="260.79" x2="146.40" y2="262.72"/><line x1="89.53" y1="262.02" x2="116.05" y2="258.24"/><line x1="477.45" y1="294.17" x2="480.00" y2="309.37"/><line x1="140.09" y1="298.26" x2="128.07" y2="300.48"/><line x1="165.82" y1="241.45" x2="186.70" y2="309.89"/><line x1="165.82" y1="241.45" x2="201.78" y2="302.37"/><line x1="200.47" y1="305.33" x2="201.78" y2="302.37"/><line x1="101.36" y1="202.07" x2="107.61" y2="205.22"/><line x1="151.57" y1="291.39" x2="140.09" y2="298.26"/><line x1="270.34" y1="333.64" x2="265.61" y2="334.67"/><line x1="186.70" y1="309.89" x2="188.04" y2="311.26"/><line x1="276.51" y1="280.98" x2="260.73" y2="335.14"/><line x1="146.27" y1="284.25" x2="147.61" y2="286.02"/><line x1="460.52" y1="254.49" x2="452.40" y2="243.02"/><line x1="88.16" y1="262.05" x2="33.30" y2="246.87"/><line x1="101.41" y1="265.83" x2="98.65" y2="265.62"/><line x1="165.82" y1="241.45" x2="193.22" y2="313.15"/><line x1="289.91" y1="179.05" x2="305.94" y2="242.16"/><line x1="151.57" y1="291.39" x2="181.86" y2="305.58"/><line x1="276.51" y1="280.98" x2="180.09" y2="235.26"/><line x1="403.53" y1="234.23" x2="382.52" y2="230.81"/><line x1="90.75" y1="274.41" x2="88.16" y2="262.05"/><line x1="276.51" y1="280.98" x2="234.08" y2="316.78"/><line x1="389.83" y1="191.82" x2="361.50" y2="230.23"/><line x1="452.32" y1="262.80" x2="438.42" y2="250.68"/><line x1="140.09" y1="298.26" x2="139.89" y2="330.48"/><line x1="173.37" y1="239.00" x2="165.82" y2="241.45"/><line x1="127.67" y1="333.73" x2="114.84" y2="335.29"/><line x1="276.51" y1="280.98" x2="265.61" y2="334.67"/><line x1="157.25" y1="242.17" x2="162.61" y2="261.47"/><line x1="276.51" y1="280.98" x2="223.51" y2="273.41"/><line x1="292.29" y1="251.71" x2="282.24" y2="264.54"/><line x1="120.66" y1="250.57" x2="89.53" y2="262.02"/><line x1="105.64" y1="293.27" x2="96.85" y2="285.01"/><line x1="230.97" y1="306.49" x2="228.66" y2="295.33"/><line x1="199.22" y1="308.15" x2="200.47" y2="305.33"/><line x1="101.41" y1="265.83" x2="95.95" y2="264.88"/><line x1="96.85" y1="285.01" x2="70.08" y2="324.22"/><line x1="144.33" y1="279.97" x2="145.13" y2="282.28"/><line x1="228.14" y1="200.42" x2="215.11" y2="208.19"/><line x1="219.47" y1="281.54" x2="220.75" y2="278.76"/><line x1="276.51" y1="280.98" x2="186.18" y2="230.71"/><line x1="95.95" y1="264.88" x2="98.65" y2="265.62"/><line x1="90.75" y1="274.41" x2="34.15" y2="280.59"/><line x1="276.51" y1="280.98" x2="238.74" y2="325.45"/><line x1="145.13" y1="282.28" x2="146.27" y2="284.25"/><line x1="209.97" y1="295.56" x2="211.39" y2="295.47"/><line x1="452.32" y1="262.80" x2="460.52" y2="254.49"/><line x1="162.61" y1="261.47" x2="165.82" y2="241.45"/><line x1="34.15" y1="280.59" x2="88.16" y2="262.05"/><line x1="283.67" y1="328.44" x2="279.36" y2="330.40"/><line x1="341.26" y1="231.73" x2="322.50" y2="235.61"/><line x1="180.09" y1="235.26" x2="173.37" y2="239.00"/><line x1="137.30" y1="228.22" x2="143.65" y2="227.72"/><line x1="420.73" y1="211.06" x2="406.12" y2="200.78"/><line x1="159.64" y1="267.41" x2="151.57" y2="291.39"/><line x1="218.26" y1="284.39" x2="219.47" y2="281.54"/><line x1="276.51" y1="280.98" x2="270.34" y2="333.64"/><line x1="101.41" y1="334.92" x2="90.95" y2="332.93"/><line x1="157.25" y1="242.17" x2="154.64" y2="262.95"/><line x1="279.36" y1="330.40" x2="287.74" y2="289.74"/><line x1="292.29" y1="251.71" x2="241.96" y2="193.48"/><line x1="162.31" y1="319.91" x2="151.44" y2="325.79"/><line x1="352.37" y1="179.40" x2="331.29" y2="176.71"/><line x1="51.95" y1="311.17" x2="44.96" y2="303.74"/><line x1="276.51" y1="280.98" x2="191.85" y2="225.78"/><line x1="126.02" y1="245.01" x2="127.54" y2="236.91"/><line x1="186.18" y1="230.71" x2="180.09" y2="235.26"/><line x1="116.32" y1="298.62" x2="105.64" y2="293.27"/><line x1="272.66" y1="182.65" x2="256.73" y2="187.51"/><line x1="276.51" y1="280.98" x2="165.82" y2="241.45"/><line x1="150.39" y1="289.46" x2="159.64" y2="267.41"/><line x1="283.67" y1="328.44" x2="293.73" y2="304.04"/><line x1="433.62" y1="222.29" x2="420.73" y2="211.06"/><line x1="282.24" y1="264.54" x2="276.51" y2="280.98"/><line x1="88.46" y1="261.67" x2="56.48" y2="206.15"/><line x1="181.86" y1="305.58" x2="172.46" y2="313.10"/><line x1="473.10" y1="292.60" x2="473.23" y2="280.00"/><line x1="88.46" y1="261.67" x2="121.36" y2="221.72"/><line x1="420.73" y1="211.06" x2="403.53" y2="234.23"/><line x1="293.73" y1="304.04" x2="279.36" y2="330.40"/><line x1="56.48" y1="206.15" x2="70.17" y2="199.58"/><line x1="279.36" y1="330.40" x2="291.53" y2="296.47"/><line x1="172.46" y1="313.10" x2="162.31" y2="319.91"/><line x1="154.64" y1="262.95" x2="162.61" y2="261.47"/><line x1="371.90" y1="184.56" x2="352.37" y2="179.40"/><line x1="162.31" y1="319.91" x2="140.09" y2="298.26"/><line x1="352.37" y1="179.40" x2="341.26" y2="231.73"/><line x1="265.61" y1="334.67" x2="260.73" y2="335.14"/><line x1="322.50" y1="235.61" x2="305.94" y2="242.16"/><line x1="112.76" y1="208.88" x2="116.55" y2="212.83"/><line x1="88.46" y1="261.67" x2="94.24" y2="199.68"/><line x1="88.46" y1="261.67" x2="89.53" y2="262.02"/><line x1="260.73" y1="335.14" x2="255.69" y2="334.92"/><line x1="189.47" y1="312.35" x2="191.15" y2="313.03"/><line x1="305.94" y1="242.16" x2="272.66" y2="182.65"/><line x1="116.32" y1="298.62" x2="101.41" y2="334.92"/><line x1="132.18" y1="257.19" x2="143.65" y2="227.72"/><line x1="272.66" y1="182.65" x2="292.29" y2="251.71"/><line x1="116.05" y1="258.24" x2="109.57" y2="263.60"/><line x1="147.43" y1="274.27" x2="151.35" y2="271.83"/><line x1="165.82" y1="241.45" x2="214.98" y2="293.28"/><line x1="226.42" y1="284.05" x2="223.51" y2="273.41"/><line x1="201.78" y1="302.37" x2="203.37" y2="299.52"/><line x1="181.86" y1="305.58" x2="169.56" y2="258.26"/><line x1="473.10" y1="292.60" x2="480.00" y2="309.37"/><line x1="88.46" y1="261.67" x2="116.55" y2="212.83"/><line x1="202.68" y1="216.62" x2="197.28" y2="220.93"/><line x1="60.47" y1="318.09" x2="51.95" y2="311.17"/><line x1="151.35" y1="271.83" x2="149.02" y2="287.72"/><line x1="132.18" y1="257.19" x2="126.02" y2="245.01"/><line x1="132.18" y1="257.19" x2="138.66" y2="260.79"/><line x1="438.42" y1="250.68" x2="443.38" y2="232.31"/><line x1="139.89" y1="330.48" x2="127.67" y2="333.73"/><line x1="165.82" y1="241.45" x2="208.49" y2="295.70"/><line x1="292.18" y1="319.56" x2="287.86" y2="326.41"/><line x1="165.82" y1="241.45" x2="219.47" y2="281.54"/><line x1="88.46" y1="261.67" x2="86.50" y2="198.31"/><line x1="88.46" y1="261.67" x2="120.66" y2="250.57"/><line x1="163.53" y1="264.95" x2="166.92" y2="261.98"/><line x1="406.12" y1="200.78" x2="389.83" y2="191.82"/><line x1="228.66" y1="295.33" x2="226.42" y2="284.05"/><line x1="132.18" y1="257.19" x2="137.30" y2="228.22"/><line x1="477.45" y1="294.17" x2="473.10" y2="292.60"/><line x1="287.74" y1="289.74" x2="282.64" y2="284.39"/><line x1="70.08" y1="324.22" x2="60.47" y2="318.09"/><line x1="241.96" y1="193.48" x2="228.14" y2="200.42"/><line x1="165.82" y1="241.45" x2="185.33" y2="308.39"/><line x1="147.43" y1="274.27" x2="146.27" y2="284.25"/><line x1="165.82" y1="241.45" x2="200.47" y2="305.33"/><line x1="165.82" y1="241.45" x2="213.93" y2="294.56"/><line x1="215.11" y1="208.19" x2="202.68" y2="216.62"/><line x1="151.57" y1="291.39" x2="162.31" y2="319.91"/><line x1="331.29" y1="176.71" x2="308.69" y2="176.86"/><line x1="202.68" y1="216.62" x2="276.51" y2="280.98"/><line x1="146.27" y1="284.25" x2="151.35" y2="271.83"/><line x1="211.39" y1="295.47" x2="212.72" y2="295.21"/><line x1="460.52" y1="254.49" x2="438.42" y2="250.68"/></g></svg>