<svg xmlns="http://www.w3.org/2000/svg" width="512" height="512"><rect width="512" height="512" fill="#0a0f1a"/><text x="12" y="20" font-family="monospace" font-size="11" fill="#4a7fa5">FRONT (XZ)</text><g stroke="#00d4ff" stroke-width="0.6" opacity="0.85"><line x1="229.95" y1="128.14" x2="234.58" y2="125.98"/><line x1="301.75" y1="245.21" x2="280.23" y2="216.26"/><line x1="213.05" y1="212.89" x2="236.35" y2="198.10"/><line x1="232.69" y1="176.46" x2="199.85" y2="169.04"/><line x1="217.99" y1="136.01" x2="221.64" y2="133.18"/><line x1="268.55" y1="120.01" x2="271.82" y2="148.96"/><line x1="214.58" y1="291.96" x2="213.45" y2="288.18"/><line x1="206.74" y1="149.36" x2="237.20" y2="163.06"/><line x1="220.69" y1="302.20" x2="193.33" y2="321.32"/><line x1="238.12" y1="248.28" x2="243.48" y2="246.94"/><line x1="333.82" y1="120.01" x2="333.82" y2="344.58"/><line x1="234.19" y1="169.32" x2="203.07" y2="157.01"/><line x1="232.50" y1="180.36" x2="199.25" y2="177.43"/><line x1="260.95" y1="315.63" x2="253.76" y2="315.41"/><line x1="193.33" y1="321.32" x2="218.20" y2="298.97"/><line x1="200.99" y1="239.90" x2="204.36" y2="237.50"/><line x1="228.93" y1="252.12" x2="219.78" y2="229.83"/><line x1="203.07" y1="157.01" x2="204.75" y2="153.15"/><line x1="301.75" y1="245.21" x2="267.46" y2="215.53"/><line x1="223.63" y1="305.26" x2="204.27" y2="331.36"/><line x1="203.48" y1="199.38" x2="201.96" y2="195.45"/><line x1="280.23" y1="216.26" x2="273.59" y2="216.07"/><line x1="268.55" y1="120.01" x2="333.82" y2="120.01"/><line x1="256.06" y1="150.56" x2="256.06" y2="120.68"/><line x1="212.80" y1="275.63" x2="182.57" y2="264.89"/><line x1="204.36" y1="237.50" x2="207.94" y2="235.28"/><line x1="225.09" y1="254.61" x2="189.87" y2="251.13"/><line x1="232.74" y1="185.36" x2="232.50" y2="180.36"/><line x1="480.00" y1="479.91" x2="447.51" y2="479.91"/><line x1="220.03" y1="218.50" x2="224.08" y2="221.02"/><line x1="234.19" y1="169.32" x2="235.51" y2="166.08"/><line x1="273.59" y1="216.07" x2="267.46" y2="215.53"/><line x1="179.42" y1="280.49" x2="179.82" y2="276.42"/><line x1="192.29" y1="248.08" x2="194.95" y2="245.19"/><line x1="182.81" y1="304.08" x2="213.45" y2="288.18"/><line x1="185.72" y1="257.74" x2="225.09" y2="254.61"/><line x1="227.11" y1="308.01" x2="223.63" y2="305.26"/><line x1="179.29" y1="284.65" x2="179.42" y2="280.49"/><line x1="225.63" y1="130.56" x2="229.95" y2="128.14"/><line x1="211.69" y1="142.28" x2="239.27" y2="160.25"/><line x1="223.63" y1="305.26" x2="220.69" y2="302.20"/><line x1="301.75" y1="245.21" x2="256.69" y2="213.37"/><line x1="204.75" y1="153.15" x2="235.51" y2="166.08"/><line x1="235.92" y1="312.24" x2="231.21" y2="310.34"/><line x1="213.45" y1="288.18" x2="180.85" y2="297.85"/><line x1="207.94" y1="235.28" x2="211.70" y2="233.26"/><line x1="243.48" y1="246.94" x2="249.33" y2="245.97"/><line x1="234.66" y1="194.23" x2="236.35" y2="198.10"/><line x1="200.62" y1="164.95" x2="201.69" y2="160.94"/><line x1="245.81" y1="344.21" x2="241.25" y2="313.72"/><line x1="239.27" y1="160.25" x2="214.67" y2="139.05"/><line x1="216.17" y1="295.56" x2="185.53" y2="310.07"/><line x1="226.75" y1="341.27" x2="218.45" y2="338.70"/><line x1="267.46" y1="215.53" x2="261.82" y2="214.63"/><line x1="244.31" y1="207.40" x2="249.33" y2="245.97"/><line x1="253.76" y1="315.41" x2="245.81" y2="344.21"/><line x1="233.27" y1="250.01" x2="228.59" y2="227.19"/><line x1="205.35" y1="203.08" x2="203.48" y2="199.38"/><line x1="301.75" y1="216.26" x2="301.75" y2="245.21"/><line x1="260.84" y1="149.67" x2="266.09" y2="149.14"/><line x1="301.75" y1="315.63" x2="333.82" y2="344.58"/><line x1="199.92" y1="186.90" x2="199.41" y2="182.28"/><line x1="301.75" y1="245.21" x2="247.93" y2="209.75"/><line x1="251.76" y1="151.81" x2="256.06" y2="150.56"/><line x1="213.57" y1="271.45" x2="185.72" y2="257.74"/><line x1="213.45" y1="288.18" x2="212.78" y2="284.23"/><line x1="215.65" y1="231.45" x2="228.93" y2="252.12"/><line x1="180.85" y1="297.85" x2="179.68" y2="291.37"/><line x1="218.20" y1="298.97" x2="216.17" y2="295.56"/><line x1="182.57" y1="264.89" x2="213.57" y2="271.45"/><line x1="234.66" y1="194.23" x2="207.55" y2="206.54"/><line x1="233.28" y1="225.53" x2="244.31" y2="207.40"/><line x1="236.35" y1="198.10" x2="238.53" y2="201.58"/><line x1="244.73" y1="122.66" x2="250.25" y2="121.50"/><line x1="256.69" y1="213.37" x2="252.06" y2="211.74"/><line x1="32.16" y1="32.09" x2="32.16" y2="64.58"/><line x1="239.27" y1="160.25" x2="241.72" y2="157.66"/><line x1="262.16" y1="120.18" x2="268.55" y2="120.01"/><line x1="214.67" y1="139.05" x2="217.99" y2="136.01"/><line x1="185.53" y1="310.07" x2="214.58" y2="291.96"/><line x1="225.09" y1="254.61" x2="211.70" y2="233.26"/><line x1="179.82" y1="276.42" x2="180.47" y2="272.47"/><line x1="244.31" y1="207.40" x2="262.57" y2="245.21"/><line x1="231.21" y1="310.34" x2="227.11" y2="308.01"/><line x1="179.68" y1="291.37" x2="212.78" y2="284.23"/><line x1="207.55" y1="206.54" x2="210.12" y2="209.81"/><line x1="224.08" y1="221.02" x2="241.17" y2="204.68"/><line x1="237.20" y1="163.06" x2="209.05" y2="145.73"/><line x1="218.45" y1="338.70" x2="210.96" y2="335.40"/><line x1="229.95" y1="128.14" x2="247.94" y2="153.40"/><line x1="212.78" y1="284.23" x2="179.29" y2="284.65"/><line x1="232.69" y1="176.46" x2="199.40" y2="173.19"/><line x1="217.99" y1="136.01" x2="241.72" y2="157.66"/><line x1="241.25" y1="313.72" x2="235.92" y2="312.24"/><line x1="301.75" y1="245.21" x2="301.75" y2="315.63"/><line x1="333.82" y1="344.58" x2="260.95" y2="315.63"/><line x1="198.41" y1="326.58" x2="193.33" y2="321.32"/><line x1="214.58" y1="291.96" x2="182.81" y2="304.08"/><line x1="241.72" y1="157.66" x2="221.64" y2="133.18"/><line x1="238.12" y1="248.28" x2="233.28" y2="226.17"/><line x1="234.66" y1="194.23" x2="205.35" y2="203.08"/><line x1="256.56" y1="344.58" x2="245.81" y2="344.21"/><line x1="209.05" y1="145.73" x2="211.69" y2="142.28"/><line x1="232.74" y1="185.36" x2="199.92" y2="186.90"/><line x1="201.69" y1="160.94" x2="203.07" y2="157.01"/><line x1="252.06" y1="211.74" x2="247.93" y2="209.75"/><line x1="233.28" y1="226.17" x2="243.48" y2="246.94"/><line x1="266.09" y1="149.14" x2="271.82" y2="148.96"/><line x1="260.95" y1="315.63" x2="256.56" y2="344.58"/><line x1="185.72" y1="257.74" x2="216.64" y2="263.90"/><line x1="225.09" y1="254.61" x2="228.93" y2="252.12"/><line x1="180.47" y1="272.47" x2="212.80" y2="275.63"/><line x1="219.78" y1="229.83" x2="224.10" y2="228.40"/><line x1="237.20" y1="163.06" x2="239.27" y2="160.25"/><line x1="200.77" y1="191.29" x2="199.92" y2="186.90"/><line x1="247.93" y1="209.75" x2="244.31" y2="207.40"/><line x1="301.75" y1="245.21" x2="273.59" y2="216.07"/><line x1="213.05" y1="212.89" x2="216.35" y2="215.79"/><line x1="232.69" y1="176.46" x2="233.25" y2="172.78"/><line x1="247.94" y1="153.40" x2="234.58" y2="125.98"/><line x1="212.78" y1="284.23" x2="212.54" y2="280.10"/><line x1="228.93" y1="252.12" x2="233.27" y2="250.01"/><line x1="220.69" y1="302.20" x2="218.20" y2="298.97"/><line x1="212.80" y1="275.63" x2="181.39" y2="268.63"/><line x1="480.00" y1="32.02" x2="447.51" y2="32.02"/><line x1="236.35" y1="198.10" x2="216.35" y2="215.79"/><line x1="241.72" y1="157.66" x2="244.59" y2="155.35"/><line x1="239.52" y1="124.16" x2="244.73" y2="122.66"/><line x1="234.66" y1="194.23" x2="233.46" y2="189.99"/><line x1="221.64" y1="133.18" x2="225.63" y2="130.56"/><line x1="220.03" y1="218.50" x2="238.53" y2="201.58"/><line x1="234.19" y1="169.32" x2="204.75" y2="153.15"/><line x1="234.58" y1="125.98" x2="239.52" y2="124.16"/><line x1="210.96" y1="335.40" x2="204.27" y2="331.36"/><line x1="179.42" y1="280.49" x2="212.54" y2="280.10"/><line x1="235.87" y1="343.11" x2="235.92" y2="312.24"/><line x1="185.72" y1="257.74" x2="221.76" y2="257.44"/><line x1="225.09" y1="254.61" x2="194.95" y2="245.19"/><line x1="201.96" y1="195.45" x2="232.74" y2="185.36"/><line x1="199.85" y1="169.04" x2="200.62" y2="164.95"/><line x1="225.63" y1="130.56" x2="244.59" y2="155.35"/><line x1="256.06" y1="120.68" x2="262.16" y2="120.18"/><line x1="223.63" y1="305.26" x2="198.41" y2="326.58"/><line x1="247.94" y1="153.40" x2="251.76" y2="151.81"/><line x1="235.92" y1="312.24" x2="226.75" y2="341.27"/><line x1="249.33" y1="245.97" x2="255.70" y2="245.40"/><line x1="228.49" y1="223.37" x2="233.28" y2="225.53"/><line x1="238.53" y1="201.58" x2="224.08" y2="221.02"/><line x1="236.35" y1="198.10" x2="220.03" y2="218.50"/><line x1="210.12" y1="209.81" x2="213.05" y2="212.89"/><line x1="241.17" y1="204.68" x2="228.49" y2="223.37"/><line x1="301.75" y1="148.96" x2="301.75" y2="216.26"/><line x1="245.81" y1="344.21" x2="247.20" y2="314.78"/><line x1="228.59" y1="227.19" x2="238.12" y2="248.28"/><line x1="225.09" y1="254.61" x2="200.99" y2="239.90"/><line x1="212.54" y1="280.10" x2="179.82" y2="276.42"/><line x1="244.31" y1="207.40" x2="243.48" y2="246.94"/><line x1="182.81" y1="304.08" x2="180.85" y2="297.85"/><line x1="216.64" y1="263.90" x2="218.95" y2="260.53"/><line x1="233.46" y1="189.99" x2="203.48" y2="199.38"/><line x1="185.72" y1="257.74" x2="187.67" y2="254.36"/><line x1="201.96" y1="195.45" x2="200.77" y2="191.29"/><line x1="233.25" y1="172.78" x2="201.69" y2="160.94"/><line x1="244.59" y1="155.35" x2="229.95" y2="128.14"/><line x1="199.25" y1="177.43" x2="232.69" y2="176.46"/><line x1="211.69" y1="142.28" x2="214.67" y2="139.05"/><line x1="260.84" y1="149.67" x2="262.16" y2="120.18"/><line x1="189.05" y1="315.82" x2="185.53" y2="310.07"/><line x1="199.92" y1="186.90" x2="232.50" y2="180.36"/><line x1="32.00" y1="479.98" x2="64.49" y2="479.98"/><line x1="213.57" y1="271.45" x2="184.02" y2="261.26"/><line x1="255.70" y1="245.40" x2="262.57" y2="245.21"/><line x1="224.10" y1="228.40" x2="228.59" y2="227.19"/><line x1="241.17" y1="204.68" x2="244.31" y2="207.40"/><line x1="235.51" y1="166.08" x2="237.20" y2="163.06"/><line x1="244.73" y1="122.66" x2="256.06" y2="150.56"/><line x1="245.81" y1="344.21" x2="235.87" y2="343.11"/><line x1="333.82" y1="120.01" x2="301.75" y2="245.21"/><line x1="247.20" y1="314.78" x2="241.25" y2="313.72"/><line x1="216.17" y1="295.56" x2="214.58" y2="291.96"/><line x1="204.27" y1="331.36" x2="198.41" y2="326.58"/><line x1="333.82" y1="120.01" x2="301.75" y2="315.63"/><line x1="212.54" y1="280.10" x2="212.80" y2="275.63"/><line x1="225.09" y1="254.61" x2="207.94" y2="235.28"/><line x1="64.64" y1="32.09" x2="32.16" y2="64.58"/><line x1="244.31" y1="207.40" x2="255.70" y2="245.40"/><line x1="232.50" y1="180.36" x2="199.41" y2="182.28"/><line x1="218.45" y1="338.70" x2="227.11" y2="308.01"/><line x1="199.25" y1="177.43" x2="199.40" y2="173.19"/><line x1="301.75" y1="216.26" x2="280.23" y2="216.26"/><line x1="241.25" y1="313.72" x2="235.87" y2="343.11"/><line x1="213.57" y1="271.45" x2="214.85" y2="267.54"/><line x1="184.02" y1="261.26" x2="185.72" y2="257.74"/><line x1="215.65" y1="231.45" x2="219.78" y2="229.83"/><line x1="234.66" y1="194.23" x2="210.12" y2="209.81"/><line x1="199.41" y1="182.28" x2="199.25" y2="177.43"/><line x1="238.53" y1="201.58" x2="241.17" y2="204.68"/><line x1="206.74" y1="149.36" x2="209.05" y2="145.73"/><line x1="256.06" y1="150.56" x2="250.25" y2="121.50"/><line x1="268.55" y1="120.01" x2="301.75" y2="148.96"/><line x1="256.56" y1="344.58" x2="253.76" y2="315.41"/><line x1="225.09" y1="254.61" x2="187.67" y2="254.36"/><line x1="301.75" y1="245.21" x2="262.57" y2="245.21"/><line x1="185.53" y1="310.07" x2="182.81" y2="304.08"/><line x1="185.72" y1="257.74" x2="214.85" y2="267.54"/><line x1="225.09" y1="254.61" x2="215.65" y2="231.45"/><line x1="233.46" y1="189.99" x2="232.74" y2="185.36"/><line x1="224.08" y1="221.02" x2="228.49" y2="223.37"/><line x1="214.85" y1="267.54" x2="216.64" y2="263.90"/><line x1="237.20" y1="163.06" x2="211.69" y2="142.28"/><line x1="250.25" y1="121.50" x2="256.06" y2="120.68"/><line x1="193.33" y1="321.32" x2="189.05" y2="315.82"/><line x1="212.78" y1="284.23" x2="179.42" y2="280.49"/><line x1="227.11" y1="308.01" x2="210.96" y2="335.40"/><line x1="181.39" y1="268.63" x2="182.57" y2="264.89"/><line x1="333.82" y1="344.58" x2="256.56" y2="344.58"/><line x1="228.93" y1="252.12" x2="224.10" y2="228.40"/><line x1="480.00" y1="32.02" x2="480.00" y2="64.50"/><line x1="239.52" y1="124.16" x2="251.76" y2="151.81"/><line x1="241.72" y1="157.66" x2="225.63" y2="130.56"/><line x1="199.40" y1="173.19" x2="199.85" y2="169.04"/><line x1="234.66" y1="194.23" x2="213.05" y2="212.89"/><line x1="301.75" y1="245.21" x2="261.82" y2="214.63"/><line x1="256.06" y1="150.56" x2="260.84" y2="149.67"/><line x1="212.80" y1="275.63" x2="213.57" y2="271.45"/><line x1="210.96" y1="335.40" x2="223.63" y2="305.26"/><line x1="225.09" y1="254.61" x2="192.29" y2="248.08"/><line x1="187.67" y1="254.36" x2="189.87" y2="251.13"/><line x1="185.72" y1="257.74" x2="218.95" y2="260.53"/><line x1="180.47" y1="272.47" x2="181.39" y2="268.63"/><line x1="480.00" y1="479.91" x2="480.00" y2="447.42"/><line x1="199.85" y1="169.04" x2="233.25" y2="172.78"/><line x1="226.75" y1="341.27" x2="231.21" y2="310.34"/><line x1="232.50" y1="180.36" x2="232.69" y2="176.46"/><line x1="271.82" y1="148.96" x2="301.75" y2="148.96"/><line x1="256.06" y1="120.68" x2="260.84" y2="149.67"/><line x1="247.94" y1="153.40" x2="239.52" y2="124.16"/><line x1="189.87" y1="251.13" x2="192.29" y2="248.08"/><line x1="205.35" y1="203.08" x2="233.46" y2="189.99"/><line x1="301.75" y1="245.21" x2="252.06" y2="211.74"/><line x1="204.75" y1="153.15" x2="206.74" y2="149.36"/><line x1="480.00" y1="64.50" x2="447.51" y2="32.02"/><line x1="251.76" y1="151.81" x2="244.73" y2="122.66"/><line x1="213.45" y1="288.18" x2="179.68" y2="291.37"/><line x1="301.75" y1="148.96" x2="333.82" y2="120.01"/><line x1="218.95" y1="260.53" x2="221.76" y2="257.44"/><line x1="218.20" y1="298.97" x2="189.05" y2="315.82"/><line x1="225.09" y1="254.61" x2="197.85" y2="242.46"/><line x1="244.31" y1="207.40" x2="233.28" y2="226.17"/><line x1="235.87" y1="343.11" x2="226.75" y2="341.27"/><line x1="233.28" y1="225.53" x2="233.28" y2="226.17"/><line x1="32.16" y1="32.09" x2="64.64" y2="32.09"/><line x1="241.17" y1="204.68" x2="233.28" y2="225.53"/><line x1="239.27" y1="160.25" x2="217.99" y2="136.01"/><line x1="447.51" y1="479.91" x2="480.00" y2="447.42"/><line x1="262.16" y1="120.18" x2="266.09" y2="149.14"/><line x1="233.25" y1="172.78" x2="200.62" y2="164.95"/><line x1="231.21" y1="310.34" x2="218.45" y2="338.70"/><line x1="253.76" y1="315.41" x2="247.20" y2="314.78"/><line x1="189.05" y1="315.82" x2="216.17" y2="295.56"/><line x1="233.27" y1="250.01" x2="238.12" y2="248.28"/><line x1="32.00" y1="479.98" x2="32.00" y2="447.50"/><line x1="224.10" y1="228.40" x2="233.27" y2="250.01"/><line x1="301.75" y1="315.63" x2="260.95" y2="315.63"/><line x1="235.51" y1="166.08" x2="206.74" y2="149.36"/><line x1="301.75" y1="245.21" x2="244.31" y2="207.40"/><line x1="198.41" y1="326.58" x2="220.69" y2="302.20"/><line x1="216.35" y1="215.79" x2="220.03" y2="218.50"/><line x1="228.59" y1="227.19" x2="233.28" y2="226.17"/><line x1="333.82" y1="120.01" x2="301.75" y2="216.26"/><line x1="221.76" y1="257.44" x2="225.09" y2="254.61"/><line x1="182.57" y1="264.89" x2="184.02" y2="261.26"/><line x1="211.70" y1="233.26" x2="215.65" y2="231.45"/><line x1="225.09" y1="254.61" x2="204.36" y2="237.50"/><line x1="232.74" y1="185.36" x2="200.77" y2="191.29"/><line x1="201.69" y1="160.94" x2="234.19" y2="169.32"/><line x1="212.54" y1="280.10" x2="180.47" y2="272.47"/><line x1="194.95" y1="245.19" x2="197.85" y2="242.46"/><line x1="233.46" y1="189.99" x2="201.96" y2="195.45"/><line x1="266.09" y1="149.14" x2="268.55" y2="120.01"/><line x1="261.82" y1="214.63" x2="256.69" y2="213.37"/><line x1="197.85" y1="242.46" x2="200.99" y2="239.90"/><line x1="233.25" y1="172.78" x2="234.19" y2="169.32"/><line x1="244.59" y1="155.35" x2="247.94" y2="153.40"/><line x1="179.68" y1="291.37" x2="179.29" y2="284.65"/><line x1="207.55" y1="206.54" x2="205.35" y2="203.08"/><line x1="32.00" y1="447.50" x2="64.49" y2="479.98"/></g></svg>