<svg xmlns="http://www.w3.org/2000/svg" width="512" height="512"><rect width="512" height="512" fill="#0a0f1a"/><text x="12" y="20" font-family="monospace" font-size="11" fill="#4a7fa5">FRONT (XZ)</text><g stroke="#00d4ff" stroke-width="0.6" opacity="0.85"><line x1="230.25" y1="344.17" x2="234.63" y2="344.59"/><line x1="196.27" y1="171.85" x2="231.45" y2="229.24"/><line x1="217.89" y1="308.93" x2="224.72" y2="308.49"/><line x1="273.51" y1="362.55" x2="276.56" y2="342.97"/><line x1="353.40" y1="285.73" x2="372.76" y2="289.81"/><line x1="322.50" y1="134.69" x2="316.01" y2="130.75"/><line x1="285.16" y1="341.29" x2="293.37" y2="339.12"/><line x1="328.90" y1="236.97" x2="328.11" y2="232.70"/><line x1="277.66" y1="136.60" x2="278.23" y2="117.24"/><line x1="163.46" y1="192.28" x2="162.19" y2="196.82"/><line x1="244.49" y1="192.26" x2="241.84" y2="194.53"/><line x1="195.47" y1="335.42" x2="193.97" y2="355.42"/><line x1="194.22" y1="281.43" x2="196.62" y2="282.92"/><line x1="267.91" y1="288.02" x2="271.06" y2="288.97"/><line x1="372.76" y1="289.81" x2="355.83" y2="278.45"/><line x1="311.11" y1="150.46" x2="306.00" y2="147.40"/><line x1="344.03" y1="184.60" x2="357.52" y2="170.84"/><line x1="304.83" y1="263.87" x2="327.92" y2="268.11"/><line x1="279.70" y1="193.93" x2="277.45" y2="192.35"/><line x1="168.99" y1="146.15" x2="182.75" y2="160.55"/><line x1="166.43" y1="282.75" x2="182.27" y2="271.43"/><line x1="193.97" y1="355.42" x2="198.86" y2="336.77"/><line x1="293.37" y1="339.12" x2="303.26" y2="356.00"/><line x1="317.69" y1="290.62" x2="319.92" y2="287.39"/><line x1="357.52" y1="170.84" x2="340.80" y2="179.50"/><line x1="290.65" y1="176.98" x2="287.31" y2="174.95"/><line x1="295.46" y1="212.54" x2="311.70" y2="197.12"/><line x1="162.91" y1="238.05" x2="146.06" y2="248.36"/><line x1="303.26" y1="356.00" x2="301.17" y2="336.48"/><line x1="356.05" y1="213.28" x2="354.24" y2="207.20"/><line x1="359.06" y1="262.79" x2="378.61" y2="262.51"/><line x1="294.38" y1="121.20" x2="286.48" y2="118.97"/><line x1="293.74" y1="307.24" x2="288.28" y2="287.33"/><line x1="302.24" y1="228.26" x2="322.70" y2="216.03"/><line x1="251.40" y1="115.02" x2="252.53" y2="133.91"/><line x1="160.07" y1="211.01" x2="159.93" y2="215.93"/><line x1="140.77" y1="316.41" x2="144.58" y2="321.19"/><line x1="196.27" y1="171.85" x2="233.96" y2="207.21"/><line x1="256.09" y1="168.71" x2="257.41" y2="187.32"/><line x1="209.75" y1="340.27" x2="213.64" y2="341.25"/><line x1="146.06" y1="248.36" x2="164.22" y2="242.14"/><line x1="350.44" y1="292.66" x2="353.40" y2="285.73"/><line x1="201.65" y1="306.49" x2="204.99" y2="286.94"/><line x1="196.27" y1="171.85" x2="234.72" y2="246.94"/><line x1="277.39" y1="289.74" x2="277.10" y2="308.16"/><line x1="378.61" y1="262.51" x2="359.87" y2="254.41"/><line x1="288.28" y1="287.33" x2="297.19" y2="306.17"/><line x1="329.79" y1="254.74" x2="305.99" y2="252.08"/><line x1="272.88" y1="189.78" x2="270.57" y2="188.82"/><line x1="154.71" y1="164.18" x2="171.25" y2="175.18"/><line x1="213.64" y1="341.25" x2="212.82" y2="360.66"/><line x1="315.51" y1="329.77" x2="328.60" y2="344.52"/><line x1="204.99" y1="286.94" x2="206.68" y2="287.44"/><line x1="248.86" y1="292.60" x2="258.55" y2="282.85"/><line x1="325.42" y1="276.32" x2="326.80" y2="272.28"/><line x1="329.48" y1="165.51" x2="339.71" y2="148.42"/><line x1="237.98" y1="255.71" x2="236.22" y2="251.33"/><line x1="305.99" y1="252.08" x2="329.92" y2="250.01"/><line x1="277.05" y1="170.42" x2="273.56" y2="169.46"/><line x1="288.10" y1="201.95" x2="303.18" y2="187.24"/><line x1="169.30" y1="253.59" x2="154.80" y2="266.81"/><line x1="328.60" y1="344.52" x2="321.97" y2="325.76"/><line x1="258.55" y1="282.85" x2="251.53" y2="295.05"/><line x1="306.90" y1="301.11" x2="294.05" y2="283.59"/><line x1="225.40" y1="117.40" x2="230.97" y2="135.92"/><line x1="303.18" y1="187.24" x2="286.09" y2="199.70"/><line x1="165.30" y1="315.32" x2="167.51" y2="317.49"/><line x1="247.37" y1="190.41" x2="233.09" y2="180.39"/><line x1="154.80" y1="266.81" x2="171.22" y2="257.04"/><line x1="212.03" y1="287.64" x2="217.89" y2="308.93"/><line x1="378.75" y1="234.88" x2="359.49" y2="232.32"/><line x1="294.05" y1="283.59" x2="309.88" y2="298.85"/><line x1="316.63" y1="204.37" x2="314.25" y2="200.69"/><line x1="305.30" y1="241.87" x2="328.90" y2="236.97"/><line x1="145.08" y1="185.09" x2="163.46" y2="192.28"/><line x1="233.09" y1="180.39" x2="244.49" y2="192.26"/><line x1="230.25" y1="344.17" x2="233.63" y2="363.48"/><line x1="243.66" y1="287.14" x2="246.23" y2="289.96"/><line x1="349.16" y1="328.44" x2="353.51" y2="323.73"/><line x1="217.89" y1="308.93" x2="214.09" y2="287.02"/><line x1="259.86" y1="301.29" x2="267.91" y2="288.02"/><line x1="322.50" y1="134.69" x2="311.11" y2="150.46"/><line x1="215.79" y1="285.99" x2="217.10" y2="284.55"/><line x1="201.73" y1="124.54" x2="206.36" y2="143.99"/><line x1="328.90" y1="236.97" x2="304.77" y2="238.47"/><line x1="148.55" y1="254.62" x2="151.49" y2="260.81"/><line x1="293.89" y1="179.22" x2="279.70" y2="193.93"/><line x1="166.70" y1="341.47" x2="171.74" y2="344.78"/><line x1="163.46" y1="192.28" x2="143.04" y2="192.51"/><line x1="308.56" y1="333.35" x2="315.51" y2="329.77"/><line x1="177.58" y1="266.24" x2="166.43" y2="282.75"/><line x1="263.57" y1="187.22" x2="261.22" y2="187.11"/><line x1="217.10" y1="284.55" x2="241.56" y2="297.81"/><line x1="141.58" y1="200.14" x2="140.70" y2="207.99"/><line x1="290.28" y1="286.27" x2="292.21" y2="285.02"/><line x1="374.02" y1="208.90" x2="372.09" y2="202.30"/><line x1="267.91" y1="288.02" x2="262.75" y2="302.99"/><line x1="298.81" y1="278.35" x2="317.69" y2="290.62"/><line x1="237.98" y1="255.71" x2="218.54" y2="274.56"/><line x1="140.70" y1="207.99" x2="140.41" y2="216.06"/><line x1="279.70" y1="193.93" x2="290.65" y2="176.98"/><line x1="207.02" y1="307.85" x2="212.43" y2="308.66"/><line x1="237.26" y1="200.24" x2="235.44" y2="203.58"/><line x1="248.32" y1="345.14" x2="258.13" y2="344.90"/><line x1="166.43" y1="282.75" x2="179.90" y2="268.93"/><line x1="271.40" y1="306.78" x2="274.26" y2="307.59"/><line x1="295.15" y1="142.13" x2="289.45" y2="139.95"/><line x1="317.69" y1="290.62" x2="300.15" y2="276.29"/><line x1="325.84" y1="224.27" x2="302.24" y2="228.26"/><line x1="480.00" y1="32.02" x2="447.51" y2="32.02"/><line x1="210.98" y1="141.93" x2="206.36" y2="143.99"/><line x1="219.54" y1="361.87" x2="226.47" y2="362.81"/><line x1="235.44" y1="203.58" x2="196.27" y2="171.85"/><line x1="364.61" y1="307.96" x2="367.66" y2="302.17"/><line x1="238.93" y1="301.82" x2="241.56" y2="297.81"/><line x1="302.43" y1="271.69" x2="303.38" y2="269.18"/><line x1="294.38" y1="121.20" x2="283.62" y2="138.11"/><line x1="180.77" y1="136.22" x2="189.83" y2="154.23"/><line x1="302.24" y1="228.26" x2="324.38" y2="220.11"/><line x1="158.39" y1="272.46" x2="162.27" y2="277.78"/><line x1="182.44" y1="350.62" x2="192.21" y2="333.98"/><line x1="160.07" y1="211.01" x2="140.41" y2="216.06"/><line x1="189.42" y1="277.94" x2="191.82" y2="279.77"/><line x1="218.80" y1="277.74" x2="239.97" y2="259.94"/><line x1="350.44" y1="292.66" x2="370.38" y2="296.11"/><line x1="349.69" y1="195.48" x2="347.00" y2="189.93"/><line x1="277.39" y1="289.74" x2="274.26" y2="307.59"/><line x1="141.32" y1="229.18" x2="142.44" y2="235.64"/><line x1="272.88" y1="189.78" x2="277.05" y2="170.42"/><line x1="152.81" y1="330.04" x2="165.30" y2="315.32"/><line x1="281.33" y1="361.40" x2="288.89" y2="359.93"/><line x1="242.13" y1="263.95" x2="244.45" y2="267.71"/><line x1="281.93" y1="289.36" x2="284.11" y2="288.87"/><line x1="364.37" y1="183.02" x2="361.11" y2="176.86"/><line x1="359.97" y1="238.93" x2="378.75" y2="234.88"/><line x1="271.57" y1="135.42" x2="265.35" y2="134.58"/><line x1="325.42" y1="276.32" x2="303.38" y2="269.18"/><line x1="298.51" y1="218.52" x2="297.04" y2="215.48"/><line x1="161.00" y1="229.53" x2="161.83" y2="233.85"/><line x1="165.01" y1="187.83" x2="145.08" y2="185.09"/><line x1="191.06" y1="302.16" x2="201.12" y2="285.33"/><line x1="231.32" y1="224.78" x2="231.45" y2="229.24"/><line x1="226.47" y1="362.81" x2="230.25" y2="344.17"/><line x1="286.50" y1="308.47" x2="290.17" y2="308.01"/><line x1="269.63" y1="116.01" x2="260.69" y2="115.27"/><line x1="316.02" y1="153.79" x2="322.50" y2="134.69"/><line x1="163.77" y1="151.74" x2="176.55" y2="167.53"/><line x1="266.47" y1="168.36" x2="262.88" y2="168.22"/><line x1="202.36" y1="338.03" x2="206.00" y2="339.19"/><line x1="376.41" y1="276.58" x2="377.70" y2="269.65"/><line x1="333.42" y1="316.43" x2="349.16" y2="328.44"/><line x1="353.59" y1="164.94" x2="349.33" y2="159.18"/><line x1="328.79" y1="263.79" x2="329.42" y2="259.34"/><line x1="215.80" y1="140.07" x2="201.73" y2="124.54"/><line x1="164.22" y1="242.14" x2="165.76" y2="246.12"/><line x1="174.83" y1="323.67" x2="166.70" y2="341.47"/><line x1="310.04" y1="353.56" x2="316.53" y2="350.83"/><line x1="252.45" y1="277.56" x2="255.45" y2="280.36"/><line x1="243.66" y1="287.14" x2="255.45" y2="280.36"/><line x1="349.16" y1="328.44" x2="338.42" y2="311.13"/><line x1="218.80" y1="277.74" x2="218.78" y2="276.99"/><line x1="337.30" y1="174.62" x2="333.52" y2="169.95"/><line x1="375.65" y1="215.46" x2="374.02" y2="208.90"/><line x1="301.35" y1="274.07" x2="302.43" y2="271.69"/><line x1="247.00" y1="134.04" x2="241.56" y2="134.42"/><line x1="308.97" y1="193.65" x2="306.11" y2="190.34"/><line x1="201.73" y1="124.54" x2="210.98" y2="141.93"/><line x1="148.55" y1="254.62" x2="167.49" y2="249.95"/><line x1="166.70" y1="341.47" x2="177.47" y2="325.58"/><line x1="206.68" y1="287.44" x2="208.22" y2="287.74"/><line x1="308.56" y1="333.35" x2="322.71" y2="347.82"/><line x1="248.58" y1="364.02" x2="248.32" y2="345.14"/><line x1="217.10" y1="284.55" x2="238.93" y2="301.82"/><line x1="290.28" y1="286.27" x2="303.77" y2="303.10"/><line x1="374.02" y1="208.90" x2="356.05" y2="213.28"/><line x1="242.48" y1="115.29" x2="233.81" y2="116.08"/><line x1="301.95" y1="123.92" x2="295.15" y2="142.13"/><line x1="291.95" y1="206.98" x2="290.05" y2="204.38"/><line x1="253.83" y1="187.93" x2="250.49" y2="188.96"/><line x1="237.98" y1="255.71" x2="218.40" y2="273.70"/><line x1="140.70" y1="207.99" x2="160.07" y2="211.01"/><line x1="207.02" y1="307.85" x2="209.59" y2="287.85"/><line x1="248.32" y1="345.14" x2="257.13" y2="363.86"/><line x1="379.34" y1="247.61" x2="379.19" y2="241.27"/><line x1="346.93" y1="299.23" x2="364.61" y2="307.96"/><line x1="271.40" y1="306.78" x2="277.39" y2="289.74"/><line x1="305.92" y1="248.68" x2="305.69" y2="245.27"/><line x1="295.15" y1="142.13" x2="294.38" y2="121.20"/><line x1="480.00" y1="32.02" x2="480.00" y2="64.50"/><line x1="243.76" y1="172.61" x2="238.21" y2="176.01"/><line x1="219.54" y1="361.87" x2="225.96" y2="343.61"/><line x1="186.01" y1="330.86" x2="182.44" y2="350.62"/><line x1="280.50" y1="171.66" x2="272.88" y2="189.78"/><line x1="327.94" y1="321.31" x2="333.42" y2="316.43"/><line x1="187.04" y1="275.94" x2="189.42" y2="277.94"/><line x1="261.65" y1="284.96" x2="264.78" y2="286.68"/><line x1="364.61" y1="307.96" x2="350.44" y2="292.66"/><line x1="334.34" y1="143.53" x2="328.61" y2="138.95"/><line x1="367.28" y1="189.32" x2="349.69" y2="195.48"/><line x1="329.80" y1="245.62" x2="329.47" y2="241.28"/><line x1="302.43" y1="271.69" x2="325.42" y2="276.32"/><line x1="300.16" y1="184.35" x2="297.06" y2="181.68"/><line x1="480.00" y1="479.91" x2="480.00" y2="447.42"/><line x1="180.77" y1="136.22" x2="193.67" y2="151.37"/><line x1="158.39" y1="272.46" x2="175.36" y2="263.36"/><line x1="182.44" y1="350.62" x2="189.06" y2="332.46"/><line x1="231.49" y1="219.93" x2="231.32" y2="224.78"/><line x1="276.56" y1="342.97" x2="281.33" y2="361.40"/><line x1="243.66" y1="287.14" x2="246.95" y2="271.23"/><line x1="218.80" y1="277.74" x2="242.13" y2="263.95"/><line x1="295.77" y1="282.00" x2="297.35" y2="280.25"/><line x1="349.69" y1="195.48" x2="364.37" y2="183.02"/><line x1="278.23" y1="117.24" x2="271.57" y2="135.42"/><line x1="284.01" y1="197.60" x2="281.89" y2="195.68"/><line x1="318.83" y1="208.15" x2="298.51" y2="218.52"/><line x1="228.38" y1="185.74" x2="239.41" y2="197.21"/><line x1="141.32" y1="229.18" x2="161.00" y2="229.53"/><line x1="224.72" y1="308.49" x2="230.51" y2="307.16"/><line x1="281.33" y1="361.40" x2="285.16" y2="341.29"/><line x1="271.06" y1="288.97" x2="274.22" y2="289.55"/><line x1="355.83" y1="278.45" x2="374.77" y2="283.30"/><line x1="312.68" y1="296.34" x2="315.28" y2="293.60"/><line x1="217.10" y1="284.55" x2="218.05" y2="282.69"/><line x1="281.93" y1="289.36" x2="286.50" y2="308.47"/><line x1="328.11" y1="232.70" x2="327.09" y2="228.47"/><line x1="271.57" y1="135.42" x2="269.63" y2="116.01"/><line x1="171.74" y1="344.78" x2="176.99" y2="347.83"/><line x1="298.51" y1="218.52" x2="316.63" y2="204.37"/><line x1="447.51" y1="479.91" x2="480.00" y2="447.42"/><line x1="265.92" y1="187.53" x2="266.47" y2="168.36"/><line x1="191.06" y1="302.16" x2="198.95" y2="284.22"/><line x1="374.77" y1="283.30" x2="376.41" y2="276.58"/><line x1="286.50" y1="308.47" x2="284.11" y2="288.87"/><line x1="304.08" y1="235.07" x2="303.24" y2="231.67"/><line x1="305.34" y1="261.07" x2="328.79" y2="263.79"/><line x1="144.58" y1="321.19" x2="161.22" y2="310.82"/><line x1="163.77" y1="151.74" x2="179.54" y2="163.96"/><line x1="266.47" y1="168.36" x2="263.57" y2="187.22"/><line x1="202.36" y1="338.03" x2="200.04" y2="357.43"/><line x1="249.62" y1="274.52" x2="252.45" y2="277.56"/><line x1="353.59" y1="164.94" x2="337.30" y2="174.62"/><line x1="328.79" y1="263.79" x2="305.71" y2="258.17"/><line x1="287.31" y1="174.95" x2="283.93" y2="173.17"/><line x1="293.76" y1="209.71" x2="308.97" y2="193.65"/><line x1="212.82" y1="360.66" x2="219.54" y2="361.87"/><line x1="164.22" y1="242.14" x2="148.55" y2="254.62"/><line x1="243.66" y1="287.14" x2="218.80" y2="277.74"/><line x1="218.02" y1="271.90" x2="218.22" y2="272.82"/><line x1="310.04" y1="353.56" x2="308.56" y2="333.35"/><line x1="301.35" y1="274.07" x2="323.79" y2="280.22"/><line x1="297.19" y1="306.17" x2="290.28" y2="286.27"/><line x1="247.00" y1="134.04" x2="242.48" y2="115.29"/><line x1="150.91" y1="170.93" x2="166.85" y2="183.47"/><line x1="308.97" y1="193.65" x2="291.95" y2="206.98"/><line x1="217.64" y1="342.16" x2="221.76" y2="342.94"/><line x1="206.68" y1="287.44" x2="207.02" y2="307.85"/><line x1="279.69" y1="289.64" x2="281.93" y2="289.36"/><line x1="326.80" y1="272.28" x2="327.92" y2="268.11"/><line x1="325.20" y1="161.32" x2="320.72" y2="157.42"/><line x1="290.28" y1="286.27" x2="300.54" y2="304.79"/><line x1="329.92" y1="250.01" x2="305.92" y2="248.68"/><line x1="167.51" y1="317.49" x2="169.84" y2="319.61"/><line x1="171.22" y1="257.04" x2="173.24" y2="260.29"/><line x1="253.83" y1="187.93" x2="243.76" y2="172.61"/><line x1="334.19" y1="340.93" x2="339.48" y2="337.05"/><line x1="207.02" y1="307.85" x2="208.22" y2="287.74"/><line x1="251.53" y1="295.05" x2="261.65" y2="284.96"/><line x1="309.88" y1="298.85" x2="312.68" y2="296.34"/><line x1="157.59" y1="306.10" x2="159.35" y2="308.49"/><line x1="225.82" y1="137.05" x2="220.76" y2="138.43"/><line x1="305.92" y1="248.68" x2="329.80" y2="245.62"/><line x1="286.09" y1="199.70" x2="300.16" y2="184.35"/><line x1="157.23" y1="334.09" x2="161.86" y2="337.91"/><line x1="214.09" y1="287.02" x2="215.79" y2="285.99"/><line x1="378.01" y1="228.45" x2="376.97" y2="221.97"/><line x1="261.65" y1="284.96" x2="254.25" y2="297.32"/><line x1="304.77" y1="238.47" x2="304.08" y2="235.07"/><line x1="217.25" y1="119.25" x2="209.36" y2="121.63"/><line x1="143.04" y1="192.51" x2="141.58" y2="200.14"/><line x1="300.16" y1="184.35" x2="284.01" y2="197.60"/><line x1="480.00" y1="479.91" x2="447.51" y2="479.91"/><line x1="262.75" y1="302.99" x2="265.65" y2="304.48"/><line x1="358.67" y1="225.85" x2="357.52" y2="219.50"/><line x1="316.01" y1="130.75" x2="309.16" y2="127.13"/><line x1="295.77" y1="282.00" x2="312.68" y2="296.34"/><line x1="162.19" y1="196.82" x2="161.20" y2="201.47"/><line x1="228.38" y1="185.74" x2="241.84" y2="194.53"/><line x1="198.86" y1="336.77" x2="202.36" y2="338.03"/><line x1="255.45" y1="280.36" x2="258.55" y2="282.85"/><line x1="224.72" y1="308.49" x2="215.79" y2="285.99"/><line x1="271.06" y1="288.97" x2="268.53" y2="305.75"/><line x1="300.15" y1="276.29" x2="301.35" y2="274.07"/><line x1="306.00" y1="147.40" x2="300.68" y2="144.63"/><line x1="340.80" y1="179.50" x2="353.59" y2="164.94"/><line x1="306.11" y1="190.34" x2="303.18" y2="187.24"/><line x1="206.36" y1="143.99" x2="201.93" y2="146.25"/><line x1="328.11" y1="232.70" x2="304.08" y2="235.07"/><line x1="277.45" y1="192.35" x2="275.18" y2="190.96"/><line x1="171.74" y1="344.78" x2="183.07" y2="329.18"/><line x1="182.27" y1="271.43" x2="184.65" y2="273.77"/><line x1="357.54" y1="318.74" x2="361.24" y2="313.49"/><line x1="301.17" y1="336.48" x2="310.04" y2="353.56"/><line x1="372.09" y1="202.30" x2="369.86" y2="195.74"/><line x1="249.72" y1="170.17" x2="253.83" y2="187.93"/><line x1="319.92" y1="287.39" x2="321.95" y2="283.92"/><line x1="194.35" y1="127.98" x2="187.34" y2="131.89"/><line x1="140.41" y1="216.06" x2="140.64" y2="222.66"/><line x1="144.58" y1="321.19" x2="159.35" y2="308.49"/><line x1="258.13" y1="344.90" x2="267.55" y2="344.17"/><line x1="354.24" y1="207.20" x2="352.12" y2="201.25"/><line x1="359.87" y1="254.41" x2="379.16" y2="255.17"/><line x1="322.70" y1="216.03" x2="320.85" y2="212.03"/><line x1="159.93" y1="215.93" x2="160.05" y2="220.58"/><line x1="180.64" y1="295.66" x2="185.82" y2="299.18"/><line x1="265.45" y1="363.37" x2="273.51" y2="362.55"/><line x1="212.82" y1="360.66" x2="217.64" y2="342.16"/><line x1="277.10" y1="308.16" x2="279.92" y2="308.50"/><line x1="379.16" y1="255.17" x2="379.34" y2="247.61"/><line x1="303.38" y1="269.18" x2="304.17" y2="266.57"/><line x1="283.62" y1="138.11" x2="277.66" y2="136.60"/><line x1="189.83" y1="154.23" x2="186.18" y2="157.30"/><line x1="270.57" y1="188.82" x2="268.25" y2="188.07"/><line x1="150.91" y1="170.93" x2="168.94" y2="179.24"/><line x1="191.82" y1="279.77" x2="194.22" y2="281.43"/><line x1="217.64" y1="342.16" x2="219.54" y2="361.87"/><line x1="239.97" y1="259.94" x2="237.98" y2="255.71"/><line x1="370.38" y1="296.11" x2="372.76" y2="289.81"/><line x1="321.97" y1="325.76" x2="334.19" y2="340.93"/><line x1="326.80" y1="272.28" x2="304.83" y2="263.87"/><line x1="325.20" y1="161.32" x2="334.34" y2="143.53"/><line x1="137.17" y1="311.38" x2="140.77" y2="316.41"/><line x1="174.65" y1="140.97" x2="168.99" y2="146.15"/><line x1="224.08" y1="192.07" x2="219.43" y2="171.85"/><line x1="142.44" y1="235.64" x2="144.03" y2="242.03"/><line x1="188.10" y1="353.15" x2="193.97" y2="355.42"/><line x1="167.51" y1="317.49" x2="157.23" y2="334.09"/><line x1="171.22" y1="257.04" x2="158.39" y2="272.46"/><line x1="244.45" y1="267.71" x2="246.95" y2="271.23"/><line x1="334.19" y1="340.93" x2="327.94" y2="321.31"/><line x1="284.11" y1="288.87" x2="286.22" y2="288.20"/><line x1="361.11" y1="176.86" x2="357.52" y2="170.84"/><line x1="359.49" y1="232.32" x2="378.01" y2="228.45"/><line x1="309.88" y1="298.85" x2="295.77" y2="282.00"/><line x1="297.04" y1="215.48" x2="295.46" y2="212.54"/><line x1="157.59" y1="306.10" x2="144.58" y2="321.19"/><line x1="225.82" y1="137.05" x2="217.25" y2="119.25"/><line x1="161.83" y1="233.85" x2="162.91" y2="238.05"/><line x1="157.23" y1="334.09" x2="169.84" y2="319.61"/><line x1="296.20" y1="358.12" x2="303.26" y2="356.00"/><line x1="233.63" y1="363.48" x2="234.63" y2="344.59"/><line x1="214.09" y1="287.02" x2="224.72" y2="308.49"/><line x1="290.17" y1="308.01" x2="293.74" y2="307.24"/><line x1="378.01" y1="228.45" x2="358.67" y2="225.85"/><line x1="260.69" y1="115.27" x2="251.40" y2="115.02"/><line x1="304.77" y1="238.47" x2="328.11" y2="232.70"/><line x1="262.88" y1="168.22" x2="256.09" y2="168.71"/><line x1="206.32" y1="359.18" x2="212.82" y2="360.66"/><line x1="143.04" y1="192.51" x2="162.19" y2="196.82"/><line x1="196.33" y1="304.60" x2="201.65" y2="306.49"/><line x1="234.63" y1="344.59" x2="239.10" y2="344.89"/><line x1="252.53" y1="133.91" x2="247.00" y2="134.04"/><line x1="338.42" y1="311.13" x2="353.51" y2="323.73"/><line x1="262.75" y1="302.99" x2="271.06" y2="288.97"/><line x1="329.42" y1="259.34" x2="329.79" y2="254.74"/><line x1="316.01" y1="130.75" x2="306.00" y2="147.40"/><line x1="159.02" y1="157.75" x2="154.71" y2="164.18"/><line x1="177.47" y1="325.58" x2="171.74" y2="344.78"/><line x1="257.13" y1="363.86" x2="265.45" y2="363.37"/><line x1="179.90" y1="268.93" x2="182.27" y2="271.43"/><line x1="255.45" y1="280.36" x2="248.86" y2="292.60"/><line x1="353.51" y1="323.73" x2="357.54" y2="318.74"/><line x1="171.25" y1="175.18" x2="150.91" y2="170.93"/><line x1="300.15" y1="276.29" x2="319.92" y2="287.39"/><line x1="306.11" y1="190.34" x2="288.10" y2="201.95"/><line x1="206.36" y1="143.99" x2="194.35" y2="127.98"/><line x1="171.74" y1="344.78" x2="180.22" y2="327.42"/><line x1="339.71" y1="148.42" x2="325.20" y2="161.32"/><line x1="241.56" y1="297.81" x2="243.14" y2="292.92"/><line x1="372.09" y1="202.30" x2="354.24" y2="207.20"/><line x1="140.41" y1="216.06" x2="159.93" y2="215.93"/><line x1="258.13" y1="344.90" x2="265.45" y2="363.37"/><line x1="230.97" y1="135.92" x2="225.82" y2="137.05"/><line x1="264.78" y1="286.68" x2="267.91" y2="288.02"/><line x1="274.26" y1="307.59" x2="277.10" y2="308.16"/><line x1="196.27" y1="171.85" x2="231.32" y2="224.78"/><line x1="289.45" y1="139.95" x2="283.62" y2="138.11"/><line x1="161.86" y1="337.91" x2="166.70" y2="341.47"/><line x1="238.21" y1="176.01" x2="233.09" y2="180.39"/><line x1="192.21" y1="333.98" x2="195.47" y2="335.42"/><line x1="285.16" y1="341.29" x2="296.20" y2="358.12"/><line x1="180.64" y1="295.66" x2="191.82" y2="279.77"/><line x1="367.66" y1="302.17" x2="370.38" y2="296.11"/><line x1="347.00" y1="189.93" x2="344.03" y2="184.60"/><line x1="244.49" y1="192.26" x2="228.38" y2="185.74"/><line x1="303.38" y1="269.18" x2="326.80" y2="272.28"/><line x1="189.83" y1="154.23" x2="174.65" y2="140.97"/><line x1="270.57" y1="188.82" x2="273.56" y2="169.46"/><line x1="311.11" y1="150.46" x2="316.01" y2="130.75"/><line x1="357.52" y1="219.50" x2="356.05" y2="213.28"/><line x1="265.35" y1="134.58" x2="259.01" y2="134.08"/><line x1="137.17" y1="311.38" x2="133.78" y2="306.10"/><line x1="224.08" y1="192.07" x2="196.27" y2="171.85"/><line x1="200.04" y1="357.43" x2="206.32" y2="359.18"/><line x1="142.44" y1="235.64" x2="161.83" y2="233.85"/><line x1="201.12" y1="285.33" x2="203.14" y2="286.23"/><line x1="231.86" y1="233.69" x2="232.55" y2="238.12"/><line x1="357.72" y1="270.80" x2="359.06" y2="262.79"/><line x1="290.65" y1="176.98" x2="277.45" y2="192.35"/><line x1="284.11" y1="288.87" x2="290.17" y2="308.01"/><line x1="275.18" y1="190.96" x2="272.88" y2="189.78"/><line x1="176.55" y1="167.53" x2="173.79" y2="171.27"/><line x1="356.05" y1="213.28" x2="372.09" y2="202.30"/><line x1="297.04" y1="215.48" x2="314.25" y2="200.69"/><line x1="206.00" y1="339.19" x2="209.75" y2="340.27"/><line x1="349.33" y1="159.18" x2="344.71" y2="153.64"/><line x1="196.27" y1="171.85" x2="219.43" y2="171.85"/><line x1="196.27" y1="171.85" x2="233.50" y2="242.54"/><line x1="161.22" y1="310.82" x2="163.21" y2="313.09"/><line x1="175.61" y1="291.70" x2="180.64" y2="295.66"/><line x1="262.88" y1="168.22" x2="261.22" y2="187.11"/><line x1="324.38" y1="220.11" x2="322.70" y2="216.03"/><line x1="241.56" y1="134.42" x2="236.22" y2="135.04"/><line x1="329.42" y1="259.34" x2="305.92" y2="255.17"/><line x1="148.59" y1="325.74" x2="152.81" y2="330.04"/><line x1="167.49" y1="249.95" x2="169.30" y2="253.59"/><line x1="218.40" y1="273.70" x2="218.54" y2="274.56"/><line x1="257.13" y1="363.86" x2="258.13" y2="344.90"/><line x1="360.14" y1="245.68" x2="359.97" y2="238.93"/><line x1="277.05" y1="170.42" x2="270.57" y2="188.82"/><line x1="303.77" y1="303.10" x2="306.90" y2="301.11"/><line x1="233.81" y1="116.08" x2="225.40" y2="117.40"/><line x1="166.85" y1="183.47" x2="165.01" y2="187.83"/><line x1="306.11" y1="190.34" x2="290.05" y2="204.38"/><line x1="480.00" y1="64.50" x2="447.51" y2="32.02"/><line x1="250.49" y1="188.96" x2="247.37" y2="190.41"/><line x1="209.59" y1="287.85" x2="212.03" y2="287.64"/><line x1="254.25" y1="297.32" x2="257.03" y2="299.39"/><line x1="320.72" y1="157.42" x2="316.02" y2="153.79"/><line x1="231.45" y1="229.24" x2="231.86" y2="233.69"/><line x1="305.69" y1="245.27" x2="305.30" y2="241.87"/><line x1="147.70" y1="177.90" x2="145.08" y2="185.09"/><line x1="189.06" y1="332.46" x2="192.21" y2="333.98"/><line x1="316.63" y1="204.37" x2="297.04" y2="215.48"/><line x1="264.78" y1="286.68" x2="259.86" y2="301.29"/><line x1="220.76" y1="138.43" x2="215.80" y2="140.07"/><line x1="196.27" y1="171.85" x2="231.49" y2="219.93"/><line x1="297.06" y1="181.68" x2="293.89" y2="179.22"/><line x1="161.86" y1="337.91" x2="174.83" y2="323.67"/><line x1="175.36" y1="263.36" x2="177.58" y2="266.24"/><line x1="305.71" y1="258.17" x2="305.92" y2="255.17"/><line x1="218.78" y1="276.99" x2="218.73" y2="276.20"/><line x1="215.79" y1="285.99" x2="235.25" y2="304.93"/><line x1="285.16" y1="341.29" x2="288.89" y2="359.93"/><line x1="376.97" y1="221.97" x2="375.65" y2="215.46"/><line x1="263.57" y1="187.22" x2="262.88" y2="168.22"/><line x1="297.35" y1="280.25" x2="298.81" y2="278.35"/><line x1="347.00" y1="189.93" x2="361.11" y2="176.86"/><line x1="209.36" y1="121.63" x2="201.73" y2="124.54"/><line x1="141.58" y1="200.14" x2="160.49" y2="206.19"/><line x1="239.41" y1="197.21" x2="237.26" y2="200.24"/><line x1="309.16" y1="127.13" x2="301.95" y2="123.92"/><line x1="327.09" y1="228.47" x2="325.84" y2="224.27"/><line x1="265.35" y1="134.58" x2="260.69" y2="115.27"/><line x1="170.88" y1="287.40" x2="175.61" y2="291.70"/><line x1="200.04" y1="357.43" x2="206.00" y2="339.19"/><line x1="201.12" y1="285.33" x2="196.33" y2="304.60"/><line x1="268.53" y1="305.75" x2="271.40" y2="306.78"/><line x1="300.68" y1="144.63" x2="295.15" y2="142.13"/><line x1="140.64" y1="222.66" x2="141.32" y2="229.18"/><line x1="275.18" y1="190.96" x2="280.50" y2="171.66"/><line x1="176.55" y1="167.53" x2="159.02" y2="157.75"/><line x1="184.65" y1="273.77" x2="187.04" y2="275.94"/><line x1="294.38" y1="121.20" x2="289.45" y2="139.95"/><line x1="349.33" y1="159.18" x2="333.52" y2="169.95"/><line x1="189.42" y1="277.94" x2="180.64" y2="295.66"/><line x1="187.34" y1="131.89" x2="180.77" y2="136.22"/><line x1="350.44" y1="292.66" x2="367.66" y2="302.17"/><line x1="196.27" y1="171.85" x2="232.55" y2="238.12"/><line x1="161.22" y1="310.82" x2="148.59" y2="325.74"/><line x1="185.82" y1="299.18" x2="191.06" y2="302.16"/><line x1="165.76" y1="246.12" x2="167.49" y2="249.95"/><line x1="193.67" y1="151.37" x2="189.83" y2="154.23"/><line x1="352.12" y1="201.25" x2="349.69" y2="195.48"/><line x1="320.85" y1="212.03" x2="318.83" y2="208.15"/><line x1="241.56" y1="134.42" x2="233.81" y2="116.08"/><line x1="242.13" y1="263.95" x2="239.97" y2="259.94"/><line x1="364.37" y1="183.02" x2="347.00" y2="189.93"/><line x1="208.22" y1="287.74" x2="209.59" y2="287.85"/><line x1="360.14" y1="245.68" x2="379.19" y2="241.27"/><line x1="161.00" y1="229.53" x2="142.44" y2="235.64"/><line x1="268.25" y1="188.07" x2="265.92" y2="187.53"/><line x1="193.97" y1="355.42" x2="200.04" y2="357.43"/><line x1="169.84" y1="319.61" x2="172.28" y2="321.67"/><line x1="166.85" y1="183.47" x2="147.70" y2="177.90"/><line x1="269.63" y1="116.01" x2="265.35" y2="134.58"/><line x1="254.25" y1="297.32" x2="264.78" y2="286.68"/><line x1="320.72" y1="157.42" x2="328.61" y2="138.95"/><line x1="198.95" y1="284.22" x2="201.12" y2="285.33"/><line x1="376.41" y1="276.58" x2="357.72" y2="270.80"/><line x1="173.24" y1="260.29" x2="175.36" y2="263.36"/><line x1="339.48" y1="337.05" x2="344.47" y2="332.89"/><line x1="179.54" y1="163.96" x2="176.55" y2="167.53"/><line x1="251.40" y1="115.02" x2="242.48" y2="115.29"/><line x1="220.76" y1="138.43" x2="209.36" y2="121.63"/><line x1="196.27" y1="171.85" x2="231.98" y2="215.39"/><line x1="337.30" y1="174.62" x2="349.33" y2="159.18"/><line x1="201.65" y1="306.49" x2="207.02" y2="307.85"/><line x1="240.99" y1="363.89" x2="248.58" y2="364.02"/><line x1="305.71" y1="258.17" x2="329.42" y2="259.34"/><line x1="215.79" y1="285.99" x2="230.51" y2="307.16"/><line x1="376.97" y1="221.97" x2="357.52" y2="219.50"/><line x1="148.55" y1="254.62" x2="165.76" y2="246.12"/><line x1="218.22" y1="272.82" x2="218.40" y2="273.70"/><line x1="308.56" y1="333.35" x2="316.53" y2="350.83"/><line x1="32.16" y1="32.09" x2="32.16" y2="64.58"/><line x1="141.58" y1="200.14" x2="161.20" y2="201.47"/><line x1="242.48" y1="115.29" x2="241.56" y2="134.42"/><line x1="342.92" y1="305.39" x2="346.93" y2="299.23"/><line x1="291.95" y1="206.98" x2="306.11" y2="190.34"/><line x1="237.98" y1="255.71" x2="218.22" y2="272.82"/><line x1="309.16" y1="127.13" x2="300.68" y2="144.63"/><line x1="201.93" y1="146.25" x2="197.71" y2="148.71"/><line x1="379.34" y1="247.61" x2="360.14" y2="245.68"/><line x1="183.07" y1="329.18" x2="186.01" y2="330.86"/><line x1="300.54" y1="304.79" x2="303.77" y2="303.10"/><line x1="170.88" y1="287.40" x2="184.65" y2="273.77"/><line x1="168.94" y1="179.24" x2="166.85" y2="183.47"/><line x1="369.86" y1="195.74" x2="367.28" y2="189.32"/><line x1="219.54" y1="361.87" x2="221.76" y2="342.94"/><line x1="225.40" y1="117.40" x2="217.25" y2="119.25"/><line x1="243.76" y1="172.61" x2="250.49" y2="188.96"/><line x1="327.94" y1="321.31" x2="344.47" y2="332.89"/><line x1="140.64" y1="222.66" x2="160.40" y2="225.11"/><line x1="334.34" y1="143.53" x2="320.72" y2="157.42"/><line x1="267.55" y1="344.17" x2="276.56" y2="342.97"/><line x1="329.80" y1="245.62" x2="305.69" y2="245.27"/><line x1="158.39" y1="272.46" x2="173.24" y2="260.29"/><line x1="286.48" y1="118.97" x2="278.23" y2="117.24"/><line x1="185.82" y1="299.18" x2="196.62" y2="282.92"/><line x1="353.40" y1="285.73" x2="355.83" y2="278.45"/><line x1="284.01" y1="197.60" x2="297.06" y2="181.68"/><line x1="239.10" y1="344.89" x2="243.67" y2="345.07"/><line x1="186.18" y1="157.30" x2="182.75" y2="160.55"/><line x1="195.47" y1="335.42" x2="198.86" y2="336.77"/><line x1="217.10" y1="284.55" x2="243.66" y2="287.14"/><line x1="312.68" y1="296.34" x2="297.35" y2="280.25"/><line x1="237.98" y1="255.71" x2="196.27" y2="171.85"/><line x1="344.03" y1="184.60" x2="340.80" y2="179.50"/><line x1="241.84" y1="194.53" x2="239.41" y2="197.21"/><line x1="304.83" y1="263.87" x2="305.34" y2="261.07"/><line x1="144.03" y1="242.03" x2="146.06" y2="248.36"/><line x1="169.84" y1="319.61" x2="161.86" y2="337.91"/><line x1="293.37" y1="339.12" x2="301.17" y2="336.48"/><line x1="304.08" y1="235.07" x2="327.09" y2="228.47"/><line x1="246.95" y1="271.23" x2="249.62" y2="274.52"/><line x1="259.01" y1="134.08" x2="252.53" y2="133.91"/><line x1="295.46" y1="212.54" x2="293.76" y2="209.71"/><line x1="265.65" y1="304.48" x2="268.53" y2="305.75"/><line x1="235.44" y1="203.58" x2="233.96" y2="207.21"/><line x1="233.50" y1="242.54" x2="234.72" y2="246.94"/><line x1="359.06" y1="262.79" x2="359.87" y2="254.41"/><line x1="287.31" y1="174.95" x2="275.18" y2="190.96"/><line x1="159.35" y1="308.49" x2="161.22" y2="310.82"/><line x1="293.74" y1="307.24" x2="297.19" y2="306.17"/><line x1="302.24" y1="228.26" x2="301.11" y2="224.91"/><line x1="243.66" y1="287.14" x2="218.61" y2="280.42"/><line x1="173.79" y1="171.27" x2="171.25" y2="175.18"/><line x1="243.66" y1="287.14" x2="252.45" y2="277.56"/><line x1="256.09" y1="168.71" x2="249.72" y2="170.17"/><line x1="301.35" y1="274.07" x2="321.95" y2="283.92"/><line x1="218.80" y1="277.74" x2="237.98" y2="255.71"/><line x1="201.65" y1="306.49" x2="206.68" y2="287.44"/><line x1="32.00" y1="479.98" x2="64.49" y2="479.98"/><line x1="277.39" y1="289.74" x2="279.69" y2="289.64"/><line x1="301.11" y1="224.91" x2="299.87" y2="221.66"/><line x1="344.71" y1="153.64" x2="339.71" y2="148.42"/><line x1="233.96" y1="207.21" x2="232.80" y2="211.15"/><line x1="329.79" y1="254.74" x2="329.92" y2="250.01"/><line x1="152.81" y1="330.04" x2="157.23" y2="334.09"/><line x1="279.69" y1="289.64" x2="282.73" y2="308.62"/><line x1="315.51" y1="329.77" x2="321.97" y2="325.76"/><line x1="248.86" y1="292.60" x2="251.53" y2="295.05"/><line x1="273.56" y1="169.46" x2="270.03" y2="168.77"/><line x1="237.98" y1="255.71" x2="218.02" y2="271.90"/><line x1="236.22" y1="135.04" x2="230.97" y2="135.92"/><line x1="288.10" y1="201.95" x2="286.09" y2="199.70"/><line x1="169.30" y1="253.59" x2="171.22" y2="257.04"/><line x1="306.90" y1="301.11" x2="309.88" y2="298.85"/><line x1="237.98" y1="255.71" x2="218.78" y2="276.99"/><line x1="327.94" y1="321.31" x2="339.48" y2="337.05"/><line x1="247.37" y1="190.41" x2="244.49" y2="192.26"/><line x1="140.64" y1="222.66" x2="160.05" y2="220.58"/><line x1="212.03" y1="287.64" x2="214.09" y2="287.02"/><line x1="314.25" y1="200.69" x2="311.70" y2="197.12"/><line x1="217.25" y1="119.25" x2="220.76" y2="138.43"/><line x1="305.30" y1="241.87" x2="304.77" y2="238.47"/><line x1="145.08" y1="185.09" x2="143.04" y2="192.51"/><line x1="243.66" y1="287.14" x2="244.45" y2="267.71"/><line x1="358.67" y1="225.85" x2="376.97" y2="221.97"/><line x1="286.22" y1="288.20" x2="288.28" y2="287.33"/><line x1="185.82" y1="299.18" x2="194.22" y2="281.43"/><line x1="259.86" y1="301.29" x2="262.75" y2="302.99"/><line x1="261.22" y1="187.11" x2="257.41" y2="187.32"/><line x1="162.19" y1="196.82" x2="141.58" y2="200.14"/><line x1="203.14" y1="286.23" x2="204.99" y2="286.94"/><line x1="239.10" y1="344.89" x2="240.99" y2="363.89"/><line x1="201.73" y1="124.54" x2="194.35" y2="127.98"/><line x1="293.89" y1="179.22" x2="290.65" y2="176.98"/><line x1="186.18" y1="157.30" x2="168.99" y2="146.15"/><line x1="271.06" y1="288.97" x2="265.65" y2="304.48"/><line x1="177.58" y1="266.24" x2="179.90" y2="268.93"/><line x1="305.92" y1="255.17" x2="305.99" y2="252.08"/><line x1="306.00" y1="147.40" x2="309.16" y2="127.13"/><line x1="217.10" y1="284.55" x2="243.14" y2="292.92"/><line x1="277.45" y1="192.35" x2="287.31" y2="174.95"/><line x1="298.81" y1="278.35" x2="300.15" y2="276.29"/><line x1="182.27" y1="271.43" x2="170.88" y2="287.40"/><line x1="357.54" y1="318.74" x2="342.92" y2="305.39"/><line x1="237.98" y1="255.71" x2="218.65" y2="275.39"/><line x1="144.03" y1="242.03" x2="162.91" y2="238.05"/><line x1="319.92" y1="287.39" x2="301.35" y2="274.07"/><line x1="194.35" y1="127.98" x2="201.93" y2="146.25"/><line x1="151.49" y1="260.81" x2="154.80" y2="266.81"/><line x1="180.22" y1="327.42" x2="183.07" y2="329.18"/><line x1="325.84" y1="224.27" x2="324.38" y2="220.11"/><line x1="259.01" y1="134.08" x2="251.40" y2="115.02"/><line x1="243.14" y1="292.92" x2="243.66" y2="287.14"/><line x1="292.21" y1="285.02" x2="294.05" y2="283.59"/><line x1="354.24" y1="207.20" x2="369.86" y2="195.74"/><line x1="322.70" y1="216.03" x2="301.11" y2="224.91"/><line x1="159.93" y1="215.93" x2="140.64" y2="222.66"/><line x1="212.43" y1="308.66" x2="217.89" y2="308.93"/><line x1="265.45" y1="363.37" x2="267.55" y2="344.17"/><line x1="180.77" y1="136.22" x2="174.65" y2="140.97"/><line x1="243.66" y1="287.14" x2="218.05" y2="282.69"/><line x1="182.44" y1="350.62" x2="188.10" y2="353.15"/><line x1="173.79" y1="171.27" x2="154.71" y2="164.18"/><line x1="277.10" y1="308.16" x2="279.69" y2="289.64"/><line x1="243.66" y1="287.14" x2="249.62" y2="274.52"/><line x1="329.47" y1="241.28" x2="328.90" y2="236.97"/><line x1="283.62" y1="138.11" x2="286.48" y2="118.97"/><line x1="218.80" y1="277.74" x2="244.45" y2="267.71"/><line x1="301.11" y1="224.91" x2="320.85" y2="212.03"/><line x1="32.00" y1="479.98" x2="32.00" y2="447.50"/><line x1="344.71" y1="153.64" x2="329.48" y2="165.51"/><line x1="191.82" y1="279.77" x2="185.82" y2="299.18"/><line x1="370.38" y1="296.11" x2="353.40" y2="285.73"/><line x1="152.81" y1="330.04" x2="167.51" y2="317.49"/><line x1="279.69" y1="289.64" x2="279.92" y2="308.50"/><line x1="326.80" y1="272.28" x2="304.17" y2="266.57"/><line x1="355.83" y1="278.45" x2="357.72" y2="270.80"/><line x1="174.65" y1="140.97" x2="186.18" y2="157.30"/><line x1="359.97" y1="238.93" x2="359.49" y2="232.32"/><line x1="188.10" y1="353.15" x2="195.47" y2="335.42"/><line x1="273.56" y1="169.46" x2="268.25" y2="188.07"/><line x1="236.22" y1="135.04" x2="225.40" y2="117.40"/><line x1="165.01" y1="187.83" x2="163.46" y2="192.28"/><line x1="361.11" y1="176.86" x2="344.03" y2="184.60"/><line x1="191.06" y1="302.16" x2="196.33" y2="304.60"/><line x1="226.47" y1="362.81" x2="233.63" y2="363.48"/><line x1="304.17" y1="266.57" x2="304.83" y2="263.87"/><line x1="157.59" y1="306.10" x2="140.77" y2="316.41"/><line x1="161.83" y1="233.85" x2="144.03" y2="242.03"/><line x1="316.02" y1="153.79" x2="311.11" y2="150.46"/><line x1="296.20" y1="358.12" x2="293.37" y2="339.12"/><line x1="163.77" y1="151.74" x2="159.02" y2="157.75"/><line x1="232.55" y1="238.12" x2="233.50" y2="242.54"/><line x1="377.70" y1="269.65" x2="378.61" y2="262.51"/><line x1="290.17" y1="308.01" x2="286.22" y2="288.20"/><line x1="260.69" y1="115.27" x2="259.01" y2="134.08"/><line x1="333.42" y1="316.43" x2="338.42" y2="311.13"/><line x1="314.25" y1="200.69" x2="295.46" y2="212.54"/><line x1="206.32" y1="359.18" x2="213.64" y2="341.25"/><line x1="196.33" y1="304.60" x2="203.14" y2="286.23"/><line x1="215.80" y1="140.07" x2="210.98" y2="141.93"/><line x1="174.83" y1="323.67" x2="177.47" y2="325.58"/><line x1="333.52" y1="169.95" x2="329.48" y2="165.51"/><line x1="286.22" y1="288.20" x2="293.74" y2="307.24"/><line x1="159.02" y1="157.75" x2="173.79" y2="171.27"/><line x1="261.22" y1="187.11" x2="256.09" y2="168.71"/><line x1="322.71" y1="347.82" x2="328.60" y2="344.52"/><line x1="203.14" y1="286.23" x2="201.65" y2="306.49"/><line x1="255.45" y1="280.36" x2="246.23" y2="289.96"/><line x1="248.58" y1="364.02" x2="257.13" y2="363.86"/><line x1="305.92" y1="255.17" x2="329.79" y2="254.74"/><line x1="163.21" y1="313.09" x2="165.30" y2="315.32"/><line x1="301.95" y1="123.92" x2="294.38" y2="121.20"/><line x1="218.54" y1="274.56" x2="218.65" y2="275.39"/><line x1="379.19" y1="241.27" x2="378.75" y2="234.88"/><line x1="246.23" y1="289.96" x2="248.86" y2="292.60"/><line x1="346.93" y1="299.23" x2="350.44" y2="292.66"/><line x1="290.05" y1="204.38" x2="288.10" y2="201.95"/><line x1="225.96" y1="343.61" x2="230.25" y2="344.17"/><line x1="151.49" y1="260.81" x2="169.30" y2="253.59"/><line x1="280.50" y1="171.66" x2="277.05" y2="170.42"/><line x1="186.01" y1="330.86" x2="189.06" y2="332.46"/><line x1="328.61" y1="138.95" x2="322.50" y2="134.69"/><line x1="237.98" y1="255.71" x2="218.73" y2="276.20"/><line x1="292.21" y1="285.02" x2="306.90" y2="301.11"/><line x1="367.28" y1="189.32" x2="364.37" y2="183.02"/><line x1="238.21" y1="176.01" x2="247.37" y2="190.41"/><line x1="192.21" y1="333.98" x2="188.10" y2="353.15"/><line x1="344.47" y1="332.89" x2="349.16" y2="328.44"/><line x1="212.43" y1="308.66" x2="212.03" y2="287.64"/><line x1="276.56" y1="342.97" x2="285.16" y2="341.29"/><line x1="329.47" y1="241.28" x2="305.30" y2="241.87"/><line x1="281.89" y1="195.68" x2="279.70" y2="193.93"/><line x1="162.27" y1="277.78" x2="166.43" y2="282.75"/><line x1="278.23" y1="117.24" x2="269.63" y2="116.01"/><line x1="288.89" y1="359.93" x2="296.20" y2="358.12"/><line x1="318.83" y1="208.15" x2="316.63" y2="204.37"/><line x1="357.52" y1="219.50" x2="374.02" y2="208.90"/><line x1="228.38" y1="185.74" x2="224.08" y2="192.07"/><line x1="315.28" y1="293.60" x2="317.69" y2="290.62"/><line x1="355.83" y1="278.45" x2="376.41" y2="276.58"/><line x1="137.17" y1="311.38" x2="157.59" y2="306.10"/><line x1="224.08" y1="192.07" x2="235.44" y2="203.58"/><line x1="243.67" y1="345.07" x2="248.32" y2="345.14"/><line x1="235.25" y1="304.93" x2="238.93" y2="301.82"/><line x1="218.73" y1="276.20" x2="218.65" y2="275.39"/><line x1="357.72" y1="270.80" x2="377.70" y2="269.65"/><line x1="265.92" y1="187.53" x2="263.57" y2="187.22"/><line x1="303.24" y1="231.67" x2="302.24" y2="228.26"/><line x1="160.49" y1="206.19" x2="160.07" y2="211.01"/><line x1="157.59" y1="306.10" x2="133.78" y2="306.10"/><line x1="206.00" y1="339.19" x2="206.32" y2="359.18"/><line x1="305.34" y1="261.07" x2="305.71" y2="258.17"/><line x1="361.24" y1="313.49" x2="364.61" y2="307.96"/><line x1="144.58" y1="321.19" x2="148.59" y2="325.74"/><line x1="274.22" y1="289.55" x2="277.39" y2="289.74"/><line x1="377.70" y1="269.65" x2="359.06" y2="262.79"/><line x1="359.87" y1="254.41" x2="360.14" y2="245.68"/><line x1="175.61" y1="291.70" x2="189.42" y2="277.94"/><line x1="206.32" y1="359.18" x2="209.75" y2="340.27"/><line x1="316.53" y1="350.83" x2="322.71" y2="347.82"/><line x1="293.76" y1="209.71" x2="291.95" y2="206.98"/><line x1="323.79" y1="280.22" x2="325.42" y2="276.32"/><line x1="333.52" y1="169.95" x2="344.71" y2="153.64"/><line x1="197.71" y1="148.71" x2="193.67" y2="151.37"/><line x1="148.59" y1="325.74" x2="163.21" y2="313.09"/><line x1="297.19" y1="306.17" x2="300.54" y2="304.79"/><line x1="167.49" y1="249.95" x2="151.49" y2="260.81"/><line x1="322.71" y1="347.82" x2="315.51" y2="329.77"/><line x1="150.91" y1="170.93" x2="147.70" y2="177.90"/><line x1="303.77" y1="303.10" x2="292.21" y2="285.02"/><line x1="299.87" y1="221.66" x2="298.51" y2="218.52"/><line x1="233.81" y1="116.08" x2="236.22" y2="135.04"/><line x1="160.40" y1="225.11" x2="161.00" y2="229.53"/><line x1="163.21" y1="313.09" x2="152.81" y2="330.04"/><line x1="250.49" y1="188.96" x2="238.21" y2="176.01"/><line x1="221.76" y1="342.94" x2="225.96" y2="343.61"/><line x1="329.92" y1="250.01" x2="329.80" y2="245.62"/><line x1="209.59" y1="287.85" x2="212.43" y2="308.66"/><line x1="282.73" y1="308.62" x2="286.50" y2="308.47"/><line x1="379.19" y1="241.27" x2="359.97" y2="238.93"/><line x1="305.69" y1="245.27" x2="329.47" y2="241.28"/><line x1="251.53" y1="295.05" x2="254.25" y2="297.32"/><line x1="270.03" y1="168.77" x2="266.47" y2="168.36"/><line x1="147.70" y1="177.90" x2="165.01" y2="187.83"/><line x1="196.62" y1="282.92" x2="198.95" y2="284.22"/><line x1="225.96" y1="343.61" x2="226.47" y2="362.81"/><line x1="286.09" y1="199.70" x2="284.01" y2="197.60"/><line x1="264.78" y1="286.68" x2="257.03" y2="299.39"/><line x1="233.63" y1="363.48" x2="240.99" y2="363.89"/><line x1="327.92" y1="268.11" x2="328.79" y2="263.79"/><line x1="328.61" y1="138.95" x2="316.02" y2="153.79"/><line x1="182.75" y1="160.55" x2="179.54" y2="163.96"/><line x1="297.06" y1="181.68" x2="281.89" y2="195.68"/><line x1="161.86" y1="337.91" x2="172.28" y2="321.67"/><line x1="196.27" y1="171.85" x2="218.02" y2="271.90"/><line x1="175.36" y1="263.36" x2="162.27" y2="277.78"/><line x1="344.47" y1="332.89" x2="333.42" y2="316.43"/><line x1="257.03" y1="299.39" x2="259.86" y2="301.29"/><line x1="297.35" y1="280.25" x2="315.28" y2="293.60"/><line x1="338.42" y1="311.13" x2="342.92" y2="305.39"/><line x1="311.70" y1="197.12" x2="308.97" y2="193.65"/><line x1="209.36" y1="121.63" x2="215.80" y2="140.07"/><line x1="281.89" y1="195.68" x2="293.89" y2="179.22"/><line x1="172.28" y1="321.67" x2="174.83" y2="323.67"/><line x1="239.41" y1="197.21" x2="224.08" y2="192.07"/><line x1="162.27" y1="277.78" x2="177.58" y2="266.24"/><line x1="230.51" y1="307.16" x2="235.25" y2="304.93"/><line x1="357.52" y1="219.50" x2="375.65" y2="215.46"/><line x1="315.28" y1="293.60" x2="298.81" y2="278.35"/><line x1="327.09" y1="228.47" x2="303.24" y2="231.67"/><line x1="257.41" y1="187.32" x2="253.83" y2="187.93"/><line x1="161.20" y1="201.47" x2="160.49" y2="206.19"/><line x1="340.80" y1="179.50" x2="337.30" y2="174.62"/><line x1="243.67" y1="345.07" x2="248.58" y2="364.02"/><line x1="224.08" y1="192.07" x2="237.26" y2="200.24"/><line x1="235.25" y1="304.93" x2="217.10" y2="284.55"/><line x1="268.53" y1="305.75" x2="274.22" y2="289.55"/><line x1="300.68" y1="144.63" x2="301.95" y2="123.92"/><line x1="301.17" y1="336.48" x2="308.56" y2="333.35"/><line x1="64.64" y1="32.09" x2="32.16" y2="64.58"/><line x1="303.24" y1="231.67" x2="325.84" y2="224.27"/><line x1="275.18" y1="190.96" x2="283.93" y2="173.17"/><line x1="176.99" y1="347.83" x2="182.44" y2="350.62"/><line x1="160.49" y1="206.19" x2="140.70" y2="207.99"/><line x1="249.72" y1="170.17" x2="243.76" y2="172.61"/><line x1="184.65" y1="273.77" x2="175.61" y2="291.70"/><line x1="361.24" y1="313.49" x2="346.93" y2="299.23"/><line x1="274.22" y1="289.55" x2="271.40" y2="306.78"/><line x1="321.95" y1="283.92" x2="323.79" y2="280.22"/><line x1="187.34" y1="131.89" x2="197.71" y2="148.71"/><line x1="359.87" y1="254.41" x2="379.34" y2="247.61"/><line x1="283.93" y1="173.17" x2="280.50" y2="171.66"/><line x1="196.27" y1="171.85" x2="231.86" y2="233.69"/><line x1="232.80" y1="211.15" x2="231.98" y2="215.39"/><line x1="273.51" y1="362.55" x2="281.33" y2="361.40"/><line x1="175.61" y1="291.70" x2="187.04" y2="275.94"/><line x1="218.05" y1="282.69" x2="218.61" y2="280.42"/><line x1="352.12" y1="201.25" x2="367.28" y2="189.32"/><line x1="277.66" y1="136.60" x2="271.57" y2="135.42"/><line x1="323.79" y1="280.22" x2="302.43" y2="271.69"/><line x1="320.85" y1="212.03" x2="299.87" y2="221.66"/><line x1="197.71" y1="148.71" x2="180.77" y2="136.22"/><line x1="160.05" y1="220.58" x2="160.40" y2="225.11"/><line x1="231.98" y1="215.39" x2="231.49" y2="219.93"/><line x1="372.76" y1="289.81" x2="374.77" y2="283.30"/><line x1="218.61" y1="280.42" x2="218.80" y2="277.74"/><line x1="279.92" y1="308.50" x2="282.73" y2="308.62"/><line x1="321.97" y1="325.76" x2="327.94" y2="321.31"/><line x1="168.99" y1="146.15" x2="163.77" y2="151.74"/><line x1="166.43" y1="282.75" x2="170.88" y2="287.40"/><line x1="299.87" y1="221.66" x2="318.83" y2="208.15"/><line x1="193.97" y1="355.42" x2="202.36" y2="338.03"/><line x1="160.40" y1="225.11" x2="141.32" y2="229.18"/><line x1="268.25" y1="188.07" x2="270.03" y2="168.77"/><line x1="357.52" y1="170.84" x2="353.59" y2="164.94"/><line x1="282.73" y1="308.62" x2="281.93" y2="289.36"/><line x1="359.49" y1="232.32" x2="358.67" y2="225.85"/><line x1="162.91" y1="238.05" x2="164.22" y2="242.14"/><line x1="270.03" y1="168.77" x2="265.92" y2="187.53"/><line x1="303.26" y1="356.00" x2="310.04" y2="353.56"/><line x1="196.62" y1="282.92" x2="191.06" y2="302.16"/><line x1="233.63" y1="363.48" x2="239.10" y2="344.89"/><line x1="251.40" y1="115.02" x2="247.00" y2="134.04"/><line x1="327.92" y1="268.11" x2="305.34" y2="261.07"/><line x1="182.75" y1="160.55" x2="163.77" y2="151.74"/><line x1="196.27" y1="171.85" x2="232.80" y2="211.15"/><line x1="146.06" y1="248.36" x2="148.55" y2="254.62"/><line x1="234.72" y1="246.94" x2="236.22" y2="251.33"/><line x1="196.27" y1="171.85" x2="236.22" y2="251.33"/><line x1="240.99" y1="363.89" x2="243.67" y2="345.07"/><line x1="378.61" y1="262.51" x2="379.16" y2="255.17"/><line x1="288.28" y1="287.33" x2="290.28" y2="286.27"/><line x1="338.42" y1="311.13" x2="357.54" y2="318.74"/><line x1="154.71" y1="164.18" x2="150.91" y2="170.93"/><line x1="32.16" y1="32.09" x2="64.64" y2="32.09"/><line x1="311.70" y1="197.12" x2="293.76" y2="209.71"/><line x1="213.64" y1="341.25" x2="217.64" y2="342.16"/><line x1="342.92" y1="305.39" x2="361.24" y2="313.49"/><line x1="177.47" y1="325.58" x2="180.22" y2="327.42"/><line x1="329.48" y1="165.51" x2="325.20" y2="161.32"/><line x1="305.99" y1="252.08" x2="305.92" y2="248.68"/><line x1="171.25" y1="175.18" x2="168.94" y2="179.24"/><line x1="201.93" y1="146.25" x2="187.34" y2="131.89"/><line x1="257.41" y1="187.32" x2="249.72" y2="170.17"/><line x1="183.07" y1="329.18" x2="176.99" y2="347.83"/><line x1="328.60" y1="344.52" x2="334.19" y2="340.93"/><line x1="258.55" y1="282.85" x2="261.65" y2="284.96"/><line x1="339.71" y1="148.42" x2="334.34" y2="143.53"/><line x1="369.86" y1="195.74" x2="352.12" y2="201.25"/><line x1="225.40" y1="117.40" x2="225.82" y2="137.05"/><line x1="303.18" y1="187.24" x2="300.16" y2="184.35"/><line x1="154.80" y1="266.81" x2="158.39" y2="272.46"/><line x1="176.99" y1="347.83" x2="186.01" y2="330.86"/><line x1="267.55" y1="344.17" x2="273.51" y2="362.55"/><line x1="378.75" y1="234.88" x2="378.01" y2="228.45"/><line x1="294.05" y1="283.59" x2="295.77" y2="282.00"/><line x1="286.48" y1="118.97" x2="277.66" y2="136.60"/><line x1="32.00" y1="447.50" x2="64.49" y2="479.98"/><line x1="233.09" y1="180.39" x2="228.38" y2="185.74"/></g></svg>