<svg xmlns="http://www.w3.org/2000/svg" width="512" height="512"><rect width="512" height="512" fill="#0a0f1a"/><text x="12" y="20" font-family="monospace" font-size="11" fill="#4a7fa5">FRONT (XZ)</text><g stroke="#00d4ff" stroke-width="0.6" opacity="0.85"><line x1="239.35" y1="218.04" x2="230.22" y2="243.47"/><line x1="244.89" y1="249.21" x2="251.67" y2="220.93"/><line x1="315.60" y1="223.32" x2="318.13" y2="219.16"/><line x1="274.24" y1="121.21" x2="269.00" y2="120.25"/><line x1="253.91" y1="221.12" x2="256.07" y2="221.19"/><line x1="248.95" y1="151.01" x2="241.33" y2="121.41"/><line x1="235.64" y1="262.98" x2="205.41" y2="272.58"/><line x1="318.13" y1="219.16" x2="290.82" y2="200.95"/><line x1="266.02" y1="150.81" x2="263.23" y2="150.35"/><line x1="284.96" y1="160.88" x2="305.79" y2="138.24"/><line x1="220.07" y1="199.08" x2="220.29" y2="201.68"/><line x1="205.41" y1="272.58" x2="233.65" y2="258.81"/><line x1="256.07" y1="221.19" x2="255.42" y2="251.24"/><line x1="305.79" y1="138.24" x2="283.06" y2="159.06"/><line x1="198.47" y1="154.42" x2="195.71" y2="159.67"/><line x1="255.42" y1="251.24" x2="257.98" y2="251.50"/><line x1="292.07" y1="172.12" x2="291.01" y2="169.65"/><line x1="293.59" y1="193.64" x2="325.04" y2="201.05"/><line x1="226.07" y1="127.27" x2="238.58" y2="155.55"/><line x1="269.75" y1="345.26" x2="286.65" y2="319.33"/><line x1="229.11" y1="246.35" x2="195.00" y2="248.54"/><line x1="325.04" y1="201.05" x2="325.90" y2="196.20"/><line x1="189.53" y1="176.64" x2="188.21" y2="182.61"/><line x1="195.00" y1="248.54" x2="228.07" y2="242.23"/><line x1="267.96" y1="251.52" x2="272.78" y2="250.98"/><line x1="276.43" y1="154.51" x2="288.99" y2="126.45"/><line x1="272.78" y1="250.98" x2="268.80" y2="219.26"/><line x1="231.83" y1="160.99" x2="208.56" y2="140.71"/><line x1="249.16" y1="329.13" x2="268.15" y2="304.25"/><line x1="292.43" y1="197.38" x2="293.59" y2="193.64"/><line x1="326.41" y1="181.47" x2="325.89" y2="176.82"/><line x1="192.41" y1="240.51" x2="190.30" y2="232.56"/><line x1="188.65" y1="224.68" x2="190.30" y2="232.56"/><line x1="274.24" y1="121.21" x2="266.02" y2="150.81"/><line x1="224.87" y1="170.32" x2="223.51" y2="173.00"/><line x1="230.40" y1="309.69" x2="224.64" y2="302.59"/><line x1="190.30" y1="232.56" x2="223.85" y2="210.56"/><line x1="322.19" y1="163.09" x2="320.26" y2="158.58"/><line x1="263.58" y1="119.66" x2="258.01" y2="119.47"/><line x1="237.19" y1="246.71" x2="239.67" y2="247.63"/><line x1="258.01" y1="119.47" x2="252.29" y2="119.68"/><line x1="480.00" y1="32.02" x2="447.51" y2="32.02"/><line x1="198.47" y1="154.42" x2="223.51" y2="173.00"/><line x1="309.77" y1="230.87" x2="312.81" y2="227.22"/><line x1="254.52" y1="150.10" x2="251.70" y2="150.44"/><line x1="214.27" y1="287.90" x2="209.65" y2="280.32"/><line x1="286.20" y1="207.61" x2="288.74" y2="204.36"/><line x1="288.31" y1="164.98" x2="286.71" y2="162.85"/><line x1="272.54" y1="308.16" x2="249.16" y2="329.13"/><line x1="247.56" y1="249.88" x2="250.21" y2="250.43"/><line x1="312.47" y1="145.67" x2="309.27" y2="141.83"/><line x1="294.41" y1="182.80" x2="326.41" y2="181.47"/><line x1="246.27" y1="151.80" x2="243.64" y2="152.82"/><line x1="187.47" y1="216.87" x2="188.65" y2="224.68"/><line x1="320.38" y1="214.82" x2="322.28" y2="210.35"/><line x1="236.09" y1="122.93" x2="231.00" y2="124.88"/><line x1="268.74" y1="151.46" x2="274.24" y2="121.21"/><line x1="195.71" y1="159.67" x2="221.35" y2="208.92"/><line x1="201.54" y1="264.69" x2="230.38" y2="250.50"/><line x1="292.43" y1="197.38" x2="323.83" y2="205.77"/><line x1="276.37" y1="215.83" x2="290.89" y2="245.25"/><line x1="302.01" y1="134.90" x2="297.95" y2="131.81"/><line x1="226.39" y1="167.77" x2="224.87" y2="170.32"/><line x1="256.06" y1="292.08" x2="230.40" y2="309.69"/><line x1="260.50" y1="220.97" x2="263.00" y2="251.70"/><line x1="290.89" y1="245.25" x2="295.12" y2="242.92"/><line x1="281.01" y1="157.39" x2="278.80" y2="155.87"/><line x1="292.95" y1="174.67" x2="322.19" y2="163.09"/><line x1="221.30" y1="130.07" x2="216.76" y2="133.28"/><line x1="224.87" y1="170.32" x2="198.47" y2="154.42"/><line x1="192.41" y1="240.51" x2="231.50" y2="214.82"/><line x1="230.40" y1="309.69" x2="252.47" y2="287.97"/><line x1="244.51" y1="219.58" x2="237.19" y2="246.71"/><line x1="322.19" y1="163.09" x2="292.07" y2="172.12"/><line x1="236.19" y1="157.22" x2="233.94" y2="159.03"/><line x1="257.39" y1="149.98" x2="258.01" y2="119.47"/><line x1="237.19" y1="246.71" x2="246.98" y2="220.15"/><line x1="326.41" y1="191.24" x2="326.59" y2="186.15"/><line x1="306.48" y1="234.26" x2="309.77" y2="230.87"/><line x1="258.01" y1="119.47" x2="254.52" y2="150.10"/><line x1="195.71" y1="159.67" x2="219.91" y2="196.37"/><line x1="480.00" y1="32.02" x2="480.00" y2="64.50"/><line x1="234.10" y1="216.00" x2="231.50" y2="214.82"/><line x1="243.03" y1="275.54" x2="214.27" y2="287.90"/><line x1="309.77" y1="230.87" x2="286.20" y2="207.61"/><line x1="284.24" y1="124.31" x2="279.32" y2="122.57"/><line x1="315.37" y1="149.75" x2="288.31" y2="164.98"/><line x1="480.00" y1="479.91" x2="480.00" y2="447.42"/><line x1="220.20" y1="184.47" x2="219.88" y2="187.53"/><line x1="214.27" y1="287.90" x2="240.34" y2="271.35"/><line x1="251.67" y1="220.93" x2="247.56" y2="249.88"/><line x1="288.31" y1="164.98" x2="312.47" y2="145.67"/><line x1="241.33" y1="121.41" x2="246.27" y2="151.80"/><line x1="241.97" y1="218.87" x2="244.51" y2="219.58"/><line x1="233.65" y1="258.81" x2="231.90" y2="254.65"/><line x1="279.88" y1="213.48" x2="283.20" y2="210.69"/><line x1="247.56" y1="249.88" x2="253.91" y2="221.12"/><line x1="290.82" y1="200.95" x2="320.38" y2="214.82"/><line x1="246.27" y1="151.80" x2="236.09" y2="122.93"/><line x1="226.38" y1="212.09" x2="190.30" y2="232.56"/><line x1="447.51" y1="479.91" x2="480.00" y2="447.42"/><line x1="320.38" y1="214.82" x2="292.43" y2="197.38"/><line x1="195.71" y1="159.67" x2="220.72" y2="181.48"/><line x1="286.65" y1="319.33" x2="281.79" y2="315.70"/><line x1="220.58" y1="204.19" x2="220.93" y2="206.61"/><line x1="195.71" y1="159.67" x2="220.93" y2="206.61"/><line x1="201.54" y1="264.69" x2="231.90" y2="254.65"/><line x1="302.01" y1="134.90" x2="281.01" y2="157.39"/><line x1="262.68" y1="340.25" x2="255.82" y2="334.88"/><line x1="228.07" y1="242.23" x2="234.10" y2="216.00"/><line x1="260.50" y1="220.97" x2="260.51" y2="251.65"/><line x1="294.28" y1="189.73" x2="294.51" y2="185.66"/><line x1="221.30" y1="130.07" x2="236.19" y2="157.22"/><line x1="288.74" y1="204.36" x2="290.82" y2="200.95"/><line x1="273.94" y1="153.30" x2="271.39" y2="152.29"/><line x1="268.15" y1="304.25" x2="263.92" y2="300.23"/><line x1="229.87" y1="163.10" x2="228.06" y2="165.36"/><line x1="195.71" y1="159.67" x2="219.82" y2="193.57"/><line x1="242.70" y1="323.02" x2="236.45" y2="316.54"/><line x1="294.12" y1="180.01" x2="293.63" y2="177.30"/><line x1="204.90" y1="144.94" x2="201.54" y2="149.50"/><line x1="480.00" y1="479.91" x2="447.51" y2="479.91"/><line x1="230.22" y1="243.47" x2="232.46" y2="244.63"/><line x1="228.07" y1="242.23" x2="239.35" y2="218.04"/><line x1="325.00" y1="172.22" x2="323.77" y2="167.64"/><line x1="269.00" y1="120.25" x2="263.58" y2="119.66"/><line x1="233.65" y1="258.81" x2="201.54" y2="264.69"/><line x1="192.41" y1="240.51" x2="226.38" y2="212.09"/><line x1="279.88" y1="213.48" x2="302.94" y2="237.40"/><line x1="263.23" y1="150.35" x2="260.35" y2="150.08"/><line x1="283.06" y1="159.06" x2="302.01" y2="134.90"/><line x1="223.51" y1="173.00" x2="222.37" y2="175.74"/><line x1="224.64" y1="302.59" x2="219.27" y2="295.33"/><line x1="257.98" y1="251.50" x2="260.50" y2="220.97"/><line x1="320.26" y1="158.58" x2="317.98" y2="154.10"/><line x1="195.71" y1="159.67" x2="221.44" y2="178.57"/><line x1="286.65" y1="319.33" x2="262.68" y2="340.25"/><line x1="291.01" y1="169.65" x2="289.74" y2="167.25"/><line x1="325.90" y1="196.20" x2="294.28" y2="189.73"/><line x1="252.29" y1="119.68" x2="246.73" y2="120.33"/><line x1="209.65" y1="280.32" x2="205.41" y2="272.58"/><line x1="242.24" y1="248.46" x2="244.89" y2="249.21"/><line x1="228.07" y1="242.23" x2="192.41" y2="240.51"/><line x1="312.81" y1="227.22" x2="315.60" y2="223.32"/><line x1="294.28" y1="189.73" x2="326.41" y2="191.24"/><line x1="251.70" y1="150.44" x2="248.95" y2="151.01"/><line x1="187.28" y1="188.74" x2="186.72" y2="195.03"/><line x1="192.41" y1="240.51" x2="234.10" y2="216.00"/><line x1="288.74" y1="204.36" x2="318.13" y2="219.16"/><line x1="268.80" y1="219.26" x2="277.49" y2="250.09"/><line x1="273.94" y1="153.30" x2="284.24" y2="124.31"/><line x1="291.68" y1="322.87" x2="269.75" y2="345.26"/><line x1="268.15" y1="304.25" x2="242.70" y2="323.02"/><line x1="277.49" y1="250.09" x2="282.08" y2="248.84"/><line x1="309.27" y1="141.83" x2="305.79" y2="138.24"/><line x1="325.89" y1="176.82" x2="294.12" y2="180.01"/><line x1="221.35" y1="208.92" x2="189.53" y2="176.64"/><line x1="229.87" y1="163.10" x2="204.90" y2="144.94"/><line x1="221.35" y1="208.92" x2="223.85" y2="210.56"/><line x1="242.70" y1="323.02" x2="263.92" y2="300.23"/><line x1="252.83" y1="250.89" x2="255.42" y2="251.24"/><line x1="294.12" y1="180.01" x2="325.00" y2="172.22"/><line x1="231.00" y1="124.88" x2="226.07" y2="127.27"/><line x1="230.22" y1="243.47" x2="241.97" y2="218.87"/><line x1="238.58" y1="155.55" x2="221.30" y2="130.07"/><line x1="295.12" y1="242.92" x2="279.88" y2="213.48"/><line x1="269.00" y1="120.25" x2="263.23" y2="150.35"/><line x1="255.82" y1="334.88" x2="249.16" y2="329.13"/><line x1="252.47" y1="287.97" x2="224.64" y2="302.59"/><line x1="264.74" y1="220.33" x2="268.80" y2="219.26"/><line x1="246.98" y1="220.15" x2="242.24" y2="248.46"/><line x1="279.88" y1="213.48" x2="299.16" y2="240.28"/><line x1="188.21" y1="182.61" x2="187.28" y2="188.74"/><line x1="223.51" y1="173.00" x2="195.71" y2="159.67"/><line x1="236.72" y1="217.08" x2="239.35" y2="218.04"/><line x1="224.64" y1="302.59" x2="249.10" y2="283.85"/><line x1="288.99" y1="126.45" x2="273.94" y2="153.30"/><line x1="320.26" y1="158.58" x2="291.01" y2="169.65"/><line x1="221.35" y1="208.92" x2="186.53" y2="201.48"/><line x1="240.34" y1="271.35" x2="237.87" y2="267.16"/><line x1="239.67" y1="247.63" x2="242.24" y2="248.46"/><line x1="208.56" y1="140.71" x2="229.87" y2="163.10"/><line x1="252.29" y1="119.68" x2="251.70" y2="150.44"/><line x1="236.45" y1="316.54" x2="230.40" y2="309.69"/><line x1="209.65" y1="280.32" x2="235.64" y2="262.98"/><line x1="253.91" y1="221.12" x2="252.83" y2="250.89"/><line x1="312.81" y1="227.22" x2="288.74" y2="204.36"/><line x1="286.71" y1="162.85" x2="284.96" y2="160.88"/><line x1="201.54" y1="149.50" x2="198.47" y2="154.42"/><line x1="219.78" y1="190.67" x2="219.82" y2="193.57"/><line x1="266.02" y1="150.81" x2="269.00" y2="120.25"/><line x1="243.64" y1="152.82" x2="241.08" y2="154.07"/><line x1="291.68" y1="322.87" x2="296.85" y2="326.31"/><line x1="221.35" y1="208.92" x2="191.21" y2="170.82"/><line x1="292.07" y1="172.12" x2="320.26" y2="158.58"/><line x1="230.38" y1="250.50" x2="229.11" y2="246.35"/><line x1="221.35" y1="208.92" x2="190.30" y2="232.56"/><line x1="283.20" y1="210.69" x2="286.20" y2="207.61"/><line x1="297.95" y1="131.81" x2="293.59" y2="128.97"/><line x1="281.79" y1="315.70" x2="277.08" y2="311.98"/><line x1="263.00" y1="251.70" x2="267.96" y2="251.52"/><line x1="216.76" y1="133.28" x2="212.51" y2="136.82"/><line x1="255.82" y1="334.88" x2="272.54" y2="308.16"/><line x1="246.98" y1="220.15" x2="239.67" y2="247.63"/><line x1="294.51" y1="185.66" x2="294.41" y2="182.80"/><line x1="233.94" y1="159.03" x2="231.83" y2="160.99"/><line x1="480.00" y1="64.50" x2="447.51" y2="32.02"/><line x1="271.39" y1="152.29" x2="268.74" y2="151.46"/><line x1="221.35" y1="208.92" x2="186.72" y2="195.03"/><line x1="240.34" y1="271.35" x2="209.65" y2="280.32"/><line x1="272.68" y1="217.75" x2="276.37" y2="215.83"/><line x1="228.06" y1="165.36" x2="226.39" y2="167.77"/><line x1="236.45" y1="316.54" x2="256.06" y2="292.08"/><line x1="253.91" y1="221.12" x2="250.21" y2="250.43"/><line x1="293.63" y1="177.30" x2="292.95" y2="174.67"/><line x1="286.71" y1="162.85" x2="309.27" y2="141.83"/><line x1="201.54" y1="149.50" x2="224.87" y2="170.32"/><line x1="263.58" y1="119.66" x2="257.39" y2="149.98"/><line x1="243.64" y1="152.82" x2="231.00" y2="124.88"/><line x1="219.27" y1="295.33" x2="214.27" y2="287.90"/><line x1="231.90" y1="254.65" x2="230.38" y2="250.50"/><line x1="221.35" y1="208.92" x2="193.27" y2="165.16"/><line x1="254.52" y1="150.10" x2="252.29" y2="119.68"/><line x1="297.95" y1="131.81" x2="278.80" y2="155.87"/><line x1="286.20" y1="207.61" x2="312.81" y2="227.22"/><line x1="281.79" y1="315.70" x2="255.82" y2="334.88"/><line x1="219.88" y1="187.53" x2="219.78" y2="190.67"/><line x1="289.74" y1="167.25" x2="288.31" y2="164.98"/><line x1="216.76" y1="133.28" x2="233.94" y2="159.03"/><line x1="312.47" y1="145.67" x2="286.71" y2="162.85"/><line x1="294.51" y1="185.66" x2="326.59" y2="186.15"/><line x1="263.92" y1="300.23" x2="259.88" y2="296.17"/><line x1="186.53" y1="201.48" x2="186.76" y2="209.14"/><line x1="256.07" y1="221.19" x2="260.50" y2="220.97"/><line x1="236.09" y1="122.93" x2="243.64" y2="152.82"/><line x1="271.39" y1="152.29" x2="279.32" y2="122.57"/><line x1="292.43" y1="197.38" x2="322.28" y2="210.35"/><line x1="293.59" y1="193.64" x2="294.28" y2="189.73"/><line x1="272.68" y1="217.75" x2="286.54" y2="247.22"/><line x1="220.93" y1="206.61" x2="221.35" y2="208.92"/><line x1="228.06" y1="165.36" x2="201.54" y2="149.50"/><line x1="281.01" y1="157.39" x2="297.95" y2="131.81"/><line x1="293.63" y1="177.30" x2="323.77" y2="167.64"/><line x1="260.51" y1="251.65" x2="263.00" y2="251.70"/><line x1="32.16" y1="32.09" x2="32.16" y2="64.58"/><line x1="236.19" y1="157.22" x2="216.76" y2="133.28"/><line x1="302.94" y1="237.40" x2="306.48" y2="234.26"/><line x1="263.58" y1="119.66" x2="260.35" y2="150.08"/><line x1="326.41" y1="191.24" x2="294.51" y2="185.66"/><line x1="219.27" y1="295.33" x2="243.03" y2="275.54"/><line x1="186.72" y1="195.03" x2="186.53" y2="201.48"/><line x1="317.98" y1="154.10" x2="315.37" y2="149.75"/><line x1="234.10" y1="216.00" x2="236.72" y2="217.08"/><line x1="282.08" y1="248.84" x2="286.54" y2="247.22"/><line x1="284.24" y1="124.31" x2="271.39" y2="152.29"/><line x1="249.36" y1="220.61" x2="251.67" y2="220.93"/><line x1="246.73" y1="120.33" x2="241.33" y2="121.41"/><line x1="239.35" y1="218.04" x2="241.97" y2="218.87"/><line x1="241.97" y1="218.87" x2="234.78" y2="245.71"/><line x1="235.64" y1="262.98" x2="233.65" y2="258.81"/><line x1="284.96" y1="160.88" x2="283.06" y2="159.06"/><line x1="263.92" y1="300.23" x2="236.45" y2="316.54"/><line x1="256.07" y1="221.19" x2="257.98" y2="251.50"/><line x1="249.10" y1="283.85" x2="245.95" y2="279.70"/><line x1="195.71" y1="159.67" x2="220.58" y2="204.19"/><line x1="241.08" y1="154.07" x2="238.58" y2="155.55"/><line x1="293.59" y1="193.64" x2="325.90" y2="196.20"/><line x1="262.68" y1="340.25" x2="281.79" y2="315.70"/><line x1="229.11" y1="246.35" x2="228.07" y2="242.23"/><line x1="32.00" y1="479.98" x2="64.49" y2="479.98"/><line x1="293.59" y1="128.97" x2="288.99" y2="126.45"/><line x1="294.41" y1="182.80" x2="294.12" y2="180.01"/><line x1="212.51" y1="136.82" x2="208.56" y2="140.71"/><line x1="195.71" y1="159.67" x2="219.78" y2="190.67"/><line x1="282.08" y1="248.84" x2="272.68" y2="217.75"/><line x1="276.37" y1="215.83" x2="279.88" y2="213.48"/><line x1="204.90" y1="144.94" x2="228.06" y2="165.36"/><line x1="325.00" y1="172.22" x2="293.63" y2="177.30"/><line x1="241.97" y1="218.87" x2="232.46" y2="244.63"/><line x1="219.91" y1="196.37" x2="220.07" y2="199.08"/><line x1="263.23" y1="150.35" x2="263.58" y2="119.66"/><line x1="299.16" y1="240.28" x2="302.94" y2="237.40"/><line x1="195.71" y1="159.67" x2="222.37" y2="175.74"/><line x1="249.10" y1="283.85" x2="219.27" y2="295.33"/><line x1="195.71" y1="159.67" x2="220.29" y2="201.68"/><line x1="241.08" y1="154.07" x2="226.07" y2="127.27"/><line x1="291.01" y1="169.65" x2="317.98" y2="154.10"/><line x1="242.24" y1="248.46" x2="249.36" y2="220.61"/><line x1="191.21" y1="170.82" x2="189.53" y2="176.64"/><line x1="251.70" y1="150.44" x2="246.73" y2="120.33"/><line x1="32.00" y1="479.98" x2="32.00" y2="447.50"/><line x1="293.59" y1="128.97" x2="276.43" y2="154.51"/><line x1="288.74" y1="204.36" x2="315.60" y2="223.32"/><line x1="272.54" y1="308.16" x2="268.15" y2="304.25"/><line x1="219.82" y1="193.57" x2="219.91" y2="196.37"/><line x1="294.41" y1="182.80" x2="325.89" y2="176.82"/><line x1="237.87" y1="267.16" x2="235.64" y2="262.98"/><line x1="212.51" y1="136.82" x2="231.83" y2="160.99"/><line x1="309.27" y1="141.83" x2="284.96" y2="160.88"/><line x1="228.93" y1="213.52" x2="226.38" y2="212.09"/><line x1="277.02" y1="349.90" x2="269.75" y2="345.26"/><line x1="195.71" y1="159.67" x2="219.88" y2="187.53"/><line x1="268.74" y1="151.46" x2="266.02" y2="150.81"/><line x1="252.83" y1="250.89" x2="256.07" y2="221.19"/><line x1="195.71" y1="159.67" x2="193.27" y2="165.16"/><line x1="323.83" y1="205.77" x2="325.04" y2="201.05"/><line x1="201.54" y1="264.69" x2="198.06" y2="256.64"/><line x1="231.00" y1="124.88" x2="241.08" y2="154.07"/><line x1="276.37" y1="215.83" x2="295.12" y2="242.92"/><line x1="198.06" y1="256.64" x2="195.00" y2="248.54"/><line x1="256.06" y1="292.08" x2="252.47" y2="287.97"/><line x1="278.80" y1="155.87" x2="276.43" y2="154.51"/><line x1="260.50" y1="220.97" x2="264.74" y2="220.33"/><line x1="193.27" y1="165.16" x2="191.21" y2="170.82"/><line x1="292.95" y1="174.67" x2="292.07" y2="172.12"/><line x1="264.74" y1="220.33" x2="272.78" y2="250.98"/><line x1="192.41" y1="240.51" x2="228.93" y2="213.52"/><line x1="244.51" y1="219.58" x2="246.98" y2="220.15"/><line x1="257.39" y1="149.98" x2="254.52" y2="150.10"/><line x1="326.59" y1="186.15" x2="326.41" y2="181.47"/><line x1="195.71" y1="159.67" x2="220.07" y2="199.08"/><line x1="243.03" y1="275.54" x2="240.34" y2="271.35"/><line x1="279.32" y1="122.57" x2="274.24" y2="121.21"/><line x1="315.37" y1="149.75" x2="312.47" y2="145.67"/><line x1="209.65" y1="280.32" x2="237.87" y2="267.16"/><line x1="286.54" y1="247.22" x2="290.89" y2="245.25"/><line x1="228.07" y1="242.23" x2="230.22" y2="243.47"/><line x1="251.67" y1="220.93" x2="253.91" y2="221.12"/><line x1="241.33" y1="121.41" x2="236.09" y2="122.93"/><line x1="250.21" y1="250.43" x2="252.83" y2="250.89"/><line x1="323.77" y1="167.64" x2="322.19" y2="163.09"/><line x1="290.82" y1="200.95" x2="292.43" y2="197.38"/><line x1="291.68" y1="322.87" x2="277.02" y2="349.90"/><line x1="234.78" y1="245.71" x2="237.19" y2="246.71"/><line x1="226.38" y1="212.09" x2="223.85" y2="210.56"/><line x1="322.28" y1="210.35" x2="323.83" y2="205.77"/><line x1="277.02" y1="349.90" x2="296.85" y2="326.31"/><line x1="230.38" y1="250.50" x2="198.06" y2="256.64"/><line x1="195.71" y1="159.67" x2="220.20" y2="184.47"/><line x1="283.20" y1="210.69" x2="309.77" y2="230.87"/><line x1="221.35" y1="208.92" x2="188.65" y2="224.68"/><line x1="323.83" y1="205.77" x2="293.59" y2="193.64"/><line x1="198.06" y1="256.64" x2="229.11" y2="246.35"/><line x1="263.00" y1="251.70" x2="264.74" y2="220.33"/><line x1="228.07" y1="242.23" x2="236.72" y2="217.08"/><line x1="278.80" y1="155.87" x2="293.59" y2="128.97"/><line x1="255.82" y1="334.88" x2="277.08" y2="311.98"/><line x1="264.74" y1="220.33" x2="267.96" y2="251.52"/><line x1="268.80" y1="219.26" x2="272.68" y2="217.75"/><line x1="233.94" y1="159.03" x2="212.51" y2="136.82"/><line x1="277.08" y1="311.98" x2="272.54" y2="308.16"/><line x1="326.59" y1="186.15" x2="294.41" y2="182.80"/><line x1="186.76" y1="209.14" x2="187.47" y2="216.87"/><line x1="221.35" y1="208.92" x2="187.28" y2="188.74"/><line x1="231.50" y1="214.82" x2="228.93" y2="213.52"/><line x1="279.32" y1="122.57" x2="268.74" y2="151.46"/><line x1="236.45" y1="316.54" x2="259.88" y2="296.17"/><line x1="286.54" y1="247.22" x2="276.37" y2="215.83"/><line x1="201.54" y1="149.50" x2="226.39" y2="167.77"/><line x1="259.88" y1="296.17" x2="256.06" y2="292.08"/><line x1="323.77" y1="167.64" x2="292.95" y2="174.67"/><line x1="283.06" y1="159.06" x2="281.01" y2="157.39"/><line x1="234.78" y1="245.71" x2="244.51" y2="219.58"/><line x1="260.35" y1="150.08" x2="257.39" y2="149.98"/><line x1="257.98" y1="251.50" x2="260.51" y2="251.65"/><line x1="64.64" y1="32.09" x2="32.16" y2="64.58"/><line x1="221.35" y1="208.92" x2="187.47" y2="216.87"/><line x1="283.20" y1="210.69" x2="306.48" y2="234.26"/><line x1="221.44" y1="178.57" x2="220.72" y2="181.48"/><line x1="325.90" y1="196.20" x2="326.41" y2="191.24"/><line x1="244.89" y1="249.21" x2="247.56" y2="249.88"/><line x1="289.74" y1="167.25" x2="315.37" y2="149.75"/><line x1="248.95" y1="151.01" x2="246.27" y2="151.80"/><line x1="220.72" y1="181.48" x2="220.20" y2="184.47"/><line x1="318.13" y1="219.16" x2="320.38" y2="214.82"/><line x1="268.80" y1="219.26" x2="282.08" y2="248.84"/><line x1="205.41" y1="272.58" x2="201.54" y2="264.69"/><line x1="291.68" y1="322.87" x2="286.65" y2="319.33"/><line x1="305.79" y1="138.24" x2="302.01" y2="134.90"/><line x1="325.89" y1="176.82" x2="325.00" y2="172.22"/><line x1="221.35" y1="208.92" x2="188.21" y2="182.61"/><line x1="226.07" y1="127.27" x2="221.30" y2="130.07"/><line x1="269.75" y1="345.26" x2="262.68" y2="340.25"/><line x1="220.29" y1="201.68" x2="220.58" y2="204.19"/><line x1="232.46" y1="244.63" x2="234.78" y2="245.71"/><line x1="238.58" y1="155.55" x2="236.19" y2="157.22"/><line x1="295.12" y1="242.92" x2="299.16" y2="240.28"/><line x1="32.16" y1="32.09" x2="64.64" y2="32.09"/><line x1="195.00" y1="248.54" x2="192.41" y2="240.51"/><line x1="302.94" y1="237.40" x2="283.20" y2="210.69"/><line x1="252.47" y1="287.97" x2="249.10" y2="283.85"/><line x1="276.43" y1="154.51" x2="273.94" y2="153.30"/><line x1="246.98" y1="220.15" x2="249.36" y2="220.61"/><line x1="222.37" y1="175.74" x2="221.44" y2="178.57"/><line x1="219.27" y1="295.33" x2="245.95" y2="279.70"/><line x1="272.78" y1="250.98" x2="277.49" y2="250.09"/><line x1="288.99" y1="126.45" x2="284.24" y2="124.31"/><line x1="317.98" y1="154.10" x2="289.74" y2="167.25"/><line x1="231.83" y1="160.99" x2="229.87" y2="163.10"/><line x1="249.16" y1="329.13" x2="242.70" y2="323.02"/><line x1="245.95" y1="279.70" x2="243.03" y2="275.54"/><line x1="249.36" y1="220.61" x2="244.89" y2="249.21"/><line x1="221.35" y1="208.92" x2="186.76" y2="209.14"/><line x1="208.56" y1="140.71" x2="204.90" y2="144.94"/><line x1="246.73" y1="120.33" x2="248.95" y2="151.01"/><line x1="32.00" y1="447.50" x2="64.49" y2="479.98"/></g></svg>