<svg xmlns="http://www.w3.org/2000/svg" width="512" height="512"><rect width="512" height="512" fill="#0a0f1a"/><text x="12" y="20" font-family="monospace" font-size="11" fill="#4a7fa5">FRONT (XZ)</text><g stroke="#00d4ff" stroke-width="0.6" opacity="0.85"><line x1="107.51" y1="274.71" x2="122.91" y2="293.22"/><line x1="240.63" y1="198.01" x2="185.79" y2="191.55"/><line x1="270.82" y1="208.75" x2="269.18" y2="202.13"/><line x1="345.73" y1="208.54" x2="326.85" y2="258.33"/><line x1="272.46" y1="283.00" x2="236.26" y2="290.35"/><line x1="135.77" y1="282.76" x2="190.44" y2="252.58"/><line x1="243.50" y1="315.54" x2="246.29" y2="335.06"/><line x1="270.82" y1="208.75" x2="275.07" y2="190.91"/><line x1="102.06" y1="318.58" x2="85.32" y2="319.29"/><line x1="237.10" y1="204.75" x2="192.08" y2="193.02"/><line x1="146.53" y1="231.12" x2="131.17" y2="202.27"/><line x1="216.36" y1="247.61" x2="244.65" y2="244.61"/><line x1="289.93" y1="243.15" x2="284.10" y2="241.93"/><line x1="245.47" y1="190.38" x2="199.31" y2="156.98"/><line x1="228.96" y1="221.96" x2="250.18" y2="236.08"/><line x1="107.46" y1="312.52" x2="112.81" y2="306.20"/><line x1="54.10" y1="300.92" x2="66.94" y2="319.71"/><line x1="154.26" y1="231.99" x2="146.35" y2="188.31"/><line x1="244.65" y1="244.61" x2="227.46" y2="261.93"/><line x1="326.85" y1="258.33" x2="354.62" y2="212.00"/><line x1="154.26" y1="231.99" x2="160.88" y2="234.02"/><line x1="375.65" y1="352.96" x2="381.80" y2="357.93"/><line x1="186.70" y1="315.67" x2="183.99" y2="306.53"/><line x1="111.89" y1="229.07" x2="107.92" y2="233.25"/><line x1="368.17" y1="265.25" x2="372.84" y2="256.01"/><line x1="440.30" y1="255.20" x2="445.33" y2="259.98"/><line x1="280.71" y1="203.78" x2="270.82" y2="208.75"/><line x1="199.31" y1="156.98" x2="202.92" y2="151.12"/><line x1="302.34" y1="197.58" x2="285.22" y2="173.31"/><line x1="195.67" y1="254.55" x2="201.13" y2="257.06"/><line x1="232.42" y1="214.95" x2="244.19" y2="216.35"/><line x1="156.80" y1="329.30" x2="160.95" y2="342.79"/><line x1="381.80" y1="357.93" x2="417.05" y2="308.79"/><line x1="146.35" y1="188.31" x2="151.50" y2="188.23"/><line x1="311.61" y1="146.77" x2="349.74" y2="142.51"/><line x1="225.05" y1="230.26" x2="253.55" y2="218.20"/><line x1="79.36" y1="276.59" x2="72.21" y2="278.49"/><line x1="135.77" y1="282.76" x2="140.72" y2="286.08"/><line x1="285.22" y1="173.31" x2="289.28" y2="166.81"/><line x1="362.78" y1="214.57" x2="370.55" y2="216.77"/><line x1="336.00" y1="320.90" x2="333.39" y2="325.06"/><line x1="255.14" y1="301.08" x2="260.12" y2="295.41"/><line x1="175.94" y1="207.31" x2="173.64" y2="214.82"/><line x1="378.24" y1="219.12" x2="377.44" y2="246.11"/><line x1="360.49" y1="277.79" x2="367.31" y2="280.89"/><line x1="207.09" y1="260.75" x2="159.45" y2="298.52"/><line x1="156.80" y1="329.30" x2="150.19" y2="342.33"/><line x1="280.17" y1="292.24" x2="291.14" y2="297.21"/><line x1="162.33" y1="323.04" x2="178.33" y2="328.92"/><line x1="151.50" y1="188.23" x2="157.35" y2="188.36"/><line x1="275.07" y1="190.91" x2="269.18" y2="202.13"/><line x1="244.19" y1="216.35" x2="228.96" y2="221.96"/><line x1="79.36" y1="276.59" x2="88.08" y2="275.27"/><line x1="247.39" y1="240.41" x2="244.65" y2="244.61"/><line x1="368.17" y1="265.25" x2="372.84" y2="256.01"/><line x1="261.72" y1="241.63" x2="281.16" y2="271.05"/><line x1="232.27" y1="331.64" x2="237.64" y2="323.56"/><line x1="329.87" y1="184.91" x2="291.55" y2="200.07"/><line x1="444.38" y1="179.84" x2="406.01" y2="231.32"/><line x1="349.74" y1="142.51" x2="339.93" y2="169.72"/><line x1="228.96" y1="221.96" x2="246.31" y2="217.10"/><line x1="199.21" y1="195.32" x2="192.08" y2="193.02"/><line x1="303.14" y1="151.64" x2="334.40" y2="177.60"/><line x1="88.08" y1="275.27" x2="97.69" y2="274.61"/><line x1="150.73" y1="335.67" x2="156.80" y2="329.30"/><line x1="209.49" y1="260.50" x2="211.75" y2="255.09"/><line x1="244.65" y1="244.61" x2="253.27" y2="242.78"/><line x1="321.62" y1="346.49" x2="274.14" y2="352.85"/><line x1="291.88" y1="365.60" x2="308.31" y2="365.34"/><line x1="237.64" y1="323.56" x2="243.50" y2="315.54"/><line x1="125.12" y1="277.57" x2="66.63" y2="285.27"/><line x1="228.96" y1="221.96" x2="244.19" y2="216.35"/><line x1="36.40" y1="322.13" x2="32.00" y2="326.61"/><line x1="192.08" y1="193.02" x2="240.63" y2="198.01"/><line x1="334.40" y1="177.60" x2="311.61" y2="146.77"/><line x1="211.07" y1="295.01" x2="200.96" y2="298.32"/><line x1="211.75" y1="255.09" x2="211.97" y2="260.32"/><line x1="284.10" y1="241.93" x2="290.86" y2="251.93"/><line x1="223.28" y1="292.34" x2="272.46" y2="283.00"/><line x1="181.45" y1="306.81" x2="170.87" y2="312.00"/><line x1="216.36" y1="247.61" x2="223.78" y2="261.15"/><line x1="311.61" y1="146.77" x2="294.83" y2="158.10"/><line x1="173.64" y1="214.82" x2="175.94" y2="207.31"/><line x1="170.87" y1="312.00" x2="167.10" y2="317.17"/><line x1="248.66" y1="289.10" x2="236.26" y2="290.35"/><line x1="250.18" y1="236.08" x2="252.98" y2="231.69"/><line x1="225.05" y1="230.26" x2="248.10" y2="217.47"/><line x1="112.81" y1="306.20" x2="107.51" y2="274.71"/><line x1="168.65" y1="230.36" x2="154.26" y2="231.99"/><line x1="290.86" y1="251.93" x2="289.93" y2="243.15"/><line x1="280.17" y1="292.24" x2="260.12" y2="295.41"/><line x1="323.80" y1="321.33" x2="333.39" y2="325.06"/><line x1="116.58" y1="223.47" x2="111.89" y2="229.07"/><line x1="92.05" y1="320.99" x2="102.06" y2="318.58"/><line x1="356.45" y1="286.79" x2="367.31" y2="280.89"/><line x1="255.88" y1="155.32" x2="246.98" y2="152.06"/><line x1="247.39" y1="240.41" x2="225.05" y2="230.26"/><line x1="173.43" y1="307.81" x2="170.87" y2="312.00"/><line x1="251.13" y1="182.42" x2="257.11" y2="174.74"/><line x1="329.57" y1="141.67" x2="339.31" y2="141.37"/><line x1="374.48" y1="284.52" x2="382.07" y2="288.61"/><line x1="323.80" y1="321.33" x2="315.63" y2="316.00"/><line x1="107.51" y1="274.71" x2="118.00" y2="299.73"/><line x1="223.78" y1="261.15" x2="244.65" y2="244.61"/><line x1="179.44" y1="194.97" x2="177.92" y2="200.54"/><line x1="337.85" y1="264.25" x2="326.85" y2="258.33"/><line x1="308.31" y1="365.34" x2="303.81" y2="370.63"/><line x1="260.12" y1="295.41" x2="263.98" y2="291.27"/><line x1="270.82" y1="208.75" x2="280.45" y2="181.33"/><line x1="349.74" y1="142.51" x2="339.31" y2="141.37"/><line x1="185.68" y1="181.22" x2="190.64" y2="172.18"/><line x1="102.06" y1="318.58" x2="96.69" y2="324.28"/><line x1="66.63" y1="285.27" x2="44.18" y2="323.77"/><line x1="246.98" y1="152.06" x2="251.13" y2="182.42"/><line x1="237.10" y1="204.75" x2="199.21" y2="195.32"/><line x1="266.36" y1="289.03" x2="259.14" y2="288.64"/><line x1="257.11" y1="174.74" x2="262.92" y2="167.91"/><line x1="107.46" y1="312.52" x2="125.12" y2="277.57"/><line x1="244.65" y1="244.61" x2="220.83" y2="239.07"/><line x1="153.62" y1="342.59" x2="156.80" y2="329.30"/><line x1="480.00" y1="202.00" x2="465.96" y2="192.97"/><line x1="125.12" y1="277.57" x2="118.00" y2="299.73"/><line x1="256.89" y1="218.18" x2="225.05" y2="230.26"/><line x1="251.13" y1="182.42" x2="237.11" y2="149.17"/><line x1="128.42" y1="231.65" x2="118.39" y2="232.47"/><line x1="381.52" y1="236.51" x2="384.59" y2="228.19"/><line x1="181.45" y1="306.81" x2="183.99" y2="306.53"/><line x1="185.16" y1="250.52" x2="190.44" y2="252.58"/><line x1="334.40" y1="177.60" x2="339.93" y2="169.72"/><line x1="156.80" y1="329.30" x2="157.24" y2="342.77"/><line x1="429.58" y1="171.94" x2="423.99" y2="169.42"/><line x1="317.28" y1="353.18" x2="323.80" y2="321.33"/><line x1="116.58" y1="223.47" x2="121.60" y2="216.85"/><line x1="160.95" y1="342.79" x2="164.65" y2="342.59"/><line x1="425.15" y1="243.41" x2="415.86" y2="237.20"/><line x1="36.40" y1="322.13" x2="41.75" y2="316.03"/><line x1="225.05" y1="230.26" x2="255.15" y2="218.31"/><line x1="250.18" y1="236.08" x2="247.39" y2="240.41"/><line x1="135.77" y1="282.76" x2="173.33" y2="243.61"/><line x1="362.78" y1="214.57" x2="381.52" y2="236.51"/><line x1="255.14" y1="301.08" x2="280.17" y2="292.24"/><line x1="378.24" y1="219.12" x2="372.84" y2="256.01"/><line x1="360.49" y1="277.79" x2="356.45" y2="286.79"/><line x1="244.65" y1="244.61" x2="277.32" y2="241.24"/><line x1="164.03" y1="188.80" x2="171.66" y2="189.66"/><line x1="262.92" y1="167.91" x2="257.11" y2="174.74"/><line x1="225.25" y1="205.78" x2="237.10" y2="204.75"/><line x1="112.81" y1="306.20" x2="118.00" y2="299.73"/><line x1="280.17" y1="292.24" x2="300.15" y2="303.28"/><line x1="356.45" y1="286.79" x2="407.54" y2="303.27"/><line x1="312.09" y1="196.24" x2="326.51" y2="191.41"/><line x1="374.48" y1="284.52" x2="339.40" y2="315.76"/><line x1="307.56" y1="249.16" x2="316.62" y2="253.23"/><line x1="185.16" y1="250.52" x2="166.78" y2="302.17"/><line x1="147.07" y1="342.06" x2="150.19" y2="342.33"/><line x1="236.26" y1="290.35" x2="223.20" y2="266.69"/><line x1="217.17" y1="144.87" x2="208.45" y2="143.67"/><line x1="292.51" y1="161.76" x2="349.74" y2="142.51"/><line x1="220.45" y1="260.64" x2="223.78" y2="261.15"/><line x1="66.63" y1="285.27" x2="107.51" y2="274.71"/><line x1="329.87" y1="184.91" x2="280.71" y2="203.78"/><line x1="171.16" y1="222.65" x2="173.64" y2="214.82"/><line x1="349.74" y1="142.51" x2="346.31" y2="161.51"/><line x1="280.71" y1="203.78" x2="291.55" y2="200.07"/><line x1="150.73" y1="335.67" x2="153.62" y2="342.59"/><line x1="209.05" y1="283.26" x2="204.11" y2="289.38"/><line x1="398.55" y1="298.03" x2="407.54" y2="303.27"/><line x1="384.59" y1="228.19" x2="386.19" y2="222.14"/><line x1="152.63" y1="294.35" x2="159.45" y2="298.52"/><line x1="174.42" y1="334.56" x2="178.33" y2="328.92"/><line x1="134.97" y1="195.15" x2="131.17" y2="202.27"/><line x1="480.00" y1="202.00" x2="433.43" y2="249.54"/><line x1="291.88" y1="365.60" x2="282.35" y2="359.49"/><line x1="134.97" y1="195.15" x2="141.75" y2="188.50"/><line x1="436.28" y1="175.34" x2="429.58" y2="171.94"/><line x1="125.12" y1="277.57" x2="55.94" y2="321.40"/><line x1="60.49" y1="292.91" x2="66.63" y2="285.27"/><line x1="250.18" y1="236.08" x2="247.39" y2="240.41"/><line x1="228.96" y1="221.96" x2="246.31" y2="217.10"/><line x1="337.85" y1="264.25" x2="349.20" y2="270.81"/><line x1="180.36" y1="191.02" x2="171.66" y2="189.66"/><line x1="307.56" y1="249.16" x2="300.10" y2="246.31"/><line x1="211.07" y1="295.01" x2="199.18" y2="295.71"/><line x1="386.19" y1="222.14" x2="436.28" y2="175.34"/><line x1="354.62" y1="212.00" x2="345.73" y2="208.54"/><line x1="312.82" y1="359.50" x2="308.31" y2="365.34"/><line x1="465.96" y1="192.97" x2="425.15" y2="243.41"/><line x1="429.58" y1="171.94" x2="423.99" y2="169.42"/><line x1="205.98" y1="146.64" x2="226.95" y2="146.73"/><line x1="76.85" y1="318.93" x2="85.32" y2="319.29"/><line x1="225.05" y1="230.26" x2="249.60" y2="217.63"/><line x1="362.78" y1="214.57" x2="363.90" y2="272.83"/><line x1="320.38" y1="143.46" x2="329.57" y2="141.67"/><line x1="185.79" y1="191.55" x2="195.20" y2="164.05"/><line x1="333.39" y1="325.06" x2="329.73" y2="332.34"/><line x1="190.71" y1="308.78" x2="191.18" y2="303.33"/><line x1="378.24" y1="219.12" x2="386.19" y2="222.14"/><line x1="153.62" y1="342.59" x2="157.24" y2="342.77"/><line x1="44.18" y1="323.77" x2="54.10" y2="300.92"/><line x1="185.79" y1="191.55" x2="185.68" y2="181.22"/><line x1="225.25" y1="205.78" x2="215.82" y2="201.84"/><line x1="312.09" y1="196.24" x2="329.87" y2="184.91"/><line x1="255.88" y1="155.32" x2="205.98" y2="146.64"/><line x1="356.45" y1="286.79" x2="374.48" y2="284.52"/><line x1="173.43" y1="307.81" x2="181.45" y2="306.81"/><line x1="329.57" y1="141.67" x2="346.31" y2="161.51"/><line x1="374.48" y1="284.52" x2="350.67" y2="334.75"/><line x1="323.80" y1="321.33" x2="325.79" y2="339.51"/><line x1="343.36" y1="309.71" x2="339.40" y2="315.76"/><line x1="204.11" y1="289.38" x2="199.18" y2="295.71"/><line x1="157.24" y1="342.77" x2="160.95" y2="342.79"/><line x1="333.39" y1="325.06" x2="336.00" y2="320.90"/><line x1="252.98" y1="231.69" x2="250.87" y2="217.75"/><line x1="185.68" y1="181.22" x2="192.08" y2="193.02"/><line x1="66.63" y1="285.27" x2="72.21" y2="278.49"/><line x1="292.51" y1="161.76" x2="294.83" y2="158.10"/><line x1="258.32" y1="223.04" x2="256.89" y2="218.18"/><line x1="97.69" y1="274.61" x2="102.06" y2="318.58"/><line x1="349.74" y1="142.51" x2="280.71" y2="203.78"/><line x1="131.55" y1="280.51" x2="135.77" y2="282.76"/><line x1="237.10" y1="204.75" x2="207.14" y2="198.31"/><line x1="284.49" y1="264.93" x2="287.60" y2="258.59"/><line x1="363.90" y1="272.83" x2="368.17" y2="265.25"/><line x1="339.40" y1="315.76" x2="336.00" y2="320.90"/><line x1="260.12" y1="295.41" x2="263.98" y2="291.27"/><line x1="480.00" y1="202.00" x2="395.98" y2="226.16"/><line x1="260.73" y1="218.92" x2="255.71" y2="227.32"/><line x1="125.12" y1="277.57" x2="112.81" y2="306.20"/><line x1="92.05" y1="320.99" x2="96.69" y2="324.28"/><line x1="417.05" y1="308.79" x2="368.09" y2="347.10"/><line x1="256.89" y1="218.18" x2="258.77" y2="217.68"/><line x1="381.52" y1="236.51" x2="378.24" y2="219.12"/><line x1="300.10" y1="246.31" x2="294.64" y2="244.87"/><line x1="181.45" y1="306.81" x2="186.70" y2="315.67"/><line x1="200.96" y1="298.32" x2="213.92" y2="277.41"/><line x1="263.98" y1="291.27" x2="266.36" y2="289.03"/><line x1="429.58" y1="171.94" x2="419.25" y2="167.60"/><line x1="116.58" y1="223.47" x2="128.42" y2="231.65"/><line x1="334.40" y1="177.60" x2="329.87" y2="184.91"/><line x1="215.82" y1="201.84" x2="225.25" y2="205.78"/><line x1="174.55" y1="304.91" x2="173.43" y2="307.81"/><line x1="36.40" y1="322.13" x2="32.00" y2="326.61"/><line x1="294.64" y1="244.87" x2="290.86" y2="251.93"/><line x1="214.59" y1="260.26" x2="217.40" y2="260.35"/><line x1="250.18" y1="236.08" x2="244.65" y2="244.61"/><line x1="207.09" y1="260.75" x2="211.75" y2="255.09"/><line x1="282.35" y1="359.49" x2="291.88" y2="365.60"/><line x1="359.60" y1="340.85" x2="390.08" y2="293.13"/><line x1="255.14" y1="301.08" x2="315.63" y2="316.00"/><line x1="170.97" y1="339.08" x2="174.42" y2="334.56"/><line x1="211.07" y1="295.01" x2="200.96" y2="298.32"/><line x1="182.50" y1="322.50" x2="186.70" y2="315.67"/><line x1="164.03" y1="188.80" x2="177.92" y2="200.54"/><line x1="255.71" y1="227.32" x2="255.15" y2="218.31"/><line x1="225.25" y1="205.78" x2="240.63" y2="198.01"/><line x1="44.18" y1="323.77" x2="32.00" y2="326.61"/><line x1="262.92" y1="167.91" x2="255.88" y2="155.32"/><line x1="269.18" y1="202.13" x2="280.71" y2="203.78"/><line x1="280.17" y1="292.24" x2="308.03" y2="309.77"/><line x1="374.48" y1="284.52" x2="343.36" y2="309.71"/><line x1="185.16" y1="250.52" x2="159.45" y2="298.52"/><line x1="248.10" y1="217.47" x2="228.96" y2="221.96"/><line x1="147.07" y1="342.06" x2="144.34" y2="341.84"/><line x1="315.63" y1="316.00" x2="323.80" y2="321.33"/><line x1="390.08" y1="293.13" x2="398.55" y2="298.03"/><line x1="246.29" y1="335.06" x2="237.64" y2="323.56"/><line x1="386.19" y1="222.14" x2="395.98" y2="226.16"/><line x1="66.63" y1="285.27" x2="116.88" y2="275.67"/><line x1="252.98" y1="231.69" x2="255.71" y2="227.32"/><line x1="122.91" y1="293.22" x2="127.47" y2="286.78"/><line x1="280.71" y1="203.78" x2="275.07" y2="190.91"/><line x1="97.69" y1="274.61" x2="107.51" y2="274.71"/><line x1="349.74" y1="142.51" x2="360.96" y2="145.08"/><line x1="354.62" y1="212.00" x2="337.85" y2="264.25"/><line x1="246.29" y1="335.06" x2="249.47" y2="307.92"/><line x1="150.73" y1="335.67" x2="150.19" y2="342.33"/><line x1="209.05" y1="283.26" x2="211.07" y2="295.01"/><line x1="166.22" y1="237.51" x2="173.33" y2="243.61"/><line x1="308.03" y1="309.77" x2="266.12" y2="346.20"/><line x1="134.97" y1="195.15" x2="157.35" y2="188.36"/><line x1="237.64" y1="323.56" x2="232.27" y2="331.64"/><line x1="480.00" y1="202.00" x2="440.30" y2="255.20"/><line x1="190.64" y1="172.18" x2="195.20" y2="164.05"/><line x1="291.88" y1="365.60" x2="274.14" y2="352.85"/><line x1="134.97" y1="195.15" x2="154.26" y2="231.99"/><line x1="319.79" y1="196.01" x2="324.47" y2="196.83"/><line x1="260.73" y1="218.92" x2="216.36" y2="247.61"/><line x1="125.12" y1="277.57" x2="131.55" y2="280.51"/><line x1="60.49" y1="292.91" x2="76.85" y2="318.93"/><line x1="180.36" y1="191.02" x2="179.44" y2="194.97"/><line x1="337.85" y1="264.25" x2="362.78" y2="214.57"/><line x1="307.56" y1="249.16" x2="370.55" y2="216.77"/><line x1="211.07" y1="295.01" x2="204.11" y2="289.38"/><line x1="386.19" y1="222.14" x2="444.38" y2="179.84"/><line x1="186.29" y1="305.71" x2="190.71" y2="308.78"/><line x1="209.05" y1="283.26" x2="204.11" y2="289.38"/><line x1="465.96" y1="192.97" x2="433.43" y2="249.54"/><line x1="317.28" y1="353.18" x2="321.62" y2="346.49"/><line x1="205.98" y1="146.64" x2="237.11" y2="149.17"/><line x1="185.79" y1="191.55" x2="199.31" y2="156.98"/><line x1="333.39" y1="325.06" x2="323.80" y2="321.33"/><line x1="368.09" y1="347.10" x2="359.60" y2="340.85"/><line x1="190.71" y1="308.78" x2="188.60" y2="304.57"/><line x1="341.77" y1="329.31" x2="339.40" y2="315.76"/><line x1="164.03" y1="188.80" x2="168.65" y2="230.36"/><line x1="118.39" y1="232.47" x2="116.58" y2="223.47"/><line x1="246.31" y1="217.10" x2="248.10" y2="217.47"/><line x1="44.18" y1="323.77" x2="60.49" y2="292.91"/><line x1="244.65" y1="244.61" x2="253.27" y2="242.78"/><line x1="225.25" y1="205.78" x2="237.10" y2="204.75"/><line x1="312.09" y1="196.24" x2="292.51" y2="161.76"/><line x1="356.45" y1="286.79" x2="382.07" y2="288.61"/><line x1="300.10" y1="246.31" x2="345.73" y2="208.54"/><line x1="173.43" y1="307.81" x2="178.39" y2="306.35"/><line x1="257.20" y1="340.09" x2="246.29" y2="335.06"/><line x1="245.47" y1="190.38" x2="251.13" y2="182.42"/><line x1="281.16" y1="271.05" x2="284.49" y2="264.93"/><line x1="266.12" y1="346.20" x2="255.14" y2="301.08"/><line x1="164.65" y1="342.59" x2="168.22" y2="342.10"/><line x1="162.33" y1="323.04" x2="167.10" y2="317.17"/><line x1="284.49" y1="264.93" x2="281.16" y2="271.05"/><line x1="339.40" y1="315.76" x2="343.36" y2="309.71"/><line x1="146.36" y1="290.07" x2="152.63" y2="294.35"/><line x1="55.94" y1="321.40" x2="66.94" y2="319.71"/><line x1="252.98" y1="231.69" x2="249.60" y2="217.63"/><line x1="66.63" y1="285.27" x2="79.36" y2="276.59"/><line x1="97.69" y1="274.61" x2="92.05" y2="320.99"/><line x1="363.90" y1="272.83" x2="307.56" y2="249.16"/><line x1="174.55" y1="304.91" x2="166.78" y2="302.17"/><line x1="284.49" y1="264.93" x2="269.80" y2="241.14"/><line x1="243.50" y1="315.54" x2="249.47" y2="307.92"/><line x1="151.50" y1="188.23" x2="157.35" y2="188.36"/><line x1="341.77" y1="329.31" x2="407.54" y2="303.27"/><line x1="263.13" y1="158.84" x2="268.07" y2="162.51"/><line x1="260.73" y1="218.92" x2="260.77" y2="216.67"/><line x1="326.51" y1="191.41" x2="324.47" y2="196.83"/><line x1="92.05" y1="320.99" x2="102.06" y2="318.58"/><line x1="407.54" y1="303.27" x2="417.05" y2="308.79"/><line x1="211.97" y1="260.32" x2="214.59" y2="260.26"/><line x1="417.05" y1="308.79" x2="375.65" y2="352.96"/><line x1="374.48" y1="284.52" x2="367.31" y2="280.89"/><line x1="200.96" y1="298.32" x2="218.66" y2="271.87"/><line x1="178.39" y1="306.35" x2="174.55" y2="304.91"/><line x1="249.47" y1="307.92" x2="255.14" y2="301.08"/><line x1="185.68" y1="181.22" x2="180.36" y2="191.02"/><line x1="294.83" y1="158.10" x2="303.14" y2="151.64"/><line x1="177.92" y1="200.54" x2="179.44" y2="194.97"/><line x1="386.19" y1="222.14" x2="419.25" y2="167.60"/><line x1="171.66" y1="189.66" x2="173.64" y2="214.82"/><line x1="174.55" y1="304.91" x2="207.09" y2="260.75"/><line x1="185.79" y1="191.55" x2="255.88" y2="155.32"/><line x1="214.59" y1="260.26" x2="216.36" y2="247.61"/><line x1="147.07" y1="342.06" x2="150.19" y2="342.33"/><line x1="207.09" y1="260.75" x2="209.49" y2="260.50"/><line x1="236.26" y1="290.35" x2="248.66" y2="289.10"/><line x1="131.17" y1="202.27" x2="134.97" y2="195.15"/><line x1="85.32" y1="319.29" x2="88.08" y2="275.27"/><line x1="164.03" y1="188.80" x2="175.94" y2="207.31"/><line x1="255.71" y1="227.32" x2="253.55" y2="218.20"/><line x1="341.77" y1="329.31" x2="356.45" y2="286.79"/><line x1="44.18" y1="323.77" x2="36.40" y2="322.13"/><line x1="160.88" y1="234.02" x2="166.22" y2="237.51"/><line x1="374.48" y1="284.52" x2="347.67" y2="302.82"/><line x1="266.12" y1="346.20" x2="291.14" y2="297.21"/><line x1="147.07" y1="342.06" x2="150.73" y2="335.67"/><line x1="315.63" y1="316.00" x2="317.28" y2="353.18"/><line x1="235.38" y1="210.01" x2="225.25" y2="205.78"/><line x1="141.75" y1="188.50" x2="146.35" y2="188.31"/><line x1="85.32" y1="319.29" x2="76.85" y2="318.93"/><line x1="202.92" y1="151.12" x2="205.98" y2="146.64"/><line x1="339.31" y1="141.37" x2="349.74" y2="142.51"/><line x1="122.91" y1="293.22" x2="116.88" y2="275.67"/><line x1="174.55" y1="304.91" x2="207.09" y2="260.75"/><line x1="97.69" y1="274.61" x2="112.81" y2="306.20"/><line x1="246.29" y1="335.06" x2="243.50" y2="315.54"/><line x1="316.62" y1="253.23" x2="307.56" y2="249.16"/><line x1="277.32" y1="241.24" x2="217.40" y2="260.35"/><line x1="417.05" y1="308.79" x2="386.06" y2="361.47"/><line x1="134.97" y1="195.15" x2="151.50" y2="188.23"/><line x1="353.37" y1="153.21" x2="346.31" y2="161.51"/><line x1="190.64" y1="172.18" x2="207.14" y2="198.31"/><line x1="173.33" y1="243.61" x2="146.36" y2="290.07"/><line x1="353.37" y1="153.21" x2="360.96" y2="145.08"/><line x1="289.28" y1="166.81" x2="312.09" y2="196.24"/><line x1="341.77" y1="329.31" x2="350.67" y2="334.75"/><line x1="262.88" y1="215.04" x2="260.73" y2="218.92"/><line x1="417.05" y1="308.79" x2="407.54" y2="303.27"/><line x1="386.19" y1="222.14" x2="480.00" y2="202.00"/><line x1="386.19" y1="222.14" x2="454.18" y2="185.65"/><line x1="200.96" y1="298.32" x2="199.18" y2="295.71"/><line x1="250.87" y1="217.75" x2="255.71" y2="227.32"/><line x1="157.35" y1="188.36" x2="164.03" y2="188.80"/><line x1="260.73" y1="218.92" x2="262.88" y2="215.04"/><line x1="146.53" y1="231.12" x2="154.26" y2="231.99"/><line x1="223.20" y1="266.69" x2="218.66" y2="271.87"/><line x1="372.84" y1="256.01" x2="377.44" y2="246.11"/><line x1="255.14" y1="301.08" x2="249.47" y2="307.92"/><line x1="121.60" y1="216.85" x2="126.59" y2="209.65"/><line x1="406.01" y1="231.32" x2="395.98" y2="226.16"/><line x1="41.75" y1="316.03" x2="47.75" y2="308.79"/><line x1="118.39" y1="232.47" x2="121.60" y2="216.85"/><line x1="246.31" y1="217.10" x2="252.98" y2="231.69"/><line x1="335.78" y1="203.66" x2="345.73" y2="208.54"/><line x1="300.10" y1="246.31" x2="354.62" y2="212.00"/><line x1="377.44" y1="246.11" x2="381.52" y2="236.51"/><line x1="191.18" y1="303.33" x2="164.65" y2="342.59"/><line x1="257.20" y1="340.09" x2="243.50" y2="315.54"/><line x1="277.28" y1="277.04" x2="281.16" y2="271.05"/><line x1="178.33" y1="328.92" x2="182.50" y2="322.50"/><line x1="227.46" y1="261.93" x2="223.20" y2="266.69"/><line x1="436.28" y1="175.34" x2="429.58" y2="171.94"/><line x1="55.94" y1="321.40" x2="54.10" y2="300.92"/><line x1="252.98" y1="231.69" x2="248.10" y2="217.47"/><line x1="166.78" y1="302.17" x2="174.55" y2="304.91"/><line x1="316.62" y1="253.23" x2="326.85" y2="258.33"/><line x1="363.90" y1="272.83" x2="316.62" y2="253.23"/><line x1="277.32" y1="241.24" x2="253.27" y2="242.78"/><line x1="150.73" y1="335.67" x2="156.80" y2="329.30"/><line x1="171.16" y1="222.65" x2="118.39" y2="232.47"/><line x1="175.94" y1="207.31" x2="177.92" y2="200.54"/><line x1="134.97" y1="195.15" x2="146.35" y2="188.31"/><line x1="341.77" y1="329.31" x2="350.67" y2="334.75"/><line x1="263.13" y1="158.84" x2="262.92" y2="167.91"/><line x1="190.44" y1="252.58" x2="195.67" y2="254.55"/><line x1="326.51" y1="191.41" x2="319.79" y2="196.01"/><line x1="417.05" y1="308.79" x2="381.80" y2="357.93"/><line x1="407.54" y1="303.27" x2="381.80" y2="357.93"/><line x1="356.45" y1="286.79" x2="367.31" y2="280.89"/><line x1="284.10" y1="241.93" x2="277.32" y2="241.24"/><line x1="178.39" y1="306.35" x2="173.43" y2="307.81"/><line x1="177.92" y1="200.54" x2="171.66" y2="189.66"/><line x1="280.45" y1="181.33" x2="285.22" y2="173.31"/><line x1="272.46" y1="283.00" x2="277.28" y2="277.04"/><line x1="171.66" y1="189.66" x2="175.94" y2="207.31"/><line x1="118.00" y1="299.73" x2="122.91" y2="293.22"/><line x1="199.18" y1="295.71" x2="194.31" y2="302.20"/><line x1="367.31" y1="280.89" x2="374.48" y2="284.52"/><line x1="294.64" y1="244.87" x2="289.93" y2="243.15"/><line x1="147.07" y1="342.06" x2="156.80" y2="329.30"/><line x1="263.98" y1="291.27" x2="266.36" y2="289.03"/><line x1="44.18" y1="323.77" x2="55.94" y2="321.40"/><line x1="266.12" y1="346.20" x2="274.14" y2="352.85"/><line x1="329.87" y1="184.91" x2="334.40" y2="177.60"/><line x1="85.32" y1="319.29" x2="79.36" y2="276.59"/><line x1="255.71" y1="227.32" x2="252.12" y2="217.97"/><line x1="150.19" y1="342.33" x2="162.33" y2="323.04"/><line x1="135.77" y1="282.76" x2="140.72" y2="286.08"/><line x1="346.31" y1="161.51" x2="339.31" y2="141.37"/><line x1="183.99" y1="306.53" x2="181.45" y2="306.81"/><line x1="207.09" y1="260.75" x2="209.49" y2="260.50"/><line x1="266.12" y1="346.20" x2="300.15" y2="303.28"/><line x1="191.18" y1="303.33" x2="178.33" y2="328.92"/><line x1="454.18" y1="185.65" x2="444.38" y2="179.84"/><line x1="245.47" y1="190.38" x2="217.17" y2="144.87"/><line x1="141.75" y1="188.50" x2="137.59" y2="188.70"/><line x1="154.26" y1="231.99" x2="160.88" y2="234.02"/><line x1="192.08" y1="193.02" x2="190.64" y2="172.18"/><line x1="258.77" y1="217.68" x2="260.77" y2="216.67"/><line x1="237.11" y1="149.17" x2="226.95" y2="146.73"/><line x1="339.31" y1="141.37" x2="353.37" y2="153.21"/><line x1="406.01" y1="231.32" x2="436.28" y2="175.34"/><line x1="287.60" y1="258.59" x2="290.86" y2="251.93"/><line x1="311.61" y1="146.77" x2="320.38" y2="143.46"/><line x1="277.28" y1="277.04" x2="211.07" y2="295.01"/><line x1="157.24" y1="342.77" x2="160.95" y2="342.79"/><line x1="277.32" y1="241.24" x2="214.59" y2="260.26"/><line x1="128.42" y1="231.65" x2="137.86" y2="231.10"/><line x1="164.65" y1="342.59" x2="168.22" y2="342.10"/><line x1="255.71" y1="227.32" x2="252.98" y2="231.69"/><line x1="190.64" y1="172.18" x2="199.21" y2="195.32"/><line x1="274.14" y1="352.85" x2="308.03" y2="309.77"/><line x1="173.33" y1="243.61" x2="140.72" y2="286.08"/><line x1="205.98" y1="146.64" x2="208.45" y2="143.67"/><line x1="195.67" y1="254.55" x2="201.13" y2="257.06"/><line x1="341.77" y1="329.31" x2="333.39" y2="325.06"/><line x1="370.55" y1="216.77" x2="362.78" y2="214.57"/><line x1="289.28" y1="166.81" x2="285.22" y2="173.31"/><line x1="257.20" y1="340.09" x2="266.12" y2="346.20"/><line x1="164.03" y1="188.80" x2="134.97" y2="195.15"/><line x1="118.00" y1="299.73" x2="122.91" y2="293.22"/><line x1="263.13" y1="158.84" x2="257.11" y2="174.74"/><line x1="253.55" y1="218.20" x2="252.12" y2="217.97"/><line x1="260.73" y1="218.92" x2="260.77" y2="216.67"/><line x1="170.87" y1="312.00" x2="178.39" y2="306.35"/><line x1="146.53" y1="231.12" x2="168.65" y2="230.36"/><line x1="324.47" y1="196.83" x2="335.78" y2="203.66"/><line x1="360.49" y1="277.79" x2="363.90" y2="272.83"/><line x1="291.88" y1="365.60" x2="303.81" y2="370.63"/><line x1="225.05" y1="230.26" x2="244.65" y2="244.61"/><line x1="377.44" y1="246.11" x2="381.52" y2="236.51"/><line x1="255.14" y1="301.08" x2="257.20" y2="340.09"/><line x1="329.57" y1="141.67" x2="339.31" y2="141.37"/><line x1="121.60" y1="216.85" x2="137.86" y2="231.10"/><line x1="225.05" y1="230.26" x2="220.83" y2="239.07"/><line x1="339.93" y1="169.72" x2="346.31" y2="161.51"/><line x1="275.07" y1="190.91" x2="280.45" y2="181.33"/><line x1="41.75" y1="316.03" x2="55.94" y2="321.40"/><line x1="312.82" y1="359.50" x2="291.88" y2="365.60"/><line x1="202.92" y1="151.12" x2="199.31" y2="156.98"/><line x1="335.78" y1="203.66" x2="316.62" y2="253.23"/><line x1="150.19" y1="342.33" x2="188.60" y2="304.57"/><line x1="135.77" y1="282.76" x2="185.16" y2="250.52"/><line x1="368.09" y1="347.10" x2="375.65" y2="352.96"/><line x1="216.36" y1="247.61" x2="258.77" y2="217.68"/><line x1="118.39" y1="232.47" x2="128.42" y2="231.65"/><line x1="191.18" y1="303.33" x2="160.95" y2="342.79"/><line x1="178.33" y1="328.92" x2="167.10" y2="317.17"/><line x1="349.20" y1="270.81" x2="337.85" y2="264.25"/><line x1="207.09" y1="260.75" x2="277.32" y2="241.24"/><line x1="190.71" y1="308.78" x2="194.31" y2="302.20"/><line x1="191.18" y1="303.33" x2="194.31" y2="302.20"/><line x1="227.46" y1="261.93" x2="200.96" y2="298.32"/><line x1="291.55" y1="200.07" x2="302.34" y2="197.58"/><line x1="326.85" y1="258.33" x2="316.62" y2="253.23"/><line x1="291.55" y1="200.07" x2="302.34" y2="197.58"/><line x1="166.78" y1="302.17" x2="190.44" y2="252.58"/><line x1="368.17" y1="265.25" x2="378.24" y2="219.12"/><line x1="277.32" y1="241.24" x2="269.80" y2="241.14"/><line x1="150.73" y1="335.67" x2="144.34" y2="341.84"/><line x1="262.92" y1="167.91" x2="268.07" y2="162.51"/><line x1="141.75" y1="188.50" x2="146.35" y2="188.31"/><line x1="55.94" y1="321.40" x2="44.18" y2="323.77"/><line x1="423.99" y1="169.42" x2="419.25" y2="167.60"/><line x1="232.42" y1="214.95" x2="241.70" y2="215.03"/><line x1="107.51" y1="274.71" x2="97.69" y2="274.61"/><line x1="171.16" y1="222.65" x2="146.53" y2="231.12"/><line x1="66.63" y1="285.27" x2="72.21" y2="278.49"/><line x1="244.19" y1="216.35" x2="241.70" y2="215.03"/><line x1="166.22" y1="237.51" x2="173.33" y2="243.61"/><line x1="349.20" y1="270.81" x2="360.49" y2="277.79"/><line x1="280.17" y1="292.24" x2="266.36" y2="289.03"/><line x1="204.11" y1="289.38" x2="199.18" y2="295.71"/><line x1="311.61" y1="146.77" x2="320.38" y2="143.46"/><line x1="216.36" y1="247.61" x2="277.32" y2="241.24"/><line x1="425.15" y1="243.41" x2="415.86" y2="237.20"/><line x1="336.00" y1="320.90" x2="341.77" y2="329.31"/><line x1="190.44" y1="252.58" x2="195.67" y2="254.55"/><line x1="164.03" y1="188.80" x2="157.35" y2="188.36"/><line x1="207.09" y1="260.75" x2="152.63" y2="294.35"/><line x1="171.66" y1="189.66" x2="177.92" y2="200.54"/><line x1="415.86" y1="237.20" x2="406.01" y2="231.32"/><line x1="162.33" y1="323.04" x2="174.42" y2="334.56"/><line x1="255.15" y1="218.31" x2="253.55" y2="218.20"/><line x1="160.88" y1="234.02" x2="166.22" y2="237.51"/><line x1="240.63" y1="198.01" x2="245.47" y2="190.38"/><line x1="44.18" y1="323.77" x2="41.75" y2="316.03"/><line x1="285.22" y1="173.31" x2="280.45" y2="181.33"/><line x1="372.84" y1="256.01" x2="377.44" y2="246.11"/><line x1="329.87" y1="184.91" x2="303.14" y2="151.64"/><line x1="312.82" y1="359.50" x2="266.12" y2="346.20"/><line x1="135.77" y1="282.76" x2="207.09" y2="260.75"/><line x1="191.18" y1="303.33" x2="174.42" y2="334.56"/><line x1="168.65" y1="230.36" x2="171.16" y2="222.65"/><line x1="154.26" y1="231.99" x2="164.03" y2="188.80"/><line x1="244.65" y1="244.61" x2="272.46" y2="283.00"/><line x1="102.06" y1="318.58" x2="107.46" y2="312.52"/><line x1="215.82" y1="201.84" x2="207.14" y2="198.31"/><line x1="258.77" y1="217.68" x2="260.73" y2="218.92"/><line x1="223.28" y1="292.34" x2="211.07" y2="295.01"/><line x1="280.71" y1="203.78" x2="291.55" y2="200.07"/><line x1="223.78" y1="261.15" x2="227.46" y2="261.93"/><line x1="287.60" y1="258.59" x2="284.10" y2="241.93"/><line x1="277.28" y1="277.04" x2="284.10" y2="241.93"/><line x1="326.51" y1="191.41" x2="324.47" y2="196.83"/><line x1="347.67" y1="302.82" x2="352.10" y2="295.16"/><line x1="159.45" y1="298.52" x2="166.78" y2="302.17"/><line x1="128.42" y1="231.65" x2="121.60" y2="216.85"/><line x1="255.71" y1="227.32" x2="250.18" y2="236.08"/><line x1="216.36" y1="247.61" x2="220.45" y2="260.64"/><line x1="137.86" y1="231.10" x2="146.53" y2="231.12"/><line x1="317.28" y1="353.18" x2="312.82" y2="359.50"/><line x1="205.98" y1="146.64" x2="217.17" y2="144.87"/><line x1="246.31" y1="217.10" x2="244.19" y2="216.35"/><line x1="289.28" y1="166.81" x2="270.82" y2="208.75"/><line x1="216.36" y1="247.61" x2="211.75" y2="255.09"/><line x1="131.17" y1="202.27" x2="126.59" y2="209.65"/><line x1="257.20" y1="340.09" x2="312.82" y2="359.50"/><line x1="345.73" y1="208.54" x2="335.78" y2="203.66"/><line x1="240.63" y1="198.01" x2="237.10" y2="204.75"/><line x1="263.13" y1="158.84" x2="251.13" y2="182.42"/><line x1="274.14" y1="352.85" x2="282.35" y2="359.49"/><line x1="323.80" y1="321.33" x2="329.73" y2="332.34"/><line x1="324.47" y1="196.83" x2="307.56" y2="249.16"/><line x1="360.49" y1="277.79" x2="349.20" y2="270.81"/><line x1="179.44" y1="194.97" x2="171.66" y2="189.66"/><line x1="329.57" y1="141.67" x2="349.74" y2="142.51"/><line x1="194.31" y1="302.20" x2="191.18" y2="303.33"/><line x1="255.88" y1="155.32" x2="246.98" y2="152.06"/><line x1="116.88" y1="275.67" x2="125.12" y2="277.57"/><line x1="275.07" y1="190.91" x2="291.55" y2="200.07"/><line x1="135.77" y1="282.76" x2="179.54" y2="247.74"/><line x1="270.82" y1="208.75" x2="285.22" y2="173.31"/><line x1="289.93" y1="243.15" x2="281.16" y2="271.05"/><line x1="150.19" y1="342.33" x2="186.29" y2="305.71"/><line x1="368.09" y1="347.10" x2="407.54" y2="303.27"/><line x1="118.39" y1="232.47" x2="116.58" y2="223.47"/><line x1="191.18" y1="303.33" x2="157.24" y2="342.77"/><line x1="107.46" y1="312.52" x2="66.94" y2="319.71"/><line x1="359.60" y1="340.85" x2="350.67" y2="334.75"/><line x1="154.26" y1="231.99" x2="141.75" y2="188.50"/><line x1="127.47" y1="286.78" x2="131.55" y2="280.51"/><line x1="321.62" y1="346.49" x2="317.28" y2="353.18"/><line x1="150.73" y1="335.67" x2="147.07" y2="342.06"/><line x1="269.80" y1="241.14" x2="277.32" y2="241.24"/><line x1="232.42" y1="214.95" x2="238.77" y2="212.98"/><line x1="66.63" y1="285.27" x2="85.32" y2="319.29"/><line x1="280.17" y1="292.24" x2="263.98" y2="291.27"/><line x1="311.61" y1="146.77" x2="329.57" y2="141.67"/><line x1="195.20" y1="164.05" x2="240.63" y2="198.01"/><line x1="362.78" y1="214.57" x2="377.44" y2="246.11"/><line x1="425.15" y1="243.41" x2="454.18" y2="185.65"/><line x1="207.09" y1="260.75" x2="146.36" y2="290.07"/><line x1="178.39" y1="306.35" x2="181.45" y2="306.81"/><line x1="162.33" y1="323.04" x2="170.97" y2="339.08"/><line x1="329.73" y1="332.34" x2="325.79" y2="339.51"/><line x1="307.56" y1="249.16" x2="335.78" y2="203.66"/><line x1="160.88" y1="234.02" x2="168.65" y2="230.36"/><line x1="54.10" y1="300.92" x2="47.75" y2="308.79"/><line x1="179.54" y1="247.74" x2="185.16" y2="250.52"/><line x1="186.70" y1="315.67" x2="190.71" y2="308.78"/><line x1="382.07" y1="288.61" x2="390.08" y2="293.13"/><line x1="135.77" y1="282.76" x2="201.13" y2="257.06"/><line x1="312.82" y1="359.50" x2="308.31" y2="365.34"/><line x1="270.82" y1="208.75" x2="262.88" y2="215.04"/><line x1="480.00" y1="202.00" x2="465.96" y2="192.97"/><line x1="146.53" y1="231.12" x2="154.26" y2="231.99"/><line x1="183.99" y1="306.53" x2="186.29" y2="305.71"/><line x1="159.45" y1="298.52" x2="166.78" y2="302.17"/><line x1="245.47" y1="190.38" x2="205.98" y2="146.64"/><line x1="216.36" y1="247.61" x2="220.83" y2="239.07"/><line x1="398.55" y1="298.03" x2="368.09" y2="347.10"/><line x1="228.96" y1="221.96" x2="225.05" y2="230.26"/><line x1="154.26" y1="231.99" x2="157.35" y2="188.36"/><line x1="244.65" y1="244.61" x2="259.14" y2="288.64"/><line x1="102.06" y1="318.58" x2="96.69" y2="324.28"/><line x1="223.28" y1="292.34" x2="209.05" y2="283.26"/><line x1="370.55" y1="216.77" x2="378.24" y2="219.12"/><line x1="116.88" y1="275.67" x2="107.51" y2="274.71"/><line x1="186.70" y1="315.67" x2="190.71" y2="308.78"/><line x1="440.30" y1="255.20" x2="433.43" y2="249.54"/><line x1="326.51" y1="191.41" x2="319.79" y2="196.01"/><line x1="171.66" y1="189.66" x2="180.36" y2="191.02"/><line x1="395.98" y1="226.16" x2="419.25" y2="167.60"/><line x1="302.34" y1="197.58" x2="312.09" y2="196.24"/><line x1="266.36" y1="289.03" x2="272.46" y2="283.00"/><line x1="156.80" y1="329.30" x2="162.33" y2="323.04"/><line x1="216.36" y1="247.61" x2="217.40" y2="260.35"/><line x1="260.77" y1="216.67" x2="258.77" y2="217.68"/><line x1="317.28" y1="353.18" x2="291.88" y2="365.60"/><line x1="76.85" y1="318.93" x2="66.63" y2="285.27"/><line x1="225.05" y1="230.26" x2="250.87" y2="217.75"/><line x1="362.78" y1="214.57" x2="349.20" y2="270.81"/><line x1="232.42" y1="214.95" x2="235.38" y2="210.01"/><line x1="378.24" y1="219.12" x2="384.59" y2="228.19"/><line x1="433.43" y1="249.54" x2="425.15" y2="243.41"/><line x1="323.80" y1="321.33" x2="325.79" y2="339.51"/><line x1="323.80" y1="321.33" x2="329.73" y2="332.34"/><line x1="236.26" y1="290.35" x2="223.28" y2="292.34"/><line x1="188.60" y1="304.57" x2="191.18" y2="303.33"/><line x1="116.88" y1="275.67" x2="127.47" y2="286.78"/><line x1="315.63" y1="316.00" x2="308.03" y2="309.77"/><line x1="352.10" y1="295.16" x2="347.67" y2="302.82"/><line x1="60.49" y1="292.91" x2="54.10" y2="300.92"/><line x1="289.93" y1="243.15" x2="284.49" y2="264.93"/><line x1="329.87" y1="184.91" x2="326.51" y2="191.41"/><line x1="292.51" y1="161.76" x2="329.87" y2="184.91"/><line x1="237.10" y1="204.75" x2="215.82" y2="201.84"/><line x1="349.74" y1="142.51" x2="329.87" y2="184.91"/><line x1="118.39" y1="232.47" x2="107.92" y2="233.25"/><line x1="107.46" y1="312.52" x2="76.85" y2="318.93"/><line x1="281.16" y1="271.05" x2="277.28" y2="277.04"/><line x1="167.10" y1="317.17" x2="183.99" y2="306.53"/><line x1="343.36" y1="309.71" x2="347.67" y2="302.82"/><line x1="480.00" y1="202.00" x2="406.01" y2="231.32"/><line x1="321.62" y1="346.49" x2="282.35" y2="359.49"/><line x1="368.17" y1="265.25" x2="370.55" y2="216.77"/><line x1="291.14" y1="297.21" x2="280.17" y2="292.24"/><line x1="228.96" y1="221.96" x2="232.42" y2="214.95"/><line x1="381.52" y1="236.51" x2="370.55" y2="216.77"/><line x1="128.42" y1="231.65" x2="137.86" y2="231.10"/><line x1="266.36" y1="289.03" x2="244.65" y2="244.61"/><line x1="207.14" y1="198.31" x2="215.82" y2="201.84"/><line x1="269.80" y1="241.14" x2="287.60" y2="258.59"/><line x1="217.17" y1="144.87" x2="208.45" y2="143.67"/><line x1="429.58" y1="171.94" x2="395.98" y2="226.16"/><line x1="350.67" y1="334.75" x2="359.60" y2="340.85"/><line x1="248.10" y1="217.47" x2="249.60" y2="217.63"/><line x1="311.61" y1="146.77" x2="292.51" y2="161.76"/><line x1="205.98" y1="146.64" x2="202.92" y2="151.12"/><line x1="170.87" y1="312.00" x2="186.70" y2="315.67"/><line x1="367.31" y1="280.89" x2="360.49" y2="277.79"/><line x1="362.78" y1="214.57" x2="372.84" y2="256.01"/><line x1="282.35" y1="359.49" x2="317.28" y2="353.18"/><line x1="185.79" y1="191.55" x2="180.36" y2="191.02"/><line x1="262.88" y1="215.04" x2="269.18" y2="202.13"/><line x1="255.14" y1="301.08" x2="257.20" y2="340.09"/><line x1="168.65" y1="230.36" x2="166.22" y2="237.51"/><line x1="211.07" y1="295.01" x2="227.46" y2="261.93"/><line x1="207.09" y1="260.75" x2="140.72" y2="286.08"/><line x1="262.92" y1="167.91" x2="268.07" y2="162.51"/><line x1="280.17" y1="292.24" x2="266.36" y2="289.03"/><line x1="255.88" y1="155.32" x2="263.13" y2="158.84"/><line x1="92.05" y1="320.99" x2="85.32" y2="319.29"/><line x1="126.59" y1="209.65" x2="131.17" y2="202.27"/><line x1="248.66" y1="289.10" x2="259.14" y2="288.64"/><line x1="223.78" y1="261.15" x2="227.46" y2="261.93"/><line x1="345.73" y1="208.54" x2="354.62" y2="212.00"/><line x1="384.59" y1="228.19" x2="386.19" y2="222.14"/><line x1="270.82" y1="208.75" x2="269.18" y2="202.13"/><line x1="349.74" y1="142.51" x2="353.37" y2="153.21"/><line x1="480.00" y1="202.00" x2="445.33" y2="259.98"/><line x1="237.10" y1="204.75" x2="240.63" y2="198.01"/><line x1="166.22" y1="237.51" x2="135.77" y2="282.76"/><line x1="290.86" y1="251.93" x2="287.60" y2="258.59"/><line x1="245.47" y1="190.38" x2="202.92" y2="151.12"/><line x1="150.73" y1="335.67" x2="144.34" y2="341.84"/><line x1="244.65" y1="244.61" x2="248.66" y2="289.10"/><line x1="195.20" y1="164.05" x2="190.64" y2="172.18"/><line x1="167.10" y1="317.17" x2="170.87" y2="312.00"/><line x1="480.00" y1="202.00" x2="445.33" y2="259.98"/><line x1="244.65" y1="244.61" x2="247.39" y2="240.41"/><line x1="186.70" y1="315.67" x2="186.29" y2="305.71"/><line x1="125.12" y1="277.57" x2="127.47" y2="286.78"/><line x1="307.56" y1="249.16" x2="368.17" y2="265.25"/><line x1="171.66" y1="189.66" x2="179.44" y2="194.97"/><line x1="302.34" y1="197.58" x2="289.28" y2="166.81"/><line x1="308.03" y1="309.77" x2="300.15" y2="303.28"/><line x1="445.33" y1="259.98" x2="440.30" y2="255.20"/><line x1="156.80" y1="329.30" x2="164.65" y2="342.59"/><line x1="253.27" y1="242.78" x2="261.72" y2="241.63"/><line x1="386.06" y1="361.47" x2="381.80" y2="357.93"/><line x1="260.77" y1="216.67" x2="216.36" y2="247.61"/><line x1="205.98" y1="146.64" x2="246.98" y2="152.06"/><line x1="248.66" y1="289.10" x2="259.14" y2="288.64"/><line x1="225.05" y1="230.26" x2="252.12" y2="217.97"/><line x1="185.79" y1="191.55" x2="202.92" y2="151.12"/><line x1="232.42" y1="214.95" x2="238.77" y2="212.98"/><line x1="209.49" y1="260.50" x2="211.97" y2="260.32"/><line x1="378.24" y1="219.12" x2="381.52" y2="236.51"/><line x1="164.03" y1="188.80" x2="160.88" y2="234.02"/><line x1="323.80" y1="321.33" x2="321.62" y2="346.49"/><line x1="146.36" y1="290.07" x2="152.63" y2="294.35"/><line x1="356.45" y1="286.79" x2="390.08" y2="293.13"/><line x1="415.86" y1="237.20" x2="406.01" y2="231.32"/><line x1="201.13" y1="257.06" x2="207.09" y2="260.75"/><line x1="244.19" y1="216.35" x2="246.31" y2="217.10"/><line x1="374.48" y1="284.52" x2="341.77" y2="329.31"/><line x1="164.65" y1="342.59" x2="162.33" y2="323.04"/><line x1="211.97" y1="260.32" x2="214.59" y2="260.26"/><line x1="137.86" y1="231.10" x2="146.53" y2="231.12"/><line x1="236.26" y1="290.35" x2="218.66" y2="271.87"/><line x1="315.63" y1="316.00" x2="274.14" y2="352.85"/><line x1="292.51" y1="161.76" x2="289.28" y2="166.81"/><line x1="252.12" y1="217.97" x2="250.87" y2="217.75"/><line x1="324.47" y1="196.83" x2="294.64" y2="244.87"/><line x1="66.63" y1="285.27" x2="88.08" y2="275.27"/><line x1="329.87" y1="184.91" x2="302.34" y2="197.58"/><line x1="218.66" y1="271.87" x2="213.92" y2="277.41"/><line x1="349.74" y1="142.51" x2="334.40" y2="177.60"/><line x1="266.36" y1="289.03" x2="272.46" y2="283.00"/><line x1="227.46" y1="261.93" x2="223.20" y2="266.69"/><line x1="381.52" y1="236.51" x2="384.59" y2="228.19"/><line x1="349.74" y1="142.51" x2="270.82" y2="208.75"/><line x1="303.14" y1="151.64" x2="311.61" y2="146.77"/><line x1="209.49" y1="260.50" x2="211.97" y2="260.32"/><line x1="302.34" y1="197.58" x2="312.09" y2="196.24"/><line x1="465.96" y1="192.97" x2="454.18" y2="185.65"/><line x1="480.00" y1="202.00" x2="415.86" y2="237.20"/><line x1="291.88" y1="365.60" x2="303.81" y2="370.63"/><line x1="125.12" y1="277.57" x2="116.88" y2="275.67"/><line x1="228.96" y1="221.96" x2="241.70" y2="215.03"/><line x1="200.96" y1="298.32" x2="223.20" y2="266.69"/><line x1="386.19" y1="222.14" x2="423.99" y2="169.42"/><line x1="284.10" y1="241.93" x2="289.93" y2="243.15"/><line x1="241.70" y1="215.03" x2="238.77" y2="212.98"/><line x1="174.55" y1="304.91" x2="201.13" y2="257.06"/><line x1="319.79" y1="196.01" x2="324.47" y2="196.83"/><line x1="205.98" y1="146.64" x2="208.45" y2="143.67"/><line x1="250.18" y1="236.08" x2="216.36" y2="247.61"/><line x1="127.47" y1="286.78" x2="131.55" y2="280.51"/><line x1="362.78" y1="214.57" x2="368.17" y2="265.25"/><line x1="112.81" y1="306.20" x2="118.00" y2="299.73"/><line x1="185.79" y1="191.55" x2="185.68" y2="181.22"/><line x1="173.43" y1="307.81" x2="174.55" y2="304.91"/><line x1="223.20" y1="266.69" x2="218.66" y2="271.87"/><line x1="341.77" y1="329.31" x2="352.10" y2="295.16"/><line x1="164.03" y1="188.80" x2="173.64" y2="214.82"/><line x1="280.17" y1="292.24" x2="263.98" y2="291.27"/><line x1="44.18" y1="323.77" x2="41.75" y2="316.03"/><line x1="92.05" y1="320.99" x2="96.69" y2="324.28"/><line x1="374.48" y1="284.52" x2="352.10" y2="295.16"/><line x1="356.45" y1="286.79" x2="360.49" y2="277.79"/><line x1="47.75" y1="308.79" x2="54.10" y2="300.92"/><line x1="85.32" y1="319.29" x2="107.46" y2="312.52"/><line x1="252.12" y1="217.97" x2="253.55" y2="218.20"/><line x1="349.74" y1="142.51" x2="289.28" y2="166.81"/><line x1="480.00" y1="202.00" x2="440.30" y2="255.20"/><line x1="66.63" y1="285.27" x2="60.49" y2="292.91"/><line x1="258.32" y1="223.04" x2="260.73" y2="218.92"/><line x1="246.98" y1="152.06" x2="237.11" y2="149.17"/><line x1="300.15" y1="303.28" x2="291.14" y2="297.21"/><line x1="97.69" y1="274.61" x2="107.46" y2="312.52"/><line x1="227.46" y1="261.93" x2="248.66" y2="289.10"/><line x1="246.29" y1="335.06" x2="237.64" y2="323.56"/><line x1="164.03" y1="188.80" x2="118.39" y2="232.47"/><line x1="290.86" y1="251.93" x2="289.93" y2="243.15"/><line x1="353.37" y1="153.21" x2="360.96" y2="145.08"/><line x1="167.10" y1="317.17" x2="181.45" y2="306.81"/><line x1="260.12" y1="295.41" x2="255.14" y2="301.08"/><line x1="235.38" y1="210.01" x2="238.77" y2="212.98"/><line x1="226.95" y1="146.73" x2="217.17" y2="144.87"/><line x1="153.62" y1="342.59" x2="157.24" y2="342.77"/><line x1="353.37" y1="153.21" x2="349.74" y2="142.51"/><line x1="188.60" y1="304.57" x2="191.18" y2="303.33"/><line x1="125.12" y1="277.57" x2="122.91" y2="293.22"/><line x1="256.89" y1="218.18" x2="255.15" y2="218.31"/><line x1="417.05" y1="308.79" x2="350.67" y2="334.75"/><line x1="88.08" y1="275.27" x2="79.36" y2="276.59"/><line x1="160.95" y1="342.79" x2="164.65" y2="342.59"/><line x1="386.19" y1="222.14" x2="465.96" y2="192.97"/><line x1="168.22" y1="342.10" x2="170.97" y2="339.08"/><line x1="253.27" y1="242.78" x2="277.28" y2="277.04"/><line x1="200.96" y1="298.32" x2="204.11" y2="289.38"/><line x1="199.21" y1="195.32" x2="207.14" y2="198.31"/><line x1="317.28" y1="353.18" x2="312.82" y2="359.50"/><line x1="140.72" y1="286.08" x2="146.36" y2="290.07"/><line x1="359.60" y1="340.85" x2="368.09" y2="347.10"/><line x1="122.91" y1="293.22" x2="127.47" y2="286.78"/><line x1="260.77" y1="216.67" x2="262.88" y2="215.04"/><line x1="118.39" y1="232.47" x2="126.59" y2="209.65"/><line x1="146.36" y1="290.07" x2="179.54" y2="247.74"/><line x1="225.25" y1="205.78" x2="235.38" y2="210.01"/><line x1="415.86" y1="237.20" x2="444.38" y2="179.84"/><line x1="356.45" y1="286.79" x2="398.55" y2="298.03"/><line x1="300.10" y1="246.31" x2="362.78" y2="214.57"/><line x1="312.09" y1="196.24" x2="319.79" y2="196.01"/><line x1="374.48" y1="284.52" x2="336.00" y2="320.90"/><line x1="257.20" y1="340.09" x2="249.47" y2="307.92"/><line x1="185.16" y1="250.52" x2="190.44" y2="252.58"/><line x1="137.86" y1="231.10" x2="126.59" y2="209.65"/><line x1="277.28" y1="277.04" x2="261.72" y2="241.63"/><line x1="321.62" y1="346.49" x2="325.79" y2="339.51"/><line x1="315.63" y1="316.00" x2="321.62" y2="346.49"/><line x1="55.94" y1="321.40" x2="47.75" y2="308.79"/><line x1="258.77" y1="217.68" x2="256.89" y2="218.18"/><line x1="316.62" y1="253.23" x2="345.73" y2="208.54"/><line x1="66.63" y1="285.27" x2="97.69" y2="274.61"/><line x1="199.31" y1="156.98" x2="195.20" y2="164.05"/><line x1="218.66" y1="271.87" x2="223.28" y2="292.34"/><line x1="363.90" y1="272.83" x2="326.85" y2="258.33"/><line x1="324.47" y1="196.83" x2="335.78" y2="203.66"/><line x1="227.46" y1="261.93" x2="236.26" y2="290.35"/><line x1="167.10" y1="317.17" x2="182.50" y2="322.50"/><line x1="246.29" y1="335.06" x2="257.20" y2="340.09"/><line x1="277.32" y1="241.24" x2="227.46" y2="261.93"/><line x1="302.34" y1="197.58" x2="326.51" y2="191.41"/><line x1="480.00" y1="202.00" x2="425.15" y2="243.41"/><line x1="134.97" y1="195.15" x2="137.59" y2="188.70"/><line x1="190.44" y1="252.58" x2="174.55" y2="304.91"/><line x1="417.05" y1="308.79" x2="386.06" y2="361.47"/><line x1="407.54" y1="303.27" x2="375.65" y2="352.96"/><line x1="261.72" y1="241.63" x2="253.27" y2="242.78"/><line x1="182.50" y1="322.50" x2="186.70" y2="315.67"/><line x1="386.19" y1="222.14" x2="429.58" y2="171.94"/><line x1="97.69" y1="274.61" x2="88.08" y2="275.27"/><line x1="241.70" y1="215.03" x2="232.42" y2="214.95"/><line x1="280.45" y1="181.33" x2="302.34" y2="197.58"/><line x1="465.96" y1="192.97" x2="454.18" y2="185.65"/><line x1="363.90" y1="272.83" x2="368.17" y2="265.25"/><line x1="174.55" y1="304.91" x2="195.67" y2="254.55"/><line x1="199.18" y1="295.71" x2="200.96" y2="298.32"/><line x1="205.98" y1="146.64" x2="217.17" y2="144.87"/><line x1="185.79" y1="191.55" x2="205.98" y2="146.64"/><line x1="147.07" y1="342.06" x2="144.34" y2="341.84"/><line x1="294.64" y1="244.87" x2="290.86" y2="251.93"/><line x1="211.07" y1="295.01" x2="277.32" y2="241.24"/><line x1="308.31" y1="365.34" x2="303.81" y2="370.63"/><line x1="185.79" y1="191.55" x2="190.64" y2="172.18"/><line x1="266.12" y1="346.20" x2="291.88" y2="365.60"/><line x1="85.32" y1="319.29" x2="72.21" y2="278.49"/><line x1="341.77" y1="329.31" x2="347.67" y2="302.82"/><line x1="164.03" y1="188.80" x2="171.16" y2="222.65"/><line x1="177.92" y1="200.54" x2="175.94" y2="207.31"/><line x1="118.39" y1="232.47" x2="107.92" y2="233.25"/><line x1="44.18" y1="323.77" x2="47.75" y2="308.79"/><line x1="185.79" y1="191.55" x2="192.08" y2="193.02"/><line x1="325.79" y1="339.51" x2="321.62" y2="346.49"/><line x1="200.96" y1="298.32" x2="194.31" y2="302.20"/><line x1="300.10" y1="246.31" x2="294.64" y2="244.87"/><line x1="207.09" y1="260.75" x2="211.75" y2="255.09"/><line x1="141.75" y1="188.50" x2="134.97" y2="195.15"/><line x1="454.18" y1="185.65" x2="415.86" y2="237.20"/><line x1="245.47" y1="190.38" x2="226.95" y2="146.73"/><line x1="280.45" y1="181.33" x2="275.07" y2="190.91"/><line x1="72.21" y1="278.49" x2="79.36" y2="276.59"/><line x1="181.45" y1="306.81" x2="170.87" y2="312.00"/><line x1="333.39" y1="325.06" x2="341.77" y2="329.31"/><line x1="252.98" y1="231.69" x2="250.18" y2="236.08"/><line x1="407.54" y1="303.27" x2="398.55" y2="298.03"/><line x1="311.61" y1="146.77" x2="339.93" y2="169.72"/><line x1="258.32" y1="223.04" x2="258.77" y2="217.68"/><line x1="246.29" y1="335.06" x2="232.27" y2="331.64"/><line x1="277.32" y1="241.24" x2="211.97" y2="260.32"/><line x1="134.97" y1="195.15" x2="137.59" y2="188.70"/><line x1="341.77" y1="329.31" x2="417.05" y2="308.79"/><line x1="207.14" y1="198.31" x2="199.21" y2="195.32"/><line x1="235.38" y1="210.01" x2="232.42" y2="214.95"/><line x1="378.24" y1="219.12" x2="386.19" y2="222.14"/><line x1="260.73" y1="218.92" x2="258.32" y2="223.04"/><line x1="398.55" y1="298.03" x2="390.08" y2="293.13"/><line x1="417.05" y1="308.79" x2="359.60" y2="340.85"/><line x1="284.10" y1="241.93" x2="211.07" y2="295.01"/><line x1="300.10" y1="246.31" x2="307.56" y2="249.16"/><line x1="352.10" y1="295.16" x2="356.45" y2="286.79"/><line x1="66.94" y1="319.71" x2="55.94" y2="321.40"/><line x1="200.96" y1="298.32" x2="209.05" y2="283.26"/><line x1="41.75" y1="316.03" x2="36.40" y2="322.13"/><line x1="289.93" y1="243.15" x2="277.28" y2="277.04"/><line x1="386.19" y1="222.14" x2="395.98" y2="226.16"/><line x1="171.66" y1="189.66" x2="164.03" y2="188.80"/><line x1="291.88" y1="365.60" x2="308.31" y2="365.34"/><line x1="174.55" y1="304.91" x2="178.39" y2="306.35"/><line x1="277.32" y1="241.24" x2="284.10" y2="241.93"/><line x1="211.07" y1="295.01" x2="223.28" y2="292.34"/><line x1="294.64" y1="244.87" x2="289.93" y2="243.15"/><line x1="126.59" y1="209.65" x2="121.60" y2="216.85"/><line x1="359.60" y1="340.85" x2="398.55" y2="298.03"/><line x1="237.10" y1="204.75" x2="235.38" y2="210.01"/><line x1="339.93" y1="169.72" x2="329.57" y2="141.67"/><line x1="107.46" y1="312.52" x2="112.81" y2="306.20"/><line x1="118.39" y1="232.47" x2="131.17" y2="202.27"/><line x1="85.32" y1="319.29" x2="92.05" y2="320.99"/><line x1="255.71" y1="227.32" x2="258.32" y2="223.04"/><line x1="349.20" y1="270.81" x2="363.90" y2="272.83"/><line x1="248.10" y1="217.47" x2="246.31" y2="217.10"/><line x1="269.18" y1="202.13" x2="275.07" y2="190.91"/><line x1="315.63" y1="316.00" x2="280.17" y2="292.24"/><line x1="121.60" y1="216.85" x2="116.58" y2="223.47"/><line x1="180.36" y1="191.02" x2="185.68" y2="181.22"/><line x1="266.12" y1="346.20" x2="260.12" y2="295.41"/><line x1="191.18" y1="303.33" x2="190.71" y2="308.78"/><line x1="257.11" y1="174.74" x2="251.13" y2="182.42"/><line x1="246.29" y1="335.06" x2="232.27" y2="331.64"/><line x1="245.47" y1="190.38" x2="251.13" y2="182.42"/><line x1="291.55" y1="200.07" x2="280.45" y2="181.33"/><line x1="324.47" y1="196.83" x2="300.10" y2="246.31"/><line x1="386.19" y1="222.14" x2="419.25" y2="167.60"/><line x1="258.77" y1="217.68" x2="220.83" y2="239.07"/><line x1="363.90" y1="272.83" x2="337.85" y2="264.25"/><line x1="277.32" y1="241.24" x2="261.72" y2="241.63"/><line x1="354.62" y1="212.00" x2="362.78" y2="214.57"/><line x1="246.29" y1="335.06" x2="255.14" y2="301.08"/><line x1="141.75" y1="188.50" x2="137.59" y2="188.70"/><line x1="220.83" y1="239.07" x2="225.05" y2="230.26"/><line x1="255.15" y1="218.31" x2="256.89" y2="218.18"/><line x1="308.03" y1="309.77" x2="300.15" y2="303.28"/><line x1="171.16" y1="222.65" x2="137.86" y2="231.10"/><line x1="277.32" y1="241.24" x2="223.78" y2="261.15"/><line x1="173.33" y1="243.61" x2="179.54" y2="247.74"/><line x1="166.22" y1="237.51" x2="135.77" y2="282.76"/><line x1="349.20" y1="270.81" x2="363.90" y2="272.83"/><line x1="370.55" y1="216.77" x2="378.24" y2="219.12"/><line x1="261.72" y1="241.63" x2="269.80" y2="241.14"/><line x1="111.89" y1="229.07" x2="116.58" y2="223.47"/><line x1="440.30" y1="255.20" x2="433.43" y2="249.54"/><line x1="238.77" y1="212.98" x2="241.70" y2="215.03"/><line x1="186.29" y1="305.71" x2="188.60" y2="304.57"/><line x1="179.54" y1="247.74" x2="185.16" y2="250.52"/><line x1="363.90" y1="272.83" x2="360.49" y2="277.79"/><line x1="433.43" y1="249.54" x2="425.15" y2="243.41"/><line x1="240.63" y1="198.01" x2="263.13" y2="158.84"/><line x1="44.18" y1="323.77" x2="32.00" y2="326.61"/><line x1="241.70" y1="215.03" x2="244.19" y2="216.35"/><line x1="118.39" y1="232.47" x2="134.97" y2="195.15"/><line x1="329.87" y1="184.91" x2="294.83" y2="158.10"/><line x1="341.77" y1="329.31" x2="343.36" y2="309.71"/><line x1="272.46" y1="283.00" x2="259.14" y2="288.64"/><line x1="194.31" y1="302.20" x2="199.18" y2="295.71"/><line x1="118.39" y1="232.47" x2="111.89" y2="229.07"/><line x1="325.79" y1="339.51" x2="315.63" y2="316.00"/><line x1="300.10" y1="246.31" x2="335.78" y2="203.66"/><line x1="191.18" y1="303.33" x2="170.97" y2="339.08"/><line x1="315.63" y1="316.00" x2="308.03" y2="309.77"/><line x1="168.65" y1="230.36" x2="166.22" y2="237.51"/><line x1="245.47" y1="190.38" x2="237.11" y2="149.17"/><line x1="266.12" y1="346.20" x2="257.20" y2="340.09"/><line x1="47.75" y1="308.79" x2="41.75" y2="316.03"/><line x1="152.63" y1="294.35" x2="159.45" y2="298.52"/><line x1="226.95" y1="146.73" x2="217.17" y2="144.87"/><line x1="294.83" y1="158.10" x2="303.14" y2="151.64"/><line x1="287.60" y1="258.59" x2="277.32" y2="241.24"/><line x1="217.40" y1="260.35" x2="220.45" y2="260.64"/><line x1="186.29" y1="305.71" x2="188.60" y2="304.57"/><line x1="277.32" y1="241.24" x2="209.49" y2="260.50"/><line x1="255.71" y1="227.32" x2="258.32" y2="223.04"/><line x1="249.60" y1="217.63" x2="250.87" y2="217.75"/><line x1="378.24" y1="219.12" x2="384.59" y2="228.19"/><line x1="274.14" y1="352.85" x2="266.12" y2="346.20"/><line x1="263.13" y1="158.84" x2="255.88" y2="155.32"/><line x1="257.20" y1="340.09" x2="315.63" y2="316.00"/><line x1="356.45" y1="286.79" x2="352.10" y2="295.16"/><line x1="419.25" y1="167.60" x2="423.99" y2="169.42"/><line x1="195.20" y1="164.05" x2="199.31" y2="156.98"/><line x1="66.94" y1="319.71" x2="76.85" y2="318.93"/><line x1="263.13" y1="158.84" x2="245.47" y2="190.38"/><line x1="294.83" y1="158.10" x2="292.51" y2="161.76"/><line x1="217.40" y1="260.35" x2="220.45" y2="260.64"/><line x1="324.47" y1="196.83" x2="294.64" y2="244.87"/><line x1="171.66" y1="189.66" x2="171.16" y2="222.65"/><line x1="291.88" y1="365.60" x2="312.82" y2="359.50"/><line x1="329.57" y1="141.67" x2="320.38" y2="143.46"/><line x1="179.44" y1="194.97" x2="180.36" y2="191.02"/><line x1="255.88" y1="155.32" x2="257.11" y2="174.74"/><line x1="339.93" y1="169.72" x2="320.38" y2="143.46"/><line x1="261.72" y1="241.63" x2="269.80" y2="241.14"/><line x1="135.77" y1="282.76" x2="173.33" y2="243.61"/><line x1="329.87" y1="184.91" x2="326.51" y2="191.41"/><line x1="85.32" y1="319.29" x2="97.69" y2="274.61"/><line x1="150.19" y1="342.33" x2="183.99" y2="306.53"/><line x1="220.45" y1="260.64" x2="223.78" y2="261.15"/><line x1="336.00" y1="320.90" x2="339.40" y2="315.76"/><line x1="150.19" y1="342.33" x2="153.62" y2="342.59"/><line x1="191.18" y1="303.33" x2="153.62" y2="342.59"/><line x1="180.36" y1="191.02" x2="185.79" y2="191.55"/><line x1="266.12" y1="346.20" x2="280.17" y2="292.24"/><line x1="191.18" y1="303.33" x2="186.70" y2="315.67"/><line x1="257.11" y1="174.74" x2="246.98" y2="152.06"/><line x1="235.38" y1="210.01" x2="237.10" y2="204.75"/><line x1="127.47" y1="286.78" x2="125.12" y2="277.57"/><line x1="347.67" y1="302.82" x2="343.36" y2="309.71"/><line x1="150.19" y1="342.33" x2="153.62" y2="342.59"/><line x1="131.55" y1="280.51" x2="135.77" y2="282.76"/><line x1="406.01" y1="231.32" x2="395.98" y2="226.16"/><line x1="300.15" y1="303.28" x2="291.14" y2="297.21"/><line x1="277.28" y1="277.04" x2="272.46" y2="283.00"/><line x1="76.85" y1="318.93" x2="66.94" y2="319.71"/><line x1="277.32" y1="241.24" x2="220.45" y2="260.64"/><line x1="220.83" y1="239.07" x2="256.89" y2="218.18"/><line x1="255.15" y1="218.31" x2="258.32" y2="223.04"/><line x1="211.75" y1="255.09" x2="216.36" y2="247.61"/><line x1="246.98" y1="152.06" x2="237.11" y2="149.17"/><line x1="125.12" y1="277.57" x2="131.55" y2="280.51"/><line x1="171.16" y1="222.65" x2="128.42" y2="231.65"/><line x1="166.22" y1="237.51" x2="131.55" y2="280.51"/><line x1="216.36" y1="247.61" x2="220.83" y2="239.07"/><line x1="280.17" y1="292.24" x2="260.12" y2="295.41"/><line x1="173.33" y1="243.61" x2="179.54" y2="247.74"/><line x1="370.55" y1="216.77" x2="300.10" y2="246.31"/><line x1="289.28" y1="166.81" x2="292.51" y2="161.76"/><line x1="111.89" y1="229.07" x2="107.92" y2="233.25"/><line x1="262.88" y1="215.04" x2="260.77" y2="216.67"/><line x1="346.31" y1="161.51" x2="339.93" y2="169.72"/><line x1="195.20" y1="164.05" x2="225.25" y2="205.78"/><line x1="66.94" y1="319.71" x2="125.12" y2="277.57"/><line x1="237.11" y1="149.17" x2="226.95" y2="146.73"/><line x1="250.87" y1="217.75" x2="252.12" y2="217.97"/><line x1="263.13" y1="158.84" x2="268.07" y2="162.51"/><line x1="272.46" y1="283.00" x2="253.27" y2="242.78"/><line x1="162.33" y1="323.04" x2="168.22" y2="342.10"/><line x1="214.59" y1="260.26" x2="217.40" y2="260.35"/><line x1="174.42" y1="334.56" x2="178.33" y2="328.92"/><line x1="339.93" y1="169.72" x2="334.40" y2="177.60"/><line x1="107.51" y1="274.71" x2="116.88" y2="275.67"/><line x1="250.87" y1="217.75" x2="249.60" y2="217.63"/><line x1="270.82" y1="208.75" x2="280.71" y2="203.78"/><line x1="44.18" y1="323.77" x2="36.40" y2="322.13"/><line x1="240.63" y1="198.01" x2="255.88" y2="155.32"/><line x1="179.54" y1="247.74" x2="152.63" y2="294.35"/><line x1="140.72" y1="286.08" x2="146.36" y2="290.07"/><line x1="382.07" y1="288.61" x2="359.60" y2="340.85"/><line x1="272.46" y1="283.00" x2="248.66" y2="289.10"/><line x1="135.77" y1="282.76" x2="195.67" y2="254.55"/><line x1="243.50" y1="315.54" x2="237.64" y2="323.56"/><line x1="168.22" y1="342.10" x2="170.97" y2="339.08"/><line x1="102.06" y1="318.58" x2="107.46" y2="312.52"/><line x1="325.79" y1="339.51" x2="329.73" y2="332.34"/><line x1="146.53" y1="231.12" x2="134.97" y2="195.15"/><line x1="178.33" y1="328.92" x2="182.50" y2="322.50"/><line x1="454.18" y1="185.65" x2="444.38" y2="179.84"/><line x1="191.18" y1="303.33" x2="168.22" y2="342.10"/><line x1="228.96" y1="221.96" x2="247.39" y2="240.41"/><line x1="54.10" y1="300.92" x2="60.49" y2="292.91"/><line x1="249.60" y1="217.63" x2="248.10" y2="217.47"/><line x1="154.26" y1="231.99" x2="151.50" y2="188.23"/><line x1="326.85" y1="258.33" x2="337.85" y2="264.25"/><line x1="152.63" y1="294.35" x2="185.16" y2="250.52"/><line x1="223.28" y1="292.34" x2="213.92" y2="277.41"/><line x1="440.30" y1="255.20" x2="465.96" y2="192.97"/><line x1="329.73" y1="332.34" x2="333.39" y2="325.06"/><line x1="326.51" y1="191.41" x2="312.09" y2="196.24"/><line x1="55.94" y1="321.40" x2="66.63" y2="285.27"/><line x1="277.32" y1="241.24" x2="211.75" y2="255.09"/><line x1="266.36" y1="289.03" x2="259.14" y2="288.64"/><line x1="444.38" y1="179.84" x2="436.28" y2="175.34"/><line x1="190.64" y1="172.18" x2="185.68" y2="181.22"/><line x1="232.42" y1="214.95" x2="228.96" y2="221.96"/><line x1="171.16" y1="222.65" x2="168.65" y2="230.36"/><line x1="381.80" y1="357.93" x2="386.06" y2="361.47"/><line x1="213.92" y1="277.41" x2="209.05" y2="283.26"/><line x1="362.78" y1="214.57" x2="354.62" y2="212.00"/><line x1="218.66" y1="271.87" x2="213.92" y2="277.41"/><line x1="356.45" y1="286.79" x2="374.48" y2="284.52"/><line x1="312.09" y1="196.24" x2="319.79" y2="196.01"/><line x1="257.20" y1="340.09" x2="317.28" y2="353.18"/><line x1="195.20" y1="164.05" x2="245.47" y2="190.38"/><line x1="66.94" y1="319.71" x2="60.49" y2="292.91"/><line x1="381.80" y1="357.93" x2="375.65" y2="352.96"/><line x1="207.09" y1="260.75" x2="166.78" y2="302.17"/><line x1="324.47" y1="196.83" x2="300.10" y2="246.31"/><line x1="156.80" y1="329.30" x2="162.33" y2="323.04"/><line x1="183.99" y1="306.53" x2="186.29" y2="305.71"/><line x1="162.33" y1="323.04" x2="167.10" y2="317.17"/><line x1="213.92" y1="277.41" x2="209.05" y2="283.26"/><line x1="238.77" y1="212.98" x2="235.38" y2="210.01"/><line x1="194.31" y1="302.20" x2="190.71" y2="308.78"/><line x1="253.55" y1="218.20" x2="255.15" y2="218.31"/><line x1="201.13" y1="257.06" x2="207.09" y2="260.75"/><line x1="261.72" y1="241.63" x2="284.49" y2="264.93"/><line x1="375.65" y1="352.96" x2="368.09" y2="347.10"/><line x1="194.31" y1="302.20" x2="200.96" y2="298.32"/><line x1="289.93" y1="243.15" x2="287.60" y2="258.59"/><line x1="150.19" y1="342.33" x2="167.10" y2="317.17"/><line x1="346.31" y1="161.51" x2="353.37" y2="153.21"/><line x1="444.38" y1="179.84" x2="436.28" y2="175.34"/><line x1="118.39" y1="232.47" x2="111.89" y2="229.07"/><line x1="150.19" y1="342.33" x2="191.18" y2="303.33"/><line x1="228.96" y1="221.96" x2="252.98" y2="231.69"/><line x1="336.00" y1="320.90" x2="341.77" y2="329.31"/><line x1="191.18" y1="303.33" x2="182.50" y2="322.50"/><line x1="173.64" y1="214.82" x2="171.16" y2="222.65"/><line x1="349.74" y1="142.51" x2="360.96" y2="145.08"/><line x1="192.08" y1="193.02" x2="199.21" y2="195.32"/><line x1="287.60" y1="258.59" x2="284.49" y2="264.93"/><line x1="131.55" y1="280.51" x2="166.22" y2="237.51"/><line x1="406.01" y1="231.32" x2="429.58" y2="171.94"/><line x1="170.97" y1="339.08" x2="174.42" y2="334.56"/><line x1="269.18" y1="202.13" x2="262.88" y2="215.04"/><line x1="277.28" y1="277.04" x2="223.28" y2="292.34"/><line x1="207.14" y1="198.31" x2="195.20" y2="164.05"/><line x1="192.08" y1="193.02" x2="185.79" y2="191.55"/><line x1="211.75" y1="255.09" x2="214.59" y2="260.26"/><line x1="255.71" y1="227.32" x2="216.36" y2="247.61"/><line x1="171.16" y1="222.65" x2="164.03" y2="188.80"/><line x1="390.08" y1="293.13" x2="382.07" y2="288.61"/><line x1="274.14" y1="352.85" x2="282.35" y2="359.49"/><line x1="350.67" y1="334.75" x2="382.07" y2="288.61"/><line x1="223.28" y1="292.34" x2="236.26" y2="290.35"/><line x1="181.45" y1="306.81" x2="178.39" y2="306.35"/><line x1="216.36" y1="247.61" x2="244.65" y2="244.61"/><line x1="311.61" y1="146.77" x2="303.14" y2="151.64"/><line x1="146.35" y1="188.31" x2="151.50" y2="188.23"/><line x1="170.87" y1="312.00" x2="182.50" y2="322.50"/><line x1="225.05" y1="230.26" x2="228.96" y2="221.96"/><line x1="195.20" y1="164.05" x2="215.82" y2="201.84"/><line x1="262.88" y1="215.04" x2="270.82" y2="208.75"/><line x1="168.65" y1="230.36" x2="160.88" y2="234.02"/><line x1="240.63" y1="198.01" x2="245.47" y2="190.38"/><line x1="263.13" y1="158.84" x2="262.92" y2="167.91"/><line x1="382.07" y1="288.61" x2="374.48" y2="284.52"/><line x1="170.87" y1="312.00" x2="173.43" y2="307.81"/><line x1="249.47" y1="307.92" x2="243.50" y2="315.54"/><line x1="126.59" y1="209.65" x2="146.53" y2="231.12"/></g></svg>