<svg xmlns="http://www.w3.org/2000/svg" width="512" height="512"><rect width="512" height="512" fill="#0a0f1a"/><text x="12" y="20" font-family="monospace" font-size="11" fill="#4a7fa5">FRONT (XZ)</text><g stroke="#00d4ff" stroke-width="0.6" opacity="0.85"><line x1="168.92" y1="245.51" x2="146.38" y2="250.34"/><line x1="46.43" y1="193.67" x2="46.08" y2="206.46"/><line x1="238.02" y1="251.41" x2="194.82" y2="239.96"/><line x1="90.18" y1="211.06" x2="86.80" y2="210.33"/><line x1="62.73" y1="206.54" x2="60.09" y2="206.34"/><line x1="87.30" y1="198.61" x2="90.18" y2="211.06"/><line x1="70.88" y1="195.61" x2="67.80" y2="195.15"/><line x1="361.43" y1="294.63" x2="379.67" y2="274.52"/><line x1="361.43" y1="294.63" x2="379.48" y2="318.33"/><line x1="426.82" y1="247.45" x2="427.81" y2="275.60"/><line x1="295.21" y1="263.85" x2="294.62" y2="244.81"/><line x1="60.09" y1="206.34" x2="57.52" y2="206.19"/><line x1="135.53" y1="235.04" x2="124.79" y2="219.88"/><line x1="86.41" y1="221.87" x2="92.54" y2="234.64"/><line x1="40.10" y1="207.44" x2="35.78" y2="194.73"/><line x1="294.62" y1="244.81" x2="287.41" y2="262.37"/><line x1="77.07" y1="208.46" x2="77.25" y2="196.66"/><line x1="124.79" y1="219.88" x2="145.65" y2="213.00"/><line x1="73.97" y1="207.95" x2="77.29" y2="220.20"/><line x1="397.22" y1="249.64" x2="387.50" y2="249.98"/><line x1="379.67" y1="274.52" x2="370.53" y2="273.88"/><line x1="77.25" y1="196.66" x2="73.97" y2="207.95"/><line x1="194.82" y1="239.96" x2="207.64" y2="257.65"/><line x1="48.21" y1="206.28" x2="46.08" y2="206.46"/><line x1="319.23" y1="304.97" x2="336.01" y2="290.30"/><line x1="77.29" y1="220.20" x2="80.22" y2="220.69"/><line x1="370.53" y1="273.88" x2="361.48" y2="273.11"/><line x1="46.43" y1="193.67" x2="44.16" y2="193.75"/><line x1="46.08" y1="206.46" x2="44.16" y2="193.75"/><line x1="87.30" y1="198.61" x2="77.07" y2="208.46"/><line x1="361.43" y1="294.63" x2="343.61" y2="271.24"/><line x1="92.54" y1="234.64" x2="117.10" y2="241.09"/><line x1="319.45" y1="287.05" x2="327.69" y2="288.71"/><line x1="327.19" y1="269.09" x2="319.08" y2="267.89"/><line x1="73.97" y1="207.95" x2="64.79" y2="194.76"/><line x1="62.73" y1="206.54" x2="60.09" y2="206.34"/><line x1="73.97" y1="207.95" x2="71.06" y2="207.51"/><line x1="388.87" y1="275.03" x2="379.97" y2="297.23"/><line x1="319.08" y1="267.89" x2="311.05" y2="266.62"/><line x1="46.43" y1="193.67" x2="48.21" y2="206.28"/><line x1="37.77" y1="194.39" x2="35.78" y2="194.73"/><line x1="427.81" y1="275.60" x2="417.61" y2="275.70"/><line x1="168.92" y1="245.51" x2="157.22" y2="229.18"/><line x1="46.43" y1="193.67" x2="48.21" y2="206.28"/><line x1="238.02" y1="251.41" x2="224.01" y2="232.33"/><line x1="135.53" y1="235.04" x2="107.08" y2="226.81"/><line x1="87.30" y1="198.61" x2="93.63" y2="211.83"/><line x1="319.23" y1="304.97" x2="352.88" y2="293.27"/><line x1="417.61" y1="275.70" x2="407.48" y2="275.63"/><line x1="361.43" y1="294.63" x2="388.87" y2="275.03"/><line x1="361.43" y1="294.63" x2="352.88" y2="293.27"/><line x1="302.38" y1="245.77" x2="294.62" y2="244.81"/><line x1="63.68" y1="218.66" x2="65.44" y2="206.80"/><line x1="294.62" y1="244.81" x2="286.94" y2="243.76"/><line x1="40.10" y1="207.44" x2="37.77" y2="194.39"/><line x1="73.97" y1="207.95" x2="80.53" y2="197.27"/><line x1="458.91" y1="274.10" x2="448.47" y2="274.81"/><line x1="73.97" y1="207.95" x2="74.43" y2="219.77"/><line x1="46.08" y1="206.46" x2="44.01" y2="206.72"/><line x1="68.21" y1="207.13" x2="65.44" y2="206.80"/><line x1="311.05" y1="266.62" x2="303.09" y2="265.27"/><line x1="397.22" y1="249.64" x2="387.50" y2="249.98"/><line x1="66.26" y1="218.84" x2="63.68" y2="218.66"/><line x1="252.21" y1="270.70" x2="266.54" y2="290.20"/><line x1="87.30" y1="198.61" x2="80.24" y2="209.03"/><line x1="389.37" y1="298.37" x2="388.87" y2="275.03"/><line x1="83.49" y1="209.65" x2="80.24" y2="209.03"/><line x1="83.22" y1="221.24" x2="92.54" y2="234.64"/><line x1="361.43" y1="294.63" x2="352.51" y2="272.23"/><line x1="40.10" y1="207.44" x2="37.77" y2="194.39"/><line x1="63.68" y1="218.66" x2="55.02" y2="206.12"/><line x1="416.88" y1="248.38" x2="407.02" y2="249.11"/><line x1="135.53" y1="235.04" x2="107.08" y2="226.81"/><line x1="438.11" y1="275.30" x2="427.81" y2="275.60"/><line x1="55.02" y1="206.12" x2="52.69" y2="206.11"/><line x1="68.91" y1="219.08" x2="71.63" y2="219.39"/><line x1="73.97" y1="207.95" x2="67.80" y2="195.15"/><line x1="73.97" y1="207.95" x2="63.68" y2="218.66"/><line x1="207.64" y1="257.65" x2="252.21" y2="270.70"/><line x1="46.43" y1="193.67" x2="50.42" y2="206.16"/><line x1="86.41" y1="221.87" x2="83.22" y2="221.24"/><line x1="50.42" y1="206.16" x2="48.21" y2="206.28"/><line x1="87.30" y1="198.61" x2="83.49" y2="209.65"/><line x1="361.48" y1="273.11" x2="352.51" y2="272.23"/><line x1="83.22" y1="221.24" x2="80.22" y2="220.69"/><line x1="319.23" y1="304.97" x2="344.41" y2="291.82"/><line x1="48.21" y1="206.28" x2="46.08" y2="206.46"/><line x1="352.51" y1="272.23" x2="343.61" y2="271.24"/><line x1="63.68" y1="218.66" x2="55.02" y2="206.12"/><line x1="361.43" y1="294.63" x2="398.14" y2="275.40"/><line x1="124.79" y1="219.88" x2="114.15" y2="204.85"/><line x1="92.54" y1="234.64" x2="89.68" y2="222.56"/><line x1="63.68" y1="218.66" x2="68.21" y2="207.13"/><line x1="77.07" y1="208.46" x2="73.97" y2="207.95"/><line x1="407.02" y1="249.11" x2="397.22" y2="249.64"/><line x1="41.97" y1="193.90" x2="39.83" y2="194.11"/><line x1="68.91" y1="219.08" x2="68.21" y2="207.13"/><line x1="73.97" y1="207.95" x2="74.43" y2="219.77"/><line x1="73.97" y1="207.95" x2="83.88" y2="197.92"/><line x1="458.91" y1="274.10" x2="446.88" y2="244.93"/><line x1="73.97" y1="207.95" x2="71.63" y2="219.39"/><line x1="207.64" y1="257.65" x2="194.82" y2="239.96"/><line x1="318.09" y1="247.46" x2="311.05" y2="266.62"/><line x1="89.68" y1="222.56" x2="86.41" y2="221.87"/><line x1="319.45" y1="287.05" x2="327.69" y2="288.71"/><line x1="68.21" y1="207.13" x2="66.26" y2="218.84"/><line x1="238.02" y1="251.41" x2="252.21" y2="270.70"/><line x1="427.81" y1="275.60" x2="417.61" y2="275.70"/><line x1="39.83" y1="194.11" x2="37.77" y2="194.39"/><line x1="407.48" y1="275.63" x2="389.37" y2="298.37"/><line x1="311.05" y1="266.62" x2="310.20" y2="246.66"/><line x1="86.80" y1="210.33" x2="83.49" y2="209.65"/><line x1="252.21" y1="270.70" x2="220.60" y2="275.53"/><line x1="67.80" y1="195.15" x2="64.79" y2="194.76"/><line x1="457.00" y1="243.33" x2="407.48" y2="275.63"/><line x1="287.41" y1="262.37" x2="279.32" y2="242.65"/><line x1="389.37" y1="298.37" x2="379.97" y2="297.23"/><line x1="83.49" y1="209.65" x2="83.88" y2="197.92"/><line x1="83.22" y1="221.24" x2="86.41" y2="221.87"/><line x1="57.52" y1="206.19" x2="55.02" y2="206.12"/><line x1="326.04" y1="248.16" x2="319.08" y2="267.89"/><line x1="416.88" y1="248.38" x2="417.61" y2="275.70"/><line x1="55.02" y1="206.12" x2="46.43" y2="193.67"/><line x1="326.04" y1="248.16" x2="303.09" y2="265.27"/><line x1="418.05" y1="301.04" x2="408.41" y2="300.28"/><line x1="73.97" y1="207.95" x2="70.88" y2="195.61"/><line x1="89.68" y1="222.56" x2="93.02" y2="223.31"/><line x1="286.94" y1="243.76" x2="279.32" y2="242.65"/><line x1="407.48" y1="275.63" x2="387.50" y2="249.98"/><line x1="87.30" y1="198.61" x2="86.80" y2="210.33"/><line x1="220.60" y1="275.53" x2="207.64" y2="257.65"/><line x1="361.48" y1="273.11" x2="352.51" y2="272.23"/><line x1="74.03" y1="196.11" x2="70.88" y2="195.61"/><line x1="44.01" y1="206.72" x2="42.02" y2="207.04"/><line x1="303.22" y1="283.54" x2="319.23" y2="304.97"/><line x1="457.00" y1="243.33" x2="458.91" y2="274.10"/><line x1="63.68" y1="218.66" x2="57.52" y2="206.19"/><line x1="287.41" y1="262.37" x2="303.22" y2="283.54"/><line x1="40.10" y1="207.44" x2="32.00" y2="195.63"/><line x1="379.97" y1="297.23" x2="370.65" y2="295.98"/><line x1="99.91" y1="224.96" x2="96.43" y2="224.11"/><line x1="73.97" y1="207.95" x2="77.29" y2="220.20"/><line x1="407.48" y1="275.63" x2="427.77" y2="301.66"/><line x1="379.67" y1="274.52" x2="370.53" y2="273.88"/><line x1="55.02" y1="206.12" x2="52.69" y2="206.11"/><line x1="252.21" y1="270.70" x2="266.54" y2="290.20"/><line x1="407.48" y1="275.63" x2="436.82" y2="246.30"/><line x1="427.81" y1="275.60" x2="416.88" y2="248.38"/><line x1="146.38" y1="250.34" x2="135.53" y2="235.04"/><line x1="407.48" y1="275.63" x2="398.85" y2="299.39"/><line x1="457.00" y1="243.33" x2="417.61" y2="275.70"/><line x1="287.41" y1="262.37" x2="286.94" y2="243.76"/><line x1="145.65" y1="213.00" x2="114.15" y2="204.85"/><line x1="326.04" y1="248.16" x2="327.19" y2="269.09"/><line x1="73.97" y1="207.95" x2="74.03" y2="196.11"/><line x1="157.22" y1="229.18" x2="145.65" y2="213.00"/><line x1="326.04" y1="248.16" x2="311.05" y2="266.62"/><line x1="418.05" y1="301.04" x2="427.77" y2="301.66"/><line x1="97.15" y1="212.65" x2="93.63" y2="211.83"/><line x1="92.54" y1="234.64" x2="103.46" y2="225.86"/><line x1="44.16" y1="193.75" x2="44.01" y2="206.72"/><line x1="448.47" y1="274.81" x2="438.11" y2="275.30"/><line x1="238.02" y1="251.41" x2="287.41" y2="262.37"/><line x1="418.05" y1="301.04" x2="408.41" y2="300.28"/><line x1="407.48" y1="275.63" x2="397.22" y2="249.64"/><line x1="87.30" y1="198.61" x2="90.18" y2="211.06"/><line x1="220.60" y1="275.53" x2="266.54" y2="290.20"/><line x1="287.41" y1="262.37" x2="286.94" y2="243.76"/><line x1="65.44" y1="206.80" x2="62.73" y2="206.54"/><line x1="407.48" y1="275.63" x2="398.14" y2="275.40"/><line x1="44.01" y1="206.72" x2="41.97" y2="193.90"/><line x1="457.00" y1="243.33" x2="480.00" y2="272.04"/><line x1="168.92" y1="245.51" x2="157.22" y2="229.18"/><line x1="63.68" y1="218.66" x2="60.09" y2="206.34"/><line x1="287.41" y1="262.37" x2="238.02" y2="251.41"/><line x1="103.46" y1="225.86" x2="99.91" y2="224.96"/><line x1="336.01" y1="290.30" x2="344.41" y2="291.82"/><line x1="302.38" y1="245.77" x2="294.62" y2="244.81"/><line x1="379.97" y1="297.23" x2="379.67" y2="274.52"/><line x1="311.05" y1="266.62" x2="303.09" y2="265.27"/><line x1="99.91" y1="224.96" x2="89.68" y2="222.56"/><line x1="35.78" y1="194.73" x2="33.85" y2="195.14"/><line x1="73.97" y1="207.95" x2="80.22" y2="220.69"/><line x1="407.48" y1="275.63" x2="418.05" y2="301.04"/><line x1="57.52" y1="206.19" x2="55.02" y2="206.12"/><line x1="379.67" y1="274.52" x2="370.65" y2="295.98"/><line x1="80.53" y1="197.27" x2="77.25" y2="196.66"/><line x1="33.85" y1="195.14" x2="32.00" y2="195.63"/><line x1="252.21" y1="270.70" x2="220.60" y2="275.53"/><line x1="407.48" y1="275.63" x2="446.88" y2="244.93"/><line x1="287.41" y1="262.37" x2="295.21" y2="263.85"/><line x1="146.38" y1="250.34" x2="180.73" y2="262.00"/><line x1="80.22" y1="220.69" x2="83.22" y2="221.24"/><line x1="407.48" y1="275.63" x2="408.41" y2="300.28"/><line x1="80.22" y1="220.69" x2="77.29" y2="220.20"/><line x1="90.18" y1="211.06" x2="86.80" y2="210.33"/><line x1="343.61" y1="271.24" x2="326.04" y2="248.16"/><line x1="286.94" y1="243.76" x2="279.32" y2="242.65"/><line x1="107.08" y1="226.81" x2="103.46" y2="225.86"/><line x1="77.29" y1="220.20" x2="74.43" y2="219.77"/><line x1="469.42" y1="273.19" x2="457.00" y2="243.33"/><line x1="446.88" y1="244.93" x2="436.82" y2="246.30"/><line x1="44.01" y1="206.72" x2="42.02" y2="207.04"/><line x1="326.04" y1="248.16" x2="335.37" y2="270.21"/><line x1="327.69" y1="288.71" x2="336.01" y2="290.30"/><line x1="157.22" y1="229.18" x2="124.79" y2="219.88"/><line x1="194.82" y1="239.96" x2="157.22" y2="229.18"/><line x1="310.20" y1="246.66" x2="302.38" y2="245.77"/><line x1="97.15" y1="212.65" x2="87.30" y2="198.61"/><line x1="60.09" y1="206.34" x2="57.52" y2="206.19"/><line x1="157.22" y1="229.18" x2="124.79" y2="219.88"/><line x1="92.54" y1="234.64" x2="99.91" y2="224.96"/><line x1="80.53" y1="197.27" x2="77.25" y2="196.66"/><line x1="448.47" y1="274.81" x2="436.82" y2="246.30"/><line x1="303.09" y1="265.27" x2="295.21" y2="263.85"/><line x1="287.41" y1="262.37" x2="326.04" y2="248.16"/><line x1="83.88" y1="197.92" x2="80.53" y2="197.27"/><line x1="336.01" y1="290.30" x2="344.41" y2="291.82"/><line x1="146.38" y1="250.34" x2="135.53" y2="235.04"/><line x1="287.41" y1="262.37" x2="294.62" y2="244.81"/><line x1="65.44" y1="206.80" x2="63.68" y2="218.66"/><line x1="457.00" y1="243.33" x2="446.88" y2="244.93"/><line x1="361.43" y1="294.63" x2="343.61" y2="271.24"/><line x1="417.61" y1="275.70" x2="407.48" y2="275.63"/><line x1="35.78" y1="194.73" x2="33.85" y2="195.14"/><line x1="93.63" y1="211.83" x2="90.18" y2="211.06"/><line x1="80.24" y1="209.03" x2="77.07" y2="208.46"/><line x1="107.08" y1="226.81" x2="92.54" y2="234.64"/><line x1="168.92" y1="245.51" x2="194.82" y2="239.96"/><line x1="407.02" y1="249.11" x2="397.22" y2="249.64"/><line x1="194.82" y1="239.96" x2="157.22" y2="229.18"/><line x1="319.23" y1="304.97" x2="327.69" y2="288.71"/><line x1="97.15" y1="212.65" x2="93.63" y2="211.83"/><line x1="46.43" y1="193.67" x2="40.10" y2="207.44"/><line x1="343.61" y1="271.24" x2="326.04" y2="248.16"/><line x1="398.85" y1="299.39" x2="389.37" y2="298.37"/><line x1="335.37" y1="270.21" x2="327.19" y2="269.09"/><line x1="107.08" y1="226.81" x2="97.15" y2="212.65"/><line x1="42.02" y1="207.04" x2="40.10" y2="207.44"/><line x1="107.08" y1="226.81" x2="103.46" y2="225.86"/><line x1="66.26" y1="218.84" x2="63.68" y2="218.66"/><line x1="446.88" y1="244.93" x2="448.47" y2="274.81"/><line x1="224.01" y1="232.33" x2="182.13" y2="222.45"/><line x1="124.79" y1="219.88" x2="97.15" y2="212.65"/><line x1="194.82" y1="239.96" x2="238.02" y2="251.41"/><line x1="310.20" y1="246.66" x2="303.09" y2="265.27"/><line x1="319.23" y1="304.97" x2="379.48" y2="318.33"/><line x1="92.54" y1="234.64" x2="96.43" y2="224.11"/><line x1="46.43" y1="193.67" x2="50.42" y2="206.16"/><line x1="370.53" y1="273.88" x2="361.48" y2="273.11"/><line x1="83.88" y1="197.92" x2="80.24" y2="209.03"/><line x1="146.38" y1="250.34" x2="180.73" y2="262.00"/><line x1="457.00" y1="243.33" x2="458.91" y2="274.10"/><line x1="417.61" y1="275.70" x2="407.02" y2="249.11"/><line x1="40.10" y1="207.44" x2="39.83" y2="194.11"/><line x1="279.32" y1="242.65" x2="271.78" y2="241.46"/><line x1="96.43" y1="224.11" x2="99.91" y2="224.96"/><line x1="319.23" y1="304.97" x2="319.45" y2="287.05"/><line x1="83.88" y1="197.92" x2="80.53" y2="197.27"/><line x1="327.69" y1="288.71" x2="336.01" y2="290.30"/><line x1="168.92" y1="245.51" x2="135.53" y2="235.04"/><line x1="66.26" y1="218.84" x2="65.44" y2="206.80"/><line x1="46.43" y1="193.67" x2="42.02" y2="207.04"/><line x1="408.41" y1="300.28" x2="398.85" y2="299.39"/><line x1="343.61" y1="271.24" x2="335.37" y2="270.21"/><line x1="87.30" y1="198.61" x2="83.49" y2="209.65"/><line x1="37.77" y1="194.39" x2="35.78" y2="194.73"/><line x1="361.43" y1="294.63" x2="319.23" y2="304.97"/><line x1="361.43" y1="294.63" x2="361.48" y2="273.11"/><line x1="71.06" y1="207.51" x2="68.21" y2="207.13"/><line x1="220.60" y1="275.53" x2="266.54" y2="290.20"/><line x1="92.54" y1="234.64" x2="83.22" y2="221.24"/><line x1="63.68" y1="218.66" x2="57.52" y2="206.19"/><line x1="42.02" y1="207.04" x2="39.83" y2="194.11"/><line x1="379.97" y1="297.23" x2="370.65" y2="295.98"/><line x1="40.10" y1="207.44" x2="32.00" y2="195.63"/><line x1="370.65" y1="295.98" x2="361.43" y2="294.63"/><line x1="458.91" y1="274.10" x2="448.47" y2="274.81"/><line x1="68.91" y1="219.08" x2="66.26" y2="218.84"/><line x1="124.79" y1="219.88" x2="107.08" y2="226.81"/><line x1="73.97" y1="207.95" x2="83.22" y2="221.24"/><line x1="352.88" y1="293.27" x2="361.43" y2="294.63"/><line x1="46.43" y1="193.67" x2="52.69" y2="206.11"/><line x1="194.82" y1="239.96" x2="182.13" y2="222.45"/><line x1="96.43" y1="224.11" x2="93.02" y2="223.31"/><line x1="93.02" y1="223.31" x2="96.43" y2="224.11"/><line x1="46.43" y1="193.67" x2="52.69" y2="206.11"/><line x1="107.08" y1="226.81" x2="97.15" y2="212.65"/><line x1="135.53" y1="235.04" x2="124.79" y2="219.88"/><line x1="319.23" y1="304.97" x2="336.01" y2="290.30"/><line x1="146.38" y1="250.34" x2="168.92" y2="245.51"/><line x1="87.30" y1="198.61" x2="83.88" y2="197.92"/><line x1="361.43" y1="294.63" x2="370.65" y2="295.98"/><line x1="352.51" y1="272.23" x2="343.61" y2="271.24"/><line x1="70.88" y1="195.61" x2="67.80" y2="195.15"/><line x1="457.00" y1="243.33" x2="480.00" y2="272.04"/><line x1="436.82" y1="246.30" x2="426.82" y2="247.45"/><line x1="92.54" y1="234.64" x2="99.91" y2="224.96"/><line x1="63.68" y1="218.66" x2="71.06" y2="207.51"/><line x1="71.63" y1="219.39" x2="68.91" y2="219.08"/><line x1="303.22" y1="283.54" x2="319.23" y2="304.97"/><line x1="83.49" y1="209.65" x2="80.24" y2="209.03"/><line x1="40.10" y1="207.44" x2="41.97" y2="193.90"/><line x1="41.97" y1="193.90" x2="42.02" y2="207.04"/><line x1="224.01" y1="232.33" x2="238.02" y2="251.41"/><line x1="73.97" y1="207.95" x2="66.26" y2="218.84"/><line x1="89.68" y1="222.56" x2="93.02" y2="223.31"/><line x1="46.43" y1="193.67" x2="44.16" y2="193.75"/><line x1="344.41" y1="291.82" x2="352.88" y2="293.27"/><line x1="303.09" y1="265.27" x2="295.21" y2="263.85"/><line x1="438.11" y1="275.30" x2="427.81" y2="275.60"/><line x1="168.92" y1="245.51" x2="180.73" y2="262.00"/><line x1="361.43" y1="294.63" x2="407.48" y2="275.63"/><line x1="87.30" y1="198.61" x2="86.80" y2="210.33"/><line x1="319.23" y1="304.97" x2="379.48" y2="318.33"/><line x1="361.43" y1="294.63" x2="370.53" y2="273.88"/><line x1="295.21" y1="263.85" x2="287.41" y2="262.37"/><line x1="92.54" y1="234.64" x2="86.41" y2="221.87"/><line x1="63.68" y1="218.66" x2="60.09" y2="206.34"/><line x1="40.10" y1="207.44" x2="33.85" y2="195.14"/><line x1="370.65" y1="295.98" x2="370.53" y2="273.88"/><line x1="77.07" y1="208.46" x2="73.97" y2="207.95"/><line x1="73.97" y1="207.95" x2="74.03" y2="196.11"/><line x1="73.97" y1="207.95" x2="80.22" y2="220.69"/><line x1="436.82" y1="246.30" x2="426.82" y2="247.45"/><line x1="252.21" y1="270.70" x2="303.22" y2="283.54"/><line x1="319.23" y1="304.97" x2="327.69" y2="288.71"/><line x1="87.30" y1="198.61" x2="73.97" y2="207.95"/><line x1="92.54" y1="234.64" x2="103.46" y2="225.86"/><line x1="40.10" y1="207.44" x2="33.85" y2="195.14"/><line x1="303.22" y1="283.54" x2="311.29" y2="285.32"/><line x1="73.97" y1="207.95" x2="68.91" y2="219.08"/><line x1="89.68" y1="222.56" x2="96.43" y2="224.11"/><line x1="46.43" y1="193.67" x2="46.08" y2="206.46"/><line x1="55.02" y1="206.12" x2="46.43" y2="193.67"/><line x1="446.88" y1="244.93" x2="436.82" y2="246.30"/><line x1="457.00" y1="243.33" x2="427.81" y2="275.60"/><line x1="319.23" y1="304.97" x2="361.43" y2="294.63"/><line x1="124.79" y1="219.88" x2="97.15" y2="212.65"/><line x1="86.80" y1="210.33" x2="83.49" y2="209.65"/><line x1="63.68" y1="218.66" x2="62.73" y2="206.54"/><line x1="279.32" y1="242.65" x2="271.78" y2="241.46"/><line x1="74.43" y1="219.77" x2="71.63" y2="219.39"/><line x1="388.87" y1="275.03" x2="379.67" y2="274.52"/><line x1="42.02" y1="207.04" x2="40.10" y2="207.44"/><line x1="73.97" y1="207.95" x2="71.06" y2="207.51"/><line x1="407.48" y1="275.63" x2="398.14" y2="275.40"/><line x1="326.04" y1="248.16" x2="319.08" y2="267.89"/><line x1="335.37" y1="270.21" x2="327.19" y2="269.09"/><line x1="73.97" y1="207.95" x2="77.25" y2="196.66"/><line x1="74.43" y1="219.77" x2="77.29" y2="220.20"/><line x1="207.64" y1="257.65" x2="168.92" y2="245.51"/><line x1="418.05" y1="301.04" x2="427.77" y2="301.66"/><line x1="407.48" y1="275.63" x2="407.02" y2="249.11"/><line x1="87.30" y1="198.61" x2="93.63" y2="211.83"/><line x1="407.48" y1="275.63" x2="370.65" y2="295.98"/><line x1="77.25" y1="196.66" x2="74.03" y2="196.11"/><line x1="436.82" y1="246.30" x2="438.11" y2="275.30"/><line x1="252.21" y1="270.70" x2="287.41" y2="262.37"/><line x1="319.23" y1="304.97" x2="319.45" y2="287.05"/><line x1="344.41" y1="291.82" x2="352.88" y2="293.27"/><line x1="63.68" y1="218.66" x2="62.73" y2="206.54"/><line x1="287.41" y1="262.37" x2="252.21" y2="270.70"/><line x1="389.37" y1="298.37" x2="379.97" y2="297.23"/><line x1="33.85" y1="195.14" x2="32.00" y2="195.63"/><line x1="40.10" y1="207.44" x2="35.78" y2="194.73"/><line x1="302.38" y1="245.77" x2="295.21" y2="263.85"/><line x1="65.44" y1="206.80" x2="62.73" y2="206.54"/><line x1="287.41" y1="262.37" x2="303.22" y2="283.54"/><line x1="73.97" y1="207.95" x2="64.79" y2="194.76"/><line x1="73.97" y1="207.95" x2="83.22" y2="221.24"/><line x1="407.48" y1="275.63" x2="387.50" y2="249.98"/><line x1="398.14" y1="275.40" x2="388.87" y2="275.03"/><line x1="326.04" y1="248.16" x2="318.09" y2="247.46"/><line x1="80.53" y1="197.27" x2="77.07" y2="208.46"/><line x1="207.64" y1="257.65" x2="220.60" y2="275.53"/><line x1="71.63" y1="219.39" x2="74.43" y2="219.77"/><line x1="252.21" y1="270.70" x2="303.22" y2="283.54"/><line x1="407.48" y1="275.63" x2="427.77" y2="301.66"/><line x1="87.30" y1="198.61" x2="83.88" y2="197.92"/><line x1="311.29" y1="285.32" x2="319.45" y2="287.05"/><line x1="99.91" y1="224.96" x2="103.46" y2="225.86"/><line x1="457.00" y1="243.33" x2="438.11" y2="275.30"/><line x1="124.79" y1="219.88" x2="107.08" y2="226.81"/><line x1="398.14" y1="275.40" x2="388.87" y2="275.03"/><line x1="39.83" y1="194.11" x2="37.77" y2="194.39"/><line x1="68.91" y1="219.08" x2="66.26" y2="218.84"/><line x1="73.97" y1="207.95" x2="71.63" y2="219.39"/><line x1="407.48" y1="275.63" x2="398.85" y2="299.39"/><line x1="194.82" y1="239.96" x2="168.92" y2="245.51"/><line x1="326.04" y1="248.16" x2="327.19" y2="269.09"/><line x1="157.22" y1="229.18" x2="145.65" y2="213.00"/><line x1="318.09" y1="247.46" x2="310.20" y2="246.66"/><line x1="303.09" y1="265.27" x2="302.38" y2="245.77"/><line x1="407.48" y1="275.63" x2="416.88" y2="248.38"/><line x1="287.41" y1="262.37" x2="302.38" y2="245.77"/><line x1="407.48" y1="275.63" x2="379.97" y2="297.23"/><line x1="361.43" y1="294.63" x2="352.51" y2="272.23"/><line x1="80.24" y1="209.03" x2="80.53" y2="197.27"/><line x1="168.92" y1="245.51" x2="135.53" y2="235.04"/><line x1="457.00" y1="243.33" x2="446.88" y2="244.93"/><line x1="287.41" y1="262.37" x2="271.78" y2="241.46"/><line x1="407.02" y1="249.11" x2="407.48" y2="275.63"/><line x1="145.65" y1="213.00" x2="114.15" y2="204.85"/><line x1="326.04" y1="248.16" x2="318.09" y2="247.46"/><line x1="52.69" y1="206.11" x2="50.42" y2="206.16"/><line x1="73.97" y1="207.95" x2="67.80" y2="195.15"/><line x1="469.42" y1="273.19" x2="458.91" y2="274.10"/><line x1="407.48" y1="275.63" x2="397.22" y2="249.64"/><line x1="71.06" y1="207.51" x2="68.21" y2="207.13"/><line x1="326.04" y1="248.16" x2="295.21" y2="263.85"/><line x1="50.42" y1="206.16" x2="48.21" y2="206.28"/><line x1="97.15" y1="212.65" x2="87.30" y2="198.61"/><line x1="252.21" y1="270.70" x2="238.02" y2="251.41"/><line x1="67.80" y1="195.15" x2="64.79" y2="194.76"/><line x1="407.48" y1="275.63" x2="418.05" y2="301.04"/><line x1="287.41" y1="262.37" x2="271.78" y2="241.46"/><line x1="311.29" y1="285.32" x2="319.23" y2="304.97"/><line x1="303.22" y1="283.54" x2="311.29" y2="285.32"/><line x1="398.85" y1="299.39" x2="398.14" y2="275.40"/><line x1="335.37" y1="270.21" x2="326.04" y2="248.16"/><line x1="457.00" y1="243.33" x2="448.47" y2="274.81"/><line x1="68.21" y1="207.13" x2="65.44" y2="206.80"/><line x1="107.08" y1="226.81" x2="117.10" y2="241.09"/><line x1="398.14" y1="275.40" x2="389.37" y2="298.37"/><line x1="224.01" y1="232.33" x2="194.82" y2="239.96"/><line x1="39.83" y1="194.11" x2="40.10" y2="207.44"/><line x1="448.47" y1="274.81" x2="438.11" y2="275.30"/><line x1="407.48" y1="275.63" x2="408.41" y2="300.28"/><line x1="194.82" y1="239.96" x2="182.13" y2="222.45"/><line x1="319.23" y1="304.97" x2="352.88" y2="293.27"/><line x1="361.43" y1="294.63" x2="379.48" y2="318.33"/><line x1="92.54" y1="234.64" x2="93.02" y2="223.31"/><line x1="370.53" y1="273.88" x2="361.43" y2="294.63"/><line x1="318.09" y1="247.46" x2="310.20" y2="246.66"/><line x1="252.21" y1="270.70" x2="207.64" y2="257.65"/><line x1="407.48" y1="275.63" x2="426.82" y2="247.45"/><line x1="287.41" y1="262.37" x2="310.20" y2="246.66"/><line x1="52.69" y1="206.11" x2="50.42" y2="206.16"/><line x1="361.43" y1="294.63" x2="361.48" y2="273.11"/><line x1="310.20" y1="246.66" x2="302.38" y2="245.77"/><line x1="168.92" y1="245.51" x2="180.73" y2="262.00"/><line x1="469.42" y1="273.19" x2="458.91" y2="274.10"/><line x1="426.82" y1="247.45" x2="416.88" y2="248.38"/><line x1="145.65" y1="213.00" x2="124.79" y2="219.88"/><line x1="80.24" y1="209.03" x2="77.07" y2="208.46"/><line x1="73.97" y1="207.95" x2="70.88" y2="195.61"/><line x1="469.42" y1="273.19" x2="480.00" y2="272.04"/><line x1="319.08" y1="267.89" x2="311.05" y2="266.62"/><line x1="416.88" y1="248.38" x2="407.02" y2="249.11"/><line x1="319.23" y1="304.97" x2="311.29" y2="285.32"/><line x1="71.06" y1="207.51" x2="68.91" y2="219.08"/><line x1="44.16" y1="193.75" x2="41.97" y2="193.90"/><line x1="92.54" y1="234.64" x2="117.10" y2="241.09"/><line x1="44.16" y1="193.75" x2="41.97" y2="193.90"/><line x1="46.43" y1="193.67" x2="44.01" y2="206.72"/><line x1="311.29" y1="285.32" x2="319.45" y2="287.05"/><line x1="287.41" y1="262.37" x2="279.32" y2="242.65"/><line x1="426.82" y1="247.45" x2="416.88" y2="248.38"/><line x1="41.97" y1="193.90" x2="39.83" y2="194.11"/><line x1="408.41" y1="300.28" x2="398.85" y2="299.39"/><line x1="168.92" y1="245.51" x2="207.64" y2="257.65"/><line x1="86.41" y1="221.87" x2="89.68" y2="222.56"/><line x1="107.08" y1="226.81" x2="92.54" y2="234.64"/><line x1="294.62" y1="244.81" x2="286.94" y2="243.76"/><line x1="398.85" y1="299.39" x2="389.37" y2="298.37"/><line x1="124.79" y1="219.88" x2="114.15" y2="204.85"/><line x1="77.25" y1="196.66" x2="74.03" y2="196.11"/><line x1="194.82" y1="239.96" x2="224.01" y2="232.33"/><line x1="319.23" y1="304.97" x2="344.41" y2="291.82"/><line x1="92.54" y1="234.64" x2="89.68" y2="222.56"/><line x1="46.08" y1="206.46" x2="44.01" y2="206.72"/><line x1="287.41" y1="262.37" x2="318.09" y2="247.46"/><line x1="457.00" y1="243.33" x2="469.42" y2="273.19"/><line x1="71.63" y1="219.39" x2="71.06" y2="207.51"/><line x1="343.61" y1="271.24" x2="335.37" y2="270.21"/><line x1="107.08" y1="226.81" x2="117.10" y2="241.09"/><line x1="469.42" y1="273.19" x2="480.00" y2="272.04"/><line x1="40.10" y1="207.44" x2="44.16" y2="193.75"/><line x1="327.19" y1="269.09" x2="319.08" y2="267.89"/><line x1="224.01" y1="232.33" x2="182.13" y2="222.45"/><line x1="388.87" y1="275.03" x2="379.67" y2="274.52"/><line x1="319.08" y1="267.89" x2="318.09" y2="247.46"/><line x1="93.63" y1="211.83" x2="90.18" y2="211.06"/><line x1="74.03" y1="196.11" x2="70.88" y2="195.61"/><line x1="438.11" y1="275.30" x2="426.82" y2="247.45"/></g></svg>