<svg xmlns="http://www.w3.org/2000/svg" width="512" height="512"><rect width="512" height="512" fill="#0a0f1a"/><text x="12" y="20" font-family="monospace" font-size="11" fill="#4a7fa5">FRONT (XZ)</text><g stroke="#00d4ff" stroke-width="0.6" opacity="0.85"><line x1="241.97" y1="111.25" x2="237.34" y2="116.41"/><line x1="306.14" y1="79.47" x2="299.06" y2="85.08"/><line x1="360.07" y1="92.16" x2="374.98" y2="82.58"/><line x1="181.47" y1="438.42" x2="179.32" y2="456.02"/><line x1="253.53" y1="204.20" x2="257.24" y2="206.37"/><line x1="345.43" y1="220.83" x2="346.53" y2="219.06"/><line x1="231.42" y1="135.59" x2="229.67" y2="141.67"/><line x1="297.67" y1="209.90" x2="302.23" y2="208.84"/><line x1="179.32" y1="456.02" x2="185.77" y2="456.37"/><line x1="362.56" y1="240.73" x2="358.86" y2="235.53"/><line x1="320.53" y1="210.17" x2="325.02" y2="210.81"/><line x1="272.42" y1="191.47" x2="273.68" y2="210.14"/><line x1="362.12" y1="308.93" x2="356.03" y2="312.62"/><line x1="358.86" y1="235.53" x2="342.04" y2="243.23"/><line x1="372.93" y1="277.62" x2="371.82" y2="284.14"/><line x1="139.61" y1="436.20" x2="137.98" y2="437.50"/><line x1="375.00" y1="277.85" x2="373.85" y2="284.60"/><line x1="172.10" y1="459.01" x2="165.56" y2="457.14"/><line x1="128.62" y1="342.34" x2="136.36" y2="360.20"/><line x1="202.18" y1="162.00" x2="222.01" y2="154.41"/><line x1="166.25" y1="455.17" x2="160.20" y2="452.66"/><line x1="135.78" y1="368.19" x2="139.61" y2="362.79"/><line x1="136.36" y1="360.20" x2="118.28" y2="355.30"/><line x1="192.93" y1="462.23" x2="209.12" y2="476.58"/><line x1="313.76" y1="33.21" x2="326.30" y2="32.00"/><line x1="360.28" y1="59.27" x2="369.27" y2="43.42"/><line x1="134.02" y1="367.08" x2="137.99" y2="361.50"/><line x1="209.12" y1="476.58" x2="199.91" y2="461.05"/><line x1="333.99" y1="188.94" x2="369.92" y2="155.95"/><line x1="355.41" y1="223.00" x2="351.63" y2="219.99"/><line x1="369.92" y1="155.95" x2="368.45" y2="154.48"/><line x1="358.07" y1="62.80" x2="359.17" y2="61.04"/><line x1="230.09" y1="127.95" x2="227.49" y2="134.21"/><line x1="347.38" y1="79.48" x2="356.96" y2="64.56"/><line x1="359.17" y1="61.04" x2="352.32" y2="59.62"/><line x1="265.09" y1="209.88" x2="269.20" y2="211.20"/><line x1="199.31" y1="307.05" x2="205.26" y2="312.99"/><line x1="228.61" y1="160.86" x2="229.67" y2="167.15"/><line x1="229.46" y1="134.90" x2="227.49" y2="134.21"/><line x1="333.93" y1="213.10" x2="338.28" y2="214.76"/><line x1="161.10" y1="450.78" x2="166.94" y2="453.20"/><line x1="264.39" y1="211.84" x2="269.20" y2="211.20"/><line x1="351.39" y1="258.22" x2="365.62" y2="246.27"/><line x1="251.30" y1="207.72" x2="247.50" y2="205.10"/><line x1="337.47" y1="216.69" x2="338.28" y2="214.76"/><line x1="369.38" y1="297.40" x2="366.09" y2="303.35"/><line x1="310.04" y1="232.01" x2="301.62" y2="233.88"/><line x1="228.21" y1="127.04" x2="211.79" y2="117.83"/><line x1="149.07" y1="445.66" x2="144.07" y2="441.19"/><line x1="208.95" y1="287.04" x2="199.31" y2="283.26"/><line x1="376.17" y1="73.49" x2="391.99" y2="62.46"/><line x1="225.53" y1="175.31" x2="223.59" y2="168.55"/><line x1="340.90" y1="51.24" x2="347.65" y2="53.19"/><line x1="391.99" y1="62.46" x2="380.27" y2="79.27"/><line x1="351.06" y1="35.47" x2="360.33" y2="38.95"/><line x1="379.92" y1="138.36" x2="381.80" y2="139.26"/><line x1="394.57" y1="278.17" x2="394.30" y2="257.50"/><line x1="178.61" y1="462.23" x2="185.77" y2="462.63"/><line x1="340.43" y1="53.27" x2="333.44" y2="54.20"/><line x1="158.07" y1="371.80" x2="217.01" y2="312.85"/><line x1="368.45" y1="71.10" x2="363.46" y2="66.63"/><line x1="226.17" y1="154.42" x2="224.08" y2="154.41"/><line x1="371.28" y1="77.38" x2="366.98" y2="72.57"/><line x1="229.67" y1="141.67" x2="228.61" y2="147.96"/><line x1="185.77" y1="456.37" x2="192.21" y2="456.02"/><line x1="237.34" y1="116.41" x2="233.38" y2="122.00"/><line x1="312.83" y1="182.11" x2="320.77" y2="208.10"/><line x1="365.68" y1="117.08" x2="365.68" y2="108.50"/><line x1="277.10" y1="214.93" x2="281.53" y2="213.26"/><line x1="246.21" y1="150.12" x2="228.25" y2="154.41"/><line x1="158.06" y1="427.20" x2="165.14" y2="432.82"/><line x1="211.20" y1="307.05" x2="217.01" y2="312.85"/><line x1="297.84" y1="191.47" x2="306.84" y2="208.13"/><line x1="281.53" y1="213.26" x2="281.40" y2="215.35"/><line x1="349.16" y1="223.35" x2="350.40" y2="221.67"/><line x1="190.06" y1="438.42" x2="192.21" y2="456.02"/><line x1="256.26" y1="208.21" x2="260.26" y2="210.17"/><line x1="350.40" y1="221.67" x2="352.70" y2="226.15"/><line x1="357.50" y1="314.10" x2="228.93" y2="442.66"/><line x1="354.56" y1="230.71" x2="351.35" y2="227.74"/><line x1="193.35" y1="308.54" x2="191.87" y2="307.07"/><line x1="328.94" y1="213.79" x2="333.26" y2="215.08"/><line x1="228.93" y1="442.66" x2="227.46" y2="441.18"/><line x1="293.71" y1="237.62" x2="286.63" y2="243.23"/><line x1="222.40" y1="147.26" x2="223.59" y2="140.27"/><line x1="134.01" y1="431.91" x2="132.61" y2="425.06"/><line x1="366.05" y1="63.37" x2="371.40" y2="68.14"/><line x1="141.13" y1="444.14" x2="139.99" y2="465.58"/><line x1="132.25" y1="365.97" x2="128.85" y2="372.13"/><line x1="377.65" y1="48.85" x2="385.29" y2="55.21"/><line x1="156.11" y1="474.37" x2="173.36" y2="479.22"/><line x1="206.66" y1="459.10" x2="226.54" y2="468.84"/><line x1="372.91" y1="149.49" x2="376.74" y2="144.10"/><line x1="125.55" y1="452.96" x2="128.85" y2="426.87"/><line x1="352.32" y1="59.62" x2="346.27" y2="57.12"/><line x1="388.15" y1="236.83" x2="374.96" y2="217.35"/><line x1="347.63" y1="217.29" x2="343.45" y2="214.91"/><line x1="353.23" y1="57.74" x2="346.96" y2="55.15"/><line x1="227.49" y1="134.21" x2="225.62" y2="140.74"/><line x1="363.81" y1="100.08" x2="360.07" y2="92.16"/><line x1="351.42" y1="61.50" x2="339.47" y2="75.73"/><line x1="148.72" y1="386.79" x2="132.06" y2="380.67"/><line x1="227.64" y1="141.21" x2="226.54" y2="147.74"/><line x1="269.20" y1="211.20" x2="273.26" y2="212.17"/><line x1="205.26" y1="312.99" x2="145.55" y2="359.28"/><line x1="248.08" y1="167.12" x2="231.42" y2="173.23"/><line x1="206.40" y1="432.81" x2="215.97" y2="447.72"/><line x1="268.64" y1="213.20" x2="272.84" y2="214.22"/><line x1="338.28" y1="214.76" x2="342.49" y2="216.75"/><line x1="331.57" y1="188.41" x2="366.98" y2="153.01"/><line x1="215.97" y1="447.72" x2="221.17" y2="444.02"/><line x1="336.65" y1="218.60" x2="327.05" y2="233.88"/><line x1="341.53" y1="218.61" x2="345.43" y2="220.83"/><line x1="289.43" y1="193.34" x2="297.84" y2="191.47"/><line x1="173.03" y1="454.95" x2="179.32" y2="456.02"/><line x1="327.05" y1="233.88" x2="332.60" y2="217.05"/><line x1="243.89" y1="202.21" x2="240.49" y2="199.05"/><line x1="366.09" y1="303.35" x2="362.12" y2="308.93"/><line x1="347.65" y1="250.31" x2="358.86" y2="235.53"/><line x1="268.18" y1="236.65" x2="265.64" y2="236.24"/><line x1="206.73" y1="182.92" x2="202.18" y2="162.00"/><line x1="240.49" y1="199.05" x2="263.12" y2="235.83"/><line x1="265.64" y1="236.24" x2="251.30" y2="207.72"/><line x1="144.07" y1="441.19" x2="139.61" y2="436.20"/><line x1="338.83" y1="32.72" x2="340.90" y2="51.24"/><line x1="235.71" y1="115.12" x2="240.49" y2="109.77"/><line x1="187.56" y1="283.40" x2="128.62" y2="342.34"/><line x1="376.17" y1="152.08" x2="371.40" y2="157.43"/><line x1="360.33" y1="38.95" x2="369.27" y2="43.42"/><line x1="397.55" y1="70.58" x2="383.68" y2="85.42"/><line x1="191.22" y1="480.00" x2="192.93" y2="462.23"/><line x1="371.49" y1="328.08" x2="358.97" y2="315.56"/><line x1="382.43" y1="132.31" x2="384.40" y2="133.00"/><line x1="358.97" y1="226.29" x2="312.83" y2="182.11"/><line x1="353.60" y1="200.26" x2="331.57" y2="188.41"/><line x1="354.46" y1="85.08" x2="347.38" y2="79.48"/><line x1="354.46" y1="140.49" x2="366.98" y2="153.01"/><line x1="333.68" y1="52.13" x2="326.76" y2="53.83"/><line x1="193.36" y1="301.10" x2="194.81" y2="310.01"/><line x1="322.47" y1="73.86" x2="320.31" y2="56.27"/><line x1="226.54" y1="161.10" x2="224.47" y2="161.33"/><line x1="141.25" y1="364.09" x2="137.55" y2="369.30"/><line x1="244.91" y1="194.63" x2="247.97" y2="197.48"/><line x1="272.42" y1="191.47" x2="269.76" y2="209.19"/><line x1="281.40" y1="215.35" x2="285.70" y2="213.37"/><line x1="228.25" y1="154.41" x2="228.61" y2="160.86"/><line x1="198.51" y1="454.95" x2="204.59" y2="453.20"/><line x1="280.84" y1="193.34" x2="289.71" y2="211.11"/><line x1="347.94" y1="225.03" x2="344.34" y2="222.60"/><line x1="375.00" y1="277.85" x2="371.82" y2="284.14"/><line x1="354.06" y1="224.57" x2="356.03" y2="229.24"/><line x1="166.25" y1="455.17" x2="165.56" y2="457.14"/><line x1="222.47" y1="445.65" x2="223.77" y2="447.28"/><line x1="130.72" y1="425.97" x2="128.13" y2="419.71"/><line x1="216.20" y1="201.30" x2="206.73" y2="182.92"/><line x1="134.02" y1="367.08" x2="139.61" y2="362.79"/><line x1="110.55" y1="370.16" x2="124.22" y2="385.36"/><line x1="371.40" y1="68.14" x2="376.17" y2="73.49"/><line x1="146.47" y1="448.92" x2="152.25" y2="453.02"/><line x1="385.29" y1="55.21" x2="391.99" y2="62.46"/><line x1="374.54" y1="150.79" x2="378.51" y2="145.21"/><line x1="377.07" y1="263.77" x2="375.88" y2="256.79"/><line x1="333.99" y1="188.94" x2="331.57" y2="188.41"/><line x1="376.74" y1="144.10" x2="379.92" y2="138.36"/><line x1="346.27" y1="57.12" x2="339.96" y2="55.30"/><line x1="307.24" y1="57.12" x2="306.55" y2="55.15"/><line x1="346.96" y1="55.15" x2="340.43" y2="53.27"/><line x1="230.09" y1="180.88" x2="235.14" y2="185.72"/><line x1="130.31" y1="386.76" x2="146.85" y2="395.20"/><line x1="226.54" y1="147.74" x2="226.17" y2="154.42"/><line x1="251.82" y1="175.04" x2="240.61" y2="189.82"/><line x1="181.47" y1="438.42" x2="190.06" y2="438.42"/><line x1="272.84" y1="214.22" x2="277.10" y2="214.93"/><line x1="285.68" y1="211.29" x2="289.71" y2="211.11"/><line x1="217.15" y1="301.10" x2="222.96" y2="306.91"/><line x1="272.42" y1="216.25" x2="268.08" y2="215.20"/><line x1="328.42" y1="215.82" x2="324.28" y2="214.92"/><line x1="225.53" y1="175.31" x2="206.73" y2="182.92"/><line x1="211.90" y1="289.98" x2="210.43" y2="288.51"/><line x1="141.13" y1="354.86" x2="187.56" y2="283.40"/><line x1="351.06" y1="35.47" x2="347.65" y2="53.19"/><line x1="202.18" y1="162.00" x2="203.53" y2="139.85"/><line x1="227.98" y1="97.26" x2="269.60" y2="55.63"/><line x1="401.78" y1="79.52" x2="405.66" y2="93.02"/><line x1="178.61" y1="462.23" x2="191.22" y2="480.00"/><line x1="383.91" y1="169.94" x2="353.60" y2="200.26"/><line x1="384.25" y1="125.99" x2="385.35" y2="119.48"/><line x1="363.75" y1="231.64" x2="358.97" y2="226.29"/><line x1="209.12" y1="476.58" x2="226.54" y2="468.84"/><line x1="382.02" y1="314.66" x2="363.75" y2="310.22"/><line x1="368.45" y1="71.10" x2="369.92" y2="69.63"/><line x1="326.75" y1="51.74" x2="319.84" y2="52.13"/><line x1="371.28" y1="77.38" x2="354.46" y2="85.08"/><line x1="371.28" y1="148.19" x2="360.07" y2="133.41"/><line x1="365.68" y1="117.08" x2="383.63" y2="112.79"/><line x1="246.21" y1="150.12" x2="228.61" y2="147.96"/><line x1="347.38" y1="79.48" x2="339.47" y2="75.73"/><line x1="148.71" y1="412.21" x2="132.06" y2="418.32"/><line x1="225.62" y1="168.09" x2="227.49" y2="174.62"/><line x1="228.61" y1="147.96" x2="228.25" y2="154.41"/><line x1="302.23" y1="208.84" x2="306.84" y2="208.13"/><line x1="256.26" y1="208.21" x2="261.11" y2="208.27"/><line x1="289.87" y1="213.19" x2="294.02" y2="212.71"/><line x1="306.84" y1="208.13" x2="305.76" y2="187.73"/><line x1="328.94" y1="213.79" x2="329.45" y2="211.78"/><line x1="373.85" y1="284.60" x2="371.97" y2="291.14"/><line x1="357.50" y1="227.77" x2="362.12" y2="232.93"/><line x1="160.20" y1="452.66" x2="154.46" y2="449.48"/><line x1="217.08" y1="449.48" x2="211.34" y2="452.66"/><line x1="276.83" y1="216.99" x2="272.42" y2="216.25"/><line x1="137.99" y1="361.50" x2="142.61" y2="356.33"/><line x1="128.13" y1="419.71" x2="126.25" y2="413.17"/><line x1="377.65" y1="48.85" x2="371.40" y2="68.14"/><line x1="124.22" y1="385.36" x2="123.04" y2="392.35"/><line x1="372.91" y1="149.49" x2="374.54" y2="150.79"/><line x1="407.04" y1="120.64" x2="389.49" y2="119.95"/><line x1="353.23" y1="57.74" x2="346.27" y2="57.12"/><line x1="387.42" y1="105.87" x2="384.25" y2="99.58"/><line x1="376.74" y1="81.48" x2="372.91" y2="76.09"/><line x1="227.64" y1="141.21" x2="225.62" y2="140.74"/><line x1="283.59" y1="69.63" x2="241.97" y2="111.25"/><line x1="158.07" y1="371.80" x2="152.46" y2="378.87"/><line x1="225.62" y1="140.74" x2="226.54" y2="147.74"/><line x1="268.64" y1="213.20" x2="273.26" y2="212.17"/><line x1="331.57" y1="188.41" x2="354.46" y2="140.49"/><line x1="233.84" y1="129.75" x2="231.42" y2="135.59"/><line x1="128.89" y1="399.49" x2="129.25" y2="405.94"/><line x1="273.26" y1="212.17" x2="272.84" y2="214.22"/><line x1="341.53" y1="218.61" x2="342.49" y2="216.75"/><line x1="289.43" y1="193.34" x2="297.67" y2="209.90"/><line x1="173.03" y1="454.95" x2="181.47" y2="438.42"/><line x1="240.61" y1="189.82" x2="244.91" y2="194.63"/><line x1="342.04" y1="243.23" x2="334.96" y2="237.62"/><line x1="342.03" y1="298.63" x2="358.86" y2="306.33"/><line x1="342.49" y1="216.75" x2="345.43" y2="220.83"/><line x1="347.65" y1="250.31" x2="362.56" y2="240.73"/><line x1="268.18" y1="236.65" x2="213.37" y2="291.46"/><line x1="190.06" y1="438.42" x2="198.48" y2="436.55"/><line x1="265.64" y1="236.24" x2="255.27" y2="210.04"/><line x1="318.63" y1="232.01" x2="315.84" y2="214.04"/><line x1="360.49" y1="307.63" x2="362.12" y2="308.93"/><line x1="142.60" y1="442.66" x2="139.61" y2="436.20"/><line x1="185.77" y1="462.63" x2="192.93" y2="462.23"/><line x1="353.60" y1="200.26" x2="358.97" y2="226.29"/><line x1="240.49" y1="199.05" x2="245.87" y2="225.09"/><line x1="331.57" y1="188.41" x2="312.83" y2="182.11"/><line x1="364.75" y1="65.00" x2="359.17" y2="61.04"/><line x1="125.55" y1="452.96" x2="136.35" y2="438.79"/><line x1="312.83" y1="182.11" x2="355.41" y2="223.00"/><line x1="366.98" y1="72.57" x2="362.16" y2="68.26"/><line x1="141.25" y1="364.09" x2="152.46" y2="378.87"/><line x1="231.97" y1="128.85" x2="229.46" y2="134.90"/><line x1="362.16" y1="68.26" x2="347.38" y2="79.48"/><line x1="205.26" y1="301.10" x2="199.31" y2="307.05"/><line x1="228.25" y1="154.41" x2="246.21" y2="158.71"/><line x1="152.46" y1="378.87" x2="137.55" y2="369.30"/><line x1="198.51" y1="454.95" x2="198.48" y2="436.55"/><line x1="148.72" y1="386.79" x2="146.85" y2="395.20"/><line x1="260.26" y1="210.17" x2="264.39" y2="211.84"/><line x1="246.21" y1="158.71" x2="228.61" y2="160.86"/><line x1="205.26" y1="312.99" x2="158.07" y2="371.80"/><line x1="198.48" y1="436.55" x2="204.59" y2="453.20"/><line x1="248.08" y1="167.12" x2="251.82" y2="175.04"/><line x1="347.94" y1="225.03" x2="334.96" y2="237.62"/><line x1="206.40" y1="432.81" x2="213.47" y2="427.20"/><line x1="333.26" y1="215.08" x2="337.47" y2="216.69"/><line x1="294.02" y1="212.71" x2="298.13" y2="211.93"/><line x1="311.47" y1="207.78" x2="316.12" y2="207.77"/><line x1="334.96" y1="237.62" x2="344.34" y2="222.60"/><line x1="371.97" y1="291.14" x2="369.38" y2="297.40"/><line x1="130.72" y1="425.97" x2="130.10" y2="419.01"/><line x1="362.12" y1="232.93" x2="366.09" y2="238.51"/><line x1="255.27" y1="210.04" x2="251.30" y2="207.72"/><line x1="154.46" y1="449.48" x2="149.07" y2="445.66"/><line x1="110.55" y1="370.16" x2="126.17" y2="378.61"/><line x1="211.34" y1="452.66" x2="205.28" y2="455.17"/><line x1="225.53" y1="133.52" x2="228.21" y2="127.04"/><line x1="265.64" y1="236.24" x2="243.89" y2="202.21"/><line x1="213.14" y1="456.42" x2="219.29" y2="453.02"/><line x1="385.29" y1="55.21" x2="376.17" y2="73.49"/><line x1="164.87" y1="459.10" x2="171.63" y2="461.04"/><line x1="376.74" y1="144.10" x2="378.51" y2="145.21"/><line x1="173.36" y1="479.22" x2="178.61" y2="462.23"/><line x1="334.60" y1="211.13" x2="329.96" y2="209.76"/><line x1="378.51" y1="145.21" x2="379.92" y2="138.36"/><line x1="346.96" y1="55.15" x2="339.96" y2="55.30"/><line x1="374.96" y1="217.35" x2="363.75" y2="231.64"/><line x1="339.50" y1="57.33" x2="331.05" y2="73.86"/><line x1="354.46" y1="140.49" x2="360.07" y2="133.41"/><line x1="339.96" y1="55.30" x2="340.43" y2="53.27"/><line x1="226.54" y1="147.74" x2="224.47" y2="147.49"/><line x1="360.07" y1="92.16" x2="371.28" y2="77.38"/><line x1="251.82" y1="175.04" x2="236.91" y2="184.62"/><line x1="193.36" y1="301.10" x2="187.42" y2="295.16"/><line x1="322.47" y1="73.86" x2="314.05" y2="75.73"/><line x1="224.47" y1="147.49" x2="226.17" y2="154.42"/><line x1="272.84" y1="214.22" x2="277.38" y2="212.86"/><line x1="236.91" y1="184.62" x2="240.61" y2="189.82"/><line x1="277.38" y1="212.86" x2="277.10" y2="214.93"/><line x1="272.42" y1="191.47" x2="280.84" y2="193.34"/><line x1="358.86" y1="235.53" x2="354.56" y2="230.71"/><line x1="358.86" y1="306.33" x2="362.56" y2="301.14"/><line x1="346.53" y1="219.06" x2="349.16" y2="223.35"/><line x1="356.03" y1="312.62" x2="357.50" y2="314.10"/><line x1="202.18" y1="162.00" x2="222.40" y2="147.26"/><line x1="401.78" y1="79.52" x2="386.36" y2="91.90"/><line x1="137.98" y1="437.50" x2="135.78" y2="430.81"/><line x1="136.36" y1="360.20" x2="132.25" y2="365.97"/><line x1="360.28" y1="59.27" x2="366.05" y2="63.37"/><line x1="209.12" y1="476.58" x2="206.66" y2="459.10"/><line x1="369.27" y1="43.42" x2="377.65" y2="48.85"/><line x1="118.28" y1="355.30" x2="132.25" y2="365.97"/><line x1="369.92" y1="155.95" x2="372.91" y2="149.49"/><line x1="320.07" y1="54.20" x2="319.84" y2="52.13"/><line x1="199.91" y1="461.05" x2="206.66" y2="459.10"/><line x1="347.38" y1="79.48" x2="351.42" y2="61.50"/><line x1="359.17" y1="61.04" x2="353.23" y2="57.74"/><line x1="225.62" y1="168.09" x2="229.46" y2="173.93"/><line x1="137.55" y1="369.30" x2="134.48" y2="374.84"/><line x1="229.46" y1="134.90" x2="227.64" y2="141.21"/><line x1="289.87" y1="213.19" x2="290.04" y2="215.26"/><line x1="229.67" y1="167.15" x2="231.42" y2="173.23"/><line x1="134.48" y1="374.84" x2="148.72" y2="386.79"/><line x1="145.55" y1="359.28" x2="141.25" y2="364.09"/><line x1="204.59" y1="453.20" x2="210.43" y2="450.79"/><line x1="264.39" y1="211.84" x2="268.64" y2="213.20"/><line x1="290.04" y1="215.26" x2="294.02" y2="212.71"/><line x1="357.50" y1="227.77" x2="360.49" y2="234.23"/><line x1="210.43" y1="450.79" x2="206.40" y2="432.81"/><line x1="344.34" y1="222.60" x2="340.57" y2="220.45"/><line x1="337.47" y1="216.69" x2="341.53" y2="218.61"/><line x1="360.49" y1="234.23" x2="362.12" y2="232.93"/><line x1="217.08" y1="449.48" x2="218.18" y2="451.25"/><line x1="340.57" y1="220.45" x2="336.65" y2="218.60"/><line x1="218.18" y1="451.25" x2="211.34" y2="452.66"/><line x1="128.13" y1="419.71" x2="128.28" y2="412.70"/><line x1="247.50" y1="205.10" x2="243.89" y2="202.21"/><line x1="364.32" y1="302.24" x2="360.49" y2="307.63"/><line x1="128.28" y1="412.70" x2="126.25" y2="413.17"/><line x1="124.22" y1="385.36" x2="105.84" y2="386.34"/><line x1="187.42" y1="295.16" x2="190.40" y2="305.60"/><line x1="211.79" y1="117.83" x2="231.61" y2="120.89"/><line x1="391.99" y1="62.46" x2="397.55" y2="70.58"/><line x1="147.77" y1="447.28" x2="142.60" y2="442.66"/><line x1="141.13" y1="354.86" x2="128.62" y2="342.34"/><line x1="105.84" y1="386.34" x2="123.04" y2="392.35"/><line x1="379.92" y1="138.36" x2="382.43" y2="132.31"/><line x1="225.07" y1="448.92" x2="230.41" y2="444.14"/><line x1="380.27" y1="79.27" x2="397.55" y2="70.58"/><line x1="340.43" y1="53.27" x2="333.68" y2="52.13"/><line x1="325.38" y1="208.76" x2="320.77" y2="208.10"/><line x1="381.80" y1="139.26" x2="382.43" y2="132.31"/><line x1="333.44" y1="54.20" x2="326.76" y2="53.83"/><line x1="226.17" y1="154.42" x2="226.54" y2="161.10"/><line x1="333.20" y1="56.27" x2="326.75" y2="55.91"/><line x1="128.89" y1="399.49" x2="146.84" y2="403.79"/><line x1="312.83" y1="182.11" x2="354.46" y2="140.49"/><line x1="224.08" y1="154.41" x2="224.47" y2="161.33"/><line x1="277.10" y1="214.93" x2="281.40" y2="215.35"/><line x1="246.21" y1="150.12" x2="246.21" y2="158.71"/><line x1="240.61" y1="189.82" x2="257.43" y2="182.11"/><line x1="342.03" y1="298.63" x2="354.56" y2="311.15"/><line x1="148.71" y1="412.21" x2="152.45" y2="420.13"/><line x1="281.53" y1="213.26" x2="285.70" y2="213.37"/><line x1="257.43" y1="182.11" x2="244.91" y2="194.63"/><line x1="190.06" y1="438.42" x2="198.51" y2="454.95"/><line x1="318.63" y1="232.01" x2="320.08" y2="214.33"/><line x1="350.40" y1="221.67" x2="354.06" y2="224.57"/><line x1="320.08" y1="214.33" x2="315.84" y2="214.04"/><line x1="228.93" y1="442.66" x2="222.47" y2="445.65"/><line x1="286.63" y1="243.23" x2="213.37" y2="291.46"/><line x1="211.20" y1="295.16" x2="211.58" y2="306.44"/><line x1="282.12" y1="68.14" x2="287.46" y2="63.37"/><line x1="134.01" y1="431.91" x2="130.72" y2="425.97"/><line x1="287.46" y1="63.37" x2="279.14" y2="47.56"/><line x1="132.61" y1="425.06" x2="130.10" y2="419.01"/><line x1="203.53" y1="139.85" x2="225.53" y2="133.52"/><line x1="388.30" y1="98.65" x2="389.48" y2="105.63"/><line x1="128.85" y1="372.13" x2="126.17" y2="378.61"/><line x1="206.66" y1="459.10" x2="213.14" y2="456.42"/><line x1="125.55" y1="452.96" x2="132.25" y2="433.02"/><line x1="387.41" y1="119.71" x2="385.72" y2="112.79"/><line x1="226.54" y1="468.84" x2="219.29" y2="453.02"/><line x1="313.55" y1="55.30" x2="313.09" y2="53.27"/><line x1="351.42" y1="61.50" x2="345.58" y2="59.08"/><line x1="302.10" y1="61.50" x2="306.14" y2="79.47"/><line x1="148.72" y1="386.79" x2="130.31" y2="386.76"/><line x1="227.49" y1="174.62" x2="231.97" y2="179.98"/><line x1="339.47" y1="75.73" x2="339.50" y2="57.33"/><line x1="248.08" y1="167.12" x2="233.84" y2="179.07"/><line x1="258.23" y1="204.54" x2="261.95" y2="206.37"/><line x1="206.40" y1="432.81" x2="221.17" y2="444.02"/><line x1="231.97" y1="179.98" x2="230.09" y2="180.88"/><line x1="294.02" y1="212.71" x2="294.33" y2="214.76"/><line x1="294.33" y1="214.76" x2="298.13" y2="211.93"/><line x1="362.12" y1="232.93" x2="364.32" y2="239.61"/><line x1="320.77" y1="208.10" x2="305.76" y2="187.73"/><line x1="327.05" y1="233.88" x2="328.42" y2="215.82"/><line x1="364.32" y1="239.61" x2="366.09" y2="238.51"/><line x1="211.34" y1="452.66" x2="212.24" y2="454.54"/><line x1="347.65" y1="250.31" x2="342.04" y2="243.23"/><line x1="265.64" y1="236.24" x2="247.50" y2="205.10"/><line x1="318.63" y1="232.01" x2="310.04" y2="232.01"/><line x1="212.24" y1="454.54" x2="205.28" y2="455.17"/><line x1="263.12" y1="235.83" x2="210.43" y2="288.51"/><line x1="191.87" y1="307.07" x2="190.40" y2="305.60"/><line x1="260.58" y1="235.42" x2="208.95" y2="287.04"/><line x1="127.18" y1="406.18" x2="125.11" y2="406.42"/><line x1="240.49" y1="109.77" x2="269.60" y2="55.63"/><line x1="397.55" y1="70.58" x2="401.78" y2="79.52"/><line x1="122.64" y1="399.50" x2="104.58" y2="403.28"/><line x1="371.49" y1="328.08" x2="382.02" y2="314.66"/><line x1="383.68" y1="85.42" x2="386.36" y2="91.90"/><line x1="382.43" y1="132.31" x2="384.25" y2="125.99"/><line x1="353.60" y1="200.26" x2="312.83" y2="182.11"/><line x1="354.46" y1="140.49" x2="371.28" y2="148.19"/><line x1="240.49" y1="199.05" x2="229.58" y2="215.80"/><line x1="384.40" y1="133.00" x2="386.27" y2="126.46"/><line x1="333.68" y1="52.13" x2="326.75" y2="51.74"/><line x1="322.47" y1="73.86" x2="314.02" y2="57.33"/><line x1="326.76" y1="53.83" x2="320.07" y2="54.20"/><line x1="125.55" y1="452.96" x2="139.99" y2="465.58"/><line x1="226.54" y1="161.10" x2="227.64" y2="167.62"/><line x1="312.83" y1="182.11" x2="347.63" y2="217.29"/><line x1="129.25" y1="405.94" x2="130.31" y2="412.24"/><line x1="224.47" y1="161.33" x2="225.62" y2="168.09"/><line x1="281.40" y1="215.35" x2="285.72" y2="215.45"/><line x1="307.01" y1="210.22" x2="311.56" y2="211.96"/><line x1="152.46" y1="378.87" x2="148.72" y2="386.79"/><line x1="130.31" y1="412.24" x2="148.71" y2="412.21"/><line x1="358.86" y1="306.33" x2="347.65" y2="291.55"/><line x1="285.70" y1="213.37" x2="289.87" y2="213.19"/><line x1="280.84" y1="193.34" x2="289.43" y2="193.34"/><line x1="246.21" y1="158.71" x2="248.08" y2="167.12"/><line x1="371.82" y1="257.72" x2="373.85" y2="257.26"/><line x1="198.48" y1="436.55" x2="206.40" y2="432.81"/><line x1="347.65" y1="291.55" x2="362.56" y2="301.14"/><line x1="315.84" y1="214.04" x2="311.59" y2="214.06"/><line x1="354.06" y1="224.57" x2="357.50" y2="227.77"/><line x1="334.96" y1="237.62" x2="336.65" y2="218.60"/><line x1="311.59" y1="214.06" x2="310.04" y2="232.01"/><line x1="222.47" y1="445.65" x2="217.08" y2="449.48"/><line x1="222.01" y1="154.41" x2="222.40" y2="147.26"/><line x1="110.55" y1="370.16" x2="105.84" y2="386.34"/><line x1="126.25" y1="385.83" x2="130.10" y2="379.98"/><line x1="369.27" y1="43.42" x2="366.05" y2="63.37"/><line x1="293.23" y1="59.27" x2="289.87" y2="41.08"/><line x1="265.64" y1="236.24" x2="263.12" y2="235.83"/><line x1="130.10" y1="419.01" x2="128.28" y2="412.70"/><line x1="213.37" y1="291.46" x2="211.20" y2="295.16"/><line x1="126.16" y1="420.40" x2="128.85" y2="426.87"/><line x1="407.42" y1="106.82" x2="389.88" y2="112.79"/><line x1="351.63" y1="219.99" x2="347.63" y2="217.29"/><line x1="373.94" y1="291.82" x2="394.57" y2="278.17"/><line x1="387.80" y1="112.79" x2="385.35" y2="106.10"/><line x1="307.24" y1="57.12" x2="301.19" y2="59.62"/><line x1="356.96" y1="64.56" x2="351.42" y2="61.50"/><line x1="219.29" y1="453.02" x2="225.07" y2="448.92"/><line x1="380.46" y1="131.61" x2="382.21" y2="125.53"/><line x1="230.09" y1="180.88" x2="233.38" y2="186.83"/><line x1="229.67" y1="167.15" x2="248.08" y2="167.12"/><line x1="296.55" y1="64.57" x2="291.35" y2="68.26"/><line x1="130.31" y1="386.76" x2="129.25" y2="393.04"/><line x1="251.82" y1="175.04" x2="257.43" y2="182.11"/><line x1="146.85" y1="395.20" x2="128.89" y2="399.49"/><line x1="353.26" y1="275.22" x2="370.85" y2="277.38"/><line x1="213.47" y1="427.20" x2="342.03" y2="298.63"/><line x1="367.50" y1="245.36" x2="370.00" y2="251.41"/><line x1="364.32" y1="302.24" x2="366.09" y2="303.35"/><line x1="205.97" y1="457.14" x2="199.44" y2="459.01"/><line x1="147.77" y1="447.28" x2="144.07" y2="441.19"/><line x1="356.03" y1="312.62" x2="227.46" y2="441.18"/><line x1="126.81" y1="399.50" x2="127.18" y2="392.82"/><line x1="319.60" y1="50.06" x2="326.75" y2="49.66"/><line x1="269.60" y1="55.63" x2="287.46" y2="63.37"/><line x1="383.68" y1="140.16" x2="399.83" y2="147.08"/><line x1="382.02" y1="314.66" x2="367.86" y2="304.45"/><line x1="333.44" y1="54.20" x2="333.68" y2="52.13"/><line x1="386.36" y1="91.90" x2="388.30" y2="98.65"/><line x1="379.92" y1="87.22" x2="381.80" y2="86.32"/><line x1="371.28" y1="148.19" x2="374.98" y2="142.99"/><line x1="224.08" y1="154.41" x2="226.54" y2="161.10"/><line x1="386.27" y1="126.46" x2="387.41" y2="119.71"/><line x1="288.76" y1="65.00" x2="285.07" y2="71.10"/><line x1="148.71" y1="412.21" x2="134.48" y2="424.16"/><line x1="246.61" y1="199.05" x2="245.26" y2="200.63"/><line x1="314.05" y1="75.73" x2="302.10" y2="61.50"/><line x1="306.84" y1="208.13" x2="311.47" y2="207.78"/><line x1="264.51" y1="187.73" x2="258.23" y2="204.54"/><line x1="365.62" y1="295.59" x2="368.04" y2="289.76"/><line x1="352.70" y1="226.15" x2="354.06" y2="224.57"/><line x1="351.35" y1="227.74" x2="347.94" y2="225.03"/><line x1="227.46" y1="441.18" x2="222.47" y2="445.65"/><line x1="263.68" y1="213.79" x2="259.41" y2="212.07"/><line x1="205.26" y1="289.21" x2="199.30" y2="294.45"/><line x1="132.61" y1="425.06" x2="130.72" y2="425.97"/><line x1="203.53" y1="139.85" x2="223.59" y2="140.27"/><line x1="128.85" y1="372.13" x2="110.55" y2="370.16"/><line x1="187.42" y1="295.16" x2="187.56" y2="283.40"/><line x1="211.79" y1="117.83" x2="240.49" y2="109.77"/><line x1="407.04" y1="120.64" x2="388.30" y2="126.93"/><line x1="226.54" y1="468.84" x2="213.14" y2="456.42"/><line x1="105.84" y1="386.34" x2="104.58" y2="403.28"/><line x1="132.25" y1="433.02" x2="136.35" y2="438.79"/><line x1="387.42" y1="105.87" x2="386.27" y2="99.12"/><line x1="343.45" y1="214.91" x2="339.10" y2="212.85"/><line x1="375.89" y1="285.07" x2="377.07" y2="278.09"/><line x1="339.47" y1="75.73" x2="345.58" y2="59.08"/><line x1="132.06" y1="380.67" x2="130.31" y2="386.76"/><line x1="225.62" y1="140.74" x2="224.47" y2="147.49"/><line x1="300.28" y1="57.74" x2="294.34" y2="61.03"/><line x1="187.42" y1="295.16" x2="193.35" y2="308.54"/><line x1="345.58" y1="59.08" x2="339.50" y2="57.33"/><line x1="231.42" y1="173.23" x2="233.84" y2="179.07"/><line x1="273.26" y1="212.17" x2="277.38" y2="212.86"/><line x1="238.98" y1="191.12" x2="243.43" y2="196.11"/><line x1="233.84" y1="179.07" x2="251.82" y2="175.04"/><line x1="342.03" y1="298.63" x2="347.65" y2="291.55"/><line x1="342.49" y1="216.75" x2="346.53" y2="219.06"/><line x1="302.54" y1="210.90" x2="307.01" y2="210.22"/><line x1="332.60" y1="217.05" x2="328.42" y2="215.82"/><line x1="318.63" y1="232.01" x2="311.59" y2="214.06"/><line x1="360.49" y1="307.63" x2="356.03" y2="312.62"/><line x1="370.00" y1="251.41" x2="371.82" y2="257.72"/><line x1="263.12" y1="235.83" x2="211.90" y2="289.98"/><line x1="142.60" y1="442.66" x2="137.98" y2="437.50"/><line x1="199.44" y1="459.01" x2="192.69" y2="460.15"/><line x1="240.49" y1="109.77" x2="227.98" y2="97.26"/><line x1="211.20" y1="295.16" x2="208.95" y2="287.04"/><line x1="127.18" y1="392.82" x2="128.28" y2="386.30"/><line x1="383.68" y1="85.42" x2="401.78" y2="79.52"/><line x1="326.30" y1="32.00" x2="333.91" y2="50.06"/><line x1="203.53" y1="139.85" x2="211.79" y2="117.83"/><line x1="384.40" y1="133.00" x2="384.25" y2="125.99"/><line x1="380.28" y1="146.31" x2="392.96" y2="159.10"/><line x1="326.76" y1="53.83" x2="326.75" y2="51.74"/><line x1="125.55" y1="452.96" x2="141.13" y2="444.14"/><line x1="312.83" y1="182.11" x2="351.63" y2="219.99"/><line x1="224.47" y1="161.33" x2="227.64" y2="167.62"/><line x1="362.16" y1="68.26" x2="356.96" y2="64.56"/><line x1="152.46" y1="378.87" x2="134.48" y2="374.84"/><line x1="247.97" y1="197.48" x2="251.22" y2="200.08"/><line x1="227.64" y1="167.62" x2="225.62" y2="168.09"/><line x1="285.70" y1="213.37" x2="285.72" y2="215.45"/><line x1="246.21" y1="158.71" x2="229.67" y2="167.15"/><line x1="205.26" y1="312.99" x2="211.20" y2="307.05"/><line x1="198.48" y1="436.55" x2="210.43" y2="450.79"/><line x1="152.45" y1="420.13" x2="141.24" y2="434.91"/><line x1="285.72" y1="215.45" x2="289.87" y2="213.19"/><line x1="334.96" y1="237.62" x2="340.57" y2="220.45"/><line x1="356.03" y1="229.24" x2="357.50" y2="227.77"/><line x1="327.05" y1="233.88" x2="318.63" y2="232.01"/><line x1="299.05" y1="216.00" x2="294.65" y2="216.83"/><line x1="223.77" y1="447.28" x2="217.08" y2="449.48"/><line x1="172.56" y1="456.98" x2="166.25" y2="455.17"/><line x1="240.49" y1="199.05" x2="260.58" y2="235.42"/><line x1="265.64" y1="236.24" x2="240.49" y2="199.05"/><line x1="130.10" y1="419.01" x2="128.13" y2="419.71"/><line x1="130.73" y1="373.03" x2="134.02" y2="367.08"/><line x1="301.52" y1="36.26" x2="313.76" y2="33.21"/><line x1="126.17" y1="378.61" x2="124.22" y2="385.36"/><line x1="173.36" y1="479.22" x2="191.22" y2="480.00"/><line x1="219.29" y1="453.02" x2="242.92" y2="456.65"/><line x1="122.64" y1="399.50" x2="114.02" y2="437.16"/><line x1="378.51" y1="145.21" x2="381.80" y2="139.26"/><line x1="374.96" y1="217.35" x2="358.97" y2="226.29"/><line x1="242.92" y1="456.65" x2="225.07" y2="448.92"/><line x1="339.50" y1="57.33" x2="333.20" y2="56.27"/><line x1="339.96" y1="55.30" x2="333.44" y2="54.20"/><line x1="360.07" y1="92.16" x2="354.46" y2="85.08"/><line x1="329.96" y1="209.76" x2="325.38" y2="208.76"/><line x1="146.85" y1="395.20" x2="129.25" y2="393.04"/><line x1="224.47" y1="147.49" x2="224.08" y2="154.41"/><line x1="298.59" y1="213.96" x2="302.86" y2="212.97"/><line x1="331.05" y1="73.86" x2="333.20" y2="56.27"/><line x1="129.25" y1="393.04" x2="128.89" y2="399.49"/><line x1="213.47" y1="427.20" x2="225.99" y2="439.71"/><line x1="277.38" y1="212.86" x2="281.53" y2="213.26"/><line x1="367.50" y1="245.36" x2="369.38" y2="244.46"/><line x1="243.43" y1="196.11" x2="246.61" y2="199.05"/><line x1="225.99" y1="439.71" x2="342.03" y2="298.63"/><line x1="346.53" y1="219.06" x2="350.40" y2="221.67"/><line x1="205.97" y1="457.14" x2="198.97" y2="456.99"/><line x1="324.28" y1="214.92" x2="318.63" y2="232.01"/><line x1="356.03" y1="312.62" x2="228.93" y2="442.66"/><line x1="198.97" y1="456.99" x2="199.44" y2="459.01"/><line x1="126.81" y1="399.50" x2="124.72" y2="399.50"/><line x1="137.98" y1="437.50" x2="134.01" y2="431.91"/><line x1="124.72" y1="399.50" x2="127.18" y2="392.82"/><line x1="107.17" y1="420.41" x2="114.02" y2="437.16"/><line x1="269.60" y1="55.63" x2="282.12" y2="68.14"/><line x1="135.78" y1="430.81" x2="132.61" y2="425.06"/><line x1="114.02" y1="437.16" x2="125.55" y2="452.96"/><line x1="386.36" y1="91.90" x2="405.66" y2="93.02"/><line x1="118.28" y1="355.30" x2="128.85" y2="372.13"/><line x1="363.75" y1="310.22" x2="367.86" y2="304.45"/><line x1="369.92" y1="155.95" x2="374.54" y2="150.79"/><line x1="405.66" y1="93.02" x2="388.30" y2="98.65"/><line x1="386.27" y1="126.46" x2="385.35" y2="119.48"/><line x1="320.07" y1="54.20" x2="313.55" y2="55.30"/><line x1="360.07" y1="133.41" x2="374.98" y2="142.99"/><line x1="385.35" y1="119.48" x2="387.41" y2="119.71"/><line x1="374.98" y1="142.99" x2="378.05" y2="137.45"/><line x1="314.05" y1="75.73" x2="307.93" y2="59.08"/><line x1="319.84" y1="52.13" x2="313.55" y2="55.30"/><line x1="307.93" y1="59.08" x2="302.10" y2="61.50"/><line x1="134.48" y1="374.84" x2="132.06" y2="380.67"/><line x1="264.51" y1="187.73" x2="254.65" y2="202.44"/><line x1="365.62" y1="295.59" x2="351.39" y2="283.64"/><line x1="229.46" y1="173.93" x2="227.49" y2="174.62"/><line x1="290.04" y1="215.26" x2="294.33" y2="214.76"/><line x1="254.65" y1="202.44" x2="258.23" y2="204.54"/><line x1="210.43" y1="450.79" x2="215.97" y2="447.72"/><line x1="307.36" y1="214.40" x2="303.17" y2="215.04"/><line x1="141.24" y1="434.91" x2="145.54" y2="439.72"/><line x1="353.26" y1="275.22" x2="353.26" y2="266.64"/><line x1="360.49" y1="234.23" x2="364.32" y2="239.61"/><line x1="205.26" y1="289.21" x2="194.15" y2="289.00"/><line x1="218.18" y1="451.25" x2="212.24" y2="454.54"/><line x1="299.38" y1="55.86" x2="305.86" y2="53.19"/><line x1="128.28" y1="412.70" x2="127.18" y2="406.18"/><line x1="187.42" y1="295.16" x2="141.13" y2="354.86"/><line x1="211.79" y1="117.83" x2="235.71" y2="115.12"/><line x1="305.86" y1="53.19" x2="301.52" y2="36.26"/><line x1="141.13" y1="354.86" x2="136.36" y2="360.20"/><line x1="126.25" y1="413.17" x2="125.11" y2="406.42"/><line x1="105.84" y1="386.34" x2="122.64" y2="399.50"/><line x1="389.49" y1="119.95" x2="388.30" y2="126.93"/><line x1="380.27" y1="79.27" x2="383.68" y2="85.42"/><line x1="384.25" y1="99.58" x2="386.27" y2="99.12"/><line x1="230.41" y1="444.14" x2="358.97" y2="315.56"/><line x1="381.80" y1="139.26" x2="384.40" y2="133.00"/><line x1="386.27" y1="99.12" x2="382.43" y2="93.27"/><line x1="300.28" y1="57.74" x2="295.45" y2="62.80"/><line x1="295.45" y1="62.80" x2="294.34" y2="61.03"/><line x1="238.98" y1="191.12" x2="237.35" y2="192.41"/><line x1="326.75" y1="55.91" x2="320.31" y2="56.27"/><line x1="237.35" y1="192.41" x2="243.43" y2="196.11"/><line x1="302.54" y1="210.90" x2="307.19" y2="212.30"/><line x1="257.43" y1="182.11" x2="247.97" y2="197.48"/><line x1="146.84" y1="403.79" x2="129.25" y2="405.94"/><line x1="307.19" y1="212.30" x2="307.01" y2="210.22"/><line x1="370.00" y1="251.41" x2="371.97" y2="250.73"/><line x1="354.56" y1="311.15" x2="358.86" y2="306.33"/><line x1="228.93" y1="442.66" x2="223.77" y2="447.28"/><line x1="371.97" y1="250.73" x2="371.82" y2="257.72"/><line x1="199.44" y1="459.01" x2="192.45" y2="458.09"/><line x1="211.20" y1="295.16" x2="205.74" y2="300.69"/><line x1="192.45" y1="458.09" x2="192.69" y2="460.15"/><line x1="127.18" y1="392.82" x2="125.11" y2="392.58"/><line x1="287.46" y1="63.37" x2="293.23" y2="59.27"/><line x1="125.11" y1="392.58" x2="128.28" y2="386.30"/><line x1="203.53" y1="139.85" x2="228.21" y2="127.04"/><line x1="279.14" y1="47.56" x2="289.87" y2="41.08"/><line x1="123.04" y1="406.65" x2="124.22" y2="413.63"/><line x1="389.48" y1="105.63" x2="389.88" y2="112.79"/><line x1="387.41" y1="119.71" x2="387.80" y2="112.79"/><line x1="226.54" y1="468.84" x2="242.92" y2="456.65"/><line x1="390.09" y1="297.63" x2="371.26" y2="298.30"/><line x1="286.63" y1="243.23" x2="211.20" y2="295.16"/><line x1="385.72" y1="112.79" x2="385.35" y2="106.10"/><line x1="313.55" y1="55.30" x2="307.24" y2="57.12"/><line x1="378.05" y1="137.45" x2="363.81" y2="125.50"/><line x1="302.10" y1="61.50" x2="296.55" y2="64.57"/><line x1="313.09" y1="53.27" x2="306.55" y2="55.15"/><line x1="227.49" y1="174.62" x2="230.09" y2="180.88"/><line x1="339.47" y1="75.73" x2="331.05" y2="73.86"/><line x1="152.45" y1="420.13" x2="137.55" y2="429.71"/><line x1="231.97" y1="179.98" x2="235.14" y2="185.72"/><line x1="306.14" y1="79.47" x2="296.55" y2="64.57"/><line x1="137.55" y1="429.71" x2="141.24" y2="434.91"/><line x1="368.04" y1="289.76" x2="369.79" y2="283.67"/><line x1="294.33" y1="214.76" x2="298.59" y2="213.96"/><line x1="261.95" y1="206.37" x2="272.42" y2="191.47"/><line x1="327.05" y1="233.88" x2="324.28" y2="214.92"/><line x1="369.79" y1="283.67" x2="353.26" y2="275.22"/><line x1="299.05" y1="216.00" x2="301.62" y2="233.88"/><line x1="364.32" y1="239.61" x2="367.50" y2="245.36"/><line x1="221.17" y1="444.02" x2="225.99" y2="439.71"/><line x1="172.56" y1="456.98" x2="172.10" y2="459.01"/><line x1="301.62" y1="233.88" x2="294.65" y2="216.83"/><line x1="366.09" y1="238.51" x2="369.38" y2="244.46"/><line x1="212.24" y1="454.54" x2="205.97" y2="457.14"/><line x1="130.73" y1="373.03" x2="135.78" y2="368.19"/><line x1="263.12" y1="235.83" x2="260.58" y2="235.42"/><line x1="199.31" y1="283.26" x2="245.87" y2="225.09"/><line x1="301.52" y1="36.26" x2="312.62" y2="51.24"/><line x1="205.28" y1="455.17" x2="198.97" y2="456.99"/><line x1="127.18" y1="406.18" x2="126.81" y2="399.50"/><line x1="240.49" y1="109.77" x2="282.12" y2="68.14"/><line x1="312.62" y1="51.24" x2="313.76" y2="33.21"/><line x1="125.11" y1="406.42" x2="124.72" y2="399.50"/><line x1="122.64" y1="399.50" x2="107.17" y2="420.41"/><line x1="139.99" y1="465.58" x2="146.47" y2="448.92"/><line x1="404.51" y1="134.15" x2="386.36" y2="133.68"/><line x1="394.30" y1="257.50" x2="377.07" y2="263.77"/><line x1="240.49" y1="199.05" x2="235.71" y2="193.71"/><line x1="382.43" y1="93.27" x2="384.40" y2="92.58"/><line x1="358.97" y1="315.56" x2="363.75" y2="310.22"/><line x1="365.68" y1="108.50" x2="383.28" y2="106.34"/><line x1="294.34" y1="61.03" x2="290.05" y2="66.63"/><line x1="312.83" y1="182.11" x2="343.45" y2="214.91"/><line x1="257.43" y1="126.71" x2="240.61" y2="119.00"/><line x1="290.05" y1="66.63" x2="288.76" y2="65.00"/><line x1="243.43" y1="196.11" x2="241.97" y2="197.58"/><line x1="307.01" y1="210.22" x2="311.51" y2="209.87"/><line x1="130.31" y1="412.24" x2="132.06" y2="418.32"/><line x1="277.65" y1="210.81" x2="281.66" y2="211.19"/><line x1="241.97" y1="197.58" x2="246.61" y2="199.05"/><line x1="371.82" y1="257.72" x2="372.93" y2="264.24"/><line x1="347.65" y1="291.55" x2="365.62" y2="295.59"/><line x1="311.56" y1="211.96" x2="311.51" y2="209.87"/><line x1="334.96" y1="237.62" x2="327.05" y2="233.88"/><line x1="311.59" y1="214.06" x2="307.36" y2="214.40"/><line x1="231.61" y1="187.94" x2="228.21" y2="181.79"/><line x1="373.85" y1="257.26" x2="372.93" y2="264.24"/><line x1="185.77" y1="458.46" x2="179.08" y2="458.09"/><line x1="310.04" y1="232.01" x2="303.17" y2="215.04"/><line x1="135.78" y1="430.81" x2="134.01" y2="431.91"/><line x1="126.25" y1="385.83" x2="128.13" y2="379.30"/><line x1="293.23" y1="59.27" x2="299.38" y2="55.86"/><line x1="265.64" y1="236.24" x2="211.90" y2="289.98"/><line x1="289.87" y1="41.08" x2="305.86" y2="53.19"/><line x1="407.42" y1="106.82" x2="407.04" y2="120.64"/><line x1="371.40" y1="157.43" x2="383.91" y2="169.94"/><line x1="373.94" y1="291.82" x2="375.89" y2="285.07"/><line x1="389.88" y1="112.79" x2="389.49" y2="119.95"/><line x1="387.80" y1="112.79" x2="387.42" y2="105.87"/><line x1="374.54" y1="74.79" x2="368.45" y2="71.10"/><line x1="394.57" y1="278.17" x2="377.07" y2="278.09"/><line x1="385.35" y1="106.10" x2="384.25" y2="99.58"/><line x1="242.92" y1="456.65" x2="371.49" y2="328.08"/><line x1="238.98" y1="117.71" x2="237.34" y2="116.41"/><line x1="382.21" y1="125.53" x2="383.28" y2="119.24"/><line x1="306.55" y1="55.15" x2="300.28" y2="57.74"/><line x1="252.42" y1="205.95" x2="257.24" y2="206.37"/><line x1="291.35" y1="68.26" x2="286.54" y2="72.57"/><line x1="146.85" y1="395.20" x2="146.84" y2="403.79"/><line x1="141.24" y1="434.91" x2="158.06" y2="427.20"/><line x1="353.26" y1="275.22" x2="371.22" y2="270.93"/><line x1="235.14" y1="185.72" x2="238.98" y2="191.12"/><line x1="331.05" y1="73.86" x2="322.47" y2="73.86"/><line x1="324.65" y1="212.86" x2="325.02" y2="210.81"/><line x1="158.06" y1="427.20" x2="145.54" y2="439.72"/><line x1="370.85" y1="277.38" x2="371.22" y2="270.93"/><line x1="211.90" y1="289.98" x2="211.20" y2="295.16"/><line x1="290.21" y1="217.33" x2="293.71" y2="237.62"/><line x1="193.35" y1="308.54" x2="144.07" y2="357.80"/><line x1="126.25" y1="413.17" x2="127.18" y2="406.18"/><line x1="165.56" y1="457.14" x2="160.20" y2="452.66"/><line x1="231.61" y1="120.89" x2="235.71" y2="115.12"/><line x1="123.04" y1="392.35" x2="122.64" y2="399.50"/><line x1="139.61" y1="362.79" x2="137.99" y2="361.50"/><line x1="269.60" y1="55.63" x2="279.14" y2="47.56"/><line x1="383.68" y1="140.16" x2="380.28" y2="146.31"/><line x1="230.41" y1="444.14" x2="371.49" y2="328.08"/><line x1="382.02" y1="314.66" x2="390.09" y2="297.63"/><line x1="152.25" y1="453.02" x2="156.11" y2="474.37"/><line x1="379.92" y1="87.22" x2="376.74" y2="81.48"/><line x1="375.88" y1="256.79" x2="388.15" y2="236.83"/><line x1="381.80" y1="86.32" x2="378.51" y2="80.37"/><line x1="288.76" y1="65.00" x2="283.59" y2="69.63"/><line x1="326.75" y1="55.91" x2="322.47" y2="73.86"/><line x1="360.07" y1="133.41" x2="363.81" y2="125.50"/><line x1="382.21" y1="100.05" x2="363.81" y2="100.08"/><line x1="194.81" y1="310.01" x2="205.26" y2="312.99"/><line x1="285.07" y1="71.10" x2="243.43" y2="112.72"/><line x1="246.61" y1="199.05" x2="249.98" y2="201.76"/><line x1="314.05" y1="75.73" x2="306.14" y2="79.47"/><line x1="251.82" y1="133.79" x2="236.91" y2="124.21"/><line x1="173.05" y1="436.56" x2="166.94" y2="453.20"/><line x1="245.26" y1="200.63" x2="248.74" y2="203.42"/><line x1="264.51" y1="187.73" x2="261.95" y2="206.37"/><line x1="352.70" y1="226.15" x2="356.03" y2="229.24"/><line x1="368.04" y1="252.10" x2="365.62" y2="246.27"/><line x1="315.94" y1="211.95" x2="320.31" y2="212.25"/><line x1="375.00" y1="264.01" x2="375.38" y2="270.93"/><line x1="205.26" y1="289.21" x2="199.31" y2="283.26"/><line x1="179.08" y1="458.09" x2="172.56" y2="456.98"/><line x1="279.14" y1="47.56" x2="293.23" y2="59.27"/><line x1="206.73" y1="182.92" x2="223.59" y2="168.55"/><line x1="128.13" y1="379.30" x2="130.73" y2="373.03"/><line x1="187.42" y1="295.16" x2="193.36" y2="289.20"/><line x1="211.79" y1="117.83" x2="227.98" y2="97.26"/><line x1="389.48" y1="105.63" x2="407.42" y2="106.82"/><line x1="194.15" y1="289.00" x2="199.31" y2="283.26"/><line x1="407.04" y1="120.64" x2="404.51" y2="134.15"/><line x1="347.65" y1="53.19" x2="360.33" y2="38.95"/><line x1="385.72" y1="112.79" x2="387.80" y2="112.79"/><line x1="353.60" y1="200.26" x2="338.83" y2="190.00"/><line x1="313.09" y1="53.27" x2="307.24" y2="57.12"/><line x1="369.92" y1="69.63" x2="363.46" y2="66.63"/><line x1="217.15" y1="301.10" x2="211.58" y2="306.44"/><line x1="354.46" y1="85.08" x2="366.98" y2="72.57"/><line x1="235.14" y1="123.11" x2="233.38" y2="122.00"/><line x1="193.36" y1="301.10" x2="199.31" y2="295.15"/><line x1="233.84" y1="179.07" x2="236.91" y2="184.62"/><line x1="150.36" y1="444.03" x2="155.56" y2="447.72"/><line x1="298.13" y1="211.93" x2="298.59" y2="213.96"/><line x1="221.17" y1="444.02" x2="213.47" y2="427.20"/><line x1="257.43" y1="182.11" x2="264.51" y2="187.73"/><line x1="146.84" y1="403.79" x2="148.71" y2="412.21"/><line x1="273.68" y1="210.14" x2="277.65" y2="210.81"/><line x1="353.26" y1="266.64" x2="369.79" y2="258.19"/><line x1="366.09" y1="238.51" x2="367.50" y2="245.36"/><line x1="205.28" y1="455.17" x2="205.97" y2="457.14"/><line x1="211.20" y1="295.16" x2="205.26" y2="289.21"/><line x1="235.71" y1="193.71" x2="231.61" y2="187.94"/><line x1="125.11" y1="406.42" x2="126.81" y2="399.50"/><line x1="326.30" y1="32.00" x2="338.83" y2="32.72"/><line x1="104.58" y1="403.28" x2="107.17" y2="420.41"/><line x1="144.07" y1="357.80" x2="142.61" y2="356.33"/><line x1="380.28" y1="146.31" x2="376.17" y2="152.08"/><line x1="358.97" y1="315.56" x2="382.02" y2="314.66"/><line x1="366.98" y1="153.01" x2="371.28" y2="148.19"/><line x1="390.09" y1="297.63" x2="394.57" y2="278.17"/><line x1="378.51" y1="80.37" x2="374.54" y2="74.79"/><line x1="320.31" y1="56.27" x2="314.02" y2="57.33"/><line x1="227.64" y1="167.62" x2="229.46" y2="173.93"/><line x1="243.43" y1="112.72" x2="238.98" y2="117.71"/><line x1="314.02" y1="57.33" x2="314.05" y2="75.73"/><line x1="152.45" y1="420.13" x2="158.06" y2="427.20"/><line x1="285.72" y1="215.45" x2="290.04" y2="215.26"/><line x1="248.74" y1="203.42" x2="252.42" y2="205.95"/><line x1="251.22" y1="200.08" x2="264.51" y2="187.73"/><line x1="362.56" y1="301.14" x2="365.62" y2="295.59"/><line x1="356.03" y1="229.24" x2="360.49" y2="234.23"/><line x1="185.77" y1="458.46" x2="185.77" y2="460.54"/><line x1="320.31" y1="212.25" x2="324.65" y2="212.86"/><line x1="310.04" y1="232.01" x2="307.36" y2="214.40"/><line x1="223.77" y1="447.28" x2="218.18" y2="451.25"/><line x1="375.38" y1="270.93" x2="375.00" y2="277.85"/><line x1="208.95" y1="287.04" x2="205.26" y2="289.21"/><line x1="301.62" y1="233.88" x2="293.71" y2="237.62"/><line x1="289.87" y1="41.08" x2="299.38" y2="55.86"/><line x1="222.41" y1="161.57" x2="202.18" y2="162.00"/><line x1="128.85" y1="426.87" x2="132.25" y2="433.02"/><line x1="389.88" y1="112.79" x2="407.04" y2="120.64"/><line x1="354.13" y1="55.86" x2="360.28" y2="59.27"/><line x1="336.41" y1="189.47" x2="369.92" y2="155.95"/><line x1="122.64" y1="399.50" x2="125.55" y2="452.96"/><line x1="394.57" y1="278.17" x2="375.89" y2="285.07"/><line x1="139.99" y1="465.58" x2="156.11" y2="474.37"/><line x1="385.35" y1="106.10" x2="387.42" y2="105.87"/><line x1="404.51" y1="134.15" x2="399.83" y2="147.08"/><line x1="242.92" y1="456.65" x2="230.41" y2="444.14"/><line x1="382.21" y1="125.53" x2="365.68" y2="117.08"/><line x1="394.30" y1="257.50" x2="388.15" y2="236.83"/><line x1="306.55" y1="55.15" x2="301.19" y2="59.62"/><line x1="291.35" y1="68.26" x2="299.06" y2="85.08"/><line x1="365.68" y1="108.50" x2="363.81" y2="100.08"/><line x1="301.19" y1="59.62" x2="300.28" y2="57.74"/><line x1="235.14" y1="185.72" x2="233.38" y2="186.83"/><line x1="312.83" y1="182.11" x2="334.60" y2="211.13"/><line x1="331.05" y1="73.86" x2="326.75" y2="55.91"/><line x1="299.06" y1="85.08" x2="286.54" y2="72.57"/><line x1="265.80" y1="207.92" x2="269.76" y2="209.19"/><line x1="233.38" y1="186.83" x2="238.98" y2="191.12"/><line x1="269.76" y1="209.19" x2="273.68" y2="210.14"/><line x1="225.99" y1="439.71" x2="354.56" y2="311.15"/><line x1="302.86" y1="212.97" x2="302.54" y2="210.90"/><line x1="324.28" y1="214.92" x2="320.08" y2="214.33"/><line x1="369.79" y1="258.19" x2="368.04" y2="252.10"/><line x1="369.38" y1="244.46" x2="370.00" y2="251.41"/><line x1="198.97" y1="456.99" x2="192.45" y2="458.09"/><line x1="367.50" y1="296.50" x2="364.32" y2="302.24"/><line x1="210.43" y1="288.51" x2="211.20" y2="295.16"/><line x1="286.63" y1="243.23" x2="217.15" y2="301.10"/><line x1="124.72" y1="399.50" x2="125.11" y2="392.58"/><line x1="153.35" y1="451.25" x2="147.77" y2="447.28"/><line x1="118.28" y1="355.30" x2="110.55" y2="370.16"/><line x1="405.66" y1="93.02" x2="389.48" y2="105.63"/><line x1="381.80" y1="86.32" x2="376.74" y2="81.48"/><line x1="125.55" y1="452.96" x2="123.04" y2="406.65"/><line x1="371.40" y1="157.43" x2="338.83" y2="190.00"/><line x1="367.86" y1="304.45" x2="371.26" y2="298.30"/><line x1="360.07" y1="133.41" x2="378.05" y2="137.45"/><line x1="385.35" y1="119.48" x2="385.72" y2="112.79"/><line x1="285.07" y1="71.10" x2="283.59" y2="69.63"/><line x1="319.84" y1="52.13" x2="313.09" y2="53.27"/><line x1="245.26" y1="200.63" x2="249.98" y2="201.76"/><line x1="132.06" y1="418.32" x2="134.48" y2="424.16"/><line x1="229.46" y1="173.93" x2="231.97" y2="179.98"/><line x1="249.98" y1="201.76" x2="248.74" y2="203.42"/><line x1="315.94" y1="211.95" x2="316.03" y2="209.86"/><line x1="134.48" y1="424.16" x2="152.45" y2="420.13"/><line x1="316.03" y1="209.86" x2="320.31" y2="212.25"/><line x1="375.00" y1="264.01" x2="373.29" y2="270.93"/><line x1="351.39" y1="283.64" x2="368.04" y2="289.76"/><line x1="342.04" y1="243.23" x2="351.35" y2="227.74"/><line x1="373.29" y1="270.93" x2="375.38" y2="270.93"/><line x1="179.08" y1="458.09" x2="178.85" y2="460.15"/><line x1="303.17" y1="215.04" x2="299.05" y2="216.00"/><line x1="265.64" y1="236.24" x2="263.68" y2="213.79"/><line x1="178.85" y1="460.15" x2="172.56" y2="456.98"/><line x1="128.13" y1="379.30" x2="132.61" y2="373.93"/><line x1="194.15" y1="289.00" x2="199.30" y2="294.45"/><line x1="305.86" y1="53.19" x2="312.62" y2="51.24"/><line x1="132.61" y1="373.93" x2="130.73" y2="373.03"/><line x1="210.43" y1="288.51" x2="208.95" y2="287.04"/><line x1="136.35" y1="438.79" x2="141.13" y2="444.14"/><line x1="384.25" y1="99.58" x2="382.43" y2="93.27"/><line x1="217.15" y1="301.10" x2="211.20" y2="295.16"/><line x1="377.07" y1="278.09" x2="377.46" y2="270.93"/><line x1="388.30" y1="126.93" x2="404.51" y2="134.15"/><line x1="386.27" y1="99.12" x2="384.40" y2="92.58"/><line x1="377.46" y1="270.93" x2="394.30" y2="257.50"/><line x1="383.28" y1="119.24" x2="383.63" y2="112.79"/><line x1="193.36" y1="301.10" x2="205.26" y2="301.10"/><line x1="295.45" y1="62.80" x2="290.05" y2="66.63"/><line x1="383.63" y1="112.79" x2="365.68" y2="108.50"/><line x1="286.54" y1="72.57" x2="244.91" y2="114.19"/><line x1="150.36" y1="444.03" x2="165.14" y2="432.82"/><line x1="194.81" y1="310.01" x2="145.55" y2="359.28"/><line x1="237.35" y1="192.41" x2="241.97" y2="197.58"/><line x1="257.43" y1="182.11" x2="251.22" y2="200.08"/><line x1="244.91" y1="114.19" x2="257.43" y2="126.71"/><line x1="146.84" y1="403.79" x2="130.31" y2="412.24"/><line x1="273.68" y1="210.14" x2="280.84" y2="193.34"/><line x1="165.14" y1="432.82" x2="155.56" y2="447.72"/><line x1="251.82" y1="133.79" x2="248.08" y2="141.71"/><line x1="353.26" y1="266.64" x2="370.85" y2="264.48"/><line x1="173.05" y1="436.56" x2="181.47" y2="438.42"/><line x1="307.19" y1="212.30" x2="311.56" y2="211.96"/><line x1="280.84" y1="193.34" x2="277.65" y2="210.81"/><line x1="370.85" y1="264.48" x2="369.79" y2="258.19"/><line x1="285.74" y1="217.53" x2="281.28" y2="217.42"/><line x1="371.97" y1="250.73" x2="373.85" y2="257.26"/><line x1="281.28" y1="217.42" x2="286.63" y2="243.23"/><line x1="235.71" y1="193.71" x2="216.20" y2="201.30"/><line x1="192.45" y1="458.09" x2="185.77" y2="458.46"/><line x1="216.20" y1="201.30" x2="231.61" y2="187.94"/><line x1="192.69" y1="460.15" x2="185.77" y2="460.54"/><line x1="125.11" y1="392.58" x2="126.25" y2="385.83"/><line x1="158.40" y1="456.42" x2="164.87" y2="459.10"/><line x1="333.91" y1="50.06" x2="338.83" y2="32.72"/><line x1="128.28" y1="386.30" x2="130.10" y2="379.98"/><line x1="392.96" y1="159.10" x2="376.17" y2="152.08"/><line x1="390.09" y1="297.63" x2="373.94" y2="291.82"/><line x1="378.51" y1="80.37" x2="372.91" y2="76.09"/><line x1="353.60" y1="200.26" x2="333.99" y2="188.94"/><line x1="378.05" y1="137.45" x2="380.46" y2="131.61"/><line x1="378.05" y1="88.12" x2="360.07" y2="92.16"/><line x1="372.91" y1="76.09" x2="374.54" y2="74.79"/><line x1="243.43" y1="112.72" x2="241.97" y2="111.25"/><line x1="363.81" y1="125.50" x2="382.21" y2="125.53"/><line x1="248.08" y1="141.71" x2="231.42" y2="135.59"/><line x1="241.97" y1="111.25" x2="238.98" y2="117.71"/><line x1="248.74" y1="203.42" x2="253.53" y2="204.20"/><line x1="306.14" y1="79.47" x2="291.35" y2="68.26"/><line x1="293.71" y1="210.65" x2="297.67" y2="209.90"/><line x1="253.53" y1="204.20" x2="252.42" y2="205.95"/><line x1="320.31" y1="212.25" x2="320.53" y2="210.17"/><line x1="261.95" y1="206.37" x2="265.80" y2="207.92"/><line x1="320.77" y1="208.10" x2="316.12" y2="207.77"/><line x1="297.67" y1="209.90" x2="297.84" y2="191.47"/><line x1="369.79" y1="283.67" x2="370.85" y2="277.38"/><line x1="298.13" y1="211.93" x2="302.54" y2="210.90"/><line x1="320.53" y1="210.17" x2="324.65" y2="212.86"/><line x1="375.38" y1="270.93" x2="372.93" y2="277.62"/><line x1="301.62" y1="233.88" x2="290.21" y2="217.33"/><line x1="372.93" y1="277.62" x2="375.00" y2="277.85"/><line x1="199.31" y1="283.26" x2="193.50" y2="277.45"/><line x1="172.10" y1="459.01" x2="166.25" y2="455.17"/><line x1="245.87" y1="225.09" x2="229.58" y2="215.80"/><line x1="312.62" y1="51.24" x2="319.60" y2="50.06"/><line x1="336.41" y1="189.47" x2="333.99" y2="188.94"/><line x1="135.78" y1="368.19" x2="134.02" y2="367.08"/><line x1="139.99" y1="465.58" x2="152.25" y2="453.02"/><line x1="313.76" y1="33.21" x2="326.75" y2="49.66"/><line x1="404.51" y1="134.15" x2="383.68" y2="140.16"/><line x1="394.30" y1="257.50" x2="375.88" y2="256.79"/><line x1="382.43" y1="93.27" x2="379.92" y2="87.22"/><line x1="365.68" y1="108.50" x2="382.21" y2="100.05"/><line x1="384.40" y1="92.58" x2="381.80" y2="86.32"/><line x1="294.34" y1="61.03" x2="288.76" y2="65.00"/><line x1="312.83" y1="182.11" x2="339.10" y2="212.85"/><line x1="230.09" y1="127.95" x2="229.46" y2="134.90"/><line x1="257.43" y1="126.71" x2="251.82" y2="133.79"/><line x1="290.05" y1="66.63" x2="285.07" y2="71.10"/><line x1="265.09" y1="209.88" x2="264.39" y2="211.84"/><line x1="240.61" y1="119.00" x2="236.91" y2="124.21"/><line x1="199.31" y1="307.05" x2="194.81" y2="310.01"/><line x1="155.56" y1="447.72" x2="161.10" y2="450.78"/><line x1="241.97" y1="197.58" x2="245.26" y2="200.63"/><line x1="333.93" y1="213.10" x2="337.47" y2="216.69"/><line x1="347.65" y1="291.55" x2="351.39" y2="283.64"/><line x1="161.10" y1="450.78" x2="173.05" y2="436.56"/><line x1="369.79" y1="258.19" x2="351.39" y2="258.22"/><line x1="311.56" y1="211.96" x2="315.94" y2="211.95"/><line x1="367.50" y1="296.50" x2="369.38" y2="297.40"/><line x1="351.39" y1="258.22" x2="368.04" y2="252.10"/><line x1="286.63" y1="243.23" x2="276.83" y2="216.99"/><line x1="311.51" y1="209.87" x2="316.03" y2="209.86"/><line x1="373.85" y1="257.26" x2="375.00" y2="264.01"/><line x1="369.38" y1="297.40" x2="364.32" y2="302.24"/><line x1="153.35" y1="451.25" x2="149.07" y2="445.66"/><line x1="310.04" y1="232.01" x2="299.05" y2="216.00"/><line x1="372.93" y1="264.24" x2="373.29" y2="270.93"/><line x1="149.07" y1="445.66" x2="147.77" y2="447.28"/><line x1="228.21" y1="181.79" x2="225.53" y2="175.31"/><line x1="185.77" y1="460.54" x2="178.85" y2="460.15"/><line x1="190.40" y1="305.60" x2="141.13" y2="354.86"/><line x1="289.87" y1="41.08" x2="301.52" y2="36.26"/><line x1="340.90" y1="51.24" x2="351.06" y2="35.47"/><line x1="260.58" y1="235.42" x2="245.87" y2="225.09"/><line x1="371.40" y1="157.43" x2="353.60" y2="200.26"/><line x1="130.10" y1="379.98" x2="132.61" y2="373.93"/><line x1="367.86" y1="304.45" x2="390.09" y2="297.63"/><line x1="171.63" y1="461.04" x2="178.61" y2="462.23"/><line x1="374.54" y1="74.79" x2="369.92" y2="69.63"/><line x1="394.57" y1="278.17" x2="377.46" y2="270.93"/><line x1="367.86" y1="237.41" x2="363.75" y2="231.64"/><line x1="238.98" y1="117.71" x2="235.14" y2="123.11"/><line x1="374.98" y1="82.58" x2="371.28" y2="77.38"/><line x1="158.07" y1="371.80" x2="211.20" y2="307.05"/><line x1="252.42" y1="205.95" x2="256.26" y2="208.21"/><line x1="229.67" y1="141.67" x2="246.21" y2="150.12"/><line x1="185.77" y1="456.37" x2="190.06" y2="438.42"/><line x1="237.34" y1="116.41" x2="235.14" y2="123.11"/><line x1="257.24" y1="206.37" x2="261.11" y2="208.27"/><line x1="312.83" y1="182.11" x2="325.38" y2="208.76"/><line x1="324.65" y1="212.86" x2="328.94" y2="213.79"/><line x1="299.06" y1="85.08" x2="257.43" y2="126.71"/><line x1="158.06" y1="427.20" x2="150.36" y2="444.03"/><line x1="297.84" y1="191.47" x2="302.23" y2="208.84"/><line x1="342.04" y1="243.23" x2="354.56" y2="230.71"/><line x1="325.02" y1="210.81" x2="329.45" y2="211.78"/><line x1="265.64" y1="236.24" x2="268.08" y2="215.20"/><line x1="371.82" y1="284.14" x2="370.00" y2="290.45"/><line x1="371.22" y1="270.93" x2="370.85" y2="264.48"/><line x1="290.21" y1="217.33" x2="285.74" y2="217.53"/><line x1="268.08" y1="215.20" x2="263.68" y2="213.79"/><line x1="165.56" y1="457.14" x2="159.30" y2="454.54"/><line x1="293.71" y1="237.62" x2="281.28" y2="217.42"/><line x1="286.63" y1="243.23" x2="268.18" y2="236.65"/><line x1="222.40" y1="147.26" x2="203.53" y2="139.85"/><line x1="139.61" y1="362.79" x2="144.07" y2="357.80"/><line x1="229.58" y1="215.80" x2="216.20" y2="201.30"/><line x1="366.05" y1="63.37" x2="377.65" y2="48.85"/><line x1="152.25" y1="453.02" x2="158.40" y2="456.42"/><line x1="353.60" y1="200.26" x2="374.96" y2="217.35"/><line x1="326.75" y1="49.66" x2="333.91" y2="50.06"/><line x1="368.45" y1="154.48" x2="372.91" y2="149.49"/><line x1="156.11" y1="474.37" x2="164.87" y2="459.10"/><line x1="375.88" y1="256.79" x2="373.94" y2="250.04"/><line x1="399.83" y1="147.08" x2="392.96" y2="159.10"/><line x1="125.55" y1="452.96" x2="126.16" y2="420.40"/><line x1="352.32" y1="59.62" x2="353.23" y2="57.74"/><line x1="388.15" y1="236.83" x2="371.26" y2="243.56"/><line x1="382.21" y1="100.05" x2="380.46" y2="93.96"/><line x1="194.81" y1="310.01" x2="187.42" y2="295.16"/><line x1="227.49" y1="134.21" x2="227.64" y2="141.21"/><line x1="363.81" y1="100.08" x2="378.05" y2="88.12"/><line x1="251.82" y1="133.79" x2="233.84" y2="129.75"/><line x1="173.05" y1="436.56" x2="173.03" y2="454.95"/><line x1="269.20" y1="211.20" x2="268.64" y2="213.20"/><line x1="264.51" y1="187.73" x2="272.42" y2="191.47"/><line x1="338.28" y1="214.76" x2="341.53" y2="218.61"/><line x1="289.71" y1="211.11" x2="293.71" y2="210.65"/><line x1="365.62" y1="246.27" x2="362.56" y2="240.73"/><line x1="351.39" y1="283.64" x2="353.26" y2="275.22"/><line x1="192.69" y1="460.15" x2="185.77" y2="458.46"/><line x1="366.09" y1="303.35" x2="360.49" y2="307.63"/><line x1="211.58" y1="306.44" x2="205.74" y2="300.69"/><line x1="206.73" y1="182.92" x2="222.41" y2="161.57"/><line x1="128.28" y1="386.30" x2="126.25" y2="385.83"/><line x1="144.07" y1="441.19" x2="142.60" y2="442.66"/><line x1="347.65" y1="53.19" x2="354.13" y2="55.86"/><line x1="124.22" y1="413.63" x2="126.16" y2="420.40"/><line x1="187.56" y1="283.40" x2="193.36" y2="289.20"/><line x1="360.33" y1="38.95" x2="360.28" y2="59.27"/><line x1="353.60" y1="200.26" x2="336.41" y2="189.47"/><line x1="371.26" y1="298.30" x2="373.94" y2="291.82"/><line x1="191.22" y1="480.00" x2="185.77" y2="462.63"/><line x1="369.92" y1="69.63" x2="364.75" y2="65.00"/><line x1="363.81" y1="125.50" x2="380.46" y2="131.61"/><line x1="354.46" y1="85.08" x2="362.16" y2="68.26"/><line x1="363.46" y1="66.63" x2="358.07" y2="62.80"/><line x1="235.14" y1="123.11" x2="231.97" y2="128.85"/><line x1="193.36" y1="301.10" x2="199.31" y2="307.05"/><line x1="233.38" y1="122.00" x2="230.09" y2="127.95"/><line x1="298.13" y1="211.93" x2="302.86" y2="212.97"/><line x1="192.21" y1="456.02" x2="198.51" y2="454.95"/><line x1="261.11" y1="208.27" x2="265.09" y2="209.88"/><line x1="272.42" y1="191.47" x2="265.80" y2="207.92"/><line x1="165.14" y1="432.82" x2="173.05" y2="436.56"/><line x1="305.76" y1="187.73" x2="316.12" y2="207.77"/><line x1="353.26" y1="266.64" x2="351.39" y2="258.22"/><line x1="329.45" y1="211.78" x2="333.93" y2="213.10"/><line x1="280.84" y1="193.34" x2="285.68" y2="211.29"/><line x1="294.65" y1="216.83" x2="290.21" y2="217.33"/><line x1="370.00" y1="290.45" x2="367.50" y2="296.50"/><line x1="245.87" y1="225.09" x2="193.50" y2="277.45"/><line x1="259.41" y1="212.07" x2="255.27" y2="210.04"/><line x1="159.30" y1="454.54" x2="153.35" y2="451.25"/><line x1="313.76" y1="33.21" x2="319.60" y2="50.06"/><line x1="216.20" y1="201.30" x2="225.53" y2="175.31"/><line x1="223.59" y1="140.27" x2="225.53" y2="133.52"/><line x1="144.07" y1="357.80" x2="191.87" y2="307.07"/><line x1="386.36" y1="133.68" x2="383.68" y2="140.16"/><line x1="371.40" y1="68.14" x2="385.29" y2="55.21"/><line x1="384.40" y1="92.58" x2="379.92" y2="87.22"/><line x1="392.96" y1="159.10" x2="383.91" y2="169.94"/><line x1="374.54" y1="150.79" x2="376.74" y2="144.10"/><line x1="383.28" y1="106.34" x2="382.21" y2="100.05"/><line x1="339.10" y1="212.85" x2="334.60" y2="211.13"/><line x1="346.27" y1="57.12" x2="346.96" y2="55.15"/><line x1="240.61" y1="119.00" x2="251.82" y2="133.79"/><line x1="371.26" y1="243.56" x2="367.86" y2="237.41"/><line x1="314.02" y1="57.33" x2="307.93" y2="59.08"/><line x1="281.66" y1="211.19" x2="285.68" y2="211.29"/><line x1="248.08" y1="141.71" x2="246.21" y2="150.12"/><line x1="145.55" y1="359.28" x2="158.07" y2="371.80"/><line x1="251.22" y1="200.08" x2="254.65" y2="202.44"/><line x1="181.47" y1="438.42" x2="185.77" y2="456.37"/><line x1="311.51" y1="209.87" x2="315.94" y2="211.95"/><line x1="345.43" y1="220.83" x2="349.16" y2="223.35"/><line x1="372.93" y1="264.24" x2="375.00" y2="264.01"/><line x1="362.12" y1="308.93" x2="357.50" y2="314.10"/><line x1="272.42" y1="216.25" x2="265.64" y2="236.24"/><line x1="185.77" y1="460.54" x2="179.08" y2="458.09"/><line x1="139.61" y1="436.20" x2="135.78" y2="430.81"/><line x1="222.41" y1="161.57" x2="222.01" y2="154.41"/><line x1="130.10" y1="379.98" x2="128.13" y2="379.30"/><line x1="128.62" y1="342.34" x2="118.28" y2="355.30"/><line x1="122.64" y1="399.50" x2="123.04" y2="406.65"/><line x1="192.93" y1="462.23" x2="199.91" y2="461.05"/><line x1="384.25" y1="125.99" x2="386.27" y2="126.46"/><line x1="333.99" y1="188.94" x2="368.45" y2="154.48"/><line x1="326.75" y1="51.74" x2="320.07" y2="54.20"/><line x1="301.19" y1="59.62" x2="295.45" y2="62.80"/><line x1="257.24" y1="206.37" x2="256.26" y2="208.21"/><line x1="312.83" y1="182.11" x2="329.96" y2="209.76"/><line x1="358.07" y1="62.80" x2="352.32" y2="59.62"/><line x1="365.68" y1="117.08" x2="383.28" y2="119.24"/><line x1="299.06" y1="85.08" x2="244.91" y2="114.19"/><line x1="233.38" y1="186.83" x2="237.35" y2="192.41"/><line x1="325.02" y1="210.81" x2="328.94" y2="213.79"/><line x1="145.54" y1="439.72" x2="150.36" y2="444.03"/><line x1="302.86" y1="212.97" x2="307.19" y2="212.30"/><line x1="371.82" y1="284.14" x2="373.85" y2="284.60"/><line x1="371.22" y1="270.93" x2="353.26" y2="266.64"/><line x1="369.38" y1="244.46" x2="371.97" y2="250.73"/><line x1="373.85" y1="284.60" x2="370.00" y2="290.45"/><line x1="293.71" y1="237.62" x2="285.74" y2="217.53"/><line x1="351.39" y1="258.22" x2="347.65" y2="250.31"/><line x1="286.63" y1="243.23" x2="222.96" y2="306.91"/><line x1="160.20" y1="452.66" x2="159.30" y2="454.54"/><line x1="229.58" y1="215.80" x2="235.71" y2="193.71"/><line x1="276.83" y1="216.99" x2="268.18" y2="236.65"/><line x1="228.21" y1="127.04" x2="231.61" y2="120.89"/><line x1="137.99" y1="361.50" x2="144.07" y2="357.80"/><line x1="208.95" y1="287.04" x2="245.87" y2="225.09"/><line x1="326.75" y1="49.66" x2="326.30" y2="32.00"/><line x1="376.17" y1="73.49" x2="380.27" y2="79.27"/><line x1="156.11" y1="474.37" x2="158.40" y2="456.42"/><line x1="405.66" y1="93.02" x2="407.42" y2="106.82"/><line x1="399.83" y1="147.08" x2="380.28" y2="146.31"/><line x1="125.55" y1="452.96" x2="124.22" y2="413.63"/><line x1="388.15" y1="236.83" x2="373.94" y2="250.04"/><line x1="373.94" y1="250.04" x2="371.26" y2="243.56"/><line x1="363.81" y1="100.08" x2="380.46" y2="93.96"/><line x1="376.74" y1="81.48" x2="378.51" y2="80.37"/><line x1="380.46" y1="93.96" x2="378.05" y2="88.12"/><line x1="236.91" y1="124.21" x2="233.84" y2="129.75"/><line x1="166.94" y1="453.20" x2="173.03" y2="454.95"/><line x1="283.59" y1="69.63" x2="243.43" y2="112.72"/><line x1="158.07" y1="371.80" x2="141.25" y2="364.09"/><line x1="249.98" y1="201.76" x2="253.53" y2="204.20"/><line x1="233.84" y1="129.75" x2="248.08" y2="141.71"/><line x1="134.48" y1="424.16" x2="137.55" y2="429.71"/><line x1="289.71" y1="211.11" x2="289.43" y2="193.34"/><line x1="365.62" y1="246.27" x2="347.65" y2="250.31"/><line x1="316.03" y1="209.86" x2="320.53" y2="210.17"/><line x1="289.43" y1="193.34" x2="293.71" y2="210.65"/><line x1="351.39" y1="283.64" x2="369.79" y2="283.67"/><line x1="297.84" y1="191.47" x2="305.76" y2="187.73"/><line x1="342.04" y1="243.23" x2="347.94" y2="225.03"/><line x1="373.29" y1="270.93" x2="372.93" y2="277.62"/><line x1="349.16" y1="223.35" x2="352.70" y2="226.15"/><line x1="268.18" y1="236.65" x2="272.42" y2="216.25"/><line x1="265.64" y1="236.24" x2="259.41" y2="212.07"/><line x1="178.85" y1="460.15" x2="172.10" y2="459.01"/><line x1="223.59" y1="168.55" x2="222.41" y2="161.57"/><line x1="193.35" y1="308.54" x2="190.40" y2="305.60"/><line x1="132.61" y1="373.93" x2="135.78" y2="368.19"/><line x1="360.33" y1="38.95" x2="354.13" y2="55.86"/><line x1="338.83" y1="190.00" x2="336.41" y2="189.47"/><line x1="141.13" y1="444.14" x2="146.47" y2="448.92"/><line x1="388.30" y1="126.93" x2="386.36" y2="133.68"/><line x1="363.46" y1="66.63" x2="364.75" y2="65.00"/><line x1="377.46" y1="270.93" x2="377.07" y2="263.77"/><line x1="364.75" y1="65.00" x2="358.07" y2="62.80"/><line x1="233.38" y1="122.00" x2="231.97" y2="128.85"/><line x1="383.63" y1="112.79" x2="383.28" y2="106.34"/><line x1="194.81" y1="310.01" x2="193.35" y2="308.54"/><line x1="231.97" y1="128.85" x2="230.09" y2="127.95"/><line x1="261.11" y1="208.27" x2="260.26" y2="210.17"/><line x1="244.91" y1="114.19" x2="240.61" y2="119.00"/><line x1="205.26" y1="301.10" x2="199.31" y2="295.15"/><line x1="165.14" y1="432.82" x2="161.10" y2="450.78"/><line x1="305.76" y1="187.73" x2="311.47" y2="207.78"/><line x1="260.26" y1="210.17" x2="265.09" y2="209.88"/><line x1="329.45" y1="211.78" x2="333.26" y2="215.08"/><line x1="280.84" y1="193.34" x2="281.66" y2="211.19"/><line x1="333.26" y1="215.08" x2="333.93" y2="213.10"/><line x1="370.00" y1="290.45" x2="371.97" y2="291.14"/><line x1="281.28" y1="217.42" x2="276.83" y2="216.99"/><line x1="336.65" y1="218.60" x2="332.60" y2="217.05"/><line x1="371.97" y1="291.14" x2="367.50" y2="296.50"/><line x1="159.30" y1="454.54" x2="154.46" y2="449.48"/><line x1="216.20" y1="201.30" x2="228.21" y2="181.79"/><line x1="154.46" y1="449.48" x2="153.35" y2="451.25"/><line x1="312.83" y1="182.11" x2="305.76" y2="187.73"/><line x1="333.91" y1="50.06" x2="340.90" y2="51.24"/><line x1="142.61" y1="356.33" x2="191.87" y2="307.07"/><line x1="213.37" y1="291.46" x2="211.90" y2="289.98"/><line x1="338.83" y1="32.72" x2="351.06" y2="35.47"/><line x1="392.96" y1="159.10" x2="371.40" y2="157.43"/><line x1="164.87" y1="459.10" x2="173.36" y2="479.22"/><line x1="173.36" y1="479.22" x2="171.63" y2="461.04"/><line x1="371.26" y1="243.56" x2="374.96" y2="217.35"/><line x1="378.05" y1="88.12" x2="374.98" y2="82.58"/><line x1="191.22" y1="480.00" x2="209.12" y2="476.58"/><line x1="372.91" y1="76.09" x2="368.45" y2="71.10"/><line x1="363.81" y1="125.50" x2="365.68" y2="117.08"/><line x1="374.96" y1="217.35" x2="367.86" y2="237.41"/><line x1="248.08" y1="141.71" x2="229.67" y2="141.67"/><line x1="358.97" y1="226.29" x2="355.41" y2="223.00"/></g></svg>