<svg xmlns="http://www.w3.org/2000/svg" width="512" height="512"><rect width="512" height="512" fill="#0a0f1a"/><text x="12" y="20" font-family="monospace" font-size="11" fill="#4a7fa5">FRONT (XZ)</text><g stroke="#00d4ff" stroke-width="0.6" opacity="0.85"><line x1="301.46" y1="157.25" x2="343.85" y2="123.45"/><line x1="387.84" y1="212.14" x2="329.93" y2="221.47"/><line x1="286.22" y1="147.51" x2="316.28" y2="104.67"/><line x1="379.86" y1="178.26" x2="326.30" y2="198.40"/><line x1="281.31" y1="381.47" x2="269.75" y2="383.38"/><line x1="270.42" y1="91.66" x2="268.47" y2="141.67"/><line x1="293.72" y1="322.78" x2="313.21" y2="371.15"/><line x1="328.57" y1="209.46" x2="329.93" y2="221.47"/><line x1="372.69" y1="312.57" x2="367.60" y2="322.20"/><line x1="185.76" y1="375.12" x2="175.97" y2="371.58"/><line x1="180.96" y1="311.46" x2="180.96" y2="275.39"/><line x1="280.69" y1="93.11" x2="290.40" y2="95.13"/><line x1="157.53" y1="119.47" x2="165.59" y2="112.77"/><line x1="248.25" y1="90.50" x2="248.19" y2="139.72"/><line x1="206.70" y1="151.85" x2="211.62" y2="148.63"/><line x1="326.23" y1="273.16" x2="323.00" y2="284.02"/><line x1="313.21" y1="371.15" x2="285.84" y2="327.43"/><line x1="157.75" y1="363.63" x2="184.79" y2="314.28"/><line x1="205.44" y1="380.56" x2="212.23" y2="328.62"/><line x1="135.38" y1="350.41" x2="129.24" y2="345.67"/><line x1="198.07" y1="159.50" x2="202.17" y2="155.50"/><line x1="248.19" y1="139.72" x2="259.61" y2="90.79"/><line x1="387.99" y1="259.66" x2="386.29" y2="270.74"/><line x1="301.04" y1="317.09" x2="332.04" y2="360.49"/><line x1="138.52" y1="143.77" x2="191.17" y2="168.60"/><line x1="329.93" y1="221.47" x2="388.97" y2="224.24"/><line x1="225.26" y1="383.83" x2="215.33" y2="382.47"/><line x1="184.79" y1="314.28" x2="180.96" y2="311.46"/><line x1="480.00" y1="479.91" x2="447.51" y2="479.91"/><line x1="343.85" y1="123.45" x2="351.63" y2="131.02"/><line x1="388.97" y1="224.24" x2="330.38" y2="234.41"/><line x1="193.09" y1="319.55" x2="166.53" y2="367.69"/><line x1="212.23" y1="328.62" x2="207.13" y2="326.54"/><line x1="268.35" y1="333.63" x2="269.75" y2="383.38"/><line x1="227.82" y1="333.39" x2="222.63" y2="332.09"/><line x1="157.75" y1="363.63" x2="149.63" y2="359.40"/><line x1="245.23" y1="384.91" x2="243.38" y2="335.55"/><line x1="294.16" y1="151.89" x2="301.46" y2="157.25"/><line x1="186.00" y1="179.13" x2="133.91" y2="153.25"/><line x1="277.66" y1="144.10" x2="290.40" y2="95.13"/><line x1="301.04" y1="317.09" x2="293.72" y2="322.78"/><line x1="165.59" y1="112.77" x2="174.56" y2="106.86"/><line x1="259.61" y1="90.79" x2="258.65" y2="140.21"/><line x1="219.91" y1="92.32" x2="233.60" y2="90.95"/><line x1="361.83" y1="331.18" x2="355.39" y2="339.49"/><line x1="269.75" y1="383.38" x2="258.74" y2="335.18"/><line x1="180.96" y1="311.46" x2="149.63" y2="359.40"/><line x1="197.56" y1="322.00" x2="193.09" y2="319.55"/><line x1="234.65" y1="140.71" x2="241.25" y2="139.97"/><line x1="195.34" y1="97.77" x2="207.16" y2="94.59"/><line x1="290.40" y1="95.13" x2="299.57" y2="97.74"/><line x1="277.38" y1="331.05" x2="292.41" y2="378.79"/><line x1="328.54" y1="261.28" x2="386.29" y2="270.74"/><line x1="313.78" y1="302.63" x2="307.78" y2="310.38"/><line x1="330.38" y1="234.41" x2="389.35" y2="236.74"/><line x1="326.30" y1="198.40" x2="328.57" y2="209.46"/><line x1="323.00" y1="284.02" x2="377.12" y2="302.49"/><line x1="195.58" y1="378.11" x2="185.76" y2="375.12"/><line x1="180.96" y1="275.39" x2="123.76" y2="227.51"/><line x1="174.56" y1="106.86" x2="184.48" y2="101.86"/><line x1="133.91" y1="153.25" x2="188.37" y2="173.69"/><line x1="277.66" y1="144.10" x2="286.22" y2="147.51"/><line x1="370.74" y1="157.70" x2="375.69" y2="167.77"/><line x1="385.93" y1="200.44" x2="387.84" y2="212.14"/><line x1="386.29" y1="270.74" x2="383.91" y2="281.57"/><line x1="222.63" y1="332.09" x2="217.43" y2="330.49"/><line x1="351.63" y1="131.02" x2="358.71" y2="139.25"/><line x1="142.17" y1="354.99" x2="135.38" y2="350.41"/><line x1="207.13" y1="326.54" x2="202.24" y2="324.33"/><line x1="258.74" y1="335.18" x2="257.72" y2="384.53"/><line x1="285.84" y1="327.43" x2="277.38" y2="331.05"/><line x1="215.33" y1="382.47" x2="222.63" y2="332.09"/><line x1="184.06" y1="184.94" x2="130.18" y2="163.43"/><line x1="180.96" y1="311.46" x2="135.38" y2="350.41"/><line x1="314.04" y1="170.88" x2="365.08" y2="148.15"/><line x1="194.41" y1="163.87" x2="157.53" y2="119.47"/><line x1="329.92" y1="248.36" x2="389.01" y2="248.32"/><line x1="32.16" y1="32.09" x2="32.16" y2="64.58"/><line x1="277.38" y1="331.05" x2="268.35" y2="333.63"/><line x1="323.12" y1="188.29" x2="379.86" y2="178.26"/><line x1="299.57" y1="97.74" x2="286.22" y2="147.51"/><line x1="328.54" y1="261.28" x2="326.23" y2="273.16"/><line x1="292.41" y1="378.79" x2="281.31" y2="381.47"/><line x1="235.22" y1="384.64" x2="233.01" y2="334.40"/><line x1="355.39" y1="339.49" x2="348.28" y2="347.15"/><line x1="257.72" y1="384.53" x2="248.56" y2="335.70"/><line x1="180.96" y1="275.39" x2="247.02" y2="275.39"/><line x1="130.18" y1="163.43" x2="127.31" y2="174.30"/><line x1="268.47" y1="141.67" x2="280.69" y2="93.11"/><line x1="307.78" y1="310.38" x2="340.49" y2="354.15"/><line x1="301.46" y1="157.25" x2="335.37" y2="116.53"/><line x1="248.56" y1="335.70" x2="245.23" y2="384.91"/><line x1="207.16" y1="94.59" x2="219.91" y2="92.32"/><line x1="286.22" y1="147.51" x2="308.20" y2="100.91"/><line x1="318.85" y1="293.83" x2="361.83" y2="331.18"/><line x1="322.91" y1="366.17" x2="313.21" y2="371.15"/><line x1="383.91" y1="281.57" x2="326.23" y2="273.16"/><line x1="281.31" y1="381.47" x2="268.35" y2="333.63"/><line x1="185.76" y1="375.12" x2="197.56" y2="322.00"/><line x1="308.20" y1="100.91" x2="316.28" y2="104.67"/><line x1="247.02" y1="227.51" x2="247.02" y2="275.39"/><line x1="184.06" y1="184.94" x2="186.00" y2="179.13"/><line x1="184.48" y1="101.86" x2="195.34" y2="97.77"/><line x1="280.69" y1="93.11" x2="277.66" y2="144.10"/><line x1="329.92" y1="248.36" x2="328.54" y2="261.28"/><line x1="241.25" y1="139.97" x2="248.19" y2="139.72"/><line x1="157.53" y1="119.47" x2="198.07" y2="159.50"/><line x1="389.01" y1="248.32" x2="387.99" y2="259.66"/><line x1="380.86" y1="292.15" x2="377.12" y2="302.49"/><line x1="180.96" y1="311.46" x2="123.76" y2="340.75"/><line x1="326.23" y1="273.16" x2="380.86" y2="292.15"/><line x1="129.24" y1="345.67" x2="123.76" y2="340.75"/><line x1="188.84" y1="316.97" x2="184.79" y2="314.28"/><line x1="233.01" y1="334.40" x2="225.26" y2="383.83"/><line x1="191.17" y1="168.60" x2="143.99" y2="134.97"/><line x1="130.18" y1="163.43" x2="133.91" y2="153.25"/><line x1="365.08" y1="148.15" x2="370.74" y2="157.70"/><line x1="198.07" y1="159.50" x2="165.59" y2="112.77"/><line x1="301.46" y1="157.25" x2="308.13" y2="163.58"/><line x1="387.84" y1="212.14" x2="388.97" y2="224.24"/><line x1="335.37" y1="116.53" x2="343.85" y2="123.45"/><line x1="387.99" y1="259.66" x2="328.54" y2="261.28"/><line x1="293.72" y1="322.78" x2="285.84" y2="327.43"/><line x1="225.26" y1="383.83" x2="227.82" y2="333.39"/><line x1="480.00" y1="32.02" x2="447.51" y2="32.02"/><line x1="143.99" y1="134.97" x2="150.32" y2="126.88"/><line x1="308.13" y1="163.58" x2="314.04" y2="170.88"/><line x1="316.28" y1="104.67" x2="294.16" y2="151.89"/><line x1="248.25" y1="90.50" x2="259.61" y2="90.79"/><line x1="343.85" y1="123.45" x2="308.13" y2="163.58"/><line x1="340.49" y1="354.15" x2="332.04" y2="360.49"/><line x1="243.38" y1="335.55" x2="238.20" y2="335.12"/><line x1="367.60" y1="322.20" x2="361.83" y2="331.18"/><line x1="157.75" y1="363.63" x2="180.96" y2="311.46"/><line x1="191.17" y1="168.60" x2="194.41" y2="163.87"/><line x1="228.39" y1="141.95" x2="234.65" y2="140.71"/><line x1="294.16" y1="151.89" x2="326.18" y2="110.28"/><line x1="211.62" y1="148.63" x2="195.34" y2="97.77"/><line x1="319.03" y1="179.11" x2="323.12" y2="188.29"/><line x1="165.59" y1="112.77" x2="202.17" y2="155.50"/><line x1="301.04" y1="317.09" x2="322.91" y2="366.17"/><line x1="329.93" y1="221.47" x2="330.38" y2="234.41"/><line x1="361.83" y1="331.18" x2="313.78" y2="302.63"/><line x1="245.23" y1="384.91" x2="235.22" y2="384.64"/><line x1="175.97" y1="371.58" x2="166.53" y2="367.69"/><line x1="216.87" y1="145.91" x2="222.46" y2="143.68"/><line x1="202.17" y1="155.50" x2="174.56" y2="106.86"/><line x1="150.32" y1="126.88" x2="194.41" y2="163.87"/><line x1="383.28" y1="189.15" x2="385.93" y2="200.44"/><line x1="195.34" y1="97.77" x2="216.87" y2="145.91"/><line x1="377.12" y1="302.49" x2="372.69" y2="312.57"/><line x1="123.76" y1="227.51" x2="247.02" y2="227.51"/><line x1="193.09" y1="319.55" x2="188.84" y2="316.97"/><line x1="238.20" y1="335.12" x2="235.22" y2="384.64"/><line x1="268.35" y1="333.63" x2="258.74" y2="335.18"/><line x1="195.58" y1="378.11" x2="207.13" y2="326.54"/><line x1="188.37" y1="173.69" x2="138.52" y2="143.77"/><line x1="174.56" y1="106.86" x2="206.70" y2="151.85"/><line x1="233.60" y1="90.95" x2="241.25" y2="139.97"/><line x1="326.18" y1="110.28" x2="301.46" y2="157.25"/><line x1="323.00" y1="284.02" x2="318.85" y2="293.83"/><line x1="277.66" y1="144.10" x2="299.57" y2="97.74"/><line x1="370.74" y1="157.70" x2="323.12" y2="188.29"/><line x1="303.05" y1="375.35" x2="292.41" y2="378.79"/><line x1="222.63" y1="332.09" x2="205.44" y2="380.56"/><line x1="32.00" y1="479.98" x2="64.49" y2="479.98"/><line x1="123.76" y1="340.75" x2="123.76" y2="227.51"/><line x1="258.65" y1="140.21" x2="268.47" y2="141.67"/><line x1="314.04" y1="170.88" x2="358.71" y2="139.25"/><line x1="180.96" y1="311.46" x2="142.17" y2="354.99"/><line x1="328.57" y1="209.46" x2="387.84" y2="212.14"/><line x1="372.69" y1="312.57" x2="318.85" y2="293.83"/><line x1="277.38" y1="331.05" x2="281.31" y2="381.47"/><line x1="328.54" y1="261.28" x2="383.91" y2="281.57"/><line x1="332.04" y1="360.49" x2="322.91" y2="366.17"/><line x1="330.38" y1="234.41" x2="329.92" y2="248.36"/><line x1="64.64" y1="32.09" x2="32.16" y2="64.58"/><line x1="166.53" y1="367.69" x2="157.75" y2="363.63"/><line x1="222.46" y1="143.68" x2="228.39" y2="141.95"/><line x1="206.70" y1="151.85" x2="184.48" y2="101.86"/><line x1="389.35" y1="236.74" x2="389.01" y2="248.32"/><line x1="307.78" y1="310.38" x2="348.28" y2="347.15"/><line x1="318.85" y1="293.83" x2="367.60" y2="322.20"/><line x1="205.44" y1="380.56" x2="217.43" y2="330.49"/><line x1="258.74" y1="335.18" x2="248.56" y2="335.70"/><line x1="286.22" y1="147.51" x2="294.16" y2="151.89"/><line x1="184.06" y1="184.94" x2="127.31" y2="174.30"/><line x1="184.48" y1="101.86" x2="211.62" y2="148.63"/><line x1="314.04" y1="170.88" x2="319.03" y2="179.11"/><line x1="270.42" y1="91.66" x2="280.69" y2="93.11"/><line x1="358.71" y1="139.25" x2="365.08" y2="148.15"/><line x1="379.86" y1="178.26" x2="383.28" y2="189.15"/><line x1="329.92" y1="248.36" x2="387.99" y2="259.66"/><line x1="380.86" y1="292.15" x2="323.00" y2="284.02"/><line x1="202.24" y1="324.33" x2="197.56" y2="322.00"/><line x1="217.43" y1="330.49" x2="212.23" y2="328.62"/><line x1="212.23" y1="328.62" x2="195.58" y2="378.11"/><line x1="268.47" y1="141.67" x2="277.66" y2="144.10"/><line x1="365.08" y1="148.15" x2="319.03" y2="179.11"/><line x1="307.78" y1="310.38" x2="301.04" y2="317.09"/><line x1="313.21" y1="371.15" x2="303.05" y2="375.35"/><line x1="348.28" y1="347.15" x2="340.49" y2="354.15"/><line x1="248.56" y1="335.70" x2="243.38" y2="335.55"/><line x1="318.85" y1="293.83" x2="313.78" y2="302.63"/><line x1="227.82" y1="333.39" x2="215.33" y2="382.47"/><line x1="205.44" y1="380.56" x2="195.58" y2="378.11"/><line x1="383.91" y1="281.57" x2="380.86" y2="292.15"/><line x1="248.19" y1="139.72" x2="258.65" y2="140.21"/><line x1="480.00" y1="32.02" x2="480.00" y2="64.50"/><line x1="308.13" y1="163.58" x2="351.63" y2="131.02"/><line x1="138.52" y1="143.77" x2="143.99" y2="134.97"/><line x1="219.91" y1="92.32" x2="228.39" y2="141.95"/><line x1="340.49" y1="354.15" x2="301.04" y2="317.09"/><line x1="197.56" y1="322.00" x2="175.97" y2="371.58"/><line x1="233.01" y1="334.40" x2="227.82" y2="333.39"/><line x1="480.00" y1="479.91" x2="480.00" y2="447.42"/><line x1="191.17" y1="168.60" x2="150.32" y2="126.88"/><line x1="228.39" y1="141.95" x2="233.60" y2="90.95"/><line x1="388.97" y1="224.24" x2="389.35" y2="236.74"/><line x1="313.78" y1="302.63" x2="355.39" y2="339.49"/><line x1="326.30" y1="198.40" x2="383.28" y2="189.15"/><line x1="319.03" y1="179.11" x2="370.74" y2="157.70"/><line x1="245.23" y1="384.91" x2="238.20" y2="335.12"/><line x1="175.97" y1="371.58" x2="193.09" y2="319.55"/><line x1="186.00" y1="179.13" x2="188.37" y2="173.69"/><line x1="216.87" y1="145.91" x2="207.16" y2="94.59"/><line x1="259.61" y1="90.79" x2="270.42" y2="91.66"/><line x1="480.00" y1="64.50" x2="447.51" y2="32.02"/><line x1="351.63" y1="131.02" x2="314.04" y2="170.88"/><line x1="316.28" y1="104.67" x2="326.18" y2="110.28"/><line x1="383.28" y1="189.15" x2="328.57" y2="209.46"/><line x1="269.75" y1="383.38" x2="257.72" y2="384.53"/><line x1="207.13" y1="326.54" x2="185.76" y2="375.12"/><line x1="285.84" y1="327.43" x2="303.05" y2="375.35"/><line x1="32.16" y1="32.09" x2="64.64" y2="32.09"/><line x1="447.51" y1="479.91" x2="480.00" y2="447.42"/><line x1="323.12" y1="188.29" x2="375.69" y2="167.77"/><line x1="233.60" y1="90.95" x2="234.65" y2="140.71"/><line x1="355.39" y1="339.49" x2="307.78" y2="310.38"/><line x1="211.62" y1="148.63" x2="216.87" y2="145.91"/><line x1="323.00" y1="284.02" x2="372.69" y2="312.57"/><line x1="303.05" y1="375.35" x2="277.38" y2="331.05"/><line x1="180.96" y1="275.39" x2="247.02" y2="227.51"/><line x1="32.00" y1="479.98" x2="32.00" y2="447.50"/><line x1="133.91" y1="153.25" x2="138.52" y2="143.77"/><line x1="207.16" y1="94.59" x2="222.46" y2="143.68"/><line x1="123.76" y1="340.75" x2="180.96" y2="275.39"/><line x1="202.17" y1="155.50" x2="206.70" y2="151.85"/><line x1="258.65" y1="140.21" x2="270.42" y2="91.66"/><line x1="322.91" y1="366.17" x2="293.72" y2="322.78"/><line x1="150.32" y1="126.88" x2="157.53" y2="119.47"/><line x1="328.57" y1="209.46" x2="385.93" y2="200.44"/><line x1="185.76" y1="375.12" x2="202.24" y2="324.33"/><line x1="215.33" y1="382.47" x2="205.44" y2="380.56"/><line x1="149.63" y1="359.40" x2="142.17" y2="354.99"/><line x1="180.96" y1="311.46" x2="129.24" y2="345.67"/><line x1="194.41" y1="163.87" x2="198.07" y2="159.50"/><line x1="241.25" y1="139.97" x2="248.25" y2="90.50"/><line x1="238.20" y1="335.12" x2="233.01" y2="334.40"/><line x1="166.53" y1="367.69" x2="188.84" y2="316.97"/><line x1="188.37" y1="173.69" x2="191.17" y2="168.60"/><line x1="222.46" y1="143.68" x2="219.91" y2="92.32"/><line x1="323.12" y1="188.29" x2="326.30" y2="198.40"/><line x1="299.57" y1="97.74" x2="308.20" y2="100.91"/><line x1="375.69" y1="167.77" x2="379.86" y2="178.26"/><line x1="235.22" y1="384.64" x2="225.26" y2="383.83"/><line x1="389.35" y1="236.74" x2="329.92" y2="248.36"/><line x1="188.84" y1="316.97" x2="157.75" y2="363.63"/><line x1="233.60" y1="90.95" x2="248.25" y2="90.50"/><line x1="326.18" y1="110.28" x2="335.37" y2="116.53"/><line x1="257.72" y1="384.53" x2="245.23" y2="384.91"/><line x1="130.18" y1="163.43" x2="186.00" y2="179.13"/><line x1="32.00" y1="447.50" x2="64.49" y2="479.98"/></g></svg>