<svg xmlns="http://www.w3.org/2000/svg" width="512" height="512"><rect width="512" height="512" fill="#0a0f1a"/><text x="12" y="20" font-family="monospace" font-size="11" fill="#4a7fa5">FRONT (XZ)</text><g stroke="#00d4ff" stroke-width="0.6" opacity="0.85"><line x1="272.45" y1="141.26" x2="239.73" y2="141.45"/><line x1="234.56" y1="319.45" x2="246.60" y2="303.97"/><line x1="236.35" y1="132.60" x2="235.97" y2="131.20"/><line x1="275.47" y1="348.77" x2="276.17" y2="348.75"/><line x1="219.86" y1="242.90" x2="219.11" y2="243.01"/><line x1="213.39" y1="139.85" x2="229.72" y2="123.87"/><line x1="300.89" y1="319.27" x2="301.42" y2="316.43"/><line x1="213.39" y1="139.85" x2="229.76" y2="126.64"/><line x1="276.79" y1="293.31" x2="302.98" y2="302.86"/><line x1="303.11" y1="262.71" x2="302.59" y2="261.15"/><line x1="213.39" y1="139.85" x2="231.52" y2="130.48"/><line x1="267.70" y1="314.30" x2="273.91" y2="348.71"/><line x1="251.99" y1="278.29" x2="251.86" y2="277.91"/><line x1="267.70" y1="314.30" x2="280.95" y2="347.89"/><line x1="249.53" y1="158.93" x2="248.53" y2="157.06"/><line x1="205.73" y1="242.42" x2="206.61" y2="242.38"/><line x1="204.88" y1="303.30" x2="206.79" y2="304.94"/><line x1="272.32" y1="309.76" x2="272.91" y2="308.57"/><line x1="196.50" y1="294.70" x2="196.47" y2="294.97"/><line x1="230.34" y1="122.75" x2="206.44" y2="119.42"/><line x1="254.22" y1="188.71" x2="243.21" y2="201.04"/><line x1="268.33" y1="215.08" x2="303.40" y2="295.15"/><line x1="251.86" y1="277.91" x2="251.73" y2="277.53"/><line x1="268.33" y1="215.08" x2="312.52" y2="286.75"/><line x1="215.33" y1="243.52" x2="214.74" y2="243.57"/><line x1="231.57" y1="122.37" x2="251.50" y2="96.42"/><line x1="196.47" y1="294.97" x2="196.46" y2="295.24"/><line x1="303.11" y1="297.70" x2="277.20" y2="260.27"/><line x1="239.73" y1="141.45" x2="267.01" y2="127.25"/><line x1="217.43" y1="153.13" x2="217.94" y2="154.56"/><line x1="262.84" y1="314.80" x2="253.84" y2="338.17"/><line x1="295.72" y1="222.57" x2="295.31" y2="219.89"/><line x1="234.37" y1="126.54" x2="233.95" y2="125.61"/><line x1="230.69" y1="122.41" x2="213.87" y2="69.13"/><line x1="209.08" y1="280.51" x2="213.67" y2="309.89"/><line x1="230.69" y1="122.41" x2="203.72" y2="72.62"/><line x1="277.91" y1="158.49" x2="261.42" y2="185.91"/><line x1="206.88" y1="69.87" x2="205.73" y2="70.58"/><line x1="230.69" y1="122.41" x2="200.07" y2="90.72"/><line x1="278.68" y1="265.00" x2="278.44" y2="263.90"/><line x1="239.73" y1="151.43" x2="219.98" y2="159.34"/><line x1="230.69" y1="122.41" x2="203.42" y2="109.55"/><line x1="255.31" y1="291.12" x2="255.02" y2="288.31"/><line x1="272.45" y1="141.26" x2="250.53" y2="160.85"/><line x1="251.26" y1="275.11" x2="248.76" y2="270.16"/><line x1="295.31" y1="219.89" x2="294.88" y2="217.32"/><line x1="267.01" y1="127.25" x2="239.02" y2="140.02"/><line x1="213.67" y1="309.89" x2="215.20" y2="310.73"/><line x1="257.42" y1="106.89" x2="255.45" y2="103.25"/><line x1="205.73" y1="70.58" x2="204.67" y2="71.50"/><line x1="213.39" y1="139.85" x2="229.59" y2="124.80"/><line x1="229.78" y1="123.66" x2="229.72" y2="123.87"/><line x1="236.63" y1="191.16" x2="254.22" y2="188.71"/><line x1="213.39" y1="139.85" x2="230.32" y2="128.32"/><line x1="304.09" y1="293.58" x2="304.24" y2="293.36"/><line x1="267.70" y1="314.30" x2="277.55" y2="348.64"/><line x1="248.76" y1="270.16" x2="251.20" y2="274.52"/><line x1="285.62" y1="345.55" x2="286.27" y2="345.20"/><line x1="272.36" y1="348.55" x2="273.91" y2="348.71"/><line x1="204.96" y1="278.77" x2="205.30" y2="279.04"/><line x1="239.02" y1="140.02" x2="238.38" y2="138.65"/><line x1="267.70" y1="314.30" x2="283.95" y2="346.53"/><line x1="241.99" y1="83.18" x2="241.44" y2="82.55"/><line x1="229.72" y1="123.87" x2="229.67" y2="124.09"/><line x1="243.50" y1="163.97" x2="243.78" y2="164.81"/><line x1="245.00" y1="299.98" x2="245.75" y2="302.06"/><line x1="268.33" y1="215.08" x2="303.81" y2="294.06"/><line x1="268.53" y1="210.44" x2="268.32" y2="208.79"/><line x1="273.91" y1="348.71" x2="275.47" y2="348.77"/><line x1="205.30" y1="279.04" x2="203.18" y2="280.12"/><line x1="204.22" y1="242.77" x2="204.93" y2="242.55"/><line x1="241.44" y1="82.55" x2="240.86" y2="81.92"/><line x1="303.11" y1="297.70" x2="278.81" y2="266.05"/><line x1="200.96" y1="79.14" x2="200.56" y2="81.28"/><line x1="275.13" y1="256.14" x2="274.25" y2="254.63"/><line x1="303.11" y1="297.70" x2="274.25" y2="254.63"/><line x1="242.74" y1="329.28" x2="253.90" y2="312.17"/><line x1="243.78" y1="164.81" x2="244.15" y2="165.82"/><line x1="252.80" y1="295.17" x2="254.55" y2="287.14"/><line x1="268.32" y1="208.79" x2="268.02" y2="207.02"/><line x1="230.69" y1="122.41" x2="218.81" y2="70.18"/><line x1="245.00" y1="299.98" x2="205.48" y2="267.78"/><line x1="236.60" y1="133.70" x2="236.35" y2="132.60"/><line x1="230.69" y1="122.41" x2="209.49" y2="69.06"/><line x1="204.93" y1="242.55" x2="205.73" y2="242.42"/><line x1="223.74" y1="312.36" x2="228.25" y2="312.08"/><line x1="277.91" y1="158.49" x2="265.99" y2="198.69"/><line x1="230.69" y1="122.41" x2="200.96" y2="79.14"/><line x1="200.56" y1="81.28" x2="200.27" y2="83.62"/><line x1="239.73" y1="151.43" x2="217.01" y2="151.79"/><line x1="229.59" y1="125.45" x2="229.63" y2="125.84"/><line x1="263.34" y1="207.73" x2="246.66" y2="209.48"/><line x1="230.69" y1="122.41" x2="200.90" y2="98.51"/><line x1="230.69" y1="122.41" x2="230.50" y2="122.58"/><line x1="235.40" y1="250.68" x2="233.39" y2="248.55"/><line x1="272.45" y1="141.26" x2="246.50" y2="153.50"/><line x1="258.95" y1="314.20" x2="248.26" y2="333.43"/><line x1="202.47" y1="281.77" x2="207.36" y2="280.33"/><line x1="236.35" y1="132.60" x2="263.25" y2="118.66"/><line x1="290.42" y1="342.43" x2="269.39" y2="313.29"/><line x1="237.65" y1="78.56" x2="224.68" y2="72.35"/><line x1="278.91" y1="348.42" x2="279.59" y2="348.28"/><line x1="213.39" y1="139.85" x2="229.78" y2="123.66"/><line x1="201.02" y1="247.50" x2="201.20" y2="246.66"/><line x1="300.89" y1="319.27" x2="272.32" y2="309.76"/><line x1="229.63" y1="125.84" x2="229.68" y2="126.23"/><line x1="213.39" y1="139.85" x2="229.68" y2="126.23"/><line x1="252.42" y1="311.20" x2="253.90" y2="312.17"/><line x1="246.41" y1="171.57" x2="254.22" y2="188.71"/><line x1="248.92" y1="298.08" x2="247.71" y2="298.74"/><line x1="303.11" y1="262.71" x2="268.70" y2="213.38"/><line x1="267.70" y1="314.30" x2="272.36" y2="348.55"/><line x1="265.99" y1="198.69" x2="265.26" y2="196.34"/><line x1="267.70" y1="314.30" x2="280.26" y2="348.10"/><line x1="279.59" y1="348.28" x2="280.26" y2="348.10"/><line x1="224.68" y1="72.35" x2="223.71" y2="71.93"/><line x1="200.35" y1="94.50" x2="200.59" y2="96.48"/><line x1="254.22" y1="188.71" x2="240.49" y2="198.32"/><line x1="265.15" y1="122.88" x2="236.93" y2="134.86"/><line x1="251.86" y1="336.42" x2="262.84" y2="314.80"/><line x1="265.26" y1="196.34" x2="264.44" y2="193.88"/><line x1="208.90" y1="242.69" x2="209.51" y2="242.83"/><line x1="273.86" y1="305.84" x2="274.23" y2="304.29"/><line x1="200.59" y1="96.48" x2="200.90" y2="98.51"/><line x1="303.11" y1="297.70" x2="277.70" y2="261.53"/><line x1="312.52" y1="286.75" x2="311.20" y2="271.59"/><line x1="480.00" y1="32.02" x2="447.51" y2="32.02"/><line x1="303.14" y1="296.88" x2="303.17" y2="296.49"/><line x1="230.32" y1="128.32" x2="230.51" y2="128.75"/><line x1="303.11" y1="297.70" x2="303.12" y2="297.28"/><line x1="253.46" y1="166.97" x2="252.49" y2="164.87"/><line x1="262.84" y1="314.80" x2="252.83" y2="337.28"/><line x1="245.00" y1="299.98" x2="201.15" y2="255.10"/><line x1="208.35" y1="280.77" x2="208.68" y2="280.89"/><line x1="234.37" y1="126.54" x2="259.38" y2="110.66"/><line x1="230.69" y1="122.41" x2="214.85" y2="69.27"/><line x1="245.00" y1="299.98" x2="209.32" y2="275.84"/><line x1="256.57" y1="226.94" x2="269.83" y2="248.02"/><line x1="230.69" y1="122.41" x2="204.67" y2="71.50"/><line x1="302.56" y1="308.17" x2="302.81" y2="305.50"/><line x1="256.57" y1="226.94" x2="265.96" y2="212.31"/><line x1="230.69" y1="122.41" x2="200.04" y2="88.92"/><line x1="230.51" y1="128.75" x2="230.73" y2="129.18"/><line x1="263.34" y1="207.73" x2="247.74" y2="211.21"/><line x1="300.10" y1="251.80" x2="299.64" y2="249.62"/><line x1="272.45" y1="141.26" x2="251.52" y2="162.83"/><line x1="284.77" y1="346.07" x2="285.62" y2="345.55"/><line x1="218.81" y1="70.18" x2="217.81" y2="69.90"/><line x1="213.39" y1="139.85" x2="229.60" y2="124.55"/><line x1="236.63" y1="191.16" x2="246.41" y2="171.57"/><line x1="246.66" y1="209.48" x2="246.94" y2="209.99"/><line x1="253.53" y1="294.38" x2="252.80" y2="295.17"/><line x1="267.70" y1="314.30" x2="276.86" y2="348.71"/><line x1="232.31" y1="122.98" x2="231.93" y2="122.62"/><line x1="213.01" y1="243.55" x2="213.41" y2="243.59"/><line x1="220.54" y1="312.46" x2="223.74" y2="312.36"/><line x1="204.10" y1="111.93" x2="204.82" y2="114.37"/><line x1="216.41" y1="149.36" x2="216.66" y2="150.53"/><line x1="311.20" y1="271.59" x2="316.65" y2="277.87"/><line x1="258.50" y1="342.33" x2="260.04" y2="343.48"/><line x1="237.47" y1="253.13" x2="235.40" y2="250.68"/><line x1="254.33" y1="286.53" x2="254.13" y2="285.91"/><line x1="303.11" y1="297.70" x2="278.86" y2="267.05"/><line x1="300.28" y1="322.18" x2="300.89" y2="319.27"/><line x1="245.00" y1="299.98" x2="208.33" y2="242.57"/><line x1="303.11" y1="297.70" x2="275.13" y2="256.14"/><line x1="242.74" y1="329.28" x2="249.79" y2="308.78"/><line x1="245.00" y1="299.98" x2="213.41" y2="243.59"/><line x1="230.69" y1="122.41" x2="219.80" y2="70.49"/><line x1="231.22" y1="122.25" x2="247.54" y2="90.15"/><line x1="245.00" y1="299.98" x2="204.23" y2="265.14"/><line x1="206.68" y1="279.97" x2="202.47" y2="281.77"/><line x1="297.00" y1="334.53" x2="295.97" y2="337.79"/><line x1="230.69" y1="122.41" x2="210.94" y2="68.96"/><line x1="198.69" y1="297.49" x2="196.47" y2="294.97"/><line x1="230.06" y1="123.10" x2="229.95" y2="123.28"/><line x1="256.57" y1="226.94" x2="303.26" y2="295.78"/><line x1="230.69" y1="122.41" x2="201.47" y2="77.20"/><line x1="263.34" y1="207.73" x2="246.40" y2="208.92"/><line x1="271.07" y1="249.77" x2="269.83" y2="248.02"/><line x1="254.13" y1="285.91" x2="248.92" y2="298.08"/><line x1="267.72" y1="347.46" x2="269.26" y2="347.93"/><line x1="204.31" y1="278.19" x2="204.63" y2="278.49"/><line x1="209.42" y1="280.15" x2="219.32" y2="312.26"/><line x1="272.45" y1="141.26" x2="247.52" y2="155.25"/><line x1="202.47" y1="281.77" x2="207.02" y2="280.16"/><line x1="234.56" y1="319.45" x2="247.56" y2="305.74"/><line x1="290.42" y1="342.43" x2="297.95" y2="331.34"/><line x1="264.93" y1="314.87" x2="265.89" y2="314.81"/><line x1="248.92" y1="298.08" x2="253.94" y2="285.27"/><line x1="238.38" y1="138.65" x2="237.82" y2="137.33"/><line x1="267.70" y1="314.30" x2="270.81" y2="348.29"/><line x1="224.25" y1="242.83" x2="222.61" y2="242.66"/><line x1="234.78" y1="127.56" x2="234.37" y2="126.54"/><line x1="197.90" y1="291.27" x2="197.66" y2="291.63"/><line x1="302.25" y1="310.88" x2="273.86" y2="305.84"/><line x1="300.58" y1="253.88" x2="300.10" y2="251.80"/><line x1="265.15" y1="122.88" x2="237.34" y2="136.07"/><line x1="222.61" y1="242.66" x2="222.20" y2="242.67"/><line x1="201.63" y1="283.54" x2="208.35" y2="280.77"/><line x1="219.80" y1="70.49" x2="218.81" y2="70.18"/><line x1="273.86" y1="305.84" x2="302.56" y2="308.17"/><line x1="245.00" y1="299.98" x2="205.73" y2="242.42"/><line x1="312.52" y1="286.75" x2="309.14" y2="295.24"/><line x1="266.81" y1="314.62" x2="267.72" y2="347.46"/><line x1="480.00" y1="32.02" x2="480.00" y2="64.50"/><line x1="247.56" y1="305.74" x2="246.60" y2="303.97"/><line x1="246.40" y1="208.92" x2="246.66" y2="209.48"/><line x1="252.47" y1="280.18" x2="252.39" y2="279.80"/><line x1="245.00" y1="299.98" x2="210.86" y2="243.15"/><line x1="253.46" y1="166.97" x2="272.45" y2="141.26"/><line x1="245.00" y1="299.98" x2="200.87" y2="252.73"/><line x1="208.35" y1="280.77" x2="198.15" y2="290.90"/><line x1="230.69" y1="122.41" x2="215.84" y2="69.44"/><line x1="270.96" y1="311.76" x2="271.68" y2="310.82"/><line x1="198.69" y1="297.49" x2="196.74" y2="293.55"/><line x1="196.84" y1="293.26" x2="196.74" y2="293.55"/><line x1="256.57" y1="226.94" x2="271.07" y2="249.77"/><line x1="203.42" y1="109.55" x2="204.10" y2="111.93"/><line x1="245.00" y1="299.98" x2="208.65" y2="274.31"/><line x1="244.60" y1="167.01" x2="245.12" y2="168.36"/><line x1="210.18" y1="278.43" x2="210.09" y2="277.90"/><line x1="480.00" y1="479.91" x2="480.00" y2="447.42"/><line x1="256.57" y1="226.94" x2="266.67" y2="213.35"/><line x1="267.64" y1="205.12" x2="267.18" y2="203.09"/><line x1="268.70" y1="213.38" x2="297.59" y2="237.07"/><line x1="252.39" y1="279.80" x2="252.31" y2="279.43"/><line x1="263.34" y1="207.73" x2="247.47" y2="210.85"/><line x1="265.89" y1="314.81" x2="258.50" y2="342.33"/><line x1="219.11" y1="243.01" x2="218.28" y2="243.13"/><line x1="268.70" y1="213.38" x2="293.99" y2="212.53"/><line x1="232.70" y1="123.46" x2="232.31" y2="122.98"/><line x1="209.42" y1="280.15" x2="209.69" y2="279.79"/><line x1="196.74" y1="293.55" x2="196.66" y2="293.84"/><line x1="302.98" y1="302.86" x2="303.08" y2="300.26"/><line x1="236.63" y1="191.16" x2="245.73" y2="169.89"/><line x1="235.03" y1="136.36" x2="216.41" y2="149.36"/><line x1="297.59" y1="237.07" x2="297.24" y2="234.22"/><line x1="218.28" y1="243.13" x2="217.45" y2="243.26"/><line x1="206.79" y1="304.94" x2="208.63" y2="306.41"/><line x1="212.89" y1="69.03" x2="211.91" y2="68.98"/><line x1="303.08" y1="300.26" x2="303.11" y2="297.70"/><line x1="216.41" y1="149.36" x2="239.73" y2="151.43"/><line x1="447.51" y1="479.91" x2="480.00" y2="447.42"/><line x1="250.00" y1="334.83" x2="250.91" y2="335.61"/><line x1="251.05" y1="310.07" x2="242.74" y2="329.28"/><line x1="202.07" y1="282.64" x2="201.63" y2="283.54"/><line x1="247.52" y1="155.25" x2="246.50" y2="153.50"/><line x1="265.15" y1="122.88" x2="263.25" y2="118.66"/><line x1="208.63" y1="306.41" x2="210.38" y2="307.72"/><line x1="211.91" y1="68.98" x2="210.94" y2="68.96"/><line x1="245.00" y1="299.98" x2="202.51" y2="243.96"/><line x1="230.19" y1="122.92" x2="230.06" y2="123.10"/><line x1="252.52" y1="280.56" x2="252.47" y2="280.18"/><line x1="255.02" y1="288.31" x2="254.64" y2="292.78"/><line x1="303.48" y1="294.86" x2="303.59" y2="294.58"/><line x1="312.52" y1="286.75" x2="268.70" y2="213.38"/><line x1="242.74" y1="329.28" x2="252.42" y2="311.20"/><line x1="251.62" y1="277.10" x2="251.52" y2="276.65"/><line x1="245.00" y1="299.98" x2="207.82" y2="242.49"/><line x1="245.00" y1="299.98" x2="213.01" y2="243.55"/><line x1="230.69" y1="122.41" x2="220.78" y2="70.81"/><line x1="245.00" y1="299.98" x2="215.97" y2="243.45"/><line x1="231.22" y1="122.25" x2="249.53" y2="93.21"/><line x1="198.69" y1="297.49" x2="197.46" y2="291.98"/><line x1="230.69" y1="122.41" x2="201.28" y2="100.61"/><line x1="297.00" y1="334.53" x2="290.42" y2="342.43"/><line x1="201.64" y1="257.53" x2="202.31" y2="260.02"/><line x1="245.00" y1="299.98" x2="203.17" y2="262.55"/><line x1="198.69" y1="297.49" x2="196.50" y2="294.70"/><line x1="230.06" y1="123.10" x2="213.39" y2="139.85"/><line x1="256.57" y1="226.94" x2="303.21" y2="296.12"/><line x1="218.54" y1="156.07" x2="219.21" y2="157.66"/><line x1="263.34" y1="207.73" x2="246.13" y2="208.29"/><line x1="268.70" y1="213.38" x2="299.64" y2="249.62"/><line x1="267.85" y1="214.74" x2="268.33" y2="215.08"/><line x1="256.57" y1="226.94" x2="268.33" y2="215.08"/><line x1="294.88" y1="217.32" x2="294.44" y2="214.87"/><line x1="268.70" y1="213.38" x2="296.14" y2="225.36"/><line x1="204.31" y1="278.19" x2="203.98" y2="277.87"/><line x1="267.72" y1="347.46" x2="267.70" y2="314.30"/><line x1="268.56" y1="313.86" x2="287.61" y2="344.42"/><line x1="209.42" y1="280.15" x2="218.03" y2="311.92"/><line x1="249.53" y1="93.21" x2="247.54" y2="90.15"/><line x1="302.81" y1="305.50" x2="302.98" y2="302.86"/><line x1="204.67" y1="71.50" x2="203.72" y2="72.62"/><line x1="278.12" y1="262.74" x2="277.70" y2="261.53"/><line x1="305.94" y1="292.80" x2="307.25" y2="293.36"/><line x1="219.21" y1="157.66" x2="219.98" y2="159.34"/><line x1="264.93" y1="314.87" x2="256.94" y2="341.07"/><line x1="212.56" y1="243.49" x2="213.01" y2="243.55"/><line x1="238.38" y1="138.65" x2="265.15" y2="122.88"/><line x1="230.89" y1="122.24" x2="238.34" y2="79.25"/><line x1="202.09" y1="244.52" x2="202.51" y2="243.96"/><line x1="205.60" y1="116.87" x2="206.44" y2="119.42"/><line x1="203.72" y1="72.62" x2="202.86" y2="73.95"/><line x1="229.67" y1="124.09" x2="229.63" y2="124.31"/><line x1="254.55" y1="287.14" x2="254.33" y2="286.53"/><line x1="248.62" y1="307.34" x2="247.56" y2="305.74"/><line x1="265.15" y1="122.88" x2="237.82" y2="137.33"/><line x1="240.86" y1="81.92" x2="240.27" y2="81.27"/><line x1="208.65" y1="274.31" x2="209.32" y2="275.84"/><line x1="245.00" y1="299.98" x2="201.20" y2="246.66"/><line x1="273.29" y1="253.07" x2="272.22" y2="251.45"/><line x1="229.63" y1="124.31" x2="229.60" y2="124.55"/><line x1="288.29" y1="343.97" x2="288.99" y2="343.50"/><line x1="244.15" y1="165.82" x2="244.60" y2="167.01"/><line x1="251.97" y1="295.94" x2="251.05" y2="296.68"/><line x1="266.81" y1="314.62" x2="266.19" y2="346.89"/><line x1="245.00" y1="299.98" x2="204.93" y2="242.55"/><line x1="245.00" y1="299.98" x2="229.54" y2="245.28"/><line x1="245.00" y1="299.98" x2="210.18" y2="242.99"/><line x1="263.25" y1="118.66" x2="235.58" y2="129.89"/><line x1="276.17" y1="348.75" x2="276.86" y2="348.71"/><line x1="245.00" y1="299.98" x2="219.86" y2="242.90"/><line x1="245.00" y1="299.98" x2="200.77" y2="250.41"/><line x1="240.27" y1="81.27" x2="239.65" y2="80.61"/><line x1="198.69" y1="297.49" x2="196.84" y2="293.26"/><line x1="256.57" y1="226.94" x2="303.12" y2="297.28"/><line x1="268.70" y1="213.38" x2="302.07" y2="259.49"/><line x1="244.60" y1="167.01" x2="236.63" y2="191.16"/><line x1="480.00" y1="479.91" x2="447.51" y2="479.91"/><line x1="228.25" y1="312.08" x2="234.56" y2="319.45"/><line x1="268.70" y1="213.38" x2="297.97" y2="239.80"/><line x1="208.68" y1="280.89" x2="212.06" y2="308.89"/><line x1="268.70" y1="213.38" x2="294.44" y2="214.87"/><line x1="206.61" y1="242.38" x2="206.96" y2="242.39"/><line x1="209.42" y1="280.15" x2="228.25" y2="312.08"/><line x1="301.42" y1="316.43" x2="301.87" y2="313.63"/><line x1="200.09" y1="86.17" x2="200.04" y2="88.92"/><line x1="266.19" y1="346.89" x2="267.72" y2="347.46"/><line x1="291.08" y1="199.63" x2="268.02" y2="207.02"/><line x1="253.90" y1="312.17" x2="255.48" y2="313.00"/><line x1="249.12" y1="334.11" x2="250.00" y2="334.83"/><line x1="251.73" y1="277.53" x2="251.62" y2="277.10"/><line x1="230.89" y1="122.24" x2="241.44" y2="82.55"/><line x1="207.36" y1="280.33" x2="207.70" y2="280.50"/><line x1="235.97" y1="131.20" x2="235.58" y2="129.89"/><line x1="230.89" y1="122.24" x2="222.74" y2="71.53"/><line x1="222.74" y1="71.53" x2="221.76" y2="71.16"/><line x1="272.91" y1="308.57" x2="273.41" y2="307.26"/><line x1="227.50" y1="174.03" x2="243.78" y2="164.81"/><line x1="229.76" y1="126.64" x2="229.87" y2="127.05"/><line x1="243.21" y1="201.04" x2="246.13" y2="203.97"/><line x1="247.71" y1="298.74" x2="246.40" y2="299.37"/><line x1="259.38" y1="110.66" x2="233.52" y2="124.78"/><line x1="202.07" y1="282.64" x2="208.02" y2="280.64"/><line x1="203.74" y1="278.59" x2="204.31" y2="278.19"/><line x1="280.95" y1="347.89" x2="281.66" y2="347.62"/><line x1="245.00" y1="299.98" x2="202.09" y2="244.52"/><line x1="255.02" y1="288.31" x2="255.03" y2="291.95"/><line x1="245.00" y1="299.98" x2="239.61" y2="255.90"/><line x1="253.84" y1="338.17" x2="255.39" y2="339.68"/><line x1="245.00" y1="299.98" x2="207.36" y2="242.42"/><line x1="245.00" y1="299.98" x2="222.61" y2="242.66"/><line x1="245.00" y1="299.98" x2="216.68" y2="243.36"/><line x1="215.20" y1="310.73" x2="209.42" y2="280.15"/><line x1="198.69" y1="297.49" x2="197.66" y2="291.63"/><line x1="274.23" y1="304.29" x2="274.53" y2="302.63"/><line x1="198.69" y1="297.49" x2="196.53" y2="294.42"/><line x1="268.70" y1="213.38" x2="300.10" y2="251.80"/><line x1="268.56" y1="313.86" x2="286.93" y2="344.83"/><line x1="208.68" y1="280.89" x2="200.83" y2="299.58"/><line x1="268.70" y1="213.38" x2="296.52" y2="228.25"/><line x1="209.42" y1="280.15" x2="216.65" y2="311.40"/><line x1="302.81" y1="305.50" x2="276.79" y2="293.31"/><line x1="305.94" y1="292.80" x2="312.52" y2="286.75"/><line x1="246.38" y1="266.12" x2="244.06" y2="262.39"/><line x1="255.45" y1="103.25" x2="253.48" y2="99.77"/><line x1="202.89" y1="301.52" x2="204.88" y2="303.30"/><line x1="203.18" y1="280.12" x2="205.64" y2="279.30"/><line x1="230.89" y1="122.24" x2="239.01" y2="79.94"/><line x1="205.60" y1="116.87" x2="230.34" y2="122.75"/><line x1="270.19" y1="312.59" x2="270.96" y2="311.76"/><line x1="255.27" y1="288.87" x2="255.31" y2="291.12"/><line x1="254.55" y1="287.14" x2="251.97" y2="295.94"/><line x1="261.58" y1="344.51" x2="263.12" y2="345.42"/><line x1="268.02" y1="207.02" x2="267.64" y2="205.12"/><line x1="212.06" y1="308.89" x2="213.67" y2="309.89"/><line x1="231.93" y1="122.62" x2="231.57" y2="122.37"/><line x1="205.64" y1="279.30" x2="205.98" y2="279.53"/><line x1="214.74" y1="243.57" x2="214.22" y2="243.59"/><line x1="228.25" y1="312.08" x2="209.69" y2="279.79"/><line x1="200.27" y1="83.62" x2="200.09" y2="86.17"/><line x1="245.00" y1="299.98" x2="252.11" y2="278.67"/><line x1="245.00" y1="299.98" x2="200.88" y2="248.41"/><line x1="273.29" y1="253.07" x2="256.57" y2="226.94"/><line x1="245.00" y1="299.98" x2="248.76" y2="270.16"/><line x1="245.00" y1="299.98" x2="204.22" y2="242.77"/><line x1="251.97" y1="295.94" x2="254.33" y2="286.53"/><line x1="245.00" y1="299.98" x2="231.44" y2="246.75"/><line x1="233.39" y1="248.55" x2="231.44" y2="246.75"/><line x1="200.88" y1="248.41" x2="200.80" y2="249.38"/><line x1="263.25" y1="118.66" x2="235.97" y2="131.20"/><line x1="245.00" y1="299.98" x2="220.55" y2="242.81"/><line x1="209.69" y1="279.79" x2="209.90" y2="279.44"/><line x1="229.68" y1="126.23" x2="229.76" y2="126.64"/><line x1="249.79" y1="308.78" x2="234.56" y2="319.45"/><line x1="268.70" y1="213.38" x2="302.59" y2="261.15"/><line x1="231.44" y1="246.75" x2="229.54" y2="245.28"/><line x1="278.44" y1="263.90" x2="278.12" y2="262.74"/><line x1="268.70" y1="213.38" x2="298.36" y2="242.42"/><line x1="207.02" y1="280.16" x2="207.36" y2="280.33"/><line x1="201.20" y1="246.66" x2="201.45" y2="245.88"/><line x1="208.68" y1="280.89" x2="210.38" y2="307.72"/><line x1="297.95" y1="331.34" x2="298.81" y2="328.22"/><line x1="223.71" y1="71.93" x2="222.74" y2="71.53"/><line x1="264.29" y1="209.49" x2="263.34" y2="207.73"/><line x1="301.42" y1="316.43" x2="272.91" y2="308.57"/><line x1="254.78" y1="287.73" x2="252.80" y2="295.17"/><line x1="291.08" y1="199.63" x2="268.32" y2="208.79"/><line x1="253.94" y1="285.27" x2="247.71" y2="298.74"/><line x1="203.48" y1="279.34" x2="203.18" y2="280.12"/><line x1="264.44" y1="193.88" x2="263.53" y2="191.33"/><line x1="230.89" y1="122.24" x2="241.99" y2="83.18"/><line x1="207.36" y1="280.33" x2="202.07" y2="282.64"/><line x1="304.24" y1="293.36" x2="305.94" y2="292.80"/><line x1="230.89" y1="122.24" x2="223.71" y2="71.93"/><line x1="200.90" y1="98.51" x2="201.28" y2="100.61"/><line x1="227.50" y1="174.03" x2="243.50" y2="163.97"/><line x1="303.17" y1="296.49" x2="303.21" y2="296.12"/><line x1="257.16" y1="313.67" x2="258.95" y2="314.20"/><line x1="247.71" y1="298.74" x2="252.52" y2="280.56"/><line x1="298.81" y1="328.22" x2="270.19" y2="312.59"/><line x1="269.39" y1="313.29" x2="268.56" y2="313.86"/><line x1="259.38" y1="110.66" x2="233.95" y2="125.61"/><line x1="210.18" y1="242.99" x2="210.86" y2="243.15"/><line x1="197.46" y1="291.98" x2="197.26" y2="292.32"/><line x1="228.25" y1="312.08" x2="210.18" y2="278.43"/><line x1="245.00" y1="299.98" x2="251.62" y2="277.10"/><line x1="299.64" y1="249.62" x2="299.19" y2="247.34"/><line x1="245.00" y1="299.98" x2="241.80" y2="258.98"/><line x1="202.84" y1="280.93" x2="202.47" y2="281.77"/><line x1="221.72" y1="242.70" x2="221.16" y2="242.75"/><line x1="274.25" y1="254.63" x2="273.29" y2="253.07"/><line x1="253.84" y1="338.17" x2="264.93" y2="314.87"/><line x1="245.00" y1="299.98" x2="224.25" y2="242.83"/><line x1="271.68" y1="310.82" x2="272.32" y2="309.76"/><line x1="217.81" y1="69.90" x2="216.82" y2="69.65"/><line x1="245.00" y1="299.98" x2="217.45" y2="243.26"/><line x1="274.23" y1="304.29" x2="302.81" y2="305.50"/><line x1="303.33" y1="295.46" x2="303.40" y2="295.15"/><line x1="252.49" y1="164.87" x2="251.52" y2="162.83"/><line x1="198.15" y1="290.90" x2="197.90" y2="291.27"/><line x1="268.56" y1="313.86" x2="286.27" y2="345.20"/><line x1="208.68" y1="280.89" x2="202.89" y2="301.52"/><line x1="213.39" y1="139.85" x2="231.23" y2="130.04"/><line x1="248.26" y1="333.43" x2="249.12" y2="334.11"/><line x1="303.12" y1="297.28" x2="303.14" y2="296.88"/><line x1="204.82" y1="114.37" x2="205.60" y2="116.87"/><line x1="265.96" y1="212.31" x2="265.17" y2="211.01"/><line x1="260.84" y1="314.57" x2="262.84" y2="314.80"/><line x1="247.20" y1="210.45" x2="247.47" y2="210.85"/><line x1="272.32" y1="309.76" x2="301.42" y2="316.43"/><line x1="255.45" y1="103.25" x2="231.93" y2="122.62"/><line x1="230.89" y1="122.24" x2="239.65" y2="80.61"/><line x1="213.77" y1="243.60" x2="214.22" y2="243.59"/><line x1="268.33" y1="215.08" x2="305.94" y2="292.80"/><line x1="247.44" y1="332.78" x2="257.16" y2="313.67"/><line x1="280.26" y1="348.10" x2="280.95" y2="347.89"/><line x1="255.27" y1="288.87" x2="255.53" y2="289.42"/><line x1="227.50" y1="174.03" x2="236.63" y2="191.16"/><line x1="296.91" y1="231.26" x2="296.52" y2="228.25"/><line x1="261.33" y1="114.59" x2="259.38" y2="110.66"/><line x1="239.73" y1="141.45" x2="268.85" y2="131.77"/><line x1="261.58" y1="344.51" x2="266.81" y2="314.62"/><line x1="212.06" y1="308.89" x2="209.08" y2="280.51"/><line x1="240.49" y1="198.32" x2="243.21" y2="201.04"/><line x1="210.94" y1="68.96" x2="209.49" y2="69.06"/><line x1="245.00" y1="299.98" x2="252.21" y2="279.05"/><line x1="216.66" y1="150.53" x2="217.01" y2="151.79"/><line x1="197.66" y1="291.63" x2="197.46" y2="291.98"/><line x1="209.51" y1="242.83" x2="210.18" y2="242.99"/><line x1="245.00" y1="299.98" x2="251.26" y2="275.11"/><line x1="277.91" y1="158.49" x2="262.52" y2="188.67"/><line x1="245.00" y1="299.98" x2="233.39" y2="248.55"/><line x1="247.54" y1="90.15" x2="245.55" y2="87.22"/><line x1="239.73" y1="151.43" x2="219.21" y2="157.66"/><line x1="230.69" y1="122.41" x2="202.81" y2="107.23"/><line x1="252.83" y1="337.28" x2="253.84" y2="338.17"/><line x1="254.64" y1="292.78" x2="254.14" y2="293.58"/><line x1="257.42" y1="106.89" x2="232.31" y2="122.98"/><line x1="204.63" y1="278.49" x2="204.96" y2="278.77"/><line x1="230.73" y1="129.18" x2="230.97" y2="129.61"/><line x1="213.39" y1="139.85" x2="230.15" y2="127.89"/><line x1="276.79" y1="293.31" x2="278.86" y2="283.62"/><line x1="203.17" y1="262.55" x2="204.23" y2="265.14"/><line x1="213.39" y1="139.85" x2="216.41" y2="149.36"/><line x1="229.95" y1="123.28" x2="229.86" y2="123.47"/><line x1="285.62" y1="345.55" x2="268.56" y2="313.86"/><line x1="267.70" y1="314.30" x2="283.17" y2="346.95"/><line x1="254.78" y1="287.73" x2="253.53" y2="294.38"/><line x1="291.08" y1="199.63" x2="268.53" y2="210.44"/><line x1="269.26" y1="347.93" x2="270.81" y2="348.29"/><line x1="222.20" y1="242.67" x2="221.72" y2="242.70"/><line x1="246.94" y1="209.99" x2="247.20" y2="210.45"/><line x1="268.33" y1="215.08" x2="303.70" y2="294.31"/><line x1="227.50" y1="174.03" x2="243.31" y2="163.30"/><line x1="247.44" y1="332.78" x2="248.26" y2="333.43"/><line x1="480.00" y1="64.50" x2="447.51" y2="32.02"/><line x1="213.41" y1="243.59" x2="213.77" y2="243.60"/><line x1="203.00" y1="243.47" x2="203.57" y2="243.08"/><line x1="299.59" y1="325.17" x2="300.28" y2="322.18"/><line x1="260.04" y1="343.48" x2="261.58" y2="344.51"/><line x1="245.00" y1="299.98" x2="251.73" y2="277.53"/><line x1="277.91" y1="158.49" x2="266.63" y2="200.95"/><line x1="252.31" y1="279.43" x2="252.21" y2="279.05"/><line x1="245.00" y1="299.98" x2="244.06" y2="262.39"/><line x1="202.84" y1="280.93" x2="206.68" y2="279.97"/><line x1="277.91" y1="158.49" x2="272.45" y2="141.26"/><line x1="230.69" y1="122.41" x2="200.59" y2="96.48"/><line x1="239.73" y1="151.43" x2="216.66" y2="150.53"/><line x1="206.44" y1="119.42" x2="213.39" y2="139.85"/><line x1="209.80" y1="277.03" x2="210.09" y2="277.90"/><line x1="230.69" y1="122.41" x2="205.60" y2="116.87"/><line x1="272.22" y1="251.45" x2="271.07" y2="249.77"/><line x1="201.02" y1="247.50" x2="200.88" y2="248.41"/><line x1="303.33" y1="295.46" x2="268.33" y2="215.08"/><line x1="213.39" y1="139.85" x2="229.86" y2="123.47"/><line x1="217.45" y1="243.26" x2="216.68" y2="243.36"/><line x1="213.39" y1="139.85" x2="229.63" y2="125.84"/><line x1="213.39" y1="139.85" x2="230.97" y2="129.61"/><line x1="196.59" y1="294.13" x2="196.53" y2="294.42"/><line x1="267.70" y1="314.30" x2="279.59" y2="348.28"/><line x1="202.31" y1="260.02" x2="203.17" y2="262.55"/><line x1="260.84" y1="314.57" x2="251.86" y2="336.42"/><line x1="267.70" y1="314.30" x2="268.56" y2="313.86"/><line x1="235.18" y1="128.67" x2="234.78" y2="127.56"/><line x1="301.87" y1="313.63" x2="302.25" y2="310.88"/><line x1="278.86" y1="283.62" x2="278.86" y2="267.05"/><line x1="268.33" y1="215.08" x2="304.24" y2="293.36"/><line x1="251.52" y1="276.65" x2="251.42" y2="276.16"/><line x1="303.11" y1="297.70" x2="278.12" y2="262.74"/><line x1="239.73" y1="141.45" x2="270.67" y2="136.45"/><line x1="273.41" y1="307.26" x2="273.86" y2="305.84"/><line x1="245.00" y1="299.98" x2="252.31" y2="279.43"/><line x1="303.70" y1="294.31" x2="303.81" y2="294.06"/><line x1="230.69" y1="122.41" x2="205.73" y2="70.58"/><line x1="302.56" y1="308.17" x2="274.23" y2="304.29"/><line x1="277.91" y1="158.49" x2="263.53" y2="191.33"/><line x1="230.69" y1="122.41" x2="200.09" y2="86.17"/><line x1="239.73" y1="151.43" x2="218.54" y2="156.07"/><line x1="247.54" y1="90.15" x2="230.89" y2="122.24"/><line x1="230.69" y1="122.41" x2="202.24" y2="104.97"/><line x1="272.45" y1="141.26" x2="252.49" y2="164.87"/><line x1="200.80" y1="249.38" x2="200.77" y2="250.41"/><line x1="258.95" y1="314.20" x2="260.84" y2="314.57"/><line x1="198.15" y1="290.90" x2="208.68" y2="280.89"/><line x1="254.64" y1="292.78" x2="254.78" y2="287.73"/><line x1="293.99" y1="212.53" x2="291.08" y2="199.63"/><line x1="257.42" y1="106.89" x2="232.70" y2="123.46"/><line x1="213.39" y1="139.85" x2="229.63" y2="124.31"/><line x1="266.67" y1="213.35" x2="265.96" y2="212.31"/><line x1="213.39" y1="139.85" x2="230.00" y2="127.46"/><line x1="276.79" y1="293.31" x2="303.11" y2="297.70"/><line x1="213.39" y1="139.85" x2="235.03" y2="136.36"/><line x1="267.70" y1="314.30" x2="276.17" y2="348.75"/><line x1="277.20" y1="260.27" x2="276.60" y2="258.95"/><line x1="232.31" y1="122.98" x2="255.45" y2="103.25"/><line x1="267.70" y1="314.30" x2="282.40" y2="347.31"/><line x1="196.66" y1="293.84" x2="196.59" y2="294.13"/><line x1="237.82" y1="137.33" x2="237.34" y2="136.07"/><line x1="218.03" y1="311.92" x2="219.32" y2="312.26"/><line x1="297.24" y1="234.22" x2="296.91" y2="231.26"/><line x1="268.33" y1="215.08" x2="303.59" y2="294.58"/><line x1="254.33" y1="286.53" x2="250.03" y2="297.40"/><line x1="307.25" y1="293.36" x2="309.14" y2="295.24"/><line x1="247.44" y1="332.78" x2="258.95" y2="314.20"/><line x1="303.11" y1="297.70" x2="278.86" y2="283.62"/><line x1="303.11" y1="297.70" x2="275.91" y2="257.57"/><line x1="239.65" y1="80.61" x2="239.01" y2="79.94"/><line x1="299.59" y1="325.17" x2="271.68" y2="310.82"/><line x1="246.50" y1="153.50" x2="239.73" y2="141.45"/><line x1="210.38" y1="307.72" x2="212.06" y2="308.89"/><line x1="230.69" y1="122.41" x2="211.91" y2="68.98"/><line x1="277.91" y1="158.49" x2="267.18" y2="203.09"/><line x1="209.08" y1="280.51" x2="209.42" y2="280.15"/><line x1="230.69" y1="122.41" x2="202.11" y2="75.47"/><line x1="202.84" y1="280.93" x2="206.33" y2="279.76"/><line x1="303.59" y1="294.58" x2="303.70" y2="294.31"/><line x1="277.91" y1="158.49" x2="253.46" y2="166.97"/><line x1="230.69" y1="122.41" x2="200.35" y2="94.50"/><line x1="239.73" y1="151.43" x2="243.31" y2="163.30"/><line x1="230.69" y1="122.41" x2="204.82" y2="114.37"/><line x1="272.45" y1="141.26" x2="248.53" y2="157.06"/><line x1="234.56" y1="319.45" x2="248.62" y2="307.34"/><line x1="290.42" y1="342.43" x2="295.97" y2="337.79"/><line x1="267.01" y1="127.25" x2="265.15" y2="122.88"/><line x1="213.39" y1="139.85" x2="229.95" y2="123.28"/><line x1="235.58" y1="129.89" x2="235.18" y2="128.67"/><line x1="269.39" y1="313.29" x2="270.19" y2="312.59"/><line x1="213.39" y1="139.85" x2="229.59" y2="125.45"/><line x1="210.06" y1="279.10" x2="210.15" y2="278.76"/><line x1="294.44" y1="214.87" x2="293.99" y2="212.53"/><line x1="213.39" y1="139.85" x2="230.73" y2="129.18"/><line x1="267.70" y1="314.30" x2="269.26" y2="347.93"/><line x1="32.16" y1="32.09" x2="32.16" y2="64.58"/><line x1="267.70" y1="314.30" x2="278.91" y2="348.42"/><line x1="302.07" y1="259.49" x2="301.56" y2="257.72"/><line x1="267.70" y1="314.30" x2="285.62" y2="345.55"/><line x1="277.70" y1="261.53" x2="277.20" y2="260.27"/><line x1="219.98" y1="159.34" x2="227.50" y2="174.03"/><line x1="301.87" y1="313.63" x2="273.41" y2="307.26"/><line x1="202.51" y1="243.96" x2="203.00" y2="243.47"/><line x1="216.65" y1="311.40" x2="218.03" y2="311.92"/><line x1="268.33" y1="215.08" x2="304.09" y2="293.58"/><line x1="202.86" y1="73.95" x2="202.11" y2="75.47"/><line x1="262.52" y1="188.67" x2="261.42" y2="185.91"/><line x1="303.11" y1="297.70" x2="278.44" y2="263.90"/><line x1="312.52" y1="286.75" x2="307.25" y2="293.36"/><line x1="244.06" y1="262.39" x2="241.80" y2="258.98"/><line x1="303.11" y1="297.70" x2="256.57" y2="226.94"/><line x1="242.74" y1="329.28" x2="247.44" y2="332.78"/><line x1="205.98" y1="279.53" x2="206.33" y2="279.76"/><line x1="230.69" y1="122.41" x2="216.82" y2="69.65"/><line x1="245.00" y1="299.98" x2="207.78" y2="272.47"/><line x1="270.96" y1="311.76" x2="299.59" y2="325.17"/><line x1="209.32" y1="275.84" x2="209.80" y2="277.03"/><line x1="230.69" y1="122.41" x2="206.88" y2="69.87"/><line x1="229.60" y1="124.55" x2="229.59" y2="124.80"/><line x1="256.57" y1="226.94" x2="267.85" y2="214.74"/><line x1="230.69" y1="122.41" x2="200.27" y2="83.62"/><line x1="267.64" y1="205.12" x2="277.91" y2="158.49"/><line x1="239.73" y1="151.43" x2="217.94" y2="154.56"/><line x1="263.34" y1="207.73" x2="247.20" y2="210.45"/><line x1="230.69" y1="122.41" x2="201.73" y2="102.76"/><line x1="276.86" y1="348.71" x2="277.55" y2="348.64"/><line x1="211.48" y1="243.29" x2="212.04" y2="243.40"/><line x1="258.95" y1="314.20" x2="250.00" y2="334.83"/><line x1="272.45" y1="141.26" x2="270.67" y2="136.45"/><line x1="234.56" y1="319.45" x2="245.75" y2="302.06"/><line x1="198.15" y1="290.90" x2="198.69" y2="297.49"/><line x1="213.39" y1="139.85" x2="229.67" y2="124.09"/><line x1="236.63" y1="191.16" x2="245.12" y2="168.36"/><line x1="213.39" y1="139.85" x2="229.87" y2="127.05"/><line x1="267.70" y1="314.30" x2="275.47" y2="348.77"/><line x1="206.96" y1="242.39" x2="207.36" y2="242.42"/><line x1="200.04" y1="88.92" x2="200.07" y2="90.72"/><line x1="267.70" y1="314.30" x2="281.66" y2="347.62"/><line x1="286.93" y1="344.83" x2="287.61" y2="344.42"/><line x1="250.00" y1="334.83" x2="260.84" y2="314.57"/><line x1="230.34" y1="122.75" x2="230.19" y2="122.92"/><line x1="254.22" y1="188.71" x2="263.34" y2="207.73"/><line x1="265.15" y1="122.88" x2="236.35" y2="132.60"/><line x1="254.33" y1="286.53" x2="251.05" y2="296.68"/><line x1="229.87" y1="127.05" x2="230.00" y2="127.46"/><line x1="231.57" y1="122.37" x2="231.22" y2="122.25"/><line x1="252.52" y1="280.56" x2="245.00" y2="299.98"/><line x1="200.77" y1="250.41" x2="200.87" y2="252.73"/><line x1="303.11" y1="297.70" x2="276.60" y2="258.95"/><line x1="312.52" y1="286.75" x2="303.11" y2="262.71"/><line x1="281.66" y1="347.62" x2="282.40" y2="347.31"/><line x1="245.00" y1="299.98" x2="212.56" y2="243.49"/><line x1="230.69" y1="122.41" x2="221.76" y2="71.16"/><line x1="262.84" y1="314.80" x2="264.93" y2="314.87"/><line x1="245.00" y1="299.98" x2="202.31" y2="260.02"/><line x1="230.69" y1="122.41" x2="212.89" y2="69.03"/><line x1="263.12" y1="345.42" x2="264.65" y2="346.21"/><line x1="245.00" y1="299.98" x2="210.09" y2="277.90"/><line x1="209.08" y1="280.51" x2="215.20" y2="310.73"/><line x1="256.57" y1="226.94" x2="303.17" y2="296.49"/><line x1="255.03" y1="291.95" x2="254.64" y2="292.78"/><line x1="230.69" y1="122.41" x2="202.86" y2="73.95"/><line x1="263.34" y1="207.73" x2="246.13" y2="203.97"/><line x1="256.57" y1="226.94" x2="264.29" y2="209.49"/><line x1="233.52" y1="124.78" x2="233.11" y2="124.07"/><line x1="210.86" y1="243.15" x2="211.48" y2="243.29"/><line x1="265.89" y1="314.81" x2="266.81" y2="314.62"/><line x1="272.45" y1="141.26" x2="249.53" y2="158.93"/><line x1="251.26" y1="275.11" x2="251.20" y2="274.52"/><line x1="201.73" y1="102.76" x2="202.24" y2="104.97"/><line x1="267.01" y1="127.25" x2="238.38" y2="138.65"/><line x1="32.00" y1="479.98" x2="64.49" y2="479.98"/><line x1="200.83" y1="299.58" x2="198.69" y2="297.49"/><line x1="269.39" y1="313.29" x2="298.81" y2="328.22"/><line x1="236.63" y1="191.16" x2="240.49" y2="198.32"/><line x1="264.93" y1="314.87" x2="255.39" y2="339.68"/><line x1="267.70" y1="314.30" x2="278.23" y2="348.55"/><line x1="303.11" y1="297.70" x2="278.68" y2="265.00"/><line x1="266.81" y1="314.62" x2="264.65" y2="346.21"/><line x1="245.00" y1="299.98" x2="209.51" y2="242.83"/><line x1="253.48" y1="99.77" x2="251.50" y2="96.42"/><line x1="242.74" y1="329.28" x2="234.56" y2="319.45"/><line x1="205.98" y1="279.53" x2="202.84" y2="280.93"/><line x1="245.00" y1="299.98" x2="214.22" y2="243.59"/><line x1="230.69" y1="122.41" x2="217.81" y2="69.90"/><line x1="298.77" y1="244.93" x2="298.36" y2="242.42"/><line x1="245.00" y1="299.98" x2="206.73" y2="270.29"/><line x1="198.69" y1="297.49" x2="196.96" y2="292.95"/><line x1="256.57" y1="226.94" x2="272.22" y2="251.45"/><line x1="230.69" y1="122.41" x2="208.13" y2="69.37"/><line x1="256.57" y1="226.94" x2="267.31" y2="214.17"/><line x1="263.34" y1="207.73" x2="246.94" y2="209.99"/><line x1="268.70" y1="213.38" x2="294.88" y2="217.32"/><line x1="209.90" y1="279.44" x2="210.06" y2="279.10"/><line x1="209.42" y1="280.15" x2="223.74" y2="312.36"/><line x1="202.47" y1="281.77" x2="202.07" y2="282.64"/><line x1="250.53" y1="160.85" x2="249.53" y2="158.93"/><line x1="290.42" y1="342.43" x2="289.70" y2="342.98"/><line x1="253.90" y1="312.17" x2="247.44" y2="332.78"/><line x1="245.00" y1="299.98" x2="210.18" y2="278.43"/><line x1="302.59" y1="261.15" x2="302.07" y2="259.49"/><line x1="229.54" y1="245.28" x2="227.72" y2="244.13"/><line x1="222.74" y1="71.53" x2="230.69" y2="122.41"/><line x1="272.91" y1="308.57" x2="301.87" y2="313.63"/><line x1="243.21" y1="201.04" x2="263.34" y2="207.73"/><line x1="263.53" y1="191.33" x2="262.52" y2="188.67"/><line x1="202.07" y1="282.64" x2="207.70" y2="280.50"/><line x1="265.15" y1="122.88" x2="236.60" y2="133.70"/><line x1="251.86" y1="336.42" x2="252.83" y2="337.28"/><line x1="296.14" y1="225.36" x2="295.72" y2="222.57"/><line x1="201.28" y1="100.61" x2="201.73" y2="102.76"/><line x1="303.21" y1="296.12" x2="303.26" y2="295.78"/><line x1="245.00" y1="299.98" x2="201.74" y2="245.17"/><line x1="252.52" y1="280.56" x2="246.40" y2="299.37"/><line x1="245.00" y1="299.98" x2="206.96" y2="242.39"/><line x1="312.52" y1="286.75" x2="316.65" y2="277.87"/><line x1="278.81" y1="266.05" x2="278.68" y2="265.00"/><line x1="233.95" y1="125.61" x2="233.52" y2="124.78"/><line x1="245.00" y1="299.98" x2="212.04" y2="243.40"/><line x1="197.26" y1="292.32" x2="197.10" y2="292.65"/><line x1="245.00" y1="299.98" x2="201.64" y2="257.53"/><line x1="198.69" y1="297.49" x2="197.90" y2="291.27"/><line x1="230.97" y1="129.61" x2="231.23" y2="130.04"/><line x1="245.00" y1="299.98" x2="209.80" y2="277.03"/><line x1="198.69" y1="297.49" x2="196.59" y2="294.13"/><line x1="256.57" y1="226.94" x2="303.14" y2="296.88"/><line x1="299.19" y1="247.34" x2="298.77" y2="244.93"/><line x1="268.70" y1="213.38" x2="300.58" y2="253.88"/><line x1="221.16" y1="242.75" x2="220.55" y2="242.81"/><line x1="256.57" y1="226.94" x2="265.17" y2="211.01"/><line x1="263.34" y1="207.73" x2="248.00" y2="211.50"/><line x1="233.52" y1="124.78" x2="257.42" y2="106.89"/><line x1="268.70" y1="213.38" x2="296.91" y2="231.26"/><line x1="303.95" y1="293.81" x2="304.09" y2="293.58"/><line x1="216.82" y1="69.65" x2="215.84" y2="69.44"/><line x1="265.89" y1="314.81" x2="261.58" y2="344.51"/><line x1="268.70" y1="213.38" x2="268.65" y2="211.97"/><line x1="302.81" y1="305.50" x2="274.53" y2="302.63"/><line x1="245.00" y1="299.98" x2="228.25" y2="312.08"/><line x1="231.23" y1="130.04" x2="231.52" y2="130.48"/><line x1="32.00" y1="479.98" x2="32.00" y2="447.50"/><line x1="269.39" y1="313.29" x2="289.70" y2="342.98"/><line x1="251.52" y1="162.83" x2="250.53" y2="160.85"/><line x1="286.27" y1="345.20" x2="286.93" y2="344.83"/><line x1="202.89" y1="301.52" x2="200.83" y2="299.58"/><line x1="215.84" y1="69.44" x2="214.85" y2="69.27"/><line x1="205.60" y1="116.87" x2="230.50" y2="122.58"/><line x1="265.17" y1="211.01" x2="264.29" y2="209.49"/><line x1="247.47" y1="210.85" x2="247.74" y2="211.21"/><line x1="252.11" y1="278.67" x2="251.99" y2="278.29"/><line x1="275.91" y1="257.57" x2="275.13" y2="256.14"/><line x1="231.93" y1="122.62" x2="253.48" y2="99.77"/><line x1="251.05" y1="310.07" x2="249.79" y2="308.78"/><line x1="311.20" y1="271.59" x2="303.11" y2="262.71"/><line x1="196.53" y1="294.42" x2="196.50" y2="294.70"/><line x1="203.74" y1="278.59" x2="203.48" y2="279.34"/><line x1="230.50" y1="122.58" x2="230.34" y2="122.75"/><line x1="245.00" y1="299.98" x2="201.02" y2="247.50"/><line x1="255.47" y1="290.27" x2="255.31" y2="291.12"/><line x1="296.52" y1="228.25" x2="296.14" y2="225.36"/><line x1="245.00" y1="299.98" x2="203.57" y2="243.08"/><line x1="266.81" y1="314.62" x2="263.12" y2="345.42"/><line x1="215.97" y1="243.45" x2="215.33" y2="243.52"/><line x1="245.00" y1="299.98" x2="208.90" y2="242.69"/><line x1="253.48" y1="99.77" x2="231.57" y2="122.37"/><line x1="289.70" y1="342.98" x2="288.99" y2="343.50"/><line x1="245.00" y1="299.98" x2="221.16" y2="242.75"/><line x1="209.49" y1="69.06" x2="208.13" y2="69.37"/><line x1="245.00" y1="299.98" x2="213.77" y2="243.60"/><line x1="278.86" y1="267.05" x2="278.81" y2="266.05"/><line x1="245.00" y1="299.98" x2="214.74" y2="243.57"/><line x1="231.22" y1="122.25" x2="230.89" y2="122.24"/><line x1="206.68" y1="279.97" x2="207.02" y2="280.16"/><line x1="198.69" y1="297.49" x2="197.10" y2="292.65"/><line x1="297.00" y1="334.53" x2="297.95" y2="331.34"/><line x1="217.01" y1="151.79" x2="217.43" y2="153.13"/><line x1="198.69" y1="297.49" x2="196.46" y2="295.24"/><line x1="256.57" y1="226.94" x2="303.33" y2="295.46"/><line x1="270.67" y1="136.45" x2="268.85" y2="131.77"/><line x1="268.70" y1="213.38" x2="298.77" y2="244.93"/><line x1="228.25" y1="312.08" x2="245.75" y2="302.06"/><line x1="268.56" y1="313.86" x2="288.99" y2="343.50"/><line x1="254.13" y1="285.91" x2="253.94" y2="285.27"/><line x1="208.68" y1="280.89" x2="208.63" y2="306.41"/><line x1="268.70" y1="213.38" x2="295.31" y2="219.89"/><line x1="208.13" y1="69.37" x2="206.88" y2="69.87"/><line x1="209.42" y1="280.15" x2="220.54" y2="312.46"/><line x1="303.81" y1="294.06" x2="303.95" y2="293.81"/><line x1="203.48" y1="279.34" x2="205.30" y2="279.04"/><line x1="268.85" y1="131.77" x2="267.01" y2="127.25"/><line x1="230.89" y1="122.24" x2="245.55" y2="87.22"/><line x1="204.23" y1="265.14" x2="205.48" y2="267.78"/><line x1="230.89" y1="122.24" x2="224.68" y2="72.35"/><line x1="229.86" y1="123.47" x2="229.78" y2="123.66"/><line x1="302.25" y1="310.88" x2="302.56" y2="308.17"/><line x1="270.81" y1="348.29" x2="272.36" y2="348.55"/><line x1="245.55" y1="87.22" x2="241.99" y2="83.18"/><line x1="205.48" y1="267.78" x2="206.73" y2="270.29"/><line x1="228.25" y1="312.08" x2="210.15" y2="278.76"/><line x1="201.63" y1="283.54" x2="198.15" y2="290.90"/><line x1="243.31" y1="163.30" x2="243.50" y2="163.97"/><line x1="245.00" y1="299.98" x2="201.45" y2="245.88"/><line x1="268.65" y1="211.97" x2="268.53" y2="210.44"/><line x1="245.00" y1="299.98" x2="206.61" y2="242.38"/><line x1="266.81" y1="314.62" x2="267.70" y2="314.30"/><line x1="289.70" y1="342.98" x2="268.56" y2="313.86"/><line x1="245.00" y1="299.98" x2="225.96" y2="243.32"/><line x1="203.57" y1="243.08" x2="204.22" y2="242.77"/><line x1="271.68" y1="310.82" x2="300.89" y2="319.27"/><line x1="263.25" y1="118.66" x2="261.33" y2="114.59"/><line x1="201.47" y1="77.20" x2="200.96" y2="79.14"/><line x1="245.00" y1="299.98" x2="218.28" y2="243.13"/><line x1="245.00" y1="299.98" x2="211.48" y2="243.29"/><line x1="198.69" y1="297.49" x2="196.66" y2="293.84"/><line x1="246.60" y1="303.97" x2="245.75" y2="302.06"/><line x1="252.21" y1="279.05" x2="252.11" y2="278.67"/><line x1="249.79" y1="308.78" x2="248.62" y2="307.34"/><line x1="236.93" y1="134.86" x2="236.60" y2="133.70"/><line x1="268.70" y1="213.38" x2="301.06" y2="255.86"/><line x1="268.70" y1="213.38" x2="297.24" y2="234.22"/><line x1="265.89" y1="314.81" x2="260.04" y2="343.48"/><line x1="208.68" y1="280.89" x2="209.08" y2="280.51"/><line x1="268.70" y1="213.38" x2="291.08" y2="199.63"/><line x1="229.58" y1="125.06" x2="229.59" y2="125.45"/><line x1="250.03" y1="297.40" x2="248.92" y2="298.08"/><line x1="291.08" y1="199.63" x2="277.91" y2="158.49"/><line x1="278.23" y1="348.55" x2="278.91" y2="348.42"/><line x1="216.68" y1="243.36" x2="215.97" y2="243.45"/><line x1="235.03" y1="136.36" x2="239.73" y2="151.43"/><line x1="230.89" y1="122.24" x2="240.27" y2="81.27"/><line x1="255.27" y1="288.87" x2="255.47" y2="290.27"/><line x1="227.50" y1="174.03" x2="244.60" y2="167.01"/><line x1="261.33" y1="114.59" x2="234.37" y2="126.54"/><line x1="207.82" y1="242.49" x2="208.33" y2="242.57"/><line x1="251.05" y1="310.07" x2="252.42" y2="311.20"/><line x1="203.74" y1="278.59" x2="204.63" y2="278.49"/><line x1="255.48" y1="313.00" x2="257.16" y2="313.67"/><line x1="255.47" y1="290.27" x2="255.53" y2="289.42"/><line x1="245.00" y1="299.98" x2="251.34" y2="275.65"/><line x1="251.42" y1="276.16" x2="251.34" y2="275.65"/><line x1="208.02" y1="280.64" x2="208.35" y2="280.77"/><line x1="245.00" y1="299.98" x2="203.00" y2="243.47"/><line x1="255.02" y1="288.31" x2="254.78" y2="287.73"/><line x1="245.00" y1="299.98" x2="235.40" y2="250.68"/><line x1="208.33" y1="242.57" x2="208.90" y2="242.69"/><line x1="245.00" y1="299.98" x2="221.72" y2="242.70"/><line x1="245.00" y1="299.98" x2="215.33" y2="243.52"/><line x1="198.69" y1="297.49" x2="197.26" y2="292.32"/><line x1="251.34" y1="275.65" x2="251.26" y2="275.11"/><line x1="204.63" y1="278.49" x2="203.48" y2="279.34"/><line x1="268.70" y1="213.38" x2="299.19" y2="247.34"/><line x1="268.56" y1="313.86" x2="288.29" y2="343.97"/><line x1="208.68" y1="280.89" x2="206.79" y2="304.94"/><line x1="297.95" y1="331.34" x2="269.39" y2="313.29"/><line x1="267.31" y1="214.17" x2="266.67" y2="213.35"/><line x1="268.70" y1="213.38" x2="295.72" y2="222.57"/><line x1="254.78" y1="287.73" x2="254.14" y2="293.58"/><line x1="256.94" y1="341.07" x2="258.50" y2="342.33"/><line x1="291.08" y1="199.63" x2="268.65" y2="211.97"/><line x1="283.95" y1="346.53" x2="284.77" y2="346.07"/><line x1="203.48" y1="279.34" x2="204.96" y2="278.77"/><line x1="202.11" y1="75.47" x2="201.47" y2="77.20"/><line x1="203.18" y1="280.12" x2="202.84" y2="280.93"/><line x1="230.89" y1="122.24" x2="237.65" y2="78.56"/><line x1="276.60" y1="258.95" x2="275.91" y2="257.57"/><line x1="254.14" y1="293.58" x2="253.53" y2="294.38"/><line x1="241.80" y1="258.98" x2="239.61" y2="255.90"/><line x1="237.34" y1="136.07" x2="236.93" y2="134.86"/><line x1="219.32" y1="312.26" x2="220.54" y2="312.46"/><line x1="229.59" y1="124.80" x2="229.58" y2="125.06"/><line x1="228.25" y1="312.08" x2="210.06" y2="279.10"/><line x1="245.00" y1="299.98" x2="251.86" y2="277.91"/><line x1="245.00" y1="299.98" x2="200.80" y2="249.38"/><line x1="239.61" y1="255.90" x2="237.47" y2="253.13"/><line x1="277.55" y1="348.64" x2="278.23" y2="348.55"/><line x1="245.00" y1="299.98" x2="246.38" y2="266.12"/><line x1="239.01" y1="79.94" x2="238.34" y2="79.25"/><line x1="245.00" y1="299.98" x2="227.72" y2="244.13"/><line x1="206.44" y1="119.42" x2="230.06" y2="123.10"/><line x1="271.68" y1="310.82" x2="300.28" y2="322.18"/><line x1="263.25" y1="118.66" x2="235.18" y2="128.67"/><line x1="245.00" y1="299.98" x2="219.11" y2="243.01"/><line x1="245.12" y1="168.36" x2="245.73" y2="169.89"/><line x1="251.05" y1="296.68" x2="250.03" y2="297.40"/><line x1="267.18" y1="203.09" x2="266.63" y2="200.95"/><line x1="251.50" y1="96.42" x2="249.53" y2="93.21"/><line x1="206.33" y1="279.76" x2="206.68" y2="279.97"/><line x1="268.70" y1="213.38" x2="301.56" y2="257.72"/><line x1="207.36" y1="242.42" x2="207.82" y2="242.49"/><line x1="238.34" y1="79.25" x2="237.65" y2="78.56"/><line x1="200.07" y1="90.72" x2="200.18" y2="92.58"/><line x1="208.68" y1="280.89" x2="198.69" y2="297.49"/><line x1="245.73" y1="169.89" x2="246.41" y2="171.57"/><line x1="250.03" y1="297.40" x2="254.13" y2="285.91"/><line x1="260.84" y1="314.57" x2="250.91" y2="335.61"/><line x1="266.63" y1="200.95" x2="265.99" y2="198.69"/><line x1="291.08" y1="199.63" x2="267.64" y2="205.12"/><line x1="235.18" y1="128.67" x2="261.33" y2="114.59"/><line x1="210.15" y1="278.76" x2="210.18" y2="278.43"/><line x1="230.89" y1="122.24" x2="240.86" y2="81.92"/><line x1="200.18" y1="92.58" x2="200.35" y2="94.50"/><line x1="230.00" y1="127.46" x2="230.15" y2="127.89"/><line x1="230.89" y1="122.24" x2="230.69" y2="122.41"/><line x1="301.56" y1="257.72" x2="301.06" y2="255.86"/><line x1="268.33" y1="215.08" x2="268.70" y2="213.38"/><line x1="225.96" y1="243.32" x2="224.25" y2="242.83"/><line x1="227.50" y1="174.03" x2="244.15" y2="165.82"/><line x1="250.91" y1="335.61" x2="251.86" y2="336.42"/><line x1="261.33" y1="114.59" x2="234.78" y2="127.56"/><line x1="282.40" y1="347.31" x2="283.17" y2="346.95"/><line x1="298.81" y1="328.22" x2="299.59" y2="325.17"/><line x1="221.76" y1="71.16" x2="220.78" y2="70.81"/><line x1="273.41" y1="307.26" x2="302.25" y2="310.88"/><line x1="259.38" y1="110.66" x2="257.42" y2="106.89"/><line x1="203.74" y1="278.59" x2="203.98" y2="277.87"/><line x1="64.64" y1="32.09" x2="32.16" y2="64.58"/><line x1="230.15" y1="127.89" x2="230.32" y2="128.32"/><line x1="246.13" y1="203.97" x2="246.13" y2="208.29"/><line x1="245.00" y1="299.98" x2="252.39" y2="279.80"/><line x1="301.06" y1="255.86" x2="300.58" y2="253.88"/><line x1="261.42" y1="185.91" x2="260.23" y2="183.06"/><line x1="245.00" y1="299.98" x2="251.42" y2="276.16"/><line x1="277.91" y1="158.49" x2="264.44" y2="193.88"/><line x1="208.02" y1="280.64" x2="201.63" y2="283.54"/><line x1="283.17" y1="346.95" x2="283.95" y2="346.53"/><line x1="245.00" y1="299.98" x2="237.47" y2="253.13"/><line x1="220.78" y1="70.81" x2="219.80" y2="70.49"/><line x1="202.24" y1="104.97" x2="202.81" y2="107.23"/><line x1="245.00" y1="299.98" x2="222.20" y2="242.67"/><line x1="256.57" y1="226.94" x2="263.34" y2="207.73"/><line x1="215.20" y1="310.73" x2="216.65" y2="311.40"/><line x1="246.13" y1="208.29" x2="246.40" y2="208.92"/><line x1="256.57" y1="226.94" x2="248.00" y2="211.50"/><line x1="255.39" y1="339.68" x2="256.94" y2="341.07"/><line x1="260.23" y1="183.06" x2="253.46" y2="166.97"/><line x1="257.42" y1="106.89" x2="233.11" y2="124.07"/><line x1="212.04" y1="243.40" x2="212.56" y2="243.49"/><line x1="196.96" y1="292.95" x2="196.84" y2="293.26"/><line x1="276.79" y1="293.31" x2="303.08" y2="300.26"/><line x1="202.81" y1="107.23" x2="203.42" y2="109.55"/><line x1="208.68" y1="280.89" x2="204.88" y2="303.30"/><line x1="231.52" y1="130.48" x2="231.83" y2="130.91"/><line x1="267.31" y1="214.17" x2="267.85" y2="214.74"/><line x1="213.39" y1="139.85" x2="231.83" y2="130.91"/><line x1="298.36" y1="242.42" x2="297.97" y2="239.80"/><line x1="256.94" y1="341.07" x2="265.89" y2="314.81"/><line x1="233.11" y1="124.07" x2="232.70" y2="123.46"/><line x1="214.85" y1="69.27" x2="213.87" y2="69.13"/><line x1="203.18" y1="280.12" x2="205.98" y2="279.53"/><line x1="268.33" y1="215.08" x2="303.48" y2="294.86"/><line x1="231.83" y1="130.91" x2="235.03" y2="136.36"/><line x1="247.74" y1="211.21" x2="248.00" y2="211.50"/><line x1="297.97" y1="239.80" x2="297.59" y2="237.07"/><line x1="255.27" y1="288.87" x2="255.02" y2="288.31"/><line x1="287.61" y1="344.42" x2="288.29" y2="343.97"/><line x1="213.87" y1="69.13" x2="212.89" y2="69.03"/><line x1="239.73" y1="141.45" x2="239.02" y2="140.02"/><line x1="228.25" y1="312.08" x2="209.90" y2="279.44"/><line x1="245.00" y1="299.98" x2="251.99" y2="278.29"/><line x1="248.53" y1="157.06" x2="247.52" y2="155.25"/><line x1="277.91" y1="158.49" x2="260.23" y2="183.06"/><line x1="200.87" y1="252.73" x2="201.15" y2="255.10"/><line x1="230.69" y1="122.41" x2="200.18" y2="92.58"/><line x1="206.44" y1="119.42" x2="230.19" y2="122.92"/><line x1="239.73" y1="151.43" x2="227.50" y2="174.03"/><line x1="230.69" y1="122.41" x2="204.10" y2="111.93"/><line x1="255.31" y1="291.12" x2="255.03" y2="291.95"/><line x1="303.40" y1="295.15" x2="303.48" y2="294.86"/><line x1="264.65" y1="346.21" x2="266.19" y2="346.89"/><line x1="227.72" y1="244.13" x2="225.96" y2="243.32"/><line x1="251.50" y1="96.42" x2="231.22" y2="122.25"/><line x1="213.39" y1="139.85" x2="229.58" y2="125.06"/><line x1="201.15" y1="255.10" x2="201.64" y2="257.53"/><line x1="213.39" y1="139.85" x2="230.51" y2="128.75"/><line x1="217.94" y1="154.56" x2="218.54" y2="156.07"/><line x1="32.16" y1="32.09" x2="64.64" y2="32.09"/><line x1="248.76" y1="270.16" x2="246.38" y2="266.12"/><line x1="267.70" y1="314.30" x2="284.77" y2="346.07"/><line x1="254.78" y1="287.73" x2="254.55" y2="287.14"/><line x1="201.45" y1="245.88" x2="201.74" y2="245.17"/><line x1="207.70" y1="280.50" x2="208.02" y2="280.64"/><line x1="253.94" y1="285.27" x2="252.52" y2="280.56"/><line x1="303.26" y1="295.78" x2="303.33" y2="295.46"/><line x1="268.33" y1="215.08" x2="303.95" y2="293.81"/><line x1="247.44" y1="332.78" x2="255.48" y2="313.00"/><line x1="246.40" y1="299.37" x2="245.00" y2="299.98"/><line x1="205.30" y1="279.04" x2="205.64" y2="279.30"/><line x1="201.74" y1="245.17" x2="202.09" y2="244.52"/><line x1="206.73" y1="270.29" x2="207.78" y2="272.47"/><line x1="298.81" y1="328.22" x2="270.96" y2="311.76"/><line x1="197.10" y1="292.65" x2="196.96" y2="292.95"/><line x1="303.11" y1="297.70" x2="273.29" y2="253.07"/><line x1="252.80" y1="295.17" x2="251.97" y2="295.94"/><line x1="245.00" y1="299.98" x2="252.47" y2="280.18"/><line x1="220.55" y1="242.81" x2="219.86" y2="242.90"/><line x1="245.00" y1="299.98" x2="251.52" y2="276.65"/><line x1="277.91" y1="158.49" x2="265.26" y2="196.34"/><line x1="230.69" y1="122.41" x2="200.56" y2="81.28"/><line x1="207.78" y1="272.47" x2="208.65" y2="274.31"/><line x1="239.73" y1="151.43" x2="217.43" y2="153.13"/><line x1="274.53" y1="302.63" x2="276.79" y2="293.31"/><line x1="32.00" y1="447.50" x2="64.49" y2="479.98"/><line x1="258.95" y1="314.20" x2="249.12" y2="334.11"/></g></svg>