<svg xmlns="http://www.w3.org/2000/svg" width="512" height="512"><rect width="512" height="512" fill="#0a0f1a"/><text x="12" y="20" font-family="monospace" font-size="11" fill="#4a7fa5">FRONT (XZ)</text><g stroke="#00d4ff" stroke-width="0.6" opacity="0.85"><line x1="267.30" y1="150.69" x2="265.37" y2="148.41"/><line x1="273.73" y1="296.43" x2="273.95" y2="295.92"/><line x1="313.86" y1="278.04" x2="313.66" y2="278.23"/><line x1="237.13" y1="168.40" x2="259.97" y2="143.52"/><line x1="231.23" y1="130.14" x2="226.93" y2="134.96"/><line x1="252.75" y1="321.74" x2="238.95" y2="291.55"/><line x1="269.13" y1="153.08" x2="256.68" y2="181.11"/><line x1="287.99" y1="279.38" x2="301.21" y2="262.60"/><line x1="269.13" y1="153.08" x2="250.24" y2="178.68"/><line x1="226.93" y1="134.96" x2="230.36" y2="130.48"/><line x1="236.25" y1="321.57" x2="237.43" y2="321.96"/><line x1="226.75" y1="136.86" x2="234.49" y2="129.56"/><line x1="223.15" y1="314.26" x2="230.88" y2="293.21"/><line x1="298.92" y1="287.31" x2="312.75" y2="279.38"/><line x1="279.35" y1="287.72" x2="244.65" y2="275.27"/><line x1="256.68" y1="181.11" x2="256.25" y2="181.08"/><line x1="235.76" y1="166.38" x2="235.15" y2="165.30"/><line x1="310.55" y1="285.13" x2="300.69" y2="289.05"/><line x1="230.88" y1="293.21" x2="225.11" y2="315.59"/><line x1="239.35" y1="291.16" x2="239.72" y2="290.72"/><line x1="273.95" y1="295.92" x2="274.21" y2="295.40"/><line x1="265.89" y1="232.87" x2="267.72" y2="232.81"/><line x1="235.15" y1="165.30" x2="234.59" y2="164.18"/><line x1="227.85" y1="132.62" x2="228.33" y2="131.98"/><line x1="263.94" y1="317.08" x2="265.45" y2="315.09"/><line x1="302.55" y1="290.95" x2="304.51" y2="293.01"/><line x1="270.21" y1="179.19" x2="267.28" y2="180.17"/><line x1="253.00" y1="180.05" x2="252.14" y2="179.67"/><line x1="267.72" y1="232.81" x2="268.42" y2="232.83"/><line x1="292.76" y1="282.03" x2="294.17" y2="283.10"/><line x1="246.33" y1="269.80" x2="281.18" y2="284.40"/><line x1="252.14" y1="179.67" x2="251.21" y2="179.21"/><line x1="269.13" y1="153.08" x2="254.52" y2="180.63"/><line x1="226.75" y1="136.86" x2="247.08" y2="132.16"/><line x1="221.09" y1="312.80" x2="223.15" y2="314.26"/><line x1="294.17" y1="283.10" x2="308.86" y2="270.37"/><line x1="304.51" y1="293.01" x2="306.56" y2="295.24"/><line x1="269.13" y1="153.08" x2="245.75" y2="175.81"/><line x1="226.75" y1="136.86" x2="239.99" y2="129.79"/><line x1="234.36" y1="293.24" x2="230.47" y2="318.86"/><line x1="271.91" y1="233.77" x2="272.60" y2="234.12"/><line x1="247.08" y1="132.16" x2="246.47" y2="131.82"/><line x1="248.21" y1="257.81" x2="283.76" y2="280.64"/><line x1="239.35" y1="291.16" x2="262.47" y2="318.50"/><line x1="271.98" y1="301.31" x2="240.33" y2="289.73"/><line x1="272.76" y1="175.06" x2="265.65" y2="180.23"/><line x1="304.08" y1="265.36" x2="306.62" y2="267.95"/><line x1="272.60" y1="234.12" x2="273.29" y2="234.53"/><line x1="312.95" y1="276.56" x2="313.86" y2="278.04"/><line x1="201.98" y1="298.01" x2="203.12" y2="299.00"/><line x1="279.98" y1="286.52" x2="280.59" y2="285.41"/><line x1="283.76" y1="280.64" x2="284.21" y2="280.16"/><line x1="267.30" y1="150.69" x2="244.60" y2="175.10"/><line x1="273.73" y1="296.43" x2="242.14" y2="284.84"/><line x1="309.72" y1="287.35" x2="309.31" y2="288.39"/><line x1="313.86" y1="278.04" x2="314.07" y2="277.87"/><line x1="234.97" y1="321.06" x2="236.25" y2="321.57"/><line x1="242.14" y1="284.84" x2="242.62" y2="283.07"/><line x1="273.91" y1="169.90" x2="274.05" y2="168.34"/><line x1="284.21" y1="280.16" x2="284.64" y2="279.76"/><line x1="276.36" y1="237.61" x2="276.91" y2="238.44"/><line x1="269.13" y1="153.08" x2="251.21" y2="179.21"/><line x1="226.75" y1="136.86" x2="244.37" y2="130.89"/><line x1="218.57" y1="287.85" x2="218.93" y2="311.23"/><line x1="226.75" y1="136.86" x2="235.78" y2="129.52"/><line x1="276.91" y1="238.44" x2="278.47" y2="240.51"/><line x1="244.96" y1="322.39" x2="249.10" y2="322.15"/><line x1="239.35" y1="291.16" x2="268.63" y2="309.35"/><line x1="480.00" y1="32.02" x2="447.51" y2="32.02"/><line x1="257.04" y1="181.08" x2="256.68" y2="181.11"/><line x1="273.95" y1="295.92" x2="242.62" y2="283.07"/><line x1="312.92" y1="279.12" x2="312.75" y2="279.38"/><line x1="312.95" y1="276.56" x2="298.92" y2="287.31"/><line x1="237.52" y1="292.46" x2="238.03" y2="292.19"/><line x1="243.67" y1="278.95" x2="275.56" y2="293.19"/><line x1="251.75" y1="242.51" x2="252.49" y2="240.96"/><line x1="294.55" y1="256.56" x2="298.04" y2="259.66"/><line x1="227.90" y1="292.69" x2="228.90" y2="292.91"/><line x1="272.33" y1="176.09" x2="272.76" y2="175.06"/><line x1="269.13" y1="153.08" x2="255.17" y2="180.84"/><line x1="221.09" y1="312.80" x2="229.89" y2="293.08"/><line x1="218.57" y1="287.85" x2="201.98" y2="298.01"/><line x1="226.75" y1="136.86" x2="240.95" y2="129.95"/><line x1="255.92" y1="321.18" x2="258.59" y2="320.45"/><line x1="226.75" y1="136.86" x2="226.79" y2="135.87"/><line x1="283.29" y1="281.22" x2="283.76" y2="280.64"/><line x1="289.06" y1="279.79" x2="290.21" y2="280.38"/><line x1="245.75" y1="175.81" x2="267.30" y2="150.69"/><line x1="227.14" y1="134.10" x2="227.45" y2="133.33"/><line x1="264.83" y1="180.29" x2="264.00" y2="180.35"/><line x1="239.35" y1="291.16" x2="260.77" y2="319.56"/><line x1="236.37" y1="292.87" x2="234.97" y2="321.06"/><line x1="257.04" y1="181.08" x2="273.61" y2="161.44"/><line x1="245.10" y1="273.66" x2="245.53" y2="272.22"/><line x1="285.77" y1="279.10" x2="278.47" y2="240.51"/><line x1="304.08" y1="265.36" x2="291.45" y2="281.12"/><line x1="229.58" y1="130.90" x2="228.91" y2="131.40"/><line x1="242.74" y1="130.37" x2="241.86" y2="130.14"/><line x1="279.98" y1="286.52" x2="245.94" y2="270.93"/><line x1="241.71" y1="286.34" x2="242.14" y2="284.84"/><line x1="264.00" y1="180.35" x2="273.91" y2="169.90"/><line x1="212.65" y1="282.86" x2="200.92" y2="297.05"/><line x1="309.72" y1="287.35" x2="308.90" y2="289.39"/><line x1="241.86" y1="130.14" x2="240.95" y2="129.95"/><line x1="232.83" y1="293.31" x2="233.61" y2="293.29"/><line x1="219.63" y1="288.67" x2="220.70" y2="289.43"/><line x1="242.14" y1="284.84" x2="273.95" y2="295.92"/><line x1="273.91" y1="169.90" x2="263.16" y2="180.43"/><line x1="308.86" y1="270.37" x2="310.78" y2="272.61"/><line x1="241.43" y1="172.80" x2="240.46" y2="171.98"/><line x1="313.10" y1="278.87" x2="312.92" y2="279.12"/><line x1="226.75" y1="136.86" x2="245.12" y2="131.18"/><line x1="220.70" y1="289.43" x2="221.74" y2="290.10"/><line x1="268.63" y1="309.35" x2="270.28" y2="305.62"/><line x1="218.57" y1="287.85" x2="207.02" y2="302.19"/><line x1="240.32" y1="322.47" x2="244.96" y2="322.39"/><line x1="226.75" y1="136.86" x2="236.89" y2="129.53"/><line x1="251.14" y1="244.19" x2="251.75" y2="242.51"/><line x1="295.66" y1="284.34" x2="297.25" y2="285.75"/><line x1="240.46" y1="171.98" x2="239.55" y2="171.14"/><line x1="235.78" y1="129.52" x2="234.49" y2="129.56"/><line x1="244.96" y1="322.39" x2="237.52" y2="292.46"/><line x1="282.28" y1="282.63" x2="282.80" y2="281.88"/><line x1="480.00" y1="32.02" x2="480.00" y2="64.50"/><line x1="257.04" y1="181.08" x2="269.13" y2="153.08"/><line x1="285.77" y1="279.10" x2="274.59" y2="235.55"/><line x1="274.03" y1="163.23" x2="273.61" y2="161.44"/><line x1="285.77" y1="279.10" x2="287.90" y2="250.52"/><line x1="291.07" y1="253.45" x2="294.55" y2="256.56"/><line x1="234.49" y1="129.56" x2="233.30" y2="129.67"/><line x1="232.07" y1="319.71" x2="233.57" y2="320.45"/><line x1="226.90" y1="292.41" x2="227.90" y2="292.69"/><line x1="480.00" y1="479.91" x2="480.00" y2="447.42"/><line x1="243.67" y1="278.95" x2="275.18" y2="293.77"/><line x1="265.37" y1="148.41" x2="263.51" y2="146.45"/><line x1="273.61" y1="161.44" x2="272.91" y2="159.52"/><line x1="259.97" y1="143.52" x2="258.30" y2="142.54"/><line x1="312.04" y1="280.83" x2="311.93" y2="281.14"/><line x1="227.90" y1="292.69" x2="221.09" y2="312.80"/><line x1="238.95" y1="291.55" x2="255.92" y2="321.18"/><line x1="250.65" y1="246.01" x2="285.77" y2="279.10"/><line x1="257.98" y1="235.23" x2="259.40" y2="234.49"/><line x1="258.30" y1="142.54" x2="256.70" y2="141.89"/><line x1="230.36" y1="130.48" x2="227.14" y2="134.10"/><line x1="255.92" y1="321.18" x2="239.35" y2="291.16"/><line x1="447.51" y1="479.91" x2="480.00" y2="447.42"/><line x1="289.06" y1="279.79" x2="304.08" y2="265.36"/><line x1="227.14" y1="134.10" x2="229.58" y2="130.90"/><line x1="285.77" y1="279.10" x2="260.89" y2="233.88"/><line x1="257.04" y1="181.08" x2="274.03" y2="163.23"/><line x1="267.28" y1="180.17" x2="271.36" y2="177.84"/><line x1="245.10" y1="273.66" x2="279.98" y2="286.52"/><line x1="261.71" y1="144.82" x2="237.13" y2="168.40"/><line x1="285.77" y1="279.10" x2="271.21" y2="233.48"/><line x1="255.75" y1="180.99" x2="255.17" y2="180.84"/><line x1="285.77" y1="279.10" x2="276.91" y2="238.44"/><line x1="310.13" y1="286.27" x2="309.72" y2="287.35"/><line x1="231.85" y1="293.28" x2="232.83" y2="293.31"/><line x1="268.42" y1="232.83" x2="269.12" y2="232.91"/><line x1="234.08" y1="163.02" x2="231.92" y2="156.81"/><line x1="212.65" y1="282.86" x2="199.94" y2="296.13"/><line x1="309.72" y1="287.35" x2="302.55" y2="290.95"/><line x1="267.01" y1="312.51" x2="268.63" y2="309.35"/><line x1="298.04" y1="259.66" x2="301.21" y2="262.60"/><line x1="308.86" y1="270.37" x2="295.66" y2="284.34"/><line x1="235.07" y1="293.15" x2="235.74" y2="293.03"/><line x1="244.17" y1="277.03" x2="244.65" y2="275.27"/><line x1="218.57" y1="287.85" x2="205.64" y2="301.09"/><line x1="265.65" y1="180.23" x2="264.83" y2="180.29"/><line x1="295.66" y1="284.34" x2="310.78" y2="272.61"/><line x1="285.77" y1="279.10" x2="254.33" y2="238.27"/><line x1="285.77" y1="279.10" x2="267.72" y2="232.81"/><line x1="273.13" y1="173.93" x2="273.45" y2="172.69"/><line x1="257.04" y1="181.08" x2="270.66" y2="155.35"/><line x1="285.77" y1="279.10" x2="273.95" y2="235.01"/><line x1="285.77" y1="279.10" x2="285.06" y2="247.76"/><line x1="240.94" y1="288.56" x2="241.30" y2="287.58"/><line x1="284.64" y1="279.76" x2="285.04" y2="279.45"/><line x1="480.00" y1="479.91" x2="447.51" y2="479.91"/><line x1="265.37" y1="148.41" x2="242.43" y2="173.60"/><line x1="236.96" y1="292.69" x2="238.50" y2="322.24"/><line x1="250.65" y1="246.01" x2="285.42" y2="279.23"/><line x1="306.62" y1="267.95" x2="308.86" y2="270.37"/><line x1="256.25" y1="181.08" x2="255.75" y2="180.99"/><line x1="255.17" y1="141.57" x2="247.64" y2="132.53"/><line x1="218.93" y1="311.23" x2="227.90" y2="292.69"/><line x1="313.66" y1="278.23" x2="313.46" y2="278.43"/><line x1="308.90" y1="289.39" x2="306.56" y2="295.24"/><line x1="225.11" y1="315.59" x2="231.85" y2="293.28"/><line x1="242.62" y1="283.07" x2="243.14" y2="281.04"/><line x1="274.05" y1="168.34" x2="274.14" y2="166.67"/><line x1="234.59" y1="164.18" x2="234.08" y2="163.02"/><line x1="274.21" y1="295.40" x2="274.51" y2="294.87"/><line x1="285.77" y1="279.10" x2="259.40" y2="234.49"/><line x1="267.28" y1="180.17" x2="270.81" y2="178.57"/><line x1="285.77" y1="279.10" x2="270.51" y2="233.23"/><line x1="261.71" y1="144.82" x2="237.88" y2="169.36"/><line x1="285.77" y1="279.10" x2="276.36" y2="237.61"/><line x1="199.05" y1="295.24" x2="212.65" y2="282.86"/><line x1="249.10" y1="322.15" x2="238.51" y2="291.89"/><line x1="286.11" y1="279.06" x2="287.00" y2="279.14"/><line x1="251.21" y1="179.21" x2="250.24" y2="178.68"/><line x1="232.21" y1="129.86" x2="231.23" y2="130.14"/><line x1="212.65" y1="282.86" x2="206.56" y2="277.87"/><line x1="236.96" y1="292.69" x2="237.52" y2="292.46"/><line x1="275.56" y1="293.19" x2="275.98" y2="292.60"/><line x1="281.74" y1="283.47" x2="282.28" y2="282.63"/><line x1="255.17" y1="141.57" x2="235.15" y2="165.30"/><line x1="298.04" y1="259.66" x2="287.99" y2="279.38"/><line x1="250.24" y1="178.68" x2="249.20" y2="178.07"/><line x1="218.93" y1="311.23" x2="222.79" y2="290.71"/><line x1="226.79" y1="135.87" x2="226.93" y2="134.96"/><line x1="246.47" y1="131.82" x2="245.81" y2="131.49"/><line x1="298.92" y1="287.31" x2="310.96" y2="283.96"/><line x1="235.07" y1="293.15" x2="232.07" y2="319.71"/><line x1="269.58" y1="179.71" x2="270.21" y2="179.19"/><line x1="244.17" y1="277.03" x2="279.35" y2="287.72"/><line x1="263.51" y1="146.45" x2="261.71" y2="144.82"/><line x1="265.65" y1="180.23" x2="273.13" y2="173.93"/><line x1="273.29" y1="234.53" x2="273.95" y2="235.01"/><line x1="245.81" y1="131.49" x2="245.12" y2="131.18"/><line x1="229.89" y1="293.08" x2="230.88" y2="293.21"/><line x1="203.12" y1="299.00" x2="204.34" y2="300.03"/><line x1="285.77" y1="279.10" x2="253.34" y2="239.55"/><line x1="268.09" y1="180.15" x2="267.28" y2="180.17"/><line x1="240.62" y1="289.28" x2="240.94" y2="288.56"/><line x1="285.77" y1="279.10" x2="265.89" y2="232.87"/><line x1="273.13" y1="173.93" x2="264.83" y2="180.29"/><line x1="244.60" y1="175.10" x2="265.37" y2="148.41"/><line x1="285.77" y1="279.10" x2="273.29" y2="234.53"/><line x1="204.34" y1="300.03" x2="205.64" y2="301.09"/><line x1="237.13" y1="168.40" x2="236.42" y2="167.41"/><line x1="284.64" y1="279.76" x2="250.65" y2="246.01"/><line x1="291.45" y1="281.12" x2="292.76" y2="282.03"/><line x1="265.37" y1="148.41" x2="243.49" y2="174.36"/><line x1="265.45" y1="315.09" x2="267.01" y2="312.51"/><line x1="240.95" y1="129.95" x2="239.99" y2="129.79"/><line x1="236.96" y1="292.69" x2="237.43" y2="321.96"/><line x1="245.94" y1="270.93" x2="246.33" y2="269.80"/><line x1="263.16" y1="180.43" x2="274.05" y2="168.34"/><line x1="239.55" y1="171.14" x2="238.70" y2="170.27"/><line x1="278.47" y1="240.51" x2="280.34" y2="242.75"/><line x1="255.17" y1="141.57" x2="228.63" y2="145.70"/><line x1="298.92" y1="287.31" x2="312.17" y2="280.53"/><line x1="239.99" y1="129.79" x2="238.99" y2="129.68"/><line x1="218.93" y1="311.23" x2="226.90" y2="292.41"/><line x1="281.18" y1="284.40" x2="281.74" y2="283.47"/><line x1="308.90" y1="289.39" x2="304.51" y2="293.01"/><line x1="266.47" y1="180.19" x2="265.65" y2="180.23"/><line x1="242.62" y1="283.07" x2="274.21" y2="295.40"/><line x1="274.05" y1="168.34" x2="257.04" y2="181.08"/><line x1="230.47" y1="318.86" x2="235.07" y2="293.15"/><line x1="312.75" y1="279.38" x2="312.60" y2="279.66"/><line x1="222.79" y1="290.71" x2="223.83" y2="291.24"/><line x1="285.77" y1="279.10" x2="257.98" y2="235.23"/><line x1="252.49" y1="240.96" x2="253.34" y2="239.55"/><line x1="261.71" y1="144.82" x2="238.70" y2="170.27"/><line x1="240.33" y1="289.73" x2="240.62" y2="289.28"/><line x1="249.10" y1="322.15" x2="238.03" y2="292.19"/><line x1="286.11" y1="279.06" x2="298.04" y2="259.66"/><line x1="232.21" y1="129.86" x2="226.79" y2="135.87"/><line x1="275.56" y1="293.19" x2="244.17" y2="277.03"/><line x1="236.25" y1="321.57" x2="236.96" y2="292.69"/><line x1="298.92" y1="287.31" x2="312.92" y2="279.12"/><line x1="255.17" y1="141.57" x2="235.76" y2="166.38"/><line x1="218.93" y1="311.23" x2="221.74" y2="290.10"/><line x1="311.82" y1="281.46" x2="311.39" y2="282.73"/><line x1="298.92" y1="287.31" x2="311.39" y2="282.73"/><line x1="269.58" y1="179.71" x2="268.91" y2="180.15"/><line x1="263.51" y1="146.45" x2="239.55" y2="171.14"/><line x1="260.89" y1="233.88" x2="262.47" y2="233.41"/><line x1="297.25" y1="285.75" x2="298.92" y2="287.31"/><line x1="227.45" y1="133.33" x2="227.85" y2="132.62"/><line x1="221.74" y1="290.10" x2="222.79" y2="290.71"/><line x1="226.99" y1="316.80" x2="228.78" y2="317.89"/><line x1="237.13" y1="168.40" x2="255.17" y2="141.57"/><line x1="228.63" y1="145.70" x2="226.75" y2="136.86"/><line x1="239.72" y1="290.72" x2="240.04" y2="290.25"/><line x1="271.87" y1="177.01" x2="272.33" y2="176.09"/><line x1="269.13" y1="153.08" x2="246.96" y2="176.64"/><line x1="310.78" y1="272.61" x2="312.38" y2="274.68"/><line x1="239.55" y1="171.14" x2="261.71" y2="144.82"/><line x1="298.92" y1="287.31" x2="312.31" y2="280.23"/><line x1="255.17" y1="141.57" x2="231.92" y2="156.81"/><line x1="218.93" y1="311.23" x2="225.88" y2="292.09"/><line x1="270.28" y1="305.62" x2="271.98" y2="301.31"/><line x1="248.21" y1="257.81" x2="283.29" y2="281.22"/><line x1="480.00" y1="64.50" x2="447.51" y2="32.02"/><line x1="297.25" y1="285.75" x2="312.95" y2="276.56"/><line x1="235.74" y1="293.03" x2="236.37" y2="292.87"/><line x1="272.91" y1="159.52" x2="271.93" y2="157.49"/><line x1="273.73" y1="296.43" x2="241.71" y2="286.34"/><line x1="300.69" y1="289.05" x2="302.55" y2="290.95"/><line x1="313.46" y1="278.43" x2="313.27" y2="278.64"/><line x1="256.70" y1="141.89" x2="255.17" y2="141.57"/><line x1="228.90" y1="292.91" x2="229.89" y2="293.08"/><line x1="246.33" y1="269.80" x2="248.21" y2="257.81"/><line x1="269.13" y1="153.08" x2="252.14" y2="179.67"/><line x1="298.92" y1="287.31" x2="313.10" y2="278.87"/><line x1="243.14" y1="281.04" x2="243.67" y2="278.95"/><line x1="258.59" y1="320.45" x2="260.77" y2="319.56"/><line x1="248.21" y1="257.81" x2="250.65" y2="246.01"/><line x1="255.17" y1="180.84" x2="254.52" y2="180.63"/><line x1="239.35" y1="291.16" x2="267.01" y2="312.51"/><line x1="290.21" y1="280.38" x2="291.45" y2="281.12"/><line x1="271.98" y1="301.31" x2="273.73" y2="296.43"/><line x1="245.53" y1="272.22" x2="245.94" y2="270.93"/><line x1="312.95" y1="276.56" x2="313.46" y2="278.43"/><line x1="237.52" y1="292.46" x2="249.10" y2="322.15"/><line x1="302.55" y1="290.95" x2="308.90" y2="289.39"/><line x1="226.99" y1="316.80" x2="233.61" y2="293.29"/><line x1="294.55" y1="256.56" x2="286.11" y2="279.06"/><line x1="233.30" y1="129.67" x2="232.21" y2="129.86"/><line x1="271.36" y1="177.84" x2="271.87" y2="177.01"/><line x1="237.13" y1="168.40" x2="256.70" y2="141.89"/><line x1="269.82" y1="233.05" x2="270.51" y2="233.23"/><line x1="275.18" y1="293.77" x2="275.56" y2="293.19"/><line x1="239.72" y1="290.72" x2="270.28" y2="305.62"/><line x1="311.93" y1="281.14" x2="311.82" y2="281.46"/><line x1="269.13" y1="153.08" x2="255.75" y2="180.99"/><line x1="221.09" y1="312.80" x2="228.90" y2="292.91"/><line x1="269.13" y1="153.08" x2="248.11" y2="177.39"/><line x1="226.75" y1="136.86" x2="241.86" y2="130.14"/><line x1="310.78" y1="272.61" x2="297.25" y2="285.75"/><line x1="226.75" y1="136.86" x2="232.21" y2="129.86"/><line x1="199.94" y1="296.13" x2="200.92" y2="297.05"/><line x1="259.40" y1="234.49" x2="260.89" y2="233.88"/><line x1="279.35" y1="287.72" x2="279.98" y2="286.52"/><line x1="264.83" y1="180.29" x2="273.71" y2="171.35"/><line x1="248.21" y1="257.81" x2="282.80" y2="281.88"/><line x1="239.35" y1="291.16" x2="258.59" y2="320.45"/><line x1="235.74" y1="293.03" x2="233.57" y2="320.45"/><line x1="304.08" y1="265.36" x2="290.21" y2="280.38"/><line x1="229.58" y1="130.90" x2="227.45" y2="133.33"/><line x1="274.59" y1="235.55" x2="275.21" y2="236.17"/><line x1="244.37" y1="130.89" x2="243.58" y2="130.62"/><line x1="279.98" y1="286.52" x2="245.53" y2="272.22"/><line x1="273.73" y1="296.43" x2="241.30" y2="287.58"/><line x1="232.83" y1="293.31" x2="226.99" y2="316.80"/><line x1="242.43" y1="173.60" x2="241.43" y2="172.80"/><line x1="313.46" y1="278.43" x2="298.92" y2="287.31"/><line x1="207.02" y1="302.19" x2="218.93" y2="311.23"/><line x1="269.12" y1="232.91" x2="269.82" y2="233.05"/><line x1="231.92" y1="156.81" x2="228.63" y2="145.70"/><line x1="246.33" y1="269.80" x2="282.28" y2="282.63"/><line x1="32.16" y1="32.09" x2="32.16" y2="64.58"/><line x1="285.04" y1="279.45" x2="285.42" y2="279.23"/><line x1="269.13" y1="153.08" x2="253.00" y2="180.05"/><line x1="226.75" y1="136.86" x2="245.81" y2="131.49"/><line x1="268.63" y1="309.35" x2="239.72" y2="290.72"/><line x1="226.75" y1="136.86" x2="237.96" y2="129.59"/><line x1="238.50" y1="322.24" x2="239.46" y2="322.41"/><line x1="243.14" y1="281.04" x2="274.83" y2="294.32"/><line x1="282.54" y1="245.17" x2="285.06" y2="247.76"/><line x1="239.35" y1="291.16" x2="265.45" y2="315.09"/><line x1="282.28" y1="282.63" x2="248.21" y2="257.81"/><line x1="249.20" y1="178.07" x2="248.11" y2="177.39"/><line x1="271.98" y1="301.31" x2="240.94" y2="288.56"/><line x1="232.07" y1="319.71" x2="235.74" y2="293.03"/><line x1="312.95" y1="276.56" x2="313.66" y2="278.23"/><line x1="273.95" y1="235.01" x2="274.59" y2="235.55"/><line x1="238.51" y1="291.89" x2="238.95" y2="291.55"/><line x1="231.23" y1="130.14" x2="230.36" y2="130.48"/><line x1="269.13" y1="153.08" x2="256.25" y2="181.08"/><line x1="269.13" y1="153.08" x2="249.20" y2="178.07"/><line x1="226.75" y1="136.86" x2="242.74" y2="130.37"/><line x1="226.75" y1="136.86" x2="233.30" y2="129.67"/><line x1="223.15" y1="314.26" x2="225.11" y2="315.59"/><line x1="264.83" y1="180.29" x2="273.45" y2="172.69"/><line x1="310.55" y1="285.13" x2="310.13" y2="286.27"/><line x1="257.04" y1="181.08" x2="274.17" y2="164.90"/><line x1="285.77" y1="279.10" x2="286.11" y2="279.06"/><line x1="270.81" y1="178.57" x2="271.36" y2="177.84"/><line x1="280.59" y1="285.41" x2="281.18" y2="284.40"/><line x1="32.00" y1="479.98" x2="64.49" y2="479.98"/><line x1="228.78" y1="317.89" x2="230.47" y2="318.86"/><line x1="226.75" y1="136.86" x2="246.47" y2="131.82"/><line x1="218.57" y1="287.85" x2="204.34" y2="300.03"/><line x1="226.75" y1="136.86" x2="238.99" y2="129.68"/><line x1="240.04" y1="290.25" x2="240.33" y2="289.73"/><line x1="239.35" y1="291.16" x2="263.94" y2="317.08"/><line x1="236.37" y1="292.87" x2="236.96" y2="292.69"/><line x1="257.04" y1="181.08" x2="271.93" y2="157.49"/><line x1="245.12" y1="131.18" x2="244.37" y2="130.89"/><line x1="285.77" y1="279.10" x2="282.54" y2="245.17"/><line x1="254.33" y1="238.27" x2="255.43" y2="237.12"/><line x1="312.95" y1="276.56" x2="314.07" y2="277.87"/><line x1="240.94" y1="288.56" x2="273.73" y2="296.43"/><line x1="205.64" y1="301.09" x2="207.02" y2="302.19"/><line x1="287.00" y1="279.14" x2="287.99" y2="279.38"/><line x1="250.65" y1="246.01" x2="285.04" y2="279.45"/><line x1="306.62" y1="267.95" x2="294.17" y2="283.10"/><line x1="243.49" y1="174.36" x2="242.43" y2="173.60"/><line x1="275.98" y1="292.60" x2="279.35" y2="287.72"/><line x1="237.43" y1="321.96" x2="238.50" y2="322.24"/><line x1="226.75" y1="136.86" x2="243.58" y2="130.62"/><line x1="218.57" y1="287.85" x2="219.63" y2="288.67"/><line x1="280.34" y1="242.75" x2="282.54" y2="245.17"/><line x1="238.99" y1="129.68" x2="237.96" y2="129.59"/><line x1="264.14" y1="233.07" x2="265.89" y2="232.87"/><line x1="274.21" y1="295.40" x2="243.14" y2="281.04"/><line x1="257.04" y1="181.08" x2="274.14" y2="166.67"/><line x1="285.77" y1="279.10" x2="269.82" y2="233.05"/><line x1="262.47" y1="318.50" x2="263.94" y2="317.08"/><line x1="285.77" y1="279.10" x2="275.80" y2="236.86"/><line x1="312.60" y1="279.66" x2="312.45" y2="279.94"/><line x1="223.83" y1="291.24" x2="224.86" y2="291.70"/><line x1="285.77" y1="279.10" x2="294.55" y2="256.56"/><line x1="253.34" y1="239.55" x2="254.33" y2="238.27"/><line x1="238.70" y1="170.27" x2="237.88" y2="169.36"/><line x1="243.67" y1="278.95" x2="244.17" y2="277.03"/><line x1="312.45" y1="279.94" x2="312.31" y2="280.23"/><line x1="280.59" y1="285.41" x2="246.33" y2="269.80"/><line x1="238.03" y1="292.19" x2="238.51" y2="291.89"/><line x1="236.96" y1="292.69" x2="244.96" y2="322.39"/><line x1="32.00" y1="479.98" x2="32.00" y2="447.50"/><line x1="228.78" y1="317.89" x2="234.36" y2="293.24"/><line x1="298.04" y1="259.66" x2="287.00" y2="279.14"/><line x1="226.79" y1="135.87" x2="231.23" y2="130.14"/><line x1="244.17" y1="277.03" x2="275.98" y2="292.60"/><line x1="218.57" y1="287.85" x2="203.12" y2="299.00"/><line x1="270.66" y1="155.35" x2="269.13" y2="153.08"/><line x1="240.04" y1="290.25" x2="271.98" y2="301.31"/><line x1="311.39" y1="282.73" x2="310.96" y2="283.96"/><line x1="229.89" y1="293.08" x2="223.15" y2="314.26"/><line x1="245.75" y1="175.81" x2="244.60" y2="175.10"/><line x1="285.77" y1="279.10" x2="252.49" y2="240.96"/><line x1="268.09" y1="180.15" x2="270.21" y2="179.19"/><line x1="262.47" y1="233.41" x2="264.14" y2="233.07"/><line x1="285.77" y1="279.10" x2="264.14" y2="233.07"/><line x1="236.37" y1="292.87" x2="236.25" y2="321.57"/><line x1="257.04" y1="181.08" x2="272.91" y2="159.52"/><line x1="267.28" y1="180.17" x2="266.47" y2="180.19"/><line x1="236.42" y1="167.41" x2="235.76" y2="166.38"/><line x1="228.91" y1="131.40" x2="228.33" y2="131.98"/><line x1="285.77" y1="279.10" x2="272.60" y2="234.12"/><line x1="310.96" y1="283.96" x2="310.55" y2="285.13"/><line x1="285.77" y1="279.10" x2="280.34" y2="242.75"/><line x1="260.77" y1="319.56" x2="262.47" y2="318.50"/><line x1="291.45" y1="281.12" x2="306.62" y2="267.95"/><line x1="264.00" y1="180.35" x2="263.16" y2="180.43"/><line x1="233.61" y1="293.29" x2="234.36" y2="293.24"/><line x1="212.65" y1="282.86" x2="218.57" y2="287.85"/><line x1="245.94" y1="270.93" x2="280.59" y2="285.41"/><line x1="247.64" y1="132.53" x2="247.08" y2="132.16"/><line x1="306.62" y1="267.95" x2="292.76" y2="282.03"/><line x1="308.90" y1="289.39" x2="309.31" y2="288.39"/><line x1="266.47" y1="180.19" x2="272.76" y2="175.06"/><line x1="200.92" y1="297.05" x2="201.98" y2="298.01"/><line x1="285.77" y1="279.10" x2="256.66" y2="236.11"/><line x1="271.21" y1="233.48" x2="271.91" y2="233.77"/><line x1="285.77" y1="279.10" x2="269.12" y2="232.91"/><line x1="285.77" y1="279.10" x2="275.21" y2="236.17"/><line x1="233.57" y1="320.45" x2="234.97" y2="321.06"/><line x1="285.77" y1="279.10" x2="291.07" y2="253.45"/><line x1="271.93" y1="157.49" x2="270.66" y2="155.35"/><line x1="312.38" y1="274.68" x2="312.95" y2="276.56"/><line x1="273.71" y1="171.35" x2="273.91" y2="169.90"/><line x1="236.96" y1="292.69" x2="240.32" y2="322.47"/><line x1="238.95" y1="291.55" x2="239.35" y2="291.16"/><line x1="255.17" y1="141.57" x2="236.42" y2="167.41"/><line x1="250.65" y1="246.01" x2="251.14" y2="244.19"/><line x1="218.93" y1="311.23" x2="220.70" y2="289.43"/><line x1="298.92" y1="287.31" x2="311.82" y2="281.46"/><line x1="230.36" y1="130.48" x2="229.58" y2="130.90"/><line x1="269.58" y1="179.71" x2="268.09" y2="180.15"/><line x1="225.11" y1="315.59" x2="226.99" y2="316.80"/><line x1="263.51" y1="146.45" x2="240.46" y2="171.98"/><line x1="227.45" y1="133.33" x2="228.91" y2="131.40"/><line x1="285.77" y1="279.10" x2="251.75" y2="242.51"/><line x1="268.09" y1="180.15" x2="268.91" y2="180.15"/><line x1="254.52" y1="180.63" x2="253.80" y2="180.37"/><line x1="285.77" y1="279.10" x2="262.47" y2="233.41"/><line x1="267.28" y1="180.17" x2="271.87" y2="177.01"/><line x1="285.77" y1="279.10" x2="271.91" y2="233.77"/><line x1="261.71" y1="144.82" x2="259.97" y2="143.52"/><line x1="228.91" y1="131.40" x2="227.85" y2="132.62"/><line x1="199.05" y1="295.24" x2="199.94" y2="296.13"/><line x1="253.80" y1="180.37" x2="253.00" y2="180.05"/><line x1="228.63" y1="145.70" x2="247.64" y2="132.53"/><line x1="233.61" y1="293.29" x2="228.78" y2="317.89"/><line x1="274.83" y1="294.32" x2="275.18" y2="293.77"/><line x1="271.87" y1="177.01" x2="266.47" y2="180.19"/><line x1="270.51" y1="233.23" x2="271.21" y2="233.48"/><line x1="247.64" y1="132.53" x2="226.75" y2="136.86"/><line x1="298.92" y1="287.31" x2="312.45" y2="279.94"/><line x1="255.17" y1="141.57" x2="234.08" y2="163.02"/><line x1="218.93" y1="311.23" x2="224.86" y2="291.70"/><line x1="298.92" y1="287.31" x2="300.69" y2="289.05"/><line x1="270.28" y1="305.62" x2="240.04" y2="290.25"/><line x1="266.47" y1="180.19" x2="272.33" y2="176.09"/><line x1="248.11" y1="177.39" x2="246.96" y2="176.64"/><line x1="297.25" y1="285.75" x2="312.38" y2="274.68"/><line x1="200.92" y1="297.05" x2="218.57" y2="287.85"/><line x1="282.80" y1="281.88" x2="283.29" y2="281.22"/><line x1="285.77" y1="279.10" x2="255.43" y2="237.12"/><line x1="301.21" y1="262.60" x2="304.08" y2="265.36"/><line x1="246.96" y1="176.64" x2="245.75" y2="175.81"/><line x1="285.77" y1="279.10" x2="268.42" y2="232.83"/><line x1="233.57" y1="320.45" x2="236.37" y2="292.87"/><line x1="273.45" y1="172.69" x2="273.71" y2="171.35"/><line x1="275.21" y1="236.17" x2="275.80" y2="236.86"/><line x1="300.69" y1="289.05" x2="309.72" y2="287.35"/><line x1="243.58" y1="130.62" x2="242.74" y2="130.37"/><line x1="241.30" y1="287.58" x2="241.71" y2="286.34"/><line x1="273.71" y1="171.35" x2="264.00" y2="180.35"/><line x1="236.96" y1="292.69" x2="239.46" y2="322.41"/><line x1="275.80" y1="236.86" x2="276.36" y2="237.61"/><line x1="298.92" y1="287.31" x2="313.27" y2="278.64"/><line x1="218.93" y1="311.23" x2="219.63" y2="288.67"/><line x1="298.92" y1="287.31" x2="311.93" y2="281.14"/><line x1="218.93" y1="311.23" x2="221.09" y2="312.80"/><line x1="285.42" y1="279.23" x2="285.77" y2="279.10"/><line x1="225.11" y1="315.59" x2="232.83" y2="293.31"/><line x1="263.51" y1="146.45" x2="241.43" y2="172.80"/><line x1="248.21" y1="257.81" x2="284.64" y2="279.76"/><line x1="313.27" y1="278.64" x2="313.10" y2="278.87"/><line x1="239.46" y1="322.41" x2="240.32" y2="322.47"/><line x1="64.64" y1="32.09" x2="32.16" y2="64.58"/><line x1="285.77" y1="279.10" x2="251.14" y2="244.19"/><line x1="285.06" y1="247.76" x2="287.90" y2="250.52"/><line x1="236.89" y1="129.53" x2="235.78" y2="129.52"/><line x1="274.51" y1="294.87" x2="274.83" y2="294.32"/><line x1="199.05" y1="295.24" x2="206.56" y2="277.87"/><line x1="249.10" y1="322.15" x2="252.75" y2="321.74"/><line x1="237.13" y1="168.40" x2="258.30" y2="142.54"/><line x1="287.90" y1="250.52" x2="291.07" y2="253.45"/><line x1="312.31" y1="280.23" x2="312.17" y2="280.53"/><line x1="225.88" y1="292.09" x2="226.90" y2="292.41"/><line x1="252.75" y1="321.74" x2="255.92" y2="321.18"/><line x1="274.83" y1="294.32" x2="243.67" y2="278.95"/><line x1="255.43" y1="237.12" x2="256.66" y2="236.11"/><line x1="287.99" y1="279.38" x2="289.06" y2="279.79"/><line x1="226.93" y1="134.96" x2="227.14" y2="134.10"/><line x1="312.17" y1="280.53" x2="312.04" y2="280.83"/><line x1="298.92" y1="287.31" x2="312.60" y2="279.66"/><line x1="255.17" y1="141.57" x2="234.59" y2="164.18"/><line x1="218.93" y1="311.23" x2="223.83" y2="291.24"/><line x1="298.92" y1="287.31" x2="310.55" y2="285.13"/><line x1="279.35" y1="287.72" x2="245.10" y2="273.66"/><line x1="256.66" y1="236.11" x2="257.98" y2="235.23"/><line x1="230.88" y1="293.21" x2="231.85" y2="293.28"/><line x1="301.21" y1="262.60" x2="289.06" y2="279.79"/><line x1="244.60" y1="175.10" x2="243.49" y2="174.36"/><line x1="270.21" y1="179.19" x2="270.81" y2="178.57"/><line x1="244.65" y1="275.27" x2="245.10" y2="273.66"/><line x1="242.43" y1="173.60" x2="263.51" y2="146.45"/><line x1="300.69" y1="289.05" x2="310.13" y2="286.27"/><line x1="246.33" y1="269.80" x2="281.74" y2="283.47"/><line x1="32.16" y1="32.09" x2="64.64" y2="32.09"/><line x1="269.13" y1="153.08" x2="253.80" y2="180.37"/><line x1="294.17" y1="283.10" x2="295.66" y2="284.34"/><line x1="269.13" y1="153.08" x2="267.30" y2="150.69"/><line x1="237.96" y1="129.59" x2="236.89" y2="129.53"/><line x1="263.16" y1="180.43" x2="257.04" y2="181.08"/><line x1="234.36" y1="293.24" x2="235.07" y2="293.15"/><line x1="298.92" y1="287.31" x2="312.04" y2="280.83"/><line x1="243.14" y1="281.04" x2="274.51" y2="294.87"/><line x1="274.14" y1="166.67" x2="274.17" y2="164.90"/><line x1="248.21" y1="257.81" x2="284.21" y2="280.16"/><line x1="230.47" y1="318.86" x2="232.07" y2="319.71"/><line x1="224.86" y1="291.70" x2="225.88" y2="292.09"/><line x1="271.98" y1="301.31" x2="240.62" y2="289.28"/><line x1="272.76" y1="175.06" x2="273.13" y2="173.93"/><line x1="274.17" y1="164.90" x2="274.03" y2="163.23"/><line x1="237.88" y1="169.36" x2="237.13" y2="168.40"/><line x1="238.51" y1="291.89" x2="252.75" y2="321.74"/><line x1="32.00" y1="447.50" x2="64.49" y2="479.98"/></g></svg>