<svg xmlns="http://www.w3.org/2000/svg" width="512" height="512"><rect width="512" height="512" fill="#0a0f1a"/><text x="12" y="20" font-family="monospace" font-size="11" fill="#4a7fa5">FRONT (XZ)</text><g stroke="#00d4ff" stroke-width="0.6" opacity="0.85"><line x1="220.47" y1="248.67" x2="237.38" y2="240.44"/><line x1="305.19" y1="272.28" x2="290.57" y2="210.31"/><line x1="222.37" y1="278.50" x2="247.19" y2="303.60"/><line x1="228.38" y1="264.00" x2="252.34" y2="299.82"/><line x1="275.15" y1="297.51" x2="261.39" y2="308.96"/><line x1="211.20" y1="289.49" x2="213.23" y2="288.06"/><line x1="309.70" y1="343.69" x2="310.85" y2="342.53"/><line x1="225.50" y1="135.08" x2="255.43" y2="125.24"/><line x1="199.40" y1="214.60" x2="216.45" y2="204.15"/><line x1="312.72" y1="277.55" x2="333.63" y2="277.08"/><line x1="330.14" y1="287.35" x2="322.43" y2="288.64"/><line x1="286.39" y1="202.98" x2="285.84" y2="201.23"/><line x1="261.39" y1="308.96" x2="276.21" y2="299.33"/><line x1="312.72" y1="277.55" x2="332.87" y2="279.94"/><line x1="280.84" y1="331.83" x2="285.53" y2="336.15"/><line x1="312.72" y1="277.55" x2="331.57" y2="273.63"/><line x1="250.73" y1="111.58" x2="221.55" y2="115.92"/><line x1="286.28" y1="300.29" x2="308.95" y2="291.82"/><line x1="236.20" y1="89.14" x2="240.23" y2="91.04"/><line x1="216.45" y1="204.15" x2="217.94" y2="206.70"/><line x1="290.57" y1="210.31" x2="289.42" y2="208.67"/><line x1="285.53" y1="336.15" x2="286.62" y2="310.26"/><line x1="311.95" y1="304.09" x2="287.75" y2="307.29"/><line x1="178.63" y1="295.24" x2="186.93" y2="278.43"/><line x1="306.51" y1="270.40" x2="314.99" y2="255.28"/><line x1="271.18" y1="320.62" x2="279.39" y2="304.44"/><line x1="287.43" y1="309.62" x2="305.34" y2="346.09"/><line x1="231.93" y1="153.60" x2="263.49" y2="141.96"/><line x1="271.18" y1="320.62" x2="277.84" y2="328.63"/><line x1="287.43" y1="309.62" x2="314.30" y2="334.00"/><line x1="314.52" y1="331.75" x2="314.61" y2="329.29"/><line x1="333.63" y1="277.08" x2="333.42" y2="276.83"/><line x1="203.32" y1="189.55" x2="206.46" y2="190.41"/><line x1="287.43" y1="309.62" x2="287.54" y2="309.41"/><line x1="195.81" y1="311.33" x2="204.71" y2="291.24"/><line x1="224.97" y1="219.46" x2="208.30" y2="231.17"/><line x1="305.19" y1="272.28" x2="305.41" y2="238.63"/><line x1="323.42" y1="290.15" x2="323.79" y2="290.72"/><line x1="287.22" y1="205.87" x2="261.52" y2="218.67"/><line x1="273.06" y1="293.70" x2="274.10" y2="295.63"/><line x1="211.20" y1="289.49" x2="222.80" y2="322.02"/><line x1="279.39" y1="304.44" x2="280.47" y2="306.02"/><line x1="263.49" y1="141.96" x2="262.54" y2="139.75"/><line x1="221.68" y1="106.10" x2="222.06" y2="103.44"/><line x1="189.18" y1="305.22" x2="190.46" y2="306.45"/><line x1="305.58" y1="277.11" x2="305.44" y2="276.06"/><line x1="208.30" y1="231.17" x2="227.45" y2="223.89"/><line x1="220.08" y1="281.27" x2="244.63" y2="305.73"/><line x1="261.67" y1="259.17" x2="262.60" y2="261.34"/><line x1="323.79" y1="290.72" x2="324.25" y2="291.40"/><line x1="312.72" y1="277.55" x2="333.21" y2="276.57"/><line x1="266.02" y1="231.49" x2="264.89" y2="228.10"/><line x1="287.09" y1="338.28" x2="287.90" y2="339.33"/><line x1="222.06" y1="103.44" x2="222.58" y2="100.99"/><line x1="209.28" y1="290.53" x2="211.18" y2="321.66"/><line x1="200.91" y1="289.71" x2="201.60" y2="290.10"/><line x1="190.61" y1="281.38" x2="191.29" y2="282.01"/><line x1="244.63" y1="305.73" x2="222.37" y2="278.50"/><line x1="262.60" y1="261.34" x2="263.40" y2="263.81"/><line x1="264.89" y1="228.10" x2="263.77" y2="224.84"/><line x1="259.47" y1="133.16" x2="227.31" y2="140.86"/><line x1="285.53" y1="336.15" x2="287.31" y2="309.80"/><line x1="313.43" y1="312.89" x2="287.54" y2="309.41"/><line x1="249.24" y1="301.95" x2="222.37" y2="278.50"/><line x1="191.29" y1="282.01" x2="187.91" y2="303.98"/><line x1="199.59" y1="190.94" x2="198.90" y2="191.57"/><line x1="329.73" y1="288.39" x2="329.32" y2="289.39"/><line x1="178.63" y1="295.24" x2="189.20" y2="280.16"/><line x1="207.49" y1="291.14" x2="201.86" y2="316.58"/><line x1="306.51" y1="270.40" x2="321.76" y2="262.96"/><line x1="282.23" y1="308.89" x2="282.62" y2="309.23"/><line x1="287.43" y1="309.62" x2="296.94" y2="346.60"/><line x1="306.51" y1="270.40" x2="310.16" y2="247.60"/><line x1="271.18" y1="320.62" x2="281.23" y2="307.63"/><line x1="227.31" y1="140.86" x2="258.90" y2="132.07"/><line x1="287.43" y1="309.62" x2="310.85" y2="342.53"/><line x1="227.45" y1="92.12" x2="228.88" y2="91.05"/><line x1="305.19" y1="272.28" x2="306.51" y2="270.40"/><line x1="287.43" y1="309.62" x2="314.48" y2="324.01"/><line x1="334.28" y1="278.04" x2="334.49" y2="277.87"/><line x1="275.59" y1="263.48" x2="305.21" y2="273.16"/><line x1="220.47" y1="248.67" x2="235.73" y2="237.88"/><line x1="287.22" y1="205.87" x2="267.14" y2="235.00"/><line x1="201.86" y1="316.58" x2="203.41" y2="317.70"/><line x1="273.06" y1="293.70" x2="254.28" y2="301.65"/><line x1="321.76" y1="262.96" x2="320.31" y2="261.60"/><line x1="305.19" y1="272.28" x2="291.75" y2="212.11"/><line x1="286.85" y1="204.53" x2="286.39" y2="202.98"/><line x1="292.41" y1="344.32" x2="293.45" y2="345.11"/><line x1="287.77" y1="308.27" x2="287.78" y2="307.91"/><line x1="228.88" y1="91.05" x2="230.47" y2="90.22"/><line x1="203.52" y1="290.94" x2="204.13" y2="291.12"/><line x1="194.69" y1="285.02" x2="195.38" y2="285.59"/><line x1="196.79" y1="196.47" x2="196.59" y2="197.79"/><line x1="330.17" y1="271.36" x2="329.71" y2="270.79"/><line x1="312.72" y1="277.55" x2="333.69" y2="278.64"/><line x1="229.45" y1="147.04" x2="260.12" y2="134.46"/><line x1="286.39" y1="202.98" x2="258.25" y2="210.39"/><line x1="255.97" y1="126.73" x2="255.69" y2="126.01"/><line x1="333.69" y1="278.64" x2="333.52" y2="278.87"/><line x1="195.38" y1="285.59" x2="196.07" y2="286.14"/><line x1="209.28" y1="290.53" x2="211.20" y2="289.49"/><line x1="209.63" y1="321.09" x2="211.18" y2="321.66"/><line x1="329.71" y1="270.79" x2="329.22" y2="270.20"/><line x1="256.18" y1="205.51" x2="282.72" y2="192.12"/><line x1="255.69" y1="126.01" x2="255.43" y2="125.24"/><line x1="240.88" y1="91.82" x2="240.56" y2="91.41"/><line x1="480.00" y1="32.02" x2="447.51" y2="32.02"/><line x1="311.95" y1="304.09" x2="287.78" y2="307.91"/><line x1="205.82" y1="291.35" x2="207.49" y2="291.14"/><line x1="211.18" y1="321.66" x2="212.73" y2="322.13"/><line x1="178.63" y1="295.24" x2="187.91" y2="303.98"/><line x1="312.56" y1="251.60" x2="311.36" y2="249.64"/><line x1="287.43" y1="309.62" x2="291.44" y2="343.40"/><line x1="306.51" y1="270.40" x2="316.25" y2="256.99"/><line x1="222.87" y1="124.71" x2="252.53" y2="116.24"/><line x1="287.43" y1="309.62" x2="303.58" y2="346.53"/><line x1="271.18" y1="320.62" x2="282.62" y2="309.23"/><line x1="310.59" y1="298.03" x2="287.02" y2="303.25"/><line x1="287.43" y1="309.62" x2="313.92" y2="336.08"/><line x1="240.56" y1="91.41" x2="240.23" y2="91.04"/><line x1="287.43" y1="309.62" x2="313.43" y2="312.89"/><line x1="305.19" y1="272.28" x2="306.59" y2="240.99"/><line x1="287.22" y1="205.87" x2="262.64" y2="221.69"/><line x1="273.06" y1="293.70" x2="257.97" y2="305.31"/><line x1="305.19" y1="272.28" x2="287.22" y2="205.87"/><line x1="283.63" y1="194.71" x2="282.72" y2="192.12"/><line x1="252.34" y1="299.82" x2="273.06" y2="293.70"/><line x1="332.99" y1="276.28" x2="332.77" y2="275.97"/><line x1="189.18" y1="305.22" x2="200.91" y2="289.71"/><line x1="200.37" y1="190.42" x2="199.59" y2="190.94"/><line x1="246.55" y1="248.90" x2="249.47" y2="249.83"/><line x1="279.76" y1="330.80" x2="280.28" y2="331.30"/><line x1="281.87" y1="308.51" x2="282.23" y2="308.89"/><line x1="253.38" y1="118.64" x2="252.53" y2="116.24"/><line x1="209.28" y1="290.53" x2="209.63" y2="321.09"/><line x1="333.02" y1="279.66" x2="332.87" y2="279.94"/><line x1="334.27" y1="277.70" x2="334.28" y2="278.04"/><line x1="322.66" y1="288.95" x2="322.90" y2="289.30"/><line x1="220.72" y1="322.74" x2="222.80" y2="322.02"/><line x1="233.91" y1="234.95" x2="220.47" y2="248.67"/><line x1="262.99" y1="310.79" x2="264.52" y2="312.62"/><line x1="241.48" y1="175.64" x2="237.95" y2="167.90"/><line x1="291.44" y1="343.40" x2="292.41" y2="344.32"/><line x1="281.78" y1="284.57" x2="305.94" y2="279.34"/><line x1="193.10" y1="308.91" x2="194.44" y2="310.12"/><line x1="201.71" y1="219.82" x2="222.33" y2="214.64"/><line x1="329.73" y1="288.39" x2="323.14" y2="289.69"/><line x1="286.16" y1="310.35" x2="279.28" y2="330.32"/><line x1="277.27" y1="301.09" x2="278.33" y2="302.79"/><line x1="287.43" y1="309.62" x2="295.71" y2="346.24"/><line x1="306.51" y1="270.40" x2="311.36" y2="249.64"/><line x1="248.77" y1="107.13" x2="241.45" y2="92.73"/><line x1="271.18" y1="320.62" x2="280.95" y2="307.14"/><line x1="207.27" y1="191.12" x2="208.15" y2="192.04"/><line x1="287.43" y1="309.62" x2="309.70" y2="343.69"/><line x1="287.74" y1="308.61" x2="287.77" y2="308.27"/><line x1="332.59" y1="280.53" x2="332.47" y2="280.83"/><line x1="209.10" y1="193.16" x2="196.79" y2="196.47"/><line x1="287.43" y1="309.62" x2="314.57" y2="326.67"/><line x1="237.99" y1="311.40" x2="241.56" y2="308.33"/><line x1="275.59" y1="263.48" x2="305.25" y2="274.09"/><line x1="252.34" y1="299.82" x2="228.00" y2="269.52"/><line x1="287.22" y1="205.87" x2="268.27" y2="238.63"/><line x1="305.19" y1="272.28" x2="292.96" y2="214.08"/><line x1="252.34" y1="299.82" x2="264.09" y2="266.60"/><line x1="284.38" y1="310.15" x2="284.87" y2="310.27"/><line x1="287.22" y1="205.87" x2="286.85" y2="204.53"/><line x1="287.77" y1="308.27" x2="311.95" y2="304.09"/><line x1="332.07" y1="274.72" x2="331.82" y2="274.20"/><line x1="196.79" y1="196.47" x2="210.14" y2="194.49"/><line x1="215.39" y1="286.21" x2="217.67" y2="283.94"/><line x1="225.74" y1="257.57" x2="241.20" y2="245.90"/><line x1="273.71" y1="167.65" x2="241.48" y2="175.64"/><line x1="313.76" y1="253.48" x2="312.56" y2="251.60"/><line x1="229.45" y1="147.04" x2="260.85" y2="135.99"/><line x1="284.87" y1="310.27" x2="285.37" y2="310.34"/><line x1="299.59" y1="346.89" x2="301.67" y2="346.80"/><line x1="197.20" y1="312.52" x2="198.75" y2="313.99"/><line x1="209.28" y1="290.53" x2="215.84" y2="322.76"/><line x1="241.20" y1="245.90" x2="242.10" y2="246.98"/><line x1="257.97" y1="305.31" x2="274.10" y2="295.63"/><line x1="256.18" y1="205.51" x2="283.63" y2="194.71"/><line x1="301.67" y1="346.80" x2="303.58" y2="346.53"/><line x1="480.00" y1="32.02" x2="480.00" y2="64.50"/><line x1="205.82" y1="291.35" x2="200.30" y2="315.34"/><line x1="229.77" y1="227.95" x2="231.92" y2="231.64"/><line x1="196.77" y1="205.09" x2="212.43" y2="197.74"/><line x1="187.91" y1="303.98" x2="199.44" y2="288.76"/><line x1="200.20" y1="289.26" x2="189.18" y2="305.22"/><line x1="321.54" y1="287.72" x2="321.76" y2="287.89"/><line x1="277.84" y1="328.63" x2="283.91" y2="309.99"/><line x1="207.49" y1="291.14" x2="209.28" y2="290.53"/><line x1="287.43" y1="309.62" x2="290.52" y2="342.40"/><line x1="278.85" y1="329.86" x2="279.28" y2="330.32"/><line x1="222.87" y1="124.71" x2="253.38" y2="118.64"/><line x1="287.43" y1="309.62" x2="301.67" y2="346.80"/><line x1="480.00" y1="479.91" x2="480.00" y2="447.42"/><line x1="310.59" y1="298.03" x2="287.29" y2="304.50"/><line x1="331.81" y1="282.73" x2="331.39" y2="283.96"/><line x1="212.43" y1="197.74" x2="213.70" y2="199.67"/><line x1="218.95" y1="322.97" x2="220.72" y2="322.74"/><line x1="252.34" y1="299.82" x2="246.55" y2="248.90"/><line x1="305.19" y1="272.28" x2="307.78" y2="243.27"/><line x1="305.41" y1="238.63" x2="295.47" y2="218.49"/><line x1="252.34" y1="299.82" x2="259.46" y2="255.76"/><line x1="287.22" y1="205.87" x2="263.77" y2="224.84"/><line x1="279.28" y1="330.32" x2="279.76" y2="330.80"/><line x1="252.34" y1="299.82" x2="227.12" y2="271.45"/><line x1="310.85" y1="342.53" x2="311.84" y2="341.20"/><line x1="334.06" y1="277.52" x2="333.85" y2="277.31"/><line x1="238.30" y1="89.63" x2="237.89" y2="89.45"/><line x1="329.32" y1="289.39" x2="324.81" y2="292.19"/><line x1="204.97" y1="318.72" x2="206.52" y2="319.62"/><line x1="223.44" y1="253.42" x2="225.74" y2="257.57"/><line x1="217.94" y1="206.70" x2="219.52" y2="209.45"/><line x1="276.21" y1="299.33" x2="262.99" y2="310.79"/><line x1="256.59" y1="128.07" x2="256.27" y2="127.42"/><line x1="245.37" y1="183.76" x2="241.48" y2="175.64"/><line x1="311.84" y1="341.20" x2="312.69" y2="339.68"/><line x1="237.89" y1="89.45" x2="237.47" y2="89.32"/><line x1="447.51" y1="479.91" x2="480.00" y2="447.42"/><line x1="209.28" y1="290.53" x2="208.07" y2="320.40"/><line x1="202.90" y1="290.71" x2="193.10" y2="308.91"/><line x1="322.66" y1="288.95" x2="329.73" y2="288.39"/><line x1="262.99" y1="310.79" x2="277.27" y2="301.09"/><line x1="224.02" y1="129.70" x2="254.19" y2="121.09"/><line x1="241.48" y1="175.64" x2="264.52" y2="144.40"/><line x1="249.77" y1="109.33" x2="248.77" y2="107.13"/><line x1="281.78" y1="284.57" x2="308.02" y2="288.65"/><line x1="187.91" y1="303.98" x2="195.38" y2="285.59"/><line x1="227.39" y1="261.09" x2="228.38" y2="264.00"/><line x1="193.10" y1="308.91" x2="203.52" y2="290.94"/><line x1="201.71" y1="219.82" x2="219.52" y2="209.45"/><line x1="286.16" y1="310.35" x2="278.85" y2="329.86"/><line x1="288.31" y1="207.19" x2="287.22" y2="205.87"/><line x1="285.20" y1="199.26" x2="284.46" y2="197.09"/><line x1="277.84" y1="328.63" x2="285.90" y2="310.36"/><line x1="286.82" y1="310.18" x2="287.00" y2="310.08"/><line x1="248.77" y1="107.13" x2="221.38" y2="112.11"/><line x1="207.27" y1="191.12" x2="201.26" y2="190.02"/><line x1="227.45" y1="223.89" x2="229.77" y2="227.95"/><line x1="237.99" y1="311.40" x2="215.39" y2="286.21"/><line x1="256.38" y1="253.14" x2="258.07" y2="254.41"/><line x1="252.34" y1="299.82" x2="252.08" y2="250.85"/><line x1="287.22" y1="205.87" x2="269.39" y2="242.39"/><line x1="262.54" y1="139.75" x2="229.45" y2="147.04"/><line x1="241.45" y1="92.73" x2="226.17" y2="93.44"/><line x1="252.34" y1="299.82" x2="263.40" y2="263.81"/><line x1="314.57" y1="326.67" x2="314.48" y2="324.01"/><line x1="190.46" y1="306.45" x2="191.77" y2="307.68"/><line x1="187.71" y1="278.99" x2="188.46" y2="279.58"/><line x1="215.84" y1="322.76" x2="217.40" y2="322.92"/><line x1="212.58" y1="237.31" x2="216.86" y2="243.30"/><line x1="324.25" y1="291.40" x2="324.81" y2="292.19"/><line x1="273.71" y1="167.65" x2="245.37" y2="183.76"/><line x1="222.04" y1="120.12" x2="221.55" y2="115.92"/><line x1="288.75" y1="340.36" x2="289.62" y2="341.38"/><line x1="229.45" y1="147.04" x2="261.65" y2="137.76"/><line x1="309.81" y1="294.94" x2="308.95" y2="291.82"/><line x1="222.58" y1="100.99" x2="223.25" y2="98.76"/><line x1="331.30" y1="273.01" x2="330.96" y2="272.47"/><line x1="197.20" y1="312.52" x2="205.82" y2="291.35"/><line x1="324.81" y1="292.19" x2="325.44" y2="293.10"/><line x1="334.27" y1="277.70" x2="334.06" y2="277.52"/><line x1="263.77" y1="224.84" x2="262.64" y2="221.69"/><line x1="313.01" y1="310.00" x2="287.69" y2="308.91"/><line x1="223.25" y1="98.76" x2="224.07" y2="96.76"/><line x1="187.91" y1="303.98" x2="191.96" y2="282.64"/><line x1="187.91" y1="303.98" x2="198.65" y2="288.20"/><line x1="277.84" y1="328.63" x2="283.46" y2="309.78"/><line x1="262.64" y1="221.69" x2="261.52" y2="218.67"/><line x1="227.12" y1="271.45" x2="225.89" y2="273.59"/><line x1="334.08" y1="278.23" x2="312.72" y2="277.55"/><line x1="191.96" y1="282.64" x2="192.64" y2="283.25"/><line x1="480.00" y1="479.91" x2="447.51" y2="479.91"/><line x1="237.38" y1="240.44" x2="238.84" y2="242.63"/><line x1="287.31" y1="309.80" x2="288.75" y2="340.36"/><line x1="258.25" y1="210.39" x2="285.20" y2="199.26"/><line x1="241.45" y1="92.73" x2="222.06" y2="103.44"/><line x1="252.34" y1="299.82" x2="258.07" y2="254.41"/><line x1="256.93" y1="128.68" x2="256.59" y2="128.07"/><line x1="213.23" y1="288.06" x2="237.99" y2="311.40"/><line x1="241.45" y1="92.73" x2="232.23" y2="89.62"/><line x1="241.56" y1="308.33" x2="244.63" y2="305.73"/><line x1="329.32" y1="289.39" x2="324.25" y2="291.40"/><line x1="204.97" y1="318.72" x2="209.28" y2="290.53"/><line x1="217.94" y1="206.70" x2="201.71" y2="219.82"/><line x1="254.28" y1="301.65" x2="256.16" y2="303.48"/><line x1="318.92" y1="260.15" x2="317.57" y2="258.61"/><line x1="312.72" y1="277.55" x2="321.54" y2="287.72"/><line x1="255.43" y1="125.24" x2="255.18" y2="124.44"/><line x1="286.62" y1="310.26" x2="286.82" y2="310.18"/><line x1="208.15" y1="192.04" x2="198.32" y2="192.32"/><line x1="232.23" y1="89.62" x2="234.14" y2="89.27"/><line x1="225.89" y1="273.59" x2="250.78" y2="300.77"/><line x1="254.38" y1="251.95" x2="256.38" y2="253.14"/><line x1="205.28" y1="291.32" x2="197.20" y2="312.52"/><line x1="224.02" y1="129.70" x2="254.96" y2="123.60"/><line x1="257.97" y1="305.31" x2="259.71" y2="307.14"/><line x1="287.75" y1="307.29" x2="287.66" y2="306.52"/><line x1="333.52" y1="278.87" x2="333.34" y2="279.12"/><line x1="206.46" y1="190.41" x2="207.27" y2="191.12"/><line x1="187.91" y1="303.98" x2="194.69" y2="285.02"/><line x1="227.39" y1="261.09" x2="243.33" y2="248.04"/><line x1="282.72" y1="192.12" x2="273.71" y2="167.65"/><line x1="286.16" y1="310.35" x2="278.46" y2="329.42"/><line x1="280.47" y1="306.02" x2="280.69" y2="306.60"/><line x1="277.84" y1="328.63" x2="285.37" y2="310.34"/><line x1="333.42" y1="276.83" x2="333.21" y2="276.57"/><line x1="321.98" y1="288.11" x2="322.20" y2="288.35"/><line x1="227.45" y1="223.89" x2="212.58" y2="237.31"/><line x1="286.40" y1="310.32" x2="285.53" y2="336.15"/><line x1="255.18" y1="203.28" x2="254.20" y2="201.16"/><line x1="252.34" y1="299.82" x2="228.53" y2="267.81"/><line x1="280.69" y1="306.60" x2="280.95" y2="307.14"/><line x1="252.53" y1="116.24" x2="251.65" y2="113.88"/><line x1="241.45" y1="92.73" x2="225.04" y2="94.98"/><line x1="287.02" y1="303.25" x2="286.67" y2="301.85"/><line x1="190.46" y1="306.45" x2="202.26" y2="290.43"/><line x1="305.33" y1="275.05" x2="305.25" y2="274.09"/><line x1="330.55" y1="286.27" x2="330.14" y2="287.35"/><line x1="212.58" y1="237.31" x2="229.77" y2="227.95"/><line x1="259.71" y1="307.14" x2="261.39" y2="308.96"/><line x1="263.40" y1="263.81" x2="264.09" y2="266.60"/><line x1="312.72" y1="277.55" x2="329.22" y2="270.20"/><line x1="222.04" y1="120.12" x2="250.73" y2="111.58"/><line x1="288.75" y1="340.36" x2="287.43" y2="309.62"/><line x1="236.20" y1="89.14" x2="236.63" y2="89.16"/><line x1="204.50" y1="189.50" x2="203.32" y2="189.55"/><line x1="309.81" y1="294.94" x2="286.28" y2="300.29"/><line x1="208.15" y1="192.04" x2="209.10" y2="193.16"/><line x1="332.77" y1="275.97" x2="332.54" y2="275.60"/><line x1="215.04" y1="201.81" x2="216.45" y2="204.15"/><line x1="198.90" y1="191.57" x2="198.32" y2="192.32"/><line x1="264.09" y1="266.60" x2="264.65" y2="269.68"/><line x1="264.52" y1="144.40" x2="234.76" y2="160.56"/><line x1="282.62" y1="309.23" x2="277.84" y2="328.63"/><line x1="258.90" y1="132.07" x2="256.93" y2="128.68"/><line x1="205.73" y1="189.90" x2="206.46" y2="190.41"/><line x1="313.01" y1="310.00" x2="287.62" y2="309.17"/><line x1="332.87" y1="279.94" x2="332.73" y2="280.23"/><line x1="198.32" y1="192.32" x2="197.82" y2="193.18"/><line x1="250.78" y1="300.77" x2="249.24" y2="301.95"/><line x1="228.53" y1="267.81" x2="228.00" y2="269.52"/><line x1="235.73" y1="237.88" x2="237.38" y2="240.44"/><line x1="187.91" y1="303.98" x2="197.82" y2="287.57"/><line x1="323.24" y1="264.23" x2="321.76" y2="262.96"/><line x1="320.31" y1="261.60" x2="318.92" y2="260.15"/><line x1="277.84" y1="328.63" x2="283.03" y2="309.53"/><line x1="230.47" y1="90.22" x2="232.23" y2="89.62"/><line x1="330.97" y1="285.13" x2="330.55" y2="286.27"/><line x1="194.44" y1="310.12" x2="195.81" y2="311.33"/><line x1="334.08" y1="278.23" x2="334.06" y2="277.52"/><line x1="331.39" y1="283.96" x2="330.97" y2="285.13"/><line x1="323.14" y1="289.69" x2="323.42" y2="290.15"/><line x1="237.38" y1="240.44" x2="223.44" y2="253.42"/><line x1="314.61" y1="329.29" x2="314.57" y2="326.67"/><line x1="287.31" y1="309.80" x2="287.90" y2="339.33"/><line x1="258.25" y1="210.39" x2="285.84" y2="201.23"/><line x1="241.45" y1="92.73" x2="221.68" y2="106.10"/><line x1="294.55" y1="345.74" x2="295.71" y2="346.24"/><line x1="305.75" y1="278.20" x2="305.58" y2="277.11"/><line x1="241.45" y1="92.73" x2="230.47" y2="90.22"/><line x1="210.14" y1="194.49" x2="196.59" y2="197.79"/><line x1="312.72" y1="277.55" x2="332.59" y2="280.53"/><line x1="241.56" y1="308.33" x2="220.08" y2="281.27"/><line x1="242.10" y1="246.98" x2="242.81" y2="247.70"/><line x1="329.22" y1="270.20" x2="328.68" y2="269.60"/><line x1="312.72" y1="277.55" x2="330.96" y2="272.47"/><line x1="305.44" y1="276.06" x2="305.33" y2="275.05"/><line x1="312.72" y1="277.55" x2="330.97" y2="285.13"/><line x1="255.43" y1="125.24" x2="224.02" y2="129.70"/><line x1="236.20" y1="89.14" x2="238.70" y2="89.84"/><line x1="208.15" y1="192.04" x2="198.90" y2="191.57"/><line x1="287.78" y1="307.91" x2="287.75" y2="307.29"/><line x1="216.86" y1="243.30" x2="220.47" y2="248.67"/><line x1="196.59" y1="197.79" x2="196.48" y2="199.24"/><line x1="287.90" y1="339.33" x2="288.75" y2="340.36"/><line x1="311.36" y1="249.64" x2="310.16" y2="247.60"/><line x1="285.90" y1="310.36" x2="286.16" y2="310.35"/><line x1="213.70" y1="199.67" x2="215.04" y2="201.81"/><line x1="214.29" y1="322.50" x2="215.84" y2="322.76"/><line x1="227.39" y1="261.09" x2="242.81" y2="247.70"/><line x1="287.54" y1="309.41" x2="313.01" y2="310.00"/><line x1="282.72" y1="192.12" x2="255.18" y2="203.28"/><line x1="305.34" y1="346.09" x2="306.95" y2="345.46"/><line x1="200.30" y1="315.34" x2="201.86" y2="316.58"/><line x1="211.20" y1="289.49" x2="234.32" y2="314.46"/><line x1="197.76" y1="209.69" x2="199.40" y2="214.60"/><line x1="228.70" y1="266.31" x2="228.53" y2="267.81"/><line x1="321.98" y1="288.11" x2="330.55" y2="286.27"/><line x1="259.32" y1="213.02" x2="258.25" y2="210.39"/><line x1="225.50" y1="135.08" x2="255.69" y2="126.01"/><line x1="286.40" y1="310.32" x2="280.84" y2="331.83"/><line x1="203.41" y1="317.70" x2="204.97" y2="318.72"/><line x1="312.51" y1="307.06" x2="311.95" y2="304.09"/><line x1="252.53" y1="116.24" x2="222.04" y2="120.12"/><line x1="241.45" y1="92.73" x2="224.07" y2="96.76"/><line x1="287.02" y1="303.25" x2="309.81" y2="294.94"/><line x1="312.72" y1="277.55" x2="332.77" y2="275.97"/><line x1="293.45" y1="345.11" x2="294.55" y2="345.74"/><line x1="190.46" y1="306.45" x2="201.60" y2="290.10"/><line x1="249.47" y1="249.83" x2="252.08" y2="250.85"/><line x1="312.72" y1="277.55" x2="332.35" y2="281.14"/><line x1="294.20" y1="216.20" x2="292.96" y2="214.08"/><line x1="312.72" y1="277.55" x2="329.71" y2="270.79"/><line x1="236.20" y1="89.14" x2="240.56" y2="91.41"/><line x1="236.20" y1="89.14" x2="237.05" y2="89.23"/><line x1="204.50" y1="189.50" x2="205.08" y2="189.60"/><line x1="225.20" y1="320.84" x2="227.92" y2="319.19"/><line x1="264.52" y1="312.62" x2="271.18" y2="320.62"/><line x1="196.07" y1="286.14" x2="196.96" y2="286.89"/><line x1="264.52" y1="144.40" x2="237.95" y2="167.90"/><line x1="237.05" y1="89.23" x2="236.63" y2="89.16"/><line x1="285.37" y1="310.34" x2="285.90" y2="310.36"/><line x1="222.33" y1="214.64" x2="224.97" y2="219.46"/><line x1="250.78" y1="300.77" x2="224.30" y2="275.94"/><line x1="323.24" y1="264.23" x2="306.51" y2="270.40"/><line x1="212.73" y1="322.13" x2="214.29" y2="322.50"/><line x1="211.20" y1="289.49" x2="220.72" y2="322.74"/><line x1="330.97" y1="285.13" x2="321.98" y2="288.11"/><line x1="332.47" y1="280.83" x2="332.35" y2="281.14"/><line x1="194.44" y1="310.12" x2="204.13" y2="291.12"/><line x1="240.23" y1="91.04" x2="239.87" y2="90.69"/><line x1="241.45" y1="92.73" x2="221.46" y2="108.99"/><line x1="201.26" y1="190.02" x2="200.37" y2="190.42"/><line x1="312.72" y1="277.55" x2="333.34" y2="279.12"/><line x1="331.82" y1="274.20" x2="331.57" y2="273.63"/><line x1="312.72" y1="277.55" x2="332.31" y2="275.18"/><line x1="241.56" y1="308.33" x2="217.67" y2="283.94"/><line x1="242.10" y1="246.98" x2="227.39" y2="261.09"/><line x1="200.91" y1="289.71" x2="190.46" y2="306.45"/><line x1="312.72" y1="277.55" x2="331.81" y2="282.73"/><line x1="312.72" y1="277.55" x2="323.24" y2="264.23"/><line x1="236.20" y1="89.14" x2="239.11" y2="90.09"/><line x1="189.20" y1="280.16" x2="189.91" y2="280.77"/><line x1="480.00" y1="64.50" x2="447.51" y2="32.02"/><line x1="216.86" y1="243.30" x2="233.91" y2="234.95"/><line x1="285.53" y1="336.15" x2="287.17" y2="309.95"/><line x1="222.80" y1="322.02" x2="225.20" y2="320.84"/><line x1="178.63" y1="295.24" x2="188.46" y2="279.58"/><line x1="330.96" y1="272.47" x2="330.58" y2="271.93"/><line x1="213.70" y1="199.67" x2="197.76" y2="209.69"/><line x1="228.00" y1="269.52" x2="227.12" y2="271.45"/><line x1="237.47" y1="89.32" x2="237.05" y2="89.23"/><line x1="221.55" y1="115.92" x2="221.38" y2="112.11"/><line x1="287.69" y1="308.91" x2="287.74" y2="308.61"/><line x1="221.38" y1="112.11" x2="221.46" y2="108.99"/><line x1="211.20" y1="289.49" x2="230.96" y2="317.06"/><line x1="203.52" y1="290.94" x2="194.44" y2="310.12"/><line x1="225.50" y1="135.08" x2="255.97" y2="126.73"/><line x1="286.40" y1="310.32" x2="280.28" y2="331.30"/><line x1="312.51" y1="307.06" x2="287.77" y2="308.27"/><line x1="312.72" y1="277.55" x2="333.85" y2="277.31"/><line x1="312.72" y1="277.55" x2="333.02" y2="279.66"/><line x1="312.72" y1="277.55" x2="331.82" y2="274.20"/><line x1="312.72" y1="277.55" x2="330.17" y2="271.36"/><line x1="311.30" y1="301.07" x2="310.59" y2="298.03"/><line x1="236.20" y1="89.14" x2="240.88" y2="91.82"/><line x1="313.38" y1="337.97" x2="313.92" y2="336.08"/><line x1="211.24" y1="196.01" x2="212.43" y2="197.74"/><line x1="333.88" y1="278.43" x2="333.69" y2="278.64"/><line x1="236.20" y1="89.14" x2="237.47" y2="89.32"/><line x1="219.52" y1="209.45" x2="222.33" y2="214.64"/><line x1="322.90" y1="289.30" x2="323.14" y2="289.69"/><line x1="257.20" y1="207.88" x2="256.18" y2="205.51"/><line x1="178.63" y1="295.24" x2="191.29" y2="282.01"/><line x1="305.94" y1="279.34" x2="305.75" y2="278.20"/><line x1="306.51" y1="270.40" x2="317.57" y2="258.61"/><line x1="243.33" y1="248.04" x2="246.55" y2="248.90"/><line x1="303.58" y1="346.53" x2="305.34" y2="346.09"/><line x1="271.18" y1="320.62" x2="282.23" y2="308.89"/><line x1="227.31" y1="140.86" x2="225.50" y2="135.08"/><line x1="287.43" y1="309.62" x2="313.38" y2="337.97"/><line x1="269.39" y1="242.39" x2="268.27" y2="238.63"/><line x1="287.17" y1="309.95" x2="287.31" y2="309.80"/><line x1="287.43" y1="309.62" x2="313.79" y2="315.74"/><line x1="321.76" y1="287.89" x2="321.98" y2="288.11"/><line x1="224.30" y1="275.94" x2="249.24" y2="301.95"/><line x1="202.24" y1="189.73" x2="201.26" y2="190.02"/><line x1="305.19" y1="272.28" x2="288.31" y2="207.19"/><line x1="228.38" y1="264.00" x2="228.70" y2="266.31"/><line x1="211.20" y1="289.49" x2="218.95" y2="322.97"/><line x1="287.29" y1="304.50" x2="287.02" y2="303.25"/><line x1="314.31" y1="321.30" x2="314.08" y2="318.55"/><line x1="295.47" y1="218.49" x2="294.20" y2="216.20"/><line x1="199.40" y1="214.60" x2="201.71" y2="219.82"/><line x1="333.21" y1="276.57" x2="332.99" y2="276.28"/><line x1="279.76" y1="330.80" x2="286.40" y2="310.32"/><line x1="312.72" y1="277.55" x2="333.42" y2="276.83"/><line x1="330.14" y1="287.35" x2="329.73" y2="288.39"/><line x1="312.72" y1="277.55" x2="332.73" y2="280.23"/><line x1="325.44" y1="293.10" x2="326.17" y2="294.12"/><line x1="281.23" y1="307.63" x2="281.53" y2="308.09"/><line x1="202.26" y1="290.43" x2="202.90" y2="290.71"/><line x1="305.21" y1="273.16" x2="305.19" y2="272.28"/><line x1="312.69" y1="339.68" x2="313.38" y2="337.97"/><line x1="285.53" y1="336.15" x2="287.00" y2="310.08"/><line x1="261.52" y1="218.67" x2="260.41" y2="215.78"/><line x1="289.62" y1="341.38" x2="290.52" y2="342.40"/><line x1="329.73" y1="288.39" x2="322.90" y2="289.30"/><line x1="178.63" y1="295.24" x2="187.71" y2="278.99"/><line x1="277.27" y1="301.09" x2="264.52" y2="312.62"/><line x1="287.43" y1="309.62" x2="294.55" y2="345.74"/><line x1="306.51" y1="270.40" x2="312.56" y2="251.60"/><line x1="271.18" y1="320.62" x2="280.69" y2="306.60"/><line x1="265.09" y1="273.08" x2="265.65" y2="278.54"/><line x1="287.43" y1="309.62" x2="308.40" y2="344.66"/><line x1="308.02" y1="288.65" x2="305.94" y2="279.34"/><line x1="231.93" y1="153.60" x2="229.45" y2="147.04"/><line x1="287.43" y1="309.62" x2="314.61" y2="329.29"/><line x1="275.59" y1="263.48" x2="305.33" y2="275.05"/><line x1="203.32" y1="189.55" x2="202.24" y2="189.73"/><line x1="287.69" y1="308.91" x2="312.51" y2="307.06"/><line x1="195.81" y1="311.33" x2="197.20" y2="312.52"/><line x1="305.19" y1="272.28" x2="294.20" y2="216.20"/><line x1="287.00" y1="310.08" x2="287.17" y2="309.95"/><line x1="287.22" y1="205.87" x2="259.32" y2="213.02"/><line x1="221.38" y1="112.11" x2="241.45" y2="92.73"/><line x1="211.20" y1="289.49" x2="227.92" y2="319.19"/><line x1="317.57" y1="258.61" x2="316.25" y2="256.99"/><line x1="283.46" y1="309.78" x2="283.91" y2="309.99"/><line x1="215.39" y1="286.21" x2="241.56" y2="308.33"/><line x1="258.07" y1="254.41" x2="259.46" y2="255.76"/><line x1="32.16" y1="32.09" x2="32.16" y2="64.58"/><line x1="312.72" y1="277.55" x2="333.88" y2="278.43"/><line x1="314.48" y1="324.01" x2="314.31" y2="321.30"/><line x1="312.72" y1="277.55" x2="332.99" y2="276.28"/><line x1="256.16" y1="303.48" x2="257.97" y2="305.31"/><line x1="188.46" y1="279.58" x2="189.20" y2="280.16"/><line x1="209.28" y1="290.53" x2="214.29" y2="322.50"/><line x1="296.94" y1="346.60" x2="298.23" y2="346.81"/><line x1="311.30" y1="301.07" x2="287.50" y2="305.59"/><line x1="280.95" y1="307.14" x2="281.23" y2="307.63"/><line x1="211.24" y1="196.01" x2="196.77" y2="205.09"/><line x1="261.65" y1="137.76" x2="260.85" y2="135.99"/><line x1="328.11" y1="268.99" x2="323.24" y2="264.23"/><line x1="305.25" y1="274.09" x2="305.21" y2="273.16"/><line x1="205.82" y1="291.35" x2="198.75" y2="313.99"/><line x1="229.77" y1="227.95" x2="216.86" y2="243.30"/><line x1="178.63" y1="295.24" x2="190.61" y2="281.38"/><line x1="207.49" y1="291.14" x2="204.97" y2="318.72"/><line x1="333.34" y1="279.12" x2="333.18" y2="279.38"/><line x1="287.43" y1="309.62" x2="289.62" y2="341.38"/><line x1="306.51" y1="270.40" x2="318.92" y2="260.15"/><line x1="243.33" y1="248.04" x2="252.34" y2="299.82"/><line x1="224.07" y1="96.76" x2="225.04" y2="94.98"/><line x1="287.43" y1="309.62" x2="299.59" y2="346.89"/><line x1="306.51" y1="270.40" x2="307.78" y2="243.27"/><line x1="271.18" y1="320.62" x2="281.87" y2="308.51"/><line x1="227.31" y1="140.86" x2="256.59" y2="128.07"/><line x1="287.43" y1="309.62" x2="312.69" y2="339.68"/><line x1="287.43" y1="309.62" x2="314.08" y2="318.55"/><line x1="220.47" y1="248.67" x2="223.44" y2="253.42"/><line x1="287.22" y1="205.87" x2="264.89" y2="228.10"/><line x1="273.06" y1="293.70" x2="256.16" y2="303.48"/><line x1="322.20" y1="288.35" x2="322.43" y2="288.64"/><line x1="305.19" y1="272.28" x2="289.42" y2="208.67"/><line x1="252.34" y1="299.82" x2="265.65" y2="278.54"/><line x1="275.15" y1="297.51" x2="276.21" y2="299.33"/><line x1="192.64" y1="283.25" x2="193.32" y2="283.86"/><line x1="223.44" y1="253.42" x2="240.11" y2="244.45"/><line x1="199.40" y1="214.60" x2="217.94" y2="206.70"/><line x1="256.59" y1="128.07" x2="225.50" y2="135.08"/><line x1="229.45" y1="147.04" x2="227.31" y2="140.86"/><line x1="209.28" y1="290.53" x2="206.52" y2="319.62"/><line x1="250.73" y1="111.58" x2="249.77" y2="109.33"/><line x1="332.54" y1="275.60" x2="332.31" y2="275.18"/><line x1="197.82" y1="193.18" x2="197.40" y2="194.17"/><line x1="252.08" y1="250.85" x2="254.38" y2="251.95"/><line x1="234.14" y1="89.27" x2="236.20" y2="89.14"/><line x1="196.48" y1="199.24" x2="196.44" y2="200.79"/><line x1="178.63" y1="295.24" x2="186.13" y2="277.87"/><line x1="285.20" y1="199.26" x2="257.20" y2="207.88"/><line x1="274.10" y1="295.63" x2="275.15" y2="297.51"/><line x1="230.96" y1="317.06" x2="234.32" y2="314.46"/><line x1="287.43" y1="309.62" x2="293.45" y2="345.11"/><line x1="306.51" y1="270.40" x2="313.76" y2="253.48"/><line x1="271.18" y1="320.62" x2="280.47" y2="306.02"/><line x1="197.82" y1="287.57" x2="198.65" y2="288.20"/><line x1="207.27" y1="191.12" x2="202.24" y2="189.73"/><line x1="287.43" y1="309.62" x2="306.95" y2="345.46"/><line x1="231.93" y1="153.60" x2="262.54" y2="139.75"/><line x1="287.43" y1="309.62" x2="314.52" y2="331.75"/><line x1="275.59" y1="263.48" x2="305.44" y2="276.06"/><line x1="195.81" y1="311.33" x2="205.28" y2="291.32"/><line x1="224.97" y1="219.46" x2="227.45" y2="223.89"/><line x1="305.19" y1="272.28" x2="295.47" y2="218.49"/><line x1="255.18" y1="124.44" x2="254.96" y2="123.60"/><line x1="252.34" y1="299.82" x2="262.60" y2="261.34"/><line x1="32.00" y1="479.98" x2="64.49" y2="479.98"/><line x1="287.22" y1="205.87" x2="260.41" y2="215.78"/><line x1="252.34" y1="299.82" x2="254.28" y2="301.65"/><line x1="215.84" y1="322.76" x2="211.20" y2="289.49"/><line x1="329.32" y1="289.39" x2="326.98" y2="295.24"/><line x1="273.71" y1="167.65" x2="249.61" y2="192.26"/><line x1="220.08" y1="281.27" x2="222.37" y2="278.50"/><line x1="209.28" y1="290.53" x2="212.73" y2="322.13"/><line x1="334.27" y1="277.70" x2="334.08" y2="278.23"/><line x1="331.57" y1="273.63" x2="331.30" y2="273.01"/><line x1="259.47" y1="133.16" x2="258.90" y2="132.07"/><line x1="281.78" y1="284.57" x2="275.59" y2="263.48"/><line x1="264.65" y1="269.68" x2="265.09" y2="273.08"/><line x1="207.49" y1="291.14" x2="203.41" y2="317.70"/><line x1="286.16" y1="310.35" x2="286.40" y2="310.32"/><line x1="306.51" y1="270.40" x2="320.31" y2="261.60"/><line x1="287.62" y1="309.17" x2="287.69" y2="308.91"/><line x1="287.43" y1="309.62" x2="298.23" y2="346.81"/><line x1="271.18" y1="320.62" x2="281.53" y2="308.09"/><line x1="287.43" y1="309.62" x2="311.84" y2="341.20"/><line x1="334.28" y1="278.04" x2="334.08" y2="278.23"/><line x1="283.03" y1="309.53" x2="283.46" y2="309.78"/><line x1="275.59" y1="263.48" x2="305.19" y2="272.28"/><line x1="252.34" y1="299.82" x2="256.38" y2="253.14"/><line x1="287.22" y1="205.87" x2="266.02" y2="231.49"/><line x1="322.20" y1="288.35" x2="330.14" y2="287.35"/><line x1="252.34" y1="299.82" x2="265.09" y2="273.08"/><line x1="204.13" y1="291.12" x2="204.71" y2="291.24"/><line x1="334.06" y1="277.52" x2="312.72" y2="277.55"/><line x1="329.32" y1="289.39" x2="323.79" y2="290.72"/><line x1="223.44" y1="253.42" x2="238.84" y2="242.63"/><line x1="286.67" y1="301.85" x2="286.28" y2="300.29"/><line x1="285.84" y1="201.23" x2="285.20" y2="199.26"/><line x1="225.74" y1="257.57" x2="227.39" y2="261.09"/><line x1="295.71" y1="346.24" x2="296.94" y2="346.60"/><line x1="229.45" y1="147.04" x2="259.47" y2="133.16"/><line x1="196.96" y1="286.89" x2="197.82" y2="287.57"/><line x1="328.68" y1="269.60" x2="328.11" y2="268.99"/><line x1="224.02" y1="129.70" x2="255.18" y2="124.44"/><line x1="287.75" y1="307.29" x2="311.30" y2="301.07"/><line x1="256.18" y1="205.51" x2="255.18" y2="203.28"/><line x1="332.35" y1="281.14" x2="332.24" y2="281.46"/><line x1="196.48" y1="199.24" x2="211.24" y2="196.01"/><line x1="187.91" y1="303.98" x2="194.00" y2="284.44"/><line x1="314.30" y1="334.00" x2="314.52" y2="331.75"/><line x1="310.16" y1="247.60" x2="308.97" y2="245.47"/><line x1="196.77" y1="205.09" x2="197.76" y2="209.69"/><line x1="187.91" y1="303.98" x2="189.18" y2="305.22"/><line x1="286.16" y1="310.35" x2="278.13" y2="329.01"/><line x1="277.84" y1="328.63" x2="284.87" y2="310.27"/><line x1="274.10" y1="295.63" x2="259.71" y2="307.14"/><line x1="239.87" y1="90.69" x2="239.50" y2="90.37"/><line x1="287.43" y1="309.62" x2="292.41" y2="344.32"/><line x1="222.87" y1="124.71" x2="222.04" y2="120.12"/><line x1="242.81" y1="247.70" x2="243.33" y2="248.04"/><line x1="310.59" y1="298.03" x2="309.81" y2="294.94"/><line x1="308.97" y1="245.47" x2="307.78" y2="243.27"/><line x1="275.59" y1="263.48" x2="305.58" y2="277.11"/><line x1="255.18" y1="203.28" x2="273.71" y2="167.65"/><line x1="252.34" y1="299.82" x2="249.47" y2="249.83"/><line x1="306.95" y1="345.46" x2="308.40" y2="344.66"/><line x1="252.34" y1="299.82" x2="261.67" y2="259.17"/><line x1="32.00" y1="479.98" x2="32.00" y2="447.50"/><line x1="239.50" y1="90.37" x2="239.11" y2="90.09"/><line x1="241.45" y1="92.73" x2="241.18" y2="92.25"/><line x1="252.34" y1="299.82" x2="251.81" y2="300.06"/><line x1="286.30" y1="337.22" x2="287.09" y2="338.28"/><line x1="330.55" y1="286.27" x2="322.20" y2="288.35"/><line x1="329.32" y1="289.39" x2="326.17" y2="294.12"/><line x1="259.71" y1="307.14" x2="275.15" y2="297.51"/><line x1="273.71" y1="167.65" x2="254.20" y2="201.16"/><line x1="222.04" y1="120.12" x2="251.65" y2="113.88"/><line x1="309.81" y1="294.94" x2="286.67" y2="301.85"/><line x1="208.15" y1="192.04" x2="197.06" y2="195.26"/><line x1="201.60" y1="290.10" x2="202.26" y2="290.43"/><line x1="215.04" y1="201.81" x2="199.40" y2="214.60"/><line x1="313.79" y1="315.74" x2="313.43" y2="312.89"/><line x1="292.96" y1="214.08" x2="291.75" y2="212.11"/><line x1="334.27" y1="277.70" x2="334.49" y2="277.87"/><line x1="225.89" y1="273.59" x2="224.30" y2="275.94"/><line x1="280.28" y1="331.30" x2="280.84" y2="331.83"/><line x1="233.91" y1="234.95" x2="235.73" y2="237.88"/><line x1="251.65" y1="113.88" x2="250.73" y2="111.58"/><line x1="205.73" y1="189.90" x2="203.32" y2="189.55"/><line x1="227.92" y1="319.19" x2="230.96" y2="317.06"/><line x1="281.78" y1="284.57" x2="305.75" y2="278.20"/><line x1="187.91" y1="303.98" x2="196.96" y2="286.89"/><line x1="278.33" y1="302.79" x2="279.39" y2="304.44"/><line x1="291.75" y1="212.11" x2="290.57" y2="210.31"/><line x1="201.71" y1="219.82" x2="204.67" y2="225.34"/><line x1="237.95" y1="167.90" x2="234.76" y2="160.56"/><line x1="286.16" y1="310.35" x2="279.76" y2="330.80"/><line x1="313.92" y1="336.08" x2="314.30" y2="334.00"/><line x1="227.12" y1="271.45" x2="251.81" y2="300.06"/><line x1="277.84" y1="328.63" x2="278.13" y2="329.01"/><line x1="204.67" y1="225.34" x2="208.30" y2="231.17"/><line x1="323.14" y1="289.69" x2="329.32" y2="289.39"/><line x1="209.10" y1="193.16" x2="210.14" y2="194.49"/><line x1="287.31" y1="309.80" x2="287.09" y2="338.28"/><line x1="234.76" y1="160.56" x2="231.93" y2="153.60"/><line x1="252.34" y1="299.82" x2="254.38" y2="251.95"/><line x1="305.75" y1="278.20" x2="275.59" y2="263.48"/><line x1="241.45" y1="92.73" x2="228.88" y2="91.05"/><line x1="252.34" y1="299.82" x2="264.65" y2="269.68"/><line x1="204.13" y1="291.12" x2="195.81" y2="311.33"/><line x1="329.32" y1="289.39" x2="323.42" y2="290.15"/><line x1="268.27" y1="238.63" x2="267.14" y2="235.00"/><line x1="225.74" y1="257.57" x2="242.10" y2="246.98"/><line x1="273.71" y1="167.65" x2="264.52" y2="144.40"/><line x1="221.46" y1="108.99" x2="221.68" y2="106.10"/><line x1="275.59" y1="263.48" x2="269.39" y2="242.39"/><line x1="208.15" y1="192.04" x2="199.59" y2="190.94"/><line x1="217.67" y1="283.94" x2="220.08" y2="281.27"/><line x1="267.14" y1="235.00" x2="266.02" y2="231.49"/><line x1="224.30" y1="275.94" x2="222.37" y2="278.50"/><line x1="189.91" y1="280.77" x2="190.61" y2="281.38"/><line x1="187.91" y1="303.98" x2="193.32" y2="283.86"/><line x1="187.91" y1="303.98" x2="200.20" y2="289.26"/><line x1="196.77" y1="205.09" x2="213.70" y2="199.67"/><line x1="260.12" y1="134.46" x2="259.47" y2="133.16"/><line x1="200.20" y1="289.26" x2="200.91" y2="289.71"/><line x1="277.84" y1="328.63" x2="284.38" y2="310.15"/><line x1="200.30" y1="315.34" x2="207.49" y2="291.14"/><line x1="197.76" y1="209.69" x2="215.04" y2="201.81"/><line x1="265.65" y1="278.54" x2="273.06" y2="293.70"/><line x1="259.32" y1="213.02" x2="286.39" y2="202.98"/><line x1="251.81" y1="300.06" x2="250.78" y2="300.77"/><line x1="252.34" y1="299.82" x2="228.70" y2="266.31"/><line x1="226.17" y1="93.44" x2="227.45" y2="92.12"/><line x1="241.45" y1="92.73" x2="223.25" y2="98.76"/><line x1="197.06" y1="195.26" x2="196.79" y2="196.47"/><line x1="252.34" y1="299.82" x2="260.63" y2="257.31"/><line x1="241.45" y1="92.73" x2="236.20" y2="89.14"/><line x1="329.32" y1="289.39" x2="325.44" y2="293.10"/><line x1="276.21" y1="299.33" x2="277.27" y2="301.09"/><line x1="204.50" y1="189.50" x2="205.73" y2="189.90"/><line x1="208.15" y1="192.04" x2="197.40" y2="194.17"/><line x1="240.11" y1="244.45" x2="241.20" y2="245.90"/><line x1="264.52" y1="312.62" x2="278.33" y2="302.79"/><line x1="202.90" y1="290.71" x2="203.52" y2="290.94"/><line x1="333.85" y1="277.31" x2="333.63" y2="277.08"/><line x1="224.02" y1="129.70" x2="222.87" y2="124.71"/><line x1="205.73" y1="189.90" x2="205.08" y2="189.60"/><line x1="222.33" y1="214.64" x2="204.67" y2="225.34"/><line x1="284.46" y1="197.09" x2="283.63" y2="194.71"/><line x1="187.91" y1="303.98" x2="196.07" y2="286.14"/><line x1="278.33" y1="302.79" x2="271.18" y2="320.62"/><line x1="277.84" y1="328.63" x2="286.16" y2="310.35"/><line x1="330.97" y1="285.13" x2="321.76" y2="287.89"/><line x1="204.67" y1="225.34" x2="224.97" y2="219.46"/><line x1="259.46" y1="255.76" x2="260.63" y2="257.31"/><line x1="254.19" y1="121.09" x2="253.38" y2="118.64"/><line x1="287.31" y1="309.80" x2="286.30" y2="337.22"/><line x1="287.50" y1="305.59" x2="287.29" y2="304.50"/><line x1="201.26" y1="190.02" x2="208.15" y2="192.04"/><line x1="262.54" y1="139.75" x2="261.65" y2="137.76"/><line x1="241.45" y1="92.73" x2="227.45" y2="92.12"/><line x1="260.63" y1="257.31" x2="261.67" y2="259.17"/><line x1="312.72" y1="277.55" x2="331.30" y2="273.01"/><line x1="260.85" y1="135.99" x2="260.12" y2="134.46"/><line x1="312.72" y1="277.55" x2="328.11" y2="268.99"/><line x1="314.08" y1="318.55" x2="313.79" y2="315.74"/><line x1="236.20" y1="89.14" x2="239.50" y2="90.37"/><line x1="333.18" y1="279.38" x2="333.02" y2="279.66"/><line x1="275.59" y1="263.48" x2="287.22" y2="205.87"/><line x1="208.15" y1="192.04" x2="200.37" y2="190.42"/><line x1="198.75" y1="313.99" x2="200.30" y2="315.34"/><line x1="216.86" y1="243.30" x2="231.92" y2="231.64"/><line x1="326.17" y1="294.12" x2="326.98" y2="295.24"/><line x1="281.53" y1="308.09" x2="281.87" y2="308.51"/><line x1="264.52" y1="144.40" x2="263.49" y2="141.96"/><line x1="225.04" y1="94.98" x2="226.17" y2="93.44"/><line x1="191.77" y1="307.68" x2="193.10" y2="308.91"/><line x1="231.92" y1="231.64" x2="233.91" y2="234.95"/><line x1="313.01" y1="310.00" x2="312.51" y2="307.06"/><line x1="187.91" y1="303.98" x2="192.64" y2="283.25"/><line x1="260.41" y1="215.78" x2="259.32" y2="213.02"/><line x1="221.55" y1="115.92" x2="248.77" y2="107.13"/><line x1="290.52" y1="342.40" x2="291.44" y2="343.40"/><line x1="308.95" y1="291.82" x2="308.02" y2="288.65"/><line x1="193.32" y1="283.86" x2="194.00" y2="284.44"/><line x1="197.40" y1="194.17" x2="197.06" y2="195.26"/><line x1="234.32" y1="314.46" x2="237.99" y2="311.40"/><line x1="334.08" y1="278.23" x2="333.88" y2="278.43"/><line x1="259.32" y1="213.02" x2="286.85" y2="204.53"/><line x1="225.50" y1="135.08" x2="256.27" y2="127.42"/><line x1="186.93" y1="278.43" x2="187.71" y2="278.99"/><line x1="287.31" y1="309.80" x2="287.43" y2="309.62"/><line x1="312.51" y1="307.06" x2="287.74" y2="308.61"/><line x1="258.25" y1="210.39" x2="257.20" y2="207.88"/><line x1="241.45" y1="92.73" x2="222.58" y2="100.99"/><line x1="197.06" y1="195.26" x2="209.10" y2="193.16"/><line x1="194.00" y1="284.44" x2="194.69" y2="285.02"/><line x1="206.52" y1="319.62" x2="208.07" y2="320.40"/><line x1="330.58" y1="271.93" x2="330.17" y2="271.36"/><line x1="241.45" y1="92.73" x2="234.14" y2="89.27"/><line x1="213.23" y1="288.06" x2="215.39" y2="286.21"/><line x1="316.25" y1="256.99" x2="314.99" y2="255.28"/><line x1="210.14" y1="194.49" x2="211.24" y2="196.01"/><line x1="312.72" y1="277.55" x2="332.47" y2="280.83"/><line x1="283.91" y1="309.99" x2="284.38" y2="310.15"/><line x1="256.27" y1="127.42" x2="255.97" y2="126.73"/><line x1="312.72" y1="277.55" x2="330.58" y2="271.93"/><line x1="236.20" y1="89.14" x2="241.18" y2="92.25"/><line x1="236.20" y1="89.14" x2="237.89" y2="89.45"/><line x1="208.07" y1="320.40" x2="209.63" y2="321.09"/><line x1="208.15" y1="192.04" x2="197.82" y2="193.18"/><line x1="240.11" y1="244.45" x2="225.74" y2="257.57"/><line x1="314.99" y1="255.28" x2="313.76" y2="253.48"/><line x1="312.72" y1="277.55" x2="306.51" y2="270.40"/><line x1="257.20" y1="207.88" x2="284.46" y2="197.09"/><line x1="298.23" y1="346.81" x2="299.59" y2="346.89"/><line x1="241.18" y1="92.25" x2="240.88" y2="91.82"/><line x1="64.64" y1="32.09" x2="32.16" y2="64.58"/><line x1="205.28" y1="291.32" x2="205.82" y2="291.35"/><line x1="198.65" y1="288.20" x2="199.44" y2="288.76"/><line x1="284.46" y1="197.09" x2="256.18" y2="205.51"/><line x1="254.96" y1="123.60" x2="254.19" y2="121.09"/><line x1="287.66" y1="306.52" x2="287.50" y2="305.59"/><line x1="199.44" y1="288.76" x2="200.20" y2="289.26"/><line x1="211.20" y1="289.49" x2="217.40" y2="322.92"/><line x1="330.97" y1="285.13" x2="321.54" y2="287.72"/><line x1="307.78" y1="243.27" x2="306.59" y2="240.99"/><line x1="278.46" y1="329.42" x2="278.85" y2="329.86"/><line x1="254.19" y1="121.09" x2="222.87" y2="124.71"/><line x1="225.50" y1="135.08" x2="224.02" y2="129.70"/><line x1="287.50" y1="305.59" x2="310.59" y2="298.03"/><line x1="286.40" y1="310.32" x2="286.62" y2="310.26"/><line x1="239.11" y1="90.09" x2="238.70" y2="89.84"/><line x1="312.72" y1="277.55" x2="333.52" y2="278.87"/><line x1="330.14" y1="287.35" x2="322.66" y2="288.95"/><line x1="217.40" y1="322.92" x2="218.95" y2="322.97"/><line x1="261.39" y1="308.96" x2="262.99" y2="310.79"/><line x1="312.72" y1="277.55" x2="332.54" y2="275.60"/><line x1="306.59" y1="240.99" x2="305.41" y2="238.63"/><line x1="254.20" y1="201.16" x2="249.61" y2="192.26"/><line x1="312.72" y1="277.55" x2="332.24" y2="281.46"/><line x1="286.28" y1="300.29" x2="281.78" y2="284.57"/><line x1="312.72" y1="277.55" x2="328.68" y2="269.60"/><line x1="238.70" y1="89.84" x2="238.30" y2="89.63"/><line x1="236.20" y1="89.14" x2="239.87" y2="90.69"/><line x1="202.26" y1="290.43" x2="191.77" y2="307.68"/><line x1="285.53" y1="336.15" x2="286.82" y2="310.18"/><line x1="249.61" y1="192.26" x2="245.37" y2="183.76"/><line x1="311.95" y1="304.09" x2="311.30" y2="301.07"/><line x1="264.52" y1="144.40" x2="231.93" y2="153.60"/><line x1="282.62" y1="309.23" x2="283.03" y2="309.53"/><line x1="332.73" y1="280.23" x2="332.59" y2="280.53"/><line x1="191.77" y1="307.68" x2="202.90" y2="290.71"/><line x1="322.43" y1="288.64" x2="322.66" y2="288.95"/><line x1="221.55" y1="115.92" x2="249.77" y2="109.33"/><line x1="203.32" y1="189.55" x2="207.27" y2="191.12"/><line x1="308.95" y1="291.82" x2="281.78" y2="284.57"/><line x1="332.31" y1="275.18" x2="332.07" y2="274.72"/><line x1="234.32" y1="314.46" x2="213.23" y2="288.06"/><line x1="238.84" y1="242.63" x2="240.11" y2="244.45"/><line x1="211.20" y1="289.49" x2="225.20" y2="320.84"/><line x1="289.42" y1="208.67" x2="288.31" y2="207.19"/><line x1="251.81" y1="300.06" x2="225.89" y2="273.59"/><line x1="186.93" y1="278.43" x2="186.13" y2="277.87"/><line x1="32.16" y1="32.09" x2="64.64" y2="32.09"/><line x1="208.30" y1="231.17" x2="212.58" y2="237.31"/><line x1="312.72" y1="277.55" x2="333.18" y2="279.38"/><line x1="210.14" y1="194.49" x2="196.48" y2="199.24"/><line x1="312.72" y1="277.55" x2="332.07" y2="274.72"/><line x1="312.72" y1="277.55" x2="331.39" y2="283.96"/><line x1="311.30" y1="301.07" x2="287.66" y2="306.52"/><line x1="204.71" y1="291.24" x2="205.28" y2="291.32"/><line x1="211.24" y1="196.01" x2="196.44" y2="200.79"/><line x1="236.20" y1="89.14" x2="238.30" y2="89.63"/><line x1="244.63" y1="305.73" x2="247.19" y2="303.60"/><line x1="278.13" y1="329.01" x2="278.46" y2="329.42"/><line x1="285.53" y1="336.15" x2="286.30" y2="337.22"/><line x1="313.43" y1="312.89" x2="313.01" y2="310.00"/><line x1="249.24" y1="301.95" x2="247.19" y2="303.60"/><line x1="191.29" y1="282.01" x2="191.96" y2="282.64"/><line x1="178.63" y1="295.24" x2="189.91" y2="280.77"/><line x1="332.24" y1="281.46" x2="331.81" y2="282.73"/><line x1="196.44" y1="200.79" x2="196.77" y2="205.09"/><line x1="243.33" y1="248.04" x2="228.38" y2="264.00"/><line x1="306.51" y1="270.40" x2="308.97" y2="245.47"/><line x1="227.31" y1="140.86" x2="256.93" y2="128.68"/><line x1="287.54" y1="309.41" x2="287.62" y2="309.17"/><line x1="308.40" y1="344.66" x2="309.70" y2="343.69"/><line x1="287.43" y1="309.62" x2="314.31" y2="321.30"/><line x1="32.00" y1="447.50" x2="64.49" y2="479.98"/></g></svg>