<svg xmlns="http://www.w3.org/2000/svg" width="512" height="512"><rect width="512" height="512" fill="#0a0f1a"/><text x="12" y="20" font-family="monospace" font-size="11" fill="#4a7fa5">FRONT (XZ)</text><g stroke="#00d4ff" stroke-width="0.6" opacity="0.85"><line x1="269.13" y1="281.72" x2="269.60" y2="283.22"/><line x1="299.63" y1="283.94" x2="271.50" y2="290.77"/><line x1="292.22" y1="325.17" x2="289.63" y2="327.21"/><line x1="250.17" y1="259.48" x2="327.13" y2="280.27"/><line x1="251.84" y1="304.47" x2="249.63" y2="303.59"/><line x1="225.35" y1="213.31" x2="227.87" y2="245.25"/><line x1="250.17" y1="259.48" x2="325.66" y2="274.41"/><line x1="229.93" y1="310.66" x2="241.31" y2="298.10"/><line x1="250.17" y1="259.48" x2="299.81" y2="251.58"/><line x1="300.63" y1="279.11" x2="264.49" y2="269.50"/><line x1="188.49" y1="286.46" x2="184.73" y2="295.24"/><line x1="289.63" y1="327.21" x2="286.95" y2="328.89"/><line x1="242.90" y1="321.11" x2="240.84" y2="319.80"/><line x1="260.23" y1="329.11" x2="259.11" y2="328.74"/><line x1="199.50" y1="281.62" x2="192.23" y2="301.94"/><line x1="264.49" y1="269.50" x2="300.35" y2="279.30"/><line x1="218.39" y1="259.30" x2="194.18" y2="259.66"/><line x1="300.77" y1="288.45" x2="271.91" y2="293.77"/><line x1="201.22" y1="280.88" x2="220.19" y2="311.92"/><line x1="219.34" y1="256.26" x2="193.13" y2="255.62"/><line x1="259.11" y1="328.74" x2="257.96" y2="328.32"/><line x1="326.86" y1="276.10" x2="326.46" y2="275.57"/><line x1="205.15" y1="311.34" x2="204.02" y2="310.76"/><line x1="271.91" y1="293.77" x2="271.96" y2="294.65"/><line x1="275.37" y1="331.86" x2="274.86" y2="331.85"/><line x1="191.31" y1="301.13" x2="197.36" y2="281.33"/><line x1="222.45" y1="248.67" x2="222.02" y2="249.46"/><line x1="235.46" y1="291.91" x2="233.58" y2="289.47"/><line x1="237.95" y1="243.65" x2="252.01" y2="205.66"/><line x1="252.62" y1="261.74" x2="255.28" y2="263.31"/><line x1="242.68" y1="247.95" x2="242.18" y2="247.33"/><line x1="299.87" y1="279.78" x2="266.86" y2="275.01"/><line x1="204.02" y1="310.76" x2="200.91" y2="281.11"/><line x1="193.46" y1="278.87" x2="192.86" y2="278.39"/><line x1="274.86" y1="331.85" x2="274.31" y2="331.80"/><line x1="225.35" y1="213.31" x2="230.80" y2="244.68"/><line x1="222.02" y1="249.46" x2="191.88" y2="245.53"/><line x1="250.17" y1="259.48" x2="327.63" y2="277.05"/><line x1="318.93" y1="292.74" x2="318.66" y2="292.29"/><line x1="250.17" y1="259.48" x2="306.16" y2="257.76"/><line x1="202.25" y1="279.51" x2="202.00" y2="279.92"/><line x1="266.86" y1="275.01" x2="299.68" y2="280.05"/><line x1="302.34" y1="294.47" x2="302.71" y2="296.30"/><line x1="192.86" y1="278.39" x2="192.24" y2="277.87"/><line x1="188.49" y1="286.46" x2="194.57" y2="279.72"/><line x1="224.07" y1="212.91" x2="222.93" y2="212.57"/><line x1="253.00" y1="326.23" x2="251.67" y2="325.60"/><line x1="318.66" y1="292.29" x2="318.43" y2="291.85"/><line x1="306.16" y1="257.76" x2="305.12" y2="256.67"/><line x1="200.59" y1="281.31" x2="198.08" y2="306.62"/><line x1="239.45" y1="216.32" x2="237.85" y2="204.73"/><line x1="302.71" y1="296.30" x2="271.77" y2="298.28"/><line x1="201.22" y1="280.88" x2="223.88" y2="308.43"/><line x1="218.39" y1="259.30" x2="196.17" y2="265.58"/><line x1="222.93" y1="212.57" x2="224.91" y2="246.13"/><line x1="239.33" y1="296.23" x2="237.38" y2="294.18"/><line x1="191.94" y1="247.46" x2="192.01" y2="248.49"/><line x1="224.57" y1="278.28" x2="224.24" y2="277.70"/><line x1="305.12" y1="256.67" x2="303.97" y2="255.50"/><line x1="257.49" y1="264.16" x2="250.17" y2="259.48"/><line x1="239.72" y1="244.74" x2="239.30" y2="244.39"/><line x1="198.08" y1="306.62" x2="200.25" y2="281.46"/><line x1="236.02" y1="206.20" x2="236.36" y2="205.78"/><line x1="270.95" y1="331.10" x2="270.21" y2="330.90"/><line x1="192.01" y1="248.49" x2="192.12" y2="249.57"/><line x1="317.45" y1="290.09" x2="317.28" y2="289.83"/><line x1="237.95" y1="243.65" x2="256.45" y2="208.62"/><line x1="223.88" y1="308.43" x2="223.23" y2="309.27"/><line x1="237.95" y1="243.65" x2="248.26" y2="204.19"/><line x1="225.54" y1="305.49" x2="201.75" y2="280.29"/><line x1="269.13" y1="281.72" x2="299.32" y2="280.98"/><line x1="239.30" y1="244.39" x2="238.91" y2="244.11"/><line x1="303.21" y1="305.61" x2="302.68" y2="308.68"/><line x1="236.36" y1="205.78" x2="236.78" y2="205.40"/><line x1="219.33" y1="211.80" x2="215.55" y2="211.97"/><line x1="250.17" y1="259.48" x2="326.53" y2="281.48"/><line x1="251.84" y1="304.47" x2="242.90" y2="321.11"/><line x1="317.28" y1="289.83" x2="317.12" y2="289.60"/><line x1="250.17" y1="259.48" x2="326.06" y2="275.01"/><line x1="243.67" y1="249.33" x2="243.18" y2="248.62"/><line x1="285.98" y1="238.90" x2="285.63" y2="238.27"/><line x1="261.04" y1="265.14" x2="261.60" y2="265.54"/><line x1="223.23" y1="309.27" x2="222.54" y2="310.04"/><line x1="194.12" y1="303.53" x2="199.50" y2="281.62"/><line x1="265.42" y1="305.56" x2="267.28" y2="330.34"/><line x1="215.55" y1="211.97" x2="212.04" y2="212.48"/><line x1="192.63" y1="253.08" x2="219.34" y2="256.26"/><line x1="285.63" y1="238.27" x2="285.25" y2="237.61"/><line x1="239.45" y1="216.32" x2="235.77" y2="206.65"/><line x1="255.58" y1="207.94" x2="254.70" y2="207.30"/><line x1="299.29" y1="282.19" x2="271.05" y2="288.51"/><line x1="199.50" y1="281.62" x2="193.17" y2="302.73"/><line x1="239.45" y1="216.32" x2="240.97" y2="203.89"/><line x1="218.39" y1="259.30" x2="193.79" y2="258.28"/><line x1="268.54" y1="304.10" x2="273.73" y2="331.72"/><line x1="224.17" y1="246.56" x2="198.73" y2="220.19"/><line x1="245.38" y1="301.24" x2="233.26" y2="313.90"/><line x1="219.34" y1="256.26" x2="192.86" y2="254.33"/><line x1="303.74" y1="279.20" x2="303.20" y2="278.91"/><line x1="480.00" y1="32.02" x2="447.51" y2="32.02"/><line x1="222.31" y1="272.09" x2="222.04" y2="271.09"/><line x1="254.70" y1="207.30" x2="253.81" y2="206.70"/><line x1="297.03" y1="320.11" x2="294.74" y2="322.76"/><line x1="240.97" y1="203.89" x2="236.28" y2="243.87"/><line x1="262.73" y1="266.72" x2="263.31" y2="267.51"/><line x1="225.54" y1="305.49" x2="202.94" y2="277.99"/><line x1="217.31" y1="313.07" x2="216.23" y2="313.29"/><line x1="237.95" y1="243.65" x2="252.92" y2="206.15"/><line x1="266.58" y1="305.18" x2="265.42" y2="305.56"/><line x1="231.99" y1="244.48" x2="230.80" y2="244.68"/><line x1="270.05" y1="302.60" x2="269.35" y2="303.40"/><line x1="220.27" y1="253.61" x2="219.81" y2="254.89"/><line x1="200.84" y1="217.97" x2="198.73" y2="220.19"/><line x1="282.54" y1="233.92" x2="281.87" y2="233.15"/><line x1="250.76" y1="260.11" x2="257.49" y2="264.16"/><line x1="299.93" y1="285.19" x2="300.31" y2="286.70"/><line x1="237.95" y1="243.65" x2="241.95" y2="203.78"/><line x1="193.13" y1="232.57" x2="192.44" y2="236.55"/><line x1="271.71" y1="331.30" x2="270.95" y2="331.10"/><line x1="228.38" y1="308.98" x2="226.92" y2="307.26"/><line x1="194.60" y1="261.06" x2="195.07" y2="262.50"/><line x1="224.48" y1="307.52" x2="223.88" y2="308.43"/><line x1="248.26" y1="204.19" x2="247.27" y2="203.97"/><line x1="268.61" y1="280.16" x2="269.13" y2="281.72"/><line x1="239.45" y1="216.32" x2="237.28" y2="205.05"/><line x1="268.54" y1="304.10" x2="281.33" y2="331.12"/><line x1="223.31" y1="247.41" x2="222.88" y2="247.99"/><line x1="218.39" y1="259.30" x2="195.62" y2="264.07"/><line x1="224.17" y1="246.56" x2="223.74" y2="246.94"/><line x1="239.33" y1="296.23" x2="225.54" y2="305.49"/><line x1="245.00" y1="322.34" x2="251.84" y2="304.47"/><line x1="203.16" y1="277.39" x2="202.94" y2="277.99"/><line x1="272.73" y1="224.71" x2="267.85" y2="220.48"/><line x1="264.15" y1="305.82" x2="263.41" y2="329.94"/><line x1="224.59" y1="246.29" x2="224.17" y2="246.56"/><line x1="303.39" y1="302.45" x2="303.21" y2="305.61"/><line x1="261.27" y1="306.04" x2="255.55" y2="327.36"/><line x1="225.54" y1="305.49" x2="222.04" y2="271.09"/><line x1="222.85" y1="273.95" x2="222.58" y2="273.05"/><line x1="237.95" y1="243.65" x2="238.23" y2="243.74"/><line x1="200.91" y1="281.11" x2="201.70" y2="309.35"/><line x1="302.77" y1="278.74" x2="261.04" y2="265.14"/><line x1="301.32" y1="290.45" x2="301.87" y2="292.52"/><line x1="225.54" y1="305.49" x2="202.00" y2="279.92"/><line x1="303.21" y1="305.61" x2="271.12" y2="300.66"/><line x1="267.96" y1="330.41" x2="265.42" y2="305.56"/><line x1="222.58" y1="273.05" x2="222.31" y2="272.09"/><line x1="261.04" y1="265.14" x2="302.45" y2="278.68"/><line x1="269.35" y1="303.40" x2="268.54" y2="304.10"/><line x1="271.98" y1="295.48" x2="271.93" y2="296.94"/><line x1="270.42" y1="286.00" x2="299.29" y2="282.19"/><line x1="240.07" y1="204.04" x2="240.97" y2="203.89"/><line x1="265.42" y1="305.56" x2="267.59" y2="330.36"/><line x1="236.91" y1="316.97" x2="245.38" y2="301.24"/><line x1="218.33" y1="312.78" x2="217.31" y2="313.07"/><line x1="239.45" y1="216.32" x2="235.50" y2="207.66"/><line x1="299.29" y1="282.19" x2="270.75" y2="287.29"/><line x1="262.77" y1="305.99" x2="261.27" y2="306.04"/><line x1="273.10" y1="331.62" x2="272.43" y2="331.47"/><line x1="298.97" y1="317.38" x2="297.03" y2="320.11"/><line x1="239.45" y1="216.32" x2="240.07" y2="204.04"/><line x1="268.54" y1="304.10" x2="274.31" y2="331.80"/><line x1="224.17" y1="246.56" x2="200.84" y2="217.97"/><line x1="245.38" y1="301.24" x2="235.05" y2="315.46"/><line x1="221.77" y1="270.04" x2="202.06" y2="276.25"/><line x1="480.00" y1="32.02" x2="480.00" y2="64.50"/><line x1="240.67" y1="245.63" x2="240.18" y2="245.15"/><line x1="299.53" y1="280.34" x2="299.41" y2="280.65"/><line x1="301.28" y1="278.84" x2="262.73" y2="266.72"/><line x1="283.17" y1="234.70" x2="282.54" y2="233.92"/><line x1="198.23" y1="281.57" x2="197.80" y2="281.47"/><line x1="297.03" y1="320.11" x2="270.05" y2="302.60"/><line x1="249.39" y1="324.59" x2="247.17" y2="323.50"/><line x1="264.42" y1="330.12" x2="263.41" y2="329.94"/><line x1="225.54" y1="305.49" x2="223.39" y2="275.60"/><line x1="194.18" y1="259.66" x2="194.60" y2="261.06"/><line x1="480.00" y1="479.91" x2="480.00" y2="447.42"/><line x1="199.72" y1="272.96" x2="200.33" y2="273.91"/><line x1="262.73" y1="266.72" x2="300.95" y2="278.95"/><line x1="249.23" y1="204.47" x2="248.26" y2="204.19"/><line x1="271.50" y1="290.77" x2="299.93" y2="285.19"/><line x1="266.58" y1="305.18" x2="267.96" y2="330.41"/><line x1="225.54" y1="305.49" x2="225.03" y2="306.54"/><line x1="220.27" y1="253.61" x2="192.42" y2="251.86"/><line x1="263.41" y1="329.94" x2="262.38" y2="329.72"/><line x1="241.31" y1="298.10" x2="228.38" y2="308.98"/><line x1="327.75" y1="279.06" x2="328.39" y2="277.87"/><line x1="238.55" y1="243.89" x2="238.23" y2="243.74"/><line x1="300.35" y1="279.30" x2="265.67" y2="272.00"/><line x1="210.64" y1="313.16" x2="209.55" y2="312.93"/><line x1="299.93" y1="285.19" x2="271.68" y2="291.83"/><line x1="286.95" y1="328.89" x2="268.54" y2="304.10"/><line x1="193.13" y1="232.57" x2="223.31" y2="247.41"/><line x1="228.38" y1="308.98" x2="239.33" y2="296.23"/><line x1="328.39" y1="277.87" x2="328.01" y2="277.48"/><line x1="447.51" y1="479.91" x2="480.00" y2="447.42"/><line x1="257.31" y1="209.35" x2="256.45" y2="208.62"/><line x1="278.00" y1="229.33" x2="272.73" y2="224.71"/><line x1="196.03" y1="280.70" x2="195.57" y2="280.41"/><line x1="239.45" y1="216.32" x2="236.78" y2="205.40"/><line x1="268.54" y1="304.10" x2="284.18" y2="330.19"/><line x1="224.91" y1="246.13" x2="215.55" y2="211.97"/><line x1="223.31" y1="247.41" x2="192.44" y2="236.55"/><line x1="221.77" y1="270.04" x2="199.12" y2="271.93"/><line x1="224.17" y1="246.56" x2="194.11" y2="228.95"/><line x1="320.41" y1="294.71" x2="320.88" y2="295.24"/><line x1="255.28" y1="263.31" x2="255.99" y2="263.62"/><line x1="221.77" y1="270.04" x2="218.39" y2="259.30"/><line x1="272.73" y1="224.71" x2="243.67" y2="249.33"/><line x1="265.09" y1="270.68" x2="265.67" y2="272.00"/><line x1="220.71" y1="252.42" x2="220.27" y2="253.61"/><line x1="264.15" y1="305.82" x2="264.42" y2="330.12"/><line x1="227.87" y1="245.25" x2="227.09" y2="245.44"/><line x1="224.59" y1="246.29" x2="203.22" y2="216.08"/><line x1="261.27" y1="306.04" x2="256.77" y2="327.86"/><line x1="225.54" y1="305.49" x2="224.92" y2="278.80"/><line x1="225.54" y1="305.49" x2="222.31" y2="272.09"/><line x1="326.06" y1="275.01" x2="325.66" y2="274.41"/><line x1="251.99" y1="261.24" x2="251.37" y2="260.70"/><line x1="299.68" y1="280.05" x2="299.53" y2="280.34"/><line x1="200.91" y1="281.11" x2="202.87" y2="310.10"/><line x1="301.32" y1="290.45" x2="271.98" y2="295.48"/><line x1="225.54" y1="305.49" x2="202.25" y2="279.51"/><line x1="227.09" y1="245.44" x2="226.41" y2="245.62"/><line x1="243.33" y1="299.77" x2="241.31" y2="298.10"/><line x1="191.88" y1="245.53" x2="221.59" y2="250.35"/><line x1="218.87" y1="257.73" x2="193.79" y2="258.28"/><line x1="231.75" y1="286.81" x2="226.10" y2="280.03"/><line x1="325.66" y1="274.41" x2="322.37" y2="269.64"/><line x1="267.45" y1="276.71" x2="268.04" y2="278.52"/><line x1="269.35" y1="303.40" x2="286.95" y2="328.89"/><line x1="256.44" y1="305.65" x2="254.11" y2="305.16"/><line x1="221.59" y1="250.35" x2="221.16" y2="251.34"/><line x1="318.43" y1="291.85" x2="318.22" y2="291.44"/><line x1="250.17" y1="259.48" x2="259.10" y2="264.59"/><line x1="200.25" y1="281.46" x2="196.07" y2="305.09"/><line x1="241.18" y1="246.16" x2="240.67" y2="245.63"/><line x1="241.95" y1="203.78" x2="243.01" y2="203.71"/><line x1="239.45" y1="216.32" x2="235.59" y2="207.14"/><line x1="262.77" y1="305.99" x2="257.96" y2="328.32"/><line x1="224.91" y1="246.13" x2="221.94" y2="212.29"/><line x1="192.12" y1="249.57" x2="192.26" y2="250.70"/><line x1="318.22" y1="291.44" x2="318.02" y2="291.05"/><line x1="221.77" y1="270.04" x2="201.50" y2="275.56"/><line x1="303.97" y1="255.50" x2="302.70" y2="254.27"/><line x1="269.54" y1="330.73" x2="268.94" y2="330.59"/><line x1="221.94" y1="212.29" x2="221.08" y2="212.08"/><line x1="264.15" y1="305.82" x2="262.77" y2="305.99"/><line x1="225.54" y1="305.49" x2="233.58" y2="289.47"/><line x1="324.26" y1="286.46" x2="304.38" y2="279.60"/><line x1="225.54" y1="305.49" x2="223.66" y2="276.36"/><line x1="267.85" y1="220.48" x2="242.18" y2="247.33"/><line x1="302.70" y1="254.27" x2="301.31" y2="252.96"/><line x1="480.00" y1="479.91" x2="447.51" y2="479.91"/><line x1="269.60" y1="283.22" x2="270.03" y2="284.65"/><line x1="225.54" y1="305.49" x2="203.16" y2="277.39"/><line x1="200.91" y1="281.11" x2="200.59" y2="281.31"/><line x1="192.01" y1="240.87" x2="191.88" y2="245.53"/><line x1="266.58" y1="305.18" x2="268.41" y2="330.48"/><line x1="249.63" y1="303.59" x2="238.85" y2="318.42"/><line x1="220.27" y1="253.61" x2="192.26" y2="250.70"/><line x1="238.55" y1="243.89" x2="257.31" y2="209.35"/><line x1="300.35" y1="279.30" x2="265.09" y2="270.68"/><line x1="237.28" y1="205.05" x2="237.85" y2="204.73"/><line x1="208.82" y1="213.35" x2="205.88" y2="214.54"/><line x1="257.96" y1="328.32" x2="261.27" y2="306.04"/><line x1="306.96" y1="281.50" x2="305.99" y2="280.75"/><line x1="261.60" y1="265.54" x2="262.16" y2="266.06"/><line x1="192.23" y1="301.94" x2="191.31" y2="301.13"/><line x1="225.32" y1="245.97" x2="224.91" y2="246.13"/><line x1="236.28" y1="243.87" x2="234.74" y2="244.08"/><line x1="271.96" y1="294.65" x2="301.32" y2="290.45"/><line x1="267.28" y1="330.34" x2="266.36" y2="330.32"/><line x1="241.69" y1="246.72" x2="241.18" y2="246.16"/><line x1="224.91" y1="246.13" x2="219.33" y2="211.80"/><line x1="193.13" y1="255.62" x2="193.44" y2="256.93"/><line x1="221.77" y1="270.04" x2="197.90" y2="269.62"/><line x1="255.28" y1="263.31" x2="251.99" y2="261.24"/><line x1="271.05" y1="288.51" x2="271.29" y2="289.67"/><line x1="238.32" y1="218.01" x2="225.35" y2="213.31"/><line x1="220.71" y1="252.42" x2="192.12" y2="249.57"/><line x1="264.15" y1="305.82" x2="265.40" y2="330.24"/><line x1="274.31" y1="331.80" x2="273.73" y2="331.72"/><line x1="324.26" y1="286.46" x2="317.28" y2="289.83"/><line x1="233.26" y1="313.90" x2="231.55" y2="312.30"/><line x1="225.54" y1="305.49" x2="225.29" y2="279.27"/><line x1="244.15" y1="250.07" x2="272.73" y2="224.71"/><line x1="225.54" y1="305.49" x2="222.58" y2="273.05"/><line x1="267.85" y1="220.48" x2="262.49" y2="214.82"/><line x1="299.42" y1="282.95" x2="299.63" y2="283.94"/><line x1="299.68" y1="280.05" x2="267.45" y2="276.71"/><line x1="294.74" y1="322.76" x2="292.22" y2="325.17"/><line x1="273.73" y1="331.72" x2="273.10" y2="331.62"/><line x1="243.33" y1="299.77" x2="229.93" y2="310.66"/><line x1="201.75" y1="280.29" x2="201.49" y2="280.61"/><line x1="267.45" y1="276.71" x2="299.53" y2="280.34"/><line x1="230.80" y1="244.68" x2="229.71" y2="244.88"/><line x1="269.35" y1="303.40" x2="289.63" y2="327.21"/><line x1="271.77" y1="298.28" x2="303.01" y2="298.02"/><line x1="256.44" y1="305.65" x2="249.39" y2="324.59"/><line x1="254.59" y1="262.97" x2="252.62" y2="261.74"/><line x1="263.90" y1="268.44" x2="264.49" y2="269.50"/><line x1="250.17" y1="259.48" x2="258.28" y2="264.39"/><line x1="201.22" y1="280.88" x2="210.64" y2="313.16"/><line x1="200.25" y1="281.46" x2="197.07" y2="305.87"/><line x1="303.01" y1="298.02" x2="303.22" y2="299.62"/><line x1="236.28" y1="243.87" x2="237.95" y2="243.65"/><line x1="262.77" y1="305.99" x2="259.11" y2="328.74"/><line x1="270.21" y1="330.90" x2="269.54" y2="330.73"/><line x1="192.44" y1="236.55" x2="192.01" y2="240.87"/><line x1="192.12" y1="249.57" x2="220.27" y2="253.61"/><line x1="223.94" y1="277.05" x2="223.66" y2="276.36"/><line x1="258.28" y1="264.39" x2="259.10" y2="264.59"/><line x1="271.81" y1="292.82" x2="271.91" y2="293.77"/><line x1="299.32" y1="280.98" x2="269.60" y2="283.22"/><line x1="236.78" y1="205.40" x2="237.28" y2="205.05"/><line x1="222.88" y1="247.99" x2="222.45" y2="248.67"/><line x1="324.26" y1="286.46" x2="318.22" y2="291.44"/><line x1="269.54" y1="330.73" x2="266.58" y2="305.18"/><line x1="225.54" y1="305.49" x2="235.46" y2="291.91"/><line x1="324.26" y1="286.46" x2="305.13" y2="280.12"/><line x1="244.15" y1="250.07" x2="281.16" y2="232.38"/><line x1="317.12" y1="289.60" x2="306.96" y2="281.50"/><line x1="225.54" y1="305.49" x2="223.94" y2="277.05"/><line x1="267.85" y1="220.48" x2="242.68" y2="247.95"/><line x1="222.54" y1="310.04" x2="221.81" y2="310.74"/><line x1="269.60" y1="283.22" x2="299.27" y2="281.33"/><line x1="233.58" y1="289.47" x2="231.75" y2="286.81"/><line x1="225.35" y1="213.31" x2="225.32" y2="245.97"/><line x1="271.12" y1="300.66" x2="302.68" y2="308.68"/><line x1="212.04" y1="212.48" x2="208.82" y2="213.35"/><line x1="250.17" y1="259.48" x2="285.25" y2="237.61"/><line x1="249.63" y1="303.59" x2="240.84" y2="319.80"/><line x1="302.45" y1="278.68" x2="261.60" y2="265.54"/><line x1="271.93" y1="296.94" x2="271.77" y2="298.28"/><line x1="193.17" y1="302.73" x2="192.23" y2="301.94"/><line x1="267.61" y1="304.70" x2="270.95" y2="331.10"/><line x1="302.68" y1="308.68" x2="301.80" y2="311.66"/><line x1="202.00" y1="279.92" x2="201.75" y2="280.29"/><line x1="192.86" y1="254.33" x2="193.13" y2="255.62"/><line x1="222.04" y1="271.09" x2="221.77" y2="270.04"/><line x1="262.49" y1="214.82" x2="239.30" y2="244.39"/><line x1="201.22" y1="280.88" x2="216.23" y2="313.29"/><line x1="261.60" y1="265.54" x2="302.03" y2="278.69"/><line x1="251.67" y1="325.60" x2="256.44" y2="305.65"/><line x1="250.17" y1="259.48" x2="302.77" y2="278.74"/><line x1="201.22" y1="280.88" x2="206.26" y2="311.84"/><line x1="236.28" y1="243.87" x2="238.32" y2="218.01"/><line x1="254.11" y1="305.16" x2="251.84" y2="304.47"/><line x1="267.28" y1="330.34" x2="264.15" y2="305.82"/><line x1="299.41" y1="280.65" x2="299.32" y2="280.98"/><line x1="300.95" y1="278.95" x2="263.90" y2="268.44"/><line x1="216.23" y1="313.29" x2="215.09" y2="313.41"/><line x1="191.31" y1="301.13" x2="184.73" y2="295.24"/><line x1="252.92" y1="206.15" x2="252.01" y2="205.66"/><line x1="271.05" y1="288.51" x2="299.42" y2="282.95"/><line x1="224.24" y1="277.70" x2="223.94" y2="277.05"/><line x1="324.26" y1="286.46" x2="319.60" y2="293.70"/><line x1="198.73" y1="220.19" x2="196.92" y2="222.76"/><line x1="324.26" y1="286.46" x2="317.45" y2="290.09"/><line x1="233.26" y1="313.90" x2="243.33" y2="299.77"/><line x1="197.90" y1="269.62" x2="197.31" y2="268.35"/><line x1="324.26" y1="286.46" x2="324.80" y2="285.20"/><line x1="244.15" y1="250.07" x2="278.00" y2="229.33"/><line x1="199.89" y1="281.56" x2="199.50" y2="281.62"/><line x1="267.85" y1="220.48" x2="240.67" y2="245.63"/><line x1="271.50" y1="299.53" x2="271.12" y2="300.66"/><line x1="271.68" y1="291.83" x2="271.81" y2="292.82"/><line x1="197.36" y1="281.33" x2="196.92" y2="281.16"/><line x1="294.74" y1="322.76" x2="269.35" y2="303.40"/><line x1="250.17" y1="259.48" x2="301.31" y2="252.96"/><line x1="261.32" y1="329.43" x2="260.23" y2="329.11"/><line x1="238.91" y1="244.11" x2="238.55" y2="243.89"/><line x1="195.07" y1="262.50" x2="195.62" y2="264.07"/><line x1="250.17" y1="259.48" x2="244.15" y2="250.07"/><line x1="200.91" y1="274.78" x2="201.50" y2="275.56"/><line x1="188.49" y1="286.46" x2="192.24" y2="277.87"/><line x1="242.90" y1="321.11" x2="249.63" y2="303.59"/><line x1="281.16" y1="232.38" x2="280.43" y2="231.60"/><line x1="300.31" y1="286.70" x2="300.77" y2="288.45"/><line x1="254.59" y1="262.97" x2="253.92" y2="262.60"/><line x1="201.22" y1="280.88" x2="221.02" y2="311.37"/><line x1="265.67" y1="272.00" x2="266.27" y2="273.44"/><line x1="208.45" y1="312.63" x2="207.36" y2="312.27"/><line x1="201.22" y1="280.88" x2="211.72" y2="313.32"/><line x1="246.25" y1="203.82" x2="245.21" y2="203.73"/><line x1="285.25" y1="237.61" x2="284.80" y2="236.92"/><line x1="192.44" y1="236.55" x2="222.88" y2="247.99"/><line x1="327.63" y1="277.05" x2="327.25" y2="276.60"/><line x1="267.59" y1="330.36" x2="267.28" y2="330.34"/><line x1="191.31" y1="301.13" x2="197.80" y2="281.47"/><line x1="300.10" y1="279.53" x2="299.87" y2="279.78"/><line x1="270.64" y1="301.68" x2="270.05" y2="302.60"/><line x1="324.26" y1="286.46" x2="318.43" y2="291.85"/><line x1="253.81" y1="206.70" x2="252.92" y2="206.15"/><line x1="237.95" y1="243.65" x2="244.15" y2="203.69"/><line x1="324.26" y1="286.46" x2="305.99" y2="280.75"/><line x1="244.15" y1="250.07" x2="281.87" y2="233.15"/><line x1="255.99" y1="263.62" x2="256.72" y2="263.90"/><line x1="267.85" y1="220.48" x2="243.18" y2="248.62"/><line x1="250.17" y1="259.48" x2="328.01" y2="277.48"/><line x1="301.87" y1="292.52" x2="302.34" y2="294.47"/><line x1="324.80" y1="285.20" x2="325.36" y2="283.95"/><line x1="225.35" y1="213.31" x2="225.82" y2="245.79"/><line x1="250.17" y1="259.48" x2="307.09" y2="258.78"/><line x1="250.17" y1="259.48" x2="285.63" y2="238.27"/><line x1="319.60" y1="293.70" x2="319.25" y2="293.21"/><line x1="251.37" y1="260.70" x2="250.76" y2="260.11"/><line x1="188.49" y1="286.46" x2="195.08" y2="280.08"/><line x1="235.59" y1="207.14" x2="235.77" y2="206.65"/><line x1="270.75" y1="287.29" x2="271.05" y2="288.51"/><line x1="267.61" y1="304.70" x2="271.71" y2="331.30"/><line x1="281.87" y1="233.15" x2="281.16" y2="232.38"/><line x1="191.89" y1="246.48" x2="191.94" y2="247.46"/><line x1="302.77" y1="278.74" x2="324.26" y2="286.46"/><line x1="201.22" y1="280.88" x2="224.48" y2="307.52"/><line x1="307.89" y1="259.72" x2="307.09" y2="258.78"/><line x1="480.00" y1="64.50" x2="447.51" y2="32.02"/><line x1="262.49" y1="214.82" x2="239.72" y2="244.74"/><line x1="268.04" y1="278.52" x2="268.61" y2="280.16"/><line x1="201.22" y1="280.88" x2="217.31" y2="313.07"/><line x1="201.22" y1="280.88" x2="207.36" y2="312.27"/><line x1="254.11" y1="305.16" x2="245.00" y2="322.34"/><line x1="247.27" y1="203.97" x2="246.25" y2="203.82"/><line x1="196.07" y1="305.09" x2="195.08" y2="304.31"/><line x1="300.95" y1="278.95" x2="263.31" y2="267.51"/><line x1="191.31" y1="301.13" x2="188.49" y2="286.46"/><line x1="303.35" y1="301.09" x2="303.39" y2="302.45"/><line x1="328.01" y1="277.48" x2="327.63" y2="277.05"/><line x1="324.26" y1="286.46" x2="319.99" y2="294.20"/><line x1="237.95" y1="243.65" x2="249.23" y2="204.47"/><line x1="324.26" y1="286.46" x2="317.63" y2="290.38"/><line x1="199.89" y1="281.56" x2="194.12" y2="303.53"/><line x1="250.17" y1="259.48" x2="325.93" y2="282.71"/><line x1="271.68" y1="291.83" x2="300.31" y2="286.70"/><line x1="225.35" y1="213.31" x2="228.74" y2="245.07"/><line x1="250.17" y1="259.48" x2="326.46" y2="275.57"/><line x1="243.67" y1="249.33" x2="267.85" y2="220.48"/><line x1="192.42" y1="251.86" x2="192.63" y2="253.08"/><line x1="250.17" y1="259.48" x2="302.70" y2="254.27"/><line x1="261.32" y1="329.43" x2="262.77" y2="305.99"/><line x1="250.17" y1="259.48" x2="283.76" y2="235.47"/><line x1="188.49" y1="286.46" x2="192.86" y2="278.39"/><line x1="238.85" y1="318.42" x2="236.91" y2="316.97"/><line x1="267.61" y1="304.70" x2="266.58" y2="305.18"/><line x1="226.92" y1="307.26" x2="225.54" y2="305.49"/><line x1="262.16" y1="266.06" x2="262.73" y2="266.72"/><line x1="221.16" y1="251.34" x2="220.71" y2="252.42"/><line x1="201.22" y1="280.88" x2="221.81" y2="310.74"/><line x1="199.08" y1="281.64" x2="198.66" y2="281.63"/><line x1="265.67" y1="272.00" x2="300.10" y2="279.53"/><line x1="201.22" y1="280.88" x2="212.80" y2="313.43"/><line x1="195.08" y1="280.08" x2="194.57" y2="279.72"/><line x1="247.48" y1="302.51" x2="245.38" y2="301.24"/><line x1="283.76" y1="235.47" x2="283.17" y2="234.70"/><line x1="202.94" y1="277.99" x2="202.72" y2="278.54"/><line x1="191.31" y1="301.13" x2="198.23" y2="281.57"/><line x1="240.97" y1="203.89" x2="241.95" y2="203.78"/><line x1="235.05" y1="315.46" x2="233.26" y2="313.90"/><line x1="226.41" y1="245.62" x2="225.82" y2="245.79"/><line x1="237.95" y1="243.65" x2="253.81" y2="206.70"/><line x1="255.55" y1="327.36" x2="254.29" y2="326.82"/><line x1="197.80" y1="281.47" x2="197.36" y2="281.33"/><line x1="237.95" y1="243.65" x2="245.21" y2="203.73"/><line x1="270.05" y1="302.60" x2="294.74" y2="322.76"/><line x1="255.99" y1="263.62" x2="251.37" y2="260.70"/><line x1="196.48" y1="280.95" x2="196.03" y2="280.70"/><line x1="201.70" y1="309.35" x2="200.51" y2="308.52"/><line x1="225.35" y1="213.31" x2="231.99" y2="244.48"/><line x1="250.17" y1="259.48" x2="328.39" y2="277.87"/><line x1="200.33" y1="273.91" x2="200.91" y2="274.78"/><line x1="225.35" y1="213.31" x2="226.41" y2="245.62"/><line x1="250.17" y1="259.48" x2="307.89" y2="259.72"/><line x1="250.17" y1="259.48" x2="285.98" y2="238.90"/><line x1="225.68" y1="279.68" x2="225.29" y2="279.27"/><line x1="262.38" y1="329.72" x2="261.32" y2="329.43"/><line x1="188.49" y1="286.46" x2="195.57" y2="280.41"/><line x1="235.59" y1="207.14" x2="235.50" y2="207.66"/><line x1="194.11" y1="228.95" x2="193.13" y2="232.57"/><line x1="267.61" y1="304.70" x2="272.43" y2="331.47"/><line x1="209.55" y1="312.93" x2="208.45" y2="312.63"/><line x1="201.22" y1="280.88" x2="225.03" y2="306.54"/><line x1="218.39" y1="259.30" x2="195.07" y2="262.50"/><line x1="300.77" y1="288.45" x2="301.32" y2="290.45"/><line x1="239.33" y1="296.23" x2="226.92" y2="307.26"/><line x1="221.08" y1="212.08" x2="220.36" y2="211.92"/><line x1="254.11" y1="305.16" x2="247.17" y2="323.50"/><line x1="195.57" y1="280.41" x2="195.08" y2="280.08"/><line x1="284.18" y1="330.19" x2="281.33" y2="331.12"/><line x1="196.07" y1="305.09" x2="199.89" y2="281.56"/><line x1="303.35" y1="301.09" x2="271.50" y2="299.53"/><line x1="237.95" y1="243.65" x2="250.18" y2="204.80"/><line x1="223.39" y1="275.60" x2="223.12" y2="274.80"/><line x1="256.77" y1="327.86" x2="255.55" y2="327.36"/><line x1="270.03" y1="284.65" x2="270.42" y2="286.00"/><line x1="319.99" y1="294.20" x2="319.60" y2="293.70"/><line x1="250.17" y1="259.48" x2="325.36" y2="283.95"/><line x1="237.85" y1="204.73" x2="238.51" y2="204.46"/><line x1="258.82" y1="305.94" x2="256.44" y2="305.65"/><line x1="250.17" y1="259.48" x2="326.86" y2="276.10"/><line x1="268.94" y1="330.59" x2="268.41" y2="330.48"/><line x1="202.87" y1="310.10" x2="201.70" y2="309.35"/><line x1="271.98" y1="295.48" x2="301.87" y2="292.52"/><line x1="32.16" y1="32.09" x2="32.16" y2="64.58"/><line x1="221.02" y1="311.37" x2="220.19" y2="311.92"/><line x1="237.95" y1="243.65" x2="243.01" y2="203.71"/><line x1="226.10" y1="280.03" x2="225.68" y2="279.68"/><line x1="188.49" y1="286.46" x2="193.46" y2="278.87"/><line x1="300.56" y1="314.57" x2="298.97" y2="317.38"/><line x1="322.37" y1="269.64" x2="307.89" y2="259.72"/><line x1="238.85" y1="318.42" x2="247.48" y2="302.51"/><line x1="198.50" y1="270.81" x2="199.12" y2="271.93"/><line x1="273.10" y1="331.62" x2="267.61" y2="304.70"/><line x1="239.45" y1="216.32" x2="239.25" y2="204.23"/><line x1="218.39" y1="259.30" x2="218.87" y2="257.73"/><line x1="262.16" y1="266.06" x2="301.28" y2="278.84"/><line x1="268.54" y1="304.10" x2="274.86" y2="331.85"/><line x1="221.16" y1="251.34" x2="191.89" y2="246.48"/><line x1="199.08" y1="281.64" x2="191.31" y2="301.13"/><line x1="201.49" y1="280.61" x2="201.22" y2="280.88"/><line x1="240.67" y1="245.63" x2="262.49" y2="214.82"/><line x1="299.53" y1="280.34" x2="268.04" y2="278.52"/><line x1="249.39" y1="324.59" x2="254.11" y2="305.16"/><line x1="271.29" y1="289.67" x2="271.50" y2="290.77"/><line x1="318.02" y1="291.05" x2="317.82" y2="290.70"/><line x1="197.07" y1="305.87" x2="196.07" y2="305.09"/><line x1="250.17" y1="259.48" x2="324.26" y2="286.46"/><line x1="237.95" y1="243.65" x2="254.70" y2="207.30"/><line x1="237.95" y1="243.65" x2="246.25" y2="203.82"/><line x1="225.54" y1="305.49" x2="201.22" y2="280.88"/><line x1="250.17" y1="259.48" x2="327.75" y2="279.06"/><line x1="301.31" y1="252.96" x2="299.81" y2="251.58"/><line x1="299.27" y1="281.33" x2="299.25" y2="281.69"/><line x1="300.63" y1="279.11" x2="300.35" y2="279.30"/><line x1="192.26" y1="250.70" x2="192.42" y2="251.86"/><line x1="257.31" y1="209.35" x2="238.23" y2="243.74"/><line x1="239.45" y1="216.32" x2="236.36" y2="205.78"/><line x1="259.10" y1="264.59" x2="259.94" y2="264.76"/><line x1="239.45" y1="216.32" x2="238.32" y2="218.01"/><line x1="300.77" y1="288.45" x2="271.96" y2="294.65"/><line x1="268.54" y1="304.10" x2="267.61" y2="304.70"/><line x1="224.17" y1="246.56" x2="195.38" y2="225.68"/><line x1="228.74" y1="245.07" x2="227.87" y2="245.25"/><line x1="302.03" y1="278.69" x2="301.64" y2="278.75"/><line x1="221.77" y1="270.04" x2="203.16" y2="277.39"/><line x1="219.34" y1="256.26" x2="218.87" y2="257.73"/><line x1="218.39" y1="259.30" x2="194.60" y2="261.06"/><line x1="305.99" y1="280.75" x2="305.13" y2="280.12"/><line x1="224.59" y1="246.29" x2="205.88" y2="214.54"/><line x1="284.31" y1="236.21" x2="283.76" y2="235.47"/><line x1="251.99" y1="261.24" x2="255.99" y2="263.62"/><line x1="234.74" y1="244.08" x2="233.31" y2="244.28"/><line x1="237.95" y1="243.65" x2="251.11" y2="205.20"/><line x1="225.54" y1="305.49" x2="202.49" y2="279.05"/><line x1="299.87" y1="279.78" x2="299.68" y2="280.05"/><line x1="218.87" y1="257.73" x2="193.44" y2="256.93"/><line x1="32.00" y1="479.98" x2="64.49" y2="479.98"/><line x1="258.82" y1="305.94" x2="251.67" y2="325.60"/><line x1="252.01" y1="205.66" x2="251.11" y2="205.20"/><line x1="200.59" y1="281.31" x2="200.25" y2="281.46"/><line x1="239.45" y1="216.32" x2="238.51" y2="204.46"/><line x1="268.54" y1="304.10" x2="275.37" y2="331.86"/><line x1="224.91" y1="246.13" x2="224.59" y2="246.29"/><line x1="221.77" y1="270.04" x2="200.91" y2="274.78"/><line x1="303.22" y1="299.62" x2="303.35" y2="301.09"/><line x1="264.15" y1="305.82" x2="261.32" y2="329.43"/><line x1="213.88" y1="313.46" x2="212.80" y2="313.43"/><line x1="261.27" y1="306.04" x2="258.82" y2="305.94"/><line x1="223.66" y1="276.36" x2="223.39" y2="275.60"/><line x1="200.91" y1="281.11" x2="199.31" y2="307.62"/><line x1="192.01" y1="240.87" x2="222.02" y2="249.46"/><line x1="266.58" y1="305.18" x2="268.94" y2="330.59"/><line x1="225.54" y1="305.49" x2="201.49" y2="280.61"/><line x1="196.48" y1="280.95" x2="188.49" y2="286.46"/><line x1="221.81" y1="310.74" x2="221.02" y2="311.37"/><line x1="299.27" y1="281.33" x2="270.03" y2="284.65"/><line x1="202.06" y1="276.25" x2="202.62" y2="276.86"/><line x1="208.82" y1="213.35" x2="224.59" y2="246.29"/><line x1="194.12" y1="303.53" x2="193.17" y2="302.73"/><line x1="240.84" y1="319.80" x2="238.85" y2="318.42"/><line x1="265.42" y1="305.56" x2="264.15" y2="305.82"/><line x1="284.80" y1="236.92" x2="284.31" y2="236.21"/><line x1="192.63" y1="253.08" x2="192.86" y2="254.33"/><line x1="192.23" y1="301.94" x2="199.08" y2="281.64"/><line x1="225.32" y1="245.97" x2="222.93" y2="212.57"/><line x1="301.80" y1="311.66" x2="300.56" y2="314.57"/><line x1="239.45" y1="216.32" x2="236.02" y2="206.20"/><line x1="299.29" y1="282.19" x2="299.42" y2="282.95"/><line x1="206.26" y1="311.84" x2="205.15" y2="311.34"/><line x1="224.91" y1="246.13" x2="219.78" y2="211.84"/><line x1="239.45" y1="216.32" x2="236.28" y2="243.87"/><line x1="193.13" y1="255.62" x2="218.87" y2="257.73"/><line x1="268.54" y1="304.10" x2="273.10" y2="331.62"/><line x1="221.77" y1="270.04" x2="198.50" y2="270.81"/><line x1="199.31" y1="307.62" x2="198.08" y2="306.62"/><line x1="224.17" y1="246.56" x2="196.92" y2="222.76"/><line x1="302.03" y1="278.69" x2="262.16" y2="266.06"/><line x1="245.38" y1="301.24" x2="243.33" y2="299.77"/><line x1="221.77" y1="270.04" x2="197.31" y2="268.35"/><line x1="237.38" y1="294.18" x2="235.46" y2="291.91"/><line x1="238.32" y1="218.01" x2="234.74" y2="244.08"/><line x1="220.71" y1="252.42" x2="192.01" y2="248.49"/><line x1="264.15" y1="305.82" x2="266.36" y2="330.32"/><line x1="225.54" y1="305.49" x2="225.68" y2="279.68"/><line x1="325.36" y1="283.95" x2="325.93" y2="282.71"/><line x1="225.54" y1="305.49" x2="222.85" y2="273.95"/><line x1="215.09" y1="313.41" x2="213.88" y2="313.46"/><line x1="299.42" y1="282.95" x2="271.29" y2="289.67"/><line x1="234.74" y1="244.08" x2="225.35" y2="213.31"/><line x1="225.54" y1="305.49" x2="202.72" y2="278.54"/><line x1="202.49" y1="279.05" x2="202.25" y2="279.51"/><line x1="196.92" y1="222.76" x2="195.38" y2="225.68"/><line x1="243.33" y1="299.77" x2="231.55" y2="312.30"/><line x1="325.93" y1="282.71" x2="326.53" y2="281.48"/><line x1="32.00" y1="479.98" x2="32.00" y2="447.50"/><line x1="258.82" y1="305.94" x2="253.00" y2="326.23"/><line x1="196.92" y1="281.16" x2="196.48" y2="280.95"/><line x1="269.35" y1="303.40" x2="292.22" y2="325.17"/><line x1="250.76" y1="260.11" x2="250.17" y2="259.48"/><line x1="195.38" y1="225.68" x2="194.11" y2="228.95"/><line x1="195.62" y1="264.07" x2="196.17" y2="265.58"/><line x1="201.50" y1="275.56" x2="202.06" y2="276.25"/><line x1="280.43" y1="231.60" x2="279.65" y2="230.85"/><line x1="263.90" y1="268.44" x2="300.63" y2="279.11"/><line x1="224.92" y1="278.80" x2="224.57" y2="278.28"/><line x1="262.77" y1="305.99" x2="260.23" y2="329.11"/><line x1="196.17" y1="265.58" x2="196.74" y2="267.00"/><line x1="268.54" y1="304.10" x2="278.39" y2="331.68"/><line x1="224.91" y1="246.13" x2="208.82" y2="213.35"/><line x1="253.27" y1="262.19" x2="252.62" y2="261.74"/><line x1="221.77" y1="270.04" x2="200.33" y2="273.91"/><line x1="207.36" y1="312.27" x2="206.26" y2="311.84"/><line x1="245.00" y1="322.34" x2="242.90" y2="321.11"/><line x1="271.81" y1="292.82" x2="300.77" y2="288.45"/><line x1="245.21" y1="203.73" x2="244.15" y2="203.69"/><line x1="229.71" y1="244.88" x2="228.74" y2="245.07"/><line x1="222.88" y1="247.99" x2="192.01" y2="240.87"/><line x1="264.15" y1="305.82" x2="262.38" y2="329.72"/><line x1="225.54" y1="305.49" x2="237.38" y2="294.18"/><line x1="327.25" y1="276.60" x2="326.86" y2="276.10"/><line x1="261.27" y1="306.04" x2="254.29" y2="326.82"/><line x1="225.54" y1="305.49" x2="224.24" y2="277.70"/><line x1="266.27" y1="273.44" x2="266.86" y2="275.01"/><line x1="225.54" y1="305.49" x2="221.77" y2="270.04"/><line x1="194.57" y1="279.72" x2="194.02" y2="279.32"/><line x1="200.91" y1="281.11" x2="200.51" y2="308.52"/><line x1="302.77" y1="278.74" x2="302.45" y2="278.68"/><line x1="254.29" y1="326.82" x2="253.00" y2="326.23"/><line x1="192.01" y1="240.87" x2="222.45" y2="248.67"/><line x1="202.72" y1="278.54" x2="202.49" y2="279.05"/><line x1="191.88" y1="245.53" x2="191.89" y2="246.48"/><line x1="267.96" y1="330.41" x2="267.59" y2="330.36"/><line x1="243.18" y1="248.62" x2="242.68" y2="247.95"/><line x1="271.93" y1="296.94" x2="302.71" y2="296.30"/><line x1="194.02" y1="279.32" x2="193.46" y2="278.87"/><line x1="225.82" y1="245.79" x2="225.32" y2="245.97"/><line x1="271.77" y1="298.28" x2="271.50" y2="299.53"/><line x1="270.42" y1="286.00" x2="270.75" y2="287.29"/><line x1="319.25" y1="293.21" x2="318.93" y2="292.74"/><line x1="256.72" y1="263.90" x2="257.49" y2="264.16"/><line x1="236.91" y1="316.97" x2="235.05" y2="315.46"/><line x1="250.17" y1="259.48" x2="260.49" y2="264.89"/><line x1="225.32" y1="245.97" x2="224.07" y2="212.91"/><line x1="224.91" y1="246.13" x2="220.36" y2="211.92"/><line x1="307.09" y1="258.78" x2="306.16" y2="257.76"/><line x1="299.41" y1="280.65" x2="269.13" y2="281.72"/><line x1="199.31" y1="307.62" x2="200.59" y2="281.31"/><line x1="221.77" y1="270.04" x2="202.62" y2="276.86"/><line x1="301.28" y1="278.84" x2="300.95" y2="278.95"/><line x1="220.71" y1="252.42" x2="191.94" y2="247.46"/><line x1="225.54" y1="305.49" x2="226.10" y2="280.03"/><line x1="324.26" y1="286.46" x2="303.20" y2="278.91"/><line x1="244.15" y1="250.07" x2="278.84" y2="230.09"/><line x1="240.18" y1="245.15" x2="239.72" y2="244.74"/><line x1="263.31" y1="267.51" x2="263.90" y2="268.44"/><line x1="225.54" y1="305.49" x2="223.12" y2="274.80"/><line x1="271.50" y1="299.53" x2="303.21" y2="305.61"/><line x1="235.77" y1="206.65" x2="236.02" y2="206.20"/><line x1="267.85" y1="220.48" x2="241.18" y2="246.16"/><line x1="271.12" y1="300.66" x2="270.64" y2="301.68"/><line x1="271.50" y1="290.77" x2="271.68" y2="291.83"/><line x1="317.63" y1="290.38" x2="317.45" y2="290.09"/><line x1="260.49" y1="264.89" x2="261.04" y2="265.14"/><line x1="241.31" y1="298.10" x2="239.33" y2="296.23"/><line x1="300.31" y1="286.70" x2="271.81" y2="292.82"/><line x1="300.35" y1="279.30" x2="300.10" y2="279.53"/><line x1="219.81" y1="254.89" x2="219.34" y2="256.26"/><line x1="286.95" y1="328.89" x2="284.18" y2="330.19"/><line x1="254.59" y1="262.97" x2="253.27" y2="262.19"/><line x1="299.25" y1="281.69" x2="299.29" y2="282.19"/><line x1="262.49" y1="214.82" x2="257.31" y2="209.35"/><line x1="281.33" y1="331.12" x2="278.39" y2="331.68"/><line x1="201.22" y1="280.88" x2="200.91" y2="281.11"/><line x1="224.91" y1="246.13" x2="212.04" y2="212.48"/><line x1="253.27" y1="262.19" x2="253.92" y2="262.60"/><line x1="300.10" y1="279.53" x2="266.27" y2="273.44"/><line x1="221.77" y1="270.04" x2="199.72" y2="272.96"/><line x1="270.64" y1="301.68" x2="297.03" y2="320.11"/><line x1="320.41" y1="294.71" x2="319.99" y2="294.20"/><line x1="203.22" y1="216.08" x2="200.84" y2="217.97"/><line x1="278.39" y1="331.68" x2="275.37" y2="331.86"/><line x1="324.26" y1="286.46" x2="318.66" y2="292.29"/><line x1="324.26" y1="286.46" x2="306.96" y2="281.50"/><line x1="244.15" y1="250.07" x2="282.54" y2="233.92"/><line x1="225.54" y1="305.49" x2="224.57" y2="278.28"/><line x1="266.27" y1="273.44" x2="299.87" y2="279.78"/><line x1="301.87" y1="292.52" x2="271.93" y2="296.94"/><line x1="254.29" y1="326.82" x2="258.82" y2="305.94"/><line x1="251.37" y1="260.70" x2="256.72" y2="263.90"/><line x1="191.88" y1="245.53" x2="221.16" y2="251.34"/><line x1="200.51" y1="308.52" x2="199.31" y2="307.62"/><line x1="271.93" y1="296.94" x2="302.34" y2="294.47"/><line x1="191.89" y1="246.48" x2="220.71" y2="252.42"/><line x1="271.77" y1="298.28" x2="303.35" y2="301.09"/><line x1="225.29" y1="279.27" x2="224.92" y2="278.80"/><line x1="256.72" y1="263.90" x2="250.76" y2="260.11"/><line x1="262.49" y1="214.82" x2="240.18" y2="245.15"/><line x1="268.04" y1="278.52" x2="299.41" y2="280.65"/><line x1="201.22" y1="280.88" x2="218.33" y2="312.78"/><line x1="250.17" y1="259.48" x2="259.94" y2="264.76"/><line x1="201.22" y1="280.88" x2="208.45" y2="312.63"/><line x1="272.43" y1="331.47" x2="271.71" y2="331.30"/><line x1="200.25" y1="281.46" x2="199.89" y2="281.56"/><line x1="223.74" y1="246.94" x2="223.31" y2="247.41"/><line x1="317.82" y1="290.70" x2="317.63" y2="290.38"/><line x1="224.91" y1="246.13" x2="221.08" y2="212.08"/><line x1="225.03" y1="306.54" x2="224.48" y2="307.52"/><line x1="299.41" y1="280.65" x2="268.61" y2="280.16"/><line x1="191.31" y1="301.13" x2="196.48" y2="280.95"/><line x1="220.36" y1="211.92" x2="219.78" y2="211.84"/><line x1="324.26" y1="286.46" x2="320.88" y2="295.24"/><line x1="247.17" y1="323.50" x2="245.00" y2="322.34"/><line x1="197.31" y1="268.35" x2="218.39" y2="259.30"/><line x1="324.26" y1="286.46" x2="317.82" y2="290.70"/><line x1="299.81" y1="251.58" x2="286.28" y2="239.51"/><line x1="259.94" y1="264.76" x2="260.49" y2="264.89"/><line x1="225.54" y1="305.49" x2="231.75" y2="286.81"/><line x1="324.26" y1="286.46" x2="303.74" y2="279.20"/><line x1="199.89" y1="281.56" x2="195.08" y2="304.31"/><line x1="244.15" y1="250.07" x2="279.65" y2="230.85"/><line x1="267.85" y1="220.48" x2="241.69" y2="246.72"/><line x1="271.50" y1="299.53" x2="303.39" y2="302.45"/><line x1="225.35" y1="213.31" x2="229.71" y2="244.88"/><line x1="219.78" y1="211.84" x2="219.33" y2="211.80"/><line x1="192.42" y1="251.86" x2="219.81" y2="254.89"/><line x1="250.17" y1="259.48" x2="303.97" y2="255.50"/><line x1="271.12" y1="300.66" x2="300.56" y2="314.57"/><line x1="223.12" y1="274.80" x2="222.85" y2="273.95"/><line x1="250.17" y1="259.48" x2="284.31" y2="236.21"/><line x1="286.28" y1="239.51" x2="285.98" y2="238.90"/><line x1="260.49" y1="264.89" x2="302.77" y2="278.74"/><line x1="249.63" y1="303.59" x2="247.48" y2="302.51"/><line x1="238.23" y1="243.74" x2="256.45" y2="208.62"/><line x1="195.08" y1="304.31" x2="194.12" y2="303.53"/><line x1="238.51" y1="204.46" x2="239.25" y2="204.23"/><line x1="268.41" y1="330.48" x2="267.96" y2="330.41"/><line x1="267.61" y1="304.70" x2="269.54" y2="330.73"/><line x1="219.81" y1="254.89" x2="192.63" y2="253.08"/><line x1="305.13" y1="280.12" x2="304.38" y2="279.60"/><line x1="220.19" y1="311.92" x2="219.29" y2="312.39"/><line x1="257.96" y1="328.32" x2="256.77" y2="327.86"/><line x1="299.25" y1="281.69" x2="270.42" y2="286.00"/><line x1="201.22" y1="280.88" x2="222.54" y2="310.04"/><line x1="262.49" y1="214.82" x2="238.55" y2="243.89"/><line x1="239.25" y1="204.23" x2="240.07" y2="204.04"/><line x1="201.22" y1="280.88" x2="213.88" y2="313.46"/><line x1="302.77" y1="278.74" x2="303.20" y2="278.91"/><line x1="205.88" y1="214.54" x2="203.22" y2="216.08"/><line x1="256.45" y1="208.62" x2="255.58" y2="207.94"/><line x1="201.22" y1="280.88" x2="204.02" y2="310.76"/><line x1="247.48" y1="302.51" x2="236.91" y2="316.97"/><line x1="197.31" y1="268.35" x2="196.74" y2="267.00"/><line x1="271.96" y1="294.65" x2="271.98" y2="295.48"/><line x1="64.64" y1="32.09" x2="32.16" y2="64.58"/><line x1="304.38" y1="279.60" x2="303.74" y2="279.20"/><line x1="283.76" y1="235.47" x2="244.15" y2="250.07"/><line x1="219.29" y1="312.39" x2="218.33" y2="312.78"/><line x1="243.01" y1="203.71" x2="244.15" y2="203.69"/><line x1="191.31" y1="301.13" x2="198.66" y2="281.63"/><line x1="270.64" y1="301.68" x2="298.97" y2="317.38"/><line x1="203.22" y1="216.08" x2="224.17" y2="246.56"/><line x1="193.44" y1="256.93" x2="193.79" y2="258.28"/><line x1="324.26" y1="286.46" x2="318.93" y2="292.74"/><line x1="324.26" y1="286.46" x2="317.12" y2="289.60"/><line x1="244.15" y1="250.07" x2="283.17" y2="234.70"/><line x1="251.11" y1="205.20" x2="250.18" y2="204.80"/><line x1="299.63" y1="283.94" x2="299.93" y2="285.19"/><line x1="198.66" y1="281.63" x2="198.23" y2="281.57"/><line x1="244.15" y1="250.07" x2="243.67" y2="249.33"/><line x1="225.35" y1="213.31" x2="233.31" y2="244.28"/><line x1="265.40" y1="330.24" x2="264.42" y2="330.12"/><line x1="225.35" y1="213.31" x2="227.09" y2="245.44"/><line x1="250.17" y1="259.48" x2="322.37" y2="269.64"/><line x1="229.93" y1="310.66" x2="228.38" y2="308.98"/><line x1="193.79" y1="258.28" x2="194.18" y2="259.66"/><line x1="326.53" y1="281.48" x2="327.13" y2="280.27"/><line x1="199.12" y1="271.93" x2="199.72" y2="272.96"/><line x1="250.17" y1="259.48" x2="286.28" y2="239.51"/><line x1="212.80" y1="313.43" x2="211.72" y2="313.32"/><line x1="188.49" y1="286.46" x2="196.03" y2="280.70"/><line x1="250.18" y1="204.80" x2="249.23" y2="204.47"/><line x1="233.31" y1="244.28" x2="231.99" y2="244.48"/><line x1="194.11" y1="228.95" x2="223.74" y2="246.94"/><line x1="271.77" y1="298.28" x2="303.22" y2="299.62"/><line x1="202.62" y1="276.86" x2="203.16" y2="277.39"/><line x1="199.50" y1="281.62" x2="199.08" y2="281.64"/><line x1="327.13" y1="280.27" x2="327.75" y2="279.06"/><line x1="264.49" y1="269.50" x2="265.09" y2="270.68"/><line x1="211.72" y1="313.32" x2="210.64" y2="313.16"/><line x1="279.65" y1="230.85" x2="278.84" y2="230.09"/><line x1="254.59" y1="262.97" x2="255.28" y2="263.31"/><line x1="201.22" y1="280.88" x2="219.29" y2="312.39"/><line x1="223.74" y1="246.94" x2="193.13" y2="232.57"/><line x1="201.22" y1="280.88" x2="209.55" y2="312.93"/><line x1="278.84" y1="230.09" x2="278.00" y2="229.33"/><line x1="191.31" y1="301.13" x2="196.92" y2="281.16"/><line x1="299.32" y1="280.98" x2="299.27" y2="281.33"/><line x1="324.26" y1="286.46" x2="320.41" y2="294.71"/><line x1="252.62" y1="261.74" x2="251.99" y2="261.24"/><line x1="324.26" y1="286.46" x2="318.02" y2="291.05"/><line x1="204.02" y1="310.76" x2="202.87" y2="310.10"/><line x1="244.15" y1="250.07" x2="280.43" y2="231.60"/><line x1="270.03" y1="284.65" x2="299.25" y2="281.69"/><line x1="250.17" y1="259.48" x2="324.80" y2="285.20"/><line x1="222.02" y1="249.46" x2="221.59" y2="250.35"/><line x1="250.17" y1="259.48" x2="327.25" y2="276.60"/><line x1="225.35" y1="213.31" x2="224.07" y2="212.91"/><line x1="250.17" y1="259.48" x2="305.12" y2="256.67"/><line x1="271.12" y1="300.66" x2="301.80" y2="311.66"/><line x1="326.46" y1="275.57" x2="326.06" y2="275.01"/><line x1="32.16" y1="32.09" x2="64.64" y2="32.09"/><line x1="250.17" y1="259.48" x2="284.80" y2="236.92"/><line x1="266.86" y1="275.01" x2="267.45" y2="276.71"/><line x1="188.49" y1="286.46" x2="194.02" y2="279.32"/><line x1="300.56" y1="314.57" x2="270.64" y2="301.68"/><line x1="302.45" y1="278.68" x2="302.03" y2="278.69"/><line x1="267.61" y1="304.70" x2="270.21" y2="330.90"/><line x1="198.50" y1="270.81" x2="197.90" y2="269.62"/><line x1="242.18" y1="247.33" x2="241.69" y2="246.72"/><line x1="262.16" y1="266.06" x2="301.64" y2="278.75"/><line x1="302.71" y1="296.30" x2="303.01" y2="298.02"/><line x1="201.22" y1="280.88" x2="223.23" y2="309.27"/><line x1="218.39" y1="259.30" x2="196.74" y2="267.00"/><line x1="222.93" y1="212.57" x2="221.94" y2="212.29"/><line x1="262.49" y1="214.82" x2="238.91" y2="244.11"/><line x1="201.22" y1="280.88" x2="215.09" y2="313.41"/><line x1="251.67" y1="325.60" x2="249.39" y2="324.59"/><line x1="266.36" y1="330.32" x2="265.40" y2="330.24"/><line x1="201.22" y1="280.88" x2="205.15" y2="311.34"/><line x1="257.49" y1="264.16" x2="258.28" y2="264.39"/><line x1="198.08" y1="306.62" x2="197.07" y2="305.87"/><line x1="301.64" y1="278.75" x2="301.28" y2="278.84"/><line x1="271.29" y1="289.67" x2="299.63" y2="283.94"/><line x1="240.97" y1="203.89" x2="237.95" y2="243.65"/><line x1="300.95" y1="278.95" x2="300.63" y2="279.11"/><line x1="237.95" y1="243.65" x2="247.27" y2="203.97"/><line x1="237.95" y1="243.65" x2="255.58" y2="207.94"/><line x1="231.55" y1="312.30" x2="229.93" y2="310.66"/><line x1="324.26" y1="286.46" x2="319.25" y2="293.21"/><line x1="32.00" y1="447.50" x2="64.49" y2="479.98"/></g></svg>