<svg xmlns="http://www.w3.org/2000/svg" width="512" height="512"><rect width="512" height="512" fill="#0a0f1a"/><text x="12" y="20" font-family="monospace" font-size="11" fill="#4a7fa5">FRONT (XZ)</text><g stroke="#00d4ff" stroke-width="0.6" opacity="0.85"><line x1="249.75" y1="157.67" x2="242.66" y2="159.57"/><line x1="264.37" y1="181.25" x2="264.89" y2="182.39"/><line x1="276.52" y1="372.10" x2="290.30" y2="366.83"/><line x1="277.69" y1="208.23" x2="279.90" y2="212.14"/><line x1="201.58" y1="272.63" x2="222.33" y2="290.70"/><line x1="262.08" y1="273.65" x2="239.59" y2="277.01"/><line x1="238.45" y1="276.10" x2="250.69" y2="250.50"/><line x1="301.03" y1="277.74" x2="299.15" y2="243.56"/><line x1="240.46" y1="171.81" x2="257.77" y2="166.62"/><line x1="293.55" y1="418.26" x2="294.71" y2="420.04"/><line x1="222.33" y1="290.70" x2="224.03" y2="289.13"/><line x1="226.30" y1="235.17" x2="227.65" y2="234.66"/><line x1="316.38" y1="266.23" x2="305.02" y2="280.42"/><line x1="266.70" y1="340.38" x2="267.43" y2="342.31"/><line x1="257.77" y1="166.62" x2="240.86" y2="173.92"/><line x1="270.13" y1="265.49" x2="271.23" y2="269.40"/><line x1="291.15" y1="367.77" x2="285.90" y2="397.13"/><line x1="314.39" y1="372.18" x2="313.82" y2="366.58"/><line x1="291.15" y1="367.77" x2="288.29" y2="406.70"/><line x1="227.65" y1="234.66" x2="229.04" y2="234.26"/><line x1="275.21" y1="313.28" x2="256.42" y2="309.53"/><line x1="279.34" y1="380.13" x2="280.26" y2="382.24"/><line x1="275.21" y1="313.28" x2="260.53" y2="318.33"/><line x1="271.23" y1="269.40" x2="272.37" y2="273.61"/><line x1="203.75" y1="268.91" x2="229.52" y2="283.10"/><line x1="291.90" y1="366.26" x2="310.53" y2="427.72"/><line x1="302.79" y1="299.69" x2="302.41" y2="297.56"/><line x1="291.90" y1="366.26" x2="316.22" y2="410.79"/><line x1="245.62" y1="284.95" x2="246.89" y2="287.20"/><line x1="249.75" y1="157.67" x2="246.61" y2="157.29"/><line x1="276.52" y1="372.10" x2="288.66" y2="363.28"/><line x1="291.90" y1="366.26" x2="313.82" y2="366.58"/><line x1="260.86" y1="173.10" x2="242.44" y2="180.19"/><line x1="280.26" y1="382.24" x2="281.30" y2="384.52"/><line x1="300.97" y1="427.55" x2="301.87" y2="428.25"/><line x1="229.52" y1="283.10" x2="204.46" y2="267.46"/><line x1="238.45" y1="276.10" x2="235.67" y2="234.11"/><line x1="302.41" y1="297.56" x2="302.08" y2="295.49"/><line x1="313.16" y1="288.76" x2="321.16" y2="288.26"/><line x1="238.45" y1="276.10" x2="244.69" y2="239.64"/><line x1="262.08" y1="273.65" x2="244.36" y2="282.92"/><line x1="284.84" y1="344.21" x2="269.73" y2="348.86"/><line x1="238.45" y1="276.10" x2="255.24" y2="260.37"/><line x1="242.44" y1="180.19" x2="261.53" y2="174.59"/><line x1="193.27" y1="296.88" x2="194.63" y2="297.22"/><line x1="301.87" y1="428.25" x2="302.73" y2="428.80"/><line x1="312.44" y1="355.01" x2="291.40" y2="360.71"/><line x1="235.67" y1="234.11" x2="236.52" y2="234.39"/><line x1="321.16" y1="288.26" x2="326.04" y2="277.87"/><line x1="316.38" y1="266.23" x2="310.06" y2="285.30"/><line x1="285.22" y1="394.34" x2="285.62" y2="395.82"/><line x1="291.15" y1="367.77" x2="283.24" y2="388.93"/><line x1="194.63" y1="297.22" x2="195.75" y2="277.76"/><line x1="270.52" y1="351.29" x2="276.52" y2="372.10"/><line x1="291.40" y1="360.71" x2="291.12" y2="358.99"/><line x1="291.15" y1="367.77" x2="286.61" y2="400.70"/><line x1="301.03" y1="285.94" x2="300.94" y2="284.19"/><line x1="254.75" y1="305.00" x2="256.08" y2="308.66"/><line x1="311.63" y1="349.06" x2="310.74" y2="342.99"/><line x1="275.21" y1="313.28" x2="250.78" y2="295.20"/><line x1="250.46" y1="158.02" x2="242.12" y2="160.42"/><line x1="285.62" y1="395.82" x2="285.90" y2="397.13"/><line x1="275.21" y1="313.28" x2="258.02" y2="313.21"/><line x1="291.90" y1="366.26" x2="295.83" y2="421.67"/><line x1="308.01" y1="429.06" x2="309.33" y2="428.51"/><line x1="291.90" y1="366.26" x2="304.30" y2="429.43"/><line x1="235.89" y1="277.37" x2="237.23" y2="276.60"/><line x1="300.94" y1="284.19" x2="300.90" y2="282.50"/><line x1="291.90" y1="366.26" x2="314.21" y2="422.37"/><line x1="316.64" y1="292.91" x2="319.38" y2="292.57"/><line x1="291.90" y1="366.26" x2="315.93" y2="393.34"/><line x1="276.52" y1="372.10" x2="287.11" y2="357.09"/><line x1="264.37" y1="181.25" x2="245.08" y2="189.22"/><line x1="276.52" y1="372.10" x2="289.99" y2="366.33"/><line x1="201.50" y1="298.63" x2="203.57" y2="299.01"/><line x1="238.45" y1="276.10" x2="218.78" y2="240.61"/><line x1="309.33" y1="428.51" x2="310.53" y2="427.72"/><line x1="310.74" y1="342.99" x2="289.31" y2="350.02"/><line x1="238.45" y1="276.10" x2="230.46" y2="233.97"/><line x1="242.42" y1="237.81" x2="243.54" y2="238.69"/><line x1="238.45" y1="276.10" x2="239.30" y2="235.72"/><line x1="319.38" y1="292.57" x2="319.05" y2="293.51"/><line x1="253.33" y1="160.40" x2="254.07" y2="161.23"/><line x1="238.45" y1="276.10" x2="249.51" y2="247.73"/><line x1="192.05" y1="296.56" x2="193.27" y2="296.88"/><line x1="287.11" y1="357.09" x2="287.40" y2="358.55"/><line x1="286.87" y1="401.77" x2="287.16" y2="402.90"/><line x1="289.31" y1="350.02" x2="288.66" y2="347.28"/><line x1="298.23" y1="241.71" x2="298.71" y2="242.66"/><line x1="316.38" y1="266.23" x2="326.04" y2="277.87"/><line x1="287.16" y1="402.90" x2="287.49" y2="404.10"/><line x1="291.15" y1="367.77" x2="285.62" y2="395.82"/><line x1="298.71" y1="242.66" x2="299.15" y2="243.56"/><line x1="291.15" y1="367.77" x2="287.86" y2="405.37"/><line x1="480.00" y1="32.02" x2="447.51" y2="32.02"/><line x1="258.99" y1="315.16" x2="259.50" y2="316.17"/><line x1="275.21" y1="313.28" x2="256.08" y2="308.66"/><line x1="291.90" y1="366.26" x2="290.47" y2="412.62"/><line x1="200.85" y1="273.67" x2="219.17" y2="293.04"/><line x1="275.21" y1="313.28" x2="260.01" y2="317.23"/><line x1="291.90" y1="366.26" x2="300.02" y2="426.68"/><line x1="315.36" y1="418.39" x2="315.76" y2="416.07"/><line x1="314.85" y1="290.75" x2="316.64" y2="292.91"/><line x1="291.90" y1="366.26" x2="309.33" y2="428.51"/><line x1="302.02" y1="250.69" x2="302.31" y2="278.37"/><line x1="291.90" y1="366.26" x2="316.05" y2="413.54"/><line x1="240.37" y1="168.53" x2="257.02" y2="165.37"/><line x1="289.34" y1="365.00" x2="289.67" y2="365.71"/><line x1="291.90" y1="366.26" x2="314.39" y2="372.18"/><line x1="276.52" y1="372.10" x2="288.32" y2="362.26"/><line x1="238.45" y1="276.10" x2="214.78" y2="245.85"/><line x1="238.45" y1="276.10" x2="223.67" y2="236.55"/><line x1="285.91" y1="336.11" x2="285.58" y2="334.42"/><line x1="238.45" y1="276.10" x2="234.87" y2="233.90"/><line x1="238.45" y1="276.10" x2="243.54" y2="238.69"/><line x1="290.59" y1="367.25" x2="290.88" y2="367.56"/><line x1="242.66" y1="159.57" x2="250.46" y2="158.02"/><line x1="238.45" y1="276.10" x2="254.13" y2="258.08"/><line x1="246.81" y1="194.76" x2="277.69" y2="208.23"/><line x1="234.45" y1="278.41" x2="235.89" y2="277.37"/><line x1="301.62" y1="277.98" x2="302.31" y2="278.37"/><line x1="277.86" y1="376.41" x2="278.54" y2="378.19"/><line x1="286.84" y1="355.53" x2="276.52" y2="372.10"/><line x1="216.33" y1="294.31" x2="200.85" y2="273.67"/><line x1="263.84" y1="180.05" x2="264.37" y2="181.25"/><line x1="202.32" y1="271.49" x2="203.04" y2="270.25"/><line x1="291.15" y1="367.77" x2="282.33" y2="386.81"/><line x1="291.15" y1="367.77" x2="286.37" y2="399.70"/><line x1="241.35" y1="237.02" x2="242.42" y2="237.81"/><line x1="268.18" y1="344.36" x2="284.82" y2="342.62"/><line x1="275.21" y1="313.28" x2="249.48" y2="292.34"/><line x1="275.21" y1="313.28" x2="257.58" y2="312.26"/><line x1="225.81" y1="287.30" x2="227.68" y2="285.20"/><line x1="197.17" y1="277.18" x2="201.50" y2="298.63"/><line x1="291.90" y1="366.26" x2="294.71" y2="420.04"/><line x1="313.16" y1="360.85" x2="291.89" y2="364.67"/><line x1="291.90" y1="366.26" x2="303.54" y2="429.19"/><line x1="291.90" y1="366.26" x2="313.46" y2="424.05"/><line x1="258.02" y1="313.21" x2="258.49" y2="314.17"/><line x1="252.61" y1="159.67" x2="253.33" y2="160.40"/><line x1="279.90" y1="212.14" x2="271.23" y2="269.40"/><line x1="201.50" y1="298.63" x2="197.89" y2="276.71"/><line x1="238.45" y1="276.10" x2="217.64" y2="241.89"/><line x1="214.35" y1="246.64" x2="214.78" y2="245.85"/><line x1="238.45" y1="276.10" x2="229.04" y2="234.26"/><line x1="238.45" y1="276.10" x2="238.33" y2="235.19"/><line x1="258.49" y1="314.17" x2="258.99" y2="315.16"/><line x1="279.90" y1="212.14" x2="297.71" y2="240.72"/><line x1="253.33" y1="160.40" x2="240.91" y2="163.82"/><line x1="192.05" y1="296.56" x2="187.08" y2="295.24"/><line x1="246.81" y1="194.76" x2="268.05" y2="189.15"/><line x1="314.84" y1="420.48" x2="315.36" y2="418.39"/><line x1="214.78" y1="245.85" x2="215.14" y2="245.23"/><line x1="249.51" y1="247.73" x2="250.69" y2="250.50"/><line x1="289.00" y1="364.19" x2="289.34" y2="365.00"/><line x1="268.05" y1="189.15" x2="269.80" y2="192.91"/><line x1="231.27" y1="281.27" x2="232.91" y2="279.71"/><line x1="200.11" y1="274.60" x2="200.85" y2="273.67"/><line x1="291.15" y1="367.77" x2="285.22" y2="394.34"/><line x1="286.28" y1="337.86" x2="285.91" y2="336.11"/><line x1="320.64" y1="289.42" x2="320.17" y2="290.52"/><line x1="250.69" y1="250.50" x2="251.86" y2="253.14"/><line x1="285.01" y1="346.00" x2="285.15" y2="346.97"/><line x1="480.00" y1="32.02" x2="480.00" y2="64.50"/><line x1="262.74" y1="177.44" x2="263.29" y2="178.77"/><line x1="255.54" y1="163.14" x2="240.37" y2="168.53"/><line x1="291.90" y1="366.26" x2="289.85" y2="411.05"/><line x1="290.78" y1="357.04" x2="290.37" y2="354.90"/><line x1="200.85" y1="273.67" x2="217.71" y2="293.81"/><line x1="291.90" y1="366.26" x2="299.02" y2="425.65"/><line x1="219.96" y1="239.43" x2="221.17" y2="238.36"/><line x1="314.85" y1="290.75" x2="319.75" y2="291.57"/><line x1="291.90" y1="366.26" x2="308.01" y2="429.06"/><line x1="302.02" y1="250.69" x2="301.62" y2="277.98"/><line x1="480.00" y1="479.91" x2="480.00" y2="447.42"/><line x1="261.58" y1="320.66" x2="262.11" y2="321.88"/><line x1="316.64" y1="292.91" x2="318.53" y2="295.24"/><line x1="240.37" y1="168.53" x2="256.27" y2="164.21"/><line x1="279.90" y1="212.14" x2="266.02" y2="252.80"/><line x1="238.45" y1="276.10" x2="214.35" y2="246.64"/><line x1="316.12" y1="398.30" x2="315.93" y2="393.34"/><line x1="273.53" y1="278.11" x2="301.78" y2="293.47"/><line x1="221.17" y1="238.36" x2="222.40" y2="237.40"/><line x1="238.45" y1="276.10" x2="222.40" y2="237.40"/><line x1="239.59" y1="277.01" x2="240.75" y2="278.15"/><line x1="238.45" y1="276.10" x2="234.11" y2="233.78"/><line x1="240.86" y1="173.92" x2="259.40" y2="169.96"/><line x1="290.59" y1="367.25" x2="277.86" y2="376.41"/><line x1="266.02" y1="252.80" x2="267.00" y2="255.53"/><line x1="309.79" y1="336.80" x2="308.75" y2="330.51"/><line x1="246.81" y1="194.76" x2="275.58" y2="204.35"/><line x1="224.03" y1="289.13" x2="202.32" y2="271.49"/><line x1="284.51" y1="328.31" x2="284.30" y2="326.94"/><line x1="240.75" y1="278.15" x2="241.93" y2="279.52"/><line x1="447.51" y1="479.91" x2="480.00" y2="447.42"/><line x1="216.33" y1="294.31" x2="200.11" y2="274.60"/><line x1="295.83" y1="421.67" x2="296.93" y2="423.15"/><line x1="202.32" y1="271.49" x2="225.81" y2="287.30"/><line x1="284.30" y1="326.94" x2="283.09" y2="318.66"/><line x1="306.13" y1="281.40" x2="307.34" y2="282.54"/><line x1="268.18" y1="344.36" x2="284.88" y2="341.90"/><line x1="258.60" y1="168.32" x2="259.40" y2="169.96"/><line x1="291.90" y1="366.26" x2="293.55" y2="418.26"/><line x1="313.16" y1="360.85" x2="291.92" y2="365.57"/><line x1="230.46" y1="233.97" x2="231.91" y2="233.80"/><line x1="307.34" y1="282.54" x2="308.65" y2="283.83"/><line x1="302.02" y1="250.69" x2="316.38" y2="266.23"/><line x1="281.30" y1="384.52" x2="282.33" y2="386.81"/><line x1="306.30" y1="317.49" x2="284.73" y2="329.75"/><line x1="273.53" y1="278.11" x2="303.68" y2="304.10"/><line x1="279.90" y1="212.14" x2="270.13" y2="265.49"/><line x1="205.16" y1="265.91" x2="211.98" y2="251.41"/><line x1="238.45" y1="276.10" x2="216.53" y2="243.28"/><line x1="291.92" y1="365.57" x2="291.89" y2="364.67"/><line x1="302.08" y1="295.49" x2="301.78" y2="293.47"/><line x1="273.53" y1="278.11" x2="301.03" y2="285.94"/><line x1="248.19" y1="289.67" x2="249.48" y2="292.34"/><line x1="279.90" y1="212.14" x2="301.03" y2="277.74"/><line x1="302.73" y1="428.80" x2="303.54" y2="429.19"/><line x1="301.78" y1="293.47" x2="301.53" y2="291.51"/><line x1="242.12" y1="160.42" x2="241.64" y2="161.40"/><line x1="303.54" y1="429.19" x2="304.30" y2="429.43"/><line x1="291.12" y1="358.99" x2="290.78" y2="357.04"/><line x1="320.64" y1="289.42" x2="314.85" y2="290.75"/><line x1="251.17" y1="158.47" x2="251.89" y2="159.02"/><line x1="212.67" y1="249.97" x2="213.29" y2="248.69"/><line x1="290.78" y1="357.04" x2="311.63" y2="349.06"/><line x1="313.16" y1="360.85" x2="312.44" y2="355.01"/><line x1="480.00" y1="479.91" x2="447.51" y2="479.91"/><line x1="288.66" y1="347.28" x2="287.95" y2="344.34"/><line x1="238.45" y1="276.10" x2="213.86" y2="247.58"/><line x1="284.96" y1="341.23" x2="265.97" y2="338.57"/><line x1="306.30" y1="317.49" x2="303.68" y2="304.10"/><line x1="273.53" y1="278.11" x2="302.08" y2="295.49"/><line x1="300.91" y1="280.86" x2="300.95" y2="279.28"/><line x1="268.95" y1="346.55" x2="269.73" y2="348.86"/><line x1="273.53" y1="278.11" x2="300.95" y2="279.28"/><line x1="240.86" y1="173.92" x2="258.60" y2="168.32"/><line x1="311.63" y1="426.72" x2="312.60" y2="425.50"/><line x1="309.79" y1="336.80" x2="287.15" y2="341.19"/><line x1="229.04" y1="234.26" x2="230.46" y2="233.97"/><line x1="318.76" y1="294.41" x2="318.53" y2="295.24"/><line x1="254.07" y1="161.23" x2="254.80" y2="162.14"/><line x1="216.33" y1="294.31" x2="199.36" y2="275.43"/><line x1="272.37" y1="273.61" x2="273.53" y2="278.11"/><line x1="246.61" y1="157.29" x2="245.66" y2="157.48"/><line x1="285.58" y1="334.42" x2="285.27" y2="332.80"/><line x1="204.46" y1="267.46" x2="205.16" y2="265.91"/><line x1="257.02" y1="165.37" x2="257.77" y2="166.62"/><line x1="261.53" y1="174.59" x2="262.15" y2="176.04"/><line x1="306.30" y1="317.49" x2="284.99" y2="331.25"/><line x1="273.53" y1="278.11" x2="283.09" y2="318.66"/><line x1="279.90" y1="212.14" x2="269.06" y2="261.88"/><line x1="205.16" y1="265.91" x2="231.27" y2="281.27"/><line x1="284.96" y1="341.23" x2="284.88" y2="341.90"/><line x1="273.53" y1="278.11" x2="301.15" y2="287.74"/><line x1="284.90" y1="345.08" x2="285.01" y2="346.00"/><line x1="279.90" y1="212.14" x2="300.95" y2="279.28"/><line x1="262.15" y1="176.04" x2="262.74" y2="177.44"/><line x1="220.71" y1="292.00" x2="222.33" y2="290.70"/><line x1="195.75" y1="277.76" x2="196.14" y2="297.56"/><line x1="237.40" y1="234.75" x2="238.33" y2="235.19"/><line x1="247.65" y1="157.22" x2="249.75" y2="157.67"/><line x1="290.88" y1="367.56" x2="291.15" y2="367.77"/><line x1="242.12" y1="160.42" x2="251.17" y2="158.47"/><line x1="285.90" y1="397.13" x2="286.02" y2="397.92"/><line x1="196.14" y1="297.56" x2="197.78" y2="297.91"/><line x1="237.23" y1="276.60" x2="212.67" y2="249.97"/><line x1="300.90" y1="282.50" x2="300.91" y2="280.86"/><line x1="256.42" y1="309.53" x2="256.78" y2="310.42"/><line x1="241.52" y1="176.71" x2="242.44" y2="180.19"/><line x1="278.54" y1="378.19" x2="279.34" y2="380.13"/><line x1="251.17" y1="158.47" x2="241.64" y2="161.40"/><line x1="245.08" y1="189.22" x2="264.89" y2="182.39"/><line x1="308.75" y1="330.51" x2="306.30" y2="317.49"/><line x1="310.53" y1="427.72" x2="311.63" y2="426.72"/><line x1="212.67" y1="249.97" x2="238.45" y2="276.10"/><line x1="244.36" y1="282.92" x2="245.62" y2="284.95"/><line x1="319.05" y1="293.51" x2="318.76" y2="294.41"/><line x1="287.40" y1="358.55" x2="287.69" y2="359.89"/><line x1="195.06" y1="277.87" x2="194.63" y2="297.22"/><line x1="264.89" y1="182.39" x2="265.41" y2="183.47"/><line x1="246.89" y1="287.20" x2="248.19" y2="289.67"/><line x1="197.89" y1="276.71" x2="203.57" y2="299.01"/><line x1="288.66" y1="347.28" x2="309.79" y2="336.80"/><line x1="284.96" y1="341.23" x2="265.27" y2="336.90"/><line x1="306.30" y1="317.49" x2="283.09" y2="318.66"/><line x1="273.53" y1="278.11" x2="302.41" y2="297.56"/><line x1="244.69" y1="239.64" x2="245.87" y2="240.70"/><line x1="301.03" y1="277.74" x2="300.52" y2="246.64"/><line x1="268.95" y1="346.55" x2="284.84" y2="344.21"/><line x1="240.91" y1="163.82" x2="254.07" y2="161.23"/><line x1="287.49" y1="404.10" x2="287.86" y2="405.37"/><line x1="211.98" y1="251.41" x2="235.89" y2="277.37"/><line x1="203.57" y1="299.01" x2="216.33" y2="294.31"/><line x1="269.73" y1="348.86" x2="284.90" y2="345.08"/><line x1="299.15" y1="243.56" x2="299.55" y2="244.40"/><line x1="259.50" y1="316.17" x2="260.01" y2="317.23"/><line x1="243.63" y1="184.36" x2="264.37" y2="181.25"/><line x1="254.07" y1="161.23" x2="240.66" y2="165.24"/><line x1="236.52" y1="234.39" x2="237.40" y2="234.75"/><line x1="315.76" y1="416.07" x2="316.05" y2="413.54"/><line x1="215.44" y1="244.78" x2="216.53" y2="243.28"/><line x1="289.67" y1="365.71" x2="289.99" y2="366.33"/><line x1="271.63" y1="196.69" x2="273.56" y2="200.51"/><line x1="256.08" y1="308.66" x2="256.42" y2="309.53"/><line x1="245.08" y1="189.22" x2="246.81" y2="194.76"/><line x1="285.58" y1="334.42" x2="306.30" y2="317.49"/><line x1="249.75" y1="157.67" x2="243.29" y2="158.85"/><line x1="253.01" y1="255.67" x2="254.13" y2="258.08"/><line x1="257.02" y1="165.37" x2="240.46" y2="171.81"/><line x1="290.47" y1="412.62" x2="291.14" y2="414.26"/><line x1="219.17" y1="293.04" x2="220.71" y2="292.00"/><line x1="301.03" y1="277.74" x2="298.71" y2="242.66"/><line x1="302.31" y1="278.37" x2="303.11" y2="278.90"/><line x1="284.96" y1="341.23" x2="268.18" y2="344.36"/><line x1="241.24" y1="162.54" x2="240.91" y2="163.82"/><line x1="262.64" y1="323.15" x2="265.27" y2="336.90"/><line x1="243.54" y1="238.69" x2="244.69" y2="239.64"/><line x1="315.66" y1="388.25" x2="315.32" y2="383.03"/><line x1="247.65" y1="157.22" x2="248.34" y2="157.27"/><line x1="259.40" y1="169.96" x2="260.15" y2="171.55"/><line x1="290.88" y1="367.56" x2="278.54" y2="378.19"/><line x1="203.04" y1="270.25" x2="203.75" y2="268.91"/><line x1="283.09" y1="318.66" x2="303.68" y2="304.10"/><line x1="284.82" y1="342.62" x2="284.81" y2="343.39"/><line x1="215.14" y1="245.23" x2="215.44" y2="244.78"/><line x1="241.52" y1="176.71" x2="260.86" y2="173.10"/><line x1="308.75" y1="330.51" x2="285.58" y2="334.42"/><line x1="195.06" y1="277.87" x2="193.27" y2="296.88"/><line x1="262.08" y1="273.65" x2="243.14" y2="281.11"/><line x1="301.03" y1="277.74" x2="300.24" y2="245.94"/><line x1="310.06" y1="285.30" x2="311.56" y2="286.94"/><line x1="269.80" y1="192.91" x2="271.63" y2="196.69"/><line x1="211.98" y1="251.41" x2="234.45" y2="278.41"/><line x1="316.38" y1="266.23" x2="308.65" y2="283.83"/><line x1="270.52" y1="351.29" x2="286.84" y2="355.53"/><line x1="480.00" y1="64.50" x2="447.51" y2="32.02"/><line x1="243.63" y1="184.36" x2="263.84" y2="180.05"/><line x1="291.15" y1="367.77" x2="291.90" y2="366.26"/><line x1="311.63" y1="349.06" x2="289.87" y2="352.56"/><line x1="256.27" y1="164.21" x2="257.02" y2="165.37"/><line x1="196.46" y1="277.53" x2="197.17" y2="277.18"/><line x1="291.90" y1="366.26" x2="316.12" y2="398.30"/><line x1="249.75" y1="157.67" x2="244.00" y2="158.26"/><line x1="276.52" y1="372.10" x2="289.67" y2="365.71"/><line x1="251.89" y1="159.02" x2="252.61" y2="159.67"/><line x1="267.00" y1="255.53" x2="268.01" y2="258.56"/><line x1="313.16" y1="288.76" x2="314.85" y2="290.75"/><line x1="238.45" y1="276.10" x2="248.30" y2="244.84"/><line x1="301.03" y1="277.74" x2="298.23" y2="241.71"/><line x1="223.67" y1="236.55" x2="224.96" y2="235.80"/><line x1="242.44" y1="180.19" x2="243.63" y2="184.36"/><line x1="312.44" y1="355.01" x2="311.63" y2="349.06"/><line x1="316.38" y1="266.23" x2="321.16" y2="288.26"/><line x1="243.14" y1="281.11" x2="244.36" y2="282.92"/><line x1="259.40" y1="169.96" x2="241.52" y2="176.71"/><line x1="291.15" y1="367.77" x2="287.49" y2="404.10"/><line x1="297.99" y1="424.48" x2="299.02" y2="425.65"/><line x1="287.15" y1="341.19" x2="286.28" y2="337.86"/><line x1="275.21" y1="313.28" x2="254.75" y2="305.00"/><line x1="275.21" y1="313.28" x2="259.50" y2="316.17"/><line x1="290.30" y1="366.83" x2="290.59" y2="367.25"/><line x1="284.82" y1="342.62" x2="268.95" y2="346.55"/><line x1="251.86" y1="253.14" x2="253.01" y2="255.67"/><line x1="291.90" y1="366.26" x2="315.76" y2="416.07"/><line x1="291.89" y1="364.67" x2="291.79" y2="363.56"/><line x1="291.90" y1="366.26" x2="314.89" y2="377.67"/><line x1="233.39" y1="233.74" x2="234.11" y2="233.78"/><line x1="276.52" y1="372.10" x2="288.00" y2="361.12"/><line x1="261.05" y1="319.48" x2="261.58" y2="320.66"/><line x1="289.85" y1="411.05" x2="290.47" y2="412.62"/><line x1="217.71" y1="293.81" x2="219.17" y2="293.04"/><line x1="244.80" y1="157.81" x2="244.00" y2="158.26"/><line x1="283.24" y1="388.93" x2="284.03" y2="390.89"/><line x1="201.58" y1="272.63" x2="202.32" y2="271.49"/><line x1="262.11" y1="321.88" x2="262.64" y2="323.15"/><line x1="238.45" y1="276.10" x2="242.42" y2="237.81"/><line x1="262.08" y1="273.65" x2="241.93" y2="279.52"/><line x1="238.45" y1="276.10" x2="253.01" y2="255.67"/><line x1="250.78" y1="295.20" x2="252.10" y2="298.26"/><line x1="315.93" y1="393.34" x2="315.66" y2="388.25"/><line x1="222.40" y1="237.40" x2="223.67" y2="236.55"/><line x1="304.30" y1="429.43" x2="305.02" y2="429.51"/><line x1="211.98" y1="251.41" x2="232.91" y2="279.71"/><line x1="277.86" y1="376.41" x2="290.88" y2="367.56"/><line x1="316.38" y1="266.23" x2="307.34" y2="282.54"/><line x1="291.15" y1="367.77" x2="281.30" y2="384.52"/><line x1="241.64" y1="161.40" x2="241.24" y2="162.54"/><line x1="270.52" y1="351.29" x2="285.15" y2="346.97"/><line x1="291.15" y1="367.77" x2="286.18" y2="398.78"/><line x1="241.93" y1="279.52" x2="243.14" y2="281.11"/><line x1="291.15" y1="367.77" x2="289.28" y2="409.54"/><line x1="311.63" y1="349.06" x2="290.37" y2="354.90"/><line x1="275.21" y1="313.28" x2="248.19" y2="289.67"/><line x1="239.30" y1="235.72" x2="240.30" y2="236.33"/><line x1="296.93" y1="423.15" x2="297.99" y2="424.48"/><line x1="275.21" y1="313.28" x2="257.16" y2="311.33"/><line x1="225.81" y1="287.30" x2="203.04" y2="270.25"/><line x1="275.21" y1="313.28" x2="284.96" y2="341.23"/><line x1="291.90" y1="366.26" x2="302.73" y2="428.80"/><line x1="286.18" y1="398.78" x2="286.37" y2="399.70"/><line x1="291.90" y1="366.26" x2="312.60" y2="425.50"/><line x1="196.46" y1="277.53" x2="199.57" y2="298.26"/><line x1="284.88" y1="341.90" x2="284.82" y2="342.62"/><line x1="291.90" y1="366.26" x2="316.24" y2="403.13"/><line x1="249.75" y1="157.67" x2="244.80" y2="157.81"/><line x1="257.16" y1="311.33" x2="257.58" y2="312.26"/><line x1="276.52" y1="372.10" x2="289.34" y2="365.00"/><line x1="291.90" y1="366.26" x2="291.92" y2="365.57"/><line x1="231.91" y1="233.80" x2="233.39" y2="233.74"/><line x1="238.45" y1="276.10" x2="227.65" y2="234.66"/><line x1="308.65" y1="283.83" x2="310.06" y2="285.30"/><line x1="229.52" y1="283.10" x2="231.27" y2="281.27"/><line x1="312.60" y1="425.50" x2="313.46" y2="424.05"/><line x1="238.45" y1="276.10" x2="237.40" y2="234.75"/><line x1="213.29" y1="248.69" x2="213.86" y2="247.58"/><line x1="282.33" y1="386.81" x2="283.24" y2="388.93"/><line x1="313.16" y1="288.76" x2="320.64" y2="289.42"/><line x1="238.45" y1="276.10" x2="247.08" y2="241.84"/><line x1="192.05" y1="296.56" x2="195.06" y2="277.87"/><line x1="32.16" y1="32.09" x2="32.16" y2="64.58"/><line x1="238.45" y1="276.10" x2="239.59" y2="277.01"/><line x1="242.44" y1="180.19" x2="262.74" y2="177.44"/><line x1="288.00" y1="361.12" x2="288.32" y2="362.26"/><line x1="249.48" y1="292.34" x2="250.78" y2="295.20"/><line x1="312.44" y1="355.01" x2="290.78" y2="357.04"/><line x1="247.08" y1="241.84" x2="248.30" y2="244.84"/><line x1="316.38" y1="266.23" x2="313.16" y2="288.76"/><line x1="231.27" y1="281.27" x2="211.98" y2="251.41"/><line x1="254.80" y1="162.14" x2="255.54" y2="163.14"/><line x1="291.15" y1="367.77" x2="284.68" y2="392.70"/><line x1="301.53" y1="291.51" x2="301.32" y2="289.60"/><line x1="288.29" y1="406.70" x2="288.76" y2="408.09"/><line x1="291.15" y1="367.77" x2="287.16" y2="402.90"/><line x1="285.01" y1="346.00" x2="270.52" y2="351.29"/><line x1="262.74" y1="177.44" x2="243.63" y2="184.36"/><line x1="197.78" y1="297.91" x2="199.57" y2="298.26"/><line x1="275.21" y1="313.28" x2="253.42" y2="301.53"/><line x1="275.21" y1="313.28" x2="258.99" y2="315.16"/><line x1="238.33" y1="235.19" x2="239.30" y2="235.72"/><line x1="290.30" y1="366.83" x2="277.29" y2="374.80"/><line x1="291.90" y1="366.26" x2="297.99" y2="424.48"/><line x1="314.85" y1="290.75" x2="320.17" y2="290.52"/><line x1="291.90" y1="366.26" x2="306.57" y2="429.40"/><line x1="291.90" y1="366.26" x2="315.36" y2="418.39"/><line x1="286.02" y1="397.92" x2="286.18" y2="398.78"/><line x1="316.64" y1="292.91" x2="318.76" y2="294.41"/><line x1="291.90" y1="366.26" x2="315.32" y2="383.03"/><line x1="276.52" y1="372.10" x2="287.69" y2="359.89"/><line x1="276.52" y1="372.10" x2="276.84" y2="373.37"/><line x1="238.45" y1="276.10" x2="221.17" y2="238.36"/><line x1="310.74" y1="342.99" x2="309.79" y2="336.80"/><line x1="201.58" y1="272.63" x2="224.03" y2="289.13"/><line x1="238.45" y1="276.10" x2="233.39" y2="233.74"/><line x1="238.45" y1="276.10" x2="241.35" y2="237.02"/><line x1="238.45" y1="276.10" x2="251.86" y2="253.14"/><line x1="246.81" y1="194.76" x2="273.56" y2="200.51"/><line x1="240.46" y1="171.81" x2="240.86" y2="173.92"/><line x1="300.95" y1="279.28" x2="301.03" y2="277.74"/><line x1="316.38" y1="266.23" x2="306.13" y2="281.40"/><line x1="291.15" y1="367.77" x2="280.26" y2="382.24"/><line x1="241.64" y1="161.40" x2="251.89" y2="159.02"/><line x1="291.15" y1="367.77" x2="286.02" y2="397.92"/><line x1="240.66" y1="165.24" x2="240.48" y2="166.81"/><line x1="291.15" y1="367.77" x2="288.76" y2="408.09"/><line x1="275.21" y1="313.28" x2="246.89" y2="287.20"/><line x1="287.95" y1="344.34" x2="287.15" y2="341.19"/><line x1="275.21" y1="313.28" x2="256.78" y2="310.42"/><line x1="291.90" y1="366.26" x2="292.36" y2="416.34"/><line x1="200.85" y1="273.67" x2="201.58" y2="272.63"/><line x1="275.21" y1="313.28" x2="261.05" y2="319.48"/><line x1="291.90" y1="366.26" x2="301.87" y2="428.25"/><line x1="203.75" y1="268.91" x2="204.46" y2="267.46"/><line x1="291.90" y1="366.26" x2="311.63" y2="426.72"/><line x1="245.66" y1="157.48" x2="244.80" y2="157.81"/><line x1="302.02" y1="250.69" x2="304.02" y2="279.58"/><line x1="291.90" y1="366.26" x2="316.27" y2="407.83"/><line x1="276.52" y1="372.10" x2="289.00" y2="364.19"/><line x1="260.86" y1="173.10" x2="261.53" y2="174.59"/><line x1="238.45" y1="276.10" x2="215.44" y2="244.78"/><line x1="299.91" y1="245.20" x2="300.24" y2="245.94"/><line x1="32.00" y1="479.98" x2="64.49" y2="479.98"/><line x1="238.45" y1="276.10" x2="226.30" y2="235.17"/><line x1="238.45" y1="276.10" x2="236.52" y2="234.39"/><line x1="238.45" y1="276.10" x2="245.87" y2="240.70"/><line x1="246.81" y1="194.76" x2="266.02" y2="252.80"/><line x1="312.44" y1="355.01" x2="291.12" y2="358.99"/><line x1="304.02" y1="279.58" x2="305.02" y2="280.42"/><line x1="291.15" y1="367.77" x2="284.03" y2="390.89"/><line x1="197.78" y1="297.91" x2="196.46" y2="277.53"/><line x1="275.21" y1="313.28" x2="252.10" y2="298.26"/><line x1="290.30" y1="366.83" x2="276.84" y2="373.37"/><line x1="291.90" y1="366.26" x2="296.93" y2="423.15"/><line x1="313.16" y1="360.85" x2="291.63" y2="362.24"/><line x1="256.78" y1="310.42" x2="257.16" y2="311.33"/><line x1="291.90" y1="366.26" x2="305.02" y2="429.51"/><line x1="316.64" y1="292.91" x2="319.05" y2="293.51"/><line x1="276.52" y1="372.10" x2="287.40" y2="358.55"/><line x1="238.45" y1="276.10" x2="213.29" y2="248.69"/><line x1="279.90" y1="212.14" x2="273.53" y2="278.11"/><line x1="238.45" y1="276.10" x2="219.96" y2="239.43"/><line x1="292.36" y1="416.34" x2="293.55" y2="418.26"/><line x1="273.53" y1="278.11" x2="300.91" y2="280.86"/><line x1="310.74" y1="342.99" x2="288.66" y2="347.28"/><line x1="238.45" y1="276.10" x2="231.91" y2="233.80"/><line x1="287.69" y1="359.89" x2="288.00" y2="361.12"/><line x1="265.41" y1="183.47" x2="265.91" y2="184.49"/><line x1="238.45" y1="276.10" x2="240.30" y2="236.33"/><line x1="265.97" y1="338.57" x2="266.70" y2="340.38"/><line x1="309.79" y1="336.80" x2="287.95" y2="344.34"/><line x1="246.81" y1="194.76" x2="271.63" y2="196.69"/><line x1="245.87" y1="240.70" x2="247.08" y2="241.84"/><line x1="287.86" y1="405.37" x2="288.29" y2="406.70"/><line x1="291.63" y1="362.24" x2="291.40" y2="360.71"/><line x1="216.33" y1="294.31" x2="198.62" y2="276.13"/><line x1="291.15" y1="367.77" x2="279.34" y2="380.13"/><line x1="299.55" y1="244.40" x2="299.91" y2="245.20"/><line x1="260.01" y1="317.23" x2="260.53" y2="318.33"/><line x1="240.66" y1="165.24" x2="254.80" y2="162.14"/><line x1="275.21" y1="313.28" x2="245.62" y2="284.95"/><line x1="316.05" y1="413.54" x2="316.22" y2="410.79"/><line x1="216.53" y1="243.28" x2="217.64" y2="241.89"/><line x1="291.90" y1="366.26" x2="291.14" y2="414.26"/><line x1="200.85" y1="273.67" x2="220.71" y2="292.00"/><line x1="291.90" y1="366.26" x2="300.97" y2="427.55"/><line x1="289.99" y1="366.33" x2="290.30" y2="366.83"/><line x1="302.02" y1="250.69" x2="303.11" y2="278.90"/><line x1="273.56" y1="200.51" x2="275.58" y2="204.35"/><line x1="316.22" y1="410.79" x2="316.27" y2="407.83"/><line x1="240.37" y1="168.53" x2="240.33" y2="170.39"/><line x1="284.81" y1="343.39" x2="284.84" y2="344.21"/><line x1="306.30" y1="317.49" x2="285.27" y2="332.80"/><line x1="279.90" y1="212.14" x2="268.01" y2="258.56"/><line x1="319.75" y1="291.57" x2="319.38" y2="292.57"/><line x1="238.45" y1="276.10" x2="215.14" y2="245.23"/><line x1="254.13" y1="258.08" x2="255.24" y2="260.37"/><line x1="273.53" y1="278.11" x2="301.32" y2="289.60"/><line x1="32.00" y1="479.98" x2="32.00" y2="447.50"/><line x1="238.45" y1="276.10" x2="224.96" y2="235.80"/><line x1="234.87" y1="233.90" x2="235.67" y2="234.11"/><line x1="291.14" y1="414.26" x2="292.36" y2="416.34"/><line x1="220.71" y1="292.00" x2="201.58" y2="272.63"/><line x1="242.66" y1="159.57" x2="242.12" y2="160.42"/><line x1="285.27" y1="332.80" x2="284.99" y2="331.25"/><line x1="303.11" y1="278.90" x2="304.02" y2="279.58"/><line x1="246.81" y1="194.76" x2="279.90" y2="212.14"/><line x1="265.27" y1="336.90" x2="265.97" y2="338.57"/><line x1="240.33" y1="170.39" x2="240.46" y2="171.81"/><line x1="253.42" y1="301.53" x2="254.75" y2="305.00"/><line x1="315.32" y1="383.03" x2="314.89" y2="377.67"/><line x1="286.84" y1="355.53" x2="287.11" y2="357.09"/><line x1="216.33" y1="294.31" x2="217.71" y2="293.81"/><line x1="224.96" y1="235.80" x2="226.30" y2="235.17"/><line x1="304.02" y1="279.58" x2="316.38" y2="266.23"/><line x1="249.05" y1="157.42" x2="249.75" y2="157.67"/><line x1="278.54" y1="378.19" x2="291.15" y2="367.77"/><line x1="269.06" y1="261.88" x2="270.13" y2="265.49"/><line x1="268.18" y1="344.36" x2="268.95" y2="346.55"/><line x1="227.68" y1="285.20" x2="229.52" y2="283.10"/><line x1="314.89" y1="377.67" x2="314.39" y2="372.18"/><line x1="303.68" y1="304.10" x2="303.21" y2="301.87"/><line x1="244.36" y1="282.92" x2="275.21" y2="313.28"/><line x1="313.16" y1="360.85" x2="291.79" y2="363.56"/><line x1="197.17" y1="277.18" x2="197.89" y2="276.71"/><line x1="299.02" y1="425.65" x2="300.02" y2="426.68"/><line x1="303.21" y1="301.87" x2="302.79" y2="299.69"/><line x1="284.96" y1="341.23" x2="262.64" y2="323.15"/><line x1="306.30" y1="317.49" x2="284.30" y2="326.94"/><line x1="273.53" y1="278.11" x2="302.79" y2="299.69"/><line x1="279.90" y1="212.14" x2="272.37" y2="273.61"/><line x1="268.95" y1="346.55" x2="284.81" y2="343.39"/><line x1="273.53" y1="278.11" x2="300.90" y2="282.50"/><line x1="300.02" y1="426.68" x2="300.97" y2="427.55"/><line x1="291.79" y1="363.56" x2="291.63" y2="362.24"/><line x1="246.81" y1="194.76" x2="269.80" y2="192.91"/><line x1="311.56" y1="286.94" x2="313.16" y2="288.76"/><line x1="291.63" y1="362.24" x2="312.44" y2="355.01"/><line x1="284.68" y1="392.70" x2="285.22" y2="394.34"/><line x1="245.08" y1="189.22" x2="266.40" y2="185.43"/><line x1="255.54" y1="163.14" x2="256.27" y2="164.21"/><line x1="301.15" y1="287.74" x2="301.03" y2="285.94"/><line x1="257.02" y1="165.37" x2="240.33" y2="170.39"/><line x1="199.57" y1="298.26" x2="201.50" y2="298.63"/><line x1="306.57" y1="429.40" x2="308.01" y2="429.06"/><line x1="289.87" y1="352.56" x2="289.31" y2="350.02"/><line x1="279.90" y1="212.14" x2="267.00" y2="255.53"/><line x1="319.75" y1="291.57" x2="316.64" y2="292.91"/><line x1="284.96" y1="341.23" x2="267.43" y2="342.31"/><line x1="241.24" y1="162.54" x2="253.33" y2="160.40"/><line x1="273.53" y1="278.11" x2="301.53" y2="291.51"/><line x1="268.01" y1="258.56" x2="269.06" y2="261.88"/><line x1="240.86" y1="173.92" x2="241.52" y2="176.71"/><line x1="224.03" y1="289.13" x2="225.81" y2="287.30"/><line x1="247.65" y1="157.22" x2="249.05" y2="157.42"/><line x1="266.40" y1="185.43" x2="268.05" y2="189.15"/><line x1="203.04" y1="270.25" x2="227.68" y2="285.20"/><line x1="249.05" y1="157.42" x2="248.34" y2="157.27"/><line x1="241.52" y1="176.71" x2="260.15" y2="171.55"/><line x1="308.75" y1="330.51" x2="285.91" y2="336.11"/><line x1="227.68" y1="285.20" x2="203.75" y2="268.91"/><line x1="289.28" y1="409.54" x2="289.85" y2="411.05"/><line x1="260.15" y1="171.55" x2="260.86" y2="173.10"/><line x1="195.06" y1="277.87" x2="187.08" y2="295.24"/><line x1="234.11" y1="233.78" x2="234.87" y2="233.90"/><line x1="301.03" y1="277.74" x2="299.91" y2="245.20"/><line x1="284.96" y1="341.23" x2="262.11" y2="321.88"/><line x1="306.30" y1="317.49" x2="284.51" y2="328.31"/><line x1="273.53" y1="278.11" x2="303.21" y2="301.87"/><line x1="244.00" y1="158.26" x2="243.29" y2="158.85"/><line x1="273.53" y1="278.11" x2="300.94" y2="284.19"/><line x1="284.03" y1="390.89" x2="284.68" y2="392.70"/><line x1="301.32" y1="289.60" x2="301.15" y2="287.74"/><line x1="195.75" y1="277.76" x2="196.46" y2="277.53"/><line x1="252.10" y1="298.26" x2="253.42" y2="301.53"/><line x1="277.29" y1="374.80" x2="277.86" y2="376.41"/><line x1="243.29" y1="158.85" x2="242.66" y2="159.57"/><line x1="243.63" y1="184.36" x2="263.29" y2="178.77"/><line x1="305.02" y1="429.51" x2="306.57" y2="429.40"/><line x1="232.91" y1="279.71" x2="234.45" y2="278.41"/><line x1="320.17" y1="290.52" x2="319.75" y2="291.57"/><line x1="285.15" y1="346.97" x2="286.84" y2="355.53"/><line x1="263.29" y1="178.77" x2="263.84" y2="180.05"/><line x1="290.37" y1="354.90" x2="289.87" y2="352.56"/><line x1="245.08" y1="189.22" x2="265.91" y2="184.49"/><line x1="240.30" y1="236.33" x2="241.35" y2="237.02"/><line x1="251.89" y1="159.02" x2="241.24" y2="162.54"/><line x1="286.37" y1="399.70" x2="286.61" y2="400.70"/><line x1="199.57" y1="298.26" x2="197.17" y2="277.18"/><line x1="289.87" y1="352.56" x2="310.74" y2="342.99"/><line x1="301.03" y1="277.74" x2="297.71" y2="240.72"/><line x1="197.89" y1="276.71" x2="198.62" y2="276.13"/><line x1="257.58" y1="312.26" x2="258.02" y2="313.21"/><line x1="301.03" y1="277.74" x2="301.62" y2="277.98"/><line x1="284.96" y1="341.23" x2="266.70" y2="340.38"/><line x1="241.24" y1="162.54" x2="252.61" y2="159.67"/><line x1="286.61" y1="400.70" x2="286.87" y2="401.77"/><line x1="313.46" y1="424.05" x2="314.21" y2="422.37"/><line x1="213.86" y1="247.58" x2="214.35" y2="246.64"/><line x1="211.98" y1="251.41" x2="212.67" y2="249.97"/><line x1="297.71" y1="240.72" x2="298.23" y2="241.71"/><line x1="269.73" y1="348.86" x2="270.52" y2="351.29"/><line x1="288.32" y1="362.26" x2="288.66" y2="363.28"/><line x1="266.40" y1="185.43" x2="246.81" y2="194.76"/><line x1="314.21" y1="422.37" x2="314.84" y2="420.48"/><line x1="287.15" y1="341.19" x2="308.75" y2="330.51"/><line x1="248.30" y1="244.84" x2="249.51" y2="247.73"/><line x1="64.64" y1="32.09" x2="32.16" y2="64.58"/><line x1="240.48" y1="166.81" x2="240.37" y2="168.53"/><line x1="288.66" y1="363.28" x2="289.00" y2="364.19"/><line x1="288.76" y1="408.09" x2="289.28" y2="409.54"/><line x1="199.36" y1="275.43" x2="200.11" y2="274.60"/><line x1="308.75" y1="330.51" x2="286.28" y2="337.86"/><line x1="300.24" y1="245.94" x2="300.52" y2="246.64"/><line x1="261.05" y1="319.48" x2="284.96" y2="341.23"/><line x1="249.75" y1="157.67" x2="250.46" y2="158.02"/><line x1="289.28" y1="409.54" x2="291.90" y2="366.26"/><line x1="316.27" y1="407.83" x2="316.24" y2="403.13"/><line x1="218.78" y1="240.61" x2="219.96" y2="239.43"/><line x1="262.08" y1="273.65" x2="240.75" y2="278.15"/><line x1="300.52" y1="246.64" x2="302.02" y2="250.69"/><line x1="301.03" y1="277.74" x2="299.55" y2="244.40"/><line x1="284.96" y1="341.23" x2="261.58" y2="320.66"/><line x1="276.84" y1="373.37" x2="277.29" y2="374.80"/><line x1="316.24" y1="403.13" x2="316.12" y2="398.30"/><line x1="284.99" y1="331.25" x2="284.73" y2="329.75"/><line x1="195.75" y1="277.76" x2="197.78" y2="297.91"/><line x1="257.77" y1="166.62" x2="258.60" y2="168.32"/><line x1="277.29" y1="374.80" x2="290.59" y2="367.25"/><line x1="247.65" y1="157.22" x2="246.61" y2="157.29"/><line x1="284.73" y1="329.75" x2="284.51" y2="328.31"/><line x1="237.23" y1="276.60" x2="238.45" y2="276.10"/><line x1="294.71" y1="420.04" x2="295.83" y2="421.67"/><line x1="245.08" y1="189.22" x2="265.41" y2="183.47"/><line x1="305.02" y1="280.42" x2="306.13" y2="281.40"/><line x1="249.75" y1="157.67" x2="245.66" y2="157.48"/><line x1="267.43" y1="342.31" x2="268.18" y2="344.36"/><line x1="291.90" y1="366.26" x2="313.16" y2="360.85"/><line x1="265.91" y1="184.49" x2="266.40" y2="185.43"/><line x1="229.52" y1="283.10" x2="205.16" y2="265.91"/><line x1="313.82" y1="366.58" x2="313.16" y2="360.85"/><line x1="195.06" y1="277.87" x2="195.75" y2="277.76"/><line x1="197.89" y1="276.71" x2="216.33" y2="294.31"/><line x1="262.08" y1="273.65" x2="275.21" y2="313.28"/><line x1="32.16" y1="32.09" x2="64.64" y2="32.09"/><line x1="238.45" y1="276.10" x2="262.08" y2="273.65"/><line x1="242.44" y1="180.19" x2="262.15" y2="176.04"/><line x1="284.84" y1="344.21" x2="284.90" y2="345.08"/><line x1="301.03" y1="277.74" x2="302.02" y2="250.69"/><line x1="198.62" y1="276.13" x2="199.36" y2="275.43"/><line x1="240.91" y1="163.82" x2="240.66" y2="165.24"/><line x1="321.16" y1="288.26" x2="320.64" y2="289.42"/><line x1="211.98" y1="251.41" x2="237.23" y2="276.60"/><line x1="316.38" y1="266.23" x2="311.56" y2="286.94"/><line x1="269.73" y1="348.86" x2="285.01" y2="346.00"/><line x1="260.53" y1="318.33" x2="261.05" y2="319.48"/><line x1="254.80" y1="162.14" x2="240.48" y2="166.81"/><line x1="194.63" y1="297.22" x2="196.14" y2="297.56"/><line x1="291.15" y1="367.77" x2="286.87" y2="401.77"/><line x1="243.63" y1="184.36" x2="245.08" y2="189.22"/><line x1="217.64" y1="241.89" x2="218.78" y2="240.61"/><line x1="250.46" y1="158.02" x2="251.17" y2="158.47"/><line x1="275.21" y1="313.28" x2="258.49" y2="314.17"/><line x1="240.48" y1="166.81" x2="255.54" y2="163.14"/><line x1="275.58" y1="204.35" x2="277.69" y2="208.23"/><line x1="291.90" y1="366.26" x2="314.84" y2="420.48"/><line x1="255.24" y1="260.37" x2="262.08" y2="273.65"/><line x1="291.90" y1="366.26" x2="315.66" y2="388.25"/><line x1="32.00" y1="447.50" x2="64.49" y2="479.98"/></g></svg>