<svg xmlns="http://www.w3.org/2000/svg" width="512" height="512"><rect width="512" height="512" fill="#0a0f1a"/><text x="12" y="20" font-family="monospace" font-size="11" fill="#4a7fa5">FRONT (XZ)</text><g stroke="#00d4ff" stroke-width="0.6" opacity="0.85"><line x1="315.28" y1="287.68" x2="273.22" y2="236.83"/><line x1="238.65" y1="303.61" x2="238.19" y2="301.83"/><line x1="171.57" y1="295.24" x2="179.08" y2="277.87"/><line x1="315.28" y1="287.68" x2="278.65" y2="263.17"/><line x1="339.49" y1="280.83" x2="339.37" y2="281.14"/><line x1="324.98" y1="287.90" x2="337.16" y2="287.35"/><line x1="296.71" y1="392.54" x2="259.25" y2="393.45"/><line x1="282.93" y1="291.06" x2="282.66" y2="291.20"/><line x1="309.14" y1="443.95" x2="321.31" y2="426.34"/><line x1="235.09" y1="278.00" x2="212.93" y2="229.16"/><line x1="291.77" y1="233.07" x2="290.74" y2="232.44"/><line x1="283.85" y1="290.17" x2="315.37" y2="297.59"/><line x1="259.25" y1="393.45" x2="280.62" y2="372.51"/><line x1="226.69" y1="343.89" x2="223.19" y2="339.91"/><line x1="295.93" y1="325.05" x2="293.80" y2="324.50"/><line x1="321.31" y1="426.34" x2="320.32" y2="424.87"/><line x1="307.72" y1="248.56" x2="315.95" y2="285.09"/><line x1="315.56" y1="445.30" x2="312.36" y2="444.80"/><line x1="234.51" y1="280.74" x2="188.21" y2="224.09"/><line x1="187.72" y1="224.65" x2="187.32" y2="225.27"/><line x1="282.44" y1="275.78" x2="283.25" y2="279.33"/><line x1="234.51" y1="280.74" x2="186.67" y2="229.52"/><line x1="223.19" y1="339.91" x2="219.45" y2="335.91"/><line x1="234.51" y1="280.74" x2="189.31" y2="240.59"/><line x1="323.51" y1="444.61" x2="326.30" y2="441.24"/><line x1="253.79" y1="290.55" x2="264.71" y2="279.73"/><line x1="234.51" y1="280.74" x2="202.43" y2="277.79"/><line x1="333.00" y1="270.58" x2="330.73" y2="268.89"/><line x1="308.78" y1="408.43" x2="309.33" y2="409.65"/><line x1="337.16" y1="287.35" x2="337.58" y2="286.27"/><line x1="255.38" y1="344.05" x2="255.15" y2="343.59"/><line x1="315.28" y1="287.68" x2="275.55" y2="232.25"/><line x1="283.25" y1="279.33" x2="283.82" y2="282.56"/><line x1="314.95" y1="309.86" x2="315.04" y2="310.38"/><line x1="309.40" y1="410.07" x2="309.51" y2="410.56"/><line x1="315.28" y1="287.68" x2="273.47" y2="244.35"/><line x1="326.30" y1="441.24" x2="322.73" y2="444.92"/><line x1="284.28" y1="288.05" x2="284.27" y2="288.57"/><line x1="264.71" y1="279.73" x2="252.01" y2="288.29"/><line x1="315.28" y1="287.68" x2="283.25" y2="279.33"/><line x1="234.79" y1="280.02" x2="234.71" y2="280.28"/><line x1="284.63" y1="230.14" x2="283.61" y2="230.02"/><line x1="255.15" y1="343.59" x2="254.93" y2="343.10"/><line x1="202.08" y1="319.82" x2="209.29" y2="305.52"/><line x1="315.04" y1="310.38" x2="315.13" y2="310.88"/><line x1="232.26" y1="248.17" x2="231.17" y2="247.27"/><line x1="282.74" y1="317.81" x2="281.22" y2="316.11"/><line x1="225.07" y1="241.76" x2="235.18" y2="277.54"/><line x1="317.49" y1="420.35" x2="316.59" y2="418.82"/><line x1="234.71" y1="280.28" x2="234.62" y2="280.53"/><line x1="186.64" y1="229.15" x2="186.67" y2="229.52"/><line x1="284.27" y1="288.57" x2="314.92" y2="291.31"/><line x1="229.96" y1="347.86" x2="237.75" y2="299.97"/><line x1="209.29" y1="305.52" x2="207.92" y2="304.66"/><line x1="281.22" y1="316.11" x2="279.79" y2="314.23"/><line x1="242.12" y1="279.45" x2="241.01" y2="278.58"/><line x1="321.47" y1="262.14" x2="319.58" y2="260.66"/><line x1="277.23" y1="309.95" x2="281.46" y2="291.44"/><line x1="234.51" y1="280.74" x2="191.96" y2="222.30"/><line x1="186.67" y1="229.52" x2="186.71" y2="229.88"/><line x1="307.48" y1="407.11" x2="307.09" y2="406.74"/><line x1="336.35" y1="289.39" x2="336.76" y2="288.39"/><line x1="234.51" y1="280.74" x2="186.80" y2="226.71"/><line x1="314.92" y1="291.31" x2="284.21" y2="289.04"/><line x1="338.83" y1="282.73" x2="338.41" y2="283.96"/><line x1="315.39" y1="313.04" x2="315.40" y2="313.41"/><line x1="234.51" y1="280.74" x2="186.90" y2="230.95"/><line x1="326.62" y1="437.96" x2="326.57" y2="437.37"/><line x1="234.51" y1="280.74" x2="197.72" y2="266.44"/><line x1="241.01" y1="278.58" x2="239.92" y2="277.79"/><line x1="209.49" y1="225.78" x2="208.43" y2="225.08"/><line x1="315.28" y1="287.68" x2="289.72" y2="231.87"/><line x1="277.16" y1="231.14" x2="276.32" y2="231.65"/><line x1="315.28" y1="287.68" x2="280.18" y2="230.17"/><line x1="253.75" y1="340.33" x2="253.53" y2="339.74"/><line x1="316.99" y1="283.53" x2="316.61" y2="283.93"/><line x1="315.40" y1="313.41" x2="315.41" y2="313.74"/><line x1="315.28" y1="287.68" x2="273.48" y2="235.70"/><line x1="281.46" y1="291.44" x2="275.46" y2="309.09"/><line x1="315.28" y1="287.68" x2="277.15" y2="258.67"/><line x1="316.61" y1="283.93" x2="316.26" y2="284.45"/><line x1="315.28" y1="287.68" x2="315.13" y2="288.77"/><line x1="208.43" y1="225.08" x2="207.29" y2="224.45"/><line x1="187.78" y1="234.97" x2="188.23" y2="236.74"/><line x1="276.32" y1="231.65" x2="275.55" y2="232.25"/><line x1="324.98" y1="287.90" x2="336.76" y2="288.39"/><line x1="210.49" y1="306.17" x2="202.08" y2="319.82"/><line x1="315.01" y1="295.43" x2="283.85" y2="290.17"/><line x1="275.46" y1="309.09" x2="273.67" y2="308.12"/><line x1="318.41" y1="283.01" x2="317.90" y2="283.06"/><line x1="235.83" y1="275.30" x2="231.17" y2="247.27"/><line x1="188.23" y1="236.74" x2="188.74" y2="238.61"/><line x1="229.96" y1="347.86" x2="240.16" y2="308.58"/><line x1="283.85" y1="290.17" x2="315.19" y2="296.52"/><line x1="232.98" y1="351.82" x2="252.75" y2="337.38"/><line x1="229.96" y1="347.86" x2="226.69" y2="343.89"/><line x1="283.67" y1="290.45" x2="283.44" y2="290.69"/><line x1="234.51" y1="280.74" x2="210.47" y2="226.53"/><line x1="231.17" y1="247.27" x2="230.04" y2="246.31"/><line x1="234.51" y1="280.74" x2="198.76" y2="222.16"/><line x1="480.00" y1="32.02" x2="447.51" y2="32.02"/><line x1="315.56" y1="445.30" x2="322.99" y2="428.70"/><line x1="307.72" y1="248.56" x2="316.26" y2="284.45"/><line x1="200.38" y1="222.35" x2="198.76" y2="222.16"/><line x1="234.51" y1="280.74" x2="188.78" y2="223.61"/><line x1="283.44" y1="290.69" x2="314.28" y2="306.88"/><line x1="234.51" y1="280.74" x2="186.64" y2="229.15"/><line x1="313.06" y1="321.90" x2="312.21" y2="322.80"/><line x1="234.51" y1="280.74" x2="188.74" y2="238.61"/><line x1="235.46" y1="276.51" x2="235.31" y2="277.05"/><line x1="315.28" y1="287.68" x2="294.90" y2="235.34"/><line x1="198.76" y1="222.16" x2="197.06" y2="222.05"/><line x1="275.06" y1="416.45" x2="298.26" y2="394.68"/><line x1="315.28" y1="287.68" x2="285.65" y2="230.33"/><line x1="273.07" y1="238.06" x2="273.02" y2="239.41"/><line x1="315.95" y1="300.60" x2="316.16" y2="301.54"/><line x1="315.28" y1="287.68" x2="276.32" y2="231.65"/><line x1="266.45" y1="303.23" x2="264.63" y2="301.75"/><line x1="315.28" y1="287.68" x2="273.13" y2="241.70"/><line x1="282.38" y1="291.31" x2="287.87" y2="321.90"/><line x1="198.64" y1="268.49" x2="199.57" y2="270.65"/><line x1="309.51" y1="410.56" x2="307.48" y2="407.11"/><line x1="232.26" y1="248.17" x2="235.83" y2="275.30"/><line x1="269.34" y1="283.40" x2="267.84" y2="282.24"/><line x1="322.99" y1="428.70" x2="322.32" y2="427.79"/><line x1="326.64" y1="438.52" x2="326.62" y2="437.96"/><line x1="225.07" y1="241.76" x2="235.31" y2="277.05"/><line x1="235.83" y1="275.30" x2="235.63" y2="275.92"/><line x1="278.09" y1="230.73" x2="277.16" y2="231.14"/><line x1="232.98" y1="351.82" x2="253.75" y2="340.33"/><line x1="229.96" y1="347.86" x2="238.19" y2="301.83"/><line x1="324.18" y1="444.23" x2="325.69" y2="442.66"/><line x1="303.77" y1="403.72" x2="282.25" y2="424.81"/><line x1="257.37" y1="294.73" x2="255.58" y2="292.69"/><line x1="341.30" y1="278.04" x2="341.51" y2="277.87"/><line x1="234.51" y1="280.74" x2="206.07" y2="223.89"/><line x1="234.51" y1="280.74" x2="192.98" y2="222.14"/><line x1="266.51" y1="356.44" x2="255.60" y2="344.49"/><line x1="336.35" y1="289.39" x2="334.00" y2="295.24"/><line x1="234.51" y1="280.74" x2="187.02" y2="225.96"/><line x1="191.99" y1="311.70" x2="200.89" y2="299.05"/><line x1="234.51" y1="280.74" x2="186.83" y2="230.60"/><line x1="305.88" y1="442.77" x2="302.62" y2="441.24"/><line x1="315.03" y1="256.76" x2="316.61" y2="283.93"/><line x1="315.28" y1="287.68" x2="290.74" y2="232.44"/><line x1="282.25" y1="424.81" x2="285.77" y2="428.44"/><line x1="215.45" y1="331.90" x2="211.23" y2="327.89"/><line x1="315.28" y1="287.68" x2="281.35" y2="230.03"/><line x1="200.89" y1="299.05" x2="198.74" y2="297.11"/><line x1="315.28" y1="287.68" x2="273.84" y2="234.67"/><line x1="319.36" y1="423.38" x2="318.41" y2="421.87"/><line x1="326.17" y1="435.35" x2="325.95" y2="434.60"/><line x1="282.38" y1="291.31" x2="298.15" y2="325.44"/><line x1="328.27" y1="267.13" x2="325.82" y2="265.38"/><line x1="282.38" y1="291.31" x2="281.22" y2="316.11"/><line x1="316.61" y1="283.93" x2="307.72" y2="248.56"/><line x1="285.77" y1="428.44" x2="289.24" y2="431.72"/><line x1="210.49" y1="306.17" x2="206.77" y2="323.86"/><line x1="252.58" y1="336.78" x2="229.96" y2="347.86"/><line x1="313.78" y1="320.86" x2="313.06" y2="321.90"/><line x1="325.95" y1="434.60" x2="325.71" y2="433.81"/><line x1="318.41" y1="283.01" x2="323.55" y2="263.71"/><line x1="340.36" y1="279.12" x2="340.20" y2="279.38"/><line x1="273.22" y1="236.83" x2="273.07" y2="238.06"/><line x1="197.15" y1="315.76" x2="202.89" y2="300.78"/><line x1="229.96" y1="347.86" x2="247.22" y2="324.94"/><line x1="321.87" y1="445.16" x2="320.92" y2="445.33"/><line x1="232.98" y1="351.82" x2="252.92" y2="337.97"/><line x1="178.16" y1="301.49" x2="177.34" y2="300.83"/><line x1="268.27" y1="304.61" x2="266.45" y2="303.23"/><line x1="234.51" y1="280.74" x2="211.37" y2="227.35"/><line x1="340.20" y1="279.38" x2="340.04" y2="279.66"/><line x1="234.51" y1="280.74" x2="200.38" y2="222.35"/><line x1="480.00" y1="32.02" x2="480.00" y2="64.50"/><line x1="338.83" y1="282.73" x2="324.98" y2="287.90"/><line x1="197.72" y1="266.44" x2="198.64" y2="268.49"/><line x1="300.82" y1="398.42" x2="275.06" y2="416.45"/><line x1="234.51" y1="280.74" x2="189.44" y2="223.18"/><line x1="283.44" y1="290.69" x2="315.95" y2="300.60"/><line x1="319.88" y1="445.44" x2="318.74" y2="445.48"/><line x1="177.34" y1="300.83" x2="176.58" y2="300.19"/><line x1="211.82" y1="304.48" x2="204.39" y2="283.11"/><line x1="324.14" y1="430.46" x2="323.60" y2="429.59"/><line x1="235.46" y1="276.51" x2="225.07" y2="241.76"/><line x1="480.00" y1="479.91" x2="480.00" y2="447.42"/><line x1="315.28" y1="287.68" x2="295.96" y2="236.21"/><line x1="314.87" y1="292.75" x2="314.85" y2="294.31"/><line x1="275.06" y1="416.45" x2="299.63" y2="396.64"/><line x1="315.28" y1="287.68" x2="286.67" y2="230.61"/><line x1="282.38" y1="291.31" x2="315.15" y2="316.97"/><line x1="238.19" y1="301.83" x2="237.75" y2="299.97"/><line x1="282.38" y1="291.31" x2="307.59" y2="325.22"/><line x1="306.12" y1="325.52" x2="304.54" y2="325.70"/><line x1="238.85" y1="277.06" x2="237.82" y2="276.40"/><line x1="323.60" y1="429.59" x2="322.99" y2="428.70"/><line x1="282.38" y1="291.31" x2="289.76" y2="322.93"/><line x1="339.37" y1="281.14" x2="339.26" y2="281.46"/><line x1="282.38" y1="291.31" x2="282.09" y2="291.38"/><line x1="191.04" y1="222.53" x2="190.20" y2="222.82"/><line x1="275.89" y1="254.53" x2="277.15" y2="258.67"/><line x1="237.75" y1="299.97" x2="237.34" y2="298.06"/><line x1="280.53" y1="291.26" x2="272.17" y2="285.52"/><line x1="325.26" y1="443.26" x2="324.18" y2="444.23"/><line x1="232.26" y1="248.17" x2="236.81" y2="275.82"/><line x1="269.34" y1="283.40" x2="257.37" y2="294.73"/><line x1="339.26" y1="281.46" x2="338.83" y2="282.73"/><line x1="278.68" y1="420.81" x2="301.83" y2="400.02"/><line x1="235.83" y1="275.30" x2="227.64" y2="244.17"/><line x1="447.51" y1="479.91" x2="480.00" y2="447.42"/><line x1="190.20" y1="222.82" x2="189.44" y2="223.18"/><line x1="314.44" y1="307.52" x2="314.59" y2="308.14"/><line x1="324.18" y1="444.23" x2="324.76" y2="443.78"/><line x1="257.37" y1="294.73" x2="267.84" y2="282.24"/><line x1="235.03" y1="278.41" x2="234.99" y2="278.78"/><line x1="234.51" y1="280.74" x2="207.29" y2="224.45"/><line x1="309.33" y1="409.65" x2="309.40" y2="410.07"/><line x1="289.72" y1="231.87" x2="288.70" y2="231.37"/><line x1="234.51" y1="280.74" x2="194.08" y2="222.04"/><line x1="266.51" y1="356.44" x2="238.29" y2="359.71"/><line x1="336.35" y1="289.39" x2="324.98" y2="287.90"/><line x1="249.26" y1="265.11" x2="238.85" y2="277.06"/><line x1="291.74" y1="323.79" x2="289.76" y2="322.93"/><line x1="305.88" y1="442.77" x2="319.36" y2="423.38"/><line x1="234.99" y1="278.78" x2="234.95" y2="279.12"/><line x1="187.02" y1="225.96" x2="186.80" y2="226.71"/><line x1="308.49" y1="408.12" x2="308.19" y2="407.80"/><line x1="315.28" y1="287.68" x2="291.77" y2="233.07"/><line x1="283.82" y1="282.56" x2="284.16" y2="285.47"/><line x1="282.38" y1="291.31" x2="315.36" y2="312.66"/><line x1="215.45" y1="331.90" x2="210.49" y2="306.17"/><line x1="282.38" y1="291.31" x2="313.06" y2="321.90"/><line x1="326.49" y1="440.41" x2="326.60" y2="439.50"/><line x1="289.76" y1="322.93" x2="287.87" y2="321.90"/><line x1="227.64" y1="244.17" x2="226.37" y2="243.00"/><line x1="282.38" y1="291.31" x2="300.45" y2="325.68"/><line x1="252.01" y1="288.29" x2="263.07" y2="278.37"/><line x1="328.27" y1="267.13" x2="318.41" y2="283.01"/><line x1="282.38" y1="291.31" x2="282.74" y2="317.81"/><line x1="186.80" y1="226.71" x2="186.66" y2="227.53"/><line x1="315.13" y1="310.88" x2="315.20" y2="311.36"/><line x1="263.07" y1="278.37" x2="261.37" y2="276.96"/><line x1="234.62" y1="280.53" x2="234.51" y2="280.74"/><line x1="307.09" y1="406.74" x2="303.77" y2="403.72"/><line x1="284.21" y1="289.04" x2="284.13" y2="289.46"/><line x1="197.15" y1="315.76" x2="204.72" y2="302.29"/><line x1="315.20" y1="311.36" x2="315.26" y2="311.82"/><line x1="279.79" y1="314.23" x2="278.46" y2="312.17"/><line x1="317.42" y1="283.24" x2="316.99" y2="283.53"/><line x1="234.51" y1="280.74" x2="212.19" y2="228.22"/><line x1="186.71" y1="229.88" x2="186.76" y2="230.24"/><line x1="309.66" y1="411.10" x2="309.83" y2="411.71"/><line x1="272.17" y1="285.52" x2="260.98" y2="298.46"/><line x1="319.88" y1="445.44" x2="326.34" y2="436.06"/><line x1="278.46" y1="312.17" x2="277.23" y2="309.95"/><line x1="340.19" y1="276.56" x2="338.67" y2="275.18"/><line x1="317.87" y1="259.27" x2="316.36" y2="257.97"/><line x1="235.76" y1="355.77" x2="254.70" y2="342.59"/><line x1="186.76" y1="230.24" x2="186.83" y2="230.60"/><line x1="480.00" y1="479.91" x2="447.51" y2="479.91"/><line x1="282.38" y1="291.31" x2="315.04" y2="310.38"/><line x1="282.38" y1="291.31" x2="315.34" y2="315.42"/><line x1="273.67" y1="308.12" x2="271.88" y2="307.06"/><line x1="198.74" y1="297.11" x2="179.08" y2="277.87"/><line x1="282.38" y1="291.31" x2="308.93" y2="324.79"/><line x1="238.85" y1="277.06" x2="232.26" y2="248.17"/><line x1="282.38" y1="291.31" x2="291.74" y2="323.79"/><line x1="280.62" y1="372.51" x2="266.51" y2="356.44"/><line x1="315.34" y1="315.42" x2="315.15" y2="316.97"/><line x1="280.53" y1="291.26" x2="270.08" y2="305.89"/><line x1="320.32" y1="424.87" x2="305.88" y2="442.77"/><line x1="206.07" y1="223.89" x2="204.77" y2="223.39"/><line x1="278.68" y1="420.81" x2="302.66" y2="401.43"/><line x1="315.37" y1="297.59" x2="315.55" y2="298.62"/><line x1="320.92" y1="445.33" x2="319.88" y2="445.44"/><line x1="211.82" y1="304.48" x2="234.51" y2="280.74"/><line x1="219.45" y1="335.91" x2="215.45" y2="331.90"/><line x1="337.99" y1="285.13" x2="338.41" y2="283.96"/><line x1="309.33" y1="409.65" x2="308.49" y2="408.12"/><line x1="340.19" y1="276.56" x2="340.90" y2="278.43"/><line x1="249.26" y1="265.11" x2="239.92" y2="277.79"/><line x1="325.05" y1="432.17" x2="324.62" y2="431.33"/><line x1="322.73" y1="444.92" x2="326.49" y2="440.41"/><line x1="235.76" y1="355.77" x2="232.98" y2="351.82"/><line x1="314.28" y1="306.88" x2="283.19" y2="290.89"/><line x1="254.93" y1="343.10" x2="254.70" y2="342.59"/><line x1="282.38" y1="291.31" x2="315.32" y2="312.25"/><line x1="198.74" y1="297.11" x2="177.34" y2="300.83"/><line x1="282.38" y1="291.31" x2="313.78" y2="320.86"/><line x1="326.49" y1="440.41" x2="321.87" y2="445.16"/><line x1="282.38" y1="291.31" x2="302.83" y2="325.76"/><line x1="282.59" y1="229.98" x2="281.35" y2="230.03"/><line x1="211.82" y1="304.48" x2="223.19" y2="339.91"/><line x1="254.70" y1="342.59" x2="254.47" y2="342.06"/><line x1="318.74" y1="445.48" x2="325.41" y2="433.00"/><line x1="207.92" y1="304.66" x2="197.15" y2="315.76"/><line x1="235.18" y1="277.54" x2="235.09" y2="278.00"/><line x1="296.00" y1="437.18" x2="292.64" y2="434.63"/><line x1="309.03" y1="408.72" x2="308.78" y2="408.43"/><line x1="271.38" y1="411.73" x2="259.25" y2="393.45"/><line x1="307.09" y1="406.74" x2="309.66" y2="411.10"/><line x1="284.21" y1="289.04" x2="314.87" y2="292.75"/><line x1="197.15" y1="315.76" x2="206.40" y2="303.58"/><line x1="319.16" y1="283.38" x2="339.89" y2="279.94"/><line x1="322.32" y1="427.79" x2="321.31" y2="426.34"/><line x1="326.57" y1="437.37" x2="319.88" y2="445.44"/><line x1="267.84" y1="282.24" x2="266.30" y2="281.02"/><line x1="310.03" y1="412.38" x2="292.64" y2="434.63"/><line x1="319.16" y1="283.38" x2="335.07" y2="272.19"/><line x1="239.92" y1="277.79" x2="238.85" y2="277.06"/><line x1="309.28" y1="409.29" x2="309.33" y2="409.65"/><line x1="317.42" y1="283.24" x2="317.87" y2="259.27"/><line x1="309.66" y1="411.10" x2="303.77" y2="403.72"/><line x1="253.53" y1="339.74" x2="253.31" y2="339.15"/><line x1="272.17" y1="285.52" x2="262.80" y2="300.16"/><line x1="315.41" y1="313.74" x2="315.34" y2="315.42"/><line x1="255.58" y1="292.69" x2="253.79" y2="290.55"/><line x1="212.93" y1="229.16" x2="234.51" y2="280.74"/><line x1="319.88" y1="445.44" x2="326.47" y2="436.73"/><line x1="207.29" y1="224.45" x2="206.07" y2="223.89"/><line x1="235.76" y1="355.77" x2="254.93" y2="343.10"/><line x1="275.55" y1="232.25" x2="274.88" y2="232.95"/><line x1="282.38" y1="291.31" x2="314.95" y2="309.86"/><line x1="253.31" y1="339.15" x2="253.12" y2="338.56"/><line x1="330.73" y1="268.89" x2="328.27" y2="267.13"/><line x1="198.74" y1="297.11" x2="186.59" y2="307.63"/><line x1="282.38" y1="291.31" x2="315.41" y2="313.74"/><line x1="273.67" y1="308.12" x2="280.53" y2="291.26"/><line x1="198.74" y1="297.11" x2="171.57" y2="295.24"/><line x1="340.90" y1="278.43" x2="340.72" y2="278.64"/><line x1="315.19" y1="296.52" x2="315.37" y2="297.59"/><line x1="186.59" y1="307.63" x2="180.96" y2="303.54"/><line x1="283.61" y1="230.02" x2="282.59" y2="229.98"/><line x1="230.04" y1="246.31" x2="228.86" y2="245.27"/><line x1="316.26" y1="284.45" x2="315.95" y2="285.09"/><line x1="278.68" y1="420.81" x2="303.31" y2="402.67"/><line x1="316.59" y1="418.82" x2="296.00" y2="437.18"/><line x1="320.92" y1="445.33" x2="326.57" y2="437.37"/><line x1="312.21" y1="322.80" x2="311.24" y2="323.58"/><line x1="325.41" y1="433.00" x2="325.05" y2="432.17"/><line x1="319.16" y1="283.38" x2="339.37" y2="281.14"/><line x1="319.16" y1="283.38" x2="318.41" y2="283.01"/><line x1="282.66" y1="291.20" x2="282.38" y2="291.31"/><line x1="289.24" y1="431.72" x2="292.64" y2="434.63"/><line x1="273.02" y1="239.41" x2="273.13" y2="241.70"/><line x1="240.16" y1="308.58" x2="239.63" y2="306.99"/><line x1="319.58" y1="260.66" x2="317.42" y2="283.24"/><line x1="212.93" y1="229.16" x2="234.91" y2="279.44"/><line x1="340.19" y1="276.56" x2="341.10" y2="278.23"/><line x1="264.63" y1="301.75" x2="262.80" y2="300.16"/><line x1="339.89" y1="279.94" x2="339.75" y2="280.23"/><line x1="298.26" y1="394.68" x2="296.71" y2="392.54"/><line x1="237.34" y1="298.06" x2="236.95" y2="296.08"/><line x1="314.28" y1="306.88" x2="316.16" y2="301.54"/><line x1="282.38" y1="291.31" x2="315.26" y2="311.82"/><line x1="175.87" y1="299.55" x2="175.23" y2="298.92"/><line x1="198.74" y1="297.11" x2="178.16" y2="301.49"/><line x1="312.36" y1="444.80" x2="309.14" y2="443.95"/><line x1="235.31" y1="277.05" x2="235.18" y2="277.54"/><line x1="310.03" y1="412.38" x2="289.24" y2="431.72"/><line x1="294.90" y1="235.34" x2="293.85" y2="234.52"/><line x1="200.51" y1="272.92" x2="201.46" y2="275.30"/><line x1="341.10" y1="278.23" x2="340.90" y2="278.43"/><line x1="211.82" y1="304.48" x2="226.69" y2="343.89"/><line x1="318.74" y1="445.48" x2="325.71" y2="433.81"/><line x1="302.83" y1="325.76" x2="300.45" y2="325.68"/><line x1="309.03" y1="408.72" x2="309.27" y2="408.99"/><line x1="238.29" y1="359.71" x2="235.76" y2="355.77"/><line x1="278.65" y1="263.17" x2="280.15" y2="267.70"/><line x1="314.72" y1="308.74" x2="314.84" y2="309.30"/><line x1="188.74" y1="238.61" x2="189.31" y2="240.59"/><line x1="319.16" y1="283.38" x2="340.04" y2="279.66"/><line x1="267.84" y1="282.24" x2="255.58" y2="292.69"/><line x1="319.16" y1="283.38" x2="336.97" y2="273.72"/><line x1="188.78" y1="223.61" x2="188.21" y2="224.09"/><line x1="325.71" y1="433.81" x2="325.41" y2="433.00"/><line x1="255.60" y1="344.49" x2="255.38" y2="344.05"/><line x1="234.51" y1="280.74" x2="201.46" y2="275.30"/><line x1="272.17" y1="285.52" x2="264.63" y2="301.75"/><line x1="302.62" y1="441.24" x2="299.32" y2="439.38"/><line x1="212.93" y1="229.16" x2="234.62" y2="280.53"/><line x1="340.19" y1="276.56" x2="319.16" y2="283.38"/><line x1="297.03" y1="237.15" x2="295.96" y2="236.21"/><line x1="309.40" y1="410.07" x2="307.85" y2="407.46"/><line x1="284.28" y1="288.05" x2="315.00" y2="289.98"/><line x1="315.28" y1="287.68" x2="282.44" y2="275.78"/><line x1="197.06" y1="222.05" x2="195.27" y2="222.01"/><line x1="314.28" y1="306.88" x2="314.44" y2="307.52"/><line x1="324.98" y1="287.90" x2="338.41" y2="283.96"/><line x1="198.74" y1="297.11" x2="175.23" y2="298.92"/><line x1="234.91" y1="279.44" x2="234.86" y2="279.74"/><line x1="247.22" y1="324.94" x2="240.16" y2="308.58"/><line x1="211.82" y1="304.48" x2="210.49" y2="306.17"/><line x1="326.60" y1="439.50" x2="326.64" y2="438.52"/><line x1="199.57" y1="270.65" x2="200.51" y2="272.92"/><line x1="243.26" y1="280.38" x2="242.12" y2="279.45"/><line x1="323.55" y1="263.71" x2="321.47" y2="262.14"/><line x1="186.62" y1="228.41" x2="186.63" y2="228.78"/><line x1="480.00" y1="64.50" x2="447.51" y2="32.02"/><line x1="277.23" y1="309.95" x2="281.78" y2="291.43"/><line x1="319.16" y1="283.38" x2="339.49" y2="280.83"/><line x1="282.66" y1="291.20" x2="314.72" y2="308.74"/><line x1="284.13" y1="289.46" x2="284.01" y2="289.84"/><line x1="234.51" y1="280.74" x2="191.32" y2="247.14"/><line x1="299.63" y1="396.64" x2="298.26" y2="394.68"/><line x1="319.16" y1="283.38" x2="324.98" y2="287.90"/><line x1="189.44" y1="223.18" x2="188.78" y2="223.61"/><line x1="212.93" y1="229.16" x2="234.95" y2="279.12"/><line x1="316.99" y1="283.53" x2="315.03" y2="256.76"/><line x1="314.85" y1="294.31" x2="315.01" y2="295.43"/><line x1="315.28" y1="287.68" x2="275.89" y2="254.53"/><line x1="237.34" y1="298.06" x2="211.82" y2="304.48"/><line x1="315.28" y1="287.68" x2="284.28" y2="288.05"/><line x1="326.34" y1="436.06" x2="326.17" y2="435.35"/><line x1="324.98" y1="287.90" x2="334.00" y2="295.24"/><line x1="312.36" y1="444.80" x2="322.32" y2="427.79"/><line x1="340.54" y1="278.87" x2="340.36" y2="279.12"/><line x1="338.67" y1="275.18" x2="336.97" y2="273.72"/><line x1="261.37" y1="276.96" x2="249.26" y2="265.11"/><line x1="303.77" y1="403.72" x2="303.31" y2="402.67"/><line x1="283.67" y1="290.45" x2="315.75" y2="299.62"/><line x1="238.29" y1="359.71" x2="255.60" y2="344.49"/><line x1="314.72" y1="308.74" x2="282.38" y2="291.31"/><line x1="315.56" y1="445.30" x2="323.60" y2="429.59"/><line x1="270.08" y1="305.89" x2="268.27" y2="304.61"/><line x1="319.16" y1="283.38" x2="340.20" y2="279.38"/><line x1="234.51" y1="280.74" x2="186.63" y2="228.78"/><line x1="310.03" y1="412.38" x2="316.59" y2="418.82"/><line x1="287.69" y1="230.95" x2="286.67" y2="230.61"/><line x1="234.51" y1="280.74" x2="188.23" y2="236.74"/><line x1="340.04" y1="279.66" x2="339.89" y2="279.94"/><line x1="234.51" y1="280.74" x2="200.51" y2="272.92"/><line x1="287.87" y1="321.90" x2="286.07" y2="320.71"/><line x1="235.63" y1="275.92" x2="235.46" y2="276.51"/><line x1="302.62" y1="441.24" x2="318.41" y2="421.87"/><line x1="315.95" y1="300.60" x2="314.28" y2="306.88"/><line x1="297.03" y1="237.15" x2="315.28" y2="287.68"/><line x1="315.28" y1="287.68" x2="277.16" y2="231.14"/><line x1="176.58" y1="300.19" x2="175.87" y2="299.55"/><line x1="309.40" y1="410.07" x2="308.19" y2="407.80"/><line x1="315.28" y1="287.68" x2="273.02" y2="239.41"/><line x1="284.28" y1="288.05" x2="315.13" y2="288.77"/><line x1="315.28" y1="287.68" x2="281.41" y2="271.90"/><line x1="295.96" y1="236.21" x2="294.90" y2="235.34"/><line x1="324.98" y1="287.90" x2="337.99" y2="285.13"/><line x1="325.82" y1="265.38" x2="323.55" y2="263.71"/><line x1="304.54" y1="325.70" x2="302.83" y2="325.76"/><line x1="322.99" y1="428.70" x2="312.36" y2="444.80"/><line x1="315.26" y1="311.82" x2="315.32" y2="312.25"/><line x1="309.14" y1="443.95" x2="305.88" y2="442.77"/><line x1="270.78" y1="284.49" x2="269.34" y2="283.40"/><line x1="326.60" y1="439.50" x2="320.92" y2="445.33"/><line x1="277.15" y1="258.67" x2="278.65" y2="263.17"/><line x1="229.96" y1="347.86" x2="238.65" y2="303.61"/><line x1="259.25" y1="393.45" x2="238.29" y2="359.71"/><line x1="303.77" y1="403.72" x2="310.03" y2="412.38"/><line x1="280.18" y1="230.17" x2="279.09" y2="230.40"/><line x1="277.23" y1="309.95" x2="282.09" y2="291.38"/><line x1="307.72" y1="248.56" x2="297.03" y2="237.15"/><line x1="314.59" y1="308.14" x2="314.72" y2="308.74"/><line x1="234.51" y1="280.74" x2="187.32" y2="225.27"/><line x1="234.51" y1="280.74" x2="186.76" y2="230.24"/><line x1="284.13" y1="289.46" x2="314.85" y2="294.31"/><line x1="234.51" y1="280.74" x2="190.60" y2="244.85"/><line x1="204.72" y1="302.29" x2="202.89" y2="300.78"/><line x1="288.70" y1="231.37" x2="287.69" y2="230.95"/><line x1="234.51" y1="280.74" x2="204.39" y2="283.11"/><line x1="315.28" y1="287.68" x2="282.59" y2="229.98"/><line x1="316.99" y1="283.53" x2="316.36" y2="257.97"/><line x1="315.28" y1="287.68" x2="274.31" y2="233.76"/><line x1="319.36" y1="423.38" x2="302.62" y2="441.24"/><line x1="234.95" y1="279.12" x2="234.91" y2="279.44"/><line x1="315.28" y1="287.68" x2="274.85" y2="250.77"/><line x1="315.15" y1="316.97" x2="314.82" y2="318.40"/><line x1="299.32" y1="439.38" x2="296.00" y2="437.18"/><line x1="315.28" y1="287.68" x2="284.16" y2="285.47"/><line x1="326.34" y1="436.06" x2="318.74" y2="445.48"/><line x1="284.16" y1="285.47" x2="284.28" y2="288.05"/><line x1="210.49" y1="306.17" x2="211.23" y2="327.89"/><line x1="32.16" y1="32.09" x2="32.16" y2="64.58"/><line x1="274.31" y1="233.76" x2="273.84" y2="234.67"/><line x1="202.08" y1="319.82" x2="197.15" y2="315.76"/><line x1="318.41" y1="283.01" x2="325.82" y2="265.38"/><line x1="186.66" y1="227.53" x2="186.62" y2="228.41"/><line x1="317.90" y1="283.06" x2="317.42" y2="283.24"/><line x1="340.54" y1="278.87" x2="319.16" y2="283.38"/><line x1="315.69" y1="285.83" x2="315.47" y2="286.70"/><line x1="321.87" y1="445.16" x2="326.60" y2="439.50"/><line x1="232.98" y1="351.82" x2="253.12" y2="338.56"/><line x1="229.96" y1="347.86" x2="211.82" y2="304.48"/><line x1="261.37" y1="276.96" x2="243.26" y2="280.38"/><line x1="303.77" y1="403.72" x2="278.68" y2="420.81"/><line x1="283.67" y1="290.45" x2="315.55" y2="298.62"/><line x1="281.35" y1="230.03" x2="280.18" y2="230.17"/><line x1="234.51" y1="280.74" x2="201.93" y2="222.62"/><line x1="315.56" y1="445.30" x2="324.14" y2="430.46"/><line x1="254.47" y1="342.06" x2="254.23" y2="341.50"/><line x1="234.51" y1="280.74" x2="190.20" y2="222.82"/><line x1="234.51" y1="280.74" x2="186.62" y2="228.41"/><line x1="234.51" y1="280.74" x2="187.78" y2="234.97"/><line x1="212.19" y1="228.22" x2="211.37" y2="227.35"/><line x1="234.51" y1="280.74" x2="199.57" y2="270.65"/><line x1="314.87" y1="292.75" x2="284.13" y2="289.46"/><line x1="315.28" y1="287.68" x2="287.69" y2="230.95"/><line x1="315.28" y1="287.68" x2="278.09" y2="230.73"/><line x1="315.28" y1="287.68" x2="273.07" y2="238.06"/><line x1="281.46" y1="291.44" x2="280.53" y2="291.26"/><line x1="186.83" y1="230.60" x2="186.90" y2="230.95"/><line x1="315.28" y1="287.68" x2="280.15" y2="267.70"/><line x1="282.38" y1="291.31" x2="277.23" y2="309.95"/><line x1="324.98" y1="287.90" x2="337.58" y2="286.27"/><line x1="296.71" y1="392.54" x2="280.62" y2="372.51"/><line x1="232.26" y1="248.17" x2="237.82" y2="276.40"/><line x1="235.83" y1="275.30" x2="228.86" y2="245.27"/><line x1="309.14" y1="443.95" x2="320.32" y2="424.87"/><line x1="235.09" y1="278.00" x2="235.03" y2="278.41"/><line x1="229.96" y1="347.86" x2="239.13" y2="305.33"/><line x1="303.77" y1="403.72" x2="309.83" y2="411.71"/><line x1="232.98" y1="351.82" x2="229.96" y2="347.86"/><line x1="204.77" y1="223.39" x2="203.39" y2="222.96"/><line x1="234.51" y1="280.74" x2="208.43" y2="225.08"/><line x1="234.51" y1="280.74" x2="195.27" y2="222.01"/><line x1="234.51" y1="280.74" x2="187.72" y2="224.65"/><line x1="271.88" y1="307.06" x2="270.08" y2="305.89"/><line x1="283.44" y1="290.69" x2="283.19" y2="290.89"/><line x1="234.51" y1="280.74" x2="186.71" y2="229.88"/><line x1="234.51" y1="280.74" x2="189.92" y2="242.67"/><line x1="323.51" y1="444.61" x2="322.73" y2="444.92"/><line x1="189.92" y1="242.67" x2="190.60" y2="244.85"/><line x1="308.49" y1="408.12" x2="309.40" y2="410.07"/><line x1="253.79" y1="290.55" x2="252.01" y2="288.29"/><line x1="315.28" y1="287.68" x2="292.81" y2="233.76"/><line x1="236.95" y1="296.08" x2="234.51" y2="280.74"/><line x1="315.28" y1="287.68" x2="283.61" y2="230.02"/><line x1="227.64" y1="244.17" x2="235.63" y2="275.92"/><line x1="315.28" y1="287.68" x2="274.88" y2="232.95"/><line x1="32.00" y1="479.98" x2="64.49" y2="479.98"/><line x1="315.28" y1="287.68" x2="274.05" y2="247.37"/><line x1="282.38" y1="291.31" x2="284.35" y2="319.35"/><line x1="299.32" y1="439.38" x2="316.59" y2="418.82"/><line x1="309.51" y1="410.56" x2="309.66" y2="411.10"/><line x1="260.98" y1="298.46" x2="259.18" y2="296.65"/><line x1="202.08" y1="319.82" x2="207.92" y2="304.66"/><line x1="225.07" y1="241.76" x2="223.73" y2="240.45"/><line x1="317.90" y1="283.06" x2="319.58" y2="260.66"/><line x1="232.98" y1="351.82" x2="253.31" y2="339.15"/><line x1="284.27" y1="288.57" x2="284.21" y2="289.04"/><line x1="229.96" y1="347.86" x2="237.34" y2="298.06"/><line x1="324.18" y1="444.23" x2="323.51" y2="444.61"/><line x1="223.73" y1="240.45" x2="212.93" y2="229.16"/><line x1="234.51" y1="280.74" x2="203.39" y2="222.96"/><line x1="234.51" y1="280.74" x2="191.04" y2="222.53"/><line x1="206.40" y1="303.58" x2="204.72" y2="302.29"/><line x1="234.51" y1="280.74" x2="186.66" y2="227.53"/><line x1="273.47" y1="244.35" x2="274.05" y2="247.37"/><line x1="191.99" y1="311.70" x2="186.59" y2="307.63"/><line x1="317.87" y1="259.27" x2="316.99" y2="283.53"/><line x1="315.28" y1="287.68" x2="288.70" y2="231.37"/><line x1="282.25" y1="424.81" x2="278.68" y2="420.81"/><line x1="266.30" y1="281.02" x2="264.71" y2="279.73"/><line x1="326.47" y1="436.73" x2="326.34" y2="436.06"/><line x1="315.28" y1="287.68" x2="279.09" y2="230.40"/><line x1="282.38" y1="291.31" x2="310.15" y2="324.25"/><line x1="283.19" y1="290.89" x2="282.93" y2="291.06"/><line x1="282.38" y1="291.31" x2="293.80" y2="324.50"/><line x1="281.46" y1="291.44" x2="273.67" y2="308.12"/><line x1="274.88" y1="232.95" x2="274.31" y2="233.76"/><line x1="282.38" y1="291.31" x2="278.46" y2="312.17"/><line x1="253.12" y1="338.56" x2="252.92" y2="337.97"/><line x1="292.81" y1="233.76" x2="291.77" y2="233.07"/><line x1="210.49" y1="306.17" x2="209.29" y2="305.52"/><line x1="315.01" y1="295.43" x2="315.19" y2="296.52"/><line x1="280.53" y1="291.26" x2="271.88" y2="307.06"/><line x1="340.72" y1="278.64" x2="340.54" y2="278.87"/><line x1="189.31" y1="240.59" x2="189.92" y2="242.67"/><line x1="235.83" y1="275.30" x2="230.04" y2="246.31"/><line x1="315.37" y1="297.59" x2="283.67" y2="290.45"/><line x1="180.96" y1="303.54" x2="179.97" y2="302.84"/><line x1="229.96" y1="347.86" x2="239.63" y2="306.99"/><line x1="281.41" y1="271.90" x2="282.44" y2="275.78"/><line x1="228.86" y1="245.27" x2="227.64" y2="244.17"/><line x1="232.98" y1="351.82" x2="252.58" y2="336.78"/><line x1="315.95" y1="285.09" x2="315.69" y2="285.83"/><line x1="315.00" y1="289.98" x2="314.92" y2="291.31"/><line x1="234.51" y1="280.74" x2="209.49" y2="225.78"/><line x1="303.31" y1="402.67" x2="302.66" y2="401.43"/><line x1="234.51" y1="280.74" x2="197.06" y2="222.05"/><line x1="335.07" y1="272.19" x2="333.00" y2="270.58"/><line x1="311.24" y1="323.58" x2="310.15" y2="324.25"/><line x1="249.26" y1="265.11" x2="241.01" y2="278.58"/><line x1="325.05" y1="432.17" x2="315.56" y2="445.30"/><line x1="195.27" y1="222.01" x2="194.08" y2="222.04"/><line x1="273.13" y1="241.70" x2="273.47" y2="244.35"/><line x1="235.76" y1="355.77" x2="253.99" y2="340.92"/><line x1="239.63" y1="306.99" x2="239.13" y2="305.33"/><line x1="315.28" y1="287.68" x2="293.85" y2="234.52"/><line x1="310.15" y1="324.25" x2="308.93" y2="324.79"/><line x1="275.06" y1="416.45" x2="271.38" y2="411.73"/><line x1="315.28" y1="287.68" x2="284.63" y2="230.14"/><line x1="285.65" y1="230.33" x2="284.63" y2="230.14"/><line x1="282.38" y1="291.31" x2="314.37" y2="319.69"/><line x1="262.80" y1="300.16" x2="260.98" y2="298.46"/><line x1="339.75" y1="280.23" x2="339.62" y2="280.53"/><line x1="282.38" y1="291.31" x2="304.54" y2="325.70"/><line x1="194.08" y1="222.04" x2="192.98" y2="222.14"/><line x1="32.00" y1="479.98" x2="32.00" y2="447.50"/><line x1="282.38" y1="291.31" x2="286.07" y2="320.71"/><line x1="299.32" y1="439.38" x2="317.49" y2="420.35"/><line x1="175.23" y1="298.92" x2="171.57" y2="295.24"/><line x1="309.51" y1="410.56" x2="307.09" y2="406.74"/><line x1="260.98" y1="298.46" x2="270.78" y2="284.49"/><line x1="235.18" y1="277.54" x2="223.73" y2="240.45"/><line x1="325.26" y1="443.26" x2="325.69" y2="442.66"/><line x1="293.85" y1="234.52" x2="292.81" y2="233.76"/><line x1="201.46" y1="275.30" x2="202.43" y2="277.79"/><line x1="271.38" y1="411.73" x2="296.71" y2="392.54"/><line x1="278.68" y1="420.81" x2="275.06" y2="416.45"/><line x1="317.90" y1="283.06" x2="321.47" y2="262.14"/><line x1="300.45" y1="325.68" x2="298.15" y2="325.44"/><line x1="322.32" y1="427.79" x2="309.14" y2="443.95"/><line x1="232.98" y1="351.82" x2="253.53" y2="339.74"/><line x1="223.73" y1="240.45" x2="235.09" y2="278.00"/><line x1="324.18" y1="444.23" x2="326.03" y2="441.99"/><line x1="309.28" y1="409.29" x2="308.78" y2="408.43"/><line x1="280.15" y1="267.70" x2="281.41" y2="271.90"/><line x1="341.30" y1="278.04" x2="341.10" y2="278.23"/><line x1="234.51" y1="280.74" x2="204.77" y2="223.39"/><line x1="326.03" y1="441.99" x2="326.30" y2="441.24"/><line x1="298.15" y1="325.44" x2="295.93" y2="325.05"/><line x1="255.58" y1="292.69" x2="266.30" y2="281.02"/><line x1="336.97" y1="273.72" x2="335.07" y2="272.19"/><line x1="191.99" y1="311.70" x2="198.74" y2="297.11"/><line x1="188.21" y1="224.09" x2="187.72" y2="224.65"/><line x1="235.76" y1="355.77" x2="255.15" y2="343.59"/><line x1="282.38" y1="291.31" x2="314.84" y2="309.30"/><line x1="315.03" y1="256.76" x2="307.72" y2="248.56"/><line x1="282.38" y1="291.31" x2="315.40" y2="313.41"/><line x1="318.41" y1="421.87" x2="317.49" y2="420.35"/><line x1="266.30" y1="281.02" x2="253.79" y2="290.55"/><line x1="282.38" y1="291.31" x2="311.24" y2="323.58"/><line x1="286.67" y1="230.61" x2="285.65" y2="230.33"/><line x1="282.38" y1="291.31" x2="295.93" y2="325.05"/><line x1="252.01" y1="288.29" x2="243.26" y2="280.38"/><line x1="336.76" y1="288.39" x2="337.16" y2="287.35"/><line x1="282.38" y1="291.31" x2="279.79" y2="314.23"/><line x1="314.84" y1="309.30" x2="314.95" y2="309.86"/><line x1="286.07" y1="320.71" x2="284.35" y2="319.35"/><line x1="252.58" y1="336.78" x2="247.22" y2="324.94"/><line x1="234.86" y1="279.74" x2="234.79" y2="280.02"/><line x1="307.85" y1="407.46" x2="307.48" y2="407.11"/><line x1="320.92" y1="445.33" x2="326.62" y2="437.96"/><line x1="284.35" y1="319.35" x2="282.74" y2="317.81"/><line x1="197.15" y1="315.76" x2="191.99" y2="311.70"/><line x1="319.16" y1="283.38" x2="328.27" y2="267.13"/><line x1="186.63" y1="228.78" x2="186.64" y2="229.15"/><line x1="253.99" y1="340.92" x2="253.75" y2="340.33"/><line x1="315.00" y1="289.98" x2="284.27" y2="288.57"/><line x1="300.82" y1="398.42" x2="299.63" y2="396.64"/><line x1="340.19" y1="276.56" x2="341.51" y2="277.87"/><line x1="249.26" y1="265.11" x2="242.12" y2="279.45"/><line x1="298.26" y1="394.68" x2="271.38" y2="411.73"/><line x1="235.76" y1="355.77" x2="254.23" y2="341.50"/><line x1="202.89" y1="300.78" x2="200.89" y2="299.05"/><line x1="315.36" y1="312.66" x2="315.39" y2="313.04"/><line x1="282.38" y1="291.31" x2="315.20" y2="311.36"/><line x1="198.74" y1="297.11" x2="179.04" y2="302.16"/><line x1="282.38" y1="291.31" x2="314.82" y2="318.40"/><line x1="210.47" y1="226.53" x2="209.49" y2="225.78"/><line x1="282.38" y1="291.31" x2="306.12" y2="325.52"/><line x1="310.03" y1="412.38" x2="285.77" y2="428.44"/><line x1="284.01" y1="289.84" x2="283.85" y2="290.17"/><line x1="211.82" y1="304.48" x2="236.95" y2="296.08"/><line x1="318.74" y1="445.48" x2="325.95" y2="434.60"/><line x1="325.26" y1="443.26" x2="324.76" y2="443.78"/><line x1="309.03" y1="408.72" x2="309.28" y2="409.29"/><line x1="278.68" y1="420.81" x2="300.82" y2="398.42"/><line x1="325.69" y1="442.66" x2="326.03" y2="441.99"/><line x1="319.16" y1="283.38" x2="338.67" y2="275.18"/><line x1="309.28" y1="409.29" x2="309.27" y2="408.99"/><line x1="255.60" y1="344.49" x2="235.76" y2="355.77"/><line x1="272.17" y1="285.52" x2="266.45" y2="303.23"/><line x1="326.03" y1="441.99" x2="323.51" y2="444.61"/><line x1="212.93" y1="229.16" x2="234.71" y2="280.28"/><line x1="340.19" y1="276.56" x2="340.54" y2="278.87"/><line x1="249.26" y1="265.11" x2="232.26" y2="248.17"/><line x1="315.75" y1="299.62" x2="315.95" y2="300.60"/><line x1="235.76" y1="355.77" x2="255.38" y2="344.05"/><line x1="211.23" y1="327.89" x2="206.77" y2="323.86"/><line x1="314.28" y1="306.88" x2="282.66" y2="291.20"/><line x1="282.38" y1="291.31" x2="315.39" y2="313.04"/><line x1="226.37" y1="243.00" x2="225.07" y2="241.76"/><line x1="318.41" y1="421.87" x2="299.32" y2="439.38"/><line x1="198.74" y1="297.11" x2="175.87" y2="299.55"/><line x1="282.38" y1="291.31" x2="312.21" y2="322.80"/><line x1="308.19" y1="407.80" x2="307.85" y2="407.46"/><line x1="252.01" y1="288.29" x2="261.37" y2="276.96"/><line x1="315.13" y1="288.77" x2="315.00" y2="289.98"/><line x1="206.77" y1="323.86" x2="202.08" y2="319.82"/><line x1="211.82" y1="304.48" x2="215.45" y2="331.90"/><line x1="318.74" y1="445.48" x2="315.56" y2="445.30"/><line x1="243.26" y1="280.38" x2="249.26" y2="265.11"/><line x1="323.55" y1="263.71" x2="317.90" y2="283.06"/><line x1="307.85" y1="407.46" x2="309.51" y2="410.56"/><line x1="254.23" y1="341.50" x2="253.99" y2="340.92"/><line x1="315.32" y1="312.25" x2="315.36" y2="312.66"/><line x1="259.18" y1="296.65" x2="257.37" y2="294.73"/><line x1="320.92" y1="445.33" x2="326.64" y2="438.52"/><line x1="319.16" y1="283.38" x2="339.62" y2="280.53"/><line x1="211.37" y1="227.35" x2="210.47" y2="226.53"/><line x1="319.16" y1="283.38" x2="330.73" y2="268.89"/><line x1="279.09" y1="230.40" x2="278.09" y2="230.73"/><line x1="282.66" y1="291.20" x2="314.59" y2="308.14"/><line x1="253.99" y1="340.92" x2="232.98" y2="351.82"/><line x1="282.09" y1="291.38" x2="281.78" y2="291.43"/><line x1="272.17" y1="285.52" x2="270.78" y2="284.49"/><line x1="212.93" y1="229.16" x2="234.99" y2="278.78"/><line x1="340.19" y1="276.56" x2="341.30" y2="278.04"/><line x1="186.90" y1="230.95" x2="187.37" y2="233.31"/><line x1="309.83" y1="411.71" x2="310.03" y2="412.38"/><line x1="314.85" y1="294.31" x2="284.01" y2="289.84"/><line x1="235.76" y1="355.77" x2="254.47" y2="342.06"/><line x1="202.89" y1="300.78" x2="191.99" y2="311.70"/><line x1="282.38" y1="291.31" x2="315.13" y2="310.88"/><line x1="281.78" y1="291.43" x2="281.46" y2="291.44"/><line x1="237.82" y1="276.40" x2="236.81" y2="275.82"/><line x1="198.74" y1="297.11" x2="179.97" y2="302.84"/><line x1="316.36" y1="257.97" x2="315.03" y2="256.76"/><line x1="187.37" y1="233.31" x2="187.78" y2="234.97"/><line x1="310.03" y1="412.38" x2="282.25" y2="424.81"/><line x1="284.01" y1="289.84" x2="315.01" y2="295.43"/><line x1="314.82" y1="318.40" x2="314.37" y2="319.69"/><line x1="318.74" y1="445.48" x2="326.17" y2="435.35"/><line x1="236.81" y1="275.82" x2="235.83" y2="275.30"/><line x1="203.39" y1="222.96" x2="201.93" y2="222.62"/><line x1="273.84" y1="234.67" x2="273.48" y2="235.70"/><line x1="320.32" y1="424.87" x2="319.36" y2="423.38"/><line x1="252.75" y1="337.38" x2="252.58" y2="336.78"/><line x1="314.37" y1="319.69" x2="313.78" y2="320.86"/><line x1="316.59" y1="418.82" x2="315.71" y2="417.27"/><line x1="270.08" y1="305.89" x2="272.17" y2="285.52"/><line x1="319.16" y1="283.38" x2="340.36" y2="279.12"/><line x1="201.93" y1="222.62" x2="200.38" y2="222.35"/><line x1="64.64" y1="32.09" x2="32.16" y2="64.58"/><line x1="319.16" y1="283.38" x2="338.83" y2="282.73"/><line x1="190.60" y1="244.85" x2="191.32" y2="247.14"/><line x1="273.48" y1="235.70" x2="273.22" y2="236.83"/><line x1="315.55" y1="298.62" x2="315.75" y2="299.62"/><line x1="179.04" y1="302.16" x2="178.16" y2="301.49"/><line x1="272.17" y1="285.52" x2="268.27" y2="304.61"/><line x1="235.63" y1="275.92" x2="226.37" y2="243.00"/><line x1="212.93" y1="229.16" x2="234.79" y2="280.02"/><line x1="340.19" y1="276.56" x2="340.72" y2="278.64"/><line x1="297.03" y1="237.15" x2="315.47" y2="286.70"/><line x1="322.73" y1="444.92" x2="321.87" y2="445.16"/><line x1="191.32" y1="247.14" x2="197.72" y2="266.44"/><line x1="315.75" y1="299.62" x2="283.44" y2="290.69"/><line x1="308.93" y1="324.79" x2="307.59" y2="325.22"/><line x1="324.62" y1="431.33" x2="324.14" y2="430.46"/><line x1="314.28" y1="306.88" x2="282.93" y2="291.06"/><line x1="226.37" y1="243.00" x2="235.46" y2="276.51"/><line x1="192.98" y1="222.14" x2="191.96" y2="222.30"/><line x1="315.47" y1="286.70" x2="315.28" y2="287.68"/><line x1="198.74" y1="297.11" x2="176.58" y2="300.19"/><line x1="274.05" y1="247.37" x2="274.85" y2="250.77"/><line x1="307.59" y1="325.22" x2="306.12" y2="325.52"/><line x1="270.78" y1="284.49" x2="259.18" y2="296.65"/><line x1="211.82" y1="304.48" x2="219.45" y2="335.91"/><line x1="318.74" y1="445.48" x2="325.05" y2="432.17"/><line x1="207.92" y1="304.66" x2="206.40" y2="303.58"/><line x1="191.96" y1="222.30" x2="191.04" y2="222.53"/><line x1="283.85" y1="290.17" x2="283.67" y2="290.45"/><line x1="202.43" y1="277.79" x2="203.40" y2="280.40"/><line x1="259.25" y1="393.45" x2="266.51" y2="356.44"/><line x1="274.85" y1="250.77" x2="275.89" y2="254.53"/><line x1="259.18" y1="296.65" x2="269.34" y2="283.40"/><line x1="307.72" y1="248.56" x2="315.69" y2="285.83"/><line x1="319.16" y1="283.38" x2="339.75" y2="280.23"/><line x1="326.57" y1="437.37" x2="326.47" y2="436.73"/><line x1="203.40" y1="280.40" x2="204.39" y2="283.11"/><line x1="310.03" y1="412.38" x2="315.71" y2="417.27"/><line x1="319.16" y1="283.38" x2="333.00" y2="270.58"/><line x1="282.66" y1="291.20" x2="314.44" y2="307.52"/><line x1="234.51" y1="280.74" x2="203.40" y2="280.40"/><line x1="212.93" y1="229.16" x2="235.03" y2="278.41"/><line x1="308.78" y1="408.43" x2="308.49" y2="408.12"/><line x1="290.74" y1="232.44" x2="289.72" y2="231.87"/><line x1="212.93" y1="229.16" x2="212.19" y2="228.22"/><line x1="252.92" y1="337.97" x2="252.75" y2="337.38"/><line x1="326.30" y1="441.24" x2="326.49" y2="440.41"/><line x1="293.80" y1="324.50" x2="291.74" y2="323.79"/><line x1="264.71" y1="279.73" x2="263.07" y2="278.37"/><line x1="315.28" y1="287.68" x2="283.82" y2="282.56"/><line x1="198.74" y1="297.11" x2="180.96" y2="303.54"/><line x1="187.32" y1="225.27" x2="187.02" y2="225.96"/><line x1="32.16" y1="32.09" x2="64.64" y2="32.09"/><line x1="179.97" y1="302.84" x2="179.04" y2="302.16"/><line x1="315.69" y1="285.83" x2="297.03" y2="237.15"/><line x1="337.58" y1="286.27" x2="337.99" y2="285.13"/><line x1="302.66" y1="401.43" x2="301.83" y2="400.02"/><line x1="316.59" y1="418.82" x2="292.64" y2="434.63"/><line x1="315.56" y1="445.30" x2="324.62" y2="431.33"/><line x1="277.23" y1="309.95" x2="275.46" y2="309.09"/><line x1="319.16" y1="283.38" x2="339.26" y2="281.46"/><line x1="314.92" y1="291.31" x2="314.87" y2="292.75"/><line x1="301.83" y1="400.02" x2="300.82" y2="398.42"/><line x1="234.51" y1="280.74" x2="187.37" y2="233.31"/><line x1="239.13" y1="305.33" x2="238.65" y2="303.61"/><line x1="234.51" y1="280.74" x2="198.64" y2="268.49"/><line x1="319.58" y1="260.66" x2="317.87" y2="259.27"/><line x1="339.62" y1="280.53" x2="339.49" y2="280.83"/><line x1="212.93" y1="229.16" x2="234.86" y2="279.74"/><line x1="32.00" y1="447.50" x2="64.49" y2="479.98"/></g></svg>