<svg xmlns="http://www.w3.org/2000/svg" width="512" height="512"><rect width="512" height="512" fill="#0a0f1a"/><text x="12" y="20" font-family="monospace" font-size="11" fill="#4a7fa5">FRONT (XZ)</text><g stroke="#00d4ff" stroke-width="0.6" opacity="0.85"><line x1="161.61" y1="115.93" x2="161.59" y2="118.62"/><line x1="276.36" y1="299.96" x2="291.20" y2="331.94"/><line x1="276.49" y1="336.08" x2="261.41" y2="312.20"/><line x1="269.37" y1="306.99" x2="280.41" y2="335.12"/><line x1="264.22" y1="217.97" x2="265.47" y2="218.26"/><line x1="212.21" y1="219.68" x2="204.54" y2="228.08"/><line x1="220.10" y1="313.07" x2="219.15" y2="312.95"/><line x1="264.60" y1="242.44" x2="297.45" y2="218.72"/><line x1="228.44" y1="336.79" x2="219.47" y2="333.69"/><line x1="265.47" y1="218.26" x2="266.66" y2="218.52"/><line x1="248.17" y1="173.88" x2="237.18" y2="186.39"/><line x1="211.66" y1="217.37" x2="211.70" y2="217.61"/><line x1="237.18" y1="186.39" x2="250.11" y2="173.99"/><line x1="256.08" y1="198.94" x2="258.31" y2="175.37"/><line x1="337.40" y1="202.20" x2="331.59" y2="199.76"/><line x1="258.31" y1="175.37" x2="259.27" y2="175.55"/><line x1="330.14" y1="204.68" x2="331.00" y2="207.23"/><line x1="264.60" y1="242.44" x2="265.47" y2="218.26"/><line x1="295.46" y1="130.55" x2="293.57" y2="128.56"/><line x1="192.81" y1="319.05" x2="186.25" y2="294.90"/><line x1="331.00" y1="207.23" x2="331.72" y2="210.11"/><line x1="333.97" y1="268.99" x2="333.80" y2="269.68"/><line x1="251.88" y1="174.15" x2="246.39" y2="197.92"/><line x1="253.89" y1="91.30" x2="253.19" y2="90.74"/><line x1="287.32" y1="239.79" x2="327.00" y2="198.89"/><line x1="333.80" y1="269.68" x2="333.60" y2="270.27"/><line x1="218.82" y1="75.06" x2="215.25" y2="104.59"/><line x1="297.45" y1="218.72" x2="294.63" y2="197.13"/><line x1="305.60" y1="323.07" x2="281.23" y2="295.54"/><line x1="215.25" y1="104.59" x2="214.16" y2="104.74"/><line x1="171.92" y1="81.11" x2="171.01" y2="81.75"/><line x1="186.51" y1="125.91" x2="186.63" y2="127.14"/><line x1="285.85" y1="290.96" x2="315.32" y2="313.04"/><line x1="262.77" y1="340.41" x2="261.16" y2="340.58"/><line x1="264.60" y1="242.44" x2="278.87" y2="218.72"/><line x1="171.01" y1="81.75" x2="170.21" y2="82.44"/><line x1="480.00" y1="32.02" x2="447.51" y2="32.02"/><line x1="216.75" y1="312.02" x2="201.66" y2="324.82"/><line x1="161.65" y1="127.72" x2="186.63" y2="127.14"/><line x1="202.67" y1="227.83" x2="203.63" y2="227.99"/><line x1="177.57" y1="289.11" x2="175.78" y2="287.72"/><line x1="174.40" y1="192.17" x2="208.89" y2="182.95"/><line x1="297.45" y1="218.72" x2="336.10" y2="178.14"/><line x1="202.36" y1="155.25" x2="170.73" y2="182.61"/><line x1="175.78" y1="287.72" x2="173.86" y2="286.15"/><line x1="238.38" y1="177.90" x2="237.71" y2="180.21"/><line x1="171.79" y1="284.38" x2="162.62" y2="279.90"/><line x1="356.69" y1="233.59" x2="356.60" y2="234.34"/><line x1="264.60" y1="242.44" x2="251.31" y2="217.52"/><line x1="265.84" y1="198.40" x2="261.52" y2="175.83"/><line x1="212.77" y1="202.76" x2="187.75" y2="223.20"/><line x1="211.82" y1="218.08" x2="203.63" y2="227.99"/><line x1="192.81" y1="319.05" x2="194.39" y2="300.15"/><line x1="356.60" y1="234.34" x2="356.33" y2="235.19"/><line x1="252.21" y1="198.76" x2="254.02" y2="198.86"/><line x1="286.97" y1="122.15" x2="285.18" y2="120.39"/><line x1="256.07" y1="174.91" x2="257.24" y2="175.16"/><line x1="237.90" y1="110.42" x2="246.14" y2="87.61"/><line x1="300.02" y1="135.93" x2="298.68" y2="134.24"/><line x1="246.14" y1="87.61" x2="245.57" y2="87.37"/><line x1="341.87" y1="223.18" x2="337.43" y2="245.26"/><line x1="258.61" y1="95.59" x2="255.17" y2="92.51"/><line x1="210.18" y1="73.09" x2="207.72" y2="72.80"/><line x1="311.37" y1="317.38" x2="309.43" y2="319.39"/><line x1="166.58" y1="87.69" x2="165.92" y2="89.08"/><line x1="283.59" y1="293.77" x2="307.50" y2="321.29"/><line x1="261.41" y1="312.20" x2="265.63" y2="339.95"/><line x1="480.00" y1="479.91" x2="480.00" y2="447.42"/><line x1="187.44" y1="130.64" x2="161.98" y2="136.84"/><line x1="161.59" y1="118.62" x2="161.61" y2="123.48"/><line x1="210.79" y1="191.73" x2="178.77" y2="203.26"/><line x1="447.51" y1="479.91" x2="480.00" y2="447.42"/><line x1="192.63" y1="111.39" x2="191.20" y2="112.48"/><line x1="178.77" y1="203.26" x2="211.50" y2="195.18"/><line x1="205.42" y1="228.11" x2="212.38" y2="220.74"/><line x1="237.45" y1="339.01" x2="236.27" y2="315.48"/><line x1="267.77" y1="218.73" x2="268.82" y2="218.88"/><line x1="162.36" y1="139.88" x2="196.87" y2="142.29"/><line x1="212.38" y1="220.74" x2="212.52" y2="221.73"/><line x1="356.59" y1="189.70" x2="356.63" y2="189.86"/><line x1="240.52" y1="174.81" x2="239.31" y2="176.10"/><line x1="173.86" y1="286.15" x2="171.79" y2="284.38"/><line x1="345.27" y1="225.12" x2="354.50" y2="238.33"/><line x1="237.21" y1="187.12" x2="237.33" y2="187.92"/><line x1="258.39" y1="198.98" x2="260.94" y2="199.00"/><line x1="200.64" y1="227.34" x2="201.67" y2="227.62"/><line x1="297.45" y1="218.72" x2="339.32" y2="179.02"/><line x1="356.63" y1="189.86" x2="356.66" y2="190.02"/><line x1="171.79" y1="284.38" x2="163.70" y2="278.15"/><line x1="273.43" y1="144.05" x2="289.09" y2="124.16"/><line x1="265.84" y1="198.40" x2="270.28" y2="197.90"/><line x1="352.19" y1="186.20" x2="344.91" y2="202.19"/><line x1="330.80" y1="199.45" x2="330.06" y2="199.17"/><line x1="280.87" y1="156.55" x2="302.15" y2="138.99"/><line x1="344.11" y1="224.41" x2="345.27" y2="225.12"/><line x1="332.32" y1="213.29" x2="332.78" y2="216.79"/><line x1="288.99" y1="175.48" x2="286.69" y2="169.15"/><line x1="259.34" y1="125.84" x2="254.18" y2="120.82"/><line x1="214.16" y1="104.74" x2="212.75" y2="104.99"/><line x1="237.90" y1="110.42" x2="243.92" y2="86.40"/><line x1="300.03" y1="260.39" x2="334.36" y2="264.06"/><line x1="299.87" y1="260.96" x2="299.60" y2="261.60"/><line x1="345.27" y1="225.12" x2="339.32" y2="245.64"/><line x1="215.73" y1="74.21" x2="212.85" y2="73.56"/><line x1="280.74" y1="295.89" x2="280.00" y2="296.50"/><line x1="203.78" y1="106.98" x2="187.19" y2="74.73"/><line x1="192.63" y1="111.39" x2="171.01" y2="81.75"/><line x1="259.42" y1="340.69" x2="257.56" y2="340.76"/><line x1="246.57" y1="229.83" x2="255.77" y2="241.41"/><line x1="186.83" y1="128.35" x2="187.09" y2="129.51"/><line x1="208.89" y1="182.95" x2="176.69" y2="197.79"/><line x1="219.47" y1="333.69" x2="220.10" y2="313.07"/><line x1="210.16" y1="308.26" x2="204.31" y2="306.75"/><line x1="345.27" y1="225.12" x2="356.40" y2="232.25"/><line x1="273.45" y1="219.06" x2="274.45" y2="219.03"/><line x1="298.21" y1="240.55" x2="298.21" y2="242.61"/><line x1="203.63" y1="227.99" x2="212.01" y2="218.53"/><line x1="274.45" y1="219.03" x2="275.50" y2="218.97"/><line x1="238.55" y1="191.77" x2="239.05" y2="192.89"/><line x1="239.05" y1="192.89" x2="239.65" y2="193.98"/><line x1="250.11" y1="173.99" x2="238.13" y2="190.71"/><line x1="262.05" y1="175.85" x2="288.99" y2="175.48"/><line x1="356.25" y1="189.02" x2="356.40" y2="189.22"/><line x1="171.51" y1="306.40" x2="159.66" y2="288.16"/><line x1="237.31" y1="183.04" x2="237.18" y2="186.39"/><line x1="355.90" y1="236.14" x2="355.28" y2="237.18"/><line x1="277.35" y1="150.29" x2="295.46" y2="130.55"/><line x1="288.99" y1="175.48" x2="270.28" y2="197.90"/><line x1="344.69" y1="181.50" x2="328.05" y2="198.52"/><line x1="248.89" y1="116.57" x2="261.60" y2="98.26"/><line x1="345.27" y1="225.12" x2="351.12" y2="242.23"/><line x1="243.46" y1="113.11" x2="253.89" y2="91.30"/><line x1="326.90" y1="198.25" x2="273.68" y2="241.47"/><line x1="282.54" y1="117.70" x2="264.35" y2="131.63"/><line x1="224.09" y1="106.98" x2="231.82" y2="79.63"/><line x1="244.83" y1="86.96" x2="243.92" y2="86.40"/><line x1="292.79" y1="272.32" x2="290.91" y2="275.92"/><line x1="216.01" y1="104.54" x2="215.25" y2="104.59"/><line x1="208.93" y1="105.79" x2="205.47" y2="72.70"/><line x1="300.09" y1="259.88" x2="300.03" y2="260.39"/><line x1="234.18" y1="80.54" x2="224.79" y2="107.15"/><line x1="344.69" y1="181.50" x2="352.19" y2="186.20"/><line x1="300.03" y1="327.71" x2="298.32" y2="328.91"/><line x1="298.21" y1="240.55" x2="333.95" y2="220.68"/><line x1="165.30" y1="90.58" x2="164.73" y2="92.17"/><line x1="269.37" y1="306.99" x2="281.98" y2="334.63"/><line x1="307.50" y1="321.29" x2="305.60" y2="323.07"/><line x1="240.52" y1="316.36" x2="237.45" y2="339.01"/><line x1="161.61" y1="123.48" x2="161.65" y2="127.72"/><line x1="333.60" y1="270.27" x2="290.91" y2="275.92"/><line x1="187.86" y1="131.74" x2="162.15" y2="138.66"/><line x1="264.60" y1="242.44" x2="292.38" y2="219.09"/><line x1="228.44" y1="336.79" x2="224.68" y2="313.45"/><line x1="256.83" y1="314.03" x2="262.77" y2="340.41"/><line x1="249.88" y1="238.32" x2="248.04" y2="236.00"/><line x1="203.78" y1="106.98" x2="185.88" y2="75.53"/><line x1="194.67" y1="300.27" x2="194.56" y2="300.21"/><line x1="211.50" y1="195.18" x2="179.72" y2="205.94"/><line x1="210.55" y1="329.69" x2="216.75" y2="312.02"/><line x1="171.51" y1="306.40" x2="175.78" y2="287.72"/><line x1="211.75" y1="217.85" x2="211.82" y2="218.08"/><line x1="337.01" y1="178.30" x2="338.17" y2="178.64"/><line x1="207.37" y1="228.04" x2="212.62" y2="222.64"/><line x1="260.94" y1="199.00" x2="265.84" y2="198.40"/><line x1="346.50" y1="201.70" x2="344.91" y2="202.19"/><line x1="356.68" y1="190.19" x2="355.94" y2="188.74"/><line x1="251.88" y1="174.15" x2="245.97" y2="197.87"/><line x1="289.09" y1="124.16" x2="286.97" y2="122.15"/><line x1="287.32" y1="239.79" x2="326.93" y2="198.57"/><line x1="342.98" y1="223.76" x2="344.11" y2="224.41"/><line x1="298.21" y1="240.55" x2="327.74" y2="200.18"/><line x1="249.90" y1="88.92" x2="246.14" y2="87.61"/><line x1="243.46" y1="113.11" x2="251.64" y2="89.76"/><line x1="212.75" y1="104.99" x2="211.00" y2="105.34"/><line x1="326.90" y1="198.25" x2="277.42" y2="240.47"/><line x1="285.85" y1="290.96" x2="317.22" y2="310.79"/><line x1="332.85" y1="254.09" x2="334.36" y2="262.56"/><line x1="264.60" y1="242.44" x2="277.70" y2="218.82"/><line x1="303.71" y1="324.74" x2="277.81" y2="298.54"/><line x1="224.09" y1="106.98" x2="216.01" y2="104.54"/><line x1="212.85" y1="73.56" x2="210.18" y2="73.09"/><line x1="162.95" y1="99.51" x2="162.63" y2="101.59"/><line x1="192.08" y1="137.70" x2="193.48" y2="139.14"/><line x1="259.81" y1="242.18" x2="246.59" y2="227.82"/><line x1="202.36" y1="155.25" x2="169.91" y2="179.98"/><line x1="187.09" y1="129.51" x2="187.44" y2="130.64"/><line x1="269.37" y1="306.99" x2="265.59" y2="309.86"/><line x1="192.81" y1="319.05" x2="194.46" y2="300.17"/><line x1="209.92" y1="187.65" x2="210.79" y2="191.73"/><line x1="185.87" y1="294.44" x2="185.45" y2="294.01"/><line x1="212.21" y1="219.68" x2="212.38" y2="220.74"/><line x1="256.07" y1="174.91" x2="254.02" y2="198.86"/><line x1="256.08" y1="198.94" x2="258.39" y2="198.98"/><line x1="240.38" y1="194.94" x2="241.23" y2="195.79"/><line x1="300.02" y1="135.93" x2="277.35" y2="150.29"/><line x1="274.25" y1="197.49" x2="277.75" y2="197.17"/><line x1="327.74" y1="200.18" x2="328.03" y2="200.51"/><line x1="258.61" y1="95.59" x2="243.46" y2="113.11"/><line x1="264.60" y1="242.44" x2="267.77" y2="218.73"/><line x1="281.69" y1="116.75" x2="281.16" y2="116.08"/><line x1="192.81" y1="319.05" x2="185.45" y2="294.01"/><line x1="232.20" y1="108.50" x2="241.60" y2="84.78"/><line x1="334.29" y1="266.33" x2="334.22" y2="267.31"/><line x1="337.43" y1="245.26" x2="345.27" y2="225.12"/><line x1="251.88" y1="174.15" x2="247.12" y2="198.03"/><line x1="228.96" y1="78.57" x2="225.61" y2="77.33"/><line x1="287.32" y1="239.79" x2="298.21" y2="240.55"/><line x1="206.52" y1="106.33" x2="203.78" y2="106.98"/><line x1="283.59" y1="293.77" x2="309.43" y2="319.39"/><line x1="289.35" y1="279.38" x2="288.10" y2="282.71"/><line x1="177.73" y1="78.81" x2="175.96" y2="79.35"/><line x1="218.82" y1="75.06" x2="215.73" y2="74.21"/><line x1="191.20" y1="112.48" x2="163.74" y2="95.65"/><line x1="266.88" y1="339.65" x2="265.63" y2="339.95"/><line x1="305.60" y1="323.07" x2="280.00" y2="296.50"/><line x1="296.70" y1="329.92" x2="295.18" y2="330.72"/><line x1="285.73" y1="332.70" x2="285.17" y2="333.18"/><line x1="218.35" y1="312.79" x2="217.68" y2="312.59"/><line x1="247.39" y1="220.76" x2="247.69" y2="219.94"/><line x1="217.68" y1="312.59" x2="210.55" y2="329.69"/><line x1="182.14" y1="292.15" x2="180.75" y2="291.33"/><line x1="162.36" y1="139.88" x2="195.08" y2="140.67"/><line x1="169.91" y1="179.98" x2="170.73" y2="182.61"/><line x1="161.65" y1="127.72" x2="161.74" y2="131.37"/><line x1="212.45" y1="200.22" x2="212.69" y2="201.80"/><line x1="180.75" y1="291.33" x2="171.51" y2="306.40"/><line x1="200.64" y1="227.34" x2="211.75" y2="217.85"/><line x1="297.45" y1="218.72" x2="338.17" y2="178.64"/><line x1="202.36" y1="155.25" x2="172.98" y2="188.71"/><line x1="209.02" y1="227.85" x2="212.75" y2="224.24"/><line x1="356.58" y1="232.78" x2="356.64" y2="233.05"/><line x1="171.79" y1="284.38" x2="163.29" y2="278.67"/><line x1="264.60" y1="242.44" x2="253.89" y2="217.21"/><line x1="238.13" y1="190.71" x2="238.55" y2="191.77"/><line x1="265.84" y1="198.40" x2="288.99" y2="175.48"/><line x1="212.77" y1="202.76" x2="211.63" y2="216.84"/><line x1="192.81" y1="319.05" x2="189.61" y2="300.14"/><line x1="356.69" y1="190.34" x2="356.59" y2="191.14"/><line x1="288.99" y1="175.48" x2="312.50" y2="159.65"/><line x1="251.64" y1="89.76" x2="250.79" y2="89.32"/><line x1="237.90" y1="110.42" x2="244.83" y2="86.96"/><line x1="264.60" y1="242.44" x2="266.37" y2="242.41"/><line x1="345.27" y1="225.12" x2="339.93" y2="245.72"/><line x1="215.73" y1="74.21" x2="212.75" y2="104.99"/><line x1="236.03" y1="81.28" x2="226.35" y2="107.36"/><line x1="169.43" y1="83.26" x2="168.69" y2="84.20"/><line x1="192.63" y1="111.39" x2="171.92" y2="81.11"/><line x1="285.27" y1="291.92" x2="284.51" y2="292.86"/><line x1="187.19" y1="74.73" x2="186.68" y2="74.99"/><line x1="186.83" y1="128.35" x2="161.74" y2="131.37"/><line x1="278.57" y1="335.59" x2="276.49" y2="336.08"/><line x1="161.67" y1="113.31" x2="161.61" y2="115.93"/><line x1="161.74" y1="131.37" x2="187.09" y2="129.51"/><line x1="175.57" y1="195.01" x2="176.69" y2="197.79"/><line x1="32.00" y1="479.98" x2="32.00" y2="447.50"/><line x1="264.60" y1="242.44" x2="246.94" y2="223.00"/><line x1="176.69" y1="197.79" x2="209.92" y2="187.65"/><line x1="211.91" y1="218.31" x2="212.01" y2="218.53"/><line x1="263.23" y1="217.77" x2="264.22" y2="217.97"/><line x1="250.11" y1="173.99" x2="237.79" y2="189.72"/><line x1="212.01" y1="218.53" x2="212.21" y2="219.68"/><line x1="205.42" y1="228.11" x2="207.37" y2="228.04"/><line x1="237.45" y1="339.01" x2="228.44" y2="336.79"/><line x1="237.31" y1="183.04" x2="248.17" y2="173.88"/><line x1="257.24" y1="175.16" x2="258.31" y2="175.37"/><line x1="162.36" y1="139.88" x2="198.48" y2="144.50"/><line x1="356.48" y1="189.38" x2="356.40" y2="189.22"/><line x1="345.27" y1="225.12" x2="352.39" y2="240.93"/><line x1="337.99" y1="202.30" x2="337.40" y2="202.20"/><line x1="329.15" y1="202.44" x2="330.14" y2="204.68"/><line x1="352.19" y1="186.20" x2="341.52" y2="202.58"/><line x1="280.87" y1="156.55" x2="300.02" y2="135.93"/><line x1="334.11" y1="268.20" x2="333.97" y2="268.99"/><line x1="300.03" y1="260.39" x2="334.29" y2="266.33"/><line x1="307.50" y1="321.29" x2="282.50" y2="294.67"/><line x1="345.27" y1="225.12" x2="338.07" y2="245.41"/><line x1="282.50" y1="294.67" x2="305.60" y2="323.07"/><line x1="256.83" y1="314.03" x2="264.26" y2="340.21"/><line x1="249.88" y1="238.32" x2="246.94" y2="233.17"/><line x1="203.78" y1="106.98" x2="186.24" y2="75.26"/><line x1="192.63" y1="111.39" x2="169.43" y2="83.26"/><line x1="264.26" y1="340.21" x2="262.77" y2="340.41"/><line x1="210.55" y1="329.69" x2="217.15" y2="312.33"/><line x1="246.94" y1="233.17" x2="248.04" y2="236.00"/><line x1="269.80" y1="219.00" x2="270.70" y2="219.07"/><line x1="246.57" y1="229.83" x2="246.59" y2="227.82"/><line x1="217.15" y1="312.33" x2="216.75" y2="312.02"/><line x1="219.47" y1="333.69" x2="218.35" y2="312.79"/><line x1="270.70" y1="219.07" x2="271.55" y2="219.09"/><line x1="237.52" y1="188.79" x2="237.79" y2="189.72"/><line x1="345.27" y1="225.12" x2="356.58" y2="232.78"/><line x1="203.63" y1="227.99" x2="204.54" y2="228.08"/><line x1="179.23" y1="290.31" x2="177.57" y2="289.11"/><line x1="237.79" y1="189.72" x2="238.13" y2="190.71"/><line x1="329.35" y1="198.92" x2="328.68" y2="198.70"/><line x1="212.75" y1="224.24" x2="212.77" y2="224.92"/><line x1="356.68" y1="233.32" x2="356.69" y2="233.59"/><line x1="260.88" y1="175.78" x2="265.84" y2="198.40"/><line x1="356.25" y1="189.02" x2="356.59" y2="189.70"/><line x1="333.12" y1="220.61" x2="333.49" y2="220.63"/><line x1="171.51" y1="306.40" x2="160.77" y2="286.01"/><line x1="269.09" y1="137.83" x2="286.97" y2="122.15"/><line x1="277.35" y1="150.29" x2="273.43" y2="144.05"/><line x1="298.21" y1="240.55" x2="327.48" y2="199.86"/><line x1="299.22" y1="262.30" x2="298.74" y2="263.05"/><line x1="344.69" y1="181.50" x2="326.90" y2="198.25"/><line x1="248.89" y1="116.57" x2="243.46" y2="113.11"/><line x1="249.90" y1="88.92" x2="237.90" y2="110.42"/><line x1="243.46" y1="113.11" x2="252.44" y2="90.23"/><line x1="326.90" y1="198.25" x2="276.03" y2="240.76"/><line x1="224.09" y1="106.98" x2="225.61" y2="77.33"/><line x1="212.85" y1="73.56" x2="211.00" y2="105.34"/><line x1="279.03" y1="297.38" x2="277.81" y2="298.54"/><line x1="211.00" y1="105.34" x2="210.18" y2="73.09"/><line x1="167.96" y1="85.25" x2="167.26" y2="86.41"/><line x1="284.51" y1="292.86" x2="283.59" y2="293.77"/><line x1="251.86" y1="315.33" x2="246.48" y2="316.11"/><line x1="234.18" y1="80.54" x2="224.27" y2="107.04"/><line x1="167.26" y1="86.41" x2="166.58" y2="87.69"/><line x1="187.09" y1="129.51" x2="161.84" y2="134.41"/><line x1="298.21" y1="240.55" x2="335.16" y2="220.91"/><line x1="276.36" y1="299.96" x2="274.68" y2="301.65"/><line x1="276.49" y1="336.08" x2="266.88" y2="339.65"/><line x1="269.37" y1="306.99" x2="278.57" y2="335.59"/><line x1="200.55" y1="303.54" x2="195.08" y2="300.52"/><line x1="161.84" y1="134.41" x2="187.44" y2="130.64"/><line x1="209.92" y1="187.65" x2="177.76" y2="200.55"/><line x1="333.60" y1="270.27" x2="288.10" y2="282.71"/><line x1="187.86" y1="131.74" x2="188.37" y2="132.81"/><line x1="256.83" y1="314.03" x2="259.42" y2="340.69"/><line x1="195.08" y1="300.52" x2="194.93" y2="300.42"/><line x1="156.64" y1="293.90" x2="156.90" y2="293.17"/><line x1="177.76" y1="200.55" x2="210.79" y2="191.73"/><line x1="156.90" y1="293.17" x2="157.26" y2="292.35"/><line x1="237.18" y1="186.39" x2="237.21" y2="187.12"/><line x1="171.51" y1="306.40" x2="156.48" y2="294.53"/><line x1="354.50" y1="238.33" x2="353.53" y2="239.58"/><line x1="204.54" y1="228.08" x2="205.42" y2="228.11"/><line x1="353.53" y1="239.58" x2="352.39" y2="240.93"/><line x1="356.55" y1="189.54" x2="356.59" y2="189.70"/><line x1="232.20" y1="108.50" x2="242.85" y2="85.66"/><line x1="331.59" y1="199.76" x2="336.08" y2="202.20"/><line x1="251.88" y1="174.15" x2="246.76" y2="197.98"/><line x1="293.57" y1="128.56" x2="291.51" y2="126.45"/><line x1="287.32" y1="239.79" x2="327.11" y2="199.22"/><line x1="331.72" y1="210.11" x2="332.32" y2="213.29"/><line x1="298.21" y1="240.55" x2="329.15" y2="202.44"/><line x1="305.60" y1="323.07" x2="280.74" y2="295.89"/><line x1="243.46" y1="113.11" x2="249.90" y2="88.92"/><line x1="164.21" y1="93.87" x2="163.74" y2="95.65"/><line x1="333.60" y1="270.27" x2="299.87" y2="260.96"/><line x1="285.85" y1="290.96" x2="285.27" y2="291.92"/><line x1="264.60" y1="242.44" x2="285.81" y2="218.34"/><line x1="188.37" y1="132.81" x2="189.01" y2="133.90"/><line x1="216.75" y1="312.02" x2="210.16" y2="308.26"/><line x1="161.65" y1="127.72" x2="186.83" y2="128.35"/><line x1="212.45" y1="200.22" x2="180.62" y2="208.58"/><line x1="201.66" y1="324.82" x2="204.31" y2="306.75"/><line x1="252.45" y1="240.12" x2="246.57" y2="229.83"/><line x1="271.55" y1="219.09" x2="272.48" y2="219.09"/><line x1="259.81" y1="242.18" x2="264.60" y2="242.44"/><line x1="174.40" y1="192.17" x2="175.57" y2="195.01"/><line x1="202.36" y1="155.25" x2="171.74" y2="185.53"/><line x1="180.62" y1="208.58" x2="212.69" y2="201.80"/><line x1="209.02" y1="227.85" x2="212.71" y2="223.48"/><line x1="272.48" y1="219.09" x2="273.45" y2="219.06"/><line x1="264.60" y1="242.44" x2="252.52" y2="217.32"/><line x1="238.13" y1="190.71" x2="251.88" y2="174.15"/><line x1="211.82" y1="218.08" x2="211.91" y2="218.31"/><line x1="192.81" y1="319.05" x2="194.32" y2="300.14"/><line x1="212.71" y1="223.48" x2="212.75" y2="224.24"/><line x1="356.69" y1="190.34" x2="355.49" y2="188.39"/><line x1="251.88" y1="174.15" x2="238.55" y2="191.77"/><line x1="355.49" y1="188.39" x2="356.59" y2="191.14"/><line x1="328.05" y1="198.52" x2="327.46" y2="198.37"/><line x1="261.52" y1="175.83" x2="262.05" y2="175.85"/><line x1="327.46" y1="198.37" x2="326.90" y2="198.25"/><line x1="264.60" y1="242.44" x2="326.90" y2="198.25"/><line x1="333.95" y1="220.68" x2="334.51" y2="220.78"/><line x1="285.18" y1="120.39" x2="283.70" y2="118.91"/><line x1="334.51" y1="220.78" x2="335.16" y2="220.91"/><line x1="264.60" y1="242.44" x2="269.80" y2="219.00"/><line x1="192.81" y1="319.05" x2="184.49" y2="293.30"/><line x1="232.20" y1="108.50" x2="238.60" y2="82.51"/><line x1="297.45" y1="264.76" x2="294.96" y2="268.60"/><line x1="245.57" y1="87.37" x2="244.83" y2="86.96"/><line x1="283.59" y1="293.77" x2="282.50" y2="294.67"/><line x1="301.84" y1="326.30" x2="276.36" y2="299.96"/><line x1="207.72" y1="72.80" x2="208.93" y2="105.79"/><line x1="187.44" y1="130.64" x2="187.86" y2="131.74"/><line x1="191.20" y1="112.48" x2="190.04" y2="113.66"/><line x1="246.49" y1="340.34" x2="240.70" y2="316.37"/><line x1="264.60" y1="242.44" x2="246.77" y2="224.41"/><line x1="161.98" y1="136.84" x2="162.15" y2="138.66"/><line x1="210.79" y1="191.73" x2="211.50" y2="195.18"/><line x1="194.93" y1="300.42" x2="194.79" y2="300.34"/><line x1="278.87" y1="218.72" x2="285.81" y2="218.34"/><line x1="178.77" y1="203.26" x2="179.72" y2="205.94"/><line x1="237.45" y1="339.01" x2="233.92" y2="314.99"/><line x1="194.79" y1="300.34" x2="194.67" y2="300.27"/><line x1="157.26" y1="292.35" x2="157.73" y2="291.43"/><line x1="162.36" y1="139.88" x2="197.68" y2="143.25"/><line x1="242.23" y1="196.50" x2="243.35" y2="197.08"/><line x1="157.73" y1="291.43" x2="158.30" y2="290.42"/><line x1="352.39" y1="240.93" x2="351.12" y2="242.23"/><line x1="243.35" y1="197.08" x2="244.60" y2="197.54"/><line x1="280.79" y1="196.93" x2="283.36" y2="196.80"/><line x1="297.45" y1="218.72" x2="340.43" y2="179.44"/><line x1="202.36" y1="155.25" x2="208.89" y2="182.95"/><line x1="351.12" y1="242.23" x2="349.76" y2="243.33"/><line x1="171.79" y1="284.38" x2="164.16" y2="277.69"/><line x1="264.60" y1="242.44" x2="257.65" y2="217.28"/><line x1="283.36" y1="196.80" x2="285.46" y2="196.75"/><line x1="279.86" y1="114.35" x2="278.67" y2="112.80"/><line x1="352.19" y1="186.20" x2="343.25" y2="202.48"/><line x1="192.81" y1="319.05" x2="188.59" y2="298.98"/><line x1="280.87" y1="156.55" x2="301.17" y2="137.51"/><line x1="260.13" y1="175.68" x2="260.88" y2="175.78"/><line x1="278.67" y1="112.80" x2="277.57" y2="111.45"/><line x1="240.19" y1="83.73" x2="238.60" y2="82.51"/><line x1="237.90" y1="110.42" x2="232.20" y2="108.50"/><line x1="300.03" y1="260.39" x2="334.34" y2="265.24"/><line x1="345.27" y1="225.12" x2="338.70" y2="245.53"/><line x1="190.02" y1="73.65" x2="189.20" y2="73.92"/><line x1="192.63" y1="111.39" x2="170.21" y2="82.44"/><line x1="163.32" y1="97.54" x2="190.04" y2="113.66"/><line x1="280.00" y1="296.50" x2="279.03" y2="297.38"/><line x1="239.42" y1="316.18" x2="239.04" y2="316.09"/><line x1="246.57" y1="229.83" x2="259.81" y2="242.18"/><line x1="189.83" y1="135.07" x2="190.86" y2="136.34"/><line x1="189.61" y1="300.14" x2="189.08" y2="299.58"/><line x1="190.86" y1="136.34" x2="192.08" y2="137.70"/><line x1="212.69" y1="201.80" x2="212.77" y2="202.76"/><line x1="204.31" y1="306.75" x2="200.55" y2="303.54"/><line x1="171.79" y1="284.38" x2="161.20" y2="285.00"/><line x1="212.77" y1="202.76" x2="181.47" y2="211.18"/><line x1="212.75" y1="224.24" x2="210.37" y2="227.52"/><line x1="156.48" y1="294.53" x2="156.64" y2="293.90"/><line x1="250.11" y1="173.99" x2="251.88" y2="174.15"/><line x1="356.25" y1="189.02" x2="356.55" y2="189.54"/><line x1="210.37" y1="227.52" x2="212.77" y2="224.92"/><line x1="356.59" y1="191.14" x2="356.32" y2="192.03"/><line x1="288.99" y1="175.48" x2="274.25" y2="197.49"/><line x1="162.36" y1="139.88" x2="200.06" y2="147.90"/><line x1="356.32" y1="192.03" x2="354.89" y2="187.96"/><line x1="344.69" y1="181.50" x2="327.46" y2="198.37"/><line x1="345.27" y1="225.12" x2="349.76" y2="243.33"/><line x1="282.54" y1="117.70" x2="281.69" y2="116.75"/><line x1="327.27" y1="199.54" x2="327.48" y2="199.86"/><line x1="266.37" y1="242.41" x2="268.04" y2="242.33"/><line x1="264.35" y1="131.63" x2="281.16" y2="116.08"/><line x1="352.19" y1="186.20" x2="340.34" y2="202.55"/><line x1="335.91" y1="221.08" x2="336.76" y2="221.30"/><line x1="243.92" y1="86.40" x2="242.85" y2="85.66"/><line x1="208.93" y1="105.79" x2="206.52" y2="106.33"/><line x1="234.18" y1="80.54" x2="224.51" y2="107.09"/><line x1="205.47" y1="72.70" x2="198.87" y2="73.65"/><line x1="298.21" y1="240.55" x2="334.51" y2="220.78"/><line x1="300.03" y1="260.39" x2="334.11" y2="268.20"/><line x1="240.52" y1="316.36" x2="240.30" y2="316.34"/><line x1="333.60" y1="270.27" x2="289.35" y2="279.38"/><line x1="164.73" y1="92.17" x2="164.21" y2="93.87"/><line x1="187.86" y1="131.74" x2="162.36" y2="139.88"/><line x1="256.83" y1="314.03" x2="261.16" y2="340.58"/><line x1="249.88" y1="238.32" x2="252.45" y2="240.12"/><line x1="203.78" y1="106.98" x2="201.01" y2="107.72"/><line x1="246.94" y1="223.00" x2="247.14" y2="221.79"/><line x1="192.63" y1="111.39" x2="167.96" y2="85.25"/><line x1="211.50" y1="195.18" x2="212.05" y2="198.01"/><line x1="186.65" y1="222.22" x2="187.75" y2="223.20"/><line x1="210.55" y1="329.69" x2="201.66" y2="324.82"/><line x1="246.94" y1="233.17" x2="246.57" y2="229.83"/><line x1="171.51" y1="306.40" x2="173.86" y2="286.15"/><line x1="247.14" y1="221.79" x2="247.39" y2="220.76"/><line x1="286.34" y1="218.35" x2="286.85" y2="218.36"/><line x1="179.72" y1="205.94" x2="212.45" y2="200.22"/><line x1="333.28" y1="177.19" x2="333.06" y2="176.98"/><line x1="219.47" y1="333.69" x2="210.55" y2="329.69"/><line x1="286.85" y1="218.36" x2="287.35" y2="218.38"/><line x1="345.27" y1="225.12" x2="356.68" y2="233.32"/><line x1="244.60" y1="197.54" x2="245.97" y2="197.87"/><line x1="207.37" y1="228.04" x2="209.02" y2="227.85"/><line x1="356.40" y1="232.25" x2="356.51" y2="232.51"/><line x1="245.97" y1="197.87" x2="246.39" y2="197.92"/><line x1="356.68" y1="190.19" x2="356.69" y2="190.34"/><line x1="293.57" y1="128.56" x2="273.43" y2="144.05"/><line x1="294.63" y1="197.13" x2="319.95" y2="175.48"/><line x1="356.25" y1="189.02" x2="356.66" y2="190.02"/><line x1="276.03" y1="240.76" x2="277.42" y2="240.47"/><line x1="253.19" y1="90.74" x2="252.44" y2="90.23"/><line x1="269.09" y1="137.83" x2="283.70" y2="118.91"/><line x1="259.34" y1="125.84" x2="276.58" y2="110.29"/><line x1="298.21" y1="240.55" x2="328.03" y2="200.51"/><line x1="243.46" y1="113.11" x2="250.79" y2="89.32"/><line x1="326.90" y1="198.25" x2="279.01" y2="240.22"/><line x1="238.25" y1="82.27" x2="237.39" y2="81.86"/><line x1="281.23" y1="295.54" x2="280.74" y2="295.89"/><line x1="303.71" y1="324.74" x2="301.84" y2="326.30"/><line x1="323.81" y1="300.52" x2="322.88" y2="302.44"/><line x1="188.46" y1="74.19" x2="187.79" y2="74.46"/><line x1="261.16" y1="340.58" x2="259.42" y2="340.69"/><line x1="274.68" y1="301.65" x2="272.75" y2="303.60"/><line x1="201.66" y1="324.82" x2="210.16" y2="308.26"/><line x1="234.18" y1="80.54" x2="231.82" y2="79.63"/><line x1="238.63" y1="316.00" x2="236.27" y2="315.48"/><line x1="259.81" y1="242.18" x2="246.66" y2="226.02"/><line x1="298.21" y1="240.55" x2="336.76" y2="221.30"/><line x1="292.38" y1="219.09" x2="297.45" y2="218.72"/><line x1="333.60" y1="270.27" x2="324.56" y2="298.66"/><line x1="356.33" y1="235.19" x2="355.90" y2="236.14"/><line x1="171.51" y1="306.40" x2="156.64" y2="293.90"/><line x1="355.86" y1="193.00" x2="355.22" y2="194.06"/><line x1="339.16" y1="202.46" x2="338.57" y2="202.39"/><line x1="306.94" y1="148.14" x2="280.87" y2="156.55"/><line x1="264.60" y1="242.44" x2="268.82" y2="218.88"/><line x1="192.81" y1="319.05" x2="184.99" y2="293.64"/><line x1="232.20" y1="108.50" x2="240.19" y2="83.73"/><line x1="254.18" y1="120.82" x2="267.89" y2="103.75"/><line x1="251.88" y1="174.15" x2="247.44" y2="198.09"/><line x1="225.11" y1="107.20" x2="224.79" y2="107.15"/><line x1="165.92" y1="89.08" x2="165.30" y2="90.58"/><line x1="191.20" y1="112.48" x2="163.32" y2="97.54"/><line x1="198.51" y1="108.53" x2="181.93" y2="77.79"/><line x1="298.21" y1="240.55" x2="331.00" y2="207.23"/><line x1="305.60" y1="323.07" x2="303.71" y2="324.74"/><line x1="161.98" y1="136.84" x2="187.86" y2="131.74"/><line x1="198.87" y1="73.65" x2="190.02" y2="73.65"/><line x1="161.78" y1="110.79" x2="187.64" y2="117.74"/><line x1="264.60" y1="242.44" x2="286.85" y2="218.36"/><line x1="217.68" y1="312.59" x2="217.15" y2="312.33"/><line x1="200.06" y1="147.90" x2="200.83" y2="150.06"/><line x1="180.75" y1="291.33" x2="179.23" y2="290.31"/><line x1="212.52" y1="221.73" x2="207.37" y2="228.04"/><line x1="202.36" y1="155.25" x2="174.40" y2="192.17"/><line x1="209.02" y1="227.85" x2="210.37" y2="227.52"/><line x1="237.33" y1="187.92" x2="237.52" y2="188.79"/><line x1="264.60" y1="242.44" x2="255.85" y2="217.23"/><line x1="356.66" y1="190.02" x2="356.68" y2="190.19"/><line x1="192.81" y1="319.05" x2="189.08" y2="299.58"/><line x1="260.13" y1="175.68" x2="260.94" y2="199.00"/><line x1="251.88" y1="174.15" x2="239.65" y2="193.98"/><line x1="330.06" y1="199.17" x2="329.35" y2="198.92"/><line x1="355.49" y1="188.39" x2="354.89" y2="187.96"/><line x1="291.51" y1="126.45" x2="289.09" y2="124.16"/><line x1="332.78" y1="216.79" x2="333.12" y2="220.61"/><line x1="236.03" y1="81.28" x2="234.18" y2="80.54"/><line x1="299.60" y1="261.60" x2="299.22" y2="262.30"/><line x1="264.60" y1="242.44" x2="271.55" y2="219.09"/><line x1="192.81" y1="319.05" x2="183.39" y2="292.78"/><line x1="232.20" y1="108.50" x2="237.39" y2="81.86"/><line x1="280.00" y1="296.50" x2="303.71" y2="324.74"/><line x1="286.27" y1="289.98" x2="321.76" y2="304.43"/><line x1="257.56" y1="340.76" x2="255.58" y2="340.78"/><line x1="255.77" y1="241.41" x2="259.81" y2="242.18"/><line x1="161.74" y1="131.37" x2="161.84" y2="134.41"/><line x1="297.45" y1="218.72" x2="327.26" y2="176.98"/><line x1="189.10" y1="114.91" x2="188.29" y2="116.27"/><line x1="32.00" y1="479.98" x2="64.49" y2="479.98"/><line x1="255.58" y1="340.78" x2="251.86" y2="315.33"/><line x1="204.31" y1="306.75" x2="192.81" y2="319.05"/><line x1="246.49" y1="340.34" x2="237.45" y2="339.01"/><line x1="264.60" y1="242.44" x2="247.14" y2="221.79"/><line x1="176.69" y1="197.79" x2="177.76" y2="200.55"/><line x1="192.81" y1="319.05" x2="200.55" y2="303.54"/><line x1="156.48" y1="294.53" x2="156.43" y2="295.07"/><line x1="239.65" y1="193.98" x2="240.38" y2="194.94"/><line x1="162.36" y1="139.88" x2="199.27" y2="146.05"/><line x1="356.48" y1="189.38" x2="356.55" y2="189.54"/><line x1="355.28" y1="237.18" x2="354.50" y2="238.33"/><line x1="270.28" y1="197.90" x2="274.25" y2="197.49"/><line x1="297.45" y1="218.72" x2="342.61" y2="180.39"/><line x1="355.22" y1="194.06" x2="354.39" y2="195.21"/><line x1="264.35" y1="131.63" x2="281.69" y2="116.75"/><line x1="352.19" y1="186.20" x2="340.93" y2="202.57"/><line x1="280.87" y1="156.55" x2="277.35" y2="150.29"/><line x1="243.92" y1="86.40" x2="232.20" y2="108.50"/><line x1="266.24" y1="102.34" x2="264.14" y2="100.50"/><line x1="205.47" y1="72.70" x2="206.52" y2="106.33"/><line x1="300.03" y1="260.39" x2="334.22" y2="267.31"/><line x1="224.51" y1="107.09" x2="224.27" y2="107.04"/><line x1="164.73" y1="92.17" x2="191.20" y2="112.48"/><line x1="282.50" y1="294.67" x2="281.23" y2="295.54"/><line x1="162.15" y1="138.66" x2="162.36" y2="139.88"/><line x1="192.63" y1="111.39" x2="168.69" y2="84.20"/><line x1="246.94" y1="233.17" x2="252.45" y2="240.12"/><line x1="194.56" y1="300.21" x2="194.46" y2="300.17"/><line x1="162.36" y1="139.88" x2="188.37" y2="132.81"/><line x1="179.72" y1="205.94" x2="212.05" y2="198.01"/><line x1="219.47" y1="333.69" x2="217.68" y2="312.59"/><line x1="158.97" y1="289.30" x2="159.66" y2="288.16"/><line x1="345.27" y1="225.12" x2="356.64" y2="233.05"/><line x1="212.05" y1="198.01" x2="212.45" y2="200.22"/><line x1="348.33" y1="244.22" x2="346.80" y2="244.93"/><line x1="171.79" y1="284.38" x2="161.81" y2="283.10"/><line x1="212.62" y1="222.64" x2="209.02" y2="227.85"/><line x1="346.80" y1="244.93" x2="345.20" y2="245.43"/><line x1="260.88" y1="175.78" x2="261.52" y2="175.83"/><line x1="355.94" y1="188.74" x2="356.69" y2="190.34"/><line x1="356.25" y1="189.02" x2="356.63" y2="189.86"/><line x1="171.51" y1="306.40" x2="171.79" y2="284.38"/><line x1="269.09" y1="137.83" x2="285.18" y2="120.39"/><line x1="288.99" y1="175.48" x2="280.79" y2="196.93"/><line x1="286.69" y1="169.15" x2="283.98" y2="162.84"/><line x1="328.68" y1="198.70" x2="328.05" y2="198.52"/><line x1="345.27" y1="225.12" x2="346.80" y2="244.93"/><line x1="333.49" y1="220.63" x2="333.95" y2="220.68"/><line x1="298.74" y1="263.05" x2="298.14" y2="263.87"/><line x1="352.19" y1="186.20" x2="339.16" y2="202.46"/><line x1="211.00" y1="105.34" x2="207.72" y2="72.80"/><line x1="298.14" y1="263.87" x2="297.45" y2="264.76"/><line x1="234.18" y1="80.54" x2="224.09" y2="106.98"/><line x1="298.21" y1="240.55" x2="335.91" y2="221.08"/><line x1="277.81" y1="298.54" x2="301.84" y2="326.30"/><line x1="246.59" y1="227.82" x2="246.66" y2="226.02"/><line x1="161.84" y1="134.41" x2="161.98" y2="136.84"/><line x1="333.60" y1="270.27" x2="287.15" y2="285.91"/><line x1="182.46" y1="214.20" x2="183.48" y2="216.82"/><line x1="246.48" y1="316.11" x2="246.49" y2="340.34"/><line x1="256.83" y1="314.03" x2="257.56" y2="340.76"/><line x1="246.66" y1="226.02" x2="264.60" y2="242.44"/><line x1="276.58" y1="218.90" x2="277.70" y2="218.82"/><line x1="177.76" y1="200.55" x2="178.77" y2="203.26"/><line x1="211.41" y1="227.06" x2="212.17" y2="226.48"/><line x1="277.70" y1="218.82" x2="278.87" y2="218.72"/><line x1="171.51" y1="306.40" x2="156.43" y2="295.07"/><line x1="355.86" y1="193.00" x2="354.14" y2="187.45"/><line x1="344.69" y1="181.50" x2="337.40" y2="202.20"/><line x1="241.23" y1="195.79" x2="242.23" y2="196.50"/><line x1="345.27" y1="225.12" x2="356.60" y2="234.34"/><line x1="354.14" y1="187.45" x2="355.22" y2="194.06"/><line x1="269.60" y1="242.19" x2="271.07" y2="242.00"/><line x1="277.75" y1="197.17" x2="280.79" y2="196.93"/><line x1="331.59" y1="199.76" x2="330.80" y2="199.45"/><line x1="271.07" y1="242.00" x2="272.42" y2="241.76"/><line x1="337.70" y1="221.55" x2="338.70" y2="221.85"/><line x1="281.16" y1="116.08" x2="279.86" y2="114.35"/><line x1="338.70" y1="221.85" x2="339.73" y2="222.23"/><line x1="269.09" y1="137.83" x2="264.35" y2="131.63"/><line x1="242.85" y1="85.66" x2="241.60" y2="84.78"/><line x1="259.34" y1="125.84" x2="274.89" y2="108.55"/><line x1="298.21" y1="240.55" x2="330.14" y2="204.68"/><line x1="288.10" y1="282.71" x2="287.15" y2="285.91"/><line x1="241.60" y1="84.78" x2="240.19" y2="83.73"/><line x1="198.87" y1="73.65" x2="203.78" y2="106.98"/><line x1="243.46" y1="113.11" x2="237.90" y2="110.42"/><line x1="326.90" y1="198.25" x2="282.77" y2="239.90"/><line x1="333.60" y1="270.27" x2="299.60" y2="261.60"/><line x1="264.60" y1="242.44" x2="286.34" y2="218.35"/><line x1="295.18" y1="330.72" x2="293.76" y2="331.33"/><line x1="203.78" y1="106.98" x2="190.02" y2="73.65"/><line x1="293.76" y1="331.33" x2="292.43" y2="331.74"/><line x1="240.04" y1="316.30" x2="239.74" y2="316.25"/><line x1="163.74" y1="95.65" x2="163.32" y2="97.54"/><line x1="201.66" y1="324.82" x2="192.81" y2="319.05"/><line x1="239.74" y1="316.25" x2="239.42" y2="316.18"/><line x1="252.45" y1="240.12" x2="255.77" y2="241.41"/><line x1="194.39" y1="300.15" x2="194.32" y2="300.14"/><line x1="287.84" y1="218.40" x2="288.30" y2="218.44"/><line x1="189.01" y1="133.90" x2="189.83" y2="135.07"/><line x1="180.62" y1="208.58" x2="212.77" y2="202.76"/><line x1="298.21" y1="240.55" x2="338.70" y2="221.85"/><line x1="194.32" y1="300.14" x2="189.61" y2="300.14"/><line x1="160.26" y1="287.06" x2="160.77" y2="286.01"/><line x1="246.76" y1="197.98" x2="247.12" y2="198.03"/><line x1="160.77" y1="286.01" x2="171.79" y2="284.38"/><line x1="251.88" y1="174.15" x2="239.05" y2="192.89"/><line x1="345.20" y1="245.43" x2="343.50" y2="245.73"/><line x1="315.99" y1="167.02" x2="312.50" y2="159.65"/><line x1="355.49" y1="188.39" x2="356.32" y2="192.03"/><line x1="343.50" y1="245.73" x2="341.73" y2="245.82"/><line x1="171.51" y1="306.40" x2="157.26" y2="292.35"/><line x1="275.68" y1="109.33" x2="274.89" y2="108.55"/><line x1="274.89" y1="108.55" x2="274.19" y2="107.97"/><line x1="326.90" y1="198.25" x2="268.04" y2="242.33"/><line x1="264.60" y1="242.44" x2="270.70" y2="219.07"/><line x1="226.35" y1="107.36" x2="234.18" y2="80.54"/><line x1="192.81" y1="319.05" x2="183.96" y2="293.01"/><line x1="232.20" y1="108.50" x2="238.25" y2="82.27"/><line x1="251.88" y1="174.15" x2="247.99" y2="198.20"/><line x1="186.68" y1="74.99" x2="186.24" y2="75.26"/><line x1="301.84" y1="326.30" x2="300.03" y2="327.71"/><line x1="207.72" y1="72.80" x2="205.47" y2="72.70"/><line x1="186.24" y1="75.26" x2="185.88" y2="75.53"/><line x1="189.10" y1="114.91" x2="162.12" y2="106.01"/><line x1="276.36" y1="299.96" x2="298.32" y2="328.91"/><line x1="246.49" y1="340.34" x2="240.52" y2="316.36"/><line x1="162.12" y1="106.01" x2="188.29" y2="116.27"/><line x1="196.87" y1="142.29" x2="197.68" y2="143.25"/><line x1="264.60" y1="242.44" x2="287.84" y2="218.40"/><line x1="197.68" y1="143.25" x2="198.48" y2="144.50"/><line x1="184.51" y1="219.02" x2="185.57" y2="220.82"/><line x1="246.77" y1="224.41" x2="246.94" y2="223.00"/><line x1="162.15" y1="281.38" x2="162.36" y2="280.61"/><line x1="185.57" y1="220.82" x2="186.65" y2="222.22"/><line x1="285.81" y1="218.34" x2="286.34" y2="218.35"/><line x1="338.70" y1="245.53" x2="338.07" y2="245.41"/><line x1="297.45" y1="218.72" x2="341.53" y2="179.90"/><line x1="327.26" y1="176.98" x2="333.28" y2="177.19"/><line x1="355.22" y1="194.06" x2="353.24" y2="186.86"/><line x1="264.60" y1="242.44" x2="259.28" y2="217.35"/><line x1="192.81" y1="319.05" x2="188.13" y2="298.35"/><line x1="353.24" y1="186.86" x2="354.39" y2="195.21"/><line x1="272.42" y1="241.76" x2="273.68" y2="241.47"/><line x1="251.88" y1="174.15" x2="241.23" y2="195.79"/><line x1="273.68" y1="241.47" x2="274.83" y2="241.11"/><line x1="277.57" y1="111.45" x2="276.58" y2="110.29"/><line x1="340.78" y1="222.66" x2="335.37" y2="244.88"/><line x1="324.56" y1="298.66" x2="286.52" y2="288.97"/><line x1="264.60" y1="242.44" x2="273.45" y2="219.06"/><line x1="163.32" y1="97.54" x2="162.95" y2="99.51"/><line x1="292.43" y1="331.74" x2="291.20" y2="331.94"/><line x1="190.04" y1="113.66" x2="162.63" y2="101.59"/><line x1="248.66" y1="218.68" x2="249.38" y2="218.19"/><line x1="255.58" y1="340.78" x2="246.49" y2="340.34"/><line x1="239.04" y1="316.09" x2="238.63" y2="316.00"/><line x1="249.38" y1="218.19" x2="250.26" y2="217.80"/><line x1="171.79" y1="284.38" x2="161.55" y2="284.03"/><line x1="264.60" y1="242.44" x2="247.69" y2="219.94"/><line x1="288.76" y1="218.48" x2="289.20" y2="218.53"/><line x1="212.77" y1="202.76" x2="182.46" y2="214.20"/><line x1="192.81" y1="319.05" x2="194.93" y2="300.42"/><line x1="189.08" y1="299.58" x2="188.59" y2="298.98"/><line x1="289.20" y1="218.53" x2="292.38" y2="219.09"/><line x1="247.44" y1="198.09" x2="247.73" y2="198.14"/><line x1="210.37" y1="227.52" x2="211.41" y2="227.06"/><line x1="349.48" y1="200.13" x2="348.03" y2="201.01"/><line x1="161.20" y1="285.00" x2="161.55" y2="284.03"/><line x1="288.99" y1="175.48" x2="277.75" y2="197.17"/><line x1="162.36" y1="139.88" x2="200.83" y2="150.06"/><line x1="247.73" y1="198.14" x2="247.99" y2="198.20"/><line x1="286.69" y1="169.15" x2="309.49" y2="153.35"/><line x1="212.77" y1="224.92" x2="212.17" y2="226.48"/><line x1="356.32" y1="192.03" x2="355.86" y2="193.00"/><line x1="282.77" y1="239.90" x2="284.94" y2="239.82"/><line x1="345.27" y1="225.12" x2="348.33" y2="244.22"/><line x1="309.49" y1="153.35" x2="283.98" y2="162.84"/><line x1="274.19" y1="107.97" x2="269.86" y2="105.34"/><line x1="354.89" y1="187.96" x2="354.14" y2="187.45"/><line x1="297.45" y1="218.72" x2="344.69" y2="181.50"/><line x1="264.35" y1="131.63" x2="279.86" y2="114.35"/><line x1="269.86" y1="105.34" x2="269.10" y2="104.75"/><line x1="352.19" y1="186.20" x2="339.75" y2="202.51"/><line x1="337.43" y1="245.26" x2="342.98" y2="223.76"/><line x1="225.89" y1="107.31" x2="225.48" y2="107.26"/><line x1="318.93" y1="308.61" x2="285.85" y2="290.96"/><line x1="185.88" y1="75.53" x2="201.01" y2="107.72"/><line x1="300.03" y1="260.39" x2="333.97" y2="268.99"/><line x1="284.36" y1="333.67" x2="283.30" y2="334.14"/><line x1="188.29" y1="116.27" x2="161.93" y2="108.36"/><line x1="229.27" y1="314.14" x2="226.97" y2="313.78"/><line x1="161.93" y1="108.36" x2="161.78" y2="110.79"/><line x1="192.63" y1="111.39" x2="167.26" y2="86.41"/><line x1="198.48" y1="144.50" x2="199.27" y2="146.05"/><line x1="237.45" y1="339.01" x2="240.04" y2="316.30"/><line x1="186.59" y1="295.42" x2="186.25" y2="294.90"/><line x1="162.36" y1="139.88" x2="189.83" y2="135.07"/><line x1="179.72" y1="205.94" x2="180.62" y2="208.58"/><line x1="199.27" y1="146.05" x2="200.06" y2="147.90"/><line x1="333.28" y1="177.19" x2="333.62" y2="177.40"/><line x1="345.27" y1="225.12" x2="356.69" y2="233.59"/><line x1="162.62" y1="279.90" x2="162.93" y2="279.25"/><line x1="187.75" y1="223.20" x2="188.87" y2="223.78"/><line x1="171.79" y1="284.38" x2="162.15" y2="281.38"/><line x1="302.15" y1="138.99" x2="301.17" y2="137.51"/><line x1="352.19" y1="186.20" x2="352.19" y2="197.78"/><line x1="356.25" y1="189.02" x2="356.68" y2="190.19"/><line x1="269.09" y1="137.83" x2="282.54" y2="117.70"/><line x1="288.99" y1="175.48" x2="285.46" y2="196.75"/><line x1="259.34" y1="125.84" x2="275.68" y2="109.33"/><line x1="298.21" y1="242.61" x2="332.85" y2="254.09"/><line x1="345.27" y1="225.12" x2="343.50" y2="245.73"/><line x1="326.90" y1="198.25" x2="280.79" y2="240.04"/><line x1="231.82" y1="79.63" x2="228.96" y2="78.57"/><line x1="337.43" y1="245.26" x2="338.07" y2="245.41"/><line x1="192.63" y1="111.39" x2="177.73" y2="78.81"/><line x1="322.88" y1="302.44" x2="321.76" y2="304.43"/><line x1="186.76" y1="120.98" x2="161.59" y2="118.62"/><line x1="272.75" y1="303.60" x2="269.37" y2="306.99"/><line x1="298.21" y1="240.55" x2="337.70" y2="221.55"/><line x1="168.87" y1="175.55" x2="169.29" y2="177.62"/><line x1="250.26" y1="217.80" x2="251.31" y2="217.52"/><line x1="199.57" y1="227.00" x2="211.70" y2="217.61"/><line x1="256.83" y1="314.03" x2="251.86" y2="315.33"/><line x1="251.31" y1="217.52" x2="252.52" y2="217.32"/><line x1="171.51" y1="306.40" x2="156.90" y2="293.17"/><line x1="253.46" y1="174.36" x2="248.22" y2="198.25"/><line x1="345.27" y1="225.12" x2="355.90" y2="236.14"/><line x1="306.94" y1="148.14" x2="304.87" y2="144.01"/><line x1="326.90" y1="198.25" x2="266.37" y2="242.41"/><line x1="344.91" y1="202.19" x2="343.25" y2="202.48"/><line x1="283.70" y1="118.91" x2="282.54" y2="117.70"/><line x1="254.18" y1="120.82" x2="266.24" y2="102.34"/><line x1="335.16" y1="220.91" x2="335.91" y2="221.08"/><line x1="251.88" y1="174.15" x2="247.73" y2="198.14"/><line x1="326.93" y1="198.57" x2="327.00" y2="198.89"/><line x1="294.96" y1="268.60" x2="292.79" y2="272.32"/><line x1="319.95" y1="175.48" x2="327.26" y2="176.98"/><line x1="198.51" y1="108.53" x2="196.28" y2="109.40"/><line x1="298.21" y1="240.55" x2="331.72" y2="210.11"/><line x1="276.36" y1="299.96" x2="300.03" y2="327.71"/><line x1="317.22" y1="310.79" x2="315.32" y2="313.04"/><line x1="326.90" y1="198.25" x2="287.32" y2="239.79"/><line x1="181.93" y1="77.79" x2="194.32" y2="110.36"/><line x1="333.60" y1="270.27" x2="298.74" y2="263.05"/><line x1="161.78" y1="110.79" x2="161.67" y2="113.31"/><line x1="240.70" y1="316.37" x2="240.52" y2="316.36"/><line x1="264.60" y1="242.44" x2="287.35" y2="218.38"/><line x1="281.98" y1="334.63" x2="280.41" y2="335.12"/><line x1="203.78" y1="106.98" x2="188.46" y2="74.19"/><line x1="480.00" y1="64.50" x2="447.51" y2="32.02"/><line x1="187.64" y1="117.74" x2="187.13" y2="119.31"/><line x1="224.68" y1="313.45" x2="219.47" y2="333.69"/><line x1="260.76" y1="217.46" x2="262.07" y2="217.60"/><line x1="212.52" y1="221.73" x2="212.62" y2="222.64"/><line x1="246.03" y1="173.81" x2="237.71" y2="180.21"/><line x1="211.63" y1="216.84" x2="211.63" y2="217.11"/><line x1="158.30" y1="290.42" x2="158.97" y2="289.30"/><line x1="349.76" y1="243.33" x2="348.33" y2="244.22"/><line x1="251.88" y1="174.15" x2="240.38" y2="194.94"/><line x1="277.57" y1="111.45" x2="259.34" y2="125.84"/><line x1="277.35" y1="150.29" x2="298.68" y2="134.24"/><line x1="238.60" y1="82.51" x2="238.25" y2="82.27"/><line x1="312.50" y1="159.65" x2="309.49" y2="153.35"/><line x1="243.46" y1="113.11" x2="255.17" y2="92.51"/><line x1="326.90" y1="198.25" x2="271.07" y2="242.00"/><line x1="332.85" y1="254.09" x2="300.09" y2="259.88"/><line x1="264.60" y1="242.44" x2="272.48" y2="219.09"/><line x1="189.20" y1="73.92" x2="188.46" y2="74.19"/><line x1="297.45" y1="218.72" x2="326.90" y2="198.25"/><line x1="192.81" y1="319.05" x2="182.14" y2="292.15"/><line x1="232.20" y1="108.50" x2="236.03" y2="81.28"/><line x1="225.61" y1="77.33" x2="216.01" y2="104.54"/><line x1="286.27" y1="289.98" x2="320.44" y2="306.49"/><line x1="190.04" y1="113.66" x2="162.95" y2="99.51"/><line x1="175.96" y1="79.35" x2="174.40" y2="79.91"/><line x1="265.63" y1="339.95" x2="256.83" y2="314.03"/><line x1="255.58" y1="340.78" x2="246.48" y2="316.11"/><line x1="186.54" y1="122.75" x2="161.61" y2="123.48"/><line x1="276.36" y1="299.96" x2="295.18" y2="330.72"/><line x1="269.37" y1="306.99" x2="284.36" y2="333.67"/><line x1="264.60" y1="242.44" x2="247.39" y2="220.76"/><line x1="32.16" y1="32.09" x2="32.16" y2="64.58"/><line x1="192.81" y1="319.05" x2="195.08" y2="300.52"/><line x1="264.60" y1="242.44" x2="288.76" y2="218.48"/><line x1="228.44" y1="336.79" x2="229.27" y2="314.14"/><line x1="181.47" y1="211.18" x2="182.46" y2="214.20"/><line x1="275.50" y1="218.97" x2="276.58" y2="218.90"/><line x1="341.14" y1="245.81" x2="340.54" y2="245.78"/><line x1="243.72" y1="173.78" x2="239.31" y2="176.10"/><line x1="212.77" y1="224.92" x2="211.41" y2="227.06"/><line x1="354.89" y1="187.96" x2="355.86" y2="193.00"/><line x1="297.45" y1="218.72" x2="343.66" y2="180.92"/><line x1="327.26" y1="176.98" x2="333.62" y2="177.40"/><line x1="264.60" y1="242.44" x2="262.07" y2="217.60"/><line x1="268.04" y1="242.33" x2="269.60" y2="242.19"/><line x1="192.81" y1="319.05" x2="187.30" y2="296.96"/><line x1="336.76" y1="221.30" x2="337.70" y2="221.55"/><line x1="327.11" y1="199.22" x2="298.21" y2="240.55"/><line x1="334.36" y1="262.56" x2="334.36" y2="264.06"/><line x1="290.91" y1="275.92" x2="289.35" y2="279.38"/><line x1="340.78" y1="222.66" x2="341.87" y2="223.18"/><line x1="298.32" y1="328.91" x2="296.70" y2="329.92"/><line x1="194.32" y1="110.36" x2="192.63" y2="111.39"/><line x1="237.45" y1="339.01" x2="240.30" y2="316.34"/><line x1="162.36" y1="139.88" x2="189.01" y2="133.90"/><line x1="190.04" y1="113.66" x2="189.10" y2="114.91"/><line x1="187.13" y1="119.31" x2="186.76" y2="120.98"/><line x1="240.30" y1="316.34" x2="240.04" y2="316.30"/><line x1="297.45" y1="218.72" x2="334.07" y2="177.60"/><line x1="202.36" y1="155.25" x2="168.87" y2="175.55"/><line x1="194.46" y1="300.17" x2="194.39" y2="300.15"/><line x1="287.35" y1="218.38" x2="287.84" y2="218.40"/><line x1="171.79" y1="284.38" x2="161.99" y2="282.21"/><line x1="264.60" y1="242.44" x2="248.66" y2="218.68"/><line x1="212.62" y1="222.64" x2="212.71" y2="223.48"/><line x1="212.77" y1="202.76" x2="184.51" y2="219.02"/><line x1="352.19" y1="186.20" x2="353.38" y2="196.46"/><line x1="192.81" y1="319.05" x2="194.67" y2="300.27"/><line x1="159.66" y1="288.16" x2="160.26" y2="287.06"/><line x1="246.39" y1="197.92" x2="246.76" y2="197.98"/><line x1="356.27" y1="231.97" x2="356.40" y2="232.25"/><line x1="355.94" y1="188.74" x2="355.49" y2="188.39"/><line x1="319.95" y1="175.48" x2="315.99" y2="167.02"/><line x1="288.99" y1="175.48" x2="283.36" y2="196.80"/><line x1="162.36" y1="139.88" x2="202.36" y2="155.25"/><line x1="345.27" y1="225.12" x2="345.20" y2="245.43"/><line x1="276.58" y1="110.29" x2="275.68" y2="109.33"/><line x1="297.15" y1="132.45" x2="295.46" y2="130.55"/><line x1="264.35" y1="131.63" x2="277.57" y2="111.45"/><line x1="237.39" y1="81.86" x2="236.03" y2="81.28"/><line x1="254.56" y1="91.88" x2="253.89" y2="91.30"/><line x1="352.19" y1="186.20" x2="338.57" y2="202.39"/><line x1="322.88" y1="302.44" x2="286.27" y2="289.98"/><line x1="211.00" y1="105.34" x2="208.93" y2="105.79"/><line x1="187.79" y1="74.46" x2="187.19" y2="74.73"/><line x1="272.75" y1="303.60" x2="285.73" y2="332.70"/><line x1="162.63" y1="101.59" x2="162.35" y2="103.76"/><line x1="185.88" y1="75.53" x2="181.93" y2="77.79"/><line x1="277.81" y1="298.54" x2="276.36" y2="299.96"/><line x1="300.03" y1="260.39" x2="333.60" y2="270.27"/><line x1="236.27" y1="315.48" x2="233.92" y2="314.99"/><line x1="162.35" y1="103.76" x2="189.10" y2="114.91"/><line x1="193.48" y1="139.14" x2="195.08" y2="140.67"/><line x1="188.29" y1="116.27" x2="187.64" y2="117.74"/><line x1="246.48" y1="316.11" x2="240.70" y2="316.37"/><line x1="256.83" y1="314.03" x2="255.58" y2="340.78"/><line x1="233.92" y1="314.99" x2="228.44" y2="336.79"/><line x1="246.66" y1="226.02" x2="246.77" y2="224.41"/><line x1="188.13" y1="298.35" x2="187.70" y2="297.68"/><line x1="195.08" y1="140.67" x2="196.87" y2="142.29"/><line x1="192.63" y1="111.39" x2="165.92" y2="89.08"/><line x1="237.45" y1="339.01" x2="239.42" y2="316.18"/><line x1="187.70" y1="297.68" x2="187.30" y2="296.96"/><line x1="161.81" y1="283.10" x2="161.99" y2="282.21"/><line x1="162.36" y1="139.88" x2="192.08" y2="137.70"/><line x1="183.48" y1="216.82" x2="184.51" y2="219.02"/><line x1="344.69" y1="181.50" x2="331.59" y2="199.76"/><line x1="161.99" y1="282.21" x2="162.15" y2="281.38"/><line x1="339.93" y1="245.72" x2="339.32" y2="245.64"/><line x1="345.27" y1="225.12" x2="356.33" y2="235.19"/><line x1="212.17" y1="226.48" x2="212.62" y2="225.77"/><line x1="354.14" y1="187.45" x2="353.24" y2="186.86"/><line x1="339.32" y1="245.64" x2="338.70" y2="245.53"/><line x1="254.85" y1="174.62" x2="256.07" y2="174.91"/><line x1="352.19" y1="186.20" x2="349.48" y2="200.13"/><line x1="288.99" y1="175.48" x2="319.95" y2="175.48"/><line x1="259.34" y1="125.84" x2="274.19" y2="107.97"/><line x1="298.21" y1="242.61" x2="300.09" y2="259.88"/><line x1="345.27" y1="225.12" x2="341.14" y2="245.81"/><line x1="326.90" y1="198.25" x2="284.94" y2="239.82"/><line x1="181.93" y1="77.79" x2="196.28" y2="109.40"/><line x1="333.60" y1="270.27" x2="299.22" y2="262.30"/><line x1="339.73" y1="222.23" x2="340.78" y2="222.66"/><line x1="287.15" y1="285.91" x2="286.52" y2="288.97"/><line x1="203.78" y1="106.98" x2="189.20" y2="73.92"/><line x1="187.64" y1="117.74" x2="161.67" y2="113.31"/><line x1="192.63" y1="111.39" x2="174.40" y2="79.91"/><line x1="200.83" y1="150.06" x2="201.60" y2="152.50"/><line x1="247.69" y1="219.94" x2="248.10" y2="219.27"/><line x1="180.62" y1="208.58" x2="181.47" y2="211.18"/><line x1="201.60" y1="152.50" x2="202.36" y2="155.25"/><line x1="298.21" y1="240.55" x2="339.73" y2="222.23"/><line x1="211.63" y1="216.84" x2="198.46" y2="226.61"/><line x1="248.10" y1="219.27" x2="248.66" y2="218.68"/><line x1="198.46" y1="226.61" x2="211.63" y2="217.11"/><line x1="334.07" y1="177.60" x2="334.63" y2="177.78"/><line x1="160.77" y1="286.01" x2="161.20" y2="285.00"/><line x1="288.30" y1="218.44" x2="288.76" y2="218.48"/><line x1="250.11" y1="173.99" x2="237.33" y2="187.92"/><line x1="334.63" y1="177.78" x2="335.31" y2="177.96"/><line x1="352.19" y1="197.78" x2="350.87" y2="199.05"/><line x1="247.12" y1="198.03" x2="247.44" y2="198.09"/><line x1="171.51" y1="306.40" x2="157.73" y2="291.43"/><line x1="259.27" y1="175.55" x2="260.13" y2="175.68"/><line x1="350.87" y1="199.05" x2="349.48" y2="200.13"/><line x1="279.01" y1="240.22" x2="280.79" y2="240.04"/><line x1="344.69" y1="181.50" x2="330.06" y2="199.17"/><line x1="312.50" y1="159.65" x2="286.69" y2="169.15"/><line x1="253.46" y1="174.36" x2="250.63" y2="198.62"/><line x1="326.90" y1="198.25" x2="269.60" y2="242.19"/><line x1="280.79" y1="240.04" x2="282.77" y2="239.90"/><line x1="226.35" y1="107.36" x2="225.89" y2="107.31"/><line x1="254.18" y1="120.82" x2="248.89" y2="116.57"/><line x1="251.88" y1="174.15" x2="253.46" y2="174.36"/><line x1="321.76" y1="304.43" x2="320.44" y2="306.49"/><line x1="234.18" y1="80.54" x2="225.89" y2="107.31"/><line x1="298.21" y1="240.55" x2="332.78" y2="216.79"/><line x1="276.36" y1="299.96" x2="296.70" y2="329.92"/><line x1="320.44" y1="306.49" x2="318.93" y2="308.61"/><line x1="269.37" y1="306.99" x2="285.17" y2="333.18"/><line x1="32.16" y1="32.09" x2="64.64" y2="32.09"/><line x1="162.12" y1="106.01" x2="161.93" y2="108.36"/><line x1="333.60" y1="270.27" x2="297.45" y2="264.76"/><line x1="285.17" y1="333.18" x2="284.36" y2="333.67"/><line x1="264.60" y1="242.44" x2="288.30" y2="218.44"/><line x1="228.44" y1="336.79" x2="231.59" y2="314.55"/><line x1="253.89" y1="217.21" x2="255.85" y2="217.23"/><line x1="231.59" y1="314.55" x2="229.27" y2="314.14"/><line x1="187.30" y1="296.96" x2="186.93" y2="296.21"/><line x1="255.85" y1="217.23" x2="257.65" y2="217.28"/><line x1="243.72" y1="173.78" x2="241.99" y2="174.04"/><line x1="186.93" y1="296.21" x2="186.59" y2="295.42"/><line x1="249.30" y1="198.45" x2="250.63" y2="198.62"/><line x1="246.03" y1="173.81" x2="248.17" y2="173.88"/><line x1="327.26" y1="176.98" x2="333.06" y2="176.98"/><line x1="162.36" y1="280.61" x2="162.62" y2="279.90"/><line x1="264.60" y1="242.44" x2="260.76" y2="217.46"/><line x1="250.63" y1="198.62" x2="254.85" y2="174.62"/><line x1="304.87" y1="144.01" x2="303.28" y2="140.96"/><line x1="192.81" y1="319.05" x2="187.70" y2="297.68"/><line x1="353.24" y1="186.86" x2="352.19" y2="186.20"/><line x1="251.88" y1="174.15" x2="242.23" y2="196.50"/><line x1="303.28" y1="140.96" x2="302.15" y2="138.99"/><line x1="354.39" y1="195.21" x2="353.38" y2="196.46"/><line x1="264.14" y1="100.50" x2="248.89" y2="116.57"/><line x1="224.27" y1="107.04" x2="224.09" y2="106.98"/><line x1="335.37" y1="244.88" x2="341.87" y2="223.18"/><line x1="324.56" y1="298.66" x2="323.81" y2="300.52"/><line x1="264.60" y1="242.44" x2="274.45" y2="219.03"/><line x1="194.32" y1="110.36" x2="179.72" y2="78.29"/><line x1="192.81" y1="319.05" x2="171.51" y2="306.40"/><line x1="286.52" y1="288.97" x2="322.88" y2="302.44"/><line x1="286.27" y1="289.98" x2="285.85" y2="290.96"/><line x1="265.59" y1="309.86" x2="276.49" y2="336.08"/><line x1="190.04" y1="113.66" x2="162.35" y2="103.76"/><line x1="179.72" y1="78.29" x2="192.63" y2="111.39"/><line x1="187.13" y1="119.31" x2="161.61" y2="115.93"/><line x1="291.20" y1="331.94" x2="272.75" y2="303.60"/><line x1="221.19" y1="313.14" x2="220.10" y2="313.07"/><line x1="161.61" y1="115.93" x2="186.76" y2="120.98"/><line x1="202.36" y1="155.25" x2="168.66" y2="173.74"/><line x1="276.36" y1="299.96" x2="292.43" y2="331.74"/><line x1="184.49" y1="293.30" x2="183.96" y2="293.01"/><line x1="264.60" y1="242.44" x2="248.10" y2="219.27"/><line x1="212.77" y1="202.76" x2="183.48" y2="216.82"/><line x1="168.66" y1="173.74" x2="168.87" y2="175.55"/><line x1="211.63" y1="217.11" x2="211.66" y2="217.37"/><line x1="192.81" y1="319.05" x2="194.79" y2="300.34"/><line x1="183.96" y1="293.01" x2="183.39" y2="292.78"/><line x1="356.27" y1="231.97" x2="356.12" y2="231.71"/><line x1="211.66" y1="217.37" x2="199.57" y2="227.00"/><line x1="335.31" y1="177.96" x2="336.10" y2="178.14"/><line x1="162.36" y1="139.88" x2="201.60" y2="152.50"/><line x1="243.72" y1="173.78" x2="246.03" y2="173.81"/><line x1="212.77" y1="224.92" x2="212.62" y2="225.77"/><line x1="336.10" y1="178.14" x2="337.01" y2="178.30"/><line x1="247.99" y1="198.20" x2="248.22" y2="198.25"/><line x1="309.49" y1="153.35" x2="306.94" y2="148.14"/><line x1="348.03" y1="201.01" x2="346.50" y2="201.70"/><line x1="264.35" y1="131.63" x2="278.67" y2="112.80"/><line x1="283.98" y1="162.84" x2="280.87" y2="156.55"/><line x1="264.60" y1="242.44" x2="264.22" y2="217.97"/><line x1="222.11" y1="76.10" x2="218.82" y2="75.06"/><line x1="192.81" y1="319.05" x2="186.59" y2="295.42"/><line x1="284.94" y1="239.82" x2="287.32" y2="239.79"/><line x1="337.43" y1="245.26" x2="344.11" y2="224.41"/><line x1="269.10" y1="104.75" x2="267.89" y2="103.75"/><line x1="318.93" y1="308.61" x2="317.22" y2="310.79"/><line x1="185.88" y1="75.53" x2="198.51" y2="108.53"/><line x1="300.03" y1="260.39" x2="333.80" y2="269.68"/><line x1="188.29" y1="116.27" x2="161.78" y2="110.79"/><line x1="186.51" y1="125.91" x2="161.65" y2="127.72"/><line x1="192.63" y1="111.39" x2="166.58" y2="87.69"/><line x1="172.98" y1="188.71" x2="174.40" y2="192.17"/><line x1="237.45" y1="339.01" x2="239.74" y2="316.25"/><line x1="480.00" y1="32.02" x2="480.00" y2="64.50"/><line x1="257.65" y1="217.28" x2="259.28" y2="217.35"/><line x1="162.36" y1="139.88" x2="190.86" y2="136.34"/><line x1="202.67" y1="227.83" x2="211.82" y2="218.08"/><line x1="259.28" y1="217.35" x2="260.76" y2="217.46"/><line x1="239.31" y1="176.10" x2="238.38" y2="177.90"/><line x1="297.45" y1="218.72" x2="335.31" y2="177.96"/><line x1="342.61" y1="180.39" x2="343.66" y2="180.92"/><line x1="238.38" y1="177.90" x2="246.03" y2="173.81"/><line x1="171.79" y1="284.38" x2="162.36" y2="280.61"/><line x1="264.60" y1="242.44" x2="250.26" y2="217.80"/><line x1="254.85" y1="174.62" x2="252.21" y2="198.76"/><line x1="188.87" y1="223.78" x2="198.46" y2="226.61"/><line x1="212.77" y1="202.76" x2="186.65" y2="222.22"/><line x1="352.19" y1="186.20" x2="350.87" y2="199.05"/><line x1="343.66" y1="180.92" x2="344.69" y2="181.50"/><line x1="340.34" y1="202.55" x2="339.75" y2="202.51"/><line x1="252.21" y1="198.76" x2="256.07" y2="174.91"/><line x1="356.25" y1="189.02" x2="355.94" y2="188.74"/><line x1="339.75" y1="202.51" x2="339.16" y2="202.46"/><line x1="288.99" y1="175.48" x2="294.63" y2="197.13"/><line x1="301.17" y1="137.51" x2="300.02" y2="135.93"/><line x1="327.48" y1="199.86" x2="327.74" y2="200.18"/><line x1="345.27" y1="225.12" x2="341.73" y2="245.82"/><line x1="261.60" y1="98.26" x2="258.61" y2="95.59"/><line x1="287.15" y1="285.91" x2="324.56" y2="298.66"/><line x1="334.34" y1="265.24" x2="334.29" y2="266.33"/><line x1="192.63" y1="111.39" x2="175.96" y2="79.35"/><line x1="352.19" y1="186.20" x2="337.40" y2="202.20"/><line x1="311.37" y1="317.38" x2="283.59" y2="293.77"/><line x1="186.76" y1="120.98" x2="186.54" y2="122.75"/><line x1="261.41" y1="312.20" x2="266.88" y2="339.65"/><line x1="480.00" y1="479.91" x2="447.51" y2="479.91"/><line x1="219.15" y1="312.95" x2="218.35" y2="312.79"/><line x1="266.66" y1="218.52" x2="267.77" y2="218.73"/><line x1="161.59" y1="118.62" x2="186.54" y2="122.75"/><line x1="199.57" y1="227.00" x2="200.64" y2="227.34"/><line x1="183.39" y1="292.78" x2="182.14" y2="292.15"/><line x1="250.11" y1="173.99" x2="237.21" y2="187.12"/><line x1="192.63" y1="111.39" x2="164.73" y2="92.17"/><line x1="211.70" y1="217.61" x2="211.75" y2="217.85"/><line x1="237.45" y1="339.01" x2="238.63" y2="316.00"/><line x1="259.27" y1="175.55" x2="258.39" y2="198.98"/><line x1="341.73" y1="245.82" x2="341.14" y2="245.81"/><line x1="344.69" y1="181.50" x2="330.80" y2="199.45"/><line x1="240.52" y1="174.81" x2="241.99" y2="174.04"/><line x1="356.51" y1="232.51" x2="356.58" y2="232.78"/><line x1="253.46" y1="174.36" x2="249.30" y2="198.45"/><line x1="345.27" y1="225.12" x2="355.28" y2="237.18"/><line x1="258.39" y1="198.98" x2="260.13" y2="175.68"/><line x1="254.18" y1="120.82" x2="264.14" y2="100.50"/><line x1="273.43" y1="144.05" x2="291.51" y2="126.45"/><line x1="352.19" y1="186.20" x2="346.50" y2="201.70"/><line x1="280.87" y1="156.55" x2="303.28" y2="140.96"/><line x1="252.44" y1="90.23" x2="251.64" y2="89.76"/><line x1="259.34" y1="125.84" x2="269.10" y2="104.75"/><line x1="298.21" y1="240.55" x2="332.32" y2="213.29"/><line x1="214.16" y1="104.74" x2="215.73" y2="74.21"/><line x1="326.90" y1="198.25" x2="326.93" y2="198.57"/><line x1="181.93" y1="77.79" x2="179.72" y2="78.29"/><line x1="333.60" y1="270.27" x2="298.14" y2="263.87"/><line x1="170.21" y1="82.44" x2="169.43" y2="83.26"/><line x1="315.32" y1="313.04" x2="313.34" y2="315.27"/><line x1="203.78" y1="106.98" x2="187.79" y2="74.46"/><line x1="186.63" y1="127.14" x2="186.83" y2="128.35"/><line x1="224.68" y1="313.45" x2="222.41" y2="313.17"/><line x1="208.89" y1="182.95" x2="175.57" y2="195.01"/><line x1="219.47" y1="333.69" x2="221.19" y2="313.14"/><line x1="246.03" y1="173.81" x2="237.31" y2="183.04"/><line x1="345.27" y1="225.12" x2="356.12" y2="231.71"/><line x1="298.21" y1="240.55" x2="335.37" y2="244.88"/><line x1="203.63" y1="227.99" x2="211.91" y2="218.31"/><line x1="198.46" y1="226.61" x2="199.57" y2="227.00"/><line x1="254.02" y1="198.86" x2="256.08" y2="198.94"/><line x1="354.39" y1="195.21" x2="352.19" y2="186.20"/><line x1="356.25" y1="189.02" x2="356.48" y2="189.38"/><line x1="285.46" y1="196.75" x2="294.63" y2="197.13"/><line x1="171.51" y1="306.40" x2="158.97" y2="289.30"/><line x1="277.35" y1="150.29" x2="297.15" y2="132.45"/><line x1="274.83" y1="241.11" x2="276.03" y2="240.76"/><line x1="338.57" y1="202.39" x2="337.99" y2="202.30"/><line x1="344.69" y1="181.50" x2="328.68" y2="198.70"/><line x1="243.46" y1="113.11" x2="254.56" y2="91.88"/><line x1="326.90" y1="198.25" x2="272.42" y2="241.76"/><line x1="335.37" y1="244.88" x2="298.21" y2="242.61"/><line x1="328.03" y1="200.51" x2="329.15" y2="202.44"/><line x1="192.81" y1="319.05" x2="180.75" y2="291.33"/><line x1="232.20" y1="108.50" x2="226.35" y2="107.36"/><line x1="225.61" y1="77.33" x2="222.11" y2="76.10"/><line x1="286.52" y1="288.97" x2="323.81" y2="300.52"/><line x1="286.27" y1="289.98" x2="318.93" y2="308.61"/><line x1="334.22" y1="267.31" x2="334.11" y2="268.20"/><line x1="216.01" y1="104.54" x2="218.82" y2="75.06"/><line x1="291.20" y1="331.94" x2="274.68" y2="301.65"/><line x1="309.43" y1="319.39" x2="307.50" y2="321.29"/><line x1="234.18" y1="80.54" x2="225.11" y2="107.20"/><line x1="265.63" y1="339.95" x2="264.26" y2="340.21"/><line x1="186.54" y1="122.75" x2="186.48" y2="124.63"/><line x1="298.21" y1="240.55" x2="333.49" y2="220.63"/><line x1="276.36" y1="299.96" x2="293.76" y2="331.33"/><line x1="269.37" y1="306.99" x2="283.30" y2="334.14"/><line x1="161.61" y1="123.48" x2="186.51" y2="125.91"/><line x1="333.60" y1="270.27" x2="292.79" y2="272.32"/><line x1="264.60" y1="242.44" x2="289.20" y2="218.53"/><line x1="228.44" y1="336.79" x2="226.97" y2="313.78"/><line x1="268.82" y1="218.88" x2="269.80" y2="219.00"/><line x1="188.59" y1="298.98" x2="188.13" y2="298.35"/><line x1="171.51" y1="306.40" x2="177.57" y2="289.11"/><line x1="243.72" y1="173.78" x2="238.38" y2="177.90"/><line x1="211.75" y1="217.85" x2="202.67" y2="227.83"/><line x1="161.55" y1="284.03" x2="161.81" y2="283.10"/><line x1="247.99" y1="198.20" x2="253.46" y2="174.36"/><line x1="327.26" y1="176.98" x2="334.07" y2="177.60"/><line x1="340.54" y1="245.78" x2="339.93" y2="245.72"/><line x1="283.98" y1="162.84" x2="306.94" y2="148.14"/><line x1="264.60" y1="242.44" x2="263.23" y2="217.77"/><line x1="260.94" y1="199.00" x2="260.88" y2="175.78"/><line x1="192.81" y1="319.05" x2="186.93" y2="296.21"/><line x1="251.88" y1="174.15" x2="244.60" y2="197.54"/><line x1="269.10" y1="104.75" x2="254.18" y2="120.82"/><line x1="289.09" y1="124.16" x2="269.09" y2="137.83"/><line x1="327.11" y1="199.22" x2="327.27" y2="199.54"/><line x1="225.48" y1="107.26" x2="225.11" y2="107.20"/><line x1="250.79" y1="89.32" x2="249.90" y2="88.92"/><line x1="201.01" y1="107.72" x2="198.51" y2="108.53"/><line x1="212.75" y1="104.99" x2="212.85" y2="73.56"/><line x1="335.37" y1="244.88" x2="336.13" y2="245.26"/><line x1="283.30" y1="334.14" x2="281.98" y2="334.63"/><line x1="332.85" y1="254.09" x2="300.03" y2="260.39"/><line x1="264.60" y1="242.44" x2="276.58" y2="218.90"/><line x1="303.71" y1="324.74" x2="279.03" y2="297.38"/><line x1="168.69" y1="84.20" x2="167.96" y2="85.25"/><line x1="226.97" y1="313.78" x2="224.68" y2="313.45"/><line x1="313.34" y1="315.27" x2="311.37" y2="317.38"/><line x1="186.25" y1="294.90" x2="185.87" y2="294.44"/><line x1="297.45" y1="218.72" x2="334.63" y2="177.78"/><line x1="202.36" y1="155.25" x2="169.29" y2="177.62"/><line x1="162.93" y1="279.25" x2="163.29" y2="278.67"/><line x1="264.60" y1="242.44" x2="249.38" y2="218.19"/><line x1="188.87" y1="223.78" x2="211.63" y2="216.84"/><line x1="212.77" y1="202.76" x2="185.57" y2="220.82"/><line x1="192.81" y1="319.05" x2="194.56" y2="300.21"/><line x1="212.21" y1="219.68" x2="205.42" y2="228.11"/><line x1="163.29" y1="278.67" x2="163.70" y2="278.15"/><line x1="248.17" y1="173.88" x2="250.11" y2="173.99"/><line x1="333.62" y1="177.40" x2="334.07" y2="177.60"/><line x1="162.36" y1="139.88" x2="168.66" y2="173.74"/><line x1="256.08" y1="198.94" x2="259.27" y2="175.55"/><line x1="353.38" y1="196.46" x2="352.19" y2="197.78"/><line x1="337.40" y1="202.20" x2="336.08" y2="202.20"/><line x1="277.42" y1="240.47" x2="279.01" y2="240.22"/><line x1="341.87" y1="223.18" x2="336.13" y2="245.26"/><line x1="264.35" y1="131.63" x2="259.34" y2="125.84"/><line x1="264.60" y1="242.44" x2="266.66" y2="218.52"/><line x1="352.19" y1="186.20" x2="337.99" y2="202.30"/><line x1="192.81" y1="319.05" x2="185.87" y2="294.44"/><line x1="206.52" y1="106.33" x2="198.87" y2="73.65"/><line x1="218.82" y1="75.06" x2="214.16" y2="104.74"/><line x1="300.03" y1="260.39" x2="299.87" y2="260.96"/><line x1="297.45" y1="218.72" x2="319.95" y2="175.48"/><line x1="191.20" y1="112.48" x2="164.21" y2="93.87"/><line x1="162.35" y1="103.76" x2="162.12" y2="106.01"/><line x1="169.29" y1="177.62" x2="169.91" y2="179.98"/><line x1="285.73" y1="332.70" x2="269.37" y2="306.99"/><line x1="233.92" y1="314.99" x2="231.59" y2="314.55"/><line x1="192.63" y1="111.39" x2="165.30" y2="90.58"/><line x1="211.70" y1="217.61" x2="200.64" y2="227.34"/><line x1="237.45" y1="339.01" x2="239.04" y2="316.09"/><line x1="252.52" y1="217.32" x2="253.89" y2="217.21"/><line x1="162.36" y1="139.88" x2="193.48" y2="139.14"/><line x1="338.17" y1="178.64" x2="339.32" y2="179.02"/><line x1="240.52" y1="174.81" x2="243.72" y2="173.78"/><line x1="339.32" y1="179.02" x2="340.43" y2="179.44"/><line x1="297.45" y1="218.72" x2="337.01" y2="178.30"/><line x1="248.22" y1="198.25" x2="249.30" y2="198.45"/><line x1="171.79" y1="284.38" x2="162.93" y2="279.25"/><line x1="265.84" y1="198.40" x2="262.05" y2="175.85"/><line x1="212.77" y1="202.76" x2="188.87" y2="223.78"/><line x1="343.25" y1="202.48" x2="341.52" y2="202.58"/><line x1="352.19" y1="186.20" x2="348.03" y2="201.01"/><line x1="280.87" y1="156.55" x2="304.87" y2="144.01"/><line x1="327.00" y1="198.89" x2="327.11" y2="199.22"/><line x1="267.89" y1="103.75" x2="266.24" y2="102.34"/><line x1="288.99" y1="175.48" x2="315.99" y2="167.02"/><line x1="259.34" y1="125.84" x2="269.86" y2="105.34"/><line x1="237.90" y1="110.42" x2="245.57" y2="87.37"/><line x1="300.03" y1="260.39" x2="334.36" y2="262.56"/><line x1="345.27" y1="225.12" x2="340.54" y2="245.78"/><line x1="224.79" y1="107.15" x2="224.51" y2="107.09"/><line x1="341.87" y1="223.18" x2="342.98" y2="223.76"/><line x1="315.32" y1="313.04" x2="285.27" y2="291.92"/><line x1="192.63" y1="111.39" x2="173.05" y2="80.50"/><line x1="285.27" y1="291.92" x2="313.34" y2="315.27"/><line x1="280.41" y1="335.12" x2="278.57" y2="335.59"/><line x1="196.28" y1="109.40" x2="194.32" y2="110.36"/><line x1="278.57" y1="335.59" x2="265.59" y2="309.86"/><line x1="219.47" y1="333.69" x2="222.41" y2="313.17"/><line x1="261.41" y1="312.20" x2="256.83" y2="314.03"/><line x1="262.07" y1="217.60" x2="263.23" y2="217.77"/><line x1="161.67" y1="113.31" x2="187.13" y2="119.31"/><line x1="345.27" y1="225.12" x2="356.27" y2="231.97"/><line x1="298.21" y1="240.55" x2="340.78" y2="222.66"/><line x1="222.41" y1="313.17" x2="221.19" y2="313.14"/><line x1="185.45" y1="294.01" x2="184.99" y2="293.64"/><line x1="237.71" y1="180.21" x2="237.31" y2="183.04"/><line x1="198.46" y1="226.61" x2="211.66" y2="217.37"/><line x1="184.99" y1="293.64" x2="184.49" y2="293.30"/><line x1="163.70" y1="278.15" x2="164.16" y2="277.69"/><line x1="254.02" y1="198.86" x2="257.24" y2="175.16"/><line x1="250.11" y1="173.99" x2="237.52" y2="188.79"/><line x1="205.42" y1="228.11" x2="212.52" y2="221.73"/><line x1="171.51" y1="306.40" x2="158.30" y2="290.42"/><line x1="257.24" y1="175.16" x2="256.08" y2="198.94"/><line x1="344.69" y1="181.50" x2="329.35" y2="198.92"/><line x1="253.46" y1="174.36" x2="254.85" y2="174.62"/><line x1="298.68" y1="134.24" x2="297.15" y2="132.45"/><line x1="345.27" y1="225.12" x2="353.53" y2="239.58"/><line x1="255.17" y1="92.51" x2="254.56" y2="91.88"/><line x1="273.43" y1="144.05" x2="269.09" y2="137.83"/><line x1="336.13" y1="245.26" x2="337.43" y2="245.26"/><line x1="216.01" y1="104.54" x2="222.11" y2="76.10"/><line x1="234.18" y1="80.54" x2="225.48" y2="107.26"/><line x1="174.40" y1="79.91" x2="173.05" y2="80.50"/><line x1="298.21" y1="240.55" x2="333.12" y2="220.61"/><line x1="173.05" y1="80.50" x2="171.92" y2="81.11"/><line x1="161.61" y1="123.48" x2="186.48" y2="124.63"/><line x1="333.60" y1="270.27" x2="294.96" y2="268.60"/><line x1="203.78" y1="106.98" x2="186.68" y2="74.99"/><line x1="186.48" y1="124.63" x2="186.51" y2="125.91"/><line x1="170.73" y1="182.61" x2="171.74" y2="185.53"/><line x1="64.64" y1="32.09" x2="32.16" y2="64.58"/><line x1="171.51" y1="306.40" x2="179.23" y2="290.31"/><line x1="171.74" y1="185.53" x2="172.98" y2="188.71"/><line x1="211.75" y1="217.85" x2="201.67" y2="227.62"/><line x1="208.89" y1="182.95" x2="209.92" y2="187.65"/><line x1="219.47" y1="333.69" x2="219.15" y2="312.95"/><line x1="356.64" y1="233.05" x2="356.68" y2="233.32"/><line x1="345.27" y1="225.12" x2="356.51" y2="232.51"/><line x1="201.67" y1="227.62" x2="202.67" y2="227.83"/><line x1="340.43" y1="179.44" x2="341.53" y2="179.90"/><line x1="203.63" y1="227.99" x2="212.21" y2="219.68"/><line x1="250.63" y1="198.62" x2="252.21" y2="198.76"/><line x1="341.53" y1="179.90" x2="342.61" y2="180.39"/><line x1="341.52" y1="202.58" x2="340.93" y2="202.57"/><line x1="251.88" y1="174.15" x2="243.35" y2="197.08"/><line x1="340.93" y1="202.57" x2="340.34" y2="202.55"/><line x1="171.51" y1="306.40" x2="160.26" y2="287.06"/><line x1="264.14" y1="100.50" x2="261.60" y2="98.26"/><line x1="277.35" y1="150.29" x2="293.57" y2="128.56"/><line x1="298.21" y1="240.55" x2="327.27" y2="199.54"/><line x1="248.89" y1="116.57" x2="258.61" y2="95.59"/><line x1="243.46" y1="113.11" x2="253.19" y2="90.74"/><line x1="326.90" y1="198.25" x2="274.83" y2="241.11"/><line x1="335.37" y1="244.88" x2="332.85" y2="254.09"/><line x1="264.60" y1="242.44" x2="275.50" y2="218.97"/><line x1="224.09" y1="106.98" x2="228.96" y2="78.57"/><line x1="286.52" y1="288.97" x2="286.27" y2="289.98"/><line x1="334.36" y1="264.06" x2="334.34" y2="265.24"/><line x1="313.34" y1="315.27" x2="284.51" y2="292.86"/><line x1="265.59" y1="309.86" x2="261.41" y2="312.20"/><line x1="179.72" y1="78.29" x2="177.73" y2="78.81"/><line x1="291.20" y1="331.94" x2="285.73" y2="332.70"/><line x1="284.51" y1="292.86" x2="311.37" y2="317.38"/><line x1="32.00" y1="447.50" x2="64.49" y2="479.98"/></g></svg>