<svg xmlns="http://www.w3.org/2000/svg" width="512" height="512"><rect width="512" height="512" fill="#0a0f1a"/><text x="12" y="20" font-family="monospace" font-size="11" fill="#4a7fa5">FRONT (XZ)</text><g stroke="#00d4ff" stroke-width="0.6" opacity="0.85"><line x1="285.71" y1="116.31" x2="315.53" y2="95.08"/><line x1="324.59" y1="320.79" x2="293.39" y2="303.64"/><line x1="182.23" y1="275.14" x2="197.00" y2="282.82"/><line x1="202.92" y1="179.96" x2="203.25" y2="178.08"/><line x1="293.39" y1="303.64" x2="317.04" y2="331.74"/><line x1="183.27" y1="333.56" x2="208.14" y2="311.25"/><line x1="176.41" y1="72.31" x2="175.37" y2="73.41"/><line x1="203.25" y1="178.08" x2="208.58" y2="144.16"/><line x1="300.13" y1="140.23" x2="335.44" y2="129.27"/><line x1="208.14" y1="311.25" x2="178.08" y2="326.46"/><line x1="199.23" y1="289.39" x2="166.93" y2="286.41"/><line x1="335.44" y1="129.27" x2="303.73" y2="150.06"/><line x1="215.02" y1="356.00" x2="208.65" y2="353.34"/><line x1="275.64" y1="322.80" x2="288.96" y2="354.47"/><line x1="189.53" y1="276.27" x2="186.00" y2="275.24"/><line x1="169.37" y1="174.34" x2="170.62" y2="180.32"/><line x1="215.68" y1="121.69" x2="218.31" y2="117.37"/><line x1="288.96" y1="354.47" x2="268.56" y2="326.35"/><line x1="182.23" y1="275.14" x2="191.20" y2="277.13"/><line x1="175.18" y1="86.19" x2="176.22" y2="92.36"/><line x1="218.31" y1="117.37" x2="221.29" y2="113.55"/><line x1="346.22" y1="175.29" x2="310.59" y2="184.77"/><line x1="166.36" y1="300.47" x2="199.23" y2="289.39"/><line x1="310.59" y1="184.77" x2="347.77" y2="193.15"/><line x1="207.68" y1="71.83" x2="206.49" y2="71.05"/><line x1="175.20" y1="185.40" x2="176.65" y2="186.39"/><line x1="244.41" y1="361.81" x2="246.68" y2="329.04"/><line x1="177.36" y1="130.61" x2="176.74" y2="137.40"/><line x1="238.36" y1="102.47" x2="242.42" y2="101.49"/><line x1="310.78" y1="239.87" x2="309.37" y2="252.44"/><line x1="166.93" y1="286.41" x2="167.89" y2="284.40"/><line x1="176.74" y1="137.40" x2="175.86" y2="144.28"/><line x1="231.06" y1="326.82" x2="226.66" y2="325.48"/><line x1="209.27" y1="73.67" x2="208.60" y2="72.70"/><line x1="288.23" y1="74.66" x2="298.09" y2="79.95"/><line x1="198.69" y1="286.97" x2="178.21" y2="275.98"/><line x1="480.00" y1="32.02" x2="447.51" y2="32.02"/><line x1="196.26" y1="68.14" x2="194.34" y2="68.05"/><line x1="173.30" y1="158.32" x2="266.21" y2="68.61"/><line x1="210.18" y1="84.29" x2="177.36" y2="130.61"/><line x1="336.19" y1="296.02" x2="330.88" y2="309.03"/><line x1="223.69" y1="74.31" x2="225.97" y2="73.06"/><line x1="301.80" y1="285.17" x2="298.15" y2="294.42"/><line x1="195.56" y1="345.43" x2="189.09" y2="339.89"/><line x1="174.71" y1="151.25" x2="249.69" y2="67.94"/><line x1="173.90" y1="184.27" x2="175.20" y2="185.40"/><line x1="266.21" y1="68.61" x2="251.28" y2="100.72"/><line x1="291.06" y1="123.17" x2="295.89" y2="131.28"/><line x1="215.03" y1="318.91" x2="211.39" y2="315.35"/><line x1="252.70" y1="329.19" x2="244.41" y2="361.81"/><line x1="177.71" y1="123.92" x2="177.36" y2="130.61"/><line x1="234.54" y1="103.83" x2="238.36" y2="102.47"/><line x1="288.05" y1="311.45" x2="282.13" y2="317.83"/><line x1="166.21" y1="288.52" x2="166.93" y2="286.41"/><line x1="210.18" y1="84.29" x2="176.41" y2="72.31"/><line x1="173.30" y1="158.32" x2="211.45" y2="131.90"/><line x1="210.18" y1="84.29" x2="177.02" y2="98.58"/><line x1="308.58" y1="341.00" x2="299.22" y2="348.58"/><line x1="311.62" y1="226.49" x2="310.78" y2="239.87"/><line x1="210.18" y1="84.29" x2="213.16" y2="81.79"/><line x1="205.30" y1="306.60" x2="202.87" y2="301.41"/><line x1="169.68" y1="172.73" x2="171.62" y2="165.48"/><line x1="199.90" y1="68.70" x2="198.11" y2="68.36"/><line x1="185.74" y1="189.48" x2="187.63" y2="189.66"/><line x1="340.06" y1="143.34" x2="343.66" y2="158.68"/><line x1="310.78" y1="239.87" x2="346.35" y2="249.51"/><line x1="173.54" y1="318.57" x2="169.63" y2="309.91"/><line x1="221.79" y1="358.18" x2="231.06" y2="326.82"/><line x1="198.11" y1="68.36" x2="196.26" y2="68.14"/><line x1="174.71" y1="151.25" x2="231.16" y2="70.95"/><line x1="266.21" y1="68.61" x2="230.98" y2="105.58"/><line x1="187.63" y1="189.66" x2="189.48" y2="189.67"/><line x1="306.67" y1="160.75" x2="308.96" y2="172.32"/><line x1="266.60" y1="103.21" x2="288.23" y2="74.66"/><line x1="231.06" y1="326.82" x2="215.02" y2="356.00"/><line x1="209.27" y1="73.67" x2="209.67" y2="74.73"/><line x1="174.56" y1="277.61" x2="198.69" y2="286.97"/><line x1="171.62" y1="165.48" x2="202.38" y2="181.68"/><line x1="221.27" y1="75.81" x2="223.69" y2="74.31"/><line x1="288.23" y1="74.66" x2="273.48" y2="106.33"/><line x1="265.71" y1="361.21" x2="252.74" y2="362.05"/><line x1="304.89" y1="275.08" x2="336.19" y2="296.02"/><line x1="198.69" y1="286.97" x2="176.32" y2="276.72"/><line x1="210.18" y1="84.29" x2="184.07" y2="68.99"/><line x1="480.00" y1="32.02" x2="480.00" y2="64.50"/><line x1="198.02" y1="187.04" x2="199.44" y2="185.94"/><line x1="210.18" y1="84.29" x2="173.73" y2="77.17"/><line x1="173.30" y1="158.32" x2="221.29" y2="113.55"/><line x1="210.18" y1="84.29" x2="177.71" y2="123.92"/><line x1="336.19" y1="296.02" x2="301.80" y2="285.17"/><line x1="219.08" y1="321.92" x2="195.56" y2="345.43"/><line x1="480.00" y1="479.91" x2="480.00" y2="447.42"/><line x1="184.07" y1="68.99" x2="182.27" y2="69.42"/><line x1="199.44" y1="185.94" x2="200.63" y2="184.67"/><line x1="315.53" y1="95.08" x2="291.06" y2="123.17"/><line x1="195.56" y1="345.43" x2="215.03" y2="318.91"/><line x1="197.00" y1="282.82" x2="195.86" y2="281.07"/><line x1="174.71" y1="151.25" x2="218.70" y2="77.55"/><line x1="208.58" y1="144.16" x2="209.84" y2="137.77"/><line x1="241.62" y1="68.62" x2="245.55" y2="68.19"/><line x1="266.21" y1="68.61" x2="246.72" y2="100.91"/><line x1="174.71" y1="151.25" x2="245.55" y2="68.19"/><line x1="291.06" y1="123.17" x2="323.10" y2="104.91"/><line x1="317.04" y1="331.74" x2="288.05" y2="311.45"/><line x1="195.86" y1="281.07" x2="194.51" y2="279.53"/><line x1="171.62" y1="165.48" x2="196.39" y2="187.99"/><line x1="447.51" y1="479.91" x2="480.00" y2="447.42"/><line x1="171.62" y1="165.48" x2="173.30" y2="158.32"/><line x1="288.05" y1="311.45" x2="308.58" y2="341.00"/><line x1="210.18" y1="84.29" x2="194.34" y2="68.05"/><line x1="170.62" y1="180.32" x2="171.55" y2="181.70"/><line x1="174.57" y1="74.58" x2="174.03" y2="75.84"/><line x1="210.18" y1="84.29" x2="177.71" y2="71.30"/><line x1="173.30" y1="158.32" x2="209.84" y2="137.77"/><line x1="210.18" y1="84.29" x2="176.22" y2="92.36"/><line x1="210.18" y1="84.29" x2="174.71" y2="151.25"/><line x1="205.30" y1="306.60" x2="173.54" y2="318.57"/><line x1="169.68" y1="172.73" x2="172.74" y2="183.03"/><line x1="221.29" y1="113.55" x2="224.60" y2="110.24"/><line x1="340.06" y1="143.34" x2="306.67" y2="160.75"/><line x1="174.71" y1="151.25" x2="228.11" y2="72.06"/><line x1="266.21" y1="68.61" x2="227.66" y2="107.72"/><line x1="171.62" y1="165.48" x2="187.63" y2="189.66"/><line x1="171.62" y1="165.48" x2="201.62" y2="183.26"/><line x1="311.57" y1="198.08" x2="311.90" y2="212.27"/><line x1="210.18" y1="84.29" x2="203.30" y2="69.77"/><line x1="210.18" y1="84.29" x2="186.01" y2="68.64"/><line x1="210.18" y1="84.29" x2="174.03" y2="75.84"/><line x1="236.48" y1="361.08" x2="228.94" y2="359.87"/><line x1="210.18" y1="84.29" x2="177.91" y2="117.51"/><line x1="480.00" y1="479.91" x2="447.51" y2="479.91"/><line x1="241.06" y1="328.59" x2="235.86" y2="327.86"/><line x1="174.71" y1="151.25" x2="216.00" y2="79.55"/><line x1="208.58" y1="144.16" x2="173.30" y2="158.32"/><line x1="266.21" y1="68.61" x2="242.42" y2="101.49"/><line x1="309.37" y1="252.44" x2="307.41" y2="264.18"/><line x1="178.08" y1="326.46" x2="205.30" y2="306.60"/><line x1="171.62" y1="165.48" x2="178.23" y2="187.26"/><line x1="171.62" y1="165.48" x2="194.73" y2="188.66"/><line x1="171.62" y1="165.48" x2="208.58" y2="144.16"/><line x1="343.93" y1="266.27" x2="340.54" y2="281.77"/><line x1="303.73" y1="150.06" x2="340.06" y2="143.34"/><line x1="226.66" y1="325.48" x2="222.67" y2="323.84"/><line x1="210.18" y1="84.29" x2="196.26" y2="68.14"/><line x1="170.62" y1="180.32" x2="169.68" y2="172.73"/><line x1="298.09" y1="79.95" x2="307.19" y2="86.76"/><line x1="210.18" y1="84.29" x2="179.09" y2="70.58"/><line x1="208.65" y1="353.34" x2="202.66" y2="350.19"/><line x1="268.56" y1="326.35" x2="277.79" y2="358.68"/><line x1="279.85" y1="110.70" x2="285.71" y2="116.31"/><line x1="221.29" y1="113.55" x2="266.21" y2="68.61"/><line x1="330.88" y1="309.03" x2="324.59" y2="320.79"/><line x1="277.79" y1="358.68" x2="265.71" y2="361.21"/><line x1="180.26" y1="275.45" x2="182.23" y2="275.14"/><line x1="177.02" y1="98.58" x2="177.57" y2="104.84"/><line x1="266.21" y1="68.61" x2="224.60" y2="110.24"/><line x1="298.15" y1="294.42" x2="293.39" y2="303.64"/><line x1="347.77" y1="193.15" x2="311.57" y2="198.08"/><line x1="165.83" y1="297.89" x2="165.55" y2="295.41"/><line x1="169.93" y1="178.89" x2="169.37" y2="174.34"/><line x1="171.62" y1="165.48" x2="185.74" y2="189.48"/><line x1="176.65" y1="186.39" x2="178.23" y2="187.26"/><line x1="171.62" y1="165.48" x2="200.63" y2="184.67"/><line x1="311.57" y1="198.08" x2="348.28" y2="212.27"/><line x1="211.39" y1="315.35" x2="208.14" y2="311.25"/><line x1="246.68" y1="329.04" x2="236.48" y2="361.08"/><line x1="210.18" y1="84.29" x2="205.03" y2="70.37"/><line x1="178.23" y1="187.26" x2="179.95" y2="188.01"/><line x1="210.18" y1="84.29" x2="188.09" y2="68.40"/><line x1="329.78" y1="116.46" x2="335.44" y2="129.27"/><line x1="242.42" y1="101.49" x2="246.72" y2="100.91"/><line x1="236.48" y1="361.08" x2="241.06" y2="328.59"/><line x1="191.20" y1="277.13" x2="189.53" y2="276.27"/><line x1="175.86" y1="144.28" x2="174.71" y2="151.25"/><line x1="246.72" y1="100.91" x2="251.28" y2="100.72"/><line x1="186.00" y1="275.24" x2="187.80" y2="275.63"/><line x1="346.35" y1="249.51" x2="309.37" y2="252.44"/><line x1="209.80" y1="75.88" x2="207.68" y2="71.83"/><line x1="168.94" y1="282.73" x2="170.14" y2="281.21"/><line x1="189.48" y1="189.67" x2="191.28" y2="189.50"/><line x1="273.48" y1="106.33" x2="279.85" y2="110.70"/><line x1="309.37" y1="252.44" x2="343.93" y2="266.27"/><line x1="176.22" y1="92.36" x2="177.02" y2="98.58"/><line x1="171.62" y1="165.48" x2="176.65" y2="186.39"/><line x1="194.34" y1="68.05" x2="192.36" y2="68.08"/><line x1="171.62" y1="165.48" x2="193.03" y2="189.17"/><line x1="191.28" y1="189.50" x2="193.03" y2="189.17"/><line x1="199.23" y1="289.39" x2="165.83" y2="297.89"/><line x1="199.23" y1="289.39" x2="171.47" y2="279.86"/><line x1="226.66" y1="325.48" x2="208.65" y2="353.34"/><line x1="225.97" y1="73.06" x2="228.11" y2="72.06"/><line x1="298.09" y1="79.95" x2="279.85" y2="110.70"/><line x1="206.49" y1="71.05" x2="210.18" y2="84.29"/><line x1="178.21" y1="275.98" x2="180.26" y2="275.45"/><line x1="347.80" y1="231.52" x2="346.35" y2="249.51"/><line x1="323.10" y1="104.91" x2="329.78" y2="116.46"/><line x1="330.88" y1="309.03" x2="298.15" y2="294.42"/><line x1="189.09" y1="339.89" x2="183.27" y2="333.56"/><line x1="180.61" y1="69.96" x2="179.09" y2="70.58"/><line x1="167.89" y1="284.40" x2="168.94" y2="282.73"/><line x1="295.89" y1="131.28" x2="300.13" y2="140.23"/><line x1="169.93" y1="178.89" x2="169.50" y2="177.42"/><line x1="249.69" y1="67.94" x2="254.05" y2="67.85"/><line x1="199.23" y1="289.39" x2="166.21" y2="288.52"/><line x1="282.13" y1="317.83" x2="275.64" y2="322.80"/><line x1="215.02" y1="356.00" x2="226.66" y2="325.48"/><line x1="202.87" y1="301.41" x2="200.85" y2="295.67"/><line x1="343.66" y1="158.68" x2="346.22" y2="175.29"/><line x1="182.23" y1="275.14" x2="192.96" y2="278.22"/><line x1="209.80" y1="75.88" x2="208.60" y2="72.70"/><line x1="172.74" y1="183.03" x2="173.90" y2="184.27"/><line x1="273.48" y1="106.33" x2="298.09" y2="79.95"/><line x1="260.92" y1="328.48" x2="252.70" y2="329.19"/><line x1="480.00" y1="64.50" x2="447.51" y2="32.02"/><line x1="199.23" y1="289.39" x2="170.14" y2="281.21"/><line x1="200.63" y1="184.67" x2="201.62" y2="183.26"/><line x1="311.90" y1="212.27" x2="311.62" y2="226.49"/><line x1="323.10" y1="104.91" x2="295.89" y2="131.28"/><line x1="228.94" y1="359.87" x2="221.79" y2="358.18"/><line x1="189.09" y1="339.89" x2="211.39" y2="315.35"/><line x1="192.96" y1="278.22" x2="191.20" y2="277.13"/><line x1="209.84" y1="137.77" x2="211.45" y2="131.90"/><line x1="199.23" y1="289.39" x2="165.74" y2="290.72"/><line x1="173.73" y1="77.17" x2="173.69" y2="78.58"/><line x1="176.32" y1="276.72" x2="178.21" y2="275.98"/><line x1="202.87" y1="301.41" x2="169.63" y2="309.91"/><line x1="301.80" y1="285.17" x2="330.88" y2="309.03"/><line x1="171.55" y1="181.70" x2="172.74" y2="183.03"/><line x1="182.27" y1="69.42" x2="180.61" y2="69.96"/><line x1="202.66" y1="350.19" x2="195.56" y2="345.43"/><line x1="182.23" y1="275.14" x2="194.51" y2="279.53"/><line x1="209.80" y1="75.88" x2="209.67" y2="74.73"/><line x1="215.03" y1="318.91" x2="189.09" y2="339.89"/><line x1="260.92" y1="328.48" x2="252.74" y2="362.05"/><line x1="245.55" y1="68.19" x2="249.69" y2="67.94"/><line x1="177.86" y1="111.15" x2="177.91" y2="117.51"/><line x1="194.51" y1="279.53" x2="192.96" y2="278.22"/><line x1="165.52" y1="293.01" x2="165.74" y2="290.72"/><line x1="308.58" y1="341.00" x2="282.13" y2="317.83"/><line x1="311.90" y1="212.27" x2="347.80" y2="231.52"/><line x1="174.03" y1="75.84" x2="173.73" y2="77.17"/><line x1="203.30" y1="69.77" x2="201.63" y2="69.18"/><line x1="266.21" y1="68.61" x2="254.05" y2="67.85"/><line x1="173.54" y1="318.57" x2="202.87" y2="301.41"/><line x1="259.19" y1="101.34" x2="266.60" y2="103.21"/><line x1="228.94" y1="359.87" x2="235.86" y2="327.86"/><line x1="306.67" y1="160.75" x2="343.66" y2="158.68"/><line x1="32.16" y1="32.09" x2="32.16" y2="64.58"/><line x1="213.16" y1="81.79" x2="216.00" y2="79.55"/><line x1="209.27" y1="73.67" x2="209.80" y2="75.88"/><line x1="307.41" y1="264.18" x2="304.89" y2="275.08"/><line x1="171.47" y1="279.86" x2="172.95" y2="278.65"/><line x1="265.71" y1="361.21" x2="260.92" y2="328.48"/><line x1="177.57" y1="104.84" x2="177.86" y2="111.15"/><line x1="222.67" y1="323.84" x2="219.08" y2="321.92"/><line x1="224.60" y1="110.24" x2="227.66" y2="107.72"/><line x1="173.30" y1="158.32" x2="218.31" y2="117.37"/><line x1="348.28" y1="212.27" x2="347.80" y2="231.52"/><line x1="165.55" y1="295.41" x2="165.52" y2="293.01"/><line x1="307.19" y1="86.76" x2="315.53" y2="95.08"/><line x1="266.21" y1="68.61" x2="174.71" y2="151.25"/><line x1="197.95" y1="284.78" x2="197.00" y2="282.82"/><line x1="324.59" y1="320.79" x2="317.04" y2="331.74"/><line x1="174.71" y1="151.25" x2="241.62" y2="68.62"/><line x1="183.27" y1="333.56" x2="178.08" y2="326.46"/><line x1="179.95" y1="188.01" x2="181.81" y2="188.63"/><line x1="300.13" y1="140.23" x2="303.73" y2="150.06"/><line x1="198.69" y1="286.97" x2="197.95" y2="284.78"/><line x1="184.15" y1="275.07" x2="186.00" y2="275.24"/><line x1="210.18" y1="84.29" x2="175.18" y2="86.19"/><line x1="210.18" y1="84.29" x2="175.86" y2="144.28"/><line x1="275.64" y1="322.80" x2="268.56" y2="326.35"/><line x1="169.68" y1="172.73" x2="171.55" y2="181.70"/><line x1="32.00" y1="479.98" x2="64.49" y2="479.98"/><line x1="200.85" y1="295.67" x2="199.23" y2="289.39"/><line x1="174.71" y1="151.25" x2="225.97" y2="73.06"/><line x1="266.21" y1="68.61" x2="277.60" y2="70.88"/><line x1="346.22" y1="175.29" x2="347.77" y2="193.15"/><line x1="210.18" y1="84.29" x2="174.57" y2="74.58"/><line x1="173.30" y1="158.32" x2="215.68" y2="121.69"/><line x1="348.28" y1="212.27" x2="311.90" y2="212.27"/><line x1="210.18" y1="84.29" x2="177.86" y2="111.15"/><line x1="231.16" y1="70.95" x2="234.43" y2="70.00"/><line x1="205.03" y1="70.37" x2="203.30" y2="69.77"/><line x1="241.06" y1="328.59" x2="228.94" y2="359.87"/><line x1="174.71" y1="151.25" x2="213.16" y2="81.79"/><line x1="251.28" y1="100.72" x2="259.19" y2="101.34"/><line x1="174.71" y1="151.25" x2="237.92" y2="69.22"/><line x1="266.21" y1="68.61" x2="238.36" y2="102.47"/><line x1="177.71" y1="71.30" x2="176.41" y2="72.31"/><line x1="170.14" y1="281.21" x2="171.47" y2="279.86"/><line x1="171.62" y1="165.48" x2="203.25" y2="178.08"/><line x1="343.93" y1="266.27" x2="307.41" y2="264.18"/><line x1="192.36" y1="68.08" x2="190.31" y2="68.24"/><line x1="210.18" y1="84.29" x2="198.11" y2="68.36"/><line x1="193.03" y1="189.17" x2="194.73" y2="188.66"/><line x1="198.69" y1="286.97" x2="180.26" y2="275.45"/><line x1="210.18" y1="84.29" x2="180.61" y2="69.96"/><line x1="184.15" y1="275.07" x2="189.53" y2="276.27"/><line x1="210.18" y1="84.29" x2="173.88" y2="80.07"/><line x1="208.65" y1="353.34" x2="222.67" y2="323.84"/><line x1="210.18" y1="84.29" x2="176.74" y2="137.40"/><line x1="228.11" y1="72.06" x2="231.16" y2="70.95"/><line x1="279.85" y1="110.70" x2="307.19" y2="86.76"/><line x1="173.88" y1="80.07" x2="175.18" y2="86.19"/><line x1="180.26" y1="275.45" x2="197.95" y2="284.78"/><line x1="32.00" y1="479.98" x2="32.00" y2="447.50"/><line x1="200.85" y1="295.67" x2="166.36" y2="300.47"/><line x1="174.71" y1="151.25" x2="223.69" y2="74.31"/><line x1="298.15" y1="294.42" x2="324.59" y2="320.79"/><line x1="174.71" y1="151.25" x2="254.05" y2="67.85"/><line x1="266.21" y1="68.61" x2="259.19" y2="101.34"/><line x1="179.09" y1="70.58" x2="177.71" y2="71.30"/><line x1="171.62" y1="165.48" x2="183.81" y2="189.13"/><line x1="252.70" y1="329.19" x2="246.68" y2="329.04"/><line x1="202.38" y1="181.68" x2="202.92" y2="179.96"/><line x1="171.62" y1="165.48" x2="199.44" y2="185.94"/><line x1="208.60" y1="72.70" x2="207.68" y2="71.83"/><line x1="211.39" y1="315.35" x2="183.27" y2="333.56"/><line x1="169.31" y1="175.91" x2="169.37" y2="174.34"/><line x1="210.18" y1="84.29" x2="190.31" y2="68.24"/><line x1="329.78" y1="116.46" x2="300.13" y2="140.23"/><line x1="299.22" y1="348.58" x2="288.96" y2="354.47"/><line x1="210.18" y1="84.29" x2="175.37" y2="73.41"/><line x1="173.30" y1="158.32" x2="213.40" y2="126.54"/><line x1="210.18" y1="84.29" x2="177.57" y2="104.84"/><line x1="191.20" y1="277.13" x2="184.15" y2="275.07"/><line x1="169.63" y1="309.91" x2="166.36" y2="300.47"/><line x1="173.69" y1="78.58" x2="173.88" y2="80.07"/><line x1="221.79" y1="358.18" x2="215.02" y2="356.00"/><line x1="308.96" y1="172.32" x2="310.59" y2="184.77"/><line x1="174.71" y1="151.25" x2="234.43" y2="70.00"/><line x1="266.21" y1="68.61" x2="234.54" y2="103.83"/><line x1="266.60" y1="103.21" x2="273.48" y2="106.33"/><line x1="171.62" y1="165.48" x2="175.20" y2="185.40"/><line x1="171.62" y1="165.48" x2="191.28" y2="189.50"/><line x1="174.56" y1="277.61" x2="176.32" y2="276.72"/><line x1="171.62" y1="165.48" x2="202.92" y2="179.96"/><line x1="252.74" y1="362.05" x2="244.41" y2="361.81"/><line x1="304.89" y1="275.08" x2="301.80" y2="285.17"/><line x1="210.18" y1="84.29" x2="199.90" y2="68.70"/><line x1="210.18" y1="84.29" x2="182.27" y2="69.42"/><line x1="210.18" y1="84.29" x2="173.69" y2="78.58"/><line x1="219.08" y1="321.92" x2="215.03" y2="318.91"/><line x1="201.62" y1="183.26" x2="202.38" y2="181.68"/><line x1="347.80" y1="231.52" x2="310.78" y2="239.87"/><line x1="315.53" y1="95.08" x2="323.10" y2="104.91"/><line x1="295.89" y1="131.28" x2="329.78" y2="116.46"/><line x1="174.71" y1="151.25" x2="221.27" y2="75.81"/><line x1="235.86" y1="327.86" x2="231.06" y2="326.82"/><line x1="317.04" y1="331.74" x2="308.58" y2="341.00"/><line x1="169.93" y1="178.89" x2="169.31" y2="175.91"/><line x1="171.62" y1="165.48" x2="181.81" y2="188.63"/><line x1="277.60" y1="70.88" x2="288.23" y2="74.66"/><line x1="171.62" y1="165.48" x2="198.02" y2="187.04"/><line x1="282.13" y1="317.83" x2="299.22" y2="348.58"/><line x1="199.23" y1="289.39" x2="198.69" y2="286.97"/><line x1="169.31" y1="175.91" x2="169.50" y2="177.42"/><line x1="211.45" y1="131.90" x2="213.40" y2="126.54"/><line x1="340.54" y1="281.77" x2="336.19" y2="296.02"/><line x1="210.18" y1="84.29" x2="192.36" y2="68.08"/><line x1="299.22" y1="348.58" x2="275.64" y2="322.80"/><line x1="268.56" y1="326.35" x2="260.92" y2="328.48"/><line x1="213.40" y1="126.54" x2="215.68" y2="121.69"/><line x1="343.66" y1="158.68" x2="308.96" y2="172.32"/><line x1="169.63" y1="309.91" x2="200.85" y2="295.67"/><line x1="172.74" y1="183.03" x2="171.62" y2="165.48"/><line x1="308.96" y1="172.32" x2="346.22" y2="175.29"/><line x1="171.62" y1="165.48" x2="173.90" y2="184.27"/><line x1="227.66" y1="107.72" x2="230.98" y2="105.58"/><line x1="171.62" y1="165.48" x2="189.48" y2="189.67"/><line x1="252.74" y1="362.05" x2="252.70" y2="329.19"/><line x1="199.23" y1="289.39" x2="168.94" y2="282.73"/><line x1="177.91" y1="117.51" x2="177.71" y2="123.92"/><line x1="230.98" y1="105.58" x2="234.54" y2="103.83"/><line x1="210.18" y1="84.29" x2="201.63" y2="69.18"/><line x1="165.74" y1="290.72" x2="166.21" y2="288.52"/><line x1="181.81" y1="188.63" x2="183.81" y2="189.13"/><line x1="347.80" y1="231.52" x2="311.62" y2="226.49"/><line x1="201.63" y1="69.18" x2="199.90" y2="68.70"/><line x1="209.80" y1="75.88" x2="210.18" y2="84.29"/><line x1="183.81" y1="189.13" x2="185.74" y2="189.48"/><line x1="235.86" y1="327.86" x2="221.79" y2="358.18"/><line x1="216.00" y1="79.55" x2="218.70" y2="77.55"/><line x1="178.08" y1="326.46" x2="173.54" y2="318.57"/><line x1="171.62" y1="165.48" x2="179.95" y2="188.01"/><line x1="277.60" y1="70.88" x2="266.60" y2="103.21"/><line x1="199.23" y1="289.39" x2="165.52" y2="293.01"/><line x1="172.95" y1="278.65" x2="174.56" y2="277.61"/><line x1="199.23" y1="289.39" x2="174.56" y2="277.61"/><line x1="303.73" y1="150.06" x2="306.67" y2="160.75"/><line x1="64.64" y1="32.09" x2="32.16" y2="64.58"/><line x1="218.70" y1="77.55" x2="221.27" y2="75.81"/><line x1="340.54" y1="281.77" x2="304.89" y2="275.08"/><line x1="188.09" y1="68.40" x2="186.01" y2="68.64"/><line x1="268.56" y1="326.35" x2="265.71" y2="361.21"/><line x1="285.71" y1="116.31" x2="291.06" y2="123.17"/><line x1="202.66" y1="350.19" x2="219.08" y2="321.92"/><line x1="182.23" y1="275.14" x2="195.86" y2="281.07"/><line x1="186.01" y1="68.64" x2="184.07" y2="68.99"/><line x1="234.43" y1="70.00" x2="237.92" y2="69.22"/><line x1="293.39" y1="303.64" x2="288.05" y2="311.45"/><line x1="347.77" y1="193.15" x2="348.28" y2="212.27"/><line x1="237.92" y1="69.22" x2="241.62" y2="68.62"/><line x1="169.93" y1="178.89" x2="170.62" y2="180.32"/><line x1="208.14" y1="311.25" x2="205.30" y2="306.60"/><line x1="199.23" y1="289.39" x2="167.89" y2="284.40"/><line x1="246.68" y1="329.04" x2="241.06" y2="328.59"/><line x1="335.44" y1="129.27" x2="340.06" y2="143.34"/><line x1="189.53" y1="276.27" x2="187.80" y2="275.63"/><line x1="169.37" y1="174.34" x2="169.68" y2="172.73"/><line x1="175.37" y1="73.41" x2="174.57" y2="74.58"/><line x1="259.19" y1="101.34" x2="277.60" y2="70.88"/><line x1="288.96" y1="354.47" x2="277.79" y2="358.68"/><line x1="346.35" y1="249.51" x2="343.93" y2="266.27"/><line x1="182.23" y1="275.14" x2="184.15" y2="275.07"/><line x1="32.16" y1="32.09" x2="64.64" y2="32.09"/><line x1="209.80" y1="75.88" x2="206.49" y2="71.05"/><line x1="307.41" y1="264.18" x2="340.54" y2="281.77"/><line x1="166.36" y1="300.47" x2="165.83" y2="297.89"/><line x1="190.31" y1="68.24" x2="188.09" y2="68.40"/><line x1="173.30" y1="158.32" x2="174.71" y2="151.25"/><line x1="194.73" y1="188.66" x2="196.39" y2="187.99"/><line x1="310.59" y1="184.77" x2="311.57" y2="198.08"/><line x1="199.23" y1="289.39" x2="165.55" y2="295.41"/><line x1="222.67" y1="323.84" x2="202.66" y2="350.19"/><line x1="199.23" y1="289.39" x2="172.95" y2="278.65"/><line x1="196.39" y1="187.99" x2="198.02" y2="187.04"/><line x1="307.19" y1="86.76" x2="285.71" y2="116.31"/><line x1="244.41" y1="361.81" x2="236.48" y2="361.08"/><line x1="206.49" y1="71.05" x2="205.03" y2="70.37"/><line x1="197.95" y1="284.78" x2="182.23" y2="275.14"/><line x1="32.00" y1="447.50" x2="64.49" y2="479.98"/></g></svg>