<svg xmlns="http://www.w3.org/2000/svg" width="512" height="512"><rect width="512" height="512" fill="#0a0f1a"/><text x="12" y="20" font-family="monospace" font-size="11" fill="#4a7fa5">FRONT (XZ)</text><g stroke="#00d4ff" stroke-width="0.6" opacity="0.85"><line x1="170.14" y1="322.50" x2="163.38" y2="325.68"/><line x1="187.13" y1="353.80" x2="177.65" y2="321.66"/><line x1="282.06" y1="322.96" x2="283.37" y2="322.56"/><line x1="171.70" y1="322.75" x2="160.79" y2="331.51"/><line x1="305.75" y1="353.96" x2="301.67" y2="354.12"/><line x1="237.67" y1="354.70" x2="236.18" y2="355.14"/><line x1="287.54" y1="109.19" x2="287.66" y2="108.07"/><line x1="177.65" y1="321.66" x2="191.75" y2="353.60"/><line x1="284.76" y1="322.40" x2="280.82" y2="323.62"/><line x1="294.75" y1="74.49" x2="297.25" y2="74.47"/><line x1="286.22" y1="322.50" x2="276.88" y2="328.44"/><line x1="344.41" y1="355.36" x2="340.15" y2="354.96"/><line x1="236.18" y1="355.14" x2="234.58" y2="355.36"/><line x1="228.53" y1="261.90" x2="235.93" y2="229.03"/><line x1="160.79" y1="331.51" x2="173.14" y2="322.85"/><line x1="329.71" y1="308.72" x2="275.80" y2="331.50"/><line x1="329.71" y1="308.72" x2="295.12" y2="313.47"/><line x1="297.25" y1="74.47" x2="299.72" y2="74.43"/><line x1="276.31" y1="347.78" x2="275.82" y2="346.17"/><line x1="320.82" y1="100.53" x2="320.01" y2="101.99"/><line x1="173.14" y1="322.85" x2="160.41" y2="333.20"/><line x1="179.92" y1="318.88" x2="180.60" y2="317.41"/><line x1="276.88" y1="328.44" x2="291.13" y2="322.52"/><line x1="350.18" y1="325.68" x2="350.88" y2="327.08"/><line x1="240.32" y1="324.52" x2="234.58" y2="322.40"/><line x1="226.33" y1="322.43" x2="224.85" y2="321.98"/><line x1="275.82" y1="346.17" x2="275.44" y2="344.47"/><line x1="293.26" y1="106.13" x2="295.21" y2="106.12"/><line x1="232.88" y1="322.50" x2="231.14" y2="322.74"/><line x1="180.60" y1="317.41" x2="181.25" y2="315.66"/><line x1="322.95" y1="353.96" x2="334.72" y2="320.97"/><line x1="224.85" y1="321.98" x2="215.63" y2="353.80"/><line x1="159.98" y1="340.85" x2="160.14" y2="342.70"/><line x1="295.21" y1="106.12" x2="297.47" y2="106.19"/><line x1="313.07" y1="73.63" x2="314.46" y2="73.79"/><line x1="277.19" y1="229.03" x2="287.56" y2="110.67"/><line x1="329.71" y1="308.72" x2="280.91" y2="354.06"/><line x1="275.16" y1="334.99" x2="275.43" y2="333.19"/><line x1="329.71" y1="308.72" x2="275.00" y2="340.86"/><line x1="160.14" y1="342.70" x2="160.42" y2="344.47"/><line x1="228.53" y1="261.90" x2="284.20" y2="261.90"/><line x1="329.71" y1="308.72" x2="294.88" y2="320.58"/><line x1="352.77" y1="333.20" x2="353.00" y2="335.00"/><line x1="244.03" y1="329.92" x2="244.60" y2="331.50"/><line x1="275.43" y1="333.19" x2="275.80" y2="331.50"/><line x1="322.82" y1="86.22" x2="323.00" y2="88.13"/><line x1="277.19" y1="229.03" x2="256.56" y2="134.75"/><line x1="206.30" y1="353.48" x2="201.46" y2="353.44"/><line x1="332.48" y1="317.41" x2="305.75" y2="353.96"/><line x1="219.60" y1="318.06" x2="218.81" y2="316.55"/><line x1="323.00" y1="88.13" x2="323.07" y2="90.15"/><line x1="282.06" y1="322.96" x2="284.76" y2="322.40"/><line x1="305.75" y1="353.96" x2="331.77" y2="315.66"/><line x1="231.14" y1="322.74" x2="229.48" y2="322.80"/><line x1="295.24" y1="319.69" x2="295.44" y2="318.53"/><line x1="329.71" y1="308.72" x2="290.05" y2="354.96"/><line x1="286.22" y1="322.50" x2="277.57" y2="327.08"/><line x1="165.26" y1="323.62" x2="166.34" y2="322.97"/><line x1="329.71" y1="308.72" x2="276.91" y2="349.32"/><line x1="295.44" y1="318.53" x2="295.49" y2="317.11"/><line x1="329.71" y1="308.72" x2="275.43" y2="333.19"/><line x1="329.71" y1="308.72" x2="295.38" y2="315.42"/><line x1="480.00" y1="32.02" x2="447.51" y2="32.02"/><line x1="227.88" y1="322.70" x2="236.18" y2="355.14"/><line x1="352.77" y1="344.48" x2="352.44" y2="346.17"/><line x1="320.82" y1="100.53" x2="311.61" y2="106.57"/><line x1="276.88" y1="328.44" x2="289.70" y2="322.65"/><line x1="206.30" y1="353.48" x2="235.93" y2="229.03"/><line x1="337.81" y1="322.37" x2="350.90" y2="350.78"/><line x1="293.81" y1="354.62" x2="290.05" y2="354.96"/><line x1="284.20" y1="261.90" x2="287.73" y2="112.53"/><line x1="337.81" y1="322.37" x2="335.87" y2="354.62"/><line x1="316.97" y1="105.26" x2="315.77" y2="105.92"/><line x1="231.14" y1="322.74" x2="244.03" y2="329.92"/><line x1="162.57" y1="327.08" x2="161.87" y2="328.45"/><line x1="284.20" y1="261.90" x2="277.19" y2="229.03"/><line x1="347.62" y1="322.97" x2="348.55" y2="323.62"/><line x1="309.95" y1="353.87" x2="332.48" y2="317.41"/><line x1="329.71" y1="308.72" x2="282.17" y2="354.71"/><line x1="220.69" y1="319.41" x2="219.60" y2="318.06"/><line x1="178.46" y1="320.97" x2="179.21" y2="320.07"/><line x1="329.71" y1="308.72" x2="275.16" y2="342.70"/><line x1="329.71" y1="308.72" x2="294.24" y2="321.28"/><line x1="227.88" y1="322.70" x2="242.52" y2="350.77"/><line x1="227.88" y1="322.70" x2="224.49" y2="354.42"/><line x1="196.53" y1="353.48" x2="201.46" y2="353.44"/><line x1="162.59" y1="350.78" x2="163.40" y2="352.08"/><line x1="331.58" y1="354.34" x2="327.27" y2="354.12"/><line x1="337.81" y1="322.37" x2="353.00" y2="342.71"/><line x1="284.20" y1="261.90" x2="289.06" y2="120.35"/><line x1="245.60" y1="338.93" x2="245.54" y2="340.85"/><line x1="337.81" y1="322.37" x2="347.66" y2="354.71"/><line x1="235.93" y1="229.03" x2="183.01" y2="308.72"/><line x1="163.40" y1="352.08" x2="164.31" y2="353.17"/><line x1="233.92" y1="86.26" x2="235.85" y2="83.59"/><line x1="342.45" y1="322.65" x2="352.01" y2="329.93"/><line x1="353.00" y1="342.71" x2="352.77" y2="344.48"/><line x1="245.54" y1="340.85" x2="245.35" y2="342.70"/><line x1="297.47" y1="106.19" x2="321.50" y2="81.15"/><line x1="159.98" y1="336.91" x2="159.92" y2="338.93"/><line x1="231.14" y1="322.74" x2="245.54" y2="336.91"/><line x1="297.47" y1="106.19" x2="322.07" y2="97.39"/><line x1="321.50" y1="99.00" x2="320.82" y2="100.53"/><line x1="235.85" y1="83.59" x2="238.01" y2="81.19"/><line x1="278.58" y1="325.68" x2="277.57" y2="327.08"/><line x1="329.71" y1="308.72" x2="293.81" y2="354.62"/><line x1="175.64" y1="322.56" x2="161.89" y2="349.31"/><line x1="165.26" y1="323.62" x2="167.52" y2="322.56"/><line x1="329.71" y1="308.72" x2="277.62" y2="350.78"/><line x1="170.21" y1="355.36" x2="174.21" y2="354.84"/><line x1="175.64" y1="322.56" x2="174.21" y2="354.84"/><line x1="277.57" y1="327.08" x2="276.88" y2="328.44"/><line x1="333.96" y1="320.07" x2="333.21" y2="318.88"/><line x1="480.00" y1="32.02" x2="480.00" y2="64.50"/><line x1="227.88" y1="322.70" x2="237.67" y2="354.70"/><line x1="211.02" y1="353.60" x2="206.30" y2="353.48"/><line x1="243.33" y1="349.31" x2="242.52" y2="350.77"/><line x1="256.56" y1="134.75" x2="319.08" y2="76.91"/><line x1="174.21" y1="354.84" x2="178.36" y2="354.42"/><line x1="248.66" y1="74.71" x2="250.84" y2="74.16"/><line x1="480.00" y1="479.91" x2="480.00" y2="447.42"/><line x1="349.44" y1="353.18" x2="348.59" y2="354.06"/><line x1="206.30" y1="353.48" x2="181.25" y2="315.66"/><line x1="242.52" y1="350.77" x2="241.47" y2="352.08"/><line x1="337.81" y1="322.37" x2="351.51" y2="349.32"/><line x1="284.20" y1="261.90" x2="288.03" y2="114.76"/><line x1="163.38" y1="325.68" x2="162.57" y2="327.08"/><line x1="337.81" y1="322.37" x2="340.15" y2="354.96"/><line x1="316.97" y1="105.26" x2="314.48" y2="106.36"/><line x1="320.01" y1="78.31" x2="288.39" y2="106.94"/><line x1="250.84" y1="74.16" x2="253.06" y2="73.83"/><line x1="345.51" y1="322.41" x2="347.62" y2="322.97"/><line x1="301.67" y1="354.12" x2="297.69" y2="354.34"/><line x1="280.91" y1="354.06" x2="279.74" y2="353.18"/><line x1="162.57" y1="327.08" x2="171.70" y2="322.75"/><line x1="297.47" y1="106.19" x2="323.00" y2="88.13"/><line x1="191.75" y1="353.60" x2="178.46" y2="320.97"/><line x1="347.62" y1="322.97" x2="346.60" y2="322.56"/><line x1="447.51" y1="479.91" x2="480.00" y2="447.42"/><line x1="329.71" y1="308.72" x2="283.49" y2="355.15"/><line x1="287.92" y1="107.34" x2="288.39" y2="106.94"/><line x1="175.64" y1="322.56" x2="165.30" y2="354.04"/><line x1="178.46" y1="320.97" x2="196.53" y2="353.48"/><line x1="227.88" y1="322.70" x2="243.33" y2="349.31"/><line x1="234.58" y1="322.40" x2="232.88" y2="322.50"/><line x1="256.56" y1="134.75" x2="313.07" y2="73.63"/><line x1="335.87" y1="354.62" x2="331.58" y2="354.34"/><line x1="227.88" y1="322.70" x2="228.74" y2="354.84"/><line x1="232.88" y1="355.36" x2="228.74" y2="354.84"/><line x1="302.15" y1="74.35" x2="304.56" y2="74.24"/><line x1="241.47" y1="325.68" x2="242.52" y2="327.08"/><line x1="215.63" y1="353.80" x2="211.02" y2="353.60"/><line x1="275.44" y1="344.47" x2="275.16" y2="342.70"/><line x1="337.81" y1="322.37" x2="348.59" y2="354.06"/><line x1="160.14" y1="335.00" x2="159.98" y2="336.91"/><line x1="235.93" y1="229.03" x2="182.45" y2="311.32"/><line x1="320.01" y1="78.31" x2="293.26" y2="106.13"/><line x1="342.45" y1="322.65" x2="351.49" y2="328.45"/><line x1="318.61" y1="353.87" x2="314.26" y2="353.84"/><line x1="223.43" y1="321.37" x2="222.08" y2="320.58"/><line x1="297.47" y1="106.19" x2="320.81" y2="79.68"/><line x1="297.47" y1="106.19" x2="322.50" y2="95.69"/><line x1="175.64" y1="322.56" x2="161.29" y2="347.77"/><line x1="320.81" y1="79.68" x2="321.50" y2="81.15"/><line x1="175.64" y1="322.56" x2="170.21" y2="355.36"/><line x1="256.56" y1="134.75" x2="246.53" y2="75.48"/><line x1="339.18" y1="322.59" x2="353.19" y2="338.93"/><line x1="256.56" y1="134.75" x2="302.15" y2="74.35"/><line x1="227.88" y1="322.70" x2="239.05" y2="354.04"/><line x1="256.56" y1="134.75" x2="318.07" y2="75.75"/><line x1="344.34" y1="322.50" x2="350.88" y2="327.08"/><line x1="331.77" y1="315.66" x2="331.07" y2="313.63"/><line x1="480.00" y1="479.91" x2="447.51" y2="479.91"/><line x1="337.81" y1="322.37" x2="352.02" y2="347.78"/><line x1="276.88" y1="328.44" x2="329.71" y2="308.72"/><line x1="235.93" y1="229.03" x2="256.56" y2="134.75"/><line x1="320.01" y1="78.31" x2="287.92" y2="107.34"/><line x1="301.67" y1="354.12" x2="330.38" y2="311.32"/><line x1="234.58" y1="355.36" x2="232.88" y2="355.36"/><line x1="323.00" y1="92.08" x2="322.82" y2="93.92"/><line x1="297.47" y1="106.19" x2="322.82" y2="86.22"/><line x1="340.73" y1="322.69" x2="339.18" y2="322.59"/><line x1="280.82" y1="323.62" x2="279.66" y2="324.52"/><line x1="299.72" y1="74.43" x2="302.15" y2="74.35"/><line x1="297.47" y1="106.19" x2="311.61" y2="106.57"/><line x1="245.03" y1="344.47" x2="244.60" y2="346.16"/><line x1="183.01" y1="308.72" x2="228.55" y2="99.75"/><line x1="311.61" y1="106.57" x2="319.09" y2="103.30"/><line x1="160.41" y1="333.20" x2="160.14" y2="335.00"/><line x1="175.64" y1="322.56" x2="164.31" y2="353.17"/><line x1="256.56" y1="134.75" x2="235.85" y2="83.59"/><line x1="175.64" y1="322.56" x2="176.71" y2="322.19"/><line x1="256.56" y1="134.75" x2="255.34" y2="73.72"/><line x1="206.30" y1="353.48" x2="218.31" y2="314.86"/><line x1="234.58" y1="322.40" x2="241.47" y2="325.68"/><line x1="256.56" y1="134.75" x2="311.58" y2="73.72"/><line x1="181.25" y1="315.66" x2="235.93" y2="229.03"/><line x1="168.78" y1="322.41" x2="170.14" y2="322.50"/><line x1="215.63" y1="353.80" x2="223.43" y2="321.37"/><line x1="182.67" y1="354.07" x2="187.13" y2="353.80"/><line x1="235.93" y1="229.03" x2="181.86" y2="313.63"/><line x1="229.48" y1="322.80" x2="245.03" y2="344.47"/><line x1="320.01" y1="78.31" x2="291.60" y2="106.21"/><line x1="276.88" y1="328.44" x2="276.29" y2="329.92"/><line x1="345.51" y1="322.41" x2="344.34" y2="322.50"/><line x1="318.61" y1="353.87" x2="333.96" y2="320.07"/><line x1="256.56" y1="134.75" x2="287.54" y2="109.19"/><line x1="223.43" y1="321.37" x2="211.02" y2="353.60"/><line x1="176.71" y1="322.19" x2="177.65" y2="321.66"/><line x1="160.42" y1="344.47" x2="175.64" y2="322.56"/><line x1="315.75" y1="74.19" x2="316.96" y2="74.85"/><line x1="236.18" y1="322.56" x2="240.32" y2="324.52"/><line x1="244.60" y1="331.50" x2="245.03" y2="333.19"/><line x1="275.80" y1="331.50" x2="276.29" y2="329.92"/><line x1="175.64" y1="322.56" x2="160.79" y2="346.16"/><line x1="256.56" y1="134.75" x2="228.55" y2="99.75"/><line x1="256.56" y1="134.75" x2="244.44" y2="76.46"/><line x1="339.18" y1="322.59" x2="353.14" y2="336.91"/><line x1="256.56" y1="134.75" x2="299.72" y2="74.43"/><line x1="245.03" y1="333.19" x2="245.35" y2="334.99"/><line x1="206.30" y1="353.48" x2="228.53" y2="261.90"/><line x1="218.81" y1="316.55" x2="218.31" y2="314.86"/><line x1="256.56" y1="134.75" x2="316.96" y2="74.85"/><line x1="323.07" y1="90.15" x2="323.00" y2="92.08"/><line x1="228.55" y1="99.75" x2="229.54" y2="95.96"/><line x1="344.34" y1="322.50" x2="350.18" y2="325.68"/><line x1="220.12" y1="354.07" x2="215.63" y2="353.80"/><line x1="331.77" y1="315.66" x2="301.67" y2="354.12"/><line x1="174.45" y1="322.78" x2="160.14" y2="342.70"/><line x1="218.31" y1="314.86" x2="218.11" y2="313.00"/><line x1="350.88" y1="327.08" x2="342.45" y2="322.65"/><line x1="164.31" y1="353.17" x2="165.30" y2="354.04"/><line x1="327.27" y1="354.12" x2="322.95" y2="353.96"/><line x1="245.35" y1="342.70" x2="245.03" y2="344.47"/><line x1="167.52" y1="322.56" x2="168.78" y2="322.41"/><line x1="295.49" y1="317.11" x2="295.38" y2="315.42"/><line x1="165.30" y1="354.04" x2="166.38" y2="354.70"/><line x1="334.72" y1="320.97" x2="318.61" y2="353.87"/><line x1="340.73" y1="322.69" x2="353.00" y2="335.00"/><line x1="352.44" y1="346.17" x2="352.02" y2="347.78"/><line x1="245.03" y1="344.47" x2="227.88" y2="322.70"/><line x1="314.46" y1="73.79" x2="315.75" y2="74.19"/><line x1="183.01" y1="308.72" x2="256.56" y2="134.75"/><line x1="311.61" y1="106.57" x2="320.01" y2="101.99"/><line x1="240.41" y1="79.09" x2="242.40" y2="77.67"/><line x1="256.56" y1="134.75" x2="233.92" y2="86.26"/><line x1="256.56" y1="134.75" x2="253.06" y2="73.83"/><line x1="206.30" y1="353.48" x2="218.81" y2="316.55"/><line x1="290.05" y1="354.96" x2="286.39" y2="355.36"/><line x1="353.00" y1="335.00" x2="339.18" y2="322.59"/><line x1="288.05" y1="322.64" x2="289.70" y2="322.65"/><line x1="171.70" y1="322.75" x2="161.28" y2="329.93"/><line x1="288.03" y1="114.76" x2="287.73" y2="112.53"/><line x1="182.67" y1="354.07" x2="176.71" y2="322.19"/><line x1="229.48" y1="322.80" x2="245.35" y2="342.70"/><line x1="347.66" y1="354.71" x2="346.65" y2="355.15"/><line x1="284.76" y1="322.40" x2="283.37" y2="322.56"/><line x1="256.56" y1="134.75" x2="287.56" y2="110.67"/><line x1="348.55" y1="323.62" x2="349.40" y2="324.53"/><line x1="236.18" y1="322.56" x2="237.67" y2="322.96"/><line x1="278.63" y1="352.09" x2="277.62" y2="350.78"/><line x1="179.21" y1="320.07" x2="179.92" y2="318.88"/><line x1="256.56" y1="134.75" x2="242.40" y2="77.67"/><line x1="238.01" y1="81.19" x2="240.41" y2="79.09"/><line x1="336.60" y1="322.03" x2="335.57" y2="321.57"/><line x1="289.06" y1="120.35" x2="288.48" y2="117.37"/><line x1="232.88" y1="322.50" x2="243.33" y2="328.44"/><line x1="174.45" y1="322.78" x2="159.98" y2="340.85"/><line x1="352.01" y1="329.93" x2="352.44" y2="331.51"/><line x1="167.52" y1="322.56" x2="166.34" y2="322.97"/><line x1="340.73" y1="322.69" x2="352.77" y2="333.20"/><line x1="314.26" y1="353.84" x2="309.95" y2="353.87"/><line x1="480.00" y1="64.50" x2="447.51" y2="32.02"/><line x1="222.08" y1="320.58" x2="220.69" y2="319.41"/><line x1="333.21" y1="318.88" x2="332.48" y2="317.41"/><line x1="173.14" y1="322.85" x2="174.45" y2="322.78"/><line x1="241.47" y1="352.08" x2="240.32" y2="353.17"/><line x1="245.54" y1="336.91" x2="245.60" y2="338.93"/><line x1="171.70" y1="322.75" x2="161.87" y2="328.45"/><line x1="255.34" y1="73.72" x2="278.29" y2="74.11"/><line x1="353.14" y1="340.86" x2="353.00" y2="342.71"/><line x1="286.22" y1="322.50" x2="278.58" y2="325.68"/><line x1="348.55" y1="323.62" x2="344.34" y2="322.50"/><line x1="330.38" y1="311.32" x2="329.71" y2="308.72"/><line x1="329.71" y1="308.72" x2="275.16" y2="334.99"/><line x1="295.12" y1="313.47" x2="294.69" y2="311.25"/><line x1="228.74" y1="354.84" x2="224.49" y2="354.42"/><line x1="329.71" y1="308.72" x2="295.49" y2="317.11"/><line x1="289.16" y1="106.62" x2="290.23" y2="106.38"/><line x1="336.60" y1="322.03" x2="327.27" y2="354.12"/><line x1="289.06" y1="120.35" x2="294.12" y2="308.77"/><line x1="276.88" y1="328.44" x2="288.05" y2="322.64"/><line x1="306.93" y1="74.10" x2="309.27" y2="73.93"/><line x1="288.48" y1="117.37" x2="288.03" y2="114.76"/><line x1="178.36" y1="354.42" x2="182.67" y2="354.07"/><line x1="232.88" y1="322.50" x2="242.52" y2="327.08"/><line x1="170.14" y1="322.50" x2="171.70" y2="322.75"/><line x1="275.00" y1="340.86" x2="274.94" y2="338.93"/><line x1="318.08" y1="104.39" x2="316.97" y2="105.26"/><line x1="348.59" y1="354.06" x2="347.66" y2="354.71"/><line x1="352.01" y1="329.93" x2="340.73" y2="322.69"/><line x1="314.48" y1="106.36" x2="315.77" y2="105.92"/><line x1="253.06" y1="73.83" x2="255.34" y2="73.72"/><line x1="321.50" y1="81.15" x2="322.06" y2="82.73"/><line x1="182.45" y1="311.32" x2="183.01" y2="308.72"/><line x1="279.74" y1="353.18" x2="278.63" y2="352.09"/><line x1="329.71" y1="308.72" x2="275.44" y2="344.47"/><line x1="314.26" y1="353.84" x2="333.21" y2="318.88"/><line x1="329.71" y1="308.72" x2="293.40" y2="321.83"/><line x1="318.07" y1="75.75" x2="319.08" y2="76.91"/><line x1="288.39" y1="106.94" x2="289.16" y2="106.62"/><line x1="196.53" y1="353.48" x2="179.21" y2="320.07"/><line x1="173.14" y1="322.85" x2="159.98" y2="336.91"/><line x1="293.40" y1="321.83" x2="294.24" y2="321.28"/><line x1="161.29" y1="347.77" x2="161.89" y2="349.31"/><line x1="331.58" y1="354.34" x2="336.60" y2="322.03"/><line x1="353.19" y1="338.93" x2="353.14" y2="340.86"/><line x1="304.56" y1="74.24" x2="306.93" y2="74.10"/><line x1="322.82" y1="93.92" x2="322.50" y2="95.69"/><line x1="230.77" y1="92.44" x2="232.22" y2="89.21"/><line x1="275.16" y1="342.70" x2="275.00" y2="340.86"/><line x1="159.98" y1="336.91" x2="174.45" y2="322.78"/><line x1="231.14" y1="322.74" x2="245.35" y2="334.99"/><line x1="32.16" y1="32.09" x2="32.16" y2="64.58"/><line x1="331.07" y1="313.63" x2="330.38" y2="311.32"/><line x1="351.49" y1="328.45" x2="352.01" y2="329.93"/><line x1="286.22" y1="322.50" x2="279.66" y2="324.52"/><line x1="329.71" y1="308.72" x2="278.63" y2="352.09"/><line x1="181.86" y1="313.63" x2="182.45" y2="311.32"/><line x1="329.71" y1="308.72" x2="275.00" y2="336.91"/><line x1="295.12" y1="313.47" x2="289.06" y2="120.35"/><line x1="329.71" y1="308.72" x2="295.44" y2="318.53"/><line x1="333.96" y1="320.07" x2="314.26" y2="353.84"/><line x1="211.02" y1="353.60" x2="222.08" y2="320.58"/><line x1="316.96" y1="74.85" x2="318.07" y2="75.75"/><line x1="164.27" y1="324.53" x2="163.38" y2="325.68"/><line x1="206.30" y1="353.48" x2="180.60" y2="317.41"/><line x1="284.20" y1="261.90" x2="288.48" y2="117.37"/><line x1="337.81" y1="322.37" x2="344.41" y2="355.36"/><line x1="187.13" y1="353.80" x2="191.75" y2="353.60"/><line x1="282.06" y1="322.96" x2="280.82" y2="323.62"/><line x1="329.71" y1="308.72" x2="284.91" y2="355.36"/><line x1="165.26" y1="323.62" x2="164.27" y2="324.53"/><line x1="329.71" y1="308.72" x2="275.82" y2="346.17"/><line x1="245.35" y1="334.99" x2="245.54" y2="336.91"/><line x1="160.79" y1="331.51" x2="160.41" y2="333.20"/><line x1="329.71" y1="308.72" x2="276.29" y2="329.92"/><line x1="227.88" y1="322.70" x2="244.03" y2="347.77"/><line x1="329.71" y1="308.72" x2="289.06" y2="120.35"/><line x1="227.88" y1="322.70" x2="232.88" y2="355.36"/><line x1="241.47" y1="325.68" x2="232.88" y2="322.50"/><line x1="276.88" y1="328.44" x2="292.36" y2="322.24"/><line x1="337.81" y1="322.37" x2="349.44" y2="353.18"/><line x1="335.57" y1="321.57" x2="334.72" y2="320.97"/><line x1="337.81" y1="322.37" x2="336.60" y2="322.03"/><line x1="32.00" y1="479.98" x2="64.49" y2="479.98"/><line x1="231.14" y1="322.74" x2="245.03" y2="333.19"/><line x1="297.47" y1="106.19" x2="322.82" y2="93.92"/><line x1="329.71" y1="308.72" x2="279.74" y2="353.18"/><line x1="175.64" y1="322.56" x2="168.85" y2="355.36"/><line x1="329.71" y1="308.72" x2="274.94" y2="338.93"/><line x1="227.88" y1="322.70" x2="240.32" y2="353.17"/><line x1="227.88" y1="322.70" x2="226.33" y2="322.43"/><line x1="160.79" y1="346.16" x2="161.29" y2="347.77"/><line x1="284.91" y1="355.36" x2="283.49" y2="355.15"/><line x1="353.14" y1="336.91" x2="353.19" y2="338.93"/><line x1="206.30" y1="353.48" x2="179.92" y2="318.88"/><line x1="337.81" y1="322.37" x2="352.44" y2="346.17"/><line x1="284.20" y1="261.90" x2="294.12" y2="308.77"/><line x1="332.48" y1="317.41" x2="331.77" y2="315.66"/><line x1="337.81" y1="322.37" x2="345.57" y2="355.36"/><line x1="229.54" y1="95.96" x2="230.77" y2="92.44"/><line x1="235.93" y1="229.03" x2="277.19" y2="229.03"/><line x1="287.56" y1="110.67" x2="287.54" y2="109.19"/><line x1="320.01" y1="78.31" x2="320.81" y2="79.68"/><line x1="301.67" y1="354.12" x2="331.07" y2="313.63"/><line x1="218.11" y1="313.00" x2="218.21" y2="310.97"/><line x1="345.57" y1="355.36" x2="344.41" y2="355.36"/><line x1="297.47" y1="106.19" x2="322.50" y2="84.42"/><line x1="280.82" y1="323.62" x2="286.22" y2="322.50"/><line x1="297.47" y1="106.19" x2="320.82" y2="100.53"/><line x1="295.38" y1="315.42" x2="295.12" y2="313.47"/><line x1="292.36" y1="322.24" x2="293.40" y2="321.83"/><line x1="166.38" y1="354.70" x2="167.57" y2="355.14"/><line x1="329.71" y1="308.72" x2="286.39" y2="355.36"/><line x1="175.64" y1="322.56" x2="163.40" y2="352.08"/><line x1="165.26" y1="323.62" x2="168.78" y2="322.41"/><line x1="276.91" y1="349.32" x2="276.31" y2="347.78"/><line x1="329.71" y1="308.72" x2="276.31" y2="347.78"/><line x1="175.64" y1="322.56" x2="182.67" y2="354.07"/><line x1="352.02" y1="347.78" x2="351.51" y2="349.32"/><line x1="227.88" y1="322.70" x2="244.60" y2="346.16"/><line x1="256.56" y1="134.75" x2="309.27" y2="73.93"/><line x1="227.88" y1="322.70" x2="234.58" y2="355.36"/><line x1="349.40" y1="324.53" x2="350.18" y2="325.68"/><line x1="320.01" y1="101.99" x2="319.09" y2="103.30"/><line x1="242.40" y1="77.67" x2="244.44" y2="76.46"/><line x1="286.39" y1="355.36" x2="284.91" y2="355.36"/><line x1="168.78" y1="322.41" x2="164.27" y2="324.53"/><line x1="319.09" y1="103.30" x2="318.08" y2="104.39"/><line x1="337.81" y1="322.37" x2="350.21" y2="352.09"/><line x1="284.20" y1="261.90" x2="287.56" y2="110.67"/><line x1="335.57" y1="321.57" x2="322.95" y2="353.96"/><line x1="337.81" y1="322.37" x2="331.58" y2="354.34"/><line x1="289.70" y1="322.65" x2="291.13" y2="322.52"/><line x1="32.00" y1="479.98" x2="32.00" y2="447.50"/><line x1="320.01" y1="78.31" x2="290.23" y2="106.38"/><line x1="345.51" y1="322.41" x2="348.55" y2="323.62"/><line x1="311.58" y1="73.72" x2="313.07" y2="73.63"/><line x1="287.73" y1="112.53" x2="287.56" y2="110.67"/><line x1="176.71" y1="322.19" x2="187.13" y2="353.80"/><line x1="231.14" y1="322.74" x2="244.60" y2="331.50"/><line x1="297.47" y1="106.19" x2="323.00" y2="92.08"/><line x1="292.36" y1="322.24" x2="329.71" y2="308.72"/><line x1="346.65" y1="355.15" x2="345.57" y2="355.36"/><line x1="239.05" y1="354.04" x2="237.67" y2="354.70"/><line x1="352.44" y1="331.51" x2="352.77" y2="333.20"/><line x1="309.95" y1="353.87" x2="305.75" y2="353.96"/><line x1="278.29" y1="74.11" x2="294.75" y2="74.49"/><line x1="175.64" y1="322.56" x2="167.57" y2="355.14"/><line x1="239.05" y1="323.62" x2="240.32" y2="324.52"/><line x1="277.62" y1="350.78" x2="276.91" y2="349.32"/><line x1="256.56" y1="134.75" x2="297.25" y2="74.47"/><line x1="206.30" y1="353.48" x2="218.61" y2="308.77"/><line x1="227.88" y1="322.70" x2="241.47" y2="352.08"/><line x1="161.28" y1="329.93" x2="160.79" y2="331.51"/><line x1="256.56" y1="134.75" x2="315.75" y2="74.19"/><line x1="227.88" y1="322.70" x2="220.12" y2="354.07"/><line x1="344.34" y1="322.50" x2="349.40" y2="324.53"/><line x1="220.12" y1="354.07" x2="224.85" y2="321.98"/><line x1="290.23" y1="106.38" x2="291.60" y2="106.21"/><line x1="337.81" y1="322.37" x2="352.77" y2="344.48"/><line x1="337.81" y1="322.37" x2="346.65" y2="355.15"/><line x1="235.93" y1="229.03" x2="284.20" y2="261.90"/><line x1="327.27" y1="354.12" x2="335.57" y2="321.57"/><line x1="320.01" y1="78.31" x2="297.47" y2="106.19"/><line x1="342.45" y1="322.65" x2="340.73" y2="322.69"/><line x1="291.60" y1="106.21" x2="293.26" y2="106.13"/><line x1="297.47" y1="106.19" x2="322.06" y2="82.73"/><line x1="297.47" y1="106.19" x2="321.50" y2="99.00"/><line x1="243.33" y1="328.44" x2="244.03" y2="329.92"/><line x1="175.64" y1="322.56" x2="162.59" y2="350.78"/><line x1="256.56" y1="134.75" x2="232.22" y2="89.21"/><line x1="175.64" y1="322.56" x2="178.36" y2="354.42"/><line x1="256.56" y1="134.75" x2="250.84" y2="74.16"/><line x1="206.30" y1="353.48" x2="219.60" y2="318.06"/><line x1="339.18" y1="322.59" x2="337.81" y2="322.37"/><line x1="275.00" y1="336.91" x2="275.16" y2="334.99"/><line x1="256.56" y1="134.75" x2="306.93" y2="74.10"/><line x1="256.56" y1="134.75" x2="320.01" y2="78.31"/><line x1="240.32" y1="353.17" x2="239.05" y2="354.04"/><line x1="322.50" y1="84.42" x2="322.82" y2="86.22"/><line x1="229.48" y1="322.80" x2="245.54" y2="340.85"/><line x1="320.01" y1="78.31" x2="289.16" y2="106.62"/><line x1="345.51" y1="322.41" x2="346.60" y2="322.56"/><line x1="161.87" y1="328.45" x2="161.28" y2="329.93"/><line x1="297.47" y1="106.19" x2="323.07" y2="90.15"/><line x1="191.75" y1="353.60" x2="196.53" y2="353.48"/><line x1="236.18" y1="322.56" x2="239.05" y2="323.62"/><line x1="179.21" y1="320.07" x2="201.46" y2="353.44"/><line x1="311.61" y1="106.57" x2="313.09" y2="106.57"/><line x1="175.64" y1="322.56" x2="166.38" y2="354.70"/><line x1="297.69" y1="354.34" x2="293.81" y2="354.62"/><line x1="256.56" y1="134.75" x2="240.41" y2="79.09"/><line x1="239.05" y1="323.62" x2="237.67" y2="322.96"/><line x1="224.49" y1="354.42" x2="220.12" y2="354.07"/><line x1="256.56" y1="134.75" x2="294.75" y2="74.49"/><line x1="206.30" y1="353.48" x2="218.21" y2="310.97"/><line x1="256.56" y1="134.75" x2="314.46" y2="73.79"/><line x1="201.46" y1="353.44" x2="179.92" y2="318.88"/><line x1="220.12" y1="354.07" x2="226.33" y2="322.43"/><line x1="174.45" y1="322.78" x2="159.92" y2="338.93"/><line x1="309.27" y1="73.93" x2="311.58" y2="73.72"/><line x1="242.52" y1="327.08" x2="243.33" y2="328.44"/><line x1="274.94" y1="338.93" x2="275.00" y2="336.91"/><line x1="320.01" y1="78.31" x2="295.21" y2="106.12"/><line x1="313.09" y1="106.57" x2="314.48" y2="106.36"/><line x1="159.92" y1="338.93" x2="159.98" y2="340.85"/><line x1="256.56" y1="134.75" x2="287.92" y2="107.34"/><line x1="340.73" y1="322.69" x2="352.44" y2="331.51"/><line x1="243.33" y1="328.44" x2="231.14" y2="322.74"/><line x1="222.08" y1="320.58" x2="206.30" y2="353.48"/><line x1="322.06" y1="82.73" x2="322.50" y2="84.42"/><line x1="256.56" y1="134.75" x2="230.77" y2="92.44"/><line x1="333.21" y1="318.88" x2="309.95" y2="353.87"/><line x1="256.56" y1="134.75" x2="248.66" y2="74.71"/><line x1="206.30" y1="353.48" x2="220.69" y2="319.41"/><line x1="339.18" y1="322.59" x2="353.14" y2="340.86"/><line x1="256.56" y1="134.75" x2="304.56" y2="74.24"/><line x1="319.08" y1="76.91" x2="320.01" y2="78.31"/><line x1="245.54" y1="336.91" x2="229.48" y2="322.80"/><line x1="344.34" y1="322.50" x2="342.45" y2="322.65"/><line x1="294.24" y1="321.28" x2="294.88" y2="320.58"/><line x1="161.89" y1="349.31" x2="162.59" y2="350.78"/><line x1="174.45" y1="322.78" x2="175.64" y2="322.56"/><line x1="353.14" y1="340.86" x2="337.81" y2="322.37"/><line x1="229.48" y1="322.80" x2="245.60" y2="338.93"/><line x1="294.88" y1="320.58" x2="295.24" y2="319.69"/><line x1="322.50" y1="95.69" x2="322.07" y2="97.39"/><line x1="232.22" y1="89.21" x2="233.92" y2="86.26"/><line x1="330.38" y1="311.32" x2="297.69" y2="354.34"/><line x1="218.61" y1="308.77" x2="228.53" y2="261.90"/><line x1="322.07" y1="97.39" x2="321.50" y2="99.00"/><line x1="279.66" y1="324.52" x2="278.58" y2="325.68"/><line x1="311.61" y1="106.57" x2="318.08" y2="104.39"/><line x1="64.64" y1="32.09" x2="32.16" y2="64.58"/><line x1="297.69" y1="354.34" x2="329.71" y2="308.72"/><line x1="256.56" y1="134.75" x2="238.01" y2="81.19"/><line x1="289.06" y1="120.35" x2="294.69" y2="311.25"/><line x1="256.56" y1="134.75" x2="278.29" y2="74.11"/><line x1="206.30" y1="353.48" x2="218.11" y2="313.00"/><line x1="168.85" y1="355.36" x2="170.21" y2="355.36"/><line x1="350.90" y1="350.78" x2="350.21" y2="352.09"/><line x1="181.25" y1="315.66" x2="181.86" y2="313.63"/><line x1="170.14" y1="322.50" x2="162.57" y2="327.08"/><line x1="294.69" y1="311.25" x2="294.12" y2="308.77"/><line x1="318.08" y1="104.39" x2="313.09" y2="106.57"/><line x1="246.53" y1="75.48" x2="248.66" y2="74.71"/><line x1="171.70" y1="322.75" x2="173.14" y2="322.85"/><line x1="350.21" y1="352.09" x2="349.44" y2="353.18"/><line x1="283.49" y1="355.15" x2="282.17" y2="354.71"/><line x1="229.48" y1="322.80" x2="227.88" y2="322.70"/><line x1="177.65" y1="321.66" x2="178.46" y2="320.97"/><line x1="313.09" y1="106.57" x2="316.97" y2="105.26"/><line x1="284.76" y1="322.40" x2="286.22" y2="322.50"/><line x1="256.56" y1="134.75" x2="287.66" y2="108.07"/><line x1="160.42" y1="344.47" x2="160.79" y2="346.16"/><line x1="286.22" y1="322.50" x2="288.05" y2="322.64"/><line x1="282.17" y1="354.71" x2="280.91" y2="354.06"/><line x1="236.18" y1="322.56" x2="234.58" y2="322.40"/><line x1="256.56" y1="134.75" x2="229.54" y2="95.96"/><line x1="173.14" y1="322.85" x2="160.14" y2="335.00"/><line x1="287.66" y1="108.07" x2="287.92" y2="107.34"/><line x1="240.32" y1="324.52" x2="241.47" y2="325.68"/><line x1="340.15" y1="354.96" x2="335.87" y2="354.62"/><line x1="218.21" y1="310.97" x2="218.61" y2="308.77"/><line x1="174.45" y1="322.78" x2="160.42" y2="344.47"/><line x1="350.88" y1="327.08" x2="351.49" y2="328.45"/><line x1="322.95" y1="353.96" x2="318.61" y2="353.87"/><line x1="32.16" y1="32.09" x2="64.64" y2="32.09"/><line x1="224.85" y1="321.98" x2="223.43" y2="321.37"/><line x1="167.57" y1="355.14" x2="168.85" y2="355.36"/><line x1="334.72" y1="320.97" x2="333.96" y2="320.07"/><line x1="351.51" y1="349.32" x2="350.90" y2="350.78"/><line x1="244.60" y1="346.16" x2="244.03" y2="347.77"/><line x1="329.71" y1="308.72" x2="295.24" y2="319.69"/><line x1="244.44" y1="76.46" x2="246.53" y2="75.48"/><line x1="244.03" y1="347.77" x2="243.33" y2="349.31"/><line x1="164.27" y1="324.53" x2="170.14" y2="322.50"/><line x1="353.00" y1="335.00" x2="353.14" y2="336.91"/><line x1="291.13" y1="322.52" x2="292.36" y2="322.24"/><line x1="32.00" y1="447.50" x2="64.49" y2="479.98"/></g></svg>