<svg xmlns="http://www.w3.org/2000/svg" width="512" height="512"><rect width="512" height="512" fill="#0a0f1a"/><text x="12" y="20" font-family="monospace" font-size="11" fill="#4a7fa5">FRONT (XZ)</text><g stroke="#00d4ff" stroke-width="0.6" opacity="0.85"><line x1="223.26" y1="110.85" x2="195.00" y2="78.49"/><line x1="280.38" y1="326.86" x2="278.63" y2="326.29"/><line x1="223.42" y1="77.52" x2="219.76" y2="77.84"/><line x1="224.29" y1="117.97" x2="173.48" y2="76.74"/><line x1="353.78" y1="92.77" x2="353.72" y2="94.80"/><line x1="224.29" y1="117.97" x2="161.09" y2="83.80"/><line x1="275.53" y1="246.79" x2="290.54" y2="116.72"/><line x1="234.50" y1="109.09" x2="233.24" y2="109.49"/><line x1="275.53" y1="246.79" x2="257.93" y2="198.36"/><line x1="308.41" y1="356.11" x2="307.01" y2="357.08"/><line x1="353.72" y1="94.80" x2="333.94" y2="78.02"/><line x1="169.95" y1="109.68" x2="168.33" y2="109.35"/><line x1="329.17" y1="115.99" x2="328.21" y2="117.96"/><line x1="224.29" y1="117.97" x2="180.67" y2="110.21"/><line x1="224.29" y1="117.97" x2="159.41" y2="95.27"/><line x1="295.25" y1="326.48" x2="314.20" y2="343.57"/><line x1="233.24" y1="109.49" x2="231.88" y2="109.65"/><line x1="165.37" y1="78.25" x2="164.03" y2="79.45"/><line x1="236.58" y1="326.88" x2="235.37" y2="327.08"/><line x1="222.07" y1="326.31" x2="208.62" y2="357.08"/><line x1="328.21" y1="117.96" x2="284.41" y2="76.54"/><line x1="281.08" y1="109.42" x2="279.56" y2="108.87"/><line x1="222.07" y1="326.31" x2="200.11" y2="343.57"/><line x1="328.21" y1="117.96" x2="273.16" y2="85.68"/><line x1="305.51" y1="325.69" x2="308.43" y2="327.02"/><line x1="275.73" y1="323.43" x2="242.20" y2="356.57"/><line x1="164.03" y1="79.45" x2="162.78" y2="80.94"/><line x1="326.80" y1="78.49" x2="323.00" y2="78.61"/><line x1="351.82" y1="103.51" x2="351.10" y2="104.97"/><line x1="212.08" y1="325.39" x2="210.29" y2="325.69"/><line x1="236.68" y1="78.41" x2="231.88" y2="76.54"/><line x1="225.35" y1="109.61" x2="224.56" y2="109.78"/><line x1="308.43" y1="327.02" x2="307.03" y2="326.23"/><line x1="337.27" y1="77.67" x2="353.78" y2="92.77"/><line x1="288.86" y1="357.24" x2="290.79" y2="327.10"/><line x1="230.41" y1="76.74" x2="226.97" y2="77.15"/><line x1="351.10" y1="104.97" x2="350.30" y2="106.38"/><line x1="303.87" y1="325.39" x2="302.11" y2="325.35"/><line x1="210.29" y1="325.69" x2="208.60" y2="326.23"/><line x1="255.01" y1="195.04" x2="255.62" y2="196.24"/><line x1="275.53" y1="246.79" x2="260.86" y2="195.04"/><line x1="224.56" y1="109.78" x2="215.99" y2="78.11"/><line x1="159.62" y1="89.04" x2="159.41" y2="91.03"/><line x1="290.79" y1="327.10" x2="288.75" y2="327.30"/><line x1="224.85" y1="326.70" x2="222.07" y2="326.31"/><line x1="275.53" y1="80.94" x2="274.60" y2="82.41"/><line x1="239.93" y1="246.42" x2="239.93" y2="322.11"/><line x1="224.29" y1="117.97" x2="181.95" y2="111.11"/><line x1="224.29" y1="117.97" x2="185.69" y2="116.82"/><line x1="302.11" y1="325.35" x2="300.22" y2="325.55"/><line x1="295.25" y1="326.48" x2="312.51" y2="350.54"/><line x1="159.41" y1="91.03" x2="159.34" y2="93.15"/><line x1="222.07" y1="326.31" x2="220.64" y2="357.82"/><line x1="328.21" y1="117.96" x2="278.12" y2="78.41"/><line x1="184.26" y1="114.29" x2="184.95" y2="115.47"/><line x1="239.74" y1="83.80" x2="240.23" y2="85.42"/><line x1="300.22" y1="325.55" x2="312.52" y2="332.38"/><line x1="276.24" y1="356.59" x2="280.38" y2="326.86"/><line x1="343.47" y1="109.55" x2="341.51" y2="109.17"/><line x1="291.12" y1="114.53" x2="275.53" y2="246.79"/><line x1="223.26" y1="110.85" x2="199.49" y2="78.61"/><line x1="343.47" y1="76.74" x2="351.10" y2="80.94"/><line x1="280.38" y1="326.86" x2="269.44" y2="356.42"/><line x1="208.62" y1="357.08" x2="207.05" y2="356.11"/><line x1="241.05" y1="95.17" x2="240.89" y2="97.07"/><line x1="275.53" y1="246.79" x2="290.89" y2="115.57"/><line x1="314.20" y1="339.54" x2="295.25" y2="326.48"/><line x1="254.86" y1="356.41" x2="248.38" y2="356.46"/><line x1="334.97" y1="108.89" x2="334.31" y2="109.16"/><line x1="207.05" y1="356.11" x2="205.58" y2="354.87"/><line x1="224.29" y1="117.97" x2="161.86" y2="103.98"/><line x1="224.29" y1="117.97" x2="183.01" y2="112.38"/><line x1="282.72" y1="356.86" x2="282.51" y2="327.25"/><line x1="223.21" y1="113.56" x2="223.45" y2="114.84"/><line x1="295.25" y1="326.48" x2="314.26" y2="341.55"/><line x1="480.00" y1="32.02" x2="447.51" y2="32.02"/><line x1="281.08" y1="109.42" x2="278.12" y2="108.08"/><line x1="353.29" y1="87.04" x2="353.56" y2="88.84"/><line x1="275.73" y1="323.43" x2="248.38" y2="356.46"/><line x1="186.08" y1="117.97" x2="239.93" y2="246.42"/><line x1="297.67" y1="326.05" x2="313.98" y2="337.60"/><line x1="260.25" y1="196.24" x2="259.64" y2="197.17"/><line x1="225.56" y1="357.39" x2="239.09" y2="325.27"/><line x1="337.27" y1="77.67" x2="353.72" y2="90.75"/><line x1="286.22" y1="76.74" x2="331.01" y2="112.78"/><line x1="225.56" y1="357.39" x2="227.34" y2="327.00"/><line x1="200.37" y1="345.48" x2="200.11" y2="343.57"/><line x1="287.76" y1="109.55" x2="288.38" y2="109.78"/><line x1="226.97" y1="77.15" x2="239.74" y2="83.80"/><line x1="344.84" y1="109.65" x2="343.47" y2="109.55"/><line x1="161.86" y1="103.98" x2="161.09" y2="102.49"/><line x1="164.02" y1="106.75" x2="162.78" y2="105.36"/><line x1="224.29" y1="117.97" x2="160.46" y2="100.87"/><line x1="291.23" y1="113.60" x2="291.12" y2="114.53"/><line x1="340.45" y1="77.24" x2="353.29" y2="87.04"/><line x1="204.05" y1="78.65" x2="223.26" y2="110.85"/><line x1="224.29" y1="117.97" x2="184.95" y2="115.47"/><line x1="180.67" y1="110.21" x2="181.49" y2="110.70"/><line x1="272.09" y1="91.40" x2="272.01" y2="93.52"/><line x1="289.44" y1="110.28" x2="289.88" y2="110.55"/><line x1="349.40" y1="78.41" x2="343.47" y2="76.74"/><line x1="328.21" y1="117.96" x2="291.22" y2="112.78"/><line x1="273.16" y1="101.06" x2="272.66" y2="99.32"/><line x1="255.01" y1="195.04" x2="239.93" y2="246.42"/><line x1="241.10" y1="93.15" x2="241.05" y2="95.17"/><line x1="343.47" y1="76.74" x2="350.30" y2="79.55"/><line x1="225.56" y1="357.39" x2="235.37" y2="327.08"/><line x1="330.45" y1="78.30" x2="334.97" y2="108.89"/><line x1="255.01" y1="195.04" x2="275.53" y2="246.79"/><line x1="286.22" y1="76.74" x2="284.41" y2="76.54"/><line x1="182.46" y1="111.67" x2="183.01" y2="112.38"/><line x1="309.70" y1="328.07" x2="310.85" y2="329.36"/><line x1="241.05" y1="95.17" x2="219.76" y2="77.84"/><line x1="288.75" y1="327.30" x2="286.82" y2="327.42"/><line x1="226.97" y1="77.15" x2="223.42" y2="77.52"/><line x1="186.20" y1="78.02" x2="223.21" y2="113.56"/><line x1="254.86" y1="356.41" x2="275.73" y2="323.43"/><line x1="333.94" y1="78.02" x2="351.10" y2="104.97"/><line x1="334.97" y1="108.89" x2="326.80" y2="78.49"/><line x1="159.62" y1="97.26" x2="159.41" y2="95.27"/><line x1="333.94" y1="78.02" x2="339.76" y2="108.89"/><line x1="164.02" y1="106.75" x2="173.47" y2="109.55"/><line x1="224.29" y1="117.97" x2="179.75" y2="109.83"/><line x1="260.86" y1="195.04" x2="260.25" y2="196.24"/><line x1="346.12" y1="76.61" x2="344.84" y2="76.54"/><line x1="282.72" y1="356.86" x2="285.03" y2="327.45"/><line x1="223.21" y1="113.56" x2="181.90" y2="77.67"/><line x1="352.90" y1="85.36" x2="353.29" y2="87.04"/><line x1="200.80" y1="347.27" x2="200.37" y2="345.48"/><line x1="173.47" y1="109.55" x2="174.94" y2="109.39"/><line x1="480.00" y1="32.02" x2="480.00" y2="64.50"/><line x1="212.12" y1="78.34" x2="208.13" y2="78.51"/><line x1="239.14" y1="103.61" x2="238.42" y2="104.97"/><line x1="348.40" y1="77.55" x2="349.40" y2="78.41"/><line x1="312.51" y1="350.54" x2="311.74" y2="352.01"/><line x1="353.29" y1="87.04" x2="337.27" y2="77.67"/><line x1="328.21" y1="117.96" x2="272.30" y2="97.48"/><line x1="332.72" y1="110.50" x2="286.22" y2="76.74"/><line x1="186.08" y1="117.97" x2="255.01" y2="195.04"/><line x1="480.00" y1="479.91" x2="480.00" y2="447.42"/><line x1="286.23" y1="109.55" x2="287.76" y2="109.55"/><line x1="297.67" y1="326.05" x2="313.64" y2="335.77"/><line x1="238.42" y1="104.97" x2="237.61" y2="106.38"/><line x1="173.48" y1="76.74" x2="171.67" y2="76.45"/><line x1="225.56" y1="357.39" x2="239.56" y2="324.38"/><line x1="286.22" y1="76.74" x2="331.88" y2="111.53"/><line x1="225.56" y1="357.39" x2="229.54" y2="327.20"/><line x1="256.81" y1="197.83" x2="256.23" y2="197.17"/><line x1="292.96" y1="326.83" x2="294.68" y2="357.73"/><line x1="171.67" y1="76.45" x2="169.95" y2="76.46"/><line x1="333.94" y1="78.02" x2="353.56" y2="96.72"/><line x1="200.79" y1="335.77" x2="201.39" y2="334.03"/><line x1="333.94" y1="78.02" x2="347.30" y2="109.09"/><line x1="333.94" y1="78.02" x2="330.45" y2="78.30"/><line x1="447.51" y1="479.91" x2="480.00" y2="447.42"/><line x1="164.02" y1="106.75" x2="178.71" y2="109.55"/><line x1="275.53" y1="246.79" x2="230.80" y2="357.04"/><line x1="340.45" y1="77.24" x2="352.90" y2="85.36"/><line x1="305.49" y1="357.80" x2="303.84" y2="358.24"/><line x1="353.56" y1="96.72" x2="353.29" y2="98.56"/><line x1="201.39" y1="334.03" x2="202.16" y2="332.38"/><line x1="231.88" y1="76.54" x2="230.41" y2="76.74"/><line x1="230.41" y1="109.55" x2="228.86" y2="109.47"/><line x1="328.21" y1="117.96" x2="276.78" y2="107.03"/><line x1="234.36" y1="327.25" x2="233.04" y2="327.32"/><line x1="328.21" y1="117.96" x2="289.44" y2="110.28"/><line x1="282.70" y1="76.61" x2="281.08" y2="76.95"/><line x1="328.21" y1="117.96" x2="291.08" y2="112.07"/><line x1="237.61" y1="79.55" x2="238.42" y2="80.94"/><line x1="177.66" y1="77.24" x2="173.48" y2="76.74"/><line x1="215.99" y1="78.11" x2="212.12" y2="78.34"/><line x1="161.87" y1="82.31" x2="161.09" y2="83.80"/><line x1="233.04" y1="327.32" x2="231.44" y2="327.31"/><line x1="225.56" y1="357.39" x2="236.58" y2="326.88"/><line x1="208.60" y1="326.23" x2="207.03" y2="327.02"/><line x1="292.96" y1="326.83" x2="307.01" y2="357.08"/><line x1="223.95" y1="110.02" x2="223.53" y2="110.31"/><line x1="219.76" y1="77.84" x2="226.34" y2="109.50"/><line x1="288.75" y1="327.30" x2="282.72" y2="356.86"/><line x1="333.94" y1="78.02" x2="351.82" y2="103.51"/><line x1="207.03" y1="327.02" x2="205.56" y2="328.07"/><line x1="333.94" y1="78.02" x2="341.51" y2="109.17"/><line x1="312.52" y1="332.38" x2="313.15" y2="334.03"/><line x1="346.12" y1="76.61" x2="347.30" y2="76.95"/><line x1="282.72" y1="356.86" x2="286.82" y2="327.42"/><line x1="220.64" y1="357.82" x2="216.02" y2="358.33"/><line x1="269.44" y1="356.42" x2="277.27" y2="325.52"/><line x1="203.10" y1="330.82" x2="210.29" y2="325.69"/><line x1="328.21" y1="117.96" x2="275.53" y2="105.74"/><line x1="216.02" y1="358.33" x2="214.01" y2="358.42"/><line x1="328.21" y1="117.96" x2="290.26" y2="110.85"/><line x1="186.08" y1="117.97" x2="254.38" y2="193.58"/><line x1="328.21" y1="117.96" x2="275.53" y2="246.79"/><line x1="480.00" y1="479.91" x2="447.51" y2="479.91"/><line x1="195.00" y1="78.49" x2="190.57" y2="78.30"/><line x1="166.80" y1="108.75" x2="165.37" y2="107.88"/><line x1="219.76" y1="77.84" x2="233.24" y2="109.49"/><line x1="231.88" y1="109.65" x2="230.41" y2="109.55"/><line x1="351.10" y1="80.94" x2="351.82" y2="82.30"/><line x1="292.96" y1="326.83" x2="300.18" y2="358.33"/><line x1="278.63" y1="326.29" x2="277.27" y2="325.52"/><line x1="284.41" y1="76.54" x2="282.70" y2="76.61"/><line x1="333.94" y1="78.02" x2="348.40" y2="108.43"/><line x1="278.12" y1="108.08" x2="282.70" y2="109.71"/><line x1="333.94" y1="78.02" x2="335.84" y2="108.73"/><line x1="164.02" y1="106.75" x2="177.56" y2="109.39"/><line x1="275.53" y1="246.79" x2="236.35" y2="356.77"/><line x1="340.45" y1="77.24" x2="352.42" y2="83.78"/><line x1="162.78" y1="80.94" x2="161.87" y2="82.31"/><line x1="334.31" y1="109.16" x2="333.54" y2="109.72"/><line x1="311.76" y1="330.82" x2="312.52" y2="332.38"/><line x1="231.88" y1="76.54" x2="237.61" y2="79.55"/><line x1="223.45" y1="114.84" x2="223.81" y2="116.31"/><line x1="242.20" y1="356.57" x2="236.35" y2="356.77"/><line x1="323.00" y1="78.61" x2="319.04" y2="78.65"/><line x1="350.30" y1="106.38" x2="349.40" y2="107.53"/><line x1="328.21" y1="117.96" x2="273.81" y2="102.72"/><line x1="203.10" y1="330.82" x2="204.21" y2="329.36"/><line x1="328.21" y1="117.96" x2="290.82" y2="111.47"/><line x1="310.83" y1="353.37" x2="309.68" y2="354.87"/><line x1="177.66" y1="77.24" x2="224.29" y2="117.97"/><line x1="215.99" y1="78.11" x2="223.95" y2="110.02"/><line x1="349.40" y1="107.53" x2="348.40" y2="108.43"/><line x1="275.53" y1="105.74" x2="274.60" y2="104.28"/><line x1="219.76" y1="77.84" x2="238.42" y2="104.97"/><line x1="292.96" y1="326.83" x2="308.41" y2="356.11"/><line x1="223.95" y1="110.02" x2="212.12" y2="78.34"/><line x1="219.76" y1="77.84" x2="227.51" y2="109.46"/><line x1="333.94" y1="78.02" x2="352.42" y2="101.95"/><line x1="273.81" y1="83.99" x2="273.16" y2="85.68"/><line x1="233.24" y1="76.61" x2="236.68" y2="78.41"/><line x1="288.38" y1="109.78" x2="288.94" y2="110.03"/><line x1="240.23" y1="85.42" x2="240.61" y2="87.17"/><line x1="312.52" y1="332.38" x2="297.67" y2="326.05"/><line x1="346.12" y1="76.61" x2="348.40" y2="77.55"/><line x1="341.51" y1="109.17" x2="339.76" y2="108.89"/><line x1="185.69" y1="116.82" x2="186.08" y2="117.97"/><line x1="240.61" y1="87.17" x2="240.89" y2="89.04"/><line x1="199.49" y1="78.61" x2="195.00" y2="78.49"/><line x1="269.44" y1="356.42" x2="278.63" y2="326.29"/><line x1="203.10" y1="330.82" x2="212.08" y2="325.39"/><line x1="328.21" y1="117.96" x2="287.76" y2="109.55"/><line x1="339.76" y1="108.89" x2="338.24" y2="108.73"/><line x1="276.78" y1="107.03" x2="275.53" y2="105.74"/><line x1="181.49" y1="110.70" x2="181.95" y2="111.11"/><line x1="328.21" y1="117.96" x2="272.66" y2="99.32"/><line x1="224.29" y1="117.97" x2="166.80" y2="77.36"/><line x1="290.89" y1="115.57" x2="290.54" y2="116.72"/><line x1="224.29" y1="117.97" x2="159.41" y2="91.03"/><line x1="195.00" y1="78.49" x2="223.12" y2="111.56"/><line x1="350.30" y1="79.55" x2="351.10" y2="80.94"/><line x1="205.58" y1="354.87" x2="204.22" y2="353.37"/><line x1="166.80" y1="108.75" x2="168.33" y2="109.35"/><line x1="275.53" y1="246.79" x2="255.62" y2="196.24"/><line x1="272.66" y1="99.32" x2="272.30" y2="97.48"/><line x1="219.76" y1="77.84" x2="240.89" y2="97.07"/><line x1="181.90" y1="77.67" x2="177.66" y2="77.24"/><line x1="314.26" y1="341.55" x2="314.20" y2="343.57"/><line x1="219.76" y1="77.84" x2="234.50" y2="109.09"/><line x1="351.10" y1="80.94" x2="340.45" y2="77.24"/><line x1="219.76" y1="77.84" x2="215.99" y2="78.11"/><line x1="278.12" y1="108.08" x2="279.56" y2="108.87"/><line x1="223.53" y1="110.31" x2="223.26" y2="110.85"/><line x1="240.89" y1="97.07" x2="240.61" y2="98.87"/><line x1="274.60" y1="82.41" x2="273.81" y2="83.99"/><line x1="222.07" y1="326.31" x2="203.10" y2="352.01"/><line x1="215.99" y1="325.55" x2="203.10" y2="330.82"/><line x1="248.38" y1="356.46" x2="242.20" y2="356.57"/><line x1="222.07" y1="326.31" x2="215.99" y2="325.55"/><line x1="328.21" y1="117.96" x2="272.01" y2="93.52"/><line x1="334.31" y1="109.16" x2="323.00" y2="78.61"/><line x1="259.64" y1="197.17" x2="259.06" y2="197.83"/><line x1="223.45" y1="114.84" x2="177.66" y2="77.24"/><line x1="184.95" y1="115.47" x2="185.69" y2="116.82"/><line x1="200.11" y1="343.57" x2="200.03" y2="341.55"/><line x1="203.10" y1="330.82" x2="205.56" y2="328.07"/><line x1="176.31" y1="109.34" x2="177.56" y2="109.39"/><line x1="223.42" y1="77.52" x2="241.05" y2="95.17"/><line x1="224.29" y1="117.97" x2="161.87" y2="82.31"/><line x1="310.83" y1="353.37" x2="292.96" y2="326.83"/><line x1="353.56" y1="88.84" x2="353.72" y2="90.75"/><line x1="275.53" y1="246.79" x2="258.49" y2="198.23"/><line x1="169.95" y1="109.68" x2="166.80" y2="108.75"/><line x1="219.76" y1="77.84" x2="239.14" y2="103.61"/><line x1="239.09" y1="325.27" x2="238.44" y2="325.98"/><line x1="219.76" y1="77.84" x2="228.86" y2="109.47"/><line x1="161.09" y1="102.49" x2="160.46" y2="100.87"/><line x1="233.24" y1="76.61" x2="234.50" y2="76.95"/><line x1="222.07" y1="326.31" x2="210.31" y2="357.80"/><line x1="222.07" y1="326.31" x2="200.37" y2="345.48"/><line x1="328.21" y1="117.96" x2="273.81" y2="83.99"/><line x1="202.16" y1="332.38" x2="203.10" y2="330.82"/><line x1="289.88" y1="110.55" x2="290.26" y2="110.85"/><line x1="326.80" y1="78.49" x2="334.31" y2="109.16"/><line x1="276.78" y1="107.03" x2="287.76" y2="109.55"/><line x1="230.41" y1="76.74" x2="239.14" y2="82.31"/><line x1="224.29" y1="117.97" x2="168.33" y2="76.76"/><line x1="303.87" y1="325.39" x2="311.76" y2="330.82"/><line x1="224.29" y1="117.97" x2="159.62" y2="89.04"/><line x1="275.53" y1="246.79" x2="261.50" y2="193.58"/><line x1="183.01" y1="112.38" x2="183.61" y2="113.26"/><line x1="275.53" y1="246.79" x2="256.23" y2="197.17"/><line x1="181.90" y1="77.67" x2="223.45" y2="114.84"/><line x1="295.25" y1="326.48" x2="313.14" y2="348.96"/><line x1="480.00" y1="64.50" x2="447.51" y2="32.02"/><line x1="223.53" y1="110.31" x2="204.05" y2="78.65"/><line x1="222.07" y1="326.31" x2="204.22" y2="353.37"/><line x1="328.21" y1="117.96" x2="279.55" y2="77.55"/><line x1="215.99" y1="325.55" x2="202.16" y2="332.38"/><line x1="222.07" y1="326.31" x2="200.37" y2="337.60"/><line x1="328.21" y1="117.96" x2="272.09" y2="91.40"/><line x1="159.34" y1="93.15" x2="159.41" y2="95.27"/><line x1="305.51" y1="325.69" x2="303.87" y2="325.39"/><line x1="237.61" y1="106.38" x2="236.68" y2="107.53"/><line x1="223.42" y1="77.52" x2="241.10" y2="93.15"/><line x1="224.29" y1="117.97" x2="162.78" y2="80.94"/><line x1="277.27" y1="325.52" x2="276.31" y2="324.57"/><line x1="169.95" y1="76.46" x2="168.33" y2="76.76"/><line x1="331.01" y1="112.78" x2="330.11" y2="114.27"/><line x1="275.53" y1="246.79" x2="259.06" y2="197.83"/><line x1="262.31" y1="356.37" x2="254.86" y2="356.41"/><line x1="165.37" y1="107.88" x2="164.02" y2="106.75"/><line x1="224.29" y1="117.97" x2="159.62" y2="97.26"/><line x1="295.25" y1="326.48" x2="292.96" y2="326.83"/><line x1="228.86" y1="109.47" x2="227.51" y2="109.46"/><line x1="222.07" y1="326.31" x2="212.11" y2="358.24"/><line x1="302.07" y1="358.42" x2="300.18" y2="358.33"/><line x1="222.07" y1="326.31" x2="200.80" y2="347.27"/><line x1="328.21" y1="117.96" x2="274.60" y2="82.41"/><line x1="171.66" y1="109.75" x2="173.47" y2="109.55"/><line x1="174.94" y1="109.39" x2="176.31" y2="109.34"/><line x1="231.44" y1="327.31" x2="229.54" y2="327.20"/><line x1="279.55" y1="77.55" x2="278.12" y2="78.41"/><line x1="311.74" y1="352.01" x2="310.83" y2="353.37"/><line x1="276.78" y1="107.03" x2="286.23" y2="109.55"/><line x1="337.27" y1="77.67" x2="353.56" y2="88.84"/><line x1="230.41" y1="76.74" x2="238.42" y2="80.94"/><line x1="224.29" y1="117.97" x2="169.95" y2="76.46"/><line x1="303.87" y1="325.39" x2="310.85" y2="329.36"/><line x1="319.04" y1="78.65" x2="286.22" y2="76.74"/><line x1="275.53" y1="246.79" x2="262.15" y2="191.85"/><line x1="239.56" y1="324.38" x2="239.09" y2="325.27"/><line x1="275.53" y1="246.79" x2="256.81" y2="197.83"/><line x1="331.88" y1="111.53" x2="331.01" y2="112.78"/><line x1="286.82" y1="327.42" x2="285.03" y2="327.45"/><line x1="169.95" y1="109.68" x2="171.66" y2="109.75"/><line x1="200.37" y1="337.60" x2="200.79" y2="335.77"/><line x1="347.30" y1="109.09" x2="346.12" y2="109.49"/><line x1="224.29" y1="117.97" x2="181.49" y2="110.70"/><line x1="256.23" y1="197.17" x2="255.62" y2="196.24"/><line x1="224.29" y1="117.97" x2="184.26" y2="114.29"/><line x1="295.25" y1="326.48" x2="313.64" y2="347.27"/><line x1="240.89" y1="89.04" x2="241.05" y2="91.03"/><line x1="291.08" y1="112.07" x2="291.22" y2="112.78"/><line x1="222.07" y1="326.31" x2="205.58" y2="354.87"/><line x1="328.21" y1="117.96" x2="281.08" y2="76.95"/><line x1="214.01" y1="358.42" x2="212.11" y2="358.24"/><line x1="272.66" y1="87.48" x2="272.30" y2="89.38"/><line x1="328.21" y1="117.96" x2="272.30" y2="89.38"/><line x1="303.84" y1="358.24" x2="302.07" y2="358.42"/><line x1="353.29" y1="98.56" x2="352.90" y2="100.31"/><line x1="305.51" y1="325.69" x2="309.70" y2="328.07"/><line x1="313.15" y1="334.03" x2="313.64" y2="335.77"/><line x1="253.73" y1="191.85" x2="254.38" y2="193.58"/><line x1="337.27" y1="77.67" x2="333.94" y2="78.02"/><line x1="281.08" y1="76.95" x2="279.55" y2="77.55"/><line x1="288.86" y1="357.24" x2="282.72" y2="356.86"/><line x1="190.57" y1="78.30" x2="186.20" y2="78.02"/><line x1="286.22" y1="76.74" x2="328.21" y2="117.96"/><line x1="225.56" y1="357.39" x2="220.64" y2="357.82"/><line x1="277.27" y1="325.52" x2="262.31" y2="356.37"/><line x1="336.93" y1="108.67" x2="335.84" y2="108.73"/><line x1="309.70" y1="328.07" x2="303.87" y2="325.39"/><line x1="161.09" y1="83.80" x2="160.46" y2="85.42"/><line x1="226.97" y1="77.15" x2="240.89" y2="89.04"/><line x1="32.16" y1="32.09" x2="32.16" y2="64.58"/><line x1="275.53" y1="246.79" x2="259.64" y2="197.17"/><line x1="290.05" y1="117.98" x2="262.15" y2="191.85"/><line x1="239.93" y1="246.42" x2="275.53" y2="246.79"/><line x1="224.29" y1="117.97" x2="162.78" y2="105.36"/><line x1="165.37" y1="107.88" x2="171.66" y2="109.75"/><line x1="224.29" y1="117.97" x2="182.46" y2="111.67"/><line x1="282.70" y1="109.71" x2="284.42" y2="109.76"/><line x1="348.40" y1="108.43" x2="347.30" y2="109.09"/><line x1="224.29" y1="117.97" x2="253.73" y2="191.85"/><line x1="295.25" y1="326.48" x2="310.83" y2="353.37"/><line x1="205.56" y1="328.07" x2="204.21" y2="329.36"/><line x1="313.98" y1="345.48" x2="313.64" y2="347.27"/><line x1="290.82" y1="111.47" x2="291.08" y2="112.07"/><line x1="333.54" y1="109.72" x2="332.72" y2="110.50"/><line x1="212.12" y1="78.34" x2="223.53" y2="110.31"/><line x1="348.40" y1="77.55" x2="344.84" y2="76.54"/><line x1="273.16" y1="85.68" x2="272.66" y2="87.48"/><line x1="297.67" y1="326.05" x2="313.15" y2="334.03"/><line x1="178.71" y1="109.55" x2="179.75" y2="109.83"/><line x1="223.26" y1="110.85" x2="223.12" y2="111.56"/><line x1="225.56" y1="357.39" x2="231.44" y2="327.31"/><line x1="223.12" y1="111.56" x2="223.10" y2="112.47"/><line x1="274.60" y1="104.28" x2="273.81" y2="102.72"/><line x1="224.29" y1="117.97" x2="161.09" y2="102.49"/><line x1="224.29" y1="117.97" x2="183.61" y2="113.26"/><line x1="240.89" y1="89.04" x2="223.42" y2="77.52"/><line x1="160.46" y1="100.87" x2="159.97" y2="99.13"/><line x1="203.10" y1="352.01" x2="202.17" y2="350.54"/><line x1="275.73" y1="323.43" x2="275.53" y2="322.11"/><line x1="237.61" y1="79.55" x2="230.41" y2="76.74"/><line x1="297.67" y1="326.05" x2="295.25" y2="326.48"/><line x1="290.26" y1="110.85" x2="290.56" y2="111.15"/><line x1="225.56" y1="357.39" x2="237.60" y2="326.52"/><line x1="288.86" y1="357.24" x2="288.75" y2="327.30"/><line x1="32.00" y1="479.98" x2="64.49" y2="479.98"/><line x1="286.22" y1="76.74" x2="329.17" y2="115.99"/><line x1="225.56" y1="357.39" x2="222.07" y2="326.31"/><line x1="226.97" y1="77.15" x2="240.61" y2="87.17"/><line x1="333.94" y1="78.02" x2="343.47" y2="109.55"/><line x1="224.29" y1="117.97" x2="178.71" y2="109.55"/><line x1="224.29" y1="117.97" x2="159.97" y2="99.13"/><line x1="348.40" y1="77.55" x2="347.30" y2="76.95"/><line x1="258.49" y1="198.23" x2="257.93" y2="198.36"/><line x1="276.24" y1="356.59" x2="269.44" y2="356.42"/><line x1="186.08" y1="117.97" x2="253.73" y2="191.85"/><line x1="328.21" y1="117.96" x2="291.12" y2="114.53"/><line x1="291.12" y1="114.53" x2="290.89" y2="115.57"/><line x1="338.24" y1="108.73" x2="336.93" y2="108.67"/><line x1="343.47" y1="76.74" x2="340.45" y2="77.24"/><line x1="309.68" y1="354.87" x2="308.41" y2="356.11"/><line x1="225.56" y1="357.39" x2="233.04" y2="327.32"/><line x1="290.54" y1="116.72" x2="290.05" y2="117.98"/><line x1="223.12" y1="111.56" x2="190.57" y2="78.30"/><line x1="292.96" y1="326.83" x2="302.07" y2="358.42"/><line x1="204.22" y1="353.37" x2="203.10" y2="352.01"/><line x1="314.20" y1="339.54" x2="314.26" y2="341.55"/><line x1="333.94" y1="78.02" x2="349.40" y2="107.53"/><line x1="224.29" y1="117.97" x2="164.02" y2="106.75"/><line x1="333.94" y1="78.02" x2="336.93" y2="108.67"/><line x1="164.02" y1="106.75" x2="176.31" y2="109.34"/><line x1="314.20" y1="343.57" x2="313.98" y2="345.48"/><line x1="275.53" y1="246.79" x2="275.53" y2="322.11"/><line x1="340.45" y1="77.24" x2="351.82" y2="82.30"/><line x1="282.72" y1="356.86" x2="276.24" y2="356.59"/><line x1="311.76" y1="330.82" x2="300.22" y2="325.55"/><line x1="240.61" y1="98.87" x2="240.23" y2="100.56"/><line x1="242.20" y1="356.57" x2="275.53" y2="322.11"/><line x1="323.00" y1="78.61" x2="333.54" y2="109.72"/><line x1="328.21" y1="117.96" x2="288.94" y2="110.03"/><line x1="328.21" y1="117.96" x2="272.09" y2="95.55"/><line x1="259.06" y1="197.83" x2="258.49" y2="198.23"/><line x1="282.51" y1="327.25" x2="280.38" y2="326.86"/><line x1="177.66" y1="77.24" x2="223.81" y2="116.31"/><line x1="297.67" y1="326.05" x2="314.20" y2="339.54"/><line x1="275.53" y1="322.11" x2="236.35" y2="356.77"/><line x1="200.03" y1="341.55" x2="200.11" y2="339.54"/><line x1="177.56" y1="109.39" x2="178.71" y2="109.55"/><line x1="225.56" y1="357.39" x2="238.44" y2="325.98"/><line x1="32.00" y1="479.98" x2="32.00" y2="447.50"/><line x1="286.22" y1="76.74" x2="330.11" y2="114.27"/><line x1="225.56" y1="357.39" x2="224.85" y2="326.70"/><line x1="276.78" y1="79.55" x2="275.53" y2="80.94"/><line x1="292.96" y1="326.83" x2="309.68" y2="354.87"/><line x1="353.72" y1="90.75" x2="353.78" y2="92.77"/><line x1="292.96" y1="326.83" x2="290.79" y2="327.10"/><line x1="226.97" y1="77.15" x2="240.23" y2="85.42"/><line x1="200.11" y1="339.54" x2="200.37" y2="337.60"/><line x1="333.94" y1="78.02" x2="352.90" y2="100.31"/><line x1="333.94" y1="78.02" x2="344.84" y2="109.65"/><line x1="235.65" y1="108.43" x2="234.50" y2="109.09"/><line x1="275.53" y1="246.79" x2="239.56" y2="324.38"/><line x1="183.61" y1="113.26" x2="184.26" y2="114.29"/><line x1="238.44" y1="325.98" x2="237.60" y2="326.52"/><line x1="340.45" y1="77.24" x2="337.27" y2="77.67"/><line x1="330.11" y1="114.27" x2="329.17" y2="115.99"/><line x1="204.05" y1="78.65" x2="199.49" y2="78.61"/><line x1="235.65" y1="77.55" x2="236.68" y2="78.41"/><line x1="239.93" y1="322.11" x2="239.84" y2="323.33"/><line x1="166.80" y1="77.36" x2="165.37" y2="78.25"/><line x1="237.60" y1="326.52" x2="236.58" y2="326.88"/><line x1="203.10" y1="330.82" x2="213.98" y2="325.35"/><line x1="328.21" y1="117.96" x2="289.88" y2="110.55"/><line x1="349.40" y1="78.41" x2="350.30" y2="79.55"/><line x1="328.21" y1="117.96" x2="291.23" y2="113.60"/><line x1="300.18" y1="358.33" x2="294.68" y2="357.73"/><line x1="213.98" y1="325.35" x2="212.08" y2="325.39"/><line x1="225.56" y1="357.39" x2="234.36" y2="327.25"/><line x1="330.45" y1="78.30" x2="326.80" y2="78.49"/><line x1="294.68" y1="357.73" x2="288.86" y2="357.24"/><line x1="219.76" y1="77.84" x2="235.65" y2="108.43"/><line x1="292.96" y1="326.83" x2="303.84" y2="358.24"/><line x1="229.54" y1="327.20" x2="227.34" y2="327.00"/><line x1="219.76" y1="77.84" x2="224.56" y2="109.78"/><line x1="186.20" y1="78.02" x2="181.90" y2="77.67"/><line x1="239.14" y1="82.31" x2="239.74" y2="83.80"/><line x1="333.94" y1="78.02" x2="350.30" y2="106.38"/><line x1="333.94" y1="78.02" x2="338.24" y2="108.73"/><line x1="164.02" y1="106.75" x2="174.94" y2="109.39"/><line x1="227.34" y1="327.00" x2="224.85" y2="326.70"/><line x1="311.76" y1="330.82" x2="302.11" y2="325.35"/><line x1="203.10" y1="330.82" x2="207.03" y2="327.02"/><line x1="328.21" y1="117.96" x2="274.60" y2="104.28"/><line x1="328.21" y1="117.96" x2="290.56" y2="111.15"/><line x1="332.72" y1="110.50" x2="331.88" y2="111.53"/><line x1="236.68" y1="107.53" x2="235.65" y2="108.43"/><line x1="344.84" y1="76.54" x2="343.47" y2="76.74"/><line x1="282.51" y1="327.25" x2="276.24" y2="356.59"/><line x1="179.75" y1="109.83" x2="180.67" y2="110.21"/><line x1="219.76" y1="77.84" x2="239.74" y2="102.14"/><line x1="168.33" y1="76.76" x2="166.80" y2="77.36"/><line x1="335.84" y1="108.73" x2="334.97" y2="108.89"/><line x1="219.76" y1="77.84" x2="230.41" y2="109.55"/><line x1="272.01" y1="93.52" x2="272.09" y2="95.55"/><line x1="292.96" y1="326.83" x2="288.86" y2="357.24"/><line x1="333.94" y1="78.02" x2="353.29" y2="98.56"/><line x1="233.24" y1="76.61" x2="235.65" y2="77.55"/><line x1="223.10" y1="112.47" x2="223.21" y2="113.56"/><line x1="333.94" y1="78.02" x2="346.12" y2="109.49"/><line x1="276.31" y1="324.57" x2="275.73" y2="323.43"/><line x1="275.53" y1="246.79" x2="225.56" y2="357.39"/><line x1="352.90" y1="100.31" x2="352.42" y2="101.95"/><line x1="235.65" y1="77.55" x2="234.50" y2="76.95"/><line x1="227.51" y1="109.46" x2="226.34" y2="109.50"/><line x1="352.42" y1="101.95" x2="351.82" y2="103.51"/><line x1="328.21" y1="117.96" x2="273.16" y2="101.06"/><line x1="226.34" y1="109.50" x2="225.35" y2="109.61"/><line x1="160.46" y1="85.42" x2="159.97" y2="87.17"/><line x1="224.29" y1="117.97" x2="159.97" y2="87.17"/><line x1="278.12" y1="78.41" x2="276.78" y2="79.55"/><line x1="238.42" y1="80.94" x2="239.14" y2="82.31"/><line x1="310.85" y1="329.36" x2="311.76" y2="330.82"/><line x1="159.97" y1="87.17" x2="159.62" y2="89.04"/><line x1="219.76" y1="77.84" x2="236.68" y2="107.53"/><line x1="292.96" y1="326.83" x2="305.49" y2="357.80"/><line x1="219.76" y1="77.84" x2="225.35" y2="109.61"/><line x1="239.14" y1="82.31" x2="226.97" y2="77.15"/><line x1="223.53" y1="110.31" x2="208.13" y2="78.51"/><line x1="285.03" y1="327.45" x2="282.51" y2="327.25"/><line x1="215.99" y1="325.55" x2="201.39" y2="334.03"/><line x1="346.12" y1="109.49" x2="344.84" y2="109.65"/><line x1="222.07" y1="326.31" x2="200.11" y2="339.54"/><line x1="291.22" y1="112.78" x2="291.23" y2="113.60"/><line x1="208.13" y1="78.51" x2="204.05" y2="78.65"/><line x1="212.11" y1="358.24" x2="210.31" y2="357.80"/><line x1="272.30" y1="89.38" x2="272.09" y2="91.40"/><line x1="269.44" y1="356.42" x2="262.31" y2="356.37"/><line x1="273.81" y1="102.72" x2="273.16" y2="101.06"/><line x1="203.10" y1="330.82" x2="208.60" y2="326.23"/><line x1="328.21" y1="117.96" x2="288.38" y2="109.78"/><line x1="223.42" y1="77.52" x2="241.05" y2="91.03"/><line x1="313.64" y1="335.77" x2="313.98" y2="337.60"/><line x1="224.29" y1="117.97" x2="164.03" y2="79.45"/><line x1="344.84" y1="76.54" x2="349.40" y2="78.41"/><line x1="210.31" y1="357.80" x2="208.62" y2="357.08"/><line x1="254.38" y1="193.58" x2="255.01" y2="195.04"/><line x1="241.05" y1="91.03" x2="241.10" y2="93.15"/><line x1="275.53" y1="246.79" x2="239.84" y2="323.33"/><line x1="313.98" y1="337.60" x2="314.20" y2="339.54"/><line x1="262.31" y1="356.37" x2="276.31" y2="324.57"/><line x1="219.76" y1="77.84" x2="240.23" y2="100.56"/><line x1="335.84" y1="108.73" x2="330.45" y2="78.30"/><line x1="219.76" y1="77.84" x2="231.88" y2="109.65"/><line x1="262.15" y1="191.85" x2="261.50" y2="193.58"/><line x1="223.10" y1="112.47" x2="186.20" y2="78.02"/><line x1="278.12" y1="108.08" x2="276.78" y2="107.03"/><line x1="222.07" y1="326.31" x2="214.01" y2="358.42"/><line x1="276.31" y1="324.57" x2="254.86" y2="356.41"/><line x1="202.17" y1="350.54" x2="201.39" y2="348.96"/><line x1="222.07" y1="326.31" x2="201.39" y2="348.96"/><line x1="328.21" y1="117.96" x2="275.53" y2="80.94"/><line x1="171.66" y1="109.75" x2="164.02" y2="106.75"/><line x1="64.64" y1="32.09" x2="32.16" y2="64.58"/><line x1="261.50" y1="193.58" x2="260.86" y2="195.04"/><line x1="313.64" y1="347.27" x2="313.14" y2="348.96"/><line x1="352.42" y1="83.78" x2="352.90" y2="85.36"/><line x1="201.39" y1="348.96" x2="200.80" y2="347.27"/><line x1="276.78" y1="107.03" x2="284.42" y2="109.76"/><line x1="224.29" y1="117.97" x2="171.67" y2="76.45"/><line x1="313.14" y1="348.96" x2="312.51" y2="350.54"/><line x1="236.35" y1="356.77" x2="230.80" y2="357.04"/><line x1="224.29" y1="117.97" x2="160.46" y2="85.42"/><line x1="319.04" y1="78.65" x2="332.72" y2="110.50"/><line x1="162.78" y1="105.36" x2="161.86" y2="103.98"/><line x1="275.53" y1="246.79" x2="290.05" y2="117.98"/><line x1="284.42" y1="109.76" x2="286.23" y2="109.55"/><line x1="257.93" y1="198.36" x2="257.38" y2="198.23"/><line x1="275.53" y1="246.79" x2="257.38" y2="198.23"/><line x1="353.72" y1="94.80" x2="353.56" y2="96.72"/><line x1="230.80" y1="357.04" x2="225.56" y2="357.39"/><line x1="169.95" y1="109.68" x2="165.37" y2="107.88"/><line x1="200.37" y1="337.60" x2="215.99" y2="325.55"/><line x1="219.76" y1="77.84" x2="237.61" y2="106.38"/><line x1="288.94" y1="110.03" x2="289.44" y2="110.28"/><line x1="295.25" y1="326.48" x2="313.98" y2="345.48"/><line x1="257.38" y1="198.23" x2="256.81" y2="197.83"/><line x1="233.24" y1="76.61" x2="231.88" y2="76.54"/><line x1="222.07" y1="326.31" x2="207.05" y2="356.11"/><line x1="328.21" y1="117.96" x2="282.70" y2="76.61"/><line x1="215.99" y1="325.55" x2="200.79" y2="335.77"/><line x1="281.08" y1="109.42" x2="282.70" y2="109.71"/><line x1="222.07" y1="326.31" x2="200.03" y2="341.55"/><line x1="328.21" y1="117.96" x2="272.66" y2="87.48"/><line x1="305.51" y1="325.69" x2="307.03" y2="326.23"/><line x1="307.01" y1="357.08" x2="305.49" y2="357.80"/><line x1="239.84" y1="323.33" x2="239.56" y2="324.38"/><line x1="181.95" y1="111.11" x2="182.46" y2="111.67"/><line x1="236.68" y1="78.41" x2="237.61" y2="79.55"/><line x1="308.43" y1="327.02" x2="309.70" y2="328.07"/><line x1="337.27" y1="77.67" x2="353.72" y2="94.80"/><line x1="190.57" y1="78.30" x2="223.10" y2="112.47"/><line x1="224.29" y1="117.97" x2="165.37" y2="78.25"/><line x1="235.37" y1="327.08" x2="234.36" y2="327.25"/><line x1="224.29" y1="117.97" x2="159.34" y2="93.15"/><line x1="159.97" y1="99.13" x2="159.62" y2="97.26"/><line x1="272.30" y1="97.48" x2="272.09" y2="95.55"/><line x1="32.16" y1="32.09" x2="64.64" y2="32.09"/><line x1="275.53" y1="246.79" x2="260.25" y2="196.24"/><line x1="224.56" y1="109.78" x2="223.95" y2="110.02"/><line x1="275.53" y1="246.79" x2="239.93" y2="322.11"/><line x1="351.82" y1="82.30" x2="352.42" y2="83.78"/><line x1="219.76" y1="77.84" x2="240.61" y2="98.87"/><line x1="290.56" y1="111.15" x2="290.82" y2="111.47"/><line x1="282.70" y1="109.71" x2="276.78" y2="107.03"/><line x1="224.29" y1="117.97" x2="186.08" y2="117.97"/><line x1="240.23" y1="100.56" x2="239.74" y2="102.14"/><line x1="295.25" y1="326.48" x2="311.74" y2="352.01"/><line x1="222.07" y1="326.31" x2="216.02" y2="358.33"/><line x1="333.54" y1="109.72" x2="319.04" y2="78.65"/><line x1="222.07" y1="326.31" x2="202.17" y2="350.54"/><line x1="328.21" y1="117.96" x2="276.78" y2="79.55"/><line x1="215.99" y1="325.55" x2="213.98" y2="325.35"/><line x1="300.22" y1="325.55" x2="297.67" y2="326.05"/><line x1="239.74" y1="102.14" x2="239.14" y2="103.61"/><line x1="223.81" y1="116.31" x2="224.29" y2="117.97"/><line x1="32.00" y1="447.50" x2="64.49" y2="479.98"/></g></svg>