<svg xmlns="http://www.w3.org/2000/svg" width="512" height="512"><rect width="512" height="512" fill="#0a0f1a"/><text x="12" y="20" font-family="monospace" font-size="11" fill="#4a7fa5">FRONT (XZ)</text><g stroke="#00d4ff" stroke-width="0.6" opacity="0.85"><line x1="208.89" y1="293.32" x2="208.76" y2="292.09"/><line x1="176.45" y1="288.18" x2="178.83" y2="288.80"/><line x1="251.84" y1="288.55" x2="253.95" y2="288.15"/><line x1="280.82" y1="325.13" x2="293.30" y2="329.45"/><line x1="279.07" y1="256.23" x2="281.32" y2="286.55"/><line x1="175.01" y1="358.12" x2="176.82" y2="357.92"/><line x1="291.16" y1="354.08" x2="289.92" y2="355.35"/><line x1="178.83" y1="288.80" x2="177.61" y2="288.63"/><line x1="253.96" y1="254.87" x2="257.11" y2="255.29"/><line x1="208.17" y1="252.20" x2="209.00" y2="250.75"/><line x1="349.58" y1="253.32" x2="305.84" y2="252.12"/><line x1="244.86" y1="136.30" x2="245.32" y2="74.14"/><line x1="176.82" y1="357.92" x2="229.97" y2="355.25"/><line x1="205.56" y1="288.70" x2="204.09" y2="288.25"/><line x1="209.00" y1="250.75" x2="246.13" y2="250.37"/><line x1="210.71" y1="80.86" x2="210.12" y2="82.73"/><line x1="204.09" y1="288.25" x2="202.36" y2="287.96"/><line x1="200.03" y1="255.67" x2="201.60" y2="255.50"/><line x1="175.62" y1="256.03" x2="176.99" y2="255.17"/><line x1="296.98" y1="255.99" x2="297.84" y2="286.57"/><line x1="170.76" y1="325.27" x2="164.58" y2="329.33"/><line x1="237.97" y1="355.30" x2="245.79" y2="355.46"/><line x1="210.12" y1="82.73" x2="209.77" y2="84.72"/><line x1="275.39" y1="357.21" x2="268.24" y2="356.61"/><line x1="186.25" y1="288.33" x2="180.11" y2="288.72"/><line x1="176.99" y1="255.17" x2="178.47" y2="254.56"/><line x1="280.82" y1="325.13" x2="286.48" y2="324.75"/><line x1="253.27" y1="82.65" x2="244.86" y2="136.30"/><line x1="192.42" y1="287.99" x2="171.07" y2="263.30"/><line x1="247.09" y1="290.85" x2="248.38" y2="252.92"/><line x1="286.48" y1="324.75" x2="288.12" y2="325.19"/><line x1="171.07" y1="263.30" x2="189.49" y2="288.14"/><line x1="244.86" y1="317.46" x2="190.76" y2="255.23"/><line x1="304.09" y1="254.74" x2="314.07" y2="287.36"/><line x1="162.08" y1="333.88" x2="161.59" y2="335.67"/><line x1="288.12" y1="325.19" x2="289.64" y2="325.91"/><line x1="190.76" y1="255.23" x2="193.52" y2="255.50"/><line x1="245.32" y1="74.14" x2="243.34" y2="73.11"/><line x1="247.11" y1="322.88" x2="205.46" y2="320.53"/><line x1="186.25" y1="288.33" x2="170.25" y2="277.03"/><line x1="209.49" y1="249.06" x2="209.66" y2="247.11"/><line x1="251.84" y1="288.55" x2="253.96" y2="254.87"/><line x1="162.17" y1="347.69" x2="162.83" y2="349.43"/><line x1="243.34" y1="73.11" x2="241.36" y2="72.30"/><line x1="294.87" y1="332.40" x2="295.42" y2="334.09"/><line x1="244.44" y1="300.14" x2="244.55" y2="297.90"/><line x1="295.42" y1="334.09" x2="295.81" y2="335.92"/><line x1="244.86" y1="317.46" x2="180.06" y2="254.23"/><line x1="266.09" y1="287.20" x2="271.09" y2="286.92"/><line x1="480.00" y1="32.02" x2="447.51" y2="32.02"/><line x1="340.41" y1="286.78" x2="343.68" y2="284.98"/><line x1="244.86" y1="244.42" x2="244.86" y2="136.30"/><line x1="180.11" y1="288.72" x2="174.31" y2="286.50"/><line x1="266.21" y1="255.91" x2="272.17" y2="256.11"/><line x1="305.52" y1="253.21" x2="351.40" y2="263.88"/><line x1="228.79" y1="70.43" x2="226.55" y2="70.61"/><line x1="186.25" y1="288.33" x2="172.43" y2="283.75"/><line x1="245.25" y1="293.32" x2="246.04" y2="291.99"/><line x1="162.74" y1="332.22" x2="162.08" y2="333.88"/><line x1="205.55" y1="254.35" x2="207.03" y2="253.40"/><line x1="187.69" y1="254.84" x2="190.76" y2="255.23"/><line x1="286.55" y1="286.46" x2="290.71" y2="256.23"/><line x1="247.11" y1="75.29" x2="245.32" y2="74.14"/><line x1="244.86" y1="317.46" x2="173.21" y2="258.56"/><line x1="244.86" y1="317.46" x2="187.69" y2="254.84"/><line x1="251.74" y1="254.36" x2="251.84" y2="288.55"/><line x1="348.40" y1="250.18" x2="305.69" y2="249.28"/><line x1="169.81" y1="273.19" x2="186.25" y2="288.33"/><line x1="332.46" y1="288.65" x2="336.67" y2="288.00"/><line x1="305.52" y1="253.21" x2="305.84" y2="252.12"/><line x1="161.67" y1="345.85" x2="162.17" y2="347.69"/><line x1="186.25" y1="288.33" x2="169.97" y2="275.15"/><line x1="209.49" y1="249.06" x2="245.01" y2="246.68"/><line x1="244.39" y1="302.74" x2="244.44" y2="300.14"/><line x1="336.67" y1="288.00" x2="340.41" y2="286.78"/><line x1="162.17" y1="347.69" x2="183.38" y2="325.41"/><line x1="207.48" y1="316.71" x2="208.22" y2="313.91"/><line x1="244.44" y1="300.14" x2="200.03" y2="255.67"/><line x1="301.44" y1="255.49" x2="302.99" y2="255.14"/><line x1="261.17" y1="287.55" x2="266.09" y2="287.20"/><line x1="230.97" y1="70.39" x2="228.79" y2="70.43"/><line x1="208.22" y1="313.91" x2="208.76" y2="310.52"/><line x1="172.43" y1="283.75" x2="180.11" y2="288.72"/><line x1="244.86" y1="317.46" x2="178.47" y2="254.56"/><line x1="245.12" y1="319.60" x2="244.86" y2="317.46"/><line x1="266.09" y1="287.20" x2="266.21" y2="255.91"/><line x1="304.94" y1="254.08" x2="305.52" y2="253.21"/><line x1="480.00" y1="32.02" x2="480.00" y2="64.50"/><line x1="171.67" y1="261.61" x2="201.00" y2="287.87"/><line x1="248.86" y1="324.03" x2="203.57" y2="321.85"/><line x1="167.08" y1="355.40" x2="168.51" y2="356.44"/><line x1="295.42" y1="345.85" x2="294.87" y2="347.65"/><line x1="180.11" y1="288.72" x2="173.34" y2="285.26"/><line x1="248.41" y1="289.90" x2="249.99" y2="289.13"/><line x1="203.74" y1="255.05" x2="245.25" y2="293.32"/><line x1="171.67" y1="261.61" x2="172.39" y2="260.03"/><line x1="480.00" y1="479.91" x2="480.00" y2="447.42"/><line x1="305.52" y1="253.21" x2="351.45" y2="267.78"/><line x1="168.51" y1="356.44" x2="170.01" y2="357.24"/><line x1="208.76" y1="292.09" x2="208.35" y2="291.01"/><line x1="245.25" y1="293.32" x2="205.55" y2="254.35"/><line x1="281.32" y1="286.55" x2="286.55" y2="286.46"/><line x1="229.97" y1="355.25" x2="193.61" y2="324.60"/><line x1="216.99" y1="73.61" x2="215.40" y2="74.63"/><line x1="253.45" y1="355.74" x2="260.94" y2="356.11"/><line x1="208.35" y1="291.01" x2="207.69" y2="290.08"/><line x1="286.55" y1="286.46" x2="286.89" y2="256.27"/><line x1="447.51" y1="479.91" x2="480.00" y2="447.42"/><line x1="288.59" y1="356.36" x2="287.17" y2="357.13"/><line x1="244.86" y1="317.46" x2="172.39" y2="260.03"/><line x1="244.86" y1="317.46" x2="184.33" y2="254.36"/><line x1="304.94" y1="254.08" x2="343.68" y2="284.98"/><line x1="164.58" y1="329.33" x2="174.88" y2="325.12"/><line x1="348.40" y1="250.18" x2="305.90" y2="250.80"/><line x1="188.86" y1="325.11" x2="193.61" y2="324.60"/><line x1="171.67" y1="261.61" x2="192.42" y2="287.99"/><line x1="201.60" y1="255.50" x2="203.74" y2="255.05"/><line x1="245.43" y1="248.67" x2="209.49" y2="249.06"/><line x1="200.97" y1="322.97" x2="248.86" y2="324.03"/><line x1="305.52" y1="253.21" x2="349.58" y2="253.32"/><line x1="209.77" y1="84.72" x2="209.66" y2="86.84"/><line x1="201.00" y1="287.87" x2="199.33" y2="287.83"/><line x1="299.44" y1="255.77" x2="301.44" y2="255.49"/><line x1="253.45" y1="355.74" x2="253.86" y2="325.35"/><line x1="304.94" y1="254.08" x2="323.49" y2="288.20"/><line x1="304.94" y1="254.08" x2="351.21" y2="271.86"/><line x1="171.67" y1="261.61" x2="202.36" y2="287.96"/><line x1="348.40" y1="250.18" x2="253.27" y2="82.65"/><line x1="244.48" y1="309.03" x2="244.41" y2="305.71"/><line x1="291.86" y1="286.43" x2="297.84" y2="286.57"/><line x1="480.00" y1="479.91" x2="447.51" y2="479.91"/><line x1="245.01" y1="246.68" x2="244.86" y2="244.42"/><line x1="195.99" y1="255.67" x2="198.15" y2="255.72"/><line x1="253.95" y1="288.15" x2="256.33" y2="287.96"/><line x1="183.38" y1="325.41" x2="176.82" y2="357.92"/><line x1="229.97" y1="355.25" x2="188.86" y2="325.11"/><line x1="189.49" y1="288.14" x2="186.25" y2="288.33"/><line x1="257.11" y1="255.29" x2="261.20" y2="255.64"/><line x1="246.13" y1="250.37" x2="245.43" y2="248.67"/><line x1="245.12" y1="319.60" x2="208.35" y2="291.01"/><line x1="202.36" y1="287.96" x2="201.00" y2="287.87"/><line x1="244.55" y1="297.90" x2="244.72" y2="296.01"/><line x1="304.94" y1="254.08" x2="340.41" y2="286.78"/><line x1="164.58" y1="329.33" x2="172.73" y2="325.04"/><line x1="171.67" y1="261.61" x2="195.04" y2="287.89"/><line x1="201.60" y1="255.50" x2="244.95" y2="294.48"/><line x1="178.47" y1="254.56" x2="180.06" y2="254.23"/><line x1="271.09" y1="286.92" x2="276.17" y2="286.71"/><line x1="280.82" y1="325.13" x2="295.42" y2="345.85"/><line x1="246.04" y1="291.99" x2="209.00" y2="250.75"/><line x1="280.82" y1="325.13" x2="285.66" y2="357.64"/><line x1="180.06" y1="254.23" x2="181.76" y2="254.16"/><line x1="272.17" y1="256.11" x2="279.07" y2="256.23"/><line x1="177.19" y1="325.51" x2="161.33" y2="343.93"/><line x1="252.42" y1="80.95" x2="251.37" y2="79.38"/><line x1="183.38" y1="325.41" x2="168.51" y2="356.44"/><line x1="229.97" y1="355.25" x2="237.97" y2="355.30"/><line x1="189.49" y1="288.14" x2="170.58" y2="265.11"/><line x1="244.86" y1="136.30" x2="226.55" y2="70.61"/><line x1="165.87" y1="327.84" x2="170.76" y2="325.27"/><line x1="245.12" y1="319.60" x2="209.12" y2="306.53"/><line x1="244.86" y1="136.30" x2="211.53" y2="79.12"/><line x1="161.59" y1="335.67" x2="161.27" y2="337.61"/><line x1="289.64" y1="325.91" x2="291.03" y2="326.91"/><line x1="170.58" y1="265.11" x2="170.19" y2="267.01"/><line x1="193.52" y1="255.50" x2="244.48" y2="309.03"/><line x1="304.94" y1="254.08" x2="318.92" y2="287.75"/><line x1="251.11" y1="324.85" x2="245.79" y2="355.46"/><line x1="161.27" y1="337.61" x2="161.12" y2="339.68"/><line x1="304.94" y1="254.08" x2="350.70" y2="276.12"/><line x1="171.67" y1="261.61" x2="204.09" y2="288.25"/><line x1="247.11" y1="251.78" x2="247.09" y2="290.85"/><line x1="244.48" y1="309.03" x2="195.99" y2="255.67"/><line x1="291.86" y1="286.43" x2="296.98" y2="255.99"/><line x1="197.65" y1="323.88" x2="200.97" y2="322.97"/><line x1="241.36" y1="72.30" x2="239.34" y2="71.64"/><line x1="280.82" y1="325.13" x2="295.81" y2="335.92"/><line x1="297.84" y1="286.57" x2="299.44" y2="255.77"/><line x1="169.97" y1="275.15" x2="170.25" y2="277.03"/><line x1="280.82" y1="325.13" x2="292.30" y2="352.57"/><line x1="246.04" y1="291.99" x2="247.11" y2="251.78"/><line x1="280.82" y1="325.13" x2="268.24" y2="356.61"/><line x1="253.95" y1="288.15" x2="257.11" y2="255.29"/><line x1="177.19" y1="325.51" x2="162.08" y2="333.88"/><line x1="183.38" y1="325.41" x2="162.83" y2="349.43"/><line x1="295.81" y1="335.92" x2="296.04" y2="337.89"/><line x1="183.38" y1="325.41" x2="175.01" y2="358.12"/><line x1="170.25" y1="277.03" x2="170.63" y2="278.82"/><line x1="244.86" y1="136.30" x2="252.42" y2="80.95"/><line x1="189.49" y1="288.14" x2="169.81" y2="273.19"/><line x1="244.86" y1="136.30" x2="237.29" y2="71.12"/><line x1="343.68" y1="284.98" x2="346.49" y2="282.60"/><line x1="244.86" y1="136.30" x2="218.68" y2="72.73"/><line x1="162.83" y1="349.43" x2="163.64" y2="351.08"/><line x1="245.12" y1="319.60" x2="208.76" y2="292.09"/><line x1="244.86" y1="136.30" x2="209.66" y2="86.84"/><line x1="244.55" y1="297.90" x2="201.60" y2="255.50"/><line x1="203.57" y1="321.85" x2="205.46" y2="320.53"/><line x1="226.55" y1="70.61" x2="224.42" y2="70.93"/><line x1="251.11" y1="324.85" x2="253.86" y2="325.35"/><line x1="209.12" y1="306.53" x2="209.29" y2="301.95"/><line x1="314.07" y1="287.36" x2="304.94" y2="254.08"/><line x1="271.09" y1="286.92" x2="272.17" y2="256.11"/><line x1="280.82" y1="325.13" x2="292.29" y2="328.18"/><line x1="294.17" y1="349.37" x2="293.31" y2="351.01"/><line x1="280.82" y1="325.13" x2="295.81" y2="343.98"/><line x1="174.31" y1="286.50" x2="175.35" y2="287.47"/><line x1="246.04" y1="291.99" x2="208.17" y2="252.20"/><line x1="280.82" y1="325.13" x2="287.17" y2="357.13"/><line x1="351.40" y1="263.88" x2="351.08" y2="260.18"/><line x1="177.19" y1="325.51" x2="161.15" y2="341.90"/><line x1="253.96" y1="254.87" x2="253.95" y2="288.15"/><line x1="183.38" y1="325.41" x2="167.08" y2="355.40"/><line x1="206.76" y1="289.32" x2="205.56" y2="288.70"/><line x1="198.15" y1="255.72" x2="200.03" y2="255.67"/><line x1="244.86" y1="136.30" x2="247.11" y2="75.29"/><line x1="290.71" y1="256.23" x2="294.07" y2="256.14"/><line x1="244.86" y1="136.30" x2="228.79" y2="70.43"/><line x1="165.87" y1="327.84" x2="167.33" y2="326.67"/><line x1="245.12" y1="319.60" x2="208.76" y2="310.52"/><line x1="193.61" y1="324.60" x2="197.65" y2="323.88"/><line x1="244.86" y1="136.30" x2="212.58" y2="77.50"/><line x1="213.88" y1="76.01" x2="212.58" y2="77.50"/><line x1="245.12" y1="319.60" x2="171.67" y2="261.61"/><line x1="261.20" y1="255.64" x2="266.21" y2="255.91"/><line x1="200.03" y1="255.67" x2="244.55" y2="297.90"/><line x1="251.11" y1="324.85" x2="237.97" y2="355.30"/><line x1="260.94" y1="356.11" x2="268.24" y2="356.61"/><line x1="280.82" y1="325.13" x2="282.83" y2="324.72"/><line x1="280.82" y1="325.13" x2="295.42" y2="334.09"/><line x1="280.82" y1="325.13" x2="293.31" y2="351.01"/><line x1="303.52" y1="286.77" x2="308.94" y2="287.03"/><line x1="177.19" y1="325.51" x2="162.74" y2="332.22"/><line x1="284.72" y1="324.60" x2="286.48" y2="324.75"/><line x1="177.19" y1="325.51" x2="183.38" y2="325.41"/><line x1="208.76" y1="310.52" x2="209.12" y2="306.53"/><line x1="302.99" y1="255.14" x2="304.09" y2="254.74"/><line x1="244.86" y1="136.30" x2="239.34" y2="71.64"/><line x1="480.00" y1="64.50" x2="447.51" y2="32.02"/><line x1="244.86" y1="136.30" x2="220.49" y2="71.99"/><line x1="253.86" y1="325.35" x2="257.11" y2="325.51"/><line x1="245.12" y1="319.60" x2="208.89" y2="293.32"/><line x1="249.92" y1="253.78" x2="251.74" y2="254.36"/><line x1="170.01" y1="357.24" x2="171.60" y2="357.78"/><line x1="251.11" y1="324.85" x2="248.86" y2="324.03"/><line x1="280.82" y1="325.13" x2="291.03" y2="326.91"/><line x1="207.69" y1="290.08" x2="206.76" y2="289.32"/><line x1="244.41" y1="305.71" x2="244.39" y2="302.74"/><line x1="280.82" y1="325.13" x2="296.04" y2="342.03"/><line x1="246.04" y1="291.99" x2="207.03" y2="253.40"/><line x1="177.19" y1="325.51" x2="161.12" y2="339.68"/><line x1="256.33" y1="287.96" x2="261.17" y2="287.55"/><line x1="244.86" y1="136.30" x2="248.72" y2="76.54"/><line x1="290.71" y1="256.23" x2="291.86" y2="286.43"/><line x1="244.86" y1="136.30" x2="230.97" y2="70.39"/><line x1="193.61" y1="324.60" x2="251.11" y2="324.85"/><line x1="285.66" y1="357.64" x2="284.06" y2="357.90"/><line x1="261.20" y1="255.64" x2="266.09" y2="287.20"/><line x1="305.69" y1="249.28" x2="305.21" y2="247.53"/><line x1="266.21" y1="255.91" x2="271.09" y2="286.92"/><line x1="294.87" y1="347.65" x2="294.17" y2="349.37"/><line x1="173.34" y1="285.26" x2="174.31" y2="286.50"/><line x1="174.88" y1="325.12" x2="177.19" y2="325.51"/><line x1="186.25" y1="288.33" x2="171.72" y2="282.19"/><line x1="280.82" y1="325.13" x2="284.72" y2="324.60"/><line x1="351.45" y1="267.78" x2="351.40" y2="263.88"/><line x1="244.95" y1="294.48" x2="245.25" y2="293.32"/><line x1="279.07" y1="256.23" x2="286.89" y2="256.27"/><line x1="303.52" y1="286.77" x2="302.99" y2="255.14"/><line x1="205.55" y1="254.35" x2="246.04" y2="291.99"/><line x1="183.56" y1="254.36" x2="184.33" y2="254.36"/><line x1="215.40" y1="74.63" x2="213.88" y2="76.01"/><line x1="250.14" y1="77.91" x2="248.72" y2="76.54"/><line x1="286.89" y1="256.27" x2="290.71" y2="256.23"/><line x1="209.00" y1="250.75" x2="209.49" y2="249.06"/><line x1="249.92" y1="253.78" x2="249.99" y2="289.13"/><line x1="287.17" y1="357.13" x2="285.66" y2="357.64"/><line x1="172.39" y1="260.03" x2="173.21" y2="258.56"/><line x1="180.11" y1="288.72" x2="178.83" y2="288.80"/><line x1="292.29" y1="328.18" x2="293.30" y2="329.45"/><line x1="169.92" y1="269.03" x2="169.76" y2="271.15"/><line x1="305.90" y1="250.80" x2="305.69" y2="249.28"/><line x1="323.49" y1="288.20" x2="327.78" y2="288.72"/><line x1="206.56" y1="318.92" x2="207.48" y2="316.71"/><line x1="209.66" y1="247.11" x2="244.86" y2="244.42"/><line x1="244.41" y1="305.71" x2="198.15" y2="255.72"/><line x1="199.33" y1="287.83" x2="197.34" y2="287.84"/><line x1="32.16" y1="32.09" x2="32.16" y2="64.58"/><line x1="237.29" y1="71.12" x2="235.21" y2="70.73"/><line x1="301.44" y1="255.49" x2="303.52" y2="286.77"/><line x1="257.11" y1="325.51" x2="280.82" y2="325.13"/><line x1="247.09" y1="290.85" x2="248.41" y2="289.90"/><line x1="256.33" y1="287.96" x2="261.20" y2="255.64"/><line x1="181.76" y1="254.16" x2="183.56" y2="254.36"/><line x1="244.86" y1="317.46" x2="176.99" y2="255.17"/><line x1="296.11" y1="340.00" x2="296.04" y2="342.03"/><line x1="244.86" y1="317.46" x2="244.48" y2="309.03"/><line x1="251.37" y1="79.38" x2="250.14" y2="77.91"/><line x1="248.41" y1="289.90" x2="249.92" y2="253.78"/><line x1="171.67" y1="261.61" x2="244.86" y2="317.46"/><line x1="291.03" y1="326.91" x2="292.29" y2="328.18"/><line x1="276.17" y1="286.71" x2="281.32" y2="286.55"/><line x1="247.11" y1="322.88" x2="245.87" y2="321.40"/><line x1="186.25" y1="288.33" x2="171.12" y2="280.55"/><line x1="176.45" y1="288.18" x2="177.61" y2="288.63"/><line x1="245.87" y1="321.40" x2="245.12" y2="319.60"/><line x1="161.12" y1="339.68" x2="161.15" y2="341.90"/><line x1="244.86" y1="317.46" x2="183.56" y2="254.36"/><line x1="180.11" y1="288.72" x2="176.45" y2="288.18"/><line x1="172.73" y1="325.04" x2="174.88" y2="325.12"/><line x1="305.52" y1="253.21" x2="350.47" y2="256.66"/><line x1="304.47" y1="245.57" x2="244.86" y2="136.30"/><line x1="32.00" y1="479.98" x2="64.49" y2="479.98"/><line x1="192.42" y1="287.99" x2="189.49" y2="288.14"/><line x1="308.94" y1="287.03" x2="314.07" y2="287.36"/><line x1="257.11" y1="325.51" x2="260.94" y2="356.11"/><line x1="244.86" y1="317.46" x2="175.62" y2="256.03"/><line x1="244.86" y1="317.46" x2="193.52" y2="255.50"/><line x1="348.40" y1="250.18" x2="304.47" y2="245.57"/><line x1="170.19" y1="267.01" x2="169.92" y2="269.03"/><line x1="260.94" y1="356.11" x2="280.82" y2="325.13"/><line x1="222.39" y1="71.39" x2="220.49" y2="71.99"/><line x1="318.92" y1="287.75" x2="323.49" y2="288.20"/><line x1="195.99" y1="255.67" x2="244.41" y2="305.71"/><line x1="186.25" y1="288.33" x2="170.63" y2="278.82"/><line x1="292.30" y1="352.57" x2="291.16" y2="354.08"/><line x1="239.34" y1="71.64" x2="237.29" y2="71.12"/><line x1="245.87" y1="321.40" x2="206.56" y2="318.92"/><line x1="350.47" y1="256.66" x2="349.58" y2="253.32"/><line x1="257.11" y1="255.29" x2="256.33" y2="287.96"/><line x1="296.04" y1="337.89" x2="296.11" y2="340.00"/><line x1="170.63" y1="278.82" x2="171.12" y2="280.55"/><line x1="211.53" y1="79.12" x2="210.71" y2="80.86"/><line x1="244.86" y1="317.46" x2="181.76" y2="254.16"/><line x1="346.49" y1="282.60" x2="348.83" y2="279.65"/><line x1="304.94" y1="254.08" x2="336.67" y2="288.00"/><line x1="163.64" y1="351.08" x2="164.61" y2="352.63"/><line x1="171.67" y1="261.61" x2="197.34" y2="287.84"/><line x1="294.07" y1="256.14" x2="296.98" y2="255.99"/><line x1="248.86" y1="324.03" x2="247.11" y2="322.88"/><line x1="201.60" y1="255.50" x2="244.72" y2="296.01"/><line x1="180.11" y1="288.72" x2="175.35" y2="287.47"/><line x1="224.42" y1="70.93" x2="222.39" y2="71.39"/><line x1="209.29" y1="301.95" x2="209.27" y2="296.77"/><line x1="305.52" y1="253.21" x2="351.08" y2="260.18"/><line x1="304.47" y1="245.57" x2="253.27" y2="82.65"/><line x1="272.17" y1="256.11" x2="276.17" y2="286.71"/><line x1="32.00" y1="479.98" x2="32.00" y2="447.50"/><line x1="293.31" y1="351.01" x2="292.30" y2="352.57"/><line x1="175.35" y1="287.47" x2="176.45" y2="288.18"/><line x1="351.08" y1="260.18" x2="350.47" y2="256.66"/><line x1="173.26" y1="358.08" x2="175.01" y2="358.12"/><line x1="286.55" y1="286.46" x2="291.86" y2="286.43"/><line x1="308.94" y1="287.03" x2="304.09" y2="254.74"/><line x1="207.03" y1="253.40" x2="208.17" y2="252.20"/><line x1="244.86" y1="317.46" x2="174.36" y2="257.16"/><line x1="168.96" y1="325.82" x2="170.76" y2="325.27"/><line x1="212.58" y1="77.50" x2="211.53" y2="79.12"/><line x1="251.74" y1="254.36" x2="253.96" y2="254.87"/><line x1="171.67" y1="261.61" x2="205.56" y2="288.70"/><line x1="164.58" y1="329.33" x2="163.58" y2="330.70"/><line x1="304.94" y1="254.08" x2="348.83" y2="279.65"/><line x1="348.40" y1="250.18" x2="305.21" y2="247.53"/><line x1="291.86" y1="286.43" x2="294.07" y2="256.14"/><line x1="169.81" y1="273.19" x2="169.97" y2="275.15"/><line x1="245.43" y1="248.67" x2="245.01" y2="246.68"/><line x1="284.06" y1="357.90" x2="282.35" y2="357.92"/><line x1="200.97" y1="322.97" x2="203.57" y2="321.85"/><line x1="280.82" y1="325.13" x2="275.39" y2="357.21"/><line x1="305.21" y1="247.53" x2="304.47" y2="245.57"/><line x1="282.35" y1="357.92" x2="275.39" y2="357.21"/><line x1="183.38" y1="325.41" x2="173.26" y2="358.08"/><line x1="253.45" y1="355.74" x2="257.11" y2="325.51"/><line x1="189.49" y1="288.14" x2="169.76" y2="271.15"/><line x1="244.86" y1="136.30" x2="209.77" y2="84.72"/><line x1="172.43" y1="283.75" x2="173.34" y2="285.26"/><line x1="203.57" y1="321.85" x2="247.11" y2="322.88"/><line x1="304.94" y1="254.08" x2="332.46" y2="288.65"/><line x1="171.67" y1="261.61" x2="199.33" y2="287.83"/><line x1="249.99" y1="289.13" x2="251.84" y2="288.55"/><line x1="203.74" y1="255.05" x2="205.55" y2="254.35"/><line x1="171.60" y1="357.78" x2="173.26" y2="358.08"/><line x1="280.82" y1="325.13" x2="288.59" y2="356.36"/><line x1="246.04" y1="291.99" x2="247.09" y2="290.85"/><line x1="183.38" y1="325.41" x2="165.74" y2="354.10"/><line x1="206.76" y1="289.32" x2="171.67" y2="261.61"/><line x1="198.15" y1="255.72" x2="244.44" y2="300.14"/><line x1="183.38" y1="325.41" x2="188.86" y2="325.11"/><line x1="229.97" y1="355.25" x2="251.11" y2="324.85"/><line x1="165.87" y1="327.84" x2="168.96" y2="325.82"/><line x1="246.13" y1="250.37" x2="247.11" y2="251.78"/><line x1="245.12" y1="319.60" x2="208.22" y2="313.91"/><line x1="244.86" y1="136.30" x2="213.88" y2="76.01"/><line x1="245.12" y1="319.60" x2="206.76" y2="289.32"/><line x1="173.21" y1="258.56" x2="174.36" y2="257.16"/><line x1="168.96" y1="325.82" x2="167.33" y2="326.67"/><line x1="251.11" y1="324.85" x2="197.65" y2="323.88"/><line x1="304.94" y1="254.08" x2="346.49" y2="282.60"/><line x1="164.58" y1="329.33" x2="177.19" y2="325.51"/><line x1="174.36" y1="257.16" x2="175.62" y2="256.03"/><line x1="171.67" y1="261.61" x2="171.07" y2="263.30"/><line x1="197.34" y1="287.84" x2="195.04" y2="287.89"/><line x1="280.82" y1="325.13" x2="294.87" y2="332.40"/><line x1="280.82" y1="325.13" x2="294.17" y2="349.37"/><line x1="245.01" y1="246.68" x2="209.66" y2="247.11"/><line x1="351.21" y1="271.86" x2="351.45" y2="267.78"/><line x1="280.82" y1="325.13" x2="282.35" y2="357.92"/><line x1="177.19" y1="325.51" x2="163.58" y2="330.70"/><line x1="284.72" y1="324.60" x2="282.83" y2="324.72"/><line x1="177.19" y1="325.51" x2="162.17" y2="347.69"/><line x1="195.04" y1="287.89" x2="192.42" y2="287.99"/><line x1="183.38" y1="325.41" x2="171.60" y2="357.78"/><line x1="189.49" y1="288.14" x2="169.92" y2="269.03"/><line x1="302.99" y1="255.14" x2="308.94" y2="287.03"/><line x1="244.86" y1="136.30" x2="241.36" y2="72.30"/><line x1="163.58" y1="330.70" x2="162.74" y2="332.22"/><line x1="244.86" y1="136.30" x2="222.39" y2="71.39"/><line x1="245.12" y1="319.60" x2="209.27" y2="296.77"/><line x1="244.86" y1="136.30" x2="210.12" y2="82.73"/><line x1="184.33" y1="254.36" x2="187.69" y2="254.84"/><line x1="209.66" y1="247.11" x2="209.66" y2="86.84"/><line x1="248.72" y1="76.54" x2="247.11" y2="75.29"/><line x1="304.94" y1="254.08" x2="327.78" y2="288.72"/><line x1="251.11" y1="324.85" x2="253.45" y2="355.74"/><line x1="205.46" y1="320.53" x2="206.56" y2="318.92"/><line x1="249.99" y1="289.13" x2="251.74" y2="254.36"/><line x1="305.84" y1="252.12" x2="305.90" y2="250.80"/><line x1="161.15" y1="341.90" x2="161.33" y2="343.93"/><line x1="293.30" y1="329.45" x2="294.17" y2="330.86"/><line x1="280.82" y1="325.13" x2="289.64" y2="325.91"/><line x1="169.76" y1="271.15" x2="169.81" y2="273.19"/><line x1="280.82" y1="325.13" x2="296.11" y2="340.00"/><line x1="297.84" y1="286.57" x2="303.52" y2="286.77"/><line x1="280.82" y1="325.13" x2="289.92" y2="355.35"/><line x1="327.78" y1="288.72" x2="332.46" y2="288.65"/><line x1="161.33" y1="343.93" x2="161.67" y2="345.85"/><line x1="177.19" y1="325.51" x2="161.27" y2="337.61"/><line x1="294.17" y1="330.86" x2="294.87" y2="332.40"/><line x1="183.38" y1="325.41" x2="164.61" y2="352.63"/><line x1="198.15" y1="255.72" x2="244.39" y2="302.74"/><line x1="183.38" y1="325.41" x2="229.97" y2="355.25"/><line x1="244.86" y1="136.30" x2="250.14" y2="77.91"/><line x1="244.86" y1="136.30" x2="233.11" y2="70.50"/><line x1="235.21" y1="70.73" x2="233.11" y2="70.50"/><line x1="245.12" y1="319.60" x2="207.48" y2="316.71"/><line x1="244.86" y1="136.30" x2="215.40" y2="74.63"/><line x1="245.12" y1="319.60" x2="207.69" y2="290.08"/><line x1="248.38" y1="252.92" x2="249.92" y2="253.78"/><line x1="261.20" y1="255.64" x2="261.17" y2="287.55"/><line x1="64.64" y1="32.09" x2="32.16" y2="64.58"/><line x1="233.11" y1="70.50" x2="230.97" y2="70.39"/><line x1="296.04" y1="342.03" x2="295.81" y2="343.98"/><line x1="171.72" y1="282.19" x2="172.43" y2="283.75"/><line x1="350.70" y1="276.12" x2="351.21" y2="271.86"/><line x1="295.81" y1="343.98" x2="295.42" y2="345.85"/><line x1="280.82" y1="325.13" x2="294.17" y2="330.86"/><line x1="244.95" y1="294.48" x2="203.74" y2="255.05"/><line x1="279.07" y1="256.23" x2="286.55" y2="286.46"/><line x1="280.82" y1="325.13" x2="294.87" y2="347.65"/><line x1="351.21" y1="271.86" x2="305.52" y2="253.21"/><line x1="246.04" y1="291.99" x2="246.13" y2="250.37"/><line x1="280.82" y1="325.13" x2="284.06" y2="357.90"/><line x1="220.49" y1="71.99" x2="218.68" y2="72.73"/><line x1="177.19" y1="325.51" x2="161.67" y2="345.85"/><line x1="183.38" y1="325.41" x2="170.01" y2="357.24"/><line x1="189.49" y1="288.14" x2="170.19" y2="267.01"/><line x1="349.58" y1="253.32" x2="348.40" y2="250.18"/><line x1="244.86" y1="136.30" x2="243.34" y2="73.11"/><line x1="218.68" y1="72.73" x2="216.99" y2="73.61"/><line x1="209.66" y1="247.11" x2="244.86" y2="136.30"/><line x1="244.86" y1="136.30" x2="224.42" y2="70.93"/><line x1="165.87" y1="327.84" x2="164.58" y2="329.33"/><line x1="245.12" y1="319.60" x2="209.29" y2="301.95"/><line x1="244.86" y1="136.30" x2="210.71" y2="80.86"/><line x1="209.00" y1="250.75" x2="245.43" y2="248.67"/><line x1="193.52" y1="255.50" x2="195.99" y2="255.67"/><line x1="289.92" y1="355.35" x2="288.59" y2="356.36"/><line x1="251.11" y1="324.85" x2="200.97" y2="322.97"/><line x1="205.46" y1="320.53" x2="245.87" y2="321.40"/><line x1="296.98" y1="255.99" x2="299.44" y2="255.77"/><line x1="170.76" y1="325.27" x2="172.73" y2="325.04"/><line x1="247.11" y1="251.78" x2="248.38" y2="252.92"/><line x1="305.84" y1="252.12" x2="348.40" y2="250.18"/><line x1="206.56" y1="318.92" x2="245.12" y2="319.60"/><line x1="280.82" y1="325.13" x2="288.12" y2="325.19"/><line x1="280.82" y1="325.13" x2="296.04" y2="337.89"/><line x1="297.84" y1="286.57" x2="301.44" y2="255.49"/><line x1="253.27" y1="82.65" x2="252.42" y2="80.95"/><line x1="280.82" y1="325.13" x2="291.16" y2="354.08"/><line x1="32.16" y1="32.09" x2="64.64" y2="32.09"/><line x1="245.79" y1="355.46" x2="253.45" y2="355.74"/><line x1="177.19" y1="325.51" x2="161.59" y2="335.67"/><line x1="171.12" y1="280.55" x2="171.72" y2="282.19"/><line x1="183.38" y1="325.41" x2="163.64" y2="351.08"/><line x1="244.86" y1="136.30" x2="251.37" y2="79.38"/><line x1="348.83" y1="279.65" x2="350.70" y2="276.12"/><line x1="164.61" y1="352.63" x2="165.74" y2="354.10"/><line x1="244.86" y1="136.30" x2="235.21" y2="70.73"/><line x1="171.07" y1="263.30" x2="170.58" y2="265.11"/><line x1="244.86" y1="136.30" x2="216.99" y2="73.61"/><line x1="248.38" y1="252.92" x2="248.41" y2="289.90"/><line x1="244.72" y1="296.01" x2="244.95" y2="294.48"/><line x1="304.09" y1="254.74" x2="304.94" y2="254.08"/><line x1="165.74" y1="354.10" x2="167.08" y2="355.40"/><line x1="209.27" y1="296.77" x2="208.89" y2="293.32"/><line x1="314.07" y1="287.36" x2="318.92" y2="287.75"/><line x1="276.17" y1="286.71" x2="279.07" y2="256.23"/><line x1="32.00" y1="447.50" x2="64.49" y2="479.98"/></g></svg>