<svg xmlns="http://www.w3.org/2000/svg" width="512" height="512"><rect width="512" height="512" fill="#0a0f1a"/><text x="12" y="20" font-family="monospace" font-size="11" fill="#4a7fa5">FRONT (XZ)</text><g stroke="#00d4ff" stroke-width="0.6" opacity="0.85"><line x1="265.89" y1="274.67" x2="249.92" y2="277.16"/><line x1="269.06" y1="362.26" x2="271.87" y2="360.93"/><line x1="240.37" y1="74.92" x2="238.09" y2="76.72"/><line x1="230.38" y1="104.28" x2="282.26" y2="98.87"/><line x1="259.87" y1="364.49" x2="259.87" y2="312.74"/><line x1="271.87" y1="316.12" x2="281.43" y2="352.87"/><line x1="230.20" y1="350.37" x2="231.88" y2="352.87"/><line x1="274.57" y1="317.66" x2="283.04" y2="326.75"/><line x1="230.39" y1="98.87" x2="280.92" y2="89.46"/><line x1="267.32" y1="272.95" x2="268.60" y2="270.93"/><line x1="239.15" y1="249.16" x2="281.99" y2="110.16"/><line x1="230.39" y1="98.87" x2="259.66" y2="70.99"/><line x1="234.21" y1="81.91" x2="236.09" y2="78.84"/><line x1="269.73" y1="268.71" x2="270.73" y2="266.19"/><line x1="259.87" y1="312.74" x2="263.05" y2="364.04"/><line x1="233.93" y1="355.20" x2="231.88" y2="324.17"/><line x1="245.03" y1="272.95" x2="243.74" y2="270.93"/><line x1="281.99" y1="110.16" x2="230.74" y2="110.16"/><line x1="253.35" y1="364.49" x2="256.56" y2="312.60"/><line x1="265.89" y1="274.67" x2="246.49" y2="274.67"/><line x1="254.04" y1="278.41" x2="251.90" y2="277.94"/><line x1="231.88" y1="352.87" x2="227.40" y2="341.81"/><line x1="236.36" y1="357.36" x2="238.92" y2="359.29"/><line x1="271.87" y1="316.12" x2="284.29" y2="347.69"/><line x1="274.57" y1="317.66" x2="279.46" y2="321.75"/><line x1="230.39" y1="98.87" x2="277.96" y2="81.91"/><line x1="480.00" y1="479.91" x2="447.51" y2="479.91"/><line x1="259.66" y1="70.99" x2="255.98" y2="70.82"/><line x1="227.40" y1="341.81" x2="233.93" y2="355.20"/><line x1="269.06" y1="314.85" x2="271.87" y2="360.93"/><line x1="285.90" y1="338.61" x2="285.72" y2="335.42"/><line x1="250.24" y1="364.04" x2="253.35" y2="364.49"/><line x1="279.46" y1="355.20" x2="281.43" y2="352.87"/><line x1="258.58" y1="278.41" x2="265.89" y2="274.67"/><line x1="281.80" y1="93.93" x2="280.92" y2="89.46"/><line x1="268.60" y1="270.93" x2="242.81" y2="268.80"/><line x1="230.74" y1="110.16" x2="282.33" y2="104.28"/><line x1="239.99" y1="257.02" x2="273.29" y2="253.16"/><line x1="247.25" y1="313.86" x2="247.25" y2="363.30"/><line x1="271.87" y1="360.93" x2="271.87" y2="316.12"/><line x1="271.87" y1="316.12" x2="285.72" y2="341.81"/><line x1="239.52" y1="253.25" x2="273.58" y2="249.16"/><line x1="241.21" y1="263.56" x2="240.56" y2="260.45"/><line x1="280.92" y1="89.46" x2="279.65" y2="85.45"/><line x1="230.39" y1="98.87" x2="273.87" y2="76.72"/><line x1="238.92" y1="359.29" x2="244.36" y2="314.85"/><line x1="230.20" y1="326.75" x2="231.88" y2="324.17"/><line x1="266.12" y1="363.30" x2="266.12" y2="313.86"/><line x1="233.93" y1="355.20" x2="227.21" y2="338.61"/><line x1="238.92" y1="317.66" x2="238.92" y2="359.29"/><line x1="242.81" y1="268.80" x2="241.96" y2="266.34"/><line x1="265.89" y1="274.67" x2="256.36" y2="278.56"/><line x1="227.96" y1="344.84" x2="228.89" y2="347.69"/><line x1="231.88" y1="324.17" x2="236.36" y2="357.36"/><line x1="255.98" y1="70.82" x2="252.29" y2="70.99"/><line x1="271.87" y1="316.12" x2="274.57" y2="359.29"/><line x1="263.05" y1="364.04" x2="266.12" y2="363.30"/><line x1="274.57" y1="317.66" x2="285.72" y2="335.42"/><line x1="264.29" y1="276.07" x2="260.64" y2="277.94"/><line x1="271.87" y1="316.12" x2="274.57" y2="317.66"/><line x1="231.55" y1="89.46" x2="248.89" y2="71.48"/><line x1="246.49" y1="274.67" x2="267.32" y2="272.95"/><line x1="227.40" y1="335.42" x2="227.96" y2="332.37"/><line x1="32.16" y1="32.09" x2="32.16" y2="64.58"/><line x1="230.39" y1="98.87" x2="269.03" y2="73.44"/><line x1="242.93" y1="73.44" x2="240.37" y2="74.92"/><line x1="279.65" y1="85.45" x2="277.96" y2="81.91"/><line x1="266.12" y1="313.86" x2="269.06" y2="362.26"/><line x1="256.56" y1="312.60" x2="259.87" y2="364.49"/><line x1="284.29" y1="347.69" x2="285.18" y2="344.84"/><line x1="233.93" y1="355.20" x2="227.96" y2="332.37"/><line x1="247.25" y1="363.30" x2="250.24" y2="364.04"/><line x1="274.57" y1="359.29" x2="277.14" y2="357.36"/><line x1="260.64" y1="277.94" x2="262.54" y2="277.16"/><line x1="282.26" y1="98.87" x2="230.39" y2="98.87"/><line x1="250.24" y1="313.17" x2="253.35" y2="312.74"/><line x1="266.19" y1="72.29" x2="263.07" y2="71.48"/><line x1="277.14" y1="357.36" x2="279.46" y2="355.20"/><line x1="265.89" y1="274.67" x2="251.90" y2="277.94"/><line x1="240.56" y1="260.45" x2="239.99" y2="257.02"/><line x1="277.96" y1="81.91" x2="275.87" y2="78.84"/><line x1="227.96" y1="344.84" x2="227.40" y2="341.81"/><line x1="244.36" y1="314.85" x2="247.25" y2="313.86"/><line x1="236.36" y1="357.36" x2="233.93" y2="321.75"/><line x1="269.06" y1="362.26" x2="269.06" y2="314.85"/><line x1="271.87" y1="316.12" x2="279.46" y2="355.20"/><line x1="275.87" y1="78.84" x2="273.87" y2="76.72"/><line x1="264.29" y1="276.07" x2="258.58" y2="278.41"/><line x1="241.96" y1="266.34" x2="241.21" y2="263.56"/><line x1="230.39" y1="98.87" x2="281.80" y2="93.93"/><line x1="273.58" y1="249.16" x2="281.99" y2="110.16"/><line x1="267.32" y1="272.95" x2="245.03" y2="272.95"/><line x1="227.96" y1="332.37" x2="228.89" y2="329.48"/><line x1="230.39" y1="98.87" x2="263.07" y2="71.48"/><line x1="234.21" y1="81.91" x2="238.09" y2="76.72"/><line x1="233.93" y1="321.75" x2="236.36" y2="319.49"/><line x1="233.93" y1="355.20" x2="230.20" y2="326.75"/><line x1="285.18" y1="344.84" x2="285.72" y2="341.81"/><line x1="251.90" y1="277.94" x2="249.92" y2="277.16"/><line x1="248.89" y1="71.48" x2="245.77" y2="72.29"/><line x1="245.03" y1="272.95" x2="268.60" y2="270.93"/><line x1="228.89" y1="329.48" x2="230.20" y2="326.75"/><line x1="265.89" y1="274.67" x2="248.12" y2="276.07"/><line x1="263.07" y1="71.48" x2="259.66" y2="70.99"/><line x1="236.36" y1="357.36" x2="238.92" y2="317.66"/><line x1="259.87" y1="364.49" x2="263.05" y2="364.04"/><line x1="285.72" y1="341.81" x2="285.90" y2="338.61"/><line x1="480.00" y1="32.02" x2="447.51" y2="32.02"/><line x1="249.92" y1="277.16" x2="248.12" y2="276.07"/><line x1="230.78" y1="93.93" x2="231.55" y2="89.46"/><line x1="271.87" y1="316.12" x2="283.04" y2="350.37"/><line x1="273.87" y1="76.72" x2="271.59" y2="74.92"/><line x1="230.39" y1="98.87" x2="279.65" y2="85.45"/><line x1="239.15" y1="249.16" x2="230.74" y2="110.16"/><line x1="230.39" y1="98.87" x2="230.78" y2="93.93"/><line x1="259.66" y1="70.99" x2="230.78" y2="93.93"/><line x1="253.35" y1="312.74" x2="256.56" y2="312.60"/><line x1="241.59" y1="360.93" x2="247.25" y2="313.86"/><line x1="281.43" y1="352.87" x2="283.04" y2="350.37"/><line x1="233.93" y1="355.20" x2="236.36" y2="357.36"/><line x1="271.59" y1="74.92" x2="269.03" y2="73.44"/><line x1="270.73" y1="266.19" x2="241.21" y2="263.56"/><line x1="232.69" y1="85.45" x2="242.93" y2="73.44"/><line x1="268.60" y1="270.93" x2="243.74" y2="270.93"/><line x1="265.89" y1="274.67" x2="267.32" y2="272.95"/><line x1="231.88" y1="352.87" x2="233.93" y2="355.20"/><line x1="247.25" y1="313.86" x2="244.36" y2="362.26"/><line x1="253.35" y1="364.49" x2="256.56" y2="364.63"/><line x1="271.57" y1="263.38" x2="272.28" y2="260.27"/><line x1="243.74" y1="270.93" x2="242.81" y2="268.80"/><line x1="271.87" y1="316.12" x2="285.18" y2="344.84"/><line x1="248.12" y1="276.07" x2="246.49" y2="274.67"/><line x1="241.21" y1="263.56" x2="271.57" y2="263.38"/><line x1="230.39" y1="98.87" x2="275.87" y2="78.84"/><line x1="238.92" y1="359.29" x2="241.59" y2="316.12"/><line x1="283.04" y1="350.37" x2="284.29" y2="347.69"/><line x1="269.06" y1="314.85" x2="271.87" y2="316.12"/><line x1="281.43" y1="324.17" x2="279.46" y2="321.75"/><line x1="256.36" y1="278.56" x2="254.04" y2="278.41"/><line x1="242.81" y1="268.80" x2="269.73" y2="268.71"/><line x1="273.29" y1="253.16" x2="273.58" y2="249.16"/><line x1="269.03" y1="73.44" x2="266.19" y2="72.29"/><line x1="263.05" y1="313.17" x2="266.12" y2="313.86"/><line x1="245.77" y1="72.29" x2="242.93" y2="73.44"/><line x1="285.72" y1="335.42" x2="285.18" y2="332.37"/><line x1="268.60" y1="270.93" x2="269.73" y2="268.71"/><line x1="32.00" y1="479.98" x2="64.49" y2="479.98"/><line x1="282.33" y1="104.28" x2="282.26" y2="98.87"/><line x1="231.55" y1="89.46" x2="252.29" y2="70.99"/><line x1="271.87" y1="316.12" x2="285.90" y2="338.61"/><line x1="239.52" y1="253.25" x2="239.15" y2="249.16"/><line x1="238.92" y1="359.29" x2="241.59" y2="360.93"/><line x1="230.20" y1="350.37" x2="228.89" y2="347.69"/><line x1="241.59" y1="316.12" x2="244.36" y2="314.85"/><line x1="266.12" y1="363.30" x2="269.06" y2="362.26"/><line x1="274.57" y1="317.66" x2="284.29" y2="329.48"/><line x1="256.56" y1="312.60" x2="256.56" y2="364.63"/><line x1="233.93" y1="355.20" x2="227.40" y2="335.42"/><line x1="64.64" y1="32.09" x2="32.16" y2="64.58"/><line x1="272.28" y1="260.27" x2="272.86" y2="256.86"/><line x1="269.73" y1="268.71" x2="241.96" y2="266.34"/><line x1="250.24" y1="313.17" x2="250.24" y2="364.04"/><line x1="227.96" y1="344.84" x2="231.88" y2="352.87"/><line x1="244.36" y1="314.85" x2="241.59" y2="360.93"/><line x1="285.18" y1="332.37" x2="284.29" y2="329.48"/><line x1="271.87" y1="316.12" x2="277.14" y2="357.36"/><line x1="264.29" y1="276.07" x2="262.54" y2="277.16"/><line x1="241.96" y1="266.34" x2="270.73" y2="266.19"/><line x1="231.55" y1="89.46" x2="232.69" y2="85.45"/><line x1="230.38" y1="104.28" x2="230.39" y2="98.87"/><line x1="252.29" y1="70.99" x2="248.89" y2="71.48"/><line x1="236.36" y1="319.49" x2="238.92" y2="317.66"/><line x1="266.12" y1="313.86" x2="269.06" y2="314.85"/><line x1="284.29" y1="329.48" x2="283.04" y2="326.75"/><line x1="256.56" y1="312.60" x2="259.87" y2="312.74"/><line x1="274.57" y1="317.66" x2="281.43" y2="324.17"/><line x1="283.04" y1="326.75" x2="281.43" y2="324.17"/><line x1="282.26" y1="98.87" x2="281.80" y2="93.93"/><line x1="248.89" y1="71.48" x2="232.69" y2="85.45"/><line x1="259.87" y1="312.74" x2="263.05" y2="313.17"/><line x1="285.90" y1="338.61" x2="274.57" y2="317.66"/><line x1="250.24" y1="364.04" x2="253.35" y2="312.74"/><line x1="236.36" y1="357.36" x2="236.36" y2="319.49"/><line x1="281.99" y1="110.16" x2="282.33" y2="104.28"/><line x1="480.00" y1="32.02" x2="480.00" y2="64.50"/><line x1="230.78" y1="93.93" x2="255.98" y2="70.82"/><line x1="239.99" y1="257.02" x2="272.86" y2="256.86"/><line x1="264.29" y1="276.07" x2="265.89" y2="274.67"/><line x1="253.35" y1="312.74" x2="253.35" y2="364.49"/><line x1="274.57" y1="317.66" x2="277.14" y2="319.49"/><line x1="480.00" y1="479.91" x2="480.00" y2="447.42"/><line x1="227.40" y1="341.81" x2="227.21" y2="338.61"/><line x1="272.86" y1="256.86" x2="273.29" y2="253.16"/><line x1="244.36" y1="362.26" x2="247.25" y2="363.30"/><line x1="238.09" y1="76.72" x2="236.09" y2="78.84"/><line x1="232.69" y1="85.45" x2="245.77" y2="72.29"/><line x1="258.58" y1="278.41" x2="256.36" y2="278.56"/><line x1="271.57" y1="263.38" x2="240.56" y2="260.45"/><line x1="230.74" y1="110.16" x2="230.38" y2="104.28"/><line x1="480.00" y1="64.50" x2="447.51" y2="32.02"/><line x1="239.99" y1="257.02" x2="239.52" y2="253.25"/><line x1="255.98" y1="70.82" x2="231.55" y2="89.46"/><line x1="247.25" y1="313.86" x2="250.24" y2="313.17"/><line x1="271.87" y1="360.93" x2="274.57" y2="359.29"/><line x1="279.46" y1="321.75" x2="277.14" y2="319.49"/><line x1="263.05" y1="364.04" x2="263.05" y2="313.17"/><line x1="241.59" y1="360.93" x2="244.36" y2="362.26"/><line x1="32.16" y1="32.09" x2="64.64" y2="32.09"/><line x1="230.39" y1="98.87" x2="271.59" y2="74.92"/><line x1="447.51" y1="479.91" x2="480.00" y2="447.42"/><line x1="242.93" y1="73.44" x2="234.21" y2="81.91"/><line x1="273.29" y1="253.16" x2="239.52" y2="253.25"/><line x1="247.25" y1="363.30" x2="250.24" y2="313.17"/><line x1="270.73" y1="266.19" x2="271.57" y2="263.38"/><line x1="238.92" y1="317.66" x2="241.59" y2="316.12"/><line x1="263.05" y1="313.17" x2="266.12" y2="363.30"/><line x1="232.69" y1="85.45" x2="234.21" y2="81.91"/><line x1="32.00" y1="479.98" x2="32.00" y2="447.50"/><line x1="265.89" y1="274.67" x2="254.04" y2="278.41"/><line x1="240.56" y1="260.45" x2="272.28" y2="260.27"/><line x1="231.88" y1="324.17" x2="233.93" y2="321.75"/><line x1="282.33" y1="104.28" x2="230.38" y2="104.28"/><line x1="256.56" y1="364.63" x2="259.87" y2="364.49"/><line x1="230.20" y1="350.37" x2="227.96" y2="344.84"/><line x1="274.57" y1="317.66" x2="285.18" y2="332.37"/><line x1="246.49" y1="274.67" x2="245.03" y2="272.95"/><line x1="273.58" y1="249.16" x2="239.15" y2="249.16"/><line x1="230.39" y1="98.87" x2="266.19" y2="72.29"/><line x1="272.28" y1="260.27" x2="239.99" y2="257.02"/><line x1="234.21" y1="81.91" x2="240.37" y2="74.92"/><line x1="227.21" y1="338.61" x2="227.40" y2="335.42"/><line x1="233.93" y1="355.20" x2="228.89" y2="329.48"/><line x1="260.64" y1="277.94" x2="258.58" y2="278.41"/><line x1="32.00" y1="447.50" x2="64.49" y2="479.98"/></g></svg>