<svg xmlns="http://www.w3.org/2000/svg" width="512" height="512"><rect width="512" height="512" fill="#0a0f1a"/><text x="12" y="20" font-family="monospace" font-size="11" fill="#4a7fa5">FRONT (XZ)</text><g stroke="#00d4ff" stroke-width="0.6" opacity="0.85"><line x1="346.81" y1="312.41" x2="348.73" y2="303.20"/><line x1="218.93" y1="213.13" x2="220.91" y2="216.58"/><line x1="308.02" y1="193.84" x2="313.49" y2="198.49"/><line x1="181.46" y1="233.07" x2="165.69" y2="214.83"/><line x1="222.68" y1="76.87" x2="221.74" y2="78.40"/><line x1="324.83" y1="126.60" x2="324.76" y2="131.35"/><line x1="317.27" y1="169.95" x2="315.77" y2="174.01"/><line x1="167.10" y1="209.64" x2="187.75" y2="233.90"/><line x1="198.02" y1="250.11" x2="200.11" y2="256.39"/><line x1="250.50" y1="296.53" x2="175.14" y2="201.94"/><line x1="307.57" y1="360.31" x2="297.69" y2="327.88"/><line x1="250.50" y1="296.53" x2="209.10" y2="204.39"/><line x1="221.74" y1="78.40" x2="220.96" y2="80.02"/><line x1="301.95" y1="81.49" x2="281.59" y2="107.78"/><line x1="250.50" y1="296.53" x2="229.76" y2="237.17"/><line x1="178.87" y1="357.98" x2="184.04" y2="357.89"/><line x1="279.28" y1="330.69" x2="282.22" y2="331.21"/><line x1="200.11" y1="256.39" x2="202.58" y2="264.13"/><line x1="235.46" y1="253.14" x2="291.58" y2="222.62"/><line x1="308.49" y1="251.98" x2="341.34" y2="235.80"/><line x1="288.83" y1="133.03" x2="322.30" y2="153.18"/><line x1="208.59" y1="284.00" x2="258.10" y2="313.79"/><line x1="281.59" y1="107.78" x2="306.84" y2="85.34"/><line x1="288.83" y1="133.03" x2="308.02" y2="193.84"/><line x1="235.40" y1="341.01" x2="238.14" y2="344.88"/><line x1="350.26" y1="282.86" x2="350.01" y2="274.28"/><line x1="291.58" y1="222.62" x2="256.75" y2="220.35"/><line x1="275.16" y1="71.12" x2="280.83" y2="72.01"/><line x1="219.67" y1="89.17" x2="219.93" y2="90.99"/><line x1="170.17" y1="227.83" x2="177.08" y2="232.20"/><line x1="238.14" y1="344.88" x2="265.76" y2="322.95"/><line x1="305.08" y1="320.66" x2="331.48" y2="342.85"/><line x1="181.46" y1="233.07" x2="167.09" y2="223.55"/><line x1="219.93" y1="90.99" x2="269.34" y2="70.82"/><line x1="268.31" y1="325.19" x2="270.94" y2="327.08"/><line x1="181.46" y1="233.07" x2="183.89" y2="233.18"/><line x1="288.83" y1="133.03" x2="308.49" y2="251.98"/><line x1="197.49" y1="356.50" x2="190.17" y2="323.38"/><line x1="250.50" y1="296.53" x2="167.94" y2="208.10"/><line x1="296.35" y1="227.56" x2="284.84" y2="157.93"/><line x1="331.48" y1="342.85" x2="336.46" y2="336.20"/><line x1="250.50" y1="296.53" x2="183.93" y2="200.32"/><line x1="318.57" y1="203.26" x2="313.49" y2="198.49"/><line x1="318.95" y1="100.97" x2="321.52" y2="106.86"/><line x1="270.94" y1="327.08" x2="251.71" y2="356.60"/><line x1="284.84" y1="157.93" x2="298.60" y2="230.61"/><line x1="192.52" y1="322.39" x2="194.67" y2="321.20"/><line x1="288.83" y1="133.03" x2="324.76" y2="131.35"/><line x1="308.49" y1="251.98" x2="327.57" y2="213.18"/><line x1="288.83" y1="133.03" x2="318.58" y2="166.24"/><line x1="163.55" y1="336.08" x2="176.68" y2="325.22"/><line x1="166.44" y1="221.97" x2="165.97" y2="220.30"/><line x1="251.71" y1="356.60" x2="255.56" y2="358.53"/><line x1="310.74" y1="307.50" x2="346.81" y2="312.41"/><line x1="225.16" y1="100.02" x2="226.64" y2="101.11"/><line x1="178.79" y1="325.12" x2="181.93" y2="325.01"/><line x1="194.67" y1="321.20" x2="215.17" y2="349.37"/><line x1="177.10" y1="201.23" x2="179.22" y2="200.73"/><line x1="346.81" y1="312.41" x2="311.94" y2="302.09"/><line x1="324.83" y1="126.60" x2="288.72" y2="128.63"/><line x1="167.10" y1="209.64" x2="185.89" y2="233.36"/><line x1="215.17" y1="349.37" x2="218.59" y2="346.73"/><line x1="269.02" y1="362.66" x2="279.28" y2="330.69"/><line x1="313.48" y1="282.75" x2="313.34" y2="277.70"/><line x1="250.50" y1="296.53" x2="173.33" y2="202.85"/><line x1="167.10" y1="209.64" x2="167.94" y2="208.10"/><line x1="269.32" y1="103.29" x2="271.76" y2="103.42"/><line x1="227.94" y1="336.41" x2="200.42" y2="315.11"/><line x1="279.28" y1="330.69" x2="274.12" y2="363.46"/><line x1="288.83" y1="133.03" x2="323.07" y2="149.06"/><line x1="480.00" y1="32.02" x2="447.51" y2="32.02"/><line x1="288.83" y1="133.03" x2="312.21" y2="183.15"/><line x1="163.56" y1="346.77" x2="164.11" y2="348.36"/><line x1="288.63" y1="331.16" x2="291.84" y2="330.50"/><line x1="225.16" y1="74.00" x2="223.80" y2="75.41"/><line x1="350.26" y1="282.86" x2="313.34" y2="277.70"/><line x1="178.79" y1="325.12" x2="163.17" y2="345.11"/><line x1="178.79" y1="325.12" x2="172.90" y2="357.00"/><line x1="273.64" y1="328.63" x2="276.42" y2="329.83"/><line x1="199.02" y1="316.97" x2="200.42" y2="315.11"/><line x1="293.12" y1="363.80" x2="300.55" y2="362.50"/><line x1="348.03" y1="258.00" x2="346.29" y2="250.30"/><line x1="233.64" y1="70.73" x2="235.66" y2="70.82"/><line x1="291.71" y1="75.57" x2="296.91" y2="78.23"/><line x1="167.09" y1="223.55" x2="166.44" y2="221.97"/><line x1="167.10" y1="209.64" x2="252.12" y2="301.38"/><line x1="311.26" y1="262.36" x2="310.01" y2="257.19"/><line x1="278.13" y1="105.29" x2="279.94" y2="106.41"/><line x1="223.79" y1="98.71" x2="225.16" y2="100.02"/><line x1="211.59" y1="351.60" x2="194.67" y2="321.20"/><line x1="226.64" y1="72.85" x2="225.16" y2="74.00"/><line x1="314.18" y1="357.26" x2="320.36" y2="353.33"/><line x1="175.14" y1="201.94" x2="177.10" y2="201.23"/><line x1="288.83" y1="133.03" x2="288.72" y2="128.63"/><line x1="288.36" y1="124.57" x2="324.83" y2="126.60"/><line x1="288.83" y1="133.03" x2="319.70" y2="162.87"/><line x1="181.93" y1="325.01" x2="184.88" y2="324.68"/><line x1="252.12" y1="301.38" x2="200.11" y2="256.39"/><line x1="300.35" y1="325.91" x2="302.81" y2="323.50"/><line x1="288.59" y1="138.84" x2="304.80" y2="242.12"/><line x1="283.09" y1="109.40" x2="284.62" y2="111.75"/><line x1="178.79" y1="325.12" x2="165.66" y2="351.29"/><line x1="188.87" y1="357.61" x2="193.35" y2="357.15"/><line x1="162.94" y1="343.37" x2="163.17" y2="345.11"/><line x1="178.79" y1="325.12" x2="184.04" y2="357.89"/><line x1="265.76" y1="322.95" x2="268.31" y2="325.19"/><line x1="166.44" y1="211.27" x2="167.10" y2="209.64"/><line x1="304.80" y1="242.12" x2="306.68" y2="246.74"/><line x1="311.61" y1="90.21" x2="315.65" y2="95.41"/><line x1="235.66" y1="103.29" x2="269.32" y2="103.29"/><line x1="164.79" y1="332.89" x2="172.85" y2="326.03"/><line x1="163.17" y1="345.11" x2="163.56" y2="346.77"/><line x1="241.13" y1="348.38" x2="244.39" y2="351.49"/><line x1="167.10" y1="209.64" x2="183.89" y2="233.18"/><line x1="235.66" y1="70.82" x2="220.36" y2="81.71"/><line x1="279.86" y1="172.06" x2="282.60" y2="164.85"/><line x1="200.72" y1="201.79" x2="205.19" y2="202.92"/><line x1="336.46" y1="336.20" x2="340.68" y2="328.91"/><line x1="313.48" y1="282.75" x2="350.26" y2="282.86"/><line x1="269.32" y1="103.29" x2="275.16" y2="71.12"/><line x1="323.07" y1="149.06" x2="322.30" y2="153.18"/><line x1="227.94" y1="336.41" x2="199.02" y2="316.97"/><line x1="307.31" y1="316.79" x2="309.20" y2="312.40"/><line x1="205.19" y1="202.92" x2="209.10" y2="204.39"/><line x1="231.72" y1="70.89" x2="225.16" y2="74.00"/><line x1="322.30" y1="153.18" x2="321.39" y2="157.17"/><line x1="204.74" y1="354.64" x2="207.86" y2="353.43"/><line x1="480.00" y1="32.02" x2="480.00" y2="64.50"/><line x1="252.12" y1="301.38" x2="192.49" y2="237.66"/><line x1="288.63" y1="331.16" x2="293.12" y2="363.80"/><line x1="252.12" y1="301.38" x2="253.92" y2="305.88"/><line x1="225.16" y1="74.00" x2="233.64" y2="70.73"/><line x1="323.36" y1="113.10" x2="324.46" y2="119.68"/><line x1="276.16" y1="104.41" x2="291.71" y2="75.57"/><line x1="178.79" y1="325.12" x2="162.94" y2="343.37"/><line x1="480.00" y1="479.91" x2="480.00" y2="447.42"/><line x1="169.54" y1="355.25" x2="171.16" y2="356.24"/><line x1="178.79" y1="325.12" x2="171.16" y2="356.24"/><line x1="273.64" y1="328.63" x2="264.22" y2="361.56"/><line x1="192.49" y1="237.66" x2="193.78" y2="239.63"/><line x1="220.91" y1="216.58" x2="222.98" y2="220.71"/><line x1="348.03" y1="258.00" x2="311.26" y2="262.36"/><line x1="291.71" y1="75.57" x2="278.13" y2="105.29"/><line x1="315.77" y1="174.01" x2="314.09" y2="178.41"/><line x1="196.61" y1="319.78" x2="197.76" y2="318.53"/><line x1="207.22" y1="304.52" x2="212.15" y2="296.12"/><line x1="348.73" y1="303.20" x2="349.87" y2="293.35"/><line x1="222.98" y1="220.71" x2="225.15" y2="225.51"/><line x1="235.66" y1="70.82" x2="219.67" y2="89.17"/><line x1="220.96" y1="80.02" x2="220.36" y2="81.71"/><line x1="314.09" y1="178.41" x2="312.21" y2="183.15"/><line x1="447.51" y1="479.91" x2="480.00" y2="447.42"/><line x1="226.64" y1="72.85" x2="231.72" y2="70.89"/><line x1="314.18" y1="357.26" x2="300.35" y2="325.91"/><line x1="220.36" y1="81.71" x2="219.93" y2="83.48"/><line x1="181.93" y1="325.01" x2="188.87" y2="357.61"/><line x1="205.40" y1="273.33" x2="208.59" y2="284.00"/><line x1="252.12" y1="301.38" x2="198.02" y2="250.11"/><line x1="338.11" y1="228.99" x2="334.98" y2="223.60"/><line x1="283.09" y1="109.40" x2="311.61" y2="90.21"/><line x1="269.34" y1="70.82" x2="233.63" y2="103.29"/><line x1="178.79" y1="325.12" x2="164.81" y2="349.86"/><line x1="230.74" y1="332.16" x2="205.34" y2="307.64"/><line x1="178.79" y1="325.12" x2="178.87" y2="357.98"/><line x1="265.76" y1="322.95" x2="241.13" y2="348.38"/><line x1="276.62" y1="179.55" x2="279.86" y2="172.06"/><line x1="334.98" y1="223.60" x2="331.47" y2="218.33"/><line x1="164.79" y1="332.89" x2="171.11" y2="326.74"/><line x1="235.66" y1="70.82" x2="220.96" y2="80.02"/><line x1="336.46" y1="336.20" x2="307.31" y2="316.79"/><line x1="286.96" y1="117.47" x2="287.78" y2="120.85"/><line x1="255.56" y1="358.53" x2="259.74" y2="360.19"/><line x1="286.59" y1="151.29" x2="287.84" y2="144.92"/><line x1="307.31" y1="316.79" x2="340.68" y2="328.91"/><line x1="163.17" y1="337.81" x2="162.94" y2="339.63"/><line x1="311.94" y1="302.09" x2="312.79" y2="296.15"/><line x1="252.12" y1="301.38" x2="208.59" y2="284.00"/><line x1="165.65" y1="331.44" x2="169.50" y2="327.66"/><line x1="269.34" y1="70.82" x2="225.16" y2="100.02"/><line x1="178.79" y1="325.12" x2="162.86" y2="341.55"/><line x1="218.59" y1="346.73" x2="221.87" y2="343.69"/><line x1="480.00" y1="479.91" x2="447.51" y2="479.91"/><line x1="230.74" y1="332.16" x2="232.94" y2="336.78"/><line x1="196.61" y1="319.78" x2="224.98" y2="340.26"/><line x1="274.12" y1="363.46" x2="279.54" y2="364.00"/><line x1="202.58" y1="264.13" x2="205.40" y2="273.33"/><line x1="348.73" y1="303.20" x2="312.79" y2="296.15"/><line x1="235.66" y1="70.82" x2="219.59" y2="87.25"/><line x1="306.84" y1="85.34" x2="283.09" y2="109.40"/><line x1="282.22" y1="331.21" x2="285.23" y2="331.38"/><line x1="313.34" y1="277.70" x2="312.92" y2="272.62"/><line x1="226.64" y1="72.85" x2="228.22" y2="71.94"/><line x1="256.75" y1="220.35" x2="276.62" y2="179.55"/><line x1="271.76" y1="103.42" x2="274.04" y2="103.79"/><line x1="200.42" y1="315.11" x2="201.93" y2="312.93"/><line x1="177.08" y1="232.20" x2="179.19" y2="232.75"/><line x1="350.01" y1="274.28" x2="349.27" y2="265.99"/><line x1="280.83" y1="72.01" x2="286.35" y2="73.49"/><line x1="269.34" y1="70.82" x2="220.36" y2="92.73"/><line x1="269.34" y1="70.82" x2="231.72" y2="103.07"/><line x1="230.74" y1="332.16" x2="203.57" y2="310.44"/><line x1="291.84" y1="330.50" x2="294.86" y2="329.41"/><line x1="167.94" y1="208.10" x2="168.97" y2="206.65"/><line x1="223.80" y1="75.41" x2="222.68" y2="76.87"/><line x1="220.36" y1="92.73" x2="220.96" y2="94.36"/><line x1="201.29" y1="355.66" x2="204.74" y2="354.64"/><line x1="300.55" y1="362.50" x2="307.57" y2="360.31"/><line x1="168.97" y1="206.65" x2="170.19" y2="205.29"/><line x1="346.29" y1="250.30" x2="344.06" y2="242.90"/><line x1="235.66" y1="70.82" x2="221.74" y2="78.40"/><line x1="298.60" y1="230.61" x2="286.59" y2="151.29"/><line x1="286.96" y1="117.47" x2="323.36" y2="113.10"/><line x1="175.11" y1="231.43" x2="170.17" y2="227.83"/><line x1="260.46" y1="317.21" x2="263.02" y2="320.26"/><line x1="165.97" y1="220.30" x2="165.69" y2="218.57"/><line x1="255.56" y1="358.53" x2="273.64" y2="328.63"/><line x1="310.01" y1="257.19" x2="308.49" y2="251.98"/><line x1="286.59" y1="151.29" x2="300.76" y2="234.06"/><line x1="279.94" y1="106.41" x2="281.59" y2="107.78"/><line x1="226.64" y1="101.11" x2="228.22" y2="101.99"/><line x1="163.17" y1="337.81" x2="178.79" y2="325.12"/><line x1="232.94" y1="336.78" x2="235.40" y2="341.01"/><line x1="165.69" y1="218.57" x2="165.60" y2="216.75"/><line x1="179.22" y1="200.73" x2="181.50" y2="200.42"/><line x1="311.94" y1="302.09" x2="348.73" y2="303.20"/><line x1="228.22" y1="101.99" x2="229.91" y2="102.64"/><line x1="165.65" y1="331.44" x2="166.65" y2="330.09"/><line x1="269.34" y1="70.82" x2="223.79" y2="98.71"/><line x1="269.34" y1="70.82" x2="275.16" y2="71.12"/><line x1="218.59" y1="346.73" x2="196.61" y2="319.78"/><line x1="302.81" y1="323.50" x2="305.08" y2="320.66"/><line x1="181.50" y1="200.42" x2="183.93" y2="200.32"/><line x1="169.50" y1="327.66" x2="164.79" y2="332.89"/><line x1="306.68" y1="246.74" x2="288.83" y2="133.03"/><line x1="324.76" y1="131.35" x2="324.55" y2="135.96"/><line x1="193.35" y1="357.15" x2="197.49" y2="356.50"/><line x1="183.89" y1="233.18" x2="185.89" y2="233.36"/><line x1="250.50" y1="296.53" x2="218.93" y2="213.13"/><line x1="274.12" y1="363.46" x2="282.22" y2="331.21"/><line x1="190.17" y1="323.38" x2="201.29" y2="355.66"/><line x1="164.11" y1="348.36" x2="164.81" y2="349.86"/><line x1="185.89" y1="233.36" x2="187.75" y2="233.90"/><line x1="321.52" y1="106.86" x2="286.96" y2="117.47"/><line x1="313.34" y1="277.70" x2="350.01" y2="274.28"/><line x1="271.76" y1="103.42" x2="280.83" y2="72.01"/><line x1="200.42" y1="315.11" x2="230.74" y2="332.16"/><line x1="212.45" y1="206.18" x2="215.25" y2="208.29"/><line x1="176.68" y1="325.22" x2="163.17" y2="337.81"/><line x1="320.64" y1="159.85" x2="319.70" y2="162.87"/><line x1="269.34" y1="70.82" x2="229.91" y2="102.64"/><line x1="181.46" y1="233.07" x2="165.60" y2="216.75"/><line x1="291.84" y1="330.50" x2="300.55" y2="362.50"/><line x1="223.80" y1="75.41" x2="235.66" y2="70.82"/><line x1="296.91" y1="78.23" x2="301.95" y2="81.49"/><line x1="172.90" y1="357.00" x2="174.77" y2="357.55"/><line x1="250.50" y1="296.53" x2="205.19" y2="202.92"/><line x1="288.72" y1="128.63" x2="324.76" y2="131.35"/><line x1="349.87" y1="293.35" x2="350.26" y2="282.86"/><line x1="250.50" y1="296.53" x2="227.40" y2="231.00"/><line x1="346.29" y1="250.30" x2="310.01" y2="257.19"/><line x1="175.11" y1="231.43" x2="173.31" y2="230.46"/><line x1="208.59" y1="284.00" x2="255.92" y2="310.01"/><line x1="260.46" y1="317.21" x2="232.94" y2="336.78"/><line x1="320.36" y1="353.33" x2="326.13" y2="348.53"/><line x1="184.88" y1="324.68" x2="187.63" y2="324.14"/><line x1="275.16" y1="71.12" x2="271.76" y2="103.42"/><line x1="284.62" y1="111.75" x2="285.91" y2="114.43"/><line x1="181.46" y1="233.07" x2="167.93" y2="225.06"/><line x1="268.31" y1="325.19" x2="247.91" y2="354.23"/><line x1="181.46" y1="233.07" x2="167.10" y2="209.64"/><line x1="294.01" y1="224.89" x2="296.35" y2="227.56"/><line x1="172.85" y1="326.03" x2="174.70" y2="325.52"/><line x1="250.50" y1="296.53" x2="181.50" y2="200.42"/><line x1="250.50" y1="296.53" x2="217.04" y2="210.37"/><line x1="340.68" y1="328.91" x2="344.12" y2="320.98"/><line x1="209.10" y1="204.39" x2="212.45" y2="206.18"/><line x1="164.09" y1="334.44" x2="163.55" y2="336.08"/><line x1="192.52" y1="322.39" x2="211.59" y2="351.60"/><line x1="480.00" y1="64.50" x2="447.51" y2="32.02"/><line x1="308.49" y1="251.98" x2="331.47" y2="218.33"/><line x1="309.20" y1="312.40" x2="310.74" y2="307.50"/><line x1="287.78" y1="120.85" x2="288.36" y2="124.57"/><line x1="291.58" y1="222.62" x2="294.01" y2="224.89"/><line x1="193.78" y1="239.63" x2="194.94" y2="241.95"/><line x1="287.84" y1="144.92" x2="288.59" y2="138.84"/><line x1="258.10" y1="313.79" x2="260.46" y2="317.21"/><line x1="170.17" y1="227.83" x2="168.96" y2="226.48"/><line x1="181.46" y1="233.07" x2="165.69" y2="218.57"/><line x1="264.22" y1="361.56" x2="269.02" y2="362.66"/><line x1="312.79" y1="296.15" x2="313.31" y2="289.71"/><line x1="225.15" y1="225.51" x2="227.40" y2="231.00"/><line x1="296.91" y1="78.23" x2="279.94" y2="106.41"/><line x1="250.50" y1="296.53" x2="171.68" y2="203.97"/><line x1="167.10" y1="209.64" x2="250.50" y2="296.53"/><line x1="250.50" y1="296.53" x2="200.72" y2="201.79"/><line x1="349.87" y1="293.35" x2="313.48" y2="282.75"/><line x1="250.50" y1="296.53" x2="225.15" y2="225.51"/><line x1="224.98" y1="340.26" x2="227.94" y2="336.41"/><line x1="279.54" y1="364.00" x2="285.27" y2="364.24"/><line x1="288.83" y1="133.03" x2="323.71" y2="144.82"/><line x1="208.59" y1="284.00" x2="253.92" y2="305.88"/><line x1="320.36" y1="353.33" x2="302.81" y2="323.50"/><line x1="288.83" y1="133.03" x2="314.09" y2="178.41"/><line x1="308.49" y1="251.98" x2="313.49" y2="198.49"/><line x1="184.88" y1="324.68" x2="193.35" y2="357.15"/><line x1="285.23" y1="331.38" x2="288.63" y2="331.16"/><line x1="321.39" y1="157.17" x2="320.64" y2="159.85"/><line x1="331.47" y1="218.33" x2="327.57" y2="213.18"/><line x1="284.62" y1="111.75" x2="315.65" y2="95.41"/><line x1="293.12" y1="363.80" x2="291.84" y2="330.50"/><line x1="233.64" y1="70.73" x2="223.80" y2="75.41"/><line x1="181.46" y1="233.07" x2="168.96" y2="226.48"/><line x1="268.31" y1="325.19" x2="244.39" y2="351.49"/><line x1="181.46" y1="233.07" x2="166.44" y2="211.27"/><line x1="349.27" y1="265.99" x2="348.03" y2="258.00"/><line x1="171.16" y1="356.24" x2="172.90" y2="357.00"/><line x1="286.35" y1="73.49" x2="291.71" y2="75.57"/><line x1="167.10" y1="209.64" x2="191.04" y2="236.05"/><line x1="172.85" y1="326.03" x2="164.09" y2="334.44"/><line x1="311.26" y1="262.36" x2="346.29" y2="250.30"/><line x1="250.50" y1="296.53" x2="179.22" y2="200.73"/><line x1="278.13" y1="105.29" x2="296.91" y2="78.23"/><line x1="250.50" y1="296.53" x2="215.25" y2="208.29"/><line x1="340.68" y1="328.91" x2="309.20" y2="312.40"/><line x1="221.73" y1="95.90" x2="222.68" y2="97.35"/><line x1="263.02" y1="320.26" x2="265.76" y2="322.95"/><line x1="192.52" y1="322.39" x2="207.86" y2="353.43"/><line x1="312.21" y1="183.15" x2="308.02" y2="193.84"/><line x1="308.49" y1="251.98" x2="334.98" y2="223.60"/><line x1="288.83" y1="133.03" x2="320.64" y2="159.85"/><line x1="287.78" y1="120.85" x2="324.46" y2="119.68"/><line x1="300.35" y1="325.91" x2="320.36" y2="353.33"/><line x1="219.93" y1="83.48" x2="219.67" y2="85.32"/><line x1="291.58" y1="222.62" x2="279.86" y2="172.06"/><line x1="259.74" y1="360.19" x2="264.22" y2="361.56"/><line x1="287.84" y1="144.92" x2="302.83" y2="237.90"/><line x1="188.87" y1="357.61" x2="184.88" y2="324.68"/><line x1="170.17" y1="227.83" x2="181.46" y2="233.07"/><line x1="162.94" y1="339.63" x2="162.86" y2="341.55"/><line x1="311.61" y1="90.21" x2="284.62" y2="111.75"/><line x1="305.08" y1="320.66" x2="307.31" y2="316.79"/><line x1="181.46" y1="233.07" x2="165.97" y2="220.30"/><line x1="312.79" y1="296.15" x2="349.87" y2="293.35"/><line x1="285.91" y1="114.43" x2="286.96" y2="117.47"/><line x1="231.72" y1="103.07" x2="233.63" y2="103.29"/><line x1="241.13" y1="348.38" x2="268.31" y2="325.19"/><line x1="279.86" y1="172.06" x2="294.01" y2="224.89"/><line x1="32.16" y1="32.09" x2="32.16" y2="64.58"/><line x1="250.50" y1="296.53" x2="170.19" y2="205.29"/><line x1="221.87" y1="343.69" x2="224.98" y2="340.26"/><line x1="171.11" y1="326.74" x2="172.85" y2="326.03"/><line x1="229.92" y1="71.29" x2="231.72" y2="70.89"/><line x1="324.20" y1="140.45" x2="323.71" y2="144.82"/><line x1="220.96" y1="94.36" x2="221.73" y2="95.90"/><line x1="270.94" y1="327.08" x2="273.64" y2="328.63"/><line x1="279.54" y1="364.00" x2="285.23" y2="331.38"/><line x1="288.83" y1="133.03" x2="324.20" y2="140.45"/><line x1="204.74" y1="354.64" x2="192.52" y2="322.39"/><line x1="308.49" y1="251.98" x2="318.57" y2="203.26"/><line x1="288.83" y1="133.03" x2="315.77" y2="174.01"/><line x1="274.04" y1="103.79" x2="276.16" y2="104.41"/><line x1="170.19" y1="205.29" x2="171.68" y2="203.97"/><line x1="300.76" y1="234.06" x2="302.83" y2="237.90"/><line x1="323.36" y1="113.10" x2="287.78" y2="120.85"/><line x1="178.79" y1="325.12" x2="169.54" y2="355.25"/><line x1="273.64" y1="328.63" x2="259.74" y2="360.19"/><line x1="194.67" y1="321.20" x2="196.61" y2="319.78"/><line x1="294.86" y1="329.41" x2="297.69" y2="327.88"/><line x1="167.10" y1="209.64" x2="189.46" y2="234.80"/><line x1="301.95" y1="81.49" x2="306.84" y2="85.34"/><line x1="263.02" y1="320.26" x2="238.14" y2="344.88"/><line x1="165.60" y1="216.75" x2="165.69" y2="214.83"/><line x1="235.46" y1="253.14" x2="256.75" y2="220.35"/><line x1="308.49" y1="251.98" x2="338.11" y2="228.99"/><line x1="288.83" y1="133.03" x2="321.39" y2="157.17"/><line x1="168.01" y1="328.77" x2="169.50" y2="327.66"/><line x1="252.12" y1="301.38" x2="196.30" y2="245.30"/><line x1="252.12" y1="301.38" x2="250.50" y2="296.53"/><line x1="178.79" y1="325.12" x2="164.11" y2="348.36"/><line x1="179.19" y1="232.75" x2="181.46" y2="233.07"/><line x1="178.79" y1="325.12" x2="176.76" y2="357.87"/><line x1="312.92" y1="272.62" x2="312.23" y2="267.50"/><line x1="306.68" y1="246.74" x2="308.49" y2="251.98"/><line x1="187.63" y1="324.14" x2="190.17" y2="323.38"/><line x1="305.08" y1="320.66" x2="336.46" y2="336.20"/><line x1="32.00" y1="479.98" x2="64.49" y2="479.98"/><line x1="285.91" y1="114.43" x2="321.52" y2="106.86"/><line x1="296.35" y1="227.56" x2="298.60" y2="230.61"/><line x1="174.70" y1="325.52" x2="176.68" y2="325.22"/><line x1="270.94" y1="327.08" x2="255.56" y2="358.53"/><line x1="288.83" y1="133.03" x2="324.55" y2="135.96"/><line x1="344.06" y1="242.90" x2="341.34" y2="235.80"/><line x1="300.76" y1="234.06" x2="287.84" y2="144.92"/><line x1="252.12" y1="301.38" x2="205.40" y2="273.33"/><line x1="201.93" y1="312.93" x2="203.57" y2="310.44"/><line x1="288.59" y1="138.84" x2="288.83" y2="133.03"/><line x1="310.74" y1="307.50" x2="311.94" y2="302.09"/><line x1="178.79" y1="325.12" x2="162.94" y2="339.63"/><line x1="178.79" y1="325.12" x2="168.05" y2="354.06"/><line x1="230.74" y1="332.16" x2="260.46" y2="317.21"/><line x1="194.67" y1="321.20" x2="218.59" y2="346.73"/><line x1="229.91" y1="102.64" x2="231.72" y2="103.07"/><line x1="294.86" y1="329.41" x2="307.57" y2="360.31"/><line x1="196.61" y1="319.78" x2="221.87" y2="343.69"/><line x1="326.13" y1="348.53" x2="331.48" y2="342.85"/><line x1="183.93" y1="200.32" x2="190.09" y2="200.48"/><line x1="235.66" y1="70.82" x2="219.67" y2="85.32"/><line x1="176.76" y1="357.87" x2="178.87" y2="357.98"/><line x1="269.02" y1="362.66" x2="274.12" y2="363.46"/><line x1="324.55" y1="135.96" x2="324.20" y2="140.45"/><line x1="282.22" y1="331.21" x2="279.54" y2="364.00"/><line x1="226.64" y1="72.85" x2="229.92" y2="71.29"/><line x1="227.94" y1="336.41" x2="230.74" y2="332.16"/><line x1="263.02" y1="320.26" x2="235.40" y2="341.01"/><line x1="164.81" y1="349.86" x2="165.66" y2="351.29"/><line x1="247.91" y1="354.23" x2="251.71" y2="356.60"/><line x1="187.75" y1="233.90" x2="189.46" y2="234.80"/><line x1="168.01" y1="328.77" x2="166.65" y2="330.09"/><line x1="350.01" y1="274.28" x2="312.92" y2="272.62"/><line x1="252.12" y1="301.38" x2="194.94" y2="241.95"/><line x1="280.83" y1="72.01" x2="274.04" y2="103.79"/><line x1="178.79" y1="325.12" x2="163.56" y2="346.77"/><line x1="230.74" y1="332.16" x2="201.93" y2="312.93"/><line x1="344.12" y1="320.98" x2="346.81" y2="312.41"/><line x1="215.25" y1="208.29" x2="217.04" y2="210.37"/><line x1="178.79" y1="325.12" x2="174.77" y2="357.55"/><line x1="312.92" y1="272.62" x2="349.27" y2="265.99"/><line x1="187.63" y1="324.14" x2="197.49" y2="356.50"/><line x1="319.70" y1="162.87" x2="318.58" y2="166.24"/><line x1="32.00" y1="479.98" x2="32.00" y2="447.50"/><line x1="285.91" y1="114.43" x2="318.95" y2="100.97"/><line x1="300.55" y1="362.50" x2="294.86" y2="329.41"/><line x1="235.66" y1="70.82" x2="222.68" y2="76.87"/><line x1="235.66" y1="70.82" x2="269.34" y2="70.82"/><line x1="174.77" y1="357.55" x2="176.76" y2="357.87"/><line x1="196.30" y1="245.30" x2="198.02" y2="250.11"/><line x1="174.70" y1="325.52" x2="163.55" y2="336.08"/><line x1="310.01" y1="257.19" x2="344.06" y2="242.90"/><line x1="211.59" y1="351.60" x2="215.17" y2="349.37"/><line x1="279.94" y1="106.41" x2="301.95" y2="81.49"/><line x1="171.66" y1="229.25" x2="170.17" y2="227.83"/><line x1="232.94" y1="336.78" x2="263.02" y2="320.26"/><line x1="288.36" y1="124.57" x2="288.72" y2="128.63"/><line x1="229.76" y1="237.17" x2="235.46" y2="253.14"/><line x1="344.06" y1="242.90" x2="308.49" y2="251.98"/><line x1="252.12" y1="301.38" x2="202.58" y2="264.13"/><line x1="165.65" y1="331.44" x2="168.01" y2="328.77"/><line x1="269.34" y1="70.82" x2="222.68" y2="97.35"/><line x1="288.59" y1="138.84" x2="306.68" y2="246.74"/><line x1="269.34" y1="70.82" x2="269.32" y2="103.29"/><line x1="178.79" y1="325.12" x2="166.67" y2="352.63"/><line x1="230.74" y1="332.16" x2="212.15" y2="296.12"/><line x1="302.81" y1="323.50" x2="326.13" y2="348.53"/><line x1="315.65" y1="95.41" x2="318.95" y2="100.97"/><line x1="193.35" y1="357.15" x2="187.63" y2="324.14"/><line x1="164.79" y1="332.89" x2="164.09" y2="334.44"/><line x1="282.60" y1="164.85" x2="284.84" y2="157.93"/><line x1="326.13" y1="348.53" x2="305.08" y2="320.66"/><line x1="327.57" y1="213.18" x2="323.27" y2="208.16"/><line x1="235.66" y1="70.82" x2="219.93" y2="83.48"/><line x1="208.59" y1="284.00" x2="212.15" y2="296.12"/><line x1="323.27" y1="208.16" x2="318.57" y2="203.26"/><line x1="231.72" y1="70.89" x2="233.64" y2="70.73"/><line x1="247.91" y1="354.23" x2="270.94" y2="327.08"/><line x1="252.12" y1="301.38" x2="193.78" y2="239.63"/><line x1="324.46" y1="119.68" x2="324.83" y2="126.60"/><line x1="269.34" y1="70.82" x2="228.22" y2="101.99"/><line x1="276.16" y1="104.41" x2="278.13" y2="105.29"/><line x1="194.94" y1="241.95" x2="196.30" y2="245.30"/><line x1="302.83" y1="237.90" x2="304.80" y2="242.12"/><line x1="344.12" y1="320.98" x2="310.74" y2="307.50"/><line x1="276.42" y1="329.83" x2="279.28" y2="330.69"/><line x1="227.40" y1="231.00" x2="229.76" y2="237.17"/><line x1="208.59" y1="284.00" x2="230.74" y2="332.16"/><line x1="235.66" y1="70.82" x2="219.93" y2="90.99"/><line x1="175.11" y1="231.43" x2="171.66" y2="229.25"/><line x1="219.67" y1="85.32" x2="219.59" y2="87.25"/><line x1="197.76" y1="318.53" x2="199.02" y2="316.97"/><line x1="171.66" y1="229.25" x2="173.31" y2="230.46"/><line x1="253.92" y1="305.88" x2="255.92" y2="310.01"/><line x1="219.59" y1="87.25" x2="219.67" y2="89.17"/><line x1="269.34" y1="70.82" x2="221.73" y2="95.90"/><line x1="285.27" y1="364.24" x2="293.12" y2="363.80"/><line x1="269.34" y1="70.82" x2="235.66" y2="103.29"/><line x1="255.92" y1="310.01" x2="258.10" y2="313.79"/><line x1="294.01" y1="224.89" x2="282.60" y2="164.85"/><line x1="230.74" y1="332.16" x2="207.22" y2="304.52"/><line x1="315.65" y1="95.41" x2="285.91" y2="114.43"/><line x1="168.96" y1="226.48" x2="167.93" y2="225.06"/><line x1="244.39" y1="351.49" x2="247.91" y2="354.23"/><line x1="312.23" y1="267.50" x2="311.26" y2="262.36"/><line x1="282.60" y1="164.85" x2="296.35" y2="227.56"/><line x1="250.50" y1="296.53" x2="291.58" y2="222.62"/><line x1="164.09" y1="334.44" x2="174.70" y2="325.52"/><line x1="167.93" y1="225.06" x2="167.09" y2="223.55"/><line x1="171.68" y1="203.97" x2="173.33" y2="202.85"/><line x1="309.20" y1="312.40" x2="344.12" y2="320.98"/><line x1="222.68" y1="97.35" x2="223.79" y2="98.71"/><line x1="207.86" y1="353.43" x2="211.59" y2="351.60"/><line x1="297.69" y1="327.88" x2="300.35" y2="325.91"/><line x1="173.33" y1="202.85" x2="175.14" y2="201.94"/><line x1="324.46" y1="119.68" x2="288.36" y2="124.57"/><line x1="184.04" y1="357.89" x2="188.87" y2="357.61"/><line x1="165.69" y1="214.83" x2="165.97" y2="213.01"/><line x1="269.34" y1="70.82" x2="226.64" y2="101.11"/><line x1="165.65" y1="331.44" x2="164.79" y2="332.89"/><line x1="264.22" y1="361.56" x2="276.42" y2="329.83"/><line x1="302.83" y1="237.90" x2="288.59" y2="138.84"/><line x1="162.86" y1="341.55" x2="162.94" y2="343.37"/><line x1="165.97" y1="213.01" x2="166.44" y2="211.27"/><line x1="250.50" y1="296.53" x2="195.68" y2="200.97"/><line x1="276.42" y1="329.83" x2="269.02" y2="362.66"/><line x1="349.87" y1="293.35" x2="313.31" y2="289.71"/><line x1="250.50" y1="296.53" x2="222.98" y2="220.71"/><line x1="233.63" y1="103.29" x2="235.66" y2="103.29"/><line x1="190.17" y1="323.38" x2="192.52" y2="322.39"/><line x1="224.98" y1="340.26" x2="197.76" y2="318.53"/><line x1="306.84" y1="85.34" x2="311.61" y2="90.21"/><line x1="195.68" y1="200.97" x2="200.72" y2="201.79"/><line x1="313.31" y1="289.71" x2="313.48" y2="282.75"/><line x1="323.71" y1="144.82" x2="323.07" y2="149.06"/><line x1="64.64" y1="32.09" x2="32.16" y2="64.58"/><line x1="191.04" y1="236.05" x2="192.49" y2="237.66"/><line x1="197.76" y1="318.53" x2="227.94" y2="336.41"/><line x1="285.23" y1="331.38" x2="285.27" y2="364.24"/><line x1="258.10" y1="313.79" x2="230.74" y2="332.16"/><line x1="166.67" y1="352.63" x2="168.05" y2="354.06"/><line x1="269.34" y1="70.82" x2="220.96" y2="94.36"/><line x1="308.02" y1="193.84" x2="308.49" y2="251.98"/><line x1="285.27" y1="364.24" x2="288.63" y2="331.16"/><line x1="181.46" y1="233.07" x2="165.97" y2="213.01"/><line x1="349.27" y1="265.99" x2="312.23" y2="267.50"/><line x1="286.35" y1="73.49" x2="276.16" y2="104.41"/><line x1="168.05" y1="354.06" x2="169.54" y2="355.25"/><line x1="203.57" y1="310.44" x2="205.34" y2="307.64"/><line x1="250.50" y1="296.53" x2="177.10" y2="201.23"/><line x1="307.57" y1="360.31" x2="314.18" y2="357.26"/><line x1="250.50" y1="296.53" x2="212.45" y2="206.18"/><line x1="312.23" y1="267.50" x2="348.03" y2="258.00"/><line x1="250.50" y1="296.53" x2="235.46" y2="253.14"/><line x1="298.60" y1="230.61" x2="300.76" y2="234.06"/><line x1="205.34" y1="307.64" x2="207.22" y2="304.52"/><line x1="175.11" y1="231.43" x2="177.08" y2="232.20"/><line x1="281.59" y1="107.78" x2="283.09" y2="109.40"/><line x1="291.58" y1="222.62" x2="276.62" y2="179.55"/><line x1="297.69" y1="327.88" x2="314.18" y2="357.26"/><line x1="170.17" y1="227.83" x2="179.19" y2="232.75"/><line x1="184.04" y1="357.89" x2="181.93" y2="325.01"/><line x1="238.14" y1="344.88" x2="241.13" y2="348.38"/><line x1="181.46" y1="233.07" x2="166.44" y2="221.97"/><line x1="190.09" y1="200.48" x2="195.68" y2="200.97"/><line x1="219.93" y1="90.99" x2="220.36" y2="92.73"/><line x1="341.34" y1="235.80" x2="338.11" y2="228.99"/><line x1="169.50" y1="327.66" x2="171.11" y2="326.74"/><line x1="197.49" y1="356.50" x2="201.29" y2="355.66"/><line x1="32.16" y1="32.09" x2="64.64" y2="32.09"/><line x1="250.50" y1="296.53" x2="168.97" y2="206.65"/><line x1="250.50" y1="296.53" x2="190.09" y2="200.48"/><line x1="229.92" y1="71.29" x2="228.22" y2="71.94"/><line x1="250.50" y1="296.53" x2="220.91" y2="216.58"/><line x1="190.17" y1="323.38" x2="204.74" y2="354.64"/><line x1="165.66" y1="351.29" x2="166.67" y2="352.63"/><line x1="189.46" y1="234.80" x2="191.04" y2="236.05"/><line x1="284.84" y1="157.93" x2="286.59" y2="151.29"/><line x1="308.49" y1="251.98" x2="323.27" y2="208.16"/><line x1="321.52" y1="106.86" x2="323.36" y2="113.10"/><line x1="274.04" y1="103.79" x2="286.35" y2="73.49"/><line x1="288.83" y1="133.03" x2="317.27" y2="169.95"/><line x1="163.55" y1="336.08" x2="163.17" y2="337.81"/><line x1="191.04" y1="236.05" x2="252.12" y2="301.38"/><line x1="217.04" y1="210.37" x2="218.93" y2="213.13"/><line x1="176.68" y1="325.22" x2="178.79" y2="325.12"/><line x1="318.58" y1="166.24" x2="317.27" y2="169.95"/><line x1="32.00" y1="447.50" x2="64.49" y2="479.98"/></g></svg>