<svg xmlns="http://www.w3.org/2000/svg" width="512" height="512"><rect width="512" height="512" fill="#0a0f1a"/><text x="12" y="20" font-family="monospace" font-size="11" fill="#4a7fa5">FRONT (XZ)</text><g stroke="#00d4ff" stroke-width="0.6" opacity="0.85"><line x1="258.67" y1="237.55" x2="262.69" y2="240.77"/><line x1="167.29" y1="227.34" x2="171.13" y2="226.32"/><line x1="243.72" y1="222.97" x2="276.72" y2="225.94"/><line x1="359.93" y1="268.19" x2="361.78" y2="278.40"/><line x1="392.74" y1="280.45" x2="399.89" y2="276.24"/><line x1="153.07" y1="233.29" x2="150.04" y2="206.74"/><line x1="245.67" y1="244.88" x2="240.61" y2="244.67"/><line x1="243.65" y1="251.15" x2="223.22" y2="251.73"/><line x1="202.06" y1="253.32" x2="180.91" y2="256.18"/><line x1="158.03" y1="230.70" x2="163.66" y2="228.49"/><line x1="152.59" y1="288.37" x2="149.57" y2="283.71"/><line x1="139.81" y1="252.30" x2="82.79" y2="226.14"/><line x1="131.18" y1="209.83" x2="137.39" y2="208.64"/><line x1="141.68" y1="266.88" x2="139.81" y2="252.30"/><line x1="223.22" y1="251.73" x2="218.87" y2="244.35"/><line x1="160.54" y1="260.61" x2="166.93" y2="247.80"/><line x1="94.95" y1="288.38" x2="141.68" y2="266.88"/><line x1="106.56" y1="216.42" x2="140.79" y2="247.64"/><line x1="141.68" y1="266.88" x2="153.46" y2="249.78"/><line x1="276.72" y1="225.94" x2="291.94" y2="211.74"/><line x1="173.58" y1="247.00" x2="180.15" y2="246.31"/><line x1="132.78" y1="297.91" x2="94.95" y2="288.38"/><line x1="382.51" y1="241.79" x2="409.85" y2="247.51"/><line x1="40.72" y1="256.70" x2="50.48" y2="247.49"/><line x1="148.84" y1="236.26" x2="137.39" y2="208.64"/><line x1="40.01" y1="274.77" x2="34.60" y2="263.39"/><line x1="142.65" y1="243.42" x2="145.34" y2="239.63"/><line x1="262.69" y1="240.77" x2="266.81" y2="243.82"/><line x1="160.54" y1="260.61" x2="180.91" y2="256.18"/><line x1="246.40" y1="206.33" x2="216.95" y2="222.02"/><line x1="141.68" y1="266.88" x2="40.72" y2="256.70"/><line x1="139.81" y1="252.30" x2="106.56" y2="216.42"/><line x1="149.57" y1="283.71" x2="147.00" y2="279.21"/><line x1="94.95" y1="288.38" x2="70.03" y2="282.39"/><line x1="393.96" y1="275.55" x2="399.89" y2="276.24"/><line x1="218.87" y1="244.35" x2="213.11" y2="244.43"/><line x1="409.42" y1="278.10" x2="411.02" y2="277.49"/><line x1="40.72" y1="256.70" x2="70.03" y2="282.39"/><line x1="156.49" y1="206.02" x2="163.66" y2="228.49"/><line x1="148.84" y1="236.26" x2="153.07" y2="233.29"/><line x1="243.65" y1="251.15" x2="245.67" y2="244.88"/><line x1="137.39" y1="208.64" x2="143.68" y2="207.62"/><line x1="399.89" y1="276.24" x2="403.64" y2="279.04"/><line x1="203.14" y1="204.22" x2="193.28" y2="222.91"/><line x1="145.34" y1="239.63" x2="131.18" y2="209.83"/><line x1="288.95" y1="236.81" x2="279.36" y2="251.89"/><line x1="139.81" y1="252.30" x2="140.79" y2="247.64"/><line x1="163.66" y1="228.49" x2="163.01" y2="205.45"/><line x1="376.97" y1="280.00" x2="387.67" y2="280.53"/><line x1="386.47" y1="232.24" x2="409.85" y2="247.51"/><line x1="291.94" y1="211.74" x2="316.79" y2="230.95"/><line x1="276.72" y1="225.94" x2="250.94" y2="230.61"/><line x1="40.72" y1="256.70" x2="40.01" y2="274.77"/><line x1="70.03" y1="282.39" x2="51.93" y2="278.09"/><line x1="254.74" y1="234.17" x2="258.67" y2="237.55"/><line x1="409.85" y1="247.51" x2="433.78" y2="247.24"/><line x1="403.64" y1="279.04" x2="405.34" y2="276.70"/><line x1="361.78" y1="278.40" x2="376.97" y2="280.00"/><line x1="202.06" y1="253.32" x2="213.11" y2="244.43"/><line x1="144.84" y1="274.89" x2="143.08" y2="270.77"/><line x1="160.08" y1="298.04" x2="156.08" y2="293.15"/><line x1="139.81" y1="252.30" x2="50.48" y2="247.49"/><line x1="203.14" y1="204.22" x2="200.12" y2="222.44"/><line x1="145.34" y1="239.63" x2="148.84" y2="236.26"/><line x1="170.54" y1="306.17" x2="172.59" y2="307.78"/><line x1="205.58" y1="222.20" x2="211.18" y2="222.06"/><line x1="338.91" y1="220.39" x2="351.77" y2="236.25"/><line x1="163.01" y1="205.45" x2="167.29" y2="227.34"/><line x1="387.67" y1="280.53" x2="392.74" y2="280.45"/><line x1="235.39" y1="244.50" x2="230.03" y2="244.39"/><line x1="168.83" y1="307.21" x2="165.45" y2="302.79"/><line x1="276.72" y1="225.94" x2="258.67" y2="237.55"/><line x1="322.13" y1="255.08" x2="322.60" y2="270.09"/><line x1="405.34" y1="276.70" x2="409.35" y2="277.07"/><line x1="143.08" y1="270.77" x2="141.68" y2="266.88"/><line x1="150.04" y1="206.74" x2="158.03" y2="230.70"/><line x1="183.87" y1="223.94" x2="188.49" y2="223.37"/><line x1="409.35" y1="277.07" x2="409.42" y2="278.10"/><line x1="142.65" y1="243.42" x2="125.06" y2="211.18"/><line x1="167.29" y1="227.34" x2="203.14" y2="204.22"/><line x1="279.36" y1="251.89" x2="262.62" y2="251.30"/><line x1="392.74" y1="280.45" x2="393.96" y2="275.55"/><line x1="433.78" y1="247.24" x2="434.65" y2="253.38"/><line x1="262.62" y1="251.30" x2="243.65" y2="251.15"/><line x1="403.64" y1="279.04" x2="409.42" y2="278.10"/><line x1="203.14" y1="204.22" x2="171.13" y2="226.32"/><line x1="146.65" y1="250.97" x2="153.46" y2="249.78"/><line x1="158.03" y1="230.70" x2="156.49" y2="206.02"/><line x1="139.81" y1="252.30" x2="71.55" y2="232.28"/><line x1="131.18" y1="209.83" x2="148.84" y2="236.26"/><line x1="50.48" y1="247.49" x2="60.77" y2="239.38"/><line x1="203.14" y1="204.22" x2="246.40" y2="206.33"/><line x1="351.77" y1="236.25" x2="382.51" y2="241.79"/><line x1="338.91" y1="220.39" x2="386.47" y2="232.24"/><line x1="186.65" y1="245.75" x2="180.15" y2="246.31"/><line x1="434.65" y1="253.38" x2="457.75" y2="259.34"/><line x1="343.28" y1="275.25" x2="361.78" y2="278.40"/><line x1="230.03" y1="244.39" x2="224.52" y2="244.34"/><line x1="34.60" y1="263.39" x2="33.58" y2="271.69"/><line x1="173.58" y1="247.00" x2="180.91" y2="256.18"/><line x1="106.56" y1="216.42" x2="119.02" y2="212.70"/><line x1="60.77" y1="239.38" x2="71.55" y2="232.28"/><line x1="382.51" y1="241.79" x2="386.47" y2="232.24"/><line x1="188.49" y1="223.37" x2="193.28" y2="222.91"/><line x1="392.74" y1="280.45" x2="403.64" y2="279.04"/><line x1="276.72" y1="225.94" x2="288.95" y2="236.81"/><line x1="433.78" y1="247.24" x2="480.00" y2="265.34"/><line x1="224.52" y1="244.34" x2="218.87" y2="244.35"/><line x1="165.45" y1="302.79" x2="160.08" y2="298.04"/><line x1="33.58" y1="271.69" x2="32.00" y2="268.14"/><line x1="203.14" y1="204.22" x2="179.44" y2="224.62"/><line x1="171.13" y1="226.32" x2="175.18" y2="225.41"/><line x1="139.81" y1="252.30" x2="94.48" y2="220.87"/><line x1="246.40" y1="206.33" x2="228.87" y2="222.24"/><line x1="340.98" y1="262.32" x2="343.28" y2="275.25"/><line x1="193.28" y1="222.91" x2="194.84" y2="222.78"/><line x1="271.02" y1="246.72" x2="250.57" y2="245.14"/><line x1="175.18" y1="225.41" x2="179.44" y2="224.62"/><line x1="266.81" y1="243.82" x2="288.95" y2="236.81"/><line x1="250.57" y1="245.14" x2="245.67" y2="244.88"/><line x1="71.55" y1="232.28" x2="82.79" y2="226.14"/><line x1="240.61" y1="244.67" x2="235.39" y2="244.50"/><line x1="82.79" y1="226.14" x2="94.48" y2="220.87"/><line x1="156.48" y1="304.05" x2="132.78" y2="297.91"/><line x1="125.06" y1="211.18" x2="131.18" y2="209.83"/><line x1="203.14" y1="204.22" x2="188.49" y2="223.37"/><line x1="288.95" y1="236.81" x2="271.02" y2="246.72"/><line x1="246.40" y1="206.33" x2="243.72" y2="222.97"/><line x1="223.22" y1="251.73" x2="235.39" y2="244.50"/><line x1="304.43" y1="246.55" x2="322.13" y2="255.08"/><line x1="51.93" y1="278.09" x2="40.01" y2="274.77"/><line x1="147.00" y1="279.21" x2="144.84" y2="274.89"/><line x1="94.48" y1="220.87" x2="106.56" y2="216.42"/><line x1="179.44" y1="224.62" x2="183.87" y2="223.94"/><line x1="140.79" y1="247.64" x2="142.65" y2="243.42"/><line x1="156.49" y1="206.02" x2="163.01" y2="205.45"/><line x1="222.84" y1="222.08" x2="228.87" y2="222.24"/><line x1="377.94" y1="272.63" x2="387.67" y2="280.53"/><line x1="213.11" y1="244.43" x2="212.97" y2="244.43"/><line x1="132.78" y1="297.91" x2="152.59" y2="288.37"/><line x1="143.68" y1="207.62" x2="150.04" y2="206.74"/><line x1="160.08" y1="298.04" x2="132.78" y2="297.91"/><line x1="203.14" y1="204.22" x2="194.84" y2="222.78"/><line x1="205.58" y1="222.20" x2="246.40" y2="206.33"/><line x1="288.95" y1="236.81" x2="304.43" y2="246.55"/><line x1="271.02" y1="246.72" x2="279.36" y2="251.89"/><line x1="202.06" y1="253.32" x2="186.65" y2="245.75"/><line x1="386.47" y1="232.24" x2="433.78" y2="247.24"/><line x1="343.28" y1="275.25" x2="359.93" y2="268.19"/><line x1="223.22" y1="251.73" x2="224.52" y2="244.34"/><line x1="291.94" y1="211.74" x2="338.91" y2="220.39"/><line x1="168.83" y1="307.21" x2="172.59" y2="307.78"/><line x1="160.54" y1="260.61" x2="160.23" y2="248.72"/><line x1="94.95" y1="288.38" x2="143.08" y2="270.77"/><line x1="316.79" y1="230.95" x2="351.77" y2="236.25"/><line x1="276.72" y1="225.94" x2="266.81" y2="243.82"/><line x1="279.36" y1="251.89" x2="304.43" y2="246.55"/><line x1="377.94" y1="272.63" x2="393.96" y2="275.55"/><line x1="212.97" y1="244.43" x2="186.65" y2="245.75"/><line x1="132.78" y1="297.91" x2="147.00" y2="279.21"/><line x1="40.72" y1="256.70" x2="139.81" y2="252.30"/><line x1="403.64" y1="279.04" x2="409.35" y2="277.07"/><line x1="243.72" y1="222.97" x2="247.26" y2="226.88"/><line x1="457.75" y1="259.34" x2="480.00" y2="265.34"/><line x1="359.93" y1="268.19" x2="377.94" y2="272.63"/><line x1="153.07" y1="233.29" x2="158.03" y2="230.70"/><line x1="203.14" y1="204.22" x2="205.58" y2="222.20"/><line x1="246.40" y1="206.33" x2="211.18" y2="222.06"/><line x1="338.91" y1="220.39" x2="382.51" y2="241.79"/><line x1="271.02" y1="246.72" x2="262.62" y2="251.30"/><line x1="186.65" y1="245.75" x2="180.91" y2="256.18"/><line x1="223.22" y1="251.73" x2="202.06" y2="253.32"/><line x1="168.83" y1="307.21" x2="156.48" y2="304.05"/><line x1="180.91" y1="256.18" x2="180.15" y2="246.31"/><line x1="94.95" y1="288.38" x2="40.72" y2="256.70"/><line x1="150.04" y1="206.74" x2="156.49" y2="206.02"/><line x1="211.18" y1="222.06" x2="216.95" y2="222.02"/><line x1="250.57" y1="245.14" x2="243.65" y2="251.15"/><line x1="409.35" y1="277.07" x2="411.02" y2="277.49"/><line x1="276.72" y1="225.94" x2="316.79" y2="230.95"/><line x1="322.60" y1="270.09" x2="340.98" y2="262.32"/><line x1="279.36" y1="251.89" x2="300.91" y2="262.46"/><line x1="218.87" y1="244.35" x2="202.06" y2="253.32"/><line x1="433.78" y1="247.24" x2="457.75" y2="259.34"/><line x1="148.84" y1="236.26" x2="143.68" y2="207.62"/><line x1="165.45" y1="302.79" x2="156.48" y2="304.05"/><line x1="194.84" y1="222.78" x2="200.12" y2="222.44"/><line x1="40.01" y1="274.77" x2="33.58" y2="271.69"/><line x1="203.14" y1="204.22" x2="175.18" y2="225.41"/><line x1="246.40" y1="206.33" x2="222.84" y2="222.08"/><line x1="139.81" y1="252.30" x2="146.65" y2="250.97"/><line x1="34.60" y1="263.39" x2="32.00" y2="268.14"/><line x1="160.23" y1="248.72" x2="166.93" y2="247.80"/><line x1="160.54" y1="260.61" x2="173.58" y2="247.00"/><line x1="141.68" y1="266.88" x2="160.54" y2="260.61"/><line x1="276.72" y1="225.94" x2="247.26" y2="226.88"/><line x1="300.91" y1="262.46" x2="322.13" y2="255.08"/><line x1="216.95" y1="222.02" x2="222.84" y2="222.08"/><line x1="322.60" y1="270.09" x2="343.28" y2="275.25"/><line x1="240.61" y1="244.67" x2="223.22" y2="251.73"/><line x1="40.72" y1="256.70" x2="51.93" y2="278.09"/><line x1="119.02" y1="212.70" x2="142.65" y2="243.42"/><line x1="243.65" y1="251.15" x2="240.61" y2="244.67"/><line x1="156.48" y1="304.05" x2="160.08" y2="298.04"/><line x1="125.06" y1="211.18" x2="145.34" y2="239.63"/><line x1="203.14" y1="204.22" x2="183.87" y2="223.94"/><line x1="200.12" y1="222.44" x2="205.58" y2="222.20"/><line x1="247.26" y1="226.88" x2="250.94" y2="230.61"/><line x1="262.62" y1="251.30" x2="250.57" y2="245.14"/><line x1="246.40" y1="206.33" x2="235.03" y2="222.48"/><line x1="361.78" y1="278.40" x2="377.94" y2="272.63"/><line x1="340.98" y1="262.32" x2="359.93" y2="268.19"/><line x1="399.89" y1="276.24" x2="405.34" y2="276.70"/><line x1="246.40" y1="206.33" x2="291.94" y2="211.74"/><line x1="304.43" y1="246.55" x2="300.91" y2="262.46"/><line x1="170.54" y1="306.17" x2="168.83" y2="307.21"/><line x1="153.46" y1="249.78" x2="160.54" y2="260.61"/><line x1="163.66" y1="228.49" x2="167.29" y2="227.34"/><line x1="147.00" y1="279.21" x2="94.95" y2="288.38"/><line x1="228.87" y1="222.24" x2="235.03" y2="222.48"/><line x1="300.91" y1="262.46" x2="322.60" y2="270.09"/><line x1="276.72" y1="225.94" x2="254.74" y2="234.17"/><line x1="140.79" y1="247.64" x2="119.02" y2="212.70"/><line x1="266.81" y1="243.82" x2="271.02" y2="246.72"/><line x1="377.94" y1="272.63" x2="376.97" y2="280.00"/><line x1="132.78" y1="297.91" x2="156.08" y2="293.15"/><line x1="40.72" y1="256.70" x2="34.60" y2="263.39"/><line x1="119.02" y1="212.70" x2="125.06" y2="211.18"/><line x1="409.85" y1="247.51" x2="434.65" y2="253.38"/><line x1="143.68" y1="207.62" x2="153.07" y2="233.29"/><line x1="250.94" y1="230.61" x2="254.74" y2="234.17"/><line x1="246.40" y1="206.33" x2="276.72" y2="225.94"/><line x1="202.06" y1="253.32" x2="212.97" y2="244.43"/><line x1="139.81" y1="252.30" x2="60.77" y2="239.38"/><line x1="223.22" y1="251.73" x2="230.03" y2="244.39"/><line x1="170.54" y1="306.17" x2="165.45" y2="302.79"/><line x1="153.46" y1="249.78" x2="160.23" y2="248.72"/><line x1="163.01" y1="205.45" x2="203.14" y2="204.22"/><line x1="94.95" y1="288.38" x2="144.84" y2="274.89"/><line x1="141.68" y1="266.88" x2="146.65" y2="250.97"/><line x1="235.03" y1="222.48" x2="243.72" y2="222.97"/><line x1="316.79" y1="230.95" x2="338.91" y2="220.39"/><line x1="166.93" y1="247.80" x2="173.58" y2="247.00"/><line x1="276.72" y1="225.94" x2="262.69" y2="240.77"/><line x1="322.13" y1="255.08" x2="340.98" y2="262.32"/><line x1="377.94" y1="272.63" x2="392.74" y2="280.45"/><line x1="132.78" y1="297.91" x2="149.57" y2="283.71"/><line x1="156.08" y1="293.15" x2="152.59" y2="288.37"/></g></svg>