<svg xmlns="http://www.w3.org/2000/svg" width="512" height="512"><rect width="512" height="512" fill="#0a0f1a"/><text x="12" y="20" font-family="monospace" font-size="11" fill="#4a7fa5">FRONT (XZ)</text><g stroke="#00d4ff" stroke-width="0.6" opacity="0.85"><line x1="330.01" y1="310.66" x2="330.10" y2="310.06"/><line x1="385.04" y1="296.81" x2="377.81" y2="296.03"/><line x1="330.67" y1="307.05" x2="319.88" y2="304.28"/><line x1="49.29" y1="248.47" x2="39.59" y2="250.55"/><line x1="319.45" y1="279.79" x2="342.45" y2="284.63"/><line x1="167.93" y1="329.10" x2="181.32" y2="332.18"/><line x1="408.75" y1="250.00" x2="413.22" y2="248.12"/><line x1="253.66" y1="355.07" x2="258.95" y2="340.69"/><line x1="308.90" y1="323.88" x2="309.14" y2="323.63"/><line x1="430.06" y1="321.39" x2="428.02" y2="324.91"/><line x1="337.41" y1="315.45" x2="330.05" y2="326.00"/><line x1="435.72" y1="305.78" x2="430.22" y2="299.03"/><line x1="39.59" y1="250.55" x2="49.26" y2="251.76"/><line x1="171.98" y1="349.65" x2="187.40" y2="351.02"/><line x1="74.20" y1="330.85" x2="89.51" y2="301.80"/><line x1="372.60" y1="252.71" x2="375.04" y2="264.63"/><line x1="307.11" y1="241.60" x2="304.89" y2="247.47"/><line x1="305.53" y1="327.09" x2="305.81" y2="326.85"/><line x1="463.91" y1="297.89" x2="458.48" y2="298.19"/><line x1="330.05" y1="326.00" x2="329.64" y2="314.24"/><line x1="331.10" y1="305.24" x2="320.27" y2="302.47"/><line x1="345.35" y1="281.63" x2="315.39" y2="265.71"/><line x1="269.99" y1="287.57" x2="262.54" y2="285.52"/><line x1="343.56" y1="249.60" x2="348.26" y2="250.34"/><line x1="89.51" y1="301.80" x2="83.41" y2="334.13"/><line x1="320.75" y1="299.44" x2="320.57" y2="286.54"/><line x1="440.10" y1="211.36" x2="441.95" y2="205.61"/><line x1="415.83" y1="321.59" x2="414.70" y2="326.95"/><line x1="201.11" y1="293.44" x2="193.91" y2="290.73"/><line x1="355.94" y1="304.95" x2="346.27" y2="303.77"/><line x1="320.27" y1="302.47" x2="331.27" y2="304.63"/><line x1="40.37" y1="305.54" x2="43.87" y2="310.05"/><line x1="50.80" y1="261.78" x2="34.30" y2="264.41"/><line x1="343.65" y1="283.34" x2="344.06" y2="282.91"/><line x1="421.13" y1="242.82" x2="424.61" y2="239.47"/><line x1="306.58" y1="357.11" x2="297.46" y2="332.58"/><line x1="414.70" y1="326.95" x2="410.89" y2="321.58"/><line x1="317.96" y1="310.25" x2="329.73" y2="313.05"/><line x1="193.91" y1="290.73" x2="186.82" y2="287.98"/><line x1="411.88" y1="298.70" x2="411.43" y2="307.64"/><line x1="319.45" y1="279.79" x2="340.60" y2="286.81"/><line x1="34.30" y1="264.41" x2="51.94" y2="265.19"/><line x1="344.06" y1="282.91" x2="344.48" y2="282.48"/><line x1="302.64" y1="240.45" x2="307.11" y2="241.60"/><line x1="426.23" y1="281.17" x2="430.30" y2="284.06"/><line x1="388.46" y1="264.07" x2="393.30" y2="252.51"/><line x1="307.15" y1="325.62" x2="307.40" y2="325.37"/><line x1="329.73" y1="313.05" x2="318.20" y2="309.66"/><line x1="320.59" y1="300.66" x2="331.81" y2="302.82"/><line x1="411.43" y1="307.64" x2="405.45" y2="298.39"/><line x1="346.24" y1="280.78" x2="343.56" y2="249.60"/><line x1="222.38" y1="272.90" x2="216.28" y2="270.76"/><line x1="362.68" y1="252.06" x2="367.61" y2="252.44"/><line x1="116.65" y1="342.23" x2="129.87" y2="318.16"/><line x1="324.53" y1="357.70" x2="337.63" y2="350.80"/><line x1="393.30" y1="252.51" x2="392.81" y2="264.76"/><line x1="309.93" y1="254.75" x2="311.11" y2="256.75"/><line x1="450.52" y1="167.27" x2="451.69" y2="160.52"/><line x1="152.30" y1="273.86" x2="145.49" y2="271.00"/><line x1="331.81" y1="302.82" x2="320.67" y2="300.05"/><line x1="216.28" y1="270.76" x2="210.29" y2="268.61"/><line x1="316.34" y1="268.24" x2="315.39" y2="265.71"/><line x1="340.40" y1="355.21" x2="339.70" y2="354.16"/><line x1="451.69" y1="160.52" x2="452.85" y2="153.73"/><line x1="395.25" y1="321.20" x2="394.28" y2="328.71"/><line x1="390.02" y1="307.56" x2="385.04" y2="296.81"/><line x1="32.07" y1="282.79" x2="57.64" y2="275.61"/><line x1="315.39" y1="265.71" x2="334.27" y2="247.89"/><line x1="405.60" y1="269.00" x2="408.75" y2="250.00"/><line x1="308.65" y1="324.13" x2="308.90" y2="323.88"/><line x1="330.01" y1="310.66" x2="318.85" y2="307.88"/><line x1="385.04" y1="296.81" x2="382.13" y2="307.20"/><line x1="181.60" y1="257.77" x2="175.99" y2="255.59"/><line x1="319.45" y1="279.79" x2="342.07" y2="285.07"/><line x1="167.93" y1="329.10" x2="171.98" y2="349.65"/><line x1="408.75" y1="250.00" x2="409.78" y2="271.02"/><line x1="302.23" y1="244.13" x2="307.11" y2="241.60"/><line x1="376.16" y1="329.01" x2="369.47" y2="328.87"/><line x1="308.90" y1="323.88" x2="330.43" y2="328.52"/><line x1="466.11" y1="300.23" x2="463.91" y2="297.89"/><line x1="362.62" y1="294.02" x2="354.65" y2="292.79"/><line x1="324.53" y1="357.70" x2="341.11" y2="356.24"/><line x1="338.90" y1="248.78" x2="343.56" y2="249.60"/><line x1="307.11" y1="241.60" x2="303.57" y2="245.78"/><line x1="319.41" y1="306.08" x2="319.58" y2="305.48"/><line x1="463.91" y1="297.89" x2="461.36" y2="301.30"/><line x1="317.19" y1="312.02" x2="314.83" y2="311.55"/><line x1="345.35" y1="281.63" x2="316.34" y2="268.24"/><line x1="339.90" y1="287.70" x2="340.24" y2="287.26"/><line x1="219.73" y1="353.29" x2="236.52" y2="354.23"/><line x1="343.56" y1="249.60" x2="351.26" y2="276.46"/><line x1="422.15" y1="278.39" x2="421.13" y2="242.82"/><line x1="440.31" y1="322.49" x2="436.29" y2="323.32"/><line x1="335.05" y1="345.59" x2="334.44" y2="344.11"/><line x1="318.43" y1="309.07" x2="318.64" y2="308.47"/><line x1="331.27" y1="333.14" x2="330.83" y2="330.90"/><line x1="447.44" y1="298.68" x2="441.80" y2="298.86"/><line x1="44.29" y1="241.28" x2="49.54" y2="245.21"/><line x1="355.94" y1="304.95" x2="354.65" y2="292.79"/><line x1="221.59" y1="338.92" x2="234.56" y2="340.14"/><line x1="421.13" y1="242.82" x2="426.23" y2="281.17"/><line x1="352.05" y1="317.48" x2="344.88" y2="316.53"/><line x1="290.50" y1="319.46" x2="281.34" y2="317.48"/><line x1="446.46" y1="304.21" x2="441.18" y2="305.04"/><line x1="76.39" y1="293.89" x2="82.25" y2="297.77"/><line x1="319.45" y1="279.79" x2="340.24" y2="287.26"/><line x1="319.45" y1="279.79" x2="318.78" y2="276.67"/><line x1="302.64" y1="240.45" x2="302.23" y2="244.13"/><line x1="304.69" y1="327.82" x2="304.97" y2="327.58"/><line x1="304.11" y1="328.30" x2="333.29" y2="340.87"/><line x1="438.42" y1="290.00" x2="449.30" y2="173.97"/><line x1="399.74" y1="328.40" x2="395.25" y2="321.20"/><line x1="308.71" y1="252.83" x2="309.93" y2="254.75"/><line x1="330.81" y1="306.45" x2="330.95" y2="305.84"/><line x1="346.24" y1="280.78" x2="338.90" y2="248.78"/><line x1="58.96" y1="323.32" x2="66.04" y2="327.25"/><line x1="32.00" y1="278.21" x2="32.07" y2="282.79"/><line x1="271.09" y1="355.81" x2="280.30" y2="338.32"/><line x1="362.68" y1="252.06" x2="365.77" y2="267.55"/><line x1="324.53" y1="357.70" x2="338.31" y2="351.97"/><line x1="425.40" y1="321.49" x2="420.66" y2="321.56"/><line x1="329.68" y1="246.95" x2="325.12" y2="245.95"/><line x1="308.41" y1="324.38" x2="308.65" y2="324.13"/><line x1="430.03" y1="306.42" x2="424.11" y2="306.95"/><line x1="318.64" y1="308.47" x2="330.01" y2="310.66"/><line x1="49.49" y1="255.07" x2="49.99" y2="258.41"/><line x1="157.14" y1="348.10" x2="167.93" y2="329.10"/><line x1="331.27" y1="333.14" x2="306.36" y2="326.36"/><line x1="314.39" y1="263.31" x2="313.35" y2="261.02"/><line x1="424.25" y1="299.00" x2="418.14" y2="298.89"/><line x1="37.56" y1="255.18" x2="35.78" y2="259.80"/><line x1="54.14" y1="225.91" x2="55.16" y2="222.72"/><line x1="98.06" y1="305.90" x2="107.73" y2="310.04"/><line x1="379.58" y1="263.96" x2="384.04" y2="263.79"/><line x1="311.59" y1="242.73" x2="316.08" y2="243.83"/><line x1="336.31" y1="348.33" x2="335.67" y2="347.00"/><line x1="378.08" y1="320.17" x2="376.16" y2="329.01"/><line x1="320.39" y1="301.87" x2="320.49" y2="301.26"/><line x1="93.59" y1="337.11" x2="104.69" y2="339.80"/><line x1="63.61" y1="282.78" x2="37.53" y2="301.02"/><line x1="335.67" y1="347.00" x2="335.05" y2="345.59"/><line x1="438.42" y1="290.00" x2="441.95" y2="205.61"/><line x1="376.16" y1="329.01" x2="371.93" y2="319.65"/><line x1="405.45" y1="298.39" x2="398.85" y2="297.99"/><line x1="331.44" y1="304.03" x2="331.61" y2="303.42"/><line x1="330.31" y1="308.86" x2="319.41" y2="306.08"/><line x1="362.62" y1="294.02" x2="355.94" y2="304.95"/><line x1="37.53" y1="301.02" x2="40.37" y2="305.54"/><line x1="324.53" y1="357.70" x2="342.53" y2="358.27"/><line x1="208.30" y1="337.15" x2="219.73" y2="353.29"/><line x1="324.53" y1="357.70" x2="335.67" y2="347.00"/><line x1="299.92" y1="321.34" x2="290.50" y2="319.46"/><line x1="404.64" y1="307.77" x2="397.51" y2="307.75"/><line x1="319.41" y1="306.08" x2="330.42" y2="308.26"/><line x1="53.44" y1="268.62" x2="55.33" y2="272.10"/><line x1="50.59" y1="238.73" x2="44.29" y2="241.28"/><line x1="339.90" y1="287.70" x2="319.45" y2="279.79"/><line x1="332.21" y1="301.61" x2="346.27" y2="303.77"/><line x1="397.12" y1="265.83" x2="401.38" y2="267.26"/><line x1="219.73" y1="353.29" x2="221.59" y2="338.92"/><line x1="440.31" y1="322.49" x2="439.21" y2="321.11"/><line x1="331.27" y1="333.14" x2="307.40" y2="325.37"/><line x1="318.43" y1="309.07" x2="329.93" y2="311.26"/><line x1="354.95" y1="328.18" x2="352.05" y2="317.48"/><line x1="316.08" y1="243.83" x2="308.71" y2="252.83"/><line x1="447.44" y1="298.68" x2="446.46" y2="304.21"/><line x1="44.29" y1="241.28" x2="49.98" y2="241.96"/><line x1="142.06" y1="322.03" x2="154.79" y2="325.70"/><line x1="53.03" y1="319.03" x2="76.39" y2="293.89"/><line x1="398.68" y1="252.12" x2="403.91" y2="251.35"/><line x1="357.82" y1="251.58" x2="362.68" y2="252.06"/><line x1="299.53" y1="240.90" x2="298.17" y2="239.30"/><line x1="428.02" y1="324.91" x2="423.72" y2="325.64"/><line x1="304.40" y1="328.06" x2="304.69" y2="327.82"/><line x1="475.40" y1="298.00" x2="470.78" y2="299.13"/><line x1="352.05" y1="317.48" x2="347.10" y2="327.61"/><line x1="319.88" y1="304.28" x2="330.81" y2="306.45"/><line x1="318.78" y1="276.67" x2="344.91" y2="282.05"/><line x1="311.48" y1="297.52" x2="302.55" y2="295.57"/><line x1="76.39" y1="293.89" x2="58.96" y2="323.32"/><line x1="258.95" y1="340.69" x2="271.09" y2="355.81"/><line x1="302.64" y1="240.45" x2="300.89" y2="242.51"/><line x1="438.42" y1="290.00" x2="430.73" y2="231.51"/><line x1="330.83" y1="330.90" x2="330.43" y2="328.52"/><line x1="329.64" y1="314.24" x2="317.46" y2="311.43"/><line x1="304.11" y1="328.30" x2="333.85" y2="342.54"/><line x1="49.58" y1="232.00" x2="46.88" y2="236.65"/><line x1="238.99" y1="306.30" x2="231.11" y2="303.84"/><line x1="330.81" y1="306.45" x2="320.02" y2="303.68"/><line x1="377.81" y1="296.03" x2="370.34" y2="295.10"/><line x1="438.42" y1="290.00" x2="448.02" y2="180.58"/><line x1="49.26" y1="251.76" x2="49.49" y2="255.07"/><line x1="342.07" y1="285.07" x2="342.45" y2="284.63"/><line x1="413.22" y1="248.12" x2="417.34" y2="245.71"/><line x1="271.09" y1="355.81" x2="270.08" y2="339.90"/><line x1="430.73" y1="231.51" x2="433.40" y2="226.96"/><line x1="425.40" y1="321.49" x2="423.72" y2="325.64"/><line x1="430.03" y1="306.42" x2="424.25" y2="299.00"/><line x1="49.49" y1="255.07" x2="37.56" y2="255.18"/><line x1="342.45" y1="284.63" x2="342.84" y2="284.20"/><line x1="314.83" y1="311.55" x2="223.40" y2="301.32"/><line x1="377.66" y1="252.85" x2="379.58" y2="263.96"/><line x1="413.93" y1="273.28" x2="418.05" y2="275.74"/><line x1="410.89" y1="321.58" x2="405.82" y2="321.52"/><line x1="331.27" y1="333.14" x2="306.09" y2="326.61"/><line x1="314.83" y1="311.55" x2="159.12" y2="276.71"/><line x1="317.19" y1="312.02" x2="317.46" y2="311.43"/><line x1="255.34" y1="283.45" x2="248.36" y2="281.37"/><line x1="98.06" y1="305.90" x2="93.59" y2="337.11"/><line x1="379.58" y1="263.96" x2="382.79" y2="252.88"/><line x1="311.59" y1="242.73" x2="307.47" y2="250.98"/><line x1="443.65" y1="199.62" x2="445.22" y2="193.44"/><line x1="409.93" y1="327.51" x2="404.95" y2="328.00"/><line x1="318.20" y1="309.66" x2="318.43" y2="309.07"/><line x1="186.82" y1="287.98" x2="179.80" y2="285.20"/><line x1="320.39" y1="301.87" x2="331.44" y2="304.03"/><line x1="33.15" y1="269.02" x2="32.37" y2="273.62"/><line x1="248.36" y1="281.37" x2="241.60" y2="279.27"/><line x1="356.18" y1="272.84" x2="361.02" y2="269.88"/><line x1="344.48" y1="282.48" x2="344.91" y2="282.05"/><line x1="304.11" y1="328.30" x2="324.53" y2="357.70"/><line x1="320.59" y1="244.91" x2="325.12" y2="245.95"/><line x1="330.83" y1="330.90" x2="307.91" y2="324.88"/><line x1="445.22" y1="193.44" x2="446.67" y2="187.09"/><line x1="438.42" y1="290.00" x2="440.10" y2="211.36"/><line x1="329.80" y1="312.46" x2="329.86" y2="311.86"/><line x1="304.11" y1="328.30" x2="304.40" y2="328.06"/><line x1="405.45" y1="298.39" x2="404.64" y2="307.77"/><line x1="320.57" y1="286.54" x2="187.24" y2="259.95"/><line x1="438.42" y1="290.00" x2="452.85" y2="153.73"/><line x1="129.42" y1="344.42" x2="142.94" y2="346.37"/><line x1="344.91" y1="282.05" x2="345.35" y2="281.63"/><line x1="392.81" y1="264.76" x2="397.12" y2="265.83"/><line x1="394.28" y1="328.71" x2="388.55" y2="328.92"/><line x1="474.65" y1="297.21" x2="480.00" y2="296.86"/><line x1="332.00" y1="302.21" x2="332.21" y2="301.61"/><line x1="404.64" y1="307.77" x2="398.85" y2="297.99"/><line x1="210.29" y1="268.61" x2="204.42" y2="266.45"/><line x1="334.27" y1="247.89" x2="346.24" y2="280.78"/><line x1="314.83" y1="311.55" x2="263.75" y2="313.25"/><line x1="397.12" y1="265.83" x2="398.68" y2="252.12"/><line x1="314.83" y1="311.55" x2="193.91" y2="290.73"/><line x1="389.72" y1="320.94" x2="384.00" y2="320.59"/><line x1="331.27" y1="333.14" x2="307.15" y2="325.62"/><line x1="382.13" y1="307.20" x2="373.84" y2="306.65"/><line x1="204.42" y1="266.45" x2="198.63" y2="264.29"/><line x1="409.78" y1="271.02" x2="413.93" y2="273.28"/><line x1="330.43" y1="328.52" x2="309.37" y2="323.37"/><line x1="299.53" y1="240.90" x2="302.64" y2="240.45"/><line x1="428.02" y1="324.91" x2="425.40" y2="321.49"/><line x1="330.10" y1="310.06" x2="330.20" y2="309.46"/><line x1="318.78" y1="276.67" x2="344.48" y2="282.48"/><line x1="320.05" y1="283.07" x2="338.91" y2="289.02"/><line x1="33.69" y1="291.93" x2="35.32" y2="296.48"/><line x1="181.32" y1="332.18" x2="194.82" y2="334.89"/><line x1="345.79" y1="281.20" x2="346.24" y2="280.78"/><line x1="320.57" y1="286.54" x2="277.69" y2="289.60"/><line x1="330.83" y1="330.90" x2="308.90" y2="323.88"/><line x1="461.36" y1="301.30" x2="456.52" y2="302.33"/><line x1="329.64" y1="314.24" x2="317.19" y2="312.02"/><line x1="320.57" y1="286.54" x2="216.28" y2="270.76"/><line x1="49.58" y1="232.00" x2="51.34" y2="235.51"/><line x1="377.81" y1="296.03" x2="373.84" y2="306.65"/><line x1="351.26" y1="276.46" x2="356.18" y2="272.84"/><line x1="187.40" y1="351.02" x2="203.33" y2="352.22"/><line x1="83.41" y1="334.13" x2="98.06" y2="305.90"/><line x1="413.22" y1="248.12" x2="413.93" y2="273.28"/><line x1="304.89" y1="247.47" x2="306.19" y2="249.20"/><line x1="369.47" y1="328.87" x2="362.40" y2="328.59"/><line x1="458.48" y1="298.19" x2="452.99" y2="298.46"/><line x1="354.65" y1="292.79" x2="346.39" y2="291.38"/><line x1="331.27" y1="304.63" x2="320.39" y2="301.87"/><line x1="67.34" y1="286.43" x2="48.09" y2="314.55"/><line x1="348.26" y1="250.34" x2="353.02" y2="251.01"/><line x1="314.83" y1="311.55" x2="231.11" y2="303.84"/><line x1="332.21" y1="301.61" x2="320.57" y2="286.54"/><line x1="410.89" y1="321.58" x2="409.93" y2="327.51"/><line x1="314.83" y1="311.55" x2="165.97" y2="279.56"/><line x1="319.58" y1="305.48" x2="319.73" y2="304.88"/><line x1="51.94" y1="265.19" x2="33.15" y2="269.02"/><line x1="236.52" y1="354.23" x2="247.07" y2="340.75"/><line x1="424.61" y1="239.47" x2="427.81" y2="235.69"/><line x1="436.29" y1="323.32" x2="432.20" y2="324.13"/><line x1="52.35" y1="227.36" x2="49.58" y2="232.00"/><line x1="441.80" y1="298.86" x2="436.06" y2="298.97"/><line x1="330.54" y1="307.65" x2="330.67" y2="307.05"/><line x1="318.20" y1="309.66" x2="329.80" y2="312.46"/><line x1="49.54" y1="245.21" x2="49.29" y2="248.47"/><line x1="82.25" y1="297.77" x2="89.51" y2="301.80"/><line x1="33.15" y1="269.02" x2="53.44" y2="268.62"/><line x1="320.05" y1="283.07" x2="319.45" y2="279.79"/><line x1="365.77" y1="267.55" x2="370.44" y2="265.81"/><line x1="331.73" y1="335.25" x2="305.26" y2="327.34"/><line x1="320.59" y1="244.91" x2="312.25" y2="258.83"/><line x1="330.83" y1="330.90" x2="307.66" y2="325.13"/><line x1="441.18" y1="305.04" x2="435.72" y2="305.78"/><line x1="320.57" y1="286.54" x2="248.36" y2="281.37"/><line x1="329.80" y1="312.46" x2="318.43" y2="309.07"/><line x1="41.84" y1="245.92" x2="39.59" y2="250.55"/><line x1="320.67" y1="300.05" x2="332.00" y2="302.21"/><line x1="320.57" y1="286.54" x2="192.91" y2="262.12"/><line x1="367.61" y1="252.44" x2="372.60" y2="252.71"/><line x1="129.42" y1="344.42" x2="142.06" y2="322.03"/><line x1="338.80" y1="326.89" x2="330.05" y2="326.00"/><line x1="394.28" y1="328.71" x2="389.72" y2="320.94"/><line x1="474.65" y1="297.21" x2="475.40" y2="298.00"/><line x1="332.00" y1="302.21" x2="320.75" y2="299.44"/><line x1="57.64" y1="275.61" x2="32.62" y2="287.37"/><line x1="334.27" y1="247.89" x2="345.79" y2="281.20"/><line x1="314.83" y1="311.55" x2="272.43" y2="315.41"/><line x1="339.00" y1="353.08" x2="338.31" y2="351.97"/><line x1="314.83" y1="311.55" x2="201.11" y2="293.44"/><line x1="389.72" y1="320.94" x2="388.55" y2="328.92"/><line x1="320.15" y1="303.08" x2="320.27" y2="302.47"/><line x1="318.85" y1="307.88" x2="330.10" y2="310.06"/><line x1="382.13" y1="307.20" x2="377.81" y2="296.03"/><line x1="343.24" y1="283.77" x2="343.65" y2="283.34"/><line x1="32.62" y1="287.37" x2="33.69" y2="291.93"/><line x1="288.75" y1="356.49" x2="306.58" y2="357.11"/><line x1="409.78" y1="271.02" x2="413.22" y2="248.12"/><line x1="330.43" y1="328.52" x2="309.14" y2="323.63"/><line x1="418.14" y1="298.89" x2="411.88" y2="298.70"/><line x1="330.10" y1="310.06" x2="319.04" y2="307.28"/><line x1="297.46" y1="332.58" x2="304.11" y2="328.30"/><line x1="53.14" y1="229.11" x2="49.58" y2="232.00"/><line x1="320.05" y1="283.07" x2="338.59" y2="289.46"/><line x1="384.04" y1="263.79" x2="388.46" y2="264.07"/><line x1="181.32" y1="332.18" x2="187.40" y2="351.02"/><line x1="330.05" y1="326.00" x2="330.43" y2="328.52"/><line x1="371.93" y1="319.65" x2="369.47" y2="328.87"/><line x1="320.57" y1="286.54" x2="285.68" y2="291.61"/><line x1="330.42" y1="308.26" x2="330.54" y2="307.65"/><line x1="461.36" y1="301.30" x2="458.48" y2="298.19"/><line x1="320.57" y1="286.54" x2="222.38" y2="272.90"/><line x1="49.58" y1="232.00" x2="52.19" y2="232.30"/><line x1="307.40" y1="325.37" x2="330.83" y2="330.90"/><line x1="320.57" y1="286.54" x2="320.05" y2="283.07"/><line x1="351.26" y1="276.46" x2="348.26" y2="250.34"/><line x1="439.21" y1="321.11" x2="434.66" y2="321.26"/><line x1="334.44" y1="344.11" x2="333.85" y2="342.54"/><line x1="369.47" y1="328.87" x2="365.56" y2="319.03"/><line x1="129.87" y1="318.16" x2="129.42" y2="344.42"/><line x1="55.33" y1="272.10" x2="57.64" y2="275.61"/><line x1="354.65" y1="292.79" x2="346.27" y2="303.77"/><line x1="67.34" y1="286.43" x2="43.87" y2="310.05"/><line x1="334.27" y1="247.89" x2="338.90" y2="248.78"/><line x1="314.83" y1="311.55" x2="238.99" y2="306.30"/><line x1="347.10" y1="327.61" x2="338.80" y2="326.89"/><line x1="281.34" y1="317.48" x2="272.43" y2="315.41"/><line x1="319.58" y1="305.48" x2="330.54" y2="307.65"/><line x1="339.70" y1="354.16" x2="339.00" y2="353.08"/><line x1="340.24" y1="287.26" x2="340.60" y2="286.81"/><line x1="236.52" y1="354.23" x2="234.56" y2="340.14"/><line x1="436.29" y1="323.32" x2="434.66" y2="321.26"/><line x1="344.88" y1="316.53" x2="337.41" y2="315.45"/><line x1="52.35" y1="227.36" x2="53.14" y2="229.11"/><line x1="320.02" y1="303.68" x2="320.15" y2="303.08"/><line x1="441.80" y1="298.86" x2="441.18" y2="305.04"/><line x1="49.54" y1="245.21" x2="41.84" y2="245.92"/><line x1="82.25" y1="297.77" x2="74.20" y2="330.85"/><line x1="443.73" y1="320.94" x2="439.21" y2="321.11"/><line x1="320.05" y1="283.07" x2="339.90" y2="287.70"/><line x1="365.77" y1="267.55" x2="367.61" y2="252.44"/><line x1="423.72" y1="325.64" x2="419.30" y2="326.33"/><line x1="331.73" y1="335.25" x2="304.97" y2="327.58"/><line x1="320.59" y1="244.91" x2="311.11" y2="256.75"/><line x1="171.98" y1="349.65" x2="181.32" y2="332.18"/><line x1="330.95" y1="305.84" x2="331.10" y2="305.24"/><line x1="320.57" y1="286.54" x2="255.34" y2="283.45"/><line x1="293.95" y1="293.60" x2="285.68" y2="291.61"/><line x1="320.57" y1="286.54" x2="198.63" y2="264.29"/><line x1="417.34" y1="245.71" x2="421.13" y2="242.82"/><line x1="280.30" y1="338.32" x2="289.48" y2="335.90"/><line x1="420.66" y1="321.56" x2="415.83" y2="321.59"/><line x1="223.40" y1="301.32" x2="215.83" y2="298.75"/><line x1="424.11" y1="306.95" x2="417.91" y2="307.36"/><line x1="49.99" y1="258.41" x2="50.80" y2="261.78"/><line x1="303.57" y1="245.78" x2="304.89" y2="247.47"/><line x1="342.84" y1="284.20" x2="343.24" y2="283.77"/><line x1="435.84" y1="222.07" x2="438.06" y2="216.86"/><line x1="40.37" y1="305.54" x2="67.34" y2="286.43"/><line x1="317.72" y1="310.84" x2="317.96" y2="310.25"/><line x1="315.39" y1="265.71" x2="314.39" y2="263.31"/><line x1="107.73" y1="310.04" x2="118.38" y2="314.14"/><line x1="405.82" y1="321.52" x2="400.61" y2="321.39"/><line x1="320.49" y1="301.26" x2="320.59" y2="300.66"/><line x1="426.23" y1="281.17" x2="424.61" y2="239.47"/><line x1="361.02" y1="269.88" x2="365.77" y2="267.55"/><line x1="427.81" y1="235.69" x2="430.73" y2="231.51"/><line x1="341.82" y1="357.26" x2="341.11" y2="356.24"/><line x1="384.04" y1="263.79" x2="388.01" y2="252.77"/><line x1="404.95" y1="328.00" x2="399.74" y2="328.40"/><line x1="331.73" y1="335.25" x2="331.27" y2="333.14"/><line x1="320.57" y1="286.54" x2="293.95" y2="293.60"/><line x1="398.85" y1="297.99" x2="392.05" y2="297.46"/><line x1="330.42" y1="308.26" x2="319.58" y2="305.48"/><line x1="32.37" y1="273.62" x2="32.00" y2="278.21"/><line x1="309.93" y1="254.75" x2="320.59" y2="244.91"/><line x1="448.02" y1="180.58" x2="449.30" y2="173.97"/><line x1="439.21" y1="321.11" x2="436.29" y2="323.32"/><line x1="397.51" y1="307.75" x2="390.02" y2="307.56"/><line x1="142.94" y1="346.37" x2="157.14" y2="348.10"/><line x1="401.38" y1="267.26" x2="405.60" y2="269.00"/><line x1="347.10" y1="327.61" x2="344.88" y2="316.53"/><line x1="433.40" y1="226.96" x2="435.84" y2="222.07"/><line x1="384.00" y1="320.59" x2="378.08" y2="320.17"/><line x1="470.78" y1="299.13" x2="466.11" y2="300.23"/><line x1="319.45" y1="279.79" x2="341.68" y2="285.50"/><line x1="382.79" y1="252.88" x2="388.01" y2="252.77"/><line x1="373.84" y1="306.65" x2="365.12" y2="305.90"/><line x1="320.02" y1="303.68" x2="330.95" y2="305.84"/><line x1="60.39" y1="279.17" x2="63.61" y2="282.78"/><line x1="82.25" y1="297.77" x2="66.04" y2="327.25"/><line x1="443.73" y1="320.94" x2="440.31" y2="322.49"/><line x1="423.72" y1="325.64" x2="420.66" y2="321.56"/><line x1="370.34" y1="295.10" x2="362.62" y2="294.02"/><line x1="194.82" y1="334.89" x2="208.30" y2="337.15"/><line x1="417.34" y1="245.71" x2="422.15" y2="278.39"/><line x1="317.19" y1="312.02" x2="309.61" y2="323.12"/><line x1="280.30" y1="338.32" x2="288.75" y2="356.49"/><line x1="309.61" y1="323.12" x2="299.92" y2="321.34"/><line x1="345.35" y1="281.63" x2="317.21" y2="270.91"/><line x1="456.52" y1="302.33" x2="451.56" y2="303.30"/><line x1="317.46" y1="311.43" x2="317.72" y2="310.84"/><line x1="424.11" y1="306.95" x2="418.14" y2="298.89"/><line x1="203.33" y1="352.22" x2="219.73" y2="353.29"/><line x1="306.36" y1="326.36" x2="306.62" y2="326.12"/><line x1="452.99" y1="298.46" x2="447.44" y2="298.68"/><line x1="221.59" y1="338.92" x2="236.52" y2="354.23"/><line x1="315.39" y1="265.71" x2="329.68" y2="246.95"/><line x1="241.60" y1="279.27" x2="235.03" y2="277.16"/><line x1="353.02" y1="251.01" x2="357.82" y2="251.58"/><line x1="107.73" y1="310.04" x2="104.69" y2="339.80"/><line x1="446.46" y1="304.21" x2="441.80" y2="298.86"/><line x1="49.98" y1="241.96" x2="49.54" y2="245.21"/><line x1="405.82" y1="321.52" x2="404.95" y2="328.00"/><line x1="172.86" y1="282.39" x2="165.97" y2="279.56"/><line x1="319.45" y1="279.79" x2="343.24" y2="283.77"/><line x1="304.69" y1="327.82" x2="331.73" y2="335.25"/><line x1="71.59" y1="290.14" x2="76.39" y2="293.89"/><line x1="427.81" y1="235.69" x2="438.42" y2="290.00"/><line x1="341.82" y1="357.26" x2="342.53" y2="358.27"/><line x1="302.55" y1="295.57" x2="293.95" y2="293.60"/><line x1="58.96" y1="323.32" x2="82.25" y2="297.77"/><line x1="39.59" y1="250.55" x2="37.56" y2="255.18"/><line x1="324.53" y1="357.70" x2="339.00" y2="353.08"/><line x1="398.85" y1="297.99" x2="397.51" y2="307.75"/><line x1="32.37" y1="273.62" x2="55.33" y2="272.10"/><line x1="231.11" y1="303.84" x2="223.40" y2="301.32"/><line x1="312.25" y1="258.83" x2="313.35" y2="261.02"/><line x1="388.55" y1="328.92" x2="382.51" y2="329.02"/><line x1="307.91" y1="324.88" x2="308.16" y2="324.63"/><line x1="345.35" y1="281.63" x2="345.79" y2="281.20"/><line x1="270.08" y1="339.90" x2="280.30" y2="338.32"/><line x1="198.63" y1="264.29" x2="192.91" y2="262.12"/><line x1="142.94" y1="346.37" x2="154.79" y2="325.70"/><line x1="424.25" y1="299.00" x2="424.11" y2="306.95"/><line x1="37.56" y1="255.18" x2="49.99" y2="258.41"/><line x1="306.09" y1="326.61" x2="306.36" y2="326.36"/><line x1="306.58" y1="357.11" x2="324.53" y2="357.70"/><line x1="337.63" y1="350.80" x2="336.97" y2="349.60"/><line x1="93.59" y1="337.11" x2="107.73" y2="310.04"/><line x1="330.20" y1="309.46" x2="330.31" y2="308.86"/><line x1="319.45" y1="279.79" x2="341.32" y2="285.94"/><line x1="382.79" y1="252.88" x2="384.04" y2="263.79"/><line x1="373.84" y1="306.65" x2="370.34" y2="295.10"/><line x1="60.39" y1="279.17" x2="35.32" y2="296.48"/><line x1="179.80" y1="285.20" x2="172.86" y2="282.39"/><line x1="331.44" y1="304.03" x2="320.49" y2="301.26"/><line x1="443.73" y1="320.94" x2="448.23" y2="320.78"/><line x1="309.37" y1="323.37" x2="309.61" y2="323.12"/><line x1="324.53" y1="357.70" x2="341.82" y2="357.26"/><line x1="51.34" y1="235.51" x2="50.59" y2="238.73"/><line x1="446.67" y1="187.09" x2="448.02" y2="180.58"/><line x1="324.53" y1="357.70" x2="336.31" y2="348.33"/><line x1="393.30" y1="252.51" x2="398.68" y2="252.12"/><line x1="194.82" y1="334.89" x2="203.33" y2="352.22"/><line x1="53.44" y1="268.62" x2="32.37" y2="273.62"/><line x1="362.40" y1="328.59" x2="354.95" y2="328.18"/><line x1="345.35" y1="281.63" x2="318.03" y2="273.71"/><line x1="456.52" y1="302.33" x2="452.99" y2="298.46"/><line x1="307.66" y1="325.13" x2="307.91" y2="324.88"/><line x1="48.09" y1="314.55" x2="53.03" y2="319.03"/><line x1="318.43" y1="309.07" x2="329.86" y2="311.86"/><line x1="142.06" y1="322.03" x2="142.94" y2="346.37"/><line x1="319.73" y1="304.88" x2="319.88" y2="304.28"/><line x1="398.68" y1="252.12" x2="401.38" y2="267.26"/><line x1="475.40" y1="298.00" x2="480.00" y2="296.86"/><line x1="247.07" y1="340.75" x2="258.95" y2="340.69"/><line x1="432.20" y1="324.13" x2="428.02" y2="324.91"/><line x1="436.06" y1="298.97" x2="430.22" y2="299.03"/><line x1="49.29" y1="248.47" x2="49.26" y2="251.76"/><line x1="319.45" y1="279.79" x2="342.84" y2="284.20"/><line x1="302.64" y1="240.45" x2="298.17" y2="239.30"/><line x1="319.04" y1="307.28" x2="319.23" y2="306.68"/><line x1="304.11" y1="328.30" x2="334.44" y2="344.11"/><line x1="438.42" y1="290.00" x2="446.67" y2="187.09"/><line x1="337.41" y1="315.45" x2="329.64" y2="314.24"/><line x1="324.53" y1="357.70" x2="339.70" y2="354.16"/><line x1="74.20" y1="330.85" x2="83.41" y2="334.13"/><line x1="372.60" y1="252.71" x2="377.66" y2="252.85"/><line x1="307.11" y1="241.60" x2="311.59" y2="242.73"/><line x1="388.55" y1="328.92" x2="384.00" y2="320.59"/><line x1="331.10" y1="305.24" x2="331.27" y2="304.63"/><line x1="345.35" y1="281.63" x2="334.27" y2="247.89"/><line x1="413.93" y1="273.28" x2="417.34" y2="245.71"/><line x1="365.56" y1="319.03" x2="358.94" y2="318.31"/><line x1="289.48" y1="335.90" x2="297.46" y2="332.58"/><line x1="415.83" y1="321.59" x2="410.89" y2="321.58"/><line x1="338.91" y1="289.02" x2="339.23" y2="288.58"/><line x1="50.80" y1="261.78" x2="51.94" y2="265.19"/><line x1="311.59" y1="242.73" x2="306.19" y2="249.20"/><line x1="409.93" y1="327.51" x2="405.82" y2="321.52"/><line x1="317.96" y1="310.25" x2="318.20" y2="309.66"/><line x1="356.18" y1="272.84" x2="353.02" y2="251.01"/><line x1="411.88" y1="298.70" x2="405.45" y2="298.39"/><line x1="434.66" y1="321.26" x2="430.06" y2="321.39"/><line x1="319.45" y1="279.79" x2="340.95" y2="286.38"/><line x1="430.30" y1="284.06" x2="434.36" y2="287.01"/><line x1="118.38" y1="314.14" x2="129.87" y2="318.16"/><line x1="438.42" y1="290.00" x2="438.06" y2="216.86"/><line x1="388.46" y1="264.07" x2="392.81" y2="264.76"/><line x1="304.11" y1="328.30" x2="332.22" y2="337.24"/><line x1="438.42" y1="290.00" x2="451.69" y2="160.52"/><line x1="320.59" y1="300.66" x2="320.67" y2="300.05"/><line x1="346.24" y1="280.78" x2="351.26" y2="276.46"/><line x1="324.53" y1="357.70" x2="336.97" y2="349.60"/><line x1="370.44" y1="265.81" x2="375.04" y2="264.63"/><line x1="331.27" y1="333.14" x2="306.89" y2="325.87"/><line x1="320.75" y1="299.44" x2="332.21" y2="301.61"/><line x1="263.75" y1="313.25" x2="255.30" y2="311.01"/><line x1="390.02" y1="307.56" x2="382.13" y2="307.20"/><line x1="338.31" y1="351.97" x2="337.63" y2="350.80"/><line x1="405.60" y1="269.00" x2="409.78" y2="271.02"/><line x1="318.78" y1="276.67" x2="344.06" y2="282.91"/><line x1="33.69" y1="291.93" x2="60.39" y2="279.17"/><line x1="436.06" y1="298.97" x2="435.72" y2="305.78"/><line x1="63.61" y1="282.78" x2="67.34" y2="286.43"/><line x1="309.14" y1="323.63" x2="309.37" y2="323.37"/><line x1="417.91" y1="307.36" x2="411.43" y2="307.64"/><line x1="330.83" y1="330.90" x2="308.65" y2="324.13"/><line x1="319.04" y1="307.28" x2="330.20" y2="309.46"/><line x1="304.11" y1="328.30" x2="335.05" y2="345.59"/><line x1="438.42" y1="290.00" x2="445.22" y2="193.44"/><line x1="302.23" y1="244.13" x2="303.57" y2="245.78"/><line x1="305.26" y1="327.34" x2="305.53" y2="327.09"/><line x1="338.59" y1="289.46" x2="338.91" y2="289.02"/><line x1="466.11" y1="300.23" x2="461.36" y2="301.30"/><line x1="388.01" y1="252.77" x2="393.30" y2="252.51"/><line x1="187.40" y1="351.02" x2="194.82" y2="334.89"/><line x1="304.89" y1="247.47" x2="311.59" y2="242.73"/><line x1="324.53" y1="357.70" x2="340.40" y2="355.21"/><line x1="458.48" y1="298.19" x2="456.52" y2="302.33"/><line x1="52.19" y1="232.30" x2="51.34" y2="235.51"/><line x1="208.41" y1="296.12" x2="201.11" y2="293.44"/><line x1="348.26" y1="250.34" x2="356.18" y2="272.84"/><line x1="333.85" y1="342.54" x2="333.29" y2="340.87"/><line x1="332.21" y1="301.61" x2="338.27" y2="289.91"/><line x1="365.56" y1="319.03" x2="362.40" y2="328.59"/><line x1="314.83" y1="311.55" x2="172.86" y2="282.39"/><line x1="422.15" y1="278.39" x2="426.23" y2="281.17"/><line x1="289.48" y1="335.90" x2="306.58" y2="357.11"/><line x1="346.27" y1="303.77" x2="346.39" y2="291.38"/><line x1="316.08" y1="243.83" x2="320.59" y2="244.91"/><line x1="43.87" y1="310.05" x2="48.09" y2="314.55"/><line x1="44.29" y1="241.28" x2="41.84" y2="245.92"/><line x1="424.61" y1="239.47" x2="430.30" y2="284.06"/><line x1="272.43" y1="315.41" x2="263.75" y2="313.25"/><line x1="392.05" y1="297.46" x2="385.04" y2="296.81"/><line x1="330.54" y1="307.65" x2="319.73" y2="304.88"/><line x1="346.39" y1="291.38" x2="338.27" y2="289.91"/><line x1="306.89" y1="325.87" x2="307.15" y2="325.62"/><line x1="340.60" y1="286.81" x2="340.95" y2="286.38"/><line x1="318.78" y1="276.67" x2="318.03" y2="273.71"/><line x1="403.91" y1="251.35" x2="408.75" y2="250.00"/><line x1="234.56" y1="340.14" x2="247.07" y2="340.75"/><line x1="430.30" y1="284.06" x2="427.81" y2="235.69"/><line x1="434.66" y1="321.26" x2="432.20" y2="324.13"/><line x1="118.38" y1="314.14" x2="116.65" y2="342.23"/><line x1="441.18" y1="305.04" x2="436.06" y2="298.97"/><line x1="438.42" y1="290.00" x2="435.84" y2="222.07"/><line x1="41.84" y1="245.92" x2="49.29" y2="248.47"/><line x1="329.64" y1="314.24" x2="329.68" y2="313.65"/><line x1="304.11" y1="328.30" x2="332.74" y2="339.11"/><line x1="399.74" y1="328.40" x2="394.28" y2="328.71"/><line x1="340.95" y1="286.38" x2="341.32" y2="285.94"/><line x1="438.42" y1="290.00" x2="450.52" y2="167.27"/><line x1="367.61" y1="252.44" x2="370.44" y2="265.81"/><line x1="304.97" y1="327.58" x2="305.26" y2="327.34"/><line x1="311.11" y1="256.75" x2="312.25" y2="258.83"/><line x1="338.80" y1="326.89" x2="337.41" y2="315.45"/><line x1="271.09" y1="355.81" x2="288.75" y2="356.49"/><line x1="341.11" y1="356.24" x2="340.40" y2="355.21"/><line x1="285.68" y1="291.61" x2="277.69" y2="289.60"/><line x1="329.68" y1="246.95" x2="313.35" y2="261.02"/><line x1="66.04" y1="327.25" x2="74.20" y2="330.85"/><line x1="318.64" y1="308.47" x2="318.85" y2="307.88"/><line x1="370.44" y1="265.81" x2="372.60" y2="252.71"/><line x1="314.83" y1="311.55" x2="281.34" y2="317.48"/><line x1="419.30" y1="326.33" x2="414.70" y2="326.95"/><line x1="215.83" y1="298.75" x2="208.41" y2="296.12"/><line x1="314.83" y1="311.55" x2="208.41" y2="296.12"/><line x1="157.14" y1="348.10" x2="171.98" y2="349.65"/><line x1="320.15" y1="303.08" x2="331.10" y2="305.24"/><line x1="331.27" y1="333.14" x2="306.62" y2="326.12"/><line x1="314.83" y1="311.55" x2="145.49" y2="271.00"/><line x1="35.78" y1="259.80" x2="34.30" y2="264.41"/><line x1="277.69" y1="289.60" x2="269.99" y2="287.57"/><line x1="343.24" y1="283.77" x2="318.78" y2="276.67"/><line x1="288.75" y1="356.49" x2="289.48" y2="335.90"/><line x1="54.14" y1="225.91" x2="53.14" y2="229.11"/><line x1="438.06" y1="216.86" x2="440.10" y2="211.36"/><line x1="329.68" y1="313.65" x2="329.73" y2="313.05"/><line x1="418.14" y1="298.89" x2="417.91" y2="307.36"/><line x1="378.08" y1="320.17" x2="371.93" y2="319.65"/><line x1="104.69" y1="339.80" x2="116.65" y2="342.23"/><line x1="332.22" y1="337.24" x2="331.73" y2="335.25"/><line x1="318.78" y1="276.67" x2="343.65" y2="283.34"/><line x1="306.62" y1="326.12" x2="306.89" y2="325.87"/><line x1="63.61" y1="282.78" x2="40.37" y2="305.54"/><line x1="331.61" y1="303.42" x2="331.81" y2="302.82"/><line x1="330.83" y1="330.90" x2="308.41" y2="324.38"/><line x1="417.91" y1="307.36" x2="411.88" y2="298.70"/><line x1="304.11" y1="328.30" x2="335.67" y2="347.00"/><line x1="235.03" y1="277.16" x2="228.63" y2="275.04"/><line x1="320.57" y1="286.54" x2="228.63" y2="275.04"/><line x1="438.42" y1="290.00" x2="443.65" y2="199.62"/><line x1="320.57" y1="286.54" x2="175.99" y2="255.59"/><line x1="330.31" y1="308.86" x2="330.42" y2="308.26"/><line x1="388.01" y1="252.77" x2="388.46" y2="264.07"/><line x1="400.61" y1="321.39" x2="395.25" y2="321.20"/><line x1="208.30" y1="337.15" x2="221.59" y2="338.92"/><line x1="55.33" y1="272.10" x2="32.07" y2="282.79"/><line x1="474.65" y1="297.21" x2="469.29" y2="297.56"/><line x1="228.63" y1="275.04" x2="222.38" y2="272.90"/><line x1="50.59" y1="238.73" x2="49.98" y2="241.96"/><line x1="449.30" y1="173.97" x2="450.52" y2="167.27"/><line x1="314.83" y1="311.55" x2="247.04" y2="308.69"/><line x1="329.93" y1="311.26" x2="330.01" y2="310.66"/><line x1="159.12" y1="276.71" x2="152.30" y2="273.86"/><line x1="332.21" y1="301.61" x2="346.39" y2="291.38"/><line x1="314.83" y1="311.55" x2="179.80" y2="285.20"/><line x1="316.08" y1="243.83" x2="309.93" y2="254.75"/><line x1="354.95" y1="328.18" x2="347.10" y2="327.61"/><line x1="154.79" y1="325.70" x2="167.93" y2="329.10"/><line x1="317.21" y1="270.91" x2="316.34" y2="268.24"/><line x1="53.03" y1="319.03" x2="58.96" y2="323.32"/><line x1="344.88" y1="316.53" x2="338.80" y2="326.89"/><line x1="52.35" y1="227.36" x2="55.16" y2="222.72"/><line x1="392.05" y1="297.46" x2="390.02" y2="307.56"/><line x1="299.53" y1="240.90" x2="300.89" y2="242.51"/><line x1="319.88" y1="304.28" x2="320.02" y2="303.68"/><line x1="320.05" y1="283.07" x2="339.57" y2="288.14"/><line x1="318.78" y1="276.67" x2="345.35" y2="281.63"/><line x1="403.91" y1="251.35" x2="405.60" y2="269.00"/><line x1="382.51" y1="329.02" x2="376.16" y2="329.01"/><line x1="469.29" y1="297.56" x2="463.91" y2="297.89"/><line x1="330.05" y1="326.00" x2="309.61" y2="323.12"/><line x1="258.95" y1="340.69" x2="270.08" y2="339.90"/><line x1="330.95" y1="305.84" x2="320.15" y2="303.08"/><line x1="320.57" y1="286.54" x2="262.54" y2="285.52"/><line x1="35.32" y1="296.48" x2="37.53" y2="301.02"/><line x1="438.42" y1="290.00" x2="433.40" y2="226.96"/><line x1="329.64" y1="314.24" x2="317.72" y2="310.84"/><line x1="320.57" y1="286.54" x2="204.42" y2="266.45"/><line x1="420.66" y1="321.56" x2="419.30" y2="326.33"/><line x1="319.23" y1="306.68" x2="319.41" y2="306.08"/><line x1="365.12" y1="305.90" x2="355.94" y2="304.95"/><line x1="49.99" y1="258.41" x2="35.78" y2="259.80"/><line x1="444.28" y1="321.63" x2="440.31" y2="322.49"/><line x1="314.83" y1="311.55" x2="290.50" y2="319.46"/><line x1="419.30" y1="326.33" x2="415.83" y2="321.59"/><line x1="317.72" y1="310.84" x2="329.68" y2="313.65"/><line x1="314.83" y1="311.55" x2="215.83" y2="298.75"/><line x1="46.88" y1="236.65" x2="44.29" y2="241.28"/><line x1="377.66" y1="252.85" x2="382.79" y2="252.88"/><line x1="314.83" y1="311.55" x2="152.30" y2="273.86"/><line x1="35.78" y1="259.80" x2="50.80" y2="261.78"/><line x1="307.47" y1="250.98" x2="308.71" y2="252.83"/><line x1="451.56" y1="303.30" x2="446.46" y2="304.21"/><line x1="329.68" y1="313.65" x2="317.96" y2="310.25"/><line x1="320.49" y1="301.26" x2="331.61" y2="303.42"/><line x1="361.02" y1="269.88" x2="362.68" y2="252.06"/><line x1="104.69" y1="339.80" x2="118.38" y2="314.14"/><line x1="332.22" y1="337.24" x2="304.69" y2="327.82"/><line x1="404.95" y1="328.00" x2="400.61" y2="321.39"/><line x1="331.73" y1="335.25" x2="305.81" y2="326.85"/><line x1="165.97" y1="279.56" x2="159.12" y2="276.71"/><line x1="320.57" y1="286.54" x2="302.55" y2="295.57"/><line x1="331.61" y1="303.42" x2="320.59" y2="300.66"/><line x1="330.83" y1="330.90" x2="308.16" y2="324.63"/><line x1="320.57" y1="286.54" x2="235.03" y2="277.16"/><line x1="318.03" y1="273.71" x2="317.21" y2="270.91"/><line x1="320.57" y1="286.54" x2="181.60" y2="257.77"/><line x1="400.61" y1="321.39" x2="399.74" y2="328.40"/><line x1="329.86" y1="311.86" x2="329.93" y2="311.26"/><line x1="397.51" y1="307.75" x2="392.05" y2="297.46"/><line x1="55.33" y1="272.10" x2="32.00" y2="278.21"/><line x1="474.65" y1="297.21" x2="470.78" y2="299.13"/><line x1="401.38" y1="267.26" x2="403.91" y2="251.35"/><line x1="57.64" y1="275.61" x2="60.39" y2="279.17"/><line x1="308.16" y1="324.63" x2="308.41" y2="324.38"/><line x1="334.27" y1="247.89" x2="329.68" y2="246.95"/><line x1="314.83" y1="311.55" x2="255.30" y2="311.01"/><line x1="430.22" y1="299.03" x2="424.25" y2="299.00"/><line x1="329.93" y1="311.26" x2="318.64" y2="308.47"/><line x1="314.83" y1="311.55" x2="186.82" y2="287.98"/><line x1="192.91" y1="262.12" x2="187.24" y2="259.95"/><line x1="375.04" y1="264.63" x2="379.58" y2="263.96"/><line x1="154.79" y1="325.70" x2="157.14" y2="348.10"/><line x1="305.81" y1="326.85" x2="306.09" y2="326.61"/><line x1="384.00" y1="320.59" x2="382.51" y2="329.02"/><line x1="470.78" y1="299.13" x2="469.29" y2="297.56"/><line x1="52.35" y1="227.36" x2="54.14" y2="225.91"/><line x1="330.43" y1="328.52" x2="309.61" y2="323.12"/><line x1="187.24" y1="259.95" x2="181.60" y2="257.77"/><line x1="329.68" y1="246.95" x2="314.39" y2="263.31"/><line x1="336.97" y1="349.60" x2="336.31" y2="348.33"/><line x1="338.27" y1="289.91" x2="338.59" y2="289.46"/><line x1="320.05" y1="283.07" x2="339.23" y2="288.58"/><line x1="300.89" y1="242.51" x2="302.23" y2="244.13"/><line x1="382.51" y1="329.02" x2="378.08" y2="320.17"/><line x1="469.29" y1="297.56" x2="466.11" y2="300.23"/><line x1="370.34" y1="295.10" x2="365.12" y2="305.90"/><line x1="320.57" y1="286.54" x2="269.99" y2="287.57"/><line x1="35.32" y1="296.48" x2="63.61" y2="282.78"/><line x1="320.57" y1="286.54" x2="210.29" y2="268.61"/><line x1="417.34" y1="245.71" x2="418.05" y2="275.74"/><line x1="309.61" y1="323.12" x2="314.83" y2="311.55"/><line x1="83.41" y1="334.13" x2="93.59" y2="337.11"/><line x1="319.23" y1="306.68" x2="330.31" y2="308.86"/><line x1="365.12" y1="305.90" x2="362.62" y2="294.02"/><line x1="339.23" y1="288.58" x2="339.57" y2="288.14"/><line x1="203.33" y1="352.22" x2="208.30" y2="337.15"/><line x1="331.27" y1="304.63" x2="331.44" y2="304.03"/><line x1="444.28" y1="321.63" x2="448.23" y2="320.78"/><line x1="67.34" y1="286.43" x2="71.59" y2="290.14"/><line x1="418.05" y1="275.74" x2="422.15" y2="278.39"/><line x1="358.94" y1="318.31" x2="352.05" y2="317.48"/><line x1="314.83" y1="311.55" x2="299.92" y2="321.34"/><line x1="306.19" y1="249.20" x2="307.47" y2="250.98"/><line x1="452.99" y1="298.46" x2="451.56" y2="303.30"/><line x1="46.88" y1="236.65" x2="50.59" y2="238.73"/><line x1="339.57" y1="288.14" x2="339.90" y2="287.70"/><line x1="353.02" y1="251.01" x2="361.02" y2="269.88"/><line x1="332.74" y1="339.11" x2="332.22" y2="337.24"/><line x1="51.94" y1="265.19" x2="53.44" y2="268.62"/><line x1="307.47" y1="250.98" x2="316.08" y2="243.83"/><line x1="236.52" y1="354.23" x2="253.66" y2="355.07"/><line x1="330.67" y1="307.05" x2="330.81" y2="306.45"/><line x1="451.56" y1="303.30" x2="447.44" y2="298.68"/><line x1="338.27" y1="289.91" x2="320.57" y2="286.54"/><line x1="71.59" y1="290.14" x2="53.03" y2="319.03"/><line x1="253.66" y1="355.07" x2="271.09" y2="355.81"/><line x1="361.02" y1="269.88" x2="357.82" y2="251.58"/><line x1="427.81" y1="235.69" x2="434.36" y2="287.01"/><line x1="430.06" y1="321.39" x2="425.40" y2="321.49"/><line x1="332.22" y1="337.24" x2="304.40" y2="328.06"/><line x1="255.30" y1="311.01" x2="247.04" y2="308.69"/><line x1="435.72" y1="305.78" x2="430.03" y2="306.42"/><line x1="331.73" y1="335.25" x2="305.53" y2="327.09"/><line x1="39.59" y1="250.55" x2="49.49" y2="255.07"/><line x1="320.57" y1="286.54" x2="311.48" y2="297.52"/><line x1="341.32" y1="285.94" x2="341.68" y2="285.50"/><line x1="320.57" y1="286.54" x2="241.60" y2="279.27"/><line x1="320.67" y1="300.05" x2="320.75" y2="299.44"/><line x1="434.36" y1="287.01" x2="438.42" y2="290.00"/><line x1="312.25" y1="258.83" x2="325.12" y2="245.95"/><line x1="330.05" y1="326.00" x2="317.19" y2="312.02"/><line x1="247.04" y1="308.69" x2="238.99" y2="306.30"/><line x1="89.51" y1="301.80" x2="98.06" y2="305.90"/><line x1="341.68" y1="285.50" x2="342.07" y2="285.07"/><line x1="320.75" y1="299.44" x2="311.48" y2="297.52"/><line x1="57.64" y1="275.61" x2="33.69" y2="291.93"/><line x1="325.12" y1="245.95" x2="313.35" y2="261.02"/><line x1="320.27" y1="302.47" x2="320.39" y2="301.87"/><line x1="430.22" y1="299.03" x2="430.03" y2="306.42"/><line x1="318.85" y1="307.88" x2="319.04" y2="307.28"/><line x1="306.58" y1="357.11" x2="304.11" y2="328.30"/><line x1="375.04" y1="264.63" x2="377.66" y2="252.85"/><line x1="414.70" y1="326.95" x2="409.93" y2="327.51"/><line x1="305.81" y1="326.85" x2="331.27" y2="333.14"/><line x1="330.20" y1="309.46" x2="319.23" y2="306.68"/><line x1="34.30" y1="264.41" x2="33.15" y2="269.02"/><line x1="262.54" y1="285.52" x2="255.34" y2="283.45"/><line x1="53.14" y1="229.11" x2="52.19" y2="232.30"/><line x1="441.95" y1="205.61" x2="443.65" y2="199.62"/><line x1="443.73" y1="320.94" x2="444.28" y2="321.63"/><line x1="338.27" y1="289.91" x2="320.05" y2="283.07"/><line x1="329.73" y1="313.05" x2="329.80" y2="312.46"/><line x1="411.43" y1="307.64" x2="404.64" y2="307.77"/><line x1="51.34" y1="235.51" x2="46.88" y2="236.65"/><line x1="371.93" y1="319.65" x2="365.56" y2="319.03"/><line x1="116.65" y1="342.23" x2="129.42" y2="344.42"/><line x1="393.30" y1="252.51" x2="397.12" y2="265.83"/><line x1="307.40" y1="325.37" x2="307.66" y2="325.13"/><line x1="333.29" y1="340.87" x2="332.74" y2="339.11"/><line x1="362.40" y1="328.59" x2="358.94" y2="318.31"/><line x1="331.81" y1="302.82" x2="332.00" y2="302.21"/><line x1="129.87" y1="318.16" x2="142.06" y2="322.03"/><line x1="48.09" y1="314.55" x2="71.59" y2="290.14"/><line x1="395.25" y1="321.20" x2="389.72" y2="320.94"/><line x1="358.94" y1="318.31" x2="354.95" y2="328.18"/><line x1="319.73" y1="304.88" x2="330.67" y2="307.05"/><line x1="32.07" y1="282.79" x2="32.62" y2="287.37"/><line x1="247.07" y1="340.75" x2="253.66" y2="355.07"/><line x1="432.20" y1="324.13" x2="430.06" y2="321.39"/></g></svg>