<svg xmlns="http://www.w3.org/2000/svg" width="512" height="512"><rect width="512" height="512" fill="#0a0f1a"/><text x="12" y="20" font-family="monospace" font-size="11" fill="#4a7fa5">FRONT (XZ)</text><g stroke="#00d4ff" stroke-width="0.6" opacity="0.85"><line x1="115.95" y1="89.32" x2="109.36" y2="83.80"/><line x1="203.69" y1="148.06" x2="210.30" y2="139.23"/><line x1="89.14" y1="47.64" x2="80.82" y2="51.31"/><line x1="276.13" y1="339.37" x2="260.95" y2="357.33"/><line x1="381.44" y1="373.93" x2="391.66" y2="389.22"/><line x1="432.21" y1="447.28" x2="437.64" y2="452.09"/><line x1="162.83" y1="230.49" x2="180.01" y2="217.28"/><line x1="237.63" y1="112.12" x2="232.72" y2="72.71"/><line x1="260.95" y1="357.33" x2="281.79" y2="358.16"/><line x1="375.00" y1="388.72" x2="387.32" y2="401.86"/><line x1="305.58" y1="241.34" x2="283.93" y2="258.76"/><line x1="318.47" y1="132.05" x2="338.60" y2="105.76"/><line x1="73.41" y1="38.96" x2="74.36" y2="35.06"/><line x1="283.93" y1="258.76" x2="316.02" y2="262.32"/><line x1="158.29" y1="194.65" x2="183.65" y2="191.21"/><line x1="324.82" y1="97.54" x2="289.75" y2="136.70"/><line x1="74.36" y1="35.06" x2="71.92" y2="35.94"/><line x1="284.10" y1="404.47" x2="298.85" y2="408.97"/><line x1="354.89" y1="177.53" x2="352.00" y2="175.69"/><line x1="369.68" y1="123.13" x2="375.38" y2="123.60"/><line x1="183.65" y1="191.21" x2="159.10" y2="186.26"/><line x1="156.98" y1="112.71" x2="147.68" y2="108.85"/><line x1="289.75" y1="136.70" x2="284.84" y2="131.57"/><line x1="187.34" y1="179.27" x2="192.04" y2="168.09"/><line x1="298.85" y1="408.97" x2="292.06" y2="418.93"/><line x1="329.70" y1="124.66" x2="332.42" y2="123.94"/><line x1="147.68" y1="108.85" x2="154.11" y2="81.17"/><line x1="381.43" y1="124.19" x2="387.83" y2="124.86"/><line x1="325.81" y1="329.20" x2="348.88" y2="321.78"/><line x1="273.29" y1="117.39" x2="270.41" y2="113.24"/><line x1="231.57" y1="170.77" x2="243.71" y2="172.41"/><line x1="360.12" y1="180.61" x2="357.61" y2="179.18"/><line x1="339.63" y1="166.81" x2="336.52" y2="164.33"/><line x1="167.48" y1="155.97" x2="197.55" y2="157.69"/><line x1="270.41" y1="113.24" x2="305.44" y2="82.02"/><line x1="314.82" y1="457.97" x2="318.46" y2="459.33"/><line x1="352.12" y1="112.38" x2="350.12" y2="122.28"/><line x1="115.95" y1="89.32" x2="124.93" y2="71.42"/><line x1="251.87" y1="236.73" x2="255.89" y2="258.02"/><line x1="381.44" y1="373.93" x2="375.00" y2="388.72"/><line x1="182.86" y1="127.90" x2="185.69" y2="123.93"/><line x1="350.12" y1="122.28" x2="354.53" y2="122.33"/><line x1="263.11" y1="100.87" x2="262.21" y2="99.10"/><line x1="262.76" y1="132.20" x2="256.40" y2="155.86"/><line x1="370.12" y1="119.52" x2="375.11" y2="121.20"/><line x1="101.66" y1="57.43" x2="88.27" y2="61.50"/><line x1="262.21" y1="99.10" x2="261.64" y2="97.96"/><line x1="410.94" y1="426.01" x2="421.94" y2="437.01"/><line x1="249.29" y1="103.66" x2="248.72" y2="66.03"/><line x1="176.93" y1="258.83" x2="171.04" y2="249.31"/><line x1="322.91" y1="151.37" x2="320.85" y2="148.83"/><line x1="265.61" y1="57.47" x2="260.20" y2="97.66"/><line x1="265.35" y1="299.70" x2="270.62" y2="319.84"/><line x1="418.67" y1="427.44" x2="426.05" y2="437.30"/><line x1="369.68" y1="123.13" x2="375.11" y2="121.20"/><line x1="247.44" y1="323.12" x2="253.92" y2="340.47"/><line x1="286.21" y1="198.23" x2="295.60" y2="219.95"/><line x1="192.04" y1="168.09" x2="167.48" y2="155.97"/><line x1="83.70" y1="43.03" x2="75.38" y2="42.58"/><line x1="237.63" y1="112.12" x2="243.78" y2="107.46"/><line x1="268.72" y1="219.55" x2="275.72" y2="239.48"/><line x1="314.15" y1="448.96" x2="314.82" y2="457.97"/><line x1="346.01" y1="122.37" x2="352.12" y2="112.38"/><line x1="123.07" y1="94.66" x2="115.95" y2="89.32"/><line x1="268.42" y1="373.63" x2="276.17" y2="389.37"/><line x1="360.12" y1="180.61" x2="362.39" y2="181.81"/><line x1="362.54" y1="374.89" x2="381.44" y2="373.93"/><line x1="287.53" y1="376.10" x2="293.25" y2="393.07"/><line x1="228.06" y1="230.13" x2="251.87" y2="236.73"/><line x1="315.28" y1="157.83" x2="325.25" y2="153.96"/><line x1="284.84" y1="131.57" x2="280.48" y2="126.61"/><line x1="179.83" y1="132.47" x2="182.86" y2="127.90"/><line x1="251.87" y1="236.73" x2="229.76" y2="249.43"/><line x1="303.36" y1="295.32" x2="314.28" y2="312.60"/><line x1="255.69" y1="133.35" x2="262.76" y2="132.20"/><line x1="341.35" y1="172.91" x2="345.91" y2="171.51"/><line x1="325.25" y1="153.96" x2="322.91" y2="151.37"/><line x1="318.08" y1="92.80" x2="311.59" y2="87.63"/><line x1="182.86" y1="127.90" x2="210.30" y2="139.23"/><line x1="301.28" y1="147.24" x2="295.22" y2="141.94"/><line x1="97.78" y1="72.54" x2="101.66" y2="57.43"/><line x1="262.76" y1="132.20" x2="256.94" y2="110.21"/><line x1="410.40" y1="416.08" x2="410.94" y2="426.01"/><line x1="177.26" y1="118.65" x2="166.84" y2="116.00"/><line x1="331.95" y1="168.06" x2="323.27" y2="163.02"/><line x1="370.12" y1="119.52" x2="369.68" y2="123.13"/><line x1="101.66" y1="57.43" x2="92.77" y2="66.95"/><line x1="299.92" y1="432.69" x2="307.55" y2="445.72"/><line x1="241.65" y1="305.30" x2="265.35" y2="299.70"/><line x1="410.94" y1="426.01" x2="418.67" y2="427.44"/><line x1="176.93" y1="258.83" x2="182.56" y2="246.22"/><line x1="143.68" y1="78.62" x2="133.96" y2="75.33"/><line x1="224.14" y1="124.01" x2="231.02" y2="117.64"/><line x1="265.61" y1="57.47" x2="283.40" y2="46.89"/><line x1="265.35" y1="299.70" x2="247.44" y2="323.12"/><line x1="359.93" y1="340.11" x2="370.82" y2="357.52"/><line x1="263.06" y1="198.97" x2="286.21" y2="198.23"/><line x1="323.27" y1="163.02" x2="315.28" y2="157.83"/><line x1="180.01" y1="217.28" x2="158.82" y2="212.18"/><line x1="316.71" y1="141.69" x2="316.14" y2="139.55"/><line x1="231.02" y1="117.64" x2="217.59" y2="77.65"/><line x1="80.82" y1="51.31" x2="83.70" y2="43.03"/><line x1="286.21" y1="198.23" x2="268.72" y2="219.55"/><line x1="437.64" y1="452.09" x2="441.59" y2="456.83"/><line x1="385.59" y1="124.30" x2="387.25" y2="124.73"/><line x1="83.70" y1="43.03" x2="77.85" y2="46.73"/><line x1="281.79" y1="358.16" x2="268.42" y2="373.63"/><line x1="160.35" y1="221.25" x2="158.82" y2="212.18"/><line x1="261.35" y1="97.50" x2="286.31" y2="54.89"/><line x1="268.42" y1="373.63" x2="287.53" y2="376.10"/><line x1="307.96" y1="152.56" x2="301.28" y2="147.24"/><line x1="319.78" y1="130.44" x2="321.30" y2="128.98"/><line x1="293.20" y1="277.38" x2="303.36" y2="295.32"/><line x1="160.51" y1="178.16" x2="162.44" y2="170.40"/><line x1="154.11" y1="81.17" x2="143.68" y2="78.62"/><line x1="284.84" y1="131.57" x2="318.08" y2="92.80"/><line x1="70.93" y1="33.59" x2="70.41" y2="32.00"/><line x1="304.26" y1="423.65" x2="309.39" y2="437.02"/><line x1="180.41" y1="231.40" x2="180.01" y2="217.28"/><line x1="341.35" y1="172.91" x2="349.00" y2="173.67"/><line x1="299.74" y1="75.95" x2="294.58" y2="69.41"/><line x1="138.93" y1="104.50" x2="130.73" y2="99.75"/><line x1="301.28" y1="147.24" x2="331.69" y2="101.85"/><line x1="337.80" y1="345.12" x2="350.09" y2="360.35"/><line x1="177.26" y1="118.65" x2="177.16" y2="83.43"/><line x1="197.55" y1="157.69" x2="173.52" y2="143.24"/><line x1="305.44" y1="82.02" x2="265.97" y2="106.10"/><line x1="228.83" y1="190.77" x2="227.70" y2="210.57"/><line x1="333.49" y1="161.77" x2="330.58" y2="159.18"/><line x1="188.24" y1="120.58" x2="177.26" y2="118.65"/><line x1="322.21" y1="468.05" x2="325.34" y2="474.98"/><line x1="338.60" y1="105.76" x2="342.19" y2="122.57"/><line x1="323.27" y1="163.02" x2="327.82" y2="156.57"/><line x1="354.53" y1="122.33" x2="359.26" y2="122.48"/><line x1="180.01" y1="217.28" x2="160.35" y2="221.25"/><line x1="109.36" y1="83.80" x2="103.31" y2="78.19"/><line x1="315.28" y1="157.83" x2="307.96" y2="152.56"/><line x1="321.59" y1="469.41" x2="327.74" y2="480.00"/><line x1="301.28" y1="147.24" x2="317.36" y2="133.82"/><line x1="391.66" y1="389.22" x2="401.35" y2="403.31"/><line x1="311.59" y1="87.63" x2="305.44" y2="82.02"/><line x1="358.52" y1="115.12" x2="364.55" y2="117.50"/><line x1="177.16" y1="83.43" x2="166.84" y2="116.00"/><line x1="255.89" y1="258.02" x2="260.41" y2="279.05"/><line x1="387.32" y1="401.86" x2="399.35" y2="414.29"/><line x1="316.02" y1="262.32" x2="293.20" y2="277.38"/><line x1="320.85" y1="148.83" x2="319.10" y2="146.36"/><line x1="261.35" y1="97.50" x2="290.07" y2="62.40"/><line x1="232.68" y1="268.41" x2="236.69" y2="287.05"/><line x1="71.92" y1="35.94" x2="70.93" y2="33.59"/><line x1="256.40" y1="155.86" x2="258.91" y2="177.73"/><line x1="307.96" y1="152.56" x2="317.71" y2="143.97"/><line x1="375.11" y1="121.20" x2="379.41" y2="122.55"/><line x1="159.10" y1="186.26" x2="160.51" y2="178.16"/><line x1="88.27" y1="61.50" x2="84.29" y2="56.26"/><line x1="269.67" y1="154.26" x2="277.52" y2="176.31"/><line x1="292.06" y1="418.93" x2="304.26" y2="423.65"/><line x1="338.60" y1="105.76" x2="327.24" y2="125.53"/><line x1="421.94" y1="437.01" x2="432.41" y2="445.55"/><line x1="171.04" y1="249.31" x2="166.36" y2="239.85"/><line x1="375.38" y1="123.60" x2="381.43" y2="124.19"/><line x1="260.20" y1="97.66" x2="257.69" y2="98.75"/><line x1="95.12" y1="52.49" x2="89.14" y2="47.64"/><line x1="154.11" y1="81.17" x2="138.93" y2="104.50"/><line x1="270.62" y1="319.84" x2="276.13" y2="339.37"/><line x1="304.26" y1="423.65" x2="299.92" y2="432.69"/><line x1="299.74" y1="75.95" x2="261.35" y2="97.50"/><line x1="335.40" y1="123.35" x2="338.65" y2="122.89"/><line x1="248.72" y1="66.03" x2="253.99" y2="100.76"/><line x1="138.93" y1="104.50" x2="143.68" y2="78.62"/><line x1="253.92" y1="340.47" x2="260.95" y2="357.33"/><line x1="243.71" y1="172.41" x2="228.83" y2="190.77"/><line x1="351.49" y1="177.51" x2="354.89" y2="177.53"/><line x1="337.80" y1="345.12" x2="359.93" y2="340.11"/><line x1="181.15" y1="203.88" x2="183.65" y2="191.21"/><line x1="197.55" y1="157.69" x2="170.42" y2="149.37"/><line x1="305.44" y1="82.02" x2="267.98" y2="109.46"/><line x1="228.83" y1="190.77" x2="245.70" y2="193.80"/><line x1="275.72" y1="239.48" x2="283.93" y2="258.76"/><line x1="318.46" y1="459.33" x2="322.21" y2="468.05"/><line x1="333.49" y1="161.77" x2="323.27" y2="163.02"/><line x1="331.69" y1="101.85" x2="324.82" y2="97.54"/><line x1="170.42" y1="149.37" x2="173.52" y2="143.24"/><line x1="78.78" y1="38.78" x2="74.36" y2="35.06"/><line x1="124.93" y1="71.42" x2="109.36" y2="83.80"/><line x1="322.21" y1="468.05" x2="321.59" y2="469.41"/><line x1="338.60" y1="105.76" x2="338.65" y2="122.89"/><line x1="165.26" y1="82.81" x2="154.11" y2="81.17"/><line x1="354.53" y1="122.33" x2="358.52" y2="115.12"/><line x1="236.05" y1="150.61" x2="231.57" y2="170.77"/><line x1="109.36" y1="83.80" x2="116.55" y2="67.04"/><line x1="352.00" y1="175.69" x2="341.35" y2="172.91"/><line x1="229.76" y1="249.43" x2="255.89" y2="258.02"/><line x1="301.28" y1="147.24" x2="316.46" y2="135.75"/><line x1="391.66" y1="389.22" x2="387.32" y2="401.86"/><line x1="311.59" y1="87.63" x2="270.41" y2="113.24"/><line x1="210.30" y1="139.23" x2="185.69" y2="123.93"/><line x1="242.59" y1="151.22" x2="243.71" y2="172.41"/><line x1="261.64" y1="97.96" x2="261.35" y2="97.50"/><line x1="255.89" y1="258.02" x2="232.68" y2="268.41"/><line x1="332.42" y1="123.94" x2="335.40" y2="123.35"/><line x1="182.56" y1="246.22" x2="180.41" y2="231.40"/><line x1="320.85" y1="148.83" x2="307.96" y2="152.56"/><line x1="185.69" y1="123.93" x2="188.24" y2="120.58"/><line x1="348.88" y1="321.78" x2="337.80" y2="345.12"/><line x1="256.40" y1="155.86" x2="269.67" y2="154.26"/><line x1="133.96" y1="75.33" x2="124.93" y2="71.42"/><line x1="375.11" y1="121.20" x2="375.38" y2="123.60"/><line x1="88.27" y1="61.50" x2="95.12" y2="52.49"/><line x1="336.52" y1="164.33" x2="333.49" y2="161.77"/><line x1="338.60" y1="105.76" x2="325.03" y2="126.53"/><line x1="421.94" y1="437.01" x2="426.05" y2="437.30"/><line x1="203.69" y1="148.06" x2="182.86" y2="127.90"/><line x1="171.04" y1="249.31" x2="180.41" y2="231.40"/><line x1="260.20" y1="97.66" x2="248.72" y2="66.03"/><line x1="270.62" y1="319.84" x2="253.92" y2="340.47"/><line x1="295.60" y1="219.95" x2="305.58" y2="241.34"/><line x1="186.60" y1="261.74" x2="182.56" y2="246.22"/><line x1="158.82" y1="212.18" x2="158.16" y2="203.30"/><line x1="316.04" y1="137.56" x2="316.46" y2="135.75"/><line x1="299.74" y1="75.95" x2="261.64" y2="97.96"/><line x1="375.00" y1="388.72" x2="391.66" y2="389.22"/><line x1="75.38" y1="42.58" x2="73.41" y2="38.96"/><line x1="351.49" y1="177.51" x2="357.61" y2="179.18"/><line x1="181.15" y1="203.88" x2="158.29" y2="194.65"/><line x1="276.17" y1="389.37" x2="284.10" y2="404.47"/><line x1="203.30" y1="80.99" x2="189.83" y2="82.87"/><line x1="326.80" y1="282.79" x2="337.79" y2="302.64"/><line x1="338.60" y1="105.76" x2="335.40" y2="123.35"/><line x1="187.34" y1="179.27" x2="164.80" y2="162.99"/><line x1="280.48" y1="126.61" x2="276.64" y2="121.86"/><line x1="236.05" y1="150.61" x2="242.41" y2="130.34"/><line x1="381.43" y1="124.19" x2="387.25" y2="124.73"/><line x1="311.59" y1="87.63" x2="273.29" y2="117.39"/><line x1="92.77" y1="66.95" x2="88.27" y2="61.50"/><line x1="309.39" y1="437.02" x2="314.15" y2="448.96"/><line x1="342.77" y1="169.22" x2="339.63" y2="166.81"/><line x1="232.72" y1="72.71" x2="249.29" y2="103.66"/><line x1="342.19" y1="122.57" x2="346.01" y2="122.37"/><line x1="182.56" y1="246.22" x2="171.04" y2="249.31"/><line x1="130.73" y1="99.75" x2="123.07" y2="94.66"/><line x1="350.09" y1="360.35" x2="362.54" y2="374.89"/><line x1="345.44" y1="109.26" x2="352.12" y2="112.38"/><line x1="227.70" y1="210.57" x2="228.06" y2="230.13"/><line x1="338.60" y1="105.76" x2="323.04" y2="127.69"/><line x1="203.69" y1="148.06" x2="179.83" y2="132.47"/><line x1="264.35" y1="103.23" x2="263.11" y2="100.87"/><line x1="77.85" y1="46.73" x2="75.38" y2="42.58"/><line x1="295.60" y1="219.95" x2="275.72" y2="239.48"/><line x1="186.60" y1="261.74" x2="176.93" y2="258.83"/><line x1="327.82" y1="156.57" x2="325.25" y2="153.96"/><line x1="359.26" y1="122.48" x2="364.30" y2="122.75"/><line x1="158.82" y1="212.18" x2="181.15" y2="203.88"/><line x1="260.41" y1="279.05" x2="265.35" y2="299.70"/><line x1="401.35" y1="403.31" x2="410.40" y2="416.08"/><line x1="351.49" y1="177.51" x2="362.39" y2="181.81"/><line x1="364.55" y1="117.50" x2="370.12" y2="119.52"/><line x1="243.78" y1="107.46" x2="249.29" y2="103.66"/><line x1="399.35" y1="414.29" x2="410.94" y2="426.01"/><line x1="203.30" y1="80.99" x2="217.59" y2="77.65"/><line x1="323.04" y1="127.69" x2="325.03" y2="126.53"/><line x1="418.67" y1="427.44" x2="421.94" y2="437.01"/><line x1="326.80" y1="282.79" x2="314.28" y2="312.60"/><line x1="317.71" y1="143.97" x2="316.71" y2="141.69"/><line x1="247.44" y1="323.12" x2="270.62" y2="319.84"/><line x1="187.34" y1="179.27" x2="162.44" y2="170.40"/><line x1="280.48" y1="126.61" x2="311.59" y2="87.63"/><line x1="316.14" y1="139.55" x2="316.04" y2="137.56"/><line x1="277.52" y1="176.31" x2="286.21" y2="198.23"/><line x1="345.91" y1="171.51" x2="342.77" y2="169.22"/><line x1="381.43" y1="124.19" x2="385.59" y2="124.30"/><line x1="268.72" y1="219.55" x2="295.60" y2="219.95"/><line x1="309.39" y1="437.02" x2="307.55" y2="445.72"/><line x1="387.25" y1="124.73" x2="387.83" y2="124.86"/><line x1="232.72" y1="72.71" x2="243.78" y2="107.46"/><line x1="173.52" y1="143.24" x2="176.68" y2="137.59"/><line x1="342.19" y1="122.57" x2="345.44" y2="109.26"/><line x1="360.12" y1="180.61" x2="351.49" y2="177.51"/><line x1="350.09" y1="360.35" x2="370.82" y2="357.52"/><line x1="287.53" y1="376.10" x2="276.17" y2="389.37"/><line x1="324.82" y1="97.54" x2="318.08" y2="92.80"/><line x1="74.36" y1="35.06" x2="70.41" y2="32.00"/><line x1="265.97" y1="106.10" x2="264.35" y2="103.23"/><line x1="227.70" y1="210.57" x2="248.44" y2="215.28"/><line x1="321.30" y1="128.98" x2="323.04" y2="127.69"/><line x1="183.65" y1="191.21" x2="187.34" y2="179.27"/><line x1="330.58" y1="159.18" x2="327.82" y2="156.57"/><line x1="303.36" y1="295.32" x2="326.80" y2="282.79"/><line x1="103.31" y1="78.19" x2="97.78" y2="72.54"/><line x1="325.34" y1="474.98" x2="327.74" y2="480.00"/><line x1="318.08" y1="92.80" x2="280.48" y2="126.61"/><line x1="186.60" y1="261.74" x2="192.74" y2="277.93"/><line x1="359.26" y1="122.48" x2="364.55" y2="117.50"/><line x1="349.00" y1="173.67" x2="345.91" y2="171.51"/><line x1="260.41" y1="279.05" x2="241.65" y2="305.30"/><line x1="331.95" y1="168.06" x2="333.49" y2="161.77"/><line x1="401.35" y1="403.31" x2="399.35" y2="414.29"/><line x1="299.92" y1="432.69" x2="309.39" y2="437.02"/><line x1="217.17" y1="131.21" x2="224.14" y2="124.01"/><line x1="294.58" y1="69.41" x2="290.07" y2="62.40"/><line x1="338.65" y1="122.89" x2="342.19" y2="122.57"/><line x1="258.91" y1="177.73" x2="263.06" y2="198.97"/><line x1="143.68" y1="78.62" x2="130.73" y2="99.75"/><line x1="245.70" y1="193.80" x2="248.44" y2="215.28"/><line x1="379.41" y1="122.55" x2="382.94" y2="123.58"/><line x1="359.93" y1="340.11" x2="350.09" y2="360.35"/><line x1="84.29" y1="56.26" x2="80.82" y2="51.31"/><line x1="314.82" y1="457.97" x2="321.59" y2="469.41"/><line x1="267.98" y1="109.46" x2="265.97" y2="106.10"/><line x1="432.41" y1="445.55" x2="437.64" y2="452.09"/><line x1="352.12" y1="112.38" x2="358.52" y2="115.12"/><line x1="276.13" y1="339.37" x2="281.79" y2="358.16"/><line x1="116.55" y1="67.04" x2="108.80" y2="62.33"/><line x1="305.58" y1="241.34" x2="316.02" y2="262.32"/><line x1="295.22" y1="141.94" x2="289.75" y2="136.70"/><line x1="173.52" y1="143.24" x2="203.69" y2="148.06"/><line x1="73.41" y1="38.96" x2="71.92" y2="35.94"/><line x1="188.24" y1="120.58" x2="203.30" y2="80.99"/><line x1="249.29" y1="103.66" x2="253.99" y2="100.76"/><line x1="158.29" y1="194.65" x2="159.10" y2="186.26"/><line x1="284.10" y1="404.47" x2="292.06" y2="418.93"/><line x1="160.51" y1="178.16" x2="187.34" y2="179.27"/><line x1="231.02" y1="117.64" x2="237.63" y2="112.12"/><line x1="180.41" y1="231.40" x2="162.83" y2="230.49"/><line x1="337.79" y1="302.64" x2="348.88" y2="321.78"/><line x1="232.72" y1="72.71" x2="248.72" y2="66.03"/><line x1="331.95" y1="168.06" x2="336.52" y2="164.33"/><line x1="261.35" y1="97.50" x2="260.20" y2="97.66"/><line x1="188.24" y1="120.58" x2="189.83" y2="82.87"/><line x1="166.84" y1="116.00" x2="156.98" y2="112.71"/><line x1="245.70" y1="193.80" x2="227.70" y2="210.57"/><line x1="379.41" y1="122.55" x2="381.43" y2="124.19"/><line x1="323.27" y1="163.02" x2="330.58" y2="159.18"/><line x1="315.28" y1="157.83" x2="320.85" y2="148.83"/><line x1="352.12" y1="112.38" x2="354.53" y2="122.33"/><line x1="321.59" y1="469.41" x2="325.34" y2="474.98"/><line x1="257.69" y1="98.75" x2="253.99" y2="100.76"/><line x1="255.69" y1="133.35" x2="256.40" y2="155.86"/><line x1="341.35" y1="172.91" x2="331.95" y2="168.06"/><line x1="358.52" y1="115.12" x2="359.26" y2="122.48"/><line x1="116.55" y1="67.04" x2="103.31" y2="78.19"/><line x1="317.36" y1="133.82" x2="318.47" y2="132.05"/><line x1="387.32" y1="401.86" x2="401.35" y2="403.31"/><line x1="262.76" y1="132.20" x2="269.67" y2="154.26"/><line x1="261.35" y1="97.50" x2="294.58" y2="69.41"/><line x1="232.68" y1="268.41" x2="260.41" y2="279.05"/><line x1="101.66" y1="57.43" x2="95.12" y2="52.49"/><line x1="295.22" y1="141.94" x2="324.82" y2="97.54"/><line x1="307.96" y1="152.56" x2="319.10" y2="146.36"/><line x1="188.24" y1="120.58" x2="217.17" y2="131.21"/><line x1="357.61" y1="179.18" x2="354.89" y2="177.53"/><line x1="269.67" y1="154.26" x2="258.91" y2="177.73"/><line x1="265.61" y1="57.47" x2="248.72" y2="66.03"/><line x1="375.38" y1="123.60" x2="379.41" y2="122.55"/><line x1="95.12" y1="52.49" x2="84.29" y2="56.26"/><line x1="327.24" y1="125.53" x2="329.70" y2="124.66"/><line x1="426.05" y1="437.30" x2="432.41" y2="445.55"/><line x1="180.41" y1="231.40" x2="166.36" y2="239.85"/><line x1="337.79" y1="302.64" x2="325.81" y2="329.20"/><line x1="248.72" y1="66.03" x2="257.69" y2="98.75"/><line x1="253.92" y1="340.47" x2="276.13" y2="339.37"/><line x1="177.16" y1="83.43" x2="165.26" y2="82.81"/><line x1="192.04" y1="168.09" x2="197.55" y2="157.69"/><line x1="83.70" y1="43.03" x2="78.78" y2="38.78"/><line x1="316.46" y1="135.75" x2="317.36" y2="133.82"/><line x1="314.15" y1="448.96" x2="318.46" y2="459.33"/><line x1="331.95" y1="168.06" x2="339.63" y2="166.81"/><line x1="346.01" y1="122.37" x2="350.12" y2="122.28"/><line x1="275.72" y1="239.48" x2="305.58" y2="241.34"/><line x1="331.69" y1="101.85" x2="295.22" y2="141.94"/><line x1="362.54" y1="374.89" x2="375.00" y2="388.72"/><line x1="78.78" y1="38.78" x2="73.41" y2="38.96"/><line x1="293.25" y1="393.07" x2="298.85" y2="408.97"/><line x1="166.84" y1="116.00" x2="165.26" y2="82.81"/><line x1="228.06" y1="230.13" x2="229.76" y2="249.43"/><line x1="165.26" y1="82.81" x2="147.68" y2="108.85"/><line x1="315.28" y1="157.83" x2="322.91" y2="151.37"/><line x1="314.28" y1="312.60" x2="325.81" y2="329.20"/><line x1="301.28" y1="147.24" x2="316.04" y2="137.56"/><line x1="325.03" y1="126.53" x2="327.24" y2="125.53"/><line x1="255.69" y1="133.35" x2="256.94" y2="110.21"/><line x1="341.35" y1="172.91" x2="342.77" y2="169.22"/><line x1="242.59" y1="151.22" x2="231.57" y2="170.77"/><line x1="97.78" y1="72.54" x2="92.77" y2="66.95"/><line x1="164.80" y1="162.99" x2="167.48" y2="155.97"/><line x1="410.40" y1="416.08" x2="418.67" y2="427.44"/><line x1="307.55" y1="445.72" x2="314.82" y2="457.97"/><line x1="305.44" y1="82.02" x2="299.74" y2="75.95"/><line x1="241.65" y1="305.30" x2="247.44" y2="323.12"/><line x1="133.96" y1="75.33" x2="115.95" y2="89.32"/><line x1="276.64" y1="121.86" x2="273.29" y2="117.39"/><line x1="370.82" y1="357.52" x2="381.44" y2="373.93"/><line x1="263.06" y1="198.97" x2="268.72" y2="219.55"/><line x1="189.83" y1="82.87" x2="177.26" y2="118.65"/><line x1="248.44" y1="215.28" x2="251.87" y2="236.73"/><line x1="180.01" y1="217.28" x2="181.15" y2="203.88"/><line x1="338.60" y1="105.76" x2="331.69" y2="101.85"/><line x1="80.82" y1="51.31" x2="77.85" y2="46.73"/><line x1="301.28" y1="147.24" x2="338.60" y2="105.76"/><line x1="299.74" y1="75.95" x2="262.21" y2="99.10"/><line x1="75.38" y1="42.58" x2="78.78" y2="38.78"/><line x1="281.79" y1="358.16" x2="287.53" y2="376.10"/><line x1="181.15" y1="203.88" x2="158.16" y2="203.30"/><line x1="316.02" y1="262.32" x2="326.80" y2="282.79"/><line x1="108.80" y1="62.33" x2="101.66" y2="57.43"/><line x1="276.17" y1="389.37" x2="293.25" y2="393.07"/><line x1="261.35" y1="97.50" x2="265.61" y2="57.47"/><line x1="184.13" y1="268.38" x2="176.93" y2="258.83"/><line x1="364.30" y1="122.75" x2="369.68" y2="123.13"/><line x1="158.16" y1="203.30" x2="158.29" y2="194.65"/><line x1="293.25" y1="393.07" x2="284.10" y2="404.47"/><line x1="338.60" y1="105.76" x2="332.42" y2="123.94"/><line x1="286.31" y1="54.89" x2="283.40" y2="46.89"/><line x1="165.26" y1="82.81" x2="156.98" y2="112.71"/><line x1="236.05" y1="150.61" x2="242.59" y2="151.22"/><line x1="314.28" y1="312.60" x2="337.79" y2="302.64"/><line x1="301.28" y1="147.24" x2="316.14" y2="139.55"/><line x1="162.44" y1="170.40" x2="164.80" y2="162.99"/><line x1="311.59" y1="87.63" x2="276.64" y2="121.86"/><line x1="242.59" y1="151.22" x2="242.41" y2="130.34"/><line x1="342.77" y1="169.22" x2="331.95" y2="168.06"/><line x1="351.49" y1="177.51" x2="341.35" y2="172.91"/><line x1="164.80" y1="162.99" x2="192.04" y2="168.09"/><line x1="130.73" y1="99.75" x2="133.96" y2="75.33"/><line x1="197.55" y1="157.69" x2="203.69" y2="148.06"/><line x1="307.55" y1="445.72" x2="314.15" y2="448.96"/><line x1="305.44" y1="82.02" x2="264.35" y2="103.23"/><line x1="345.44" y1="109.26" x2="346.01" y2="122.37"/><line x1="133.96" y1="75.33" x2="123.07" y2="94.66"/><line x1="370.82" y1="357.52" x2="362.54" y2="374.89"/><line x1="338.60" y1="105.76" x2="321.30" y2="128.98"/><line x1="203.69" y1="148.06" x2="176.68" y2="137.59"/><line x1="338.60" y1="105.76" x2="345.44" y2="109.26"/><line x1="264.35" y1="103.23" x2="299.74" y2="75.95"/><line x1="248.44" y1="215.28" x2="228.06" y2="230.13"/><line x1="327.82" y1="156.57" x2="315.28" y2="157.83"/><line x1="301.28" y1="147.24" x2="318.47" y2="132.05"/><line x1="176.68" y1="137.59" x2="179.83" y2="132.47"/><line x1="299.74" y1="75.95" x2="263.11" y2="100.87"/><line x1="210.30" y1="139.23" x2="217.17" y2="131.21"/><line x1="364.55" y1="117.50" x2="364.30" y2="122.75"/><line x1="316.02" y1="262.32" x2="303.36" y2="295.32"/><line x1="108.80" y1="62.33" x2="97.78" y2="72.54"/><line x1="399.35" y1="414.29" x2="410.40" y2="416.08"/><line x1="184.13" y1="268.38" x2="192.74" y2="277.93"/><line x1="203.30" y1="80.99" x2="231.02" y2="117.64"/><line x1="364.30" y1="122.75" x2="370.12" y2="119.52"/><line x1="290.07" y1="62.40" x2="286.31" y2="54.89"/><line x1="236.69" y1="287.05" x2="241.65" y2="305.30"/><line x1="217.59" y1="77.65" x2="232.72" y2="72.71"/><line x1="317.71" y1="143.97" x2="301.28" y2="147.24"/><line x1="338.60" y1="105.76" x2="329.70" y2="124.66"/><line x1="292.06" y1="418.93" x2="299.92" y2="432.69"/><line x1="421.94" y1="437.01" x2="432.21" y2="447.28"/><line x1="89.14" y1="47.64" x2="83.70" y2="43.03"/><line x1="286.31" y1="54.89" x2="265.61" y2="57.47"/><line x1="189.83" y1="82.87" x2="177.16" y2="83.43"/><line x1="277.52" y1="176.31" x2="263.06" y2="198.97"/><line x1="432.21" y1="447.28" x2="441.59" y2="456.83"/><line x1="162.83" y1="230.49" x2="160.35" y2="221.25"/><line x1="301.28" y1="147.24" x2="316.71" y2="141.69"/><line x1="381.43" y1="124.19" x2="382.94" y2="123.58"/><line x1="260.95" y1="357.33" x2="268.42" y2="373.63"/><line x1="243.71" y1="172.41" x2="245.70" y2="193.80"/><line x1="318.47" y1="132.05" x2="319.78" y2="130.44"/><line x1="382.94" y1="123.58" x2="385.59" y2="124.30"/><line x1="351.49" y1="177.51" x2="352.00" y2="175.69"/><line x1="283.93" y1="258.76" x2="293.20" y2="277.38"/><line x1="324.82" y1="97.54" x2="284.84" y2="131.57"/><line x1="74.36" y1="35.06" x2="70.93" y2="33.59"/><line x1="124.93" y1="71.42" x2="116.55" y2="67.04"/><line x1="183.65" y1="191.21" x2="160.51" y2="178.16"/><line x1="338.60" y1="105.76" x2="319.78" y2="130.44"/><line x1="103.31" y1="78.19" x2="108.80" y2="62.33"/><line x1="298.85" y1="408.97" x2="304.26" y2="423.65"/><line x1="352.00" y1="175.69" x2="349.00" y2="173.67"/><line x1="229.76" y1="249.43" x2="232.68" y2="268.41"/><line x1="186.60" y1="261.74" x2="184.13" y2="268.38"/><line x1="147.68" y1="108.85" x2="138.93" y2="104.50"/><line x1="260.41" y1="279.05" x2="236.69" y2="287.05"/><line x1="210.30" y1="139.23" x2="188.24" y2="120.58"/><line x1="325.81" y1="329.20" x2="337.80" y2="345.12"/><line x1="319.10" y1="146.36" x2="317.71" y2="143.97"/><line x1="217.17" y1="131.21" x2="203.30" y2="80.99"/><line x1="231.57" y1="170.77" x2="228.83" y2="190.77"/><line x1="348.88" y1="321.78" x2="359.93" y2="340.11"/><line x1="258.91" y1="177.73" x2="277.52" y2="176.31"/><line x1="167.48" y1="155.97" x2="170.42" y2="149.37"/><line x1="270.41" y1="113.24" x2="267.98" y2="109.46"/><line x1="203.30" y1="80.99" x2="224.14" y2="124.01"/><line x1="84.29" y1="56.26" x2="89.14" y2="47.64"/><line x1="314.82" y1="457.97" x2="322.21" y2="468.05"/><line x1="217.59" y1="77.65" x2="237.63" y2="112.12"/><line x1="432.41" y1="445.55" x2="432.21" y2="447.28"/><line x1="166.36" y1="239.85" x2="162.83" y2="230.49"/></g></svg>