<svg xmlns="http://www.w3.org/2000/svg" width="512" height="512"><rect width="512" height="512" fill="#0a0f1a"/><text x="12" y="20" font-family="monospace" font-size="11" fill="#4a7fa5">FRONT (XZ)</text><g stroke="#00d4ff" stroke-width="0.6" opacity="0.85"><line x1="81.82" y1="401.87" x2="74.86" y2="405.74"/><line x1="449.20" y1="260.69" x2="467.71" y2="273.57"/><line x1="319.62" y1="80.20" x2="311.22" y2="95.58"/><line x1="206.41" y1="198.65" x2="205.43" y2="203.03"/><line x1="370.95" y1="260.40" x2="367.48" y2="259.46"/><line x1="377.07" y1="395.64" x2="365.47" y2="393.18"/><line x1="452.17" y1="320.63" x2="451.61" y2="319.89"/><line x1="256.27" y1="319.93" x2="250.34" y2="338.33"/><line x1="214.82" y1="330.04" x2="197.80" y2="383.13"/><line x1="299.51" y1="261.98" x2="325.89" y2="261.78"/><line x1="325.43" y1="177.97" x2="311.61" y2="186.61"/><line x1="472.17" y1="236.64" x2="465.04" y2="233.25"/><line x1="301.36" y1="257.54" x2="299.51" y2="261.98"/><line x1="382.02" y1="242.64" x2="383.17" y2="242.68"/><line x1="388.27" y1="234.07" x2="390.07" y2="240.11"/><line x1="208.70" y1="329.66" x2="187.24" y2="401.74"/><line x1="130.16" y1="385.81" x2="119.42" y2="351.60"/><line x1="307.26" y1="286.01" x2="308.49" y2="283.10"/><line x1="438.98" y1="304.59" x2="437.15" y2="302.52"/><line x1="388.27" y1="234.07" x2="392.05" y2="237.59"/><line x1="205.43" y1="203.03" x2="236.30" y2="216.47"/><line x1="421.52" y1="286.88" x2="419.42" y2="285.09"/><line x1="238.60" y1="272.77" x2="211.28" y2="307.33"/><line x1="210.72" y1="305.75" x2="211.28" y2="307.33"/><line x1="463.55" y1="386.69" x2="447.12" y2="377.07"/><line x1="238.60" y1="272.77" x2="216.79" y2="321.33"/><line x1="300.66" y1="321.44" x2="302.59" y2="320.12"/><line x1="203.68" y1="373.63" x2="202.08" y2="375.93"/><line x1="190.15" y1="403.23" x2="189.57" y2="402.94"/><line x1="383.17" y1="242.68" x2="384.22" y2="242.63"/><line x1="442.40" y1="268.03" x2="440.92" y2="269.34"/><line x1="280.77" y1="94.39" x2="289.91" y2="115.94"/><line x1="415.92" y1="273.52" x2="412.22" y2="272.54"/><line x1="32.68" y1="432.35" x2="32.00" y2="433.79"/><line x1="211.28" y1="307.33" x2="211.85" y2="308.90"/><line x1="116.34" y1="388.09" x2="109.45" y2="389.99"/><line x1="461.47" y1="315.08" x2="462.21" y2="310.13"/><line x1="315.27" y1="319.74" x2="304.33" y2="318.91"/><line x1="283.39" y1="353.50" x2="270.07" y2="340.46"/><line x1="336.78" y1="188.88" x2="311.37" y2="201.10"/><line x1="181.99" y1="398.88" x2="181.42" y2="398.56"/><line x1="60.81" y1="414.30" x2="53.70" y2="418.93"/><line x1="312.36" y1="317.30" x2="308.97" y2="315.64"/><line x1="289.91" y1="115.94" x2="272.38" y2="99.66"/><line x1="412.82" y1="280.04" x2="410.53" y2="278.47"/><line x1="431.52" y1="296.43" x2="434.31" y2="273.83"/><line x1="202.58" y1="221.48" x2="202.14" y2="226.27"/><line x1="379.65" y1="245.46" x2="353.56" y2="256.97"/><line x1="251.04" y1="309.21" x2="239.81" y2="341.95"/><line x1="311.37" y1="201.10" x2="340.67" y2="192.44"/><line x1="469.21" y1="224.03" x2="468.67" y2="224.99"/><line x1="181.42" y1="398.56" x2="198.86" y2="329.57"/><line x1="109.45" y1="389.99" x2="91.89" y2="368.41"/><line x1="313.08" y1="274.79" x2="314.89" y2="272.22"/><line x1="436.26" y1="272.86" x2="431.52" y2="296.43"/><line x1="202.14" y1="226.27" x2="234.58" y2="236.29"/><line x1="214.82" y1="330.04" x2="205.35" y2="371.36"/><line x1="426.75" y1="396.25" x2="419.03" y2="371.57"/><line x1="351.86" y1="346.77" x2="345.48" y2="342.99"/><line x1="194.50" y1="390.69" x2="190.15" y2="403.23"/><line x1="214.82" y1="330.04" x2="190.15" y2="403.23"/><line x1="388.27" y1="234.07" x2="386.93" y2="242.02"/><line x1="438.98" y1="304.59" x2="440.80" y2="306.68"/><line x1="451.66" y1="257.46" x2="450.45" y2="259.09"/><line x1="250.30" y1="118.45" x2="243.94" y2="125.48"/><line x1="91.89" y1="368.41" x2="102.56" y2="392.35"/><line x1="388.27" y1="234.07" x2="391.47" y2="238.54"/><line x1="296.13" y1="301.97" x2="303.94" y2="297.82"/><line x1="404.75" y1="269.88" x2="400.17" y2="272.42"/><line x1="238.60" y1="272.77" x2="208.69" y2="299.36"/><line x1="462.93" y1="379.38" x2="480.00" y2="381.36"/><line x1="215.50" y1="318.25" x2="216.14" y2="319.79"/><line x1="298.61" y1="363.58" x2="321.87" y2="325.46"/><line x1="238.60" y1="272.77" x2="213.62" y2="313.59"/><line x1="419.03" y1="371.57" x2="417.89" y2="397.35"/><line x1="202.26" y1="329.52" x2="182.57" y2="399.21"/><line x1="283.52" y1="332.65" x2="286.21" y2="330.96"/><line x1="238.60" y1="272.77" x2="219.43" y2="327.47"/><line x1="191.61" y1="330.02" x2="187.72" y2="330.44"/><line x1="471.67" y1="242.15" x2="471.05" y2="248.01"/><line x1="450.45" y1="259.09" x2="449.20" y2="260.69"/><line x1="243.94" y1="125.48" x2="273.17" y2="149.79"/><line x1="423.59" y1="288.71" x2="426.24" y2="274.93"/><line x1="303.94" y1="297.82" x2="293.17" y2="299.08"/><line x1="253.72" y1="314.88" x2="241.86" y2="341.14"/><line x1="276.43" y1="216.48" x2="253.13" y2="226.07"/><line x1="461.47" y1="315.08" x2="452.17" y2="320.63"/><line x1="245.64" y1="296.13" x2="229.86" y2="347.11"/><line x1="286.21" y1="330.96" x2="288.85" y2="329.28"/><line x1="352.57" y1="202.95" x2="310.04" y2="220.33"/><line x1="459.18" y1="245.56" x2="458.21" y2="247.28"/><line x1="283.39" y1="353.50" x2="278.07" y2="335.95"/><line x1="187.72" y1="330.44" x2="183.63" y2="331.01"/><line x1="466.29" y1="230.09" x2="465.86" y2="231.14"/><line x1="73.86" y1="383.34" x2="81.82" y2="401.87"/><line x1="426.24" y1="274.93" x2="421.52" y2="286.88"/><line x1="201.51" y1="250.74" x2="235.55" y2="255.16"/><line x1="379.65" y1="245.46" x2="380.38" y2="248.56"/><line x1="457.41" y1="326.91" x2="456.83" y2="326.30"/><line x1="253.13" y1="226.07" x2="250.77" y2="218.08"/><line x1="388.09" y1="397.19" x2="377.07" y2="395.64"/><line x1="465.86" y1="231.14" x2="472.17" y2="236.64"/><line x1="390.51" y1="239.70" x2="390.88" y2="239.29"/><line x1="445.24" y1="265.24" x2="443.84" y2="266.66"/><line x1="270.02" y1="173.03" x2="270.31" y2="184.47"/><line x1="81.82" y1="401.87" x2="68.42" y2="388.48"/><line x1="306.19" y1="288.95" x2="307.26" y2="286.01"/><line x1="370.95" y1="260.40" x2="380.38" y2="248.56"/><line x1="220.10" y1="329.00" x2="220.77" y2="330.54"/><line x1="377.07" y1="395.64" x2="384.87" y2="361.65"/><line x1="214.82" y1="330.04" x2="199.13" y2="380.69"/><line x1="318.43" y1="322.48" x2="300.66" y2="321.44"/><line x1="307.91" y1="234.55" x2="306.93" y2="239.23"/><line x1="190.73" y1="403.51" x2="191.30" y2="403.79"/><line x1="214.82" y1="330.04" x2="211.79" y2="329.82"/><line x1="169.90" y1="333.78" x2="164.77" y2="335.10"/><line x1="54.07" y1="403.60" x2="49.98" y2="408.36"/><line x1="388.27" y1="234.07" x2="389.57" y2="240.54"/><line x1="208.70" y1="329.66" x2="187.82" y2="402.05"/><line x1="443.84" y1="266.66" x2="442.40" y2="268.03"/><line x1="238.60" y1="272.77" x2="204.26" y2="279.75"/><line x1="307.26" y1="286.01" x2="283.14" y2="286.69"/><line x1="248.32" y1="302.94" x2="231.83" y2="345.90"/><line x1="321.11" y1="265.40" x2="323.45" y2="263.48"/><line x1="391.03" y1="267.90" x2="387.81" y2="266.48"/><line x1="238.60" y1="272.77" x2="210.72" y2="305.75"/><line x1="449.44" y1="317.02" x2="448.92" y2="316.36"/><line x1="238.60" y1="272.77" x2="216.14" y2="319.79"/><line x1="300.66" y1="321.44" x2="315.27" y2="319.74"/><line x1="471.67" y1="242.15" x2="463.78" y2="236.40"/><line x1="164.77" y1="335.10" x2="159.34" y2="336.65"/><line x1="415.92" y1="273.52" x2="412.82" y2="280.04"/><line x1="260.68" y1="327.96" x2="258.61" y2="324.30"/><line x1="323.45" y1="263.48" x2="325.89" y2="261.78"/><line x1="340.54" y1="385.10" x2="358.95" y2="350.56"/><line x1="311.53" y1="172.21" x2="311.57" y2="176.99"/><line x1="220.05" y1="355.03" x2="218.17" y2="356.89"/><line x1="461.47" y1="315.08" x2="449.98" y2="317.72"/><line x1="140.98" y1="342.80" x2="134.11" y2="345.41"/><line x1="463.78" y1="236.40" x2="463.35" y2="237.43"/><line x1="304.50" y1="248.47" x2="303.02" y2="253.03"/><line x1="60.81" y1="414.30" x2="49.98" y2="408.36"/><line x1="379.65" y1="245.46" x2="357.02" y2="257.39"/><line x1="257.11" y1="336.40" x2="254.81" y2="337.05"/><line x1="321.87" y1="325.46" x2="298.56" y2="322.87"/><line x1="350.11" y1="256.72" x2="346.70" y2="256.63"/><line x1="358.95" y1="350.56" x2="351.86" y2="346.77"/><line x1="172.46" y1="393.74" x2="165.27" y2="390.68"/><line x1="380.54" y1="227.10" x2="384.43" y2="230.57"/><line x1="187.24" y1="401.74" x2="186.65" y2="401.43"/><line x1="189.57" y1="402.94" x2="188.99" y2="402.64"/><line x1="144.08" y1="385.81" x2="137.10" y2="385.52"/><line x1="436.26" y1="272.86" x2="438.98" y2="304.59"/><line x1="241.38" y1="196.02" x2="238.38" y2="206.30"/><line x1="313.08" y1="274.79" x2="272.32" y2="269.62"/><line x1="436.26" y1="272.86" x2="433.42" y2="298.44"/><line x1="214.82" y1="330.04" x2="207.08" y2="369.15"/><line x1="184.32" y1="400.18" x2="183.73" y2="399.86"/><line x1="308.20" y1="316.19" x2="308.97" y2="315.64"/><line x1="310.51" y1="215.54" x2="352.57" y2="202.95"/><line x1="214.82" y1="330.04" x2="194.50" y2="390.69"/><line x1="37.52" y1="424.62" x2="35.45" y2="427.71"/><line x1="265.26" y1="256.22" x2="290.13" y2="248.91"/><line x1="404.75" y1="269.88" x2="403.03" y2="273.97"/><line x1="201.42" y1="245.81" x2="201.51" y2="250.74"/><line x1="238.60" y1="272.77" x2="208.22" y2="297.75"/><line x1="248.17" y1="338.99" x2="246.03" y2="339.67"/><line x1="462.93" y1="379.38" x2="474.96" y2="382.86"/><line x1="298.61" y1="363.58" x2="325.67" y2="328.67"/><line x1="329.15" y1="181.65" x2="332.93" y2="185.28"/><line x1="238.60" y1="272.77" x2="213.02" y2="312.03"/><line x1="202.26" y1="329.52" x2="183.15" y2="399.53"/><line x1="123.24" y1="386.68" x2="116.34" y2="388.09"/><line x1="460.13" y1="243.84" x2="459.18" y2="245.56"/><line x1="390.07" y1="240.11" x2="390.51" y2="239.70"/><line x1="471.67" y1="242.15" x2="461.94" y2="240.43"/><line x1="293.33" y1="254.32" x2="296.08" y2="258.39"/><line x1="458.01" y1="327.48" x2="457.41" y2="326.91"/><line x1="253.72" y1="314.88" x2="243.93" y2="340.39"/><line x1="219.43" y1="327.47" x2="220.10" y2="329.00"/><line x1="112.21" y1="355.31" x2="105.21" y2="359.38"/><line x1="303.29" y1="303.56" x2="303.23" y2="306.32"/><line x1="223.38" y1="155.53" x2="270.02" y2="173.03"/><line x1="394.16" y1="264.32" x2="391.00" y2="262.09"/><line x1="321.87" y1="325.46" x2="286.21" y2="330.96"/><line x1="463.03" y1="304.73" x2="462.21" y2="310.13"/><line x1="379.65" y1="245.46" x2="343.34" y2="256.71"/><line x1="240.69" y1="281.01" x2="222.02" y2="353.17"/><line x1="198.86" y1="329.57" x2="180.28" y2="397.90"/><line x1="364.63" y1="213.31" x2="307.91" y2="234.55"/><line x1="282.49" y1="126.91" x2="257.16" y2="111.76"/><line x1="301.21" y1="305.64" x2="298.82" y2="304.17"/><line x1="270.02" y1="173.03" x2="219.42" y2="163.17"/><line x1="202.92" y1="270.26" x2="238.60" y2="272.77"/><line x1="460.85" y1="319.51" x2="453.89" y2="322.86"/><line x1="237.79" y1="342.82" x2="235.79" y2="343.76"/><line x1="222.02" y1="353.17" x2="220.05" y2="355.03"/><line x1="307.91" y1="234.55" x2="368.64" y2="216.75"/><line x1="102.56" y1="392.35" x2="95.67" y2="395.14"/><line x1="391.96" y1="237.76" x2="392.03" y2="237.63"/><line x1="427.62" y1="292.50" x2="425.63" y2="290.58"/><line x1="54.07" y1="403.60" x2="60.81" y2="414.30"/><line x1="459.98" y1="326.51" x2="458.60" y2="328.01"/><line x1="283.10" y1="234.59" x2="279.63" y2="225.95"/><line x1="238.60" y1="272.77" x2="203.54" y2="275.03"/><line x1="265.26" y1="256.22" x2="299.51" y2="261.98"/><line x1="248.32" y1="302.94" x2="233.80" y2="344.78"/><line x1="259.47" y1="335.73" x2="260.68" y2="327.96"/><line x1="238.60" y1="272.77" x2="210.19" y2="304.17"/><line x1="472.53" y1="231.56" x2="467.18" y2="228.01"/><line x1="187.82" y1="402.05" x2="187.24" y2="401.74"/><line x1="202.26" y1="329.52" x2="198.86" y2="329.57"/><line x1="85.61" y1="373.25" x2="79.59" y2="378.25"/><line x1="392.03" y1="237.63" x2="392.05" y2="237.59"/><line x1="431.96" y1="274.50" x2="429.26" y2="274.86"/><line x1="245.37" y1="185.65" x2="246.03" y2="193.75"/><line x1="311.41" y1="277.47" x2="313.08" y2="274.79"/><line x1="408.49" y1="397.94" x2="398.57" y2="397.92"/><line x1="260.68" y1="327.96" x2="257.11" y2="336.40"/><line x1="311.53" y1="172.21" x2="318.24" y2="170.45"/><line x1="307.15" y1="316.93" x2="308.20" y2="316.19"/><line x1="304.50" y1="248.47" x2="380.54" y2="227.10"/><line x1="467.71" y1="273.57" x2="446.59" y2="263.77"/><line x1="140.98" y1="342.80" x2="144.08" y2="385.81"/><line x1="304.50" y1="248.47" x2="379.65" y2="245.46"/><line x1="304.52" y1="294.88" x2="305.27" y2="291.92"/><line x1="377.82" y1="262.58" x2="374.40" y2="261.44"/><line x1="208.22" y1="297.75" x2="208.69" y2="299.36"/><line x1="243.07" y1="288.80" x2="240.69" y2="281.01"/><line x1="406.63" y1="368.45" x2="395.27" y2="365.13"/><line x1="379.65" y1="245.46" x2="360.50" y2="257.94"/><line x1="321.87" y1="325.46" x2="296.31" y2="324.39"/><line x1="311.61" y1="186.61" x2="311.58" y2="191.44"/><line x1="217.81" y1="330.28" x2="214.82" y2="330.04"/><line x1="172.46" y1="393.74" x2="174.73" y2="332.67"/><line x1="380.54" y1="227.10" x2="379.51" y2="242.25"/><line x1="461.05" y1="242.13" x2="460.13" y2="243.84"/><line x1="311.22" y1="95.58" x2="309.10" y2="82.57"/><line x1="419.42" y1="285.09" x2="417.26" y2="283.36"/><line x1="40.03" y1="421.08" x2="37.52" y2="424.62"/><line x1="273.70" y1="206.33" x2="271.59" y2="195.61"/><line x1="208.69" y1="299.36" x2="209.17" y2="300.97"/><line x1="250.34" y1="338.33" x2="248.17" y2="338.99"/><line x1="472.72" y1="226.97" x2="472.53" y2="231.56"/><line x1="334.53" y1="335.60" x2="298.61" y2="363.58"/><line x1="184.32" y1="400.18" x2="202.26" y2="329.52"/><line x1="270.31" y1="184.47" x2="210.29" y2="185.29"/><line x1="74.86" y1="405.74" x2="67.86" y2="409.89"/><line x1="309.10" y1="82.57" x2="299.12" y2="85.78"/><line x1="422.98" y1="274.72" x2="419.52" y2="274.25"/><line x1="236.30" y1="216.47" x2="204.56" y2="207.51"/><line x1="261.88" y1="335.04" x2="259.47" y2="335.73"/><line x1="265.26" y1="256.22" x2="293.33" y2="254.32"/><line x1="248.77" y1="210.01" x2="247.17" y2="201.89"/><line x1="365.47" y1="393.18" x2="353.30" y2="389.70"/><line x1="248.17" y1="338.99" x2="253.72" y2="314.88"/><line x1="298.61" y1="363.58" x2="329.87" y2="332.06"/><line x1="329.15" y1="181.65" x2="311.58" y2="191.44"/><line x1="468.64" y1="267.01" x2="467.71" y2="273.57"/><line x1="472.53" y1="231.56" x2="472.17" y2="236.64"/><line x1="465.79" y1="286.57" x2="439.41" y2="270.58"/><line x1="123.24" y1="386.68" x2="112.21" y2="355.31"/><line x1="412.22" y1="272.54" x2="408.48" y2="271.32"/><line x1="471.67" y1="242.15" x2="462.43" y2="239.45"/><line x1="204.56" y1="207.51" x2="203.80" y2="212.08"/><line x1="293.33" y1="254.32" x2="290.13" y2="248.91"/><line x1="375.39" y1="358.03" x2="366.77" y2="354.33"/><line x1="457.16" y1="388.81" x2="450.29" y2="390.92"/><line x1="340.67" y1="192.44" x2="344.60" y2="195.97"/><line x1="200.57" y1="378.29" x2="199.13" y2="380.69"/><line x1="330.68" y1="78.72" x2="319.62" y2="80.20"/><line x1="471.09" y1="221.28" x2="470.42" y2="222.16"/><line x1="385.20" y1="242.49" x2="386.11" y2="242.28"/><line x1="53.70" y1="418.93" x2="46.54" y2="423.75"/><line x1="279.56" y1="281.46" x2="275.94" y2="275.76"/><line x1="303.29" y1="303.56" x2="301.21" y2="305.64"/><line x1="246.03" y1="193.75" x2="271.59" y2="195.61"/><line x1="394.16" y1="264.32" x2="391.03" y2="267.90"/><line x1="212.43" y1="310.47" x2="213.02" y2="312.03"/><line x1="450.29" y1="390.92" x2="442.94" y2="392.94"/><line x1="321.87" y1="325.46" x2="283.52" y2="332.65"/><line x1="205.54" y1="329.55" x2="184.90" y2="400.50"/><line x1="304.33" y1="318.91" x2="305.86" y2="317.84"/><line x1="311.17" y1="205.92" x2="310.89" y2="210.74"/><line x1="325.45" y1="86.46" x2="311.22" y2="95.58"/><line x1="198.86" y1="329.57" x2="180.84" y2="398.23"/><line x1="463.91" y1="298.96" x2="463.03" y2="304.73"/><line x1="455.08" y1="252.44" x2="453.97" y2="254.13"/><line x1="282.49" y1="126.91" x2="264.51" y2="105.47"/><line x1="301.21" y1="305.64" x2="303.23" y2="306.32"/><line x1="261.91" y1="249.03" x2="283.10" y2="234.59"/><line x1="460.85" y1="319.51" x2="454.47" y2="323.58"/><line x1="237.79" y1="342.82" x2="248.32" y2="302.94"/><line x1="272.69" y1="339.04" x2="275.37" y2="337.53"/><line x1="466.76" y1="280.11" x2="465.79" y2="286.57"/><line x1="405.78" y1="275.52" x2="404.75" y2="269.88"/><line x1="238.38" y1="206.30" x2="236.30" y2="216.47"/><line x1="102.56" y1="392.35" x2="85.61" y2="373.25"/><line x1="268.74" y1="263.10" x2="265.26" y2="256.22"/><line x1="427.62" y1="292.50" x2="431.96" y2="274.50"/><line x1="459.98" y1="326.51" x2="459.77" y2="328.93"/><line x1="283.10" y1="234.59" x2="258.75" y2="241.58"/><line x1="265.26" y1="256.22" x2="286.66" y2="242.29"/><line x1="417.89" y1="397.35" x2="408.49" y2="397.94"/><line x1="310.04" y1="220.33" x2="309.46" y2="225.10"/><line x1="470.33" y1="254.16" x2="456.16" y2="250.72"/><line x1="183.63" y1="331.01" x2="179.31" y2="331.75"/><line x1="472.53" y1="231.56" x2="467.65" y2="226.99"/><line x1="85.61" y1="373.25" x2="95.67" y2="395.14"/><line x1="192.06" y1="401.32" x2="191.87" y2="404.06"/><line x1="293.17" y1="299.08" x2="304.52" y2="294.88"/><line x1="462.21" y1="310.13" x2="447.92" y2="315.11"/><line x1="250.77" y1="218.08" x2="248.77" y2="210.01"/><line x1="381.20" y1="263.81" x2="377.82" y2="262.58"/><line x1="227.90" y1="348.43" x2="225.94" y2="349.88"/><line x1="408.49" y1="397.94" x2="406.63" y2="368.45"/><line x1="444.38" y1="310.89" x2="446.15" y2="313.00"/><line x1="288.85" y1="329.28" x2="291.44" y2="327.61"/><line x1="356.59" y1="206.41" x2="360.61" y2="209.86"/><line x1="68.42" y1="388.48" x2="63.31" y2="393.61"/><line x1="467.71" y1="273.57" x2="447.92" y2="262.25"/><line x1="304.52" y1="294.88" x2="289.99" y2="295.54"/><line x1="446.15" y1="313.00" x2="447.92" y2="315.11"/><line x1="384.87" y1="361.65" x2="375.39" y2="358.03"/><line x1="243.07" y1="288.80" x2="223.99" y2="351.46"/><line x1="451.61" y1="319.89" x2="451.06" y2="319.15"/><line x1="291.44" y1="327.61" x2="293.93" y2="325.97"/><line x1="321.87" y1="325.46" x2="293.93" y2="325.97"/><line x1="311.61" y1="186.61" x2="329.15" y2="181.65"/><line x1="283.14" y1="286.69" x2="279.56" y2="281.46"/><line x1="202.00" y1="260.56" x2="202.40" y2="265.42"/><line x1="432.50" y1="374.45" x2="419.03" y2="371.57"/><line x1="419.42" y1="285.09" x2="422.98" y2="274.72"/><line x1="263.62" y1="333.01" x2="264.35" y2="334.32"/><line x1="273.70" y1="206.33" x2="248.77" y2="210.01"/><line x1="469.51" y1="260.52" x2="455.08" y2="252.44"/><line x1="179.72" y1="397.58" x2="183.63" y2="331.01"/><line x1="472.72" y1="226.97" x2="468.14" y2="225.98"/><line x1="460.85" y1="319.51" x2="461.47" y2="315.08"/><line x1="159.34" y1="336.65" x2="153.57" y2="338.44"/><line x1="465.45" y1="232.20" x2="465.04" y2="233.25"/><line x1="384.22" y1="242.63" x2="385.20" y2="242.49"/><line x1="270.31" y1="184.47" x2="212.88" y2="178.12"/><line x1="74.86" y1="405.74" x2="63.31" y2="393.61"/><line x1="308.49" y1="283.10" x2="309.88" y2="280.25"/><line x1="367.48" y1="259.46" x2="363.99" y2="258.64"/><line x1="261.88" y1="335.04" x2="262.37" y2="330.88"/><line x1="211.85" y1="308.90" x2="212.43" y2="310.47"/><line x1="365.47" y1="393.18" x2="375.39" y2="358.03"/><line x1="306.93" y1="239.23" x2="305.79" y2="243.87"/><line x1="468.64" y1="267.01" x2="449.20" y2="260.69"/><line x1="158.15" y1="388.36" x2="151.09" y2="386.75"/><line x1="49.98" y1="408.36" x2="46.27" y2="412.90"/><line x1="465.79" y1="286.57" x2="440.92" y2="269.34"/><line x1="272.38" y1="99.66" x2="282.49" y2="126.91"/><line x1="412.22" y1="272.54" x2="408.18" y2="276.97"/><line x1="468.14" y1="225.98" x2="472.53" y2="231.56"/><line x1="448.42" y1="315.72" x2="447.92" y2="315.11"/><line x1="186.65" y1="401.43" x2="186.07" y2="401.13"/><line x1="340.67" y1="192.44" x2="311.17" y2="205.92"/><line x1="330.68" y1="78.72" x2="342.31" y2="78.21"/><line x1="53.70" y1="418.93" x2="42.94" y2="417.16"/><line x1="272.32" y1="269.62" x2="268.74" y2="263.10"/><line x1="234.58" y1="236.29" x2="201.80" y2="231.11"/><line x1="258.61" y1="324.30" x2="252.55" y2="337.69"/><line x1="327.17" y1="379.29" x2="313.20" y2="372.15"/><line x1="311.57" y1="176.99" x2="311.61" y2="181.80"/><line x1="321.87" y1="325.46" x2="280.80" y2="334.32"/><line x1="379.65" y1="245.46" x2="299.51" y2="261.98"/><line x1="384.43" y1="230.57" x2="383.17" y2="242.68"/><line x1="205.54" y1="329.55" x2="185.49" y2="400.81"/><line x1="134.11" y1="345.41" x2="126.82" y2="348.31"/><line x1="325.45" y1="86.46" x2="319.62" y2="80.20"/><line x1="386.93" y1="242.02" x2="387.70" y2="241.70"/><line x1="463.91" y1="298.96" x2="442.60" y2="308.78"/><line x1="208.13" y1="192.15" x2="206.41" y2="198.65"/><line x1="314.89" y1="272.22" x2="316.83" y2="269.79"/><line x1="201.80" y1="231.11" x2="201.56" y2="235.98"/><line x1="474.96" y1="382.86" x2="469.49" y2="384.67"/><line x1="395.27" y1="365.13" x2="384.87" y2="361.65"/><line x1="165.27" y1="390.68" x2="158.15" y2="388.36"/><line x1="193.65" y1="393.29" x2="192.96" y2="395.93"/><line x1="466.76" y1="280.11" x2="442.40" y2="268.03"/><line x1="299.43" y1="105.46" x2="289.91" y2="115.94"/><line x1="137.10" y1="385.52" x2="130.16" y2="385.81"/><line x1="387.70" y1="241.70" x2="388.39" y2="241.33"/><line x1="39.31" y1="428.71" x2="33.83" y2="430.31"/><line x1="238.38" y1="206.30" x2="205.43" y2="203.03"/><line x1="273.17" y1="149.79" x2="238.08" y2="132.77"/><line x1="400.17" y1="272.42" x2="397.21" y2="270.88"/><line x1="236.30" y1="216.47" x2="235.06" y2="226.48"/><line x1="216.79" y1="321.33" x2="217.44" y2="322.87"/><line x1="220.77" y1="330.54" x2="210.68" y2="364.86"/><line x1="310.04" y1="220.33" x2="356.59" y2="206.41"/><line x1="470.33" y1="254.16" x2="457.20" y2="249.00"/><line x1="183.63" y1="331.01" x2="172.46" y2="393.74"/><line x1="238.08" y1="132.77" x2="232.70" y2="140.26"/><line x1="401.08" y1="268.23" x2="397.54" y2="266.37"/><line x1="235.55" y1="255.16" x2="201.70" y2="255.66"/><line x1="460.34" y1="323.35" x2="456.23" y2="325.66"/><line x1="462.21" y1="310.13" x2="448.42" y2="315.72"/><line x1="250.77" y1="218.08" x2="273.70" y2="206.33"/><line x1="227.90" y1="348.43" x2="243.07" y2="288.80"/><line x1="356.59" y1="206.41" x2="309.46" y2="225.10"/><line x1="210.29" y1="185.29" x2="208.13" y2="192.15"/><line x1="390.88" y1="239.29" x2="391.21" y2="238.90"/><line x1="235.06" y1="226.48" x2="234.58" y2="236.29"/><line x1="68.42" y1="388.48" x2="74.86" y2="405.74"/><line x1="201.70" y1="255.66" x2="202.00" y2="260.56"/><line x1="384.87" y1="361.65" x2="365.47" y2="393.18"/><line x1="469.80" y1="223.08" x2="469.21" y2="224.03"/><line x1="191.30" y1="403.79" x2="191.87" y2="404.06"/><line x1="391.21" y1="238.90" x2="391.47" y2="238.54"/><line x1="239.81" y1="341.95" x2="237.79" y2="342.82"/><line x1="219.42" y1="163.17" x2="270.31" y2="184.47"/><line x1="391.00" y1="262.09" x2="388.12" y2="259.68"/><line x1="283.14" y1="286.69" x2="308.49" y2="283.10"/><line x1="299.51" y1="261.98" x2="336.76" y2="257.45"/><line x1="432.50" y1="374.45" x2="426.75" y2="396.25"/><line x1="263.62" y1="333.01" x2="261.88" y2="335.04"/><line x1="471.05" y1="248.01" x2="470.33" y2="254.16"/><line x1="179.72" y1="397.58" x2="187.72" y2="330.44"/><line x1="368.64" y1="216.75" x2="306.93" y2="239.23"/><line x1="452.83" y1="255.81" x2="451.66" y2="257.46"/><line x1="276.97" y1="138.24" x2="273.17" y2="149.79"/><line x1="159.34" y1="336.65" x2="158.15" y2="388.36"/><line x1="464.84" y1="292.88" x2="463.91" y2="298.96"/><line x1="298.82" y1="304.17" x2="296.13" y2="301.97"/><line x1="270.31" y1="184.47" x2="215.92" y2="170.73"/><line x1="190.15" y1="403.23" x2="193.65" y2="393.29"/><line x1="270.31" y1="184.47" x2="271.59" y2="195.61"/><line x1="387.81" y1="266.48" x2="384.54" y2="265.12"/><line x1="325.89" y1="261.78" x2="328.44" y2="260.30"/><line x1="318.24" y1="170.45" x2="321.79" y2="174.24"/><line x1="218.17" y1="356.89" x2="216.28" y2="358.81"/><line x1="306.93" y1="239.23" x2="372.64" y2="220.19"/><line x1="216.14" y1="319.79" x2="216.79" y2="321.33"/><line x1="468.64" y1="267.01" x2="450.45" y2="259.09"/><line x1="425.63" y1="290.58" x2="423.59" y2="288.71"/><line x1="234.77" y1="245.86" x2="235.55" y2="255.16"/><line x1="49.98" y1="408.36" x2="53.70" y2="418.93"/><line x1="238.60" y1="272.77" x2="218.17" y2="356.89"/><line x1="412.22" y1="272.54" x2="410.53" y2="278.47"/><line x1="204.26" y1="279.75" x2="205.09" y2="284.39"/><line x1="472.73" y1="222.97" x2="469.80" y2="223.08"/><line x1="379.51" y1="242.25" x2="380.81" y2="242.51"/><line x1="186.65" y1="401.43" x2="205.54" y2="329.55"/><line x1="270.92" y1="161.43" x2="270.02" y2="173.03"/><line x1="462.90" y1="238.44" x2="462.43" y2="239.45"/><line x1="330.68" y1="78.72" x2="325.45" y2="86.46"/><line x1="229.86" y1="347.11" x2="227.90" y2="348.43"/><line x1="429.26" y1="274.86" x2="426.24" y2="274.93"/><line x1="447.12" y1="377.07" x2="432.50" y2="374.45"/><line x1="383.38" y1="254.40" x2="381.64" y2="251.55"/><line x1="272.32" y1="269.62" x2="314.89" y2="272.22"/><line x1="258.61" y1="324.30" x2="254.81" y2="337.05"/><line x1="311.57" y1="176.99" x2="321.79" y2="174.24"/><line x1="384.43" y1="230.57" x2="382.02" y2="242.64"/><line x1="299.12" y1="85.78" x2="289.68" y2="89.74"/><line x1="134.11" y1="345.41" x2="137.10" y2="385.52"/><line x1="236.86" y1="264.14" x2="238.60" y2="272.77"/><line x1="286.63" y1="291.40" x2="283.14" y2="286.69"/><line x1="208.13" y1="192.15" x2="238.38" y2="206.30"/><line x1="299.51" y1="261.98" x2="323.45" y2="263.48"/><line x1="463.91" y1="298.96" x2="440.80" y2="306.68"/><line x1="472.17" y1="236.64" x2="465.45" y2="232.20"/><line x1="374.40" y1="261.44" x2="370.95" y2="260.40"/><line x1="474.96" y1="382.86" x2="480.00" y2="381.36"/><line x1="311.58" y1="191.44" x2="311.50" y2="196.27"/><line x1="208.86" y1="366.98" x2="207.08" y2="369.15"/><line x1="388.27" y1="234.07" x2="392.03" y2="237.63"/><line x1="165.27" y1="390.68" x2="159.34" y2="336.65"/><line x1="309.45" y1="315.30" x2="309.62" y2="315.18"/><line x1="67.86" y1="409.89" x2="60.81" y2="414.30"/><line x1="469.51" y1="260.52" x2="468.64" y2="267.01"/><line x1="299.43" y1="105.46" x2="280.77" y2="94.39"/><line x1="466.76" y1="280.11" x2="443.84" y2="266.66"/><line x1="380.38" y1="248.56" x2="367.48" y2="259.46"/><line x1="39.31" y1="428.71" x2="35.45" y2="427.71"/><line x1="400.17" y1="272.42" x2="401.08" y2="268.23"/><line x1="190.15" y1="403.23" x2="192.06" y2="401.32"/><line x1="449.98" y1="317.72" x2="449.44" y2="317.02"/><line x1="442.40" y1="268.03" x2="465.79" y2="286.57"/><line x1="332.93" y1="185.28" x2="336.78" y2="188.88"/><line x1="183.73" y1="399.86" x2="183.15" y2="399.53"/><line x1="116.34" y1="388.09" x2="98.43" y2="363.76"/><line x1="470.33" y1="254.16" x2="458.21" y2="247.28"/><line x1="419.52" y1="274.25" x2="415.92" y2="273.52"/><line x1="448.92" y1="316.36" x2="448.42" y2="315.72"/><line x1="203.14" y1="216.74" x2="202.58" y2="221.48"/><line x1="315.27" y1="319.74" x2="302.59" y2="320.12"/><line x1="238.60" y1="272.77" x2="210.68" y2="364.86"/><line x1="314.78" y1="166.61" x2="318.24" y2="170.45"/><line x1="460.34" y1="323.35" x2="456.83" y2="326.30"/><line x1="312.36" y1="317.30" x2="308.20" y2="316.19"/><line x1="325.67" y1="328.67" x2="321.87" y2="325.46"/><line x1="203.54" y1="275.03" x2="204.26" y2="279.75"/><line x1="151.09" y1="386.75" x2="144.08" y2="385.81"/><line x1="412.82" y1="280.04" x2="412.22" y2="272.54"/><line x1="379.65" y1="245.46" x2="301.36" y2="257.54"/><line x1="210.29" y1="185.29" x2="241.38" y2="196.02"/><line x1="275.94" y1="275.76" x2="272.32" y2="269.62"/><line x1="435.30" y1="300.47" x2="433.42" y2="298.44"/><line x1="463.35" y1="237.43" x2="462.90" y2="238.44"/><line x1="344.60" y1="195.97" x2="348.58" y2="199.47"/><line x1="469.80" y1="223.08" x2="472.72" y2="226.97"/><line x1="346.70" y1="256.63" x2="343.34" y2="256.71"/><line x1="257.16" y1="111.76" x2="250.30" y2="118.45"/><line x1="351.86" y1="346.77" x2="327.17" y2="379.29"/><line x1="391.00" y1="262.09" x2="387.81" y2="266.48"/><line x1="299.51" y1="261.98" x2="333.88" y2="258.12"/><line x1="313.20" y1="372.15" x2="298.61" y2="363.58"/><line x1="432.50" y1="374.45" x2="435.10" y2="394.74"/><line x1="472.17" y1="236.64" x2="471.67" y2="242.15"/><line x1="438.98" y1="304.59" x2="463.91" y2="298.96"/><line x1="310.89" y1="210.74" x2="310.51" y2="215.54"/><line x1="388.27" y1="234.07" x2="391.21" y2="238.90"/><line x1="471.05" y1="248.01" x2="459.18" y2="245.56"/><line x1="179.72" y1="397.58" x2="191.61" y2="330.02"/><line x1="46.54" y1="423.75" x2="39.31" y2="428.71"/><line x1="95.67" y1="395.14" x2="88.75" y2="398.33"/><line x1="452.83" y1="255.81" x2="468.64" y2="267.01"/><line x1="201.44" y1="240.89" x2="201.42" y2="245.81"/><line x1="308.97" y1="315.64" x2="309.45" y2="315.30"/><line x1="238.60" y1="272.77" x2="218.77" y2="325.94"/><line x1="279.63" y1="225.95" x2="276.43" y2="216.48"/><line x1="453.89" y1="322.86" x2="453.31" y2="322.12"/><line x1="471.79" y1="220.42" x2="471.09" y2="221.28"/><line x1="192.43" y1="398.60" x2="192.06" y2="401.32"/><line x1="278.07" y1="335.95" x2="280.80" y2="334.32"/><line x1="318.24" y1="170.45" x2="311.57" y2="176.99"/><line x1="403.03" y1="273.97" x2="400.17" y2="272.42"/><line x1="79.59" y1="378.25" x2="73.86" y2="383.34"/><line x1="289.99" y1="295.54" x2="286.63" y2="291.40"/><line x1="425.63" y1="290.58" x2="429.26" y2="274.86"/><line x1="238.60" y1="272.77" x2="220.05" y2="355.03"/><line x1="459.18" y1="245.56" x2="470.33" y2="254.16"/><line x1="283.39" y1="353.50" x2="275.37" y2="337.53"/><line x1="398.57" y1="397.92" x2="388.09" y2="397.19"/><line x1="472.73" y1="222.97" x2="470.42" y2="222.16"/><line x1="211.79" y1="329.82" x2="189.57" y2="402.94"/><line x1="457.41" y1="326.91" x2="460.34" y2="323.35"/><line x1="379.51" y1="242.25" x2="384.43" y2="230.57"/><line x1="446.59" y1="263.77" x2="445.24" y2="265.24"/><line x1="270.92" y1="161.43" x2="223.38" y2="155.53"/><line x1="329.87" y1="332.06" x2="325.67" y2="328.67"/><line x1="305.27" y1="291.92" x2="306.19" y2="288.95"/><line x1="447.12" y1="377.07" x2="442.94" y2="392.94"/><line x1="383.38" y1="254.40" x2="374.40" y2="261.44"/><line x1="437.15" y1="302.52" x2="435.30" y2="300.47"/><line x1="360.61" y1="209.86" x2="364.63" y2="213.31"/><line x1="174.73" y1="332.67" x2="169.90" y2="333.78"/><line x1="442.94" y1="392.94" x2="435.10" y2="394.74"/><line x1="63.31" y1="393.61" x2="58.52" y2="398.66"/><line x1="299.12" y1="85.78" x2="299.43" y2="105.46"/><line x1="417.26" y1="283.36" x2="415.06" y2="281.67"/><line x1="236.86" y1="264.14" x2="202.92" y2="270.26"/><line x1="214.82" y1="330.04" x2="200.57" y2="378.29"/><line x1="470.42" y1="222.16" x2="469.80" y2="223.08"/><line x1="299.51" y1="261.98" x2="321.11" y2="265.40"/><line x1="209.67" y1="302.57" x2="210.19" y2="304.17"/><line x1="311.48" y1="167.44" x2="311.53" y2="172.21"/><line x1="223.99" y1="351.46" x2="222.02" y2="353.17"/><line x1="388.27" y1="234.07" x2="389.01" y2="240.94"/><line x1="208.70" y1="329.66" x2="188.41" y2="402.35"/><line x1="391.03" y1="267.90" x2="391.00" y2="262.09"/><line x1="311.58" y1="191.44" x2="332.93" y2="185.28"/><line x1="388.27" y1="234.07" x2="391.96" y2="237.76"/><line x1="434.31" y1="273.83" x2="431.96" y2="274.50"/><line x1="67.86" y1="409.89" x2="54.07" y2="403.60"/><line x1="462.93" y1="379.38" x2="447.12" y2="377.07"/><line x1="238.60" y1="272.77" x2="215.50" y2="318.25"/><line x1="190.15" y1="403.23" x2="211.79" y2="329.82"/><line x1="353.30" y1="389.70" x2="340.54" y2="385.10"/><line x1="246.03" y1="339.67" x2="243.93" y2="340.39"/><line x1="258.75" y1="241.58" x2="255.80" y2="233.92"/><line x1="153.57" y1="338.44" x2="147.46" y2="340.49"/><line x1="116.34" y1="388.09" x2="105.21" y2="359.38"/><line x1="309.88" y1="280.25" x2="311.41" y2="277.47"/><line x1="461.47" y1="315.08" x2="450.52" y2="318.43"/><line x1="262.37" y1="330.88" x2="260.68" y2="327.96"/><line x1="312.36" y1="317.30" x2="307.15" y2="316.93"/><line x1="197.80" y1="383.13" x2="196.58" y2="385.61"/><line x1="151.09" y1="386.75" x2="140.98" y2="342.80"/><line x1="257.11" y1="336.40" x2="258.61" y2="324.30"/><line x1="408.18" y1="276.97" x2="405.78" y2="275.52"/><line x1="213.62" y1="313.59" x2="214.24" y2="315.15"/><line x1="189.57" y1="402.94" x2="208.70" y2="329.66"/><line x1="144.08" y1="385.81" x2="134.11" y2="345.41"/><line x1="241.38" y1="196.02" x2="208.13" y2="192.15"/><line x1="344.60" y1="195.97" x2="310.89" y2="210.74"/><line x1="461.94" y1="240.43" x2="461.05" y2="242.13"/><line x1="436.26" y1="272.86" x2="435.30" y2="300.47"/><line x1="180.28" y1="397.90" x2="179.72" y2="397.58"/><line x1="42.94" y1="417.16" x2="40.03" y2="421.08"/><line x1="214.82" y1="330.04" x2="208.86" y2="366.98"/><line x1="459.18" y1="328.50" x2="458.60" y2="328.01"/><line x1="256.27" y1="319.93" x2="253.72" y2="314.88"/><line x1="214.82" y1="330.04" x2="195.47" y2="388.13"/><line x1="313.20" y1="372.15" x2="334.53" y2="335.60"/><line x1="235.79" y1="343.76" x2="233.80" y2="344.78"/><line x1="37.52" y1="424.62" x2="39.31" y2="428.71"/><line x1="472.17" y1="236.64" x2="464.20" y2="235.35"/><line x1="388.27" y1="234.07" x2="390.88" y2="239.29"/><line x1="209.17" y1="300.97" x2="209.67" y2="302.57"/><line x1="208.70" y1="329.66" x2="205.54" y2="329.55"/><line x1="238.60" y1="272.77" x2="207.07" y2="293.40"/><line x1="442.60" y1="308.78" x2="444.38" y2="310.89"/><line x1="95.67" y1="395.14" x2="79.59" y2="378.25"/><line x1="238.60" y1="272.77" x2="212.43" y2="310.47"/><line x1="201.44" y1="240.89" x2="234.77" y2="245.86"/><line x1="202.26" y1="329.52" x2="183.73" y2="399.86"/><line x1="238.60" y1="272.77" x2="218.11" y2="324.40"/><line x1="471.79" y1="220.42" x2="472.55" y2="219.60"/><line x1="309.46" y1="225.10" x2="308.75" y2="229.84"/><line x1="253.72" y1="314.88" x2="246.03" y2="339.67"/><line x1="386.11" y1="242.28" x2="386.93" y2="242.02"/><line x1="397.21" y1="270.88" x2="394.17" y2="269.38"/><line x1="289.99" y1="295.54" x2="305.27" y2="291.92"/><line x1="218.11" y1="324.40" x2="218.77" y2="325.94"/><line x1="112.21" y1="355.31" x2="116.34" y2="388.09"/><line x1="283.39" y1="353.50" x2="272.69" y2="339.04"/><line x1="203.80" y1="212.08" x2="203.14" y2="216.74"/><line x1="312.36" y1="317.30" x2="309.62" y2="315.18"/><line x1="179.31" y1="331.75" x2="174.73" y2="332.67"/><line x1="379.65" y1="245.46" x2="346.70" y2="256.63"/><line x1="270.92" y1="161.43" x2="227.80" y2="147.87"/><line x1="199.13" y1="380.69" x2="197.80" y2="383.13"/><line x1="286.66" y1="242.29" x2="283.10" y2="234.59"/><line x1="251.04" y1="309.21" x2="248.32" y2="302.94"/><line x1="450.52" y1="318.43" x2="449.98" y2="317.72"/><line x1="225.94" y1="349.88" x2="223.99" y2="351.46"/><line x1="213.02" y1="312.03" x2="213.62" y2="313.59"/><line x1="442.94" y1="392.94" x2="432.50" y2="374.45"/><line x1="63.31" y1="393.61" x2="67.86" y2="409.89"/><line x1="236.86" y1="264.14" x2="202.40" y2="265.42"/><line x1="214.82" y1="330.04" x2="202.08" y2="375.93"/><line x1="180.84" y1="398.23" x2="180.28" y2="397.90"/><line x1="453.97" y1="254.13" x2="452.83" y2="255.81"/><line x1="264.51" y1="105.47" x2="257.16" y2="111.76"/><line x1="311.48" y1="167.44" x2="311.43" y2="162.70"/><line x1="388.27" y1="234.07" x2="388.39" y2="241.33"/><line x1="208.70" y1="329.66" x2="188.99" y2="402.64"/><line x1="454.47" y1="323.58" x2="453.89" y2="322.86"/><line x1="248.32" y1="302.94" x2="235.79" y2="343.76"/><line x1="238.60" y1="272.77" x2="209.67" y2="302.57"/><line x1="462.93" y1="379.38" x2="463.55" y2="386.69"/><line x1="275.37" y1="337.53" x2="278.07" y2="335.95"/><line x1="238.60" y1="272.77" x2="214.87" y2="316.70"/><line x1="419.03" y1="371.57" x2="406.63" y2="368.45"/><line x1="202.26" y1="329.52" x2="181.42" y2="398.56"/><line x1="360.50" y1="257.94" x2="357.02" y2="257.39"/><line x1="238.60" y1="272.77" x2="220.77" y2="330.54"/><line x1="201.56" y1="235.98" x2="201.44" y2="240.89"/><line x1="431.96" y1="274.50" x2="425.63" y2="290.58"/><line x1="305.79" y1="243.87" x2="304.50" y2="248.47"/><line x1="258.75" y1="241.58" x2="279.63" y2="225.95"/><line x1="153.57" y1="338.44" x2="151.09" y2="386.75"/><line x1="192.96" y1="395.93" x2="192.43" y2="398.60"/><line x1="276.43" y1="216.48" x2="273.70" y2="206.33"/><line x1="384.54" y1="265.12" x2="381.20" y2="263.81"/><line x1="467.65" y1="226.99" x2="467.18" y2="228.01"/><line x1="388.39" y1="241.33" x2="389.01" y2="240.94"/><line x1="245.64" y1="296.13" x2="243.07" y2="288.80"/><line x1="461.47" y1="315.08" x2="451.06" y2="319.15"/><line x1="232.70" y1="140.26" x2="227.80" y2="147.87"/><line x1="340.02" y1="256.98" x2="343.34" y2="256.71"/><line x1="377.82" y1="262.58" x2="383.38" y2="254.40"/><line x1="217.44" y1="322.87" x2="218.11" y2="324.40"/><line x1="406.63" y1="368.45" x2="398.57" y2="397.92"/><line x1="426.24" y1="274.93" x2="422.98" y2="274.72"/><line x1="379.65" y1="245.46" x2="363.99" y2="258.64"/><line x1="408.18" y1="276.97" x2="408.48" y2="271.32"/><line x1="172.46" y1="393.74" x2="179.31" y2="331.75"/><line x1="252.55" y1="337.69" x2="250.34" y2="338.33"/><line x1="447.92" y1="262.25" x2="446.59" y2="263.77"/><line x1="311.61" y1="181.80" x2="311.61" y2="186.61"/><line x1="126.82" y1="348.31" x2="119.42" y2="351.60"/><line x1="436.26" y1="272.86" x2="437.15" y2="302.52"/><line x1="451.06" y1="319.15" x2="450.52" y2="318.43"/><line x1="293.93" y1="325.97" x2="296.31" y2="324.39"/><line x1="459.18" y1="328.50" x2="459.77" y2="328.93"/><line x1="214.82" y1="330.04" x2="196.58" y2="385.61"/><line x1="422.98" y1="274.72" x2="417.26" y2="283.36"/><line x1="248.77" y1="210.01" x2="271.59" y2="195.61"/><line x1="459.98" y1="326.51" x2="460.34" y2="323.35"/><line x1="238.60" y1="272.77" x2="206.03" y2="288.95"/><line x1="442.60" y1="308.78" x2="463.03" y2="304.73"/><line x1="238.60" y1="272.77" x2="211.85" y2="308.90"/><line x1="465.04" y1="233.25" x2="464.62" y2="234.30"/><line x1="463.55" y1="386.69" x2="457.16" y2="388.81"/><line x1="472.53" y1="231.56" x2="465.86" y2="231.14"/><line x1="238.60" y1="272.77" x2="217.44" y2="322.87"/><line x1="471.67" y1="242.15" x2="462.90" y2="238.44"/><line x1="363.99" y1="258.64" x2="360.50" y2="257.94"/><line x1="309.46" y1="225.10" x2="360.61" y2="209.86"/><line x1="280.77" y1="94.39" x2="272.38" y2="99.66"/><line x1="375.39" y1="358.03" x2="353.30" y2="389.70"/><line x1="372.64" y1="220.19" x2="376.60" y2="223.64"/><line x1="397.21" y1="270.88" x2="397.54" y2="266.37"/><line x1="340.54" y1="385.10" x2="327.17" y2="379.29"/><line x1="241.86" y1="341.14" x2="239.81" y2="341.95"/><line x1="440.92" y1="269.34" x2="439.41" y2="270.58"/><line x1="283.39" y1="353.50" x2="267.53" y2="341.78"/><line x1="336.78" y1="188.88" x2="340.67" y2="192.44"/><line x1="279.56" y1="281.46" x2="309.88" y2="280.25"/><line x1="457.20" y1="249.00" x2="456.16" y2="250.72"/><line x1="431.52" y1="296.43" x2="429.58" y2="294.45"/><line x1="304.33" y1="318.91" x2="312.36" y2="317.30"/><line x1="379.65" y1="245.46" x2="350.11" y2="256.72"/><line x1="311.17" y1="205.92" x2="344.60" y2="195.97"/><line x1="286.66" y1="242.29" x2="261.91" y2="249.03"/><line x1="410.53" y1="278.47" x2="408.18" y2="276.97"/><line x1="331.12" y1="259.08" x2="333.88" y2="258.12"/><line x1="109.45" y1="389.99" x2="102.56" y2="392.35"/><line x1="321.79" y1="174.24" x2="325.43" y2="177.97"/><line x1="345.48" y1="342.99" x2="339.72" y2="339.25"/><line x1="436.26" y1="272.86" x2="434.31" y2="273.83"/><line x1="462.43" y1="239.45" x2="461.94" y2="240.43"/><line x1="214.82" y1="330.04" x2="203.68" y2="373.63"/><line x1="426.75" y1="396.25" x2="417.89" y2="397.35"/><line x1="268.74" y1="263.10" x2="318.91" y2="267.51"/><line x1="459.98" y1="326.51" x2="459.18" y2="328.50"/><line x1="265.26" y1="256.22" x2="298.20" y2="260.99"/><line x1="404.75" y1="269.88" x2="401.08" y2="268.23"/><line x1="296.13" y1="301.97" x2="293.17" y2="299.08"/><line x1="238.60" y1="272.77" x2="209.17" y2="300.97"/><line x1="462.93" y1="379.38" x2="469.49" y2="384.67"/><line x1="298.61" y1="363.58" x2="283.39" y2="353.50"/><line x1="238.60" y1="272.77" x2="214.24" y2="315.15"/><line x1="231.83" y1="345.90" x2="229.86" y2="347.11"/><line x1="202.26" y1="329.52" x2="181.99" y2="398.88"/><line x1="192.06" y1="401.32" x2="191.30" y2="403.79"/><line x1="423.59" y1="288.71" x2="421.52" y2="286.88"/><line x1="253.72" y1="314.88" x2="251.04" y2="309.21"/><line x1="276.43" y1="216.48" x2="250.77" y2="218.08"/><line x1="232.70" y1="140.26" x2="270.92" y2="161.43"/><line x1="186.07" y1="401.13" x2="185.49" y2="400.81"/><line x1="303.29" y1="303.56" x2="303.52" y2="300.72"/><line x1="73.86" y1="383.34" x2="68.42" y2="388.48"/><line x1="243.07" y1="288.80" x2="225.94" y2="349.88"/><line x1="379.65" y1="245.46" x2="367.48" y2="259.46"/><line x1="321.87" y1="325.46" x2="291.44" y2="327.61"/><line x1="198.86" y1="329.57" x2="195.32" y2="329.74"/><line x1="298.20" y1="260.99" x2="299.51" y2="261.98"/><line x1="202.00" y1="260.56" x2="236.86" y2="264.14"/><line x1="126.82" y1="348.31" x2="130.16" y2="385.81"/><line x1="472.72" y1="226.97" x2="468.67" y2="224.99"/><line x1="460.85" y1="319.51" x2="452.74" y2="321.38"/><line x1="98.43" y1="363.76" x2="91.89" y2="368.41"/><line x1="391.47" y1="238.54" x2="391.68" y2="238.22"/><line x1="318.43" y1="322.48" x2="315.27" y2="319.74"/><line x1="205.35" y1="371.36" x2="203.68" y2="373.63"/><line x1="308.49" y1="283.10" x2="279.56" y2="281.46"/><line x1="456.23" y1="325.66" x2="455.64" y2="324.99"/><line x1="261.88" y1="335.04" x2="264.35" y2="334.32"/><line x1="459.98" y1="326.51" x2="457.41" y2="326.91"/><line x1="238.60" y1="272.77" x2="205.09" y2="284.39"/><line x1="302.59" y1="320.12" x2="304.33" y2="318.91"/><line x1="248.32" y1="302.94" x2="245.64" y2="296.13"/><line x1="158.15" y1="388.36" x2="153.57" y2="338.44"/><line x1="303.52" y1="300.72" x2="303.94" y2="297.82"/><line x1="472.53" y1="231.56" x2="466.29" y2="230.09"/><line x1="215.92" y1="170.73" x2="212.88" y2="178.12"/><line x1="388.12" y1="259.68" x2="385.57" y2="257.11"/><line x1="471.67" y1="242.15" x2="463.35" y2="237.43"/><line x1="182.57" y1="399.21" x2="181.99" y2="398.88"/><line x1="328.44" y1="260.30" x2="331.12" y2="259.08"/><line x1="216.28" y1="358.81" x2="214.40" y2="360.77"/><line x1="372.64" y1="220.19" x2="305.79" y2="243.87"/><line x1="340.54" y1="385.10" x2="351.86" y2="346.77"/><line x1="241.86" y1="341.14" x2="251.04" y2="309.21"/><line x1="53.70" y1="418.93" x2="46.27" y2="412.90"/><line x1="255.80" y1="233.92" x2="253.13" y2="226.07"/><line x1="205.09" y1="284.39" x2="206.03" y2="288.95"/><line x1="452.74" y1="321.38" x2="452.17" y2="320.63"/><line x1="327.17" y1="379.29" x2="345.48" y2="342.99"/><line x1="321.87" y1="325.46" x2="278.07" y2="335.95"/><line x1="205.54" y1="329.55" x2="186.07" y2="401.13"/><line x1="88.75" y1="398.33" x2="81.82" y2="401.87"/><line x1="321.87" y1="325.46" x2="318.43" y2="322.48"/><line x1="325.45" y1="86.46" x2="342.31" y2="78.21"/><line x1="46.27" y1="412.90" x2="42.94" y2="417.16"/><line x1="195.47" y1="388.13" x2="194.50" y2="390.69"/><line x1="314.89" y1="272.22" x2="268.74" y2="263.10"/><line x1="311.22" y1="95.58" x2="299.43" y2="105.46"/><line x1="395.27" y1="365.13" x2="377.07" y2="395.64"/><line x1="254.81" y1="337.05" x2="252.55" y2="337.69"/><line x1="345.48" y1="342.99" x2="313.20" y2="372.15"/><line x1="321.79" y1="174.24" x2="311.61" y2="181.80"/><line x1="214.87" y1="316.70" x2="215.50" y2="318.25"/><line x1="137.10" y1="385.52" x2="126.82" y2="348.31"/><line x1="440.80" y1="306.68" x2="442.60" y2="308.78"/><line x1="238.38" y1="206.30" x2="206.41" y2="198.65"/><line x1="381.64" y1="251.55" x2="380.38" y2="248.56"/><line x1="310.51" y1="215.54" x2="310.04" y2="220.33"/><line x1="270.31" y1="184.47" x2="246.03" y2="193.75"/><line x1="268.74" y1="263.10" x2="316.83" y2="269.79"/><line x1="236.30" y1="216.47" x2="203.14" y2="216.74"/><line x1="207.08" y1="369.15" x2="205.35" y2="371.36"/><line x1="265.26" y1="256.22" x2="296.08" y2="258.39"/><line x1="380.81" y1="242.51" x2="382.02" y2="242.64"/><line x1="231.83" y1="345.90" x2="245.64" y2="296.13"/><line x1="35.45" y1="427.71" x2="33.83" y2="430.31"/><line x1="192.06" y1="401.32" x2="190.73" y2="403.51"/><line x1="210.19" y1="304.17" x2="210.72" y2="305.75"/><line x1="465.79" y1="286.57" x2="464.84" y2="292.88"/><line x1="401.08" y1="268.23" x2="397.21" y2="270.88"/><line x1="469.49" y1="384.67" x2="463.55" y2="386.69"/><line x1="462.21" y1="310.13" x2="448.92" y2="316.36"/><line x1="311.50" y1="196.27" x2="311.37" y2="201.10"/><line x1="183.15" y1="399.53" x2="182.57" y2="399.21"/><line x1="458.21" y1="247.28" x2="457.20" y2="249.00"/><line x1="289.68" y1="89.74" x2="280.77" y2="94.39"/><line x1="415.06" y1="281.67" x2="412.82" y2="280.04"/><line x1="235.06" y1="226.48" x2="202.14" y2="226.27"/><line x1="33.83" y1="430.31" x2="32.68" y2="432.35"/><line x1="296.08" y1="258.39" x2="298.20" y2="260.99"/><line x1="456.83" y1="326.30" x2="456.23" y2="325.66"/><line x1="243.93" y1="340.39" x2="241.86" y2="341.14"/><line x1="234.58" y1="236.29" x2="234.77" y2="245.86"/><line x1="303.29" y1="303.56" x2="298.82" y2="304.17"/><line x1="223.38" y1="155.53" x2="219.42" y2="163.17"/><line x1="321.87" y1="325.46" x2="283.39" y2="353.50"/><line x1="321.87" y1="325.46" x2="288.85" y2="329.28"/><line x1="384.43" y1="230.57" x2="386.11" y2="242.28"/><line x1="205.54" y1="329.55" x2="202.26" y2="329.52"/><line x1="105.21" y1="359.38" x2="98.43" y2="363.76"/><line x1="240.69" y1="281.01" x2="220.05" y2="355.03"/><line x1="433.42" y1="298.44" x2="431.52" y2="296.43"/><line x1="198.86" y1="329.57" x2="179.72" y2="397.58"/><line x1="364.63" y1="213.31" x2="368.64" y2="216.75"/><line x1="282.49" y1="126.91" x2="276.97" y2="138.24"/><line x1="210.68" y1="364.86" x2="208.86" y2="366.98"/><line x1="196.58" y1="385.61" x2="195.47" y2="388.13"/><line x1="202.92" y1="270.26" x2="203.54" y2="275.03"/><line x1="472.72" y1="226.97" x2="469.21" y2="224.03"/><line x1="464.84" y1="292.88" x2="438.98" y2="304.59"/><line x1="460.85" y1="319.51" x2="453.31" y2="322.12"/><line x1="276.97" y1="138.24" x2="243.94" y2="125.48"/><line x1="98.43" y1="363.76" x2="109.45" y2="389.99"/><line x1="298.82" y1="304.17" x2="303.52" y2="300.72"/><line x1="387.81" y1="266.48" x2="388.12" y2="259.68"/><line x1="435.10" y1="394.74" x2="426.75" y2="396.25"/><line x1="459.98" y1="326.51" x2="458.01" y2="327.48"/><line x1="348.58" y1="199.47" x2="352.57" y2="202.95"/><line x1="265.26" y1="256.22" x2="261.91" y2="249.03"/><line x1="259.47" y1="335.73" x2="257.11" y2="336.40"/><line x1="468.64" y1="267.01" x2="451.66" y2="257.46"/><line x1="234.77" y1="245.86" x2="201.51" y2="250.74"/><line x1="303.52" y1="300.72" x2="296.13" y2="301.97"/><line x1="472.53" y1="231.56" x2="466.72" y2="229.04"/><line x1="388.12" y1="259.68" x2="384.54" y2="265.12"/><line x1="453.31" y1="322.12" x2="452.74" y2="321.38"/><line x1="460.34" y1="323.35" x2="460.85" y2="319.51"/><line x1="245.37" y1="185.65" x2="241.38" y2="196.02"/><line x1="280.80" y1="334.32" x2="283.52" y2="332.65"/><line x1="195.32" y1="329.74" x2="191.61" y2="330.02"/><line x1="429.26" y1="274.86" x2="423.59" y2="288.71"/><line x1="304.50" y1="248.47" x2="379.51" y2="242.25"/><line x1="255.80" y1="233.92" x2="276.43" y2="216.48"/><line x1="467.71" y1="273.57" x2="466.76" y2="280.11"/><line x1="452.74" y1="321.38" x2="461.47" y2="315.08"/><line x1="466.72" y1="229.04" x2="466.29" y2="230.09"/><line x1="384.43" y1="230.57" x2="380.81" y2="242.51"/><line x1="88.75" y1="398.33" x2="73.86" y2="383.34"/><line x1="384.43" y1="230.57" x2="388.27" y2="234.07"/><line x1="286.63" y1="291.40" x2="307.26" y2="286.01"/><line x1="374.40" y1="261.44" x2="381.64" y2="251.55"/><line x1="311.22" y1="95.58" x2="299.12" y2="85.78"/><line x1="395.27" y1="365.13" x2="388.09" y2="397.19"/><line x1="298.56" y1="322.87" x2="300.66" y2="321.44"/><line x1="308.75" y1="229.84" x2="307.91" y2="234.55"/><line x1="469.51" y1="260.52" x2="452.83" y2="255.81"/><line x1="165.27" y1="390.68" x2="164.77" y2="335.10"/><line x1="466.76" y1="280.11" x2="445.24" y2="265.24"/><line x1="299.43" y1="105.46" x2="289.68" y2="89.74"/><line x1="334.53" y1="335.60" x2="329.87" y2="332.06"/><line x1="381.64" y1="251.55" x2="370.95" y2="260.40"/><line x1="270.31" y1="184.47" x2="245.37" y2="185.65"/><line x1="449.98" y1="317.72" x2="462.21" y2="310.13"/><line x1="236.30" y1="216.47" x2="203.80" y2="212.08"/><line x1="332.93" y1="185.28" x2="311.50" y2="196.27"/><line x1="464.20" y1="235.35" x2="463.78" y2="236.40"/><line x1="419.52" y1="274.25" x2="415.06" y2="281.67"/><line x1="203.14" y1="216.74" x2="235.06" y2="226.48"/><line x1="318.91" y1="267.51" x2="299.51" y2="261.98"/><line x1="465.79" y1="286.57" x2="437.86" y2="271.76"/><line x1="238.60" y1="272.77" x2="212.53" y2="362.79"/><line x1="366.77" y1="354.33" x2="358.95" y2="350.56"/><line x1="314.78" y1="166.61" x2="311.53" y2="172.21"/><line x1="462.21" y1="310.13" x2="449.44" y2="317.02"/><line x1="311.50" y1="196.27" x2="336.78" y2="188.88"/><line x1="211.79" y1="329.82" x2="208.70" y2="329.66"/><line x1="379.65" y1="245.46" x2="303.02" y2="253.03"/><line x1="437.86" y1="271.76" x2="436.26" y2="272.86"/><line x1="385.57" y1="257.11" x2="383.38" y2="254.40"/><line x1="275.94" y1="275.76" x2="313.08" y2="274.79"/><line x1="415.06" y1="281.67" x2="415.92" y2="273.52"/><line x1="235.06" y1="226.48" x2="202.58" y2="221.48"/><line x1="234.58" y1="236.29" x2="201.44" y2="240.89"/><line x1="246.03" y1="193.75" x2="247.17" y2="201.89"/><line x1="303.02" y1="253.03" x2="301.36" y2="257.54"/><line x1="384.43" y1="230.57" x2="385.20" y2="242.49"/><line x1="257.16" y1="111.76" x2="276.97" y2="138.24"/><line x1="205.54" y1="329.55" x2="184.32" y2="400.18"/><line x1="408.48" y1="271.32" x2="404.75" y2="269.88"/><line x1="353.56" y1="256.97" x2="350.11" y2="256.72"/><line x1="214.24" y1="315.15" x2="214.87" y2="316.70"/><line x1="299.51" y1="261.98" x2="331.12" y2="259.08"/><line x1="210.68" y1="364.86" x2="214.82" y2="330.04"/><line x1="379.65" y1="245.46" x2="340.02" y2="256.98"/><line x1="310.89" y1="210.74" x2="348.58" y2="199.47"/><line x1="261.91" y1="249.03" x2="258.75" y2="241.58"/><line x1="471.05" y1="248.01" x2="460.13" y2="243.84"/><line x1="179.72" y1="397.58" x2="195.32" y2="329.74"/><line x1="46.54" y1="423.75" x2="37.52" y2="424.62"/><line x1="464.84" y1="292.88" x2="436.26" y2="272.86"/><line x1="276.97" y1="138.24" x2="250.30" y2="118.45"/><line x1="405.78" y1="275.52" x2="403.03" y2="273.97"/><line x1="39.31" y1="428.71" x2="32.00" y2="433.79"/><line x1="279.63" y1="225.95" x2="255.80" y2="233.92"/><line x1="273.17" y1="149.79" x2="270.92" y2="161.43"/><line x1="233.80" y1="344.78" x2="231.83" y2="345.90"/><line x1="348.58" y1="199.47" x2="310.51" y2="215.54"/><line x1="467.18" y1="228.01" x2="466.72" y2="229.04"/><line x1="389.01" y1="240.94" x2="389.57" y2="240.54"/><line x1="463.03" y1="304.73" x2="446.15" y2="313.00"/><line x1="79.59" y1="378.25" x2="88.75" y2="398.33"/><line x1="470.33" y1="254.16" x2="469.51" y2="260.52"/><line x1="234.77" y1="245.86" x2="201.42" y2="245.81"/><line x1="398.57" y1="397.92" x2="395.27" y2="365.13"/><line x1="235.55" y1="255.16" x2="236.86" y2="264.14"/><line x1="293.17" y1="299.08" x2="289.99" y2="295.54"/><line x1="318.91" y1="267.51" x2="321.11" y2="265.40"/><line x1="472.73" y1="222.97" x2="471.09" y2="221.28"/><line x1="119.42" y1="351.60" x2="112.21" y2="355.31"/><line x1="460.34" y1="323.35" x2="455.05" y2="324.30"/><line x1="389.57" y1="240.54" x2="390.07" y2="240.11"/><line x1="446.59" y1="263.77" x2="466.76" y2="280.11"/><line x1="397.54" y1="266.37" x2="394.16" y2="264.32"/><line x1="305.27" y1="291.92" x2="286.63" y2="291.40"/><line x1="447.12" y1="377.07" x2="450.29" y2="390.92"/><line x1="218.77" y1="325.94" x2="219.43" y2="327.47"/><line x1="296.31" y1="324.39" x2="298.56" y2="322.87"/><line x1="360.61" y1="209.86" x2="308.75" y2="229.84"/><line x1="456.16" y1="250.72" x2="455.08" y2="252.44"/><line x1="174.73" y1="332.67" x2="165.27" y2="390.68"/><line x1="227.80" y1="147.87" x2="223.38" y2="155.53"/><line x1="394.17" y1="269.38" x2="391.03" y2="267.90"/><line x1="417.26" y1="283.36" x2="419.52" y2="274.25"/><line x1="286.63" y1="291.40" x2="306.19" y2="288.95"/><line x1="271.59" y1="195.61" x2="247.17" y2="201.89"/><line x1="270.07" y1="340.46" x2="272.69" y2="339.04"/><line x1="223.99" y1="351.46" x2="240.69" y2="281.01"/><line x1="298.56" y1="322.87" x2="318.43" y2="322.48"/><line x1="308.75" y1="229.84" x2="364.63" y2="213.31"/><line x1="263.62" y1="333.01" x2="262.37" y2="330.88"/><line x1="464.62" y1="234.30" x2="464.20" y2="235.35"/><line x1="388.27" y1="234.07" x2="391.84" y2="237.96"/><line x1="165.27" y1="390.68" x2="169.90" y2="333.78"/><line x1="469.51" y1="260.52" x2="453.97" y2="254.13"/><line x1="179.72" y1="397.58" x2="172.46" y2="393.74"/><line x1="67.86" y1="409.89" x2="58.52" y2="398.66"/><line x1="434.31" y1="273.83" x2="427.62" y2="292.50"/><line x1="202.40" y1="265.42" x2="202.92" y2="270.26"/><line x1="455.05" y1="324.30" x2="454.47" y2="323.58"/><line x1="190.15" y1="403.23" x2="192.43" y2="398.60"/><line x1="353.30" y1="389.70" x2="366.77" y2="354.33"/><line x1="188.99" y1="402.64" x2="188.41" y2="402.35"/><line x1="464.20" y1="235.35" x2="471.67" y2="242.15"/><line x1="391.84" y1="237.96" x2="391.96" y2="237.76"/><line x1="439.41" y1="270.58" x2="437.86" y2="271.76"/><line x1="58.52" y1="398.66" x2="54.07" y2="403.60"/><line x1="309.88" y1="280.25" x2="275.94" y2="275.76"/><line x1="357.02" y1="257.39" x2="353.56" y2="256.97"/><line x1="262.37" y1="330.88" x2="259.47" y2="335.73"/><line x1="238.60" y1="272.77" x2="214.40" y2="360.77"/><line x1="272.38" y1="99.66" x2="264.51" y2="105.47"/><line x1="314.78" y1="166.61" x2="311.43" y2="162.70"/><line x1="366.77" y1="354.33" x2="340.54" y2="385.10"/><line x1="312.36" y1="317.30" x2="305.86" y2="317.84"/><line x1="376.60" y1="223.64" x2="380.54" y2="227.10"/><line x1="188.41" y1="402.35" x2="187.82" y2="402.05"/><line x1="468.14" y1="225.98" x2="467.65" y2="226.99"/><line x1="151.09" y1="386.75" x2="147.46" y2="340.49"/><line x1="437.86" y1="271.76" x2="464.84" y2="292.88"/><line x1="210.29" y1="185.29" x2="245.37" y2="185.65"/><line x1="385.57" y1="257.11" x2="377.82" y2="262.58"/><line x1="275.94" y1="275.76" x2="311.41" y2="277.47"/><line x1="333.88" y1="258.12" x2="336.76" y2="257.45"/><line x1="212.53" y1="362.79" x2="210.68" y2="364.86"/><line x1="446.15" y1="313.00" x2="462.21" y2="310.13"/><line x1="234.58" y1="236.29" x2="201.56" y2="235.98"/><line x1="305.86" y1="317.84" x2="307.15" y2="316.93"/><line x1="258.61" y1="324.30" x2="256.27" y2="319.93"/><line x1="461.94" y1="240.43" x2="471.05" y2="248.01"/><line x1="319.62" y1="80.20" x2="309.10" y2="82.57"/><line x1="147.46" y1="340.49" x2="140.98" y2="342.80"/><line x1="449.20" y1="260.69" x2="447.92" y2="262.25"/><line x1="42.94" y1="417.16" x2="46.54" y2="423.75"/><line x1="384.43" y1="230.57" x2="384.22" y2="242.63"/><line x1="408.48" y1="271.32" x2="405.78" y2="275.52"/><line x1="207.07" y1="293.40" x2="208.22" y2="297.75"/><line x1="256.27" y1="319.93" x2="248.17" y2="338.99"/><line x1="336.76" y1="257.45" x2="340.02" y2="256.98"/><line x1="299.51" y1="261.98" x2="328.44" y2="260.30"/><line x1="325.43" y1="177.97" x2="329.15" y2="181.65"/><line x1="210.68" y1="364.86" x2="217.81" y2="330.28"/><line x1="313.20" y1="372.15" x2="339.72" y2="339.25"/><line x1="185.49" y1="400.81" x2="184.90" y2="400.50"/><line x1="472.17" y1="236.64" x2="464.62" y2="234.30"/><line x1="388.27" y1="234.07" x2="390.51" y2="239.70"/><line x1="208.70" y1="329.66" x2="186.65" y2="401.43"/><line x1="130.16" y1="385.81" x2="123.24" y2="386.68"/><line x1="471.05" y1="248.01" x2="461.05" y2="242.13"/><line x1="205.43" y1="203.03" x2="204.56" y2="207.51"/><line x1="46.54" y1="423.75" x2="40.03" y2="421.08"/><line x1="316.83" y1="269.79" x2="318.91" y2="267.51"/><line x1="39.31" y1="428.71" x2="32.68" y2="432.35"/><line x1="273.17" y1="149.79" x2="232.70" y2="140.26"/><line x1="339.72" y1="339.25" x2="334.53" y2="335.60"/><line x1="190.15" y1="403.23" x2="190.73" y2="403.51"/><line x1="471.79" y1="220.42" x2="472.73" y2="222.97"/><line x1="184.90" y1="400.50" x2="184.32" y2="400.18"/><line x1="463.03" y1="304.73" x2="444.38" y2="310.89"/><line x1="386.11" y1="242.28" x2="388.27" y2="234.07"/><line x1="220.77" y1="330.54" x2="217.81" y2="330.28"/><line x1="318.91" y1="267.51" x2="265.26" y2="256.22"/><line x1="458.60" y1="328.01" x2="458.01" y2="327.48"/><line x1="238.60" y1="272.77" x2="240.69" y2="281.01"/><line x1="315.27" y1="319.74" x2="312.36" y2="317.30"/><line x1="290.13" y1="248.91" x2="286.66" y2="242.29"/><line x1="235.55" y1="255.16" x2="202.00" y2="260.56"/><line x1="472.73" y1="222.97" x2="472.55" y2="219.60"/><line x1="460.34" y1="323.35" x2="455.64" y2="324.99"/><line x1="312.36" y1="317.30" x2="309.45" y2="315.30"/><line x1="289.91" y1="115.94" x2="282.49" y2="126.91"/><line x1="119.42" y1="351.60" x2="123.24" y2="386.68"/><line x1="397.54" y1="266.37" x2="394.17" y2="269.38"/><line x1="379.51" y1="242.25" x2="379.65" y2="245.46"/><line x1="251.04" y1="309.21" x2="237.79" y2="342.82"/><line x1="447.12" y1="377.07" x2="457.16" y2="388.81"/><line x1="311.37" y1="201.10" x2="311.17" y2="205.92"/><line x1="202.08" y1="375.93" x2="200.57" y2="378.29"/><line x1="181.42" y1="398.56" x2="180.84" y2="398.23"/><line x1="456.16" y1="250.72" x2="469.51" y2="260.52"/><line x1="391.68" y1="238.22" x2="391.84" y2="237.96"/><line x1="202.14" y1="226.27" x2="201.80" y2="231.11"/><line x1="394.17" y1="269.38" x2="394.16" y2="264.32"/><line x1="455.64" y1="324.99" x2="455.05" y2="324.30"/><line x1="219.42" y1="163.17" x2="215.92" y2="170.73"/><line x1="194.50" y1="390.69" x2="193.65" y2="393.29"/><line x1="311.48" y1="167.44" x2="314.78" y2="166.61"/><line x1="299.51" y1="261.98" x2="340.02" y2="256.98"/><line x1="388.27" y1="234.07" x2="387.70" y2="241.70"/><line x1="270.07" y1="340.46" x2="267.53" y2="341.78"/><line x1="91.89" y1="368.41" x2="85.61" y2="373.25"/><line x1="388.27" y1="234.07" x2="391.68" y2="238.22"/><line x1="434.31" y1="273.83" x2="429.58" y2="294.45"/><line x1="212.88" y1="178.12" x2="210.29" y2="185.29"/><line x1="368.64" y1="216.75" x2="372.64" y2="220.19"/><line x1="419.03" y1="371.57" x2="408.49" y2="397.94"/><line x1="455.05" y1="324.30" x2="460.85" y2="319.51"/><line x1="190.15" y1="403.23" x2="192.96" y2="395.93"/><line x1="238.60" y1="272.77" x2="220.10" y2="329.00"/><line x1="214.40" y1="360.77" x2="212.53" y2="362.79"/><line x1="468.67" y1="224.99" x2="468.14" y2="225.98"/><line x1="305.79" y1="243.87" x2="376.60" y2="223.64"/><line x1="243.94" y1="125.48" x2="238.08" y2="132.77"/><line x1="303.94" y1="297.82" x2="304.52" y2="294.88"/><line x1="429.58" y1="294.45" x2="427.62" y2="292.50"/><line x1="384.54" y1="265.12" x2="385.57" y2="257.11"/><line x1="206.03" y1="288.95" x2="207.07" y2="293.40"/><line x1="461.47" y1="315.08" x2="451.61" y2="319.89"/><line x1="245.64" y1="296.13" x2="227.90" y2="348.43"/><line x1="352.57" y1="202.95" x2="356.59" y2="206.41"/><line x1="238.60" y1="272.77" x2="216.28" y2="358.81"/><line x1="376.60" y1="223.64" x2="304.50" y2="248.47"/><line x1="472.73" y1="222.97" x2="472.72" y2="226.97"/><line x1="426.24" y1="274.93" x2="419.42" y2="285.09"/><line x1="201.51" y1="250.74" x2="201.70" y2="255.66"/><line x1="385.57" y1="257.11" x2="381.20" y2="263.81"/><line x1="252.55" y1="337.69" x2="256.27" y2="319.93"/><line x1="311.61" y1="181.80" x2="325.43" y2="177.97"/><line x1="465.86" y1="231.14" x2="465.45" y2="232.20"/></g></svg>