<svg xmlns="http://www.w3.org/2000/svg" width="512" height="512"><rect width="512" height="512" fill="#0a0f1a"/><text x="12" y="20" font-family="monospace" font-size="11" fill="#4a7fa5">FRONT (XZ)</text><g stroke="#00d4ff" stroke-width="0.6" opacity="0.85"><line x1="107.29" y1="233.96" x2="126.43" y2="252.67"/><line x1="159.13" y1="336.03" x2="214.34" y2="357.75"/><line x1="355.47" y1="269.22" x2="352.31" y2="226.90"/><line x1="133.54" y1="273.38" x2="176.86" y2="268.10"/><line x1="332.15" y1="73.23" x2="324.35" y2="78.68"/><line x1="314.58" y1="273.01" x2="321.41" y2="272.37"/><line x1="429.15" y1="123.56" x2="437.51" y2="118.85"/><line x1="226.62" y1="338.82" x2="281.22" y2="334.09"/><line x1="446.32" y1="322.57" x2="446.84" y2="318.49"/><line x1="95.13" y1="272.22" x2="99.81" y2="268.04"/><line x1="120.98" y1="383.73" x2="151.48" y2="413.72"/><line x1="400.37" y1="225.60" x2="391.51" y2="268.96"/><line x1="98.99" y1="246.02" x2="114.26" y2="256.92"/><line x1="176.86" y1="268.10" x2="132.92" y2="277.08"/><line x1="316.28" y1="84.46" x2="332.95" y2="97.44"/><line x1="71.29" y1="372.70" x2="67.32" y2="367.48"/><line x1="316.28" y1="84.46" x2="343.45" y2="122.00"/><line x1="211.17" y1="243.54" x2="214.70" y2="250.00"/><line x1="388.32" y1="153.22" x2="370.18" y2="120.54"/><line x1="207.09" y1="435.52" x2="196.97" y2="443.86"/><line x1="151.48" y1="413.72" x2="130.03" y2="375.70"/><line x1="196.74" y1="137.51" x2="192.24" y2="141.04"/><line x1="342.40" y1="107.16" x2="341.08" y2="106.62"/><line x1="67.32" y1="367.48" x2="67.60" y2="374.15"/><line x1="346.78" y1="269.71" x2="287.12" y2="214.22"/><line x1="355.45" y1="200.00" x2="317.55" y2="174.34"/><line x1="114.26" y1="256.92" x2="107.29" y2="233.96"/><line x1="463.70" y1="281.76" x2="440.23" y2="283.08"/><line x1="192.24" y1="141.04" x2="187.42" y2="144.94"/><line x1="95.08" y1="337.32" x2="100.87" y2="358.28"/><line x1="275.02" y1="349.06" x2="271.42" y2="356.61"/><line x1="274.57" y1="117.85" x2="311.37" y2="158.76"/><line x1="258.06" y1="379.56" x2="223.35" y2="369.85"/><line x1="458.12" y1="306.75" x2="447.02" y2="301.78"/><line x1="107.29" y1="233.96" x2="116.95" y2="255.35"/><line x1="437.51" y1="118.85" x2="436.18" y2="106.45"/><line x1="179.28" y1="395.48" x2="186.87" y2="389.03"/><line x1="440.23" y1="283.08" x2="464.35" y2="277.44"/><line x1="107.29" y1="233.96" x2="131.09" y2="254.37"/><line x1="374.01" y1="225.22" x2="372.32" y2="268.70"/><line x1="332.15" y1="73.23" x2="337.60" y2="71.43"/><line x1="437.58" y1="280.03" x2="464.80" y2="264.36"/><line x1="311.37" y1="158.76" x2="266.46" y2="125.31"/><line x1="255.35" y1="271.50" x2="264.04" y2="272.81"/><line x1="404.04" y1="140.20" x2="399.76" y2="110.22"/><line x1="446.67" y1="339.89" x2="443.34" y2="337.40"/><line x1="186.87" y1="389.03" x2="149.35" y2="354.02"/><line x1="165.07" y1="164.96" x2="189.17" y2="206.27"/><line x1="372.32" y1="268.70" x2="368.49" y2="225.54"/><line x1="316.28" y1="84.46" x2="335.14" y2="102.49"/><line x1="282.13" y1="283.46" x2="294.41" y2="289.83"/><line x1="161.37" y1="311.78" x2="206.62" y2="282.85"/><line x1="316.28" y1="84.46" x2="332.54" y2="91.33"/><line x1="264.04" y1="272.81" x2="272.89" y2="273.65"/><line x1="337.53" y1="151.83" x2="368.41" y2="175.29"/><line x1="464.80" y1="264.36" x2="461.74" y2="257.28"/><line x1="189.17" y1="206.27" x2="158.75" y2="171.26"/><line x1="450.10" y1="331.67" x2="451.80" y2="327.06"/><line x1="335.14" y1="102.49" x2="334.50" y2="101.65"/><line x1="298.81" y1="178.34" x2="295.06" y2="185.10"/><line x1="67.32" y1="367.48" x2="57.21" y2="378.35"/><line x1="240.09" y1="403.07" x2="215.24" y2="396.40"/><line x1="368.41" y1="175.29" x2="342.78" y2="146.37"/><line x1="127.75" y1="252.89" x2="128.95" y2="253.28"/><line x1="457.17" y1="103.60" x2="461.03" y2="107.47"/><line x1="461.74" y1="257.28" x2="434.70" y2="277.73"/><line x1="160.04" y1="307.33" x2="128.39" y2="290.13"/><line x1="356.11" y1="226.63" x2="355.47" y2="269.22"/><line x1="139.22" y1="329.32" x2="114.06" y2="313.64"/><line x1="295.06" y1="185.10" x2="243.84" y2="148.96"/><line x1="396.00" y1="146.53" x2="404.04" y2="140.20"/><line x1="353.17" y1="208.75" x2="312.82" y2="180.06"/><line x1="283.33" y1="219.78" x2="314.58" y2="273.01"/><line x1="279.69" y1="225.26" x2="290.50" y2="274.16"/><line x1="451.80" y1="327.06" x2="446.32" y2="322.57"/><line x1="461.03" y1="107.47" x2="461.64" y2="102.95"/><line x1="159.13" y1="336.03" x2="210.08" y2="363.60"/><line x1="175.74" y1="233.38" x2="172.77" y2="244.33"/><line x1="355.47" y1="269.22" x2="353.70" y2="226.85"/><line x1="332.74" y1="95.98" x2="332.61" y2="94.46"/><line x1="254.58" y1="284.92" x2="286.30" y2="319.25"/><line x1="216.43" y1="427.28" x2="203.98" y2="426.49"/><line x1="314.58" y1="273.01" x2="287.12" y2="214.22"/><line x1="429.15" y1="123.56" x2="430.36" y2="107.17"/><line x1="359.00" y1="130.51" x2="388.32" y2="153.22"/><line x1="226.62" y1="338.82" x2="241.45" y2="285.20"/><line x1="446.32" y1="322.57" x2="453.47" y2="322.20"/><line x1="199.94" y1="189.88" x2="165.07" y2="164.96"/><line x1="426.68" y1="274.07" x2="441.92" y2="237.16"/><line x1="355.99" y1="112.61" x2="355.72" y2="110.19"/><line x1="112.94" y1="350.56" x2="106.79" y2="354.64"/><line x1="332.61" y1="94.46" x2="332.54" y2="92.91"/><line x1="161.37" y1="311.78" x2="228.97" y2="285.02"/><line x1="316.28" y1="84.46" x2="333.25" y2="98.84"/><line x1="285.62" y1="205.49" x2="225.31" y2="174.18"/><line x1="316.28" y1="84.46" x2="333.21" y2="84.82"/><line x1="447.38" y1="310.12" x2="447.33" y2="305.92"/><line x1="388.32" y1="153.22" x2="364.56" y2="125.46"/><line x1="474.36" y1="102.34" x2="475.31" y2="101.00"/><line x1="224.16" y1="342.71" x2="226.62" y2="338.82"/><line x1="207.09" y1="435.52" x2="197.24" y2="443.10"/><line x1="441.92" y1="237.16" x2="435.57" y2="233.90"/><line x1="225.31" y1="174.18" x2="220.37" y2="182.86"/><line x1="338.92" y1="270.31" x2="339.46" y2="270.26"/><line x1="78.02" y1="288.77" x2="84.27" y2="282.54"/><line x1="206.07" y1="421.21" x2="203.98" y2="426.49"/><line x1="410.48" y1="270.56" x2="404.34" y2="269.85"/><line x1="346.78" y1="269.71" x2="343.48" y2="269.94"/><line x1="475.31" y1="101.00" x2="477.46" y2="100.74"/><line x1="160.04" y1="307.33" x2="153.05" y2="315.29"/><line x1="279.69" y1="225.26" x2="208.71" y2="218.50"/><line x1="339.46" y1="270.26" x2="341.01" y2="270.13"/><line x1="279.69" y1="225.26" x2="246.98" y2="269.64"/><line x1="115.11" y1="428.59" x2="128.27" y2="424.15"/><line x1="271.42" y1="356.61" x2="267.42" y2="364.21"/><line x1="458.12" y1="306.75" x2="447.33" y2="305.92"/><line x1="414.74" y1="227.55" x2="407.54" y2="226.38"/><line x1="90.48" y1="258.98" x2="98.99" y2="246.02"/><line x1="347.82" y1="118.34" x2="346.84" y2="108.57"/><line x1="77.64" y1="356.63" x2="79.85" y2="369.10"/><line x1="347.82" y1="118.34" x2="335.89" y2="103.29"/><line x1="343.45" y1="122.00" x2="338.97" y2="126.13"/><line x1="333.21" y1="84.82" x2="324.35" y2="78.68"/><line x1="445.44" y1="293.77" x2="444.12" y2="289.99"/><line x1="107.29" y1="233.96" x2="115.36" y2="222.74"/><line x1="126.43" y1="252.67" x2="127.75" y2="252.89"/><line x1="404.04" y1="140.20" x2="393.61" y2="110.62"/><line x1="230.45" y1="150.86" x2="213.65" y2="171.45"/><line x1="291.25" y1="103.66" x2="320.45" y2="146.65"/><line x1="118.70" y1="306.98" x2="139.22" y2="329.32"/><line x1="226.84" y1="352.10" x2="226.02" y2="357.64"/><line x1="210.27" y1="209.48" x2="208.71" y2="218.50"/><line x1="161.37" y1="311.78" x2="217.31" y2="284.28"/><line x1="316.28" y1="84.46" x2="332.54" y2="92.91"/><line x1="104.03" y1="264.46" x2="107.83" y2="261.44"/><line x1="303.72" y1="191.53" x2="308.21" y2="185.79"/><line x1="468.00" y1="104.65" x2="474.36" y2="102.34"/><line x1="461.89" y1="291.28" x2="462.88" y2="286.40"/><line x1="445.67" y1="326.55" x2="451.80" y2="327.06"/><line x1="338.25" y1="70.25" x2="337.60" y2="71.43"/><line x1="205.26" y1="369.74" x2="159.13" y2="336.03"/><line x1="267.42" y1="364.21" x2="262.98" y2="371.86"/><line x1="288.52" y1="311.88" x2="254.58" y2="284.92"/><line x1="227.19" y1="342.60" x2="227.24" y2="347.07"/><line x1="443.31" y1="346.39" x2="441.83" y2="343.33"/><line x1="418.30" y1="108.54" x2="424.39" y2="107.87"/><line x1="161.63" y1="407.91" x2="170.89" y2="401.80"/><line x1="386.52" y1="224.97" x2="380.05" y2="225.01"/><line x1="160.04" y1="307.33" x2="130.40" y2="285.41"/><line x1="130.82" y1="202.72" x2="175.74" y2="233.38"/><line x1="396.00" y1="146.53" x2="387.54" y2="110.93"/><line x1="279.69" y1="225.26" x2="214.70" y2="250.00"/><line x1="208.28" y1="415.47" x2="216.43" y2="427.28"/><line x1="279.69" y1="225.26" x2="281.75" y2="274.08"/><line x1="51.48" y1="429.55" x2="32.00" y2="439.81"/><line x1="182.28" y1="149.25" x2="176.84" y2="154.00"/><line x1="175.74" y1="233.38" x2="123.21" y2="212.34"/><line x1="347.82" y1="118.34" x2="341.08" y2="106.62"/><line x1="102.30" y1="328.77" x2="112.94" y2="350.56"/><line x1="252.64" y1="387.33" x2="246.66" y2="395.17"/><line x1="216.43" y1="427.28" x2="206.07" y2="421.21"/><line x1="464.80" y1="273.47" x2="465.04" y2="269.93"/><line x1="333.21" y1="84.82" x2="333.52" y2="83.19"/><line x1="368.49" y1="225.54" x2="363.60" y2="225.92"/><line x1="199.94" y1="189.88" x2="171.10" y2="159.22"/><line x1="221.33" y1="347.22" x2="224.16" y2="342.71"/><line x1="355.99" y1="112.61" x2="359.72" y2="110.62"/><line x1="307.01" y1="165.14" x2="302.81" y2="171.68"/><line x1="112.94" y1="350.56" x2="95.08" y2="337.32"/><line x1="221.60" y1="376.34" x2="219.62" y2="382.99"/><line x1="278.28" y1="341.56" x2="227.19" y2="342.60"/><line x1="327.34" y1="162.99" x2="332.39" y2="157.38"/><line x1="445.68" y1="114.59" x2="453.55" y2="110.79"/><line x1="447.38" y1="310.12" x2="458.12" y2="306.75"/><line x1="366.31" y1="268.82" x2="360.67" y2="269.00"/><line x1="224.16" y1="342.71" x2="162.19" y2="321.90"/><line x1="153.05" y1="315.29" x2="146.10" y2="322.61"/><line x1="132.68" y1="257.82" x2="133.20" y2="260.67"/><line x1="227.19" y1="342.60" x2="275.02" y2="349.06"/><line x1="444.14" y1="334.00" x2="444.93" y2="330.37"/><line x1="78.02" y1="288.77" x2="81.77" y2="272.86"/><line x1="447.21" y1="104.99" x2="452.35" y2="104.28"/><line x1="153.53" y1="347.60" x2="156.75" y2="341.61"/><line x1="98.34" y1="400.93" x2="115.11" y2="428.59"/><line x1="387.54" y1="110.93" x2="404.04" y2="140.20"/><line x1="410.48" y1="270.56" x2="414.74" y2="227.55"/><line x1="133.20" y1="260.67" x2="133.60" y2="263.62"/><line x1="292.54" y1="297.16" x2="290.59" y2="304.51"/><line x1="89.77" y1="364.38" x2="77.64" y2="356.63"/><line x1="279.69" y1="225.26" x2="210.27" y2="209.48"/><line x1="374.42" y1="167.61" x2="353.51" y2="135.69"/><line x1="197.93" y1="441.38" x2="197.24" y2="443.10"/><line x1="279.69" y1="225.26" x2="239.05" y2="267.19"/><line x1="115.11" y1="428.59" x2="110.46" y2="392.14"/><line x1="279.69" y1="225.26" x2="283.33" y2="219.78"/><line x1="204.74" y1="131.40" x2="230.45" y2="150.86"/><line x1="108.61" y1="320.89" x2="102.30" y2="328.77"/><line x1="347.82" y1="118.34" x2="348.47" y2="108.96"/><line x1="291.59" y1="191.90" x2="288.43" y2="198.71"/><line x1="77.64" y1="356.63" x2="84.65" y2="366.90"/><line x1="347.82" y1="118.34" x2="336.73" y2="104.04"/><line x1="227.24" y1="347.07" x2="226.84" y2="352.10"/><line x1="299.37" y1="197.25" x2="303.72" y2="191.53"/><line x1="465.74" y1="102.35" x2="469.40" y2="101.82"/><line x1="130.03" y1="375.70" x2="137.70" y2="368.08"/><line x1="107.29" y1="233.96" x2="172.77" y2="244.33"/><line x1="445.44" y1="293.77" x2="461.89" y2="291.28"/><line x1="352.31" y1="226.90" x2="346.78" y2="269.71"/><line x1="230.45" y1="150.86" x2="250.49" y2="128.01"/><line x1="132.92" y1="277.08" x2="182.03" y2="273.37"/><line x1="237.11" y1="157.22" x2="230.91" y2="165.63"/><line x1="291.25" y1="103.66" x2="325.09" y2="141.00"/><line x1="226.84" y1="352.10" x2="267.42" y2="364.21"/><line x1="303.72" y1="191.53" x2="353.17" y2="208.75"/><line x1="104.03" y1="264.46" x2="98.99" y2="246.02"/><line x1="468.00" y1="104.65" x2="472.61" y2="101.37"/><line x1="420.72" y1="128.70" x2="418.30" y2="108.54"/><line x1="393.33" y1="225.14" x2="386.52" y2="224.97"/><line x1="474.36" y1="102.34" x2="480.00" y2="100.56"/><line x1="182.03" y1="273.37" x2="160.04" y2="307.33"/><line x1="325.09" y1="141.00" x2="320.45" y2="146.65"/><line x1="219.40" y1="255.53" x2="225.12" y2="260.20"/><line x1="443.31" y1="346.39" x2="441.18" y2="345.80"/><line x1="226.62" y1="338.82" x2="161.37" y2="311.78"/><line x1="418.30" y1="108.54" x2="429.15" y2="123.56"/><line x1="161.63" y1="407.91" x2="137.70" y2="368.08"/><line x1="339.85" y1="106.04" x2="338.72" y2="105.41"/><line x1="64.31" y1="375.41" x2="61.48" y2="376.51"/><line x1="225.12" y1="260.20" x2="231.72" y2="264.06"/><line x1="287.12" y1="214.22" x2="341.01" y2="270.13"/><line x1="396.00" y1="146.53" x2="381.60" y2="111.14"/><line x1="279.69" y1="225.26" x2="211.17" y2="243.54"/><line x1="358.82" y1="191.50" x2="322.39" y2="168.64"/><line x1="149.35" y1="354.02" x2="153.53" y2="347.60"/><line x1="464.35" y1="277.44" x2="464.80" y2="273.47"/><line x1="352.00" y1="115.20" x2="347.82" y2="118.34"/><line x1="279.69" y1="225.26" x2="272.89" y2="273.65"/><line x1="182.28" y1="149.25" x2="199.94" y2="189.88"/><line x1="334.75" y1="78.44" x2="334.30" y2="79.99"/><line x1="338.72" y1="105.41" x2="337.68" y2="104.75"/><line x1="216.17" y1="191.65" x2="212.78" y2="200.53"/><line x1="347.82" y1="118.34" x2="342.40" y2="107.16"/><line x1="266.46" y1="125.31" x2="307.01" y2="165.14"/><line x1="252.64" y1="387.33" x2="221.60" y2="376.34"/><line x1="448.38" y1="335.96" x2="450.10" y2="331.67"/><line x1="322.39" y1="168.64" x2="327.34" y2="162.99"/><line x1="188.81" y1="277.52" x2="197.07" y2="280.64"/><line x1="193.70" y1="382.54" x2="199.81" y2="376.08"/><line x1="368.49" y1="225.54" x2="366.31" y2="268.82"/><line x1="132.10" y1="255.00" x2="132.68" y2="257.82"/><line x1="307.01" y1="165.14" x2="258.58" y2="133.00"/><line x1="441.70" y1="348.84" x2="440.66" y2="347.87"/><line x1="272.89" y1="273.65" x2="281.75" y2="274.08"/><line x1="412.32" y1="134.25" x2="420.72" y2="128.70"/><line x1="434.70" y1="277.73" x2="453.15" y2="245.68"/><line x1="445.68" y1="114.59" x2="447.21" y2="104.99"/><line x1="366.31" y1="268.82" x2="363.60" y2="225.92"/><line x1="334.50" y1="101.65" x2="333.97" y2="100.76"/><line x1="243.84" y1="148.96" x2="237.11" y2="157.22"/><line x1="232.89" y1="411.06" x2="210.59" y2="409.37"/><line x1="281.75" y1="274.08" x2="290.50" y2="274.16"/><line x1="352.31" y1="226.90" x2="291.06" y2="208.61"/><line x1="342.78" y1="146.37" x2="374.42" y2="167.61"/><line x1="132.45" y1="335.43" x2="125.79" y2="340.99"/><line x1="333.97" y1="100.76" x2="333.56" y2="99.83"/><line x1="287.12" y1="214.22" x2="327.40" y2="271.72"/><line x1="453.47" y1="322.20" x2="455.09" y2="317.16"/><line x1="374.42" y1="167.61" x2="348.10" y2="140.98"/><line x1="99.81" y1="268.04" x2="104.03" y2="264.46"/><line x1="214.34" y1="357.75" x2="218.07" y2="352.26"/><line x1="108.61" y1="320.89" x2="119.28" y2="346.03"/><line x1="283.87" y1="326.66" x2="281.22" y2="334.09"/><line x1="291.59" y1="191.90" x2="237.11" y2="157.22"/><line x1="324.35" y1="78.68" x2="334.75" y2="78.44"/><line x1="161.37" y1="311.78" x2="160.71" y2="309.32"/><line x1="446.84" y1="318.49" x2="447.21" y2="314.32"/><line x1="435.57" y1="233.90" x2="428.86" y2="231.26"/><line x1="465.74" y1="102.35" x2="468.00" y2="104.65"/><line x1="130.03" y1="375.70" x2="161.63" y2="407.91"/><line x1="172.77" y1="244.33" x2="172.08" y2="253.68"/><line x1="352.31" y1="226.90" x2="350.80" y2="269.47"/><line x1="220.37" y1="182.86" x2="216.17" y2="191.65"/><line x1="241.45" y1="285.20" x2="228.97" y2="285.02"/><line x1="67.60" y1="374.15" x2="64.31" y2="375.41"/><line x1="363.17" y1="183.25" x2="368.41" y2="175.29"/><line x1="321.41" y1="272.37" x2="327.40" y2="271.72"/><line x1="370.18" y1="120.54" x2="375.86" y2="115.76"/><line x1="68.96" y1="419.64" x2="84.55" y2="410.10"/><line x1="421.74" y1="272.65" x2="416.31" y2="271.49"/><line x1="187.42" y1="144.94" x2="182.28" y2="149.25"/><line x1="441.81" y1="105.72" x2="445.68" y2="114.59"/><line x1="283.21" y1="212.20" x2="281.22" y2="218.81"/><line x1="202.07" y1="431.24" x2="200.39" y2="435.36"/><line x1="116.95" y1="255.35" x2="119.34" y2="254.17"/><line x1="226.62" y1="338.82" x2="161.90" y2="314.70"/><line x1="353.81" y1="109.94" x2="351.97" y2="109.64"/><line x1="251.02" y1="140.88" x2="243.84" y2="148.96"/><line x1="338.97" y1="126.13" x2="334.39" y2="130.70"/><line x1="100.87" y1="358.28" x2="95.18" y2="361.51"/><line x1="287.12" y1="214.22" x2="339.46" y2="270.26"/><line x1="447.02" y1="301.78" x2="446.40" y2="297.71"/><line x1="404.34" y1="269.85" x2="397.98" y2="269.32"/><line x1="149.35" y1="354.02" x2="193.70" y2="382.54"/><line x1="308.02" y1="90.56" x2="299.66" y2="96.97"/><line x1="204.74" y1="131.40" x2="200.91" y2="134.30"/><line x1="206.62" y1="282.85" x2="197.07" y2="280.64"/><line x1="399.76" y1="110.22" x2="405.94" y2="109.72"/><line x1="448.38" y1="335.96" x2="444.14" y2="334.00"/><line x1="213.65" y1="171.45" x2="192.24" y2="141.04"/><line x1="407.54" y1="226.38" x2="400.37" y2="225.60"/><line x1="193.70" y1="382.54" x2="153.53" y2="347.60"/><line x1="158.75" y1="171.26" x2="152.16" y2="178.14"/><line x1="441.70" y1="348.84" x2="440.15" y2="350.68"/><line x1="444.12" y1="289.99" x2="442.39" y2="286.41"/><line x1="140.37" y1="419.16" x2="151.48" y2="413.72"/><line x1="128.95" y1="253.28" x2="130.05" y2="253.79"/><line x1="434.70" y1="277.73" x2="457.82" y2="251.07"/><line x1="152.16" y1="178.14" x2="145.30" y2="185.66"/><line x1="228.97" y1="285.02" x2="217.31" y2="284.28"/><line x1="320.45" y1="146.65" x2="315.86" y2="152.59"/><line x1="114.06" y1="313.64" x2="132.45" y2="335.43"/><line x1="243.84" y1="148.96" x2="291.59" y2="191.90"/><line x1="232.89" y1="411.06" x2="212.93" y2="402.98"/><line x1="462.88" y1="286.40" x2="463.70" y2="281.76"/><line x1="130.05" y1="253.79" x2="131.09" y2="254.37"/><line x1="173.49" y1="261.57" x2="133.83" y2="266.69"/><line x1="210.08" y1="363.60" x2="214.34" y2="357.75"/><line x1="353.70" y1="226.85" x2="352.31" y2="226.90"/><line x1="282.86" y1="110.62" x2="274.57" y2="117.85"/><line x1="132.45" y1="335.43" x2="108.61" y2="320.89"/><line x1="262.98" y1="371.86" x2="258.06" y2="379.56"/><line x1="287.12" y1="214.22" x2="321.41" y2="272.37"/><line x1="144.11" y1="360.85" x2="149.35" y2="354.02"/><line x1="453.47" y1="322.20" x2="446.84" y2="318.49"/><line x1="380.05" y1="225.01" x2="374.01" y2="225.22"/><line x1="214.34" y1="357.75" x2="160.76" y2="330.89"/><line x1="223.35" y1="369.85" x2="252.64" y2="387.33"/><line x1="123.21" y1="212.34" x2="172.77" y2="244.33"/><line x1="332.54" y1="92.91" x2="332.54" y2="91.33"/><line x1="246.66" y1="395.17" x2="240.09" y2="403.07"/><line x1="444.98" y1="343.39" x2="446.67" y2="339.89"/><line x1="68.91" y1="437.85" x2="68.96" y2="419.64"/><line x1="162.19" y1="321.90" x2="162.21" y2="318.07"/><line x1="435.57" y1="233.90" x2="421.74" y2="272.65"/><line x1="172.77" y1="244.33" x2="115.36" y2="222.74"/><line x1="443.34" y1="337.40" x2="448.38" y2="335.96"/><line x1="220.37" y1="182.86" x2="283.21" y2="212.20"/><line x1="363.17" y1="183.25" x2="337.53" y2="151.83"/><line x1="81.77" y1="272.86" x2="89.96" y2="277.04"/><line x1="203.98" y1="426.49" x2="202.07" y2="431.24"/><line x1="453.55" y1="110.79" x2="461.03" y2="107.47"/><line x1="68.96" y1="419.64" x2="85.49" y2="435.52"/><line x1="294.41" y1="289.83" x2="296.24" y2="282.49"/><line x1="360.67" y1="269.00" x2="355.47" y2="269.22"/><line x1="355.72" y1="110.19" x2="353.81" y2="109.94"/><line x1="268.19" y1="284.30" x2="254.58" y2="284.92"/><line x1="106.79" y1="354.64" x2="100.87" y2="358.28"/><line x1="110.46" y1="392.14" x2="140.37" y2="419.16"/><line x1="447.33" y1="305.92" x2="447.02" y2="301.78"/><line x1="181.15" y1="220.73" x2="175.74" y2="233.38"/><line x1="479.04" y1="100.59" x2="480.00" y2="100.56"/><line x1="226.62" y1="338.82" x2="162.21" y2="318.07"/><line x1="215.24" y1="396.40" x2="232.89" y2="411.06"/><line x1="338.97" y1="126.13" x2="308.02" y2="90.56"/><line x1="107.29" y1="233.96" x2="124.96" y2="252.65"/><line x1="217.31" y1="284.28" x2="206.62" y2="282.85"/><line x1="84.27" y1="282.54" x2="89.96" y2="277.04"/><line x1="287.12" y1="214.22" x2="338.92" y2="270.31"/><line x1="332.15" y1="73.23" x2="335.25" y2="76.93"/><line x1="404.34" y1="269.85" x2="407.54" y2="226.38"/><line x1="133.83" y1="266.69" x2="133.83" y2="269.93"/><line x1="461.64" y1="102.95" x2="465.74" y2="102.35"/><line x1="208.71" y1="218.50" x2="208.17" y2="227.55"/><line x1="51.09" y1="439.31" x2="68.91" y2="437.85"/><line x1="98.99" y1="246.02" x2="111.22" y2="258.94"/><line x1="324.35" y1="78.68" x2="333.52" y2="83.19"/><line x1="399.76" y1="110.22" x2="412.32" y2="134.25"/><line x1="286.30" y1="319.25" x2="283.87" y2="326.66"/><line x1="213.65" y1="171.45" x2="196.74" y2="137.51"/><line x1="346.84" y1="108.57" x2="345.28" y2="108.14"/><line x1="226.02" y1="357.64" x2="224.85" y2="363.58"/><line x1="161.74" y1="326.17" x2="162.19" y2="321.90"/><line x1="137.70" y1="368.08" x2="144.11" y2="360.85"/><line x1="444.12" y1="289.99" x2="462.88" y2="286.40"/><line x1="357.69" y1="110.42" x2="355.72" y2="110.19"/><line x1="385.01" y1="268.76" x2="378.59" y2="268.68"/><line x1="336.96" y1="72.71" x2="336.36" y2="74.05"/><line x1="364.56" y1="125.46" x2="370.18" y2="120.54"/><line x1="320.45" y1="146.65" x2="282.86" y2="110.62"/><line x1="72.86" y1="287.70" x2="81.77" y2="272.86"/><line x1="441.83" y1="343.33" x2="442.55" y2="340.52"/><line x1="95.08" y1="337.32" x2="106.79" y2="354.64"/><line x1="308.21" y1="185.79" x2="312.82" y2="180.06"/><line x1="170.89" y1="401.80" x2="179.28" y2="395.48"/><line x1="173.49" y1="261.57" x2="133.60" y2="263.62"/><line x1="477.46" y1="100.74" x2="479.04" y2="100.59"/><line x1="107.29" y1="233.96" x2="130.05" y2="253.79"/><line x1="332.15" y1="73.23" x2="338.25" y2="70.25"/><line x1="437.58" y1="280.03" x2="465.04" y2="266.87"/><line x1="424.39" y1="107.87" x2="430.36" y2="107.17"/><line x1="341.01" y1="270.13" x2="343.48" y2="269.94"/><line x1="226.62" y1="338.82" x2="227.19" y2="342.60"/><line x1="246.66" y1="395.17" x2="217.49" y2="389.71"/><line x1="239.05" y1="267.19" x2="246.98" y2="269.64"/><line x1="363.60" y1="225.92" x2="359.44" y2="226.30"/><line x1="333.88" y1="81.58" x2="333.52" y2="83.19"/><line x1="162.19" y1="321.90" x2="226.62" y2="338.82"/><line x1="213.65" y1="171.45" x2="199.94" y2="189.88"/><line x1="122.61" y1="300.87" x2="118.70" y2="306.98"/><line x1="393.61" y1="110.62" x2="399.76" y2="110.22"/><line x1="302.81" y1="171.68" x2="298.81" y2="178.34"/><line x1="352.09" y1="217.73" x2="353.17" y2="208.75"/><line x1="450.10" y1="331.67" x2="445.67" y2="326.55"/><line x1="363.17" y1="183.25" x2="332.39" y2="157.38"/><line x1="81.77" y1="272.86" x2="84.27" y2="282.54"/><line x1="453.55" y1="110.79" x2="457.17" y2="103.60"/><line x1="199.81" y1="376.08" x2="205.26" y2="369.74"/><line x1="360.67" y1="269.00" x2="356.11" y2="226.63"/><line x1="67.32" y1="367.48" x2="59.10" y2="377.49"/><line x1="268.19" y1="284.30" x2="288.52" y2="311.88"/><line x1="337.60" y1="71.43" x2="336.96" y2="72.71"/><line x1="391.51" y1="268.96" x2="385.01" y2="268.76"/><line x1="453.15" y1="245.68" x2="447.82" y2="241.06"/><line x1="110.46" y1="392.14" x2="128.27" y2="424.15"/><line x1="181.15" y1="220.73" x2="130.82" y2="202.72"/><line x1="353.17" y1="208.75" x2="308.21" y2="185.79"/><line x1="173.49" y1="261.57" x2="176.86" y2="268.10"/><line x1="107.29" y1="233.96" x2="123.32" y2="252.86"/><line x1="210.59" y1="409.37" x2="208.28" y2="415.47"/><line x1="353.51" y1="135.69" x2="359.00" y2="130.51"/><line x1="431.03" y1="275.75" x2="426.68" y2="274.07"/><line x1="332.15" y1="73.23" x2="335.78" y2="75.46"/><line x1="429.15" y1="123.56" x2="424.39" y2="107.87"/><line x1="226.62" y1="338.82" x2="283.87" y2="326.66"/><line x1="288.43" y1="198.71" x2="285.62" y2="205.49"/><line x1="79.85" y1="369.10" x2="75.39" y2="371.03"/><line x1="71.20" y1="295.76" x2="78.02" y2="288.77"/><line x1="225.02" y1="419.12" x2="216.43" y2="427.28"/><line x1="455.09" y1="317.16" x2="456.65" y2="311.98"/><line x1="98.99" y1="246.02" x2="107.83" y2="261.44"/><line x1="316.28" y1="84.46" x2="333.56" y2="99.83"/><line x1="282.13" y1="283.46" x2="268.19" y2="284.30"/><line x1="316.28" y1="84.46" x2="332.95" y2="86.45"/><line x1="281.22" y1="334.09" x2="278.28" y2="341.56"/><line x1="207.09" y1="435.52" x2="197.93" y2="441.38"/><line x1="226.02" y1="357.64" x2="262.98" y2="371.86"/><line x1="447.21" y1="314.32" x2="447.38" y2="310.12"/><line x1="258.58" y1="133.00" x2="251.02" y2="140.88"/><line x1="189.17" y1="206.27" x2="181.15" y2="220.73"/><line x1="428.86" y1="231.26" x2="421.88" y2="229.15"/><line x1="137.70" y1="368.08" x2="170.89" y2="401.80"/><line x1="385.01" y1="268.76" x2="380.05" y2="225.01"/><line x1="86.87" y1="346.60" x2="77.64" y2="356.63"/><line x1="160.04" y1="307.33" x2="160.71" y2="309.32"/><line x1="441.83" y1="343.33" x2="444.98" y2="343.39"/><line x1="416.31" y1="271.49" x2="410.48" y2="270.56"/><line x1="337.68" y1="104.75" x2="336.73" y2="104.04"/><line x1="271.42" y1="356.61" x2="226.84" y2="352.10"/><line x1="281.22" y1="218.81" x2="279.69" y2="225.26"/><line x1="59.10" y1="377.49" x2="57.21" y2="378.35"/><line x1="414.74" y1="227.55" x2="404.34" y2="269.85"/><line x1="90.48" y1="258.98" x2="104.03" y2="264.46"/><line x1="107.29" y1="233.96" x2="128.95" y2="253.28"/><line x1="133.60" y1="263.62" x2="133.83" y2="266.69"/><line x1="121.45" y1="253.35" x2="123.32" y2="252.86"/><line x1="332.15" y1="73.23" x2="339.64" y2="68.14"/><line x1="437.58" y1="280.03" x2="465.04" y2="269.93"/><line x1="197.24" y1="443.10" x2="196.97" y2="443.86"/><line x1="226.62" y1="338.82" x2="278.28" y2="341.56"/><line x1="295.14" y1="202.95" x2="299.37" y2="197.25"/><line x1="246.66" y1="395.17" x2="219.62" y2="382.99"/><line x1="348.47" y1="108.96" x2="346.84" y2="108.57"/><line x1="446.40" y1="297.71" x2="445.44" y2="293.77"/><line x1="84.65" y1="366.90" x2="79.85" y2="369.10"/><line x1="363.60" y1="225.92" x2="360.67" y2="269.00"/><line x1="316.28" y1="84.46" x2="332.61" y2="94.46"/><line x1="299.66" y1="96.97" x2="291.25" y2="103.66"/><line x1="122.61" y1="300.87" x2="146.10" y2="322.61"/><line x1="461.89" y1="291.28" x2="444.12" y2="289.99"/><line x1="316.28" y1="84.46" x2="308.02" y2="90.56"/><line x1="450.10" y1="331.67" x2="444.93" y2="330.37"/><line x1="267.42" y1="364.21" x2="226.02" y2="357.64"/><line x1="67.32" y1="367.48" x2="61.48" y2="376.51"/><line x1="333.56" y1="99.83" x2="333.25" y2="98.84"/><line x1="268.19" y1="284.30" x2="290.59" y2="304.51"/><line x1="386.52" y1="224.97" x2="385.01" y2="268.76"/><line x1="160.04" y1="307.33" x2="131.89" y2="281.08"/><line x1="453.15" y1="245.68" x2="431.03" y2="275.75"/><line x1="181.15" y1="220.73" x2="138.19" y2="193.84"/><line x1="441.18" y1="345.80" x2="441.83" y2="343.33"/><line x1="107.29" y1="233.96" x2="121.45" y2="253.35"/><line x1="210.59" y1="409.37" x2="225.02" y2="419.12"/><line x1="437.51" y1="118.85" x2="445.68" y2="114.59"/><line x1="61.48" y1="376.51" x2="59.10" y2="377.49"/><line x1="218.07" y1="352.26" x2="221.33" y2="347.22"/><line x1="77.64" y1="356.63" x2="67.32" y2="367.48"/><line x1="231.72" y1="264.06" x2="239.05" y2="267.19"/><line x1="350.80" y1="269.47" x2="346.78" y2="269.71"/><line x1="332.15" y1="73.23" x2="336.36" y2="74.05"/><line x1="125.79" y1="340.99" x2="119.28" y2="346.03"/><line x1="464.80" y1="273.47" x2="437.58" y2="280.03"/><line x1="226.62" y1="338.82" x2="286.30" y2="319.25"/><line x1="334.30" y1="79.99" x2="333.88" y2="81.58"/><line x1="199.94" y1="189.88" x2="176.84" y2="154.00"/><line x1="71.20" y1="295.76" x2="63.76" y2="303.54"/><line x1="455.09" y1="317.16" x2="447.21" y2="314.32"/><line x1="221.60" y1="376.34" x2="246.66" y2="395.17"/><line x1="316.28" y1="84.46" x2="333.97" y2="100.76"/><line x1="327.34" y1="162.99" x2="363.17" y2="183.25"/><line x1="282.13" y1="283.46" x2="292.54" y2="297.16"/><line x1="161.37" y1="311.78" x2="197.07" y2="280.64"/><line x1="316.28" y1="84.46" x2="332.76" y2="88.09"/><line x1="207.09" y1="435.52" x2="198.99" y2="438.77"/><line x1="153.05" y1="315.29" x2="122.61" y2="300.87"/><line x1="84.55" y1="410.10" x2="98.34" y2="400.93"/><line x1="182.03" y1="273.37" x2="188.81" y2="277.52"/><line x1="189.17" y1="206.27" x2="145.30" y2="185.66"/><line x1="428.86" y1="231.26" x2="416.31" y2="271.49"/><line x1="258.58" y1="133.00" x2="302.81" y2="171.68"/><line x1="444.14" y1="334.00" x2="450.10" y2="331.67"/><line x1="86.87" y1="346.60" x2="89.77" y2="364.38"/><line x1="153.53" y1="347.60" x2="199.81" y2="376.08"/><line x1="447.21" y1="104.99" x2="453.55" y2="110.79"/><line x1="145.30" y1="185.66" x2="138.19" y2="193.84"/><line x1="459.50" y1="301.52" x2="460.76" y2="296.34"/><line x1="160.04" y1="307.33" x2="125.81" y2="295.27"/><line x1="292.54" y1="297.16" x2="268.19" y2="284.30"/><line x1="290.50" y1="274.16" x2="298.98" y2="273.97"/><line x1="279.69" y1="225.26" x2="231.72" y2="264.06"/><line x1="457.82" y1="251.07" x2="453.15" y2="245.68"/><line x1="271.42" y1="356.61" x2="227.24" y2="347.07"/><line x1="279.69" y1="225.26" x2="307.05" y2="273.57"/><line x1="90.48" y1="258.98" x2="99.81" y2="268.04"/><line x1="461.03" y1="107.47" x2="468.00" y2="104.65"/><line x1="159.13" y1="336.03" x2="160.76" y2="330.89"/><line x1="397.98" y1="269.32" x2="391.51" y2="268.96"/><line x1="347.82" y1="118.34" x2="337.68" y2="104.75"/><line x1="133.54" y1="273.38" x2="132.92" y2="277.08"/><line x1="348.10" y1="140.98" x2="353.51" y2="135.69"/><line x1="254.58" y1="284.92" x2="241.45" y2="285.20"/><line x1="160.76" y1="330.89" x2="161.74" y2="326.17"/><line x1="216.43" y1="427.28" x2="207.09" y2="435.52"/><line x1="347.82" y1="118.34" x2="343.45" y2="122.00"/><line x1="440.32" y1="349.51" x2="440.66" y2="347.87"/><line x1="426.68" y1="274.07" x2="421.74" y2="272.65"/><line x1="120.98" y1="383.73" x2="130.03" y2="375.70"/><line x1="355.99" y1="112.61" x2="352.00" y2="115.20"/><line x1="237.11" y1="157.22" x2="288.43" y2="198.71"/><line x1="316.28" y1="84.46" x2="332.74" y2="95.98"/><line x1="285.62" y1="205.49" x2="283.21" y2="212.20"/><line x1="71.29" y1="372.70" x2="67.60" y2="374.15"/><line x1="468.00" y1="104.65" x2="469.40" y2="101.82"/><line x1="388.32" y1="153.22" x2="396.00" y2="146.53"/><line x1="474.36" y1="102.34" x2="479.04" y2="100.59"/><line x1="442.39" y1="286.41" x2="440.23" y2="283.08"/><line x1="131.09" y1="254.37" x2="132.10" y2="255.00"/><line x1="327.40" y1="271.72" x2="332.41" y2="271.12"/><line x1="85.49" y1="435.52" x2="100.87" y2="432.41"/><line x1="227.19" y1="342.60" x2="271.42" y2="356.61"/><line x1="224.85" y1="363.58" x2="223.35" y2="369.85"/><line x1="355.45" y1="200.00" x2="358.82" y2="191.50"/><line x1="114.26" y1="256.92" x2="116.95" y2="255.35"/><line x1="332.62" y1="89.72" x2="332.76" y2="88.09"/><line x1="335.78" y1="75.46" x2="335.25" y2="76.93"/><line x1="128.39" y1="290.13" x2="125.81" y2="295.27"/><line x1="279.69" y1="225.26" x2="208.95" y2="236.08"/><line x1="119.34" y1="254.17" x2="121.45" y2="253.35"/><line x1="274.57" y1="117.85" x2="266.46" y2="125.31"/><line x1="396.00" y1="146.53" x2="375.86" y2="115.76"/><line x1="279.69" y1="225.26" x2="264.04" y2="272.81"/><line x1="352.00" y1="115.20" x2="350.18" y2="109.32"/><line x1="442.55" y1="340.52" x2="443.34" y2="337.40"/><line x1="437.51" y1="118.85" x2="441.81" y2="105.72"/><line x1="216.17" y1="191.65" x2="281.22" y2="218.81"/><line x1="347.82" y1="118.34" x2="343.80" y2="107.67"/><line x1="374.01" y1="225.22" x2="368.49" y2="225.54"/><line x1="89.96" y1="277.04" x2="95.13" y2="272.22"/><line x1="77.64" y1="356.63" x2="71.29" y2="372.70"/><line x1="404.04" y1="140.20" x2="412.32" y2="134.25"/><line x1="107.29" y1="233.96" x2="173.49" y2="261.57"/><line x1="132.10" y1="255.00" x2="173.49" y2="261.57"/><line x1="334.39" y1="130.70" x2="329.75" y2="135.67"/><line x1="165.07" y1="164.96" x2="158.75" y2="171.26"/><line x1="316.28" y1="84.46" x2="334.50" y2="101.65"/><line x1="412.32" y1="134.25" x2="412.14" y2="109.16"/><line x1="217.49" y1="389.71" x2="215.24" y2="396.40"/><line x1="337.53" y1="151.83" x2="342.78" y2="146.37"/><line x1="145.30" y1="185.66" x2="181.15" y2="220.73"/><line x1="457.17" y1="103.60" x2="461.64" y2="102.95"/><line x1="459.50" y1="301.52" x2="446.40" y2="297.71"/><line x1="160.04" y1="307.33" x2="188.81" y2="277.52"/><line x1="356.11" y1="226.63" x2="353.70" y2="226.85"/><line x1="312.82" y1="180.06" x2="317.55" y2="174.34"/><line x1="212.93" y1="402.98" x2="210.59" y2="409.37"/><line x1="279.69" y1="225.26" x2="225.12" y2="260.20"/><line x1="283.33" y1="219.78" x2="287.12" y2="214.22"/><line x1="279.69" y1="225.26" x2="298.98" y2="273.97"/><line x1="51.48" y1="429.55" x2="68.96" y2="419.64"/><line x1="451.80" y1="327.06" x2="453.47" y2="322.20"/><line x1="108.61" y1="320.89" x2="125.79" y2="340.99"/><line x1="315.86" y1="152.59" x2="311.37" y2="158.76"/><line x1="397.98" y1="269.32" x2="400.37" y2="225.60"/><line x1="347.82" y1="118.34" x2="338.72" y2="105.41"/><line x1="430.36" y1="107.17" x2="436.18" y2="106.45"/><line x1="446.84" y1="318.49" x2="455.09" y2="317.16"/><line x1="378.59" y1="268.68" x2="372.32" y2="268.70"/><line x1="160.76" y1="330.89" x2="218.07" y2="352.26"/><line x1="216.43" y1="427.28" x2="202.07" y2="431.24"/><line x1="359.00" y1="130.51" x2="364.56" y2="125.46"/><line x1="440.32" y1="349.51" x2="440.15" y2="350.68"/><line x1="199.94" y1="189.88" x2="189.17" y2="206.27"/><line x1="426.68" y1="274.07" x2="435.57" y2="233.90"/><line x1="332.54" y1="91.33" x2="332.62" y2="89.72"/><line x1="355.99" y1="112.61" x2="353.81" y2="109.94"/><line x1="370.18" y1="120.54" x2="396.00" y2="146.53"/><line x1="285.62" y1="205.49" x2="220.37" y2="182.86"/><line x1="421.74" y1="272.65" x2="428.86" y2="231.26"/><line x1="335.89" y1="103.29" x2="335.14" y2="102.49"/><line x1="474.36" y1="102.34" x2="477.46" y2="100.74"/><line x1="442.39" y1="286.41" x2="463.70" y2="281.76"/><line x1="283.21" y1="212.20" x2="216.17" y2="191.65"/><line x1="202.07" y1="431.24" x2="207.09" y2="435.52"/><line x1="85.49" y1="435.52" x2="84.55" y2="410.10"/><line x1="224.85" y1="363.58" x2="258.06" y2="379.56"/><line x1="353.81" y1="109.94" x2="352.00" y2="115.20"/><line x1="251.02" y1="140.88" x2="295.06" y2="185.10"/><line x1="100.87" y1="358.28" x2="86.87" y2="346.60"/><line x1="447.02" y1="301.78" x2="459.50" y2="301.52"/><line x1="279.69" y1="225.26" x2="208.17" y2="227.55"/><line x1="162.21" y1="318.07" x2="161.90" y2="314.70"/><line x1="279.69" y1="225.26" x2="255.35" y2="271.50"/><line x1="352.00" y1="115.20" x2="351.97" y2="109.64"/><line x1="442.55" y1="340.52" x2="446.67" y2="339.89"/><line x1="308.02" y1="90.56" x2="334.39" y2="130.70"/><line x1="204.74" y1="131.40" x2="213.65" y2="171.45"/><line x1="307.05" y1="273.57" x2="314.58" y2="273.01"/><line x1="347.82" y1="118.34" x2="345.28" y2="108.14"/><line x1="291.06" y1="208.61" x2="295.14" y2="202.95"/><line x1="89.96" y1="277.04" x2="90.48" y2="258.98"/><line x1="77.64" y1="356.63" x2="75.39" y2="371.03"/><line x1="347.82" y1="118.34" x2="316.28" y2="84.46"/><line x1="407.54" y1="226.38" x2="397.98" y2="269.32"/><line x1="133.83" y1="269.93" x2="133.54" y2="273.38"/><line x1="107.29" y1="233.96" x2="172.08" y2="253.68"/><line x1="334.39" y1="130.70" x2="299.66" y2="96.97"/><line x1="208.17" y1="227.55" x2="208.95" y2="236.08"/><line x1="132.92" y1="277.08" x2="131.89" y2="281.08"/><line x1="441.70" y1="348.84" x2="440.32" y2="349.51"/><line x1="291.25" y1="103.66" x2="282.86" y2="110.62"/><line x1="118.70" y1="306.98" x2="114.06" y2="313.64"/><line x1="140.37" y1="419.16" x2="120.98" y2="383.73"/><line x1="412.32" y1="134.25" x2="405.94" y2="109.72"/><line x1="217.49" y1="389.71" x2="240.09" y2="403.07"/><line x1="345.28" y1="108.14" x2="343.80" y2="107.67"/><line x1="445.67" y1="326.55" x2="446.32" y2="322.57"/><line x1="75.39" y1="371.03" x2="71.29" y2="372.70"/><line x1="205.26" y1="369.74" x2="210.08" y2="363.60"/><line x1="208.95" y1="236.08" x2="211.17" y2="243.54"/><line x1="462.88" y1="286.40" x2="442.39" y2="286.41"/><line x1="288.52" y1="311.88" x2="286.30" y2="319.25"/><line x1="200.91" y1="134.30" x2="196.74" y2="137.51"/><line x1="443.31" y1="346.39" x2="444.98" y2="343.39"/><line x1="336.36" y1="74.05" x2="335.78" y2="75.46"/><line x1="343.80" y1="107.67" x2="342.40" y2="107.16"/><line x1="282.86" y1="110.62" x2="315.86" y2="152.59"/><line x1="262.98" y1="371.86" x2="224.85" y2="363.58"/><line x1="130.82" y1="202.72" x2="123.21" y2="212.34"/><line x1="312.82" y1="180.06" x2="355.45" y2="200.00"/><line x1="144.11" y1="360.85" x2="186.87" y2="389.03"/><line x1="287.12" y1="214.22" x2="291.06" y2="208.61"/><line x1="380.05" y1="225.01" x2="378.59" y2="268.68"/><line x1="279.69" y1="225.26" x2="219.40" y2="255.53"/><line x1="358.82" y1="191.50" x2="363.17" y2="183.25"/><line x1="208.28" y1="415.47" x2="206.07" y2="421.21"/><line x1="51.48" y1="429.55" x2="68.91" y2="437.85"/><line x1="315.86" y1="152.59" x2="274.57" y2="117.85"/><line x1="444.98" y1="343.39" x2="442.55" y2="340.52"/><line x1="161.37" y1="311.78" x2="188.81" y2="277.52"/><line x1="347.82" y1="118.34" x2="339.85" y2="106.04"/><line x1="102.30" y1="328.77" x2="95.08" y2="337.32"/><line x1="430.36" y1="107.17" x2="437.51" y2="118.85"/><line x1="378.59" y1="268.68" x2="374.01" y2="225.22"/><line x1="336.73" y1="104.04" x2="335.89" y2="103.29"/><line x1="246.98" y1="269.64" x2="255.35" y2="271.50"/><line x1="278.28" y1="341.56" x2="275.02" y2="349.06"/><line x1="146.10" y1="322.61" x2="139.22" y2="329.32"/><line x1="335.89" y1="103.29" x2="316.28" y2="84.46"/><line x1="332.39" y1="157.38" x2="337.53" y2="151.83"/><line x1="156.75" y1="341.61" x2="159.13" y2="336.03"/><line x1="465.04" y1="266.87" x2="464.80" y2="264.36"/><line x1="352.31" y1="226.90" x2="352.09" y2="217.73"/><line x1="387.54" y1="110.93" x2="393.61" y2="110.62"/><line x1="98.34" y1="400.93" x2="110.46" y2="392.14"/><line x1="251.02" y1="140.88" x2="298.81" y2="178.34"/><line x1="89.77" y1="364.38" x2="84.65" y2="366.90"/><line x1="287.12" y1="214.22" x2="336.30" y2="270.63"/><line x1="128.27" y1="424.15" x2="140.37" y2="419.16"/><line x1="452.35" y1="104.28" x2="457.17" y2="103.60"/><line x1="359.44" y1="226.30" x2="356.11" y2="226.63"/><line x1="374.42" y1="167.61" x2="381.09" y2="160.25"/><line x1="204.74" y1="131.40" x2="250.49" y2="128.01"/><line x1="307.05" y1="273.57" x2="283.33" y2="219.78"/><line x1="381.09" y1="160.25" x2="388.32" y2="153.22"/><line x1="51.09" y1="439.31" x2="32.00" y2="439.81"/><line x1="324.35" y1="78.68" x2="333.88" y2="81.58"/><line x1="447.82" y1="241.06" x2="441.92" y2="237.16"/><line x1="213.65" y1="171.45" x2="200.91" y2="134.30"/><line x1="119.28" y1="346.03" x2="112.94" y2="350.56"/><line x1="230.91" y1="165.63" x2="225.31" y2="174.18"/><line x1="132.92" y1="277.08" x2="160.04" y2="307.33"/><line x1="107.83" y1="261.44" x2="111.22" y2="258.94"/><line x1="472.61" y1="101.37" x2="475.31" y2="101.00"/><line x1="161.74" y1="326.17" x2="224.16" y2="342.71"/><line x1="357.69" y1="110.42" x2="359.72" y2="110.62"/><line x1="131.89" y1="281.08" x2="130.40" y2="285.41"/><line x1="420.72" y1="128.70" x2="429.15" y2="123.56"/><line x1="72.86" y1="287.70" x2="78.02" y2="288.77"/><line x1="456.65" y1="311.98" x2="458.12" y2="306.75"/><line x1="111.22" y1="258.94" x2="114.26" y2="256.92"/><line x1="170.89" y1="401.80" x2="144.11" y2="360.85"/><line x1="173.49" y1="261.57" x2="133.20" y2="260.67"/><line x1="130.40" y1="285.41" x2="128.39" y2="290.13"/><line x1="125.81" y1="295.27" x2="122.61" y2="300.87"/><line x1="421.88" y1="229.15" x2="414.74" y2="227.55"/><line x1="144.11" y1="360.85" x2="179.28" y2="395.48"/><line x1="287.12" y1="214.22" x2="343.48" y2="269.94"/><line x1="176.84" y1="154.00" x2="171.10" y2="159.22"/><line x1="358.82" y1="191.50" x2="327.34" y2="162.99"/><line x1="212.78" y1="200.53" x2="210.27" y2="209.48"/><line x1="57.21" y1="378.35" x2="55.84" y2="379.15"/><line x1="123.32" y1="252.86" x2="124.96" y2="252.65"/><line x1="266.46" y1="125.31" x2="258.58" y2="133.00"/><line x1="338.94" y1="69.15" x2="338.25" y2="70.25"/><line x1="465.04" y1="269.93" x2="465.04" y2="266.87"/><line x1="350.18" y1="109.32" x2="348.47" y2="108.96"/><line x1="171.10" y1="159.22" x2="165.07" y2="164.96"/><line x1="213.65" y1="171.45" x2="182.28" y2="149.25"/><line x1="302.81" y1="171.68" x2="251.02" y2="140.88"/><line x1="352.09" y1="217.73" x2="303.72" y2="191.53"/><line x1="219.62" y1="382.99" x2="217.49" y2="389.71"/><line x1="460.76" y1="296.34" x2="461.89" y2="291.28"/><line x1="124.96" y1="252.65" x2="126.43" y2="252.67"/><line x1="453.55" y1="110.79" x2="452.35" y2="104.28"/><line x1="199.81" y1="376.08" x2="156.75" y2="341.61"/><line x1="441.70" y1="348.84" x2="443.31" y2="346.39"/><line x1="360.67" y1="269.00" x2="359.44" y2="226.30"/><line x1="329.75" y1="135.67" x2="325.09" y2="141.00"/><line x1="146.10" y1="322.61" x2="118.70" y2="306.98"/><line x1="434.70" y1="277.73" x2="431.03" y2="275.75"/><line x1="298.98" y1="273.97" x2="307.05" y2="273.57"/><line x1="412.14" y1="109.16" x2="418.30" y2="108.54"/><line x1="444.93" y1="330.37" x2="445.67" y2="326.55"/><line x1="391.51" y1="268.96" x2="386.52" y2="224.97"/><line x1="156.75" y1="341.61" x2="205.26" y2="369.74"/><line x1="232.89" y1="411.06" x2="225.02" y2="419.12"/><line x1="352.31" y1="226.90" x2="295.14" y2="202.95"/><line x1="342.78" y1="146.37" x2="348.10" y2="140.98"/><line x1="173.49" y1="261.57" x2="133.54" y2="273.38"/><line x1="333.25" y1="98.84" x2="332.95" y2="97.44"/><line x1="290.59" y1="304.51" x2="288.52" y2="311.88"/><line x1="440.66" y1="347.87" x2="441.18" y2="345.80"/><line x1="440.23" y1="283.08" x2="437.58" y2="280.03"/><line x1="353.51" y1="135.69" x2="381.09" y2="160.25"/><line x1="335.25" y1="76.93" x2="334.75" y2="78.44"/><line x1="431.03" y1="275.75" x2="447.82" y2="241.06"/><line x1="287.12" y1="214.22" x2="332.41" y2="271.12"/><line x1="437.58" y1="280.03" x2="434.70" y2="277.73"/><line x1="138.19" y1="193.84" x2="130.82" y2="202.72"/><line x1="332.95" y1="97.44" x2="332.74" y2="95.98"/><line x1="288.43" y1="198.71" x2="230.91" y2="165.63"/><line x1="317.55" y1="174.34" x2="322.39" y2="168.64"/><line x1="225.02" y1="419.12" x2="208.28" y2="415.47"/><line x1="381.09" y1="160.25" x2="359.00" y2="130.51"/><line x1="51.09" y1="439.31" x2="51.48" y2="429.55"/><line x1="324.35" y1="78.68" x2="334.30" y2="79.99"/><line x1="469.40" y1="101.82" x2="472.61" y2="101.37"/><line x1="447.82" y1="241.06" x2="426.68" y2="274.07"/><line x1="119.28" y1="346.03" x2="102.30" y2="328.77"/><line x1="230.91" y1="165.63" x2="285.62" y2="205.49"/><line x1="332.41" y1="271.12" x2="336.30" y2="270.63"/><line x1="447.21" y1="314.32" x2="456.65" y2="311.98"/><line x1="472.61" y1="101.37" x2="474.36" y2="102.34"/><line x1="161.74" y1="326.17" x2="221.33" y2="347.22"/><line x1="357.69" y1="110.42" x2="355.99" y2="112.61"/><line x1="332.76" y1="88.09" x2="332.95" y2="86.45"/><line x1="336.30" y1="270.63" x2="338.92" y2="270.31"/><line x1="72.86" y1="287.70" x2="63.76" y2="303.54"/><line x1="441.81" y1="105.72" x2="447.21" y2="104.99"/><line x1="375.86" y1="115.76" x2="381.60" y2="111.14"/><line x1="100.87" y1="432.41" x2="115.11" y2="428.59"/><line x1="456.65" y1="311.98" x2="447.38" y2="310.12"/><line x1="416.31" y1="271.49" x2="421.88" y2="229.15"/><line x1="173.49" y1="261.57" x2="132.68" y2="257.82"/><line x1="332.95" y1="86.45" x2="333.21" y2="84.82"/><line x1="281.22" y1="218.81" x2="212.78" y2="200.53"/><line x1="200.39" y1="435.36" x2="198.99" y2="438.77"/><line x1="107.29" y1="233.96" x2="127.75" y2="252.89"/><line x1="125.81" y1="295.27" x2="153.05" y2="315.29"/><line x1="381.60" y1="111.14" x2="387.54" y2="110.93"/><line x1="355.47" y1="269.22" x2="350.80" y2="269.47"/><line x1="332.15" y1="73.23" x2="338.94" y2="69.15"/><line x1="421.88" y1="229.15" x2="410.48" y2="270.56"/><line x1="351.97" y1="109.64" x2="350.18" y2="109.32"/><line x1="95.18" y1="361.51" x2="89.77" y2="364.38"/><line x1="212.78" y1="200.53" x2="279.69" y2="225.26"/><line x1="226.62" y1="338.82" x2="228.97" y2="285.02"/><line x1="295.14" y1="202.95" x2="352.09" y2="217.73"/><line x1="198.99" y1="438.77" x2="197.93" y2="441.38"/><line x1="446.40" y1="297.71" x2="460.76" y2="296.34"/><line x1="400.37" y1="225.60" x2="393.33" y2="225.14"/><line x1="338.94" y1="69.15" x2="339.64" y2="68.14"/><line x1="98.99" y1="246.02" x2="107.29" y2="233.96"/><line x1="176.86" y1="268.10" x2="182.03" y2="273.37"/><line x1="350.18" y1="109.32" x2="347.82" y2="118.34"/><line x1="299.66" y1="96.97" x2="329.75" y2="135.67"/><line x1="213.65" y1="171.45" x2="187.42" y2="144.94"/><line x1="316.28" y1="84.46" x2="338.97" y2="126.13"/><line x1="352.09" y1="217.73" x2="299.37" y2="197.25"/><line x1="405.94" y1="109.72" x2="412.14" y2="109.16"/><line x1="151.48" y1="413.72" x2="161.63" y2="407.91"/><line x1="460.76" y1="296.34" x2="445.44" y2="293.77"/><line x1="67.32" y1="367.48" x2="64.31" y2="375.41"/><line x1="329.75" y1="135.67" x2="291.25" y2="103.66"/><line x1="114.06" y1="313.64" x2="108.61" y2="320.89"/><line x1="463.70" y1="281.76" x2="464.35" y2="277.44"/><line x1="352.31" y1="226.90" x2="287.12" y2="214.22"/><line x1="412.14" y1="109.16" x2="420.72" y2="128.70"/><line x1="391.51" y1="268.96" x2="393.33" y2="225.14"/><line x1="95.08" y1="337.32" x2="86.87" y2="346.60"/><line x1="173.49" y1="261.57" x2="133.83" y2="269.93"/><line x1="258.06" y1="379.56" x2="252.64" y2="387.33"/><line x1="214.70" y1="250.00" x2="219.40" y2="255.53"/><line x1="458.12" y1="306.75" x2="459.50" y2="301.52"/><line x1="107.29" y1="233.96" x2="119.34" y2="254.17"/><line x1="440.66" y1="347.87" x2="443.31" y2="346.39"/><line x1="440.23" y1="283.08" x2="464.80" y2="273.47"/><line x1="316.28" y1="84.46" x2="324.35" y2="78.68"/><line x1="107.29" y1="233.96" x2="132.10" y2="255.00"/><line x1="335.25" y1="76.93" x2="324.35" y2="78.68"/><line x1="218.07" y1="352.26" x2="161.74" y2="326.17"/><line x1="332.15" y1="73.23" x2="336.96" y2="72.71"/><line x1="188.81" y1="277.52" x2="160.71" y2="309.32"/><line x1="437.58" y1="280.03" x2="461.74" y2="257.28"/><line x1="341.08" y1="106.62" x2="339.85" y2="106.04"/><line x1="311.37" y1="158.76" x2="307.01" y2="165.14"/><line x1="226.62" y1="338.82" x2="254.58" y2="284.92"/><line x1="223.35" y1="369.85" x2="221.60" y2="376.34"/><line x1="123.21" y1="212.34" x2="115.36" y2="222.74"/><line x1="446.67" y1="339.89" x2="448.38" y2="335.96"/><line x1="71.20" y1="295.76" x2="72.86" y2="287.70"/><line x1="317.55" y1="174.34" x2="358.82" y2="191.50"/><line x1="186.87" y1="389.03" x2="193.70" y2="382.54"/><line x1="372.32" y1="268.70" x2="366.31" y2="268.82"/><line x1="172.08" y1="253.68" x2="173.49" y2="261.57"/><line x1="68.91" y1="437.85" x2="85.49" y2="435.52"/><line x1="282.13" y1="283.46" x2="296.24" y2="282.49"/><line x1="316.28" y1="84.46" x2="332.62" y2="89.72"/><line x1="443.34" y1="337.40" x2="444.14" y2="334.00"/><line x1="207.09" y1="435.52" x2="200.39" y2="435.36"/><line x1="436.18" y1="106.45" x2="441.81" y2="105.72"/><line x1="84.55" y1="410.10" x2="100.87" y2="432.41"/><line x1="189.17" y1="206.27" x2="152.16" y2="178.14"/><line x1="81.77" y1="272.86" x2="90.48" y2="258.98"/><line x1="294.41" y1="289.83" x2="292.54" y2="297.16"/><line x1="86.87" y1="346.60" x2="95.18" y2="361.51"/><line x1="67.32" y1="367.48" x2="55.84" y2="379.15"/><line x1="240.09" y1="403.07" x2="232.89" y2="411.06"/><line x1="368.41" y1="175.29" x2="374.42" y2="167.61"/><line x1="461.74" y1="257.28" x2="457.82" y2="251.07"/><line x1="100.87" y1="432.41" x2="98.34" y2="400.93"/><line x1="161.90" y1="314.70" x2="161.37" y2="311.78"/><line x1="139.22" y1="329.32" x2="132.45" y2="335.43"/><line x1="110.46" y1="392.14" x2="120.98" y2="383.73"/><line x1="295.06" y1="185.10" x2="291.59" y2="191.90"/><line x1="353.17" y1="208.75" x2="355.45" y2="200.00"/><line x1="215.24" y1="396.40" x2="212.93" y2="402.98"/><line x1="90.48" y1="258.98" x2="95.13" y2="272.22"/><line x1="461.03" y1="107.47" x2="465.74" y2="102.35"/></g></svg>