<svg xmlns="http://www.w3.org/2000/svg" width="512" height="512"><rect width="512" height="512" fill="#0a0f1a"/><text x="12" y="20" font-family="monospace" font-size="11" fill="#4a7fa5">FRONT (XZ)</text><g stroke="#00d4ff" stroke-width="0.6" opacity="0.85"><line x1="309.84" y1="368.77" x2="327.08" y2="404.22"/><line x1="352.62" y1="392.75" x2="320.94" y2="359.58"/><line x1="368.48" y1="304.84" x2="366.90" y2="299.65"/><line x1="239.74" y1="137.03" x2="234.68" y2="133.36"/><line x1="192.87" y1="134.03" x2="202.95" y2="115.02"/><line x1="164.78" y1="138.20" x2="165.03" y2="141.98"/><line x1="270.81" y1="396.88" x2="283.74" y2="372.38"/><line x1="222.71" y1="223.86" x2="223.19" y2="270.87"/><line x1="227.07" y1="214.85" x2="222.30" y2="219.63"/><line x1="366.90" y1="299.65" x2="326.67" y2="303.12"/><line x1="220.23" y1="154.12" x2="212.76" y2="147.97"/><line x1="266.14" y1="200.69" x2="289.75" y2="182.23"/><line x1="146.41" y1="116.36" x2="166.45" y2="130.94"/><line x1="194.54" y1="243.43" x2="217.37" y2="220.93"/><line x1="283.74" y1="372.38" x2="277.71" y2="399.56"/><line x1="364.27" y1="379.07" x2="324.18" y2="354.59"/><line x1="257.27" y1="246.14" x2="253.99" y2="242.06"/><line x1="289.75" y1="182.23" x2="284.04" y2="176.19"/><line x1="224.83" y1="213.09" x2="223.03" y2="211.83"/><line x1="157.66" y1="195.25" x2="184.36" y2="182.00"/><line x1="324.18" y1="354.59" x2="366.47" y2="374.91"/><line x1="294.42" y1="237.96" x2="287.90" y2="228.51"/><line x1="358.67" y1="278.72" x2="320.70" y2="285.64"/><line x1="219.46" y1="211.62" x2="219.85" y2="211.02"/><line x1="187.07" y1="109.02" x2="177.84" y2="127.69"/><line x1="167.04" y1="150.44" x2="168.80" y2="155.11"/><line x1="165.97" y1="312.80" x2="179.83" y2="312.78"/><line x1="298.00" y1="404.69" x2="298.17" y2="372.35"/><line x1="184.36" y1="182.00" x2="162.10" y2="202.37"/><line x1="243.09" y1="285.31" x2="247.02" y2="287.44"/><line x1="190.69" y1="322.26" x2="201.26" y2="330.93"/><line x1="220.41" y1="215.48" x2="220.06" y2="214.58"/><line x1="320.70" y1="285.64" x2="356.13" y2="273.45"/><line x1="219.85" y1="211.02" x2="219.54" y2="211.38"/><line x1="165.52" y1="132.96" x2="141.20" y2="127.83"/><line x1="298.17" y1="372.35" x2="304.63" y2="405.42"/><line x1="371.33" y1="360.99" x2="372.36" y2="355.89"/><line x1="247.02" y1="287.44" x2="250.51" y2="288.95"/><line x1="232.82" y1="219.89" x2="223.19" y2="223.23"/><line x1="242.95" y1="175.33" x2="261.43" y2="154.53"/><line x1="196.00" y1="197.66" x2="177.14" y2="223.28"/><line x1="372.36" y1="355.89" x2="327.75" y2="345.68"/><line x1="223.19" y1="223.23" x2="223.25" y2="222.90"/><line x1="172.66" y1="127.32" x2="170.95" y2="105.76"/><line x1="198.60" y1="345.94" x2="211.56" y2="338.81"/><line x1="177.14" y1="223.28" x2="200.08" y2="202.59"/><line x1="260.89" y1="289.35" x2="262.38" y2="288.71"/><line x1="344.13" y1="252.07" x2="340.67" y2="246.61"/><line x1="139.71" y1="136.12" x2="164.78" y2="138.20"/><line x1="309.84" y1="368.77" x2="322.01" y2="405.02"/><line x1="329.67" y1="334.97" x2="329.94" y2="331.00"/><line x1="262.38" y1="288.71" x2="263.85" y2="287.89"/><line x1="222.93" y1="221.16" x2="227.07" y2="214.85"/><line x1="239.74" y1="137.03" x2="220.23" y2="154.12"/><line x1="169.44" y1="128.19" x2="158.75" y2="107.10"/><line x1="228.26" y1="371.43" x2="235.48" y2="376.72"/><line x1="164.78" y1="138.20" x2="139.50" y2="139.09"/><line x1="211.77" y1="215.52" x2="194.54" y2="243.43"/><line x1="325.00" y1="224.26" x2="320.59" y2="218.51"/><line x1="227.07" y1="214.85" x2="222.65" y2="220.45"/><line x1="140.57" y1="154.33" x2="142.01" y2="160.70"/><line x1="317.01" y1="363.82" x2="345.09" y2="397.82"/><line x1="194.54" y1="243.43" x2="214.81" y2="218.56"/><line x1="316.60" y1="276.39" x2="311.75" y2="266.81"/><line x1="200.43" y1="249.63" x2="206.23" y2="255.47"/><line x1="480.00" y1="32.02" x2="447.51" y2="32.02"/><line x1="160.97" y1="106.47" x2="158.75" y2="107.10"/><line x1="311.19" y1="405.66" x2="316.71" y2="405.50"/><line x1="206.23" y1="255.47" x2="211.96" y2="260.96"/><line x1="229.73" y1="217.12" x2="223.12" y2="221.74"/><line x1="329.66" y1="319.26" x2="369.86" y2="309.99"/><line x1="270.64" y1="280.18" x2="271.14" y2="278.69"/><line x1="215.88" y1="121.54" x2="211.48" y2="119.17"/><line x1="167.76" y1="129.34" x2="149.35" y2="112.88"/><line x1="256.83" y1="390.09" x2="263.85" y2="393.71"/><line x1="167.04" y1="150.44" x2="142.01" y2="160.70"/><line x1="222.17" y1="223.98" x2="222.47" y2="223.95"/><line x1="220.41" y1="215.48" x2="223.03" y2="211.83"/><line x1="223.08" y1="223.50" x2="243.65" y2="230.42"/><line x1="173.84" y1="165.33" x2="177.12" y2="170.88"/><line x1="201.26" y1="330.93" x2="198.60" y2="345.94"/><line x1="219.47" y1="212.44" x2="219.43" y2="211.92"/><line x1="300.91" y1="194.68" x2="295.48" y2="188.52"/><line x1="311.75" y1="266.81" x2="344.13" y2="252.07"/><line x1="198.83" y1="113.23" x2="194.80" y2="111.63"/><line x1="149.76" y1="180.94" x2="153.49" y2="188.07"/><line x1="164.83" y1="136.73" x2="139.71" y2="136.12"/><line x1="222.92" y1="223.71" x2="233.92" y2="279.24"/><line x1="316.71" y1="405.50" x2="309.84" y2="368.77"/><line x1="220.71" y1="210.82" x2="220.37" y2="210.84"/><line x1="187.32" y1="131.07" x2="182.31" y2="128.95"/><line x1="244.95" y1="140.98" x2="239.74" y2="137.03"/><line x1="284.54" y1="401.76" x2="291.30" y2="403.46"/><line x1="363.16" y1="289.21" x2="361.01" y2="283.97"/><line x1="373.69" y1="339.24" x2="329.67" y2="334.97"/><line x1="258.36" y1="191.77" x2="250.63" y2="183.32"/><line x1="143.95" y1="120.50" x2="142.90" y2="122.82"/><line x1="163.30" y1="106.03" x2="169.44" y2="128.19"/><line x1="162.10" y1="202.37" x2="166.83" y2="209.41"/><line x1="221.00" y1="365.72" x2="228.26" y2="371.43"/><line x1="368.39" y1="370.50" x2="370.01" y2="365.85"/><line x1="329.67" y1="334.97" x2="373.58" y2="334.56"/><line x1="223.08" y1="223.50" x2="260.47" y2="250.31"/><line x1="278.35" y1="170.40" x2="272.69" y2="164.86"/><line x1="329.19" y1="229.94" x2="325.00" y2="224.26"/><line x1="223.08" y1="223.50" x2="223.19" y2="223.23"/><line x1="169.44" y1="128.19" x2="160.97" y2="106.47"/><line x1="188.14" y1="187.36" x2="192.02" y2="192.57"/><line x1="228.26" y1="371.43" x2="240.79" y2="357.65"/><line x1="325.55" y1="351.81" x2="326.74" y2="348.85"/><line x1="336.54" y1="401.66" x2="317.01" y2="363.82"/><line x1="269.95" y1="281.63" x2="270.64" y2="280.18"/><line x1="325.00" y1="224.26" x2="294.42" y2="237.96"/><line x1="180.05" y1="107.16" x2="176.83" y2="106.51"/><line x1="205.59" y1="142.47" x2="220.38" y2="124.10"/><line x1="140.57" y1="154.33" x2="167.04" y2="150.44"/><line x1="317.01" y1="363.82" x2="340.93" y2="399.90"/><line x1="316.60" y1="276.39" x2="347.41" y2="257.48"/><line x1="371.99" y1="320.05" x2="329.66" y2="319.26"/><line x1="220.85" y1="216.48" x2="220.41" y2="215.48"/><line x1="220.38" y1="124.10" x2="215.88" y2="121.54"/><line x1="140.56" y1="130.49" x2="140.07" y2="133.25"/><line x1="480.00" y1="32.02" x2="480.00" y2="64.50"/><line x1="311.19" y1="405.66" x2="307.14" y2="370.00"/><line x1="249.77" y1="386.05" x2="256.83" y2="390.09"/><line x1="206.23" y1="255.47" x2="222.17" y2="223.98"/><line x1="306.34" y1="257.11" x2="300.56" y2="247.50"/><line x1="229.73" y1="217.12" x2="223.24" y2="222.19"/><line x1="329.66" y1="319.26" x2="371.03" y2="315.06"/><line x1="281.02" y1="219.16" x2="306.14" y2="200.76"/><line x1="480.00" y1="479.91" x2="480.00" y2="447.42"/><line x1="167.76" y1="129.34" x2="151.00" y2="111.38"/><line x1="204.26" y1="207.40" x2="208.26" y2="211.80"/><line x1="256.83" y1="390.09" x2="267.44" y2="369.01"/><line x1="223.08" y1="223.50" x2="266.69" y2="285.69"/><line x1="320.94" y1="359.58" x2="355.96" y2="389.77"/><line x1="223.08" y1="223.50" x2="270.63" y2="269.23"/><line x1="269.50" y1="265.80" x2="267.92" y2="262.20"/><line x1="306.14" y1="200.76" x2="300.91" y2="194.68"/><line x1="223.08" y1="223.50" x2="247.17" y2="234.19"/><line x1="202.95" y1="115.02" x2="198.83" y2="113.23"/><line x1="165.03" y1="141.98" x2="165.78" y2="146.07"/><line x1="173.84" y1="165.33" x2="149.76" y2="180.94"/><line x1="329.94" y1="331.00" x2="330.03" y2="326.82"/><line x1="355.96" y1="389.77" x2="359.01" y2="386.49"/><line x1="326.67" y1="303.12" x2="365.13" y2="294.44"/><line x1="212.76" y1="147.97" x2="205.59" y2="142.47"/><line x1="219.47" y1="212.44" x2="220.71" y2="210.82"/><line x1="198.83" y1="113.23" x2="187.32" y2="131.07"/><line x1="447.51" y1="479.91" x2="480.00" y2="447.42"/><line x1="222.92" y1="223.71" x2="228.68" y2="275.30"/><line x1="365.13" y1="294.44" x2="363.16" y2="289.21"/><line x1="220.71" y1="210.82" x2="219.43" y2="211.92"/><line x1="168.55" y1="128.71" x2="152.77" y2="110.05"/><line x1="179.83" y1="312.78" x2="190.69" y2="322.26"/><line x1="145.12" y1="118.35" x2="143.95" y2="120.50"/><line x1="284.54" y1="401.76" x2="291.46" y2="372.80"/><line x1="287.90" y1="228.51" x2="281.02" y2="219.16"/><line x1="250.62" y1="238.08" x2="247.17" y2="234.19"/><line x1="221.87" y1="218.66" x2="221.35" y2="217.58"/><line x1="258.36" y1="191.77" x2="278.35" y2="170.40"/><line x1="174.44" y1="321.82" x2="182.70" y2="330.35"/><line x1="319.06" y1="361.79" x2="320.94" y2="359.58"/><line x1="304.63" y1="405.42" x2="311.19" y2="405.66"/><line x1="162.10" y1="202.37" x2="188.14" y2="187.36"/><line x1="223.08" y1="223.50" x2="259.35" y2="289.80"/><line x1="368.39" y1="370.50" x2="325.55" y2="351.81"/><line x1="223.08" y1="223.50" x2="270.64" y2="280.18"/><line x1="353.41" y1="268.17" x2="350.50" y2="262.85"/><line x1="247.17" y1="234.19" x2="243.65" y2="230.42"/><line x1="223.08" y1="223.50" x2="263.40" y2="254.46"/><line x1="219.54" y1="211.38" x2="219.67" y2="211.18"/><line x1="183.47" y1="108.00" x2="180.05" y2="107.16"/><line x1="223.08" y1="223.50" x2="232.82" y2="219.89"/><line x1="165.20" y1="134.12" x2="164.96" y2="135.38"/><line x1="301.30" y1="371.79" x2="304.30" y2="371.01"/><line x1="328.54" y1="311.35" x2="326.67" y2="303.12"/><line x1="250.51" y1="288.95" x2="253.57" y2="289.87"/><line x1="235.33" y1="167.79" x2="250.32" y2="145.22"/><line x1="167.06" y1="130.09" x2="166.45" y2="130.94"/><line x1="211.56" y1="338.81" x2="221.58" y2="345.89"/><line x1="373.10" y1="350.56" x2="373.54" y2="345.01"/><line x1="253.57" y1="289.87" x2="256.18" y2="290.17"/><line x1="223.25" y1="222.90" x2="229.73" y2="217.12"/><line x1="171.49" y1="127.50" x2="165.74" y2="105.76"/><line x1="206.25" y1="353.01" x2="213.68" y2="359.59"/><line x1="306.34" y1="257.11" x2="333.21" y2="235.54"/><line x1="229.73" y1="217.12" x2="223.28" y2="222.51"/><line x1="182.31" y1="128.95" x2="177.84" y2="127.69"/><line x1="139.50" y1="139.09" x2="139.42" y2="142.17"/><line x1="480.00" y1="479.91" x2="447.51" y2="479.91"/><line x1="223.08" y1="223.50" x2="247.02" y2="287.44"/><line x1="327.08" y1="404.22" x2="331.92" y2="403.10"/><line x1="223.08" y1="223.50" x2="265.29" y2="286.88"/><line x1="223.08" y1="223.50" x2="271.31" y2="272.47"/><line x1="234.68" y1="133.36" x2="229.76" y2="129.99"/><line x1="223.08" y1="223.50" x2="250.62" y2="238.08"/><line x1="165.03" y1="141.98" x2="139.71" y2="148.15"/><line x1="277.71" y1="399.56" x2="284.54" y2="401.76"/><line x1="329.94" y1="331.00" x2="372.73" y2="324.96"/><line x1="265.29" y1="286.88" x2="266.69" y2="285.69"/><line x1="212.76" y1="147.97" x2="224.99" y2="126.90"/><line x1="284.04" y1="176.19" x2="258.36" y2="191.77"/><line x1="158.75" y1="107.10" x2="156.64" y2="107.90"/><line x1="235.48" y1="376.72" x2="242.64" y2="381.59"/><line x1="217.37" y1="220.93" x2="219.45" y2="222.62"/><line x1="366.47" y1="374.91" x2="368.39" y2="370.50"/><line x1="320.59" y1="218.51" x2="315.98" y2="212.68"/><line x1="168.55" y1="128.71" x2="154.65" y2="108.88"/><line x1="142.01" y1="160.70" x2="144.02" y2="167.25"/><line x1="179.83" y1="312.78" x2="174.44" y2="321.82"/><line x1="345.09" y1="397.82" x2="348.99" y2="395.43"/><line x1="223.03" y1="211.83" x2="219.79" y2="213.76"/><line x1="287.90" y1="228.51" x2="311.16" y2="206.76"/><line x1="356.13" y1="273.45" x2="353.41" y2="268.17"/><line x1="198.96" y1="137.83" x2="207.17" y2="116.99"/><line x1="168.80" y1="155.11" x2="171.07" y2="160.08"/><line x1="211.96" y1="260.96" x2="217.62" y2="266.09"/><line x1="319.06" y1="361.79" x2="352.62" y2="392.75"/><line x1="304.63" y1="405.42" x2="301.30" y2="371.79"/><line x1="223.08" y1="223.50" x2="257.78" y2="290.08"/><line x1="369.86" y1="309.99" x2="368.48" y2="304.84"/><line x1="223.08" y1="223.50" x2="269.95" y2="281.63"/><line x1="353.41" y1="268.17" x2="316.60" y2="276.39"/><line x1="223.08" y1="223.50" x2="265.89" y2="258.42"/><line x1="149.35" y1="112.88" x2="147.82" y2="114.54"/><line x1="165.20" y1="134.12" x2="140.56" y2="130.49"/><line x1="322.65" y1="357.18" x2="324.18" y2="354.59"/><line x1="222.47" y1="223.95" x2="222.71" y2="223.86"/><line x1="301.30" y1="371.79" x2="311.19" y2="405.66"/><line x1="328.54" y1="311.35" x2="366.90" y2="299.65"/><line x1="327.75" y1="345.68" x2="373.10" y2="350.56"/><line x1="235.33" y1="167.79" x2="255.83" y2="149.73"/><line x1="157.30" y1="303.30" x2="165.97" y2="312.80"/><line x1="167.06" y1="130.09" x2="146.41" y2="116.36"/><line x1="177.12" y1="170.88" x2="180.69" y2="176.52"/><line x1="275.74" y1="371.11" x2="283.74" y2="372.38"/><line x1="211.56" y1="338.81" x2="206.25" y2="353.01"/><line x1="200.08" y1="202.59" x2="204.26" y2="207.40"/><line x1="324.06" y1="294.55" x2="320.70" y2="285.64"/><line x1="373.10" y1="350.56" x2="328.57" y2="342.31"/><line x1="219.43" y1="211.92" x2="220.08" y2="210.91"/><line x1="295.48" y1="188.52" x2="289.75" y2="182.23"/><line x1="340.67" y1="246.61" x2="306.34" y2="257.11"/><line x1="165.94" y1="131.90" x2="165.52" y2="132.96"/><line x1="168.70" y1="302.52" x2="179.83" y2="312.78"/><line x1="171.49" y1="127.50" x2="168.30" y2="105.67"/><line x1="153.49" y1="188.07" x2="157.66" y2="195.25"/><line x1="206.25" y1="353.01" x2="221.58" y2="345.89"/><line x1="322.01" y1="405.02" x2="327.08" y2="404.22"/><line x1="263.85" y1="287.89" x2="265.29" y2="286.88"/><line x1="250.63" y1="183.32" x2="242.95" y2="175.33"/><line x1="306.34" y1="257.11" x2="337.03" y2="241.10"/><line x1="182.31" y1="128.95" x2="187.07" y2="109.02"/><line x1="139.50" y1="139.09" x2="165.03" y2="141.98"/><line x1="223.08" y1="223.50" x2="243.09" y2="285.31"/><line x1="327.08" y1="404.22" x2="312.39" y2="367.32"/><line x1="177.84" y1="127.69" x2="183.47" y2="108.00"/><line x1="373.58" y1="334.56" x2="329.94" y2="331.00"/><line x1="223.08" y1="223.50" x2="263.85" y2="287.89"/><line x1="222.65" y1="220.45" x2="222.30" y2="219.63"/><line x1="173.92" y1="127.27" x2="172.66" y2="127.32"/><line x1="234.68" y1="133.36" x2="212.76" y2="147.97"/><line x1="240.79" y1="357.65" x2="235.48" y2="376.72"/><line x1="326.74" y1="348.85" x2="327.75" y2="345.68"/><line x1="214.81" y1="218.56" x2="217.37" y2="220.93"/><line x1="329.94" y1="331.00" x2="373.27" y2="329.80"/><line x1="141.20" y1="127.83" x2="165.20" y2="134.12"/><line x1="158.75" y1="107.10" x2="168.55" y2="128.71"/><line x1="235.48" y1="376.72" x2="249.96" y2="362.28"/><line x1="261.43" y1="154.53" x2="235.33" y2="167.79"/><line x1="271.14" y1="278.69" x2="271.43" y2="277.14"/><line x1="320.59" y1="218.51" x2="287.90" y2="228.51"/><line x1="267.44" y1="369.01" x2="275.74" y2="371.11"/><line x1="142.01" y1="160.70" x2="168.80" y2="155.11"/><line x1="345.09" y1="397.82" x2="319.06" y2="361.79"/><line x1="170.95" y1="105.76" x2="171.49" y2="127.50"/><line x1="227.75" y1="160.73" x2="220.23" y2="154.12"/><line x1="223.03" y1="211.83" x2="220.06" y2="214.58"/><line x1="198.96" y1="137.83" x2="211.48" y2="119.17"/><line x1="263.85" y1="393.71" x2="270.81" y2="396.88"/><line x1="359.01" y1="386.49" x2="361.78" y2="382.93"/><line x1="211.96" y1="260.96" x2="222.47" y2="223.95"/><line x1="223.08" y1="223.50" x2="256.18" y2="290.17"/><line x1="369.86" y1="309.99" x2="328.54" y2="311.35"/><line x1="273.77" y1="209.88" x2="266.14" y2="200.69"/><line x1="231.33" y1="352.18" x2="240.79" y2="357.65"/><line x1="149.35" y1="112.88" x2="167.06" y2="130.09"/><line x1="220.23" y1="154.12" x2="234.68" y2="133.36"/><line x1="322.65" y1="357.18" x2="364.27" y2="379.07"/><line x1="300.56" y1="247.50" x2="294.42" y2="237.96"/><line x1="265.89" y1="258.42" x2="263.40" y2="254.46"/><line x1="194.80" y1="111.63" x2="190.87" y2="110.23"/><line x1="157.30" y1="303.30" x2="157.30" y2="291.45"/><line x1="291.46" y1="372.80" x2="294.89" y2="372.68"/><line x1="177.12" y1="170.88" x2="153.49" y2="188.07"/><line x1="233.92" y1="279.24" x2="238.73" y2="282.58"/><line x1="224.83" y1="213.09" x2="220.41" y2="215.48"/><line x1="324.06" y1="294.55" x2="358.67" y2="278.72"/><line x1="219.43" y1="211.92" x2="220.37" y2="210.84"/><line x1="165.94" y1="131.90" x2="141.98" y2="125.28"/><line x1="294.42" y1="237.96" x2="320.59" y2="218.51"/><line x1="291.30" y1="403.46" x2="298.00" y2="404.69"/><line x1="250.63" y1="183.32" x2="267.05" y2="159.57"/><line x1="190.69" y1="322.26" x2="190.76" y2="338.39"/><line x1="166.83" y1="209.41" x2="171.84" y2="216.38"/><line x1="370.01" y1="365.85" x2="371.33" y2="360.99"/><line x1="173.92" y1="127.27" x2="173.80" y2="106.04"/><line x1="192.02" y1="192.57" x2="196.00" y2="197.66"/><line x1="340.93" y1="399.90" x2="345.09" y2="397.82"/><line x1="221.66" y1="211.08" x2="220.71" y2="210.82"/><line x1="164.96" y1="135.38" x2="164.83" y2="136.73"/><line x1="480.00" y1="64.50" x2="447.51" y2="32.02"/><line x1="250.32" y1="145.22" x2="244.95" y2="140.98"/><line x1="140.07" y1="133.25" x2="139.71" y2="136.12"/><line x1="182.72" y1="230.12" x2="188.58" y2="236.88"/><line x1="267.44" y1="369.01" x2="263.85" y2="393.71"/><line x1="373.54" y1="345.01" x2="373.69" y2="339.24"/><line x1="166.45" y1="130.94" x2="165.94" y2="131.90"/><line x1="165.74" y1="105.76" x2="163.30" y2="106.03"/><line x1="213.68" y1="359.59" x2="221.00" y2="365.72"/><line x1="208.26" y1="211.80" x2="211.77" y2="215.52"/><line x1="359.01" y1="386.49" x2="322.65" y2="357.18"/><line x1="333.21" y1="235.54" x2="329.19" y2="229.94"/><line x1="273.77" y1="209.88" x2="295.48" y2="188.52"/><line x1="170.42" y1="127.78" x2="169.44" y2="128.19"/><line x1="194.80" y1="111.63" x2="182.31" y2="128.95"/><line x1="139.71" y1="148.15" x2="140.57" y2="154.33"/><line x1="200.43" y1="249.63" x2="221.05" y2="223.64"/><line x1="291.46" y1="372.80" x2="291.30" y2="403.46"/><line x1="233.92" y1="279.24" x2="223.08" y2="223.50"/><line x1="224.83" y1="213.09" x2="220.85" y2="216.48"/><line x1="224.99" y1="126.90" x2="220.38" y2="124.10"/><line x1="258.84" y1="366.07" x2="267.44" y2="369.01"/><line x1="165.94" y1="131.90" x2="142.90" y2="122.82"/><line x1="215.88" y1="121.54" x2="198.96" y2="137.83"/><line x1="243.65" y1="230.42" x2="240.04" y2="226.74"/><line x1="250.63" y1="183.32" x2="272.69" y2="164.86"/><line x1="222.17" y1="223.98" x2="211.96" y2="260.96"/><line x1="371.03" y1="315.06" x2="369.86" y2="309.99"/><line x1="190.69" y1="322.26" x2="182.70" y2="330.35"/><line x1="166.83" y1="209.41" x2="192.02" y2="192.57"/><line x1="151.00" y1="111.38" x2="149.35" y2="112.88"/><line x1="311.16" y1="206.76" x2="306.14" y2="200.76"/><line x1="192.87" y1="134.03" x2="187.32" y2="131.07"/><line x1="173.92" y1="127.27" x2="176.83" y2="106.51"/><line x1="267.92" y1="262.20" x2="265.89" y2="258.42"/><line x1="171.07" y1="160.08" x2="173.84" y2="165.33"/><line x1="300.91" y1="194.68" x2="273.77" y2="209.88"/><line x1="227.07" y1="214.85" x2="224.83" y2="213.09"/><line x1="256.18" y1="290.17" x2="257.78" y2="290.08"/><line x1="266.14" y1="200.69" x2="258.36" y2="191.77"/><line x1="221.66" y1="211.08" x2="219.47" y2="212.44"/><line x1="350.50" y1="262.85" x2="347.41" y2="257.48"/><line x1="149.76" y1="180.94" x2="177.12" y2="170.88"/><line x1="283.74" y1="372.38" x2="291.46" y2="372.80"/><line x1="221.58" y1="345.89" x2="231.33" y2="352.18"/><line x1="164.96" y1="135.38" x2="140.07" y2="133.25"/><line x1="187.32" y1="131.07" x2="194.80" y2="111.63"/><line x1="223.28" y1="222.51" x2="223.24" y2="222.19"/><line x1="250.32" y1="145.22" x2="227.75" y2="160.73"/><line x1="228.68" y1="275.30" x2="233.92" y2="279.24"/><line x1="363.16" y1="289.21" x2="324.06" y2="294.55"/><line x1="324.18" y1="354.59" x2="325.55" y2="351.81"/><line x1="182.72" y1="230.12" x2="208.26" y2="211.80"/><line x1="373.54" y1="345.01" x2="329.21" y2="338.74"/><line x1="143.95" y1="120.50" x2="165.94" y2="131.90"/><line x1="165.74" y1="105.76" x2="170.42" y2="127.78"/><line x1="278.35" y1="170.40" x2="250.63" y2="183.32"/><line x1="331.92" y1="403.10" x2="336.54" y2="401.66"/><line x1="320.70" y1="285.64" x2="316.60" y2="276.39"/><line x1="266.69" y1="285.69" x2="267.97" y2="284.39"/><line x1="333.21" y1="235.54" x2="300.56" y2="247.50"/><line x1="188.14" y1="187.36" x2="166.83" y2="209.41"/><line x1="325.55" y1="351.81" x2="370.01" y2="365.85"/><line x1="32.16" y1="32.09" x2="32.16" y2="64.58"/><line x1="139.42" y1="142.17" x2="139.71" y2="148.15"/><line x1="180.05" y1="107.16" x2="173.92" y2="127.27"/><line x1="232.82" y1="219.89" x2="229.73" y2="217.12"/><line x1="372.73" y1="324.96" x2="371.99" y2="320.05"/><line x1="229.76" y1="129.99" x2="224.99" y2="126.90"/><line x1="316.60" y1="276.39" x2="350.50" y2="262.85"/><line x1="242.64" y1="381.59" x2="249.77" y2="386.05"/><line x1="200.43" y1="249.63" x2="219.45" y2="222.62"/><line x1="140.56" y1="130.49" x2="164.96" y2="135.38"/><line x1="311.19" y1="405.66" x2="304.30" y2="371.01"/><line x1="328.57" y1="342.31" x2="329.21" y2="338.74"/><line x1="144.02" y1="167.25" x2="146.60" y2="174.00"/><line x1="255.83" y1="149.73" x2="250.32" y2="145.22"/><line x1="204.26" y1="207.40" x2="182.72" y2="230.12"/><line x1="207.17" y1="116.99" x2="202.95" y2="115.02"/><line x1="309.84" y1="368.77" x2="312.39" y2="367.32"/><line x1="217.62" y1="266.09" x2="223.19" y2="270.87"/><line x1="312.39" y1="367.32" x2="314.78" y2="365.67"/><line x1="270.81" y1="396.88" x2="277.71" y2="399.56"/><line x1="227.07" y1="214.85" x2="221.87" y2="218.66"/><line x1="266.14" y1="200.69" x2="284.04" y2="176.19"/><line x1="180.69" y1="176.52" x2="184.36" y2="182.00"/><line x1="221.58" y1="345.89" x2="213.68" y2="359.59"/><line x1="364.27" y1="379.07" x2="366.47" y2="374.91"/><line x1="249.96" y1="362.28" x2="258.84" y2="366.07"/><line x1="221.87" y1="218.66" x2="224.83" y2="213.09"/><line x1="229.73" y1="217.12" x2="227.07" y2="214.85"/><line x1="358.67" y1="278.72" x2="356.13" y2="273.45"/><line x1="174.44" y1="321.82" x2="190.69" y2="322.26"/><line x1="219.46" y1="211.62" x2="219.54" y2="211.38"/><line x1="141.98" y1="125.28" x2="141.20" y2="127.83"/><line x1="298.00" y1="404.69" x2="304.63" y2="405.42"/><line x1="32.00" y1="479.98" x2="64.49" y2="479.98"/><line x1="223.08" y1="223.50" x2="236.34" y2="223.16"/><line x1="267.05" y1="159.57" x2="261.43" y2="154.53"/><line x1="219.79" y1="213.76" x2="219.59" y2="213.05"/><line x1="311.75" y1="266.81" x2="306.34" y2="257.11"/><line x1="232.82" y1="219.89" x2="223.25" y2="222.90"/><line x1="173.80" y1="106.04" x2="170.95" y2="105.76"/><line x1="196.00" y1="197.66" x2="200.08" y2="202.59"/><line x1="328.57" y1="342.31" x2="373.54" y2="345.01"/><line x1="144.02" y1="167.25" x2="171.07" y2="160.08"/><line x1="168.30" y1="105.67" x2="165.74" y2="105.76"/><line x1="139.71" y1="136.12" x2="139.50" y2="139.09"/><line x1="220.08" y1="210.91" x2="219.85" y2="211.02"/><line x1="337.03" y1="241.10" x2="333.21" y2="235.54"/><line x1="223.08" y1="223.50" x2="271.53" y2="275.54"/><line x1="217.62" y1="266.09" x2="222.71" y2="223.86"/><line x1="223.08" y1="223.50" x2="253.99" y2="242.06"/><line x1="222.93" y1="221.16" x2="222.65" y2="220.45"/><line x1="165.03" y1="141.98" x2="139.42" y2="142.17"/><line x1="312.39" y1="367.32" x2="331.92" y2="403.10"/><line x1="169.44" y1="128.19" x2="168.55" y2="128.71"/><line x1="147.82" y1="114.54" x2="146.41" y2="116.36"/><line x1="222.30" y1="219.63" x2="221.87" y2="218.66"/><line x1="211.77" y1="215.52" x2="214.81" y2="218.56"/><line x1="212.76" y1="147.97" x2="229.76" y2="129.99"/><line x1="205.59" y1="142.47" x2="198.96" y2="137.83"/><line x1="217.37" y1="220.93" x2="200.43" y2="249.63"/><line x1="373.27" y1="329.80" x2="372.73" y2="324.96"/><line x1="317.01" y1="363.82" x2="319.06" y2="361.79"/><line x1="180.69" y1="176.52" x2="157.66" y2="195.25"/><line x1="168.55" y1="128.71" x2="156.64" y2="107.90"/><line x1="171.84" y1="216.38" x2="177.14" y2="223.28"/><line x1="249.96" y1="362.28" x2="242.64" y2="381.59"/><line x1="190.87" y1="110.23" x2="187.07" y2="109.02"/><line x1="271.43" y1="277.14" x2="271.53" y2="275.54"/><line x1="287.90" y1="228.51" x2="315.98" y2="212.68"/><line x1="229.73" y1="217.12" x2="222.93" y2="221.16"/><line x1="329.66" y1="319.26" x2="328.54" y2="311.35"/><line x1="281.02" y1="219.16" x2="273.77" y2="209.88"/><line x1="168.80" y1="155.11" x2="144.02" y2="167.25"/><line x1="319.06" y1="361.79" x2="348.99" y2="395.43"/><line x1="167.76" y1="129.34" x2="167.06" y2="130.09"/><line x1="271.53" y1="275.54" x2="271.31" y2="272.47"/><line x1="141.98" y1="125.28" x2="165.52" y2="132.96"/><line x1="223.08" y1="223.50" x2="269.06" y2="283.03"/><line x1="320.94" y1="359.58" x2="322.65" y2="357.18"/><line x1="220.06" y1="214.58" x2="219.79" y2="213.76"/><line x1="211.48" y1="119.17" x2="207.17" y2="116.99"/><line x1="223.08" y1="223.50" x2="267.92" y2="262.20"/><line x1="32.00" y1="479.98" x2="32.00" y2="447.50"/><line x1="223.08" y1="223.50" x2="240.04" y2="226.74"/><line x1="267.05" y1="159.57" x2="242.95" y2="175.33"/><line x1="222.47" y1="223.95" x2="217.62" y2="266.09"/><line x1="328.54" y1="311.35" x2="368.48" y2="304.84"/><line x1="201.26" y1="330.93" x2="211.56" y2="338.81"/><line x1="219.79" y1="213.76" x2="221.66" y2="211.08"/><line x1="326.67" y1="303.12" x2="324.06" y2="294.55"/><line x1="167.06" y1="130.09" x2="147.82" y2="114.54"/><line x1="311.75" y1="266.81" x2="340.67" y2="246.61"/><line x1="275.74" y1="371.11" x2="270.81" y2="396.88"/><line x1="173.80" y1="106.04" x2="172.66" y2="127.32"/><line x1="263.40" y1="254.46" x2="260.47" y2="250.31"/><line x1="164.83" y1="136.73" x2="164.78" y2="138.20"/><line x1="295.48" y1="188.52" x2="266.14" y2="200.69"/><line x1="222.92" y1="223.71" x2="223.08" y2="223.50"/><line x1="316.71" y1="405.50" x2="322.01" y2="405.02"/><line x1="168.70" y1="302.52" x2="165.97" y2="312.80"/><line x1="153.49" y1="188.07" x2="180.69" y2="176.52"/><line x1="361.78" y1="382.93" x2="364.27" y2="379.07"/><line x1="260.47" y1="250.31" x2="257.27" y2="246.14"/><line x1="220.37" y1="210.84" x2="220.08" y2="210.91"/><line x1="182.31" y1="128.95" x2="190.87" y2="110.23"/><line x1="373.69" y1="339.24" x2="373.58" y2="334.56"/><line x1="294.89" y1="372.68" x2="298.17" y2="372.35"/><line x1="223.08" y1="223.50" x2="238.73" y2="282.58"/><line x1="163.30" y1="106.03" x2="160.97" y2="106.47"/><line x1="223.08" y1="223.50" x2="262.38" y2="288.71"/><line x1="220.08" y1="210.91" x2="219.46" y2="211.62"/><line x1="223.08" y1="223.50" x2="271.43" y2="277.14"/><line x1="142.90" y1="122.82" x2="141.98" y2="125.28"/><line x1="223.08" y1="223.50" x2="257.27" y2="246.14"/><line x1="326.74" y1="348.85" x2="372.36" y2="355.89"/><line x1="238.73" y1="282.58" x2="243.09" y2="285.31"/><line x1="240.04" y1="226.74" x2="236.34" y2="223.16"/><line x1="336.54" y1="401.66" x2="340.93" y2="399.90"/><line x1="190.76" y1="338.39" x2="198.60" y2="345.94"/><line x1="205.59" y1="142.47" x2="215.88" y2="121.54"/><line x1="347.41" y1="257.48" x2="344.13" y2="252.07"/><line x1="236.34" y1="223.16" x2="232.82" y2="219.89"/><line x1="371.99" y1="320.05" x2="371.03" y2="315.06"/><line x1="307.14" y1="370.00" x2="309.84" y2="368.77"/><line x1="171.84" y1="216.38" x2="196.00" y2="197.66"/><line x1="227.75" y1="160.73" x2="239.74" y2="137.03"/><line x1="281.02" y1="219.16" x2="300.91" y2="194.68"/><line x1="263.85" y1="393.71" x2="275.74" y2="371.11"/><line x1="329.21" y1="338.74" x2="329.67" y2="334.97"/><line x1="259.35" y1="289.80" x2="260.89" y2="289.35"/><line x1="223.08" y1="223.50" x2="253.57" y2="289.87"/><line x1="223.08" y1="223.50" x2="267.97" y2="284.39"/><line x1="320.94" y1="359.58" x2="359.01" y2="386.49"/><line x1="223.08" y1="223.50" x2="269.50" y2="265.80"/><line x1="231.33" y1="352.18" x2="228.26" y2="371.43"/><line x1="188.58" y1="236.88" x2="194.54" y2="243.43"/><line x1="322.65" y1="357.18" x2="361.78" y2="382.93"/><line x1="300.56" y1="247.50" x2="325.00" y2="224.26"/><line x1="326.67" y1="303.12" x2="363.16" y2="289.21"/><line x1="157.30" y1="303.30" x2="168.70" y2="302.52"/><line x1="314.78" y1="365.67" x2="317.01" y2="363.82"/><line x1="324.06" y1="294.55" x2="361.01" y2="283.97"/><line x1="165.78" y1="146.07" x2="167.04" y2="150.44"/><line x1="168.70" y1="302.52" x2="157.30" y2="291.45"/><line x1="291.30" y1="403.46" x2="294.89" y2="372.68"/><line x1="168.55" y1="128.71" x2="167.76" y2="129.34"/><line x1="330.03" y1="326.82" x2="329.66" y2="319.26"/><line x1="361.01" y1="283.97" x2="358.67" y2="278.72"/><line x1="221.05" y1="223.64" x2="222.17" y2="223.98"/><line x1="294.89" y1="372.68" x2="298.00" y2="404.69"/><line x1="370.01" y1="365.85" x2="326.74" y2="348.85"/><line x1="223.08" y1="223.50" x2="260.89" y2="289.35"/><line x1="272.69" y1="164.86" x2="267.05" y2="159.57"/><line x1="152.77" y1="110.05" x2="151.00" y2="111.38"/><line x1="223.08" y1="223.50" x2="271.14" y2="278.69"/><line x1="182.70" y1="330.35" x2="190.76" y2="338.39"/><line x1="192.02" y1="192.57" x2="171.84" y2="216.38"/><line x1="326.74" y1="348.85" x2="371.33" y2="360.99"/><line x1="176.83" y1="106.51" x2="173.80" y2="106.04"/><line x1="146.60" y1="174.00" x2="149.76" y2="180.94"/><line x1="190.76" y1="338.39" x2="201.26" y2="330.93"/><line x1="235.33" y1="167.79" x2="227.75" y2="160.73"/><line x1="304.30" y1="371.01" x2="307.14" y2="370.00"/><line x1="257.78" y1="290.08" x2="259.35" y2="289.80"/><line x1="347.41" y1="257.48" x2="311.75" y2="266.81"/><line x1="223.25" y1="222.90" x2="223.28" y2="222.51"/><line x1="140.07" y1="133.25" x2="164.83" y2="136.73"/><line x1="223.19" y1="270.87" x2="228.68" y2="275.30"/><line x1="307.14" y1="370.00" x2="316.71" y2="405.50"/><line x1="171.49" y1="127.50" x2="170.42" y2="127.78"/><line x1="223.24" y1="222.19" x2="223.12" y2="221.74"/><line x1="227.75" y1="160.73" x2="244.95" y2="140.98"/><line x1="166.45" y1="130.94" x2="143.95" y2="120.50"/><line x1="213.68" y1="359.59" x2="231.33" y2="352.18"/><line x1="208.26" y1="211.80" x2="188.58" y2="236.88"/><line x1="329.21" y1="338.74" x2="373.69" y2="339.24"/><line x1="223.08" y1="223.50" x2="250.51" y2="288.95"/><line x1="223.12" y1="221.74" x2="222.93" y2="221.16"/><line x1="177.84" y1="127.69" x2="173.92" y2="127.27"/><line x1="170.42" y1="127.78" x2="163.30" y2="106.03"/><line x1="231.33" y1="352.18" x2="221.00" y2="365.72"/><line x1="188.58" y1="236.88" x2="211.77" y2="215.52"/><line x1="267.97" y1="284.39" x2="269.06" y2="283.03"/><line x1="300.56" y1="247.50" x2="329.19" y2="229.94"/><line x1="139.71" y1="148.15" x2="165.78" y2="146.07"/><line x1="284.04" y1="176.19" x2="278.35" y2="170.40"/><line x1="314.78" y1="365.67" x2="336.54" y2="401.66"/><line x1="269.06" y1="283.03" x2="269.95" y2="281.63"/><line x1="224.83" y1="213.09" x2="221.35" y2="217.58"/><line x1="224.99" y1="126.90" x2="205.59" y2="142.47"/><line x1="64.64" y1="32.09" x2="32.16" y2="64.58"/><line x1="177.14" y1="223.28" x2="182.72" y2="230.12"/><line x1="258.84" y1="366.07" x2="256.83" y2="390.09"/><line x1="165.78" y1="146.07" x2="140.57" y2="154.33"/><line x1="219.45" y1="222.62" x2="221.05" y2="223.64"/><line x1="330.03" y1="326.82" x2="371.99" y2="320.05"/><line x1="221.35" y1="217.58" x2="220.85" y2="216.48"/><line x1="154.65" y1="108.88" x2="152.77" y2="110.05"/><line x1="223.03" y1="211.83" x2="221.66" y2="211.08"/><line x1="198.96" y1="137.83" x2="192.87" y2="134.03"/><line x1="352.62" y1="392.75" x2="355.96" y2="389.77"/><line x1="221.05" y1="223.64" x2="206.23" y2="255.47"/><line x1="271.31" y1="272.47" x2="270.63" y2="269.23"/><line x1="311.16" y1="206.76" x2="281.02" y2="219.16"/><line x1="192.87" y1="134.03" x2="198.83" y2="113.23"/><line x1="152.77" y1="110.05" x2="167.76" y2="129.34"/><line x1="171.07" y1="160.08" x2="146.60" y2="174.00"/><line x1="222.71" y1="223.86" x2="222.92" y2="223.71"/><line x1="366.90" y1="299.65" x2="365.13" y2="294.44"/><line x1="270.63" y1="269.23" x2="269.50" y2="265.80"/><line x1="221.66" y1="211.08" x2="219.59" y2="213.05"/><line x1="327.75" y1="345.68" x2="328.57" y2="342.31"/><line x1="146.41" y1="116.36" x2="145.12" y2="118.35"/><line x1="194.54" y1="243.43" x2="200.43" y2="249.63"/><line x1="283.74" y1="372.38" x2="284.54" y2="401.76"/><line x1="146.60" y1="174.00" x2="173.84" y2="165.33"/><line x1="219.59" y1="213.05" x2="219.47" y2="212.44"/><line x1="219.43" y1="211.92" x2="219.46" y2="211.62"/><line x1="340.67" y1="246.61" x2="337.03" y2="241.10"/><line x1="157.66" y1="195.25" x2="162.10" y2="202.37"/><line x1="324.18" y1="354.59" x2="368.39" y2="370.50"/><line x1="223.19" y1="270.87" x2="222.92" y2="223.71"/><line x1="187.07" y1="109.02" x2="183.47" y2="108.00"/><line x1="165.97" y1="312.80" x2="174.44" y2="321.82"/><line x1="166.45" y1="130.94" x2="145.12" y2="118.35"/><line x1="184.36" y1="182.00" x2="188.14" y2="187.36"/><line x1="331.92" y1="403.10" x2="314.78" y2="365.67"/><line x1="320.70" y1="285.64" x2="353.41" y2="268.17"/><line x1="253.99" y1="242.06" x2="250.62" y2="238.08"/><line x1="219.85" y1="211.02" x2="219.67" y2="211.18"/><line x1="177.84" y1="127.69" x2="180.05" y2="107.16"/><line x1="373.58" y1="334.56" x2="373.27" y2="329.80"/><line x1="165.52" y1="132.96" x2="165.20" y2="134.12"/><line x1="32.16" y1="32.09" x2="64.64" y2="32.09"/><line x1="298.17" y1="372.35" x2="301.30" y2="371.79"/><line x1="372.73" y1="324.96" x2="330.03" y2="326.82"/><line x1="240.79" y1="357.65" x2="249.96" y2="362.28"/><line x1="242.95" y1="175.33" x2="235.33" y2="167.79"/><line x1="141.20" y1="127.83" x2="140.56" y2="130.49"/><line x1="156.64" y1="107.90" x2="154.65" y2="108.88"/><line x1="242.64" y1="381.59" x2="258.84" y2="366.07"/><line x1="372.36" y1="355.89" x2="373.10" y2="350.56"/><line x1="261.43" y1="154.53" x2="255.83" y2="149.73"/><line x1="315.98" y1="212.68" x2="311.16" y2="206.76"/><line x1="172.66" y1="127.32" x2="171.49" y2="127.50"/><line x1="198.60" y1="345.94" x2="206.25" y2="353.01"/><line x1="177.14" y1="223.28" x2="204.26" y2="207.40"/><line x1="258.84" y1="366.07" x2="249.77" y2="386.05"/><line x1="348.99" y1="395.43" x2="352.62" y2="392.75"/><line x1="170.95" y1="105.76" x2="168.30" y2="105.67"/><line x1="207.17" y1="116.99" x2="192.87" y2="134.03"/><line x1="32.00" y1="447.50" x2="64.49" y2="479.98"/></g></svg>