<svg xmlns="http://www.w3.org/2000/svg" width="512" height="512"><rect width="512" height="512" fill="#0a0f1a"/><text x="12" y="20" font-family="monospace" font-size="11" fill="#4a7fa5">FRONT (XZ)</text><g stroke="#00d4ff" stroke-width="0.6" opacity="0.85"><line x1="329.19" y1="269.43" x2="320.89" y2="257.78"/><line x1="171.10" y1="179.33" x2="157.44" y2="195.79"/><line x1="289.05" y1="136.88" x2="289.63" y2="134.96"/><line x1="183.49" y1="242.40" x2="178.87" y2="236.47"/><line x1="246.83" y1="146.38" x2="239.35" y2="165.49"/><line x1="434.27" y1="192.43" x2="434.01" y2="190.31"/><line x1="363.42" y1="320.73" x2="404.58" y2="312.05"/><line x1="325.82" y1="235.55" x2="331.70" y2="203.63"/><line x1="306.97" y1="297.69" x2="272.73" y2="319.64"/><line x1="173.58" y1="358.51" x2="175.94" y2="359.57"/><line x1="233.22" y1="185.55" x2="231.96" y2="182.97"/><line x1="325.82" y1="235.55" x2="307.77" y2="212.87"/><line x1="289.63" y1="134.96" x2="314.27" y2="148.90"/><line x1="345.40" y1="118.02" x2="335.16" y2="152.97"/><line x1="247.31" y1="171.56" x2="252.04" y2="175.74"/><line x1="210.75" y1="285.58" x2="177.88" y2="296.75"/><line x1="396.13" y1="130.79" x2="393.58" y2="133.58"/><line x1="284.32" y1="334.55" x2="317.51" y2="320.48"/><line x1="404.58" y1="312.05" x2="404.45" y2="311.23"/><line x1="284.32" y1="334.55" x2="306.97" y2="297.69"/><line x1="205.53" y1="186.11" x2="228.22" y2="171.69"/><line x1="160.60" y1="328.96" x2="155.93" y2="348.27"/><line x1="219.79" y1="316.50" x2="219.04" y2="311.32"/><line x1="247.98" y1="259.19" x2="228.74" y2="266.55"/><line x1="335.16" y1="152.97" x2="353.10" y2="121.22"/><line x1="262.77" y1="161.09" x2="266.46" y2="164.89"/><line x1="403.42" y1="143.58" x2="402.66" y2="142.41"/><line x1="175.94" y1="328.20" x2="177.02" y2="327.38"/><line x1="247.98" y1="259.19" x2="254.66" y2="222.82"/><line x1="120.84" y1="198.67" x2="142.51" y2="191.99"/><line x1="298.08" y1="351.11" x2="312.77" y2="347.36"/><line x1="142.12" y1="338.55" x2="151.56" y2="324.77"/><line x1="320.45" y1="109.47" x2="325.69" y2="110.97"/><line x1="293.15" y1="125.32" x2="294.20" y2="122.96"/><line x1="251.38" y1="217.49" x2="248.01" y2="211.91"/><line x1="209.21" y1="355.55" x2="211.78" y2="352.88"/><line x1="163.30" y1="217.52" x2="157.55" y2="210.83"/><line x1="430.46" y1="170.53" x2="429.71" y2="167.41"/><line x1="159.29" y1="350.44" x2="162.48" y2="352.43"/><line x1="303.26" y1="354.64" x2="302.31" y2="354.25"/><line x1="204.59" y1="213.58" x2="177.55" y2="213.30"/><line x1="385.60" y1="348.30" x2="392.39" y2="345.92"/><line x1="83.95" y1="135.70" x2="85.86" y2="132.73"/><line x1="402.43" y1="306.82" x2="325.82" y2="235.55"/><line x1="312.77" y1="347.36" x2="296.82" y2="349.83"/><line x1="108.33" y1="295.91" x2="102.21" y2="291.61"/><line x1="184.29" y1="362.32" x2="186.14" y2="362.66"/><line x1="294.20" y1="122.96" x2="295.31" y2="120.69"/><line x1="211.78" y1="352.88" x2="214.06" y2="349.89"/><line x1="143.87" y1="229.61" x2="138.51" y2="221.85"/><line x1="171.55" y1="279.25" x2="199.21" y2="264.52"/><line x1="388.92" y1="129.55" x2="388.66" y2="129.21"/><line x1="325.82" y1="235.55" x2="354.71" y2="307.20"/><line x1="153.80" y1="192.96" x2="168.03" y2="176.34"/><line x1="363.42" y1="320.73" x2="403.51" y2="308.65"/><line x1="312.95" y1="162.80" x2="294.17" y2="167.68"/><line x1="325.82" y1="235.55" x2="325.87" y2="193.24"/><line x1="338.17" y1="115.25" x2="345.40" y2="118.02"/><line x1="162.48" y1="352.43" x2="168.53" y2="330.08"/><line x1="180.19" y1="306.49" x2="179.23" y2="301.81"/><line x1="374.58" y1="175.48" x2="395.94" y2="143.01"/><line x1="199.21" y1="264.52" x2="195.68" y2="259.14"/><line x1="142.50" y1="189.71" x2="142.66" y2="189.41"/><line x1="291.62" y1="343.82" x2="315.69" y2="338.59"/><line x1="131.72" y1="330.40" x2="146.51" y2="321.65"/><line x1="284.32" y1="334.55" x2="315.24" y2="311.78"/><line x1="168.03" y1="176.34" x2="171.10" y2="179.33"/><line x1="294.17" y1="167.68" x2="312.39" y2="160.08"/><line x1="228.15" y1="164.97" x2="228.48" y2="163.92"/><line x1="234.66" y1="188.38" x2="212.65" y2="198.81"/><line x1="168.53" y1="330.08" x2="165.51" y2="354.23"/><line x1="219.20" y1="125.89" x2="222.91" y2="128.26"/><line x1="179.42" y1="323.96" x2="219.69" y2="335.53"/><line x1="236.13" y1="163.59" x2="246.83" y2="146.38"/><line x1="423.49" y1="153.70" x2="421.17" y2="151.13"/><line x1="142.66" y1="189.41" x2="107.72" y2="183.32"/><line x1="378.93" y1="344.27" x2="395.79" y2="341.48"/><line x1="96.42" y1="121.99" x2="97.83" y2="121.76"/><line x1="315.69" y1="338.59" x2="316.38" y2="335.49"/><line x1="128.39" y1="309.92" x2="130.55" y2="311.29"/><line x1="212.65" y1="198.81" x2="233.22" y2="185.55"/><line x1="303.01" y1="109.79" x2="304.40" y2="108.81"/><line x1="228.96" y1="163.12" x2="226.70" y2="130.81"/><line x1="219.69" y1="335.53" x2="220.22" y2="331.35"/><line x1="127.00" y1="206.38" x2="143.45" y2="193.56"/><line x1="161.85" y1="259.14" x2="183.49" y2="242.40"/><line x1="388.22" y1="127.80" x2="388.31" y2="127.51"/><line x1="97.83" y1="121.76" x2="98.94" y2="121.82"/><line x1="204.59" y1="213.58" x2="247.98" y2="259.19"/><line x1="171.81" y1="208.01" x2="177.55" y2="213.30"/><line x1="312.08" y1="153.24" x2="312.52" y2="151.47"/><line x1="130.55" y1="311.29" x2="132.73" y2="312.64"/><line x1="173.39" y1="329.40" x2="173.58" y2="358.51"/><line x1="190.38" y1="124.98" x2="191.84" y2="123.11"/><line x1="421.74" y1="200.96" x2="424.24" y2="201.66"/><line x1="146.51" y1="321.65" x2="148.24" y2="322.76"/><line x1="114.42" y1="190.99" x2="142.36" y2="190.02"/><line x1="183.49" y1="242.40" x2="157.90" y2="252.05"/><line x1="100.75" y1="175.66" x2="143.93" y2="188.24"/><line x1="373.01" y1="335.96" x2="370.98" y2="332.81"/><line x1="388.31" y1="127.51" x2="388.46" y2="127.28"/><line x1="290.71" y1="192.57" x2="273.47" y2="172.63"/><line x1="317.53" y1="325.86" x2="284.32" y2="334.55"/><line x1="148.24" y1="322.76" x2="149.92" y2="323.80"/><line x1="325.82" y1="235.55" x2="337.60" y2="281.54"/><line x1="177.55" y1="213.30" x2="183.69" y2="219.17"/><line x1="363.42" y1="320.73" x2="354.71" y2="307.20"/><line x1="173.58" y1="358.51" x2="174.74" y2="328.88"/><line x1="180.71" y1="318.94" x2="219.79" y2="316.50"/><line x1="247.31" y1="171.56" x2="262.77" y2="161.09"/><line x1="305.02" y1="354.96" x2="304.16" y2="354.88"/><line x1="143.93" y1="188.24" x2="144.22" y2="188.10"/><line x1="131.72" y1="330.40" x2="126.24" y2="308.52"/><line x1="405.36" y1="148.54" x2="423.49" y2="153.70"/><line x1="305.63" y1="193.50" x2="321.11" y2="184.00"/><line x1="284.32" y1="334.55" x2="317.60" y2="322.54"/><line x1="104.94" y1="123.78" x2="106.23" y2="124.50"/><line x1="178.74" y1="325.27" x2="179.42" y2="323.96"/><line x1="205.53" y1="186.11" x2="228.63" y2="173.78"/><line x1="228.48" y1="163.92" x2="201.78" y2="117.93"/><line x1="219.79" y1="316.50" x2="180.90" y2="316.90"/><line x1="148.90" y1="237.28" x2="163.30" y2="217.52"/><line x1="480.00" y1="32.02" x2="447.51" y2="32.02"/><line x1="403.42" y1="143.58" x2="407.06" y2="138.91"/><line x1="272.73" y1="319.64" x2="263.58" y2="308.09"/><line x1="106.23" y1="124.50" x2="107.57" y2="125.33"/><line x1="142.12" y1="338.55" x2="149.92" y2="323.80"/><line x1="216.62" y1="300.99" x2="214.96" y2="295.85"/><line x1="201.78" y1="117.93" x2="203.25" y2="118.10"/><line x1="275.33" y1="199.92" x2="268.93" y2="192.76"/><line x1="163.30" y1="217.52" x2="143.87" y2="229.61"/><line x1="366.17" y1="325.20" x2="404.52" y2="315.34"/><line x1="303.26" y1="354.64" x2="304.16" y2="354.88"/><line x1="204.59" y1="213.58" x2="171.81" y2="208.01"/><line x1="149.03" y1="343.57" x2="157.66" y2="327.88"/><line x1="220.48" y1="257.33" x2="228.74" y2="266.55"/><line x1="325.60" y1="148.83" x2="328.45" y2="149.90"/><line x1="184.29" y1="362.32" x2="177.02" y2="327.38"/><line x1="262.91" y1="186.35" x2="268.93" y2="192.76"/><line x1="80.84" y1="153.02" x2="80.04" y2="151.66"/><line x1="380.19" y1="345.53" x2="378.93" y2="344.27"/><line x1="208.95" y1="192.29" x2="229.22" y2="175.96"/><line x1="363.42" y1="320.73" x2="403.91" y2="309.53"/><line x1="227.95" y1="166.25" x2="228.15" y2="164.97"/><line x1="338.17" y1="115.25" x2="331.64" y2="151.29"/><line x1="301.64" y1="111.04" x2="303.01" y2="109.79"/><line x1="180.19" y1="306.49" x2="214.96" y2="295.85"/><line x1="405.36" y1="148.54" x2="434.27" y2="192.43"/><line x1="147.21" y1="198.58" x2="145.02" y2="195.76"/><line x1="300.28" y1="353.00" x2="299.21" y2="352.14"/><line x1="405.36" y1="148.54" x2="428.96" y2="164.62"/><line x1="388.19" y1="128.14" x2="388.22" y2="127.80"/><line x1="116.65" y1="132.35" x2="132.63" y2="146.32"/><line x1="131.72" y1="330.40" x2="134.91" y2="313.96"/><line x1="405.36" y1="148.54" x2="405.05" y2="147.26"/><line x1="228.48" y1="163.92" x2="185.36" y2="140.08"/><line x1="228.48" y1="163.92" x2="193.35" y2="121.53"/><line x1="299.28" y1="179.84" x2="297.44" y2="175.61"/><line x1="153.58" y1="244.76" x2="148.90" y2="237.28"/><line x1="219.20" y1="125.89" x2="228.96" y2="163.12"/><line x1="418.97" y1="199.98" x2="421.74" y2="200.96"/><line x1="228.48" y1="163.92" x2="209.70" y2="120.53"/><line x1="391.68" y1="132.00" x2="391.74" y2="127.85"/><line x1="291.21" y1="130.31" x2="292.15" y2="127.78"/><line x1="290.42" y1="156.98" x2="312.08" y2="153.24"/><line x1="339.01" y1="154.96" x2="369.37" y2="128.76"/><line x1="176.15" y1="291.30" x2="174.04" y2="285.47"/><line x1="82.94" y1="155.93" x2="81.80" y2="154.45"/><line x1="404.62" y1="146.00" x2="404.08" y2="144.77"/><line x1="292.74" y1="277.59" x2="247.98" y2="259.19"/><line x1="399.05" y1="334.82" x2="373.01" y2="335.96"/><line x1="162.37" y1="171.01" x2="150.74" y2="190.76"/><line x1="314.74" y1="168.91" x2="313.74" y2="165.74"/><line x1="204.59" y1="213.58" x2="197.22" y2="232.68"/><line x1="202.36" y1="180.28" x2="199.46" y2="174.79"/><line x1="163.67" y1="329.67" x2="165.26" y2="329.90"/><line x1="312.08" y1="153.24" x2="289.55" y2="153.69"/><line x1="317.18" y1="147.61" x2="315.87" y2="108.40"/><line x1="234.52" y1="136.48" x2="238.55" y2="139.60"/><line x1="257.26" y1="180.66" x2="262.91" y2="186.35"/><line x1="114.42" y1="190.99" x2="142.27" y2="190.34"/><line x1="404.08" y1="144.77" x2="403.42" y2="143.58"/><line x1="295.32" y1="348.19" x2="293.59" y2="346.19"/><line x1="373.01" y1="335.96" x2="400.53" y2="331.04"/><line x1="119.84" y1="304.16" x2="121.96" y2="305.64"/><line x1="297.44" y1="175.61" x2="295.74" y2="171.57"/><line x1="148.24" y1="322.76" x2="142.12" y2="338.55"/><line x1="215.99" y1="346.66" x2="217.58" y2="343.19"/><line x1="315.87" y1="108.40" x2="320.45" y2="109.47"/><line x1="231.17" y1="162.07" x2="233.40" y2="162.45"/><line x1="405.36" y1="148.54" x2="433.36" y2="200.00"/><line x1="432.50" y1="200.97" x2="433.36" y2="200.00"/><line x1="405.36" y1="148.54" x2="432.60" y2="181.51"/><line x1="305.02" y1="354.96" x2="303.26" y2="354.64"/><line x1="131.72" y1="330.40" x2="124.10" y2="307.09"/><line x1="405.36" y1="148.54" x2="425.32" y2="156.08"/><line x1="228.48" y1="163.92" x2="188.91" y2="152.60"/><line x1="288.10" y1="144.66" x2="288.00" y2="141.93"/><line x1="228.48" y1="163.92" x2="187.00" y2="131.20"/><line x1="182.34" y1="361.84" x2="184.29" y2="362.32"/><line x1="168.68" y1="272.74" x2="165.45" y2="266.03"/><line x1="228.48" y1="163.92" x2="199.98" y2="118.08"/><line x1="433.36" y1="200.00" x2="433.98" y2="198.76"/><line x1="480.00" y1="32.02" x2="480.00" y2="64.50"/><line x1="228.48" y1="163.92" x2="228.96" y2="163.12"/><line x1="346.10" y1="294.14" x2="337.60" y2="281.54"/><line x1="403.61" y1="320.99" x2="366.17" y2="325.20"/><line x1="81.80" y1="154.45" x2="80.84" y2="153.02"/><line x1="157.44" y1="195.79" x2="161.67" y2="199.24"/><line x1="315.24" y1="311.78" x2="314.19" y2="309.49"/><line x1="170.29" y1="330.00" x2="171.91" y2="329.78"/><line x1="288.00" y1="141.93" x2="288.06" y2="141.07"/><line x1="323.09" y1="148.07" x2="325.60" y2="148.83"/><line x1="239.35" y1="165.49" x2="243.08" y2="168.14"/><line x1="191.89" y1="253.70" x2="187.83" y2="248.15"/><line x1="216.62" y1="300.99" x2="180.19" y2="306.49"/><line x1="480.00" y1="479.91" x2="480.00" y2="447.42"/><line x1="399.66" y1="139.03" x2="398.38" y2="137.80"/><line x1="289.42" y1="341.10" x2="286.99" y2="338.01"/><line x1="366.17" y1="325.20" x2="404.17" y2="318.06"/><line x1="204.59" y1="213.58" x2="166.49" y2="203.32"/><line x1="145.12" y1="187.94" x2="113.41" y2="129.62"/><line x1="319.14" y1="179.82" x2="301.26" y2="184.22"/><line x1="115.00" y1="130.94" x2="116.65" y2="132.35"/><line x1="231.96" y1="182.97" x2="230.88" y2="180.55"/><line x1="149.03" y1="343.57" x2="156.21" y2="327.21"/><line x1="179.98" y1="322.46" x2="180.41" y2="320.79"/><line x1="325.60" y1="148.83" x2="338.17" y2="115.25"/><line x1="251.00" y1="149.99" x2="255.04" y2="153.64"/><line x1="434.01" y1="190.31" x2="433.64" y2="187.79"/><line x1="150.03" y1="202.04" x2="147.21" y2="198.58"/><line x1="102.21" y1="304.25" x2="131.72" y2="330.40"/><line x1="390.41" y1="127.11" x2="388.46" y2="127.28"/><line x1="114.42" y1="190.99" x2="107.72" y2="183.32"/><line x1="301.32" y1="353.70" x2="300.28" y2="353.00"/><line x1="312.52" y1="151.47" x2="313.25" y2="150.02"/><line x1="100.75" y1="175.66" x2="82.94" y2="155.93"/><line x1="208.95" y1="192.29" x2="229.97" y2="178.21"/><line x1="314.27" y1="148.90" x2="290.35" y2="132.77"/><line x1="220.40" y1="326.92" x2="220.24" y2="321.70"/><line x1="196.93" y1="362.12" x2="200.31" y2="361.09"/><line x1="405.36" y1="148.54" x2="426.47" y2="202.08"/><line x1="178.87" y1="236.47" x2="173.96" y2="230.35"/><line x1="433.64" y1="187.79" x2="433.17" y2="184.86"/><line x1="405.36" y1="148.54" x2="434.42" y2="194.14"/><line x1="447.51" y1="479.91" x2="480.00" y2="447.42"/><line x1="147.21" y1="198.58" x2="127.00" y2="206.38"/><line x1="78.79" y1="145.74" x2="79.23" y2="144.37"/><line x1="405.36" y1="148.54" x2="429.71" y2="167.41"/><line x1="304.09" y1="293.47" x2="300.75" y2="288.71"/><line x1="131.72" y1="330.40" x2="132.73" y2="312.64"/><line x1="405.36" y1="148.54" x2="415.09" y2="145.41"/><line x1="290.35" y1="132.77" x2="291.21" y2="130.31"/><line x1="264.02" y1="237.28" x2="260.98" y2="232.72"/><line x1="228.48" y1="163.92" x2="185.50" y2="141.78"/><line x1="200.31" y1="361.09" x2="203.48" y2="359.65"/><line x1="228.48" y1="163.92" x2="191.84" y2="123.11"/><line x1="153.58" y1="244.76" x2="168.77" y2="224.03"/><line x1="208.25" y1="280.39" x2="176.15" y2="291.30"/><line x1="252.04" y1="175.74" x2="257.26" y2="180.66"/><line x1="228.48" y1="163.92" x2="207.21" y2="119.40"/><line x1="392.39" y1="345.92" x2="382.82" y2="347.38"/><line x1="391.68" y1="132.00" x2="393.65" y2="129.08"/><line x1="79.23" y1="144.37" x2="79.97" y2="142.69"/><line x1="404.23" y1="310.39" x2="403.91" y2="309.53"/><line x1="197.22" y1="232.68" x2="204.60" y2="240.33"/><line x1="178.16" y1="360.46" x2="180.30" y2="361.22"/><line x1="162.12" y1="329.36" x2="163.67" y2="329.67"/><line x1="188.91" y1="152.60" x2="187.63" y2="149.30"/><line x1="339.01" y1="154.96" x2="361.09" y2="124.79"/><line x1="266.46" y1="164.89" x2="270.03" y2="168.73"/><line x1="176.15" y1="291.30" x2="205.49" y2="275.15"/><line x1="302.31" y1="354.25" x2="309.14" y2="353.06"/><line x1="142.20" y1="191.05" x2="114.42" y2="190.99"/><line x1="82.94" y1="155.93" x2="145.12" y2="187.94"/><line x1="145.12" y1="187.94" x2="94.91" y2="122.66"/><line x1="354.71" y1="307.20" x2="346.10" y2="294.14"/><line x1="296.82" y1="349.83" x2="295.32" y2="348.19"/><line x1="145.58" y1="341.10" x2="149.03" y2="343.57"/><line x1="145.12" y1="187.94" x2="106.23" y2="124.50"/><line x1="314.74" y1="168.91" x2="297.44" y2="175.61"/><line x1="162.37" y1="171.01" x2="148.28" y2="189.19"/><line x1="145.12" y1="187.94" x2="152.82" y2="162.84"/><line x1="163.67" y1="329.67" x2="159.29" y2="350.44"/><line x1="202.36" y1="180.28" x2="227.88" y2="167.76"/><line x1="180.96" y1="314.68" x2="180.77" y2="310.78"/><line x1="214.06" y1="349.89" x2="215.99" y2="346.66"/><line x1="234.52" y1="136.48" x2="231.17" y2="162.07"/><line x1="428.96" y1="164.62" x2="428.20" y2="162.17"/><line x1="390.41" y1="127.11" x2="388.31" y2="128.61"/><line x1="114.42" y1="190.99" x2="142.22" y2="190.69"/><line x1="199.46" y1="174.79" x2="227.95" y2="166.25"/><line x1="362.68" y1="252.04" x2="335.02" y2="209.27"/><line x1="390.41" y1="127.11" x2="389.65" y2="126.86"/><line x1="119.84" y1="304.16" x2="131.72" y2="330.40"/><line x1="242.22" y1="202.05" x2="240.06" y2="198.27"/><line x1="179.23" y1="301.81" x2="177.88" y2="296.75"/><line x1="405.36" y1="148.54" x2="412.63" y2="197.17"/><line x1="215.99" y1="346.66" x2="178.74" y2="325.27"/><line x1="195.68" y1="259.14" x2="168.68" y2="272.74"/><line x1="405.36" y1="148.54" x2="432.50" y2="200.97"/><line x1="395.79" y1="341.48" x2="376.38" y2="340.94"/><line x1="405.36" y1="148.54" x2="433.17" y2="184.86"/><line x1="316.38" y1="335.49" x2="316.92" y2="332.34"/><line x1="152.48" y1="345.96" x2="155.93" y2="348.27"/><line x1="89.79" y1="127.35" x2="91.60" y2="125.34"/><line x1="292.74" y1="163.97" x2="291.49" y2="160.40"/><line x1="131.72" y1="330.40" x2="121.96" y2="305.64"/><line x1="228.48" y1="163.92" x2="190.47" y2="156.29"/><line x1="165.51" y1="354.23" x2="170.29" y2="330.00"/><line x1="220.22" y1="331.35" x2="220.40" y2="326.92"/><line x1="185.77" y1="135.56" x2="186.28" y2="133.36"/><line x1="228.48" y1="163.92" x2="186.28" y2="133.36"/><line x1="168.68" y1="272.74" x2="191.89" y2="253.70"/><line x1="266.97" y1="241.60" x2="264.02" y2="237.28"/><line x1="228.48" y1="163.92" x2="198.24" y2="118.51"/><line x1="107.72" y1="183.32" x2="142.87" y2="189.12"/><line x1="317.44" y1="175.93" x2="315.98" y2="172.31"/><line x1="157.44" y1="195.79" x2="204.59" y2="213.58"/><line x1="177.94" y1="326.41" x2="211.78" y2="352.88"/><line x1="170.29" y1="330.00" x2="168.37" y2="355.84"/><line x1="177.02" y1="327.38" x2="203.48" y2="359.65"/><line x1="157.90" y1="252.05" x2="153.58" y2="244.76"/><line x1="339.01" y1="154.96" x2="374.58" y2="175.48"/><line x1="415.09" y1="145.41" x2="411.32" y2="142.26"/><line x1="145.12" y1="187.94" x2="85.86" y2="132.73"/><line x1="142.87" y1="189.12" x2="143.11" y2="188.85"/><line x1="239.35" y1="165.49" x2="251.00" y2="149.99"/><line x1="480.00" y1="479.91" x2="447.51" y2="479.91"/><line x1="145.12" y1="187.94" x2="100.08" y2="121.99"/><line x1="320.89" y1="257.78" x2="312.69" y2="246.61"/><line x1="275.33" y1="199.92" x2="273.47" y2="172.63"/><line x1="145.12" y1="187.94" x2="111.87" y2="128.41"/><line x1="174.74" y1="328.88" x2="178.16" y2="360.46"/><line x1="231.96" y1="182.97" x2="208.95" y2="192.29"/><line x1="179.98" y1="322.46" x2="220.40" y2="326.92"/><line x1="159.75" y1="168.65" x2="162.37" y2="171.01"/><line x1="102.21" y1="304.25" x2="119.84" y2="304.16"/><line x1="390.41" y1="127.11" x2="388.31" y2="127.51"/><line x1="100.08" y1="121.99" x2="101.25" y2="122.27"/><line x1="404.45" y1="311.23" x2="404.23" y2="310.39"/><line x1="312.52" y1="151.47" x2="288.38" y2="147.53"/><line x1="134.91" y1="313.96" x2="146.51" y2="321.65"/><line x1="180.90" y1="316.90" x2="180.96" y2="314.68"/><line x1="193.35" y1="121.53" x2="194.93" y2="120.23"/><line x1="353.10" y1="121.22" x2="339.01" y2="154.96"/><line x1="405.36" y1="148.54" x2="424.24" y2="201.66"/><line x1="407.06" y1="138.91" x2="401.77" y2="141.27"/><line x1="178.87" y1="236.47" x2="153.58" y2="244.76"/><line x1="144.51" y1="188.01" x2="144.81" y2="187.95"/><line x1="370.98" y1="332.81" x2="368.69" y2="329.22"/><line x1="405.36" y1="148.54" x2="434.47" y2="195.44"/><line x1="190.25" y1="225.63" x2="197.22" y2="232.68"/><line x1="315.98" y1="172.31" x2="314.74" y2="168.91"/><line x1="315.58" y1="148.09" x2="300.31" y2="112.58"/><line x1="319.07" y1="147.45" x2="320.91" y2="147.61"/><line x1="87.87" y1="129.81" x2="89.79" y2="127.35"/><line x1="228.22" y1="171.69" x2="227.96" y2="169.68"/><line x1="219.04" y1="311.32" x2="217.98" y2="306.15"/><line x1="228.48" y1="163.92" x2="185.93" y2="143.90"/><line x1="252.04" y1="175.74" x2="266.46" y2="164.89"/><line x1="392.39" y1="345.92" x2="384.19" y2="347.95"/><line x1="107.72" y1="183.32" x2="100.75" y2="175.66"/><line x1="321.11" y1="184.00" x2="303.37" y2="188.78"/><line x1="151.56" y1="324.77" x2="153.15" y2="325.66"/><line x1="177.02" y1="327.38" x2="187.91" y2="362.87"/><line x1="325.69" y1="110.97" x2="331.60" y2="112.89"/><line x1="295.31" y1="120.69" x2="296.48" y2="118.50"/><line x1="157.55" y1="210.83" x2="153.47" y2="206.12"/><line x1="145.12" y1="187.94" x2="79.23" y2="144.37"/><line x1="302.31" y1="354.25" x2="307.82" y2="354.11"/><line x1="145.12" y1="187.94" x2="93.31" y2="123.78"/><line x1="296.72" y1="225.80" x2="289.22" y2="216.44"/><line x1="145.12" y1="187.94" x2="104.94" y2="123.78"/><line x1="145.12" y1="187.94" x2="132.63" y2="146.32"/><line x1="319.14" y1="179.82" x2="317.44" y2="175.93"/><line x1="296.48" y1="118.50" x2="297.71" y2="116.41"/><line x1="411.32" y1="142.26" x2="407.06" y2="138.91"/><line x1="214.96" y1="295.85" x2="212.99" y2="290.72"/><line x1="396.93" y1="136.48" x2="395.34" y2="135.08"/><line x1="390.41" y1="127.11" x2="388.45" y2="128.89"/><line x1="282.09" y1="207.81" x2="275.33" y2="199.92"/><line x1="307.77" y1="212.87" x2="290.71" y2="192.57"/><line x1="390.41" y1="127.11" x2="389.26" y2="126.89"/><line x1="312.39" y1="160.08" x2="292.74" y2="163.97"/><line x1="157.66" y1="327.88" x2="159.11" y2="328.46"/><line x1="196.82" y1="169.64" x2="194.43" y2="164.84"/><line x1="179.23" y1="301.81" x2="210.75" y2="285.58"/><line x1="405.36" y1="148.54" x2="409.05" y2="195.35"/><line x1="390.64" y1="347.30" x2="385.60" y2="348.30"/><line x1="399.20" y1="133.01" x2="396.13" y2="130.79"/><line x1="323.36" y1="188.47" x2="321.11" y2="184.00"/><line x1="310.41" y1="351.58" x2="311.61" y2="349.68"/><line x1="404.63" y1="312.84" x2="404.58" y2="312.05"/><line x1="395.79" y1="341.48" x2="377.70" y2="342.77"/><line x1="316.38" y1="335.49" x2="289.42" y2="341.10"/><line x1="315.58" y1="148.09" x2="294.20" y2="122.96"/><line x1="152.48" y1="345.96" x2="160.60" y2="328.96"/><line x1="292.74" y1="163.97" x2="312.06" y2="157.59"/><line x1="203.48" y1="359.65" x2="206.44" y2="357.81"/><line x1="331.64" y1="151.29" x2="335.16" y2="152.97"/><line x1="304.40" y1="108.81" x2="305.81" y2="108.11"/><line x1="315.58" y1="148.09" x2="305.81" y2="108.11"/><line x1="247.98" y1="259.19" x2="212.65" y2="198.81"/><line x1="220.22" y1="331.35" x2="179.98" y2="322.46"/><line x1="228.48" y1="163.92" x2="192.31" y2="160.38"/><line x1="391.74" y1="127.85" x2="388.92" y2="129.55"/><line x1="418.38" y1="148.37" x2="415.09" y2="145.41"/><line x1="299.21" y1="352.14" x2="298.08" y2="351.11"/><line x1="377.70" y1="342.77" x2="376.38" y2="340.94"/><line x1="313.25" y1="150.02" x2="288.26" y2="139.94"/><line x1="132.73" y1="312.64" x2="134.91" y2="313.96"/><line x1="177.94" y1="326.41" x2="209.21" y2="355.55"/><line x1="305.81" y1="108.11" x2="307.24" y2="107.69"/><line x1="177.02" y1="327.38" x2="200.31" y2="361.09"/><line x1="226.70" y1="130.81" x2="230.58" y2="133.55"/><line x1="145.12" y1="187.94" x2="79.44" y2="150.36"/><line x1="157.90" y1="252.05" x2="178.87" y2="236.47"/><line x1="145.12" y1="187.94" x2="83.95" y2="135.70"/><line x1="388.46" y1="127.28" x2="388.67" y2="127.09"/><line x1="145.12" y1="187.94" x2="98.94" y2="121.82"/><line x1="429.71" y1="167.41" x2="428.96" y2="164.62"/><line x1="289.55" y1="153.69" x2="312.52" y2="151.47"/><line x1="145.12" y1="187.94" x2="110.38" y2="127.29"/><line x1="174.74" y1="328.88" x2="175.94" y2="359.57"/><line x1="402.84" y1="135.71" x2="399.20" y2="133.01"/><line x1="174.04" y1="285.47" x2="171.55" y2="279.25"/><line x1="426.47" y1="202.08" x2="428.43" y2="202.22"/><line x1="394.10" y1="343.97" x2="378.93" y2="344.27"/><line x1="400.53" y1="331.04" x2="370.98" y2="332.81"/><line x1="150.74" y1="190.76" x2="153.80" y2="192.96"/><line x1="307.77" y1="212.87" x2="296.72" y2="225.80"/><line x1="317.60" y1="322.54" x2="317.51" y2="320.48"/><line x1="312.52" y1="151.47" x2="288.87" y2="150.54"/><line x1="388.66" y1="129.21" x2="390.41" y2="127.11"/><line x1="238.55" y1="139.60" x2="242.65" y2="142.89"/><line x1="180.90" y1="316.90" x2="219.04" y2="311.32"/><line x1="407.06" y1="138.91" x2="402.66" y2="142.41"/><line x1="370.98" y1="332.81" x2="401.78" y2="327.48"/><line x1="395.94" y1="143.01" x2="405.36" y2="148.54"/><line x1="165.13" y1="173.57" x2="168.03" y2="176.34"/><line x1="247.98" y1="259.19" x2="263.58" y2="308.09"/><line x1="149.92" y1="323.80" x2="151.56" y2="324.77"/><line x1="247.98" y1="259.19" x2="242.22" y2="202.05"/><line x1="315.58" y1="148.09" x2="298.99" y2="114.41"/><line x1="228.22" y1="171.69" x2="202.36" y2="180.28"/><line x1="319.07" y1="147.45" x2="325.69" y2="110.97"/><line x1="233.40" y1="162.45" x2="236.13" y2="163.59"/><line x1="315.58" y1="148.09" x2="317.18" y2="147.61"/><line x1="272.73" y1="319.64" x2="292.74" y2="277.59"/><line x1="108.95" y1="126.26" x2="110.38" y2="127.29"/><line x1="313.25" y1="150.02" x2="314.27" y2="148.90"/><line x1="421.17" y1="151.13" x2="418.38" y2="148.37"/><line x1="177.02" y1="327.38" x2="186.14" y2="362.66"/><line x1="243.08" y1="168.14" x2="247.31" y2="171.56"/><line x1="177.94" y1="326.41" x2="178.74" y2="325.27"/><line x1="205.06" y1="118.58" x2="207.21" y2="119.40"/><line x1="434.35" y1="197.24" x2="434.47" y2="195.44"/><line x1="145.12" y1="187.94" x2="78.79" y2="145.74"/><line x1="286.99" y1="338.01" x2="284.32" y2="334.55"/><line x1="145.12" y1="187.94" x2="91.60" y2="125.34"/><line x1="312.96" y1="307.16" x2="311.41" y2="304.54"/><line x1="237.19" y1="276.25" x2="245.81" y2="286.40"/><line x1="288.26" y1="139.94" x2="288.59" y2="138.54"/><line x1="98.94" y1="121.82" x2="100.08" y2="121.99"/><line x1="411.32" y1="142.26" x2="403.42" y2="143.58"/><line x1="214.96" y1="295.85" x2="179.23" y2="301.81"/><line x1="396.93" y1="136.48" x2="399.20" y2="133.01"/><line x1="325.82" y1="235.55" x2="305.63" y2="193.50"/><line x1="79.44" y1="150.36" x2="78.99" y2="149.11"/><line x1="424.24" y1="201.66" x2="426.47" y2="202.08"/><line x1="191.84" y1="123.11" x2="193.35" y2="121.53"/><line x1="157.66" y1="327.88" x2="152.48" y2="345.96"/><line x1="196.82" y1="169.64" x2="228.48" y2="163.92"/><line x1="183.69" y1="219.17" x2="190.25" y2="225.63"/><line x1="284.32" y1="334.55" x2="309.42" y2="301.38"/><line x1="390.64" y1="347.30" x2="388.86" y2="348.14"/><line x1="310.41" y1="351.58" x2="299.21" y2="352.14"/><line x1="247.98" y1="259.19" x2="220.48" y2="257.33"/><line x1="152.82" y1="162.84" x2="154.98" y2="164.57"/><line x1="262.77" y1="161.09" x2="252.04" y2="175.74"/><line x1="175.94" y1="328.20" x2="184.29" y2="362.32"/><line x1="247.98" y1="259.19" x2="257.86" y2="227.90"/><line x1="315.58" y1="148.09" x2="293.15" y2="125.32"/><line x1="144.22" y1="188.10" x2="144.51" y2="188.01"/><line x1="203.48" y1="359.65" x2="177.94" y2="326.41"/><line x1="247.98" y1="259.19" x2="234.66" y2="188.38"/><line x1="315.58" y1="148.09" x2="304.40" y2="108.81"/><line x1="222.91" y1="128.26" x2="226.70" y2="130.81"/><line x1="391.74" y1="127.85" x2="389.24" y2="129.92"/><line x1="320.45" y1="109.47" x2="319.07" y2="147.45"/><line x1="145.02" y1="195.76" x2="143.45" y2="193.56"/><line x1="228.63" y1="173.78" x2="228.22" y2="171.69"/><line x1="313.25" y1="150.02" x2="288.06" y2="141.07"/><line x1="159.29" y1="350.44" x2="166.88" y2="330.03"/><line x1="257.86" y1="227.90" x2="254.66" y2="222.82"/><line x1="107.57" y1="125.33" x2="108.95" y2="126.26"/><line x1="177.02" y1="327.38" x2="196.93" y2="362.12"/><line x1="145.12" y1="187.94" x2="80.04" y2="151.66"/><line x1="382.82" y1="347.38" x2="381.48" y2="346.57"/><line x1="289.22" y1="216.44" x2="282.09" y2="207.81"/><line x1="313.86" y1="344.61" x2="314.85" y2="341.63"/><line x1="81.00" y1="140.68" x2="82.33" y2="138.35"/><line x1="145.12" y1="187.94" x2="82.33" y2="138.35"/><line x1="203.25" y1="118.10" x2="205.06" y2="118.58"/><line x1="313.74" y1="165.74" x2="312.95" y2="162.80"/><line x1="143.87" y1="229.61" x2="157.55" y2="210.83"/><line x1="331.60" y1="112.89" x2="338.17" y2="115.25"/><line x1="186.64" y1="146.40" x2="185.93" y2="143.90"/><line x1="174.04" y1="285.47" x2="202.48" y2="269.86"/><line x1="228.74" y1="266.55" x2="237.19" y2="276.25"/><line x1="394.10" y1="343.97" x2="380.19" y2="345.53"/><line x1="325.82" y1="235.55" x2="320.89" y2="257.78"/><line x1="293.59" y1="346.19" x2="291.62" y2="343.82"/><line x1="150.74" y1="190.76" x2="165.13" y2="173.57"/><line x1="80.04" y1="151.66" x2="79.44" y2="150.36"/><line x1="132.89" y1="214.10" x2="127.00" y2="206.38"/><line x1="238.55" y1="139.60" x2="233.40" y2="162.45"/><line x1="284.32" y1="334.55" x2="316.09" y2="314.02"/><line x1="309.14" y1="353.06" x2="310.41" y2="351.58"/><line x1="142.27" y1="190.34" x2="142.36" y2="190.02"/><line x1="228.15" y1="164.97" x2="196.82" y2="169.64"/><line x1="480.00" y1="64.50" x2="447.51" y2="32.02"/><line x1="335.02" y1="209.27" x2="331.70" y2="203.63"/><line x1="247.98" y1="259.19" x2="254.61" y2="297.01"/><line x1="168.37" y1="355.84" x2="171.05" y2="357.27"/><line x1="238.08" y1="194.73" x2="236.28" y2="191.44"/><line x1="247.98" y1="259.19" x2="244.56" y2="206.07"/><line x1="315.58" y1="148.09" x2="297.71" y2="116.41"/><line x1="132.63" y1="146.32" x2="152.82" y2="162.84"/><line x1="165.45" y1="266.03" x2="161.85" y2="259.14"/><line x1="272.73" y1="319.64" x2="296.97" y2="283.42"/><line x1="316.92" y1="332.34" x2="317.30" y2="329.13"/><line x1="228.96" y1="163.12" x2="222.91" y2="128.26"/><line x1="404.17" y1="318.06" x2="404.52" y2="315.34"/><line x1="291.49" y1="160.40" x2="290.42" y2="156.98"/><line x1="127.00" y1="206.38" x2="145.02" y2="195.76"/><line x1="313.25" y1="150.02" x2="289.63" y2="134.96"/><line x1="171.91" y1="329.78" x2="173.39" y2="329.40"/><line x1="292.74" y1="277.59" x2="266.97" y2="241.60"/><line x1="187.00" y1="131.20" x2="187.92" y2="129.09"/><line x1="243.08" y1="168.14" x2="258.97" y2="157.34"/><line x1="405.05" y1="147.26" x2="404.62" y2="146.00"/><line x1="260.98" y1="232.72" x2="257.86" y2="227.90"/><line x1="397.43" y1="338.43" x2="399.05" y2="334.82"/><line x1="146.40" y1="188.25" x2="148.28" y2="189.19"/><line x1="286.99" y1="338.01" x2="317.53" y2="325.86"/><line x1="205.49" y1="275.15" x2="202.48" y2="269.86"/><line x1="155.93" y1="348.27" x2="159.29" y2="350.44"/><line x1="146.51" y1="321.65" x2="138.66" y2="335.91"/><line x1="290.71" y1="192.57" x2="282.09" y2="207.81"/><line x1="79.97" y1="142.69" x2="81.00" y2="140.68"/><line x1="180.41" y1="320.79" x2="180.71" y2="318.94"/><line x1="328.45" y1="149.90" x2="331.64" y2="151.29"/><line x1="411.32" y1="142.26" x2="404.08" y2="144.77"/><line x1="325.82" y1="235.55" x2="335.02" y2="209.27"/><line x1="187.63" y1="149.30" x2="186.64" y2="146.40"/><line x1="363.42" y1="320.73" x2="325.82" y2="235.55"/><line x1="325.82" y1="235.55" x2="304.58" y2="235.90"/><line x1="432.60" y1="181.51" x2="431.93" y2="177.77"/><line x1="368.69" y1="329.22" x2="366.17" y2="325.20"/><line x1="284.32" y1="334.55" x2="311.41" y2="304.54"/><line x1="178.74" y1="325.27" x2="218.81" y2="339.48"/><line x1="403.91" y1="309.53" x2="403.51" y2="308.65"/><line x1="247.98" y1="259.19" x2="212.39" y2="248.57"/><line x1="296.97" y1="283.42" x2="292.74" y2="277.59"/><line x1="175.94" y1="328.20" x2="182.34" y2="361.84"/><line x1="247.98" y1="259.19" x2="260.98" y2="232.72"/><line x1="247.98" y1="259.19" x2="236.28" y2="191.44"/><line x1="391.74" y1="127.85" x2="389.61" y2="130.32"/><line x1="303.37" y1="188.78" x2="301.26" y2="184.22"/><line x1="433.98" y1="198.76" x2="434.35" y2="197.24"/><line x1="159.29" y1="350.44" x2="165.26" y2="329.90"/><line x1="217.98" y1="306.15" x2="216.62" y2="300.99"/><line x1="369.37" y1="128.76" x2="377.94" y2="133.12"/><line x1="314.19" y1="309.49" x2="312.96" y2="307.16"/><line x1="400.78" y1="140.16" x2="399.66" y2="139.03"/><line x1="288.06" y1="141.07" x2="288.26" y2="139.94"/><line x1="382.82" y1="347.38" x2="394.10" y2="343.97"/><line x1="289.22" y1="216.44" x2="290.71" y2="192.57"/><line x1="313.86" y1="344.61" x2="293.59" y2="346.19"/><line x1="398.38" y1="137.80" x2="396.93" y2="136.48"/><line x1="331.60" y1="112.89" x2="325.60" y2="148.83"/><line x1="153.47" y1="206.12" x2="150.03" y2="202.04"/><line x1="427.43" y1="160.05" x2="426.65" y2="158.26"/><line x1="156.21" y1="327.21" x2="157.66" y2="327.88"/><line x1="363.42" y1="320.73" x2="404.23" y2="310.39"/><line x1="325.82" y1="235.55" x2="328.65" y2="198.29"/><line x1="338.17" y1="115.25" x2="328.45" y2="149.90"/><line x1="121.96" y1="305.64" x2="124.10" y2="307.09"/><line x1="298.99" y1="114.41" x2="300.31" y2="112.58"/><line x1="300.28" y1="353.00" x2="310.41" y2="351.58"/><line x1="396.13" y1="130.79" x2="393.65" y2="129.08"/><line x1="284.32" y1="334.55" x2="316.75" y2="316.21"/><line x1="376.38" y1="340.94" x2="374.82" y2="338.67"/><line x1="388.31" y1="128.61" x2="388.22" y2="128.36"/><line x1="299.28" y1="179.84" x2="314.74" y2="168.91"/><line x1="433.17" y1="184.86" x2="432.60" y2="181.51"/><line x1="247.98" y1="259.19" x2="245.81" y2="286.40"/><line x1="168.37" y1="355.84" x2="171.91" y2="329.78"/><line x1="412.63" y1="197.17" x2="415.93" y2="198.71"/><line x1="300.75" y1="288.71" x2="296.97" y2="283.42"/><line x1="120.84" y1="198.67" x2="114.42" y2="190.99"/><line x1="291.21" y1="130.31" x2="315.58" y2="148.09"/><line x1="157.29" y1="166.50" x2="159.75" y2="168.65"/><line x1="316.92" y1="332.34" x2="286.99" y2="338.01"/><line x1="291.49" y1="160.40" x2="311.94" y2="155.33"/><line x1="393.65" y1="129.08" x2="391.74" y2="127.85"/><line x1="204.59" y1="213.58" x2="190.25" y2="225.63"/><line x1="243.08" y1="168.14" x2="255.04" y2="153.64"/><line x1="405.05" y1="147.26" x2="411.32" y2="142.26"/><line x1="402.43" y1="306.82" x2="362.68" y2="252.04"/><line x1="361.09" y1="124.79" x2="369.37" y2="128.76"/><line x1="257.26" y1="180.66" x2="273.47" y2="172.63"/><line x1="312.69" y1="246.61" x2="304.58" y2="235.90"/><line x1="205.49" y1="275.15" x2="174.04" y2="285.47"/><line x1="146.51" y1="321.65" x2="135.19" y2="333.20"/><line x1="308.69" y1="107.54" x2="311.95" y2="107.76"/><line x1="295.32" y1="348.19" x2="313.86" y2="344.61"/><line x1="171.55" y1="279.25" x2="168.68" y2="272.74"/><line x1="148.28" y1="189.19" x2="150.74" y2="190.76"/><line x1="297.44" y1="175.61" x2="313.74" y2="165.74"/><line x1="230.58" y1="133.55" x2="234.52" y2="136.48"/><line x1="32.16" y1="32.09" x2="32.16" y2="64.58"/><line x1="325.82" y1="235.55" x2="346.10" y2="294.14"/><line x1="388.94" y1="126.96" x2="389.26" y2="126.89"/><line x1="153.80" y1="192.96" x2="157.44" y2="195.79"/><line x1="363.42" y1="320.73" x2="402.43" y2="306.82"/><line x1="231.17" y1="162.07" x2="238.55" y2="139.60"/><line x1="428.20" y1="162.17" x2="427.43" y2="160.05"/><line x1="288.38" y1="147.53" x2="288.10" y2="144.66"/><line x1="142.22" y1="190.69" x2="142.27" y2="190.34"/><line x1="374.58" y1="175.48" x2="409.05" y2="195.35"/><line x1="196.56" y1="119.23" x2="198.24" y2="118.51"/><line x1="430.03" y1="202.08" x2="431.40" y2="201.66"/><line x1="405.36" y1="148.54" x2="426.65" y2="158.26"/><line x1="240.06" y1="198.27" x2="238.08" y2="194.73"/><line x1="297.71" y1="116.41" x2="298.99" y2="114.41"/><line x1="291.62" y1="343.82" x2="289.42" y2="341.10"/><line x1="368.69" y1="329.22" x2="403.61" y2="320.99"/><line x1="284.32" y1="334.55" x2="312.96" y2="307.16"/><line x1="178.74" y1="325.27" x2="217.58" y2="343.19"/><line x1="317.22" y1="318.37" x2="316.75" y2="316.21"/><line x1="388.45" y1="128.89" x2="388.31" y2="128.61"/><line x1="179.42" y1="323.96" x2="179.98" y2="322.46"/><line x1="228.48" y1="163.92" x2="219.20" y2="125.89"/><line x1="320.91" y1="147.61" x2="323.09" y2="148.07"/><line x1="91.60" y1="125.34" x2="93.31" y2="123.78"/><line x1="312.06" y1="157.59" x2="311.94" y2="155.33"/><line x1="186.28" y1="133.36" x2="187.00" y2="131.20"/><line x1="409.05" y1="195.35" x2="412.63" y2="197.17"/><line x1="303.37" y1="188.78" x2="319.14" y2="179.82"/><line x1="191.89" y1="253.70" x2="165.45" y2="266.03"/><line x1="212.65" y1="198.81" x2="208.95" y2="192.29"/><line x1="227.96" y1="169.68" x2="227.88" y2="167.76"/><line x1="289.42" y1="341.10" x2="316.92" y2="332.34"/><line x1="204.59" y1="213.58" x2="161.67" y2="199.24"/><line x1="251.00" y1="149.99" x2="243.08" y2="168.14"/><line x1="143.11" y1="188.85" x2="143.37" y2="188.61"/><line x1="114.42" y1="190.99" x2="142.66" y2="189.41"/><line x1="325.87" y1="193.24" x2="323.36" y2="188.47"/><line x1="209.70" y1="120.53" x2="212.53" y2="122.00"/><line x1="100.75" y1="175.66" x2="144.51" y2="188.01"/><line x1="395.34" y1="135.08" x2="393.58" y2="133.58"/><line x1="208.95" y1="192.29" x2="230.88" y2="180.55"/><line x1="304.58" y1="235.90" x2="296.72" y2="225.80"/><line x1="229.56" y1="162.54" x2="230.30" y2="162.19"/><line x1="363.42" y1="320.73" x2="404.45" y2="311.23"/><line x1="220.40" y1="326.92" x2="180.41" y2="320.79"/><line x1="254.61" y1="297.01" x2="263.58" y2="308.09"/><line x1="345.40" y1="118.02" x2="353.10" y2="121.22"/><line x1="101.25" y1="122.27" x2="102.45" y2="122.66"/><line x1="405.36" y1="148.54" x2="430.46" y2="170.53"/><line x1="210.75" y1="285.58" x2="208.25" y2="280.39"/><line x1="305.02" y1="354.96" x2="306.44" y2="354.75"/><line x1="131.72" y1="330.40" x2="130.55" y2="311.29"/><line x1="405.36" y1="148.54" x2="418.38" y2="148.37"/><line x1="305.63" y1="193.50" x2="303.37" y2="188.78"/><line x1="311.61" y1="349.68" x2="312.77" y2="347.36"/><line x1="194.93" y1="120.23" x2="196.56" y2="119.23"/><line x1="376.38" y1="340.94" x2="397.43" y2="338.43"/><line x1="228.48" y1="163.92" x2="190.38" y2="124.98"/><line x1="299.28" y1="179.84" x2="315.98" y2="172.31"/><line x1="153.58" y1="244.76" x2="173.96" y2="230.35"/><line x1="205.53" y1="186.11" x2="202.36" y2="180.28"/><line x1="160.60" y1="328.96" x2="162.12" y2="329.36"/><line x1="401.78" y1="327.48" x2="402.81" y2="324.12"/><line x1="228.48" y1="163.92" x2="205.06" y2="118.58"/><line x1="194.43" y1="164.84" x2="192.31" y2="160.38"/><line x1="197.22" y1="232.68" x2="247.98" y2="259.19"/><line x1="120.84" y1="198.67" x2="142.20" y2="191.05"/><line x1="178.16" y1="360.46" x2="175.94" y2="328.20"/><line x1="142.12" y1="338.55" x2="145.58" y2="341.10"/><line x1="157.29" y1="166.50" x2="146.40" y2="188.25"/><line x1="266.46" y1="164.89" x2="257.26" y2="180.66"/><line x1="82.94" y1="155.93" x2="144.81" y2="187.95"/><line x1="384.19" y1="347.95" x2="382.82" y2="347.38"/><line x1="145.58" y1="341.10" x2="154.70" y2="326.47"/><line x1="366.17" y1="325.20" x2="363.42" y2="320.73"/><line x1="204.59" y1="213.58" x2="183.69" y2="219.17"/><line x1="202.36" y1="180.28" x2="227.96" y2="169.68"/><line x1="180.96" y1="314.68" x2="217.98" y2="306.15"/><line x1="108.33" y1="295.91" x2="119.84" y2="304.16"/><line x1="32.00" y1="479.98" x2="64.49" y2="479.98"/><line x1="138.51" y1="221.85" x2="132.89" y2="214.10"/><line x1="257.26" y1="180.66" x2="270.03" y2="168.73"/><line x1="386.80" y1="137.87" x2="395.94" y2="143.01"/><line x1="110.38" y1="127.29" x2="111.87" y2="128.41"/><line x1="171.55" y1="279.25" x2="195.68" y2="259.14"/><line x1="301.26" y1="184.22" x2="299.28" y2="179.84"/><line x1="207.21" y1="119.40" x2="209.70" y2="120.53"/><line x1="153.80" y1="192.96" x2="171.10" y2="179.33"/><line x1="312.95" y1="162.80" x2="312.39" y2="160.08"/><line x1="405.36" y1="148.54" x2="431.40" y2="201.66"/><line x1="162.48" y1="352.43" x2="165.51" y2="354.23"/><line x1="405.36" y1="148.54" x2="433.64" y2="187.79"/><line x1="405.36" y1="148.54" x2="427.43" y2="160.05"/><line x1="291.62" y1="343.82" x2="316.38" y2="335.49"/><line x1="131.72" y1="330.40" x2="135.19" y2="333.20"/><line x1="228.48" y1="163.92" x2="185.77" y2="135.56"/><line x1="234.66" y1="188.38" x2="233.22" y2="185.55"/><line x1="228.48" y1="163.92" x2="196.56" y2="119.23"/><line x1="179.42" y1="323.96" x2="220.22" y2="331.35"/><line x1="228.48" y1="163.92" x2="215.69" y2="123.78"/><line x1="312.06" y1="157.59" x2="291.49" y2="160.40"/><line x1="306.44" y1="354.75" x2="307.82" y2="354.11"/><line x1="143.45" y1="193.56" x2="142.51" y2="191.99"/><line x1="339.01" y1="154.96" x2="386.80" y2="137.87"/><line x1="415.09" y1="145.41" x2="405.05" y2="147.26"/><line x1="161.85" y1="259.14" x2="157.90" y2="252.05"/><line x1="307.24" y1="107.69" x2="308.69" y2="107.54"/><line x1="145.12" y1="187.94" x2="146.40" y2="188.25"/><line x1="309.42" y1="301.38" x2="306.97" y2="297.69"/><line x1="317.18" y1="147.61" x2="319.07" y2="147.45"/><line x1="173.39" y1="329.40" x2="174.74" y2="328.88"/><line x1="388.67" y1="127.09" x2="388.94" y2="126.96"/><line x1="102.21" y1="304.25" x2="102.21" y2="291.61"/><line x1="390.41" y1="127.11" x2="388.22" y2="127.80"/><line x1="114.42" y1="190.99" x2="142.50" y2="189.71"/><line x1="100.75" y1="175.66" x2="144.22" y2="188.10"/><line x1="395.34" y1="135.08" x2="396.13" y2="130.79"/><line x1="175.94" y1="359.57" x2="178.16" y2="360.46"/><line x1="317.53" y1="325.86" x2="317.60" y2="322.54"/><line x1="202.48" y1="269.86" x2="199.21" y2="264.52"/><line x1="428.43" y1="202.22" x2="430.03" y2="202.08"/><line x1="229.56" y1="162.54" x2="230.58" y2="133.55"/><line x1="405.36" y1="148.54" x2="421.74" y2="200.96"/><line x1="144.51" y1="188.01" x2="82.94" y2="155.93"/><line x1="405.36" y1="148.54" x2="434.35" y2="197.24"/><line x1="180.71" y1="318.94" x2="180.90" y2="316.90"/><line x1="317.51" y1="320.48" x2="317.22" y2="318.37"/><line x1="166.88" y1="330.03" x2="168.53" y2="330.08"/><line x1="405.36" y1="148.54" x2="431.20" y2="173.98"/><line x1="288.87" y1="150.54" x2="288.38" y2="147.53"/><line x1="305.02" y1="354.96" x2="302.31" y2="354.25"/><line x1="131.72" y1="330.40" x2="128.39" y2="309.92"/><line x1="405.36" y1="148.54" x2="421.17" y2="151.13"/><line x1="228.48" y1="163.92" x2="186.64" y2="146.40"/><line x1="311.61" y1="349.68" x2="298.08" y2="351.11"/><line x1="219.04" y1="311.32" x2="180.96" y2="314.68"/><line x1="228.48" y1="163.92" x2="189.05" y2="127.01"/><line x1="402.66" y1="142.41" x2="401.77" y2="141.27"/><line x1="314.85" y1="341.63" x2="315.69" y2="338.59"/><line x1="272.73" y1="319.64" x2="247.98" y2="259.19"/><line x1="401.78" y1="327.48" x2="368.69" y2="329.22"/><line x1="228.48" y1="163.92" x2="203.25" y2="118.10"/><line x1="107.72" y1="183.32" x2="143.65" y2="188.40"/><line x1="148.90" y1="237.28" x2="143.87" y2="229.61"/><line x1="431.20" y1="173.98" x2="430.46" y2="170.53"/><line x1="151.56" y1="324.77" x2="145.58" y2="341.10"/><line x1="218.81" y1="339.48" x2="219.69" y2="335.53"/><line x1="325.69" y1="110.97" x2="320.91" y2="147.61"/><line x1="242.65" y1="142.89" x2="246.83" y2="146.38"/><line x1="157.55" y1="210.83" x2="138.51" y2="221.85"/><line x1="302.31" y1="354.25" x2="306.44" y2="354.75"/><line x1="145.12" y1="187.94" x2="103.68" y2="123.16"/><line x1="145.58" y1="341.10" x2="153.15" y2="325.66"/><line x1="366.17" y1="325.20" x2="404.63" y2="312.84"/><line x1="389.24" y1="129.92" x2="388.92" y2="129.55"/><line x1="186.14" y1="362.66" x2="187.91" y2="362.87"/><line x1="187.83" y1="248.15" x2="183.49" y2="242.40"/><line x1="145.12" y1="187.94" x2="116.65" y2="132.35"/><line x1="434.47" y1="195.44" x2="434.42" y2="194.14"/><line x1="149.03" y1="343.57" x2="152.48" y2="345.96"/><line x1="138.51" y1="221.85" x2="153.47" y2="206.12"/><line x1="32.00" y1="479.98" x2="32.00" y2="447.50"/><line x1="386.80" y1="137.87" x2="374.58" y2="175.48"/><line x1="311.41" y1="304.54" x2="309.42" y2="301.38"/><line x1="390.41" y1="127.11" x2="388.94" y2="126.96"/><line x1="288.59" y1="138.54" x2="289.05" y2="136.88"/><line x1="245.81" y1="286.40" x2="254.61" y2="297.01"/><line x1="187.91" y1="362.87" x2="189.58" y2="362.94"/><line x1="301.26" y1="184.22" x2="317.44" y2="175.93"/><line x1="179.23" y1="301.81" x2="212.99" y2="290.72"/><line x1="208.95" y1="192.29" x2="205.53" y2="186.11"/><line x1="314.27" y1="148.90" x2="315.58" y2="148.09"/><line x1="399.20" y1="133.01" x2="395.34" y2="135.08"/><line x1="405.36" y1="148.54" x2="430.03" y2="202.08"/><line x1="404.63" y1="312.84" x2="363.42" y2="320.73"/><line x1="78.99" y1="149.11" x2="78.73" y2="147.92"/><line x1="405.36" y1="148.54" x2="434.01" y2="190.31"/><line x1="425.32" y1="156.08" x2="423.49" y2="153.70"/><line x1="152.48" y1="345.96" x2="159.11" y2="328.46"/><line x1="405.36" y1="148.54" x2="428.20" y2="162.17"/><line x1="331.64" y1="151.29" x2="345.40" y2="118.02"/><line x1="228.48" y1="163.92" x2="194.43" y2="164.84"/><line x1="258.97" y1="157.34" x2="262.77" y2="161.09"/><line x1="331.70" y1="203.63" x2="328.65" y2="198.29"/><line x1="212.99" y1="290.72" x2="210.75" y2="285.58"/><line x1="228.48" y1="163.92" x2="185.46" y2="137.79"/><line x1="387.05" y1="348.42" x2="385.60" y2="348.30"/><line x1="228.48" y1="163.92" x2="194.93" y2="120.23"/><line x1="299.21" y1="352.14" x2="311.61" y2="349.68"/><line x1="154.98" y1="164.57" x2="157.29" y2="166.50"/><line x1="317.44" y1="175.93" x2="299.28" y2="179.84"/><line x1="391.68" y1="132.00" x2="389.61" y2="130.32"/><line x1="229.22" y1="175.96" x2="228.63" y2="173.78"/><line x1="159.11" y1="328.46" x2="160.60" y2="328.96"/><line x1="228.48" y1="163.92" x2="212.53" y2="122.00"/><line x1="177.94" y1="326.41" x2="206.44" y2="357.81"/><line x1="226.70" y1="130.81" x2="229.56" y2="162.54"/><line x1="431.93" y1="177.77" x2="431.20" y2="173.98"/><line x1="290.42" y1="156.98" x2="289.55" y2="153.69"/><line x1="143.45" y1="193.56" x2="120.84" y2="198.67"/><line x1="339.01" y1="154.96" x2="377.94" y2="133.12"/><line x1="145.12" y1="187.94" x2="97.83" y2="121.76"/><line x1="254.66" y1="222.82" x2="251.38" y2="217.49"/><line x1="145.12" y1="187.94" x2="108.95" y2="126.26"/><line x1="399.05" y1="334.82" x2="400.53" y2="331.04"/><line x1="206.44" y1="357.81" x2="209.21" y2="355.55"/><line x1="402.84" y1="135.71" x2="396.93" y2="136.48"/><line x1="162.37" y1="171.01" x2="165.13" y2="173.57"/><line x1="145.12" y1="187.94" x2="157.29" y2="166.50"/><line x1="389.61" y1="130.32" x2="389.24" y2="129.92"/><line x1="317.18" y1="147.61" x2="320.45" y2="109.47"/><line x1="82.33" y1="138.35" x2="83.95" y2="135.70"/><line x1="295.74" y1="171.57" x2="294.17" y2="167.68"/><line x1="390.41" y1="127.11" x2="388.19" y2="128.14"/><line x1="102.21" y1="304.25" x2="108.33" y2="295.91"/><line x1="165.26" y1="329.90" x2="166.88" y2="330.03"/><line x1="199.46" y1="174.79" x2="196.82" y2="169.64"/><line x1="185.93" y1="143.90" x2="185.50" y2="141.78"/><line x1="273.47" y1="172.63" x2="268.93" y2="192.76"/><line x1="304.58" y1="235.90" x2="307.77" y2="212.87"/><line x1="202.48" y1="269.86" x2="171.55" y2="279.25"/><line x1="405.36" y1="148.54" x2="418.97" y2="199.98"/><line x1="405.36" y1="148.54" x2="433.98" y2="198.76"/><line x1="165.13" y1="173.57" x2="153.80" y2="192.96"/><line x1="166.88" y1="330.03" x2="162.48" y2="352.43"/><line x1="405.36" y1="148.54" x2="431.93" y2="177.77"/><line x1="185.50" y1="141.78" x2="185.36" y2="140.08"/><line x1="228.48" y1="163.92" x2="187.63" y2="149.30"/><line x1="233.40" y1="162.45" x2="242.65" y2="142.89"/><line x1="315.58" y1="148.09" x2="311.95" y2="107.76"/><line x1="142.36" y1="190.02" x2="142.50" y2="189.71"/><line x1="228.48" y1="163.92" x2="187.92" y2="129.09"/><line x1="337.60" y1="281.54" x2="329.19" y2="269.43"/><line x1="314.85" y1="341.63" x2="291.62" y2="343.82"/><line x1="107.72" y1="183.32" x2="143.37" y2="188.61"/><line x1="236.28" y1="191.44" x2="234.66" y2="188.38"/><line x1="403.61" y1="320.99" x2="404.17" y2="318.06"/><line x1="218.81" y1="339.48" x2="179.42" y2="323.96"/><line x1="177.94" y1="326.41" x2="215.99" y2="346.66"/><line x1="242.65" y1="142.89" x2="236.13" y2="163.59"/><line x1="145.12" y1="187.94" x2="78.64" y2="146.79"/><line x1="94.91" y1="122.66" x2="96.42" y2="121.99"/><line x1="404.52" y1="315.34" x2="404.63" y2="312.84"/><line x1="145.12" y1="187.94" x2="89.79" y2="127.35"/><line x1="311.94" y1="155.33" x2="312.08" y2="153.24"/><line x1="126.24" y1="308.52" x2="128.39" y2="309.92"/><line x1="171.05" y1="357.27" x2="173.58" y2="358.51"/><line x1="145.12" y1="187.94" x2="102.45" y2="122.66"/><line x1="187.92" y1="129.09" x2="189.05" y2="127.01"/><line x1="145.12" y1="187.94" x2="115.00" y2="130.94"/><line x1="187.83" y1="248.15" x2="161.85" y2="259.14"/><line x1="143.65" y1="188.40" x2="143.93" y2="188.24"/><line x1="374.82" y1="338.67" x2="373.01" y2="335.96"/><line x1="166.49" y1="203.32" x2="171.81" y2="208.01"/><line x1="311.95" y1="107.76" x2="315.87" y2="108.40"/><line x1="390.41" y1="127.11" x2="388.67" y2="127.09"/><line x1="220.24" y1="321.70" x2="219.79" y2="316.50"/><line x1="189.05" y1="127.01" x2="190.38" y2="124.98"/><line x1="255.04" y1="153.64" x2="258.97" y2="157.34"/><line x1="314.27" y1="148.90" x2="291.21" y2="130.31"/><line x1="390.64" y1="347.30" x2="387.05" y2="348.42"/><line x1="323.36" y1="188.47" x2="305.63" y2="193.50"/><line x1="405.36" y1="148.54" x2="428.43" y2="202.22"/><line x1="407.06" y1="138.91" x2="402.84" y2="135.71"/><line x1="138.66" y1="335.91" x2="142.12" y2="338.55"/><line x1="229.97" y1="178.21" x2="229.22" y2="175.96"/><line x1="315.58" y1="148.09" x2="292.15" y2="127.78"/><line x1="315.58" y1="148.09" x2="303.01" y2="109.79"/><line x1="168.77" y1="224.03" x2="163.30" y2="217.52"/><line x1="258.97" y1="157.34" x2="247.31" y2="171.56"/><line x1="387.05" y1="348.42" x2="388.86" y2="348.14"/><line x1="403.51" y1="308.65" x2="403.02" y2="307.75"/><line x1="208.25" y1="280.39" x2="205.49" y2="275.15"/><line x1="313.25" y1="150.02" x2="288.00" y2="141.93"/><line x1="392.39" y1="345.92" x2="394.10" y2="343.97"/><line x1="229.22" y1="175.96" x2="205.53" y2="186.11"/><line x1="321.11" y1="184.00" x2="319.14" y2="179.82"/><line x1="292.15" y1="127.78" x2="293.15" y2="125.32"/><line x1="177.02" y1="327.38" x2="193.35" y2="362.73"/><line x1="145.12" y1="187.94" x2="80.84" y2="153.02"/><line x1="145.12" y1="187.94" x2="81.00" y2="140.68"/><line x1="403.02" y1="307.75" x2="402.43" y2="306.82"/><line x1="313.74" y1="165.74" x2="295.74" y2="171.57"/><line x1="302.31" y1="354.25" x2="301.32" y2="353.70"/><line x1="142.20" y1="191.05" x2="142.22" y2="190.69"/><line x1="145.12" y1="187.94" x2="96.42" y2="121.99"/><line x1="227.88" y1="167.76" x2="227.95" y2="166.25"/><line x1="180.77" y1="310.78" x2="180.19" y2="306.49"/><line x1="145.12" y1="187.94" x2="107.57" y2="125.33"/><line x1="377.94" y1="133.12" x2="386.80" y2="137.87"/><line x1="199.98" y1="118.08" x2="201.78" y2="117.93"/><line x1="402.84" y1="135.71" x2="398.38" y2="137.80"/><line x1="145.12" y1="187.94" x2="154.98" y2="164.57"/><line x1="394.10" y1="343.97" x2="381.48" y2="346.57"/><line x1="293.59" y1="346.19" x2="314.85" y2="341.63"/><line x1="154.70" y1="326.47" x2="156.21" y2="327.21"/><line x1="212.39" y1="248.57" x2="220.48" y2="257.33"/><line x1="295.74" y1="171.57" x2="312.95" y2="162.80"/><line x1="390.41" y1="127.11" x2="388.22" y2="128.36"/><line x1="199.46" y1="174.79" x2="228.15" y2="164.97"/><line x1="217.58" y1="343.19" x2="218.81" y2="339.48"/><line x1="132.89" y1="214.10" x2="147.21" y2="198.58"/><line x1="273.47" y1="172.63" x2="262.91" y2="186.35"/><line x1="426.65" y1="158.26" x2="425.32" y2="156.08"/><line x1="309.14" y1="353.06" x2="300.28" y2="353.00"/><line x1="381.48" y1="346.57" x2="380.19" y2="345.53"/><line x1="405.36" y1="148.54" x2="415.93" y2="198.71"/><line x1="93.31" y1="123.78" x2="94.91" y2="122.66"/><line x1="195.68" y1="259.14" x2="191.89" y2="253.70"/><line x1="124.10" y1="307.09" x2="126.24" y2="308.52"/><line x1="395.79" y1="341.48" x2="397.43" y2="338.43"/><line x1="300.31" y1="112.58" x2="301.64" y2="111.04"/><line x1="247.98" y1="259.19" x2="248.01" y2="211.91"/><line x1="315.58" y1="148.09" x2="296.48" y2="118.50"/><line x1="165.45" y1="266.03" x2="187.83" y2="248.15"/><line x1="315.58" y1="148.09" x2="308.69" y2="107.54"/><line x1="165.51" y1="354.23" x2="168.37" y2="355.84"/><line x1="388.22" y1="128.36" x2="388.19" y2="128.14"/><line x1="272.73" y1="319.64" x2="300.75" y2="288.71"/><line x1="391.74" y1="127.85" x2="390.41" y2="127.11"/><line x1="161.67" y1="199.24" x2="166.49" y2="203.32"/><line x1="107.72" y1="183.32" x2="143.11" y2="188.85"/><line x1="313.25" y1="150.02" x2="289.05" y2="136.88"/><line x1="171.91" y1="329.78" x2="171.05" y2="357.27"/><line x1="177.88" y1="296.75" x2="176.15" y2="291.30"/><line x1="415.93" y1="198.71" x2="418.97" y2="199.98"/><line x1="177.94" y1="326.41" x2="214.06" y2="349.89"/><line x1="312.77" y1="347.36" x2="313.86" y2="344.61"/><line x1="177.02" y1="327.38" x2="177.94" y2="326.41"/><line x1="397.43" y1="338.43" x2="374.82" y2="338.67"/><line x1="143.37" y1="188.61" x2="143.65" y2="188.40"/><line x1="145.12" y1="187.94" x2="78.73" y2="147.92"/><line x1="286.99" y1="338.01" x2="317.30" y2="329.13"/><line x1="146.40" y1="188.25" x2="162.37" y2="171.01"/><line x1="155.93" y1="348.27" x2="163.67" y2="329.67"/><line x1="145.12" y1="187.94" x2="87.87" y2="129.81"/><line x1="311.94" y1="155.33" x2="290.42" y2="156.98"/><line x1="230.88" y1="180.55" x2="229.97" y2="178.21"/><line x1="171.05" y1="357.27" x2="173.39" y2="329.40"/><line x1="145.12" y1="187.94" x2="101.25" y2="122.27"/><line x1="180.41" y1="320.79" x2="220.24" y2="321.70"/><line x1="411.32" y1="142.26" x2="404.62" y2="146.00"/><line x1="174.74" y1="328.88" x2="175.94" y2="328.20"/><line x1="143.65" y1="188.40" x2="100.75" y2="175.66"/><line x1="374.82" y1="338.67" x2="399.05" y2="334.82"/><line x1="102.45" y1="122.66" x2="103.68" y2="123.16"/><line x1="325.82" y1="235.55" x2="323.36" y2="188.47"/><line x1="317.30" y1="329.13" x2="317.53" y2="325.86"/><line x1="135.19" y1="333.20" x2="138.66" y2="335.91"/><line x1="311.95" y1="107.76" x2="317.18" y2="147.61"/><line x1="307.77" y1="212.87" x2="289.22" y2="216.44"/><line x1="230.30" y1="162.19" x2="231.17" y2="162.07"/><line x1="220.24" y1="321.70" x2="180.71" y2="318.94"/><line x1="173.96" y1="230.35" x2="168.77" y2="224.03"/><line x1="389.26" y1="126.89" x2="389.65" y2="126.86"/><line x1="353.10" y1="121.22" x2="361.09" y2="124.79"/><line x1="103.68" y1="123.16" x2="104.94" y2="123.78"/><line x1="407.06" y1="138.91" x2="400.78" y2="140.16"/><line x1="247.98" y1="259.19" x2="204.60" y2="240.33"/><line x1="138.66" y1="335.91" x2="148.24" y2="322.76"/><line x1="175.94" y1="328.20" x2="180.30" y2="361.22"/><line x1="247.98" y1="259.19" x2="264.02" y2="237.28"/><line x1="198.24" y1="118.51" x2="199.98" y2="118.08"/><line x1="431.40" y1="201.66" x2="432.50" y2="200.97"/><line x1="247.98" y1="259.19" x2="238.08" y2="194.73"/><line x1="315.58" y1="148.09" x2="301.64" y2="111.04"/><line x1="64.64" y1="32.09" x2="32.16" y2="64.58"/><line x1="168.77" y1="224.03" x2="148.90" y2="237.28"/><line x1="144.81" y1="187.95" x2="145.12" y2="187.94"/><line x1="316.75" y1="316.21" x2="316.09" y2="314.02"/><line x1="204.60" y1="240.33" x2="212.39" y2="248.57"/><line x1="313.25" y1="150.02" x2="288.10" y2="144.66"/><line x1="180.30" y1="361.22" x2="182.34" y2="361.84"/><line x1="217.98" y1="306.15" x2="180.77" y2="310.78"/><line x1="270.03" y1="168.73" x2="273.47" y2="172.63"/><line x1="400.78" y1="140.16" x2="402.84" y2="135.71"/><line x1="177.02" y1="327.38" x2="189.58" y2="362.94"/><line x1="145.12" y1="187.94" x2="81.80" y2="154.45"/><line x1="171.10" y1="179.33" x2="204.59" y2="213.58"/><line x1="111.87" y1="128.41" x2="113.41" y2="129.62"/><line x1="316.09" y1="314.02" x2="315.24" y2="311.78"/><line x1="145.12" y1="187.94" x2="79.97" y2="142.69"/><line x1="153.15" y1="325.66" x2="154.70" y2="326.47"/><line x1="227.88" y1="167.76" x2="199.46" y2="174.79"/><line x1="331.60" y1="112.89" x2="323.09" y2="148.07"/><line x1="290.71" y1="192.57" x2="275.33" y2="199.92"/><line x1="246.83" y1="146.38" x2="251.00" y2="149.99"/><line x1="180.77" y1="310.78" x2="216.62" y2="300.99"/><line x1="153.47" y1="206.12" x2="132.89" y2="214.10"/><line x1="402.84" y1="135.71" x2="399.66" y2="139.03"/><line x1="307.82" y1="354.11" x2="309.14" y2="353.06"/><line x1="325.82" y1="235.55" x2="329.19" y2="269.43"/><line x1="306.97" y1="297.69" x2="304.09" y2="293.47"/><line x1="113.41" y1="129.62" x2="115.00" y2="130.94"/><line x1="289.63" y1="134.96" x2="290.35" y2="132.77"/><line x1="154.70" y1="326.47" x2="149.03" y2="343.57"/><line x1="189.58" y1="362.94" x2="193.35" y2="362.73"/><line x1="212.53" y1="122.00" x2="215.69" y2="123.78"/><line x1="312.39" y1="160.08" x2="312.06" y2="157.59"/><line x1="396.13" y1="130.79" x2="391.68" y2="132.00"/><line x1="284.32" y1="334.55" x2="317.22" y2="318.37"/><line x1="132.89" y1="214.10" x2="150.03" y2="202.04"/><line x1="309.14" y1="353.06" x2="301.32" y2="353.70"/><line x1="78.73" y1="147.92" x2="78.64" y2="146.79"/><line x1="284.32" y1="334.55" x2="272.73" y2="319.64"/><line x1="390.64" y1="347.30" x2="392.39" y2="345.92"/><line x1="247.98" y1="259.19" x2="237.19" y2="276.25"/><line x1="335.16" y1="152.97" x2="339.01" y2="154.96"/><line x1="193.35" y1="362.73" x2="196.93" y2="362.12"/><line x1="215.69" y1="123.78" x2="219.20" y2="125.89"/><line x1="247.98" y1="259.19" x2="251.38" y2="217.49"/><line x1="315.58" y1="148.09" x2="295.31" y2="120.69"/><line x1="315.58" y1="148.09" x2="307.24" y2="107.69"/><line x1="298.08" y1="351.11" x2="296.82" y2="349.83"/><line x1="78.64" y1="146.79" x2="78.79" y2="145.74"/><line x1="272.73" y1="319.64" x2="304.09" y2="293.47"/><line x1="391.74" y1="127.85" x2="388.66" y2="129.21"/><line x1="192.31" y1="160.38" x2="190.47" y2="156.29"/><line x1="313.25" y1="150.02" x2="288.59" y2="138.54"/><line x1="328.65" y1="198.29" x2="325.87" y2="193.24"/><line x1="177.88" y1="296.75" x2="208.25" y2="280.39"/><line x1="385.60" y1="348.30" x2="384.19" y2="347.95"/><line x1="393.58" y1="133.58" x2="391.68" y2="132.00"/><line x1="312.77" y1="347.36" x2="295.32" y2="348.19"/><line x1="145.12" y1="187.94" x2="78.99" y2="149.11"/><line x1="146.40" y1="188.25" x2="159.75" y2="168.65"/><line x1="155.93" y1="348.27" x2="162.12" y2="329.36"/><line x1="190.47" y1="156.29" x2="188.91" y2="152.60"/><line x1="230.58" y1="133.55" x2="230.30" y2="162.19"/><line x1="289.55" y1="153.69" x2="288.87" y2="150.54"/><line x1="142.51" y1="191.99" x2="142.20" y2="191.05"/><line x1="32.16" y1="32.09" x2="64.64" y2="32.09"/><line x1="325.82" y1="235.55" x2="362.68" y2="252.04"/><line x1="363.42" y1="320.73" x2="403.02" y2="307.75"/><line x1="394.10" y1="343.97" x2="395.79" y2="341.48"/><line x1="325.82" y1="235.55" x2="312.69" y2="246.61"/><line x1="248.01" y1="211.91" x2="244.56" y2="206.07"/><line x1="288.38" y1="147.53" x2="313.25" y2="150.02"/><line x1="400.53" y1="331.04" x2="401.78" y2="327.48"/><line x1="374.58" y1="175.48" x2="405.36" y2="148.54"/><line x1="230.30" y1="162.19" x2="234.52" y2="136.48"/><line x1="388.66" y1="129.21" x2="388.45" y2="128.89"/><line x1="401.77" y1="141.27" x2="400.78" y2="140.16"/><line x1="85.86" y1="132.73" x2="87.87" y2="129.81"/><line x1="368.69" y1="329.22" x2="402.81" y2="324.12"/><line x1="284.32" y1="334.55" x2="314.19" y2="309.49"/><line x1="294.17" y1="167.68" x2="292.74" y2="163.97"/><line x1="168.53" y1="330.08" x2="170.29" y2="330.00"/><line x1="244.56" y1="206.07" x2="242.22" y2="202.05"/><line x1="185.36" y1="140.08" x2="185.46" y2="137.79"/><line x1="320.91" y1="147.61" x2="331.60" y2="112.89"/><line x1="247.98" y1="259.19" x2="266.97" y2="241.60"/><line x1="236.13" y1="163.59" x2="239.35" y2="165.49"/><line x1="142.66" y1="189.41" x2="142.87" y2="189.12"/><line x1="378.93" y1="344.27" x2="377.70" y2="342.77"/><line x1="247.98" y1="259.19" x2="240.06" y2="198.27"/><line x1="402.81" y1="324.12" x2="403.61" y2="320.99"/><line x1="212.65" y1="198.81" x2="231.96" y2="182.97"/><line x1="228.96" y1="163.12" x2="229.56" y2="162.54"/><line x1="185.46" y1="137.79" x2="185.77" y2="135.56"/><line x1="127.00" y1="206.38" x2="120.84" y2="198.67"/><line x1="434.42" y1="194.14" x2="434.27" y2="192.43"/><line x1="32.00" y1="447.50" x2="64.49" y2="479.98"/></g></svg>