<svg xmlns="http://www.w3.org/2000/svg" width="512" height="512"><rect width="512" height="512" fill="#0a0f1a"/><text x="12" y="20" font-family="monospace" font-size="11" fill="#4a7fa5">FRONT (XZ)</text><g stroke="#00d4ff" stroke-width="0.6" opacity="0.85"><line x1="259.05" y1="189.95" x2="216.49" y2="176.74"/><line x1="283.29" y1="238.40" x2="285.57" y2="243.74"/><line x1="238.90" y1="154.73" x2="246.57" y2="134.20"/><line x1="275.93" y1="222.38" x2="247.89" y2="246.66"/><line x1="293.56" y1="343.73" x2="274.24" y2="330.60"/><line x1="303.26" y1="334.53" x2="274.34" y2="329.64"/><line x1="238.90" y1="154.73" x2="211.45" y2="164.84"/><line x1="270.85" y1="310.42" x2="272.38" y2="316.45"/><line x1="207.20" y1="135.52" x2="206.59" y2="139.41"/><line x1="234.04" y1="125.67" x2="236.62" y2="127.34"/><line x1="209.49" y1="159.52" x2="210.42" y2="162.13"/><line x1="206.38" y1="143.25" x2="206.44" y2="145.37"/><line x1="266.49" y1="295.96" x2="268.89" y2="303.60"/><line x1="274.34" y1="329.64" x2="302.01" y2="336.39"/><line x1="274.79" y1="351.75" x2="272.76" y2="350.54"/><line x1="272.02" y1="342.85" x2="271.89" y2="344.06"/><line x1="238.90" y1="154.73" x2="206.59" y2="139.41"/><line x1="210.42" y1="162.13" x2="211.45" y2="164.84"/><line x1="259.05" y1="189.95" x2="231.41" y2="208.85"/><line x1="305.87" y1="328.08" x2="305.19" y2="330.38"/><line x1="209.66" y1="127.59" x2="228.57" y2="122.27"/><line x1="238.90" y1="154.73" x2="248.99" y2="135.97"/><line x1="285.57" y1="243.74" x2="287.76" y2="249.10"/><line x1="293.56" y1="343.73" x2="290.51" y2="345.64"/><line x1="238.90" y1="154.73" x2="213.78" y2="170.58"/><line x1="237.34" y1="222.14" x2="267.84" y2="206.25"/><line x1="283.26" y1="349.56" x2="272.20" y2="341.52"/><line x1="277.82" y1="351.53" x2="276.71" y2="351.73"/><line x1="208.23" y1="131.58" x2="207.20" y2="135.52"/><line x1="213.78" y1="170.58" x2="215.09" y2="173.61"/><line x1="272.76" y1="350.54" x2="273.99" y2="351.55"/><line x1="480.00" y1="479.91" x2="447.51" y2="479.91"/><line x1="287.08" y1="347.58" x2="273.06" y2="336.76"/><line x1="287.76" y1="249.10" x2="256.66" y2="268.45"/><line x1="272.03" y1="348.72" x2="275.70" y2="351.80"/><line x1="274.31" y1="330.01" x2="274.24" y2="330.60"/><line x1="274.34" y1="329.64" x2="298.54" y2="340.00"/><line x1="273.69" y1="333.65" x2="287.08" y2="347.58"/><line x1="222.70" y1="118.81" x2="211.51" y2="123.54"/><line x1="250.85" y1="160.14" x2="256.95" y2="163.19"/><line x1="238.90" y1="154.73" x2="206.38" y2="143.25"/><line x1="236.62" y1="127.34" x2="239.14" y2="129.02"/><line x1="211.45" y1="164.84" x2="212.57" y2="167.66"/><line x1="248.99" y1="135.97" x2="251.41" y2="137.76"/><line x1="238.90" y1="154.73" x2="251.41" y2="137.76"/><line x1="306.47" y1="314.82" x2="306.74" y2="320.29"/><line x1="274.24" y1="330.60" x2="274.11" y2="331.40"/><line x1="273.99" y1="351.55" x2="273.32" y2="351.14"/><line x1="271.85" y1="347.50" x2="272.03" y2="348.72"/><line x1="207.96" y1="154.53" x2="208.66" y2="156.99"/><line x1="244.11" y1="132.45" x2="246.57" y2="134.20"/><line x1="256.95" y1="163.19" x2="268.86" y2="151.44"/><line x1="304.36" y1="301.48" x2="305.68" y2="308.55"/><line x1="298.54" y1="340.00" x2="296.24" y2="341.85"/><line x1="297.22" y1="275.49" x2="263.66" y2="287.52"/><line x1="287.08" y1="347.58" x2="283.26" y2="349.56"/><line x1="273.47" y1="321.66" x2="274.12" y2="326.05"/><line x1="256.66" y1="268.45" x2="289.86" y2="254.47"/><line x1="247.89" y1="246.66" x2="280.92" y2="233.05"/><line x1="268.89" y1="303.60" x2="304.36" y2="301.48"/><line x1="274.34" y1="329.64" x2="293.56" y2="343.73"/><line x1="271.81" y1="345.14" x2="271.78" y2="346.09"/><line x1="239.14" y1="129.02" x2="241.64" y2="130.72"/><line x1="211.51" y1="123.54" x2="225.68" y2="120.55"/><line x1="252.50" y1="257.90" x2="283.29" y2="238.40"/><line x1="238.90" y1="154.73" x2="206.44" y2="145.37"/><line x1="270.62" y1="211.64" x2="273.31" y2="217.02"/><line x1="263.66" y1="287.52" x2="300.13" y2="284.95"/><line x1="281.75" y1="350.23" x2="280.34" y2="350.78"/><line x1="231.41" y1="208.85" x2="237.34" y2="222.14"/><line x1="279.03" y1="351.21" x2="277.82" y2="351.53"/><line x1="274.11" y1="331.40" x2="290.51" y2="345.64"/><line x1="272.20" y1="341.52" x2="281.75" y2="350.23"/><line x1="213.77" y1="119.45" x2="219.62" y2="117.06"/><line x1="262.06" y1="195.40" x2="264.99" y2="200.83"/><line x1="207.20" y1="135.52" x2="234.04" y2="125.67"/><line x1="291.87" y1="259.84" x2="260.38" y2="278.33"/><line x1="32.16" y1="32.09" x2="32.16" y2="64.58"/><line x1="242.84" y1="234.74" x2="275.93" y2="222.38"/><line x1="268.86" y1="151.44" x2="263.14" y2="166.47"/><line x1="296.24" y1="341.85" x2="293.56" y2="343.73"/><line x1="273.06" y1="336.76" x2="272.72" y2="338.48"/><line x1="256.66" y1="268.45" x2="260.38" y2="278.33"/><line x1="306.74" y1="320.29" x2="306.64" y2="323.04"/><line x1="290.51" y1="345.64" x2="273.92" y2="332.42"/><line x1="219.62" y1="117.06" x2="216.43" y2="115.30"/><line x1="253.79" y1="139.58" x2="244.84" y2="157.31"/><line x1="274.12" y1="326.05" x2="306.35" y2="325.63"/><line x1="259.05" y1="189.95" x2="215.09" y2="173.61"/><line x1="273.92" y1="332.42" x2="273.69" y2="333.65"/><line x1="252.50" y1="257.90" x2="287.76" y2="249.10"/><line x1="246.57" y1="134.20" x2="248.99" y2="135.97"/><line x1="263.14" y1="166.47" x2="269.40" y2="169.99"/><line x1="305.68" y1="308.55" x2="306.47" y2="314.82"/><line x1="293.56" y1="343.73" x2="274.31" y2="330.01"/><line x1="300.13" y1="284.95" x2="266.49" y2="295.96"/><line x1="271.78" y1="346.09" x2="271.85" y2="347.50"/><line x1="269.40" y1="169.99" x2="282.17" y2="162.76"/><line x1="213.77" y1="119.45" x2="222.70" y2="118.81"/><line x1="241.64" y1="130.72" x2="244.11" y2="132.45"/><line x1="244.84" y1="157.31" x2="250.85" y2="160.14"/><line x1="302.51" y1="293.62" x2="304.36" y2="301.48"/><line x1="234.04" y1="125.67" x2="238.90" y2="154.73"/><line x1="260.38" y1="278.33" x2="293.79" y2="265.22"/><line x1="268.86" y1="151.44" x2="282.17" y2="162.76"/><line x1="280.34" y1="350.78" x2="271.81" y2="345.14"/><line x1="266.49" y1="295.96" x2="302.51" y2="293.62"/><line x1="272.34" y1="349.73" x2="272.76" y2="350.54"/><line x1="272.72" y1="338.48" x2="283.26" y2="349.56"/><line x1="228.57" y1="122.27" x2="208.23" y2="131.58"/><line x1="253.79" y1="139.58" x2="256.95" y2="163.19"/><line x1="238.90" y1="154.73" x2="236.62" y2="127.34"/><line x1="259.05" y1="189.95" x2="217.98" y2="179.98"/><line x1="293.79" y1="265.22" x2="297.22" y2="275.49"/><line x1="215.09" y1="173.61" x2="216.49" y2="176.74"/><line x1="274.12" y1="326.05" x2="305.19" y2="330.38"/><line x1="293.56" y1="343.73" x2="274.11" y2="331.40"/><line x1="303.26" y1="334.53" x2="302.01" y2="336.39"/><line x1="283.26" y1="349.56" x2="272.43" y2="340.06"/><line x1="480.00" y1="32.02" x2="447.51" y2="32.02"/><line x1="208.23" y1="131.58" x2="231.35" y2="123.97"/><line x1="282.17" y1="162.76" x2="275.74" y2="173.75"/><line x1="238.90" y1="154.73" x2="244.84" y2="157.31"/><line x1="237.34" y1="222.14" x2="242.84" y2="234.74"/><line x1="260.38" y1="278.33" x2="263.66" y2="287.52"/><line x1="216.49" y1="176.74" x2="217.98" y2="179.98"/><line x1="287.08" y1="347.58" x2="273.40" y2="335.10"/><line x1="238.90" y1="154.73" x2="259.05" y2="189.95"/><line x1="272.38" y1="316.45" x2="306.47" y2="314.82"/><line x1="274.79" y1="351.75" x2="273.99" y2="351.55"/><line x1="207.40" y1="152.14" x2="207.96" y2="154.53"/><line x1="275.74" y1="173.75" x2="282.17" y2="177.73"/><line x1="274.12" y1="326.05" x2="303.26" y2="334.53"/><line x1="259.05" y1="189.95" x2="262.06" y2="195.40"/><line x1="276.71" y1="351.73" x2="275.70" y2="351.80"/><line x1="306.47" y1="314.82" x2="273.47" y2="321.66"/><line x1="206.64" y1="147.56" x2="206.95" y2="149.82"/><line x1="231.35" y1="123.97" x2="207.20" y2="135.52"/><line x1="238.90" y1="154.73" x2="208.66" y2="156.99"/><line x1="304.36" y1="301.48" x2="270.85" y2="310.42"/><line x1="287.08" y1="347.58" x2="272.72" y2="338.48"/><line x1="272.03" y1="348.72" x2="272.34" y2="349.73"/><line x1="273.40" y1="335.10" x2="273.06" y2="336.76"/><line x1="271.81" y1="345.14" x2="279.03" y2="351.21"/><line x1="225.68" y1="120.55" x2="209.66" y2="127.59"/><line x1="270.62" y1="211.64" x2="242.84" y2="234.74"/><line x1="281.75" y1="350.23" x2="272.02" y2="342.85"/><line x1="32.00" y1="479.98" x2="64.49" y2="479.98"/><line x1="238.90" y1="154.73" x2="206.64" y2="147.56"/><line x1="262.06" y1="195.40" x2="237.34" y2="222.14"/><line x1="238.90" y1="154.73" x2="210.42" y2="162.13"/><line x1="280.92" y1="233.05" x2="283.29" y2="238.40"/><line x1="270.85" y1="310.42" x2="305.68" y2="308.55"/><line x1="297.22" y1="275.49" x2="300.13" y2="284.95"/><line x1="305.19" y1="330.38" x2="304.32" y2="332.53"/><line x1="256.66" y1="268.45" x2="291.87" y2="259.84"/><line x1="64.64" y1="32.09" x2="32.16" y2="64.58"/><line x1="275.70" y1="351.80" x2="274.79" y2="351.75"/><line x1="206.95" y1="149.82" x2="207.40" y2="152.14"/><line x1="274.12" y1="326.05" x2="306.64" y2="323.04"/><line x1="290.51" y1="345.64" x2="287.08" y2="347.58"/><line x1="252.50" y1="257.90" x2="285.57" y2="243.74"/><line x1="305.68" y1="308.55" x2="272.38" y2="316.45"/><line x1="272.02" y1="342.85" x2="280.34" y2="350.78"/><line x1="274.11" y1="331.40" x2="273.92" y2="332.42"/><line x1="238.90" y1="154.73" x2="206.95" y2="149.82"/><line x1="213.77" y1="119.45" x2="216.43" y2="115.30"/><line x1="275.93" y1="222.38" x2="278.47" y2="227.72"/><line x1="302.51" y1="293.62" x2="268.89" y2="303.60"/><line x1="291.87" y1="259.84" x2="293.79" y2="265.22"/><line x1="238.90" y1="154.73" x2="212.57" y2="167.66"/><line x1="237.34" y1="222.14" x2="264.99" y2="200.83"/><line x1="277.82" y1="351.53" x2="271.85" y2="347.50"/><line x1="213.78" y1="170.58" x2="259.05" y2="189.95"/><line x1="280.34" y1="350.78" x2="271.89" y2="344.06"/><line x1="271.89" y1="344.06" x2="271.81" y2="345.14"/><line x1="253.79" y1="139.58" x2="250.85" y2="160.14"/><line x1="264.99" y1="200.83" x2="267.84" y2="206.25"/><line x1="274.12" y1="326.05" x2="305.87" y2="328.08"/><line x1="274.34" y1="329.64" x2="300.46" y2="338.18"/><line x1="306.64" y1="323.04" x2="306.35" y2="325.63"/><line x1="252.50" y1="257.90" x2="256.66" y2="268.45"/><line x1="272.43" y1="340.06" x2="272.20" y2="341.52"/><line x1="300.13" y1="284.95" x2="302.51" y2="293.62"/><line x1="238.90" y1="154.73" x2="239.14" y2="129.02"/><line x1="480.00" y1="32.02" x2="480.00" y2="64.50"/><line x1="217.98" y1="179.98" x2="231.41" y2="208.85"/><line x1="209.66" y1="127.59" x2="208.23" y2="131.58"/><line x1="238.90" y1="154.73" x2="207.40" y2="152.14"/><line x1="213.77" y1="119.45" x2="211.51" y2="123.54"/><line x1="269.40" y1="169.99" x2="275.74" y2="173.75"/><line x1="238.90" y1="154.73" x2="253.79" y2="139.58"/><line x1="237.34" y1="222.14" x2="270.62" y2="211.64"/><line x1="260.38" y1="278.33" x2="297.22" y2="275.49"/><line x1="306.35" y1="325.63" x2="305.87" y2="328.08"/><line x1="283.26" y1="349.56" x2="281.75" y2="350.23"/><line x1="271.85" y1="347.50" x2="276.71" y2="351.73"/><line x1="272.76" y1="350.54" x2="273.32" y2="351.14"/><line x1="280.34" y1="350.78" x2="279.03" y2="351.21"/><line x1="272.72" y1="338.48" x2="272.43" y2="340.06"/><line x1="480.00" y1="479.91" x2="480.00" y2="447.42"/><line x1="228.57" y1="122.27" x2="231.35" y2="123.97"/><line x1="287.76" y1="249.10" x2="289.86" y2="254.47"/><line x1="273.47" y1="321.66" x2="306.74" y2="320.29"/><line x1="247.89" y1="246.66" x2="278.47" y2="227.72"/><line x1="253.79" y1="139.58" x2="268.86" y2="151.44"/><line x1="274.34" y1="329.64" x2="296.24" y2="341.85"/><line x1="274.12" y1="326.05" x2="304.32" y2="332.53"/><line x1="251.41" y1="137.76" x2="253.79" y2="139.58"/><line x1="267.84" y1="206.25" x2="270.62" y2="211.64"/><line x1="273.69" y1="333.65" x2="273.40" y2="335.10"/><line x1="276.71" y1="351.73" x2="272.03" y2="348.72"/><line x1="222.70" y1="118.81" x2="225.68" y2="120.55"/><line x1="238.90" y1="154.73" x2="241.64" y2="130.72"/><line x1="480.00" y1="64.50" x2="447.51" y2="32.02"/><line x1="238.90" y1="154.73" x2="207.96" y2="154.53"/><line x1="282.17" y1="162.76" x2="282.17" y2="177.73"/><line x1="231.41" y1="208.85" x2="262.06" y2="195.40"/><line x1="278.47" y1="227.72" x2="280.92" y2="233.05"/><line x1="279.03" y1="351.21" x2="271.78" y2="346.09"/><line x1="302.01" y1="336.39" x2="300.46" y2="338.18"/><line x1="272.38" y1="316.45" x2="273.47" y2="321.66"/><line x1="32.16" y1="32.09" x2="64.64" y2="32.09"/><line x1="256.95" y1="163.19" x2="263.14" y2="166.47"/><line x1="447.51" y1="479.91" x2="480.00" y2="447.42"/><line x1="242.84" y1="234.74" x2="273.31" y2="217.02"/><line x1="306.74" y1="320.29" x2="274.12" y2="326.05"/><line x1="247.89" y1="246.66" x2="252.50" y2="257.90"/><line x1="206.44" y1="145.37" x2="206.64" y2="147.56"/><line x1="268.89" y1="303.60" x2="270.85" y2="310.42"/><line x1="274.12" y1="326.05" x2="274.34" y2="329.64"/><line x1="300.46" y1="338.18" x2="298.54" y2="340.00"/><line x1="274.34" y1="329.64" x2="274.31" y2="330.01"/><line x1="32.00" y1="479.98" x2="32.00" y2="447.50"/><line x1="211.51" y1="123.54" x2="209.66" y2="127.59"/><line x1="238.90" y1="154.73" x2="244.11" y2="132.45"/><line x1="206.59" y1="139.41" x2="206.38" y2="143.25"/><line x1="212.57" y1="167.66" x2="213.78" y2="170.58"/><line x1="263.66" y1="287.52" x2="266.49" y2="295.96"/><line x1="304.32" y1="332.53" x2="303.26" y2="334.53"/><line x1="231.35" y1="123.97" x2="234.04" y2="125.67"/><line x1="238.90" y1="154.73" x2="209.49" y2="159.52"/><line x1="280.92" y1="233.05" x2="252.50" y2="257.90"/><line x1="271.78" y1="346.09" x2="277.82" y2="351.53"/><line x1="272.20" y1="341.52" x2="272.02" y2="342.85"/><line x1="207.20" y1="135.52" x2="238.90" y2="154.73"/><line x1="208.66" y1="156.99" x2="209.49" y2="159.52"/><line x1="275.70" y1="351.80" x2="272.34" y2="349.73"/><line x1="225.68" y1="120.55" x2="228.57" y2="122.27"/><line x1="242.84" y1="234.74" x2="247.89" y2="246.66"/><line x1="268.86" y1="151.44" x2="269.40" y2="169.99"/><line x1="273.31" y1="217.02" x2="275.93" y2="222.38"/><line x1="289.86" y1="254.47" x2="291.87" y2="259.84"/><line x1="272.34" y1="349.73" x2="274.79" y2="351.75"/><line x1="290.51" y1="345.64" x2="273.69" y2="333.65"/><line x1="219.62" y1="117.06" x2="222.70" y2="118.81"/><line x1="32.00" y1="447.50" x2="64.49" y2="479.98"/></g></svg>