<svg xmlns="http://www.w3.org/2000/svg" width="512" height="512"><rect width="512" height="512" fill="#0a0f1a"/><text x="12" y="20" font-family="monospace" font-size="11" fill="#4a7fa5">FRONT (XZ)</text><g stroke="#00d4ff" stroke-width="0.6" opacity="0.85"><line x1="218.03" y1="303.06" x2="230.81" y2="288.87"/><line x1="336.37" y1="218.67" x2="364.58" y2="246.56"/><line x1="333.77" y1="215.57" x2="320.14" y2="204.71"/><line x1="336.37" y1="218.67" x2="372.11" y2="245.69"/><line x1="198.47" y1="146.66" x2="198.73" y2="147.44"/><line x1="312.83" y1="307.93" x2="313.44" y2="311.06"/><line x1="140.43" y1="149.82" x2="144.75" y2="145.71"/><line x1="320.84" y1="220.38" x2="323.19" y2="220.69"/><line x1="234.92" y1="206.87" x2="267.72" y2="206.26"/><line x1="269.56" y1="333.26" x2="266.26" y2="330.29"/><line x1="180.93" y1="195.03" x2="180.57" y2="192.69"/><line x1="320.14" y1="204.71" x2="354.77" y2="184.06"/><line x1="250.75" y1="122.36" x2="244.92" y2="161.35"/><line x1="242.90" y1="162.20" x2="216.86" y2="116.10"/><line x1="242.90" y1="162.20" x2="199.77" y2="136.86"/><line x1="275.35" y1="285.04" x2="302.64" y2="275.88"/><line x1="323.19" y1="220.69" x2="325.46" y2="221.00"/><line x1="242.90" y1="162.20" x2="201.47" y2="152.60"/><line x1="369.86" y1="247.36" x2="370.59" y2="247.09"/><line x1="175.08" y1="236.89" x2="170.88" y2="229.61"/><line x1="244.92" y1="161.35" x2="245.84" y2="120.69"/><line x1="287.00" y1="241.14" x2="289.46" y2="246.06"/><line x1="308.88" y1="347.05" x2="282.74" y2="332.40"/><line x1="220.70" y1="274.05" x2="217.04" y2="268.43"/><line x1="370.59" y1="247.09" x2="371.20" y2="246.73"/><line x1="333.90" y1="166.88" x2="304.82" y2="193.11"/><line x1="144.93" y1="175.36" x2="143.39" y2="170.81"/><line x1="215.01" y1="173.96" x2="242.53" y2="162.70"/><line x1="285.90" y1="322.67" x2="314.42" y2="325.53"/><line x1="303.01" y1="220.49" x2="301.56" y2="223.22"/><line x1="332.54" y1="221.84" x2="333.66" y2="234.56"/><line x1="282.74" y1="332.40" x2="307.21" y2="350.33"/><line x1="253.20" y1="317.01" x2="231.06" y2="321.08"/><line x1="304.19" y1="220.07" x2="303.22" y2="225.65"/><line x1="304.82" y1="193.11" x2="326.73" y2="161.99"/><line x1="143.39" y1="170.81" x2="142.13" y2="166.65"/><line x1="281.27" y1="299.64" x2="308.95" y2="293.52"/><line x1="333.66" y1="234.56" x2="333.11" y2="221.86"/><line x1="372.80" y1="243.27" x2="372.95" y2="242.21"/><line x1="231.06" y1="321.08" x2="249.96" y2="313.35"/><line x1="180.73" y1="202.14" x2="180.88" y2="201.70"/><line x1="320.14" y1="204.71" x2="312.26" y2="198.68"/><line x1="242.90" y1="162.20" x2="229.61" y2="116.29"/><line x1="242.90" y1="162.20" x2="208.14" y2="122.57"/><line x1="242.90" y1="162.20" x2="198.47" y2="146.66"/><line x1="301.69" y1="358.95" x2="299.66" y2="361.42"/><line x1="372.95" y1="242.21" x2="373.07" y2="241.00"/><line x1="283.84" y1="308.05" x2="284.74" y2="311.98"/><line x1="146.74" y1="180.30" x2="153.29" y2="149.02"/><line x1="180.88" y1="201.70" x2="181.00" y2="201.29"/><line x1="140.03" y1="151.70" x2="152.49" y2="148.09"/><line x1="243.91" y1="167.57" x2="245.21" y2="169.83"/><line x1="305.71" y1="219.76" x2="303.98" y2="226.15"/><line x1="299.66" y1="361.42" x2="276.21" y2="338.76"/><line x1="237.15" y1="297.51" x2="218.03" y2="303.06"/><line x1="285.11" y1="179.12" x2="298.97" y2="144.83"/><line x1="152.49" y1="148.09" x2="151.62" y2="147.31"/><line x1="284.74" y1="311.98" x2="312.83" y2="307.93"/><line x1="335.96" y1="221.15" x2="336.32" y2="220.75"/><line x1="218.03" y1="303.06" x2="233.97" y2="293.25"/><line x1="181.14" y1="197.43" x2="180.93" y2="195.03"/><line x1="214.68" y1="117.11" x2="212.49" y2="118.52"/><line x1="211.84" y1="294.22" x2="205.86" y2="285.48"/><line x1="280.96" y1="334.61" x2="278.78" y2="336.73"/><line x1="312.83" y1="307.93" x2="285.39" y2="315.73"/><line x1="288.92" y1="370.33" x2="286.91" y2="371.31"/><line x1="205.86" y1="285.48" x2="200.09" y2="276.85"/><line x1="279.16" y1="134.51" x2="260.31" y2="164.81"/><line x1="180.93" y1="195.03" x2="153.81" y2="196.87"/><line x1="147.63" y1="145.61" x2="146.51" y2="145.54"/><line x1="242.90" y1="162.20" x2="219.05" y2="115.49"/><line x1="314.47" y1="319.33" x2="314.54" y2="321.71"/><line x1="353.87" y1="242.08" x2="357.20" y2="243.54"/><line x1="286.91" y1="371.31" x2="284.97" y2="372.01"/><line x1="151.19" y1="191.09" x2="176.69" y2="181.63"/><line x1="146.51" y1="145.54" x2="144.75" y2="145.71"/><line x1="140.03" y1="151.70" x2="140.43" y2="149.82"/><line x1="480.00" y1="32.02" x2="447.51" y2="32.02"/><line x1="287.00" y1="241.14" x2="262.95" y2="258.95"/><line x1="361.89" y1="192.35" x2="334.52" y2="216.26"/><line x1="220.70" y1="274.05" x2="200.09" y2="276.85"/><line x1="269.80" y1="272.97" x2="298.58" y2="265.94"/><line x1="314.24" y1="229.57" x2="330.49" y2="233.67"/><line x1="285.90" y1="322.67" x2="314.54" y2="321.71"/><line x1="189.29" y1="260.16" x2="184.29" y2="252.17"/><line x1="261.34" y1="126.46" x2="255.92" y2="124.28"/><line x1="177.72" y1="183.76" x2="176.69" y2="181.63"/><line x1="285.11" y1="327.72" x2="311.65" y2="340.15"/><line x1="303.22" y1="225.65" x2="305.71" y2="219.76"/><line x1="205.23" y1="249.57" x2="179.37" y2="205.90"/><line x1="171.85" y1="173.23" x2="170.46" y2="171.18"/><line x1="249.07" y1="161.52" x2="245.89" y2="161.30"/><line x1="305.77" y1="148.76" x2="285.11" y2="179.12"/><line x1="312.07" y1="304.62" x2="284.74" y2="311.98"/><line x1="244.94" y1="339.53" x2="259.70" y2="323.93"/><line x1="340.17" y1="236.65" x2="335.96" y2="221.15"/><line x1="307.57" y1="219.57" x2="309.76" y2="219.52"/><line x1="146.74" y1="180.30" x2="169.00" y2="169.13"/><line x1="216.86" y1="116.10" x2="214.68" y2="117.11"/><line x1="277.63" y1="290.35" x2="279.60" y2="295.16"/><line x1="372.52" y1="222.71" x2="371.64" y2="216.49"/><line x1="244.10" y1="161.53" x2="243.43" y2="161.81"/><line x1="304.45" y1="280.59" x2="306.10" y2="285.11"/><line x1="259.04" y1="251.19" x2="284.44" y2="236.23"/><line x1="307.21" y1="350.33" x2="305.46" y2="353.41"/><line x1="309.76" y1="219.52" x2="308.27" y2="227.87"/><line x1="153.29" y1="149.02" x2="152.49" y2="148.09"/><line x1="371.64" y1="216.49" x2="370.42" y2="210.76"/><line x1="241.24" y1="119.25" x2="237.00" y2="118.04"/><line x1="269.25" y1="169.21" x2="279.16" y2="134.51"/><line x1="284.44" y1="236.23" x2="287.00" y2="241.14"/><line x1="280.96" y1="334.61" x2="303.62" y2="356.28"/><line x1="308.27" y1="227.87" x2="309.60" y2="228.30"/><line x1="336.60" y1="219.68" x2="353.87" y2="242.08"/><line x1="205.86" y1="285.48" x2="220.70" y2="274.05"/><line x1="279.16" y1="134.51" x2="264.64" y2="166.79"/><line x1="242.23" y1="164.05" x2="242.42" y2="164.68"/><line x1="202.25" y1="130.94" x2="200.86" y2="133.88"/><line x1="314.47" y1="319.33" x2="285.90" y2="322.67"/><line x1="276.21" y1="338.76" x2="269.24" y2="366.50"/><line x1="353.87" y1="242.08" x2="336.54" y2="219.19"/><line x1="297.81" y1="187.99" x2="291.24" y2="183.33"/><line x1="335.68" y1="217.53" x2="361.89" y2="192.35"/><line x1="151.19" y1="191.09" x2="177.72" y2="183.76"/><line x1="200.86" y1="133.88" x2="199.77" y2="136.86"/><line x1="310.14" y1="297.42" x2="311.18" y2="301.12"/><line x1="480.00" y1="32.02" x2="480.00" y2="64.50"/><line x1="334.82" y1="221.69" x2="335.46" y2="221.46"/><line x1="314.66" y1="219.73" x2="314.24" y2="229.57"/><line x1="269.24" y1="366.50" x2="264.05" y2="361.77"/><line x1="361.89" y1="192.35" x2="335.16" y2="216.91"/><line x1="252.53" y1="162.18" x2="261.34" y2="126.46"/><line x1="480.00" y1="479.91" x2="480.00" y2="447.42"/><line x1="269.80" y1="272.97" x2="296.42" y2="260.94"/><line x1="314.24" y1="229.57" x2="316.58" y2="219.90"/><line x1="364.58" y1="246.56" x2="366.18" y2="247.12"/><line x1="153.29" y1="149.02" x2="141.15" y2="162.89"/><line x1="189.29" y1="260.16" x2="205.23" y2="249.57"/><line x1="261.34" y1="126.46" x2="249.07" y2="161.52"/><line x1="198.73" y1="147.44" x2="199.15" y2="148.42"/><line x1="336.53" y1="220.26" x2="336.60" y2="219.68"/><line x1="285.11" y1="327.72" x2="312.69" y2="336.59"/><line x1="230.81" y1="288.87" x2="227.58" y2="284.27"/><line x1="366.18" y1="247.12" x2="367.35" y2="247.46"/><line x1="354.77" y1="184.06" x2="350.38" y2="179.84"/><line x1="149.73" y1="146.17" x2="148.71" y2="145.82"/><line x1="171.85" y1="173.23" x2="146.74" y2="180.30"/><line x1="199.15" y1="148.42" x2="199.75" y2="149.60"/><line x1="447.51" y1="479.91" x2="480.00" y2="447.42"/><line x1="276.21" y1="338.76" x2="284.97" y2="372.01"/><line x1="244.94" y1="339.53" x2="262.97" y2="327.18"/><line x1="179.37" y1="205.90" x2="180.56" y2="202.60"/><line x1="350.38" y1="179.84" x2="345.44" y2="175.57"/><line x1="146.74" y1="180.30" x2="170.46" y2="171.18"/><line x1="151.19" y1="191.09" x2="148.84" y2="185.57"/><line x1="277.63" y1="290.35" x2="304.45" y2="280.59"/><line x1="327.44" y1="221.26" x2="329.15" y2="221.48"/><line x1="166.93" y1="222.55" x2="163.25" y2="215.75"/><line x1="244.10" y1="161.53" x2="241.24" y2="119.25"/><line x1="301.77" y1="223.89" x2="302.11" y2="224.53"/><line x1="307.21" y1="350.33" x2="280.96" y2="334.61"/><line x1="371.71" y1="246.26" x2="372.11" y2="245.69"/><line x1="319.66" y1="157.34" x2="312.67" y2="152.92"/><line x1="163.25" y1="215.75" x2="159.84" y2="209.20"/><line x1="153.29" y1="149.02" x2="140.03" y2="151.70"/><line x1="142.13" y1="166.65" x2="141.15" y2="162.89"/><line x1="242.31" y1="163.32" x2="242.23" y2="164.05"/><line x1="282.68" y1="303.94" x2="283.84" y2="308.05"/><line x1="358.61" y1="188.23" x2="354.77" y2="184.06"/><line x1="249.96" y1="313.35" x2="246.74" y2="309.56"/><line x1="156.69" y1="202.90" x2="181.21" y2="199.86"/><line x1="141.15" y1="162.89" x2="140.46" y2="159.51"/><line x1="276.21" y1="338.76" x2="295.36" y2="365.73"/><line x1="179.37" y1="205.90" x2="170.88" y2="229.61"/><line x1="246.74" y1="309.56" x2="243.53" y2="305.67"/><line x1="276.21" y1="338.76" x2="273.85" y2="369.87"/><line x1="181.00" y1="201.29" x2="181.09" y2="200.90"/><line x1="284.12" y1="330.10" x2="282.74" y2="332.40"/><line x1="304.89" y1="226.59" x2="305.90" y2="227.02"/><line x1="279.41" y1="175.36" x2="274.15" y2="172.06"/><line x1="181.09" y1="200.90" x2="181.16" y2="200.53"/><line x1="285.39" y1="315.73" x2="313.92" y2="314.01"/><line x1="480.00" y1="479.91" x2="447.51" y2="479.91"/><line x1="330.49" y1="233.67" x2="331.70" y2="221.77"/><line x1="343.51" y1="237.85" x2="346.91" y2="239.16"/><line x1="237.89" y1="330.26" x2="231.06" y2="321.08"/><line x1="153.29" y1="149.02" x2="142.13" y2="166.65"/><line x1="153.81" y1="196.87" x2="180.07" y2="190.39"/><line x1="292.25" y1="141.14" x2="285.62" y2="137.70"/><line x1="150.70" y1="146.67" x2="149.73" y2="146.17"/><line x1="325.46" y1="221.00" x2="327.44" y2="221.26"/><line x1="156.69" y1="202.90" x2="180.88" y2="201.70"/><line x1="230.81" y1="288.87" x2="211.84" y2="294.22"/><line x1="144.75" y1="145.71" x2="143.27" y2="146.22"/><line x1="245.84" y1="120.69" x2="244.10" y2="161.53"/><line x1="262.95" y1="258.95" x2="266.53" y2="266.21"/><line x1="311.25" y1="219.54" x2="312.88" y2="219.61"/><line x1="276.21" y1="338.76" x2="286.91" y2="371.31"/><line x1="366.90" y1="200.72" x2="364.63" y2="196.43"/><line x1="371.20" y1="246.73" x2="371.71" y2="246.26"/><line x1="200.09" y1="276.85" x2="213.25" y2="262.48"/><line x1="260.31" y1="164.81" x2="256.28" y2="163.28"/><line x1="276.21" y1="338.76" x2="272.89" y2="336.08"/><line x1="179.37" y1="205.90" x2="156.69" y2="202.90"/><line x1="141.11" y1="148.28" x2="142.06" y2="147.08"/><line x1="289.46" y1="246.06" x2="291.86" y2="251.00"/><line x1="278.78" y1="336.73" x2="276.21" y2="338.76"/><line x1="301.56" y1="223.22" x2="301.77" y2="223.89"/><line x1="272.97" y1="131.57" x2="267.03" y2="128.89"/><line x1="326.73" y1="161.99" x2="319.66" y2="157.34"/><line x1="330.49" y1="233.67" x2="323.19" y2="220.69"/><line x1="314.42" y1="325.53" x2="314.07" y2="329.28"/><line x1="258.27" y1="355.71" x2="251.90" y2="348.29"/><line x1="333.11" y1="221.86" x2="334.03" y2="221.82"/><line x1="336.37" y1="218.67" x2="373.05" y2="229.41"/><line x1="334.52" y1="216.26" x2="333.77" y2="215.57"/><line x1="319.66" y1="157.34" x2="297.81" y2="187.99"/><line x1="298.58" y1="265.94" x2="300.67" y2="270.96"/><line x1="282.68" y1="303.94" x2="310.14" y2="297.42"/><line x1="272.89" y1="336.08" x2="269.56" y2="333.26"/><line x1="334.03" y1="221.82" x2="334.82" y2="221.69"/><line x1="184.29" y1="252.17" x2="179.56" y2="244.41"/><line x1="358.61" y1="188.23" x2="320.14" y2="204.71"/><line x1="373.07" y1="241.00" x2="373.15" y2="239.67"/><line x1="156.69" y1="202.90" x2="181.19" y2="200.18"/><line x1="226.46" y1="115.73" x2="223.67" y2="115.41"/><line x1="301.49" y1="222.49" x2="303.01" y2="220.49"/><line x1="272.73" y1="279.25" x2="275.35" y2="285.04"/><line x1="311.65" y1="340.15" x2="310.37" y2="343.63"/><line x1="303.98" y1="226.15" x2="304.89" y2="226.59"/><line x1="276.21" y1="338.76" x2="297.56" y2="363.67"/><line x1="179.37" y1="205.90" x2="175.08" y2="236.89"/><line x1="373.15" y1="239.67" x2="373.21" y2="238.20"/><line x1="276.21" y1="338.76" x2="277.87" y2="371.89"/><line x1="245.89" y1="161.30" x2="244.92" y2="161.35"/><line x1="298.97" y1="144.83" x2="279.41" y2="175.36"/><line x1="151.62" y1="147.31" x2="150.70" y2="146.67"/><line x1="279.60" y1="295.16" x2="281.27" y2="299.64"/><line x1="246.89" y1="172.63" x2="248.95" y2="175.97"/><line x1="284.12" y1="330.10" x2="308.88" y2="347.05"/><line x1="304.89" y1="226.59" x2="307.57" y2="219.57"/><line x1="336.32" y1="220.75" x2="343.51" y2="237.85"/><line x1="233.97" y1="293.25" x2="230.81" y2="288.87"/><line x1="243.43" y1="161.81" x2="242.90" y2="162.20"/><line x1="279.41" y1="175.36" x2="292.25" y2="141.14"/><line x1="336.37" y1="218.67" x2="369.03" y2="247.52"/><line x1="285.39" y1="315.73" x2="313.44" y2="311.06"/><line x1="330.49" y1="233.67" x2="330.57" y2="221.64"/><line x1="336.37" y1="218.67" x2="372.95" y2="242.21"/><line x1="343.51" y1="237.85" x2="336.53" y2="220.26"/><line x1="242.53" y1="162.70" x2="242.31" y2="163.32"/><line x1="237.89" y1="330.26" x2="253.20" y2="317.01"/><line x1="336.37" y1="218.67" x2="368.84" y2="205.50"/><line x1="370.42" y1="210.76" x2="368.84" y2="205.50"/><line x1="153.81" y1="196.87" x2="180.57" y2="192.69"/><line x1="234.92" y1="206.87" x2="243.91" y2="167.57"/><line x1="210.31" y1="120.34" x2="208.14" y2="122.57"/><line x1="309.60" y1="228.30" x2="311.25" y2="219.54"/><line x1="336.54" y1="219.19" x2="360.09" y2="244.77"/><line x1="284.97" y1="372.01" x2="283.10" y2="372.42"/><line x1="156.69" y1="202.90" x2="180.73" y2="202.14"/><line x1="368.84" y1="205.50" x2="366.90" y2="200.72"/><line x1="308.95" y1="293.52" x2="282.68" y2="303.94"/><line x1="156.69" y1="202.90" x2="153.81" y2="196.87"/><line x1="144.75" y1="145.71" x2="141.11" y2="148.28"/><line x1="262.95" y1="258.95" x2="289.46" y2="246.06"/><line x1="311.25" y1="219.54" x2="311.04" y2="228.72"/><line x1="229.61" y1="116.29" x2="226.46" y2="115.73"/><line x1="224.44" y1="312.02" x2="218.03" y2="303.06"/><line x1="200.09" y1="276.85" x2="217.04" y2="268.43"/><line x1="179.37" y1="205.90" x2="159.84" y2="209.20"/><line x1="260.31" y1="164.81" x2="272.97" y2="131.57"/><line x1="316.58" y1="219.90" x2="318.64" y2="220.11"/><line x1="314.54" y1="321.71" x2="314.42" y2="325.53"/><line x1="357.20" y1="243.54" x2="360.09" y2="244.77"/><line x1="245.21" y1="169.83" x2="246.89" y2="172.63"/><line x1="176.69" y1="181.63" x2="175.59" y2="179.51"/><line x1="199.00" y1="139.89" x2="198.54" y2="142.97"/><line x1="330.49" y1="233.67" x2="320.84" y2="220.38"/><line x1="336.37" y1="218.67" x2="371.71" y2="246.26"/><line x1="258.27" y1="355.71" x2="272.89" y2="336.08"/><line x1="336.37" y1="218.67" x2="373.22" y2="236.59"/><line x1="334.52" y1="216.26" x2="358.61" y2="188.23"/><line x1="140.43" y1="149.82" x2="146.51" y2="145.54"/><line x1="255.92" y1="124.28" x2="250.75" y2="122.36"/><line x1="153.81" y1="196.87" x2="151.19" y2="191.09"/><line x1="234.92" y1="206.87" x2="251.37" y2="179.85"/><line x1="298.58" y1="265.94" x2="272.73" y2="279.25"/><line x1="212.49" y1="118.52" x2="210.31" y2="120.34"/><line x1="184.29" y1="252.17" x2="179.37" y2="205.90"/><line x1="242.90" y1="162.20" x2="200.86" y2="133.88"/><line x1="156.69" y1="202.90" x2="181.16" y2="200.53"/><line x1="242.90" y1="162.20" x2="200.52" y2="151.00"/><line x1="285.77" y1="319.29" x2="285.90" y2="322.67"/><line x1="301.49" y1="222.49" x2="301.66" y2="221.71"/><line x1="311.65" y1="340.15" x2="284.12" y2="330.10"/><line x1="259.70" y1="323.93" x2="256.44" y2="320.54"/><line x1="339.95" y1="171.25" x2="333.90" y2="166.88"/><line x1="170.46" y1="171.18" x2="169.00" y2="169.13"/><line x1="279.60" y1="295.16" x2="307.61" y2="289.42"/><line x1="264.64" y1="166.79" x2="260.31" y2="164.81"/><line x1="243.43" y1="161.81" x2="233.13" y2="117.05"/><line x1="304.19" y1="220.07" x2="302.60" y2="225.11"/><line x1="336.37" y1="218.67" x2="368.09" y2="247.56"/><line x1="336.37" y1="218.67" x2="372.80" y2="243.27"/><line x1="336.37" y1="218.67" x2="370.42" y2="210.76"/><line x1="234.92" y1="206.87" x2="242.98" y2="165.86"/><line x1="303.62" y1="356.28" x2="301.69" y2="358.95"/><line x1="320.14" y1="204.71" x2="339.95" y2="171.25"/><line x1="243.53" y1="305.67" x2="240.34" y2="301.65"/><line x1="336.54" y1="219.19" x2="357.20" y2="243.54"/><line x1="148.84" y1="185.57" x2="146.74" y2="180.30"/><line x1="312.67" y1="152.92" x2="305.77" y2="148.76"/><line x1="242.90" y1="162.20" x2="210.31" y2="120.34"/><line x1="242.90" y1="162.20" x2="198.38" y2="146.09"/><line x1="242.90" y1="162.20" x2="242.53" y2="162.70"/><line x1="283.84" y1="308.05" x2="312.07" y2="304.62"/><line x1="480.00" y1="64.50" x2="447.51" y2="32.02"/><line x1="336.89" y1="235.55" x2="340.17" y2="236.65"/><line x1="224.44" y1="312.02" x2="237.15" y2="297.51"/><line x1="316.58" y1="219.90" x2="330.49" y2="233.67"/><line x1="215.01" y1="173.96" x2="234.92" y2="206.87"/><line x1="336.37" y1="218.67" x2="371.20" y2="246.73"/><line x1="211.84" y1="294.22" x2="224.21" y2="279.32"/><line x1="367.35" y1="247.46" x2="368.09" y2="247.56"/><line x1="336.37" y1="218.67" x2="373.21" y2="238.20"/><line x1="274.15" y1="172.06" x2="269.25" y2="169.21"/><line x1="140.43" y1="149.82" x2="147.63" y2="145.61"/><line x1="255.92" y1="124.28" x2="245.89" y2="161.30"/><line x1="267.72" y1="206.26" x2="284.44" y2="236.23"/><line x1="333.66" y1="234.56" x2="336.89" y2="235.55"/><line x1="234.92" y1="206.87" x2="248.95" y2="175.97"/><line x1="313.92" y1="314.01" x2="314.26" y2="316.76"/><line x1="231.06" y1="321.08" x2="224.44" y2="312.02"/><line x1="242.90" y1="162.20" x2="221.25" y2="115.30"/><line x1="242.90" y1="162.20" x2="202.25" y2="130.94"/><line x1="266.53" y1="266.21" x2="269.80" y2="272.97"/><line x1="242.90" y1="162.20" x2="199.75" y2="149.60"/><line x1="200.52" y1="151.00" x2="201.47" y2="152.60"/><line x1="285.77" y1="319.29" x2="314.47" y2="319.33"/><line x1="329.15" y1="221.48" x2="330.57" y2="221.64"/><line x1="259.70" y1="323.93" x2="237.89" y2="330.26"/><line x1="140.03" y1="151.70" x2="149.73" y2="146.17"/><line x1="285.70" y1="325.24" x2="285.11" y2="327.72"/><line x1="279.60" y1="295.16" x2="306.10" y2="285.11"/><line x1="199.77" y1="136.86" x2="199.00" y2="139.89"/><line x1="159.84" y1="209.20" x2="156.69" y2="202.90"/><line x1="243.43" y1="161.81" x2="237.00" y2="118.04"/><line x1="264.05" y1="361.77" x2="258.27" y2="355.71"/><line x1="335.16" y1="216.91" x2="334.52" y2="216.26"/><line x1="304.19" y1="220.07" x2="302.11" y2="224.53"/><line x1="251.90" y1="348.29" x2="244.94" y2="339.53"/><line x1="336.37" y1="218.67" x2="367.35" y2="247.46"/><line x1="305.46" y1="353.41" x2="303.62" y2="356.28"/><line x1="194.56" y1="268.39" x2="189.29" y2="260.16"/><line x1="296.42" y1="260.94" x2="298.58" y2="265.94"/><line x1="267.03" y1="128.89" x2="261.34" y2="126.46"/><line x1="234.92" y1="206.87" x2="242.42" y2="164.68"/><line x1="205.23" y1="249.57" x2="184.29" y2="252.17"/><line x1="249.07" y1="161.52" x2="255.92" y2="124.28"/><line x1="320.14" y1="204.71" x2="345.44" y2="175.57"/><line x1="243.53" y1="305.67" x2="224.44" y2="312.02"/><line x1="148.84" y1="185.57" x2="171.85" y2="173.23"/><line x1="312.67" y1="152.92" x2="291.24" y2="183.33"/><line x1="242.90" y1="162.20" x2="212.49" y2="118.52"/><line x1="312.69" y1="336.59" x2="311.65" y2="340.15"/><line x1="242.90" y1="162.20" x2="198.54" y2="142.97"/><line x1="307.57" y1="219.57" x2="307.03" y2="227.45"/><line x1="242.90" y1="162.20" x2="215.01" y2="173.96"/><line x1="283.84" y1="308.05" x2="311.18" y2="301.12"/><line x1="199.75" y1="149.60" x2="200.52" y2="151.00"/><line x1="181.16" y1="200.53" x2="181.19" y2="200.18"/><line x1="221.25" y1="115.30" x2="219.05" y2="115.49"/><line x1="262.97" y1="327.18" x2="259.70" y2="323.93"/><line x1="345.44" y1="175.57" x2="339.95" y2="171.25"/><line x1="295.36" y1="365.73" x2="293.15" y2="367.54"/><line x1="373.22" y1="236.59" x2="373.05" y2="229.41"/><line x1="304.45" y1="280.59" x2="279.60" y2="295.16"/><line x1="215.01" y1="173.96" x2="242.23" y2="164.05"/><line x1="303.01" y1="220.49" x2="304.19" y2="220.07"/><line x1="251.37" y1="179.85" x2="267.72" y2="206.26"/><line x1="241.24" y1="119.25" x2="243.43" y2="161.81"/><line x1="304.82" y1="193.11" x2="297.81" y2="187.99"/><line x1="211.84" y1="294.22" x2="227.58" y2="284.27"/><line x1="274.15" y1="172.06" x2="285.62" y2="137.70"/><line x1="280.96" y1="334.61" x2="305.46" y2="353.41"/><line x1="372.11" y1="245.69" x2="372.40" y2="245.01"/><line x1="32.16" y1="32.09" x2="32.16" y2="64.58"/><line x1="333.66" y1="234.56" x2="334.82" y2="221.69"/><line x1="313.92" y1="314.01" x2="285.77" y2="319.29"/><line x1="242.23" y1="164.05" x2="234.92" y2="206.87"/><line x1="336.09" y1="218.12" x2="335.68" y2="217.53"/><line x1="242.90" y1="162.20" x2="223.67" y2="115.41"/><line x1="242.90" y1="162.20" x2="203.96" y2="128.04"/><line x1="205.97" y1="125.19" x2="203.96" y2="128.04"/><line x1="266.53" y1="266.21" x2="294.18" y2="255.97"/><line x1="297.81" y1="187.99" x2="312.67" y2="152.92"/><line x1="312.88" y1="219.61" x2="314.66" y2="219.73"/><line x1="140.46" y1="159.51" x2="140.03" y2="156.52"/><line x1="281.29" y1="372.56" x2="277.87" y2="371.89"/><line x1="310.14" y1="297.42" x2="283.84" y2="308.05"/><line x1="140.03" y1="151.70" x2="150.70" y2="146.67"/><line x1="256.28" y1="163.28" x2="252.53" y2="162.18"/><line x1="334.82" y1="221.69" x2="336.89" y2="235.55"/><line x1="305.71" y1="219.76" x2="307.57" y2="219.57"/><line x1="285.70" y1="325.24" x2="313.50" y2="332.98"/><line x1="223.67" y1="115.41" x2="221.25" y2="115.30"/><line x1="362.55" y1="245.77" x2="364.58" y2="246.56"/><line x1="297.56" y1="363.67" x2="295.36" y2="365.73"/><line x1="251.90" y1="348.29" x2="266.26" y2="330.29"/><line x1="336.53" y1="220.26" x2="350.36" y2="240.57"/><line x1="300.67" y1="270.96" x2="302.64" y2="275.88"/><line x1="149.73" y1="146.17" x2="140.43" y2="149.82"/><line x1="250.75" y1="122.36" x2="245.84" y2="120.69"/><line x1="242.90" y1="162.20" x2="214.68" y2="117.11"/><line x1="307.57" y1="219.57" x2="305.90" y2="227.02"/><line x1="151.19" y1="191.09" x2="174.41" y2="177.40"/><line x1="311.04" y1="228.72" x2="312.59" y2="229.15"/><line x1="180.07" y1="190.39" x2="179.43" y2="188.14"/><line x1="333.90" y1="166.88" x2="326.73" y2="161.99"/><line x1="301.77" y1="223.89" x2="304.19" y2="220.07"/><line x1="213.25" y1="262.48" x2="209.31" y2="256.20"/><line x1="307.61" y1="289.42" x2="308.95" y2="293.52"/><line x1="153.29" y1="149.02" x2="139.89" y2="153.93"/><line x1="332.54" y1="221.84" x2="333.11" y2="221.86"/><line x1="143.27" y1="146.22" x2="142.06" y2="147.08"/><line x1="253.20" y1="317.01" x2="249.96" y2="313.35"/><line x1="32.00" y1="479.98" x2="64.49" y2="479.98"/><line x1="233.13" y1="117.05" x2="229.61" y2="116.29"/><line x1="174.41" y1="177.40" x2="173.17" y2="175.31"/><line x1="340.17" y1="236.65" x2="343.51" y2="237.85"/><line x1="146.74" y1="180.30" x2="144.93" y2="175.36"/><line x1="140.03" y1="151.70" x2="151.62" y2="147.31"/><line x1="373.21" y1="238.20" x2="373.22" y2="236.59"/><line x1="285.70" y1="325.24" x2="314.07" y2="329.28"/><line x1="237.15" y1="297.51" x2="233.97" y2="293.25"/><line x1="248.95" y1="175.97" x2="251.37" y2="179.85"/><line x1="259.04" y1="251.19" x2="262.95" y2="258.95"/><line x1="309.76" y1="219.52" x2="311.25" y2="219.54"/><line x1="284.74" y1="311.98" x2="285.39" y2="315.73"/><line x1="292.25" y1="141.14" x2="274.15" y2="172.06"/><line x1="153.29" y1="149.02" x2="143.39" y2="170.81"/><line x1="251.90" y1="348.29" x2="269.56" y2="333.26"/><line x1="313.44" y1="311.06" x2="313.92" y2="314.01"/><line x1="336.53" y1="220.26" x2="346.91" y2="239.16"/><line x1="300.67" y1="270.96" x2="275.35" y2="285.04"/><line x1="180.57" y1="192.69" x2="180.07" y2="190.39"/><line x1="208.14" y1="122.57" x2="205.97" y2="125.19"/><line x1="279.16" y1="134.51" x2="272.97" y2="131.57"/><line x1="283.10" y1="372.42" x2="281.29" y2="372.56"/><line x1="276.21" y1="338.76" x2="288.92" y2="370.33"/><line x1="366.90" y1="200.72" x2="336.09" y2="218.12"/><line x1="276.21" y1="338.76" x2="258.27" y2="355.71"/><line x1="310.37" y1="343.63" x2="308.88" y2="347.05"/><line x1="141.11" y1="148.28" x2="143.27" y2="146.22"/><line x1="289.46" y1="246.06" x2="266.53" y2="266.21"/><line x1="151.19" y1="191.09" x2="175.59" y2="179.51"/><line x1="278.78" y1="336.73" x2="299.66" y2="361.42"/><line x1="311.04" y1="228.72" x2="312.88" y2="219.61"/><line x1="202.58" y1="154.40" x2="215.01" y2="173.96"/><line x1="217.04" y1="268.43" x2="213.25" y2="262.48"/><line x1="272.97" y1="131.57" x2="256.28" y2="163.28"/><line x1="361.89" y1="192.35" x2="358.61" y2="188.23"/><line x1="314.42" y1="325.53" x2="285.70" y2="325.24"/><line x1="360.09" y1="244.77" x2="362.55" y2="245.77"/><line x1="269.80" y1="272.97" x2="272.73" y2="279.25"/><line x1="213.25" y1="262.48" x2="194.56" y2="268.39"/><line x1="307.61" y1="289.42" x2="281.27" y2="299.64"/><line x1="175.59" y1="179.51" x2="174.41" y2="177.40"/><line x1="153.29" y1="149.02" x2="140.03" y2="156.52"/><line x1="198.54" y1="142.97" x2="198.38" y2="146.09"/><line x1="32.00" y1="479.98" x2="32.00" y2="447.50"/><line x1="233.13" y1="117.05" x2="242.90" y2="162.20"/><line x1="272.89" y1="336.08" x2="251.90" y2="348.29"/><line x1="358.61" y1="188.23" x2="333.77" y2="215.57"/><line x1="285.11" y1="327.72" x2="284.12" y2="330.10"/><line x1="303.22" y1="225.65" x2="303.98" y2="226.15"/><line x1="174.41" y1="177.40" x2="148.84" y2="185.57"/><line x1="272.73" y1="279.25" x2="300.67" y2="270.96"/><line x1="305.77" y1="148.76" x2="298.97" y2="144.83"/><line x1="318.64" y1="220.11" x2="320.84" y2="220.38"/><line x1="242.98" y1="165.86" x2="243.91" y2="167.57"/><line x1="179.37" y1="205.90" x2="179.56" y2="244.41"/><line x1="312.07" y1="304.62" x2="312.83" y2="307.93"/><line x1="245.89" y1="161.30" x2="250.75" y2="122.36"/><line x1="276.21" y1="338.76" x2="281.29" y2="372.56"/><line x1="244.94" y1="339.53" x2="237.89" y2="330.26"/><line x1="340.17" y1="236.65" x2="336.32" y2="220.75"/><line x1="302.16" y1="221.04" x2="303.01" y2="220.49"/><line x1="284.12" y1="330.10" x2="310.37" y2="343.63"/><line x1="369.03" y1="247.52" x2="369.86" y2="247.36"/><line x1="312.26" y1="198.68" x2="304.82" y2="193.11"/><line x1="179.56" y1="244.41" x2="175.08" y2="236.89"/><line x1="169.00" y1="169.13" x2="153.29" y2="149.02"/><line x1="201.47" y1="152.60" x2="202.58" y2="154.40"/><line x1="330.49" y1="233.67" x2="329.15" y2="221.48"/><line x1="237.89" y1="330.26" x2="256.44" y2="320.54"/><line x1="259.04" y1="251.19" x2="287.00" y2="241.14"/><line x1="309.76" y1="219.52" x2="309.60" y2="228.30"/><line x1="153.29" y1="149.02" x2="144.93" y2="175.36"/><line x1="306.10" y1="285.11" x2="307.61" y2="289.42"/><line x1="269.25" y1="169.21" x2="264.64" y2="166.79"/><line x1="256.44" y1="320.54" x2="253.20" y2="317.01"/><line x1="156.69" y1="202.90" x2="180.56" y2="202.60"/><line x1="156.69" y1="202.90" x2="180.93" y2="195.03"/><line x1="336.60" y1="219.68" x2="336.54" y2="219.19"/><line x1="291.24" y1="183.33" x2="285.11" y2="179.12"/><line x1="276.21" y1="338.76" x2="291.00" y2="369.07"/><line x1="180.56" y1="202.60" x2="180.73" y2="202.14"/><line x1="179.37" y1="205.90" x2="163.25" y2="215.75"/><line x1="276.21" y1="338.76" x2="264.05" y2="361.77"/><line x1="335.68" y1="217.53" x2="335.16" y2="216.91"/><line x1="335.46" y1="221.46" x2="335.96" y2="221.15"/><line x1="278.78" y1="336.73" x2="301.69" y2="358.95"/><line x1="314.66" y1="219.73" x2="316.58" y2="219.90"/><line x1="139.89" y1="153.93" x2="140.03" y2="151.70"/><line x1="252.53" y1="162.18" x2="249.07" y2="161.52"/><line x1="330.49" y1="233.67" x2="318.64" y2="220.11"/><line x1="240.34" y1="301.65" x2="237.15" y2="297.51"/><line x1="330.49" y1="233.67" x2="333.66" y2="234.56"/><line x1="153.29" y1="149.02" x2="140.46" y2="159.51"/><line x1="153.81" y1="196.87" x2="178.65" y2="185.93"/><line x1="307.03" y1="227.45" x2="308.27" y2="227.87"/><line x1="368.09" y1="247.56" x2="369.03" y2="247.52"/><line x1="285.62" y1="137.70" x2="279.16" y2="134.51"/><line x1="156.69" y1="202.90" x2="181.09" y2="200.90"/><line x1="301.49" y1="222.49" x2="302.16" y2="221.04"/><line x1="350.36" y1="240.57" x2="353.87" y2="242.08"/><line x1="224.21" y1="279.32" x2="220.70" y2="274.05"/><line x1="339.95" y1="171.25" x2="312.26" y2="198.68"/><line x1="276.21" y1="338.76" x2="283.10" y2="372.42"/><line x1="302.16" y1="221.04" x2="301.66" y2="221.71"/><line x1="330.57" y1="221.64" x2="331.70" y2="221.77"/><line x1="364.63" y1="196.43" x2="361.89" y2="192.35"/><line x1="178.65" y1="185.93" x2="177.72" y2="183.76"/><line x1="312.26" y1="198.68" x2="333.90" y2="166.88"/><line x1="331.70" y1="221.77" x2="332.54" y2="221.84"/><line x1="330.49" y1="233.67" x2="327.44" y2="221.26"/><line x1="336.37" y1="218.67" x2="372.62" y2="244.21"/><line x1="372.40" y1="245.01" x2="372.62" y2="244.21"/><line x1="336.37" y1="218.67" x2="371.64" y2="216.49"/><line x1="237.00" y1="118.04" x2="233.13" y2="117.05"/><line x1="294.18" y1="255.97" x2="296.42" y2="260.94"/><line x1="302.11" y1="224.53" x2="302.60" y2="225.11"/><line x1="303.62" y1="356.28" x2="278.78" y2="336.73"/><line x1="209.31" y1="256.20" x2="205.23" y2="249.57"/><line x1="372.62" y1="244.21" x2="372.80" y2="243.27"/><line x1="140.03" y1="156.52" x2="139.89" y2="153.93"/><line x1="156.69" y1="202.90" x2="181.14" y2="197.43"/><line x1="242.42" y1="164.68" x2="242.98" y2="165.86"/><line x1="313.50" y1="332.98" x2="312.69" y2="336.59"/><line x1="302.60" y1="225.11" x2="303.22" y2="225.65"/><line x1="336.89" y1="235.55" x2="335.46" y2="221.46"/><line x1="224.44" y1="312.02" x2="240.34" y2="301.65"/><line x1="291.24" y1="183.33" x2="305.77" y2="148.76"/><line x1="276.21" y1="338.76" x2="293.15" y2="367.54"/><line x1="179.37" y1="205.90" x2="166.93" y2="222.55"/><line x1="311.18" y1="301.12" x2="312.07" y2="304.62"/><line x1="266.26" y1="330.29" x2="262.97" y2="327.18"/><line x1="335.46" y1="221.46" x2="340.17" y2="236.65"/><line x1="181.19" y1="200.18" x2="181.21" y2="199.86"/><line x1="219.05" y1="115.49" x2="216.86" y2="116.10"/><line x1="302.64" y1="275.88" x2="304.45" y2="280.59"/><line x1="305.90" y1="227.02" x2="307.03" y2="227.45"/><line x1="293.15" y1="367.54" x2="291.00" y2="369.07"/><line x1="336.37" y1="218.67" x2="370.59" y2="247.09"/><line x1="373.05" y1="229.41" x2="372.52" y2="222.71"/><line x1="285.39" y1="315.73" x2="285.77" y2="319.29"/><line x1="330.49" y1="233.67" x2="332.54" y2="221.84"/><line x1="336.37" y1="218.67" x2="373.15" y2="239.67"/><line x1="181.21" y1="199.86" x2="181.14" y2="197.43"/><line x1="140.43" y1="149.82" x2="148.71" y2="145.82"/><line x1="336.37" y1="218.67" x2="336.09" y2="218.12"/><line x1="267.72" y1="206.26" x2="259.04" y2="251.19"/><line x1="153.81" y1="196.87" x2="179.43" y2="188.14"/><line x1="234.92" y1="206.87" x2="246.89" y2="172.63"/><line x1="307.03" y1="227.45" x2="309.76" y2="219.52"/><line x1="231.06" y1="321.08" x2="243.53" y2="305.67"/><line x1="291.00" y1="369.07" x2="288.92" y2="370.33"/><line x1="227.58" y1="284.27" x2="224.21" y2="279.32"/><line x1="285.62" y1="137.70" x2="269.25" y2="169.21"/><line x1="336.54" y1="219.19" x2="336.37" y2="218.67"/><line x1="156.69" y1="202.90" x2="181.00" y2="201.29"/><line x1="148.71" y1="145.82" x2="147.63" y2="145.61"/><line x1="242.90" y1="162.20" x2="199.15" y2="148.42"/><line x1="285.77" y1="319.29" x2="314.26" y2="316.76"/><line x1="245.84" y1="120.69" x2="241.24" y2="119.25"/><line x1="350.36" y1="240.57" x2="336.60" y2="219.68"/><line x1="224.21" y1="279.32" x2="205.86" y2="285.48"/><line x1="179.43" y1="188.14" x2="178.65" y2="185.93"/><line x1="203.96" y1="128.04" x2="202.25" y2="130.94"/><line x1="200.09" y1="276.85" x2="194.56" y2="268.39"/><line x1="64.64" y1="32.09" x2="32.16" y2="64.58"/><line x1="312.59" y1="229.15" x2="314.24" y2="229.57"/><line x1="314.26" y1="316.76" x2="314.47" y2="319.33"/><line x1="277.87" y1="371.89" x2="273.85" y2="369.87"/><line x1="364.63" y1="196.43" x2="335.68" y2="217.53"/><line x1="178.65" y1="185.93" x2="151.19" y2="191.09"/><line x1="291.86" y1="251.00" x2="294.18" y2="255.97"/><line x1="218.03" y1="303.06" x2="211.84" y2="294.22"/><line x1="336.37" y1="218.67" x2="366.18" y2="247.12"/><line x1="273.85" y1="369.87" x2="269.24" y2="366.50"/><line x1="194.56" y1="268.39" x2="209.31" y2="256.20"/><line x1="330.49" y1="233.67" x2="325.46" y2="221.00"/><line x1="336.37" y1="218.67" x2="372.40" y2="245.01"/><line x1="267.03" y1="128.89" x2="252.53" y2="162.18"/><line x1="336.37" y1="218.67" x2="372.52" y2="222.71"/><line x1="140.43" y1="149.82" x2="141.11" y2="148.28"/><line x1="294.18" y1="255.97" x2="269.80" y2="272.97"/><line x1="314.07" y1="329.28" x2="313.50" y2="332.98"/><line x1="234.92" y1="206.87" x2="259.04" y2="251.19"/><line x1="320.14" y1="204.71" x2="350.38" y2="179.84"/><line x1="209.31" y1="256.20" x2="189.29" y2="260.16"/><line x1="148.84" y1="185.57" x2="173.17" y2="175.31"/><line x1="242.90" y1="162.20" x2="199.00" y2="139.89"/><line x1="275.35" y1="285.04" x2="277.63" y2="290.35"/><line x1="313.50" y1="332.98" x2="285.11" y2="327.72"/><line x1="242.90" y1="162.20" x2="202.58" y2="154.40"/><line x1="301.49" y1="222.49" x2="301.56" y2="223.22"/><line x1="244.92" y1="161.35" x2="244.10" y2="161.53"/><line x1="173.17" y1="175.31" x2="171.85" y2="173.23"/><line x1="298.97" y1="144.83" x2="292.25" y2="141.14"/><line x1="308.88" y1="347.05" x2="307.21" y2="350.33"/><line x1="266.26" y1="330.29" x2="244.94" y2="339.53"/><line x1="336.32" y1="220.75" x2="336.53" y2="220.26"/><line x1="215.01" y1="173.96" x2="242.31" y2="163.32"/><line x1="285.90" y1="322.67" x2="285.70" y2="325.24"/><line x1="303.01" y1="220.49" x2="301.77" y2="223.89"/><line x1="302.64" y1="275.88" x2="277.63" y2="290.35"/><line x1="282.74" y1="332.40" x2="280.96" y2="334.61"/><line x1="304.19" y1="220.07" x2="305.71" y2="219.76"/><line x1="346.91" y1="239.16" x2="350.36" y2="240.57"/><line x1="336.37" y1="218.67" x2="369.86" y2="247.36"/><line x1="304.82" y1="193.11" x2="319.66" y2="157.34"/><line x1="170.88" y1="229.61" x2="166.93" y2="222.55"/><line x1="336.37" y1="218.67" x2="373.07" y2="241.00"/><line x1="336.37" y1="218.67" x2="366.90" y2="200.72"/><line x1="281.27" y1="299.64" x2="282.68" y2="303.94"/><line x1="32.16" y1="32.09" x2="64.64" y2="32.09"/><line x1="333.66" y1="234.56" x2="334.03" y2="221.82"/><line x1="234.92" y1="206.87" x2="245.21" y2="169.83"/><line x1="231.06" y1="321.08" x2="246.74" y2="309.56"/><line x1="336.09" y1="218.12" x2="364.63" y2="196.43"/><line x1="309.60" y1="228.30" x2="311.04" y2="228.72"/><line x1="242.90" y1="162.20" x2="226.46" y2="115.73"/><line x1="336.54" y1="219.19" x2="362.55" y2="245.77"/><line x1="242.90" y1="162.20" x2="205.97" y2="125.19"/><line x1="308.95" y1="293.52" x2="310.14" y2="297.42"/><line x1="266.53" y1="266.21" x2="291.86" y2="251.00"/><line x1="242.90" y1="162.20" x2="198.73" y2="147.44"/><line x1="312.88" y1="219.61" x2="312.59" y2="229.15"/><line x1="256.28" y1="163.28" x2="267.03" y2="128.89"/><line x1="305.71" y1="219.76" x2="304.89" y2="226.59"/><line x1="299.66" y1="361.42" x2="297.56" y2="363.67"/><line x1="312.59" y1="229.15" x2="314.66" y2="219.73"/><line x1="362.55" y1="245.77" x2="336.37" y2="218.67"/><line x1="285.11" y1="179.12" x2="279.41" y2="175.36"/><line x1="198.38" y1="146.09" x2="198.47" y2="146.66"/><line x1="32.00" y1="447.50" x2="64.49" y2="479.98"/></g></svg>