<svg xmlns="http://www.w3.org/2000/svg" width="512" height="512"><rect width="512" height="512" fill="#0a0f1a"/><text x="12" y="20" font-family="monospace" font-size="11" fill="#4a7fa5">FRONT (XZ)</text><g stroke="#00d4ff" stroke-width="0.6" opacity="0.85"><line x1="275.33" y1="350.07" x2="292.31" y2="351.45"/><line x1="312.82" y1="202.55" x2="312.62" y2="199.97"/><line x1="330.68" y1="349.02" x2="333.13" y2="347.75"/><line x1="318.15" y1="304.32" x2="316.82" y2="303.24"/><line x1="167.90" y1="185.59" x2="167.08" y2="181.12"/><line x1="184.34" y1="165.50" x2="167.09" y2="159.92"/><line x1="215.15" y1="157.55" x2="219.43" y2="158.33"/><line x1="208.29" y1="316.82" x2="209.30" y2="318.62"/><line x1="307.37" y1="177.25" x2="291.77" y2="191.70"/><line x1="316.82" y1="303.24" x2="331.50" y2="283.18"/><line x1="188.13" y1="176.88" x2="186.74" y2="174.59"/><line x1="205.62" y1="195.13" x2="185.68" y2="215.32"/><line x1="185.30" y1="122.60" x2="187.04" y2="122.28"/><line x1="276.19" y1="180.36" x2="298.69" y2="157.87"/><line x1="209.30" y1="318.62" x2="210.38" y2="320.38"/><line x1="339.35" y1="339.79" x2="340.45" y2="337.34"/><line x1="269.96" y1="193.39" x2="266.94" y2="193.81"/><line x1="185.68" y1="215.32" x2="202.40" y2="192.50"/><line x1="311.58" y1="210.96" x2="307.63" y2="213.70"/><line x1="195.98" y1="156.37" x2="176.07" y2="129.22"/><line x1="195.98" y1="156.37" x2="185.30" y2="122.60"/><line x1="269.18" y1="136.27" x2="257.54" y2="170.66"/><line x1="311.17" y1="191.13" x2="310.40" y2="187.81"/><line x1="340.45" y1="337.34" x2="341.57" y2="334.55"/><line x1="310.97" y1="299.04" x2="324.48" y2="275.12"/><line x1="186.36" y1="160.77" x2="169.09" y2="149.41"/><line x1="240.24" y1="127.88" x2="245.47" y2="129.12"/><line x1="204.13" y1="291.72" x2="201.89" y2="294.70"/><line x1="216.51" y1="328.13" x2="217.90" y2="329.47"/><line x1="257.54" y1="170.66" x2="273.19" y2="137.81"/><line x1="307.63" y1="213.70" x2="312.31" y2="209.31"/><line x1="201.80" y1="295.91" x2="201.84" y2="297.14"/><line x1="324.48" y1="275.12" x2="309.38" y2="298.01"/><line x1="202.90" y1="122.17" x2="199.98" y2="156.14"/><line x1="217.90" y1="329.47" x2="225.72" y2="335.42"/><line x1="345.96" y1="320.24" x2="346.37" y2="318.06"/><line x1="312.31" y1="209.31" x2="305.72" y2="213.88"/><line x1="259.64" y1="204.71" x2="256.81" y2="198.31"/><line x1="212.78" y1="200.37" x2="196.76" y2="224.78"/><line x1="174.47" y1="201.56" x2="194.13" y2="184.57"/><line x1="283.20" y1="142.39" x2="285.86" y2="143.90"/><line x1="346.37" y1="318.06" x2="346.61" y2="316.13"/><line x1="256.81" y1="198.31" x2="256.31" y2="199.52"/><line x1="172.07" y1="139.98" x2="191.00" y2="157.58"/><line x1="195.98" y1="156.37" x2="179.07" y2="125.56"/><line x1="208.82" y1="291.65" x2="201.95" y2="298.46"/><line x1="285.86" y1="143.90" x2="288.17" y2="145.42"/><line x1="302.09" y1="213.29" x2="312.82" y2="202.55"/><line x1="307.11" y1="258.71" x2="302.27" y2="254.75"/><line x1="309.51" y1="184.31" x2="310.40" y2="187.81"/><line x1="218.33" y1="123.77" x2="215.15" y2="157.55"/><line x1="275.33" y1="350.07" x2="291.05" y2="309.77"/><line x1="343.65" y1="302.17" x2="341.94" y2="298.66"/><line x1="312.82" y1="202.55" x2="299.83" y2="212.83"/><line x1="199.41" y1="189.87" x2="196.66" y2="187.22"/><line x1="257.93" y1="204.12" x2="256.25" y2="202.01"/><line x1="167.90" y1="185.59" x2="188.13" y2="176.88"/><line x1="175.04" y1="131.58" x2="175.55" y2="130.30"/><line x1="262.43" y1="172.91" x2="267.21" y2="175.29"/><line x1="203.21" y1="304.51" x2="203.72" y2="306.21"/><line x1="215.15" y1="157.55" x2="223.74" y2="124.61"/><line x1="295.29" y1="152.69" x2="276.19" y2="180.36"/><line x1="212.78" y1="200.37" x2="228.01" y2="245.86"/><line x1="256.25" y1="202.01" x2="256.39" y2="202.50"/><line x1="228.60" y1="160.45" x2="233.39" y2="161.76"/><line x1="312.75" y1="207.31" x2="312.90" y2="204.93"/><line x1="276.19" y1="180.36" x2="297.00" y2="155.15"/><line x1="480.00" y1="32.02" x2="447.51" y2="32.02"/><line x1="195.98" y1="156.37" x2="175.55" y2="130.30"/><line x1="303.45" y1="167.20" x2="304.86" y2="170.47"/><line x1="256.14" y1="200.87" x2="256.17" y2="201.47"/><line x1="337.38" y1="291.13" x2="319.43" y2="305.41"/><line x1="311.17" y1="191.13" x2="289.89" y2="210.67"/><line x1="191.85" y1="181.91" x2="189.83" y2="179.33"/><line x1="184.41" y1="168.61" x2="184.26" y2="166.92"/><line x1="309.51" y1="184.31" x2="260.35" y2="204.88"/><line x1="271.80" y1="177.77" x2="293.55" y2="150.49"/><line x1="222.74" y1="295.09" x2="207.35" y2="315.04"/><line x1="328.39" y1="315.29" x2="340.45" y2="337.34"/><line x1="240.24" y1="127.88" x2="233.39" y2="161.76"/><line x1="284.37" y1="185.83" x2="288.17" y2="188.71"/><line x1="328.39" y1="315.29" x2="346.70" y2="314.44"/><line x1="260.35" y1="204.88" x2="281.70" y2="192.29"/><line x1="260.35" y1="204.88" x2="257.65" y2="197.23"/><line x1="255.46" y1="131.79" x2="260.22" y2="133.23"/><line x1="201.84" y1="297.14" x2="208.82" y2="291.65"/><line x1="192.82" y1="221.71" x2="189.13" y2="218.55"/><line x1="311.82" y1="262.79" x2="307.11" y2="258.71"/><line x1="212.78" y1="200.37" x2="201.28" y2="228.05"/><line x1="250.81" y1="301.94" x2="217.90" y2="329.47"/><line x1="247.84" y1="166.63" x2="252.68" y2="168.57"/><line x1="211.07" y1="156.93" x2="218.33" y2="123.77"/><line x1="278.81" y1="307.51" x2="275.33" y2="350.07"/><line x1="185.01" y1="162.95" x2="185.60" y2="161.81"/><line x1="189.83" y1="179.33" x2="167.90" y2="185.59"/><line x1="314.00" y1="301.11" x2="312.51" y2="300.07"/><line x1="327.08" y1="313.61" x2="343.65" y2="302.17"/><line x1="182.50" y1="212.01" x2="179.57" y2="208.61"/><line x1="174.43" y1="133.18" x2="175.04" y2="131.58"/><line x1="328.39" y1="315.29" x2="335.09" y2="346.24"/><line x1="273.19" y1="137.81" x2="276.87" y2="139.34"/><line x1="202.78" y1="302.88" x2="203.21" y2="304.51"/><line x1="328.39" y1="315.29" x2="344.66" y2="325.35"/><line x1="301.88" y1="293.17" x2="246.58" y2="257.60"/><line x1="328.39" y1="315.29" x2="327.08" y2="313.61"/><line x1="343.65" y1="302.17" x2="325.79" y2="312.02"/><line x1="199.41" y1="189.87" x2="176.89" y2="205.12"/><line x1="276.04" y1="236.93" x2="212.78" y2="200.37"/><line x1="260.35" y1="204.88" x2="266.94" y2="193.81"/><line x1="187.28" y1="159.82" x2="188.38" y2="158.97"/><line x1="175.04" y1="131.58" x2="195.98" y2="156.37"/><line x1="262.43" y1="172.91" x2="280.21" y2="140.86"/><line x1="203.21" y1="304.51" x2="215.84" y2="293.25"/><line x1="305.72" y1="213.88" x2="305.04" y2="213.82"/><line x1="320.80" y1="314.43" x2="316.02" y2="351.79"/><line x1="311.79" y1="194.26" x2="311.17" y2="191.13"/><line x1="212.78" y1="200.37" x2="236.86" y2="251.49"/><line x1="170.06" y1="146.16" x2="171.11" y2="142.91"/><line x1="166.42" y1="171.58" x2="184.88" y2="170.46"/><line x1="250.81" y1="301.94" x2="211.50" y2="322.07"/><line x1="250.81" y1="301.94" x2="265.39" y2="304.90"/><line x1="228.60" y1="160.45" x2="240.24" y2="127.88"/><line x1="312.75" y1="207.31" x2="303.83" y2="213.62"/><line x1="316.02" y1="351.79" x2="320.41" y2="351.45"/><line x1="321.96" y1="307.79" x2="337.38" y2="291.13"/><line x1="184.88" y1="170.46" x2="184.41" y2="168.61"/><line x1="210.72" y1="292.03" x2="213.06" y2="292.57"/><line x1="207.91" y1="122.56" x2="213.05" y2="123.09"/><line x1="480.00" y1="32.02" x2="480.00" y2="64.50"/><line x1="246.85" y1="344.58" x2="260.17" y2="347.78"/><line x1="205.69" y1="311.48" x2="222.74" y2="295.09"/><line x1="303.45" y1="167.20" x2="284.37" y2="185.83"/><line x1="256.14" y1="200.87" x2="258.43" y2="204.33"/><line x1="337.38" y1="291.13" x2="320.69" y2="306.56"/><line x1="191.85" y1="181.91" x2="169.04" y2="189.88"/><line x1="201.28" y1="228.05" x2="196.76" y2="224.78"/><line x1="480.00" y1="479.91" x2="480.00" y2="447.42"/><line x1="179.07" y1="125.56" x2="180.06" y2="124.81"/><line x1="271.80" y1="177.77" x2="291.79" y2="148.54"/><line x1="222.74" y1="295.09" x2="206.49" y2="313.25"/><line x1="328.39" y1="315.29" x2="339.35" y2="339.79"/><line x1="333.13" y1="347.75" x2="335.09" y2="346.24"/><line x1="328.39" y1="315.29" x2="346.61" y2="316.13"/><line x1="260.35" y1="204.88" x2="286.51" y2="191.98"/><line x1="196.76" y1="224.78" x2="192.82" y2="221.71"/><line x1="260.35" y1="204.88" x2="258.82" y2="196.28"/><line x1="167.09" y1="159.92" x2="184.60" y2="164.18"/><line x1="255.46" y1="131.79" x2="247.84" y2="166.63"/><line x1="312.62" y1="199.97" x2="312.28" y2="197.21"/><line x1="335.09" y1="346.24" x2="336.13" y2="345.14"/><line x1="257.51" y1="203.89" x2="257.15" y2="203.63"/><line x1="331.50" y1="283.18" x2="315.43" y2="302.17"/><line x1="184.60" y1="164.18" x2="185.01" y2="162.95"/><line x1="447.51" y1="479.91" x2="480.00" y2="447.42"/><line x1="250.81" y1="301.94" x2="216.51" y2="328.13"/><line x1="308.49" y1="180.74" x2="309.51" y2="184.31"/><line x1="315.43" y1="302.17" x2="314.00" y2="301.11"/><line x1="267.21" y1="175.29" x2="271.80" y2="177.77"/><line x1="201.89" y1="294.70" x2="201.80" y2="295.91"/><line x1="188.96" y1="122.05" x2="191.04" y2="121.91"/><line x1="211.50" y1="322.07" x2="212.67" y2="323.69"/><line x1="264.36" y1="194.27" x2="262.18" y2="194.81"/><line x1="182.50" y1="212.01" x2="199.41" y2="189.87"/><line x1="205.16" y1="291.44" x2="206.37" y2="291.35"/><line x1="328.39" y1="315.29" x2="333.13" y2="347.75"/><line x1="273.19" y1="137.81" x2="262.43" y2="172.91"/><line x1="328.39" y1="315.29" x2="343.76" y2="328.27"/><line x1="342.70" y1="331.43" x2="343.76" y2="328.27"/><line x1="301.88" y1="293.17" x2="316.32" y2="266.93"/><line x1="262.18" y1="194.81" x2="260.33" y2="195.48"/><line x1="328.39" y1="315.29" x2="344.99" y2="305.50"/><line x1="260.35" y1="204.88" x2="269.96" y2="193.39"/><line x1="187.28" y1="159.82" x2="170.06" y2="146.16"/><line x1="203.48" y1="156.23" x2="207.18" y2="156.49"/><line x1="288.17" y1="188.71" x2="291.77" y2="191.70"/><line x1="334.58" y1="287.17" x2="331.50" y2="283.18"/><line x1="305.72" y1="213.88" x2="312.75" y2="207.31"/><line x1="172.33" y1="197.86" x2="170.52" y2="193.97"/><line x1="250.81" y1="301.94" x2="210.38" y2="320.38"/><line x1="201.95" y1="298.46" x2="202.15" y2="299.86"/><line x1="288.17" y1="145.42" x2="289.99" y2="146.85"/><line x1="250.81" y1="301.94" x2="246.85" y2="344.58"/><line x1="246.58" y1="257.60" x2="212.78" y2="200.37"/><line x1="312.75" y1="207.31" x2="305.04" y2="213.82"/><line x1="256.31" y1="199.52" x2="256.14" y2="200.87"/><line x1="172.95" y1="137.39" x2="173.73" y2="135.12"/><line x1="252.68" y1="168.57" x2="257.54" y2="170.66"/><line x1="210.72" y1="292.03" x2="202.43" y2="301.33"/><line x1="299.83" y1="212.83" x2="297.04" y2="212.25"/><line x1="291.77" y1="191.70" x2="286.51" y2="191.98"/><line x1="256.14" y1="200.87" x2="259.00" y2="204.53"/><line x1="192.53" y1="157.06" x2="194.18" y2="156.66"/><line x1="223.74" y1="124.61" x2="229.30" y2="125.60"/><line x1="480.00" y1="479.91" x2="447.51" y2="479.91"/><line x1="292.31" y1="351.45" x2="311.14" y2="351.90"/><line x1="328.39" y1="315.29" x2="338.27" y2="341.91"/><line x1="256.39" y1="202.50" x2="256.59" y2="202.94"/><line x1="167.08" y1="181.12" x2="166.58" y2="176.44"/><line x1="219.43" y1="158.33" x2="223.92" y2="159.30"/><line x1="210.38" y1="320.38" x2="211.50" y2="322.07"/><line x1="341.94" y1="298.66" x2="339.85" y2="294.98"/><line x1="312.62" y1="199.97" x2="297.04" y2="212.25"/><line x1="257.51" y1="203.89" x2="256.84" y2="203.31"/><line x1="186.74" y1="174.59" x2="185.66" y2="172.45"/><line x1="202.40" y1="192.50" x2="182.50" y2="212.01"/><line x1="250.81" y1="301.94" x2="215.18" y2="326.72"/><line x1="246.58" y1="257.60" x2="297.29" y2="250.93"/><line x1="289.89" y1="210.67" x2="269.28" y2="206.36"/><line x1="324.51" y1="310.51" x2="323.23" y2="309.11"/><line x1="341.57" y1="334.55" x2="342.70" y2="331.43"/><line x1="267.21" y1="175.29" x2="288.17" y2="145.42"/><line x1="233.39" y1="161.76" x2="238.19" y2="163.22"/><line x1="201.89" y1="294.70" x2="205.16" y2="291.44"/><line x1="324.32" y1="350.86" x2="327.74" y2="350.06"/><line x1="309.38" y1="298.01" x2="301.88" y2="293.17"/><line x1="166.49" y1="167.57" x2="166.72" y2="163.68"/><line x1="245.47" y1="129.12" x2="250.54" y2="130.42"/><line x1="304.86" y1="170.47" x2="306.16" y2="173.83"/><line x1="328.39" y1="315.29" x2="330.68" y2="349.02"/><line x1="225.72" y1="335.42" x2="235.36" y2="340.46"/><line x1="319.43" y1="305.41" x2="318.15" y2="304.32"/><line x1="301.88" y1="293.17" x2="320.54" y2="271.04"/><line x1="184.26" y1="166.92" x2="184.34" y2="165.50"/><line x1="203.48" y1="156.23" x2="207.91" y2="122.56"/><line x1="288.17" y1="188.71" x2="307.37" y2="177.25"/><line x1="235.36" y1="340.46" x2="246.85" y2="344.58"/><line x1="334.58" y1="287.17" x2="316.82" y2="303.24"/><line x1="346.61" y1="316.13" x2="346.70" y2="314.44"/><line x1="172.33" y1="197.86" x2="191.85" y2="181.91"/><line x1="202.17" y1="293.67" x2="204.13" y2="291.72"/><line x1="260.22" y1="133.23" x2="264.83" y2="134.74"/><line x1="250.81" y1="301.94" x2="209.30" y2="318.62"/><line x1="201.95" y1="298.46" x2="210.72" y2="292.03"/><line x1="288.17" y1="145.42" x2="271.80" y2="177.77"/><line x1="328.13" y1="279.17" x2="324.48" y2="275.12"/><line x1="346.70" y1="314.44" x2="346.50" y2="311.63"/><line x1="246.58" y1="257.60" x2="276.04" y2="236.93"/><line x1="189.13" y1="218.55" x2="185.68" y2="215.32"/><line x1="302.27" y1="254.75" x2="297.29" y2="250.93"/><line x1="172.95" y1="137.39" x2="192.53" y2="157.06"/><line x1="252.68" y1="168.57" x2="269.18" y2="136.27"/><line x1="210.72" y1="292.03" x2="202.15" y2="299.86"/><line x1="291.05" y1="309.77" x2="292.31" y2="351.45"/><line x1="299.83" y1="212.83" x2="312.62" y2="199.97"/><line x1="291.77" y1="191.70" x2="260.35" y2="204.88"/><line x1="297.29" y1="250.93" x2="292.18" y2="247.23"/><line x1="185.60" y1="161.81" x2="186.36" y2="160.77"/><line x1="223.74" y1="124.61" x2="219.43" y2="158.33"/><line x1="309.23" y1="213.15" x2="307.63" y2="213.70"/><line x1="292.31" y1="351.45" x2="302.13" y2="311.67"/><line x1="169.09" y1="149.41" x2="187.28" y2="159.82"/><line x1="325.79" y1="312.02" x2="341.94" y2="298.66"/><line x1="256.39" y1="202.50" x2="257.51" y2="203.89"/><line x1="167.08" y1="181.12" x2="186.74" y2="174.59"/><line x1="198.04" y1="121.94" x2="202.90" y2="122.17"/><line x1="215.84" y1="293.25" x2="203.72" y2="306.21"/><line x1="297.00" y1="155.15" x2="298.69" y2="157.87"/><line x1="341.94" y1="298.66" x2="324.51" y2="310.51"/><line x1="199.98" y1="156.14" x2="203.48" y2="156.23"/><line x1="175.55" y1="130.30" x2="176.07" y2="129.22"/><line x1="203.72" y1="306.21" x2="204.31" y2="307.96"/><line x1="194.13" y1="184.57" x2="172.33" y2="197.86"/><line x1="246.58" y1="257.60" x2="302.27" y2="254.75"/><line x1="289.89" y1="210.67" x2="310.40" y2="187.81"/><line x1="228.01" y1="245.86" x2="220.01" y2="240.70"/><line x1="195.98" y1="156.37" x2="193.31" y2="121.87"/><line x1="233.39" y1="161.76" x2="245.47" y2="129.12"/><line x1="324.32" y1="350.86" x2="328.39" y2="315.29"/><line x1="191.00" y1="157.58" x2="172.95" y2="137.39"/><line x1="166.49" y1="167.57" x2="184.26" y2="166.92"/><line x1="207.35" y1="315.04" x2="208.29" y2="316.82"/><line x1="304.86" y1="170.47" x2="288.17" y2="188.71"/><line x1="319.43" y1="305.41" x2="334.58" y2="287.17"/><line x1="209.08" y1="197.75" x2="205.62" y2="195.13"/><line x1="194.18" y1="156.66" x2="195.98" y2="156.37"/><line x1="213.06" y1="292.57" x2="215.84" y2="293.25"/><line x1="181.14" y1="124.13" x2="182.35" y2="123.53"/><line x1="188.13" y1="176.88" x2="167.08" y2="181.12"/><line x1="281.70" y1="192.29" x2="277.34" y2="192.62"/><line x1="167.61" y1="156.29" x2="168.28" y2="152.79"/><line x1="202.17" y1="293.67" x2="202.64" y2="292.84"/><line x1="260.22" y1="133.23" x2="252.68" y2="168.57"/><line x1="293.73" y1="211.52" x2="289.89" y2="210.67"/><line x1="311.58" y1="210.96" x2="310.55" y2="212.24"/><line x1="328.13" y1="279.17" x2="310.97" y2="299.04"/><line x1="246.58" y1="257.60" x2="281.55" y2="240.23"/><line x1="195.98" y1="156.37" x2="183.74" y2="123.02"/><line x1="236.86" y1="251.49" x2="228.01" y2="245.86"/><line x1="280.38" y1="183.04" x2="284.37" y2="185.83"/><line x1="201.80" y1="295.91" x2="207.37" y2="291.42"/><line x1="188.38" y1="158.97" x2="189.62" y2="158.22"/><line x1="280.21" y1="140.86" x2="283.20" y2="142.39"/><line x1="320.41" y1="351.45" x2="324.32" y2="350.86"/><line x1="316.32" y1="266.93" x2="311.82" y2="262.79"/><line x1="171.11" y1="142.91" x2="172.07" y2="139.98"/><line x1="207.18" y1="156.49" x2="211.07" y2="156.93"/><line x1="480.00" y1="64.50" x2="447.51" y2="32.02"/><line x1="265.39" y1="304.90" x2="278.81" y2="307.51"/><line x1="303.83" y1="213.62" x2="302.09" y2="213.29"/><line x1="195.98" y1="156.37" x2="178.18" y2="126.38"/><line x1="195.98" y1="156.37" x2="191.04" y2="121.91"/><line x1="213.05" y1="123.09" x2="218.33" y2="123.77"/><line x1="206.49" y1="313.25" x2="207.35" y2="315.04"/><line x1="258.43" y1="204.33" x2="257.93" y2="204.12"/><line x1="173.73" y1="135.12" x2="174.43" y2="133.18"/><line x1="202.43" y1="301.33" x2="202.78" y2="302.88"/><line x1="311.14" y1="351.90" x2="316.02" y2="351.79"/><line x1="297.04" y1="212.25" x2="293.73" y2="211.52"/><line x1="336.13" y1="345.14" x2="337.19" y2="343.69"/><line x1="209.08" y1="197.75" x2="189.13" y2="218.55"/><line x1="194.18" y1="156.66" x2="175.04" y2="131.58"/><line x1="229.30" y1="125.60" x2="234.85" y2="126.71"/><line x1="259.64" y1="204.71" x2="259.00" y2="204.53"/><line x1="339.85" y1="294.98" x2="337.38" y2="291.13"/><line x1="312.28" y1="197.21" x2="311.79" y2="194.26"/><line x1="166.58" y1="176.44" x2="166.42" y2="171.58"/><line x1="167.61" y1="156.29" x2="185.60" y2="161.81"/><line x1="219.06" y1="294.10" x2="222.74" y2="295.09"/><line x1="223.92" y1="159.30" x2="228.60" y2="160.45"/><line x1="300.35" y1="160.85" x2="301.95" y2="163.99"/><line x1="212.67" y1="323.69" x2="213.90" y2="325.24"/><line x1="311.58" y1="210.96" x2="309.23" y2="213.15"/><line x1="185.66" y1="172.45" x2="184.88" y2="170.46"/><line x1="195.98" y1="156.37" x2="182.35" y2="123.53"/><line x1="193.31" y1="121.87" x2="198.04" y2="121.94"/><line x1="280.38" y1="183.04" x2="303.45" y2="167.20"/><line x1="184.41" y1="168.61" x2="166.49" y2="167.57"/><line x1="309.51" y1="184.31" x2="261.13" y2="205.03"/><line x1="260.33" y1="195.48" x2="258.82" y2="196.28"/><line x1="179.57" y1="208.61" x2="176.89" y2="205.12"/><line x1="284.37" y1="185.83" x2="304.86" y2="170.47"/><line x1="320.69" y1="306.56" x2="319.43" y2="305.41"/><line x1="201.80" y1="295.91" x2="206.37" y2="291.35"/><line x1="276.87" y1="139.34" x2="280.21" y2="140.86"/><line x1="180.06" y1="124.81" x2="181.14" y2="124.13"/><line x1="188.38" y1="158.97" x2="171.11" y2="142.91"/><line x1="286.51" y1="191.98" x2="281.70" y2="192.29"/><line x1="250.54" y1="130.42" x2="255.46" y2="131.79"/><line x1="192.82" y1="221.71" x2="209.08" y2="197.75"/><line x1="212.78" y1="200.37" x2="206.66" y2="231.79"/><line x1="305.04" y1="213.82" x2="303.83" y2="213.62"/><line x1="316.32" y1="266.93" x2="246.58" y2="257.60"/><line x1="247.84" y1="166.63" x2="260.22" y2="133.23"/><line x1="276.19" y1="180.36" x2="280.38" y2="183.04"/><line x1="207.18" y1="156.49" x2="213.05" y2="123.09"/><line x1="185.01" y1="162.95" x2="167.61" y2="156.29"/><line x1="259.00" y1="204.53" x2="258.43" y2="204.33"/><line x1="195.98" y1="156.37" x2="177.38" y2="127.26"/><line x1="170.52" y1="193.97" x2="169.04" y2="189.88"/><line x1="195.98" y1="156.37" x2="188.96" y2="122.05"/><line x1="314.00" y1="301.11" x2="328.13" y2="279.17"/><line x1="289.99" y1="146.85" x2="291.79" y2="148.54"/><line x1="345.94" y1="308.65" x2="344.99" y2="305.50"/><line x1="191.04" y1="121.91" x2="193.31" y2="121.87"/><line x1="173.73" y1="135.12" x2="194.18" y2="156.66"/><line x1="199.41" y1="189.87" x2="179.57" y2="208.61"/><line x1="311.14" y1="351.90" x2="320.80" y2="314.43"/><line x1="324.48" y1="275.12" x2="320.54" y2="271.04"/><line x1="297.04" y1="212.25" x2="312.28" y2="197.21"/><line x1="286.93" y1="243.67" x2="281.55" y2="240.23"/><line x1="262.43" y1="172.91" x2="276.87" y2="139.34"/><line x1="343.76" y1="328.27" x2="344.66" y2="325.35"/><line x1="202.90" y1="122.17" x2="207.91" y2="122.56"/><line x1="32.16" y1="32.09" x2="32.16" y2="64.58"/><line x1="229.30" y1="125.60" x2="223.92" y2="159.30"/><line x1="170.06" y1="146.16" x2="188.38" y2="158.97"/><line x1="259.64" y1="204.71" x2="256.14" y2="200.87"/><line x1="339.85" y1="294.98" x2="321.96" y2="307.79"/><line x1="212.78" y1="200.37" x2="209.08" y2="197.75"/><line x1="166.58" y1="176.44" x2="185.66" y2="172.45"/><line x1="320.54" y1="271.04" x2="316.32" y2="266.93"/><line x1="219.06" y1="294.10" x2="205.69" y2="311.48"/><line x1="300.35" y1="160.85" x2="280.38" y2="183.04"/><line x1="207.91" y1="122.56" x2="207.18" y2="156.49"/><line x1="246.85" y1="344.58" x2="265.39" y2="304.90"/><line x1="238.19" y1="163.22" x2="243.00" y2="164.85"/><line x1="191.85" y1="181.91" x2="170.52" y2="193.97"/><line x1="309.51" y1="184.31" x2="261.98" y2="205.17"/><line x1="271.80" y1="177.77" x2="289.99" y2="146.85"/><line x1="166.72" y1="163.68" x2="167.09" y2="159.92"/><line x1="328.39" y1="315.29" x2="346.37" y2="318.06"/><line x1="260.35" y1="204.88" x2="260.33" y2="195.48"/><line x1="257.93" y1="204.12" x2="257.51" y2="203.89"/><line x1="302.13" y1="311.67" x2="312.05" y2="313.23"/><line x1="320.80" y1="314.43" x2="328.39" y2="315.29"/><line x1="212.78" y1="200.37" x2="212.90" y2="236.01"/><line x1="205.62" y1="195.13" x2="202.40" y2="192.50"/><line x1="202.15" y1="299.86" x2="202.43" y2="301.33"/><line x1="204.31" y1="307.96" x2="204.96" y2="309.72"/><line x1="168.28" y1="152.79" x2="169.09" y2="149.41"/><line x1="256.59" y1="202.94" x2="256.84" y2="203.31"/><line x1="310.97" y1="299.04" x2="309.38" y2="298.01"/><line x1="205.16" y1="291.44" x2="201.80" y2="295.91"/><line x1="271.80" y1="177.77" x2="276.19" y2="180.36"/><line x1="328.39" y1="315.29" x2="342.70" y2="331.43"/><line x1="197.91" y1="156.19" x2="199.98" y2="156.14"/><line x1="328.39" y1="315.29" x2="345.94" y2="308.65"/><line x1="260.35" y1="204.88" x2="273.43" y2="192.99"/><line x1="307.63" y1="213.70" x2="305.72" y2="213.88"/><line x1="32.00" y1="479.98" x2="64.49" y2="479.98"/><line x1="196.66" y1="187.22" x2="194.13" y2="184.57"/><line x1="259.64" y1="204.71" x2="256.31" y2="199.52"/><line x1="212.78" y1="200.37" x2="192.82" y2="221.71"/><line x1="250.81" y1="301.94" x2="235.36" y2="340.46"/><line x1="189.62" y1="158.22" x2="191.00" y2="157.58"/><line x1="346.50" y1="311.63" x2="345.94" y2="308.65"/><line x1="238.19" y1="163.22" x2="250.54" y2="130.42"/><line x1="302.09" y1="213.29" x2="299.83" y2="212.83"/><line x1="192.53" y1="157.06" x2="173.73" y2="135.12"/><line x1="328.39" y1="315.29" x2="337.19" y2="343.69"/><line x1="218.33" y1="123.77" x2="223.74" y2="124.61"/><line x1="328.39" y1="315.29" x2="345.96" y2="320.24"/><line x1="292.18" y1="247.23" x2="286.93" y2="243.67"/><line x1="306.16" y1="173.83" x2="307.37" y2="177.25"/><line x1="260.35" y1="204.88" x2="262.18" y2="194.81"/><line x1="257.93" y1="204.12" x2="256.39" y2="202.50"/><line x1="219.43" y1="158.33" x2="229.30" y2="125.60"/><line x1="302.13" y1="311.67" x2="311.14" y2="351.90"/><line x1="183.74" y1="123.02" x2="185.30" y2="122.60"/><line x1="257.51" y1="203.89" x2="256.59" y2="202.94"/><line x1="320.80" y1="314.43" x2="324.32" y2="350.86"/><line x1="295.29" y1="152.69" x2="297.00" y2="155.15"/><line x1="186.74" y1="174.59" x2="166.58" y2="176.44"/><line x1="212.78" y1="200.37" x2="220.01" y2="240.70"/><line x1="166.42" y1="171.58" x2="166.49" y2="167.57"/><line x1="250.81" y1="301.94" x2="213.90" y2="325.24"/><line x1="298.69" y1="157.87" x2="300.35" y2="160.85"/><line x1="257.65" y1="197.23" x2="256.81" y2="198.31"/><line x1="324.51" y1="310.51" x2="339.85" y2="294.98"/><line x1="264.83" y1="134.74" x2="269.18" y2="136.27"/><line x1="176.07" y1="129.22" x2="176.68" y2="128.20"/><line x1="267.21" y1="175.29" x2="285.86" y2="143.90"/><line x1="204.31" y1="307.96" x2="219.06" y2="294.10"/><line x1="168.28" y1="152.79" x2="186.36" y2="160.77"/><line x1="310.40" y1="187.81" x2="269.28" y2="206.36"/><line x1="220.01" y1="240.70" x2="212.90" y2="236.01"/><line x1="337.38" y1="291.13" x2="334.58" y2="287.17"/><line x1="245.47" y1="129.12" x2="238.19" y2="163.22"/><line x1="312.90" y1="204.93" x2="312.82" y2="202.55"/><line x1="328.39" y1="315.29" x2="327.74" y2="350.06"/><line x1="271.80" y1="177.77" x2="295.29" y2="152.69"/><line x1="269.28" y1="206.36" x2="261.98" y2="205.17"/><line x1="222.74" y1="295.09" x2="250.81" y2="301.94"/><line x1="328.39" y1="315.29" x2="341.57" y2="334.55"/><line x1="197.91" y1="156.19" x2="202.90" y2="122.17"/><line x1="328.39" y1="315.29" x2="346.50" y2="311.63"/><line x1="184.26" y1="166.92" x2="166.72" y2="163.68"/><line x1="260.35" y1="204.88" x2="277.34" y2="192.62"/><line x1="32.00" y1="479.98" x2="32.00" y2="447.50"/><line x1="260.35" y1="204.88" x2="259.64" y2="204.71"/><line x1="167.09" y1="159.92" x2="167.61" y2="156.29"/><line x1="196.66" y1="187.22" x2="174.47" y2="201.56"/><line x1="288.17" y1="188.71" x2="306.16" y2="173.83"/><line x1="334.58" y1="287.17" x2="318.15" y2="304.32"/><line x1="201.84" y1="297.14" x2="201.95" y2="298.46"/><line x1="331.50" y1="283.18" x2="328.13" y2="279.17"/><line x1="182.35" y1="123.53" x2="183.74" y2="123.02"/><line x1="250.81" y1="301.94" x2="208.29" y2="316.82"/><line x1="250.81" y1="301.94" x2="225.72" y2="335.42"/><line x1="189.62" y1="158.22" x2="172.07" y2="139.98"/><line x1="277.34" y1="192.62" x2="273.43" y2="192.99"/><line x1="211.07" y1="156.93" x2="215.15" y2="157.55"/><line x1="189.13" y1="218.55" x2="205.62" y2="195.13"/><line x1="278.81" y1="307.51" x2="291.05" y2="309.77"/><line x1="203.29" y1="292.18" x2="204.13" y2="291.72"/><line x1="252.68" y1="168.57" x2="264.83" y2="134.74"/><line x1="189.83" y1="179.33" x2="188.13" y2="176.88"/><line x1="338.27" y1="341.91" x2="339.35" y2="339.79"/><line x1="273.43" y1="192.99" x2="269.96" y2="193.39"/><line x1="185.60" y1="161.81" x2="168.28" y2="152.79"/><line x1="327.08" y1="313.61" x2="325.79" y2="312.02"/><line x1="309.23" y1="213.15" x2="310.55" y2="212.24"/><line x1="328.39" y1="315.29" x2="336.13" y2="345.14"/><line x1="176.89" y1="205.12" x2="174.47" y2="201.56"/><line x1="328.39" y1="315.29" x2="345.40" y2="322.67"/><line x1="198.04" y1="121.94" x2="197.91" y2="156.19"/><line x1="260.35" y1="204.88" x2="264.36" y2="194.27"/><line x1="258.82" y1="196.28" x2="257.65" y2="197.23"/><line x1="320.80" y1="314.43" x2="320.41" y2="351.45"/><line x1="207.37" y1="291.42" x2="208.82" y2="291.65"/><line x1="166.42" y1="171.58" x2="184.41" y2="168.61"/><line x1="250.81" y1="301.94" x2="212.67" y2="323.69"/><line x1="246.58" y1="257.60" x2="307.11" y2="258.71"/><line x1="257.65" y1="197.23" x2="259.64" y2="204.71"/><line x1="321.96" y1="307.79" x2="320.69" y2="306.56"/><line x1="260.17" y1="347.78" x2="275.33" y2="350.07"/><line x1="267.21" y1="175.29" x2="283.20" y2="142.39"/><line x1="205.69" y1="311.48" x2="206.49" y2="313.25"/><line x1="169.04" y1="189.88" x2="167.90" y2="185.59"/><line x1="207.35" y1="315.04" x2="250.81" y2="301.94"/><line x1="344.99" y1="305.50" x2="343.65" y2="302.17"/><line x1="312.90" y1="204.93" x2="302.09" y2="213.29"/><line x1="256.17" y1="201.47" x2="256.25" y2="202.01"/><line x1="213.06" y1="292.57" x2="203.21" y2="304.51"/><line x1="167.09" y1="159.92" x2="185.01" y2="162.95"/><line x1="337.19" y1="343.69" x2="338.27" y2="341.91"/><line x1="331.50" y1="283.18" x2="314.00" y2="301.11"/><line x1="202.17" y1="293.67" x2="203.29" y2="292.18"/><line x1="293.73" y1="211.52" x2="311.17" y2="191.13"/><line x1="328.13" y1="279.17" x2="312.51" y2="300.07"/><line x1="246.58" y1="257.60" x2="286.93" y2="243.67"/><line x1="234.85" y1="126.71" x2="240.24" y2="127.88"/><line x1="203.29" y1="292.18" x2="202.64" y2="292.84"/><line x1="213.90" y1="325.24" x2="215.18" y2="326.72"/><line x1="312.51" y1="300.07" x2="310.97" y2="299.04"/><line x1="215.18" y1="326.72" x2="216.51" y2="328.13"/><line x1="344.66" y1="325.35" x2="345.40" y2="322.67"/><line x1="176.89" y1="205.12" x2="196.66" y2="187.22"/><line x1="206.37" y1="291.35" x2="207.37" y2="291.42"/><line x1="280.21" y1="140.86" x2="267.21" y2="175.29"/><line x1="345.40" y1="322.67" x2="345.96" y2="320.24"/><line x1="171.11" y1="142.91" x2="189.62" y2="158.22"/><line x1="243.00" y1="164.85" x2="247.84" y2="166.63"/><line x1="207.37" y1="291.42" x2="201.84" y2="297.14"/><line x1="265.39" y1="304.90" x2="260.17" y2="347.78"/><line x1="303.83" y1="213.62" x2="312.90" y2="204.93"/><line x1="246.58" y1="257.60" x2="311.82" y2="262.79"/><line x1="246.58" y1="257.60" x2="236.86" y2="251.49"/><line x1="213.05" y1="123.09" x2="211.07" y2="156.93"/><line x1="291.77" y1="191.70" x2="309.51" y2="184.31"/><line x1="260.17" y1="347.78" x2="278.81" y2="307.51"/><line x1="258.43" y1="204.33" x2="256.17" y2="201.47"/><line x1="169.04" y1="189.88" x2="189.83" y2="179.33"/><line x1="202.43" y1="301.33" x2="213.06" y2="292.57"/><line x1="291.79" y1="148.54" x2="293.55" y2="150.49"/><line x1="344.99" y1="305.50" x2="327.08" y2="313.61"/><line x1="256.17" y1="201.47" x2="257.93" y2="204.12"/><line x1="194.18" y1="156.66" x2="174.43" y2="133.18"/><line x1="213.06" y1="292.57" x2="202.78" y2="302.88"/><line x1="293.55" y1="150.49" x2="295.29" y2="152.69"/><line x1="312.28" y1="197.21" x2="293.73" y2="211.52"/><line x1="215.84" y1="293.25" x2="219.06" y2="294.10"/><line x1="281.55" y1="240.23" x2="276.04" y2="236.93"/><line x1="223.92" y1="159.30" x2="234.85" y2="126.71"/><line x1="202.40" y1="192.50" x2="199.41" y2="189.87"/><line x1="312.05" y1="313.23" x2="320.80" y2="314.43"/><line x1="293.73" y1="211.52" x2="311.79" y2="194.26"/><line x1="256.84" y1="203.31" x2="257.15" y2="203.63"/><line x1="246.58" y1="257.60" x2="292.18" y2="247.23"/><line x1="185.66" y1="172.45" x2="166.42" y2="171.58"/><line x1="195.98" y1="156.37" x2="181.14" y2="124.13"/><line x1="64.64" y1="32.09" x2="32.16" y2="64.58"/><line x1="195.98" y1="156.37" x2="197.91" y2="156.19"/><line x1="234.85" y1="126.71" x2="228.60" y2="160.45"/><line x1="280.38" y1="183.04" x2="301.95" y2="163.99"/><line x1="323.23" y1="309.11" x2="321.96" y2="307.79"/><line x1="177.38" y1="127.26" x2="178.18" y2="126.38"/><line x1="301.95" y1="163.99" x2="303.45" y2="167.20"/><line x1="261.98" y1="205.17" x2="261.13" y2="205.03"/><line x1="206.66" y1="231.79" x2="201.28" y2="228.05"/><line x1="184.34" y1="165.50" x2="184.60" y2="164.18"/><line x1="178.18" y1="126.38" x2="179.07" y2="125.56"/><line x1="250.54" y1="130.42" x2="243.00" y2="164.85"/><line x1="307.37" y1="177.25" x2="308.49" y2="180.74"/><line x1="316.82" y1="303.24" x2="315.43" y2="302.17"/><line x1="261.13" y1="205.03" x2="260.35" y2="204.88"/><line x1="276.19" y1="180.36" x2="300.35" y2="160.85"/><line x1="243.00" y1="164.85" x2="255.46" y2="131.79"/><line x1="202.17" y1="293.67" x2="201.89" y2="294.70"/><line x1="185.68" y1="215.32" x2="182.50" y2="212.01"/><line x1="311.58" y1="210.96" x2="312.31" y2="209.31"/><line x1="195.98" y1="156.37" x2="176.68" y2="128.20"/><line x1="195.98" y1="156.37" x2="187.04" y2="122.28"/><line x1="269.18" y1="136.27" x2="273.19" y2="137.81"/><line x1="291.77" y1="191.70" x2="308.49" y2="180.74"/><line x1="291.05" y1="309.77" x2="302.13" y2="311.67"/><line x1="186.36" y1="160.77" x2="187.28" y2="159.82"/><line x1="204.13" y1="291.72" x2="205.16" y2="291.44"/><line x1="187.04" y1="122.28" x2="188.96" y2="122.05"/><line x1="257.54" y1="170.66" x2="262.43" y2="172.91"/><line x1="311.14" y1="351.90" x2="312.05" y2="313.23"/><line x1="324.48" y1="275.12" x2="301.88" y2="293.17"/><line x1="266.94" y1="193.81" x2="264.36" y2="194.27"/><line x1="169.09" y1="149.41" x2="170.06" y2="146.16"/><line x1="325.79" y1="312.02" x2="324.51" y2="310.51"/><line x1="202.90" y1="122.17" x2="203.48" y2="156.23"/><line x1="32.16" y1="32.09" x2="64.64" y2="32.09"/><line x1="312.31" y1="209.31" x2="312.75" y2="207.31"/><line x1="339.85" y1="294.98" x2="323.23" y2="309.11"/><line x1="215.84" y1="293.25" x2="204.31" y2="307.96"/><line x1="174.47" y1="201.56" x2="172.33" y2="197.86"/><line x1="176.68" y1="128.20" x2="177.38" y2="127.26"/><line x1="219.06" y1="294.10" x2="204.96" y2="309.72"/><line x1="194.13" y1="184.57" x2="191.85" y2="181.91"/><line x1="212.90" y1="236.01" x2="206.66" y2="231.79"/><line x1="172.07" y1="139.98" x2="172.95" y2="137.39"/><line x1="195.98" y1="156.37" x2="180.06" y2="124.81"/><line x1="208.82" y1="291.65" x2="210.72" y2="292.03"/><line x1="195.98" y1="156.37" x2="198.04" y2="121.94"/><line x1="204.96" y1="309.72" x2="205.69" y2="311.48"/><line x1="327.74" y1="350.06" x2="330.68" y2="349.02"/><line x1="309.51" y1="184.31" x2="269.28" y2="206.36"/><line x1="191.00" y1="157.58" x2="192.53" y2="157.06"/><line x1="166.72" y1="163.68" x2="184.34" y2="165.50"/><line x1="32.00" y1="447.50" x2="64.49" y2="479.98"/></g></svg>