<svg xmlns="http://www.w3.org/2000/svg" width="512" height="512"><rect width="512" height="512" fill="#0a0f1a"/><text x="12" y="20" font-family="monospace" font-size="11" fill="#4a7fa5">FRONT (XZ)</text><g stroke="#00d4ff" stroke-width="0.6" opacity="0.85"><line x1="295.11" y1="164.05" x2="297.04" y2="163.95"/><line x1="305.14" y1="350.41" x2="306.55" y2="349.61"/><line x1="306.04" y1="158.20" x2="306.20" y2="156.72"/><line x1="267.94" y1="144.74" x2="277.12" y2="114.63"/><line x1="194.99" y1="141.18" x2="195.06" y2="143.85"/><line x1="207.19" y1="158.37" x2="198.64" y2="162.50"/><line x1="278.60" y1="165.83" x2="280.50" y2="165.39"/><line x1="278.85" y1="291.41" x2="277.43" y2="292.23"/><line x1="277.12" y1="114.63" x2="264.89" y2="143.97"/><line x1="210.42" y1="147.66" x2="209.25" y2="149.47"/><line x1="222.87" y1="140.59" x2="210.62" y2="108.88"/><line x1="251.54" y1="208.36" x2="231.40" y2="223.15"/><line x1="269.10" y1="282.54" x2="269.07" y2="282.80"/><line x1="280.50" y1="165.39" x2="282.22" y2="156.00"/><line x1="304.74" y1="146.69" x2="284.40" y2="152.32"/><line x1="318.13" y1="331.49" x2="289.11" y2="336.97"/><line x1="210.62" y1="108.88" x2="207.46" y2="111.02"/><line x1="223.52" y1="182.92" x2="226.43" y2="185.46"/><line x1="288.87" y1="274.98" x2="288.14" y2="277.56"/><line x1="309.76" y1="347.34" x2="311.56" y2="345.85"/><line x1="284.40" y1="152.32" x2="303.89" y2="144.14"/><line x1="236.67" y1="104.28" x2="233.59" y2="104.09"/><line x1="258.26" y1="142.55" x2="264.34" y2="110.04"/><line x1="307.86" y1="302.67" x2="287.95" y2="302.48"/><line x1="208.60" y1="166.20" x2="209.38" y2="167.92"/><line x1="288.10" y1="334.72" x2="287.14" y2="332.37"/><line x1="270.42" y1="167.95" x2="271.42" y2="168.48"/><line x1="283.37" y1="155.23" x2="288.61" y2="164.28"/><line x1="288.14" y1="277.56" x2="270.10" y2="275.68"/><line x1="270.82" y1="145.55" x2="267.94" y2="144.74"/><line x1="270.84" y1="291.44" x2="271.87" y2="292.24"/><line x1="311.48" y1="309.00" x2="283.58" y2="312.34"/><line x1="264.34" y1="110.04" x2="254.68" y2="141.90"/><line x1="287.95" y1="302.48" x2="288.85" y2="301.23"/><line x1="243.90" y1="201.10" x2="228.49" y2="219.27"/><line x1="244.30" y1="238.55" x2="247.84" y2="242.37"/><line x1="288.61" y1="164.28" x2="283.80" y2="154.83"/><line x1="300.26" y1="135.60" x2="298.89" y2="132.93"/><line x1="225.88" y1="140.10" x2="222.87" y2="140.59"/><line x1="287.14" y1="332.37" x2="316.36" y2="320.96"/><line x1="198.12" y1="123.27" x2="196.74" y2="127.22"/><line x1="270.05" y1="276.31" x2="270.01" y2="276.58"/><line x1="298.89" y1="132.93" x2="281.79" y2="149.93"/><line x1="274.70" y1="233.50" x2="278.71" y2="238.90"/><line x1="316.36" y1="320.96" x2="286.23" y2="329.93"/><line x1="291.88" y1="297.82" x2="292.96" y2="296.85"/><line x1="205.54" y1="180.58" x2="214.47" y2="174.40"/><line x1="272.79" y1="168.14" x2="270.10" y2="165.83"/><line x1="270.01" y1="276.58" x2="269.96" y2="276.89"/><line x1="298.47" y1="350.26" x2="305.14" y2="350.41"/><line x1="250.10" y1="106.31" x2="244.36" y2="140.42"/><line x1="292.96" y1="296.85" x2="304.02" y2="297.52"/><line x1="258.43" y1="215.22" x2="264.59" y2="221.69"/><line x1="278.71" y1="238.90" x2="258.44" y2="253.63"/><line x1="295.11" y1="164.05" x2="284.58" y2="153.06"/><line x1="293.15" y1="124.44" x2="291.64" y2="122.86"/><line x1="305.14" y1="350.41" x2="297.32" y2="349.35"/><line x1="220.14" y1="141.29" x2="217.66" y2="142.18"/><line x1="313.66" y1="313.66" x2="284.14" y2="323.21"/><line x1="194.99" y1="141.18" x2="210.42" y2="147.66"/><line x1="211.28" y1="192.08" x2="213.43" y2="195.96"/><line x1="271.52" y1="162.33" x2="272.64" y2="161.26"/><line x1="258.44" y1="253.63" x2="260.59" y2="256.18"/><line x1="283.19" y1="286.97" x2="269.10" y2="282.54"/><line x1="293.70" y1="345.03" x2="292.48" y2="343.15"/><line x1="306.56" y1="300.75" x2="305.26" y2="299.00"/><line x1="235.38" y1="139.75" x2="232.68" y2="139.71"/><line x1="284.14" y1="323.21" x2="283.69" y2="321.29"/><line x1="301.75" y1="295.37" x2="296.98" y2="294.46"/><line x1="287.04" y1="253.80" x2="267.14" y2="265.41"/><line x1="269.10" y1="282.54" x2="281.74" y2="288.78"/><line x1="283.18" y1="315.11" x2="283.33" y2="313.73"/><line x1="196.18" y1="152.62" x2="196.85" y2="155.79"/><line x1="296.98" y1="294.46" x2="297.91" y2="294.24"/><line x1="480.00" y1="32.02" x2="447.51" y2="32.02"/><line x1="223.52" y1="182.92" x2="213.43" y2="195.96"/><line x1="284.93" y1="118.29" x2="282.59" y2="117.09"/><line x1="309.76" y1="347.34" x2="292.48" y2="343.15"/><line x1="207.71" y1="153.58" x2="207.32" y2="155.89"/><line x1="220.49" y1="207.60" x2="223.05" y2="211.49"/><line x1="284.66" y1="284.83" x2="269.37" y2="280.35"/><line x1="275.81" y1="159.28" x2="278.26" y2="165.91"/><line x1="265.84" y1="263.20" x2="267.14" y2="265.41"/><line x1="270.82" y1="145.55" x2="279.99" y2="115.88"/><line x1="221.78" y1="104.80" x2="217.78" y2="105.77"/><line x1="311.48" y1="309.00" x2="283.33" y2="313.73"/><line x1="243.90" y1="201.10" x2="225.72" y2="215.38"/><line x1="269.04" y1="269.66" x2="269.62" y2="271.72"/><line x1="270.12" y1="166.52" x2="272.79" y2="168.14"/><line x1="306.55" y1="349.61" x2="308.08" y2="348.59"/><line x1="316.92" y1="338.43" x2="317.59" y2="336.25"/><line x1="302.85" y1="296.31" x2="301.75" y2="295.37"/><line x1="225.88" y1="140.10" x2="214.06" y2="107.13"/><line x1="253.73" y1="107.13" x2="250.10" y2="106.31"/><line x1="222.87" y1="140.59" x2="220.14" y2="141.29"/><line x1="289.71" y1="269.55" x2="289.39" y2="272.30"/><line x1="256.09" y1="250.98" x2="278.71" y2="238.90"/><line x1="269.47" y1="288.87" x2="274.61" y2="292.88"/><line x1="284.53" y1="153.53" x2="295.11" y2="164.05"/><line x1="285.59" y1="306.60" x2="286.32" y2="305.17"/><line x1="207.55" y1="162.48" x2="207.98" y2="164.39"/><line x1="211.84" y1="146.02" x2="194.99" y2="141.18"/><line x1="234.44" y1="227.02" x2="237.60" y2="230.87"/><line x1="270.92" y1="112.23" x2="267.68" y2="111.11"/><line x1="294.62" y1="126.23" x2="293.15" y2="124.44"/><line x1="204.58" y1="113.54" x2="202.04" y2="116.43"/><line x1="258.43" y1="215.22" x2="240.89" y2="234.71"/><line x1="220.87" y1="180.55" x2="211.28" y2="192.08"/><line x1="270.10" y1="275.68" x2="270.10" y2="275.86"/><line x1="274.80" y1="167.29" x2="271.52" y2="162.33"/><line x1="291.30" y1="341.19" x2="316.92" y2="338.43"/><line x1="302.84" y1="141.41" x2="301.60" y2="138.50"/><line x1="317.85" y1="327.55" x2="317.50" y2="325.44"/><line x1="293.15" y1="124.44" x2="276.04" y2="147.30"/><line x1="220.14" y1="141.29" x2="199.88" y2="119.68"/><line x1="239.87" y1="104.60" x2="235.38" y2="139.75"/><line x1="202.38" y1="173.18" x2="203.89" y2="176.85"/><line x1="211.28" y1="192.08" x2="223.52" y2="182.92"/><line x1="290.77" y1="164.16" x2="292.98" y2="164.10"/><line x1="287.19" y1="280.07" x2="286.03" y2="282.49"/><line x1="271.52" y1="162.33" x2="275.54" y2="166.95"/><line x1="302.73" y1="351.32" x2="301.72" y2="351.44"/><line x1="283.88" y1="151.55" x2="283.00" y2="150.75"/><line x1="302.65" y1="163.00" x2="303.53" y2="162.64"/><line x1="293.70" y1="345.03" x2="309.76" y2="347.34"/><line x1="306.56" y1="300.75" x2="290.81" y2="298.90"/><line x1="235.38" y1="139.75" x2="236.67" y2="104.28"/><line x1="210.36" y1="169.56" x2="211.50" y2="171.10"/><line x1="208.35" y1="151.44" x2="196.18" y2="152.62"/><line x1="287.04" y1="253.80" x2="265.84" y2="263.20"/><line x1="300.67" y1="351.31" x2="299.58" y2="350.91"/><line x1="303.53" y1="162.64" x2="304.26" y2="162.15"/><line x1="251.09" y1="141.32" x2="247.65" y2="140.83"/><line x1="287.01" y1="119.47" x2="284.93" y2="118.29"/><line x1="283.18" y1="315.11" x2="311.48" y2="309.00"/><line x1="196.18" y1="152.62" x2="207.71" y2="153.58"/><line x1="250.79" y1="245.35" x2="253.54" y2="248.22"/><line x1="480.00" y1="32.02" x2="480.00" y2="64.50"/><line x1="277.37" y1="166.19" x2="275.81" y2="159.28"/><line x1="269.02" y1="283.75" x2="269.02" y2="284.14"/><line x1="315.59" y1="318.59" x2="314.67" y2="316.12"/><line x1="284.93" y1="118.29" x2="270.82" y2="145.55"/><line x1="195.77" y1="131.52" x2="195.18" y2="136.17"/><line x1="226.06" y1="104.22" x2="221.78" y2="104.80"/><line x1="480.00" y1="479.91" x2="480.00" y2="447.42"/><line x1="220.49" y1="207.60" x2="243.90" y2="201.10"/><line x1="284.66" y1="284.83" x2="269.82" y2="277.61"/><line x1="275.81" y1="159.28" x2="277.85" y2="166.03"/><line x1="306.20" y1="156.72" x2="306.27" y2="155.05"/><line x1="315.99" y1="340.48" x2="316.92" y2="338.43"/><line x1="294.01" y1="296.03" x2="295.03" y2="295.36"/><line x1="221.78" y1="104.80" x2="225.88" y2="140.10"/><line x1="198.64" y1="162.50" x2="207.28" y2="160.47"/><line x1="282.22" y1="156.00" x2="284.45" y2="164.71"/><line x1="269.04" y1="269.66" x2="289.71" y2="269.55"/><line x1="306.55" y1="349.61" x2="294.94" y2="346.73"/><line x1="306.27" y1="155.05" x2="306.17" y2="153.23"/><line x1="312.60" y1="311.28" x2="283.13" y2="316.48"/><line x1="264.89" y1="143.97" x2="274.07" y2="113.40"/><line x1="209.25" y1="149.47" x2="208.35" y2="151.44"/><line x1="284.94" y1="308.06" x2="285.59" y2="306.60"/><line x1="302.85" y1="296.31" x2="296.01" y2="294.83"/><line x1="207.28" y1="160.47" x2="207.55" y2="162.48"/><line x1="447.51" y1="479.91" x2="480.00" y2="447.42"/><line x1="269.47" y1="288.87" x2="276.02" y2="292.72"/><line x1="274.07" y1="113.40" x2="270.92" y2="112.23"/><line x1="285.59" y1="306.60" x2="309.12" y2="304.69"/><line x1="271.42" y1="168.48" x2="271.81" y2="168.42"/><line x1="234.44" y1="227.02" x2="258.43" y2="215.22"/><line x1="282.45" y1="165.03" x2="284.45" y2="164.71"/><line x1="284.58" y1="153.06" x2="305.40" y2="149.05"/><line x1="318.06" y1="329.56" x2="317.85" y2="327.55"/><line x1="204.58" y1="113.54" x2="220.14" y2="141.29"/><line x1="270.28" y1="167.57" x2="270.18" y2="167.09"/><line x1="283.80" y1="154.83" x2="284.14" y2="154.41"/><line x1="270.10" y1="275.68" x2="287.19" y2="280.07"/><line x1="291.30" y1="341.19" x2="315.99" y2="340.48"/><line x1="302.84" y1="141.41" x2="283.88" y2="151.55"/><line x1="260.90" y1="109.01" x2="257.36" y2="108.05"/><line x1="317.85" y1="327.55" x2="288.10" y2="334.72"/><line x1="288.85" y1="301.23" x2="306.56" y2="300.75"/><line x1="202.38" y1="173.18" x2="210.36" y2="169.56"/><line x1="270.01" y1="227.79" x2="274.70" y2="233.50"/><line x1="290.77" y1="164.16" x2="284.38" y2="153.98"/><line x1="302.73" y1="351.32" x2="300.67" y2="351.31"/><line x1="215.45" y1="143.27" x2="213.52" y2="144.55"/><line x1="306.56" y1="300.75" x2="289.80" y2="300.03"/><line x1="277.88" y1="158.37" x2="282.22" y2="156.00"/><line x1="270.10" y1="165.83" x2="270.26" y2="164.61"/><line x1="269.96" y1="276.89" x2="269.90" y2="277.23"/><line x1="297.50" y1="130.48" x2="296.07" y2="128.24"/><line x1="300.67" y1="351.31" x2="301.72" y2="351.44"/><line x1="286.23" y1="329.93" x2="315.59" y2="318.59"/><line x1="304.02" y1="297.52" x2="302.85" y2="296.31"/><line x1="207.33" y1="184.37" x2="218.48" y2="178.34"/><line x1="273.39" y1="167.91" x2="274.06" y2="167.63"/><line x1="297.32" y1="349.35" x2="296.14" y2="348.17"/><line x1="284.58" y1="153.06" x2="306.04" y2="158.20"/><line x1="246.59" y1="105.61" x2="243.18" y2="105.04"/><line x1="315.59" y1="318.59" x2="285.40" y2="327.53"/><line x1="280.29" y1="290.25" x2="269.12" y2="287.10"/><line x1="260.59" y1="256.18" x2="262.55" y2="258.62"/><line x1="480.00" y1="479.91" x2="447.51" y2="479.91"/><line x1="283.69" y1="321.29" x2="283.38" y2="319.52"/><line x1="241.21" y1="140.11" x2="238.22" y2="139.88"/><line x1="195.06" y1="143.85" x2="195.28" y2="146.65"/><line x1="294.01" y1="296.03" x2="302.85" y2="296.31"/><line x1="286.03" y1="282.49" x2="269.96" y2="276.89"/><line x1="282.11" y1="244.09" x2="284.88" y2="249.06"/><line x1="281.74" y1="288.78" x2="269.05" y2="283.08"/><line x1="282.22" y1="156.00" x2="282.45" y2="165.03"/><line x1="306.55" y1="349.61" x2="296.14" y2="348.17"/><line x1="312.60" y1="311.28" x2="283.19" y2="317.92"/><line x1="297.91" y1="294.24" x2="298.80" y2="294.16"/><line x1="209.25" y1="149.47" x2="195.66" y2="149.57"/><line x1="207.46" y1="111.02" x2="204.58" y2="113.54"/><line x1="213.43" y1="195.96" x2="215.67" y2="199.83"/><line x1="272.64" y1="161.26" x2="274.07" y2="160.25"/><line x1="292.48" y1="343.15" x2="291.30" y2="341.19"/><line x1="303.89" y1="144.14" x2="302.84" y2="141.41"/><line x1="232.68" y1="139.71" x2="230.61" y2="104.02"/><line x1="300.70" y1="294.70" x2="299.72" y2="294.29"/><line x1="226.43" y1="185.46" x2="235.53" y2="193.47"/><line x1="267.14" y1="265.41" x2="268.21" y2="267.56"/><line x1="271.42" y1="168.48" x2="270.28" y2="167.57"/><line x1="284.58" y1="153.06" x2="303.53" y2="162.64"/><line x1="311.56" y1="345.85" x2="313.31" y2="344.19"/><line x1="305.26" y1="299.00" x2="304.02" y2="297.52"/><line x1="284.58" y1="153.06" x2="305.88" y2="151.23"/><line x1="254.68" y1="141.90" x2="260.90" y2="109.01"/><line x1="196.85" y1="155.79" x2="197.67" y2="159.08"/><line x1="288.58" y1="258.32" x2="289.51" y2="262.63"/><line x1="283.80" y1="154.83" x2="290.77" y2="164.16"/><line x1="260.90" y1="109.01" x2="251.09" y2="141.32"/><line x1="207.32" y1="155.89" x2="207.19" y2="158.37"/><line x1="270.01" y1="227.79" x2="250.79" y2="245.35"/><line x1="290.77" y1="164.16" x2="284.14" y2="154.41"/><line x1="290.19" y1="339.12" x2="318.00" y2="333.93"/><line x1="279.99" y1="115.88" x2="277.12" y2="114.63"/><line x1="281.79" y1="149.93" x2="297.50" y2="130.48"/><line x1="215.45" y1="143.27" x2="195.77" y2="131.52"/><line x1="271.09" y1="168.48" x2="270.42" y2="167.95"/><line x1="269.62" y1="271.72" x2="269.98" y2="273.72"/><line x1="277.88" y1="158.37" x2="280.50" y2="165.39"/><line x1="270.10" y1="165.83" x2="273.39" y2="167.91"/><line x1="269.96" y1="276.89" x2="284.66" y2="284.83"/><line x1="297.50" y1="130.48" x2="280.22" y2="149.08"/><line x1="309.12" y1="304.69" x2="287.10" y2="303.79"/><line x1="214.06" y1="107.13" x2="210.62" y2="108.88"/><line x1="244.36" y1="140.42" x2="246.59" y2="105.61"/><line x1="304.02" y1="297.52" x2="294.01" y2="296.03"/><line x1="207.33" y1="184.37" x2="216.35" y2="176.28"/><line x1="286.50" y1="164.46" x2="288.61" y2="164.28"/><line x1="289.39" y1="272.30" x2="288.87" y2="274.98"/><line x1="273.39" y1="167.91" x2="270.26" y2="164.61"/><line x1="284.58" y1="153.06" x2="297.04" y2="163.95"/><line x1="297.32" y1="349.35" x2="306.55" y2="349.61"/><line x1="284.58" y1="153.06" x2="305.76" y2="159.49"/><line x1="246.59" y1="105.61" x2="241.21" y2="140.11"/><line x1="207.98" y1="164.39" x2="208.60" y2="166.20"/><line x1="280.29" y1="290.25" x2="269.01" y2="285.02"/><line x1="260.59" y1="256.18" x2="282.11" y2="244.09"/><line x1="270.03" y1="290.31" x2="270.84" y2="291.44"/><line x1="297.04" y1="163.95" x2="298.75" y2="163.79"/><line x1="209.38" y1="167.92" x2="202.38" y2="173.18"/><line x1="276.04" y1="147.30" x2="291.64" y2="122.86"/><line x1="283.69" y1="321.29" x2="312.60" y2="311.28"/><line x1="203.89" y1="176.85" x2="205.54" y2="180.58"/><line x1="195.06" y1="143.85" x2="209.25" y2="149.47"/><line x1="240.89" y1="234.71" x2="244.30" y2="238.55"/><line x1="286.03" y1="282.49" x2="270.01" y2="276.58"/><line x1="275.54" y1="166.95" x2="272.64" y2="161.26"/><line x1="283.00" y1="150.75" x2="281.79" y2="149.93"/><line x1="281.74" y1="288.78" x2="269.07" y2="282.80"/><line x1="291.64" y1="122.86" x2="290.37" y2="121.76"/><line x1="247.84" y1="242.37" x2="270.01" y2="227.79"/><line x1="297.91" y1="294.24" x2="300.70" y2="294.70"/><line x1="213.43" y1="195.96" x2="226.43" y2="185.46"/><line x1="272.64" y1="161.26" x2="276.22" y2="166.65"/><line x1="196.74" y1="127.22" x2="215.45" y2="143.27"/><line x1="247.65" y1="140.83" x2="244.36" y2="140.42"/><line x1="292.48" y1="343.15" x2="311.56" y2="345.85"/><line x1="232.68" y1="139.71" x2="233.59" y2="104.09"/><line x1="267.14" y1="265.41" x2="288.58" y2="258.32"/><line x1="304.87" y1="161.46" x2="305.37" y2="160.57"/><line x1="214.47" y1="174.40" x2="207.33" y2="184.37"/><line x1="284.58" y1="153.06" x2="302.65" y2="163.00"/><line x1="283.33" y1="313.73" x2="283.58" y2="312.34"/><line x1="284.58" y1="153.06" x2="306.17" y2="153.23"/><line x1="196.85" y1="155.79" x2="207.32" y2="155.89"/><line x1="278.26" y1="165.91" x2="278.60" y2="165.83"/><line x1="278.31" y1="148.20" x2="276.04" y2="147.30"/><line x1="269.01" y1="284.56" x2="269.01" y2="285.02"/><line x1="282.59" y1="117.09" x2="279.99" y2="115.88"/><line x1="223.05" y1="211.49" x2="225.72" y2="215.38"/><line x1="210.42" y1="147.66" x2="195.06" y2="143.85"/><line x1="290.19" y1="339.12" x2="317.59" y2="336.25"/><line x1="199.75" y1="166.00" x2="201.00" y2="169.56"/><line x1="271.09" y1="168.48" x2="270.83" y2="168.40"/><line x1="269.62" y1="271.72" x2="289.39" y2="272.30"/><line x1="274.61" y1="292.88" x2="273.13" y2="292.72"/><line x1="261.67" y1="143.24" x2="258.26" y2="142.55"/><line x1="309.12" y1="304.69" x2="286.32" y2="305.17"/><line x1="236.67" y1="104.28" x2="232.68" y2="139.71"/><line x1="286.50" y1="164.46" x2="283.37" y2="155.23"/><line x1="273.52" y1="146.40" x2="270.82" y2="145.55"/><line x1="288.10" y1="334.72" x2="317.00" y2="323.25"/><line x1="284.58" y1="153.06" x2="305.37" y2="160.57"/><line x1="235.53" y1="193.47" x2="243.90" y2="201.10"/><line x1="271.81" y1="168.42" x2="272.26" y2="168.31"/><line x1="280.29" y1="290.25" x2="269.01" y2="284.56"/><line x1="270.10" y1="275.86" x2="270.08" y2="276.06"/><line x1="301.60" y1="138.50" x2="300.26" y2="135.60"/><line x1="229.15" y1="139.80" x2="225.88" y2="140.10"/><line x1="203.89" y1="176.85" x2="212.86" y2="172.67"/><line x1="270.18" y1="167.09" x2="270.12" y2="166.52"/><line x1="286.03" y1="282.49" x2="270.05" y2="276.31"/><line x1="304.26" y1="162.15" x2="304.87" y2="161.46"/><line x1="257.36" y1="108.05" x2="253.73" y2="107.13"/><line x1="290.81" y1="298.90" x2="291.88" y2="297.82"/><line x1="274.70" y1="233.50" x2="256.09" y2="250.98"/><line x1="480.00" y1="64.50" x2="447.51" y2="32.02"/><line x1="284.38" y1="153.98" x2="284.53" y2="153.53"/><line x1="299.58" y1="350.91" x2="298.47" y2="350.26"/><line x1="310.33" y1="306.80" x2="309.12" y2="304.69"/><line x1="285.40" y1="327.53" x2="284.71" y2="325.29"/><line x1="213.52" y1="144.55" x2="211.84" y2="146.02"/><line x1="277.85" y1="166.03" x2="278.26" y2="165.91"/><line x1="296.07" y1="128.24" x2="294.62" y2="126.23"/><line x1="314.67" y1="316.12" x2="313.66" y2="313.66"/><line x1="218.48" y1="178.34" x2="220.87" y2="180.55"/><line x1="274.06" y1="167.63" x2="274.80" y2="167.29"/><line x1="311.48" y1="309.00" x2="310.33" y2="306.80"/><line x1="289.11" y1="336.97" x2="288.10" y2="334.72"/><line x1="306.17" y1="153.23" x2="305.88" y2="151.23"/><line x1="243.18" y1="105.04" x2="239.87" y2="104.60"/><line x1="217.78" y1="105.77" x2="214.06" y2="107.13"/><line x1="209.25" y1="188.20" x2="211.28" y2="192.08"/><line x1="262.55" y1="258.62" x2="264.31" y2="260.95"/><line x1="294.94" y1="346.73" x2="293.70" y2="345.03"/><line x1="199.75" y1="166.00" x2="207.98" y2="164.39"/><line x1="274.07" y1="160.25" x2="275.81" y2="159.28"/><line x1="284.88" y1="249.06" x2="287.04" y2="253.80"/><line x1="284.45" y1="164.71" x2="286.50" y2="164.46"/><line x1="274.61" y1="292.88" x2="270.03" y2="290.31"/><line x1="195.66" y1="149.57" x2="196.18" y2="152.62"/><line x1="268.21" y1="267.56" x2="269.04" y2="269.66"/><line x1="237.60" y1="230.87" x2="240.89" y2="234.71"/><line x1="269.04" y1="283.40" x2="269.02" y2="283.75"/><line x1="207.71" y1="153.58" x2="196.85" y2="155.79"/><line x1="288.10" y1="334.72" x2="317.50" y2="325.44"/><line x1="202.04" y1="116.43" x2="199.88" y2="119.68"/><line x1="269.02" y1="284.14" x2="269.01" y2="284.56"/><line x1="235.53" y1="193.47" x2="220.49" y2="207.60"/><line x1="270.82" y1="145.55" x2="282.59" y2="117.09"/><line x1="271.81" y1="168.42" x2="270.18" y2="167.09"/><line x1="269.12" y1="287.10" x2="269.47" y2="288.87"/><line x1="270.10" y1="275.86" x2="286.03" y2="282.49"/><line x1="243.90" y1="201.10" x2="223.05" y2="211.49"/><line x1="229.15" y1="139.80" x2="221.78" y2="104.80"/><line x1="203.89" y1="176.85" x2="211.50" y2="171.10"/><line x1="316.92" y1="338.43" x2="290.19" y2="339.12"/><line x1="225.88" y1="140.10" x2="217.78" y2="105.77"/><line x1="222.87" y1="140.59" x2="204.58" y2="113.54"/><line x1="284.38" y1="309.50" x2="284.94" y2="308.06"/><line x1="257.36" y1="108.05" x2="247.65" y2="140.83"/><line x1="289.71" y1="269.55" x2="269.62" y2="271.72"/><line x1="251.54" y1="208.36" x2="258.43" y2="215.22"/><line x1="269.98" y1="273.72" x2="270.10" y2="275.68"/><line x1="270.26" y1="164.61" x2="270.73" y2="163.45"/><line x1="274.70" y1="233.50" x2="253.54" y2="248.22"/><line x1="207.55" y1="162.48" x2="199.75" y2="166.00"/><line x1="285.40" y1="327.53" x2="314.67" y2="316.12"/><line x1="201.00" y1="169.56" x2="202.38" y2="173.18"/><line x1="213.52" y1="144.55" x2="195.18" y2="136.17"/><line x1="276.02" y1="292.72" x2="274.61" y2="292.88"/><line x1="270.92" y1="112.23" x2="261.67" y2="143.24"/><line x1="284.40" y1="152.32" x2="283.88" y2="151.55"/><line x1="269.90" y1="277.23" x2="269.82" y2="277.61"/><line x1="296.07" y1="128.24" x2="278.31" y2="148.20"/><line x1="258.43" y1="215.22" x2="237.60" y2="230.87"/><line x1="307.86" y1="302.67" x2="306.56" y2="300.75"/><line x1="264.59" y1="221.69" x2="270.01" y2="227.79"/><line x1="218.48" y1="178.34" x2="209.25" y2="188.20"/><line x1="220.14" y1="141.29" x2="202.04" y2="116.43"/><line x1="311.48" y1="309.00" x2="284.38" y2="309.50"/><line x1="296.14" y1="348.17" x2="294.94" y2="346.73"/><line x1="217.66" y1="142.18" x2="215.45" y2="143.27"/><line x1="243.18" y1="105.04" x2="238.22" y2="139.88"/><line x1="287.19" y1="280.07" x2="270.10" y2="275.86"/><line x1="283.88" y1="151.55" x2="301.60" y2="138.50"/><line x1="32.16" y1="32.09" x2="32.16" y2="64.58"/><line x1="262.55" y1="258.62" x2="284.88" y2="249.06"/><line x1="210.36" y1="169.56" x2="203.89" y2="176.85"/><line x1="288.82" y1="120.62" x2="287.01" y2="119.47"/><line x1="195.28" y1="146.65" x2="195.66" y2="149.57"/><line x1="215.67" y1="199.83" x2="218.03" y2="203.71"/><line x1="251.09" y1="141.32" x2="257.36" y2="108.05"/><line x1="274.07" y1="160.25" x2="277.37" y2="166.19"/><line x1="289.80" y1="300.03" x2="290.81" y2="298.90"/><line x1="269.05" y1="283.08" x2="269.04" y2="283.40"/><line x1="250.79" y1="245.35" x2="274.70" y2="233.50"/><line x1="230.61" y1="104.02" x2="226.06" y2="104.22"/><line x1="284.14" y1="154.41" x2="284.38" y2="153.98"/><line x1="280.22" y1="149.08" x2="278.31" y2="148.20"/><line x1="268.21" y1="267.56" x2="289.82" y2="266.71"/><line x1="195.77" y1="131.52" x2="213.52" y2="144.55"/><line x1="284.66" y1="284.83" x2="269.90" y2="277.23"/><line x1="197.67" y1="159.08" x2="198.64" y2="162.50"/><line x1="278.71" y1="238.90" x2="282.11" y2="244.09"/><line x1="269.12" y1="287.10" x2="277.43" y2="292.23"/><line x1="313.66" y1="313.66" x2="312.60" y2="311.28"/><line x1="267.94" y1="144.74" x2="264.89" y2="143.97"/><line x1="228.49" y1="219.27" x2="231.40" y2="223.15"/><line x1="302.85" y1="296.31" x2="295.03" y2="295.36"/><line x1="301.75" y1="295.37" x2="300.70" y2="294.70"/><line x1="222.87" y1="140.59" x2="207.46" y2="111.02"/><line x1="269.98" y1="273.72" x2="288.14" y2="277.56"/><line x1="270.26" y1="164.61" x2="274.06" y2="167.63"/><line x1="304.74" y1="146.69" x2="303.89" y2="144.14"/><line x1="318.13" y1="331.49" x2="318.06" y2="329.56"/><line x1="276.22" y1="166.65" x2="276.83" y2="166.40"/><line x1="201.00" y1="169.56" x2="209.38" y2="167.92"/><line x1="283.38" y1="319.52" x2="283.19" y2="317.92"/><line x1="258.26" y1="142.55" x2="254.68" y2="141.90"/><line x1="270.28" y1="167.57" x2="271.81" y2="168.42"/><line x1="307.86" y1="302.67" x2="288.85" y2="301.23"/><line x1="291.30" y1="341.19" x2="314.78" y2="342.40"/><line x1="264.59" y1="221.69" x2="247.84" y2="242.37"/><line x1="283.37" y1="155.23" x2="283.80" y2="154.83"/><line x1="298.80" y1="294.16" x2="299.72" y2="294.29"/><line x1="32.00" y1="479.98" x2="64.49" y2="479.98"/><line x1="311.48" y1="309.00" x2="283.93" y2="310.93"/><line x1="217.66" y1="142.18" x2="196.74" y2="127.22"/><line x1="243.90" y1="201.10" x2="251.54" y2="208.36"/><line x1="287.14" y1="332.37" x2="286.23" y2="329.93"/><line x1="212.86" y1="172.67" x2="214.47" y2="174.40"/><line x1="280.22" y1="149.08" x2="296.07" y2="128.24"/><line x1="268.21" y1="267.56" x2="289.51" y2="262.63"/><line x1="298.47" y1="350.26" x2="297.32" y2="349.35"/><line x1="216.35" y1="176.28" x2="218.48" y2="178.34"/><line x1="278.71" y1="238.90" x2="260.59" y2="256.18"/><line x1="287.10" y1="303.79" x2="287.95" y2="302.48"/><line x1="241.21" y1="140.11" x2="243.18" y2="105.04"/><line x1="269.12" y1="287.10" x2="278.85" y2="291.41"/><line x1="313.66" y1="313.66" x2="283.69" y2="321.29"/><line x1="282.11" y1="244.09" x2="262.55" y2="258.62"/><line x1="273.13" y1="292.72" x2="271.87" y2="292.24"/><line x1="298.75" y1="163.79" x2="300.26" y2="163.58"/><line x1="228.49" y1="219.27" x2="251.54" y2="208.36"/><line x1="302.73" y1="351.32" x2="303.87" y2="350.98"/><line x1="283.19" y1="286.97" x2="281.74" y2="288.78"/><line x1="312.60" y1="311.28" x2="283.38" y2="319.52"/><line x1="209.25" y1="149.47" x2="195.28" y2="146.65"/><line x1="301.75" y1="295.37" x2="297.91" y2="294.24"/><line x1="269.07" y1="282.80" x2="269.05" y2="283.08"/><line x1="317.00" y1="323.25" x2="316.36" y2="320.96"/><line x1="290.37" y1="121.76" x2="288.82" y2="120.62"/><line x1="287.04" y1="253.80" x2="288.58" y2="258.32"/><line x1="269.98" y1="273.72" x2="288.87" y2="274.98"/><line x1="300.70" y1="294.70" x2="298.80" y2="294.16"/><line x1="226.43" y1="185.46" x2="215.67" y2="199.83"/><line x1="276.22" y1="166.65" x2="274.07" y2="160.25"/><line x1="201.00" y1="169.56" x2="208.60" y2="166.20"/><line x1="311.56" y1="345.85" x2="291.30" y2="341.19"/><line x1="305.26" y1="299.00" x2="292.96" y2="296.85"/><line x1="233.59" y1="104.09" x2="230.61" y2="104.02"/><line x1="288.58" y1="258.32" x2="268.21" y2="267.56"/><line x1="303.87" y1="350.98" x2="305.14" y2="350.41"/><line x1="305.37" y1="160.57" x2="305.76" y2="159.49"/><line x1="284.66" y1="284.83" x2="283.19" y2="286.97"/><line x1="291.30" y1="341.19" x2="313.31" y2="344.19"/><line x1="275.81" y1="159.28" x2="277.88" y2="158.37"/><line x1="264.59" y1="221.69" x2="244.30" y2="238.55"/><line x1="283.58" y1="312.34" x2="283.93" y2="310.93"/><line x1="207.32" y1="155.89" x2="197.67" y2="159.08"/><line x1="32.00" y1="479.98" x2="32.00" y2="447.50"/><line x1="198.64" y1="162.50" x2="199.75" y2="166.00"/><line x1="217.66" y1="142.18" x2="198.12" y2="123.27"/><line x1="269.01" y1="285.02" x2="269.12" y2="287.10"/><line x1="279.99" y1="115.88" x2="267.94" y2="144.74"/><line x1="282.22" y1="156.00" x2="282.85" y2="155.62"/><line x1="270.12" y1="166.52" x2="270.10" y2="165.83"/><line x1="283.93" y1="310.93" x2="284.38" y2="309.50"/><line x1="312.60" y1="311.28" x2="311.48" y2="309.00"/><line x1="264.89" y1="143.97" x2="261.67" y2="143.24"/><line x1="225.72" y1="215.38" x2="228.49" y2="219.27"/><line x1="277.88" y1="158.37" x2="278.60" y2="165.83"/><line x1="212.86" y1="172.67" x2="205.54" y2="180.58"/><line x1="317.59" y1="336.25" x2="318.00" y2="333.93"/><line x1="256.09" y1="250.98" x2="258.44" y2="253.63"/><line x1="214.06" y1="107.13" x2="222.87" y2="140.59"/><line x1="269.47" y1="288.87" x2="270.03" y2="290.31"/><line x1="284.53" y1="153.53" x2="284.58" y2="153.06"/><line x1="270.61" y1="168.22" x2="270.42" y2="167.95"/><line x1="289.39" y1="272.30" x2="269.98" y2="273.72"/><line x1="211.84" y1="146.02" x2="210.42" y2="147.66"/><line x1="305.40" y1="149.05" x2="304.74" y2="146.69"/><line x1="267.68" y1="111.11" x2="264.34" y2="110.04"/><line x1="318.00" y1="333.93" x2="318.13" y2="331.49"/><line x1="286.32" y1="305.17" x2="287.10" y2="303.79"/><line x1="207.98" y1="164.39" x2="201.00" y2="169.56"/><line x1="284.58" y1="153.06" x2="284.40" y2="152.32"/><line x1="270.03" y1="290.31" x2="273.13" y2="292.72"/><line x1="220.87" y1="180.55" x2="223.52" y2="182.92"/><line x1="274.80" y1="167.29" x2="275.54" y2="166.95"/><line x1="199.88" y1="119.68" x2="198.12" y2="123.27"/><line x1="291.30" y1="341.19" x2="290.19" y2="339.12"/><line x1="287.10" y1="303.79" x2="307.86" y2="302.67"/><line x1="240.89" y1="234.71" x2="264.59" y2="221.69"/><line x1="239.87" y1="104.60" x2="236.67" y2="104.28"/><line x1="283.00" y1="150.75" x2="298.89" y2="132.93"/><line x1="273.13" y1="292.72" x2="270.84" y2="291.44"/><line x1="317.50" y1="325.44" x2="317.00" y2="323.25"/><line x1="302.73" y1="351.32" x2="299.58" y2="350.91"/><line x1="272.26" y1="168.31" x2="272.79" y2="168.14"/><line x1="208.35" y1="151.44" x2="207.71" y2="153.58"/><line x1="247.65" y1="140.83" x2="250.10" y2="106.31"/><line x1="317.00" y1="323.25" x2="287.14" y2="332.37"/><line x1="292.98" y1="164.10" x2="295.11" y2="164.05"/><line x1="270.08" y1="276.06" x2="270.05" y2="276.31"/><line x1="284.58" y1="153.06" x2="301.56" y2="163.32"/><line x1="277.37" y1="166.19" x2="277.85" y2="166.03"/><line x1="195.18" y1="136.17" x2="194.99" y2="141.18"/><line x1="305.26" y1="299.00" x2="291.88" y2="297.82"/><line x1="284.58" y1="153.06" x2="306.27" y2="155.05"/><line x1="278.26" y1="165.91" x2="277.88" y2="158.37"/><line x1="278.31" y1="148.20" x2="293.15" y2="124.44"/><line x1="303.87" y1="350.98" x2="298.47" y2="350.26"/><line x1="284.71" y1="325.29" x2="284.14" y2="323.21"/><line x1="276.04" y1="147.30" x2="273.52" y2="146.40"/><line x1="270.73" y1="163.45" x2="271.52" y2="162.33"/><line x1="269.37" y1="280.35" x2="269.10" y2="282.54"/><line x1="198.64" y1="162.50" x2="207.55" y2="162.48"/><line x1="305.88" y1="151.23" x2="305.40" y2="149.05"/><line x1="238.22" y1="139.88" x2="235.38" y2="139.75"/><line x1="281.74" y1="288.78" x2="280.29" y2="290.25"/><line x1="282.22" y1="156.00" x2="286.50" y2="164.46"/><line x1="296.01" y1="294.83" x2="296.98" y2="294.46"/><line x1="312.60" y1="311.28" x2="283.18" y2="315.11"/><line x1="264.89" y1="143.97" x2="270.92" y2="112.23"/><line x1="271.09" y1="168.48" x2="270.61" y2="168.22"/><line x1="308.08" y1="348.59" x2="309.76" y2="347.34"/><line x1="261.67" y1="143.24" x2="267.68" y2="111.11"/><line x1="264.31" y1="260.95" x2="265.84" y2="263.20"/><line x1="270.61" y1="168.22" x2="270.83" y2="168.40"/><line x1="286.50" y1="164.46" x2="282.85" y2="155.62"/><line x1="273.52" y1="146.40" x2="284.93" y2="118.29"/><line x1="267.68" y1="111.11" x2="258.26" y2="142.55"/><line x1="284.58" y1="153.06" x2="304.87" y2="161.46"/><line x1="284.58" y1="153.06" x2="304.74" y2="146.69"/><line x1="280.29" y1="290.25" x2="269.02" y2="284.14"/><line x1="282.85" y1="155.62" x2="283.37" y2="155.23"/><line x1="301.60" y1="138.50" x2="283.00" y2="150.75"/><line x1="199.88" y1="119.68" x2="217.66" y2="142.18"/><line x1="270.18" y1="167.09" x2="272.26" y2="168.31"/><line x1="288.85" y1="301.23" x2="289.80" y2="300.03"/><line x1="286.03" y1="282.49" x2="270.08" y2="276.06"/><line x1="283.00" y1="150.75" x2="300.26" y2="135.60"/><line x1="290.19" y1="339.12" x2="289.11" y2="336.97"/><line x1="290.81" y1="298.90" x2="305.26" y2="299.00"/><line x1="211.50" y1="171.10" x2="212.86" y2="172.67"/><line x1="289.82" y1="266.71" x2="289.71" y2="269.55"/><line x1="272.26" y1="168.31" x2="270.12" y2="166.52"/><line x1="284.38" y1="153.98" x2="292.98" y2="164.10"/><line x1="299.58" y1="350.91" x2="303.87" y2="350.98"/><line x1="310.33" y1="306.80" x2="285.59" y2="306.60"/><line x1="247.65" y1="140.83" x2="253.73" y2="107.13"/><line x1="286.23" y1="329.93" x2="285.40" y2="327.53"/><line x1="253.54" y1="248.22" x2="256.09" y2="250.98"/><line x1="277.43" y1="292.23" x2="276.02" y2="292.72"/><line x1="292.98" y1="164.10" x2="284.53" y2="153.53"/><line x1="207.33" y1="184.37" x2="209.25" y2="188.20"/><line x1="314.67" y1="316.12" x2="284.71" y2="325.29"/><line x1="284.58" y1="153.06" x2="300.26" y2="163.58"/><line x1="195.18" y1="136.17" x2="211.84" y2="146.02"/><line x1="284.58" y1="153.06" x2="306.20" y2="156.72"/><line x1="274.06" y1="167.63" x2="270.73" y2="163.45"/><line x1="269.82" y1="277.61" x2="269.37" y2="280.35"/><line x1="280.29" y1="290.25" x2="278.85" y2="291.41"/><line x1="289.11" y1="336.97" x2="317.85" y2="327.55"/><line x1="278.31" y1="148.20" x2="294.62" y2="126.23"/><line x1="284.71" y1="325.29" x2="313.66" y2="313.66"/><line x1="295.03" y1="295.36" x2="296.01" y2="294.83"/><line x1="276.04" y1="147.30" x2="288.82" y2="120.62"/><line x1="209.25" y1="188.20" x2="220.87" y2="180.55"/><line x1="270.73" y1="163.45" x2="274.80" y2="167.29"/><line x1="269.37" y1="280.35" x2="283.19" y2="286.97"/><line x1="286.03" y1="282.49" x2="284.66" y2="284.83"/><line x1="294.94" y1="346.73" x2="308.08" y2="348.59"/><line x1="238.22" y1="139.88" x2="239.87" y2="104.60"/><line x1="281.74" y1="288.78" x2="269.04" y2="283.40"/><line x1="296.01" y1="294.83" x2="301.75" y2="295.37"/><line x1="284.88" y1="249.06" x2="264.31" y2="260.95"/><line x1="301.56" y1="163.32" x2="302.65" y2="163.00"/><line x1="308.08" y1="348.59" x2="293.70" y2="345.03"/><line x1="283.19" y1="317.92" x2="283.13" y2="316.48"/><line x1="195.66" y1="149.57" x2="208.35" y2="151.44"/><line x1="64.64" y1="32.09" x2="32.16" y2="64.58"/><line x1="232.68" y1="139.71" x2="229.15" y2="139.80"/><line x1="264.31" y1="260.95" x2="287.04" y2="253.80"/><line x1="269.04" y1="283.40" x2="280.29" y2="290.25"/><line x1="273.52" y1="146.40" x2="287.01" y2="119.47"/><line x1="283.13" y1="316.48" x2="283.18" y2="315.11"/><line x1="284.58" y1="153.06" x2="304.26" y2="162.15"/><line x1="235.53" y1="193.47" x2="218.03" y2="203.71"/><line x1="254.68" y1="141.90" x2="251.09" y2="141.32"/><line x1="280.29" y1="290.25" x2="269.02" y2="283.75"/><line x1="313.31" y1="344.19" x2="314.78" y2="342.40"/><line x1="229.15" y1="139.80" x2="226.06" y2="104.22"/><line x1="207.19" y1="158.37" x2="207.28" y2="160.47"/><line x1="218.03" y1="203.71" x2="220.49" y2="207.60"/><line x1="289.51" y1="262.63" x2="289.82" y2="266.71"/><line x1="277.12" y1="114.63" x2="274.07" y2="113.40"/><line x1="314.78" y1="342.40" x2="315.99" y2="340.48"/><line x1="284.38" y1="309.50" x2="310.33" y2="306.80"/><line x1="290.19" y1="339.12" x2="318.13" y2="331.49"/><line x1="281.79" y1="149.93" x2="280.22" y2="149.08"/><line x1="251.54" y1="208.36" x2="234.44" y2="227.02"/><line x1="280.50" y1="165.39" x2="282.45" y2="165.03"/><line x1="289.82" y1="266.71" x2="269.04" y2="269.66"/><line x1="271.09" y1="168.48" x2="271.42" y2="168.48"/><line x1="310.33" y1="306.80" x2="284.94" y2="308.06"/><line x1="309.12" y1="304.69" x2="307.86" y2="302.67"/><line x1="244.36" y1="140.42" x2="241.21" y2="140.11"/><line x1="284.40" y1="152.32" x2="302.84" y2="141.41"/><line x1="277.43" y1="292.23" x2="269.47" y2="288.87"/><line x1="284.58" y1="153.06" x2="298.75" y2="163.79"/><line x1="270.42" y1="167.95" x2="270.28" y2="167.57"/><line x1="231.40" y1="223.15" x2="234.44" y2="227.02"/><line x1="288.14" y1="277.56" x2="287.19" y2="280.07"/><line x1="300.26" y1="163.58" x2="301.56" y2="163.32"/><line x1="264.34" y1="110.04" x2="260.90" y2="109.01"/><line x1="289.11" y1="336.97" x2="318.06" y2="329.56"/><line x1="209.38" y1="167.92" x2="210.36" y2="169.56"/><line x1="276.04" y1="147.30" x2="290.37" y2="121.76"/><line x1="32.16" y1="32.09" x2="64.64" y2="32.09"/><line x1="288.61" y1="164.28" x2="290.77" y2="164.16"/><line x1="288.82" y1="120.62" x2="273.52" y2="146.40"/><line x1="275.54" y1="166.95" x2="276.22" y2="166.65"/><line x1="247.84" y1="242.37" x2="250.79" y2="245.35"/><line x1="215.67" y1="199.83" x2="235.53" y2="193.47"/><line x1="274.07" y1="160.25" x2="276.83" y2="166.40"/><line x1="298.89" y1="132.93" x2="297.50" y2="130.48"/><line x1="316.36" y1="320.96" x2="315.59" y2="318.59"/><line x1="196.74" y1="127.22" x2="195.77" y2="131.52"/><line x1="230.61" y1="104.02" x2="229.15" y2="139.80"/><line x1="205.54" y1="180.58" x2="207.33" y2="184.37"/><line x1="272.79" y1="168.14" x2="273.39" y2="167.91"/><line x1="276.83" y1="166.40" x2="277.37" y2="166.19"/><line x1="305.76" y1="159.49" x2="306.04" y2="158.20"/><line x1="250.10" y1="106.31" x2="246.59" y2="105.61"/><line x1="292.96" y1="296.85" x2="294.01" y2="296.03"/><line x1="214.47" y1="174.40" x2="216.35" y2="176.28"/><line x1="197.67" y1="159.08" x2="207.19" y2="158.37"/><line x1="32.00" y1="447.50" x2="64.49" y2="479.98"/></g></svg>