<svg xmlns="http://www.w3.org/2000/svg" width="512" height="512"><rect width="512" height="512" fill="#0a0f1a"/><text x="12" y="20" font-family="monospace" font-size="11" fill="#4a7fa5">FRONT (XZ)</text><g stroke="#00d4ff" stroke-width="0.6" opacity="0.85"><line x1="161.96" y1="119.66" x2="162.24" y2="120.61"/><line x1="207.34" y1="149.09" x2="204.11" y2="108.33"/><line x1="305.85" y1="142.99" x2="280.28" y2="165.32"/><line x1="306.36" y1="284.95" x2="310.89" y2="290.68"/><line x1="203.79" y1="159.10" x2="227.99" y2="202.13"/><line x1="191.92" y1="151.44" x2="191.04" y2="152.97"/><line x1="342.24" y1="298.41" x2="344.41" y2="302.14"/><line x1="203.79" y1="159.10" x2="196.99" y2="173.98"/><line x1="174.29" y1="109.04" x2="177.61" y2="108.75"/><line x1="171.56" y1="138.99" x2="172.72" y2="140.74"/><line x1="243.15" y1="257.57" x2="269.99" y2="265.21"/><line x1="280.28" y1="165.32" x2="308.19" y2="146.67"/><line x1="323.44" y1="272.82" x2="327.26" y2="277.46"/><line x1="267.29" y1="215.29" x2="289.15" y2="235.28"/><line x1="247.04" y1="221.40" x2="237.75" y2="211.72"/><line x1="307.93" y1="331.72" x2="306.42" y2="352.21"/><line x1="238.62" y1="285.00" x2="238.39" y2="278.21"/><line x1="172.72" y1="140.74" x2="173.90" y2="142.45"/><line x1="223.68" y1="148.15" x2="227.48" y2="109.56"/><line x1="193.45" y1="170.44" x2="192.17" y2="168.98"/><line x1="289.15" y1="235.28" x2="294.85" y2="241.19"/><line x1="271.63" y1="307.75" x2="249.63" y2="319.40"/><line x1="227.48" y1="109.56" x2="232.13" y2="148.33"/><line x1="280.55" y1="196.32" x2="279.11" y2="198.94"/><line x1="284.07" y1="172.42" x2="314.44" y2="163.43"/><line x1="349.20" y1="312.39" x2="328.52" y2="319.85"/><line x1="268.44" y1="339.02" x2="264.24" y2="335.82"/><line x1="161.96" y1="119.66" x2="161.74" y2="115.87"/><line x1="179.05" y1="149.01" x2="179.75" y2="149.65"/><line x1="249.63" y1="319.40" x2="270.47" y2="305.33"/><line x1="249.78" y1="243.46" x2="251.81" y2="239.50"/><line x1="314.44" y1="163.43" x2="315.23" y2="168.13"/><line x1="203.79" y1="159.10" x2="212.73" y2="188.25"/><line x1="300.13" y1="330.68" x2="298.09" y2="330.09"/><line x1="203.79" y1="159.10" x2="191.08" y2="167.53"/><line x1="179.75" y1="149.65" x2="180.47" y2="150.20"/><line x1="247.17" y1="149.73" x2="254.12" y2="113.51"/><line x1="251.81" y1="239.50" x2="253.99" y2="235.38"/><line x1="296.23" y1="226.43" x2="267.29" y2="215.29"/><line x1="189.02" y1="163.22" x2="188.73" y2="161.81"/><line x1="290.10" y1="265.93" x2="305.45" y2="252.47"/><line x1="247.04" y1="221.40" x2="210.92" y2="165.92"/><line x1="256.49" y1="328.33" x2="252.95" y2="324.05"/><line x1="267.83" y1="297.57" x2="242.06" y2="303.56"/><line x1="254.12" y1="113.51" x2="260.03" y2="114.93"/><line x1="287.06" y1="348.27" x2="282.27" y2="346.47"/><line x1="188.73" y1="161.81" x2="200.85" y2="155.79"/><line x1="351.27" y1="327.34" x2="350.49" y2="330.62"/><line x1="167.08" y1="110.33" x2="162.61" y2="121.68"/><line x1="242.06" y1="303.56" x2="267.27" y2="294.84"/><line x1="282.49" y1="168.74" x2="284.07" y2="172.42"/><line x1="210.92" y1="165.92" x2="208.73" y2="163.92"/><line x1="315.30" y1="185.62" x2="284.94" y2="184.59"/><line x1="282.27" y1="346.47" x2="289.74" y2="326.50"/><line x1="185.68" y1="151.65" x2="187.00" y2="151.68"/><line x1="326.84" y1="325.66" x2="324.74" y2="327.84"/><line x1="265.09" y1="154.46" x2="285.31" y2="124.86"/><line x1="208.73" y1="163.92" x2="206.82" y2="162.11"/><line x1="200.22" y1="154.96" x2="189.70" y2="155.77"/><line x1="306.36" y1="284.95" x2="323.44" y2="272.82"/><line x1="203.79" y1="159.10" x2="231.40" y2="205.40"/><line x1="324.74" y1="327.84" x2="335.05" y2="346.47"/><line x1="246.65" y1="314.42" x2="244.13" y2="309.14"/><line x1="174.29" y1="109.04" x2="165.64" y2="128.62"/><line x1="289.74" y1="326.50" x2="287.75" y2="325.33"/><line x1="266.56" y1="286.24" x2="238.62" y2="285.00"/><line x1="189.70" y1="155.77" x2="190.30" y2="154.41"/><line x1="328.11" y1="323.00" x2="326.84" y2="325.66"/><line x1="282.16" y1="321.23" x2="280.41" y2="319.67"/><line x1="238.62" y1="285.00" x2="266.77" y2="280.66"/><line x1="318.57" y1="301.10" x2="321.61" y2="305.57"/><line x1="480.00" y1="32.02" x2="447.51" y2="32.02"/><line x1="338.74" y1="344.34" x2="335.05" y2="346.47"/><line x1="227.99" y1="202.13" x2="224.42" y2="198.78"/><line x1="337.08" y1="290.49" x2="339.80" y2="294.53"/><line x1="240.45" y1="297.67" x2="239.31" y2="291.48"/><line x1="268.44" y1="339.02" x2="280.41" y2="319.67"/><line x1="300.24" y1="136.19" x2="303.20" y2="139.49"/><line x1="273.88" y1="206.98" x2="271.83" y2="209.72"/><line x1="319.53" y1="351.72" x2="315.46" y2="352.21"/><line x1="275.63" y1="314.26" x2="274.22" y2="312.21"/><line x1="162.24" y1="120.61" x2="167.08" y2="110.33"/><line x1="211.80" y1="148.57" x2="217.25" y2="148.26"/><line x1="296.23" y1="226.43" x2="269.64" y2="212.49"/><line x1="285.24" y1="182.56" x2="315.30" y2="185.62"/><line x1="326.04" y1="312.89" x2="327.42" y2="315.75"/><line x1="267.29" y1="215.29" x2="243.63" y2="194.49"/><line x1="256.49" y1="328.33" x2="272.89" y2="310.04"/><line x1="291.79" y1="327.56" x2="282.27" y2="346.47"/><line x1="184.52" y1="151.57" x2="185.68" y2="151.65"/><line x1="310.22" y1="150.55" x2="311.94" y2="154.64"/><line x1="346.31" y1="305.72" x2="347.90" y2="309.13"/><line x1="319.34" y1="268.00" x2="306.36" y2="284.95"/><line x1="246.16" y1="250.85" x2="247.89" y2="247.24"/><line x1="191.08" y1="167.53" x2="190.20" y2="166.08"/><line x1="282.49" y1="168.74" x2="313.35" y2="158.93"/><line x1="276.04" y1="120.33" x2="265.09" y2="154.46"/><line x1="277.06" y1="251.72" x2="219.07" y2="173.15"/><line x1="304.11" y1="331.46" x2="302.14" y2="331.13"/><line x1="342.13" y1="341.95" x2="324.74" y2="327.84"/><line x1="270.47" y1="305.33" x2="269.43" y2="302.81"/><line x1="164.20" y1="125.60" x2="174.29" y2="109.04"/><line x1="285.02" y1="176.39" x2="285.33" y2="180.63"/><line x1="202.63" y1="157.86" x2="201.65" y2="156.76"/><line x1="265.09" y1="154.46" x2="280.82" y2="122.50"/><line x1="282.89" y1="191.31" x2="281.82" y2="193.76"/><line x1="324.74" y1="327.84" x2="338.74" y2="344.34"/><line x1="246.65" y1="314.42" x2="268.56" y2="300.23"/><line x1="174.29" y1="109.04" x2="164.89" y2="127.08"/><line x1="241.43" y1="111.20" x2="247.93" y2="112.27"/><line x1="199.42" y1="153.26" x2="199.51" y2="153.69"/><line x1="231.40" y1="205.40" x2="227.99" y2="202.13"/><line x1="281.82" y1="193.76" x2="280.55" y2="196.32"/><line x1="334.08" y1="286.30" x2="318.57" y2="301.10"/><line x1="328.11" y1="323.00" x2="347.35" y2="336.65"/><line x1="282.16" y1="321.23" x2="268.44" y2="339.02"/><line x1="199.51" y1="153.69" x2="199.78" y2="154.26"/><line x1="293.39" y1="130.14" x2="296.97" y2="133.07"/><line x1="318.57" y1="301.10" x2="337.08" y2="290.49"/><line x1="296.01" y1="329.37" x2="293.89" y2="328.53"/><line x1="480.00" y1="32.02" x2="480.00" y2="64.50"/><line x1="181.42" y1="108.54" x2="168.31" y2="133.62"/><line x1="239.27" y1="269.76" x2="239.94" y2="266.81"/><line x1="296.97" y1="133.07" x2="300.24" y2="136.19"/><line x1="295.96" y1="272.58" x2="301.38" y2="278.91"/><line x1="275.77" y1="204.27" x2="273.88" y2="206.98"/><line x1="480.00" y1="479.91" x2="480.00" y2="447.42"/><line x1="323.52" y1="350.90" x2="319.53" y2="351.72"/><line x1="240.45" y1="297.67" x2="266.64" y2="289.18"/><line x1="168.31" y1="133.62" x2="169.35" y2="135.41"/><line x1="204.11" y1="108.33" x2="211.80" y2="148.57"/><line x1="205.26" y1="181.62" x2="202.11" y2="178.76"/><line x1="273.88" y1="206.98" x2="296.23" y2="226.43"/><line x1="344.41" y1="302.14" x2="326.04" y2="312.89"/><line x1="275.63" y1="314.26" x2="256.49" y2="328.33"/><line x1="211.80" y1="148.57" x2="212.23" y2="108.58"/><line x1="308.19" y1="146.67" x2="310.22" y2="150.55"/><line x1="326.04" y1="312.89" x2="346.31" y2="305.72"/><line x1="277.06" y1="251.72" x2="247.04" y2="221.40"/><line x1="447.51" y1="479.91" x2="480.00" y2="447.42"/><line x1="244.58" y1="254.30" x2="246.16" y2="250.85"/><line x1="310.22" y1="150.55" x2="282.49" y2="168.74"/><line x1="321.80" y1="329.54" x2="318.02" y2="330.75"/><line x1="177.61" y1="108.75" x2="181.42" y2="108.54"/><line x1="306.03" y1="331.66" x2="304.11" y2="331.46"/><line x1="175.12" y1="144.14" x2="176.38" y2="145.80"/><line x1="191.08" y1="167.53" x2="202.63" y2="157.86"/><line x1="277.06" y1="251.72" x2="243.63" y2="194.49"/><line x1="264.24" y1="335.82" x2="260.26" y2="332.26"/><line x1="195.68" y1="108.25" x2="204.11" y2="108.33"/><line x1="185.69" y1="108.38" x2="181.94" y2="151.01"/><line x1="270.47" y1="305.33" x2="246.65" y2="314.42"/><line x1="234.62" y1="110.30" x2="241.43" y2="111.20"/><line x1="185.69" y1="108.38" x2="199.92" y2="151.91"/><line x1="285.02" y1="176.39" x2="315.85" y2="178.15"/><line x1="202.63" y1="157.86" x2="190.20" y2="166.08"/><line x1="350.22" y1="315.50" x2="350.95" y2="318.45"/><line x1="291.86" y1="349.75" x2="287.06" y2="348.27"/><line x1="268.48" y1="270.15" x2="269.99" y2="265.21"/><line x1="253.99" y1="235.38" x2="256.31" y2="231.08"/><line x1="310.35" y1="257.83" x2="314.98" y2="263.01"/><line x1="277.06" y1="251.72" x2="274.27" y2="256.00"/><line x1="162.61" y1="121.68" x2="163.06" y2="122.88"/><line x1="267.27" y1="294.84" x2="266.88" y2="292.04"/><line x1="253.76" y1="150.96" x2="259.74" y2="152.53"/><line x1="256.31" y1="231.08" x2="247.04" y2="221.40"/><line x1="200.85" y1="155.79" x2="188.62" y2="160.39"/><line x1="169.06" y1="109.80" x2="171.44" y2="109.39"/><line x1="284.46" y1="186.73" x2="283.78" y2="188.97"/><line x1="188.62" y1="160.39" x2="188.69" y2="159.36"/><line x1="347.35" y1="336.65" x2="345.01" y2="339.39"/><line x1="287.75" y1="325.33" x2="285.83" y2="324.07"/><line x1="480.00" y1="479.91" x2="447.51" y2="479.91"/><line x1="185.69" y1="108.38" x2="178.35" y2="148.27"/><line x1="185.69" y1="108.38" x2="185.68" y2="151.65"/><line x1="190.30" y1="154.41" x2="191.04" y2="152.97"/><line x1="313.67" y1="193.32" x2="310.95" y2="201.25"/><line x1="185.69" y1="108.38" x2="190.45" y2="108.28"/><line x1="310.89" y1="290.68" x2="330.81" y2="281.96"/><line x1="277.51" y1="344.34" x2="272.86" y2="341.86"/><line x1="266.77" y1="280.66" x2="238.49" y2="275.46"/><line x1="173.90" y1="142.45" x2="175.12" y2="144.14"/><line x1="201.65" y1="156.76" x2="188.73" y2="161.81"/><line x1="285.31" y1="124.86" x2="289.50" y2="127.41"/><line x1="205.17" y1="160.51" x2="203.79" y2="159.10"/><line x1="294.85" y1="241.19" x2="277.06" y2="251.72"/><line x1="335.05" y1="346.47" x2="331.28" y2="348.27"/><line x1="277.06" y1="251.72" x2="256.31" y2="231.08"/><line x1="165.64" y1="128.62" x2="166.46" y2="130.22"/><line x1="269.83" y1="156.73" x2="273.94" y2="159.32"/><line x1="232.13" y1="148.33" x2="234.62" y2="110.30"/><line x1="307.13" y1="209.42" x2="277.51" y2="201.59"/><line x1="200.85" y1="155.79" x2="200.22" y2="154.96"/><line x1="321.80" y1="329.54" x2="327.44" y2="349.75"/><line x1="280.41" y1="319.67" x2="278.73" y2="317.99"/><line x1="161.74" y1="115.87" x2="162.19" y2="114.38"/><line x1="315.23" y1="168.13" x2="285.02" y2="176.39"/><line x1="321.61" y1="305.57" x2="324.10" y2="309.50"/><line x1="185.69" y1="108.38" x2="172.72" y2="140.74"/><line x1="264.24" y1="335.82" x2="277.14" y2="316.19"/><line x1="240.82" y1="263.80" x2="241.88" y2="260.72"/><line x1="195.68" y1="108.25" x2="207.34" y2="149.09"/><line x1="180.47" y1="150.20" x2="181.20" y2="150.65"/><line x1="185.69" y1="108.38" x2="181.20" y2="150.65"/><line x1="277.42" y1="162.18" x2="305.85" y2="142.99"/><line x1="185.69" y1="108.38" x2="191.92" y2="151.44"/><line x1="285.02" y1="176.39" x2="315.69" y2="173.04"/><line x1="339.80" y1="294.53" x2="342.24" y2="298.41"/><line x1="313.40" y1="331.48" x2="311.32" y2="352.38"/><line x1="291.86" y1="349.75" x2="296.01" y2="329.37"/><line x1="268.48" y1="270.15" x2="243.15" y2="257.57"/><line x1="181.20" y1="150.65" x2="181.94" y2="151.01"/><line x1="310.95" y1="201.25" x2="307.13" y2="209.42"/><line x1="260.03" y1="114.93" x2="253.76" y2="150.96"/><line x1="310.35" y1="257.83" x2="295.96" y2="272.58"/><line x1="161.75" y1="118.83" x2="161.96" y2="119.66"/><line x1="294.85" y1="241.19" x2="300.28" y2="246.92"/><line x1="162.61" y1="121.68" x2="169.06" y2="109.80"/><line x1="267.27" y1="294.84" x2="240.45" y2="297.67"/><line x1="253.76" y1="150.96" x2="265.65" y2="116.55"/><line x1="284.94" y1="184.59" x2="284.46" y2="186.73"/><line x1="161.59" y1="117.55" x2="161.74" y2="115.87"/><line x1="349.18" y1="333.72" x2="347.35" y2="336.65"/><line x1="272.89" y1="310.04" x2="271.63" y2="307.75"/><line x1="169.06" y1="109.80" x2="163.06" y2="122.88"/><line x1="273.94" y1="159.32" x2="277.42" y2="162.18"/><line x1="220.01" y1="108.99" x2="227.48" y2="109.56"/><line x1="187.00" y1="151.68" x2="188.48" y2="151.65"/><line x1="206.82" y1="162.11" x2="205.17" y2="160.51"/><line x1="284.46" y1="186.73" x2="313.67" y2="193.32"/><line x1="347.90" y1="309.13" x2="349.20" y2="312.39"/><line x1="267.42" y1="275.30" x2="268.48" y2="270.15"/><line x1="287.75" y1="325.33" x2="277.51" y2="344.34"/><line x1="185.69" y1="108.38" x2="177.66" y2="147.43"/><line x1="247.89" y1="247.24" x2="249.78" y2="243.46"/><line x1="188.48" y1="151.65" x2="190.12" y2="151.57"/><line x1="328.52" y1="319.85" x2="350.22" y2="315.50"/><line x1="185.69" y1="108.38" x2="184.52" y2="151.57"/><line x1="280.82" y1="122.50" x2="285.31" y2="124.86"/><line x1="190.30" y1="154.41" x2="199.78" y2="154.26"/><line x1="185.69" y1="108.38" x2="201.40" y2="150.76"/><line x1="310.89" y1="290.68" x2="327.26" y2="277.46"/><line x1="302.14" y1="331.13" x2="300.13" y2="330.68"/><line x1="164.89" y1="127.08" x2="165.64" y2="128.62"/><line x1="201.40" y1="150.76" x2="195.68" y2="108.25"/><line x1="266.77" y1="280.66" x2="238.39" y2="278.21"/><line x1="315.85" y1="178.15" x2="315.30" y2="185.62"/><line x1="201.65" y1="156.76" x2="189.02" y2="163.22"/><line x1="285.31" y1="124.86" x2="269.83" y2="156.73"/><line x1="298.09" y1="330.09" x2="291.86" y2="349.75"/><line x1="335.05" y1="346.47" x2="321.80" y2="329.54"/><line x1="165.64" y1="128.62" x2="177.61" y2="108.75"/><line x1="305.45" y1="252.47" x2="310.35" y2="257.83"/><line x1="224.42" y1="198.78" x2="220.68" y2="195.35"/><line x1="307.13" y1="209.42" x2="279.11" y2="198.94"/><line x1="169.35" y1="135.41" x2="170.44" y2="137.21"/><line x1="280.41" y1="319.67" x2="264.24" y2="335.82"/><line x1="259.74" y1="152.53" x2="265.09" y2="154.46"/><line x1="190.45" y1="108.28" x2="195.68" y2="108.25"/><line x1="350.49" y1="330.62" x2="349.18" y2="333.72"/><line x1="161.96" y1="119.66" x2="165.40" y2="111.06"/><line x1="321.61" y1="305.57" x2="339.80" y2="294.53"/><line x1="171.44" y1="109.39" x2="174.29" y2="109.04"/><line x1="185.69" y1="108.38" x2="171.56" y2="138.99"/><line x1="212.23" y1="108.58" x2="220.01" y2="108.99"/><line x1="240.82" y1="263.80" x2="268.48" y2="270.15"/><line x1="185.69" y1="108.38" x2="180.47" y2="150.20"/><line x1="203.79" y1="159.10" x2="199.36" y2="176.21"/><line x1="277.42" y1="162.18" x2="303.20" y2="139.49"/><line x1="328.52" y1="319.85" x2="328.11" y2="323.00"/><line x1="313.40" y1="331.48" x2="315.46" y2="352.21"/><line x1="323.44" y1="272.82" x2="310.89" y2="290.68"/><line x1="217.25" y1="148.26" x2="223.68" y2="148.15"/><line x1="247.04" y1="221.40" x2="203.79" y2="159.10"/><line x1="310.95" y1="201.25" x2="280.55" y2="196.32"/><line x1="199.36" y1="176.21" x2="196.99" y2="173.98"/><line x1="327.42" y1="315.75" x2="328.25" y2="318.07"/><line x1="272.86" y1="341.86" x2="268.44" y2="339.02"/><line x1="161.75" y1="118.83" x2="161.63" y2="118.13"/><line x1="199.92" y1="151.91" x2="201.40" y2="150.76"/><line x1="274.22" y1="312.21" x2="272.89" y2="310.04"/><line x1="271.91" y1="260.50" x2="274.27" y2="256.00"/><line x1="301.54" y1="351.72" x2="296.70" y2="350.90"/><line x1="280.55" y1="196.32" x2="307.13" y2="209.42"/><line x1="273.94" y1="159.32" x2="300.24" y2="136.19"/><line x1="190.20" y1="166.08" x2="189.51" y2="164.65"/><line x1="267.42" y1="275.30" x2="240.82" y2="263.80"/><line x1="239.96" y1="148.86" x2="247.17" y2="149.73"/><line x1="203.79" y1="159.10" x2="216.79" y2="191.83"/><line x1="302.23" y1="217.80" x2="296.23" y2="226.43"/><line x1="203.79" y1="159.10" x2="192.17" y2="168.98"/><line x1="268.56" y1="300.23" x2="267.83" y2="297.57"/><line x1="247.04" y1="221.40" x2="213.37" y2="168.13"/><line x1="201.40" y1="150.76" x2="190.45" y2="108.28"/><line x1="315.85" y1="178.15" x2="285.24" y2="182.56"/><line x1="351.53" y1="323.88" x2="351.27" y2="327.34"/><line x1="287.06" y1="348.27" x2="291.79" y2="327.56"/><line x1="480.00" y1="64.50" x2="447.51" y2="32.02"/><line x1="314.98" y1="263.01" x2="319.34" y2="268.00"/><line x1="269.99" y1="265.21" x2="271.91" y2="260.50"/><line x1="169.35" y1="135.41" x2="185.69" y2="108.38"/><line x1="259.74" y1="152.53" x2="276.04" y2="120.33"/><line x1="161.96" y1="119.66" x2="164.03" y2="111.98"/><line x1="326.84" y1="325.66" x2="342.13" y2="341.95"/><line x1="306.42" y1="352.21" x2="301.54" y2="351.72"/><line x1="171.44" y1="109.39" x2="164.20" y2="125.60"/><line x1="191.92" y1="151.44" x2="199.51" y2="153.69"/><line x1="266.64" y1="289.18" x2="266.56" y2="286.24"/><line x1="203.79" y1="159.10" x2="234.66" y2="208.60"/><line x1="212.23" y1="108.58" x2="217.25" y2="148.26"/><line x1="283.78" y1="188.97" x2="282.89" y2="191.31"/><line x1="203.79" y1="159.10" x2="202.11" y2="178.76"/><line x1="328.52" y1="319.85" x2="351.53" y2="323.88"/><line x1="271.83" y1="209.72" x2="269.64" y2="212.49"/><line x1="285.83" y1="324.07" x2="283.96" y2="322.70"/><line x1="247.04" y1="221.40" x2="205.17" y2="160.51"/><line x1="330.81" y1="281.96" x2="334.08" y2="286.30"/><line x1="327.42" y1="315.75" x2="347.90" y2="309.13"/><line x1="272.86" y1="341.86" x2="282.16" y2="321.23"/><line x1="176.38" y1="145.80" x2="177.66" y2="147.43"/><line x1="271.91" y1="260.50" x2="247.89" y2="247.24"/><line x1="314.98" y1="296.10" x2="318.57" y2="301.10"/><line x1="301.54" y1="351.72" x2="302.14" y2="331.13"/><line x1="238.78" y1="272.64" x2="239.27" y2="269.76"/><line x1="337.08" y1="290.49" x2="321.61" y2="305.57"/><line x1="190.20" y1="166.08" x2="201.65" y2="156.76"/><line x1="324.10" y1="309.50" x2="326.04" y2="312.89"/><line x1="239.94" y1="266.81" x2="240.82" y2="263.80"/><line x1="327.44" y1="349.75" x2="323.52" y2="350.90"/><line x1="300.24" y1="136.19" x2="277.42" y2="162.18"/><line x1="162.96" y1="113.09" x2="164.03" y2="111.98"/><line x1="269.43" y1="302.81" x2="268.56" y2="300.23"/><line x1="319.53" y1="351.72" x2="313.40" y2="331.48"/><line x1="203.79" y1="159.10" x2="220.68" y2="195.35"/><line x1="302.23" y1="217.80" x2="273.88" y2="206.98"/><line x1="203.79" y1="159.10" x2="193.45" y2="170.44"/><line x1="351.38" y1="321.24" x2="351.53" y2="323.88"/><line x1="202.11" y1="178.76" x2="199.36" y2="176.21"/><line x1="277.14" y1="316.19" x2="275.63" y2="314.26"/><line x1="296.23" y1="226.43" x2="271.83" y2="209.72"/><line x1="280.28" y1="165.32" x2="282.49" y2="168.74"/><line x1="247.04" y1="221.40" x2="216.09" y2="170.54"/><line x1="267.29" y1="215.29" x2="277.06" y2="251.72"/><line x1="315.85" y1="178.15" x2="285.33" y2="180.63"/><line x1="256.49" y1="328.33" x2="274.22" y2="312.21"/><line x1="163.06" y1="122.88" x2="163.60" y2="124.20"/><line x1="287.06" y1="348.27" x2="293.89" y2="328.53"/><line x1="346.31" y1="305.72" x2="327.42" y2="315.75"/><line x1="188.69" y1="159.36" x2="188.90" y2="158.24"/><line x1="314.98" y1="263.01" x2="301.38" y2="278.91"/><line x1="246.16" y1="250.85" x2="271.91" y2="260.50"/><line x1="282.49" y1="168.74" x2="311.94" y2="154.64"/><line x1="266.88" y1="292.04" x2="266.64" y2="289.18"/><line x1="284.07" y1="172.42" x2="285.02" y2="176.39"/><line x1="259.74" y1="152.53" x2="270.98" y2="118.34"/><line x1="304.11" y1="331.46" x2="301.54" y2="351.72"/><line x1="296.70" y1="350.90" x2="291.86" y2="349.75"/><line x1="161.96" y1="119.66" x2="162.96" y2="113.09"/><line x1="326.84" y1="325.66" x2="345.01" y2="339.39"/><line x1="243.63" y1="194.49" x2="219.07" y2="173.15"/><line x1="191.92" y1="151.44" x2="199.42" y2="153.26"/><line x1="203.79" y1="159.10" x2="237.75" y2="211.72"/><line x1="283.78" y1="188.97" x2="310.95" y2="201.25"/><line x1="246.65" y1="314.42" x2="269.43" y2="302.81"/><line x1="203.79" y1="159.10" x2="205.26" y2="181.62"/><line x1="241.43" y1="111.20" x2="239.96" y2="148.86"/><line x1="32.16" y1="32.09" x2="32.16" y2="64.58"/><line x1="285.83" y1="324.07" x2="272.86" y2="341.86"/><line x1="247.17" y1="149.73" x2="253.76" y2="150.96"/><line x1="350.95" y1="318.45" x2="351.38" y2="321.24"/><line x1="289.50" y1="127.41" x2="293.39" y2="130.14"/><line x1="290.10" y1="265.93" x2="295.96" y2="272.58"/><line x1="328.11" y1="323.00" x2="349.18" y2="333.72"/><line x1="330.81" y1="281.96" x2="314.98" y2="296.10"/><line x1="315.69" y1="173.04" x2="315.85" y2="178.15"/><line x1="238.49" y1="275.46" x2="238.78" y2="272.64"/><line x1="296.01" y1="329.37" x2="287.06" y2="348.27"/><line x1="277.51" y1="201.59" x2="275.77" y2="204.27"/><line x1="181.94" y1="151.01" x2="182.69" y2="151.27"/><line x1="265.65" y1="116.55" x2="270.98" y2="118.34"/><line x1="295.96" y1="272.58" x2="314.98" y2="263.01"/><line x1="315.30" y1="185.62" x2="313.67" y2="193.32"/><line x1="240.45" y1="297.67" x2="266.88" y2="292.04"/><line x1="324.10" y1="309.50" x2="344.41" y2="302.14"/><line x1="282.27" y1="346.47" x2="277.51" y2="344.34"/><line x1="200.22" y1="154.96" x2="199.78" y2="154.26"/><line x1="305.85" y1="142.99" x2="308.19" y2="146.67"/><line x1="311.32" y1="352.38" x2="306.42" y2="352.21"/><line x1="267.29" y1="215.29" x2="294.85" y2="241.19"/><line x1="252.95" y1="324.05" x2="249.63" y2="319.40"/><line x1="163.06" y1="122.88" x2="171.44" y2="109.39"/><line x1="223.68" y1="148.15" x2="232.13" y2="148.33"/><line x1="177.61" y1="108.75" x2="167.35" y2="131.89"/><line x1="328.25" y1="318.07" x2="328.52" y2="319.85"/><line x1="284.07" y1="172.42" x2="315.23" y2="168.13"/><line x1="162.19" y1="114.38" x2="162.96" y2="113.09"/><line x1="296.70" y1="350.90" x2="298.09" y2="330.09"/><line x1="32.00" y1="479.98" x2="64.49" y2="479.98"/><line x1="300.28" y1="246.92" x2="305.45" y2="252.47"/><line x1="247.17" y1="149.73" x2="260.03" y2="114.93"/><line x1="296.23" y1="226.43" x2="289.15" y2="235.28"/><line x1="328.11" y1="323.00" x2="350.49" y2="330.62"/><line x1="267.83" y1="297.57" x2="267.27" y2="294.84"/><line x1="265.65" y1="116.55" x2="259.74" y2="152.53"/><line x1="278.73" y1="317.99" x2="277.14" y2="316.19"/><line x1="347.35" y1="336.65" x2="326.84" y2="325.66"/><line x1="282.27" y1="346.47" x2="287.75" y2="325.33"/><line x1="313.67" y1="193.32" x2="283.78" y2="188.97"/><line x1="265.09" y1="154.46" x2="269.83" y2="156.73"/><line x1="241.88" y1="260.72" x2="243.15" y2="257.57"/><line x1="200.22" y1="154.96" x2="190.30" y2="154.41"/><line x1="277.51" y1="344.34" x2="285.83" y2="324.07"/><line x1="274.27" y1="256.00" x2="251.81" y2="239.50"/><line x1="190.12" y1="151.57" x2="191.92" y2="151.44"/><line x1="324.74" y1="327.84" x2="321.80" y2="329.54"/><line x1="311.32" y1="352.38" x2="307.93" y2="331.72"/><line x1="199.78" y1="154.26" x2="191.04" y2="152.97"/><line x1="266.56" y1="286.24" x2="266.77" y2="280.66"/><line x1="327.26" y1="277.46" x2="330.81" y2="281.96"/><line x1="277.06" y1="251.72" x2="253.99" y2="235.38"/><line x1="238.39" y1="278.21" x2="238.49" y2="275.46"/><line x1="269.83" y1="156.73" x2="289.50" y2="127.41"/><line x1="252.95" y1="324.05" x2="271.63" y2="307.75"/><line x1="200.85" y1="155.79" x2="189.23" y2="157.05"/><line x1="321.80" y1="329.54" x2="331.28" y2="348.27"/><line x1="244.13" y1="309.14" x2="242.06" y2="303.56"/><line x1="177.61" y1="108.75" x2="166.46" y2="130.22"/><line x1="328.25" y1="318.07" x2="349.20" y2="312.39"/><line x1="220.68" y1="195.35" x2="216.79" y2="191.83"/><line x1="181.42" y1="108.54" x2="185.69" y2="108.38"/><line x1="279.11" y1="198.94" x2="277.51" y2="201.59"/><line x1="264.24" y1="335.82" x2="278.73" y2="317.99"/><line x1="195.68" y1="108.25" x2="203.88" y2="149.82"/><line x1="216.79" y1="191.83" x2="212.73" y2="188.25"/><line x1="185.69" y1="108.38" x2="190.12" y2="151.57"/><line x1="296.70" y1="350.90" x2="300.13" y2="330.68"/><line x1="339.80" y1="294.53" x2="324.10" y2="309.50"/><line x1="32.00" y1="479.98" x2="32.00" y2="447.50"/><line x1="300.28" y1="246.92" x2="290.10" y2="265.93"/><line x1="268.48" y1="270.15" x2="241.88" y2="260.72"/><line x1="303.20" y1="139.49" x2="305.85" y2="142.99"/><line x1="162.24" y1="120.61" x2="162.61" y2="121.68"/><line x1="315.46" y1="352.21" x2="311.32" y2="352.38"/><line x1="294.85" y1="241.19" x2="283.80" y2="258.97"/><line x1="285.24" y1="182.56" x2="284.94" y2="184.59"/><line x1="170.44" y1="137.21" x2="171.56" y2="138.99"/><line x1="328.11" y1="323.00" x2="351.27" y2="327.34"/><line x1="196.99" y1="173.98" x2="195.02" y2="172.05"/><line x1="291.79" y1="327.56" x2="289.74" y2="326.50"/><line x1="269.64" y1="212.49" x2="267.29" y2="215.29"/><line x1="161.59" y1="117.55" x2="161.96" y2="119.66"/><line x1="272.89" y1="310.04" x2="252.95" y2="324.05"/><line x1="319.34" y1="268.00" x2="323.44" y2="272.82"/><line x1="220.01" y1="108.99" x2="223.68" y2="148.15"/><line x1="313.35" y1="158.93" x2="314.44" y2="163.43"/><line x1="195.02" y1="172.05" x2="193.45" y2="170.44"/><line x1="347.90" y1="309.13" x2="328.25" y2="318.07"/><line x1="276.04" y1="120.33" x2="280.82" y2="122.50"/><line x1="277.06" y1="251.72" x2="283.80" y2="258.97"/><line x1="185.69" y1="108.38" x2="176.38" y2="145.80"/><line x1="247.89" y1="247.24" x2="274.27" y2="256.00"/><line x1="342.13" y1="341.95" x2="338.74" y2="344.34"/><line x1="185.69" y1="108.38" x2="183.53" y2="151.44"/><line x1="164.20" y1="125.60" x2="164.89" y2="127.08"/><line x1="283.80" y1="258.97" x2="290.10" y2="265.93"/><line x1="318.02" y1="330.75" x2="313.40" y2="331.48"/><line x1="302.14" y1="331.13" x2="296.70" y2="350.90"/><line x1="247.93" y1="112.27" x2="254.12" y2="113.51"/><line x1="274.27" y1="256.00" x2="249.78" y2="243.46"/><line x1="201.65" y1="156.76" x2="189.51" y2="164.65"/><line x1="165.40" y1="111.06" x2="167.08" y2="110.33"/><line x1="277.06" y1="251.72" x2="251.81" y2="239.50"/><line x1="334.08" y1="286.30" x2="337.08" y2="290.49"/><line x1="189.51" y1="164.65" x2="189.02" y2="163.22"/><line x1="200.85" y1="155.79" x2="188.90" y2="158.24"/><line x1="199.51" y1="153.69" x2="191.04" y2="152.97"/><line x1="244.13" y1="309.14" x2="267.83" y2="297.57"/><line x1="181.42" y1="108.54" x2="169.35" y2="135.41"/><line x1="301.38" y1="278.91" x2="306.36" y2="284.95"/><line x1="185.69" y1="108.38" x2="170.44" y2="137.21"/><line x1="213.37" y1="168.13" x2="210.92" y2="165.92"/><line x1="185.69" y1="108.38" x2="179.75" y2="149.65"/><line x1="189.23" y1="157.05" x2="189.70" y2="155.77"/><line x1="185.69" y1="108.38" x2="188.48" y2="151.65"/><line x1="204.11" y1="108.33" x2="212.23" y2="108.58"/><line x1="239.31" y1="291.48" x2="238.62" y2="285.00"/><line x1="344.41" y1="302.14" x2="346.31" y2="305.72"/><line x1="217.25" y1="148.26" x2="220.01" y2="108.99"/><line x1="310.95" y1="201.25" x2="281.82" y2="193.76"/><line x1="266.77" y1="280.66" x2="267.42" y2="275.30"/><line x1="161.75" y1="118.83" x2="161.59" y2="117.55"/><line x1="311.94" y1="154.64" x2="313.35" y2="158.93"/><line x1="232.13" y1="148.33" x2="239.96" y2="148.86"/><line x1="161.59" y1="117.55" x2="161.63" y2="118.13"/><line x1="177.66" y1="147.43" x2="178.35" y2="148.27"/><line x1="273.94" y1="159.32" x2="296.97" y2="133.07"/><line x1="313.35" y1="158.93" x2="284.07" y2="172.42"/><line x1="267.42" y1="275.30" x2="239.94" y2="266.81"/><line x1="178.35" y1="148.27" x2="179.05" y2="149.01"/><line x1="185.69" y1="108.38" x2="175.12" y2="144.14"/><line x1="239.96" y1="148.86" x2="247.93" y2="112.27"/><line x1="185.69" y1="108.38" x2="182.69" y2="151.27"/><line x1="283.80" y1="258.97" x2="300.28" y2="246.92"/><line x1="318.02" y1="330.75" x2="319.53" y2="351.72"/><line x1="164.03" y1="111.98" x2="165.40" y2="111.06"/><line x1="268.56" y1="300.23" x2="244.13" y2="309.14"/><line x1="247.93" y1="112.27" x2="247.17" y2="149.73"/><line x1="351.53" y1="323.88" x2="328.11" y2="323.00"/><line x1="260.26" y1="332.26" x2="256.49" y2="328.33"/><line x1="165.40" y1="111.06" x2="162.24" y2="120.61"/><line x1="182.69" y1="151.27" x2="183.53" y2="151.44"/><line x1="216.09" y1="170.54" x2="213.37" y2="168.13"/><line x1="285.33" y1="180.63" x2="285.24" y2="182.56"/><line x1="200.85" y1="155.79" x2="188.69" y2="159.36"/><line x1="293.89" y1="328.53" x2="291.79" y2="327.56"/><line x1="269.99" y1="265.21" x2="246.16" y2="250.85"/><line x1="183.53" y1="151.44" x2="184.52" y2="151.57"/><line x1="188.90" y1="158.24" x2="189.23" y2="157.05"/><line x1="301.38" y1="278.91" x2="319.34" y2="268.00"/><line x1="306.42" y1="352.21" x2="304.11" y2="331.46"/><line x1="171.44" y1="109.39" x2="163.60" y2="124.20"/><line x1="266.64" y1="289.18" x2="239.31" y2="291.48"/><line x1="270.98" y1="118.34" x2="276.04" y2="120.33"/><line x1="185.69" y1="108.38" x2="179.05" y2="149.01"/><line x1="189.23" y1="157.05" x2="200.22" y2="154.96"/><line x1="328.52" y1="319.85" x2="351.38" y2="321.24"/><line x1="185.69" y1="108.38" x2="187.00" y2="151.68"/><line x1="345.01" y1="339.39" x2="342.13" y2="341.95"/><line x1="163.60" y1="124.20" x2="164.20" y2="125.60"/><line x1="310.89" y1="290.68" x2="314.98" y2="296.10"/><line x1="239.31" y1="291.48" x2="266.56" y2="286.24"/><line x1="237.75" y1="211.72" x2="234.66" y2="208.60"/><line x1="247.04" y1="221.40" x2="206.82" y2="162.11"/><line x1="310.95" y1="201.25" x2="282.89" y2="191.31"/><line x1="266.77" y1="280.66" x2="238.78" y2="272.64"/><line x1="201.65" y1="156.76" x2="200.85" y2="155.79"/><line x1="219.07" y1="173.15" x2="216.09" y2="170.54"/><line x1="272.86" y1="341.86" x2="283.96" y2="322.70"/><line x1="199.92" y1="151.91" x2="199.42" y2="153.26"/><line x1="234.66" y1="208.60" x2="231.40" y2="205.40"/><line x1="314.98" y1="296.10" x2="334.08" y2="286.30"/><line x1="232.13" y1="148.33" x2="241.43" y2="111.20"/><line x1="64.64" y1="32.09" x2="32.16" y2="64.58"/><line x1="307.13" y1="209.42" x2="302.23" y2="217.80"/><line x1="167.35" y1="131.89" x2="168.31" y2="133.62"/><line x1="283.96" y1="322.70" x2="282.16" y2="321.23"/><line x1="238.78" y1="272.64" x2="267.42" y2="275.30"/><line x1="273.94" y1="159.32" x2="293.39" y2="130.14"/><line x1="327.44" y1="349.75" x2="318.02" y2="330.75"/><line x1="315.23" y1="168.13" x2="315.69" y2="173.04"/><line x1="207.34" y1="149.09" x2="211.80" y2="148.57"/><line x1="267.42" y1="275.30" x2="239.27" y2="269.76"/><line x1="212.73" y1="188.25" x2="208.80" y2="184.77"/><line x1="185.69" y1="108.38" x2="173.90" y2="142.45"/><line x1="203.79" y1="159.10" x2="224.42" y2="198.78"/><line x1="302.23" y1="217.80" x2="275.77" y2="204.27"/><line x1="203.79" y1="159.10" x2="195.02" y2="172.05"/><line x1="277.42" y1="162.18" x2="280.28" y2="165.32"/><line x1="318.02" y1="330.75" x2="323.52" y2="350.90"/><line x1="277.14" y1="316.19" x2="260.26" y2="332.26"/><line x1="243.15" y1="257.57" x2="244.58" y2="254.30"/><line x1="313.40" y1="331.48" x2="307.93" y2="331.72"/><line x1="280.28" y1="165.32" x2="310.22" y2="150.55"/><line x1="208.80" y1="184.77" x2="205.26" y2="181.62"/><line x1="260.03" y1="114.93" x2="265.65" y2="116.55"/><line x1="307.93" y1="331.72" x2="306.03" y2="331.66"/><line x1="260.26" y1="332.26" x2="275.63" y2="314.26"/><line x1="271.63" y1="307.75" x2="270.47" y2="305.33"/><line x1="227.48" y1="109.56" x2="234.62" y2="110.30"/><line x1="269.99" y1="265.21" x2="244.58" y2="254.30"/><line x1="349.20" y1="312.39" x2="350.22" y2="315.50"/><line x1="161.96" y1="119.66" x2="162.19" y2="114.38"/><line x1="306.42" y1="352.21" x2="306.03" y2="331.66"/><line x1="249.63" y1="319.40" x2="246.65" y2="314.42"/><line x1="191.92" y1="151.44" x2="199.92" y2="151.91"/><line x1="192.17" y1="168.98" x2="191.08" y2="167.53"/><line x1="203.79" y1="159.10" x2="208.80" y2="184.77"/><line x1="328.52" y1="319.85" x2="350.95" y2="318.45"/><line x1="203.79" y1="159.10" x2="202.63" y2="157.86"/><line x1="32.16" y1="32.09" x2="64.64" y2="32.09"/><line x1="289.50" y1="127.41" x2="273.94" y2="159.32"/><line x1="290.10" y1="265.93" x2="310.35" y2="257.83"/><line x1="247.04" y1="221.40" x2="208.73" y2="163.92"/><line x1="201.40" y1="150.76" x2="203.88" y2="149.82"/><line x1="298.09" y1="330.09" x2="296.01" y2="329.37"/><line x1="331.28" y1="348.27" x2="327.44" y2="349.75"/><line x1="219.07" y1="173.15" x2="247.04" y2="221.40"/><line x1="166.46" y1="130.22" x2="167.35" y2="131.89"/><line x1="188.73" y1="161.81" x2="188.62" y2="160.39"/><line x1="277.51" y1="201.59" x2="302.23" y2="217.80"/><line x1="167.08" y1="110.33" x2="169.06" y2="109.80"/><line x1="242.06" y1="303.56" x2="240.45" y2="297.67"/><line x1="167.35" y1="131.89" x2="181.42" y2="108.54"/><line x1="203.88" y1="149.82" x2="207.34" y2="149.09"/><line x1="315.30" y1="185.62" x2="284.46" y2="186.73"/><line x1="324.10" y1="309.50" x2="342.24" y2="298.41"/><line x1="32.00" y1="447.50" x2="64.49" y2="479.98"/></g></svg>