<svg xmlns="http://www.w3.org/2000/svg" width="512" height="512"><rect width="512" height="512" fill="#0a0f1a"/><text x="12" y="20" font-family="monospace" font-size="11" fill="#4a7fa5">FRONT (XZ)</text><g stroke="#00d4ff" stroke-width="0.6" opacity="0.85"><line x1="203.95" y1="102.09" x2="198.36" y2="66.05"/><line x1="225.61" y1="319.76" x2="226.30" y2="320.00"/><line x1="275.23" y1="219.09" x2="271.17" y2="217.93"/><line x1="208.22" y1="64.94" x2="208.73" y2="64.88"/><line x1="266.81" y1="216.93" x2="259.16" y2="187.17"/><line x1="253.62" y1="72.57" x2="255.43" y2="73.87"/><line x1="266.81" y1="216.93" x2="249.49" y2="183.82"/><line x1="257.76" y1="104.63" x2="248.34" y2="105.46"/><line x1="217.59" y1="182.11" x2="203.18" y2="215.70"/><line x1="257.76" y1="104.63" x2="251.17" y2="107.07"/><line x1="302.19" y1="115.43" x2="273.67" y2="128.67"/><line x1="217.59" y1="182.11" x2="196.44" y2="201.89"/><line x1="326.60" y1="230.26" x2="301.19" y2="251.02"/><line x1="182.19" y1="73.72" x2="183.14" y2="72.45"/><line x1="332.42" y1="287.12" x2="305.94" y2="289.32"/><line x1="223.90" y1="293.36" x2="215.61" y2="314.42"/><line x1="265.73" y1="332.94" x2="267.54" y2="333.56"/><line x1="244.99" y1="183.12" x2="243.03" y2="182.86"/><line x1="255.43" y1="73.87" x2="257.20" y2="75.23"/><line x1="296.27" y1="108.90" x2="296.67" y2="109.22"/><line x1="264.52" y1="110.84" x2="265.60" y2="112.36"/><line x1="305.56" y1="303.37" x2="322.60" y2="333.06"/><line x1="322.77" y1="332.43" x2="322.83" y2="331.75"/><line x1="330.21" y1="280.28" x2="330.08" y2="279.73"/><line x1="289.83" y1="196.65" x2="289.86" y2="197.14"/><line x1="303.53" y1="274.33" x2="331.10" y2="275.82"/><line x1="183.14" y1="72.45" x2="184.24" y2="71.25"/><line x1="303.53" y1="274.33" x2="303.07" y2="272.03"/><line x1="210.78" y1="64.73" x2="211.11" y2="64.74"/><line x1="305.17" y1="303.45" x2="305.36" y2="303.44"/><line x1="242.59" y1="296.12" x2="244.12" y2="296.28"/><line x1="265.60" y1="112.36" x2="266.69" y2="114.05"/><line x1="282.54" y1="302.00" x2="276.88" y2="336.34"/><line x1="305.10" y1="283.13" x2="330.00" y2="279.25"/><line x1="306.33" y1="293.17" x2="306.16" y2="291.28"/><line x1="185.02" y1="299.32" x2="185.87" y2="299.95"/><line x1="229.54" y1="320.49" x2="230.66" y2="320.70"/><line x1="211.11" y1="64.74" x2="211.45" y2="64.77"/><line x1="254.41" y1="185.40" x2="253.19" y2="184.89"/><line x1="264.69" y1="80.49" x2="257.76" y2="104.63"/><line x1="304.76" y1="303.34" x2="297.61" y2="337.59"/><line x1="305.36" y1="303.44" x2="305.56" y2="303.37"/><line x1="274.05" y1="131.14" x2="305.91" y2="121.18"/><line x1="323.59" y1="193.34" x2="288.95" y2="201.87"/><line x1="191.47" y1="280.40" x2="181.29" y2="296.35"/><line x1="266.81" y1="216.93" x2="284.78" y2="202.68"/><line x1="184.82" y1="106.33" x2="190.09" y2="108.39"/><line x1="331.23" y1="274.89" x2="331.26" y2="274.60"/><line x1="192.16" y1="66.55" x2="194.23" y2="65.86"/><line x1="185.87" y1="299.95" x2="196.01" y2="282.69"/><line x1="203.95" y1="102.09" x2="200.87" y2="65.96"/><line x1="219.68" y1="316.83" x2="220.88" y2="317.49"/><line x1="266.81" y1="216.93" x2="271.63" y2="191.66"/><line x1="266.81" y1="216.93" x2="254.41" y2="185.40"/><line x1="257.76" y1="104.63" x2="247.13" y2="104.11"/><line x1="297.61" y1="337.59" x2="304.86" y2="337.50"/><line x1="257.76" y1="104.63" x2="249.69" y2="106.35"/><line x1="306.23" y1="302.61" x2="306.35" y2="302.30"/><line x1="289.72" y1="200.00" x2="289.59" y2="200.53"/><line x1="332.42" y1="287.12" x2="306.62" y2="298.49"/><line x1="194.23" y1="65.86" x2="194.71" y2="65.92"/><line x1="282.46" y1="221.90" x2="278.99" y2="220.41"/><line x1="213.32" y1="65.11" x2="216.60" y2="65.86"/><line x1="220.88" y1="317.49" x2="230.10" y2="294.92"/><line x1="252.51" y1="298.74" x2="254.22" y2="299.47"/><line x1="270.08" y1="120.01" x2="295.19" y2="107.86"/><line x1="305.56" y1="303.37" x2="320.10" y2="335.52"/><line x1="306.35" y1="302.30" x2="306.45" y2="301.95"/><line x1="303.53" y1="274.33" x2="330.45" y2="277.83"/><line x1="305.56" y1="303.37" x2="322.83" y2="323.28"/><line x1="331.80" y1="284.72" x2="331.53" y2="283.98"/><line x1="296.91" y1="234.29" x2="295.26" y2="231.78"/><line x1="188.69" y1="301.91" x2="198.14" y2="283.60"/><line x1="303.53" y1="274.33" x2="331.26" y2="274.60"/><line x1="278.99" y1="220.41" x2="275.23" y2="219.09"/><line x1="216.60" y1="65.86" x2="216.12" y2="100.27"/><line x1="246.72" y1="183.37" x2="241.36" y2="214.58"/><line x1="254.22" y1="299.47" x2="255.75" y2="300.09"/><line x1="307.95" y1="337.36" x2="305.36" y2="303.44"/><line x1="308.49" y1="127.27" x2="274.25" y2="133.96"/><line x1="331.53" y1="283.98" x2="331.20" y2="283.17"/><line x1="195.19" y1="107.01" x2="182.10" y2="102.09"/><line x1="324.80" y1="222.25" x2="324.26" y2="219.40"/><line x1="304.39" y1="266.36" x2="301.75" y2="253.72"/><line x1="198.14" y1="283.60" x2="189.72" y2="302.59"/><line x1="224.83" y1="319.44" x2="225.61" y2="319.76"/><line x1="241.36" y1="214.58" x2="244.99" y2="183.12"/><line x1="248.67" y1="105.72" x2="249.01" y2="105.95"/><line x1="190.78" y1="303.28" x2="191.89" y2="303.98"/><line x1="322.83" y1="323.28" x2="306.07" y2="302.87"/><line x1="305.36" y1="303.44" x2="308.96" y2="337.30"/><line x1="323.59" y1="193.34" x2="289.81" y2="199.41"/><line x1="328.76" y1="322.73" x2="329.80" y2="322.41"/><line x1="309.30" y1="130.45" x2="289.88" y2="197.62"/><line x1="287.97" y1="202.75" x2="287.57" y2="202.94"/><line x1="323.59" y1="193.34" x2="287.57" y2="202.94"/><line x1="301.75" y1="253.72" x2="326.60" y2="230.26"/><line x1="203.95" y1="102.09" x2="197.80" y2="66.05"/><line x1="266.81" y1="216.93" x2="279.72" y2="198.62"/><line x1="285.55" y1="203.06" x2="284.78" y2="202.68"/><line x1="225.61" y1="319.76" x2="233.26" y2="295.48"/><line x1="266.81" y1="216.93" x2="260.31" y2="187.56"/><line x1="260.70" y1="301.81" x2="265.73" y2="332.94"/><line x1="266.81" y1="216.93" x2="250.54" y2="184.01"/><line x1="257.76" y1="104.63" x2="248.02" y2="105.17"/><line x1="295.92" y1="108.60" x2="296.27" y2="108.90"/><line x1="201.85" y1="183.23" x2="202.38" y2="182.67"/><line x1="329.80" y1="322.41" x2="330.68" y2="322.03"/><line x1="305.41" y1="285.24" x2="330.21" y2="280.28"/><line x1="180.39" y1="95.47" x2="180.03" y2="92.70"/><line x1="287.57" y1="202.94" x2="287.13" y2="203.08"/><line x1="191.89" y1="303.98" x2="193.05" y2="304.38"/><line x1="284.78" y1="202.68" x2="283.81" y2="202.04"/><line x1="265.73" y1="332.94" x2="272.56" y2="302.77"/><line x1="305.56" y1="303.37" x2="314.81" y2="336.82"/><line x1="305.56" y1="303.37" x2="322.32" y2="333.65"/><line x1="330.21" y1="280.28" x2="305.10" y2="283.13"/><line x1="300.63" y1="247.79" x2="300.51" y2="246.93"/><line x1="201.58" y1="65.92" x2="202.32" y2="65.86"/><line x1="227.87" y1="99.93" x2="255.43" y2="73.87"/><line x1="193.05" y1="304.38" x2="194.28" y2="304.83"/><line x1="305.17" y1="303.45" x2="307.95" y2="337.36"/><line x1="204.42" y1="216.05" x2="203.18" y2="215.70"/><line x1="273.13" y1="126.53" x2="273.33" y2="127.20"/><line x1="314.81" y1="336.82" x2="316.09" y2="336.65"/><line x1="333.15" y1="318.17" x2="333.37" y2="316.86"/><line x1="480.00" y1="32.02" x2="447.51" y2="32.02"/><line x1="288.57" y1="191.14" x2="288.74" y2="191.67"/><line x1="201.39" y1="307.77" x2="214.09" y2="313.48"/><line x1="300.51" y1="246.93" x2="300.44" y2="246.18"/><line x1="229.54" y1="320.49" x2="234.84" y2="295.69"/><line x1="309.30" y1="130.45" x2="286.22" y2="182.67"/><line x1="241.36" y1="214.58" x2="216.10" y2="212.03"/><line x1="300.01" y1="112.65" x2="301.12" y2="114.03"/><line x1="322.83" y1="323.28" x2="324.57" y2="323.24"/><line x1="309.30" y1="130.45" x2="289.61" y2="195.20"/><line x1="333.37" y1="316.86" x2="333.51" y2="315.36"/><line x1="323.59" y1="193.34" x2="289.20" y2="201.47"/><line x1="211.33" y1="100.71" x2="211.11" y2="64.74"/><line x1="191.47" y1="280.40" x2="180.65" y2="295.79"/><line x1="323.59" y1="193.34" x2="288.48" y2="225.34"/><line x1="219.46" y1="291.85" x2="220.92" y2="292.39"/><line x1="266.81" y1="216.93" x2="285.55" y2="203.06"/><line x1="237.99" y1="295.97" x2="239.55" y2="296.04"/><line x1="203.95" y1="102.09" x2="200.20" y2="65.99"/><line x1="274.53" y1="193.87" x2="273.02" y2="192.65"/><line x1="266.81" y1="216.93" x2="273.02" y2="192.65"/><line x1="274.97" y1="335.82" x2="276.88" y2="336.34"/><line x1="266.81" y1="216.93" x2="255.61" y2="185.87"/><line x1="305.70" y1="287.31" x2="305.41" y2="285.24"/><line x1="303.97" y1="276.58" x2="303.53" y2="274.33"/><line x1="193.85" y1="107.62" x2="195.19" y2="107.01"/><line x1="234.99" y1="321.85" x2="236.76" y2="322.40"/><line x1="290.47" y1="334.37" x2="297.61" y2="337.59"/><line x1="197.79" y1="208.56" x2="197.24" y2="206.56"/><line x1="262.43" y1="108.26" x2="263.46" y2="109.47"/><line x1="248.34" y1="105.46" x2="248.67" y2="105.72"/><line x1="303.20" y1="116.85" x2="304.15" y2="118.28"/><line x1="321.44" y1="334.67" x2="321.93" y2="334.18"/><line x1="305.56" y1="303.37" x2="319.26" y2="335.87"/><line x1="183.42" y1="298.10" x2="184.20" y2="298.71"/><line x1="288.34" y1="202.51" x2="287.97" y2="202.75"/><line x1="227.87" y1="99.93" x2="245.12" y2="68.88"/><line x1="225.43" y1="293.79" x2="226.97" y2="294.20"/><line x1="305.56" y1="303.37" x2="321.70" y2="324.60"/><line x1="197.27" y1="66.05" x2="203.95" y2="102.09"/><line x1="296.91" y1="234.29" x2="324.80" y2="222.25"/><line x1="246.85" y1="103.69" x2="260.85" y2="77.90"/><line x1="273.82" y1="129.45" x2="273.94" y2="130.27"/><line x1="272.67" y1="125.31" x2="295.92" y2="108.60"/><line x1="289.88" y1="197.62" x2="289.89" y2="198.11"/><line x1="217.04" y1="315.29" x2="218.40" y2="316.10"/><line x1="253.79" y1="328.67" x2="247.32" y2="296.94"/><line x1="221.11" y1="66.42" x2="222.13" y2="66.60"/><line x1="285.51" y1="95.62" x2="268.93" y2="117.87"/><line x1="253.79" y1="328.67" x2="260.07" y2="301.65"/><line x1="322.83" y1="323.28" x2="305.91" y2="303.08"/><line x1="309.30" y1="130.45" x2="289.03" y2="192.72"/><line x1="323.59" y1="193.34" x2="289.87" y2="198.78"/><line x1="281.06" y1="162.17" x2="286.22" y2="182.67"/><line x1="211.33" y1="100.71" x2="209.21" y2="64.82"/><line x1="309.30" y1="130.45" x2="289.86" y2="197.14"/><line x1="196.01" y1="282.69" x2="196.76" y2="283.03"/><line x1="199.49" y1="104.16" x2="180.39" y2="95.47"/><line x1="323.59" y1="193.34" x2="287.97" y2="202.75"/><line x1="211.33" y1="100.71" x2="212.54" y2="64.92"/><line x1="291.05" y1="227.31" x2="288.48" y2="225.34"/><line x1="323.59" y1="193.34" x2="275.23" y2="219.09"/><line x1="266.81" y1="216.93" x2="281.28" y2="200.02"/><line x1="222.13" y1="66.60" x2="223.18" y2="66.80"/><line x1="266.81" y1="216.93" x2="268.30" y2="190.01"/><line x1="250.61" y1="106.83" x2="250.90" y2="106.96"/><line x1="274.14" y1="132.04" x2="307.37" y2="124.18"/><line x1="286.22" y1="182.67" x2="288.57" y2="191.14"/><line x1="186.77" y1="300.60" x2="187.71" y2="301.25"/><line x1="180.39" y1="95.47" x2="201.36" y2="103.04"/><line x1="230.10" y1="294.92" x2="223.02" y2="318.61"/><line x1="200.87" y1="65.96" x2="201.58" y2="65.92"/><line x1="290.47" y1="334.37" x2="286.17" y2="301.97"/><line x1="228.60" y1="320.36" x2="229.54" y2="320.49"/><line x1="250.90" y1="106.96" x2="251.17" y2="107.07"/><line x1="298.85" y1="111.28" x2="273.13" y2="126.53"/><line x1="305.56" y1="303.37" x2="321.93" y2="334.18"/><line x1="190.44" y1="279.83" x2="191.47" y2="280.40"/><line x1="201.58" y1="65.92" x2="207.28" y2="101.31"/><line x1="227.87" y1="99.93" x2="253.62" y2="72.57"/><line x1="242.68" y1="68.33" x2="245.12" y2="68.88"/><line x1="246.85" y1="103.69" x2="247.13" y2="104.11"/><line x1="273.08" y1="335.29" x2="274.97" y2="335.82"/><line x1="273.13" y1="126.53" x2="300.01" y2="112.65"/><line x1="480.00" y1="32.02" x2="480.00" y2="64.50"/><line x1="304.38" y1="278.80" x2="303.97" y2="276.58"/><line x1="179.64" y1="81.11" x2="179.86" y2="79.50"/><line x1="201.39" y1="307.77" x2="219.46" y2="291.85"/><line x1="245.12" y1="68.88" x2="247.43" y2="69.57"/><line x1="253.79" y1="328.67" x2="254.22" y2="299.47"/><line x1="260.47" y1="106.32" x2="261.43" y2="107.21"/><line x1="309.30" y1="130.45" x2="281.06" y2="162.17"/><line x1="320.82" y1="335.12" x2="321.44" y2="334.67"/><line x1="326.14" y1="323.14" x2="327.53" y2="322.97"/><line x1="322.83" y1="323.28" x2="306.45" y2="301.95"/><line x1="330.88" y1="282.34" x2="330.60" y2="281.59"/><line x1="480.00" y1="479.91" x2="480.00" y2="447.42"/><line x1="289.41" y1="194.23" x2="289.52" y2="194.72"/><line x1="309.30" y1="130.45" x2="289.52" y2="194.72"/><line x1="323.59" y1="193.34" x2="289.41" y2="201.02"/><line x1="179.86" y1="79.50" x2="180.22" y2="77.95"/><line x1="211.33" y1="100.71" x2="210.78" y2="64.73"/><line x1="198.75" y1="283.81" x2="199.31" y2="284.00"/><line x1="208.73" y1="64.88" x2="209.21" y2="64.82"/><line x1="305.94" y1="289.32" x2="331.53" y2="283.98"/><line x1="211.33" y1="100.71" x2="216.12" y2="100.27"/><line x1="237.99" y1="295.97" x2="234.99" y2="321.85"/><line x1="325.37" y1="225.01" x2="296.91" y2="234.29"/><line x1="323.59" y1="193.34" x2="322.84" y2="210.30"/><line x1="266.81" y1="216.93" x2="286.13" y2="203.18"/><line x1="261.43" y1="107.21" x2="262.43" y2="108.26"/><line x1="273.67" y1="128.67" x2="303.20" y2="116.85"/><line x1="180.04" y1="295.24" x2="189.36" y2="279.21"/><line x1="306.63" y1="300.65" x2="306.64" y2="300.14"/><line x1="305.70" y1="287.31" x2="330.38" y2="280.90"/><line x1="182.68" y1="297.51" x2="183.42" y2="298.10"/><line x1="209.21" y1="64.82" x2="209.65" y2="64.79"/><line x1="257.20" y1="75.23" x2="246.85" y2="103.69"/><line x1="290.47" y1="334.37" x2="304.76" y2="303.34"/><line x1="285.07" y1="301.94" x2="286.17" y2="301.97"/><line x1="303.20" y1="116.85" x2="273.82" y2="129.45"/><line x1="305.56" y1="303.37" x2="318.32" y2="336.18"/><line x1="447.51" y1="479.91" x2="480.00" y2="447.42"/><line x1="306.64" y1="300.14" x2="306.62" y2="298.49"/><line x1="330.94" y1="276.53" x2="331.03" y2="276.16"/><line x1="227.87" y1="99.93" x2="242.68" y2="68.33"/><line x1="225.43" y1="293.79" x2="217.04" y2="315.29"/><line x1="259.16" y1="187.17" x2="257.98" y2="186.76"/><line x1="246.85" y1="103.69" x2="259.01" y2="76.57"/><line x1="286.17" y1="301.97" x2="287.40" y2="302.02"/><line x1="321.70" y1="324.60" x2="322.83" y2="323.28"/><line x1="289.88" y1="197.62" x2="323.59" y2="193.34"/><line x1="331.03" y1="276.16" x2="331.10" y2="275.82"/><line x1="185.50" y1="70.15" x2="186.93" y2="69.12"/><line x1="233.26" y1="295.48" x2="234.84" y2="295.69"/><line x1="269.36" y1="334.15" x2="271.22" y2="334.73"/><line x1="253.79" y1="328.67" x2="245.70" y2="296.56"/><line x1="196.38" y1="192.31" x2="196.77" y2="191.42"/><line x1="285.51" y1="95.62" x2="267.81" y2="115.88"/><line x1="253.79" y1="328.67" x2="259.25" y2="301.40"/><line x1="322.83" y1="323.28" x2="305.73" y2="303.25"/><line x1="309.30" y1="130.45" x2="288.88" y2="192.20"/><line x1="305.94" y1="289.32" x2="332.39" y2="286.81"/><line x1="191.30" y1="108.31" x2="192.55" y2="108.05"/><line x1="330.00" y1="279.25" x2="329.98" y2="278.84"/><line x1="211.33" y1="100.71" x2="208.73" y2="64.88"/><line x1="309.30" y1="130.45" x2="289.83" y2="196.65"/><line x1="196.01" y1="282.69" x2="186.77" y2="300.60"/><line x1="236.41" y1="295.85" x2="237.99" y2="295.97"/><line x1="291.05" y1="227.31" x2="322.84" y2="210.30"/><line x1="211.80" y1="64.80" x2="212.16" y2="64.86"/><line x1="211.33" y1="100.71" x2="212.16" y2="64.86"/><line x1="323.59" y1="193.34" x2="278.99" y2="220.41"/><line x1="245.70" y1="296.56" x2="247.32" y2="296.94"/><line x1="304.86" y1="337.50" x2="304.97" y2="303.43"/><line x1="274.14" y1="132.04" x2="306.68" y2="122.67"/><line x1="209.38" y1="287.93" x2="196.92" y2="305.87"/><line x1="332.39" y1="286.81" x2="332.32" y2="286.42"/><line x1="198.44" y1="210.34" x2="197.79" y2="208.56"/><line x1="201.36" y1="103.04" x2="190.26" y2="67.32"/><line x1="230.10" y1="294.92" x2="221.99" y2="318.08"/><line x1="290.47" y1="334.37" x2="285.07" y2="301.94"/><line x1="251.37" y1="184.20" x2="250.54" y2="184.01"/><line x1="201.36" y1="103.04" x2="203.95" y2="102.09"/><line x1="271.24" y1="122.30" x2="295.62" y2="108.33"/><line x1="304.97" y1="303.43" x2="305.17" y2="303.45"/><line x1="306.45" y1="301.95" x2="324.57" y2="323.24"/><line x1="182.10" y1="102.09" x2="181.43" y2="100.16"/><line x1="295.26" y1="231.78" x2="293.30" y2="229.46"/><line x1="189.72" y1="302.59" x2="190.78" y2="303.28"/><line x1="331.29" y1="274.03" x2="331.29" y2="273.76"/><line x1="236.76" y1="322.40" x2="244.12" y2="296.28"/><line x1="221.99" y1="318.08" x2="223.02" y2="318.61"/><line x1="227.87" y1="99.93" x2="251.69" y2="71.42"/><line x1="255.75" y1="300.09" x2="257.10" y2="300.62"/><line x1="199.37" y1="186.52" x2="199.84" y2="185.79"/><line x1="324.57" y1="323.24" x2="326.14" y2="323.14"/><line x1="260.31" y1="187.56" x2="259.16" y2="187.17"/><line x1="331.20" y1="283.17" x2="330.88" y2="282.34"/><line x1="196.57" y1="106.23" x2="198.01" y2="105.28"/><line x1="233.26" y1="295.48" x2="226.89" y2="320.18"/><line x1="271.17" y1="217.93" x2="266.81" y2="216.93"/><line x1="257.10" y1="300.62" x2="258.27" y2="301.06"/><line x1="253.79" y1="328.67" x2="252.51" y2="298.74"/><line x1="309.30" y1="130.45" x2="274.29" y2="136.04"/><line x1="330.88" y1="282.34" x2="305.70" y2="287.31"/><line x1="480.00" y1="479.91" x2="447.51" y2="479.91"/><line x1="305.94" y1="289.32" x2="331.80" y2="284.72"/><line x1="211.33" y1="100.71" x2="210.44" y2="64.74"/><line x1="272.56" y1="302.77" x2="269.36" y2="334.15"/><line x1="243.03" y1="182.86" x2="222.85" y2="180.60"/><line x1="272.91" y1="125.91" x2="297.13" y2="109.56"/><line x1="309.96" y1="337.22" x2="310.94" y2="337.13"/><line x1="323.28" y1="213.43" x2="291.05" y2="227.31"/><line x1="217.59" y1="182.11" x2="200.82" y2="184.44"/><line x1="180.04" y1="295.24" x2="187.08" y2="277.87"/><line x1="209.38" y1="287.93" x2="219.46" y2="291.85"/><line x1="228.53" y1="294.57" x2="230.10" y2="294.92"/><line x1="301.45" y1="252.32" x2="301.19" y2="251.02"/><line x1="201.36" y1="103.04" x2="183.14" y2="72.45"/><line x1="184.24" y1="71.25" x2="185.50" y2="70.15"/><line x1="226.30" y1="320.00" x2="226.89" y2="320.18"/><line x1="201.36" y1="103.04" x2="195.21" y2="65.96"/><line x1="216.12" y1="100.27" x2="222.13" y2="66.60"/><line x1="266.69" y1="114.05" x2="285.51" y2="95.62"/><line x1="331.39" y1="321.59" x2="331.96" y2="321.01"/><line x1="231.68" y1="295.22" x2="233.26" y2="295.48"/><line x1="234.84" y1="295.69" x2="236.41" y2="295.85"/><line x1="227.87" y1="99.93" x2="240.11" y2="67.93"/><line x1="211.45" y1="64.77" x2="211.80" y2="64.80"/><line x1="282.64" y1="201.16" x2="281.28" y2="200.02"/><line x1="268.68" y1="83.00" x2="259.53" y2="105.60"/><line x1="331.28" y1="274.31" x2="331.29" y2="274.03"/><line x1="306.53" y1="301.56" x2="333.27" y2="304.26"/><line x1="190.09" y1="108.39" x2="191.30" y2="108.31"/><line x1="202.32" y1="65.86" x2="207.68" y2="65.01"/><line x1="230.66" y1="320.70" x2="231.94" y2="321.00"/><line x1="233.26" y1="295.48" x2="229.54" y2="320.49"/><line x1="273.33" y1="127.20" x2="273.51" y2="127.91"/><line x1="181.29" y1="296.35" x2="181.96" y2="296.92"/><line x1="214.09" y1="313.48" x2="222.41" y2="292.88"/><line x1="211.33" y1="100.71" x2="208.22" y2="64.94"/><line x1="194.71" y1="65.92" x2="195.21" y2="65.96"/><line x1="305.94" y1="289.32" x2="305.70" y2="287.31"/><line x1="278.65" y1="91.47" x2="265.60" y2="112.36"/><line x1="301.12" y1="114.03" x2="302.19" y2="115.43"/><line x1="326.60" y1="230.26" x2="325.97" y2="227.68"/><line x1="217.59" y1="182.11" x2="198.45" y2="188.07"/><line x1="209.38" y1="287.93" x2="195.57" y2="305.33"/><line x1="217.59" y1="182.11" x2="207.64" y2="180.22"/><line x1="289.41" y1="201.02" x2="289.20" y2="201.47"/><line x1="201.36" y1="103.04" x2="179.86" y2="79.50"/><line x1="195.21" y1="65.96" x2="195.72" y2="65.99"/><line x1="239.55" y1="296.04" x2="241.12" y2="296.06"/><line x1="201.36" y1="103.04" x2="188.51" y2="68.18"/><line x1="216.12" y1="100.27" x2="217.43" y2="65.93"/><line x1="201.36" y1="103.04" x2="197.27" y2="66.05"/><line x1="271.24" y1="122.30" x2="295.38" y2="108.08"/><line x1="188.60" y1="108.26" x2="184.82" y2="106.33"/><line x1="194.33" y1="281.89" x2="195.19" y2="282.31"/><line x1="182.10" y1="102.09" x2="196.57" y2="106.23"/><line x1="295.26" y1="231.78" x2="323.75" y2="216.46"/><line x1="189.72" y1="302.59" x2="198.75" y2="283.81"/><line x1="236.76" y1="322.40" x2="242.59" y2="296.12"/><line x1="217.43" y1="65.93" x2="218.29" y2="66.02"/><line x1="249.01" y1="105.95" x2="249.36" y2="106.16"/><line x1="308.96" y1="337.30" x2="309.96" y2="337.22"/><line x1="306.53" y1="301.56" x2="332.85" y2="319.30"/><line x1="308.94" y1="128.85" x2="309.30" y2="130.45"/><line x1="184.20" y1="298.71" x2="185.02" y2="299.32"/><line x1="196.57" y1="106.23" x2="181.43" y2="100.16"/><line x1="197.80" y1="66.05" x2="198.36" y2="66.05"/><line x1="233.26" y1="295.48" x2="226.30" y2="320.00"/><line x1="268.93" y1="117.87" x2="270.08" y2="120.01"/><line x1="249.36" y1="106.16" x2="249.69" y2="106.35"/><line x1="273.94" y1="130.27" x2="274.05" y2="131.14"/><line x1="329.98" y1="278.84" x2="330.23" y2="278.32"/><line x1="330.68" y1="322.03" x2="331.39" y2="321.59"/><line x1="218.40" y1="316.10" x2="219.68" y2="316.83"/><line x1="287.13" y1="203.08" x2="286.65" y2="203.15"/><line x1="198.36" y1="66.05" x2="198.94" y2="66.04"/><line x1="274.33" y1="87.89" x2="278.65" y2="91.47"/><line x1="305.91" y1="121.18" x2="274.14" y2="132.04"/><line x1="223.18" y1="66.80" x2="221.63" y2="100.02"/><line x1="217.59" y1="182.11" x2="199.18" y2="211.89"/><line x1="292.75" y1="103.62" x2="295.19" y2="107.86"/><line x1="272.56" y1="302.77" x2="267.54" y2="333.56"/><line x1="217.59" y1="182.11" x2="196.38" y2="192.31"/><line x1="326.60" y1="230.26" x2="300.51" y2="246.93"/><line x1="272.91" y1="125.91" x2="296.67" y2="109.22"/><line x1="217.59" y1="182.11" x2="200.33" y2="185.09"/><line x1="201.36" y1="103.04" x2="180.03" y2="92.70"/><line x1="209.38" y1="287.93" x2="201.39" y2="307.77"/><line x1="207.28" y1="101.31" x2="211.33" y2="100.71"/><line x1="194.28" y1="304.83" x2="195.57" y2="305.33"/><line x1="201.36" y1="103.04" x2="182.19" y2="73.72"/><line x1="221.63" y1="100.02" x2="227.87" y2="99.93"/><line x1="289.59" y1="200.53" x2="289.41" y2="201.02"/><line x1="201.36" y1="103.04" x2="194.71" y2="65.92"/><line x1="216.12" y1="100.27" x2="221.11" y2="66.42"/><line x1="274.20" y1="132.98" x2="274.25" y2="133.96"/><line x1="316.09" y1="336.65" x2="317.26" y2="336.44"/><line x1="182.89" y1="103.76" x2="182.10" y2="102.09"/><line x1="288.74" y1="191.67" x2="288.88" y2="192.20"/><line x1="329.69" y1="255.68" x2="301.75" y2="253.72"/><line x1="180.03" y1="92.70" x2="179.77" y2="89.68"/><line x1="295.19" y1="107.86" x2="271.24" y2="122.30"/><line x1="231.68" y1="295.22" x2="225.61" y2="319.76"/><line x1="234.84" y1="295.69" x2="230.66" y2="320.70"/><line x1="295.62" y1="108.33" x2="295.92" y2="108.60"/><line x1="202.03" y1="215.10" x2="200.98" y2="214.27"/><line x1="268.68" y1="83.00" x2="258.63" y2="105.04"/><line x1="306.53" y1="301.56" x2="329.80" y2="322.41"/><line x1="306.53" y1="301.56" x2="333.55" y2="313.68"/><line x1="180.65" y1="295.79" x2="181.29" y2="296.35"/><line x1="300.02" y1="242.93" x2="299.29" y2="239.86"/><line x1="202.32" y1="65.86" x2="211.33" y2="100.71"/><line x1="274.25" y1="133.96" x2="308.94" y2="128.85"/><line x1="233.26" y1="295.48" x2="228.60" y2="320.36"/><line x1="276.88" y1="336.34" x2="278.81" y2="336.84"/><line x1="273.33" y1="127.20" x2="301.12" y2="114.03"/><line x1="214.09" y1="313.48" x2="220.92" y2="292.39"/><line x1="217.59" y1="182.11" x2="204.42" y2="216.05"/><line x1="257.76" y1="104.63" x2="250.90" y2="106.96"/><line x1="271.63" y1="191.66" x2="270.39" y2="190.88"/><line x1="249.62" y1="70.42" x2="251.69" y2="71.42"/><line x1="217.59" y1="182.11" x2="196.79" y2="204.34"/><line x1="278.65" y1="91.47" x2="264.52" y2="110.84"/><line x1="326.60" y1="230.26" x2="301.45" y2="252.32"/><line x1="321.93" y1="334.18" x2="322.32" y2="333.65"/><line x1="332.42" y1="287.12" x2="306.16" y2="291.28"/><line x1="326.60" y1="230.26" x2="298.25" y2="236.98"/><line x1="217.59" y1="182.11" x2="198.02" y2="188.87"/><line x1="289.61" y1="195.20" x2="289.70" y2="195.68"/><line x1="209.38" y1="287.93" x2="194.28" y2="304.83"/><line x1="330.23" y1="278.32" x2="330.45" y2="277.83"/><line x1="296.27" y1="108.90" x2="272.91" y2="125.91"/><line x1="217.59" y1="182.11" x2="202.38" y2="182.67"/><line x1="202.38" y1="182.67" x2="207.64" y2="180.22"/><line x1="201.36" y1="103.04" x2="179.64" y2="81.11"/><line x1="239.55" y1="296.04" x2="236.76" y2="322.40"/><line x1="201.36" y1="103.04" x2="186.93" y2="69.12"/><line x1="303.53" y1="274.33" x2="331.03" y2="276.16"/><line x1="196.79" y1="204.34" x2="196.44" y2="201.89"/><line x1="304.15" y1="118.28" x2="305.07" y2="119.72"/><line x1="303.53" y1="274.33" x2="329.69" y2="255.68"/><line x1="283.81" y1="202.04" x2="282.64" y2="201.16"/><line x1="188.60" y1="108.26" x2="187.21" y2="107.88"/><line x1="194.33" y1="281.89" x2="184.20" y2="298.71"/><line x1="226.97" y1="294.20" x2="228.53" y2="294.57"/><line x1="295.26" y1="231.78" x2="324.26" y2="219.40"/><line x1="282.54" y1="302.00" x2="274.97" y2="335.82"/><line x1="305.10" y1="283.13" x2="330.08" y2="279.73"/><line x1="287.40" y1="302.02" x2="288.77" y2="302.09"/><line x1="306.53" y1="301.56" x2="332.45" y2="320.25"/><line x1="306.56" y1="296.77" x2="306.46" y2="295.00"/><line x1="203.18" y1="215.70" x2="202.03" y2="215.10"/><line x1="305.36" y1="303.44" x2="313.42" y2="336.95"/><line x1="256.80" y1="186.33" x2="255.61" y2="185.87"/><line x1="300.44" y1="246.18" x2="300.02" y2="242.93"/><line x1="329.98" y1="278.84" x2="303.53" y2="274.33"/><line x1="183.79" y1="105.18" x2="182.89" y2="103.76"/><line x1="298.25" y1="236.98" x2="296.91" y2="234.29"/><line x1="196.76" y1="283.03" x2="197.48" y2="283.33"/><line x1="331.16" y1="275.51" x2="331.20" y2="275.19"/><line x1="266.81" y1="216.93" x2="241.36" y2="214.58"/><line x1="257.76" y1="104.63" x2="249.36" y2="106.16"/><line x1="333.51" y1="315.36" x2="333.55" y2="313.68"/><line x1="274.33" y1="87.89" x2="262.43" y2="108.26"/><line x1="287.13" y1="203.08" x2="266.81" y2="216.93"/><line x1="217.59" y1="182.11" x2="200.03" y2="213.20"/><line x1="197.17" y1="190.55" x2="197.59" y2="189.70"/><line x1="332.42" y1="287.12" x2="306.64" y2="300.14"/><line x1="217.59" y1="182.11" x2="196.00" y2="193.21"/><line x1="307.37" y1="124.18" x2="307.97" y2="125.71"/><line x1="305.91" y1="303.08" x2="306.07" y2="302.87"/><line x1="326.60" y1="230.26" x2="300.63" y2="247.79"/><line x1="273.02" y1="192.65" x2="271.63" y2="191.66"/><line x1="192.55" y1="108.05" x2="193.85" y2="107.62"/><line x1="217.59" y1="182.11" x2="199.84" y2="185.79"/><line x1="187.71" y1="301.25" x2="188.69" y2="301.91"/><line x1="223.02" y1="318.61" x2="223.97" y2="319.06"/><line x1="288.48" y1="225.34" x2="285.61" y2="223.54"/><line x1="207.28" y1="101.31" x2="202.32" y2="65.86"/><line x1="303.53" y1="274.33" x2="330.23" y2="278.32"/><line x1="303.53" y1="274.33" x2="331.23" y2="274.89"/><line x1="274.20" y1="132.98" x2="308.49" y2="127.27"/><line x1="193.42" y1="281.44" x2="194.33" y2="281.89"/><line x1="332.20" y1="285.94" x2="332.02" y2="285.37"/><line x1="197.24" y1="206.56" x2="196.79" y2="204.34"/><line x1="480.00" y1="64.50" x2="447.51" y2="32.02"/><line x1="329.69" y1="255.68" x2="304.39" y2="266.36"/><line x1="231.68" y1="295.22" x2="224.83" y2="319.44"/><line x1="249.49" y1="183.82" x2="248.21" y2="183.60"/><line x1="282.54" y1="302.00" x2="283.25" y2="301.96"/><line x1="295.62" y1="108.33" x2="272.67" y2="125.31"/><line x1="324.80" y1="222.25" x2="295.26" y2="231.78"/><line x1="306.53" y1="301.56" x2="328.76" y2="322.73"/><line x1="306.53" y1="301.56" x2="333.51" y2="315.36"/><line x1="190.78" y1="303.28" x2="209.38" y2="287.93"/><line x1="180.22" y1="77.95" x2="180.73" y2="76.47"/><line x1="306.62" y1="298.49" x2="306.56" y2="296.77"/><line x1="200.33" y1="185.09" x2="200.82" y2="184.44"/><line x1="257.98" y1="186.76" x2="256.80" y2="186.33"/><line x1="198.01" y1="105.28" x2="199.49" y2="104.16"/><line x1="266.81" y1="216.93" x2="251.37" y2="184.20"/><line x1="257.76" y1="104.63" x2="247.71" y2="104.84"/><line x1="209.65" y1="64.79" x2="210.06" y2="64.75"/><line x1="217.59" y1="182.11" x2="205.77" y2="216.18"/><line x1="257.76" y1="104.63" x2="250.61" y2="106.83"/><line x1="331.10" y1="275.82" x2="331.16" y2="275.51"/><line x1="217.59" y1="182.11" x2="197.24" y2="206.56"/><line x1="278.65" y1="91.47" x2="263.46" y2="109.47"/><line x1="332.42" y1="287.12" x2="306.33" y2="293.17"/><line x1="217.59" y1="182.11" x2="197.59" y2="189.70"/><line x1="188.24" y1="278.56" x2="189.36" y2="279.21"/><line x1="326.60" y1="230.26" x2="299.29" y2="239.86"/><line x1="196.77" y1="191.42" x2="197.17" y2="190.55"/><line x1="303.53" y1="274.33" x2="330.94" y2="276.53"/><line x1="304.15" y1="118.28" x2="273.94" y2="130.27"/><line x1="303.53" y1="274.33" x2="331.29" y2="273.76"/><line x1="305.17" y1="303.45" x2="306.94" y2="337.43"/><line x1="186.93" y1="69.12" x2="188.51" y2="68.18"/><line x1="226.97" y1="294.20" x2="218.40" y2="316.10"/><line x1="282.54" y1="302.00" x2="273.08" y2="335.29"/><line x1="304.76" y1="280.99" x2="304.38" y2="278.80"/><line x1="289.89" y1="198.11" x2="289.87" y2="198.78"/><line x1="241.36" y1="214.58" x2="217.59" y2="182.11"/><line x1="300.01" y1="112.65" x2="273.33" y2="127.20"/><line x1="305.36" y1="303.44" x2="311.92" y2="337.03"/><line x1="247.32" y1="296.94" x2="249.00" y2="297.43"/><line x1="268.93" y1="117.87" x2="292.75" y2="103.62"/><line x1="219.46" y1="291.85" x2="214.09" y2="313.48"/><line x1="266.81" y1="216.93" x2="274.53" y2="193.87"/><line x1="203.95" y1="102.09" x2="199.55" y2="66.02"/><line x1="247.43" y1="69.57" x2="249.62" y2="70.42"/><line x1="183.79" y1="105.18" x2="192.55" y2="108.05"/><line x1="298.25" y1="236.98" x2="325.37" y2="225.01"/><line x1="266.81" y1="216.93" x2="256.80" y2="186.33"/><line x1="196.76" y1="283.03" x2="187.71" y2="301.25"/><line x1="266.81" y1="216.93" x2="246.72" y2="183.37"/><line x1="257.76" y1="104.63" x2="249.01" y2="105.95"/><line x1="289.52" y1="194.72" x2="289.61" y2="195.20"/><line x1="274.33" y1="87.89" x2="261.43" y2="107.21"/><line x1="217.59" y1="182.11" x2="200.98" y2="214.27"/><line x1="257.76" y1="104.63" x2="258.63" y2="105.04"/><line x1="332.42" y1="287.12" x2="306.63" y2="300.65"/><line x1="307.37" y1="124.18" x2="274.20" y2="132.98"/><line x1="234.99" y1="321.85" x2="239.55" y2="296.04"/><line x1="181.96" y1="296.92" x2="182.68" y2="297.51"/><line x1="326.60" y1="230.26" x2="300.78" y2="248.76"/><line x1="262.43" y1="108.26" x2="278.65" y2="91.47"/><line x1="223.02" y1="318.61" x2="231.68" y2="295.22"/><line x1="247.71" y1="104.84" x2="248.02" y2="105.17"/><line x1="183.42" y1="298.10" x2="194.33" y2="281.89"/><line x1="305.56" y1="303.37" x2="322.83" y2="331.75"/><line x1="303.53" y1="274.33" x2="331.20" y2="275.19"/><line x1="195.19" y1="282.31" x2="196.01" y2="282.69"/><line x1="181.43" y1="100.16" x2="180.86" y2="97.95"/><line x1="288.95" y1="201.87" x2="288.66" y2="202.22"/><line x1="273.82" y1="129.45" x2="304.15" y2="118.28"/><line x1="258.27" y1="301.06" x2="259.25" y2="301.40"/><line x1="295.62" y1="108.33" x2="272.41" y2="124.75"/><line x1="217.04" y1="315.29" x2="226.97" y2="294.20"/><line x1="259.01" y1="76.57" x2="260.85" y2="77.90"/><line x1="323.75" y1="216.46" x2="323.28" y2="213.43"/><line x1="190.78" y1="303.28" x2="199.31" y2="284.00"/><line x1="264.69" y1="80.49" x2="266.66" y2="81.75"/><line x1="219.19" y1="66.13" x2="220.13" y2="66.26"/><line x1="323.59" y1="193.34" x2="289.89" y2="198.11"/><line x1="304.76" y1="303.34" x2="304.97" y2="303.43"/><line x1="323.59" y1="193.34" x2="288.34" y2="202.51"/><line x1="266.81" y1="216.93" x2="282.64" y2="201.16"/><line x1="184.82" y1="106.33" x2="183.79" y2="105.18"/><line x1="274.28" y1="134.98" x2="274.29" y2="136.04"/><line x1="266.81" y1="216.93" x2="269.28" y2="190.34"/><line x1="203.95" y1="102.09" x2="207.28" y2="101.31"/><line x1="267.81" y1="115.88" x2="268.93" y2="117.87"/><line x1="305.73" y1="303.25" x2="305.91" y2="303.08"/><line x1="266.81" y1="216.93" x2="251.96" y2="184.37"/><line x1="257.76" y1="104.63" x2="247.41" y2="104.49"/><line x1="226.89" y1="320.18" x2="227.40" y2="320.28"/><line x1="257.76" y1="104.63" x2="250.32" y2="106.68"/><line x1="250.01" y1="106.53" x2="250.32" y2="106.68"/><line x1="186.77" y1="300.60" x2="196.76" y2="283.03"/><line x1="322.84" y1="210.30" x2="288.48" y2="225.34"/><line x1="212.16" y1="64.86" x2="212.54" y2="64.92"/><line x1="32.16" y1="32.09" x2="32.16" y2="64.58"/><line x1="332.42" y1="287.12" x2="306.46" y2="295.00"/><line x1="188.24" y1="278.56" x2="187.08" y2="277.87"/><line x1="306.68" y1="122.67" x2="307.37" y2="124.18"/><line x1="332.32" y1="286.42" x2="332.20" y2="285.94"/><line x1="305.56" y1="303.37" x2="321.44" y2="334.67"/><line x1="297.13" y1="109.56" x2="297.64" y2="109.93"/><line x1="303.53" y1="274.33" x2="330.81" y2="276.93"/><line x1="250.54" y1="184.01" x2="249.49" y2="183.82"/><line x1="247.41" y1="104.49" x2="247.71" y2="104.84"/><line x1="246.85" y1="103.69" x2="257.76" y2="104.63"/><line x1="305.17" y1="303.45" x2="305.90" y2="337.47"/><line x1="196.92" y1="305.87" x2="198.34" y2="306.46"/><line x1="289.20" y1="201.47" x2="288.95" y2="201.87"/><line x1="259.53" y1="105.60" x2="260.47" y2="106.32"/><line x1="195.72" y1="65.99" x2="196.22" y2="66.02"/><line x1="331.29" y1="273.76" x2="329.69" y2="255.68"/><line x1="192.46" y1="280.94" x2="193.42" y2="281.44"/><line x1="295.38" y1="108.08" x2="295.62" y2="108.33"/><line x1="199.84" y1="185.79" x2="200.33" y2="185.09"/><line x1="326.14" y1="323.14" x2="306.53" y2="301.56"/><line x1="241.36" y1="214.58" x2="222.85" y2="180.60"/><line x1="322.83" y1="323.28" x2="306.35" y2="302.30"/><line x1="309.30" y1="130.45" x2="289.41" y2="194.23"/><line x1="305.36" y1="303.44" x2="310.94" y2="337.13"/><line x1="323.59" y1="193.34" x2="289.59" y2="200.53"/><line x1="198.75" y1="283.81" x2="190.78" y2="303.28"/><line x1="200.03" y1="213.20" x2="199.18" y2="211.89"/><line x1="273.51" y1="127.91" x2="273.67" y2="128.67"/><line x1="266.81" y1="216.93" x2="286.65" y2="203.15"/><line x1="211.33" y1="100.71" x2="216.60" y2="65.86"/><line x1="266.81" y1="216.93" x2="276.18" y2="195.31"/><line x1="203.95" y1="102.09" x2="198.94" y2="66.04"/><line x1="266.81" y1="216.93" x2="257.98" y2="186.76"/><line x1="305.70" y1="287.31" x2="330.60" y2="281.59"/><line x1="266.81" y1="216.93" x2="248.21" y2="183.60"/><line x1="222.85" y1="180.60" x2="217.59" y2="182.11"/><line x1="290.47" y1="334.37" x2="290.26" y2="302.19"/><line x1="310.94" y1="337.13" x2="311.92" y2="337.03"/><line x1="269.28" y1="190.34" x2="268.30" y2="190.01"/><line x1="305.56" y1="303.37" x2="317.26" y2="336.44"/><line x1="301.19" y1="251.02" x2="300.96" y2="249.84"/><line x1="305.56" y1="303.37" x2="322.77" y2="332.43"/><line x1="227.87" y1="99.93" x2="246.85" y2="103.69"/><line x1="195.19" y1="282.31" x2="185.87" y2="299.95"/><line x1="181.43" y1="100.16" x2="198.01" y2="105.28"/><line x1="331.96" y1="321.01" x2="332.45" y2="320.25"/><line x1="196.20" y1="199.22" x2="196.05" y2="196.33"/><line x1="305.07" y1="119.72" x2="305.91" y2="121.18"/><line x1="281.28" y1="200.02" x2="279.72" y2="198.62"/><line x1="269.36" y1="334.15" x2="282.54" y2="302.00"/><line x1="253.79" y1="328.67" x2="258.27" y2="301.06"/><line x1="323.75" y1="216.46" x2="293.30" y2="229.46"/><line x1="309.30" y1="130.45" x2="288.74" y2="191.67"/><line x1="330.00" y1="279.25" x2="304.76" y2="280.99"/><line x1="191.30" y1="108.31" x2="183.79" y2="105.18"/><line x1="304.76" y1="303.34" x2="304.86" y2="337.50"/><line x1="309.30" y1="130.45" x2="289.77" y2="196.17"/><line x1="323.59" y1="193.34" x2="288.66" y2="202.22"/><line x1="236.41" y1="295.85" x2="233.38" y2="321.38"/><line x1="211.33" y1="100.71" x2="211.80" y2="64.80"/><line x1="323.59" y1="193.34" x2="282.46" y2="221.90"/><line x1="266.81" y1="216.93" x2="283.81" y2="202.04"/><line x1="200.98" y1="214.27" x2="200.03" y2="213.20"/><line x1="318.32" y1="336.18" x2="319.26" y2="335.87"/><line x1="266.81" y1="216.93" x2="270.39" y2="190.88"/><line x1="32.00" y1="479.98" x2="64.49" y2="479.98"/><line x1="180.04" y1="295.24" x2="180.65" y2="295.79"/><line x1="299.29" y1="239.86" x2="298.25" y2="236.98"/><line x1="290.47" y1="334.37" x2="284.09" y2="301.94"/><line x1="305.56" y1="303.37" x2="320.82" y2="335.12"/><line x1="305.56" y1="303.37" x2="305.73" y2="303.25"/><line x1="227.87" y1="99.93" x2="249.62" y2="70.42"/><line x1="188.69" y1="301.91" x2="189.72" y2="302.59"/><line x1="246.85" y1="103.69" x2="264.69" y2="80.49"/><line x1="246.72" y1="183.37" x2="244.99" y2="183.12"/><line x1="272.67" y1="125.31" x2="272.91" y2="125.91"/><line x1="307.95" y1="337.36" x2="308.96" y2="337.30"/><line x1="218.29" y1="66.02" x2="219.19" y2="66.13"/><line x1="192.46" y1="280.94" x2="181.96" y2="296.92"/><line x1="253.79" y1="328.67" x2="250.73" y2="298.03"/><line x1="285.51" y1="95.62" x2="289.18" y2="97.87"/><line x1="309.30" y1="130.45" x2="274.28" y2="134.98"/><line x1="253.79" y1="328.67" x2="265.73" y2="332.94"/><line x1="322.83" y1="323.28" x2="306.23" y2="302.61"/><line x1="309.30" y1="130.45" x2="289.29" y2="193.73"/><line x1="305.94" y1="289.32" x2="332.02" y2="285.37"/><line x1="323.59" y1="193.34" x2="289.72" y2="200.00"/><line x1="211.33" y1="100.71" x2="210.06" y2="64.75"/><line x1="309.30" y1="130.45" x2="323.59" y2="193.34"/><line x1="211.33" y1="100.71" x2="213.32" y2="65.11"/><line x1="249.69" y1="106.35" x2="250.01" y2="106.53"/><line x1="323.59" y1="193.34" x2="266.81" y2="216.93"/><line x1="266.81" y1="216.93" x2="277.96" y2="196.97"/><line x1="222.41" y1="292.88" x2="223.90" y2="293.36"/><line x1="266.66" y1="81.75" x2="268.68" y2="83.00"/><line x1="260.70" y1="301.81" x2="272.56" y2="302.77"/><line x1="180.04" y1="295.24" x2="188.24" y2="278.56"/><line x1="228.53" y1="294.57" x2="220.88" y2="317.49"/><line x1="198.94" y1="66.04" x2="199.55" y2="66.02"/><line x1="305.41" y1="285.24" x2="305.10" y2="283.13"/><line x1="289.77" y1="196.17" x2="289.83" y2="196.65"/><line x1="267.54" y1="333.56" x2="269.36" y2="334.15"/><line x1="290.47" y1="334.37" x2="288.77" y2="302.09"/><line x1="296.67" y1="109.22" x2="297.13" y2="109.56"/><line x1="330.08" y1="279.73" x2="330.00" y2="279.25"/><line x1="305.56" y1="303.37" x2="316.09" y2="336.65"/><line x1="195.57" y1="305.33" x2="196.92" y2="305.87"/><line x1="227.87" y1="99.93" x2="231.46" y2="67.47"/><line x1="227.87" y1="99.93" x2="257.20" y2="75.23"/><line x1="195.19" y1="282.31" x2="185.02" y2="299.32"/><line x1="317.26" y1="336.44" x2="318.32" y2="336.18"/><line x1="288.88" y1="192.20" x2="289.03" y2="192.72"/><line x1="197.48" y1="283.33" x2="198.14" y2="283.60"/><line x1="179.77" y1="89.68" x2="179.62" y2="86.37"/><line x1="305.07" y1="119.72" x2="274.05" y2="131.14"/><line x1="230.66" y1="320.70" x2="236.41" y2="295.85"/><line x1="258.63" y1="105.04" x2="259.53" y2="105.60"/><line x1="253.79" y1="328.67" x2="257.10" y2="300.62"/><line x1="333.55" y1="313.68" x2="333.27" y2="304.26"/><line x1="309.30" y1="130.45" x2="288.57" y2="191.14"/><line x1="181.29" y1="296.35" x2="192.46" y2="280.94"/><line x1="211.33" y1="100.71" x2="207.68" y2="65.01"/><line x1="309.30" y1="130.45" x2="289.70" y2="195.68"/><line x1="305.94" y1="289.32" x2="330.88" y2="282.34"/><line x1="236.41" y1="295.85" x2="231.94" y2="321.00"/><line x1="211.33" y1="100.71" x2="211.45" y2="64.77"/><line x1="289.81" y1="199.41" x2="289.72" y2="200.00"/><line x1="278.81" y1="336.84" x2="290.47" y2="334.37"/><line x1="323.59" y1="193.34" x2="285.61" y2="223.54"/><line x1="301.12" y1="114.03" x2="273.51" y2="127.91"/><line x1="272.91" y1="125.91" x2="273.13" y2="126.53"/><line x1="32.00" y1="479.98" x2="32.00" y2="447.50"/><line x1="333.27" y1="304.26" x2="332.42" y2="287.12"/><line x1="180.04" y1="295.24" x2="191.47" y2="280.40"/><line x1="220.92" y1="292.39" x2="222.41" y2="292.88"/><line x1="270.39" y1="190.88" x2="269.28" y2="190.34"/><line x1="251.69" y1="71.42" x2="253.62" y2="72.57"/><line x1="290.47" y1="334.37" x2="283.25" y2="301.96"/><line x1="201.36" y1="103.04" x2="196.74" y2="66.04"/><line x1="322.32" y1="333.65" x2="322.60" y2="333.06"/><line x1="289.70" y1="195.68" x2="289.77" y2="196.17"/><line x1="330.45" y1="277.83" x2="330.64" y2="277.36"/><line x1="181.39" y1="75.06" x2="182.19" y2="73.72"/><line x1="307.97" y1="125.71" x2="308.49" y2="127.27"/><line x1="236.76" y1="322.40" x2="241.12" y2="296.06"/><line x1="196.44" y1="201.89" x2="196.20" y2="199.22"/><line x1="227.87" y1="99.93" x2="247.43" y2="69.57"/><line x1="263.46" y1="109.47" x2="264.52" y2="110.84"/><line x1="197.27" y1="66.05" x2="197.80" y2="66.05"/><line x1="322.60" y1="333.06" x2="322.77" y2="332.43"/><line x1="246.85" y1="103.69" x2="262.75" y2="79.20"/><line x1="185.96" y1="107.24" x2="184.82" y2="106.33"/><line x1="184.20" y1="298.71" x2="195.19" y2="282.31"/><line x1="272.67" y1="125.31" x2="296.27" y2="108.90"/><line x1="210.44" y1="64.74" x2="210.78" y2="64.73"/><line x1="324.26" y1="219.40" x2="323.75" y2="216.46"/><line x1="241.12" y1="296.06" x2="242.59" y2="296.12"/><line x1="288.77" y1="302.09" x2="290.26" y2="302.19"/><line x1="273.94" y1="130.27" x2="305.07" y2="119.72"/><line x1="253.79" y1="328.67" x2="249.00" y2="297.43"/><line x1="306.46" y1="295.00" x2="306.33" y2="293.17"/><line x1="285.51" y1="95.62" x2="292.75" y2="103.62"/><line x1="253.79" y1="328.67" x2="260.70" y2="301.81"/><line x1="309.30" y1="130.45" x2="289.16" y2="193.23"/><line x1="218.40" y1="316.10" x2="228.53" y2="294.57"/><line x1="305.94" y1="289.32" x2="332.20" y2="285.94"/><line x1="255.61" y1="185.87" x2="254.41" y2="185.40"/><line x1="211.33" y1="100.71" x2="209.65" y2="64.79"/><line x1="199.49" y1="104.16" x2="201.36" y2="103.04"/><line x1="292.75" y1="103.62" x2="270.08" y2="120.01"/><line x1="211.33" y1="100.71" x2="212.92" y2="65.01"/><line x1="290.26" y1="302.19" x2="304.76" y2="303.34"/><line x1="323.59" y1="193.34" x2="271.17" y2="217.93"/><line x1="289.87" y1="198.78" x2="289.81" y2="199.41"/><line x1="304.86" y1="337.50" x2="305.90" y2="337.47"/><line x1="331.20" y1="275.19" x2="331.23" y2="274.89"/><line x1="274.14" y1="132.04" x2="274.20" y2="132.98"/><line x1="209.38" y1="287.93" x2="199.83" y2="307.10"/><line x1="228.53" y1="294.57" x2="219.68" y2="316.83"/><line x1="201.36" y1="103.04" x2="181.39" y2="75.06"/><line x1="249.00" y1="297.43" x2="250.73" y2="298.03"/><line x1="197.59" y1="189.70" x2="198.02" y2="188.87"/><line x1="201.36" y1="103.04" x2="194.23" y2="65.86"/><line x1="216.12" y1="100.27" x2="220.13" y2="66.26"/><line x1="230.10" y1="294.92" x2="231.68" y2="295.22"/><line x1="290.47" y1="334.37" x2="287.40" y2="302.02"/><line x1="306.07" y1="302.87" x2="306.23" y2="302.61"/><line x1="182.89" y1="103.76" x2="195.19" y2="107.01"/><line x1="306.45" y1="301.95" x2="306.53" y2="301.56"/><line x1="298.85" y1="111.28" x2="300.01" y2="112.65"/><line x1="285.61" y1="223.54" x2="282.46" y2="221.90"/><line x1="250.73" y1="298.03" x2="252.51" y2="298.74"/><line x1="198.02" y1="188.87" x2="198.45" y2="188.07"/><line x1="332.02" y1="285.37" x2="331.80" y2="284.72"/><line x1="197.48" y1="283.33" x2="188.69" y2="301.91"/><line x1="248.21" y1="183.60" x2="246.72" y2="183.37"/><line x1="306.94" y1="337.43" x2="307.95" y2="337.36"/><line x1="233.26" y1="295.48" x2="227.81" y2="320.32"/><line x1="253.79" y1="328.67" x2="255.75" y2="300.09"/><line x1="303.07" y1="272.03" x2="304.39" y2="266.36"/><line x1="180.73" y1="76.47" x2="181.39" y2="75.06"/><line x1="223.97" y1="319.06" x2="224.83" y2="319.44"/><line x1="305.94" y1="289.32" x2="331.20" y2="283.17"/><line x1="200.82" y1="184.44" x2="201.33" y2="183.82"/><line x1="325.37" y1="225.01" x2="324.80" y2="222.25"/><line x1="327.53" y1="322.97" x2="328.76" y2="322.73"/><line x1="330.38" y1="280.90" x2="330.21" y2="280.28"/><line x1="180.86" y1="97.95" x2="180.39" y2="95.47"/><line x1="272.91" y1="125.91" x2="298.85" y2="111.28"/><line x1="209.38" y1="287.93" x2="193.05" y2="304.38"/><line x1="217.59" y1="182.11" x2="201.85" y2="183.23"/><line x1="273.67" y1="128.67" x2="273.82" y2="129.45"/><line x1="286.13" y1="203.18" x2="285.55" y2="203.06"/><line x1="201.36" y1="103.04" x2="179.57" y2="82.80"/><line x1="210.06" y1="64.75" x2="210.44" y2="64.74"/><line x1="180.04" y1="295.24" x2="190.44" y2="279.83"/><line x1="201.36" y1="103.04" x2="185.50" y2="70.15"/><line x1="313.42" y1="336.95" x2="314.81" y2="336.82"/><line x1="201.33" y1="183.82" x2="201.85" y2="183.23"/><line x1="201.36" y1="103.04" x2="196.22" y2="66.02"/><line x1="216.12" y1="100.27" x2="221.63" y2="100.02"/><line x1="257.20" y1="75.23" x2="259.01" y2="76.57"/><line x1="188.60" y1="108.26" x2="185.96" y2="107.24"/><line x1="216.10" y1="212.03" x2="205.77" y2="216.18"/><line x1="260.85" y1="77.90" x2="262.75" y2="79.20"/><line x1="306.53" y1="301.56" x2="331.96" y2="321.01"/><line x1="185.96" y1="107.24" x2="187.21" y2="107.88"/><line x1="306.53" y1="301.56" x2="306.59" y2="301.13"/><line x1="188.51" y1="68.18" x2="190.26" y2="67.32"/><line x1="205.77" y1="216.18" x2="204.42" y2="216.05"/><line x1="262.75" y1="79.20" x2="264.69" y2="80.49"/><line x1="329.98" y1="278.84" x2="303.97" y2="276.58"/><line x1="190.26" y1="67.32" x2="192.16" y2="66.55"/><line x1="212.54" y1="64.92" x2="212.92" y2="65.01"/><line x1="305.94" y1="289.32" x2="332.32" y2="286.42"/><line x1="214.09" y1="313.48" x2="215.61" y2="314.42"/><line x1="292.75" y1="103.62" x2="289.18" y2="97.87"/><line x1="217.59" y1="182.11" x2="196.05" y2="196.33"/><line x1="278.65" y1="91.47" x2="285.51" y2="95.62"/><line x1="192.55" y1="108.05" x2="182.89" y2="103.76"/><line x1="304.86" y1="337.50" x2="305.17" y2="303.45"/><line x1="217.59" y1="182.11" x2="199.37" y2="186.52"/><line x1="187.71" y1="301.25" x2="197.48" y2="283.33"/><line x1="209.38" y1="287.93" x2="198.34" y2="306.46"/><line x1="233.38" y1="321.38" x2="234.99" y2="321.85"/><line x1="212.92" y1="65.01" x2="213.32" y2="65.11"/><line x1="276.18" y1="195.31" x2="274.53" y2="193.87"/><line x1="201.36" y1="103.04" x2="180.73" y2="76.47"/><line x1="305.90" y1="337.47" x2="306.94" y2="337.43"/><line x1="201.36" y1="103.04" x2="192.16" y2="66.55"/><line x1="216.12" y1="100.27" x2="219.19" y2="66.13"/><line x1="274.20" y1="132.98" x2="307.97" y2="125.71"/><line x1="193.42" y1="281.44" x2="183.42" y2="298.10"/><line x1="182.89" y1="103.76" x2="193.85" y2="107.62"/><line x1="271.24" y1="122.30" x2="272.41" y2="124.75"/><line x1="329.69" y1="255.68" x2="303.07" y2="272.03"/><line x1="196.22" y1="66.02" x2="196.74" y2="66.04"/><line x1="306.45" y1="301.95" x2="326.14" y2="323.14"/><line x1="231.68" y1="295.22" x2="223.97" y2="319.06"/><line x1="248.02" y1="105.17" x2="248.34" y2="105.46"/><line x1="282.54" y1="302.00" x2="290.47" y2="334.37"/><line x1="236.76" y1="322.40" x2="253.79" y2="328.67"/><line x1="306.53" y1="301.56" x2="327.53" y2="322.97"/><line x1="288.66" y1="202.22" x2="288.34" y2="202.51"/><line x1="306.53" y1="301.56" x2="333.37" y2="316.86"/><line x1="215.61" y1="314.42" x2="217.04" y2="315.29"/><line x1="196.74" y1="66.04" x2="197.27" y2="66.05"/><line x1="286.65" y1="203.15" x2="286.13" y2="203.18"/><line x1="259.25" y1="301.40" x2="260.07" y2="301.65"/><line x1="272.41" y1="124.75" x2="272.67" y2="125.31"/><line x1="233.26" y1="295.48" x2="227.40" y2="320.28"/><line x1="330.60" y1="281.59" x2="330.38" y2="280.90"/><line x1="198.01" y1="105.28" x2="180.86" y2="97.95"/><line x1="293.30" y1="229.46" x2="291.05" y2="227.31"/><line x1="199.31" y1="284.00" x2="209.38" y2="287.93"/><line x1="244.12" y1="296.28" x2="245.70" y2="296.56"/><line x1="220.13" y1="66.26" x2="221.11" y2="66.42"/><line x1="217.59" y1="182.11" x2="216.10" y2="212.03"/><line x1="260.07" y1="301.65" x2="260.70" y2="301.81"/><line x1="311.92" y1="337.03" x2="313.42" y2="336.95"/><line x1="217.59" y1="182.11" x2="197.79" y2="208.56"/><line x1="223.18" y1="66.80" x2="231.46" y2="67.47"/><line x1="274.29" y1="136.04" x2="281.06" y2="162.17"/><line x1="272.56" y1="302.77" x2="282.54" y2="302.00"/><line x1="217.59" y1="182.11" x2="197.17" y2="190.55"/><line x1="330.38" y1="280.90" x2="305.41" y2="285.24"/><line x1="180.86" y1="97.95" x2="199.49" y2="104.16"/><line x1="272.91" y1="125.91" x2="297.64" y2="109.93"/><line x1="300.96" y1="249.84" x2="300.78" y2="248.76"/><line x1="209.38" y1="287.93" x2="191.89" y2="303.98"/><line x1="326.60" y1="230.26" x2="300.02" y2="242.93"/><line x1="323.28" y1="213.43" x2="322.84" y2="210.30"/><line x1="227.40" y1="320.28" x2="227.81" y2="320.32"/><line x1="217.59" y1="182.11" x2="201.33" y2="183.82"/><line x1="201.36" y1="103.04" x2="179.62" y2="86.37"/><line x1="250.32" y1="106.68" x2="250.61" y2="106.83"/><line x1="201.36" y1="103.04" x2="184.24" y2="71.25"/><line x1="313.42" y1="336.95" x2="305.56" y2="303.37"/><line x1="332.45" y1="320.25" x2="332.85" y2="319.30"/><line x1="201.36" y1="103.04" x2="195.72" y2="65.99"/><line x1="216.12" y1="100.27" x2="223.18" y2="66.80"/><line x1="303.53" y1="274.33" x2="331.29" y2="274.03"/><line x1="266.69" y1="114.05" x2="267.81" y2="115.88"/><line x1="200.20" y1="65.99" x2="200.87" y2="65.96"/><line x1="300.78" y1="248.76" x2="300.63" y2="247.79"/><line x1="279.72" y1="198.62" x2="277.96" y2="196.97"/><line x1="227.81" y1="320.32" x2="228.60" y2="320.36"/><line x1="282.54" y1="302.00" x2="271.22" y2="334.73"/><line x1="297.64" y1="109.93" x2="298.85" y2="111.28"/><line x1="332.85" y1="319.30" x2="333.15" y2="318.17"/><line x1="64.64" y1="32.09" x2="32.16" y2="64.58"/><line x1="268.68" y1="83.00" x2="274.33" y2="87.89"/><line x1="306.53" y1="301.56" x2="331.39" y2="321.59"/><line x1="189.36" y1="279.21" x2="190.44" y2="279.83"/><line x1="304.76" y1="280.99" x2="329.98" y2="278.84"/><line x1="198.34" y1="306.46" x2="199.83" y2="307.10"/><line x1="306.53" y1="301.56" x2="332.42" y2="287.12"/><line x1="277.96" y1="196.97" x2="276.18" y2="195.31"/><line x1="240.11" y1="67.93" x2="242.68" y2="68.33"/><line x1="271.22" y1="334.73" x2="273.08" y2="335.29"/><line x1="274.25" y1="133.96" x2="274.28" y2="134.98"/><line x1="319.26" y1="335.87" x2="320.10" y2="335.52"/><line x1="289.16" y1="193.23" x2="289.29" y2="193.73"/><line x1="247.13" y1="104.11" x2="247.41" y2="104.49"/><line x1="329.98" y1="278.84" x2="304.38" y2="278.80"/><line x1="298.25" y1="236.98" x2="325.97" y2="227.68"/><line x1="199.83" y1="307.10" x2="201.39" y2="307.77"/><line x1="231.94" y1="321.00" x2="233.38" y2="321.38"/><line x1="257.76" y1="104.63" x2="248.67" y2="105.72"/><line x1="199.18" y1="211.89" x2="198.44" y2="210.34"/><line x1="274.33" y1="87.89" x2="260.47" y2="106.32"/><line x1="214.09" y1="313.48" x2="223.90" y2="293.36"/><line x1="217.59" y1="182.11" x2="202.03" y2="215.10"/><line x1="257.76" y1="104.63" x2="268.68" y2="83.00"/><line x1="302.19" y1="115.43" x2="303.20" y2="116.85"/><line x1="320.10" y1="335.52" x2="320.82" y2="335.12"/><line x1="332.42" y1="287.12" x2="306.59" y2="301.13"/><line x1="289.29" y1="193.73" x2="289.41" y2="194.23"/><line x1="278.65" y1="91.47" x2="266.69" y2="114.05"/><line x1="326.60" y1="230.26" x2="300.96" y2="249.84"/><line x1="181.96" y1="296.92" x2="193.42" y2="281.44"/><line x1="332.42" y1="287.12" x2="332.39" y2="286.81"/><line x1="217.59" y1="182.11" x2="196.20" y2="199.22"/><line x1="223.90" y1="293.36" x2="225.43" y2="293.79"/><line x1="325.97" y1="227.68" x2="325.37" y2="225.01"/><line x1="217.59" y1="182.11" x2="198.90" y2="187.28"/><line x1="233.38" y1="321.38" x2="237.99" y2="295.97"/><line x1="283.25" y1="301.96" x2="284.09" y2="301.94"/><line x1="201.36" y1="103.04" x2="180.22" y2="77.95"/><line x1="216.12" y1="100.27" x2="218.29" y2="66.02"/><line x1="306.59" y1="301.13" x2="306.63" y2="300.65"/><line x1="303.53" y1="274.33" x2="331.16" y2="275.51"/><line x1="330.64" y1="277.36" x2="330.81" y2="276.93"/><line x1="193.42" y1="281.44" x2="182.68" y2="297.51"/><line x1="188.60" y1="108.26" x2="190.09" y2="108.39"/><line x1="268.30" y1="190.01" x2="260.31" y2="187.56"/><line x1="284.09" y1="301.94" x2="285.07" y2="301.94"/><line x1="282.54" y1="302.00" x2="278.81" y2="336.84"/><line x1="305.10" y1="283.13" x2="304.76" y2="280.99"/><line x1="330.81" y1="276.93" x2="330.94" y2="276.53"/><line x1="306.53" y1="301.56" x2="333.15" y2="318.17"/><line x1="215.61" y1="314.42" x2="225.43" y2="293.79"/><line x1="196.05" y1="196.33" x2="196.00" y2="193.21"/><line x1="274.05" y1="131.14" x2="274.14" y2="132.04"/><line x1="322.83" y1="331.75" x2="321.70" y2="324.60"/><line x1="191.47" y1="280.40" x2="192.46" y2="280.94"/><line x1="184.82" y1="106.33" x2="191.30" y2="108.31"/><line x1="289.86" y1="197.14" x2="289.88" y2="197.62"/><line x1="185.87" y1="299.95" x2="186.77" y2="300.60"/><line x1="203.95" y1="102.09" x2="201.58" y2="65.92"/><line x1="293.30" y1="229.46" x2="323.28" y2="213.43"/><line x1="199.55" y1="66.02" x2="200.20" y2="65.99"/><line x1="266.81" y1="216.93" x2="253.19" y2="184.89"/><line x1="257.76" y1="104.63" x2="266.66" y2="81.75"/><line x1="244.12" y1="296.28" x2="253.79" y2="328.67"/><line x1="196.00" y1="193.21" x2="196.38" y2="192.31"/><line x1="257.76" y1="104.63" x2="250.01" y2="106.53"/><line x1="305.91" y1="121.18" x2="306.68" y2="122.67"/><line x1="217.59" y1="182.11" x2="198.44" y2="210.34"/><line x1="223.18" y1="66.80" x2="227.87" y2="99.93"/><line x1="306.16" y1="291.28" x2="305.94" y2="289.32"/><line x1="32.16" y1="32.09" x2="64.64" y2="32.09"/><line x1="332.42" y1="287.12" x2="306.56" y2="296.77"/><line x1="217.59" y1="182.11" x2="196.77" y2="191.42"/><line x1="326.60" y1="230.26" x2="300.44" y2="246.18"/><line x1="220.88" y1="317.49" x2="221.99" y2="318.08"/><line x1="253.19" y1="184.89" x2="251.96" y2="184.37"/><line x1="231.46" y1="67.47" x2="240.11" y2="67.93"/><line x1="201.36" y1="103.04" x2="179.77" y2="89.68"/><line x1="270.08" y1="120.01" x2="271.24" y2="122.30"/><line x1="303.53" y1="274.33" x2="330.64" y2="277.36"/><line x1="289.03" y1="192.72" x2="289.16" y2="193.23"/><line x1="331.26" y1="274.60" x2="331.28" y2="274.31"/><line x1="303.53" y1="274.33" x2="331.28" y2="274.31"/><line x1="179.62" y1="86.37" x2="179.57" y2="82.80"/><line x1="216.60" y1="65.86" x2="217.43" y2="65.93"/><line x1="251.96" y1="184.37" x2="251.37" y2="184.20"/><line x1="329.69" y1="255.68" x2="326.60" y2="230.26"/><line x1="198.45" y1="188.07" x2="198.90" y2="187.28"/><line x1="295.19" y1="107.86" x2="295.38" y2="108.08"/><line x1="259.53" y1="105.60" x2="274.33" y2="87.89"/><line x1="308.49" y1="127.27" x2="308.94" y2="128.85"/><line x1="195.19" y1="107.01" x2="196.57" y2="106.23"/><line x1="198.14" y1="283.60" x2="198.75" y2="283.81"/><line x1="306.53" y1="301.56" x2="330.68" y2="322.03"/><line x1="179.57" y1="82.80" x2="179.64" y2="81.11"/><line x1="207.68" y1="65.01" x2="208.22" y2="64.94"/><line x1="241.36" y1="214.58" x2="243.03" y2="182.86"/><line x1="305.36" y1="303.44" x2="309.96" y2="337.22"/><line x1="198.90" y1="187.28" x2="199.37" y2="186.52"/><line x1="274.25" y1="133.96" x2="309.30" y2="130.45"/><line x1="273.51" y1="127.91" x2="302.19" y2="115.43"/><line x1="323.59" y1="193.34" x2="287.13" y2="203.08"/><line x1="32.00" y1="447.50" x2="64.49" y2="479.98"/><line x1="301.75" y1="253.72" x2="301.45" y2="252.32"/></g></svg>