<svg xmlns="http://www.w3.org/2000/svg" width="512" height="512"><rect width="512" height="512" fill="#0a0f1a"/><text x="12" y="20" font-family="monospace" font-size="11" fill="#4a7fa5">FRONT (XZ)</text><g stroke="#00d4ff" stroke-width="0.6" opacity="0.85"><line x1="216.10" y1="376.88" x2="215.05" y2="376.48"/><line x1="195.06" y1="161.20" x2="194.58" y2="161.91"/><line x1="209.23" y1="373.53" x2="229.48" y2="359.03"/><line x1="229.90" y1="360.93" x2="229.69" y2="360.02"/><line x1="227.89" y1="342.42" x2="200.37" y2="347.41"/><line x1="250.59" y1="81.85" x2="251.56" y2="82.34"/><line x1="311.36" y1="268.74" x2="311.86" y2="266.43"/><line x1="223.71" y1="288.79" x2="180.46" y2="257.54"/><line x1="225.00" y1="288.58" x2="178.12" y2="249.08"/><line x1="185.36" y1="163.47" x2="195.46" y2="160.40"/><line x1="219.74" y1="378.13" x2="232.89" y2="376.58"/><line x1="185.36" y1="163.47" x2="189.03" y2="164.26"/><line x1="258.04" y1="109.60" x2="269.23" y2="92.96"/><line x1="219.74" y1="378.13" x2="231.50" y2="367.34"/><line x1="215.00" y1="76.09" x2="247.43" y2="80.33"/><line x1="200.37" y1="347.41" x2="227.84" y2="340.36"/><line x1="338.04" y1="310.06" x2="339.28" y2="196.09"/><line x1="183.79" y1="284.59" x2="183.58" y2="282.36"/><line x1="190.56" y1="308.48" x2="189.76" y2="306.19"/><line x1="338.04" y1="310.06" x2="303.97" y2="126.40"/><line x1="193.70" y1="82.01" x2="193.10" y2="82.49"/><line x1="192.70" y1="231.39" x2="194.29" y2="231.45"/><line x1="338.04" y1="310.06" x2="308.07" y2="199.93"/><line x1="232.89" y1="376.58" x2="232.85" y2="375.91"/><line x1="202.30" y1="131.22" x2="167.10" y2="123.72"/><line x1="206.82" y1="371.21" x2="206.40" y2="370.56"/><line x1="296.68" y1="166.49" x2="297.27" y2="167.60"/><line x1="301.63" y1="329.23" x2="286.48" y2="329.57"/><line x1="189.76" y1="306.19" x2="188.92" y2="304.20"/><line x1="301.63" y1="329.23" x2="266.60" y2="321.16"/><line x1="255.95" y1="84.73" x2="257.57" y2="85.64"/><line x1="267.89" y1="92.04" x2="246.86" y2="103.11"/><line x1="251.78" y1="288.08" x2="252.89" y2="289.21"/><line x1="200.58" y1="136.45" x2="163.17" y2="135.60"/><line x1="249.16" y1="285.34" x2="233.26" y2="294.83"/><line x1="206.40" y1="370.56" x2="206.02" y2="369.87"/><line x1="267.89" y1="92.04" x2="227.47" y2="101.78"/><line x1="264.44" y1="319.86" x2="262.28" y2="318.50"/><line x1="227.28" y1="336.33" x2="199.44" y2="345.40"/><line x1="345.23" y1="293.43" x2="344.77" y2="295.09"/><line x1="179.97" y1="255.28" x2="225.00" y2="288.58"/><line x1="230.60" y1="385.63" x2="228.18" y2="386.74"/><line x1="170.93" y1="115.47" x2="202.30" y2="131.22"/><line x1="232.25" y1="371.21" x2="232.05" y2="370.01"/><line x1="252.89" y1="289.21" x2="253.86" y2="290.19"/><line x1="227.97" y1="344.38" x2="227.89" y2="342.42"/><line x1="277.94" y1="100.38" x2="263.81" y2="115.22"/><line x1="227.45" y1="386.79" x2="226.56" y2="386.74"/><line x1="199.01" y1="142.09" x2="173.06" y2="154.58"/><line x1="199.44" y1="345.40" x2="198.55" y2="343.37"/><line x1="344.77" y1="295.09" x2="344.35" y2="296.56"/><line x1="188.16" y1="87.66" x2="187.09" y2="88.92"/><line x1="203.14" y1="233.83" x2="204.50" y2="234.58"/><line x1="185.36" y1="163.47" x2="193.40" y2="163.06"/><line x1="232.05" y1="370.01" x2="231.79" y2="368.72"/><line x1="195.79" y1="159.50" x2="195.46" y2="160.40"/><line x1="219.74" y1="378.13" x2="232.57" y2="373.36"/><line x1="204.53" y1="365.72" x2="204.28" y2="364.76"/><line x1="263.81" y1="115.22" x2="279.12" y2="101.45"/><line x1="338.04" y1="310.06" x2="348.04" y2="259.83"/><line x1="215.00" y1="76.09" x2="241.21" y2="77.73"/><line x1="203.53" y1="78.07" x2="194.69" y2="81.36"/><line x1="185.49" y1="294.57" x2="222.38" y2="290.85"/><line x1="338.04" y1="310.06" x2="326.99" y2="162.11"/><line x1="187.09" y1="88.92" x2="185.94" y2="90.28"/><line x1="338.04" y1="310.06" x2="312.67" y2="261.80"/><line x1="266.52" y1="91.13" x2="267.89" y2="92.04"/><line x1="338.04" y1="310.06" x2="313.46" y2="243.33"/><line x1="259.34" y1="294.70" x2="261.11" y2="295.83"/><line x1="195.46" y1="160.40" x2="195.06" y2="161.20"/><line x1="204.28" y1="364.76" x2="204.03" y2="363.74"/><line x1="253.94" y1="312.23" x2="252.12" y2="310.78"/><line x1="341.99" y1="302.67" x2="341.07" y2="304.65"/><line x1="310.79" y1="271.05" x2="311.36" y2="268.74"/><line x1="178.12" y1="249.08" x2="177.88" y2="248.10"/><line x1="254.30" y1="83.81" x2="174.84" y2="105.58"/><line x1="267.89" y1="92.04" x2="255.06" y2="107.30"/><line x1="232.19" y1="383.00" x2="225.73" y2="386.61"/><line x1="261.61" y1="112.88" x2="262.67" y2="114.00"/><line x1="200.58" y1="136.45" x2="166.19" y2="126.01"/><line x1="261.11" y1="295.83" x2="262.90" y2="296.88"/><line x1="267.89" y1="92.04" x2="239.78" y2="101.34"/><line x1="275.58" y1="129.18" x2="275.82" y2="129.58"/><line x1="200.58" y1="136.45" x2="163.73" y2="142.24"/><line x1="252.12" y1="310.78" x2="235.92" y2="297.23"/><line x1="196.13" y1="335.42" x2="225.85" y2="328.48"/><line x1="341.07" y1="304.65" x2="340.10" y2="306.54"/><line x1="249.57" y1="81.34" x2="250.59" y2="81.85"/><line x1="248.52" y1="80.84" x2="183.44" y2="93.37"/><line x1="211.89" y1="241.34" x2="218.20" y2="250.72"/><line x1="171.55" y1="114.45" x2="215.59" y2="108.54"/><line x1="166.19" y1="126.01" x2="165.32" y2="128.30"/><line x1="216.10" y1="376.88" x2="230.36" y2="362.67"/><line x1="191.90" y1="163.83" x2="191.02" y2="164.07"/><line x1="221.24" y1="308.52" x2="223.27" y2="294.96"/><line x1="275.82" y1="129.58" x2="276.10" y2="129.99"/><line x1="336.75" y1="187.11" x2="333.85" y2="178.45"/><line x1="229.90" y1="360.93" x2="211.00" y2="374.58"/><line x1="291.19" y1="301.03" x2="292.44" y2="300.62"/><line x1="184.05" y1="286.73" x2="183.79" y2="284.59"/><line x1="250.59" y1="81.85" x2="179.33" y2="98.48"/><line x1="246.86" y1="103.11" x2="245.11" y2="102.53"/><line x1="218.20" y1="250.72" x2="224.88" y2="260.48"/><line x1="185.36" y1="163.47" x2="195.79" y2="159.50"/><line x1="272.48" y1="300.79" x2="274.48" y2="301.27"/><line x1="191.02" y1="164.07" x2="190.07" y2="164.21"/><line x1="185.36" y1="163.47" x2="190.07" y2="164.21"/><line x1="292.48" y1="114.11" x2="299.39" y2="171.01"/><line x1="219.74" y1="378.13" x2="231.79" y2="368.72"/><line x1="333.85" y1="178.45" x2="330.60" y2="170.12"/><line x1="215.00" y1="76.09" x2="246.31" y2="79.82"/><line x1="338.04" y1="310.06" x2="348.06" y2="262.97"/><line x1="239.79" y1="77.19" x2="241.21" y2="77.73"/><line x1="338.04" y1="310.06" x2="310.16" y2="273.36"/><line x1="313.45" y1="254.87" x2="313.59" y2="252.55"/><line x1="338.04" y1="310.06" x2="309.23" y2="132.97"/><line x1="245.11" y1="102.53" x2="243.35" y2="102.04"/><line x1="338.04" y1="310.06" x2="313.59" y2="252.55"/><line x1="222.70" y1="289.67" x2="222.85" y2="289.44"/><line x1="162.97" y1="136.97" x2="162.90" y2="138.13"/><line x1="274.48" y1="301.27" x2="276.53" y2="301.65"/><line x1="338.04" y1="310.06" x2="312.39" y2="232.40"/><line x1="314.24" y1="329.30" x2="315.56" y2="328.84"/><line x1="241.21" y1="77.73" x2="242.57" y2="78.26"/><line x1="254.30" y1="83.81" x2="177.30" y2="101.16"/><line x1="480.00" y1="32.02" x2="447.51" y2="32.02"/><line x1="178.14" y1="239.76" x2="178.68" y2="238.30"/><line x1="254.30" y1="83.81" x2="172.37" y2="112.16"/><line x1="271.81" y1="94.78" x2="270.53" y2="93.87"/><line x1="162.90" y1="138.13" x2="163.10" y2="140.12"/><line x1="200.58" y1="136.45" x2="163.50" y2="134.06"/><line x1="201.24" y1="350.21" x2="200.96" y2="349.19"/><line x1="249.16" y1="285.34" x2="231.79" y2="293.62"/><line x1="278.22" y1="132.87" x2="278.65" y2="133.47"/><line x1="201.52" y1="351.33" x2="228.16" y2="348.03"/><line x1="298.76" y1="297.08" x2="299.59" y2="296.30"/><line x1="223.02" y1="289.23" x2="223.23" y2="289.06"/><line x1="177.30" y1="101.16" x2="176.55" y2="102.23"/><line x1="248.52" y1="80.84" x2="189.16" y2="86.52"/><line x1="220.27" y1="380.43" x2="219.98" y2="379.33"/><line x1="234.27" y1="269.84" x2="234.86" y2="270.34"/><line x1="258.84" y1="110.24" x2="259.69" y2="111.01"/><line x1="171.55" y1="114.45" x2="206.16" y2="122.00"/><line x1="221.24" y1="308.52" x2="192.78" y2="317.27"/><line x1="288.76" y1="330.11" x2="286.48" y2="329.57"/><line x1="227.97" y1="344.38" x2="200.68" y2="348.26"/><line x1="234.64" y1="296.04" x2="338.04" y2="310.06"/><line x1="221.24" y1="308.52" x2="222.53" y2="292.00"/><line x1="260.61" y1="111.89" x2="261.61" y2="112.88"/><line x1="303.97" y1="126.40" x2="298.39" y2="120.12"/><line x1="313.28" y1="241.11" x2="313.03" y2="238.54"/><line x1="230.84" y1="101.15" x2="227.47" y2="101.78"/><line x1="226.56" y1="386.74" x2="232.19" y2="383.00"/><line x1="185.36" y1="163.47" x2="194.04" y2="162.54"/><line x1="292.48" y1="114.11" x2="300.20" y2="173.09"/><line x1="219.74" y1="378.13" x2="232.70" y2="374.30"/><line x1="215.00" y1="76.09" x2="239.79" y2="77.19"/><line x1="324.00" y1="324.37" x2="325.52" y2="323.36"/><line x1="226.28" y1="330.71" x2="196.13" y2="335.42"/><line x1="338.04" y1="310.06" x2="301.24" y2="294.27"/><line x1="203.53" y1="78.07" x2="212.36" y2="75.16"/><line x1="215.00" y1="76.09" x2="212.36" y2="75.16"/><line x1="338.04" y1="310.06" x2="306.60" y2="283.49"/><line x1="338.04" y1="310.06" x2="330.60" y2="170.12"/><line x1="338.04" y1="310.06" x2="312.30" y2="264.11"/><line x1="210.74" y1="239.95" x2="211.89" y2="241.34"/><line x1="170.36" y1="151.87" x2="173.06" y2="154.58"/><line x1="338.04" y1="310.06" x2="313.60" y2="245.20"/><line x1="230.78" y1="364.32" x2="216.10" y2="376.88"/><line x1="200.07" y1="346.65" x2="227.51" y2="337.85"/><line x1="302.96" y1="291.41" x2="303.55" y2="290.27"/><line x1="224.30" y1="288.63" x2="224.64" y2="288.59"/><line x1="222.49" y1="290.21" x2="184.05" y2="286.73"/><line x1="254.30" y1="83.81" x2="175.26" y2="104.57"/><line x1="261.61" y1="112.88" x2="276.90" y2="99.41"/><line x1="344.76" y1="224.96" x2="348.52" y2="253.20"/><line x1="201.52" y1="351.33" x2="228.92" y2="355.56"/><line x1="200.58" y1="136.45" x2="163.10" y2="140.12"/><line x1="171.55" y1="114.45" x2="267.89" y2="92.04"/><line x1="248.52" y1="80.84" x2="193.10" y2="82.49"/><line x1="177.53" y1="243.07" x2="177.76" y2="241.34"/><line x1="248.52" y1="80.84" x2="184.73" y2="91.77"/><line x1="222.94" y1="385.20" x2="222.37" y2="384.63"/><line x1="292.48" y1="114.11" x2="280.61" y2="136.32"/><line x1="171.55" y1="114.45" x2="218.33" y2="106.21"/><line x1="196.33" y1="156.30" x2="196.22" y2="157.46"/><line x1="229.48" y1="359.03" x2="206.40" y2="370.56"/><line x1="348.33" y1="254.90" x2="348.19" y2="256.57"/><line x1="228.92" y1="355.56" x2="228.74" y2="354.23"/><line x1="221.24" y1="308.52" x2="223.68" y2="296.29"/><line x1="348.15" y1="264.49" x2="341.07" y2="304.65"/><line x1="229.48" y1="359.03" x2="229.29" y2="357.96"/><line x1="193.45" y1="320.83" x2="192.78" y2="317.27"/><line x1="256.57" y1="108.41" x2="255.06" y2="107.30"/><line x1="300.20" y1="173.09" x2="300.04" y2="172.56"/><line x1="177.76" y1="241.34" x2="178.14" y2="239.76"/><line x1="222.37" y1="384.63" x2="221.86" y2="383.96"/><line x1="279.12" y1="101.45" x2="280.44" y2="102.64"/><line x1="185.36" y1="163.47" x2="196.04" y2="158.52"/><line x1="212.41" y1="375.32" x2="211.68" y2="374.94"/><line x1="345.70" y1="291.59" x2="348.71" y2="268.86"/><line x1="338.04" y1="310.06" x2="297.86" y2="297.80"/><line x1="277.81" y1="132.32" x2="278.22" y2="132.87"/><line x1="292.48" y1="114.11" x2="299.55" y2="171.31"/><line x1="192.78" y1="317.27" x2="192.08" y2="314.03"/><line x1="215.00" y1="76.09" x2="245.12" y2="79.31"/><line x1="338.04" y1="310.06" x2="303.55" y2="290.27"/><line x1="183.28" y1="277.68" x2="222.85" y2="289.44"/><line x1="338.04" y1="310.06" x2="309.47" y2="275.68"/><line x1="233.65" y1="269.29" x2="234.27" y2="269.84"/><line x1="338.04" y1="310.06" x2="313.45" y2="254.87"/><line x1="229.29" y1="357.96" x2="229.10" y2="356.80"/><line x1="265.00" y1="116.56" x2="275.35" y2="128.80"/><line x1="211.68" y1="374.94" x2="211.00" y2="374.58"/><line x1="222.37" y1="291.21" x2="188.24" y2="302.77"/><line x1="197.70" y1="341.03" x2="196.89" y2="338.38"/><line x1="228.06" y1="346.25" x2="201.24" y2="350.21"/><line x1="338.04" y1="310.06" x2="312.74" y2="235.64"/><line x1="309.23" y1="132.97" x2="303.97" y2="126.40"/><line x1="222.85" y1="289.44" x2="223.02" y2="289.23"/><line x1="232.45" y1="382.06" x2="223.56" y2="385.68"/><line x1="480.00" y1="32.02" x2="480.00" y2="64.50"/><line x1="234.64" y1="296.04" x2="266.62" y2="298.72"/><line x1="218.44" y1="377.71" x2="217.23" y2="377.29"/><line x1="220.60" y1="381.45" x2="220.27" y2="380.43"/><line x1="254.30" y1="83.81" x2="173.11" y2="110.13"/><line x1="234.36" y1="100.94" x2="230.84" y2="101.15"/><line x1="271.81" y1="94.78" x2="258.84" y2="110.24"/><line x1="348.03" y1="261.41" x2="348.06" y2="262.97"/><line x1="200.58" y1="136.45" x2="163.97" y2="132.33"/><line x1="201.24" y1="350.21" x2="227.97" y2="344.38"/><line x1="184.69" y1="290.81" x2="184.34" y2="288.81"/><line x1="201.52" y1="351.33" x2="228.29" y2="349.72"/><line x1="223.07" y1="294.25" x2="222.89" y2="293.53"/><line x1="171.55" y1="114.45" x2="260.69" y2="87.47"/><line x1="248.52" y1="80.84" x2="203.53" y2="78.07"/><line x1="234.64" y1="296.04" x2="327.06" y2="322.26"/><line x1="480.00" y1="479.91" x2="480.00" y2="447.42"/><line x1="183.69" y1="233.12" x2="185.17" y2="232.50"/><line x1="292.48" y1="114.11" x2="278.22" y2="132.87"/><line x1="248.52" y1="80.84" x2="190.08" y2="85.49"/><line x1="220.27" y1="380.43" x2="232.88" y2="378.56"/><line x1="248.52" y1="80.84" x2="249.57" y2="81.34"/><line x1="229.48" y1="359.03" x2="208.73" y2="373.20"/><line x1="292.48" y1="114.11" x2="295.59" y2="164.22"/><line x1="221.24" y1="308.52" x2="193.45" y2="320.83"/><line x1="285.03" y1="143.94" x2="291.71" y2="154.01"/><line x1="348.15" y1="264.49" x2="343.95" y2="297.85"/><line x1="229.48" y1="359.03" x2="205.08" y2="367.52"/><line x1="171.55" y1="114.45" x2="208.30" y2="118.01"/><line x1="222.89" y1="293.53" x2="222.71" y2="292.78"/><line x1="221.24" y1="308.52" x2="222.71" y2="292.78"/><line x1="168.08" y1="149.28" x2="170.36" y2="151.87"/><line x1="180.46" y1="257.54" x2="223.99" y2="288.69"/><line x1="292.48" y1="114.11" x2="338.04" y2="310.06"/><line x1="174.35" y1="106.83" x2="173.77" y2="108.35"/><line x1="225.00" y1="288.58" x2="211.89" y2="241.34"/><line x1="338.04" y1="310.06" x2="278.60" y2="301.91"/><line x1="230.23" y1="292.38" x2="231.79" y2="293.62"/><line x1="225.00" y1="288.58" x2="234.86" y2="270.34"/><line x1="208.73" y1="373.20" x2="208.28" y2="372.87"/><line x1="338.04" y1="310.06" x2="292.44" y2="300.62"/><line x1="292.48" y1="114.11" x2="300.36" y2="173.68"/><line x1="227.84" y1="340.36" x2="200.07" y2="346.65"/><line x1="345.70" y1="291.59" x2="345.23" y2="293.43"/><line x1="215.00" y1="76.09" x2="220.83" y2="74.59"/><line x1="349.01" y1="270.27" x2="348.71" y2="268.86"/><line x1="338.04" y1="310.06" x2="300.68" y2="295.04"/><line x1="292.48" y1="114.11" x2="297.89" y2="168.68"/><line x1="223.99" y1="288.69" x2="224.30" y2="288.63"/><line x1="338.04" y1="310.06" x2="305.97" y2="284.99"/><line x1="232.65" y1="381.01" x2="232.79" y2="379.85"/><line x1="173.77" y1="108.35" x2="173.11" y2="110.13"/><line x1="447.51" y1="479.91" x2="480.00" y2="447.42"/><line x1="273.04" y1="95.70" x2="275.28" y2="97.80"/><line x1="213.01" y1="111.28" x2="210.59" y2="114.43"/><line x1="338.04" y1="310.06" x2="311.86" y2="266.43"/><line x1="273.14" y1="324.63" x2="270.95" y2="323.54"/><line x1="200.07" y1="346.65" x2="227.70" y2="339.19"/><line x1="222.37" y1="291.21" x2="185.96" y2="296.35"/><line x1="348.71" y1="268.86" x2="348.47" y2="267.44"/><line x1="192.44" y1="83.08" x2="191.72" y2="83.78"/><line x1="300.36" y1="173.68" x2="300.20" y2="173.09"/><line x1="228.18" y1="386.74" x2="227.45" y2="386.79"/><line x1="195.86" y1="231.60" x2="197.38" y2="231.84"/><line x1="232.45" y1="382.06" x2="232.65" y2="381.01"/><line x1="229.69" y1="360.02" x2="209.23" y2="373.53"/><line x1="232.79" y1="375.14" x2="232.70" y2="374.30"/><line x1="234.64" y1="296.04" x2="257.62" y2="293.49"/><line x1="234.64" y1="296.04" x2="274.48" y2="301.27"/><line x1="254.30" y1="83.81" x2="175.59" y2="103.83"/><line x1="210.59" y1="114.43" x2="208.30" y2="118.01"/><line x1="344.76" y1="224.96" x2="348.33" y2="254.90"/><line x1="234.64" y1="296.04" x2="319.64" y2="326.95"/><line x1="333.45" y1="316.12" x2="334.64" y2="314.71"/><line x1="188.24" y1="302.77" x2="187.60" y2="301.27"/><line x1="191.72" y1="83.78" x2="190.93" y2="84.58"/><line x1="171.55" y1="114.45" x2="266.52" y2="91.13"/><line x1="234.64" y1="296.04" x2="332.22" y2="317.47"/><line x1="248.52" y1="80.84" x2="193.70" y2="82.01"/><line x1="231.08" y1="385.12" x2="231.50" y2="384.52"/><line x1="292.48" y1="114.11" x2="276.39" y2="130.42"/><line x1="259.14" y1="86.55" x2="260.69" y2="87.47"/><line x1="253.86" y1="290.19" x2="254.69" y2="291.01"/><line x1="248.52" y1="80.84" x2="185.94" y2="90.28"/><line x1="292.48" y1="114.11" x2="280.08" y2="135.54"/><line x1="171.55" y1="114.45" x2="221.22" y2="104.32"/><line x1="205.68" y1="369.14" x2="205.36" y2="368.35"/><line x1="349.76" y1="272.97" x2="349.35" y2="271.63"/><line x1="196.33" y1="156.30" x2="185.36" y2="163.47"/><line x1="229.48" y1="359.03" x2="206.82" y2="371.21"/><line x1="227.00" y1="334.63" x2="226.67" y2="332.76"/><line x1="221.24" y1="308.52" x2="223.47" y2="295.63"/><line x1="348.33" y1="254.90" x2="348.52" y2="253.20"/><line x1="344.35" y1="296.56" x2="343.95" y2="297.85"/><line x1="229.48" y1="359.03" x2="204.03" y2="363.74"/><line x1="348.15" y1="264.49" x2="341.99" y2="302.67"/><line x1="179.72" y1="254.38" x2="179.44" y2="253.41"/><line x1="256.57" y1="108.41" x2="267.89" y2="92.04"/><line x1="307.24" y1="281.93" x2="307.88" y2="280.30"/><line x1="225.00" y1="288.58" x2="205.82" y2="235.45"/><line x1="260.69" y1="87.47" x2="262.20" y2="88.38"/><line x1="164.76" y1="144.46" x2="166.21" y2="146.82"/><line x1="322.52" y1="325.31" x2="324.00" y2="324.37"/><line x1="231.50" y1="367.34" x2="231.16" y2="365.87"/><line x1="225.00" y1="288.58" x2="231.57" y2="267.33"/><line x1="338.04" y1="310.06" x2="285.78" y2="302.01"/><line x1="279.12" y1="101.45" x2="265.00" y2="116.56"/><line x1="345.70" y1="291.59" x2="349.01" y2="270.27"/><line x1="259.99" y1="316.87" x2="258.67" y2="315.89"/><line x1="338.04" y1="310.06" x2="296.90" y2="298.48"/><line x1="343.95" y1="297.85" x2="343.56" y2="298.96"/><line x1="338.04" y1="310.06" x2="302.96" y2="291.41"/><line x1="185.94" y1="90.28" x2="184.73" y2="91.77"/><line x1="299.23" y1="170.77" x2="298.55" y2="169.73"/><line x1="225.73" y1="386.61" x2="224.95" y2="386.39"/><line x1="169.55" y1="118.13" x2="168.78" y2="119.79"/><line x1="229.29" y1="357.96" x2="203.58" y2="361.58"/><line x1="265.00" y1="116.56" x2="280.44" y2="102.64"/><line x1="222.37" y1="291.21" x2="188.92" y2="304.20"/><line x1="284.33" y1="302.10" x2="285.78" y2="302.01"/><line x1="184.73" y1="91.77" x2="183.44" y2="93.37"/><line x1="275.33" y1="325.65" x2="273.14" y2="324.63"/><line x1="234.64" y1="296.04" x2="252.89" y2="289.21"/><line x1="255.06" y1="107.30" x2="253.50" y2="106.29"/><line x1="232.45" y1="382.06" x2="224.23" y2="386.08"/><line x1="234.64" y1="296.04" x2="264.74" y2="297.83"/><line x1="194.58" y1="161.91" x2="194.04" y2="162.54"/><line x1="195.40" y1="332.16" x2="194.72" y2="328.59"/><line x1="234.64" y1="296.04" x2="312.96" y2="329.68"/><line x1="224.64" y1="288.59" x2="225.00" y2="288.58"/><line x1="344.76" y1="224.96" x2="338.04" y2="310.06"/><line x1="201.52" y1="351.33" x2="228.43" y2="351.32"/><line x1="179.33" y1="98.48" x2="252.51" y2="82.83"/><line x1="275.28" y1="97.80" x2="260.61" y2="111.89"/><line x1="171.55" y1="114.45" x2="259.14" y2="86.55"/><line x1="234.64" y1="296.04" x2="325.52" y2="323.36"/><line x1="253.50" y1="106.29" x2="251.91" y2="105.36"/><line x1="234.64" y1="296.04" x2="336.95" y2="311.68"/><line x1="480.00" y1="479.91" x2="447.51" y2="479.91"/><line x1="311.86" y1="266.43" x2="312.30" y2="264.11"/><line x1="292.48" y1="114.11" x2="277.81" y2="132.32"/><line x1="292.48" y1="114.11" x2="295.09" y2="163.05"/><line x1="348.15" y1="264.49" x2="344.35" y2="296.56"/><line x1="221.24" y1="308.52" x2="194.09" y2="324.70"/><line x1="308.04" y1="330.36" x2="309.23" y2="330.32"/><line x1="229.48" y1="359.03" x2="205.36" y2="368.35"/><line x1="222.58" y1="289.92" x2="222.70" y2="289.67"/><line x1="225.00" y1="288.58" x2="183.69" y2="233.12"/><line x1="183.25" y1="162.48" x2="196.33" y2="156.30"/><line x1="225.00" y1="288.58" x2="198.87" y2="232.19"/><line x1="225.00" y1="288.58" x2="210.74" y2="239.95"/><line x1="164.58" y1="130.41" x2="163.97" y2="132.33"/><line x1="232.85" y1="375.91" x2="232.79" y2="375.14"/><line x1="338.04" y1="310.06" x2="336.95" y2="311.68"/><line x1="276.39" y1="130.42" x2="276.71" y2="130.87"/><line x1="225.00" y1="288.58" x2="234.27" y2="269.84"/><line x1="338.04" y1="310.06" x2="291.19" y2="301.03"/><line x1="293.65" y1="300.16" x2="294.80" y2="299.65"/><line x1="183.58" y1="282.36" x2="183.41" y2="280.05"/><line x1="188.92" y1="304.20" x2="188.24" y2="302.77"/><line x1="338.04" y1="310.06" x2="300.13" y2="295.71"/><line x1="251.56" y1="82.34" x2="252.51" y2="82.83"/><line x1="232.65" y1="381.01" x2="220.97" y2="382.38"/><line x1="273.04" y1="95.70" x2="274.24" y2="96.61"/><line x1="189.03" y1="164.26" x2="187.28" y2="164.06"/><line x1="206.02" y1="369.87" x2="205.68" y2="369.14"/><line x1="170.27" y1="116.70" x2="169.55" y2="118.13"/><line x1="222.37" y1="291.21" x2="186.46" y2="298.05"/><line x1="313.68" y1="250.24" x2="313.71" y2="247.93"/><line x1="228.18" y1="386.74" x2="231.08" y2="385.12"/><line x1="234.64" y1="296.04" x2="255.93" y2="292.19"/><line x1="232.45" y1="382.06" x2="221.86" y2="383.96"/><line x1="229.69" y1="360.02" x2="209.77" y2="373.87"/><line x1="234.64" y1="296.04" x2="272.48" y2="300.79"/><line x1="234.64" y1="296.04" x2="235.92" y2="297.23"/><line x1="223.47" y1="295.63" x2="223.27" y2="294.96"/><line x1="198.55" y1="343.37" x2="227.00" y2="334.63"/><line x1="181.59" y1="265.92" x2="223.45" y2="288.91"/><line x1="234.64" y1="296.04" x2="318.25" y2="327.66"/><line x1="171.55" y1="114.45" x2="265.11" y2="90.22"/><line x1="234.64" y1="296.04" x2="330.97" y2="318.76"/><line x1="275.28" y1="97.80" x2="261.61" y2="112.88"/><line x1="292.48" y1="114.11" x2="276.10" y2="129.99"/><line x1="231.79" y1="368.72" x2="231.50" y2="367.34"/><line x1="292.48" y1="114.11" x2="279.58" y2="134.80"/><line x1="349.76" y1="272.97" x2="350.22" y2="274.27"/><line x1="229.48" y1="359.03" x2="207.27" y2="371.81"/><line x1="227.00" y1="334.63" x2="197.70" y2="341.03"/><line x1="225.00" y1="288.58" x2="178.68" y2="238.30"/><line x1="180.61" y1="96.87" x2="179.33" y2="98.48"/><line x1="225.00" y1="288.58" x2="190.57" y2="231.47"/><line x1="225.00" y1="288.58" x2="204.50" y2="234.58"/><line x1="205.82" y1="235.45" x2="207.10" y2="236.41"/><line x1="231.50" y1="367.34" x2="218.44" y2="377.71"/><line x1="225.00" y1="288.58" x2="230.81" y2="266.57"/><line x1="200.68" y1="348.26" x2="200.37" y2="347.41"/><line x1="204.03" y1="363.74" x2="229.29" y2="357.96"/><line x1="338.04" y1="310.06" x2="284.33" y2="302.10"/><line x1="225.00" y1="288.58" x2="226.84" y2="289.86"/><line x1="185.07" y1="292.72" x2="184.69" y2="290.81"/><line x1="230.06" y1="386.05" x2="230.60" y2="385.63"/><line x1="232.91" y1="377.17" x2="232.89" y2="376.58"/><line x1="225.73" y1="386.61" x2="232.45" y2="382.06"/><line x1="262.90" y1="296.88" x2="264.74" y2="297.83"/><line x1="229.29" y1="357.96" x2="203.80" y2="362.68"/><line x1="222.37" y1="291.21" x2="189.76" y2="306.19"/><line x1="225.85" y1="328.48" x2="195.40" y2="332.16"/><line x1="301.63" y1="329.23" x2="252.12" y2="310.78"/><line x1="340.10" y1="306.54" x2="339.09" y2="308.33"/><line x1="228.86" y1="386.61" x2="228.18" y2="386.74"/><line x1="177.69" y1="247.20" x2="177.56" y2="246.38"/><line x1="234.64" y1="296.04" x2="301.63" y2="329.23"/><line x1="234.64" y1="296.04" x2="251.78" y2="288.08"/><line x1="232.45" y1="382.06" x2="224.95" y2="386.39"/><line x1="230.36" y1="362.67" x2="215.05" y2="376.48"/><line x1="234.64" y1="296.04" x2="262.90" y2="296.88"/><line x1="276.10" y1="129.99" x2="276.39" y2="130.42"/><line x1="195.40" y1="332.16" x2="221.24" y2="308.52"/><line x1="234.64" y1="296.04" x2="311.69" y2="329.97"/><line x1="224.64" y1="288.59" x2="179.97" y2="255.28"/><line x1="234.64" y1="296.04" x2="324.00" y2="324.37"/><line x1="179.33" y1="98.48" x2="251.56" y2="82.34"/><line x1="275.28" y1="97.80" x2="259.69" y2="111.01"/><line x1="224.88" y1="260.48" x2="230.81" y2="266.57"/><line x1="276.90" y1="99.41" x2="277.94" y2="100.38"/><line x1="215.05" y1="376.48" x2="214.09" y2="376.08"/><line x1="225.00" y1="288.58" x2="179.72" y2="254.38"/><line x1="228.74" y1="354.23" x2="228.58" y2="352.81"/><line x1="225.00" y1="288.58" x2="177.48" y2="245.62"/><line x1="330.60" y1="170.12" x2="326.99" y2="162.11"/><line x1="222.58" y1="289.92" x2="183.58" y2="282.36"/><line x1="225.00" y1="288.58" x2="182.37" y2="233.88"/><line x1="225.00" y1="288.58" x2="197.38" y2="231.84"/><line x1="221.86" y1="383.96" x2="232.65" y2="381.01"/><line x1="211.00" y1="374.58" x2="210.36" y2="374.22"/><line x1="225.00" y1="288.58" x2="209.56" y2="238.66"/><line x1="228.58" y1="352.81" x2="228.43" y2="351.32"/><line x1="204.50" y1="234.58" x2="205.82" y2="235.45"/><line x1="242.57" y1="78.26" x2="243.87" y2="78.78"/><line x1="178.68" y1="238.30" x2="179.37" y2="236.99"/><line x1="232.65" y1="381.01" x2="221.40" y2="383.21"/><line x1="222.38" y1="290.85" x2="185.07" y2="292.72"/><line x1="301.63" y1="329.23" x2="277.53" y2="326.60"/><line x1="278.65" y1="133.47" x2="279.11" y2="134.11"/><line x1="301.63" y1="329.23" x2="259.99" y2="316.87"/><line x1="316.89" y1="328.29" x2="318.25" y2="327.66"/><line x1="232.88" y1="378.56" x2="232.91" y2="377.17"/><line x1="234.86" y1="270.34" x2="235.42" y2="270.79"/><line x1="163.73" y1="142.24" x2="164.76" y2="144.46"/><line x1="229.69" y1="360.02" x2="210.36" y2="374.22"/><line x1="177.88" y1="248.10" x2="177.69" y2="247.20"/><line x1="300.13" y1="295.71" x2="300.68" y2="295.04"/><line x1="181.59" y1="265.92" x2="223.23" y2="289.06"/><line x1="234.64" y1="296.04" x2="316.89" y2="328.29"/><line x1="167.10" y1="123.72" x2="166.19" y2="126.01"/><line x1="219.98" y1="379.33" x2="219.74" y2="378.13"/><line x1="284.22" y1="328.96" x2="281.98" y2="328.25"/><line x1="200.96" y1="349.19" x2="200.68" y2="348.26"/><line x1="225.00" y1="288.58" x2="178.42" y2="250.12"/><line x1="165.32" y1="128.30" x2="164.58" y2="130.41"/><line x1="225.00" y1="288.58" x2="178.14" y2="239.76"/><line x1="312.74" y1="235.64" x2="312.39" y2="232.40"/><line x1="186.80" y1="232.01" x2="188.61" y2="231.67"/><line x1="225.00" y1="288.58" x2="188.61" y2="231.67"/><line x1="224.27" y1="102.84" x2="221.22" y2="104.32"/><line x1="183.79" y1="284.59" x2="222.58" y2="289.92"/><line x1="225.00" y1="288.58" x2="203.14" y2="233.83"/><line x1="292.44" y1="300.62" x2="293.65" y2="300.16"/><line x1="295.09" y1="163.05" x2="295.59" y2="164.22"/><line x1="327.06" y1="322.26" x2="328.39" y2="321.16"/><line x1="180.33" y1="256.86" x2="180.17" y2="256.11"/><line x1="202.30" y1="131.22" x2="167.97" y2="121.65"/><line x1="190.07" y1="164.21" x2="189.03" y2="164.26"/><line x1="230.06" y1="386.05" x2="229.49" y2="386.38"/><line x1="233.26" y1="294.83" x2="234.64" y2="296.04"/><line x1="301.63" y1="329.23" x2="288.76" y2="330.11"/><line x1="175.87" y1="157.14" x2="178.51" y2="159.32"/><line x1="313.59" y1="252.55" x2="313.68" y2="250.24"/><line x1="301.63" y1="329.23" x2="268.77" y2="322.39"/><line x1="227.51" y1="337.85" x2="227.28" y2="336.33"/><line x1="243.35" y1="102.04" x2="241.57" y2="101.65"/><line x1="348.47" y1="267.44" x2="348.28" y2="265.98"/><line x1="267.89" y1="92.04" x2="248.58" y2="103.76"/><line x1="301.63" y1="329.23" x2="253.94" y2="312.23"/><line x1="304.14" y1="289.06" x2="304.74" y2="287.77"/><line x1="267.89" y1="92.04" x2="230.84" y2="101.15"/><line x1="172.37" y1="112.16" x2="171.55" y2="114.45"/><line x1="192.08" y1="314.03" x2="191.34" y2="311.10"/><line x1="315.56" y1="328.84" x2="316.89" y2="328.29"/><line x1="268.77" y1="322.39" x2="266.60" y2="321.16"/><line x1="163.10" y1="140.12" x2="163.73" y2="142.24"/><line x1="300.04" y1="172.56" x2="299.87" y2="172.09"/><line x1="227.45" y1="386.79" x2="231.88" y2="383.82"/><line x1="199.01" y1="142.09" x2="170.36" y2="151.87"/><line x1="206.16" y1="122.00" x2="204.15" y2="126.40"/><line x1="299.59" y1="296.30" x2="300.13" y2="295.71"/><line x1="176.55" y1="102.23" x2="175.98" y2="103.12"/><line x1="335.81" y1="313.23" x2="336.95" y2="311.68"/><line x1="225.00" y1="288.58" x2="177.56" y2="246.38"/><line x1="190.08" y1="85.49" x2="189.16" y2="86.52"/><line x1="286.48" y1="329.57" x2="284.22" y2="328.96"/><line x1="225.00" y1="288.58" x2="181.21" y2="234.78"/><line x1="280.44" y1="102.64" x2="292.48" y2="114.11"/><line x1="196.22" y1="157.46" x2="196.04" y2="158.52"/><line x1="211.00" y1="374.58" x2="229.69" y2="360.02"/><line x1="313.03" y1="238.54" x2="312.74" y2="235.64"/><line x1="226.67" y1="332.76" x2="226.28" y2="330.71"/><line x1="227.47" y1="101.78" x2="224.27" y2="102.84"/><line x1="308.71" y1="277.99" x2="309.47" y2="275.68"/><line x1="263.68" y1="89.30" x2="265.11" y2="90.22"/><line x1="338.04" y1="310.06" x2="339.09" y2="308.33"/><line x1="480.00" y1="64.50" x2="447.51" y2="32.02"/><line x1="325.52" y1="323.36" x2="327.06" y2="322.26"/><line x1="231.16" y1="365.87" x2="230.78" y2="364.32"/><line x1="275.35" y1="128.80" x2="275.58" y2="129.18"/><line x1="301.63" y1="329.23" x2="279.75" y2="327.47"/><line x1="341.47" y1="205.39" x2="339.28" y2="196.09"/><line x1="257.21" y1="314.79" x2="255.64" y2="313.56"/><line x1="301.63" y1="329.23" x2="261.20" y2="317.75"/><line x1="222.42" y1="290.51" x2="222.49" y2="290.21"/><line x1="173.06" y1="154.58" x2="175.87" y2="157.14"/><line x1="267.89" y1="92.04" x2="241.57" y2="101.65"/><line x1="196.37" y1="155.05" x2="196.33" y2="156.30"/><line x1="303.55" y1="290.27" x2="304.14" y2="289.06"/><line x1="232.88" y1="378.56" x2="219.98" y2="379.33"/><line x1="203.58" y1="361.58" x2="201.52" y2="351.33"/><line x1="173.11" y1="110.13" x2="172.37" y2="112.16"/><line x1="287.19" y1="301.85" x2="288.56" y2="301.64"/><line x1="270.95" y1="323.54" x2="268.77" y2="322.39"/><line x1="229.90" y1="360.93" x2="211.68" y2="374.94"/><line x1="199.01" y1="142.09" x2="196.37" y2="155.05"/><line x1="208.28" y1="372.87" x2="207.76" y2="372.36"/><line x1="208.30" y1="118.01" x2="206.16" y2="122.00"/><line x1="225.00" y1="288.58" x2="178.77" y2="251.24"/><line x1="238.31" y1="76.66" x2="239.79" y2="77.19"/><line x1="222.53" y1="292.00" x2="222.37" y2="291.21"/><line x1="225.00" y1="288.58" x2="177.76" y2="241.34"/><line x1="171.55" y1="114.45" x2="204.15" y2="126.40"/><line x1="185.36" y1="163.47" x2="191.02" y2="164.07"/><line x1="334.64" y1="314.71" x2="335.81" y2="313.23"/><line x1="219.74" y1="378.13" x2="232.05" y2="370.01"/><line x1="338.04" y1="310.06" x2="341.47" y2="205.39"/><line x1="338.04" y1="310.06" x2="314.16" y2="139.83"/><line x1="222.70" y1="289.67" x2="183.28" y2="277.68"/><line x1="253.42" y1="83.33" x2="254.30" y2="83.81"/><line x1="180.33" y1="256.86" x2="224.64" y2="288.59"/><line x1="202.30" y1="131.22" x2="168.78" y2="119.79"/><line x1="274.68" y1="97.15" x2="275.28" y2="97.80"/><line x1="232.70" y1="374.30" x2="232.57" y2="373.36"/><line x1="301.63" y1="329.23" x2="293.35" y2="330.92"/><line x1="276.02" y1="98.55" x2="276.90" y2="99.41"/><line x1="301.63" y1="329.23" x2="270.95" y2="323.54"/><line x1="267.89" y1="92.04" x2="250.27" y2="104.52"/><line x1="301.63" y1="329.23" x2="255.64" y2="313.56"/><line x1="249.16" y1="285.34" x2="230.23" y2="292.38"/><line x1="232.79" y1="379.85" x2="232.88" y2="378.56"/><line x1="198.87" y1="232.19" x2="200.33" y2="232.64"/><line x1="267.89" y1="92.04" x2="234.36" y2="100.94"/><line x1="223.02" y1="289.23" x2="181.59" y2="265.92"/><line x1="187.02" y1="299.69" x2="186.46" y2="298.05"/><line x1="258.84" y1="110.24" x2="270.53" y2="93.87"/><line x1="227.97" y1="344.38" x2="200.96" y2="349.19"/><line x1="227.45" y1="386.79" x2="231.50" y2="384.52"/><line x1="199.01" y1="142.09" x2="168.08" y2="149.28"/><line x1="255.38" y1="291.67" x2="255.93" y2="292.19"/><line x1="185.17" y1="232.50" x2="186.80" y2="232.01"/><line x1="185.36" y1="163.47" x2="194.58" y2="161.91"/><line x1="179.13" y1="252.36" x2="178.77" y2="251.24"/><line x1="291.71" y1="154.01" x2="295.09" y2="163.05"/><line x1="219.74" y1="378.13" x2="232.79" y2="375.14"/><line x1="222.71" y1="292.78" x2="222.53" y2="292.00"/><line x1="215.00" y1="76.09" x2="203.53" y2="78.07"/><line x1="280.44" y1="102.64" x2="275.35" y2="128.80"/><line x1="338.04" y1="310.06" x2="333.85" y2="178.45"/><line x1="226.67" y1="332.76" x2="196.89" y2="338.38"/><line x1="231.79" y1="293.62" x2="233.26" y2="294.83"/><line x1="338.04" y1="310.06" x2="313.68" y2="246.74"/><line x1="208.35" y1="237.48" x2="209.56" y2="238.66"/><line x1="224.30" y1="288.63" x2="180.33" y2="256.86"/><line x1="301.63" y1="329.23" x2="281.98" y2="328.25"/><line x1="222.42" y1="290.51" x2="184.34" y2="288.81"/><line x1="261.61" y1="112.88" x2="276.02" y2="98.55"/><line x1="267.89" y1="92.04" x2="243.35" y2="102.04"/><line x1="227.70" y1="339.19" x2="227.51" y2="337.85"/><line x1="200.58" y1="136.45" x2="162.90" y2="138.13"/><line x1="249.16" y1="285.34" x2="250.54" y2="286.79"/><line x1="196.37" y1="155.05" x2="183.25" y2="162.48"/><line x1="266.62" y1="298.72" x2="268.54" y2="299.50"/><line x1="227.28" y1="336.33" x2="227.00" y2="334.63"/><line x1="203.58" y1="361.58" x2="229.10" y2="356.80"/><line x1="197.38" y1="231.84" x2="198.87" y2="232.19"/><line x1="312.67" y1="261.80" x2="312.99" y2="259.49"/><line x1="177.48" y1="245.62" x2="177.45" y2="244.95"/><line x1="187.60" y1="301.27" x2="187.02" y2="299.69"/><line x1="229.90" y1="360.93" x2="212.41" y2="375.32"/><line x1="190.93" y1="84.58" x2="190.08" y2="85.49"/><line x1="199.01" y1="142.09" x2="178.51" y2="159.32"/><line x1="276.71" y1="130.87" x2="277.06" y2="131.33"/><line x1="194.72" y1="328.59" x2="194.09" y2="324.70"/><line x1="254.69" y1="291.01" x2="255.38" y2="291.67"/><line x1="185.36" y1="163.47" x2="196.22" y2="157.46"/><line x1="205.36" y1="368.35" x2="205.08" y2="367.52"/><line x1="32.16" y1="32.09" x2="32.16" y2="64.58"/><line x1="185.36" y1="163.47" x2="191.90" y2="163.83"/><line x1="292.48" y1="114.11" x2="299.71" y2="171.67"/><line x1="231.57" y1="267.33" x2="232.30" y2="268.03"/><line x1="219.74" y1="378.13" x2="232.25" y2="371.21"/><line x1="215.00" y1="76.09" x2="243.87" y2="78.78"/><line x1="179.44" y1="253.41" x2="179.13" y2="252.36"/><line x1="338.04" y1="310.06" x2="348.03" y2="261.41"/><line x1="307.88" y1="280.30" x2="308.71" y2="277.99"/><line x1="262.20" y1="88.38" x2="263.68" y2="89.30"/><line x1="338.04" y1="310.06" x2="308.71" y2="277.99"/><line x1="338.04" y1="310.06" x2="318.76" y2="146.97"/><line x1="338.04" y1="310.06" x2="313.25" y2="257.18"/><line x1="295.88" y1="299.09" x2="296.90" y2="298.48"/><line x1="222.70" y1="289.67" x2="183.41" y2="280.05"/><line x1="258.67" y1="315.89" x2="257.21" y2="314.79"/><line x1="197.70" y1="341.03" x2="226.67" y2="332.76"/><line x1="338.04" y1="310.06" x2="313.03" y2="238.54"/><line x1="220.97" y1="382.38" x2="220.60" y2="381.45"/><line x1="343.56" y1="298.96" x2="343.21" y2="299.88"/><line x1="274.68" y1="97.15" x2="274.24" y2="96.61"/><line x1="298.55" y1="169.73" x2="297.89" y2="168.68"/><line x1="207.10" y1="236.41" x2="208.35" y2="237.48"/><line x1="168.78" y1="119.79" x2="167.97" y2="121.65"/><line x1="218.44" y1="377.71" x2="231.16" y2="365.87"/><line x1="254.30" y1="83.81" x2="173.77" y2="108.35"/><line x1="267.89" y1="92.04" x2="251.91" y2="105.36"/><line x1="200.58" y1="136.45" x2="164.58" y2="130.41"/><line x1="249.16" y1="285.34" x2="228.58" y2="291.13"/><line x1="184.69" y1="290.81" x2="222.42" y2="290.51"/><line x1="285.78" y1="302.01" x2="287.19" y2="301.85"/><line x1="200.58" y1="136.45" x2="199.01" y2="142.09"/><line x1="183.44" y1="93.37" x2="182.08" y2="95.08"/><line x1="248.52" y1="80.84" x2="190.93" y2="84.58"/><line x1="264.74" y1="297.83" x2="266.62" y2="298.72"/><line x1="319.64" y1="326.95" x2="321.06" y2="326.17"/><line x1="194.04" y1="162.54" x2="193.40" y2="163.06"/><line x1="248.52" y1="80.84" x2="180.61" y2="96.87"/><line x1="171.55" y1="114.45" x2="210.59" y2="114.43"/><line x1="221.24" y1="308.52" x2="222.89" y2="293.53"/><line x1="312.30" y1="264.11" x2="312.67" y2="261.80"/><line x1="227.89" y1="342.42" x2="227.84" y2="340.36"/><line x1="251.91" y1="105.36" x2="250.27" y2="104.52"/><line x1="214.09" y1="376.08" x2="213.21" y2="375.69"/><line x1="301.24" y1="294.27" x2="301.80" y2="293.41"/><line x1="185.36" y1="163.47" x2="195.06" y2="161.20"/><line x1="309.23" y1="330.32" x2="310.45" y2="330.19"/><line x1="345.70" y1="291.59" x2="348.15" y2="264.49"/><line x1="292.48" y1="114.11" x2="301.67" y2="179.42"/><line x1="219.74" y1="378.13" x2="232.85" y2="375.91"/><line x1="215.00" y1="76.09" x2="238.31" y2="76.66"/><line x1="185.36" y1="163.47" x2="187.28" y2="164.06"/><line x1="292.48" y1="114.11" x2="298.55" y2="169.73"/><line x1="219.74" y1="378.13" x2="218.44" y2="377.71"/><line x1="215.00" y1="76.09" x2="248.52" y2="80.84"/><line x1="279.75" y1="327.47" x2="277.53" y2="326.60"/><line x1="338.04" y1="310.06" x2="336.75" y2="187.11"/><line x1="338.04" y1="310.06" x2="305.36" y2="286.41"/><line x1="163.97" y1="132.33" x2="163.50" y2="134.06"/><line x1="338.04" y1="310.06" x2="311.36" y2="268.74"/><line x1="338.04" y1="310.06" x2="313.71" y2="247.93"/><line x1="294.80" y1="299.65" x2="295.88" y2="299.09"/><line x1="224.95" y1="386.39" x2="224.23" y2="386.08"/><line x1="252.51" y1="82.83" x2="253.42" y2="83.33"/><line x1="329.69" y1="319.99" x2="330.97" y2="318.76"/><line x1="254.30" y1="83.81" x2="175.98" y2="103.12"/><line x1="254.30" y1="83.81" x2="255.95" y2="84.73"/><line x1="323.04" y1="154.40" x2="318.76" y2="146.97"/><line x1="200.58" y1="136.45" x2="162.97" y2="136.97"/><line x1="249.16" y1="285.34" x2="234.64" y2="296.04"/><line x1="196.37" y1="155.05" x2="180.97" y2="161.10"/><line x1="201.52" y1="351.33" x2="201.24" y2="350.21"/><line x1="313.71" y1="247.93" x2="313.68" y2="246.74"/><line x1="227.28" y1="336.33" x2="198.55" y2="343.37"/><line x1="248.52" y1="80.84" x2="194.22" y2="81.63"/><line x1="231.08" y1="385.12" x2="227.45" y2="386.79"/><line x1="239.78" y1="101.34" x2="237.99" y2="101.12"/><line x1="248.52" y1="80.84" x2="187.09" y2="88.92"/><line x1="171.55" y1="114.45" x2="224.27" y2="102.84"/><line x1="318.25" y1="327.66" x2="319.64" y2="326.95"/><line x1="258.84" y1="110.24" x2="258.04" y2="109.60"/><line x1="292.48" y1="114.11" x2="297.27" y2="167.60"/><line x1="221.24" y1="308.52" x2="191.34" y2="311.10"/><line x1="348.15" y1="264.49" x2="342.87" y2="300.62"/><line x1="245.12" y1="79.31" x2="246.31" y2="79.82"/><line x1="229.48" y1="359.03" x2="204.28" y2="364.76"/><line x1="32.00" y1="479.98" x2="64.49" y2="479.98"/><line x1="277.94" y1="100.38" x2="279.12" y2="101.45"/><line x1="171.55" y1="114.45" x2="170.93" y2="115.47"/><line x1="170.93" y1="115.47" x2="170.27" y2="116.70"/><line x1="313.68" y1="246.74" x2="313.60" y2="245.20"/><line x1="164.76" y1="144.46" x2="199.01" y2="142.09"/><line x1="345.70" y1="291.59" x2="349.35" y2="271.63"/><line x1="338.04" y1="310.06" x2="295.88" y2="299.09"/><line x1="185.36" y1="163.47" x2="192.69" y2="163.49"/><line x1="300.68" y1="295.04" x2="301.24" y2="294.27"/><line x1="292.48" y1="114.11" x2="299.87" y2="172.09"/><line x1="215.00" y1="76.09" x2="242.57" y2="78.26"/><line x1="338.04" y1="310.06" x2="302.38" y2="292.45"/><line x1="338.04" y1="310.06" x2="343.29" y2="215.01"/><line x1="338.04" y1="310.06" x2="307.88" y2="280.30"/><line x1="338.04" y1="310.06" x2="312.99" y2="259.49"/><line x1="338.04" y1="310.06" x2="313.28" y2="241.11"/><line x1="312.39" y1="232.40" x2="308.07" y2="199.93"/><line x1="222.49" y1="290.21" x2="222.58" y2="289.92"/><line x1="178.51" y1="159.32" x2="180.97" y2="161.10"/><line x1="254.30" y1="83.81" x2="174.35" y2="106.83"/><line x1="203.80" y1="362.68" x2="203.58" y2="361.58"/><line x1="200.58" y1="136.45" x2="165.32" y2="128.30"/><line x1="249.16" y1="285.34" x2="226.84" y2="289.86"/><line x1="344.76" y1="224.96" x2="348.09" y2="258.22"/><line x1="201.52" y1="351.33" x2="228.58" y2="352.81"/><line x1="171.55" y1="114.45" x2="257.57" y2="85.64"/><line x1="177.56" y1="246.38" x2="177.48" y2="245.62"/><line x1="200.58" y1="136.45" x2="164.76" y2="144.46"/><line x1="308.07" y1="199.93" x2="304.59" y2="188.83"/><line x1="234.64" y1="296.04" x2="335.81" y2="313.23"/><line x1="248.52" y1="80.84" x2="191.72" y2="83.78"/><line x1="292.48" y1="114.11" x2="277.42" y2="131.81"/><line x1="248.52" y1="80.84" x2="182.08" y2="95.08"/><line x1="292.48" y1="114.11" x2="291.71" y2="154.01"/><line x1="348.15" y1="264.49" x2="344.77" y2="295.09"/><line x1="221.24" y1="308.52" x2="194.72" y2="328.59"/><line x1="171.55" y1="114.45" x2="213.01" y2="111.28"/><line x1="229.48" y1="359.03" x2="205.68" y2="369.14"/><line x1="348.15" y1="264.49" x2="339.09" y2="308.33"/><line x1="221.24" y1="308.52" x2="223.07" y2="294.25"/><line x1="204.15" y1="126.40" x2="202.30" y2="131.22"/><line x1="230.81" y1="266.57" x2="231.57" y2="267.33"/><line x1="262.67" y1="114.00" x2="263.81" y2="115.22"/><line x1="292.48" y1="114.11" x2="298.39" y2="120.12"/><line x1="214.09" y1="376.08" x2="229.90" y2="360.93"/><line x1="225.00" y1="288.58" x2="233.65" y2="269.29"/><line x1="338.04" y1="310.06" x2="289.89" y2="301.36"/><line x1="190.57" y1="231.47" x2="192.70" y2="231.39"/><line x1="326.99" y1="162.11" x2="323.04" y2="154.40"/><line x1="345.70" y1="291.59" x2="348.28" y2="265.98"/><line x1="305.36" y1="286.41" x2="305.97" y2="284.99"/><line x1="183.58" y1="282.36" x2="222.70" y2="289.67"/><line x1="338.04" y1="310.06" x2="299.59" y2="296.30"/><line x1="292.48" y1="114.11" x2="304.59" y2="188.83"/><line x1="292.48" y1="114.11" x2="299.23" y2="170.77"/><line x1="338.04" y1="310.06" x2="304.74" y2="287.77"/><line x1="241.57" y1="101.65" x2="239.78" y2="101.34"/><line x1="183.28" y1="277.68" x2="181.59" y2="265.92"/><line x1="273.04" y1="95.70" x2="274.68" y2="97.15"/><line x1="338.04" y1="310.06" x2="310.79" y2="271.05"/><line x1="348.09" y1="258.22" x2="348.04" y2="259.83"/><line x1="228.43" y1="351.32" x2="228.29" y2="349.72"/><line x1="338.04" y1="310.06" x2="313.68" y2="250.24"/><line x1="222.37" y1="291.21" x2="187.02" y2="299.69"/><line x1="250.54" y1="286.79" x2="251.78" y2="288.08"/><line x1="243.87" y1="78.78" x2="245.12" y2="79.31"/><line x1="179.37" y1="236.99" x2="180.21" y2="235.81"/><line x1="221.40" y1="383.21" x2="220.97" y2="382.38"/><line x1="234.64" y1="296.04" x2="255.38" y2="291.67"/><line x1="232.45" y1="382.06" x2="222.37" y2="384.63"/><line x1="254.30" y1="83.81" x2="176.55" y2="102.23"/><line x1="180.17" y1="256.11" x2="179.97" y2="255.28"/><line x1="234.64" y1="296.04" x2="270.49" y2="300.20"/><line x1="279.11" y1="134.11" x2="279.58" y2="134.80"/><line x1="254.30" y1="83.81" x2="171.55" y2="114.45"/><line x1="223.47" y1="295.63" x2="223.68" y2="296.29"/><line x1="175.98" y1="103.12" x2="175.59" y2="103.83"/><line x1="201.52" y1="351.33" x2="228.06" y2="346.25"/><line x1="171.55" y1="114.45" x2="263.68" y2="89.30"/><line x1="235.42" y1="270.79" x2="249.16" y2="285.34"/><line x1="248.52" y1="80.84" x2="194.69" y2="81.36"/><line x1="292.48" y1="114.11" x2="275.82" y2="129.58"/><line x1="234.64" y1="296.04" x2="329.69" y2="319.99"/><line x1="210.36" y1="374.22" x2="209.77" y2="373.87"/><line x1="248.52" y1="80.84" x2="188.16" y2="87.66"/><line x1="292.48" y1="114.11" x2="279.11" y2="134.11"/><line x1="279.58" y1="134.80" x2="280.08" y2="135.54"/><line x1="171.55" y1="114.45" x2="227.47" y2="101.78"/><line x1="201.76" y1="233.19" x2="203.14" y2="233.83"/><line x1="349.76" y1="272.97" x2="345.70" y2="291.59"/><line x1="229.48" y1="359.03" x2="207.76" y2="372.36"/><line x1="292.48" y1="114.11" x2="296.68" y2="166.49"/><line x1="221.24" y1="308.52" x2="192.08" y2="314.03"/><line x1="223.23" y1="289.06" x2="223.45" y2="288.91"/><line x1="348.15" y1="264.49" x2="343.21" y2="299.88"/><line x1="229.48" y1="359.03" x2="204.53" y2="365.72"/><line x1="32.00" y1="479.98" x2="32.00" y2="447.50"/><line x1="221.24" y1="308.52" x2="222.37" y2="291.21"/><line x1="180.61" y1="96.87" x2="250.59" y2="81.85"/><line x1="175.59" y1="103.83" x2="175.26" y2="104.57"/><line x1="180.46" y1="257.54" x2="180.33" y2="256.86"/><line x1="185.96" y1="296.35" x2="185.49" y2="294.57"/><line x1="259.69" y1="111.01" x2="260.61" y2="111.89"/><line x1="225.00" y1="288.58" x2="224.88" y2="260.48"/><line x1="200.68" y1="348.26" x2="227.89" y2="342.42"/><line x1="281.98" y1="328.25" x2="279.75" y2="327.47"/><line x1="338.04" y1="310.06" x2="282.84" y2="302.13"/><line x1="226.56" y1="386.74" x2="225.73" y2="386.61"/><line x1="225.00" y1="288.58" x2="249.16" y2="285.34"/><line x1="345.70" y1="291.59" x2="350.22" y2="274.27"/><line x1="194.69" y1="81.36" x2="194.22" y2="81.63"/><line x1="338.04" y1="310.06" x2="294.80" y2="299.65"/><line x1="292.48" y1="114.11" x2="300.04" y2="172.56"/><line x1="188.61" y1="231.67" x2="190.57" y2="231.47"/><line x1="338.04" y1="310.06" x2="301.80" y2="293.41"/><line x1="226.28" y1="330.71" x2="225.85" y2="328.48"/><line x1="232.91" y1="377.17" x2="219.74" y2="378.13"/><line x1="221.22" y1="104.32" x2="218.33" y2="106.21"/><line x1="338.04" y1="310.06" x2="307.24" y2="281.93"/><line x1="178.42" y1="250.12" x2="178.12" y2="249.08"/><line x1="295.59" y1="164.22" x2="296.12" y2="165.37"/><line x1="328.39" y1="321.16" x2="329.69" y2="319.99"/><line x1="222.37" y1="291.21" x2="190.56" y2="308.48"/><line x1="276.53" y1="301.65" x2="338.04" y2="310.06"/><line x1="230.78" y1="364.32" x2="230.36" y2="362.67"/><line x1="194.22" y1="81.63" x2="193.70" y2="82.01"/><line x1="222.37" y1="291.21" x2="222.38" y2="290.85"/><line x1="200.07" y1="346.65" x2="199.77" y2="345.98"/><line x1="228.86" y1="386.61" x2="230.60" y2="385.63"/><line x1="234.64" y1="296.04" x2="250.54" y2="286.79"/><line x1="222.49" y1="290.21" x2="183.79" y2="284.59"/><line x1="207.27" y1="371.81" x2="206.82" y2="371.21"/><line x1="234.64" y1="296.04" x2="261.11" y2="295.83"/><line x1="178.51" y1="159.32" x2="196.37" y2="155.05"/><line x1="199.77" y1="345.98" x2="199.44" y2="345.40"/><line x1="296.12" y1="165.37" x2="296.68" y2="166.49"/><line x1="348.28" y1="265.98" x2="348.15" y2="264.49"/><line x1="234.64" y1="296.04" x2="310.45" y2="330.19"/><line x1="304.74" y1="287.77" x2="305.36" y2="286.41"/><line x1="224.64" y1="288.59" x2="180.17" y2="256.11"/><line x1="344.76" y1="224.96" x2="348.19" y2="256.57"/><line x1="201.52" y1="351.33" x2="228.74" y2="354.23"/><line x1="171.55" y1="114.45" x2="255.95" y2="84.73"/><line x1="234.64" y1="296.04" x2="322.52" y2="325.31"/><line x1="234.64" y1="296.04" x2="334.64" y2="314.71"/><line x1="276.90" y1="99.41" x2="262.67" y2="114.00"/><line x1="248.52" y1="80.84" x2="192.44" y2="83.08"/><line x1="292.48" y1="114.11" x2="277.06" y2="131.33"/><line x1="266.60" y1="321.16" x2="264.44" y2="319.86"/><line x1="292.48" y1="114.11" x2="285.03" y2="143.94"/><line x1="348.15" y1="264.49" x2="345.23" y2="293.43"/><line x1="229.48" y1="359.03" x2="206.02" y2="369.87"/><line x1="348.15" y1="264.49" x2="340.10" y2="306.54"/><line x1="200.33" y1="232.64" x2="201.76" y2="233.19"/><line x1="299.87" y1="172.09" x2="299.71" y2="171.67"/><line x1="225.00" y1="288.58" x2="195.86" y2="231.60"/><line x1="204.15" y1="126.40" x2="170.93" y2="115.47"/><line x1="262.67" y1="114.00" x2="277.94" y2="100.38"/><line x1="225.00" y1="288.58" x2="208.35" y2="237.48"/><line x1="348.19" y1="256.57" x2="348.09" y2="258.22"/><line x1="225.00" y1="288.58" x2="232.99" y2="268.69"/><line x1="338.04" y1="310.06" x2="288.56" y2="301.64"/><line x1="292.48" y1="114.11" x2="308.07" y2="199.93"/><line x1="345.70" y1="291.59" x2="348.47" y2="267.44"/><line x1="189.16" y1="86.52" x2="188.16" y2="87.66"/><line x1="338.04" y1="310.06" x2="298.76" y2="297.08"/><line x1="299.71" y1="171.67" x2="299.55" y2="171.31"/><line x1="231.88" y1="383.82" x2="232.19" y2="383.00"/><line x1="338.04" y1="310.06" x2="304.14" y2="289.06"/><line x1="183.28" y1="277.68" x2="223.02" y2="289.23"/><line x1="196.04" y1="158.52" x2="195.79" y2="159.50"/><line x1="196.89" y1="338.38" x2="196.13" y2="335.42"/><line x1="348.09" y1="258.22" x2="338.04" y2="310.06"/><line x1="278.60" y1="301.91" x2="280.71" y2="302.08"/><line x1="309.47" y1="275.68" x2="310.16" y2="273.36"/><line x1="222.37" y1="291.21" x2="187.60" y2="301.27"/><line x1="228.06" y1="346.25" x2="227.97" y2="344.38"/><line x1="191.34" y1="311.10" x2="190.56" y2="308.48"/><line x1="265.11" y1="90.22" x2="266.52" y2="91.13"/><line x1="217.23" y1="377.29" x2="216.10" y2="376.88"/><line x1="257.62" y1="293.49" x2="259.34" y2="294.70"/><line x1="234.64" y1="296.04" x2="254.69" y2="291.01"/><line x1="232.45" y1="382.06" x2="222.94" y2="385.20"/><line x1="255.64" y1="313.56" x2="253.94" y2="312.23"/><line x1="234.64" y1="296.04" x2="268.54" y2="299.50"/><line x1="184.34" y1="288.81" x2="184.05" y2="286.73"/><line x1="342.87" y1="300.62" x2="341.99" y2="302.67"/><line x1="310.16" y1="273.36" x2="310.79" y2="271.05"/><line x1="234.64" y1="296.04" x2="315.56" y2="328.84"/><line x1="348.06" y1="262.97" x2="348.15" y2="264.49"/><line x1="344.76" y1="224.96" x2="343.29" y2="215.01"/><line x1="171.55" y1="114.45" x2="262.20" y2="88.38"/><line x1="179.33" y1="98.48" x2="178.22" y2="99.91"/><line x1="219.98" y1="379.33" x2="232.91" y2="377.17"/><line x1="167.10" y1="123.72" x2="200.58" y2="136.45"/><line x1="229.10" y1="356.80" x2="228.92" y2="355.56"/><line x1="292.48" y1="114.11" x2="275.58" y2="129.18"/><line x1="234.64" y1="296.04" x2="328.39" y2="321.16"/><line x1="292.48" y1="114.11" x2="278.65" y2="133.47"/><line x1="288.56" y1="301.64" x2="289.89" y2="301.36"/><line x1="229.48" y1="359.03" x2="208.28" y2="372.87"/><line x1="292.48" y1="114.11" x2="296.12" y2="165.37"/><line x1="348.15" y1="264.49" x2="343.56" y2="298.96"/><line x1="180.61" y1="96.87" x2="249.57" y2="81.34"/><line x1="229.48" y1="359.03" x2="204.80" y2="366.65"/><line x1="225.00" y1="288.58" x2="186.80" y2="232.01"/><line x1="180.46" y1="257.54" x2="224.30" y2="288.63"/><line x1="225.00" y1="288.58" x2="201.76" y2="233.19"/><line x1="207.76" y1="372.36" x2="207.27" y2="371.81"/><line x1="192.69" y1="163.49" x2="191.90" y2="163.83"/><line x1="225.00" y1="288.58" x2="218.20" y2="250.72"/><line x1="338.04" y1="310.06" x2="280.71" y2="302.08"/><line x1="289.89" y1="301.36" x2="291.19" y2="301.03"/><line x1="225.00" y1="288.58" x2="235.42" y2="270.79"/><line x1="338.04" y1="310.06" x2="293.65" y2="300.16"/><line x1="312.99" y1="259.49" x2="313.25" y2="257.18"/><line x1="227.84" y1="340.36" x2="227.70" y2="339.19"/><line x1="230.06" y1="386.05" x2="228.86" y2="386.61"/><line x1="276.53" y1="301.65" x2="278.60" y2="301.91"/><line x1="311.69" y1="329.97" x2="312.96" y2="329.68"/><line x1="227.51" y1="337.85" x2="199.77" y2="345.98"/><line x1="273.04" y1="95.70" x2="271.81" y2="94.78"/><line x1="178.22" y1="99.91" x2="177.30" y2="101.16"/><line x1="313.25" y1="257.18" x2="313.45" y2="254.87"/><line x1="222.37" y1="291.21" x2="185.49" y2="294.57"/><line x1="228.86" y1="386.61" x2="229.49" y2="386.38"/><line x1="232.57" y1="373.36" x2="232.43" y2="372.33"/><line x1="291.05" y1="330.56" x2="288.76" y2="330.11"/><line x1="234.64" y1="296.04" x2="259.34" y2="294.70"/><line x1="312.96" y1="329.68" x2="314.24" y2="329.30"/><line x1="229.69" y1="360.02" x2="229.48" y2="359.03"/><line x1="199.77" y1="345.98" x2="227.28" y2="336.33"/><line x1="234.64" y1="296.04" x2="276.53" y2="301.65"/><line x1="234.64" y1="296.04" x2="309.23" y2="330.32"/><line x1="181.59" y1="265.92" x2="180.46" y2="257.54"/><line x1="234.64" y1="296.04" x2="321.06" y2="326.17"/><line x1="275.28" y1="97.80" x2="258.84" y2="110.24"/><line x1="232.43" y1="372.33" x2="232.25" y2="371.21"/><line x1="234.64" y1="296.04" x2="333.45" y2="316.12"/><line x1="205.08" y1="367.52" x2="204.80" y2="366.65"/><line x1="292.48" y1="114.11" x2="276.71" y2="130.87"/><line x1="270.53" y1="93.87" x2="269.23" y2="92.96"/><line x1="297.86" y1="297.80" x2="298.76" y2="297.08"/><line x1="186.46" y1="298.05" x2="185.96" y2="296.35"/><line x1="225.00" y1="288.58" x2="177.69" y2="247.20"/><line x1="225.00" y1="288.58" x2="180.21" y2="235.81"/><line x1="231.50" y1="384.52" x2="231.88" y2="383.82"/><line x1="225.00" y1="288.58" x2="194.29" y2="231.45"/><line x1="255.93" y1="292.19" x2="257.62" y2="293.49"/><line x1="204.80" y1="366.65" x2="204.53" y2="365.72"/><line x1="225.00" y1="288.58" x2="207.10" y2="236.41"/><line x1="225.00" y1="288.58" x2="232.30" y2="268.03"/><line x1="343.21" y1="299.88" x2="342.87" y2="300.62"/><line x1="338.04" y1="310.06" x2="287.19" y2="301.85"/><line x1="313.46" y1="243.33" x2="313.28" y2="241.11"/><line x1="178.77" y1="251.24" x2="178.42" y2="250.12"/><line x1="231.88" y1="383.82" x2="226.56" y2="386.74"/><line x1="167.97" y1="121.65" x2="167.10" y2="123.72"/><line x1="231.16" y1="365.87" x2="217.23" y2="377.29"/><line x1="275.35" y1="128.80" x2="292.48" y2="114.11"/><line x1="196.89" y1="338.38" x2="226.28" y2="330.71"/><line x1="301.63" y1="329.23" x2="262.28" y2="318.50"/><line x1="182.08" y1="95.08" x2="180.61" y2="96.87"/><line x1="301.63" y1="329.23" x2="308.04" y2="330.36"/><line x1="343.29" y1="215.01" x2="341.47" y2="205.39"/><line x1="191.34" y1="311.10" x2="222.37" y2="291.21"/><line x1="209.56" y1="238.66" x2="210.74" y2="239.95"/><line x1="217.23" y1="377.29" x2="230.78" y2="364.32"/><line x1="193.40" y1="163.06" x2="192.69" y2="163.49"/><line x1="234.64" y1="296.04" x2="253.86" y2="290.19"/><line x1="230.36" y1="362.67" x2="229.90" y2="360.93"/><line x1="184.34" y1="288.81" x2="222.49" y2="290.21"/><line x1="234.64" y1="296.04" x2="314.24" y2="329.30"/><line x1="250.27" y1="104.52" x2="248.58" y2="103.76"/><line x1="224.23" y1="386.08" x2="223.56" y2="385.68"/><line x1="268.54" y1="299.50" x2="270.49" y2="300.20"/><line x1="179.33" y1="98.48" x2="253.42" y2="83.33"/><line x1="229.10" y1="356.80" x2="201.52" y2="351.33"/><line x1="310.45" y1="330.19" x2="311.69" y2="329.97"/><line x1="339.28" y1="196.09" x2="336.75" y2="187.11"/><line x1="225.00" y1="288.58" x2="179.13" y2="252.36"/><line x1="238.31" y1="76.66" x2="220.83" y2="74.59"/><line x1="177.45" y1="244.95" x2="177.53" y2="243.07"/><line x1="225.00" y1="288.58" x2="177.53" y2="243.07"/><line x1="248.58" y1="103.76" x2="246.86" y2="103.11"/><line x1="223.56" y1="385.68" x2="222.94" y2="385.20"/><line x1="225.00" y1="288.58" x2="185.17" y2="232.50"/><line x1="163.50" y1="134.06" x2="163.17" y2="135.60"/><line x1="270.49" y1="300.20" x2="272.48" y2="300.79"/><line x1="183.25" y1="162.48" x2="185.36" y2="163.47"/><line x1="225.00" y1="288.58" x2="200.33" y2="232.64"/><line x1="277.06" y1="131.33" x2="277.42" y2="131.81"/><line x1="269.23" y1="92.96" x2="267.89" y2="92.04"/><line x1="194.09" y1="324.70" x2="193.45" y2="320.83"/><line x1="253.42" y1="83.33" x2="178.22" y2="99.91"/><line x1="202.30" y1="131.22" x2="169.55" y2="118.13"/><line x1="232.30" y1="268.03" x2="232.99" y2="268.69"/><line x1="163.17" y1="135.60" x2="162.97" y2="136.97"/><line x1="213.21" y1="375.69" x2="212.41" y2="375.32"/><line x1="301.63" y1="329.23" x2="291.05" y2="330.56"/><line x1="277.42" y1="131.81" x2="277.81" y2="132.32"/><line x1="222.38" y1="290.85" x2="222.42" y2="290.51"/><line x1="318.76" y1="146.97" x2="314.16" y2="139.83"/><line x1="301.63" y1="329.23" x2="273.14" y2="324.63"/><line x1="296.90" y1="298.48" x2="297.86" y2="297.80"/><line x1="183.41" y1="280.05" x2="183.28" y2="277.68"/><line x1="301.63" y1="329.23" x2="257.21" y2="314.79"/><line x1="178.22" y1="99.91" x2="254.30" y2="83.81"/><line x1="64.64" y1="32.09" x2="32.16" y2="64.58"/><line x1="237.99" y1="101.12" x2="236.18" y2="100.98"/><line x1="232.79" y1="379.85" x2="220.27" y2="380.43"/><line x1="232.99" y1="268.69" x2="233.65" y2="269.29"/><line x1="267.89" y1="92.04" x2="236.18" y2="100.98"/><line x1="291.05" y1="330.56" x2="293.35" y2="330.92"/><line x1="228.16" y1="348.03" x2="228.06" y2="346.25"/><line x1="314.16" y1="139.83" x2="309.23" y2="132.97"/><line x1="246.31" y1="79.82" x2="247.43" y2="80.33"/><line x1="313.60" y1="245.20" x2="313.46" y2="243.33"/><line x1="181.21" y1="234.78" x2="182.37" y2="233.88"/><line x1="234.64" y1="296.04" x2="308.04" y2="330.36"/><line x1="198.55" y1="343.37" x2="197.70" y2="341.03"/><line x1="236.18" y1="100.98" x2="234.36" y2="100.94"/><line x1="181.59" y1="265.92" x2="223.71" y2="288.79"/><line x1="199.01" y1="142.09" x2="166.21" y2="146.82"/><line x1="209.23" y1="373.53" x2="208.73" y2="373.20"/><line x1="275.28" y1="97.80" x2="271.81" y2="94.78"/><line x1="280.08" y1="135.54" x2="280.61" y2="136.32"/><line x1="275.28" y1="97.80" x2="276.02" y2="98.55"/><line x1="321.06" y1="326.17" x2="322.52" y2="325.31"/><line x1="223.27" y1="294.96" x2="223.07" y2="294.25"/><line x1="270.53" y1="93.87" x2="258.04" y2="109.60"/><line x1="223.71" y1="288.79" x2="223.99" y2="288.69"/><line x1="247.43" y1="80.33" x2="248.52" y2="80.84"/><line x1="225.00" y1="288.58" x2="177.88" y2="248.10"/><line x1="175.26" y1="104.57" x2="174.84" y2="105.58"/><line x1="182.37" y1="233.88" x2="183.69" y2="233.12"/><line x1="225.00" y1="288.58" x2="179.37" y2="236.99"/><line x1="226.84" y1="289.86" x2="228.58" y2="291.13"/><line x1="258.04" y1="109.60" x2="256.57" y2="108.41"/><line x1="166.21" y1="146.82" x2="168.08" y2="149.28"/><line x1="225.00" y1="288.58" x2="192.70" y2="231.39"/><line x1="200.37" y1="347.41" x2="200.07" y2="346.65"/><line x1="280.61" y1="136.32" x2="285.03" y2="143.94"/><line x1="297.27" y1="167.60" x2="297.89" y2="168.68"/><line x1="338.04" y1="310.06" x2="298.39" y2="120.12"/><line x1="301.80" y1="293.41" x2="302.38" y2="292.45"/><line x1="204.03" y1="363.74" x2="203.80" y2="362.68"/><line x1="338.04" y1="310.06" x2="348.15" y2="264.49"/><line x1="174.84" y1="105.58" x2="174.35" y2="106.83"/><line x1="218.33" y1="106.21" x2="215.59" y2="108.54"/><line x1="228.58" y1="291.13" x2="230.23" y2="292.38"/><line x1="202.30" y1="131.22" x2="200.58" y2="136.45"/><line x1="277.53" y1="326.60" x2="275.33" y2="325.65"/><line x1="301.63" y1="329.23" x2="284.22" y2="328.96"/><line x1="349.35" y1="271.63" x2="349.01" y2="270.27"/><line x1="302.38" y1="292.45" x2="302.96" y2="291.41"/><line x1="301.63" y1="329.23" x2="264.44" y2="319.86"/><line x1="304.59" y1="188.83" x2="301.67" y2="179.42"/><line x1="267.89" y1="92.04" x2="245.11" y2="102.53"/><line x1="301.63" y1="329.23" x2="235.92" y2="297.23"/><line x1="225.85" y1="328.48" x2="221.24" y2="308.52"/><line x1="215.59" y1="108.54" x2="213.01" y2="111.28"/><line x1="269.23" y1="92.96" x2="256.57" y2="108.41"/><line x1="330.97" y1="318.76" x2="332.22" y2="317.47"/><line x1="230.36" y1="362.67" x2="214.09" y2="376.08"/><line x1="179.97" y1="255.28" x2="179.72" y2="254.38"/><line x1="193.10" y1="82.49" x2="192.44" y2="83.08"/><line x1="301.67" y1="179.42" x2="300.36" y2="173.68"/><line x1="230.60" y1="385.63" x2="231.08" y2="385.12"/><line x1="194.29" y1="231.45" x2="195.86" y2="231.60"/><line x1="180.97" y1="161.10" x2="183.25" y2="162.48"/><line x1="229.90" y1="360.93" x2="213.21" y2="375.69"/><line x1="199.01" y1="142.09" x2="175.87" y2="157.14"/><line x1="332.22" y1="317.47" x2="333.45" y2="316.12"/><line x1="305.97" y1="284.99" x2="306.60" y2="283.49"/><line x1="225.00" y1="288.58" x2="179.44" y2="253.41"/><line x1="257.57" y1="85.64" x2="259.14" y2="86.55"/><line x1="32.16" y1="32.09" x2="64.64" y2="32.09"/><line x1="225.00" y1="288.58" x2="177.45" y2="244.95"/><line x1="219.74" y1="378.13" x2="232.43" y2="372.33"/><line x1="263.81" y1="115.22" x2="265.00" y2="116.56"/><line x1="262.28" y1="318.50" x2="261.20" y2="317.75"/><line x1="228.29" y1="349.72" x2="228.16" y2="348.03"/><line x1="221.86" y1="383.96" x2="221.40" y2="383.21"/><line x1="185.49" y1="294.57" x2="185.07" y2="292.72"/><line x1="338.04" y1="310.06" x2="323.04" y2="154.40"/><line x1="306.60" y1="283.49" x2="307.24" y2="281.93"/><line x1="299.55" y1="171.31" x2="299.39" y2="171.01"/><line x1="180.21" y1="235.81" x2="181.21" y2="234.78"/><line x1="202.30" y1="131.22" x2="170.27" y2="116.70"/><line x1="220.97" y1="382.38" x2="232.79" y2="379.85"/><line x1="348.04" y1="259.83" x2="348.03" y2="261.41"/><line x1="261.20" y1="317.75" x2="259.99" y2="316.87"/><line x1="280.71" y1="302.08" x2="282.84" y2="302.13"/><line x1="222.38" y1="290.85" x2="184.69" y2="290.81"/><line x1="301.63" y1="329.23" x2="275.33" y2="325.65"/><line x1="267.89" y1="92.04" x2="253.50" y2="106.29"/><line x1="232.19" y1="383.00" x2="232.45" y2="382.06"/><line x1="301.63" y1="329.23" x2="258.67" y2="315.89"/><line x1="299.39" y1="171.01" x2="299.23" y2="170.77"/><line x1="267.89" y1="92.04" x2="237.99" y2="101.12"/><line x1="232.79" y1="379.85" x2="220.60" y2="381.45"/><line x1="209.77" y1="373.87" x2="209.23" y2="373.53"/><line x1="196.13" y1="335.42" x2="195.40" y2="332.16"/><line x1="282.84" y1="302.13" x2="284.33" y2="302.10"/><line x1="223.45" y1="288.91" x2="223.71" y2="288.79"/><line x1="32.00" y1="447.50" x2="64.49" y2="479.98"/></g></svg>