<svg xmlns="http://www.w3.org/2000/svg" width="512" height="512"><rect width="512" height="512" fill="#0a0f1a"/><text x="12" y="20" font-family="monospace" font-size="11" fill="#4a7fa5">FRONT (XZ)</text><g stroke="#00d4ff" stroke-width="0.6" opacity="0.85"><line x1="198.08" y1="68.53" x2="198.91" y2="69.00"/><line x1="339.92" y1="284.71" x2="316.01" y2="273.16"/><line x1="301.00" y1="182.61" x2="323.35" y2="140.66"/><line x1="284.94" y1="116.17" x2="309.84" y2="93.57"/><line x1="180.81" y1="102.05" x2="200.31" y2="69.58"/><line x1="216.86" y1="87.76" x2="216.08" y2="88.74"/><line x1="270.02" y1="209.72" x2="291.89" y2="200.04"/><line x1="186.04" y1="63.73" x2="172.29" y2="84.43"/><line x1="178.77" y1="293.44" x2="179.54" y2="291.59"/><line x1="303.46" y1="208.77" x2="329.84" y2="221.49"/><line x1="281.25" y1="102.76" x2="299.89" y2="87.99"/><line x1="216.08" y1="88.74" x2="215.30" y2="89.71"/><line x1="207.17" y1="138.79" x2="229.70" y2="125.55"/><line x1="338.63" y1="326.23" x2="336.31" y2="326.58"/><line x1="285.32" y1="193.32" x2="258.22" y2="196.00"/><line x1="340.59" y1="296.43" x2="340.67" y2="295.74"/><line x1="285.32" y1="193.32" x2="268.78" y2="207.32"/><line x1="257.23" y1="307.55" x2="229.96" y2="289.06"/><line x1="172.29" y1="84.43" x2="186.80" y2="63.61"/><line x1="182.83" y1="103.94" x2="200.89" y2="69.69"/><line x1="341.13" y1="321.44" x2="333.33" y2="325.97"/><line x1="229.70" y1="125.55" x2="236.92" y2="173.80"/><line x1="307.61" y1="234.42" x2="303.46" y2="208.77"/><line x1="316.09" y1="273.89" x2="316.01" y2="273.16"/><line x1="337.17" y1="261.93" x2="313.66" y2="261.91"/><line x1="218.55" y1="324.14" x2="216.45" y2="323.05"/><line x1="200.89" y1="69.69" x2="203.41" y2="70.21"/><line x1="282.55" y1="108.44" x2="304.24" y2="89.91"/><line x1="213.22" y1="93.81" x2="213.16" y2="94.48"/><line x1="341.23" y1="313.26" x2="341.05" y2="312.31"/><line x1="339.92" y1="284.71" x2="315.21" y2="280.11"/><line x1="222.27" y1="295.43" x2="230.81" y2="328.11"/><line x1="178.70" y1="61.56" x2="175.46" y2="62.18"/><line x1="224.12" y1="294.31" x2="237.15" y2="327.38"/><line x1="339.92" y1="284.71" x2="316.03" y2="275.56"/><line x1="190.07" y1="63.57" x2="190.98" y2="63.89"/><line x1="216.45" y1="323.05" x2="218.73" y2="296.71"/><line x1="332.42" y1="227.77" x2="332.24" y2="227.09"/><line x1="194.35" y1="284.44" x2="192.99" y2="283.51"/><line x1="339.92" y1="284.71" x2="315.21" y2="269.32"/><line x1="305.31" y1="204.02" x2="305.34" y2="203.30"/><line x1="284.94" y1="116.17" x2="316.78" y2="101.75"/><line x1="213.16" y1="94.48" x2="185.41" y2="106.70"/><line x1="341.05" y1="312.31" x2="340.84" y2="311.27"/><line x1="340.71" y1="292.74" x2="340.62" y2="291.65"/><line x1="334.14" y1="237.82" x2="333.78" y2="235.44"/><line x1="255.16" y1="311.74" x2="253.88" y2="314.07"/><line x1="190.98" y1="63.89" x2="191.95" y2="64.33"/><line x1="302.00" y1="187.59" x2="301.85" y2="186.84"/><line x1="207.87" y1="71.43" x2="184.55" y2="105.71"/><line x1="192.99" y1="283.51" x2="181.99" y2="285.99"/><line x1="329.50" y1="326.15" x2="328.61" y2="326.30"/><line x1="316.87" y1="299.02" x2="340.36" y2="298.02"/><line x1="303.46" y1="208.77" x2="303.96" y2="207.92"/><line x1="285.32" y1="193.32" x2="240.74" y2="177.99"/><line x1="340.62" y1="291.65" x2="340.49" y2="290.31"/><line x1="285.32" y1="193.32" x2="264.86" y2="202.50"/><line x1="314.56" y1="266.94" x2="337.17" y2="261.93"/><line x1="310.09" y1="241.32" x2="309.64" y2="239.66"/><line x1="216.69" y1="296.82" x2="216.18" y2="296.69"/><line x1="301.85" y1="186.84" x2="301.00" y2="182.61"/><line x1="184.55" y1="105.71" x2="184.98" y2="106.20"/><line x1="283.73" y1="90.85" x2="296.85" y2="86.71"/><line x1="281.47" y1="104.21" x2="281.35" y2="103.46"/><line x1="328.61" y1="326.30" x2="327.66" y2="326.45"/><line x1="307.61" y1="234.42" x2="297.35" y2="204.92"/><line x1="340.13" y1="307.91" x2="339.95" y2="306.92"/><line x1="289.69" y1="263.01" x2="245.34" y2="265.44"/><line x1="337.17" y1="261.93" x2="314.28" y2="265.85"/><line x1="181.34" y1="63.09" x2="173.23" y2="65.83"/><line x1="329.84" y1="221.49" x2="329.67" y2="220.82"/><line x1="172.69" y1="86.61" x2="198.08" y2="68.53"/><line x1="216.18" y1="296.69" x2="206.75" y2="317.13"/><line x1="337.17" y1="261.93" x2="311.90" y2="249.98"/><line x1="187.65" y1="279.95" x2="186.83" y2="279.28"/><line x1="281.35" y1="103.46" x2="281.25" y2="102.76"/><line x1="188.18" y1="111.50" x2="215.00" y2="101.48"/><line x1="339.95" y1="306.92" x2="339.81" y2="306.00"/><line x1="341.31" y1="320.30" x2="318.70" y2="319.86"/><line x1="339.92" y1="284.71" x2="315.48" y2="287.05"/><line x1="224.12" y1="294.31" x2="246.40" y2="322.93"/><line x1="339.92" y1="284.71" x2="315.52" y2="278.23"/><line x1="222.27" y1="295.43" x2="225.70" y2="327.12"/><line x1="329.67" y1="220.82" x2="329.53" y2="220.11"/><line x1="198.08" y1="68.53" x2="173.17" y2="88.71"/><line x1="308.10" y1="92.25" x2="306.23" y2="91.03"/><line x1="339.92" y1="284.71" x2="316.09" y2="273.89"/><line x1="186.83" y1="279.28" x2="186.22" y2="278.71"/><line x1="317.32" y1="302.39" x2="316.87" y2="299.02"/><line x1="285.82" y1="119.44" x2="285.73" y2="119.07"/><line x1="322.71" y1="326.28" x2="321.94" y2="325.96"/><line x1="284.94" y1="116.17" x2="311.46" y2="95.00"/><line x1="261.40" y1="199.01" x2="262.64" y2="200.22"/><line x1="240.69" y1="273.82" x2="268.54" y2="295.45"/><line x1="315.48" y1="287.05" x2="315.31" y2="284.70"/><line x1="332.87" y1="229.98" x2="332.63" y2="228.73"/><line x1="313.66" y1="261.91" x2="313.23" y2="258.62"/><line x1="246.40" y1="322.93" x2="244.68" y2="324.16"/><line x1="212.61" y1="295.26" x2="211.33" y2="294.68"/><line x1="285.73" y1="119.07" x2="285.62" y2="118.63"/><line x1="318.43" y1="313.33" x2="318.26" y2="310.97"/><line x1="295.25" y1="85.48" x2="294.80" y2="85.12"/><line x1="218.26" y1="108.02" x2="196.10" y2="124.09"/><line x1="321.94" y1="325.96" x2="321.26" y2="325.55"/><line x1="264.77" y1="223.29" x2="255.25" y2="244.55"/><line x1="339.64" y1="303.73" x2="339.65" y2="303.25"/><line x1="303.46" y1="208.77" x2="330.03" y2="222.14"/><line x1="316.87" y1="299.02" x2="316.42" y2="295.64"/><line x1="285.32" y1="193.32" x2="254.94" y2="192.80"/><line x1="235.10" y1="327.78" x2="232.99" y2="328.03"/><line x1="313.23" y1="258.62" x2="312.79" y2="255.54"/><line x1="305.00" y1="205.51" x2="305.19" y2="204.75"/><line x1="211.33" y1="294.68" x2="198.78" y2="288.51"/><line x1="267.04" y1="297.25" x2="257.98" y2="306.28"/><line x1="280.98" y1="99.87" x2="280.97" y2="99.42"/><line x1="339.65" y1="303.25" x2="339.69" y2="302.71"/><line x1="307.61" y1="234.42" x2="264.77" y2="223.29"/><line x1="315.26" y1="279.71" x2="315.32" y2="279.27"/><line x1="480.00" y1="32.02" x2="447.51" y2="32.02"/><line x1="269.52" y1="294.16" x2="268.54" y2="295.45"/><line x1="172.69" y1="86.61" x2="192.95" y2="64.90"/><line x1="305.19" y1="204.75" x2="305.31" y2="204.02"/><line x1="337.02" y1="326.70" x2="336.31" y2="326.58"/><line x1="243.00" y1="269.79" x2="240.69" y2="273.82"/><line x1="341.31" y1="320.30" x2="320.17" y2="324.44"/><line x1="268.78" y1="207.32" x2="269.28" y2="208.15"/><line x1="340.06" y1="299.83" x2="340.21" y2="298.93"/><line x1="234.10" y1="283.94" x2="232.01" y2="286.66"/><line x1="315.32" y1="279.27" x2="315.41" y2="278.78"/><line x1="339.92" y1="284.71" x2="315.18" y2="280.45"/><line x1="171.76" y1="79.80" x2="171.98" y2="82.16"/><line x1="222.27" y1="295.43" x2="232.99" y2="328.03"/><line x1="224.12" y1="294.31" x2="239.13" y2="326.82"/><line x1="339.92" y1="284.71" x2="315.96" y2="276.01"/><line x1="284.94" y1="116.17" x2="317.82" y2="103.70"/><line x1="318.02" y1="308.37" x2="317.70" y2="305.50"/><line x1="339.92" y1="284.71" x2="315.49" y2="270.42"/><line x1="318.87" y1="320.99" x2="318.70" y2="319.86"/><line x1="257.98" y1="306.28" x2="257.72" y2="306.71"/><line x1="334.14" y1="237.82" x2="310.09" y2="241.32"/><line x1="173.69" y1="64.88" x2="181.34" y2="63.09"/><line x1="340.63" y1="323.37" x2="340.90" y2="322.46"/><line x1="282.89" y1="92.66" x2="283.73" y2="90.85"/><line x1="203.14" y1="133.64" x2="205.11" y2="136.19"/><line x1="187.18" y1="109.60" x2="188.18" y2="111.50"/><line x1="316.87" y1="299.02" x2="340.21" y2="298.93"/><line x1="248.04" y1="321.53" x2="224.12" y2="294.31"/><line x1="305.16" y1="200.91" x2="305.06" y2="200.24"/><line x1="197.17" y1="67.94" x2="198.08" y2="68.53"/><line x1="307.61" y1="234.42" x2="270.39" y2="211.14"/><line x1="258.22" y1="196.00" x2="261.40" y2="199.01"/><line x1="308.80" y1="236.95" x2="308.39" y2="235.90"/><line x1="172.69" y1="86.61" x2="188.38" y2="63.32"/><line x1="307.61" y1="234.42" x2="308.00" y2="235.06"/><line x1="172.69" y1="86.61" x2="197.17" y2="67.94"/><line x1="341.31" y1="320.30" x2="331.74" y2="325.57"/><line x1="215.71" y1="75.63" x2="216.71" y2="76.66"/><line x1="341.31" y1="320.30" x2="323.56" y2="326.52"/><line x1="341.31" y1="320.30" x2="318.87" y2="320.99"/><line x1="270.64" y1="292.61" x2="240.69" y2="273.82"/><line x1="218.73" y1="296.71" x2="211.85" y2="320.40"/><line x1="172.22" y1="68.89" x2="171.99" y2="69.99"/><line x1="339.92" y1="284.71" x2="315.41" y2="278.78"/><line x1="200.31" y1="69.58" x2="200.89" y2="69.69"/><line x1="213.36" y1="96.44" x2="213.98" y2="98.77"/><line x1="216.71" y1="76.66" x2="217.54" y2="77.76"/><line x1="317.32" y1="302.39" x2="340.06" y2="299.83"/><line x1="284.94" y1="116.17" x2="312.97" y2="96.53"/><line x1="193.09" y1="119.68" x2="218.26" y2="108.02"/><line x1="299.89" y1="87.99" x2="281.05" y2="98.37"/><line x1="301.70" y1="207.95" x2="303.46" y2="208.77"/><line x1="240.69" y1="273.82" x2="269.52" y2="294.16"/><line x1="329.41" y1="219.37" x2="332.24" y2="208.64"/><line x1="171.99" y1="69.99" x2="171.81" y2="71.13"/><line x1="181.99" y1="285.99" x2="189.98" y2="281.57"/><line x1="183.69" y1="104.80" x2="184.12" y2="105.25"/><line x1="175.18" y1="94.41" x2="176.04" y2="96.10"/><line x1="318.43" y1="313.33" x2="340.34" y2="308.98"/><line x1="218.26" y1="108.02" x2="194.56" y2="121.85"/><line x1="264.77" y1="223.29" x2="298.18" y2="248.90"/><line x1="267.48" y1="205.53" x2="268.18" y2="206.44"/><line x1="235.10" y1="327.78" x2="222.27" y2="295.43"/><line x1="176.04" y1="96.10" x2="176.99" y2="97.67"/><line x1="281.81" y1="105.79" x2="281.63" y2="104.98"/><line x1="218.94" y1="83.53" x2="218.76" y2="84.29"/><line x1="319.10" y1="322.02" x2="318.87" y2="320.99"/><line x1="316.04" y1="292.52" x2="315.73" y2="289.67"/><line x1="268.18" y1="206.44" x2="268.78" y2="207.32"/><line x1="316.42" y1="295.64" x2="340.62" y2="291.65"/><line x1="480.00" y1="32.02" x2="480.00" y2="64.50"/><line x1="310.54" y1="243.18" x2="334.14" y2="237.82"/><line x1="183.84" y1="64.01" x2="171.76" y2="79.80"/><line x1="332.24" y1="208.64" x2="304.78" y2="198.79"/><line x1="172.69" y1="86.61" x2="191.95" y2="64.33"/><line x1="181.88" y1="298.82" x2="180.53" y2="297.59"/><line x1="323.35" y1="140.66" x2="320.69" y2="117.32"/><line x1="218.76" y1="84.29" x2="218.46" y2="85.10"/><line x1="341.31" y1="320.30" x2="328.61" y2="326.30"/><line x1="223.17" y1="116.03" x2="201.26" y2="131.16"/><line x1="243.00" y1="269.79" x2="270.64" y2="292.61"/><line x1="341.31" y1="320.30" x2="320.67" y2="325.04"/><line x1="340.06" y1="299.83" x2="316.87" y2="299.02"/><line x1="340.34" y1="288.71" x2="340.15" y2="286.84"/><line x1="480.00" y1="479.91" x2="480.00" y2="447.42"/><line x1="234.10" y1="283.94" x2="257.98" y2="306.28"/><line x1="198.91" y1="69.00" x2="199.65" y2="69.35"/><line x1="339.92" y1="284.71" x2="315.17" y2="280.74"/><line x1="171.76" y1="79.80" x2="184.56" y2="63.93"/><line x1="292.68" y1="145.71" x2="285.89" y2="119.74"/><line x1="305.24" y1="201.55" x2="305.16" y2="200.91"/><line x1="200.31" y1="69.58" x2="181.20" y2="102.40"/><line x1="318.54" y1="315.43" x2="318.43" y2="313.33"/><line x1="299.89" y1="87.99" x2="281.10" y2="101.47"/><line x1="340.31" y1="324.16" x2="340.63" y2="323.37"/><line x1="318.02" y1="308.37" x2="339.66" y2="304.41"/><line x1="201.26" y1="131.16" x2="203.14" y2="133.64"/><line x1="291.89" y1="200.04" x2="270.25" y2="210.45"/><line x1="315.96" y1="276.01" x2="316.03" y2="275.56"/><line x1="329.41" y1="219.37" x2="304.38" y2="207.09"/><line x1="186.80" y1="63.61" x2="187.58" y2="63.47"/><line x1="240.69" y1="273.82" x2="238.45" y2="277.52"/><line x1="225.70" y1="327.12" x2="224.10" y2="326.56"/><line x1="198.78" y1="288.51" x2="198.21" y2="287.78"/><line x1="181.20" y1="102.40" x2="181.60" y2="102.76"/><line x1="294.80" y1="85.12" x2="289.44" y2="82.51"/><line x1="215.30" y1="89.71" x2="214.65" y2="90.63"/><line x1="184.98" y1="106.20" x2="217.51" y2="86.83"/><line x1="341.53" y1="316.15" x2="341.51" y2="315.57"/><line x1="270.25" y1="210.45" x2="307.61" y2="234.42"/><line x1="184.98" y1="106.20" x2="213.16" y2="94.48"/><line x1="316.03" y1="275.56" x2="316.08" y2="275.17"/><line x1="447.51" y1="479.91" x2="480.00" y2="447.42"/><line x1="328.56" y1="183.13" x2="323.35" y2="140.66"/><line x1="333.15" y1="231.51" x2="308.80" y2="236.95"/><line x1="198.21" y1="287.78" x2="197.49" y2="287.01"/><line x1="309.84" y1="93.57" x2="308.10" y2="92.25"/><line x1="214.65" y1="90.63" x2="214.11" y2="91.49"/><line x1="341.51" y1="315.57" x2="341.45" y2="314.90"/><line x1="316.42" y1="295.64" x2="340.73" y2="295.13"/><line x1="257.00" y1="307.97" x2="256.78" y2="308.38"/><line x1="332.24" y1="208.64" x2="305.30" y2="202.17"/><line x1="308.80" y1="236.95" x2="332.87" y2="229.98"/><line x1="172.69" y1="86.61" x2="187.58" y2="63.47"/><line x1="332.24" y1="208.64" x2="302.61" y2="190.08"/><line x1="318.26" y1="310.97" x2="318.02" y2="308.37"/><line x1="172.69" y1="86.61" x2="196.18" y2="67.24"/><line x1="220.51" y1="111.84" x2="223.17" y2="116.03"/><line x1="341.31" y1="320.30" x2="332.54" y2="325.78"/><line x1="295.68" y1="85.82" x2="295.25" y2="85.48"/><line x1="233.58" y1="130.87" x2="237.88" y2="136.55"/><line x1="341.31" y1="320.30" x2="324.51" y2="326.65"/><line x1="340.73" y1="295.13" x2="340.77" y2="294.59"/><line x1="341.31" y1="320.30" x2="319.10" y2="322.02"/><line x1="174.81" y1="63.05" x2="174.21" y2="63.95"/><line x1="315.89" y1="272.34" x2="315.71" y2="271.43"/><line x1="218.73" y1="296.71" x2="214.21" y2="321.80"/><line x1="302.61" y1="190.08" x2="302.38" y2="189.21"/><line x1="183.26" y1="104.36" x2="183.69" y2="104.80"/><line x1="200.31" y1="69.58" x2="182.83" y2="103.94"/><line x1="213.36" y1="96.44" x2="186.27" y2="107.74"/><line x1="222.27" y1="295.43" x2="224.10" y2="326.56"/><line x1="332.54" y1="325.78" x2="331.74" y2="325.57"/><line x1="340.84" y1="311.27" x2="318.43" y2="313.33"/><line x1="317.32" y1="302.39" x2="339.93" y2="300.66"/><line x1="299.89" y1="87.99" x2="280.97" y2="99.42"/><line x1="226.02" y1="292.88" x2="251.11" y2="318.17"/><line x1="315.71" y1="271.43" x2="315.49" y2="270.42"/><line x1="282.20" y1="94.32" x2="282.89" y2="92.66"/><line x1="198.78" y1="288.51" x2="179.29" y2="296.40"/><line x1="329.41" y1="219.37" x2="305.31" y2="204.02"/><line x1="181.99" y1="285.99" x2="191.47" y2="282.52"/><line x1="317.70" y1="305.50" x2="317.32" y2="302.39"/><line x1="282.03" y1="106.64" x2="281.81" y2="105.79"/><line x1="184.98" y1="106.20" x2="219.00" y2="82.81"/><line x1="318.43" y1="313.33" x2="340.58" y2="310.12"/><line x1="184.98" y1="106.20" x2="214.65" y2="90.63"/><line x1="236.92" y1="173.80" x2="285.32" y2="193.32"/><line x1="340.49" y1="290.31" x2="316.04" y2="292.52"/><line x1="206.75" y1="317.13" x2="214.70" y2="296.15"/><line x1="330.73" y1="223.89" x2="330.47" y2="223.33"/><line x1="191.47" y1="282.52" x2="189.98" y2="281.57"/><line x1="327.66" y1="326.45" x2="326.63" y2="326.58"/><line x1="339.81" y1="306.00" x2="339.72" y2="305.17"/><line x1="289.44" y1="82.51" x2="290.22" y2="82.15"/><line x1="274.96" y1="286.43" x2="273.37" y2="288.75"/><line x1="316.04" y1="292.52" x2="340.34" y2="288.71"/><line x1="220.48" y1="296.23" x2="216.45" y2="323.05"/><line x1="316.42" y1="295.64" x2="340.71" y2="292.74"/><line x1="172.84" y1="66.81" x2="172.50" y2="67.83"/><line x1="314.28" y1="265.85" x2="314.06" y2="264.87"/><line x1="311.46" y1="95.00" x2="309.84" y2="93.57"/><line x1="332.24" y1="208.64" x2="304.93" y2="199.52"/><line x1="323.35" y1="140.66" x2="292.68" y2="145.71"/><line x1="326.63" y1="326.58" x2="325.53" y2="326.70"/><line x1="341.31" y1="320.30" x2="329.50" y2="326.15"/><line x1="243.00" y1="269.79" x2="271.94" y2="290.81"/><line x1="341.31" y1="320.30" x2="321.26" y2="325.55"/><line x1="308.39" y1="235.90" x2="332.24" y2="227.09"/><line x1="314.06" y1="264.87" x2="313.88" y2="263.98"/><line x1="480.00" y1="479.91" x2="447.51" y2="479.91"/><line x1="180.61" y1="289.10" x2="192.99" y2="283.51"/><line x1="198.91" y1="69.00" x2="174.42" y2="92.62"/><line x1="318.54" y1="315.43" x2="340.84" y2="311.27"/><line x1="299.89" y1="87.99" x2="281.16" y2="102.10"/><line x1="190.46" y1="115.48" x2="191.73" y2="117.55"/><line x1="318.02" y1="308.37" x2="339.72" y2="305.17"/><line x1="302.86" y1="190.99" x2="302.61" y2="190.08"/><line x1="299.89" y1="87.99" x2="297.54" y2="87.19"/><line x1="198.78" y1="288.51" x2="186.57" y2="302.74"/><line x1="329.41" y1="219.37" x2="303.96" y2="207.92"/><line x1="186.80" y1="63.61" x2="172.69" y2="86.61"/><line x1="185.83" y1="278.24" x2="185.67" y2="277.87"/><line x1="198.78" y1="288.51" x2="179.54" y2="291.59"/><line x1="294.80" y1="85.12" x2="288.61" y2="83.16"/><line x1="184.98" y1="106.20" x2="216.71" y2="76.66"/><line x1="184.98" y1="106.20" x2="218.05" y2="85.94"/><line x1="236.92" y1="173.80" x2="233.58" y2="130.87"/><line x1="315.20" y1="282.60" x2="315.17" y2="280.74"/><line x1="184.98" y1="106.20" x2="213.22" y2="93.81"/><line x1="183.67" y1="282.25" x2="186.22" y2="278.71"/><line x1="328.56" y1="183.13" x2="301.00" y2="182.61"/><line x1="336.31" y1="326.58" x2="339.54" y2="325.40"/><line x1="285.48" y1="118.11" x2="285.33" y2="117.54"/><line x1="203.41" y1="70.21" x2="183.26" y2="104.36"/><line x1="196.10" y1="124.09" x2="197.74" y2="126.39"/><line x1="308.00" y1="235.06" x2="330.73" y2="223.89"/><line x1="339.74" y1="302.11" x2="339.82" y2="301.42"/><line x1="209.37" y1="318.84" x2="206.75" y2="317.13"/><line x1="175.46" y1="62.18" x2="174.81" y2="63.05"/><line x1="332.24" y1="208.64" x2="305.34" y2="202.75"/><line x1="332.24" y1="208.64" x2="302.86" y2="190.99"/><line x1="318.26" y1="310.97" x2="339.81" y2="306.00"/><line x1="318.70" y1="319.86" x2="318.61" y2="318.63"/><line x1="220.51" y1="111.84" x2="199.45" y2="128.75"/><line x1="185.41" y1="106.70" x2="213.36" y2="96.44"/><line x1="229.96" y1="289.06" x2="227.96" y2="291.13"/><line x1="288.75" y1="196.92" x2="269.70" y2="208.95"/><line x1="204.01" y1="315.26" x2="198.78" y2="288.51"/><line x1="171.98" y1="82.16" x2="172.29" y2="84.43"/><line x1="179.29" y1="296.40" x2="178.16" y2="295.24"/><line x1="191.95" y1="64.33" x2="192.95" y2="64.90"/><line x1="226.23" y1="120.61" x2="229.70" y2="125.55"/><line x1="341.43" y1="319.04" x2="341.51" y2="317.66"/><line x1="200.31" y1="69.58" x2="182.42" y2="103.53"/><line x1="213.36" y1="96.44" x2="185.84" y2="107.21"/><line x1="183.15" y1="64.06" x2="171.69" y2="72.31"/><line x1="232.01" y1="286.66" x2="257.47" y2="307.14"/><line x1="333.78" y1="235.44" x2="333.45" y2="233.33"/><line x1="226.02" y1="292.88" x2="252.53" y2="316.21"/><line x1="178.31" y1="294.66" x2="178.77" y2="293.44"/><line x1="192.95" y1="64.90" x2="194.00" y2="65.59"/><line x1="198.78" y1="288.51" x2="180.53" y2="297.59"/><line x1="334.85" y1="326.30" x2="334.10" y2="326.15"/><line x1="184.98" y1="106.20" x2="209.82" y2="72.14"/><line x1="317.70" y1="305.50" x2="339.74" y2="302.11"/><line x1="184.98" y1="106.20" x2="218.91" y2="81.45"/><line x1="244.45" y1="182.00" x2="248.06" y2="185.80"/><line x1="176.19" y1="61.33" x2="178.70" y2="61.56"/><line x1="184.98" y1="106.20" x2="215.30" y2="89.71"/><line x1="199.65" y1="69.35" x2="178.04" y2="99.13"/><line x1="236.92" y1="173.80" x2="253.20" y2="155.86"/><line x1="222.37" y1="325.89" x2="220.53" y2="325.08"/><line x1="173.23" y1="65.83" x2="172.84" y2="66.81"/><line x1="206.75" y1="317.13" x2="215.52" y2="296.47"/><line x1="340.90" y1="322.46" x2="341.13" y2="321.44"/><line x1="209.82" y1="72.14" x2="211.58" y2="72.92"/><line x1="215.00" y1="101.48" x2="189.27" y2="113.46"/><line x1="339.81" y1="306.00" x2="318.02" y2="308.37"/><line x1="274.96" y1="286.43" x2="243.00" y2="269.79"/><line x1="220.48" y1="296.23" x2="218.55" y2="324.14"/><line x1="172.84" y1="66.81" x2="182.24" y2="63.58"/><line x1="320.69" y1="117.32" x2="319.56" y2="107.90"/><line x1="173.17" y1="88.71" x2="198.91" y2="69.00"/><line x1="332.24" y1="208.64" x2="305.06" y2="200.24"/><line x1="282.87" y1="109.39" x2="282.55" y2="108.44"/><line x1="186.22" y1="278.71" x2="185.83" y2="278.24"/><line x1="341.36" y1="314.12" x2="341.23" y2="313.26"/><line x1="189.27" y1="113.46" x2="190.46" y2="115.48"/><line x1="270.39" y1="211.14" x2="270.44" y2="211.81"/><line x1="315.31" y1="284.70" x2="315.20" y2="282.60"/><line x1="308.39" y1="235.90" x2="332.42" y2="227.77"/><line x1="244.68" y1="324.16" x2="242.90" y2="325.20"/><line x1="180.61" y1="289.10" x2="194.35" y2="284.44"/><line x1="297.54" y1="87.19" x2="297.20" y2="86.96"/><line x1="198.91" y1="69.00" x2="173.75" y2="90.71"/><line x1="299.66" y1="206.66" x2="301.70" y2="207.95"/><line x1="306.23" y1="91.03" x2="304.24" y2="89.91"/><line x1="217.54" y1="77.76" x2="218.18" y2="78.92"/><line x1="285.79" y1="86.99" x2="286.78" y2="85.41"/><line x1="321.26" y1="325.55" x2="320.67" y2="325.04"/><line x1="263.80" y1="201.38" x2="264.86" y2="202.50"/><line x1="256.38" y1="309.20" x2="255.16" y2="311.74"/><line x1="183.15" y1="64.06" x2="183.84" y2="64.01"/><line x1="171.81" y1="71.13" x2="171.69" y2="72.31"/><line x1="302.18" y1="188.38" x2="302.00" y2="187.59"/><line x1="198.78" y1="288.51" x2="188.35" y2="304.12"/><line x1="218.18" y1="78.92" x2="218.63" y2="80.15"/><line x1="253.88" y1="314.07" x2="226.02" y2="292.88"/><line x1="198.78" y1="288.51" x2="178.77" y2="293.44"/><line x1="184.98" y1="106.20" x2="215.71" y2="75.63"/><line x1="294.80" y1="85.12" x2="287.72" y2="84.13"/><line x1="339.69" y1="302.71" x2="339.74" y2="302.11"/><line x1="184.98" y1="106.20" x2="218.46" y2="85.10"/><line x1="268.54" y1="295.45" x2="267.71" y2="296.48"/><line x1="171.69" y1="72.31" x2="171.61" y2="73.54"/><line x1="199.65" y1="69.35" x2="200.31" y2="69.58"/><line x1="240.74" y1="177.99" x2="244.45" y2="182.00"/><line x1="183.67" y1="282.25" x2="186.83" y2="279.28"/><line x1="318.57" y1="317.28" x2="341.36" y2="314.12"/><line x1="213.98" y1="98.77" x2="215.00" y2="101.48"/><line x1="336.31" y1="326.58" x2="339.10" y2="325.87"/><line x1="328.56" y1="183.13" x2="301.85" y2="186.84"/><line x1="302.13" y1="88.90" x2="281.47" y2="104.21"/><line x1="281.05" y1="98.37" x2="281.28" y2="97.18"/><line x1="196.10" y1="124.09" x2="220.51" y2="111.84"/><line x1="315.73" y1="289.67" x2="315.48" y2="287.05"/><line x1="179.54" y1="291.59" x2="180.61" y2="289.10"/><line x1="184.56" y1="63.93" x2="185.29" y2="63.84"/><line x1="232.99" y1="328.03" x2="230.81" y2="328.11"/><line x1="320.69" y1="117.32" x2="285.73" y2="119.07"/><line x1="332.24" y1="208.64" x2="305.34" y2="203.30"/><line x1="178.04" y1="99.13" x2="179.19" y2="100.48"/><line x1="245.34" y1="265.44" x2="274.96" y2="286.43"/><line x1="284.73" y1="88.88" x2="285.79" y2="86.99"/><line x1="318.70" y1="319.86" x2="341.43" y2="319.04"/><line x1="229.96" y1="289.06" x2="256.38" y2="309.20"/><line x1="288.75" y1="196.92" x2="269.28" y2="208.15"/><line x1="204.01" y1="315.26" x2="211.33" y2="294.68"/><line x1="171.98" y1="82.16" x2="186.04" y2="63.73"/><line x1="179.29" y1="296.40" x2="178.31" y2="294.66"/><line x1="216.43" y1="104.56" x2="218.26" y2="108.02"/><line x1="316.78" y1="101.75" x2="315.62" y2="99.91"/><line x1="218.05" y1="85.94" x2="217.51" y2="86.83"/><line x1="226.23" y1="120.61" x2="207.17" y2="138.79"/><line x1="329.53" y1="220.11" x2="329.41" y2="219.37"/><line x1="340.21" y1="298.93" x2="340.36" y2="298.02"/><line x1="183.15" y1="64.06" x2="171.81" y2="71.13"/><line x1="232.01" y1="286.66" x2="257.72" y2="306.71"/><line x1="333.78" y1="235.44" x2="309.64" y2="239.66"/><line x1="262.64" y1="200.22" x2="263.80" y2="201.38"/><line x1="338.63" y1="326.23" x2="337.02" y2="326.70"/><line x1="304.24" y1="89.91" x2="302.13" y2="88.90"/><line x1="198.78" y1="288.51" x2="181.88" y2="298.82"/><line x1="334.85" y1="326.30" x2="340.90" y2="322.46"/><line x1="285.32" y1="193.32" x2="268.18" y2="206.44"/><line x1="317.70" y1="305.50" x2="339.69" y2="302.71"/><line x1="297.20" y1="86.96" x2="296.85" y2="86.71"/><line x1="184.98" y1="106.20" x2="218.63" y2="80.15"/><line x1="294.76" y1="202.71" x2="297.35" y2="204.92"/><line x1="285.62" y1="118.63" x2="285.48" y2="118.11"/><line x1="176.19" y1="61.33" x2="176.98" y2="60.51"/><line x1="199.65" y1="69.35" x2="176.99" y2="97.67"/><line x1="222.37" y1="325.89" x2="220.48" y2="296.23"/><line x1="285.14" y1="116.89" x2="284.94" y2="116.17"/><line x1="196.60" y1="286.20" x2="195.55" y2="285.35"/><line x1="304.93" y1="199.52" x2="304.78" y2="198.79"/><line x1="312.79" y1="255.54" x2="312.34" y2="252.66"/><line x1="341.45" y1="314.90" x2="341.36" y2="314.12"/><line x1="337.17" y1="261.93" x2="313.68" y2="262.50"/><line x1="337.17" y1="261.93" x2="334.14" y2="237.82"/><line x1="316.10" y1="274.83" x2="316.12" y2="274.52"/><line x1="194.56" y1="121.85" x2="196.10" y2="124.09"/><line x1="280.97" y1="99.42" x2="281.05" y2="98.37"/><line x1="320.69" y1="117.32" x2="285.14" y2="116.89"/><line x1="282.87" y1="109.39" x2="306.23" y2="91.03"/><line x1="305.31" y1="204.02" x2="332.24" y2="208.64"/><line x1="179.58" y1="62.08" x2="180.46" y2="62.59"/><line x1="211.85" y1="320.40" x2="209.37" y2="318.84"/><line x1="308.39" y1="235.90" x2="332.63" y2="228.73"/><line x1="205.73" y1="70.78" x2="207.87" y2="71.43"/><line x1="315.41" y1="278.78" x2="315.52" y2="278.23"/><line x1="297.54" y1="87.19" x2="283.73" y2="90.85"/><line x1="285.79" y1="86.99" x2="294.80" y2="85.12"/><line x1="340.78" y1="294.12" x2="340.76" y2="293.56"/><line x1="317.82" y1="103.70" x2="316.78" y2="101.75"/><line x1="174.21" y1="63.95" x2="173.69" y2="64.88"/><line x1="217.03" y1="296.86" x2="216.69" y2="296.82"/><line x1="303.46" y1="208.77" x2="329.41" y2="219.37"/><line x1="335.59" y1="326.45" x2="334.85" y2="326.30"/><line x1="189.98" y1="281.57" x2="188.70" y2="280.71"/><line x1="302.18" y1="188.38" x2="328.56" y2="183.13"/><line x1="176.99" y1="97.67" x2="178.04" y2="99.13"/><line x1="186.27" y1="107.74" x2="187.18" y2="109.60"/><line x1="285.32" y1="193.32" x2="263.80" y2="201.38"/><line x1="310.09" y1="241.32" x2="333.78" y2="235.44"/><line x1="340.34" y1="308.98" x2="340.13" y2="307.91"/><line x1="298.18" y1="248.90" x2="289.69" y2="263.01"/><line x1="315.21" y1="269.32" x2="314.89" y2="268.13"/><line x1="283.73" y1="90.85" x2="297.20" y2="86.96"/><line x1="480.00" y1="64.50" x2="447.51" y2="32.02"/><line x1="199.65" y1="69.35" x2="180.81" y2="102.05"/><line x1="183.67" y1="282.25" x2="187.65" y2="279.95"/><line x1="318.57" y1="317.28" x2="341.45" y2="314.90"/><line x1="302.13" y1="88.90" x2="281.63" y2="104.98"/><line x1="305.06" y1="200.24" x2="304.93" y2="199.52"/><line x1="315.73" y1="289.67" x2="339.92" y2="284.71"/><line x1="337.17" y1="261.93" x2="312.34" y2="252.66"/><line x1="179.54" y1="291.59" x2="196.60" y2="286.20"/><line x1="214.70" y1="296.15" x2="213.74" y2="295.75"/><line x1="184.56" y1="63.93" x2="171.98" y2="82.16"/><line x1="320.69" y1="117.32" x2="285.82" y2="119.44"/><line x1="316.08" y1="275.17" x2="316.10" y2="274.83"/><line x1="284.73" y1="88.88" x2="295.25" y2="85.48"/><line x1="222.27" y1="295.43" x2="227.17" y2="327.55"/><line x1="229.96" y1="289.06" x2="256.57" y2="308.79"/><line x1="308.10" y1="92.25" x2="282.87" y2="109.39"/><line x1="339.92" y1="284.71" x2="316.12" y2="274.52"/><line x1="172.50" y1="67.83" x2="172.22" y2="68.89"/><line x1="339.92" y1="284.71" x2="337.17" y2="261.93"/><line x1="204.01" y1="315.26" x2="212.61" y2="295.26"/><line x1="181.60" y1="102.76" x2="182.00" y2="103.14"/><line x1="216.43" y1="104.56" x2="193.09" y2="119.68"/><line x1="332.87" y1="229.98" x2="308.39" y2="235.90"/><line x1="339.66" y1="304.41" x2="339.64" y2="303.73"/><line x1="226.23" y1="120.61" x2="205.11" y2="136.19"/><line x1="295.25" y1="85.48" x2="285.79" y2="86.99"/><line x1="303.46" y1="208.77" x2="330.24" y2="222.75"/><line x1="304.24" y1="89.91" x2="281.81" y2="105.79"/><line x1="338.63" y1="326.23" x2="338.13" y2="326.49"/><line x1="316.87" y1="299.02" x2="340.67" y2="295.74"/><line x1="285.32" y1="193.32" x2="251.56" y2="189.40"/><line x1="285.32" y1="193.32" x2="267.48" y2="205.53"/><line x1="267.04" y1="297.25" x2="234.10" y2="283.94"/><line x1="187.58" y1="63.47" x2="188.38" y2="63.32"/><line x1="285.14" y1="116.89" x2="318.74" y2="105.75"/><line x1="307.61" y1="234.42" x2="301.70" y2="207.95"/><line x1="196.60" y1="286.20" x2="180.61" y2="289.10"/><line x1="337.17" y1="261.93" x2="313.76" y2="263.19"/><line x1="337.17" y1="261.93" x2="310.54" y2="243.18"/><line x1="256.57" y1="308.79" x2="256.38" y2="309.20"/><line x1="268.78" y1="207.32" x2="288.75" y2="196.92"/><line x1="320.69" y1="117.32" x2="285.33" y2="117.54"/><line x1="281.66" y1="95.82" x2="282.20" y2="94.32"/><line x1="331.74" y1="325.57" x2="331.07" y2="325.78"/><line x1="242.57" y1="142.62" x2="247.68" y2="149.06"/><line x1="224.12" y1="294.31" x2="241.05" y2="326.09"/><line x1="222.27" y1="295.43" x2="220.48" y2="296.23"/><line x1="180.53" y1="297.59" x2="179.29" y2="296.40"/><line x1="218.46" y1="85.10" x2="218.05" y2="85.94"/><line x1="339.92" y1="284.71" x2="315.87" y2="276.50"/><line x1="339.92" y1="284.71" x2="315.71" y2="271.43"/><line x1="179.58" y1="62.08" x2="174.21" y2="63.95"/><line x1="284.94" y1="116.17" x2="282.87" y2="109.39"/><line x1="211.85" y1="320.40" x2="217.03" y2="296.86"/><line x1="339.94" y1="324.83" x2="340.31" y2="324.16"/><line x1="257.98" y1="306.28" x2="232.01" y2="286.66"/><line x1="199.45" y1="128.75" x2="201.26" y2="131.16"/><line x1="340.63" y1="323.37" x2="334.85" y2="326.30"/><line x1="203.14" y1="133.64" x2="226.23" y2="120.61"/><line x1="303.46" y1="208.77" x2="329.53" y2="220.11"/><line x1="189.98" y1="281.57" x2="183.67" y2="282.25"/><line x1="341.51" y1="317.66" x2="341.53" y2="316.15"/><line x1="186.27" y1="107.74" x2="213.98" y2="98.77"/><line x1="285.32" y1="193.32" x2="262.64" y2="200.22"/><line x1="224.10" y1="326.56" x2="222.37" y2="325.89"/><line x1="333.45" y1="233.33" x2="333.15" y2="231.51"/><line x1="182.24" y1="63.58" x2="183.15" y2="64.06"/><line x1="251.11" y1="318.17" x2="249.61" y2="319.94"/><line x1="182.83" y1="103.94" x2="183.26" y2="104.36"/><line x1="307.61" y1="234.42" x2="294.76" y2="202.71"/><line x1="296.48" y1="86.44" x2="296.09" y2="86.14"/><line x1="325.53" y1="326.70" x2="324.51" y2="326.65"/><line x1="251.56" y1="189.40" x2="254.94" y2="192.80"/><line x1="197.49" y1="287.01" x2="196.60" y2="286.20"/><line x1="337.17" y1="261.93" x2="312.79" y2="255.54"/><line x1="214.11" y1="91.49" x2="213.70" y2="92.31"/><line x1="214.70" y1="296.15" x2="204.01" y2="315.26"/><line x1="213.14" y1="73.76" x2="214.52" y2="74.66"/><line x1="256.78" y1="308.38" x2="256.57" y2="308.79"/><line x1="270.44" y1="211.81" x2="264.77" y2="223.29"/><line x1="339.92" y1="284.71" x2="315.32" y2="279.27"/><line x1="222.27" y1="295.43" x2="228.51" y2="327.86"/><line x1="227.96" y1="291.13" x2="226.02" y2="292.88"/><line x1="178.70" y1="61.56" x2="179.58" y2="62.08"/><line x1="273.37" y1="288.75" x2="271.94" y2="290.81"/><line x1="224.12" y1="294.31" x2="222.27" y2="295.43"/><line x1="339.92" y1="284.71" x2="316.10" y2="274.83"/><line x1="284.94" y1="116.17" x2="314.35" y2="98.17"/><line x1="237.88" y1="136.55" x2="242.57" y2="142.62"/><line x1="339.92" y1="284.71" x2="314.56" y2="266.94"/><line x1="174.42" y1="92.62" x2="175.18" y2="94.41"/><line x1="340.77" y1="294.59" x2="340.78" y2="294.12"/><line x1="216.43" y1="104.56" x2="191.73" y2="117.55"/><line x1="214.21" y1="321.80" x2="211.85" y2="320.40"/><line x1="302.38" y1="189.21" x2="302.18" y2="188.38"/><line x1="183.69" y1="104.80" x2="205.73" y2="70.78"/><line x1="32.16" y1="32.09" x2="32.16" y2="64.58"/><line x1="241.05" y1="326.09" x2="239.13" y2="326.82"/><line x1="207.87" y1="71.43" x2="209.82" y2="72.14"/><line x1="316.87" y1="299.02" x2="340.59" y2="296.43"/><line x1="315.49" y1="270.42" x2="315.21" y2="269.32"/><line x1="285.32" y1="193.32" x2="248.06" y2="185.80"/><line x1="285.32" y1="193.32" x2="266.71" y2="204.57"/><line x1="265.82" y1="203.56" x2="266.71" y2="204.57"/><line x1="267.04" y1="297.25" x2="236.25" y2="280.90"/><line x1="185.84" y1="107.21" x2="186.27" y2="107.74"/><line x1="281.81" y1="105.79" x2="302.13" y2="88.90"/><line x1="340.58" y1="310.12" x2="340.34" y2="308.98"/><line x1="186.57" y1="302.74" x2="184.90" y2="301.40"/><line x1="283.73" y1="90.85" x2="284.73" y2="88.88"/><line x1="307.61" y1="234.42" x2="299.66" y2="206.66"/><line x1="252.53" y1="316.21" x2="251.11" y2="318.17"/><line x1="330.47" y1="223.33" x2="330.24" y2="222.75"/><line x1="194.00" y1="65.59" x2="195.10" y2="66.41"/><line x1="172.69" y1="86.61" x2="190.98" y2="63.89"/><line x1="337.17" y1="261.93" x2="313.88" y2="263.98"/><line x1="181.34" y1="63.09" x2="182.24" y2="63.58"/><line x1="307.61" y1="234.42" x2="330.24" y2="222.75"/><line x1="290.22" y1="82.15" x2="290.95" y2="82.10"/><line x1="248.06" y1="185.80" x2="251.56" y2="189.40"/><line x1="340.34" y1="288.71" x2="315.73" y2="289.67"/><line x1="281.66" y1="95.82" x2="297.54" y2="87.19"/><line x1="215.52" y1="296.47" x2="214.70" y2="296.15"/><line x1="339.92" y1="284.71" x2="315.20" y2="282.60"/><line x1="292.68" y1="145.71" x2="320.69" y2="117.32"/><line x1="224.12" y1="294.31" x2="242.90" y2="325.20"/><line x1="339.92" y1="284.71" x2="315.77" y2="277.05"/><line x1="222.27" y1="295.43" x2="222.37" y2="325.89"/><line x1="339.92" y1="284.71" x2="315.89" y2="272.34"/><line x1="284.94" y1="116.17" x2="308.10" y2="92.25"/><line x1="313.88" y1="263.98" x2="313.76" y2="263.19"/><line x1="240.69" y1="273.82" x2="267.04" y2="297.25"/><line x1="281.16" y1="102.10" x2="281.10" y2="101.47"/><line x1="186.04" y1="63.73" x2="186.80" y2="63.61"/><line x1="339.72" y1="305.17" x2="339.66" y2="304.41"/><line x1="314.35" y1="98.17" x2="312.97" y2="96.53"/><line x1="207.17" y1="138.79" x2="236.92" y2="173.80"/><line x1="303.96" y1="207.92" x2="304.38" y2="207.09"/><line x1="285.32" y1="193.32" x2="261.40" y2="199.01"/><line x1="182.24" y1="63.58" x2="172.50" y2="67.83"/><line x1="182.83" y1="103.94" x2="203.41" y2="70.21"/><line x1="315.17" y1="280.74" x2="315.18" y2="280.45"/><line x1="341.13" y1="321.44" x2="341.31" y2="320.30"/><line x1="296.48" y1="86.44" x2="284.73" y2="88.88"/><line x1="307.61" y1="234.42" x2="298.18" y2="248.90"/><line x1="297.35" y1="204.92" x2="299.66" y2="206.66"/><line x1="285.33" y1="117.54" x2="285.14" y2="116.89"/><line x1="172.69" y1="86.61" x2="195.10" y2="66.41"/><line x1="320.17" y1="324.44" x2="319.75" y2="323.74"/><line x1="341.31" y1="320.30" x2="325.53" y2="326.70"/><line x1="303.46" y1="192.96" x2="303.14" y2="191.96"/><line x1="282.55" y1="108.44" x2="282.28" y2="107.52"/><line x1="311.90" y1="249.98" x2="311.45" y2="247.51"/><line x1="341.31" y1="320.30" x2="319.38" y2="322.93"/><line x1="174.81" y1="63.05" x2="179.58" y2="62.08"/><line x1="339.92" y1="284.71" x2="315.26" y2="279.71"/><line x1="227.96" y1="291.13" x2="253.88" y2="314.07"/><line x1="281.28" y1="97.18" x2="281.66" y2="95.82"/><line x1="224.12" y1="294.31" x2="235.10" y2="327.78"/><line x1="339.92" y1="284.71" x2="316.08" y2="275.17"/><line x1="317.32" y1="302.39" x2="339.82" y2="301.42"/><line x1="284.94" y1="116.17" x2="315.62" y2="99.91"/><line x1="299.89" y1="87.99" x2="280.98" y2="99.87"/><line x1="32.00" y1="479.98" x2="64.49" y2="479.98"/><line x1="305.34" y1="203.30" x2="305.34" y2="202.75"/><line x1="329.41" y1="219.37" x2="305.19" y2="204.75"/><line x1="318.61" y1="318.63" x2="318.57" y2="317.28"/><line x1="207.87" y1="71.43" x2="184.98" y2="106.20"/><line x1="309.64" y1="239.66" x2="309.21" y2="238.20"/><line x1="316.87" y1="299.02" x2="340.49" y2="297.19"/><line x1="255.25" y1="244.55" x2="245.34" y2="265.44"/><line x1="314.56" y1="266.94" x2="314.28" y2="265.85"/><line x1="316.42" y1="295.64" x2="340.76" y2="293.56"/><line x1="307.61" y1="234.42" x2="270.44" y2="211.81"/><line x1="334.10" y1="326.15" x2="333.33" y2="325.97"/><line x1="172.69" y1="86.61" x2="190.07" y2="63.57"/><line x1="211.58" y1="72.92" x2="213.14" y2="73.76"/><line x1="307.61" y1="234.42" x2="330.47" y2="223.33"/><line x1="332.24" y1="208.64" x2="328.56" y2="183.13"/><line x1="172.69" y1="86.61" x2="173.17" y2="88.71"/><line x1="229.72" y1="328.05" x2="228.51" y2="327.86"/><line x1="341.31" y1="320.30" x2="330.32" y2="325.97"/><line x1="243.00" y1="269.79" x2="273.37" y2="288.75"/><line x1="341.31" y1="320.30" x2="321.94" y2="325.96"/><line x1="341.31" y1="320.30" x2="341.43" y2="319.04"/><line x1="339.92" y1="284.71" x2="315.31" y2="284.70"/><line x1="224.12" y1="294.31" x2="244.68" y2="324.16"/><line x1="318.54" y1="315.43" x2="341.05" y2="312.31"/><line x1="190.46" y1="115.48" x2="216.43" y2="104.56"/><line x1="299.89" y1="87.99" x2="281.66" y2="95.82"/><line x1="242.90" y1="325.20" x2="241.05" y2="326.09"/><line x1="226.02" y1="292.88" x2="224.12" y2="294.31"/><line x1="173.75" y1="90.71" x2="174.42" y2="92.62"/><line x1="240.69" y1="273.82" x2="267.71" y2="296.48"/><line x1="257.47" y1="307.14" x2="257.23" y2="307.55"/><line x1="320.67" y1="325.04" x2="320.17" y2="324.44"/><line x1="264.86" y1="202.50" x2="265.82" y2="203.56"/><line x1="218.26" y1="108.02" x2="220.51" y2="111.84"/><line x1="184.98" y1="106.20" x2="213.40" y2="93.09"/><line x1="312.34" y1="252.66" x2="311.90" y2="249.98"/><line x1="188.35" y1="304.12" x2="186.57" y2="302.74"/><line x1="218.63" y1="80.15" x2="218.91" y2="81.45"/><line x1="220.53" y1="325.08" x2="218.55" y2="324.14"/><line x1="339.74" y1="302.11" x2="317.32" y2="302.39"/><line x1="267.71" y1="296.48" x2="267.04" y2="297.25"/><line x1="209.37" y1="318.84" x2="216.18" y2="296.69"/><line x1="171.61" y1="73.54" x2="171.59" y2="74.81"/><line x1="316.42" y1="295.64" x2="316.04" y2="292.52"/><line x1="339.10" y1="325.87" x2="339.54" y2="325.40"/><line x1="332.24" y1="208.64" x2="303.14" y2="191.96"/><line x1="318.26" y1="310.97" x2="339.95" y2="306.92"/><line x1="172.69" y1="86.61" x2="194.00" y2="65.59"/><line x1="220.51" y1="111.84" x2="197.74" y2="126.39"/><line x1="341.31" y1="320.30" x2="326.63" y2="326.58"/><line x1="315.52" y1="278.23" x2="315.64" y2="277.63"/><line x1="223.17" y1="116.03" x2="226.23" y2="120.61"/><line x1="230.81" y1="328.11" x2="229.72" y2="328.05"/><line x1="341.31" y1="320.30" x2="319.75" y2="323.74"/><line x1="179.19" y1="100.48" x2="180.43" y2="101.72"/><line x1="339.54" y1="325.40" x2="339.94" y2="324.83"/><line x1="227.96" y1="291.13" x2="255.16" y2="311.74"/><line x1="341.43" y1="319.04" x2="318.61" y2="318.63"/><line x1="200.31" y1="69.58" x2="182.00" y2="103.14"/><line x1="299.89" y1="87.99" x2="281.00" y2="100.36"/><line x1="269.28" y1="208.15" x2="269.70" y2="208.95"/><line x1="315.64" y1="277.63" x2="315.77" y2="277.05"/><line x1="32.00" y1="479.98" x2="32.00" y2="447.50"/><line x1="291.89" y1="200.04" x2="294.76" y2="202.71"/><line x1="253.20" y1="155.86" x2="285.32" y2="193.32"/><line x1="178.31" y1="294.66" x2="178.16" y2="295.24"/><line x1="329.41" y1="219.37" x2="305.00" y2="205.51"/><line x1="217.51" y1="86.83" x2="216.86" y2="87.76"/><line x1="315.62" y1="99.91" x2="314.35" y2="98.17"/><line x1="173.69" y1="64.88" x2="173.23" y2="65.83"/><line x1="318.61" y1="318.63" x2="341.51" y2="317.66"/><line x1="294.80" y1="85.12" x2="290.95" y2="82.10"/><line x1="340.36" y1="298.02" x2="340.49" y2="297.19"/><line x1="257.72" y1="306.71" x2="257.47" y2="307.14"/><line x1="184.98" y1="106.20" x2="216.08" y2="88.74"/><line x1="236.92" y1="173.80" x2="247.68" y2="149.06"/><line x1="309.64" y1="239.66" x2="333.45" y2="233.33"/><line x1="185.29" y1="63.84" x2="186.04" y2="63.73"/><line x1="270.25" y1="210.45" x2="270.39" y2="211.14"/><line x1="255.25" y1="244.55" x2="289.69" y2="263.01"/><line x1="340.90" y1="322.46" x2="334.10" y2="326.15"/><line x1="248.04" y1="321.53" x2="246.40" y2="322.93"/><line x1="205.11" y1="136.19" x2="207.17" y2="138.79"/><line x1="296.85" y1="86.71" x2="296.48" y2="86.44"/><line x1="340.49" y1="297.19" x2="340.59" y2="296.43"/><line x1="177.84" y1="61.04" x2="178.70" y2="61.56"/><line x1="220.48" y1="296.23" x2="220.53" y2="325.08"/><line x1="316.42" y1="295.64" x2="340.78" y2="294.12"/><line x1="304.78" y1="198.79" x2="303.46" y2="192.96"/><line x1="182.42" y1="103.53" x2="182.83" y2="103.94"/><line x1="332.24" y1="208.64" x2="305.16" y2="200.91"/><line x1="334.10" y1="326.15" x2="341.13" y2="321.44"/><line x1="172.69" y1="86.61" x2="189.20" y2="63.38"/><line x1="341.36" y1="314.12" x2="318.54" y2="315.43"/><line x1="332.24" y1="208.64" x2="302.18" y2="188.38"/><line x1="341.31" y1="320.30" x2="331.07" y2="325.78"/><line x1="316.12" y1="274.52" x2="316.09" y2="273.89"/><line x1="341.31" y1="320.30" x2="322.71" y2="326.28"/><line x1="180.61" y1="289.10" x2="195.55" y2="285.35"/><line x1="270.64" y1="292.61" x2="269.52" y2="294.16"/><line x1="306.23" y1="91.03" x2="282.55" y2="108.44"/><line x1="218.73" y1="296.71" x2="217.03" y2="296.86"/><line x1="318.54" y1="315.43" x2="341.23" y2="313.26"/><line x1="299.89" y1="87.99" x2="281.28" y2="97.18"/><line x1="256.38" y1="309.20" x2="227.96" y2="291.13"/><line x1="183.15" y1="64.06" x2="171.63" y2="77.34"/><line x1="193.09" y1="119.68" x2="194.56" y2="121.85"/><line x1="332.63" y1="228.73" x2="332.42" y2="227.77"/><line x1="318.74" y1="105.75" x2="317.82" y2="103.70"/><line x1="184.12" y1="105.25" x2="184.55" y2="105.71"/><line x1="226.02" y1="292.88" x2="248.04" y2="321.53"/><line x1="195.55" y1="285.35" x2="194.35" y2="284.44"/><line x1="331.07" y1="325.78" x2="330.32" y2="325.97"/><line x1="294.80" y1="85.12" x2="286.78" y2="85.41"/><line x1="184.98" y1="106.20" x2="214.52" y2="74.66"/><line x1="181.99" y1="285.99" x2="183.67" y2="282.25"/><line x1="340.76" y1="293.56" x2="340.71" y2="292.74"/><line x1="184.98" y1="106.20" x2="218.76" y2="84.29"/><line x1="180.46" y1="62.59" x2="181.34" y2="63.09"/><line x1="184.98" y1="106.20" x2="213.70" y2="92.31"/><line x1="328.56" y1="183.13" x2="302.00" y2="187.59"/><line x1="213.98" y1="98.77" x2="188.18" y2="111.50"/><line x1="330.32" y1="325.97" x2="329.50" y2="326.15"/><line x1="286.78" y1="85.41" x2="287.72" y2="84.13"/><line x1="314.89" y1="268.13" x2="314.56" y2="266.94"/><line x1="209.37" y1="318.84" x2="216.69" y2="296.82"/><line x1="316.42" y1="295.64" x2="340.49" y2="290.31"/><line x1="281.63" y1="104.98" x2="281.47" y2="104.21"/><line x1="310.54" y1="243.18" x2="310.09" y2="241.32"/><line x1="183.84" y1="64.01" x2="184.56" y2="63.93"/><line x1="318.26" y1="310.97" x2="340.13" y2="307.91"/><line x1="332.24" y1="208.64" x2="303.46" y2="192.96"/><line x1="341.31" y1="320.30" x2="327.66" y2="326.45"/><line x1="223.17" y1="116.03" x2="203.14" y2="133.64"/><line x1="330.03" y1="222.14" x2="329.84" y2="221.49"/><line x1="171.98" y1="82.16" x2="185.29" y2="63.84"/><line x1="188.70" y1="280.71" x2="187.65" y2="279.95"/><line x1="200.31" y1="69.58" x2="181.60" y2="102.76"/><line x1="340.15" y1="286.84" x2="339.92" y2="284.71"/><line x1="299.89" y1="87.99" x2="281.04" y2="100.90"/><line x1="183.15" y1="64.06" x2="171.99" y2="69.99"/><line x1="291.89" y1="200.04" x2="307.61" y2="234.42"/><line x1="285.89" y1="119.74" x2="285.82" y2="119.44"/><line x1="182.00" y1="103.14" x2="182.42" y2="103.53"/><line x1="198.78" y1="288.51" x2="183.34" y2="300.09"/><line x1="329.41" y1="219.37" x2="304.73" y2="206.28"/><line x1="317.70" y1="305.50" x2="339.65" y2="303.25"/><line x1="294.80" y1="85.12" x2="290.22" y2="82.15"/><line x1="184.98" y1="106.20" x2="218.18" y2="78.92"/><line x1="176.19" y1="61.33" x2="177.84" y2="61.04"/><line x1="184.98" y1="106.20" x2="216.86" y2="87.76"/><line x1="199.65" y1="69.35" x2="176.04" y2="96.10"/><line x1="236.92" y1="173.80" x2="242.57" y2="142.62"/><line x1="337.59" y1="326.65" x2="337.02" y2="326.70"/><line x1="184.98" y1="106.20" x2="185.41" y2="106.70"/><line x1="183.67" y1="282.25" x2="185.67" y2="277.87"/><line x1="281.04" y1="100.90" x2="281.00" y2="100.36"/><line x1="213.70" y1="92.31" x2="213.40" y2="93.09"/><line x1="333.15" y1="231.51" x2="332.87" y2="229.98"/><line x1="302.13" y1="88.90" x2="299.89" y2="87.99"/><line x1="336.31" y1="326.58" x2="335.59" y2="326.45"/><line x1="203.41" y1="70.21" x2="205.73" y2="70.78"/><line x1="177.84" y1="61.04" x2="176.98" y2="60.51"/><line x1="188.38" y1="63.32" x2="189.20" y2="63.38"/><line x1="316.42" y1="295.64" x2="340.77" y2="294.59"/><line x1="281.00" y1="100.36" x2="280.98" y2="99.87"/><line x1="332.24" y1="208.64" x2="305.24" y2="201.55"/><line x1="213.40" y1="93.09" x2="213.22" y2="93.81"/><line x1="332.24" y1="208.64" x2="302.38" y2="189.21"/><line x1="288.75" y1="196.92" x2="291.89" y2="200.04"/><line x1="189.20" y1="63.38" x2="190.07" y2="63.57"/><line x1="205.73" y1="70.78" x2="184.12" y2="105.25"/><line x1="297.54" y1="87.19" x2="282.89" y2="92.66"/><line x1="247.68" y1="149.06" x2="253.20" y2="155.86"/><line x1="174.21" y1="63.95" x2="180.46" y2="62.59"/><line x1="340.84" y1="311.27" x2="340.58" y2="310.12"/><line x1="183.15" y1="64.06" x2="171.59" y2="74.81"/><line x1="232.01" y1="286.66" x2="229.96" y2="289.06"/><line x1="217.03" y1="296.86" x2="209.37" y2="318.84"/><line x1="335.59" y1="326.45" x2="340.63" y2="323.37"/><line x1="318.74" y1="105.75" x2="284.94" y2="116.17"/><line x1="184.12" y1="105.25" x2="207.87" y2="71.43"/><line x1="226.02" y1="292.88" x2="249.61" y2="319.94"/><line x1="198.78" y1="288.51" x2="178.31" y2="294.66"/><line x1="340.34" y1="308.98" x2="318.26" y2="310.97"/><line x1="184.98" y1="106.20" x2="213.14" y2="73.76"/><line x1="298.18" y1="248.90" x2="255.25" y2="244.55"/><line x1="184.98" y1="106.20" x2="218.94" y2="83.53"/><line x1="180.46" y1="62.59" x2="173.69" y2="64.88"/><line x1="330.24" y1="222.75" x2="330.03" y2="222.14"/><line x1="195.10" y1="66.41" x2="196.18" y2="67.24"/><line x1="184.98" y1="106.20" x2="214.11" y2="91.49"/><line x1="199.65" y1="69.35" x2="180.43" y2="101.72"/><line x1="236.92" y1="173.80" x2="240.74" y2="177.99"/><line x1="183.67" y1="282.25" x2="188.70" y2="280.71"/><line x1="318.57" y1="317.28" x2="341.51" y2="315.57"/><line x1="340.49" y1="290.31" x2="340.34" y2="288.71"/><line x1="213.98" y1="98.77" x2="187.18" y2="109.60"/><line x1="206.75" y1="317.13" x2="204.01" y2="315.26"/><line x1="315.73" y1="289.67" x2="340.15" y2="286.84"/><line x1="215.00" y1="101.48" x2="216.43" y2="104.56"/><line x1="309.21" y1="238.20" x2="308.80" y2="236.95"/><line x1="249.61" y1="319.94" x2="248.04" y2="321.53"/><line x1="179.54" y1="291.59" x2="197.49" y2="287.01"/><line x1="196.18" y1="67.24" x2="197.17" y2="67.94"/><line x1="320.69" y1="117.32" x2="285.89" y2="119.74"/><line x1="220.48" y1="296.23" x2="218.73" y2="296.71"/><line x1="284.73" y1="88.88" x2="295.68" y2="85.82"/><line x1="324.51" y1="326.65" x2="323.56" y2="326.52"/><line x1="340.67" y1="295.74" x2="340.73" y2="295.13"/><line x1="254.94" y1="192.80" x2="258.22" y2="196.00"/><line x1="229.96" y1="289.06" x2="256.78" y2="308.38"/><line x1="313.76" y1="263.19" x2="313.68" y2="262.50"/><line x1="172.50" y1="67.83" x2="183.15" y2="64.06"/><line x1="204.01" y1="315.26" x2="213.74" y2="295.75"/><line x1="333.33" y1="325.97" x2="332.54" y2="325.78"/><line x1="308.39" y1="235.90" x2="308.00" y2="235.06"/><line x1="214.52" y1="74.66" x2="215.71" y2="75.63"/><line x1="281.10" y1="101.47" x2="281.04" y2="100.90"/><line x1="180.61" y1="289.10" x2="181.99" y2="285.99"/><line x1="323.56" y1="326.52" x2="322.71" y2="326.28"/><line x1="339.66" y1="304.41" x2="317.70" y2="305.50"/><line x1="271.94" y1="290.81" x2="270.64" y2="292.61"/><line x1="313.68" y1="262.50" x2="313.66" y2="261.91"/><line x1="183.15" y1="64.06" x2="172.22" y2="68.89"/><line x1="304.38" y1="207.09" x2="304.73" y2="206.28"/><line x1="213.74" y1="295.75" x2="212.61" y2="295.26"/><line x1="304.24" y1="89.91" x2="282.03" y2="106.64"/><line x1="338.63" y1="326.23" x2="337.59" y2="326.65"/><line x1="191.73" y1="117.55" x2="193.09" y2="119.68"/><line x1="198.78" y1="288.51" x2="184.90" y2="301.40"/><line x1="317.70" y1="305.50" x2="339.64" y2="303.73"/><line x1="315.18" y1="280.45" x2="315.21" y2="280.11"/><line x1="184.98" y1="106.20" x2="217.54" y2="77.76"/><line x1="332.24" y1="227.09" x2="330.73" y2="223.89"/><line x1="239.13" y1="326.82" x2="237.15" y2="327.38"/><line x1="236.92" y1="173.80" x2="237.88" y2="136.55"/><line x1="199.65" y1="69.35" x2="175.18" y2="94.41"/><line x1="304.73" y1="206.28" x2="305.00" y2="205.51"/><line x1="285.14" y1="116.89" x2="319.56" y2="107.90"/><line x1="337.59" y1="326.65" x2="338.13" y2="326.49"/><line x1="183.67" y1="282.25" x2="185.83" y2="278.24"/><line x1="319.75" y1="323.74" x2="319.38" y2="322.93"/><line x1="302.13" y1="88.90" x2="281.25" y2="102.76"/><line x1="266.71" y1="204.57" x2="267.48" y2="205.53"/><line x1="336.31" y1="326.58" x2="339.94" y2="324.83"/><line x1="203.41" y1="70.21" x2="183.69" y2="104.80"/><line x1="64.64" y1="32.09" x2="32.16" y2="64.58"/><line x1="315.21" y1="280.11" x2="315.26" y2="279.71"/><line x1="311.45" y1="247.51" x2="311.00" y2="245.24"/><line x1="171.63" y1="77.34" x2="171.76" y2="79.80"/><line x1="237.15" y1="327.38" x2="235.10" y2="327.78"/><line x1="337.17" y1="261.93" x2="311.00" y2="245.24"/><line x1="184.90" y1="301.40" x2="183.34" y2="300.09"/><line x1="308.00" y1="235.06" x2="330.47" y2="223.33"/><line x1="319.56" y1="107.90" x2="318.74" y2="105.75"/><line x1="219.00" y1="82.81" x2="218.94" y2="83.53"/><line x1="320.69" y1="117.32" x2="285.48" y2="118.11"/><line x1="319.38" y1="322.93" x2="319.10" y2="322.02"/><line x1="339.82" y1="301.42" x2="339.93" y2="300.66"/><line x1="238.45" y1="277.52" x2="236.25" y2="280.90"/><line x1="185.41" y1="106.70" x2="185.84" y2="107.21"/><line x1="311.00" y1="245.24" x2="310.54" y2="243.18"/><line x1="288.75" y1="196.92" x2="270.02" y2="209.72"/><line x1="305.34" y1="202.75" x2="305.30" y2="202.17"/><line x1="180.81" y1="102.05" x2="181.20" y2="102.40"/><line x1="183.34" y1="300.09" x2="181.88" y2="298.82"/><line x1="301.00" y1="182.61" x2="292.68" y2="145.71"/><line x1="204.01" y1="315.26" x2="188.35" y2="304.12"/><line x1="339.94" y1="324.83" x2="335.59" y2="326.45"/><line x1="297.54" y1="87.19" x2="282.20" y2="94.32"/><line x1="199.45" y1="128.75" x2="223.17" y2="116.03"/><line x1="270.02" y1="209.72" x2="270.25" y2="210.45"/><line x1="339.93" y1="300.66" x2="340.06" y2="299.83"/><line x1="315.77" y1="277.05" x2="315.87" y2="276.50"/><line x1="236.25" y1="280.90" x2="234.10" y2="283.94"/><line x1="228.51" y1="327.86" x2="227.17" y2="327.55"/><line x1="305.30" y1="202.17" x2="305.24" y2="201.55"/><line x1="183.15" y1="64.06" x2="171.61" y2="73.54"/><line x1="232.01" y1="286.66" x2="257.23" y2="307.55"/><line x1="303.46" y1="208.77" x2="329.67" y2="220.82"/><line x1="335.59" y1="326.45" x2="340.31" y2="324.16"/><line x1="281.25" y1="102.76" x2="281.16" y2="102.10"/><line x1="338.63" y1="326.23" x2="339.10" y2="325.87"/><line x1="341.51" y1="317.66" x2="318.57" y2="317.28"/><line x1="184.98" y1="106.20" x2="211.58" y2="72.92"/><line x1="285.32" y1="193.32" x2="288.75" y2="196.92"/><line x1="257.23" y1="307.55" x2="257.00" y2="307.97"/><line x1="315.87" y1="276.50" x2="315.96" y2="276.01"/><line x1="172.29" y1="84.43" x2="172.69" y2="86.61"/><line x1="227.17" y1="327.55" x2="225.70" y2="327.12"/><line x1="333.45" y1="233.33" x2="309.21" y2="238.20"/><line x1="176.19" y1="61.33" x2="175.46" y2="62.18"/><line x1="312.97" y1="96.53" x2="311.46" y2="95.00"/><line x1="199.65" y1="69.35" x2="179.19" y2="100.48"/><line x1="229.70" y1="125.55" x2="233.58" y2="130.87"/><line x1="318.57" y1="317.28" x2="341.53" y2="316.15"/><line x1="337.17" y1="261.93" x2="313.23" y2="258.62"/><line x1="215.00" y1="101.48" x2="190.46" y2="115.48"/><line x1="309.21" y1="238.20" x2="333.15" y2="231.51"/><line x1="179.54" y1="291.59" x2="198.21" y2="287.78"/><line x1="284.73" y1="88.88" x2="296.09" y2="86.14"/><line x1="173.17" y1="88.71" x2="173.75" y2="90.71"/><line x1="340.67" y1="295.74" x2="316.42" y2="295.64"/><line x1="222.27" y1="295.43" x2="229.72" y2="328.05"/><line x1="178.70" y1="61.56" x2="174.81" y2="63.05"/><line x1="229.96" y1="289.06" x2="257.00" y2="307.97"/><line x1="216.45" y1="323.05" x2="214.21" y2="321.80"/><line x1="303.14" y1="191.96" x2="302.86" y2="190.99"/><line x1="339.92" y1="284.71" x2="314.89" y2="268.13"/><line x1="174.42" y1="92.62" x2="199.65" y2="69.35"/><line x1="213.16" y1="94.48" x2="213.36" y2="96.44"/><line x1="333.33" y1="325.97" x2="341.31" y2="320.30"/><line x1="296.09" y1="86.14" x2="295.68" y2="85.82"/><line x1="316.01" y1="273.16" x2="315.89" y2="272.34"/><line x1="32.16" y1="32.09" x2="64.64" y2="32.09"/><line x1="192.99" y1="283.51" x2="191.47" y2="282.52"/><line x1="304.24" y1="89.91" x2="282.28" y2="107.52"/><line x1="218.91" y1="81.45" x2="219.00" y2="82.81"/><line x1="285.32" y1="193.32" x2="244.45" y2="182.00"/><line x1="285.32" y1="193.32" x2="265.82" y2="203.56"/><line x1="253.88" y1="314.07" x2="252.53" y2="316.21"/><line x1="267.04" y1="297.25" x2="238.45" y2="277.52"/><line x1="332.24" y1="227.09" x2="308.00" y2="235.06"/><line x1="171.59" y1="74.81" x2="171.63" y2="77.34"/><line x1="283.73" y1="90.85" x2="296.48" y2="86.44"/><line x1="282.28" y1="107.52" x2="282.03" y2="106.64"/><line x1="287.72" y1="84.13" x2="288.61" y2="83.16"/><line x1="197.74" y1="126.39" x2="199.45" y2="128.75"/><line x1="289.69" y1="263.01" x2="274.96" y2="286.43"/><line x1="318.57" y1="317.28" x2="318.54" y2="315.43"/><line x1="302.13" y1="88.90" x2="281.35" y2="103.46"/><line x1="337.17" y1="261.93" x2="314.06" y2="264.87"/><line x1="181.34" y1="63.09" x2="172.84" y2="66.81"/><line x1="216.18" y1="296.69" x2="215.52" y2="296.47"/><line x1="337.17" y1="261.93" x2="311.45" y2="247.51"/><line x1="171.63" y1="77.34" x2="183.84" y2="64.01"/><line x1="180.43" y1="101.72" x2="180.81" y2="102.05"/><line x1="188.18" y1="111.50" x2="189.27" y2="113.46"/><line x1="288.61" y1="83.16" x2="289.44" y2="82.51"/><line x1="320.69" y1="117.32" x2="285.62" y2="118.63"/><line x1="245.34" y1="265.44" x2="243.00" y2="269.79"/><line x1="269.70" y1="208.95" x2="270.02" y2="209.72"/><line x1="339.92" y1="284.71" x2="315.64" y2="277.63"/><line x1="32.00" y1="447.50" x2="64.49" y2="479.98"/></g></svg>