<svg xmlns="http://www.w3.org/2000/svg" width="512" height="512"><rect width="512" height="512" fill="#0a0f1a"/><text x="12" y="20" font-family="monospace" font-size="11" fill="#4a7fa5">FRONT (XZ)</text><g stroke="#00d4ff" stroke-width="0.6" opacity="0.85"><line x1="292.07" y1="140.81" x2="253.48" y2="154.15"/><line x1="233.32" y1="293.79" x2="219.76" y2="317.90"/><line x1="277.06" y1="336.35" x2="278.22" y2="336.51"/><line x1="311.39" y1="300.45" x2="311.10" y2="297.48"/><line x1="308.02" y1="281.65" x2="280.38" y2="286.43"/><line x1="201.63" y1="295.24" x2="202.32" y2="296.22"/><line x1="258.77" y1="172.82" x2="300.67" y2="179.63"/><line x1="300.53" y1="178.14" x2="300.37" y2="176.59"/><line x1="249.73" y1="123.53" x2="283.41" y2="105.69"/><line x1="244.17" y1="98.36" x2="242.76" y2="91.60"/><line x1="278.22" y1="336.51" x2="279.39" y2="336.65"/><line x1="258.77" y1="172.82" x2="298.04" y2="164.52"/><line x1="279.45" y1="297.05" x2="279.75" y2="295.91"/><line x1="308.35" y1="327.42" x2="308.87" y2="326.54"/><line x1="253.06" y1="66.00" x2="242.27" y2="71.43"/><line x1="302.12" y1="238.13" x2="301.60" y2="234.71"/><line x1="271.76" y1="234.39" x2="302.77" y2="246.04"/><line x1="202.32" y1="296.22" x2="202.99" y2="297.21"/><line x1="236.98" y1="295.00" x2="237.56" y2="325.27"/><line x1="271.76" y1="234.39" x2="270.34" y2="225.55"/><line x1="285.78" y1="111.94" x2="285.27" y2="110.49"/><line x1="308.87" y1="326.54" x2="309.34" y2="325.47"/><line x1="261.32" y1="189.17" x2="261.14" y2="188.12"/><line x1="289.35" y1="128.23" x2="252.59" y2="143.92"/><line x1="237.56" y1="325.27" x2="240.59" y2="296.10"/><line x1="283.89" y1="336.93" x2="284.95" y2="336.97"/><line x1="241.45" y1="85.78" x2="264.75" y2="70.61"/><line x1="279.32" y1="275.43" x2="304.45" y2="267.36"/><line x1="283.41" y1="105.69" x2="246.41" y2="116.22"/><line x1="209.94" y1="278.83" x2="210.37" y2="279.31"/><line x1="206.14" y1="302.39" x2="210.66" y2="310.11"/><line x1="261.14" y1="188.12" x2="261.01" y2="187.15"/><line x1="275.88" y1="301.39" x2="277.06" y2="336.35"/><line x1="298.51" y1="166.39" x2="298.04" y2="164.52"/><line x1="292.07" y1="140.81" x2="252.73" y2="145.88"/><line x1="284.95" y1="336.97" x2="285.98" y2="337.00"/><line x1="264.75" y1="70.61" x2="241.35" y2="84.93"/><line x1="244.15" y1="68.23" x2="244.98" y2="67.45"/><line x1="269.49" y1="218.98" x2="297.33" y2="211.38"/><line x1="210.66" y1="310.11" x2="222.97" y2="290.32"/><line x1="258.77" y1="172.82" x2="300.86" y2="186.03"/><line x1="249.73" y1="123.53" x2="286.23" y2="113.31"/><line x1="254.64" y1="299.52" x2="258.09" y2="300.11"/><line x1="298.04" y1="164.52" x2="297.53" y2="162.61"/><line x1="258.77" y1="172.82" x2="299.93" y2="173.38"/><line x1="246.41" y1="116.22" x2="246.27" y2="115.25"/><line x1="241.50" y1="74.32" x2="253.71" y2="66.16"/><line x1="311.15" y1="314.70" x2="311.30" y2="312.12"/><line x1="244.98" y1="67.45" x2="245.93" y2="66.80"/><line x1="271.76" y1="234.39" x2="302.42" y2="248.97"/><line x1="296.35" y1="191.68" x2="260.51" y2="180.58"/><line x1="271.76" y1="234.39" x2="302.50" y2="241.01"/><line x1="258.09" y1="300.11" x2="250.05" y2="330.97"/><line x1="295.96" y1="192.42" x2="260.85" y2="185.38"/><line x1="246.27" y1="115.25" x2="277.58" y2="91.97"/><line x1="261.61" y1="68.86" x2="241.16" y2="82.55"/><line x1="302.43" y1="257.05" x2="302.14" y2="254.60"/><line x1="212.88" y1="281.63" x2="213.46" y2="282.08"/><line x1="260.51" y1="180.58" x2="296.85" y2="191.02"/><line x1="271.74" y1="77.88" x2="271.29" y2="77.04"/><line x1="276.55" y1="301.18" x2="283.89" y2="336.93"/><line x1="254.81" y1="159.98" x2="292.07" y2="140.81"/><line x1="289.35" y1="128.23" x2="251.90" y2="138.28"/><line x1="290.22" y1="336.97" x2="290.89" y2="336.93"/><line x1="241.16" y1="82.55" x2="260.45" y2="68.31"/><line x1="268.53" y1="215.91" x2="268.23" y2="214.88"/><line x1="212.06" y1="311.97" x2="212.84" y2="312.84"/><line x1="264.95" y1="300.97" x2="260.22" y2="333.73"/><line x1="292.07" y1="140.81" x2="254.07" y2="156.98"/><line x1="275.88" y1="301.39" x2="276.55" y2="301.18"/><line x1="245.21" y1="102.87" x2="244.17" y2="98.36"/><line x1="311.39" y1="300.45" x2="279.45" y2="297.05"/><line x1="268.23" y1="214.88" x2="267.90" y2="213.72"/><line x1="205.46" y1="285.99" x2="204.09" y2="289.10"/><line x1="258.77" y1="172.82" x2="298.91" y2="189.46"/><line x1="252.73" y1="145.88" x2="252.68" y2="144.97"/><line x1="210.66" y1="310.11" x2="211.33" y2="311.06"/><line x1="258.77" y1="172.82" x2="300.78" y2="181.08"/><line x1="249.73" y1="123.53" x2="284.08" y2="107.36"/><line x1="244.17" y1="98.36" x2="274.57" y2="84.93"/><line x1="258.77" y1="172.82" x2="298.51" y2="166.39"/><line x1="241.07" y1="80.42" x2="241.06" y2="79.76"/><line x1="271.76" y1="234.39" x2="302.08" y2="251.80"/><line x1="295.46" y1="195.12" x2="263.60" y2="198.31"/><line x1="294.71" y1="151.62" x2="255.71" y2="163.14"/><line x1="216.49" y1="315.95" x2="229.62" y2="292.48"/><line x1="271.76" y1="234.39" x2="302.73" y2="246.56"/><line x1="298.91" y1="189.46" x2="299.53" y2="188.90"/><line x1="271.76" y1="234.39" x2="300.11" y2="226.22"/><line x1="241.94" y1="88.53" x2="270.77" y2="76.22"/><line x1="241.06" y1="79.76" x2="241.11" y2="77.80"/><line x1="480.00" y1="32.02" x2="447.51" y2="32.02"/><line x1="302.32" y1="249.62" x2="302.42" y2="248.97"/><line x1="273.54" y1="335.63" x2="274.72" y2="335.91"/><line x1="289.35" y1="128.23" x2="252.68" y2="144.97"/><line x1="278.70" y1="298.97" x2="279.11" y2="298.07"/><line x1="255.19" y1="66.53" x2="254.43" y2="66.33"/><line x1="280.32" y1="291.80" x2="280.39" y2="290.21"/><line x1="264.09" y1="199.87" x2="263.60" y2="198.31"/><line x1="275.88" y1="301.39" x2="275.89" y2="336.15"/><line x1="277.73" y1="300.35" x2="278.24" y2="299.73"/><line x1="271.29" y1="77.04" x2="270.77" y2="76.22"/><line x1="277.17" y1="300.83" x2="299.16" y2="333.45"/><line x1="205.46" y1="285.99" x2="212.88" y2="281.63"/><line x1="258.77" y1="172.82" x2="300.69" y2="186.85"/><line x1="249.73" y1="123.53" x2="286.63" y2="114.61"/><line x1="267.42" y1="72.53" x2="266.58" y2="71.87"/><line x1="307.15" y1="328.57" x2="307.78" y2="328.09"/><line x1="289.51" y1="337.00" x2="290.22" y2="336.97"/><line x1="258.77" y1="172.82" x2="300.16" y2="175.01"/><line x1="280.24" y1="284.09" x2="280.02" y2="281.47"/><line x1="241.50" y1="74.32" x2="254.43" y2="66.33"/><line x1="268.79" y1="216.80" x2="268.53" y2="215.91"/><line x1="272.36" y1="335.33" x2="273.54" y2="335.63"/><line x1="271.76" y1="234.39" x2="302.32" y2="249.62"/><line x1="224.61" y1="290.85" x2="212.06" y2="311.97"/><line x1="280.54" y1="336.74" x2="281.68" y2="336.82"/><line x1="271.76" y1="234.39" x2="302.73" y2="243.33"/><line x1="295.96" y1="192.42" x2="260.91" y2="186.23"/><line x1="241.75" y1="87.58" x2="241.58" y2="86.66"/><line x1="241.94" y1="88.53" x2="268.20" y2="73.22"/><line x1="306.77" y1="276.69" x2="305.51" y2="271.78"/><line x1="279.11" y1="298.07" x2="311.39" y2="300.45"/><line x1="271.74" y1="77.88" x2="241.94" y2="88.53"/><line x1="276.55" y1="301.18" x2="282.80" y2="336.88"/><line x1="256.70" y1="333.11" x2="264.95" y2="300.97"/><line x1="242.79" y1="70.22" x2="243.41" y2="69.15"/><line x1="300.11" y1="226.22" x2="299.13" y2="221.15"/><line x1="302.17" y1="250.79" x2="302.24" y2="250.22"/><line x1="215.98" y1="283.86" x2="216.66" y2="284.29"/><line x1="277.17" y1="300.83" x2="288.76" y2="337.02"/><line x1="264.95" y1="300.97" x2="258.44" y2="333.45"/><line x1="277.17" y1="300.83" x2="294.19" y2="336.41"/><line x1="293.70" y1="336.54" x2="294.19" y2="336.41"/><line x1="278.83" y1="272.00" x2="278.26" y2="268.30"/><line x1="302.24" y1="250.22" x2="302.32" y2="249.62"/><line x1="216.66" y1="284.29" x2="217.01" y2="284.94"/><line x1="247.69" y1="298.01" x2="251.18" y2="298.82"/><line x1="205.46" y1="285.99" x2="215.31" y2="283.42"/><line x1="215.50" y1="315.23" x2="216.49" y2="315.95"/><line x1="252.73" y1="145.88" x2="289.35" y2="128.23"/><line x1="258.77" y1="172.82" x2="300.85" y2="182.48"/><line x1="249.73" y1="123.53" x2="284.70" y2="108.97"/><line x1="294.19" y1="336.41" x2="294.64" y2="336.27"/><line x1="263.76" y1="70.00" x2="262.71" y2="69.42"/><line x1="303.59" y1="263.44" x2="302.91" y2="260.00"/><line x1="309.94" y1="290.36" x2="280.18" y2="293.29"/><line x1="271.76" y1="234.39" x2="302.06" y2="252.23"/><line x1="295.46" y1="195.12" x2="264.09" y2="199.87"/><line x1="261.52" y1="300.60" x2="254.98" y2="332.68"/><line x1="294.71" y1="151.62" x2="256.79" y2="166.47"/><line x1="216.49" y1="315.95" x2="225.88" y2="291.07"/><line x1="271.76" y1="234.39" x2="302.68" y2="247.11"/><line x1="275.15" y1="301.46" x2="273.54" y2="335.63"/><line x1="295.96" y1="192.42" x2="296.35" y2="191.68"/><line x1="241.94" y1="88.53" x2="271.29" y2="77.04"/><line x1="280.18" y1="293.29" x2="280.32" y2="291.80"/><line x1="480.00" y1="32.02" x2="480.00" y2="64.50"/><line x1="203.01" y1="291.59" x2="219.43" y2="288.44"/><line x1="300.91" y1="185.15" x2="300.90" y2="183.84"/><line x1="273.54" y1="335.63" x2="275.88" y2="301.39"/><line x1="278.70" y1="298.97" x2="311.49" y2="303.00"/><line x1="302.27" y1="331.38" x2="277.73" y2="300.35"/><line x1="255.19" y1="66.53" x2="241.50" y2="74.32"/><line x1="480.00" y1="479.91" x2="480.00" y2="447.42"/><line x1="302.77" y1="246.04" x2="302.79" y2="245.56"/><line x1="225.03" y1="290.94" x2="225.46" y2="291.02"/><line x1="260.09" y1="178.23" x2="259.51" y2="175.64"/><line x1="219.43" y1="288.44" x2="220.05" y2="289.19"/><line x1="219.76" y1="317.90" x2="220.94" y2="318.50"/><line x1="251.90" y1="138.28" x2="249.73" y2="123.53"/><line x1="277.17" y1="300.83" x2="291.52" y2="336.88"/><line x1="241.12" y1="81.82" x2="241.09" y2="81.10"/><line x1="277.73" y1="300.35" x2="307.15" y2="328.57"/><line x1="277.17" y1="300.83" x2="295.88" y2="335.71"/><line x1="280.38" y1="286.43" x2="280.24" y2="284.09"/><line x1="264.61" y1="201.50" x2="295.53" y2="197.44"/><line x1="262.39" y1="194.00" x2="262.06" y2="192.70"/><line x1="220.94" y1="318.50" x2="222.17" y2="319.06"/><line x1="279.39" y1="336.65" x2="280.54" y2="336.74"/><line x1="251.53" y1="65.72" x2="247.00" y2="66.31"/><line x1="259.50" y1="67.94" x2="258.58" y2="67.60"/><line x1="267.42" y1="72.53" x2="241.75" y2="87.58"/><line x1="280.24" y1="284.09" x2="306.77" y2="276.69"/><line x1="447.51" y1="479.91" x2="480.00" y2="447.42"/><line x1="272.36" y1="335.33" x2="275.15" y2="301.46"/><line x1="271.76" y1="234.39" x2="302.24" y2="250.22"/><line x1="300.16" y1="175.01" x2="299.93" y2="173.38"/><line x1="280.54" y1="336.74" x2="276.55" y2="301.18"/><line x1="277.58" y1="91.97" x2="244.17" y2="98.36"/><line x1="241.75" y1="87.58" x2="266.58" y2="71.87"/><line x1="241.94" y1="88.53" x2="268.92" y2="73.93"/><line x1="252.48" y1="65.89" x2="242.79" y2="70.22"/><line x1="300.93" y1="230.74" x2="300.11" y2="226.22"/><line x1="229.62" y1="292.48" x2="233.32" y2="293.79"/><line x1="203.66" y1="298.22" x2="204.30" y2="299.24"/><line x1="271.74" y1="77.88" x2="242.18" y2="89.52"/><line x1="284.70" y1="108.97" x2="284.08" y2="107.36"/><line x1="309.76" y1="324.20" x2="310.13" y2="322.72"/><line x1="242.79" y1="70.22" x2="251.97" y2="65.79"/><line x1="295.51" y1="194.13" x2="295.68" y2="193.24"/><line x1="261.01" y1="187.15" x2="260.91" y2="186.23"/><line x1="244.16" y1="297.11" x2="247.69" y2="298.01"/><line x1="277.17" y1="300.83" x2="287.97" y2="337.03"/><line x1="284.08" y1="107.36" x2="283.41" y2="105.69"/><line x1="256.83" y1="67.02" x2="255.99" y2="66.76"/><line x1="241.35" y1="84.93" x2="263.76" y2="70.00"/><line x1="277.17" y1="300.83" x2="293.70" y2="336.54"/><line x1="278.83" y1="272.00" x2="303.59" y2="263.44"/><line x1="297.53" y1="162.61" x2="294.71" y2="151.62"/><line x1="311.40" y1="309.31" x2="311.46" y2="306.27"/><line x1="263.76" y1="70.00" x2="241.27" y2="84.11"/><line x1="251.53" y1="65.72" x2="251.15" y2="65.68"/><line x1="245.93" y1="66.80" x2="247.00" y2="66.31"/><line x1="296.85" y1="191.02" x2="297.46" y2="190.44"/><line x1="261.52" y1="300.60" x2="253.30" y2="332.18"/><line x1="294.71" y1="151.62" x2="257.86" y2="169.76"/><line x1="277.58" y1="91.97" x2="246.13" y2="114.26"/><line x1="260.45" y1="68.31" x2="259.50" y2="67.94"/><line x1="247.00" y1="66.31" x2="248.17" y2="65.96"/><line x1="246.13" y1="114.26" x2="246.01" y2="113.24"/><line x1="305.51" y1="271.78" x2="304.45" y2="267.36"/><line x1="480.00" y1="479.91" x2="447.51" y2="479.91"/><line x1="225.03" y1="290.94" x2="214.56" y2="314.47"/><line x1="274.57" y1="84.93" x2="271.74" y2="77.88"/><line x1="278.24" y1="299.73" x2="310.72" y2="319.16"/><line x1="277.17" y1="300.83" x2="290.89" y2="336.93"/><line x1="311.10" y1="297.48" x2="310.62" y2="294.12"/><line x1="241.12" y1="81.82" x2="259.50" y2="67.94"/><line x1="277.17" y1="300.83" x2="295.49" y2="335.91"/><line x1="264.61" y1="201.50" x2="295.76" y2="200.23"/><line x1="202.99" y1="297.21" x2="203.66" y2="298.22"/><line x1="253.48" y1="154.15" x2="253.07" y2="151.48"/><line x1="242.76" y1="91.60" x2="242.46" y2="90.54"/><line x1="251.53" y1="65.72" x2="245.93" y2="66.80"/><line x1="241.11" y1="77.80" x2="256.83" y2="67.02"/><line x1="279.75" y1="295.91" x2="279.99" y2="294.66"/><line x1="309.34" y1="325.47" x2="309.76" y2="324.20"/><line x1="295.68" y1="193.24" x2="295.96" y2="192.42"/><line x1="207.15" y1="282.25" x2="212.34" y2="281.18"/><line x1="272.36" y1="335.33" x2="271.76" y2="301.40"/><line x1="240.59" y1="296.10" x2="244.16" y2="297.11"/><line x1="277.58" y1="91.97" x2="245.21" y2="102.87"/><line x1="296.65" y1="207.20" x2="267.90" y2="213.72"/><line x1="263.60" y1="198.31" x2="263.16" y2="196.80"/><line x1="210.37" y1="279.31" x2="210.83" y2="279.78"/><line x1="229.62" y1="292.48" x2="218.63" y2="317.28"/><line x1="285.98" y1="337.00" x2="277.17" y2="300.83"/><line x1="309.08" y1="286.21" x2="280.42" y2="288.50"/><line x1="295.51" y1="194.13" x2="262.76" y2="195.37"/><line x1="222.97" y1="290.32" x2="223.37" y2="290.48"/><line x1="278.24" y1="299.73" x2="308.87" y2="326.54"/><line x1="277.17" y1="300.83" x2="287.00" y2="337.02"/><line x1="278.24" y1="299.73" x2="311.40" y2="309.31"/><line x1="204.09" y1="289.10" x2="217.40" y2="285.61"/><line x1="269.37" y1="218.64" x2="269.21" y2="218.17"/><line x1="223.37" y1="290.48" x2="223.78" y2="290.62"/><line x1="250.05" y1="330.97" x2="261.52" y2="300.60"/><line x1="258.58" y1="67.60" x2="257.69" y2="67.30"/><line x1="253.71" y1="66.16" x2="253.06" y2="66.00"/><line x1="311.40" y1="309.31" x2="278.70" y2="298.97"/><line x1="251.53" y1="65.72" x2="250.85" y2="65.67"/><line x1="207.15" y1="282.25" x2="209.94" y2="278.83"/><line x1="213.46" y1="282.08" x2="214.05" y2="282.53"/><line x1="296.85" y1="191.02" x2="260.09" y2="178.23"/><line x1="261.52" y1="300.60" x2="251.65" y2="331.61"/><line x1="266.58" y1="71.87" x2="265.69" y2="71.23"/><line x1="290.89" y1="336.93" x2="291.52" y2="336.88"/><line x1="260.45" y1="68.31" x2="241.12" y2="81.82"/><line x1="270.34" y1="225.55" x2="269.49" y2="218.98"/><line x1="302.05" y1="252.63" x2="302.06" y2="252.23"/><line x1="261.53" y1="190.28" x2="261.32" y2="189.17"/><line x1="214.05" y1="282.53" x2="214.68" y2="282.97"/><line x1="220.05" y1="289.19" x2="204.30" y2="299.24"/><line x1="224.77" y1="320.09" x2="237.56" y2="325.27"/><line x1="212.84" y1="312.84" x2="225.03" y2="290.94"/><line x1="254.07" y1="156.98" x2="253.48" y2="154.15"/><line x1="241.58" y1="86.66" x2="241.45" y2="85.78"/><line x1="291.52" y1="336.88" x2="292.12" y2="336.82"/><line x1="305.51" y1="271.78" x2="279.32" y2="275.43"/><line x1="233.32" y1="293.79" x2="224.77" y2="320.09"/><line x1="267.90" y1="213.72" x2="264.61" y2="201.50"/><line x1="248.47" y1="330.25" x2="258.09" y2="300.11"/><line x1="225.03" y1="290.94" x2="213.67" y2="313.68"/><line x1="304.45" y1="267.36" x2="278.83" y2="272.00"/><line x1="258.44" y1="333.45" x2="260.22" y2="333.73"/><line x1="274.57" y1="84.93" x2="242.76" y2="91.60"/><line x1="278.24" y1="299.73" x2="310.45" y2="321.05"/><line x1="243.41" y1="69.15" x2="244.15" y2="68.23"/><line x1="311.10" y1="297.48" x2="279.75" y2="295.91"/><line x1="204.09" y1="289.10" x2="203.01" y2="291.59"/><line x1="217.01" y1="284.94" x2="217.40" y2="285.61"/><line x1="299.53" y1="188.90" x2="300.02" y2="188.29"/><line x1="260.22" y1="333.73" x2="272.36" y2="335.33"/><line x1="297.33" y1="211.38" x2="269.37" y2="218.64"/><line x1="241.11" y1="77.80" x2="257.69" y2="67.30"/><line x1="295.68" y1="193.24" x2="261.53" y2="190.28"/><line x1="302.42" y1="248.97" x2="302.53" y2="248.31"/><line x1="207.15" y1="282.25" x2="211.81" y2="280.71"/><line x1="217.40" y1="285.61" x2="217.84" y2="286.30"/><line x1="311.30" y1="312.12" x2="311.40" y2="309.31"/><line x1="252.68" y1="144.97" x2="252.59" y2="143.92"/><line x1="295.08" y1="336.10" x2="295.49" y2="335.91"/><line x1="296.65" y1="207.20" x2="268.23" y2="214.88"/><line x1="220.05" y1="289.19" x2="201.78" y2="294.66"/><line x1="263.60" y1="198.31" x2="295.51" y2="194.13"/><line x1="229.62" y1="292.48" x2="217.53" y2="316.63"/><line x1="220.05" y1="289.19" x2="210.66" y2="310.11"/><line x1="302.14" y1="254.60" x2="302.05" y2="252.63"/><line x1="270.77" y1="76.22" x2="270.21" y2="75.43"/><line x1="309.08" y1="286.21" x2="280.39" y2="290.21"/><line x1="300.85" y1="182.48" x2="300.78" y2="181.08"/><line x1="274.72" y1="335.91" x2="275.89" y2="336.15"/><line x1="278.24" y1="299.73" x2="308.35" y2="327.42"/><line x1="254.43" y1="66.33" x2="253.71" y2="66.16"/><line x1="278.24" y1="299.73" x2="311.30" y2="312.12"/><line x1="204.09" y1="289.10" x2="217.01" y2="284.94"/><line x1="302.80" y1="245.11" x2="302.73" y2="243.33"/><line x1="279.45" y1="297.05" x2="311.10" y2="297.48"/><line x1="286.99" y1="115.83" x2="286.63" y2="114.61"/><line x1="258.58" y1="67.60" x2="241.11" y2="77.80"/><line x1="280.02" y1="281.47" x2="279.71" y2="278.58"/><line x1="207.15" y1="282.25" x2="209.15" y2="277.87"/><line x1="225.46" y1="291.02" x2="225.88" y2="291.07"/><line x1="261.78" y1="191.45" x2="261.53" y2="190.28"/><line x1="266.58" y1="71.87" x2="241.58" y2="86.66"/><line x1="270.34" y1="225.55" x2="298.16" y2="216.03"/><line x1="294.64" y1="336.27" x2="295.08" y2="336.10"/><line x1="220.05" y1="289.19" x2="203.66" y2="298.22"/><line x1="283.41" y1="105.69" x2="246.56" y2="117.17"/><line x1="241.25" y1="75.98" x2="241.50" y2="74.32"/><line x1="292.07" y1="140.81" x2="252.75" y2="146.65"/><line x1="233.32" y1="293.79" x2="223.45" y2="319.59"/><line x1="248.47" y1="330.25" x2="254.64" y2="299.52"/><line x1="278.24" y1="299.73" x2="310.13" y2="322.72"/><line x1="278.26" y1="268.30" x2="271.76" y2="234.39"/><line x1="243.41" y1="69.15" x2="251.53" y2="65.72"/><line x1="258.77" y1="172.82" x2="257.86" y2="169.76"/><line x1="225.88" y1="291.07" x2="229.62" y2="292.48"/><line x1="262.71" y1="69.42" x2="261.61" y2="68.86"/><line x1="302.91" y1="260.00" x2="302.43" y2="257.05"/><line x1="295.68" y1="193.24" x2="261.78" y2="191.45"/><line x1="269.02" y1="217.55" x2="268.79" y2="216.80"/><line x1="480.00" y1="64.50" x2="447.51" y2="32.02"/><line x1="224.19" y1="290.74" x2="224.61" y2="290.85"/><line x1="296.65" y1="207.20" x2="268.53" y2="215.91"/><line x1="289.35" y1="128.23" x2="252.12" y2="139.90"/><line x1="237.56" y1="325.27" x2="248.47" y2="330.25"/><line x1="297.46" y1="190.44" x2="298.19" y2="189.95"/><line x1="220.05" y1="289.19" x2="202.24" y2="293.44"/><line x1="220.05" y1="289.19" x2="206.14" y2="302.39"/><line x1="215.31" y1="283.42" x2="215.98" y2="283.86"/><line x1="275.88" y1="301.39" x2="280.54" y2="336.74"/><line x1="259.51" y1="175.64" x2="258.77" y2="172.82"/><line x1="251.97" y1="65.79" x2="251.53" y2="65.72"/><line x1="222.17" y1="319.06" x2="223.45" y2="319.59"/><line x1="241.09" y1="81.10" x2="241.07" y2="80.42"/><line x1="278.24" y1="299.73" x2="307.78" y2="328.09"/><line x1="210.66" y1="310.11" x2="224.19" y2="290.74"/><line x1="258.77" y1="172.82" x2="298.94" y2="168.20"/><line x1="310.62" y1="294.12" x2="309.94" y2="290.36"/><line x1="297.33" y1="211.38" x2="296.65" y2="207.20"/><line x1="280.02" y1="281.47" x2="305.51" y2="271.78"/><line x1="241.27" y1="84.11" x2="241.21" y2="83.32"/><line x1="271.76" y1="234.39" x2="300.93" y2="230.74"/><line x1="204.30" y1="299.24" x2="204.93" y2="300.27"/><line x1="299.64" y1="171.70" x2="299.31" y2="169.97"/><line x1="279.99" y1="294.66" x2="280.18" y2="293.29"/><line x1="276.55" y1="301.18" x2="277.17" y2="300.83"/><line x1="270.34" y1="225.55" x2="299.13" y2="221.15"/><line x1="280.32" y1="291.80" x2="309.08" y2="286.21"/><line x1="220.05" y1="289.19" x2="202.99" y2="297.21"/><line x1="283.41" y1="105.69" x2="246.72" y2="118.09"/><line x1="241.25" y1="75.98" x2="255.19" y2="66.53"/><line x1="310.45" y1="321.05" x2="310.72" y2="319.16"/><line x1="300.90" y1="183.84" x2="300.85" y2="182.48"/><line x1="275.88" y1="301.39" x2="274.72" y2="335.91"/><line x1="211.31" y1="280.25" x2="211.81" y2="280.71"/><line x1="292.07" y1="140.81" x2="252.83" y2="148.98"/><line x1="233.32" y1="293.79" x2="222.17" y2="319.06"/><line x1="260.85" y1="185.38" x2="260.83" y2="184.60"/><line x1="302.79" y1="245.56" x2="302.80" y2="245.11"/><line x1="308.02" y1="281.65" x2="306.77" y2="276.69"/><line x1="278.26" y1="268.30" x2="302.91" y2="260.00"/><line x1="258.77" y1="172.82" x2="300.41" y2="187.60"/><line x1="262.76" y1="195.37" x2="262.39" y2="194.00"/><line x1="249.73" y1="123.53" x2="286.99" y2="115.83"/><line x1="307.15" y1="328.57" x2="278.24" y2="299.73"/><line x1="258.77" y1="172.82" x2="300.37" y2="176.59"/><line x1="258.77" y1="172.82" x2="294.71" y2="151.62"/><line x1="257.86" y1="169.76" x2="256.79" y2="166.47"/><line x1="287.97" y1="337.03" x2="288.76" y2="337.02"/><line x1="262.06" y1="192.70" x2="261.78" y2="191.45"/><line x1="271.76" y1="234.39" x2="302.80" y2="245.11"/><line x1="295.96" y1="192.42" x2="261.01" y2="187.15"/><line x1="269.02" y1="217.55" x2="296.65" y2="207.20"/><line x1="306.77" y1="276.69" x2="280.02" y2="281.47"/><line x1="246.01" y1="113.24" x2="245.88" y2="112.20"/><line x1="311.46" y1="306.27" x2="311.49" y2="303.00"/><line x1="299.93" y1="173.38" x2="299.64" y2="171.70"/><line x1="276.55" y1="301.18" x2="281.68" y2="336.82"/><line x1="289.35" y1="128.23" x2="252.31" y2="141.39"/><line x1="237.56" y1="325.27" x2="247.69" y2="298.01"/><line x1="297.46" y1="190.44" x2="259.51" y2="175.64"/><line x1="253.30" y1="332.18" x2="254.98" y2="332.68"/><line x1="300.11" y1="226.22" x2="270.34" y2="225.55"/><line x1="302.08" y1="251.80" x2="302.12" y2="251.32"/><line x1="275.88" y1="301.39" x2="279.39" y2="336.65"/><line x1="310.13" y1="322.72" x2="310.45" y2="321.05"/><line x1="214.56" y1="314.47" x2="215.50" y2="315.23"/><line x1="251.97" y1="65.79" x2="243.41" y2="69.15"/><line x1="253.07" y1="151.48" x2="252.83" y2="148.98"/><line x1="292.68" y1="336.74" x2="293.20" y2="336.65"/><line x1="260.91" y1="186.23" x2="260.85" y2="185.38"/><line x1="247.69" y1="298.01" x2="248.47" y2="330.25"/><line x1="205.46" y1="285.99" x2="214.68" y2="282.97"/><line x1="32.16" y1="32.09" x2="32.16" y2="64.58"/><line x1="210.66" y1="310.11" x2="223.78" y2="290.62"/><line x1="296.14" y1="203.48" x2="295.76" y2="200.23"/><line x1="258.77" y1="172.82" x2="300.90" y2="183.84"/><line x1="249.73" y1="123.53" x2="285.27" y2="110.49"/><line x1="303.59" y1="263.44" x2="278.26" y2="268.30"/><line x1="258.77" y1="172.82" x2="299.31" y2="169.97"/><line x1="271.76" y1="234.39" x2="302.05" y2="252.63"/><line x1="310.62" y1="294.12" x2="279.99" y2="294.66"/><line x1="271.76" y1="234.39" x2="302.61" y2="247.69"/><line x1="287.00" y1="337.02" x2="287.97" y2="337.03"/><line x1="241.27" y1="84.11" x2="262.71" y2="69.42"/><line x1="271.76" y1="234.39" x2="301.60" y2="234.71"/><line x1="295.96" y1="192.42" x2="260.75" y2="182.71"/><line x1="300.41" y1="187.60" x2="300.69" y2="186.85"/><line x1="269.21" y1="218.17" x2="269.02" y2="217.55"/><line x1="223.78" y1="290.62" x2="224.19" y2="290.74"/><line x1="276.55" y1="301.18" x2="285.98" y2="337.00"/><line x1="278.70" y1="298.97" x2="311.46" y2="306.27"/><line x1="218.63" y1="317.28" x2="219.76" y2="317.90"/><line x1="289.35" y1="128.23" x2="286.99" y2="115.83"/><line x1="248.17" y1="65.96" x2="249.46" y2="65.74"/><line x1="260.09" y1="178.23" x2="297.46" y2="190.44"/><line x1="280.42" y1="288.50" x2="280.38" y2="286.43"/><line x1="264.95" y1="300.97" x2="268.36" y2="301.24"/><line x1="258.77" y1="172.82" x2="300.02" y2="188.29"/><line x1="259.50" y1="67.94" x2="241.09" y2="81.10"/><line x1="258.77" y1="172.82" x2="300.53" y2="178.14"/><line x1="249.73" y1="123.53" x2="246.72" y2="118.09"/><line x1="258.77" y1="172.82" x2="297.53" y2="162.61"/><line x1="253.06" y1="66.00" x2="252.48" y2="65.89"/><line x1="271.76" y1="234.39" x2="302.17" y2="250.79"/><line x1="294.71" y1="151.62" x2="292.07" y2="140.81"/><line x1="271.76" y1="234.39" x2="302.79" y2="245.56"/><line x1="295.96" y1="192.42" x2="261.14" y2="188.12"/><line x1="214.68" y1="282.97" x2="215.31" y2="283.42"/><line x1="236.98" y1="295.00" x2="240.59" y2="296.10"/><line x1="241.94" y1="88.53" x2="269.59" y2="74.67"/><line x1="271.74" y1="77.88" x2="242.46" y2="90.54"/><line x1="289.35" y1="128.23" x2="252.47" y2="142.72"/><line x1="210.83" y1="279.78" x2="211.31" y2="280.25"/><line x1="241.45" y1="85.78" x2="241.35" y2="84.93"/><line x1="298.16" y1="216.03" x2="297.33" y2="211.38"/><line x1="256.83" y1="67.02" x2="241.25" y2="75.98"/><line x1="277.17" y1="300.83" x2="293.20" y2="336.65"/><line x1="32.00" y1="479.98" x2="64.49" y2="479.98"/><line x1="277.17" y1="300.83" x2="277.73" y2="300.35"/><line x1="205.46" y1="285.99" x2="214.05" y2="282.53"/><line x1="258.77" y1="172.82" x2="300.91" y2="185.15"/><line x1="249.73" y1="123.53" x2="285.78" y2="111.94"/><line x1="241.50" y1="74.32" x2="241.84" y2="72.80"/><line x1="271.76" y1="234.39" x2="302.14" y2="254.60"/><line x1="271.76" y1="234.39" x2="302.53" y2="248.31"/><line x1="224.61" y1="290.85" x2="225.03" y2="290.94"/><line x1="296.35" y1="191.68" x2="296.85" y2="191.02"/><line x1="241.84" y1="72.80" x2="242.27" y2="71.43"/><line x1="271.76" y1="234.39" x2="302.12" y2="238.13"/><line x1="295.96" y1="192.42" x2="260.83" y2="184.60"/><line x1="241.94" y1="88.53" x2="241.75" y2="87.58"/><line x1="261.61" y1="68.86" x2="260.45" y2="68.31"/><line x1="251.65" y1="331.61" x2="253.30" y2="332.18"/><line x1="280.42" y1="288.50" x2="308.02" y2="281.65"/><line x1="263.16" y1="196.80" x2="262.76" y2="195.37"/><line x1="276.55" y1="301.18" x2="284.95" y2="336.97"/><line x1="254.81" y1="159.98" x2="254.07" y2="156.98"/><line x1="302.06" y1="252.23" x2="302.08" y2="251.80"/><line x1="265.69" y1="71.23" x2="264.75" y2="70.61"/><line x1="292.12" y1="336.82" x2="292.68" y2="336.74"/><line x1="277.17" y1="300.83" x2="290.22" y2="336.97"/><line x1="264.95" y1="300.97" x2="272.36" y2="335.33"/><line x1="300.67" y1="179.63" x2="300.53" y2="178.14"/><line x1="277.17" y1="300.83" x2="295.08" y2="336.10"/><line x1="264.61" y1="201.50" x2="296.14" y2="203.48"/><line x1="213.67" y1="313.68" x2="214.56" y2="314.47"/><line x1="302.50" y1="241.01" x2="302.12" y2="238.13"/><line x1="242.76" y1="91.60" x2="271.74" y2="77.88"/><line x1="258.77" y1="172.82" x2="299.53" y2="188.90"/><line x1="251.53" y1="65.72" x2="244.98" y2="67.45"/><line x1="279.75" y1="295.91" x2="310.62" y2="294.12"/><line x1="309.94" y1="290.36" x2="309.08" y2="286.21"/><line x1="300.02" y1="188.29" x2="300.41" y2="187.60"/><line x1="272.36" y1="335.33" x2="268.36" y2="301.24"/><line x1="271.76" y1="234.39" x2="302.12" y2="251.32"/><line x1="295.46" y1="195.12" x2="295.51" y2="194.13"/><line x1="261.52" y1="300.60" x2="264.95" y2="300.97"/><line x1="294.71" y1="151.62" x2="254.81" y2="159.98"/><line x1="216.49" y1="315.95" x2="217.53" y2="316.63"/><line x1="295.96" y1="192.42" x2="261.32" y2="189.17"/><line x1="277.58" y1="91.97" x2="245.77" y2="111.14"/><line x1="257.69" y1="67.30" x2="256.83" y2="67.02"/><line x1="302.53" y1="248.31" x2="302.61" y2="247.69"/><line x1="241.94" y1="88.53" x2="270.21" y2="75.43"/><line x1="260.75" y1="182.71" x2="260.51" y2="180.58"/><line x1="217.84" y1="286.30" x2="218.32" y2="287.00"/><line x1="279.71" y1="278.58" x2="279.32" y2="275.43"/><line x1="252.59" y1="143.92" x2="252.47" y2="142.72"/><line x1="203.01" y1="291.59" x2="202.24" y2="293.44"/><line x1="241.21" y1="83.32" x2="241.16" y2="82.55"/><line x1="295.49" y1="335.91" x2="295.88" y2="335.71"/><line x1="295.51" y1="194.13" x2="263.16" y2="196.80"/><line x1="217.53" y1="316.63" x2="218.63" y2="317.28"/><line x1="252.47" y1="142.72" x2="252.31" y2="141.39"/><line x1="298.16" y1="216.03" x2="269.49" y2="218.98"/><line x1="270.21" y1="75.43" x2="269.59" y2="74.67"/><line x1="280.39" y1="290.21" x2="280.42" y2="288.50"/><line x1="277.17" y1="300.83" x2="292.68" y2="336.74"/><line x1="32.00" y1="479.98" x2="32.00" y2="447.50"/><line x1="277.17" y1="300.83" x2="302.27" y2="331.38"/><line x1="310.96" y1="317.04" x2="311.15" y2="314.70"/><line x1="264.61" y1="201.50" x2="264.09" y2="199.87"/><line x1="300.78" y1="181.08" x2="300.67" y2="179.63"/><line x1="275.89" y1="336.15" x2="277.06" y2="336.35"/><line x1="205.46" y1="285.99" x2="213.46" y2="282.08"/><line x1="269.59" y1="74.67" x2="268.92" y2="73.93"/><line x1="253.71" y1="66.16" x2="241.84" y2="72.80"/><line x1="251.53" y1="65.72" x2="249.46" y2="65.74"/><line x1="302.73" y1="243.33" x2="302.50" y2="241.01"/><line x1="201.78" y1="294.66" x2="201.63" y2="295.24"/><line x1="271.76" y1="234.39" x2="302.43" y2="257.05"/><line x1="286.63" y1="114.61" x2="286.23" y2="113.31"/><line x1="307.78" y1="328.09" x2="308.35" y2="327.42"/><line x1="224.61" y1="290.85" x2="212.84" y2="312.84"/><line x1="241.84" y1="72.80" x2="253.06" y2="66.00"/><line x1="209.53" y1="278.35" x2="209.94" y2="278.83"/><line x1="261.53" y1="190.28" x2="295.96" y2="192.42"/><line x1="241.94" y1="88.53" x2="267.42" y2="72.53"/><line x1="279.11" y1="298.07" x2="279.45" y2="297.05"/><line x1="224.77" y1="320.09" x2="236.98" y2="295.00"/><line x1="286.23" y1="113.31" x2="285.78" y2="111.94"/><line x1="241.58" y1="86.66" x2="265.69" y2="71.23"/><line x1="305.51" y1="271.78" x2="279.71" y2="278.58"/><line x1="256.70" y1="333.11" x2="258.44" y2="333.45"/><line x1="299.31" y1="169.97" x2="298.94" y2="168.20"/><line x1="265.69" y1="71.23" x2="241.45" y2="85.78"/><line x1="277.17" y1="300.83" x2="289.51" y2="337.00"/><line x1="299.13" y1="221.15" x2="298.16" y2="216.03"/><line x1="204.09" y1="289.10" x2="218.85" y2="287.71"/><line x1="277.17" y1="300.83" x2="294.64" y2="336.27"/><line x1="298.94" y1="168.20" x2="298.51" y2="166.39"/><line x1="246.72" y1="118.09" x2="246.56" y2="117.17"/><line x1="251.53" y1="65.72" x2="244.15" y2="68.23"/><line x1="212.34" y1="281.18" x2="212.88" y2="281.63"/><line x1="207.15" y1="282.25" x2="211.31" y2="280.25"/><line x1="309.94" y1="290.36" x2="280.32" y2="291.80"/><line x1="246.56" y1="117.17" x2="246.41" y2="116.22"/><line x1="261.52" y1="300.60" x2="256.70" y2="333.11"/><line x1="277.58" y1="91.97" x2="245.88" y2="112.20"/><line x1="275.15" y1="301.46" x2="275.88" y2="301.39"/><line x1="211.33" y1="311.06" x2="212.06" y2="311.97"/><line x1="260.75" y1="182.71" x2="296.35" y2="191.68"/><line x1="203.01" y1="291.59" x2="220.05" y2="289.19"/><line x1="311.49" y1="303.00" x2="311.39" y2="300.45"/><line x1="241.21" y1="83.32" x2="261.61" y2="68.86"/><line x1="302.27" y1="331.38" x2="307.15" y2="328.57"/><line x1="202.24" y1="293.44" x2="201.78" y2="294.66"/><line x1="255.71" y1="163.14" x2="254.81" y2="159.98"/><line x1="250.85" y1="65.67" x2="251.15" y2="65.68"/><line x1="278.24" y1="299.73" x2="311.15" y2="314.70"/><line x1="204.09" y1="289.10" x2="216.66" y2="284.29"/><line x1="277.17" y1="300.83" x2="292.12" y2="336.82"/><line x1="298.19" y1="189.95" x2="298.91" y2="189.46"/><line x1="223.45" y1="319.59" x2="224.77" y2="320.09"/><line x1="264.61" y1="201.50" x2="295.46" y2="195.12"/><line x1="258.58" y1="67.60" x2="241.06" y2="79.76"/><line x1="251.53" y1="65.72" x2="248.17" y2="65.96"/><line x1="207.15" y1="282.25" x2="209.53" y2="278.35"/><line x1="225.46" y1="291.02" x2="216.49" y2="315.95"/><line x1="281.68" y1="336.82" x2="282.80" y2="336.88"/><line x1="277.58" y1="91.97" x2="274.57" y2="84.93"/><line x1="209.53" y1="278.35" x2="209.15" y2="277.87"/><line x1="296.65" y1="207.20" x2="296.14" y2="203.48"/><line x1="204.93" y1="300.27" x2="205.54" y2="301.33"/><line x1="252.48" y1="65.89" x2="251.97" y2="65.79"/><line x1="282.80" y1="336.88" x2="283.89" y2="336.93"/><line x1="205.54" y1="301.33" x2="206.14" y2="302.39"/><line x1="248.47" y1="330.25" x2="251.18" y2="298.82"/><line x1="310.72" y1="319.16" x2="310.96" y2="317.04"/><line x1="278.24" y1="299.73" x2="309.76" y2="324.20"/><line x1="211.81" y1="280.71" x2="212.34" y2="281.18"/><line x1="241.35" y1="84.93" x2="241.27" y2="84.11"/><line x1="204.09" y1="289.10" x2="218.32" y2="287.00"/><line x1="260.83" y1="184.60" x2="260.75" y2="182.71"/><line x1="251.18" y1="298.82" x2="254.64" y2="299.52"/><line x1="262.71" y1="69.42" x2="241.21" y2="83.32"/><line x1="302.91" y1="260.00" x2="271.76" y2="234.39"/><line x1="295.68" y1="193.24" x2="262.06" y2="192.70"/><line x1="212.34" y1="281.18" x2="205.46" y2="285.99"/><line x1="207.15" y1="282.25" x2="210.83" y2="279.78"/><line x1="224.19" y1="290.74" x2="211.33" y2="311.06"/><line x1="256.79" y1="166.47" x2="255.71" y2="163.14"/><line x1="288.76" y1="337.02" x2="289.51" y2="337.00"/><line x1="249.46" y1="65.74" x2="250.85" y2="65.67"/><line x1="277.58" y1="91.97" x2="246.01" y2="113.24"/><line x1="296.65" y1="207.20" x2="268.79" y2="216.80"/><line x1="211.33" y1="311.06" x2="224.61" y2="290.85"/><line x1="220.05" y1="289.19" x2="205.54" y2="301.33"/><line x1="245.88" y1="112.20" x2="245.77" y2="111.14"/><line x1="242.27" y1="71.43" x2="242.79" y2="70.22"/><line x1="283.41" y1="105.69" x2="277.58" y2="91.97"/><line x1="311.49" y1="303.00" x2="279.11" y2="298.07"/><line x1="215.31" y1="283.42" x2="204.09" y2="289.10"/><line x1="259.51" y1="175.64" x2="298.19" y2="189.95"/><line x1="254.98" y1="332.68" x2="256.70" y2="333.11"/><line x1="245.77" y1="111.14" x2="245.21" y2="102.87"/><line x1="241.09" y1="81.10" x2="258.58" y2="67.60"/><line x1="302.12" y1="251.32" x2="302.17" y2="250.79"/><line x1="278.24" y1="299.73" x2="310.96" y2="317.04"/><line x1="204.09" y1="289.10" x2="215.98" y2="283.86"/><line x1="298.19" y1="189.95" x2="258.77" y2="172.82"/><line x1="252.83" y1="148.98" x2="252.75" y2="146.65"/><line x1="293.20" y1="336.65" x2="293.70" y2="336.54"/><line x1="258.58" y1="67.60" x2="241.07" y2="80.42"/><line x1="297.33" y1="211.38" x2="269.02" y2="217.55"/><line x1="295.76" y1="200.23" x2="295.53" y2="197.44"/><line x1="241.11" y1="77.80" x2="241.25" y2="75.98"/><line x1="225.46" y1="291.02" x2="215.50" y2="315.23"/><line x1="207.15" y1="282.25" x2="205.46" y2="285.99"/><line x1="252.75" y1="146.65" x2="252.73" y2="145.88"/><line x1="242.46" y1="90.54" x2="242.18" y2="89.52"/><line x1="279.99" y1="294.66" x2="309.94" y2="290.36"/><line x1="64.64" y1="32.09" x2="32.16" y2="64.58"/><line x1="218.85" y1="287.71" x2="219.43" y2="288.44"/><line x1="295.53" y1="197.44" x2="295.46" y2="195.12"/><line x1="296.65" y1="207.20" x2="264.61" y2="201.50"/><line x1="300.69" y1="186.85" x2="300.86" y2="186.03"/><line x1="271.76" y1="301.40" x2="275.15" y2="301.46"/><line x1="220.05" y1="289.19" x2="202.32" y2="296.22"/><line x1="242.18" y1="89.52" x2="241.94" y2="88.53"/><line x1="241.25" y1="75.98" x2="255.99" y2="66.76"/><line x1="302.68" y1="247.11" x2="302.73" y2="246.56"/><line x1="285.98" y1="337.00" x2="287.00" y2="337.02"/><line x1="309.08" y1="286.21" x2="308.02" y2="281.65"/><line x1="292.07" y1="140.81" x2="253.07" y2="151.48"/><line x1="233.32" y1="293.79" x2="220.94" y2="318.50"/><line x1="300.86" y1="186.03" x2="300.91" y2="185.15"/><line x1="252.31" y1="141.39" x2="252.12" y2="139.90"/><line x1="299.16" y1="333.45" x2="302.27" y2="331.38"/><line x1="308.02" y1="281.65" x2="280.24" y2="284.09"/><line x1="255.99" y1="66.76" x2="255.19" y2="66.53"/><line x1="302.73" y1="246.56" x2="302.77" y2="246.04"/><line x1="278.24" y1="299.73" x2="309.34" y2="325.47"/><line x1="262.76" y1="195.37" x2="295.68" y2="193.24"/><line x1="278.24" y1="299.73" x2="278.70" y2="298.97"/><line x1="204.09" y1="289.10" x2="217.84" y2="286.30"/><line x1="252.12" y1="139.90" x2="251.90" y2="138.28"/><line x1="268.92" y1="73.93" x2="268.20" y2="73.22"/><line x1="250.05" y1="330.97" x2="251.65" y2="331.61"/><line x1="295.68" y1="193.24" x2="262.39" y2="194.00"/><line x1="207.15" y1="282.25" x2="210.37" y2="279.31"/><line x1="268.20" y1="73.22" x2="267.42" y2="72.53"/><line x1="237.56" y1="325.27" x2="244.16" y2="297.11"/><line x1="300.37" y1="176.59" x2="300.16" y2="175.01"/><line x1="220.05" y1="289.19" x2="204.93" y2="300.27"/><line x1="212.84" y1="312.84" x2="213.67" y2="313.68"/><line x1="279.32" y1="275.43" x2="278.83" y2="272.00"/><line x1="283.41" y1="105.69" x2="246.27" y2="115.25"/><line x1="242.27" y1="71.43" x2="252.48" y2="65.89"/><line x1="301.60" y1="234.71" x2="300.93" y2="230.74"/><line x1="275.88" y1="301.39" x2="278.22" y2="336.51"/><line x1="214.56" y1="314.47" x2="225.46" y2="291.02"/><line x1="292.07" y1="140.81" x2="289.35" y2="128.23"/><line x1="233.32" y1="293.79" x2="236.98" y2="295.00"/><line x1="285.27" y1="110.49" x2="284.70" y2="108.97"/><line x1="264.75" y1="70.61" x2="263.76" y2="70.00"/><line x1="248.47" y1="330.25" x2="250.05" y2="330.97"/><line x1="304.45" y1="267.36" x2="303.59" y2="263.44"/><line x1="269.49" y1="218.98" x2="269.37" y2="218.64"/><line x1="32.16" y1="32.09" x2="64.64" y2="32.09"/><line x1="210.66" y1="310.11" x2="223.37" y2="290.48"/><line x1="258.77" y1="172.82" x2="299.64" y2="171.70"/><line x1="268.36" y1="301.24" x2="271.76" y2="301.40"/><line x1="297.33" y1="211.38" x2="269.21" y2="218.17"/><line x1="302.61" y1="247.69" x2="302.68" y2="247.11"/><line x1="218.32" y1="287.00" x2="218.85" y2="287.71"/><line x1="258.09" y1="300.11" x2="261.52" y2="300.60"/><line x1="246.27" y1="115.25" x2="246.13" y2="114.26"/><line x1="295.88" y1="335.71" x2="299.16" y2="333.45"/><line x1="260.51" y1="180.58" x2="260.09" y2="178.23"/><line x1="218.85" y1="287.71" x2="203.01" y2="291.59"/><line x1="218.63" y1="317.28" x2="233.32" y2="293.79"/><line x1="289.35" y1="128.23" x2="249.73" y2="123.53"/><line x1="220.05" y1="289.19" x2="201.63" y2="295.24"/><line x1="241.16" y1="82.55" x2="241.12" y2="81.82"/><line x1="220.05" y1="289.19" x2="222.97" y2="290.32"/><line x1="32.00" y1="447.50" x2="64.49" y2="479.98"/></g></svg>