<svg xmlns="http://www.w3.org/2000/svg" width="512" height="512"><rect width="512" height="512" fill="#0a0f1a"/><text x="12" y="20" font-family="monospace" font-size="11" fill="#4a7fa5">FRONT (XZ)</text><g stroke="#00d4ff" stroke-width="0.6" opacity="0.85"><line x1="290.49" y1="83.12" x2="278.20" y2="85.63"/><line x1="221.37" y1="266.99" x2="203.27" y2="276.56"/><line x1="225.63" y1="120.03" x2="232.91" y2="80.89"/><line x1="196.87" y1="216.64" x2="168.64" y2="224.27"/><line x1="236.42" y1="83.13" x2="233.26" y2="118.36"/><line x1="225.63" y1="120.03" x2="213.99" y2="82.77"/><line x1="247.93" y1="119.62" x2="261.61" y2="93.05"/><line x1="308.95" y1="112.40" x2="309.61" y2="114.15"/><line x1="308.91" y1="256.77" x2="341.23" y2="258.60"/><line x1="308.32" y1="269.40" x2="307.57" y2="274.98"/><line x1="301.57" y1="292.36" x2="330.78" y2="317.28"/><line x1="299.32" y1="295.47" x2="322.84" y2="324.44"/><line x1="283.07" y1="138.20" x2="312.51" y2="123.39"/><line x1="218.78" y1="123.38" x2="198.44" y2="90.23"/><line x1="218.78" y1="123.38" x2="204.74" y2="85.09"/><line x1="222.87" y1="295.02" x2="222.84" y2="268.90"/><line x1="281.07" y1="82.12" x2="280.44" y2="82.71"/><line x1="338.92" y1="221.47" x2="338.09" y2="220.52"/><line x1="193.54" y1="204.12" x2="192.94" y2="200.94"/><line x1="338.48" y1="232.95" x2="339.02" y2="234.98"/><line x1="305.17" y1="284.66" x2="338.56" y2="297.25"/><line x1="195.54" y1="161.89" x2="195.92" y2="161.35"/><line x1="261.61" y1="93.05" x2="249.29" y2="120.00"/><line x1="279.37" y1="134.17" x2="280.08" y2="134.85"/><line x1="284.74" y1="106.11" x2="283.96" y2="104.39"/><line x1="303.09" y1="332.81" x2="300.65" y2="333.01"/><line x1="237.55" y1="307.71" x2="244.89" y2="289.26"/><line x1="256.18" y1="122.47" x2="274.45" y2="130.55"/><line x1="334.04" y1="178.05" x2="304.06" y2="190.28"/><line x1="164.76" y1="210.39" x2="163.32" y2="202.94"/><line x1="241.49" y1="84.77" x2="242.66" y2="85.08"/><line x1="305.53" y1="201.55" x2="348.90" y2="204.17"/><line x1="342.35" y1="269.62" x2="308.32" y2="269.40"/><line x1="283.96" y1="104.39" x2="283.01" y2="102.47"/><line x1="326.73" y1="163.28" x2="327.39" y2="164.94"/><line x1="257.84" y1="321.77" x2="266.16" y2="301.40"/><line x1="351.35" y1="216.94" x2="351.62" y2="218.19"/><line x1="242.66" y1="85.08" x2="238.65" y2="118.17"/><line x1="166.95" y1="136.49" x2="168.10" y2="133.23"/><line x1="161.56" y1="158.15" x2="162.03" y2="155.16"/><line x1="252.03" y1="120.87" x2="267.13" y2="97.76"/><line x1="283.45" y1="303.86" x2="278.80" y2="331.18"/><line x1="327.26" y1="320.85" x2="299.32" y2="295.47"/><line x1="271.81" y1="327.07" x2="275.23" y2="303.80"/><line x1="317.67" y1="137.22" x2="293.70" y2="151.45"/><line x1="320.39" y1="143.27" x2="326.04" y2="161.41"/><line x1="350.39" y1="229.61" x2="348.45" y2="230.43"/><line x1="221.37" y1="266.99" x2="206.26" y2="279.86"/><line x1="225.63" y1="120.03" x2="230.47" y2="79.22"/><line x1="351.62" y1="218.19" x2="351.86" y2="219.34"/><line x1="246.59" y1="119.27" x2="247.93" y2="119.62"/><line x1="341.06" y1="244.65" x2="341.10" y2="245.70"/><line x1="221.37" y1="266.99" x2="201.92" y2="274.23"/><line x1="225.63" y1="120.03" x2="222.94" y2="80.28"/><line x1="301.57" y1="292.36" x2="334.93" y2="309.26"/><line x1="267.13" y1="97.76" x2="253.41" y2="121.37"/><line x1="290.49" y1="83.12" x2="277.65" y2="87.84"/><line x1="301.57" y1="292.36" x2="327.26" y2="320.85"/><line x1="299.32" y1="295.47" x2="326.45" y2="321.54"/><line x1="302.48" y1="180.29" x2="303.29" y2="185.12"/><line x1="290.34" y1="333.24" x2="288.42" y2="333.14"/><line x1="218.78" y1="123.38" x2="201.67" y2="87.68"/><line x1="222.87" y1="295.02" x2="231.56" y2="278.24"/><line x1="218.78" y1="123.38" x2="207.00" y2="84.04"/><line x1="304.81" y1="195.75" x2="337.76" y2="185.99"/><line x1="230.47" y1="79.22" x2="231.05" y2="79.55"/><line x1="191.65" y1="187.95" x2="191.60" y2="184.64"/><line x1="197.93" y1="219.74" x2="171.06" y2="230.71"/><line x1="241.27" y1="118.36" x2="246.94" y2="86.03"/><line x1="341.10" y1="245.70" x2="340.99" y2="246.64"/><line x1="204.90" y1="139.01" x2="173.82" y2="119.49"/><line x1="341.57" y1="279.43" x2="341.32" y2="281.51"/><line x1="309.47" y1="331.86" x2="307.50" y2="332.24"/><line x1="306.68" y1="106.85" x2="276.76" y2="131.99"/><line x1="278.43" y1="92.44" x2="279.04" y2="94.22"/><line x1="288.42" y1="333.14" x2="286.60" y2="332.98"/><line x1="258.65" y1="298.03" x2="247.99" y2="315.84"/><line x1="237.55" y1="307.71" x2="235.67" y2="281.93"/><line x1="196.22" y1="265.90" x2="192.55" y2="262.23"/><line x1="352.38" y1="223.71" x2="352.36" y2="224.64"/><line x1="171.06" y1="230.71" x2="196.87" y2="216.64"/><line x1="246.94" y1="86.03" x2="247.88" y2="86.27"/><line x1="305.53" y1="201.55" x2="346.17" y2="198.85"/><line x1="194.69" y1="163.03" x2="195.13" y2="162.45"/><line x1="341.32" y1="281.51" x2="341.03" y2="283.60"/><line x1="322.84" y1="324.44" x2="322.20" y2="324.92"/><line x1="288.56" y1="81.86" x2="281.07" y2="82.12"/><line x1="319.95" y1="142.39" x2="320.39" y2="143.27"/><line x1="306.52" y1="280.07" x2="339.63" y2="292.18"/><line x1="222.84" y1="268.90" x2="207.03" y2="280.59"/><line x1="247.99" y1="315.84" x2="245.44" y2="314.01"/><line x1="351.17" y1="228.78" x2="346.31" y2="230.16"/><line x1="212.78" y1="252.07" x2="188.14" y2="257.83"/><line x1="202.85" y1="275.96" x2="202.48" y2="275.37"/><line x1="352.36" y1="224.64" x2="352.29" y2="225.50"/><line x1="303.52" y1="288.76" x2="301.57" y2="292.36"/><line x1="281.89" y1="100.33" x2="280.76" y2="98.17"/><line x1="340.73" y1="252.00" x2="340.72" y2="253.21"/><line x1="195.13" y1="162.45" x2="195.54" y2="161.89"/><line x1="281.03" y1="111.17" x2="281.90" y2="111.93"/><line x1="322.20" y1="324.92" x2="321.59" y2="325.40"/><line x1="283.45" y1="303.86" x2="273.88" y2="328.67"/><line x1="262.59" y1="324.00" x2="260.22" y2="322.94"/><line x1="280.19" y1="331.67" x2="278.80" y2="331.18"/><line x1="346.17" y1="198.85" x2="346.83" y2="199.99"/><line x1="202.48" y1="275.37" x2="202.17" y2="274.80"/><line x1="221.37" y1="266.99" x2="203.75" y2="277.17"/><line x1="225.63" y1="120.03" x2="232.46" y2="80.51"/><line x1="340.72" y1="253.21" x2="340.69" y2="253.90"/><line x1="194.24" y1="207.28" x2="193.54" y2="204.12"/><line x1="339.63" y1="292.18" x2="305.17" y2="284.66"/><line x1="221.37" y1="266.99" x2="220.00" y2="265.08"/><line x1="225.63" y1="120.03" x2="216.08" y2="82.29"/><line x1="301.57" y1="292.36" x2="331.64" y2="316.00"/><line x1="308.95" y1="112.40" x2="279.37" y2="134.17"/><line x1="308.91" y1="256.77" x2="341.03" y2="257.49"/><line x1="218.78" y1="123.38" x2="197.50" y2="90.91"/><line x1="278.80" y1="331.18" x2="277.47" y2="330.64"/><line x1="218.78" y1="123.38" x2="204.17" y2="85.52"/><line x1="250.58" y1="293.23" x2="237.55" y2="307.71"/><line x1="346.83" y1="199.99" x2="347.43" y2="201.10"/><line x1="222.87" y1="295.02" x2="224.40" y2="270.79"/><line x1="239.96" y1="118.24" x2="241.27" y2="118.36"/><line x1="337.53" y1="221.51" x2="337.33" y2="221.95"/><line x1="193.54" y1="204.12" x2="164.76" y2="210.39"/><line x1="305.17" y1="284.66" x2="339.22" y2="294.37"/><line x1="286.48" y1="80.74" x2="281.77" y2="81.53"/><line x1="319.38" y1="327.34" x2="318.89" y2="327.82"/><line x1="278.52" y1="85.06" x2="278.20" y2="85.63"/><line x1="237.55" y1="307.71" x2="247.76" y2="291.33"/><line x1="220.00" y1="265.08" x2="218.72" y2="263.15"/><line x1="337.33" y1="221.95" x2="337.17" y2="222.36"/><line x1="192.73" y1="165.48" x2="193.26" y2="164.84"/><line x1="336.45" y1="304.92" x2="335.70" y2="307.17"/><line x1="165.89" y1="139.71" x2="166.95" y2="136.49"/><line x1="281.54" y1="136.40" x2="311.76" y2="120.55"/><line x1="318.89" y1="327.82" x2="318.00" y2="328.55"/><line x1="279.35" y1="304.10" x2="271.81" y2="327.07"/><line x1="480.00" y1="32.02" x2="447.51" y2="32.02"/><line x1="326.73" y1="163.28" x2="300.78" y2="171.60"/><line x1="242.58" y1="118.52" x2="243.91" y2="118.73"/><line x1="218.72" y1="263.15" x2="218.13" y2="262.28"/><line x1="257.90" y1="90.28" x2="259.10" y2="91.13"/><line x1="341.23" y1="258.60" x2="341.47" y2="259.79"/><line x1="283.45" y1="303.86" x2="280.19" y2="331.67"/><line x1="202.34" y1="87.09" x2="202.97" y2="86.52"/><line x1="329.24" y1="168.76" x2="329.82" y2="169.65"/><line x1="271.81" y1="327.07" x2="277.33" y2="304.02"/><line x1="349.85" y1="206.89" x2="350.06" y2="207.73"/><line x1="337.34" y1="227.59" x2="337.64" y2="229.25"/><line x1="191.82" y1="191.24" x2="191.65" y2="187.95"/><line x1="246.59" y1="119.27" x2="260.33" y2="92.05"/><line x1="296.76" y1="298.11" x2="319.90" y2="326.85"/><line x1="221.37" y1="266.99" x2="202.17" y2="274.80"/><line x1="225.63" y1="120.03" x2="224.03" y2="79.79"/><line x1="301.57" y1="292.36" x2="335.70" y2="307.17"/><line x1="296.76" y1="298.11" x2="309.47" y2="331.86"/><line x1="301.57" y1="292.36" x2="328.11" y2="320.12"/><line x1="218.78" y1="123.38" x2="200.94" y2="88.30"/><line x1="302.48" y1="180.29" x2="330.36" y2="170.34"/><line x1="278.00" y1="90.78" x2="278.43" y2="92.44"/><line x1="222.87" y1="295.02" x2="233.57" y2="280.09"/><line x1="346.71" y1="230.30" x2="351.17" y2="228.78"/><line x1="204.90" y1="139.01" x2="172.24" y2="122.93"/><line x1="280.04" y1="110.28" x2="281.03" y2="111.17"/><line x1="312.80" y1="124.72" x2="313.05" y2="125.99"/><line x1="309.47" y1="331.86" x2="293.89" y2="300.26"/><line x1="270.83" y1="302.90" x2="268.53" y2="302.23"/><line x1="345.44" y1="197.67" x2="346.17" y2="198.85"/><line x1="196.22" y1="265.90" x2="212.78" y2="252.07"/><line x1="233.40" y1="81.26" x2="233.93" y2="81.64"/><line x1="192.73" y1="165.48" x2="160.94" y2="164.02"/><line x1="351.49" y1="228.26" x2="305.53" y2="201.55"/><line x1="206.29" y1="84.08" x2="207.00" y2="84.04"/><line x1="283.87" y1="139.19" x2="292.53" y2="149.89"/><line x1="278.70" y1="133.55" x2="308.95" y2="112.40"/><line x1="351.49" y1="228.26" x2="343.09" y2="227.71"/><line x1="222.84" y1="268.90" x2="207.86" y2="281.36"/><line x1="229.10" y1="78.58" x2="224.89" y2="79.31"/><line x1="163.32" y1="202.94" x2="162.18" y2="195.16"/><line x1="351.49" y1="228.26" x2="338.09" y2="220.52"/><line x1="304.95" y1="102.87" x2="286.13" y2="110.96"/><line x1="303.52" y1="288.76" x2="336.45" y2="304.92"/><line x1="264.29" y1="95.25" x2="265.69" y2="96.47"/><line x1="251.11" y1="87.28" x2="243.91" y2="118.73"/><line x1="304.95" y1="102.87" x2="275.57" y2="131.18"/><line x1="283.45" y1="303.86" x2="275.01" y2="329.39"/><line x1="299.87" y1="167.73" x2="326.04" y2="161.41"/><line x1="344.62" y1="229.25" x2="344.21" y2="228.92"/><line x1="176.91" y1="242.57" x2="173.82" y2="236.81"/><line x1="243.80" y1="85.35" x2="244.89" y2="85.58"/><line x1="268.61" y1="99.12" x2="278.96" y2="109.26"/><line x1="221.37" y1="266.99" x2="204.29" y2="277.81"/><line x1="225.63" y1="120.03" x2="232.06" y2="80.19"/><line x1="243.91" y1="118.73" x2="245.25" y2="118.98"/><line x1="284.43" y1="113.77" x2="284.88" y2="113.39"/><line x1="296.76" y1="298.11" x2="316.96" y2="329.22"/><line x1="283.36" y1="80.35" x2="284.24" y2="79.76"/><line x1="263.72" y1="300.43" x2="261.22" y2="299.31"/><line x1="326.04" y1="161.41" x2="326.73" y2="163.28"/><line x1="344.21" y1="228.92" x2="343.82" y2="228.56"/><line x1="222.87" y1="295.02" x2="226.06" y2="272.67"/><line x1="239.96" y1="118.24" x2="245.94" y2="85.80"/><line x1="216.08" y1="82.29" x2="213.99" y2="82.77"/><line x1="200.28" y1="225.90" x2="199.06" y2="222.83"/><line x1="341.03" y1="257.49" x2="341.23" y2="258.60"/><line x1="241.27" y1="118.36" x2="242.58" y2="118.52"/><line x1="284.88" y1="113.39" x2="285.26" y2="113.01"/><line x1="286.48" y1="80.74" x2="282.53" y2="80.94"/><line x1="310.78" y1="117.47" x2="281.54" y2="136.40"/><line x1="252.99" y1="319.08" x2="250.52" y2="317.53"/><line x1="349.59" y1="206.02" x2="349.85" y2="206.89"/><line x1="193.76" y1="164.23" x2="194.24" y2="163.62"/><line x1="256.72" y1="89.55" x2="257.90" y2="90.28"/><line x1="192.73" y1="165.48" x2="162.60" y2="152.15"/><line x1="215.64" y1="125.67" x2="192.29" y2="94.52"/><line x1="336.45" y1="304.92" x2="301.57" y2="292.36"/><line x1="284.86" y1="332.75" x2="283.21" y2="332.46"/><line x1="281.54" y1="136.40" x2="311.30" y2="119.04"/><line x1="351.49" y1="228.26" x2="345.05" y2="229.53"/><line x1="338.74" y1="187.63" x2="344.66" y2="196.46"/><line x1="480.00" y1="32.02" x2="480.00" y2="64.50"/><line x1="235.67" y1="281.93" x2="222.87" y2="295.02"/><line x1="342.01" y1="225.90" x2="341.53" y2="225.06"/><line x1="351.49" y1="228.26" x2="341.53" y2="225.06"/><line x1="242.58" y1="118.52" x2="251.11" y2="87.28"/><line x1="337.12" y1="226.05" x2="337.34" y2="227.59"/><line x1="308.77" y1="263.33" x2="342.40" y2="267.78"/><line x1="340.72" y1="285.72" x2="340.39" y2="287.85"/><line x1="168.64" y1="224.27" x2="195.03" y2="210.41"/><line x1="257.90" y1="90.28" x2="246.59" y2="119.27"/><line x1="304.95" y1="102.87" x2="284.74" y2="106.11"/><line x1="286.09" y1="111.38" x2="286.13" y2="110.96"/><line x1="283.45" y1="303.86" x2="281.66" y2="332.09"/><line x1="311.28" y1="331.44" x2="309.47" y2="331.86"/><line x1="256.02" y1="296.58" x2="253.33" y2="294.99"/><line x1="480.00" y1="479.91" x2="480.00" y2="447.42"/><line x1="329.24" y1="168.76" x2="302.48" y2="180.29"/><line x1="341.53" y1="225.06" x2="340.97" y2="224.19"/><line x1="213.90" y1="254.37" x2="196.22" y2="265.90"/><line x1="233.26" y1="118.36" x2="237.75" y2="83.61"/><line x1="342.24" y1="263.93" x2="342.34" y2="264.72"/><line x1="296.76" y1="298.11" x2="320.44" y2="326.37"/><line x1="286.13" y1="110.96" x2="286.04" y2="110.05"/><line x1="279.86" y1="83.31" x2="279.35" y2="83.89"/><line x1="312.51" y1="123.39" x2="312.80" y2="124.72"/><line x1="296.76" y1="298.11" x2="311.28" y2="331.44"/><line x1="242.85" y1="312.05" x2="240.22" y2="309.95"/><line x1="264.93" y1="324.94" x2="270.83" y2="302.90"/><line x1="225.50" y1="78.81" x2="228.32" y2="78.25"/><line x1="350.40" y1="211.55" x2="350.51" y2="212.46"/><line x1="340.71" y1="254.67" x2="340.77" y2="255.53"/><line x1="212.69" y1="128.39" x2="215.64" y2="125.67"/><line x1="237.75" y1="83.61" x2="239.03" y2="84.03"/><line x1="196.87" y1="158.91" x2="198.62" y2="153.32"/><line x1="249.29" y1="120.00" x2="262.93" y2="94.11"/><line x1="331.64" y1="316.00" x2="330.78" y2="317.28"/><line x1="312.80" y1="124.72" x2="283.87" y2="139.19"/><line x1="270.83" y1="302.90" x2="262.59" y2="324.00"/><line x1="447.51" y1="479.91" x2="480.00" y2="447.42"/><line x1="224.40" y1="270.79" x2="222.84" y2="268.90"/><line x1="307.57" y1="274.98" x2="340.72" y2="285.72"/><line x1="192.94" y1="200.94" x2="192.46" y2="197.73"/><line x1="339.58" y1="237.00" x2="340.04" y2="238.85"/><line x1="200.55" y1="148.13" x2="202.64" y2="143.36"/><line x1="192.73" y1="165.48" x2="160.79" y2="166.92"/><line x1="262.93" y1="94.11" x2="264.29" y2="95.25"/><line x1="330.78" y1="317.28" x2="329.91" y2="318.40"/><line x1="290.72" y1="301.94" x2="298.04" y2="333.15"/><line x1="280.76" y1="98.17" x2="296.67" y2="89.53"/><line x1="336.58" y1="183.49" x2="336.67" y2="183.81"/><line x1="351.49" y1="228.26" x2="343.45" y2="228.15"/><line x1="229.35" y1="118.99" x2="236.42" y2="83.13"/><line x1="229.10" y1="78.58" x2="228.32" y2="78.25"/><line x1="308.77" y1="263.33" x2="342.11" y2="263.05"/><line x1="222.84" y1="268.90" x2="208.74" y2="282.16"/><line x1="351.49" y1="228.26" x2="338.92" y2="221.47"/><line x1="163.32" y1="202.94" x2="192.08" y2="194.50"/><line x1="304.95" y1="102.87" x2="286.09" y2="111.38"/><line x1="342.26" y1="271.50" x2="342.14" y2="273.42"/><line x1="303.52" y1="288.76" x2="337.18" y2="302.52"/><line x1="178.87" y1="110.18" x2="180.65" y2="107.43"/><line x1="304.95" y1="102.87" x2="275.00" y2="130.84"/><line x1="298.04" y1="333.15" x2="295.27" y2="333.24"/><line x1="255.43" y1="320.49" x2="263.72" y2="300.43"/><line x1="351.86" y1="219.34" x2="352.05" y2="220.39"/><line x1="176.91" y1="242.57" x2="200.28" y2="225.90"/><line x1="243.80" y1="85.35" x2="239.96" y2="118.24"/><line x1="268.61" y1="99.12" x2="256.18" y2="122.47"/><line x1="308.16" y1="231.32" x2="308.91" y2="256.77"/><line x1="342.14" y1="273.42" x2="341.99" y2="275.38"/><line x1="326.45" y1="321.54" x2="325.67" y2="322.20"/><line x1="296.76" y1="298.11" x2="318.00" y2="328.55"/><line x1="225.63" y1="120.03" x2="222.11" y2="121.50"/><line x1="318.14" y1="138.36" x2="318.61" y2="139.44"/><line x1="283.36" y1="80.35" x2="286.48" y2="80.74"/><line x1="263.72" y1="300.43" x2="252.99" y2="319.08"/><line x1="170.71" y1="126.55" x2="204.90" y2="139.01"/><line x1="340.99" y1="246.64" x2="340.91" y2="247.61"/><line x1="193.26" y1="164.84" x2="193.76" y2="164.23"/><line x1="307.48" y1="108.75" x2="278.03" y2="132.99"/><line x1="325.67" y1="322.20" x2="324.92" y2="322.81"/><line x1="286.60" y1="332.98" x2="284.86" y2="332.75"/><line x1="346.31" y1="230.16" x2="345.90" y2="229.99"/><line x1="204.89" y1="278.46" x2="204.29" y2="277.81"/><line x1="198.62" y1="153.32" x2="200.55" y2="148.13"/><line x1="248.76" y1="86.50" x2="249.59" y2="86.75"/><line x1="340.91" y1="247.61" x2="340.84" y2="248.64"/><line x1="207.33" y1="135.06" x2="209.92" y2="131.52"/><line x1="341.03" y1="283.60" x2="340.72" y2="285.72"/><line x1="305.53" y1="201.55" x2="337.53" y2="221.51"/><line x1="213.99" y1="82.77" x2="212.13" y2="83.17"/><line x1="321.59" y1="325.40" x2="321.00" y2="325.89"/><line x1="215.64" y1="125.67" x2="190.24" y2="96.24"/><line x1="268.53" y1="302.23" x2="266.16" y2="301.40"/><line x1="305.53" y1="201.55" x2="308.16" y2="231.32"/><line x1="284.86" y1="332.75" x2="283.45" y2="303.86"/><line x1="160.73" y1="169.78" x2="192.73" y2="165.48"/><line x1="279.04" y1="94.22" x2="279.81" y2="96.13"/><line x1="245.44" y1="314.01" x2="256.02" y2="296.58"/><line x1="351.49" y1="228.26" x2="345.47" y2="229.78"/><line x1="237.36" y1="118.15" x2="238.65" y2="118.17"/><line x1="351.49" y1="228.26" x2="342.01" y2="225.90"/><line x1="168.64" y1="224.27" x2="195.91" y2="213.53"/><line x1="308.77" y1="263.33" x2="342.42" y2="265.99"/><line x1="340.72" y1="285.72" x2="306.52" y2="280.07"/><line x1="222.11" y1="121.50" x2="212.13" y2="83.17"/><line x1="304.95" y1="102.87" x2="285.35" y2="107.63"/><line x1="292.53" y1="149.89" x2="293.70" y2="151.45"/><line x1="280.44" y1="82.71" x2="279.86" y2="83.31"/><line x1="256.02" y1="296.58" x2="242.85" y2="312.05"/><line x1="480.00" y1="479.91" x2="447.51" y2="479.91"/><line x1="308.16" y1="231.32" x2="340.42" y2="240.54"/><line x1="308.16" y1="231.32" x2="340.75" y2="250.83"/><line x1="195.92" y1="161.35" x2="196.87" y2="158.91"/><line x1="287.24" y1="303.14" x2="288.42" y2="333.14"/><line x1="309.61" y1="114.15" x2="310.22" y2="115.84"/><line x1="296.76" y1="298.11" x2="321.00" y2="325.89"/><line x1="201.58" y1="228.97" x2="176.91" y2="242.57"/><line x1="173.82" y1="236.81" x2="171.06" y2="230.71"/><line x1="201.92" y1="274.23" x2="201.73" y2="273.68"/><line x1="225.50" y1="78.81" x2="229.10" y2="78.58"/><line x1="340.71" y1="254.67" x2="308.91" y2="256.77"/><line x1="212.69" y1="128.39" x2="188.23" y2="98.13"/><line x1="338.56" y1="297.25" x2="337.88" y2="299.96"/><line x1="294.82" y1="153.34" x2="295.91" y2="155.56"/><line x1="198.44" y1="90.23" x2="199.33" y2="89.57"/><line x1="280.08" y1="134.85" x2="280.79" y2="135.60"/><line x1="283.01" y1="102.47" x2="281.89" y2="100.33"/><line x1="300.78" y1="171.60" x2="328.03" y2="166.41"/><line x1="276.21" y1="330.04" x2="275.01" y2="329.39"/><line x1="201.59" y1="271.07" x2="196.22" y2="265.90"/><line x1="307.57" y1="274.98" x2="341.03" y2="283.60"/><line x1="341.47" y1="259.79" x2="341.73" y2="260.98"/><line x1="192.94" y1="200.94" x2="163.32" y2="202.94"/><line x1="238.65" y1="118.17" x2="243.80" y2="85.35"/><line x1="305.53" y1="201.55" x2="352.29" y2="225.50"/><line x1="285.57" y1="112.61" x2="285.81" y2="112.21"/><line x1="205.55" y1="279.15" x2="204.89" y2="278.46"/><line x1="200.55" y1="148.13" x2="169.36" y2="129.91"/><line x1="305.53" y1="201.55" x2="336.98" y2="223.05"/><line x1="277.96" y1="86.20" x2="277.79" y2="86.75"/><line x1="348.45" y1="230.43" x2="347.87" y2="230.47"/><line x1="351.49" y1="228.26" x2="343.82" y2="228.56"/><line x1="229.35" y1="118.99" x2="235.74" y2="82.77"/><line x1="308.77" y1="263.33" x2="341.94" y2="262.06"/><line x1="304.95" y1="102.87" x2="285.98" y2="111.80"/><line x1="253.41" y1="121.37" x2="268.61" y2="99.12"/><line x1="304.06" y1="190.28" x2="337.38" y2="185.31"/><line x1="311.76" y1="120.55" x2="312.16" y2="122.00"/><line x1="275.23" y1="303.80" x2="273.07" y2="303.43"/><line x1="308.16" y1="231.32" x2="338.01" y2="231.04"/><line x1="231.05" y1="79.55" x2="231.59" y2="79.87"/><line x1="161.37" y1="187.04" x2="160.90" y2="178.57"/><line x1="308.16" y1="231.32" x2="341.10" y2="245.70"/><line x1="245.25" y1="118.98" x2="257.90" y2="90.28"/><line x1="233.26" y1="118.36" x2="237.36" y2="118.15"/><line x1="268.61" y1="99.12" x2="254.80" y2="121.90"/><line x1="282.30" y1="137.27" x2="283.07" y2="138.20"/><line x1="308.16" y1="231.32" x2="340.71" y2="254.67"/><line x1="293.89" y1="300.26" x2="305.38" y2="332.55"/><line x1="292.27" y1="84.52" x2="293.89" y2="86.05"/><line x1="338.22" y1="186.76" x2="338.74" y2="187.63"/><line x1="166.54" y1="217.50" x2="164.76" y2="210.39"/><line x1="231.59" y1="79.87" x2="232.06" y2="80.19"/><line x1="274.45" y1="130.55" x2="285.57" y2="112.61"/><line x1="260.33" y1="92.05" x2="261.61" y2="93.05"/><line x1="247.88" y1="86.27" x2="248.76" y2="86.50"/><line x1="173.82" y1="119.49" x2="175.45" y2="116.21"/><line x1="307.48" y1="108.75" x2="277.38" y2="132.46"/><line x1="349.96" y1="229.92" x2="350.39" y2="229.61"/><line x1="330.36" y1="170.34" x2="334.04" y2="178.05"/><line x1="201.59" y1="271.07" x2="217.46" y2="261.17"/><line x1="346.31" y1="230.16" x2="351.49" y2="228.26"/><line x1="305.53" y1="201.55" x2="350.40" y2="211.55"/><line x1="352.29" y1="225.50" x2="352.16" y2="226.29"/><line x1="198.62" y1="153.32" x2="166.95" y2="136.49"/><line x1="305.53" y1="201.55" x2="352.20" y2="221.36"/><line x1="248.76" y1="86.50" x2="242.58" y2="118.52"/><line x1="163.27" y1="149.11" x2="164.05" y2="146.02"/><line x1="207.33" y1="135.06" x2="177.13" y2="113.11"/><line x1="281.90" y1="111.93" x2="282.69" y2="112.58"/><line x1="305.53" y1="201.55" x2="337.79" y2="221.04"/><line x1="207.94" y1="83.93" x2="209.10" y2="83.75"/><line x1="321.59" y1="325.40" x2="296.76" y2="298.11"/><line x1="268.53" y1="302.23" x2="257.84" y2="321.77"/><line x1="348.99" y1="230.33" x2="348.45" y2="230.43"/><line x1="295.91" y1="155.56" x2="296.96" y2="158.11"/><line x1="305.53" y1="201.55" x2="337.34" y2="227.59"/><line x1="351.49" y1="228.26" x2="345.90" y2="229.99"/><line x1="237.36" y1="118.15" x2="242.66" y2="85.08"/><line x1="224.03" y1="79.79" x2="222.94" y2="80.28"/><line x1="340.69" y1="253.90" x2="340.71" y2="254.67"/><line x1="282.69" y1="112.58" x2="283.37" y2="113.10"/><line x1="222.11" y1="121.50" x2="210.51" y2="83.50"/><line x1="292.53" y1="149.89" x2="317.67" y2="137.22"/><line x1="277.47" y1="330.64" x2="276.21" y2="330.04"/><line x1="347.43" y1="201.10" x2="347.98" y2="202.16"/><line x1="222.94" y1="80.28" x2="221.59" y2="80.78"/><line x1="293.70" y1="151.45" x2="318.14" y2="138.36"/><line x1="308.16" y1="231.32" x2="340.04" y2="238.85"/><line x1="245.25" y1="118.98" x2="252.19" y2="87.54"/><line x1="182.48" y1="104.84" x2="184.36" y2="102.43"/><line x1="308.16" y1="231.32" x2="340.79" y2="249.72"/><line x1="339.22" y1="294.37" x2="338.56" y2="297.25"/><line x1="287.24" y1="303.14" x2="290.34" y2="333.24"/><line x1="309.61" y1="114.15" x2="280.08" y2="134.85"/><line x1="343.82" y1="228.56" x2="343.45" y2="228.15"/><line x1="173.82" y1="236.81" x2="197.93" y2="219.74"/><line x1="162.18" y1="195.16" x2="161.37" y2="187.04"/><line x1="234.49" y1="82.01" x2="235.10" y2="82.39"/><line x1="337.17" y1="222.36" x2="337.05" y2="222.72"/><line x1="256.18" y1="122.47" x2="281.03" y2="111.17"/><line x1="341.79" y1="277.38" x2="341.57" y2="279.43"/><line x1="252.19" y1="87.54" x2="253.29" y2="87.89"/><line x1="337.76" y1="185.99" x2="338.22" y2="186.76"/><line x1="212.69" y1="128.39" x2="186.27" y2="100.20"/><line x1="274.45" y1="130.55" x2="275.00" y2="130.84"/><line x1="294.82" y1="153.34" x2="320.39" y2="143.27"/><line x1="318.00" y1="328.55" x2="316.96" y2="329.22"/><line x1="261.22" y1="299.31" x2="258.65" y2="298.03"/><line x1="300.78" y1="171.60" x2="327.39" y2="164.94"/><line x1="305.53" y1="201.55" x2="350.06" y2="207.73"/><line x1="343.45" y1="228.15" x2="343.09" y2="227.71"/><line x1="276.76" y1="131.99" x2="307.48" y2="108.75"/><line x1="201.59" y1="271.07" x2="213.90" y2="254.37"/><line x1="305.53" y1="201.55" x2="351.08" y2="215.70"/><line x1="163.27" y1="149.11" x2="194.69" y2="163.03"/><line x1="341.47" y1="259.79" x2="308.77" y2="263.33"/><line x1="305.53" y1="201.55" x2="352.36" y2="224.64"/><line x1="285.57" y1="112.61" x2="304.95" y2="102.87"/><line x1="200.55" y1="148.13" x2="168.10" y2="133.23"/><line x1="305.53" y1="201.55" x2="337.05" y2="222.72"/><line x1="350.06" y1="207.73" x2="350.20" y2="208.52"/><line x1="217.46" y1="261.17" x2="216.71" y2="259.83"/><line x1="229.35" y1="118.99" x2="235.10" y2="82.39"/><line x1="320.39" y1="143.27" x2="295.91" y2="155.56"/><line x1="335.70" y1="307.17" x2="334.93" y2="309.26"/><line x1="350.39" y1="229.61" x2="350.80" y2="229.23"/><line x1="304.06" y1="190.28" x2="337.07" y2="184.71"/><line x1="203.58" y1="85.99" x2="204.17" y2="85.52"/><line x1="311.76" y1="120.55" x2="282.30" y2="137.27"/><line x1="290.49" y1="83.12" x2="278.52" y2="85.06"/><line x1="290.49" y1="83.12" x2="292.27" y2="84.52"/><line x1="308.32" y1="269.40" x2="341.79" y2="277.38"/><line x1="308.16" y1="231.32" x2="337.64" y2="229.25"/><line x1="299.32" y1="295.47" x2="323.50" y2="323.93"/><line x1="209.92" y1="131.52" x2="212.69" y2="128.39"/><line x1="161.37" y1="187.04" x2="191.60" y2="184.64"/><line x1="259.10" y1="91.13" x2="260.33" y2="92.05"/><line x1="308.16" y1="231.32" x2="341.06" y2="244.65"/><line x1="245.25" y1="118.98" x2="256.72" y2="89.55"/><line x1="202.17" y1="274.80" x2="201.92" y2="274.23"/><line x1="293.89" y1="300.26" x2="307.50" y2="332.24"/><line x1="287.24" y1="303.14" x2="283.45" y2="303.86"/><line x1="338.09" y1="220.52" x2="305.53" y2="201.55"/><line x1="329.82" y1="169.65" x2="330.36" y2="170.34"/><line x1="292.27" y1="84.52" x2="279.04" y2="94.22"/><line x1="231.56" y1="278.24" x2="229.64" y2="276.40"/><line x1="279.37" y1="134.17" x2="309.61" y2="114.15"/><line x1="166.54" y1="217.50" x2="193.54" y2="204.12"/><line x1="197.50" y1="90.91" x2="198.44" y2="90.23"/><line x1="240.28" y1="84.42" x2="241.49" y2="84.77"/><line x1="274.45" y1="130.55" x2="285.26" y2="113.01"/><line x1="342.40" y1="265.41" x2="342.42" y2="265.99"/><line x1="256.18" y1="122.47" x2="283.95" y2="113.50"/><line x1="173.82" y1="119.49" x2="207.33" y2="135.06"/><line x1="313.05" y1="125.99" x2="317.19" y2="136.04"/><line x1="164.76" y1="210.39" x2="192.94" y2="200.94"/><line x1="349.96" y1="229.92" x2="349.49" y2="230.16"/><line x1="305.53" y1="201.55" x2="348.47" y2="203.18"/><line x1="201.59" y1="271.07" x2="218.13" y2="262.28"/><line x1="350.65" y1="213.46" x2="350.84" y2="214.54"/><line x1="305.53" y1="201.55" x2="350.34" y2="210.73"/><line x1="192.55" y1="262.23" x2="188.14" y2="257.83"/><line x1="198.62" y1="153.32" x2="165.89" y2="139.71"/><line x1="278.20" y1="85.63" x2="277.96" y2="86.20"/><line x1="250.65" y1="120.42" x2="252.03" y2="120.87"/><line x1="305.53" y1="201.55" x2="352.05" y2="220.39"/><line x1="247.76" y1="291.33" x2="244.89" y2="289.26"/><line x1="329.91" y1="318.40" x2="329.01" y2="319.34"/><line x1="163.27" y1="149.11" x2="196.87" y2="158.91"/><line x1="305.53" y1="201.55" x2="351.76" y2="227.67"/><line x1="207.94" y1="83.93" x2="222.11" y2="121.50"/><line x1="268.53" y1="302.23" x2="260.22" y2="322.94"/><line x1="285.26" y1="113.01" x2="285.57" y2="112.61"/><line x1="166.95" y1="136.49" x2="200.55" y2="148.13"/><line x1="224.89" y1="79.31" x2="225.63" y2="120.03"/><line x1="224.89" y1="79.31" x2="224.03" y2="79.79"/><line x1="160.94" y1="164.02" x2="161.20" y2="161.10"/><line x1="320.39" y1="143.27" x2="299.87" y2="167.73"/><line x1="275.57" y1="131.18" x2="276.15" y2="131.56"/><line x1="218.13" y1="262.28" x2="217.46" y2="261.17"/><line x1="301.64" y1="175.78" x2="302.48" y2="180.29"/><line x1="290.49" y1="83.12" x2="277.68" y2="87.30"/><line x1="207.86" y1="281.36" x2="207.03" y2="280.59"/><line x1="202.97" y1="86.52" x2="203.58" y2="85.99"/><line x1="277.33" y1="304.02" x2="275.23" y2="303.80"/><line x1="308.16" y1="231.32" x2="339.58" y2="237.00"/><line x1="299.32" y1="295.47" x2="296.76" y2="298.11"/><line x1="218.78" y1="123.38" x2="206.29" y2="84.08"/><line x1="182.48" y1="104.84" x2="212.69" y2="128.39"/><line x1="273.07" y1="303.43" x2="270.83" y2="302.90"/><line x1="319.06" y1="140.47" x2="319.51" y2="141.46"/><line x1="287.24" y1="303.14" x2="292.33" y2="333.27"/><line x1="191.65" y1="187.95" x2="161.37" y2="187.04"/><line x1="293.89" y1="300.26" x2="290.72" y2="301.94"/><line x1="347.11" y1="230.39" x2="346.71" y2="230.30"/><line x1="173.82" y1="236.81" x2="199.06" y2="222.83"/><line x1="278.43" y1="92.44" x2="292.27" y2="84.52"/><line x1="234.49" y1="82.01" x2="229.35" y2="118.99"/><line x1="256.18" y1="122.47" x2="280.04" y2="110.28"/><line x1="233.57" y1="280.09" x2="231.56" y2="278.24"/><line x1="237.55" y1="307.71" x2="237.84" y2="283.77"/><line x1="294.82" y1="153.34" x2="319.95" y2="142.39"/><line x1="305.53" y1="201.55" x2="345.44" y2="197.67"/><line x1="261.22" y1="299.31" x2="250.52" y2="317.53"/><line x1="480.00" y1="64.50" x2="447.51" y2="32.02"/><line x1="172.24" y1="122.93" x2="173.82" y2="119.49"/><line x1="305.53" y1="201.55" x2="349.85" y2="206.89"/><line x1="305.53" y1="201.55" x2="350.84" y2="214.54"/><line x1="306.52" y1="280.07" x2="340.02" y2="290.01"/><line x1="163.27" y1="149.11" x2="194.24" y2="163.62"/><line x1="278.03" y1="132.99" x2="278.70" y2="133.55"/><line x1="212.78" y1="252.07" x2="192.55" y2="262.23"/><line x1="207.00" y1="84.04" x2="207.94" y2="83.93"/><line x1="340.97" y1="224.19" x2="340.36" y2="223.31"/><line x1="195.03" y1="210.41" x2="194.24" y2="207.28"/><line x1="262.59" y1="324.00" x2="268.53" y2="302.23"/><line x1="192.29" y1="94.52" x2="194.37" y2="92.97"/><line x1="350.39" y1="229.61" x2="347.11" y2="230.39"/><line x1="304.06" y1="190.28" x2="336.83" y2="184.21"/><line x1="160.79" y1="166.92" x2="160.94" y2="164.02"/><line x1="290.49" y1="83.12" x2="278.89" y2="84.48"/><line x1="253.33" y1="294.99" x2="250.58" y2="293.23"/><line x1="290.49" y1="83.12" x2="278.43" y2="92.44"/><line x1="221.37" y1="266.99" x2="201.59" y2="271.07"/><line x1="225.63" y1="120.03" x2="218.17" y2="81.79"/><line x1="301.57" y1="292.36" x2="332.49" y2="314.57"/><line x1="308.32" y1="269.40" x2="341.99" y2="275.38"/><line x1="308.91" y1="256.77" x2="340.87" y2="256.46"/><line x1="295.27" y1="333.24" x2="292.33" y2="333.27"/><line x1="239.03" y1="84.03" x2="240.28" y2="84.42"/><line x1="299.32" y1="295.47" x2="324.19" y2="323.39"/><line x1="283.95" y1="113.50" x2="284.43" y2="113.77"/><line x1="208.74" y1="282.16" x2="207.86" y2="281.36"/><line x1="293.70" y1="151.45" x2="294.82" y2="153.34"/><line x1="164.05" y1="146.02" x2="164.92" y2="142.89"/><line x1="218.78" y1="123.38" x2="203.58" y2="85.99"/><line x1="285.78" y1="108.94" x2="285.35" y2="107.63"/><line x1="304.81" y1="195.75" x2="305.53" y2="201.55"/><line x1="180.65" y1="107.43" x2="182.48" y2="104.84"/><line x1="310.22" y1="115.84" x2="310.78" y2="117.47"/><line x1="256.18" y1="122.47" x2="283.37" y2="113.10"/><line x1="313.05" y1="125.99" x2="292.53" y2="149.89"/><line x1="305.53" y1="201.55" x2="347.98" y2="202.16"/><line x1="305.53" y1="201.55" x2="350.32" y2="209.99"/><line x1="340.42" y1="240.54" x2="340.71" y2="242.07"/><line x1="288.56" y1="81.86" x2="290.49" y2="83.12"/><line x1="280.79" y1="135.60" x2="281.54" y2="136.40"/><line x1="212.78" y1="252.07" x2="201.58" y2="228.97"/><line x1="336.83" y1="184.21" x2="337.07" y2="184.71"/><line x1="311.30" y1="119.04" x2="311.76" y2="120.55"/><line x1="169.36" y1="129.91" x2="170.71" y2="126.55"/><line x1="341.99" y1="275.38" x2="341.79" y2="277.38"/><line x1="320.39" y1="143.27" x2="298.94" y2="164.20"/><line x1="275.57" y1="131.18" x2="305.84" y2="104.89"/><line x1="337.34" y1="227.59" x2="308.16" y2="231.32"/><line x1="301.64" y1="175.78" x2="329.24" y2="168.76"/><line x1="246.59" y1="119.27" x2="259.10" y2="91.13"/><line x1="290.49" y1="83.12" x2="277.79" y2="86.75"/><line x1="221.37" y1="266.99" x2="202.48" y2="275.37"/><line x1="347.49" y1="230.45" x2="347.11" y2="230.39"/><line x1="225.63" y1="120.03" x2="233.93" y2="81.64"/><line x1="352.20" y1="221.36" x2="352.30" y2="222.24"/><line x1="225.63" y1="120.03" x2="229.35" y2="118.99"/><line x1="301.57" y1="292.36" x2="329.01" y2="319.34"/><line x1="302.48" y1="180.29" x2="329.82" y2="169.65"/><line x1="308.91" y1="256.77" x2="308.77" y2="263.33"/><line x1="218.78" y1="123.38" x2="200.16" y2="88.92"/><line x1="299.32" y1="295.47" x2="321.59" y2="325.40"/><line x1="218.78" y1="123.38" x2="205.80" y2="84.37"/><line x1="283.07" y1="138.20" x2="283.87" y2="139.19"/><line x1="273.07" y1="303.43" x2="264.93" y2="324.94"/><line x1="319.06" y1="140.47" x2="294.82" y2="153.34"/><line x1="342.34" y1="264.72" x2="342.40" y2="265.41"/><line x1="286.04" y1="110.05" x2="285.78" y2="108.94"/><line x1="160.90" y1="178.57" x2="160.73" y2="169.78"/><line x1="340.84" y1="248.64" x2="340.79" y2="249.72"/><line x1="256.18" y1="122.47" x2="278.96" y2="109.26"/><line x1="350.51" y1="212.46" x2="350.65" y2="213.46"/><line x1="237.55" y1="307.71" x2="240.11" y2="285.60"/><line x1="305.53" y1="201.55" x2="344.66" y2="196.46"/><line x1="283.87" y1="139.19" x2="313.05" y2="125.99"/><line x1="306.52" y1="280.07" x2="340.39" y2="287.85"/><line x1="278.03" y1="132.99" x2="308.24" y2="110.61"/><line x1="340.04" y1="238.85" x2="340.42" y2="240.54"/><line x1="279.81" y1="96.13" x2="280.76" y2="98.17"/><line x1="264.29" y1="95.25" x2="250.65" y2="120.42"/><line x1="351.99" y1="227.02" x2="351.76" y2="227.67"/><line x1="283.45" y1="303.86" x2="276.21" y2="330.04"/><line x1="249.59" y1="86.75" x2="250.38" y2="87.01"/><line x1="336.67" y1="183.81" x2="336.83" y2="184.21"/><line x1="350.39" y1="229.61" x2="347.49" y2="230.45"/><line x1="297.97" y1="160.99" x2="298.94" y2="164.20"/><line x1="221.37" y1="266.99" x2="204.89" y2="278.46"/><line x1="225.63" y1="120.03" x2="231.59" y2="79.87"/><line x1="290.49" y1="83.12" x2="279.35" y2="83.89"/><line x1="233.93" y1="81.64" x2="234.49" y2="82.01"/><line x1="275.00" y1="130.84" x2="275.57" y2="131.18"/><line x1="221.37" y1="266.99" x2="201.59" y2="273.14"/><line x1="225.63" y1="120.03" x2="220.00" y2="81.28"/><line x1="301.57" y1="292.36" x2="333.32" y2="312.96"/><line x1="295.27" y1="333.24" x2="287.24" y2="303.14"/><line x1="308.91" y1="256.77" x2="340.77" y2="255.53"/><line x1="218.78" y1="123.38" x2="202.97" y2="86.52"/><line x1="283.95" y1="113.50" x2="274.45" y2="130.55"/><line x1="352.05" y1="220.39" x2="352.20" y2="221.36"/><line x1="222.87" y1="295.02" x2="227.80" y2="274.54"/><line x1="239.96" y1="118.24" x2="244.89" y2="85.58"/><line x1="304.81" y1="195.75" x2="338.74" y2="187.63"/><line x1="200.28" y1="225.90" x2="173.82" y2="236.81"/><line x1="32.16" y1="32.09" x2="32.16" y2="64.58"/><line x1="218.78" y1="123.38" x2="222.11" y2="121.50"/><line x1="348.47" y1="203.18" x2="348.90" y2="204.17"/><line x1="241.27" y1="118.36" x2="248.76" y2="86.50"/><line x1="286.48" y1="80.74" x2="284.24" y2="79.76"/><line x1="318.61" y1="139.44" x2="319.06" y2="140.47"/><line x1="252.99" y1="319.08" x2="261.22" y2="299.31"/><line x1="200.16" y1="88.92" x2="200.94" y2="88.30"/><line x1="310.22" y1="115.84" x2="280.79" y2="135.60"/><line x1="258.65" y1="298.03" x2="256.02" y2="296.58"/><line x1="328.03" y1="166.41" x2="328.65" y2="167.68"/><line x1="254.80" y1="121.90" x2="256.18" y2="122.47"/><line x1="193.76" y1="164.23" x2="163.27" y2="149.11"/><line x1="192.73" y1="165.48" x2="162.03" y2="155.16"/><line x1="324.92" y1="322.81" x2="324.19" y2="323.39"/><line x1="336.98" y1="223.05" x2="336.96" y2="223.33"/><line x1="338.74" y1="187.63" x2="305.53" y2="201.55"/><line x1="204.29" y1="277.81" x2="203.75" y2="277.17"/><line x1="232.06" y1="80.19" x2="232.46" y2="80.51"/><line x1="288.56" y1="81.86" x2="279.86" y2="83.31"/><line x1="242.58" y1="118.52" x2="250.38" y2="87.01"/><line x1="212.78" y1="252.07" x2="180.32" y2="247.99"/><line x1="190.24" y1="96.24" x2="192.29" y2="94.52"/><line x1="277.38" y1="132.46" x2="278.03" y2="132.99"/><line x1="293.89" y1="86.05" x2="295.35" y2="87.72"/><line x1="283.45" y1="303.86" x2="283.21" y2="332.46"/><line x1="283.45" y1="303.86" x2="279.35" y2="304.10"/><line x1="169.36" y1="129.91" x2="202.64" y2="143.36"/><line x1="352.16" y1="226.29" x2="351.99" y2="227.02"/><line x1="312.16" y1="122.00" x2="312.51" y2="123.39"/><line x1="195.91" y1="213.53" x2="195.03" y2="210.41"/><line x1="221.37" y1="266.99" x2="202.85" y2="275.96"/><line x1="225.63" y1="120.03" x2="233.40" y2="81.26"/><line x1="279.86" y1="83.31" x2="290.49" y2="83.12"/><line x1="296.76" y1="298.11" x2="312.92" y2="330.96"/><line x1="225.63" y1="120.03" x2="234.49" y2="82.01"/><line x1="247.93" y1="119.62" x2="249.29" y2="120.00"/><line x1="301.57" y1="292.36" x2="329.91" y2="318.40"/><line x1="242.85" y1="312.05" x2="253.33" y2="294.99"/><line x1="218.78" y1="123.38" x2="199.33" y2="89.57"/><line x1="204.74" y1="85.09" x2="205.28" y2="84.71"/><line x1="218.78" y1="123.38" x2="205.28" y2="84.71"/><line x1="303.29" y1="185.12" x2="304.06" y2="190.28"/><line x1="222.87" y1="295.02" x2="208.74" y2="282.16"/><line x1="196.87" y1="158.91" x2="164.05" y2="146.02"/><line x1="321.00" y1="325.89" x2="320.44" y2="326.37"/><line x1="305.17" y1="284.66" x2="303.52" y2="288.76"/><line x1="160.90" y1="178.57" x2="194.05" y2="173.56"/><line x1="201.73" y1="273.68" x2="201.59" y2="273.14"/><line x1="237.55" y1="307.71" x2="242.46" y2="287.43"/><line x1="199.33" y1="89.57" x2="200.16" y2="88.92"/><line x1="345.90" y1="229.99" x2="345.47" y2="229.78"/><line x1="215.64" y1="125.67" x2="218.78" y2="123.38"/><line x1="275.01" y1="329.39" x2="273.88" y2="328.67"/><line x1="342.35" y1="269.62" x2="342.26" y2="271.50"/><line x1="175.45" y1="116.21" x2="177.13" y2="113.11"/><line x1="163.32" y1="202.94" x2="192.46" y2="197.73"/><line x1="351.49" y1="228.26" x2="339.67" y2="222.40"/><line x1="257.84" y1="321.77" x2="255.43" y2="320.49"/><line x1="303.52" y1="288.76" x2="337.88" y2="299.96"/><line x1="304.95" y1="102.87" x2="281.89" y2="100.33"/><line x1="184.07" y1="253.07" x2="180.32" y2="247.99"/><line x1="277.79" y1="86.75" x2="277.68" y2="87.30"/><line x1="252.03" y1="120.87" x2="253.41" y2="121.37"/><line x1="283.45" y1="303.86" x2="277.47" y2="330.64"/><line x1="347.87" y1="230.47" x2="347.49" y2="230.45"/><line x1="327.26" y1="320.85" x2="326.45" y2="321.54"/><line x1="242.46" y1="287.43" x2="240.11" y2="285.60"/><line x1="271.81" y1="327.07" x2="269.54" y2="326.47"/><line x1="337.38" y1="185.31" x2="337.76" y2="185.99"/><line x1="168.10" y1="133.23" x2="169.36" y2="129.91"/><line x1="221.37" y1="266.99" x2="205.55" y2="279.15"/><line x1="225.63" y1="120.03" x2="231.05" y2="79.55"/><line x1="315.77" y1="329.85" x2="314.43" y2="330.43"/><line x1="296.76" y1="298.11" x2="318.89" y2="327.82"/><line x1="32.00" y1="479.98" x2="64.49" y2="479.98"/><line x1="225.63" y1="120.03" x2="221.59" y2="80.78"/><line x1="301.57" y1="292.36" x2="334.14" y2="311.19"/><line x1="269.54" y1="326.47" x2="267.25" y2="325.76"/><line x1="277.68" y1="87.30" x2="277.65" y2="87.84"/><line x1="276.15" y1="131.56" x2="276.76" y2="131.99"/><line x1="216.71" y1="259.83" x2="215.86" y2="258.25"/><line x1="191.60" y1="184.64" x2="194.05" y2="173.56"/><line x1="222.87" y1="295.02" x2="229.64" y2="276.40"/><line x1="204.17" y1="85.52" x2="204.74" y2="85.09"/><line x1="197.93" y1="219.74" x2="196.87" y2="216.64"/><line x1="241.27" y1="118.36" x2="247.88" y2="86.27"/><line x1="204.90" y1="139.01" x2="207.33" y2="135.06"/><line x1="258.65" y1="298.03" x2="245.44" y2="314.01"/><line x1="192.73" y1="165.48" x2="161.56" y2="158.15"/><line x1="279.04" y1="94.22" x2="293.89" y2="86.05"/><line x1="351.49" y1="228.26" x2="342.42" y2="226.72"/><line x1="222.84" y1="268.90" x2="221.37" y2="266.99"/><line x1="242.58" y1="118.52" x2="249.59" y2="86.75"/><line x1="308.77" y1="263.33" x2="342.40" y2="265.41"/><line x1="304.95" y1="102.87" x2="285.78" y2="108.94"/><line x1="350.29" y1="209.27" x2="350.32" y2="209.99"/><line x1="281.89" y1="100.33" x2="296.67" y2="89.53"/><line x1="251.11" y1="87.28" x2="252.19" y2="87.54"/><line x1="293.89" y1="86.05" x2="279.81" y2="96.13"/><line x1="296.96" y1="158.11" x2="297.97" y2="160.99"/><line x1="304.95" y1="102.87" x2="296.67" y2="89.53"/><line x1="299.87" y1="167.73" x2="300.78" y2="171.60"/><line x1="283.37" y1="113.10" x2="283.95" y2="113.50"/><line x1="338.01" y1="231.04" x2="338.48" y2="232.95"/><line x1="339.63" y1="292.18" x2="339.22" y2="294.37"/><line x1="296.76" y1="298.11" x2="314.43" y2="330.43"/><line x1="347.98" y1="202.16" x2="348.47" y2="203.18"/><line x1="207.03" y1="280.59" x2="206.26" y2="279.86"/><line x1="221.59" y1="80.78" x2="220.00" y2="81.28"/><line x1="250.58" y1="293.23" x2="247.76" y2="291.33"/><line x1="303.29" y1="185.12" x2="334.04" y2="178.05"/><line x1="338.56" y1="297.25" x2="303.52" y2="288.76"/><line x1="209.10" y1="83.75" x2="210.51" y2="83.50"/><line x1="280.08" y1="134.85" x2="310.22" y2="115.84"/><line x1="244.89" y1="289.26" x2="242.46" y2="287.43"/><line x1="286.48" y1="80.74" x2="288.56" y2="81.86"/><line x1="337.05" y1="222.72" x2="336.98" y2="223.05"/><line x1="307.57" y1="274.98" x2="341.32" y2="281.51"/><line x1="253.29" y1="87.89" x2="254.41" y2="88.35"/><line x1="351.08" y1="215.70" x2="351.35" y2="216.94"/><line x1="316.96" y1="329.22" x2="315.77" y2="329.85"/><line x1="250.52" y1="317.53" x2="247.99" y2="315.84"/><line x1="215.64" y1="125.67" x2="196.51" y2="91.60"/><line x1="327.39" y1="164.94" x2="328.03" y2="166.41"/><line x1="343.09" y1="227.71" x2="342.74" y2="227.24"/><line x1="281.54" y1="136.40" x2="282.30" y2="137.27"/><line x1="351.49" y1="228.26" x2="344.21" y2="228.92"/><line x1="279.35" y1="304.10" x2="277.33" y2="304.02"/><line x1="317.19" y1="136.04" x2="317.67" y2="137.22"/><line x1="308.77" y1="263.33" x2="341.73" y2="260.98"/><line x1="351.49" y1="228.26" x2="340.36" y2="223.31"/><line x1="304.95" y1="102.87" x2="285.81" y2="112.21"/><line x1="308.77" y1="263.33" x2="308.32" y2="269.40"/><line x1="281.77" y1="81.53" x2="281.07" y2="82.12"/><line x1="304.95" y1="102.87" x2="283.01" y2="102.47"/><line x1="275.23" y1="303.80" x2="269.54" y2="326.47"/><line x1="350.20" y1="208.52" x2="350.29" y2="209.27"/><line x1="235.10" y1="82.39" x2="235.74" y2="82.77"/><line x1="341.73" y1="260.98" x2="341.94" y2="262.06"/><line x1="337.38" y1="185.31" x2="304.81" y2="195.75"/><line x1="334.93" y1="309.26" x2="334.14" y2="311.19"/><line x1="233.26" y1="118.36" x2="240.28" y2="84.42"/><line x1="308.16" y1="231.32" x2="340.69" y2="253.90"/><line x1="282.30" y1="137.27" x2="312.16" y2="122.00"/><line x1="296.76" y1="298.11" x2="319.38" y2="327.34"/><line x1="32.00" y1="479.98" x2="32.00" y2="447.50"/><line x1="269.54" y1="326.47" x2="273.07" y2="303.43"/><line x1="296.76" y1="298.11" x2="293.89" y2="300.26"/><line x1="276.15" y1="131.56" x2="306.68" y2="106.85"/><line x1="337.64" y1="229.25" x2="338.01" y2="231.04"/><line x1="191.60" y1="184.64" x2="160.90" y2="178.57"/><line x1="260.33" y1="92.05" x2="247.93" y2="119.62"/><line x1="196.51" y1="91.60" x2="197.50" y2="90.91"/><line x1="346.71" y1="230.30" x2="346.31" y2="230.16"/><line x1="334.14" y1="311.19" x2="333.32" y2="312.96"/><line x1="307.50" y1="332.24" x2="305.38" y2="332.55"/><line x1="249.29" y1="120.00" x2="250.65" y2="120.42"/><line x1="330.36" y1="170.34" x2="303.29" y2="185.12"/><line x1="229.64" y1="276.40" x2="227.80" y2="274.54"/><line x1="339.67" y1="222.40" x2="338.92" y2="221.47"/><line x1="319.51" y1="141.46" x2="319.95" y2="142.39"/><line x1="342.42" y1="265.99" x2="342.40" y2="267.78"/><line x1="207.33" y1="135.06" x2="175.45" y2="116.21"/><line x1="285.35" y1="107.63" x2="284.74" y2="106.11"/><line x1="305.38" y1="332.55" x2="303.09" y2="332.81"/><line x1="192.73" y1="165.48" x2="161.20" y2="161.10"/><line x1="348.99" y1="230.33" x2="350.39" y2="229.61"/><line x1="305.53" y1="201.55" x2="337.12" y2="226.05"/><line x1="350.84" y1="214.54" x2="351.08" y2="215.70"/><line x1="290.72" y1="301.94" x2="287.24" y2="303.14"/><line x1="278.70" y1="133.55" x2="279.37" y2="134.17"/><line x1="237.36" y1="118.15" x2="241.49" y2="84.77"/><line x1="188.14" y1="257.83" x2="184.07" y2="253.07"/><line x1="351.49" y1="228.26" x2="342.74" y2="227.24"/><line x1="265.69" y1="96.47" x2="267.13" y2="97.76"/><line x1="229.10" y1="78.58" x2="229.81" y2="78.90"/><line x1="308.77" y1="263.33" x2="342.34" y2="264.72"/><line x1="342.40" y1="267.78" x2="342.35" y2="269.62"/><line x1="329.01" y1="319.34" x2="328.11" y2="320.12"/><line x1="222.11" y1="121.50" x2="209.10" y2="83.75"/><line x1="304.95" y1="102.87" x2="286.04" y2="110.05"/><line x1="292.53" y1="149.89" x2="317.19" y2="136.04"/><line x1="251.11" y1="87.28" x2="245.25" y2="118.98"/><line x1="260.22" y1="322.94" x2="257.84" y2="321.77"/><line x1="304.95" y1="102.87" x2="305.84" y2="104.89"/><line x1="229.81" y1="78.90" x2="230.47" y2="79.22"/><line x1="340.71" y1="242.07" x2="340.93" y2="243.44"/><line x1="299.87" y1="167.73" x2="326.73" y2="163.28"/><line x1="161.20" y1="161.10" x2="161.56" y2="158.15"/><line x1="305.84" y1="104.89" x2="306.68" y2="106.85"/><line x1="308.16" y1="231.32" x2="340.84" y2="248.64"/><line x1="328.11" y1="320.12" x2="327.26" y2="320.85"/><line x1="337.07" y1="184.71" x2="337.38" y2="185.31"/><line x1="296.76" y1="298.11" x2="315.77" y2="329.85"/><line x1="207.03" y1="280.59" x2="221.37" y2="266.99"/><line x1="162.18" y1="195.16" x2="191.65" y2="187.95"/><line x1="283.36" y1="80.35" x2="282.53" y2="80.94"/><line x1="245.94" y1="85.80" x2="246.94" y2="86.03"/><line x1="340.93" y1="243.44" x2="341.06" y2="244.65"/><line x1="341.79" y1="277.38" x2="307.57" y2="274.98"/><line x1="212.69" y1="128.39" x2="184.36" y2="102.43"/><line x1="292.33" y1="333.27" x2="290.34" y2="333.24"/><line x1="350.80" y1="229.23" x2="351.17" y2="228.78"/><line x1="201.59" y1="271.07" x2="214.92" y2="256.42"/><line x1="310.78" y1="117.47" x2="311.30" y2="119.04"/><line x1="199.06" y1="222.83" x2="197.93" y2="219.74"/><line x1="307.57" y1="274.98" x2="341.57" y2="279.43"/><line x1="184.36" y1="102.43" x2="186.27" y2="100.20"/><line x1="305.53" y1="201.55" x2="352.38" y2="223.71"/><line x1="282.53" y1="80.94" x2="281.77" y2="81.53"/><line x1="305.53" y1="201.55" x2="337.17" y2="222.36"/><line x1="250.52" y1="317.53" x2="258.65" y2="298.03"/><line x1="215.64" y1="125.67" x2="194.37" y2="92.97"/><line x1="352.36" y1="223.02" x2="352.38" y2="223.71"/><line x1="351.49" y1="228.26" x2="344.62" y2="229.25"/><line x1="194.24" y1="163.62" x2="194.69" y2="163.03"/><line x1="235.67" y1="281.93" x2="233.57" y2="280.09"/><line x1="351.49" y1="228.26" x2="340.97" y2="224.19"/><line x1="308.24" y1="110.61" x2="308.95" y2="112.40"/><line x1="323.50" y1="323.93" x2="322.84" y2="324.44"/><line x1="308.77" y1="263.33" x2="342.35" y2="269.62"/><line x1="168.64" y1="224.27" x2="166.54" y2="217.50"/><line x1="281.77" y1="81.53" x2="288.56" y2="81.86"/><line x1="304.95" y1="102.87" x2="283.96" y2="104.39"/><line x1="203.27" y1="276.56" x2="202.85" y2="275.96"/><line x1="340.36" y1="223.31" x2="339.67" y2="222.40"/><line x1="340.75" y1="250.83" x2="340.73" y2="252.00"/><line x1="209.92" y1="131.52" x2="182.48" y2="104.84"/><line x1="308.16" y1="231.32" x2="340.93" y2="243.44"/><line x1="194.37" y1="92.97" x2="196.51" y2="91.60"/><line x1="245.25" y1="118.98" x2="255.56" y2="88.90"/><line x1="213.90" y1="254.37" x2="212.78" y2="252.07"/><line x1="233.26" y1="118.36" x2="239.03" y2="84.03"/><line x1="308.16" y1="231.32" x2="340.72" y2="253.21"/><line x1="281.66" y1="332.09" x2="280.19" y2="331.67"/><line x1="287.24" y1="303.14" x2="284.86" y2="332.75"/><line x1="240.22" y1="309.95" x2="237.55" y2="307.71"/><line x1="166.54" y1="217.50" x2="194.24" y2="207.28"/><line x1="240.28" y1="84.42" x2="237.36" y2="118.15"/><line x1="264.93" y1="324.94" x2="262.59" y2="324.00"/><line x1="274.45" y1="130.55" x2="284.88" y2="113.39"/><line x1="225.50" y1="78.81" x2="224.89" y2="79.31"/><line x1="196.51" y1="91.60" x2="218.78" y2="123.38"/><line x1="279.35" y1="83.89" x2="278.89" y2="84.48"/><line x1="249.29" y1="120.00" x2="264.29" y2="95.25"/><line x1="338.09" y1="220.52" x2="337.79" y2="221.04"/><line x1="349.96" y1="229.92" x2="348.99" y2="230.33"/><line x1="201.59" y1="271.07" x2="218.72" y2="263.15"/><line x1="162.60" y1="152.15" x2="163.27" y2="149.11"/><line x1="198.62" y1="153.32" x2="164.92" y2="142.89"/><line x1="250.65" y1="120.42" x2="265.69" y2="96.47"/><line x1="305.53" y1="201.55" x2="351.86" y2="219.34"/><line x1="307.57" y1="274.98" x2="306.52" y2="280.07"/><line x1="163.27" y1="149.11" x2="195.92" y2="161.35"/><line x1="213.99" y1="82.77" x2="222.11" y2="121.50"/><line x1="272.81" y1="327.90" x2="271.81" y2="327.07"/><line x1="305.53" y1="201.55" x2="351.99" y2="227.02"/><line x1="278.89" y1="84.48" x2="278.52" y2="85.06"/><line x1="348.99" y1="230.33" x2="349.49" y2="230.16"/><line x1="305.53" y1="201.55" x2="337.00" y2="224.63"/><line x1="224.89" y1="79.31" x2="229.81" y2="78.90"/><line x1="290.72" y1="301.94" x2="295.27" y2="333.24"/><line x1="192.08" y1="194.50" x2="191.82" y2="191.24"/><line x1="164.92" y1="142.89" x2="165.89" y2="139.71"/><line x1="229.35" y1="118.99" x2="233.26" y2="118.36"/><line x1="265.69" y1="96.47" x2="252.03" y2="120.87"/><line x1="308.77" y1="263.33" x2="342.24" y2="263.93"/><line x1="229.81" y1="78.90" x2="225.63" y2="120.03"/><line x1="244.89" y1="85.58" x2="245.94" y2="85.80"/><line x1="255.43" y1="320.49" x2="252.99" y2="319.08"/><line x1="202.64" y1="143.36" x2="204.90" y2="139.01"/><line x1="308.16" y1="231.32" x2="339.02" y2="234.98"/><line x1="201.67" y1="87.68" x2="202.34" y2="87.09"/><line x1="305.84" y1="104.89" x2="276.15" y2="131.56"/><line x1="308.16" y1="231.32" x2="340.91" y2="247.61"/><line x1="293.89" y1="300.26" x2="300.65" y2="333.01"/><line x1="347.11" y1="230.39" x2="350.80" y2="229.23"/><line x1="352.30" y1="222.24" x2="352.36" y2="223.02"/><line x1="162.18" y1="195.16" x2="191.82" y2="191.24"/><line x1="245.94" y1="85.80" x2="241.27" y2="118.36"/><line x1="170.71" y1="126.55" x2="172.24" y2="122.93"/><line x1="324.19" y1="323.39" x2="323.50" y2="323.93"/><line x1="277.74" y1="89.25" x2="278.00" y2="90.78"/><line x1="294.82" y1="153.34" x2="319.51" y2="141.46"/><line x1="350.80" y1="229.23" x2="346.71" y2="230.30"/><line x1="307.48" y1="108.75" x2="308.24" y2="110.61"/><line x1="203.75" y1="277.17" x2="203.27" y2="276.56"/><line x1="232.46" y1="80.51" x2="232.91" y2="80.89"/><line x1="305.53" y1="201.55" x2="349.59" y2="206.02"/><line x1="201.59" y1="271.07" x2="215.86" y2="258.25"/><line x1="340.79" y1="249.72" x2="340.75" y2="250.83"/><line x1="194.05" y1="173.56" x2="192.73" y2="165.48"/><line x1="305.53" y1="201.55" x2="350.65" y2="213.46"/><line x1="278.96" y1="109.26" x2="280.04" y2="110.28"/><line x1="305.53" y1="201.55" x2="352.36" y2="223.02"/><line x1="283.21" y1="332.46" x2="281.66" y2="332.09"/><line x1="305.53" y1="201.55" x2="337.33" y2="221.95"/><line x1="344.66" y1="196.46" x2="345.44" y2="197.67"/><line x1="232.91" y1="80.89" x2="233.40" y2="81.26"/><line x1="160.73" y1="169.78" x2="160.79" y2="166.92"/><line x1="195.03" y1="210.41" x2="166.54" y2="217.50"/><line x1="245.44" y1="314.01" x2="242.85" y2="312.05"/><line x1="177.13" y1="113.11" x2="178.87" y2="110.18"/><line x1="340.39" y1="287.85" x2="340.02" y2="290.01"/><line x1="300.65" y1="333.01" x2="298.04" y2="333.15"/><line x1="308.24" y1="110.61" x2="278.70" y2="133.55"/><line x1="295.35" y1="87.72" x2="296.67" y2="89.53"/><line x1="304.06" y1="190.28" x2="336.67" y2="183.81"/><line x1="253.33" y1="294.99" x2="240.22" y2="309.95"/><line x1="345.47" y1="229.78" x2="345.05" y2="229.53"/><line x1="180.32" y1="247.99" x2="176.91" y2="242.57"/><line x1="290.49" y1="83.12" x2="278.00" y2="90.78"/><line x1="308.32" y1="269.40" x2="342.14" y2="273.42"/><line x1="250.38" y1="87.01" x2="251.11" y2="87.28"/><line x1="299.32" y1="295.47" x2="324.92" y2="322.81"/><line x1="164.05" y1="146.02" x2="198.62" y2="153.32"/><line x1="340.02" y1="290.01" x2="339.63" y2="292.18"/><line x1="209.92" y1="131.52" x2="180.65" y2="107.43"/><line x1="293.70" y1="151.45" x2="319.06" y2="140.47"/><line x1="308.16" y1="231.32" x2="340.71" y2="242.07"/><line x1="320.44" y1="326.37" x2="319.90" y2="326.85"/><line x1="245.25" y1="118.98" x2="254.41" y2="88.35"/><line x1="266.16" y1="301.40" x2="263.72" y2="300.43"/><line x1="298.94" y1="164.20" x2="299.87" y2="167.73"/><line x1="308.16" y1="231.32" x2="340.73" y2="252.00"/><line x1="287.24" y1="303.14" x2="286.60" y2="332.98"/><line x1="345.05" y1="229.53" x2="344.62" y2="229.25"/><line x1="240.22" y1="309.95" x2="250.58" y2="293.23"/><line x1="201.59" y1="273.14" x2="201.59" y2="271.07"/><line x1="337.79" y1="221.04" x2="337.53" y2="221.51"/><line x1="201.58" y1="228.97" x2="200.28" y2="225.90"/><line x1="340.77" y1="255.53" x2="340.87" y2="256.46"/><line x1="274.45" y1="130.55" x2="284.43" y2="113.77"/><line x1="256.18" y1="122.47" x2="282.69" y2="112.58"/><line x1="319.90" y1="326.85" x2="319.38" y2="327.34"/><line x1="273.88" y1="328.67" x2="272.81" y2="327.90"/><line x1="348.90" y1="204.17" x2="349.28" y2="205.12"/><line x1="305.53" y1="201.55" x2="347.43" y2="201.10"/><line x1="218.17" y1="81.79" x2="216.08" y2="82.29"/><line x1="300.78" y1="171.60" x2="301.64" y2="175.78"/><line x1="201.59" y1="271.07" x2="220.00" y2="265.08"/><line x1="340.87" y1="256.46" x2="341.03" y2="257.49"/><line x1="305.53" y1="201.55" x2="350.29" y2="209.27"/><line x1="192.46" y1="197.73" x2="192.08" y2="194.50"/><line x1="337.88" y1="299.96" x2="337.18" y2="302.52"/><line x1="162.60" y1="152.15" x2="193.76" y2="164.23"/><line x1="305.53" y1="201.55" x2="351.62" y2="218.19"/><line x1="280.79" y1="135.60" x2="310.78" y2="117.47"/><line x1="163.27" y1="149.11" x2="195.54" y2="161.89"/><line x1="200.94" y1="88.30" x2="201.67" y2="87.68"/><line x1="238.65" y1="118.17" x2="239.96" y2="118.24"/><line x1="64.64" y1="32.09" x2="32.16" y2="64.58"/><line x1="305.53" y1="201.55" x2="352.16" y2="226.29"/><line x1="272.81" y1="327.90" x2="279.35" y2="304.10"/><line x1="349.28" y1="205.12" x2="349.59" y2="206.02"/><line x1="240.11" y1="285.60" x2="237.84" y2="283.77"/><line x1="305.53" y1="201.55" x2="336.96" y2="223.33"/><line x1="336.96" y1="223.33" x2="337.00" y2="224.63"/><line x1="192.08" y1="194.50" x2="162.18" y2="195.16"/><line x1="255.56" y1="88.90" x2="256.72" y2="89.55"/><line x1="188.23" y1="98.13" x2="190.24" y2="96.24"/><line x1="337.18" y1="302.52" x2="336.45" y2="304.92"/><line x1="320.39" y1="143.27" x2="297.97" y2="160.99"/><line x1="314.43" y1="330.43" x2="312.92" y2="330.96"/><line x1="277.65" y1="87.84" x2="277.74" y2="89.25"/><line x1="301.64" y1="175.78" x2="328.65" y2="167.68"/><line x1="304.06" y1="190.28" x2="304.81" y2="195.75"/><line x1="253.41" y1="121.37" x2="254.80" y2="121.90"/><line x1="237.84" y1="283.77" x2="235.67" y2="281.93"/><line x1="196.87" y1="216.64" x2="195.91" y2="213.53"/><line x1="215.86" y1="258.25" x2="214.92" y2="256.42"/><line x1="236.42" y1="83.13" x2="237.75" y2="83.61"/><line x1="337.00" y1="224.63" x2="337.12" y2="226.05"/><line x1="290.49" y1="83.12" x2="277.96" y2="86.20"/><line x1="341.94" y1="262.06" x2="342.11" y2="263.05"/><line x1="308.91" y1="256.77" x2="341.47" y2="259.79"/><line x1="285.98" y1="111.80" x2="286.09" y2="111.38"/><line x1="308.16" y1="231.32" x2="338.48" y2="232.95"/><line x1="299.32" y1="295.47" x2="322.20" y2="324.92"/><line x1="283.07" y1="138.20" x2="312.80" y2="124.72"/><line x1="312.92" y1="330.96" x2="311.28" y2="331.44"/><line x1="202.64" y1="143.36" x2="170.71" y2="126.55"/><line x1="308.16" y1="231.32" x2="340.99" y2="246.64"/><line x1="328.65" y1="167.68" x2="329.24" y2="168.76"/><line x1="245.25" y1="118.98" x2="246.59" y2="119.27"/><line x1="273.07" y1="303.43" x2="267.25" y2="325.76"/><line x1="350.32" y1="209.99" x2="350.34" y2="210.73"/><line x1="293.89" y1="300.26" x2="303.09" y2="332.81"/><line x1="214.92" y1="256.42" x2="213.90" y2="254.37"/><line x1="261.61" y1="93.05" x2="262.93" y2="94.11"/><line x1="342.11" y1="263.05" x2="342.24" y2="263.93"/><line x1="333.32" y1="312.96" x2="332.49" y2="314.57"/><line x1="205.28" y1="84.71" x2="205.80" y2="84.37"/><line x1="274.45" y1="130.55" x2="304.95" y2="102.87"/><line x1="334.04" y1="178.05" x2="336.58" y2="183.49"/><line x1="267.25" y1="325.76" x2="264.93" y2="324.94"/><line x1="227.80" y1="274.54" x2="226.06" y2="272.67"/><line x1="350.34" y1="210.73" x2="350.40" y2="211.55"/><line x1="305.53" y1="201.55" x2="349.28" y2="205.12"/><line x1="201.59" y1="271.07" x2="216.71" y2="259.83"/><line x1="194.05" y1="173.56" x2="160.73" y2="169.78"/><line x1="332.49" y1="314.57" x2="331.64" y2="316.00"/><line x1="305.53" y1="201.55" x2="350.51" y2="212.46"/><line x1="205.80" y1="84.37" x2="206.29" y2="84.08"/><line x1="305.53" y1="201.55" x2="352.30" y2="222.24"/><line x1="279.81" y1="96.13" x2="295.35" y2="87.72"/><line x1="351.49" y1="228.26" x2="351.76" y2="227.67"/><line x1="226.06" y1="272.67" x2="224.40" y2="270.79"/><line x1="242.66" y1="85.08" x2="243.80" y2="85.35"/><line x1="339.02" y1="234.98" x2="339.58" y2="237.00"/><line x1="177.13" y1="113.11" x2="209.92" y2="131.52"/><line x1="317.67" y1="137.22" x2="318.14" y2="138.36"/><line x1="300.65" y1="333.01" x2="290.72" y2="301.94"/><line x1="295.35" y1="87.72" x2="280.76" y2="98.17"/><line x1="350.39" y1="229.61" x2="347.87" y2="230.47"/><line x1="304.06" y1="190.28" x2="336.58" y2="183.49"/><line x1="290.49" y1="83.12" x2="277.74" y2="89.25"/><line x1="180.32" y1="247.99" x2="201.58" y2="228.97"/><line x1="221.37" y1="266.99" x2="201.73" y2="273.68"/><line x1="220.00" y1="81.28" x2="218.17" y2="81.79"/><line x1="267.13" y1="97.76" x2="268.61" y2="99.12"/><line x1="308.32" y1="269.40" x2="342.26" y2="271.50"/><line x1="301.57" y1="292.36" x2="299.32" y2="295.47"/><line x1="299.32" y1="295.47" x2="325.67" y2="322.20"/><line x1="209.92" y1="131.52" x2="178.87" y2="110.18"/><line x1="218.78" y1="123.38" x2="202.34" y2="87.09"/><line x1="293.70" y1="151.45" x2="318.61" y2="139.44"/><line x1="210.51" y1="83.50" x2="212.13" y2="83.17"/><line x1="218.78" y1="123.38" x2="207.94" y2="83.93"/><line x1="245.25" y1="118.98" x2="253.29" y2="87.89"/><line x1="304.81" y1="195.75" x2="338.22" y2="186.76"/><line x1="32.16" y1="32.09" x2="64.64" y2="32.09"/><line x1="266.16" y1="301.40" x2="255.43" y2="320.49"/><line x1="162.03" y1="155.16" x2="162.60" y2="152.15"/><line x1="254.41" y1="88.35" x2="255.56" y2="88.90"/><line x1="306.68" y1="106.85" x2="307.48" y2="108.75"/><line x1="256.18" y1="122.47" x2="281.90" y2="111.93"/><line x1="328.03" y1="166.41" x2="301.64" y2="175.78"/><line x1="237.55" y1="307.71" x2="222.87" y2="295.02"/><line x1="206.26" y1="279.86" x2="205.55" y2="279.15"/><line x1="342.74" y1="227.24" x2="342.42" y2="226.72"/><line x1="171.06" y1="230.71" x2="168.64" y2="224.27"/><line x1="305.53" y1="201.55" x2="346.83" y2="199.99"/><line x1="162.60" y1="152.15" x2="193.26" y2="164.84"/><line x1="305.53" y1="201.55" x2="350.20" y2="208.52"/><line x1="276.76" y1="131.99" x2="277.38" y2="132.46"/><line x1="285.81" y1="112.21" x2="285.98" y2="111.80"/><line x1="186.27" y1="100.20" x2="188.23" y2="98.13"/><line x1="288.56" y1="81.86" x2="280.44" y2="82.71"/><line x1="305.53" y1="201.55" x2="351.35" y2="216.94"/><line x1="306.52" y1="280.07" x2="305.17" y2="284.66"/><line x1="163.27" y1="149.11" x2="195.13" y2="162.45"/><line x1="351.17" y1="228.78" x2="351.49" y2="228.26"/><line x1="212.78" y1="252.07" x2="184.07" y2="253.07"/><line x1="342.42" y1="226.72" x2="342.01" y2="225.90"/><line x1="235.74" y1="82.77" x2="236.42" y2="83.13"/><line x1="283.45" y1="303.86" x2="272.81" y2="327.90"/><line x1="188.23" y1="98.13" x2="215.64" y2="125.67"/><line x1="320.39" y1="143.27" x2="296.96" y2="158.11"/><line x1="312.16" y1="122.00" x2="283.07" y2="138.20"/><line x1="32.00" y1="447.50" x2="64.49" y2="479.98"/></g></svg>