<svg xmlns="http://www.w3.org/2000/svg" width="512" height="512"><rect width="512" height="512" fill="#0a0f1a"/><text x="12" y="20" font-family="monospace" font-size="11" fill="#4a7fa5">FRONT (XZ)</text><g stroke="#00d4ff" stroke-width="0.6" opacity="0.85"><line x1="296.72" y1="146.35" x2="328.61" y2="135.65"/><line x1="207.36" y1="316.60" x2="209.38" y2="316.97"/><line x1="318.95" y1="109.88" x2="317.07" y2="108.38"/><line x1="261.89" y1="318.01" x2="261.93" y2="317.92"/><line x1="296.72" y1="146.35" x2="293.87" y2="144.37"/><line x1="277.89" y1="95.91" x2="269.80" y2="138.01"/><line x1="220.89" y1="105.83" x2="219.71" y2="106.46"/><line x1="185.69" y1="315.41" x2="186.45" y2="315.19"/><line x1="212.95" y1="110.40" x2="232.19" y2="148.50"/><line x1="224.16" y1="154.87" x2="192.46" y2="148.44"/><line x1="223.18" y1="346.91" x2="224.49" y2="347.19"/><line x1="328.50" y1="150.62" x2="328.85" y2="148.72"/><line x1="228.79" y1="186.15" x2="209.31" y2="198.96"/><line x1="329.23" y1="336.14" x2="328.37" y2="320.30"/><line x1="269.80" y1="138.01" x2="276.94" y2="95.84"/><line x1="238.00" y1="146.08" x2="218.57" y2="107.11"/><line x1="274.64" y1="138.41" x2="279.84" y2="96.10"/><line x1="234.43" y1="99.88" x2="233.38" y2="100.24"/><line x1="269.80" y1="138.01" x2="268.93" y2="95.91"/><line x1="263.27" y1="354.43" x2="260.79" y2="353.93"/><line x1="285.03" y1="313.91" x2="320.12" y2="349.43"/><line x1="201.44" y1="342.48" x2="202.45" y2="342.83"/><line x1="225.31" y1="153.25" x2="194.39" y2="136.31"/><line x1="221.96" y1="167.02" x2="222.39" y2="169.66"/><line x1="328.85" y1="148.72" x2="328.93" y2="147.16"/><line x1="310.92" y1="105.46" x2="309.68" y2="104.89"/><line x1="305.78" y1="288.03" x2="283.03" y2="304.03"/><line x1="327.05" y1="139.75" x2="296.72" y2="146.35"/><line x1="277.00" y1="316.67" x2="274.55" y2="317.06"/><line x1="233.38" y1="100.24" x2="232.27" y2="100.63"/><line x1="228.40" y1="150.55" x2="227.89" y2="150.90"/><line x1="250.35" y1="141.52" x2="248.19" y2="142.29"/><line x1="209.38" y1="316.97" x2="203.51" y2="343.18"/><line x1="193.16" y1="314.98" x2="185.86" y2="330.60"/><line x1="193.02" y1="158.37" x2="193.08" y2="158.86"/><line x1="222.54" y1="158.72" x2="192.87" y2="157.29"/><line x1="309.68" y1="104.89" x2="308.50" y2="104.34"/><line x1="272.69" y1="95.73" x2="271.93" y2="95.75"/><line x1="324.83" y1="346.28" x2="322.72" y2="347.93"/><line x1="182.04" y1="323.02" x2="182.20" y2="323.87"/><line x1="229.66" y1="149.79" x2="208.30" y2="112.86"/><line x1="192.66" y1="152.78" x2="192.66" y2="153.66"/><line x1="317.87" y1="173.01" x2="314.65" y2="173.69"/><line x1="229.66" y1="149.79" x2="200.76" y2="121.06"/><line x1="218.31" y1="318.78" x2="218.98" y2="346.23"/><line x1="296.72" y1="146.35" x2="327.27" y2="139.28"/><line x1="193.08" y1="158.86" x2="193.13" y2="159.30"/><line x1="220.12" y1="217.04" x2="238.96" y2="203.22"/><line x1="318.97" y1="171.77" x2="320.18" y2="170.02"/><line x1="296.72" y1="146.35" x2="328.34" y2="131.82"/><line x1="271.93" y1="95.75" x2="271.05" y2="95.79"/><line x1="285.76" y1="313.22" x2="328.87" y2="337.75"/><line x1="322.72" y1="347.93" x2="320.12" y2="349.43"/><line x1="189.08" y1="314.90" x2="182.44" y2="324.73"/><line x1="182.87" y1="317.54" x2="183.80" y2="316.49"/><line x1="207.05" y1="344.18" x2="208.34" y2="344.49"/><line x1="224.16" y1="154.87" x2="192.84" y2="142.13"/><line x1="327.27" y1="139.28" x2="327.51" y2="138.72"/><line x1="260.43" y1="318.05" x2="260.50" y2="317.92"/><line x1="304.47" y1="102.21" x2="283.33" y2="139.99"/><line x1="238.96" y1="203.22" x2="242.19" y2="208.01"/><line x1="286.22" y1="310.70" x2="315.88" y2="301.11"/><line x1="329.23" y1="336.14" x2="331.20" y2="327.95"/><line x1="269.80" y1="138.01" x2="273.34" y2="95.72"/><line x1="227.32" y1="102.70" x2="225.94" y2="103.33"/><line x1="245.70" y1="213.02" x2="225.81" y2="225.71"/><line x1="285.03" y1="313.91" x2="328.19" y2="340.37"/><line x1="183.80" y1="316.49" x2="183.30" y2="316.99"/><line x1="213.46" y1="317.84" x2="215.50" y2="318.33"/><line x1="199.26" y1="315.42" x2="201.29" y2="315.65"/><line x1="193.22" y1="160.39" x2="193.22" y2="160.68"/><line x1="293.87" y1="144.37" x2="315.01" y2="107.20"/><line x1="260.50" y1="317.92" x2="261.89" y2="318.01"/><line x1="283.33" y1="139.99" x2="303.68" y2="101.70"/><line x1="315.88" y1="301.11" x2="286.35" y2="311.70"/><line x1="299.58" y1="354.54" x2="293.94" y2="355.10"/><line x1="202.93" y1="117.61" x2="202.18" y2="118.69"/><line x1="286.20" y1="312.48" x2="325.33" y2="314.93"/><line x1="201.29" y1="315.65" x2="193.77" y2="337.15"/><line x1="311.42" y1="171.18" x2="310.48" y2="170.15"/><line x1="221.50" y1="318.29" x2="222.35" y2="318.12"/><line x1="193.22" y1="160.68" x2="193.44" y2="163.00"/><line x1="225.81" y1="225.71" x2="226.39" y2="226.44"/><line x1="253.92" y1="97.22" x2="263.81" y2="137.92"/><line x1="293.94" y1="355.10" x2="284.01" y2="314.55"/><line x1="224.70" y1="154.03" x2="193.05" y2="141.16"/><line x1="182.07" y1="319.60" x2="185.69" y2="315.41"/><line x1="229.66" y1="149.79" x2="204.55" y2="115.69"/><line x1="223.67" y1="155.76" x2="192.47" y2="148.99"/><line x1="222.35" y1="318.12" x2="223.18" y2="346.91"/><line x1="296.72" y1="146.35" x2="328.31" y2="136.55"/><line x1="287.48" y1="97.22" x2="286.30" y2="97.02"/><line x1="226.39" y1="226.44" x2="227.01" y2="227.20"/><line x1="325.33" y1="314.93" x2="329.23" y2="336.14"/><line x1="296.72" y1="146.35" x2="325.73" y2="122.16"/><line x1="220.89" y1="105.83" x2="238.00" y2="146.08"/><line x1="249.49" y1="218.23" x2="265.02" y2="237.80"/><line x1="198.78" y1="125.01" x2="198.16" y2="126.44"/><line x1="185.69" y1="315.41" x2="181.95" y2="320.42"/><line x1="222.08" y1="160.93" x2="221.94" y2="162.11"/><line x1="200.50" y1="342.11" x2="201.44" y2="342.48"/><line x1="192.47" y1="148.99" x2="192.49" y2="149.56"/><line x1="287.17" y1="141.19" x2="304.47" y2="102.21"/><line x1="224.16" y1="154.87" x2="192.46" y2="145.05"/><line x1="195.93" y1="171.96" x2="221.96" y2="167.02"/><line x1="223.19" y1="317.91" x2="246.16" y2="352.05"/><line x1="265.02" y1="237.80" x2="260.33" y2="273.66"/><line x1="329.23" y1="336.14" x2="326.99" y2="317.75"/><line x1="279.18" y1="316.21" x2="277.00" y2="316.67"/><line x1="274.64" y1="138.41" x2="280.86" y2="96.21"/><line x1="201.44" y1="342.48" x2="209.38" y2="316.97"/><line x1="228.18" y1="348.19" x2="229.29" y2="348.55"/><line x1="293.87" y1="144.37" x2="323.55" y2="116.29"/><line x1="221.96" y1="167.02" x2="197.39" y2="175.62"/><line x1="277.00" y1="316.67" x2="273.97" y2="355.81"/><line x1="181.94" y1="322.15" x2="182.04" y2="323.02"/><line x1="480.00" y1="32.02" x2="447.51" y2="32.02"/><line x1="250.35" y1="141.52" x2="236.37" y2="99.28"/><line x1="228.40" y1="150.55" x2="198.16" y2="126.44"/><line x1="224.09" y1="175.60" x2="225.37" y2="178.89"/><line x1="229.29" y1="348.55" x2="230.34" y2="348.93"/><line x1="244.97" y1="252.00" x2="260.33" y2="273.66"/><line x1="222.54" y1="158.72" x2="192.80" y2="156.67"/><line x1="268.85" y1="317.66" x2="267.64" y2="355.19"/><line x1="253.92" y1="97.22" x2="239.60" y2="98.54"/><line x1="215.21" y1="109.10" x2="214.08" y2="109.75"/><line x1="226.69" y1="151.85" x2="225.98" y2="152.53"/><line x1="182.04" y1="323.02" x2="189.08" y2="314.90"/><line x1="304.63" y1="156.76" x2="327.88" y2="152.88"/><line x1="192.66" y1="152.78" x2="222.86" y2="157.68"/><line x1="203.62" y1="188.60" x2="206.31" y2="193.60"/><line x1="296.72" y1="146.35" x2="328.67" y2="133.19"/><line x1="285.76" y1="313.22" x2="329.04" y2="336.98"/><line x1="196.08" y1="131.59" x2="195.45" y2="133.26"/><line x1="207.05" y1="344.18" x2="213.46" y2="317.84"/><line x1="320.18" y1="170.02" x2="311.42" y2="171.18"/><line x1="223.19" y1="317.91" x2="239.04" y2="351.64"/><line x1="223.19" y1="317.91" x2="252.01" y2="352.40"/><line x1="236.37" y1="99.28" x2="235.42" y2="99.56"/><line x1="266.36" y1="96.10" x2="253.92" y2="97.22"/><line x1="211.80" y1="111.03" x2="210.65" y2="111.65"/><line x1="269.52" y1="355.46" x2="267.64" y2="355.19"/><line x1="192.46" y1="148.44" x2="223.67" y2="155.76"/><line x1="230.91" y1="190.10" x2="233.32" y2="194.26"/><line x1="239.04" y1="351.64" x2="240.57" y2="351.77"/><line x1="328.87" y1="134.14" x2="328.93" y2="134.68"/><line x1="293.87" y1="144.37" x2="317.07" y2="108.38"/><line x1="231.26" y1="148.95" x2="230.42" y2="149.38"/><line x1="222.08" y1="105.21" x2="220.89" y2="105.83"/><line x1="193.96" y1="137.68" x2="193.60" y2="138.93"/><line x1="212.61" y1="204.64" x2="216.21" y2="210.67"/><line x1="309.43" y1="292.65" x2="285.16" y2="307.90"/><line x1="245.88" y1="143.13" x2="229.91" y2="101.58"/><line x1="258.31" y1="353.43" x2="256.01" y2="353.01"/><line x1="224.70" y1="154.03" x2="193.30" y2="140.10"/><line x1="199.42" y1="123.64" x2="198.78" y2="125.01"/><line x1="193.13" y1="159.30" x2="193.17" y2="159.70"/><line x1="308.08" y1="167.03" x2="307.52" y2="166.08"/><line x1="307.39" y1="103.79" x2="306.33" y2="103.25"/><line x1="296.72" y1="146.35" x2="328.03" y2="137.36"/><line x1="287.48" y1="97.22" x2="279.15" y2="139.07"/><line x1="271.83" y1="317.39" x2="268.85" y2="317.66"/><line x1="259.18" y1="138.78" x2="257.68" y2="139.19"/><line x1="187.43" y1="332.17" x2="188.32" y2="332.93"/><line x1="198.78" y1="125.01" x2="228.40" y2="150.55"/><line x1="222.08" y1="160.93" x2="193.20" y2="160.07"/><line x1="223.19" y1="317.91" x2="231.31" y2="349.32"/><line x1="307.52" y1="166.08" x2="307.07" y2="165.17"/><line x1="242.19" y1="208.01" x2="245.70" y2="213.02"/><line x1="287.17" y1="141.19" x2="305.36" y2="102.72"/><line x1="325.73" y1="122.16" x2="293.87" y2="144.37"/><line x1="223.19" y1="317.91" x2="244.84" y2="352.01"/><line x1="265.02" y1="237.80" x2="244.97" y2="252.00"/><line x1="257.68" y1="139.19" x2="256.05" y2="139.66"/><line x1="235.45" y1="147.08" x2="216.32" y2="108.43"/><line x1="303.18" y1="153.79" x2="328.74" y2="145.97"/><line x1="195.20" y1="315.09" x2="197.23" y2="315.23"/><line x1="219.87" y1="318.59" x2="220.68" y2="318.45"/><line x1="192.61" y1="152.09" x2="192.66" y2="152.78"/><line x1="224.33" y1="223.76" x2="224.78" y2="224.37"/><line x1="293.87" y1="144.37" x2="324.73" y2="119.06"/><line x1="282.95" y1="96.48" x2="281.89" y2="96.34"/><line x1="182.53" y1="318.16" x2="182.26" y2="318.85"/><line x1="216.32" y1="108.43" x2="215.21" y2="109.10"/><line x1="321.49" y1="167.77" x2="322.91" y2="165.02"/><line x1="480.00" y1="32.02" x2="480.00" y2="64.50"/><line x1="290.69" y1="142.65" x2="307.39" y2="103.79"/><line x1="205.81" y1="343.85" x2="207.05" y2="344.18"/><line x1="325.84" y1="158.46" x2="304.63" y2="156.76"/><line x1="220.42" y1="346.43" x2="221.82" y2="346.65"/><line x1="261.93" y1="317.92" x2="262.63" y2="317.94"/><line x1="224.09" y1="175.60" x2="203.62" y2="188.60"/><line x1="301.83" y1="283.16" x2="281.57" y2="301.69"/><line x1="318.67" y1="304.95" x2="321.18" y2="308.53"/><line x1="281.89" y1="96.34" x2="280.86" y2="96.21"/><line x1="238.09" y1="98.84" x2="237.26" y2="99.03"/><line x1="184.36" y1="316.07" x2="185.00" y2="315.72"/><line x1="268.85" y1="317.66" x2="269.52" y2="355.46"/><line x1="480.00" y1="479.91" x2="480.00" y2="447.42"/><line x1="226.69" y1="151.85" x2="196.08" y2="131.59"/><line x1="193.96" y1="165.65" x2="194.79" y2="168.64"/><line x1="304.63" y1="156.76" x2="326.99" y2="155.49"/><line x1="237.45" y1="351.49" x2="239.04" y2="351.64"/><line x1="317.07" y1="108.38" x2="315.01" y2="107.20"/><line x1="273.08" y1="289.71" x2="275.60" y2="293.08"/><line x1="282.70" y1="315.16" x2="281.08" y2="315.71"/><line x1="237.26" y1="99.03" x2="236.37" y2="99.28"/><line x1="232.19" y1="148.50" x2="211.80" y2="111.03"/><line x1="223.23" y1="156.69" x2="192.57" y2="151.42"/><line x1="191.12" y1="314.92" x2="183.51" y2="327.30"/><line x1="223.19" y1="317.91" x2="225.77" y2="347.50"/><line x1="192.75" y1="156.00" x2="192.80" y2="156.67"/><line x1="227.68" y1="228.01" x2="228.38" y2="228.85"/><line x1="223.19" y1="317.91" x2="237.45" y2="351.49"/><line x1="315.01" y1="107.20" x2="313.58" y2="106.61"/><line x1="276.94" y1="95.84" x2="276.01" y2="95.79"/><line x1="223.19" y1="317.91" x2="250.28" y2="352.21"/><line x1="287.79" y1="355.49" x2="281.14" y2="355.72"/><line x1="328.43" y1="339.57" x2="328.31" y2="340.01"/><line x1="211.80" y1="111.03" x2="231.26" y2="148.95"/><line x1="183.51" y1="327.30" x2="184.00" y2="328.15"/><line x1="447.51" y1="479.91" x2="480.00" y2="447.42"/><line x1="217.54" y1="318.85" x2="212.62" y2="345.34"/><line x1="230.91" y1="190.10" x2="212.61" y2="204.64"/><line x1="276.01" y1="95.79" x2="275.10" y2="95.75"/><line x1="328.31" y1="340.01" x2="328.19" y2="340.37"/><line x1="227.89" y1="150.90" x2="227.47" y2="151.23"/><line x1="262.06" y1="318.01" x2="258.31" y2="353.43"/><line x1="221.94" y1="162.11" x2="193.96" y2="165.65"/><line x1="187.26" y1="315.03" x2="188.14" y2="314.93"/><line x1="193.96" y1="137.68" x2="224.70" y2="154.03"/><line x1="212.62" y1="345.34" x2="214.18" y2="345.59"/><line x1="328.74" y1="145.97" x2="327.05" y2="139.75"/><line x1="301.83" y1="283.16" x2="270.29" y2="286.08"/><line x1="309.43" y1="292.65" x2="284.23" y2="306.10"/><line x1="245.88" y1="143.13" x2="231.12" y2="101.08"/><line x1="258.31" y1="353.43" x2="258.26" y2="318.10"/><line x1="186.61" y1="331.40" x2="187.43" y2="332.17"/><line x1="313.92" y1="173.30" x2="313.14" y2="172.75"/><line x1="193.13" y1="159.30" x2="222.08" y2="160.93"/><line x1="248.76" y1="352.09" x2="250.28" y2="352.21"/><line x1="307.39" y1="103.79" x2="287.17" y2="141.19"/><line x1="284.23" y1="306.10" x2="285.16" y2="307.90"/><line x1="271.83" y1="317.39" x2="271.20" y2="355.65"/><line x1="320.12" y1="349.43" x2="317.01" y2="350.76"/><line x1="207.31" y1="113.44" x2="206.34" y2="114.10"/><line x1="187.43" y1="332.17" x2="195.20" y2="315.09"/><line x1="206.31" y1="193.60" x2="209.31" y2="198.96"/><line x1="191.12" y1="314.92" x2="193.16" y2="314.98"/><line x1="223.19" y1="317.91" x2="230.34" y2="348.93"/><line x1="242.19" y1="208.01" x2="224.33" y2="223.76"/><line x1="223.19" y1="317.91" x2="243.48" y2="351.95"/><line x1="240.86" y1="145.02" x2="223.29" y2="104.60"/><line x1="317.01" y1="350.76" x2="313.42" y2="351.94"/><line x1="215.50" y1="318.33" x2="217.54" y2="318.85"/><line x1="303.18" y1="153.79" x2="328.93" y2="147.16"/><line x1="310.48" y1="170.15" x2="309.56" y2="169.07"/><line x1="219.87" y1="318.59" x2="220.42" y2="346.43"/><line x1="258.26" y1="318.10" x2="260.43" y2="318.05"/><line x1="217.54" y1="318.85" x2="218.31" y2="318.78"/><line x1="224.33" y1="223.76" x2="245.70" y2="213.02"/><line x1="286.35" y1="311.70" x2="318.67" y2="304.95"/><line x1="265.58" y1="317.87" x2="262.06" y2="318.01"/><line x1="182.53" y1="318.16" x2="184.36" y2="316.07"/><line x1="222.28" y1="159.80" x2="193.08" y2="158.86"/><line x1="193.77" y1="337.15" x2="203.31" y2="315.93"/><line x1="321.49" y1="167.77" x2="308.76" y2="168.03"/><line x1="290.69" y1="142.65" x2="308.50" y2="104.34"/><line x1="261.93" y1="317.92" x2="262.62" y2="317.97"/><line x1="301.83" y1="283.16" x2="279.84" y2="299.08"/><line x1="318.67" y1="304.95" x2="286.20" y2="312.48"/><line x1="181.95" y1="320.42" x2="187.26" y2="315.03"/><line x1="192.49" y1="149.56" x2="192.51" y2="150.16"/><line x1="203.31" y1="315.93" x2="205.33" y2="316.25"/><line x1="480.00" y1="479.91" x2="447.51" y2="479.91"/><line x1="282.70" y1="315.16" x2="287.79" y2="355.49"/><line x1="247.43" y1="352.05" x2="248.76" y2="352.09"/><line x1="223.23" y1="156.69" x2="192.53" y2="150.78"/><line x1="197.39" y1="175.62" x2="199.16" y2="179.61"/><line x1="223.19" y1="317.91" x2="224.49" y2="347.19"/><line x1="328.93" y1="147.16" x2="328.74" y2="145.97"/><line x1="312.80" y1="297.01" x2="315.88" y2="301.11"/><line x1="227.68" y1="228.01" x2="249.49" y2="218.23"/><line x1="223.19" y1="317.91" x2="233.87" y2="350.55"/><line x1="273.97" y1="355.81" x2="271.83" y2="317.39"/><line x1="218.57" y1="107.11" x2="217.43" y2="107.76"/><line x1="232.27" y1="100.63" x2="245.88" y2="143.13"/><line x1="188.32" y1="332.93" x2="201.29" y2="315.65"/><line x1="198.16" y1="126.44" x2="197.56" y2="127.91"/><line x1="186.45" y1="315.19" x2="187.26" y2="315.03"/><line x1="258.26" y1="318.10" x2="223.19" y2="317.91"/><line x1="222.39" y1="169.66" x2="223.10" y2="172.52"/><line x1="260.33" y1="273.66" x2="263.92" y2="278.05"/><line x1="285.16" y1="96.83" x2="284.05" y2="96.65"/><line x1="308.50" y1="104.34" x2="307.39" y2="103.79"/><line x1="219.08" y1="318.70" x2="219.87" y2="318.59"/><line x1="227.89" y1="150.90" x2="196.79" y2="129.80"/><line x1="221.94" y1="162.11" x2="193.44" y2="163.00"/><line x1="222.86" y1="157.68" x2="222.54" y2="158.72"/><line x1="314.65" y1="173.69" x2="313.92" y2="173.30"/><line x1="301.83" y1="283.16" x2="267.24" y2="282.19"/><line x1="271.05" y1="95.79" x2="270.05" y2="95.84"/><line x1="234.28" y1="147.57" x2="233.20" y2="148.04"/><line x1="221.82" y1="346.65" x2="223.18" y2="346.91"/><line x1="192.66" y1="153.66" x2="192.68" y2="154.49"/><line x1="225.37" y1="178.89" x2="226.93" y2="182.41"/><line x1="327.51" y1="138.72" x2="327.76" y2="138.09"/><line x1="248.19" y1="142.29" x2="233.38" y2="100.24"/><line x1="270.05" y1="95.84" x2="268.93" y2="95.91"/><line x1="214.08" y1="109.75" x2="212.95" y2="110.40"/><line x1="322.91" y1="165.02" x2="306.73" y2="164.29"/><line x1="225.98" y1="152.53" x2="194.88" y2="134.84"/><line x1="208.34" y1="344.49" x2="209.71" y2="344.79"/><line x1="192.68" y1="143.01" x2="192.56" y2="143.79"/><line x1="206.31" y1="193.60" x2="228.79" y2="186.15"/><line x1="327.76" y1="138.09" x2="328.03" y2="137.36"/><line x1="239.60" y1="98.54" x2="254.28" y2="140.21"/><line x1="303.68" y1="101.70" x2="302.98" y2="101.22"/><line x1="265.56" y1="354.85" x2="263.27" y2="354.43"/><line x1="240.86" y1="145.02" x2="224.52" y2="104.00"/><line x1="316.86" y1="173.76" x2="317.87" y2="173.01"/><line x1="192.87" y1="157.29" x2="192.94" y2="157.85"/><line x1="303.18" y1="153.79" x2="328.85" y2="148.72"/><line x1="310.48" y1="170.15" x2="321.49" y2="167.77"/><line x1="193.44" y1="163.00" x2="193.96" y2="165.65"/><line x1="302.98" y1="101.22" x2="302.37" y2="100.75"/><line x1="263.81" y1="137.92" x2="262.86" y2="138.02"/><line x1="284.01" y1="314.55" x2="282.70" y2="315.16"/><line x1="315.32" y1="173.93" x2="314.65" y2="173.69"/><line x1="201.46" y1="119.85" x2="200.76" y2="121.06"/><line x1="222.28" y1="159.80" x2="193.02" y2="158.37"/><line x1="321.49" y1="167.77" x2="309.56" y2="169.07"/><line x1="290.69" y1="142.65" x2="309.68" y2="104.89"/><line x1="328.67" y1="133.19" x2="328.34" y2="131.82"/><line x1="227.01" y1="227.20" x2="227.68" y2="228.01"/><line x1="262.86" y1="138.02" x2="261.76" y2="138.20"/><line x1="230.42" y1="149.38" x2="229.66" y2="149.79"/><line x1="181.95" y1="320.42" x2="186.45" y2="315.19"/><line x1="192.49" y1="149.56" x2="223.23" y2="156.69"/><line x1="216.21" y1="210.67" x2="220.12" y2="217.04"/><line x1="328.34" y1="131.82" x2="327.89" y2="130.03"/><line x1="208.30" y1="112.86" x2="207.31" y2="113.44"/><line x1="279.15" y1="139.07" x2="286.30" y2="97.02"/><line x1="326.99" y1="317.75" x2="328.37" y2="320.30"/><line x1="219.71" y1="106.46" x2="218.57" y2="107.11"/><line x1="307.07" y1="165.17" x2="306.73" y2="164.29"/><line x1="197.39" y1="175.62" x2="222.39" y2="169.66"/><line x1="312.80" y1="297.01" x2="286.22" y2="310.70"/><line x1="286.30" y1="97.02" x2="285.16" y2="96.83"/><line x1="192.84" y1="142.13" x2="192.68" y2="143.01"/><line x1="285.03" y1="313.91" x2="304.70" y2="353.84"/><line x1="273.97" y1="355.81" x2="274.55" y2="317.06"/><line x1="188.32" y1="332.93" x2="199.26" y2="315.42"/><line x1="198.16" y1="126.44" x2="227.89" y2="150.90"/><line x1="306.73" y1="164.29" x2="306.51" y2="163.47"/><line x1="225.94" y1="103.33" x2="240.86" y2="145.02"/><line x1="258.36" y1="317.91" x2="260.50" y2="317.92"/><line x1="264.63" y1="137.87" x2="263.81" y2="137.92"/><line x1="260.33" y1="273.66" x2="301.83" y2="283.16"/><line x1="254.28" y1="140.21" x2="252.39" y2="140.83"/><line x1="222.86" y1="157.68" x2="192.66" y2="153.66"/><line x1="296.81" y1="99.01" x2="287.48" y2="97.22"/><line x1="231.31" y1="349.32" x2="232.23" y2="349.72"/><line x1="323.55" y1="116.29" x2="322.19" y2="113.83"/><line x1="202.18" y1="118.69" x2="201.46" y2="119.85"/><line x1="239.40" y1="145.56" x2="238.00" y2="146.08"/><line x1="329.04" y1="336.98" x2="328.87" y2="337.75"/><line x1="234.28" y1="147.57" x2="214.08" y2="109.75"/><line x1="207.36" y1="316.60" x2="201.44" y2="342.48"/><line x1="221.82" y1="346.65" x2="222.35" y2="318.12"/><line x1="327.88" y1="152.88" x2="328.50" y2="150.62"/><line x1="225.37" y1="178.89" x2="206.31" y2="193.60"/><line x1="279.84" y1="96.10" x2="278.86" y2="96.00"/><line x1="248.19" y1="142.29" x2="234.43" y2="99.88"/><line x1="223.18" y1="346.91" x2="223.19" y2="317.91"/><line x1="228.98" y1="150.18" x2="228.40" y2="150.55"/><line x1="267.64" y1="355.19" x2="265.56" y2="354.85"/><line x1="322.91" y1="165.02" x2="307.07" y2="165.17"/><line x1="225.98" y1="152.53" x2="195.45" y2="133.26"/><line x1="208.34" y1="344.49" x2="215.50" y2="318.33"/><line x1="238.00" y1="146.08" x2="219.71" y2="106.46"/><line x1="312.22" y1="106.03" x2="310.92" y2="105.46"/><line x1="269.80" y1="138.01" x2="270.05" y2="95.84"/><line x1="239.60" y1="98.54" x2="256.05" y2="139.66"/><line x1="245.70" y1="213.02" x2="249.49" y2="218.23"/><line x1="277.86" y1="296.21" x2="279.84" y2="299.08"/><line x1="285.03" y1="313.91" x2="322.72" y2="347.93"/><line x1="281.14" y1="355.72" x2="273.97" y2="355.81"/><line x1="210.65" y1="111.65" x2="209.49" y2="112.25"/><line x1="316.86" y1="173.76" x2="315.95" y2="174.01"/><line x1="327.05" y1="139.75" x2="299.22" y2="148.58"/><line x1="192.87" y1="157.29" x2="222.28" y2="159.80"/><line x1="233.32" y1="194.26" x2="236.00" y2="198.63"/><line x1="242.05" y1="351.87" x2="243.48" y2="351.95"/><line x1="209.38" y1="316.97" x2="202.45" y2="342.83"/><line x1="328.19" y1="340.37" x2="327.57" y2="342.50"/><line x1="188.14" y1="314.93" x2="189.08" y2="314.90"/><line x1="184.56" y1="328.98" x2="185.18" y2="329.80"/><line x1="256.05" y1="139.66" x2="254.28" y2="140.21"/><line x1="253.91" y1="352.67" x2="252.01" y2="352.40"/><line x1="285.16" y1="307.90" x2="285.82" y2="309.43"/><line x1="229.66" y1="149.79" x2="201.46" y2="119.85"/><line x1="230.34" y1="348.93" x2="231.31" y2="349.32"/><line x1="196.79" y1="129.80" x2="196.08" y2="131.59"/><line x1="211.42" y1="317.39" x2="213.46" y2="317.84"/><line x1="318.97" y1="171.77" x2="312.31" y2="172.04"/><line x1="215.80" y1="345.83" x2="217.50" y2="346.06"/><line x1="189.08" y1="314.90" x2="182.20" y2="323.87"/><line x1="256.01" y1="353.01" x2="253.91" y2="352.67"/><line x1="193.20" y1="160.07" x2="193.22" y2="160.39"/><line x1="329.23" y1="336.14" x2="330.90" y2="326.43"/><line x1="269.80" y1="138.01" x2="274.21" y2="95.73"/><line x1="245.70" y1="213.02" x2="225.27" y2="225.02"/><line x1="324.73" y1="119.06" x2="323.55" y2="116.29"/><line x1="274.64" y1="138.41" x2="269.80" y2="138.01"/><line x1="267.71" y1="96.00" x2="266.36" y2="96.10"/><line x1="285.03" y1="313.91" x2="328.31" y2="340.01"/><line x1="239.60" y1="98.54" x2="238.87" y2="98.67"/><line x1="285.03" y1="313.91" x2="309.32" y2="352.97"/><line x1="213.46" y1="317.84" x2="208.34" y2="344.49"/><line x1="188.32" y1="332.93" x2="197.23" y2="315.23"/><line x1="480.00" y1="64.50" x2="447.51" y2="32.02"/><line x1="220.68" y1="318.45" x2="221.50" y2="318.29"/><line x1="286.20" y1="312.48" x2="323.39" y2="311.86"/><line x1="223.29" y1="104.60" x2="222.08" y2="105.21"/><line x1="286.20" y1="312.48" x2="285.76" y2="313.22"/><line x1="193.16" y1="314.98" x2="195.20" y2="315.09"/><line x1="182.26" y1="318.85" x2="182.07" y2="319.60"/><line x1="240.57" y1="351.77" x2="242.05" y2="351.87"/><line x1="221.85" y1="163.33" x2="221.82" y2="164.60"/><line x1="326.99" y1="155.49" x2="327.88" y2="152.88"/><line x1="296.81" y1="99.01" x2="301.43" y2="99.85"/><line x1="184.00" y1="328.15" x2="184.56" y2="328.98"/><line x1="229.66" y1="149.79" x2="205.43" y2="114.85"/><line x1="200.09" y1="122.32" x2="199.42" y2="123.64"/><line x1="207.36" y1="316.60" x2="200.50" y2="342.11"/><line x1="308.76" y1="168.03" x2="308.08" y2="167.03"/><line x1="296.72" y1="146.35" x2="326.58" y2="125.20"/><line x1="194.79" y1="168.64" x2="195.93" y2="171.96"/><line x1="258.26" y1="318.10" x2="253.91" y2="352.67"/><line x1="249.49" y1="218.23" x2="234.32" y2="236.18"/><line x1="313.58" y1="106.61" x2="312.22" y2="106.03"/><line x1="260.54" y1="138.46" x2="259.18" y2="138.78"/><line x1="189.08" y1="314.90" x2="191.12" y2="314.92"/><line x1="214.18" y1="345.59" x2="215.80" y2="345.83"/><line x1="281.08" y1="315.71" x2="279.18" y2="316.21"/><line x1="248.19" y1="142.29" x2="235.42" y2="99.56"/><line x1="224.16" y1="154.87" x2="192.49" y2="144.46"/><line x1="228.98" y1="150.18" x2="198.78" y2="125.01"/><line x1="274.64" y1="138.41" x2="281.89" y2="96.34"/><line x1="269.80" y1="138.01" x2="271.05" y2="95.79"/><line x1="245.70" y1="213.02" x2="227.68" y2="228.01"/><line x1="285.03" y1="313.91" x2="324.83" y2="346.28"/><line x1="236.69" y1="146.58" x2="235.45" y2="147.08"/><line x1="285.03" y1="313.91" x2="284.01" y2="314.55"/><line x1="181.91" y1="321.30" x2="181.94" y2="322.15"/><line x1="210.65" y1="111.65" x2="230.42" y2="149.38"/><line x1="218.98" y1="346.23" x2="220.42" y2="346.43"/><line x1="305.75" y1="159.99" x2="304.63" y2="156.76"/><line x1="293.87" y1="144.37" x2="290.69" y2="142.65"/><line x1="283.33" y1="139.99" x2="296.81" y2="99.01"/><line x1="199.16" y1="179.61" x2="201.24" y2="183.94"/><line x1="327.05" y1="139.75" x2="301.37" y2="151.05"/><line x1="233.32" y1="194.26" x2="216.21" y2="210.67"/><line x1="250.35" y1="141.52" x2="237.26" y2="99.03"/><line x1="217.43" y1="107.76" x2="216.32" y2="108.43"/><line x1="222.54" y1="158.72" x2="192.75" y2="156.00"/><line x1="204.63" y1="343.52" x2="205.81" y2="343.85"/><line x1="193.60" y1="138.93" x2="193.30" y2="140.10"/><line x1="223.10" y1="172.52" x2="224.09" y2="175.60"/><line x1="253.92" y1="97.22" x2="260.54" y2="138.46"/><line x1="215.21" y1="109.10" x2="234.28" y2="147.57"/><line x1="285.16" y1="307.90" x2="312.80" y2="297.01"/><line x1="229.91" y1="101.58" x2="228.63" y2="102.11"/><line x1="229.66" y1="149.79" x2="202.18" y2="118.69"/><line x1="196.79" y1="129.80" x2="226.69" y2="151.85"/><line x1="203.62" y1="188.60" x2="225.37" y2="178.89"/><line x1="280.86" y1="96.21" x2="279.84" y2="96.10"/><line x1="318.97" y1="171.77" x2="313.14" y2="172.75"/><line x1="193.17" y1="159.70" x2="193.20" y2="160.07"/><line x1="196.08" y1="131.59" x2="225.98" y2="152.53"/><line x1="205.43" y1="114.85" x2="204.55" y2="115.69"/><line x1="275.60" y1="293.08" x2="277.86" y2="296.21"/><line x1="236.37" y1="99.28" x2="248.19" y2="142.29"/><line x1="329.23" y1="336.14" x2="330.34" y2="324.64"/><line x1="269.80" y1="138.01" x2="275.10" y2="95.75"/><line x1="245.70" y1="213.02" x2="224.78" y2="224.37"/><line x1="274.64" y1="138.41" x2="277.89" y2="95.91"/><line x1="285.03" y1="313.91" x2="328.43" y2="339.57"/><line x1="269.80" y1="138.01" x2="264.63" y2="137.87"/><line x1="267.71" y1="96.00" x2="264.63" y2="137.87"/><line x1="192.80" y1="156.67" x2="192.87" y2="157.29"/><line x1="285.03" y1="313.91" x2="313.42" y2="351.94"/><line x1="225.31" y1="153.25" x2="224.70" y2="154.03"/><line x1="293.87" y1="144.37" x2="318.95" y2="109.88"/><line x1="192.49" y1="144.46" x2="192.46" y2="145.05"/><line x1="283.33" y1="139.99" x2="279.15" y2="139.07"/><line x1="231.26" y1="148.95" x2="210.65" y2="111.65"/><line x1="286.20" y1="312.48" x2="321.18" y2="308.53"/><line x1="223.29" y1="104.60" x2="239.40" y2="145.56"/><line x1="212.61" y1="204.64" x2="233.32" y2="194.26"/><line x1="193.16" y1="314.98" x2="187.43" y2="332.17"/><line x1="209.38" y1="316.97" x2="211.42" y2="317.39"/><line x1="275.10" y1="95.75" x2="274.21" y2="95.73"/><line x1="221.85" y1="163.33" x2="194.79" y2="168.64"/><line x1="296.81" y1="99.01" x2="301.85" y2="100.29"/><line x1="224.70" y1="154.03" x2="193.60" y2="138.93"/><line x1="229.66" y1="149.79" x2="206.34" y2="114.10"/><line x1="317.87" y1="173.01" x2="318.97" y2="171.77"/><line x1="229.66" y1="149.79" x2="228.98" y2="150.18"/><line x1="200.09" y1="122.32" x2="228.98" y2="150.18"/><line x1="296.72" y1="146.35" x2="327.76" y2="138.09"/><line x1="231.12" y1="101.08" x2="229.91" y2="101.58"/><line x1="220.12" y1="217.04" x2="224.33" y2="223.76"/><line x1="296.72" y1="146.35" x2="327.30" y2="127.83"/><line x1="285.76" y1="313.22" x2="285.03" y2="313.91"/><line x1="258.26" y1="318.10" x2="256.01" y2="353.01"/><line x1="249.49" y1="218.23" x2="228.38" y2="228.85"/><line x1="243.44" y1="144.04" x2="240.86" y2="145.02"/><line x1="260.54" y1="138.46" x2="239.60" y2="98.54"/><line x1="222.08" y1="160.93" x2="193.17" y2="159.70"/><line x1="182.87" y1="317.54" x2="182.53" y2="318.16"/><line x1="189.08" y1="314.90" x2="183.09" y2="326.44"/><line x1="287.17" y1="141.19" x2="306.33" y2="103.25"/><line x1="224.16" y1="154.87" x2="192.56" y2="143.79"/><line x1="250.28" y1="352.21" x2="252.01" y2="352.40"/><line x1="32.16" y1="32.09" x2="32.16" y2="64.58"/><line x1="192.51" y1="150.16" x2="192.53" y2="150.78"/><line x1="206.34" y1="114.10" x2="205.43" y2="114.85"/><line x1="274.64" y1="138.41" x2="282.95" y2="96.48"/><line x1="329.23" y1="336.14" x2="329.04" y2="336.98"/><line x1="195.20" y1="315.09" x2="188.32" y2="332.93"/><line x1="183.80" y1="316.49" x2="184.36" y2="316.07"/><line x1="236.69" y1="146.58" x2="217.43" y2="107.76"/><line x1="268.93" y1="95.91" x2="267.71" y2="96.00"/><line x1="305.75" y1="159.99" x2="325.84" y2="158.46"/><line x1="293.87" y1="144.37" x2="312.22" y2="106.03"/><line x1="283.33" y1="139.99" x2="302.37" y2="100.75"/><line x1="199.16" y1="179.61" x2="223.10" y2="172.52"/><line x1="313.42" y1="351.94" x2="309.32" y2="352.97"/><line x1="192.56" y1="143.79" x2="192.49" y2="144.46"/><line x1="250.35" y1="141.52" x2="238.09" y2="98.84"/><line x1="328.03" y1="137.36" x2="328.31" y2="136.55"/><line x1="220.42" y1="346.43" x2="220.68" y2="318.45"/><line x1="302.37" y1="100.75" x2="301.85" y2="100.29"/><line x1="222.54" y1="158.72" x2="192.71" y2="155.27"/><line x1="224.52" y1="104.00" x2="223.29" y2="104.60"/><line x1="184.36" y1="316.07" x2="182.26" y2="318.85"/><line x1="253.92" y1="97.22" x2="261.76" y2="138.20"/><line x1="293.94" y1="355.10" x2="287.79" y2="355.49"/><line x1="193.96" y1="165.65" x2="221.85" y2="163.33"/><line x1="233.20" y1="148.04" x2="232.19" y2="148.50"/><line x1="262.62" y1="317.97" x2="262.63" y2="317.94"/><line x1="229.66" y1="149.79" x2="202.93" y2="117.61"/><line x1="223.67" y1="155.76" x2="223.23" y2="156.69"/><line x1="296.72" y1="146.35" x2="328.87" y2="134.14"/><line x1="277.89" y1="95.91" x2="276.94" y2="95.84"/><line x1="205.33" y1="316.25" x2="207.36" y2="316.60"/><line x1="194.88" y1="134.84" x2="194.39" y2="136.31"/><line x1="224.16" y1="154.87" x2="223.67" y2="155.76"/><line x1="223.19" y1="317.91" x2="248.76" y2="352.09"/><line x1="287.79" y1="355.49" x2="281.08" y2="315.71"/><line x1="329.23" y1="336.14" x2="329.50" y2="322.60"/><line x1="224.49" y1="347.19" x2="225.77" y2="347.50"/><line x1="293.87" y1="144.37" x2="320.66" y2="111.69"/><line x1="309.56" y1="169.07" x2="308.76" y2="168.03"/><line x1="187.26" y1="315.03" x2="181.91" y2="321.30"/><line x1="305.78" y1="288.03" x2="309.43" y2="292.65"/><line x1="209.49" y1="112.25" x2="208.30" y2="112.86"/><line x1="193.16" y1="314.98" x2="186.61" y2="331.40"/><line x1="329.50" y1="322.60" x2="330.34" y2="324.64"/><line x1="222.54" y1="158.72" x2="222.28" y2="159.80"/><line x1="244.84" y1="352.01" x2="246.16" y2="352.05"/><line x1="203.51" y1="343.18" x2="204.63" y2="343.52"/><line x1="268.85" y1="317.66" x2="265.58" y2="317.87"/><line x1="313.92" y1="173.30" x2="318.97" y2="171.77"/><line x1="193.05" y1="141.16" x2="192.84" y2="142.13"/><line x1="218.31" y1="318.78" x2="219.08" y2="318.70"/><line x1="296.72" y1="146.35" x2="327.51" y2="138.72"/><line x1="271.83" y1="317.39" x2="272.69" y2="355.77"/><line x1="220.12" y1="217.04" x2="242.19" y2="208.01"/><line x1="32.00" y1="479.98" x2="64.49" y2="479.98"/><line x1="296.72" y1="146.35" x2="327.89" y2="130.03"/><line x1="285.76" y1="313.22" x2="328.72" y2="338.44"/><line x1="243.44" y1="144.04" x2="225.94" y2="103.33"/><line x1="223.23" y1="156.69" x2="222.86" y2="157.68"/><line x1="191.12" y1="314.92" x2="185.18" y2="329.80"/><line x1="182.87" y1="317.54" x2="183.30" y2="316.99"/><line x1="223.19" y1="317.91" x2="229.29" y2="348.55"/><line x1="232.23" y1="349.72" x2="233.09" y2="350.13"/><line x1="320.18" y1="170.02" x2="321.49" y2="167.77"/><line x1="328.72" y1="338.44" x2="328.57" y2="339.04"/><line x1="223.19" y1="317.91" x2="242.05" y2="351.87"/><line x1="260.43" y1="318.05" x2="261.89" y2="318.01"/><line x1="304.47" y1="102.21" x2="303.68" y2="101.70"/><line x1="286.22" y1="310.70" x2="286.35" y2="311.70"/><line x1="215.50" y1="318.33" x2="211.13" y2="345.07"/><line x1="258.26" y1="318.10" x2="258.36" y2="317.91"/><line x1="217.54" y1="318.85" x2="217.50" y2="346.06"/><line x1="265.58" y1="317.87" x2="260.79" y2="353.93"/><line x1="293.87" y1="144.37" x2="313.58" y2="106.61"/><line x1="281.57" y1="301.69" x2="283.03" y2="304.03"/><line x1="302.37" y1="100.75" x2="296.81" y2="99.01"/><line x1="301.83" y1="283.16" x2="277.86" y2="296.21"/><line x1="222.54" y1="158.72" x2="192.68" y2="154.49"/><line x1="185.18" y1="329.80" x2="185.86" y2="330.60"/><line x1="245.88" y1="143.13" x2="243.44" y2="144.04"/><line x1="200.76" y1="121.06" x2="200.09" y2="122.32"/><line x1="224.70" y1="154.03" x2="224.16" y2="154.87"/><line x1="182.07" y1="319.60" x2="181.95" y2="320.42"/><line x1="223.67" y1="155.76" x2="192.49" y2="149.56"/><line x1="261.76" y1="138.20" x2="260.54" y2="138.46"/><line x1="226.93" y1="182.41" x2="228.79" y2="186.15"/><line x1="325.33" y1="314.93" x2="326.99" y2="317.75"/><line x1="217.50" y1="346.06" x2="218.98" y2="346.23"/><line x1="223.23" y1="156.69" x2="192.51" y2="150.16"/><line x1="236.00" y1="198.63" x2="238.96" y2="203.22"/><line x1="327.89" y1="130.03" x2="327.30" y2="127.83"/><line x1="223.19" y1="317.91" x2="233.09" y2="350.13"/><line x1="194.88" y1="134.84" x2="225.31" y2="153.25"/><line x1="287.17" y1="141.19" x2="283.33" y2="139.99"/><line x1="195.93" y1="171.96" x2="197.39" y2="175.62"/><line x1="328.37" y1="320.30" x2="329.50" y2="322.60"/><line x1="218.57" y1="107.11" x2="236.69" y2="146.58"/><line x1="265.02" y1="237.80" x2="301.83" y2="283.16"/><line x1="223.19" y1="317.91" x2="247.43" y2="352.05"/><line x1="202.45" y1="342.83" x2="203.51" y2="343.18"/><line x1="235.45" y1="147.08" x2="234.28" y2="147.57"/><line x1="303.18" y1="153.79" x2="301.37" y2="151.05"/><line x1="222.39" y1="169.66" x2="199.16" y2="179.61"/><line x1="285.16" y1="96.83" x2="274.64" y2="138.41"/><line x1="293.87" y1="144.37" x2="322.19" y2="113.83"/><line x1="192.94" y1="157.85" x2="193.02" y2="158.37"/><line x1="274.55" y1="317.06" x2="271.83" y2="317.39"/><line x1="227.89" y1="150.90" x2="197.56" y2="127.91"/><line x1="221.94" y1="162.11" x2="193.22" y2="160.68"/><line x1="306.51" y1="163.47" x2="305.75" y2="159.99"/><line x1="193.77" y1="337.15" x2="199.61" y2="341.75"/><line x1="209.49" y1="112.25" x2="229.66" y2="149.79"/><line x1="301.83" y1="283.16" x2="263.92" y2="278.05"/><line x1="252.39" y1="140.83" x2="250.35" y2="141.52"/><line x1="182.20" y1="323.87" x2="182.44" y2="324.73"/><line x1="192.66" y1="153.66" x2="222.54" y2="158.72"/><line x1="268.85" y1="317.66" x2="265.56" y2="354.85"/><line x1="322.19" y1="113.83" x2="320.66" y2="111.69"/><line x1="263.92" y1="278.05" x2="267.24" y2="282.19"/><line x1="304.63" y1="156.76" x2="303.18" y2="153.79"/><line x1="193.05" y1="141.16" x2="224.16" y2="154.87"/><line x1="328.87" y1="337.75" x2="328.72" y2="338.44"/><line x1="185.00" y1="315.72" x2="185.69" y2="315.41"/><line x1="214.08" y1="109.75" x2="233.20" y2="148.04"/><line x1="182.44" y1="324.73" x2="182.73" y2="325.59"/><line x1="32.00" y1="479.98" x2="32.00" y2="447.50"/><line x1="243.44" y1="144.04" x2="227.32" y2="102.70"/><line x1="223.23" y1="156.69" x2="192.66" y2="152.78"/><line x1="206.31" y1="193.60" x2="226.93" y2="182.41"/><line x1="191.12" y1="314.92" x2="184.56" y2="328.98"/><line x1="278.86" y1="96.00" x2="277.89" y2="95.91"/><line x1="223.19" y1="317.91" x2="228.18" y2="348.19"/><line x1="320.18" y1="170.02" x2="310.48" y2="170.15"/><line x1="328.72" y1="338.44" x2="285.03" y2="313.91"/><line x1="223.19" y1="317.91" x2="240.57" y2="351.77"/><line x1="265.56" y1="354.85" x2="265.58" y2="317.87"/><line x1="223.19" y1="317.91" x2="258.36" y2="317.91"/><line x1="195.45" y1="133.26" x2="194.88" y2="134.84"/><line x1="215.50" y1="318.33" x2="209.71" y2="344.79"/><line x1="303.18" y1="153.79" x2="328.50" y2="150.62"/><line x1="203.72" y1="116.60" x2="202.93" y2="117.61"/><line x1="279.84" y1="299.08" x2="281.57" y2="301.69"/><line x1="217.54" y1="318.85" x2="215.80" y2="345.83"/><line x1="192.46" y1="148.44" x2="192.47" y2="148.99"/><line x1="235.42" y1="99.56" x2="234.43" y2="99.88"/><line x1="328.87" y1="134.14" x2="328.67" y2="133.19"/><line x1="265.58" y1="317.87" x2="263.27" y2="354.43"/><line x1="315.32" y1="173.93" x2="317.87" y2="173.01"/><line x1="222.28" y1="159.80" x2="192.94" y2="157.85"/><line x1="243.48" y1="351.95" x2="244.84" y2="352.01"/><line x1="290.69" y1="142.65" x2="310.92" y2="105.46"/><line x1="281.57" y1="301.69" x2="305.78" y2="288.03"/><line x1="301.83" y1="283.16" x2="275.60" y2="293.08"/><line x1="327.57" y1="342.50" x2="326.45" y2="344.47"/><line x1="230.42" y1="149.38" x2="209.49" y2="112.25"/><line x1="309.43" y1="292.65" x2="312.80" y2="297.01"/><line x1="185.18" y1="329.80" x2="193.16" y2="314.98"/><line x1="245.88" y1="143.13" x2="228.63" y2="102.11"/><line x1="216.21" y1="210.67" x2="236.00" y2="198.63"/><line x1="228.63" y1="102.11" x2="227.32" y2="102.70"/><line x1="326.45" y1="344.47" x2="324.83" y2="346.28"/><line x1="193.30" y1="140.10" x2="193.05" y2="141.16"/><line x1="322.91" y1="165.02" x2="324.41" y2="161.77"/><line x1="217.50" y1="346.06" x2="218.31" y2="318.78"/><line x1="236.00" y1="198.63" x2="220.12" y2="217.04"/><line x1="312.80" y1="297.01" x2="285.82" y2="309.43"/><line x1="223.19" y1="317.91" x2="232.23" y2="349.72"/><line x1="325.73" y1="122.16" x2="324.73" y2="119.06"/><line x1="312.31" y1="172.04" x2="311.42" y2="171.18"/><line x1="235.45" y1="147.08" x2="215.21" y2="109.10"/><line x1="303.18" y1="153.79" x2="327.05" y2="139.75"/><line x1="258.36" y1="317.91" x2="260.43" y2="318.05"/><line x1="264.63" y1="137.87" x2="253.92" y2="97.22"/><line x1="285.82" y1="309.43" x2="286.22" y2="310.70"/><line x1="197.23" y1="315.23" x2="199.26" y2="315.42"/><line x1="328.61" y1="135.65" x2="328.93" y2="134.68"/><line x1="221.94" y1="162.11" x2="193.22" y2="160.39"/><line x1="222.28" y1="159.80" x2="222.08" y2="160.93"/><line x1="193.77" y1="337.15" x2="207.36" y2="316.60"/><line x1="290.69" y1="142.65" x2="287.17" y2="141.19"/><line x1="325.84" y1="158.46" x2="326.99" y2="155.49"/><line x1="239.40" y1="145.56" x2="220.89" y2="105.83"/><line x1="304.70" y1="353.84" x2="299.58" y2="354.54"/><line x1="301.83" y1="283.16" x2="305.78" y2="288.03"/><line x1="221.82" y1="346.65" x2="221.50" y2="318.29"/><line x1="327.88" y1="152.88" x2="303.18" y2="153.79"/><line x1="225.27" y1="225.02" x2="225.81" y2="225.71"/><line x1="185.00" y1="315.72" x2="182.07" y2="319.60"/><line x1="322.91" y1="165.02" x2="307.52" y2="166.08"/><line x1="221.82" y1="164.60" x2="221.96" y2="167.02"/><line x1="232.19" y1="148.50" x2="231.26" y2="148.95"/><line x1="312.22" y1="106.03" x2="290.69" y2="142.65"/><line x1="223.23" y1="156.69" x2="192.61" y2="152.09"/><line x1="239.60" y1="98.54" x2="257.68" y2="139.19"/><line x1="191.12" y1="314.92" x2="184.00" y2="328.15"/><line x1="223.19" y1="317.91" x2="227.00" y2="347.84"/><line x1="281.14" y1="355.72" x2="277.00" y2="316.67"/><line x1="316.86" y1="173.76" x2="315.32" y2="173.93"/><line x1="234.32" y1="236.18" x2="244.97" y2="252.00"/><line x1="274.21" y1="95.73" x2="273.34" y2="95.72"/><line x1="217.54" y1="318.85" x2="214.18" y2="345.59"/><line x1="188.14" y1="314.93" x2="182.04" y2="323.02"/><line x1="315.32" y1="173.93" x2="315.95" y2="174.01"/><line x1="301.37" y1="151.05" x2="299.22" y2="148.58"/><line x1="262.06" y1="318.01" x2="258.26" y2="318.10"/><line x1="221.94" y1="162.11" x2="221.85" y2="163.33"/><line x1="273.34" y1="95.72" x2="272.69" y2="95.73"/><line x1="301.83" y1="283.16" x2="273.08" y2="289.71"/><line x1="211.42" y1="317.39" x2="207.05" y2="344.18"/><line x1="201.24" y1="183.94" x2="203.62" y2="188.60"/><line x1="299.22" y1="148.58" x2="296.72" y2="146.35"/><line x1="306.33" y1="103.25" x2="305.36" y2="102.72"/><line x1="271.20" y1="355.65" x2="269.52" y2="355.46"/><line x1="228.63" y1="102.11" x2="243.44" y2="144.04"/><line x1="248.19" y1="142.29" x2="245.88" y2="143.13"/><line x1="313.14" y1="172.75" x2="312.31" y2="172.04"/><line x1="322.91" y1="165.02" x2="305.75" y2="159.99"/><line x1="193.20" y1="160.07" x2="221.94" y2="162.11"/><line x1="305.36" y1="102.72" x2="304.47" y2="102.21"/><line x1="239.60" y1="98.54" x2="250.35" y2="141.52"/><line x1="309.32" y1="352.97" x2="304.70" y2="353.84"/><line x1="183.09" y1="326.44" x2="183.51" y2="327.30"/><line x1="204.55" y1="115.69" x2="203.72" y2="116.60"/><line x1="312.31" y1="172.04" x2="320.18" y2="170.02"/><line x1="240.86" y1="145.02" x2="239.40" y2="145.56"/><line x1="220.68" y1="318.45" x2="221.82" y2="346.65"/><line x1="328.31" y1="136.55" x2="328.61" y2="135.65"/><line x1="224.78" y1="224.37" x2="225.27" y2="225.02"/><line x1="264.63" y1="137.87" x2="266.36" y2="96.10"/><line x1="182.26" y1="318.85" x2="185.00" y2="315.72"/><line x1="286.35" y1="311.70" x2="286.20" y2="312.48"/><line x1="211.13" y1="345.07" x2="212.62" y2="345.34"/><line x1="192.46" y1="145.05" x2="192.46" y2="148.44"/><line x1="209.31" y1="198.96" x2="212.61" y2="204.64"/><line x1="328.61" y1="135.65" x2="328.87" y2="134.14"/><line x1="222.28" y1="159.80" x2="193.13" y2="159.30"/><line x1="193.77" y1="337.15" x2="205.33" y2="316.25"/><line x1="321.18" y1="308.53" x2="323.39" y2="311.86"/><line x1="260.79" y1="353.93" x2="258.31" y2="353.43"/><line x1="239.40" y1="145.56" x2="222.08" y2="105.21"/><line x1="207.36" y1="316.60" x2="199.61" y2="341.75"/><line x1="308.76" y1="168.03" x2="322.91" y2="165.02"/><line x1="194.79" y1="168.64" x2="221.82" y2="164.60"/><line x1="181.95" y1="320.42" x2="181.91" y2="321.30"/><line x1="283.03" y1="304.03" x2="284.23" y2="306.10"/><line x1="301.85" y1="100.29" x2="301.43" y2="99.85"/><line x1="323.39" y1="311.86" x2="325.33" y2="314.93"/><line x1="281.08" y1="315.71" x2="281.14" y2="355.72"/><line x1="279.15" y1="139.07" x2="274.64" y2="138.41"/><line x1="228.98" y1="150.18" x2="199.42" y2="123.64"/><line x1="199.61" y1="341.75" x2="200.50" y2="342.11"/><line x1="322.91" y1="165.02" x2="308.08" y2="167.03"/><line x1="225.77" y1="347.50" x2="227.00" y2="347.84"/><line x1="221.82" y1="164.60" x2="195.93" y2="171.96"/><line x1="228.38" y1="228.85" x2="234.32" y2="236.18"/><line x1="269.80" y1="138.01" x2="271.93" y2="95.75"/><line x1="245.70" y1="213.02" x2="227.01" y2="227.20"/><line x1="239.60" y1="98.54" x2="259.18" y2="138.78"/><line x1="285.03" y1="313.91" x2="326.45" y2="344.47"/><line x1="281.14" y1="355.72" x2="279.18" y2="316.21"/><line x1="285.03" y1="313.91" x2="293.94" y2="355.10"/><line x1="181.91" y1="321.30" x2="188.14" y2="314.93"/><line x1="218.98" y1="346.23" x2="219.87" y2="318.59"/><line x1="192.53" y1="150.78" x2="192.57" y2="151.42"/><line x1="273.97" y1="355.81" x2="272.69" y2="355.77"/><line x1="232.27" y1="100.63" x2="231.12" y2="101.08"/><line x1="326.58" y1="125.20" x2="325.73" y2="122.16"/><line x1="188.32" y1="332.93" x2="193.77" y2="337.15"/><line x1="227.00" y1="347.84" x2="228.18" y2="348.19"/><line x1="234.32" y1="236.18" x2="265.02" y2="237.80"/><line x1="330.34" y1="324.64" x2="330.90" y2="326.43"/><line x1="217.43" y1="107.76" x2="235.45" y2="147.08"/><line x1="188.14" y1="314.93" x2="181.94" y2="322.15"/><line x1="64.64" y1="32.09" x2="32.16" y2="64.58"/><line x1="204.63" y1="343.52" x2="211.42" y2="317.39"/><line x1="192.57" y1="151.42" x2="192.61" y2="152.09"/><line x1="223.10" y1="172.52" x2="201.24" y2="183.94"/><line x1="284.05" y1="96.65" x2="282.95" y2="96.48"/><line x1="330.90" y1="326.43" x2="331.20" y2="327.95"/><line x1="272.69" y1="355.77" x2="271.20" y2="355.65"/><line x1="196.79" y1="129.80" x2="227.47" y2="151.23"/><line x1="211.42" y1="317.39" x2="205.81" y2="343.85"/><line x1="261.89" y1="318.01" x2="262.62" y2="317.97"/><line x1="233.09" y1="350.13" x2="233.87" y2="350.55"/><line x1="201.24" y1="183.94" x2="224.09" y2="175.60"/><line x1="267.24" y1="282.19" x2="270.29" y2="286.08"/><line x1="238.87" y1="98.67" x2="238.09" y2="98.84"/><line x1="212.95" y1="110.40" x2="211.80" y2="111.03"/><line x1="271.20" y1="355.65" x2="268.85" y2="317.66"/><line x1="182.73" y1="325.59" x2="183.09" y2="326.44"/><line x1="227.47" y1="151.23" x2="226.69" y2="151.85"/><line x1="248.19" y1="142.29" x2="232.27" y2="100.63"/><line x1="192.68" y1="154.49" x2="192.71" y2="155.27"/><line x1="228.79" y1="186.15" x2="230.91" y2="190.10"/><line x1="322.91" y1="165.02" x2="306.51" y2="163.47"/><line x1="225.98" y1="152.53" x2="225.31" y2="153.25"/><line x1="233.87" y1="350.55" x2="237.45" y2="351.49"/><line x1="269.80" y1="138.01" x2="276.01" y2="95.79"/><line x1="270.29" y1="286.08" x2="273.08" y2="289.71"/><line x1="238.00" y1="146.08" x2="236.69" y2="146.58"/><line x1="274.64" y1="138.41" x2="278.86" y2="96.00"/><line x1="285.03" y1="313.91" x2="328.57" y2="339.04"/><line x1="269.80" y1="138.01" x2="267.71" y2="96.00"/><line x1="239.60" y1="98.54" x2="252.39" y2="140.83"/><line x1="285.03" y1="313.91" x2="317.01" y2="350.76"/><line x1="225.31" y1="153.25" x2="193.96" y2="137.68"/><line x1="183.09" y1="326.44" x2="191.12" y2="314.92"/><line x1="209.71" y1="344.79" x2="211.13" y2="345.07"/><line x1="192.71" y1="155.27" x2="192.75" y2="156.00"/><line x1="283.33" y1="139.99" x2="287.48" y2="97.22"/><line x1="327.05" y1="139.75" x2="327.27" y2="139.28"/><line x1="328.57" y1="339.04" x2="328.43" y2="339.57"/><line x1="209.38" y1="316.97" x2="204.63" y2="343.52"/><line x1="211.13" y1="345.07" x2="217.54" y2="318.85"/><line x1="209.31" y1="198.96" x2="230.91" y2="190.10"/><line x1="229.66" y1="149.79" x2="207.31" y2="113.44"/><line x1="260.79" y1="353.93" x2="262.06" y2="318.01"/><line x1="317.87" y1="173.01" x2="313.92" y2="173.30"/><line x1="229.66" y1="149.79" x2="200.09" y2="122.32"/><line x1="194.39" y1="136.31" x2="193.96" y2="137.68"/><line x1="246.16" y1="352.05" x2="247.43" y2="352.05"/><line x1="327.30" y1="127.83" x2="326.58" y2="125.20"/><line x1="283.03" y1="304.03" x2="309.43" y2="292.65"/><line x1="189.08" y1="314.90" x2="182.73" y2="325.59"/><line x1="279.15" y1="139.07" x2="285.16" y2="96.83"/><line x1="224.16" y1="154.87" x2="192.68" y2="143.01"/><line x1="32.16" y1="32.09" x2="64.64" y2="32.09"/><line x1="185.86" y1="330.60" x2="186.61" y2="331.40"/><line x1="274.64" y1="138.41" x2="284.05" y2="96.65"/><line x1="329.23" y1="336.14" x2="285.76" y2="313.22"/><line x1="269.80" y1="138.01" x2="272.69" y2="95.73"/><line x1="245.70" y1="213.02" x2="226.39" y2="226.44"/><line x1="285.03" y1="313.91" x2="327.57" y2="342.50"/><line x1="183.80" y1="316.49" x2="182.53" y2="318.16"/><line x1="197.56" y1="127.91" x2="196.79" y2="129.80"/><line x1="285.03" y1="313.91" x2="299.58" y2="354.54"/><line x1="218.98" y1="346.23" x2="219.08" y2="318.70"/><line x1="305.75" y1="159.99" x2="324.41" y2="161.77"/><line x1="260.50" y1="317.92" x2="261.93" y2="317.92"/><line x1="283.33" y1="139.99" x2="302.98" y2="101.22"/><line x1="315.88" y1="301.11" x2="318.67" y2="304.95"/><line x1="225.94" y1="103.33" x2="224.52" y2="104.00"/><line x1="250.35" y1="141.52" x2="238.87" y2="98.67"/><line x1="286.20" y1="312.48" x2="329.23" y2="336.14"/><line x1="253.91" y1="352.67" x2="223.19" y2="317.91"/><line x1="201.29" y1="315.65" x2="203.31" y2="315.93"/><line x1="324.41" y1="161.77" x2="325.84" y2="158.46"/><line x1="320.66" y1="111.69" x2="318.95" y2="109.88"/><line x1="253.92" y1="97.22" x2="262.86" y2="138.02"/><line x1="293.94" y1="355.10" x2="282.70" y2="315.16"/><line x1="233.20" y1="148.04" x2="212.95" y2="110.40"/><line x1="229.66" y1="149.79" x2="203.72" y2="116.60"/><line x1="32.00" y1="447.50" x2="64.49" y2="479.98"/><line x1="222.35" y1="318.12" x2="223.19" y2="317.91"/></g></svg>