<svg xmlns="http://www.w3.org/2000/svg" width="512" height="512"><rect width="512" height="512" fill="#0a0f1a"/><text x="12" y="20" font-family="monospace" font-size="11" fill="#4a7fa5">FRONT (XZ)</text><g stroke="#00d4ff" stroke-width="0.6" opacity="0.85"><line x1="263.93" y1="304.19" x2="234.68" y2="312.16"/><line x1="249.47" y1="255.14" x2="249.39" y2="254.57"/><line x1="221.91" y1="160.90" x2="221.47" y2="159.10"/><line x1="303.82" y1="73.94" x2="317.14" y2="113.33"/><line x1="185.49" y1="153.43" x2="185.57" y2="152.73"/><line x1="206.94" y1="112.99" x2="223.50" y2="139.27"/><line x1="273.21" y1="348.09" x2="273.04" y2="346.58"/><line x1="255.90" y1="86.64" x2="256.83" y2="86.28"/><line x1="249.39" y1="254.57" x2="249.29" y2="253.97"/><line x1="185.98" y1="164.83" x2="185.74" y2="162.19"/><line x1="225.89" y1="172.84" x2="191.28" y2="190.75"/><line x1="193.83" y1="127.81" x2="194.46" y2="126.90"/><line x1="273.04" y1="346.58" x2="272.82" y2="344.94"/><line x1="232.68" y1="306.65" x2="262.78" y2="298.60"/><line x1="316.07" y1="114.67" x2="316.65" y2="114.02"/><line x1="191.28" y1="190.75" x2="190.41" y2="187.65"/><line x1="235.83" y1="132.75" x2="237.05" y2="132.22"/><line x1="262.78" y1="298.60" x2="232.09" y2="304.61"/><line x1="248.69" y1="250.41" x2="248.56" y2="249.57"/><line x1="319.06" y1="70.31" x2="325.80" y2="72.63"/><line x1="186.43" y1="147.98" x2="220.08" y2="149.70"/><line x1="264.44" y1="360.44" x2="268.72" y2="359.72"/><line x1="270.87" y1="335.20" x2="248.19" y2="348.46"/><line x1="237.05" y1="132.22" x2="223.69" y2="101.85"/><line x1="262.22" y1="84.76" x2="267.51" y2="83.26"/><line x1="327.68" y1="80.65" x2="327.64" y2="79.18"/><line x1="248.56" y1="249.57" x2="248.44" y2="248.71"/><line x1="241.02" y1="131.47" x2="246.31" y2="130.53"/><line x1="303.82" y1="73.94" x2="313.81" y2="116.30"/><line x1="325.80" y1="72.63" x2="325.22" y2="71.90"/><line x1="221.76" y1="141.03" x2="198.11" y2="122.40"/><line x1="221.09" y1="142.26" x2="221.41" y2="141.61"/><line x1="248.19" y1="348.46" x2="270.31" y2="332.94"/><line x1="230.81" y1="300.42" x2="260.63" y2="290.23"/><line x1="267.51" y1="83.26" x2="268.50" y2="82.97"/><line x1="318.24" y1="109.11" x2="319.54" y2="106.32"/><line x1="187.65" y1="175.83" x2="223.60" y2="166.62"/><line x1="225.89" y1="172.84" x2="225.06" y2="170.71"/><line x1="218.26" y1="105.46" x2="221.05" y2="103.57"/><line x1="246.31" y1="130.53" x2="232.91" y2="96.84"/><line x1="260.63" y1="290.23" x2="230.11" y2="298.28"/><line x1="319.54" y1="106.32" x2="320.75" y2="103.64"/><line x1="321.31" y1="69.96" x2="319.71" y2="70.11"/><line x1="220.08" y1="147.33" x2="188.32" y2="140.86"/><line x1="270.90" y1="358.03" x2="260.07" y2="358.14"/><line x1="232.91" y1="96.84" x2="234.86" y2="96.05"/><line x1="274.43" y1="80.95" x2="275.80" y2="80.43"/><line x1="246.06" y1="240.67" x2="245.34" y2="238.67"/><line x1="319.71" y1="70.11" x2="320.33" y2="69.89"/><line x1="319.06" y1="70.31" x2="323.09" y2="70.40"/><line x1="201.28" y1="118.91" x2="206.94" y2="112.99"/><line x1="245.75" y1="345.80" x2="245.47" y2="345.05"/><line x1="220.25" y1="145.41" x2="220.40" y2="144.53"/><line x1="227.82" y1="291.64" x2="226.98" y2="289.36"/><line x1="275.80" y1="80.43" x2="276.92" y2="79.97"/><line x1="324.60" y1="94.13" x2="325.32" y2="92.05"/><line x1="265.04" y1="310.73" x2="264.80" y2="309.20"/><line x1="221.91" y1="160.90" x2="185.98" y2="164.83"/><line x1="220.40" y1="144.53" x2="190.19" y2="134.99"/><line x1="206.94" y1="112.99" x2="223.02" y2="139.62"/><line x1="237.36" y1="95.10" x2="238.16" y2="94.76"/><line x1="325.32" y1="92.05" x2="325.95" y2="90.09"/><line x1="229.50" y1="135.88" x2="211.28" y2="110.25"/><line x1="236.24" y1="316.22" x2="264.55" y2="307.60"/><line x1="238.16" y1="94.76" x2="239.02" y2="94.39"/><line x1="246.31" y1="130.53" x2="264.80" y2="125.75"/><line x1="185.46" y1="157.06" x2="185.43" y2="154.57"/><line x1="222.14" y1="140.51" x2="222.56" y2="140.03"/><line x1="480.00" y1="32.02" x2="447.51" y2="32.02"/><line x1="189.80" y1="136.04" x2="190.19" y2="134.99"/><line x1="282.24" y1="78.23" x2="283.25" y2="77.99"/><line x1="220.52" y1="154.09" x2="220.32" y2="152.56"/><line x1="220.82" y1="142.96" x2="192.64" y2="129.73"/><line x1="209.66" y1="111.32" x2="211.28" y2="110.25"/><line x1="252.91" y1="87.91" x2="253.94" y2="87.45"/><line x1="198.42" y1="212.98" x2="192.21" y2="193.89"/><line x1="327.68" y1="80.65" x2="316.08" y2="71.05"/><line x1="237.19" y1="211.40" x2="205.01" y2="232.62"/><line x1="232.46" y1="134.33" x2="233.54" y2="133.81"/><line x1="261.09" y1="358.87" x2="270.90" y2="358.03"/><line x1="267.11" y1="318.64" x2="238.79" y2="323.34"/><line x1="263.57" y1="302.39" x2="263.19" y2="300.53"/><line x1="221.09" y1="142.26" x2="195.81" y2="125.21"/><line x1="296.34" y1="119.75" x2="280.17" y2="78.81"/><line x1="234.36" y1="196.91" x2="231.44" y2="188.07"/><line x1="246.76" y1="242.54" x2="246.06" y2="240.67"/><line x1="225.89" y1="172.84" x2="188.89" y2="181.64"/><line x1="218.26" y1="105.46" x2="234.66" y2="133.29"/><line x1="222.56" y1="140.03" x2="201.28" y2="118.91"/><line x1="246.09" y1="346.48" x2="245.75" y2="345.80"/><line x1="327.07" y1="75.44" x2="326.72" y2="74.40"/><line x1="185.82" y1="151.09" x2="185.99" y2="150.14"/><line x1="186.30" y1="167.51" x2="221.91" y2="160.90"/><line x1="258.45" y1="283.27" x2="227.82" y2="291.64"/><line x1="195.81" y1="125.21" x2="196.57" y2="124.26"/><line x1="189.44" y1="137.08" x2="220.40" y2="144.53"/><line x1="272.45" y1="356.54" x2="272.83" y2="356.10"/><line x1="227.82" y1="291.64" x2="249.60" y2="256.18"/><line x1="220.32" y1="152.56" x2="185.68" y2="151.96"/><line x1="188.89" y1="181.64" x2="188.23" y2="178.70"/><line x1="237.19" y1="211.40" x2="207.09" y2="236.92"/><line x1="220.40" y1="144.53" x2="189.80" y2="136.04"/><line x1="267.11" y1="318.64" x2="246.50" y2="347.08"/><line x1="226.21" y1="100.32" x2="228.58" y2="98.98"/><line x1="272.83" y1="356.10" x2="273.14" y2="355.67"/><line x1="261.81" y1="294.55" x2="261.25" y2="292.43"/><line x1="237.06" y1="318.46" x2="236.24" y2="316.22"/><line x1="296.34" y1="119.75" x2="289.20" y2="76.86"/><line x1="281.22" y1="78.49" x2="282.24" y2="78.23"/><line x1="207.09" y1="236.92" x2="206.65" y2="235.96"/><line x1="187.04" y1="145.43" x2="187.42" y2="144.01"/><line x1="220.78" y1="155.69" x2="185.46" y2="157.06"/><line x1="229.50" y1="135.88" x2="209.66" y2="111.32"/><line x1="236.24" y1="316.22" x2="264.80" y2="309.20"/><line x1="223.19" y1="279.88" x2="222.13" y2="277.43"/><line x1="327.64" y1="81.94" x2="327.68" y2="80.65"/><line x1="185.46" y1="157.06" x2="220.52" y2="154.09"/><line x1="259.11" y1="357.30" x2="252.80" y2="351.00"/><line x1="222.14" y1="140.51" x2="200.48" y2="119.75"/><line x1="480.00" y1="32.02" x2="480.00" y2="64.50"/><line x1="273.68" y1="353.54" x2="273.64" y2="352.73"/><line x1="251.85" y1="88.39" x2="252.91" y2="87.91"/><line x1="222.13" y1="277.43" x2="217.24" y2="263.98"/><line x1="222.97" y1="164.66" x2="222.41" y2="162.76"/><line x1="204.63" y1="231.89" x2="198.42" y2="212.98"/><line x1="480.00" y1="479.91" x2="480.00" y2="447.42"/><line x1="220.82" y1="142.96" x2="192.09" y2="130.74"/><line x1="273.64" y1="352.73" x2="273.58" y2="351.79"/><line x1="234.68" y1="312.16" x2="263.57" y2="302.39"/><line x1="311.86" y1="117.14" x2="312.88" y2="116.75"/><line x1="211.02" y1="246.20" x2="246.06" y2="240.67"/><line x1="198.42" y1="212.98" x2="234.36" y2="196.91"/><line x1="237.19" y1="211.40" x2="205.41" y2="233.39"/><line x1="185.57" y1="152.73" x2="185.68" y2="151.96"/><line x1="223.50" y1="139.27" x2="224.03" y2="138.97"/><line x1="232.46" y1="134.33" x2="218.26" y2="105.46"/><line x1="267.11" y1="318.64" x2="245.27" y2="344.22"/><line x1="296.34" y1="119.75" x2="279.11" y2="79.16"/><line x1="263.57" y1="302.39" x2="233.95" y2="310.34"/><line x1="249.29" y1="253.97" x2="249.19" y2="253.33"/><line x1="327.34" y1="76.59" x2="327.07" y2="75.44"/><line x1="185.68" y1="151.96" x2="185.82" y2="151.09"/><line x1="447.51" y1="479.91" x2="480.00" y2="447.42"/><line x1="257.76" y1="85.95" x2="258.67" y2="85.65"/><line x1="249.19" y1="253.33" x2="249.07" y2="252.66"/><line x1="327.07" y1="75.44" x2="318.37" y2="70.51"/><line x1="268.72" y1="359.72" x2="269.51" y2="359.14"/><line x1="195.12" y1="126.04" x2="195.81" y2="125.21"/><line x1="272.54" y1="343.19" x2="272.21" y2="341.35"/><line x1="317.14" y1="113.33" x2="317.53" y2="112.59"/><line x1="189.62" y1="184.62" x2="188.89" y2="181.64"/><line x1="263.27" y1="360.02" x2="262.16" y2="359.50"/><line x1="235.45" y1="314.12" x2="234.68" y2="312.16"/><line x1="223.69" y1="101.85" x2="226.21" y2="100.32"/><line x1="315.24" y1="71.22" x2="326.91" y2="86.49"/><line x1="262.32" y1="296.61" x2="261.81" y2="294.55"/><line x1="211.02" y1="246.20" x2="248.32" y2="247.79"/><line x1="317.53" y1="112.59" x2="317.85" y2="111.80"/><line x1="220.32" y1="152.56" x2="185.57" y2="152.73"/><line x1="325.22" y1="71.90" x2="324.58" y2="71.29"/><line x1="211.02" y1="246.20" x2="243.02" y2="231.82"/><line x1="186.72" y1="146.76" x2="187.04" y2="145.43"/><line x1="252.80" y1="351.00" x2="273.04" y2="346.58"/><line x1="237.19" y1="211.40" x2="234.36" y2="196.91"/><line x1="198.89" y1="121.50" x2="199.68" y2="120.61"/><line x1="267.11" y1="318.64" x2="247.00" y2="347.61"/><line x1="268.50" y1="82.97" x2="269.56" y2="82.64"/><line x1="296.34" y1="119.75" x2="283.25" y2="77.99"/><line x1="187.13" y1="173.00" x2="186.68" y2="170.23"/><line x1="324.58" y1="71.29" x2="323.87" y2="70.79"/><line x1="259.96" y1="287.98" x2="259.23" y2="285.66"/><line x1="269.56" y1="82.64" x2="270.69" y2="82.27"/><line x1="320.75" y1="103.64" x2="321.85" y2="101.08"/><line x1="220.14" y1="146.34" x2="220.25" y2="145.41"/><line x1="259.11" y1="357.30" x2="272.00" y2="357.02"/><line x1="276.92" y1="79.97" x2="278.03" y2="79.55"/><line x1="321.85" y1="101.08" x2="322.86" y2="98.64"/><line x1="188.83" y1="139.14" x2="189.12" y2="138.11"/><line x1="480.00" y1="479.91" x2="447.51" y2="479.91"/><line x1="286.52" y1="120.97" x2="259.58" y2="85.38"/><line x1="315.24" y1="71.22" x2="327.68" y2="80.65"/><line x1="211.02" y1="246.20" x2="248.95" y2="251.95"/><line x1="286.52" y1="120.97" x2="273.12" y2="81.43"/><line x1="211.02" y1="246.20" x2="246.76" y2="242.54"/><line x1="221.47" y1="159.10" x2="221.09" y2="157.36"/><line x1="252.80" y1="351.00" x2="273.64" y2="352.73"/><line x1="237.19" y1="211.40" x2="205.81" y2="234.20"/><line x1="223.50" y1="139.27" x2="208.41" y2="112.14"/><line x1="252.80" y1="351.00" x2="271.82" y2="339.40"/><line x1="272.82" y1="344.94" x2="272.54" y2="343.19"/><line x1="267.11" y1="318.64" x2="245.47" y2="345.05"/><line x1="296.34" y1="119.75" x2="278.03" y2="79.55"/><line x1="185.74" y1="162.19" x2="185.57" y2="159.60"/><line x1="190.41" y1="187.65" x2="189.62" y2="184.62"/><line x1="232.09" y1="304.61" x2="262.32" y2="296.61"/><line x1="190.61" y1="133.94" x2="191.07" y2="132.87"/><line x1="268.72" y1="359.72" x2="263.27" y2="360.02"/><line x1="264.55" y1="307.60" x2="264.25" y2="305.93"/><line x1="289.20" y1="76.86" x2="303.82" y2="73.94"/><line x1="316.08" y1="71.05" x2="316.88" y2="70.88"/><line x1="248.44" y1="248.71" x2="248.32" y2="247.79"/><line x1="185.43" y1="154.57" x2="185.45" y2="154.04"/><line x1="264.80" y1="125.75" x2="239.02" y2="94.39"/><line x1="213.25" y1="108.92" x2="215.58" y2="107.32"/><line x1="286.52" y1="120.97" x2="254.94" y2="87.03"/><line x1="235.45" y1="314.12" x2="263.93" y2="304.19"/><line x1="270.31" y1="332.94" x2="267.11" y2="318.64"/><line x1="315.24" y1="71.22" x2="326.48" y2="88.23"/><line x1="211.02" y1="246.20" x2="249.47" y2="255.14"/><line x1="286.52" y1="120.97" x2="267.51" y2="83.26"/><line x1="303.82" y1="73.94" x2="322.86" y2="98.64"/><line x1="249.60" y1="256.18" x2="222.13" y2="277.43"/><line x1="192.21" y1="193.89" x2="191.28" y2="190.75"/><line x1="211.02" y1="246.20" x2="248.44" y2="248.71"/><line x1="248.32" y1="247.79" x2="248.21" y2="246.83"/><line x1="220.32" y1="152.56" x2="185.49" y2="153.43"/><line x1="286.52" y1="120.97" x2="296.34" y2="119.75"/><line x1="252.80" y1="351.00" x2="273.38" y2="355.27"/><line x1="211.02" y1="246.20" x2="243.81" y2="234.24"/><line x1="327.64" y1="79.18" x2="327.53" y2="77.84"/><line x1="252.80" y1="351.00" x2="273.21" y2="348.09"/><line x1="198.89" y1="121.50" x2="222.14" y2="140.51"/><line x1="263.19" y1="300.53" x2="262.78" y2="298.60"/><line x1="267.11" y1="318.64" x2="247.56" y2="348.08"/><line x1="230.11" y1="298.28" x2="259.96" y2="287.98"/><line x1="220.17" y1="151.09" x2="186.43" y2="147.98"/><line x1="187.13" y1="173.00" x2="222.97" y2="164.66"/><line x1="267.85" y1="360.33" x2="264.44" y2="360.44"/><line x1="193.22" y1="128.75" x2="193.83" y2="127.81"/><line x1="260.07" y1="358.14" x2="259.11" y2="357.30"/><line x1="234.86" y1="96.05" x2="235.38" y2="95.87"/><line x1="259.96" y1="287.98" x2="229.39" y2="296.10"/><line x1="318.37" y1="70.51" x2="326.30" y2="73.46"/><line x1="245.34" y1="238.67" x2="244.58" y2="236.53"/><line x1="221.41" y1="141.61" x2="221.76" y2="141.03"/><line x1="220.14" y1="146.34" x2="188.83" y2="139.14"/><line x1="234.66" y1="133.29" x2="235.83" y2="132.75"/><line x1="259.11" y1="357.30" x2="271.48" y2="357.52"/><line x1="245.47" y1="345.05" x2="245.27" y2="344.22"/><line x1="276.92" y1="79.97" x2="296.34" y2="119.75"/><line x1="244.58" y1="236.53" x2="243.81" y2="234.24"/><line x1="223.02" y1="139.62" x2="223.50" y2="139.27"/><line x1="264.80" y1="125.75" x2="250.75" y2="88.91"/><line x1="245.27" y1="344.22" x2="238.79" y2="323.34"/><line x1="220.08" y1="149.70" x2="186.72" y2="146.76"/><line x1="286.52" y1="120.97" x2="258.67" y2="85.65"/><line x1="249.60" y1="256.18" x2="226.98" y2="289.36"/><line x1="303.82" y1="73.94" x2="318.20" y2="110.05"/><line x1="211.02" y1="246.20" x2="249.07" y2="252.66"/><line x1="286.52" y1="120.97" x2="271.87" y2="81.87"/><line x1="325.95" y1="90.09" x2="326.48" y2="88.23"/><line x1="220.06" y1="148.37" x2="220.08" y2="147.33"/><line x1="315.24" y1="71.22" x2="327.64" y2="81.94"/><line x1="211.02" y1="246.20" x2="247.44" y2="244.26"/><line x1="221.47" y1="159.10" x2="185.74" y2="162.19"/><line x1="252.80" y1="351.00" x2="273.68" y2="353.54"/><line x1="273.14" y1="355.67" x2="273.38" y2="355.27"/><line x1="252.80" y1="351.00" x2="272.21" y2="341.35"/><line x1="239.02" y1="94.39" x2="239.96" y2="93.98"/><line x1="226.98" y1="289.36" x2="226.10" y2="287.04"/><line x1="198.11" y1="122.40" x2="198.89" y2="121.50"/><line x1="190.19" y1="134.99" x2="190.61" y2="133.94"/><line x1="273.38" y1="355.27" x2="273.56" y2="354.89"/><line x1="223.60" y1="166.62" x2="187.13" y2="173.00"/><line x1="283.25" y1="77.99" x2="289.20" y2="76.86"/><line x1="206.23" y1="235.06" x2="205.81" y2="234.20"/><line x1="211.28" y1="110.25" x2="213.25" y2="108.92"/><line x1="264.55" y1="307.60" x2="235.45" y2="314.12"/><line x1="188.32" y1="140.86" x2="220.14" y2="146.34"/><line x1="316.08" y1="71.05" x2="327.64" y2="79.18"/><line x1="185.43" y1="154.57" x2="220.32" y2="152.56"/><line x1="264.80" y1="125.75" x2="238.16" y2="94.76"/><line x1="233.95" y1="310.34" x2="233.23" y2="308.66"/><line x1="286.52" y1="120.97" x2="253.94" y2="87.45"/><line x1="303.82" y1="73.94" x2="316.65" y2="114.02"/><line x1="315.24" y1="71.22" x2="325.95" y2="90.09"/><line x1="211.02" y1="246.20" x2="249.55" y2="255.67"/><line x1="286.52" y1="120.97" x2="262.22" y2="84.76"/><line x1="303.82" y1="73.94" x2="321.85" y2="101.08"/><line x1="249.60" y1="256.18" x2="223.19" y2="279.88"/><line x1="192.21" y1="193.89" x2="225.89" y2="172.84"/><line x1="252.80" y1="351.00" x2="273.14" y2="355.67"/><line x1="192.64" y1="129.73" x2="193.22" y2="128.75"/><line x1="252.80" y1="351.00" x2="273.36" y2="349.46"/><line x1="185.98" y1="164.83" x2="221.47" y2="159.10"/><line x1="263.19" y1="300.53" x2="232.68" y2="306.65"/><line x1="313.81" y1="116.30" x2="314.65" y2="115.81"/><line x1="220.17" y1="151.09" x2="186.19" y2="149.11"/><line x1="208.41" y1="112.14" x2="209.66" y2="111.32"/><line x1="267.85" y1="360.33" x2="266.92" y2="360.97"/><line x1="233.54" y1="133.81" x2="234.66" y2="133.29"/><line x1="318.37" y1="70.51" x2="326.72" y2="74.40"/><line x1="221.41" y1="141.61" x2="197.34" y2="123.31"/><line x1="206.65" y1="235.96" x2="206.23" y2="235.06"/><line x1="225.06" y1="170.71" x2="224.30" y2="168.64"/><line x1="269.51" y1="359.14" x2="270.23" y2="358.57"/><line x1="241.02" y1="131.47" x2="230.81" y2="97.82"/><line x1="264.80" y1="125.75" x2="249.62" y2="89.46"/><line x1="303.82" y1="73.94" x2="312.88" y2="116.75"/><line x1="231.47" y1="302.54" x2="230.81" y2="300.42"/><line x1="286.52" y1="120.97" x2="257.76" y2="85.95"/><line x1="303.82" y1="73.94" x2="318.07" y2="110.95"/><line x1="249.60" y1="256.18" x2="249.55" y2="255.67"/><line x1="220.06" y1="148.37" x2="187.84" y2="142.49"/><line x1="215.58" y1="107.32" x2="218.26" y2="105.46"/><line x1="262.16" y1="359.50" x2="261.09" y2="358.87"/><line x1="264.80" y1="309.20" x2="264.55" y2="307.60"/><line x1="480.00" y1="64.50" x2="447.51" y2="32.02"/><line x1="317.65" y1="70.70" x2="318.37" y2="70.51"/><line x1="186.68" y1="170.23" x2="186.30" y2="167.51"/><line x1="200.48" y1="119.75" x2="201.28" y2="118.91"/><line x1="235.97" y1="95.65" x2="236.63" y2="95.39"/><line x1="273.58" y1="351.79" x2="273.48" y2="350.69"/><line x1="259.23" y1="285.66" x2="258.45" y2="283.27"/><line x1="319.06" y1="70.31" x2="323.87" y2="70.79"/><line x1="323.78" y1="96.33" x2="324.60" y2="94.13"/><line x1="220.25" y1="145.41" x2="189.44" y2="137.08"/><line x1="272.00" y1="357.02" x2="272.45" y2="356.54"/><line x1="265.04" y1="310.73" x2="236.24" y2="316.22"/><line x1="264.80" y1="125.75" x2="237.36" y2="95.10"/><line x1="233.95" y1="310.34" x2="263.19" y2="300.53"/><line x1="303.82" y1="73.94" x2="316.07" y2="114.67"/><line x1="243.02" y1="231.82" x2="237.19" y2="211.40"/><line x1="303.82" y1="73.94" x2="320.75" y2="103.64"/><line x1="192.21" y1="193.89" x2="231.44" y2="188.07"/><line x1="221.09" y1="157.36" x2="220.78" y2="155.69"/><line x1="220.59" y1="143.72" x2="220.82" y2="142.96"/><line x1="220.17" y1="151.09" x2="185.99" y2="150.14"/><line x1="246.31" y1="130.53" x2="235.97" y2="95.65"/><line x1="208.41" y1="112.14" x2="229.50" y2="135.88"/><line x1="272.21" y1="341.35" x2="271.82" y2="339.40"/><line x1="259.58" y1="85.38" x2="260.47" y2="85.14"/><line x1="185.57" y1="159.60" x2="185.46" y2="157.06"/><line x1="221.41" y1="141.61" x2="196.57" y2="124.26"/><line x1="220.52" y1="154.09" x2="185.43" y2="154.57"/><line x1="317.85" y1="111.80" x2="318.07" y2="110.95"/><line x1="319.06" y1="70.31" x2="319.71" y2="70.11"/><line x1="225.06" y1="170.71" x2="188.23" y2="178.70"/><line x1="252.91" y1="87.91" x2="286.52" y2="120.97"/><line x1="217.24" y1="263.98" x2="211.02" y2="246.20"/><line x1="269.51" y1="359.14" x2="262.16" y2="359.50"/><line x1="241.02" y1="131.47" x2="228.58" y2="98.98"/><line x1="303.82" y1="73.94" x2="311.86" y2="117.14"/><line x1="192.09" y1="130.74" x2="192.64" y2="129.73"/><line x1="303.82" y1="73.94" x2="317.85" y2="111.80"/><line x1="221.09" y1="142.26" x2="195.12" y2="126.04"/><line x1="220.06" y1="148.37" x2="187.42" y2="144.01"/><line x1="312.88" y1="116.75" x2="313.81" y2="116.30"/><line x1="215.58" y1="107.32" x2="232.46" y2="134.33"/><line x1="234.36" y1="196.91" x2="192.21" y2="193.89"/><line x1="270.69" y1="82.27" x2="271.87" y2="81.87"/><line x1="225.89" y1="172.84" x2="189.62" y2="184.62"/><line x1="327.53" y1="77.84" x2="327.34" y2="76.59"/><line x1="248.10" y1="245.83" x2="247.44" y2="244.26"/><line x1="218.26" y1="105.46" x2="233.54" y2="133.81"/><line x1="221.05" y1="103.57" x2="223.69" y2="101.85"/><line x1="199.68" y1="120.61" x2="200.48" y2="119.75"/><line x1="185.82" y1="151.09" x2="220.17" y2="151.09"/><line x1="322.86" y1="98.64" x2="323.78" y2="96.33"/><line x1="186.68" y1="170.23" x2="222.41" y2="162.76"/><line x1="258.67" y1="85.65" x2="259.58" y2="85.38"/><line x1="249.07" y1="252.66" x2="248.95" y2="251.95"/><line x1="235.97" y1="95.65" x2="264.80" y2="125.75"/><line x1="259.23" y1="285.66" x2="228.63" y2="293.89"/><line x1="195.81" y1="125.21" x2="221.41" y2="141.61"/><line x1="319.06" y1="70.31" x2="324.58" y2="71.29"/><line x1="220.25" y1="145.41" x2="189.12" y2="138.11"/><line x1="188.89" y1="181.64" x2="225.06" y2="170.71"/><line x1="265.04" y1="310.73" x2="237.06" y2="318.46"/><line x1="278.03" y1="79.55" x2="279.11" y2="79.16"/><line x1="243.02" y1="231.82" x2="207.55" y2="237.91"/><line x1="226.21" y1="100.32" x2="241.02" y2="131.47"/><line x1="261.81" y1="294.55" x2="231.47" y2="302.54"/><line x1="221.76" y1="141.03" x2="222.14" y2="140.51"/><line x1="32.16" y1="32.09" x2="32.16" y2="64.58"/><line x1="248.19" y1="348.46" x2="247.56" y2="348.08"/><line x1="207.50" y1="112.69" x2="208.41" y2="112.14"/><line x1="187.04" y1="145.43" x2="220.06" y2="148.37"/><line x1="221.09" y1="157.36" x2="185.57" y2="159.60"/><line x1="220.59" y1="143.72" x2="191.57" y2="131.80"/><line x1="248.21" y1="246.83" x2="248.10" y2="245.83"/><line x1="246.31" y1="130.53" x2="235.38" y2="95.87"/><line x1="323.87" y1="70.79" x2="323.09" y2="70.40"/><line x1="248.45" y1="90.03" x2="249.62" y2="89.46"/><line x1="222.14" y1="140.51" x2="199.68" y2="120.61"/><line x1="247.56" y1="348.08" x2="247.00" y2="347.61"/><line x1="229.39" y1="296.10" x2="228.63" y2="293.89"/><line x1="270.90" y1="358.03" x2="271.48" y2="357.52"/><line x1="230.44" y1="135.37" x2="231.42" y2="134.85"/><line x1="222.97" y1="164.66" x2="186.68" y2="170.23"/><line x1="235.38" y1="95.87" x2="235.97" y2="95.65"/><line x1="319.06" y1="70.31" x2="321.31" y2="69.96"/><line x1="238.79" y1="323.34" x2="237.91" y2="320.83"/><line x1="220.40" y1="144.53" x2="220.59" y2="143.72"/><line x1="221.09" y1="142.26" x2="194.46" y2="126.90"/><line x1="225.89" y1="172.84" x2="190.41" y2="187.65"/><line x1="229.50" y1="135.88" x2="230.44" y2="135.37"/><line x1="221.05" y1="103.57" x2="237.05" y2="132.22"/><line x1="271.48" y1="357.52" x2="272.00" y2="357.02"/><line x1="232.68" y1="306.65" x2="232.09" y2="304.61"/><line x1="326.91" y1="86.49" x2="327.25" y2="84.86"/><line x1="263.27" y1="360.02" x2="269.51" y2="359.14"/><line x1="319.06" y1="70.31" x2="325.22" y2="71.90"/><line x1="220.82" y1="142.96" x2="221.09" y2="142.26"/><line x1="309.55" y1="117.78" x2="310.75" y2="117.49"/><line x1="197.34" y1="123.31" x2="198.11" y2="122.40"/><line x1="270.87" y1="335.20" x2="270.31" y2="332.94"/><line x1="32.00" y1="479.98" x2="64.49" y2="479.98"/><line x1="237.19" y1="211.40" x2="198.42" y2="212.98"/><line x1="224.30" y1="168.64" x2="223.60" y2="166.62"/><line x1="296.34" y1="119.75" x2="282.24" y2="78.23"/><line x1="316.88" y1="70.88" x2="317.65" y2="70.70"/><line x1="230.81" y1="300.42" x2="230.11" y2="298.28"/><line x1="187.84" y1="142.49" x2="188.32" y2="140.86"/><line x1="222.56" y1="140.03" x2="223.02" y2="139.62"/><line x1="246.31" y1="130.53" x2="234.86" y2="96.05"/><line x1="321.31" y1="69.96" x2="320.33" y2="69.89"/><line x1="229.39" y1="296.10" x2="259.23" y2="285.66"/><line x1="230.44" y1="135.37" x2="215.58" y2="107.32"/><line x1="188.83" y1="139.14" x2="220.25" y2="145.41"/><line x1="326.30" y1="73.46" x2="325.80" y2="72.63"/><line x1="243.81" y1="234.24" x2="243.02" y2="231.82"/><line x1="220.32" y1="152.56" x2="220.17" y2="151.09"/><line x1="254.94" y1="87.03" x2="255.90" y2="86.64"/><line x1="237.19" y1="211.40" x2="206.23" y2="235.06"/><line x1="223.50" y1="139.27" x2="207.50" y2="112.69"/><line x1="238.79" y1="323.34" x2="265.04" y2="310.73"/><line x1="220.40" y1="144.53" x2="190.61" y2="133.94"/><line x1="267.11" y1="318.64" x2="245.75" y2="345.80"/><line x1="221.09" y1="142.26" x2="193.83" y2="127.81"/><line x1="326.48" y1="88.23" x2="326.91" y2="86.49"/><line x1="185.74" y1="162.19" x2="221.09" y2="157.36"/><line x1="239.96" y1="93.98" x2="248.45" y2="90.03"/><line x1="226.10" y1="287.04" x2="225.17" y2="284.69"/><line x1="229.50" y1="135.88" x2="213.25" y2="108.92"/><line x1="236.24" y1="316.22" x2="235.45" y2="314.12"/><line x1="221.05" y1="103.57" x2="235.83" y2="132.75"/><line x1="190.61" y1="133.94" x2="220.59" y2="143.72"/><line x1="230.81" y1="97.82" x2="232.91" y2="96.84"/><line x1="273.56" y1="354.89" x2="273.66" y2="354.54"/><line x1="186.19" y1="149.11" x2="186.43" y2="147.98"/><line x1="289.20" y1="76.86" x2="309.55" y2="117.78"/><line x1="205.81" y1="234.20" x2="205.41" y2="233.39"/><line x1="213.25" y1="108.92" x2="230.44" y2="135.37"/><line x1="235.45" y1="314.12" x2="264.25" y2="305.93"/><line x1="220.82" y1="142.96" x2="193.22" y2="128.75"/><line x1="309.55" y1="117.78" x2="303.82" y2="73.94"/><line x1="197.34" y1="123.31" x2="221.76" y2="141.03"/><line x1="327.64" y1="79.18" x2="316.88" y2="70.88"/><line x1="211.02" y1="246.20" x2="248.56" y2="249.57"/><line x1="286.52" y1="120.97" x2="276.92" y2="79.97"/><line x1="220.32" y1="152.56" x2="185.45" y2="154.04"/><line x1="211.02" y1="246.20" x2="244.58" y2="236.53"/><line x1="32.00" y1="479.98" x2="32.00" y2="447.50"/><line x1="237.19" y1="211.40" x2="204.63" y2="231.89"/><line x1="224.30" y1="168.64" x2="187.65" y2="175.83"/><line x1="253.94" y1="87.45" x2="254.94" y2="87.03"/><line x1="252.80" y1="351.00" x2="248.19" y2="348.46"/><line x1="249.55" y1="255.67" x2="249.47" y2="255.14"/><line x1="261.09" y1="358.87" x2="260.07" y2="358.14"/><line x1="267.11" y1="318.64" x2="265.04" y2="310.73"/><line x1="296.34" y1="119.75" x2="281.22" y2="78.49"/><line x1="316.88" y1="70.88" x2="327.53" y2="77.84"/><line x1="193.22" y1="128.75" x2="221.09" y2="142.26"/><line x1="273.36" y1="349.46" x2="273.21" y2="348.09"/><line x1="187.84" y1="142.49" x2="220.08" y2="147.33"/><line x1="314.65" y1="115.81" x2="315.41" y2="115.26"/><line x1="222.56" y1="140.03" x2="206.94" y2="112.99"/><line x1="231.44" y1="188.07" x2="225.89" y2="172.84"/><line x1="265.65" y1="360.76" x2="264.44" y2="360.44"/><line x1="234.66" y1="133.29" x2="221.05" y2="103.57"/><line x1="186.30" y1="167.51" x2="185.98" y2="164.83"/><line x1="233.23" y1="308.66" x2="232.68" y2="306.65"/><line x1="315.41" y1="115.26" x2="316.07" y2="114.67"/><line x1="326.72" y1="74.40" x2="326.30" y2="73.46"/><line x1="185.99" y1="150.14" x2="186.19" y2="149.11"/><line x1="258.45" y1="283.27" x2="249.60" y2="256.18"/><line x1="260.47" y1="85.14" x2="261.35" y2="84.94"/><line x1="189.44" y1="137.08" x2="189.80" y2="136.04"/><line x1="315.24" y1="71.22" x2="327.49" y2="83.35"/><line x1="211.02" y1="246.20" x2="249.19" y2="253.33"/><line x1="188.23" y1="178.70" x2="187.65" y2="175.83"/><line x1="286.52" y1="120.97" x2="270.69" y2="82.27"/><line x1="326.30" y1="73.46" x2="319.06" y2="70.31"/><line x1="211.02" y1="246.20" x2="248.10" y2="245.83"/><line x1="220.32" y1="152.56" x2="185.82" y2="151.09"/><line x1="196.57" y1="124.26" x2="197.34" y2="123.31"/><line x1="252.80" y1="351.00" x2="273.69" y2="354.20"/><line x1="237.19" y1="211.40" x2="206.65" y2="235.96"/><line x1="252.80" y1="351.00" x2="272.54" y2="343.19"/><line x1="261.25" y1="292.43" x2="260.63" y2="290.23"/><line x1="261.35" y1="84.94" x2="262.22" y2="84.76"/><line x1="318.07" y1="110.95" x2="318.20" y2="110.05"/><line x1="267.11" y1="318.64" x2="246.09" y2="346.48"/><line x1="296.34" y1="119.75" x2="309.55" y2="117.78"/><line x1="270.23" y1="358.57" x2="270.90" y2="358.03"/><line x1="220.78" y1="155.69" x2="220.52" y2="154.09"/><line x1="318.20" y1="110.05" x2="318.24" y2="109.11"/><line x1="230.81" y1="97.82" x2="246.31" y2="130.53"/><line x1="222.41" y1="162.76" x2="221.91" y2="160.90"/><line x1="322.24" y1="70.12" x2="321.31" y2="69.96"/><line x1="273.48" y1="350.69" x2="273.36" y2="349.46"/><line x1="228.63" y1="293.89" x2="227.82" y2="291.64"/><line x1="264.80" y1="125.75" x2="286.52" y2="120.97"/><line x1="273.12" y1="81.43" x2="274.43" y2="80.95"/><line x1="315.24" y1="71.22" x2="325.32" y2="92.05"/><line x1="286.52" y1="120.97" x2="261.35" y2="84.94"/><line x1="249.60" y1="256.18" x2="224.20" y2="282.30"/><line x1="234.68" y1="312.16" x2="233.95" y2="310.34"/><line x1="211.02" y1="246.20" x2="248.69" y2="250.41"/><line x1="286.52" y1="120.97" x2="275.80" y2="80.43"/><line x1="252.80" y1="351.00" x2="272.83" y2="356.10"/><line x1="211.02" y1="246.20" x2="245.34" y2="238.67"/><line x1="252.80" y1="351.00" x2="273.48" y2="350.69"/><line x1="263.19" y1="300.53" x2="233.23" y2="308.66"/><line x1="252.80" y1="351.00" x2="270.87" y2="335.20"/><line x1="207.55" y1="237.91" x2="207.09" y2="236.92"/><line x1="267.85" y1="360.33" x2="265.65" y2="360.76"/><line x1="248.95" y1="251.95" x2="248.81" y2="251.20"/><line x1="232.09" y1="304.61" x2="231.47" y2="302.54"/><line x1="265.65" y1="360.76" x2="266.92" y2="360.97"/><line x1="271.82" y1="339.40" x2="271.37" y2="337.35"/><line x1="248.81" y1="251.20" x2="248.69" y2="250.41"/><line x1="271.37" y1="337.35" x2="270.87" y2="335.20"/><line x1="264.80" y1="125.75" x2="248.45" y2="90.03"/><line x1="231.47" y1="302.54" x2="261.25" y2="292.43"/><line x1="286.52" y1="120.97" x2="256.83" y2="86.28"/><line x1="315.24" y1="71.22" x2="327.25" y2="84.86"/><line x1="211.02" y1="246.20" x2="249.29" y2="253.97"/><line x1="188.23" y1="178.70" x2="224.30" y2="168.64"/><line x1="191.57" y1="131.80" x2="192.09" y2="130.74"/><line x1="249.60" y1="256.18" x2="211.02" y2="246.20"/><line x1="286.52" y1="120.97" x2="269.56" y2="82.64"/><line x1="211.02" y1="246.20" x2="248.21" y2="246.83"/><line x1="303.82" y1="73.94" x2="315.24" y2="71.22"/><line x1="262.16" y1="359.50" x2="270.23" y2="358.57"/><line x1="252.80" y1="351.00" x2="273.66" y2="354.54"/><line x1="211.02" y1="246.20" x2="207.55" y2="237.91"/><line x1="228.58" y1="98.98" x2="230.81" y2="97.82"/><line x1="252.80" y1="351.00" x2="272.82" y2="344.94"/><line x1="261.25" y1="292.43" x2="230.81" y2="300.42"/><line x1="323.09" y1="70.40" x2="322.24" y2="70.12"/><line x1="187.42" y1="144.01" x2="187.84" y2="142.49"/><line x1="270.23" y1="358.57" x2="261.09" y2="358.87"/><line x1="247.00" y1="347.61" x2="246.50" y2="347.08"/><line x1="271.87" y1="81.87" x2="273.12" y2="81.43"/><line x1="317.65" y1="70.70" x2="327.07" y2="75.44"/><line x1="247.44" y1="244.26" x2="246.76" y2="242.54"/><line x1="200.48" y1="119.75" x2="222.56" y2="140.03"/><line x1="246.50" y1="347.08" x2="246.09" y2="346.48"/><line x1="323.78" y1="96.33" x2="315.24" y2="71.22"/><line x1="222.41" y1="162.76" x2="186.30" y2="167.51"/><line x1="237.05" y1="132.22" x2="241.02" y2="131.47"/><line x1="272.00" y1="357.02" x2="252.80" y2="351.00"/><line x1="264.80" y1="125.75" x2="236.63" y2="95.39"/><line x1="228.63" y1="293.89" x2="258.45" y2="283.27"/><line x1="264.80" y1="125.75" x2="252.91" y2="87.91"/><line x1="303.82" y1="73.94" x2="315.41" y2="115.26"/><line x1="315.24" y1="71.22" x2="324.60" y2="94.13"/><line x1="220.08" y1="149.70" x2="220.06" y2="148.37"/><line x1="286.52" y1="120.97" x2="260.47" y2="85.14"/><line x1="303.82" y1="73.94" x2="319.54" y2="106.32"/><line x1="249.60" y1="256.18" x2="225.17" y2="284.69"/><line x1="315.24" y1="71.22" x2="316.08" y2="71.05"/><line x1="211.02" y1="246.20" x2="248.81" y2="251.20"/><line x1="189.12" y1="138.11" x2="189.44" y2="137.08"/><line x1="286.52" y1="120.97" x2="274.43" y2="80.95"/><line x1="252.80" y1="351.00" x2="272.45" y2="356.54"/><line x1="236.63" y1="95.39" x2="237.36" y2="95.10"/><line x1="252.80" y1="351.00" x2="273.58" y2="351.79"/><line x1="279.11" y1="79.16" x2="280.17" y2="78.81"/><line x1="252.80" y1="351.00" x2="271.37" y2="337.35"/><line x1="207.55" y1="237.91" x2="237.19" y2="211.40"/><line x1="208.41" y1="112.14" x2="224.03" y2="138.97"/><line x1="237.91" y1="320.83" x2="237.06" y2="318.46"/><line x1="280.17" y1="78.81" x2="281.22" y2="78.49"/><line x1="327.25" y1="84.86" x2="327.49" y2="83.35"/><line x1="185.57" y1="159.60" x2="220.78" y2="155.69"/><line x1="232.09" y1="304.61" x2="261.81" y2="294.55"/><line x1="64.64" y1="32.09" x2="32.16" y2="64.58"/><line x1="224.03" y1="138.97" x2="229.50" y2="135.88"/><line x1="249.62" y1="89.46" x2="250.75" y2="88.91"/><line x1="224.20" y1="282.30" x2="223.19" y2="279.88"/><line x1="327.49" y1="83.35" x2="327.64" y2="81.94"/><line x1="191.07" y1="132.87" x2="191.57" y2="131.80"/><line x1="263.93" y1="304.19" x2="263.57" y2="302.39"/><line x1="250.75" y1="88.91" x2="251.85" y2="88.39"/><line x1="264.80" y1="125.75" x2="239.96" y2="93.98"/><line x1="303.82" y1="73.94" x2="310.75" y2="117.49"/><line x1="205.01" y1="232.62" x2="204.63" y2="231.89"/><line x1="286.52" y1="120.97" x2="255.90" y2="86.64"/><line x1="303.82" y1="73.94" x2="317.53" y2="112.59"/><line x1="211.02" y1="246.20" x2="249.39" y2="254.57"/><line x1="206.94" y1="112.99" x2="207.50" y2="112.69"/><line x1="191.57" y1="131.80" x2="220.82" y2="142.96"/><line x1="249.60" y1="256.18" x2="217.24" y2="263.98"/><line x1="286.52" y1="120.97" x2="268.50" y2="82.97"/><line x1="215.58" y1="107.32" x2="231.42" y2="134.85"/><line x1="303.82" y1="73.94" x2="323.78" y2="96.33"/><line x1="252.80" y1="351.00" x2="273.56" y2="354.89"/><line x1="310.75" y1="117.49" x2="311.86" y2="117.14"/><line x1="327.53" y1="77.84" x2="317.65" y2="70.70"/><line x1="230.11" y1="298.28" x2="229.39" y2="296.10"/><line x1="231.42" y1="134.85" x2="232.46" y2="134.33"/><line x1="220.17" y1="151.09" x2="220.08" y2="149.70"/><line x1="267.85" y1="360.33" x2="268.72" y2="359.72"/><line x1="317.65" y1="70.70" x2="327.34" y2="76.59"/><line x1="318.37" y1="70.51" x2="319.06" y2="70.31"/><line x1="262.78" y1="298.60" x2="262.32" y2="296.61"/><line x1="256.83" y1="86.28" x2="257.76" y2="85.95"/><line x1="186.43" y1="147.98" x2="186.72" y2="146.76"/><line x1="264.44" y1="360.44" x2="263.27" y2="360.02"/><line x1="194.46" y1="126.90" x2="195.12" y2="126.04"/><line x1="237.05" y1="132.22" x2="226.21" y2="100.32"/><line x1="265.04" y1="310.73" x2="237.91" y2="320.83"/><line x1="316.65" y1="114.02" x2="317.14" y2="113.33"/><line x1="264.80" y1="125.75" x2="251.85" y2="88.39"/><line x1="303.82" y1="73.94" x2="314.65" y2="115.81"/><line x1="220.08" y1="149.70" x2="187.04" y2="145.43"/><line x1="303.82" y1="73.94" x2="318.24" y2="109.11"/><line x1="249.60" y1="256.18" x2="226.10" y2="287.04"/><line x1="221.76" y1="141.03" x2="198.89" y2="121.50"/><line x1="32.16" y1="32.09" x2="64.64" y2="32.09"/><line x1="248.19" y1="348.46" x2="267.11" y2="318.64"/><line x1="225.17" y1="284.69" x2="224.20" y2="282.30"/><line x1="187.65" y1="175.83" x2="187.13" y2="173.00"/><line x1="220.59" y1="143.72" x2="191.07" y2="132.87"/><line x1="273.66" y1="354.54" x2="273.69" y2="354.20"/><line x1="260.63" y1="290.23" x2="259.96" y2="287.98"/><line x1="223.60" y1="166.62" x2="222.97" y2="164.66"/><line x1="205.41" y1="233.39" x2="205.01" y2="232.62"/><line x1="220.08" y1="147.33" x2="220.14" y2="146.34"/><line x1="270.90" y1="358.03" x2="259.11" y2="357.30"/><line x1="273.69" y1="354.20" x2="273.68" y2="353.54"/><line x1="264.25" y1="305.93" x2="263.93" y2="304.19"/><line x1="319.06" y1="70.31" x2="322.24" y2="70.12"/><line x1="188.32" y1="140.86" x2="188.83" y2="139.14"/><line x1="185.45" y1="154.04" x2="185.49" y2="153.43"/><line x1="32.00" y1="447.50" x2="64.49" y2="479.98"/></g></svg>