<svg xmlns="http://www.w3.org/2000/svg" width="512" height="512"><rect width="512" height="512" fill="#0a0f1a"/><text x="12" y="20" font-family="monospace" font-size="11" fill="#4a7fa5">FRONT (XZ)</text><g stroke="#00d4ff" stroke-width="0.6" opacity="0.85"><line x1="295.93" y1="314.15" x2="312.75" y2="336.76"/><line x1="275.76" y1="68.45" x2="273.81" y2="67.73"/><line x1="253.61" y1="61.17" x2="253.33" y2="61.18"/><line x1="328.39" y1="176.08" x2="328.33" y2="177.65"/><line x1="223.15" y1="99.03" x2="208.99" y2="73.19"/><line x1="261.93" y1="101.06" x2="259.45" y2="100.48"/><line x1="244.13" y1="283.88" x2="217.75" y2="286.86"/><line x1="212.86" y1="105.09" x2="212.00" y2="106.57"/><line x1="307.03" y1="210.93" x2="305.49" y2="212.40"/><line x1="310.26" y1="98.81" x2="308.61" y2="96.65"/><line x1="231.80" y1="161.74" x2="236.15" y2="168.35"/><line x1="288.46" y1="227.69" x2="290.07" y2="226.11"/><line x1="311.86" y1="132.13" x2="313.16" y2="133.66"/><line x1="253.33" y1="61.18" x2="253.03" y2="61.20"/><line x1="297.42" y1="171.61" x2="328.16" y2="179.26"/><line x1="238.37" y1="60.04" x2="234.90" y2="61.08"/><line x1="240.69" y1="98.00" x2="234.90" y2="61.08"/><line x1="298.49" y1="218.66" x2="296.54" y2="220.30"/><line x1="248.43" y1="270.98" x2="224.01" y2="259.24"/><line x1="248.53" y1="328.51" x2="251.17" y2="330.46"/><line x1="187.56" y1="146.19" x2="218.44" y2="138.09"/><line x1="224.31" y1="149.35" x2="227.85" y2="155.41"/><line x1="328.23" y1="314.08" x2="328.24" y2="313.52"/><line x1="308.61" y1="96.65" x2="306.98" y2="94.58"/><line x1="259.45" y1="100.48" x2="265.95" y2="65.76"/><line x1="224.58" y1="213.44" x2="266.53" y2="209.01"/><line x1="319.64" y1="144.35" x2="320.92" y2="147.10"/><line x1="273.60" y1="268.93" x2="272.21" y2="267.11"/><line x1="289.75" y1="111.99" x2="300.74" y2="87.24"/><line x1="234.71" y1="227.07" x2="236.09" y2="229.10"/><line x1="234.90" y1="61.08" x2="237.77" y2="97.90"/><line x1="298.42" y1="307.45" x2="298.28" y2="306.18"/><line x1="278.76" y1="200.08" x2="278.09" y2="200.89"/><line x1="289.75" y1="111.99" x2="288.90" y2="75.94"/><line x1="279.95" y1="198.47" x2="279.38" y2="199.28"/><line x1="259.97" y1="312.20" x2="262.99" y2="313.72"/><line x1="225.88" y1="308.15" x2="226.69" y2="309.19"/><line x1="256.16" y1="197.92" x2="259.36" y2="203.37"/><line x1="293.91" y1="340.31" x2="285.22" y2="318.61"/><line x1="265.95" y1="65.76" x2="263.96" y2="65.50"/><line x1="301.68" y1="149.31" x2="301.46" y2="151.80"/><line x1="301.75" y1="127.23" x2="302.27" y2="127.16"/><line x1="251.26" y1="61.55" x2="250.84" y2="61.66"/><line x1="327.49" y1="316.55" x2="326.77" y2="318.63"/><line x1="240.15" y1="236.18" x2="240.02" y2="236.46"/><line x1="244.66" y1="290.62" x2="219.57" y2="296.38"/><line x1="211.01" y1="109.92" x2="187.52" y2="103.24"/><line x1="254.36" y1="99.46" x2="251.75" y2="99.04"/><line x1="236.15" y1="168.35" x2="210.19" y2="195.08"/><line x1="296.42" y1="313.54" x2="317.08" y2="334.48"/><line x1="314.54" y1="118.43" x2="316.83" y2="115.79"/><line x1="278.47" y1="318.52" x2="279.14" y2="318.64"/><line x1="300.74" y1="87.24" x2="299.25" y2="85.63"/><line x1="259.36" y1="203.37" x2="263.14" y2="206.76"/><line x1="285.22" y1="231.02" x2="286.84" y2="229.33"/><line x1="328.39" y1="300.06" x2="298.42" y2="307.45"/><line x1="250.84" y1="61.66" x2="250.40" y2="61.79"/><line x1="326.38" y1="185.99" x2="325.65" y2="187.75"/><line x1="240.02" y1="236.46" x2="259.86" y2="257.67"/><line x1="245.86" y1="326.39" x2="248.53" y2="328.51"/><line x1="184.92" y1="125.50" x2="216.13" y2="132.91"/><line x1="245.21" y1="277.91" x2="219.19" y2="271.39"/><line x1="211.73" y1="119.29" x2="184.87" y2="125.02"/><line x1="258.93" y1="335.30" x2="261.46" y2="336.57"/><line x1="190.66" y1="161.23" x2="224.31" y2="149.35"/><line x1="245.31" y1="293.72" x2="223.60" y2="304.96"/><line x1="299.25" y1="85.63" x2="297.81" y2="84.13"/><line x1="309.91" y1="337.66" x2="311.38" y2="337.23"/><line x1="262.89" y1="65.16" x2="262.55" y2="65.10"/><line x1="323.72" y1="325.83" x2="297.24" y2="312.37"/><line x1="300.93" y1="156.49" x2="324.58" y2="156.41"/><line x1="266.47" y1="260.27" x2="234.71" y2="227.07"/><line x1="240.69" y1="98.00" x2="241.60" y2="60.93"/><line x1="251.64" y1="266.00" x2="249.98" y2="268.45"/><line x1="222.54" y1="65.53" x2="228.49" y2="98.16"/><line x1="322.92" y1="327.33" x2="296.86" y2="312.94"/><line x1="219.19" y1="271.39" x2="244.61" y2="280.01"/><line x1="269.79" y1="316.22" x2="263.94" y2="337.68"/><line x1="248.84" y1="301.98" x2="232.28" y2="314.96"/><line x1="292.36" y1="317.10" x2="293.37" y2="316.79"/><line x1="265.56" y1="208.53" x2="266.04" y2="208.79"/><line x1="224.58" y1="213.44" x2="264.11" y2="207.56"/><line x1="262.55" y1="65.10" x2="262.19" y2="65.06"/><line x1="276.96" y1="318.20" x2="273.55" y2="340.60"/><line x1="311.38" y1="337.23" x2="295.93" y2="314.15"/><line x1="234.71" y1="227.07" x2="265.56" y2="259.35"/><line x1="244.26" y1="287.33" x2="244.66" y2="290.62"/><line x1="211.38" y1="108.17" x2="188.16" y2="101.64"/><line x1="239.13" y1="237.98" x2="258.23" y2="258.82"/><line x1="309.25" y1="129.69" x2="310.55" y2="130.81"/><line x1="289.75" y1="111.99" x2="295.14" y2="81.44"/><line x1="322.78" y1="193.11" x2="321.58" y2="194.90"/><line x1="185.40" y1="111.35" x2="185.16" y2="112.97"/><line x1="279.95" y1="198.47" x2="307.03" y2="210.93"/><line x1="232.28" y1="314.96" x2="233.71" y2="316.24"/><line x1="317.55" y1="112.79" x2="317.59" y2="111.60"/><line x1="297.84" y1="311.26" x2="297.56" y2="311.81"/><line x1="293.91" y1="340.31" x2="281.30" y2="318.85"/><line x1="266.04" y1="208.79" x2="266.53" y2="209.01"/><line x1="298.62" y1="339.74" x2="300.80" y2="339.44"/><line x1="296.86" y1="312.94" x2="322.11" y2="328.72"/><line x1="293.91" y1="340.31" x2="288.59" y2="318.07"/><line x1="310.55" y1="130.81" x2="311.86" y2="132.13"/><line x1="247.78" y1="62.67" x2="249.07" y2="98.69"/><line x1="254.36" y1="99.46" x2="254.02" y2="61.23"/><line x1="328.22" y1="314.44" x2="328.20" y2="314.35"/><line x1="258.23" y1="258.82" x2="238.90" y2="238.30"/><line x1="295.12" y1="176.45" x2="294.43" y2="177.60"/><line x1="223.60" y1="304.96" x2="224.69" y2="306.57"/><line x1="254.36" y1="99.46" x2="250.84" y2="61.66"/><line x1="217.59" y1="282.75" x2="244.13" y2="283.88"/><line x1="227.85" y1="155.41" x2="196.41" y2="174.90"/><line x1="281.30" y1="318.85" x2="282.06" y2="318.85"/><line x1="290.69" y1="77.35" x2="288.90" y2="75.94"/><line x1="285.22" y1="231.02" x2="267.46" y2="261.34"/><line x1="316.16" y1="335.11" x2="317.08" y2="334.48"/><line x1="322.11" y1="328.72" x2="321.29" y2="329.99"/><line x1="296.42" y1="313.54" x2="320.46" y2="331.13"/><line x1="234.79" y1="97.87" x2="231.53" y2="97.94"/><line x1="328.39" y1="176.08" x2="297.42" y2="171.61"/><line x1="223.15" y1="99.03" x2="210.77" y2="71.82"/><line x1="211.73" y1="119.29" x2="184.73" y2="122.80"/><line x1="244.13" y1="283.88" x2="217.64" y2="284.83"/><line x1="273.55" y1="340.60" x2="275.85" y2="340.96"/><line x1="257.22" y1="310.51" x2="248.53" y2="328.51"/><line x1="309.90" y1="119.85" x2="308.75" y2="119.89"/><line x1="196.41" y1="174.90" x2="197.84" y2="177.25"/><line x1="311.97" y1="119.53" x2="310.98" y2="119.73"/><line x1="328.20" y1="314.35" x2="328.23" y2="314.08"/><line x1="317.08" y1="334.48" x2="317.94" y2="333.83"/><line x1="231.80" y1="161.74" x2="205.30" y2="188.44"/><line x1="326.52" y1="162.91" x2="327.01" y2="164.97"/><line x1="240.69" y1="98.00" x2="245.02" y2="62.07"/><line x1="288.46" y1="227.69" x2="231.31" y2="222.31"/><line x1="237.86" y1="239.59" x2="237.56" y2="239.92"/><line x1="240.69" y1="98.00" x2="238.37" y2="60.04"/><line x1="298.49" y1="218.66" x2="278.76" y2="200.08"/><line x1="268.04" y1="209.77" x2="296.54" y2="220.30"/><line x1="205.30" y1="188.44" x2="207.65" y2="191.67"/><line x1="248.53" y1="328.51" x2="259.97" y2="312.20"/><line x1="220.83" y1="99.69" x2="218.75" y2="100.49"/><line x1="298.05" y1="304.89" x2="297.73" y2="303.58"/><line x1="281.53" y1="71.15" x2="279.63" y2="70.17"/><line x1="328.23" y1="314.08" x2="298.36" y2="309.69"/><line x1="286.04" y1="318.51" x2="286.87" y2="318.39"/><line x1="224.58" y1="213.44" x2="266.04" y2="208.79"/><line x1="227.04" y1="216.63" x2="294.92" y2="221.67"/><line x1="319.64" y1="144.35" x2="301.68" y2="149.31"/><line x1="237.56" y1="239.92" x2="237.24" y2="240.24"/><line x1="218.60" y1="292.70" x2="244.66" y2="290.62"/><line x1="480.00" y1="32.02" x2="447.51" y2="32.02"/><line x1="184.73" y1="122.39" x2="184.73" y2="122.80"/><line x1="279.95" y1="198.47" x2="300.36" y2="217.04"/><line x1="286.87" y1="318.39" x2="287.71" y2="318.24"/><line x1="293.91" y1="340.31" x2="284.41" y2="318.70"/><line x1="295.49" y1="298.08" x2="294.67" y2="296.66"/><line x1="254.36" y1="99.46" x2="255.64" y2="61.63"/><line x1="264.38" y1="101.69" x2="261.93" y2="101.06"/><line x1="211.10" y1="115.38" x2="211.73" y2="119.29"/><line x1="229.72" y1="249.83" x2="227.62" y2="252.99"/><line x1="254.36" y1="99.46" x2="252.72" y2="61.24"/><line x1="326.99" y1="184.26" x2="326.38" y2="185.99"/><line x1="244.66" y1="290.62" x2="219.04" y2="294.57"/><line x1="254.36" y1="99.46" x2="248.90" y2="62.27"/><line x1="236.15" y1="168.35" x2="207.65" y2="191.67"/><line x1="296.42" y1="313.54" x2="316.16" y2="335.11"/><line x1="298.24" y1="310.20" x2="326.03" y2="320.60"/><line x1="256.92" y1="99.95" x2="261.80" y2="65.03"/><line x1="243.54" y1="98.16" x2="240.69" y2="98.00"/><line x1="293.30" y1="223.10" x2="294.92" y2="221.67"/><line x1="245.86" y1="326.39" x2="257.22" y2="310.51"/><line x1="328.39" y1="300.06" x2="327.51" y2="294.96"/><line x1="184.92" y1="125.50" x2="214.24" y2="128.06"/><line x1="274.94" y1="204.12" x2="274.03" y2="204.93"/><line x1="211.73" y1="119.29" x2="184.83" y2="124.56"/><line x1="246.07" y1="182.39" x2="221.89" y2="210.03"/><line x1="311.97" y1="119.53" x2="317.55" y2="112.79"/><line x1="324.86" y1="288.28" x2="320.46" y2="280.01"/><line x1="271.86" y1="67.10" x2="269.90" y2="66.56"/><line x1="258.93" y1="335.30" x2="269.79" y2="316.22"/><line x1="328.20" y1="314.35" x2="327.49" y2="316.55"/><line x1="262.58" y1="257.07" x2="261.99" y2="256.86"/><line x1="300.93" y1="156.49" x2="323.78" y2="154.15"/><line x1="248.36" y1="62.46" x2="247.78" y2="62.67"/><line x1="240.69" y1="98.00" x2="242.33" y2="61.17"/><line x1="190.56" y1="96.91" x2="189.68" y2="98.47"/><line x1="251.64" y1="266.00" x2="227.62" y2="252.99"/><line x1="195.16" y1="172.73" x2="227.85" y2="155.41"/><line x1="292.36" y1="317.10" x2="298.62" y2="339.74"/><line x1="291.69" y1="78.21" x2="290.69" y2="77.35"/><line x1="224.58" y1="213.44" x2="263.62" y2="207.18"/><line x1="240.06" y1="235.41" x2="240.26" y2="235.92"/><line x1="244.26" y1="287.33" x2="218.60" y2="292.70"/><line x1="321.29" y1="329.99" x2="296.42" y2="313.54"/><line x1="211.38" y1="108.17" x2="188.89" y2="100.05"/><line x1="212.74" y1="70.49" x2="223.15" y2="99.03"/><line x1="322.78" y1="193.11" x2="295.12" y2="176.45"/><line x1="305.38" y1="92.61" x2="303.81" y2="90.72"/><line x1="297.84" y1="311.26" x2="324.51" y2="324.20"/><line x1="270.90" y1="265.45" x2="269.67" y2="263.93"/><line x1="254.36" y1="99.46" x2="260.16" y2="64.83"/><line x1="293.91" y1="340.31" x2="287.71" y2="318.24"/><line x1="231.57" y1="62.14" x2="228.41" y2="63.24"/><line x1="299.87" y1="162.81" x2="299.45" y2="164.74"/><line x1="254.36" y1="99.46" x2="254.41" y2="61.30"/><line x1="317.16" y1="114.89" x2="317.40" y2="113.89"/><line x1="254.36" y1="99.46" x2="251.26" y2="61.55"/><line x1="184.73" y1="119.29" x2="211.73" y2="119.29"/><line x1="188.57" y1="152.21" x2="189.19" y2="155.22"/><line x1="317.01" y1="108.99" x2="309.90" y2="119.85"/><line x1="314.29" y1="270.14" x2="288.84" y2="289.33"/><line x1="256.92" y1="99.95" x2="263.48" y2="65.31"/><line x1="306.62" y1="338.42" x2="308.32" y2="338.05"/><line x1="296.42" y1="313.54" x2="319.63" y2="332.16"/><line x1="285.22" y1="231.02" x2="268.52" y2="262.56"/><line x1="256.92" y1="99.95" x2="254.36" y2="99.46"/><line x1="260.16" y1="64.83" x2="259.73" y2="64.75"/><line x1="234.79" y1="97.87" x2="225.40" y2="64.37"/><line x1="246.20" y1="62.40" x2="240.69" y2="98.00"/><line x1="292.73" y1="180.29" x2="291.73" y2="181.83"/><line x1="328.39" y1="300.06" x2="298.28" y2="306.18"/><line x1="211.73" y1="119.29" x2="184.73" y2="122.39"/><line x1="309.90" y1="119.85" x2="316.68" y2="108.19"/><line x1="297.24" y1="312.37" x2="322.92" y2="327.33"/><line x1="294.77" y1="315.43" x2="295.38" y2="314.78"/><line x1="311.97" y1="119.53" x2="317.27" y2="109.73"/><line x1="283.41" y1="72.23" x2="281.53" y2="71.15"/><line x1="296.20" y1="299.49" x2="295.49" y2="298.08"/><line x1="240.69" y1="98.00" x2="245.63" y2="62.25"/><line x1="317.27" y1="200.36" x2="308.50" y2="209.48"/><line x1="186.46" y1="106.46" x2="186.05" y2="108.10"/><line x1="204.87" y1="77.54" x2="218.75" y2="100.49"/><line x1="240.69" y1="98.00" x2="239.22" y2="60.26"/><line x1="205.30" y1="188.44" x2="236.15" y2="168.35"/><line x1="298.05" y1="304.89" x2="327.51" y2="294.96"/><line x1="281.53" y1="71.15" x2="266.79" y2="102.38"/><line x1="255.38" y1="61.53" x2="255.08" y2="61.45"/><line x1="298.51" y1="168.34" x2="328.24" y2="172.63"/><line x1="224.58" y1="213.44" x2="265.56" y2="208.53"/><line x1="227.04" y1="216.63" x2="293.30" y2="223.10"/><line x1="296.54" y1="220.30" x2="273.10" y2="205.74"/><line x1="218.75" y1="100.49" x2="216.91" y2="101.44"/><line x1="480.00" y1="32.02" x2="480.00" y2="64.50"/><line x1="280.33" y1="318.81" x2="280.84" y2="318.84"/><line x1="256.38" y1="333.86" x2="258.93" y2="335.30"/><line x1="314.63" y1="104.46" x2="313.92" y2="103.42"/><line x1="296.68" y1="245.65" x2="285.22" y2="231.02"/><line x1="312.75" y1="336.76" x2="314.00" y2="336.24"/><line x1="264.72" y1="258.56" x2="263.94" y2="257.93"/><line x1="293.91" y1="340.31" x2="283.62" y2="318.77"/><line x1="255.08" y1="61.45" x2="254.76" y2="61.36"/><line x1="237.28" y1="230.87" x2="238.27" y2="232.38"/><line x1="217.29" y1="67.94" x2="214.91" y2="69.20"/><line x1="254.36" y1="99.46" x2="255.87" y2="61.73"/><line x1="242.33" y1="61.17" x2="241.60" y2="60.93"/><line x1="211.10" y1="115.38" x2="184.73" y2="119.29"/><line x1="229.72" y1="249.83" x2="251.64" y2="266.00"/><line x1="217.99" y1="277.17" x2="217.69" y2="279.99"/><line x1="254.36" y1="99.46" x2="253.03" y2="61.20"/><line x1="250.54" y1="304.38" x2="252.51" y2="306.60"/><line x1="480.00" y1="479.91" x2="480.00" y2="447.42"/><line x1="184.87" y1="125.02" x2="184.92" y2="125.50"/><line x1="271.49" y1="103.89" x2="269.16" y2="103.11"/><line x1="254.36" y1="99.46" x2="249.43" y2="62.10"/><line x1="313.92" y1="103.42" x2="313.12" y2="102.33"/><line x1="296.42" y1="313.54" x2="315.14" y2="335.70"/><line x1="291.38" y1="317.38" x2="292.36" y2="317.10"/><line x1="273.81" y1="67.73" x2="271.86" y2="67.10"/><line x1="256.92" y1="99.95" x2="262.19" y2="65.06"/><line x1="243.54" y1="98.16" x2="246.20" y2="62.40"/><line x1="290.24" y1="290.83" x2="288.84" y2="289.33"/><line x1="241.60" y1="60.93" x2="240.83" y2="60.70"/><line x1="259.86" y1="257.67" x2="258.23" y2="258.82"/><line x1="212.00" y1="106.57" x2="190.56" y2="96.91"/><line x1="245.86" y1="326.39" x2="254.74" y2="308.64"/><line x1="221.70" y1="301.63" x2="222.60" y2="303.32"/><line x1="211.73" y1="119.29" x2="184.79" y2="124.10"/><line x1="246.07" y1="182.39" x2="219.00" y2="206.38"/><line x1="324.86" y1="288.28" x2="296.80" y2="300.87"/><line x1="271.86" y1="67.10" x2="261.93" y2="101.06"/><line x1="290.07" y1="226.11" x2="291.69" y2="224.58"/><line x1="253.03" y1="61.20" x2="252.72" y2="61.24"/><line x1="262.58" y1="257.07" x2="240.06" y2="235.41"/><line x1="217.75" y1="286.86" x2="217.96" y2="288.85"/><line x1="190.56" y1="96.91" x2="211.38" y2="108.17"/><line x1="308.75" y1="119.89" x2="315.26" y2="105.47"/><line x1="204.87" y1="77.54" x2="195.74" y2="89.67"/><line x1="447.51" y1="479.91" x2="480.00" y2="447.42"/><line x1="222.60" y1="303.32" x2="223.60" y2="304.96"/><line x1="268.82" y1="339.43" x2="271.20" y2="340.08"/><line x1="308.75" y1="119.89" x2="305.38" y2="92.61"/><line x1="325.28" y1="322.46" x2="297.84" y2="311.26"/><line x1="299.84" y1="127.91" x2="300.29" y2="127.68"/><line x1="252.72" y1="61.24" x2="252.38" y2="61.30"/><line x1="240.06" y1="235.41" x2="261.99" y2="256.86"/><line x1="296.54" y1="220.30" x2="277.38" y2="201.70"/><line x1="244.26" y1="287.33" x2="218.24" y2="290.79"/><line x1="247.11" y1="273.40" x2="222.50" y2="262.34"/><line x1="296.54" y1="220.30" x2="269.10" y2="208.96"/><line x1="188.02" y1="149.19" x2="188.57" y2="152.21"/><line x1="271.20" y1="340.08" x2="273.55" y2="340.60"/><line x1="305.38" y1="92.61" x2="289.75" y2="111.99"/><line x1="298.44" y1="309.19" x2="298.47" y2="308.70"/><line x1="270.90" y1="265.45" x2="285.22" y2="231.02"/><line x1="301.86" y1="146.72" x2="319.64" y2="144.35"/><line x1="299.87" y1="162.81" x2="326.52" y2="162.91"/><line x1="231.57" y1="62.14" x2="234.79" y2="97.87"/><line x1="254.36" y1="99.46" x2="254.76" y2="61.36"/><line x1="222.50" y1="262.34" x2="221.20" y2="265.41"/><line x1="262.99" y1="313.72" x2="266.25" y2="315.06"/><line x1="247.41" y1="299.40" x2="227.60" y2="310.27"/><line x1="317.16" y1="114.89" x2="312.90" y2="119.24"/><line x1="297.73" y1="303.58" x2="324.86" y2="288.28"/><line x1="263.14" y1="206.76" x2="263.62" y2="207.18"/><line x1="314.29" y1="270.14" x2="290.24" y2="290.83"/><line x1="306.62" y1="338.42" x2="294.77" y2="315.43"/><line x1="256.92" y1="99.95" x2="263.73" y2="65.40"/><line x1="263.23" y1="257.43" x2="239.66" y2="234.66"/><line x1="301.46" y1="151.80" x2="301.21" y2="154.19"/><line x1="285.22" y1="231.02" x2="269.67" y2="263.93"/><line x1="256.92" y1="99.95" x2="260.57" y2="64.89"/><line x1="259.86" y1="257.67" x2="239.87" y2="236.75"/><line x1="254.95" y1="261.89" x2="253.30" y2="263.81"/><line x1="292.73" y1="180.29" x2="317.27" y2="200.36"/><line x1="186.95" y1="104.84" x2="186.46" y2="106.46"/><line x1="227.60" y1="310.27" x2="228.61" y2="311.38"/><line x1="322.90" y1="151.85" x2="300.93" y2="156.49"/><line x1="326.03" y1="320.60" x2="298.06" y2="310.73"/><line x1="256.59" y1="260.22" x2="254.95" y2="261.89"/><line x1="304.09" y1="127.24" x2="305.37" y2="127.55"/><line x1="239.87" y1="236.75" x2="239.71" y2="237.05"/><line x1="244.61" y1="280.01" x2="218.50" y2="274.31"/><line x1="320.46" y1="280.01" x2="314.29" y2="270.14"/><line x1="293.37" y1="316.79" x2="304.80" y2="338.78"/><line x1="308.75" y1="119.89" x2="312.25" y2="101.19"/><line x1="279.76" y1="318.74" x2="280.33" y2="318.81"/><line x1="265.56" y1="259.35" x2="264.72" y2="258.56"/><line x1="298.51" y1="168.34" x2="328.05" y2="170.80"/><line x1="246.22" y1="296.64" x2="226.69" y2="309.19"/><line x1="184.97" y1="114.56" x2="184.84" y2="116.15"/><line x1="218.50" y1="274.31" x2="217.99" y2="277.17"/><line x1="299.40" y1="128.18" x2="299.84" y2="127.91"/><line x1="233.71" y1="316.24" x2="250.54" y2="304.38"/><line x1="296.54" y1="220.30" x2="274.03" y2="204.93"/><line x1="301.86" y1="146.72" x2="302.27" y2="127.16"/><line x1="296.68" y1="245.65" x2="270.90" y2="265.45"/><line x1="312.75" y1="336.76" x2="296.42" y2="313.54"/><line x1="301.86" y1="146.72" x2="313.16" y2="133.66"/><line x1="224.58" y1="213.44" x2="294.92" y2="221.67"/><line x1="254.36" y1="99.46" x2="258.88" y2="64.56"/><line x1="305.49" y1="212.40" x2="303.85" y2="213.91"/><line x1="211.10" y1="115.38" x2="184.75" y2="117.72"/><line x1="328.29" y1="311.81" x2="328.39" y2="300.06"/><line x1="250.54" y1="304.38" x2="245.86" y2="326.39"/><line x1="480.00" y1="479.91" x2="447.51" y2="479.91"/><line x1="324.51" y1="324.20" x2="323.72" y2="325.83"/><line x1="271.49" y1="103.89" x2="285.26" y2="73.38"/><line x1="247.41" y1="299.40" x2="248.84" y2="301.98"/><line x1="261.48" y1="256.79" x2="259.86" y2="257.67"/><line x1="313.16" y1="133.66" x2="314.47" y2="135.39"/><line x1="243.54" y1="98.16" x2="246.76" y2="62.51"/><line x1="238.66" y1="238.63" x2="238.41" y2="238.95"/><line x1="294.10" y1="316.10" x2="306.62" y2="338.42"/><line x1="259.86" y1="257.67" x2="239.13" y2="237.98"/><line x1="275.85" y1="340.96" x2="278.11" y2="341.18"/><line x1="199.43" y1="179.79" x2="201.20" y2="182.49"/><line x1="297.56" y1="311.81" x2="297.24" y2="312.37"/><line x1="298.36" y1="309.69" x2="328.26" y2="312.76"/><line x1="282.83" y1="318.82" x2="283.62" y2="318.77"/><line x1="306.98" y1="94.58" x2="305.38" y2="92.61"/><line x1="324.86" y1="288.28" x2="297.31" y2="302.24"/><line x1="297.24" y1="312.37" x2="296.86" y2="312.94"/><line x1="290.07" y1="226.11" x2="229.29" y2="219.59"/><line x1="328.33" y1="177.65" x2="328.16" y2="179.26"/><line x1="207.42" y1="74.60" x2="206.04" y2="76.05"/><line x1="237.77" y1="97.90" x2="231.57" y2="62.14"/><line x1="217.75" y1="286.86" x2="244.26" y2="287.33"/><line x1="251.17" y1="330.46" x2="253.79" y2="332.24"/><line x1="308.75" y1="119.89" x2="315.81" y2="106.43"/><line x1="204.87" y1="77.54" x2="213.96" y2="103.74"/><line x1="295.38" y1="314.78" x2="295.93" y2="314.15"/><line x1="308.75" y1="119.89" x2="306.98" y2="94.58"/><line x1="318.79" y1="333.05" x2="319.63" y2="332.16"/><line x1="263.96" y1="65.50" x2="256.92" y2="99.95"/><line x1="320.92" y1="147.10" x2="321.95" y2="149.49"/><line x1="278.11" y1="341.18" x2="279.76" y2="318.74"/><line x1="308.50" y1="209.48" x2="307.03" y2="210.93"/><line x1="234.53" y1="243.46" x2="232.03" y2="246.65"/><line x1="296.54" y1="220.30" x2="278.09" y2="200.89"/><line x1="296.54" y1="220.30" x2="270.14" y2="208.16"/><line x1="316.83" y1="115.79" x2="317.16" y2="114.89"/><line x1="301.86" y1="146.72" x2="299.84" y2="127.91"/><line x1="293.74" y1="295.23" x2="292.69" y2="293.77"/><line x1="301.86" y1="146.72" x2="306.66" y2="128.06"/><line x1="250.40" y1="61.79" x2="249.93" y2="61.94"/><line x1="301.86" y1="146.72" x2="318.35" y2="141.80"/><line x1="296.19" y1="174.57" x2="324.81" y2="189.52"/><line x1="210.19" y1="195.08" x2="212.93" y2="198.68"/><line x1="277.70" y1="69.27" x2="275.76" y2="68.45"/><line x1="297.81" y1="84.13" x2="296.44" y2="82.73"/><line x1="297.98" y1="170.02" x2="297.42" y2="171.61"/><line x1="263.23" y1="257.43" x2="239.06" y2="233.65"/><line x1="249.93" y1="61.94" x2="249.43" y2="62.10"/><line x1="227.62" y1="252.99" x2="225.71" y2="256.12"/><line x1="213.96" y1="103.74" x2="212.86" y2="105.09"/><line x1="191.51" y1="164.25" x2="192.44" y2="167.25"/><line x1="296.44" y1="82.73" x2="295.14" y2="81.44"/><line x1="298.36" y1="309.69" x2="298.24" y2="310.20"/><line x1="275.07" y1="270.89" x2="296.68" y2="245.65"/><line x1="262.19" y1="65.06" x2="261.80" y2="65.03"/><line x1="256.59" y1="260.22" x2="234.53" y2="243.46"/><line x1="324.58" y1="156.41" x2="325.30" y2="158.62"/><line x1="249.98" y1="268.45" x2="248.43" y2="270.98"/><line x1="219.84" y1="66.72" x2="217.29" y2="67.94"/><line x1="316.40" y1="116.59" x2="314.54" y2="118.43"/><line x1="221.89" y1="210.03" x2="224.58" y2="213.44"/><line x1="317.59" y1="111.60" x2="317.56" y2="111.04"/><line x1="320.46" y1="280.01" x2="293.74" y2="295.23"/><line x1="308.75" y1="119.89" x2="313.12" y2="102.33"/><line x1="266.53" y1="209.01" x2="268.04" y2="209.77"/><line x1="293.37" y1="316.79" x2="302.85" y2="339.11"/><line x1="261.80" y1="65.03" x2="261.39" y2="64.99"/><line x1="261.99" y1="256.86" x2="261.48" y2="256.79"/><line x1="300.61" y1="158.70" x2="300.26" y2="160.80"/><line x1="249.07" y1="98.69" x2="246.34" y2="98.39"/><line x1="321.58" y1="194.90" x2="320.26" y2="196.71"/><line x1="238.90" y1="238.30" x2="238.66" y2="238.63"/><line x1="221.17" y1="143.57" x2="190.66" y2="161.23"/><line x1="246.22" y1="296.64" x2="225.88" y2="308.15"/><line x1="184.97" y1="114.56" x2="211.10" y2="115.38"/><line x1="296.54" y1="220.30" x2="274.94" y2="204.12"/><line x1="251.63" y1="189.83" x2="256.16" y2="197.92"/><line x1="301.86" y1="146.72" x2="297.80" y2="129.77"/><line x1="317.56" y1="111.04" x2="317.45" y2="110.42"/><line x1="267.93" y1="66.11" x2="265.95" y2="65.76"/><line x1="288.90" y1="75.94" x2="271.49" y2="103.89"/><line x1="301.86" y1="146.72" x2="301.75" y2="127.23"/><line x1="240.26" y1="235.92" x2="240.15" y2="236.18"/><line x1="301.86" y1="146.72" x2="311.86" y2="132.13"/><line x1="246.34" y1="98.39" x2="243.54" y2="98.16"/><line x1="294.43" y1="177.60" x2="293.63" y2="178.87"/><line x1="224.58" y1="213.44" x2="296.54" y2="220.30"/><line x1="217.64" y1="284.83" x2="217.75" y2="286.86"/><line x1="277.74" y1="318.37" x2="278.47" y2="318.52"/><line x1="197.84" y1="177.25" x2="199.43" y2="179.79"/><line x1="271.49" y1="103.89" x2="287.09" y2="74.62"/><line x1="187.52" y1="103.24" x2="186.95" y2="104.84"/><line x1="259.73" y1="64.75" x2="259.31" y2="64.66"/><line x1="299.45" y1="164.74" x2="327.44" y2="166.98"/><line x1="296.82" y1="173.14" x2="296.19" y2="174.57"/><line x1="231.31" y1="222.31" x2="290.07" y2="226.11"/><line x1="210.89" y1="111.78" x2="185.40" y2="111.35"/><line x1="246.04" y1="275.71" x2="245.21" y2="277.91"/><line x1="208.99" y1="73.19" x2="207.42" y2="74.60"/><line x1="316.68" y1="108.19" x2="308.75" y2="119.89"/><line x1="308.32" y1="338.05" x2="309.91" y2="337.66"/><line x1="266.79" y1="102.38" x2="277.70" y2="69.27"/><line x1="298.36" y1="309.69" x2="328.24" y2="313.52"/><line x1="259.31" y1="64.66" x2="258.88" y2="64.56"/><line x1="224.31" y1="149.35" x2="191.51" y2="164.25"/><line x1="291.73" y1="181.83" x2="290.62" y2="183.52"/><line x1="237.24" y1="240.24" x2="234.53" y2="243.46"/><line x1="184.73" y1="122.80" x2="184.75" y2="123.23"/><line x1="308.75" y1="119.89" x2="316.28" y2="107.34"/><line x1="228.49" y1="98.16" x2="219.84" y2="66.72"/><line x1="295.38" y1="314.78" x2="311.38" y2="337.23"/><line x1="251.75" y1="99.04" x2="249.07" y2="98.69"/><line x1="294.67" y1="296.66" x2="293.74" y2="295.23"/><line x1="296.86" y1="312.94" x2="296.42" y2="313.54"/><line x1="225.70" y1="98.52" x2="223.15" y2="99.03"/><line x1="320.92" y1="147.10" x2="301.46" y2="151.80"/><line x1="245.02" y1="62.07" x2="244.39" y2="61.87"/><line x1="244.25" y1="281.99" x2="244.13" y2="283.88"/><line x1="308.50" y1="209.48" x2="279.95" y2="198.47"/><line x1="207.65" y1="191.67" x2="210.19" y2="195.08"/><line x1="288.59" y1="318.07" x2="289.49" y2="317.86"/><line x1="279.63" y1="70.17" x2="277.70" y2="69.27"/><line x1="185.16" y1="112.97" x2="184.97" y2="114.56"/><line x1="301.86" y1="146.72" x2="299.40" y2="128.18"/><line x1="301.86" y1="146.72" x2="305.37" y2="127.55"/><line x1="328.24" y1="172.63" x2="328.35" y2="174.38"/><line x1="263.94" y1="257.93" x2="263.23" y2="257.43"/><line x1="301.86" y1="146.72" x2="317.06" y2="139.46"/><line x1="215.31" y1="102.53" x2="213.96" y2="103.74"/><line x1="296.19" y1="174.57" x2="325.65" y2="187.75"/><line x1="280.84" y1="318.84" x2="281.30" y2="318.85"/><line x1="261.93" y1="101.06" x2="267.93" y2="66.11"/><line x1="326.77" y1="318.63" x2="326.03" y2="320.60"/><line x1="233.13" y1="224.81" x2="231.31" y2="222.31"/><line x1="297.80" y1="129.77" x2="298.17" y2="129.30"/><line x1="254.41" y1="61.30" x2="254.02" y2="61.23"/><line x1="297.98" y1="170.02" x2="328.39" y2="176.08"/><line x1="282.06" y1="318.85" x2="282.83" y2="318.82"/><line x1="227.62" y1="252.99" x2="249.98" y2="268.45"/><line x1="273.10" y1="205.74" x2="272.14" y2="206.54"/><line x1="212.78" y1="123.52" x2="214.24" y2="128.06"/><line x1="261.46" y1="336.57" x2="263.94" y2="337.68"/><line x1="210.77" y1="71.82" x2="208.99" y2="73.19"/><line x1="297.42" y1="171.61" x2="328.33" y2="177.65"/><line x1="298.36" y1="309.69" x2="298.44" y2="309.19"/><line x1="275.07" y1="270.89" x2="306.37" y2="258.69"/><line x1="256.59" y1="260.22" x2="237.24" y2="240.24"/><line x1="324.58" y1="156.41" x2="300.61" y2="158.70"/><line x1="224.31" y1="149.35" x2="195.16" y2="172.73"/><line x1="300.36" y1="217.04" x2="298.49" y2="218.66"/><line x1="317.94" y1="333.83" x2="318.79" y2="333.05"/><line x1="316.40" y1="116.59" x2="315.87" y2="117.30"/><line x1="269.16" y1="103.11" x2="266.79" y2="102.38"/><line x1="289.75" y1="111.99" x2="302.26" y2="88.94"/><line x1="221.89" y1="210.03" x2="251.63" y2="189.83"/><line x1="320.46" y1="280.01" x2="294.67" y2="296.66"/><line x1="234.71" y1="227.07" x2="233.13" y2="224.81"/><line x1="293.37" y1="316.79" x2="300.80" y2="339.44"/><line x1="289.75" y1="111.99" x2="290.69" y2="77.35"/><line x1="278.76" y1="200.08" x2="296.54" y2="220.30"/><line x1="259.97" y1="312.20" x2="251.17" y2="330.46"/><line x1="261.99" y1="256.86" x2="240.26" y2="235.92"/><line x1="321.58" y1="194.90" x2="294.43" y2="177.60"/><line x1="221.17" y1="143.57" x2="189.89" y2="158.22"/><line x1="245.63" y1="62.25" x2="245.02" y2="62.07"/><line x1="327.49" y1="316.55" x2="298.24" y2="310.20"/><line x1="246.22" y1="296.64" x2="224.69" y2="306.57"/><line x1="301.68" y1="149.31" x2="320.92" y2="147.10"/><line x1="301.86" y1="146.72" x2="297.43" y2="130.29"/><line x1="258.23" y1="258.82" x2="256.59" y2="260.22"/><line x1="300.76" y1="127.48" x2="301.25" y2="127.33"/><line x1="301.86" y1="146.72" x2="301.25" y2="127.33"/><line x1="287.71" y1="318.24" x2="288.59" y2="318.07"/><line x1="266.25" y1="315.06" x2="269.79" y2="316.22"/><line x1="277.74" y1="318.37" x2="275.85" y2="340.96"/><line x1="326.38" y1="185.99" x2="296.19" y2="174.57"/><line x1="219.04" y1="294.57" x2="219.57" y2="296.38"/><line x1="299.45" y1="164.74" x2="327.01" y2="164.97"/><line x1="245.31" y1="293.72" x2="222.60" y2="303.32"/><line x1="210.89" y1="111.78" x2="185.70" y2="109.73"/><line x1="246.04" y1="275.71" x2="220.10" y2="268.42"/><line x1="297.43" y1="130.29" x2="297.80" y2="129.77"/><line x1="312.90" y1="119.24" x2="311.97" y2="119.53"/><line x1="298.47" y1="308.70" x2="298.42" y2="307.45"/><line x1="296.32" y1="340.04" x2="298.62" y2="339.74"/><line x1="308.32" y1="338.05" x2="295.38" y2="314.78"/><line x1="297.42" y1="171.61" x2="296.82" y2="173.14"/><line x1="266.79" y1="102.38" x2="279.63" y2="70.17"/><line x1="274.03" y1="204.93" x2="273.10" y2="205.74"/><line x1="248.90" y1="62.27" x2="248.36" y2="62.46"/><line x1="269.79" y1="316.22" x2="261.46" y2="336.57"/><line x1="291.73" y1="181.83" x2="308.50" y2="209.48"/><line x1="276.96" y1="318.20" x2="271.20" y2="340.08"/><line x1="229.73" y1="312.54" x2="230.95" y2="313.73"/><line x1="323.78" y1="154.15" x2="324.58" y2="156.41"/><line x1="480.00" y1="64.50" x2="447.51" y2="32.02"/><line x1="280.34" y1="341.25" x2="293.91" y2="340.31"/><line x1="289.75" y1="111.99" x2="296.44" y2="82.73"/><line x1="286.84" y1="229.33" x2="233.13" y2="224.81"/><line x1="306.66" y1="128.06" x2="307.95" y2="128.77"/><line x1="225.70" y1="98.52" x2="212.74" y2="70.49"/><line x1="298.62" y1="339.74" x2="293.37" y2="316.79"/><line x1="244.25" y1="281.99" x2="217.59" y2="282.75"/><line x1="328.22" y1="314.44" x2="328.20" y2="314.61"/><line x1="295.12" y1="176.45" x2="321.58" y2="194.90"/><line x1="313.12" y1="102.33" x2="312.25" y2="101.19"/><line x1="223.60" y1="304.96" x2="246.22" y2="296.64"/><line x1="263.94" y1="257.93" x2="236.09" y2="229.10"/><line x1="211.01" y1="109.92" x2="210.89" y2="111.78"/><line x1="328.24" y1="172.63" x2="297.98" y2="170.02"/><line x1="218.44" y1="138.09" x2="221.17" y2="143.57"/><line x1="300.29" y1="127.68" x2="300.76" y2="127.48"/><line x1="317.27" y1="109.73" x2="317.01" y2="108.99"/><line x1="328.20" y1="314.57" x2="328.20" y2="314.35"/><line x1="221.20" y1="265.41" x2="220.10" y2="268.42"/><line x1="261.93" y1="101.06" x2="269.90" y2="66.56"/><line x1="273.55" y1="340.60" x2="277.74" y2="318.37"/><line x1="238.14" y1="239.27" x2="237.86" y2="239.59"/><line x1="240.04" y1="60.47" x2="239.22" y2="60.26"/><line x1="210.89" y1="111.78" x2="211.10" y2="115.38"/><line x1="231.80" y1="161.74" x2="203.16" y2="185.37"/><line x1="326.52" y1="162.91" x2="299.45" y2="164.74"/><line x1="296.80" y1="300.87" x2="296.20" y2="299.49"/><line x1="220.83" y1="99.69" x2="204.87" y2="77.54"/><line x1="224.31" y1="149.35" x2="194.09" y2="170.73"/><line x1="189.68" y1="98.47" x2="188.89" y2="100.05"/><line x1="328.26" y1="312.76" x2="328.29" y2="311.81"/><line x1="289.75" y1="111.99" x2="303.81" y2="90.72"/><line x1="234.71" y1="227.07" x2="263.94" y2="257.93"/><line x1="289.75" y1="111.99" x2="291.69" y2="78.21"/><line x1="229.29" y1="219.59" x2="227.04" y2="216.63"/><line x1="279.95" y1="198.47" x2="302.14" y2="215.46"/><line x1="240.91" y1="175.23" x2="246.07" y2="182.39"/><line x1="253.79" y1="332.24" x2="256.38" y2="333.86"/><line x1="221.17" y1="143.57" x2="189.19" y2="155.22"/><line x1="293.91" y1="340.31" x2="296.32" y2="340.04"/><line x1="264.38" y1="101.69" x2="271.86" y2="67.10"/><line x1="247.78" y1="62.67" x2="247.28" y2="62.61"/><line x1="216.91" y1="101.44" x2="215.31" y2="102.53"/><line x1="258.23" y1="258.82" x2="238.14" y2="239.27"/><line x1="321.95" y1="149.49" x2="322.90" y2="151.85"/><line x1="269.67" y1="263.93" x2="268.52" y2="262.56"/><line x1="195.74" y1="89.67" x2="190.56" y2="96.91"/><line x1="232.03" y1="246.65" x2="229.72" y2="249.83"/><line x1="228.41" y1="63.24" x2="225.40" y2="64.37"/><line x1="227.85" y1="155.41" x2="231.80" y2="161.74"/><line x1="298.24" y1="310.20" x2="326.77" y2="318.63"/><line x1="254.76" y1="61.36" x2="254.41" y2="61.30"/><line x1="313.76" y1="118.88" x2="312.90" y2="119.24"/><line x1="290.42" y1="317.64" x2="291.38" y2="317.38"/><line x1="264.11" y1="207.56" x2="264.59" y2="207.91"/><line x1="236.09" y1="229.10" x2="237.28" y2="230.87"/><line x1="223.15" y1="99.03" x2="220.83" y2="99.69"/><line x1="184.92" y1="125.50" x2="212.78" y2="123.52"/><line x1="245.31" y1="293.72" x2="221.70" y2="301.63"/><line x1="210.89" y1="111.78" x2="186.05" y2="108.10"/><line x1="288.84" y1="289.33" x2="275.07" y2="270.89"/><line x1="240.83" y1="60.70" x2="240.04" y2="60.47"/><line x1="240.69" y1="98.00" x2="243.05" y2="61.40"/><line x1="297.42" y1="171.61" x2="327.49" y2="182.56"/><line x1="248.90" y1="62.27" x2="251.75" y2="99.04"/><line x1="219.00" y1="206.38" x2="221.89" y2="210.03"/><line x1="224.58" y1="213.44" x2="263.14" y2="206.76"/><line x1="276.96" y1="318.20" x2="268.82" y2="339.43"/><line x1="193.18" y1="168.90" x2="194.09" y2="170.73"/><line x1="259.45" y1="100.48" x2="256.92" y2="99.95"/><line x1="211.38" y1="108.17" x2="189.68" y2="98.47"/><line x1="289.75" y1="111.99" x2="297.81" y2="84.13"/><line x1="321.29" y1="329.99" x2="320.46" y2="331.13"/><line x1="325.30" y1="158.62" x2="325.95" y2="160.79"/><line x1="225.70" y1="98.52" x2="214.91" y2="69.20"/><line x1="252.38" y1="61.30" x2="252.03" y2="61.36"/><line x1="293.91" y1="340.31" x2="286.87" y2="318.39"/><line x1="328.22" y1="314.44" x2="328.20" y2="314.57"/><line x1="260.98" y1="64.95" x2="260.57" y2="64.89"/><line x1="254.36" y1="99.46" x2="251.65" y2="61.45"/><line x1="188.57" y1="152.21" x2="221.17" y2="143.57"/><line x1="244.66" y1="290.62" x2="245.31" y2="293.72"/><line x1="211.01" y1="109.92" x2="186.46" y2="106.46"/><line x1="296.42" y1="313.54" x2="318.79" y2="333.05"/><line x1="314.54" y1="118.43" x2="313.76" y2="118.88"/><line x1="184.84" y1="116.15" x2="184.75" y2="117.72"/><line x1="298.24" y1="310.20" x2="298.06" y2="310.73"/><line x1="302.14" y1="215.46" x2="300.36" y2="217.04"/><line x1="294.92" y1="221.67" x2="296.54" y2="220.30"/><line x1="234.79" y1="97.87" x2="228.41" y2="63.24"/><line x1="298.28" y1="306.18" x2="298.05" y2="304.89"/><line x1="285.26" y1="73.38" x2="283.41" y2="72.23"/><line x1="221.20" y1="265.41" x2="246.04" y2="275.71"/><line x1="297.31" y1="302.24" x2="296.80" y2="300.87"/><line x1="247.28" y1="62.61" x2="246.76" y2="62.51"/><line x1="263.62" y1="207.18" x2="264.11" y2="207.56"/><line x1="293.63" y1="178.87" x2="292.73" y2="180.29"/><line x1="211.73" y1="119.29" x2="212.78" y2="123.52"/><line x1="263.73" y1="65.40" x2="263.48" y2="65.31"/><line x1="311.97" y1="119.53" x2="317.45" y2="110.42"/><line x1="294.77" y1="315.43" x2="308.32" y2="338.05"/><line x1="32.16" y1="32.09" x2="32.16" y2="64.58"/><line x1="231.80" y1="161.74" x2="201.20" y2="182.49"/><line x1="317.27" y1="200.36" x2="291.73" y2="181.83"/><line x1="186.46" y1="106.46" x2="210.89" y2="111.78"/><line x1="240.69" y1="98.00" x2="240.04" y2="60.47"/><line x1="228.61" y1="311.38" x2="229.73" y2="312.54"/><line x1="327.88" y1="180.90" x2="327.49" y2="182.56"/><line x1="220.83" y1="99.69" x2="206.04" y2="76.05"/><line x1="248.84" y1="301.98" x2="250.54" y2="304.38"/><line x1="305.37" y1="127.55" x2="306.66" y2="128.06"/><line x1="249.43" y1="62.10" x2="248.90" y2="62.27"/><line x1="239.71" y1="237.05" x2="239.53" y2="237.35"/><line x1="224.58" y1="213.44" x2="265.07" y2="208.23"/><line x1="192.44" y1="167.25" x2="193.18" y2="168.90"/><line x1="298.99" y1="166.58" x2="298.51" y2="168.34"/><line x1="280.33" y1="318.81" x2="280.34" y2="341.25"/><line x1="295.14" y1="81.44" x2="293.92" y2="80.26"/><line x1="279.95" y1="198.47" x2="303.85" y2="213.91"/><line x1="293.91" y1="340.31" x2="282.83" y2="318.82"/><line x1="237.28" y1="230.87" x2="263.23" y2="257.43"/><line x1="240.91" y1="175.23" x2="215.86" y2="202.44"/><line x1="217.29" y1="67.94" x2="225.70" y2="98.52"/><line x1="328.05" y1="170.80" x2="328.24" y2="172.63"/><line x1="293.91" y1="340.31" x2="290.42" y2="317.64"/><line x1="264.38" y1="101.69" x2="273.81" y2="67.73"/><line x1="217.99" y1="277.17" x2="244.25" y2="281.99"/><line x1="247.78" y1="62.67" x2="243.54" y2="98.16"/><line x1="254.36" y1="99.46" x2="253.33" y2="61.18"/><line x1="258.23" y1="258.82" x2="238.41" y2="238.95"/><line x1="321.95" y1="149.49" x2="301.21" y2="154.19"/><line x1="254.36" y1="99.46" x2="249.93" y2="61.94"/><line x1="195.74" y1="89.67" x2="212.00" y2="106.57"/><line x1="296.42" y1="313.54" x2="314.00" y2="336.24"/><line x1="227.85" y1="155.41" x2="199.43" y2="179.79"/><line x1="256.92" y1="99.95" x2="262.55" y2="65.10"/><line x1="285.22" y1="231.02" x2="234.71" y2="227.07"/><line x1="303.85" y1="213.91" x2="302.14" y2="215.46"/><line x1="245.86" y1="326.39" x2="252.51" y2="306.60"/><line x1="328.39" y1="300.06" x2="298.05" y2="304.89"/><line x1="223.15" y1="99.03" x2="207.42" y2="74.60"/><line x1="211.73" y1="119.29" x2="184.77" y2="123.66"/><line x1="244.13" y1="283.88" x2="244.26" y2="287.33"/><line x1="324.81" y1="189.52" x2="323.86" y2="191.31"/><line x1="216.13" y1="132.91" x2="218.44" y2="138.09"/><line x1="314.47" y1="135.39" x2="315.77" y2="137.32"/><line x1="320.26" y1="196.71" x2="318.82" y2="198.53"/><line x1="238.41" y1="238.95" x2="238.14" y2="239.27"/><line x1="240.69" y1="98.00" x2="243.73" y2="61.64"/><line x1="298.56" y1="128.87" x2="298.97" y2="128.50"/><line x1="240.69" y1="98.00" x2="237.77" y2="97.90"/><line x1="283.62" y1="318.77" x2="284.41" y2="318.70"/><line x1="248.43" y1="270.98" x2="247.11" y2="273.40"/><line x1="224.58" y1="213.44" x2="259.36" y2="203.37"/><line x1="328.16" y1="179.26" x2="327.88" y2="180.90"/><line x1="317.45" y1="110.42" x2="317.27" y2="109.73"/><line x1="259.45" y1="100.48" x2="263.96" y2="65.50"/><line x1="224.58" y1="213.44" x2="268.04" y2="209.77"/><line x1="244.26" y1="287.33" x2="217.96" y2="288.85"/><line x1="325.30" y1="158.62" x2="300.26" y2="160.80"/><line x1="188.16" y1="101.64" x2="187.52" y2="103.24"/><line x1="319.63" y1="332.16" x2="320.46" y2="331.13"/><line x1="298.44" y1="309.19" x2="328.39" y2="300.06"/><line x1="293.91" y1="340.31" x2="286.04" y2="318.51"/><line x1="302.85" y1="339.11" x2="304.80" y2="338.78"/><line x1="278.09" y1="200.89" x2="277.38" y2="201.70"/><line x1="254.36" y1="99.46" x2="255.08" y2="61.45"/><line x1="262.99" y1="313.72" x2="253.79" y2="332.24"/><line x1="317.16" y1="114.89" x2="313.76" y2="118.88"/><line x1="254.36" y1="99.46" x2="252.03" y2="61.36"/><line x1="244.66" y1="290.62" x2="220.19" y2="298.17"/><line x1="314.29" y1="270.14" x2="291.52" y2="292.31"/><line x1="296.42" y1="313.54" x2="317.94" y2="333.83"/><line x1="301.46" y1="151.80" x2="321.95" y2="149.49"/><line x1="256.92" y1="99.95" x2="260.98" y2="64.95"/><line x1="254.95" y1="261.89" x2="232.03" y2="246.65"/><line x1="220.19" y1="298.17" x2="220.89" y2="299.92"/><line x1="32.00" y1="479.98" x2="64.49" y2="479.98"/><line x1="277.38" y1="201.70" x2="276.62" y2="202.51"/><line x1="231.53" y1="97.94" x2="228.49" y2="98.16"/><line x1="289.49" y1="317.86" x2="290.42" y2="317.64"/><line x1="184.92" y1="125.50" x2="187.56" y2="146.19"/><line x1="245.21" y1="277.91" x2="244.61" y2="280.01"/><line x1="211.73" y1="119.29" x2="184.92" y2="125.50"/><line x1="311.97" y1="119.53" x2="317.56" y2="111.04"/><line x1="325.65" y1="187.75" x2="324.81" y2="189.52"/><line x1="300.93" y1="156.49" x2="300.61" y2="158.70"/><line x1="266.47" y1="260.27" x2="265.56" y2="259.35"/><line x1="263.94" y1="337.68" x2="266.40" y2="338.63"/><line x1="240.69" y1="98.00" x2="240.83" y2="60.70"/><line x1="248.84" y1="301.98" x2="233.71" y2="316.24"/><line x1="225.71" y1="256.12" x2="224.01" y2="259.24"/><line x1="224.58" y1="213.44" x2="264.59" y2="207.91"/><line x1="272.14" y1="206.54" x2="271.16" y2="207.35"/><line x1="211.38" y1="108.17" x2="211.01" y2="109.92"/><line x1="239.13" y1="237.98" x2="238.90" y2="238.30"/><line x1="296.68" y1="245.65" x2="272.21" y2="267.11"/><line x1="261.39" y1="64.99" x2="260.98" y2="64.95"/><line x1="293.91" y1="340.31" x2="282.06" y2="318.85"/><line x1="240.91" y1="175.23" x2="212.93" y2="198.68"/><line x1="254.36" y1="99.46" x2="259.31" y2="64.66"/><line x1="296.86" y1="312.94" x2="321.29" y2="329.99"/><line x1="211.10" y1="115.38" x2="184.84" y2="116.15"/><line x1="293.91" y1="340.31" x2="289.49" y2="317.86"/><line x1="271.16" y1="207.35" x2="270.14" y2="208.16"/><line x1="254.36" y1="99.46" x2="253.61" y2="61.17"/><line x1="247.41" y1="299.40" x2="230.95" y2="313.73"/><line x1="254.36" y1="99.46" x2="250.40" y2="61.79"/><line x1="217.59" y1="282.75" x2="217.64" y2="284.83"/><line x1="227.85" y1="155.41" x2="197.84" y2="177.25"/><line x1="314.29" y1="270.14" x2="306.37" y2="258.69"/><line x1="256.92" y1="99.95" x2="262.89" y2="65.16"/><line x1="243.54" y1="98.16" x2="247.28" y2="62.61"/><line x1="261.48" y1="256.79" x2="240.02" y2="236.46"/><line x1="285.22" y1="231.02" x2="266.47" y2="260.27"/><line x1="328.39" y1="300.06" x2="298.47" y2="308.70"/><line x1="259.86" y1="257.67" x2="239.34" y2="237.67"/><line x1="275.85" y1="340.96" x2="279.14" y2="318.64"/><line x1="199.43" y1="179.79" x2="231.80" y2="161.74"/><line x1="297.56" y1="311.81" x2="323.72" y2="325.83"/><line x1="287.09" y1="74.62" x2="285.26" y2="73.38"/><line x1="211.73" y1="119.29" x2="184.75" y2="123.23"/><line x1="257.22" y1="310.51" x2="259.97" y2="312.20"/><line x1="216.13" y1="132.91" x2="187.56" y2="146.19"/><line x1="328.20" y1="314.35" x2="298.36" y2="309.69"/><line x1="220.10" y1="268.42" x2="219.19" y2="271.39"/><line x1="207.42" y1="74.60" x2="220.83" y2="99.69"/><line x1="320.26" y1="196.71" x2="293.63" y2="178.87"/><line x1="240.69" y1="98.00" x2="244.39" y2="61.87"/><line x1="251.17" y1="330.46" x2="262.99" y2="313.72"/><line x1="204.87" y1="77.54" x2="215.31" y2="102.53"/><line x1="328.24" y1="313.52" x2="328.26" y2="312.76"/><line x1="308.75" y1="119.89" x2="308.61" y2="96.65"/><line x1="258.88" y1="64.56" x2="255.87" y2="61.73"/><line x1="327.44" y1="166.98" x2="327.78" y2="168.92"/><line x1="224.58" y1="213.44" x2="256.16" y2="197.92"/><line x1="234.53" y1="243.46" x2="254.95" y2="261.89"/><line x1="230.95" y1="313.73" x2="232.28" y2="314.96"/><line x1="184.75" y1="123.23" x2="184.77" y2="123.66"/><line x1="316.28" y1="107.34" x2="315.81" y2="106.43"/><line x1="296.54" y1="220.30" x2="271.16" y2="207.35"/><line x1="218.60" y1="292.70" x2="219.04" y2="294.57"/><line x1="188.16" y1="101.64" x2="211.01" y2="109.92"/><line x1="293.74" y1="295.23" x2="314.29" y2="270.14"/><line x1="244.39" y1="61.87" x2="243.73" y2="61.64"/><line x1="219.57" y1="296.38" x2="220.19" y2="298.17"/><line x1="254.36" y1="99.46" x2="255.38" y2="61.53"/><line x1="210.19" y1="195.08" x2="240.91" y2="175.23"/><line x1="254.36" y1="99.46" x2="252.38" y2="61.30"/><line x1="277.70" y1="69.27" x2="264.38" y2="101.69"/><line x1="314.29" y1="270.14" x2="292.69" y2="293.77"/><line x1="189.89" y1="158.22" x2="190.66" y2="161.23"/><line x1="263.23" y1="257.43" x2="238.27" y2="232.38"/><line x1="256.92" y1="99.95" x2="261.39" y2="64.99"/><line x1="213.96" y1="103.74" x2="195.74" y2="89.67"/><line x1="220.19" y1="298.17" x2="245.31" y2="293.72"/><line x1="32.00" y1="479.98" x2="32.00" y2="447.50"/><line x1="231.53" y1="97.94" x2="222.54" y2="65.53"/><line x1="298.17" y1="129.30" x2="298.56" y2="128.87"/><line x1="254.02" y1="61.23" x2="253.61" y2="61.17"/><line x1="246.07" y1="182.39" x2="251.63" y2="189.83"/><line x1="311.97" y1="119.53" x2="317.59" y2="111.60"/><line x1="238.27" y1="232.38" x2="239.06" y2="233.65"/><line x1="249.98" y1="268.45" x2="225.71" y2="256.12"/><line x1="214.24" y1="128.06" x2="216.13" y2="132.91"/><line x1="263.94" y1="337.68" x2="276.96" y2="318.20"/><line x1="311.30" y1="100.03" x2="310.26" y2="98.81"/><line x1="308.75" y1="119.89" x2="313.92" y2="103.42"/><line x1="185.70" y1="109.73" x2="185.40" y2="111.35"/><line x1="306.37" y1="258.69" x2="296.68" y2="245.65"/><line x1="195.16" y1="172.73" x2="196.41" y2="174.90"/><line x1="239.22" y1="60.26" x2="238.37" y2="60.04"/><line x1="325.28" y1="322.46" x2="324.51" y2="324.20"/><line x1="300.61" y1="158.70" x2="325.30" y2="158.62"/><line x1="225.71" y1="256.12" x2="248.43" y2="270.98"/><line x1="279.38" y1="199.28" x2="278.76" y2="200.08"/><line x1="315.25" y1="117.91" x2="314.54" y2="118.43"/><line x1="296.54" y1="220.30" x2="275.80" y2="203.32"/><line x1="251.63" y1="189.83" x2="224.58" y2="213.44"/><line x1="247.11" y1="273.40" x2="246.04" y2="275.71"/><line x1="212.74" y1="70.49" x2="210.77" y2="71.82"/><line x1="267.93" y1="66.11" x2="259.45" y2="100.48"/><line x1="300.80" y1="339.44" x2="302.85" y2="339.11"/><line x1="296.68" y1="245.65" x2="273.60" y2="268.93"/><line x1="240.26" y1="235.92" x2="261.48" y2="256.79"/><line x1="301.86" y1="146.72" x2="310.55" y2="130.81"/><line x1="294.43" y1="177.60" x2="320.26" y2="196.71"/><line x1="188.89" y1="100.05" x2="188.16" y2="101.64"/><line x1="224.58" y1="213.44" x2="227.04" y2="216.63"/><line x1="254.36" y1="99.46" x2="259.73" y2="64.75"/><line x1="224.69" y1="306.57" x2="225.88" y2="308.15"/><line x1="324.51" y1="324.20" x2="297.56" y2="311.81"/><line x1="247.41" y1="299.40" x2="229.73" y2="312.54"/><line x1="184.73" y1="119.29" x2="184.73" y2="122.39"/><line x1="301.25" y1="127.33" x2="301.75" y2="127.23"/><line x1="296.82" y1="173.14" x2="326.38" y2="185.99"/><line x1="317.01" y1="108.99" x2="316.68" y2="108.19"/><line x1="225.40" y1="64.37" x2="222.54" y2="65.53"/><line x1="256.92" y1="99.95" x2="263.20" y2="65.23"/><line x1="314.29" y1="270.14" x2="275.07" y2="270.89"/><line x1="261.48" y1="256.79" x2="240.15" y2="236.18"/><line x1="189.19" y1="155.22" x2="189.89" y2="158.22"/><line x1="259.86" y1="257.67" x2="239.53" y2="237.35"/><line x1="246.20" y1="62.40" x2="245.63" y2="62.25"/><line x1="275.85" y1="340.96" x2="278.47" y2="318.52"/><line x1="297.09" y1="130.86" x2="297.43" y2="130.29"/><line x1="268.52" y1="262.56" x2="267.46" y2="261.34"/><line x1="327.01" y1="164.97" x2="327.44" y2="166.98"/><line x1="220.10" y1="268.42" x2="245.21" y2="277.91"/><line x1="317.40" y1="113.89" x2="317.55" y2="112.79"/><line x1="244.61" y1="280.01" x2="244.25" y2="281.99"/><line x1="204.87" y1="77.54" x2="216.91" y2="101.44"/><line x1="295.38" y1="314.78" x2="309.91" y2="337.66"/><line x1="308.75" y1="119.89" x2="310.26" y2="98.81"/><line x1="251.75" y1="99.04" x2="247.78" y2="62.67"/><line x1="267.46" y1="261.34" x2="266.47" y2="260.27"/><line x1="327.44" y1="166.98" x2="298.99" y2="166.58"/><line x1="308.50" y1="209.48" x2="290.62" y2="183.52"/><line x1="230.95" y1="313.73" x2="248.84" y2="301.98"/><line x1="298.51" y1="168.34" x2="297.98" y2="170.02"/><line x1="265.07" y1="208.23" x2="265.56" y2="208.53"/><line x1="296.54" y1="220.30" x2="272.14" y2="206.54"/><line x1="301.86" y1="146.72" x2="298.97" y2="128.50"/><line x1="307.95" y1="128.77" x2="309.25" y2="129.69"/><line x1="301.86" y1="146.72" x2="304.09" y2="127.24"/><line x1="239.34" y1="237.67" x2="239.13" y2="237.98"/><line x1="290.62" y1="183.52" x2="279.95" y2="198.47"/><line x1="301.86" y1="146.72" x2="315.77" y2="137.32"/><line x1="280.84" y1="318.84" x2="293.91" y2="340.31"/><line x1="312.25" y1="101.19" x2="311.30" y2="100.03"/><line x1="260.57" y1="64.89" x2="260.16" y2="64.83"/><line x1="233.13" y1="224.81" x2="288.46" y2="227.69"/><line x1="297.98" y1="170.02" x2="328.35" y2="174.38"/><line x1="217.69" y1="279.99" x2="217.59" y2="282.75"/><line x1="310.98" y1="119.73" x2="309.90" y2="119.85"/><line x1="212.00" y1="106.57" x2="211.38" y2="108.17"/><line x1="315.14" y1="335.70" x2="316.16" y2="335.11"/><line x1="269.90" y1="66.56" x2="267.93" y2="66.11"/><line x1="298.36" y1="309.69" x2="328.29" y2="311.81"/><line x1="256.59" y1="260.22" x2="237.56" y2="239.92"/><line x1="328.35" y1="174.38" x2="328.39" y2="176.08"/><line x1="300.36" y1="217.04" x2="279.38" y2="199.28"/><line x1="316.40" y1="116.59" x2="315.25" y2="117.91"/><line x1="269.16" y1="103.11" x2="281.53" y2="71.15"/><line x1="320.46" y1="280.01" x2="295.49" y2="298.08"/><line x1="308.75" y1="119.89" x2="314.63" y2="104.46"/><line x1="317.06" y1="139.46" x2="318.35" y2="141.80"/><line x1="252.03" y1="61.36" x2="251.65" y2="61.45"/><line x1="327.49" y1="182.56" x2="326.99" y2="184.26"/><line x1="308.75" y1="119.89" x2="289.75" y2="111.99"/><line x1="279.38" y1="199.28" x2="298.49" y2="218.66"/><line x1="278.11" y1="341.18" x2="280.34" y2="341.25"/><line x1="315.25" y1="117.91" x2="315.87" y2="117.30"/><line x1="296.54" y1="220.30" x2="276.62" y2="202.51"/><line x1="303.81" y1="90.72" x2="302.26" y2="88.94"/><line x1="247.11" y1="273.40" x2="221.20" y2="265.41"/><line x1="301.86" y1="146.72" x2="296.76" y2="131.48"/><line x1="291.69" y1="224.58" x2="293.30" y2="223.10"/><line x1="301.86" y1="146.72" x2="300.76" y2="127.48"/><line x1="251.65" y1="61.45" x2="251.26" y2="61.55"/><line x1="263.94" y1="257.93" x2="237.28" y2="230.87"/><line x1="318.35" y1="141.80" x2="319.64" y2="144.35"/><line x1="301.86" y1="146.72" x2="309.25" y2="129.69"/><line x1="266.25" y1="315.06" x2="258.93" y2="335.30"/><line x1="301.86" y1="146.72" x2="301.68" y2="149.31"/><line x1="296.19" y1="174.57" x2="295.71" y2="175.45"/><line x1="302.26" y1="88.94" x2="300.74" y2="87.24"/><line x1="263.48" y1="65.31" x2="263.20" y2="65.23"/><line x1="247.41" y1="299.40" x2="228.61" y2="311.38"/><line x1="297.73" y1="303.58" x2="297.31" y2="302.24"/><line x1="301.21" y1="154.19" x2="300.93" y2="156.49"/><line x1="253.30" y1="263.81" x2="251.64" y2="266.00"/><line x1="296.82" y1="173.14" x2="326.99" y2="184.26"/><line x1="225.40" y1="64.37" x2="231.53" y2="97.94"/><line x1="263.23" y1="257.43" x2="262.58" y2="257.07"/><line x1="312.90" y1="119.24" x2="317.40" y2="113.89"/><line x1="259.86" y1="257.67" x2="239.71" y2="237.05"/><line x1="296.32" y1="340.04" x2="292.36" y2="317.10"/><line x1="264.59" y1="207.91" x2="265.07" y2="208.23"/><line x1="297.09" y1="130.86" x2="296.76" y2="131.48"/><line x1="263.20" y1="65.23" x2="262.89" y2="65.16"/><line x1="322.90" y1="151.85" x2="323.78" y2="154.15"/><line x1="326.03" y1="320.60" x2="325.28" y2="322.46"/><line x1="323.86" y1="191.31" x2="322.78" y2="193.11"/><line x1="239.53" y1="237.35" x2="239.34" y2="237.67"/><line x1="275.80" y1="203.32" x2="274.94" y2="204.12"/><line x1="186.05" y1="108.10" x2="185.70" y2="109.73"/><line x1="215.86" y1="202.44" x2="219.00" y2="206.38"/><line x1="317.40" y1="113.89" x2="311.97" y2="119.53"/><line x1="280.34" y1="341.25" x2="280.84" y2="318.84"/><line x1="293.92" y1="80.26" x2="292.77" y2="79.18"/><line x1="244.61" y1="280.01" x2="217.99" y2="277.17"/><line x1="327.51" y1="294.96" x2="297.73" y2="303.58"/><line x1="239.66" y1="234.66" x2="240.06" y2="235.41"/><line x1="293.37" y1="316.79" x2="294.10" y2="316.10"/><line x1="308.75" y1="119.89" x2="311.30" y2="100.03"/><line x1="251.75" y1="99.04" x2="248.36" y2="62.46"/><line x1="295.71" y1="175.45" x2="295.12" y2="176.45"/><line x1="244.25" y1="281.99" x2="217.69" y2="279.99"/><line x1="194.09" y1="170.73" x2="195.16" y2="172.73"/><line x1="298.06" y1="310.73" x2="297.84" y2="311.26"/><line x1="246.22" y1="296.64" x2="247.41" y2="299.40"/><line x1="292.77" y1="79.18" x2="291.69" y2="78.21"/><line x1="314.00" y1="336.24" x2="315.14" y2="335.70"/><line x1="233.71" y1="316.24" x2="245.86" y2="326.39"/><line x1="301.86" y1="146.72" x2="298.56" y2="128.87"/><line x1="300.26" y1="160.80" x2="299.87" y2="162.81"/><line x1="224.01" y1="259.24" x2="222.50" y2="262.34"/><line x1="301.86" y1="146.72" x2="302.80" y2="127.14"/><line x1="214.91" y1="69.20" x2="212.74" y2="70.49"/><line x1="218.44" y1="138.09" x2="188.57" y2="152.21"/><line x1="301.86" y1="146.72" x2="314.47" y2="135.39"/><line x1="252.51" y1="306.60" x2="254.74" y2="308.64"/><line x1="317.27" y1="109.73" x2="310.98" y2="119.73"/><line x1="304.80" y1="338.78" x2="306.62" y2="338.42"/><line x1="328.20" y1="314.57" x2="328.20" y2="314.61"/><line x1="260.57" y1="64.89" x2="254.36" y2="99.46"/><line x1="325.95" y1="160.79" x2="326.52" y2="162.91"/><line x1="315.77" y1="137.32" x2="317.06" y2="139.46"/><line x1="238.14" y1="239.27" x2="256.59" y2="260.22"/><line x1="226.69" y1="309.19" x2="227.60" y2="310.27"/><line x1="184.75" y1="117.72" x2="184.73" y2="119.29"/><line x1="231.31" y1="222.31" x2="229.29" y2="219.59"/><line x1="210.89" y1="111.78" x2="184.97" y2="114.56"/><line x1="310.98" y1="119.73" x2="317.01" y2="108.99"/><line x1="323.72" y1="325.83" x2="322.92" y2="327.33"/><line x1="254.74" y1="308.64" x2="257.22" y2="310.51"/><line x1="284.41" y1="318.70" x2="285.22" y2="318.61"/><line x1="294.10" y1="316.10" x2="294.77" y2="315.43"/><line x1="296.80" y1="300.87" x2="320.46" y2="280.01"/><line x1="246.76" y1="62.51" x2="246.20" y2="62.40"/><line x1="298.36" y1="309.69" x2="327.49" y2="316.55"/><line x1="318.82" y1="198.53" x2="317.27" y2="200.36"/><line x1="256.59" y1="260.22" x2="237.86" y2="239.59"/><line x1="224.31" y1="149.35" x2="193.18" y2="168.90"/><line x1="217.96" y1="288.85" x2="218.24" y2="290.79"/><line x1="279.14" y1="318.64" x2="279.76" y2="318.74"/><line x1="201.20" y1="182.49" x2="203.16" y2="185.37"/><line x1="237.77" y1="97.90" x2="234.79" y2="97.87"/><line x1="269.16" y1="103.11" x2="283.41" y2="72.23"/><line x1="234.71" y1="227.07" x2="286.84" y2="229.33"/><line x1="285.22" y1="318.61" x2="286.04" y2="318.51"/><line x1="320.46" y1="280.01" x2="296.20" y2="299.49"/><line x1="228.49" y1="98.16" x2="225.70" y2="98.52"/><line x1="289.75" y1="111.99" x2="292.77" y2="79.18"/><line x1="327.51" y1="294.96" x2="324.86" y2="288.28"/><line x1="229.29" y1="219.59" x2="291.69" y2="224.58"/><line x1="327.49" y1="182.56" x2="296.82" y2="173.14"/><line x1="206.04" y1="76.05" x2="204.87" y2="77.54"/><line x1="263.96" y1="65.50" x2="263.73" y2="65.40"/><line x1="64.64" y1="32.09" x2="32.16" y2="64.58"/><line x1="218.24" y1="290.79" x2="218.60" y2="292.70"/><line x1="253.79" y1="332.24" x2="266.25" y2="315.06"/><line x1="203.16" y1="185.37" x2="205.30" y2="188.44"/><line x1="278.11" y1="341.18" x2="280.33" y2="318.81"/><line x1="301.86" y1="146.72" x2="297.09" y2="130.86"/><line x1="255.64" y1="61.63" x2="255.38" y2="61.53"/><line x1="327.78" y1="168.92" x2="328.05" y2="170.80"/><line x1="291.69" y1="224.58" x2="227.04" y2="216.63"/><line x1="301.86" y1="146.72" x2="300.29" y2="127.68"/><line x1="232.03" y1="246.65" x2="253.30" y2="263.81"/><line x1="301.86" y1="146.72" x2="307.95" y2="128.77"/><line x1="184.79" y1="124.10" x2="184.83" y2="124.56"/><line x1="276.62" y1="202.51" x2="275.80" y2="203.32"/><line x1="266.25" y1="315.06" x2="256.38" y2="333.86"/><line x1="296.19" y1="174.57" x2="323.86" y2="191.31"/><line x1="295.93" y1="314.15" x2="296.42" y2="313.54"/><line x1="290.42" y1="317.64" x2="296.32" y2="340.04"/><line x1="328.29" y1="311.81" x2="298.44" y2="309.19"/><line x1="292.69" y1="293.77" x2="291.52" y2="292.31"/><line x1="301.21" y1="154.19" x2="322.90" y2="151.85"/><line x1="243.05" y1="61.40" x2="242.33" y2="61.17"/><line x1="253.30" y1="263.81" x2="229.72" y2="249.83"/><line x1="245.31" y1="293.72" x2="220.89" y2="299.92"/><line x1="184.83" y1="124.56" x2="184.87" y2="125.02"/><line x1="212.93" y1="198.68" x2="215.86" y2="202.44"/><line x1="296.32" y1="340.04" x2="291.38" y2="317.38"/><line x1="291.52" y1="292.31" x2="290.24" y2="290.83"/><line x1="297.42" y1="171.61" x2="327.88" y2="180.90"/><line x1="239.06" y1="233.65" x2="239.66" y2="234.66"/><line x1="323.86" y1="191.31" x2="295.71" y2="175.45"/><line x1="275.07" y1="270.89" x2="273.60" y2="268.93"/><line x1="268.04" y1="209.77" x2="269.10" y2="208.96"/><line x1="187.56" y1="146.19" x2="188.02" y2="149.19"/><line x1="220.89" y1="299.92" x2="221.70" y2="301.63"/><line x1="276.96" y1="318.20" x2="266.40" y2="338.63"/><line x1="215.86" y1="202.44" x2="246.07" y2="182.39"/><line x1="316.40" y1="116.59" x2="316.83" y2="115.79"/><line x1="298.97" y1="128.50" x2="299.40" y2="128.18"/><line x1="289.75" y1="111.99" x2="299.25" y2="85.63"/><line x1="234.90" y1="61.08" x2="231.57" y2="62.14"/><line x1="239.66" y1="234.66" x2="262.58" y2="257.07"/><line x1="289.75" y1="111.99" x2="271.49" y2="103.89"/><line x1="295.71" y1="175.45" x2="322.78" y2="193.11"/><line x1="270.14" y1="208.16" x2="269.10" y2="208.96"/><line x1="266.40" y1="338.63" x2="268.82" y2="339.43"/><line x1="298.06" y1="310.73" x2="325.28" y2="322.46"/><line x1="221.17" y1="143.57" x2="224.31" y2="149.35"/><line x1="301.86" y1="146.72" x2="298.17" y2="129.30"/><line x1="300.26" y1="160.80" x2="325.95" y2="160.79"/><line x1="288.90" y1="75.94" x2="287.09" y2="74.62"/><line x1="211.01" y1="109.92" x2="186.95" y2="104.84"/><line x1="236.15" y1="168.35" x2="240.91" y2="175.23"/><line x1="224.01" y1="259.24" x2="247.11" y2="273.40"/><line x1="314.54" y1="118.43" x2="317.16" y2="114.89"/><line x1="218.44" y1="138.09" x2="188.02" y2="149.19"/><line x1="304.80" y1="338.78" x2="294.10" y2="316.10"/><line x1="285.26" y1="73.38" x2="269.16" y2="103.11"/><line x1="272.21" y1="267.11" x2="270.90" y2="265.45"/><line x1="240.02" y1="236.46" x2="239.87" y2="236.75"/><line x1="325.95" y1="160.79" x2="299.87" y2="162.81"/><line x1="293.63" y1="178.87" x2="318.82" y2="198.53"/><line x1="190.66" y1="161.23" x2="191.51" y2="164.25"/><line x1="226.69" y1="309.19" x2="247.41" y2="299.40"/><line x1="32.16" y1="32.09" x2="64.64" y2="32.09"/><line x1="245.31" y1="293.72" x2="246.22" y2="296.64"/><line x1="299.45" y1="164.74" x2="298.99" y2="166.58"/><line x1="210.89" y1="111.78" x2="185.16" y2="112.97"/><line x1="302.27" y1="127.16" x2="302.80" y2="127.14"/><line x1="255.87" y1="61.73" x2="255.64" y2="61.63"/><line x1="316.68" y1="108.19" x2="316.28" y2="107.34"/><line x1="222.54" y1="65.53" x2="219.84" y2="66.72"/><line x1="322.92" y1="327.33" x2="322.11" y2="328.72"/><line x1="266.79" y1="102.38" x2="264.38" y2="101.69"/><line x1="219.19" y1="271.39" x2="218.50" y2="274.31"/><line x1="269.79" y1="316.22" x2="276.96" y2="318.20"/><line x1="318.82" y1="198.53" x2="292.73" y2="180.29"/><line x1="224.31" y1="149.35" x2="192.44" y2="167.25"/><line x1="184.77" y1="123.66" x2="184.79" y2="124.10"/><line x1="279.14" y1="318.64" x2="278.11" y2="341.18"/><line x1="315.81" y1="106.43" x2="315.26" y2="105.47"/><line x1="276.96" y1="318.20" x2="277.74" y2="318.37"/><line x1="311.38" y1="337.23" x2="312.75" y2="336.76"/><line x1="234.71" y1="227.07" x2="264.72" y2="258.56"/><line x1="302.80" y1="127.14" x2="304.09" y2="127.24"/><line x1="298.99" y1="166.58" x2="327.78" y2="168.92"/><line x1="228.49" y1="98.16" x2="217.29" y2="67.94"/><line x1="289.75" y1="111.99" x2="293.92" y2="80.26"/><line x1="243.73" y1="61.64" x2="243.05" y2="61.40"/><line x1="279.95" y1="198.47" x2="305.49" y2="212.40"/><line x1="286.84" y1="229.33" x2="288.46" y2="227.69"/><line x1="315.26" y1="105.47" x2="314.63" y2="104.46"/><line x1="264.38" y1="101.69" x2="275.76" y2="68.45"/><line x1="247.78" y1="62.67" x2="246.34" y2="98.39"/><line x1="328.22" y1="314.44" x2="328.23" y2="314.08"/><line x1="258.23" y1="258.82" x2="238.66" y2="238.63"/><line x1="327.78" y1="168.92" x2="298.51" y2="168.34"/><line x1="195.74" y1="89.67" x2="212.86" y2="105.09"/><line x1="32.00" y1="447.50" x2="64.49" y2="479.98"/></g></svg>