<svg xmlns="http://www.w3.org/2000/svg" width="512" height="512"><rect width="512" height="512" fill="#0a0f1a"/><text x="12" y="20" font-family="monospace" font-size="11" fill="#4a7fa5">FRONT (XZ)</text><g stroke="#00d4ff" stroke-width="0.6" opacity="0.85"><line x1="226.58" y1="189.31" x2="259.79" y2="166.34"/><line x1="235.44" y1="248.77" x2="289.63" y2="263.65"/><line x1="303.78" y1="248.86" x2="286.06" y2="225.06"/><line x1="346.89" y1="92.03" x2="345.30" y2="89.08"/><line x1="245.27" y1="284.46" x2="244.88" y2="284.25"/><line x1="259.74" y1="191.34" x2="259.86" y2="191.79"/><line x1="267.33" y1="207.59" x2="267.56" y2="208.31"/><line x1="265.83" y1="315.78" x2="271.22" y2="320.73"/><line x1="165.28" y1="242.60" x2="158.74" y2="246.96"/><line x1="234.27" y1="252.77" x2="289.60" y2="267.37"/><line x1="340.15" y1="195.17" x2="320.82" y2="179.15"/><line x1="222.95" y1="256.64" x2="245.66" y2="284.72"/><line x1="269.49" y1="182.92" x2="264.01" y2="190.49"/><line x1="222.95" y1="256.64" x2="242.25" y2="283.97"/><line x1="351.45" y1="108.72" x2="329.43" y2="111.70"/><line x1="301.92" y1="78.26" x2="302.08" y2="96.09"/><line x1="204.89" y1="254.80" x2="203.47" y2="255.10"/><line x1="267.56" y1="208.31" x2="233.51" y2="210.43"/><line x1="272.46" y1="219.89" x2="272.84" y2="220.65"/><line x1="264.57" y1="143.44" x2="250.91" y2="137.35"/><line x1="192.36" y1="121.82" x2="190.89" y2="118.90"/><line x1="259.79" y1="166.34" x2="217.07" y2="166.15"/><line x1="235.16" y1="250.96" x2="234.79" y2="251.91"/><line x1="295.31" y1="215.82" x2="297.19" y2="213.75"/><line x1="351.43" y1="162.02" x2="326.92" y2="147.85"/><line x1="247.29" y1="286.14" x2="252.44" y2="290.94"/><line x1="264.01" y1="190.49" x2="263.58" y2="190.28"/><line x1="202.06" y1="280.59" x2="205.75" y2="254.82"/><line x1="264.10" y1="313.50" x2="263.40" y2="312.37"/><line x1="260.51" y1="193.50" x2="233.77" y2="203.63"/><line x1="268.70" y1="138.71" x2="255.44" y2="128.15"/><line x1="202.06" y1="280.59" x2="196.57" y2="255.78"/><line x1="317.72" y1="94.76" x2="320.75" y2="75.06"/><line x1="268.00" y1="180.77" x2="262.06" y2="189.82"/><line x1="266.84" y1="140.53" x2="266.33" y2="141.08"/><line x1="272.84" y1="220.65" x2="273.21" y2="221.43"/><line x1="283.75" y1="226.90" x2="284.86" y2="226.06"/><line x1="217.50" y1="167.66" x2="217.07" y2="166.15"/><line x1="213.47" y1="107.95" x2="189.53" y2="116.11"/><line x1="259.66" y1="190.93" x2="231.55" y2="198.13"/><line x1="325.67" y1="156.83" x2="325.83" y2="154.93"/><line x1="339.57" y1="81.93" x2="337.34" y2="80.11"/><line x1="209.88" y1="103.24" x2="185.59" y2="109.29"/><line x1="233.77" y1="203.63" x2="260.81" y2="194.17"/><line x1="233.47" y1="225.48" x2="233.69" y2="227.15"/><line x1="268.34" y1="211.16" x2="233.07" y2="212.59"/><line x1="214.46" y1="255.99" x2="213.01" y2="255.74"/><line x1="173.80" y1="246.64" x2="167.14" y2="257.05"/><line x1="282.85" y1="114.06" x2="280.64" y2="117.57"/><line x1="167.57" y1="243.64" x2="159.52" y2="250.19"/><line x1="222.95" y1="256.64" x2="296.72" y2="324.22"/><line x1="233.62" y1="253.54" x2="290.10" y2="270.51"/><line x1="243.94" y1="145.82" x2="262.32" y2="158.27"/><line x1="232.82" y1="254.22" x2="292.03" y2="277.89"/><line x1="222.95" y1="256.64" x2="299.98" y2="313.52"/><line x1="272.54" y1="198.93" x2="273.03" y2="188.68"/><line x1="194.32" y1="93.70" x2="204.66" y2="96.89"/><line x1="243.94" y1="145.82" x2="242.77" y2="145.31"/><line x1="262.06" y1="189.82" x2="266.25" y2="178.30"/><line x1="325.83" y1="154.93" x2="326.09" y2="152.80"/><line x1="181.71" y1="98.29" x2="181.68" y2="97.46"/><line x1="350.68" y1="102.54" x2="328.29" y2="107.78"/><line x1="222.95" y1="256.64" x2="298.44" y2="306.74"/><line x1="233.07" y1="212.59" x2="268.51" y2="211.86"/><line x1="280.64" y1="117.57" x2="255.99" y2="125.88"/><line x1="249.19" y1="139.74" x2="263.99" y2="145.12"/><line x1="265.83" y1="315.78" x2="278.34" y2="323.96"/><line x1="328.72" y1="217.26" x2="308.15" y2="200.45"/><line x1="222.95" y1="256.64" x2="244.13" y2="283.96"/><line x1="266.25" y1="178.30" x2="261.73" y2="189.80"/><line x1="246.05" y1="285.01" x2="245.66" y2="284.72"/><line x1="262.00" y1="196.50" x2="262.47" y2="197.36"/><line x1="328.29" y1="107.78" x2="327.83" y2="106.55"/><line x1="317.48" y1="75.54" x2="316.36" y2="75.75"/><line x1="301.92" y1="78.26" x2="276.51" y2="97.65"/><line x1="252.21" y1="135.01" x2="264.82" y2="143.02"/><line x1="275.02" y1="224.70" x2="275.50" y2="225.40"/><line x1="297.89" y1="254.41" x2="303.78" y2="248.86"/><line x1="263.99" y1="145.12" x2="263.14" y2="153.88"/><line x1="259.79" y1="166.34" x2="242.77" y2="145.31"/><line x1="351.43" y1="162.02" x2="325.62" y2="158.50"/><line x1="231.83" y1="132.86" x2="227.53" y2="127.16"/><line x1="247.29" y1="286.14" x2="248.88" y2="287.73"/><line x1="328.16" y1="142.01" x2="328.83" y2="138.97"/><line x1="245.66" y1="284.72" x2="245.27" y2="284.46"/><line x1="262.47" y1="197.36" x2="234.13" y2="206.05"/><line x1="202.06" y1="280.59" x2="201.13" y2="255.56"/><line x1="206.71" y1="254.88" x2="205.75" y2="254.82"/><line x1="316.36" y1="75.75" x2="315.21" y2="94.07"/><line x1="162.07" y1="253.48" x2="161.60" y2="253.14"/><line x1="317.72" y1="94.76" x2="318.44" y2="75.37"/><line x1="255.64" y1="127.52" x2="255.44" y2="128.15"/><line x1="158.83" y1="247.63" x2="165.28" y2="242.60"/><line x1="219.89" y1="174.34" x2="219.19" y2="172.57"/><line x1="227.53" y1="127.16" x2="222.62" y2="120.42"/><line x1="270.33" y1="197.02" x2="269.88" y2="196.54"/><line x1="259.66" y1="190.93" x2="227.58" y2="190.94"/><line x1="183.00" y1="95.23" x2="183.47" y2="94.92"/><line x1="328.83" y1="138.97" x2="329.40" y2="136.16"/><line x1="325.81" y1="102.25" x2="346.89" y2="92.03"/><line x1="205.75" y1="254.82" x2="204.89" y2="254.80"/><line x1="232.81" y1="216.97" x2="232.88" y2="218.68"/><line x1="167.57" y1="243.64" x2="161.17" y2="252.75"/><line x1="222.95" y1="256.64" x2="292.25" y2="325.76"/><line x1="255.44" y1="128.15" x2="255.19" y2="128.82"/><line x1="173.80" y1="246.64" x2="170.41" y2="244.99"/><line x1="222.95" y1="256.64" x2="298.97" y2="320.77"/><line x1="243.94" y1="145.82" x2="263.05" y2="154.84"/><line x1="167.57" y1="243.64" x2="158.83" y2="247.63"/><line x1="264.74" y1="314.44" x2="264.10" y2="313.50"/><line x1="317.10" y1="186.41" x2="340.15" y2="195.17"/><line x1="243.94" y1="145.82" x2="260.92" y2="161.35"/><line x1="222.95" y1="256.64" x2="299.86" y2="311.96"/><line x1="183.47" y1="94.92" x2="184.02" y2="94.63"/><line x1="226.58" y1="189.31" x2="260.20" y2="167.80"/><line x1="243.38" y1="283.83" x2="243.00" y2="283.84"/><line x1="346.89" y1="92.03" x2="324.98" y2="100.89"/><line x1="307.24" y1="94.40" x2="301.92" y2="78.26"/><line x1="250.07" y1="138.54" x2="249.19" y2="139.74"/><line x1="171.81" y1="261.31" x2="170.99" y2="260.33"/><line x1="216.40" y1="163.33" x2="235.50" y2="137.53"/><line x1="265.83" y1="315.78" x2="269.71" y2="319.65"/><line x1="263.05" y1="154.84" x2="262.95" y2="155.70"/><line x1="193.95" y1="124.89" x2="192.36" y2="121.82"/><line x1="340.15" y1="195.17" x2="319.02" y2="182.80"/><line x1="222.95" y1="256.64" x2="246.05" y2="285.01"/><line x1="298.20" y1="306.08" x2="297.95" y2="305.36"/><line x1="330.70" y1="125.52" x2="330.68" y2="123.81"/><line x1="323.17" y1="98.53" x2="322.17" y2="97.54"/><line x1="243.00" y1="283.84" x2="242.62" y2="283.88"/><line x1="343.40" y1="187.28" x2="346.36" y2="179.13"/><line x1="222.95" y1="256.64" x2="242.62" y2="283.88"/><line x1="269.51" y1="214.19" x2="269.86" y2="214.94"/><line x1="301.92" y1="78.26" x2="304.65" y2="95.10"/><line x1="297.89" y1="254.41" x2="282.76" y2="227.60"/><line x1="254.20" y1="131.11" x2="266.84" y2="140.53"/><line x1="178.13" y1="269.73" x2="177.28" y2="268.73"/><line x1="158.74" y1="244.48" x2="158.81" y2="243.98"/><line x1="242.77" y1="145.31" x2="216.40" y2="163.33"/><line x1="346.36" y1="179.13" x2="326.75" y2="164.16"/><line x1="259.79" y1="166.34" x2="217.50" y2="167.66"/><line x1="351.43" y1="162.02" x2="326.45" y2="150.44"/><line x1="192.36" y1="121.82" x2="213.47" y2="107.95"/><line x1="330.68" y1="123.81" x2="330.64" y2="122.15"/><line x1="187.58" y1="93.35" x2="188.47" y2="93.13"/><line x1="247.29" y1="286.14" x2="251.65" y2="290.25"/><line x1="202.06" y1="280.59" x2="206.71" y2="254.88"/><line x1="297.95" y1="305.36" x2="224.83" y2="256.53"/><line x1="268.70" y1="138.71" x2="255.64" y2="127.52"/><line x1="202.06" y1="280.59" x2="198.47" y2="255.93"/><line x1="198.88" y1="255.91" x2="198.47" y2="255.93"/><line x1="266.84" y1="140.53" x2="253.78" y2="131.99"/><line x1="262.11" y1="158.70" x2="261.69" y2="159.56"/><line x1="480.00" y1="32.02" x2="447.51" y2="32.02"/><line x1="291.71" y1="259.70" x2="281.07" y2="228.52"/><line x1="259.66" y1="190.93" x2="260.87" y2="169.47"/><line x1="286.06" y1="225.06" x2="287.36" y2="223.90"/><line x1="287.18" y1="325.56" x2="289.66" y2="325.71"/><line x1="351.92" y1="113.86" x2="329.95" y2="114.48"/><line x1="259.66" y1="190.93" x2="230.89" y2="196.82"/><line x1="315.10" y1="76.01" x2="309.87" y2="93.98"/><line x1="188.47" y1="93.13" x2="194.32" y2="93.70"/><line x1="339.57" y1="81.93" x2="322.17" y2="97.54"/><line x1="265.47" y1="142.11" x2="265.12" y2="142.58"/><line x1="234.79" y1="251.91" x2="289.53" y2="266.38"/><line x1="173.80" y1="246.64" x2="167.66" y2="257.39"/><line x1="167.57" y1="243.64" x2="159.78" y2="250.78"/><line x1="309.36" y1="243.05" x2="291.85" y2="219.52"/><line x1="261.69" y1="159.56" x2="261.29" y2="160.45"/><line x1="222.95" y1="256.64" x2="295.98" y2="324.77"/><line x1="243.94" y1="145.82" x2="262.50" y2="157.76"/><line x1="265.35" y1="191.36" x2="264.91" y2="191.03"/><line x1="279.41" y1="228.79" x2="279.80" y2="228.83"/><line x1="325.46" y1="167.97" x2="326.75" y2="164.16"/><line x1="296.78" y1="301.67" x2="228.10" y2="256.07"/><line x1="243.94" y1="145.82" x2="259.66" y2="165.11"/><line x1="320.04" y1="95.92" x2="326.89" y2="75.62"/><line x1="266.84" y1="206.13" x2="267.10" y2="206.87"/><line x1="216.34" y1="285.84" x2="215.89" y2="285.81"/><line x1="275.31" y1="98.94" x2="274.07" y2="100.35"/><line x1="159.66" y1="242.08" x2="159.92" y2="241.82"/><line x1="216.40" y1="163.33" x2="199.42" y2="134.91"/><line x1="265.83" y1="315.78" x2="276.40" y2="323.31"/><line x1="326.10" y1="161.20" x2="325.94" y2="160.35"/><line x1="186.40" y1="110.63" x2="185.59" y2="109.29"/><line x1="270.77" y1="197.44" x2="270.33" y2="197.02"/><line x1="228.10" y1="256.07" x2="229.51" y2="255.72"/><line x1="233.13" y1="201.64" x2="233.49" y2="202.68"/><line x1="222.95" y1="256.64" x2="244.51" y2="284.09"/><line x1="269.49" y1="182.92" x2="268.00" y2="180.77"/><line x1="267.38" y1="109.13" x2="289.74" y2="105.21"/><line x1="184.02" y1="274.95" x2="183.17" y2="274.35"/><line x1="232.73" y1="216.48" x2="232.81" y2="216.97"/><line x1="289.72" y1="268.38" x2="289.88" y2="269.43"/><line x1="252.21" y1="135.01" x2="265.12" y2="142.58"/><line x1="259.79" y1="166.34" x2="259.66" y2="165.11"/><line x1="351.43" y1="162.02" x2="325.78" y2="159.45"/><line x1="315.06" y1="189.99" x2="317.10" y2="186.41"/><line x1="296.72" y1="324.22" x2="297.40" y2="323.55"/><line x1="351.23" y1="106.66" x2="351.04" y2="104.95"/><line x1="247.29" y1="286.14" x2="247.72" y2="286.61"/><line x1="260.87" y1="169.47" x2="226.58" y2="189.31"/><line x1="252.44" y1="290.94" x2="282.54" y2="324.96"/><line x1="202.06" y1="280.59" x2="202.21" y2="255.36"/><line x1="177.73" y1="248.59" x2="168.18" y2="257.72"/><line x1="268.70" y1="138.71" x2="268.02" y2="139.34"/><line x1="162.07" y1="253.48" x2="167.57" y2="243.64"/><line x1="279.80" y1="228.83" x2="280.38" y2="228.75"/><line x1="268.31" y1="318.47" x2="267.01" y2="317.18"/><line x1="319.64" y1="230.67" x2="324.33" y2="224.09"/><line x1="297.40" y1="323.55" x2="298.00" y2="322.75"/><line x1="263.17" y1="190.11" x2="262.78" y2="189.98"/><line x1="281.07" y1="228.52" x2="297.89" y2="254.41"/><line x1="291.71" y1="259.70" x2="297.89" y2="254.41"/><line x1="329.09" y1="110.35" x2="328.72" y2="109.05"/><line x1="295.86" y1="289.26" x2="295.26" y2="287.11"/><line x1="259.66" y1="190.93" x2="259.74" y2="191.34"/><line x1="234.06" y1="207.11" x2="264.74" y2="201.31"/><line x1="267.97" y1="209.74" x2="268.16" y2="210.45"/><line x1="273.59" y1="222.23" x2="235.44" y2="248.77"/><line x1="222.95" y1="256.64" x2="289.66" y2="325.71"/><line x1="264.20" y1="144.19" x2="264.08" y2="144.53"/><line x1="173.80" y1="246.64" x2="165.65" y2="256.03"/><line x1="300.12" y1="210.49" x2="302.92" y2="207.19"/><line x1="267.38" y1="193.57" x2="266.99" y2="193.05"/><line x1="243.94" y1="145.82" x2="261.29" y2="160.45"/><line x1="233.97" y1="204.51" x2="261.56" y2="195.67"/><line x1="194.32" y1="255.33" x2="184.88" y2="275.49"/><line x1="295.26" y1="287.11" x2="294.49" y2="284.73"/><line x1="264.74" y1="201.31" x2="265.16" y2="202.16"/><line x1="233.28" y1="223.79" x2="269.51" y2="214.19"/><line x1="290.36" y1="271.64" x2="290.64" y2="272.80"/><line x1="216.40" y1="163.33" x2="238.55" y2="141.16"/><line x1="265.83" y1="315.78" x2="267.01" y2="317.18"/><line x1="266.99" y1="193.05" x2="266.60" y2="192.57"/><line x1="327.83" y1="106.55" x2="327.31" y2="105.34"/><line x1="222.95" y1="256.64" x2="246.46" y2="285.35"/><line x1="229.37" y1="194.01" x2="230.16" y2="195.45"/><line x1="210.19" y1="255.28" x2="208.93" y2="255.11"/><line x1="323.17" y1="98.53" x2="339.57" y2="81.93"/><line x1="269.51" y1="214.19" x2="233.47" y2="225.48"/><line x1="267.38" y1="109.13" x2="280.64" y2="117.57"/><line x1="297.89" y1="254.41" x2="281.86" y2="228.14"/><line x1="259.79" y1="166.34" x2="243.94" y2="145.82"/><line x1="230.77" y1="255.30" x2="296.31" y2="291.18"/><line x1="299.94" y1="315.23" x2="299.98" y2="313.52"/><line x1="346.36" y1="179.13" x2="325.46" y2="167.97"/><line x1="351.43" y1="162.02" x2="326.09" y2="152.80"/><line x1="349.57" y1="98.75" x2="348.31" y2="95.25"/><line x1="230.16" y1="195.45" x2="230.89" y2="196.82"/><line x1="247.29" y1="286.14" x2="250.89" y2="289.58"/><line x1="202.06" y1="280.59" x2="207.77" y2="254.97"/><line x1="233.86" y1="208.57" x2="266.56" y2="205.38"/><line x1="191.71" y1="254.59" x2="178.98" y2="270.66"/><line x1="163.54" y1="241.84" x2="159.23" y2="242.72"/><line x1="276.51" y1="97.65" x2="275.31" y2="98.94"/><line x1="332.81" y1="210.16" x2="336.63" y2="202.80"/><line x1="354.44" y1="148.28" x2="330.68" y2="123.81"/><line x1="480.00" y1="32.02" x2="480.00" y2="64.50"/><line x1="291.71" y1="259.70" x2="280.38" y2="228.75"/><line x1="259.66" y1="190.93" x2="261.81" y2="171.35"/><line x1="265.78" y1="191.72" x2="265.35" y2="191.36"/><line x1="187.30" y1="112.02" x2="186.40" y2="110.63"/><line x1="351.92" y1="113.86" x2="330.14" y2="115.93"/><line x1="315.10" y1="76.01" x2="312.53" y2="93.84"/><line x1="266.56" y1="205.38" x2="266.84" y2="206.13"/><line x1="270.58" y1="216.36" x2="270.95" y2="217.04"/><line x1="265.47" y1="142.11" x2="252.21" y2="135.01"/><line x1="480.00" y1="479.91" x2="480.00" y2="447.42"/><line x1="309.36" y1="243.05" x2="290.26" y2="221.13"/><line x1="243.94" y1="145.82" x2="262.67" y2="157.16"/><line x1="265.35" y1="191.36" x2="270.72" y2="184.73"/><line x1="209.23" y1="283.97" x2="210.19" y2="255.28"/><line x1="248.28" y1="287.16" x2="247.29" y2="286.14"/><line x1="259.86" y1="191.79" x2="233.13" y2="201.64"/><line x1="320.04" y1="95.92" x2="329.73" y2="76.33"/><line x1="194.32" y1="255.33" x2="191.71" y2="254.59"/><line x1="254.91" y1="129.54" x2="254.58" y2="130.30"/><line x1="270.95" y1="217.04" x2="271.33" y2="217.73"/><line x1="289.60" y1="267.37" x2="289.72" y2="268.38"/><line x1="216.40" y1="163.33" x2="222.62" y2="120.42"/><line x1="292.03" y1="277.89" x2="292.45" y2="279.28"/><line x1="326.10" y1="161.20" x2="351.43" y2="162.02"/><line x1="233.13" y1="201.64" x2="260.03" y2="192.31"/><line x1="233.51" y1="210.43" x2="267.77" y2="209.03"/><line x1="170.13" y1="259.35" x2="169.24" y2="258.37"/><line x1="268.02" y1="139.34" x2="267.41" y2="139.95"/><line x1="267.38" y1="109.13" x2="292.14" y2="102.83"/><line x1="263.14" y1="153.88" x2="263.05" y2="154.84"/><line x1="447.51" y1="479.91" x2="480.00" y2="447.42"/><line x1="224.83" y1="256.53" x2="297.39" y2="303.66"/><line x1="182.78" y1="103.20" x2="182.45" y2="102.12"/><line x1="242.25" y1="283.97" x2="220.12" y2="256.66"/><line x1="233.98" y1="207.80" x2="233.86" y2="208.57"/><line x1="351.23" y1="106.66" x2="329.09" y2="110.35"/><line x1="213.38" y1="285.29" x2="209.23" y2="283.97"/><line x1="218.18" y1="256.51" x2="217.05" y2="256.38"/><line x1="267.77" y1="209.03" x2="267.97" y2="209.74"/><line x1="177.73" y1="248.59" x2="168.70" y2="258.05"/><line x1="292.14" y1="102.83" x2="289.74" y2="105.21"/><line x1="264.36" y1="143.83" x2="264.20" y2="144.19"/><line x1="354.44" y1="148.28" x2="329.87" y2="133.57"/><line x1="268.31" y1="318.47" x2="265.83" y2="315.78"/><line x1="273.03" y1="188.68" x2="271.92" y2="198.46"/><line x1="319.64" y1="230.67" x2="300.12" y2="210.49"/><line x1="354.44" y1="148.28" x2="352.18" y2="116.94"/><line x1="182.45" y1="102.12" x2="182.17" y2="101.08"/><line x1="263.17" y1="190.11" x2="268.00" y2="180.77"/><line x1="273.03" y1="188.68" x2="267.91" y2="194.25"/><line x1="320.40" y1="75.08" x2="319.90" y2="75.14"/><line x1="178.98" y1="270.66" x2="178.13" y2="269.73"/><line x1="273.59" y1="222.23" x2="232.81" y2="236.16"/><line x1="264.20" y1="144.19" x2="250.07" y2="138.54"/><line x1="349.04" y1="170.71" x2="326.26" y2="162.02"/><line x1="216.70" y1="164.71" x2="216.40" y2="163.33"/><line x1="189.53" y1="116.11" x2="188.28" y2="113.46"/><line x1="299.82" y1="316.81" x2="299.94" y2="315.23"/><line x1="261.73" y1="189.80" x2="259.66" y2="190.93"/><line x1="326.09" y1="152.80" x2="326.45" y2="150.44"/><line x1="252.44" y1="290.94" x2="222.95" y2="256.64"/><line x1="233.97" y1="204.51" x2="261.17" y2="194.90"/><line x1="194.32" y1="255.33" x2="185.73" y2="275.99"/><line x1="319.90" y1="75.14" x2="319.25" y2="75.23"/><line x1="289.53" y1="266.38" x2="289.60" y2="267.37"/><line x1="255.99" y1="125.88" x2="278.48" y2="121.37"/><line x1="253.31" y1="132.93" x2="252.78" y2="133.94"/><line x1="159.78" y1="250.78" x2="159.52" y2="250.19"/><line x1="310.58" y1="197.01" x2="312.88" y2="193.52"/><line x1="216.40" y1="163.33" x2="240.97" y2="143.75"/><line x1="184.88" y1="275.49" x2="184.02" y2="274.95"/><line x1="264.50" y1="175.77" x2="263.02" y2="173.45"/><line x1="327.83" y1="106.55" x2="349.57" y2="98.75"/><line x1="181.75" y1="250.54" x2="177.73" y2="248.59"/><line x1="210.19" y1="255.28" x2="202.06" y2="280.59"/><line x1="278.48" y1="121.37" x2="268.70" y2="138.71"/><line x1="267.38" y1="109.13" x2="282.85" y2="114.06"/><line x1="263.14" y1="153.88" x2="248.25" y2="140.94"/><line x1="276.40" y1="323.31" x2="278.34" y2="323.96"/><line x1="230.77" y1="255.30" x2="296.58" y2="292.87"/><line x1="181.82" y1="96.64" x2="182.01" y2="96.25"/><line x1="349.57" y1="98.75" x2="327.31" y2="105.34"/><line x1="191.71" y1="254.59" x2="179.82" y2="271.52"/><line x1="315.21" y1="94.07" x2="315.10" y2="76.01"/><line x1="163.54" y1="241.84" x2="159.06" y2="243.10"/><line x1="174.71" y1="265.34" x2="174.04" y2="264.32"/><line x1="248.25" y1="140.94" x2="247.25" y2="142.15"/><line x1="213.38" y1="285.29" x2="218.18" y2="256.51"/><line x1="222.62" y1="120.42" x2="199.42" y2="134.91"/><line x1="354.44" y1="148.28" x2="330.70" y2="125.52"/><line x1="299.79" y1="311.55" x2="299.70" y2="311.13"/><line x1="273.03" y1="188.68" x2="270.33" y2="197.02"/><line x1="294.57" y1="100.72" x2="271.50" y2="103.52"/><line x1="324.98" y1="100.89" x2="343.55" y2="86.42"/><line x1="244.88" y1="284.25" x2="244.51" y2="284.09"/><line x1="273.03" y1="188.68" x2="272.84" y2="188.18"/><line x1="232.98" y1="220.39" x2="233.11" y2="222.10"/><line x1="289.63" y1="263.65" x2="291.71" y2="259.70"/><line x1="315.10" y1="76.01" x2="313.90" y2="93.90"/><line x1="268.51" y1="211.86" x2="232.81" y2="216.97"/><line x1="234.06" y1="207.11" x2="233.98" y2="207.80"/><line x1="158.74" y1="246.96" x2="158.69" y2="246.27"/><line x1="291.28" y1="275.26" x2="291.64" y2="276.56"/><line x1="282.54" y1="324.96" x2="284.81" y2="325.31"/><line x1="199.42" y1="134.91" x2="197.48" y2="131.44"/><line x1="480.00" y1="479.91" x2="447.51" y2="479.91"/><line x1="328.72" y1="109.05" x2="328.29" y2="107.78"/><line x1="209.23" y1="283.97" x2="211.55" y2="255.49"/><line x1="203.47" y1="255.10" x2="202.21" y2="255.36"/><line x1="268.83" y1="212.66" x2="269.17" y2="213.43"/><line x1="254.91" y1="129.54" x2="268.02" y2="139.34"/><line x1="251.65" y1="290.25" x2="252.44" y2="290.94"/><line x1="263.40" y1="312.37" x2="262.64" y2="311.05"/><line x1="320.82" y1="179.15" x2="322.49" y2="175.46"/><line x1="222.95" y1="256.64" x2="299.33" y2="319.58"/><line x1="184.61" y1="94.35" x2="185.27" y2="94.09"/><line x1="263.58" y1="190.28" x2="263.17" y2="190.11"/><line x1="265.55" y1="202.99" x2="265.91" y2="203.80"/><line x1="345.30" y1="89.08" x2="343.55" y2="86.42"/><line x1="253.78" y1="131.99" x2="253.31" y2="132.93"/><line x1="278.62" y1="228.51" x2="279.02" y2="228.69"/><line x1="273.21" y1="221.43" x2="273.59" y2="222.23"/><line x1="170.13" y1="259.35" x2="177.73" y2="248.59"/><line x1="262.82" y1="156.47" x2="262.67" y2="157.16"/><line x1="263.14" y1="153.88" x2="243.94" y2="145.82"/><line x1="224.83" y1="256.53" x2="297.68" y2="304.55"/><line x1="230.77" y1="255.30" x2="294.49" y2="284.73"/><line x1="316.49" y1="94.36" x2="315.21" y2="94.07"/><line x1="322.17" y1="97.54" x2="334.96" y2="78.57"/><line x1="233.98" y1="207.80" x2="266.25" y2="204.60"/><line x1="260.81" y1="194.17" x2="233.97" y2="204.51"/><line x1="242.25" y1="283.97" x2="220.93" y2="256.68"/><line x1="269.86" y1="214.94" x2="270.22" y2="215.66"/><line x1="181.71" y1="97.04" x2="181.82" y2="96.64"/><line x1="266.33" y1="141.08" x2="265.87" y2="141.61"/><line x1="158.92" y1="243.52" x2="159.06" y2="243.10"/><line x1="354.44" y1="148.28" x2="329.40" y2="136.16"/><line x1="326.75" y1="164.16" x2="326.58" y2="163.49"/><line x1="273.03" y1="188.68" x2="272.24" y2="198.72"/><line x1="219.21" y1="256.60" x2="218.18" y2="256.51"/><line x1="354.44" y1="148.28" x2="330.45" y2="118.95"/><line x1="209.88" y1="103.24" x2="186.76" y2="93.59"/><line x1="273.03" y1="188.68" x2="268.42" y2="194.89"/><line x1="294.57" y1="100.72" x2="292.14" y2="102.83"/><line x1="289.63" y1="263.65" x2="278.20" y2="228.27"/><line x1="233.69" y1="227.15" x2="233.94" y2="228.83"/><line x1="268.51" y1="211.86" x2="232.90" y2="213.57"/><line x1="282.54" y1="324.96" x2="264.10" y2="313.50"/><line x1="292.25" y1="325.76" x2="293.29" y2="325.70"/><line x1="349.04" y1="170.71" x2="326.43" y2="162.78"/><line x1="329.95" y1="114.48" x2="329.71" y2="113.07"/><line x1="261.73" y1="189.80" x2="264.50" y2="175.77"/><line x1="233.70" y1="209.46" x2="267.33" y2="207.59"/><line x1="233.94" y1="228.83" x2="273.59" y2="222.23"/><line x1="232.90" y1="213.57" x2="232.78" y2="214.45"/><line x1="289.53" y1="266.38" x2="234.27" y2="252.77"/><line x1="310.58" y1="197.01" x2="332.81" y2="210.16"/><line x1="233.49" y1="202.68" x2="233.77" y2="203.63"/><line x1="351.68" y1="111.12" x2="351.45" y2="108.72"/><line x1="264.50" y1="175.77" x2="259.66" y2="190.93"/><line x1="326.89" y1="75.62" x2="323.90" y2="75.20"/><line x1="234.13" y1="206.05" x2="262.98" y2="198.28"/><line x1="182.33" y1="273.72" x2="181.49" y2="273.03"/><line x1="181.75" y1="250.54" x2="170.13" y2="259.35"/><line x1="289.88" y1="269.43" x2="233.62" y2="253.54"/><line x1="264.82" y1="143.02" x2="264.57" y2="143.44"/><line x1="275.96" y1="226.03" x2="276.43" y2="226.61"/><line x1="274.34" y1="197.91" x2="272.54" y2="198.93"/><line x1="293.53" y1="217.75" x2="295.31" y2="215.82"/><line x1="264.46" y1="190.75" x2="264.01" y2="190.49"/><line x1="269.88" y1="196.54" x2="269.41" y2="196.04"/><line x1="329.40" y1="136.16" x2="329.87" y2="133.57"/><line x1="233.28" y1="211.51" x2="233.07" y2="212.59"/><line x1="318.91" y1="95.28" x2="317.72" y2="94.76"/><line x1="262.98" y1="198.28" x2="263.53" y2="199.24"/><line x1="191.71" y1="254.59" x2="180.65" y2="272.30"/><line x1="232.88" y1="218.68" x2="232.98" y2="220.39"/><line x1="163.54" y1="241.84" x2="158.92" y2="243.52"/><line x1="255.19" y1="128.82" x2="254.91" y2="129.54"/><line x1="324.33" y1="224.09" x2="328.72" y2="217.26"/><line x1="290.95" y1="274.01" x2="291.28" y2="275.26"/><line x1="209.88" y1="103.24" x2="181.80" y2="99.17"/><line x1="219.21" y1="256.60" x2="215.41" y2="285.75"/><line x1="269.41" y1="196.04" x2="268.93" y2="195.48"/><line x1="185.42" y1="252.19" x2="181.75" y2="250.54"/><line x1="209.88" y1="103.24" x2="183.47" y2="94.92"/><line x1="273.03" y1="188.68" x2="270.77" y2="197.44"/><line x1="260.20" y1="167.80" x2="259.79" y2="166.34"/><line x1="294.57" y1="100.72" x2="272.80" y2="101.88"/><line x1="324.98" y1="100.89" x2="345.30" y2="89.08"/><line x1="209.88" y1="103.24" x2="206.94" y2="99.55"/><line x1="273.03" y1="188.68" x2="266.60" y2="192.57"/><line x1="235.44" y1="248.77" x2="275.02" y2="224.70"/><line x1="232.98" y1="220.39" x2="268.83" y2="212.66"/><line x1="289.63" y1="263.65" x2="289.55" y2="264.52"/><line x1="215.81" y1="256.20" x2="214.46" y2="255.99"/><line x1="268.51" y1="211.86" x2="232.73" y2="216.48"/><line x1="162.34" y1="241.40" x2="160.21" y2="241.62"/><line x1="262.95" y1="155.70" x2="262.82" y2="156.47"/><line x1="282.54" y1="324.96" x2="260.93" y2="307.88"/><line x1="319.02" y1="182.80" x2="320.82" y2="179.15"/><line x1="328.72" y1="109.05" x2="350.68" y2="102.54"/><line x1="259.79" y1="166.34" x2="219.89" y2="174.34"/><line x1="233.94" y1="228.83" x2="271.71" y2="218.43"/><line x1="290.10" y1="270.51" x2="290.36" y2="271.64"/><line x1="265.16" y1="202.16" x2="265.55" y2="202.99"/><line x1="209.23" y1="283.97" x2="213.01" y2="255.74"/><line x1="188.75" y1="253.53" x2="176.43" y2="267.67"/><line x1="304.65" y1="95.10" x2="302.08" y2="96.09"/><line x1="165.28" y1="242.60" x2="163.54" y2="241.84"/><line x1="278.20" y1="228.27" x2="278.62" y2="228.51"/><line x1="266.60" y1="192.57" x2="272.84" y2="188.18"/><line x1="234.09" y1="205.31" x2="234.13" y2="206.05"/><line x1="330.64" y1="122.15" x2="330.56" y2="120.53"/><line x1="318.44" y1="75.37" x2="317.48" y2="75.54"/><line x1="265.55" y1="202.99" x2="233.98" y2="207.80"/><line x1="308.15" y1="200.45" x2="310.58" y2="197.01"/><line x1="231.87" y1="254.80" x2="230.77" y2="255.30"/><line x1="253.78" y1="131.99" x2="266.33" y2="141.08"/><line x1="287.36" y1="223.90" x2="288.77" y2="222.59"/><line x1="272.84" y1="188.18" x2="272.39" y2="187.36"/><line x1="275.50" y1="225.40" x2="275.96" y2="226.03"/><line x1="348.31" y1="95.25" x2="346.89" y2="92.03"/><line x1="322.17" y1="97.54" x2="337.34" y2="80.11"/><line x1="196.57" y1="255.78" x2="194.32" y2="255.33"/><line x1="269.86" y1="214.94" x2="233.69" y2="227.15"/><line x1="336.63" y1="202.80" x2="340.15" y2="195.17"/><line x1="209.88" y1="103.24" x2="183.19" y2="104.33"/><line x1="270.72" y1="184.73" x2="264.46" y2="190.75"/><line x1="326.75" y1="164.16" x2="349.04" y2="170.71"/><line x1="209.88" y1="103.24" x2="181.82" y2="96.64"/><line x1="206.94" y1="99.55" x2="204.66" y2="96.89"/><line x1="231.55" y1="198.13" x2="232.16" y2="199.37"/><line x1="232.82" y1="254.22" x2="290.95" y2="274.01"/><line x1="209.88" y1="103.24" x2="185.98" y2="93.83"/><line x1="294.57" y1="100.72" x2="267.38" y2="109.13"/><line x1="219.21" y1="256.60" x2="213.38" y2="285.29"/><line x1="289.63" y1="263.65" x2="277.77" y2="227.96"/><line x1="232.82" y1="254.22" x2="231.87" y2="254.80"/><line x1="274.07" y1="100.35" x2="272.80" y2="101.88"/><line x1="235.44" y1="248.77" x2="276.88" y2="227.13"/><line x1="167.14" y1="257.05" x2="166.64" y2="256.72"/><line x1="289.52" y1="265.44" x2="289.53" y2="266.38"/><line x1="162.34" y1="241.40" x2="161.69" y2="241.25"/><line x1="282.54" y1="324.96" x2="264.74" y2="314.44"/><line x1="268.51" y1="211.86" x2="268.83" y2="212.66"/><line x1="229.51" y1="255.72" x2="230.77" y2="255.30"/><line x1="260.03" y1="192.31" x2="260.25" y2="192.87"/><line x1="329.95" y1="114.48" x2="351.68" y2="111.12"/><line x1="215.41" y1="285.75" x2="214.93" y2="285.67"/><line x1="233.70" y1="209.46" x2="267.10" y2="206.87"/><line x1="233.94" y1="228.83" x2="273.21" y2="221.43"/><line x1="172.59" y1="262.31" x2="171.81" y2="261.31"/><line x1="184.02" y1="94.63" x2="184.61" y2="94.35"/><line x1="265.12" y1="142.58" x2="264.82" y2="143.02"/><line x1="217.72" y1="113.67" x2="213.47" y2="107.95"/><line x1="160.21" y1="241.62" x2="160.54" y2="241.45"/><line x1="291.85" y1="219.52" x2="293.53" y2="217.75"/><line x1="184.86" y1="107.98" x2="184.22" y2="106.72"/><line x1="277.77" y1="227.96" x2="278.20" y2="228.27"/><line x1="170.99" y1="260.33" x2="170.13" y2="259.35"/><line x1="233.49" y1="202.68" x2="260.51" y2="193.50"/><line x1="326.89" y1="75.62" x2="318.91" y2="95.28"/><line x1="182.33" y1="273.72" x2="191.71" y2="254.59"/><line x1="158.69" y1="245.01" x2="158.74" y2="244.48"/><line x1="242.62" y1="283.88" x2="242.25" y2="283.97"/><line x1="274.34" y1="197.91" x2="273.03" y2="199.23"/><line x1="298.00" y1="322.75" x2="298.53" y2="321.82"/><line x1="268.00" y1="180.77" x2="262.41" y2="189.88"/><line x1="325.94" y1="160.35" x2="325.78" y2="159.45"/><line x1="351.04" y1="104.95" x2="350.85" y2="103.57"/><line x1="248.88" y1="287.73" x2="249.51" y2="288.33"/><line x1="158.81" y1="243.98" x2="158.92" y2="243.52"/><line x1="233.28" y1="211.51" x2="268.34" y2="211.16"/><line x1="213.47" y1="107.95" x2="190.89" y2="118.90"/><line x1="289.74" y1="105.21" x2="287.40" y2="107.88"/><line x1="161.60" y1="253.14" x2="161.17" y2="252.75"/><line x1="209.88" y1="103.24" x2="186.40" y2="110.63"/><line x1="324.33" y1="224.09" x2="305.60" y2="203.84"/><line x1="233.47" y1="225.48" x2="269.86" y2="214.94"/><line x1="218.57" y1="170.87" x2="218.00" y2="169.24"/><line x1="209.88" y1="103.24" x2="181.96" y2="100.10"/><line x1="198.47" y1="255.93" x2="196.57" y2="255.78"/><line x1="219.21" y1="256.60" x2="215.89" y2="285.81"/><line x1="185.42" y1="252.19" x2="172.59" y2="262.31"/><line x1="209.88" y1="103.24" x2="183.00" y2="95.23"/><line x1="294.57" y1="100.72" x2="274.07" y2="100.35"/><line x1="215.81" y1="256.20" x2="209.23" y2="283.97"/><line x1="289.66" y1="325.71" x2="292.25" y2="325.76"/><line x1="222.95" y1="256.64" x2="299.94" y2="315.23"/><line x1="209.88" y1="103.24" x2="194.32" y2="93.70"/><line x1="235.44" y1="248.77" x2="274.55" y2="223.93"/><line x1="194.32" y1="93.70" x2="206.94" y2="99.55"/><line x1="289.63" y1="263.65" x2="279.02" y2="228.69"/><line x1="162.34" y1="241.40" x2="159.92" y2="241.82"/><line x1="222.95" y1="256.64" x2="298.66" y2="307.31"/><line x1="181.96" y1="100.10" x2="181.80" y2="99.17"/><line x1="167.66" y1="257.39" x2="167.14" y2="257.05"/><line x1="261.56" y1="195.67" x2="262.00" y2="196.50"/><line x1="261.29" y1="160.45" x2="260.92" y2="161.35"/><line x1="233.94" y1="228.83" x2="271.33" y2="217.73"/><line x1="165.28" y1="242.60" x2="158.69" y2="245.01"/><line x1="234.27" y1="252.77" x2="289.88" y2="269.43"/><line x1="188.75" y1="253.53" x2="177.28" y2="268.73"/><line x1="264.08" y1="144.53" x2="264.01" y2="144.84"/><line x1="215.89" y1="285.81" x2="215.41" y2="285.75"/><line x1="327.49" y1="145.04" x2="328.16" y2="142.01"/><line x1="301.92" y1="78.26" x2="294.57" y2="100.72"/><line x1="327.31" y1="105.34" x2="326.58" y2="103.73"/><line x1="246.87" y1="285.73" x2="246.46" y2="285.35"/><line x1="230.89" y1="196.82" x2="231.55" y2="198.13"/><line x1="159.92" y1="241.82" x2="160.21" y2="241.62"/><line x1="185.59" y1="109.29" x2="184.86" y2="107.98"/><line x1="159.30" y1="249.57" x2="159.10" y2="248.93"/><line x1="312.88" y1="193.52" x2="315.06" y2="189.99"/><line x1="238.55" y1="141.16" x2="235.50" y2="137.53"/><line x1="480.00" y1="64.50" x2="447.51" y2="32.02"/><line x1="183.17" y1="274.35" x2="182.33" y2="273.72"/><line x1="317.72" y1="94.76" x2="319.25" y2="75.23"/><line x1="348.31" y1="95.25" x2="325.81" y2="102.25"/><line x1="208.93" y1="255.11" x2="207.77" y2="254.97"/><line x1="276.88" y1="227.13" x2="277.34" y2="227.58"/><line x1="280.38" y1="324.51" x2="282.54" y2="324.96"/><line x1="336.63" y1="202.80" x2="317.10" y2="186.41"/><line x1="209.88" y1="103.24" x2="183.66" y2="105.50"/><line x1="167.57" y1="243.64" x2="161.60" y2="253.14"/><line x1="270.72" y1="184.73" x2="264.91" y2="191.03"/><line x1="209.88" y1="103.24" x2="181.71" y2="97.04"/><line x1="234.12" y1="206.53" x2="234.06" y2="207.11"/><line x1="219.19" y1="172.57" x2="218.57" y2="170.87"/><line x1="167.57" y1="243.64" x2="158.95" y2="248.28"/><line x1="222.95" y1="256.64" x2="298.53" y2="321.82"/><line x1="209.88" y1="103.24" x2="185.27" y2="94.09"/><line x1="233.62" y1="253.54" x2="290.64" y2="272.80"/><line x1="250.91" y1="137.35" x2="250.07" y2="138.54"/><line x1="173.34" y1="263.31" x2="172.59" y2="262.31"/><line x1="222.95" y1="256.64" x2="299.92" y2="312.36"/><line x1="235.44" y1="248.77" x2="276.43" y2="226.61"/><line x1="303.78" y1="248.86" x2="284.86" y2="226.06"/><line x1="217.05" y1="256.38" x2="215.81" y2="256.20"/><line x1="195.66" y1="128.09" x2="193.95" y2="124.89"/><line x1="162.34" y1="241.40" x2="161.27" y2="241.27"/><line x1="222.95" y1="256.64" x2="224.83" y2="256.53"/><line x1="250.07" y1="138.54" x2="264.01" y2="144.84"/><line x1="343.55" y1="86.42" x2="341.64" y2="84.04"/><line x1="260.03" y1="192.31" x2="233.49" y2="202.68"/><line x1="233.11" y1="222.10" x2="233.28" y2="223.79"/><line x1="182.17" y1="101.08" x2="181.96" y2="100.10"/><line x1="233.94" y1="228.83" x2="272.84" y2="220.65"/><line x1="254.58" y1="130.30" x2="254.20" y2="131.11"/><line x1="265.83" y1="315.78" x2="265.32" y2="315.20"/><line x1="271.71" y1="218.43" x2="272.09" y2="219.15"/><line x1="291.64" y1="276.56" x2="292.03" y2="277.89"/><line x1="222.95" y1="256.64" x2="243.00" y2="283.84"/><line x1="343.40" y1="187.28" x2="324.03" y2="171.74"/><line x1="178.13" y1="269.73" x2="188.75" y2="253.53"/><line x1="324.10" y1="99.65" x2="323.17" y2="98.53"/><line x1="259.79" y1="166.34" x2="218.00" y2="169.24"/><line x1="235.16" y1="250.96" x2="289.55" y2="264.52"/><line x1="268.70" y1="138.71" x2="255.79" y2="126.93"/><line x1="202.06" y1="280.59" x2="198.88" y2="255.91"/><line x1="330.45" y1="118.95" x2="330.32" y2="117.42"/><line x1="268.00" y1="180.77" x2="262.78" y2="189.98"/><line x1="351.04" y1="104.95" x2="328.72" y2="109.05"/><line x1="299.98" y1="313.52" x2="299.98" y2="313.15"/><line x1="283.75" y1="226.90" x2="303.78" y2="248.86"/><line x1="279.02" y1="228.69" x2="291.71" y2="259.70"/><line x1="259.66" y1="190.93" x2="230.16" y2="195.45"/><line x1="209.88" y1="103.24" x2="187.30" y2="112.02"/><line x1="271.69" y1="186.21" x2="270.72" y2="184.73"/><line x1="324.33" y1="224.09" x2="302.92" y2="207.19"/><line x1="297.09" y1="302.71" x2="296.78" y2="301.67"/><line x1="232.68" y1="200.54" x2="233.13" y2="201.64"/><line x1="352.18" y1="116.94" x2="351.92" y2="113.86"/><line x1="234.79" y1="251.91" x2="289.52" y2="265.44"/><line x1="209.88" y1="103.24" x2="182.17" y2="101.08"/><line x1="167.57" y1="243.64" x2="160.08" y2="251.34"/><line x1="222.95" y1="256.64" x2="295.15" y2="325.20"/><line x1="222.95" y1="256.64" x2="299.82" y2="316.81"/><line x1="319.25" y1="75.23" x2="318.44" y2="75.37"/><line x1="232.82" y1="254.22" x2="291.64" y2="276.56"/><line x1="265.87" y1="141.61" x2="265.47" y2="142.11"/><line x1="235.44" y1="248.77" x2="274.07" y2="223.11"/><line x1="233.62" y1="253.54" x2="232.82" y2="254.22"/><line x1="330.14" y1="115.93" x2="329.95" y2="114.48"/><line x1="243.94" y1="145.82" x2="259.94" y2="164.14"/><line x1="226.58" y1="189.31" x2="227.58" y2="190.94"/><line x1="266.84" y1="206.13" x2="233.70" y2="209.46"/><line x1="303.78" y1="248.86" x2="288.77" y2="222.59"/><line x1="271.92" y1="198.46" x2="271.57" y2="198.16"/><line x1="222.95" y1="256.64" x2="299.61" y2="310.71"/><line x1="326.92" y1="147.85" x2="327.49" y2="145.04"/><line x1="321.13" y1="96.67" x2="320.04" y2="95.92"/><line x1="235.38" y1="249.91" x2="235.16" y2="250.96"/><line x1="290.26" y1="221.13" x2="291.85" y2="219.52"/><line x1="233.94" y1="228.83" x2="270.95" y2="217.04"/><line x1="265.83" y1="315.78" x2="274.57" y2="322.56"/><line x1="314.65" y1="236.99" x2="319.64" y2="230.67"/><line x1="222.95" y1="256.64" x2="244.88" y2="284.25"/><line x1="329.73" y1="76.33" x2="326.89" y2="75.62"/><line x1="269.49" y1="182.92" x2="263.17" y2="190.11"/><line x1="271.33" y1="217.73" x2="271.71" y2="218.43"/><line x1="301.92" y1="78.26" x2="297.04" y2="98.90"/><line x1="327.31" y1="105.34" x2="348.31" y2="95.25"/><line x1="299.61" y1="310.71" x2="298.66" y2="307.31"/><line x1="232.72" y1="215.23" x2="232.70" y2="215.91"/><line x1="351.43" y1="162.02" x2="325.94" y2="160.35"/><line x1="259.79" y1="166.34" x2="216.40" y2="163.33"/><line x1="351.43" y1="162.02" x2="354.44" y2="148.28"/><line x1="247.29" y1="286.14" x2="246.87" y2="285.73"/><line x1="202.06" y1="280.59" x2="203.47" y2="255.10"/><line x1="312.88" y1="193.52" x2="336.63" y2="202.80"/><line x1="268.70" y1="138.71" x2="254.91" y2="129.54"/><line x1="202.06" y1="280.59" x2="186.59" y2="276.45"/><line x1="317.72" y1="94.76" x2="319.90" y2="75.14"/><line x1="313.90" y1="93.90" x2="312.53" y2="93.84"/><line x1="276.88" y1="227.13" x2="289.63" y2="263.65"/><line x1="329.09" y1="110.35" x2="351.04" y2="104.95"/><line x1="259.66" y1="190.93" x2="232.68" y2="200.54"/><line x1="267.97" y1="209.74" x2="233.28" y2="211.51"/><line x1="222.95" y1="256.64" x2="282.54" y2="324.96"/><line x1="209.88" y1="103.24" x2="184.22" y2="106.72"/><line x1="222.95" y1="256.64" x2="287.18" y2="325.56"/><line x1="330.23" y1="131.22" x2="330.49" y2="129.09"/><line x1="173.80" y1="246.64" x2="166.15" y2="256.37"/><line x1="234.12" y1="206.53" x2="264.12" y2="200.25"/><line x1="300.12" y1="210.49" x2="324.33" y2="224.09"/><line x1="167.57" y1="243.64" x2="159.10" y2="248.93"/><line x1="222.95" y1="256.64" x2="298.00" y2="322.75"/><line x1="222.95" y1="256.64" x2="299.96" y2="312.76"/><line x1="243.94" y1="145.82" x2="261.69" y2="159.56"/><line x1="158.67" y1="245.58" x2="158.69" y2="245.01"/><line x1="194.32" y1="93.70" x2="202.06" y2="94.63"/><line x1="222.95" y1="256.64" x2="297.95" y2="305.36"/><line x1="296.78" y1="301.67" x2="296.69" y2="294.33"/><line x1="232.81" y1="236.16" x2="235.44" y2="248.77"/><line x1="350.68" y1="102.54" x2="349.57" y2="98.75"/><line x1="159.23" y1="242.72" x2="159.43" y2="242.38"/><line x1="250.07" y1="138.54" x2="264.08" y2="144.53"/><line x1="343.55" y1="86.42" x2="324.10" y2="99.65"/><line x1="233.11" y1="222.10" x2="269.17" y2="213.43"/><line x1="326.45" y1="150.44" x2="326.92" y2="147.85"/><line x1="249.19" y1="139.74" x2="248.25" y2="140.94"/><line x1="222.95" y1="256.64" x2="246.87" y2="285.73"/><line x1="261.17" y1="194.90" x2="261.56" y2="195.67"/><line x1="328.72" y1="217.26" x2="332.81" y2="210.16"/><line x1="265.83" y1="315.78" x2="282.54" y2="324.96"/><line x1="32.16" y1="32.09" x2="32.16" y2="64.58"/><line x1="222.95" y1="256.64" x2="243.38" y2="283.83"/><line x1="343.40" y1="187.28" x2="322.49" y2="175.46"/><line x1="159.52" y1="250.19" x2="159.30" y2="249.57"/><line x1="240.97" y1="143.75" x2="238.55" y2="141.16"/><line x1="259.79" y1="166.34" x2="218.57" y2="170.87"/><line x1="351.43" y1="162.02" x2="325.83" y2="154.93"/><line x1="169.24" y1="258.37" x2="168.70" y2="258.05"/><line x1="231.87" y1="254.80" x2="293.55" y2="282.12"/><line x1="232.78" y1="214.45" x2="232.72" y2="215.23"/><line x1="247.29" y1="286.14" x2="250.18" y2="288.94"/><line x1="202.06" y1="280.59" x2="208.93" y2="255.11"/><line x1="266.19" y1="192.13" x2="265.78" y2="191.72"/><line x1="268.70" y1="138.71" x2="255.91" y2="126.38"/><line x1="202.06" y1="280.59" x2="199.47" y2="255.84"/><line x1="330.45" y1="118.95" x2="352.18" y2="116.94"/><line x1="278.34" y1="323.96" x2="280.38" y2="324.51"/><line x1="332.81" y1="210.16" x2="312.88" y2="193.52"/><line x1="175.57" y1="266.54" x2="174.71" y2="265.34"/><line x1="270.22" y1="215.66" x2="270.58" y2="216.36"/><line x1="259.66" y1="190.93" x2="263.02" y2="173.45"/><line x1="182.01" y1="96.25" x2="182.27" y2="95.89"/><line x1="263.53" y1="199.24" x2="264.12" y2="200.25"/><line x1="259.66" y1="190.93" x2="229.37" y2="194.01"/><line x1="174.04" y1="264.32" x2="173.34" y2="263.31"/><line x1="276.43" y1="226.61" x2="276.88" y2="227.13"/><line x1="232.68" y1="200.54" x2="259.86" y2="191.79"/><line x1="247.25" y1="142.15" x2="246.20" y2="143.37"/><line x1="222.95" y1="256.64" x2="294.26" y2="325.51"/><line x1="167.57" y1="243.64" x2="160.40" y2="251.85"/><line x1="186.59" y1="276.45" x2="185.73" y2="275.99"/><line x1="329.87" y1="133.57" x2="330.23" y2="131.22"/><line x1="243.94" y1="145.82" x2="262.82" y2="156.47"/><line x1="222.95" y1="256.64" x2="299.62" y2="318.26"/><line x1="244.51" y1="284.09" x2="244.13" y2="283.96"/><line x1="299.70" y1="311.13" x2="299.61" y2="310.71"/><line x1="297.95" y1="305.36" x2="297.68" y2="304.55"/><line x1="243.94" y1="145.82" x2="260.25" y2="163.19"/><line x1="194.32" y1="255.33" x2="182.33" y2="273.72"/><line x1="226.58" y1="189.31" x2="219.89" y2="174.34"/><line x1="329.71" y1="113.07" x2="329.43" y2="111.70"/><line x1="158.69" y1="246.27" x2="158.67" y2="245.58"/><line x1="197.48" y1="131.44" x2="195.66" y2="128.09"/><line x1="216.40" y1="163.33" x2="227.53" y2="127.16"/><line x1="265.83" y1="315.78" x2="272.84" y2="321.70"/><line x1="292.03" y1="277.89" x2="231.87" y2="254.80"/><line x1="166.15" y1="256.37" x2="165.65" y2="256.03"/><line x1="314.65" y1="236.99" x2="297.19" y2="213.75"/><line x1="222.95" y1="256.64" x2="245.27" y2="284.46"/><line x1="202.21" y1="255.36" x2="201.13" y2="255.56"/><line x1="269.49" y1="182.92" x2="263.58" y2="190.28"/><line x1="268.02" y1="139.34" x2="254.58" y2="130.30"/><line x1="222.95" y1="256.64" x2="220.93" y2="256.68"/><line x1="301.92" y1="78.26" x2="299.55" y2="97.35"/><line x1="214.43" y1="285.56" x2="213.91" y2="285.44"/><line x1="262.64" y1="311.05" x2="261.81" y2="309.56"/><line x1="185.27" y1="94.09" x2="185.98" y2="93.83"/><line x1="264.57" y1="143.44" x2="264.36" y2="143.83"/><line x1="259.79" y1="166.34" x2="216.70" y2="164.71"/><line x1="351.43" y1="162.02" x2="327.49" y2="145.04"/><line x1="247.29" y1="286.14" x2="222.95" y2="256.64"/><line x1="202.06" y1="280.59" x2="204.89" y2="254.80"/><line x1="268.93" y1="195.48" x2="268.42" y2="194.89"/><line x1="177.73" y1="248.59" x2="169.24" y2="258.37"/><line x1="260.51" y1="193.50" x2="260.81" y2="194.17"/><line x1="268.70" y1="138.71" x2="255.19" y2="128.82"/><line x1="262.67" y1="157.16" x2="262.50" y2="157.76"/><line x1="317.72" y1="94.76" x2="320.40" y2="75.08"/><line x1="272.39" y1="187.36" x2="271.69" y2="186.21"/><line x1="291.71" y1="259.70" x2="279.41" y2="228.79"/><line x1="202.06" y1="280.59" x2="194.32" y2="255.33"/><line x1="181.49" y1="273.03" x2="180.65" y2="272.30"/><line x1="261.81" y1="309.56" x2="260.93" y2="307.88"/><line x1="252.44" y1="290.94" x2="260.93" y2="307.88"/><line x1="220.93" y1="256.68" x2="220.12" y2="256.66"/><line x1="297.68" y1="304.55" x2="297.39" y2="303.66"/><line x1="299.55" y1="97.35" x2="297.04" y2="98.90"/><line x1="259.66" y1="190.93" x2="232.16" y2="199.37"/><line x1="315.10" y1="76.01" x2="301.92" y2="78.26"/><line x1="250.18" y1="288.94" x2="250.89" y2="289.58"/><line x1="159.06" y1="243.10" x2="159.23" y2="242.72"/><line x1="222.95" y1="256.64" x2="284.81" y2="325.31"/><line x1="268.34" y1="211.16" x2="268.51" y2="211.86"/><line x1="189.53" y1="116.11" x2="209.88" y2="103.24"/><line x1="272.24" y1="198.72" x2="271.92" y2="198.46"/><line x1="234.79" y1="251.91" x2="234.27" y2="252.77"/><line x1="173.80" y1="246.64" x2="166.64" y2="256.72"/><line x1="309.36" y1="243.05" x2="314.65" y2="236.99"/><line x1="222.95" y1="256.64" x2="297.40" y2="323.55"/><line x1="334.96" y1="78.57" x2="332.42" y2="77.30"/><line x1="243.94" y1="145.82" x2="262.11" y2="158.70"/><line x1="297.39" y1="303.66" x2="297.09" y2="302.71"/><line x1="305.60" y1="203.84" x2="308.15" y2="200.45"/><line x1="194.32" y1="255.33" x2="186.59" y2="276.45"/><line x1="296.78" y1="301.67" x2="230.77" y2="255.30"/><line x1="262.06" y1="189.82" x2="261.73" y2="189.80"/><line x1="253.31" y1="132.93" x2="265.87" y2="141.61"/><line x1="350.68" y1="102.54" x2="327.83" y2="106.55"/><line x1="32.00" y1="479.98" x2="64.49" y2="479.98"/><line x1="159.23" y1="242.72" x2="162.34" y2="241.40"/><line x1="293.29" y1="325.70" x2="294.26" y2="325.51"/><line x1="204.66" y1="96.89" x2="203.03" y2="95.25"/><line x1="249.19" y1="139.74" x2="263.14" y2="153.88"/><line x1="222.95" y1="256.64" x2="243.76" y2="283.88"/><line x1="166.64" y1="256.72" x2="166.15" y2="256.37"/><line x1="267.38" y1="109.13" x2="285.10" y2="110.83"/><line x1="294.26" y1="325.51" x2="295.15" y2="325.20"/><line x1="252.21" y1="135.01" x2="251.58" y2="136.15"/><line x1="230.77" y1="255.30" x2="296.69" y2="294.33"/><line x1="259.79" y1="166.34" x2="219.19" y2="172.57"/><line x1="351.43" y1="162.02" x2="325.67" y2="156.83"/><line x1="247.29" y1="286.14" x2="249.51" y2="288.33"/><line x1="251.58" y1="136.15" x2="250.91" y2="137.35"/><line x1="202.06" y1="280.59" x2="200.21" y2="255.73"/><line x1="160.54" y1="241.45" x2="160.89" y2="241.34"/><line x1="354.44" y1="148.28" x2="330.64" y2="127.19"/><line x1="296.69" y1="294.33" x2="296.58" y2="292.87"/><line x1="291.71" y1="259.70" x2="279.80" y2="228.83"/><line x1="323.90" y1="75.20" x2="320.75" y2="75.06"/><line x1="263.53" y1="199.24" x2="234.12" y2="206.53"/><line x1="281.07" y1="228.52" x2="281.86" y2="228.14"/><line x1="259.66" y1="190.93" x2="228.51" y2="192.50"/><line x1="326.58" y1="163.49" x2="326.43" y2="162.78"/><line x1="234.06" y1="207.11" x2="265.55" y2="202.99"/><line x1="325.81" y1="102.25" x2="324.98" y2="100.89"/><line x1="160.89" y1="241.34" x2="161.27" y2="241.27"/><line x1="243.94" y1="145.82" x2="262.95" y2="155.70"/><line x1="317.10" y1="186.41" x2="319.02" y2="182.80"/><line x1="268.83" y1="212.66" x2="233.11" y2="222.10"/><line x1="194.32" y1="255.33" x2="183.17" y2="274.35"/><line x1="293.55" y1="282.12" x2="294.49" y2="284.73"/><line x1="329.71" y1="113.07" x2="351.45" y2="108.72"/><line x1="307.24" y1="94.40" x2="304.65" y2="95.10"/><line x1="298.97" y1="320.77" x2="299.33" y2="319.58"/><line x1="320.82" y1="179.15" x2="343.40" y2="187.28"/><line x1="216.40" y1="163.33" x2="231.83" y2="132.86"/><line x1="314.65" y1="236.99" x2="295.31" y2="215.82"/><line x1="302.08" y1="96.09" x2="299.55" y2="97.35"/><line x1="264.01" y1="144.84" x2="263.99" y2="145.12"/><line x1="160.77" y1="252.32" x2="160.40" y2="251.85"/><line x1="263.14" y1="153.88" x2="245.10" y2="144.59"/><line x1="297.89" y1="254.41" x2="283.75" y2="226.90"/><line x1="289.55" y1="264.52" x2="289.52" y2="265.44"/><line x1="254.20" y1="131.11" x2="253.78" y2="131.99"/><line x1="330.56" y1="120.53" x2="330.45" y2="118.95"/><line x1="190.89" y1="118.90" x2="189.53" y2="116.11"/><line x1="316.49" y1="94.36" x2="316.36" y2="75.75"/><line x1="242.77" y1="145.31" x2="240.97" y2="143.75"/><line x1="233.98" y1="207.80" x2="265.91" y2="203.80"/><line x1="346.36" y1="179.13" x2="349.04" y2="170.71"/><line x1="230.77" y1="255.30" x2="295.26" y2="287.11"/><line x1="191.71" y1="254.59" x2="188.75" y2="253.53"/><line x1="325.62" y1="158.50" x2="325.67" y2="156.83"/><line x1="266.33" y1="141.08" x2="253.31" y2="132.93"/><line x1="233.86" y1="208.57" x2="233.70" y2="209.46"/><line x1="354.44" y1="148.28" x2="328.83" y2="138.97"/><line x1="272.39" y1="187.36" x2="266.19" y2="192.13"/><line x1="222.62" y1="120.42" x2="217.72" y2="113.67"/><line x1="354.44" y1="148.28" x2="330.56" y2="120.53"/><line x1="273.03" y1="188.68" x2="268.93" y2="195.48"/><line x1="259.66" y1="190.93" x2="226.58" y2="189.31"/><line x1="337.34" y1="80.11" x2="334.96" y2="78.57"/><line x1="233.69" y1="227.15" x2="270.22" y2="215.66"/><line x1="351.92" y1="113.86" x2="351.68" y2="111.12"/><line x1="315.10" y1="76.01" x2="307.24" y2="94.40"/><line x1="260.92" y1="161.35" x2="260.57" y2="162.26"/><line x1="349.04" y1="170.71" x2="326.58" y2="163.49"/><line x1="232.16" y1="199.37" x2="232.68" y2="200.54"/><line x1="309.36" y1="243.05" x2="293.53" y2="217.75"/><line x1="334.96" y1="78.57" x2="321.13" y2="96.67"/><line x1="305.60" y1="203.84" x2="328.72" y2="217.26"/><line x1="272.80" y1="101.88" x2="271.50" y2="103.52"/><line x1="248.28" y1="287.16" x2="248.88" y2="287.73"/><line x1="296.78" y1="301.67" x2="229.51" y2="255.72"/><line x1="320.04" y1="95.92" x2="318.91" y2="95.28"/><line x1="260.57" y1="162.26" x2="260.25" y2="163.19"/><line x1="32.00" y1="479.98" x2="32.00" y2="447.50"/><line x1="274.55" y1="223.93" x2="275.02" y2="224.70"/><line x1="351.68" y1="111.12" x2="329.71" y2="113.07"/><line x1="214.93" y1="285.67" x2="214.43" y2="285.56"/><line x1="267.10" y1="206.87" x2="267.33" y2="207.59"/><line x1="181.75" y1="250.54" x2="170.99" y2="260.33"/><line x1="271.50" y1="103.52" x2="270.16" y2="105.27"/><line x1="264.82" y1="143.02" x2="251.58" y2="136.15"/><line x1="233.51" y1="210.43" x2="233.28" y2="211.51"/><line x1="293.53" y1="217.75" x2="314.65" y2="236.99"/><line x1="267.38" y1="109.13" x2="287.40" y2="107.88"/><line x1="184.22" y1="106.72" x2="183.66" y2="105.50"/><line x1="264.46" y1="190.75" x2="269.49" y2="182.92"/><line x1="224.83" y1="256.53" x2="226.54" y2="256.33"/><line x1="282.76" y1="227.60" x2="283.75" y2="226.90"/><line x1="318.91" y1="95.28" x2="323.90" y2="75.20"/><line x1="242.25" y1="283.97" x2="216.78" y2="285.85"/><line x1="272.09" y1="219.15" x2="272.46" y2="219.89"/><line x1="191.71" y1="254.59" x2="181.49" y2="273.03"/><line x1="163.54" y1="241.84" x2="158.81" y2="243.98"/><line x1="260.87" y1="169.47" x2="260.20" y2="167.80"/><line x1="251.58" y1="136.15" x2="264.57" y2="143.44"/><line x1="177.73" y1="248.59" x2="173.80" y2="246.64"/><line x1="272.80" y1="199.10" x2="272.54" y2="198.93"/><line x1="298.53" y1="321.82" x2="298.97" y2="320.77"/><line x1="288.77" y1="222.59" x2="290.26" y2="221.13"/><line x1="325.78" y1="159.45" x2="325.62" y2="158.50"/><line x1="354.44" y1="148.28" x2="330.49" y2="129.09"/><line x1="277.34" y1="227.58" x2="277.77" y2="227.96"/><line x1="260.25" y1="192.87" x2="260.51" y2="193.50"/><line x1="273.03" y1="188.68" x2="271.18" y2="197.82"/><line x1="249.51" y1="288.33" x2="250.18" y2="288.94"/><line x1="323.90" y1="75.20" x2="317.72" y2="94.76"/><line x1="268.31" y1="318.47" x2="269.71" y2="319.65"/><line x1="273.03" y1="188.68" x2="266.99" y2="193.05"/><line x1="287.40" y1="107.88" x2="285.10" y2="110.83"/><line x1="161.17" y1="252.75" x2="160.77" y2="252.32"/><line x1="280.38" y1="228.75" x2="281.07" y2="228.52"/><line x1="268.51" y1="211.86" x2="232.70" y2="215.91"/><line x1="234.06" y1="207.11" x2="265.16" y2="202.16"/><line x1="218.00" y1="169.24" x2="217.50" y2="167.66"/><line x1="273.59" y1="222.23" x2="274.07" y2="223.11"/><line x1="282.54" y1="324.96" x2="261.81" y2="309.56"/><line x1="349.04" y1="170.71" x2="351.43" y2="162.02"/><line x1="328.72" y1="109.05" x2="350.85" y2="103.57"/><line x1="284.86" y1="226.06" x2="286.06" y2="225.06"/><line x1="209.23" y1="283.97" x2="214.46" y2="255.99"/><line x1="168.18" y1="257.72" x2="167.66" y2="257.39"/><line x1="285.10" y1="110.83" x2="282.85" y2="114.06"/><line x1="233.97" y1="204.51" x2="234.09" y2="205.31"/><line x1="194.32" y1="255.33" x2="184.02" y2="274.95"/><line x1="269.71" y1="319.65" x2="271.22" y2="320.73"/><line x1="302.92" y1="207.19" x2="305.60" y2="203.84"/><line x1="255.99" y1="125.88" x2="255.91" y2="126.38"/><line x1="226.54" y1="256.33" x2="228.10" y2="256.07"/><line x1="233.28" y1="223.79" x2="233.47" y2="225.48"/><line x1="181.80" y1="99.17" x2="181.71" y2="98.29"/><line x1="234.09" y1="205.31" x2="262.47" y2="197.36"/><line x1="350.85" y1="103.57" x2="350.68" y2="102.54"/><line x1="318.44" y1="75.37" x2="316.49" y2="94.36"/><line x1="177.28" y1="268.73" x2="176.43" y2="267.67"/><line x1="264.01" y1="144.84" x2="249.19" y2="139.74"/><line x1="271.22" y1="320.73" x2="272.84" y2="321.70"/><line x1="299.98" y1="313.15" x2="299.96" y2="312.76"/><line x1="267.38" y1="109.13" x2="255.99" y2="125.88"/><line x1="263.14" y1="153.88" x2="246.20" y2="143.37"/><line x1="289.55" y1="264.52" x2="234.79" y2="251.91"/><line x1="246.46" y1="285.35" x2="246.05" y2="285.01"/><line x1="230.77" y1="255.30" x2="295.86" y2="289.26"/><line x1="316.49" y1="94.36" x2="317.48" y2="75.54"/><line x1="176.43" y1="267.67" x2="175.57" y2="266.54"/><line x1="191.71" y1="254.59" x2="178.13" y2="269.73"/><line x1="159.10" y1="248.93" x2="158.95" y2="248.28"/><line x1="163.54" y1="241.84" x2="162.34" y2="241.40"/><line x1="233.86" y1="208.57" x2="266.84" y2="206.13"/><line x1="235.50" y1="137.53" x2="231.83" y2="132.86"/><line x1="299.96" y1="312.76" x2="299.92" y2="312.36"/><line x1="354.44" y1="148.28" x2="328.16" y2="142.01"/><line x1="213.38" y1="285.29" x2="215.81" y2="256.20"/><line x1="222.62" y1="120.42" x2="195.66" y2="128.09"/><line x1="354.44" y1="148.28" x2="330.64" y2="122.15"/><line x1="219.21" y1="256.60" x2="213.91" y2="285.44"/><line x1="207.77" y1="254.97" x2="206.71" y2="254.88"/><line x1="273.03" y1="188.68" x2="269.41" y2="196.04"/><line x1="294.57" y1="100.72" x2="268.78" y2="107.14"/><line x1="289.63" y1="263.65" x2="235.38" y2="249.91"/><line x1="255.79" y1="126.93" x2="255.64" y2="127.52"/><line x1="158.95" y1="248.28" x2="158.83" y2="247.63"/><line x1="282.54" y1="324.96" x2="265.32" y2="315.20"/><line x1="268.51" y1="211.86" x2="232.98" y2="220.39"/><line x1="182.59" y1="95.55" x2="183.00" y2="95.23"/><line x1="264.91" y1="191.03" x2="264.46" y2="190.75"/><line x1="264.12" y1="200.25" x2="264.74" y2="201.31"/><line x1="326.58" y1="103.73" x2="325.81" y2="102.25"/><line x1="209.23" y1="283.97" x2="202.06" y2="280.59"/><line x1="172.59" y1="262.31" x2="181.75" y2="250.54"/><line x1="293.55" y1="282.12" x2="230.77" y2="255.30"/><line x1="248.28" y1="287.16" x2="247.72" y2="286.61"/><line x1="259.86" y1="191.79" x2="260.03" y2="192.31"/><line x1="245.10" y1="144.59" x2="243.94" y2="145.82"/><line x1="217.72" y1="113.67" x2="192.36" y2="121.82"/><line x1="265.32" y1="315.20" x2="264.74" y2="314.44"/><line x1="298.66" y1="307.31" x2="298.44" y2="306.74"/><line x1="243.76" y1="283.88" x2="243.38" y2="283.83"/><line x1="233.49" y1="202.68" x2="260.25" y2="192.87"/><line x1="269.17" y1="213.43" x2="269.51" y2="214.19"/><line x1="267.41" y1="139.95" x2="266.84" y2="140.53"/><line x1="181.75" y1="250.54" x2="171.81" y2="261.31"/><line x1="158.69" y1="245.01" x2="163.54" y2="241.84"/><line x1="233.51" y1="210.43" x2="267.97" y2="209.74"/><line x1="274.34" y1="197.91" x2="272.80" y2="199.10"/><line x1="298.44" y1="306.74" x2="298.20" y2="306.08"/><line x1="341.64" y1="84.04" x2="339.57" y2="81.93"/><line x1="200.21" y1="255.73" x2="199.47" y2="255.84"/><line x1="224.83" y1="256.53" x2="297.09" y2="302.71"/><line x1="233.28" y1="211.51" x2="268.16" y2="210.45"/><line x1="242.25" y1="283.97" x2="219.21" y2="256.60"/><line x1="163.54" y1="241.84" x2="158.74" y2="244.48"/><line x1="324.03" y1="171.74" x2="325.46" y2="167.97"/><line x1="272.80" y1="199.10" x2="273.03" y2="199.23"/><line x1="262.78" y1="189.98" x2="262.41" y2="189.88"/><line x1="288.77" y1="222.59" x2="309.36" y2="243.05"/><line x1="266.25" y1="204.60" x2="266.56" y2="205.38"/><line x1="354.44" y1="148.28" x2="330.23" y2="131.22"/><line x1="209.88" y1="103.24" x2="182.59" y2="95.55"/><line x1="273.03" y1="188.68" x2="271.57" y2="198.16"/><line x1="294.57" y1="100.72" x2="275.31" y2="98.94"/><line x1="268.16" y1="210.45" x2="268.34" y2="211.16"/><line x1="219.21" y1="256.60" x2="216.34" y2="285.84"/><line x1="209.88" y1="103.24" x2="188.47" y2="93.13"/><line x1="273.03" y1="188.68" x2="267.38" y2="193.57"/><line x1="199.47" y1="255.84" x2="198.88" y2="255.91"/><line x1="289.63" y1="263.65" x2="235.16" y2="250.96"/><line x1="162.34" y1="241.40" x2="159.66" y2="242.08"/><line x1="235.44" y1="248.77" x2="235.38" y2="249.91"/><line x1="268.51" y1="211.86" x2="232.72" y2="215.23"/><line x1="284.81" y1="325.31" x2="287.18" y2="325.56"/><line x1="282.54" y1="324.96" x2="262.64" y2="311.05"/><line x1="330.32" y1="117.42" x2="330.14" y2="115.93"/><line x1="262.41" y1="189.88" x2="262.06" y2="189.82"/><line x1="261.56" y1="195.67" x2="234.09" y2="205.31"/><line x1="349.04" y1="170.71" x2="326.10" y2="161.20"/><line x1="165.28" y1="242.60" x2="158.67" y2="245.58"/><line x1="252.78" y1="133.94" x2="252.21" y2="135.01"/><line x1="168.18" y1="257.72" x2="173.80" y2="246.64"/><line x1="233.70" y1="209.46" x2="233.51" y2="210.43"/><line x1="274.07" y1="223.11" x2="274.55" y2="223.93"/><line x1="271.57" y1="198.16" x2="271.18" y2="197.82"/><line x1="255.99" y1="125.88" x2="268.70" y2="138.71"/><line x1="226.54" y1="256.33" x2="296.78" y2="301.67"/><line x1="327.49" y1="145.04" x2="354.44" y2="148.28"/><line x1="332.42" y1="77.30" x2="329.73" y2="76.33"/><line x1="216.78" y1="285.85" x2="216.34" y2="285.84"/><line x1="234.09" y1="205.31" x2="262.00" y2="196.50"/><line x1="165.65" y1="256.03" x2="162.07" y2="253.48"/><line x1="255.91" y1="126.38" x2="255.79" y2="126.93"/><line x1="234.13" y1="206.05" x2="234.12" y2="206.53"/><line x1="159.43" y1="242.38" x2="159.66" y2="242.08"/><line x1="281.86" y1="228.14" x2="282.76" y2="227.60"/><line x1="271.18" y1="197.82" x2="270.77" y2="197.44"/><line x1="182.27" y1="95.89" x2="182.59" y2="95.55"/><line x1="263.02" y1="173.45" x2="261.81" y2="171.35"/><line x1="263.14" y1="153.88" x2="247.25" y2="142.15"/><line x1="348.31" y1="95.25" x2="326.58" y2="103.73"/><line x1="232.70" y1="215.91" x2="232.73" y2="216.48"/><line x1="170.41" y1="244.99" x2="167.57" y2="243.64"/><line x1="279.02" y1="228.69" x2="279.41" y2="228.79"/><line x1="246.20" y1="143.37" x2="245.10" y2="144.59"/><line x1="315.21" y1="94.07" x2="313.90" y2="93.90"/><line x1="336.63" y1="202.80" x2="315.06" y2="189.99"/><line x1="329.43" y1="111.70" x2="329.09" y2="110.35"/><line x1="261.81" y1="171.35" x2="260.87" y2="169.47"/><line x1="213.38" y1="285.29" x2="217.05" y2="256.38"/><line x1="209.88" y1="103.24" x2="181.68" y2="97.46"/><line x1="244.13" y1="283.96" x2="243.76" y2="283.88"/><line x1="222.62" y1="120.42" x2="197.48" y2="131.44"/><line x1="219.21" y1="256.60" x2="214.43" y2="285.56"/><line x1="312.53" y1="93.84" x2="309.87" y2="93.98"/><line x1="209.88" y1="103.24" x2="184.61" y2="94.35"/><line x1="273.03" y1="188.68" x2="269.88" y2="196.54"/><line x1="294.57" y1="100.72" x2="270.16" y2="105.27"/><line x1="289.63" y1="263.65" x2="277.34" y2="227.58"/><line x1="324.98" y1="100.89" x2="324.10" y2="99.65"/><line x1="297.19" y1="213.75" x2="300.12" y2="210.49"/><line x1="235.44" y1="248.77" x2="275.96" y2="226.03"/><line x1="250.91" y1="137.35" x2="264.20" y2="144.19"/><line x1="162.34" y1="241.40" x2="160.89" y2="241.34"/><line x1="195.66" y1="128.09" x2="217.72" y2="113.67"/><line x1="268.42" y1="194.89" x2="267.91" y2="194.25"/><line x1="268.51" y1="211.86" x2="232.88" y2="218.68"/><line x1="303.78" y1="248.86" x2="309.36" y2="243.05"/><line x1="330.49" y1="129.09" x2="330.64" y2="127.19"/><line x1="264.12" y1="200.25" x2="234.06" y2="207.11"/><line x1="201.13" y1="255.56" x2="200.21" y2="255.73"/><line x1="309.87" y1="93.98" x2="307.24" y2="94.40"/><line x1="233.94" y1="228.83" x2="272.46" y2="219.89"/><line x1="254.58" y1="130.30" x2="267.41" y2="139.95"/><line x1="234.27" y1="252.77" x2="233.62" y2="253.54"/><line x1="188.75" y1="253.53" x2="185.42" y2="252.19"/><line x1="290.64" y1="272.80" x2="290.95" y2="274.01"/><line x1="267.91" y1="194.25" x2="267.38" y2="193.57"/><line x1="217.72" y1="113.67" x2="193.95" y2="124.89"/><line x1="185.98" y1="93.83" x2="186.76" y2="93.59"/><line x1="330.64" y1="127.19" x2="330.70" y2="125.52"/><line x1="324.10" y1="99.65" x2="341.64" y2="84.04"/><line x1="266.60" y1="192.57" x2="266.19" y2="192.13"/><line x1="269.17" y1="213.43" x2="233.28" y2="223.79"/><line x1="267.41" y1="139.95" x2="254.20" y2="131.11"/><line x1="262.50" y1="157.76" x2="262.32" y2="158.27"/><line x1="322.49" y1="175.46" x2="324.03" y2="171.74"/><line x1="186.76" y1="93.59" x2="187.58" y2="93.35"/><line x1="228.51" y1="192.50" x2="229.37" y2="194.01"/><line x1="220.12" y1="256.66" x2="219.21" y2="256.60"/><line x1="341.64" y1="84.04" x2="323.17" y2="98.53"/><line x1="297.04" y1="98.90" x2="294.57" y2="100.72"/><line x1="168.70" y1="258.05" x2="168.18" y2="257.72"/><line x1="322.17" y1="97.54" x2="321.13" y2="96.67"/><line x1="260.81" y1="194.17" x2="261.17" y2="194.90"/><line x1="64.64" y1="32.09" x2="32.16" y2="64.58"/><line x1="262.32" y1="158.27" x2="262.11" y2="158.70"/><line x1="209.88" y1="103.24" x2="188.28" y2="113.46"/><line x1="271.69" y1="186.21" x2="265.35" y2="191.36"/><line x1="324.03" y1="171.74" x2="346.36" y2="179.13"/><line x1="297.09" y1="302.71" x2="226.54" y2="256.33"/><line x1="352.18" y1="116.94" x2="330.32" y2="117.42"/><line x1="209.88" y1="103.24" x2="182.45" y2="102.12"/><line x1="219.21" y1="256.60" x2="216.78" y2="285.85"/><line x1="266.25" y1="204.60" x2="233.86" y2="208.57"/><line x1="185.42" y1="252.19" x2="174.04" y2="264.32"/><line x1="209.88" y1="103.24" x2="182.27" y2="95.89"/><line x1="294.57" y1="100.72" x2="276.51" y2="97.65"/><line x1="265.87" y1="141.61" x2="252.78" y2="133.94"/><line x1="209.88" y1="103.24" x2="187.58" y2="93.35"/><line x1="222.95" y1="256.64" x2="299.70" y2="311.13"/><line x1="162.34" y1="241.40" x2="159.43" y2="242.38"/><line x1="289.63" y1="263.65" x2="278.62" y2="228.51"/><line x1="292.45" y1="279.28" x2="293.55" y2="282.12"/><line x1="268.51" y1="211.86" x2="232.78" y2="214.45"/><line x1="303.78" y1="248.86" x2="287.36" y2="223.90"/><line x1="188.28" y1="113.46" x2="187.30" y2="112.02"/><line x1="203.03" y1="95.25" x2="202.06" y2="94.63"/><line x1="330.32" y1="117.42" x2="351.92" y2="113.86"/><line x1="282.54" y1="324.96" x2="263.40" y2="312.37"/><line x1="321.13" y1="96.67" x2="332.42" y2="77.30"/><line x1="185.73" y1="275.99" x2="184.88" y2="275.49"/><line x1="233.94" y1="228.83" x2="270.58" y2="216.36"/><line x1="165.28" y1="242.60" x2="158.69" y2="246.27"/><line x1="234.27" y1="252.77" x2="289.72" y2="268.38"/><line x1="252.78" y1="133.94" x2="265.47" y2="142.11"/><line x1="233.70" y1="209.46" x2="267.56" y2="208.31"/><line x1="233.94" y1="228.83" x2="232.81" y2="236.16"/><line x1="340.15" y1="195.17" x2="343.40" y2="187.28"/><line x1="260.25" y1="163.19" x2="259.94" y2="164.14"/><line x1="295.15" y1="325.20" x2="295.98" y2="324.77"/><line x1="326.43" y1="162.78" x2="326.26" y2="162.02"/><line x1="351.45" y1="108.72" x2="351.23" y2="106.66"/><line x1="267.56" y1="208.31" x2="267.77" y2="209.03"/><line x1="332.42" y1="77.30" x2="320.04" y2="95.92"/><line x1="270.16" y1="105.27" x2="268.78" y2="107.14"/><line x1="165.65" y1="256.03" x2="170.41" y2="244.99"/><line x1="234.13" y1="206.05" x2="263.53" y2="199.24"/><line x1="259.94" y1="164.14" x2="259.66" y2="165.11"/><line x1="183.66" y1="105.50" x2="183.19" y2="104.33"/><line x1="326.26" y1="162.02" x2="326.10" y2="161.20"/><line x1="289.88" y1="269.43" x2="290.10" y2="270.51"/><line x1="295.98" y1="324.77" x2="296.72" y2="324.22"/><line x1="296.58" y1="292.87" x2="296.31" y2="291.18"/><line x1="274.34" y1="197.91" x2="273.03" y2="188.68"/><line x1="213.91" y1="285.44" x2="213.38" y2="285.29"/><line x1="268.00" y1="180.77" x2="266.25" y2="178.30"/><line x1="268.78" y1="107.14" x2="267.38" y2="109.13"/><line x1="170.41" y1="244.99" x2="162.07" y2="253.48"/><line x1="213.47" y1="107.95" x2="209.88" y2="103.24"/><line x1="161.27" y1="241.27" x2="161.69" y2="241.25"/><line x1="183.19" y1="104.33" x2="182.78" y2="103.20"/><line x1="209.88" y1="103.24" x2="184.86" y2="107.98"/><line x1="233.77" y1="203.63" x2="233.97" y2="204.51"/><line x1="329.43" y1="111.70" x2="351.23" y2="106.66"/><line x1="296.31" y1="291.18" x2="295.86" y2="289.26"/><line x1="209.88" y1="103.24" x2="181.71" y2="98.29"/><line x1="219.21" y1="256.60" x2="214.93" y2="285.67"/><line x1="180.65" y1="272.30" x2="179.82" y2="271.52"/><line x1="167.57" y1="243.64" x2="159.30" y2="249.57"/><line x1="209.88" y1="103.24" x2="184.02" y2="94.63"/><line x1="233.62" y1="253.54" x2="290.36" y2="271.64"/><line x1="250.91" y1="137.35" x2="264.36" y2="143.83"/><line x1="222.95" y1="256.64" x2="299.98" y2="313.15"/><line x1="272.54" y1="198.93" x2="272.24" y2="198.72"/><line x1="235.44" y1="248.77" x2="275.50" y2="225.40"/><line x1="297.19" y1="213.75" x2="319.64" y2="230.67"/><line x1="194.32" y1="93.70" x2="203.03" y2="95.25"/><line x1="162.34" y1="241.40" x2="160.54" y2="241.45"/><line x1="299.33" y1="319.58" x2="299.62" y2="318.26"/><line x1="250.89" y1="289.58" x2="251.65" y2="290.25"/><line x1="222.95" y1="256.64" x2="298.20" y2="306.08"/><line x1="227.58" y1="190.94" x2="228.51" y2="192.50"/><line x1="233.07" y1="212.59" x2="232.90" y2="213.57"/><line x1="320.75" y1="75.06" x2="320.40" y2="75.08"/><line x1="280.64" y1="117.57" x2="278.48" y2="121.37"/><line x1="179.82" y1="271.52" x2="178.98" y2="270.66"/><line x1="185.42" y1="252.19" x2="173.34" y2="263.31"/><line x1="160.40" y1="251.85" x2="160.08" y2="251.34"/><line x1="233.94" y1="228.83" x2="272.09" y2="219.15"/><line x1="265.83" y1="315.78" x2="280.38" y2="324.51"/><line x1="328.72" y1="217.26" x2="310.58" y2="197.01"/><line x1="217.07" y1="166.15" x2="216.70" y2="164.71"/><line x1="32.16" y1="32.09" x2="64.64" y2="32.09"/><line x1="188.75" y1="253.53" x2="175.57" y2="266.54"/><line x1="266.25" y1="178.30" x2="264.50" y2="175.77"/><line x1="290.64" y1="272.80" x2="232.82" y2="254.22"/><line x1="299.62" y1="318.26" x2="299.82" y2="316.81"/><line x1="213.01" y1="255.74" x2="211.55" y2="255.49"/><line x1="265.91" y1="203.80" x2="266.25" y2="204.60"/><line x1="266.60" y1="192.57" x2="272.39" y2="187.36"/><line x1="160.08" y1="251.34" x2="159.78" y2="250.78"/><line x1="272.84" y1="321.70" x2="274.57" y2="322.56"/><line x1="231.87" y1="254.80" x2="292.45" y2="279.28"/><line x1="181.68" y1="97.46" x2="181.71" y2="97.04"/><line x1="266.19" y1="192.13" x2="271.69" y2="186.21"/><line x1="262.47" y1="197.36" x2="262.98" y2="198.28"/><line x1="316.36" y1="75.75" x2="315.10" y2="76.01"/><line x1="211.55" y1="255.49" x2="210.19" y2="255.28"/><line x1="317.72" y1="94.76" x2="316.49" y2="94.36"/><line x1="175.57" y1="266.54" x2="185.42" y2="252.19"/><line x1="270.22" y1="215.66" x2="233.94" y2="228.83"/><line x1="158.83" y1="247.63" x2="158.74" y2="246.96"/><line x1="274.57" y1="322.56" x2="276.40" y2="323.31"/><line x1="299.92" y1="312.36" x2="299.86" y2="311.96"/><line x1="271.69" y1="186.21" x2="265.78" y2="191.72"/><line x1="232.68" y1="200.54" x2="259.74" y2="191.34"/><line x1="209.88" y1="103.24" x2="182.78" y2="103.20"/><line x1="222.95" y1="256.64" x2="293.29" y2="325.70"/><line x1="167.57" y1="243.64" x2="160.77" y2="252.32"/><line x1="270.72" y1="184.73" x2="269.49" y2="182.92"/><line x1="209.88" y1="103.24" x2="182.01" y2="96.25"/><line x1="185.42" y1="252.19" x2="174.71" y2="265.34"/><line x1="167.57" y1="243.64" x2="165.28" y2="242.60"/><line x1="232.82" y1="254.22" x2="291.28" y2="275.26"/><line x1="222.95" y1="256.64" x2="299.79" y2="311.55"/><line x1="243.94" y1="145.82" x2="260.57" y2="162.26"/><line x1="32.00" y1="447.50" x2="64.49" y2="479.98"/><line x1="299.86" y1="311.96" x2="299.79" y2="311.55"/></g></svg>