<svg xmlns="http://www.w3.org/2000/svg" width="512" height="512"><rect width="512" height="512" fill="#0a0f1a"/><text x="12" y="20" font-family="monospace" font-size="11" fill="#4a7fa5">FRONT (XZ)</text><g stroke="#00d4ff" stroke-width="0.6" opacity="0.85"><line x1="195.38" y1="152.11" x2="194.60" y2="151.31"/><line x1="201.71" y1="153.53" x2="194.43" y2="145.73"/><line x1="204.59" y1="98.32" x2="205.05" y2="97.74"/><line x1="226.39" y1="200.64" x2="226.82" y2="201.99"/><line x1="246.78" y1="226.30" x2="319.10" y2="354.06"/><line x1="246.78" y1="226.30" x2="246.78" y2="336.62"/><line x1="202.01" y1="292.41" x2="192.33" y2="302.51"/><line x1="205.05" y1="97.74" x2="205.54" y2="97.30"/><line x1="246.78" y1="207.52" x2="317.05" y2="96.24"/><line x1="206.47" y1="182.23" x2="203.51" y2="184.73"/><line x1="246.78" y1="207.52" x2="320.25" y2="101.54"/><line x1="320.75" y1="350.29" x2="320.53" y2="351.53"/><line x1="208.12" y1="153.16" x2="209.79" y2="152.87"/><line x1="203.51" y1="184.73" x2="203.27" y2="185.89"/><line x1="202.96" y1="244.11" x2="221.29" y2="182.42"/><line x1="313.06" y1="333.17" x2="320.90" y2="348.77"/><line x1="199.48" y1="346.06" x2="227.40" y2="332.20"/><line x1="320.16" y1="110.05" x2="320.25" y2="108.49"/><line x1="209.79" y1="152.87" x2="211.21" y2="152.50"/><line x1="209.13" y1="96.12" x2="210.10" y2="96.05"/><line x1="230.92" y1="117.42" x2="210.10" y2="96.05"/><line x1="230.34" y1="206.54" x2="231.21" y2="206.90"/><line x1="220.34" y1="251.09" x2="222.71" y2="248.35"/><line x1="227.40" y1="332.20" x2="199.06" y2="343.70"/><line x1="197.11" y1="292.94" x2="192.01" y2="298.85"/><line x1="210.10" y1="96.05" x2="211.16" y2="96.02"/><line x1="246.78" y1="226.30" x2="320.29" y2="352.49"/><line x1="316.90" y1="354.86" x2="315.94" y2="354.97"/><line x1="246.78" y1="226.30" x2="315.94" y2="354.97"/><line x1="198.62" y1="341.01" x2="217.04" y2="304.32"/><line x1="198.62" y1="341.01" x2="208.89" y2="293.31"/><line x1="215.81" y1="148.67" x2="216.62" y2="147.23"/><line x1="192.01" y1="298.85" x2="195.27" y2="293.60"/><line x1="246.78" y1="207.52" x2="313.74" y2="96.02"/><line x1="205.32" y1="182.46" x2="206.47" y2="182.23"/><line x1="246.78" y1="207.52" x2="319.36" y2="97.22"/><line x1="212.55" y1="181.78" x2="202.96" y2="244.11"/><line x1="228.35" y1="333.37" x2="201.24" y2="353.00"/><line x1="222.82" y1="321.72" x2="221.30" y2="317.40"/><line x1="216.62" y1="147.23" x2="217.42" y2="145.54"/><line x1="320.64" y1="339.51" x2="320.06" y2="338.21"/><line x1="223.74" y1="245.40" x2="214.43" y2="252.12"/><line x1="199.36" y1="292.54" x2="192.02" y2="299.44"/><line x1="221.30" y1="317.40" x2="219.64" y2="312.40"/><line x1="319.12" y1="114.60" x2="319.45" y2="114.05"/><line x1="230.92" y1="117.42" x2="206.08" y2="96.96"/><line x1="238.25" y1="336.62" x2="236.10" y2="336.53"/><line x1="195.38" y1="152.11" x2="194.12" y2="150.34"/><line x1="321.11" y1="342.47" x2="321.09" y2="344.86"/><line x1="221.29" y1="182.42" x2="221.76" y2="182.83"/><line x1="202.99" y1="245.47" x2="202.96" y2="244.11"/><line x1="321.09" y1="344.86" x2="321.02" y2="346.95"/><line x1="246.78" y1="226.30" x2="319.60" y2="353.65"/><line x1="198.62" y1="341.01" x2="224.18" y2="325.36"/><line x1="236.10" y1="336.53" x2="234.15" y2="336.26"/><line x1="198.62" y1="341.01" x2="213.83" y2="297.20"/><line x1="214.64" y1="298.61" x2="213.83" y2="297.20"/><line x1="316.21" y1="116.89" x2="315.08" y2="117.48"/><line x1="198.62" y1="341.01" x2="192.65" y2="304.48"/><line x1="246.78" y1="207.52" x2="316.10" y2="96.12"/><line x1="246.78" y1="207.52" x2="320.15" y2="100.26"/><line x1="228.35" y1="333.37" x2="204.98" y2="354.84"/><line x1="213.83" y1="297.20" x2="213.01" y2="296.05"/><line x1="320.75" y1="350.29" x2="246.78" y2="226.30"/><line x1="228.35" y1="333.37" x2="199.88" y2="348.10"/><line x1="320.31" y1="103.02" x2="308.03" y2="121.56"/><line x1="314.85" y1="355.01" x2="246.78" y2="336.62"/><line x1="480.00" y1="32.02" x2="447.51" y2="32.02"/><line x1="313.06" y1="333.17" x2="321.02" y2="346.95"/><line x1="306.64" y1="324.17" x2="306.64" y2="124.19"/><line x1="230.92" y1="117.42" x2="203.78" y2="99.92"/><line x1="320.16" y1="110.05" x2="315.08" y2="117.48"/><line x1="230.92" y1="117.42" x2="209.13" y2="96.12"/><line x1="206.27" y1="354.97" x2="204.98" y2="354.84"/><line x1="204.18" y1="183.15" x2="204.63" y2="182.74"/><line x1="246.78" y1="226.30" x2="307.35" y2="327.62"/><line x1="215.90" y1="252.08" x2="223.74" y2="245.40"/><line x1="246.78" y1="226.30" x2="316.90" y2="354.86"/><line x1="194.60" y1="144.85" x2="202.81" y2="103.41"/><line x1="198.62" y1="341.01" x2="217.83" y2="306.73"/><line x1="198.62" y1="341.01" x2="210.16" y2="293.81"/><line x1="205.32" y1="182.46" x2="203.81" y2="183.82"/><line x1="235.80" y1="115.58" x2="246.78" y2="115.58"/><line x1="246.78" y1="207.52" x2="319.01" y2="96.91"/><line x1="246.78" y1="336.62" x2="238.25" y2="336.62"/><line x1="228.35" y1="333.37" x2="201.63" y2="353.53"/><line x1="192.22" y1="301.63" x2="192.12" y2="300.83"/><line x1="220.76" y1="182.11" x2="221.29" y2="182.42"/><line x1="314.85" y1="355.01" x2="207.74" y2="355.01"/><line x1="204.55" y1="250.60" x2="204.13" y2="250.09"/><line x1="199.36" y1="292.54" x2="192.06" y2="300.10"/><line x1="223.04" y1="130.59" x2="224.27" y2="127.71"/><line x1="230.92" y1="117.42" x2="205.54" y2="97.30"/><line x1="208.05" y1="182.04" x2="210.08" y2="181.89"/><line x1="315.39" y1="334.27" x2="321.09" y2="344.86"/><line x1="225.26" y1="238.73" x2="208.56" y2="251.84"/><line x1="224.27" y1="127.71" x2="225.45" y2="125.19"/><line x1="307.28" y1="122.44" x2="308.03" y2="121.56"/><line x1="203.10" y1="187.28" x2="202.99" y2="188.93"/><line x1="319.01" y1="96.91" x2="319.36" y2="97.22"/><line x1="321.09" y1="344.86" x2="313.06" y2="333.17"/><line x1="198.62" y1="341.01" x2="225.40" y2="328.32"/><line x1="208.56" y1="251.84" x2="207.15" y2="251.62"/><line x1="234.06" y1="226.30" x2="306.82" y2="123.31"/><line x1="195.27" y1="293.60" x2="193.85" y2="294.52"/><line x1="197.92" y1="153.17" x2="194.02" y2="148.38"/><line x1="198.62" y1="341.01" x2="214.64" y2="298.61"/><line x1="316.21" y1="116.89" x2="320.16" y2="110.05"/><line x1="319.36" y1="97.22" x2="319.62" y2="97.67"/><line x1="223.71" y1="187.47" x2="224.15" y2="189.40"/><line x1="319.24" y1="337.04" x2="318.19" y2="336.00"/><line x1="228.35" y1="333.37" x2="206.27" y2="354.97"/><line x1="192.21" y1="297.14" x2="192.82" y2="295.70"/><line x1="194.02" y1="148.38" x2="194.08" y2="147.85"/><line x1="228.35" y1="333.37" x2="200.25" y2="349.81"/><line x1="203.10" y1="102.10" x2="230.92" y2="117.42"/><line x1="320.31" y1="103.02" x2="309.06" y2="120.69"/><line x1="224.15" y1="189.40" x2="224.62" y2="191.69"/><line x1="480.00" y1="32.02" x2="480.00" y2="64.50"/><line x1="227.78" y1="229.88" x2="228.27" y2="228.92"/><line x1="207.44" y1="292.91" x2="205.81" y2="292.64"/><line x1="230.92" y1="117.42" x2="203.42" y2="100.94"/><line x1="230.92" y1="117.42" x2="208.24" y2="96.25"/><line x1="480.00" y1="479.91" x2="480.00" y2="447.42"/><line x1="308.24" y1="329.17" x2="246.78" y2="226.30"/><line x1="228.27" y1="228.92" x2="228.76" y2="228.23"/><line x1="194.43" y1="145.73" x2="194.60" y2="144.85"/><line x1="204.18" y1="183.15" x2="205.32" y2="182.46"/><line x1="226.82" y1="201.99" x2="227.28" y2="203.17"/><line x1="207.74" y1="355.01" x2="229.50" y2="334.37"/><line x1="229.89" y1="227.28" x2="230.58" y2="226.93"/><line x1="201.24" y1="353.00" x2="200.93" y2="352.26"/><line x1="198.62" y1="341.01" x2="219.64" y2="312.40"/><line x1="317.98" y1="115.73" x2="317.18" y2="116.31"/><line x1="194.60" y1="144.85" x2="204.09" y2="153.49"/><line x1="205.54" y1="97.30" x2="206.08" y2="96.96"/><line x1="227.28" y1="203.17" x2="227.79" y2="204.17"/><line x1="447.51" y1="479.91" x2="480.00" y2="447.42"/><line x1="228.35" y1="333.37" x2="202.19" y2="353.98"/><line x1="192.22" y1="301.63" x2="199.36" y2="292.54"/><line x1="206.08" y1="96.96" x2="206.72" y2="96.68"/><line x1="222.71" y1="248.35" x2="218.41" y2="251.75"/><line x1="199.66" y1="153.44" x2="201.71" y2="153.53"/><line x1="246.78" y1="207.52" x2="307.28" y2="122.44"/><line x1="314.85" y1="355.01" x2="234.15" y2="336.26"/><line x1="208.05" y1="182.04" x2="203.10" y2="187.28"/><line x1="319.69" y1="113.38" x2="317.98" y2="115.73"/><line x1="203.48" y1="248.67" x2="203.25" y2="247.74"/><line x1="246.78" y1="207.52" x2="203.25" y2="247.74"/><line x1="199.06" y1="343.70" x2="198.62" y2="341.01"/><line x1="212.40" y1="152.04" x2="213.35" y2="151.51"/><line x1="232.16" y1="207.17" x2="233.22" y2="207.36"/><line x1="306.64" y1="124.19" x2="306.82" y2="123.31"/><line x1="195.27" y1="293.60" x2="192.21" y2="297.14"/><line x1="202.81" y1="103.41" x2="229.79" y2="118.46"/><line x1="214.43" y1="252.12" x2="212.20" y2="252.08"/><line x1="192.21" y1="297.14" x2="193.85" y2="294.52"/><line x1="320.31" y1="103.02" x2="310.35" y2="119.81"/><line x1="320.99" y1="340.93" x2="321.11" y2="342.47"/><line x1="224.25" y1="243.47" x2="224.76" y2="241.25"/><line x1="318.19" y1="336.00" x2="316.90" y2="335.07"/><line x1="234.15" y1="336.26" x2="232.40" y2="335.81"/><line x1="480.00" y1="479.91" x2="447.51" y2="479.91"/><line x1="246.78" y1="207.52" x2="231.34" y2="226.65"/><line x1="207.74" y1="355.01" x2="230.85" y2="335.18"/><line x1="202.81" y1="103.41" x2="215.00" y2="149.86"/><line x1="317.98" y1="115.73" x2="319.88" y2="112.49"/><line x1="202.81" y1="103.41" x2="224.27" y2="127.71"/><line x1="203.27" y1="185.89" x2="208.05" y2="182.04"/><line x1="315.08" y1="117.48" x2="313.80" y2="118.06"/><line x1="211.21" y1="152.50" x2="212.40" y2="152.04"/><line x1="202.96" y1="244.11" x2="227.28" y2="203.17"/><line x1="202.96" y1="244.11" x2="234.38" y2="207.48"/><line x1="222.71" y1="248.35" x2="219.45" y2="251.46"/><line x1="199.66" y1="153.44" x2="194.29" y2="146.52"/><line x1="246.78" y1="207.52" x2="306.82" y2="123.31"/><line x1="320.25" y1="108.49" x2="320.31" y2="106.72"/><line x1="211.16" y1="96.02" x2="232.09" y2="116.62"/><line x1="246.78" y1="207.52" x2="205.15" y2="251.00"/><line x1="319.69" y1="113.38" x2="318.63" y2="115.16"/><line x1="204.00" y1="292.47" x2="192.48" y2="303.46"/><line x1="246.78" y1="207.52" x2="233.08" y2="226.33"/><line x1="232.09" y1="116.62" x2="233.28" y2="116.04"/><line x1="320.53" y1="351.53" x2="320.29" y2="352.49"/><line x1="207.15" y1="251.62" x2="228.27" y2="228.92"/><line x1="202.81" y1="103.41" x2="209.79" y2="152.87"/><line x1="217.42" y1="145.54" x2="218.21" y2="143.60"/><line x1="202.81" y1="103.41" x2="218.21" y2="143.60"/><line x1="202.81" y1="103.41" x2="228.70" y2="119.73"/><line x1="215.47" y1="181.72" x2="218.83" y2="181.70"/><line x1="222.20" y1="249.38" x2="220.34" y2="251.09"/><line x1="307.35" y1="327.62" x2="306.81" y2="325.95"/><line x1="206.01" y1="251.34" x2="205.15" y2="251.00"/><line x1="214.43" y1="252.12" x2="224.25" y2="243.47"/><line x1="219.64" y1="312.40" x2="217.83" y2="306.73"/><line x1="246.78" y1="207.52" x2="235.64" y2="207.52"/><line x1="218.21" y1="143.60" x2="219.00" y2="141.42"/><line x1="202.96" y1="244.11" x2="225.12" y2="194.35"/><line x1="203.81" y1="183.82" x2="203.51" y2="184.73"/><line x1="315.00" y1="96.04" x2="316.10" y2="96.12"/><line x1="202.96" y1="244.11" x2="229.59" y2="206.12"/><line x1="320.99" y1="340.93" x2="318.19" y2="336.00"/><line x1="224.25" y1="243.47" x2="212.20" y2="252.08"/><line x1="194.12" y1="150.34" x2="194.60" y2="151.31"/><line x1="318.63" y1="115.16" x2="317.98" y2="115.73"/><line x1="210.08" y1="181.89" x2="212.55" y2="181.78"/><line x1="316.10" y1="96.12" x2="317.05" y2="96.24"/><line x1="234.15" y1="336.26" x2="207.74" y2="355.01"/><line x1="246.78" y1="207.52" x2="204.13" y2="250.09"/><line x1="231.21" y1="206.90" x2="232.16" y2="207.17"/><line x1="246.78" y1="207.52" x2="234.06" y2="226.30"/><line x1="225.45" y1="125.19" x2="226.58" y2="123.03"/><line x1="222.19" y1="183.32" x2="222.56" y2="183.92"/><line x1="223.23" y1="247.02" x2="223.74" y2="245.40"/><line x1="207.15" y1="251.62" x2="225.77" y2="236.42"/><line x1="194.08" y1="147.85" x2="194.17" y2="147.23"/><line x1="213.01" y1="296.05" x2="212.18" y2="295.15"/><line x1="202.81" y1="103.41" x2="214.18" y2="150.81"/><line x1="226.58" y1="123.03" x2="227.64" y2="121.23"/><line x1="202.81" y1="103.41" x2="223.04" y2="130.59"/><line x1="321.02" y1="346.95" x2="320.90" y2="348.77"/><line x1="225.77" y1="236.42" x2="226.28" y2="234.38"/><line x1="202.96" y1="244.11" x2="215.47" y2="181.72"/><line x1="313.74" y1="96.02" x2="315.00" y2="96.04"/><line x1="202.96" y1="244.11" x2="222.91" y2="184.73"/><line x1="315.08" y1="117.48" x2="320.25" y2="108.49"/><line x1="319.84" y1="98.33" x2="320.01" y2="99.19"/><line x1="202.96" y1="244.11" x2="226.82" y2="201.99"/><line x1="202.96" y1="244.11" x2="233.22" y2="207.36"/><line x1="204.98" y1="354.84" x2="203.87" y2="354.64"/><line x1="199.66" y1="153.44" x2="194.17" y2="147.23"/><line x1="225.12" y1="194.35" x2="225.65" y2="197.38"/><line x1="246.78" y1="207.52" x2="229.29" y2="227.72"/><line x1="204.09" y1="153.49" x2="206.23" y2="153.36"/><line x1="204.00" y1="292.47" x2="192.65" y2="304.48"/><line x1="246.78" y1="207.52" x2="203.48" y2="248.67"/><line x1="203.78" y1="99.92" x2="204.17" y2="99.05"/><line x1="221.76" y1="182.83" x2="222.19" y2="183.32"/><line x1="207.15" y1="251.62" x2="227.78" y2="229.88"/><line x1="202.81" y1="103.41" x2="208.12" y2="153.16"/><line x1="309.06" y1="120.69" x2="308.03" y2="121.56"/><line x1="202.81" y1="103.41" x2="217.42" y2="145.54"/><line x1="222.20" y1="249.38" x2="221.68" y2="250.10"/><line x1="230.58" y1="226.93" x2="231.34" y2="226.65"/><line x1="200.60" y1="351.20" x2="200.25" y2="349.81"/><line x1="202.96" y1="244.11" x2="220.76" y2="182.11"/><line x1="202.96" y1="244.11" x2="224.62" y2="191.69"/><line x1="202.96" y1="244.11" x2="228.93" y2="205.61"/><line x1="319.62" y1="97.67" x2="319.84" y2="98.33"/><line x1="204.13" y1="250.09" x2="203.77" y2="249.45"/><line x1="210.08" y1="181.89" x2="202.96" y2="190.82"/><line x1="218.41" y1="251.75" x2="217.23" y2="251.95"/><line x1="223.23" y1="247.02" x2="215.90" y2="252.08"/><line x1="194.08" y1="147.85" x2="199.66" y2="153.44"/><line x1="202.81" y1="103.41" x2="213.35" y2="151.51"/><line x1="234.53" y1="115.69" x2="235.80" y2="115.58"/><line x1="480.00" y1="64.50" x2="447.51" y2="32.02"/><line x1="202.96" y1="244.11" x2="222.56" y2="183.92"/><line x1="202.96" y1="244.11" x2="226.39" y2="200.64"/><line x1="228.76" y1="228.23" x2="246.78" y2="207.52"/><line x1="321.11" y1="342.47" x2="315.39" y2="334.27"/><line x1="224.76" y1="241.25" x2="225.26" y2="238.73"/><line x1="319.88" y1="112.49" x2="320.04" y2="111.39"/><line x1="204.09" y1="153.49" x2="202.81" y2="103.41"/><line x1="246.78" y1="226.30" x2="306.64" y2="324.17"/><line x1="198.62" y1="341.01" x2="204.00" y2="292.47"/><line x1="246.78" y1="207.52" x2="315.00" y2="96.04"/><line x1="317.18" y1="116.31" x2="316.21" y2="116.89"/><line x1="246.78" y1="207.52" x2="320.01" y2="99.19"/><line x1="320.75" y1="350.29" x2="308.24" y2="329.17"/><line x1="228.34" y1="204.99" x2="228.93" y2="205.61"/><line x1="192.12" y1="300.83" x2="192.06" y2="300.10"/><line x1="202.96" y1="244.11" x2="220.17" y2="181.87"/><line x1="319.10" y1="354.06" x2="318.49" y2="354.41"/><line x1="224.62" y1="191.69" x2="225.12" y2="194.35"/><line x1="210.08" y1="181.89" x2="202.99" y2="188.93"/><line x1="205.81" y1="292.64" x2="204.00" y2="292.47"/><line x1="195.38" y1="152.11" x2="196.49" y2="152.73"/><line x1="203.42" y1="100.94" x2="203.78" y2="99.92"/><line x1="218.41" y1="251.75" x2="223.23" y2="247.02"/><line x1="201.71" y1="153.53" x2="204.09" y2="153.49"/><line x1="226.47" y1="330.60" x2="225.40" y2="328.32"/><line x1="320.31" y1="106.72" x2="320.33" y2="104.71"/><line x1="246.78" y1="226.30" x2="320.53" y2="351.53"/><line x1="246.78" y1="226.30" x2="317.76" y2="354.67"/><line x1="234.38" y1="207.48" x2="235.64" y2="207.52"/><line x1="198.62" y1="341.01" x2="211.26" y2="294.42"/><line x1="310.35" y1="119.81" x2="309.06" y2="120.69"/><line x1="205.32" y1="182.46" x2="204.63" y2="182.74"/><line x1="202.01" y1="292.41" x2="199.36" y2="292.54"/><line x1="246.78" y1="207.52" x2="318.51" y2="96.64"/><line x1="193.85" y1="294.52" x2="192.82" y2="295.70"/><line x1="206.47" y1="182.23" x2="208.05" y2="182.04"/><line x1="234.53" y1="115.69" x2="313.74" y2="96.02"/><line x1="200.93" y1="352.26" x2="200.60" y2="351.20"/><line x1="212.20" y1="252.08" x2="210.24" y2="251.99"/><line x1="306.82" y1="123.31" x2="307.28" y2="122.44"/><line x1="227.79" y1="204.17" x2="228.34" y2="204.99"/><line x1="313.06" y1="333.17" x2="311.10" y2="331.94"/><line x1="219.53" y1="181.74" x2="220.17" y2="181.87"/><line x1="199.36" y1="292.54" x2="192.12" y2="300.83"/><line x1="206.72" y1="96.68" x2="207.44" y2="96.44"/><line x1="230.92" y1="117.42" x2="205.05" y2="97.74"/><line x1="217.04" y1="304.32" x2="216.25" y2="302.17"/><line x1="230.92" y1="117.42" x2="232.09" y2="116.62"/><line x1="220.40" y1="137.45" x2="221.75" y2="133.84"/><line x1="319.60" y1="353.65" x2="319.10" y2="354.06"/><line x1="321.11" y1="342.47" x2="316.90" y2="335.07"/><line x1="203.10" y1="187.28" x2="210.08" y2="181.89"/><line x1="196.49" y1="152.73" x2="197.92" y2="153.17"/><line x1="319.88" y1="112.49" x2="317.18" y2="116.31"/><line x1="317.85" y1="96.42" x2="318.51" y2="96.64"/><line x1="246.78" y1="226.30" x2="319.99" y2="353.16"/><line x1="198.62" y1="341.01" x2="226.47" y2="330.60"/><line x1="213.35" y1="151.51" x2="214.18" y2="150.81"/><line x1="246.78" y1="226.30" x2="314.85" y2="355.01"/><line x1="198.62" y1="341.01" x2="215.45" y2="300.27"/><line x1="32.16" y1="32.09" x2="32.16" y2="64.58"/><line x1="232.40" y1="335.81" x2="230.85" y2="335.18"/><line x1="198.62" y1="341.01" x2="205.81" y2="292.64"/><line x1="246.78" y1="207.52" x2="246.78" y2="115.58"/><line x1="233.22" y1="207.36" x2="234.38" y2="207.48"/><line x1="246.78" y1="207.52" x2="319.84" y2="98.33"/><line x1="319.24" y1="337.04" x2="320.99" y2="340.93"/><line x1="222.91" y1="184.73" x2="223.30" y2="185.92"/><line x1="320.75" y1="350.29" x2="309.49" y2="330.61"/><line x1="233.28" y1="116.04" x2="234.53" y2="115.69"/><line x1="228.35" y1="333.37" x2="200.60" y2="351.20"/><line x1="211.26" y1="294.42" x2="210.16" y2="293.81"/><line x1="203.25" y1="247.74" x2="203.09" y2="246.67"/><line x1="218.83" y1="181.70" x2="219.53" y2="181.74"/><line x1="194.29" y1="146.52" x2="194.43" y2="145.73"/><line x1="230.92" y1="117.42" x2="207.44" y2="96.44"/><line x1="217.83" y1="306.73" x2="217.04" y2="304.32"/><line x1="195.38" y1="152.11" x2="193.96" y2="149.19"/><line x1="192.48" y1="303.46" x2="192.33" y2="302.51"/><line x1="234.06" y1="226.30" x2="246.78" y2="226.30"/><line x1="193.96" y1="149.19" x2="193.98" y2="148.82"/><line x1="246.78" y1="226.30" x2="318.49" y2="354.41"/><line x1="198.62" y1="341.01" x2="221.30" y2="317.40"/><line x1="320.29" y1="352.49" x2="319.99" y2="353.16"/><line x1="198.62" y1="341.01" x2="212.18" y2="295.15"/><line x1="229.29" y1="227.72" x2="229.89" y2="227.28"/><line x1="246.78" y1="207.52" x2="317.85" y2="96.42"/><line x1="206.47" y1="182.23" x2="203.27" y2="185.89"/><line x1="246.78" y1="207.52" x2="320.31" y2="103.02"/><line x1="228.35" y1="333.37" x2="202.94" y2="354.35"/><line x1="228.35" y1="333.37" x2="227.40" y2="332.20"/><line x1="212.20" y1="252.08" x2="224.76" y2="241.25"/><line x1="314.85" y1="355.01" x2="236.10" y2="336.53"/><line x1="230.92" y1="117.42" x2="204.59" y2="98.32"/><line x1="230.92" y1="117.42" x2="211.16" y2="96.02"/><line x1="219.45" y1="251.46" x2="218.41" y2="251.75"/><line x1="313.80" y1="118.06" x2="311.94" y2="118.94"/><line x1="203.77" y1="249.45" x2="203.48" y2="248.67"/><line x1="197.11" y1="292.94" x2="195.27" y2="293.60"/><line x1="32.00" y1="479.98" x2="64.49" y2="479.98"/><line x1="202.96" y1="190.82" x2="202.96" y2="244.11"/><line x1="246.78" y1="226.30" x2="306.81" y2="325.95"/><line x1="234.06" y1="226.30" x2="306.64" y2="124.19"/><line x1="198.62" y1="341.01" x2="216.25" y2="302.17"/><line x1="198.62" y1="341.01" x2="207.44" y2="292.91"/><line x1="319.24" y1="337.04" x2="320.06" y2="338.21"/><line x1="228.35" y1="333.37" x2="200.93" y2="352.26"/><line x1="320.31" y1="103.02" x2="320.33" y2="104.71"/><line x1="219.00" y1="141.42" x2="220.40" y2="137.45"/><line x1="199.36" y1="292.54" x2="197.11" y2="292.94"/><line x1="202.94" y1="354.35" x2="202.19" y2="353.98"/><line x1="319.12" y1="114.60" x2="318.63" y2="115.16"/><line x1="230.92" y1="117.42" x2="206.72" y2="96.68"/><line x1="318.19" y1="336.00" x2="321.11" y2="342.47"/><line x1="225.26" y1="238.73" x2="225.77" y2="236.42"/><line x1="317.05" y1="96.24" x2="317.85" y2="96.42"/><line x1="192.48" y1="303.46" x2="202.01" y2="292.41"/><line x1="207.74" y1="355.01" x2="232.40" y2="335.81"/><line x1="192.02" y1="299.44" x2="192.01" y2="298.85"/><line x1="193.96" y1="149.19" x2="196.49" y2="152.73"/><line x1="198.62" y1="341.01" x2="222.82" y2="321.72"/><line x1="197.92" y1="153.17" x2="199.66" y2="153.44"/><line x1="198.62" y1="341.01" x2="213.01" y2="296.05"/><line x1="222.56" y1="183.92" x2="222.91" y2="184.73"/><line x1="212.18" y1="295.15" x2="211.26" y2="294.42"/><line x1="227.64" y1="121.23" x2="228.70" y2="119.73"/><line x1="228.35" y1="333.37" x2="203.87" y2="354.64"/><line x1="199.88" y1="348.10" x2="199.48" y2="346.06"/><line x1="228.35" y1="333.37" x2="199.48" y2="346.06"/><line x1="320.90" y1="348.77" x2="320.75" y2="350.29"/><line x1="226.28" y1="234.38" x2="226.78" y2="232.61"/><line x1="314.85" y1="355.01" x2="238.25" y2="336.62"/><line x1="229.59" y1="206.12" x2="230.34" y2="206.54"/><line x1="320.25" y1="108.49" x2="313.80" y2="118.06"/><line x1="320.01" y1="99.19" x2="320.15" y2="100.26"/><line x1="230.92" y1="117.42" x2="204.17" y2="99.05"/><line x1="203.87" y1="354.64" x2="202.94" y2="354.35"/><line x1="319.69" y1="113.38" x2="319.45" y2="114.05"/><line x1="194.17" y1="147.23" x2="194.29" y2="146.52"/><line x1="308.24" y1="329.17" x2="307.35" y2="327.62"/><line x1="313.80" y1="118.06" x2="320.31" y2="106.72"/><line x1="317.76" y1="354.67" x2="316.90" y2="354.86"/><line x1="225.65" y1="197.38" x2="226.00" y2="199.10"/><line x1="32.00" y1="479.98" x2="32.00" y2="447.50"/><line x1="204.18" y1="183.15" x2="203.81" y2="183.82"/><line x1="202.96" y1="190.82" x2="212.55" y2="181.78"/><line x1="207.74" y1="355.01" x2="206.27" y2="354.97"/><line x1="192.65" y1="304.48" x2="192.48" y2="303.46"/><line x1="204.17" y1="99.05" x2="204.59" y2="98.32"/><line x1="215.90" y1="252.08" x2="214.43" y2="252.12"/><line x1="202.81" y1="103.41" x2="227.64" y2="121.23"/><line x1="319.24" y1="337.04" x2="320.64" y2="339.51"/><line x1="203.81" y1="183.82" x2="206.47" y2="182.23"/><line x1="320.31" y1="103.02" x2="311.94" y2="118.94"/><line x1="221.08" y1="250.63" x2="220.34" y2="251.09"/><line x1="200.25" y1="349.81" x2="199.88" y2="348.10"/><line x1="206.23" y1="153.36" x2="208.12" y2="153.16"/><line x1="228.93" y1="205.61" x2="229.59" y2="206.12"/><line x1="211.16" y1="96.02" x2="313.74" y2="96.02"/><line x1="231.34" y1="226.65" x2="232.16" y2="226.46"/><line x1="246.78" y1="207.52" x2="230.58" y2="226.93"/><line x1="192.06" y1="300.10" x2="192.02" y2="299.44"/><line x1="315.39" y1="334.27" x2="313.06" y2="333.17"/><line x1="246.78" y1="207.52" x2="202.99" y2="245.47"/><line x1="225.26" y1="238.73" x2="207.15" y2="251.62"/><line x1="318.49" y1="354.41" x2="317.76" y2="354.67"/><line x1="192.02" y1="299.44" x2="197.11" y2="292.94"/><line x1="207.15" y1="251.62" x2="206.01" y2="251.34"/><line x1="233.08" y1="226.33" x2="234.06" y2="226.30"/><line x1="202.81" y1="103.41" x2="221.75" y2="133.84"/><line x1="197.92" y1="153.17" x2="194.08" y2="147.85"/><line x1="313.74" y1="96.02" x2="246.78" y2="115.58"/><line x1="203.10" y1="102.10" x2="203.42" y2="100.94"/><line x1="202.96" y1="244.11" x2="232.16" y2="207.17"/><line x1="224.18" y1="325.36" x2="222.82" y2="321.72"/><line x1="246.78" y1="207.52" x2="206.01" y2="251.34"/><line x1="319.69" y1="113.38" x2="319.12" y2="114.60"/><line x1="246.78" y1="207.52" x2="232.16" y2="226.46"/><line x1="210.24" y1="251.99" x2="208.56" y2="251.84"/><line x1="207.15" y1="251.62" x2="227.28" y2="231.11"/><line x1="202.81" y1="103.41" x2="206.23" y2="153.36"/><line x1="207.74" y1="355.01" x2="228.35" y2="333.37"/><line x1="202.81" y1="103.41" x2="216.62" y2="147.23"/><line x1="202.81" y1="103.41" x2="226.58" y2="123.03"/><line x1="222.20" y1="249.38" x2="221.08" y2="250.63"/><line x1="193.98" y1="148.82" x2="194.02" y2="148.38"/><line x1="320.04" y1="111.39" x2="320.16" y2="110.05"/><line x1="207.44" y1="96.44" x2="208.24" y2="96.25"/><line x1="202.96" y1="244.11" x2="224.15" y2="189.40"/><line x1="202.96" y1="244.11" x2="228.34" y2="204.99"/><line x1="221.08" y1="250.63" x2="221.68" y2="250.10"/><line x1="229.79" y1="118.46" x2="230.92" y2="117.42"/><line x1="222.71" y1="248.35" x2="223.23" y2="247.02"/><line x1="208.24" y1="96.25" x2="209.13" y2="96.12"/><line x1="211.16" y1="96.02" x2="234.53" y2="115.69"/><line x1="246.78" y1="207.52" x2="204.55" y2="250.60"/><line x1="214.18" y1="150.81" x2="215.00" y2="149.86"/><line x1="319.69" y1="113.38" x2="319.88" y2="112.49"/><line x1="246.78" y1="207.52" x2="203.09" y2="246.67"/><line x1="202.99" y1="188.93" x2="202.96" y2="190.82"/><line x1="223.23" y1="247.02" x2="217.23" y2="251.95"/><line x1="225.40" y1="328.32" x2="224.18" y2="325.36"/><line x1="311.94" y1="118.94" x2="310.35" y2="119.81"/><line x1="215.00" y1="149.86" x2="215.81" y2="148.67"/><line x1="207.15" y1="251.62" x2="246.78" y2="207.52"/><line x1="202.81" y1="103.41" x2="212.40" y2="152.04"/><line x1="202.81" y1="103.41" x2="220.40" y2="137.45"/><line x1="202.81" y1="103.41" x2="203.10" y2="102.10"/><line x1="217.23" y1="251.95" x2="215.90" y2="252.08"/><line x1="203.09" y1="246.67" x2="202.99" y2="245.47"/><line x1="313.74" y1="96.02" x2="235.80" y2="115.58"/><line x1="202.96" y1="244.11" x2="222.19" y2="183.32"/><line x1="202.96" y1="244.11" x2="226.00" y2="199.10"/><line x1="202.96" y1="244.11" x2="231.21" y2="206.90"/><line x1="220.17" y1="181.87" x2="220.76" y2="182.11"/><line x1="319.99" y1="353.16" x2="319.60" y2="353.65"/><line x1="227.40" y1="332.20" x2="226.47" y2="330.60"/><line x1="224.76" y1="241.25" x2="210.24" y2="251.99"/><line x1="216.25" y1="302.17" x2="215.45" y2="300.27"/><line x1="221.75" y1="133.84" x2="223.04" y2="130.59"/><line x1="246.78" y1="207.52" x2="203.77" y2="249.45"/><line x1="316.90" y1="335.07" x2="315.39" y2="334.27"/><line x1="210.24" y1="251.99" x2="225.26" y2="238.73"/><line x1="320.31" y1="103.02" x2="307.28" y2="122.44"/><line x1="215.45" y1="300.27" x2="214.64" y2="298.61"/><line x1="317.18" y1="116.31" x2="320.04" y2="111.39"/><line x1="207.15" y1="251.62" x2="226.78" y2="232.61"/><line x1="318.51" y1="96.64" x2="319.01" y2="96.91"/><line x1="202.81" y1="103.41" x2="215.81" y2="148.67"/><line x1="202.81" y1="103.41" x2="225.45" y2="125.19"/><line x1="246.78" y1="207.52" x2="202.96" y2="244.11"/><line x1="230.85" y1="335.18" x2="229.50" y2="334.37"/><line x1="203.27" y1="185.89" x2="203.10" y2="187.28"/><line x1="193.98" y1="148.82" x2="197.92" y2="153.17"/><line x1="320.04" y1="111.39" x2="316.21" y2="116.89"/><line x1="202.96" y1="244.11" x2="219.53" y2="181.74"/><line x1="223.30" y1="185.92" x2="223.71" y2="187.47"/><line x1="202.96" y1="244.11" x2="223.71" y2="187.47"/><line x1="64.64" y1="32.09" x2="32.16" y2="64.58"/><line x1="202.96" y1="244.11" x2="227.79" y2="204.17"/><line x1="229.50" y1="334.37" x2="228.35" y2="333.37"/><line x1="202.96" y1="244.11" x2="235.64" y2="207.52"/><line x1="210.16" y1="293.81" x2="208.89" y2="293.31"/><line x1="229.79" y1="118.46" x2="203.10" y2="102.10"/><line x1="311.10" y1="331.94" x2="309.49" y2="330.61"/><line x1="211.16" y1="96.02" x2="233.28" y2="116.04"/><line x1="201.71" y1="153.53" x2="194.60" y2="144.85"/><line x1="208.89" y1="293.31" x2="207.44" y2="292.91"/><line x1="320.31" y1="106.72" x2="311.94" y2="118.94"/><line x1="246.78" y1="207.52" x2="229.89" y2="227.28"/><line x1="320.25" y1="101.54" x2="320.31" y2="103.02"/><line x1="204.00" y1="292.47" x2="202.01" y2="292.41"/><line x1="309.49" y1="330.61" x2="308.24" y2="329.17"/><line x1="202.19" y1="353.98" x2="201.63" y2="353.53"/><line x1="202.01" y1="292.41" x2="192.22" y2="301.63"/><line x1="311.94" y1="118.94" x2="320.33" y2="104.71"/><line x1="207.15" y1="251.62" x2="228.76" y2="228.23"/><line x1="202.81" y1="103.41" x2="211.21" y2="152.50"/><line x1="202.81" y1="103.41" x2="219.00" y2="141.42"/><line x1="306.81" y1="325.95" x2="306.64" y2="324.17"/><line x1="205.15" y1="251.00" x2="204.55" y2="250.60"/><line x1="201.63" y1="353.53" x2="201.24" y2="353.00"/><line x1="222.20" y1="249.38" x2="222.71" y2="248.35"/><line x1="202.96" y1="244.11" x2="221.76" y2="182.83"/><line x1="313.06" y1="333.17" x2="320.75" y2="350.29"/><line x1="202.96" y1="244.11" x2="225.65" y2="197.38"/><line x1="199.48" y1="346.06" x2="199.06" y2="343.70"/><line x1="202.96" y1="244.11" x2="230.34" y2="206.54"/><line x1="192.33" y1="302.51" x2="192.22" y2="301.63"/><line x1="194.12" y1="150.34" x2="193.96" y2="149.19"/><line x1="220.34" y1="251.09" x2="219.45" y2="251.46"/><line x1="227.40" y1="332.20" x2="198.62" y2="341.01"/><line x1="196.49" y1="152.73" x2="193.98" y2="148.82"/><line x1="246.78" y1="226.30" x2="306.64" y2="124.19"/><line x1="32.16" y1="32.09" x2="64.64" y2="32.09"/><line x1="232.16" y1="226.46" x2="233.08" y2="226.33"/><line x1="192.01" y1="298.85" x2="192.21" y2="297.14"/><line x1="228.70" y1="119.73" x2="229.79" y2="118.46"/><line x1="207.15" y1="251.62" x2="226.28" y2="234.38"/><line x1="246.78" y1="207.52" x2="319.62" y2="97.67"/><line x1="212.55" y1="181.78" x2="215.47" y2="181.72"/><line x1="315.94" y1="354.97" x2="314.85" y2="355.01"/><line x1="320.75" y1="350.29" x2="311.10" y2="331.94"/><line x1="226.78" y1="232.61" x2="227.28" y2="231.11"/><line x1="202.96" y1="244.11" x2="218.83" y2="181.70"/><line x1="320.15" y1="100.26" x2="320.25" y2="101.54"/><line x1="320.64" y1="339.51" x2="320.99" y2="340.93"/><line x1="202.96" y1="244.11" x2="223.30" y2="185.92"/><line x1="223.74" y1="245.40" x2="224.25" y2="243.47"/><line x1="227.28" y1="231.11" x2="227.78" y2="229.88"/><line x1="194.29" y1="146.52" x2="201.71" y2="153.53"/><line x1="228.76" y1="228.23" x2="229.29" y2="227.72"/><line x1="226.00" y1="199.10" x2="226.39" y2="200.64"/><line x1="32.00" y1="447.50" x2="64.49" y2="479.98"/></g></svg>