<svg xmlns="http://www.w3.org/2000/svg" width="512" height="512"><rect width="512" height="512" fill="#0a0f1a"/><text x="12" y="20" font-family="monospace" font-size="11" fill="#4a7fa5">FRONT (XZ)</text><g stroke="#00d4ff" stroke-width="0.6" opacity="0.85"><line x1="247.51" y1="125.56" x2="251.17" y2="120.95"/><line x1="299.90" y1="354.17" x2="299.67" y2="355.40"/><line x1="205.64" y1="158.73" x2="257.91" y2="96.38"/><line x1="308.19" y1="285.17" x2="309.77" y2="288.31"/><line x1="263.55" y1="115.26" x2="265.35" y2="115.95"/><line x1="271.46" y1="353.00" x2="272.55" y2="352.42"/><line x1="221.93" y1="166.29" x2="229.46" y2="160.38"/><line x1="201.42" y1="312.89" x2="245.21" y2="336.77"/><line x1="310.59" y1="134.46" x2="308.80" y2="127.96"/><line x1="299.67" y1="355.40" x2="299.41" y2="356.46"/><line x1="229.84" y1="94.91" x2="230.94" y2="95.51"/><line x1="244.22" y1="335.75" x2="243.35" y2="334.61"/><line x1="229.46" y1="160.38" x2="220.17" y2="166.50"/><line x1="309.77" y1="288.31" x2="308.15" y2="299.24"/><line x1="230.94" y1="95.51" x2="231.96" y2="96.28"/><line x1="205.95" y1="156.54" x2="227.39" y2="94.22"/><line x1="279.56" y1="95.68" x2="268.97" y2="130.78"/><line x1="261.08" y1="336.41" x2="278.55" y2="351.66"/><line x1="290.15" y1="360.20" x2="279.48" y2="352.67"/><line x1="205.95" y1="156.54" x2="236.98" y2="102.86"/><line x1="242.26" y1="316.80" x2="243.31" y2="313.37"/><line x1="244.66" y1="309.80" x2="246.31" y2="306.06"/><line x1="308.15" y1="299.24" x2="306.97" y2="284.50"/><line x1="214.88" y1="100.61" x2="214.63" y2="102.01"/><line x1="297.64" y1="359.44" x2="297.10" y2="359.72"/><line x1="308.15" y1="299.24" x2="288.25" y2="285.89"/><line x1="279.56" y1="95.68" x2="242.26" y2="316.80"/><line x1="247.90" y1="360.33" x2="228.12" y2="354.95"/><line x1="213.99" y1="166.65" x2="212.26" y2="166.60"/><line x1="246.31" y1="306.06" x2="248.25" y2="302.18"/><line x1="288.57" y1="99.84" x2="284.18" y2="97.41"/><line x1="297.10" y1="359.72" x2="296.45" y2="359.94"/><line x1="205.64" y1="158.73" x2="274.71" y2="94.65"/><line x1="240.91" y1="326.13" x2="241.06" y2="323.17"/><line x1="212.26" y1="166.60" x2="233.93" y2="151.35"/><line x1="295.33" y1="283.90" x2="292.98" y2="284.21"/><line x1="237.76" y1="103.90" x2="238.40" y2="104.71"/><line x1="260.43" y1="280.79" x2="263.27" y2="276.13"/><line x1="292.98" y1="284.21" x2="291.01" y2="284.64"/><line x1="270.30" y1="353.69" x2="271.46" y2="353.00"/><line x1="279.56" y1="95.68" x2="266.84" y2="117.09"/><line x1="279.90" y1="353.36" x2="279.48" y2="352.67"/><line x1="242.26" y1="316.80" x2="206.45" y2="255.34"/><line x1="205.95" y1="156.54" x2="231.96" y2="96.28"/><line x1="264.07" y1="356.94" x2="219.15" y2="348.21"/><line x1="242.26" y1="316.80" x2="251.56" y2="169.92"/><line x1="263.27" y1="276.13" x2="266.25" y2="271.34"/><line x1="205.95" y1="156.54" x2="239.24" y2="105.64"/><line x1="308.15" y1="299.24" x2="298.07" y2="283.71"/><line x1="216.60" y1="95.79" x2="219.16" y2="94.96"/><line x1="200.91" y1="281.89" x2="201.78" y2="274.94"/><line x1="206.55" y1="165.39" x2="206.17" y2="164.98"/><line x1="205.64" y1="158.73" x2="253.57" y2="98.00"/><line x1="271.46" y1="353.00" x2="202.92" y2="320.26"/><line x1="201.78" y1="274.94" x2="202.99" y2="268.20"/><line x1="295.06" y1="221.58" x2="299.00" y2="213.64"/><line x1="272.55" y1="352.42" x2="252.87" y2="339.59"/><line x1="299.00" y1="213.64" x2="302.32" y2="206.37"/><line x1="279.56" y1="95.68" x2="205.43" y2="160.35"/><line x1="242.26" y1="316.80" x2="200.39" y2="289.04"/><line x1="480.00" y1="32.02" x2="447.51" y2="32.02"/><line x1="205.95" y1="156.54" x2="226.06" y2="94.13"/><line x1="279.56" y1="95.68" x2="269.47" y2="126.25"/><line x1="275.38" y1="351.31" x2="274.51" y2="351.57"/><line x1="242.26" y1="316.80" x2="219.54" y2="226.37"/><line x1="205.36" y1="160.94" x2="279.56" y2="95.68"/><line x1="242.26" y1="316.80" x2="267.48" y2="136.41"/><line x1="219.54" y1="226.37" x2="224.73" y2="216.63"/><line x1="205.64" y1="158.73" x2="269.63" y2="94.30"/><line x1="260.90" y1="358.16" x2="264.07" y2="356.94"/><line x1="272.55" y1="352.42" x2="247.43" y2="338.34"/><line x1="200.39" y1="289.04" x2="200.91" y2="281.89"/><line x1="300.10" y1="352.77" x2="273.34" y2="319.72"/><line x1="207.00" y1="165.71" x2="206.55" y2="165.39"/><line x1="270.30" y1="353.69" x2="207.70" y2="333.22"/><line x1="249.01" y1="100.08" x2="205.64" y2="158.73"/><line x1="279.56" y1="95.68" x2="265.35" y2="115.95"/><line x1="242.26" y1="316.80" x2="204.54" y2="261.67"/><line x1="218.18" y1="166.63" x2="215.95" y2="166.67"/><line x1="242.26" y1="316.80" x2="245.10" y2="181.05"/><line x1="286.11" y1="289.08" x2="285.33" y2="290.75"/><line x1="223.56" y1="351.91" x2="257.70" y2="359.11"/><line x1="276.90" y1="351.10" x2="276.17" y2="351.14"/><line x1="207.70" y1="333.22" x2="271.46" y2="353.00"/><line x1="285.33" y1="290.75" x2="284.48" y2="292.74"/><line x1="221.00" y1="94.71" x2="215.16" y2="99.36"/><line x1="280.28" y1="354.17" x2="283.86" y2="358.32"/><line x1="276.17" y1="351.14" x2="275.38" y2="351.31"/><line x1="271.46" y1="353.00" x2="205.01" y2="327.04"/><line x1="261.08" y1="336.41" x2="299.12" y2="357.37"/><line x1="205.31" y1="161.68" x2="205.32" y2="161.38"/><line x1="261.08" y1="336.41" x2="293.91" y2="360.30"/><line x1="215.16" y1="99.36" x2="214.88" y2="100.61"/><line x1="272.55" y1="352.42" x2="256.98" y2="338.80"/><line x1="274.71" y1="94.65" x2="279.56" y2="95.68"/><line x1="215.13" y1="235.05" x2="219.54" y2="226.37"/><line x1="205.32" y1="161.38" x2="205.36" y2="160.94"/><line x1="300.10" y1="352.77" x2="299.90" y2="354.17"/><line x1="277.41" y1="310.98" x2="273.34" y2="319.72"/><line x1="279.56" y1="95.68" x2="205.52" y2="159.61"/><line x1="242.26" y1="316.80" x2="200.22" y2="296.40"/><line x1="480.00" y1="32.02" x2="480.00" y2="64.50"/><line x1="279.56" y1="95.68" x2="269.30" y2="123.27"/><line x1="225.78" y1="165.14" x2="226.59" y2="164.59"/><line x1="242.26" y1="316.80" x2="215.13" y2="235.05"/><line x1="312.03" y1="171.16" x2="312.68" y2="163.99"/><line x1="273.34" y1="319.72" x2="269.26" y2="326.88"/><line x1="224.86" y1="94.22" x2="225.59" y2="94.15"/><line x1="480.00" y1="479.91" x2="480.00" y2="447.42"/><line x1="249.99" y1="339.28" x2="248.67" y2="338.89"/><line x1="251.17" y1="120.95" x2="254.71" y2="117.66"/><line x1="279.56" y1="95.68" x2="288.57" y2="99.84"/><line x1="225.59" y1="94.15" x2="226.06" y2="94.13"/><line x1="265.35" y1="115.95" x2="266.84" y2="117.09"/><line x1="257.03" y1="159.90" x2="261.51" y2="150.97"/><line x1="261.08" y1="336.41" x2="297.64" y2="359.44"/><line x1="299.41" y1="356.46" x2="299.12" y2="357.37"/><line x1="266.84" y1="117.09" x2="267.99" y2="118.69"/><line x1="447.51" y1="479.91" x2="480.00" y2="447.42"/><line x1="300.10" y1="352.77" x2="277.41" y2="310.98"/><line x1="306.49" y1="121.93" x2="303.68" y2="116.37"/><line x1="299.12" y1="357.37" x2="298.81" y2="358.12"/><line x1="279.56" y1="95.68" x2="263.55" y2="115.26"/><line x1="242.60" y1="333.39" x2="241.99" y2="332.10"/><line x1="242.26" y1="316.80" x2="202.99" y2="268.20"/><line x1="218.18" y1="166.63" x2="230.77" y2="157.91"/><line x1="232.91" y1="97.23" x2="233.78" y2="98.34"/><line x1="223.56" y1="351.91" x2="254.47" y2="359.78"/><line x1="233.93" y1="151.35" x2="209.47" y2="166.36"/><line x1="248.25" y1="302.18" x2="250.42" y2="298.16"/><line x1="279.56" y1="95.68" x2="309.44" y2="185.37"/><line x1="305.40" y1="284.03" x2="303.47" y2="283.75"/><line x1="233.93" y1="151.35" x2="205.34" y2="162.52"/><line x1="279.56" y1="95.68" x2="306.49" y2="121.93"/><line x1="280.28" y1="354.17" x2="281.17" y2="355.81"/><line x1="261.08" y1="336.41" x2="299.41" y2="356.46"/><line x1="261.08" y1="336.41" x2="294.86" y2="360.23"/><line x1="219.15" y1="348.21" x2="270.30" y2="353.69"/><line x1="300.10" y1="352.77" x2="261.08" y2="336.41"/><line x1="279.56" y1="95.68" x2="255.16" y2="289.73"/><line x1="480.00" y1="479.91" x2="447.51" y2="479.91"/><line x1="279.56" y1="95.68" x2="295.06" y2="221.58"/><line x1="223.56" y1="351.91" x2="219.15" y2="348.21"/><line x1="233.93" y1="151.35" x2="206.55" y2="165.39"/><line x1="279.56" y1="95.68" x2="312.90" y2="156.78"/><line x1="233.93" y1="151.35" x2="235.77" y2="147.27"/><line x1="279.56" y1="95.68" x2="292.72" y2="102.96"/><line x1="280.28" y1="354.17" x2="279.90" y2="353.36"/><line x1="220.17" y1="166.50" x2="218.18" y2="166.63"/><line x1="283.55" y1="295.05" x2="282.55" y2="297.69"/><line x1="261.08" y1="336.41" x2="298.08" y2="359.13"/><line x1="231.96" y1="96.28" x2="232.91" y2="97.23"/><line x1="202.92" y1="320.26" x2="201.42" y2="312.89"/><line x1="300.10" y1="352.77" x2="281.48" y2="300.64"/><line x1="306.97" y1="284.50" x2="305.40" y2="284.03"/><line x1="222.56" y1="94.50" x2="205.95" y2="156.54"/><line x1="254.71" y1="117.66" x2="279.56" y2="95.68"/><line x1="228.12" y1="354.95" x2="223.56" y2="351.91"/><line x1="296.45" y1="359.94" x2="295.70" y2="360.11"/><line x1="279.56" y1="95.68" x2="244.66" y2="309.80"/><line x1="228.33" y1="162.33" x2="229.46" y2="160.38"/><line x1="279.56" y1="95.68" x2="266.25" y2="271.34"/><line x1="233.93" y1="151.35" x2="210.75" y2="166.49"/><line x1="279.56" y1="95.68" x2="307.50" y2="192.42"/><line x1="233.93" y1="151.35" x2="205.45" y2="163.26"/><line x1="279.56" y1="95.68" x2="308.80" y2="127.96"/><line x1="295.70" y1="360.11" x2="294.86" y2="360.23"/><line x1="201.42" y1="312.89" x2="241.06" y2="323.17"/><line x1="241.51" y1="320.06" x2="242.26" y2="316.80"/><line x1="210.75" y1="166.49" x2="209.47" y2="166.36"/><line x1="261.08" y1="336.41" x2="299.67" y2="355.40"/><line x1="291.01" y1="284.64" x2="289.44" y2="285.20"/><line x1="238.89" y1="105.29" x2="239.24" y2="105.64"/><line x1="242.73" y1="360.00" x2="247.90" y2="360.33"/><line x1="219.15" y1="348.21" x2="267.20" y2="355.45"/><line x1="266.25" y1="271.34" x2="273.23" y2="260.05"/><line x1="289.44" y1="285.20" x2="288.25" y2="285.89"/><line x1="219.16" y1="94.96" x2="217.05" y2="95.25"/><line x1="232.85" y1="357.30" x2="228.12" y2="354.95"/><line x1="279.03" y1="352.10" x2="278.55" y2="351.66"/><line x1="267.20" y1="355.45" x2="270.30" y2="353.69"/><line x1="206.17" y1="164.98" x2="205.86" y2="164.50"/><line x1="279.56" y1="95.68" x2="252.72" y2="294.01"/><line x1="232.26" y1="154.90" x2="233.93" y2="151.35"/><line x1="202.99" y1="268.20" x2="204.54" y2="261.67"/><line x1="279.56" y1="95.68" x2="290.52" y2="230.20"/><line x1="205.86" y1="164.50" x2="205.62" y2="163.92"/><line x1="282.36" y1="357.19" x2="280.28" y2="354.17"/><line x1="233.93" y1="151.35" x2="207.00" y2="165.71"/><line x1="284.48" y1="292.74" x2="283.55" y2="295.05"/><line x1="279.56" y1="95.68" x2="312.68" y2="163.99"/><line x1="233.93" y1="151.35" x2="205.36" y2="160.94"/><line x1="257.91" y1="96.38" x2="262.03" y2="95.22"/><line x1="201.42" y1="312.89" x2="241.99" y2="332.10"/><line x1="205.01" y1="327.04" x2="202.92" y2="320.26"/><line x1="205.36" y1="160.94" x2="239.81" y2="138.71"/><line x1="302.32" y1="206.37" x2="305.12" y2="199.41"/><line x1="283.55" y1="295.05" x2="300.10" y2="352.77"/><line x1="241.06" y1="323.17" x2="241.51" y2="320.06"/><line x1="274.51" y1="351.57" x2="273.56" y2="351.94"/><line x1="202.92" y1="320.26" x2="272.55" y2="352.42"/><line x1="238.40" y1="104.71" x2="238.89" y2="105.29"/><line x1="261.08" y1="336.41" x2="276.17" y2="351.14"/><line x1="222.56" y1="94.50" x2="214.63" y2="102.01"/><line x1="219.16" y1="94.96" x2="221.00" y2="94.71"/><line x1="224.73" y1="165.61" x2="223.45" y2="166.00"/><line x1="224.73" y1="216.63" x2="230.73" y2="205.83"/><line x1="308.15" y1="299.24" x2="285.33" y2="290.75"/><line x1="235.77" y1="147.27" x2="239.81" y2="138.71"/><line x1="279.48" y1="352.67" x2="279.03" y2="352.10"/><line x1="279.56" y1="95.68" x2="243.31" y2="313.37"/><line x1="228.33" y1="162.33" x2="221.93" y2="166.29"/><line x1="279.56" y1="95.68" x2="263.27" y2="276.13"/><line x1="308.19" y1="285.17" x2="309.07" y2="286.03"/><line x1="312.90" y1="156.78" x2="312.64" y2="148.87"/><line x1="279.56" y1="95.68" x2="305.12" y2="199.41"/><line x1="265.17" y1="332.44" x2="261.08" y2="336.41"/><line x1="201.42" y1="312.89" x2="246.28" y2="337.63"/><line x1="247.43" y1="338.34" x2="246.28" y2="337.63"/><line x1="201.42" y1="312.89" x2="240.91" y2="326.13"/><line x1="253.57" y1="98.00" x2="257.91" y2="96.38"/><line x1="309.59" y1="287.07" x2="309.77" y2="288.31"/><line x1="205.36" y1="160.94" x2="254.71" y2="117.66"/><line x1="242.73" y1="360.00" x2="237.71" y2="358.99"/><line x1="230.77" y1="157.91" x2="232.26" y2="154.90"/><line x1="264.99" y1="143.14" x2="267.48" y2="136.41"/><line x1="290.15" y1="360.20" x2="279.90" y2="353.36"/><line x1="205.95" y1="156.54" x2="236.06" y2="101.58"/><line x1="261.08" y1="336.41" x2="256.98" y2="338.80"/><line x1="227.37" y1="163.73" x2="228.33" y2="162.33"/><line x1="214.88" y1="100.61" x2="222.56" y2="94.50"/><line x1="215.95" y1="166.67" x2="213.99" y2="166.65"/><line x1="308.15" y1="299.24" x2="289.44" y2="285.20"/><line x1="279.56" y1="95.68" x2="250.42" y2="298.16"/><line x1="201.42" y1="312.89" x2="242.60" y2="333.39"/><line x1="201.42" y1="312.89" x2="200.52" y2="304.94"/><line x1="205.36" y1="160.94" x2="235.77" y2="147.27"/><line x1="480.00" y1="64.50" x2="447.51" y2="32.02"/><line x1="290.15" y1="360.20" x2="280.28" y2="354.17"/><line x1="205.95" y1="156.54" x2="230.94" y2="95.51"/><line x1="261.08" y1="336.41" x2="276.90" y2="351.10"/><line x1="244.23" y1="102.63" x2="249.01" y2="100.08"/><line x1="205.95" y1="156.54" x2="238.89" y2="105.29"/><line x1="308.15" y1="299.24" x2="301.20" y2="283.65"/><line x1="224.73" y1="165.61" x2="228.33" y2="162.33"/><line x1="308.15" y1="299.24" x2="286.11" y2="289.08"/><line x1="279.56" y1="95.68" x2="267.48" y2="136.41"/><line x1="308.19" y1="285.17" x2="309.59" y2="287.07"/><line x1="227.39" y1="94.22" x2="228.66" y2="94.47"/><line x1="201.42" y1="312.89" x2="247.43" y2="338.34"/><line x1="201.42" y1="312.89" x2="240.97" y2="327.75"/><line x1="205.36" y1="160.94" x2="251.17" y2="120.95"/><line x1="268.81" y1="120.76" x2="269.30" y2="123.27"/><line x1="230.77" y1="157.91" x2="215.95" y2="166.67"/><line x1="300.35" y1="111.28" x2="296.65" y2="106.78"/><line x1="205.95" y1="156.54" x2="225.59" y2="94.15"/><line x1="290.15" y1="360.20" x2="287.75" y2="359.83"/><line x1="205.95" y1="156.54" x2="234.99" y2="100.08"/><line x1="261.08" y1="336.41" x2="273.56" y2="351.94"/><line x1="242.26" y1="316.80" x2="264.99" y2="143.14"/><line x1="227.37" y1="163.73" x2="224.73" y2="165.61"/><line x1="241.52" y1="330.73" x2="241.18" y2="329.28"/><line x1="308.15" y1="299.24" x2="291.01" y2="284.64"/><line x1="205.52" y1="159.61" x2="205.43" y2="160.35"/><line x1="308.15" y1="299.24" x2="300.10" y2="352.77"/><line x1="234.99" y1="100.08" x2="236.06" y2="101.58"/><line x1="312.68" y1="163.99" x2="312.90" y2="156.78"/><line x1="269.26" y1="326.88" x2="265.17" y2="332.44"/><line x1="251.20" y1="360.19" x2="254.47" y2="359.78"/><line x1="252.72" y1="294.01" x2="255.16" y2="289.73"/><line x1="205.64" y1="158.73" x2="265.94" y2="94.53"/><line x1="248.67" y1="338.89" x2="247.43" y2="338.34"/><line x1="308.19" y1="285.17" x2="306.97" y2="284.50"/><line x1="283.86" y1="358.32" x2="285.65" y2="359.20"/><line x1="226.06" y1="94.13" x2="227.39" y2="94.22"/><line x1="272.55" y1="352.42" x2="248.67" y2="338.89"/><line x1="293.91" y1="360.30" x2="292.85" y2="360.33"/><line x1="261.51" y1="150.97" x2="264.99" y2="143.14"/><line x1="229.46" y1="160.38" x2="230.77" y2="157.91"/><line x1="270.30" y1="353.69" x2="210.99" y2="338.82"/><line x1="200.52" y1="304.94" x2="200.22" y2="296.40"/><line x1="267.99" y1="118.69" x2="268.81" y2="120.76"/><line x1="205.95" y1="156.54" x2="229.84" y2="94.91"/><line x1="261.08" y1="336.41" x2="277.49" y2="351.16"/><line x1="244.23" y1="102.63" x2="205.78" y2="157.71"/><line x1="242.26" y1="316.80" x2="237.52" y2="193.97"/><line x1="303.68" y1="116.37" x2="300.35" y2="111.28"/><line x1="205.95" y1="156.54" x2="238.40" y2="104.71"/><line x1="298.81" y1="358.12" x2="298.46" y2="358.70"/><line x1="308.15" y1="299.24" x2="303.47" y2="283.75"/><line x1="279.60" y1="249.42" x2="285.36" y2="239.47"/><line x1="287.46" y1="286.69" x2="286.82" y2="287.72"/><line x1="241.99" y1="332.10" x2="241.52" y2="330.73"/><line x1="247.90" y1="360.33" x2="251.20" y2="360.19"/><line x1="278.03" y1="351.34" x2="277.49" y2="351.16"/><line x1="233.78" y1="98.34" x2="234.99" y2="100.08"/><line x1="215.82" y1="97.28" x2="215.47" y2="98.25"/><line x1="205.64" y1="158.73" x2="205.52" y2="159.61"/><line x1="250.42" y1="298.16" x2="252.72" y2="294.01"/><line x1="303.47" y1="283.75" x2="301.20" y2="283.65"/><line x1="32.16" y1="32.09" x2="32.16" y2="64.58"/><line x1="206.45" y1="255.34" x2="208.70" y2="249.22"/><line x1="272.55" y1="352.42" x2="273.56" y2="351.94"/><line x1="265.94" y1="94.53" x2="269.63" y2="94.30"/><line x1="294.86" y1="360.23" x2="293.91" y2="360.30"/><line x1="307.50" y1="192.42" x2="309.44" y2="185.37"/><line x1="242.26" y1="316.80" x2="200.52" y2="304.94"/><line x1="205.95" y1="156.54" x2="224.86" y2="94.22"/><line x1="209.47" y1="166.36" x2="208.42" y2="166.18"/><line x1="279.56" y1="95.68" x2="268.81" y2="120.76"/><line x1="242.26" y1="316.80" x2="211.52" y2="242.66"/><line x1="205.95" y1="156.54" x2="233.78" y2="98.34"/><line x1="242.26" y1="316.80" x2="261.51" y2="150.97"/><line x1="239.24" y1="105.64" x2="244.23" y2="102.63"/><line x1="216.60" y1="95.79" x2="216.19" y2="96.46"/><line x1="273.23" y1="260.05" x2="279.60" y2="249.42"/><line x1="205.64" y1="158.73" x2="262.03" y2="95.22"/><line x1="221.93" y1="166.29" x2="220.17" y2="166.50"/><line x1="272.55" y1="352.42" x2="249.99" y2="339.28"/><line x1="270.30" y1="353.69" x2="214.88" y2="343.83"/><line x1="279.56" y1="95.68" x2="261.41" y2="115.03"/><line x1="242.26" y1="316.80" x2="201.78" y2="274.94"/><line x1="205.95" y1="156.54" x2="228.66" y2="94.47"/><line x1="242.26" y1="316.80" x2="230.73" y2="205.83"/><line x1="205.36" y1="160.94" x2="205.43" y2="160.35"/><line x1="223.56" y1="351.91" x2="251.20" y2="360.19"/><line x1="32.00" y1="479.98" x2="64.49" y2="479.98"/><line x1="205.64" y1="158.73" x2="279.56" y2="95.68"/><line x1="261.08" y1="336.41" x2="295.70" y2="360.11"/><line x1="300.10" y1="352.77" x2="265.17" y2="332.44"/><line x1="279.56" y1="95.68" x2="267.99" y2="118.69"/><line x1="242.26" y1="316.80" x2="208.70" y2="249.22"/><line x1="288.25" y1="285.89" x2="287.46" y2="286.69"/><line x1="242.26" y1="316.80" x2="257.03" y2="159.90"/><line x1="237.52" y1="193.97" x2="245.10" y2="181.05"/><line x1="278.55" y1="351.66" x2="278.03" y2="351.34"/><line x1="223.56" y1="351.91" x2="264.07" y2="356.94"/><line x1="216.19" y1="96.46" x2="215.82" y2="97.28"/><line x1="279.56" y1="95.68" x2="296.65" y2="106.78"/><line x1="311.87" y1="141.43" x2="310.59" y2="134.46"/><line x1="221.00" y1="94.71" x2="222.56" y2="94.50"/><line x1="280.28" y1="354.17" x2="287.75" y2="359.83"/><line x1="204.54" y1="261.67" x2="206.45" y2="255.34"/><line x1="205.62" y1="163.92" x2="205.45" y2="163.26"/><line x1="261.08" y1="336.41" x2="298.46" y2="358.70"/><line x1="245.21" y1="336.77" x2="244.22" y2="335.75"/><line x1="261.08" y1="336.41" x2="290.15" y2="360.20"/><line x1="262.03" y1="95.22" x2="265.94" y2="94.53"/><line x1="272.55" y1="352.42" x2="251.39" y2="339.52"/><line x1="305.12" y1="199.41" x2="307.50" y2="192.42"/><line x1="300.10" y1="352.77" x2="282.55" y2="297.69"/><line x1="243.31" y1="313.37" x2="244.66" y2="309.80"/><line x1="272.55" y1="352.42" x2="201.42" y2="312.89"/><line x1="279.56" y1="95.68" x2="258.12" y2="115.69"/><line x1="242.26" y1="316.80" x2="200.91" y2="281.89"/><line x1="269.47" y1="126.25" x2="268.97" y2="130.78"/><line x1="242.26" y1="316.80" x2="224.73" y2="216.63"/><line x1="214.63" y1="102.01" x2="205.95" y2="156.54"/><line x1="230.73" y1="205.83" x2="237.52" y2="193.97"/><line x1="239.81" y1="138.71" x2="243.72" y2="131.48"/><line x1="233.93" y1="151.35" x2="205.62" y2="163.92"/><line x1="240.97" y1="327.75" x2="240.91" y2="326.13"/><line x1="279.56" y1="95.68" x2="310.59" y2="134.46"/><line x1="258.12" y1="115.69" x2="261.41" y2="115.03"/><line x1="32.00" y1="479.98" x2="32.00" y2="447.50"/><line x1="236.98" y1="102.86" x2="237.76" y2="103.90"/><line x1="312.64" y1="148.87" x2="311.87" y2="141.43"/><line x1="261.08" y1="336.41" x2="299.90" y2="354.17"/><line x1="261.08" y1="336.41" x2="296.45" y2="359.94"/><line x1="246.28" y1="337.63" x2="245.21" y2="336.77"/><line x1="223.45" y1="166.00" x2="221.93" y2="166.29"/><line x1="300.10" y1="352.77" x2="269.26" y2="326.88"/><line x1="228.66" y1="94.47" x2="229.84" y2="94.91"/><line x1="254.71" y1="117.66" x2="258.12" y2="115.69"/><line x1="232.85" y1="357.30" x2="247.90" y2="360.33"/><line x1="249.01" y1="100.08" x2="253.57" y2="98.00"/><line x1="269.30" y1="123.27" x2="269.47" y2="126.25"/><line x1="232.26" y1="154.90" x2="212.26" y2="166.60"/><line x1="279.56" y1="95.68" x2="285.36" y2="239.47"/><line x1="296.65" y1="106.78" x2="292.72" y2="102.96"/><line x1="223.56" y1="351.91" x2="260.90" y2="358.16"/><line x1="233.93" y1="151.35" x2="207.60" y2="165.96"/><line x1="279.56" y1="95.68" x2="312.03" y2="171.16"/><line x1="207.70" y1="333.22" x2="205.01" y2="327.04"/><line x1="233.93" y1="151.35" x2="205.32" y2="161.38"/><line x1="279.56" y1="95.68" x2="300.35" y2="111.28"/><line x1="241.18" y1="329.28" x2="240.97" y2="327.75"/><line x1="221.00" y1="94.71" x2="214.88" y2="100.61"/><line x1="280.28" y1="354.17" x2="285.65" y2="359.20"/><line x1="292.72" y1="102.96" x2="288.57" y2="99.84"/><line x1="261.08" y1="336.41" x2="298.81" y2="358.12"/><line x1="261.08" y1="336.41" x2="292.85" y2="360.33"/><line x1="219.16" y1="94.96" x2="215.47" y2="98.25"/><line x1="257.73" y1="285.32" x2="260.43" y2="280.79"/><line x1="225.78" y1="165.14" x2="224.73" y2="165.61"/><line x1="205.78" y1="157.71" x2="205.64" y2="158.73"/><line x1="228.33" y1="162.33" x2="223.45" y2="166.00"/><line x1="279.56" y1="95.68" x2="260.43" y2="280.79"/><line x1="279.56" y1="95.68" x2="302.32" y2="206.37"/><line x1="233.93" y1="151.35" x2="205.86" y2="164.50"/><line x1="279.56" y1="95.68" x2="311.87" y2="141.43"/><line x1="279.56" y1="95.68" x2="284.18" y2="97.41"/><line x1="309.59" y1="287.07" x2="309.07" y2="286.03"/><line x1="215.47" y1="98.25" x2="215.16" y2="99.36"/><line x1="261.08" y1="336.41" x2="297.10" y2="359.72"/><line x1="242.73" y1="360.00" x2="232.85" y2="357.30"/><line x1="298.46" y1="358.70" x2="298.08" y2="359.13"/><line x1="232.85" y1="357.30" x2="237.71" y2="358.99"/><line x1="215.95" y1="166.67" x2="232.26" y2="154.90"/><line x1="298.08" y1="359.13" x2="297.64" y2="359.44"/><line x1="279.56" y1="95.68" x2="248.25" y2="302.18"/><line x1="232.26" y1="154.90" x2="213.99" y2="166.65"/><line x1="301.20" y1="283.65" x2="298.07" y2="283.71"/><line x1="279.56" y1="95.68" x2="279.60" y2="249.42"/><line x1="233.93" y1="151.35" x2="208.42" y2="166.18"/><line x1="279.56" y1="95.68" x2="310.96" y2="178.29"/><line x1="236.06" y1="101.58" x2="236.98" y2="102.86"/><line x1="233.93" y1="151.35" x2="205.31" y2="161.68"/><line x1="279.56" y1="95.68" x2="303.68" y2="116.37"/><line x1="254.47" y1="359.78" x2="257.70" y2="359.11"/><line x1="201.42" y1="312.89" x2="243.35" y2="334.61"/><line x1="255.16" y1="289.73" x2="257.73" y2="285.32"/><line x1="201.42" y1="312.89" x2="242.26" y2="316.80"/><line x1="298.07" y1="283.71" x2="295.33" y2="283.90"/><line x1="285.65" y1="359.20" x2="287.75" y2="359.83"/><line x1="257.70" y1="359.11" x2="260.90" y2="358.16"/><line x1="208.42" y1="166.18" x2="207.60" y2="165.96"/><line x1="219.15" y1="348.21" x2="214.88" y2="343.83"/><line x1="292.85" y1="360.33" x2="290.15" y2="360.20"/><line x1="290.15" y1="360.20" x2="278.55" y2="351.66"/><line x1="219.16" y1="94.96" x2="215.82" y2="97.28"/><line x1="200.22" y1="296.40" x2="200.39" y2="289.04"/><line x1="207.60" y1="165.96" x2="207.00" y2="165.71"/><line x1="308.15" y1="299.24" x2="286.82" y2="287.72"/><line x1="205.78" y1="157.71" x2="249.01" y2="100.08"/><line x1="272.55" y1="352.42" x2="261.08" y2="336.41"/><line x1="214.88" y1="343.83" x2="210.99" y2="338.82"/><line x1="285.36" y1="239.47" x2="290.52" y2="230.20"/><line x1="279.56" y1="95.68" x2="257.73" y2="285.32"/><line x1="286.82" y1="287.72" x2="286.11" y2="289.08"/><line x1="279.56" y1="95.68" x2="299.00" y2="213.64"/><line x1="282.36" y1="357.19" x2="283.86" y2="358.32"/><line x1="233.93" y1="151.35" x2="206.17" y2="164.98"/><line x1="279.56" y1="95.68" x2="312.64" y2="148.87"/><line x1="277.49" y1="351.16" x2="276.90" y2="351.10"/><line x1="210.99" y1="338.82" x2="207.70" y2="333.22"/><line x1="268.97" y1="130.78" x2="267.48" y2="136.41"/><line x1="201.42" y1="312.89" x2="241.18" y2="329.28"/><line x1="290.52" y1="230.20" x2="295.06" y2="221.58"/><line x1="215.47" y1="98.25" x2="221.00" y2="94.71"/><line x1="205.36" y1="160.94" x2="247.51" y2="125.56"/><line x1="208.70" y1="249.22" x2="211.52" y2="242.66"/><line x1="205.34" y1="162.52" x2="205.31" y2="161.68"/><line x1="269.63" y1="94.30" x2="274.71" y2="94.65"/><line x1="261.08" y1="336.41" x2="274.51" y2="351.57"/><line x1="64.64" y1="32.09" x2="32.16" y2="64.58"/><line x1="222.56" y1="94.50" x2="223.85" y2="94.34"/><line x1="205.95" y1="156.54" x2="205.78" y2="157.71"/><line x1="227.37" y1="163.73" x2="226.59" y2="164.59"/><line x1="211.52" y1="242.66" x2="215.13" y2="235.05"/><line x1="309.44" y1="185.37" x2="310.96" y2="178.29"/><line x1="308.15" y1="299.24" x2="292.98" y2="284.21"/><line x1="281.48" y1="300.64" x2="277.41" y2="310.98"/><line x1="308.15" y1="299.24" x2="283.55" y2="295.05"/><line x1="252.87" y1="339.59" x2="251.39" y2="339.52"/><line x1="279.56" y1="95.68" x2="246.31" y2="306.06"/><line x1="310.96" y1="178.29" x2="312.03" y2="171.16"/><line x1="279.56" y1="95.68" x2="273.23" y2="260.05"/><line x1="223.85" y1="94.34" x2="224.86" y2="94.22"/><line x1="308.19" y1="285.17" x2="308.15" y2="299.24"/><line x1="251.39" y1="339.52" x2="249.99" y2="339.28"/><line x1="245.10" y1="181.05" x2="251.56" y2="169.92"/><line x1="201.42" y1="312.89" x2="244.22" y2="335.75"/><line x1="201.42" y1="312.89" x2="241.51" y2="320.06"/><line x1="229.46" y1="160.38" x2="218.18" y2="166.63"/><line x1="251.56" y1="169.92" x2="257.03" y2="159.90"/><line x1="261.08" y1="336.41" x2="278.03" y2="351.34"/><line x1="290.15" y1="360.20" x2="279.03" y2="352.10"/><line x1="205.95" y1="156.54" x2="237.76" y2="103.90"/><line x1="219.16" y1="94.96" x2="216.19" y2="96.46"/><line x1="308.15" y1="299.24" x2="305.40" y2="284.03"/><line x1="308.80" y1="127.96" x2="306.49" y2="121.93"/><line x1="308.15" y1="299.24" x2="287.46" y2="286.69"/><line x1="247.90" y1="360.33" x2="223.56" y2="351.91"/><line x1="243.35" y1="334.61" x2="242.60" y2="333.39"/><line x1="205.45" y1="163.26" x2="205.34" y2="162.52"/><line x1="282.36" y1="357.19" x2="281.17" y2="355.81"/><line x1="32.16" y1="32.09" x2="64.64" y2="32.09"/><line x1="212.26" y1="166.60" x2="210.75" y2="166.49"/><line x1="201.42" y1="312.89" x2="241.52" y2="330.73"/><line x1="282.55" y1="297.69" x2="281.48" y2="300.64"/><line x1="205.36" y1="160.94" x2="243.72" y2="131.48"/><line x1="256.98" y1="338.80" x2="252.87" y2="339.59"/><line x1="205.95" y1="156.54" x2="223.85" y2="94.34"/><line x1="205.95" y1="156.54" x2="232.91" y2="97.23"/><line x1="264.07" y1="356.94" x2="267.20" y2="355.45"/><line x1="261.08" y1="336.41" x2="275.38" y2="351.31"/><line x1="205.95" y1="156.54" x2="244.23" y2="102.63"/><line x1="227.37" y1="163.73" x2="225.78" y2="165.14"/><line x1="243.72" y1="131.48" x2="247.51" y2="125.56"/><line x1="308.15" y1="299.24" x2="295.33" y2="283.90"/><line x1="216.60" y1="95.79" x2="217.05" y2="95.25"/><line x1="308.15" y1="299.24" x2="284.48" y2="292.74"/><line x1="261.41" y1="115.03" x2="263.55" y2="115.26"/><line x1="32.00" y1="447.50" x2="64.49" y2="479.98"/></g></svg>