<svg xmlns="http://www.w3.org/2000/svg" width="512" height="512"><rect width="512" height="512" fill="#0a0f1a"/><text x="12" y="20" font-family="monospace" font-size="11" fill="#4a7fa5">FRONT (XZ)</text><g stroke="#00d4ff" stroke-width="0.6" opacity="0.85"><line x1="284.62" y1="324.44" x2="284.36" y2="326.28"/><line x1="296.74" y1="103.56" x2="282.03" y2="123.45"/><line x1="205.34" y1="121.55" x2="254.07" y2="139.51"/><line x1="282.88" y1="208.28" x2="298.59" y2="227.43"/><line x1="290.62" y1="100.51" x2="284.01" y2="98.13"/><line x1="282.88" y1="208.28" x2="278.74" y2="207.96"/><line x1="279.43" y1="229.88" x2="276.71" y2="230.05"/><line x1="323.53" y1="160.46" x2="281.49" y2="151.66"/><line x1="282.89" y1="308.93" x2="325.60" y2="315.18"/><line x1="254.07" y1="139.51" x2="201.38" y2="127.67"/><line x1="282.11" y1="296.74" x2="281.99" y2="299.70"/><line x1="281.49" y1="151.66" x2="324.14" y2="157.27"/><line x1="284.01" y1="98.13" x2="277.08" y2="119.03"/><line x1="272.56" y1="338.81" x2="270.58" y2="339.11"/><line x1="299.03" y1="212.24" x2="294.34" y2="208.68"/><line x1="323.88" y1="321.15" x2="321.46" y2="326.89"/><line x1="255.95" y1="241.13" x2="254.71" y2="243.33"/><line x1="322.61" y1="285.24" x2="301.23" y2="274.80"/><line x1="277.08" y1="119.03" x2="275.63" y2="118.30"/><line x1="253.53" y1="183.56" x2="253.92" y2="187.58"/><line x1="193.83" y1="147.04" x2="253.10" y2="159.48"/><line x1="268.82" y1="206.24" x2="268.55" y2="231.29"/><line x1="307.66" y1="179.28" x2="316.83" y2="173.75"/><line x1="324.28" y1="144.20" x2="282.90" y2="143.21"/><line x1="301.23" y1="274.80" x2="323.94" y2="287.77"/><line x1="321.46" y1="326.89" x2="284.40" y2="318.02"/><line x1="253.10" y1="159.48" x2="192.76" y2="153.84"/><line x1="253.92" y1="187.58" x2="254.42" y2="190.96"/><line x1="282.88" y1="208.28" x2="295.29" y2="229.72"/><line x1="282.90" y1="143.21" x2="323.23" y2="138.23"/><line x1="280.24" y1="358.53" x2="272.91" y2="359.59"/><line x1="270.92" y1="117.07" x2="269.23" y2="116.99"/><line x1="284.40" y1="318.02" x2="284.54" y2="319.19"/><line x1="253.42" y1="359.19" x2="260.83" y2="337.66"/><line x1="299.61" y1="216.44" x2="299.59" y2="216.76"/><line x1="289.52" y1="279.96" x2="287.77" y2="281.88"/><line x1="269.23" y1="116.99" x2="261.24" y2="95.08"/><line x1="260.83" y1="337.66" x2="247.70" y2="358.25"/><line x1="262.27" y1="203.35" x2="261.97" y2="234.74"/><line x1="297.19" y1="179.53" x2="321.57" y2="166.32"/><line x1="287.77" y1="281.88" x2="286.24" y2="284.01"/><line x1="314.56" y1="337.66" x2="284.62" y2="324.44"/><line x1="196.27" y1="181.46" x2="253.09" y2="173.69"/><line x1="196.71" y1="324.70" x2="199.90" y2="329.35"/><line x1="284.08" y1="135.45" x2="284.23" y2="133.90"/><line x1="243.33" y1="96.76" x2="235.36" y2="98.85"/><line x1="284.62" y1="324.44" x2="310.07" y2="342.71"/><line x1="292.44" y1="208.53" x2="287.45" y2="208.47"/><line x1="252.30" y1="328.18" x2="251.21" y2="325.16"/><line x1="282.88" y1="208.28" x2="298.95" y2="226.38"/><line x1="287.45" y1="208.47" x2="299.50" y2="217.73"/><line x1="282.88" y1="208.28" x2="282.46" y2="229.76"/><line x1="199.90" y1="329.35" x2="203.40" y2="333.69"/><line x1="325.04" y1="290.45" x2="282.11" y2="296.74"/><line x1="299.51" y1="351.14" x2="281.55" y2="332.87"/><line x1="211.93" y1="203.16" x2="216.43" y2="206.62"/><line x1="251.21" y1="325.16" x2="250.32" y2="321.72"/><line x1="318.35" y1="332.39" x2="284.71" y2="322.50"/><line x1="307.50" y1="111.71" x2="283.51" y2="126.29"/><line x1="282.11" y1="296.74" x2="325.89" y2="293.27"/><line x1="253.04" y1="167.81" x2="194.58" y2="176.56"/><line x1="480.00" y1="32.02" x2="447.51" y2="32.02"/><line x1="255.95" y1="241.13" x2="256.63" y2="197.63"/><line x1="282.13" y1="302.67" x2="282.31" y2="304.51"/><line x1="255.37" y1="130.40" x2="254.66" y2="134.54"/><line x1="312.61" y1="276.15" x2="310.00" y2="275.32"/><line x1="282.52" y1="331.35" x2="281.55" y2="332.87"/><line x1="252.59" y1="248.47" x2="251.72" y2="251.43"/><line x1="231.13" y1="353.17" x2="236.56" y2="355.24"/><line x1="326.98" y1="302.54" x2="326.63" y2="308.98"/><line x1="277.68" y1="336.71" x2="276.11" y2="337.60"/><line x1="215.37" y1="110.16" x2="210.01" y2="115.60"/><line x1="282.88" y1="208.28" x2="296.39" y2="229.44"/><line x1="319.23" y1="280.66" x2="321.03" y2="282.83"/><line x1="299.51" y1="179.87" x2="297.19" y2="179.53"/><line x1="281.01" y1="122.17" x2="279.80" y2="120.98"/><line x1="280.24" y1="358.53" x2="274.40" y2="338.31"/><line x1="194.58" y1="176.56" x2="196.27" y2="181.46"/><line x1="275.01" y1="207.52" x2="271.70" y2="206.94"/><line x1="310.00" y1="275.32" x2="307.18" y2="274.82"/><line x1="193.91" y1="319.79" x2="196.71" y2="324.70"/><line x1="319.04" y1="126.96" x2="284.08" y2="135.45"/><line x1="253.62" y1="145.33" x2="253.30" y2="151.99"/><line x1="274.27" y1="230.27" x2="272.11" y2="230.54"/><line x1="299.14" y1="225.14" x2="282.88" y2="208.28"/><line x1="204.90" y1="238.02" x2="187.31" y2="271.43"/><line x1="324.51" y1="153.92" x2="324.63" y2="150.40"/><line x1="283.75" y1="314.31" x2="284.01" y2="315.58"/><line x1="253.92" y1="187.58" x2="238.77" y2="216.93"/><line x1="265.13" y1="359.94" x2="265.71" y2="339.03"/><line x1="198.15" y1="133.96" x2="195.63" y2="140.42"/><line x1="260.16" y1="120.29" x2="243.33" y2="96.76"/><line x1="299.47" y1="213.87" x2="299.61" y2="215.79"/><line x1="257.72" y1="199.26" x2="257.32" y2="239.19"/><line x1="323.94" y1="287.77" x2="295.96" y2="275.98"/><line x1="287.05" y1="174.54" x2="285.40" y2="172.91"/><line x1="276.90" y1="96.44" x2="272.55" y2="117.31"/><line x1="323.94" y1="287.77" x2="282.46" y2="293.92"/><line x1="243.33" y1="96.76" x2="258.57" y2="122.15"/><line x1="292.44" y1="208.53" x2="299.61" y2="216.11"/><line x1="207.88" y1="199.36" x2="211.93" y2="203.16"/><line x1="266.36" y1="205.41" x2="265.22" y2="232.67"/><line x1="287.45" y1="208.47" x2="299.54" y2="217.41"/><line x1="257.32" y1="239.19" x2="255.95" y2="241.13"/><line x1="285.40" y1="172.91" x2="283.99" y2="171.12"/><line x1="284.54" y1="319.19" x2="284.64" y2="320.33"/><line x1="284.25" y1="129.48" x2="307.50" y2="111.71"/><line x1="299.51" y1="351.14" x2="282.52" y2="331.35"/><line x1="211.93" y1="203.16" x2="253.53" y2="183.56"/><line x1="295.29" y1="229.72" x2="294.01" y2="229.82"/><line x1="225.80" y1="350.73" x2="231.13" y2="353.17"/><line x1="318.35" y1="332.39" x2="284.69" y2="321.43"/><line x1="307.50" y1="111.71" x2="283.97" y2="127.84"/><line x1="253.04" y1="167.81" x2="193.37" y2="171.47"/><line x1="221.38" y1="105.55" x2="255.37" y2="130.40"/><line x1="243.59" y1="218.37" x2="215.86" y2="344.85"/><line x1="294.01" y1="229.82" x2="289.37" y2="229.66"/><line x1="480.00" y1="32.02" x2="480.00" y2="64.50"/><line x1="283.60" y1="139.03" x2="283.87" y2="137.17"/><line x1="280.82" y1="159.84" x2="280.86" y2="158.12"/><line x1="282.13" y1="302.67" x2="326.98" y2="302.54"/><line x1="255.37" y1="130.40" x2="215.37" y2="110.16"/><line x1="232.52" y1="214.88" x2="238.77" y2="216.93"/><line x1="480.00" y1="479.91" x2="480.00" y2="447.42"/><line x1="252.59" y1="248.47" x2="254.42" y2="190.96"/><line x1="315.89" y1="121.65" x2="312.05" y2="116.57"/><line x1="280.86" y1="158.12" x2="280.99" y2="156.19"/><line x1="323.94" y1="287.77" x2="287.77" y2="281.88"/><line x1="282.03" y1="123.45" x2="281.01" y2="122.17"/><line x1="277.68" y1="336.71" x2="280.24" y2="358.53"/><line x1="238.77" y1="216.93" x2="243.59" y2="218.37"/><line x1="276.71" y1="230.05" x2="275.01" y2="207.52"/><line x1="319.23" y1="280.66" x2="310.00" y2="275.32"/><line x1="281.01" y1="122.17" x2="290.62" y2="100.51"/><line x1="201.38" y1="127.67" x2="253.62" y2="145.33"/><line x1="275.01" y1="207.52" x2="274.27" y2="230.27"/><line x1="447.51" y1="479.91" x2="480.00" y2="447.42"/><line x1="281.99" y1="299.70" x2="282.03" y2="301.06"/><line x1="283.28" y1="311.50" x2="283.75" y2="314.31"/><line x1="253.62" y1="145.33" x2="198.15" y2="133.96"/><line x1="247.70" y1="358.25" x2="251.21" y2="325.16"/><line x1="243.59" y1="218.37" x2="196.71" y2="324.70"/><line x1="243.59" y1="218.37" x2="236.56" y2="355.24"/><line x1="316.83" y1="173.75" x2="318.63" y2="171.51"/><line x1="204.90" y1="238.02" x2="196.69" y2="247.63"/><line x1="324.51" y1="153.92" x2="281.87" y2="149.06"/><line x1="253.92" y1="187.58" x2="232.52" y2="214.88"/><line x1="265.13" y1="359.94" x2="268.47" y2="339.20"/><line x1="299.47" y1="213.87" x2="292.44" y2="208.53"/><line x1="304.89" y1="179.80" x2="301.93" y2="179.97"/><line x1="323.23" y1="138.23" x2="283.60" y2="139.03"/><line x1="323.94" y1="287.77" x2="298.49" y2="275.24"/><line x1="276.90" y1="96.44" x2="274.12" y2="117.72"/><line x1="323.94" y1="287.77" x2="283.05" y2="291.24"/><line x1="192.40" y1="160.81" x2="192.64" y2="166.23"/><line x1="268.47" y1="339.20" x2="265.71" y2="339.03"/><line x1="266.36" y1="205.41" x2="266.87" y2="231.90"/><line x1="326.63" y1="308.98" x2="325.60" y2="315.18"/><line x1="284.54" y1="319.19" x2="318.35" y2="332.39"/><line x1="321.57" y1="166.32" x2="292.84" y2="178.20"/><line x1="321.57" y1="166.32" x2="280.94" y2="162.41"/><line x1="243.59" y1="218.37" x2="248.73" y2="303.81"/><line x1="318.35" y1="332.39" x2="284.64" y2="320.33"/><line x1="247.70" y1="358.25" x2="258.70" y2="336.46"/><line x1="243.59" y1="218.37" x2="187.00" y2="297.91"/><line x1="247.70" y1="358.25" x2="248.84" y2="308.91"/><line x1="243.59" y1="218.37" x2="211.39" y2="341.44"/><line x1="260.54" y1="202.12" x2="259.02" y2="200.76"/><line x1="272.91" y1="359.59" x2="265.13" y2="359.94"/><line x1="310.07" y1="342.71" x2="283.93" y2="328.05"/><line x1="258.70" y1="336.46" x2="256.79" y2="334.92"/><line x1="260.38" y1="236.04" x2="258.82" y2="237.51"/><line x1="480.00" y1="479.91" x2="447.51" y2="479.91"/><line x1="315.89" y1="121.65" x2="284.34" y2="131.22"/><line x1="323.94" y1="287.77" x2="289.52" y2="279.96"/><line x1="325.89" y1="293.27" x2="326.49" y2="296.23"/><line x1="324.14" y1="157.27" x2="324.51" y2="153.92"/><line x1="235.36" y1="98.85" x2="228.04" y2="101.78"/><line x1="284.36" y1="326.28" x2="283.93" y2="328.05"/><line x1="294.34" y1="208.68" x2="299.47" y2="213.87"/><line x1="256.63" y1="197.63" x2="255.75" y2="195.87"/><line x1="321.57" y1="166.32" x2="285.40" y2="172.91"/><line x1="281.99" y1="299.70" x2="326.86" y2="299.32"/><line x1="281.55" y1="332.87" x2="280.41" y2="334.31"/><line x1="257.26" y1="124.41" x2="256.21" y2="127.09"/><line x1="321.57" y1="166.32" x2="322.67" y2="163.47"/><line x1="275.63" y1="118.30" x2="276.90" y2="96.44"/><line x1="216.43" y1="206.62" x2="221.35" y2="209.72"/><line x1="247.70" y1="358.25" x2="252.30" y2="328.18"/><line x1="243.59" y1="218.37" x2="193.91" y2="319.79"/><line x1="254.71" y1="243.33" x2="253.59" y2="245.77"/><line x1="243.59" y1="218.37" x2="231.13" y2="353.17"/><line x1="316.83" y1="173.75" x2="304.89" y2="179.80"/><line x1="283.51" y1="126.29" x2="282.86" y2="124.82"/><line x1="293.54" y1="354.31" x2="287.12" y2="356.78"/><line x1="253.92" y1="187.58" x2="226.72" y2="212.47"/><line x1="192.76" y1="153.84" x2="192.40" y2="160.81"/><line x1="282.31" y1="304.51" x2="282.57" y2="306.60"/><line x1="302.36" y1="107.30" x2="296.74" y2="103.56"/><line x1="323.23" y1="138.23" x2="283.28" y2="141.05"/><line x1="254.66" y1="134.54" x2="205.34" y2="121.55"/><line x1="295.95" y1="209.13" x2="299.03" y2="212.24"/><line x1="192.40" y1="160.81" x2="253.04" y2="167.81"/><line x1="282.46" y1="229.76" x2="279.43" y2="229.88"/><line x1="187.00" y1="297.91" x2="188.08" y2="303.71"/><line x1="326.63" y1="308.98" x2="282.89" y2="308.93"/><line x1="283.28" y1="141.05" x2="283.60" y2="139.03"/><line x1="261.24" y1="95.08" x2="266.56" y2="117.20"/><line x1="271.70" y1="206.94" x2="268.82" y2="206.24"/><line x1="299.57" y1="217.08" x2="299.54" y2="217.41"/><line x1="314.83" y1="175.65" x2="307.66" y2="179.28"/><line x1="321.03" y1="282.83" x2="304.16" y2="274.65"/><line x1="281.20" y1="154.04" x2="281.49" y2="151.66"/><line x1="321.57" y1="166.32" x2="294.97" y2="178.98"/><line x1="286.24" y1="284.01" x2="284.94" y2="286.28"/><line x1="321.57" y1="166.32" x2="281.32" y2="164.82"/><line x1="253.30" y1="151.99" x2="253.10" y2="159.48"/><line x1="266.56" y1="117.20" x2="264.15" y2="117.81"/><line x1="243.59" y1="218.37" x2="249.05" y2="294.20"/><line x1="298.30" y1="210.91" x2="299.03" y2="212.24"/><line x1="253.09" y1="173.69" x2="198.45" y2="186.22"/><line x1="243.59" y1="218.37" x2="186.35" y2="291.88"/><line x1="274.40" y1="338.31" x2="272.56" y2="338.81"/><line x1="243.59" y1="218.37" x2="207.23" y2="337.72"/><line x1="260.54" y1="202.12" x2="260.38" y2="236.04"/><line x1="294.97" y1="178.98" x2="292.84" y2="178.20"/><line x1="278.47" y1="119.92" x2="277.08" y2="119.03"/><line x1="284.23" y1="133.90" x2="315.89" y2="121.65"/><line x1="310.07" y1="342.71" x2="284.36" y2="326.28"/><line x1="198.45" y1="186.22" x2="201.12" y2="190.80"/><line x1="203.40" y1="333.69" x2="207.23" y2="337.72"/><line x1="315.89" y1="121.65" x2="284.31" y2="132.48"/><line x1="268.55" y1="231.29" x2="266.36" y2="205.41"/><line x1="258.57" y1="122.15" x2="235.36" y2="98.85"/><line x1="250.32" y1="321.72" x2="249.62" y2="317.87"/><line x1="298.59" y1="227.43" x2="298.04" y2="228.30"/><line x1="215.45" y1="229.94" x2="228.35" y2="223.39"/><line x1="283.99" y1="171.12" x2="282.85" y2="169.18"/><line x1="269.32" y1="95.42" x2="261.24" y2="95.08"/><line x1="325.89" y1="293.27" x2="281.99" y2="299.70"/><line x1="259.23" y1="359.75" x2="253.42" y2="359.19"/><line x1="235.36" y1="98.85" x2="257.26" y2="124.41"/><line x1="186.35" y1="291.88" x2="187.00" y2="297.91"/><line x1="320.23" y1="169.00" x2="321.57" y2="166.32"/><line x1="256.63" y1="197.63" x2="254.71" y2="243.33"/><line x1="282.85" y1="169.18" x2="281.96" y2="167.08"/><line x1="299.59" y1="216.76" x2="299.57" y2="217.08"/><line x1="321.57" y1="166.32" x2="287.05" y2="174.54"/><line x1="281.55" y1="332.87" x2="293.54" y2="354.31"/><line x1="321.57" y1="166.32" x2="280.99" y2="156.19"/><line x1="216.43" y1="206.62" x2="253.92" y2="187.58"/><line x1="243.59" y1="218.37" x2="191.54" y2="314.66"/><line x1="280.99" y1="156.19" x2="281.20" y2="154.04"/><line x1="236.56" y1="355.24" x2="242.08" y2="356.93"/><line x1="251.96" y1="95.50" x2="243.33" y2="96.76"/><line x1="283.51" y1="126.29" x2="302.36" y2="107.30"/><line x1="261.97" y1="234.74" x2="260.54" y2="202.12"/><line x1="285.77" y1="229.68" x2="282.46" y2="229.76"/><line x1="322.67" y1="163.47" x2="323.53" y2="160.46"/><line x1="290.62" y1="100.51" x2="278.47" y2="119.92"/><line x1="282.31" y1="304.51" x2="326.63" y2="308.98"/><line x1="254.66" y1="134.54" x2="210.01" y2="115.60"/><line x1="295.95" y1="209.13" x2="297.27" y2="209.87"/><line x1="251.72" y1="251.43" x2="250.97" y2="254.65"/><line x1="242.08" y1="356.93" x2="247.70" y2="358.25"/><line x1="298.95" y1="226.38" x2="298.59" y2="227.43"/><line x1="253.26" y1="178.94" x2="253.53" y2="183.56"/><line x1="276.11" y1="337.60" x2="274.40" y2="338.31"/><line x1="271.70" y1="206.94" x2="270.25" y2="230.87"/><line x1="314.83" y1="175.65" x2="312.63" y2="177.21"/><line x1="281.87" y1="149.06" x2="282.35" y2="146.25"/><line x1="321.03" y1="282.83" x2="307.18" y2="274.82"/><line x1="323.88" y1="321.15" x2="284.23" y2="316.82"/><line x1="253.30" y1="151.99" x2="193.83" y2="147.04"/><line x1="243.59" y1="218.37" x2="250.97" y2="254.65"/><line x1="187.31" y1="271.43" x2="186.13" y2="285.63"/><line x1="253.53" y1="183.56" x2="216.43" y2="206.62"/><line x1="326.86" y1="299.32" x2="326.98" y2="302.54"/><line x1="324.63" y1="150.40" x2="324.28" y2="144.20"/><line x1="265.71" y1="339.03" x2="263.16" y2="338.52"/><line x1="318.63" y1="171.51" x2="320.23" y2="169.00"/><line x1="243.59" y1="218.37" x2="247.70" y2="358.25"/><line x1="287.12" y1="356.78" x2="280.24" y2="358.53"/><line x1="272.55" y1="117.31" x2="270.92" y2="117.07"/><line x1="265.22" y1="232.67" x2="263.58" y2="233.62"/><line x1="301.93" y1="179.97" x2="299.51" y2="179.87"/><line x1="283.97" y1="127.84" x2="283.51" y2="126.29"/><line x1="264.20" y1="204.45" x2="262.27" y2="203.35"/><line x1="480.00" y1="64.50" x2="447.51" y2="32.02"/><line x1="321.48" y1="132.48" x2="319.04" y2="126.96"/><line x1="325.60" y1="315.18" x2="323.88" y2="321.15"/><line x1="280.99" y1="156.19" x2="322.67" y2="163.47"/><line x1="251.96" y1="95.50" x2="260.16" y2="120.29"/><line x1="190.82" y1="258.76" x2="187.31" y2="271.43"/><line x1="259.02" y1="200.76" x2="257.72" y2="199.26"/><line x1="283.93" y1="328.05" x2="283.31" y2="329.74"/><line x1="290.62" y1="100.51" x2="279.80" y2="120.98"/><line x1="204.27" y1="195.20" x2="207.88" y2="199.36"/><line x1="282.88" y1="208.28" x2="285.77" y2="229.68"/><line x1="295.95" y1="209.13" x2="298.30" y2="210.91"/><line x1="258.82" y1="237.51" x2="257.32" y2="239.19"/><line x1="305.02" y1="347.28" x2="299.51" y2="351.14"/><line x1="271.70" y1="206.94" x2="272.11" y2="230.54"/><line x1="281.87" y1="149.06" x2="324.63" y2="150.40"/><line x1="323.88" y1="321.15" x2="284.01" y2="315.58"/><line x1="312.61" y1="276.15" x2="319.23" y2="280.66"/><line x1="187.31" y1="271.43" x2="215.45" y2="229.94"/><line x1="326.86" y1="299.32" x2="282.13" y2="302.67"/><line x1="289.37" y1="229.66" x2="285.77" y2="229.68"/><line x1="265.71" y1="339.03" x2="259.23" y2="359.75"/><line x1="248.73" y1="303.81" x2="248.84" y2="308.91"/><line x1="278.74" y1="207.96" x2="275.01" y2="207.52"/><line x1="299.61" y1="215.79" x2="299.61" y2="216.11"/><line x1="326.98" y1="302.54" x2="282.31" y2="304.51"/><line x1="253.59" y1="245.77" x2="252.59" y2="248.47"/><line x1="215.37" y1="110.16" x2="254.66" y2="134.54"/><line x1="318.63" y1="171.51" x2="301.93" y2="179.97"/><line x1="296.74" y1="103.56" x2="290.62" y2="100.51"/><line x1="295.96" y1="275.98" x2="293.62" y2="277.01"/><line x1="287.12" y1="356.78" x2="277.68" y2="336.71"/><line x1="282.88" y1="208.28" x2="297.30" y2="228.96"/><line x1="254.42" y1="190.96" x2="251.72" y2="251.43"/><line x1="287.45" y1="208.47" x2="282.88" y2="208.28"/><line x1="265.22" y1="232.67" x2="264.20" y2="204.45"/><line x1="280.24" y1="358.53" x2="276.11" y2="337.60"/><line x1="317.23" y1="278.82" x2="319.23" y2="280.66"/><line x1="284.64" y1="320.33" x2="284.69" y2="321.43"/><line x1="192.64" y1="166.23" x2="193.37" y2="171.47"/><line x1="310.00" y1="275.32" x2="321.03" y2="282.83"/><line x1="281.49" y1="151.66" x2="281.87" y2="149.06"/><line x1="189.59" y1="309.30" x2="191.54" y2="314.66"/><line x1="284.01" y1="98.13" x2="276.90" y2="96.44"/><line x1="274.27" y1="230.27" x2="271.70" y2="206.94"/><line x1="256.79" y1="334.92" x2="255.08" y2="333.02"/><line x1="299.50" y1="217.73" x2="299.46" y2="218.06"/><line x1="283.75" y1="314.31" x2="323.88" y2="321.15"/><line x1="198.15" y1="133.96" x2="253.30" y2="151.99"/><line x1="283.88" y1="288.69" x2="283.05" y2="291.24"/><line x1="251.96" y1="95.50" x2="262.02" y2="118.84"/><line x1="259.02" y1="200.76" x2="258.82" y2="237.51"/><line x1="292.44" y1="208.53" x2="299.61" y2="215.79"/><line x1="321.46" y1="326.89" x2="318.35" y2="332.39"/><line x1="284.34" y1="131.22" x2="284.25" y2="129.48"/><line x1="253.10" y1="159.48" x2="253.04" y2="167.81"/><line x1="283.93" y1="328.05" x2="305.02" y2="347.28"/><line x1="287.45" y1="208.47" x2="299.57" y2="217.08"/><line x1="253.92" y1="187.58" x2="250.97" y2="254.65"/><line x1="204.27" y1="195.20" x2="253.26" y2="178.94"/><line x1="282.88" y1="208.28" x2="289.37" y2="229.66"/><line x1="298.49" y1="275.24" x2="295.96" y2="275.98"/><line x1="274.12" y1="117.72" x2="272.55" y2="117.31"/><line x1="32.16" y1="32.09" x2="32.16" y2="64.58"/><line x1="211.39" y1="341.44" x2="215.86" y2="344.85"/><line x1="266.87" y1="231.90" x2="265.22" y2="232.67"/><line x1="228.04" y1="101.78" x2="221.38" y2="105.55"/><line x1="297.30" y1="228.96" x2="296.39" y2="229.44"/><line x1="255.75" y1="195.87" x2="255.03" y2="193.73"/><line x1="253.04" y1="167.81" x2="192.64" y2="166.23"/><line x1="326.49" y1="296.23" x2="326.86" y2="299.32"/><line x1="188.08" y1="303.71" x2="189.59" y2="309.30"/><line x1="283.60" y1="139.03" x2="321.48" y2="132.48"/><line x1="264.15" y1="117.81" x2="262.02" y2="118.84"/><line x1="312.61" y1="276.15" x2="315.02" y2="277.32"/><line x1="299.54" y1="217.41" x2="299.50" y2="217.73"/><line x1="282.86" y1="124.82" x2="282.03" y2="123.45"/><line x1="248.73" y1="303.81" x2="247.70" y2="358.25"/><line x1="284.94" y1="286.28" x2="283.88" y2="288.69"/><line x1="278.74" y1="207.96" x2="276.71" y2="230.05"/><line x1="205.34" y1="121.55" x2="201.38" y2="127.67"/><line x1="282.88" y1="208.28" x2="298.04" y2="228.30"/><line x1="287.45" y1="208.47" x2="299.14" y2="225.14"/><line x1="323.53" y1="160.46" x2="324.14" y2="157.27"/><line x1="304.16" y1="274.65" x2="301.23" y2="274.80"/><line x1="253.04" y1="167.81" x2="253.09" y2="173.69"/><line x1="292.84" y1="178.20" x2="290.81" y2="177.21"/><line x1="284.01" y1="98.13" x2="275.63" y2="118.30"/><line x1="270.25" y1="230.87" x2="268.55" y2="231.29"/><line x1="249.13" y1="313.60" x2="248.84" y2="308.91"/><line x1="193.83" y1="147.04" x2="192.76" y2="153.84"/><line x1="304.89" y1="179.80" x2="318.63" y2="171.51"/><line x1="280.41" y1="334.31" x2="279.11" y2="335.61"/><line x1="186.13" y1="285.63" x2="186.35" y2="291.88"/><line x1="323.94" y1="287.77" x2="283.88" y2="288.69"/><line x1="324.28" y1="144.20" x2="323.23" y2="138.23"/><line x1="321.46" y1="326.89" x2="284.54" y2="319.19"/><line x1="32.00" y1="479.98" x2="64.49" y2="479.98"/><line x1="287.45" y1="208.47" x2="299.59" y2="216.76"/><line x1="282.88" y1="208.28" x2="294.01" y2="229.82"/><line x1="253.42" y1="359.19" x2="247.70" y2="358.25"/><line x1="263.58" y1="233.62" x2="261.97" y2="234.74"/><line x1="319.04" y1="126.96" x2="315.89" y2="121.65"/><line x1="247.70" y1="358.25" x2="249.13" y2="313.60"/><line x1="272.91" y1="359.59" x2="270.58" y2="339.11"/><line x1="264.15" y1="117.81" x2="251.96" y2="95.50"/><line x1="312.61" y1="276.15" x2="317.23" y2="278.82"/><line x1="314.56" y1="337.66" x2="310.07" y2="342.71"/><line x1="260.38" y1="236.04" x2="259.02" y2="200.76"/><line x1="257.72" y1="199.26" x2="256.63" y2="197.63"/><line x1="323.94" y1="287.77" x2="291.47" y2="278.34"/><line x1="201.12" y1="190.80" x2="204.27" y2="195.20"/><line x1="282.57" y1="306.60" x2="282.89" y2="308.93"/><line x1="207.23" y1="337.72" x2="211.39" y2="341.44"/><line x1="284.23" y1="316.82" x2="284.40" y2="318.02"/><line x1="284.31" y1="132.48" x2="284.34" y2="131.22"/><line x1="287.45" y1="208.47" x2="299.46" y2="218.06"/><line x1="249.05" y1="294.20" x2="248.73" y2="303.81"/><line x1="249.62" y1="317.87" x2="249.13" y2="313.60"/><line x1="325.04" y1="290.45" x2="325.89" y2="293.27"/><line x1="298.04" y1="228.30" x2="297.30" y2="228.96"/><line x1="299.51" y1="351.14" x2="293.54" y2="354.31"/><line x1="281.99" y1="299.70" x2="326.49" y2="296.23"/><line x1="263.16" y1="338.52" x2="260.83" y2="337.66"/><line x1="257.26" y1="124.41" x2="228.04" y2="101.78"/><line x1="318.35" y1="332.39" x2="314.56" y2="337.66"/><line x1="307.50" y1="111.71" x2="302.36" y2="107.30"/><line x1="304.16" y1="274.65" x2="322.61" y2="285.24"/><line x1="253.04" y1="167.81" x2="196.27" y2="181.46"/><line x1="247.70" y1="358.25" x2="253.59" y2="330.80"/><line x1="254.71" y1="243.33" x2="255.75" y2="195.87"/><line x1="243.59" y1="218.37" x2="225.80" y2="350.73"/><line x1="281.96" y1="167.08" x2="281.32" y2="164.82"/><line x1="270.25" y1="230.87" x2="268.82" y2="206.24"/><line x1="293.54" y1="354.31" x2="280.41" y2="334.31"/><line x1="253.92" y1="187.58" x2="221.35" y2="209.72"/><line x1="284.71" y1="322.50" x2="284.62" y2="324.44"/><line x1="302.36" y1="107.30" x2="282.86" y2="124.82"/><line x1="280.41" y1="334.31" x2="287.12" y2="356.78"/><line x1="186.13" y1="285.63" x2="228.35" y2="223.39"/><line x1="323.94" y1="287.77" x2="284.94" y2="286.28"/><line x1="282.46" y1="229.76" x2="278.74" y2="207.96"/><line x1="32.00" y1="479.98" x2="32.00" y2="447.50"/><line x1="287.45" y1="208.47" x2="299.61" y2="216.44"/><line x1="326.63" y1="308.98" x2="282.57" y2="306.60"/><line x1="210.01" y1="115.60" x2="205.34" y2="121.55"/><line x1="250.97" y1="254.65" x2="249.05" y2="294.20"/><line x1="281.20" y1="154.04" x2="323.53" y2="160.46"/><line x1="321.57" y1="166.32" x2="281.96" y2="167.08"/><line x1="263.58" y1="233.62" x2="262.27" y2="203.35"/><line x1="274.40" y1="338.31" x2="272.91" y2="359.59"/><line x1="298.30" y1="210.91" x2="297.27" y2="209.87"/><line x1="243.59" y1="218.37" x2="228.35" y2="223.39"/><line x1="319.04" y1="126.96" x2="284.23" y2="133.90"/><line x1="247.70" y1="358.25" x2="249.62" y2="317.87"/><line x1="310.24" y1="178.42" x2="307.66" y2="179.28"/><line x1="243.59" y1="218.37" x2="203.40" y2="333.69"/><line x1="307.18" y1="274.82" x2="304.16" y2="274.65"/><line x1="299.14" y1="225.14" x2="298.95" y2="226.38"/><line x1="278.47" y1="119.92" x2="284.01" y2="98.13"/><line x1="204.90" y1="238.02" x2="215.45" y2="229.94"/><line x1="272.91" y1="359.59" x2="272.56" y2="338.81"/><line x1="253.92" y1="187.58" x2="243.59" y2="218.37"/><line x1="272.11" y1="230.54" x2="270.25" y2="230.87"/><line x1="265.13" y1="359.94" x2="259.23" y2="359.75"/><line x1="260.16" y1="120.29" x2="258.57" y2="122.15"/><line x1="282.35" y1="146.25" x2="282.90" y2="143.21"/><line x1="284.01" y1="315.58" x2="284.23" y2="316.82"/><line x1="257.72" y1="199.26" x2="255.95" y2="241.13"/><line x1="323.94" y1="287.77" x2="293.62" y2="277.01"/><line x1="299.61" y1="216.11" x2="299.61" y2="216.44"/><line x1="276.90" y1="96.44" x2="269.32" y2="95.42"/><line x1="323.94" y1="287.77" x2="325.04" y2="290.45"/><line x1="215.45" y1="229.94" x2="186.13" y2="285.63"/><line x1="266.36" y1="205.41" x2="264.20" y2="204.45"/><line x1="269.32" y1="95.42" x2="269.23" y2="116.99"/><line x1="284.23" y1="316.82" x2="321.46" y2="326.89"/><line x1="259.23" y1="359.75" x2="263.16" y2="338.52"/><line x1="284.25" y1="129.48" x2="283.97" y2="127.84"/><line x1="320.23" y1="169.00" x2="297.19" y2="179.53"/><line x1="321.57" y1="166.32" x2="288.88" y2="175.98"/><line x1="263.16" y1="338.52" x2="253.42" y2="359.19"/><line x1="321.57" y1="166.32" x2="280.86" y2="158.12"/><line x1="253.09" y1="173.69" x2="253.26" y2="178.94"/><line x1="243.59" y1="218.37" x2="189.59" y2="309.30"/><line x1="221.38" y1="105.55" x2="215.37" y2="110.16"/><line x1="247.70" y1="358.25" x2="255.08" y2="333.02"/><line x1="283.87" y1="137.17" x2="284.08" y2="135.45"/><line x1="243.59" y1="218.37" x2="220.67" y2="347.95"/><line x1="291.47" y1="278.34" x2="289.52" y2="279.96"/><line x1="322.67" y1="163.47" x2="281.20" y2="154.04"/><line x1="284.71" y1="322.50" x2="314.56" y2="337.66"/><line x1="323.94" y1="287.77" x2="286.24" y2="284.01"/><line x1="282.46" y1="293.92" x2="282.11" y2="296.74"/><line x1="276.71" y1="230.05" x2="274.27" y2="230.27"/><line x1="279.80" y1="120.98" x2="278.47" y2="119.92"/><line x1="253.26" y1="178.94" x2="211.93" y2="203.16"/><line x1="201.38" y1="127.67" x2="198.15" y2="133.96"/><line x1="314.83" y1="175.65" x2="310.24" y2="178.42"/><line x1="312.05" y1="116.57" x2="307.50" y2="111.71"/><line x1="283.31" y1="329.74" x2="282.52" y2="331.35"/><line x1="321.57" y1="166.32" x2="282.85" y2="169.18"/><line x1="253.30" y1="151.99" x2="195.63" y2="140.42"/><line x1="243.59" y1="218.37" x2="186.13" y2="285.63"/><line x1="247.70" y1="358.25" x2="250.32" y2="321.72"/><line x1="310.24" y1="178.42" x2="312.63" y2="177.21"/><line x1="243.59" y1="218.37" x2="199.90" y2="329.35"/><line x1="324.63" y1="150.40" x2="282.35" y2="146.25"/><line x1="256.21" y1="127.09" x2="255.37" y2="130.40"/><line x1="243.59" y1="218.37" x2="242.08" y2="356.93"/><line x1="195.63" y1="140.42" x2="193.83" y2="147.04"/><line x1="282.35" y1="146.25" x2="324.28" y2="144.20"/><line x1="272.55" y1="117.31" x2="269.32" y2="95.42"/><line x1="323.23" y1="138.23" x2="321.48" y2="132.48"/><line x1="299.61" y1="216.11" x2="287.45" y2="208.47"/><line x1="255.03" y1="193.73" x2="254.42" y2="190.96"/><line x1="301.93" y1="179.97" x2="320.23" y2="169.00"/><line x1="293.62" y1="277.01" x2="291.47" y2="278.34"/><line x1="269.32" y1="95.42" x2="270.92" y2="117.07"/><line x1="261.24" y1="95.08" x2="251.96" y2="95.50"/><line x1="264.20" y1="204.45" x2="263.58" y2="233.62"/><line x1="320.23" y1="169.00" x2="299.51" y2="179.87"/><line x1="321.48" y1="132.48" x2="283.87" y2="137.17"/><line x1="284.69" y1="321.43" x2="284.71" y2="322.50"/><line x1="321.57" y1="166.32" x2="290.81" y2="177.21"/><line x1="193.37" y1="171.47" x2="194.58" y2="176.56"/><line x1="321.57" y1="166.32" x2="280.82" y2="159.84"/><line x1="253.09" y1="173.69" x2="204.27" y2="195.20"/><line x1="243.59" y1="218.37" x2="188.08" y2="303.71"/><line x1="191.54" y1="314.66" x2="193.91" y2="319.79"/><line x1="247.70" y1="358.25" x2="256.79" y2="334.92"/><line x1="325.60" y1="315.18" x2="283.75" y2="314.31"/><line x1="283.87" y1="137.17" x2="319.04" y2="126.96"/><line x1="255.08" y1="333.02" x2="253.59" y2="330.80"/><line x1="299.46" y1="218.06" x2="299.14" y2="225.14"/><line x1="310.07" y1="342.71" x2="305.02" y2="347.28"/><line x1="190.82" y1="258.76" x2="196.69" y2="247.63"/><line x1="290.81" y1="177.21" x2="288.88" y2="175.98"/><line x1="283.05" y1="291.24" x2="282.46" y2="293.92"/><line x1="270.58" y1="339.11" x2="268.47" y2="339.20"/><line x1="262.02" y1="118.84" x2="260.16" y2="120.29"/><line x1="253.59" y1="330.80" x2="252.30" y2="328.18"/><line x1="258.82" y1="237.51" x2="257.72" y2="199.26"/><line x1="288.88" y1="175.98" x2="287.05" y2="174.54"/><line x1="282.46" y1="293.92" x2="325.04" y2="290.45"/><line x1="305.02" y1="347.28" x2="283.31" y2="329.74"/><line x1="253.26" y1="178.94" x2="207.88" y2="199.36"/><line x1="215.86" y1="344.85" x2="220.67" y2="347.95"/><line x1="294.34" y1="208.68" x2="292.44" y2="208.53"/><line x1="312.05" y1="116.57" x2="284.25" y2="129.48"/><line x1="283.31" y1="329.74" x2="299.51" y2="351.14"/><line x1="321.57" y1="166.32" x2="283.99" y2="171.12"/><line x1="296.39" y1="229.44" x2="295.29" y2="229.72"/><line x1="275.63" y1="118.30" x2="274.12" y2="117.72"/><line x1="64.64" y1="32.09" x2="32.16" y2="64.58"/><line x1="220.67" y1="347.95" x2="225.80" y2="350.73"/><line x1="326.86" y1="299.32" x2="282.03" y2="301.06"/><line x1="256.21" y1="127.09" x2="221.38" y2="105.55"/><line x1="253.59" y1="245.77" x2="255.03" y2="193.73"/><line x1="296.74" y1="103.56" x2="281.01" y2="122.17"/><line x1="282.03" y1="301.06" x2="282.13" y2="302.67"/><line x1="287.12" y1="356.78" x2="279.11" y2="335.61"/><line x1="226.72" y1="212.47" x2="232.52" y2="214.88"/><line x1="254.66" y1="134.54" x2="254.07" y2="139.51"/><line x1="255.03" y1="193.73" x2="252.59" y2="248.47"/><line x1="295.95" y1="209.13" x2="294.34" y2="208.68"/><line x1="317.23" y1="278.82" x2="315.02" y2="277.32"/><line x1="282.89" y1="308.93" x2="283.28" y2="311.50"/><line x1="254.07" y1="139.51" x2="253.62" y2="145.33"/><line x1="279.11" y1="335.61" x2="277.68" y2="336.71"/><line x1="261.24" y1="95.08" x2="264.15" y2="117.81"/><line x1="281.49" y1="151.66" x2="324.51" y2="153.92"/><line x1="314.83" y1="175.65" x2="316.83" y2="173.75"/><line x1="321.03" y1="282.83" x2="322.61" y2="285.24"/><line x1="299.03" y1="212.24" x2="299.47" y2="213.87"/><line x1="253.09" y1="173.69" x2="201.12" y2="190.80"/><line x1="322.61" y1="285.24" x2="323.94" y2="287.77"/><line x1="325.60" y1="315.18" x2="283.28" y2="311.50"/><line x1="284.23" y1="133.90" x2="284.31" y2="132.48"/><line x1="268.82" y1="206.24" x2="266.36" y2="205.41"/><line x1="307.66" y1="179.28" x2="304.89" y2="179.80"/><line x1="190.82" y1="258.76" x2="204.90" y2="238.02"/><line x1="301.23" y1="274.80" x2="298.49" y2="275.24"/><line x1="284.34" y1="131.22" x2="312.05" y2="116.57"/><line x1="253.10" y1="159.48" x2="192.40" y2="160.81"/><line x1="270.58" y1="339.11" x2="265.13" y2="359.94"/><line x1="253.92" y1="187.58" x2="251.72" y2="251.43"/><line x1="268.55" y1="231.29" x2="266.87" y2="231.90"/><line x1="258.57" y1="122.15" x2="257.26" y2="124.41"/><line x1="32.16" y1="32.09" x2="64.64" y2="32.09"/><line x1="282.90" y1="143.21" x2="283.28" y2="141.05"/><line x1="228.04" y1="101.78" x2="256.21" y2="127.09"/><line x1="255.75" y1="195.87" x2="253.59" y2="245.77"/><line x1="281.32" y1="164.82" x2="280.94" y2="162.41"/><line x1="269.23" y1="116.99" x2="266.56" y2="117.20"/><line x1="260.83" y1="337.66" x2="258.70" y2="336.46"/><line x1="221.35" y1="209.72" x2="226.72" y2="212.47"/><line x1="262.27" y1="203.35" x2="260.54" y2="202.12"/><line x1="297.19" y1="179.53" x2="294.97" y2="178.98"/><line x1="280.94" y1="162.41" x2="280.82" y2="159.84"/><line x1="282.86" y1="124.82" x2="296.74" y2="103.56"/><line x1="196.27" y1="181.46" x2="198.45" y2="186.22"/><line x1="261.97" y1="234.74" x2="260.38" y2="236.04"/><line x1="278.74" y1="207.96" x2="279.43" y2="229.88"/><line x1="32.00" y1="447.50" x2="64.49" y2="479.98"/></g></svg>