<svg xmlns="http://www.w3.org/2000/svg" width="512" height="512"><rect width="512" height="512" fill="#0a0f1a"/><text x="12" y="20" font-family="monospace" font-size="11" fill="#4a7fa5">FRONT (XZ)</text><g stroke="#00d4ff" stroke-width="0.6" opacity="0.85"><line x1="235.81" y1="189.41" x2="233.18" y2="171.79"/><line x1="281.85" y1="108.60" x2="280.07" y2="105.98"/><line x1="242.70" y1="234.85" x2="240.96" y2="223.19"/><line x1="285.74" y1="120.48" x2="229.59" y2="112.46"/><line x1="285.91" y1="123.80" x2="227.81" y2="118.61"/><line x1="278.80" y1="348.17" x2="280.43" y2="345.29"/><line x1="246.57" y1="264.21" x2="246.07" y2="259.47"/><line x1="252.01" y1="359.09" x2="249.05" y2="358.03"/><line x1="261.69" y1="294.42" x2="264.79" y2="295.04"/><line x1="267.54" y1="258.06" x2="249.27" y2="276.03"/><line x1="245.25" y1="252.99" x2="244.13" y2="244.78"/><line x1="277.21" y1="304.42" x2="258.40" y2="294.21"/><line x1="262.00" y1="276.22" x2="251.58" y2="276.22"/><line x1="246.92" y1="272.07" x2="246.84" y2="270.70"/><line x1="267.54" y1="258.06" x2="246.84" y2="270.70"/><line x1="249.05" y1="358.03" x2="246.24" y2="356.55"/><line x1="279.04" y1="307.40" x2="277.21" y2="304.42"/><line x1="238.62" y1="303.62" x2="240.91" y2="301.12"/><line x1="229.59" y1="112.46" x2="275.56" y2="101.27"/><line x1="283.97" y1="324.34" x2="283.55" y2="320.68"/><line x1="248.86" y1="295.94" x2="251.86" y2="294.98"/><line x1="266.59" y1="271.34" x2="266.64" y2="269.95"/><line x1="246.84" y1="270.70" x2="246.78" y2="269.08"/><line x1="274.73" y1="353.27" x2="258.40" y2="359.94"/><line x1="264.29" y1="276.04" x2="266.42" y2="273.51"/><line x1="280.07" y1="105.98" x2="277.96" y2="103.50"/><line x1="231.55" y1="333.58" x2="231.07" y2="330.09"/><line x1="240.91" y1="301.12" x2="277.21" y2="304.42"/><line x1="281.86" y1="313.77" x2="234.84" y2="309.32"/><line x1="263.63" y1="276.14" x2="262.86" y2="276.20"/><line x1="267.54" y1="258.06" x2="248.23" y2="275.69"/><line x1="480.00" y1="479.91" x2="447.51" y2="479.91"/><line x1="267.54" y1="258.06" x2="246.77" y2="267.23"/><line x1="233.18" y1="171.79" x2="231.03" y2="156.94"/><line x1="277.96" y1="103.50" x2="275.56" y2="101.27"/><line x1="283.52" y1="335.55" x2="283.97" y2="331.93"/><line x1="283.55" y1="320.68" x2="282.85" y2="317.16"/><line x1="238.79" y1="349.57" x2="280.43" y2="345.29"/><line x1="280.59" y1="310.52" x2="236.58" y2="306.39"/><line x1="284.12" y1="328.12" x2="230.91" y2="326.52"/><line x1="229.59" y1="112.46" x2="269.96" y2="97.83"/><line x1="272.42" y1="355.31" x2="274.73" y2="353.27"/><line x1="234.92" y1="343.46" x2="283.52" y2="335.55"/><line x1="238.92" y1="209.79" x2="235.81" y2="189.41"/><line x1="265.31" y1="275.73" x2="266.28" y2="274.30"/><line x1="268.65" y1="248.97" x2="244.13" y2="244.78"/><line x1="274.73" y1="353.27" x2="252.01" y2="359.09"/><line x1="251.58" y1="276.22" x2="266.65" y2="268.36"/><line x1="246.78" y1="269.08" x2="246.77" y2="267.23"/><line x1="280.43" y1="345.29" x2="281.75" y2="342.24"/><line x1="277.21" y1="304.42" x2="243.39" y2="299.01"/><line x1="264.79" y1="295.04" x2="270.36" y2="297.55"/><line x1="247.18" y1="274.10" x2="247.03" y2="273.21"/><line x1="267.54" y1="258.06" x2="247.57" y2="275.17"/><line x1="234.51" y1="104.15" x2="241.95" y2="98.04"/><line x1="244.13" y1="244.78" x2="270.21" y2="237.26"/><line x1="276.88" y1="350.86" x2="241.11" y2="352.33"/><line x1="267.54" y1="258.06" x2="246.07" y2="259.47"/><line x1="259.58" y1="95.25" x2="255.58" y2="95.08"/><line x1="269.94" y1="356.98" x2="267.30" y2="358.27"/><line x1="275.56" y1="101.27" x2="272.89" y2="99.38"/><line x1="238.79" y1="349.57" x2="236.69" y2="346.56"/><line x1="229.59" y1="112.46" x2="284.45" y2="114.26"/><line x1="248.24" y1="95.82" x2="234.51" y2="104.15"/><line x1="231.54" y1="319.13" x2="232.33" y2="315.70"/><line x1="258.40" y1="294.21" x2="275.13" y2="301.71"/><line x1="229.59" y1="112.46" x2="263.30" y2="95.77"/><line x1="266.28" y1="274.30" x2="264.85" y2="275.91"/><line x1="283.31" y1="111.36" x2="281.85" y2="108.60"/><line x1="230.91" y1="326.52" x2="231.07" y2="322.74"/><line x1="255.58" y1="95.08" x2="251.78" y2="95.27"/><line x1="251.58" y1="276.22" x2="267.54" y2="258.06"/><line x1="274.73" y1="353.27" x2="246.24" y2="356.55"/><line x1="246.03" y1="297.28" x2="248.86" y2="295.94"/><line x1="282.85" y1="317.16" x2="281.86" y2="313.77"/><line x1="281.75" y1="342.24" x2="236.69" y2="346.56"/><line x1="231.07" y1="330.09" x2="230.91" y2="326.52"/><line x1="266.12" y1="274.88" x2="265.67" y2="275.51"/><line x1="277.21" y1="304.42" x2="248.86" y2="295.94"/><line x1="262.86" y1="276.20" x2="262.00" y2="276.22"/><line x1="269.96" y1="97.83" x2="266.77" y2="96.63"/><line x1="32.16" y1="32.09" x2="32.16" y2="64.58"/><line x1="267.54" y1="258.06" x2="247.18" y2="274.10"/><line x1="270.21" y1="237.26" x2="242.70" y2="234.85"/><line x1="267.54" y1="258.06" x2="268.65" y2="248.97"/><line x1="241.11" y1="352.33" x2="278.80" y2="348.17"/><line x1="283.97" y1="331.93" x2="232.35" y2="336.97"/><line x1="264.50" y1="359.20" x2="272.42" y2="355.31"/><line x1="229.59" y1="112.46" x2="281.85" y2="108.60"/><line x1="236.69" y1="346.56" x2="282.78" y2="338.98"/><line x1="265.67" y1="275.51" x2="265.93" y2="275.26"/><line x1="246.07" y1="259.47" x2="245.25" y2="252.99"/><line x1="235.81" y1="189.41" x2="277.56" y2="186.37"/><line x1="282.78" y1="338.98" x2="234.92" y2="343.46"/><line x1="266.28" y1="274.30" x2="266.42" y2="273.51"/><line x1="241.95" y1="98.04" x2="239.20" y2="99.70"/><line x1="242.70" y1="234.85" x2="272.22" y2="222.92"/><line x1="274.73" y1="353.27" x2="276.88" y2="350.86"/><line x1="278.80" y1="348.17" x2="238.79" y2="349.57"/><line x1="251.78" y1="95.27" x2="230.93" y2="109.57"/><line x1="232.33" y1="315.70" x2="233.43" y2="312.43"/><line x1="272.22" y1="222.92" x2="240.96" y2="223.19"/><line x1="261.69" y1="294.42" x2="272.85" y2="299.42"/><line x1="266.12" y1="274.88" x2="265.31" y2="275.73"/><line x1="267.54" y1="258.06" x2="249.94" y2="276.13"/><line x1="245.25" y1="252.99" x2="268.65" y2="248.97"/><line x1="285.91" y1="123.80" x2="285.74" y2="120.48"/><line x1="232.57" y1="106.79" x2="234.51" y2="104.15"/><line x1="262.00" y1="276.22" x2="266.59" y2="271.34"/><line x1="267.54" y1="258.06" x2="246.92" y2="272.07"/><line x1="266.77" y1="96.63" x2="263.30" y2="95.77"/><line x1="277.21" y1="304.42" x2="255.04" y2="294.40"/><line x1="272.85" y1="299.42" x2="264.79" y2="295.04"/><line x1="228.55" y1="115.47" x2="229.59" y2="112.46"/><line x1="230.93" y1="109.57" x2="232.57" y2="106.79"/><line x1="283.97" y1="331.93" x2="284.12" y2="328.12"/><line x1="231.07" y1="322.74" x2="231.54" y2="319.13"/><line x1="232.35" y1="336.97" x2="231.55" y2="333.58"/><line x1="279.04" y1="307.40" x2="240.91" y2="301.12"/><line x1="251.86" y1="294.98" x2="255.04" y2="294.40"/><line x1="266.42" y1="273.51" x2="263.63" y2="276.14"/><line x1="266.59" y1="271.34" x2="251.58" y2="276.22"/><line x1="263.30" y1="95.77" x2="259.58" y2="95.25"/><line x1="277.56" y1="186.37" x2="233.18" y2="171.79"/><line x1="251.78" y1="95.27" x2="248.24" y2="95.82"/><line x1="231.55" y1="333.58" x2="284.12" y2="328.12"/><line x1="480.00" y1="32.02" x2="447.51" y2="32.02"/><line x1="263.63" y1="276.14" x2="266.52" y2="272.53"/><line x1="272.22" y1="222.92" x2="274.67" y2="205.96"/><line x1="285.91" y1="123.80" x2="229.36" y2="144.86"/><line x1="240.96" y1="223.19" x2="238.92" y2="209.79"/><line x1="267.54" y1="258.06" x2="248.70" y2="275.88"/><line x1="277.21" y1="304.42" x2="275.13" y2="301.71"/><line x1="267.54" y1="258.06" x2="246.78" y2="269.08"/><line x1="233.18" y1="171.79" x2="285.91" y2="123.80"/><line x1="261.53" y1="359.75" x2="258.40" y2="359.94"/><line x1="283.52" y1="335.55" x2="233.48" y2="340.26"/><line x1="236.72" y1="101.74" x2="239.20" y2="99.70"/><line x1="238.92" y1="209.79" x2="274.67" y2="205.96"/><line x1="250.72" y1="276.19" x2="249.94" y2="276.13"/><line x1="274.73" y1="353.27" x2="255.12" y2="359.73"/><line x1="251.58" y1="276.22" x2="266.64" y2="269.95"/><line x1="234.84" y1="309.32" x2="236.58" y2="306.39"/><line x1="270.36" y1="297.55" x2="267.68" y2="296.09"/><line x1="266.64" y1="269.95" x2="266.65" y2="268.36"/><line x1="285.91" y1="123.80" x2="227.45" y2="129.01"/><line x1="266.52" y1="272.53" x2="262.86" y2="276.20"/><line x1="267.54" y1="258.06" x2="247.85" y2="275.45"/><line x1="249.94" y1="276.13" x2="249.27" y2="276.03"/><line x1="234.51" y1="104.15" x2="244.96" y2="96.74"/><line x1="275.13" y1="301.71" x2="261.69" y2="294.42"/><line x1="267.54" y1="258.06" x2="246.57" y2="264.21"/><line x1="280.59" y1="310.52" x2="279.04" y2="307.40"/><line x1="233.48" y1="340.26" x2="283.97" y2="331.93"/><line x1="238.79" y1="349.57" x2="281.75" y2="342.24"/><line x1="231.54" y1="319.13" x2="282.85" y2="317.16"/><line x1="264.85" y1="275.91" x2="264.29" y2="276.04"/><line x1="266.65" y1="268.36" x2="266.88" y2="264.52"/><line x1="274.67" y1="205.96" x2="235.81" y2="189.41"/><line x1="268.65" y1="248.97" x2="270.21" y2="237.26"/><line x1="227.36" y1="121.87" x2="227.81" y2="118.61"/><line x1="243.60" y1="354.65" x2="241.11" y2="352.33"/><line x1="251.58" y1="276.22" x2="266.88" y2="264.52"/><line x1="32.00" y1="479.98" x2="64.49" y2="479.98"/><line x1="229.59" y1="112.46" x2="255.58" y2="95.08"/><line x1="230.91" y1="326.52" x2="283.97" y2="324.34"/><line x1="285.91" y1="123.80" x2="227.36" y2="121.87"/><line x1="229.36" y1="144.86" x2="228.16" y2="135.55"/><line x1="277.21" y1="304.42" x2="246.03" y2="297.28"/><line x1="266.52" y1="272.53" x2="266.59" y2="271.34"/><line x1="267.54" y1="258.06" x2="247.36" y2="274.76"/><line x1="234.51" y1="104.15" x2="236.72" y2="101.74"/><line x1="276.88" y1="350.86" x2="278.80" y2="348.17"/><line x1="244.96" y1="96.74" x2="241.95" y2="98.04"/><line x1="258.40" y1="359.94" x2="255.12" y2="359.73"/><line x1="236.58" y1="306.39" x2="238.62" y2="303.62"/><line x1="64.64" y1="32.09" x2="32.16" y2="64.58"/><line x1="266.88" y1="264.52" x2="267.54" y2="258.06"/><line x1="229.59" y1="112.46" x2="277.96" y2="103.50"/><line x1="241.95" y1="98.04" x2="236.72" y2="101.74"/><line x1="229.59" y1="112.46" x2="230.93" y2="109.57"/><line x1="283.97" y1="324.34" x2="231.07" y2="322.74"/><line x1="281.75" y1="342.24" x2="282.78" y2="338.98"/><line x1="266.12" y1="274.88" x2="265.93" y2="275.26"/><line x1="267.54" y1="258.06" x2="250.72" y2="276.19"/><line x1="285.91" y1="123.80" x2="228.55" y2="115.47"/><line x1="285.74" y1="120.48" x2="285.26" y2="117.30"/><line x1="228.16" y1="135.55" x2="227.45" y2="129.01"/><line x1="232.57" y1="106.79" x2="248.24" y2="95.82"/><line x1="281.86" y1="313.77" x2="233.43" y2="312.43"/><line x1="241.11" y1="352.33" x2="238.79" y2="349.57"/><line x1="231.07" y1="322.74" x2="283.55" y2="320.68"/><line x1="283.55" y1="320.68" x2="231.54" y2="319.13"/><line x1="227.45" y1="129.01" x2="227.21" y2="125.24"/><line x1="284.12" y1="328.12" x2="231.07" y2="330.09"/><line x1="282.78" y1="338.98" x2="283.52" y2="335.55"/><line x1="229.59" y1="112.46" x2="272.89" y2="99.38"/><line x1="272.42" y1="355.31" x2="261.53" y2="359.75"/><line x1="251.78" y1="95.27" x2="232.57" y2="106.79"/><line x1="480.00" y1="32.02" x2="480.00" y2="64.50"/><line x1="285.91" y1="123.80" x2="231.03" y2="156.94"/><line x1="264.29" y1="276.04" x2="263.63" y2="276.14"/><line x1="247.85" y1="275.45" x2="247.57" y2="275.17"/><line x1="266.12" y1="274.88" x2="266.28" y2="274.30"/><line x1="272.22" y1="222.92" x2="238.92" y2="209.79"/><line x1="240.91" y1="301.12" x2="243.39" y2="299.01"/><line x1="261.53" y1="359.75" x2="274.73" y2="353.27"/><line x1="281.86" y1="313.77" x2="280.59" y2="310.52"/><line x1="272.85" y1="299.42" x2="270.36" y2="297.55"/><line x1="233.43" y1="312.43" x2="234.84" y2="309.32"/><line x1="480.00" y1="479.91" x2="480.00" y2="447.42"/><line x1="266.42" y1="273.51" x2="266.52" y2="272.53"/><line x1="247.57" y1="275.17" x2="247.36" y2="274.76"/><line x1="269.94" y1="356.98" x2="264.50" y2="359.20"/><line x1="229.59" y1="112.46" x2="285.26" y2="117.30"/><line x1="284.12" y1="328.12" x2="283.97" y2="324.34"/><line x1="227.21" y1="125.24" x2="227.36" y2="121.87"/><line x1="229.59" y1="112.46" x2="266.77" y2="96.63"/><line x1="277.56" y1="186.37" x2="285.91" y2="123.80"/><line x1="234.92" y1="343.46" x2="233.48" y2="340.26"/><line x1="234.84" y1="309.32" x2="280.59" y2="310.52"/><line x1="265.31" y1="275.73" x2="264.85" y2="275.91"/><line x1="249.27" y1="276.03" x2="248.70" y2="275.88"/><line x1="274.73" y1="353.27" x2="249.05" y2="358.03"/><line x1="285.91" y1="123.80" x2="228.16" y2="135.55"/><line x1="480.00" y1="64.50" x2="447.51" y2="32.02"/><line x1="231.03" y1="156.94" x2="229.36" y2="144.86"/><line x1="285.26" y1="117.30" x2="284.45" y2="114.26"/><line x1="282.85" y1="317.16" x2="232.33" y2="315.70"/><line x1="246.24" y1="356.55" x2="243.60" y2="354.65"/><line x1="264.79" y1="295.04" x2="267.68" y2="296.09"/><line x1="32.16" y1="32.09" x2="64.64" y2="32.09"/><line x1="244.13" y1="244.78" x2="242.70" y2="234.85"/><line x1="447.51" y1="479.91" x2="480.00" y2="447.42"/><line x1="227.81" y1="118.61" x2="228.55" y2="115.47"/><line x1="267.54" y1="258.06" x2="245.25" y2="252.99"/><line x1="269.94" y1="356.98" x2="272.42" y2="355.31"/><line x1="247.36" y1="274.76" x2="247.18" y2="274.10"/><line x1="229.59" y1="112.46" x2="283.31" y2="111.36"/><line x1="248.24" y1="95.82" x2="244.96" y2="96.74"/><line x1="264.50" y1="359.20" x2="267.30" y2="358.27"/><line x1="243.60" y1="354.65" x2="276.88" y2="350.86"/><line x1="258.40" y1="294.21" x2="261.69" y2="294.42"/><line x1="229.59" y1="112.46" x2="259.58" y2="95.25"/><line x1="32.00" y1="479.98" x2="32.00" y2="447.50"/><line x1="266.28" y1="274.30" x2="264.29" y2="276.04"/><line x1="248.70" y1="275.88" x2="248.23" y2="275.69"/><line x1="255.04" y1="294.40" x2="258.40" y2="294.21"/><line x1="274.73" y1="353.27" x2="243.60" y2="354.65"/><line x1="251.58" y1="276.22" x2="250.72" y2="276.19"/><line x1="246.77" y1="267.23" x2="246.57" y2="264.21"/><line x1="285.91" y1="123.80" x2="227.21" y2="125.24"/><line x1="266.52" y1="272.53" x2="262.00" y2="276.22"/><line x1="255.12" y1="359.73" x2="252.01" y2="359.09"/><line x1="275.13" y1="301.71" x2="272.85" y2="299.42"/><line x1="284.45" y1="114.26" x2="283.31" y2="111.36"/><line x1="232.33" y1="315.70" x2="281.86" y2="313.77"/><line x1="243.39" y1="299.01" x2="246.03" y2="297.28"/><line x1="277.21" y1="304.42" x2="251.86" y2="294.98"/><line x1="233.48" y1="340.26" x2="232.35" y2="336.97"/><line x1="247.03" y1="273.21" x2="246.92" y2="272.07"/><line x1="236.58" y1="306.39" x2="279.04" y2="307.40"/><line x1="267.54" y1="258.06" x2="247.03" y2="273.21"/><line x1="248.23" y1="275.69" x2="247.85" y2="275.45"/><line x1="270.21" y1="237.26" x2="272.22" y2="222.92"/><line x1="228.55" y1="115.47" x2="285.74" y2="120.48"/><line x1="283.97" y1="331.93" x2="231.55" y2="333.58"/><line x1="272.89" y1="99.38" x2="269.96" y2="97.83"/><line x1="279.04" y1="307.40" x2="238.62" y2="303.62"/><line x1="264.50" y1="359.20" x2="261.53" y2="359.75"/><line x1="274.67" y1="205.96" x2="277.56" y2="186.37"/><line x1="229.59" y1="112.46" x2="280.07" y2="105.98"/><line x1="236.69" y1="346.56" x2="234.92" y2="343.46"/><line x1="265.67" y1="275.51" x2="265.31" y2="275.73"/><line x1="229.59" y1="112.46" x2="251.78" y2="95.27"/><line x1="32.00" y1="447.50" x2="64.49" y2="479.98"/></g></svg>