<svg xmlns="http://www.w3.org/2000/svg" width="512" height="512"><rect width="512" height="512" fill="#0a0f1a"/><text x="12" y="20" font-family="monospace" font-size="11" fill="#4a7fa5">FRONT (XZ)</text><g stroke="#00d4ff" stroke-width="0.6" opacity="0.85"><line x1="266.02" y1="359.29" x2="273.95" y2="357.32"/><line x1="328.17" y1="264.62" x2="329.47" y2="247.81"/><line x1="245.80" y1="323.86" x2="183.65" y2="245.10"/><line x1="249.07" y1="359.25" x2="257.74" y2="339.59"/><line x1="308.59" y1="327.84" x2="314.24" y2="317.97"/><line x1="232.82" y1="353.75" x2="240.76" y2="357.19"/><line x1="245.80" y1="323.86" x2="194.52" y2="151.13"/><line x1="250.04" y1="336.17" x2="251.11" y2="337.22"/><line x1="253.92" y1="118.13" x2="244.21" y2="98.40"/><line x1="233.27" y1="102.49" x2="227.99" y2="105.55"/><line x1="288.74" y1="107.93" x2="281.15" y2="103.17"/><line x1="245.80" y1="137.99" x2="245.86" y2="134.88"/><line x1="240.76" y1="357.19" x2="253.50" y2="338.74"/><line x1="225.27" y1="348.93" x2="248.20" y2="333.58"/><line x1="268.88" y1="323.86" x2="322.95" y2="294.07"/><line x1="211.33" y1="335.18" x2="245.87" y2="325.66"/><line x1="302.58" y1="121.56" x2="295.88" y2="114.07"/><line x1="244.21" y1="98.40" x2="252.54" y2="118.58"/><line x1="268.88" y1="323.86" x2="319.16" y2="152.15"/><line x1="248.20" y1="333.58" x2="249.06" y2="334.94"/><line x1="257.10" y1="117.77" x2="255.45" y2="117.86"/><line x1="245.80" y1="323.86" x2="183.38" y2="216.03"/><line x1="187.19" y1="277.33" x2="184.98" y2="261.87"/><line x1="329.47" y1="247.81" x2="329.91" y2="229.61"/><line x1="245.80" y1="323.86" x2="200.87" y2="136.71"/><line x1="288.81" y1="349.46" x2="268.65" y2="328.04"/><line x1="246.01" y1="132.05" x2="245.86" y2="134.88"/><line x1="240.76" y1="357.19" x2="249.07" y2="359.25"/><line x1="480.00" y1="479.91" x2="447.51" y2="479.91"/><line x1="225.27" y1="348.93" x2="232.82" y2="353.75"/><line x1="273.95" y1="357.32" x2="281.55" y2="354.04"/><line x1="329.91" y1="229.61" x2="329.48" y2="211.47"/><line x1="268.88" y1="323.86" x2="328.17" y2="264.62"/><line x1="211.33" y1="335.18" x2="218.11" y2="342.74"/><line x1="249.25" y1="121.01" x2="227.99" y2="105.55"/><line x1="217.83" y1="113.72" x2="246.28" y2="129.51"/><line x1="244.21" y1="98.40" x2="238.67" y2="100.10"/><line x1="260.22" y1="118.18" x2="257.10" y2="117.77"/><line x1="247.14" y1="125.28" x2="217.83" y2="113.72"/><line x1="257.76" y1="359.94" x2="266.02" y2="359.29"/><line x1="194.29" y1="304.38" x2="245.80" y2="323.86"/><line x1="252.25" y1="338.07" x2="253.50" y2="338.74"/><line x1="245.80" y1="323.86" x2="184.79" y2="195.30"/><line x1="249.06" y1="334.94" x2="232.82" y2="353.75"/><line x1="246.07" y1="327.39" x2="246.40" y2="329.05"/><line x1="265.04" y1="121.48" x2="262.87" y2="119.42"/><line x1="227.99" y1="105.55" x2="248.43" y2="122.19"/><line x1="245.80" y1="323.86" x2="245.80" y2="137.99"/><line x1="246.87" y1="330.62" x2="247.46" y2="332.13"/><line x1="267.92" y1="128.09" x2="266.72" y2="124.37"/><line x1="253.50" y1="338.74" x2="254.82" y2="339.22"/><line x1="238.67" y1="100.10" x2="250.20" y2="120.02"/><line x1="314.42" y1="140.62" x2="308.83" y2="130.42"/><line x1="273.10" y1="99.76" x2="264.61" y2="97.72"/><line x1="329.48" y1="211.47" x2="328.19" y2="194.66"/><line x1="295.88" y1="114.07" x2="267.92" y2="128.09"/><line x1="245.80" y1="323.86" x2="190.30" y2="291.50"/><line x1="326.00" y1="280.04" x2="328.17" y2="264.62"/><line x1="295.73" y1="343.56" x2="302.33" y2="336.35"/><line x1="308.83" y1="130.42" x2="268.88" y2="137.99"/><line x1="245.80" y1="323.86" x2="187.62" y2="176.31"/><line x1="281.55" y1="354.04" x2="288.81" y2="349.46"/><line x1="227.99" y1="105.55" x2="222.85" y2="109.30"/><line x1="248.43" y1="122.19" x2="247.73" y2="123.59"/><line x1="211.33" y1="335.18" x2="199.16" y2="315.95"/><line x1="266.84" y1="334.46" x2="267.97" y2="331.57"/><line x1="183.38" y1="216.03" x2="183.91" y2="205.44"/><line x1="326.04" y1="179.16" x2="323.03" y2="164.99"/><line x1="32.16" y1="32.09" x2="32.16" y2="64.58"/><line x1="268.88" y1="323.86" x2="308.59" y2="327.84"/><line x1="254.82" y1="339.22" x2="249.07" y2="359.25"/><line x1="250.20" y1="120.02" x2="233.27" y2="102.49"/><line x1="255.45" y1="117.86" x2="253.92" y2="118.13"/><line x1="246.28" y1="129.51" x2="213.07" y2="118.74"/><line x1="262.87" y1="119.42" x2="260.22" y2="118.18"/><line x1="247.73" y1="123.59" x2="222.85" y2="109.30"/><line x1="199.16" y1="315.95" x2="204.93" y2="326.24"/><line x1="251.11" y1="337.22" x2="240.76" y2="357.19"/><line x1="264.61" y1="97.72" x2="255.68" y2="97.04"/><line x1="266.02" y1="359.29" x2="263.20" y2="338.31"/><line x1="222.85" y1="109.30" x2="247.14" y2="125.28"/><line x1="245.80" y1="323.86" x2="184.98" y2="261.87"/><line x1="266.72" y1="124.37" x2="265.04" y2="121.48"/><line x1="249.07" y1="359.25" x2="256.24" y2="339.50"/><line x1="233.27" y1="102.49" x2="249.25" y2="121.01"/><line x1="249.88" y1="97.37" x2="244.21" y2="98.40"/><line x1="245.80" y1="323.86" x2="191.86" y2="159.07"/><line x1="268.88" y1="137.99" x2="302.58" y2="121.56"/><line x1="256.24" y1="339.50" x2="257.74" y2="339.59"/><line x1="211.33" y1="335.18" x2="194.29" y2="304.38"/><line x1="268.64" y1="132.62" x2="267.92" y2="128.09"/><line x1="240.76" y1="357.19" x2="252.25" y2="338.07"/><line x1="247.46" y1="332.13" x2="248.20" y2="333.58"/><line x1="183.91" y1="205.44" x2="184.79" y2="195.30"/><line x1="323.03" y1="164.99" x2="319.16" y2="152.15"/><line x1="302.58" y1="121.56" x2="268.64" y2="132.62"/><line x1="213.07" y1="118.74" x2="246.01" y2="132.05"/><line x1="184.98" y1="261.87" x2="183.65" y2="245.10"/><line x1="268.88" y1="323.86" x2="308.83" y2="130.42"/><line x1="184.79" y1="195.30" x2="186.03" y2="185.59"/><line x1="319.16" y1="152.15" x2="314.42" y2="140.62"/><line x1="245.80" y1="323.86" x2="183.20" y2="227.04"/><line x1="263.20" y1="338.31" x2="273.95" y2="357.32"/><line x1="245.80" y1="323.86" x2="197.52" y2="143.67"/><line x1="253.92" y1="118.13" x2="252.54" y2="118.58"/><line x1="246.01" y1="132.05" x2="208.65" y2="124.24"/><line x1="480.00" y1="32.02" x2="447.51" y2="32.02"/><line x1="183.65" y1="245.10" x2="183.20" y2="227.04"/><line x1="265.24" y1="336.71" x2="266.84" y2="334.46"/><line x1="257.74" y1="339.59" x2="257.76" y2="359.94"/><line x1="240.76" y1="357.19" x2="254.82" y2="339.22"/><line x1="225.27" y1="348.93" x2="249.06" y2="334.94"/><line x1="273.95" y1="357.32" x2="265.24" y2="336.71"/><line x1="255.68" y1="97.04" x2="255.45" y2="117.86"/><line x1="217.83" y1="113.72" x2="246.65" y2="127.25"/><line x1="211.33" y1="335.18" x2="246.07" y2="327.39"/><line x1="281.15" y1="103.17" x2="265.04" y2="121.48"/><line x1="218.11" y1="342.74" x2="246.87" y2="330.62"/><line x1="257.76" y1="359.94" x2="260.70" y2="339.27"/><line x1="268.88" y1="323.86" x2="329.91" y2="229.61"/><line x1="197.52" y1="143.67" x2="200.87" y2="136.71"/><line x1="268.65" y1="328.04" x2="268.88" y2="323.86"/><line x1="186.03" y1="185.59" x2="187.62" y2="176.31"/><line x1="245.80" y1="323.86" x2="183.91" y2="205.44"/><line x1="265.04" y1="121.48" x2="273.10" y2="99.76"/><line x1="187.62" y1="176.31" x2="189.57" y2="167.47"/><line x1="183.20" y1="227.04" x2="183.38" y2="216.03"/><line x1="200.87" y1="136.71" x2="204.59" y2="130.23"/><line x1="267.92" y1="128.09" x2="288.74" y2="107.93"/><line x1="217.83" y1="113.72" x2="213.07" y2="118.74"/><line x1="246.65" y1="127.25" x2="246.28" y2="129.51"/><line x1="249.25" y1="121.01" x2="248.43" y2="122.19"/><line x1="190.30" y1="291.50" x2="187.19" y2="277.33"/><line x1="189.57" y1="167.47" x2="191.86" y2="159.07"/><line x1="218.11" y1="342.74" x2="225.27" y2="348.93"/><line x1="268.88" y1="323.86" x2="328.19" y2="194.66"/><line x1="260.70" y1="339.27" x2="266.02" y2="359.29"/><line x1="251.30" y1="119.21" x2="250.20" y2="120.02"/><line x1="295.73" y1="343.56" x2="268.88" y2="323.86"/><line x1="32.00" y1="479.98" x2="64.49" y2="479.98"/><line x1="232.82" y1="353.75" x2="251.11" y2="337.22"/><line x1="266.84" y1="334.46" x2="288.81" y2="349.46"/><line x1="238.67" y1="100.10" x2="233.27" y2="102.49"/><line x1="288.74" y1="107.93" x2="266.72" y2="124.37"/><line x1="245.80" y1="137.99" x2="208.65" y2="124.24"/><line x1="255.45" y1="117.86" x2="249.88" y2="97.37"/><line x1="64.64" y1="32.09" x2="32.16" y2="64.58"/><line x1="268.88" y1="323.86" x2="319.04" y2="306.71"/><line x1="191.86" y1="159.07" x2="194.52" y2="151.13"/><line x1="268.88" y1="323.86" x2="323.03" y2="164.99"/><line x1="264.61" y1="97.72" x2="260.22" y2="118.18"/><line x1="266.72" y1="124.37" x2="281.15" y2="103.17"/><line x1="249.07" y1="359.25" x2="257.76" y2="359.94"/><line x1="211.33" y1="335.18" x2="204.93" y2="326.24"/><line x1="194.52" y1="151.13" x2="197.52" y2="143.67"/><line x1="268.64" y1="132.62" x2="295.88" y2="114.07"/><line x1="288.81" y1="349.46" x2="267.97" y2="331.57"/><line x1="250.20" y1="120.02" x2="249.25" y2="121.01"/><line x1="268.88" y1="323.86" x2="326.00" y2="280.04"/><line x1="251.11" y1="337.22" x2="252.25" y2="338.07"/><line x1="267.97" y1="331.57" x2="268.65" y2="328.04"/><line x1="268.88" y1="323.86" x2="314.42" y2="140.62"/><line x1="244.21" y1="98.40" x2="251.30" y2="119.21"/><line x1="260.22" y1="118.18" x2="255.68" y2="97.04"/><line x1="222.85" y1="109.30" x2="217.83" y2="113.72"/><line x1="208.65" y1="124.24" x2="245.86" y2="134.88"/><line x1="268.88" y1="137.99" x2="268.64" y2="132.62"/><line x1="480.00" y1="32.02" x2="480.00" y2="64.50"/><line x1="265.24" y1="336.71" x2="281.55" y2="354.04"/><line x1="246.07" y1="327.39" x2="218.11" y2="342.74"/><line x1="211.33" y1="335.18" x2="245.80" y2="323.86"/><line x1="245.80" y1="323.86" x2="204.59" y2="130.23"/><line x1="288.81" y1="349.46" x2="295.73" y2="343.56"/><line x1="255.68" y1="97.04" x2="257.10" y2="117.77"/><line x1="213.07" y1="118.74" x2="208.65" y2="124.24"/><line x1="480.00" y1="479.91" x2="480.00" y2="447.42"/><line x1="218.11" y1="342.74" x2="246.40" y2="329.05"/><line x1="268.88" y1="323.86" x2="329.47" y2="247.81"/><line x1="273.10" y1="99.76" x2="262.87" y2="119.42"/><line x1="314.24" y1="317.97" x2="319.04" y2="306.71"/><line x1="268.88" y1="323.86" x2="268.88" y2="137.99"/><line x1="268.65" y1="328.04" x2="295.73" y2="343.56"/><line x1="263.20" y1="338.31" x2="265.24" y2="336.71"/><line x1="247.14" y1="125.28" x2="246.65" y2="127.25"/><line x1="194.29" y1="304.38" x2="190.30" y2="291.50"/><line x1="204.59" y1="130.23" x2="245.80" y2="137.99"/><line x1="245.80" y1="323.86" x2="186.03" y2="185.59"/><line x1="480.00" y1="64.50" x2="447.51" y2="32.02"/><line x1="249.06" y1="334.94" x2="250.04" y2="336.17"/><line x1="257.74" y1="339.59" x2="260.70" y2="339.27"/><line x1="281.55" y1="354.04" x2="266.84" y2="334.46"/><line x1="245.80" y1="323.86" x2="245.87" y2="325.66"/><line x1="319.04" y1="306.71" x2="322.95" y2="294.07"/><line x1="252.54" y1="118.58" x2="251.30" y2="119.21"/><line x1="227.99" y1="105.55" x2="247.73" y2="123.59"/><line x1="255.68" y1="97.04" x2="249.88" y2="97.37"/><line x1="281.15" y1="103.17" x2="273.10" y2="99.76"/><line x1="32.16" y1="32.09" x2="64.64" y2="32.09"/><line x1="447.51" y1="479.91" x2="480.00" y2="447.42"/><line x1="268.88" y1="323.86" x2="302.33" y2="336.35"/><line x1="218.11" y1="342.74" x2="247.46" y2="332.13"/><line x1="268.88" y1="323.86" x2="329.48" y2="211.47"/><line x1="246.40" y1="329.05" x2="246.87" y2="330.62"/><line x1="262.87" y1="119.42" x2="264.61" y2="97.72"/><line x1="295.88" y1="114.07" x2="288.74" y2="107.93"/><line x1="251.30" y1="119.21" x2="238.67" y2="100.10"/><line x1="32.00" y1="479.98" x2="32.00" y2="447.50"/><line x1="245.80" y1="323.86" x2="187.19" y2="277.33"/><line x1="308.83" y1="130.42" x2="302.58" y2="121.56"/><line x1="232.82" y1="353.75" x2="250.04" y2="336.17"/><line x1="245.80" y1="323.86" x2="189.57" y2="167.47"/><line x1="249.88" y1="97.37" x2="253.92" y2="118.13"/><line x1="322.95" y1="294.07" x2="326.00" y2="280.04"/><line x1="204.59" y1="130.23" x2="208.65" y2="124.24"/><line x1="247.46" y1="332.13" x2="225.27" y2="348.93"/><line x1="245.87" y1="325.66" x2="246.07" y2="327.39"/><line x1="268.88" y1="323.86" x2="314.24" y2="317.97"/><line x1="254.82" y1="339.22" x2="256.24" y2="339.50"/><line x1="302.33" y1="336.35" x2="308.59" y2="327.84"/><line x1="246.28" y1="129.51" x2="246.01" y2="132.05"/><line x1="328.19" y1="194.66" x2="326.04" y2="179.16"/><line x1="268.88" y1="323.86" x2="326.04" y2="179.16"/><line x1="260.70" y1="339.27" x2="263.20" y2="338.31"/><line x1="247.73" y1="123.59" x2="247.14" y2="125.28"/><line x1="199.16" y1="315.95" x2="194.29" y2="304.38"/><line x1="32.00" y1="447.50" x2="64.49" y2="479.98"/></g></svg>