<svg xmlns="http://www.w3.org/2000/svg" width="512" height="512"><rect width="512" height="512" fill="#0a0f1a"/><text x="12" y="20" font-family="monospace" font-size="11" fill="#4a7fa5">FRONT (XZ)</text><g stroke="#00d4ff" stroke-width="0.6" opacity="0.85"><line x1="32.00" y1="479.04" x2="114.50" y2="32.96"/><line x1="114.50" y1="32.96" x2="32.00" y2="32.96"/><line x1="114.50" y1="479.04" x2="219.20" y2="32.96"/><line x1="431.29" y1="32.96" x2="480.00" y2="32.96"/><line x1="32.00" y1="479.04" x2="114.50" y2="479.04"/><line x1="219.20" y1="32.96" x2="431.29" y2="32.96"/><line x1="114.50" y1="32.96" x2="219.20" y2="32.96"/><line x1="219.20" y1="479.04" x2="431.29" y2="479.04"/><line x1="431.29" y1="479.04" x2="480.00" y2="479.04"/><line x1="431.29" y1="32.96" x2="431.29" y2="479.04"/><line x1="32.00" y1="479.04" x2="32.00" y2="32.96"/><line x1="219.20" y1="32.96" x2="219.20" y2="479.04"/><line x1="480.00" y1="32.96" x2="480.00" y2="479.04"/><line x1="219.20" y1="479.04" x2="431.29" y2="32.96"/><line x1="431.29" y1="479.04" x2="480.00" y2="32.96"/><line x1="114.50" y1="32.96" x2="114.50" y2="479.04"/><line x1="114.50" y1="479.04" x2="219.20" y2="479.04"/></g></svg>