<svg xmlns="http://www.w3.org/2000/svg" width="512" height="512"><rect width="512" height="512" fill="#0a0f1a"/><text x="12" y="20" font-family="monospace" font-size="11" fill="#4a7fa5">FRONT (XZ)</text><g stroke="#00d4ff" stroke-width="0.6" opacity="0.85"><line x1="197.54" y1="335.45" x2="173.56" y2="315.48"/><line x1="253.01" y1="256.78" x2="239.35" y2="255.23"/><line x1="393.97" y1="280.03" x2="480.00" y2="280.03"/><line x1="313.99" y1="335.38" x2="280.12" y2="278.29"/><line x1="173.56" y1="315.48" x2="227.81" y2="422.71"/><line x1="289.98" y1="220.18" x2="305.23" y2="209.63"/><line x1="400.77" y1="217.18" x2="443.44" y2="187.64"/><line x1="268.18" y1="235.28" x2="239.35" y2="255.23"/><line x1="173.36" y1="127.66" x2="155.14" y2="141.13"/><line x1="227.81" y1="422.71" x2="197.54" y2="335.45"/><line x1="221.33" y1="280.18" x2="214.20" y2="323.92"/><line x1="191.70" y1="233.52" x2="221.33" y2="280.18"/><line x1="162.70" y1="191.38" x2="105.67" y2="233.52"/><line x1="266.08" y1="178.56" x2="251.29" y2="189.49"/><line x1="134.09" y1="344.65" x2="193.33" y2="446.58"/><line x1="324.51" y1="247.57" x2="305.23" y2="209.63"/><line x1="231.10" y1="204.41" x2="209.81" y2="156.58"/><line x1="320.30" y1="358.70" x2="227.81" y2="422.71"/><line x1="239.35" y1="255.23" x2="203.14" y2="225.06"/><line x1="203.14" y1="225.06" x2="162.70" y2="191.38"/><line x1="105.67" y1="233.52" x2="36.20" y2="201.06"/><line x1="247.37" y1="72.98" x2="310.61" y2="145.65"/><line x1="221.33" y1="280.18" x2="235.31" y2="269.85"/><line x1="305.23" y1="209.63" x2="310.61" y2="145.65"/><line x1="354.82" y1="248.98" x2="305.23" y2="209.63"/><line x1="353.03" y1="367.91" x2="374.42" y2="353.10"/><line x1="239.35" y1="255.23" x2="191.70" y2="233.52"/><line x1="295.42" y1="479.03" x2="227.81" y2="422.71"/><line x1="393.97" y1="280.03" x2="354.82" y2="248.98"/><line x1="221.33" y1="280.18" x2="247.45" y2="300.90"/><line x1="221.33" y1="280.18" x2="189.73" y2="303.54"/><line x1="214.20" y1="323.92" x2="247.45" y2="300.90"/><line x1="191.70" y1="233.52" x2="203.14" y2="225.06"/><line x1="235.31" y1="269.85" x2="253.01" y2="256.78"/><line x1="134.09" y1="344.65" x2="104.93" y2="258.30"/><line x1="155.13" y1="113.19" x2="109.40" y2="146.98"/><line x1="104.93" y1="258.30" x2="105.67" y2="233.52"/><line x1="334.34" y1="321.30" x2="354.82" y2="248.98"/><line x1="305.23" y1="209.63" x2="266.08" y2="178.56"/><line x1="295.42" y1="479.03" x2="422.39" y2="391.16"/><line x1="189.73" y1="303.54" x2="121.09" y2="246.36"/><line x1="480.00" y1="280.03" x2="400.77" y2="217.18"/><line x1="374.42" y1="353.10" x2="393.97" y2="280.03"/><line x1="209.81" y1="156.58" x2="190.66" y2="170.72"/><line x1="150.91" y1="224.32" x2="203.14" y2="225.06"/><line x1="155.13" y1="113.19" x2="109.40" y2="146.98"/><line x1="197.54" y1="335.45" x2="267.01" y2="367.91"/><line x1="227.81" y1="422.71" x2="320.30" y2="358.70"/><line x1="209.81" y1="156.58" x2="190.66" y2="170.72"/><line x1="104.93" y1="258.30" x2="173.56" y2="315.48"/><line x1="313.99" y1="335.38" x2="301.67" y2="343.92"/><line x1="280.12" y1="278.29" x2="268.18" y2="235.28"/><line x1="251.29" y1="189.49" x2="209.81" y2="156.58"/><line x1="104.93" y1="258.30" x2="36.20" y2="201.06"/><line x1="224.59" y1="145.65" x2="209.81" y2="156.58"/><line x1="334.34" y1="321.30" x2="353.03" y2="367.91"/><line x1="354.82" y1="248.98" x2="393.97" y2="280.03"/><line x1="247.37" y1="72.98" x2="173.36" y2="127.66"/><line x1="310.61" y1="145.65" x2="351.18" y2="177.83"/><line x1="109.40" y1="146.98" x2="162.70" y2="191.38"/><line x1="150.91" y1="224.32" x2="221.33" y2="280.18"/><line x1="374.42" y1="353.10" x2="480.00" y2="280.03"/><line x1="400.77" y1="217.18" x2="354.82" y2="248.98"/><line x1="289.98" y1="220.18" x2="324.51" y2="247.57"/><line x1="78.02" y1="120.84" x2="109.40" y2="146.98"/><line x1="280.12" y1="278.29" x2="316.47" y2="275.51"/><line x1="253.01" y1="256.78" x2="280.12" y2="278.29"/><line x1="316.47" y1="275.51" x2="354.82" y2="248.98"/><line x1="351.18" y1="177.83" x2="366.32" y2="167.35"/><line x1="150.91" y1="224.32" x2="221.33" y2="280.18"/><line x1="251.29" y1="189.49" x2="289.98" y2="220.18"/><line x1="268.18" y1="235.28" x2="231.10" y2="204.41"/><line x1="267.01" y1="367.91" x2="214.20" y2="323.92"/><line x1="247.37" y1="72.98" x2="196.94" y2="32.97"/><line x1="268.18" y1="235.28" x2="231.10" y2="204.41"/><line x1="280.12" y1="278.29" x2="253.01" y2="256.78"/><line x1="320.30" y1="358.70" x2="301.67" y2="343.92"/><line x1="316.47" y1="275.51" x2="301.80" y2="263.29"/><line x1="121.09" y1="246.36" x2="173.56" y2="315.48"/><line x1="313.99" y1="335.38" x2="353.03" y2="367.91"/><line x1="197.54" y1="335.45" x2="189.73" y2="303.54"/><line x1="366.32" y1="167.35" x2="351.18" y2="177.83"/><line x1="190.66" y1="170.72" x2="162.70" y2="191.38"/><line x1="393.97" y1="280.03" x2="334.34" y2="321.30"/><line x1="400.77" y1="217.18" x2="351.18" y2="177.83"/><line x1="301.80" y1="263.29" x2="268.18" y2="235.28"/><line x1="301.67" y1="343.92" x2="320.30" y2="358.70"/><line x1="280.12" y1="278.29" x2="334.34" y2="321.30"/><line x1="173.56" y1="315.48" x2="197.54" y2="335.45"/><line x1="227.81" y1="422.71" x2="134.09" y2="344.65"/><line x1="224.59" y1="145.65" x2="209.81" y2="156.58"/><line x1="354.82" y1="248.98" x2="305.23" y2="209.63"/><line x1="261.18" y1="291.40" x2="280.12" y2="278.29"/><line x1="266.08" y1="178.56" x2="224.59" y2="145.65"/><line x1="227.81" y1="422.71" x2="193.33" y2="446.58"/><line x1="231.10" y1="204.41" x2="203.14" y2="225.06"/><line x1="196.94" y1="32.97" x2="173.36" y2="127.66"/><line x1="320.30" y1="358.70" x2="295.42" y2="479.03"/><line x1="162.70" y1="191.38" x2="203.14" y2="225.06"/><line x1="316.47" y1="275.51" x2="354.82" y2="248.98"/><line x1="121.09" y1="246.36" x2="189.73" y2="303.54"/><line x1="247.37" y1="72.98" x2="366.32" y2="167.35"/><line x1="197.54" y1="335.45" x2="214.20" y2="323.92"/><line x1="267.01" y1="367.91" x2="301.67" y2="343.92"/><line x1="354.82" y1="248.98" x2="351.18" y2="177.83"/><line x1="189.73" y1="303.54" x2="173.56" y2="315.48"/><line x1="301.80" y1="263.29" x2="324.51" y2="247.57"/><line x1="305.23" y1="209.63" x2="289.98" y2="220.18"/><line x1="393.97" y1="280.03" x2="400.77" y2="217.18"/><line x1="366.32" y1="167.35" x2="274.06" y2="53.26"/><line x1="173.36" y1="127.66" x2="155.13" y2="113.19"/><line x1="301.67" y1="343.92" x2="247.45" y2="300.90"/><line x1="227.81" y1="422.71" x2="267.01" y2="367.91"/><line x1="221.33" y1="280.18" x2="235.31" y2="269.85"/><line x1="191.70" y1="233.52" x2="235.31" y2="269.85"/><line x1="443.44" y1="187.64" x2="274.06" y2="53.26"/><line x1="196.94" y1="32.97" x2="78.02" y2="120.84"/><line x1="121.09" y1="246.36" x2="150.91" y2="224.32"/><line x1="261.18" y1="291.40" x2="247.45" y2="300.90"/><line x1="235.31" y1="269.85" x2="191.70" y2="233.52"/><line x1="173.36" y1="127.66" x2="155.13" y2="113.19"/><line x1="305.23" y1="209.63" x2="351.18" y2="177.83"/><line x1="247.45" y1="300.90" x2="235.31" y2="269.85"/><line x1="295.42" y1="479.03" x2="374.42" y2="353.10"/><line x1="354.82" y1="248.98" x2="400.77" y2="217.18"/><line x1="189.73" y1="303.54" x2="150.91" y2="224.32"/><line x1="239.35" y1="255.23" x2="203.14" y2="225.06"/><line x1="266.08" y1="178.56" x2="251.29" y2="189.49"/><line x1="155.14" y1="141.13" x2="162.70" y2="191.38"/><line x1="310.61" y1="145.65" x2="224.59" y2="145.65"/><line x1="214.20" y1="323.92" x2="267.01" y2="367.91"/><line x1="261.18" y1="291.40" x2="235.31" y2="269.85"/><line x1="351.18" y1="177.83" x2="305.23" y2="209.63"/><line x1="155.13" y1="113.19" x2="155.14" y2="141.13"/><line x1="227.81" y1="422.71" x2="301.67" y2="343.92"/><line x1="209.81" y1="156.58" x2="173.36" y2="127.66"/><line x1="274.06" y1="53.26" x2="247.37" y2="72.98"/><line x1="224.59" y1="145.65" x2="266.08" y2="178.56"/><line x1="313.99" y1="335.38" x2="261.18" y2="291.40"/><line x1="109.40" y1="146.98" x2="105.67" y2="233.52"/><line x1="189.73" y1="303.54" x2="221.33" y2="280.18"/><line x1="334.34" y1="321.30" x2="313.99" y2="335.38"/><line x1="173.56" y1="315.48" x2="189.73" y2="303.54"/><line x1="253.01" y1="256.78" x2="235.31" y2="269.85"/><line x1="351.18" y1="177.83" x2="247.37" y2="72.98"/><line x1="150.91" y1="224.32" x2="191.70" y2="233.52"/><line x1="289.98" y1="220.18" x2="266.08" y2="178.56"/><line x1="268.18" y1="235.28" x2="253.01" y2="256.78"/><line x1="173.36" y1="127.66" x2="190.66" y2="170.72"/><line x1="268.18" y1="235.28" x2="289.98" y2="220.18"/><line x1="162.70" y1="191.38" x2="121.09" y2="246.36"/><line x1="324.51" y1="247.57" x2="354.82" y2="248.98"/><line x1="313.99" y1="335.38" x2="301.67" y2="343.92"/><line x1="190.66" y1="170.72" x2="155.14" y2="141.13"/><line x1="109.40" y1="146.98" x2="36.20" y2="201.06"/><line x1="105.67" y1="233.52" x2="162.70" y2="191.38"/><line x1="400.77" y1="217.18" x2="366.32" y2="167.35"/><line x1="280.12" y1="278.29" x2="301.80" y2="263.29"/><line x1="209.81" y1="156.58" x2="173.36" y2="127.66"/><line x1="173.56" y1="315.48" x2="134.09" y2="344.65"/><line x1="313.99" y1="335.38" x2="334.34" y2="321.30"/><line x1="351.18" y1="177.83" x2="310.61" y2="145.65"/><line x1="224.59" y1="145.65" x2="251.29" y2="189.49"/><line x1="289.98" y1="220.18" x2="251.29" y2="189.49"/><line x1="227.81" y1="422.71" x2="134.09" y2="344.65"/><line x1="221.33" y1="280.18" x2="247.45" y2="300.90"/><line x1="251.29" y1="189.49" x2="209.81" y2="156.58"/><line x1="162.70" y1="191.38" x2="150.91" y2="224.32"/><line x1="134.09" y1="344.65" x2="32.00" y2="312.19"/><line x1="121.09" y1="246.36" x2="104.93" y2="258.30"/><line x1="267.01" y1="367.91" x2="247.45" y2="300.90"/><line x1="324.51" y1="247.57" x2="289.98" y2="220.18"/><line x1="366.32" y1="167.35" x2="443.44" y2="187.64"/><line x1="155.13" y1="113.19" x2="78.02" y2="120.84"/><line x1="190.66" y1="170.72" x2="231.10" y2="204.41"/><line x1="203.14" y1="225.06" x2="231.10" y2="204.41"/><line x1="231.10" y1="204.41" x2="190.66" y2="170.72"/><line x1="105.67" y1="233.52" x2="121.09" y2="246.36"/><line x1="247.37" y1="72.98" x2="224.59" y2="145.65"/><line x1="353.03" y1="367.91" x2="313.99" y2="335.38"/><line x1="301.67" y1="343.92" x2="261.18" y2="291.40"/><line x1="353.03" y1="367.91" x2="295.42" y2="479.03"/><line x1="196.94" y1="32.97" x2="155.13" y2="113.19"/><line x1="214.20" y1="323.92" x2="189.73" y2="303.54"/><line x1="121.09" y1="246.36" x2="105.67" y2="233.52"/><line x1="235.31" y1="269.85" x2="239.35" y2="255.23"/><line x1="280.12" y1="278.29" x2="334.34" y2="321.30"/><line x1="134.09" y1="344.65" x2="173.56" y2="315.48"/><line x1="247.45" y1="300.90" x2="301.67" y2="343.92"/><line x1="366.32" y1="167.35" x2="247.37" y2="72.98"/><line x1="189.73" y1="303.54" x2="214.20" y2="323.92"/><line x1="301.80" y1="263.29" x2="316.47" y2="275.51"/><line x1="266.08" y1="178.56" x2="305.23" y2="209.63"/><line x1="334.34" y1="321.30" x2="393.97" y2="280.03"/><line x1="155.14" y1="141.13" x2="109.40" y2="146.98"/><line x1="247.37" y1="72.98" x2="209.81" y2="156.58"/><line x1="261.18" y1="291.40" x2="253.01" y2="256.78"/><line x1="150.91" y1="224.32" x2="121.09" y2="246.36"/><line x1="374.42" y1="353.10" x2="334.34" y2="321.30"/><line x1="289.98" y1="220.18" x2="301.80" y2="263.29"/><line x1="193.33" y1="446.58" x2="32.00" y2="312.19"/><line x1="353.03" y1="367.91" x2="374.42" y2="353.10"/><line x1="251.29" y1="189.49" x2="268.18" y2="235.28"/><line x1="197.54" y1="335.45" x2="214.20" y2="323.92"/><line x1="235.31" y1="269.85" x2="261.18" y2="291.40"/><line x1="320.30" y1="358.70" x2="313.99" y2="335.38"/><line x1="280.12" y1="278.29" x2="301.80" y2="263.29"/><line x1="173.36" y1="127.66" x2="155.14" y2="141.13"/><line x1="32.00" y1="312.19" x2="104.93" y2="258.30"/><line x1="104.93" y1="258.30" x2="121.09" y2="246.36"/><line x1="247.45" y1="300.90" x2="261.18" y2="291.40"/><line x1="334.34" y1="321.30" x2="374.42" y2="353.10"/><line x1="155.14" y1="141.13" x2="190.66" y2="170.72"/><line x1="109.40" y1="146.98" x2="162.70" y2="191.38"/><line x1="310.61" y1="145.65" x2="266.08" y2="178.56"/><line x1="173.56" y1="315.48" x2="104.93" y2="258.30"/><line x1="214.20" y1="323.92" x2="247.45" y2="300.90"/><line x1="261.18" y1="291.40" x2="280.12" y2="278.29"/><line x1="351.18" y1="177.83" x2="400.77" y2="217.18"/><line x1="310.61" y1="145.65" x2="266.08" y2="178.56"/><line x1="374.42" y1="353.10" x2="422.39" y2="391.16"/><line x1="289.98" y1="220.18" x2="268.18" y2="235.28"/><line x1="268.18" y1="235.28" x2="301.80" y2="263.29"/><line x1="301.80" y1="263.29" x2="324.51" y2="247.57"/><line x1="268.18" y1="235.28" x2="239.35" y2="255.23"/><line x1="203.14" y1="225.06" x2="191.70" y2="233.52"/><line x1="251.29" y1="189.49" x2="231.10" y2="204.41"/><line x1="251.29" y1="189.49" x2="231.10" y2="204.41"/><line x1="162.70" y1="191.38" x2="190.66" y2="170.72"/><line x1="267.01" y1="367.91" x2="301.67" y2="343.92"/><line x1="261.18" y1="291.40" x2="313.99" y2="335.38"/><line x1="247.37" y1="72.98" x2="173.36" y2="127.66"/><line x1="324.51" y1="247.57" x2="316.47" y2="275.51"/><line x1="231.10" y1="204.41" x2="239.35" y2="255.23"/><line x1="320.30" y1="358.70" x2="353.03" y2="367.91"/><line x1="203.14" y1="225.06" x2="190.66" y2="170.72"/><line x1="316.47" y1="275.51" x2="334.34" y2="321.30"/></g></svg>