<svg xmlns="http://www.w3.org/2000/svg" width="512" height="512"><rect width="512" height="512" fill="#0a0f1a"/><text x="12" y="20" font-family="monospace" font-size="11" fill="#4a7fa5">FRONT (XZ)</text><g stroke="#00d4ff" stroke-width="0.6" opacity="0.85"><line x1="328.96" y1="225.78" x2="381.74" y2="203.92"/><line x1="286.22" y1="183.04" x2="324.05" y2="138.13"/><line x1="256.00" y1="256.00" x2="305.02" y2="293.61"/><line x1="315.67" y1="240.01" x2="317.25" y2="247.93"/><line x1="295.49" y1="324.39" x2="286.22" y2="328.96"/><line x1="200.16" y1="311.84" x2="159.76" y2="352.24"/><line x1="317.78" y1="256.00" x2="334.29" y2="266.31"/><line x1="330.58" y1="436.06" x2="309.15" y2="454.36"/><line x1="276.44" y1="332.28" x2="266.31" y2="334.29"/><line x1="295.49" y1="187.61" x2="286.89" y2="202.50"/><line x1="256.00" y1="256.00" x2="279.64" y2="313.07"/><line x1="281.44" y1="62.78" x2="256.00" y2="72.88"/><line x1="256.00" y1="50.64" x2="256.00" y2="61.11"/><line x1="256.00" y1="450.89" x2="256.00" y2="439.12"/><line x1="305.02" y1="218.39" x2="309.50" y2="225.11"/><line x1="170.28" y1="49.05" x2="198.02" y2="39.64"/><line x1="200.16" y1="200.16" x2="193.35" y2="207.93"/><line x1="256.00" y1="109.51" x2="256.00" y2="119.90"/><line x1="130.26" y1="203.92" x2="179.72" y2="235.56"/><line x1="433.71" y1="119.64" x2="418.92" y2="130.99"/><line x1="164.44" y1="414.58" x2="158.56" y2="424.78"/><line x1="309.50" y1="286.89" x2="305.02" y2="293.61"/><line x1="118.19" y1="393.81" x2="110.79" y2="401.21"/><line x1="358.68" y1="433.85" x2="353.44" y2="424.78"/><line x1="182.75" y1="129.13" x2="166.82" y2="139.78"/><line x1="303.40" y1="432.88" x2="281.44" y2="449.22"/><line x1="236.88" y1="110.76" x2="220.77" y2="124.53"/><line x1="194.75" y1="247.93" x2="196.33" y2="240.01"/><line x1="382.87" y1="182.75" x2="414.58" y2="164.44"/><line x1="449.22" y1="281.44" x2="454.36" y2="309.15"/><line x1="472.36" y1="313.98" x2="454.36" y2="309.15"/><line x1="120.66" y1="312.06" x2="79.12" y2="303.40"/><line x1="282.80" y1="52.40" x2="309.15" y2="57.64"/><line x1="256.00" y1="334.97" x2="238.23" y2="390.94"/><line x1="138.13" y1="187.95" x2="187.61" y2="216.51"/><line x1="230.56" y1="62.78" x2="256.00" y2="61.11"/><line x1="266.31" y1="334.29" x2="256.00" y2="392.10"/><line x1="334.59" y1="445.72" x2="330.58" y2="436.06"/><line x1="86.82" y1="326.08" x2="75.94" y2="330.58"/><line x1="202.85" y1="454.36" x2="205.56" y2="444.25"/><line x1="439.12" y1="256.00" x2="450.89" y2="256.00"/><line x1="152.41" y1="152.41" x2="148.02" y2="173.15"/><line x1="372.22" y1="345.18" x2="401.27" y2="367.48"/><line x1="256.00" y1="256.00" x2="309.50" y2="286.89"/><line x1="293.91" y1="114.50" x2="291.23" y2="124.53"/><line x1="368.00" y1="62.01" x2="334.59" y2="66.28"/><line x1="232.10" y1="74.45" x2="236.88" y2="110.76"/><line x1="200.16" y1="311.84" x2="148.02" y2="338.85"/><line x1="62.78" y1="230.56" x2="72.88" y2="256.00"/><line x1="374.64" y1="410.62" x2="358.68" y2="433.85"/><line x1="317.78" y1="256.00" x2="317.25" y2="264.07"/><line x1="281.44" y1="449.22" x2="256.00" y2="461.36"/><line x1="295.49" y1="187.61" x2="338.85" y2="148.02"/><line x1="203.92" y1="130.26" x2="225.78" y2="183.04"/><line x1="226.76" y1="33.91" x2="256.00" y2="32.00"/><line x1="130.26" y1="203.92" x2="124.53" y2="220.77"/><line x1="247.93" y1="317.25" x2="240.01" y2="315.67"/><line x1="232.36" y1="198.93" x2="235.56" y2="179.72"/><line x1="433.85" y1="358.68" x2="424.78" y2="353.44"/><line x1="183.04" y1="225.78" x2="179.72" y2="235.56"/><line x1="358.68" y1="433.85" x2="341.72" y2="462.95"/><line x1="229.20" y1="52.40" x2="205.56" y2="67.75"/><line x1="185.92" y1="425.18" x2="158.56" y2="424.78"/><line x1="177.41" y1="66.28" x2="181.42" y2="75.94"/><line x1="193.35" y1="304.07" x2="138.13" y2="324.05"/><line x1="236.88" y1="110.76" x2="256.00" y2="109.51"/><line x1="309.15" y1="57.64" x2="334.59" y2="66.28"/><line x1="480.00" y1="256.00" x2="461.36" y2="256.00"/><line x1="334.29" y1="266.31" x2="387.47" y2="291.23"/><line x1="235.56" y1="179.72" x2="240.01" y2="196.33"/><line x1="285.24" y1="478.09" x2="256.00" y2="480.00"/><line x1="173.15" y1="148.02" x2="200.16" y2="200.16"/><line x1="139.78" y1="345.18" x2="97.42" y2="347.56"/><line x1="220.77" y1="387.47" x2="218.09" y2="397.50"/><line x1="39.63" y1="313.98" x2="49.05" y2="341.72"/><line x1="158.56" y1="424.78" x2="137.36" y2="410.62"/><line x1="264.07" y1="194.75" x2="276.44" y2="179.72"/><line x1="449.99" y1="144.00" x2="462.95" y2="170.28"/><line x1="439.12" y1="256.00" x2="437.55" y2="279.90"/><line x1="392.36" y1="433.71" x2="368.00" y2="449.99"/><line x1="338.85" y1="363.98" x2="329.25" y2="382.87"/><line x1="436.06" y1="181.42" x2="414.58" y2="164.44"/><line x1="202.85" y1="454.36" x2="177.41" y2="445.72"/><line x1="179.72" y1="235.56" x2="194.75" y2="247.93"/><line x1="353.44" y1="424.78" x2="330.58" y2="436.06"/><line x1="312.06" y1="391.34" x2="303.40" y2="432.88"/><line x1="328.96" y1="225.78" x2="313.07" y2="232.36"/><line x1="207.93" y1="193.35" x2="218.39" y2="206.98"/><line x1="256.00" y1="256.00" x2="313.07" y2="279.64"/><line x1="373.87" y1="324.05" x2="324.39" y2="295.49"/><line x1="232.36" y1="313.07" x2="216.51" y2="324.39"/><line x1="114.50" y1="218.09" x2="121.06" y2="238.23"/><line x1="401.21" y1="110.79" x2="433.71" y2="119.64"/><line x1="393.81" y1="393.81" x2="374.64" y2="410.62"/><line x1="295.49" y1="324.39" x2="308.08" y2="381.74"/><line x1="200.16" y1="311.84" x2="212.32" y2="299.68"/><line x1="121.06" y1="273.77" x2="124.53" y2="291.23"/><line x1="33.91" y1="226.76" x2="39.64" y2="198.02"/><line x1="330.58" y1="436.06" x2="326.08" y2="425.18"/><line x1="62.78" y1="230.56" x2="74.45" y2="232.10"/><line x1="185.92" y1="86.82" x2="208.60" y2="79.12"/><line x1="97.61" y1="414.39" x2="78.29" y2="392.36"/><line x1="181.42" y1="75.94" x2="164.44" y2="97.42"/><line x1="317.25" y1="264.07" x2="332.28" y2="276.44"/><line x1="291.23" y1="124.53" x2="308.08" y2="130.26"/><line x1="185.92" y1="86.82" x2="182.75" y2="129.13"/><line x1="392.10" y1="256.00" x2="401.24" y2="275.12"/><line x1="124.53" y1="291.23" x2="183.04" y2="286.22"/><line x1="170.28" y1="49.05" x2="177.41" y2="66.28"/><line x1="332.28" y1="276.44" x2="328.96" y2="286.22"/><line x1="433.71" y1="119.64" x2="414.39" y2="97.61"/><line x1="66.28" y1="334.59" x2="78.15" y2="358.68"/><line x1="450.89" y1="256.00" x2="449.22" y2="281.44"/><line x1="459.60" y1="282.80" x2="449.22" y2="281.44"/><line x1="118.19" y1="393.81" x2="137.36" y2="410.62"/><line x1="78.29" y1="392.36" x2="93.08" y2="381.01"/><line x1="110.76" y1="236.88" x2="109.51" y2="256.00"/><line x1="182.75" y1="129.13" x2="187.95" y2="138.13"/><line x1="61.11" y1="256.00" x2="62.78" y2="230.56"/><line x1="286.89" y1="309.50" x2="286.22" y2="328.96"/><line x1="329.25" y1="382.87" x2="347.56" y2="414.58"/><line x1="358.68" y1="78.15" x2="330.58" y2="75.94"/><line x1="397.50" y1="293.91" x2="391.34" y2="312.06"/><line x1="173.15" y1="148.02" x2="207.93" y2="193.35"/><line x1="367.48" y1="401.27" x2="347.56" y2="414.58"/><line x1="449.22" y1="281.44" x2="444.25" y2="306.44"/><line x1="119.64" y1="78.29" x2="130.99" y2="93.08"/><line x1="138.13" y1="324.05" x2="130.26" y2="308.08"/><line x1="282.80" y1="52.40" x2="256.00" y2="61.11"/><line x1="52.40" y1="229.20" x2="39.64" y2="198.02"/><line x1="324.39" y1="216.51" x2="309.50" y2="225.11"/><line x1="391.34" y1="199.94" x2="432.88" y2="208.60"/><line x1="282.80" y1="459.60" x2="256.00" y2="480.00"/><line x1="347.56" y1="97.42" x2="374.64" y2="101.38"/><line x1="318.65" y1="304.07" x2="305.02" y2="293.61"/><line x1="202.85" y1="57.64" x2="229.20" y2="52.40"/><line x1="187.61" y1="295.49" x2="183.04" y2="286.22"/><line x1="334.59" y1="445.72" x2="353.44" y2="424.78"/><line x1="449.99" y1="368.00" x2="433.71" y2="392.36"/><line x1="126.52" y1="385.48" x2="110.73" y2="367.48"/><line x1="256.00" y1="256.00" x2="317.25" y2="247.93"/><line x1="238.23" y1="121.06" x2="220.77" y2="124.53"/><line x1="129.13" y1="329.25" x2="120.66" y2="312.06"/><line x1="152.41" y1="152.41" x2="139.78" y2="166.82"/><line x1="256.00" y1="256.00" x2="315.67" y2="271.99"/><line x1="196.33" y1="271.99" x2="194.75" y2="264.07"/><line x1="328.96" y1="225.78" x2="387.47" y2="220.77"/><line x1="461.36" y1="256.00" x2="449.22" y2="230.56"/><line x1="245.69" y1="334.29" x2="238.23" y2="390.94"/><line x1="275.12" y1="401.24" x2="256.00" y2="402.49"/><line x1="401.21" y1="110.79" x2="381.01" y2="93.08"/><line x1="130.99" y1="418.92" x2="97.61" y2="414.39"/><line x1="353.44" y1="87.22" x2="381.01" y2="93.08"/><line x1="295.49" y1="187.61" x2="304.07" y2="193.35"/><line x1="392.10" y1="256.00" x2="402.49" y2="256.00"/><line x1="72.88" y1="256.00" x2="74.45" y2="232.10"/><line x1="291.23" y1="124.53" x2="312.06" y2="120.66"/><line x1="334.29" y1="245.69" x2="334.97" y2="256.00"/><line x1="345.18" y1="139.78" x2="367.48" y2="110.73"/><line x1="203.92" y1="130.26" x2="216.51" y2="187.61"/><line x1="247.93" y1="317.25" x2="235.56" y2="332.28"/><line x1="177.71" y1="266.31" x2="177.03" y2="256.00"/><line x1="433.85" y1="358.68" x2="433.71" y2="392.36"/><line x1="148.02" y1="338.85" x2="138.13" y2="324.05"/><line x1="279.90" y1="74.45" x2="306.44" y2="67.75"/><line x1="240.01" y1="315.67" x2="232.36" y2="313.07"/><line x1="198.02" y1="472.36" x2="170.28" y2="462.95"/><line x1="229.20" y1="52.40" x2="256.00" y2="50.64"/><line x1="130.99" y1="93.08" x2="144.00" y2="62.01"/><line x1="309.50" y1="225.11" x2="328.96" y2="225.78"/><line x1="359.59" y1="152.41" x2="372.22" y2="166.82"/><line x1="205.56" y1="67.75" x2="185.92" y2="86.82"/><line x1="271.99" y1="196.33" x2="279.64" y2="198.93"/><line x1="334.29" y1="266.31" x2="317.25" y2="264.07"/><line x1="285.24" y1="478.09" x2="282.80" y2="459.60"/><line x1="256.00" y1="256.00" x2="286.89" y2="202.50"/><line x1="182.75" y1="382.87" x2="144.52" y2="401.27"/><line x1="87.22" y1="353.44" x2="66.28" y2="334.59"/><line x1="256.00" y1="256.00" x2="299.68" y2="212.32"/><line x1="129.13" y1="182.75" x2="120.66" y2="199.94"/><line x1="198.93" y1="232.36" x2="187.61" y2="216.51"/><line x1="299.68" y1="299.68" x2="293.61" y2="305.02"/><line x1="225.78" y1="328.96" x2="203.92" y2="381.74"/><line x1="256.00" y1="256.00" x2="315.67" y2="240.01"/><line x1="392.36" y1="433.71" x2="381.01" y2="418.92"/><line x1="256.00" y1="256.00" x2="256.00" y2="194.22"/><line x1="256.00" y1="177.03" x2="256.00" y2="194.22"/><line x1="50.64" y1="256.00" x2="33.91" y2="226.76"/><line x1="390.94" y1="238.23" x2="392.10" y2="256.00"/><line x1="279.64" y1="198.93" x2="295.49" y2="187.61"/><line x1="338.85" y1="148.02" x2="359.59" y2="152.41"/><line x1="97.61" y1="97.61" x2="119.64" y2="78.29"/><line x1="401.24" y1="236.88" x2="439.12" y2="256.00"/><line x1="324.05" y1="373.87" x2="308.08" y2="381.74"/><line x1="110.73" y1="367.48" x2="97.42" y2="347.56"/><line x1="462.95" y1="341.72" x2="449.99" y2="368.00"/><line x1="275.12" y1="401.24" x2="273.77" y2="390.94"/><line x1="67.75" y1="306.44" x2="79.12" y2="303.40"/><line x1="225.78" y1="183.04" x2="235.56" y2="179.72"/><line x1="444.25" y1="205.56" x2="449.22" y2="230.56"/><line x1="232.10" y1="437.55" x2="208.60" y2="432.88"/><line x1="216.51" y1="324.39" x2="207.93" y2="318.65"/><line x1="33.91" y1="226.76" x2="52.40" y2="229.20"/><line x1="374.64" y1="101.38" x2="393.81" y2="118.19"/><line x1="353.44" y1="87.22" x2="330.58" y2="75.94"/><line x1="295.49" y1="187.61" x2="324.05" y2="138.13"/><line x1="229.20" y1="459.60" x2="230.56" y2="449.22"/><line x1="392.10" y1="256.00" x2="390.94" y2="273.77"/><line x1="177.71" y1="245.69" x2="194.75" y2="247.93"/><line x1="273.77" y1="390.94" x2="266.31" y2="334.29"/><line x1="418.92" y1="130.99" x2="433.84" y2="153.32"/><line x1="66.28" y1="334.59" x2="57.64" y2="309.15"/><line x1="286.22" y1="328.96" x2="276.44" y2="332.28"/><line x1="148.02" y1="338.85" x2="139.78" y2="345.18"/><line x1="97.42" y1="347.56" x2="75.94" y2="330.58"/><line x1="459.60" y1="282.80" x2="450.89" y2="256.00"/><line x1="205.56" y1="444.25" x2="181.42" y2="436.06"/><line x1="78.15" y1="358.68" x2="62.01" y2="368.00"/><line x1="177.41" y1="66.28" x2="198.02" y2="39.64"/><line x1="381.74" y1="308.08" x2="391.34" y2="312.06"/><line x1="110.76" y1="236.88" x2="121.06" y2="238.23"/><line x1="391.34" y1="199.94" x2="382.87" y2="182.75"/><line x1="382.87" y1="329.25" x2="401.27" y2="367.48"/><line x1="235.56" y1="332.28" x2="225.78" y2="328.96"/><line x1="138.13" y1="187.95" x2="130.26" y2="203.92"/><line x1="358.68" y1="78.15" x2="368.00" y2="62.01"/><line x1="86.82" y1="185.92" x2="114.50" y2="218.09"/><line x1="282.80" y1="52.40" x2="313.98" y2="39.64"/><line x1="304.07" y1="193.35" x2="338.85" y2="148.02"/><line x1="182.75" y1="382.87" x2="164.44" y2="414.58"/><line x1="245.69" y1="177.71" x2="247.93" y2="194.75"/><line x1="256.00" y1="256.00" x2="194.22" y2="256.00"/><line x1="207.93" y1="318.65" x2="173.15" y2="363.98"/><line x1="256.00" y1="256.00" x2="309.50" y2="225.11"/><line x1="313.07" y1="279.64" x2="309.50" y2="286.89"/><line x1="256.00" y1="317.78" x2="245.69" y2="334.29"/><line x1="225.78" y1="328.96" x2="187.95" y2="373.87"/><line x1="449.99" y1="368.00" x2="433.85" y2="358.68"/><line x1="177.41" y1="445.72" x2="153.32" y2="433.84"/><line x1="256.00" y1="72.88" x2="256.00" y2="109.51"/><line x1="381.74" y1="203.92" x2="387.47" y2="220.77"/><line x1="50.64" y1="256.00" x2="61.11" y2="256.00"/><line x1="461.36" y1="256.00" x2="459.60" y2="282.80"/><line x1="293.91" y1="397.50" x2="275.12" y2="401.24"/><line x1="164.44" y1="97.42" x2="166.82" y2="139.78"/><line x1="196.33" y1="271.99" x2="177.71" y2="266.31"/><line x1="120.66" y1="312.06" x2="130.26" y2="308.08"/><line x1="425.18" y1="185.92" x2="432.88" y2="208.60"/><line x1="245.69" y1="334.29" x2="247.93" y2="317.25"/><line x1="110.73" y1="367.48" x2="87.22" y2="353.44"/><line x1="444.25" y1="205.56" x2="436.06" y2="181.42"/><line x1="293.91" y1="397.50" x2="279.90" y2="437.55"/><line x1="153.32" y1="78.15" x2="137.36" y2="101.38"/><line x1="229.20" y1="459.60" x2="198.02" y2="472.36"/><line x1="130.99" y1="418.92" x2="119.64" y2="433.71"/><line x1="256.00" y1="256.00" x2="212.32" y2="299.68"/><line x1="332.28" y1="235.56" x2="334.29" y2="245.69"/><line x1="67.75" y1="306.44" x2="62.78" y2="281.44"/><line x1="110.79" y1="110.79" x2="118.19" y2="118.19"/><line x1="324.39" y1="295.49" x2="363.98" y2="338.85"/><line x1="352.24" y1="352.24" x2="338.85" y2="363.98"/><line x1="359.59" y1="359.59" x2="385.48" y2="385.48"/><line x1="459.60" y1="229.20" x2="480.00" y2="256.00"/><line x1="418.92" y1="130.99" x2="410.62" y2="137.36"/><line x1="312.06" y1="120.66" x2="326.08" y2="86.82"/><line x1="148.02" y1="338.85" x2="129.13" y2="329.25"/><line x1="279.90" y1="74.45" x2="256.00" y2="109.51"/><line x1="198.02" y1="472.36" x2="202.85" y2="454.36"/><line x1="312.06" y1="120.66" x2="347.56" y2="97.42"/><line x1="382.87" y1="329.25" x2="414.58" y2="347.56"/><line x1="138.13" y1="187.95" x2="129.13" y2="182.75"/><line x1="454.36" y1="309.15" x2="445.72" y2="334.59"/><line x1="414.58" y1="347.56" x2="401.27" y2="367.48"/><line x1="401.21" y1="401.21" x2="392.36" y2="433.71"/><line x1="385.48" y1="385.48" x2="374.64" y2="410.62"/><line x1="286.89" y1="202.50" x2="304.07" y2="193.35"/><line x1="273.77" y1="121.06" x2="293.91" y2="114.50"/><line x1="317.25" y1="247.93" x2="334.97" y2="256.00"/><line x1="282.80" y1="459.60" x2="256.00" y2="461.36"/><line x1="347.56" y1="97.42" x2="367.48" y2="110.73"/><line x1="256.00" y1="256.00" x2="206.98" y2="293.61"/><line x1="207.93" y1="193.35" x2="200.16" y2="200.16"/><line x1="198.93" y1="232.36" x2="202.50" y2="225.11"/><line x1="225.78" y1="328.96" x2="232.36" y2="313.07"/><line x1="101.38" y1="374.64" x2="78.15" y2="358.68"/><line x1="256.00" y1="61.11" x2="281.44" y2="62.78"/><line x1="256.00" y1="256.00" x2="202.50" y2="225.11"/><line x1="216.51" y1="187.61" x2="225.11" y2="202.50"/><line x1="158.56" y1="87.22" x2="144.52" y2="110.73"/><line x1="256.00" y1="256.00" x2="247.93" y2="194.75"/><line x1="256.00" y1="177.03" x2="266.31" y2="177.71"/><line x1="118.19" y1="118.19" x2="126.52" y2="126.52"/><line x1="390.94" y1="238.23" x2="401.24" y2="236.88"/><line x1="373.87" y1="187.95" x2="324.39" y2="216.51"/><line x1="164.44" y1="97.42" x2="185.92" y2="86.82"/><line x1="256.00" y1="119.90" x2="256.00" y2="177.03"/><line x1="256.00" y1="439.12" x2="232.10" y2="437.55"/><line x1="110.79" y1="401.21" x2="93.08" y2="381.01"/><line x1="324.05" y1="373.87" x2="329.25" y2="382.87"/><line x1="202.50" y1="225.11" x2="187.61" y2="216.51"/><line x1="462.95" y1="341.72" x2="445.72" y2="334.59"/><line x1="293.91" y1="397.50" x2="303.40" y2="432.88"/><line x1="256.00" y1="461.36" x2="229.20" y2="459.60"/><line x1="225.78" y1="183.04" x2="232.36" y2="198.93"/><line x1="444.25" y1="205.56" x2="432.88" y2="208.60"/><line x1="232.10" y1="437.55" x2="205.56" y2="444.25"/><line x1="153.32" y1="78.15" x2="158.56" y2="87.22"/><line x1="275.12" y1="401.24" x2="279.90" y2="437.55"/><line x1="332.28" y1="235.56" x2="390.94" y2="238.23"/><line x1="352.24" y1="352.24" x2="359.59" y2="359.59"/><line x1="454.36" y1="202.85" x2="459.60" y2="229.20"/><line x1="424.78" y1="353.44" x2="410.62" y2="374.64"/><line x1="459.60" y1="282.80" x2="472.36" y2="313.98"/><line x1="62.01" y1="144.00" x2="78.15" y2="153.32"/><line x1="352.24" y1="159.76" x2="359.59" y2="152.41"/><line x1="276.44" y1="179.72" x2="271.99" y2="196.33"/><line x1="97.42" y1="347.56" x2="86.82" y2="326.08"/><line x1="359.59" y1="359.59" x2="367.48" y2="401.27"/><line x1="144.52" y1="110.73" x2="152.41" y2="152.41"/><line x1="381.74" y1="308.08" x2="328.96" y2="286.22"/><line x1="130.99" y1="93.08" x2="153.32" y2="78.15"/><line x1="390.94" y1="273.77" x2="397.50" y2="293.91"/><line x1="240.01" y1="196.33" x2="245.69" y2="177.71"/><line x1="418.92" y1="381.01" x2="401.21" y2="401.21"/><line x1="414.58" y1="164.44" x2="372.22" y2="166.82"/><line x1="33.91" y1="285.24" x2="52.40" y2="282.80"/><line x1="256.00" y1="50.64" x2="256.00" y2="61.11"/><line x1="414.58" y1="347.56" x2="424.78" y2="353.44"/><line x1="137.36" y1="410.62" x2="110.79" y2="401.21"/><line x1="182.75" y1="382.87" x2="166.82" y2="372.22"/><line x1="110.76" y1="275.12" x2="121.06" y2="273.77"/><line x1="306.44" y1="67.75" x2="334.59" y2="66.28"/><line x1="462.95" y1="170.28" x2="433.84" y2="153.32"/><line x1="291.23" y1="387.47" x2="276.44" y2="332.28"/><line x1="245.69" y1="177.71" x2="256.00" y2="177.03"/><line x1="437.55" y1="232.10" x2="450.89" y2="256.00"/><line x1="144.52" y1="401.27" x2="118.19" y2="393.81"/><line x1="126.52" y1="126.52" x2="139.78" y2="166.82"/><line x1="256.00" y1="256.00" x2="232.36" y2="198.93"/><line x1="432.88" y1="303.40" x2="444.25" y2="306.44"/><line x1="110.79" y1="401.21" x2="130.99" y2="418.92"/><line x1="256.00" y1="72.88" x2="279.90" y2="74.45"/><line x1="311.84" y1="200.16" x2="363.98" y2="173.15"/><line x1="120.66" y1="199.94" x2="130.26" y2="203.92"/><line x1="50.64" y1="256.00" x2="62.78" y2="281.44"/><line x1="218.09" y1="397.50" x2="199.94" y2="391.34"/><line x1="238.23" y1="390.94" x2="218.09" y2="397.50"/><line x1="381.01" y1="418.92" x2="358.68" y2="433.85"/><line x1="256.00" y1="256.00" x2="247.93" y2="317.25"/><line x1="120.66" y1="312.06" x2="114.50" y2="293.91"/><line x1="110.73" y1="367.48" x2="101.38" y2="374.64"/><line x1="93.08" y1="130.99" x2="87.22" y2="158.56"/><line x1="66.28" y1="177.41" x2="75.94" y2="181.42"/><line x1="187.95" y1="138.13" x2="173.15" y2="148.02"/><line x1="402.49" y1="256.00" x2="437.55" y2="279.90"/><line x1="324.39" y1="295.49" x2="309.50" y2="286.89"/><line x1="359.59" y1="152.41" x2="385.48" y2="126.52"/><line x1="124.53" y1="220.77" x2="179.72" y2="235.56"/><line x1="57.64" y1="309.15" x2="33.91" y2="285.24"/><line x1="368.00" y1="449.99" x2="341.72" y2="462.95"/><line x1="166.82" y1="372.22" x2="152.41" y2="359.59"/><line x1="374.64" y1="101.38" x2="381.01" y2="93.08"/><line x1="256.00" y1="194.22" x2="256.00" y2="256.00"/><line x1="309.15" y1="454.36" x2="285.24" y2="478.09"/><line x1="312.06" y1="120.66" x2="329.25" y2="129.13"/><line x1="352.24" y1="159.76" x2="363.98" y2="173.15"/><line x1="144.52" y1="110.73" x2="166.82" y2="139.78"/><line x1="308.08" y1="381.74" x2="291.23" y2="387.47"/><line x1="183.04" y1="286.22" x2="202.50" y2="286.89"/><line x1="390.94" y1="273.77" x2="401.24" y2="275.12"/><line x1="264.07" y1="317.25" x2="256.00" y2="334.97"/><line x1="101.38" y1="137.36" x2="118.19" y2="118.19"/><line x1="193.35" y1="207.93" x2="206.98" y2="218.39"/><line x1="62.01" y1="368.00" x2="78.29" y2="392.36"/><line x1="208.60" y1="79.12" x2="218.09" y2="114.50"/><line x1="273.77" y1="121.06" x2="256.00" y2="177.03"/><line x1="179.72" y1="276.44" x2="198.93" y2="279.64"/><line x1="173.15" y1="363.98" x2="159.76" y2="352.24"/><line x1="424.78" y1="158.56" x2="414.58" y2="164.44"/><line x1="256.00" y1="392.10" x2="256.00" y2="402.49"/><line x1="256.00" y1="256.00" x2="198.93" y2="279.64"/><line x1="256.00" y1="256.00" x2="198.93" y2="232.36"/><line x1="393.81" y1="118.19" x2="410.62" y2="137.36"/><line x1="279.90" y1="437.55" x2="256.00" y2="450.89"/><line x1="199.94" y1="120.66" x2="187.95" y2="138.13"/><line x1="216.51" y1="187.61" x2="218.39" y2="206.98"/><line x1="311.84" y1="200.16" x2="299.68" y2="212.32"/><line x1="345.18" y1="372.22" x2="347.56" y2="414.58"/><line x1="109.51" y1="256.00" x2="110.76" y2="275.12"/><line x1="159.76" y1="159.76" x2="148.02" y2="173.15"/><line x1="279.90" y1="437.55" x2="256.00" y2="439.12"/><line x1="387.47" y1="291.23" x2="391.34" y2="312.06"/><line x1="158.56" y1="87.22" x2="164.44" y2="97.42"/><line x1="363.98" y1="173.15" x2="382.87" y2="182.75"/><line x1="256.00" y1="119.90" x2="245.69" y2="177.71"/><line x1="238.23" y1="390.94" x2="220.77" y2="387.47"/><line x1="401.24" y1="236.88" x2="437.55" y2="232.10"/><line x1="433.71" y1="392.36" x2="418.92" y2="381.01"/><line x1="347.56" y1="414.58" x2="326.08" y2="425.18"/><line x1="308.08" y1="130.26" x2="312.06" y2="120.66"/><line x1="93.08" y1="130.99" x2="101.38" y2="137.36"/><line x1="79.12" y1="303.40" x2="74.45" y2="279.90"/><line x1="110.79" y1="110.79" x2="119.64" y2="78.29"/><line x1="324.05" y1="138.13" x2="338.85" y2="148.02"/><line x1="402.49" y1="256.00" x2="439.12" y2="256.00"/><line x1="271.99" y1="315.67" x2="264.07" y2="317.25"/><line x1="74.45" y1="279.90" x2="110.76" y2="275.12"/><line x1="352.24" y1="352.24" x2="311.84" y2="311.84"/><line x1="194.75" y1="264.07" x2="194.22" y2="256.00"/><line x1="363.98" y1="173.15" x2="372.22" y2="166.82"/><line x1="97.42" y1="164.44" x2="129.13" y2="182.75"/><line x1="374.64" y1="101.38" x2="401.21" y2="110.79"/><line x1="183.04" y1="225.78" x2="187.61" y2="216.51"/><line x1="110.73" y1="144.52" x2="126.52" y2="126.52"/><line x1="306.44" y1="67.75" x2="303.40" y2="79.12"/><line x1="304.07" y1="318.65" x2="295.49" y2="324.39"/><line x1="72.88" y1="256.00" x2="109.51" y2="256.00"/><line x1="235.56" y1="332.28" x2="220.77" y2="387.47"/><line x1="445.72" y1="177.41" x2="436.06" y2="181.42"/><line x1="137.36" y1="101.38" x2="158.56" y2="87.22"/><line x1="75.94" y1="181.42" x2="79.12" y2="208.60"/><line x1="275.12" y1="110.76" x2="273.77" y2="121.06"/><line x1="414.58" y1="164.44" x2="425.18" y2="185.92"/><line x1="170.28" y1="462.95" x2="144.00" y2="449.99"/><line x1="318.65" y1="207.93" x2="305.02" y2="218.39"/><line x1="256.00" y1="50.64" x2="230.56" y2="62.78"/><line x1="256.00" y1="256.00" x2="271.99" y2="196.33"/><line x1="86.82" y1="185.92" x2="120.66" y2="199.94"/><line x1="437.55" y1="232.10" x2="439.12" y2="256.00"/><line x1="273.77" y1="121.06" x2="291.23" y2="124.53"/><line x1="317.25" y1="247.93" x2="317.78" y2="256.00"/><line x1="306.44" y1="67.75" x2="330.58" y2="75.94"/><line x1="291.23" y1="387.47" x2="293.91" y2="397.50"/><line x1="57.64" y1="202.85" x2="66.28" y2="177.41"/><line x1="256.00" y1="256.00" x2="194.75" y2="264.07"/><line x1="193.35" y1="207.93" x2="187.61" y2="216.51"/><line x1="437.55" y1="232.10" x2="449.22" y2="230.56"/><line x1="303.40" y1="79.12" x2="326.08" y2="86.82"/><line x1="363.98" y1="173.15" x2="373.87" y2="187.95"/><line x1="311.84" y1="200.16" x2="318.65" y2="207.93"/><line x1="387.47" y1="291.23" x2="397.50" y2="293.91"/><line x1="256.00" y1="256.00" x2="286.89" y2="309.50"/><line x1="391.34" y1="312.06" x2="414.58" y2="347.56"/><line x1="75.94" y1="330.58" x2="67.75" y2="306.44"/><line x1="120.66" y1="199.94" x2="114.50" y2="218.09"/><line x1="305.02" y1="293.61" x2="299.68" y2="299.68"/><line x1="256.00" y1="256.00" x2="271.99" y2="315.67"/><line x1="49.05" y1="170.28" x2="62.01" y2="144.00"/><line x1="373.87" y1="187.95" x2="382.87" y2="182.75"/><line x1="381.01" y1="418.92" x2="374.64" y2="410.62"/><line x1="266.31" y1="177.71" x2="264.07" y2="194.75"/><line x1="256.00" y1="72.88" x2="256.00" y2="109.51"/><line x1="324.05" y1="138.13" x2="345.18" y2="139.78"/><line x1="329.25" y1="382.87" x2="312.06" y2="391.34"/><line x1="315.67" y1="271.99" x2="313.07" y2="279.64"/><line x1="444.25" y1="306.44" x2="454.36" y2="309.15"/><line x1="208.60" y1="432.88" x2="185.92" y2="425.18"/><line x1="313.98" y1="39.64" x2="309.15" y2="57.64"/><line x1="387.47" y1="220.77" x2="401.24" y2="236.88"/><line x1="121.06" y1="238.23" x2="119.90" y2="256.00"/><line x1="236.88" y1="401.24" x2="208.60" y2="432.88"/><line x1="472.36" y1="198.02" x2="462.95" y2="170.28"/><line x1="183.04" y1="286.22" x2="179.72" y2="276.44"/><line x1="218.39" y1="305.02" x2="200.16" y2="311.84"/><line x1="101.38" y1="137.36" x2="97.42" y2="164.44"/><line x1="326.08" y1="86.82" x2="347.56" y2="97.42"/><line x1="75.94" y1="181.42" x2="86.82" y2="185.92"/><line x1="212.32" y1="212.32" x2="218.39" y2="206.98"/><line x1="328.96" y1="286.22" x2="373.87" y2="324.05"/><line x1="363.98" y1="338.85" x2="359.59" y2="359.59"/><line x1="62.01" y1="368.00" x2="93.08" y2="381.01"/><line x1="110.76" y1="275.12" x2="124.53" y2="291.23"/><line x1="78.15" y1="153.32" x2="93.08" y2="130.99"/><line x1="256.00" y1="256.00" x2="202.50" y2="286.89"/><line x1="330.58" y1="75.94" x2="334.59" y2="66.28"/><line x1="286.22" y1="183.04" x2="295.49" y2="187.61"/><line x1="199.94" y1="120.66" x2="182.75" y2="129.13"/><line x1="391.34" y1="312.06" x2="425.18" y2="326.08"/><line x1="293.91" y1="114.50" x2="326.08" y2="86.82"/><line x1="256.00" y1="256.00" x2="293.61" y2="305.02"/><line x1="276.44" y1="332.28" x2="273.77" y2="390.94"/><line x1="433.84" y1="153.32" x2="424.78" y2="158.56"/><line x1="256.00" y1="402.49" x2="236.88" y2="401.24"/><line x1="425.18" y1="326.08" x2="414.58" y2="347.56"/><line x1="256.00" y1="256.00" x2="264.07" y2="317.25"/><line x1="256.00" y1="450.89" x2="230.56" y2="449.22"/><line x1="218.09" y1="397.50" x2="185.92" y2="425.18"/><line x1="164.44" y1="414.58" x2="185.92" y2="425.18"/><line x1="308.08" y1="130.26" x2="324.05" y2="138.13"/><line x1="256.00" y1="109.51" x2="275.12" y2="110.76"/><line x1="256.00" y1="256.00" x2="240.01" y2="315.67"/><line x1="66.28" y1="177.41" x2="62.01" y2="144.00"/><line x1="74.45" y1="232.10" x2="110.76" y2="236.88"/><line x1="425.18" y1="326.08" x2="424.78" y2="353.44"/><line x1="341.72" y1="49.05" x2="334.59" y2="66.28"/><line x1="271.99" y1="315.67" x2="266.31" y2="334.29"/><line x1="187.95" y1="138.13" x2="207.93" y2="193.35"/><line x1="194.75" y1="264.07" x2="177.03" y2="256.00"/><line x1="437.55" y1="279.90" x2="444.25" y2="306.44"/><line x1="144.52" y1="110.73" x2="164.44" y2="97.42"/><line x1="79.12" y1="208.60" x2="114.50" y2="218.09"/><line x1="256.00" y1="32.00" x2="256.00" y2="50.64"/><line x1="130.26" y1="308.08" x2="183.04" y2="286.22"/><line x1="212.32" y1="212.32" x2="206.98" y2="218.39"/><line x1="187.95" y1="373.87" x2="182.75" y2="382.87"/><line x1="304.07" y1="318.65" x2="338.85" y2="363.98"/><line x1="220.77" y1="387.47" x2="199.94" y2="391.34"/><line x1="152.41" y1="359.59" x2="126.52" y2="385.48"/><line x1="445.72" y1="177.41" x2="462.95" y2="170.28"/><line x1="306.44" y1="444.25" x2="281.44" y2="449.22"/><line x1="285.24" y1="33.91" x2="313.98" y2="39.64"/><line x1="170.28" y1="462.95" x2="177.41" y2="445.72"/><line x1="266.31" y1="334.29" x2="264.07" y2="317.25"/><line x1="101.38" y1="137.36" x2="110.73" y2="144.52"/><line x1="385.48" y1="126.52" x2="401.27" y2="144.52"/><line x1="326.08" y1="86.82" x2="353.44" y2="87.22"/><line x1="363.98" y1="338.85" x2="372.22" y2="345.18"/><line x1="393.81" y1="118.19" x2="401.21" y2="110.79"/><line x1="436.06" y1="330.58" x2="433.85" y2="358.68"/><line x1="173.15" y1="363.98" x2="152.41" y2="359.59"/><line x1="57.64" y1="202.85" x2="62.78" y2="230.56"/><line x1="232.10" y1="74.45" x2="208.60" y2="79.12"/><line x1="119.90" y1="256.00" x2="177.71" y2="266.31"/><line x1="387.47" y1="291.23" x2="332.28" y2="276.44"/><line x1="281.44" y1="449.22" x2="279.90" y2="437.55"/><line x1="330.58" y1="436.06" x2="306.44" y2="444.25"/><line x1="281.44" y1="62.78" x2="306.44" y2="67.75"/><line x1="381.01" y1="418.92" x2="368.00" y2="449.99"/><line x1="238.23" y1="121.06" x2="235.56" y2="179.72"/><line x1="256.00" y1="256.00" x2="256.00" y2="317.78"/><line x1="226.76" y1="33.91" x2="229.20" y2="52.40"/><line x1="266.31" y1="177.71" x2="291.23" y2="124.53"/><line x1="200.16" y1="200.16" x2="212.32" y2="212.32"/><line x1="425.18" y1="326.08" x2="436.06" y2="330.58"/><line x1="256.00" y1="72.88" x2="236.88" y2="110.76"/><line x1="303.40" y1="79.12" x2="330.58" y2="75.94"/><line x1="311.84" y1="311.84" x2="304.07" y2="318.65"/><line x1="478.09" y1="226.76" x2="480.00" y2="256.00"/><line x1="410.62" y1="137.36" x2="401.27" y2="144.52"/><line x1="67.75" y1="205.56" x2="75.94" y2="181.42"/><line x1="57.64" y1="309.15" x2="39.63" y2="313.98"/><line x1="299.68" y1="212.32" x2="318.65" y2="207.93"/><line x1="208.60" y1="432.88" x2="181.42" y2="436.06"/><line x1="367.48" y1="110.73" x2="374.64" y2="101.38"/><line x1="220.77" y1="387.47" x2="203.92" y2="381.74"/><line x1="256.00" y1="177.03" x2="256.00" y2="194.22"/><line x1="187.95" y1="373.87" x2="166.82" y2="372.22"/><line x1="472.36" y1="198.02" x2="445.72" y2="177.41"/><line x1="230.56" y1="62.78" x2="232.10" y2="74.45"/><line x1="144.00" y1="449.99" x2="119.64" y2="433.71"/><line x1="187.61" y1="295.49" x2="206.98" y2="293.61"/><line x1="293.61" y1="206.98" x2="311.84" y2="200.16"/><line x1="318.65" y1="207.93" x2="324.39" y2="216.51"/><line x1="328.96" y1="286.22" x2="313.07" y2="279.64"/><line x1="478.09" y1="285.24" x2="472.36" y2="313.98"/><line x1="256.00" y1="480.00" x2="226.76" y2="478.09"/><line x1="202.85" y1="454.36" x2="170.28" y2="462.95"/><line x1="86.82" y1="326.08" x2="79.12" y2="303.40"/><line x1="256.00" y1="256.00" x2="317.25" y2="264.07"/><line x1="410.62" y1="374.64" x2="393.81" y2="393.81"/><line x1="129.13" y1="329.25" x2="86.82" y2="326.08"/><line x1="78.15" y1="153.32" x2="75.94" y2="181.42"/><line x1="52.40" y1="282.80" x2="50.64" y2="256.00"/><line x1="144.52" y1="401.27" x2="137.36" y2="410.62"/><line x1="57.64" y1="202.85" x2="67.75" y2="205.56"/><line x1="256.00" y1="61.11" x2="256.00" y2="72.88"/><line x1="286.22" y1="183.04" x2="279.64" y2="198.93"/><line x1="372.22" y1="345.18" x2="385.48" y2="385.48"/><line x1="326.08" y1="86.82" x2="330.58" y2="75.94"/><line x1="199.94" y1="120.66" x2="203.92" y2="130.26"/><line x1="334.97" y1="256.00" x2="390.94" y2="273.77"/><line x1="433.84" y1="153.32" x2="410.62" y2="137.36"/><line x1="121.06" y1="273.77" x2="177.71" y2="266.31"/><line x1="75.94" y1="330.58" x2="57.64" y2="309.15"/><line x1="79.12" y1="208.60" x2="86.82" y2="185.92"/><line x1="230.56" y1="449.22" x2="205.56" y2="444.25"/><line x1="256.00" y1="50.64" x2="282.80" y2="52.40"/><line x1="32.00" y1="256.00" x2="33.91" y2="226.76"/><line x1="309.50" y1="286.89" x2="318.65" y2="304.07"/><line x1="114.50" y1="293.91" x2="124.53" y2="291.23"/><line x1="225.11" y1="309.50" x2="218.39" y2="305.02"/><line x1="193.35" y1="304.07" x2="148.02" y2="338.85"/><line x1="87.22" y1="158.56" x2="101.38" y2="137.36"/><line x1="61.11" y1="256.00" x2="74.45" y2="279.90"/><line x1="118.19" y1="393.81" x2="101.38" y2="374.64"/><line x1="79.12" y1="303.40" x2="114.50" y2="293.91"/><line x1="187.95" y1="373.87" x2="173.15" y2="363.98"/><line x1="256.00" y1="334.97" x2="245.69" y2="334.29"/><line x1="381.01" y1="93.08" x2="358.68" y2="78.15"/><line x1="401.27" y1="144.52" x2="372.22" y2="166.82"/><line x1="152.41" y1="359.59" x2="139.78" y2="345.18"/><line x1="158.56" y1="424.78" x2="153.32" y2="433.84"/><line x1="202.85" y1="57.64" x2="181.42" y2="75.94"/><line x1="216.51" y1="187.61" x2="207.93" y2="193.35"/><line x1="449.99" y1="144.00" x2="433.84" y2="153.32"/><line x1="126.52" y1="385.48" x2="144.52" y2="401.27"/><line x1="129.13" y1="329.25" x2="97.42" y2="347.56"/><line x1="212.32" y1="299.68" x2="206.98" y2="293.61"/><line x1="144.00" y1="62.01" x2="170.28" y2="49.05"/><line x1="152.41" y1="152.41" x2="159.76" y2="159.76"/><line x1="52.40" y1="282.80" x2="62.78" y2="281.44"/><line x1="373.87" y1="324.05" x2="363.98" y2="338.85"/><line x1="148.02" y1="173.15" x2="138.13" y2="187.95"/><line x1="334.97" y1="256.00" x2="317.78" y2="256.00"/><line x1="232.10" y1="74.45" x2="256.00" y2="72.88"/><line x1="401.27" y1="367.48" x2="385.48" y2="385.48"/><line x1="198.93" y1="279.64" x2="196.33" y2="271.99"/><line x1="200.16" y1="311.84" x2="193.35" y2="304.07"/><line x1="121.06" y1="273.77" x2="179.72" y2="276.44"/><line x1="138.13" y1="324.05" x2="120.66" y2="312.06"/><line x1="97.42" y1="164.44" x2="110.73" y2="144.52"/><line x1="256.00" y1="450.89" x2="229.20" y2="459.60"/><line x1="177.71" y1="266.31" x2="194.75" y2="264.07"/><line x1="345.18" y1="139.78" x2="385.48" y2="126.52"/><line x1="273.77" y1="390.94" x2="256.00" y2="402.49"/><line x1="311.84" y1="311.84" x2="299.68" y2="299.68"/><line x1="240.01" y1="315.67" x2="225.78" y2="328.96"/><line x1="478.09" y1="226.76" x2="459.60" y2="229.20"/><line x1="229.20" y1="52.40" x2="256.00" y2="32.00"/><line x1="414.39" y1="414.39" x2="392.36" y2="433.71"/><line x1="67.75" y1="205.56" x2="74.45" y2="232.10"/><line x1="329.25" y1="382.87" x2="326.08" y2="425.18"/><line x1="61.11" y1="256.00" x2="72.88" y2="256.00"/><line x1="329.25" y1="129.13" x2="345.18" y2="139.78"/><line x1="397.50" y1="293.91" x2="425.18" y2="326.08"/><line x1="256.00" y1="177.03" x2="247.93" y2="194.75"/><line x1="282.80" y1="52.40" x2="281.44" y2="62.78"/><line x1="52.40" y1="229.20" x2="57.64" y2="202.85"/><line x1="324.39" y1="216.51" x2="381.74" y2="203.92"/><line x1="256.00" y1="119.90" x2="256.00" y2="177.03"/><line x1="299.68" y1="299.68" x2="304.07" y2="318.65"/><line x1="144.00" y1="449.99" x2="153.32" y2="433.84"/><line x1="318.65" y1="304.07" x2="311.84" y2="311.84"/><line x1="202.85" y1="57.64" x2="205.56" y2="67.75"/><line x1="207.93" y1="318.65" x2="159.76" y2="352.24"/><line x1="338.85" y1="363.98" x2="324.05" y2="373.87"/><line x1="334.59" y1="445.72" x2="309.15" y2="454.36"/><line x1="478.09" y1="285.24" x2="459.60" y2="282.80"/><line x1="198.02" y1="39.64" x2="226.76" y2="33.91"/><line x1="97.61" y1="97.61" x2="110.79" y2="110.79"/><line x1="303.40" y1="79.12" x2="293.91" y2="114.50"/><line x1="52.40" y1="282.80" x2="32.00" y2="256.00"/><line x1="193.35" y1="304.07" x2="206.98" y2="293.61"/><line x1="353.44" y1="87.22" x2="374.64" y2="101.38"/><line x1="397.50" y1="218.09" x2="432.88" y2="208.60"/><line x1="372.22" y1="345.18" x2="359.59" y2="359.59"/><line x1="114.50" y1="218.09" x2="110.76" y2="236.88"/><line x1="315.67" y1="240.01" x2="334.29" y2="245.69"/><line x1="245.69" y1="334.29" x2="220.77" y2="387.47"/><line x1="295.49" y1="324.39" x2="286.89" y2="309.50"/><line x1="393.81" y1="393.81" x2="381.01" y2="418.92"/><line x1="276.44" y1="332.28" x2="271.99" y2="315.67"/><line x1="401.27" y1="367.48" x2="410.62" y2="374.64"/><line x1="374.64" y1="410.62" x2="367.48" y2="401.27"/><line x1="256.00" y1="50.64" x2="256.00" y2="32.00"/><line x1="305.02" y1="218.39" x2="324.39" y2="216.51"/><line x1="177.71" y1="245.69" x2="194.22" y2="256.00"/><line x1="256.00" y1="402.49" x2="232.10" y2="437.55"/><line x1="332.28" y1="276.44" x2="381.74" y2="308.08"/><line x1="205.56" y1="444.25" x2="208.60" y2="432.88"/><line x1="225.11" y1="309.50" x2="207.93" y2="318.65"/><line x1="279.90" y1="74.45" x2="303.40" y2="79.12"/><line x1="358.68" y1="433.85" x2="334.59" y2="445.72"/><line x1="118.19" y1="393.81" x2="93.08" y2="381.01"/><line x1="67.75" y1="205.56" x2="79.12" y2="208.60"/><line x1="236.88" y1="110.76" x2="238.23" y2="121.06"/><line x1="205.56" y1="67.75" x2="208.60" y2="79.12"/><line x1="397.50" y1="293.91" x2="432.88" y2="303.40"/><line x1="329.25" y1="129.13" x2="367.48" y2="110.73"/><line x1="334.29" y1="266.31" x2="332.28" y2="276.44"/><line x1="256.00" y1="334.97" x2="256.00" y2="317.78"/><line x1="391.34" y1="199.94" x2="425.18" y2="185.92"/><line x1="87.22" y1="353.44" x2="78.15" y2="358.68"/><line x1="264.07" y1="194.75" x2="271.99" y2="196.33"/><line x1="129.13" y1="182.75" x2="130.26" y2="203.92"/><line x1="158.56" y1="424.78" x2="130.99" y2="418.92"/><line x1="207.93" y1="193.35" x2="212.32" y2="212.32"/><line x1="207.93" y1="318.65" x2="218.39" y2="305.02"/><line x1="179.72" y1="235.56" x2="177.71" y2="245.69"/><line x1="397.50" y1="218.09" x2="401.24" y2="236.88"/><line x1="334.59" y1="445.72" x2="313.98" y2="472.36"/><line x1="312.06" y1="391.34" x2="293.91" y2="397.50"/><line x1="126.52" y1="385.48" x2="101.38" y2="374.64"/><line x1="238.23" y1="121.06" x2="256.00" y2="119.90"/><line x1="202.85" y1="454.36" x2="230.56" y2="449.22"/><line x1="279.64" y1="198.93" x2="286.89" y2="202.50"/><line x1="144.00" y1="62.01" x2="153.32" y2="78.15"/><line x1="401.24" y1="275.12" x2="397.50" y2="293.91"/><line x1="193.35" y1="304.07" x2="187.61" y2="295.49"/><line x1="328.96" y1="225.78" x2="332.28" y2="235.56"/><line x1="148.02" y1="173.15" x2="193.35" y2="207.93"/><line x1="401.21" y1="110.79" x2="418.92" y2="130.99"/><line x1="130.99" y1="418.92" x2="153.32" y2="433.84"/><line x1="332.28" y1="235.56" x2="387.47" y2="220.77"/><line x1="374.64" y1="410.62" x2="353.44" y2="424.78"/><line x1="317.25" y1="264.07" x2="315.67" y2="271.99"/><line x1="334.29" y1="245.69" x2="390.94" y2="238.23"/><line x1="345.18" y1="139.78" x2="359.59" y2="152.41"/><line x1="206.98" y1="218.39" x2="202.50" y2="225.11"/><line x1="454.36" y1="202.85" x2="436.06" y2="181.42"/><line x1="433.71" y1="119.64" x2="449.99" y2="144.00"/><line x1="66.28" y1="334.59" x2="49.05" y2="341.72"/><line x1="459.60" y1="282.80" x2="454.36" y2="309.15"/><line x1="220.77" y1="124.53" x2="235.56" y2="179.72"/><line x1="459.60" y1="229.20" x2="449.22" y2="230.56"/><line x1="414.39" y1="414.39" x2="401.21" y2="401.21"/><line x1="177.41" y1="66.28" x2="202.85" y2="57.64"/><line x1="110.76" y1="236.88" x2="119.90" y2="256.00"/><line x1="391.34" y1="199.94" x2="397.50" y2="218.09"/><line x1="138.13" y1="187.95" x2="183.04" y2="225.78"/><line x1="286.89" y1="309.50" x2="279.64" y2="313.07"/><line x1="271.99" y1="196.33" x2="286.22" y2="183.04"/><line x1="334.29" y1="266.31" x2="390.94" y2="273.77"/><line x1="139.78" y1="345.18" x2="129.13" y2="329.25"/><line x1="472.36" y1="313.98" x2="462.95" y2="341.72"/><line x1="138.13" y1="324.05" x2="187.61" y2="295.49"/><line x1="87.22" y1="353.44" x2="75.94" y2="330.58"/><line x1="304.07" y1="193.35" x2="352.24" y2="159.76"/><line x1="256.00" y1="119.90" x2="273.77" y2="121.06"/><line x1="256.00" y1="256.00" x2="305.02" y2="218.39"/><line x1="187.61" y1="295.49" x2="202.50" y2="286.89"/><line x1="338.85" y1="363.98" x2="345.18" y2="372.22"/><line x1="110.79" y1="401.21" x2="78.29" y2="392.36"/><line x1="312.06" y1="391.34" x2="326.08" y2="425.18"/><line x1="74.45" y1="279.90" x2="72.88" y2="256.00"/><line x1="256.00" y1="480.00" x2="256.00" y2="461.36"/><line x1="202.50" y1="286.89" x2="206.98" y2="293.61"/><line x1="338.85" y1="148.02" x2="345.18" y2="139.78"/><line x1="199.94" y1="391.34" x2="185.92" y2="425.18"/><line x1="114.50" y1="218.09" x2="124.53" y2="220.77"/><line x1="309.15" y1="57.64" x2="281.44" y2="62.78"/><line x1="373.87" y1="324.05" x2="372.22" y2="345.18"/><line x1="225.78" y1="183.04" x2="225.11" y2="202.50"/><line x1="256.00" y1="461.36" x2="226.76" y2="478.09"/><line x1="216.51" y1="324.39" x2="187.95" y2="373.87"/><line x1="67.75" y1="306.44" x2="52.40" y2="282.80"/><line x1="62.78" y1="230.56" x2="67.75" y2="205.56"/><line x1="353.44" y1="87.22" x2="358.68" y2="78.15"/><line x1="181.42" y1="75.94" x2="205.56" y2="67.75"/><line x1="185.92" y1="86.82" x2="199.94" y2="120.66"/><line x1="454.36" y1="202.85" x2="472.36" y2="198.02"/><line x1="334.29" y1="245.69" x2="392.10" y2="256.00"/><line x1="177.71" y1="245.69" x2="177.03" y2="256.00"/><line x1="332.28" y1="276.44" x2="315.67" y2="271.99"/><line x1="166.82" y1="372.22" x2="144.52" y2="401.27"/><line x1="459.60" y1="229.20" x2="461.36" y2="256.00"/><line x1="286.22" y1="328.96" x2="291.23" y2="387.47"/><line x1="232.36" y1="198.93" x2="240.01" y2="196.33"/><line x1="97.42" y1="347.56" x2="87.22" y2="353.44"/><line x1="433.85" y1="358.68" x2="418.92" y2="381.01"/><line x1="78.15" y1="358.68" x2="49.05" y2="341.72"/><line x1="166.82" y1="139.78" x2="159.76" y2="159.76"/><line x1="229.20" y1="52.40" x2="230.56" y2="62.78"/><line x1="130.99" y1="93.08" x2="118.19" y2="118.19"/><line x1="236.88" y1="110.76" x2="218.09" y2="114.50"/><line x1="418.92" y1="381.01" x2="410.62" y2="374.64"/><line x1="480.00" y1="256.00" x2="478.09" y2="285.24"/><line x1="120.66" y1="312.06" x2="86.82" y2="326.08"/><line x1="401.27" y1="144.52" x2="414.58" y2="164.44"/><line x1="385.48" y1="385.48" x2="367.48" y2="401.27"/><line x1="78.29" y1="119.64" x2="97.61" y2="97.61"/><line x1="347.56" y1="97.42" x2="353.44" y2="87.22"/><line x1="177.41" y1="445.72" x2="181.42" y2="436.06"/><line x1="256.00" y1="392.10" x2="238.23" y2="390.94"/><line x1="202.85" y1="57.64" x2="226.76" y2="33.91"/><line x1="313.07" y1="279.64" x2="324.39" y2="295.49"/><line x1="225.78" y1="328.96" x2="216.51" y2="324.39"/><line x1="256.00" y1="256.00" x2="225.11" y2="202.50"/><line x1="74.45" y1="232.10" x2="79.12" y2="208.60"/><line x1="256.00" y1="256.00" x2="317.78" y2="256.00"/><line x1="390.94" y1="238.23" x2="402.49" y2="256.00"/><line x1="164.44" y1="97.42" x2="182.75" y2="129.13"/><line x1="324.05" y1="373.87" x2="312.06" y2="391.34"/><line x1="373.87" y1="324.05" x2="382.87" y2="329.25"/><line x1="232.36" y1="313.07" x2="225.11" y2="309.50"/><line x1="401.21" y1="110.79" x2="414.39" y2="97.61"/><line x1="309.15" y1="57.64" x2="306.44" y2="67.75"/><line x1="153.32" y1="78.15" x2="170.28" y2="49.05"/><line x1="332.28" y1="235.56" x2="315.67" y2="240.01"/><line x1="216.51" y1="324.39" x2="173.15" y2="363.98"/><line x1="401.27" y1="367.48" x2="393.81" y2="393.81"/><line x1="181.42" y1="75.94" x2="185.92" y2="86.82"/><line x1="418.92" y1="130.99" x2="449.99" y2="144.00"/><line x1="334.29" y1="245.69" x2="317.25" y2="247.93"/><line x1="203.92" y1="130.26" x2="187.95" y2="138.13"/><line x1="368.00" y1="449.99" x2="358.68" y2="433.85"/><line x1="124.53" y1="291.23" x2="179.72" y2="276.44"/><line x1="273.77" y1="390.94" x2="256.00" y2="392.10"/><line x1="66.28" y1="334.59" x2="39.63" y2="313.98"/><line x1="166.82" y1="139.78" x2="173.15" y2="148.02"/><line x1="218.09" y1="114.50" x2="203.92" y2="130.26"/><line x1="177.41" y1="66.28" x2="158.56" y2="87.22"/><line x1="381.74" y1="308.08" x2="373.87" y2="324.05"/><line x1="130.99" y1="93.08" x2="137.36" y2="101.38"/><line x1="235.56" y1="332.28" x2="203.92" y2="381.74"/><line x1="205.56" y1="67.75" x2="230.56" y2="62.78"/><line x1="454.36" y1="309.15" x2="462.95" y2="341.72"/><line x1="181.42" y1="436.06" x2="158.56" y2="424.78"/><line x1="62.78" y1="281.44" x2="61.11" y2="256.00"/><line x1="358.68" y1="78.15" x2="334.59" y2="66.28"/><line x1="367.48" y1="401.27" x2="353.44" y2="424.78"/><line x1="139.78" y1="345.18" x2="110.73" y2="367.48"/><line x1="414.58" y1="347.56" x2="410.62" y2="374.64"/><line x1="119.64" y1="78.29" x2="144.00" y2="62.01"/><line x1="282.80" y1="459.60" x2="281.44" y2="449.22"/><line x1="324.39" y1="216.51" x2="328.96" y2="225.78"/><line x1="304.07" y1="193.35" x2="311.84" y2="200.16"/><line x1="424.78" y1="158.56" x2="436.06" y2="181.42"/><line x1="432.88" y1="303.40" x2="425.18" y2="326.08"/><line x1="256.00" y1="392.10" x2="256.00" y2="334.97"/><line x1="352.24" y1="159.76" x2="372.22" y2="166.82"/><line x1="291.23" y1="387.47" x2="273.77" y2="390.94"/><line x1="318.65" y1="304.07" x2="352.24" y2="352.24"/><line x1="256.00" y1="392.10" x2="236.88" y2="401.24"/><line x1="207.93" y1="318.65" x2="200.16" y2="311.84"/><line x1="256.00" y1="256.00" x2="313.07" y2="232.36"/><line x1="256.00" y1="256.00" x2="196.33" y2="240.01"/><line x1="432.88" y1="303.40" x2="436.06" y2="330.58"/><line x1="109.51" y1="256.00" x2="119.90" y2="256.00"/><line x1="110.79" y1="401.21" x2="97.61" y2="414.39"/><line x1="381.74" y1="203.92" x2="391.34" y2="199.94"/><line x1="202.50" y1="286.89" x2="198.93" y2="279.64"/><line x1="338.85" y1="148.02" x2="352.24" y2="159.76"/><line x1="401.24" y1="236.88" x2="402.49" y2="256.00"/><line x1="347.56" y1="414.58" x2="330.58" y2="436.06"/><line x1="401.24" y1="275.12" x2="432.88" y2="303.40"/><line x1="159.76" y1="352.24" x2="139.78" y2="345.18"/><line x1="309.15" y1="57.64" x2="341.72" y2="49.05"/><line x1="245.69" y1="334.29" x2="235.56" y2="332.28"/><line x1="444.25" y1="205.56" x2="425.18" y2="185.92"/><line x1="461.36" y1="256.00" x2="450.89" y2="256.00"/><line x1="256.00" y1="461.36" x2="256.00" y2="450.89"/><line x1="216.51" y1="324.39" x2="225.11" y2="309.50"/><line x1="139.78" y1="166.82" x2="148.02" y2="173.15"/><line x1="291.23" y1="124.53" x2="276.44" y2="179.72"/><line x1="324.39" y1="295.49" x2="318.65" y2="304.07"/><line x1="352.24" y1="352.24" x2="345.18" y2="372.22"/><line x1="124.53" y1="220.77" x2="177.71" y2="245.69"/><line x1="454.36" y1="202.85" x2="478.09" y2="226.76"/><line x1="454.36" y1="202.85" x2="444.25" y2="205.56"/><line x1="424.78" y1="353.44" x2="418.92" y2="381.01"/><line x1="166.82" y1="372.22" x2="126.52" y2="385.48"/><line x1="236.88" y1="401.24" x2="218.09" y2="397.50"/><line x1="286.22" y1="328.96" x2="279.64" y2="313.07"/><line x1="309.15" y1="454.36" x2="282.80" y2="459.60"/><line x1="199.94" y1="391.34" x2="164.44" y2="414.58"/><line x1="279.90" y1="74.45" x2="275.12" y2="110.76"/><line x1="166.82" y1="139.78" x2="152.41" y2="152.41"/><line x1="177.03" y1="256.00" x2="194.22" y2="256.00"/><line x1="382.87" y1="329.25" x2="372.22" y2="345.18"/><line x1="235.56" y1="332.28" x2="240.01" y2="315.67"/><line x1="309.50" y1="225.11" x2="313.07" y2="232.36"/><line x1="418.92" y1="381.01" x2="414.39" y2="414.39"/><line x1="137.36" y1="101.38" x2="126.52" y2="126.52"/><line x1="275.12" y1="110.76" x2="303.40" y2="79.12"/><line x1="181.42" y1="436.06" x2="153.32" y2="433.84"/><line x1="401.21" y1="401.21" x2="381.01" y2="418.92"/><line x1="208.60" y1="79.12" x2="199.94" y2="120.66"/><line x1="286.89" y1="202.50" x2="293.61" y2="206.98"/><line x1="78.29" y1="119.64" x2="93.08" y2="130.99"/><line x1="293.61" y1="305.02" x2="295.49" y2="324.39"/><line x1="194.22" y1="256.00" x2="194.75" y2="247.93"/><line x1="179.72" y1="276.44" x2="177.71" y2="266.31"/><line x1="101.38" y1="374.64" x2="87.22" y2="353.44"/><line x1="193.35" y1="207.93" x2="202.50" y2="225.11"/><line x1="437.55" y1="232.10" x2="432.88" y2="208.60"/><line x1="177.41" y1="445.72" x2="144.00" y2="449.99"/><line x1="126.52" y1="126.52" x2="152.41" y2="152.41"/><line x1="256.00" y1="256.00" x2="218.39" y2="206.98"/><line x1="50.64" y1="256.00" x2="52.40" y2="229.20"/><line x1="381.74" y1="203.92" x2="397.50" y2="218.09"/><line x1="461.36" y1="256.00" x2="478.09" y2="285.24"/><line x1="401.24" y1="275.12" x2="437.55" y2="279.90"/><line x1="373.87" y1="187.95" x2="391.34" y2="199.94"/><line x1="49.05" y1="170.28" x2="66.28" y2="177.41"/><line x1="93.08" y1="130.99" x2="97.61" y2="97.61"/><line x1="256.00" y1="256.00" x2="232.36" y2="313.07"/><line x1="67.75" y1="306.44" x2="57.64" y2="309.15"/><line x1="220.77" y1="124.53" x2="225.78" y2="183.04"/><line x1="110.79" y1="110.79" x2="130.99" y2="93.08"/><line x1="139.78" y1="166.82" x2="129.13" y2="182.75"/><line x1="74.45" y1="279.90" x2="114.50" y2="293.91"/><line x1="218.39" y1="206.98" x2="225.11" y2="202.50"/><line x1="124.53" y1="220.77" x2="121.06" y2="238.23"/><line x1="275.12" y1="401.24" x2="256.00" y2="439.12"/><line x1="454.36" y1="202.85" x2="445.72" y2="177.41"/><line x1="256.00" y1="194.22" x2="264.07" y2="194.75"/><line x1="359.59" y1="359.59" x2="345.18" y2="372.22"/><line x1="199.94" y1="391.34" x2="182.75" y2="382.87"/><line x1="459.60" y1="229.20" x2="444.25" y2="205.56"/><line x1="341.72" y1="462.95" x2="313.98" y2="472.36"/><line x1="276.44" y1="179.72" x2="308.08" y2="130.26"/><line x1="308.08" y1="381.74" x2="312.06" y2="391.34"/><line x1="218.09" y1="114.50" x2="220.77" y2="124.53"/><line x1="225.11" y1="202.50" x2="232.36" y2="198.93"/><line x1="72.88" y1="256.00" x2="110.76" y2="275.12"/><line x1="359.59" y1="152.41" x2="401.27" y2="144.52"/><line x1="279.64" y1="313.07" x2="271.99" y2="315.67"/><line x1="240.01" y1="196.33" x2="247.93" y2="194.75"/><line x1="181.42" y1="436.06" x2="185.92" y2="425.18"/><line x1="110.73" y1="144.52" x2="129.13" y2="182.75"/><line x1="137.36" y1="101.38" x2="144.52" y2="110.73"/><line x1="385.48" y1="385.48" x2="393.81" y2="393.81"/><line x1="256.00" y1="256.00" x2="206.98" y2="218.39"/><line x1="256.00" y1="256.00" x2="279.64" y2="198.93"/><line x1="304.07" y1="193.35" x2="293.61" y2="206.98"/><line x1="256.00" y1="256.00" x2="293.61" y2="206.98"/><line x1="424.78" y1="158.56" x2="401.27" y2="144.52"/><line x1="291.23" y1="387.47" x2="275.12" y2="401.24"/><line x1="256.00" y1="256.00" x2="194.75" y2="247.93"/><line x1="256.00" y1="317.78" x2="247.93" y2="317.25"/><line x1="326.08" y1="425.18" x2="306.44" y2="444.25"/><line x1="311.84" y1="200.16" x2="352.24" y2="159.76"/><line x1="256.00" y1="256.00" x2="240.01" y2="196.33"/><line x1="177.41" y1="445.72" x2="205.56" y2="444.25"/><line x1="118.19" y1="118.19" x2="137.36" y2="101.38"/><line x1="373.87" y1="187.95" x2="381.74" y2="203.92"/><line x1="347.56" y1="414.58" x2="353.44" y2="424.78"/><line x1="414.39" y1="97.61" x2="392.36" y2="78.29"/><line x1="159.76" y1="352.24" x2="148.02" y2="338.85"/><line x1="256.00" y1="256.00" x2="225.11" y2="309.50"/><line x1="153.32" y1="78.15" x2="177.41" y2="66.28"/><line x1="229.20" y1="459.60" x2="202.85" y2="454.36"/><line x1="437.55" y1="279.90" x2="449.22" y2="281.44"/><line x1="183.04" y1="225.78" x2="198.93" y2="232.36"/><line x1="57.64" y1="309.15" x2="52.40" y2="282.80"/><line x1="444.25" y1="306.44" x2="445.72" y2="334.59"/><line x1="78.15" y1="358.68" x2="93.08" y2="381.01"/><line x1="39.64" y1="198.02" x2="49.05" y2="170.28"/><line x1="309.15" y1="454.36" x2="306.44" y2="444.25"/><line x1="130.26" y1="308.08" x2="187.61" y2="295.49"/><line x1="304.07" y1="318.65" x2="293.61" y2="305.02"/><line x1="390.94" y1="273.77" x2="387.47" y2="291.23"/><line x1="285.24" y1="33.91" x2="282.80" y2="52.40"/><line x1="381.74" y1="308.08" x2="382.87" y2="329.25"/><line x1="264.07" y1="317.25" x2="256.00" y2="317.78"/><line x1="110.73" y1="144.52" x2="139.78" y2="166.82"/><line x1="445.72" y1="177.41" x2="424.78" y2="158.56"/><line x1="275.12" y1="110.76" x2="256.00" y2="119.90"/><line x1="313.98" y1="472.36" x2="285.24" y2="478.09"/><line x1="318.65" y1="207.93" x2="363.98" y2="173.15"/><line x1="62.78" y1="281.44" x2="74.45" y2="279.90"/><line x1="363.98" y1="338.85" x2="318.65" y2="304.07"/><line x1="126.52" y1="126.52" x2="144.52" y2="110.73"/><line x1="401.21" y1="401.21" x2="393.81" y2="393.81"/><line x1="273.77" y1="121.06" x2="266.31" y2="177.71"/><line x1="392.36" y1="78.29" x2="368.00" y2="62.01"/><line x1="179.72" y1="276.44" x2="196.33" y2="271.99"/><line x1="78.15" y1="153.32" x2="87.22" y2="158.56"/><line x1="345.18" y1="372.22" x2="329.25" y2="382.87"/><line x1="256.00" y1="256.00" x2="196.33" y2="271.99"/><line x1="144.52" y1="401.27" x2="164.44" y2="414.58"/><line x1="256.00" y1="61.11" x2="256.00" y2="72.88"/><line x1="158.56" y1="87.22" x2="181.42" y2="75.94"/><line x1="109.51" y1="256.00" x2="121.06" y2="273.77"/><line x1="159.76" y1="159.76" x2="193.35" y2="207.93"/><line x1="445.72" y1="334.59" x2="433.85" y2="358.68"/><line x1="266.31" y1="177.71" x2="256.00" y2="194.22"/><line x1="308.08" y1="130.26" x2="329.25" y2="129.13"/><line x1="66.28" y1="177.41" x2="78.15" y2="153.32"/><line x1="74.45" y1="232.10" x2="109.51" y2="256.00"/><line x1="256.00" y1="256.00" x2="218.39" y2="305.02"/><line x1="110.79" y1="110.79" x2="101.38" y2="137.36"/><line x1="402.49" y1="256.00" x2="401.24" y2="275.12"/><line x1="139.78" y1="166.82" x2="138.13" y2="187.95"/><line x1="410.62" y1="137.36" x2="424.78" y2="158.56"/><line x1="315.67" y1="271.99" x2="328.96" y2="286.22"/><line x1="226.76" y1="478.09" x2="198.02" y2="472.36"/><line x1="97.42" y1="164.44" x2="120.66" y2="199.94"/><line x1="385.48" y1="126.52" x2="393.81" y2="118.19"/><line x1="62.01" y1="144.00" x2="78.29" y2="119.64"/><line x1="387.47" y1="220.77" x2="397.50" y2="218.09"/><line x1="79.12" y1="208.60" x2="110.76" y2="236.88"/><line x1="382.87" y1="182.75" x2="372.22" y2="166.82"/><line x1="276.44" y1="179.72" x2="286.22" y2="183.04"/><line x1="341.72" y1="462.95" x2="334.59" y2="445.72"/><line x1="308.08" y1="381.74" x2="286.22" y2="328.96"/><line x1="218.09" y1="114.50" x2="199.94" y2="120.66"/><line x1="236.88" y1="401.24" x2="232.10" y2="437.55"/><line x1="304.07" y1="318.65" x2="324.05" y2="373.87"/><line x1="121.06" y1="238.23" x2="177.03" y2="256.00"/><line x1="445.72" y1="177.41" x2="433.84" y2="153.32"/><line x1="279.64" y1="313.07" x2="276.44" y2="332.28"/><line x1="275.12" y1="110.76" x2="293.91" y2="114.50"/><line x1="33.91" y1="285.24" x2="32.00" y2="256.00"/><line x1="137.36" y1="410.62" x2="130.99" y2="418.92"/><line x1="247.93" y1="194.75" x2="256.00" y2="194.22"/><line x1="393.81" y1="118.19" x2="418.92" y2="130.99"/><line x1="313.07" y1="232.36" x2="315.67" y2="240.01"/><line x1="293.61" y1="305.02" x2="286.89" y2="309.50"/><line x1="110.76" y1="275.12" x2="114.50" y2="293.91"/><line x1="203.92" y1="381.74" x2="199.94" y2="391.34"/><line x1="256.00" y1="61.11" x2="232.10" y2="74.45"/><line x1="153.32" y1="433.84" x2="119.64" y2="433.71"/><line x1="286.22" y1="183.04" x2="308.08" y2="130.26"/><line x1="345.18" y1="372.22" x2="367.48" y2="401.27"/><line x1="326.08" y1="425.18" x2="303.40" y2="432.88"/><line x1="232.10" y1="74.45" x2="218.09" y2="114.50"/><line x1="256.00" y1="256.00" x2="299.68" y2="299.68"/><line x1="118.19" y1="118.19" x2="110.73" y2="144.52"/><line x1="387.47" y1="291.23" x2="381.74" y2="308.08"/><line x1="120.66" y1="199.94" x2="124.53" y2="220.77"/><line x1="432.88" y1="208.60" x2="449.22" y2="230.56"/><line x1="230.56" y1="449.22" x2="232.10" y2="437.55"/><line x1="32.00" y1="256.00" x2="50.64" y2="256.00"/><line x1="414.39" y1="97.61" x2="381.01" y2="93.08"/><line x1="218.09" y1="397.50" x2="208.60" y2="432.88"/><line x1="119.64" y1="433.71" x2="97.61" y2="414.39"/><line x1="159.76" y1="352.24" x2="152.41" y2="359.59"/><line x1="130.26" y1="203.92" x2="183.04" y2="225.78"/><line x1="93.08" y1="130.99" x2="110.79" y2="110.79"/><line x1="220.77" y1="124.53" x2="203.92" y2="130.26"/><line x1="114.50" y1="293.91" x2="130.26" y2="308.08"/><line x1="324.05" y1="138.13" x2="329.25" y2="129.13"/><line x1="341.72" y1="49.05" x2="368.00" y2="62.01"/><line x1="437.55" y1="279.90" x2="432.88" y2="303.40"/><line x1="187.95" y1="138.13" x2="216.51" y2="187.61"/><line x1="449.22" y1="230.56" x2="450.89" y2="256.00"/><line x1="87.22" y1="158.56" x2="86.82" y2="185.92"/><line x1="303.40" y1="432.88" x2="306.44" y2="444.25"/><line x1="183.04" y1="225.78" x2="196.33" y2="240.01"/><line x1="444.25" y1="306.44" x2="436.06" y2="330.58"/><line x1="299.68" y1="212.32" x2="305.02" y2="218.39"/><line x1="39.64" y1="198.02" x2="57.64" y2="202.85"/><line x1="130.26" y1="308.08" x2="124.53" y2="291.23"/><line x1="367.48" y1="110.73" x2="393.81" y2="118.19"/><line x1="121.06" y1="238.23" x2="177.71" y2="245.69"/><line x1="381.01" y1="93.08" x2="392.36" y2="78.29"/><line x1="308.08" y1="381.74" x2="293.91" y2="397.50"/><line x1="183.04" y1="286.22" x2="198.93" y2="279.64"/><line x1="306.44" y1="444.25" x2="282.80" y2="459.60"/><line x1="285.24" y1="33.91" x2="256.00" y2="32.00"/><line x1="256.00" y1="109.51" x2="256.00" y2="119.90"/><line x1="313.98" y1="472.36" x2="309.15" y2="454.36"/><line x1="216.51" y1="187.61" x2="225.78" y2="183.04"/><line x1="385.48" y1="126.52" x2="410.62" y2="137.36"/><line x1="293.61" y1="206.98" x2="299.68" y2="212.32"/><line x1="328.96" y1="286.22" x2="324.39" y2="295.49"/><line x1="392.36" y1="78.29" x2="358.68" y2="78.15"/><line x1="436.06" y1="330.58" x2="445.72" y2="334.59"/><line x1="101.38" y1="374.64" x2="93.08" y2="381.01"/><line x1="173.15" y1="363.98" x2="166.82" y2="372.22"/><line x1="57.64" y1="202.85" x2="49.05" y2="170.28"/><line x1="203.92" y1="381.74" x2="182.75" y2="382.87"/><line x1="119.90" y1="256.00" x2="121.06" y2="273.77"/><line x1="334.97" y1="256.00" x2="392.10" y2="256.00"/><line x1="391.34" y1="312.06" x2="382.87" y2="329.25"/><line x1="159.76" y1="159.76" x2="200.16" y2="200.16"/><line x1="445.72" y1="334.59" x2="449.99" y2="368.00"/><line x1="305.02" y1="293.61" x2="311.84" y2="311.84"/><line x1="281.44" y1="62.78" x2="279.90" y2="74.45"/><line x1="238.23" y1="390.94" x2="236.88" y2="401.24"/><line x1="433.71" y1="392.36" x2="414.39" y2="414.39"/><line x1="148.02" y1="173.15" x2="187.61" y2="216.51"/><line x1="164.44" y1="414.58" x2="137.36" y2="410.62"/><line x1="66.28" y1="177.41" x2="67.75" y2="205.56"/><line x1="212.32" y1="299.68" x2="193.35" y2="304.07"/><line x1="478.09" y1="226.76" x2="472.36" y2="198.02"/><line x1="226.76" y1="478.09" x2="229.20" y2="459.60"/><line x1="87.22" y1="158.56" x2="97.42" y2="164.44"/><line x1="182.75" y1="129.13" x2="173.15" y2="148.02"/><line x1="303.40" y1="432.88" x2="279.90" y2="437.55"/><line x1="173.15" y1="148.02" x2="159.76" y2="159.76"/><line x1="387.47" y1="220.77" x2="390.94" y2="238.23"/><line x1="382.87" y1="182.75" x2="425.18" y2="185.92"/><line x1="52.40" y1="229.20" x2="61.11" y2="256.00"/><line x1="152.41" y1="359.59" x2="110.73" y2="367.48"/><line x1="75.94" y1="181.42" x2="87.22" y2="158.56"/><line x1="266.31" y1="334.29" x2="256.00" y2="334.97"/><line x1="397.50" y1="218.09" x2="437.55" y2="232.10"/><line x1="256.00" y1="256.00" x2="212.32" y2="212.32"/><line x1="318.65" y1="207.93" x2="373.87" y2="187.95"/><line x1="363.98" y1="338.85" x2="352.24" y2="352.24"/><line x1="313.07" y1="232.36" x2="332.28" y2="235.56"/><line x1="86.82" y1="326.08" x2="67.75" y2="306.44"/><line x1="198.02" y1="39.64" x2="202.85" y2="57.64"/><line x1="439.12" y1="256.00" x2="449.22" y2="281.44"/><line x1="78.15" y1="153.32" x2="78.29" y2="119.64"/><line x1="203.92" y1="381.74" x2="187.95" y2="373.87"/><line x1="436.06" y1="330.58" x2="424.78" y2="353.44"/><line x1="410.62" y1="374.64" x2="401.21" y2="401.21"/><line x1="334.97" y1="256.00" x2="334.29" y2="266.31"/><line x1="295.49" y1="324.39" x2="324.05" y2="373.87"/><line x1="196.33" y1="240.01" x2="198.93" y2="232.36"/><line x1="293.91" y1="114.50" x2="312.06" y2="120.66"/><line x1="119.90" y1="256.00" x2="177.03" y2="256.00"/><line x1="281.44" y1="449.22" x2="256.00" y2="450.89"/><line x1="75.94" y1="330.58" x2="66.28" y2="334.59"/><line x1="230.56" y1="449.22" x2="256.00" y2="439.12"/><line x1="256.00" y1="50.64" x2="285.24" y2="33.91"/><line x1="256.00" y1="402.49" x2="256.00" y2="439.12"/><line x1="238.23" y1="121.06" x2="245.69" y2="177.71"/><line x1="266.31" y1="177.71" x2="276.44" y2="179.72"/><line x1="79.12" y1="303.40" x2="62.78" y2="281.44"/><line x1="200.16" y1="200.16" x2="206.98" y2="218.39"/><line x1="311.84" y1="311.84" x2="338.85" y2="363.98"/><line x1="86.82" y1="185.92" x2="97.42" y2="164.44"/><line x1="313.98" y1="39.64" x2="341.72" y2="49.05"/><line x1="329.25" y1="129.13" x2="347.56" y2="97.42"/><line x1="235.56" y1="179.72" x2="245.69" y2="177.71"/><line x1="367.48" y1="110.73" x2="385.48" y2="126.52"/><line x1="39.63" y1="313.98" x2="33.91" y2="285.24"/><line x1="52.40" y1="229.20" x2="62.78" y2="230.56"/><line x1="264.07" y1="194.75" x2="256.00" y2="256.00"/><line x1="218.39" y1="305.02" x2="212.32" y2="299.68"/><line x1="256.00" y1="109.51" x2="238.23" y2="121.06"/><line x1="230.56" y1="62.78" x2="208.60" y2="79.12"/><line x1="436.06" y1="181.42" x2="425.18" y2="185.92"/><line x1="126.52" y1="385.48" x2="118.19" y2="393.81"/><line x1="179.72" y1="235.56" x2="196.33" y2="240.01"/><line x1="49.05" y1="341.72" x2="62.01" y2="368.00"/><line x1="129.13" y1="329.25" x2="138.13" y2="324.05"/></g></svg>