<svg xmlns="http://www.w3.org/2000/svg" width="512" height="512"><rect width="512" height="512" fill="#0a0f1a"/><text x="12" y="20" font-family="monospace" font-size="11" fill="#4a7fa5">FRONT (XZ)</text><g stroke="#00d4ff" stroke-width="0.6" opacity="0.85"><line x1="202.84" y1="260.67" x2="187.11" y2="221.78"/><line x1="48.31" y1="423.42" x2="50.34" y2="407.88"/><line x1="453.65" y1="153.37" x2="457.10" y2="155.93"/><line x1="425.97" y1="35.82" x2="422.65" y2="35.27"/><line x1="404.52" y1="55.05" x2="391.32" y2="38.74"/><line x1="286.86" y1="167.66" x2="258.40" y2="150.98"/><line x1="187.11" y1="221.78" x2="204.01" y2="203.11"/><line x1="276.60" y1="385.20" x2="266.28" y2="411.48"/><line x1="130.93" y1="439.19" x2="84.54" y2="445.52"/><line x1="422.65" y1="35.27" x2="419.23" y2="34.85"/><line x1="134.22" y1="457.42" x2="95.22" y2="475.56"/><line x1="280.63" y1="226.09" x2="268.70" y2="185.05"/><line x1="134.22" y1="457.42" x2="135.10" y2="460.22"/><line x1="210.90" y1="445.65" x2="192.77" y2="454.58"/><line x1="137.78" y1="467.10" x2="138.25" y2="468.11"/><line x1="202.84" y1="260.67" x2="170.99" y2="240.99"/><line x1="188.80" y1="280.41" x2="155.73" y2="260.67"/><line x1="74.32" y1="337.60" x2="59.96" y2="308.41"/><line x1="357.88" y1="168.05" x2="432.41" y2="237.97"/><line x1="318.41" y1="193.43" x2="286.86" y2="167.66"/><line x1="321.85" y1="75.58" x2="330.62" y2="70.23"/><line x1="250.51" y1="388.17" x2="236.65" y2="386.04"/><line x1="101.57" y1="477.41" x2="107.01" y2="477.61"/><line x1="131.01" y1="418.71" x2="85.83" y2="403.92"/><line x1="90.18" y1="476.44" x2="94.49" y2="474.38"/><line x1="429.90" y1="146.78" x2="478.60" y2="87.29"/><line x1="405.73" y1="34.59" x2="404.52" y2="55.05"/><line x1="371.24" y1="39.42" x2="340.58" y2="48.78"/><line x1="239.74" y1="167.66" x2="258.40" y2="150.98"/><line x1="90.59" y1="466.93" x2="91.18" y2="468.21"/><line x1="236.65" y1="386.04" x2="229.26" y2="435.44"/><line x1="107.01" y1="477.61" x2="110.59" y2="477.56"/><line x1="48.15" y1="444.13" x2="83.81" y2="439.19"/><line x1="48.31" y1="423.42" x2="83.90" y2="418.71"/><line x1="404.52" y1="55.05" x2="399.80" y2="35.15"/><line x1="89.28" y1="388.29" x2="94.24" y2="371.88"/><line x1="87.11" y1="457.42" x2="74.06" y2="473.00"/><line x1="465.00" y1="166.03" x2="463.63" y2="178.12"/><line x1="353.59" y1="336.98" x2="263.32" y2="244.52"/><line x1="459.65" y1="51.52" x2="458.15" y2="50.11"/><line x1="83.81" y1="439.19" x2="48.02" y2="442.11"/><line x1="365.60" y1="74.89" x2="363.48" y2="105.91"/><line x1="108.68" y1="336.98" x2="147.82" y2="354.76"/><line x1="135.10" y1="460.22" x2="129.15" y2="475.43"/><line x1="458.15" y1="50.11" x2="456.59" y2="48.78"/><line x1="188.80" y1="280.41" x2="170.99" y2="240.99"/><line x1="147.82" y1="354.76" x2="100.70" y2="354.76"/><line x1="174.42" y1="197.04" x2="145.99" y2="188.03"/><line x1="277.44" y1="135.10" x2="271.85" y2="109.81"/><line x1="91.32" y1="256.07" x2="108.99" y2="278.19"/><line x1="276.61" y1="385.21" x2="216.68" y2="319.91"/><line x1="129.15" y1="475.43" x2="136.07" y2="462.96"/><line x1="131.24" y1="442.39" x2="84.54" y2="445.52"/><line x1="414.10" y1="50.84" x2="405.73" y2="34.59"/><line x1="35.31" y1="432.34" x2="48.31" y2="423.42"/><line x1="429.90" y1="146.78" x2="452.14" y2="54.82"/><line x1="371.24" y1="39.42" x2="382.78" y2="42.57"/><line x1="132.99" y1="474.71" x2="137.34" y2="466.08"/><line x1="479.97" y1="98.90" x2="478.60" y2="87.29"/><line x1="49.69" y1="455.78" x2="49.34" y2="453.90"/><line x1="85.03" y1="448.60" x2="49.34" y2="453.90"/><line x1="453.67" y1="153.40" x2="449.78" y2="151.23"/><line x1="292.40" y1="94.96" x2="316.37" y2="105.91"/><line x1="95.84" y1="298.50" x2="118.16" y2="318.63"/><line x1="48.31" y1="423.42" x2="32.22" y2="416.23"/><line x1="247.56" y1="264.05" x2="234.23" y2="221.78"/><line x1="130.71" y1="435.93" x2="83.81" y2="439.19"/><line x1="404.52" y1="55.05" x2="394.88" y2="59.56"/><line x1="316.37" y1="105.91" x2="336.05" y2="92.72"/><line x1="87.11" y1="457.42" x2="132.16" y2="448.60"/><line x1="137.34" y1="466.08" x2="137.78" y2="467.10"/><line x1="208.93" y1="128.57" x2="242.01" y2="103.10"/><line x1="263.32" y1="244.52" x2="234.23" y2="221.78"/><line x1="47.92" y1="440.07" x2="47.85" y2="438.00"/><line x1="478.67" y1="124.87" x2="449.76" y2="151.20"/><line x1="137.78" y1="467.10" x2="136.87" y2="473.90"/><line x1="460.16" y1="186.27" x2="456.37" y2="194.57"/><line x1="135.10" y1="460.22" x2="157.61" y2="468.32"/><line x1="429.37" y1="65.88" x2="421.71" y2="69.93"/><line x1="234.23" y1="221.78" x2="218.10" y2="240.99"/><line x1="321.85" y1="75.58" x2="336.05" y2="92.72"/><line x1="383.17" y1="92.72" x2="365.60" y2="74.89"/><line x1="131.01" y1="418.71" x2="192.77" y2="454.58"/><line x1="90.18" y1="476.44" x2="93.78" y2="473.19"/><line x1="296.80" y1="120.05" x2="316.37" y2="105.91"/><line x1="371.24" y1="39.42" x2="365.53" y2="50.91"/><line x1="239.74" y1="167.66" x2="221.59" y2="185.05"/><line x1="136.48" y1="464.01" x2="136.90" y2="465.05"/><line x1="308.43" y1="62.79" x2="339.38" y2="65.08"/><line x1="90.59" y1="466.93" x2="133.44" y2="454.55"/><line x1="305.51" y1="150.98" x2="277.44" y2="135.10"/><line x1="41.26" y1="446.21" x2="35.31" y2="432.34"/><line x1="385.17" y1="64.39" x2="375.40" y2="69.49"/><line x1="258.40" y1="150.98" x2="251.54" y2="125.61"/><line x1="432.28" y1="37.31" x2="429.18" y2="36.50"/><line x1="442.98" y1="220.26" x2="377.31" y2="158.68"/><line x1="440.70" y1="148.12" x2="478.67" y2="124.87"/><line x1="269.74" y1="386.65" x2="276.61" y2="385.21"/><line x1="313.47" y1="371.74" x2="321.19" y2="367.90"/><line x1="471.97" y1="154.12" x2="462.70" y2="162.17"/><line x1="391.32" y1="38.74" x2="371.24" y2="39.42"/><line x1="156.68" y1="216.63" x2="117.33" y2="221.19"/><line x1="363.48" y1="105.91" x2="343.92" y2="120.05"/><line x1="131.24" y1="442.39" x2="85.03" y2="448.60"/><line x1="460.16" y1="186.27" x2="453.67" y2="153.40"/><line x1="174.42" y1="197.04" x2="192.88" y2="178.07"/><line x1="234.23" y1="221.78" x2="204.01" y2="203.11"/><line x1="414.10" y1="50.84" x2="411.24" y2="34.39"/><line x1="449.70" y1="44.05" x2="447.82" y2="43.01"/><line x1="155.80" y1="336.98" x2="147.82" y2="354.76"/><line x1="426.62" y1="246.98" x2="338.12" y2="179.72"/><line x1="211.27" y1="350.40" x2="212.46" y2="336.00"/><line x1="476.00" y1="139.11" x2="471.97" y2="154.12"/><line x1="305.84" y1="375.22" x2="313.47" y2="371.74"/><line x1="49.69" y1="455.78" x2="85.03" y2="448.60"/><line x1="41.26" y1="446.21" x2="48.02" y2="442.11"/><line x1="132.96" y1="403.92" x2="136.39" y2="388.29"/><line x1="95.84" y1="298.50" x2="108.99" y2="278.19"/><line x1="447.82" y1="43.01" x2="445.88" y2="42.05"/><line x1="129.17" y1="299.74" x2="108.99" y2="278.19"/><line x1="211.95" y1="159.81" x2="231.53" y2="142.30"/><line x1="316.37" y1="105.91" x2="321.85" y2="75.58"/><line x1="84.51" y1="475.61" x2="90.18" y2="476.44"/><line x1="211.27" y1="350.40" x2="213.10" y2="362.86"/><line x1="480.00" y1="111.44" x2="478.67" y2="124.87"/><line x1="50.34" y1="407.88" x2="85.83" y2="403.92"/><line x1="83.90" y1="418.71" x2="131.01" y2="418.71"/><line x1="375.40" y1="69.49" x2="390.89" y2="87.83"/><line x1="268.70" y1="185.05" x2="258.40" y2="150.98"/><line x1="208.93" y1="128.57" x2="251.54" y2="125.61"/><line x1="251.13" y1="203.11" x2="234.23" y2="221.78"/><line x1="141.69" y1="280.41" x2="123.73" y2="257.47"/><line x1="90.03" y1="465.62" x2="90.59" y2="466.93"/><line x1="131.24" y1="442.39" x2="134.22" y2="457.42"/><line x1="478.67" y1="124.87" x2="445.45" y2="149.45"/><line x1="84.13" y1="442.39" x2="83.81" y2="439.19"/><line x1="414.03" y1="74.15" x2="394.88" y2="59.56"/><line x1="460.16" y1="186.27" x2="435.52" y2="147.23"/><line x1="438.96" y1="39.31" x2="435.67" y2="38.27"/><line x1="365.53" y1="50.91" x2="356.85" y2="55.43"/><line x1="87.99" y1="460.22" x2="132.16" y2="448.60"/><line x1="305.74" y1="375.13" x2="298.25" y2="378.26"/><line x1="155.80" y1="336.98" x2="165.28" y2="318.63"/><line x1="321.19" y1="367.90" x2="332.16" y2="357.90"/><line x1="140.24" y1="472.03" x2="140.78" y2="472.98"/><line x1="213.10" y1="362.86" x2="217.94" y2="373.13"/><line x1="435.67" y1="38.27" x2="432.28" y2="37.31"/><line x1="447.77" y1="211.57" x2="442.98" y2="220.26"/><line x1="266.28" y1="411.48" x2="263.08" y2="387.63"/><line x1="348.12" y1="60.15" x2="356.85" y2="55.43"/><line x1="136.48" y1="464.01" x2="157.61" y2="468.32"/><line x1="41.26" y1="446.21" x2="48.77" y2="450.06"/><line x1="332.16" y1="357.90" x2="342.97" y2="347.59"/><line x1="457.10" y1="155.93" x2="471.97" y2="154.12"/><line x1="41.26" y1="446.21" x2="47.85" y2="438.00"/><line x1="84.51" y1="475.61" x2="89.48" y2="464.30"/><line x1="440.70" y1="148.12" x2="480.00" y2="111.44"/><line x1="93.09" y1="471.97" x2="93.78" y2="473.19"/><line x1="50.34" y1="407.88" x2="53.96" y2="391.47"/><line x1="471.97" y1="154.12" x2="460.12" y2="158.86"/><line x1="480.00" y1="111.44" x2="479.97" y2="98.90"/><line x1="268.70" y1="185.05" x2="251.13" y2="203.11"/><line x1="156.68" y1="216.63" x2="174.42" y2="197.04"/><line x1="269.73" y1="386.64" x2="263.08" y2="387.63"/><line x1="141.69" y1="280.41" x2="129.17" y2="299.74"/><line x1="429.37" y1="65.88" x2="414.10" y2="50.84"/><line x1="192.77" y1="454.58" x2="141.35" y2="371.88"/><line x1="229.26" y1="435.44" x2="225.80" y2="380.94"/><line x1="449.76" y1="151.20" x2="453.65" y2="153.37"/><line x1="87.99" y1="460.22" x2="88.96" y2="462.96"/><line x1="456.37" y1="194.57" x2="452.24" y2="203.01"/><line x1="452.24" y1="203.01" x2="447.77" y2="211.57"/><line x1="84.29" y1="318.32" x2="95.84" y2="298.50"/><line x1="155.80" y1="336.98" x2="108.68" y2="336.98"/><line x1="398.62" y1="83.11" x2="413.70" y2="147.80"/><line x1="284.73" y1="397.86" x2="276.60" y2="385.20"/><line x1="476.00" y1="139.11" x2="457.10" y2="155.93"/><line x1="463.63" y1="178.12" x2="462.81" y2="162.31"/><line x1="110.59" y1="477.56" x2="114.21" y2="477.37"/><line x1="475.87" y1="76.70" x2="471.80" y2="67.15"/><line x1="95.84" y1="298.50" x2="74.19" y2="282.71"/><line x1="221.59" y1="185.05" x2="204.01" y2="203.11"/><line x1="211.95" y1="159.81" x2="208.93" y2="128.57"/><line x1="85.64" y1="451.60" x2="131.65" y2="445.52"/><line x1="84.51" y1="475.61" x2="91.18" y2="468.21"/><line x1="48.02" y1="442.11" x2="47.92" y2="440.07"/><line x1="402.94" y1="280.22" x2="299.12" y2="208.98"/><line x1="53.27" y1="460.96" x2="50.06" y2="457.64"/><line x1="216.68" y1="319.91" x2="290.92" y2="381.03"/><line x1="176.28" y1="299.74" x2="155.73" y2="260.67"/><line x1="456.37" y1="194.57" x2="429.90" y2="146.78"/><line x1="141.69" y1="280.41" x2="108.99" y2="278.19"/><line x1="437.86" y1="229.06" x2="432.41" y2="237.97"/><line x1="84.13" y1="442.39" x2="48.15" y2="444.13"/><line x1="275.37" y1="81.04" x2="292.40" y2="94.96"/><line x1="32.22" y1="416.23" x2="32.00" y2="398.04"/><line x1="213.10" y1="362.86" x2="141.35" y2="371.88"/><line x1="399.80" y1="35.15" x2="371.24" y2="39.42"/><line x1="84.29" y1="318.32" x2="108.68" y2="336.98"/><line x1="266.28" y1="411.48" x2="269.73" y2="386.64"/><line x1="155.73" y1="260.67" x2="139.75" y2="236.80"/><line x1="41.26" y1="446.21" x2="49.04" y2="451.99"/><line x1="308.43" y1="62.79" x2="330.62" y2="70.23"/><line x1="374.14" y1="314.97" x2="263.32" y2="244.52"/><line x1="130.58" y1="432.61" x2="131.01" y2="418.71"/><line x1="221.59" y1="185.05" x2="192.88" y2="178.07"/><line x1="452.14" y1="54.82" x2="454.96" y2="47.50"/><line x1="85.64" y1="451.60" x2="131.24" y2="442.39"/><line x1="136.87" y1="473.90" x2="138.73" y2="469.11"/><line x1="443.88" y1="41.13" x2="441.83" y2="40.28"/><line x1="50.34" y1="407.88" x2="32.00" y2="398.04"/><line x1="432.41" y1="237.97" x2="426.62" y2="246.98"/><line x1="336.05" y1="92.72" x2="345.91" y2="86.52"/><line x1="176.28" y1="299.74" x2="188.80" y2="280.41"/><line x1="251.13" y1="203.11" x2="221.59" y2="185.05"/><line x1="365.60" y1="74.89" x2="348.12" y2="60.15"/><line x1="394.88" y1="59.56" x2="398.62" y2="83.11"/><line x1="192.77" y1="454.58" x2="132.96" y2="403.92"/><line x1="436.99" y1="62.01" x2="432.97" y2="43.38"/><line x1="478.60" y1="87.29" x2="475.87" y2="76.70"/><line x1="413.70" y1="147.80" x2="383.17" y2="92.72"/><line x1="132.16" y1="448.60" x2="88.96" y2="462.96"/><line x1="330.62" y1="70.23" x2="339.38" y2="65.08"/><line x1="85.83" y1="403.92" x2="89.28" y2="388.29"/><line x1="452.24" y1="203.01" x2="396.05" y2="151.85"/><line x1="155.80" y1="336.98" x2="118.16" y2="318.63"/><line x1="398.62" y1="83.11" x2="390.89" y2="87.83"/><line x1="284.73" y1="397.86" x2="283.65" y2="383.31"/><line x1="91.18" y1="468.21" x2="91.80" y2="469.49"/><line x1="444.59" y1="58.33" x2="443.88" y2="41.13"/><line x1="130.58" y1="432.61" x2="130.71" y2="435.93"/><line x1="476.00" y1="139.11" x2="453.65" y2="153.37"/><line x1="463.63" y1="178.12" x2="466.77" y2="170.10"/><line x1="423.58" y1="46.95" x2="425.97" y2="35.82"/><line x1="377.31" y1="158.68" x2="357.88" y2="168.05"/><line x1="421.71" y1="69.93" x2="414.03" y2="74.15"/><line x1="85.64" y1="451.60" x2="56.81" y2="463.99"/><line x1="204.01" y1="203.11" x2="192.88" y2="178.07"/><line x1="136.87" y1="473.90" x2="140.78" y2="472.98"/><line x1="456.59" y1="48.78" x2="454.96" y2="47.50"/><line x1="49.34" y1="453.90" x2="49.04" y2="451.99"/><line x1="134.22" y1="457.42" x2="130.71" y2="435.93"/><line x1="132.75" y1="451.60" x2="133.44" y2="454.55"/><line x1="216.68" y1="319.91" x2="283.68" y2="383.33"/><line x1="136.07" y1="462.96" x2="136.48" y2="464.01"/><line x1="65.95" y1="356.26" x2="74.32" y2="337.60"/><line x1="454.96" y1="47.50" x2="453.27" y2="46.29"/><line x1="192.77" y1="454.58" x2="136.39" y2="388.29"/><line x1="437.86" y1="229.06" x2="357.88" y2="168.05"/><line x1="65.95" y1="356.26" x2="100.70" y2="354.76"/><line x1="303.01" y1="383.25" x2="284.73" y2="397.86"/><line x1="247.76" y1="424.03" x2="229.26" y2="435.44"/><line x1="283.68" y1="383.33" x2="290.92" y2="381.03"/><line x1="342.97" y1="347.59" x2="247.56" y2="264.05"/><line x1="432.97" y1="43.38" x2="423.58" y2="46.95"/><line x1="449.78" y1="151.23" x2="445.45" y2="149.46"/><line x1="170.99" y1="240.99" x2="187.11" y2="221.78"/><line x1="32.22" y1="416.23" x2="50.34" y2="407.88"/><line x1="429.90" y1="146.78" x2="429.37" y2="65.88"/><line x1="338.12" y1="179.72" x2="324.57" y2="135.10"/><line x1="398.62" y1="83.11" x2="385.17" y2="64.39"/><line x1="192.88" y1="178.07" x2="176.72" y2="157.02"/><line x1="429.90" y1="146.78" x2="406.33" y2="78.55"/><line x1="399.80" y1="35.15" x2="391.32" y2="38.74"/><line x1="223.93" y1="302.38" x2="234.22" y2="283.68"/><line x1="88.96" y1="462.96" x2="84.51" y2="475.61"/><line x1="157.61" y1="468.32" x2="139.72" y2="471.07"/><line x1="445.45" y1="149.46" x2="440.70" y2="148.12"/><line x1="396.05" y1="151.85" x2="377.31" y2="158.68"/><line x1="463.63" y1="178.12" x2="460.16" y2="186.27"/><line x1="445.88" y1="42.05" x2="443.88" y2="41.13"/><line x1="423.58" y1="46.95" x2="414.10" y2="50.84"/><line x1="130.58" y1="432.61" x2="83.46" y2="432.61"/><line x1="130.58" y1="432.61" x2="83.90" y2="418.71"/><line x1="86.33" y1="454.55" x2="87.11" y2="457.42"/><line x1="343.92" y1="120.05" x2="316.37" y2="105.91"/><line x1="85.64" y1="451.60" x2="49.69" y2="455.78"/><line x1="165.28" y1="318.63" x2="176.28" y2="299.74"/><line x1="134.22" y1="457.42" x2="110.59" y2="477.56"/><line x1="452.14" y1="54.82" x2="456.59" y2="48.78"/><line x1="136.87" y1="473.90" x2="138.25" y2="468.11"/><line x1="53.96" y1="391.47" x2="59.16" y2="374.24"/><line x1="59.16" y1="374.24" x2="65.95" y2="356.26"/><line x1="443.88" y1="41.13" x2="436.99" y2="62.01"/><line x1="406.33" y1="78.55" x2="413.70" y2="147.80"/><line x1="251.54" y1="125.61" x2="271.85" y2="109.81"/><line x1="212.46" y1="336.00" x2="216.68" y2="319.91"/><line x1="298.25" y1="378.26" x2="290.88" y2="380.99"/><line x1="139.75" y1="236.80" x2="156.68" y2="216.63"/><line x1="336.05" y1="92.72" x2="330.62" y2="70.23"/><line x1="210.90" y1="445.65" x2="217.94" y2="373.13"/><line x1="212.46" y1="336.00" x2="155.80" y2="336.98"/><line x1="318.41" y1="193.43" x2="402.94" y2="280.22"/><line x1="83.46" y1="432.61" x2="48.31" y2="423.42"/><line x1="34.66" y1="377.98" x2="40.20" y2="356.23"/><line x1="365.60" y1="74.89" x2="355.76" y2="80.57"/><line x1="394.88" y1="59.56" x2="382.78" y2="42.57"/><line x1="299.12" y1="208.98" x2="286.86" y2="167.66"/><line x1="413.70" y1="147.80" x2="452.24" y2="203.01"/><line x1="84.54" y1="445.52" x2="48.53" y2="448.11"/><line x1="133.44" y1="454.55" x2="91.18" y2="468.21"/><line x1="449.76" y1="151.20" x2="476.00" y2="139.11"/><line x1="271.85" y1="109.81" x2="275.37" y2="81.04"/><line x1="223.93" y1="302.38" x2="313.47" y2="371.74"/><line x1="284.73" y1="397.86" x2="290.88" y2="380.99"/><line x1="157.61" y1="468.32" x2="137.78" y2="467.10"/><line x1="444.59" y1="58.33" x2="445.88" y2="42.05"/><line x1="157.61" y1="468.32" x2="174.96" y2="462.16"/><line x1="130.58" y1="432.61" x2="174.96" y2="462.16"/><line x1="374.18" y1="46.63" x2="375.40" y2="69.49"/><line x1="423.58" y1="46.95" x2="429.18" y2="36.50"/><line x1="377.31" y1="158.68" x2="363.48" y2="105.91"/><line x1="85.03" y1="448.60" x2="84.54" y2="445.52"/><line x1="313.07" y1="81.13" x2="321.85" y2="75.58"/><line x1="236.65" y1="386.04" x2="213.10" y2="362.86"/><line x1="85.64" y1="451.60" x2="53.27" y2="460.96"/><line x1="83.81" y1="439.19" x2="47.85" y2="438.00"/><line x1="343.92" y1="120.05" x2="345.91" y2="86.52"/><line x1="280.63" y1="226.09" x2="374.14" y2="314.97"/><line x1="134.22" y1="457.42" x2="94.49" y2="474.38"/><line x1="134.22" y1="457.42" x2="125.35" y2="476.06"/><line x1="136.87" y1="473.90" x2="140.24" y2="472.03"/><line x1="94.24" y1="371.88" x2="65.95" y2="356.26"/><line x1="340.58" y1="48.78" x2="339.38" y2="65.08"/><line x1="117.33" y1="221.19" x2="145.99" y2="188.03"/><line x1="132.75" y1="451.60" x2="90.59" y2="466.93"/><line x1="256.67" y1="388.15" x2="250.51" y2="388.17"/><line x1="94.49" y1="474.38" x2="95.22" y2="475.56"/><line x1="74.32" y1="337.60" x2="100.70" y2="354.76"/><line x1="363.48" y1="105.91" x2="355.76" y2="80.57"/><line x1="303.01" y1="383.25" x2="298.25" y2="378.26"/><line x1="390.89" y1="87.83" x2="413.70" y2="147.80"/><line x1="132.16" y1="448.60" x2="132.75" y2="451.60"/><line x1="41.26" y1="446.21" x2="49.34" y2="453.90"/><line x1="432.97" y1="43.38" x2="432.28" y2="37.31"/><line x1="133.44" y1="454.55" x2="93.09" y2="471.97"/><line x1="338.12" y1="179.72" x2="411.90" y2="268.23"/><line x1="429.90" y1="146.78" x2="414.03" y2="74.15"/><line x1="223.93" y1="302.38" x2="188.80" y2="280.41"/><line x1="157.61" y1="468.32" x2="139.22" y2="470.09"/><line x1="89.28" y1="388.29" x2="136.39" y2="388.29"/><line x1="466.40" y1="58.74" x2="459.65" y2="51.52"/><line x1="377.31" y1="158.68" x2="343.92" y2="120.05"/><line x1="225.80" y1="380.94" x2="213.10" y2="362.86"/><line x1="263.08" y1="387.63" x2="211.27" y2="350.40"/><line x1="85.64" y1="451.60" x2="64.81" y2="469.11"/><line x1="59.16" y1="374.24" x2="94.24" y2="371.88"/><line x1="134.22" y1="457.42" x2="107.01" y2="477.61"/><line x1="280.63" y1="226.09" x2="251.13" y2="203.11"/><line x1="445.45" y1="149.45" x2="449.76" y2="151.20"/><line x1="83.59" y1="435.93" x2="47.85" y2="438.00"/><line x1="53.96" y1="391.47" x2="89.28" y2="388.29"/><line x1="251.54" y1="125.61" x2="277.44" y2="135.10"/><line x1="298.25" y1="378.26" x2="284.73" y2="397.86"/><line x1="188.80" y1="280.41" x2="202.84" y2="260.67"/><line x1="324.57" y1="135.10" x2="296.80" y2="120.05"/><line x1="357.88" y1="168.05" x2="338.12" y2="179.72"/><line x1="91.32" y1="256.07" x2="74.19" y2="282.71"/><line x1="299.12" y1="208.98" x2="384.03" y2="303.61"/><line x1="131.24" y1="442.39" x2="130.93" y2="439.19"/><line x1="429.90" y1="146.78" x2="466.40" y2="58.74"/><line x1="132.99" y1="474.71" x2="136.90" y2="465.05"/><line x1="84.54" y1="445.52" x2="48.77" y2="450.06"/><line x1="479.97" y1="98.90" x2="429.90" y2="146.78"/><line x1="451.51" y1="45.14" x2="449.70" y2="44.05"/><line x1="239.74" y1="167.66" x2="231.53" y2="142.30"/><line x1="50.06" y1="457.64" x2="41.26" y2="446.21"/><line x1="338.12" y1="179.72" x2="305.51" y2="150.98"/><line x1="223.93" y1="302.38" x2="305.84" y2="375.22"/><line x1="157.61" y1="468.32" x2="137.34" y2="466.08"/><line x1="59.96" y1="308.41" x2="74.19" y2="282.71"/><line x1="32.00" y1="398.04" x2="34.66" y2="377.98"/><line x1="460.12" y1="158.86" x2="462.70" y2="162.17"/><line x1="377.31" y1="158.68" x2="437.86" y2="229.06"/><line x1="313.33" y1="371.60" x2="305.74" y2="375.13"/><line x1="313.07" y1="81.13" x2="316.37" y2="105.91"/><line x1="263.08" y1="387.63" x2="256.67" y2="388.15"/><line x1="134.22" y1="457.42" x2="93.78" y2="473.19"/><line x1="136.39" y1="388.29" x2="141.35" y2="371.88"/><line x1="263.08" y1="387.63" x2="269.74" y2="386.65"/><line x1="134.22" y1="457.42" x2="121.59" y2="476.59"/><line x1="263.32" y1="244.52" x2="251.13" y2="203.11"/><line x1="132.75" y1="451.60" x2="90.03" y2="465.62"/><line x1="79.14" y1="474.46" x2="84.51" y2="475.61"/><line x1="247.56" y1="264.05" x2="353.59" y2="336.98"/><line x1="48.77" y1="450.06" x2="48.53" y2="448.11"/><line x1="299.12" y1="208.98" x2="268.70" y2="185.05"/><line x1="90.18" y1="476.44" x2="93.09" y2="471.97"/><line x1="234.22" y1="283.68" x2="342.97" y2="347.59"/><line x1="414.10" y1="50.84" x2="421.71" y2="69.93"/><line x1="371.24" y1="39.42" x2="374.18" y2="46.63"/><line x1="429.90" y1="146.78" x2="436.99" y2="62.01"/><line x1="74.19" y1="282.71" x2="108.99" y2="278.19"/><line x1="338.12" y1="179.72" x2="420.50" y2="256.08"/><line x1="339.38" y1="65.08" x2="348.12" y2="60.15"/><line x1="258.40" y1="150.98" x2="231.53" y2="142.30"/><line x1="432.28" y1="37.31" x2="423.58" y2="46.95"/><line x1="225.80" y1="380.94" x2="210.90" y2="445.65"/><line x1="130.71" y1="435.93" x2="84.13" y2="442.39"/><line x1="117.88" y1="477.03" x2="121.59" y2="476.59"/><line x1="435.52" y1="147.23" x2="479.97" y2="98.90"/><line x1="130.71" y1="435.93" x2="83.59" y2="435.93"/><line x1="396.05" y1="151.85" x2="442.98" y2="220.26"/><line x1="187.11" y1="221.78" x2="174.42" y2="197.04"/><line x1="313.47" y1="371.74" x2="234.22" y2="283.68"/><line x1="231.53" y1="142.30" x2="251.54" y2="125.61"/><line x1="136.39" y1="388.29" x2="94.24" y2="371.88"/><line x1="134.22" y1="457.42" x2="101.57" y2="477.41"/><line x1="83.59" y1="435.93" x2="83.46" y2="432.61"/><line x1="406.33" y1="78.55" x2="394.88" y2="59.56"/><line x1="93.78" y1="473.19" x2="94.49" y2="474.38"/><line x1="340.58" y1="48.78" x2="308.43" y2="62.79"/><line x1="340.58" y1="48.78" x2="356.85" y2="55.43"/><line x1="202.84" y1="260.67" x2="247.56" y2="264.05"/><line x1="290.92" y1="381.03" x2="298.32" y2="378.32"/><line x1="357.88" y1="168.05" x2="343.92" y2="120.05"/><line x1="141.35" y1="371.88" x2="217.94" y2="373.13"/><line x1="383.17" y1="92.72" x2="363.48" y2="105.91"/><line x1="299.12" y1="208.98" x2="393.65" y2="292.01"/><line x1="49.04" y1="451.99" x2="48.77" y2="450.06"/><line x1="250.51" y1="388.17" x2="211.27" y2="350.40"/><line x1="414.10" y1="50.84" x2="415.70" y2="34.55"/><line x1="90.18" y1="476.44" x2="96.13" y2="477.09"/><line x1="429.90" y1="146.78" x2="471.80" y2="67.15"/><line x1="451.51" y1="45.14" x2="444.59" y2="58.33"/><line x1="49.69" y1="455.78" x2="41.26" y2="446.21"/><line x1="176.72" y1="157.02" x2="208.93" y2="128.57"/><line x1="236.65" y1="386.04" x2="225.80" y2="380.94"/><line x1="202.84" y1="260.67" x2="218.10" y2="240.99"/><line x1="305.51" y1="150.98" x2="296.80" y2="120.05"/><line x1="292.40" y1="94.96" x2="313.07" y2="81.13"/><line x1="435.52" y1="147.23" x2="480.00" y2="111.44"/><line x1="404.52" y1="55.05" x2="414.03" y2="74.15"/><line x1="32.00" y1="398.04" x2="53.96" y2="391.47"/><line x1="411.90" y1="268.23" x2="402.94" y2="280.22"/><line x1="374.18" y1="46.63" x2="365.53" y2="50.91"/><line x1="114.21" y1="477.37" x2="117.88" y2="477.03"/><line x1="471.80" y1="67.15" x2="466.40" y2="58.74"/><line x1="87.11" y1="457.42" x2="87.99" y2="460.22"/><line x1="313.33" y1="371.60" x2="321.00" y2="367.71"/><line x1="465.00" y1="166.03" x2="462.81" y2="162.31"/><line x1="286.86" y1="167.66" x2="277.44" y2="135.10"/><line x1="134.22" y1="457.42" x2="132.75" y2="451.60"/><line x1="165.28" y1="318.63" x2="129.17" y2="299.74"/><line x1="208.93" y1="128.57" x2="231.53" y2="142.30"/><line x1="134.22" y1="457.42" x2="93.09" y2="471.97"/><line x1="441.83" y1="40.28" x2="438.96" y2="39.31"/><line x1="324.57" y1="135.10" x2="305.51" y2="150.98"/><line x1="242.01" y1="103.10" x2="275.37" y2="81.04"/><line x1="263.32" y1="244.52" x2="363.98" y2="326.11"/><line x1="345.91" y1="86.52" x2="355.76" y2="80.57"/><line x1="414.03" y1="74.15" x2="406.33" y2="78.55"/><line x1="460.16" y1="186.27" x2="440.70" y2="148.12"/><line x1="138.73" y1="469.11" x2="139.22" y2="470.09"/><line x1="87.99" y1="460.22" x2="79.14" y2="474.46"/><line x1="74.32" y1="337.60" x2="108.68" y2="336.98"/><line x1="462.81" y1="162.31" x2="460.19" y2="158.96"/><line x1="277.44" y1="135.10" x2="296.80" y2="120.05"/><line x1="90.18" y1="476.44" x2="92.44" y2="470.74"/><line x1="136.48" y1="464.01" x2="132.99" y2="474.71"/><line x1="211.27" y1="350.40" x2="155.80" y2="336.98"/><line x1="247.56" y1="264.05" x2="218.10" y2="240.99"/><line x1="286.86" y1="167.66" x2="268.70" y2="185.05"/><line x1="174.96" y1="462.16" x2="192.77" y2="454.58"/><line x1="375.40" y1="69.49" x2="383.17" y2="92.72"/><line x1="436.99" y1="62.01" x2="429.37" y2="65.88"/><line x1="290.92" y1="381.03" x2="223.93" y2="302.38"/><line x1="74.32" y1="337.60" x2="84.29" y2="318.32"/><line x1="456.37" y1="194.57" x2="413.70" y2="147.80"/><line x1="131.01" y1="418.71" x2="132.96" y2="403.92"/><line x1="90.18" y1="476.44" x2="95.22" y2="475.56"/><line x1="405.73" y1="34.59" x2="399.80" y2="35.15"/><line x1="41.26" y1="446.21" x2="48.15" y2="444.13"/><line x1="69.28" y1="471.21" x2="74.06" y2="473.00"/><line x1="247.56" y1="264.05" x2="263.32" y2="244.52"/><line x1="40.20" y1="356.23" x2="48.63" y2="332.98"/><line x1="48.15" y1="444.13" x2="48.02" y2="442.11"/><line x1="129.17" y1="299.74" x2="95.84" y2="298.50"/><line x1="221.59" y1="185.05" x2="211.95" y2="159.81"/><line x1="411.90" y1="268.23" x2="318.41" y2="193.43"/><line x1="211.27" y1="350.40" x2="147.82" y2="354.76"/><line x1="471.97" y1="154.12" x2="466.57" y2="169.82"/><line x1="108.68" y1="336.98" x2="100.70" y2="354.76"/><line x1="375.40" y1="69.49" x2="365.60" y2="74.89"/><line x1="156.68" y1="216.63" x2="145.99" y2="188.03"/><line x1="242.01" y1="103.10" x2="271.85" y2="109.81"/><line x1="436.99" y1="62.01" x2="423.58" y2="46.95"/><line x1="84.13" y1="442.39" x2="48.32" y2="446.13"/><line x1="460.16" y1="186.27" x2="445.45" y2="149.46"/><line x1="135.10" y1="460.22" x2="136.07" y2="462.96"/><line x1="384.03" y1="303.61" x2="374.14" y2="314.97"/><line x1="64.81" y1="469.11" x2="69.28" y2="471.21"/><line x1="48.63" y1="332.98" x2="59.96" y2="308.41"/><line x1="155.80" y1="336.98" x2="129.17" y2="299.74"/><line x1="453.27" y1="46.29" x2="451.51" y2="45.14"/><line x1="90.18" y1="476.44" x2="91.80" y2="469.49"/><line x1="414.10" y1="50.84" x2="404.52" y2="55.05"/><line x1="35.31" y1="432.34" x2="32.22" y2="416.23"/><line x1="84.29" y1="318.32" x2="118.16" y2="318.63"/><line x1="296.80" y1="120.05" x2="292.40" y2="94.96"/><line x1="385.17" y1="64.39" x2="374.18" y2="46.63"/><line x1="130.71" y1="435.93" x2="130.93" y2="439.19"/><line x1="343.92" y1="120.05" x2="324.57" y2="135.10"/><line x1="440.70" y1="148.12" x2="435.52" y2="147.23"/><line x1="56.81" y1="463.99" x2="60.66" y2="466.71"/><line x1="174.96" y1="462.16" x2="131.01" y2="418.71"/><line x1="83.90" y1="418.71" x2="85.83" y2="403.92"/><line x1="138.25" y1="468.11" x2="138.73" y2="469.11"/><line x1="436.99" y1="62.01" x2="441.83" y2="40.28"/><line x1="478.67" y1="124.87" x2="476.00" y2="139.11"/><line x1="96.13" y1="477.09" x2="101.57" y2="477.41"/><line x1="330.62" y1="70.23" x2="345.91" y2="86.52"/><line x1="125.35" y1="476.06" x2="129.15" y2="475.43"/><line x1="234.23" y1="221.78" x2="221.59" y2="185.05"/><line x1="145.99" y1="188.03" x2="176.72" y2="157.02"/><line x1="85.83" y1="403.92" x2="132.96" y2="403.92"/><line x1="123.73" y1="257.47" x2="108.99" y2="278.19"/><line x1="305.51" y1="150.98" x2="286.86" y2="167.66"/><line x1="91.18" y1="468.21" x2="90.18" y2="476.44"/><line x1="47.85" y1="438.00" x2="48.31" y2="423.42"/><line x1="266.28" y1="411.48" x2="247.76" y2="424.03"/><line x1="41.26" y1="446.21" x2="48.32" y2="446.13"/><line x1="132.96" y1="403.92" x2="89.28" y2="388.29"/><line x1="69.28" y1="471.21" x2="87.11" y2="457.42"/><line x1="385.17" y1="64.39" x2="390.89" y2="87.83"/><line x1="40.20" y1="356.23" x2="65.95" y2="356.26"/><line x1="290.88" y1="380.99" x2="283.65" y2="383.31"/><line x1="442.98" y1="220.26" x2="437.86" y2="229.06"/><line x1="84.51" y1="475.61" x2="90.59" y2="466.93"/><line x1="452.14" y1="54.82" x2="444.59" y2="58.33"/><line x1="131.65" y1="445.52" x2="134.22" y2="457.42"/><line x1="440.70" y1="148.12" x2="445.45" y2="149.45"/><line x1="170.99" y1="240.99" x2="139.75" y2="236.80"/><line x1="429.18" y1="36.50" x2="425.97" y2="35.82"/><line x1="123.73" y1="257.47" x2="117.33" y2="221.19"/><line x1="50.34" y1="407.88" x2="83.90" y2="418.71"/><line x1="471.97" y1="154.12" x2="464.86" y2="165.83"/><line x1="419.23" y1="34.85" x2="415.70" y2="34.55"/><line x1="268.70" y1="185.05" x2="239.74" y2="167.66"/><line x1="53.27" y1="460.96" x2="56.81" y2="463.99"/><line x1="391.32" y1="38.74" x2="382.78" y2="42.57"/><line x1="141.69" y1="280.41" x2="165.28" y2="318.63"/><line x1="65.95" y1="356.26" x2="48.63" y2="332.98"/><line x1="84.13" y1="442.39" x2="48.53" y2="448.11"/><line x1="460.16" y1="186.27" x2="449.78" y2="151.23"/><line x1="247.76" y1="424.03" x2="236.65" y2="386.04"/><line x1="95.22" y1="475.56" x2="96.13" y2="477.09"/><line x1="384.03" y1="303.61" x2="280.63" y2="226.09"/><line x1="464.86" y1="165.83" x2="466.57" y2="169.82"/><line x1="64.81" y1="469.11" x2="86.33" y2="454.55"/><line x1="48.63" y1="332.98" x2="74.32" y2="337.60"/><line x1="123.73" y1="257.47" x2="139.75" y2="236.80"/><line x1="192.88" y1="178.07" x2="145.99" y2="188.03"/><line x1="426.62" y1="246.98" x2="420.50" y2="256.08"/><line x1="48.53" y1="448.11" x2="48.32" y2="446.13"/><line x1="308.43" y1="62.79" x2="321.85" y2="75.58"/><line x1="463.63" y1="178.12" x2="457.15" y2="155.99"/><line x1="423.58" y1="46.95" x2="429.37" y2="65.88"/><line x1="41.26" y1="446.21" x2="47.92" y2="440.07"/><line x1="130.58" y1="432.61" x2="83.59" y2="435.93"/><line x1="86.33" y1="454.55" x2="69.28" y2="471.21"/><line x1="129.17" y1="299.74" x2="118.16" y2="318.63"/><line x1="452.14" y1="54.82" x2="458.15" y2="50.11"/><line x1="131.65" y1="445.52" x2="131.24" y2="442.39"/><line x1="48.32" y1="446.13" x2="48.15" y2="444.13"/><line x1="123.73" y1="257.47" x2="91.32" y2="256.07"/><line x1="94.24" y1="371.88" x2="141.35" y2="371.88"/><line x1="212.46" y1="336.00" x2="276.61" y2="385.21"/><line x1="251.13" y1="203.11" x2="239.74" y2="167.66"/><line x1="34.66" y1="377.98" x2="59.16" y2="374.24"/><line x1="176.28" y1="299.74" x2="165.28" y2="318.63"/><line x1="118.16" y1="318.63" x2="108.68" y2="336.98"/><line x1="457.15" y1="155.99" x2="453.67" y2="153.40"/><line x1="275.37" y1="81.04" x2="308.43" y2="62.79"/><line x1="125.35" y1="476.06" x2="135.10" y2="460.22"/><line x1="155.73" y1="260.67" x2="141.69" y2="280.41"/><line x1="429.90" y1="146.78" x2="413.70" y2="147.80"/><line x1="444.59" y1="58.33" x2="447.82" y2="43.01"/><line x1="88.96" y1="462.96" x2="89.48" y2="464.30"/><line x1="157.61" y1="468.32" x2="130.58" y2="432.61"/><line x1="266.28" y1="411.48" x2="256.67" y2="388.15"/><line x1="47.85" y1="438.00" x2="35.31" y2="432.34"/><line x1="41.26" y1="446.21" x2="48.53" y2="448.11"/><line x1="457.10" y1="155.93" x2="460.12" y2="158.86"/><line x1="204.01" y1="203.11" x2="174.42" y2="197.04"/><line x1="462.70" y1="162.17" x2="464.86" y2="165.83"/><line x1="84.51" y1="475.61" x2="90.03" y2="465.62"/><line x1="452.14" y1="54.82" x2="451.51" y2="45.14"/><line x1="365.53" y1="50.91" x2="375.40" y2="69.49"/><line x1="136.87" y1="473.90" x2="139.72" y2="471.07"/><line x1="134.22" y1="457.42" x2="130.58" y2="432.61"/><line x1="419.23" y1="34.85" x2="414.10" y2="50.84"/><line x1="256.67" y1="388.15" x2="247.76" y2="424.03"/><line x1="324.57" y1="135.10" x2="316.37" y2="105.91"/><line x1="216.68" y1="319.91" x2="176.28" y2="299.74"/><line x1="415.70" y1="34.55" x2="411.24" y2="34.39"/><line x1="303.01" y1="383.25" x2="305.74" y2="375.13"/><line x1="247.76" y1="424.03" x2="250.51" y2="388.17"/><line x1="132.16" y1="448.60" x2="134.22" y2="457.42"/><line x1="192.77" y1="454.58" x2="217.94" y2="373.13"/><line x1="432.97" y1="43.38" x2="435.67" y2="38.27"/><line x1="133.44" y1="454.55" x2="92.44" y2="470.74"/><line x1="229.26" y1="435.44" x2="210.90" y2="445.65"/><line x1="411.24" y1="34.39" x2="405.73" y2="34.59"/><line x1="429.90" y1="146.78" x2="421.71" y2="69.93"/><line x1="218.10" y1="240.99" x2="204.01" y2="203.11"/><line x1="284.73" y1="397.86" x2="266.28" y2="411.48"/><line x1="157.61" y1="468.32" x2="138.73" y2="469.11"/><line x1="155.73" y1="260.67" x2="123.73" y2="257.47"/><line x1="466.40" y1="58.74" x2="452.14" y2="54.82"/><line x1="463.63" y1="178.12" x2="460.19" y2="158.96"/><line x1="423.58" y1="46.95" x2="419.23" y2="34.85"/><line x1="420.50" y1="256.08" x2="411.90" y2="268.23"/><line x1="85.64" y1="451.60" x2="50.06" y2="457.64"/><line x1="121.59" y1="476.59" x2="125.35" y2="476.06"/><line x1="452.14" y1="54.82" x2="459.65" y2="51.52"/><line x1="131.65" y1="445.52" x2="132.16" y2="448.60"/><line x1="251.54" y1="125.61" x2="242.01" y2="103.10"/><line x1="212.46" y1="336.00" x2="269.74" y2="386.65"/><line x1="402.94" y1="280.22" x2="393.65" y2="292.01"/><line x1="256.67" y1="388.15" x2="211.27" y2="350.40"/><line x1="460.19" y1="158.96" x2="457.15" y2="155.99"/><line x1="212.46" y1="336.00" x2="165.28" y2="318.63"/><line x1="83.46" y1="432.61" x2="47.85" y2="438.00"/><line x1="216.68" y1="319.91" x2="223.93" y2="302.38"/><line x1="176.28" y1="299.74" x2="141.69" y2="280.41"/><line x1="394.88" y1="59.56" x2="391.32" y2="38.74"/><line x1="136.07" y1="462.96" x2="157.61" y2="468.32"/><line x1="382.78" y1="42.57" x2="374.18" y2="46.63"/><line x1="100.70" y1="354.76" x2="141.35" y2="371.88"/><line x1="234.22" y1="283.68" x2="202.84" y2="260.67"/><line x1="84.54" y1="445.52" x2="49.04" y2="451.99"/><line x1="457.15" y1="155.99" x2="460.16" y2="186.27"/><line x1="275.37" y1="81.04" x2="313.07" y2="81.13"/><line x1="429.90" y1="146.78" x2="444.59" y2="58.33"/><line x1="170.99" y1="240.99" x2="156.68" y2="216.63"/><line x1="393.65" y1="292.01" x2="384.03" y2="303.61"/><line x1="50.06" y1="457.64" x2="49.69" y2="455.78"/><line x1="223.93" y1="302.38" x2="298.32" y2="378.32"/><line x1="192.88" y1="178.07" x2="211.95" y2="159.81"/><line x1="157.61" y1="468.32" x2="136.90" y2="465.05"/><line x1="59.96" y1="308.41" x2="95.84" y2="298.50"/><line x1="444.59" y1="58.33" x2="449.70" y2="44.05"/><line x1="88.96" y1="462.96" x2="132.75" y2="451.60"/><line x1="157.61" y1="468.32" x2="140.78" y2="472.98"/><line x1="396.05" y1="151.85" x2="363.48" y2="105.91"/><line x1="313.07" y1="81.13" x2="308.43" y2="62.79"/><line x1="298.32" y1="378.32" x2="305.84" y2="375.22"/><line x1="374.14" y1="314.97" x2="363.98" y2="326.11"/><line x1="83.81" y1="439.19" x2="83.59" y2="435.93"/><line x1="86.33" y1="454.55" x2="131.65" y2="445.52"/><line x1="343.92" y1="120.05" x2="336.05" y2="92.72"/><line x1="136.90" y1="465.05" x2="137.34" y2="466.08"/><line x1="263.08" y1="387.63" x2="212.46" y2="336.00"/><line x1="85.64" y1="451.60" x2="86.33" y2="454.55"/><line x1="53.96" y1="391.47" x2="34.66" y2="377.98"/><line x1="134.22" y1="457.42" x2="117.88" y2="477.03"/><line x1="452.14" y1="54.82" x2="453.27" y2="46.29"/><line x1="365.53" y1="50.91" x2="340.58" y2="48.78"/><line x1="85.64" y1="451.60" x2="85.03" y2="448.60"/><line x1="406.33" y1="78.55" x2="398.62" y2="83.11"/><line x1="136.87" y1="473.90" x2="139.22" y2="470.09"/><line x1="74.06" y1="473.00" x2="79.14" y2="474.46"/><line x1="132.75" y1="451.60" x2="89.48" y2="464.30"/><line x1="79.14" y1="474.46" x2="88.96" y2="462.96"/><line x1="139.75" y1="236.80" x2="117.33" y2="221.19"/><line x1="147.82" y1="354.76" x2="141.35" y2="371.88"/><line x1="318.41" y1="193.43" x2="299.12" y2="208.98"/><line x1="216.68" y1="319.91" x2="165.28" y2="318.63"/><line x1="357.88" y1="168.05" x2="324.57" y2="135.10"/><line x1="394.88" y1="59.56" x2="385.17" y2="64.39"/><line x1="365.60" y1="74.89" x2="356.85" y2="55.43"/><line x1="363.48" y1="105.91" x2="345.91" y2="86.52"/><line x1="303.01" y1="383.25" x2="321.00" y2="367.71"/><line x1="413.70" y1="147.80" x2="396.05" y2="151.85"/><line x1="129.15" y1="475.43" x2="132.99" y2="474.71"/><line x1="234.22" y1="283.68" x2="332.16" y2="357.90"/><line x1="89.48" y1="464.30" x2="90.03" y2="465.62"/><line x1="139.22" y1="470.09" x2="139.72" y2="471.07"/><line x1="132.99" y1="474.71" x2="136.87" y2="473.90"/><line x1="432.97" y1="43.38" x2="438.96" y2="39.31"/><line x1="133.44" y1="454.55" x2="91.80" y2="469.49"/><line x1="271.85" y1="109.81" x2="292.40" y2="94.96"/><line x1="339.38" y1="65.08" x2="355.76" y2="80.57"/><line x1="218.10" y1="240.99" x2="187.11" y2="221.78"/><line x1="223.93" y1="302.38" x2="176.28" y2="299.74"/><line x1="139.72" y1="471.07" x2="140.24" y2="472.03"/><line x1="157.61" y1="468.32" x2="138.25" y2="468.11"/><line x1="89.28" y1="388.29" x2="59.16" y2="374.24"/><line x1="155.73" y1="260.67" x2="170.99" y2="240.99"/><line x1="444.59" y1="58.33" x2="436.99" y2="62.01"/><line x1="435.52" y1="147.23" x2="429.90" y2="146.78"/><line x1="396.05" y1="151.85" x2="447.77" y2="211.57"/><line x1="187.11" y1="221.78" x2="156.68" y2="216.63"/><line x1="423.58" y1="46.95" x2="422.65" y2="35.27"/><line x1="276.60" y1="385.20" x2="269.73" y2="386.64"/><line x1="355.76" y1="80.57" x2="348.12" y2="60.15"/><line x1="85.03" y1="448.60" x2="49.04" y2="451.99"/><line x1="91.80" y1="469.49" x2="92.44" y2="470.74"/><line x1="134.22" y1="457.42" x2="133.44" y2="454.55"/><line x1="130.93" y1="439.19" x2="84.13" y2="442.39"/><line x1="85.64" y1="451.60" x2="60.66" y2="466.71"/><line x1="59.16" y1="374.24" x2="40.20" y2="356.23"/><line x1="134.22" y1="457.42" x2="96.13" y2="477.09"/><line x1="280.63" y1="226.09" x2="263.32" y2="244.52"/><line x1="53.96" y1="391.47" x2="85.83" y2="403.92"/><line x1="60.66" y1="466.71" x2="64.81" y2="469.11"/><line x1="340.58" y1="48.78" x2="348.12" y2="60.15"/><line x1="94.24" y1="371.88" x2="100.70" y2="354.76"/><line x1="92.44" y1="470.74" x2="93.09" y2="471.97"/><line x1="117.33" y1="221.19" x2="91.32" y2="256.07"/><line x1="134.22" y1="457.42" x2="130.93" y2="439.19"/><line x1="357.88" y1="168.05" x2="426.62" y2="246.98"/><line x1="83.46" y1="432.61" x2="83.90" y2="418.71"/><line x1="375.40" y1="69.49" x2="356.85" y2="55.43"/><line x1="382.78" y1="42.57" x2="385.17" y2="64.39"/><line x1="429.90" y1="146.78" x2="475.87" y2="76.70"/><line x1="84.54" y1="445.52" x2="84.13" y2="442.39"/><line x1="390.89" y1="87.83" x2="383.17" y2="92.72"/><line x1="342.97" y1="347.59" x2="353.59" y2="336.98"/><line x1="176.72" y1="157.02" x2="211.95" y2="159.81"/><line x1="239.74" y1="167.66" x2="211.95" y2="159.81"/><line x1="236.65" y1="386.04" x2="211.27" y2="350.40"/><line x1="338.12" y1="179.72" x2="318.41" y2="193.43"/><line x1="258.40" y1="150.98" x2="277.44" y2="135.10"/><line x1="435.52" y1="147.23" x2="456.37" y2="194.57"/><line x1="404.52" y1="55.05" x2="421.71" y2="69.93"/><line x1="59.96" y1="308.41" x2="84.29" y2="318.32"/><line x1="157.61" y1="468.32" x2="140.24" y2="472.03"/><line x1="87.11" y1="457.42" x2="131.65" y2="445.52"/><line x1="313.33" y1="371.60" x2="303.01" y2="383.25"/><line x1="465.00" y1="166.03" x2="466.77" y2="170.10"/><line x1="353.59" y1="336.98" x2="363.98" y2="326.11"/><line x1="83.81" y1="439.19" x2="47.92" y2="440.07"/><line x1="225.80" y1="380.94" x2="217.94" y2="373.13"/><line x1="441.83" y1="40.28" x2="432.97" y2="43.38"/><line x1="165.28" y1="318.63" x2="155.80" y2="336.98"/><line x1="134.22" y1="457.42" x2="114.21" y2="477.37"/><line x1="134.22" y1="457.42" x2="157.61" y2="468.32"/><line x1="74.06" y1="473.00" x2="87.99" y2="460.22"/><line x1="345.91" y1="86.52" x2="339.38" y2="65.08"/><line x1="188.80" y1="280.41" x2="234.22" y2="283.68"/><line x1="147.82" y1="354.76" x2="213.10" y2="362.86"/><line x1="318.41" y1="193.43" x2="305.51" y2="150.98"/><line x1="383.17" y1="92.72" x2="396.05" y2="151.85"/><line x1="276.61" y1="385.21" x2="283.68" y2="383.33"/><line x1="299.12" y1="208.98" x2="280.63" y2="226.09"/><line x1="129.15" y1="475.43" x2="136.48" y2="464.01"/><line x1="234.22" y1="283.68" x2="321.19" y2="367.90"/><line x1="234.22" y1="283.68" x2="247.56" y2="264.05"/><line x1="132.99" y1="474.71" x2="137.78" y2="467.10"/><line x1="271.85" y1="109.81" x2="296.80" y2="120.05"/><line x1="283.65" y1="383.31" x2="276.60" y2="385.20"/></g></svg>