<svg xmlns="http://www.w3.org/2000/svg" width="512" height="512"><rect width="512" height="512" fill="#0a0f1a"/><text x="12" y="20" font-family="monospace" font-size="11" fill="#4a7fa5">FRONT (XZ)</text><g stroke="#00d4ff" stroke-width="0.6" opacity="0.85"><line x1="251.72" y1="128.58" x2="249.94" y2="129.39"/><line x1="266.14" y1="317.36" x2="322.67" y2="312.59"/><line x1="261.30" y1="128.58" x2="259.08" y2="128.11"/><line x1="285.05" y1="356.07" x2="298.60" y2="351.24"/><line x1="263.12" y1="321.71" x2="264.52" y2="320.58"/><line x1="219.50" y1="353.70" x2="249.94" y2="321.71"/><line x1="238.68" y1="92.98" x2="249.94" y2="129.39"/><line x1="298.60" y1="351.24" x2="309.13" y2="344.47"/><line x1="230.82" y1="390.84" x2="237.34" y2="387.41"/><line x1="256.10" y1="91.95" x2="256.46" y2="127.94"/><line x1="190.44" y1="142.80" x2="190.44" y2="312.22"/><line x1="216.26" y1="360.97" x2="242.40" y2="382.60"/><line x1="251.72" y1="322.52" x2="249.94" y2="321.71"/><line x1="195.80" y1="117.89" x2="191.78" y2="129.31"/><line x1="208.40" y1="362.56" x2="211.28" y2="362.27"/><line x1="249.94" y1="129.39" x2="223.94" y2="96.10"/><line x1="265.53" y1="131.98" x2="264.52" y2="130.52"/><line x1="222.84" y1="392.90" x2="215.09" y2="361.51"/><line x1="213.43" y1="393.59" x2="208.40" y2="362.56"/><line x1="480.00" y1="479.91" x2="447.51" y2="479.91"/><line x1="261.30" y1="322.52" x2="285.05" y2="356.07"/><line x1="223.94" y1="96.10" x2="248.56" y2="130.52"/><line x1="195.90" y1="363.04" x2="200.71" y2="362.94"/><line x1="265.53" y1="319.13" x2="309.13" y2="344.47"/><line x1="219.50" y1="353.70" x2="211.79" y2="349.44"/><line x1="246.98" y1="317.36" x2="211.79" y2="349.44"/><line x1="213.43" y1="393.59" x2="222.84" y2="392.90"/><line x1="248.92" y1="359.94" x2="219.14" y2="356.89"/><line x1="309.13" y1="344.47" x2="316.66" y2="335.78"/><line x1="246.98" y1="133.75" x2="191.78" y2="129.31"/><line x1="248.56" y1="130.52" x2="211.88" y2="101.29"/><line x1="190.44" y1="312.22" x2="191.04" y2="319.80"/><line x1="217.25" y1="360.23" x2="248.20" y2="368.86"/><line x1="200.71" y1="362.94" x2="204.88" y2="362.78"/><line x1="265.53" y1="319.13" x2="266.14" y2="317.36"/><line x1="273.76" y1="93.00" x2="256.10" y2="91.95"/><line x1="253.89" y1="128.11" x2="251.72" y2="128.58"/><line x1="191.78" y1="129.31" x2="246.78" y2="135.84"/><line x1="219.50" y1="353.70" x2="248.56" y2="320.58"/><line x1="266.14" y1="133.75" x2="265.53" y2="131.98"/><line x1="213.43" y1="393.59" x2="190.44" y2="363.07"/><line x1="300.93" y1="101.36" x2="288.71" y2="96.13"/><line x1="215.09" y1="361.51" x2="230.82" y2="390.84"/><line x1="247.57" y1="131.98" x2="202.50" y2="108.56"/><line x1="32.16" y1="32.09" x2="32.16" y2="64.58"/><line x1="248.92" y1="359.94" x2="219.50" y2="353.70"/><line x1="263.12" y1="129.39" x2="261.30" y2="128.58"/><line x1="316.66" y1="335.78" x2="266.14" y2="317.36"/><line x1="211.79" y1="349.44" x2="248.56" y2="320.58"/><line x1="190.44" y1="363.07" x2="190.44" y2="393.59"/><line x1="264.52" y1="320.58" x2="298.60" y2="351.24"/><line x1="322.67" y1="143.16" x2="321.32" y2="129.58"/><line x1="266.34" y1="135.84" x2="310.45" y2="108.67"/><line x1="266.14" y1="317.36" x2="321.17" y2="325.15"/><line x1="246.78" y1="135.84" x2="190.44" y2="142.80"/><line x1="321.17" y1="325.15" x2="322.67" y2="312.59"/><line x1="213.43" y1="393.59" x2="195.90" y2="363.04"/><line x1="248.20" y1="368.86" x2="248.92" y2="359.94"/><line x1="298.60" y1="351.24" x2="265.53" y2="319.13"/><line x1="247.57" y1="131.98" x2="246.98" y2="133.75"/><line x1="253.89" y1="323.00" x2="251.72" y2="322.52"/><line x1="230.82" y1="390.84" x2="216.26" y2="360.97"/><line x1="202.50" y1="108.56" x2="195.80" y2="117.89"/><line x1="248.92" y1="359.94" x2="268.49" y2="358.97"/><line x1="246.78" y1="315.26" x2="191.04" y2="319.80"/><line x1="256.10" y1="91.95" x2="259.08" y2="128.11"/><line x1="190.44" y1="142.80" x2="246.78" y2="315.26"/><line x1="211.28" y1="362.27" x2="222.84" y2="392.90"/><line x1="288.71" y1="96.13" x2="273.76" y2="93.00"/><line x1="216.26" y1="360.97" x2="237.34" y2="387.41"/><line x1="195.80" y1="117.89" x2="246.98" y2="133.75"/><line x1="321.32" y1="129.58" x2="317.24" y2="118.08"/><line x1="480.00" y1="32.02" x2="447.51" y2="32.02"/><line x1="222.84" y1="392.90" x2="213.51" y2="361.92"/><line x1="310.45" y1="108.67" x2="300.93" y2="101.36"/><line x1="213.43" y1="393.59" x2="204.88" y2="362.78"/><line x1="322.67" y1="312.59" x2="266.34" y2="315.26"/><line x1="246.78" y1="315.26" x2="195.78" y2="333.32"/><line x1="317.24" y1="118.08" x2="310.45" y2="108.67"/><line x1="199.93" y1="339.24" x2="246.98" y2="317.36"/><line x1="256.10" y1="91.95" x2="238.68" y2="92.98"/><line x1="256.46" y1="323.17" x2="259.08" y2="323.00"/><line x1="266.34" y1="315.26" x2="266.34" y2="135.84"/><line x1="218.06" y1="359.31" x2="248.92" y2="359.94"/><line x1="264.52" y1="130.52" x2="263.12" y2="129.39"/><line x1="237.34" y1="387.41" x2="242.40" y2="382.60"/><line x1="249.94" y1="129.39" x2="248.56" y2="130.52"/><line x1="246.98" y1="317.36" x2="205.27" y2="344.62"/><line x1="242.40" y1="382.60" x2="217.25" y2="360.23"/><line x1="222.84" y1="392.90" x2="230.82" y2="390.84"/><line x1="213.51" y1="361.92" x2="215.09" y2="361.51"/><line x1="213.43" y1="393.59" x2="211.28" y2="362.27"/><line x1="219.50" y1="353.70" x2="253.89" y2="323.00"/><line x1="248.92" y1="359.94" x2="218.69" y2="358.19"/><line x1="322.67" y1="312.59" x2="322.67" y2="143.16"/><line x1="256.46" y1="127.94" x2="253.89" y2="128.11"/><line x1="191.04" y1="319.80" x2="192.81" y2="326.84"/><line x1="261.30" y1="322.52" x2="263.12" y2="321.71"/><line x1="246.78" y1="315.26" x2="246.98" y2="317.36"/><line x1="204.88" y1="362.78" x2="208.40" y2="362.56"/><line x1="217.25" y1="360.23" x2="246.03" y2="376.42"/><line x1="266.34" y1="135.84" x2="322.67" y2="143.16"/><line x1="265.53" y1="319.13" x2="316.66" y2="335.78"/><line x1="273.76" y1="93.00" x2="263.12" y2="129.39"/><line x1="32.00" y1="479.98" x2="64.49" y2="479.98"/><line x1="285.05" y1="356.07" x2="264.52" y2="320.58"/><line x1="300.93" y1="101.36" x2="265.53" y2="131.98"/><line x1="219.50" y1="353.70" x2="251.72" y2="322.52"/><line x1="259.08" y1="323.00" x2="261.30" y2="322.52"/><line x1="238.68" y1="92.98" x2="251.72" y2="128.58"/><line x1="192.81" y1="326.84" x2="195.78" y2="333.32"/><line x1="246.98" y1="133.75" x2="246.78" y2="135.84"/><line x1="248.56" y1="130.52" x2="247.57" y2="131.98"/><line x1="64.64" y1="32.09" x2="32.16" y2="64.58"/><line x1="217.25" y1="360.23" x2="218.06" y2="359.31"/><line x1="246.03" y1="376.42" x2="248.20" y2="368.86"/><line x1="211.88" y1="101.29" x2="202.50" y2="108.56"/><line x1="247.57" y1="319.13" x2="248.56" y2="320.58"/><line x1="266.34" y1="135.84" x2="317.24" y2="118.08"/><line x1="195.78" y1="333.32" x2="199.93" y2="339.24"/><line x1="266.14" y1="317.36" x2="266.34" y2="315.26"/><line x1="213.43" y1="393.59" x2="190.44" y2="393.59"/><line x1="248.20" y1="368.86" x2="218.06" y2="359.31"/><line x1="246.78" y1="315.26" x2="190.44" y2="312.22"/><line x1="247.57" y1="131.98" x2="195.80" y2="117.89"/><line x1="265.53" y1="131.98" x2="288.71" y2="96.13"/><line x1="238.68" y1="92.98" x2="223.94" y2="96.10"/><line x1="264.52" y1="320.58" x2="265.53" y2="319.13"/><line x1="288.71" y1="96.13" x2="264.52" y2="130.52"/><line x1="268.49" y1="358.97" x2="285.05" y2="356.07"/><line x1="266.34" y1="135.84" x2="266.14" y2="133.75"/><line x1="249.94" y1="321.71" x2="248.56" y2="320.58"/><line x1="246.78" y1="135.84" x2="246.78" y2="315.26"/><line x1="216.26" y1="360.97" x2="217.25" y2="360.23"/><line x1="480.00" y1="32.02" x2="480.00" y2="64.50"/><line x1="310.45" y1="108.67" x2="266.14" y2="133.75"/><line x1="219.50" y1="353.70" x2="256.46" y2="323.17"/><line x1="213.43" y1="393.59" x2="200.71" y2="362.94"/><line x1="246.78" y1="315.26" x2="192.81" y2="326.84"/><line x1="480.00" y1="479.91" x2="480.00" y2="447.42"/><line x1="211.28" y1="362.27" x2="213.51" y2="361.92"/><line x1="256.46" y1="323.17" x2="268.49" y2="358.97"/><line x1="223.94" y1="96.10" x2="211.88" y2="101.29"/><line x1="205.27" y1="344.62" x2="211.79" y2="349.44"/><line x1="259.08" y1="128.11" x2="256.46" y2="127.94"/><line x1="264.52" y1="130.52" x2="273.76" y2="93.00"/><line x1="218.69" y1="358.19" x2="219.14" y2="356.89"/><line x1="480.00" y1="64.50" x2="447.51" y2="32.02"/><line x1="266.14" y1="133.75" x2="300.93" y2="101.36"/><line x1="322.67" y1="312.59" x2="266.34" y2="135.84"/><line x1="256.46" y1="127.94" x2="238.68" y2="92.98"/><line x1="246.78" y1="315.26" x2="199.93" y2="339.24"/><line x1="246.98" y1="317.36" x2="247.57" y2="319.13"/><line x1="199.93" y1="339.24" x2="205.27" y2="344.62"/><line x1="32.16" y1="32.09" x2="64.64" y2="32.09"/><line x1="248.92" y1="359.94" x2="219.41" y2="355.39"/><line x1="447.51" y1="479.91" x2="480.00" y2="447.42"/><line x1="263.12" y1="129.39" x2="256.10" y2="91.95"/><line x1="256.46" y1="323.17" x2="253.89" y2="323.00"/><line x1="268.49" y1="358.97" x2="259.08" y2="323.00"/><line x1="211.79" y1="349.44" x2="247.57" y2="319.13"/><line x1="218.06" y1="359.31" x2="218.69" y2="358.19"/><line x1="32.00" y1="479.98" x2="32.00" y2="447.50"/><line x1="219.14" y1="356.89" x2="219.41" y2="355.39"/><line x1="242.40" y1="382.60" x2="246.03" y2="376.42"/><line x1="285.05" y1="356.07" x2="263.12" y2="321.71"/><line x1="191.78" y1="129.31" x2="190.44" y2="142.80"/><line x1="238.68" y1="92.98" x2="253.89" y2="128.11"/><line x1="215.09" y1="361.51" x2="216.26" y2="360.97"/><line x1="248.92" y1="359.94" x2="256.46" y2="323.17"/><line x1="219.41" y1="355.39" x2="219.50" y2="353.70"/><line x1="316.66" y1="335.78" x2="321.17" y2="325.15"/><line x1="256.10" y1="91.95" x2="261.30" y2="128.58"/><line x1="211.88" y1="101.29" x2="247.57" y2="131.98"/><line x1="268.49" y1="358.97" x2="261.30" y2="322.52"/><line x1="266.34" y1="135.84" x2="321.32" y2="129.58"/><line x1="190.44" y1="363.07" x2="195.90" y2="363.04"/><line x1="32.00" y1="447.50" x2="64.49" y2="479.98"/></g></svg>