<svg xmlns="http://www.w3.org/2000/svg" width="512" height="512"><rect width="512" height="512" fill="#0a0f1a"/><text x="12" y="20" font-family="monospace" font-size="11" fill="#4a7fa5">FRONT (XZ)</text><g stroke="#00d4ff" stroke-width="0.6" opacity="0.85"><line x1="226.06" y1="355.86" x2="247.57" y2="319.14"/><line x1="246.78" y1="315.27" x2="188.88" y2="94.30"/><line x1="240.39" y1="358.92" x2="249.94" y2="321.72"/><line x1="264.52" y1="320.59" x2="263.12" y2="321.72"/><line x1="298.17" y1="351.71" x2="291.96" y2="354.23"/><line x1="249.94" y1="321.72" x2="233.01" y2="357.65"/><line x1="320.53" y1="331.44" x2="317.66" y2="336.61"/><line x1="266.14" y1="317.36" x2="309.42" y2="345.26"/><line x1="480.00" y1="479.91" x2="447.51" y2="479.91"/><line x1="266.34" y1="315.27" x2="323.83" y2="319.43"/><line x1="213.48" y1="350.77" x2="246.98" y2="317.36"/><line x1="265.53" y1="319.14" x2="285.45" y2="356.28"/><line x1="233.01" y1="357.65" x2="248.56" y2="320.59"/><line x1="256.46" y1="359.94" x2="248.21" y2="359.68"/><line x1="266.14" y1="317.36" x2="298.17" y2="351.71"/><line x1="253.89" y1="323.00" x2="251.72" y2="322.52"/><line x1="271.55" y1="359.03" x2="264.16" y2="359.71"/><line x1="246.98" y1="317.36" x2="207.85" y2="347.45"/><line x1="285.45" y1="356.28" x2="278.65" y2="357.88"/><line x1="266.34" y1="315.27" x2="320.53" y2="331.44"/><line x1="323.83" y1="319.43" x2="322.59" y2="325.72"/><line x1="266.34" y1="94.30" x2="324.24" y2="312.58"/><line x1="309.42" y1="345.26" x2="304.07" y2="348.74"/><line x1="32.16" y1="32.09" x2="32.16" y2="64.58"/><line x1="246.98" y1="317.36" x2="198.56" y2="339.48"/><line x1="207.85" y1="347.45" x2="202.81" y2="343.68"/><line x1="324.24" y1="312.58" x2="324.24" y2="94.30"/><line x1="247.57" y1="319.14" x2="219.56" y2="353.57"/><line x1="190.43" y1="324.38" x2="189.27" y2="318.50"/><line x1="264.16" y1="359.71" x2="256.46" y2="359.94"/><line x1="202.81" y1="343.68" x2="198.56" y2="339.48"/><line x1="198.56" y1="339.48" x2="246.78" y2="315.27"/><line x1="266.34" y1="94.30" x2="266.34" y2="315.27"/><line x1="278.65" y1="357.88" x2="271.55" y2="359.03"/><line x1="219.56" y1="353.57" x2="213.48" y2="350.77"/><line x1="251.72" y1="322.52" x2="249.94" y2="321.72"/><line x1="304.07" y1="348.74" x2="298.17" y2="351.71"/><line x1="317.66" y1="336.61" x2="266.14" y2="317.36"/><line x1="324.24" y1="312.58" x2="323.83" y2="319.43"/><line x1="247.57" y1="319.14" x2="246.98" y2="317.36"/><line x1="298.17" y1="351.71" x2="265.53" y2="319.14"/><line x1="189.27" y1="318.50" x2="188.88" y2="312.21"/><line x1="480.00" y1="32.02" x2="447.51" y2="32.02"/><line x1="266.14" y1="317.36" x2="313.95" y2="341.22"/><line x1="246.78" y1="315.27" x2="195.07" y2="334.87"/><line x1="240.39" y1="358.92" x2="233.01" y2="357.65"/><line x1="188.88" y1="312.21" x2="188.88" y2="94.30"/><line x1="256.46" y1="323.17" x2="253.89" y2="323.00"/><line x1="195.07" y1="334.87" x2="192.36" y2="329.83"/><line x1="263.12" y1="321.72" x2="271.55" y2="359.03"/><line x1="265.53" y1="319.14" x2="291.96" y2="354.23"/><line x1="261.30" y1="322.52" x2="259.08" y2="323.00"/><line x1="291.96" y1="354.23" x2="285.45" y2="356.28"/><line x1="266.14" y1="317.36" x2="304.07" y2="348.74"/><line x1="313.95" y1="341.22" x2="309.42" y2="345.26"/><line x1="246.78" y1="315.27" x2="190.43" y2="324.38"/><line x1="271.55" y1="359.03" x2="261.30" y2="322.52"/><line x1="322.59" y1="325.72" x2="320.53" y2="331.44"/><line x1="285.45" y1="356.28" x2="264.52" y2="320.59"/><line x1="248.21" y1="359.68" x2="251.72" y2="322.52"/><line x1="192.36" y1="329.83" x2="190.43" y2="324.38"/><line x1="213.48" y1="350.77" x2="207.85" y2="347.45"/><line x1="265.53" y1="319.14" x2="264.52" y2="320.59"/><line x1="32.00" y1="479.98" x2="64.49" y2="479.98"/><line x1="266.34" y1="315.27" x2="266.14" y2="317.36"/><line x1="248.56" y1="320.59" x2="247.57" y2="319.14"/><line x1="266.14" y1="317.36" x2="265.53" y2="319.14"/><line x1="246.78" y1="315.27" x2="188.88" y2="312.21"/><line x1="64.64" y1="32.09" x2="32.16" y2="64.58"/><line x1="259.08" y1="323.00" x2="256.46" y2="323.17"/><line x1="264.52" y1="320.59" x2="278.65" y2="357.88"/><line x1="266.34" y1="94.30" x2="324.24" y2="94.30"/><line x1="278.65" y1="357.88" x2="263.12" y2="321.72"/><line x1="226.06" y1="355.86" x2="219.56" y2="353.57"/><line x1="246.78" y1="315.27" x2="246.78" y2="94.30"/><line x1="247.57" y1="319.14" x2="213.48" y2="350.77"/><line x1="249.94" y1="321.72" x2="248.56" y2="320.59"/><line x1="480.00" y1="32.02" x2="480.00" y2="64.50"/><line x1="188.88" y1="94.30" x2="246.78" y2="94.30"/><line x1="198.56" y1="339.48" x2="195.07" y2="334.87"/><line x1="256.46" y1="359.94" x2="256.46" y2="323.17"/><line x1="480.00" y1="479.91" x2="480.00" y2="447.42"/><line x1="317.66" y1="336.61" x2="313.95" y2="341.22"/><line x1="256.46" y1="323.17" x2="248.21" y2="359.68"/><line x1="266.34" y1="315.27" x2="322.59" y2="325.72"/><line x1="261.30" y1="322.52" x2="264.16" y2="359.71"/><line x1="233.01" y1="357.65" x2="226.06" y2="355.86"/><line x1="480.00" y1="64.50" x2="447.51" y2="32.02"/><line x1="246.78" y1="315.27" x2="192.36" y2="329.83"/><line x1="32.16" y1="32.09" x2="64.64" y2="32.09"/><line x1="246.98" y1="317.36" x2="202.81" y2="343.68"/><line x1="447.51" y1="479.91" x2="480.00" y2="447.42"/><line x1="248.21" y1="359.68" x2="253.89" y2="323.00"/><line x1="263.12" y1="321.72" x2="261.30" y2="322.52"/><line x1="32.00" y1="479.98" x2="32.00" y2="447.50"/><line x1="266.34" y1="315.27" x2="317.66" y2="336.61"/><line x1="264.16" y1="359.71" x2="259.08" y2="323.00"/><line x1="248.56" y1="320.59" x2="226.06" y2="355.86"/><line x1="246.78" y1="315.27" x2="189.27" y2="318.50"/><line x1="251.72" y1="322.52" x2="240.39" y2="358.92"/><line x1="259.08" y1="323.00" x2="256.46" y2="359.94"/><line x1="246.98" y1="317.36" x2="246.78" y2="315.27"/><line x1="248.21" y1="359.68" x2="240.39" y2="358.92"/><line x1="324.24" y1="312.58" x2="266.34" y2="315.27"/><line x1="32.00" y1="447.50" x2="64.49" y2="479.98"/></g></svg>