<svg xmlns="http://www.w3.org/2000/svg" width="512" height="512"><rect width="512" height="512" fill="#0a0f1a"/><text x="12" y="20" font-family="monospace" font-size="11" fill="#4a7fa5">FRONT (XZ)</text><g stroke="#00d4ff" stroke-width="0.6" opacity="0.85"><line x1="195.13" y1="199.54" x2="199.77" y2="192.36"/><line x1="266.92" y1="188.23" x2="258.41" y2="217.54"/><line x1="191.42" y1="312.18" x2="191.42" y2="218.71"/><line x1="257.25" y1="359.94" x2="249.05" y2="359.68"/><line x1="247.95" y1="316.82" x2="194.75" y2="329.82"/><line x1="252.89" y1="181.17" x2="257.19" y2="182.41"/><line x1="200.68" y1="339.48" x2="197.35" y2="334.86"/><line x1="266.92" y1="188.23" x2="264.42" y2="134.20"/><line x1="265.15" y1="320.35" x2="263.77" y2="321.58"/><line x1="248.53" y1="318.76" x2="209.57" y2="347.45"/><line x1="253.19" y1="218.29" x2="255.58" y2="217.73"/><line x1="319.35" y1="94.30" x2="189.85" y2="94.30"/><line x1="274.77" y1="358.97" x2="257.25" y2="359.94"/><line x1="209.57" y1="347.45" x2="204.76" y2="343.67"/><line x1="266.92" y1="188.23" x2="263.21" y2="218.88"/><line x1="266.73" y1="316.83" x2="311.14" y2="344.45"/><line x1="258.41" y1="217.54" x2="261.00" y2="217.87"/><line x1="249.71" y1="220.59" x2="251.24" y2="219.25"/><line x1="301.71" y1="351.23" x2="289.58" y2="356.07"/><line x1="480.00" y1="479.91" x2="447.51" y2="479.91"/><line x1="248.53" y1="318.76" x2="247.95" y2="316.82"/><line x1="261.00" y1="217.87" x2="263.21" y2="218.88"/><line x1="247.97" y1="224.42" x2="195.13" y2="199.54"/><line x1="266.92" y1="314.54" x2="321.91" y2="325.09"/><line x1="192.90" y1="324.36" x2="191.79" y2="318.48"/><line x1="263.77" y1="321.58" x2="261.99" y2="322.46"/><line x1="204.76" y1="343.67" x2="247.95" y2="316.82"/><line x1="266.73" y1="316.83" x2="266.14" y2="318.76"/><line x1="250.85" y1="321.58" x2="249.50" y2="320.34"/><line x1="248.62" y1="222.31" x2="224.81" y2="180.38"/><line x1="266.92" y1="188.23" x2="266.47" y2="222.90"/><line x1="220.88" y1="353.56" x2="214.99" y2="350.76"/><line x1="254.73" y1="322.99" x2="252.60" y2="322.46"/><line x1="191.79" y1="318.48" x2="247.76" y2="314.53"/><line x1="268.51" y1="233.96" x2="322.48" y2="232.50"/><line x1="263.21" y1="218.88" x2="265.03" y2="220.55"/><line x1="257.19" y1="182.41" x2="260.96" y2="183.99"/><line x1="266.92" y1="314.54" x2="266.73" y2="316.83"/><line x1="321.91" y1="325.09" x2="317.87" y2="335.74"/><line x1="264.20" y1="185.94" x2="266.92" y2="188.23"/><line x1="322.48" y1="232.50" x2="264.42" y2="134.20"/><line x1="266.92" y1="188.23" x2="268.22" y2="229.61"/><line x1="266.92" y1="246.98" x2="323.26" y2="312.52"/><line x1="224.81" y1="180.38" x2="236.87" y2="179.58"/><line x1="289.58" y1="356.07" x2="265.15" y2="320.35"/><line x1="266.47" y1="222.90" x2="267.53" y2="225.92"/><line x1="32.16" y1="32.09" x2="32.16" y2="64.58"/><line x1="248.08" y1="180.29" x2="252.89" y2="181.17"/><line x1="247.76" y1="314.53" x2="191.42" y2="312.18"/><line x1="323.26" y1="312.52" x2="323.26" y2="246.98"/><line x1="197.35" y1="334.86" x2="194.75" y2="329.82"/><line x1="195.13" y1="199.54" x2="248.62" y2="222.31"/><line x1="252.60" y1="322.46" x2="250.85" y2="321.58"/><line x1="191.42" y1="312.18" x2="247.76" y2="226.90"/><line x1="266.92" y1="188.23" x2="322.48" y2="232.50"/><line x1="264.42" y1="134.20" x2="319.35" y2="94.30"/><line x1="247.76" y1="226.90" x2="191.42" y2="218.71"/><line x1="266.92" y1="246.98" x2="266.92" y2="314.54"/><line x1="257.25" y1="323.17" x2="254.73" y2="322.99"/><line x1="194.75" y1="329.82" x2="192.90" y2="324.36"/><line x1="247.95" y1="316.82" x2="191.79" y2="318.48"/><line x1="214.99" y1="350.76" x2="209.57" y2="347.45"/><line x1="265.15" y1="320.35" x2="274.77" y2="358.97"/><line x1="267.53" y1="225.92" x2="268.22" y2="229.61"/><line x1="253.19" y1="218.29" x2="257.19" y2="182.41"/><line x1="319.35" y1="94.30" x2="198.85" y2="134.20"/><line x1="311.14" y1="344.45" x2="301.71" y2="351.23"/><line x1="323.26" y1="312.52" x2="321.91" y2="325.09"/><line x1="236.87" y1="179.58" x2="242.73" y2="179.76"/><line x1="274.77" y1="358.97" x2="263.77" y2="321.58"/><line x1="268.22" y1="229.61" x2="268.51" y2="233.96"/><line x1="266.92" y1="188.23" x2="261.00" y2="217.87"/><line x1="248.62" y1="222.31" x2="199.77" y2="192.36"/><line x1="480.00" y1="32.02" x2="447.51" y2="32.02"/><line x1="301.71" y1="351.23" x2="266.14" y2="318.76"/><line x1="191.42" y1="218.71" x2="247.97" y2="224.42"/><line x1="248.53" y1="318.76" x2="204.76" y2="343.67"/><line x1="199.77" y1="192.36" x2="206.26" y2="186.77"/><line x1="227.22" y1="355.86" x2="220.88" y2="353.56"/><line x1="247.97" y1="224.42" x2="192.35" y2="208.33"/><line x1="249.05" y1="359.68" x2="254.73" y2="322.99"/><line x1="251.24" y1="219.25" x2="248.08" y2="180.29"/><line x1="263.77" y1="321.58" x2="257.25" y2="359.94"/><line x1="248.62" y1="222.31" x2="214.61" y2="182.78"/><line x1="241.31" y1="358.92" x2="234.03" y2="357.65"/><line x1="257.25" y1="359.94" x2="261.99" y2="322.46"/><line x1="266.14" y1="318.76" x2="289.58" y2="356.07"/><line x1="255.58" y1="217.73" x2="264.20" y2="185.94"/><line x1="254.73" y1="322.99" x2="241.31" y2="358.92"/><line x1="317.87" y1="335.74" x2="266.73" y2="316.83"/><line x1="261.99" y1="322.46" x2="259.81" y2="322.99"/><line x1="247.97" y1="224.42" x2="248.62" y2="222.31"/><line x1="249.50" y1="320.34" x2="214.99" y2="350.76"/><line x1="192.35" y1="208.33" x2="195.13" y2="199.54"/><line x1="242.73" y1="179.76" x2="248.08" y2="180.29"/><line x1="32.00" y1="479.98" x2="64.49" y2="479.98"/><line x1="248.62" y1="222.31" x2="249.71" y2="220.59"/><line x1="257.25" y1="359.94" x2="257.25" y2="323.17"/><line x1="247.95" y1="316.82" x2="197.35" y2="334.86"/><line x1="224.81" y1="180.38" x2="249.71" y2="220.59"/><line x1="255.58" y1="217.73" x2="258.41" y2="217.54"/><line x1="64.64" y1="32.09" x2="32.16" y2="64.58"/><line x1="234.03" y1="357.65" x2="227.22" y2="355.86"/><line x1="259.81" y1="322.99" x2="257.25" y2="323.17"/><line x1="266.92" y1="246.98" x2="323.26" y2="246.98"/><line x1="257.25" y1="323.17" x2="249.05" y2="359.68"/><line x1="247.95" y1="316.82" x2="192.90" y2="324.36"/><line x1="198.85" y1="134.20" x2="189.85" y2="94.30"/><line x1="249.71" y1="220.59" x2="236.87" y2="179.58"/><line x1="236.87" y1="179.58" x2="251.24" y2="219.25"/><line x1="264.42" y1="134.20" x2="198.85" y2="134.20"/><line x1="480.00" y1="32.02" x2="480.00" y2="64.50"/><line x1="206.26" y1="186.77" x2="214.61" y2="182.78"/><line x1="266.73" y1="316.83" x2="301.71" y2="351.23"/><line x1="250.85" y1="321.58" x2="227.22" y2="355.86"/><line x1="247.76" y1="226.90" x2="247.97" y2="224.42"/><line x1="247.95" y1="316.82" x2="247.76" y2="314.53"/><line x1="266.92" y1="188.23" x2="265.03" y2="220.55"/><line x1="480.00" y1="479.91" x2="480.00" y2="447.42"/><line x1="227.22" y1="355.86" x2="249.50" y2="320.34"/><line x1="257.19" y1="182.41" x2="255.58" y2="217.73"/><line x1="251.24" y1="219.25" x2="242.73" y2="179.76"/><line x1="248.62" y1="222.31" x2="206.26" y2="186.77"/><line x1="266.92" y1="314.54" x2="317.87" y2="335.74"/><line x1="241.31" y1="358.92" x2="252.60" y2="322.46"/><line x1="266.92" y1="188.23" x2="267.53" y2="225.92"/><line x1="204.76" y1="343.67" x2="200.68" y2="339.48"/><line x1="480.00" y1="64.50" x2="447.51" y2="32.02"/><line x1="214.61" y1="182.78" x2="224.81" y2="180.38"/><line x1="191.42" y1="218.71" x2="192.35" y2="208.33"/><line x1="255.58" y1="217.73" x2="260.96" y2="183.99"/><line x1="32.16" y1="32.09" x2="64.64" y2="32.09"/><line x1="191.79" y1="318.48" x2="191.42" y2="312.18"/><line x1="447.51" y1="479.91" x2="480.00" y2="447.42"/><line x1="248.08" y1="180.29" x2="253.19" y2="218.29"/><line x1="249.50" y1="320.34" x2="220.88" y2="353.56"/><line x1="249.05" y1="359.68" x2="241.31" y2="358.92"/><line x1="251.24" y1="219.25" x2="253.19" y2="218.29"/><line x1="32.00" y1="479.98" x2="32.00" y2="447.50"/><line x1="252.60" y1="322.46" x2="234.03" y2="357.65"/><line x1="257.25" y1="359.94" x2="259.81" y2="322.99"/><line x1="247.95" y1="316.82" x2="200.68" y2="339.48"/><line x1="266.92" y1="188.23" x2="268.51" y2="233.96"/><line x1="322.48" y1="232.50" x2="319.35" y2="94.30"/><line x1="266.14" y1="318.76" x2="265.15" y2="320.35"/><line x1="255.58" y1="217.73" x2="266.92" y2="188.23"/><line x1="260.96" y1="183.99" x2="264.20" y2="185.94"/><line x1="289.58" y1="356.07" x2="274.77" y2="358.97"/><line x1="214.99" y1="350.76" x2="248.53" y2="318.76"/><line x1="317.87" y1="335.74" x2="311.14" y2="344.45"/><line x1="234.03" y1="357.65" x2="250.85" y2="321.58"/><line x1="247.76" y1="314.53" x2="247.76" y2="226.90"/><line x1="253.19" y1="218.29" x2="252.89" y2="181.17"/><line x1="265.03" y1="220.55" x2="266.47" y2="222.90"/><line x1="249.50" y1="320.34" x2="248.53" y2="318.76"/><line x1="323.26" y1="312.52" x2="266.92" y2="314.54"/><line x1="32.00" y1="447.50" x2="64.49" y2="479.98"/></g></svg>