<svg xmlns="http://www.w3.org/2000/svg" width="512" height="512"><rect width="512" height="512" fill="#0a0f1a"/><text x="12" y="20" font-family="monospace" font-size="11" fill="#4a7fa5">FRONT (XZ)</text><g stroke="#00d4ff" stroke-width="0.6" opacity="0.85"><line x1="251.92" y1="322.52" x2="253.93" y2="323.00"/><line x1="264.98" y1="319.13" x2="265.56" y2="317.36"/><line x1="219.74" y1="353.57" x2="226.18" y2="355.86"/><line x1="305.12" y1="347.64" x2="258.80" y2="323.00"/><line x1="199.01" y1="339.48" x2="247.54" y2="317.36"/><line x1="256.29" y1="323.17" x2="287.08" y2="355.92"/><line x1="247.37" y1="315.26" x2="199.01" y2="339.48"/><line x1="189.85" y1="318.51" x2="190.99" y2="324.38"/><line x1="223.37" y1="96.10" x2="211.16" y2="101.29"/><line x1="255.92" y1="91.95" x2="273.89" y2="93.00"/><line x1="238.29" y1="92.98" x2="251.92" y2="128.58"/><line x1="190.99" y1="324.38" x2="192.90" y2="329.84"/><line x1="265.76" y1="315.26" x2="323.65" y2="312.59"/><line x1="264.01" y1="130.52" x2="289.09" y2="96.13"/><line x1="265.56" y1="317.36" x2="310.04" y2="343.91"/><line x1="305.12" y1="347.64" x2="262.67" y2="321.71"/><line x1="256.29" y1="323.17" x2="299.59" y2="350.91"/><line x1="480.00" y1="479.91" x2="447.51" y2="479.91"/><line x1="253.93" y1="323.00" x2="256.29" y2="323.17"/><line x1="310.04" y1="343.91" x2="314.20" y2="339.76"/><line x1="250.28" y1="321.71" x2="251.92" y2="322.52"/><line x1="208.17" y1="347.45" x2="248.09" y2="319.13"/><line x1="238.29" y1="92.98" x2="223.37" y2="96.10"/><line x1="256.29" y1="127.94" x2="238.29" y2="92.98"/><line x1="192.90" y1="329.84" x2="195.58" y2="334.87"/><line x1="190.82" y1="129.31" x2="189.46" y2="142.80"/><line x1="265.56" y1="317.36" x2="317.60" y2="335.18"/><line x1="256.29" y1="323.17" x2="258.80" y2="323.00"/><line x1="247.37" y1="315.26" x2="189.46" y2="312.22"/><line x1="248.09" y1="131.98" x2="194.88" y2="117.89"/><line x1="248.09" y1="319.13" x2="213.75" y2="350.77"/><line x1="323.27" y1="318.87" x2="323.65" y2="312.59"/><line x1="314.20" y1="339.76" x2="317.60" y2="335.18"/><line x1="250.28" y1="129.39" x2="249.01" y2="130.52"/><line x1="262.67" y1="129.39" x2="264.01" y2="130.52"/><line x1="264.01" y1="320.58" x2="264.98" y2="319.13"/><line x1="323.65" y1="312.59" x2="265.76" y2="135.84"/><line x1="256.29" y1="323.17" x2="264.70" y2="359.69"/><line x1="265.56" y1="317.36" x2="322.14" y2="324.73"/><line x1="260.93" y1="128.58" x2="255.92" y2="91.95"/><line x1="301.54" y1="101.36" x2="311.21" y2="108.67"/><line x1="320.25" y1="330.17" x2="322.14" y2="324.73"/><line x1="247.37" y1="315.26" x2="190.99" y2="324.38"/><line x1="32.16" y1="32.09" x2="32.16" y2="64.58"/><line x1="248.09" y1="319.13" x2="249.01" y2="320.58"/><line x1="213.75" y1="350.77" x2="219.74" y2="353.57"/><line x1="255.92" y1="91.95" x2="258.80" y2="128.11"/><line x1="247.54" y1="317.36" x2="203.21" y2="343.68"/><line x1="251.92" y1="322.52" x2="240.36" y2="358.92"/><line x1="194.88" y1="117.89" x2="190.82" y2="129.31"/><line x1="219.74" y1="353.57" x2="249.01" y2="320.58"/><line x1="265.76" y1="135.84" x2="323.65" y2="143.16"/><line x1="256.29" y1="323.17" x2="280.10" y2="357.68"/><line x1="249.01" y1="320.58" x2="226.18" y2="355.86"/><line x1="260.93" y1="128.58" x2="262.67" y2="129.39"/><line x1="249.01" y1="130.52" x2="248.09" y2="131.98"/><line x1="203.21" y1="343.68" x2="208.17" y2="347.45"/><line x1="265.56" y1="133.75" x2="265.76" y2="135.84"/><line x1="247.37" y1="315.26" x2="195.58" y2="334.87"/><line x1="322.14" y1="324.73" x2="265.76" y2="315.26"/><line x1="323.65" y1="143.16" x2="322.27" y2="129.58"/><line x1="289.09" y1="96.13" x2="264.98" y2="131.98"/><line x1="255.92" y1="91.95" x2="256.29" y2="127.94"/><line x1="247.54" y1="317.36" x2="248.09" y2="319.13"/><line x1="238.29" y1="92.98" x2="253.93" y2="128.11"/><line x1="265.76" y1="315.26" x2="323.27" y2="318.87"/><line x1="240.36" y1="358.92" x2="253.93" y2="323.00"/><line x1="265.76" y1="135.84" x2="318.13" y2="118.08"/><line x1="480.00" y1="32.02" x2="447.51" y2="32.02"/><line x1="264.98" y1="131.98" x2="265.56" y2="133.75"/><line x1="248.10" y1="359.68" x2="256.28" y2="359.94"/><line x1="226.18" y1="355.86" x2="250.28" y2="321.71"/><line x1="305.12" y1="347.64" x2="264.98" y2="319.13"/><line x1="247.37" y1="315.26" x2="247.54" y2="317.36"/><line x1="253.93" y1="323.00" x2="248.10" y2="359.68"/><line x1="289.09" y1="96.13" x2="301.54" y2="101.36"/><line x1="247.37" y1="135.84" x2="247.37" y2="315.26"/><line x1="250.28" y1="321.71" x2="233.05" y2="357.65"/><line x1="211.16" y1="101.29" x2="248.09" y2="131.98"/><line x1="265.76" y1="315.26" x2="265.76" y2="135.84"/><line x1="253.93" y1="128.11" x2="251.92" y2="128.58"/><line x1="265.56" y1="317.36" x2="314.20" y2="339.76"/><line x1="251.92" y1="128.58" x2="250.28" y2="129.39"/><line x1="265.56" y1="133.75" x2="301.54" y2="101.36"/><line x1="305.12" y1="347.64" x2="310.04" y2="343.91"/><line x1="258.80" y1="128.11" x2="256.29" y2="127.94"/><line x1="248.09" y1="131.98" x2="201.67" y2="108.56"/><line x1="273.89" y1="93.00" x2="264.01" y2="130.52"/><line x1="250.28" y1="129.39" x2="223.37" y2="96.10"/><line x1="189.46" y1="142.80" x2="189.46" y2="312.22"/><line x1="233.05" y1="357.65" x2="251.92" y2="322.52"/><line x1="208.17" y1="347.45" x2="213.75" y2="350.77"/><line x1="287.08" y1="355.92" x2="293.57" y2="353.67"/><line x1="32.00" y1="479.98" x2="64.49" y2="479.98"/><line x1="265.56" y1="317.36" x2="320.25" y2="330.17"/><line x1="256.28" y1="359.94" x2="264.70" y2="359.69"/><line x1="247.37" y1="315.26" x2="189.85" y2="318.51"/><line x1="311.21" y1="108.67" x2="318.13" y2="118.08"/><line x1="64.64" y1="32.09" x2="32.16" y2="64.58"/><line x1="247.54" y1="133.75" x2="247.37" y2="135.84"/><line x1="223.37" y1="96.10" x2="249.01" y2="130.52"/><line x1="260.93" y1="128.58" x2="258.80" y2="128.11"/><line x1="249.01" y1="130.52" x2="211.16" y2="101.29"/><line x1="305.12" y1="347.64" x2="260.93" y2="322.52"/><line x1="199.01" y1="339.48" x2="203.21" y2="343.68"/><line x1="264.70" y1="359.69" x2="272.64" y2="358.94"/><line x1="247.37" y1="315.26" x2="192.90" y2="329.84"/><line x1="256.29" y1="323.17" x2="293.57" y2="353.67"/><line x1="322.27" y1="129.58" x2="318.13" y2="118.08"/><line x1="247.54" y1="317.36" x2="208.17" y2="347.45"/><line x1="272.64" y1="358.94" x2="280.10" y2="357.68"/><line x1="265.76" y1="135.84" x2="322.27" y2="129.58"/><line x1="238.29" y1="92.98" x2="250.28" y2="129.39"/><line x1="480.00" y1="32.02" x2="480.00" y2="64.50"/><line x1="248.10" y1="359.68" x2="256.29" y2="323.17"/><line x1="264.01" y1="130.52" x2="264.98" y2="131.98"/><line x1="190.82" y1="129.31" x2="247.37" y2="135.84"/><line x1="249.01" y1="320.58" x2="250.28" y2="321.71"/><line x1="305.12" y1="347.64" x2="264.01" y2="320.58"/><line x1="256.29" y1="323.17" x2="305.12" y2="347.64"/><line x1="322.14" y1="324.73" x2="323.27" y2="318.87"/><line x1="480.00" y1="479.91" x2="480.00" y2="447.42"/><line x1="289.09" y1="96.13" x2="265.56" y2="133.75"/><line x1="247.37" y1="135.84" x2="189.46" y2="142.80"/><line x1="258.80" y1="323.00" x2="260.93" y2="322.52"/><line x1="280.10" y1="357.68" x2="287.08" y2="355.92"/><line x1="240.36" y1="358.92" x2="248.10" y2="359.68"/><line x1="262.67" y1="129.39" x2="273.89" y2="93.00"/><line x1="201.67" y1="108.56" x2="194.88" y2="117.89"/><line x1="256.29" y1="127.94" x2="253.93" y2="128.11"/><line x1="480.00" y1="64.50" x2="447.51" y2="32.02"/><line x1="256.29" y1="323.17" x2="256.28" y2="359.94"/><line x1="226.18" y1="355.86" x2="233.05" y2="357.65"/><line x1="260.93" y1="322.52" x2="262.67" y2="321.71"/><line x1="305.12" y1="347.64" x2="265.56" y2="317.36"/><line x1="311.21" y1="108.67" x2="265.76" y2="135.84"/><line x1="32.16" y1="32.09" x2="64.64" y2="32.09"/><line x1="248.09" y1="131.98" x2="247.54" y2="133.75"/><line x1="248.09" y1="319.13" x2="219.74" y2="353.57"/><line x1="447.51" y1="479.91" x2="480.00" y2="447.42"/><line x1="293.57" y1="353.67" x2="299.59" y2="350.91"/><line x1="189.46" y1="142.80" x2="247.37" y2="315.26"/><line x1="211.16" y1="101.29" x2="201.67" y2="108.56"/><line x1="32.00" y1="479.98" x2="32.00" y2="447.50"/><line x1="194.88" y1="117.89" x2="247.54" y2="133.75"/><line x1="323.65" y1="312.59" x2="323.65" y2="143.16"/><line x1="195.58" y1="334.87" x2="199.01" y2="339.48"/><line x1="256.29" y1="323.17" x2="272.64" y2="358.94"/><line x1="265.56" y1="133.75" x2="311.21" y2="108.67"/><line x1="265.56" y1="317.36" x2="265.76" y2="315.26"/><line x1="262.67" y1="321.71" x2="264.01" y2="320.58"/><line x1="189.46" y1="312.22" x2="189.85" y2="318.51"/><line x1="273.89" y1="93.00" x2="289.09" y2="96.13"/><line x1="247.54" y1="133.75" x2="190.82" y2="129.31"/><line x1="299.59" y1="350.91" x2="305.12" y2="347.64"/><line x1="317.60" y1="335.18" x2="320.25" y2="330.17"/><line x1="233.05" y1="357.65" x2="240.36" y2="358.92"/><line x1="255.92" y1="91.95" x2="262.67" y2="129.39"/><line x1="32.00" y1="447.50" x2="64.49" y2="479.98"/><line x1="255.92" y1="91.95" x2="238.29" y2="92.98"/></g></svg>