<svg xmlns="http://www.w3.org/2000/svg" width="512" height="512"><rect width="512" height="512" fill="#0a0f1a"/><text x="12" y="20" font-family="monospace" font-size="11" fill="#4a7fa5">FRONT (XZ)</text><g stroke="#00d4ff" stroke-width="0.6" opacity="0.85"><line x1="33.11" y1="101.63" x2="50.77" y2="62.55"/><line x1="291.77" y1="434.04" x2="474.28" y2="117.91"/><line x1="50.77" y1="62.55" x2="61.91" y2="58.60"/><line x1="250.75" y1="454.32" x2="262.17" y2="454.76"/><line x1="472.80" y1="72.92" x2="464.56" y2="64.72"/><line x1="39.17" y1="116.50" x2="74.23" y2="57.24"/><line x1="464.56" y1="64.72" x2="453.33" y2="59.24"/><line x1="32.00" y1="88.66" x2="35.07" y2="77.73"/><line x1="221.16" y1="431.73" x2="439.20" y2="57.24"/><line x1="439.20" y1="57.24" x2="273.25" y2="451.56"/><line x1="439.20" y1="57.24" x2="239.67" y2="450.30"/><line x1="439.20" y1="57.24" x2="474.28" y2="117.91"/><line x1="474.28" y1="117.91" x2="478.80" y2="106.35"/><line x1="41.58" y1="68.98" x2="33.11" y2="101.63"/><line x1="439.20" y1="57.24" x2="477.98" y2="83.10"/><line x1="262.17" y1="454.76" x2="273.25" y2="451.56"/><line x1="439.20" y1="57.24" x2="453.33" y2="59.24"/><line x1="478.80" y1="106.35" x2="480.00" y2="94.49"/><line x1="50.77" y1="62.55" x2="39.17" y2="116.50"/><line x1="39.17" y1="116.50" x2="61.91" y2="58.60"/><line x1="273.25" y1="451.56" x2="283.34" y2="444.66"/><line x1="32.00" y1="88.66" x2="41.58" y2="68.98"/><line x1="439.20" y1="57.24" x2="229.58" y2="442.76"/><line x1="439.20" y1="57.24" x2="291.77" y2="434.04"/><line x1="41.58" y1="68.98" x2="35.07" y2="77.73"/><line x1="229.58" y1="442.76" x2="239.67" y2="450.30"/><line x1="439.20" y1="57.24" x2="262.17" y2="454.76"/><line x1="439.20" y1="57.24" x2="480.00" y2="94.49"/><line x1="439.20" y1="57.24" x2="464.56" y2="64.72"/><line x1="480.00" y1="94.49" x2="477.98" y2="83.10"/><line x1="74.23" y1="57.24" x2="439.20" y2="57.24"/><line x1="61.91" y1="58.60" x2="74.23" y2="57.24"/><line x1="283.34" y1="444.66" x2="291.77" y2="434.04"/><line x1="33.11" y1="101.63" x2="39.17" y2="116.50"/><line x1="477.98" y1="83.10" x2="472.80" y2="72.92"/><line x1="39.17" y1="116.50" x2="221.16" y2="431.73"/><line x1="32.00" y1="88.66" x2="33.11" y2="101.63"/><line x1="221.16" y1="431.73" x2="229.58" y2="442.76"/><line x1="439.20" y1="57.24" x2="250.75" y2="454.32"/><line x1="41.58" y1="68.98" x2="50.77" y2="62.55"/><line x1="439.20" y1="57.24" x2="283.34" y2="444.66"/><line x1="239.67" y1="450.30" x2="250.75" y2="454.32"/><line x1="439.20" y1="57.24" x2="472.80" y2="72.92"/><line x1="439.20" y1="57.24" x2="478.80" y2="106.35"/><line x1="74.23" y1="57.24" x2="221.16" y2="431.73"/></g></svg>