<svg xmlns="http://www.w3.org/2000/svg" width="512" height="512"><rect width="512" height="512" fill="#0a0f1a"/><text x="12" y="20" font-family="monospace" font-size="11" fill="#4a7fa5">FRONT (XZ)</text><g stroke="#00d4ff" stroke-width="0.6" opacity="0.85"><line x1="200.63" y1="322.74" x2="204.39" y2="340.05"/><line x1="100.09" y1="130.51" x2="142.58" y2="279.58"/><line x1="228.11" y1="409.26" x2="218.74" y2="401.30"/><line x1="194.34" y1="307.14" x2="472.92" y2="219.12"/><line x1="206.85" y1="357.83" x2="209.24" y2="374.80"/><line x1="373.39" y1="397.31" x2="346.25" y2="405.32"/><line x1="396.12" y1="132.10" x2="430.51" y2="156.43"/><line x1="184.27" y1="294.52" x2="303.37" y2="100.86"/><line x1="142.58" y1="279.58" x2="140.30" y2="111.27"/><line x1="194.34" y1="307.14" x2="477.41" y2="291.93"/><line x1="303.37" y1="100.86" x2="353.59" y2="113.34"/><line x1="240.91" y1="414.28" x2="212.79" y2="389.71"/><line x1="184.27" y1="294.52" x2="194.34" y2="307.14"/><line x1="320.64" y1="410.71" x2="297.01" y2="414.59"/><line x1="142.58" y1="279.58" x2="167.08" y2="285.71"/><line x1="353.59" y1="113.34" x2="194.34" y2="307.14"/><line x1="167.08" y1="285.71" x2="245.95" y2="95.33"/><line x1="85.54" y1="268.53" x2="114.25" y2="274.41"/><line x1="480.00" y1="256.10" x2="477.41" y2="291.93"/><line x1="40.94" y1="247.84" x2="32.00" y2="229.65"/><line x1="34.38" y1="206.08" x2="59.95" y2="260.24"/><line x1="245.95" y1="95.33" x2="184.27" y2="294.52"/><line x1="297.01" y1="414.59" x2="275.65" y2="416.67"/><line x1="200.63" y1="322.74" x2="320.64" y2="410.71"/><line x1="212.79" y1="389.71" x2="218.74" y2="401.30"/><line x1="477.41" y1="291.93" x2="466.48" y2="322.51"/><line x1="430.51" y1="156.43" x2="456.26" y2="185.67"/><line x1="114.25" y1="274.41" x2="142.58" y2="279.58"/><line x1="466.48" y1="322.51" x2="448.92" y2="348.10"/><line x1="59.95" y1="260.24" x2="85.54" y2="268.53"/><line x1="456.26" y1="185.67" x2="472.92" y2="219.12"/><line x1="194.34" y1="307.14" x2="448.92" y2="348.10"/><line x1="256.86" y1="416.66" x2="240.91" y2="414.28"/><line x1="346.25" y1="405.32" x2="320.64" y2="410.71"/><line x1="448.92" y1="348.10" x2="426.43" y2="368.94"/><line x1="204.39" y1="340.05" x2="206.85" y2="357.83"/><line x1="426.43" y1="368.94" x2="400.68" y2="385.26"/><line x1="46.77" y1="180.18" x2="68.79" y2="154.24"/><line x1="472.92" y1="219.12" x2="480.00" y2="256.10"/><line x1="184.27" y1="294.52" x2="353.59" y2="113.34"/><line x1="320.64" y1="410.71" x2="204.39" y2="340.05"/><line x1="194.34" y1="307.14" x2="396.12" y2="132.10"/><line x1="400.68" y1="385.26" x2="373.39" y2="397.31"/><line x1="194.34" y1="307.14" x2="400.68" y2="385.26"/><line x1="209.24" y1="374.80" x2="212.79" y2="389.71"/><line x1="68.79" y1="154.24" x2="100.09" y2="130.51"/><line x1="85.54" y1="268.53" x2="68.79" y2="154.24"/><line x1="240.91" y1="414.28" x2="228.11" y2="409.26"/><line x1="34.38" y1="206.08" x2="32.00" y2="229.65"/><line x1="194.34" y1="307.14" x2="456.26" y2="185.67"/><line x1="206.85" y1="357.83" x2="256.86" y2="416.66"/><line x1="189.04" y1="98.78" x2="245.95" y2="95.33"/><line x1="373.39" y1="397.31" x2="200.63" y2="322.74"/><line x1="194.34" y1="307.14" x2="200.63" y2="322.74"/><line x1="167.08" y1="285.71" x2="184.27" y2="294.52"/><line x1="200.63" y1="322.74" x2="346.25" y2="405.32"/><line x1="100.09" y1="130.51" x2="140.30" y2="111.27"/><line x1="34.38" y1="206.08" x2="46.77" y2="180.18"/><line x1="194.34" y1="307.14" x2="480.00" y2="256.10"/><line x1="59.95" y1="260.24" x2="46.77" y2="180.18"/><line x1="275.65" y1="416.67" x2="256.86" y2="416.66"/><line x1="142.58" y1="279.58" x2="189.04" y2="98.78"/><line x1="194.34" y1="307.14" x2="466.48" y2="322.51"/><line x1="256.86" y1="416.66" x2="209.24" y2="374.80"/><line x1="204.39" y1="340.05" x2="297.01" y2="414.59"/><line x1="46.77" y1="180.18" x2="85.54" y2="268.53"/><line x1="40.94" y1="247.84" x2="34.38" y2="206.08"/><line x1="140.30" y1="111.27" x2="189.04" y2="98.78"/><line x1="194.34" y1="307.14" x2="426.43" y2="368.94"/><line x1="209.24" y1="374.80" x2="240.91" y2="414.28"/><line x1="68.79" y1="154.24" x2="114.25" y2="274.41"/><line x1="353.59" y1="113.34" x2="396.12" y2="132.10"/><line x1="297.01" y1="414.59" x2="206.85" y2="357.83"/><line x1="212.79" y1="389.71" x2="228.11" y2="409.26"/><line x1="40.94" y1="247.84" x2="59.95" y2="260.24"/><line x1="194.34" y1="307.14" x2="430.51" y2="156.43"/><line x1="206.85" y1="357.83" x2="275.65" y2="416.67"/><line x1="189.04" y1="98.78" x2="167.08" y2="285.71"/><line x1="194.34" y1="307.14" x2="373.39" y2="397.31"/><line x1="245.95" y1="95.33" x2="303.37" y2="100.86"/><line x1="114.25" y1="274.41" x2="100.09" y2="130.51"/></g></svg>