<svg xmlns="http://www.w3.org/2000/svg" width="512" height="512"><rect width="512" height="512" fill="#0a0f1a"/><text x="12" y="20" font-family="monospace" font-size="11" fill="#4a7fa5">FRONT (XZ)</text><g stroke="#00d4ff" stroke-width="0.6" opacity="0.85"><line x1="396.01" y1="311.26" x2="479.21" y2="246.19"/><line x1="75.42" y1="337.07" x2="32.65" y2="271.37"/><line x1="396.01" y1="311.26" x2="460.13" y2="186.41"/><line x1="396.01" y1="311.26" x2="462.51" y2="306.83"/><line x1="462.51" y1="306.83" x2="460.13" y2="326.96"/><line x1="322.15" y1="184.67" x2="382.60" y2="176.13"/><line x1="181.94" y1="202.31" x2="251.97" y2="315.60"/><line x1="474.44" y1="206.15" x2="480.00" y2="226.10"/><line x1="36.53" y1="249.77" x2="111.84" y2="200.70"/><line x1="253.65" y1="195.18" x2="322.15" y2="184.67"/><line x1="480.00" y1="226.10" x2="479.21" y2="246.19"/><line x1="48.17" y1="328.39" x2="36.53" y2="311.24"/><line x1="41.70" y1="227.81" x2="46.23" y2="206.03"/><line x1="382.60" y1="176.13" x2="396.01" y2="311.26"/><line x1="32.00" y1="292.04" x2="75.42" y2="337.07"/><line x1="468.08" y1="286.62" x2="462.51" y2="306.83"/><line x1="251.97" y1="315.60" x2="253.65" y2="195.18"/><line x1="121.98" y1="334.53" x2="182.58" y2="325.72"/><line x1="111.84" y1="200.70" x2="48.17" y2="185.00"/><line x1="324.87" y1="309.13" x2="382.60" y2="176.13"/><line x1="396.01" y1="311.26" x2="430.21" y2="174.93"/><line x1="32.65" y1="271.37" x2="36.53" y2="249.77"/><line x1="396.01" y1="311.26" x2="480.00" y2="226.10"/><line x1="36.53" y1="249.77" x2="121.98" y2="334.53"/><line x1="396.01" y1="311.26" x2="468.08" y2="286.62"/><line x1="75.42" y1="337.07" x2="121.98" y2="334.53"/><line x1="253.65" y1="195.18" x2="324.87" y2="309.13"/><line x1="479.21" y1="246.19" x2="474.44" y2="266.39"/><line x1="48.17" y1="328.39" x2="32.00" y2="292.04"/><line x1="46.23" y1="206.03" x2="48.17" y2="185.00"/><line x1="32.00" y1="292.04" x2="36.53" y2="311.24"/><line x1="182.58" y1="325.72" x2="251.97" y2="315.60"/><line x1="430.21" y1="174.93" x2="460.13" y2="186.41"/><line x1="111.84" y1="200.70" x2="46.23" y2="206.03"/><line x1="121.98" y1="334.53" x2="111.84" y2="200.70"/><line x1="324.87" y1="309.13" x2="322.15" y2="184.67"/><line x1="474.44" y1="266.39" x2="468.08" y2="286.62"/><line x1="111.84" y1="200.70" x2="181.94" y2="202.31"/><line x1="396.01" y1="311.26" x2="474.44" y2="206.15"/><line x1="396.01" y1="311.26" x2="474.44" y2="266.39"/><line x1="75.42" y1="337.07" x2="36.53" y2="249.77"/><line x1="181.94" y1="202.31" x2="253.65" y2="195.18"/><line x1="460.13" y1="186.41" x2="474.44" y2="206.15"/><line x1="396.01" y1="311.26" x2="460.13" y2="326.96"/><line x1="36.53" y1="249.77" x2="41.70" y2="227.81"/><line x1="48.17" y1="328.39" x2="75.42" y2="337.07"/><line x1="382.60" y1="176.13" x2="430.21" y2="174.93"/><line x1="32.00" y1="292.04" x2="32.65" y2="271.37"/><line x1="182.58" y1="325.72" x2="181.94" y2="202.31"/><line x1="251.97" y1="315.60" x2="324.87" y2="309.13"/><line x1="111.84" y1="200.70" x2="182.58" y2="325.72"/><line x1="324.87" y1="309.13" x2="396.01" y2="311.26"/><line x1="111.84" y1="200.70" x2="41.70" y2="227.81"/></g></svg>