<svg xmlns="http://www.w3.org/2000/svg" width="512" height="512"><rect width="512" height="512" fill="#0a0f1a"/><text x="12" y="20" font-family="monospace" font-size="11" fill="#4a7fa5">FRONT (XZ)</text><g stroke="#00d4ff" stroke-width="0.6" opacity="0.85"><line x1="308.15" y1="48.59" x2="309.35" y2="63.54"/><line x1="204.94" y1="168.65" x2="195.63" y2="191.84"/><line x1="227.88" y1="271.64" x2="179.47" y2="286.97"/><line x1="182.85" y1="480.00" x2="229.51" y2="480.00"/><line x1="249.83" y1="162.16" x2="215.96" y2="146.62"/><line x1="309.35" y1="63.54" x2="297.92" y2="79.35"/><line x1="242.16" y1="108.37" x2="266.74" y2="127.19"/><line x1="236.58" y1="212.28" x2="188.28" y2="215.61"/><line x1="295.57" y1="57.76" x2="282.76" y2="67.97"/><line x1="257.85" y1="143.33" x2="249.83" y2="162.16"/><line x1="188.28" y1="215.61" x2="231.60" y2="241.36"/><line x1="179.22" y1="344.49" x2="179.76" y2="376.58"/><line x1="320.57" y1="40.12" x2="332.92" y2="32.00"/><line x1="269.64" y1="79.58" x2="286.91" y2="95.21"/><line x1="231.60" y1="241.36" x2="180.48" y2="262.56"/><line x1="286.91" y1="95.21" x2="276.47" y2="111.16"/><line x1="215.96" y1="146.62" x2="204.94" y2="168.65"/><line x1="321.06" y1="47.76" x2="308.15" y2="48.59"/><line x1="256.13" y1="92.93" x2="242.16" y2="108.37"/><line x1="242.70" y1="185.51" x2="236.58" y2="212.28"/><line x1="180.48" y1="262.56" x2="227.88" y2="271.64"/><line x1="179.47" y1="286.97" x2="225.56" y2="302.01"/><line x1="266.74" y1="127.19" x2="257.85" y2="143.33"/><line x1="225.56" y1="302.01" x2="224.76" y2="331.35"/><line x1="224.76" y1="331.35" x2="180.62" y2="410.20"/><line x1="249.83" y1="162.16" x2="242.70" y2="185.51"/><line x1="297.92" y1="79.35" x2="269.64" y2="79.58"/><line x1="228.45" y1="126.33" x2="215.96" y2="146.62"/><line x1="179.76" y1="376.58" x2="180.62" y2="410.20"/><line x1="224.76" y1="331.35" x2="229.51" y2="480.00"/><line x1="204.94" y1="168.65" x2="242.70" y2="185.51"/><line x1="309.35" y1="63.54" x2="295.57" y2="57.76"/><line x1="295.57" y1="57.76" x2="297.92" y2="79.35"/><line x1="242.16" y1="108.37" x2="228.45" y2="126.33"/><line x1="195.63" y1="191.84" x2="188.28" y2="215.61"/><line x1="179.08" y1="314.45" x2="179.22" y2="344.49"/><line x1="257.85" y1="143.33" x2="228.45" y2="126.33"/><line x1="231.60" y1="241.36" x2="183.15" y2="239.37"/><line x1="320.57" y1="40.12" x2="321.06" y2="47.76"/><line x1="286.91" y1="95.21" x2="256.13" y2="92.93"/><line x1="321.06" y1="47.76" x2="332.92" y2="32.00"/><line x1="256.13" y1="92.93" x2="276.47" y2="111.16"/><line x1="276.47" y1="111.16" x2="266.74" y2="127.19"/><line x1="242.70" y1="185.51" x2="195.63" y2="191.84"/><line x1="225.56" y1="302.01" x2="179.08" y2="314.45"/><line x1="224.76" y1="331.35" x2="179.76" y2="376.58"/><line x1="224.76" y1="331.35" x2="182.85" y2="480.00"/><line x1="297.92" y1="79.35" x2="282.76" y2="67.97"/><line x1="228.45" y1="126.33" x2="249.83" y2="162.16"/><line x1="183.15" y1="239.37" x2="180.48" y2="262.56"/><line x1="249.83" y1="162.16" x2="204.94" y2="168.65"/><line x1="180.48" y1="262.56" x2="179.47" y2="286.97"/><line x1="180.62" y1="410.20" x2="181.69" y2="444.84"/><line x1="227.88" y1="271.64" x2="225.56" y2="302.01"/><line x1="308.15" y1="48.59" x2="295.57" y2="57.76"/><line x1="242.16" y1="108.37" x2="257.85" y2="143.33"/><line x1="195.63" y1="191.84" x2="236.58" y2="212.28"/><line x1="236.58" y1="212.28" x2="231.60" y2="241.36"/><line x1="179.08" y1="314.45" x2="224.76" y2="331.35"/><line x1="231.60" y1="241.36" x2="227.88" y2="271.64"/><line x1="188.28" y1="215.61" x2="183.15" y2="239.37"/><line x1="224.76" y1="331.35" x2="181.69" y2="444.84"/><line x1="320.57" y1="40.12" x2="308.15" y2="48.59"/><line x1="269.64" y1="79.58" x2="256.13" y2="92.93"/><line x1="181.69" y1="444.84" x2="182.85" y2="480.00"/><line x1="321.06" y1="47.76" x2="309.35" y2="63.54"/><line x1="276.47" y1="111.16" x2="242.16" y2="108.37"/><line x1="179.47" y1="286.97" x2="179.08" y2="314.45"/><line x1="224.76" y1="331.35" x2="179.22" y2="344.49"/><line x1="297.92" y1="79.35" x2="286.91" y2="95.21"/><line x1="282.76" y1="67.97" x2="269.64" y2="79.58"/></g></svg>