<svg xmlns="http://www.w3.org/2000/svg" width="512" height="512"><rect width="512" height="512" fill="#0a0f1a"/><text x="12" y="20" font-family="monospace" font-size="11" fill="#4a7fa5">FRONT (XZ)</text><g stroke="#00d4ff" stroke-width="0.6" opacity="0.85"><line x1="338.56" y1="450.44" x2="339.61" y2="458.81"/><line x1="284.01" y1="459.70" x2="295.79" y2="468.14"/><line x1="288.01" y1="380.03" x2="257.21" y2="434.80"/><line x1="301.12" y1="391.77" x2="312.95" y2="403.48"/><line x1="296.79" y1="41.99" x2="326.10" y2="61.58"/><line x1="241.31" y1="153.59" x2="233.48" y2="172.35"/><line x1="260.13" y1="351.82" x2="224.47" y2="392.67"/><line x1="175.66" y1="207.16" x2="172.39" y2="239.90"/><line x1="193.79" y1="147.29" x2="183.17" y2="175.94"/><line x1="224.47" y1="392.67" x2="274.16" y2="367.10"/><line x1="263.94" y1="119.52" x2="232.81" y2="87.30"/><line x1="311.45" y1="35.08" x2="332.03" y2="52.39"/><line x1="219.76" y1="101.92" x2="206.36" y2="122.26"/><line x1="292.36" y1="91.52" x2="263.13" y2="63.18"/><line x1="296.79" y1="41.99" x2="315.78" y2="71.95"/><line x1="326.10" y1="61.58" x2="322.24" y2="66.06"/><line x1="335.63" y1="440.64" x2="338.56" y2="450.44"/><line x1="263.13" y1="63.18" x2="278.10" y2="104.62"/><line x1="271.42" y1="449.09" x2="312.95" y2="403.48"/><line x1="233.48" y1="172.35" x2="226.64" y2="192.32"/><line x1="274.16" y1="367.10" x2="241.17" y2="415.77"/><line x1="263.94" y1="119.52" x2="251.22" y2="135.94"/><line x1="182.13" y1="305.73" x2="193.78" y2="336.97"/><line x1="311.45" y1="35.08" x2="296.79" y2="41.99"/><line x1="246.47" y1="333.02" x2="208.28" y2="366.18"/><line x1="312.95" y1="403.48" x2="322.95" y2="416.33"/><line x1="226.64" y1="192.32" x2="221.54" y2="213.49"/><line x1="278.10" y1="104.62" x2="246.88" y2="75.40"/><line x1="271.42" y1="449.09" x2="284.01" y2="459.70"/><line x1="323.99" y1="480.00" x2="330.22" y2="479.36"/><line x1="280.23" y1="51.70" x2="305.37" y2="80.54"/><line x1="337.27" y1="471.68" x2="334.48" y2="476.38"/><line x1="206.36" y1="122.26" x2="241.31" y2="153.59"/><line x1="322.85" y1="32.00" x2="329.62" y2="33.80"/><line x1="322.95" y1="416.33" x2="284.01" y2="459.70"/><line x1="332.64" y1="38.41" x2="311.45" y2="35.08"/><line x1="305.37" y1="80.54" x2="292.36" y2="91.52"/><line x1="257.21" y1="434.80" x2="301.12" y2="391.77"/><line x1="338.56" y1="450.44" x2="316.02" y2="478.32"/><line x1="174.52" y1="273.10" x2="182.13" y2="305.73"/><line x1="284.01" y1="459.70" x2="330.53" y2="429.30"/><line x1="330.53" y1="429.30" x2="295.79" y2="468.14"/><line x1="280.23" y1="51.70" x2="263.13" y2="63.18"/><line x1="221.54" y1="213.49" x2="218.94" y2="235.81"/><line x1="301.12" y1="391.77" x2="271.42" y2="449.09"/><line x1="208.28" y1="366.18" x2="224.47" y2="392.67"/><line x1="241.31" y1="153.59" x2="193.79" y2="147.29"/><line x1="232.81" y1="87.30" x2="219.76" y2="101.92"/><line x1="329.45" y1="57.01" x2="326.10" y2="61.58"/><line x1="193.79" y1="147.29" x2="233.48" y2="172.35"/><line x1="316.02" y1="478.32" x2="339.61" y2="458.81"/><line x1="311.45" y1="35.08" x2="333.60" y2="47.72"/><line x1="219.76" y1="101.92" x2="251.22" y2="135.94"/><line x1="339.08" y1="465.86" x2="337.27" y2="471.68"/><line x1="295.79" y1="468.14" x2="335.63" y2="440.64"/><line x1="260.13" y1="351.82" x2="274.16" y2="367.10"/><line x1="339.61" y1="458.81" x2="339.08" y2="465.86"/><line x1="233.73" y1="309.54" x2="246.47" y2="333.02"/><line x1="335.63" y1="440.64" x2="306.54" y2="474.35"/><line x1="172.39" y1="239.90" x2="218.94" y2="235.81"/><line x1="233.48" y1="172.35" x2="183.17" y2="175.94"/><line x1="316.02" y1="478.32" x2="323.99" y2="480.00"/><line x1="219.60" y1="259.27" x2="224.28" y2="283.86"/><line x1="183.17" y1="175.94" x2="226.64" y2="192.32"/><line x1="311.45" y1="35.08" x2="329.45" y2="57.01"/><line x1="251.22" y1="135.94" x2="206.36" y2="122.26"/><line x1="292.36" y1="91.52" x2="278.10" y2="104.62"/><line x1="218.94" y1="235.81" x2="219.60" y2="259.27"/><line x1="246.88" y1="75.40" x2="263.94" y2="119.52"/><line x1="226.64" y1="192.32" x2="175.66" y2="207.16"/><line x1="193.78" y1="336.97" x2="208.28" y2="366.18"/><line x1="306.54" y1="474.35" x2="338.56" y2="450.44"/><line x1="172.39" y1="239.90" x2="174.52" y2="273.10"/><line x1="271.42" y1="449.09" x2="322.95" y2="416.33"/><line x1="241.17" y1="415.77" x2="257.21" y2="434.80"/><line x1="333.60" y1="47.72" x2="332.03" y2="52.39"/><line x1="337.27" y1="471.68" x2="330.22" y2="479.36"/><line x1="246.47" y1="333.02" x2="260.13" y2="351.82"/><line x1="332.64" y1="38.41" x2="329.62" y2="33.80"/><line x1="224.28" y1="283.86" x2="233.73" y2="309.54"/><line x1="315.78" y1="71.95" x2="305.37" y2="80.54"/><line x1="175.66" y1="207.16" x2="221.54" y2="213.49"/><line x1="280.23" y1="51.70" x2="292.36" y2="91.52"/><line x1="221.54" y1="213.49" x2="172.39" y2="239.90"/><line x1="288.01" y1="380.03" x2="301.12" y2="391.77"/><line x1="330.22" y1="479.36" x2="334.48" y2="476.38"/><line x1="296.79" y1="41.99" x2="322.24" y2="66.06"/><line x1="332.64" y1="38.41" x2="333.88" y2="43.06"/><line x1="257.21" y1="434.80" x2="271.42" y2="449.09"/><line x1="224.47" y1="392.67" x2="241.17" y2="415.77"/><line x1="311.45" y1="35.08" x2="333.88" y2="43.06"/><line x1="339.08" y1="465.86" x2="323.99" y2="480.00"/><line x1="263.94" y1="119.52" x2="219.76" y2="101.92"/><line x1="182.13" y1="305.73" x2="233.73" y2="309.54"/><line x1="330.53" y1="429.30" x2="335.63" y2="440.64"/><line x1="296.79" y1="41.99" x2="280.23" y2="51.70"/><line x1="233.73" y1="309.54" x2="193.78" y2="336.97"/><line x1="316.02" y1="478.32" x2="339.08" y2="465.86"/><line x1="263.13" y1="63.18" x2="246.88" y2="75.40"/><line x1="219.60" y1="259.27" x2="174.52" y2="273.10"/><line x1="274.16" y1="367.10" x2="288.01" y2="380.03"/><line x1="333.88" y1="43.06" x2="333.60" y2="47.72"/><line x1="323.99" y1="480.00" x2="337.27" y2="471.68"/><line x1="295.79" y1="468.14" x2="306.54" y2="474.35"/><line x1="322.85" y1="32.00" x2="332.64" y2="38.41"/><line x1="322.24" y1="66.06" x2="315.78" y2="71.95"/><line x1="193.78" y1="336.97" x2="246.47" y2="333.02"/><line x1="172.39" y1="239.90" x2="219.60" y2="259.27"/><line x1="332.03" y1="52.39" x2="329.45" y2="57.01"/><line x1="278.10" y1="104.62" x2="263.94" y2="119.52"/><line x1="174.52" y1="273.10" x2="224.28" y2="283.86"/><line x1="183.17" y1="175.94" x2="175.66" y2="207.16"/><line x1="241.17" y1="415.77" x2="288.01" y2="380.03"/><line x1="251.22" y1="135.94" x2="241.31" y2="153.59"/><line x1="206.36" y1="122.26" x2="193.79" y2="147.29"/><line x1="208.28" y1="366.18" x2="260.13" y2="351.82"/><line x1="322.85" y1="32.00" x2="311.45" y2="35.08"/><line x1="246.88" y1="75.40" x2="232.81" y2="87.30"/><line x1="224.28" y1="283.86" x2="182.13" y2="305.73"/><line x1="322.95" y1="416.33" x2="330.53" y2="429.30"/><line x1="315.78" y1="71.95" x2="280.23" y2="51.70"/><line x1="306.54" y1="474.35" x2="316.02" y2="478.32"/><line x1="329.45" y1="57.01" x2="296.79" y2="41.99"/></g></svg>