<svg xmlns="http://www.w3.org/2000/svg" width="512" height="512"><rect width="512" height="512" fill="#0a0f1a"/><text x="12" y="20" font-family="monospace" font-size="11" fill="#4a7fa5">FRONT (XZ)</text><g stroke="#00d4ff" stroke-width="0.6" opacity="0.85"><line x1="387.38" y1="103.43" x2="337.42" y2="122.59"/><line x1="74.88" y1="437.10" x2="104.25" y2="388.56"/><line x1="126.89" y1="103.84" x2="178.38" y2="123.00"/><line x1="103.08" y1="160.01" x2="106.21" y2="122.02"/><line x1="76.55" y1="96.01" x2="36.45" y2="32.02"/><line x1="404.78" y1="121.45" x2="435.46" y2="96.01"/><line x1="115.39" y1="288.00" x2="116.02" y2="224.00"/><line x1="335.70" y1="386.19" x2="288.01" y2="396.87"/><line x1="395.99" y1="224.00" x2="408.94" y2="160.01"/><line x1="133.65" y1="282.02" x2="133.91" y2="227.15"/><line x1="438.63" y1="415.99" x2="437.12" y2="437.10"/><line x1="224.01" y1="396.87" x2="160.01" y2="410.72"/><line x1="410.83" y1="351.99" x2="407.34" y2="388.00"/><line x1="133.91" y1="227.15" x2="116.02" y2="224.00"/><line x1="377.05" y1="280.88" x2="396.63" y2="288.00"/><line x1="412.81" y1="72.73" x2="387.38" y2="103.43"/><line x1="78.48" y1="74.90" x2="36.45" y2="32.02"/><line x1="288.01" y1="396.87" x2="226.63" y2="377.16"/><line x1="116.02" y1="224.00" x2="124.73" y2="173.30"/><line x1="416.01" y1="438.42" x2="388.12" y2="406.27"/><line x1="73.37" y1="415.99" x2="101.17" y2="351.99"/><line x1="385.78" y1="172.34" x2="404.78" y2="121.45"/><line x1="337.42" y1="122.59" x2="287.35" y2="113.45"/><line x1="123.80" y1="336.35" x2="115.39" y2="288.00"/><line x1="437.12" y1="437.10" x2="480.00" y2="479.98"/><line x1="121.88" y1="407.70" x2="74.88" y2="437.10"/><line x1="36.45" y1="32.02" x2="99.17" y2="72.73"/><line x1="435.46" y1="96.01" x2="433.52" y2="74.90"/><line x1="226.63" y1="377.16" x2="172.97" y2="387.62"/><line x1="78.48" y1="74.90" x2="126.89" y2="103.84"/><line x1="433.52" y1="74.90" x2="475.55" y2="32.02"/><line x1="352.01" y1="410.72" x2="335.70" y2="386.19"/><line x1="395.99" y1="224.00" x2="377.05" y2="280.88"/><line x1="99.17" y1="72.73" x2="126.89" y2="103.84"/><line x1="376.53" y1="226.01" x2="385.78" y2="172.34"/><line x1="106.21" y1="122.02" x2="76.55" y2="96.01"/><line x1="387.38" y1="103.43" x2="350.08" y2="99.87"/><line x1="74.88" y1="437.10" x2="73.37" y2="415.99"/><line x1="126.89" y1="103.84" x2="161.90" y2="99.87"/><line x1="161.90" y1="99.87" x2="178.38" y2="123.00"/><line x1="433.52" y1="74.90" x2="412.81" y2="72.73"/><line x1="172.97" y1="387.62" x2="121.88" y2="407.70"/><line x1="408.94" y1="160.01" x2="435.46" y2="96.01"/><line x1="352.01" y1="410.72" x2="288.01" y2="396.87"/><line x1="115.39" y1="288.00" x2="133.91" y2="227.15"/><line x1="76.55" y1="96.01" x2="78.48" y2="74.90"/><line x1="437.12" y1="437.10" x2="388.12" y2="406.27"/><line x1="287.35" y1="113.45" x2="224.62" y2="113.45"/><line x1="350.08" y1="99.87" x2="337.42" y2="122.59"/><line x1="385.78" y1="172.34" x2="408.94" y2="160.01"/><line x1="178.38" y1="123.00" x2="224.62" y2="113.45"/><line x1="335.70" y1="386.19" x2="281.38" y2="376.58"/><line x1="287.35" y1="113.45" x2="285.01" y2="132.29"/><line x1="377.05" y1="280.88" x2="387.31" y2="335.40"/><line x1="104.25" y1="388.56" x2="123.80" y2="336.35"/><line x1="224.62" y1="113.45" x2="231.54" y2="132.45"/><line x1="160.01" y1="410.72" x2="121.88" y2="407.70"/><line x1="410.83" y1="351.99" x2="438.63" y2="415.99"/><line x1="288.01" y1="396.87" x2="281.38" y2="376.58"/><line x1="96.01" y1="438.42" x2="32.00" y2="479.98"/><line x1="281.38" y1="376.58" x2="226.63" y2="377.16"/><line x1="396.63" y1="288.00" x2="387.31" y2="335.40"/><line x1="388.12" y1="406.27" x2="352.01" y2="410.72"/><line x1="121.88" y1="407.70" x2="96.01" y2="438.42"/><line x1="480.00" y1="479.98" x2="416.01" y2="438.42"/><line x1="226.63" y1="377.16" x2="224.01" y2="396.87"/><line x1="350.08" y1="99.87" x2="287.35" y2="113.45"/><line x1="101.17" y1="351.99" x2="115.39" y2="288.00"/><line x1="231.54" y1="132.45" x2="285.01" y2="132.29"/><line x1="78.48" y1="74.90" x2="99.17" y2="72.73"/><line x1="288.01" y1="396.87" x2="224.01" y2="396.87"/><line x1="124.73" y1="173.30" x2="106.21" y2="122.02"/><line x1="123.80" y1="336.35" x2="133.65" y2="282.02"/><line x1="437.12" y1="437.10" x2="416.01" y2="438.42"/><line x1="376.53" y1="226.01" x2="377.05" y2="280.88"/><line x1="395.99" y1="224.00" x2="396.63" y2="288.00"/><line x1="407.34" y1="388.00" x2="437.12" y2="437.10"/><line x1="224.01" y1="396.87" x2="172.97" y2="387.62"/><line x1="337.42" y1="122.59" x2="285.01" y2="132.29"/><line x1="387.31" y1="335.40" x2="407.34" y2="388.00"/><line x1="172.97" y1="387.62" x2="160.01" y2="410.72"/><line x1="103.08" y1="160.01" x2="76.55" y2="96.01"/><line x1="106.21" y1="122.02" x2="78.48" y2="74.90"/><line x1="133.91" y1="227.15" x2="124.73" y2="173.30"/><line x1="161.90" y1="99.87" x2="224.62" y2="113.45"/><line x1="73.37" y1="415.99" x2="104.25" y2="388.56"/><line x1="433.52" y1="74.90" x2="387.38" y2="103.43"/><line x1="287.35" y1="113.45" x2="231.54" y2="132.45"/><line x1="404.78" y1="121.45" x2="433.52" y2="74.90"/><line x1="104.25" y1="388.56" x2="101.17" y2="351.99"/><line x1="438.63" y1="415.99" x2="480.00" y2="479.98"/><line x1="96.01" y1="438.42" x2="74.88" y2="437.10"/><line x1="116.02" y1="224.00" x2="103.08" y2="160.01"/><line x1="416.01" y1="438.42" x2="352.01" y2="410.72"/><line x1="178.38" y1="123.00" x2="231.54" y2="132.45"/><line x1="395.99" y1="224.00" x2="376.53" y2="226.01"/><line x1="407.34" y1="388.00" x2="438.63" y2="415.99"/><line x1="435.46" y1="96.01" x2="475.55" y2="32.02"/><line x1="101.17" y1="351.99" x2="123.80" y2="336.35"/><line x1="160.01" y1="410.72" x2="96.01" y2="438.42"/><line x1="387.31" y1="335.40" x2="410.83" y2="351.99"/><line x1="412.81" y1="72.73" x2="350.08" y2="99.87"/><line x1="74.88" y1="437.10" x2="32.00" y2="479.98"/><line x1="124.73" y1="173.30" x2="103.08" y2="160.01"/><line x1="396.63" y1="288.00" x2="410.83" y2="351.99"/><line x1="388.12" y1="406.27" x2="335.70" y2="386.19"/><line x1="408.94" y1="160.01" x2="404.78" y2="121.45"/><line x1="115.39" y1="288.00" x2="133.65" y2="282.02"/><line x1="395.99" y1="224.00" x2="385.78" y2="172.34"/><line x1="32.00" y1="479.98" x2="73.37" y2="415.99"/><line x1="99.17" y1="72.73" x2="161.90" y2="99.87"/><line x1="475.55" y1="32.02" x2="412.81" y2="72.73"/></g></svg>