<svg xmlns="http://www.w3.org/2000/svg" width="512" height="512"><rect width="512" height="512" fill="#0a0f1a"/><text x="12" y="20" font-family="monospace" font-size="11" fill="#4a7fa5">FRONT (XZ)</text><g stroke="#00d4ff" stroke-width="0.6" opacity="0.85"><line x1="130.55" y1="460.67" x2="223.94" y2="437.38"/><line x1="223.94" y1="437.38" x2="307.26" y2="387.55"/><line x1="459.01" y1="141.04" x2="467.46" y2="141.57"/><line x1="222.11" y1="430.70" x2="303.70" y2="382.47"/><line x1="131.12" y1="468.53" x2="32.08" y2="479.42"/><line x1="372.36" y1="317.27" x2="377.82" y2="320.58"/><line x1="377.82" y1="320.58" x2="432.31" y2="238.07"/><line x1="32.00" y1="471.10" x2="130.55" y2="460.67"/><line x1="425.13" y1="236.37" x2="459.01" y2="141.04"/><line x1="467.46" y1="141.57" x2="471.06" y2="32.58"/><line x1="307.26" y1="387.55" x2="372.36" y2="317.27"/><line x1="223.94" y1="437.38" x2="222.11" y2="430.70"/><line x1="222.11" y1="430.70" x2="307.26" y2="387.55"/><line x1="471.06" y1="32.58" x2="480.00" y2="32.65"/><line x1="131.12" y1="468.53" x2="32.00" y2="471.10"/><line x1="377.82" y1="320.58" x2="425.13" y2="236.37"/><line x1="32.00" y1="471.10" x2="32.08" y2="479.42"/><line x1="131.12" y1="468.53" x2="223.94" y2="437.38"/><line x1="425.13" y1="236.37" x2="432.31" y2="238.07"/><line x1="432.31" y1="238.07" x2="467.46" y2="141.57"/><line x1="307.26" y1="387.55" x2="303.70" y2="382.47"/><line x1="130.55" y1="460.67" x2="222.11" y2="430.70"/><line x1="459.01" y1="141.04" x2="471.06" y2="32.58"/><line x1="131.12" y1="468.53" x2="130.55" y2="460.67"/><line x1="372.36" y1="317.27" x2="425.13" y2="236.37"/><line x1="432.31" y1="238.07" x2="459.01" y2="141.04"/><line x1="467.46" y1="141.57" x2="480.00" y2="32.65"/><line x1="307.26" y1="387.55" x2="377.82" y2="320.58"/><line x1="303.70" y1="382.47" x2="372.36" y2="317.27"/></g></svg>