<svg xmlns="http://www.w3.org/2000/svg" width="512" height="512"><rect width="512" height="512" fill="#0a0f1a"/><text x="12" y="20" font-family="monospace" font-size="11" fill="#4a7fa5">FRONT (XZ)</text><g stroke="#00d4ff" stroke-width="0.6" opacity="0.85"><line x1="356.43" y1="256.00" x2="64.99" y2="446.10"/><line x1="64.99" y1="65.90" x2="92.00" y2="98.17"/><line x1="420.00" y1="413.83" x2="447.01" y2="446.10"/><line x1="154.18" y1="289.09" x2="146.59" y2="320.82"/><line x1="378.66" y1="160.21" x2="365.41" y2="191.18"/><line x1="64.99" y1="446.10" x2="357.82" y2="289.09"/><line x1="64.99" y1="446.10" x2="477.52" y2="480.00"/><line x1="357.82" y1="289.09" x2="365.41" y2="320.82"/><line x1="64.99" y1="446.10" x2="397.05" y2="382.59"/><line x1="34.48" y1="32.00" x2="477.52" y2="32.00"/><line x1="154.18" y1="222.91" x2="155.57" y2="256.00"/><line x1="155.57" y1="256.00" x2="357.82" y2="222.91"/><line x1="447.01" y1="65.90" x2="133.34" y2="160.21"/><line x1="155.57" y1="256.00" x2="397.05" y2="129.41"/><line x1="146.59" y1="320.82" x2="133.34" y2="351.79"/><line x1="447.01" y1="65.90" x2="64.99" y2="65.90"/><line x1="447.01" y1="65.90" x2="155.57" y2="256.00"/><line x1="397.05" y1="382.59" x2="420.00" y2="413.83"/><line x1="447.01" y1="446.10" x2="477.52" y2="480.00"/><line x1="365.41" y1="191.18" x2="357.82" y2="222.91"/><line x1="356.43" y1="256.00" x2="146.59" y2="320.82"/><line x1="133.34" y1="351.79" x2="114.95" y2="382.59"/><line x1="356.43" y1="256.00" x2="92.00" y2="413.83"/><line x1="92.00" y1="98.17" x2="114.95" y2="129.41"/><line x1="114.95" y1="129.41" x2="133.34" y2="160.21"/><line x1="64.99" y1="446.10" x2="378.66" y2="351.79"/><line x1="64.99" y1="446.10" x2="447.01" y2="446.10"/><line x1="357.82" y1="222.91" x2="356.43" y2="256.00"/><line x1="365.41" y1="320.82" x2="378.66" y2="351.79"/><line x1="34.48" y1="32.00" x2="447.01" y2="65.90"/><line x1="155.57" y1="256.00" x2="420.00" y2="98.17"/><line x1="155.57" y1="256.00" x2="154.18" y2="289.09"/><line x1="447.01" y1="65.90" x2="477.52" y2="32.00"/><line x1="420.00" y1="98.17" x2="397.05" y2="129.41"/><line x1="155.57" y1="256.00" x2="365.41" y2="191.18"/><line x1="447.01" y1="65.90" x2="114.95" y2="129.41"/><line x1="114.95" y1="382.59" x2="92.00" y2="413.83"/><line x1="447.01" y1="65.90" x2="154.18" y2="222.91"/><line x1="477.52" y1="480.00" x2="34.48" y2="480.00"/><line x1="133.34" y1="160.21" x2="146.59" y2="191.18"/><line x1="356.43" y1="256.00" x2="154.18" y2="289.09"/><line x1="378.66" y1="351.79" x2="397.05" y2="382.59"/><line x1="356.43" y1="256.00" x2="114.95" y2="382.59"/><line x1="356.43" y1="256.00" x2="357.82" y2="289.09"/><line x1="64.99" y1="446.10" x2="365.41" y2="320.82"/><line x1="92.00" y1="413.83" x2="64.99" y2="446.10"/><line x1="64.99" y1="446.10" x2="420.00" y2="413.83"/><line x1="64.99" y1="446.10" x2="34.48" y2="480.00"/><line x1="34.48" y1="32.00" x2="64.99" y2="65.90"/><line x1="155.57" y1="256.00" x2="378.66" y2="160.21"/><line x1="447.01" y1="65.90" x2="92.00" y2="98.17"/><line x1="155.57" y1="256.00" x2="356.43" y2="256.00"/><line x1="397.05" y1="129.41" x2="378.66" y2="160.21"/><line x1="447.01" y1="65.90" x2="146.59" y2="191.18"/><line x1="447.01" y1="65.90" x2="420.00" y2="98.17"/><line x1="356.43" y1="256.00" x2="133.34" y2="351.79"/><line x1="146.59" y1="191.18" x2="154.18" y2="222.91"/></g></svg>