<svg xmlns="http://www.w3.org/2000/svg" width="512" height="512"><rect width="512" height="512" fill="#0a0f1a"/><text x="12" y="20" font-family="monospace" font-size="11" fill="#4a7fa5">FRONT (XZ)</text><g stroke="#00d4ff" stroke-width="0.6" opacity="0.85"><line x1="237.05" y1="284.25" x2="236.95" y2="275.24"/><line x1="412.92" y1="338.80" x2="414.89" y2="333.17"/><line x1="229.65" y1="173.67" x2="219.74" y2="182.81"/><line x1="226.69" y1="351.55" x2="224.41" y2="320.51"/><line x1="414.89" y1="333.17" x2="416.42" y2="327.10"/><line x1="257.06" y1="189.11" x2="227.75" y2="206.68"/><line x1="328.74" y1="194.65" x2="324.12" y2="174.00"/><line x1="226.03" y1="200.05" x2="224.12" y2="193.86"/><line x1="224.41" y1="320.51" x2="235.17" y2="352.31"/><line x1="306.62" y1="314.51" x2="333.16" y2="312.93"/><line x1="228.27" y1="318.25" x2="264.93" y2="332.49"/><line x1="324.12" y1="174.00" x2="321.59" y2="194.02"/><line x1="333.16" y1="312.93" x2="315.06" y2="324.27"/><line x1="377.03" y1="202.69" x2="367.27" y2="193.67"/><line x1="418.39" y1="306.34" x2="384.25" y2="298.32"/><line x1="224.12" y1="193.86" x2="222.02" y2="188.12"/><line x1="103.83" y1="237.78" x2="125.41" y2="238.70"/><line x1="264.93" y1="332.49" x2="231.43" y2="314.47"/><line x1="384.25" y1="298.32" x2="417.74" y2="291.50"/><line x1="231.43" y1="314.47" x2="268.65" y2="321.35"/><line x1="341.32" y1="348.78" x2="349.54" y2="354.52"/><line x1="299.27" y1="198.27" x2="289.66" y2="176.11"/><line x1="349.54" y1="354.52" x2="361.96" y2="332.36"/><line x1="152.04" y1="271.98" x2="143.90" y2="292.35"/><line x1="407.94" y1="250.10" x2="378.19" y2="253.56"/><line x1="237.05" y1="284.25" x2="269.58" y2="226.60"/><line x1="372.88" y1="329.58" x2="388.69" y2="363.42"/><line x1="272.54" y1="211.03" x2="257.06" y2="189.11"/><line x1="186.99" y1="305.71" x2="194.65" y2="311.31"/><line x1="365.68" y1="224.94" x2="360.23" y2="216.74"/><line x1="226.03" y1="200.05" x2="248.32" y2="178.49"/><line x1="270.62" y1="257.57" x2="288.17" y2="254.66"/><line x1="248.32" y1="178.49" x2="243.20" y2="176.24"/><line x1="480.00" y1="32.02" x2="447.51" y2="32.02"/><line x1="224.12" y1="193.86" x2="236.98" y2="174.64"/><line x1="208.35" y1="345.48" x2="219.84" y2="321.27"/><line x1="342.18" y1="199.70" x2="335.60" y2="196.54"/><line x1="133.33" y1="279.84" x2="152.04" y2="271.98"/><line x1="346.51" y1="180.56" x2="335.52" y2="176.46"/><line x1="380.84" y1="264.05" x2="407.94" y2="250.10"/><line x1="221.22" y1="173.34" x2="214.62" y2="173.52"/><line x1="236.69" y1="294.07" x2="237.05" y2="284.25"/><line x1="382.43" y1="314.99" x2="418.17" y2="313.69"/><line x1="265.47" y1="184.88" x2="272.54" y2="211.03"/><line x1="244.84" y1="351.07" x2="253.03" y2="347.36"/><line x1="379.04" y1="364.73" x2="372.88" y2="329.58"/><line x1="312.30" y1="173.18" x2="304.93" y2="173.51"/><line x1="276.99" y1="270.05" x2="283.79" y2="281.98"/><line x1="178.78" y1="298.86" x2="186.99" y2="305.71"/><line x1="323.90" y1="333.47" x2="332.78" y2="341.76"/><line x1="372.88" y1="329.58" x2="384.01" y2="364.40"/><line x1="314.64" y1="194.49" x2="307.20" y2="195.91"/><line x1="386.38" y1="213.35" x2="365.68" y2="224.94"/><line x1="186.99" y1="305.71" x2="177.38" y2="324.98"/><line x1="380.16" y1="321.25" x2="382.43" y2="314.99"/><line x1="344.56" y1="323.73" x2="354.16" y2="330.20"/><line x1="365.68" y1="224.94" x2="377.03" y2="202.69"/><line x1="252.34" y1="181.39" x2="248.32" y2="178.49"/><line x1="415.78" y1="277.18" x2="412.51" y2="263.38"/><line x1="400.95" y1="356.59" x2="404.46" y2="353.01"/><line x1="248.32" y1="178.49" x2="224.12" y2="193.86"/><line x1="480.00" y1="32.02" x2="480.00" y2="64.50"/><line x1="270.89" y1="307.72" x2="271.63" y2="291.62"/><line x1="208.35" y1="318.78" x2="208.35" y2="345.48"/><line x1="404.46" y1="353.01" x2="407.67" y2="348.78"/><line x1="357.09" y1="186.30" x2="342.18" y2="199.70"/><line x1="480.00" y1="479.91" x2="480.00" y2="447.42"/><line x1="208.35" y1="345.48" x2="214.37" y2="320.65"/><line x1="342.18" y1="199.70" x2="346.51" y2="180.56"/><line x1="219.74" y1="182.81" x2="221.22" y2="173.34"/><line x1="283.79" y1="281.98" x2="290.99" y2="293.38"/><line x1="416.42" y1="327.10" x2="382.43" y2="314.99"/><line x1="221.22" y1="173.34" x2="217.27" y2="177.94"/><line x1="447.51" y1="479.91" x2="480.00" y2="447.42"/><line x1="382.43" y1="314.99" x2="417.52" y2="320.62"/><line x1="125.41" y1="238.70" x2="134.24" y2="250.47"/><line x1="288.17" y1="254.66" x2="304.97" y2="278.40"/><line x1="244.84" y1="351.07" x2="228.27" y2="318.25"/><line x1="367.27" y1="193.67" x2="357.09" y2="186.30"/><line x1="312.30" y1="173.18" x2="314.64" y2="194.49"/><line x1="113.30" y1="252.55" x2="123.13" y2="266.57"/><line x1="268.65" y1="321.35" x2="270.89" y2="307.72"/><line x1="323.90" y1="333.47" x2="344.56" y2="323.73"/><line x1="383.88" y1="286.43" x2="382.74" y2="275.00"/><line x1="262.64" y1="217.17" x2="229.29" y2="213.76"/><line x1="233.89" y1="309.18" x2="235.64" y2="302.39"/><line x1="380.16" y1="321.25" x2="416.42" y2="327.10"/><line x1="290.85" y1="201.58" x2="273.71" y2="181.31"/><line x1="143.90" y1="292.35" x2="154.83" y2="304.11"/><line x1="161.00" y1="281.72" x2="170.01" y2="290.77"/><line x1="271.63" y1="291.62" x2="270.62" y2="257.57"/><line x1="402.06" y1="237.33" x2="394.88" y2="225.08"/><line x1="480.00" y1="479.91" x2="447.51" y2="479.91"/><line x1="374.78" y1="243.55" x2="370.61" y2="234.01"/><line x1="235.17" y1="352.31" x2="244.84" y2="351.07"/><line x1="321.59" y1="194.02" x2="312.30" y2="173.18"/><line x1="194.65" y1="311.31" x2="201.78" y2="315.67"/><line x1="315.06" y1="324.27" x2="323.90" y2="333.47"/><line x1="360.23" y1="216.74" x2="354.50" y2="209.80"/><line x1="125.41" y1="238.70" x2="113.30" y2="252.55"/><line x1="269.58" y1="226.60" x2="270.62" y2="257.57"/><line x1="367.27" y1="193.67" x2="348.48" y2="204.12"/><line x1="417.74" y1="291.50" x2="383.88" y2="286.43"/><line x1="219.84" y1="321.27" x2="224.41" y2="320.51"/><line x1="276.99" y1="270.05" x2="304.97" y2="278.40"/><line x1="268.65" y1="321.35" x2="233.89" y2="309.18"/><line x1="410.52" y1="344.00" x2="412.92" y2="338.80"/><line x1="383.88" y1="286.43" x2="415.78" y2="277.18"/><line x1="236.98" y1="174.64" x2="229.65" y2="173.67"/><line x1="262.64" y1="217.17" x2="257.06" y2="189.11"/><line x1="319.97" y1="297.83" x2="333.16" y2="312.93"/><line x1="233.89" y1="309.18" x2="270.89" y2="307.72"/><line x1="380.16" y1="321.25" x2="414.89" y2="333.17"/><line x1="361.96" y1="332.36" x2="357.41" y2="358.99"/><line x1="290.85" y1="201.58" x2="281.77" y2="178.38"/><line x1="94.72" y1="222.25" x2="103.83" y2="237.78"/><line x1="143.90" y1="292.35" x2="161.00" y2="281.72"/><line x1="357.41" y1="358.99" x2="364.96" y2="362.17"/><line x1="335.52" y1="176.46" x2="324.12" y2="174.00"/><line x1="378.19" y1="253.56" x2="402.06" y2="237.33"/><line x1="116.62" y1="226.24" x2="125.41" y2="238.70"/><line x1="161.00" y1="281.72" x2="154.83" y2="304.11"/><line x1="376.97" y1="326.11" x2="410.52" y2="344.00"/><line x1="269.58" y1="226.60" x2="236.95" y2="275.24"/><line x1="269.58" y1="226.60" x2="262.64" y2="217.17"/><line x1="402.06" y1="237.33" x2="374.78" y2="243.55"/><line x1="236.95" y1="275.24" x2="236.65" y2="266.56"/><line x1="384.01" y1="364.40" x2="388.69" y2="363.42"/><line x1="229.29" y1="213.76" x2="227.75" y2="206.68"/><line x1="177.38" y1="324.98" x2="194.65" y2="311.31"/><line x1="354.16" y1="330.20" x2="361.96" y2="332.36"/><line x1="388.69" y1="363.42" x2="393.07" y2="361.79"/><line x1="194.65" y1="311.31" x2="188.16" y2="333.33"/><line x1="289.66" y1="176.11" x2="290.85" y2="201.58"/><line x1="360.23" y1="216.74" x2="367.27" y2="193.67"/><line x1="271.63" y1="291.62" x2="269.58" y2="226.60"/><line x1="367.87" y1="331.66" x2="372.88" y2="329.58"/><line x1="288.17" y1="254.66" x2="276.99" y2="270.05"/><line x1="269.58" y1="226.60" x2="234.56" y2="242.51"/><line x1="243.20" y1="176.24" x2="236.98" y2="174.64"/><line x1="219.84" y1="321.27" x2="226.69" y2="351.55"/><line x1="290.99" y1="293.38" x2="298.60" y2="304.22"/><line x1="410.52" y1="344.00" x2="380.16" y2="321.25"/><line x1="335.60" y1="196.54" x2="328.74" y2="194.65"/><line x1="166.13" y1="315.11" x2="177.38" y2="324.98"/><line x1="257.06" y1="189.11" x2="229.29" y2="213.76"/><line x1="319.97" y1="297.83" x2="306.62" y2="314.51"/><line x1="94.72" y1="222.25" x2="107.87" y2="213.11"/><line x1="228.27" y1="318.25" x2="259.73" y2="341.16"/><line x1="418.17" y1="313.69" x2="418.39" y2="306.34"/><line x1="377.03" y1="202.69" x2="360.23" y2="216.74"/><line x1="376.97" y1="326.11" x2="407.67" y2="348.78"/><line x1="304.93" y1="173.51" x2="297.38" y2="174.48"/><line x1="134.24" y1="250.47" x2="143.12" y2="261.56"/><line x1="304.97" y1="278.40" x2="319.97" y2="297.83"/><line x1="332.78" y1="341.76" x2="341.32" y2="348.78"/><line x1="123.13" y1="266.57" x2="133.33" y2="279.84"/><line x1="382.74" y1="275.00" x2="380.84" y2="264.05"/><line x1="480.00" y1="64.50" x2="447.51" y2="32.02"/><line x1="235.64" y1="302.39" x2="236.69" y2="294.07"/><line x1="273.71" y1="181.31" x2="265.47" y2="184.88"/><line x1="214.37" y1="320.65" x2="219.84" y2="321.27"/><line x1="367.87" y1="331.66" x2="379.04" y2="364.73"/><line x1="170.01" y1="290.77" x2="178.78" y2="298.86"/><line x1="290.99" y1="293.38" x2="319.97" y2="297.83"/><line x1="394.88" y1="225.08" x2="386.38" y2="213.35"/><line x1="335.60" y1="196.54" x2="335.52" y2="176.46"/><line x1="233.45" y1="235.15" x2="232.16" y2="228.12"/><line x1="226.03" y1="200.05" x2="252.34" y2="181.39"/><line x1="228.27" y1="318.25" x2="253.03" y2="347.36"/><line x1="224.12" y1="193.86" x2="243.20" y2="176.24"/><line x1="304.93" y1="173.51" x2="307.20" y2="195.91"/><line x1="407.67" y1="348.78" x2="410.52" y2="344.00"/><line x1="134.24" y1="250.47" x2="123.13" y2="266.57"/><line x1="372.88" y1="329.58" x2="376.97" y2="326.11"/><line x1="304.97" y1="278.40" x2="290.99" y2="293.38"/><line x1="348.48" y1="204.12" x2="342.18" y2="199.70"/><line x1="346.51" y1="180.56" x2="335.60" y2="196.54"/><line x1="257.06" y1="189.11" x2="255.25" y2="184.92"/><line x1="382.74" y1="275.00" x2="412.51" y2="263.38"/><line x1="224.41" y1="320.51" x2="228.27" y2="318.25"/><line x1="154.83" y1="304.11" x2="166.13" y2="315.11"/><line x1="217.27" y1="177.94" x2="214.62" y2="173.52"/><line x1="273.71" y1="181.31" x2="281.94" y2="205.83"/><line x1="417.52" y1="320.62" x2="418.17" y2="313.69"/><line x1="333.16" y1="312.93" x2="344.56" y2="323.73"/><line x1="367.87" y1="331.66" x2="372.17" y2="364.08"/><line x1="314.64" y1="194.49" x2="304.93" y2="173.51"/><line x1="394.88" y1="225.08" x2="370.61" y2="234.01"/><line x1="344.56" y1="323.73" x2="332.78" y2="341.76"/><line x1="32.16" y1="32.09" x2="32.16" y2="64.58"/><line x1="397.16" y1="359.52" x2="400.95" y2="356.59"/><line x1="226.03" y1="200.05" x2="255.25" y2="184.92"/><line x1="415.78" y1="277.18" x2="382.74" y2="275.00"/><line x1="201.78" y1="315.67" x2="208.35" y2="318.78"/><line x1="270.89" y1="307.72" x2="235.64" y2="302.39"/><line x1="364.96" y1="362.17" x2="372.17" y2="364.08"/><line x1="281.77" y1="178.38" x2="273.71" y2="181.31"/><line x1="262.64" y1="217.17" x2="232.16" y2="228.12"/><line x1="222.02" y1="188.12" x2="219.74" y2="182.81"/><line x1="372.88" y1="329.58" x2="397.16" y2="359.52"/><line x1="226.69" y1="351.55" x2="235.17" y2="352.31"/><line x1="328.74" y1="194.65" x2="321.59" y2="194.02"/><line x1="154.83" y1="304.11" x2="170.01" y2="290.77"/><line x1="306.62" y1="314.51" x2="315.06" y2="324.27"/><line x1="188.16" y1="333.33" x2="198.49" y2="340.17"/><line x1="418.39" y1="306.34" x2="417.74" y2="291.50"/><line x1="113.30" y1="252.55" x2="134.24" y2="250.47"/><line x1="264.93" y1="332.49" x2="268.65" y2="321.35"/><line x1="32.00" y1="479.98" x2="64.49" y2="479.98"/><line x1="297.38" y1="174.48" x2="289.66" y2="176.11"/><line x1="364.96" y1="362.17" x2="367.87" y2="331.66"/><line x1="374.78" y1="243.55" x2="394.88" y2="225.08"/><line x1="372.88" y1="329.58" x2="393.07" y2="361.79"/><line x1="236.65" y1="266.56" x2="236.15" y2="258.21"/><line x1="227.75" y1="206.68" x2="226.03" y2="200.05"/><line x1="393.07" y1="361.79" x2="397.16" y2="359.52"/><line x1="270.62" y1="257.57" x2="276.99" y2="270.05"/><line x1="188.16" y1="333.33" x2="201.78" y2="315.67"/><line x1="367.27" y1="193.67" x2="354.50" y2="209.80"/><line x1="208.35" y1="345.48" x2="217.75" y2="349.27"/><line x1="236.98" y1="174.64" x2="222.02" y2="188.12"/><line x1="32.00" y1="479.98" x2="32.00" y2="447.50"/><line x1="262.64" y1="217.17" x2="272.54" y2="211.03"/><line x1="297.38" y1="174.48" x2="299.27" y2="198.27"/><line x1="380.16" y1="321.25" x2="412.92" y2="338.80"/><line x1="133.33" y1="279.84" x2="143.90" y2="292.35"/><line x1="380.84" y1="264.05" x2="378.19" y2="253.56"/><line x1="217.75" y1="349.27" x2="226.69" y2="351.55"/><line x1="335.52" y1="176.46" x2="328.74" y2="194.65"/><line x1="382.43" y1="314.99" x2="383.80" y2="307.35"/><line x1="116.62" y1="226.24" x2="103.83" y2="237.78"/><line x1="265.47" y1="184.88" x2="257.06" y2="189.11"/><line x1="298.60" y1="304.22" x2="306.62" y2="314.51"/><line x1="383.80" y1="307.35" x2="384.25" y2="298.32"/><line x1="379.04" y1="364.73" x2="384.01" y2="364.40"/><line x1="307.20" y1="195.91" x2="299.27" y2="198.27"/><line x1="386.38" y1="213.35" x2="377.03" y2="202.69"/><line x1="354.16" y1="330.20" x2="349.54" y2="354.52"/><line x1="234.56" y1="242.51" x2="233.45" y2="235.15"/><line x1="143.12" y1="261.56" x2="152.04" y2="271.98"/><line x1="412.51" y1="263.38" x2="407.94" y2="250.10"/><line x1="271.63" y1="291.62" x2="237.05" y2="284.25"/><line x1="269.58" y1="226.60" x2="235.45" y2="250.19"/><line x1="208.35" y1="318.78" x2="214.37" y2="320.65"/><line x1="281.94" y1="205.83" x2="272.54" y2="211.03"/><line x1="357.09" y1="186.30" x2="346.51" y2="180.56"/><line x1="219.84" y1="321.27" x2="217.75" y2="349.27"/><line x1="166.13" y1="315.11" x2="186.99" y2="305.71"/><line x1="219.74" y1="182.81" x2="217.27" y2="177.94"/><line x1="319.97" y1="297.83" x2="298.60" y2="304.22"/><line x1="370.61" y1="234.01" x2="365.68" y2="224.94"/><line x1="416.42" y1="327.10" x2="417.52" y2="320.62"/><line x1="94.72" y1="222.25" x2="116.62" y2="226.24"/><line x1="418.17" y1="313.69" x2="383.80" y2="307.35"/><line x1="116.62" y1="226.24" x2="107.87" y2="213.11"/><line x1="253.03" y1="347.36" x2="259.73" y2="341.16"/><line x1="376.97" y1="326.11" x2="404.46" y2="353.01"/><line x1="383.80" y1="307.35" x2="418.39" y2="306.34"/><line x1="269.58" y1="226.60" x2="288.17" y2="254.66"/><line x1="259.73" y1="341.16" x2="264.93" y2="332.49"/><line x1="332.78" y1="341.76" x2="354.16" y2="330.20"/><line x1="307.20" y1="195.91" x2="297.38" y2="174.48"/><line x1="123.13" y1="266.57" x2="143.12" y2="261.56"/><line x1="354.16" y1="330.20" x2="341.32" y2="348.78"/><line x1="361.96" y1="332.36" x2="367.87" y2="331.66"/><line x1="143.12" y1="261.56" x2="133.33" y2="279.84"/><line x1="290.85" y1="201.58" x2="281.94" y2="205.83"/><line x1="235.64" y1="302.39" x2="271.63" y2="291.62"/><line x1="412.51" y1="263.38" x2="380.84" y2="264.05"/><line x1="271.63" y1="291.62" x2="236.69" y2="294.07"/><line x1="269.58" y1="226.60" x2="236.15" y2="258.21"/><line x1="281.94" y1="205.83" x2="265.47" y2="184.88"/><line x1="170.01" y1="290.77" x2="166.13" y2="315.11"/><line x1="372.17" y1="364.08" x2="379.04" y2="364.73"/><line x1="166.13" y1="315.11" x2="178.78" y2="298.86"/><line x1="370.61" y1="234.01" x2="386.38" y2="213.35"/><line x1="321.59" y1="194.02" x2="314.64" y2="194.49"/><line x1="235.45" y1="250.19" x2="234.56" y2="242.51"/><line x1="255.25" y1="184.92" x2="252.34" y2="181.39"/><line x1="64.64" y1="32.09" x2="32.16" y2="64.58"/><line x1="198.49" y1="340.17" x2="208.35" y2="345.48"/><line x1="376.97" y1="326.11" x2="400.95" y2="356.59"/><line x1="269.58" y1="226.60" x2="233.45" y2="235.15"/><line x1="417.74" y1="291.50" x2="415.78" y2="277.18"/><line x1="304.97" y1="278.40" x2="283.79" y2="281.98"/><line x1="348.48" y1="204.12" x2="357.09" y2="186.30"/><line x1="229.65" y1="173.67" x2="221.22" y2="173.34"/><line x1="257.06" y1="189.11" x2="226.03" y2="200.05"/><line x1="361.96" y1="332.36" x2="364.96" y2="362.17"/><line x1="232.16" y1="228.12" x2="229.29" y2="213.76"/><line x1="224.41" y1="320.51" x2="244.84" y2="351.07"/><line x1="228.27" y1="318.25" x2="231.43" y2="314.47"/><line x1="324.12" y1="174.00" x2="312.30" y2="173.18"/><line x1="378.19" y1="253.56" x2="374.78" y2="243.55"/><line x1="333.16" y1="312.93" x2="323.90" y2="333.47"/><line x1="376.97" y1="326.11" x2="380.16" y2="321.25"/><line x1="269.58" y1="226.60" x2="236.65" y2="266.56"/><line x1="103.83" y1="237.78" x2="113.30" y2="252.55"/><line x1="236.15" y1="258.21" x2="235.45" y2="250.19"/><line x1="384.25" y1="298.32" x2="383.88" y2="286.43"/><line x1="32.16" y1="32.09" x2="64.64" y2="32.09"/><line x1="231.43" y1="314.47" x2="233.89" y2="309.18"/><line x1="397.16" y1="359.52" x2="376.97" y2="326.11"/><line x1="177.38" y1="324.98" x2="188.16" y2="333.33"/><line x1="299.27" y1="198.27" x2="290.85" y2="201.58"/><line x1="233.45" y1="235.15" x2="262.64" y2="217.17"/><line x1="201.78" y1="315.67" x2="198.49" y2="340.17"/><line x1="349.54" y1="354.52" x2="357.41" y2="358.99"/><line x1="289.66" y1="176.11" x2="281.77" y2="178.38"/><line x1="354.50" y1="209.80" x2="348.48" y2="204.12"/><line x1="152.04" y1="271.98" x2="161.00" y2="281.72"/><line x1="198.49" y1="340.17" x2="208.35" y2="318.78"/><line x1="407.94" y1="250.10" x2="402.06" y2="237.33"/><line x1="222.02" y1="188.12" x2="229.65" y2="173.67"/><line x1="32.00" y1="447.50" x2="64.49" y2="479.98"/></g></svg>