<svg xmlns="http://www.w3.org/2000/svg" width="512" height="512"><rect width="512" height="512" fill="#0a0f1a"/><text x="12" y="20" font-family="monospace" font-size="11" fill="#4a7fa5">FRONT (XZ)</text><g stroke="#00d4ff" stroke-width="0.6" opacity="0.85"><line x1="290.13" y1="434.31" x2="285.72" y2="454.50"/><line x1="345.59" y1="472.47" x2="344.89" y2="452.51"/><line x1="395.28" y1="405.91" x2="392.23" y2="401.69"/><line x1="404.50" y1="314.31" x2="405.69" y2="309.39"/><line x1="236.61" y1="368.97" x2="237.89" y2="377.88"/><line x1="392.23" y1="401.69" x2="388.62" y2="397.64"/><line x1="379.45" y1="341.15" x2="383.75" y2="339.37"/><line x1="366.74" y1="428.18" x2="365.56" y2="420.84"/><line x1="328.01" y1="304.90" x2="317.90" y2="324.77"/><line x1="293.87" y1="173.18" x2="294.01" y2="192.28"/><line x1="237.89" y1="377.88" x2="270.51" y2="375.71"/><line x1="354.55" y1="448.51" x2="365.44" y2="470.29"/><line x1="317.90" y1="324.77" x2="334.81" y2="309.15"/><line x1="350.41" y1="193.33" x2="339.63" y2="186.08"/><line x1="365.44" y1="470.29" x2="357.34" y2="446.58"/><line x1="372.59" y1="384.69" x2="365.30" y2="379.87"/><line x1="370.28" y1="279.66" x2="403.75" y2="272.66"/><line x1="132.47" y1="225.48" x2="131.90" y2="249.85"/><line x1="274.43" y1="399.59" x2="247.20" y2="410.45"/><line x1="365.30" y1="379.87" x2="347.77" y2="396.90"/><line x1="268.07" y1="177.18" x2="272.76" y2="199.41"/><line x1="247.20" y1="410.45" x2="250.08" y2="415.97"/><line x1="381.81" y1="463.74" x2="363.67" y2="439.65"/><line x1="352.31" y1="314.62" x2="350.29" y2="341.37"/><line x1="363.67" y1="439.65" x2="386.50" y2="460.59"/><line x1="370.36" y1="296.28" x2="370.73" y2="289.65"/><line x1="388.56" y1="235.81" x2="359.44" y2="241.30"/><line x1="193.37" y1="276.44" x2="186.15" y2="295.08"/><line x1="246.25" y1="181.05" x2="245.10" y2="177.16"/><line x1="290.13" y1="434.31" x2="275.49" y2="446.59"/><line x1="274.43" y1="399.59" x2="280.97" y2="419.12"/><line x1="399.33" y1="444.72" x2="400.93" y2="440.05"/><line x1="374.88" y1="342.42" x2="379.45" y2="341.15"/><line x1="342.21" y1="214.80" x2="335.71" y2="207.77"/><line x1="245.10" y1="177.16" x2="243.84" y2="173.75"/><line x1="288.43" y1="267.00" x2="278.42" y2="286.29"/><line x1="366.74" y1="428.18" x2="399.72" y2="414.92"/><line x1="212.23" y1="179.21" x2="239.27" y2="166.47"/><line x1="319.91" y1="469.59" x2="332.46" y2="471.75"/><line x1="337.10" y1="388.29" x2="324.06" y2="379.36"/><line x1="215.83" y1="194.25" x2="247.27" y2="185.43"/><line x1="367.35" y1="306.47" x2="400.69" y2="323.26"/><line x1="480.00" y1="32.02" x2="447.51" y2="32.02"/><line x1="350.41" y1="193.33" x2="335.71" y2="207.77"/><line x1="315.51" y1="194.36" x2="308.54" y2="192.44"/><line x1="234.53" y1="348.43" x2="269.19" y2="347.49"/><line x1="369.23" y1="301.88" x2="370.36" y2="296.28"/><line x1="232.22" y1="162.74" x2="228.37" y2="161.69"/><line x1="253.13" y1="215.09" x2="267.52" y2="325.18"/><line x1="399.72" y1="414.92" x2="397.77" y2="410.32"/><line x1="267.52" y1="325.18" x2="308.65" y2="370.11"/><line x1="312.98" y1="292.75" x2="320.73" y2="299.43"/><line x1="317.27" y1="176.41" x2="305.70" y2="173.99"/><line x1="176.13" y1="263.81" x2="193.37" y2="276.44"/><line x1="348.32" y1="451.48" x2="351.54" y2="450.14"/><line x1="300.56" y1="310.60" x2="309.15" y2="318.03"/><line x1="324.06" y1="379.36" x2="308.65" y2="370.11"/><line x1="406.41" y1="304.17" x2="406.65" y2="298.65"/><line x1="212.23" y1="179.21" x2="246.25" y2="181.05"/><line x1="265.84" y1="437.25" x2="290.13" y2="434.31"/><line x1="212.23" y1="179.21" x2="228.37" y2="161.69"/><line x1="362.00" y1="413.18" x2="378.91" y2="389.25"/><line x1="370.36" y1="296.28" x2="405.92" y2="285.51"/><line x1="370.03" y1="343.19" x2="374.88" y2="342.42"/><line x1="287.62" y1="173.43" x2="281.24" y2="174.18"/><line x1="397.08" y1="449.12" x2="399.33" y2="444.72"/><line x1="326.39" y1="330.47" x2="334.62" y2="335.14"/><line x1="286.75" y1="193.71" x2="279.67" y2="196.08"/><line x1="360.93" y1="202.20" x2="342.21" y2="214.80"/><line x1="253.13" y1="215.09" x2="229.73" y2="284.27"/><line x1="371.28" y1="468.59" x2="376.74" y2="466.41"/><line x1="274.43" y1="399.59" x2="257.11" y2="426.77"/><line x1="399.33" y1="444.72" x2="366.55" y2="431.29"/><line x1="341.12" y1="312.19" x2="346.95" y2="314.01"/><line x1="266.65" y1="268.40" x2="288.43" y2="267.00"/><line x1="400.13" y1="260.09" x2="395.07" y2="247.81"/><line x1="342.21" y1="214.80" x2="350.41" y2="193.33"/><line x1="229.73" y1="284.27" x2="226.32" y2="257.28"/><line x1="359.83" y1="444.43" x2="361.95" y2="442.12"/><line x1="316.32" y1="451.68" x2="319.91" y2="469.59"/><line x1="288.43" y1="267.00" x2="272.23" y2="277.51"/><line x1="368.93" y1="269.83" x2="366.66" y2="260.16"/><line x1="394.99" y1="330.98" x2="367.35" y2="306.47"/><line x1="235.27" y1="163.85" x2="232.22" y2="162.74"/><line x1="365.02" y1="437.02" x2="365.97" y2="434.23"/><line x1="212.23" y1="179.21" x2="240.92" y2="168.41"/><line x1="319.91" y1="469.59" x2="333.32" y2="453.84"/><line x1="337.10" y1="388.29" x2="337.57" y2="363.94"/><line x1="401.93" y1="424.68" x2="401.10" y2="419.71"/><line x1="367.35" y1="306.47" x2="398.08" y2="327.27"/><line x1="266.04" y1="203.68" x2="259.49" y2="208.91"/><line x1="480.00" y1="32.02" x2="480.00" y2="64.50"/><line x1="257.11" y1="426.77" x2="261.26" y2="432.05"/><line x1="233.72" y1="336.80" x2="234.53" y2="348.43"/><line x1="401.10" y1="419.71" x2="399.72" y2="414.92"/><line x1="357.20" y1="314.11" x2="361.34" y2="312.59"/><line x1="292.58" y1="302.83" x2="312.98" y2="292.75"/><line x1="480.00" y1="479.91" x2="480.00" y2="447.42"/><line x1="315.51" y1="194.36" x2="317.27" y2="176.41"/><line x1="253.13" y1="215.09" x2="215.83" y2="194.25"/><line x1="344.89" y1="452.51" x2="348.32" y2="451.48"/><line x1="312.98" y1="292.75" x2="300.56" y2="310.60"/><line x1="405.69" y1="309.39" x2="406.41" y2="304.17"/><line x1="301.92" y1="445.16" x2="316.32" y2="451.68"/><line x1="270.51" y1="375.71" x2="240.93" y2="392.97"/><line x1="348.32" y1="451.48" x2="352.59" y2="472.22"/><line x1="388.62" y1="397.64" x2="362.00" y2="413.18"/><line x1="406.41" y1="304.17" x2="370.36" y2="296.28"/><line x1="447.51" y1="479.91" x2="480.00" y2="447.42"/><line x1="212.23" y1="179.21" x2="232.22" y2="162.74"/><line x1="362.00" y1="413.18" x2="384.25" y2="393.57"/><line x1="131.90" y1="249.85" x2="147.84" y2="264.57"/><line x1="287.62" y1="173.43" x2="286.75" y2="193.71"/><line x1="332.46" y1="471.75" x2="345.59" y2="472.47"/><line x1="239.33" y1="385.88" x2="240.93" y2="392.97"/><line x1="326.39" y1="330.47" x2="341.12" y2="312.19"/><line x1="145.68" y1="238.34" x2="160.23" y2="251.11"/><line x1="371.28" y1="468.59" x2="359.83" y2="444.43"/><line x1="253.13" y1="215.09" x2="247.27" y2="185.43"/><line x1="357.02" y1="374.81" x2="347.78" y2="369.50"/><line x1="400.13" y1="260.09" x2="368.93" y2="269.83"/><line x1="261.27" y1="179.43" x2="254.34" y2="182.18"/><line x1="357.73" y1="342.92" x2="364.91" y2="343.44"/><line x1="186.15" y1="295.08" x2="208.53" y2="310.88"/><line x1="365.02" y1="437.02" x2="394.19" y2="453.23"/><line x1="212.23" y1="179.21" x2="242.44" y2="170.84"/><line x1="380.60" y1="224.10" x2="371.19" y2="212.68"/><line x1="211.95" y1="288.99" x2="231.89" y2="301.46"/><line x1="405.92" y1="285.51" x2="403.75" y2="272.66"/><line x1="354.47" y1="232.12" x2="348.60" y2="223.09"/><line x1="480.00" y1="479.91" x2="447.51" y2="479.91"/><line x1="285.72" y1="454.50" x2="296.54" y2="460.97"/><line x1="364.72" y1="310.04" x2="387.77" y2="337.08"/><line x1="279.67" y1="196.08" x2="272.76" y2="199.41"/><line x1="215.83" y1="194.25" x2="212.23" y2="179.21"/><line x1="270.51" y1="375.71" x2="239.33" y2="385.88"/><line x1="334.81" y1="309.15" x2="326.39" y2="330.47"/><line x1="335.71" y1="207.77" x2="329.09" y2="202.02"/><line x1="247.27" y1="185.43" x2="266.04" y2="203.68"/><line x1="401.89" y1="435.09" x2="402.21" y2="429.84"/><line x1="357.34" y1="446.58" x2="371.28" y2="468.59"/><line x1="278.42" y1="286.29" x2="285.20" y2="294.73"/><line x1="339.63" y1="186.08" x2="328.58" y2="180.43"/><line x1="131.90" y1="249.85" x2="145.68" y2="238.34"/><line x1="332.46" y1="471.75" x2="341.25" y2="453.25"/><line x1="361.34" y1="312.59" x2="364.72" y2="310.04"/><line x1="296.44" y1="276.13" x2="304.75" y2="284.85"/><line x1="347.77" y1="396.90" x2="357.02" y2="374.81"/><line x1="269.19" y1="347.49" x2="237.89" y2="377.88"/><line x1="223.71" y1="160.70" x2="218.25" y2="159.78"/><line x1="250.08" y1="415.97" x2="253.39" y2="421.41"/><line x1="365.56" y1="420.84" x2="395.28" y2="405.91"/><line x1="357.02" y1="374.81" x2="337.10" y2="388.29"/><line x1="402.84" y1="318.94" x2="404.50" y2="314.31"/><line x1="308.54" y1="192.44" x2="301.45" y2="191.80"/><line x1="261.27" y1="179.43" x2="266.04" y2="203.68"/><line x1="253.39" y1="421.41" x2="257.11" y2="426.77"/><line x1="270.51" y1="375.71" x2="274.43" y2="399.59"/><line x1="386.50" y1="460.59" x2="365.02" y2="437.02"/><line x1="357.73" y1="342.92" x2="357.20" y2="314.11"/><line x1="118.11" y1="235.50" x2="132.47" y2="225.48"/><line x1="305.70" y1="173.99" x2="293.87" y2="173.18"/><line x1="186.15" y1="295.08" x2="211.95" y2="288.99"/><line x1="247.27" y1="185.43" x2="246.25" y2="181.05"/><line x1="365.02" y1="437.02" x2="390.67" y2="457.05"/><line x1="309.15" y1="318.03" x2="317.90" y2="324.77"/><line x1="261.67" y1="258.95" x2="259.56" y2="226.31"/><line x1="380.60" y1="224.10" x2="354.47" y2="232.12"/><line x1="211.95" y1="288.99" x2="208.53" y2="310.88"/><line x1="359.21" y1="471.50" x2="365.44" y2="470.29"/><line x1="275.49" y1="446.59" x2="285.72" y2="454.50"/><line x1="356.07" y1="405.20" x2="347.77" y2="396.90"/><line x1="259.56" y1="226.31" x2="266.31" y2="237.10"/><line x1="405.92" y1="285.51" x2="370.28" y2="279.66"/><line x1="243.84" y1="173.75" x2="242.44" y2="170.84"/><line x1="285.72" y1="454.50" x2="301.92" y2="445.16"/><line x1="403.75" y1="272.66" x2="400.13" y2="260.09"/><line x1="366.55" y1="431.29" x2="400.93" y2="440.05"/><line x1="395.07" y1="247.81" x2="388.56" y2="235.81"/><line x1="364.72" y1="310.04" x2="383.75" y2="339.37"/><line x1="279.67" y1="196.08" x2="268.07" y2="177.18"/><line x1="233.06" y1="327.02" x2="233.72" y2="336.80"/><line x1="226.32" y1="257.28" x2="222.87" y2="233.28"/><line x1="333.32" y1="453.84" x2="337.40" y2="453.70"/><line x1="400.93" y1="440.05" x2="401.89" y2="435.09"/><line x1="272.76" y1="199.41" x2="261.27" y2="179.43"/><line x1="253.13" y1="215.09" x2="259.56" y2="226.31"/><line x1="165.92" y1="279.65" x2="186.15" y2="295.08"/><line x1="335.71" y1="207.77" x2="339.63" y2="186.08"/><line x1="280.97" y1="419.12" x2="290.13" y2="434.31"/><line x1="222.87" y1="233.28" x2="219.37" y2="212.27"/><line x1="350.29" y1="341.37" x2="357.73" y2="342.92"/><line x1="278.42" y1="286.29" x2="296.44" y2="276.13"/><line x1="261.67" y1="258.95" x2="266.65" y2="268.40"/><line x1="228.37" y1="161.69" x2="223.71" y2="160.70"/><line x1="332.46" y1="471.75" x2="337.40" y2="453.70"/><line x1="359.44" y1="241.30" x2="380.60" y2="224.10"/><line x1="361.34" y1="312.59" x2="379.45" y2="341.15"/><line x1="400.69" y1="323.26" x2="402.84" y2="318.94"/><line x1="231.89" y1="301.46" x2="229.73" y2="284.27"/><line x1="269.19" y1="347.49" x2="236.61" y2="368.97"/><line x1="365.97" y1="434.23" x2="366.55" y2="431.29"/><line x1="352.59" y1="472.22" x2="359.21" y2="471.50"/><line x1="365.56" y1="420.84" x2="397.77" y2="410.32"/><line x1="320.73" y1="299.43" x2="328.01" y2="304.90"/><line x1="308.54" y1="192.44" x2="305.70" y2="173.99"/><line x1="379.45" y1="341.15" x2="364.72" y2="310.04"/><line x1="351.54" y1="450.14" x2="354.55" y2="448.51"/><line x1="118.11" y1="235.50" x2="106.47" y2="221.49"/><line x1="378.91" y1="389.25" x2="372.59" y2="384.69"/><line x1="267.52" y1="325.18" x2="269.19" y2="347.49"/><line x1="281.24" y1="174.18" x2="274.72" y2="175.43"/><line x1="272.23" y1="277.51" x2="278.42" y2="286.29"/><line x1="334.62" y1="335.14" x2="342.59" y2="338.77"/><line x1="328.58" y1="180.43" x2="317.27" y2="176.41"/><line x1="147.84" y1="264.57" x2="165.92" y2="279.65"/><line x1="376.74" y1="466.41" x2="381.81" y2="463.74"/><line x1="395.07" y1="247.81" x2="363.51" y2="250.65"/><line x1="160.23" y1="251.11" x2="176.13" y2="263.81"/><line x1="333.32" y1="453.84" x2="332.46" y2="471.75"/><line x1="480.00" y1="64.50" x2="447.51" y2="32.02"/><line x1="280.97" y1="419.12" x2="265.84" y2="437.25"/><line x1="364.91" y1="343.44" x2="370.03" y2="343.19"/><line x1="394.19" y1="453.23" x2="397.08" y2="449.12"/><line x1="371.19" y1="212.68" x2="360.93" y2="202.20"/><line x1="231.89" y1="301.46" x2="253.13" y2="215.09"/><line x1="352.59" y1="472.22" x2="351.54" y2="450.14"/><line x1="320.73" y1="299.43" x2="309.15" y2="318.03"/><line x1="348.60" y1="223.09" x2="342.21" y2="214.80"/><line x1="366.74" y1="428.18" x2="401.10" y2="419.71"/><line x1="406.65" y1="298.65" x2="405.92" y2="285.51"/><line x1="240.93" y1="392.97" x2="242.68" y2="399.16"/><line x1="208.59" y1="167.16" x2="204.91" y2="158.11"/><line x1="281.24" y1="174.18" x2="279.67" y2="196.08"/><line x1="253.13" y1="215.09" x2="259.49" y2="208.91"/><line x1="398.08" y1="327.27" x2="400.69" y2="323.26"/><line x1="369.23" y1="301.88" x2="406.41" y2="304.17"/><line x1="334.62" y1="335.14" x2="346.95" y2="314.01"/><line x1="328.58" y1="180.43" x2="315.51" y2="194.36"/><line x1="399.72" y1="414.92" x2="365.56" y2="420.84"/><line x1="147.84" y1="264.57" x2="160.23" y2="251.11"/><line x1="345.59" y1="472.47" x2="352.59" y2="472.22"/><line x1="317.27" y1="176.41" x2="308.54" y2="192.44"/><line x1="304.75" y1="284.85" x2="312.98" y2="292.75"/><line x1="395.07" y1="247.81" x2="366.66" y2="260.16"/><line x1="300.56" y1="310.60" x2="320.73" y2="299.43"/><line x1="347.78" y1="369.50" x2="337.57" y2="363.94"/><line x1="208.53" y1="310.88" x2="233.06" y2="327.02"/><line x1="370.36" y1="296.28" x2="406.65" y2="298.65"/><line x1="364.91" y1="343.44" x2="361.34" y2="312.59"/><line x1="384.25" y1="393.57" x2="378.91" y2="389.25"/><line x1="394.19" y1="453.23" x2="365.97" y2="434.23"/><line x1="286.75" y1="193.71" x2="281.24" y2="174.18"/><line x1="370.28" y1="279.66" x2="368.93" y2="269.83"/><line x1="371.19" y1="212.68" x2="348.60" y2="223.09"/><line x1="274.43" y1="399.59" x2="253.39" y2="421.41"/><line x1="341.12" y1="312.19" x2="334.62" y2="335.14"/><line x1="273.37" y1="247.48" x2="280.75" y2="257.45"/><line x1="359.83" y1="444.43" x2="376.74" y2="466.41"/><line x1="32.16" y1="32.09" x2="32.16" y2="64.58"/><line x1="240.92" y1="168.41" x2="239.27" y2="166.47"/><line x1="269.19" y1="347.49" x2="308.65" y2="370.11"/><line x1="368.93" y1="269.83" x2="395.07" y2="247.81"/><line x1="366.74" y1="428.18" x2="401.93" y2="424.68"/><line x1="352.31" y1="314.62" x2="357.20" y2="314.11"/><line x1="387.77" y1="337.08" x2="391.51" y2="334.29"/><line x1="329.09" y1="202.02" x2="322.36" y2="197.55"/><line x1="337.10" y1="388.29" x2="347.78" y2="369.50"/><line x1="266.04" y1="203.68" x2="254.34" y2="182.18"/><line x1="285.20" y1="294.73" x2="292.58" y2="302.83"/><line x1="257.11" y1="426.77" x2="280.97" y2="419.12"/><line x1="208.59" y1="167.16" x2="211.98" y2="158.91"/><line x1="357.20" y1="314.11" x2="364.91" y2="343.44"/><line x1="341.25" y1="453.25" x2="344.89" y2="452.51"/><line x1="369.23" y1="301.88" x2="405.69" y2="309.39"/><line x1="253.13" y1="215.09" x2="219.37" y2="212.27"/><line x1="290.13" y1="434.31" x2="301.92" y2="445.16"/><line x1="267.52" y1="325.18" x2="337.57" y2="363.94"/><line x1="301.92" y1="445.16" x2="307.93" y2="466.00"/><line x1="301.45" y1="191.80" x2="294.01" y2="192.28"/><line x1="328.01" y1="304.90" x2="334.81" y2="309.15"/><line x1="212.23" y1="179.21" x2="235.27" y2="163.85"/><line x1="208.53" y1="310.88" x2="231.89" y2="301.46"/><line x1="354.55" y1="448.51" x2="357.34" y2="446.58"/><line x1="367.35" y1="306.47" x2="369.23" y2="301.88"/><line x1="145.68" y1="238.34" x2="147.84" y2="264.57"/><line x1="274.43" y1="399.59" x2="250.08" y2="415.97"/><line x1="32.00" y1="479.98" x2="64.49" y2="479.98"/><line x1="342.59" y1="338.77" x2="350.29" y2="341.37"/><line x1="381.81" y1="463.74" x2="386.50" y2="460.59"/><line x1="363.51" y1="250.65" x2="359.44" y2="241.30"/><line x1="212.23" y1="179.21" x2="243.84" y2="173.75"/><line x1="212.23" y1="179.21" x2="208.59" y2="167.16"/><line x1="390.67" y1="457.05" x2="394.19" y2="453.23"/><line x1="208.59" y1="167.16" x2="218.25" y2="159.78"/><line x1="354.47" y1="232.12" x2="371.19" y2="212.68"/><line x1="253.13" y1="215.09" x2="222.87" y2="233.28"/><line x1="266.31" y1="237.10" x2="273.37" y2="247.48"/><line x1="242.44" y1="170.84" x2="240.92" y2="168.41"/><line x1="301.92" y1="445.16" x2="296.54" y2="460.97"/><line x1="301.45" y1="191.80" x2="293.87" y2="173.18"/><line x1="383.75" y1="339.37" x2="387.77" y2="337.08"/><line x1="288.43" y1="267.00" x2="296.44" y2="276.13"/><line x1="401.89" y1="435.09" x2="366.74" y2="428.18"/><line x1="212.23" y1="179.21" x2="237.50" y2="165.03"/><line x1="339.63" y1="186.08" x2="329.09" y2="202.02"/><line x1="219.37" y1="212.27" x2="215.83" y2="194.25"/><line x1="367.35" y1="306.47" x2="402.84" y2="318.94"/><line x1="370.73" y1="289.65" x2="370.28" y2="279.66"/><line x1="296.44" y1="276.13" x2="285.20" y2="294.73"/><line x1="223.71" y1="160.70" x2="208.59" y2="167.16"/><line x1="337.40" y1="453.70" x2="341.25" y2="453.25"/><line x1="234.53" y1="348.43" x2="235.49" y2="359.16"/><line x1="274.72" y1="175.43" x2="268.07" y2="177.18"/><line x1="402.84" y1="318.94" x2="369.23" y2="301.88"/><line x1="267.52" y1="325.18" x2="261.67" y2="258.95"/><line x1="364.72" y1="310.04" x2="367.35" y2="306.47"/><line x1="32.00" y1="479.98" x2="32.00" y2="447.50"/><line x1="342.59" y1="338.77" x2="352.31" y2="314.62"/><line x1="397.77" y1="410.32" x2="395.28" y2="405.91"/><line x1="270.51" y1="375.71" x2="244.73" y2="404.85"/><line x1="305.70" y1="173.99" x2="301.45" y2="191.80"/><line x1="235.49" y1="359.16" x2="236.61" y2="368.97"/><line x1="363.51" y1="250.65" x2="388.56" y2="235.81"/><line x1="247.27" y1="185.43" x2="212.23" y2="179.21"/><line x1="212.23" y1="179.21" x2="245.10" y2="177.16"/><line x1="309.15" y1="318.03" x2="328.01" y2="304.90"/><line x1="265.84" y1="437.25" x2="275.49" y2="446.59"/><line x1="212.23" y1="179.21" x2="223.71" y2="160.70"/><line x1="362.00" y1="413.18" x2="356.07" y2="405.20"/><line x1="120.60" y1="212.55" x2="132.47" y2="225.48"/><line x1="359.21" y1="471.50" x2="354.55" y2="448.51"/><line x1="356.07" y1="405.20" x2="365.30" y2="379.87"/><line x1="405.92" y1="285.51" x2="370.73" y2="289.65"/><line x1="244.73" y1="404.85" x2="247.20" y2="410.45"/><line x1="360.93" y1="202.20" x2="350.41" y2="193.33"/><line x1="253.13" y1="215.09" x2="226.32" y2="257.28"/><line x1="365.56" y1="420.84" x2="362.00" y2="413.18"/><line x1="346.95" y1="314.01" x2="352.31" y2="314.62"/><line x1="279.67" y1="196.08" x2="274.72" y2="175.43"/><line x1="233.06" y1="327.02" x2="267.52" y2="325.18"/><line x1="266.65" y1="268.40" x2="272.23" y2="277.51"/><line x1="361.95" y1="442.12" x2="363.67" y2="439.65"/><line x1="316.32" y1="451.68" x2="333.32" y2="453.84"/><line x1="253.13" y1="215.09" x2="261.67" y2="258.95"/><line x1="165.92" y1="279.65" x2="193.37" y2="276.44"/><line x1="394.99" y1="330.98" x2="398.08" y2="327.27"/><line x1="337.57" y1="363.94" x2="308.65" y2="370.11"/><line x1="261.67" y1="258.95" x2="280.75" y2="257.45"/><line x1="361.34" y1="312.59" x2="374.88" y2="342.42"/><line x1="292.58" y1="302.83" x2="300.56" y2="310.60"/><line x1="269.19" y1="347.49" x2="235.49" y2="359.16"/><line x1="365.97" y1="434.23" x2="399.33" y2="444.72"/><line x1="364.72" y1="310.04" x2="394.99" y2="330.98"/><line x1="351.54" y1="450.14" x2="359.21" y2="471.50"/><line x1="280.75" y1="257.45" x2="288.43" y2="267.00"/><line x1="270.51" y1="375.71" x2="242.68" y2="399.16"/><line x1="388.62" y1="397.64" x2="384.25" y2="393.57"/><line x1="118.11" y1="235.50" x2="120.60" y2="212.55"/><line x1="307.93" y1="466.00" x2="319.91" y2="469.59"/><line x1="378.91" y1="389.25" x2="356.07" y2="405.20"/><line x1="247.27" y1="185.43" x2="259.49" y2="208.91"/><line x1="120.60" y1="212.55" x2="106.47" y2="221.49"/><line x1="242.68" y1="399.16" x2="244.73" y2="404.85"/><line x1="356.07" y1="405.20" x2="372.59" y2="384.69"/><line x1="244.73" y1="404.85" x2="274.43" y2="399.59"/><line x1="376.74" y1="466.41" x2="361.95" y2="442.12"/><line x1="365.56" y1="420.84" x2="388.62" y2="397.64"/><line x1="346.95" y1="314.01" x2="342.59" y2="338.77"/><line x1="160.23" y1="251.11" x2="165.92" y2="279.65"/><line x1="361.95" y1="442.12" x2="381.81" y2="463.74"/><line x1="366.66" y1="260.16" x2="363.51" y2="250.65"/><line x1="165.92" y1="279.65" x2="176.13" y2="263.81"/><line x1="280.97" y1="419.12" x2="261.26" y2="432.05"/><line x1="337.57" y1="363.94" x2="324.06" y2="379.36"/><line x1="261.67" y1="258.95" x2="273.37" y2="247.48"/><line x1="261.26" y1="432.05" x2="265.84" y2="437.25"/><line x1="361.34" y1="312.59" x2="370.03" y2="343.19"/><line x1="294.01" y1="192.28" x2="286.75" y2="193.71"/><line x1="231.89" y1="301.46" x2="233.06" y2="327.02"/><line x1="365.97" y1="434.23" x2="397.08" y2="449.12"/><line x1="366.55" y1="431.29" x2="366.74" y2="428.18"/><line x1="348.60" y1="223.09" x2="360.93" y2="202.20"/><line x1="233.06" y1="327.02" x2="253.13" y2="215.09"/><line x1="364.72" y1="310.04" x2="391.51" y2="334.29"/><line x1="280.75" y1="257.45" x2="266.65" y2="268.40"/><line x1="239.27" y1="166.47" x2="237.50" y2="165.03"/><line x1="334.81" y1="309.15" x2="341.12" y2="312.19"/><line x1="307.93" y1="466.00" x2="316.32" y2="451.68"/><line x1="247.27" y1="185.43" x2="254.34" y2="182.18"/><line x1="391.51" y1="334.29" x2="394.99" y2="330.98"/><line x1="357.34" y1="446.58" x2="359.83" y2="444.43"/><line x1="64.64" y1="32.09" x2="32.16" y2="64.58"/><line x1="267.52" y1="325.18" x2="234.53" y2="348.43"/><line x1="237.50" y1="165.03" x2="235.27" y2="163.85"/><line x1="402.21" y1="429.84" x2="401.93" y2="424.68"/><line x1="328.58" y1="180.43" x2="322.36" y2="197.55"/><line x1="347.77" y1="396.90" x2="337.10" y2="388.29"/><line x1="345.59" y1="472.47" x2="348.32" y2="451.48"/><line x1="269.19" y1="347.49" x2="270.51" y2="375.71"/><line x1="304.75" y1="284.85" x2="292.58" y2="302.83"/><line x1="365.56" y1="420.84" x2="392.23" y2="401.69"/><line x1="322.36" y1="197.55" x2="315.51" y2="194.36"/><line x1="218.25" y1="159.78" x2="211.98" y2="158.91"/><line x1="386.50" y1="460.59" x2="390.67" y2="457.05"/><line x1="293.87" y1="173.18" x2="287.62" y2="173.43"/><line x1="237.89" y1="377.88" x2="239.33" y2="385.88"/><line x1="211.98" y1="158.91" x2="204.91" y2="158.11"/><line x1="118.11" y1="235.50" x2="131.90" y2="249.85"/><line x1="317.90" y1="324.77" x2="326.39" y2="330.47"/><line x1="261.67" y1="258.95" x2="266.31" y2="237.10"/><line x1="365.44" y1="470.29" x2="371.28" y2="468.59"/><line x1="370.28" y1="279.66" x2="400.13" y2="260.09"/><line x1="132.47" y1="225.48" x2="145.68" y2="238.34"/><line x1="294.01" y1="192.28" x2="287.62" y2="173.43"/><line x1="296.54" y1="460.97" x2="307.93" y2="466.00"/><line x1="365.30" y1="379.87" x2="357.02" y2="374.81"/><line x1="366.55" y1="431.29" x2="401.89" y2="435.09"/><line x1="268.07" y1="177.18" x2="261.27" y2="179.43"/><line x1="32.16" y1="32.09" x2="64.64" y2="32.09"/><line x1="366.74" y1="428.18" x2="402.21" y2="429.84"/><line x1="352.31" y1="314.62" x2="357.73" y2="342.92"/><line x1="272.76" y1="199.41" x2="266.04" y2="203.68"/><line x1="329.09" y1="202.02" x2="328.58" y2="180.43"/><line x1="363.67" y1="439.65" x2="365.02" y2="437.02"/><line x1="285.20" y1="294.73" x2="304.75" y2="284.85"/><line x1="388.56" y1="235.81" x2="380.60" y2="224.10"/><line x1="193.37" y1="276.44" x2="211.95" y2="288.99"/><line x1="267.52" y1="325.18" x2="233.72" y2="336.80"/><line x1="341.25" y1="453.25" x2="345.59" y2="472.47"/><line x1="359.44" y1="241.30" x2="354.47" y2="232.12"/><line x1="369.23" y1="301.88" x2="404.50" y2="314.31"/><line x1="32.00" y1="447.50" x2="64.49" y2="479.98"/></g></svg>