<svg xmlns="http://www.w3.org/2000/svg" width="512" height="512"><rect width="512" height="512" fill="#0a0f1a"/><text x="12" y="20" font-family="monospace" font-size="11" fill="#4a7fa5">FRONT (XZ)</text><g stroke="#00d4ff" stroke-width="0.6" opacity="0.85"><line x1="189.47" y1="323.73" x2="164.53" y2="328.73"/><line x1="250.85" y1="220.92" x2="225.32" y2="202.43"/><line x1="205.58" y1="64.99" x2="211.53" y2="86.43"/><line x1="238.55" y1="344.55" x2="240.06" y2="363.62"/><line x1="225.32" y1="202.43" x2="253.89" y2="214.87"/><line x1="178.33" y1="73.91" x2="182.37" y2="71.18"/><line x1="164.27" y1="119.77" x2="194.26" y2="113.03"/><line x1="315.98" y1="372.70" x2="350.10" y2="376.89"/><line x1="240.06" y1="363.62" x2="235.11" y2="345.81"/><line x1="187.61" y1="311.11" x2="157.90" y2="309.42"/><line x1="194.26" y1="113.03" x2="162.15" y2="112.75"/><line x1="286.24" y1="111.15" x2="292.29" y2="121.48"/><line x1="317.95" y1="422.51" x2="316.96" y2="424.92"/><line x1="157.90" y1="309.42" x2="188.12" y2="305.46"/><line x1="195.91" y1="157.63" x2="203.96" y2="138.26"/><line x1="254.31" y1="195.05" x2="251.78" y2="189.87"/><line x1="226.28" y1="85.37" x2="236.93" y2="70.18"/><line x1="259.72" y1="323.12" x2="269.41" y2="322.46"/><line x1="221.84" y1="363.90" x2="224.08" y2="347.43"/><line x1="316.96" y1="424.92" x2="315.80" y2="427.27"/><line x1="251.78" y1="189.87" x2="227.51" y2="193.84"/><line x1="319.41" y1="395.00" x2="319.84" y2="400.03"/><line x1="224.08" y1="347.43" x2="219.57" y2="347.23"/><line x1="192.14" y1="293.39" x2="163.58" y2="278.60"/><line x1="195.64" y1="103.50" x2="163.85" y2="92.47"/><line x1="163.58" y1="278.60" x2="168.35" y2="270.10"/><line x1="253.61" y1="333.10" x2="269.41" y2="351.36"/><line x1="246.20" y1="95.55" x2="263.97" y2="85.73"/><line x1="276.43" y1="335.00" x2="276.72" y2="337.77"/><line x1="226.97" y1="197.86" x2="254.31" y2="195.05"/><line x1="223.50" y1="183.52" x2="231.51" y2="166.67"/><line x1="320.10" y1="412.17" x2="355.54" y2="413.33"/><line x1="207.54" y1="344.11" x2="204.02" y2="342.24"/><line x1="190.80" y1="243.01" x2="226.45" y2="251.42"/><line x1="174.51" y1="77.12" x2="178.33" y2="73.91"/><line x1="261.30" y1="119.98" x2="264.68" y2="128.87"/><line x1="269.41" y1="351.36" x2="266.20" y2="353.82"/><line x1="355.54" y1="413.33" x2="355.66" y2="417.17"/><line x1="246.42" y1="74.21" x2="255.43" y2="79.40"/><line x1="480.00" y1="32.02" x2="447.51" y2="32.02"/><line x1="286.24" y1="111.15" x2="264.68" y2="128.87"/><line x1="241.09" y1="234.91" x2="246.58" y2="227.60"/><line x1="196.70" y1="100.65" x2="198.08" y2="97.95"/><line x1="195.68" y1="65.98" x2="200.53" y2="65.24"/><line x1="302.23" y1="144.85" x2="306.14" y2="157.88"/><line x1="253.91" y1="360.15" x2="249.45" y2="361.64"/><line x1="348.59" y1="431.72" x2="345.48" y2="432.69"/><line x1="218.72" y1="213.20" x2="222.56" y2="207.54"/><line x1="196.68" y1="125.15" x2="194.87" y2="118.96"/><line x1="274.08" y1="162.61" x2="276.97" y2="176.21"/><line x1="329.02" y1="431.13" x2="324.96" y2="430.08"/><line x1="275.55" y1="332.08" x2="276.43" y2="335.00"/><line x1="188.44" y1="319.76" x2="187.82" y2="315.56"/><line x1="172.70" y1="134.35" x2="167.78" y2="126.96"/><line x1="238.10" y1="172.84" x2="223.50" y2="183.52"/><line x1="216.51" y1="65.57" x2="217.35" y2="85.11"/><line x1="319.38" y1="417.48" x2="318.76" y2="420.03"/><line x1="355.20" y1="408.86" x2="320.10" y2="412.17"/><line x1="199.07" y1="358.23" x2="207.54" y2="344.11"/><line x1="255.73" y1="209.46" x2="256.33" y2="204.67"/><line x1="253.61" y1="333.10" x2="272.04" y2="348.83"/><line x1="198.08" y1="97.95" x2="174.51" y2="77.12"/><line x1="235.14" y1="364.12" x2="230.06" y2="364.28"/><line x1="226.97" y1="197.86" x2="255.83" y2="199.98"/><line x1="205.73" y1="273.39" x2="190.80" y2="243.01"/><line x1="194.41" y1="109.69" x2="194.87" y2="106.52"/><line x1="257.96" y1="326.67" x2="255.92" y2="330.00"/><line x1="279.50" y1="101.73" x2="261.30" y2="119.98"/><line x1="318.04" y1="384.29" x2="318.81" y2="389.76"/><line x1="272.04" y1="348.83" x2="269.41" y2="351.36"/><line x1="190.80" y1="243.01" x2="212.27" y2="266.22"/><line x1="161.45" y1="105.92" x2="161.72" y2="101.25"/><line x1="216.08" y1="152.36" x2="205.67" y2="165.54"/><line x1="231.75" y1="86.64" x2="236.89" y2="88.77"/><line x1="261.30" y1="119.98" x2="286.24" y2="111.15"/><line x1="319.83" y1="414.86" x2="339.13" y2="432.89"/><line x1="269.41" y1="351.36" x2="251.01" y2="335.96"/><line x1="158.14" y1="294.78" x2="160.18" y2="286.82"/><line x1="179.11" y1="345.76" x2="195.06" y2="334.23"/><line x1="205.67" y1="165.54" x2="195.91" y2="157.63"/><line x1="246.42" y1="74.21" x2="241.71" y2="91.73"/><line x1="203.96" y1="90.88" x2="191.04" y2="67.22"/><line x1="351.13" y1="430.10" x2="348.59" y2="431.72"/><line x1="195.06" y1="334.23" x2="192.78" y2="330.97"/><line x1="227.07" y1="190.71" x2="225.73" y2="187.27"/><line x1="213.77" y1="219.40" x2="241.09" y2="234.91"/><line x1="191.04" y1="67.22" x2="195.68" y2="65.98"/><line x1="320.10" y1="404.83" x2="320.18" y2="409.42"/><line x1="480.00" y1="32.02" x2="480.00" y2="64.50"/><line x1="215.31" y1="346.60" x2="211.30" y2="345.57"/><line x1="245.06" y1="340.95" x2="253.91" y2="360.15"/><line x1="241.09" y1="234.91" x2="218.72" y2="213.20"/><line x1="196.70" y1="100.65" x2="171.04" y2="80.68"/><line x1="179.03" y1="141.93" x2="196.68" y2="125.15"/><line x1="272.03" y1="93.22" x2="279.50" y2="101.73"/><line x1="480.00" y1="479.91" x2="480.00" y2="447.42"/><line x1="302.23" y1="144.85" x2="274.08" y2="162.61"/><line x1="253.91" y1="360.15" x2="241.86" y2="342.93"/><line x1="164.53" y1="328.73" x2="188.44" y2="319.76"/><line x1="196.68" y1="125.15" x2="172.70" y2="134.35"/><line x1="211.53" y1="86.43" x2="216.51" y2="65.57"/><line x1="319.83" y1="414.86" x2="353.11" y2="427.83"/><line x1="235.11" y1="345.81" x2="231.55" y2="346.72"/><line x1="329.02" y1="431.13" x2="319.38" y2="417.48"/><line x1="226.45" y1="251.42" x2="234.38" y2="242.85"/><line x1="319.83" y1="414.86" x2="319.38" y2="417.48"/><line x1="188.44" y1="319.76" x2="161.44" y2="322.55"/><line x1="253.89" y1="214.87" x2="255.73" y2="209.46"/><line x1="216.51" y1="65.57" x2="214.36" y2="85.60"/><line x1="447.51" y1="479.91" x2="480.00" y2="447.42"/><line x1="255.73" y1="209.46" x2="226.97" y2="197.86"/><line x1="269.41" y1="322.46" x2="272.04" y2="325.81"/><line x1="317.09" y1="378.61" x2="318.04" y2="384.29"/><line x1="235.14" y1="364.12" x2="231.55" y2="346.72"/><line x1="194.41" y1="109.69" x2="161.45" y2="105.92"/><line x1="257.96" y1="326.67" x2="274.09" y2="329.02"/><line x1="219.57" y1="347.23" x2="215.31" y2="346.60"/><line x1="157.46" y1="302.47" x2="158.14" y2="294.78"/><line x1="248.23" y1="184.44" x2="243.67" y2="178.76"/><line x1="231.75" y1="86.64" x2="246.42" y2="74.21"/><line x1="353.84" y1="398.00" x2="354.63" y2="403.74"/><line x1="319.83" y1="414.86" x2="341.81" y2="433.01"/><line x1="213.94" y1="362.77" x2="206.35" y2="360.88"/><line x1="165.72" y1="88.35" x2="168.11" y2="84.42"/><line x1="195.66" y1="286.98" x2="200.19" y2="280.31"/><line x1="250.36" y1="100.22" x2="254.20" y2="105.74"/><line x1="276.43" y1="340.67" x2="275.55" y2="343.48"/><line x1="226.95" y1="67.30" x2="236.93" y2="70.18"/><line x1="272.03" y1="93.22" x2="257.81" y2="112.27"/><line x1="355.66" y1="417.17" x2="355.37" y2="421.37"/><line x1="480.00" y1="479.91" x2="447.51" y2="479.91"/><line x1="192.10" y1="354.83" x2="185.45" y2="350.67"/><line x1="216.37" y1="175.13" x2="211.46" y2="170.49"/><line x1="199.76" y1="95.40" x2="201.74" y2="93.02"/><line x1="319.83" y1="414.86" x2="354.52" y2="424.93"/><line x1="235.11" y1="345.81" x2="235.14" y2="364.12"/><line x1="226.45" y1="251.42" x2="207.72" y2="226.14"/><line x1="182.37" y1="71.18" x2="186.61" y2="68.95"/><line x1="162.15" y1="112.75" x2="194.41" y2="109.69"/><line x1="255.92" y1="330.00" x2="276.43" y2="340.67"/><line x1="264.68" y1="128.87" x2="267.94" y2="138.93"/><line x1="188.12" y1="305.46" x2="157.46" y2="302.47"/><line x1="292.29" y1="121.48" x2="297.62" y2="132.71"/><line x1="269.41" y1="322.46" x2="257.96" y2="326.67"/><line x1="173.36" y1="340.34" x2="168.50" y2="334.66"/><line x1="203.96" y1="138.26" x2="199.72" y2="131.58"/><line x1="227.51" y1="193.84" x2="248.23" y2="184.44"/><line x1="206.33" y1="89.06" x2="208.85" y2="87.58"/><line x1="190.92" y1="327.47" x2="189.47" y2="323.73"/><line x1="219.57" y1="347.23" x2="213.94" y2="362.77"/><line x1="246.58" y1="227.60" x2="250.85" y2="220.92"/><line x1="194.87" y1="118.96" x2="194.26" y2="113.03"/><line x1="248.23" y1="184.44" x2="227.07" y2="190.71"/><line x1="200.53" y1="65.24" x2="205.58" y2="64.99"/><line x1="306.14" y1="157.88" x2="309.34" y2="171.82"/><line x1="353.84" y1="398.00" x2="320.10" y2="404.83"/><line x1="213.94" y1="362.77" x2="215.31" y2="346.60"/><line x1="222.56" y1="207.54" x2="225.32" y2="202.43"/><line x1="168.35" y1="270.10" x2="195.66" y2="286.98"/><line x1="165.72" y1="88.35" x2="196.70" y2="100.65"/><line x1="261.20" y1="319.33" x2="259.72" y2="323.12"/><line x1="276.97" y1="176.21" x2="315.98" y2="372.70"/><line x1="324.96" y1="430.08" x2="320.55" y2="428.79"/><line x1="244.83" y1="362.79" x2="240.06" y2="363.62"/><line x1="276.72" y1="337.77" x2="276.43" y2="340.67"/><line x1="195.66" y1="286.98" x2="174.47" y2="261.35"/><line x1="231.51" y1="166.67" x2="220.38" y2="179.48"/><line x1="266.20" y1="318.96" x2="269.41" y2="322.46"/><line x1="250.36" y1="100.22" x2="272.03" y2="93.22"/><line x1="318.76" y1="420.03" x2="317.95" y2="422.51"/><line x1="276.43" y1="340.67" x2="253.61" y2="333.10"/><line x1="159.23" y1="316.11" x2="157.90" y2="309.42"/><line x1="204.02" y1="342.24" x2="192.10" y2="354.83"/><line x1="194.87" y1="106.52" x2="195.64" y2="103.50"/><line x1="220.38" y1="179.48" x2="216.37" y2="175.13"/><line x1="226.95" y1="67.30" x2="226.28" y2="85.37"/><line x1="355.66" y1="417.17" x2="319.83" y2="414.86"/><line x1="192.10" y1="354.83" x2="200.76" y2="339.95"/><line x1="236.93" y1="70.18" x2="231.75" y2="86.64"/><line x1="212.27" y1="266.22" x2="226.45" y2="251.42"/><line x1="199.76" y1="95.40" x2="182.37" y2="71.18"/><line x1="318.81" y1="389.76" x2="319.41" y2="395.00"/><line x1="251.01" y1="335.96" x2="266.20" y2="353.82"/><line x1="192.78" y1="330.97" x2="190.92" y2="327.47"/><line x1="226.45" y1="251.42" x2="200.57" y2="233.42"/><line x1="319.84" y1="400.03" x2="353.84" y2="398.00"/><line x1="255.92" y1="330.00" x2="276.72" y2="337.77"/><line x1="264.68" y1="128.87" x2="292.29" y2="121.48"/><line x1="266.20" y1="353.82" x2="262.40" y2="356.18"/><line x1="163.85" y1="92.47" x2="165.72" y2="88.35"/><line x1="209.41" y1="145.18" x2="203.96" y2="138.26"/><line x1="241.86" y1="342.93" x2="244.83" y2="362.79"/><line x1="345.48" y1="432.69" x2="341.81" y2="433.01"/><line x1="173.36" y1="340.34" x2="190.92" y2="327.47"/><line x1="263.97" y1="85.73" x2="250.36" y2="100.22"/><line x1="206.33" y1="89.06" x2="200.53" y2="65.24"/><line x1="161.44" y1="322.55" x2="159.23" y2="316.11"/><line x1="246.58" y1="227.60" x2="222.56" y2="207.54"/><line x1="194.87" y1="118.96" x2="164.27" y2="119.77"/><line x1="306.14" y1="157.88" x2="276.97" y2="176.21"/><line x1="178.33" y1="73.91" x2="199.76" y2="95.40"/><line x1="187.82" y1="315.56" x2="187.61" y2="311.11"/><line x1="217.35" y1="85.11" x2="220.49" y2="84.95"/><line x1="261.20" y1="319.33" x2="262.40" y2="315.31"/><line x1="231.55" y1="346.72" x2="227.87" y2="347.26"/><line x1="324.96" y1="430.08" x2="318.76" y2="420.03"/><line x1="351.58" y1="384.57" x2="352.82" y2="391.60"/><line x1="195.91" y1="157.63" x2="209.41" y2="145.18"/><line x1="230.06" y1="364.28" x2="221.84" y2="363.90"/><line x1="194.87" y1="106.52" x2="162.52" y2="96.76"/><line x1="189.62" y1="299.55" x2="192.14" y2="293.39"/><line x1="274.09" y1="329.02" x2="275.55" y2="332.08"/><line x1="192.78" y1="330.97" x2="173.36" y2="340.34"/><line x1="243.67" y1="178.76" x2="238.10" y2="172.84"/><line x1="241.71" y1="91.73" x2="246.20" y2="95.55"/><line x1="354.63" y1="403.74" x2="355.20" y2="408.86"/><line x1="480.00" y1="64.50" x2="447.51" y2="32.02"/><line x1="206.35" y1="360.88" x2="199.07" y2="358.23"/><line x1="320.18" y1="409.42" x2="320.10" y2="412.17"/><line x1="241.86" y1="342.93" x2="249.45" y2="361.64"/><line x1="200.19" y1="280.31" x2="205.73" y2="273.39"/><line x1="350.10" y1="376.89" x2="351.58" y2="384.57"/><line x1="161.44" y1="322.55" x2="187.82" y2="315.56"/><line x1="223.95" y1="159.78" x2="216.08" y2="152.36"/><line x1="194.87" y1="118.96" x2="167.78" y2="126.96"/><line x1="257.81" y1="112.27" x2="261.30" y2="119.98"/><line x1="201.74" y1="93.02" x2="203.96" y2="90.88"/><line x1="217.35" y1="85.11" x2="226.95" y2="67.30"/><line x1="231.55" y1="346.72" x2="230.06" y2="364.28"/><line x1="186.61" y1="68.95" x2="191.04" y2="67.22"/><line x1="351.58" y1="384.57" x2="318.81" y2="389.76"/><line x1="195.68" y1="65.98" x2="206.33" y2="89.06"/><line x1="194.87" y1="106.52" x2="161.72" y2="101.25"/><line x1="297.62" y1="132.71" x2="302.23" y2="144.85"/><line x1="218.72" y1="213.20" x2="246.58" y2="227.60"/><line x1="272.04" y1="325.81" x2="274.09" y2="329.02"/><line x1="274.08" y1="162.61" x2="306.14" y2="157.88"/><line x1="199.72" y1="131.58" x2="196.68" y2="125.15"/><line x1="236.89" y1="88.77" x2="241.71" y2="91.73"/><line x1="172.70" y1="134.35" x2="194.87" y2="118.96"/><line x1="225.32" y1="202.43" x2="226.97" y2="197.86"/><line x1="243.67" y1="178.76" x2="225.73" y2="187.27"/><line x1="319.38" y1="417.48" x2="324.96" y2="430.08"/><line x1="320.55" y1="428.79" x2="315.80" y2="427.27"/><line x1="253.61" y1="333.10" x2="274.09" y2="346.20"/><line x1="354.63" y1="403.74" x2="320.18" y2="409.42"/><line x1="214.36" y1="85.60" x2="217.35" y2="85.11"/><line x1="168.11" y1="84.42" x2="171.04" y2="80.68"/><line x1="226.97" y1="197.86" x2="256.33" y2="204.67"/><line x1="200.19" y1="280.31" x2="181.96" y2="252.32"/><line x1="318.04" y1="384.29" x2="351.58" y2="384.57"/><line x1="352.82" y1="391.60" x2="353.84" y2="398.00"/><line x1="254.20" y1="105.74" x2="257.81" y2="112.27"/><line x1="221.84" y1="363.90" x2="213.94" y2="362.77"/><line x1="161.45" y1="105.92" x2="194.87" y2="106.52"/><line x1="185.45" y1="350.67" x2="179.11" y2="345.76"/><line x1="223.95" y1="159.78" x2="211.46" y2="170.49"/><line x1="158.14" y1="294.78" x2="189.62" y2="299.55"/><line x1="32.16" y1="32.09" x2="32.16" y2="64.58"/><line x1="355.37" y1="421.37" x2="354.52" y2="424.93"/><line x1="192.14" y1="293.39" x2="195.66" y2="286.98"/><line x1="246.42" y1="74.21" x2="236.89" y2="88.77"/><line x1="207.72" y1="226.14" x2="213.77" y2="219.40"/><line x1="195.64" y1="103.50" x2="196.70" y2="100.65"/><line x1="201.74" y1="93.02" x2="186.61" y2="68.95"/><line x1="267.94" y1="138.93" x2="271.07" y2="150.18"/><line x1="227.07" y1="190.71" x2="243.67" y2="178.76"/><line x1="248.13" y1="338.60" x2="245.06" y2="340.95"/><line x1="320.10" y1="404.83" x2="354.63" y2="403.74"/><line x1="186.77" y1="149.69" x2="179.03" y2="141.93"/><line x1="215.31" y1="346.60" x2="206.35" y2="360.88"/><line x1="174.47" y1="261.35" x2="181.96" y2="252.32"/><line x1="226.97" y1="197.86" x2="227.51" y2="193.84"/><line x1="196.70" y1="100.65" x2="168.11" y2="84.42"/><line x1="168.50" y1="334.66" x2="164.53" y2="328.73"/><line x1="208.85" y1="87.58" x2="211.53" y2="86.43"/><line x1="320.10" y1="412.17" x2="319.83" y2="414.86"/><line x1="250.85" y1="220.92" x2="253.89" y2="214.87"/><line x1="200.76" y1="339.95" x2="197.74" y2="337.26"/><line x1="319.83" y1="414.86" x2="329.02" y2="431.13"/><line x1="309.34" y1="171.82" x2="350.10" y2="376.89"/><line x1="238.55" y1="344.55" x2="235.11" y2="345.81"/><line x1="164.27" y1="119.77" x2="162.15" y2="112.75"/><line x1="320.55" y1="428.79" x2="316.96" y2="424.92"/><line x1="253.61" y1="333.10" x2="275.55" y2="343.48"/><line x1="187.61" y1="311.11" x2="188.12" y2="305.46"/><line x1="262.40" y1="356.18" x2="258.24" y2="358.33"/><line x1="257.96" y1="326.67" x2="272.04" y2="325.81"/><line x1="352.82" y1="391.60" x2="319.84" y2="400.03"/><line x1="221.84" y1="363.90" x2="219.57" y2="347.23"/><line x1="32.00" y1="479.98" x2="64.49" y2="479.98"/><line x1="162.52" y1="96.76" x2="163.85" y2="92.47"/><line x1="319.83" y1="414.86" x2="345.48" y2="432.69"/><line x1="192.14" y1="293.39" x2="168.35" y2="270.10"/><line x1="255.43" y1="79.40" x2="263.97" y2="85.73"/><line x1="199.07" y1="358.23" x2="192.10" y2="354.83"/><line x1="198.08" y1="97.95" x2="199.76" y2="95.40"/><line x1="174.47" y1="261.35" x2="200.19" y2="280.31"/><line x1="339.13" y1="432.89" x2="336.10" y2="432.54"/><line x1="226.97" y1="197.86" x2="251.78" y2="189.87"/><line x1="272.03" y1="93.22" x2="254.20" y2="105.74"/><line x1="320.10" y1="412.17" x2="355.66" y2="417.17"/><line x1="216.37" y1="175.13" x2="223.95" y2="159.78"/><line x1="190.80" y1="243.01" x2="200.57" y2="233.42"/><line x1="216.08" y1="152.36" x2="209.41" y2="145.18"/><line x1="319.83" y1="414.86" x2="355.37" y2="421.37"/><line x1="200.76" y1="339.95" x2="185.45" y2="350.67"/><line x1="319.83" y1="414.86" x2="332.73" y2="431.95"/><line x1="309.34" y1="171.82" x2="315.98" y2="372.70"/><line x1="179.11" y1="345.76" x2="173.36" y2="340.34"/><line x1="182.37" y1="71.18" x2="201.74" y2="93.02"/><line x1="203.96" y1="90.88" x2="206.33" y2="89.06"/><line x1="200.57" y1="233.42" x2="207.72" y2="226.14"/><line x1="320.55" y1="428.79" x2="317.95" y2="422.51"/><line x1="292.29" y1="121.48" x2="267.94" y2="138.93"/><line x1="262.40" y1="356.18" x2="248.13" y2="338.60"/><line x1="220.49" y1="84.95" x2="226.28" y2="85.37"/><line x1="203.96" y1="138.26" x2="186.77" y2="149.69"/><line x1="341.81" y1="433.01" x2="339.13" y2="432.89"/><line x1="190.92" y1="327.47" x2="168.50" y2="334.66"/><line x1="352.82" y1="391.60" x2="319.41" y2="395.00"/><line x1="200.53" y1="65.24" x2="208.85" y2="87.58"/><line x1="32.00" y1="479.98" x2="32.00" y2="447.50"/><line x1="162.52" y1="96.76" x2="195.64" y2="103.50"/><line x1="319.83" y1="414.86" x2="348.59" y2="431.72"/><line x1="222.56" y1="207.54" x2="250.85" y2="220.92"/><line x1="276.97" y1="176.21" x2="309.34" y2="171.82"/><line x1="238.10" y1="172.84" x2="231.51" y2="166.67"/><line x1="244.83" y1="362.79" x2="238.55" y2="344.55"/><line x1="216.51" y1="65.57" x2="226.95" y2="67.30"/><line x1="255.43" y1="79.40" x2="246.20" y2="95.55"/><line x1="355.20" y1="408.86" x2="355.54" y2="413.33"/><line x1="167.78" y1="126.96" x2="164.27" y2="119.77"/><line x1="199.07" y1="358.23" x2="204.02" y2="342.24"/><line x1="266.20" y1="318.96" x2="259.72" y2="323.12"/><line x1="318.76" y1="420.03" x2="320.55" y2="428.79"/><line x1="198.08" y1="97.95" x2="178.33" y2="73.91"/><line x1="159.23" y1="316.11" x2="187.61" y2="311.11"/><line x1="226.95" y1="67.30" x2="220.49" y2="84.95"/><line x1="205.73" y1="273.39" x2="212.27" y2="266.22"/><line x1="227.87" y1="347.26" x2="224.08" y2="347.43"/><line x1="279.50" y1="101.73" x2="286.24" y2="111.15"/><line x1="318.81" y1="389.76" x2="352.82" y2="391.60"/><line x1="216.08" y1="152.36" x2="195.91" y2="157.63"/><line x1="160.18" y1="286.82" x2="163.58" y2="278.60"/><line x1="319.83" y1="414.86" x2="336.10" y2="432.54"/><line x1="179.11" y1="345.76" x2="192.78" y2="330.97"/><line x1="255.92" y1="330.00" x2="276.43" y2="335.00"/><line x1="203.96" y1="90.88" x2="195.68" y2="65.98"/><line x1="225.73" y1="187.27" x2="223.50" y2="183.52"/><line x1="213.77" y1="219.40" x2="218.72" y2="213.20"/><line x1="211.30" y1="345.57" x2="207.54" y2="344.11"/><line x1="245.06" y1="340.95" x2="241.86" y2="342.93"/><line x1="171.04" y1="80.68" x2="174.51" y2="77.12"/><line x1="179.03" y1="141.93" x2="172.70" y2="134.35"/><line x1="249.45" y1="361.64" x2="244.83" y2="362.79"/><line x1="181.96" y1="252.32" x2="190.80" y2="243.01"/><line x1="164.53" y1="328.73" x2="161.44" y2="322.55"/><line x1="211.53" y1="86.43" x2="214.36" y2="85.60"/><line x1="187.82" y1="315.56" x2="159.23" y2="316.11"/><line x1="319.83" y1="414.86" x2="351.13" y2="430.10"/><line x1="211.46" y1="170.49" x2="205.67" y2="165.54"/><line x1="261.20" y1="319.33" x2="266.20" y2="318.96"/><line x1="197.74" y1="337.26" x2="195.06" y2="334.23"/><line x1="256.33" y1="204.67" x2="255.83" y2="199.98"/><line x1="188.12" y1="305.46" x2="189.62" y2="299.55"/><line x1="266.20" y1="318.96" x2="262.40" y2="315.31"/><line x1="230.06" y1="364.28" x2="227.87" y2="347.26"/><line x1="234.38" y1="242.85" x2="241.09" y2="234.91"/><line x1="255.83" y1="199.98" x2="254.31" y2="195.05"/><line x1="227.87" y1="347.26" x2="221.84" y2="363.90"/><line x1="189.62" y1="299.55" x2="160.18" y2="286.82"/><line x1="161.72" y1="101.25" x2="162.52" y2="96.76"/><line x1="271.07" y1="150.18" x2="274.08" y2="162.61"/><line x1="274.09" y1="329.02" x2="255.92" y2="330.00"/><line x1="160.18" y1="286.82" x2="192.14" y2="293.39"/><line x1="241.71" y1="91.73" x2="255.43" y2="79.40"/><line x1="255.92" y1="330.00" x2="275.55" y2="332.08"/><line x1="206.35" y1="360.88" x2="211.30" y2="345.57"/><line x1="225.73" y1="187.27" x2="238.10" y2="172.84"/><line x1="231.51" y1="166.67" x2="223.95" y2="159.78"/><line x1="320.18" y1="409.42" x2="355.20" y2="408.86"/><line x1="211.30" y1="345.57" x2="199.07" y2="358.23"/><line x1="171.04" y1="80.68" x2="198.08" y2="97.95"/><line x1="350.10" y1="376.89" x2="318.04" y2="384.29"/><line x1="275.55" y1="343.48" x2="274.09" y2="346.20"/><line x1="181.96" y1="252.32" x2="205.73" y2="273.39"/><line x1="257.81" y1="112.27" x2="279.50" y2="101.73"/><line x1="274.09" y1="346.20" x2="272.04" y2="348.83"/><line x1="251.01" y1="335.96" x2="248.13" y2="338.60"/><line x1="211.46" y1="170.49" x2="216.08" y2="152.36"/><line x1="354.52" y1="424.93" x2="353.11" y2="427.83"/><line x1="162.15" y1="112.75" x2="161.45" y2="105.92"/><line x1="255.92" y1="330.00" x2="253.61" y2="333.10"/><line x1="197.74" y1="337.26" x2="179.11" y2="345.76"/><line x1="186.61" y1="68.95" x2="203.96" y2="90.88"/><line x1="188.12" y1="305.46" x2="158.14" y2="294.78"/><line x1="64.64" y1="32.09" x2="32.16" y2="64.58"/><line x1="258.24" y1="358.33" x2="253.91" y2="360.15"/><line x1="353.11" y1="427.83" x2="351.13" y2="430.10"/><line x1="234.38" y1="242.85" x2="213.77" y2="219.40"/><line x1="297.62" y1="132.71" x2="271.07" y2="150.18"/><line x1="227.51" y1="193.84" x2="227.07" y2="190.71"/><line x1="189.47" y1="323.73" x2="188.44" y2="319.76"/><line x1="199.72" y1="131.58" x2="179.03" y2="141.93"/><line x1="205.58" y1="64.99" x2="216.51" y2="65.57"/><line x1="271.07" y1="150.18" x2="302.23" y2="144.85"/><line x1="336.10" y1="432.54" x2="332.73" y2="431.95"/><line x1="225.32" y1="202.43" x2="255.73" y2="209.46"/><line x1="168.35" y1="270.10" x2="174.47" y2="261.35"/><line x1="315.98" y1="372.70" x2="317.09" y2="378.61"/><line x1="240.06" y1="363.62" x2="235.14" y2="364.12"/><line x1="332.73" y1="431.95" x2="329.02" y2="431.13"/><line x1="194.26" y1="113.03" x2="194.41" y2="109.69"/><line x1="231.51" y1="166.67" x2="216.37" y2="175.13"/><line x1="157.90" y1="309.42" x2="157.46" y2="302.47"/><line x1="195.91" y1="157.63" x2="186.77" y2="149.69"/><line x1="204.02" y1="342.24" x2="200.76" y2="339.95"/><line x1="226.28" y1="85.37" x2="231.75" y2="86.64"/><line x1="259.72" y1="323.12" x2="257.96" y2="326.67"/><line x1="350.10" y1="376.89" x2="317.09" y2="378.61"/><line x1="185.45" y1="350.67" x2="197.74" y2="337.26"/><line x1="251.78" y1="189.87" x2="248.23" y2="184.44"/><line x1="236.93" y1="70.18" x2="246.42" y2="74.21"/><line x1="32.16" y1="32.09" x2="64.64" y2="32.09"/><line x1="207.72" y1="226.14" x2="234.38" y2="242.85"/><line x1="251.01" y1="335.96" x2="262.40" y2="356.18"/><line x1="195.64" y1="103.50" x2="165.72" y2="88.35"/><line x1="319.84" y1="400.03" x2="320.10" y2="404.83"/><line x1="267.94" y1="138.93" x2="297.62" y2="132.71"/><line x1="248.13" y1="338.60" x2="258.24" y2="358.33"/><line x1="253.61" y1="333.10" x2="251.01" y2="335.96"/><line x1="186.77" y1="149.69" x2="199.72" y2="131.58"/><line x1="246.20" y1="95.55" x2="250.36" y2="100.22"/><line x1="258.24" y1="358.33" x2="245.06" y2="340.95"/><line x1="168.50" y1="334.66" x2="189.47" y2="323.73"/><line x1="223.50" y1="183.52" x2="220.38" y2="179.48"/><line x1="241.86" y1="342.93" x2="238.55" y2="344.55"/><line x1="263.97" y1="85.73" x2="272.03" y2="93.22"/><line x1="208.85" y1="87.58" x2="205.58" y2="64.99"/><line x1="32.00" y1="447.50" x2="64.49" y2="479.98"/></g></svg>