<svg xmlns="http://www.w3.org/2000/svg" width="512" height="512"><rect width="512" height="512" fill="#0a0f1a"/><text x="12" y="20" font-family="monospace" font-size="11" fill="#4a7fa5">FRONT (XZ)</text><g stroke="#00d4ff" stroke-width="0.6" opacity="0.85"><line x1="253.99" y1="329.41" x2="283.51" y2="331.09"/><line x1="260.53" y1="350.67" x2="258.54" y2="350.43"/><line x1="161.80" y1="242.38" x2="163.32" y2="248.34"/><line x1="238.55" y1="230.54" x2="261.43" y2="217.75"/><line x1="253.69" y1="315.48" x2="280.97" y2="316.30"/><line x1="212.23" y1="246.55" x2="216.62" y2="271.94"/><line x1="180.04" y1="243.14" x2="169.48" y2="261.52"/><line x1="254.01" y1="320.88" x2="254.12" y2="325.85"/><line x1="321.91" y1="274.16" x2="324.72" y2="248.48"/><line x1="251.45" y1="296.84" x2="252.40" y2="303.47"/><line x1="271.98" y1="272.06" x2="248.88" y2="282.34"/><line x1="252.08" y1="339.48" x2="250.93" y2="342.63"/><line x1="216.62" y1="271.94" x2="225.80" y2="246.79"/><line x1="261.63" y1="168.32" x2="262.60" y2="168.36"/><line x1="259.64" y1="188.66" x2="234.30" y2="179.17"/><line x1="266.30" y1="168.65" x2="267.80" y2="168.81"/><line x1="253.61" y1="332.87" x2="265.34" y2="350.98"/><line x1="252.40" y1="303.47" x2="279.93" y2="311.35"/><line x1="249.52" y1="345.68" x2="250.64" y2="349.10"/><line x1="200.09" y1="245.87" x2="197.48" y2="271.01"/><line x1="330.71" y1="275.80" x2="344.99" y2="260.31"/><line x1="251.06" y1="349.20" x2="251.42" y2="349.29"/><line x1="232.49" y1="196.41" x2="232.09" y2="192.52"/><line x1="262.60" y1="168.36" x2="263.70" y2="168.43"/><line x1="246.66" y1="170.04" x2="253.14" y2="168.74"/><line x1="180.04" y1="243.14" x2="189.35" y2="244.73"/><line x1="480.00" y1="479.91" x2="447.51" y2="479.91"/><line x1="234.10" y1="207.13" x2="233.16" y2="201.27"/><line x1="262.70" y1="177.67" x2="264.54" y2="174.52"/><line x1="262.30" y1="223.15" x2="261.43" y2="217.75"/><line x1="259.44" y1="192.83" x2="231.95" y2="189.61"/><line x1="260.16" y1="207.37" x2="234.10" y2="207.13"/><line x1="253.61" y1="332.87" x2="283.83" y2="335.47"/><line x1="349.03" y1="270.18" x2="338.75" y2="277.91"/><line x1="259.64" y1="188.66" x2="260.26" y2="184.74"/><line x1="281.84" y1="320.75" x2="254.12" y2="325.85"/><line x1="200.09" y1="245.87" x2="212.23" y2="246.55"/><line x1="249.52" y1="345.68" x2="249.68" y2="348.91"/><line x1="279.93" y1="311.35" x2="253.16" y2="309.68"/><line x1="330.71" y1="275.80" x2="340.42" y2="253.89"/><line x1="172.07" y1="264.33" x2="174.94" y2="266.35"/><line x1="261.43" y1="217.75" x2="236.80" y2="221.75"/><line x1="263.70" y1="168.43" x2="264.93" y2="168.52"/><line x1="261.28" y1="181.08" x2="262.70" y2="177.67"/><line x1="276.21" y1="293.30" x2="250.26" y2="289.80"/><line x1="300.35" y1="246.89" x2="289.74" y2="246.79"/><line x1="254.12" y1="325.85" x2="282.56" y2="324.70"/><line x1="165.10" y1="253.53" x2="167.15" y2="257.91"/><line x1="241.77" y1="246.79" x2="263.34" y2="228.68"/><line x1="189.35" y1="244.73" x2="178.60" y2="267.87"/><line x1="250.64" y1="349.10" x2="250.18" y2="349.01"/><line x1="258.54" y1="350.43" x2="256.36" y2="350.12"/><line x1="163.32" y1="248.34" x2="165.10" y2="253.53"/><line x1="237.25" y1="175.26" x2="241.36" y2="172.22"/><line x1="312.34" y1="272.99" x2="309.71" y2="247.21"/><line x1="253.61" y1="332.87" x2="282.32" y2="343.06"/><line x1="338.75" y1="277.91" x2="347.07" y2="264.82"/><line x1="253.99" y1="349.74" x2="249.52" y2="345.68"/><line x1="231.95" y1="189.61" x2="232.54" y2="183.96"/><line x1="161.80" y1="242.38" x2="165.64" y2="238.58"/><line x1="249.52" y1="345.68" x2="248.51" y2="348.71"/><line x1="279.93" y1="311.35" x2="280.97" y2="316.30"/><line x1="266.78" y1="171.62" x2="266.30" y2="168.65"/><line x1="260.26" y1="184.74" x2="246.66" y2="170.04"/><line x1="266.90" y1="246.79" x2="241.77" y2="246.79"/><line x1="236.80" y1="221.75" x2="260.71" y2="212.49"/><line x1="225.80" y1="246.79" x2="241.77" y2="246.79"/><line x1="232.09" y1="192.52" x2="231.95" y2="189.61"/><line x1="350.86" y1="276.42" x2="346.03" y2="280.48"/><line x1="321.91" y1="274.16" x2="337.94" y2="251.97"/><line x1="249.68" y1="348.91" x2="249.12" y2="348.81"/><line x1="276.21" y1="293.30" x2="252.40" y2="303.47"/><line x1="32.16" y1="32.09" x2="32.16" y2="64.58"/><line x1="262.33" y1="350.84" x2="260.53" y2="350.67"/><line x1="282.56" y1="324.70" x2="253.99" y2="329.41"/><line x1="263.34" y1="228.68" x2="238.55" y2="230.54"/><line x1="233.16" y1="201.27" x2="259.52" y2="197.54"/><line x1="264.54" y1="174.52" x2="262.60" y2="168.36"/><line x1="260.71" y1="212.49" x2="235.32" y2="213.95"/><line x1="346.03" y1="280.48" x2="352.55" y2="283.52"/><line x1="280.97" y1="316.30" x2="254.01" y2="320.88"/><line x1="253.61" y1="332.87" x2="277.79" y2="348.13"/><line x1="283.83" y1="335.47" x2="283.45" y2="339.59"/><line x1="235.32" y1="213.95" x2="260.16" y2="207.37"/><line x1="253.99" y1="349.74" x2="251.42" y2="349.29"/><line x1="289.74" y1="246.79" x2="266.90" y2="246.79"/><line x1="253.99" y1="329.41" x2="283.11" y2="328.15"/><line x1="161.80" y1="242.38" x2="172.13" y2="241.09"/><line x1="206.39" y1="271.59" x2="216.62" y2="271.94"/><line x1="165.64" y1="238.58" x2="160.57" y2="235.62"/><line x1="238.55" y1="230.54" x2="262.30" y2="223.15"/><line x1="266.78" y1="171.62" x2="269.43" y2="168.98"/><line x1="283.11" y1="328.15" x2="283.51" y2="331.09"/><line x1="350.86" y1="276.42" x2="349.03" y2="270.18"/><line x1="309.71" y1="247.21" x2="300.35" y2="246.89"/><line x1="254.01" y1="320.88" x2="281.84" y2="320.75"/><line x1="321.91" y1="274.16" x2="330.37" y2="249.43"/><line x1="172.13" y1="241.09" x2="165.10" y2="253.53"/><line x1="337.94" y1="251.97" x2="334.78" y2="250.59"/><line x1="249.12" y1="348.81" x2="248.51" y2="348.71"/><line x1="252.08" y1="339.48" x2="258.54" y2="350.43"/><line x1="267.80" y1="168.81" x2="269.43" y2="168.98"/><line x1="259.52" y1="197.54" x2="232.49" y2="196.41"/><line x1="264.54" y1="174.52" x2="264.93" y2="168.52"/><line x1="344.99" y1="260.31" x2="342.76" y2="256.66"/><line x1="346.03" y1="280.48" x2="338.75" y2="277.91"/><line x1="265.34" y1="350.98" x2="263.93" y2="350.95"/><line x1="334.78" y1="250.59" x2="330.37" y2="249.43"/><line x1="253.61" y1="332.87" x2="270.24" y2="350.67"/><line x1="248.51" y1="348.71" x2="247.86" y2="348.62"/><line x1="283.45" y1="339.59" x2="282.32" y2="343.06"/><line x1="238.55" y1="230.54" x2="236.80" y2="221.75"/><line x1="212.23" y1="246.55" x2="225.80" y2="246.79"/><line x1="232.49" y1="196.41" x2="259.44" y2="192.83"/><line x1="480.00" y1="32.02" x2="447.51" y2="32.02"/><line x1="342.76" y1="256.66" x2="340.42" y2="253.89"/><line x1="283.51" y1="331.09" x2="253.61" y2="332.87"/><line x1="321.91" y1="274.16" x2="312.34" y2="272.99"/><line x1="189.87" y1="270.19" x2="197.48" y2="271.01"/><line x1="282.32" y1="343.06" x2="280.43" y2="345.92"/><line x1="234.10" y1="207.13" x2="259.76" y2="202.38"/><line x1="169.48" y1="261.52" x2="172.07" y2="264.33"/><line x1="253.61" y1="332.87" x2="283.75" y2="333.53"/><line x1="246.85" y1="272.06" x2="228.18" y2="272.06"/><line x1="302.02" y1="272.29" x2="300.35" y2="246.89"/><line x1="253.61" y1="332.87" x2="252.97" y2="336.23"/><line x1="252.97" y1="336.23" x2="262.33" y2="350.84"/><line x1="330.37" y1="249.43" x2="324.72" y2="248.48"/><line x1="200.09" y1="245.87" x2="206.39" y2="271.59"/><line x1="251.06" y1="349.20" x2="250.64" y2="349.10"/><line x1="172.07" y1="264.33" x2="189.35" y2="244.73"/><line x1="253.14" y1="168.74" x2="264.54" y2="174.52"/><line x1="290.94" y1="272.06" x2="271.98" y2="272.06"/><line x1="324.72" y1="248.48" x2="312.34" y2="272.99"/><line x1="340.42" y1="253.89" x2="321.91" y2="274.16"/><line x1="250.93" y1="342.63" x2="253.99" y2="349.74"/><line x1="300.35" y1="246.89" x2="290.94" y2="272.06"/><line x1="165.10" y1="253.53" x2="180.04" y2="243.14"/><line x1="259.76" y1="202.38" x2="233.16" y2="201.27"/><line x1="237.25" y1="175.26" x2="260.26" y2="184.74"/><line x1="347.07" y1="264.82" x2="330.71" y2="275.80"/><line x1="312.34" y1="272.99" x2="317.84" y2="247.74"/><line x1="189.35" y1="244.73" x2="189.87" y2="270.19"/><line x1="253.61" y1="332.87" x2="283.45" y2="339.59"/><line x1="248.88" y1="282.34" x2="250.26" y2="289.80"/><line x1="283.75" y1="333.53" x2="283.83" y2="335.47"/><line x1="281.84" y1="320.75" x2="282.56" y2="324.70"/><line x1="263.93" y1="350.95" x2="262.33" y2="350.84"/><line x1="231.95" y1="189.61" x2="259.64" y2="188.66"/><line x1="32.00" y1="479.98" x2="64.49" y2="479.98"/><line x1="274.39" y1="349.72" x2="270.24" y2="350.67"/><line x1="276.21" y1="293.30" x2="251.45" y2="296.84"/><line x1="241.77" y1="246.79" x2="238.55" y2="230.54"/><line x1="180.04" y1="243.14" x2="167.15" y2="257.91"/><line x1="264.93" y1="168.52" x2="266.30" y2="168.65"/><line x1="197.48" y1="271.01" x2="206.39" y2="271.59"/><line x1="264.54" y1="174.52" x2="261.63" y2="168.32"/><line x1="64.64" y1="32.09" x2="32.16" y2="64.58"/><line x1="271.98" y1="272.06" x2="246.85" y2="272.06"/><line x1="312.34" y1="272.99" x2="302.02" y2="272.29"/><line x1="317.84" y1="247.74" x2="309.71" y2="247.21"/><line x1="253.61" y1="332.87" x2="280.43" y2="345.92"/><line x1="178.60" y1="267.87" x2="183.58" y2="269.14"/><line x1="253.99" y1="349.74" x2="251.06" y2="349.20"/><line x1="167.15" y1="257.91" x2="169.48" y2="261.52"/><line x1="266.78" y1="171.62" x2="267.80" y2="168.81"/><line x1="259.64" y1="188.66" x2="232.54" y2="183.96"/><line x1="236.80" y1="221.75" x2="235.32" y2="213.95"/><line x1="253.99" y1="329.41" x2="253.61" y2="332.87"/><line x1="350.86" y1="276.42" x2="352.55" y2="283.52"/><line x1="309.71" y1="247.21" x2="302.02" y2="272.29"/><line x1="172.13" y1="241.09" x2="163.32" y2="248.34"/><line x1="253.69" y1="315.48" x2="254.01" y2="320.88"/><line x1="270.24" y1="350.67" x2="265.34" y2="350.98"/><line x1="276.21" y1="293.30" x2="279.93" y2="311.35"/><line x1="246.66" y1="170.04" x2="261.28" y2="181.08"/><line x1="180.04" y1="243.14" x2="172.07" y2="264.33"/><line x1="263.34" y1="228.68" x2="262.30" y2="223.15"/><line x1="232.54" y1="183.96" x2="234.30" y2="179.17"/><line x1="264.54" y1="174.52" x2="263.70" y2="168.43"/><line x1="271.98" y1="272.06" x2="276.21" y2="293.30"/><line x1="234.30" y1="179.17" x2="237.25" y2="175.26"/><line x1="280.97" y1="316.30" x2="281.84" y2="320.75"/><line x1="265.34" y1="350.98" x2="252.97" y2="336.23"/><line x1="216.62" y1="271.94" x2="228.18" y2="272.06"/><line x1="235.32" y1="213.95" x2="234.10" y2="207.13"/><line x1="183.58" y1="269.14" x2="189.87" y2="270.19"/><line x1="253.99" y1="349.74" x2="250.64" y2="349.10"/><line x1="259.44" y1="192.83" x2="232.09" y2="192.52"/><line x1="259.64" y1="188.66" x2="237.25" y2="175.26"/><line x1="165.64" y1="238.58" x2="172.13" y2="241.09"/><line x1="252.40" y1="303.47" x2="253.16" y2="309.68"/><line x1="480.00" y1="32.02" x2="480.00" y2="64.50"/><line x1="280.43" y1="345.92" x2="277.79" y2="348.13"/><line x1="330.71" y1="275.80" x2="342.76" y2="256.66"/><line x1="266.90" y1="246.79" x2="246.85" y2="272.06"/><line x1="249.52" y1="345.68" x2="250.18" y2="349.01"/><line x1="172.13" y1="241.09" x2="180.04" y2="243.14"/><line x1="189.87" y1="270.19" x2="200.09" y2="245.87"/><line x1="261.28" y1="181.08" x2="253.14" y2="168.74"/><line x1="259.52" y1="197.54" x2="259.44" y2="192.83"/><line x1="480.00" y1="479.91" x2="480.00" y2="447.42"/><line x1="264.54" y1="174.52" x2="266.78" y2="171.62"/><line x1="246.85" y1="272.06" x2="248.88" y2="282.34"/><line x1="189.35" y1="244.73" x2="174.94" y2="266.35"/><line x1="258.54" y1="350.43" x2="250.93" y2="342.63"/><line x1="259.44" y1="192.83" x2="259.64" y2="188.66"/><line x1="252.97" y1="336.23" x2="263.93" y2="350.95"/><line x1="260.16" y1="207.37" x2="259.76" y2="202.38"/><line x1="253.14" y1="168.74" x2="262.70" y2="177.67"/><line x1="349.03" y1="270.18" x2="347.07" y2="264.82"/><line x1="290.94" y1="272.06" x2="289.74" y2="246.79"/><line x1="249.52" y1="345.68" x2="249.12" y2="348.81"/><line x1="279.93" y1="311.35" x2="253.69" y2="315.48"/><line x1="480.00" y1="64.50" x2="447.51" y2="32.02"/><line x1="330.71" y1="275.80" x2="321.91" y2="274.16"/><line x1="283.51" y1="331.09" x2="283.75" y2="333.53"/><line x1="277.79" y1="348.13" x2="274.39" y2="349.72"/><line x1="250.93" y1="342.63" x2="256.36" y2="350.12"/><line x1="261.43" y1="217.75" x2="260.71" y2="212.49"/><line x1="225.80" y1="246.79" x2="228.18" y2="272.06"/><line x1="260.26" y1="184.74" x2="241.36" y2="172.22"/><line x1="32.16" y1="32.09" x2="64.64" y2="32.09"/><line x1="254.12" y1="325.85" x2="253.99" y2="329.41"/><line x1="447.51" y1="479.91" x2="480.00" y2="447.42"/><line x1="262.33" y1="350.84" x2="252.08" y2="339.48"/><line x1="189.35" y1="244.73" x2="183.58" y2="269.14"/><line x1="248.88" y1="282.34" x2="276.21" y2="293.30"/><line x1="174.94" y1="266.35" x2="178.60" y2="267.87"/><line x1="302.02" y1="272.29" x2="290.94" y2="272.06"/><line x1="228.18" y1="272.06" x2="241.77" y2="246.79"/><line x1="246.85" y1="272.06" x2="241.77" y2="246.79"/><line x1="252.97" y1="336.23" x2="252.08" y2="339.48"/><line x1="32.00" y1="479.98" x2="32.00" y2="447.50"/><line x1="253.14" y1="168.74" x2="260.79" y2="168.31"/><line x1="338.75" y1="277.91" x2="330.71" y2="275.80"/><line x1="289.74" y1="246.79" x2="271.98" y2="272.06"/><line x1="324.72" y1="248.48" x2="317.84" y2="247.74"/><line x1="253.16" y1="309.68" x2="253.69" y2="315.48"/><line x1="249.52" y1="345.68" x2="247.86" y2="348.62"/><line x1="161.80" y1="242.38" x2="160.57" y2="235.62"/><line x1="340.42" y1="253.89" x2="337.94" y2="251.97"/><line x1="206.39" y1="271.59" x2="212.23" y2="246.55"/><line x1="250.93" y1="342.63" x2="249.52" y2="345.68"/><line x1="266.90" y1="246.79" x2="263.34" y2="228.68"/><line x1="256.36" y1="350.12" x2="253.99" y2="349.74"/><line x1="241.36" y1="172.22" x2="246.66" y2="170.04"/><line x1="260.26" y1="184.74" x2="261.28" y2="181.08"/><line x1="264.93" y1="168.52" x2="266.78" y2="171.62"/><line x1="321.91" y1="274.16" x2="334.78" y2="250.59"/><line x1="250.26" y1="289.80" x2="251.45" y2="296.84"/><line x1="259.76" y1="202.38" x2="259.52" y2="197.54"/><line x1="264.54" y1="174.52" x2="260.79" y2="168.31"/><line x1="347.07" y1="264.82" x2="344.99" y2="260.31"/><line x1="271.98" y1="272.06" x2="266.90" y2="246.79"/><line x1="282.56" y1="324.70" x2="283.11" y2="328.15"/><line x1="252.08" y1="339.48" x2="260.53" y2="350.67"/><line x1="233.16" y1="201.27" x2="232.49" y2="196.41"/><line x1="250.18" y1="349.01" x2="249.68" y2="348.91"/><line x1="189.35" y1="244.73" x2="200.09" y2="245.87"/><line x1="260.79" y1="168.31" x2="261.63" y2="168.32"/><line x1="260.71" y1="212.49" x2="260.16" y2="207.37"/><line x1="346.03" y1="280.48" x2="349.03" y2="270.18"/><line x1="32.00" y1="447.50" x2="64.49" y2="479.98"/><line x1="253.61" y1="332.87" x2="274.39" y2="349.72"/></g></svg>