<svg xmlns="http://www.w3.org/2000/svg" width="512" height="512"><rect width="512" height="512" fill="#0a0f1a"/><text x="12" y="20" font-family="monospace" font-size="11" fill="#4a7fa5">FRONT (XZ)</text><g stroke="#00d4ff" stroke-width="0.6" opacity="0.85"><line x1="316.36" y1="480.00" x2="252.31" y2="338.36"/><line x1="316.36" y1="323.92" x2="316.36" y2="32.00"/><line x1="252.31" y1="338.36" x2="252.31" y2="480.00"/><line x1="316.36" y1="32.00" x2="308.97" y2="32.00"/><line x1="195.64" y1="317.63" x2="281.97" y2="310.44"/><line x1="316.36" y1="480.00" x2="316.36" y2="332.20"/><line x1="237.53" y1="480.00" x2="195.64" y2="480.00"/><line x1="281.97" y1="310.44" x2="316.36" y2="32.00"/><line x1="195.64" y1="317.63" x2="237.53" y2="331.31"/><line x1="237.53" y1="331.31" x2="316.36" y2="323.92"/><line x1="316.36" y1="480.00" x2="252.31" y2="480.00"/><line x1="237.53" y1="480.00" x2="195.64" y2="317.63"/><line x1="281.97" y1="310.44" x2="316.36" y2="323.92"/><line x1="195.64" y1="317.63" x2="195.64" y2="480.00"/><line x1="281.97" y1="310.44" x2="308.97" y2="32.00"/><line x1="252.31" y1="338.36" x2="316.36" y2="332.20"/><line x1="237.53" y1="480.00" x2="237.53" y2="331.31"/><line x1="237.53" y1="331.31" x2="281.97" y2="310.44"/></g></svg>