<svg xmlns="http://www.w3.org/2000/svg" width="512" height="512"><rect width="512" height="512" fill="#0a0f1a"/><text x="12" y="20" font-family="monospace" font-size="11" fill="#4a7fa5">FRONT (XZ)</text><g stroke="#00d4ff" stroke-width="0.6" opacity="0.85"><line x1="353.70" y1="267.94" x2="430.73" y2="267.93"/><line x1="81.27" y1="244.06" x2="42.76" y2="177.36"/><line x1="158.30" y1="401.35" x2="158.30" y2="267.94"/><line x1="81.27" y1="244.06" x2="196.81" y2="177.36"/><line x1="353.72" y1="401.35" x2="430.73" y2="267.93"/><line x1="294.51" y1="480.00" x2="217.49" y2="480.00"/><line x1="217.49" y1="480.00" x2="178.97" y2="413.30"/><line x1="294.51" y1="480.00" x2="333.03" y2="413.30"/><line x1="158.30" y1="110.65" x2="81.27" y2="110.65"/><line x1="81.27" y1="110.65" x2="42.76" y2="177.36"/><line x1="469.24" y1="177.34" x2="430.73" y2="110.65"/><line x1="42.76" y1="334.64" x2="81.27" y2="267.94"/><line x1="333.03" y1="98.71" x2="178.97" y2="98.71"/><line x1="178.97" y1="256.01" x2="217.49" y2="322.71"/><line x1="178.97" y1="98.71" x2="217.49" y2="32.00"/><line x1="81.27" y1="401.35" x2="158.30" y2="401.35"/><line x1="430.73" y1="267.93" x2="469.24" y2="334.64"/><line x1="315.19" y1="334.64" x2="353.72" y2="401.35"/><line x1="294.51" y1="322.71" x2="333.03" y2="256.01"/><line x1="333.03" y1="413.30" x2="294.51" y2="346.59"/><line x1="294.51" y1="322.71" x2="178.97" y2="256.01"/><line x1="430.73" y1="244.06" x2="353.70" y2="110.65"/><line x1="217.49" y1="165.42" x2="333.03" y2="98.71"/><line x1="217.49" y1="346.59" x2="178.97" y2="413.30"/><line x1="353.70" y1="267.94" x2="353.72" y2="401.35"/><line x1="430.73" y1="110.65" x2="353.70" y2="110.65"/><line x1="81.27" y1="244.06" x2="158.30" y2="244.06"/><line x1="158.30" y1="267.94" x2="196.82" y2="334.64"/><line x1="81.27" y1="244.06" x2="81.27" y2="110.65"/><line x1="353.72" y1="401.35" x2="430.73" y2="401.35"/><line x1="294.51" y1="480.00" x2="217.49" y2="346.59"/><line x1="294.51" y1="346.59" x2="217.49" y2="346.59"/><line x1="42.76" y1="334.64" x2="81.27" y2="401.35"/><line x1="178.97" y1="98.71" x2="294.51" y2="32.00"/><line x1="81.27" y1="267.94" x2="158.30" y2="267.94"/><line x1="81.27" y1="401.35" x2="81.27" y2="267.94"/><line x1="294.51" y1="32.00" x2="217.49" y2="32.00"/><line x1="294.51" y1="322.71" x2="217.49" y2="322.71"/><line x1="294.51" y1="322.71" x2="217.49" y2="189.29"/><line x1="158.30" y1="244.06" x2="196.81" y2="177.36"/><line x1="469.24" y1="334.64" x2="430.73" y2="401.35"/><line x1="430.73" y1="244.06" x2="430.73" y2="110.65"/><line x1="333.03" y1="256.01" x2="294.51" y2="189.29"/><line x1="430.73" y1="244.06" x2="353.70" y2="244.06"/><line x1="217.49" y1="165.42" x2="294.51" y2="165.42"/><line x1="217.49" y1="346.59" x2="217.49" y2="480.00"/><line x1="353.70" y1="267.94" x2="315.19" y2="334.64"/><line x1="353.70" y1="110.65" x2="315.19" y2="177.36"/><line x1="81.27" y1="244.06" x2="158.30" y2="110.65"/><line x1="353.72" y1="401.35" x2="469.24" y2="334.64"/><line x1="294.51" y1="480.00" x2="294.51" y2="346.59"/><line x1="158.30" y1="401.35" x2="196.82" y2="334.64"/><line x1="196.81" y1="177.36" x2="158.30" y2="110.65"/><line x1="294.51" y1="189.29" x2="217.49" y2="189.29"/><line x1="217.49" y1="189.29" x2="178.97" y2="256.01"/><line x1="430.73" y1="244.06" x2="315.19" y2="177.36"/><line x1="333.03" y1="98.71" x2="294.51" y2="32.00"/><line x1="315.19" y1="177.36" x2="353.70" y2="244.06"/><line x1="81.27" y1="267.94" x2="158.30" y2="401.35"/><line x1="294.51" y1="322.71" x2="294.51" y2="189.29"/><line x1="430.73" y1="244.06" x2="469.24" y2="177.34"/><line x1="217.49" y1="165.42" x2="178.97" y2="98.71"/><line x1="294.51" y1="165.42" x2="333.03" y2="98.71"/></g></svg>