<svg xmlns="http://www.w3.org/2000/svg" width="512" height="512"><rect width="512" height="512" fill="#0a0f1a"/><text x="12" y="20" font-family="monospace" font-size="11" fill="#4a7fa5">FRONT (XZ)</text><g stroke="#00d4ff" stroke-width="0.6" opacity="0.85"><line x1="163.90" y1="178.14" x2="163.90" y2="137.35"/><line x1="234.53" y1="333.86" x2="199.22" y2="292.46"/><line x1="461.80" y1="333.86" x2="480.00" y2="323.36"/><line x1="426.49" y1="416.05" x2="372.97" y2="385.15"/><line x1="426.49" y1="292.46" x2="426.49" y2="313.47"/><line x1="120.84" y1="137.35" x2="139.03" y2="126.85"/><line x1="277.60" y1="333.86" x2="277.60" y2="374.65"/><line x1="234.53" y1="178.14" x2="199.22" y2="198.53"/><line x1="195.81" y1="286.70" x2="177.62" y2="276.19"/><line x1="291.32" y1="276.19" x2="291.32" y2="235.41"/><line x1="312.78" y1="116.96" x2="312.78" y2="95.95"/><line x1="348.10" y1="137.35" x2="312.78" y2="116.96"/><line x1="423.08" y1="286.70" x2="423.08" y2="224.91"/><line x1="309.51" y1="224.91" x2="256.00" y2="194.01"/><line x1="32.00" y1="188.64" x2="32.00" y2="126.85"/><line x1="312.92" y1="292.46" x2="312.92" y2="313.47"/><line x1="202.49" y1="286.70" x2="220.68" y2="276.19"/><line x1="139.03" y1="126.85" x2="120.84" y2="178.14"/><line x1="163.90" y1="374.65" x2="199.22" y2="395.04"/><line x1="316.05" y1="286.70" x2="369.56" y2="317.60"/><line x1="256.00" y1="317.60" x2="309.51" y2="286.70"/><line x1="202.49" y1="224.91" x2="256.00" y2="215.02"/><line x1="177.62" y1="276.19" x2="195.81" y2="224.91"/><line x1="199.22" y1="313.47" x2="163.90" y2="333.86"/><line x1="120.84" y1="178.14" x2="139.03" y2="188.64"/><line x1="316.05" y1="224.91" x2="369.56" y2="194.01"/><line x1="423.08" y1="224.91" x2="369.56" y2="194.01"/><line x1="391.16" y1="374.65" x2="372.97" y2="385.15"/><line x1="334.25" y1="276.19" x2="369.56" y2="296.58"/><line x1="366.44" y1="323.36" x2="312.92" y2="292.46"/><line x1="145.70" y1="126.85" x2="199.22" y2="95.95"/><line x1="256.00" y1="215.02" x2="256.00" y2="194.01"/><line x1="252.73" y1="188.64" x2="199.22" y2="198.53"/><line x1="291.32" y1="235.41" x2="256.00" y2="215.02"/><line x1="234.53" y1="137.35" x2="199.22" y2="95.95"/><line x1="145.70" y1="323.36" x2="145.70" y2="385.15"/><line x1="312.78" y1="219.54" x2="259.27" y2="188.64"/><line x1="312.92" y1="416.05" x2="366.44" y2="385.15"/><line x1="372.97" y1="385.15" x2="391.16" y2="333.86"/><line x1="277.47" y1="137.35" x2="259.27" y2="126.85"/><line x1="202.49" y1="224.91" x2="220.68" y2="235.41"/><line x1="366.30" y1="126.85" x2="366.30" y2="188.64"/><line x1="199.22" y1="198.53" x2="199.22" y2="219.54"/><line x1="480.00" y1="385.15" x2="426.49" y2="395.04"/><line x1="50.20" y1="137.35" x2="32.00" y2="126.85"/><line x1="316.05" y1="224.91" x2="316.05" y2="286.70"/><line x1="312.92" y1="395.04" x2="348.24" y2="374.65"/><line x1="139.03" y1="188.64" x2="85.51" y2="198.53"/><line x1="404.88" y1="235.41" x2="369.56" y2="215.02"/><line x1="312.92" y1="313.47" x2="312.92" y2="292.46"/><line x1="85.51" y1="95.95" x2="85.51" y2="116.96"/><line x1="252.73" y1="385.15" x2="252.73" y2="323.36"/><line x1="32.00" y1="126.85" x2="85.51" y2="116.96"/><line x1="369.56" y1="296.58" x2="404.88" y2="276.19"/><line x1="234.53" y1="137.35" x2="252.73" y2="126.85"/><line x1="163.90" y1="333.86" x2="163.90" y2="374.65"/><line x1="391.16" y1="333.86" x2="372.97" y2="323.36"/><line x1="480.00" y1="323.36" x2="480.00" y2="385.15"/><line x1="369.56" y1="317.60" x2="369.56" y2="296.58"/><line x1="142.30" y1="194.01" x2="142.30" y2="215.02"/><line x1="106.98" y1="276.19" x2="142.30" y2="296.58"/><line x1="309.51" y1="286.70" x2="291.32" y2="276.19"/><line x1="145.70" y1="385.15" x2="199.22" y2="416.05"/><line x1="85.51" y1="219.54" x2="50.20" y2="178.14"/><line x1="88.78" y1="224.91" x2="142.30" y2="194.01"/><line x1="234.53" y1="374.65" x2="234.53" y2="333.86"/><line x1="199.22" y1="219.54" x2="163.90" y2="178.14"/><line x1="426.49" y1="395.04" x2="426.49" y2="416.05"/><line x1="142.30" y1="215.02" x2="106.98" y2="235.41"/><line x1="366.44" y1="385.15" x2="366.44" y2="323.36"/><line x1="372.97" y1="323.36" x2="426.49" y2="313.47"/><line x1="252.73" y1="126.85" x2="234.53" y2="178.14"/><line x1="348.24" y1="374.65" x2="348.24" y2="333.86"/><line x1="426.49" y1="313.47" x2="426.49" y2="292.46"/><line x1="366.30" y1="188.64" x2="312.78" y2="219.54"/><line x1="163.90" y1="178.14" x2="145.70" y2="188.64"/><line x1="259.40" y1="385.15" x2="312.92" y2="416.05"/><line x1="461.80" y1="333.86" x2="426.49" y2="313.47"/><line x1="85.51" y1="116.96" x2="85.51" y2="95.95"/><line x1="426.49" y1="416.05" x2="391.16" y2="374.65"/><line x1="145.70" y1="188.64" x2="163.90" y2="137.35"/><line x1="312.78" y1="95.95" x2="366.30" y2="126.85"/><line x1="234.53" y1="178.14" x2="252.73" y2="188.64"/><line x1="259.40" y1="323.36" x2="312.92" y2="292.46"/><line x1="259.27" y1="126.85" x2="312.78" y2="95.95"/><line x1="291.32" y1="276.19" x2="309.51" y2="224.91"/><line x1="50.20" y1="178.14" x2="32.00" y2="188.64"/><line x1="252.73" y1="323.36" x2="199.22" y2="292.46"/><line x1="404.88" y1="276.19" x2="404.88" y2="235.41"/><line x1="334.25" y1="235.41" x2="316.05" y2="286.70"/><line x1="220.68" y1="276.19" x2="256.00" y2="317.60"/><line x1="348.10" y1="137.35" x2="348.10" y2="178.14"/><line x1="142.30" y1="296.58" x2="177.62" y2="276.19"/><line x1="309.51" y1="224.91" x2="291.32" y2="235.41"/><line x1="199.22" y1="416.05" x2="252.73" y2="385.15"/><line x1="32.00" y1="188.64" x2="50.20" y2="137.35"/><line x1="145.70" y1="323.36" x2="199.22" y2="313.47"/><line x1="426.49" y1="292.46" x2="480.00" y2="323.36"/><line x1="316.05" y1="286.70" x2="334.25" y2="276.19"/><line x1="106.98" y1="235.41" x2="106.98" y2="276.19"/><line x1="256.00" y1="317.60" x2="256.00" y2="296.58"/><line x1="163.90" y1="137.35" x2="145.70" y2="126.85"/><line x1="259.40" y1="323.36" x2="259.40" y2="385.15"/><line x1="348.24" y1="333.86" x2="312.92" y2="313.47"/><line x1="199.22" y1="313.47" x2="199.22" y2="292.46"/><line x1="316.05" y1="224.91" x2="369.56" y2="215.02"/><line x1="277.60" y1="374.65" x2="312.92" y2="416.05"/><line x1="277.47" y1="178.14" x2="277.47" y2="137.35"/><line x1="145.70" y1="126.85" x2="199.22" y2="116.96"/><line x1="199.22" y1="395.04" x2="234.53" y2="374.65"/><line x1="291.32" y1="235.41" x2="256.00" y2="194.01"/><line x1="145.70" y1="323.36" x2="163.90" y2="333.86"/><line x1="139.03" y1="126.85" x2="139.03" y2="188.64"/><line x1="312.92" y1="416.05" x2="312.92" y2="395.04"/><line x1="348.10" y1="178.14" x2="312.78" y2="198.53"/><line x1="256.00" y1="194.01" x2="256.00" y2="215.02"/><line x1="88.78" y1="286.70" x2="142.30" y2="317.60"/><line x1="256.00" y1="296.58" x2="309.51" y2="286.70"/><line x1="202.49" y1="224.91" x2="256.00" y2="194.01"/><line x1="366.30" y1="126.85" x2="348.10" y2="178.14"/><line x1="316.05" y1="224.91" x2="334.25" y2="235.41"/><line x1="369.56" y1="215.02" x2="369.56" y2="194.01"/><line x1="391.16" y1="374.65" x2="391.16" y2="333.86"/><line x1="404.88" y1="235.41" x2="369.56" y2="194.01"/><line x1="220.68" y1="235.41" x2="202.49" y2="286.70"/><line x1="195.81" y1="224.91" x2="142.30" y2="194.01"/><line x1="259.27" y1="188.64" x2="259.27" y2="126.85"/><line x1="199.22" y1="116.96" x2="199.22" y2="95.95"/><line x1="252.73" y1="188.64" x2="199.22" y2="219.54"/><line x1="252.73" y1="385.15" x2="234.53" y2="374.65"/><line x1="461.80" y1="374.65" x2="426.49" y2="395.04"/><line x1="369.56" y1="296.58" x2="423.08" y2="286.70"/><line x1="142.30" y1="317.60" x2="195.81" y2="286.70"/><line x1="199.22" y1="95.95" x2="252.73" y2="126.85"/><line x1="106.98" y1="276.19" x2="142.30" y2="317.60"/><line x1="145.70" y1="385.15" x2="163.90" y2="374.65"/><line x1="277.47" y1="137.35" x2="312.78" y2="116.96"/><line x1="202.49" y1="224.91" x2="202.49" y2="286.70"/><line x1="120.84" y1="137.35" x2="85.51" y2="116.96"/><line x1="277.60" y1="333.86" x2="259.40" y2="385.15"/><line x1="480.00" y1="385.15" x2="426.49" y2="416.05"/><line x1="50.20" y1="137.35" x2="85.51" y2="116.96"/><line x1="139.03" y1="188.64" x2="85.51" y2="219.54"/><line x1="142.30" y1="215.02" x2="142.30" y2="194.01"/><line x1="88.78" y1="224.91" x2="88.78" y2="286.70"/><line x1="312.78" y1="198.53" x2="277.47" y2="178.14"/><line x1="177.62" y1="235.41" x2="142.30" y2="215.02"/><line x1="348.10" y1="137.35" x2="312.78" y2="95.95"/><line x1="85.51" y1="198.53" x2="50.20" y2="178.14"/><line x1="348.24" y1="374.65" x2="366.44" y2="323.36"/><line x1="85.51" y1="95.95" x2="139.03" y2="126.85"/><line x1="259.40" y1="385.15" x2="277.60" y2="374.65"/><line x1="423.08" y1="286.70" x2="404.88" y2="276.19"/><line x1="391.16" y1="333.86" x2="426.49" y2="313.47"/><line x1="234.53" y1="333.86" x2="199.22" y2="313.47"/><line x1="312.78" y1="95.95" x2="312.78" y2="116.96"/><line x1="259.40" y1="323.36" x2="312.92" y2="313.47"/><line x1="85.51" y1="219.54" x2="32.00" y2="188.64"/><line x1="163.90" y1="374.65" x2="199.22" y2="416.05"/><line x1="461.80" y1="333.86" x2="461.80" y2="374.65"/><line x1="120.84" y1="137.35" x2="120.84" y2="178.14"/><line x1="426.49" y1="395.04" x2="391.16" y2="374.65"/><line x1="404.88" y1="276.19" x2="423.08" y2="224.91"/><line x1="195.81" y1="286.70" x2="195.81" y2="224.91"/><line x1="423.08" y1="224.91" x2="404.88" y2="235.41"/><line x1="348.10" y1="137.35" x2="366.30" y2="126.85"/><line x1="252.73" y1="126.85" x2="252.73" y2="188.64"/><line x1="199.22" y1="416.05" x2="199.22" y2="395.04"/><line x1="334.25" y1="276.19" x2="369.56" y2="317.60"/><line x1="366.44" y1="323.36" x2="348.24" y2="333.86"/><line x1="106.98" y1="235.41" x2="88.78" y2="286.70"/><line x1="202.49" y1="286.70" x2="256.00" y2="317.60"/><line x1="312.78" y1="219.54" x2="277.47" y2="178.14"/><line x1="145.70" y1="188.64" x2="145.70" y2="126.85"/><line x1="259.40" y1="323.36" x2="277.60" y2="333.86"/><line x1="50.20" y1="178.14" x2="50.20" y2="137.35"/><line x1="348.24" y1="333.86" x2="312.92" y2="292.46"/><line x1="334.25" y1="235.41" x2="334.25" y2="276.19"/><line x1="177.62" y1="276.19" x2="177.62" y2="235.41"/><line x1="220.68" y1="276.19" x2="256.00" y2="296.58"/><line x1="277.47" y1="178.14" x2="259.27" y2="188.64"/><line x1="120.84" y1="178.14" x2="85.51" y2="198.53"/><line x1="312.92" y1="395.04" x2="366.44" y2="385.15"/><line x1="199.22" y1="292.46" x2="199.22" y2="313.47"/><line x1="199.22" y1="395.04" x2="252.73" y2="385.15"/><line x1="145.70" y1="323.36" x2="199.22" y2="292.46"/><line x1="256.00" y1="215.02" x2="220.68" y2="235.41"/><line x1="348.10" y1="178.14" x2="366.30" y2="188.64"/><line x1="234.53" y1="137.35" x2="199.22" y2="116.96"/><line x1="88.78" y1="286.70" x2="106.98" y2="276.19"/><line x1="163.90" y1="333.86" x2="145.70" y2="385.15"/><line x1="163.90" y1="137.35" x2="199.22" y2="116.96"/><line x1="372.97" y1="385.15" x2="372.97" y2="323.36"/><line x1="369.56" y1="194.01" x2="369.56" y2="215.02"/><line x1="480.00" y1="323.36" x2="461.80" y2="374.65"/><line x1="277.60" y1="374.65" x2="312.92" y2="395.04"/><line x1="88.78" y1="224.91" x2="142.30" y2="215.02"/><line x1="199.22" y1="198.53" x2="163.90" y2="178.14"/><line x1="195.81" y1="224.91" x2="177.62" y2="235.41"/><line x1="234.53" y1="374.65" x2="252.73" y2="323.36"/><line x1="259.27" y1="188.64" x2="277.47" y2="137.35"/><line x1="366.44" y1="385.15" x2="348.24" y2="374.65"/><line x1="312.92" y1="313.47" x2="277.60" y2="333.86"/><line x1="461.80" y1="374.65" x2="480.00" y2="385.15"/><line x1="142.30" y1="317.60" x2="142.30" y2="296.58"/><line x1="366.30" y1="188.64" x2="312.78" y2="198.53"/><line x1="32.00" y1="126.85" x2="85.51" y2="95.95"/><line x1="199.22" y1="95.95" x2="199.22" y2="116.96"/><line x1="234.53" y1="137.35" x2="234.53" y2="178.14"/><line x1="461.80" y1="333.86" x2="426.49" y2="292.46"/><line x1="256.00" y1="296.58" x2="291.32" y2="276.19"/><line x1="120.84" y1="137.35" x2="85.51" y2="95.95"/><line x1="369.56" y1="317.60" x2="423.08" y2="286.70"/><line x1="309.51" y1="286.70" x2="309.51" y2="224.91"/><line x1="259.27" y1="126.85" x2="312.78" y2="116.96"/><line x1="369.56" y1="215.02" x2="334.25" y2="235.41"/><line x1="88.78" y1="224.91" x2="106.98" y2="235.41"/><line x1="220.68" y1="235.41" x2="220.68" y2="276.19"/><line x1="312.78" y1="198.53" x2="312.78" y2="219.54"/><line x1="199.22" y1="219.54" x2="145.70" y2="188.64"/><line x1="177.62" y1="235.41" x2="142.30" y2="194.01"/><line x1="252.73" y1="323.36" x2="234.53" y2="333.86"/><line x1="85.51" y1="198.53" x2="85.51" y2="219.54"/><line x1="372.97" y1="323.36" x2="426.49" y2="292.46"/><line x1="142.30" y1="296.58" x2="195.81" y2="286.70"/></g></svg>