<svg xmlns="http://www.w3.org/2000/svg" width="512" height="512"><rect width="512" height="512" fill="#0a0f1a"/><text x="12" y="20" font-family="monospace" font-size="11" fill="#4a7fa5">FRONT (XZ)</text><g stroke="#00d4ff" stroke-width="0.6" opacity="0.85"><line x1="262.87" y1="243.44" x2="255.92" y2="224.96"/><line x1="216.06" y1="183.65" x2="196.30" y2="174.58"/><line x1="173.93" y1="306.61" x2="185.47" y2="290.28"/><line x1="245.85" y1="208.84" x2="232.58" y2="195.06"/><line x1="403.03" y1="118.53" x2="374.31" y2="124.69"/><line x1="144.46" y1="445.10" x2="152.18" y2="458.15"/><line x1="111.38" y1="198.69" x2="86.41" y2="194.42"/><line x1="196.30" y1="174.58" x2="207.77" y2="197.63"/><line x1="169.23" y1="285.68" x2="179.73" y2="270.57"/><line x1="121.29" y1="405.94" x2="109.86" y2="408.55"/><line x1="133.33" y1="205.30" x2="145.96" y2="225.83"/><line x1="75.83" y1="242.24" x2="77.92" y2="234.30"/><line x1="152.18" y1="458.15" x2="137.28" y2="465.71"/><line x1="307.01" y1="187.38" x2="294.56" y2="172.37"/><line x1="136.74" y1="432.04" x2="129.02" y2="419.00"/><line x1="109.86" y1="408.55" x2="116.71" y2="422.84"/><line x1="87.54" y1="178.29" x2="87.33" y2="170.16"/><line x1="177.17" y1="156.14" x2="173.34" y2="167.87"/><line x1="356.64" y1="182.26" x2="331.83" y2="184.82"/><line x1="75.98" y1="308.86" x2="66.41" y2="306.38"/><line x1="294.56" y1="172.37" x2="320.73" y2="168.61"/><line x1="110.31" y1="327.73" x2="105.32" y2="340.67"/><line x1="189.94" y1="225.48" x2="167.95" y2="225.65"/><line x1="259.48" y1="149.37" x2="288.18" y2="143.20"/><line x1="83.82" y1="330.03" x2="82.68" y2="340.67"/><line x1="331.83" y1="184.82" x2="339.52" y2="203.37"/><line x1="129.02" y1="419.00" x2="144.72" y2="412.81"/><line x1="66.41" y1="306.38" x2="77.48" y2="299.56"/><line x1="87.33" y1="170.16" x2="118.29" y2="161.57"/><line x1="167.95" y1="225.65" x2="180.67" y2="239.38"/><line x1="114.04" y1="246.65" x2="126.75" y2="260.38"/><line x1="144.72" y1="412.81" x2="136.02" y2="400.99"/><line x1="326.54" y1="119.23" x2="356.41" y2="111.85"/><line x1="118.29" y1="161.57" x2="86.52" y2="161.98"/><line x1="143.14" y1="355.91" x2="132.19" y2="346.52"/><line x1="68.72" y1="322.80" x2="67.23" y2="314.56"/><line x1="82.01" y1="281.09" x2="68.53" y2="274.10"/><line x1="356.41" y1="111.85" x2="334.95" y2="101.34"/><line x1="281.80" y1="87.35" x2="314.60" y2="76.27"/><line x1="285.96" y1="266.52" x2="266.85" y2="264.31"/><line x1="68.53" y1="274.10" x2="84.89" y2="271.90"/><line x1="199.02" y1="211.57" x2="189.94" y2="225.48"/><line x1="153.00" y1="281.10" x2="136.77" y2="276.50"/><line x1="88.05" y1="262.73" x2="91.43" y2="253.59"/><line x1="108.99" y1="295.05" x2="95.50" y2="288.06"/><line x1="164.79" y1="347.59" x2="176.41" y2="329.96"/><line x1="216.21" y1="109.47" x2="249.01" y2="98.41"/><line x1="173.93" y1="306.61" x2="169.23" y2="285.68"/><line x1="150.38" y1="142.31" x2="149.25" y2="152.95"/><line x1="218.45" y1="323.96" x2="203.38" y2="343.93"/><line x1="95.50" y1="288.06" x2="91.70" y2="298.49"/><line x1="91.43" y1="253.59" x2="75.83" y2="242.24"/><line x1="128.25" y1="323.04" x2="121.25" y2="337.12"/><line x1="95.54" y1="330.07" x2="92.51" y2="341.86"/><line x1="215.05" y1="277.37" x2="228.65" y2="259.90"/><line x1="75.83" y1="242.24" x2="94.93" y2="244.45"/><line x1="201.22" y1="240.40" x2="211.93" y2="225.31"/><line x1="405.82" y1="63.67" x2="396.85" y2="84.14"/><line x1="177.17" y1="156.14" x2="149.25" y2="152.95"/><line x1="81.93" y1="218.39" x2="83.70" y2="210.43"/><line x1="230.77" y1="155.54" x2="223.77" y2="169.62"/><line x1="150.62" y1="131.61" x2="150.38" y2="142.31"/><line x1="221.77" y1="241.42" x2="233.93" y2="225.13"/><line x1="163.72" y1="191.17" x2="158.14" y2="202.75"/><line x1="163.99" y1="404.30" x2="153.42" y2="424.64"/><line x1="83.82" y1="330.03" x2="92.51" y2="341.86"/><line x1="105.34" y1="217.03" x2="108.51" y2="207.87"/><line x1="207.04" y1="148.76" x2="202.06" y2="161.70"/><line x1="98.13" y1="366.78" x2="96.15" y2="379.97"/><line x1="141.36" y1="184.50" x2="137.56" y2="194.92"/><line x1="74.95" y1="327.62" x2="75.58" y2="337.09"/><line x1="283.43" y1="244.47" x2="285.96" y2="266.52"/><line x1="277.91" y1="224.79" x2="292.68" y2="206.10"/><line x1="105.84" y1="379.84" x2="103.00" y2="394.26"/><line x1="144.41" y1="263.78" x2="153.00" y2="281.10"/><line x1="257.39" y1="192.51" x2="268.40" y2="176.13"/><line x1="388.60" y1="139.85" x2="373.07" y2="161.09"/><line x1="121.29" y1="405.94" x2="127.32" y2="389.16"/><line x1="68.72" y1="322.80" x2="75.11" y2="318.21"/><line x1="99.73" y1="277.68" x2="108.99" y2="295.05"/><line x1="87.21" y1="186.37" x2="87.54" y2="178.29"/><line x1="176.97" y1="355.77" x2="164.79" y2="347.59"/><line x1="189.89" y1="187.41" x2="182.95" y2="200.18"/><line x1="242.23" y1="179.89" x2="251.24" y2="164.66"/><line x1="159.09" y1="300.82" x2="173.93" y2="306.61"/><line x1="113.88" y1="189.46" x2="115.92" y2="180.21"/><line x1="199.02" y1="211.57" x2="175.60" y2="212.93"/><line x1="113.57" y1="392.89" x2="118.62" y2="377.34"/><line x1="123.96" y1="226.00" x2="119.02" y2="236.33"/><line x1="180.20" y1="144.35" x2="150.38" y2="142.31"/><line x1="77.48" y1="299.56" x2="66.53" y2="290.16"/><line x1="233.29" y1="329.74" x2="218.45" y2="323.96"/><line x1="306.18" y1="154.73" x2="316.89" y2="137.02"/><line x1="216.21" y1="109.47" x2="246.17" y2="112.83"/><line x1="127.32" y1="389.16" x2="134.66" y2="372.49"/><line x1="116.06" y1="314.85" x2="128.25" y2="323.04"/><line x1="150.38" y1="142.31" x2="177.17" y2="156.14"/><line x1="218.45" y1="323.96" x2="216.86" y2="350.91"/><line x1="333.65" y1="149.77" x2="345.60" y2="130.86"/><line x1="217.94" y1="299.45" x2="215.05" y2="277.37"/><line x1="128.25" y1="323.04" x2="110.31" y2="327.73"/><line x1="273.05" y1="118.55" x2="278.10" y2="103.00"/><line x1="209.55" y1="257.69" x2="201.22" y2="240.40"/><line x1="95.54" y1="330.07" x2="83.82" y2="330.03"/><line x1="85.02" y1="153.75" x2="117.82" y2="142.68"/><line x1="215.05" y1="277.37" x2="232.71" y2="280.77"/><line x1="171.34" y1="253.28" x2="162.07" y2="267.18"/><line x1="211.14" y1="135.75" x2="230.77" y2="155.54"/><line x1="201.22" y1="240.40" x2="221.77" y2="241.42"/><line x1="120.52" y1="271.91" x2="114.57" y2="283.47"/><line x1="405.82" y1="63.67" x2="427.80" y2="75.54"/><line x1="144.43" y1="383.10" x2="154.08" y2="365.30"/><line x1="186.90" y1="393.47" x2="163.99" y2="404.30"/><line x1="81.93" y1="218.39" x2="105.34" y2="217.03"/><line x1="230.77" y1="155.54" x2="207.04" y2="148.76"/><line x1="140.43" y1="331.22" x2="149.44" y2="315.99"/><line x1="109.92" y1="365.52" x2="98.13" y2="366.78"/><line x1="150.62" y1="131.61" x2="180.20" y2="144.35"/><line x1="374.31" y1="124.69" x2="361.12" y2="144.82"/><line x1="163.72" y1="191.17" x2="141.36" y2="184.50"/><line x1="70.05" y1="266.11" x2="71.82" y2="258.14"/><line x1="163.99" y1="404.30" x2="173.77" y2="414.91"/><line x1="255.92" y1="224.96" x2="277.91" y2="224.79"/><line x1="98.13" y1="366.78" x2="105.84" y2="379.84"/><line x1="232.58" y1="195.06" x2="257.39" y2="192.51"/><line x1="74.95" y1="327.62" x2="68.72" y2="322.80"/><line x1="277.91" y1="224.79" x2="269.26" y2="207.46"/><line x1="207.77" y1="197.63" x2="189.89" y2="187.41"/><line x1="257.39" y1="192.51" x2="242.23" y2="179.89"/><line x1="388.60" y1="139.85" x2="361.12" y2="144.82"/><line x1="87.21" y1="186.37" x2="113.88" y2="189.46"/><line x1="189.89" y1="187.41" x2="199.02" y2="211.57"/><line x1="201.33" y1="372.15" x2="186.90" y2="393.47"/><line x1="339.52" y1="203.37" x2="321.90" y2="224.44"/><line x1="128.77" y1="215.67" x2="123.96" y2="226.00"/><line x1="113.57" y1="392.89" x2="127.32" y2="389.16"/><line x1="316.10" y1="204.74" x2="299.91" y2="224.61"/><line x1="136.02" y1="400.99" x2="144.43" y2="383.10"/><line x1="77.48" y1="299.56" x2="66.20" y2="298.25"/><line x1="306.18" y1="154.73" x2="333.65" y2="149.77"/><line x1="160.13" y1="238.36" x2="152.24" y2="251.06"/><line x1="266.79" y1="134.00" x2="273.05" y2="118.55"/><line x1="109.09" y1="256.98" x2="104.29" y2="267.32"/><line x1="154.21" y1="393.69" x2="165.01" y2="374.69"/><line x1="86.52" y1="161.98" x2="85.02" y2="153.75"/><line x1="152.61" y1="339.41" x2="162.92" y2="322.98"/><line x1="266.85" y1="264.31" x2="250.38" y2="284.16"/><line x1="84.89" y1="271.90" x2="88.05" y2="262.73"/><line x1="365.90" y1="92.74" x2="373.88" y2="73.50"/><line x1="85.02" y1="153.75" x2="118.45" y2="152.16"/><line x1="268.04" y1="287.56" x2="250.41" y2="308.63"/><line x1="144.25" y1="295.03" x2="135.95" y2="309.01"/><line x1="150.62" y1="131.61" x2="183.42" y2="120.54"/><line x1="91.70" y1="298.49" x2="88.42" y2="308.95"/><line x1="374.31" y1="124.69" x2="388.60" y2="139.85"/><line x1="189.89" y1="336.94" x2="203.60" y2="318.17"/><line x1="129.41" y1="289.24" x2="122.47" y2="302.03"/><line x1="185.47" y1="290.28" x2="197.39" y2="273.97"/><line x1="103.88" y1="306.67" x2="99.36" y2="318.34"/><line x1="94.93" y1="244.45" x2="98.47" y2="235.32"/><line x1="137.28" y1="465.71" x2="144.13" y2="480.00"/><line x1="179.73" y1="270.57" x2="190.44" y2="255.48"/><line x1="149.25" y1="152.95" x2="147.30" y2="163.53"/><line x1="203.38" y1="343.93" x2="189.15" y2="363.96"/><line x1="77.92" y1="234.30" x2="79.98" y2="226.35"/><line x1="242.10" y1="127.15" x2="236.92" y2="141.39"/><line x1="320.73" y1="168.61" x2="306.18" y2="154.73"/><line x1="121.25" y1="337.12" x2="115.10" y2="351.28"/><line x1="173.34" y1="167.87" x2="168.83" y2="179.54"/><line x1="92.51" y1="341.86" x2="82.45" y2="351.38"/><line x1="339.52" y1="203.37" x2="316.10" y2="204.74"/><line x1="228.65" y1="259.90" x2="242.32" y2="242.43"/><line x1="105.32" y1="340.67" x2="101.22" y2="353.68"/><line x1="180.67" y1="239.38" x2="160.13" y2="238.36"/><line x1="211.93" y1="225.31" x2="222.43" y2="210.20"/><line x1="396.85" y1="84.14" x2="386.29" y2="104.47"/><line x1="83.70" y1="210.43" x2="85.22" y2="202.44"/><line x1="247.75" y1="262.10" x2="262.87" y2="243.44"/><line x1="136.02" y1="400.99" x2="154.21" y2="393.69"/><line x1="223.77" y1="169.62" x2="216.06" y2="183.65"/><line x1="160.13" y1="238.36" x2="171.34" y2="253.28"/><line x1="233.93" y1="225.13" x2="245.85" y2="208.84"/><line x1="158.14" y1="202.75" x2="152.18" y2="214.30"/><line x1="109.09" y1="256.98" x2="120.52" y2="271.91"/><line x1="108.51" y1="207.87" x2="111.38" y2="198.69"/><line x1="154.21" y1="393.69" x2="144.43" y2="383.10"/><line x1="202.06" y1="161.70" x2="196.30" y2="174.58"/><line x1="334.95" y1="101.34" x2="365.90" y2="92.74"/><line x1="152.61" y1="339.41" x2="140.43" y2="331.22"/><line x1="137.56" y1="194.92" x2="133.33" y2="205.30"/><line x1="162.13" y1="436.46" x2="152.18" y2="458.15"/><line x1="266.85" y1="264.31" x2="268.04" y2="287.56"/><line x1="84.89" y1="271.90" x2="70.05" y2="266.11"/><line x1="365.90" y1="92.74" x2="341.96" y2="83.33"/><line x1="136.77" y1="276.50" x2="144.25" y2="295.03"/><line x1="75.11" y1="318.21" x2="75.98" y2="308.86"/><line x1="268.04" y1="287.56" x2="250.38" y2="284.16"/><line x1="282.20" y1="189.94" x2="294.56" y2="172.37"/><line x1="176.41" y1="329.96" x2="189.89" y2="336.94"/><line x1="144.25" y1="295.03" x2="129.41" y2="289.24"/><line x1="251.24" y1="164.66" x2="259.48" y2="149.37"/><line x1="91.70" y1="298.49" x2="103.88" y2="306.67"/><line x1="189.89" y1="336.94" x2="188.77" y2="312.38"/><line x1="288.18" y1="143.20" x2="266.79" y2="134.00"/><line x1="246.17" y1="112.83" x2="249.01" y2="98.41"/><line x1="185.47" y1="290.28" x2="179.73" y2="270.57"/><line x1="119.02" y1="236.33" x2="114.04" y2="246.65"/><line x1="216.86" y1="350.91" x2="203.38" y2="343.93"/><line x1="232.71" y1="280.77" x2="247.75" y2="262.10"/><line x1="94.93" y1="244.45" x2="77.92" y2="234.30"/><line x1="126.75" y1="260.38" x2="109.09" y2="256.98"/><line x1="427.80" y1="75.54" x2="416.16" y2="97.09"/><line x1="149.25" y1="152.95" x2="173.34" y2="167.87"/><line x1="203.38" y1="343.93" x2="201.33" y2="372.15"/><line x1="132.19" y1="346.52" x2="152.61" y2="339.41"/><line x1="162.92" y1="322.98" x2="173.93" y2="306.61"/><line x1="121.25" y1="337.12" x2="105.32" y2="340.67"/><line x1="173.77" y1="414.91" x2="162.13" y2="436.46"/><line x1="92.51" y1="341.86" x2="82.68" y2="340.67"/><line x1="228.65" y1="259.90" x2="247.75" y2="262.10"/><line x1="314.60" y1="76.27" x2="310.02" y2="93.17"/><line x1="211.93" y1="225.31" x2="233.93" y2="225.13"/><line x1="396.85" y1="84.14" x2="416.16" y2="97.09"/><line x1="153.42" y1="424.64" x2="144.46" y2="445.10"/><line x1="269.26" y1="207.46" x2="282.20" y2="189.94"/><line x1="83.70" y1="210.43" x2="108.51" y2="207.87"/><line x1="135.95" y1="309.01" x2="128.25" y2="323.04"/><line x1="223.77" y1="169.62" x2="202.06" y2="161.70"/><line x1="361.12" y1="144.82" x2="346.90" y2="164.85"/><line x1="158.14" y1="202.75" x2="137.56" y2="194.92"/><line x1="169.23" y1="285.68" x2="185.47" y2="290.28"/><line x1="292.68" y1="206.10" x2="307.01" y2="187.38"/><line x1="268.40" y1="176.13" x2="278.71" y2="159.70"/><line x1="373.07" y1="161.09" x2="356.64" y2="182.26"/><line x1="136.74" y1="432.04" x2="130.42" y2="451.41"/><line x1="87.54" y1="178.29" x2="117.42" y2="170.91"/><line x1="437.74" y1="53.85" x2="427.80" y2="75.54"/><line x1="139.57" y1="237.35" x2="133.13" y2="248.86"/><line x1="110.31" y1="327.73" x2="121.25" y2="337.12"/><line x1="123.57" y1="437.14" x2="129.02" y2="419.00"/><line x1="118.62" y1="377.34" x2="124.87" y2="361.89"/><line x1="321.90" y1="224.44" x2="303.98" y2="245.49"/><line x1="66.53" y1="290.16" x2="67.34" y2="282.11"/><line x1="316.89" y1="137.02" x2="326.54" y2="119.23"/><line x1="296.66" y1="126.62" x2="303.99" y2="109.95"/><line x1="299.91" y1="224.61" x2="283.43" y2="244.47"/><line x1="79.51" y1="290.30" x2="82.01" y2="281.09"/><line x1="232.71" y1="280.77" x2="228.65" y2="259.90"/><line x1="152.24" y1="251.06" x2="144.41" y2="263.78"/><line x1="278.10" y1="103.00" x2="281.80" y2="87.35"/><line x1="104.29" y1="267.32" x2="99.73" y2="277.68"/><line x1="427.80" y1="75.54" x2="396.85" y2="84.14"/><line x1="165.01" y1="374.69" x2="176.97" y2="355.77"/><line x1="162.92" y1="322.98" x2="159.09" y2="300.82"/><line x1="114.57" y1="283.47" x2="108.99" y2="295.05"/><line x1="88.05" y1="262.73" x2="73.77" y2="250.19"/><line x1="173.77" y1="414.91" x2="153.42" y2="424.64"/><line x1="373.88" y1="73.50" x2="380.20" y2="54.14"/><line x1="145.96" y1="225.83" x2="139.57" y2="237.35"/><line x1="182.32" y1="132.48" x2="180.20" y2="144.35"/><line x1="250.41" y1="308.63" x2="233.29" y2="329.74"/><line x1="269.26" y1="207.46" x2="292.68" y2="206.10"/><line x1="135.95" y1="309.01" x2="116.06" y2="314.85"/><line x1="96.15" y1="379.97" x2="103.00" y2="394.26"/><line x1="413.00" y1="43.06" x2="405.82" y2="63.67"/><line x1="88.42" y1="308.95" x2="85.76" y2="319.46"/><line x1="361.12" y1="144.82" x2="373.07" y2="161.09"/><line x1="197.39" y1="273.97" x2="209.55" y2="257.69"/><line x1="268.40" y1="176.13" x2="251.24" y2="164.66"/><line x1="99.36" y1="318.34" x2="95.54" y2="330.07"/><line x1="98.47" y1="235.32" x2="101.97" y2="226.18"/><line x1="136.74" y1="432.04" x2="123.57" y2="437.14"/><line x1="87.54" y1="178.29" x2="115.92" y2="180.21"/><line x1="190.44" y1="255.48" x2="201.22" y2="240.40"/><line x1="139.57" y1="237.35" x2="119.02" y2="236.33"/><line x1="79.98" y1="226.35" x2="81.93" y2="218.39"/><line x1="221.77" y1="241.42" x2="211.93" y2="225.31"/><line x1="118.62" y1="377.34" x2="134.66" y2="372.49"/><line x1="105.34" y1="217.03" x2="83.70" y2="210.43"/><line x1="168.83" y1="179.54" x2="163.72" y2="191.17"/><line x1="207.04" y1="148.76" x2="223.77" y2="169.62"/><line x1="321.90" y1="224.44" x2="299.91" y2="224.61"/><line x1="66.53" y1="290.16" x2="79.51" y2="290.30"/><line x1="141.36" y1="184.50" x2="158.14" y2="202.75"/><line x1="101.22" y1="353.68" x2="98.13" y2="366.78"/><line x1="296.66" y1="126.62" x2="278.10" y2="103.00"/><line x1="105.84" y1="379.84" x2="96.15" y2="379.97"/><line x1="111.38" y1="198.69" x2="113.88" y2="189.46"/><line x1="118.45" y1="152.16" x2="117.82" y2="142.68"/><line x1="121.29" y1="405.94" x2="113.57" y2="392.89"/><line x1="152.24" y1="251.06" x2="162.07" y2="267.18"/><line x1="68.72" y1="322.80" x2="75.58" y2="337.09"/><line x1="250.38" y1="284.16" x2="234.17" y2="304.04"/><line x1="104.29" y1="267.32" x2="114.57" y2="283.47"/><line x1="242.23" y1="179.89" x2="268.40" y2="176.13"/><line x1="162.92" y1="322.98" x2="149.44" y2="315.99"/><line x1="113.88" y1="189.46" x2="87.54" y2="178.29"/><line x1="199.02" y1="211.57" x2="182.95" y2="200.18"/><line x1="88.05" y1="262.73" x2="71.82" y2="258.14"/><line x1="373.88" y1="73.50" x2="347.40" y2="65.20"/><line x1="123.96" y1="226.00" x2="139.57" y2="237.35"/><line x1="182.32" y1="132.48" x2="183.42" y2="120.54"/><line x1="127.32" y1="389.16" x2="118.62" y2="377.34"/><line x1="203.60" y1="318.17" x2="217.94" y2="299.45"/><line x1="135.95" y1="309.01" x2="122.47" y2="302.03"/><line x1="66.20" y1="298.25" x2="66.53" y2="290.16"/><line x1="333.65" y1="149.77" x2="316.89" y2="137.02"/><line x1="413.00" y1="43.06" x2="445.80" y2="32.00"/><line x1="88.42" y1="308.95" x2="99.36" y2="318.34"/><line x1="273.05" y1="118.55" x2="296.66" y2="126.62"/><line x1="214.24" y1="122.66" x2="211.14" y2="135.75"/><line x1="303.99" y1="109.95" x2="310.02" y2="93.17"/><line x1="197.39" y1="273.97" x2="190.44" y2="255.48"/><line x1="147.30" y1="163.53" x2="144.64" y2="174.03"/><line x1="171.34" y1="253.28" x2="152.24" y2="251.06"/><line x1="98.47" y1="235.32" x2="79.98" y2="226.35"/><line x1="120.52" y1="271.91" x2="104.29" y2="267.32"/><line x1="115.10" y1="351.28" x2="109.92" y2="365.52"/><line x1="144.43" y1="383.10" x2="165.01" y2="374.69"/><line x1="341.96" y1="83.33" x2="347.40" y2="65.20"/><line x1="82.45" y1="351.38" x2="89.29" y2="365.68"/><line x1="140.43" y1="331.22" x2="162.92" y2="322.98"/><line x1="242.32" y1="242.43" x2="255.92" y2="224.96"/><line x1="70.05" y1="266.11" x2="88.05" y2="262.73"/><line x1="222.43" y1="210.20" x2="232.58" y2="195.06"/><line x1="108.99" y1="295.05" x2="103.88" y2="306.67"/><line x1="386.29" y1="104.47" x2="374.31" y2="124.69"/><line x1="216.21" y1="109.47" x2="214.24" y2="122.66"/><line x1="85.22" y1="202.44" x2="86.41" y2="194.42"/><line x1="216.06" y1="183.65" x2="207.77" y2="197.63"/><line x1="188.77" y1="312.38" x2="201.70" y2="294.86"/><line x1="152.18" y1="214.30" x2="145.96" y2="225.83"/><line x1="144.46" y1="445.10" x2="137.28" y2="465.71"/><line x1="121.29" y1="405.94" x2="116.71" y2="422.84"/><line x1="67.23" y1="314.56" x2="66.41" y2="306.38"/><line x1="250.38" y1="284.16" x2="250.41" y2="308.63"/><line x1="307.01" y1="187.38" x2="320.73" y2="168.61"/><line x1="201.33" y1="372.15" x2="175.96" y2="384.08"/><line x1="278.71" y1="159.70" x2="288.18" y2="143.20"/><line x1="356.64" y1="182.26" x2="339.52" y2="203.37"/><line x1="189.94" y1="225.48" x2="180.67" y2="239.38"/><line x1="316.10" y1="204.74" x2="321.90" y2="224.44"/><line x1="133.13" y1="248.86" x2="126.75" y2="260.38"/><line x1="129.02" y1="419.00" x2="136.02" y2="400.99"/><line x1="87.33" y1="170.16" x2="86.52" y2="161.98"/><line x1="416.16" y1="97.09" x2="403.03" y2="118.53"/><line x1="124.87" y1="361.89" x2="132.19" y2="346.52"/><line x1="326.54" y1="119.23" x2="334.95" y2="101.34"/><line x1="303.99" y1="109.95" x2="314.60" y2="76.27"/><line x1="176.97" y1="355.77" x2="189.89" y2="336.94"/><line x1="82.01" y1="281.09" x2="84.89" y2="271.90"/><line x1="341.96" y1="83.33" x2="373.88" y2="73.50"/><line x1="82.45" y1="351.38" x2="90.40" y2="353.73"/><line x1="150.62" y1="131.61" x2="182.32" y2="132.48"/><line x1="108.99" y1="295.05" x2="91.70" y2="298.49"/><line x1="129.41" y1="289.24" x2="135.95" y2="309.01"/><line x1="216.21" y1="109.47" x2="242.10" y2="127.15"/><line x1="85.22" y1="202.44" x2="111.38" y2="198.69"/><line x1="103.88" y1="306.67" x2="88.42" y2="308.95"/><line x1="117.42" y1="170.91" x2="118.29" y2="161.57"/><line x1="188.77" y1="312.38" x2="203.60" y2="318.17"/><line x1="152.18" y1="214.30" x2="133.33" y2="205.30"/><line x1="91.43" y1="253.59" x2="94.93" y2="244.45"/><line x1="179.73" y1="270.57" x2="197.39" y2="273.97"/><line x1="77.92" y1="234.30" x2="98.47" y2="235.32"/><line x1="242.10" y1="127.15" x2="214.24" y2="122.66"/><line x1="67.23" y1="314.56" x2="75.98" y2="308.86"/><line x1="173.34" y1="167.87" x2="147.30" y2="163.53"/><line x1="67.34" y1="282.11" x2="68.53" y2="274.10"/><line x1="201.33" y1="372.15" x2="189.15" y2="363.96"/><line x1="278.71" y1="159.70" x2="259.48" y2="149.37"/><line x1="105.32" y1="340.67" x2="115.10" y2="351.28"/><line x1="82.68" y1="340.67" x2="82.45" y2="351.38"/><line x1="247.75" y1="262.10" x2="242.32" y2="242.43"/><line x1="133.13" y1="248.86" x2="114.04" y2="246.65"/><line x1="233.93" y1="225.13" x2="222.43" y2="210.20"/><line x1="416.16" y1="97.09" x2="386.29" y2="104.47"/><line x1="124.87" y1="361.89" x2="143.14" y2="355.91"/><line x1="108.51" y1="207.87" x2="85.22" y2="202.44"/><line x1="202.06" y1="161.70" x2="216.06" y2="183.65"/><line x1="74.95" y1="327.62" x2="75.11" y2="318.21"/><line x1="283.43" y1="244.47" x2="266.85" y2="264.31"/><line x1="137.56" y1="194.92" x2="152.18" y2="214.30"/><line x1="144.41" y1="263.78" x2="136.77" y2="276.50"/><line x1="162.13" y1="436.46" x2="144.46" y2="445.10"/><line x1="303.99" y1="109.95" x2="281.80" y2="87.35"/><line x1="99.73" y1="277.68" x2="95.50" y2="288.06"/><line x1="176.97" y1="355.77" x2="176.41" y2="329.96"/><line x1="346.90" y1="164.85" x2="331.83" y2="184.82"/><line x1="75.11" y1="318.21" x2="67.23" y2="314.56"/><line x1="159.09" y1="300.82" x2="169.23" y2="285.68"/><line x1="282.20" y1="189.94" x2="307.01" y2="187.38"/><line x1="175.60" y1="212.93" x2="167.95" y2="225.65"/><line x1="251.24" y1="164.66" x2="278.71" y2="159.70"/><line x1="115.92" y1="180.21" x2="117.42" y2="170.91"/><line x1="180.20" y1="144.35" x2="177.17" y2="156.14"/><line x1="77.48" y1="299.56" x2="79.51" y2="290.30"/><line x1="233.29" y1="329.74" x2="216.86" y2="350.91"/><line x1="134.66" y1="372.49" x2="143.14" y2="355.91"/><line x1="119.02" y1="236.33" x2="133.13" y2="248.86"/><line x1="116.06" y1="314.85" x2="110.31" y2="327.73"/><line x1="345.60" y1="130.86" x2="356.41" y2="111.85"/><line x1="117.42" y1="170.91" x2="87.33" y2="170.16"/><line x1="217.94" y1="299.45" x2="232.71" y2="280.77"/><line x1="303.98" y1="245.49" x2="285.96" y2="266.52"/><line x1="209.55" y1="257.69" x2="221.77" y2="241.42"/><line x1="162.07" y1="267.18" x2="153.00" y2="281.10"/><line x1="211.14" y1="135.75" x2="207.04" y2="148.76"/><line x1="154.08" y1="365.30" x2="164.79" y2="347.59"/><line x1="67.34" y1="282.11" x2="82.01" y2="281.09"/><line x1="186.90" y1="393.47" x2="173.77" y2="414.91"/><line x1="109.92" y1="365.52" x2="105.84" y2="379.84"/><line x1="153.42" y1="424.64" x2="162.13" y2="436.46"/><line x1="255.92" y1="224.96" x2="269.26" y2="207.46"/><line x1="234.17" y1="304.04" x2="218.45" y2="323.96"/><line x1="73.77" y1="250.19" x2="75.83" y2="242.24"/><line x1="232.58" y1="195.06" x2="242.23" y2="179.89"/><line x1="292.68" y1="206.10" x2="282.20" y2="189.94"/><line x1="207.77" y1="197.63" x2="199.02" y2="211.57"/><line x1="373.07" y1="161.09" x2="346.90" y2="164.85"/><line x1="201.70" y1="294.86" x2="215.05" y2="277.37"/><line x1="182.95" y1="200.18" x2="175.60" y2="212.93"/><line x1="437.74" y1="53.85" x2="405.82" y2="63.67"/><line x1="85.76" y1="319.46" x2="83.82" y2="330.03"/><line x1="346.90" y1="164.85" x2="356.64" y2="182.26"/><line x1="123.57" y1="437.14" x2="130.42" y2="451.41"/><line x1="236.92" y1="141.39" x2="230.77" y2="155.54"/><line x1="175.60" y1="212.93" x2="189.94" y2="225.48"/><line x1="101.97" y1="226.18" x2="105.34" y2="217.03"/><line x1="316.89" y1="137.02" x2="345.60" y2="130.86"/><line x1="134.66" y1="372.49" x2="124.87" y2="361.89"/><line x1="144.64" y1="174.03" x2="141.36" y2="184.50"/><line x1="299.91" y1="224.61" x2="303.98" y2="245.49"/><line x1="79.51" y1="290.30" x2="67.34" y2="282.11"/><line x1="345.60" y1="130.86" x2="326.54" y2="119.23"/><line x1="278.10" y1="103.00" x2="303.99" y2="109.95"/><line x1="303.98" y1="245.49" x2="283.43" y2="244.47"/><line x1="165.01" y1="374.69" x2="154.08" y2="365.30"/><line x1="162.07" y1="267.18" x2="144.41" y2="263.78"/><line x1="114.57" y1="283.47" x2="99.73" y2="277.68"/><line x1="154.08" y1="365.30" x2="176.97" y2="355.77"/><line x1="149.44" y1="315.99" x2="159.09" y2="300.82"/><line x1="145.96" y1="225.83" x2="123.96" y2="226.00"/><line x1="250.41" y1="308.63" x2="234.17" y2="304.04"/><line x1="71.82" y1="258.14" x2="73.77" y2="250.19"/><line x1="347.40" y1="65.20" x2="380.20" y2="54.14"/><line x1="288.18" y1="143.20" x2="296.66" y2="126.62"/><line x1="234.17" y1="304.04" x2="233.29" y2="329.74"/><line x1="118.29" y1="161.57" x2="118.45" y2="152.16"/><line x1="73.77" y1="250.19" x2="91.43" y2="253.59"/><line x1="122.47" y1="302.03" x2="116.06" y2="314.85"/><line x1="99.36" y1="318.34" x2="85.76" y2="319.46"/><line x1="201.70" y1="294.86" x2="217.94" y2="299.45"/><line x1="190.44" y1="255.48" x2="209.55" y2="257.69"/><line x1="320.73" y1="168.61" x2="333.65" y2="149.77"/><line x1="437.74" y1="53.85" x2="445.80" y2="32.00"/><line x1="175.96" y1="384.08" x2="163.99" y2="404.30"/><line x1="85.76" y1="319.46" x2="95.54" y2="330.07"/><line x1="79.98" y1="226.35" x2="101.97" y2="226.18"/><line x1="236.92" y1="141.39" x2="211.14" y2="135.75"/><line x1="92.51" y1="341.86" x2="90.40" y2="353.73"/><line x1="168.83" y1="179.54" x2="144.64" y2="174.03"/><line x1="180.67" y1="239.38" x2="171.34" y2="253.28"/><line x1="262.87" y1="243.44" x2="277.91" y2="224.79"/><line x1="101.97" y1="226.18" x2="81.93" y2="218.39"/><line x1="101.22" y1="353.68" x2="109.92" y2="365.52"/><line x1="245.85" y1="208.84" x2="257.39" y2="192.51"/><line x1="403.03" y1="118.53" x2="388.60" y2="139.85"/><line x1="144.64" y1="174.03" x2="163.72" y2="191.17"/><line x1="90.40" y1="353.73" x2="89.29" y2="365.68"/><line x1="111.38" y1="198.69" x2="87.21" y2="186.37"/><line x1="196.30" y1="174.58" x2="189.89" y2="187.41"/><line x1="334.95" y1="101.34" x2="341.96" y2="83.33"/><line x1="133.33" y1="205.30" x2="128.77" y2="215.67"/><line x1="152.18" y1="458.15" x2="144.13" y2="480.00"/><line x1="136.74" y1="432.04" x2="144.72" y2="412.81"/><line x1="109.86" y1="408.55" x2="113.57" y2="392.89"/><line x1="136.77" y1="276.50" x2="129.41" y2="289.24"/><line x1="75.98" y1="308.86" x2="77.48" y2="299.56"/><line x1="294.56" y1="172.37" x2="306.18" y2="154.73"/><line x1="86.41" y1="194.42" x2="87.21" y2="186.37"/><line x1="176.41" y1="329.96" x2="188.77" y2="312.38"/><line x1="259.48" y1="149.37" x2="266.79" y2="134.00"/><line x1="331.83" y1="184.82" x2="316.10" y2="204.74"/><line x1="145.96" y1="225.83" x2="128.77" y2="215.67"/><line x1="66.41" y1="306.38" x2="66.20" y2="298.25"/><line x1="203.60" y1="318.17" x2="201.70" y2="294.86"/><line x1="167.95" y1="225.65" x2="160.13" y2="238.36"/><line x1="288.18" y1="143.20" x2="273.05" y2="118.55"/><line x1="246.17" y1="112.83" x2="242.10" y2="127.15"/><line x1="114.04" y1="246.65" x2="109.09" y2="256.98"/><line x1="413.00" y1="43.06" x2="437.74" y2="53.85"/><line x1="144.72" y1="412.81" x2="154.21" y2="393.69"/><line x1="118.29" y1="161.57" x2="85.02" y2="153.75"/><line x1="214.24" y1="122.66" x2="236.92" y2="141.39"/><line x1="216.86" y1="350.91" x2="201.33" y2="372.15"/><line x1="143.14" y1="355.91" x2="152.61" y2="339.41"/><line x1="126.75" y1="260.38" x2="120.52" y2="271.91"/><line x1="147.30" y1="163.53" x2="168.83" y2="179.54"/><line x1="189.15" y1="363.96" x2="175.96" y2="384.08"/><line x1="356.41" y1="111.85" x2="365.90" y2="92.74"/><line x1="132.19" y1="346.52" x2="140.43" y2="331.22"/><line x1="115.10" y1="351.28" x2="101.22" y2="353.68"/><line x1="285.96" y1="266.52" x2="268.04" y2="287.56"/><line x1="68.53" y1="274.10" x2="70.05" y2="266.11"/><line x1="175.96" y1="384.08" x2="186.90" y2="393.47"/><line x1="242.32" y1="242.43" x2="262.87" y2="243.44"/><line x1="153.00" y1="281.10" x2="144.25" y2="295.03"/><line x1="222.43" y1="210.20" x2="245.85" y2="208.84"/><line x1="386.29" y1="104.47" x2="403.03" y2="118.53"/></g></svg>