<svg xmlns="http://www.w3.org/2000/svg" width="512" height="512"><rect width="512" height="512" fill="#0a0f1a"/><text x="12" y="20" font-family="monospace" font-size="11" fill="#4a7fa5">FRONT (XZ)</text><g stroke="#00d4ff" stroke-width="0.6" opacity="0.85"><line x1="326.26" y1="324.96" x2="326.69" y2="329.15"/><line x1="324.60" y1="341.71" x2="364.18" y2="354.63"/><line x1="333.82" y1="170.08" x2="301.15" y2="155.15"/><line x1="207.80" y1="344.06" x2="197.37" y2="338.11"/><line x1="259.96" y1="126.18" x2="271.47" y2="126.60"/><line x1="338.77" y1="122.10" x2="335.83" y2="145.78"/><line x1="298.58" y1="182.50" x2="334.01" y2="180.17"/><line x1="197.37" y1="338.11" x2="203.64" y2="322.23"/><line x1="263.72" y1="104.95" x2="279.74" y2="106.42"/><line x1="149.96" y1="131.76" x2="180.01" y2="151.85"/><line x1="334.01" y1="180.17" x2="299.81" y2="188.66"/><line x1="345.33" y1="373.46" x2="321.80" y2="344.83"/><line x1="180.01" y1="151.85" x2="160.64" y2="124.52"/><line x1="321.80" y1="344.83" x2="336.69" y2="375.22"/><line x1="152.42" y1="197.08" x2="155.49" y2="186.64"/><line x1="180.42" y1="301.37" x2="171.12" y2="289.64"/><line x1="363.86" y1="165.44" x2="383.51" y2="150.21"/><line x1="335.56" y1="165.46" x2="334.81" y2="166.96"/><line x1="336.36" y1="193.76" x2="319.84" y2="287.97"/><line x1="333.82" y1="170.08" x2="316.32" y2="155.70"/><line x1="171.12" y1="289.64" x2="155.01" y2="303.92"/><line x1="333.82" y1="170.08" x2="296.01" y2="163.07"/><line x1="319.84" y1="287.97" x2="321.70" y2="297.50"/><line x1="314.97" y1="375.48" x2="311.89" y2="348.41"/><line x1="209.38" y1="134.61" x2="214.06" y2="106.68"/><line x1="311.89" y1="348.41" x2="308.21" y2="348.93"/><line x1="398.66" y1="182.81" x2="398.58" y2="185.45"/><line x1="312.42" y1="154.85" x2="309.07" y2="154.33"/><line x1="191.41" y1="312.36" x2="180.42" y2="301.37"/><line x1="124.59" y1="258.02" x2="150.79" y2="235.43"/><line x1="326.26" y1="324.96" x2="361.60" y2="320.71"/><line x1="279.52" y1="370.52" x2="267.39" y2="367.56"/><line x1="259.96" y1="126.18" x2="263.72" y2="104.95"/><line x1="326.47" y1="375.81" x2="314.97" y2="375.48"/><line x1="115.18" y1="193.43" x2="117.35" y2="181.08"/><line x1="326.28" y1="337.53" x2="364.83" y2="343.54"/><line x1="304.65" y1="132.62" x2="315.27" y2="136.21"/><line x1="480.00" y1="32.02" x2="447.51" y2="32.02"/><line x1="230.45" y1="354.82" x2="218.83" y2="349.63"/><line x1="310.26" y1="112.30" x2="324.76" y2="116.70"/><line x1="333.49" y1="173.37" x2="333.54" y2="175.31"/><line x1="230.56" y1="337.43" x2="216.69" y2="330.59"/><line x1="132.57" y1="149.01" x2="140.54" y2="139.97"/><line x1="316.32" y1="155.70" x2="312.42" y2="154.85"/><line x1="165.31" y1="167.85" x2="172.05" y2="159.50"/><line x1="153.35" y1="250.08" x2="124.59" y2="258.02"/><line x1="352.28" y1="128.47" x2="364.59" y2="135.45"/><line x1="325.55" y1="319.69" x2="326.26" y2="324.96"/><line x1="187.54" y1="331.79" x2="178.29" y2="325.08"/><line x1="345.64" y1="151.68" x2="354.99" y2="158.23"/><line x1="247.20" y1="104.45" x2="259.96" y2="126.18"/><line x1="191.41" y1="312.36" x2="169.65" y2="318.01"/><line x1="291.49" y1="372.84" x2="279.52" y2="370.52"/><line x1="188.99" y1="145.06" x2="185.21" y2="113.37"/><line x1="396.61" y1="195.79" x2="395.70" y2="198.32"/><line x1="297.72" y1="158.12" x2="296.65" y2="160.34"/><line x1="319.99" y1="345.98" x2="317.79" y2="346.93"/><line x1="336.36" y1="193.76" x2="358.36" y2="303.84"/><line x1="279.52" y1="370.52" x2="277.06" y2="348.87"/><line x1="114.45" y1="206.59" x2="115.18" y2="193.43"/><line x1="372.26" y1="173.30" x2="394.88" y2="166.00"/><line x1="395.70" y1="198.32" x2="394.64" y2="200.84"/><line x1="296.65" y1="160.34" x2="296.01" y2="163.07"/><line x1="326.47" y1="375.81" x2="315.08" y2="347.74"/><line x1="363.75" y1="333.94" x2="326.28" y2="337.53"/><line x1="314.97" y1="375.48" x2="303.31" y2="374.49"/><line x1="115.18" y1="193.43" x2="152.42" y2="197.08"/><line x1="293.82" y1="129.82" x2="304.65" y2="132.62"/><line x1="326.28" y1="337.53" x2="364.43" y2="339.20"/><line x1="142.62" y1="289.23" x2="132.48" y2="273.93"/><line x1="245.24" y1="342.76" x2="230.45" y2="354.82"/><line x1="304.65" y1="132.62" x2="310.26" y2="112.30"/><line x1="480.00" y1="32.02" x2="480.00" y2="64.50"/><line x1="358.36" y1="303.84" x2="360.11" y2="312.72"/><line x1="296.80" y1="173.11" x2="333.49" y2="173.37"/><line x1="303.31" y1="374.49" x2="291.49" y2="372.84"/><line x1="230.45" y1="354.82" x2="230.56" y2="337.43"/><line x1="233.04" y1="128.31" x2="246.09" y2="126.73"/><line x1="126.04" y1="158.88" x2="132.57" y2="149.01"/><line x1="480.00" y1="479.91" x2="480.00" y2="447.42"/><line x1="333.49" y1="173.37" x2="297.58" y2="177.32"/><line x1="364.18" y1="354.63" x2="361.82" y2="361.10"/><line x1="132.57" y1="149.01" x2="165.31" y2="167.85"/><line x1="335.83" y1="145.78" x2="352.28" y2="128.47"/><line x1="362.81" y1="327.77" x2="363.75" y2="333.94"/><line x1="299.81" y1="188.66" x2="334.95" y2="186.32"/><line x1="361.82" y1="361.10" x2="357.90" y2="366.39"/><line x1="203.64" y1="322.23" x2="187.54" y2="331.79"/><line x1="352.28" y1="128.47" x2="345.64" y2="151.68"/><line x1="447.51" y1="479.91" x2="480.00" y2="447.42"/><line x1="260.74" y1="346.57" x2="245.24" y2="342.76"/><line x1="187.54" y1="331.79" x2="191.41" y2="312.36"/><line x1="334.42" y1="183.08" x2="334.95" y2="186.32"/><line x1="188.99" y1="145.06" x2="172.39" y2="118.39"/><line x1="319.99" y1="345.98" x2="326.47" y2="375.81"/><line x1="163.51" y1="277.18" x2="157.59" y2="264.00"/><line x1="372.26" y1="173.30" x2="390.15" y2="157.97"/><line x1="323.27" y1="305.96" x2="324.55" y2="313.36"/><line x1="216.69" y1="330.59" x2="203.64" y2="322.23"/><line x1="304.03" y1="349.31" x2="299.35" y2="349.55"/><line x1="387.65" y1="191.01" x2="397.93" y2="190.66"/><line x1="118.96" y1="241.49" x2="115.58" y2="224.34"/><line x1="480.00" y1="479.91" x2="447.51" y2="479.91"/><line x1="326.69" y1="329.15" x2="326.84" y2="332.29"/><line x1="149.92" y1="220.05" x2="150.56" y2="208.21"/><line x1="271.47" y1="126.60" x2="282.76" y2="127.82"/><line x1="299.81" y1="188.66" x2="334.42" y2="183.08"/><line x1="267.39" y1="367.56" x2="255.10" y2="363.92"/><line x1="380.19" y1="181.83" x2="387.65" y2="191.01"/><line x1="279.74" y1="106.42" x2="295.25" y2="108.86"/><line x1="160.64" y1="124.52" x2="188.99" y2="145.06"/><line x1="260.74" y1="346.57" x2="242.66" y2="359.63"/><line x1="336.69" y1="375.22" x2="319.99" y2="345.98"/><line x1="117.35" y1="181.08" x2="120.97" y2="169.57"/><line x1="387.65" y1="191.01" x2="394.64" y2="200.84"/><line x1="334.81" y1="166.96" x2="334.23" y2="168.50"/><line x1="364.83" y1="343.54" x2="364.97" y2="346.98"/><line x1="155.49" y1="186.64" x2="159.79" y2="176.89"/><line x1="155.01" y1="303.92" x2="163.51" y2="277.18"/><line x1="315.27" y1="136.21" x2="325.66" y2="140.59"/><line x1="325.58" y1="339.76" x2="324.60" y2="341.71"/><line x1="321.70" y1="297.50" x2="323.27" y2="305.96"/><line x1="218.83" y1="349.63" x2="207.80" y2="344.06"/><line x1="163.51" y1="277.18" x2="142.62" y2="289.23"/><line x1="324.76" y1="116.70" x2="338.77" y2="122.10"/><line x1="323.27" y1="305.96" x2="358.36" y2="303.84"/><line x1="216.69" y1="330.59" x2="197.37" y2="338.11"/><line x1="308.21" y1="348.93" x2="304.03" y2="349.31"/><line x1="220.81" y1="130.94" x2="233.04" y2="128.31"/><line x1="331.40" y1="160.34" x2="335.56" y2="165.46"/><line x1="333.72" y1="177.58" x2="334.01" y2="180.17"/><line x1="309.07" y1="154.33" x2="306.28" y2="154.16"/><line x1="304.03" y1="349.31" x2="303.31" y2="374.49"/><line x1="172.05" y1="159.50" x2="180.01" y2="151.85"/><line x1="150.79" y1="235.43" x2="118.96" y2="241.49"/><line x1="387.65" y1="191.01" x2="398.34" y2="188.06"/><line x1="301.26" y1="195.78" x2="319.84" y2="287.97"/><line x1="306.28" y1="154.16" x2="303.50" y2="154.40"/><line x1="323.34" y1="343.40" x2="321.80" y2="344.83"/><line x1="361.60" y1="320.71" x2="326.69" y2="329.15"/><line x1="169.65" y1="318.01" x2="155.01" y2="303.92"/><line x1="118.96" y1="241.49" x2="149.92" y2="220.05"/><line x1="354.99" y1="158.23" x2="363.86" y2="165.44"/><line x1="324.60" y1="341.71" x2="323.34" y2="343.40"/><line x1="326.69" y1="329.15" x2="362.81" y2="327.77"/><line x1="383.51" y1="150.21" x2="372.26" y2="173.30"/><line x1="277.06" y1="348.87" x2="267.39" y2="367.56"/><line x1="271.47" y1="126.60" x2="279.74" y2="106.42"/><line x1="296.01" y1="163.07" x2="295.80" y2="166.29"/><line x1="267.39" y1="367.56" x2="260.74" y2="346.57"/><line x1="380.19" y1="181.83" x2="398.58" y2="185.45"/><line x1="331.40" y1="160.34" x2="325.82" y2="158.46"/><line x1="295.80" y1="166.29" x2="295.91" y2="167.60"/><line x1="214.06" y1="106.68" x2="220.81" y2="130.94"/><line x1="117.35" y1="181.08" x2="155.49" y2="186.64"/><line x1="360.11" y1="312.72" x2="361.60" y2="320.71"/><line x1="297.58" y1="177.32" x2="333.72" y2="177.58"/><line x1="364.83" y1="343.54" x2="325.58" y2="339.76"/><line x1="398.58" y1="185.45" x2="387.65" y2="191.01"/><line x1="315.27" y1="136.21" x2="324.76" y2="116.70"/><line x1="333.82" y1="170.08" x2="303.50" y2="154.40"/><line x1="294.19" y1="349.65" x2="277.06" y2="348.87"/><line x1="333.82" y1="170.08" x2="333.57" y2="171.70"/><line x1="218.83" y1="349.63" x2="216.69" y2="330.59"/><line x1="140.54" y1="139.97" x2="149.96" y2="131.76"/><line x1="263.72" y1="104.95" x2="271.47" y2="126.60"/><line x1="352.40" y1="370.52" x2="345.33" y2="373.46"/><line x1="150.56" y1="208.21" x2="152.42" y2="197.08"/><line x1="364.59" y1="135.45" x2="375.00" y2="142.71"/><line x1="331.40" y1="160.34" x2="337.55" y2="162.58"/><line x1="334.95" y1="186.32" x2="335.60" y2="189.88"/><line x1="295.25" y1="108.86" x2="310.26" y2="112.30"/><line x1="152.42" y1="197.08" x2="117.35" y2="181.08"/><line x1="301.26" y1="195.78" x2="336.36" y2="193.76"/><line x1="185.21" y1="113.37" x2="199.10" y2="109.47"/><line x1="333.82" y1="170.08" x2="320.79" y2="156.90"/><line x1="324.60" y1="341.71" x2="352.40" y2="370.52"/><line x1="333.82" y1="170.08" x2="296.65" y2="160.34"/><line x1="159.79" y1="176.89" x2="165.31" y2="167.85"/><line x1="394.88" y1="166.00" x2="397.72" y2="174.27"/><line x1="364.43" y1="339.20" x2="364.83" y2="343.54"/><line x1="157.59" y1="264.00" x2="153.35" y2="250.08"/><line x1="380.19" y1="181.83" x2="398.66" y2="182.81"/><line x1="480.00" y1="64.50" x2="447.51" y2="32.02"/><line x1="324.55" y1="313.36" x2="325.55" y2="319.69"/><line x1="230.10" y1="105.02" x2="247.20" y2="104.45"/><line x1="297.58" y1="177.32" x2="333.54" y2="175.31"/><line x1="333.82" y1="170.08" x2="306.28" y2="154.16"/><line x1="333.82" y1="170.08" x2="296.24" y2="169.86"/><line x1="357.90" y1="366.39" x2="352.40" y2="370.52"/><line x1="115.58" y1="224.34" x2="114.45" y2="206.59"/><line x1="140.54" y1="139.97" x2="172.05" y2="159.50"/><line x1="282.76" y1="127.82" x2="293.82" y2="129.82"/><line x1="364.59" y1="135.45" x2="354.99" y2="158.23"/><line x1="334.95" y1="186.32" x2="301.26" y2="195.78"/><line x1="295.25" y1="108.86" x2="304.65" y2="132.62"/><line x1="310.26" y1="112.30" x2="315.27" y2="136.21"/><line x1="185.21" y1="113.37" x2="198.77" y2="139.31"/><line x1="230.56" y1="337.43" x2="218.83" y2="349.63"/><line x1="333.82" y1="170.08" x2="325.82" y2="158.46"/><line x1="324.60" y1="341.71" x2="357.90" y2="366.39"/><line x1="333.82" y1="170.08" x2="297.72" y2="158.12"/><line x1="159.79" y1="176.89" x2="132.57" y2="149.01"/><line x1="394.88" y1="166.00" x2="380.19" y2="181.83"/><line x1="165.31" y1="167.85" x2="140.54" y2="139.97"/><line x1="157.59" y1="264.00" x2="132.48" y2="273.93"/><line x1="345.64" y1="151.68" x2="364.59" y2="135.45"/><line x1="230.10" y1="105.02" x2="246.09" y2="126.73"/><line x1="191.41" y1="312.36" x2="178.29" y2="325.08"/><line x1="299.35" y1="349.55" x2="294.19" y2="349.65"/><line x1="397.93" y1="190.66" x2="397.35" y2="193.24"/><line x1="336.36" y1="193.76" x2="323.27" y2="305.96"/><line x1="172.39" y1="118.39" x2="185.21" y2="113.37"/><line x1="333.82" y1="170.08" x2="309.07" y2="154.33"/><line x1="115.58" y1="224.34" x2="150.56" y2="208.21"/><line x1="326.47" y1="375.81" x2="317.79" y2="346.93"/><line x1="32.16" y1="32.09" x2="32.16" y2="64.58"/><line x1="314.97" y1="375.48" x2="304.03" y2="349.31"/><line x1="390.15" y1="157.97" x2="394.88" y2="166.00"/><line x1="282.76" y1="127.82" x2="295.25" y2="108.86"/><line x1="142.62" y1="289.23" x2="157.59" y2="264.00"/><line x1="296.24" y1="169.86" x2="296.80" y2="173.11"/><line x1="120.97" y1="169.57" x2="126.04" y2="158.88"/><line x1="358.36" y1="303.84" x2="324.55" y2="313.36"/><line x1="303.31" y1="374.49" x2="294.19" y2="349.65"/><line x1="233.04" y1="128.31" x2="230.10" y2="105.02"/><line x1="364.97" y1="346.98" x2="364.18" y2="354.63"/><line x1="325.66" y1="140.59" x2="335.83" y2="145.78"/><line x1="362.81" y1="327.77" x2="326.69" y2="335.05"/><line x1="298.58" y1="182.50" x2="299.81" y2="188.66"/><line x1="149.96" y1="131.76" x2="160.64" y2="124.52"/><line x1="303.50" y1="154.40" x2="301.15" y2="155.15"/><line x1="345.33" y1="373.46" x2="336.69" y2="375.22"/><line x1="375.00" y1="142.71" x2="383.51" y2="150.21"/><line x1="334.23" y1="168.50" x2="333.82" y2="170.08"/><line x1="336.36" y1="193.76" x2="321.70" y2="297.50"/><line x1="32.00" y1="479.98" x2="64.49" y2="479.98"/><line x1="199.10" y1="109.47" x2="214.06" y2="106.68"/><line x1="314.97" y1="375.48" x2="308.21" y2="348.93"/><line x1="303.31" y1="374.49" x2="299.35" y2="349.55"/><line x1="398.34" y1="188.06" x2="397.93" y2="190.66"/><line x1="149.92" y1="220.05" x2="115.58" y2="224.34"/><line x1="362.81" y1="327.77" x2="326.84" y2="332.29"/><line x1="279.74" y1="106.42" x2="282.76" y2="127.82"/><line x1="260.74" y1="346.57" x2="255.10" y2="363.92"/><line x1="326.28" y1="337.53" x2="325.58" y2="339.76"/><line x1="387.65" y1="191.01" x2="395.70" y2="198.32"/><line x1="295.91" y1="167.60" x2="296.24" y2="169.86"/><line x1="375.00" y1="142.71" x2="363.86" y2="165.44"/><line x1="155.49" y1="186.64" x2="120.97" y2="169.57"/><line x1="325.58" y1="339.76" x2="364.97" y2="346.98"/><line x1="324.76" y1="116.70" x2="325.66" y2="140.59"/><line x1="32.00" y1="479.98" x2="32.00" y2="447.50"/><line x1="199.10" y1="109.47" x2="209.38" y2="134.61"/><line x1="216.69" y1="330.59" x2="207.80" y2="344.06"/><line x1="153.35" y1="250.08" x2="150.79" y2="235.43"/><line x1="333.72" y1="177.58" x2="298.58" y2="182.50"/><line x1="397.72" y1="174.27" x2="398.66" y2="182.81"/><line x1="172.05" y1="159.50" x2="149.96" y2="131.76"/><line x1="336.47" y1="164.00" x2="335.56" y2="165.46"/><line x1="247.20" y1="104.45" x2="263.72" y2="104.95"/><line x1="323.34" y1="343.40" x2="345.33" y2="373.46"/><line x1="169.65" y1="318.01" x2="171.12" y2="289.64"/><line x1="354.99" y1="158.23" x2="375.00" y2="142.71"/><line x1="188.99" y1="145.06" x2="198.77" y2="139.31"/><line x1="198.77" y1="139.31" x2="209.38" y2="134.61"/><line x1="372.26" y1="173.30" x2="380.19" y2="181.83"/><line x1="315.08" y1="347.74" x2="311.89" y2="348.41"/><line x1="363.75" y1="333.94" x2="364.43" y2="339.20"/><line x1="331.40" y1="160.34" x2="333.82" y2="170.08"/><line x1="132.48" y1="273.93" x2="124.59" y2="258.02"/><line x1="245.24" y1="342.76" x2="230.56" y2="337.43"/><line x1="360.11" y1="312.72" x2="326.26" y2="324.96"/><line x1="387.65" y1="191.01" x2="396.61" y2="195.79"/><line x1="296.80" y1="173.11" x2="297.58" y2="177.32"/><line x1="246.09" y1="126.73" x2="259.96" y2="126.18"/><line x1="333.54" y1="175.31" x2="333.72" y2="177.58"/><line x1="294.19" y1="349.65" x2="279.52" y2="370.52"/><line x1="335.83" y1="145.78" x2="345.64" y2="151.68"/><line x1="352.40" y1="370.52" x2="323.34" y2="343.40"/><line x1="150.56" y1="208.21" x2="115.18" y2="193.43"/><line x1="299.81" y1="188.66" x2="301.26" y2="195.78"/><line x1="203.64" y1="322.23" x2="191.41" y2="312.36"/><line x1="331.40" y1="160.34" x2="336.47" y2="164.00"/><line x1="326.69" y1="335.05" x2="326.28" y2="337.53"/><line x1="178.29" y1="325.08" x2="169.65" y2="318.01"/><line x1="336.47" y1="164.00" x2="337.55" y2="162.58"/><line x1="301.26" y1="195.78" x2="335.60" y2="189.88"/><line x1="242.66" y1="359.63" x2="230.45" y2="354.82"/><line x1="169.65" y1="318.01" x2="180.42" y2="301.37"/><line x1="335.60" y1="189.88" x2="336.36" y2="193.76"/><line x1="317.79" y1="346.93" x2="315.08" y2="347.74"/><line x1="198.77" y1="139.31" x2="199.10" y2="109.47"/><line x1="325.82" y1="158.46" x2="320.79" y2="156.90"/><line x1="315.08" y1="347.74" x2="314.97" y2="375.48"/><line x1="380.19" y1="181.83" x2="397.72" y2="174.27"/><line x1="320.79" y1="156.90" x2="316.32" y2="155.70"/><line x1="331.40" y1="160.34" x2="334.23" y2="168.50"/><line x1="324.55" y1="313.36" x2="360.11" y2="312.72"/><line x1="132.48" y1="273.93" x2="153.35" y2="250.08"/><line x1="360.11" y1="312.72" x2="325.55" y2="319.69"/><line x1="387.65" y1="191.01" x2="397.35" y2="193.24"/><line x1="246.09" y1="126.73" x2="247.20" y2="104.45"/><line x1="301.15" y1="155.15" x2="299.22" y2="156.38"/><line x1="294.19" y1="349.65" x2="291.49" y2="372.84"/><line x1="333.82" y1="170.08" x2="295.91" y2="167.60"/><line x1="397.35" y1="193.24" x2="396.61" y2="195.79"/><line x1="299.22" y1="156.38" x2="297.72" y2="158.12"/><line x1="150.56" y1="208.21" x2="114.45" y2="206.59"/><line x1="160.64" y1="124.52" x2="172.39" y2="118.39"/><line x1="326.69" y1="335.05" x2="363.75" y2="333.94"/><line x1="214.06" y1="106.68" x2="230.10" y2="105.02"/><line x1="295.25" y1="108.86" x2="293.82" y2="129.82"/><line x1="336.69" y1="375.22" x2="326.47" y2="375.81"/><line x1="64.64" y1="32.09" x2="32.16" y2="64.58"/><line x1="333.57" y1="171.70" x2="333.49" y2="173.37"/><line x1="242.66" y1="359.63" x2="245.24" y2="342.76"/><line x1="155.01" y1="303.92" x2="142.62" y2="289.23"/><line x1="324.60" y1="341.71" x2="361.82" y2="361.10"/><line x1="333.82" y1="170.08" x2="299.22" y2="156.38"/><line x1="159.79" y1="176.89" x2="126.04" y2="158.88"/><line x1="338.77" y1="122.10" x2="352.28" y2="128.47"/><line x1="197.37" y1="338.11" x2="187.54" y2="331.79"/><line x1="334.01" y1="180.17" x2="334.42" y2="183.08"/><line x1="331.40" y1="160.34" x2="334.81" y2="166.96"/><line x1="180.01" y1="151.85" x2="188.99" y2="145.06"/><line x1="150.79" y1="235.43" x2="149.92" y2="220.05"/><line x1="321.80" y1="344.83" x2="319.99" y2="345.98"/><line x1="361.60" y1="320.71" x2="362.81" y2="327.77"/><line x1="363.86" y1="165.44" x2="372.26" y2="173.30"/><line x1="333.82" y1="170.08" x2="312.42" y2="154.85"/><line x1="326.84" y1="332.29" x2="326.69" y2="335.05"/><line x1="171.12" y1="289.64" x2="163.51" y2="277.18"/><line x1="333.82" y1="170.08" x2="295.80" y2="166.29"/><line x1="383.51" y1="150.21" x2="390.15" y2="157.97"/><line x1="277.06" y1="348.87" x2="260.74" y2="346.57"/><line x1="32.16" y1="32.09" x2="64.64" y2="32.09"/><line x1="255.10" y1="363.92" x2="242.66" y2="359.63"/><line x1="209.38" y1="134.61" x2="220.81" y2="130.94"/><line x1="296.24" y1="169.86" x2="333.57" y2="171.70"/><line x1="214.06" y1="106.68" x2="233.04" y2="128.31"/><line x1="120.97" y1="169.57" x2="159.79" y2="176.89"/><line x1="333.57" y1="171.70" x2="296.80" y2="173.11"/><line x1="364.97" y1="346.98" x2="324.60" y2="341.71"/><line x1="124.59" y1="258.02" x2="118.96" y2="241.49"/><line x1="297.58" y1="177.32" x2="298.58" y2="182.50"/><line x1="398.58" y1="185.45" x2="398.34" y2="188.06"/><line x1="325.66" y1="140.59" x2="338.77" y2="122.10"/><line x1="32.00" y1="447.50" x2="64.49" y2="479.98"/></g></svg>