<svg xmlns="http://www.w3.org/2000/svg" width="512" height="512"><rect width="512" height="512" fill="#0a0f1a"/><text x="12" y="20" font-family="monospace" font-size="11" fill="#4a7fa5">FRONT (XZ)</text><g stroke="#00d4ff" stroke-width="0.6" opacity="0.85"><line x1="310.82" y1="355.51" x2="319.99" y2="351.78"/><line x1="361.33" y1="309.34" x2="328.11" y2="294.81"/><line x1="239.83" y1="130.30" x2="229.08" y2="108.52"/><line x1="197.48" y1="231.48" x2="190.37" y2="230.81"/><line x1="211.47" y1="340.58" x2="205.58" y2="325.76"/><line x1="236.94" y1="349.02" x2="245.32" y2="333.43"/><line x1="229.08" y1="108.52" x2="226.60" y2="127.89"/><line x1="191.58" y1="254.75" x2="175.22" y2="321.68"/><line x1="266.94" y1="249.62" x2="264.65" y2="246.38"/><line x1="245.32" y1="333.43" x2="247.57" y2="353.95"/><line x1="369.10" y1="279.34" x2="333.75" y2="268.56"/><line x1="258.30" y1="357.47" x2="269.10" y2="359.59"/><line x1="264.65" y1="246.38" x2="262.25" y2="243.79"/><line x1="333.75" y1="268.56" x2="369.62" y2="268.21"/><line x1="155.39" y1="144.45" x2="159.69" y2="149.52"/><line x1="193.95" y1="129.39" x2="177.84" y2="104.84"/><line x1="234.11" y1="388.01" x2="226.36" y2="402.65"/><line x1="269.10" y1="359.59" x2="275.72" y2="336.78"/><line x1="228.59" y1="377.93" x2="222.97" y2="366.66"/><line x1="177.84" y1="104.84" x2="186.01" y2="132.26"/><line x1="275.72" y1="336.78" x2="280.01" y2="360.29"/><line x1="331.16" y1="229.33" x2="359.59" y2="215.90"/><line x1="232.46" y1="257.39" x2="241.92" y2="236.25"/><line x1="359.59" y1="215.90" x2="327.47" y2="215.55"/><line x1="203.00" y1="394.95" x2="200.02" y2="392.23"/><line x1="147.31" y1="113.98" x2="144.45" y2="118.17"/><line x1="310.82" y1="355.51" x2="304.39" y2="326.24"/><line x1="307.57" y1="177.71" x2="298.00" y2="166.25"/><line x1="197.48" y1="231.48" x2="191.58" y2="254.75"/><line x1="211.47" y1="340.58" x2="179.73" y2="337.94"/><line x1="222.97" y1="366.66" x2="217.27" y2="354.21"/><line x1="344.23" y1="334.23" x2="350.96" y2="326.51"/><line x1="176.27" y1="228.91" x2="169.28" y2="227.68"/><line x1="480.00" y1="32.02" x2="447.51" y2="32.02"/><line x1="264.70" y1="139.90" x2="252.53" y2="134.31"/><line x1="219.68" y1="255.92" x2="206.06" y2="255.04"/><line x1="225.85" y1="322.18" x2="232.06" y2="326.76"/><line x1="265.37" y1="120.73" x2="247.54" y2="113.61"/><line x1="222.97" y1="366.66" x2="203.00" y2="394.95"/><line x1="364.95" y1="299.91" x2="367.55" y2="289.91"/><line x1="175.22" y1="321.68" x2="176.27" y2="228.91"/><line x1="271.23" y1="258.06" x2="269.14" y2="253.51"/><line x1="152.08" y1="110.55" x2="147.31" y2="113.98"/><line x1="297.95" y1="330.18" x2="310.82" y2="355.51"/><line x1="209.98" y1="105.47" x2="202.89" y2="127.66"/><line x1="206.06" y1="255.04" x2="197.48" y2="231.48"/><line x1="252.38" y1="335.53" x2="259.72" y2="336.80"/><line x1="329.52" y1="168.82" x2="307.57" y2="177.71"/><line x1="244.39" y1="259.43" x2="256.72" y2="240.29"/><line x1="187.79" y1="364.28" x2="211.47" y2="340.58"/><line x1="368.51" y1="250.19" x2="333.39" y2="243.70"/><line x1="307.57" y1="177.71" x2="315.03" y2="154.29"/><line x1="148.78" y1="135.61" x2="151.76" y2="139.82"/><line x1="211.47" y1="340.58" x2="183.92" y2="352.14"/><line x1="222.97" y1="366.66" x2="191.33" y2="374.37"/><line x1="315.80" y1="315.77" x2="344.23" y2="334.23"/><line x1="214.42" y1="310.68" x2="209.46" y2="304.00"/><line x1="151.76" y1="139.82" x2="155.39" y2="144.45"/><line x1="175.22" y1="321.68" x2="155.43" y2="224.67"/><line x1="344.23" y1="334.23" x2="320.64" y2="309.37"/><line x1="179.09" y1="136.25" x2="173.19" y2="141.39"/><line x1="276.33" y1="147.10" x2="264.70" y2="139.90"/><line x1="480.00" y1="32.02" x2="480.00" y2="64.50"/><line x1="290.82" y1="359.76" x2="301.10" y2="358.16"/><line x1="264.70" y1="139.90" x2="265.37" y2="120.73"/><line x1="219.68" y1="255.92" x2="218.58" y2="233.16"/><line x1="265.71" y1="265.29" x2="275.10" y2="269.09"/><line x1="480.00" y1="479.91" x2="480.00" y2="447.42"/><line x1="225.85" y1="322.18" x2="226.40" y2="342.68"/><line x1="328.11" y1="294.81" x2="364.95" y2="299.91"/><line x1="201.19" y1="288.92" x2="205.05" y2="296.75"/><line x1="247.57" y1="353.95" x2="258.30" y2="357.47"/><line x1="364.95" y1="299.91" x2="330.74" y2="286.64"/><line x1="226.60" y1="127.89" x2="209.98" y2="105.47"/><line x1="175.22" y1="321.68" x2="195.14" y2="271.55"/><line x1="205.05" y1="296.75" x2="209.46" y2="304.00"/><line x1="175.22" y1="321.68" x2="209.46" y2="304.00"/><line x1="447.51" y1="479.91" x2="480.00" y2="447.42"/><line x1="209.98" y1="105.47" x2="212.84" y2="127.07"/><line x1="252.38" y1="335.53" x2="258.30" y2="357.47"/><line x1="244.39" y1="259.43" x2="259.75" y2="241.85"/><line x1="218.80" y1="401.19" x2="212.39" y2="399.42"/><line x1="324.75" y1="302.38" x2="328.11" y2="294.81"/><line x1="280.01" y1="360.29" x2="290.82" y2="359.76"/><line x1="368.51" y1="250.19" x2="334.15" y2="258.63"/><line x1="167.34" y1="105.98" x2="158.76" y2="107.89"/><line x1="283.62" y1="335.44" x2="291.03" y2="333.25"/><line x1="235.09" y1="235.11" x2="227.31" y2="234.09"/><line x1="175.22" y1="321.68" x2="162.33" y2="226.27"/><line x1="351.79" y1="199.63" x2="341.77" y2="183.93"/><line x1="173.19" y1="141.39" x2="151.76" y2="139.82"/><line x1="244.39" y1="259.43" x2="232.46" y2="257.39"/><line x1="179.73" y1="337.94" x2="175.22" y2="321.68"/><line x1="480.00" y1="479.91" x2="447.51" y2="479.91"/><line x1="247.57" y1="353.95" x2="252.38" y2="335.53"/><line x1="298.00" y1="166.25" x2="287.43" y2="155.87"/><line x1="175.22" y1="321.68" x2="183.30" y2="229.95"/><line x1="262.25" y1="243.79" x2="244.39" y2="259.43"/><line x1="179.73" y1="337.94" x2="219.93" y2="316.78"/><line x1="173.19" y1="141.39" x2="143.50" y2="123.12"/><line x1="299.12" y1="141.07" x2="282.56" y2="129.88"/><line x1="369.62" y1="268.21" x2="368.51" y2="250.19"/><line x1="168.30" y1="147.66" x2="164.42" y2="155.07"/><line x1="226.36" y1="402.65" x2="218.80" y2="401.19"/><line x1="350.96" y1="326.51" x2="356.66" y2="318.21"/><line x1="186.01" y1="132.26" x2="167.34" y2="105.98"/><line x1="324.75" y1="302.38" x2="361.33" y2="309.34"/><line x1="280.01" y1="360.29" x2="283.62" y2="335.44"/><line x1="252.53" y1="134.31" x2="239.83" y2="130.30"/><line x1="255.47" y1="262.07" x2="264.65" y2="246.38"/><line x1="167.34" y1="105.98" x2="179.09" y2="136.25"/><line x1="283.62" y1="335.44" x2="290.82" y2="359.76"/><line x1="247.54" y1="113.61" x2="229.08" y2="108.52"/><line x1="327.47" y1="215.55" x2="351.79" y2="199.63"/><line x1="235.09" y1="235.11" x2="219.68" y2="255.92"/><line x1="239.55" y1="396.91" x2="234.11" y2="388.01"/><line x1="238.55" y1="330.51" x2="245.32" y2="333.43"/><line x1="200.02" y1="392.23" x2="197.45" y2="388.34"/><line x1="351.79" y1="199.63" x2="322.30" y2="202.36"/><line x1="173.19" y1="141.39" x2="148.78" y2="135.61"/><line x1="144.45" y1="118.17" x2="143.50" y2="123.12"/><line x1="235.06" y1="403.80" x2="226.36" y2="402.65"/><line x1="197.45" y1="388.34" x2="194.55" y2="382.38"/><line x1="332.62" y1="277.89" x2="333.75" y2="268.56"/><line x1="304.39" y1="326.24" x2="319.99" y2="351.78"/><line x1="143.50" y1="123.12" x2="143.83" y2="125.60"/><line x1="319.99" y1="351.78" x2="328.61" y2="347.00"/><line x1="315.03" y1="154.29" x2="298.00" y2="166.25"/><line x1="190.37" y1="230.81" x2="175.22" y2="321.68"/><line x1="183.92" y1="352.14" x2="179.73" y2="337.94"/><line x1="320.64" y1="309.37" x2="324.75" y2="302.38"/><line x1="298.00" y1="166.25" x2="299.12" y2="141.07"/><line x1="179.73" y1="337.94" x2="205.58" y2="325.76"/><line x1="241.92" y1="236.25" x2="235.09" y2="235.11"/><line x1="173.19" y1="141.39" x2="144.45" y2="118.17"/><line x1="168.30" y1="147.66" x2="159.69" y2="149.52"/><line x1="226.40" y1="342.68" x2="238.55" y2="330.51"/><line x1="350.96" y1="326.51" x2="324.75" y2="302.38"/><line x1="169.28" y1="227.68" x2="162.33" y2="226.27"/><line x1="330.74" y1="286.64" x2="332.62" y2="277.89"/><line x1="252.53" y1="134.31" x2="247.54" y2="113.61"/><line x1="255.47" y1="262.07" x2="266.94" y2="249.62"/><line x1="191.58" y1="254.75" x2="190.37" y2="230.81"/><line x1="367.55" y1="289.91" x2="369.10" y2="279.34"/><line x1="239.55" y1="396.91" x2="244.90" y2="404.63"/><line x1="258.30" y1="357.47" x2="267.34" y2="337.23"/><line x1="202.89" y1="127.66" x2="193.95" y2="129.39"/><line x1="173.19" y1="141.39" x2="146.47" y2="131.84"/><line x1="155.39" y1="144.45" x2="168.30" y2="147.66"/><line x1="282.56" y1="129.88" x2="265.37" y2="120.73"/><line x1="228.59" y1="377.93" x2="207.13" y2="397.34"/><line x1="333.39" y1="243.70" x2="331.16" y2="229.33"/><line x1="273.21" y1="263.25" x2="271.23" y2="258.06"/><line x1="320.64" y1="309.37" x2="350.96" y2="326.51"/><line x1="158.76" y1="107.89" x2="152.08" y2="110.55"/><line x1="480.00" y1="64.50" x2="447.51" y2="32.02"/><line x1="291.03" y1="333.25" x2="297.95" y2="330.18"/><line x1="226.40" y1="342.68" x2="232.06" y2="326.76"/><line x1="341.77" y1="183.93" x2="329.52" y2="168.82"/><line x1="191.33" y1="374.37" x2="187.79" y2="364.28"/><line x1="330.74" y1="286.64" x2="367.55" y2="289.91"/><line x1="255.47" y1="262.07" x2="269.14" y2="253.51"/><line x1="192.93" y1="262.00" x2="195.14" y2="271.55"/><line x1="219.93" y1="316.78" x2="225.85" y2="322.18"/><line x1="258.30" y1="357.47" x2="259.72" y2="336.80"/><line x1="183.30" y1="229.95" x2="176.27" y2="228.91"/><line x1="215.95" y1="334.92" x2="226.40" y2="342.68"/><line x1="256.72" y1="240.29" x2="252.73" y2="238.84"/><line x1="265.37" y1="120.73" x2="252.53" y2="134.31"/><line x1="228.59" y1="377.93" x2="212.39" y2="399.42"/><line x1="273.21" y1="263.25" x2="275.10" y2="269.09"/><line x1="271.23" y1="258.06" x2="255.47" y2="262.07"/><line x1="158.76" y1="107.89" x2="173.19" y2="141.39"/><line x1="227.31" y1="234.09" x2="218.58" y2="233.16"/><line x1="212.84" y1="127.07" x2="202.89" y2="127.66"/><line x1="333.75" y1="268.56" x2="334.15" y2="258.63"/><line x1="341.77" y1="183.93" x2="315.67" y2="189.74"/><line x1="197.89" y1="280.52" x2="201.19" y2="288.92"/><line x1="234.11" y1="388.01" x2="228.59" y2="377.93"/><line x1="259.75" y1="241.85" x2="256.72" y2="240.29"/><line x1="310.34" y1="321.44" x2="315.80" y2="315.77"/><line x1="144.82" y1="128.50" x2="146.47" y2="131.84"/><line x1="334.15" y1="258.63" x2="333.39" y2="243.70"/><line x1="222.97" y1="366.66" x2="194.55" y2="382.38"/><line x1="32.16" y1="32.09" x2="32.16" y2="64.58"/><line x1="287.43" y1="155.87" x2="276.33" y2="147.10"/><line x1="232.46" y1="257.39" x2="219.68" y2="255.92"/><line x1="179.09" y1="136.25" x2="158.76" y2="107.89"/><line x1="219.93" y1="316.78" x2="214.42" y2="310.68"/><line x1="290.82" y1="359.76" x2="291.03" y2="333.25"/><line x1="322.30" y1="202.36" x2="315.67" y2="189.74"/><line x1="219.68" y1="255.92" x2="227.31" y2="234.09"/><line x1="239.83" y1="130.30" x2="226.60" y2="127.89"/><line x1="328.61" y1="347.00" x2="336.69" y2="341.15"/><line x1="236.94" y1="349.02" x2="247.57" y2="353.95"/><line x1="175.22" y1="321.68" x2="205.05" y2="296.75"/><line x1="194.55" y1="382.38" x2="191.33" y2="374.37"/><line x1="369.10" y1="279.34" x2="369.62" y2="268.21"/><line x1="205.58" y1="325.76" x2="215.95" y2="334.92"/><line x1="193.95" y1="129.39" x2="186.01" y2="132.26"/><line x1="218.80" y1="401.19" x2="228.59" y2="377.93"/><line x1="269.10" y1="359.59" x2="280.01" y2="360.29"/><line x1="32.00" y1="479.98" x2="64.49" y2="479.98"/><line x1="247.80" y1="237.49" x2="241.92" y2="236.25"/><line x1="222.97" y1="366.66" x2="197.45" y2="388.34"/><line x1="331.16" y1="229.33" x2="327.47" y2="215.55"/><line x1="175.22" y1="321.68" x2="169.28" y2="227.68"/><line x1="322.30" y1="202.36" x2="341.77" y2="183.93"/><line x1="244.39" y1="259.43" x2="247.80" y2="237.49"/><line x1="143.83" y1="125.60" x2="144.82" y2="128.50"/><line x1="328.61" y1="347.00" x2="310.34" y2="321.44"/><line x1="175.22" y1="321.68" x2="192.93" y2="262.00"/><line x1="175.22" y1="321.68" x2="201.19" y2="288.92"/><line x1="299.12" y1="141.07" x2="287.43" y2="155.87"/><line x1="205.58" y1="325.76" x2="219.93" y2="316.78"/><line x1="159.69" y1="149.52" x2="164.42" y2="155.07"/><line x1="265.71" y1="265.29" x2="255.47" y2="262.07"/><line x1="324.75" y1="302.38" x2="356.66" y2="318.21"/><line x1="162.33" y1="226.27" x2="155.43" y2="224.67"/><line x1="32.00" y1="479.98" x2="32.00" y2="447.50"/><line x1="247.80" y1="237.49" x2="232.46" y2="257.39"/><line x1="214.42" y1="310.68" x2="175.22" y2="321.68"/><line x1="247.54" y1="113.61" x2="239.83" y2="130.30"/><line x1="222.97" y1="366.66" x2="200.02" y2="392.23"/><line x1="175.22" y1="321.68" x2="197.89" y2="280.52"/><line x1="238.55" y1="330.51" x2="236.94" y2="349.02"/><line x1="269.14" y1="253.51" x2="266.94" y2="249.62"/><line x1="297.95" y1="330.18" x2="304.39" y2="326.24"/><line x1="209.98" y1="105.47" x2="190.24" y2="104.45"/><line x1="235.06" y1="403.80" x2="234.11" y2="388.01"/><line x1="206.06" y1="255.04" x2="191.58" y2="254.75"/><line x1="332.62" y1="277.89" x2="369.10" y2="279.34"/><line x1="190.24" y1="104.45" x2="177.84" y2="104.84"/><line x1="329.52" y1="168.82" x2="315.03" y2="154.29"/><line x1="244.39" y1="259.43" x2="252.73" y2="238.84"/><line x1="267.34" y1="337.23" x2="275.72" y2="336.78"/><line x1="187.79" y1="364.28" x2="183.92" y2="352.14"/><line x1="368.51" y1="250.19" x2="365.17" y2="232.75"/><line x1="365.17" y1="232.75" x2="359.59" y2="215.90"/><line x1="315.80" y1="315.77" x2="320.64" y2="309.37"/><line x1="207.13" y1="397.34" x2="203.00" y2="394.95"/><line x1="175.22" y1="321.68" x2="148.56" y2="222.87"/><line x1="195.14" y1="271.55" x2="197.89" y2="280.52"/><line x1="173.19" y1="141.39" x2="147.31" y2="113.98"/><line x1="173.19" y1="141.39" x2="168.30" y2="147.66"/><line x1="301.10" y1="358.16" x2="310.82" y2="355.51"/><line x1="218.58" y1="233.16" x2="197.48" y2="231.48"/><line x1="265.71" y1="265.29" x2="271.23" y2="258.06"/><line x1="232.06" y1="326.76" x2="238.55" y2="330.51"/><line x1="315.67" y1="189.74" x2="307.57" y2="177.71"/><line x1="328.11" y1="294.81" x2="330.74" y2="286.64"/><line x1="217.27" y1="354.21" x2="211.47" y2="340.58"/><line x1="367.55" y1="289.91" x2="332.62" y2="277.89"/><line x1="226.60" y1="127.89" x2="212.84" y2="127.07"/><line x1="239.55" y1="396.91" x2="235.06" y2="403.80"/><line x1="336.69" y1="341.15" x2="344.23" y2="334.23"/><line x1="179.73" y1="337.94" x2="214.42" y2="310.68"/><line x1="202.89" y1="127.66" x2="190.24" y2="104.45"/><line x1="173.19" y1="141.39" x2="144.82" y2="128.50"/><line x1="235.06" y1="403.80" x2="244.90" y2="404.63"/><line x1="259.72" y1="336.80" x2="267.34" y2="337.23"/><line x1="282.56" y1="129.88" x2="264.70" y2="139.90"/><line x1="190.24" y1="104.45" x2="193.95" y2="129.39"/><line x1="267.34" y1="337.23" x2="269.10" y2="359.59"/><line x1="333.39" y1="243.70" x2="365.17" y2="232.75"/><line x1="252.73" y1="238.84" x2="247.80" y2="237.49"/><line x1="255.47" y1="262.07" x2="244.39" y2="259.43"/><line x1="212.39" y1="399.42" x2="207.13" y2="397.34"/><line x1="365.17" y1="232.75" x2="331.16" y2="229.33"/><line x1="207.13" y1="397.34" x2="222.97" y2="366.66"/><line x1="291.03" y1="333.25" x2="301.10" y2="358.16"/><line x1="173.19" y1="141.39" x2="152.08" y2="110.55"/><line x1="173.19" y1="141.39" x2="155.39" y2="144.45"/><line x1="301.10" y1="358.16" x2="297.95" y2="330.18"/><line x1="304.39" y1="326.24" x2="310.34" y2="321.44"/><line x1="218.58" y1="233.16" x2="206.06" y2="255.04"/><line x1="191.33" y1="374.37" x2="217.27" y2="354.21"/><line x1="315.67" y1="189.74" x2="329.52" y2="168.82"/><line x1="217.27" y1="354.21" x2="187.79" y2="364.28"/><line x1="190.37" y1="230.81" x2="183.30" y2="229.95"/><line x1="146.47" y1="131.84" x2="148.78" y2="135.61"/><line x1="262.25" y1="243.79" x2="259.75" y2="241.85"/><line x1="336.69" y1="341.15" x2="315.80" y2="315.77"/><line x1="173.19" y1="141.39" x2="143.83" y2="125.60"/><line x1="64.64" y1="32.09" x2="32.16" y2="64.58"/><line x1="215.95" y1="334.92" x2="225.85" y2="322.18"/><line x1="282.56" y1="129.88" x2="276.33" y2="147.10"/><line x1="186.01" y1="132.26" x2="179.09" y2="136.25"/><line x1="361.33" y1="309.34" x2="364.95" y2="299.91"/><line x1="273.21" y1="263.25" x2="265.71" y2="265.29"/><line x1="255.47" y1="262.07" x2="262.25" y2="243.79"/><line x1="229.08" y1="108.52" x2="209.98" y2="105.47"/><line x1="191.58" y1="254.75" x2="192.93" y2="262.00"/><line x1="327.47" y1="215.55" x2="322.30" y2="202.36"/><line x1="245.32" y1="333.43" x2="252.38" y2="335.53"/><line x1="333.75" y1="268.56" x2="368.51" y2="250.19"/><line x1="304.39" y1="326.24" x2="328.61" y2="347.00"/><line x1="234.11" y1="388.01" x2="218.80" y2="401.19"/><line x1="310.34" y1="321.44" x2="336.69" y2="341.15"/><line x1="177.84" y1="104.84" x2="167.34" y2="105.98"/><line x1="315.03" y1="154.29" x2="299.12" y2="141.07"/><line x1="32.16" y1="32.09" x2="64.64" y2="32.09"/><line x1="275.72" y1="336.78" x2="283.62" y2="335.44"/><line x1="287.43" y1="155.87" x2="282.56" y2="129.88"/><line x1="232.46" y1="257.39" x2="235.09" y2="235.11"/><line x1="219.93" y1="316.78" x2="215.95" y2="334.92"/><line x1="359.59" y1="215.90" x2="351.79" y2="199.63"/><line x1="356.66" y1="318.21" x2="361.33" y2="309.34"/><line x1="226.40" y1="342.68" x2="236.94" y2="349.02"/><line x1="155.43" y1="224.67" x2="148.56" y2="222.87"/><line x1="32.00" y1="447.50" x2="64.49" y2="479.98"/></g></svg>