<svg xmlns="http://www.w3.org/2000/svg" width="512" height="512"><rect width="512" height="512" fill="#0a0f1a"/><text x="12" y="20" font-family="monospace" font-size="11" fill="#4a7fa5">FRONT (XZ)</text><g stroke="#00d4ff" stroke-width="0.6" opacity="0.85"><line x1="289.76" y1="396.43" x2="295.68" y2="400.66"/><line x1="219.93" y1="110.79" x2="227.64" y2="112.24"/><line x1="263.07" y1="394.04" x2="279.74" y2="385.15"/><line x1="361.21" y1="393.19" x2="363.92" y2="389.40"/><line x1="183.20" y1="103.25" x2="182.50" y2="128.69"/><line x1="383.82" y1="412.99" x2="387.01" y2="409.58"/><line x1="348.97" y1="429.87" x2="354.49" y2="428.73"/><line x1="363.92" y1="389.40" x2="392.22" y2="390.63"/><line x1="272.31" y1="118.53" x2="270.42" y2="124.66"/><line x1="150.18" y1="126.39" x2="155.85" y2="126.18"/><line x1="131.06" y1="108.39" x2="133.50" y2="106.40"/><line x1="169.84" y1="127.01" x2="177.56" y2="102.41"/><line x1="218.94" y1="133.90" x2="251.66" y2="298.54"/><line x1="143.46" y1="102.28" x2="147.65" y2="101.52"/><line x1="337.57" y1="430.79" x2="343.33" y2="430.56"/><line x1="387.01" y1="409.58" x2="363.92" y2="389.40"/><line x1="236.33" y1="137.06" x2="231.27" y2="136.20"/><line x1="249.30" y1="138.60" x2="246.51" y2="115.02"/><line x1="240.93" y1="114.35" x2="236.33" y2="137.06"/><line x1="144.70" y1="127.02" x2="136.38" y2="104.72"/><line x1="177.56" y1="102.41" x2="173.86" y2="127.46"/><line x1="358.01" y1="396.64" x2="379.93" y2="416.31"/><line x1="134.38" y1="129.52" x2="125.31" y2="117.20"/><line x1="295.68" y1="400.66" x2="293.92" y2="418.79"/><line x1="263.01" y1="345.59" x2="267.03" y2="357.97"/><line x1="246.51" y1="115.02" x2="247.15" y2="138.50"/><line x1="258.47" y1="115.45" x2="260.08" y2="136.37"/><line x1="139.44" y1="128.06" x2="128.95" y2="110.78"/><line x1="480.00" y1="479.91" x2="447.51" y2="479.91"/><line x1="255.33" y1="315.87" x2="259.12" y2="331.56"/><line x1="293.92" y1="418.79" x2="302.20" y2="403.95"/><line x1="381.14" y1="373.54" x2="376.06" y2="369.53"/><line x1="270.42" y1="124.66" x2="261.27" y2="115.19"/><line x1="392.22" y1="390.63" x2="366.13" y2="385.30"/><line x1="255.54" y1="115.54" x2="255.08" y2="138.04"/><line x1="271.24" y1="112.42" x2="273.42" y2="111.28"/><line x1="385.29" y1="377.65" x2="381.14" y2="373.54"/><line x1="251.66" y1="298.54" x2="217.09" y2="299.83"/><line x1="129.52" y1="131.40" x2="122.48" y2="125.73"/><line x1="195.16" y1="105.50" x2="211.52" y2="109.08"/><line x1="144.70" y1="127.02" x2="143.46" y2="102.28"/><line x1="177.56" y1="102.41" x2="183.20" y2="103.25"/><line x1="173.86" y1="127.46" x2="178.08" y2="128.03"/><line x1="162.07" y1="101.00" x2="167.00" y2="101.28"/><line x1="359.88" y1="427.12" x2="365.15" y2="425.06"/><line x1="366.13" y1="385.30" x2="390.83" y2="386.20"/><line x1="246.51" y1="115.02" x2="240.67" y2="137.73"/><line x1="247.15" y1="138.50" x2="244.28" y2="138.22"/><line x1="139.44" y1="128.06" x2="144.70" y2="127.02"/><line x1="166.04" y1="126.64" x2="172.17" y2="101.75"/><line x1="152.30" y1="101.06" x2="157.37" y2="100.91"/><line x1="211.52" y1="109.08" x2="218.94" y2="133.90"/><line x1="341.44" y1="406.06" x2="346.11" y2="404.41"/><line x1="391.26" y1="402.53" x2="392.33" y2="398.88"/><line x1="325.37" y1="408.17" x2="326.38" y2="430.04"/><line x1="350.42" y1="402.30" x2="354.39" y2="399.70"/><line x1="302.20" y1="403.95" x2="304.56" y2="424.04"/><line x1="279.74" y1="385.15" x2="284.45" y2="391.26"/><line x1="343.33" y1="430.56" x2="341.44" y2="406.06"/><line x1="251.66" y1="298.54" x2="255.33" y2="315.87"/><line x1="129.52" y1="131.40" x2="134.38" y2="129.52"/><line x1="122.48" y1="125.73" x2="123.80" y2="121.20"/><line x1="283.46" y1="412.04" x2="289.76" y2="396.43"/><line x1="253.44" y1="382.67" x2="275.39" y2="377.74"/><line x1="326.38" y1="430.04" x2="331.07" y2="407.94"/><line x1="240.67" y1="137.73" x2="240.93" y2="114.35"/><line x1="259.12" y1="331.56" x2="263.01" y2="345.59"/><line x1="366.13" y1="385.30" x2="367.85" y2="380.87"/><line x1="261.27" y1="115.19" x2="258.47" y2="115.45"/><line x1="390.83" y1="386.20" x2="388.53" y2="381.88"/><line x1="363.92" y1="389.40" x2="391.26" y2="402.53"/><line x1="272.31" y1="118.53" x2="273.42" y2="111.28"/><line x1="124.88" y1="133.70" x2="121.36" y2="130.81"/><line x1="236.55" y1="354.73" x2="244.60" y2="369.57"/><line x1="128.95" y1="110.78" x2="131.06" y2="108.39"/><line x1="309.32" y1="406.29" x2="315.39" y2="427.79"/><line x1="32.16" y1="32.09" x2="32.16" y2="64.58"/><line x1="218.94" y1="133.90" x2="219.93" y2="110.79"/><line x1="392.33" y1="398.88" x2="392.68" y2="395.16"/><line x1="379.93" y1="416.31" x2="383.82" y2="412.99"/><line x1="376.06" y1="369.53" x2="369.82" y2="371.02"/><line x1="365.15" y1="425.06" x2="370.29" y2="422.54"/><line x1="388.53" y1="381.88" x2="367.85" y2="380.87"/><line x1="121.36" y1="130.81" x2="120.44" y2="136.41"/><line x1="182.50" y1="128.69" x2="189.06" y2="104.28"/><line x1="354.39" y1="399.70" x2="375.32" y2="419.56"/><line x1="217.09" y1="299.83" x2="222.79" y2="319.86"/><line x1="367.85" y1="380.87" x2="385.29" y2="377.65"/><line x1="283.46" y1="412.04" x2="293.92" y2="418.79"/><line x1="157.37" y1="100.91" x2="162.07" y2="101.00"/><line x1="346.11" y1="404.41" x2="359.88" y2="427.12"/><line x1="392.68" y1="395.16" x2="392.22" y2="390.63"/><line x1="361.21" y1="393.19" x2="387.01" y2="409.58"/><line x1="331.07" y1="407.94" x2="337.57" y2="430.79"/><line x1="267.75" y1="129.68" x2="264.31" y2="133.58"/><line x1="363.92" y1="389.40" x2="392.68" y2="395.16"/><line x1="225.47" y1="135.15" x2="231.27" y2="136.20"/><line x1="124.88" y1="133.70" x2="129.52" y2="131.40"/><line x1="150.18" y1="126.39" x2="152.30" y2="101.06"/><line x1="189.06" y1="104.28" x2="195.16" y2="105.50"/><line x1="336.43" y1="407.24" x2="341.44" y2="406.06"/><line x1="172.17" y1="101.75" x2="177.56" y2="102.41"/><line x1="131.06" y1="108.39" x2="144.70" y2="127.02"/><line x1="315.39" y1="427.79" x2="317.04" y2="407.71"/><line x1="218.94" y1="133.90" x2="227.64" y2="112.24"/><line x1="275.39" y1="377.74" x2="279.74" y2="385.15"/><line x1="337.57" y1="430.79" x2="336.43" y2="407.24"/><line x1="266.50" y1="114.15" x2="263.95" y2="114.76"/><line x1="251.38" y1="115.41" x2="246.51" y2="115.02"/><line x1="369.82" y1="371.02" x2="370.07" y2="365.61"/><line x1="236.33" y1="137.06" x2="234.64" y2="113.43"/><line x1="125.31" y1="117.20" x2="139.44" y2="128.06"/><line x1="121.36" y1="130.81" x2="122.48" y2="125.73"/><line x1="182.50" y1="128.69" x2="211.52" y2="109.08"/><line x1="244.60" y1="369.57" x2="253.44" y2="382.67"/><line x1="144.70" y1="127.02" x2="133.50" y2="106.40"/><line x1="317.04" y1="407.71" x2="325.37" y2="408.17"/><line x1="367.85" y1="380.87" x2="369.08" y2="376.11"/><line x1="222.79" y1="319.86" x2="255.33" y2="315.87"/><line x1="480.00" y1="32.02" x2="447.51" y2="32.02"/><line x1="139.44" y1="128.06" x2="127.03" y2="113.72"/><line x1="229.28" y1="338.17" x2="236.55" y2="354.73"/><line x1="315.39" y1="427.79" x2="326.38" y2="430.04"/><line x1="169.84" y1="127.01" x2="173.86" y2="127.46"/><line x1="255.33" y1="315.87" x2="229.28" y2="338.17"/><line x1="375.32" y1="419.56" x2="379.93" y2="416.31"/><line x1="381.14" y1="373.54" x2="369.08" y2="376.11"/><line x1="218.94" y1="133.90" x2="225.47" y2="135.15"/><line x1="354.49" y1="428.73" x2="359.88" y2="427.12"/><line x1="249.30" y1="138.60" x2="247.15" y2="138.50"/><line x1="162.44" y1="126.39" x2="166.04" y2="126.64"/><line x1="147.65" y1="101.52" x2="152.30" y2="101.06"/><line x1="267.03" y1="357.97" x2="271.15" y2="368.68"/><line x1="133.50" y1="106.40" x2="136.38" y2="104.72"/><line x1="358.01" y1="396.64" x2="361.21" y2="393.19"/><line x1="295.68" y1="400.66" x2="302.20" y2="403.95"/><line x1="359.88" y1="427.12" x2="350.42" y2="402.30"/><line x1="260.08" y1="136.37" x2="255.08" y2="138.04"/><line x1="155.85" y1="126.18" x2="159.04" y2="126.23"/><line x1="136.38" y1="104.72" x2="139.70" y2="103.35"/><line x1="139.44" y1="128.06" x2="131.06" y2="108.39"/><line x1="127.03" y1="113.72" x2="128.95" y2="110.78"/><line x1="273.17" y1="403.79" x2="283.46" y2="412.04"/><line x1="152.30" y1="101.06" x2="155.85" y2="126.18"/><line x1="341.44" y1="406.06" x2="348.97" y2="429.87"/><line x1="255.54" y1="115.54" x2="251.38" y2="115.41"/><line x1="369.08" y1="376.11" x2="376.06" y2="369.53"/><line x1="392.22" y1="390.63" x2="390.83" y2="386.20"/><line x1="263.95" y1="114.76" x2="261.27" y2="115.19"/><line x1="123.80" y1="121.20" x2="134.38" y2="129.52"/><line x1="139.70" y1="103.35" x2="143.46" y2="102.28"/><line x1="251.66" y1="298.54" x2="222.79" y2="319.86"/><line x1="167.00" y1="101.28" x2="172.17" y2="101.75"/><line x1="253.44" y1="382.67" x2="271.15" y2="368.68"/><line x1="32.00" y1="479.98" x2="64.49" y2="479.98"/><line x1="178.08" y1="128.03" x2="182.50" y2="128.69"/><line x1="236.55" y1="354.73" x2="263.01" y2="345.59"/><line x1="166.04" y1="126.64" x2="169.84" y2="127.01"/><line x1="284.45" y1="391.26" x2="289.76" y2="396.43"/><line x1="348.97" y1="429.87" x2="346.11" y2="404.41"/><line x1="272.31" y1="118.53" x2="266.50" y2="114.15"/><line x1="325.37" y1="408.17" x2="331.07" y2="407.94"/><line x1="379.93" y1="416.31" x2="361.21" y2="393.19"/><line x1="302.20" y1="403.95" x2="309.32" y2="406.29"/><line x1="64.64" y1="32.09" x2="32.16" y2="64.58"/><line x1="255.08" y1="138.04" x2="249.30" y2="138.60"/><line x1="227.64" y1="112.24" x2="234.64" y2="113.43"/><line x1="159.04" y1="126.23" x2="162.44" y2="126.39"/><line x1="143.46" y1="102.28" x2="150.18" y2="126.39"/><line x1="304.56" y1="424.04" x2="315.39" y2="427.79"/><line x1="354.39" y1="399.70" x2="370.29" y2="422.54"/><line x1="283.46" y1="412.04" x2="295.68" y2="400.66"/><line x1="346.11" y1="404.41" x2="354.49" y2="428.73"/><line x1="240.67" y1="137.73" x2="236.33" y2="137.06"/><line x1="268.93" y1="113.37" x2="266.50" y2="114.15"/><line x1="225.47" y1="135.15" x2="234.64" y2="113.43"/><line x1="124.88" y1="133.70" x2="120.44" y2="136.41"/><line x1="150.18" y1="126.39" x2="147.65" y2="101.52"/><line x1="263.07" y1="394.04" x2="273.17" y2="403.79"/><line x1="183.20" y1="103.25" x2="189.06" y2="104.28"/><line x1="263.01" y1="345.59" x2="244.60" y2="369.57"/><line x1="309.32" y1="406.29" x2="317.04" y2="407.71"/><line x1="336.43" y1="407.24" x2="343.33" y2="430.56"/><line x1="258.47" y1="115.45" x2="264.31" y2="133.58"/><line x1="363.92" y1="389.40" x2="366.13" y2="385.30"/><line x1="266.50" y1="114.15" x2="270.42" y2="124.66"/><line x1="270.42" y1="124.66" x2="263.95" y2="114.76"/><line x1="182.50" y1="128.69" x2="195.16" y2="105.50"/><line x1="244.60" y1="369.57" x2="267.03" y2="357.97"/><line x1="354.39" y1="399.70" x2="358.01" y2="396.64"/><line x1="387.01" y1="409.58" x2="389.49" y2="406.09"/><line x1="370.29" y1="422.54" x2="375.32" y2="419.56"/><line x1="367.85" y1="380.87" x2="381.14" y2="373.54"/><line x1="346.11" y1="404.41" x2="350.42" y2="402.30"/><line x1="271.24" y1="112.42" x2="272.31" y2="118.53"/><line x1="331.07" y1="407.94" x2="336.43" y2="407.24"/><line x1="240.93" y1="114.35" x2="234.64" y2="113.43"/><line x1="144.70" y1="127.02" x2="139.70" y2="103.35"/><line x1="177.56" y1="102.41" x2="178.08" y2="128.03"/><line x1="480.00" y1="32.02" x2="480.00" y2="64.50"/><line x1="229.28" y1="338.17" x2="259.12" y2="331.56"/><line x1="134.38" y1="129.52" x2="139.44" y2="128.06"/><line x1="162.07" y1="101.00" x2="162.44" y2="126.39"/><line x1="212.17" y1="278.06" x2="251.66" y2="298.54"/><line x1="315.39" y1="427.79" x2="325.37" y2="408.17"/><line x1="375.32" y1="419.56" x2="358.01" y2="396.64"/><line x1="258.47" y1="115.45" x2="255.54" y2="115.54"/><line x1="246.51" y1="115.02" x2="244.28" y2="138.22"/><line x1="264.31" y1="133.58" x2="260.08" y2="136.37"/><line x1="480.00" y1="479.91" x2="480.00" y2="447.42"/><line x1="125.31" y1="117.20" x2="127.03" y2="113.72"/><line x1="162.44" y1="126.39" x2="167.00" y2="101.28"/><line x1="293.92" y1="418.79" x2="304.56" y2="424.04"/><line x1="350.42" y1="402.30" x2="365.15" y2="425.06"/><line x1="279.74" y1="385.15" x2="273.17" y2="403.79"/><line x1="182.50" y1="128.69" x2="218.94" y2="133.90"/><line x1="271.24" y1="112.42" x2="268.93" y2="113.37"/><line x1="270.42" y1="124.66" x2="267.75" y2="129.68"/><line x1="267.03" y1="357.97" x2="253.44" y2="382.67"/><line x1="222.79" y1="319.86" x2="229.28" y2="338.17"/><line x1="260.08" y1="136.37" x2="255.54" y2="115.54"/><line x1="129.52" y1="131.40" x2="123.80" y2="121.20"/><line x1="155.85" y1="126.18" x2="157.37" y2="100.91"/><line x1="144.70" y1="127.02" x2="150.18" y2="126.39"/><line x1="480.00" y1="64.50" x2="447.51" y2="32.02"/><line x1="212.17" y1="278.06" x2="217.09" y2="299.83"/><line x1="227.64" y1="112.24" x2="225.47" y2="135.15"/><line x1="259.12" y1="331.56" x2="236.55" y2="354.73"/><line x1="273.17" y1="403.79" x2="284.45" y2="391.26"/><line x1="366.13" y1="385.30" x2="388.53" y2="381.88"/><line x1="363.92" y1="389.40" x2="389.49" y2="406.09"/><line x1="261.27" y1="115.19" x2="267.75" y2="129.68"/><line x1="246.51" y1="115.02" x2="240.93" y2="114.35"/><line x1="32.16" y1="32.09" x2="64.64" y2="32.09"/><line x1="211.52" y1="109.08" x2="219.93" y2="110.79"/><line x1="447.51" y1="479.91" x2="480.00" y2="447.42"/><line x1="271.15" y1="368.68" x2="275.39" y2="377.74"/><line x1="167.00" y1="101.28" x2="166.04" y2="126.64"/><line x1="365.15" y1="425.06" x2="354.39" y2="399.70"/><line x1="182.50" y1="128.69" x2="212.17" y2="278.06"/><line x1="343.33" y1="430.56" x2="348.97" y2="429.87"/><line x1="389.49" y1="406.09" x2="391.26" y2="402.53"/><line x1="32.00" y1="479.98" x2="32.00" y2="447.50"/><line x1="234.64" y1="113.43" x2="231.27" y2="136.20"/><line x1="157.37" y1="100.91" x2="159.04" y2="126.23"/><line x1="253.44" y1="382.67" x2="263.07" y2="394.04"/><line x1="326.38" y1="430.04" x2="337.57" y2="430.79"/><line x1="178.08" y1="128.03" x2="183.20" y2="103.25"/><line x1="361.21" y1="393.19" x2="383.82" y2="412.99"/><line x1="284.45" y1="391.26" x2="283.46" y2="412.04"/><line x1="363.92" y1="389.40" x2="392.33" y2="398.88"/><line x1="272.31" y1="118.53" x2="268.93" y2="113.37"/><line x1="267.75" y1="129.68" x2="258.47" y2="115.45"/><line x1="244.28" y1="138.22" x2="240.67" y2="137.73"/><line x1="369.08" y1="376.11" x2="369.82" y2="371.02"/><line x1="172.17" y1="101.75" x2="169.84" y2="127.01"/><line x1="255.08" y1="138.04" x2="251.38" y2="115.41"/><line x1="123.80" y1="121.20" x2="125.31" y2="117.20"/><line x1="159.04" y1="126.23" x2="162.07" y2="101.00"/><line x1="218.94" y1="133.90" x2="212.17" y2="278.06"/><line x1="275.39" y1="377.74" x2="263.07" y2="394.04"/><line x1="376.06" y1="369.53" x2="370.07" y2="365.61"/><line x1="304.56" y1="424.04" x2="309.32" y2="406.29"/><line x1="251.38" y1="115.41" x2="249.30" y2="138.60"/><line x1="388.53" y1="381.88" x2="385.29" y2="377.65"/><line x1="121.36" y1="130.81" x2="129.52" y2="131.40"/><line x1="32.00" y1="447.50" x2="64.49" y2="479.98"/></g></svg>