<svg xmlns="http://www.w3.org/2000/svg" width="512" height="512"><rect width="512" height="512" fill="#0a0f1a"/><text x="12" y="20" font-family="monospace" font-size="11" fill="#4a7fa5">FRONT (XZ)</text><g stroke="#00d4ff" stroke-width="0.6" opacity="0.85"><line x1="268.47" y1="242.74" x2="273.38" y2="271.50"/><line x1="334.33" y1="252.88" x2="324.06" y2="278.47"/><line x1="299.12" y1="148.09" x2="277.11" y2="162.59"/><line x1="334.33" y1="252.88" x2="354.24" y2="279.30"/><line x1="207.13" y1="239.91" x2="209.12" y2="240.03"/><line x1="229.69" y1="330.60" x2="261.72" y2="328.48"/><line x1="227.49" y1="153.27" x2="227.83" y2="155.76"/><line x1="277.11" y1="162.59" x2="270.31" y2="150.22"/><line x1="219.09" y1="269.23" x2="211.19" y2="240.18"/><line x1="185.88" y1="273.01" x2="163.00" y2="250.09"/><line x1="227.83" y1="155.76" x2="197.66" y2="163.64"/><line x1="344.16" y1="280.85" x2="345.85" y2="280.92"/><line x1="198.77" y1="169.09" x2="200.07" y2="175.21"/><line x1="163.00" y1="250.09" x2="165.17" y2="247.46"/><line x1="228.77" y1="352.94" x2="227.99" y2="355.62"/><line x1="345.85" y1="280.92" x2="349.16" y2="280.74"/><line x1="276.50" y1="101.30" x2="272.59" y2="100.52"/><line x1="263.74" y1="343.33" x2="263.88" y2="346.41"/><line x1="227.74" y1="138.00" x2="223.01" y2="133.23"/><line x1="200.07" y1="175.21" x2="231.52" y2="175.55"/><line x1="220.44" y1="132.60" x2="217.94" y2="132.13"/><line x1="272.59" y1="100.52" x2="268.97" y2="99.92"/><line x1="231.52" y1="175.55" x2="203.64" y2="192.09"/><line x1="358.06" y1="274.42" x2="358.32" y2="272.08"/><line x1="176.69" y1="275.00" x2="185.88" y2="273.01"/><line x1="196.01" y1="271.39" x2="192.59" y2="239.85"/><line x1="185.88" y1="273.01" x2="175.46" y2="242.23"/><line x1="358.32" y1="272.08" x2="358.27" y2="270.05"/><line x1="255.99" y1="364.86" x2="252.51" y2="366.09"/><line x1="227.10" y1="145.09" x2="215.53" y2="131.78"/><line x1="262.57" y1="99.22" x2="259.80" y2="99.14"/><line x1="268.47" y1="242.74" x2="265.23" y2="270.63"/><line x1="207.13" y1="239.91" x2="219.09" y2="269.23"/><line x1="236.11" y1="364.51" x2="232.80" y2="363.39"/><line x1="307.10" y1="248.10" x2="308.95" y2="276.25"/><line x1="291.51" y1="125.93" x2="265.63" y2="99.48"/><line x1="480.00" y1="32.02" x2="447.51" y2="32.02"/><line x1="228.77" y1="352.94" x2="232.80" y2="363.39"/><line x1="264.55" y1="139.24" x2="259.84" y2="129.65"/><line x1="207.08" y1="270.14" x2="205.20" y2="239.81"/><line x1="228.26" y1="318.32" x2="229.10" y2="324.76"/><line x1="227.12" y1="148.91" x2="195.15" y2="146.52"/><line x1="249.81" y1="269.23" x2="257.28" y2="305.21"/><line x1="292.25" y1="188.63" x2="284.56" y2="175.63"/><line x1="157.86" y1="262.90" x2="159.34" y2="257.81"/><line x1="229.82" y1="347.07" x2="248.41" y2="366.50"/><line x1="217.94" y1="132.13" x2="227.10" y2="145.09"/><line x1="176.69" y1="275.00" x2="161.06" y2="253.54"/><line x1="251.98" y1="109.23" x2="262.57" y2="99.22"/><line x1="230.06" y1="335.84" x2="230.18" y2="340.48"/><line x1="185.88" y1="273.01" x2="171.27" y2="243.65"/><line x1="257.37" y1="269.87" x2="268.47" y2="242.74"/><line x1="291.51" y1="125.93" x2="280.70" y2="102.25"/><line x1="227.07" y1="147.03" x2="227.12" y2="148.91"/><line x1="262.67" y1="334.37" x2="263.34" y2="339.32"/><line x1="205.20" y1="239.81" x2="207.13" y2="239.91"/><line x1="228.25" y1="158.44" x2="228.76" y2="161.33"/><line x1="356.71" y1="256.33" x2="356.14" y2="252.88"/><line x1="239.33" y1="365.38" x2="236.11" y2="364.51"/><line x1="227.12" y1="148.91" x2="203.19" y2="132.73"/><line x1="249.81" y1="269.23" x2="219.09" y2="269.23"/><line x1="227.12" y1="148.91" x2="227.26" y2="150.99"/><line x1="265.63" y1="99.48" x2="253.55" y2="114.65"/><line x1="356.14" y1="252.88" x2="342.20" y2="232.72"/><line x1="251.63" y1="103.60" x2="252.99" y2="101.12"/><line x1="229.82" y1="347.07" x2="262.61" y2="356.25"/><line x1="236.11" y1="364.51" x2="228.77" y2="352.94"/><line x1="244.20" y1="240.35" x2="256.18" y2="241.43"/><line x1="203.19" y1="132.73" x2="200.30" y2="134.26"/><line x1="290.57" y1="273.63" x2="307.10" y2="248.10"/><line x1="252.99" y1="101.12" x2="252.14" y2="102.23"/><line x1="257.28" y1="305.21" x2="227.18" y2="311.28"/><line x1="307.10" y1="248.10" x2="299.61" y2="274.88"/><line x1="318.12" y1="191.21" x2="300.19" y2="201.58"/><line x1="291.51" y1="125.93" x2="268.97" y2="99.92"/><line x1="227.18" y1="311.28" x2="228.26" y2="318.32"/><line x1="480.00" y1="32.02" x2="480.00" y2="64.50"/><line x1="195.25" y1="148.59" x2="195.55" y2="151.35"/><line x1="251.46" y1="105.21" x2="254.18" y2="100.25"/><line x1="300.19" y1="201.58" x2="292.25" y2="188.63"/><line x1="207.08" y1="270.14" x2="203.34" y2="239.74"/><line x1="168.45" y1="277.34" x2="157.86" y2="262.90"/><line x1="480.00" y1="479.91" x2="480.00" y2="447.42"/><line x1="195.55" y1="151.35" x2="196.05" y2="154.76"/><line x1="227.12" y1="148.91" x2="195.47" y2="142.54"/><line x1="324.06" y1="278.47" x2="329.64" y2="279.22"/><line x1="157.86" y1="262.90" x2="176.69" y2="275.00"/><line x1="261.72" y1="328.48" x2="230.06" y2="335.84"/><line x1="229.82" y1="347.07" x2="252.51" y2="366.09"/><line x1="197.66" y1="163.64" x2="198.77" y2="169.09"/><line x1="329.64" y1="279.22" x2="334.43" y2="279.84"/><line x1="270.31" y1="150.22" x2="291.51" y2="125.93"/><line x1="230.06" y1="335.84" x2="262.67" y2="334.37"/><line x1="447.51" y1="479.91" x2="480.00" y2="447.42"/><line x1="329.53" y1="212.16" x2="318.12" y2="191.21"/><line x1="291.51" y1="125.93" x2="264.55" y2="139.24"/><line x1="223.01" y1="133.23" x2="220.44" y2="132.60"/><line x1="228.25" y1="158.44" x2="198.77" y2="169.09"/><line x1="167.84" y1="245.40" x2="171.27" y2="243.65"/><line x1="227.50" y1="139.67" x2="227.32" y2="141.41"/><line x1="203.64" y1="192.09" x2="213.32" y2="240.35"/><line x1="351.95" y1="280.20" x2="354.24" y2="279.30"/><line x1="227.12" y1="148.91" x2="196.05" y2="154.76"/><line x1="265.63" y1="99.48" x2="256.17" y2="121.46"/><line x1="229.82" y1="347.07" x2="263.56" y2="351.74"/><line x1="229.82" y1="347.07" x2="229.39" y2="350.10"/><line x1="244.20" y1="240.35" x2="249.81" y2="269.23"/><line x1="199.83" y1="239.69" x2="201.55" y2="239.70"/><line x1="196.76" y1="158.87" x2="197.66" y2="163.64"/><line x1="213.19" y1="131.57" x2="210.92" y2="131.50"/><line x1="251.46" y1="105.21" x2="255.71" y2="99.63"/><line x1="480.00" y1="479.91" x2="447.51" y2="479.91"/><line x1="273.38" y1="271.50" x2="281.83" y2="272.51"/><line x1="229.82" y1="347.07" x2="255.99" y2="364.86"/><line x1="197.66" y1="163.64" x2="228.25" y2="158.44"/><line x1="325.43" y1="240.13" x2="316.78" y2="227.32"/><line x1="165.17" y1="247.46" x2="167.84" y2="245.40"/><line x1="232.80" y1="363.39" x2="229.39" y2="362.03"/><line x1="329.53" y1="212.16" x2="308.36" y2="214.47"/><line x1="349.16" y1="280.74" x2="351.95" y2="280.20"/><line x1="161.16" y1="280.05" x2="154.80" y2="283.12"/><line x1="227.99" y1="355.62" x2="227.02" y2="358.10"/><line x1="223.01" y1="133.23" x2="227.50" y2="139.67"/><line x1="308.95" y1="276.25" x2="317.71" y2="277.59"/><line x1="155.59" y1="275.56" x2="156.61" y2="268.82"/><line x1="268.97" y1="99.92" x2="265.63" y2="99.48"/><line x1="259.03" y1="313.90" x2="260.51" y2="321.66"/><line x1="320.57" y1="250.37" x2="334.33" y2="252.88"/><line x1="203.64" y1="192.09" x2="244.20" y2="240.35"/><line x1="334.33" y1="252.88" x2="357.20" y2="259.55"/><line x1="307.99" y1="169.84" x2="299.12" y2="148.09"/><line x1="265.63" y1="99.48" x2="259.84" y2="129.65"/><line x1="229.10" y1="324.76" x2="229.69" y2="330.60"/><line x1="213.32" y1="240.35" x2="211.19" y2="240.18"/><line x1="244.20" y1="240.35" x2="213.32" y2="240.35"/><line x1="284.56" y1="175.63" x2="277.11" y2="162.59"/><line x1="358.27" y1="270.05" x2="358.14" y2="267.78"/><line x1="199.83" y1="239.69" x2="207.08" y2="270.14"/><line x1="225.66" y1="133.98" x2="227.74" y2="138.00"/><line x1="196.76" y1="158.87" x2="227.83" y2="155.76"/><line x1="215.53" y1="131.78" x2="213.19" y2="131.57"/><line x1="358.14" y1="267.78" x2="357.91" y2="265.28"/><line x1="161.06" y1="253.54" x2="163.00" y2="250.09"/><line x1="259.80" y1="99.14" x2="251.46" y2="105.21"/><line x1="248.41" y1="366.50" x2="245.48" y2="366.37"/><line x1="213.19" y1="131.57" x2="227.07" y2="147.03"/><line x1="265.23" y1="270.63" x2="273.38" y2="271.50"/><line x1="251.46" y1="105.21" x2="257.59" y2="99.26"/><line x1="263.34" y1="339.32" x2="263.74" y2="343.33"/><line x1="334.33" y1="252.88" x2="341.69" y2="280.65"/><line x1="334.33" y1="252.88" x2="358.32" y2="272.08"/><line x1="273.38" y1="271.50" x2="281.05" y2="244.29"/><line x1="263.88" y1="346.41" x2="229.82" y2="347.07"/><line x1="334.33" y1="252.88" x2="325.43" y2="240.13"/><line x1="342.20" y1="232.72" x2="325.43" y2="240.13"/><line x1="209.12" y1="240.03" x2="211.19" y2="240.18"/><line x1="200.30" y1="134.26" x2="198.04" y2="136.40"/><line x1="325.43" y1="240.13" x2="329.53" y2="212.16"/><line x1="232.80" y1="363.39" x2="227.99" y2="355.62"/><line x1="198.04" y1="136.40" x2="196.44" y2="139.17"/><line x1="192.59" y1="239.85" x2="199.83" y2="239.69"/><line x1="161.16" y1="280.05" x2="155.59" y2="275.56"/><line x1="196.05" y1="154.76" x2="196.76" y2="158.87"/><line x1="308.95" y1="276.25" x2="320.57" y2="250.37"/><line x1="252.51" y1="366.09" x2="248.41" y2="366.50"/><line x1="259.03" y1="313.90" x2="229.10" y2="324.76"/><line x1="227.26" y1="150.99" x2="227.49" y2="153.27"/><line x1="334.33" y1="252.88" x2="351.95" y2="280.20"/><line x1="334.33" y1="252.88" x2="357.61" y2="262.53"/><line x1="307.99" y1="169.84" x2="284.56" y2="175.63"/><line x1="229.39" y1="350.10" x2="228.77" y2="352.94"/><line x1="219.09" y1="269.23" x2="209.12" y2="240.03"/><line x1="230.18" y1="340.48" x2="230.09" y2="343.86"/><line x1="225.66" y1="133.98" x2="228.38" y2="134.87"/><line x1="198.77" y1="169.09" x2="229.38" y2="164.41"/><line x1="280.70" y1="102.25" x2="276.50" y2="101.30"/><line x1="220.44" y1="132.60" x2="227.18" y2="143.21"/><line x1="334.33" y1="252.88" x2="338.45" y2="280.31"/><line x1="334.33" y1="252.88" x2="358.06" y2="274.42"/><line x1="334.33" y1="252.88" x2="342.20" y2="232.72"/><line x1="299.61" y1="274.88" x2="308.95" y2="276.25"/><line x1="480.00" y1="64.50" x2="447.51" y2="32.02"/><line x1="249.81" y1="269.23" x2="257.37" y2="269.87"/><line x1="196.05" y1="154.76" x2="227.26" y2="150.99"/><line x1="242.46" y1="366.00" x2="239.33" y2="365.38"/><line x1="334.33" y1="252.88" x2="349.16" y2="280.74"/><line x1="334.43" y1="279.84" x2="338.45" y2="280.31"/><line x1="334.33" y1="252.88" x2="357.91" y2="265.28"/><line x1="159.34" y1="257.81" x2="161.06" y2="253.54"/><line x1="229.39" y1="350.10" x2="236.11" y2="364.51"/><line x1="185.88" y1="273.01" x2="196.01" y2="271.39"/><line x1="230.18" y1="340.48" x2="263.34" y2="339.32"/><line x1="198.77" y1="169.09" x2="228.76" y2="161.33"/><line x1="225.86" y1="303.64" x2="227.18" y2="311.28"/><line x1="264.55" y1="139.24" x2="265.63" y2="99.48"/><line x1="228.26" y1="318.32" x2="259.03" y2="313.90"/><line x1="175.46" y1="242.23" x2="180.41" y2="241.12"/><line x1="249.81" y1="269.23" x2="225.86" y2="303.64"/><line x1="292.25" y1="188.63" x2="307.99" y2="169.84"/><line x1="220.44" y1="132.60" x2="227.32" y2="141.41"/><line x1="334.33" y1="252.88" x2="334.43" y2="279.84"/><line x1="299.12" y1="148.09" x2="291.51" y2="125.93"/><line x1="156.61" y1="268.82" x2="157.86" y2="262.90"/><line x1="262.61" y1="356.25" x2="261.03" y2="359.94"/><line x1="176.69" y1="275.00" x2="159.34" y2="257.81"/><line x1="185.88" y1="273.01" x2="167.84" y2="245.40"/><line x1="256.17" y1="121.46" x2="253.55" y2="114.65"/><line x1="227.07" y1="147.03" x2="206.73" y2="131.81"/><line x1="262.67" y1="334.37" x2="230.18" y2="340.48"/><line x1="230.09" y1="343.86" x2="229.82" y2="347.07"/><line x1="201.55" y1="239.70" x2="203.34" y2="239.74"/><line x1="357.61" y1="262.53" x2="357.20" y2="259.55"/><line x1="242.46" y1="366.00" x2="229.39" y2="350.10"/><line x1="171.27" y1="243.65" x2="175.46" y2="242.23"/><line x1="281.83" y1="272.51" x2="290.57" y2="273.63"/><line x1="255.71" y1="99.63" x2="254.18" y2="100.25"/><line x1="354.24" y1="279.30" x2="356.03" y2="278.04"/><line x1="32.16" y1="32.09" x2="32.16" y2="64.58"/><line x1="263.56" y1="351.74" x2="262.61" y2="356.25"/><line x1="196.01" y1="271.39" x2="207.08" y2="270.14"/><line x1="185.88" y1="273.01" x2="186.13" y2="240.33"/><line x1="224.30" y1="295.40" x2="225.86" y2="303.64"/><line x1="229.39" y1="362.03" x2="225.88" y2="360.41"/><line x1="259.84" y1="129.65" x2="256.17" y2="121.46"/><line x1="291.51" y1="125.93" x2="272.59" y2="100.52"/><line x1="213.32" y1="240.35" x2="249.81" y2="269.23"/><line x1="227.10" y1="145.09" x2="227.07" y2="147.03"/><line x1="207.08" y1="270.14" x2="201.55" y2="239.70"/><line x1="317.71" y1="277.59" x2="324.06" y2="278.47"/><line x1="260.51" y1="321.66" x2="261.72" y2="328.48"/><line x1="227.12" y1="148.91" x2="196.44" y2="139.17"/><line x1="249.81" y1="269.23" x2="224.30" y2="295.40"/><line x1="268.47" y1="242.74" x2="281.05" y2="244.29"/><line x1="299.12" y1="148.09" x2="270.31" y2="150.22"/><line x1="281.05" y1="244.29" x2="293.93" y2="246.08"/><line x1="185.88" y1="273.01" x2="165.17" y2="247.46"/><line x1="227.07" y1="147.03" x2="210.92" y2="131.50"/><line x1="230.09" y1="343.86" x2="263.88" y2="346.41"/><line x1="207.08" y1="270.14" x2="219.09" y2="269.23"/><line x1="227.50" y1="139.67" x2="220.44" y2="132.60"/><line x1="227.12" y1="148.91" x2="195.55" y2="151.35"/><line x1="200.07" y1="175.21" x2="203.64" y2="192.09"/><line x1="32.00" y1="479.98" x2="64.49" y2="479.98"/><line x1="186.13" y1="240.33" x2="192.59" y2="239.85"/><line x1="229.82" y1="347.07" x2="242.46" y2="366.00"/><line x1="251.98" y1="109.23" x2="251.46" y2="105.21"/><line x1="185.88" y1="273.01" x2="180.41" y2="241.12"/><line x1="291.51" y1="125.93" x2="276.50" y2="101.30"/><line x1="357.91" y1="265.28" x2="357.61" y2="262.53"/><line x1="245.48" y1="366.37" x2="242.46" y2="366.00"/><line x1="227.12" y1="148.91" x2="198.04" y2="136.40"/><line x1="257.59" y1="99.26" x2="255.71" y2="99.63"/><line x1="265.63" y1="99.48" x2="262.57" y2="99.22"/><line x1="229.82" y1="347.07" x2="258.82" y2="362.81"/><line x1="281.05" y1="244.29" x2="281.83" y2="272.51"/><line x1="257.28" y1="305.21" x2="259.03" y2="313.90"/><line x1="329.53" y1="212.16" x2="316.78" y2="227.32"/><line x1="307.10" y1="248.10" x2="320.57" y2="250.37"/><line x1="318.12" y1="191.21" x2="307.99" y2="169.84"/><line x1="227.99" y1="355.62" x2="229.39" y2="362.03"/><line x1="196.44" y1="139.17" x2="195.47" y2="142.54"/><line x1="230.09" y1="343.86" x2="263.74" y2="343.33"/><line x1="155.59" y1="275.56" x2="154.80" y2="283.12"/><line x1="207.08" y1="270.14" x2="207.13" y2="239.91"/><line x1="320.57" y1="250.37" x2="317.71" y2="277.59"/><line x1="227.12" y1="148.91" x2="195.25" y2="148.59"/><line x1="229.10" y1="324.76" x2="260.51" y2="321.66"/><line x1="32.00" y1="479.98" x2="32.00" y2="447.50"/><line x1="186.13" y1="240.33" x2="196.01" y2="271.39"/><line x1="229.82" y1="347.07" x2="245.48" y2="366.37"/><line x1="284.56" y1="175.63" x2="299.12" y2="148.09"/><line x1="217.94" y1="132.13" x2="215.53" y2="131.78"/><line x1="251.98" y1="109.23" x2="259.80" y2="99.14"/><line x1="196.76" y1="158.87" x2="227.49" y2="153.27"/><line x1="258.82" y1="362.81" x2="255.99" y2="364.86"/><line x1="161.06" y1="253.54" x2="185.88" y2="273.01"/><line x1="257.37" y1="269.87" x2="265.23" y2="270.63"/><line x1="291.51" y1="125.93" x2="285.18" y2="103.37"/><line x1="228.03" y1="136.40" x2="227.74" y2="138.00"/><line x1="341.69" y1="280.65" x2="344.16" y2="280.85"/><line x1="263.34" y1="339.32" x2="230.09" y2="343.86"/><line x1="229.38" y1="164.41" x2="231.52" y2="175.55"/><line x1="227.12" y1="148.91" x2="200.30" y2="134.26"/><line x1="265.63" y1="99.48" x2="251.98" y2="109.23"/><line x1="251.63" y1="103.60" x2="252.14" y2="102.23"/><line x1="229.82" y1="347.07" x2="261.03" y2="359.94"/><line x1="290.57" y1="273.63" x2="299.61" y2="274.88"/><line x1="227.18" y1="143.21" x2="227.10" y2="145.09"/><line x1="257.28" y1="305.21" x2="228.26" y2="318.32"/><line x1="318.12" y1="191.21" x2="292.25" y2="188.63"/><line x1="256.18" y1="241.43" x2="268.47" y2="242.74"/><line x1="251.46" y1="105.21" x2="251.63" y2="103.60"/><line x1="168.45" y1="277.34" x2="176.69" y2="275.00"/><line x1="227.26" y1="150.99" x2="196.76" y2="158.87"/><line x1="206.73" y1="131.81" x2="203.19" y2="132.73"/><line x1="213.32" y1="240.35" x2="219.09" y2="269.23"/><line x1="261.72" y1="328.48" x2="262.67" y2="334.37"/><line x1="338.45" y1="280.31" x2="341.69" y2="280.65"/><line x1="254.18" y1="100.25" x2="252.99" y2="101.12"/><line x1="270.31" y1="150.22" x2="264.55" y2="139.24"/><line x1="225.66" y1="133.98" x2="228.03" y2="136.40"/><line x1="293.93" y1="246.08" x2="307.10" y2="248.10"/><line x1="280.70" y1="102.25" x2="285.18" y2="103.37"/><line x1="161.16" y1="280.05" x2="168.45" y2="277.34"/><line x1="228.03" y1="136.40" x2="228.38" y2="134.87"/><line x1="228.76" y1="161.33" x2="229.38" y2="164.41"/><line x1="308.36" y1="214.47" x2="300.19" y2="201.58"/><line x1="229.38" y1="164.41" x2="200.07" y2="175.21"/><line x1="334.33" y1="252.88" x2="357.30" y2="276.41"/><line x1="356.03" y1="278.04" x2="357.30" y2="276.41"/><line x1="334.33" y1="252.88" x2="356.14" y2="252.88"/><line x1="180.41" y1="241.12" x2="186.13" y2="240.33"/><line x1="227.32" y1="141.41" x2="227.18" y2="143.21"/><line x1="357.30" y1="276.41" x2="358.06" y2="274.42"/><line x1="261.03" y1="359.94" x2="258.82" y2="362.81"/><line x1="227.18" y1="143.21" x2="217.94" y2="132.13"/><line x1="249.81" y1="269.23" x2="256.18" y2="241.43"/><line x1="253.55" y1="114.65" x2="251.98" y2="109.23"/><line x1="256.18" y1="241.43" x2="257.37" y2="269.87"/><line x1="203.34" y1="239.74" x2="205.20" y2="239.81"/><line x1="210.92" y1="131.50" x2="206.73" y2="131.81"/><line x1="334.33" y1="252.88" x2="345.85" y2="280.92"/><line x1="357.20" y1="259.55" x2="356.71" y2="256.33"/><line x1="334.33" y1="252.88" x2="358.14" y2="267.78"/><line x1="229.39" y1="350.10" x2="239.33" y2="365.38"/><line x1="206.73" y1="131.81" x2="227.12" y2="148.91"/><line x1="254.18" y1="100.25" x2="251.63" y2="103.60"/><line x1="293.93" y1="246.08" x2="290.57" y2="273.63"/><line x1="225.86" y1="303.64" x2="257.28" y2="305.21"/><line x1="64.64" y1="32.09" x2="32.16" y2="64.58"/><line x1="161.16" y1="280.05" x2="156.61" y2="268.82"/><line x1="308.36" y1="214.47" x2="318.12" y2="191.21"/><line x1="227.02" y1="358.10" x2="225.88" y2="360.41"/><line x1="334.33" y1="252.88" x2="329.64" y2="279.22"/><line x1="334.33" y1="252.88" x2="356.03" y2="278.04"/><line x1="156.61" y1="268.82" x2="168.45" y2="277.34"/><line x1="334.33" y1="252.88" x2="356.71" y2="256.33"/><line x1="229.69" y1="330.60" x2="230.06" y2="335.84"/><line x1="219.09" y1="269.23" x2="224.30" y2="295.40"/><line x1="227.83" y1="155.76" x2="228.25" y2="158.44"/><line x1="225.66" y1="133.98" x2="223.01" y2="133.23"/><line x1="259.80" y1="99.14" x2="257.59" y2="99.26"/><line x1="227.74" y1="138.00" x2="227.50" y2="139.67"/><line x1="281.83" y1="272.51" x2="293.93" y2="246.08"/><line x1="334.33" y1="252.88" x2="344.16" y2="280.85"/><line x1="334.33" y1="252.88" x2="358.27" y2="270.05"/><line x1="263.88" y1="346.41" x2="263.56" y2="351.74"/><line x1="342.20" y1="232.72" x2="329.53" y2="212.16"/><line x1="32.16" y1="32.09" x2="64.64" y2="32.09"/><line x1="231.52" y1="175.55" x2="244.20" y2="240.35"/><line x1="316.78" y1="227.32" x2="308.36" y2="214.47"/><line x1="196.01" y1="271.39" x2="199.83" y2="239.69"/><line x1="229.39" y1="362.03" x2="227.02" y2="358.10"/><line x1="195.47" y1="142.54" x2="195.15" y2="146.52"/><line x1="227.10" y1="145.09" x2="213.19" y2="131.57"/><line x1="195.15" y1="146.52" x2="195.25" y2="148.59"/><line x1="317.71" y1="277.59" x2="334.33" y2="252.88"/><line x1="260.51" y1="321.66" x2="229.69" y2="330.60"/><line x1="32.00" y1="447.50" x2="64.49" y2="479.98"/></g></svg>