<svg xmlns="http://www.w3.org/2000/svg" width="512" height="512"><rect width="512" height="512" fill="#0a0f1a"/><text x="12" y="20" font-family="monospace" font-size="11" fill="#4a7fa5">FRONT (XZ)</text><g stroke="#00d4ff" stroke-width="0.6" opacity="0.85"><line x1="287.03" y1="225.96" x2="290.06" y2="225.41"/><line x1="128.37" y1="246.19" x2="125.73" y2="244.01"/><line x1="215.23" y1="359.90" x2="189.48" y2="360.71"/><line x1="396.18" y1="322.51" x2="398.54" y2="314.88"/><line x1="361.02" y1="270.41" x2="385.63" y2="251.71"/><line x1="293.45" y1="127.13" x2="288.73" y2="125.03"/><line x1="183.61" y1="298.13" x2="206.36" y2="290.70"/><line x1="259.27" y1="196.39" x2="262.17" y2="196.06"/><line x1="189.48" y1="360.71" x2="190.07" y2="353.71"/><line x1="365.28" y1="307.99" x2="366.38" y2="302.36"/><line x1="337.89" y1="337.89" x2="345.58" y2="363.08"/><line x1="344.82" y1="152.00" x2="342.35" y2="145.30"/><line x1="224.74" y1="140.41" x2="215.16" y2="141.98"/><line x1="125.40" y1="223.68" x2="116.51" y2="230.61"/><line x1="345.58" y1="363.08" x2="343.62" y2="334.87"/><line x1="233.97" y1="108.11" x2="229.24" y2="109.73"/><line x1="116.51" y1="230.61" x2="119.04" y2="222.49"/><line x1="293.18" y1="344.25" x2="302.89" y2="344.77"/><line x1="210.31" y1="329.20" x2="188.60" y2="324.03"/><line x1="398.79" y1="281.20" x2="393.86" y2="265.73"/><line x1="359.29" y1="227.97" x2="338.30" y2="241.21"/><line x1="272.73" y1="121.54" x2="266.77" y2="121.30"/><line x1="227.08" y1="237.89" x2="224.44" y2="244.41"/><line x1="169.86" y1="252.32" x2="179.28" y2="225.61"/><line x1="229.24" y1="109.73" x2="235.79" y2="129.79"/><line x1="268.52" y1="224.15" x2="274.36" y2="196.06"/><line x1="226.93" y1="235.55" x2="226.51" y2="233.00"/><line x1="188.60" y1="324.03" x2="207.93" y2="316.93"/><line x1="329.06" y1="127.40" x2="308.71" y2="139.75"/><line x1="186.52" y1="311.55" x2="188.60" y2="324.03"/><line x1="179.28" y1="225.61" x2="168.59" y2="226.19"/><line x1="274.36" y1="196.06" x2="274.54" y2="225.83"/><line x1="377.22" y1="347.88" x2="357.65" y2="322.94"/><line x1="281.15" y1="226.39" x2="284.06" y2="226.28"/><line x1="249.80" y1="123.43" x2="242.42" y2="126.08"/><line x1="214.68" y1="118.38" x2="212.54" y2="120.89"/><line x1="187.39" y1="393.33" x2="185.37" y2="378.62"/><line x1="315.52" y1="117.46" x2="307.87" y2="113.48"/><line x1="302.81" y1="221.09" x2="299.53" y2="222.49"/><line x1="310.85" y1="224.28" x2="304.35" y2="189.08"/><line x1="214.41" y1="249.86" x2="225.80" y2="230.22"/><line x1="212.54" y1="120.89" x2="211.00" y2="123.55"/><line x1="284.06" y1="226.28" x2="287.03" y2="225.96"/><line x1="235.78" y1="341.21" x2="254.13" y2="331.87"/><line x1="307.87" y1="113.48" x2="293.45" y2="127.13"/><line x1="158.87" y1="252.98" x2="157.72" y2="252.99"/><line x1="308.46" y1="183.89" x2="311.65" y2="178.57"/><line x1="287.03" y1="225.96" x2="289.27" y2="198.18"/><line x1="396.18" y1="322.51" x2="365.28" y2="307.99"/><line x1="311.65" y1="178.57" x2="337.97" y2="195.47"/><line x1="293.45" y1="127.13" x2="299.72" y2="110.24"/><line x1="211.72" y1="136.79" x2="224.74" y2="140.41"/><line x1="281.73" y1="362.45" x2="298.17" y2="365.49"/><line x1="341.19" y1="218.26" x2="319.79" y2="209.98"/><line x1="144.41" y1="225.96" x2="134.62" y2="249.52"/><line x1="224.74" y1="140.41" x2="213.23" y2="139.36"/><line x1="366.38" y1="289.73" x2="365.31" y2="283.17"/><line x1="480.00" y1="32.02" x2="447.51" y2="32.02"/><line x1="310.85" y1="224.28" x2="302.81" y2="221.09"/><line x1="250.40" y1="198.18" x2="253.38" y2="197.45"/><line x1="398.79" y1="281.20" x2="363.53" y2="276.73"/><line x1="315.30" y1="167.51" x2="315.75" y2="161.77"/><line x1="213.66" y1="219.35" x2="220.16" y2="216.81"/><line x1="272.73" y1="121.54" x2="272.25" y2="104.82"/><line x1="293.41" y1="199.05" x2="289.27" y2="198.18"/><line x1="216.69" y1="375.32" x2="216.15" y2="368.11"/><line x1="325.94" y1="366.12" x2="336.08" y2="364.98"/><line x1="346.79" y1="166.49" x2="346.30" y2="159.06"/><line x1="249.95" y1="105.04" x2="244.33" y2="105.77"/><line x1="226.51" y1="233.00" x2="214.41" y2="249.86"/><line x1="131.74" y1="224.66" x2="120.86" y2="238.25"/><line x1="325.16" y1="342.30" x2="331.74" y2="340.37"/><line x1="244.32" y1="326.19" x2="235.78" y2="341.21"/><line x1="249.80" y1="123.43" x2="239.00" y2="106.80"/><line x1="297.85" y1="129.69" x2="307.87" y2="113.48"/><line x1="258.28" y1="217.46" x2="267.89" y2="195.79"/><line x1="160.23" y1="252.94" x2="158.87" y2="252.98"/><line x1="213.96" y1="350.67" x2="212.31" y2="340.44"/><line x1="353.88" y1="258.13" x2="349.24" y2="252.18"/><line x1="392.85" y1="329.62" x2="396.18" y2="322.51"/><line x1="314.63" y1="152.20" x2="313.22" y2="147.80"/><line x1="202.84" y1="283.53" x2="206.36" y2="290.70"/><line x1="190.27" y1="346.22" x2="189.85" y2="335.59"/><line x1="202.02" y1="398.65" x2="205.93" y2="398.86"/><line x1="338.91" y1="138.97" x2="334.48" y2="133.00"/><line x1="333.02" y1="200.99" x2="311.65" y2="178.57"/><line x1="138.08" y1="225.41" x2="131.74" y2="224.66"/><line x1="235.79" y1="129.79" x2="220.81" y2="113.74"/><line x1="293.41" y1="199.05" x2="299.53" y2="222.49"/><line x1="205.93" y1="398.86" x2="208.83" y2="398.51"/><line x1="362.68" y1="357.00" x2="370.27" y2="352.82"/><line x1="283.45" y1="342.71" x2="281.73" y2="362.45"/><line x1="332.13" y1="236.35" x2="325.50" y2="231.92"/><line x1="274.54" y1="225.83" x2="281.15" y2="226.39"/><line x1="142.57" y1="251.74" x2="144.41" y2="225.96"/><line x1="281.73" y1="362.45" x2="293.18" y2="344.25"/><line x1="341.19" y1="218.26" x2="318.41" y2="227.89"/><line x1="400.44" y1="298.10" x2="366.38" y2="289.73"/><line x1="278.37" y1="122.23" x2="272.73" y2="121.54"/><line x1="277.83" y1="196.39" x2="281.49" y2="196.85"/><line x1="144.41" y1="225.96" x2="138.38" y2="250.77"/><line x1="225.34" y1="312.26" x2="234.48" y2="319.48"/><line x1="216.65" y1="386.11" x2="216.88" y2="381.50"/><line x1="366.38" y1="289.73" x2="398.79" y2="281.20"/><line x1="305.61" y1="136.11" x2="301.95" y2="132.72"/><line x1="229.89" y1="134.57" x2="224.74" y2="140.41"/><line x1="480.00" y1="32.02" x2="480.00" y2="64.50"/><line x1="250.40" y1="198.18" x2="247.39" y2="199.05"/><line x1="216.88" y1="381.50" x2="216.69" y2="375.32"/><line x1="360.92" y1="318.28" x2="363.46" y2="313.30"/><line x1="318.16" y1="343.67" x2="325.94" y2="366.12"/><line x1="480.00" y1="479.91" x2="480.00" y2="447.42"/><line x1="315.30" y1="167.51" x2="346.79" y2="166.49"/><line x1="213.66" y1="219.35" x2="221.99" y2="220.50"/><line x1="125.73" y1="244.01" x2="131.74" y2="224.66"/><line x1="325.94" y1="366.12" x2="325.16" y2="342.30"/><line x1="385.63" y1="251.71" x2="357.81" y2="264.21"/><line x1="175.28" y1="268.52" x2="198.15" y2="223.26"/><line x1="249.95" y1="105.04" x2="249.80" y2="123.43"/><line x1="131.74" y1="224.66" x2="123.23" y2="241.36"/><line x1="190.07" y1="353.71" x2="213.96" y2="350.67"/><line x1="357.81" y1="264.21" x2="353.88" y2="258.13"/><line x1="447.51" y1="479.91" x2="480.00" y2="447.42"/><line x1="258.28" y1="217.46" x2="265.04" y2="195.86"/><line x1="213.96" y1="350.67" x2="190.27" y2="346.22"/><line x1="229.89" y1="134.57" x2="210.09" y2="126.34"/><line x1="314.63" y1="152.20" x2="338.91" y2="138.97"/><line x1="202.84" y1="283.53" x2="183.61" y2="298.13"/><line x1="354.45" y1="360.42" x2="362.68" y2="357.00"/><line x1="222.97" y1="245.73" x2="221.16" y2="246.93"/><line x1="138.08" y1="225.41" x2="125.73" y2="244.01"/><line x1="168.59" y1="226.19" x2="165.43" y2="252.65"/><line x1="235.79" y1="129.79" x2="224.80" y2="111.63"/><line x1="114.53" y1="226.08" x2="112.68" y2="221.09"/><line x1="293.41" y1="199.05" x2="296.32" y2="223.68"/><line x1="332.13" y1="236.35" x2="341.19" y2="218.26"/><line x1="322.66" y1="122.16" x2="315.52" y2="117.46"/><line x1="274.54" y1="225.83" x2="277.83" y2="196.39"/><line x1="383.38" y1="342.31" x2="388.59" y2="336.22"/><line x1="206.33" y1="221.50" x2="175.28" y2="268.52"/><line x1="225.80" y1="230.22" x2="207.36" y2="253.92"/><line x1="277.83" y1="196.39" x2="281.15" y2="226.39"/><line x1="326.96" y1="205.83" x2="308.46" y2="183.89"/><line x1="229.89" y1="134.57" x2="211.72" y2="136.79"/><line x1="250.54" y1="350.32" x2="265.86" y2="357.39"/><line x1="299.34" y1="194.13" x2="302.81" y2="221.09"/><line x1="250.43" y1="206.30" x2="254.06" y2="212.44"/><line x1="299.72" y1="110.24" x2="291.06" y2="107.71"/><line x1="480.00" y1="479.91" x2="447.51" y2="479.91"/><line x1="157.05" y1="226.39" x2="150.74" y2="226.28"/><line x1="187.13" y1="373.16" x2="216.88" y2="381.50"/><line x1="168.59" y1="226.19" x2="158.87" y2="252.98"/><line x1="263.92" y1="336.52" x2="273.70" y2="340.13"/><line x1="398.54" y1="314.88" x2="399.96" y2="306.75"/><line x1="179.86" y1="283.79" x2="213.66" y2="219.35"/><line x1="288.73" y1="125.03" x2="283.71" y2="123.40"/><line x1="290.06" y1="225.41" x2="293.16" y2="224.66"/><line x1="366.38" y1="302.36" x2="366.74" y2="296.41"/><line x1="343.62" y1="334.87" x2="354.45" y2="360.42"/><line x1="225.80" y1="230.22" x2="224.81" y2="227.21"/><line x1="119.04" y1="222.49" x2="114.53" y2="226.08"/><line x1="298.17" y1="365.49" x2="310.74" y2="344.50"/><line x1="341.83" y1="189.26" x2="344.58" y2="182.35"/><line x1="229.89" y1="134.57" x2="211.00" y2="123.55"/><line x1="272.25" y1="104.82" x2="262.08" y2="104.45"/><line x1="224.44" y1="244.41" x2="222.97" y2="245.73"/><line x1="134.62" y1="249.52" x2="131.28" y2="248.00"/><line x1="207.93" y1="316.93" x2="217.61" y2="305.07"/><line x1="266.77" y1="121.30" x2="257.91" y2="121.84"/><line x1="187.13" y1="373.16" x2="211.28" y2="397.45"/><line x1="285.30" y1="197.45" x2="289.27" y2="198.18"/><line x1="138.08" y1="225.41" x2="128.37" y2="246.19"/><line x1="168.59" y1="226.19" x2="167.55" y2="252.50"/><line x1="188.51" y1="367.19" x2="215.23" y2="359.90"/><line x1="336.08" y1="364.98" x2="345.58" y2="363.08"/><line x1="217.61" y1="305.07" x2="225.34" y2="312.26"/><line x1="363.53" y1="276.73" x2="361.02" y2="270.41"/><line x1="179.86" y1="283.79" x2="200.32" y2="265.59"/><line x1="315.75" y1="161.77" x2="315.47" y2="156.86"/><line x1="179.86" y1="283.79" x2="183.61" y2="298.13"/><line x1="322.66" y1="122.16" x2="305.61" y2="136.11"/><line x1="256.33" y1="196.85" x2="259.27" y2="196.39"/><line x1="167.55" y1="252.50" x2="165.43" y2="252.65"/><line x1="175.28" y1="268.52" x2="169.86" y2="252.32"/><line x1="185.37" y1="378.62" x2="190.91" y2="395.32"/><line x1="374.11" y1="239.12" x2="359.29" y2="227.97"/><line x1="383.38" y1="342.31" x2="360.92" y2="318.28"/><line x1="226.91" y1="239.70" x2="227.08" y2="237.89"/><line x1="346.30" y1="159.06" x2="344.82" y2="152.00"/><line x1="225.80" y1="230.22" x2="210.59" y2="251.74"/><line x1="211.00" y1="123.55" x2="210.09" y2="126.34"/><line x1="190.91" y1="395.32" x2="194.52" y2="396.87"/><line x1="254.13" y1="331.87" x2="250.54" y2="350.32"/><line x1="225.59" y1="242.96" x2="224.44" y2="244.41"/><line x1="189.14" y1="224.63" x2="179.28" y2="225.61"/><line x1="239.00" y1="106.80" x2="233.97" y2="108.11"/><line x1="210.59" y1="251.74" x2="207.36" y2="253.92"/><line x1="118.62" y1="234.67" x2="116.51" y2="230.61"/><line x1="157.72" y1="252.99" x2="157.05" y2="226.39"/><line x1="289.27" y1="198.18" x2="290.06" y2="225.41"/><line x1="250.54" y1="350.32" x2="263.92" y2="336.52"/><line x1="250.43" y1="206.30" x2="256.33" y2="196.85"/><line x1="299.72" y1="110.24" x2="288.73" y2="125.03"/><line x1="183.97" y1="390.90" x2="187.39" y2="393.33"/><line x1="263.10" y1="221.36" x2="268.52" y2="224.15"/><line x1="157.05" y1="226.39" x2="152.24" y2="252.85"/><line x1="187.13" y1="373.16" x2="216.65" y2="386.11"/><line x1="338.30" y1="241.21" x2="332.13" y2="236.35"/><line x1="168.59" y1="226.19" x2="160.23" y2="252.94"/><line x1="208.83" y1="398.51" x2="211.28" y2="397.45"/><line x1="398.54" y1="314.88" x2="366.38" y2="302.36"/><line x1="334.48" y1="133.00" x2="329.06" y2="127.40"/><line x1="179.86" y1="283.79" x2="202.84" y2="283.53"/><line x1="201.20" y1="262.23" x2="200.32" y2="265.59"/><line x1="183.21" y1="383.58" x2="185.37" y2="378.62"/><line x1="213.23" y1="139.36" x2="215.16" y2="141.98"/><line x1="221.57" y1="330.08" x2="235.78" y2="341.21"/><line x1="211.28" y1="397.45" x2="213.30" y2="395.68"/><line x1="308.71" y1="139.75" x2="322.66" y2="122.16"/><line x1="337.97" y1="195.47" x2="341.83" y2="189.26"/><line x1="200.32" y1="265.59" x2="200.03" y2="269.24"/><line x1="357.65" y1="322.94" x2="383.38" y2="342.31"/><line x1="298.17" y1="365.49" x2="302.89" y2="344.77"/><line x1="272.25" y1="104.82" x2="266.77" y2="121.30"/><line x1="134.62" y1="249.52" x2="138.08" y2="225.41"/><line x1="304.35" y1="189.08" x2="326.96" y2="205.83"/><line x1="363.46" y1="313.30" x2="365.28" y2="307.99"/><line x1="365.31" y1="283.17" x2="363.53" y2="276.73"/><line x1="211.28" y1="297.87" x2="217.61" y2="305.07"/><line x1="187.13" y1="373.16" x2="208.83" y2="398.51"/><line x1="253.38" y1="197.45" x2="256.33" y2="196.85"/><line x1="265.86" y1="357.39" x2="281.73" y2="362.45"/><line x1="188.51" y1="367.19" x2="216.15" y2="368.11"/><line x1="336.08" y1="364.98" x2="337.89" y2="337.89"/><line x1="302.81" y1="221.09" x2="293.41" y2="199.05"/><line x1="179.86" y1="283.79" x2="201.20" y2="262.23"/><line x1="315.75" y1="161.77" x2="346.30" y2="159.06"/><line x1="179.86" y1="283.79" x2="206.33" y2="221.50"/><line x1="365.28" y1="307.99" x2="398.54" y2="314.88"/><line x1="374.11" y1="239.12" x2="344.00" y2="246.48"/><line x1="226.91" y1="239.70" x2="226.41" y2="241.40"/><line x1="244.33" y1="105.77" x2="239.00" y2="106.80"/><line x1="267.89" y1="195.79" x2="271.04" y2="195.86"/><line x1="212.31" y1="340.44" x2="210.31" y2="329.20"/><line x1="313.22" y1="147.80" x2="311.24" y2="143.65"/><line x1="293.18" y1="344.25" x2="298.17" y2="365.49"/><line x1="189.14" y1="224.63" x2="169.86" y2="252.32"/><line x1="348.92" y1="331.29" x2="353.65" y2="327.27"/><line x1="226.93" y1="235.55" x2="219.03" y2="248.00"/><line x1="250.43" y1="206.30" x2="253.38" y2="197.45"/><line x1="183.97" y1="390.90" x2="180.66" y2="388.02"/><line x1="187.13" y1="373.16" x2="215.98" y2="390.00"/><line x1="257.91" y1="121.84" x2="249.80" y2="123.43"/><line x1="217.44" y1="115.99" x2="214.68" y2="118.38"/><line x1="281.15" y1="226.39" x2="285.30" y2="197.45"/><line x1="138.38" y1="250.77" x2="134.62" y2="249.52"/><line x1="221.57" y1="330.08" x2="244.32" y2="326.19"/><line x1="318.41" y1="227.89" x2="310.85" y2="224.28"/><line x1="315.52" y1="117.46" x2="297.85" y2="129.69"/><line x1="480.00" y1="64.50" x2="447.51" y2="32.02"/><line x1="388.59" y1="336.22" x2="392.85" y2="329.62"/><line x1="221.99" y1="220.50" x2="220.16" y2="216.81"/><line x1="198.22" y1="397.98" x2="202.02" y2="398.65"/><line x1="308.46" y1="183.89" x2="333.02" y2="200.99"/><line x1="204.72" y1="256.39" x2="202.67" y2="259.16"/><line x1="150.74" y1="226.28" x2="144.41" y2="225.96"/><line x1="211.28" y1="297.87" x2="207.93" y2="316.93"/><line x1="123.23" y1="241.36" x2="120.86" y2="238.25"/><line x1="265.86" y1="357.39" x2="283.45" y2="342.71"/><line x1="336.08" y1="364.98" x2="331.74" y2="340.37"/><line x1="291.06" y1="107.71" x2="281.91" y2="105.90"/><line x1="399.96" y1="306.75" x2="400.44" y2="298.10"/><line x1="313.93" y1="173.10" x2="315.30" y2="167.51"/><line x1="374.11" y1="239.12" x2="349.24" y2="252.18"/><line x1="283.71" y1="123.40" x2="278.37" y2="122.23"/><line x1="198.15" y1="223.26" x2="189.14" y2="224.63"/><line x1="267.89" y1="195.79" x2="263.10" y2="221.36"/><line x1="366.74" y1="296.41" x2="366.38" y2="289.73"/><line x1="223.54" y1="223.97" x2="221.99" y2="220.50"/><line x1="313.22" y1="147.80" x2="334.48" y2="133.00"/><line x1="398.79" y1="281.20" x2="365.31" y2="283.17"/><line x1="348.92" y1="331.29" x2="370.27" y2="352.82"/><line x1="216.69" y1="375.32" x2="188.51" y2="367.19"/><line x1="226.93" y1="235.55" x2="221.16" y2="246.93"/><line x1="254.06" y1="212.44" x2="258.28" y2="217.46"/><line x1="220.81" y1="113.74" x2="217.44" y2="115.99"/><line x1="215.23" y1="359.90" x2="213.96" y2="350.67"/><line x1="346.79" y1="166.49" x2="315.75" y2="161.77"/><line x1="315.16" y1="366.50" x2="325.94" y2="366.12"/><line x1="224.81" y1="227.21" x2="223.54" y2="223.97"/><line x1="315.47" y1="156.86" x2="314.63" y2="152.20"/><line x1="325.50" y1="231.92" x2="318.41" y2="227.89"/><line x1="183.61" y1="298.13" x2="211.28" y2="297.87"/><line x1="257.91" y1="121.84" x2="249.95" y2="105.04"/><line x1="325.16" y1="342.30" x2="336.08" y2="364.98"/><line x1="281.15" y1="226.39" x2="281.49" y2="196.85"/><line x1="221.57" y1="330.08" x2="234.48" y2="319.48"/><line x1="249.80" y1="123.43" x2="244.33" y2="105.77"/><line x1="224.74" y1="140.41" x2="220.33" y2="147.31"/><line x1="242.42" y1="126.08" x2="235.79" y2="129.79"/><line x1="315.52" y1="117.46" x2="301.95" y2="132.72"/><line x1="353.88" y1="258.13" x2="374.11" y2="239.12"/><line x1="388.59" y1="336.22" x2="363.46" y2="313.30"/><line x1="265.04" y1="195.86" x2="267.89" y2="195.79"/><line x1="190.27" y1="346.22" x2="212.31" y2="340.44"/><line x1="209.78" y1="129.25" x2="209.99" y2="131.74"/><line x1="198.22" y1="397.98" x2="187.13" y2="373.16"/><line x1="338.91" y1="138.97" x2="313.22" y2="147.80"/><line x1="359.29" y1="227.97" x2="341.19" y2="218.26"/><line x1="227.08" y1="237.89" x2="226.93" y2="235.55"/><line x1="169.86" y1="252.32" x2="167.55" y2="252.50"/><line x1="362.68" y1="357.00" x2="348.92" y2="331.29"/><line x1="150.74" y1="226.28" x2="142.57" y2="251.74"/><line x1="293.16" y1="224.66" x2="296.32" y2="223.68"/><line x1="265.86" y1="357.39" x2="273.70" y2="340.13"/><line x1="224.80" y1="111.63" x2="220.81" y2="113.74"/><line x1="32.16" y1="32.09" x2="32.16" y2="64.58"/><line x1="291.06" y1="107.71" x2="283.71" y2="123.40"/><line x1="341.19" y1="218.26" x2="325.50" y2="231.92"/><line x1="319.79" y1="209.98" x2="326.96" y2="205.83"/><line x1="399.96" y1="306.75" x2="366.74" y2="296.41"/><line x1="313.93" y1="173.10" x2="346.24" y2="174.77"/><line x1="225.34" y1="312.26" x2="221.57" y2="330.08"/><line x1="200.73" y1="276.38" x2="202.84" y2="283.53"/><line x1="217.53" y1="144.63" x2="220.33" y2="147.31"/><line x1="305.61" y1="136.11" x2="315.52" y2="117.46"/><line x1="310.74" y1="344.50" x2="318.16" y2="343.67"/><line x1="165.43" y1="252.65" x2="163.50" y2="252.77"/><line x1="310.85" y1="224.28" x2="299.34" y2="194.13"/><line x1="262.08" y1="104.45" x2="255.87" y2="104.61"/><line x1="360.92" y1="318.28" x2="388.59" y2="336.22"/><line x1="210.09" y1="126.34" x2="209.78" y2="129.25"/><line x1="393.86" y1="265.73" x2="385.63" y2="251.71"/><line x1="254.06" y1="212.44" x2="262.17" y2="196.06"/><line x1="215.23" y1="359.90" x2="190.07" y2="353.71"/><line x1="152.24" y1="252.85" x2="147.20" y2="252.44"/><line x1="311.65" y1="178.57" x2="313.93" y2="173.10"/><line x1="315.47" y1="156.86" x2="342.35" y2="145.30"/><line x1="337.89" y1="337.89" x2="343.62" y2="334.87"/><line x1="242.42" y1="126.08" x2="229.24" y2="109.73"/><line x1="207.36" y1="253.92" x2="204.72" y2="256.39"/><line x1="125.40" y1="223.68" x2="119.04" y2="222.49"/><line x1="344.00" y1="246.48" x2="338.30" y2="241.21"/><line x1="210.31" y1="329.20" x2="207.93" y2="316.93"/><line x1="222.97" y1="245.73" x2="226.93" y2="235.55"/><line x1="293.41" y1="199.05" x2="293.16" y2="224.66"/><line x1="311.24" y1="143.65" x2="308.71" y2="139.75"/><line x1="169.86" y1="252.32" x2="168.59" y2="226.19"/><line x1="268.52" y1="224.15" x2="274.54" y2="225.83"/><line x1="32.00" y1="479.98" x2="64.49" y2="479.98"/><line x1="353.65" y1="327.27" x2="357.65" y2="322.94"/><line x1="186.52" y1="311.55" x2="207.93" y2="316.93"/><line x1="131.74" y1="224.66" x2="125.40" y2="223.68"/><line x1="319.79" y1="209.98" x2="304.35" y2="189.08"/><line x1="229.89" y1="134.57" x2="210.64" y2="134.24"/><line x1="194.52" y1="396.87" x2="198.22" y2="397.98"/><line x1="262.08" y1="104.45" x2="257.91" y2="121.84"/><line x1="333.02" y1="200.99" x2="337.97" y2="195.47"/><line x1="235.79" y1="129.79" x2="229.89" y2="134.57"/><line x1="307.87" y1="113.48" x2="299.72" y2="110.24"/><line x1="263.92" y1="336.52" x2="265.86" y2="357.39"/><line x1="254.06" y1="212.44" x2="259.27" y2="196.39"/><line x1="288.73" y1="125.03" x2="291.06" y2="107.71"/><line x1="271.04" y1="195.86" x2="274.36" y2="196.06"/><line x1="152.24" y1="252.85" x2="150.74" y2="226.28"/><line x1="311.65" y1="178.57" x2="341.83" y2="189.26"/><line x1="315.47" y1="156.86" x2="344.82" y2="152.00"/><line x1="211.72" y1="136.79" x2="213.23" y2="139.36"/><line x1="366.38" y1="302.36" x2="399.96" y2="306.75"/><line x1="215.16" y1="141.98" x2="217.53" y2="144.63"/><line x1="213.30" y1="395.68" x2="214.86" y2="393.20"/><line x1="144.41" y1="225.96" x2="138.08" y2="225.41"/><line x1="242.42" y1="126.08" x2="233.97" y2="108.11"/><line x1="341.83" y1="189.26" x2="313.93" y2="173.10"/><line x1="229.89" y1="134.57" x2="212.54" y2="120.89"/><line x1="200.03" y1="269.24" x2="200.73" y2="276.38"/><line x1="344.00" y1="246.48" x2="359.29" y2="227.97"/><line x1="302.89" y1="344.77" x2="310.74" y2="344.50"/><line x1="299.34" y1="194.13" x2="293.41" y2="199.05"/><line x1="266.77" y1="121.30" x2="262.08" y2="104.45"/><line x1="285.30" y1="197.45" x2="287.03" y2="225.96"/><line x1="138.08" y1="225.41" x2="131.28" y2="248.00"/><line x1="213.66" y1="219.35" x2="206.33" y2="221.50"/><line x1="311.24" y1="143.65" x2="329.06" y2="127.40"/><line x1="293.41" y1="199.05" x2="290.06" y2="225.41"/><line x1="363.53" y1="276.73" x2="393.86" y2="265.73"/><line x1="32.00" y1="479.98" x2="32.00" y2="447.50"/><line x1="385.63" y1="251.71" x2="374.11" y2="239.12"/><line x1="353.65" y1="327.27" x2="377.22" y2="347.88"/><line x1="256.33" y1="196.85" x2="254.06" y2="212.44"/><line x1="216.15" y1="368.11" x2="215.23" y2="359.90"/><line x1="226.51" y1="233.00" x2="225.80" y2="230.22"/><line x1="131.74" y1="224.66" x2="118.62" y2="234.67"/><line x1="346.30" y1="159.06" x2="315.47" y2="156.86"/><line x1="244.32" y1="326.19" x2="254.13" y2="331.87"/><line x1="319.79" y1="209.98" x2="310.85" y2="224.28"/><line x1="297.85" y1="129.69" x2="293.45" y2="127.13"/><line x1="331.74" y1="340.37" x2="337.89" y2="337.89"/><line x1="258.28" y1="217.46" x2="263.10" y2="221.36"/><line x1="281.91" y1="105.90" x2="272.25" y2="104.82"/><line x1="225.59" y1="242.96" x2="227.08" y2="237.89"/><line x1="239.00" y1="106.80" x2="242.42" y2="126.08"/><line x1="229.89" y1="134.57" x2="209.99" y2="131.74"/><line x1="118.62" y1="234.67" x2="125.40" y2="223.68"/><line x1="189.85" y1="335.59" x2="188.60" y2="324.03"/><line x1="211.28" y1="297.87" x2="186.52" y2="311.55"/><line x1="349.24" y1="252.18" x2="344.00" y2="246.48"/><line x1="263.10" y1="221.36" x2="271.04" y2="195.86"/><line x1="168.59" y1="226.19" x2="161.76" y2="252.87"/><line x1="235.79" y1="129.79" x2="217.44" y2="115.99"/><line x1="202.67" y1="259.16" x2="201.20" y2="262.23"/><line x1="370.27" y1="352.82" x2="377.22" y2="347.88"/><line x1="334.48" y1="133.00" x2="311.24" y2="143.65"/><line x1="179.86" y1="283.79" x2="223.54" y2="223.97"/><line x1="283.45" y1="342.71" x2="293.18" y2="344.25"/><line x1="183.21" y1="383.58" x2="187.39" y2="393.33"/><line x1="271.04" y1="195.86" x2="268.52" y2="224.15"/><line x1="185.37" y1="378.62" x2="187.13" y2="373.16"/><line x1="142.57" y1="251.74" x2="138.38" y2="250.77"/><line x1="219.03" y1="248.00" x2="214.41" y2="249.86"/><line x1="400.44" y1="298.10" x2="398.79" y2="281.20"/><line x1="206.33" y1="221.50" x2="198.15" y2="223.26"/><line x1="225.80" y1="230.22" x2="179.86" y2="283.79"/><line x1="229.89" y1="134.57" x2="214.68" y2="118.38"/><line x1="326.96" y1="205.83" x2="333.02" y2="200.99"/><line x1="363.46" y1="313.30" x2="396.18" y2="322.51"/><line x1="318.16" y1="343.67" x2="325.16" y2="342.30"/><line x1="187.13" y1="373.16" x2="205.93" y2="398.86"/><line x1="285.30" y1="197.45" x2="284.06" y2="226.28"/><line x1="187.13" y1="373.16" x2="188.51" y2="367.19"/><line x1="168.59" y1="226.19" x2="157.05" y2="226.39"/><line x1="125.73" y1="244.01" x2="123.23" y2="241.36"/><line x1="179.86" y1="283.79" x2="224.81" y2="227.21"/><line x1="385.63" y1="251.71" x2="353.88" y2="258.13"/><line x1="120.86" y1="238.25" x2="118.62" y2="234.67"/><line x1="175.28" y1="268.52" x2="189.14" y2="224.63"/><line x1="190.07" y1="353.71" x2="190.27" y2="346.22"/><line x1="226.91" y1="239.70" x2="225.59" y2="242.96"/><line x1="343.62" y1="334.87" x2="348.92" y2="331.29"/><line x1="212.31" y1="340.44" x2="189.85" y2="335.59"/><line x1="281.91" y1="105.90" x2="272.73" y2="121.54"/><line x1="225.59" y1="242.96" x2="226.41" y2="241.40"/><line x1="229.89" y1="134.57" x2="209.78" y2="129.25"/><line x1="189.85" y1="335.59" x2="210.31" y2="329.20"/><line x1="207.93" y1="316.93" x2="221.57" y2="330.08"/><line x1="250.43" y1="206.30" x2="247.39" y2="199.05"/><line x1="183.97" y1="390.90" x2="183.21" y2="383.58"/><line x1="187.13" y1="373.16" x2="214.86" y2="393.20"/><line x1="168.59" y1="226.19" x2="163.50" y2="252.77"/><line x1="370.27" y1="352.82" x2="353.65" y2="327.27"/><line x1="346.24" y1="174.77" x2="346.79" y2="166.49"/><line x1="221.16" y1="246.93" x2="219.03" y2="248.00"/><line x1="179.86" y1="283.79" x2="200.73" y2="276.38"/><line x1="217.44" y1="115.99" x2="229.89" y2="134.57"/><line x1="179.86" y1="283.79" x2="175.28" y2="268.52"/><line x1="183.21" y1="383.58" x2="180.66" y2="388.02"/><line x1="185.37" y1="378.62" x2="198.22" y2="397.98"/><line x1="318.41" y1="227.89" x2="319.79" y2="209.98"/><line x1="219.03" y1="248.00" x2="226.51" y2="233.00"/><line x1="163.50" y1="252.77" x2="161.76" y2="252.87"/><line x1="281.49" y1="196.85" x2="285.30" y2="197.45"/><line x1="225.80" y1="230.22" x2="204.72" y2="256.39"/><line x1="234.48" y1="319.48" x2="244.32" y2="326.19"/><line x1="301.95" y1="132.72" x2="297.85" y2="129.69"/><line x1="262.17" y1="196.06" x2="265.04" y2="195.86"/><line x1="161.76" y1="252.87" x2="160.23" y2="252.94"/><line x1="363.46" y1="313.30" x2="392.85" y2="329.62"/><line x1="342.35" y1="145.30" x2="338.91" y2="138.97"/><line x1="204.72" y1="256.39" x2="179.86" y2="283.79"/><line x1="209.99" y1="131.74" x2="210.64" y2="134.24"/><line x1="187.13" y1="373.16" x2="202.02" y2="398.65"/><line x1="187.13" y1="373.16" x2="216.69" y2="375.32"/><line x1="168.59" y1="226.19" x2="157.72" y2="252.99"/><line x1="179.86" y1="283.79" x2="202.67" y2="259.16"/><line x1="210.64" y1="134.24" x2="211.72" y2="136.79"/><line x1="296.32" y1="223.68" x2="299.53" y2="222.49"/><line x1="273.70" y1="340.13" x2="283.45" y2="342.71"/><line x1="283.71" y1="123.40" x2="281.91" y2="105.90"/><line x1="343.62" y1="334.87" x2="362.68" y2="357.00"/><line x1="147.20" y1="252.44" x2="142.57" y2="251.74"/><line x1="366.74" y1="296.41" x2="400.44" y2="298.10"/><line x1="119.04" y1="222.49" x2="112.68" y2="221.09"/><line x1="64.64" y1="32.09" x2="32.16" y2="64.58"/><line x1="298.17" y1="365.49" x2="315.16" y2="366.50"/><line x1="223.54" y1="223.97" x2="213.66" y2="219.35"/><line x1="281.91" y1="105.90" x2="278.37" y2="122.23"/><line x1="215.98" y1="390.00" x2="216.65" y2="386.11"/><line x1="304.35" y1="189.08" x2="308.46" y2="183.89"/><line x1="344.58" y1="182.35" x2="346.24" y2="174.77"/><line x1="207.93" y1="316.93" x2="225.34" y2="312.26"/><line x1="250.43" y1="206.30" x2="250.40" y2="198.18"/><line x1="187.13" y1="373.16" x2="213.30" y2="395.68"/><line x1="315.16" y1="366.50" x2="318.16" y2="343.67"/><line x1="361.02" y1="270.41" x2="357.81" y2="264.21"/><line x1="188.51" y1="367.19" x2="189.48" y2="360.71"/><line x1="346.24" y1="174.77" x2="315.30" y2="167.51"/><line x1="257.91" y1="121.84" x2="255.87" y2="104.61"/><line x1="179.86" y1="283.79" x2="200.03" y2="269.24"/><line x1="185.37" y1="378.62" x2="194.52" y2="396.87"/><line x1="224.74" y1="140.41" x2="217.53" y2="144.63"/><line x1="206.36" y1="290.70" x2="211.28" y2="297.87"/><line x1="255.87" y1="104.61" x2="249.95" y2="105.04"/><line x1="345.58" y1="363.08" x2="354.45" y2="360.42"/><line x1="254.13" y1="331.87" x2="263.92" y2="336.52"/><line x1="116.51" y1="230.61" x2="114.53" y2="226.08"/><line x1="262.17" y1="196.06" x2="258.28" y2="217.46"/><line x1="157.72" y1="252.99" x2="152.24" y2="252.85"/><line x1="359.29" y1="227.97" x2="332.13" y2="236.35"/><line x1="227.08" y1="237.89" x2="222.97" y2="245.73"/><line x1="342.35" y1="145.30" x2="314.63" y2="152.20"/><line x1="229.24" y1="109.73" x2="224.80" y2="111.63"/><line x1="150.74" y1="226.28" x2="147.20" y2="252.44"/><line x1="329.06" y1="127.40" x2="322.66" y2="122.16"/><line x1="32.16" y1="32.09" x2="64.64" y2="32.09"/><line x1="183.61" y1="298.13" x2="186.52" y2="311.55"/><line x1="274.36" y1="196.06" x2="277.83" y2="196.39"/><line x1="214.86" y1="393.20" x2="215.98" y2="390.00"/><line x1="377.22" y1="347.88" x2="383.38" y2="342.31"/><line x1="308.71" y1="139.75" x2="305.61" y2="136.11"/><line x1="313.93" y1="173.10" x2="344.58" y2="182.35"/><line x1="187.39" y1="393.33" x2="190.91" y2="395.32"/><line x1="357.65" y1="322.94" x2="360.92" y2="318.28"/><line x1="310.74" y1="344.50" x2="315.16" y2="366.50"/><line x1="214.41" y1="249.86" x2="210.59" y2="251.74"/><line x1="131.28" y1="248.00" x2="128.37" y2="246.19"/><line x1="235.78" y1="341.21" x2="250.54" y2="350.32"/><line x1="304.35" y1="189.08" x2="299.34" y2="194.13"/><line x1="393.86" y1="265.73" x2="361.02" y2="270.41"/><line x1="32.00" y1="447.50" x2="64.49" y2="479.98"/></g></svg>