<svg xmlns="http://www.w3.org/2000/svg" width="512" height="512"><rect width="512" height="512" fill="#0a0f1a"/><text x="12" y="20" font-family="monospace" font-size="11" fill="#4a7fa5">FRONT (XZ)</text><g stroke="#00d4ff" stroke-width="0.6" opacity="0.85"><line x1="247.74" y1="318.09" x2="195.42" y2="327.68"/><line x1="237.77" y1="357.95" x2="252.10" y2="324.48"/><line x1="273.86" y1="348.02" x2="262.59" y2="323.48"/><line x1="249.20" y1="322.09" x2="222.49" y2="355.08"/><line x1="206.99" y1="147.86" x2="203.85" y2="150.18"/><line x1="248.29" y1="320.29" x2="209.30" y2="348.76"/><line x1="250.47" y1="323.48" x2="252.10" y2="324.48"/><line x1="248.29" y1="178.07" x2="217.58" y2="142.72"/><line x1="265.56" y1="148.13" x2="262.59" y2="174.82"/><line x1="248.29" y1="178.07" x2="195.38" y2="165.87"/><line x1="256.46" y1="325.28" x2="256.51" y2="356.28"/><line x1="256.46" y1="173.09" x2="262.60" y2="146.04"/><line x1="217.58" y1="142.72" x2="213.96" y2="144.12"/><line x1="247.74" y1="318.09" x2="248.29" y2="320.29"/><line x1="264.81" y1="177.89" x2="265.37" y2="180.00"/><line x1="252.10" y1="324.48" x2="243.33" y2="358.14"/><line x1="249.20" y1="322.09" x2="250.47" y2="323.48"/><line x1="273.86" y1="348.02" x2="264.81" y2="320.29"/><line x1="265.56" y1="182.50" x2="265.56" y2="315.50"/><line x1="248.29" y1="320.29" x2="217.86" y2="353.35"/><line x1="480.00" y1="479.91" x2="447.51" y2="479.91"/><line x1="248.29" y1="178.07" x2="210.43" y2="145.84"/><line x1="265.56" y1="148.13" x2="258.88" y2="173.28"/><line x1="243.33" y1="358.14" x2="254.11" y2="325.07"/><line x1="248.29" y1="178.07" x2="247.74" y2="180.27"/><line x1="273.86" y1="348.02" x2="265.56" y2="91.71"/><line x1="199.01" y1="155.63" x2="197.31" y2="158.77"/><line x1="273.86" y1="348.02" x2="265.56" y2="182.50"/><line x1="213.96" y1="144.12" x2="210.43" y2="145.84"/><line x1="273.86" y1="348.02" x2="265.56" y2="315.50"/><line x1="249.20" y1="176.28" x2="229.01" y2="140.38"/><line x1="225.11" y1="140.85" x2="221.30" y2="141.63"/><line x1="197.31" y1="158.77" x2="196.10" y2="162.18"/><line x1="248.29" y1="178.07" x2="203.85" y2="150.18"/><line x1="260.87" y1="354.84" x2="265.22" y2="352.98"/><line x1="243.33" y1="358.14" x2="247.74" y2="357.93"/><line x1="254.11" y1="325.07" x2="256.46" y2="325.28"/><line x1="262.59" y1="323.48" x2="263.89" y2="322.09"/><line x1="254.11" y1="173.29" x2="254.99" y2="142.81"/><line x1="265.56" y1="91.71" x2="265.56" y2="148.13"/><line x1="232.44" y1="357.37" x2="237.77" y2="357.95"/><line x1="273.86" y1="348.02" x2="258.88" y2="325.07"/><line x1="265.22" y1="352.98" x2="258.88" y2="325.07"/><line x1="248.29" y1="320.29" x2="199.76" y2="339.48"/><line x1="317.98" y1="91.71" x2="278.29" y2="355.01"/><line x1="260.92" y1="173.86" x2="258.88" y2="173.28"/><line x1="247.74" y1="357.93" x2="252.13" y2="357.31"/><line x1="32.16" y1="32.09" x2="32.16" y2="64.58"/><line x1="196.10" y1="162.18" x2="195.38" y2="165.87"/><line x1="248.29" y1="178.07" x2="199.01" y2="155.63"/><line x1="278.29" y1="355.01" x2="317.98" y2="355.01"/><line x1="203.85" y1="150.18" x2="201.19" y2="152.77"/><line x1="247.74" y1="318.09" x2="195.14" y2="323.20"/><line x1="250.47" y1="174.88" x2="249.20" y2="176.28"/><line x1="195.38" y1="165.87" x2="195.14" y2="169.83"/><line x1="258.88" y1="325.07" x2="269.55" y2="350.71"/><line x1="248.29" y1="320.29" x2="205.54" y2="345.94"/><line x1="195.14" y1="169.83" x2="247.74" y2="180.27"/><line x1="317.98" y1="91.71" x2="273.86" y2="348.02"/><line x1="254.99" y1="142.81" x2="250.34" y2="141.68"/><line x1="201.19" y1="152.77" x2="199.01" y2="155.63"/><line x1="221.30" y1="141.63" x2="217.58" y2="142.72"/><line x1="258.88" y1="173.28" x2="256.46" y2="173.09"/><line x1="252.13" y1="357.31" x2="256.51" y2="356.28"/><line x1="248.29" y1="178.07" x2="196.10" y2="162.18"/><line x1="217.86" y1="353.35" x2="222.49" y2="355.08"/><line x1="256.46" y1="325.28" x2="265.22" y2="352.98"/><line x1="256.51" y1="356.28" x2="260.87" y2="354.84"/><line x1="247.74" y1="318.09" x2="196.29" y2="331.89"/><line x1="237.77" y1="357.95" x2="243.33" y2="358.14"/><line x1="195.14" y1="323.20" x2="195.42" y2="327.68"/><line x1="480.00" y1="32.02" x2="447.51" y2="32.02"/><line x1="263.89" y1="176.16" x2="262.59" y2="174.82"/><line x1="195.14" y1="169.83" x2="247.56" y2="315.50"/><line x1="196.29" y1="331.89" x2="197.74" y2="335.82"/><line x1="247.74" y1="180.27" x2="247.56" y2="182.87"/><line x1="248.29" y1="178.07" x2="213.96" y2="144.12"/><line x1="195.42" y1="327.68" x2="196.29" y2="331.89"/><line x1="248.29" y1="178.07" x2="195.14" y2="169.83"/><line x1="265.56" y1="148.13" x2="265.56" y2="182.50"/><line x1="247.56" y1="182.87" x2="247.56" y2="315.50"/><line x1="252.10" y1="173.89" x2="250.34" y2="141.68"/><line x1="252.10" y1="324.48" x2="254.11" y2="325.07"/><line x1="245.12" y1="140.87" x2="239.35" y2="140.39"/><line x1="262.60" y1="146.04" x2="254.11" y2="173.29"/><line x1="195.14" y1="169.83" x2="195.14" y2="323.20"/><line x1="262.59" y1="174.82" x2="260.92" y2="173.86"/><line x1="249.20" y1="176.28" x2="221.30" y2="141.63"/><line x1="227.35" y1="356.41" x2="232.44" y2="357.37"/><line x1="250.34" y1="141.68" x2="245.12" y2="140.87"/><line x1="263.89" y1="322.09" x2="264.81" y2="320.29"/><line x1="248.29" y1="178.07" x2="206.99" y2="147.86"/><line x1="265.56" y1="148.13" x2="264.81" y2="177.89"/><line x1="254.11" y1="173.29" x2="259.07" y2="144.27"/><line x1="247.56" y1="315.50" x2="247.74" y2="318.09"/><line x1="252.10" y1="173.89" x2="250.47" y2="174.88"/><line x1="209.30" y1="348.76" x2="213.47" y2="351.25"/><line x1="32.00" y1="479.98" x2="64.49" y2="479.98"/><line x1="273.86" y1="348.02" x2="260.92" y2="324.48"/><line x1="197.74" y1="335.82" x2="199.76" y2="339.48"/><line x1="250.47" y1="323.48" x2="237.77" y2="357.95"/><line x1="264.81" y1="320.29" x2="265.37" y2="318.09"/><line x1="64.64" y1="32.09" x2="32.16" y2="64.58"/><line x1="265.56" y1="148.13" x2="263.89" y2="176.16"/><line x1="239.35" y1="140.39" x2="233.01" y2="140.23"/><line x1="254.11" y1="173.29" x2="252.10" y2="173.89"/><line x1="259.07" y1="144.27" x2="254.99" y2="142.81"/><line x1="256.46" y1="325.28" x2="252.13" y2="357.31"/><line x1="265.37" y1="318.09" x2="265.56" y2="315.50"/><line x1="273.86" y1="348.02" x2="263.89" y2="322.09"/><line x1="317.98" y1="91.71" x2="317.98" y2="355.01"/><line x1="254.99" y1="142.81" x2="252.10" y2="173.89"/><line x1="249.20" y1="322.09" x2="227.35" y2="356.41"/><line x1="248.29" y1="320.29" x2="213.47" y2="351.25"/><line x1="199.76" y1="339.48" x2="202.36" y2="342.85"/><line x1="260.92" y1="324.48" x2="262.59" y2="323.48"/><line x1="265.56" y1="148.13" x2="260.92" y2="173.86"/><line x1="202.36" y1="342.85" x2="205.54" y2="345.94"/><line x1="256.46" y1="325.28" x2="260.87" y2="354.84"/><line x1="258.88" y1="325.07" x2="260.92" y2="324.48"/><line x1="256.46" y1="173.09" x2="254.11" y2="173.29"/><line x1="480.00" y1="32.02" x2="480.00" y2="64.50"/><line x1="196.29" y1="331.89" x2="248.29" y2="320.29"/><line x1="264.81" y1="177.89" x2="263.89" y2="176.16"/><line x1="249.20" y1="176.28" x2="233.01" y2="140.23"/><line x1="317.98" y1="91.71" x2="265.56" y2="91.71"/><line x1="195.14" y1="169.83" x2="247.56" y2="182.87"/><line x1="273.86" y1="348.02" x2="265.37" y2="318.09"/><line x1="248.29" y1="320.29" x2="249.20" y2="322.09"/><line x1="480.00" y1="479.91" x2="480.00" y2="447.42"/><line x1="265.56" y1="148.13" x2="256.46" y2="173.09"/><line x1="243.33" y1="358.14" x2="256.46" y2="325.28"/><line x1="233.01" y1="140.23" x2="229.01" y2="140.38"/><line x1="222.49" y1="355.08" x2="227.35" y2="356.41"/><line x1="256.46" y1="325.28" x2="258.88" y2="325.07"/><line x1="205.54" y1="345.94" x2="209.30" y2="348.76"/><line x1="273.86" y1="348.02" x2="265.56" y2="148.13"/><line x1="245.12" y1="140.87" x2="250.47" y2="174.88"/><line x1="480.00" y1="64.50" x2="447.51" y2="32.02"/><line x1="249.20" y1="176.28" x2="225.11" y2="140.85"/><line x1="195.14" y1="169.83" x2="247.74" y2="318.09"/><line x1="248.29" y1="320.29" x2="197.74" y2="335.82"/><line x1="227.35" y1="356.41" x2="250.47" y2="323.48"/><line x1="32.16" y1="32.09" x2="64.64" y2="32.09"/><line x1="447.51" y1="479.91" x2="480.00" y2="447.42"/><line x1="213.47" y1="351.25" x2="217.86" y2="353.35"/><line x1="248.29" y1="178.07" x2="201.19" y2="152.77"/><line x1="265.56" y1="148.13" x2="262.60" y2="146.04"/><line x1="229.01" y1="140.38" x2="225.11" y2="140.85"/><line x1="252.10" y1="173.89" x2="245.12" y2="140.87"/><line x1="32.00" y1="479.98" x2="32.00" y2="447.50"/><line x1="250.47" y1="174.88" x2="239.35" y2="140.39"/><line x1="273.86" y1="348.02" x2="269.55" y2="350.71"/><line x1="262.60" y1="146.04" x2="259.07" y2="144.27"/><line x1="210.43" y1="145.84" x2="206.99" y2="147.86"/><line x1="265.22" y1="352.98" x2="269.55" y2="350.71"/><line x1="248.29" y1="320.29" x2="202.36" y2="342.85"/><line x1="249.20" y1="176.28" x2="248.29" y2="178.07"/><line x1="250.47" y1="323.48" x2="232.44" y2="357.37"/><line x1="221.30" y1="141.63" x2="248.29" y2="178.07"/><line x1="265.56" y1="148.13" x2="265.37" y2="180.00"/><line x1="239.35" y1="140.39" x2="249.20" y2="176.28"/><line x1="248.29" y1="178.07" x2="197.31" y2="158.77"/><line x1="217.86" y1="353.35" x2="249.20" y2="322.09"/><line x1="265.37" y1="180.00" x2="265.56" y2="182.50"/><line x1="256.46" y1="325.28" x2="247.74" y2="357.93"/><line x1="278.29" y1="355.01" x2="273.86" y2="348.02"/><line x1="32.00" y1="447.50" x2="64.49" y2="479.98"/></g></svg>