<svg xmlns="http://www.w3.org/2000/svg" width="512" height="512"><rect width="512" height="512" fill="#0a0f1a"/><text x="12" y="20" font-family="monospace" font-size="11" fill="#4a7fa5">FRONT (XZ)</text><g stroke="#00d4ff" stroke-width="0.6" opacity="0.85"><line x1="480.00" y1="32.02" x2="480.00" y2="64.50"/><line x1="234.18" y1="235.09" x2="183.79" y2="355.01"/><line x1="329.32" y1="355.01" x2="276.90" y2="278.43"/><line x1="250.36" y1="141.79" x2="196.31" y2="141.79"/><line x1="32.16" y1="32.09" x2="32.16" y2="64.58"/><line x1="480.00" y1="479.91" x2="480.00" y2="447.42"/><line x1="276.90" y1="278.43" x2="276.90" y2="355.01"/><line x1="32.00" y1="479.98" x2="64.49" y2="479.98"/><line x1="329.32" y1="91.71" x2="276.90" y2="91.71"/><line x1="234.18" y1="235.09" x2="245.32" y2="355.01"/><line x1="480.00" y1="64.50" x2="447.51" y2="32.02"/><line x1="234.18" y1="235.09" x2="196.31" y2="141.79"/><line x1="329.32" y1="355.01" x2="329.32" y2="91.71"/><line x1="32.16" y1="32.09" x2="64.64" y2="32.09"/><line x1="480.00" y1="479.91" x2="447.51" y2="479.91"/><line x1="64.64" y1="32.09" x2="32.16" y2="64.58"/><line x1="447.51" y1="479.91" x2="480.00" y2="447.42"/><line x1="245.32" y1="355.01" x2="183.79" y2="355.01"/><line x1="276.90" y1="278.43" x2="276.90" y2="209.61"/><line x1="276.90" y1="278.43" x2="245.32" y2="355.01"/><line x1="32.00" y1="479.98" x2="32.00" y2="447.50"/><line x1="329.32" y1="91.71" x2="276.90" y2="209.61"/><line x1="276.90" y1="209.61" x2="250.36" y2="141.79"/><line x1="276.90" y1="209.61" x2="234.18" y2="235.09"/><line x1="234.18" y1="235.09" x2="250.36" y2="141.79"/><line x1="329.32" y1="355.01" x2="276.90" y2="355.01"/><line x1="480.00" y1="32.02" x2="447.51" y2="32.02"/><line x1="32.00" y1="447.50" x2="64.49" y2="479.98"/><line x1="276.90" y1="278.43" x2="234.18" y2="235.09"/><line x1="276.90" y1="278.43" x2="329.32" y2="91.71"/><line x1="276.90" y1="209.61" x2="276.90" y2="91.71"/></g></svg>