<svg xmlns="http://www.w3.org/2000/svg" width="512" height="512"><rect width="512" height="512" fill="#0a0f1a"/><text x="12" y="20" font-family="monospace" font-size="11" fill="#4a7fa5">FRONT (XZ)</text><g stroke="#00d4ff" stroke-width="0.6" opacity="0.85"><line x1="211.40" y1="95.42" x2="202.55" y2="99.81"/><line x1="314.07" y1="234.12" x2="314.07" y2="200.47"/><line x1="233.60" y1="90.39" x2="240.68" y2="128.77"/><line x1="254.21" y1="134.49" x2="253.97" y2="134.21"/><line x1="247.56" y1="127.37" x2="246.75" y2="127.32"/><line x1="246.95" y1="89.76" x2="243.72" y2="127.55"/><line x1="250.17" y1="128.54" x2="249.60" y2="128.10"/><line x1="254.21" y1="234.12" x2="254.21" y2="200.47"/><line x1="264.76" y1="90.79" x2="251.12" y2="129.71"/><line x1="254.21" y1="321.36" x2="254.21" y2="234.12"/><line x1="314.07" y1="140.25" x2="312.70" y2="126.86"/><line x1="249.60" y1="128.10" x2="248.98" y2="127.76"/><line x1="328.16" y1="200.47" x2="328.16" y2="234.12"/><line x1="189.33" y1="112.38" x2="184.97" y2="120.55"/><line x1="246.95" y1="89.76" x2="233.60" y2="90.39"/><line x1="480.00" y1="479.91" x2="447.51" y2="479.91"/><line x1="264.76" y1="90.79" x2="250.17" y2="128.54"/><line x1="202.55" y1="99.81" x2="195.19" y2="105.47"/><line x1="221.75" y1="92.27" x2="211.40" y2="95.42"/><line x1="314.07" y1="355.01" x2="314.07" y2="234.12"/><line x1="245.14" y1="127.37" x2="243.72" y2="127.55"/><line x1="254.21" y1="134.49" x2="308.59" y2="115.52"/><line x1="248.98" y1="127.76" x2="248.30" y2="127.51"/><line x1="314.07" y1="200.47" x2="314.07" y2="140.25"/><line x1="251.12" y1="129.71" x2="250.67" y2="129.07"/><line x1="264.76" y1="90.79" x2="253.66" y2="133.79"/><line x1="243.72" y1="127.55" x2="242.51" y2="127.84"/><line x1="264.76" y1="90.79" x2="248.98" y2="127.76"/><line x1="314.07" y1="234.12" x2="254.21" y2="234.12"/><line x1="254.21" y1="134.49" x2="292.15" y2="99.03"/><line x1="195.19" y1="105.47" x2="189.33" y2="112.38"/><line x1="206.08" y1="355.01" x2="254.21" y2="321.36"/><line x1="239.12" y1="132.78" x2="238.92" y2="134.84"/><line x1="221.52" y1="234.12" x2="221.52" y2="200.47"/><line x1="254.21" y1="200.47" x2="254.21" y2="134.49"/><line x1="32.16" y1="32.09" x2="32.16" y2="64.58"/><line x1="264.76" y1="90.79" x2="252.84" y2="132.56"/><line x1="242.51" y1="127.84" x2="233.60" y2="90.39"/><line x1="264.76" y1="90.79" x2="247.56" y2="127.37"/><line x1="254.21" y1="321.36" x2="206.08" y2="321.36"/><line x1="246.75" y1="127.32" x2="246.95" y2="89.76"/><line x1="211.40" y1="95.42" x2="239.65" y2="130.16"/><line x1="314.07" y1="234.12" x2="328.16" y2="234.12"/><line x1="233.60" y1="90.39" x2="241.49" y2="128.24"/><line x1="254.21" y1="134.49" x2="264.76" y2="90.79"/><line x1="241.49" y1="128.24" x2="240.68" y2="128.77"/><line x1="206.08" y1="355.01" x2="314.07" y2="355.01"/><line x1="246.95" y1="89.76" x2="245.14" y2="127.37"/><line x1="264.76" y1="90.79" x2="251.76" y2="130.79"/><line x1="254.21" y1="321.36" x2="314.07" y2="234.12"/><line x1="238.92" y1="134.84" x2="238.76" y2="137.40"/><line x1="314.07" y1="140.25" x2="254.21" y2="134.49"/><line x1="314.07" y1="234.12" x2="254.21" y2="200.47"/><line x1="239.65" y1="130.16" x2="202.55" y2="99.81"/><line x1="480.00" y1="32.02" x2="447.51" y2="32.02"/><line x1="314.07" y1="200.47" x2="254.21" y2="200.47"/><line x1="239.36" y1="131.22" x2="239.12" y2="132.78"/><line x1="240.68" y1="128.77" x2="221.75" y2="92.27"/><line x1="246.95" y1="89.76" x2="242.51" y2="127.84"/><line x1="264.76" y1="90.79" x2="250.67" y2="129.07"/><line x1="202.55" y1="99.81" x2="239.36" y2="131.22"/><line x1="221.75" y1="92.27" x2="240.06" y2="129.40"/><line x1="279.82" y1="93.88" x2="264.76" y2="90.79"/><line x1="184.97" y1="120.55" x2="238.65" y2="140.45"/><line x1="254.21" y1="134.49" x2="312.70" y2="126.86"/><line x1="312.70" y1="126.86" x2="308.59" y2="115.52"/><line x1="254.21" y1="200.47" x2="221.52" y2="234.12"/><line x1="264.76" y1="90.79" x2="253.97" y2="134.21"/><line x1="308.59" y1="115.52" x2="301.74" y2="106.25"/><line x1="240.06" y1="129.40" x2="211.40" y2="95.42"/><line x1="238.76" y1="137.40" x2="238.65" y2="140.45"/><line x1="184.97" y1="120.55" x2="238.56" y2="148.05"/><line x1="254.21" y1="134.49" x2="301.74" y2="106.25"/><line x1="32.00" y1="479.98" x2="64.49" y2="479.98"/><line x1="239.12" y1="132.78" x2="189.33" y2="112.38"/><line x1="254.21" y1="200.47" x2="314.07" y2="140.25"/><line x1="64.64" y1="32.09" x2="32.16" y2="64.58"/><line x1="301.74" y1="106.25" x2="292.15" y2="99.03"/><line x1="264.76" y1="90.79" x2="246.95" y2="89.76"/><line x1="233.60" y1="90.39" x2="221.75" y2="92.27"/><line x1="206.08" y1="355.01" x2="206.08" y2="321.36"/><line x1="292.15" y1="99.03" x2="279.82" y2="93.88"/><line x1="189.33" y1="112.38" x2="238.92" y2="134.84"/><line x1="254.21" y1="234.12" x2="221.52" y2="234.12"/><line x1="246.75" y1="127.32" x2="245.14" y2="127.37"/><line x1="238.92" y1="134.84" x2="184.97" y2="120.55"/><line x1="480.00" y1="32.02" x2="480.00" y2="64.50"/><line x1="239.36" y1="131.22" x2="195.19" y2="105.47"/><line x1="328.16" y1="200.47" x2="314.07" y2="200.47"/><line x1="252.84" y1="132.56" x2="252.34" y2="131.75"/><line x1="480.00" y1="479.91" x2="480.00" y2="447.42"/><line x1="264.76" y1="90.79" x2="249.60" y2="128.10"/><line x1="252.34" y1="131.75" x2="251.76" y2="130.79"/><line x1="184.97" y1="120.55" x2="238.76" y2="137.40"/><line x1="239.65" y1="130.16" x2="239.36" y2="131.22"/><line x1="253.97" y1="134.21" x2="253.66" y2="133.79"/><line x1="480.00" y1="64.50" x2="447.51" y2="32.02"/><line x1="195.19" y1="105.47" x2="239.12" y2="132.78"/><line x1="240.68" y1="128.77" x2="240.06" y2="129.40"/><line x1="32.16" y1="32.09" x2="64.64" y2="32.09"/><line x1="264.76" y1="90.79" x2="253.29" y2="133.25"/><line x1="447.51" y1="479.91" x2="480.00" y2="447.42"/><line x1="238.65" y1="140.45" x2="238.58" y2="144.01"/><line x1="264.76" y1="90.79" x2="248.30" y2="127.51"/><line x1="251.76" y1="130.79" x2="251.12" y2="129.71"/><line x1="184.97" y1="120.55" x2="238.58" y2="144.01"/><line x1="32.00" y1="479.98" x2="32.00" y2="447.50"/><line x1="314.07" y1="234.12" x2="328.16" y2="200.47"/><line x1="253.66" y1="133.79" x2="253.29" y2="133.25"/><line x1="254.21" y1="134.49" x2="279.82" y2="93.88"/><line x1="248.30" y1="127.51" x2="247.56" y2="127.37"/><line x1="254.21" y1="200.47" x2="221.52" y2="200.47"/><line x1="250.67" y1="129.07" x2="250.17" y2="128.54"/><line x1="264.76" y1="90.79" x2="252.34" y2="131.75"/><line x1="253.29" y1="133.25" x2="252.84" y2="132.56"/><line x1="242.51" y1="127.84" x2="241.49" y2="128.24"/><line x1="238.58" y1="144.01" x2="238.56" y2="148.05"/><line x1="264.76" y1="90.79" x2="246.75" y2="127.32"/><line x1="240.06" y1="129.40" x2="239.65" y2="130.16"/><line x1="254.21" y1="321.36" x2="314.07" y2="355.01"/><line x1="32.00" y1="447.50" x2="64.49" y2="479.98"/></g></svg>