<svg xmlns="http://www.w3.org/2000/svg" width="512" height="512"><rect width="512" height="512" fill="#0a0f1a"/><text x="12" y="20" font-family="monospace" font-size="11" fill="#4a7fa5">FRONT (XZ)</text><g stroke="#00d4ff" stroke-width="0.6" opacity="0.85"><line x1="480.00" y1="32.02" x2="480.00" y2="64.50"/><line x1="262.75" y1="364.47" x2="261.26" y2="361.25"/><line x1="233.31" y1="349.70" x2="232.70" y2="342.96"/><line x1="270.02" y1="374.54" x2="267.14" y2="371.12"/><line x1="267.14" y1="371.12" x2="264.71" y2="367.76"/><line x1="270.02" y1="374.54" x2="262.88" y2="386.70"/><line x1="242.55" y1="368.94" x2="260.25" y2="358.10"/><line x1="260.25" y1="358.10" x2="259.68" y2="355.01"/><line x1="32.16" y1="32.09" x2="32.16" y2="64.58"/><line x1="259.68" y1="355.01" x2="232.70" y2="316.67"/><line x1="259.68" y1="355.01" x2="235.16" y2="356.28"/><line x1="480.00" y1="479.91" x2="480.00" y2="447.42"/><line x1="264.71" y1="367.76" x2="262.75" y2="364.47"/><line x1="248.10" y1="375.03" x2="242.55" y2="368.94"/><line x1="232.70" y1="342.96" x2="232.70" y2="316.67"/><line x1="235.16" y1="356.28" x2="233.31" y2="349.70"/><line x1="262.88" y1="386.70" x2="273.38" y2="378.04"/><line x1="32.00" y1="479.98" x2="64.49" y2="479.98"/><line x1="254.87" y1="380.95" x2="264.71" y2="367.76"/><line x1="262.75" y1="364.47" x2="248.10" y2="375.03"/><line x1="480.00" y1="64.50" x2="447.51" y2="32.02"/><line x1="270.02" y1="374.54" x2="254.87" y2="380.95"/><line x1="261.26" y1="361.25" x2="260.25" y2="358.10"/><line x1="242.55" y1="368.94" x2="238.24" y2="362.70"/><line x1="259.68" y1="355.01" x2="238.24" y2="362.70"/><line x1="259.68" y1="355.01" x2="280.43" y2="355.01"/><line x1="32.16" y1="32.09" x2="64.64" y2="32.09"/><line x1="480.00" y1="479.91" x2="447.51" y2="479.91"/><line x1="259.68" y1="355.01" x2="232.70" y2="342.96"/><line x1="64.64" y1="32.09" x2="32.16" y2="64.58"/><line x1="447.51" y1="479.91" x2="480.00" y2="447.42"/><line x1="248.10" y1="375.03" x2="261.26" y2="361.25"/><line x1="232.70" y1="316.67" x2="280.43" y2="316.67"/><line x1="32.00" y1="479.98" x2="32.00" y2="447.50"/><line x1="254.87" y1="380.95" x2="267.14" y2="371.12"/><line x1="238.24" y1="362.70" x2="235.16" y2="356.28"/><line x1="254.87" y1="380.95" x2="248.10" y2="375.03"/><line x1="270.02" y1="374.54" x2="273.38" y2="378.04"/><line x1="480.00" y1="32.02" x2="447.51" y2="32.02"/><line x1="261.26" y1="361.25" x2="242.55" y2="368.94"/><line x1="242.55" y1="368.94" x2="259.68" y2="355.01"/><line x1="280.43" y1="316.67" x2="280.43" y2="355.01"/><line x1="259.68" y1="355.01" x2="233.31" y2="349.70"/><line x1="259.68" y1="355.01" x2="280.43" y2="316.67"/><line x1="262.88" y1="386.70" x2="254.87" y2="380.95"/><line x1="254.87" y1="380.95" x2="262.75" y2="364.47"/><line x1="32.00" y1="447.50" x2="64.49" y2="479.98"/></g></svg>