<svg xmlns="http://www.w3.org/2000/svg" width="512" height="512"><rect width="512" height="512" fill="#0a0f1a"/><text x="12" y="20" font-family="monospace" font-size="11" fill="#4a7fa5">FRONT (XZ)</text><g stroke="#00d4ff" stroke-width="0.6" opacity="0.85"><line x1="144.67" y1="160.49" x2="147.34" y2="196.65"/><line x1="281.90" y1="153.92" x2="266.17" y2="184.49"/><line x1="246.83" y1="142.57" x2="249.33" y2="173.38"/><line x1="199.42" y1="210.39" x2="203.35" y2="208.47"/><line x1="179.23" y1="138.78" x2="191.05" y2="212.95"/><line x1="305.56" y1="283.69" x2="368.50" y2="295.83"/><line x1="179.23" y1="138.78" x2="221.12" y2="189.07"/><line x1="224.51" y1="330.32" x2="161.82" y2="350.53"/><line x1="150.20" y1="200.11" x2="153.59" y2="203.37"/><line x1="182.00" y1="213.80" x2="186.61" y2="213.59"/><line x1="160.85" y1="208.48" x2="159.56" y2="144.58"/><line x1="341.49" y1="197.54" x2="348.89" y2="207.04"/><line x1="368.50" y1="295.83" x2="363.97" y2="306.77"/><line x1="149.47" y1="153.45" x2="152.58" y2="150.14"/><line x1="186.61" y1="213.59" x2="191.05" y2="212.95"/><line x1="288.72" y1="210.25" x2="294.38" y2="219.50"/><line x1="371.57" y1="263.04" x2="371.98" y2="270.68"/><line x1="141.88" y1="185.01" x2="143.18" y2="189.09"/><line x1="266.17" y1="184.49" x2="293.19" y2="159.39"/><line x1="305.56" y1="283.69" x2="357.57" y2="316.63"/><line x1="179.23" y1="138.78" x2="199.42" y2="210.39"/><line x1="222.24" y1="166.97" x2="222.44" y2="139.21"/><line x1="246.46" y1="329.02" x2="224.51" y2="330.32"/><line x1="224.51" y1="330.32" x2="152.30" y2="342.44"/><line x1="480.00" y1="479.91" x2="447.51" y2="479.91"/><line x1="282.94" y1="352.25" x2="269.85" y2="353.82"/><line x1="293.19" y1="159.39" x2="274.23" y2="192.10"/><line x1="327.16" y1="339.70" x2="292.05" y2="309.60"/><line x1="241.23" y1="355.08" x2="184.60" y2="355.08"/><line x1="370.51" y1="255.40" x2="371.57" y2="263.04"/><line x1="295.22" y1="350.05" x2="282.94" y2="352.25"/><line x1="144.67" y1="160.49" x2="140.84" y2="176.21"/><line x1="210.72" y1="203.36" x2="214.10" y2="200.10"/><line x1="153.59" y1="203.37" x2="157.14" y2="206.13"/><line x1="191.05" y1="212.95" x2="195.32" y2="211.88"/><line x1="179.23" y1="138.78" x2="168.80" y2="211.88"/><line x1="292.05" y1="309.60" x2="317.33" y2="343.78"/><line x1="305.56" y1="283.69" x2="300.49" y2="297.94"/><line x1="224.51" y1="330.32" x2="147.31" y2="330.32"/><line x1="173.03" y1="212.95" x2="177.43" y2="213.59"/><line x1="302.61" y1="238.21" x2="359.83" y2="224.83"/><line x1="214.10" y1="200.10" x2="216.96" y2="196.63"/><line x1="349.30" y1="325.41" x2="300.49" y2="297.94"/><line x1="324.42" y1="180.39" x2="294.38" y2="219.50"/><line x1="366.46" y1="240.11" x2="368.80" y2="247.76"/><line x1="274.23" y1="192.10" x2="304.35" y2="165.76"/><line x1="249.33" y1="173.38" x2="270.41" y2="149.30"/><line x1="348.89" y1="207.04" x2="302.61" y2="238.21"/><line x1="144.67" y1="160.49" x2="141.88" y2="185.01"/><line x1="140.84" y1="176.21" x2="141.10" y2="180.71"/><line x1="257.87" y1="178.25" x2="281.90" y2="153.92"/><line x1="231.51" y1="167.73" x2="240.54" y2="169.87"/><line x1="294.38" y1="219.50" x2="333.33" y2="188.65"/><line x1="292.05" y1="309.60" x2="280.23" y2="318.67"/><line x1="317.33" y1="343.78" x2="306.68" y2="347.23"/><line x1="224.51" y1="330.32" x2="184.60" y2="355.08"/><line x1="141.08" y1="172.08" x2="142.99" y2="164.21"/><line x1="146.83" y1="156.90" x2="150.20" y2="200.11"/><line x1="282.03" y1="201.08" x2="314.76" y2="172.76"/><line x1="32.16" y1="32.09" x2="32.16" y2="64.58"/><line x1="234.73" y1="140.46" x2="246.83" y2="142.57"/><line x1="216.96" y1="196.63" x2="219.30" y2="192.95"/><line x1="300.49" y1="297.94" x2="339.17" y2="333.10"/><line x1="269.85" y1="353.82" x2="255.95" y2="354.76"/><line x1="179.23" y1="138.78" x2="222.56" y2="168.09"/><line x1="306.72" y1="257.23" x2="370.51" y2="255.40"/><line x1="306.68" y1="347.23" x2="280.23" y2="318.67"/><line x1="142.99" y1="164.21" x2="141.80" y2="168.07"/><line x1="203.35" y1="208.47" x2="207.12" y2="206.13"/><line x1="223.44" y1="174.68" x2="223.36" y2="173.23"/><line x1="280.23" y1="318.67" x2="295.22" y2="350.05"/><line x1="359.83" y1="224.83" x2="363.46" y2="232.47"/><line x1="219.30" y1="192.95" x2="221.12" y2="189.07"/><line x1="294.38" y1="219.50" x2="299.01" y2="228.81"/><line x1="371.18" y1="283.80" x2="368.50" y2="295.83"/><line x1="333.33" y1="188.65" x2="341.49" y2="197.54"/><line x1="339.17" y1="333.10" x2="327.16" y2="339.70"/><line x1="221.12" y1="189.07" x2="222.43" y2="184.98"/><line x1="141.08" y1="172.08" x2="144.67" y2="160.49"/><line x1="299.01" y1="228.81" x2="302.61" y2="238.21"/><line x1="207.12" y1="206.13" x2="210.72" y2="203.36"/><line x1="150.20" y1="200.11" x2="149.47" y2="153.45"/><line x1="314.76" y1="172.76" x2="288.72" y2="210.25"/><line x1="179.23" y1="138.78" x2="223.21" y2="180.69"/><line x1="300.49" y1="297.94" x2="292.05" y2="309.60"/><line x1="240.54" y1="169.87" x2="249.33" y2="173.38"/><line x1="341.49" y1="197.54" x2="299.01" y2="228.81"/><line x1="179.23" y1="138.78" x2="209.95" y2="138.78"/><line x1="255.95" y1="354.76" x2="246.46" y2="329.02"/><line x1="143.18" y1="189.09" x2="145.00" y2="192.97"/><line x1="160.85" y1="208.48" x2="167.04" y2="140.87"/><line x1="149.47" y1="153.45" x2="153.59" y2="203.37"/><line x1="288.72" y1="210.25" x2="324.42" y2="180.39"/><line x1="281.90" y1="153.92" x2="293.19" y2="159.39"/><line x1="223.36" y1="173.23" x2="223.24" y2="171.85"/><line x1="280.23" y1="318.67" x2="265.03" y2="325.14"/><line x1="305.56" y1="283.69" x2="363.97" y2="306.77"/><line x1="246.46" y1="329.02" x2="241.23" y2="355.08"/><line x1="480.00" y1="32.02" x2="447.51" y2="32.02"/><line x1="145.00" y1="192.97" x2="147.34" y2="196.65"/><line x1="222.43" y1="184.98" x2="223.21" y2="180.69"/><line x1="179.23" y1="138.78" x2="207.12" y2="206.13"/><line x1="307.24" y1="266.85" x2="371.98" y2="270.68"/><line x1="223.24" y1="171.85" x2="223.06" y2="170.53"/><line x1="282.94" y1="352.25" x2="265.03" y2="325.14"/><line x1="179.23" y1="138.78" x2="223.44" y2="174.68"/><line x1="305.19" y1="247.69" x2="363.46" y2="232.47"/><line x1="223.21" y1="180.69" x2="223.47" y2="176.18"/><line x1="160.85" y1="208.48" x2="175.04" y2="139.02"/><line x1="159.56" y1="144.58" x2="163.23" y2="142.49"/><line x1="222.44" y1="139.21" x2="234.73" y2="140.46"/><line x1="153.59" y1="203.37" x2="152.58" y2="150.14"/><line x1="266.17" y1="184.49" x2="274.23" y2="192.10"/><line x1="363.46" y1="232.47" x2="366.46" y2="240.11"/><line x1="305.56" y1="283.69" x2="349.30" y2="325.41"/><line x1="152.58" y1="150.14" x2="157.14" y2="206.13"/><line x1="147.34" y1="196.65" x2="146.83" y2="156.90"/><line x1="179.23" y1="138.78" x2="177.43" y2="213.59"/><line x1="163.23" y1="142.49" x2="167.04" y2="140.87"/><line x1="302.61" y1="238.21" x2="355.54" y2="217.19"/><line x1="179.23" y1="138.78" x2="214.10" y2="200.10"/><line x1="307.24" y1="266.85" x2="305.56" y2="283.69"/><line x1="179.23" y1="138.78" x2="223.24" y2="171.85"/><line x1="305.19" y1="247.69" x2="306.72" y2="257.23"/><line x1="327.16" y1="339.70" x2="317.33" y2="343.78"/><line x1="265.03" y1="325.14" x2="269.85" y2="353.82"/><line x1="141.10" y1="180.71" x2="141.88" y2="185.01"/><line x1="156.49" y1="347.00" x2="152.30" y2="342.44"/><line x1="157.14" y1="206.13" x2="160.85" y2="208.48"/><line x1="160.85" y1="208.48" x2="164.74" y2="210.39"/><line x1="223.47" y1="176.18" x2="223.44" y2="174.68"/><line x1="231.51" y1="167.73" x2="234.73" y2="140.46"/><line x1="184.60" y1="355.08" x2="175.87" y2="354.57"/><line x1="32.00" y1="479.98" x2="64.49" y2="479.98"/><line x1="144.67" y1="160.49" x2="145.00" y2="192.97"/><line x1="152.58" y1="150.14" x2="156.00" y2="147.12"/><line x1="222.56" y1="168.09" x2="222.24" y2="166.97"/><line x1="179.23" y1="138.78" x2="186.61" y2="213.59"/><line x1="302.61" y1="238.21" x2="305.19" y2="247.69"/><line x1="270.41" y1="149.30" x2="281.90" y2="153.92"/><line x1="179.23" y1="138.78" x2="219.30" y2="192.95"/><line x1="355.54" y1="217.19" x2="359.83" y2="224.83"/><line x1="324.42" y1="180.39" x2="333.33" y2="188.65"/><line x1="371.98" y1="270.68" x2="371.18" y2="283.80"/><line x1="349.30" y1="325.41" x2="339.17" y2="333.10"/><line x1="179.23" y1="138.78" x2="222.84" y2="169.28"/><line x1="274.23" y1="192.10" x2="282.03" y2="201.08"/><line x1="64.64" y1="32.09" x2="32.16" y2="64.58"/><line x1="265.03" y1="325.14" x2="246.46" y2="329.02"/><line x1="224.51" y1="330.32" x2="168.28" y2="353.05"/><line x1="160.85" y1="208.48" x2="156.00" y2="147.12"/><line x1="304.35" y1="165.76" x2="314.76" y2="172.76"/><line x1="368.80" y1="247.76" x2="370.51" y2="255.40"/><line x1="257.87" y1="178.25" x2="266.17" y2="184.49"/><line x1="359.83" y1="224.83" x2="305.19" y2="247.69"/><line x1="175.87" y1="354.57" x2="168.28" y2="353.05"/><line x1="144.67" y1="160.49" x2="146.83" y2="156.90"/><line x1="141.08" y1="172.08" x2="141.80" y2="168.07"/><line x1="156.00" y1="147.12" x2="159.56" y2="144.58"/><line x1="246.83" y1="142.57" x2="258.72" y2="145.51"/><line x1="282.03" y1="201.08" x2="288.72" y2="210.25"/><line x1="179.23" y1="138.78" x2="195.32" y2="211.88"/><line x1="222.24" y1="166.97" x2="209.95" y2="138.78"/><line x1="299.01" y1="228.81" x2="348.89" y2="207.04"/><line x1="179.23" y1="138.78" x2="222.43" y2="184.98"/><line x1="300.49" y1="297.94" x2="327.16" y2="339.70"/><line x1="168.28" y1="353.05" x2="161.82" y2="350.53"/><line x1="224.51" y1="330.32" x2="156.49" y2="347.00"/><line x1="179.23" y1="138.78" x2="222.24" y2="166.97"/><line x1="161.82" y1="350.53" x2="156.49" y2="347.00"/><line x1="160.85" y1="208.48" x2="163.23" y2="142.49"/><line x1="209.95" y1="138.78" x2="222.44" y2="139.21"/><line x1="241.23" y1="355.08" x2="224.51" y2="330.32"/><line x1="280.23" y1="318.67" x2="282.94" y2="352.25"/><line x1="370.51" y1="255.40" x2="307.24" y2="266.85"/><line x1="480.00" y1="32.02" x2="480.00" y2="64.50"/><line x1="223.06" y1="170.53" x2="222.84" y2="169.28"/><line x1="179.23" y1="138.78" x2="164.74" y2="210.39"/><line x1="141.08" y1="172.08" x2="140.84" y2="176.21"/><line x1="179.23" y1="138.78" x2="203.35" y2="208.47"/><line x1="222.24" y1="166.97" x2="231.51" y2="167.73"/><line x1="314.76" y1="172.76" x2="324.42" y2="180.39"/><line x1="307.24" y1="266.85" x2="371.57" y2="263.04"/><line x1="179.23" y1="138.78" x2="223.47" y2="176.18"/><line x1="224.51" y1="330.32" x2="149.23" y2="336.89"/><line x1="255.95" y1="354.76" x2="241.23" y2="355.08"/><line x1="480.00" y1="479.91" x2="480.00" y2="447.42"/><line x1="293.19" y1="159.39" x2="304.35" y2="165.76"/><line x1="164.74" y1="210.39" x2="168.80" y2="211.88"/><line x1="366.46" y1="240.11" x2="306.72" y2="257.23"/><line x1="160.85" y1="208.48" x2="170.97" y2="139.71"/><line x1="249.33" y1="173.38" x2="258.72" y2="145.51"/><line x1="222.44" y1="139.21" x2="231.51" y2="167.73"/><line x1="144.67" y1="160.49" x2="141.10" y2="180.71"/><line x1="167.04" y1="140.87" x2="170.97" y2="139.71"/><line x1="480.00" y1="64.50" x2="447.51" y2="32.02"/><line x1="179.23" y1="138.78" x2="173.03" y2="212.95"/><line x1="222.84" y1="169.28" x2="222.56" y2="168.09"/><line x1="258.72" y1="145.51" x2="270.41" y2="149.30"/><line x1="292.05" y1="309.60" x2="306.68" y2="347.23"/><line x1="152.30" y1="342.44" x2="149.23" y2="336.89"/><line x1="179.23" y1="138.78" x2="210.72" y2="203.36"/><line x1="363.97" y1="306.77" x2="357.57" y2="316.63"/><line x1="307.24" y1="266.85" x2="371.18" y2="283.80"/><line x1="179.23" y1="138.78" x2="223.36" y2="173.23"/><line x1="305.19" y1="247.69" x2="366.46" y2="240.11"/><line x1="32.16" y1="32.09" x2="64.64" y2="32.09"/><line x1="447.51" y1="479.91" x2="480.00" y2="447.42"/><line x1="234.73" y1="140.46" x2="240.54" y2="169.87"/><line x1="168.80" y1="211.88" x2="173.03" y2="212.95"/><line x1="160.85" y1="208.48" x2="179.23" y2="138.78"/><line x1="249.33" y1="173.38" x2="257.87" y2="178.25"/><line x1="348.89" y1="207.04" x2="355.54" y2="217.19"/><line x1="306.72" y1="257.23" x2="368.80" y2="247.76"/><line x1="357.57" y1="316.63" x2="349.30" y2="325.41"/><line x1="32.00" y1="479.98" x2="32.00" y2="447.50"/><line x1="144.67" y1="160.49" x2="143.18" y2="189.09"/><line x1="170.97" y1="139.71" x2="175.04" y2="139.02"/><line x1="152.58" y1="150.14" x2="160.85" y2="208.48"/><line x1="195.32" y1="211.88" x2="199.42" y2="210.39"/><line x1="294.38" y1="219.50" x2="341.49" y2="197.54"/><line x1="371.18" y1="283.80" x2="305.56" y2="283.69"/><line x1="147.34" y1="196.65" x2="150.20" y2="200.11"/><line x1="179.23" y1="138.78" x2="182.00" y2="213.80"/><line x1="270.41" y1="149.30" x2="257.87" y2="178.25"/><line x1="179.23" y1="138.78" x2="216.96" y2="196.63"/><line x1="224.51" y1="330.32" x2="175.87" y2="354.57"/><line x1="149.23" y1="336.89" x2="147.31" y2="330.32"/><line x1="146.83" y1="156.90" x2="149.47" y2="153.45"/><line x1="177.43" y1="213.59" x2="182.00" y2="213.80"/><line x1="179.23" y1="138.78" x2="223.06" y2="170.53"/><line x1="265.03" y1="325.14" x2="255.95" y2="354.76"/><line x1="175.04" y1="139.02" x2="179.23" y2="138.78"/><line x1="240.54" y1="169.87" x2="246.83" y2="142.57"/><line x1="304.35" y1="165.76" x2="282.03" y2="201.08"/><line x1="306.72" y1="257.23" x2="307.24" y2="266.85"/><line x1="306.68" y1="347.23" x2="295.22" y2="350.05"/><line x1="142.99" y1="164.21" x2="144.67" y2="160.49"/><line x1="32.00" y1="447.50" x2="64.49" y2="479.98"/></g></svg>