<svg xmlns="http://www.w3.org/2000/svg" width="512" height="512"><rect width="512" height="512" fill="#0a0f1a"/><text x="12" y="20" font-family="monospace" font-size="11" fill="#4a7fa5">FRONT (XZ)</text><g stroke="#00d4ff" stroke-width="0.6" opacity="0.85"><line x1="83.52" y1="191.27" x2="81.23" y2="154.57"/><line x1="204.11" y1="272.72" x2="199.26" y2="344.99"/><line x1="225.13" y1="167.75" x2="227.36" y2="159.05"/><line x1="145.94" y1="197.93" x2="166.67" y2="170.66"/><line x1="204.11" y1="272.72" x2="239.22" y2="356.22"/><line x1="243.31" y1="353.25" x2="246.60" y2="349.44"/><line x1="339.83" y1="314.16" x2="342.73" y2="317.79"/><line x1="135.16" y1="204.77" x2="138.96" y2="202.91"/><line x1="314.48" y1="329.26" x2="317.03" y2="333.14"/><line x1="276.02" y1="218.94" x2="287.97" y2="167.12"/><line x1="86.37" y1="194.63" x2="89.75" y2="197.77"/><line x1="118.33" y1="134.22" x2="122.59" y2="207.88"/><line x1="93.27" y1="200.52" x2="96.95" y2="202.83"/><line x1="317.03" y1="333.14" x2="342.73" y2="317.79"/><line x1="409.99" y1="318.85" x2="413.15" y2="320.22"/><line x1="424.55" y1="331.17" x2="425.95" y2="333.36"/><line x1="86.50" y1="147.55" x2="89.92" y2="144.37"/><line x1="83.52" y1="191.27" x2="86.37" y2="194.63"/><line x1="122.59" y1="207.88" x2="126.98" y2="207.26"/><line x1="204.11" y1="272.72" x2="205.15" y2="353.35"/><line x1="77.28" y1="166.69" x2="78.07" y2="162.43"/><line x1="145.94" y1="197.93" x2="204.11" y2="272.72"/><line x1="204.11" y1="272.72" x2="246.60" y2="349.44"/><line x1="227.36" y1="159.05" x2="230.27" y2="151.70"/><line x1="276.02" y1="218.94" x2="277.68" y2="144.20"/><line x1="310.60" y1="320.70" x2="312.34" y2="325.11"/><line x1="360.50" y1="324.16" x2="363.15" y2="323.97"/><line x1="413.15" y1="320.22" x2="416.19" y2="322.14"/><line x1="276.02" y1="218.94" x2="337.32" y2="309.73"/><line x1="480.00" y1="479.91" x2="447.51" y2="479.91"/><line x1="118.33" y1="134.22" x2="131.18" y2="206.22"/><line x1="230.27" y1="151.70" x2="233.84" y2="145.67"/><line x1="401.02" y1="317.82" x2="403.28" y2="317.76"/><line x1="331.23" y1="346.06" x2="349.67" y2="322.62"/><line x1="362.96" y1="355.08" x2="366.10" y2="323.64"/><line x1="353.72" y1="323.83" x2="348.61" y2="353.42"/><line x1="83.52" y1="191.27" x2="77.28" y2="175.61"/><line x1="145.94" y1="197.93" x2="128.27" y2="135.23"/><line x1="204.11" y1="272.72" x2="212.79" y2="358.36"/><line x1="89.75" y1="197.77" x2="93.47" y2="141.67"/><line x1="126.98" y1="207.26" x2="131.18" y2="206.22"/><line x1="276.02" y1="218.94" x2="254.94" y2="134.98"/><line x1="109.05" y1="207.25" x2="113.44" y2="207.88"/><line x1="204.11" y1="272.72" x2="250.76" y2="339.28"/><line x1="349.67" y1="322.62" x2="335.39" y2="348.45"/><line x1="276.02" y1="218.94" x2="280.28" y2="148.15"/><line x1="362.96" y1="355.08" x2="429.01" y2="338.96"/><line x1="416.19" y1="322.14" x2="419.10" y2="324.60"/><line x1="113.77" y1="134.42" x2="118.00" y2="208.09"/><line x1="101.08" y1="137.53" x2="104.84" y2="206.20"/><line x1="128.27" y1="135.23" x2="137.45" y2="138.26"/><line x1="323.33" y1="340.13" x2="346.00" y2="320.60"/><line x1="118.33" y1="134.22" x2="138.96" y2="202.91"/><line x1="259.21" y1="135.17" x2="263.13" y2="135.73"/><line x1="233.84" y1="145.67" x2="238.10" y2="141.00"/><line x1="275.45" y1="141.76" x2="277.68" y2="144.20"/><line x1="429.01" y1="338.96" x2="430.66" y2="342.37"/><line x1="93.47" y1="141.67" x2="97.19" y2="139.40"/><line x1="83.52" y1="191.27" x2="77.28" y2="166.69"/><line x1="77.28" y1="175.61" x2="77.02" y2="171.15"/><line x1="145.94" y1="197.93" x2="145.88" y2="143.33"/><line x1="276.02" y1="218.94" x2="225.13" y2="167.75"/><line x1="204.11" y1="272.72" x2="222.16" y2="360.02"/><line x1="263.13" y1="135.73" x2="266.72" y2="136.67"/><line x1="276.02" y1="218.94" x2="263.13" y2="135.73"/><line x1="362.96" y1="355.08" x2="413.15" y2="320.22"/><line x1="421.89" y1="327.62" x2="424.55" y2="331.17"/><line x1="204.11" y1="272.72" x2="225.13" y2="167.75"/><line x1="349.67" y1="322.62" x2="344.08" y2="352.13"/><line x1="276.02" y1="218.94" x2="283.15" y2="154.18"/><line x1="335.39" y1="348.45" x2="339.67" y2="350.47"/><line x1="342.73" y1="317.79" x2="323.33" y2="340.13"/><line x1="363.15" y1="323.97" x2="366.10" y2="323.64"/><line x1="81.17" y1="187.69" x2="78.06" y2="179.86"/><line x1="362.96" y1="355.08" x2="432.39" y2="346.20"/><line x1="83.60" y1="150.96" x2="86.37" y2="194.63"/><line x1="243.04" y1="137.65" x2="248.65" y2="135.65"/><line x1="32.16" y1="32.09" x2="32.16" y2="64.58"/><line x1="137.45" y1="138.26" x2="145.88" y2="143.33"/><line x1="118.33" y1="134.22" x2="145.94" y2="197.93"/><line x1="312.34" y1="325.11" x2="314.48" y2="329.26"/><line x1="346.00" y1="320.60" x2="327.08" y2="343.22"/><line x1="358.15" y1="324.23" x2="358.05" y2="354.89"/><line x1="339.67" y1="350.47" x2="344.08" y2="352.13"/><line x1="78.06" y1="179.86" x2="79.35" y2="183.88"/><line x1="138.96" y1="202.91" x2="142.55" y2="200.62"/><line x1="204.11" y1="272.72" x2="196.96" y2="339.57"/><line x1="344.08" y1="352.13" x2="353.72" y2="323.83"/><line x1="276.02" y1="218.94" x2="230.27" y2="151.70"/><line x1="104.84" y1="206.20" x2="109.05" y2="207.25"/><line x1="145.88" y1="143.33" x2="153.57" y2="150.42"/><line x1="145.94" y1="197.93" x2="160.49" y2="159.53"/><line x1="204.11" y1="272.72" x2="234.34" y2="358.33"/><line x1="266.72" y1="136.67" x2="269.97" y2="137.99"/><line x1="276.02" y1="218.94" x2="269.97" y2="137.99"/><line x1="339.83" y1="314.16" x2="317.03" y2="333.14"/><line x1="327.08" y1="343.22" x2="331.23" y2="346.06"/><line x1="362.96" y1="355.08" x2="392.35" y2="318.81"/><line x1="276.02" y1="218.94" x2="286.30" y2="162.28"/><line x1="362.96" y1="355.08" x2="419.10" y2="324.60"/><line x1="153.57" y1="150.42" x2="160.49" y2="159.53"/><line x1="432.39" y1="346.20" x2="434.20" y2="350.43"/><line x1="81.17" y1="187.69" x2="83.52" y2="191.27"/><line x1="97.19" y1="139.40" x2="101.08" y2="137.53"/><line x1="142.55" y1="200.62" x2="145.94" y2="197.93"/><line x1="362.96" y1="355.08" x2="436.11" y2="355.08"/><line x1="118.00" y1="208.09" x2="122.59" y2="207.88"/><line x1="86.37" y1="194.63" x2="86.50" y2="147.55"/><line x1="248.65" y1="135.65" x2="254.94" y2="134.98"/><line x1="434.20" y1="350.43" x2="436.11" y2="355.08"/><line x1="346.00" y1="320.60" x2="349.67" y2="322.62"/><line x1="269.97" y1="137.99" x2="272.88" y2="139.69"/><line x1="425.95" y1="333.36" x2="427.44" y2="335.96"/><line x1="358.05" y1="354.89" x2="360.50" y2="324.16"/><line x1="78.07" y1="162.43" x2="79.39" y2="158.39"/><line x1="78.06" y1="179.86" x2="77.28" y2="175.61"/><line x1="86.50" y1="147.55" x2="89.75" y2="197.77"/><line x1="204.11" y1="272.72" x2="201.99" y2="349.59"/><line x1="254.94" y1="134.98" x2="259.21" y2="135.17"/><line x1="196.96" y1="339.57" x2="199.26" y2="344.99"/><line x1="145.94" y1="197.93" x2="172.09" y2="183.82"/><line x1="276.02" y1="218.94" x2="238.10" y2="141.00"/><line x1="204.11" y1="272.72" x2="243.31" y2="353.25"/><line x1="362.96" y1="355.08" x2="398.44" y2="318.02"/><line x1="276.02" y1="218.94" x2="275.45" y2="141.76"/><line x1="362.96" y1="355.08" x2="424.55" y2="331.17"/><line x1="360.50" y1="324.16" x2="362.96" y2="355.08"/><line x1="480.00" y1="32.02" x2="447.51" y2="32.02"/><line x1="79.39" y1="158.39" x2="81.23" y2="154.57"/><line x1="276.02" y1="218.94" x2="335.19" y2="304.49"/><line x1="160.49" y1="159.53" x2="166.67" y2="170.66"/><line x1="118.33" y1="134.22" x2="126.98" y2="207.26"/><line x1="199.26" y1="344.99" x2="201.99" y2="349.59"/><line x1="337.32" y1="309.73" x2="312.34" y2="325.11"/><line x1="348.61" y1="353.42" x2="353.26" y2="354.34"/><line x1="281.68" y1="150.90" x2="283.15" y2="154.18"/><line x1="109.36" y1="135.04" x2="113.77" y2="134.42"/><line x1="166.67" y1="170.66" x2="172.09" y2="183.82"/><line x1="96.95" y1="202.83" x2="101.08" y2="137.53"/><line x1="362.96" y1="355.08" x2="372.88" y2="322.58"/><line x1="204.11" y1="272.72" x2="208.75" y2="356.26"/><line x1="89.75" y1="197.77" x2="89.92" y2="144.37"/><line x1="276.02" y1="218.94" x2="248.65" y2="135.65"/><line x1="145.94" y1="197.93" x2="196.96" y2="339.57"/><line x1="283.15" y1="154.18" x2="284.68" y2="157.97"/><line x1="353.72" y1="323.83" x2="358.15" y2="324.23"/><line x1="362.96" y1="355.08" x2="403.28" y2="317.76"/><line x1="276.02" y1="218.94" x2="278.94" y2="145.91"/><line x1="362.96" y1="355.08" x2="427.44" y2="335.96"/><line x1="89.92" y1="144.37" x2="93.47" y2="141.67"/><line x1="276.02" y1="218.94" x2="310.60" y2="320.70"/><line x1="81.23" y1="154.57" x2="83.60" y2="150.96"/><line x1="101.08" y1="137.53" x2="100.81" y2="204.72"/><line x1="277.68" y1="144.20" x2="278.94" y2="145.91"/><line x1="430.66" y1="342.37" x2="432.39" y2="346.20"/><line x1="118.33" y1="134.22" x2="135.16" y2="204.77"/><line x1="353.26" y1="354.34" x2="358.15" y2="324.23"/><line x1="331.23" y1="346.06" x2="335.39" y2="348.45"/><line x1="380.87" y1="320.99" x2="385.00" y2="320.13"/><line x1="77.02" y1="171.15" x2="77.28" y2="166.69"/><line x1="93.47" y1="141.67" x2="93.27" y2="200.52"/><line x1="113.44" y1="207.88" x2="118.00" y2="208.09"/><line x1="172.09" y1="183.82" x2="204.11" y2="272.72"/><line x1="145.94" y1="197.93" x2="137.45" y2="138.26"/><line x1="228.65" y1="359.60" x2="234.34" y2="358.33"/><line x1="366.10" y1="323.64" x2="369.34" y2="323.17"/><line x1="89.75" y1="197.77" x2="93.27" y2="200.52"/><line x1="32.00" y1="479.98" x2="64.49" y2="479.98"/><line x1="276.02" y1="218.94" x2="259.21" y2="135.17"/><line x1="362.96" y1="355.08" x2="380.87" y2="320.99"/><line x1="362.96" y1="355.08" x2="409.99" y2="318.85"/><line x1="83.52" y1="191.27" x2="79.39" y2="158.39"/><line x1="276.02" y1="218.94" x2="281.68" y2="150.90"/><line x1="362.96" y1="355.08" x2="430.66" y2="342.37"/><line x1="208.75" y1="356.26" x2="212.79" y2="358.36"/><line x1="113.77" y1="134.42" x2="118.33" y2="134.22"/><line x1="323.33" y1="340.13" x2="327.08" y2="343.22"/><line x1="278.94" y1="145.91" x2="280.28" y2="148.15"/><line x1="312.34" y1="325.11" x2="339.83" y2="314.16"/><line x1="64.64" y1="32.09" x2="32.16" y2="64.58"/><line x1="105.14" y1="136.08" x2="109.36" y2="135.04"/><line x1="93.27" y1="200.52" x2="97.19" y2="139.40"/><line x1="287.97" y1="167.12" x2="335.19" y2="304.49"/><line x1="276.02" y1="218.94" x2="227.36" y2="159.05"/><line x1="145.94" y1="197.93" x2="153.57" y2="150.42"/><line x1="280.28" y1="148.15" x2="281.68" y2="150.90"/><line x1="362.96" y1="355.08" x2="388.83" y2="319.41"/><line x1="369.34" y1="323.17" x2="372.88" y2="322.58"/><line x1="276.02" y1="218.94" x2="266.72" y2="136.67"/><line x1="362.96" y1="355.08" x2="416.19" y2="322.14"/><line x1="83.52" y1="191.27" x2="83.60" y2="150.96"/><line x1="362.96" y1="355.08" x2="434.20" y2="350.43"/><line x1="81.17" y1="187.69" x2="79.35" y2="183.88"/><line x1="97.19" y1="139.40" x2="96.95" y2="202.83"/><line x1="272.88" y1="139.69" x2="275.45" y2="141.76"/><line x1="212.79" y1="358.36" x2="217.25" y2="359.61"/><line x1="392.35" y1="318.81" x2="395.55" y2="318.35"/><line x1="346.00" y1="320.60" x2="331.23" y2="346.06"/><line x1="372.88" y1="322.58" x2="376.73" y2="321.85"/><line x1="376.73" y1="321.85" x2="380.87" y2="320.99"/><line x1="317.03" y1="333.14" x2="319.98" y2="336.76"/><line x1="217.25" y1="359.61" x2="222.16" y2="360.02"/><line x1="362.96" y1="355.08" x2="363.15" y2="323.97"/><line x1="344.08" y1="352.13" x2="348.61" y2="353.42"/><line x1="335.19" y1="304.49" x2="337.32" y2="309.73"/><line x1="276.02" y1="218.94" x2="233.84" y2="145.67"/><line x1="362.96" y1="355.08" x2="395.55" y2="318.35"/><line x1="276.02" y1="218.94" x2="272.88" y2="139.69"/><line x1="362.96" y1="355.08" x2="421.89" y2="327.62"/><line x1="480.00" y1="32.02" x2="480.00" y2="64.50"/><line x1="201.99" y1="349.59" x2="205.15" y2="353.35"/><line x1="109.05" y1="207.25" x2="109.36" y2="135.04"/><line x1="204.11" y1="272.72" x2="249.08" y2="344.79"/><line x1="337.32" y1="309.73" x2="310.60" y2="320.70"/><line x1="395.55" y1="318.35" x2="398.44" y2="318.02"/><line x1="358.05" y1="354.89" x2="362.96" y2="355.08"/><line x1="480.00" y1="479.91" x2="480.00" y2="447.42"/><line x1="109.36" y1="135.04" x2="113.44" y2="207.88"/><line x1="284.68" y1="157.97" x2="286.30" y2="162.28"/><line x1="246.60" y1="349.44" x2="249.08" y2="344.79"/><line x1="362.96" y1="355.08" x2="369.34" y2="323.17"/><line x1="222.16" y1="360.02" x2="228.65" y2="359.60"/><line x1="276.02" y1="218.94" x2="243.04" y2="137.65"/><line x1="353.72" y1="323.83" x2="353.26" y2="354.34"/><line x1="398.44" y1="318.02" x2="401.02" y2="317.82"/><line x1="362.96" y1="355.08" x2="401.02" y2="317.82"/><line x1="83.52" y1="191.27" x2="77.02" y2="171.15"/><line x1="100.81" y1="204.72" x2="104.84" y2="206.20"/><line x1="362.96" y1="355.08" x2="425.95" y2="333.36"/><line x1="204.11" y1="272.72" x2="217.25" y2="359.61"/><line x1="480.00" y1="64.50" x2="447.51" y2="32.02"/><line x1="205.15" y1="353.35" x2="208.75" y2="356.26"/><line x1="204.11" y1="272.72" x2="276.02" y2="218.94"/><line x1="249.08" y1="344.79" x2="250.76" y2="339.28"/><line x1="349.67" y1="322.62" x2="339.67" y2="350.47"/><line x1="385.00" y1="320.13" x2="388.83" y2="319.41"/><line x1="342.73" y1="317.79" x2="319.98" y2="336.76"/><line x1="337.32" y1="309.73" x2="339.83" y2="314.16"/><line x1="32.16" y1="32.09" x2="64.64" y2="32.09"/><line x1="101.08" y1="137.53" x2="105.14" y2="136.08"/><line x1="447.51" y1="479.91" x2="480.00" y2="447.42"/><line x1="234.34" y1="358.33" x2="239.22" y2="356.22"/><line x1="118.33" y1="134.22" x2="142.55" y2="200.62"/><line x1="113.44" y1="207.88" x2="113.77" y2="134.42"/><line x1="286.30" y1="162.28" x2="287.97" y2="167.12"/><line x1="96.95" y1="202.83" x2="100.81" y2="204.72"/><line x1="319.98" y1="336.76" x2="323.33" y2="340.13"/><line x1="362.96" y1="355.08" x2="376.73" y2="321.85"/><line x1="32.00" y1="479.98" x2="32.00" y2="447.50"/><line x1="362.96" y1="355.08" x2="406.70" y2="318.03"/><line x1="83.52" y1="191.27" x2="78.07" y2="162.43"/><line x1="427.44" y1="335.96" x2="429.01" y2="338.96"/><line x1="104.84" y1="206.20" x2="105.14" y2="136.08"/><line x1="204.11" y1="272.72" x2="228.65" y2="359.60"/><line x1="131.18" y1="206.22" x2="135.16" y2="204.77"/><line x1="339.83" y1="314.16" x2="314.48" y2="329.26"/><line x1="349.67" y1="322.62" x2="353.72" y2="323.83"/><line x1="276.02" y1="218.94" x2="284.68" y2="157.97"/><line x1="250.76" y1="339.28" x2="276.02" y2="218.94"/><line x1="342.73" y1="317.79" x2="346.00" y2="320.60"/><line x1="388.83" y1="319.41" x2="392.35" y2="318.81"/><line x1="419.10" y1="324.60" x2="421.89" y2="327.62"/><line x1="83.60" y1="150.96" x2="86.50" y2="147.55"/><line x1="118.00" y1="208.09" x2="118.33" y2="134.22"/><line x1="353.26" y1="354.34" x2="358.05" y2="354.89"/><line x1="403.28" y1="317.76" x2="406.70" y2="318.03"/><line x1="105.14" y1="136.08" x2="109.05" y2="207.25"/><line x1="118.33" y1="134.22" x2="128.27" y2="135.23"/><line x1="239.22" y1="356.22" x2="243.31" y2="353.25"/><line x1="358.15" y1="324.23" x2="360.50" y2="324.16"/><line x1="238.10" y1="141.00" x2="243.04" y2="137.65"/><line x1="406.70" y1="318.03" x2="409.99" y2="318.85"/><line x1="362.96" y1="355.08" x2="385.00" y2="320.13"/><line x1="78.06" y1="179.86" x2="83.52" y2="191.27"/><line x1="32.00" y1="447.50" x2="64.49" y2="479.98"/></g></svg>