<svg xmlns="http://www.w3.org/2000/svg" width="512" height="512"><rect width="512" height="512" fill="#0a0f1a"/><text x="12" y="20" font-family="monospace" font-size="11" fill="#4a7fa5">FRONT (XZ)</text><g stroke="#00d4ff" stroke-width="0.6" opacity="0.85"><line x1="242.20" y1="250.37" x2="239.52" y2="214.19"/><line x1="332.88" y1="180.02" x2="329.45" y2="172.82"/><line x1="216.77" y1="176.75" x2="190.04" y2="138.05"/><line x1="158.69" y1="354.57" x2="167.23" y2="355.08"/><line x1="276.62" y1="193.24" x2="281.90" y2="193.52"/><line x1="307.97" y1="206.95" x2="321.93" y2="247.57"/><line x1="190.04" y1="138.05" x2="212.27" y2="181.18"/><line x1="176.00" y1="294.14" x2="216.43" y2="271.39"/><line x1="281.90" y1="193.52" x2="286.90" y2="194.36"/><line x1="295.51" y1="177.86" x2="313.29" y2="153.42"/><line x1="216.43" y1="271.39" x2="185.70" y2="302.82"/><line x1="313.29" y1="153.42" x2="291.02" y2="174.23"/><line x1="143.74" y1="244.30" x2="147.81" y2="254.63"/><line x1="162.52" y1="154.61" x2="156.14" y2="161.16"/><line x1="360.27" y1="320.45" x2="344.62" y2="317.99"/><line x1="242.20" y1="250.37" x2="235.88" y2="234.64"/><line x1="284.51" y1="266.71" x2="307.97" y2="206.95"/><line x1="156.14" y1="161.16" x2="202.93" y2="196.98"/><line x1="307.97" y1="206.95" x2="291.92" y2="265.52"/><line x1="276.76" y1="167.03" x2="286.67" y2="137.66"/><line x1="307.97" y1="206.95" x2="334.47" y2="224.51"/><line x1="235.82" y1="297.11" x2="218.88" y2="322.50"/><line x1="286.67" y1="137.66" x2="271.48" y2="165.50"/><line x1="348.99" y1="317.39" x2="349.70" y2="317.38"/><line x1="241.73" y1="210.65" x2="245.09" y2="253.77"/><line x1="200.17" y1="209.62" x2="139.00" y2="202.19"/><line x1="360.27" y1="320.45" x2="347.56" y2="317.49"/><line x1="326.00" y1="242.31" x2="329.45" y2="236.71"/><line x1="253.00" y1="130.51" x2="241.94" y2="164.61"/><line x1="262.25" y1="319.42" x2="268.87" y2="323.34"/><line x1="254.86" y1="198.77" x2="258.80" y2="196.78"/><line x1="307.97" y1="206.95" x2="316.87" y2="252.75"/><line x1="200.87" y1="229.33" x2="202.20" y2="235.99"/><line x1="307.62" y1="201.23" x2="306.58" y2="195.86"/><line x1="480.00" y1="32.02" x2="447.51" y2="32.02"/><line x1="225.97" y1="170.28" x2="221.22" y2="173.25"/><line x1="267.74" y1="266.28" x2="272.10" y2="266.90"/><line x1="213.21" y1="132.03" x2="201.15" y2="134.54"/><line x1="159.44" y1="274.68" x2="166.99" y2="284.40"/><line x1="239.52" y1="214.19" x2="241.73" y2="210.65"/><line x1="302.43" y1="186.16" x2="299.32" y2="181.84"/><line x1="209.33" y1="257.11" x2="212.76" y2="264.53"/><line x1="140.47" y1="192.88" x2="200.17" y2="209.62"/><line x1="379.39" y1="345.07" x2="374.87" y2="336.61"/><line x1="321.93" y1="247.57" x2="326.00" y2="242.31"/><line x1="179.91" y1="142.56" x2="170.73" y2="148.09"/><line x1="248.51" y1="256.96" x2="252.02" y2="259.65"/><line x1="255.41" y1="314.63" x2="262.25" y2="319.42"/><line x1="208.47" y1="186.03" x2="205.35" y2="191.29"/><line x1="254.04" y1="163.53" x2="253.00" y2="130.51"/><line x1="220.57" y1="278.07" x2="225.18" y2="284.59"/><line x1="252.02" y1="259.65" x2="254.86" y2="198.77"/><line x1="305.20" y1="147.21" x2="281.78" y2="169.00"/><line x1="253.00" y1="130.51" x2="247.85" y2="163.81"/><line x1="196.07" y1="310.44" x2="207.14" y2="316.99"/><line x1="140.84" y1="233.76" x2="200.87" y2="229.33"/><line x1="254.86" y1="198.77" x2="255.70" y2="261.93"/><line x1="337.29" y1="203.72" x2="307.62" y2="201.23"/><line x1="200.87" y1="229.33" x2="143.74" y2="244.30"/><line x1="131.66" y1="336.89" x2="129.37" y2="330.32"/><line x1="276.62" y1="267.11" x2="291.64" y2="195.76"/><line x1="276.23" y1="134.32" x2="265.01" y2="131.93"/><line x1="307.62" y1="201.23" x2="336.80" y2="195.46"/><line x1="146.35" y1="175.91" x2="142.92" y2="184.12"/><line x1="231.01" y1="167.86" x2="225.97" y2="170.28"/><line x1="480.00" y1="32.02" x2="480.00" y2="64.50"/><line x1="267.30" y1="194.12" x2="267.74" y2="266.28"/><line x1="225.97" y1="170.28" x2="213.21" y2="132.03"/><line x1="231.31" y1="326.94" x2="244.43" y2="330.32"/><line x1="206.42" y1="249.88" x2="159.44" y2="274.68"/><line x1="480.00" y1="479.91" x2="480.00" y2="447.42"/><line x1="267.74" y1="266.28" x2="271.86" y2="193.46"/><line x1="329.45" y1="172.82" x2="302.43" y2="186.16"/><line x1="159.44" y1="274.68" x2="209.33" y2="257.11"/><line x1="167.23" y1="355.08" x2="379.39" y2="345.07"/><line x1="302.43" y1="186.16" x2="325.04" y2="166.00"/><line x1="212.27" y1="181.18" x2="179.91" y2="142.56"/><line x1="379.39" y1="345.07" x2="383.74" y2="355.08"/><line x1="447.51" y1="479.91" x2="480.00" y2="447.42"/><line x1="276.62" y1="267.11" x2="284.51" y2="266.71"/><line x1="179.91" y1="142.56" x2="208.47" y2="186.03"/><line x1="291.64" y1="195.76" x2="296.11" y2="197.71"/><line x1="220.57" y1="278.07" x2="196.07" y2="310.44"/><line x1="305.20" y1="147.21" x2="286.53" y2="171.40"/><line x1="345.36" y1="317.83" x2="346.10" y2="317.69"/><line x1="167.23" y1="355.08" x2="365.31" y2="324.30"/><line x1="241.84" y1="303.12" x2="248.34" y2="308.96"/><line x1="276.62" y1="267.11" x2="286.90" y2="194.36"/><line x1="245.09" y1="253.77" x2="248.51" y2="256.96"/><line x1="276.23" y1="134.32" x2="260.12" y2="163.75"/><line x1="244.42" y1="207.28" x2="247.60" y2="204.09"/><line x1="138.51" y1="212.05" x2="139.10" y2="223.00"/><line x1="244.43" y1="330.32" x2="129.37" y2="330.32"/><line x1="480.00" y1="479.91" x2="447.51" y2="479.91"/><line x1="199.82" y1="216.57" x2="200.09" y2="222.85"/><line x1="286.90" y1="194.36" x2="291.64" y2="195.76"/><line x1="241.94" y1="164.61" x2="236.33" y2="165.96"/><line x1="185.70" y1="302.82" x2="220.57" y2="278.07"/><line x1="258.80" y1="196.78" x2="262.95" y2="195.23"/><line x1="276.62" y1="267.11" x2="304.28" y2="203.31"/><line x1="240.21" y1="130.03" x2="226.23" y2="130.53"/><line x1="291.02" y1="174.23" x2="305.20" y2="147.21"/><line x1="202.20" y1="235.99" x2="204.05" y2="242.84"/><line x1="235.88" y1="234.64" x2="235.61" y2="230.18"/><line x1="306.58" y1="195.86" x2="304.85" y2="190.84"/><line x1="244.43" y1="330.32" x2="275.28" y2="326.40"/><line x1="147.81" y1="254.63" x2="153.05" y2="264.76"/><line x1="202.93" y1="196.98" x2="150.76" y2="168.26"/><line x1="244.43" y1="330.32" x2="151.20" y2="353.05"/><line x1="335.33" y1="187.56" x2="332.88" y2="180.02"/><line x1="291.92" y1="265.52" x2="298.86" y2="263.52"/><line x1="221.22" y1="173.25" x2="216.77" y2="176.75"/><line x1="150.76" y1="168.26" x2="146.35" y2="175.91"/><line x1="167.23" y1="355.08" x2="370.17" y2="329.69"/><line x1="298.86" y1="263.52" x2="305.33" y2="260.73"/><line x1="201.15" y1="134.54" x2="190.04" y2="138.05"/><line x1="271.48" y1="165.50" x2="276.23" y2="134.32"/><line x1="241.84" y1="303.12" x2="231.31" y2="326.94"/><line x1="239.83" y1="246.76" x2="242.20" y2="250.37"/><line x1="276.62" y1="267.11" x2="281.90" y2="193.52"/><line x1="245.09" y1="253.77" x2="244.42" y2="207.28"/><line x1="276.23" y1="134.32" x2="265.93" y2="164.41"/><line x1="212.76" y1="264.53" x2="216.43" y2="271.39"/><line x1="139.00" y1="202.19" x2="138.51" y2="212.05"/><line x1="236.67" y1="238.89" x2="235.88" y2="234.64"/><line x1="244.42" y1="207.28" x2="248.51" y2="256.96"/><line x1="319.65" y1="159.53" x2="313.29" y2="153.42"/><line x1="329.45" y1="236.71" x2="332.27" y2="230.78"/><line x1="205.35" y1="191.29" x2="202.93" y2="196.98"/><line x1="138.51" y1="212.05" x2="199.82" y2="216.57"/><line x1="244.43" y1="330.32" x2="131.66" y2="336.89"/><line x1="332.27" y1="230.78" x2="334.47" y2="224.51"/><line x1="344.62" y1="317.99" x2="345.36" y2="317.83"/><line x1="247.85" y1="163.81" x2="241.94" y2="164.61"/><line x1="207.14" y1="316.99" x2="218.88" y2="322.50"/><line x1="275.28" y1="326.40" x2="281.46" y2="328.58"/><line x1="255.70" y1="261.93" x2="258.80" y2="196.78"/><line x1="336.80" y1="195.46" x2="335.33" y2="187.56"/><line x1="201.20" y1="203.09" x2="200.17" y2="209.62"/><line x1="241.94" y1="164.61" x2="240.21" y2="130.03"/><line x1="258.80" y1="196.78" x2="259.55" y2="263.79"/><line x1="218.88" y1="322.50" x2="241.84" y2="303.12"/><line x1="202.20" y1="235.99" x2="147.81" y2="254.63"/><line x1="293.17" y1="330.32" x2="167.23" y2="355.08"/><line x1="271.86" y1="193.46" x2="276.62" y2="267.11"/><line x1="306.58" y1="195.86" x2="335.33" y2="187.56"/><line x1="349.70" y1="317.38" x2="355.07" y2="318.14"/><line x1="244.43" y1="330.32" x2="268.87" y2="323.34"/><line x1="242.20" y1="250.37" x2="237.82" y2="217.92"/><line x1="139.34" y1="347.00" x2="144.75" y2="350.53"/><line x1="244.43" y1="330.32" x2="144.75" y2="350.53"/><line x1="325.04" y1="166.00" x2="319.65" y2="159.53"/><line x1="221.22" y1="173.25" x2="201.15" y2="134.54"/><line x1="166.99" y1="284.40" x2="176.00" y2="294.14"/><line x1="307.97" y1="206.95" x2="307.62" y2="201.23"/><line x1="268.87" y1="323.34" x2="275.28" y2="326.40"/><line x1="299.32" y1="181.84" x2="295.51" y2="177.86"/><line x1="239.83" y1="246.76" x2="237.99" y2="242.93"/><line x1="170.73" y1="148.09" x2="162.52" y2="154.61"/><line x1="143.74" y1="244.30" x2="202.20" y2="235.99"/><line x1="226.23" y1="130.53" x2="213.21" y2="132.03"/><line x1="225.18" y1="284.59" x2="230.26" y2="290.93"/><line x1="360.27" y1="320.45" x2="355.07" y2="318.14"/><line x1="244.43" y1="330.32" x2="293.17" y2="330.32"/><line x1="281.78" y1="169.00" x2="276.76" y2="167.03"/><line x1="307.97" y1="206.95" x2="332.27" y2="230.78"/><line x1="336.80" y1="195.46" x2="306.58" y2="195.86"/><line x1="201.20" y1="203.09" x2="140.47" y2="192.88"/><line x1="480.00" y1="64.50" x2="447.51" y2="32.02"/><line x1="248.34" y1="308.96" x2="255.41" y2="314.63"/><line x1="271.86" y1="193.46" x2="272.10" y2="266.90"/><line x1="260.12" y1="163.75" x2="254.04" y2="163.53"/><line x1="360.27" y1="320.45" x2="346.83" y2="317.58"/><line x1="242.20" y1="250.37" x2="236.59" y2="221.83"/><line x1="325.04" y1="166.00" x2="299.32" y2="181.84"/><line x1="139.10" y1="223.00" x2="140.84" y2="233.76"/><line x1="166.99" y1="284.40" x2="212.76" y2="264.53"/><line x1="307.97" y1="206.95" x2="311.33" y2="257.14"/><line x1="307.97" y1="206.95" x2="337.29" y2="203.72"/><line x1="374.87" y1="336.61" x2="370.17" y2="329.69"/><line x1="296.11" y1="197.71" x2="300.33" y2="200.24"/><line x1="304.85" y1="190.84" x2="302.43" y2="186.16"/><line x1="134.98" y1="342.44" x2="139.34" y2="347.00"/><line x1="225.18" y1="284.59" x2="207.14" y2="316.99"/><line x1="360.27" y1="320.45" x2="349.70" y2="317.38"/><line x1="242.20" y1="250.37" x2="245.09" y2="253.77"/><line x1="213.21" y1="132.03" x2="221.22" y2="173.25"/><line x1="235.86" y1="225.91" x2="236.59" y2="221.83"/><line x1="153.05" y1="264.76" x2="159.44" y2="274.68"/><line x1="346.83" y1="317.58" x2="347.56" y2="317.49"/><line x1="307.97" y1="206.95" x2="329.45" y2="236.71"/><line x1="209.33" y1="257.11" x2="166.99" y2="284.40"/><line x1="201.20" y1="203.09" x2="142.92" y2="184.12"/><line x1="248.51" y1="256.96" x2="251.13" y2="201.21"/><line x1="248.34" y1="308.96" x2="244.43" y2="330.32"/><line x1="208.47" y1="186.03" x2="170.73" y2="148.09"/><line x1="260.12" y1="163.75" x2="265.01" y2="131.93"/><line x1="360.27" y1="320.45" x2="346.10" y2="317.69"/><line x1="242.20" y1="250.37" x2="235.86" y2="225.91"/><line x1="196.07" y1="310.44" x2="225.18" y2="284.59"/><line x1="139.10" y1="223.00" x2="200.09" y2="222.85"/><line x1="286.53" y1="171.40" x2="281.78" y2="169.00"/><line x1="32.16" y1="32.09" x2="32.16" y2="64.58"/><line x1="307.97" y1="206.95" x2="305.33" y2="260.73"/><line x1="346.10" y1="317.69" x2="346.83" y2="317.58"/><line x1="236.33" y1="165.96" x2="231.01" y2="167.86"/><line x1="287.43" y1="329.89" x2="293.17" y2="330.32"/><line x1="146.35" y1="175.91" x2="201.20" y2="203.09"/><line x1="262.95" y1="195.23" x2="267.30" y2="194.12"/><line x1="204.05" y1="242.84" x2="206.42" y2="249.88"/><line x1="305.33" y1="260.73" x2="311.33" y2="257.14"/><line x1="231.31" y1="326.94" x2="248.34" y2="308.96"/><line x1="304.85" y1="190.84" x2="329.45" y2="172.82"/><line x1="200.17" y1="209.62" x2="199.82" y2="216.57"/><line x1="360.27" y1="320.45" x2="348.99" y2="317.39"/><line x1="216.77" y1="176.75" x2="212.27" y2="181.18"/><line x1="176.00" y1="294.14" x2="185.70" y2="302.82"/><line x1="248.51" y1="256.96" x2="247.60" y2="204.09"/><line x1="295.51" y1="177.86" x2="291.02" y2="174.23"/><line x1="259.55" y1="263.79" x2="263.56" y2="265.25"/><line x1="235.61" y1="230.18" x2="235.86" y2="225.91"/><line x1="284.51" y1="266.71" x2="291.92" y2="265.52"/><line x1="32.00" y1="479.98" x2="64.49" y2="479.98"/><line x1="276.76" y1="167.03" x2="271.48" y2="165.50"/><line x1="265.93" y1="164.41" x2="260.12" y2="163.75"/><line x1="199.82" y1="216.57" x2="139.10" y2="223.00"/><line x1="253.00" y1="130.51" x2="240.21" y2="130.03"/><line x1="334.47" y1="224.51" x2="336.03" y2="217.91"/><line x1="281.46" y1="328.58" x2="287.43" y2="329.89"/><line x1="276.62" y1="267.11" x2="300.33" y2="200.24"/><line x1="240.21" y1="130.03" x2="236.33" y2="165.96"/><line x1="259.55" y1="263.79" x2="262.95" y2="195.23"/><line x1="365.31" y1="324.30" x2="360.27" y2="320.45"/><line x1="147.81" y1="254.63" x2="204.05" y2="242.84"/><line x1="335.33" y1="187.56" x2="304.85" y2="190.84"/><line x1="144.75" y1="350.53" x2="151.20" y2="353.05"/><line x1="32.00" y1="479.98" x2="32.00" y2="447.50"/><line x1="167.23" y1="355.08" x2="374.87" y2="336.61"/><line x1="230.26" y1="290.93" x2="235.82" y2="297.11"/><line x1="201.15" y1="134.54" x2="216.77" y2="176.75"/><line x1="140.47" y1="192.88" x2="139.00" y2="202.19"/><line x1="276.62" y1="267.11" x2="276.62" y2="193.24"/><line x1="348.27" y1="317.42" x2="348.99" y2="317.39"/><line x1="212.76" y1="264.53" x2="176.00" y2="294.14"/><line x1="236.67" y1="238.89" x2="242.20" y2="250.37"/><line x1="319.65" y1="159.53" x2="295.51" y2="177.86"/><line x1="205.35" y1="191.29" x2="156.14" y2="161.16"/><line x1="370.17" y1="329.69" x2="365.31" y2="324.30"/><line x1="254.04" y1="163.53" x2="247.85" y2="163.81"/><line x1="304.28" y1="203.31" x2="307.97" y2="206.95"/><line x1="252.02" y1="259.65" x2="255.70" y2="261.93"/><line x1="207.14" y1="316.99" x2="235.82" y2="297.11"/><line x1="305.20" y1="147.21" x2="296.33" y2="141.96"/><line x1="140.84" y1="233.76" x2="143.74" y2="244.30"/><line x1="296.33" y1="141.96" x2="286.67" y2="137.66"/><line x1="337.29" y1="203.72" x2="336.80" y2="195.46"/><line x1="131.66" y1="336.89" x2="134.98" y2="342.44"/><line x1="276.62" y1="267.11" x2="296.11" y2="197.71"/><line x1="267.30" y1="194.12" x2="271.86" y2="193.46"/><line x1="244.43" y1="330.32" x2="262.25" y2="319.42"/><line x1="244.43" y1="330.32" x2="139.34" y2="347.00"/><line x1="206.42" y1="249.88" x2="209.33" y2="257.11"/><line x1="272.10" y1="266.90" x2="276.62" y2="267.11"/><line x1="265.01" y1="131.93" x2="253.00" y2="130.51"/><line x1="329.45" y1="172.82" x2="325.04" y2="166.00"/><line x1="251.13" y1="201.21" x2="254.86" y2="198.77"/><line x1="167.23" y1="355.08" x2="383.74" y2="355.08"/><line x1="299.32" y1="181.84" x2="319.65" y2="159.53"/><line x1="200.09" y1="222.85" x2="200.87" y2="229.33"/><line x1="212.27" y1="181.18" x2="208.47" y2="186.03"/><line x1="239.83" y1="246.76" x2="236.67" y2="238.89"/><line x1="170.73" y1="148.09" x2="205.35" y2="191.29"/><line x1="236.67" y1="238.89" x2="237.99" y2="242.93"/><line x1="300.33" y1="200.24" x2="304.28" y2="203.31"/><line x1="226.23" y1="130.53" x2="225.97" y2="170.28"/><line x1="205.35" y1="191.29" x2="162.52" y2="154.61"/><line x1="244.43" y1="330.32" x2="287.43" y2="329.89"/><line x1="202.93" y1="196.98" x2="201.20" y2="203.09"/><line x1="244.43" y1="330.32" x2="167.23" y2="355.08"/><line x1="304.28" y1="203.31" x2="284.51" y2="266.71"/><line x1="281.78" y1="169.00" x2="296.33" y2="141.96"/><line x1="207.14" y1="316.99" x2="230.26" y2="290.93"/><line x1="236.59" y1="221.83" x2="237.82" y2="217.92"/><line x1="296.33" y1="141.96" x2="276.76" y2="167.03"/><line x1="167.23" y1="355.08" x2="360.27" y2="320.45"/><line x1="347.56" y1="317.49" x2="348.27" y2="317.42"/><line x1="237.82" y1="217.92" x2="239.52" y2="214.19"/><line x1="311.33" y1="257.14" x2="316.87" y2="252.75"/><line x1="142.92" y1="184.12" x2="140.47" y2="192.88"/><line x1="293.17" y1="330.32" x2="344.62" y2="317.99"/><line x1="316.87" y1="252.75" x2="321.93" y2="247.57"/><line x1="244.43" y1="330.32" x2="255.41" y2="314.63"/><line x1="244.43" y1="330.32" x2="134.98" y2="342.44"/><line x1="247.60" y1="204.09" x2="251.13" y2="201.21"/><line x1="265.01" y1="131.93" x2="254.04" y2="163.53"/><line x1="251.13" y1="201.21" x2="252.02" y2="259.65"/><line x1="307.97" y1="206.95" x2="336.97" y2="210.98"/><line x1="200.09" y1="222.85" x2="140.84" y2="233.76"/><line x1="185.70" y1="302.82" x2="196.07" y2="310.44"/><line x1="336.97" y1="210.98" x2="337.29" y2="203.72"/><line x1="291.02" y1="174.23" x2="286.53" y2="171.40"/><line x1="64.64" y1="32.09" x2="32.16" y2="64.58"/><line x1="263.56" y1="265.25" x2="267.74" y2="266.28"/><line x1="226.23" y1="130.53" x2="231.01" y2="167.86"/><line x1="244.43" y1="330.32" x2="281.46" y2="328.58"/><line x1="242.20" y1="250.37" x2="241.73" y2="210.65"/><line x1="202.93" y1="196.98" x2="146.35" y2="175.91"/><line x1="244.43" y1="330.32" x2="158.69" y2="354.57"/><line x1="153.05" y1="264.76" x2="206.42" y2="249.88"/><line x1="307.97" y1="206.95" x2="326.00" y2="242.31"/><line x1="190.04" y1="138.05" x2="179.91" y2="142.56"/><line x1="271.48" y1="165.50" x2="265.93" y2="164.41"/><line x1="216.43" y1="271.39" x2="220.57" y2="278.07"/><line x1="293.17" y1="330.32" x2="360.27" y2="320.45"/><line x1="313.29" y1="153.42" x2="305.20" y2="147.21"/><line x1="360.27" y1="320.45" x2="345.36" y2="317.83"/><line x1="242.20" y1="250.37" x2="235.61" y2="230.18"/><line x1="336.03" y1="217.91" x2="336.97" y2="210.98"/><line x1="156.14" y1="161.16" x2="150.76" y2="168.26"/><line x1="32.16" y1="32.09" x2="64.64" y2="32.09"/><line x1="307.97" y1="206.95" x2="298.86" y2="263.52"/><line x1="307.97" y1="206.95" x2="336.03" y2="217.91"/><line x1="236.33" y1="165.96" x2="226.23" y2="130.53"/><line x1="255.70" y1="261.93" x2="259.55" y2="263.79"/><line x1="235.82" y1="297.11" x2="241.84" y2="303.12"/><line x1="262.95" y1="195.23" x2="263.56" y2="265.25"/><line x1="286.67" y1="137.66" x2="276.23" y2="134.32"/><line x1="218.88" y1="322.50" x2="231.31" y2="326.94"/><line x1="204.05" y1="242.84" x2="153.05" y2="264.76"/><line x1="241.73" y1="210.65" x2="244.42" y2="207.28"/><line x1="263.56" y1="265.25" x2="267.30" y2="194.12"/><line x1="304.85" y1="190.84" x2="332.88" y2="180.02"/><line x1="200.17" y1="209.62" x2="138.51" y2="212.05"/><line x1="271.86" y1="193.46" x2="276.62" y2="193.24"/><line x1="151.20" y1="353.05" x2="158.69" y2="354.57"/><line x1="360.27" y1="320.45" x2="348.27" y2="317.42"/><line x1="32.00" y1="447.50" x2="64.49" y2="479.98"/></g></svg>