<svg xmlns="http://www.w3.org/2000/svg" width="512" height="512"><rect width="512" height="512" fill="#0a0f1a"/><text x="12" y="20" font-family="monospace" font-size="11" fill="#4a7fa5">FRONT (XZ)</text><g stroke="#00d4ff" stroke-width="0.6" opacity="0.85"><line x1="379.56" y1="224.06" x2="407.48" y2="226.42"/><line x1="333.14" y1="279.05" x2="369.56" y2="231.24"/><line x1="400.79" y1="247.66" x2="378.13" y2="229.72"/><line x1="326.77" y1="278.32" x2="357.58" y2="214.12"/><line x1="343.06" y1="143.47" x2="331.07" y2="140.87"/><line x1="350.96" y1="209.51" x2="354.23" y2="211.53"/><line x1="332.69" y1="177.86" x2="327.14" y2="177.62"/><line x1="125.91" y1="177.62" x2="182.87" y2="177.62"/><line x1="389.28" y1="170.90" x2="382.54" y2="164.27"/><line x1="292.87" y1="355.08" x2="371.28" y2="318.02"/><line x1="292.22" y1="329.56" x2="364.07" y2="318.07"/><line x1="292.87" y1="355.08" x2="393.50" y2="338.61"/><line x1="340.45" y1="205.30" x2="344.07" y2="206.39"/><line x1="399.63" y1="185.26" x2="394.97" y2="177.90"/><line x1="327.14" y1="177.62" x2="331.07" y2="140.87"/><line x1="390.32" y1="332.83" x2="391.88" y2="335.51"/><line x1="398.79" y1="350.34" x2="400.69" y2="355.08"/><line x1="370.98" y1="235.51" x2="373.31" y2="234.75"/><line x1="344.07" y1="206.39" x2="347.58" y2="207.80"/><line x1="405.85" y1="201.07" x2="403.26" y2="192.98"/><line x1="354.20" y1="147.11" x2="338.07" y2="178.56"/><line x1="289.50" y1="241.06" x2="301.64" y2="267.32"/><line x1="333.14" y1="279.05" x2="339.95" y2="279.30"/><line x1="407.48" y1="226.42" x2="379.74" y2="220.54"/><line x1="386.08" y1="264.40" x2="391.88" y2="259.32"/><line x1="292.87" y1="355.08" x2="364.64" y2="317.99"/><line x1="391.88" y1="335.51" x2="393.50" y2="338.61"/><line x1="292.87" y1="355.08" x2="377.64" y2="320.10"/><line x1="292.87" y1="355.08" x2="396.95" y2="346.02"/><line x1="480.00" y1="479.91" x2="447.51" y2="479.91"/><line x1="258.33" y1="346.69" x2="268.60" y2="351.35"/><line x1="379.74" y1="220.54" x2="407.93" y2="218.33"/><line x1="383.49" y1="324.29" x2="386.23" y2="327.16"/><line x1="327.14" y1="177.62" x2="304.55" y2="138.78"/><line x1="249.31" y1="340.17" x2="258.33" y2="346.69"/><line x1="370.98" y1="235.51" x2="347.47" y2="278.99"/><line x1="295.70" y1="260.91" x2="289.74" y2="245.47"/><line x1="360.61" y1="216.98" x2="363.33" y2="220.13"/><line x1="347.58" y1="207.80" x2="326.77" y2="278.32"/><line x1="315.39" y1="275.39" x2="332.84" y2="204.06"/><line x1="357.95" y1="186.04" x2="353.23" y2="183.47"/><line x1="182.87" y1="177.62" x2="229.72" y2="309.44"/><line x1="292.87" y1="355.08" x2="365.75" y2="317.86"/><line x1="393.50" y1="338.61" x2="395.20" y2="342.11"/><line x1="292.87" y1="355.08" x2="383.49" y2="324.29"/><line x1="320.85" y1="277.09" x2="336.70" y2="204.52"/><line x1="305.78" y1="270.50" x2="310.36" y2="273.18"/><line x1="363.33" y1="220.13" x2="365.73" y2="223.55"/><line x1="367.09" y1="192.79" x2="362.52" y2="189.08"/><line x1="304.55" y1="138.78" x2="238.23" y2="177.62"/><line x1="376.58" y1="205.48" x2="403.26" y2="192.98"/><line x1="292.87" y1="355.08" x2="400.69" y2="355.08"/><line x1="373.94" y1="157.51" x2="364.50" y2="151.79"/><line x1="407.93" y1="218.33" x2="379.39" y2="215.26"/><line x1="238.23" y1="177.62" x2="258.33" y2="346.69"/><line x1="378.13" y1="229.72" x2="379.03" y2="227.12"/><line x1="394.97" y1="177.90" x2="367.09" y2="192.79"/><line x1="370.98" y1="235.51" x2="361.60" y2="276.56"/><line x1="289.74" y1="245.47" x2="298.43" y2="264.22"/><line x1="406.14" y1="234.00" x2="379.56" y2="224.06"/><line x1="375.28" y1="233.54" x2="376.88" y2="231.86"/><line x1="403.26" y1="192.98" x2="374.12" y2="200.99"/><line x1="396.95" y1="346.02" x2="398.79" y2="350.34"/><line x1="229.72" y1="309.44" x2="235.00" y2="321.55"/><line x1="292.87" y1="355.08" x2="366.85" y2="317.78"/><line x1="364.64" y1="317.99" x2="365.20" y2="317.92"/><line x1="293.46" y1="257.38" x2="290.49" y2="249.66"/><line x1="291.39" y1="229.05" x2="292.86" y2="225.39"/><line x1="407.41" y1="209.52" x2="378.34" y2="210.24"/><line x1="320.85" y1="277.09" x2="344.07" y2="206.39"/><line x1="32.16" y1="32.09" x2="32.16" y2="64.58"/><line x1="292.87" y1="355.08" x2="388.84" y2="330.56"/><line x1="304.55" y1="138.78" x2="105.19" y2="138.78"/><line x1="396.78" y1="253.74" x2="400.79" y2="247.66"/><line x1="365.73" y1="223.55" x2="333.14" y2="279.05"/><line x1="338.07" y1="178.56" x2="332.69" y2="177.86"/><line x1="268.60" y1="351.35" x2="280.11" y2="354.15"/><line x1="353.23" y1="183.47" x2="348.34" y2="181.36"/><line x1="235.00" y1="321.55" x2="241.53" y2="331.79"/><line x1="290.49" y1="249.66" x2="291.73" y2="253.63"/><line x1="301.64" y1="267.32" x2="303.10" y2="212.36"/><line x1="354.23" y1="211.53" x2="357.58" y2="214.12"/><line x1="370.98" y1="235.51" x2="374.47" y2="271.69"/><line x1="347.47" y1="278.99" x2="354.69" y2="278.08"/><line x1="364.50" y1="151.79" x2="343.28" y2="179.73"/><line x1="241.53" y1="331.79" x2="249.31" y2="340.17"/><line x1="310.36" y1="273.18" x2="315.39" y2="275.39"/><line x1="333.14" y1="279.05" x2="367.80" y2="227.26"/><line x1="362.52" y1="189.08" x2="357.95" y2="186.04"/><line x1="343.06" y1="143.47" x2="327.14" y2="177.62"/><line x1="374.12" y1="200.99" x2="399.63" y2="185.26"/><line x1="125.91" y1="177.62" x2="105.19" y2="138.78"/><line x1="367.80" y1="227.26" x2="369.56" y2="231.24"/><line x1="292.87" y1="355.08" x2="367.91" y2="317.76"/><line x1="293.46" y1="257.38" x2="295.70" y2="260.91"/><line x1="326.77" y1="278.32" x2="363.33" y2="220.13"/><line x1="357.58" y1="214.12" x2="360.61" y2="216.98"/><line x1="370.96" y1="196.76" x2="367.09" y2="192.79"/><line x1="292.86" y1="225.39" x2="294.75" y2="221.90"/><line x1="320.85" y1="277.09" x2="326.77" y2="278.32"/><line x1="378.34" y1="210.24" x2="405.85" y2="201.07"/><line x1="238.23" y1="177.62" x2="182.87" y2="177.62"/><line x1="376.88" y1="231.86" x2="378.13" y2="229.72"/><line x1="399.63" y1="185.26" x2="370.96" y2="196.76"/><line x1="280.11" y1="354.15" x2="292.87" y2="355.08"/><line x1="301.64" y1="267.32" x2="289.71" y2="236.89"/><line x1="290.49" y1="249.66" x2="289.74" y2="245.47"/><line x1="301.64" y1="267.32" x2="310.56" y2="207.66"/><line x1="373.31" y1="234.75" x2="375.28" y2="233.54"/><line x1="294.75" y1="221.90" x2="297.06" y2="218.58"/><line x1="370.98" y1="235.51" x2="386.08" y2="264.40"/><line x1="379.56" y1="224.06" x2="379.74" y2="220.54"/><line x1="354.69" y1="278.08" x2="361.60" y2="276.56"/><line x1="405.85" y1="201.07" x2="376.58" y2="205.48"/><line x1="292.87" y1="355.08" x2="364.07" y2="318.07"/><line x1="480.00" y1="32.02" x2="447.51" y2="32.02"/><line x1="289.71" y1="236.89" x2="290.34" y2="232.89"/><line x1="369.56" y1="231.24" x2="370.98" y2="235.51"/><line x1="326.77" y1="278.32" x2="333.14" y2="279.05"/><line x1="343.28" y1="179.73" x2="338.07" y2="178.56"/><line x1="361.60" y1="276.56" x2="368.19" y2="274.43"/><line x1="258.33" y1="346.69" x2="292.22" y2="329.56"/><line x1="382.54" y1="164.27" x2="357.95" y2="186.04"/><line x1="238.23" y1="177.62" x2="235.00" y2="321.55"/><line x1="301.64" y1="267.32" x2="291.39" y2="229.05"/><line x1="370.98" y1="235.51" x2="339.95" y2="279.30"/><line x1="301.64" y1="267.32" x2="305.78" y2="270.50"/><line x1="314.71" y1="206.02" x2="305.78" y2="270.50"/><line x1="391.88" y1="259.32" x2="396.78" y2="253.74"/><line x1="297.06" y1="218.58" x2="299.80" y2="215.42"/><line x1="354.20" y1="147.11" x2="343.06" y2="143.47"/><line x1="407.48" y1="226.42" x2="407.93" y2="218.33"/><line x1="357.95" y1="186.04" x2="373.94" y2="157.51"/><line x1="319.14" y1="204.84" x2="323.86" y2="204.14"/><line x1="299.80" y1="215.42" x2="303.10" y2="212.36"/><line x1="290.34" y1="232.89" x2="291.39" y2="229.05"/><line x1="403.91" y1="241.08" x2="406.14" y2="234.00"/><line x1="305.78" y1="270.50" x2="319.14" y2="204.84"/><line x1="367.09" y1="192.79" x2="389.28" y2="170.90"/><line x1="292.22" y1="329.56" x2="268.60" y2="351.35"/><line x1="238.23" y1="177.62" x2="249.31" y2="340.17"/><line x1="367.39" y1="317.77" x2="367.91" y2="317.76"/><line x1="298.43" y1="264.22" x2="289.50" y2="241.06"/><line x1="303.10" y1="212.36" x2="306.69" y2="209.78"/><line x1="301.64" y1="267.32" x2="294.75" y2="221.90"/><line x1="370.98" y1="235.51" x2="354.69" y2="278.08"/><line x1="332.84" y1="204.06" x2="336.70" y2="204.52"/><line x1="339.95" y1="279.30" x2="347.47" y2="278.99"/><line x1="375.28" y1="233.54" x2="396.78" y2="253.74"/><line x1="365.20" y1="317.92" x2="365.75" y2="317.86"/><line x1="32.00" y1="479.98" x2="64.49" y2="479.98"/><line x1="326.77" y1="278.32" x2="354.23" y2="211.53"/><line x1="380.43" y1="268.35" x2="386.08" y2="264.40"/><line x1="320.85" y1="277.09" x2="340.45" y2="205.30"/><line x1="379.03" y1="227.12" x2="379.56" y2="224.06"/><line x1="389.28" y1="170.90" x2="362.52" y2="189.08"/><line x1="304.55" y1="138.78" x2="125.91" y2="177.62"/><line x1="376.58" y1="205.48" x2="374.12" y2="200.99"/><line x1="338.07" y1="178.56" x2="343.06" y2="143.47"/><line x1="292.22" y1="329.56" x2="292.87" y2="355.08"/><line x1="407.93" y1="218.33" x2="407.41" y2="209.52"/><line x1="64.64" y1="32.09" x2="32.16" y2="64.58"/><line x1="238.23" y1="177.62" x2="292.22" y2="329.56"/><line x1="292.87" y1="355.08" x2="391.88" y2="335.51"/><line x1="323.86" y1="204.14" x2="328.85" y2="203.90"/><line x1="306.69" y1="209.78" x2="310.56" y2="207.66"/><line x1="301.64" y1="267.32" x2="299.80" y2="215.42"/><line x1="379.39" y1="215.26" x2="378.34" y2="210.24"/><line x1="370.98" y1="235.51" x2="368.19" y2="274.43"/><line x1="364.50" y1="151.79" x2="348.34" y2="181.36"/><line x1="406.14" y1="234.00" x2="407.48" y2="226.42"/><line x1="362.52" y1="189.08" x2="382.54" y2="164.27"/><line x1="365.75" y1="317.86" x2="366.31" y2="317.81"/><line x1="333.14" y1="279.05" x2="370.98" y2="235.51"/><line x1="293.46" y1="257.38" x2="291.73" y2="253.63"/><line x1="310.56" y1="207.66" x2="314.71" y2="206.02"/><line x1="326.77" y1="278.32" x2="360.61" y2="216.98"/><line x1="400.79" y1="247.66" x2="403.91" y2="241.08"/><line x1="386.08" y1="264.40" x2="373.31" y2="234.75"/><line x1="320.85" y1="277.09" x2="347.58" y2="207.80"/><line x1="407.41" y1="209.52" x2="405.85" y2="201.07"/><line x1="370.96" y1="196.76" x2="394.97" y2="177.90"/><line x1="304.55" y1="138.78" x2="182.87" y2="177.62"/><line x1="292.87" y1="355.08" x2="374.53" y2="318.80"/><line x1="374.53" y1="318.80" x2="377.64" y2="320.10"/><line x1="366.31" y1="317.81" x2="366.85" y2="317.78"/><line x1="292.87" y1="355.08" x2="395.20" y2="342.11"/><line x1="366.85" y1="317.78" x2="367.39" y2="317.77"/><line x1="301.64" y1="267.32" x2="306.69" y2="209.78"/><line x1="373.31" y1="234.75" x2="391.88" y2="259.32"/><line x1="364.50" y1="151.79" x2="354.20" y2="147.11"/><line x1="327.14" y1="177.62" x2="318.24" y2="139.30"/><line x1="348.34" y1="181.36" x2="343.28" y2="179.73"/><line x1="364.07" y1="318.07" x2="364.64" y2="317.99"/><line x1="374.12" y1="200.99" x2="370.96" y2="196.76"/><line x1="480.00" y1="32.02" x2="480.00" y2="64.50"/><line x1="368.19" y1="274.43" x2="374.47" y2="271.69"/><line x1="289.50" y1="241.06" x2="289.71" y2="236.89"/><line x1="315.39" y1="275.39" x2="328.85" y2="203.90"/><line x1="326.77" y1="278.32" x2="365.73" y2="223.55"/><line x1="292.87" y1="355.08" x2="365.20" y2="317.92"/><line x1="378.34" y1="210.24" x2="376.58" y2="205.48"/><line x1="343.28" y1="179.73" x2="354.20" y2="147.11"/><line x1="377.64" y1="320.10" x2="380.63" y2="321.94"/><line x1="238.23" y1="177.62" x2="229.72" y2="309.44"/><line x1="292.87" y1="355.08" x2="380.63" y2="321.94"/><line x1="292.87" y1="355.08" x2="398.79" y2="350.34"/><line x1="480.00" y1="479.91" x2="480.00" y2="447.42"/><line x1="301.64" y1="267.32" x2="290.34" y2="232.89"/><line x1="328.85" y1="203.90" x2="332.84" y2="204.06"/><line x1="379.74" y1="220.54" x2="379.39" y2="215.26"/><line x1="373.94" y1="157.51" x2="353.23" y2="183.47"/><line x1="378.13" y1="229.72" x2="403.91" y2="241.08"/><line x1="301.64" y1="267.32" x2="314.71" y2="206.02"/><line x1="327.14" y1="177.62" x2="238.23" y2="177.62"/><line x1="391.88" y1="259.32" x2="375.28" y2="233.54"/><line x1="380.63" y1="321.94" x2="383.49" y2="324.29"/><line x1="295.70" y1="260.91" x2="298.43" y2="264.22"/><line x1="319.14" y1="204.84" x2="310.36" y2="273.18"/><line x1="347.58" y1="207.80" x2="350.96" y2="209.51"/><line x1="480.00" y1="64.50" x2="447.51" y2="32.02"/><line x1="315.39" y1="275.39" x2="320.85" y2="277.09"/><line x1="374.47" y1="271.69" x2="380.43" y2="268.35"/><line x1="403.91" y1="241.08" x2="379.03" y2="227.12"/><line x1="367.91" y1="317.76" x2="371.28" y2="318.02"/><line x1="331.07" y1="140.87" x2="318.24" y2="139.30"/><line x1="292.87" y1="355.08" x2="366.31" y2="317.81"/><line x1="292.87" y1="355.08" x2="386.23" y2="327.16"/><line x1="382.54" y1="164.27" x2="373.94" y2="157.51"/><line x1="238.23" y1="177.62" x2="241.53" y2="331.79"/><line x1="32.16" y1="32.09" x2="64.64" y2="32.09"/><line x1="447.51" y1="479.91" x2="480.00" y2="447.42"/><line x1="396.78" y1="253.74" x2="376.88" y2="231.86"/><line x1="301.64" y1="267.32" x2="292.86" y2="225.39"/><line x1="332.84" y1="204.06" x2="320.85" y2="277.09"/><line x1="353.23" y1="183.47" x2="364.50" y2="151.79"/><line x1="314.71" y1="206.02" x2="319.14" y2="204.84"/><line x1="394.97" y1="177.90" x2="389.28" y2="170.90"/><line x1="318.24" y1="139.30" x2="304.55" y2="138.78"/><line x1="32.00" y1="479.98" x2="32.00" y2="447.50"/><line x1="289.74" y1="245.47" x2="289.50" y2="241.06"/><line x1="310.36" y1="273.18" x2="323.86" y2="204.14"/><line x1="403.26" y1="192.98" x2="399.63" y2="185.26"/><line x1="326.77" y1="278.32" x2="350.96" y2="209.51"/><line x1="343.06" y1="143.47" x2="332.69" y2="177.86"/><line x1="379.03" y1="227.12" x2="406.14" y2="234.00"/><line x1="292.87" y1="355.08" x2="367.39" y2="317.77"/><line x1="371.28" y1="318.02" x2="374.53" y2="318.80"/><line x1="395.20" y1="342.11" x2="396.95" y2="346.02"/><line x1="292.22" y1="329.56" x2="280.11" y2="354.15"/><line x1="336.70" y1="204.52" x2="340.45" y2="205.30"/><line x1="386.23" y1="327.16" x2="388.84" y2="330.56"/><line x1="292.87" y1="355.08" x2="390.32" y2="332.83"/><line x1="298.43" y1="264.22" x2="301.64" y2="267.32"/><line x1="323.86" y1="204.14" x2="315.39" y2="275.39"/><line x1="365.73" y1="223.55" x2="367.80" y2="227.26"/><line x1="376.88" y1="231.86" x2="400.79" y2="247.66"/><line x1="301.64" y1="267.32" x2="297.06" y2="218.58"/><line x1="379.39" y1="215.26" x2="407.41" y2="209.52"/><line x1="388.84" y1="330.56" x2="390.32" y2="332.83"/><line x1="290.49" y1="249.66" x2="295.70" y2="260.91"/><line x1="32.00" y1="447.50" x2="64.49" y2="479.98"/><line x1="370.98" y1="235.51" x2="380.43" y2="268.35"/></g></svg>