<svg xmlns="http://www.w3.org/2000/svg" width="512" height="512"><rect width="512" height="512" fill="#0a0f1a"/><text x="12" y="20" font-family="monospace" font-size="11" fill="#4a7fa5">FRONT (XZ)</text><g stroke="#00d4ff" stroke-width="0.6" opacity="0.85"><line x1="308.60" y1="250.74" x2="340.60" y2="294.53"/><line x1="307.15" y1="207.36" x2="252.99" y2="170.92"/><line x1="308.60" y1="250.74" x2="363.42" y2="272.40"/><line x1="276.02" y1="139.47" x2="272.06" y2="141.58"/><line x1="294.03" y1="135.74" x2="289.21" y2="135.97"/><line x1="204.59" y1="294.53" x2="226.67" y2="355.08"/><line x1="322.37" y1="145.73" x2="318.81" y2="143.04"/><line x1="307.15" y1="207.36" x2="268.31" y2="144.15"/><line x1="289.21" y1="135.97" x2="284.60" y2="136.67"/><line x1="308.60" y1="250.74" x2="352.03" y2="293.08"/><line x1="335.00" y1="172.48" x2="327.26" y2="194.07"/><line x1="307.15" y1="207.36" x2="253.01" y2="179.71"/><line x1="340.60" y1="294.53" x2="346.79" y2="294.17"/><line x1="308.60" y1="250.74" x2="361.83" y2="268.14"/><line x1="480.00" y1="479.91" x2="447.51" y2="479.91"/><line x1="346.79" y1="294.17" x2="352.03" y2="293.08"/><line x1="331.05" y1="188.38" x2="334.84" y2="175.85"/><line x1="264.76" y1="147.18" x2="261.58" y2="150.57"/><line x1="307.15" y1="207.36" x2="261.58" y2="150.57"/><line x1="189.26" y1="250.74" x2="150.32" y2="138.78"/><line x1="325.72" y1="148.91" x2="322.45" y2="199.07"/><line x1="284.60" y1="136.67" x2="280.21" y2="137.84"/><line x1="307.15" y1="207.36" x2="255.06" y2="187.73"/><line x1="311.20" y1="138.93" x2="307.15" y2="137.50"/><line x1="308.60" y1="250.74" x2="359.66" y2="288.76"/><line x1="308.60" y1="250.74" x2="359.18" y2="264.07"/><line x1="302.94" y1="136.49" x2="298.57" y2="135.91"/><line x1="261.58" y1="150.57" x2="258.88" y2="154.18"/><line x1="363.94" y1="276.86" x2="363.81" y2="274.61"/><line x1="352.03" y1="293.08" x2="356.32" y2="291.29"/><line x1="360.64" y1="266.08" x2="359.18" y2="264.07"/><line x1="322.45" y1="199.07" x2="319.77" y2="201.21"/><line x1="307.15" y1="207.36" x2="289.21" y2="135.97"/><line x1="334.84" y1="175.85" x2="329.31" y2="191.27"/><line x1="307.15" y1="207.36" x2="256.67" y2="158.03"/><line x1="363.81" y1="274.61" x2="363.42" y2="272.40"/><line x1="308.60" y1="250.74" x2="363.46" y2="281.55"/><line x1="307.15" y1="207.36" x2="259.16" y2="195.71"/><line x1="334.37" y1="179.13" x2="332.48" y2="185.40"/><line x1="332.68" y1="159.73" x2="330.88" y2="155.91"/><line x1="359.66" y1="288.76" x2="362.04" y2="285.52"/><line x1="32.16" y1="32.09" x2="32.16" y2="64.58"/><line x1="258.88" y1="154.18" x2="256.67" y2="158.03"/><line x1="246.93" y1="250.74" x2="308.60" y2="250.74"/><line x1="332.48" y1="185.40" x2="333.58" y2="182.31"/><line x1="272.06" y1="141.58" x2="268.31" y2="144.15"/><line x1="307.15" y1="207.36" x2="280.21" y2="137.84"/><line x1="253.01" y1="179.71" x2="253.78" y2="183.73"/><line x1="315.09" y1="140.77" x2="311.20" y2="138.93"/><line x1="256.67" y1="158.03" x2="254.95" y2="162.09"/><line x1="307.15" y1="207.36" x2="253.73" y2="166.39"/><line x1="308.60" y1="250.74" x2="363.81" y2="274.61"/><line x1="363.42" y1="272.40" x2="362.75" y2="270.25"/><line x1="307.15" y1="207.36" x2="265.32" y2="203.64"/><line x1="254.95" y1="162.09" x2="253.73" y2="166.39"/><line x1="334.37" y1="179.13" x2="331.05" y2="188.38"/><line x1="319.77" y1="201.21" x2="316.90" y2="203.11"/><line x1="268.31" y1="144.15" x2="264.76" y2="147.18"/><line x1="330.88" y1="155.91" x2="328.56" y2="152.30"/><line x1="362.04" y1="285.52" x2="363.46" y2="281.55"/><line x1="265.32" y1="203.64" x2="308.60" y2="250.74"/><line x1="206.10" y1="138.78" x2="246.93" y2="250.74"/><line x1="362.75" y1="270.25" x2="361.83" y2="268.14"/><line x1="327.26" y1="194.07" x2="334.75" y2="168.01"/><line x1="307.15" y1="207.36" x2="272.06" y2="141.58"/><line x1="328.56" y1="152.30" x2="325.72" y2="148.91"/><line x1="189.26" y1="250.74" x2="165.10" y2="294.53"/><line x1="308.60" y1="250.74" x2="346.79" y2="294.17"/><line x1="253.78" y1="183.73" x2="255.06" y2="187.73"/><line x1="307.15" y1="207.36" x2="252.75" y2="175.68"/><line x1="363.46" y1="281.55" x2="363.94" y2="276.86"/><line x1="480.00" y1="32.02" x2="447.51" y2="32.02"/><line x1="334.75" y1="168.01" x2="333.97" y2="163.76"/><line x1="253.73" y1="166.39" x2="252.99" y2="170.92"/><line x1="255.06" y1="187.73" x2="256.85" y2="191.73"/><line x1="327.26" y1="194.07" x2="332.68" y2="159.73"/><line x1="307.15" y1="207.36" x2="302.94" y2="136.49"/><line x1="252.99" y1="170.92" x2="252.75" y2="175.68"/><line x1="318.81" y1="143.04" x2="316.90" y2="203.11"/><line x1="307.15" y1="207.36" x2="264.76" y2="147.18"/><line x1="189.26" y1="250.74" x2="206.10" y2="138.78"/><line x1="325.72" y1="148.91" x2="324.95" y2="196.69"/><line x1="307.15" y1="207.36" x2="253.78" y2="183.73"/><line x1="313.84" y1="204.77" x2="310.59" y2="206.19"/><line x1="324.95" y1="196.69" x2="322.45" y2="199.07"/><line x1="333.97" y1="163.76" x2="332.68" y2="159.73"/><line x1="260.43" y1="294.53" x2="282.07" y2="355.08"/><line x1="316.90" y1="203.11" x2="313.84" y2="204.77"/><line x1="359.18" y1="264.07" x2="357.47" y2="262.12"/><line x1="329.31" y1="191.27" x2="335.00" y2="172.48"/><line x1="322.45" y1="199.07" x2="322.37" y2="145.73"/><line x1="327.26" y1="194.07" x2="328.56" y2="152.30"/><line x1="307.15" y1="207.36" x2="294.03" y2="135.74"/><line x1="252.75" y1="175.68" x2="253.01" y2="179.71"/><line x1="318.81" y1="143.04" x2="315.09" y2="140.77"/><line x1="307.15" y1="207.36" x2="258.88" y2="154.18"/><line x1="165.10" y1="294.53" x2="204.59" y2="294.53"/><line x1="189.26" y1="250.74" x2="246.93" y2="250.74"/><line x1="325.72" y1="148.91" x2="322.37" y2="145.73"/><line x1="32.00" y1="479.98" x2="64.49" y2="479.98"/><line x1="307.15" y1="207.36" x2="256.85" y2="191.73"/><line x1="261.98" y1="199.68" x2="265.32" y2="203.64"/><line x1="260.43" y1="294.53" x2="340.60" y2="294.53"/><line x1="64.64" y1="32.09" x2="32.16" y2="64.58"/><line x1="310.59" y1="206.19" x2="307.15" y2="207.36"/><line x1="204.59" y1="294.53" x2="260.43" y2="294.53"/><line x1="322.37" y1="145.73" x2="319.77" y2="201.21"/><line x1="327.26" y1="194.07" x2="324.95" y2="196.69"/><line x1="307.15" y1="207.36" x2="284.60" y2="136.67"/><line x1="307.15" y1="207.36" x2="254.95" y2="162.09"/><line x1="334.37" y1="179.13" x2="333.58" y2="182.31"/><line x1="319.77" y1="201.21" x2="318.81" y2="143.04"/><line x1="308.60" y1="250.74" x2="362.75" y2="270.25"/><line x1="361.83" y1="268.14" x2="360.64" y2="266.08"/><line x1="307.15" y1="207.36" x2="308.60" y2="250.74"/><line x1="307.15" y1="207.36" x2="276.02" y2="139.47"/><line x1="189.26" y1="250.74" x2="149.17" y2="250.74"/><line x1="480.00" y1="32.02" x2="480.00" y2="64.50"/><line x1="256.85" y1="191.73" x2="259.16" y2="195.71"/><line x1="335.00" y1="172.48" x2="334.75" y2="168.01"/><line x1="311.20" y1="138.93" x2="307.15" y2="207.36"/><line x1="334.37" y1="179.13" x2="334.84" y2="175.85"/><line x1="308.60" y1="250.74" x2="356.32" y2="291.29"/><line x1="308.60" y1="250.74" x2="360.64" y2="266.08"/><line x1="480.00" y1="479.91" x2="480.00" y2="447.42"/><line x1="327.26" y1="194.07" x2="333.97" y2="163.76"/><line x1="307.15" y1="207.36" x2="307.15" y2="137.50"/><line x1="246.93" y1="250.74" x2="260.43" y2="294.53"/><line x1="189.26" y1="250.74" x2="204.59" y2="294.53"/><line x1="149.17" y1="250.74" x2="165.10" y2="294.53"/><line x1="331.05" y1="188.38" x2="329.31" y2="191.27"/><line x1="313.84" y1="204.77" x2="315.09" y2="140.77"/><line x1="308.60" y1="250.74" x2="362.04" y2="285.52"/><line x1="480.00" y1="64.50" x2="447.51" y2="32.02"/><line x1="259.16" y1="195.71" x2="261.98" y2="199.68"/><line x1="260.43" y1="294.53" x2="226.67" y2="355.08"/><line x1="308.60" y1="250.74" x2="357.47" y2="262.12"/><line x1="32.16" y1="32.09" x2="64.64" y2="32.09"/><line x1="447.51" y1="479.91" x2="480.00" y2="447.42"/><line x1="327.26" y1="194.07" x2="330.88" y2="155.91"/><line x1="307.15" y1="207.36" x2="298.57" y2="135.91"/><line x1="307.15" y1="137.50" x2="302.94" y2="136.49"/><line x1="318.81" y1="143.04" x2="313.84" y2="204.77"/><line x1="32.00" y1="479.98" x2="32.00" y2="447.50"/><line x1="334.84" y1="175.85" x2="335.00" y2="172.48"/><line x1="315.09" y1="140.77" x2="310.59" y2="206.19"/><line x1="280.21" y1="137.84" x2="276.02" y2="139.47"/><line x1="308.60" y1="250.74" x2="363.94" y2="276.86"/><line x1="307.15" y1="207.36" x2="261.98" y2="199.68"/><line x1="260.43" y1="294.53" x2="308.60" y2="250.74"/><line x1="226.67" y1="355.08" x2="282.07" y2="355.08"/><line x1="298.57" y1="135.91" x2="294.03" y2="135.74"/><line x1="329.31" y1="191.27" x2="327.26" y2="194.07"/><line x1="310.59" y1="206.19" x2="311.20" y2="138.93"/><line x1="204.59" y1="294.53" x2="246.93" y2="250.74"/><line x1="307.15" y1="207.36" x2="357.47" y2="262.12"/><line x1="206.10" y1="138.78" x2="150.32" y2="138.78"/><line x1="327.26" y1="194.07" x2="325.72" y2="148.91"/><line x1="356.32" y1="291.29" x2="359.66" y2="288.76"/><line x1="332.48" y1="185.40" x2="331.05" y2="188.38"/><line x1="32.00" y1="447.50" x2="64.49" y2="479.98"/></g></svg>