<svg xmlns="http://www.w3.org/2000/svg" width="512" height="512"><rect width="512" height="512" fill="#0a0f1a"/><text x="12" y="20" font-family="monospace" font-size="11" fill="#4a7fa5">FRONT (XZ)</text><g stroke="#00d4ff" stroke-width="0.6" opacity="0.85"><line x1="344.71" y1="214.82" x2="283.22" y2="214.38"/><line x1="255.32" y1="259.05" x2="259.01" y2="257.80"/><line x1="264.00" y1="286.15" x2="255.32" y2="259.05"/><line x1="340.28" y1="240.77" x2="342.74" y2="232.68"/><line x1="265.84" y1="254.04" x2="282.61" y2="284.44"/><line x1="233.90" y1="166.12" x2="230.90" y2="170.50"/><line x1="235.02" y1="228.60" x2="171.40" y2="242.47"/><line x1="237.06" y1="137.29" x2="252.39" y2="160.95"/><line x1="274.37" y1="182.99" x2="298.02" y2="143.64"/><line x1="234.41" y1="327.13" x2="223.98" y2="319.04"/><line x1="187.13" y1="278.54" x2="239.49" y2="239.90"/><line x1="282.70" y1="227.27" x2="283.23" y2="223.43"/><line x1="205.10" y1="301.40" x2="246.53" y2="253.30"/><line x1="278.79" y1="193.58" x2="276.76" y2="188.30"/><line x1="252.39" y1="160.95" x2="248.03" y2="160.49"/><line x1="282.80" y1="354.69" x2="269.71" y2="348.53"/><line x1="264.00" y1="286.15" x2="214.21" y2="310.46"/><line x1="237.23" y1="234.48" x2="175.14" y2="254.73"/><line x1="336.73" y1="179.56" x2="332.24" y2="171.97"/><line x1="264.28" y1="167.83" x2="260.52" y2="164.62"/><line x1="285.93" y1="315.57" x2="257.28" y2="341.88"/><line x1="283.22" y1="214.38" x2="344.21" y2="205.27"/><line x1="237.06" y1="137.29" x2="242.46" y2="161.12"/><line x1="280.56" y1="234.70" x2="332.39" y2="255.28"/><line x1="169.15" y1="229.96" x2="168.40" y2="217.22"/><line x1="277.55" y1="305.76" x2="270.23" y2="295.96"/><line x1="274.37" y1="182.99" x2="280.87" y2="138.17"/><line x1="282.61" y1="284.44" x2="291.19" y2="282.51"/><line x1="480.00" y1="479.91" x2="447.51" y2="479.91"/><line x1="262.52" y1="256.13" x2="265.84" y2="254.04"/><line x1="276.99" y1="241.81" x2="278.96" y2="238.30"/><line x1="344.21" y1="205.27" x2="282.67" y2="209.23"/><line x1="227.05" y1="191.16" x2="227.21" y2="195.69"/><line x1="231.12" y1="216.54" x2="229.65" y2="210.93"/><line x1="198.92" y1="150.03" x2="230.90" y2="170.50"/><line x1="176.03" y1="176.68" x2="227.05" y2="191.16"/><line x1="305.93" y1="335.14" x2="295.40" y2="325.35"/><line x1="237.23" y1="234.48" x2="235.02" y2="228.60"/><line x1="241.79" y1="244.84" x2="239.49" y2="239.90"/><line x1="230.90" y1="170.50" x2="228.76" y2="176.13"/><line x1="313.32" y1="152.53" x2="305.90" y2="147.66"/><line x1="232.91" y1="222.44" x2="231.12" y2="216.54"/><line x1="273.56" y1="285.66" x2="282.61" y2="284.44"/><line x1="216.08" y1="141.92" x2="237.75" y2="162.99"/><line x1="280.45" y1="198.83" x2="332.24" y2="171.97"/><line x1="282.67" y1="209.23" x2="342.72" y2="196.22"/><line x1="198.92" y1="150.03" x2="185.57" y2="161.62"/><line x1="342.74" y1="232.68" x2="344.22" y2="224.03"/><line x1="276.76" y1="188.30" x2="313.32" y2="152.53"/><line x1="251.43" y1="259.88" x2="248.95" y2="256.82"/><line x1="295.40" y1="325.35" x2="269.71" y2="348.53"/><line x1="268.98" y1="251.53" x2="291.19" y2="282.51"/><line x1="281.80" y1="231.02" x2="282.70" y2="227.27"/><line x1="283.41" y1="219.50" x2="344.71" y2="214.82"/><line x1="332.24" y1="171.97" x2="326.75" y2="164.87"/><line x1="175.14" y1="254.73" x2="171.40" y2="242.47"/><line x1="278.96" y1="238.30" x2="280.56" y2="234.70"/><line x1="228.76" y1="176.13" x2="185.57" y2="161.62"/><line x1="317.55" y1="344.92" x2="282.80" y2="354.69"/><line x1="320.57" y1="267.55" x2="326.98" y2="261.69"/><line x1="270.23" y1="295.96" x2="234.41" y2="327.13"/><line x1="340.22" y1="187.64" x2="281.74" y2="204.04"/><line x1="180.39" y1="266.75" x2="237.23" y2="234.48"/><line x1="32.16" y1="32.09" x2="32.16" y2="64.58"/><line x1="216.08" y1="141.92" x2="198.92" y2="150.03"/><line x1="336.83" y1="248.30" x2="340.28" y2="240.77"/><line x1="237.75" y1="162.99" x2="233.90" y2="166.12"/><line x1="280.45" y1="198.83" x2="278.79" y2="193.58"/><line x1="227.21" y1="195.69" x2="168.40" y2="217.22"/><line x1="282.67" y1="209.23" x2="281.74" y2="204.04"/><line x1="185.57" y1="161.62" x2="227.47" y2="183.02"/><line x1="282.80" y1="354.69" x2="330.24" y2="354.69"/><line x1="261.86" y1="136.12" x2="267.84" y2="171.97"/><line x1="227.47" y1="183.02" x2="176.03" y2="176.68"/><line x1="291.19" y1="282.51" x2="271.92" y2="248.60"/><line x1="233.90" y1="166.12" x2="198.92" y2="150.03"/><line x1="256.55" y1="162.33" x2="252.39" y2="160.95"/><line x1="326.75" y1="164.87" x2="278.79" y2="193.58"/><line x1="317.55" y1="344.92" x2="305.93" y2="335.14"/><line x1="320.27" y1="158.25" x2="313.32" y2="152.53"/><line x1="282.61" y1="284.44" x2="268.98" y2="251.53"/><line x1="234.41" y1="327.13" x2="264.00" y2="286.15"/><line x1="281.74" y1="204.04" x2="336.73" y2="179.56"/><line x1="231.12" y1="216.54" x2="169.15" y2="229.96"/><line x1="282.70" y1="227.27" x2="342.74" y2="232.68"/><line x1="278.79" y1="193.58" x2="320.27" y2="158.25"/><line x1="168.40" y1="217.22" x2="227.70" y2="200.50"/><line x1="257.28" y1="341.88" x2="277.55" y2="305.76"/><line x1="282.80" y1="354.69" x2="295.40" y2="325.35"/><line x1="251.43" y1="259.88" x2="255.32" y2="259.05"/><line x1="171.40" y1="242.47" x2="232.91" y2="222.44"/><line x1="264.00" y1="286.15" x2="223.98" y2="319.04"/><line x1="336.73" y1="179.56" x2="280.45" y2="198.83"/><line x1="344.71" y1="214.82" x2="344.21" y2="205.27"/><line x1="306.86" y1="276.47" x2="276.99" y2="241.81"/><line x1="261.86" y1="136.12" x2="260.52" y2="164.62"/><line x1="237.06" y1="137.29" x2="248.03" y2="160.49"/><line x1="227.70" y1="200.50" x2="228.51" y2="205.58"/><line x1="480.00" y1="32.02" x2="447.51" y2="32.02"/><line x1="277.55" y1="305.76" x2="245.51" y2="334.75"/><line x1="271.92" y1="248.60" x2="274.68" y2="245.24"/><line x1="313.96" y1="272.37" x2="320.57" y2="267.55"/><line x1="276.99" y1="241.81" x2="313.96" y2="272.37"/><line x1="227.05" y1="191.16" x2="170.31" y2="195.22"/><line x1="274.37" y1="182.99" x2="261.86" y2="136.12"/><line x1="298.02" y1="143.64" x2="289.68" y2="140.49"/><line x1="299.27" y1="279.85" x2="274.68" y2="245.24"/><line x1="246.53" y1="253.30" x2="195.37" y2="290.08"/><line x1="229.65" y1="210.93" x2="168.40" y2="217.22"/><line x1="261.86" y1="136.12" x2="237.06" y2="137.29"/><line x1="332.39" y1="255.28" x2="336.83" y2="248.30"/><line x1="223.98" y1="319.04" x2="214.21" y2="310.46"/><line x1="283.22" y1="214.38" x2="282.67" y2="209.23"/><line x1="289.68" y1="140.49" x2="280.87" y2="138.17"/><line x1="244.13" y1="249.30" x2="187.13" y2="278.54"/><line x1="237.06" y1="137.29" x2="216.08" y2="141.92"/><line x1="214.21" y1="310.46" x2="251.43" y2="259.88"/><line x1="245.51" y1="334.75" x2="270.23" y2="295.96"/><line x1="264.00" y1="286.15" x2="273.56" y2="285.66"/><line x1="169.15" y1="229.96" x2="229.65" y2="210.93"/><line x1="195.37" y1="290.08" x2="244.13" y2="249.30"/><line x1="283.23" y1="223.43" x2="283.41" y2="219.50"/><line x1="313.32" y1="152.53" x2="274.37" y2="182.99"/><line x1="170.31" y1="195.22" x2="227.21" y2="195.69"/><line x1="198.92" y1="150.03" x2="228.76" y2="176.13"/><line x1="269.71" y1="348.53" x2="285.93" y2="315.57"/><line x1="251.43" y1="259.88" x2="205.10" y2="301.40"/><line x1="259.01" y1="257.80" x2="262.52" y2="256.13"/><line x1="299.27" y1="279.85" x2="306.86" y2="276.47"/><line x1="171.40" y1="242.47" x2="169.15" y2="229.96"/><line x1="242.46" y1="161.12" x2="237.75" y2="162.99"/><line x1="281.80" y1="231.02" x2="336.83" y2="248.30"/><line x1="229.65" y1="210.93" x2="228.51" y2="205.58"/><line x1="32.00" y1="479.98" x2="64.49" y2="479.98"/><line x1="320.57" y1="267.55" x2="280.56" y2="234.70"/><line x1="344.22" y1="224.03" x2="344.71" y2="214.82"/><line x1="274.37" y1="182.99" x2="305.90" y2="147.66"/><line x1="216.08" y1="141.92" x2="233.90" y2="166.12"/><line x1="280.45" y1="198.83" x2="326.75" y2="164.87"/><line x1="260.52" y1="164.62" x2="256.55" y2="162.33"/><line x1="282.67" y1="209.23" x2="340.22" y2="187.64"/><line x1="64.64" y1="32.09" x2="32.16" y2="64.58"/><line x1="205.10" y1="301.40" x2="248.95" y2="256.82"/><line x1="261.86" y1="136.12" x2="271.20" y2="177.01"/><line x1="239.49" y1="239.90" x2="237.23" y2="234.48"/><line x1="274.68" y1="245.24" x2="276.99" y2="241.81"/><line x1="283.41" y1="219.50" x2="283.22" y2="214.38"/><line x1="268.98" y1="251.53" x2="271.92" y2="248.60"/><line x1="305.90" y1="147.66" x2="298.02" y2="143.64"/><line x1="228.76" y1="176.13" x2="227.47" y2="183.02"/><line x1="291.19" y1="282.51" x2="299.27" y2="279.85"/><line x1="317.55" y1="344.92" x2="330.24" y2="354.69"/><line x1="248.95" y1="256.82" x2="246.53" y2="253.30"/><line x1="265.84" y1="254.04" x2="268.98" y2="251.53"/><line x1="340.22" y1="187.64" x2="336.73" y2="179.56"/><line x1="280.56" y1="234.70" x2="326.98" y2="261.69"/><line x1="180.39" y1="266.75" x2="175.14" y2="254.73"/><line x1="320.27" y1="158.25" x2="276.76" y2="188.30"/><line x1="274.37" y1="182.99" x2="289.68" y2="140.49"/><line x1="273.56" y1="285.66" x2="265.84" y2="254.04"/><line x1="187.13" y1="278.54" x2="180.39" y2="266.75"/><line x1="205.10" y1="301.40" x2="195.37" y2="290.08"/><line x1="326.98" y1="261.69" x2="332.39" y2="255.28"/><line x1="261.86" y1="136.12" x2="264.28" y2="167.83"/><line x1="227.47" y1="183.02" x2="227.05" y2="191.16"/><line x1="271.20" y1="177.01" x2="267.84" y2="171.97"/><line x1="326.75" y1="164.87" x2="320.27" y2="158.25"/><line x1="264.00" y1="286.15" x2="251.43" y2="259.88"/><line x1="480.00" y1="32.02" x2="480.00" y2="64.50"/><line x1="313.96" y1="272.37" x2="278.96" y2="238.30"/><line x1="285.93" y1="315.57" x2="277.55" y2="305.76"/><line x1="264.00" y1="286.15" x2="259.01" y2="257.80"/><line x1="271.92" y1="248.60" x2="299.27" y2="279.85"/><line x1="235.02" y1="228.60" x2="232.91" y2="222.44"/><line x1="280.56" y1="234.70" x2="281.80" y2="231.02"/><line x1="281.74" y1="204.04" x2="280.45" y2="198.83"/><line x1="267.84" y1="171.97" x2="264.28" y2="167.83"/><line x1="274.37" y1="182.99" x2="271.60" y2="136.72"/><line x1="168.40" y1="217.22" x2="228.51" y2="205.58"/><line x1="480.00" y1="479.91" x2="480.00" y2="447.42"/><line x1="257.28" y1="341.88" x2="245.51" y2="334.75"/><line x1="344.21" y1="205.27" x2="342.72" y2="196.22"/><line x1="280.87" y1="138.17" x2="271.60" y2="136.72"/><line x1="342.74" y1="232.68" x2="283.23" y2="223.43"/><line x1="171.40" y1="242.47" x2="231.12" y2="216.54"/><line x1="261.86" y1="136.12" x2="256.55" y2="162.33"/><line x1="332.39" y1="255.28" x2="281.80" y2="231.02"/><line x1="306.86" y1="276.47" x2="313.96" y2="272.37"/><line x1="176.03" y1="176.68" x2="170.31" y2="195.22"/><line x1="175.14" y1="254.73" x2="235.02" y2="228.60"/><line x1="480.00" y1="64.50" x2="447.51" y2="32.02"/><line x1="278.96" y1="238.30" x2="320.57" y2="267.55"/><line x1="283.23" y1="223.43" x2="344.22" y2="224.03"/><line x1="248.03" y1="160.49" x2="242.46" y2="161.12"/><line x1="274.37" y1="182.99" x2="271.20" y2="177.01"/><line x1="32.16" y1="32.09" x2="64.64" y2="32.09"/><line x1="195.37" y1="290.08" x2="187.13" y2="278.54"/><line x1="447.51" y1="479.91" x2="480.00" y2="447.42"/><line x1="336.83" y1="248.30" x2="282.70" y2="227.27"/><line x1="259.01" y1="257.80" x2="273.56" y2="285.66"/><line x1="239.49" y1="239.90" x2="180.39" y2="266.75"/><line x1="271.60" y1="136.72" x2="261.86" y2="136.12"/><line x1="246.53" y1="253.30" x2="244.13" y2="249.30"/><line x1="276.76" y1="188.30" x2="274.37" y2="182.99"/><line x1="242.46" y1="161.12" x2="216.08" y2="141.92"/><line x1="32.00" y1="479.98" x2="32.00" y2="447.50"/><line x1="244.13" y1="249.30" x2="241.79" y2="244.84"/><line x1="295.40" y1="325.35" x2="285.93" y2="315.57"/><line x1="214.21" y1="310.46" x2="205.10" y2="301.40"/><line x1="256.55" y1="162.33" x2="237.06" y2="137.29"/><line x1="245.51" y1="334.75" x2="234.41" y2="327.13"/><line x1="344.22" y1="224.03" x2="283.41" y2="219.50"/><line x1="270.23" y1="295.96" x2="264.00" y2="286.15"/><line x1="273.56" y1="285.66" x2="262.52" y2="256.13"/><line x1="170.31" y1="195.22" x2="168.40" y2="217.22"/><line x1="269.71" y1="348.53" x2="257.28" y2="341.88"/><line x1="187.13" y1="278.54" x2="241.79" y2="244.84"/><line x1="282.70" y1="227.27" x2="340.28" y2="240.77"/><line x1="227.21" y1="195.69" x2="227.70" y2="200.50"/><line x1="342.72" y1="196.22" x2="340.22" y2="187.64"/><line x1="274.68" y1="245.24" x2="306.86" y2="276.47"/><line x1="185.57" y1="161.62" x2="176.03" y2="176.68"/><line x1="282.80" y1="354.69" x2="305.93" y2="335.14"/><line x1="32.00" y1="447.50" x2="64.49" y2="479.98"/></g></svg>