<svg xmlns="http://www.w3.org/2000/svg" width="512" height="512"><rect width="512" height="512" fill="#0a0f1a"/><text x="12" y="20" font-family="monospace" font-size="11" fill="#4a7fa5">FRONT (XZ)</text><g stroke="#00d4ff" stroke-width="0.6" opacity="0.85"><line x1="228.29" y1="260.29" x2="157.39" y2="240.48"/><line x1="212.45" y1="215.32" x2="211.12" y2="214.00"/><line x1="129.18" y1="221.04" x2="127.66" y2="219.32"/><line x1="241.48" y1="355.02" x2="249.16" y2="318.19"/><line x1="246.71" y1="254.89" x2="243.39" y2="224.65"/><line x1="263.10" y1="322.20" x2="260.53" y2="321.75"/><line x1="127.66" y1="219.32" x2="126.19" y2="217.53"/><line x1="108.74" y1="168.26" x2="108.85" y2="165.11"/><line x1="152.55" y1="318.16" x2="149.98" y2="314.14"/><line x1="243.39" y1="224.65" x2="242.60" y2="255.33"/><line x1="238.91" y1="255.96" x2="235.64" y2="256.77"/><line x1="108.85" y1="165.11" x2="109.18" y2="162.10"/><line x1="222.58" y1="273.83" x2="137.75" y2="280.69"/><line x1="156.88" y1="239.47" x2="206.54" y2="207.75"/><line x1="197.14" y1="175.37" x2="110.04" y2="180.21"/><line x1="120.76" y1="209.65" x2="197.25" y2="181.68"/><line x1="246.40" y1="355.08" x2="258.07" y2="321.22"/><line x1="197.14" y1="175.37" x2="108.85" y2="165.11"/><line x1="226.96" y1="354.25" x2="241.64" y2="313.69"/><line x1="235.64" y1="256.77" x2="232.66" y2="223.85"/><line x1="137.75" y1="280.69" x2="137.47" y2="278.96"/><line x1="197.25" y1="181.68" x2="119.52" y2="207.50"/><line x1="140.38" y1="291.67" x2="139.84" y2="289.83"/><line x1="232.66" y1="223.85" x2="232.78" y2="257.75"/><line x1="178.46" y1="128.14" x2="257.19" y2="159.98"/><line x1="201.78" y1="197.63" x2="200.89" y2="195.29"/><line x1="115.76" y1="147.05" x2="117.54" y2="145.02"/><line x1="222.74" y1="270.94" x2="152.02" y2="243.15"/><line x1="136.83" y1="271.32" x2="136.80" y2="267.91"/><line x1="200.89" y1="195.29" x2="154.48" y2="238.38"/><line x1="212.80" y1="352.57" x2="235.40" y2="307.72"/><line x1="200.39" y1="167.42" x2="201.89" y2="165.87"/><line x1="136.80" y1="267.91" x2="137.03" y2="264.72"/><line x1="222.58" y1="273.83" x2="136.93" y2="274.18"/><line x1="197.99" y1="185.89" x2="197.56" y2="183.75"/><line x1="156.88" y1="239.47" x2="202.69" y2="199.87"/><line x1="114.07" y1="195.36" x2="113.14" y2="192.65"/><line x1="197.14" y1="175.37" x2="109.06" y2="173.42"/><line x1="230.34" y1="300.22" x2="229.23" y2="298.07"/><line x1="228.29" y1="260.29" x2="222.07" y2="221.27"/><line x1="197.25" y1="181.68" x2="197.07" y2="179.69"/><line x1="131.68" y1="135.52" x2="134.57" y2="134.36"/><line x1="229.23" y1="298.07" x2="228.17" y2="295.82"/><line x1="178.46" y1="128.14" x2="210.90" y2="161.46"/><line x1="141.84" y1="251.89" x2="143.50" y2="249.91"/><line x1="110.70" y1="183.65" x2="110.36" y2="181.96"/><line x1="222.74" y1="270.94" x2="141.84" y2="251.89"/><line x1="218.50" y1="219.64" x2="216.86" y2="218.69"/><line x1="143.50" y1="249.91" x2="145.36" y2="248.04"/><line x1="253.44" y1="319.89" x2="255.71" y2="320.60"/><line x1="480.00" y1="32.02" x2="447.51" y2="32.02"/><line x1="190.80" y1="346.94" x2="186.70" y2="345.32"/><line x1="404.38" y1="355.08" x2="271.54" y2="323.06"/><line x1="197.99" y1="185.89" x2="132.38" y2="224.29"/><line x1="246.40" y1="355.08" x2="251.26" y2="319.09"/><line x1="224.36" y1="284.86" x2="224.08" y2="283.75"/><line x1="178.46" y1="128.14" x2="200.39" y2="167.42"/><line x1="178.46" y1="128.14" x2="225.35" y2="159.98"/><line x1="115.06" y1="197.99" x2="114.07" y2="195.36"/><line x1="247.15" y1="317.21" x2="245.23" y2="316.13"/><line x1="222.74" y1="270.94" x2="222.58" y2="273.83"/><line x1="222.74" y1="270.94" x2="137.03" y2="264.72"/><line x1="231.51" y1="302.25" x2="230.34" y2="300.22"/><line x1="222.74" y1="270.94" x2="149.62" y2="244.66"/><line x1="223.99" y1="221.95" x2="228.29" y2="260.29"/><line x1="197.56" y1="183.75" x2="123.38" y2="213.74"/><line x1="236.60" y1="354.87" x2="231.76" y2="354.62"/><line x1="128.93" y1="136.79" x2="131.68" y2="135.52"/><line x1="240.51" y1="224.55" x2="237.76" y2="224.38"/><line x1="404.38" y1="355.08" x2="260.53" y2="321.75"/><line x1="199.22" y1="190.44" x2="145.53" y2="233.78"/><line x1="197.99" y1="185.89" x2="126.19" y2="217.53"/><line x1="199.29" y1="349.68" x2="194.99" y2="348.39"/><line x1="213.99" y1="160.81" x2="217.43" y2="160.35"/><line x1="157.39" y1="240.48" x2="156.88" y2="239.47"/><line x1="145.53" y1="233.78" x2="143.46" y2="232.57"/><line x1="111.05" y1="185.27" x2="110.70" y2="183.65"/><line x1="239.97" y1="312.33" x2="238.37" y2="310.89"/><line x1="194.99" y1="348.39" x2="190.80" y2="346.94"/><line x1="246.40" y1="355.08" x2="404.38" y2="355.08"/><line x1="217.43" y1="160.35" x2="221.22" y2="160.08"/><line x1="178.46" y1="128.14" x2="208.13" y2="162.28"/><line x1="110.70" y1="183.65" x2="197.14" y2="175.37"/><line x1="222.20" y1="353.80" x2="217.48" y2="353.24"/><line x1="154.65" y1="129.62" x2="197.14" y2="175.37"/><line x1="224.67" y1="286.00" x2="224.36" y2="284.86"/><line x1="222.74" y1="270.94" x2="140.39" y2="254.04"/><line x1="135.83" y1="227.29" x2="197.99" y2="185.89"/><line x1="253.44" y1="319.89" x2="246.40" y2="355.08"/><line x1="480.00" y1="32.02" x2="480.00" y2="64.50"/><line x1="228.09" y1="223.05" x2="226.00" y2="222.55"/><line x1="288.03" y1="254.52" x2="310.09" y2="323.23"/><line x1="200.02" y1="192.83" x2="199.22" y2="190.44"/><line x1="404.38" y1="355.08" x2="277.75" y2="323.23"/><line x1="197.00" y1="177.79" x2="111.44" y2="186.85"/><line x1="197.99" y1="185.89" x2="134.07" y2="225.82"/><line x1="109.25" y1="174.98" x2="109.06" y2="173.42"/><line x1="480.00" y1="479.91" x2="480.00" y2="447.42"/><line x1="167.98" y1="334.41" x2="164.61" y2="331.60"/><line x1="157.39" y1="240.48" x2="220.24" y2="220.50"/><line x1="157.39" y1="240.48" x2="209.87" y2="212.59"/><line x1="211.12" y1="214.00" x2="209.87" y2="212.59"/><line x1="109.06" y1="173.42" x2="108.92" y2="171.97"/><line x1="249.16" y1="318.19" x2="247.15" y2="317.21"/><line x1="242.60" y1="255.33" x2="238.91" y2="255.96"/><line x1="222.97" y1="278.62" x2="222.83" y2="277.64"/><line x1="198.54" y1="188.12" x2="137.65" y2="228.70"/><line x1="209.87" y1="212.59" x2="208.69" y2="211.08"/><line x1="258.07" y1="321.22" x2="404.38" y2="355.08"/><line x1="178.46" y1="128.14" x2="221.22" y2="160.08"/><line x1="126.19" y1="217.53" x2="197.56" y2="183.75"/><line x1="247.15" y1="317.21" x2="236.60" y2="354.87"/><line x1="447.51" y1="479.91" x2="480.00" y2="447.42"/><line x1="222.74" y1="270.94" x2="136.80" y2="267.91"/><line x1="222.74" y1="270.94" x2="147.39" y2="246.29"/><line x1="197.56" y1="183.75" x2="124.76" y2="215.67"/><line x1="166.16" y1="128.51" x2="170.17" y2="128.30"/><line x1="147.60" y1="309.86" x2="145.40" y2="305.31"/><line x1="240.51" y1="224.55" x2="238.91" y2="255.96"/><line x1="404.38" y1="355.08" x2="263.10" y2="322.20"/><line x1="109.73" y1="159.24" x2="110.50" y2="156.51"/><line x1="198.23" y1="171.05" x2="199.18" y2="169.15"/><line x1="232.78" y1="257.75" x2="228.09" y2="223.05"/><line x1="137.47" y1="278.96" x2="137.24" y2="277.30"/><line x1="157.39" y1="240.48" x2="216.86" y2="218.69"/><line x1="205.55" y1="205.95" x2="204.57" y2="204.03"/><line x1="157.39" y1="240.48" x2="154.61" y2="241.75"/><line x1="251.26" y1="319.09" x2="249.16" y2="318.19"/><line x1="239.97" y1="312.33" x2="222.20" y2="353.80"/><line x1="232.74" y1="304.17" x2="139.33" y2="287.98"/><line x1="331.16" y1="128.14" x2="404.38" y2="355.08"/><line x1="152.15" y1="237.28" x2="149.88" y2="236.14"/><line x1="197.54" y1="173.12" x2="198.23" y2="171.05"/><line x1="208.19" y1="351.77" x2="203.69" y2="350.81"/><line x1="138.08" y1="282.48" x2="222.72" y2="276.67"/><line x1="197.00" y1="177.79" x2="111.83" y2="188.37"/><line x1="310.09" y1="323.23" x2="277.75" y2="323.23"/><line x1="234.03" y1="305.99" x2="232.74" y2="304.17"/><line x1="480.00" y1="479.91" x2="447.51" y2="479.91"/><line x1="157.39" y1="240.48" x2="225.12" y2="263.80"/><line x1="157.39" y1="240.48" x2="211.12" y2="214.00"/><line x1="232.74" y1="304.17" x2="143.40" y2="300.49"/><line x1="232.74" y1="304.17" x2="231.51" y2="302.25"/><line x1="242.60" y1="255.33" x2="240.51" y2="224.55"/><line x1="198.54" y1="188.12" x2="139.53" y2="230.05"/><line x1="109.18" y1="162.10" x2="109.73" y2="159.24"/><line x1="197.07" y1="179.69" x2="197.00" y2="177.79"/><line x1="206.54" y1="207.75" x2="205.55" y2="205.95"/><line x1="138.08" y1="282.48" x2="228.17" y2="295.82"/><line x1="138.08" y1="282.48" x2="223.56" y2="281.62"/><line x1="166.16" y1="128.51" x2="198.23" y2="171.05"/><line x1="138.08" y1="282.48" x2="137.75" y2="280.69"/><line x1="119.52" y1="207.50" x2="118.33" y2="205.27"/><line x1="197.00" y1="177.79" x2="197.14" y2="175.37"/><line x1="255.71" y1="320.60" x2="258.07" y2="321.22"/><line x1="246.40" y1="224.68" x2="243.39" y2="224.65"/><line x1="232.78" y1="257.75" x2="230.31" y2="223.48"/><line x1="157.39" y1="240.48" x2="223.22" y2="268.31"/><line x1="157.39" y1="240.48" x2="222.74" y2="270.94"/><line x1="118.33" y1="205.27" x2="117.19" y2="202.94"/><line x1="251.26" y1="319.09" x2="241.48" y2="355.02"/><line x1="232.74" y1="304.17" x2="186.70" y2="345.32"/><line x1="232.74" y1="304.17" x2="155.31" y2="321.89"/><line x1="232.74" y1="304.17" x2="139.84" y2="289.83"/><line x1="139.33" y1="287.98" x2="138.88" y2="286.14"/><line x1="207.58" y1="209.46" x2="156.88" y2="239.47"/><line x1="230.31" y1="223.48" x2="228.09" y2="223.05"/><line x1="154.48" y1="238.38" x2="152.15" y2="237.28"/><line x1="119.49" y1="143.12" x2="121.60" y2="141.35"/><line x1="158.40" y1="129.17" x2="154.65" y2="129.62"/><line x1="201.89" y1="165.87" x2="203.66" y2="164.50"/><line x1="137.03" y1="264.72" x2="137.50" y2="261.74"/><line x1="152.15" y1="237.28" x2="200.02" y2="192.83"/><line x1="113.14" y1="192.65" x2="197.00" y2="177.79"/><line x1="197.54" y1="173.12" x2="166.16" y2="128.51"/><line x1="208.19" y1="351.77" x2="234.03" y2="305.99"/><line x1="138.08" y1="282.48" x2="225.00" y2="287.17"/><line x1="203.66" y1="164.50" x2="205.72" y2="163.30"/><line x1="138.08" y1="282.48" x2="222.83" y2="277.64"/><line x1="222.07" y1="221.27" x2="157.39" y2="240.48"/><line x1="197.14" y1="175.37" x2="119.49" y2="143.12"/><line x1="197.00" y1="177.79" x2="112.25" y2="189.83"/><line x1="197.14" y1="175.37" x2="144.02" y2="131.51"/><line x1="231.76" y1="354.62" x2="226.96" y2="354.25"/><line x1="310.09" y1="323.23" x2="404.38" y2="355.08"/><line x1="228.17" y1="295.82" x2="227.17" y2="293.45"/><line x1="157.39" y1="240.48" x2="226.55" y2="261.92"/><line x1="241.64" y1="313.69" x2="239.97" y2="312.33"/><line x1="143.46" y1="232.57" x2="198.54" y2="188.12"/><line x1="137.59" y1="133.30" x2="140.74" y2="132.35"/><line x1="232.74" y1="304.17" x2="171.47" y2="337.01"/><line x1="199.18" y1="169.15" x2="200.39" y2="167.42"/><line x1="232.74" y1="304.17" x2="145.40" y2="305.31"/><line x1="221.22" y1="160.08" x2="225.35" y2="159.98"/><line x1="232.74" y1="304.17" x2="138.08" y2="282.48"/><line x1="145.36" y1="248.04" x2="147.39" y2="246.29"/><line x1="198.54" y1="188.12" x2="141.46" y2="231.33"/><line x1="139.84" y1="289.83" x2="139.33" y2="287.98"/><line x1="186.70" y1="345.32" x2="182.72" y2="343.54"/><line x1="230.36" y1="258.91" x2="228.29" y2="260.29"/><line x1="225.35" y1="159.98" x2="257.19" y2="159.98"/><line x1="117.54" y1="145.02" x2="119.49" y2="143.12"/><line x1="197.07" y1="179.69" x2="113.14" y2="192.65"/><line x1="110.36" y1="181.96" x2="110.04" y2="180.21"/><line x1="138.08" y1="282.48" x2="229.23" y2="298.07"/><line x1="256.18" y1="254.52" x2="251.24" y2="254.61"/><line x1="138.08" y1="282.48" x2="223.81" y2="282.67"/><line x1="224.08" y1="283.75" x2="223.81" y2="282.67"/><line x1="216.86" y1="218.69" x2="215.31" y2="217.67"/><line x1="197.14" y1="175.37" x2="111.49" y2="153.94"/><line x1="235.40" y1="307.72" x2="208.19" y2="351.77"/><line x1="138.08" y1="282.48" x2="222.58" y2="273.83"/><line x1="197.14" y1="175.37" x2="128.93" y2="136.79"/><line x1="246.40" y1="224.68" x2="246.71" y2="254.89"/><line x1="271.54" y1="323.06" x2="268.61" y2="322.86"/><line x1="132.38" y1="224.29" x2="130.75" y2="222.70"/><line x1="232.74" y1="304.17" x2="190.80" y2="346.94"/><line x1="161.37" y1="328.59" x2="158.26" y2="325.36"/><line x1="232.74" y1="304.17" x2="158.26" y2="325.36"/><line x1="134.57" y1="134.36" x2="137.59" y2="133.30"/><line x1="232.74" y1="304.17" x2="140.38" y2="291.67"/><line x1="154.61" y1="241.75" x2="152.02" y2="243.15"/><line x1="245.23" y1="316.13" x2="243.39" y2="314.95"/><line x1="158.40" y1="129.17" x2="162.24" y2="128.80"/><line x1="238.91" y1="255.96" x2="235.14" y2="224.15"/><line x1="222.72" y1="276.67" x2="222.65" y2="275.71"/><line x1="278.25" y1="224.68" x2="246.40" y2="224.68"/><line x1="197.14" y1="175.37" x2="110.36" y2="181.96"/><line x1="138.08" y1="282.48" x2="225.35" y2="288.37"/><line x1="197.14" y1="175.37" x2="108.74" y2="168.26"/><line x1="197.14" y1="175.37" x2="117.54" y2="145.02"/><line x1="197.14" y1="175.37" x2="140.74" y2="132.35"/><line x1="170.17" y1="128.30" x2="174.27" y2="128.18"/><line x1="274.59" y1="323.19" x2="271.54" y2="323.06"/><line x1="238.37" y1="310.89" x2="236.85" y2="309.34"/><line x1="232.74" y1="304.17" x2="175.09" y2="339.39"/><line x1="199.18" y1="169.15" x2="178.46" y2="128.14"/><line x1="116.10" y1="200.51" x2="115.06" y2="197.99"/><line x1="217.48" y1="353.24" x2="212.80" y2="352.57"/><line x1="480.00" y1="64.50" x2="447.51" y2="32.02"/><line x1="230.36" y1="258.91" x2="223.99" y2="221.95"/><line x1="222.58" y1="273.83" x2="137.06" y2="275.71"/><line x1="138.08" y1="282.48" x2="230.34" y2="300.22"/><line x1="156.88" y1="239.47" x2="203.62" y2="202.01"/><line x1="197.14" y1="175.37" x2="109.25" y2="174.98"/><line x1="256.18" y1="254.52" x2="246.40" y2="224.68"/><line x1="197.14" y1="175.37" x2="110.50" y2="156.51"/><line x1="197.14" y1="175.37" x2="126.33" y2="138.18"/><line x1="203.69" y1="350.81" x2="199.29" y2="349.68"/><line x1="197.25" y1="181.68" x2="116.10" y2="200.51"/><line x1="208.69" y1="211.08" x2="207.58" y2="209.46"/><line x1="108.82" y1="170.62" x2="108.76" y2="169.39"/><line x1="232.74" y1="304.17" x2="194.99" y2="348.39"/><line x1="245.23" y1="316.13" x2="231.76" y2="354.62"/><line x1="331.16" y1="128.14" x2="310.09" y2="323.23"/><line x1="238.91" y1="255.96" x2="237.76" y2="224.38"/><line x1="278.25" y1="224.68" x2="256.18" y2="254.52"/><line x1="143.40" y1="300.49" x2="141.59" y2="295.39"/><line x1="156.88" y1="239.47" x2="154.48" y2="238.38"/><line x1="246.40" y1="355.08" x2="255.71" y2="320.60"/><line x1="197.14" y1="175.37" x2="108.76" y2="169.39"/><line x1="197.14" y1="175.37" x2="115.76" y2="147.05"/><line x1="111.49" y1="153.94" x2="112.70" y2="151.50"/><line x1="134.07" y1="225.82" x2="132.38" y2="224.29"/><line x1="170.17" y1="128.30" x2="199.18" y2="169.15"/><line x1="137.06" y1="275.71" x2="136.93" y2="274.18"/><line x1="164.61" y1="331.60" x2="161.37" y2="328.59"/><line x1="241.48" y1="355.02" x2="236.60" y2="354.87"/><line x1="238.37" y1="310.89" x2="217.48" y2="353.24"/><line x1="108.92" y1="171.97" x2="108.82" y2="170.62"/><line x1="116.10" y1="200.51" x2="197.07" y2="179.69"/><line x1="222.83" y1="277.64" x2="222.72" y2="276.67"/><line x1="138.46" y1="284.31" x2="138.08" y2="282.48"/><line x1="236.60" y1="354.87" x2="245.23" y2="316.13"/><line x1="154.65" y1="129.62" x2="150.99" y2="130.14"/><line x1="123.88" y1="139.70" x2="126.33" y2="138.18"/><line x1="124.76" y1="215.67" x2="123.38" y2="213.74"/><line x1="222.58" y1="273.83" x2="137.24" y2="277.30"/><line x1="197.99" y1="185.89" x2="127.66" y2="219.32"/><line x1="156.88" y1="239.47" x2="204.57" y2="204.03"/><line x1="138.22" y1="258.96" x2="139.18" y2="256.39"/><line x1="197.14" y1="175.37" x2="109.47" y2="176.65"/><line x1="149.88" y1="236.14" x2="147.67" y2="234.97"/><line x1="145.40" y1="305.31" x2="143.40" y2="300.49"/><line x1="197.14" y1="175.37" x2="109.73" y2="159.24"/><line x1="226.96" y1="354.25" x2="222.20" y2="353.80"/><line x1="203.69" y1="350.81" x2="232.74" y2="304.17"/><line x1="110.50" y1="156.51" x2="111.49" y2="153.94"/><line x1="225.12" y1="263.80" x2="224.01" y2="265.93"/><line x1="197.25" y1="181.68" x2="117.19" y2="202.94"/><line x1="111.83" y1="188.37" x2="111.44" y2="186.85"/><line x1="137.24" y1="277.30" x2="137.06" y2="275.71"/><line x1="204.57" y1="204.03" x2="203.62" y2="202.01"/><line x1="178.46" y1="128.14" x2="205.72" y2="163.30"/><line x1="32.16" y1="32.09" x2="32.16" y2="64.58"/><line x1="226.23" y1="290.96" x2="225.35" y2="288.37"/><line x1="222.20" y1="353.80" x2="238.37" y2="310.89"/><line x1="222.74" y1="270.94" x2="139.18" y2="256.39"/><line x1="144.02" y1="131.51" x2="147.44" y2="130.77"/><line x1="117.19" y1="202.94" x2="116.10" y2="200.51"/><line x1="331.16" y1="128.14" x2="288.03" y2="254.52"/><line x1="197.56" y1="183.75" x2="197.25" y2="181.68"/><line x1="200.89" y1="195.29" x2="200.02" y2="192.83"/><line x1="149.62" y1="244.66" x2="152.02" y2="243.15"/><line x1="138.88" y1="286.14" x2="138.46" y2="284.31"/><line x1="228.09" y1="223.05" x2="230.36" y2="258.91"/><line x1="200.02" y1="192.83" x2="147.67" y2="234.97"/><line x1="121.60" y1="141.35" x2="123.88" y2="139.70"/><line x1="222.58" y1="273.83" x2="136.83" y2="271.32"/><line x1="137.50" y1="261.74" x2="138.22" y2="258.96"/><line x1="228.29" y1="260.29" x2="226.55" y2="261.92"/><line x1="178.46" y1="128.14" x2="217.43" y2="160.35"/><line x1="246.71" y1="254.89" x2="242.60" y2="255.33"/><line x1="222.74" y1="270.94" x2="136.83" y2="271.32"/><line x1="32.00" y1="447.50" x2="64.49" y2="479.98"/><line x1="222.74" y1="270.94" x2="145.36" y2="248.04"/><line x1="205.72" y1="163.30" x2="208.13" y2="162.28"/><line x1="257.19" y1="159.98" x2="278.25" y2="224.68"/><line x1="243.39" y1="314.95" x2="241.64" y2="313.69"/><line x1="162.24" y1="128.80" x2="166.16" y2="128.51"/><line x1="404.38" y1="355.08" x2="265.80" y2="322.57"/><line x1="197.99" y1="185.89" x2="129.18" y2="221.04"/><line x1="120.76" y1="209.65" x2="119.52" y2="207.50"/><line x1="198.23" y1="171.05" x2="170.17" y2="128.30"/><line x1="246.40" y1="355.08" x2="241.48" y2="355.02"/><line x1="235.40" y1="307.72" x2="234.03" y2="305.99"/><line x1="235.64" y1="256.77" x2="232.78" y2="257.75"/><line x1="32.00" y1="479.98" x2="64.49" y2="479.98"/><line x1="178.46" y1="128.14" x2="203.66" y2="164.50"/><line x1="178.46" y1="128.14" x2="331.16" y2="128.14"/><line x1="236.85" y1="309.34" x2="235.40" y2="307.72"/><line x1="222.74" y1="270.94" x2="138.22" y2="258.96"/><line x1="197.56" y1="183.75" x2="120.76" y2="209.65"/><line x1="200.02" y1="192.83" x2="149.88" y2="236.14"/><line x1="223.56" y1="281.62" x2="223.34" y2="280.60"/><line x1="199.22" y1="190.44" x2="198.54" y2="188.12"/><line x1="234.03" y1="305.99" x2="203.69" y2="350.81"/><line x1="157.39" y1="240.48" x2="212.45" y2="215.32"/><line x1="112.25" y1="189.83" x2="111.83" y2="188.37"/><line x1="265.80" y1="322.57" x2="263.10" y2="322.20"/><line x1="227.17" y1="293.45" x2="226.23" y2="290.96"/><line x1="226.55" y1="261.92" x2="225.12" y2="263.80"/><line x1="155.31" y1="321.89" x2="152.55" y2="318.16"/><line x1="178.46" y1="128.14" x2="213.99" y2="160.81"/><line x1="140.74" y1="132.35" x2="144.02" y2="131.51"/><line x1="147.39" y1="246.29" x2="149.62" y2="244.66"/><line x1="141.46" y1="231.33" x2="139.53" y2="230.05"/><line x1="222.74" y1="270.94" x2="143.50" y2="249.91"/><line x1="222.60" y1="274.76" x2="222.58" y2="273.83"/><line x1="182.72" y1="343.54" x2="178.84" y2="341.57"/><line x1="257.19" y1="159.98" x2="331.16" y2="128.14"/><line x1="253.44" y1="319.89" x2="251.26" y2="319.09"/><line x1="243.39" y1="314.95" x2="226.96" y2="354.25"/><line x1="110.04" y1="180.21" x2="109.74" y2="178.42"/><line x1="404.38" y1="355.08" x2="268.61" y2="322.86"/><line x1="197.00" y1="177.79" x2="110.70" y2="183.65"/><line x1="197.99" y1="185.89" x2="130.75" y2="222.70"/><line x1="223.81" y1="282.67" x2="223.56" y2="281.62"/><line x1="215.31" y1="217.67" x2="213.84" y2="216.54"/><line x1="157.39" y1="240.48" x2="218.50" y2="219.64"/><line x1="140.96" y1="293.53" x2="140.38" y2="291.67"/><line x1="157.39" y1="240.48" x2="207.58" y2="209.46"/><line x1="32.00" y1="479.98" x2="32.00" y2="447.50"/><line x1="114.13" y1="149.21" x2="115.76" y2="147.05"/><line x1="268.61" y1="322.86" x2="265.80" y2="322.57"/><line x1="130.75" y1="222.70" x2="129.18" y2="221.04"/><line x1="178.46" y1="128.14" x2="201.89" y2="165.87"/><line x1="198.54" y1="188.12" x2="197.99" y2="185.89"/><line x1="158.26" y1="325.36" x2="155.31" y2="321.89"/><line x1="251.24" y1="254.61" x2="246.71" y2="254.89"/><line x1="236.85" y1="309.34" x2="212.80" y2="352.57"/><line x1="222.74" y1="270.94" x2="137.50" y2="261.74"/><line x1="108.76" y1="169.39" x2="108.74" y2="168.26"/><line x1="223.99" y1="221.95" x2="222.07" y2="221.27"/><line x1="197.56" y1="183.75" x2="122.05" y2="211.73"/><line x1="197.54" y1="173.12" x2="154.65" y2="129.62"/><line x1="222.65" y1="275.71" x2="222.60" y2="274.76"/><line x1="138.08" y1="282.48" x2="222.97" y2="278.62"/><line x1="222.74" y1="270.94" x2="154.61" y2="241.75"/><line x1="231.76" y1="354.62" x2="243.39" y2="314.95"/><line x1="199.22" y1="190.44" x2="143.46" y2="232.57"/><line x1="235.14" y1="224.15" x2="232.66" y2="223.85"/><line x1="157.39" y1="240.48" x2="213.84" y2="216.54"/><line x1="141.59" y1="295.39" x2="140.96" y2="293.53"/><line x1="232.74" y1="304.17" x2="147.60" y2="309.86"/><line x1="232.74" y1="304.17" x2="138.46" y2="284.31"/><line x1="224.01" y1="265.93" x2="223.22" y2="268.31"/><line x1="258.07" y1="321.22" x2="260.53" y2="321.75"/><line x1="197.07" y1="179.69" x2="114.07" y2="195.36"/><line x1="135.83" y1="227.29" x2="134.07" y2="225.82"/><line x1="136.85" y1="272.71" x2="136.83" y2="271.32"/><line x1="138.08" y1="282.48" x2="224.08" y2="283.75"/><line x1="138.08" y1="282.48" x2="222.60" y2="274.76"/><line x1="222.07" y1="221.27" x2="220.24" y2="220.50"/><line x1="288.03" y1="254.52" x2="256.18" y2="254.52"/><line x1="197.00" y1="177.79" x2="111.05" y2="185.27"/><line x1="246.40" y1="224.68" x2="251.24" y2="254.61"/><line x1="147.67" y1="234.97" x2="145.53" y2="233.78"/><line x1="157.39" y1="240.48" x2="224.01" y2="265.93"/><line x1="157.39" y1="240.48" x2="208.69" y2="211.08"/><line x1="197.54" y1="173.12" x2="197.14" y2="175.37"/><line x1="232.74" y1="304.17" x2="161.37" y2="328.59"/><line x1="232.74" y1="304.17" x2="140.96" y2="293.53"/><line x1="198.54" y1="188.12" x2="135.83" y2="227.29"/><line x1="126.19" y1="217.53" x2="124.76" y2="215.67"/><line x1="158.40" y1="129.17" x2="197.54" y2="173.12"/><line x1="220.24" y1="220.50" x2="218.50" y2="219.64"/><line x1="123.38" y1="213.74" x2="122.05" y2="211.73"/><line x1="197.54" y1="173.12" x2="162.24" y2="128.80"/><line x1="138.08" y1="282.48" x2="226.23" y2="290.96"/><line x1="237.76" y1="224.38" x2="235.14" y2="224.15"/><line x1="138.08" y1="282.48" x2="223.14" y2="279.60"/><line x1="122.05" y1="211.73" x2="120.76" y2="209.65"/><line x1="197.14" y1="175.37" x2="137.59" y2="133.30"/><line x1="274.59" y1="323.19" x2="277.75" y2="323.23"/><line x1="235.14" y1="224.15" x2="235.64" y2="256.77"/><line x1="203.62" y1="202.01" x2="202.69" y2="199.87"/><line x1="232.78" y1="257.75" x2="230.36" y2="258.91"/><line x1="157.39" y1="240.48" x2="215.31" y2="217.67"/><line x1="112.70" y1="151.50" x2="114.13" y2="149.21"/><line x1="232.74" y1="304.17" x2="178.84" y2="341.57"/><line x1="199.18" y1="169.15" x2="174.27" y2="128.18"/><line x1="232.74" y1="304.17" x2="149.98" y2="314.14"/><line x1="136.93" y1="274.18" x2="136.85" y2="272.71"/><line x1="202.69" y1="199.87" x2="201.78" y2="197.63"/><line x1="232.74" y1="304.17" x2="138.88" y2="286.14"/><line x1="223.22" y1="268.31" x2="222.74" y2="270.94"/><line x1="217.48" y1="353.24" x2="236.85" y2="309.34"/><line x1="174.27" y1="128.18" x2="178.46" y2="128.14"/><line x1="230.36" y1="258.91" x2="226.00" y2="222.55"/><line x1="197.07" y1="179.69" x2="115.06" y2="197.99"/><line x1="138.08" y1="282.48" x2="231.51" y2="302.25"/><line x1="226.00" y1="222.55" x2="223.99" y2="221.95"/><line x1="138.08" y1="282.48" x2="224.36" y2="284.86"/><line x1="138.08" y1="282.48" x2="222.65" y2="275.71"/><line x1="197.14" y1="175.37" x2="123.88" y2="139.70"/><line x1="126.33" y1="138.18" x2="128.93" y2="136.79"/><line x1="197.14" y1="175.37" x2="150.99" y2="130.14"/><line x1="208.13" y1="162.28" x2="210.90" y2="161.46"/><line x1="139.18" y1="256.39" x2="140.39" y2="254.04"/><line x1="147.67" y1="234.97" x2="199.22" y2="190.44"/><line x1="232.74" y1="304.17" x2="199.29" y2="349.68"/><line x1="210.90" y1="161.46" x2="213.99" y2="160.81"/><line x1="232.74" y1="304.17" x2="164.61" y2="331.60"/><line x1="140.39" y1="254.04" x2="141.84" y2="251.89"/><line x1="232.74" y1="304.17" x2="141.59" y2="295.39"/><line x1="111.44" y1="186.85" x2="111.05" y2="185.27"/><line x1="225.35" y1="288.37" x2="225.00" y2="287.17"/><line x1="147.44" y1="130.77" x2="150.99" y2="130.14"/><line x1="64.64" y1="32.09" x2="32.16" y2="64.58"/><line x1="225.00" y1="287.17" x2="224.67" y2="286.00"/><line x1="138.08" y1="282.48" x2="227.17" y2="293.45"/><line x1="156.88" y1="239.47" x2="200.89" y2="195.29"/><line x1="137.65" y1="228.70" x2="135.83" y2="227.29"/><line x1="197.14" y1="175.37" x2="108.82" y2="170.62"/><line x1="138.08" y1="282.48" x2="223.34" y2="280.60"/><line x1="197.14" y1="175.37" x2="114.13" y2="149.21"/><line x1="197.14" y1="175.37" x2="134.57" y2="134.36"/><line x1="175.09" y1="339.39" x2="171.47" y2="337.01"/><line x1="274.59" y1="323.19" x2="404.38" y2="355.08"/><line x1="109.47" y1="176.65" x2="109.25" y2="174.98"/><line x1="241.48" y1="355.02" x2="247.15" y2="317.21"/><line x1="171.47" y1="337.01" x2="167.98" y2="334.41"/><line x1="232.74" y1="304.17" x2="182.72" y2="343.54"/><line x1="223.34" y1="280.60" x2="223.14" y2="279.60"/><line x1="232.74" y1="304.17" x2="152.55" y2="318.16"/><line x1="207.58" y1="209.46" x2="206.54" y2="207.75"/><line x1="243.39" y1="224.65" x2="240.51" y2="224.55"/><line x1="223.14" y1="279.60" x2="222.97" y2="278.62"/><line x1="113.14" y1="192.65" x2="112.25" y2="189.83"/><line x1="222.58" y1="273.83" x2="137.47" y2="278.96"/><line x1="156.88" y1="239.47" x2="205.55" y2="205.95"/><line x1="197.14" y1="175.37" x2="109.74" y2="178.42"/><line x1="138.08" y1="282.48" x2="224.67" y2="286.00"/><line x1="197.14" y1="175.37" x2="109.18" y2="162.10"/><line x1="226.96" y1="354.25" x2="239.97" y2="312.33"/><line x1="197.14" y1="175.37" x2="121.60" y2="141.35"/><line x1="149.98" y1="314.14" x2="147.60" y2="309.86"/><line x1="197.14" y1="175.37" x2="147.44" y2="130.77"/><line x1="197.25" y1="181.68" x2="118.33" y2="205.27"/><line x1="143.46" y1="232.57" x2="141.46" y2="231.33"/><line x1="32.16" y1="32.09" x2="64.64" y2="32.09"/><line x1="232.66" y1="223.85" x2="230.31" y2="223.48"/><line x1="232.74" y1="304.17" x2="167.98" y2="334.41"/><line x1="139.53" y1="230.05" x2="137.65" y2="228.70"/><line x1="178.84" y1="341.57" x2="175.09" y2="339.39"/><line x1="331.16" y1="128.14" x2="278.25" y2="224.68"/><line x1="200.89" y1="195.29" x2="152.15" y2="237.28"/><line x1="109.74" y1="178.42" x2="109.47" y2="176.65"/><line x1="212.80" y1="352.57" x2="208.19" y2="351.77"/><line x1="278.25" y1="224.68" x2="288.03" y2="254.52"/><line x1="222.58" y1="273.83" x2="136.85" y2="272.71"/><line x1="213.84" y1="216.54" x2="212.45" y2="215.32"/><line x1="156.88" y1="239.47" x2="201.78" y2="197.63"/><line x1="197.14" y1="175.37" x2="108.92" y2="171.97"/><line x1="197.14" y1="175.37" x2="112.70" y2="151.50"/><line x1="197.14" y1="175.37" x2="131.68" y2="135.52"/></g></svg>