<svg xmlns="http://www.w3.org/2000/svg" width="512" height="512"><rect width="512" height="512" fill="#0a0f1a"/><text x="12" y="20" font-family="monospace" font-size="11" fill="#4a7fa5">FRONT (XZ)</text><g stroke="#00d4ff" stroke-width="0.6" opacity="0.85"><line x1="203.38" y1="187.21" x2="202.95" y2="184.70"/><line x1="277.38" y1="236.97" x2="252.30" y2="159.98"/><line x1="113.63" y1="164.51" x2="203.38" y2="187.21"/><line x1="210.16" y1="207.40" x2="207.71" y2="201.65"/><line x1="149.45" y1="245.15" x2="145.94" y2="241.89"/><line x1="158.87" y1="129.62" x2="163.37" y2="129.17"/><line x1="189.61" y1="128.14" x2="205.99" y2="165.80"/><line x1="238.14" y1="235.27" x2="228.48" y2="269.02"/><line x1="165.45" y1="255.86" x2="161.15" y2="253.52"/><line x1="224.72" y1="227.69" x2="174.73" y2="259.93"/><line x1="202.79" y1="173.06" x2="128.55" y2="137.85"/><line x1="221.40" y1="268.65" x2="214.61" y2="268.13"/><line x1="224.72" y1="227.69" x2="139.50" y2="234.67"/><line x1="202.79" y1="173.06" x2="158.87" y2="129.62"/><line x1="163.37" y1="129.17" x2="168.11" y2="128.80"/><line x1="224.72" y1="227.69" x2="118.05" y2="190.23"/><line x1="161.15" y1="253.52" x2="157.05" y2="250.97"/><line x1="146.82" y1="131.49" x2="150.61" y2="130.77"/><line x1="245.04" y1="236.78" x2="243.52" y2="269.32"/><line x1="113.63" y1="164.51" x2="202.64" y2="182.29"/><line x1="202.95" y1="184.70" x2="202.64" y2="182.29"/><line x1="189.61" y1="128.14" x2="212.38" y2="161.44"/><line x1="202.79" y1="173.06" x2="116.67" y2="149.86"/><line x1="480.00" y1="479.91" x2="447.51" y2="479.91"/><line x1="224.72" y1="227.69" x2="165.45" y2="255.86"/><line x1="202.64" y1="182.29" x2="202.46" y2="179.99"/><line x1="202.79" y1="173.06" x2="133.78" y2="135.34"/><line x1="205.99" y1="165.80" x2="208.78" y2="163.25"/><line x1="224.72" y1="227.69" x2="133.80" y2="226.48"/><line x1="202.79" y1="173.06" x2="168.11" y2="128.80"/><line x1="224.72" y1="227.69" x2="115.59" y2="180.71"/><line x1="287.65" y1="269.32" x2="277.38" y2="236.97"/><line x1="139.50" y1="234.67" x2="136.57" y2="230.70"/><line x1="113.63" y1="164.51" x2="210.16" y2="207.40"/><line x1="228.48" y1="269.02" x2="231.37" y2="232.24"/><line x1="157.05" y1="250.97" x2="153.16" y2="248.18"/><line x1="245.04" y1="236.78" x2="241.58" y2="236.21"/><line x1="113.63" y1="164.51" x2="202.40" y2="177.79"/><line x1="208.78" y1="163.25" x2="212.38" y2="161.44"/><line x1="252.30" y1="159.98" x2="189.61" y2="128.14"/><line x1="326.28" y1="128.14" x2="252.30" y2="159.98"/><line x1="174.73" y1="259.93" x2="169.98" y2="258.00"/><line x1="224.72" y1="227.69" x2="201.91" y2="266.65"/><line x1="136.57" y1="230.70" x2="133.80" y2="226.48"/><line x1="202.79" y1="173.06" x2="119.05" y2="145.91"/><line x1="173.11" y1="128.51" x2="178.36" y2="128.30"/><line x1="114.39" y1="156.65" x2="114.98" y2="154.27"/><line x1="224.72" y1="227.69" x2="157.05" y2="250.97"/><line x1="202.79" y1="173.06" x2="139.87" y2="133.22"/><line x1="202.46" y1="179.99" x2="202.40" y2="177.79"/><line x1="224.72" y1="227.69" x2="128.61" y2="217.20"/><line x1="119.05" y1="145.91" x2="120.54" y2="144.09"/><line x1="231.37" y1="232.24" x2="228.03" y2="230.15"/><line x1="287.65" y1="269.32" x2="245.04" y2="236.78"/><line x1="277.38" y1="236.97" x2="248.53" y2="236.97"/><line x1="113.63" y1="164.51" x2="205.41" y2="195.34"/><line x1="203.94" y1="189.82" x2="203.38" y2="187.21"/><line x1="114.98" y1="154.27" x2="115.74" y2="152.00"/><line x1="113.63" y1="164.51" x2="113.71" y2="161.76"/><line x1="212.38" y1="161.44" x2="216.77" y2="160.35"/><line x1="168.11" y1="128.80" x2="173.11" y2="128.51"/><line x1="326.28" y1="128.14" x2="315.49" y2="355.08"/><line x1="235.86" y1="269.25" x2="238.14" y2="235.27"/><line x1="202.79" y1="173.06" x2="113.71" y2="161.76"/><line x1="32.16" y1="32.09" x2="32.16" y2="64.58"/><line x1="224.72" y1="227.69" x2="190.35" y2="264.54"/><line x1="202.79" y1="173.06" x2="122.24" y2="142.38"/><line x1="133.80" y1="226.48" x2="131.14" y2="221.98"/><line x1="178.36" y1="128.30" x2="183.86" y2="128.18"/><line x1="224.72" y1="227.69" x2="149.45" y2="245.15"/><line x1="202.79" y1="173.06" x2="146.82" y2="131.49"/><line x1="216.77" y1="160.35" x2="221.96" y2="159.98"/><line x1="315.49" y1="355.08" x2="399.49" y2="355.08"/><line x1="145.94" y1="241.89" x2="142.62" y2="238.40"/><line x1="119.65" y1="195.34" x2="118.05" y2="190.23"/><line x1="113.63" y1="164.51" x2="203.94" y2="189.82"/><line x1="131.14" y1="221.98" x2="128.61" y2="217.20"/><line x1="183.86" y1="128.18" x2="205.99" y2="165.80"/><line x1="115.74" y1="152.00" x2="116.67" y2="149.86"/><line x1="128.61" y1="217.20" x2="126.20" y2="212.15"/><line x1="326.28" y1="128.14" x2="287.65" y2="269.32"/><line x1="228.03" y1="230.15" x2="224.72" y2="227.69"/><line x1="142.62" y1="238.40" x2="139.50" y2="234.67"/><line x1="235.86" y1="269.25" x2="228.48" y2="269.02"/><line x1="202.79" y1="173.06" x2="114.39" y2="156.65"/><line x1="326.28" y1="128.14" x2="189.61" y2="128.14"/><line x1="113.71" y1="161.76" x2="113.97" y2="159.15"/><line x1="224.72" y1="227.69" x2="179.71" y2="261.67"/><line x1="202.79" y1="173.06" x2="126.24" y2="139.25"/><line x1="116.67" y1="149.86" x2="117.77" y2="147.83"/><line x1="202.79" y1="173.06" x2="154.63" y2="130.14"/><line x1="113.63" y1="164.51" x2="218.44" y2="221.26"/><line x1="113.97" y1="159.15" x2="114.39" y2="156.65"/><line x1="118.05" y1="190.23" x2="116.70" y2="185.35"/><line x1="113.63" y1="164.51" x2="202.95" y2="184.70"/><line x1="480.00" y1="32.02" x2="447.51" y2="32.02"/><line x1="126.20" y1="212.15" x2="123.89" y2="206.82"/><line x1="202.79" y1="173.06" x2="115.74" y2="152.00"/><line x1="238.14" y1="235.27" x2="234.74" y2="233.94"/><line x1="224.72" y1="227.69" x2="169.98" y2="258.00"/><line x1="116.70" y1="185.35" x2="115.59" y2="180.71"/><line x1="202.79" y1="173.06" x2="131.06" y2="136.54"/><line x1="126.24" y1="139.25" x2="128.55" y2="137.85"/><line x1="189.61" y1="128.14" x2="221.96" y2="159.98"/><line x1="202.79" y1="173.06" x2="163.37" y2="129.17"/><line x1="243.52" y1="269.32" x2="235.86" y2="269.25"/><line x1="123.89" y1="206.82" x2="121.71" y2="201.22"/><line x1="214.61" y1="268.13" x2="224.72" y2="227.69"/><line x1="113.63" y1="164.51" x2="212.76" y2="212.59"/><line x1="228.48" y1="269.02" x2="234.74" y2="233.94"/><line x1="224.72" y1="227.69" x2="114.12" y2="172.13"/><line x1="113.63" y1="164.51" x2="202.46" y2="179.99"/><line x1="128.55" y1="137.85" x2="131.06" y2="136.54"/><line x1="234.74" y1="233.94" x2="231.37" y2="232.24"/><line x1="241.58" y1="236.21" x2="235.86" y2="269.25"/><line x1="224.72" y1="227.69" x2="208.12" y2="267.46"/><line x1="202.79" y1="173.06" x2="117.77" y2="147.83"/><line x1="120.54" y1="144.09" x2="122.24" y2="142.38"/><line x1="202.79" y1="173.06" x2="136.72" y2="134.23"/><line x1="248.53" y1="236.97" x2="245.04" y2="236.78"/><line x1="231.37" y1="232.24" x2="221.40" y2="268.65"/><line x1="224.72" y1="227.69" x2="123.89" y2="206.82"/><line x1="121.71" y1="201.22" x2="119.65" y2="195.34"/><line x1="113.63" y1="164.51" x2="207.71" y2="201.65"/><line x1="218.44" y1="221.26" x2="215.52" y2="217.21"/><line x1="204.00" y1="169.06" x2="178.36" y2="128.30"/><line x1="228.48" y1="269.02" x2="221.40" y2="268.65"/><line x1="32.00" y1="479.98" x2="64.49" y2="479.98"/><line x1="224.72" y1="227.69" x2="113.63" y2="164.51"/><line x1="113.63" y1="164.51" x2="202.79" y2="173.06"/><line x1="114.12" y1="172.13" x2="113.75" y2="168.20"/><line x1="189.61" y1="128.14" x2="183.86" y2="128.18"/><line x1="202.79" y1="173.06" x2="120.54" y2="144.09"/><line x1="122.24" y1="142.38" x2="124.13" y2="140.77"/><line x1="150.61" y1="130.77" x2="154.63" y2="130.14"/><line x1="64.64" y1="32.09" x2="32.16" y2="64.58"/><line x1="221.40" y1="268.65" x2="228.03" y2="230.15"/><line x1="224.72" y1="227.69" x2="142.62" y2="238.40"/><line x1="136.72" y1="134.23" x2="139.87" y2="133.22"/><line x1="252.30" y1="159.98" x2="221.96" y2="159.98"/><line x1="224.72" y1="227.69" x2="119.65" y2="195.34"/><line x1="113.63" y1="164.51" x2="204.61" y2="192.53"/><line x1="124.13" y1="140.77" x2="126.24" y2="139.25"/><line x1="204.00" y1="169.06" x2="205.99" y2="165.80"/><line x1="326.28" y1="128.14" x2="399.49" y2="355.08"/><line x1="228.03" y1="230.15" x2="214.61" y2="268.13"/><line x1="117.77" y1="147.83" x2="119.05" y2="145.91"/><line x1="202.79" y1="173.06" x2="113.97" y2="159.15"/><line x1="113.75" y1="168.20" x2="113.63" y2="164.51"/><line x1="189.61" y1="128.14" x2="208.78" y2="163.25"/><line x1="224.72" y1="227.69" x2="136.57" y2="230.70"/><line x1="113.63" y1="164.51" x2="221.50" y2="224.76"/><line x1="224.72" y1="227.69" x2="116.70" y2="185.35"/><line x1="139.87" y1="133.22" x2="143.24" y2="132.30"/><line x1="480.00" y1="32.02" x2="480.00" y2="64.50"/><line x1="115.59" y1="180.71" x2="114.73" y2="176.30"/><line x1="190.35" y1="264.54" x2="184.92" y2="263.20"/><line x1="326.28" y1="128.14" x2="277.38" y2="236.97"/><line x1="202.79" y1="173.06" x2="114.98" y2="154.27"/><line x1="143.24" y1="132.30" x2="146.82" y2="131.49"/><line x1="189.61" y1="128.14" x2="216.77" y2="160.35"/><line x1="480.00" y1="479.91" x2="480.00" y2="447.42"/><line x1="224.72" y1="227.69" x2="161.15" y2="253.52"/><line x1="243.52" y1="269.32" x2="241.58" y2="236.21"/><line x1="184.92" y1="263.20" x2="179.71" y2="261.67"/><line x1="131.06" y1="136.54" x2="133.78" y2="135.34"/><line x1="224.72" y1="227.69" x2="131.14" y2="221.98"/><line x1="207.71" y1="201.65" x2="205.41" y2="195.34"/><line x1="113.63" y1="164.51" x2="215.52" y2="217.21"/><line x1="202.79" y1="173.06" x2="204.00" y2="169.06"/><line x1="221.50" y1="224.76" x2="218.44" y2="221.26"/><line x1="224.72" y1="227.69" x2="114.73" y2="176.30"/><line x1="287.65" y1="269.32" x2="248.53" y2="236.97"/><line x1="208.12" y1="267.46" x2="201.91" y2="266.65"/><line x1="480.00" y1="64.50" x2="447.51" y2="32.02"/><line x1="114.73" y1="176.30" x2="114.12" y2="172.13"/><line x1="205.41" y1="195.34" x2="204.61" y2="192.53"/><line x1="168.11" y1="128.80" x2="204.00" y2="169.06"/><line x1="32.16" y1="32.09" x2="64.64" y2="32.09"/><line x1="224.72" y1="227.69" x2="196.00" y2="265.69"/><line x1="447.51" y1="479.91" x2="480.00" y2="447.42"/><line x1="215.52" y1="217.21" x2="212.76" y2="212.59"/><line x1="224.72" y1="227.69" x2="153.16" y2="248.18"/><line x1="202.79" y1="173.06" x2="143.24" y2="132.30"/><line x1="179.71" y1="261.67" x2="174.73" y2="259.93"/><line x1="224.72" y1="227.69" x2="126.20" y2="212.15"/><line x1="214.61" y1="268.13" x2="208.12" y2="267.46"/><line x1="133.78" y1="135.34" x2="136.72" y2="134.23"/><line x1="204.00" y1="169.06" x2="173.11" y2="128.51"/><line x1="224.72" y1="227.69" x2="113.75" y2="168.20"/><line x1="32.00" y1="479.98" x2="32.00" y2="447.50"/><line x1="287.65" y1="269.32" x2="243.52" y2="269.32"/><line x1="201.91" y1="266.65" x2="196.00" y2="265.69"/><line x1="153.16" y1="248.18" x2="149.45" y2="245.15"/><line x1="154.63" y1="130.14" x2="158.87" y2="129.62"/><line x1="241.58" y1="236.21" x2="238.14" y2="235.27"/><line x1="204.61" y1="192.53" x2="203.94" y2="189.82"/><line x1="169.98" y1="258.00" x2="165.45" y2="255.86"/><line x1="224.72" y1="227.69" x2="184.92" y2="263.20"/><line x1="196.00" y1="265.69" x2="190.35" y2="264.54"/><line x1="202.79" y1="173.06" x2="124.13" y2="140.77"/><line x1="212.76" y1="212.59" x2="210.16" y2="207.40"/><line x1="224.72" y1="227.69" x2="145.94" y2="241.89"/><line x1="202.79" y1="173.06" x2="150.61" y2="130.77"/><line x1="202.40" y1="177.79" x2="202.79" y2="173.06"/><line x1="224.72" y1="227.69" x2="121.71" y2="201.22"/><line x1="204.00" y1="169.06" x2="183.86" y2="128.18"/><line x1="315.49" y1="355.08" x2="287.65" y2="269.32"/><line x1="224.72" y1="227.69" x2="221.50" y2="224.76"/><line x1="32.00" y1="447.50" x2="64.49" y2="479.98"/></g></svg>