<svg xmlns="http://www.w3.org/2000/svg" width="512" height="512"><rect width="512" height="512" fill="#0a0f1a"/><text x="12" y="20" font-family="monospace" font-size="11" fill="#4a7fa5">FRONT (XZ)</text><g stroke="#00d4ff" stroke-width="0.6" opacity="0.85"><line x1="205.66" y1="323.23" x2="151.24" y2="323.23"/><line x1="480.00" y1="32.02" x2="480.00" y2="64.50"/><line x1="205.66" y1="323.23" x2="142.47" y2="128.14"/><line x1="322.75" y1="193.34" x2="242.26" y2="177.79"/><line x1="360.37" y1="323.23" x2="370.65" y2="355.08"/><line x1="32.16" y1="32.09" x2="32.16" y2="64.58"/><line x1="480.00" y1="479.91" x2="480.00" y2="447.42"/><line x1="161.52" y1="355.08" x2="360.37" y2="323.23"/><line x1="242.26" y1="177.79" x2="313.48" y2="218.41"/><line x1="205.66" y1="323.23" x2="161.52" y2="355.08"/><line x1="32.00" y1="479.98" x2="64.49" y2="479.98"/><line x1="208.66" y1="128.14" x2="142.47" y2="128.14"/><line x1="289.40" y1="323.23" x2="161.52" y2="355.08"/><line x1="480.00" y1="64.50" x2="447.51" y2="32.02"/><line x1="322.75" y1="193.34" x2="208.66" y2="128.14"/><line x1="32.16" y1="32.09" x2="64.64" y2="32.09"/><line x1="480.00" y1="479.91" x2="447.51" y2="479.91"/><line x1="64.64" y1="32.09" x2="32.16" y2="64.58"/><line x1="447.51" y1="479.91" x2="480.00" y2="447.42"/><line x1="161.52" y1="355.08" x2="151.24" y2="323.23"/><line x1="242.26" y1="177.79" x2="205.66" y2="323.23"/><line x1="32.00" y1="479.98" x2="32.00" y2="447.50"/><line x1="208.66" y1="128.14" x2="205.66" y2="323.23"/><line x1="205.66" y1="323.23" x2="289.40" y2="323.23"/><line x1="289.40" y1="323.23" x2="360.37" y2="323.23"/><line x1="322.75" y1="193.34" x2="313.48" y2="218.41"/><line x1="480.00" y1="32.02" x2="447.51" y2="32.02"/><line x1="161.52" y1="355.08" x2="370.65" y2="355.08"/><line x1="242.26" y1="177.79" x2="289.40" y2="323.23"/><line x1="242.26" y1="177.79" x2="208.66" y2="128.14"/><line x1="32.00" y1="447.50" x2="64.49" y2="479.98"/></g></svg>