<svg xmlns="http://www.w3.org/2000/svg" width="512" height="512"><rect width="512" height="512" fill="#0a0f1a"/><text x="12" y="20" font-family="monospace" font-size="11" fill="#4a7fa5">FRONT (XZ)</text><g stroke="#00d4ff" stroke-width="0.6" opacity="0.85"><line x1="169.06" y1="321.03" x2="170.52" y2="320.42"/><line x1="162.32" y1="330.80" x2="161.97" y2="332.66"/><line x1="275.74" y1="79.83" x2="273.57" y2="76.96"/><line x1="225.16" y1="341.09" x2="238.74" y2="312.33"/><line x1="312.69" y1="278.91" x2="313.79" y2="270.89"/><line x1="179.44" y1="320.60" x2="161.97" y2="340.65"/><line x1="347.86" y1="217.04" x2="311.17" y2="219.89"/><line x1="225.85" y1="164.77" x2="227.50" y2="219.89"/><line x1="183.71" y1="352.09" x2="181.48" y2="352.25"/><line x1="278.27" y1="90.95" x2="278.20" y2="88.82"/><line x1="238.74" y1="312.33" x2="225.45" y2="341.14"/><line x1="349.84" y1="278.01" x2="351.04" y2="266.06"/><line x1="291.88" y1="321.70" x2="310.07" y2="351.06"/><line x1="239.20" y1="152.88" x2="252.45" y2="181.22"/><line x1="181.48" y1="352.25" x2="179.35" y2="352.46"/><line x1="161.97" y1="340.65" x2="162.32" y2="342.42"/><line x1="310.07" y1="351.06" x2="318.09" y2="344.88"/><line x1="225.92" y1="278.91" x2="190.17" y2="313.25"/><line x1="236.94" y1="106.97" x2="239.36" y2="106.61"/><line x1="162.32" y1="342.42" x2="162.81" y2="344.10"/><line x1="262.88" y1="361.52" x2="266.84" y2="361.92"/><line x1="247.49" y1="321.70" x2="226.95" y2="342.46"/><line x1="303.98" y1="199.94" x2="331.96" y2="177.40"/><line x1="222.41" y1="349.08" x2="219.54" y2="351.83"/><line x1="170.54" y1="352.56" x2="169.07" y2="351.91"/><line x1="239.36" y1="106.61" x2="238.27" y2="75.88"/><line x1="275.74" y1="79.83" x2="265.64" y2="73.68"/><line x1="226.95" y1="342.46" x2="228.51" y2="344.51"/><line x1="243.67" y1="75.64" x2="248.92" y2="75.31"/><line x1="225.85" y1="164.77" x2="242.92" y2="188.71"/><line x1="169.07" y1="351.91" x2="167.68" y2="351.01"/><line x1="225.85" y1="164.77" x2="225.85" y2="118.09"/><line x1="186.82" y1="319.43" x2="187.73" y2="318.71"/><line x1="265.64" y1="73.68" x2="267.44" y2="73.84"/><line x1="337.12" y1="319.58" x2="306.81" y2="300.11"/><line x1="248.92" y1="75.31" x2="253.73" y2="106.55"/><line x1="187.73" y1="318.71" x2="188.49" y2="317.87"/><line x1="310.09" y1="155.00" x2="286.97" y2="181.22"/><line x1="225.92" y1="278.91" x2="187.73" y2="318.71"/><line x1="215.29" y1="352.96" x2="223.66" y2="345.20"/><line x1="224.33" y1="342.00" x2="224.44" y2="341.69"/><line x1="253.73" y1="106.55" x2="254.01" y2="74.90"/><line x1="240.50" y1="353.84" x2="243.74" y2="355.52"/><line x1="247.49" y1="321.70" x2="252.45" y2="324.98"/><line x1="225.92" y1="227.54" x2="224.79" y2="235.68"/><line x1="169.06" y1="321.03" x2="172.07" y2="320.08"/><line x1="275.74" y1="79.83" x2="272.20" y2="75.80"/><line x1="312.69" y1="278.91" x2="349.84" y2="278.01"/><line x1="269.65" y1="177.00" x2="267.68" y2="144.24"/><line x1="224.79" y1="235.68" x2="224.12" y2="244.33"/><line x1="225.85" y1="164.77" x2="229.53" y2="212.74"/><line x1="269.14" y1="107.15" x2="270.73" y2="106.55"/><line x1="270.73" y1="106.55" x2="272.20" y2="105.69"/><line x1="314.44" y1="244.33" x2="313.79" y2="235.68"/><line x1="480.00" y1="32.02" x2="447.51" y2="32.02"/><line x1="270.89" y1="144.14" x2="267.68" y2="144.24"/><line x1="225.92" y1="278.91" x2="189.96" y2="314.59"/><line x1="224.66" y1="341.32" x2="224.89" y2="341.15"/><line x1="351.04" y1="240.70" x2="349.84" y2="228.54"/><line x1="204.87" y1="75.07" x2="210.12" y2="75.51"/><line x1="232.01" y1="300.11" x2="234.95" y2="306.25"/><line x1="281.64" y1="327.32" x2="286.97" y2="324.98"/><line x1="250.51" y1="147.79" x2="246.84" y2="149.11"/><line x1="223.39" y1="346.34" x2="215.29" y2="352.96"/><line x1="161.76" y1="334.65" x2="161.69" y2="336.75"/><line x1="291.90" y1="359.31" x2="301.34" y2="355.87"/><line x1="237.54" y1="352.10" x2="240.50" y2="353.84"/><line x1="190.24" y1="311.79" x2="204.87" y2="75.07"/><line x1="345.07" y1="206.17" x2="341.50" y2="195.94"/><line x1="227.50" y1="219.89" x2="225.92" y2="227.54"/><line x1="225.92" y1="278.91" x2="163.44" y2="345.67"/><line x1="242.92" y1="317.49" x2="226.14" y2="341.57"/><line x1="309.21" y1="212.74" x2="306.81" y2="206.09"/><line x1="347.85" y1="289.34" x2="312.69" y2="278.91"/><line x1="190.24" y1="311.79" x2="224.79" y2="270.89"/><line x1="296.35" y1="317.49" x2="300.38" y2="312.33"/><line x1="247.49" y1="321.70" x2="232.46" y2="348.43"/><line x1="281.77" y1="144.82" x2="269.65" y2="177.00"/><line x1="177.49" y1="320.46" x2="161.76" y2="334.65"/><line x1="238.27" y1="75.88" x2="243.67" y2="75.64"/><line x1="208.45" y1="352.72" x2="224.11" y2="342.83"/><line x1="224.79" y1="270.89" x2="224.12" y2="262.43"/><line x1="325.38" y1="337.33" x2="331.96" y2="328.41"/><line x1="255.08" y1="359.91" x2="258.96" y2="360.85"/><line x1="300.38" y1="193.86" x2="296.35" y2="188.71"/><line x1="269.65" y1="177.00" x2="270.89" y2="144.14"/><line x1="242.25" y1="106.38" x2="245.61" y2="106.29"/><line x1="224.11" y1="342.83" x2="224.22" y2="342.37"/><line x1="166.35" y1="323.07" x2="165.11" y2="324.49"/><line x1="190.24" y1="311.79" x2="225.85" y2="118.09"/><line x1="258.96" y1="360.85" x2="262.88" y2="361.52"/><line x1="325.39" y1="168.57" x2="318.09" y2="161.11"/><line x1="351.43" y1="253.48" x2="314.44" y2="244.33"/><line x1="190.24" y1="311.79" x2="226.99" y2="76.07"/><line x1="199.81" y1="74.51" x2="204.87" y2="75.07"/><line x1="225.92" y1="278.91" x2="169.07" y2="351.91"/><line x1="254.01" y1="74.90" x2="277.14" y2="98.67"/><line x1="165.11" y1="324.49" x2="164.20" y2="325.89"/><line x1="232.46" y1="348.43" x2="234.86" y2="350.30"/><line x1="229.53" y1="293.51" x2="224.66" y2="341.32"/><line x1="314.44" y1="244.33" x2="351.04" y2="240.70"/><line x1="480.00" y1="32.02" x2="480.00" y2="64.50"/><line x1="196.49" y1="351.97" x2="193.74" y2="351.90"/><line x1="225.92" y1="278.91" x2="189.61" y2="315.81"/><line x1="277.14" y1="98.67" x2="277.64" y2="96.93"/><line x1="163.44" y1="345.67" x2="187.73" y2="318.71"/><line x1="257.79" y1="327.32" x2="263.53" y2="328.72"/><line x1="224.66" y1="341.32" x2="232.01" y2="300.11"/><line x1="309.21" y1="293.51" x2="311.17" y2="286.44"/><line x1="281.74" y1="361.36" x2="281.64" y2="327.32"/><line x1="480.00" y1="479.91" x2="480.00" y2="447.42"/><line x1="254.10" y1="146.67" x2="250.51" y2="147.79"/><line x1="193.74" y1="351.90" x2="191.07" y2="351.88"/><line x1="161.97" y1="332.66" x2="161.76" y2="334.65"/><line x1="281.64" y1="327.32" x2="291.90" y2="359.31"/><line x1="311.17" y1="219.89" x2="345.07" y2="206.17"/><line x1="269.65" y1="177.00" x2="263.53" y2="177.47"/><line x1="226.75" y1="113.58" x2="227.88" y2="111.73"/><line x1="161.76" y1="334.65" x2="179.44" y2="320.60"/><line x1="225.45" y1="341.14" x2="242.92" y2="317.49"/><line x1="351.04" y1="266.06" x2="351.43" y2="253.48"/><line x1="190.24" y1="311.79" x2="199.81" y2="74.51"/><line x1="345.07" y1="206.17" x2="309.21" y2="212.74"/><line x1="225.92" y1="278.91" x2="199.34" y2="352.09"/><line x1="447.51" y1="479.91" x2="480.00" y2="447.42"/><line x1="225.92" y1="278.91" x2="177.33" y2="352.72"/><line x1="254.01" y1="74.90" x2="272.20" y2="105.69"/><line x1="227.50" y1="286.44" x2="229.53" y2="293.51"/><line x1="277.99" y1="86.81" x2="277.64" y2="84.90"/><line x1="225.92" y1="278.91" x2="164.21" y2="347.13"/><line x1="242.92" y1="317.49" x2="225.78" y2="341.31"/><line x1="219.54" y1="351.83" x2="218.28" y2="352.35"/><line x1="235.88" y1="154.98" x2="232.88" y2="157.21"/><line x1="177.33" y1="352.72" x2="175.42" y2="353.02"/><line x1="163.44" y1="345.67" x2="181.22" y2="320.61"/><line x1="296.35" y1="317.49" x2="325.38" y2="337.33"/><line x1="222.77" y1="348.27" x2="223.10" y2="347.36"/><line x1="177.49" y1="320.46" x2="161.97" y2="332.66"/><line x1="238.27" y1="75.88" x2="242.25" y2="106.38"/><line x1="181.22" y1="320.61" x2="182.85" y2="320.50"/><line x1="300.38" y1="193.86" x2="325.39" y2="168.57"/><line x1="258.95" y1="74.39" x2="278.20" y2="88.82"/><line x1="267.44" y1="73.84" x2="269.14" y2="74.24"/><line x1="341.49" y1="310.12" x2="345.07" y2="300.04"/><line x1="190.24" y1="311.79" x2="221.18" y2="76.01"/><line x1="223.66" y1="345.20" x2="223.89" y2="343.97"/><line x1="225.92" y1="278.91" x2="188.51" y2="351.90"/><line x1="254.01" y1="74.90" x2="263.73" y2="107.36"/><line x1="225.92" y1="278.91" x2="170.54" y2="352.56"/><line x1="254.01" y1="74.90" x2="276.52" y2="100.29"/><line x1="269.14" y1="74.24" x2="270.73" y2="74.90"/><line x1="301.36" y1="150.25" x2="291.92" y2="146.86"/><line x1="213.56" y1="353.07" x2="211.67" y2="353.02"/><line x1="223.89" y1="253.48" x2="225.85" y2="118.09"/><line x1="163.44" y1="345.67" x2="186.82" y2="319.43"/><line x1="257.79" y1="327.32" x2="251.26" y2="358.72"/><line x1="281.64" y1="178.87" x2="275.87" y2="177.47"/><line x1="480.00" y1="479.91" x2="447.51" y2="479.91"/><line x1="263.73" y1="73.78" x2="265.64" y2="73.68"/><line x1="313.79" y1="270.89" x2="314.44" y2="262.43"/><line x1="247.49" y1="184.49" x2="242.92" y2="188.71"/><line x1="179.35" y1="352.46" x2="177.33" y2="352.72"/><line x1="258.95" y1="74.39" x2="263.73" y2="73.78"/><line x1="351.04" y1="266.06" x2="314.65" y2="253.48"/><line x1="318.09" y1="344.88" x2="296.35" y2="317.49"/><line x1="232.70" y1="76.02" x2="234.00" y2="107.76"/><line x1="190.24" y1="311.79" x2="190.24" y2="73.01"/><line x1="225.92" y1="278.91" x2="202.28" y2="352.25"/><line x1="225.92" y1="278.91" x2="179.35" y2="352.46"/><line x1="254.01" y1="74.90" x2="270.73" y2="106.55"/><line x1="227.50" y1="286.44" x2="224.55" y2="341.47"/><line x1="225.92" y1="278.91" x2="165.12" y2="348.47"/><line x1="269.65" y1="329.19" x2="270.85" y2="362.05"/><line x1="254.01" y1="74.90" x2="258.95" y2="74.39"/><line x1="219.54" y1="351.83" x2="222.77" y2="348.27"/><line x1="163.44" y1="327.41" x2="162.80" y2="329.05"/><line x1="163.44" y1="345.67" x2="162.81" y2="344.10"/><line x1="228.51" y1="344.51" x2="230.34" y2="346.50"/><line x1="313.79" y1="235.68" x2="312.69" y2="227.54"/><line x1="277.99" y1="95.06" x2="278.20" y2="93.07"/><line x1="177.49" y1="320.46" x2="162.32" y2="330.80"/><line x1="167.68" y1="351.01" x2="166.36" y2="349.87"/><line x1="224.89" y1="341.15" x2="225.16" y2="341.09"/><line x1="230.34" y1="346.50" x2="232.46" y2="348.43"/><line x1="349.84" y1="228.54" x2="347.86" y2="217.04"/><line x1="257.79" y1="178.87" x2="242.86" y2="150.92"/><line x1="238.74" y1="193.86" x2="234.95" y2="199.94"/><line x1="258.95" y1="74.39" x2="278.27" y2="90.95"/><line x1="166.36" y1="349.87" x2="165.12" y2="348.47"/><line x1="263.53" y1="328.72" x2="269.65" y2="329.19"/><line x1="234.95" y1="306.25" x2="238.74" y2="312.33"/><line x1="188.49" y1="317.87" x2="189.13" y2="316.90"/><line x1="224.22" y1="342.37" x2="224.33" y2="342.00"/><line x1="341.49" y1="310.12" x2="309.21" y2="293.51"/><line x1="222.02" y1="349.78" x2="222.41" y2="349.08"/><line x1="175.40" y1="320.19" x2="163.44" y2="327.41"/><line x1="223.66" y1="345.20" x2="213.56" y2="353.07"/><line x1="225.92" y1="278.91" x2="191.07" y2="351.88"/><line x1="254.01" y1="74.90" x2="258.50" y2="106.88"/><line x1="189.13" y1="316.90" x2="189.61" y2="315.81"/><line x1="254.01" y1="74.90" x2="275.74" y2="101.79"/><line x1="301.34" y1="355.87" x2="310.07" y2="351.06"/><line x1="243.74" y1="355.52" x2="257.79" y2="327.32"/><line x1="220.65" y1="351.17" x2="219.54" y2="351.83"/><line x1="301.36" y1="150.25" x2="281.64" y2="178.87"/><line x1="213.56" y1="353.07" x2="223.89" y2="343.97"/><line x1="172.07" y1="320.08" x2="170.52" y2="320.42"/><line x1="163.44" y1="345.67" x2="179.44" y2="320.60"/><line x1="223.89" y1="253.48" x2="224.12" y2="244.33"/><line x1="163.44" y1="345.67" x2="185.65" y2="319.91"/><line x1="257.79" y1="327.32" x2="247.48" y2="357.25"/><line x1="306.81" y1="206.09" x2="303.98" y2="199.94"/><line x1="263.53" y1="177.47" x2="257.79" y2="178.87"/><line x1="224.12" y1="244.33" x2="225.85" y2="118.09"/><line x1="263.73" y1="73.78" x2="275.74" y2="79.83"/><line x1="331.96" y1="177.40" x2="300.38" y2="193.86"/><line x1="224.12" y1="262.43" x2="223.89" y2="253.48"/><line x1="313.79" y1="270.89" x2="351.04" y2="266.06"/><line x1="247.49" y1="184.49" x2="225.85" y2="164.77"/><line x1="224.22" y1="342.37" x2="225.92" y2="278.91"/><line x1="272.20" y1="105.69" x2="273.57" y2="104.55"/><line x1="252.45" y1="324.98" x2="240.50" y2="353.84"/><line x1="242.92" y1="188.71" x2="238.74" y2="193.86"/><line x1="232.70" y1="76.02" x2="231.51" y2="108.82"/><line x1="267.68" y1="144.24" x2="264.41" y2="144.55"/><line x1="225.92" y1="278.91" x2="205.32" y2="352.46"/><line x1="306.81" y1="300.11" x2="341.49" y2="310.12"/><line x1="269.65" y1="329.19" x2="266.84" y2="361.92"/><line x1="210.12" y1="75.51" x2="215.55" y2="75.81"/><line x1="163.44" y1="327.41" x2="177.49" y2="320.46"/><line x1="286.97" y1="181.22" x2="301.36" y2="150.25"/><line x1="252.45" y1="181.22" x2="247.49" y2="184.49"/><line x1="313.79" y1="235.68" x2="349.84" y2="228.54"/><line x1="179.44" y1="320.60" x2="161.76" y2="338.75"/><line x1="277.99" y1="95.06" x2="258.95" y2="74.39"/><line x1="224.89" y1="341.15" x2="234.95" y2="306.25"/><line x1="286.97" y1="324.98" x2="291.88" y2="321.70"/><line x1="257.79" y1="178.87" x2="246.84" y2="149.11"/><line x1="349.84" y1="278.01" x2="313.79" y2="270.89"/><line x1="263.53" y1="328.72" x2="262.88" y2="361.52"/><line x1="341.50" y1="195.94" x2="337.12" y2="186.35"/><line x1="222.02" y1="349.78" x2="221.60" y2="350.37"/><line x1="232.70" y1="76.02" x2="238.27" y2="75.88"/><line x1="175.40" y1="320.19" x2="164.20" y2="325.89"/><line x1="229.47" y1="110.14" x2="231.51" y2="108.82"/><line x1="277.14" y1="83.10" x2="276.52" y2="81.41"/><line x1="230.21" y1="159.59" x2="227.86" y2="162.11"/><line x1="262.88" y1="361.52" x2="269.65" y2="329.19"/><line x1="300.38" y1="312.33" x2="303.98" y2="306.25"/><line x1="263.53" y1="177.47" x2="250.51" y2="147.79"/><line x1="218.28" y1="352.35" x2="216.86" y2="352.72"/><line x1="243.67" y1="75.64" x2="249.44" y2="106.35"/><line x1="179.44" y1="320.60" x2="181.22" y2="320.61"/><line x1="296.35" y1="188.71" x2="291.88" y2="184.49"/><line x1="225.85" y1="164.77" x2="224.12" y2="244.33"/><line x1="223.10" y1="347.36" x2="223.39" y2="346.34"/><line x1="164.20" y1="325.89" x2="163.44" y2="327.41"/><line x1="252.45" y1="324.98" x2="237.54" y2="352.10"/><line x1="318.09" y1="161.11" x2="310.09" y2="155.00"/><line x1="232.70" y1="76.02" x2="229.47" y2="110.14"/><line x1="480.00" y1="64.50" x2="447.51" y2="32.02"/><line x1="345.07" y1="300.04" x2="347.85" y2="289.34"/><line x1="224.33" y1="342.00" x2="227.50" y2="286.44"/><line x1="191.07" y1="351.88" x2="188.51" y2="351.90"/><line x1="252.45" y1="181.22" x2="230.21" y2="159.59"/><line x1="291.92" y1="146.86" x2="281.77" y2="144.82"/><line x1="211.67" y1="353.02" x2="208.45" y2="352.72"/><line x1="275.74" y1="79.83" x2="270.73" y2="74.90"/><line x1="179.44" y1="320.60" x2="161.69" y2="336.75"/><line x1="251.26" y1="358.72" x2="255.08" y2="359.91"/><line x1="286.97" y1="324.98" x2="301.34" y2="355.87"/><line x1="225.85" y1="164.77" x2="232.01" y2="206.09"/><line x1="275.87" y1="177.47" x2="269.65" y2="177.00"/><line x1="341.50" y1="195.94" x2="306.81" y2="206.09"/><line x1="194.93" y1="73.82" x2="199.81" y2="74.51"/><line x1="175.42" y1="353.02" x2="173.72" y2="353.12"/><line x1="277.14" y1="83.10" x2="263.73" y2="73.78"/><line x1="314.65" y1="253.48" x2="314.44" y2="244.33"/><line x1="230.21" y1="159.59" x2="247.49" y2="184.49"/><line x1="351.04" y1="240.70" x2="313.79" y2="235.68"/><line x1="300.38" y1="312.33" x2="331.96" y2="328.41"/><line x1="277.64" y1="96.93" x2="277.99" y2="95.06"/><line x1="263.53" y1="177.47" x2="254.10" y2="146.67"/><line x1="169.06" y1="321.03" x2="167.66" y2="321.92"/><line x1="232.01" y1="300.11" x2="224.89" y2="341.15"/><line x1="218.28" y1="352.35" x2="223.10" y2="347.36"/><line x1="243.67" y1="75.64" x2="245.61" y2="106.29"/><line x1="250.51" y1="147.79" x2="257.79" y2="178.87"/><line x1="275.87" y1="328.72" x2="281.64" y2="327.32"/><line x1="179.44" y1="320.60" x2="162.81" y2="344.10"/><line x1="296.35" y1="188.71" x2="318.09" y2="161.11"/><line x1="225.85" y1="164.77" x2="224.79" y2="235.68"/><line x1="291.90" y1="359.31" x2="286.97" y2="324.98"/><line x1="270.73" y1="74.90" x2="272.20" y2="75.80"/><line x1="291.88" y1="321.70" x2="296.35" y2="317.49"/><line x1="252.45" y1="324.98" x2="234.86" y2="350.30"/><line x1="227.88" y1="111.73" x2="229.47" y2="110.14"/><line x1="223.89" y1="343.97" x2="224.00" y2="343.36"/><line x1="232.01" y1="206.09" x2="229.53" y2="212.74"/><line x1="309.21" y1="212.74" x2="341.50" y2="195.94"/><line x1="345.07" y1="300.04" x2="311.17" y2="286.44"/><line x1="225.92" y1="278.91" x2="224.79" y2="270.89"/><line x1="277.64" y1="84.90" x2="277.14" y2="83.10"/><line x1="225.78" y1="341.31" x2="226.14" y2="341.57"/><line x1="263.73" y1="107.36" x2="265.64" y2="107.55"/><line x1="247.49" y1="321.70" x2="230.34" y2="346.50"/><line x1="189.96" y1="314.59" x2="190.17" y2="313.25"/><line x1="232.88" y1="157.21" x2="230.21" y2="159.59"/><line x1="291.92" y1="146.86" x2="275.87" y2="177.47"/><line x1="325.38" y1="337.33" x2="300.38" y2="312.33"/><line x1="275.74" y1="79.83" x2="269.14" y2="74.24"/><line x1="167.66" y1="321.92" x2="166.35" y2="323.07"/><line x1="251.26" y1="358.72" x2="263.53" y2="328.72"/><line x1="242.25" y1="106.38" x2="243.67" y2="75.64"/><line x1="182.85" y1="320.50" x2="184.33" y2="320.27"/><line x1="225.85" y1="164.77" x2="234.95" y2="199.94"/><line x1="32.16" y1="32.09" x2="32.16" y2="64.58"/><line x1="325.39" y1="168.57" x2="296.35" y2="188.71"/><line x1="226.07" y1="115.70" x2="226.75" y2="113.58"/><line x1="314.44" y1="262.43" x2="314.65" y2="253.48"/><line x1="261.05" y1="145.05" x2="257.61" y2="145.76"/><line x1="232.46" y1="348.43" x2="252.45" y2="324.98"/><line x1="274.83" y1="103.16" x2="275.74" y2="101.79"/><line x1="234.95" y1="199.94" x2="232.01" y2="206.09"/><line x1="270.85" y1="362.05" x2="281.74" y2="361.36"/><line x1="165.12" y1="348.47" x2="164.21" y2="347.13"/><line x1="225.92" y1="278.91" x2="189.13" y2="316.90"/><line x1="309.21" y1="293.51" x2="345.07" y2="300.04"/><line x1="258.50" y1="106.88" x2="263.73" y2="107.36"/><line x1="312.69" y1="227.54" x2="311.17" y2="219.89"/><line x1="208.45" y1="352.72" x2="205.32" y2="352.46"/><line x1="169.06" y1="321.03" x2="173.69" y2="320.00"/><line x1="275.74" y1="79.83" x2="274.83" y2="78.36"/><line x1="225.16" y1="341.09" x2="225.45" y2="341.14"/><line x1="173.69" y1="320.00" x2="175.40" y2="320.19"/><line x1="269.65" y1="177.00" x2="261.05" y2="145.05"/><line x1="225.85" y1="164.77" x2="225.92" y2="227.54"/><line x1="291.88" y1="321.70" x2="318.09" y2="344.88"/><line x1="223.89" y1="343.97" x2="211.67" y2="353.02"/><line x1="337.12" y1="186.35" x2="331.96" y2="177.40"/><line x1="225.92" y1="278.91" x2="190.24" y2="311.79"/><line x1="247.49" y1="321.70" x2="228.51" y2="344.51"/><line x1="222.77" y1="348.27" x2="218.28" y2="352.35"/><line x1="275.74" y1="79.83" x2="267.44" y2="73.84"/><line x1="32.00" y1="479.98" x2="64.49" y2="479.98"/><line x1="303.98" y1="306.25" x2="306.81" y2="300.11"/><line x1="190.24" y1="311.79" x2="215.55" y2="75.81"/><line x1="291.88" y1="184.49" x2="286.97" y2="181.22"/><line x1="225.92" y1="278.91" x2="172.09" y2="352.96"/><line x1="248.92" y1="75.31" x2="254.01" y2="74.90"/><line x1="242.92" y1="317.49" x2="247.49" y2="321.70"/><line x1="225.92" y1="278.91" x2="188.49" y2="317.87"/><line x1="189.61" y1="315.81" x2="189.96" y2="314.59"/><line x1="221.18" y1="76.01" x2="226.99" y2="76.07"/><line x1="190.24" y1="311.79" x2="223.89" y2="253.48"/><line x1="281.64" y1="178.87" x2="291.92" y2="146.86"/><line x1="208.45" y1="352.72" x2="225.92" y2="278.91"/><line x1="247.48" y1="357.25" x2="251.26" y2="358.72"/><line x1="278.20" y1="93.07" x2="278.27" y2="90.95"/><line x1="225.85" y1="118.09" x2="226.07" y2="115.70"/><line x1="173.69" y1="320.00" x2="167.66" y2="321.92"/><line x1="269.65" y1="177.00" x2="264.41" y2="144.55"/><line x1="258.95" y1="74.39" x2="277.14" y2="83.10"/><line x1="242.86" y1="150.92" x2="239.20" y2="152.88"/><line x1="351.04" y1="266.06" x2="314.44" y2="262.43"/><line x1="190.24" y1="311.79" x2="194.93" y2="73.82"/><line x1="273.57" y1="104.55" x2="274.83" y2="103.16"/><line x1="225.92" y1="278.91" x2="181.48" y2="352.25"/><line x1="254.01" y1="74.90" x2="269.14" y2="107.15"/><line x1="227.50" y1="286.44" x2="224.44" y2="341.69"/><line x1="225.92" y1="278.91" x2="166.36" y2="349.87"/><line x1="254.01" y1="74.90" x2="277.99" y2="95.06"/><line x1="234.00" y1="107.76" x2="236.94" y2="106.97"/><line x1="264.41" y1="144.55" x2="261.05" y2="145.05"/><line x1="249.44" y1="106.35" x2="253.73" y2="106.55"/><line x1="205.32" y1="352.46" x2="202.28" y2="352.25"/><line x1="337.12" y1="186.35" x2="303.98" y2="199.94"/><line x1="266.84" y1="361.92" x2="270.85" y2="362.05"/><line x1="215.55" y1="75.81" x2="221.18" y2="76.01"/><line x1="177.49" y1="320.46" x2="162.80" y2="329.05"/><line x1="227.86" y1="162.11" x2="225.85" y2="164.77"/><line x1="349.84" y1="228.54" x2="312.69" y2="227.54"/><line x1="32.00" y1="479.98" x2="32.00" y2="447.50"/><line x1="303.98" y1="306.25" x2="337.12" y2="319.58"/><line x1="258.95" y1="74.39" x2="278.20" y2="93.07"/><line x1="234.95" y1="306.25" x2="225.16" y2="341.09"/><line x1="223.39" y1="346.34" x2="223.66" y2="345.20"/><line x1="246.84" y1="149.11" x2="242.86" y2="150.92"/><line x1="186.05" y1="351.97" x2="183.71" y2="352.09"/><line x1="190.24" y1="311.79" x2="210.12" y2="75.51"/><line x1="225.92" y1="278.91" x2="193.74" y2="351.90"/><line x1="291.88" y1="184.49" x2="310.09" y2="155.00"/><line x1="225.92" y1="278.91" x2="173.72" y2="353.12"/><line x1="254.01" y1="74.90" x2="274.83" y2="103.16"/><line x1="301.34" y1="355.87" x2="291.88" y2="321.70"/><line x1="225.92" y1="278.91" x2="224.33" y2="342.00"/><line x1="242.92" y1="317.49" x2="226.53" y2="341.96"/><line x1="220.65" y1="351.17" x2="222.41" y2="349.08"/><line x1="231.51" y1="108.82" x2="234.00" y2="107.76"/><line x1="347.85" y1="289.34" x2="349.84" y2="278.01"/><line x1="161.76" y1="338.75" x2="161.97" y2="340.65"/><line x1="226.53" y1="341.96" x2="226.95" y2="342.46"/><line x1="163.44" y1="345.67" x2="184.33" y2="320.27"/><line x1="306.81" y1="206.09" x2="337.12" y2="186.35"/><line x1="190.24" y1="311.79" x2="224.12" y2="262.43"/><line x1="263.73" y1="73.78" x2="276.52" y2="81.41"/><line x1="281.77" y1="144.82" x2="270.89" y2="144.14"/><line x1="177.49" y1="320.46" x2="179.44" y2="320.60"/><line x1="208.45" y1="352.72" x2="224.22" y2="342.37"/><line x1="331.96" y1="328.41" x2="337.12" y2="319.58"/><line x1="247.49" y1="184.49" x2="227.86" y2="162.11"/><line x1="276.52" y1="81.41" x2="275.74" y2="79.83"/><line x1="258.95" y1="74.39" x2="277.64" y2="84.90"/><line x1="216.86" y1="352.72" x2="215.29" y2="352.96"/><line x1="190.24" y1="311.79" x2="226.07" y2="115.70"/><line x1="351.43" y1="253.48" x2="351.04" y2="240.70"/><line x1="190.24" y1="311.79" x2="232.70" y2="76.02"/><line x1="225.92" y1="278.91" x2="183.71" y2="352.09"/><line x1="254.01" y1="74.90" x2="267.44" y2="107.48"/><line x1="225.92" y1="278.91" x2="167.68" y2="351.01"/><line x1="254.01" y1="74.90" x2="277.64" y2="96.93"/><line x1="229.53" y1="293.51" x2="232.01" y2="300.11"/><line x1="249.44" y1="106.35" x2="248.92" y2="75.31"/><line x1="311.17" y1="286.44" x2="312.69" y2="278.91"/><line x1="281.74" y1="361.36" x2="291.90" y2="359.31"/><line x1="188.51" y1="351.90" x2="186.05" y2="351.97"/><line x1="273.57" y1="76.96" x2="274.83" y2="78.36"/><line x1="224.00" y1="343.36" x2="224.11" y2="342.83"/><line x1="311.17" y1="219.89" x2="309.21" y2="212.74"/><line x1="161.69" y1="336.75" x2="161.76" y2="338.75"/><line x1="263.53" y1="328.72" x2="258.96" y2="360.85"/><line x1="225.45" y1="341.14" x2="225.78" y2="341.31"/><line x1="222.02" y1="349.78" x2="220.65" y2="351.17"/><line x1="232.70" y1="76.02" x2="239.36" y2="106.61"/><line x1="175.40" y1="320.19" x2="165.11" y2="324.49"/><line x1="225.92" y1="278.91" x2="196.49" y2="351.97"/><line x1="226.14" y1="341.57" x2="226.53" y2="341.96"/><line x1="225.92" y1="278.91" x2="175.42" y2="353.02"/><line x1="254.01" y1="74.90" x2="273.57" y2="104.55"/><line x1="220.65" y1="351.17" x2="221.60" y2="350.37"/><line x1="173.72" y1="353.12" x2="172.09" y2="352.96"/><line x1="224.55" y1="341.47" x2="224.66" y2="341.32"/><line x1="226.53" y1="341.96" x2="247.49" y2="321.70"/><line x1="163.44" y1="345.67" x2="182.85" y2="320.50"/><line x1="172.09" y1="352.96" x2="170.54" y2="352.56"/><line x1="184.33" y1="320.27" x2="185.65" y2="319.91"/><line x1="331.96" y1="328.41" x2="303.98" y2="306.25"/><line x1="223.10" y1="347.36" x2="216.86" y2="352.72"/><line x1="257.79" y1="178.87" x2="252.45" y2="181.22"/><line x1="245.61" y1="106.29" x2="249.44" y2="106.35"/><line x1="185.65" y1="319.91" x2="186.82" y2="319.43"/><line x1="258.95" y1="74.39" x2="277.99" y2="86.81"/><line x1="318.09" y1="161.11" x2="291.88" y2="184.49"/><line x1="232.70" y1="76.02" x2="227.88" y2="111.73"/><line x1="216.86" y1="352.72" x2="223.39" y2="346.34"/><line x1="164.21" y1="347.13" x2="163.44" y2="345.67"/><line x1="272.20" y1="75.80" x2="273.57" y2="76.96"/><line x1="225.92" y1="278.91" x2="186.05" y2="351.97"/><line x1="234.86" y1="350.30" x2="237.54" y2="352.10"/><line x1="254.01" y1="74.90" x2="265.64" y2="107.55"/><line x1="229.53" y1="212.74" x2="227.50" y2="219.89"/><line x1="311.17" y1="286.44" x2="347.85" y2="289.34"/><line x1="252.45" y1="181.22" x2="232.88" y2="157.21"/><line x1="211.67" y1="353.02" x2="224.00" y2="343.36"/><line x1="265.64" y1="107.55" x2="267.44" y2="107.48"/><line x1="190.17" y1="313.25" x2="190.24" y2="311.79"/><line x1="275.87" y1="177.47" x2="281.77" y2="144.82"/><line x1="224.00" y1="343.36" x2="208.45" y2="352.72"/><line x1="267.44" y1="107.48" x2="269.14" y2="107.15"/><line x1="263.53" y1="328.72" x2="255.08" y2="359.91"/><line x1="252.45" y1="324.98" x2="257.79" y2="327.32"/><line x1="194.93" y1="73.82" x2="190.24" y2="73.01"/><line x1="232.70" y1="76.02" x2="236.94" y2="106.97"/><line x1="318.09" y1="344.88" x2="325.38" y2="337.33"/><line x1="175.40" y1="320.19" x2="166.35" y2="323.07"/><line x1="314.65" y1="253.48" x2="351.43" y2="253.48"/><line x1="64.64" y1="32.09" x2="32.16" y2="64.58"/><line x1="269.65" y1="329.19" x2="275.87" y2="328.72"/><line x1="275.74" y1="101.79" x2="276.52" y2="100.29"/><line x1="224.55" y1="341.47" x2="229.53" y2="293.51"/><line x1="263.53" y1="177.47" x2="257.61" y2="145.76"/><line x1="276.52" y1="100.29" x2="277.14" y2="98.67"/><line x1="275.87" y1="328.72" x2="281.74" y2="361.36"/><line x1="179.44" y1="320.60" x2="162.32" y2="342.42"/><line x1="347.86" y1="217.04" x2="345.07" y2="206.17"/><line x1="257.61" y1="145.76" x2="254.10" y2="146.67"/><line x1="226.99" y1="76.07" x2="232.70" y2="76.02"/><line x1="257.79" y1="178.87" x2="239.20" y2="152.88"/><line x1="238.74" y1="312.33" x2="242.92" y2="317.49"/><line x1="239.20" y1="152.88" x2="235.88" y2="154.98"/><line x1="232.70" y1="76.02" x2="226.75" y2="113.58"/><line x1="175.40" y1="320.19" x2="177.49" y2="320.46"/><line x1="243.74" y1="355.52" x2="247.48" y2="357.25"/><line x1="278.20" y1="88.82" x2="277.99" y2="86.81"/><line x1="172.07" y1="320.08" x2="173.69" y2="320.00"/><line x1="303.98" y1="199.94" x2="300.38" y2="193.86"/><line x1="222.41" y1="349.08" x2="222.77" y2="348.27"/><line x1="252.45" y1="181.22" x2="235.88" y2="154.98"/><line x1="239.36" y1="106.61" x2="242.25" y2="106.38"/><line x1="167.66" y1="321.92" x2="175.40" y2="320.19"/><line x1="331.96" y1="177.40" x2="325.39" y2="168.57"/><line x1="225.85" y1="164.77" x2="238.74" y2="193.86"/><line x1="32.16" y1="32.09" x2="64.64" y2="32.09"/><line x1="226.07" y1="115.70" x2="232.70" y2="76.02"/><line x1="224.44" y1="341.69" x2="224.55" y2="341.47"/><line x1="337.12" y1="319.58" x2="341.49" y2="310.12"/><line x1="252.45" y1="324.98" x2="243.74" y2="355.52"/><line x1="261.05" y1="145.05" x2="263.53" y2="177.47"/><line x1="202.28" y1="352.25" x2="199.34" y2="352.09"/><line x1="306.81" y1="300.11" x2="309.21" y2="293.51"/><line x1="270.85" y1="362.05" x2="275.87" y2="328.72"/><line x1="310.09" y1="155.00" x2="301.36" y2="150.25"/><line x1="215.29" y1="352.96" x2="213.56" y2="353.07"/><line x1="225.92" y1="278.91" x2="227.50" y2="286.44"/><line x1="253.73" y1="106.55" x2="258.50" y2="106.88"/><line x1="199.34" y1="352.09" x2="196.49" y2="351.97"/><line x1="162.80" y1="329.05" x2="162.32" y2="330.80"/><line x1="286.97" y1="181.22" x2="281.64" y2="178.87"/><line x1="312.69" y1="227.54" x2="347.86" y2="217.04"/><line x1="32.00" y1="447.50" x2="64.49" y2="479.98"/></g></svg>