<svg xmlns="http://www.w3.org/2000/svg" width="512" height="512"><rect width="512" height="512" fill="#0a0f1a"/><text x="12" y="20" font-family="monospace" font-size="11" fill="#4a7fa5">FRONT (XZ)</text><g stroke="#00d4ff" stroke-width="0.6" opacity="0.85"><line x1="174.00" y1="150.95" x2="161.59" y2="160.93"/><line x1="348.04" y1="153.63" x2="348.96" y2="155.02"/><line x1="335.45" y1="184.00" x2="323.17" y2="152.23"/><line x1="236.82" y1="153.25" x2="235.70" y2="152.12"/><line x1="291.28" y1="151.73" x2="271.76" y2="173.81"/><line x1="176.89" y1="182.58" x2="177.49" y2="182.87"/><line x1="291.28" y1="151.73" x2="282.31" y2="183.06"/><line x1="280.71" y1="182.96" x2="282.31" y2="183.06"/><line x1="323.17" y1="152.23" x2="334.78" y2="184.40"/><line x1="331.15" y1="151.85" x2="337.66" y2="183.15"/><line x1="221.72" y1="191.03" x2="221.44" y2="189.43"/><line x1="228.68" y1="182.48" x2="227.44" y2="182.51"/><line x1="216.47" y1="151.73" x2="223.69" y2="183.26"/><line x1="163.06" y1="176.93" x2="163.77" y2="178.29"/><line x1="282.31" y1="183.06" x2="284.01" y2="182.87"/><line x1="351.45" y1="161.13" x2="351.77" y2="162.93"/><line x1="161.59" y1="160.93" x2="161.32" y2="162.69"/><line x1="224.44" y1="182.98" x2="223.69" y2="183.26"/><line x1="351.77" y1="162.93" x2="334.63" y2="151.57"/><line x1="332.74" y1="187.08" x2="308.81" y2="152.41"/><line x1="224.79" y1="150.95" x2="220.71" y2="151.38"/><line x1="180.36" y1="185.83" x2="181.28" y2="187.25"/><line x1="280.71" y1="150.29" x2="275.22" y2="152.60"/><line x1="288.65" y1="182.76" x2="289.47" y2="182.98"/><line x1="223.69" y1="183.26" x2="223.07" y2="183.60"/><line x1="308.81" y1="152.41" x2="332.02" y2="188.27"/><line x1="169.74" y1="182.58" x2="171.01" y2="182.48"/><line x1="291.28" y1="151.73" x2="275.22" y2="179.79"/><line x1="289.47" y1="182.98" x2="299.55" y2="152.26"/><line x1="291.28" y1="151.73" x2="287.73" y2="182.61"/><line x1="331.15" y1="151.85" x2="351.45" y2="172.57"/><line x1="331.15" y1="151.85" x2="343.21" y2="182.84"/><line x1="228.68" y1="182.48" x2="237.85" y2="178.29"/><line x1="216.47" y1="151.73" x2="221.60" y2="185.66"/><line x1="351.45" y1="172.57" x2="351.02" y2="174.26"/><line x1="171.03" y1="150.44" x2="165.46" y2="152.12"/><line x1="271.76" y1="158.37" x2="271.27" y2="160.11"/><line x1="271.25" y1="355.42" x2="245.60" y2="358.32"/><line x1="184.62" y1="152.00" x2="176.89" y2="182.58"/><line x1="292.24" y1="185.50" x2="292.46" y2="186.56"/><line x1="174.00" y1="150.95" x2="161.97" y2="159.24"/><line x1="221.44" y1="189.43" x2="221.32" y2="188.00"/><line x1="240.66" y1="170.38" x2="240.84" y2="168.48"/><line x1="291.28" y1="151.73" x2="271.27" y2="172.07"/><line x1="176.89" y1="182.58" x2="188.72" y2="152.20"/><line x1="260.85" y1="361.64" x2="264.62" y2="360.39"/><line x1="291.28" y1="151.73" x2="280.71" y2="182.96"/><line x1="331.15" y1="151.85" x2="348.96" y2="178.68"/><line x1="167.45" y1="150.65" x2="166.41" y2="151.25"/><line x1="331.15" y1="151.85" x2="338.46" y2="183.00"/><line x1="228.68" y1="182.48" x2="240.35" y2="172.18"/><line x1="197.76" y1="152.35" x2="202.69" y2="152.32"/><line x1="216.47" y1="151.73" x2="224.44" y2="182.98"/><line x1="345.92" y1="151.63" x2="342.04" y2="150.63"/><line x1="274.10" y1="351.70" x2="271.25" y2="355.42"/><line x1="480.00" y1="32.02" x2="447.51" y2="32.02"/><line x1="161.59" y1="160.93" x2="177.26" y2="151.38"/><line x1="242.44" y1="355.42" x2="216.47" y2="151.73"/><line x1="180.36" y1="185.83" x2="202.69" y2="152.32"/><line x1="336.89" y1="183.37" x2="336.15" y2="183.65"/><line x1="212.04" y1="152.00" x2="234.65" y2="341.76"/><line x1="272.39" y1="156.75" x2="271.76" y2="158.37"/><line x1="291.28" y1="151.73" x2="274.07" y2="178.29"/><line x1="337.77" y1="151.23" x2="350.46" y2="157.86"/><line x1="291.28" y1="151.73" x2="286.69" y2="182.51"/><line x1="331.15" y1="151.85" x2="344.58" y2="182.48"/><line x1="225.31" y1="182.76" x2="236.82" y2="153.25"/><line x1="225.31" y1="182.76" x2="216.47" y2="151.73"/><line x1="176.18" y1="182.37" x2="184.62" y2="152.00"/><line x1="291.84" y1="184.66" x2="292.24" y2="185.50"/><line x1="318.66" y1="152.32" x2="313.81" y2="152.35"/><line x1="227.44" y1="182.51" x2="240.66" y2="170.38"/><line x1="304.05" y1="152.39" x2="242.44" y2="355.42"/><line x1="334.12" y1="185.14" x2="333.43" y2="186.03"/><line x1="346.98" y1="181.04" x2="345.83" y2="181.87"/><line x1="231.77" y1="182.61" x2="235.70" y2="180.81"/><line x1="162.46" y1="157.63" x2="161.97" y2="159.24"/><line x1="270.71" y1="168.20" x2="291.28" y2="151.73"/><line x1="345.83" y1="181.87" x2="344.58" y2="182.48"/><line x1="258.37" y1="297.15" x2="257.85" y2="297.97"/><line x1="161.97" y1="159.24" x2="161.59" y2="160.93"/><line x1="291.28" y1="151.73" x2="270.92" y2="170.19"/><line x1="343.43" y1="150.70" x2="345.92" y2="151.63"/><line x1="337.77" y1="151.23" x2="334.63" y2="151.57"/><line x1="331.15" y1="151.85" x2="349.76" y2="177.32"/><line x1="257.85" y1="297.97" x2="257.37" y2="298.46"/><line x1="167.45" y1="150.65" x2="168.57" y2="150.31"/><line x1="225.31" y1="182.76" x2="240.35" y2="160.75"/><line x1="331.15" y1="151.85" x2="339.28" y2="182.90"/><line x1="225.31" y1="182.76" x2="231.77" y2="150.31"/><line x1="197.76" y1="152.35" x2="180.36" y2="185.83"/><line x1="345.92" y1="151.63" x2="344.72" y2="151.03"/><line x1="338.46" y1="183.00" x2="337.66" y2="183.15"/><line x1="240.35" y1="160.75" x2="239.91" y2="159.06"/><line x1="287.52" y1="151.33" x2="270.64" y2="166.08"/><line x1="480.00" y1="32.02" x2="480.00" y2="64.50"/><line x1="290.78" y1="183.60" x2="291.27" y2="184.01"/><line x1="274.07" y1="178.29" x2="275.22" y2="179.79"/><line x1="304.05" y1="152.39" x2="308.81" y2="152.41"/><line x1="337.66" y1="183.15" x2="336.89" y2="183.37"/><line x1="255.11" y1="296.01" x2="254.50" y2="294.53"/><line x1="480.00" y1="479.91" x2="480.00" y2="447.42"/><line x1="161.16" y1="168.48" x2="161.32" y2="170.38"/><line x1="275.22" y1="179.79" x2="276.45" y2="181.00"/><line x1="348.96" y1="155.02" x2="337.77" y2="151.23"/><line x1="254.50" y1="294.53" x2="253.84" y2="292.73"/><line x1="235.70" y1="152.12" x2="234.49" y2="151.25"/><line x1="212.04" y1="152.00" x2="183.97" y2="192.83"/><line x1="337.77" y1="151.23" x2="349.77" y2="156.39"/><line x1="334.78" y1="184.40" x2="318.66" y2="152.32"/><line x1="226.31" y1="182.61" x2="225.31" y2="182.76"/><line x1="234.49" y1="151.25" x2="233.18" y2="150.65"/><line x1="225.31" y1="182.76" x2="237.85" y2="154.64"/><line x1="447.51" y1="479.91" x2="480.00" y2="447.42"/><line x1="225.31" y1="182.76" x2="220.71" y2="151.38"/><line x1="318.66" y1="152.32" x2="334.12" y2="185.14"/><line x1="275.22" y1="152.60" x2="274.07" y2="153.88"/><line x1="164.57" y1="179.58" x2="165.45" y2="180.65"/><line x1="285.54" y1="182.48" x2="286.69" y2="182.51"/><line x1="304.05" y1="152.39" x2="329.80" y2="192.83"/><line x1="231.77" y1="182.61" x2="233.17" y2="182.27"/><line x1="282.31" y1="150.42" x2="284.01" y2="150.83"/><line x1="299.55" y1="152.26" x2="290.78" y2="183.60"/><line x1="223.07" y1="183.60" x2="222.57" y2="184.01"/><line x1="351.95" y1="164.83" x2="352.01" y2="166.85"/><line x1="180.80" y1="151.73" x2="166.41" y2="181.49"/><line x1="180.80" y1="151.73" x2="176.18" y2="182.37"/><line x1="271.27" y1="160.11" x2="270.92" y2="161.98"/><line x1="225.31" y1="182.76" x2="233.18" y2="150.65"/><line x1="242.44" y1="355.42" x2="257.85" y2="297.97"/><line x1="242.44" y1="355.42" x2="253.10" y2="290.60"/><line x1="287.52" y1="151.33" x2="270.71" y2="163.97"/><line x1="227.44" y1="182.51" x2="226.31" y2="182.61"/><line x1="276.63" y1="347.14" x2="274.10" y2="351.70"/><line x1="163.77" y1="154.64" x2="163.06" y2="156.10"/><line x1="188.72" y1="152.20" x2="178.46" y2="183.64"/><line x1="480.00" y1="479.91" x2="447.51" y2="479.91"/><line x1="259.49" y1="294.53" x2="258.91" y2="296.01"/><line x1="180.80" y1="151.73" x2="162.46" y2="175.45"/><line x1="240.91" y1="166.46" x2="240.84" y2="164.45"/><line x1="180.80" y1="151.73" x2="171.01" y2="182.48"/><line x1="284.01" y1="182.87" x2="285.54" y2="182.48"/><line x1="226.31" y1="182.61" x2="240.66" y2="162.54"/><line x1="234.48" y1="181.67" x2="231.77" y2="182.61"/><line x1="177.26" y1="151.38" x2="161.16" y2="164.54"/><line x1="225.31" y1="182.76" x2="238.66" y2="156.00"/><line x1="242.44" y1="355.42" x2="276.63" y2="347.14"/><line x1="334.63" y1="151.57" x2="351.95" y2="164.83"/><line x1="242.44" y1="355.42" x2="256.14" y2="297.97"/><line x1="202.69" y1="152.32" x2="182.20" y2="188.89"/><line x1="275.22" y1="152.60" x2="282.31" y2="150.42"/><line x1="342.04" y1="150.63" x2="340.56" y2="150.83"/><line x1="304.05" y1="152.39" x2="330.56" y2="191.15"/><line x1="332.02" y1="188.27" x2="331.30" y2="189.63"/><line x1="347.03" y1="152.50" x2="348.04" y2="153.63"/><line x1="299.55" y1="152.26" x2="290.18" y2="183.26"/><line x1="327.33" y1="152.07" x2="335.45" y2="184.00"/><line x1="331.30" y1="189.63" x2="330.56" y2="191.15"/><line x1="180.80" y1="151.73" x2="165.45" y2="180.65"/><line x1="180.80" y1="151.73" x2="175.36" y2="182.23"/><line x1="172.26" y1="182.30" x2="173.41" y2="182.20"/><line x1="290.18" y1="183.26" x2="290.78" y2="183.60"/><line x1="351.02" y1="174.26" x2="350.46" y2="175.85"/><line x1="238.66" y1="176.93" x2="239.35" y2="175.45"/><line x1="276.45" y1="151.61" x2="280.71" y2="150.29"/><line x1="271.27" y1="160.11" x2="287.52" y2="151.33"/><line x1="304.05" y1="152.39" x2="291.65" y2="192.80"/><line x1="245.60" y1="358.32" x2="249.04" y2="360.39"/><line x1="313.81" y1="152.35" x2="308.81" y2="152.41"/><line x1="350.46" y1="175.85" x2="349.76" y2="177.32"/><line x1="242.44" y1="355.42" x2="258.37" y2="297.15"/><line x1="334.63" y1="151.57" x2="331.15" y2="151.85"/><line x1="242.44" y1="355.42" x2="253.84" y2="292.73"/><line x1="164.57" y1="153.25" x2="163.77" y2="154.64"/><line x1="287.52" y1="151.33" x2="270.92" y2="161.98"/><line x1="292.46" y1="186.56" x2="292.52" y2="187.81"/><line x1="295.29" y1="152.04" x2="299.55" y2="152.26"/><line x1="188.72" y1="152.20" x2="177.49" y2="182.87"/><line x1="292.52" y1="187.81" x2="292.40" y2="189.27"/><line x1="220.71" y1="151.38" x2="216.47" y2="151.73"/><line x1="344.58" y1="182.48" x2="343.21" y2="182.84"/><line x1="180.80" y1="151.73" x2="161.97" y2="173.87"/><line x1="169.76" y1="150.25" x2="171.03" y2="150.44"/><line x1="240.91" y1="166.46" x2="226.31" y2="182.61"/><line x1="284.01" y1="150.83" x2="271.76" y2="158.37"/><line x1="180.80" y1="151.73" x2="169.74" y2="182.58"/><line x1="270.92" y1="170.19" x2="271.27" y2="172.07"/><line x1="329.80" y1="192.83" x2="278.86" y2="341.76"/><line x1="343.21" y1="182.84" x2="341.73" y2="182.98"/><line x1="171.01" y1="182.48" x2="172.26" y2="182.30"/><line x1="177.26" y1="151.38" x2="161.32" y2="162.69"/><line x1="304.05" y1="152.39" x2="292.24" y2="185.50"/><line x1="271.27" y1="172.07" x2="271.76" y2="173.81"/><line x1="237.85" y1="178.29" x2="238.66" y2="176.93"/><line x1="242.44" y1="355.42" x2="260.09" y2="292.73"/><line x1="242.44" y1="355.42" x2="256.56" y2="298.46"/><line x1="256.92" y1="298.63" x2="256.56" y2="298.46"/><line x1="202.69" y1="152.32" x2="181.28" y2="187.25"/><line x1="342.04" y1="150.63" x2="347.03" y2="152.50"/><line x1="165.46" y1="152.12" x2="164.57" y2="153.25"/><line x1="239.35" y1="157.47" x2="238.66" y2="156.00"/><line x1="327.33" y1="152.07" x2="336.15" y2="183.65"/><line x1="180.80" y1="151.73" x2="164.57" y2="179.58"/><line x1="161.59" y1="172.18" x2="161.97" y2="173.87"/><line x1="240.84" y1="168.48" x2="240.91" y2="166.46"/><line x1="276.45" y1="151.61" x2="277.77" y2="150.89"/><line x1="234.65" y1="341.76" x2="236.97" y2="347.14"/><line x1="304.05" y1="152.39" x2="292.12" y2="190.93"/><line x1="313.81" y1="152.35" x2="332.74" y2="187.08"/><line x1="242.44" y1="355.42" x2="258.91" y2="296.01"/><line x1="271.25" y1="355.42" x2="268.09" y2="358.32"/><line x1="257.37" y1="298.46" x2="256.92" y2="298.63"/><line x1="287.73" y1="182.61" x2="288.65" y2="182.76"/><line x1="235.70" y1="180.81" x2="236.82" y2="179.68"/><line x1="274.07" y1="153.88" x2="273.17" y2="155.25"/><line x1="169.76" y1="150.25" x2="166.41" y2="151.25"/><line x1="284.01" y1="150.83" x2="272.39" y2="156.75"/><line x1="216.47" y1="151.73" x2="212.04" y2="152.00"/><line x1="216.47" y1="151.73" x2="222.00" y2="184.75"/><line x1="480.00" y1="64.50" x2="447.51" y2="32.02"/><line x1="304.05" y1="152.39" x2="291.84" y2="184.66"/><line x1="276.45" y1="181.00" x2="277.77" y2="181.94"/><line x1="174.00" y1="150.95" x2="162.46" y2="157.63"/><line x1="256.75" y1="362.05" x2="260.85" y2="361.64"/><line x1="349.77" y1="156.39" x2="350.46" y2="157.86"/><line x1="253.10" y1="290.60" x2="222.19" y2="192.80"/><line x1="291.28" y1="151.73" x2="279.20" y2="182.59"/><line x1="178.46" y1="183.64" x2="179.41" y2="184.62"/><line x1="228.68" y1="182.48" x2="239.91" y2="173.87"/><line x1="216.47" y1="151.73" x2="239.57" y2="351.70"/><line x1="231.77" y1="150.31" x2="230.28" y2="150.25"/><line x1="193.10" y1="152.32" x2="197.76" y2="152.35"/><line x1="286.69" y1="182.51" x2="287.73" y2="182.61"/><line x1="304.05" y1="152.39" x2="292.40" y2="189.27"/><line x1="171.03" y1="150.44" x2="174.00" y2="150.95"/><line x1="240.66" y1="162.54" x2="240.35" y2="160.75"/><line x1="271.25" y1="355.42" x2="256.75" y2="362.05"/><line x1="166.41" y1="181.49" x2="167.44" y2="182.09"/><line x1="340.56" y1="150.83" x2="337.77" y2="151.23"/><line x1="239.91" y1="159.06" x2="239.35" y2="157.47"/><line x1="235.70" y1="180.81" x2="230.28" y2="182.67"/><line x1="161.10" y1="166.46" x2="161.16" y2="168.48"/><line x1="336.89" y1="183.37" x2="327.33" y2="152.07"/><line x1="274.07" y1="153.88" x2="284.01" y2="150.83"/><line x1="222.00" y1="184.75" x2="221.60" y2="185.66"/><line x1="161.32" y1="170.38" x2="161.59" y2="172.18"/><line x1="291.28" y1="151.73" x2="273.17" y2="176.92"/><line x1="169.76" y1="150.25" x2="168.57" y2="150.31"/><line x1="291.28" y1="151.73" x2="285.54" y2="182.48"/><line x1="207.46" y1="152.20" x2="212.04" y2="152.00"/><line x1="253.84" y1="292.73" x2="253.10" y2="290.60"/><line x1="331.15" y1="151.85" x2="345.83" y2="181.87"/><line x1="331.15" y1="151.85" x2="327.33" y2="152.07"/><line x1="329.80" y1="192.83" x2="242.44" y2="355.42"/><line x1="183.97" y1="192.83" x2="234.65" y2="341.76"/><line x1="216.47" y1="151.73" x2="222.57" y2="184.01"/><line x1="174.44" y1="182.18" x2="175.36" y2="182.23"/><line x1="233.18" y1="150.65" x2="231.77" y2="150.31"/><line x1="239.91" y1="173.87" x2="240.35" y2="172.18"/><line x1="334.12" y1="185.14" x2="313.81" y2="152.35"/><line x1="252.75" y1="361.64" x2="256.75" y2="362.05"/><line x1="348.96" y1="178.68" x2="348.02" y2="179.97"/><line x1="165.45" y1="180.65" x2="166.41" y2="181.49"/><line x1="174.00" y1="150.95" x2="163.06" y2="156.10"/><line x1="222.57" y1="184.01" x2="222.00" y2="184.75"/><line x1="352.01" y1="166.85" x2="351.95" y2="168.87"/><line x1="32.16" y1="32.09" x2="32.16" y2="64.58"/><line x1="291.28" y1="151.73" x2="277.77" y2="181.94"/><line x1="337.77" y1="151.23" x2="351.77" y2="162.93"/><line x1="178.46" y1="183.64" x2="193.10" y2="152.32"/><line x1="331.15" y1="151.85" x2="350.46" y2="175.85"/><line x1="167.45" y1="150.65" x2="169.76" y2="150.25"/><line x1="331.15" y1="151.85" x2="340.15" y2="182.87"/><line x1="228.68" y1="182.48" x2="239.35" y2="175.45"/><line x1="216.47" y1="151.73" x2="236.97" y2="347.14"/><line x1="240.84" y1="164.45" x2="240.66" y2="162.54"/><line x1="330.56" y1="191.15" x2="329.80" y2="192.83"/><line x1="216.47" y1="151.73" x2="221.32" y2="188.00"/><line x1="173.41" y1="182.20" x2="174.44" y2="182.18"/><line x1="290.78" y1="183.60" x2="304.05" y2="152.39"/><line x1="171.03" y1="150.44" x2="163.77" y2="154.64"/><line x1="182.20" y1="188.89" x2="183.09" y2="190.75"/><line x1="239.35" y1="175.45" x2="239.91" y2="173.87"/><line x1="340.56" y1="150.83" x2="348.96" y2="155.02"/><line x1="249.04" y1="360.39" x2="252.75" y2="361.64"/><line x1="335.45" y1="184.00" x2="334.78" y2="184.40"/><line x1="291.28" y1="151.73" x2="272.39" y2="175.43"/><line x1="291.28" y1="151.73" x2="284.01" y2="182.87"/><line x1="331.15" y1="151.85" x2="346.98" y2="181.04"/><line x1="331.15" y1="151.85" x2="336.89" y2="183.37"/><line x1="225.31" y1="182.76" x2="224.79" y2="150.95"/><line x1="270.92" y1="161.98" x2="270.71" y2="163.97"/><line x1="332.74" y1="187.08" x2="332.02" y2="188.27"/><line x1="282.31" y1="150.42" x2="274.07" y2="153.88"/><line x1="32.00" y1="479.98" x2="64.49" y2="479.98"/><line x1="236.82" y1="179.68" x2="237.85" y2="178.29"/><line x1="291.28" y1="151.73" x2="276.45" y2="181.00"/><line x1="337.77" y1="151.23" x2="351.45" y2="161.13"/><line x1="331.15" y1="151.85" x2="351.02" y2="174.26"/><line x1="331.15" y1="151.85" x2="341.73" y2="182.98"/><line x1="225.31" y1="182.76" x2="234.49" y2="151.25"/><line x1="166.41" y1="151.25" x2="165.46" y2="152.12"/><line x1="227.44" y1="182.51" x2="240.91" y2="166.46"/><line x1="349.76" y1="177.32" x2="348.96" y2="178.68"/><line x1="182.20" y1="188.89" x2="207.46" y2="152.20"/><line x1="163.77" y1="154.64" x2="174.00" y2="150.95"/><line x1="184.62" y1="152.00" x2="188.72" y2="152.20"/><line x1="177.49" y1="182.87" x2="178.46" y2="183.64"/><line x1="292.40" y1="189.27" x2="292.12" y2="190.93"/><line x1="162.46" y1="175.45" x2="163.06" y2="176.93"/><line x1="343.43" y1="150.70" x2="342.04" y2="150.63"/><line x1="226.31" y1="182.61" x2="240.84" y2="164.45"/><line x1="331.15" y1="151.85" x2="348.02" y2="179.97"/><line x1="225.31" y1="182.76" x2="239.35" y2="157.47"/><line x1="225.31" y1="182.76" x2="228.69" y2="150.44"/><line x1="341.73" y1="182.98" x2="340.15" y2="182.87"/><line x1="345.92" y1="151.63" x2="347.03" y2="152.50"/><line x1="242.44" y1="355.42" x2="221.44" y2="189.43"/><line x1="161.32" y1="162.69" x2="161.16" y2="164.54"/><line x1="271.76" y1="173.81" x2="272.39" y2="175.43"/><line x1="287.52" y1="151.33" x2="291.28" y2="151.73"/><line x1="291.65" y1="192.80" x2="260.73" y2="290.60"/><line x1="228.69" y1="150.44" x2="224.79" y2="150.95"/><line x1="304.05" y1="152.39" x2="331.30" y2="189.63"/><line x1="256.56" y1="298.46" x2="256.14" y2="297.97"/><line x1="181.28" y1="187.25" x2="182.20" y2="188.89"/><line x1="347.03" y1="152.50" x2="340.56" y2="150.83"/><line x1="168.55" y1="182.45" x2="169.74" y2="182.58"/><line x1="238.66" y1="156.00" x2="237.85" y2="154.64"/><line x1="32.00" y1="479.98" x2="32.00" y2="447.50"/><line x1="180.80" y1="151.73" x2="174.44" y2="182.18"/><line x1="236.82" y1="179.68" x2="228.68" y2="182.48"/><line x1="336.15" y1="183.65" x2="335.45" y2="184.00"/><line x1="337.77" y1="151.23" x2="351.02" y2="159.44"/><line x1="161.97" y1="173.87" x2="162.46" y2="175.45"/><line x1="260.73" y1="290.60" x2="260.09" y2="292.73"/><line x1="279.20" y1="182.59" x2="280.71" y2="182.96"/><line x1="225.31" y1="182.76" x2="235.70" y2="152.12"/><line x1="166.41" y1="151.25" x2="171.03" y2="150.44"/><line x1="176.18" y1="182.37" x2="176.89" y2="182.58"/><line x1="222.19" y1="192.80" x2="221.72" y2="191.03"/><line x1="334.63" y1="151.57" x2="351.77" y2="170.77"/><line x1="242.44" y1="355.42" x2="254.50" y2="294.53"/><line x1="279.20" y1="150.45" x2="280.71" y2="150.29"/><line x1="236.97" y1="347.14" x2="239.57" y2="351.70"/><line x1="227.44" y1="182.51" x2="240.84" y2="168.48"/><line x1="351.02" y1="159.44" x2="351.45" y2="161.13"/><line x1="230.28" y1="150.25" x2="228.69" y2="150.44"/><line x1="231.77" y1="182.61" x2="230.28" y2="182.67"/><line x1="295.29" y1="152.04" x2="289.47" y2="182.98"/><line x1="270.71" y1="168.20" x2="270.92" y2="170.19"/><line x1="230.28" y1="182.67" x2="228.68" y2="182.48"/><line x1="180.80" y1="151.73" x2="161.59" y2="172.18"/><line x1="167.44" y1="182.09" x2="168.55" y2="182.45"/><line x1="180.80" y1="151.73" x2="168.55" y2="182.45"/><line x1="351.77" y1="170.77" x2="351.45" y2="172.57"/><line x1="343.43" y1="150.70" x2="344.72" y2="151.03"/><line x1="225.31" y1="182.76" x2="239.91" y2="159.06"/><line x1="242.44" y1="355.42" x2="278.86" y2="341.76"/><line x1="225.31" y1="182.76" x2="230.28" y2="150.25"/><line x1="242.44" y1="355.42" x2="256.92" y2="298.63"/><line x1="242.44" y1="355.42" x2="221.72" y2="191.03"/><line x1="221.37" y1="186.74" x2="221.32" y2="188.00"/><line x1="287.52" y1="151.33" x2="270.71" y2="168.20"/><line x1="291.65" y1="192.80" x2="242.44" y2="355.42"/><line x1="240.35" y1="172.18" x2="240.66" y2="170.38"/><line x1="277.77" y1="181.94" x2="279.20" y2="182.59"/><line x1="348.96" y1="155.02" x2="349.77" y2="156.39"/><line x1="180.80" y1="151.73" x2="163.77" y2="178.29"/><line x1="180.80" y1="151.73" x2="173.41" y2="182.20"/><line x1="268.09" y1="358.32" x2="264.62" y2="360.39"/><line x1="350.46" y1="157.86" x2="351.02" y2="159.44"/><line x1="334.78" y1="184.40" x2="334.12" y2="185.14"/><line x1="276.45" y1="151.61" x2="279.20" y2="150.45"/><line x1="234.48" y1="181.67" x2="235.70" y2="180.81"/><line x1="177.26" y1="151.38" x2="180.80" y2="151.73"/><line x1="313.81" y1="152.35" x2="333.43" y2="186.03"/><line x1="242.44" y1="355.42" x2="274.10" y2="351.70"/><line x1="334.63" y1="151.57" x2="351.95" y2="168.87"/><line x1="242.44" y1="355.42" x2="255.11" y2="296.01"/><line x1="179.41" y1="184.62" x2="180.36" y2="185.83"/><line x1="279.20" y1="150.45" x2="277.77" y2="150.89"/><line x1="287.73" y1="182.61" x2="295.29" y2="152.04"/><line x1="221.44" y1="189.43" x2="216.47" y2="151.73"/><line x1="333.43" y1="186.03" x2="332.74" y2="187.08"/><line x1="295.29" y1="152.04" x2="288.65" y2="182.76"/><line x1="351.95" y1="168.87" x2="351.77" y2="170.77"/><line x1="299.55" y1="152.26" x2="304.05" y2="152.39"/><line x1="230.28" y1="182.67" x2="236.82" y2="179.68"/><line x1="180.80" y1="151.73" x2="161.32" y2="170.38"/><line x1="284.01" y1="150.83" x2="273.17" y2="155.25"/><line x1="180.80" y1="151.73" x2="167.44" y2="182.09"/><line x1="221.60" y1="185.66" x2="221.37" y2="186.74"/><line x1="180.80" y1="151.73" x2="184.62" y2="152.00"/><line x1="351.77" y1="170.77" x2="331.15" y2="151.85"/><line x1="183.09" y1="190.75" x2="183.97" y2="192.83"/><line x1="273.17" y1="155.25" x2="272.39" y2="156.75"/><line x1="304.05" y1="152.39" x2="291.27" y2="184.01"/><line x1="242.44" y1="355.42" x2="260.73" y2="290.60"/><line x1="242.44" y1="355.42" x2="257.37" y2="298.46"/><line x1="242.44" y1="355.42" x2="222.19" y2="192.80"/><line x1="175.36" y1="182.23" x2="176.18" y2="182.37"/><line x1="291.27" y1="184.01" x2="291.84" y2="184.66"/><line x1="240.35" y1="172.18" x2="227.44" y2="182.51"/><line x1="270.71" y1="163.97" x2="270.64" y2="166.08"/><line x1="256.75" y1="362.05" x2="268.09" y2="358.32"/><line x1="348.02" y1="179.97" x2="346.98" y2="181.04"/><line x1="188.72" y1="152.20" x2="193.10" y2="152.32"/><line x1="242.44" y1="355.42" x2="245.60" y2="358.32"/><line x1="163.06" y1="156.10" x2="162.46" y2="157.63"/><line x1="180.80" y1="151.73" x2="163.06" y2="176.93"/><line x1="270.64" y1="166.08" x2="270.71" y2="168.20"/><line x1="284.01" y1="150.83" x2="287.52" y2="151.33"/><line x1="180.80" y1="151.73" x2="172.26" y2="182.30"/><line x1="268.09" y1="358.32" x2="260.85" y2="361.64"/><line x1="258.91" y1="296.01" x2="258.37" y2="297.15"/><line x1="193.10" y1="152.32" x2="179.41" y2="184.62"/><line x1="234.48" y1="181.67" x2="233.17" y2="182.27"/><line x1="177.26" y1="151.38" x2="161.10" y2="166.46"/><line x1="304.05" y1="152.39" x2="292.52" y2="187.81"/><line x1="242.44" y1="355.42" x2="259.49" y2="294.53"/><line x1="240.66" y1="162.54" x2="225.31" y2="182.76"/><line x1="334.63" y1="151.57" x2="352.01" y2="166.85"/><line x1="64.64" y1="32.09" x2="32.16" y2="64.58"/><line x1="242.44" y1="355.42" x2="255.66" y2="297.15"/><line x1="271.25" y1="355.42" x2="252.75" y2="361.64"/><line x1="179.41" y1="184.62" x2="197.76" y2="152.35"/><line x1="225.31" y1="182.76" x2="224.44" y2="182.98"/><line x1="339.28" y1="182.90" x2="338.46" y2="183.00"/><line x1="202.69" y1="152.32" x2="207.46" y2="152.20"/><line x1="161.10" y1="166.46" x2="180.80" y2="151.73"/><line x1="174.00" y1="150.95" x2="177.26" y2="151.38"/><line x1="255.66" y1="297.15" x2="255.11" y2="296.01"/><line x1="327.33" y1="152.07" x2="323.17" y2="152.23"/><line x1="180.80" y1="151.73" x2="161.16" y2="168.48"/><line x1="207.46" y1="152.20" x2="183.09" y2="190.75"/><line x1="323.17" y1="152.23" x2="318.66" y2="152.32"/><line x1="216.47" y1="151.73" x2="223.07" y2="183.60"/><line x1="183.09" y1="190.75" x2="212.04" y2="152.00"/><line x1="276.45" y1="151.61" x2="275.22" y2="152.60"/><line x1="260.09" y1="292.73" x2="259.49" y2="294.53"/><line x1="351.77" y1="162.93" x2="351.95" y2="164.83"/><line x1="280.71" y1="150.29" x2="282.31" y2="150.42"/><line x1="163.77" y1="178.29" x2="164.57" y2="179.58"/><line x1="292.12" y1="190.93" x2="291.65" y2="192.80"/><line x1="308.81" y1="152.41" x2="331.30" y2="189.63"/><line x1="242.44" y1="355.42" x2="239.57" y2="351.70"/><line x1="242.44" y1="355.42" x2="271.25" y2="355.42"/><line x1="32.16" y1="32.09" x2="64.64" y2="32.09"/><line x1="289.47" y1="182.98" x2="290.18" y2="183.26"/><line x1="291.28" y1="151.73" x2="295.29" y2="152.04"/><line x1="284.01" y1="150.83" x2="271.27" y2="160.11"/><line x1="340.15" y1="182.87" x2="339.28" y2="182.90"/><line x1="228.68" y1="182.48" x2="238.66" y2="176.93"/><line x1="216.47" y1="151.73" x2="234.65" y2="341.76"/><line x1="161.16" y1="164.54" x2="161.10" y2="166.46"/><line x1="216.47" y1="151.73" x2="221.37" y2="186.74"/><line x1="272.39" y1="175.43" x2="273.17" y2="176.92"/><line x1="304.05" y1="152.39" x2="292.46" y2="186.56"/><line x1="256.14" y1="297.97" x2="255.66" y2="297.15"/><line x1="171.03" y1="150.44" x2="164.57" y2="153.25"/><line x1="271.25" y1="355.42" x2="249.04" y2="360.39"/><line x1="273.17" y1="176.92" x2="274.07" y2="178.29"/><line x1="340.56" y1="150.83" x2="348.04" y2="153.63"/><line x1="278.86" y1="341.76" x2="276.63" y2="347.14"/><line x1="237.85" y1="154.64" x2="236.82" y2="153.25"/><line x1="32.00" y1="447.50" x2="64.49" y2="479.98"/></g></svg>