<svg xmlns="http://www.w3.org/2000/svg" width="512" height="512"><rect width="512" height="512" fill="#0a0f1a"/><text x="12" y="20" font-family="monospace" font-size="11" fill="#4a7fa5">FRONT (XZ)</text><g stroke="#00d4ff" stroke-width="0.6" opacity="0.85"><line x1="286.98" y1="87.62" x2="285.20" y2="87.43"/><line x1="237.21" y1="195.44" x2="170.59" y2="187.86"/><line x1="309.87" y1="284.90" x2="343.83" y2="266.08"/><line x1="270.34" y1="93.20" x2="269.49" y2="94.51"/><line x1="309.87" y1="284.90" x2="338.82" y2="255.08"/><line x1="201.09" y1="96.22" x2="200.65" y2="97.80"/><line x1="235.74" y1="164.77" x2="200.65" y2="97.80"/><line x1="175.00" y1="167.14" x2="176.19" y2="166.28"/><line x1="182.34" y1="254.33" x2="183.91" y2="254.23"/><line x1="210.92" y1="284.90" x2="178.24" y2="255.75"/><line x1="242.68" y1="284.90" x2="220.20" y2="357.29"/><line x1="287.47" y1="357.65" x2="286.12" y2="356.47"/><line x1="200.65" y1="97.80" x2="200.42" y2="99.49"/><line x1="303.30" y1="164.77" x2="271.89" y2="164.77"/><line x1="332.95" y1="164.87" x2="331.68" y2="164.77"/><line x1="305.12" y1="195.44" x2="340.54" y2="180.10"/><line x1="245.86" y1="349.40" x2="239.35" y2="359.22"/><line x1="276.65" y1="254.23" x2="281.70" y2="346.95"/><line x1="183.91" y1="254.23" x2="209.09" y2="254.23"/><line x1="229.44" y1="92.90" x2="231.19" y2="95.81"/><line x1="339.78" y1="255.75" x2="338.82" y2="255.08"/><line x1="231.19" y1="95.81" x2="230.43" y2="94.28"/><line x1="273.36" y1="195.44" x2="276.65" y2="254.23"/><line x1="178.42" y1="283.27" x2="183.93" y2="284.90"/><line x1="309.87" y1="284.90" x2="343.43" y2="274.44"/><line x1="295.79" y1="91.66" x2="299.62" y2="99.04"/><line x1="338.82" y1="255.08" x2="337.76" y2="254.61"/><line x1="309.87" y1="284.90" x2="342.61" y2="260.14"/><line x1="281.70" y1="346.95" x2="278.10" y2="284.90"/><line x1="235.74" y1="164.77" x2="205.05" y2="90.93"/><line x1="335.85" y1="193.81" x2="331.69" y2="195.44"/><line x1="309.87" y1="284.90" x2="313.08" y2="346.95"/><line x1="303.30" y1="164.77" x2="331.68" y2="164.77"/><line x1="245.89" y1="345.53" x2="233.05" y2="361.14"/><line x1="299.62" y1="99.04" x2="294.38" y2="90.57"/><line x1="210.92" y1="284.90" x2="173.66" y2="261.49"/><line x1="232.18" y1="101.27" x2="225.46" y2="89.64"/><line x1="210.92" y1="284.90" x2="183.91" y2="254.23"/><line x1="175.62" y1="193.81" x2="174.36" y2="192.89"/><line x1="276.65" y1="254.23" x2="284.94" y2="355.18"/><line x1="313.03" y1="350.42" x2="312.66" y2="352.00"/><line x1="225.46" y1="89.64" x2="224.03" y2="88.86"/><line x1="214.91" y1="349.40" x2="215.59" y2="351.18"/><line x1="173.66" y1="277.32" x2="173.14" y2="275.91"/><line x1="312.66" y1="352.00" x2="312.05" y2="353.48"/><line x1="339.28" y1="187.86" x2="339.74" y2="186.45"/><line x1="210.92" y1="284.90" x2="214.13" y2="345.53"/><line x1="309.87" y1="284.90" x2="340.94" y2="281.24"/><line x1="286.98" y1="87.62" x2="303.30" y2="164.77"/><line x1="309.87" y1="284.90" x2="343.88" y2="267.78"/><line x1="235.74" y1="164.77" x2="212.26" y2="87.65"/><line x1="309.87" y1="284.90" x2="339.78" y2="255.75"/><line x1="235.74" y1="164.77" x2="201.09" y2="96.22"/><line x1="169.64" y1="184.98" x2="169.37" y2="183.43"/><line x1="245.89" y1="345.53" x2="224.51" y2="359.94"/><line x1="303.30" y1="164.77" x2="237.21" y2="195.44"/><line x1="340.94" y1="281.24" x2="341.68" y2="279.91"/><line x1="210.92" y1="284.90" x2="172.21" y2="269.57"/><line x1="306.50" y1="359.07" x2="305.15" y2="359.76"/><line x1="210.92" y1="284.90" x2="177.08" y2="256.59"/><line x1="232.18" y1="101.27" x2="219.28" y2="87.48"/><line x1="276.65" y1="254.23" x2="306.50" y2="359.07"/><line x1="276.65" y1="254.23" x2="291.81" y2="360.05"/><line x1="305.15" y1="359.76" x2="303.69" y2="360.32"/><line x1="276.65" y1="254.23" x2="282.00" y2="348.83"/><line x1="480.00" y1="32.02" x2="447.51" y2="32.02"/><line x1="223.00" y1="359.22" x2="224.51" y2="359.94"/><line x1="343.78" y1="271.26" x2="343.83" y2="269.57"/><line x1="309.87" y1="284.90" x2="343.13" y2="275.91"/><line x1="309.87" y1="284.90" x2="343.07" y2="261.49"/><line x1="235.74" y1="164.77" x2="206.32" y2="89.98"/><line x1="235.74" y1="164.77" x2="203.98" y2="164.77"/><line x1="234.76" y1="360.90" x2="236.37" y2="360.50"/><line x1="245.89" y1="345.53" x2="231.26" y2="361.22"/><line x1="210.92" y1="284.90" x2="173.66" y2="277.32"/><line x1="210.92" y1="284.90" x2="173.14" y2="262.93"/><line x1="210.92" y1="284.90" x2="182.34" y2="254.33"/><line x1="338.72" y1="189.19" x2="339.28" y2="187.86"/><line x1="276.65" y1="254.23" x2="312.05" y2="353.48"/><line x1="276.65" y1="254.23" x2="300.43" y2="361.05"/><line x1="340.14" y1="282.36" x2="309.87" y2="284.90"/><line x1="276.65" y1="254.23" x2="286.12" y2="356.47"/><line x1="288.67" y1="87.95" x2="286.98" y2="87.62"/><line x1="170.04" y1="186.45" x2="169.64" y2="184.98"/><line x1="240.70" y1="358.34" x2="244.96" y2="352.86"/><line x1="297.00" y1="92.87" x2="297.98" y2="94.22"/><line x1="215.76" y1="87.36" x2="235.74" y2="164.77"/><line x1="180.03" y1="195.34" x2="237.21" y2="195.44"/><line x1="221.56" y1="358.34" x2="245.89" y2="345.53"/><line x1="210.92" y1="284.90" x2="242.68" y2="284.90"/><line x1="172.27" y1="267.78" x2="172.44" y2="266.08"/><line x1="228.25" y1="91.67" x2="226.82" y2="90.57"/><line x1="235.74" y1="164.77" x2="213.96" y2="87.43"/><line x1="340.60" y1="178.31" x2="340.54" y2="176.61"/><line x1="235.74" y1="164.77" x2="201.76" y2="94.75"/><line x1="240.50" y1="254.23" x2="242.68" y2="284.90"/><line x1="245.89" y1="345.53" x2="223.00" y2="359.22"/><line x1="299.73" y1="100.91" x2="290.25" y2="88.41"/><line x1="172.44" y1="266.08" x2="172.74" y2="264.46"/><line x1="231.74" y1="97.48" x2="232.07" y2="99.31"/><line x1="210.92" y1="284.90" x2="172.27" y2="271.26"/><line x1="278.20" y1="88.02" x2="276.67" y2="88.52"/><line x1="210.92" y1="284.90" x2="176.01" y2="257.64"/><line x1="232.18" y1="101.27" x2="220.94" y2="87.78"/><line x1="340.54" y1="176.61" x2="340.39" y2="175.00"/><line x1="170.11" y1="175.00" x2="170.62" y2="173.47"/><line x1="276.65" y1="254.23" x2="307.74" y2="358.25"/><line x1="276.65" y1="254.23" x2="293.41" y2="360.56"/><line x1="343.65" y1="272.88" x2="343.78" y2="271.26"/><line x1="276.67" y1="88.52" x2="275.23" y2="89.18"/><line x1="276.65" y1="254.23" x2="282.47" y2="350.59"/><line x1="337.41" y1="191.77" x2="338.06" y2="190.45"/><line x1="206.32" y1="89.98" x2="205.05" y2="90.93"/><line x1="170.62" y1="173.47" x2="171.24" y2="172.03"/><line x1="480.00" y1="32.02" x2="480.00" y2="64.50"/><line x1="176.01" y1="257.64" x2="177.08" y2="256.59"/><line x1="295.08" y1="360.93" x2="293.41" y2="360.56"/><line x1="205.05" y1="90.93" x2="203.73" y2="92.10"/><line x1="338.01" y1="168.18" x2="337.18" y2="167.14"/><line x1="480.00" y1="479.91" x2="480.00" y2="447.42"/><line x1="233.05" y1="361.14" x2="234.76" y2="360.90"/><line x1="177.08" y1="256.59" x2="178.24" y2="255.75"/><line x1="269.49" y1="94.51" x2="268.82" y2="95.94"/><line x1="337.18" y1="167.14" x2="336.25" y2="166.28"/><line x1="176.19" y1="166.28" x2="177.45" y2="165.62"/><line x1="276.65" y1="254.23" x2="309.87" y2="284.90"/><line x1="245.89" y1="345.53" x2="229.46" y2="361.14"/><line x1="343.07" y1="261.49" x2="342.61" y2="260.14"/><line x1="268.82" y1="95.94" x2="268.35" y2="97.48"/><line x1="210.92" y1="284.90" x2="172.74" y2="264.46"/><line x1="200.42" y1="99.49" x2="200.42" y2="101.27"/><line x1="276.65" y1="254.23" x2="312.66" y2="352.00"/><line x1="177.45" y1="165.62" x2="178.79" y2="165.15"/><line x1="447.51" y1="479.91" x2="480.00" y2="447.42"/><line x1="276.65" y1="254.23" x2="302.12" y2="360.75"/><line x1="284.94" y1="355.18" x2="283.94" y2="353.76"/><line x1="200.42" y1="101.27" x2="203.98" y2="164.77"/><line x1="183.93" y1="284.90" x2="176.11" y2="281.24"/><line x1="240.70" y1="358.34" x2="245.52" y2="351.18"/><line x1="297.00" y1="92.87" x2="298.75" y2="95.70"/><line x1="303.30" y1="164.77" x2="267.97" y2="100.91"/><line x1="180.03" y1="195.34" x2="181.70" y2="195.44"/><line x1="294.38" y1="90.57" x2="293.10" y2="89.72"/><line x1="337.76" y1="254.61" x2="336.59" y2="254.33"/><line x1="228.25" y1="91.67" x2="231.74" y2="97.48"/><line x1="335.25" y1="284.90" x2="338.36" y2="283.98"/><line x1="299.73" y1="100.91" x2="291.73" y2="89.00"/><line x1="276.65" y1="254.23" x2="308.86" y2="357.29"/><line x1="240.70" y1="358.34" x2="241.97" y2="357.29"/><line x1="210.92" y1="284.90" x2="237.21" y2="195.44"/><line x1="303.30" y1="164.77" x2="270.34" y2="93.20"/><line x1="237.21" y1="195.44" x2="175.00" y2="167.14"/><line x1="480.00" y1="479.91" x2="447.51" y2="479.91"/><line x1="237.21" y1="195.44" x2="240.50" y2="254.23"/><line x1="299.73" y1="100.91" x2="303.30" y2="164.77"/><line x1="305.12" y1="195.44" x2="331.68" y2="164.77"/><line x1="205.80" y1="195.44" x2="180.03" y2="195.34"/><line x1="305.12" y1="195.44" x2="308.41" y2="254.23"/><line x1="183.93" y1="284.90" x2="177.23" y2="282.36"/><line x1="303.30" y1="164.77" x2="276.67" y2="88.52"/><line x1="303.30" y1="164.77" x2="268.07" y2="99.14"/><line x1="331.69" y1="195.44" x2="336.67" y2="192.89"/><line x1="237.21" y1="195.44" x2="170.62" y2="173.47"/><line x1="237.21" y1="195.44" x2="180.19" y2="164.87"/><line x1="294.38" y1="90.57" x2="299.73" y2="100.91"/><line x1="336.67" y1="192.89" x2="337.41" y2="191.77"/><line x1="245.99" y1="347.51" x2="237.90" y2="359.94"/><line x1="335.25" y1="284.90" x2="336.35" y2="284.80"/><line x1="299.73" y1="100.91" x2="293.10" y2="89.72"/><line x1="224.03" y1="88.86" x2="222.52" y2="88.23"/><line x1="305.12" y1="195.44" x2="337.18" y2="167.14"/><line x1="173.19" y1="191.77" x2="172.13" y2="190.45"/><line x1="182.44" y1="284.80" x2="178.42" y2="283.27"/><line x1="173.14" y1="275.91" x2="172.74" y2="274.44"/><line x1="312.05" y1="353.48" x2="311.22" y2="354.85"/><line x1="334.94" y1="194.53" x2="335.85" y2="193.81"/><line x1="222.52" y1="88.23" x2="220.94" y2="87.78"/><line x1="339.74" y1="186.45" x2="340.08" y2="184.98"/><line x1="216.46" y1="352.86" x2="217.52" y2="354.44"/><line x1="172.74" y1="274.44" x2="172.44" y2="272.88"/><line x1="183.93" y1="284.90" x2="210.92" y2="284.90"/><line x1="303.30" y1="164.77" x2="285.20" y2="87.43"/><line x1="332.86" y1="195.34" x2="331.69" y2="195.44"/><line x1="303.30" y1="164.77" x2="271.38" y2="92.01"/><line x1="237.21" y1="195.44" x2="175.62" y2="193.81"/><line x1="340.08" y1="184.98" x2="340.34" y2="183.43"/><line x1="237.21" y1="195.44" x2="169.26" y2="181.80"/><line x1="237.21" y1="195.44" x2="173.88" y2="168.18"/><line x1="341.68" y1="279.91" x2="342.25" y2="278.65"/><line x1="226.82" y1="90.57" x2="225.46" y2="89.64"/><line x1="285.20" y1="87.43" x2="283.31" y2="87.36"/><line x1="276.65" y1="254.23" x2="240.50" y2="254.23"/><line x1="213.96" y1="87.43" x2="212.26" y2="87.65"/><line x1="242.68" y1="284.90" x2="214.91" y2="349.40"/><line x1="169.26" y1="181.80" x2="169.29" y2="180.10"/><line x1="172.74" y1="264.46" x2="173.14" y2="262.93"/><line x1="303.69" y1="360.32" x2="302.12" y2="360.75"/><line x1="305.12" y1="195.44" x2="339.28" y2="187.86"/><line x1="212.26" y1="87.65" x2="210.64" y2="88.02"/><line x1="337.38" y1="284.50" x2="335.25" y2="284.90"/><line x1="305.12" y1="195.44" x2="340.14" y2="173.47"/><line x1="305.12" y1="195.44" x2="332.95" y2="164.87"/><line x1="224.51" y1="359.94" x2="226.09" y2="360.50"/><line x1="173.14" y1="262.93" x2="173.66" y2="261.49"/><line x1="174.36" y1="192.89" x2="173.19" y2="191.77"/><line x1="340.14" y1="173.47" x2="339.78" y2="172.03"/><line x1="343.83" y1="269.57" x2="343.88" y2="267.78"/><line x1="273.88" y1="89.98" x2="272.61" y2="90.93"/><line x1="215.59" y1="351.18" x2="216.46" y2="352.86"/><line x1="303.30" y1="164.77" x2="278.20" y2="88.02"/><line x1="303.30" y1="164.77" x2="268.35" y2="97.48"/><line x1="237.21" y1="195.44" x2="171.29" y2="189.19"/><line x1="171.98" y1="170.67" x2="172.83" y2="169.41"/><line x1="237.21" y1="195.44" x2="170.11" y2="175.00"/><line x1="237.21" y1="195.44" x2="178.79" y2="165.15"/><line x1="291.81" y1="360.05" x2="290.30" y2="359.40"/><line x1="202.63" y1="93.37" x2="201.76" y2="94.75"/><line x1="242.68" y1="284.90" x2="218.76" y2="355.92"/><line x1="245.99" y1="347.51" x2="236.37" y2="360.50"/><line x1="169.37" y1="183.43" x2="169.26" y2="181.80"/><line x1="305.12" y1="195.44" x2="340.49" y2="181.80"/><line x1="305.12" y1="195.44" x2="338.01" y2="168.18"/><line x1="182.44" y1="284.80" x2="181.03" y2="284.50"/><line x1="298.75" y1="95.70" x2="299.29" y2="97.30"/><line x1="342.06" y1="258.87" x2="341.40" y2="257.64"/><line x1="334.94" y1="194.53" x2="333.95" y2="195.03"/><line x1="340.39" y1="175.00" x2="340.14" y2="173.47"/><line x1="303.30" y1="164.77" x2="272.61" y2="90.93"/><line x1="237.21" y1="195.44" x2="176.99" y2="194.53"/><line x1="203.98" y1="164.77" x2="237.21" y2="195.44"/><line x1="237.21" y1="195.44" x2="169.37" y2="183.43"/><line x1="237.21" y1="195.44" x2="172.83" y2="169.41"/><line x1="309.87" y1="284.90" x2="335.33" y2="254.23"/><line x1="226.82" y1="90.57" x2="232.18" y2="101.27"/><line x1="203.98" y1="164.77" x2="181.68" y2="164.77"/><line x1="242.68" y1="284.90" x2="214.43" y2="347.51"/><line x1="275.23" y1="89.18" x2="273.88" y2="89.98"/><line x1="305.12" y1="195.44" x2="338.72" y2="189.19"/><line x1="305.12" y1="195.44" x2="340.39" y2="175.00"/><line x1="305.12" y1="195.44" x2="334.14" y2="165.15"/><line x1="480.00" y1="64.50" x2="447.51" y2="32.02"/><line x1="178.24" y1="255.75" x2="179.51" y2="255.08"/><line x1="237.21" y1="195.44" x2="172.13" y2="190.45"/><line x1="309.87" y1="284.90" x2="343.83" y2="269.57"/><line x1="309.87" y1="284.90" x2="340.65" y2="256.59"/><line x1="268.35" y1="97.48" x2="268.07" y2="99.14"/><line x1="335.24" y1="165.62" x2="334.14" y2="165.15"/><line x1="242.68" y1="284.90" x2="217.52" y2="354.44"/><line x1="305.12" y1="195.44" x2="340.34" y2="183.43"/><line x1="180.19" y1="164.87" x2="181.68" y2="164.77"/><line x1="298.75" y1="95.70" x2="297.98" y2="94.22"/><line x1="283.12" y1="352.24" x2="282.47" y2="350.59"/><line x1="244.96" y1="352.86" x2="244.18" y2="354.44"/><line x1="171.24" y1="172.03" x2="171.98" y2="170.67"/><line x1="237.21" y1="195.44" x2="178.46" y2="195.03"/><line x1="309.87" y1="284.90" x2="342.74" y2="277.32"/><line x1="293.41" y1="360.56" x2="291.81" y2="360.05"/><line x1="203.73" y1="92.10" x2="202.63" y2="93.37"/><line x1="309.87" y1="284.90" x2="343.43" y2="262.93"/><line x1="176.11" y1="281.24" x2="175.05" y2="279.91"/><line x1="235.74" y1="164.77" x2="207.68" y2="89.18"/><line x1="309.87" y1="284.90" x2="336.59" y2="254.33"/><line x1="235.74" y1="164.77" x2="200.42" y2="101.27"/><line x1="234.76" y1="360.90" x2="245.99" y2="347.51"/><line x1="242.68" y1="284.90" x2="214.13" y2="345.53"/><line x1="336.25" y1="166.28" x2="335.24" y2="165.62"/><line x1="210.92" y1="284.90" x2="180.88" y2="254.61"/><line x1="232.18" y1="101.27" x2="235.74" y2="164.77"/><line x1="303.30" y1="164.77" x2="276.65" y2="254.23"/><line x1="305.12" y1="195.44" x2="338.06" y2="190.45"/><line x1="342.61" y1="260.14" x2="342.06" y2="258.87"/><line x1="276.65" y1="254.23" x2="287.47" y2="357.65"/><line x1="245.86" y1="349.40" x2="245.52" y2="351.18"/><line x1="338.36" y1="283.98" x2="339.28" y2="283.27"/><line x1="229.44" y1="92.90" x2="228.25" y2="91.67"/><line x1="178.79" y1="165.15" x2="180.19" y2="164.87"/><line x1="171.29" y1="189.19" x2="170.59" y2="187.86"/><line x1="283.94" y1="353.76" x2="283.12" y2="352.24"/><line x1="231.19" y1="95.81" x2="231.74" y2="97.48"/><line x1="310.15" y1="356.12" x2="308.86" y2="357.29"/><line x1="219.28" y1="87.48" x2="217.56" y2="87.34"/><line x1="245.52" y1="351.18" x2="244.96" y2="352.86"/><line x1="218.76" y1="355.92" x2="220.20" y2="357.29"/><line x1="309.87" y1="284.90" x2="343.78" y2="271.26"/><line x1="309.87" y1="284.90" x2="341.40" y2="257.64"/><line x1="235.74" y1="164.77" x2="202.63" y2="93.37"/><line x1="340.49" y1="181.80" x2="340.54" y2="180.10"/><line x1="336.59" y1="254.33" x2="335.33" y2="254.23"/><line x1="245.89" y1="345.53" x2="245.99" y2="347.51"/><line x1="231.74" y1="97.48" x2="226.82" y2="90.57"/><line x1="210.92" y1="284.90" x2="172.44" y2="272.88"/><line x1="32.16" y1="32.09" x2="32.16" y2="64.58"/><line x1="210.92" y1="284.90" x2="175.05" y2="258.87"/><line x1="342.74" y1="277.32" x2="343.13" y2="275.91"/><line x1="232.18" y1="101.27" x2="222.52" y2="88.23"/><line x1="276.65" y1="254.23" x2="295.08" y2="360.93"/><line x1="169.45" y1="178.31" x2="169.72" y2="176.61"/><line x1="276.65" y1="254.23" x2="283.12" y2="352.24"/><line x1="337.41" y1="191.77" x2="305.12" y2="195.44"/><line x1="308.41" y1="254.23" x2="309.87" y2="284.90"/><line x1="300.43" y1="361.05" x2="298.64" y2="361.22"/><line x1="293.10" y1="89.72" x2="291.73" y2="89.00"/><line x1="172.13" y1="190.45" x2="171.29" y2="189.19"/><line x1="311.22" y1="354.85" x2="310.15" y2="356.12"/><line x1="309.87" y1="284.90" x2="342.25" y2="278.65"/><line x1="309.87" y1="284.90" x2="343.68" y2="264.46"/><line x1="235.74" y1="164.77" x2="209.12" y2="88.52"/><line x1="309.87" y1="284.90" x2="337.76" y2="254.61"/><line x1="235.74" y1="164.77" x2="200.42" y2="99.49"/><line x1="245.89" y1="345.53" x2="227.74" y2="360.90"/><line x1="237.90" y1="359.94" x2="239.35" y2="359.22"/><line x1="210.92" y1="284.90" x2="172.44" y2="266.08"/><line x1="210.92" y1="284.90" x2="179.51" y2="255.08"/><line x1="276.65" y1="254.23" x2="313.03" y2="350.42"/><line x1="232.18" y1="101.27" x2="215.76" y2="87.36"/><line x1="276.65" y1="254.23" x2="303.69" y2="360.32"/><line x1="276.65" y1="254.23" x2="288.85" y2="358.60"/><line x1="276.65" y1="254.23" x2="278.10" y2="284.90"/><line x1="172.44" y1="272.88" x2="172.27" y2="271.26"/><line x1="229.44" y1="92.90" x2="230.43" y2="94.28"/><line x1="177.23" y1="282.36" x2="176.11" y2="281.24"/><line x1="210.92" y1="284.90" x2="240.50" y2="254.23"/><line x1="309.87" y1="284.90" x2="343.65" y2="272.88"/><line x1="295.79" y1="91.66" x2="294.38" y2="90.57"/><line x1="32.00" y1="479.98" x2="64.49" y2="479.98"/><line x1="235.74" y1="164.77" x2="203.73" y2="92.10"/><line x1="245.89" y1="345.53" x2="234.76" y2="360.90"/><line x1="210.92" y1="284.90" x2="172.74" y2="274.44"/><line x1="210.92" y1="284.90" x2="174.29" y2="260.14"/><line x1="232.18" y1="101.27" x2="224.03" y2="88.86"/><line x1="210.92" y1="284.90" x2="209.09" y2="254.23"/><line x1="276.65" y1="254.23" x2="310.15" y2="356.12"/><line x1="276.65" y1="254.23" x2="296.82" y2="361.15"/><line x1="276.65" y1="254.23" x2="283.94" y2="353.76"/><line x1="242.68" y1="284.90" x2="278.10" y2="284.90"/><line x1="240.70" y1="358.34" x2="243.19" y2="355.92"/><line x1="297.00" y1="92.87" x2="295.79" y2="91.66"/><line x1="220.94" y1="87.78" x2="219.28" y2="87.48"/><line x1="343.83" y1="266.08" x2="343.68" y2="264.46"/><line x1="217.52" y1="354.44" x2="218.76" y2="355.92"/><line x1="309.87" y1="284.90" x2="341.68" y2="279.91"/><line x1="340.34" y1="183.43" x2="340.49" y2="181.80"/><line x1="303.30" y1="164.77" x2="305.12" y2="195.44"/><line x1="235.74" y1="164.77" x2="210.64" y2="88.02"/><line x1="288.85" y1="358.60" x2="287.47" y2="357.65"/><line x1="342.25" y1="278.65" x2="342.74" y2="277.32"/><line x1="335.25" y1="284.90" x2="309.87" y2="284.90"/><line x1="283.31" y1="87.36" x2="281.52" y2="87.43"/><line x1="245.89" y1="345.53" x2="226.09" y2="360.50"/><line x1="299.73" y1="100.91" x2="286.98" y2="87.62"/><line x1="237.90" y1="359.94" x2="245.86" y2="349.40"/><line x1="210.92" y1="284.90" x2="172.27" y2="267.78"/><line x1="169.29" y1="180.10" x2="169.45" y2="178.31"/><line x1="276.65" y1="254.23" x2="313.17" y2="348.74"/><line x1="232.18" y1="101.27" x2="217.56" y2="87.34"/><line x1="276.65" y1="254.23" x2="305.15" y2="359.76"/><line x1="302.12" y1="360.75" x2="300.43" y2="361.05"/><line x1="210.64" y1="88.02" x2="209.12" y2="88.52"/><line x1="276.65" y1="254.23" x2="290.30" y2="359.40"/><line x1="340.65" y1="256.59" x2="339.78" y2="255.75"/><line x1="226.09" y1="360.50" x2="227.74" y2="360.90"/><line x1="173.66" y1="261.49" x2="174.29" y2="260.14"/><line x1="339.78" y1="172.03" x2="339.33" y2="170.67"/><line x1="343.88" y1="267.78" x2="343.83" y2="266.08"/><line x1="272.61" y1="90.93" x2="271.38" y2="92.01"/><line x1="243.19" y1="355.92" x2="241.97" y2="357.29"/><line x1="172.83" y1="169.41" x2="173.88" y2="168.18"/><line x1="32.00" y1="479.98" x2="32.00" y2="447.50"/><line x1="176.99" y1="194.53" x2="175.62" y2="193.81"/><line x1="290.30" y1="359.40" x2="288.85" y2="358.60"/><line x1="201.76" y1="94.75" x2="201.09" y2="96.22"/><line x1="210.92" y1="284.90" x2="173.14" y2="275.91"/><line x1="236.37" y1="360.50" x2="237.90" y2="359.94"/><line x1="180.88" y1="254.61" x2="182.34" y2="254.33"/><line x1="276.65" y1="254.23" x2="311.22" y2="354.85"/><line x1="276.65" y1="254.23" x2="298.64" y2="361.22"/><line x1="214.43" y1="347.51" x2="214.91" y2="349.40"/><line x1="340.14" y1="282.36" x2="340.94" y2="281.24"/><line x1="334.14" y1="165.15" x2="332.95" y2="164.87"/><line x1="179.69" y1="283.98" x2="178.42" y2="283.27"/><line x1="341.40" y1="257.64" x2="340.65" y2="256.59"/><line x1="183.93" y1="284.90" x2="174.30" y2="278.65"/><line x1="240.70" y1="358.34" x2="244.18" y2="354.44"/><line x1="332.86" y1="195.34" x2="335.85" y2="193.81"/><line x1="297.00" y1="92.87" x2="299.29" y2="97.30"/><line x1="215.76" y1="87.36" x2="213.96" y2="87.43"/><line x1="180.03" y1="195.34" x2="178.46" y2="195.03"/><line x1="299.29" y1="97.30" x2="299.62" y2="99.04"/><line x1="282.47" y1="350.59" x2="282.00" y2="348.83"/><line x1="237.21" y1="195.44" x2="273.36" y2="195.44"/><line x1="221.56" y1="358.34" x2="223.00" y2="359.22"/><line x1="244.18" y1="354.44" x2="243.19" y2="355.92"/><line x1="282.00" y1="348.83" x2="281.70" y2="346.95"/><line x1="335.25" y1="284.90" x2="340.14" y2="282.36"/><line x1="299.73" y1="100.91" x2="288.67" y2="87.95"/><line x1="174.30" y1="278.65" x2="173.66" y2="277.32"/><line x1="276.65" y1="254.23" x2="313.08" y2="346.95"/><line x1="305.12" y1="195.44" x2="276.65" y2="254.23"/><line x1="313.17" y1="348.74" x2="313.03" y2="350.42"/><line x1="303.30" y1="164.77" x2="279.82" y2="87.65"/><line x1="303.30" y1="164.77" x2="268.82" y2="95.94"/><line x1="237.21" y1="195.44" x2="169.72" y2="176.61"/><line x1="179.51" y1="255.08" x2="180.88" y2="254.61"/><line x1="237.21" y1="195.44" x2="177.45" y2="165.62"/><line x1="268.07" y1="99.14" x2="267.97" y2="100.91"/><line x1="305.12" y1="195.44" x2="338.77" y2="169.41"/><line x1="182.44" y1="284.80" x2="179.69" y2="283.98"/><line x1="205.80" y1="195.44" x2="237.21" y2="195.44"/><line x1="334.94" y1="194.53" x2="332.86" y2="195.34"/><line x1="179.69" y1="283.98" x2="181.03" y2="284.50"/><line x1="183.93" y1="284.90" x2="175.05" y2="279.91"/><line x1="332.86" y1="195.34" x2="333.95" y2="195.03"/><line x1="303.30" y1="164.77" x2="273.88" y2="89.98"/><line x1="331.69" y1="195.44" x2="305.12" y2="195.44"/><line x1="237.21" y1="195.44" x2="169.64" y2="184.98"/><line x1="237.21" y1="195.44" x2="171.98" y2="170.67"/><line x1="299.29" y1="97.30" x2="295.79" y2="91.66"/><line x1="226.82" y1="90.57" x2="232.07" y2="99.31"/><line x1="237.21" y1="195.44" x2="271.89" y2="164.77"/><line x1="178.46" y1="195.03" x2="176.99" y2="194.53"/><line x1="175.05" y1="279.91" x2="174.30" y2="278.65"/><line x1="242.68" y1="284.90" x2="245.89" y2="345.53"/><line x1="313.08" y1="346.95" x2="313.17" y2="348.74"/><line x1="232.07" y1="99.31" x2="232.18" y2="101.27"/><line x1="335.25" y1="284.90" x2="339.28" y2="283.27"/><line x1="305.12" y1="195.44" x2="340.54" y2="176.61"/><line x1="214.13" y1="345.53" x2="214.43" y2="347.51"/><line x1="235.74" y1="164.77" x2="271.89" y2="164.77"/><line x1="305.12" y1="195.44" x2="335.24" y2="165.62"/><line x1="174.30" y1="278.65" x2="210.92" y2="284.90"/><line x1="291.73" y1="89.00" x2="290.25" y2="88.41"/><line x1="338.06" y1="190.45" x2="338.72" y2="189.19"/><line x1="308.41" y1="254.23" x2="335.33" y2="254.23"/><line x1="209.09" y1="254.23" x2="205.80" y2="195.44"/><line x1="339.28" y1="283.27" x2="340.14" y2="282.36"/><line x1="290.25" y1="88.41" x2="288.67" y2="87.95"/><line x1="303.30" y1="164.77" x2="281.52" y2="87.43"/><line x1="170.59" y1="187.86" x2="170.04" y2="186.45"/><line x1="303.30" y1="164.77" x2="269.49" y2="94.51"/><line x1="237.21" y1="195.44" x2="173.19" y2="191.77"/><line x1="172.27" y1="271.26" x2="172.21" y2="269.57"/><line x1="237.21" y1="195.44" x2="169.45" y2="178.31"/><line x1="308.86" y1="357.29" x2="307.74" y2="358.25"/><line x1="237.21" y1="195.44" x2="176.19" y2="166.28"/><line x1="217.56" y1="87.34" x2="215.76" y2="87.36"/><line x1="276.65" y1="254.23" x2="242.68" y2="284.90"/><line x1="220.20" y1="357.29" x2="221.56" y2="358.34"/><line x1="242.68" y1="284.90" x2="216.46" y2="352.86"/><line x1="172.21" y1="269.57" x2="172.27" y2="267.78"/><line x1="307.74" y1="358.25" x2="306.50" y2="359.07"/><line x1="340.54" y1="180.10" x2="340.60" y2="178.31"/><line x1="305.12" y1="195.44" x2="340.08" y2="184.98"/><line x1="337.38" y1="284.50" x2="338.36" y2="283.98"/><line x1="305.12" y1="195.44" x2="339.33" y2="170.67"/><line x1="343.13" y1="275.91" x2="343.43" y2="274.44"/><line x1="205.80" y1="195.44" x2="181.70" y2="195.44"/><line x1="279.82" y1="87.65" x2="278.20" y2="88.02"/><line x1="169.72" y1="176.61" x2="170.11" y2="175.00"/><line x1="64.64" y1="32.09" x2="32.16" y2="64.58"/><line x1="343.43" y1="274.44" x2="343.65" y2="272.88"/><line x1="298.64" y1="361.22" x2="296.82" y2="361.15"/><line x1="207.68" y1="89.18" x2="206.32" y2="89.98"/><line x1="303.30" y1="164.77" x2="275.23" y2="89.18"/><line x1="229.46" y1="361.14" x2="231.26" y2="361.22"/><line x1="331.69" y1="195.44" x2="337.41" y2="191.77"/><line x1="237.21" y1="195.44" x2="170.04" y2="186.45"/><line x1="296.82" y1="361.15" x2="295.08" y2="360.93"/><line x1="237.21" y1="195.44" x2="171.24" y2="172.03"/><line x1="237.21" y1="195.44" x2="181.68" y2="164.77"/><line x1="338.77" y1="169.41" x2="338.01" y2="168.18"/><line x1="267.97" y1="100.91" x2="271.89" y2="164.77"/><line x1="231.26" y1="361.22" x2="233.05" y2="361.14"/><line x1="343.68" y1="264.46" x2="343.43" y2="262.93"/><line x1="242.68" y1="284.90" x2="221.56" y2="358.34"/><line x1="245.99" y1="347.51" x2="245.86" y2="349.40"/><line x1="235.74" y1="164.77" x2="237.21" y2="195.44"/><line x1="303.30" y1="164.77" x2="273.36" y2="195.44"/><line x1="305.12" y1="195.44" x2="340.60" y2="178.31"/><line x1="245.86" y1="349.40" x2="240.70" y2="358.34"/><line x1="343.43" y1="262.93" x2="343.07" y2="261.49"/><line x1="305.12" y1="195.44" x2="336.25" y2="166.28"/><line x1="182.44" y1="284.80" x2="183.93" y2="284.90"/><line x1="231.19" y1="95.81" x2="228.25" y2="91.67"/><line x1="286.12" y1="356.47" x2="284.94" y2="355.18"/><line x1="303.30" y1="164.77" x2="283.31" y2="87.36"/><line x1="178.42" y1="283.27" x2="177.23" y2="282.36"/><line x1="237.21" y1="195.44" x2="174.36" y2="192.89"/><line x1="239.35" y1="359.22" x2="240.70" y2="358.34"/><line x1="237.21" y1="195.44" x2="169.29" y2="180.10"/><line x1="309.87" y1="284.90" x2="342.06" y2="258.87"/><line x1="281.52" y1="87.43" x2="279.82" y2="87.65"/><line x1="335.85" y1="193.81" x2="336.67" y2="192.89"/><line x1="276.65" y1="254.23" x2="308.41" y2="254.23"/><line x1="32.16" y1="32.09" x2="64.64" y2="32.09"/><line x1="299.62" y1="99.04" x2="299.73" y2="100.91"/><line x1="242.68" y1="284.90" x2="215.59" y2="351.18"/><line x1="209.12" y1="88.52" x2="207.68" y2="89.18"/><line x1="305.12" y1="195.44" x2="339.74" y2="186.45"/><line x1="337.38" y1="284.50" x2="336.35" y2="284.80"/><line x1="227.74" y1="360.90" x2="229.46" y2="361.14"/><line x1="305.12" y1="195.44" x2="339.78" y2="172.03"/><line x1="174.29" y1="260.14" x2="175.05" y2="258.87"/><line x1="339.33" y1="170.67" x2="338.77" y2="169.41"/><line x1="175.05" y1="258.87" x2="176.01" y2="257.64"/><line x1="209.09" y1="254.23" x2="237.21" y2="195.44"/><line x1="271.38" y1="92.01" x2="270.34" y2="93.20"/><line x1="173.88" y1="168.18" x2="175.00" y2="167.14"/><line x1="32.00" y1="447.50" x2="64.49" y2="479.98"/></g></svg>