<svg xmlns="http://www.w3.org/2000/svg" width="512" height="512"><rect width="512" height="512" fill="#0a0f1a"/><text x="12" y="20" font-family="monospace" font-size="11" fill="#4a7fa5">FRONT (XZ)</text><g stroke="#00d4ff" stroke-width="0.6" opacity="0.85"><line x1="185.74" y1="196.63" x2="188.88" y2="196.80"/><line x1="265.66" y1="106.58" x2="263.75" y2="106.02"/><line x1="274.27" y1="302.96" x2="256.53" y2="324.10"/><line x1="336.11" y1="196.13" x2="340.68" y2="198.09"/><line x1="175.59" y1="232.68" x2="177.21" y2="233.16"/><line x1="256.53" y1="324.10" x2="254.20" y2="324.03"/><line x1="334.34" y1="233.36" x2="336.11" y2="233.16"/><line x1="237.43" y1="126.99" x2="237.06" y2="122.02"/><line x1="177.21" y1="233.16" x2="178.94" y2="233.36"/><line x1="252.66" y1="105.08" x2="250.45" y2="105.27"/><line x1="237.06" y1="122.02" x2="236.65" y2="117.66"/><line x1="250.45" y1="105.27" x2="248.36" y2="105.58"/><line x1="272.60" y1="198.13" x2="301.57" y2="197.75"/><line x1="273.36" y1="160.96" x2="257.35" y2="105.08"/><line x1="273.98" y1="297.97" x2="244.36" y2="321.58"/><line x1="273.36" y1="160.96" x2="239.74" y2="109.12"/><line x1="273.98" y1="297.97" x2="237.41" y2="288.23"/><line x1="178.94" y1="196.04" x2="172.62" y2="198.29"/><line x1="192.44" y1="232.10" x2="192.44" y2="196.97"/><line x1="244.36" y1="321.58" x2="242.77" y2="320.66"/><line x1="274.27" y1="302.96" x2="247.92" y2="322.98"/><line x1="192.44" y1="196.97" x2="196.41" y2="231.84"/><line x1="239.74" y1="109.12" x2="238.53" y2="110.27"/><line x1="340.68" y1="230.87" x2="341.96" y2="229.54"/><line x1="238.53" y1="110.27" x2="237.59" y2="111.53"/><line x1="183.04" y1="196.43" x2="167.70" y2="206.26"/><line x1="236.68" y1="312.44" x2="236.65" y2="310.75"/><line x1="273.36" y1="160.96" x2="248.36" y2="105.58"/><line x1="273.98" y1="297.97" x2="238.46" y2="316.97"/><line x1="238.56" y1="198.13" x2="238.56" y2="230.99"/><line x1="273.02" y1="318.30" x2="271.81" y2="319.53"/><line x1="238.56" y1="230.99" x2="273.21" y2="278.60"/><line x1="346.26" y1="218.73" x2="346.47" y2="216.52"/><line x1="166.64" y1="216.80" x2="166.86" y2="218.93"/><line x1="274.89" y1="117.66" x2="269.16" y2="108.08"/><line x1="480.00" y1="32.02" x2="447.51" y2="32.02"/><line x1="332.43" y1="233.29" x2="334.34" y2="233.36"/><line x1="273.36" y1="160.96" x2="259.60" y2="105.27"/><line x1="273.98" y1="297.97" x2="236.65" y2="310.75"/><line x1="238.25" y1="145.54" x2="238.02" y2="138.75"/><line x1="274.27" y1="302.96" x2="249.89" y2="323.47"/><line x1="168.33" y1="204.46" x2="183.04" y2="196.43"/><line x1="237.00" y1="314.05" x2="236.68" y2="312.44"/><line x1="205.63" y1="197.36" x2="238.56" y2="198.13"/><line x1="345.91" y1="220.82" x2="346.26" y2="218.73"/><line x1="275.08" y1="312.44" x2="273.02" y2="318.30"/><line x1="236.93" y1="112.90" x2="236.56" y2="114.38"/><line x1="273.98" y1="297.97" x2="239.61" y2="318.30"/><line x1="180.75" y1="196.22" x2="169.11" y2="202.76"/><line x1="166.58" y1="214.56" x2="166.64" y2="216.80"/><line x1="273.02" y1="318.30" x2="274.89" y2="310.75"/><line x1="238.56" y1="230.99" x2="273.45" y2="285.79"/><line x1="272.98" y1="270.68" x2="272.60" y2="230.99"/><line x1="166.64" y1="216.80" x2="188.88" y2="196.80"/><line x1="272.28" y1="110.27" x2="274.89" y2="117.66"/><line x1="272.60" y1="230.99" x2="272.60" y2="198.13"/><line x1="345.42" y1="205.88" x2="344.79" y2="204.08"/><line x1="274.89" y1="117.66" x2="270.87" y2="109.12"/><line x1="274.57" y1="307.22" x2="265.15" y2="322.98"/><line x1="344.79" y1="204.08" x2="344.02" y2="202.39"/><line x1="480.00" y1="32.02" x2="480.00" y2="64.50"/><line x1="200.81" y1="231.60" x2="205.63" y2="231.38"/><line x1="169.11" y1="226.35" x2="170.02" y2="227.93"/><line x1="274.98" y1="314.05" x2="275.08" y2="312.44"/><line x1="265.15" y1="322.98" x2="263.18" y2="323.47"/><line x1="238.43" y1="152.95" x2="238.25" y2="145.54"/><line x1="480.00" y1="479.91" x2="480.00" y2="447.42"/><line x1="273.39" y1="111.53" x2="274.96" y2="115.97"/><line x1="170.02" y1="227.93" x2="171.27" y2="229.54"/><line x1="263.75" y1="106.02" x2="261.73" y2="105.58"/><line x1="273.36" y1="160.96" x2="236.56" y2="114.38"/><line x1="340.68" y1="198.09" x2="337.76" y2="196.50"/><line x1="261.73" y1="105.58" x2="259.60" y2="105.27"/><line x1="254.20" y1="324.03" x2="251.97" y2="323.82"/><line x1="337.76" y1="196.50" x2="339.28" y2="197.15"/><line x1="447.51" y1="479.91" x2="480.00" y2="447.42"/><line x1="251.97" y1="323.82" x2="249.89" y2="323.47"/><line x1="274.57" y1="307.22" x2="274.27" y2="302.96"/><line x1="172.62" y1="198.29" x2="171.27" y2="199.59"/><line x1="180.75" y1="233.29" x2="183.04" y2="232.96"/><line x1="236.46" y1="115.97" x2="236.56" y2="114.38"/><line x1="180.75" y1="196.22" x2="170.02" y2="201.19"/><line x1="196.41" y1="231.84" x2="200.81" y2="231.60"/><line x1="246.39" y1="106.02" x2="244.55" y2="106.58"/><line x1="273.36" y1="160.96" x2="237.75" y2="132.56"/><line x1="238.56" y1="198.13" x2="272.60" y2="230.99"/><line x1="196.41" y1="197.12" x2="200.81" y2="197.25"/><line x1="188.88" y1="196.80" x2="188.88" y2="232.38"/><line x1="237.41" y1="288.23" x2="273.45" y2="285.79"/><line x1="480.00" y1="479.91" x2="447.51" y2="479.91"/><line x1="273.39" y1="111.53" x2="274.21" y2="112.90"/><line x1="273.36" y1="160.96" x2="236.46" y2="115.97"/><line x1="332.43" y1="196.22" x2="346.54" y2="214.17"/><line x1="188.88" y1="196.80" x2="177.21" y2="233.16"/><line x1="178.94" y1="233.36" x2="180.75" y2="233.29"/><line x1="236.65" y1="117.66" x2="236.46" y2="115.97"/><line x1="248.36" y1="105.58" x2="246.39" y2="106.02"/><line x1="274.57" y1="307.22" x2="258.88" y2="324.03"/><line x1="172.62" y1="198.29" x2="180.75" y2="196.22"/><line x1="301.57" y1="197.75" x2="332.43" y2="196.22"/><line x1="242.77" y1="320.66" x2="241.05" y2="319.53"/><line x1="343.11" y1="200.80" x2="341.96" y2="199.31"/><line x1="267.46" y1="107.26" x2="265.66" y2="106.58"/><line x1="196.41" y1="231.84" x2="196.41" y2="197.12"/><line x1="273.36" y1="160.96" x2="238.02" y2="138.75"/><line x1="241.05" y1="319.53" x2="239.61" y2="318.30"/><line x1="332.43" y1="196.22" x2="344.79" y2="224.63"/><line x1="334.34" y1="196.03" x2="336.11" y2="196.13"/><line x1="332.43" y1="196.22" x2="345.42" y2="205.88"/><line x1="188.88" y1="196.80" x2="170.02" y2="227.93"/><line x1="196.41" y1="197.12" x2="200.81" y2="231.60"/><line x1="258.88" y1="324.03" x2="256.53" y2="324.10"/><line x1="188.88" y1="196.80" x2="185.74" y2="232.66"/><line x1="237.59" y1="111.53" x2="236.93" y2="112.90"/><line x1="343.11" y1="227.93" x2="344.02" y2="226.35"/><line x1="174.06" y1="197.28" x2="178.94" y2="196.04"/><line x1="167.70" y1="206.26" x2="167.21" y2="208.17"/><line x1="236.65" y1="310.75" x2="237.41" y2="288.23"/><line x1="167.21" y1="208.17" x2="166.86" y2="210.19"/><line x1="237.41" y1="288.23" x2="273.71" y2="292.24"/><line x1="273.39" y1="111.53" x2="274.74" y2="114.38"/><line x1="274.89" y1="310.75" x2="271.81" y2="319.53"/><line x1="332.43" y1="196.22" x2="339.28" y2="231.91"/><line x1="273.36" y1="160.96" x2="236.65" y2="117.66"/><line x1="332.43" y1="196.22" x2="346.47" y2="216.52"/><line x1="346.54" y1="214.17" x2="346.47" y2="211.94"/><line x1="332.43" y1="196.22" x2="334.34" y2="196.03"/><line x1="188.88" y1="196.80" x2="166.86" y2="218.93"/><line x1="188.88" y1="196.80" x2="175.59" y2="232.68"/><line x1="271.81" y1="319.53" x2="270.31" y2="320.66"/><line x1="166.86" y1="218.93" x2="167.21" y2="220.95"/><line x1="341.96" y1="229.54" x2="343.11" y2="227.93"/><line x1="205.63" y1="231.38" x2="238.56" y2="230.99"/><line x1="273.96" y1="316.97" x2="273.02" y2="318.30"/><line x1="269.16" y1="108.08" x2="267.46" y2="107.26"/><line x1="343.11" y1="200.80" x2="334.34" y2="196.03"/><line x1="185.74" y1="196.63" x2="166.64" y2="216.80"/><line x1="261.09" y1="323.82" x2="258.88" y2="324.03"/><line x1="274.89" y1="310.75" x2="274.57" y2="307.22"/><line x1="332.43" y1="196.22" x2="344.02" y2="226.35"/><line x1="332.43" y1="196.22" x2="345.91" y2="207.79"/><line x1="346.47" y1="216.52" x2="346.54" y2="214.17"/><line x1="188.88" y1="196.80" x2="169.11" y2="226.35"/><line x1="188.88" y1="196.80" x2="183.04" y2="232.96"/><line x1="174.06" y1="197.28" x2="175.59" y2="196.57"/><line x1="272.60" y1="198.13" x2="238.56" y2="160.96"/><line x1="273.36" y1="160.96" x2="241.24" y2="108.08"/><line x1="332.43" y1="196.22" x2="334.34" y2="233.36"/><line x1="332.43" y1="196.22" x2="337.76" y2="232.68"/><line x1="332.43" y1="196.22" x2="346.26" y2="218.73"/><line x1="270.87" y1="109.12" x2="269.16" y2="108.08"/><line x1="480.00" y1="64.50" x2="447.51" y2="32.02"/><line x1="200.81" y1="197.25" x2="205.63" y2="197.36"/><line x1="171.27" y1="229.54" x2="172.62" y2="230.87"/><line x1="273.36" y1="160.96" x2="250.45" y2="105.27"/><line x1="273.96" y1="316.97" x2="275.08" y2="312.44"/><line x1="273.36" y1="160.96" x2="236.93" y2="112.90"/><line x1="185.74" y1="196.63" x2="166.58" y2="214.56"/><line x1="259.60" y1="105.27" x2="257.35" y2="105.08"/><line x1="238.02" y1="138.75" x2="237.75" y2="132.56"/><line x1="183.04" y1="232.96" x2="185.74" y2="232.66"/><line x1="183.04" y1="196.43" x2="185.74" y2="196.63"/><line x1="273.36" y1="160.96" x2="261.73" y2="105.58"/><line x1="344.02" y1="202.39" x2="343.11" y2="200.80"/><line x1="273.36" y1="160.96" x2="242.83" y2="107.26"/><line x1="273.98" y1="297.97" x2="236.68" y2="312.44"/><line x1="336.11" y1="233.16" x2="337.76" y2="232.68"/><line x1="263.18" y1="323.47" x2="261.09" y2="323.82"/><line x1="171.27" y1="199.59" x2="170.02" y2="201.19"/><line x1="274.27" y1="302.96" x2="251.97" y2="323.82"/><line x1="238.46" y1="316.97" x2="237.58" y2="315.56"/><line x1="166.86" y1="210.19" x2="166.64" y2="212.32"/><line x1="344.79" y1="224.63" x2="345.42" y2="222.79"/><line x1="249.89" y1="323.47" x2="247.92" y2="322.98"/><line x1="273.36" y1="160.96" x2="252.66" y2="105.08"/><line x1="273.98" y1="297.97" x2="241.05" y2="319.53"/><line x1="273.96" y1="316.97" x2="274.61" y2="315.56"/><line x1="273.36" y1="160.96" x2="237.59" y2="111.53"/><line x1="274.27" y1="302.96" x2="273.98" y2="297.97"/><line x1="273.45" y1="285.79" x2="273.21" y2="278.60"/><line x1="244.55" y1="106.58" x2="242.83" y2="107.26"/><line x1="32.16" y1="32.09" x2="32.16" y2="64.58"/><line x1="346.26" y1="209.81" x2="345.91" y2="207.79"/><line x1="239.61" y1="318.30" x2="238.46" y2="316.97"/><line x1="200.81" y1="231.60" x2="200.81" y2="197.25"/><line x1="274.98" y1="314.05" x2="274.61" y2="315.56"/><line x1="183.04" y1="196.43" x2="166.86" y2="210.19"/><line x1="344.02" y1="226.35" x2="344.79" y2="224.63"/><line x1="273.36" y1="160.96" x2="263.75" y2="106.02"/><line x1="273.36" y1="160.96" x2="244.55" y2="106.58"/><line x1="273.98" y1="297.97" x2="237.00" y2="314.05"/><line x1="341.96" y1="199.31" x2="340.68" y2="198.09"/><line x1="238.56" y1="230.99" x2="272.60" y2="230.99"/><line x1="274.27" y1="302.96" x2="254.20" y2="324.03"/><line x1="274.74" y1="114.38" x2="274.96" y2="115.97"/><line x1="272.60" y1="230.99" x2="332.43" y2="233.29"/><line x1="274.89" y1="117.66" x2="273.36" y2="160.96"/><line x1="166.86" y1="210.19" x2="185.74" y2="196.63"/><line x1="273.98" y1="297.97" x2="242.77" y2="320.66"/><line x1="180.75" y1="196.22" x2="171.27" y2="199.59"/><line x1="273.98" y1="297.97" x2="273.71" y2="292.24"/><line x1="192.44" y1="232.10" x2="196.41" y2="231.84"/><line x1="238.56" y1="230.99" x2="237.41" y2="288.23"/><line x1="32.00" y1="479.98" x2="64.49" y2="479.98"/><line x1="274.27" y1="302.96" x2="246.07" y2="322.35"/><line x1="274.98" y1="314.05" x2="273.96" y2="316.97"/><line x1="273.98" y1="297.97" x2="237.58" y2="315.56"/><line x1="180.75" y1="196.22" x2="183.04" y2="196.43"/><line x1="273.71" y1="292.24" x2="273.45" y2="285.79"/><line x1="238.56" y1="230.99" x2="272.98" y2="270.68"/><line x1="274.74" y1="114.38" x2="274.21" y2="112.90"/><line x1="346.47" y1="211.94" x2="346.26" y2="209.81"/><line x1="272.60" y1="230.99" x2="301.57" y2="197.75"/><line x1="270.31" y1="320.66" x2="268.72" y2="321.58"/><line x1="274.89" y1="117.66" x2="267.46" y2="107.26"/><line x1="274.57" y1="307.22" x2="261.09" y2="323.82"/><line x1="167.21" y1="220.95" x2="167.70" y2="222.86"/><line x1="301.57" y1="197.75" x2="332.43" y2="233.29"/><line x1="267.46" y1="107.26" x2="273.36" y2="160.96"/><line x1="334.34" y1="196.03" x2="341.96" y2="199.31"/><line x1="32.00" y1="479.98" x2="32.00" y2="447.50"/><line x1="339.28" y1="231.91" x2="340.68" y2="230.87"/><line x1="258.88" y1="324.03" x2="274.27" y2="302.96"/><line x1="168.33" y1="204.46" x2="167.70" y2="206.26"/><line x1="174.06" y1="231.91" x2="175.59" y2="232.68"/><line x1="237.75" y1="132.56" x2="237.43" y2="126.99"/><line x1="177.21" y1="196.15" x2="178.94" y2="196.04"/><line x1="255.01" y1="105.02" x2="252.66" y2="105.08"/><line x1="246.07" y1="322.35" x2="244.36" y2="321.58"/><line x1="275.08" y1="312.44" x2="274.89" y2="310.75"/><line x1="180.75" y1="196.22" x2="168.33" y2="204.46"/><line x1="273.36" y1="160.96" x2="237.06" y2="122.02"/><line x1="332.43" y1="196.22" x2="343.11" y2="200.80"/><line x1="188.88" y1="196.80" x2="174.06" y2="231.91"/><line x1="238.56" y1="198.13" x2="238.56" y2="160.96"/><line x1="188.88" y1="196.80" x2="192.44" y2="196.97"/><line x1="272.28" y1="110.27" x2="270.87" y2="109.12"/><line x1="274.57" y1="307.22" x2="263.18" y2="323.47"/><line x1="205.63" y1="231.38" x2="238.56" y2="198.13"/><line x1="172.62" y1="230.87" x2="174.06" y2="231.91"/><line x1="273.39" y1="111.53" x2="272.28" y2="110.27"/><line x1="273.36" y1="160.96" x2="238.25" y2="145.54"/><line x1="274.89" y1="310.75" x2="267.00" y2="322.35"/><line x1="332.43" y1="196.22" x2="343.11" y2="227.93"/><line x1="332.43" y1="196.22" x2="346.26" y2="209.81"/><line x1="340.68" y1="198.09" x2="339.28" y2="197.15"/><line x1="188.88" y1="196.80" x2="168.33" y2="224.66"/><line x1="257.35" y1="105.08" x2="255.01" y2="105.02"/><line x1="188.88" y1="196.80" x2="180.75" y2="233.29"/><line x1="174.06" y1="197.28" x2="177.21" y2="196.15"/><line x1="274.96" y1="115.97" x2="274.89" y2="117.66"/><line x1="247.92" y1="322.98" x2="246.07" y2="322.35"/><line x1="238.56" y1="160.96" x2="238.43" y2="152.95"/><line x1="177.21" y1="196.15" x2="175.59" y2="196.57"/><line x1="185.74" y1="232.66" x2="188.88" y2="232.38"/><line x1="267.00" y1="322.35" x2="265.15" y2="322.98"/><line x1="246.07" y1="322.35" x2="273.98" y2="297.97"/><line x1="188.88" y1="232.38" x2="192.44" y2="232.10"/><line x1="242.83" y1="107.26" x2="241.24" y2="108.08"/><line x1="273.36" y1="160.96" x2="238.56" y2="160.96"/><line x1="332.43" y1="196.22" x2="336.11" y2="233.16"/><line x1="337.76" y1="232.68" x2="339.28" y2="231.91"/><line x1="273.36" y1="160.96" x2="237.43" y2="126.99"/><line x1="332.43" y1="196.22" x2="345.91" y2="220.82"/><line x1="170.02" y1="201.19" x2="169.11" y2="202.76"/><line x1="332.43" y1="196.22" x2="344.02" y2="202.39"/><line x1="241.24" y1="108.08" x2="239.74" y2="109.12"/><line x1="188.88" y1="196.80" x2="172.62" y2="230.87"/><line x1="238.56" y1="198.13" x2="272.60" y2="198.13"/><line x1="188.88" y1="196.80" x2="192.44" y2="232.10"/><line x1="169.11" y1="202.76" x2="168.33" y2="204.46"/><line x1="200.81" y1="197.25" x2="205.63" y2="231.38"/><line x1="237.58" y1="315.56" x2="237.00" y2="314.05"/><line x1="205.63" y1="231.38" x2="205.63" y2="197.36"/><line x1="345.42" y1="222.79" x2="345.91" y2="220.82"/><line x1="185.74" y1="196.63" x2="166.64" y2="212.32"/><line x1="273.36" y1="160.96" x2="238.43" y2="152.95"/><line x1="274.89" y1="310.75" x2="268.72" y2="321.58"/><line x1="332.43" y1="196.22" x2="341.96" y2="229.54"/><line x1="166.64" y1="212.32" x2="166.58" y2="214.56"/><line x1="332.43" y1="196.22" x2="346.47" y2="211.94"/><line x1="188.88" y1="196.80" x2="167.70" y2="222.86"/><line x1="273.21" y1="278.60" x2="272.98" y2="270.68"/><line x1="188.88" y1="196.80" x2="178.94" y2="233.36"/><line x1="274.96" y1="115.97" x2="272.28" y2="110.27"/><line x1="345.91" y1="207.79" x2="345.42" y2="205.88"/><line x1="64.64" y1="32.09" x2="32.16" y2="64.58"/><line x1="267.00" y1="322.35" x2="274.57" y2="307.22"/><line x1="273.36" y1="160.96" x2="272.60" y2="198.13"/><line x1="336.11" y1="196.13" x2="337.76" y2="196.50"/><line x1="332.43" y1="196.22" x2="345.42" y2="222.79"/><line x1="332.43" y1="196.22" x2="344.79" y2="204.08"/><line x1="188.88" y1="196.80" x2="171.27" y2="229.54"/><line x1="174.06" y1="197.28" x2="172.62" y2="198.29"/><line x1="273.36" y1="160.96" x2="255.01" y2="105.02"/><line x1="273.36" y1="160.96" x2="238.53" y2="110.27"/><line x1="178.94" y1="196.04" x2="180.75" y2="196.22"/><line x1="274.89" y1="310.75" x2="270.31" y2="320.66"/><line x1="32.16" y1="32.09" x2="64.64" y2="32.09"/><line x1="332.43" y1="196.22" x2="340.68" y2="230.87"/><line x1="192.44" y1="196.97" x2="196.41" y2="197.12"/><line x1="268.72" y1="321.58" x2="267.00" y2="322.35"/><line x1="188.88" y1="196.80" x2="167.21" y2="220.95"/><line x1="167.70" y1="222.86" x2="168.33" y2="224.66"/><line x1="332.43" y1="233.29" x2="332.43" y2="196.22"/><line x1="183.04" y1="196.43" x2="167.21" y2="208.17"/><line x1="168.33" y1="224.66" x2="169.11" y2="226.35"/><line x1="273.36" y1="160.96" x2="265.66" y2="106.58"/><line x1="273.36" y1="160.96" x2="246.39" y2="106.02"/><line x1="341.96" y1="199.31" x2="336.11" y2="196.13"/><line x1="32.00" y1="447.50" x2="64.49" y2="479.98"/></g></svg>