<svg xmlns="http://www.w3.org/2000/svg" width="512" height="512"><rect width="512" height="512" fill="#0a0f1a"/><text x="12" y="20" font-family="monospace" font-size="11" fill="#4a7fa5">FRONT (XZ)</text><g stroke="#00d4ff" stroke-width="0.6" opacity="0.85"><line x1="310.22" y1="139.95" x2="280.64" y2="169.09"/><line x1="279.13" y1="282.71" x2="277.45" y2="283.64"/><line x1="244.10" y1="121.78" x2="245.25" y2="175.54"/><line x1="273.02" y1="166.20" x2="307.98" y2="122.72"/><line x1="285.22" y1="275.22" x2="284.36" y2="277.05"/><line x1="299.64" y1="106.83" x2="301.41" y2="109.03"/><line x1="251.80" y1="345.16" x2="249.66" y2="342.81"/><line x1="220.23" y1="237.25" x2="220.23" y2="354.62"/><line x1="310.22" y1="308.06" x2="282.07" y2="280.25"/><line x1="291.10" y1="99.96" x2="293.43" y2="101.39"/><line x1="249.66" y1="342.81" x2="247.71" y2="340.28"/><line x1="273.02" y1="166.20" x2="275.00" y2="96.02"/><line x1="273.02" y1="166.20" x2="297.72" y2="104.83"/><line x1="293.43" y1="101.39" x2="295.66" y2="103.01"/><line x1="310.22" y1="139.95" x2="285.22" y2="174.86"/><line x1="244.10" y1="121.78" x2="249.86" y2="169.33"/><line x1="277.45" y1="283.64" x2="275.64" y2="284.35"/><line x1="273.02" y1="166.20" x2="309.41" y2="129.21"/><line x1="259.21" y1="351.00" x2="256.59" y2="349.27"/><line x1="310.22" y1="308.06" x2="286.74" y2="266.30"/><line x1="480.00" y1="479.91" x2="447.51" y2="479.91"/><line x1="275.64" y1="284.35" x2="310.02" y2="313.77"/><line x1="261.69" y1="214.17" x2="202.90" y2="214.17"/><line x1="259.72" y1="285.28" x2="257.94" y2="285.19"/><line x1="271.61" y1="285.17" x2="249.66" y2="342.81"/><line x1="242.92" y1="331.52" x2="243.80" y2="272.86"/><line x1="251.43" y1="283.05" x2="249.96" y2="282.06"/><line x1="273.02" y1="166.20" x2="280.76" y2="96.46"/><line x1="221.01" y1="201.05" x2="244.10" y2="121.78"/><line x1="304.51" y1="113.98" x2="305.84" y2="116.75"/><line x1="273.02" y1="166.20" x2="301.41" y2="109.03"/><line x1="310.22" y1="139.95" x2="310.22" y2="308.06"/><line x1="244.10" y1="121.78" x2="257.55" y2="166.23"/><line x1="295.66" y1="103.01" x2="297.72" y2="104.83"/><line x1="273.02" y1="166.20" x2="310.12" y2="136.24"/><line x1="257.94" y1="285.19" x2="256.22" y2="284.92"/><line x1="242.20" y1="332.17" x2="242.53" y2="354.62"/><line x1="286.13" y1="97.77" x2="288.66" y2="98.75"/><line x1="305.84" y1="116.75" x2="307.00" y2="119.66"/><line x1="244.34" y1="334.63" x2="242.92" y2="331.52"/><line x1="307.10" y1="329.23" x2="305.35" y2="333.82"/><line x1="310.02" y1="313.77" x2="273.70" y2="284.87"/><line x1="271.61" y1="285.17" x2="267.44" y2="354.60"/><line x1="242.92" y1="331.52" x2="249.96" y2="282.06"/><line x1="294.80" y1="348.84" x2="291.53" y2="351.34"/><line x1="271.61" y1="285.17" x2="245.93" y2="337.55"/><line x1="273.02" y1="166.20" x2="250.06" y2="109.16"/><line x1="242.92" y1="331.52" x2="243.71" y2="237.25"/><line x1="273.02" y1="166.20" x2="286.13" y2="97.77"/><line x1="221.01" y1="201.05" x2="243.71" y2="201.05"/><line x1="244.10" y1="121.78" x2="243.71" y2="184.85"/><line x1="280.66" y1="281.58" x2="279.13" y2="282.71"/><line x1="273.02" y1="166.20" x2="304.51" y2="113.98"/><line x1="305.35" y1="333.82" x2="303.21" y2="338.14"/><line x1="244.10" y1="121.78" x2="268.06" y2="165.84"/><line x1="273.02" y1="166.20" x2="277.21" y2="167.28"/><line x1="202.90" y1="214.17" x2="202.90" y2="237.25"/><line x1="256.22" y1="284.92" x2="254.56" y2="284.48"/><line x1="244.10" y1="274.28" x2="243.80" y2="272.86"/><line x1="221.01" y1="96.41" x2="243.37" y2="121.12"/><line x1="286.36" y1="178.83" x2="286.74" y2="183.52"/><line x1="249.86" y1="169.33" x2="253.32" y2="167.39"/><line x1="309.44" y1="319.20" x2="271.61" y2="285.17"/><line x1="32.16" y1="32.09" x2="32.16" y2="64.58"/><line x1="307.00" y1="119.66" x2="307.98" y2="122.72"/><line x1="271.61" y1="285.17" x2="291.53" y2="351.34"/><line x1="242.92" y1="331.52" x2="269.39" y2="285.28"/><line x1="247.26" y1="279.64" x2="246.18" y2="278.35"/><line x1="271.61" y1="285.17" x2="261.89" y2="352.46"/><line x1="242.92" y1="331.52" x2="247.26" y2="279.64"/><line x1="254.56" y1="284.48" x2="252.96" y2="283.86"/><line x1="271.61" y1="285.17" x2="242.92" y2="331.52"/><line x1="243.37" y1="121.12" x2="243.71" y2="96.41"/><line x1="273.02" y1="166.20" x2="258.32" y2="100.75"/><line x1="301.41" y1="109.03" x2="303.03" y2="111.41"/><line x1="273.02" y1="166.20" x2="291.10" y2="99.96"/><line x1="310.22" y1="139.95" x2="277.21" y2="167.28"/><line x1="252.96" y1="283.86" x2="251.43" y2="283.05"/><line x1="244.10" y1="121.78" x2="244.09" y2="179.81"/><line x1="273.02" y1="166.20" x2="307.00" y2="119.66"/><line x1="307.98" y1="122.72" x2="308.78" y2="125.90"/><line x1="269.39" y1="285.28" x2="259.72" y2="285.28"/><line x1="244.10" y1="121.78" x2="246.79" y2="114.95"/><line x1="303.21" y1="338.14" x2="300.68" y2="342.17"/><line x1="220.23" y1="237.25" x2="242.20" y2="332.17"/><line x1="308.78" y1="125.90" x2="309.41" y2="129.21"/><line x1="221.01" y1="96.41" x2="221.01" y2="201.05"/><line x1="303.03" y1="111.41" x2="304.51" y2="113.98"/><line x1="253.32" y1="167.39" x2="257.55" y2="166.23"/><line x1="271.61" y1="285.17" x2="308.46" y2="324.36"/><line x1="310.22" y1="308.06" x2="279.13" y2="282.71"/><line x1="271.61" y1="285.17" x2="284.32" y2="354.68"/><line x1="242.92" y1="331.52" x2="257.94" y2="285.19"/><line x1="300.68" y1="342.17" x2="297.85" y2="345.78"/><line x1="243.71" y1="237.25" x2="261.69" y2="237.25"/><line x1="271.61" y1="285.17" x2="256.59" y2="349.27"/><line x1="242.92" y1="331.52" x2="245.29" y2="277.02"/><line x1="246.18" y1="278.35" x2="245.29" y2="277.02"/><line x1="244.09" y1="179.81" x2="245.25" y2="175.54"/><line x1="242.92" y1="331.52" x2="220.23" y2="237.25"/><line x1="243.37" y1="121.12" x2="244.10" y2="121.78"/><line x1="273.02" y1="166.20" x2="268.87" y2="96.55"/><line x1="257.55" y1="166.23" x2="262.55" y2="165.84"/><line x1="273.02" y1="166.20" x2="295.66" y2="103.01"/><line x1="310.22" y1="139.95" x2="283.31" y2="171.61"/><line x1="244.10" y1="121.78" x2="247.17" y2="172.05"/><line x1="277.21" y1="167.28" x2="280.64" y2="169.09"/><line x1="273.02" y1="166.20" x2="308.78" y2="125.90"/><line x1="308.46" y1="324.36" x2="307.10" y2="329.23"/><line x1="245.29" y1="277.02" x2="244.60" y2="275.67"/><line x1="480.00" y1="32.02" x2="447.51" y2="32.02"/><line x1="245.25" y1="175.54" x2="247.17" y2="172.05"/><line x1="309.41" y1="129.21" x2="309.86" y2="132.66"/><line x1="310.22" y1="308.06" x2="286.36" y2="271.07"/><line x1="271.61" y1="285.17" x2="305.35" y2="333.82"/><line x1="280.64" y1="169.09" x2="283.31" y2="171.61"/><line x1="249.96" y1="282.06" x2="248.54" y2="280.91"/><line x1="310.22" y1="308.06" x2="275.64" y2="284.35"/><line x1="280.39" y1="355.51" x2="276.24" y2="355.79"/><line x1="271.61" y1="285.17" x2="276.24" y2="355.79"/><line x1="242.92" y1="331.52" x2="254.56" y2="284.48"/><line x1="243.71" y1="237.25" x2="220.23" y2="237.25"/><line x1="271.61" y1="285.17" x2="251.80" y2="345.16"/><line x1="242.92" y1="331.52" x2="244.10" y2="274.28"/><line x1="242.92" y1="331.52" x2="242.20" y2="332.17"/><line x1="273.02" y1="166.20" x2="277.93" y2="96.13"/><line x1="309.86" y1="132.66" x2="310.12" y2="136.24"/><line x1="253.90" y1="104.43" x2="258.32" y2="100.75"/><line x1="273.02" y1="166.20" x2="299.64" y2="106.83"/><line x1="310.22" y1="139.95" x2="286.36" y2="178.83"/><line x1="262.55" y1="165.84" x2="268.06" y2="165.84"/><line x1="244.10" y1="121.78" x2="253.32" y2="167.39"/><line x1="273.02" y1="166.20" x2="309.86" y2="132.66"/><line x1="276.24" y1="355.79" x2="273.24" y2="355.66"/><line x1="268.06" y1="165.84" x2="273.02" y2="166.20"/><line x1="247.17" y1="172.05" x2="249.86" y2="169.33"/><line x1="258.32" y1="100.75" x2="263.31" y2="98.12"/><line x1="291.53" y1="351.34" x2="288.03" y2="353.29"/><line x1="310.22" y1="308.06" x2="285.22" y2="275.22"/><line x1="271.61" y1="285.17" x2="300.68" y2="342.17"/><line x1="248.54" y1="280.91" x2="247.26" y2="279.64"/><line x1="271.61" y1="285.17" x2="270.31" y2="355.26"/><line x1="242.92" y1="331.52" x2="251.43" y2="283.05"/><line x1="243.71" y1="184.85" x2="243.71" y2="201.05"/><line x1="271.61" y1="285.17" x2="247.71" y2="340.28"/><line x1="273.02" y1="166.20" x2="246.79" y2="114.95"/><line x1="242.92" y1="331.52" x2="243.71" y2="271.41"/><line x1="273.02" y1="166.20" x2="283.49" y2="97.00"/><line x1="310.12" y1="136.24" x2="310.22" y2="139.95"/><line x1="273.02" y1="166.20" x2="303.03" y2="111.41"/><line x1="286.65" y1="268.77" x2="286.36" y2="271.07"/><line x1="243.80" y1="272.86" x2="243.71" y2="271.41"/><line x1="32.00" y1="479.98" x2="64.49" y2="479.98"/><line x1="286.36" y1="178.83" x2="310.22" y2="308.06"/><line x1="310.22" y1="308.06" x2="283.31" y2="278.73"/><line x1="271.61" y1="285.17" x2="294.80" y2="348.84"/><line x1="288.03" y1="353.29" x2="284.32" y2="354.68"/><line x1="256.59" y1="349.27" x2="254.11" y2="347.31"/><line x1="310.02" y1="313.77" x2="309.44" y2="319.20"/><line x1="64.64" y1="32.09" x2="32.16" y2="64.58"/><line x1="271.61" y1="285.17" x2="264.63" y2="353.66"/><line x1="242.92" y1="331.52" x2="248.54" y2="280.91"/><line x1="271.61" y1="285.17" x2="244.34" y2="334.63"/><line x1="273.02" y1="166.20" x2="253.90" y2="104.43"/><line x1="246.79" y1="114.95" x2="250.06" y2="109.16"/><line x1="273.70" y1="284.87" x2="271.61" y2="285.17"/><line x1="273.02" y1="166.20" x2="288.66" y2="98.75"/><line x1="267.44" y1="354.60" x2="264.63" y2="353.66"/><line x1="284.32" y1="354.68" x2="280.39" y2="355.51"/><line x1="243.71" y1="271.41" x2="243.71" y2="237.25"/><line x1="221.01" y1="96.41" x2="243.71" y2="96.41"/><line x1="250.06" y1="109.16" x2="253.90" y2="104.43"/><line x1="297.85" y1="345.78" x2="294.80" y2="348.84"/><line x1="309.44" y1="319.20" x2="308.46" y2="324.36"/><line x1="310.22" y1="308.06" x2="286.74" y2="183.52"/><line x1="310.22" y1="308.06" x2="280.66" y2="281.58"/><line x1="271.61" y1="285.17" x2="288.03" y2="353.29"/><line x1="242.92" y1="331.52" x2="259.72" y2="285.28"/><line x1="243.71" y1="237.25" x2="261.69" y2="214.17"/><line x1="271.61" y1="285.17" x2="259.21" y2="351.00"/><line x1="242.92" y1="331.52" x2="246.18" y2="278.35"/><line x1="273.02" y1="166.20" x2="263.31" y2="98.12"/><line x1="261.69" y1="214.17" x2="261.69" y2="237.25"/><line x1="286.74" y1="183.52" x2="286.74" y2="266.30"/><line x1="244.60" y1="275.67" x2="244.10" y2="274.28"/><line x1="264.63" y1="353.66" x2="261.89" y2="352.46"/><line x1="480.00" y1="32.02" x2="480.00" y2="64.50"/><line x1="283.31" y1="171.61" x2="285.22" y2="174.86"/><line x1="277.93" y1="96.13" x2="280.76" y2="96.46"/><line x1="310.22" y1="308.06" x2="286.65" y2="268.77"/><line x1="271.61" y1="285.17" x2="307.10" y2="329.23"/><line x1="261.89" y1="352.46" x2="259.21" y2="351.00"/><line x1="310.22" y1="308.06" x2="277.45" y2="283.64"/><line x1="271.61" y1="285.17" x2="280.39" y2="355.51"/><line x1="242.92" y1="331.52" x2="256.22" y2="284.92"/><line x1="243.71" y1="237.25" x2="202.90" y2="214.17"/><line x1="242.20" y1="332.17" x2="220.23" y2="354.62"/><line x1="271.61" y1="285.17" x2="254.11" y2="347.31"/><line x1="480.00" y1="479.91" x2="480.00" y2="447.42"/><line x1="242.92" y1="331.52" x2="244.60" y2="275.67"/><line x1="275.64" y1="284.35" x2="273.70" y2="284.87"/><line x1="280.76" y1="96.46" x2="283.49" y2="97.00"/><line x1="273.24" y1="355.66" x2="270.31" y2="355.26"/><line x1="284.36" y1="277.05" x2="283.31" y2="278.73"/><line x1="286.74" y1="266.30" x2="286.65" y2="268.77"/><line x1="220.23" y1="354.62" x2="242.53" y2="354.62"/><line x1="221.01" y1="201.05" x2="243.71" y2="184.85"/><line x1="263.31" y1="98.12" x2="268.87" y2="96.55"/><line x1="244.10" y1="121.78" x2="262.55" y2="165.84"/><line x1="480.00" y1="64.50" x2="447.51" y2="32.02"/><line x1="273.02" y1="166.20" x2="310.22" y2="139.95"/><line x1="285.22" y1="174.86" x2="286.36" y2="178.83"/><line x1="283.31" y1="278.73" x2="282.07" y2="280.25"/><line x1="202.90" y1="214.17" x2="220.23" y2="237.25"/><line x1="310.22" y1="308.06" x2="285.88" y2="273.23"/><line x1="271.61" y1="285.17" x2="303.21" y2="338.14"/><line x1="247.71" y1="340.28" x2="245.93" y2="337.55"/><line x1="310.22" y1="308.06" x2="310.02" y2="313.77"/><line x1="271.61" y1="285.17" x2="273.24" y2="355.66"/><line x1="242.92" y1="331.52" x2="252.96" y2="283.86"/><line x1="32.16" y1="32.09" x2="64.64" y2="32.09"/><line x1="447.51" y1="479.91" x2="480.00" y2="447.42"/><line x1="286.36" y1="271.07" x2="285.88" y2="273.23"/><line x1="283.49" y1="97.00" x2="286.13" y2="97.77"/><line x1="270.31" y1="355.26" x2="267.44" y2="354.60"/><line x1="245.93" y1="337.55" x2="244.34" y2="334.63"/><line x1="32.00" y1="479.98" x2="32.00" y2="447.50"/><line x1="268.87" y1="96.55" x2="275.00" y2="96.02"/><line x1="273.02" y1="166.20" x2="305.84" y2="116.75"/><line x1="297.72" y1="104.83" x2="299.64" y2="106.83"/><line x1="244.10" y1="121.78" x2="273.02" y2="166.20"/><line x1="254.11" y1="347.31" x2="251.80" y2="345.16"/><line x1="282.07" y1="280.25" x2="280.66" y2="281.58"/><line x1="310.22" y1="308.06" x2="284.36" y2="277.05"/><line x1="271.61" y1="285.17" x2="297.85" y2="345.78"/><line x1="220.23" y1="237.25" x2="202.90" y2="237.25"/><line x1="288.66" y1="98.75" x2="291.10" y2="99.96"/><line x1="243.71" y1="184.85" x2="244.09" y2="179.81"/><line x1="275.00" y1="96.02" x2="277.93" y2="96.13"/><line x1="285.88" y1="273.23" x2="285.22" y2="275.22"/><line x1="273.70" y1="284.87" x2="309.44" y2="319.20"/><line x1="271.61" y1="285.17" x2="269.39" y2="285.28"/><line x1="243.37" y1="121.12" x2="221.01" y2="201.05"/><line x1="32.00" y1="447.50" x2="64.49" y2="479.98"/><line x1="273.02" y1="166.20" x2="293.43" y2="101.39"/></g></svg>