<svg xmlns="http://www.w3.org/2000/svg" width="512" height="512"><rect width="512" height="512" fill="#0a0f1a"/><text x="12" y="20" font-family="monospace" font-size="11" fill="#4a7fa5">FRONT (XZ)</text><g stroke="#00d4ff" stroke-width="0.6" opacity="0.85"><line x1="204.33" y1="355.01" x2="230.73" y2="279.92"/><line x1="308.79" y1="355.01" x2="242.44" y2="285.05"/><line x1="308.79" y1="355.01" x2="237.23" y2="284.33"/><line x1="204.33" y1="355.01" x2="308.79" y2="355.01"/><line x1="480.00" y1="32.02" x2="480.00" y2="64.50"/><line x1="308.79" y1="355.01" x2="308.79" y2="285.05"/><line x1="291.18" y1="285.05" x2="291.18" y2="166.75"/><line x1="235.70" y1="283.76" x2="237.23" y2="284.33"/><line x1="267.71" y1="166.75" x2="249.32" y2="96.80"/><line x1="227.88" y1="272.61" x2="228.13" y2="274.26"/><line x1="204.33" y1="236.05" x2="227.80" y2="270.87"/><line x1="230.73" y1="279.92" x2="231.79" y2="281.09"/><line x1="231.79" y1="281.09" x2="232.99" y2="282.15"/><line x1="267.71" y1="285.05" x2="291.18" y2="285.05"/><line x1="32.16" y1="32.09" x2="32.16" y2="64.58"/><line x1="267.71" y1="285.05" x2="267.71" y2="166.75"/><line x1="232.99" y1="282.15" x2="234.30" y2="283.03"/><line x1="480.00" y1="479.91" x2="480.00" y2="447.42"/><line x1="228.13" y1="274.26" x2="228.54" y2="275.82"/><line x1="237.23" y1="284.33" x2="238.85" y2="284.73"/><line x1="234.30" y1="283.03" x2="235.70" y2="283.76"/><line x1="249.32" y1="96.80" x2="249.32" y2="166.75"/><line x1="227.80" y1="270.87" x2="227.80" y2="236.05"/><line x1="32.00" y1="479.98" x2="64.49" y2="479.98"/><line x1="204.33" y1="355.01" x2="228.13" y2="274.26"/><line x1="204.33" y1="355.01" x2="232.99" y2="282.15"/><line x1="308.79" y1="355.01" x2="235.70" y2="283.76"/><line x1="228.54" y1="275.82" x2="229.11" y2="277.28"/><line x1="204.33" y1="355.01" x2="229.84" y2="278.65"/><line x1="308.79" y1="355.01" x2="240.59" y2="284.98"/><line x1="291.18" y1="285.05" x2="308.79" y2="285.05"/><line x1="480.00" y1="64.50" x2="447.51" y2="32.02"/><line x1="308.79" y1="355.01" x2="291.18" y2="285.05"/><line x1="204.33" y1="236.05" x2="204.33" y2="355.01"/><line x1="232.99" y1="282.15" x2="308.79" y2="355.01"/><line x1="32.16" y1="32.09" x2="64.64" y2="32.09"/><line x1="480.00" y1="479.91" x2="447.51" y2="479.91"/><line x1="267.71" y1="285.05" x2="291.18" y2="166.75"/><line x1="64.64" y1="32.09" x2="32.16" y2="64.58"/><line x1="447.51" y1="479.91" x2="480.00" y2="447.42"/><line x1="291.18" y1="166.75" x2="249.32" y2="96.80"/><line x1="249.32" y1="96.80" x2="308.79" y2="96.80"/><line x1="229.11" y1="277.28" x2="229.84" y2="278.65"/><line x1="238.85" y1="284.73" x2="240.59" y2="284.98"/><line x1="227.80" y1="270.87" x2="227.88" y2="272.61"/><line x1="242.44" y1="285.05" x2="267.71" y2="285.05"/><line x1="32.00" y1="479.98" x2="32.00" y2="447.50"/><line x1="204.33" y1="355.01" x2="227.88" y2="272.61"/><line x1="308.79" y1="355.01" x2="234.30" y2="283.03"/><line x1="204.33" y1="355.01" x2="229.11" y2="277.28"/><line x1="308.79" y1="355.01" x2="238.85" y2="284.73"/><line x1="204.33" y1="355.01" x2="231.79" y2="281.09"/><line x1="308.79" y1="355.01" x2="267.71" y2="285.05"/><line x1="267.71" y1="166.75" x2="249.32" y2="166.75"/><line x1="204.33" y1="236.05" x2="227.80" y2="236.05"/><line x1="480.00" y1="32.02" x2="447.51" y2="32.02"/><line x1="229.84" y1="278.65" x2="230.73" y2="279.92"/><line x1="240.59" y1="284.98" x2="242.44" y2="285.05"/><line x1="308.79" y1="166.75" x2="308.79" y2="96.80"/><line x1="291.18" y1="166.75" x2="267.71" y2="166.75"/><line x1="291.18" y1="166.75" x2="308.79" y2="166.75"/><line x1="249.32" y1="96.80" x2="308.79" y2="166.75"/><line x1="227.80" y1="270.87" x2="204.33" y2="355.01"/><line x1="204.33" y1="355.01" x2="228.54" y2="275.82"/><line x1="32.00" y1="447.50" x2="64.49" y2="479.98"/></g></svg>