<svg xmlns="http://www.w3.org/2000/svg" width="512" height="512"><rect width="512" height="512" fill="#0a0f1a"/><text x="12" y="20" font-family="monospace" font-size="11" fill="#4a7fa5">FRONT (XZ)</text><g stroke="#00d4ff" stroke-width="0.6" opacity="0.85"><line x1="192.79" y1="169.37" x2="192.79" y2="99.38"/><line x1="211.96" y1="307.37" x2="235.43" y2="270.21"/><line x1="236.64" y1="279.10" x2="235.73" y2="275.02"/><line x1="243.04" y1="356.24" x2="239.84" y2="355.05"/><line x1="256.95" y1="358.38" x2="253.30" y2="358.24"/><line x1="261.67" y1="288.37" x2="267.78" y2="357.30"/><line x1="250.20" y1="288.37" x2="221.47" y2="339.85"/><line x1="261.67" y1="288.37" x2="233.80" y2="351.86"/><line x1="253.30" y1="358.24" x2="249.77" y2="357.84"/><line x1="278.07" y1="271.86" x2="301.94" y2="310.67"/><line x1="192.79" y1="99.38" x2="251.08" y2="99.38"/><line x1="480.00" y1="479.91" x2="447.51" y2="479.91"/><line x1="261.67" y1="288.37" x2="256.95" y2="358.38"/><line x1="246.28" y1="287.99" x2="213.86" y2="322.94"/><line x1="251.08" y1="99.38" x2="251.08" y2="169.37"/><line x1="250.20" y1="288.37" x2="217.79" y2="333.53"/><line x1="261.67" y1="288.37" x2="250.20" y2="288.37"/><line x1="301.94" y1="169.37" x2="278.07" y2="169.37"/><line x1="233.80" y1="351.86" x2="230.98" y2="349.89"/><line x1="266.03" y1="288.02" x2="300.92" y2="322.18"/><line x1="249.77" y1="357.84" x2="246.34" y2="357.17"/><line x1="267.78" y1="357.30" x2="262.52" y2="358.10"/><line x1="261.67" y1="288.37" x2="289.46" y2="345.17"/><line x1="230.98" y1="349.89" x2="250.20" y2="288.37"/><line x1="261.67" y1="288.37" x2="249.77" y2="357.84"/><line x1="246.28" y1="287.99" x2="212.43" y2="315.37"/><line x1="250.20" y1="288.37" x2="246.28" y2="287.99"/><line x1="301.94" y1="169.37" x2="278.07" y2="271.86"/><line x1="278.07" y1="169.37" x2="261.25" y2="169.37"/><line x1="235.43" y1="169.37" x2="192.79" y2="169.37"/><line x1="211.96" y1="307.37" x2="238.14" y2="282.43"/><line x1="266.03" y1="288.02" x2="297.86" y2="332.36"/><line x1="261.25" y1="99.38" x2="320.33" y2="169.37"/><line x1="275.07" y1="282.97" x2="272.72" y2="285.33"/><line x1="32.16" y1="32.09" x2="32.16" y2="64.58"/><line x1="261.67" y1="288.37" x2="281.71" y2="351.64"/><line x1="250.20" y1="288.37" x2="228.33" y2="347.70"/><line x1="261.67" y1="288.37" x2="243.04" y2="356.24"/><line x1="246.28" y1="287.99" x2="242.96" y2="286.88"/><line x1="320.33" y1="169.37" x2="320.33" y2="99.38"/><line x1="239.84" y1="355.05" x2="236.76" y2="353.58"/><line x1="217.79" y1="333.53" x2="216.24" y2="330.10"/><line x1="235.43" y1="169.37" x2="251.08" y2="99.38"/><line x1="228.33" y1="347.70" x2="225.87" y2="345.29"/><line x1="211.96" y1="307.37" x2="235.73" y2="275.02"/><line x1="266.03" y1="288.02" x2="261.67" y2="288.37"/><line x1="225.87" y1="345.29" x2="223.58" y2="342.68"/><line x1="261.25" y1="99.38" x2="301.94" y2="169.37"/><line x1="236.76" y1="353.58" x2="233.80" y2="351.86"/><line x1="272.72" y1="285.33" x2="269.71" y2="287.01"/><line x1="261.67" y1="288.37" x2="272.73" y2="355.95"/><line x1="250.20" y1="288.37" x2="223.58" y2="342.68"/><line x1="301.94" y1="310.67" x2="277.74" y2="276.24"/><line x1="212.08" y1="311.42" x2="211.96" y2="307.37"/><line x1="269.71" y1="287.01" x2="266.03" y2="288.02"/><line x1="216.24" y1="330.10" x2="246.28" y2="287.99"/><line x1="211.96" y1="307.37" x2="211.96" y2="169.37"/><line x1="480.00" y1="32.02" x2="447.51" y2="32.02"/><line x1="277.74" y1="276.24" x2="276.73" y2="279.95"/><line x1="261.25" y1="99.38" x2="261.25" y2="169.37"/><line x1="223.58" y1="342.68" x2="221.47" y2="339.85"/><line x1="261.67" y1="288.37" x2="262.52" y2="358.10"/><line x1="246.28" y1="287.99" x2="214.94" y2="326.58"/><line x1="250.20" y1="288.37" x2="219.54" y2="336.80"/><line x1="301.94" y1="310.67" x2="275.07" y2="282.97"/><line x1="221.47" y1="339.85" x2="219.54" y2="336.80"/><line x1="295.57" y1="336.96" x2="261.67" y2="288.37"/><line x1="242.96" y1="286.88" x2="240.25" y2="285.03"/><line x1="266.03" y1="288.02" x2="301.69" y2="316.59"/><line x1="301.69" y1="316.59" x2="300.92" y2="322.18"/><line x1="276.73" y1="279.95" x2="275.07" y2="282.97"/><line x1="235.43" y1="270.21" x2="235.43" y2="169.37"/><line x1="261.67" y1="288.37" x2="292.77" y2="341.23"/><line x1="250.20" y1="288.37" x2="216.24" y2="330.10"/><line x1="300.92" y1="322.18" x2="299.65" y2="327.43"/><line x1="301.94" y1="310.67" x2="269.71" y2="287.01"/><line x1="219.54" y1="336.80" x2="217.79" y2="333.53"/><line x1="211.96" y1="307.37" x2="240.25" y2="285.03"/><line x1="266.03" y1="288.02" x2="299.65" y2="327.43"/><line x1="32.00" y1="479.98" x2="64.49" y2="479.98"/><line x1="213.03" y1="319.21" x2="212.43" y2="315.37"/><line x1="211.96" y1="169.37" x2="192.79" y2="169.37"/><line x1="64.64" y1="32.09" x2="32.16" y2="64.58"/><line x1="299.65" y1="327.43" x2="297.86" y2="332.36"/><line x1="301.94" y1="310.67" x2="301.69" y2="316.59"/><line x1="261.67" y1="288.37" x2="236.76" y2="353.58"/><line x1="235.43" y1="169.37" x2="192.79" y2="99.38"/><line x1="261.25" y1="99.38" x2="320.33" y2="99.38"/><line x1="297.86" y1="332.36" x2="295.57" y2="336.96"/><line x1="212.43" y1="315.37" x2="212.08" y2="311.42"/><line x1="261.67" y1="288.37" x2="230.98" y2="349.89"/><line x1="212.08" y1="311.42" x2="242.96" y2="286.88"/><line x1="235.43" y1="169.37" x2="251.08" y2="169.37"/><line x1="480.00" y1="32.02" x2="480.00" y2="64.50"/><line x1="214.94" y1="326.58" x2="213.86" y2="322.94"/><line x1="278.07" y1="271.86" x2="277.74" y2="276.24"/><line x1="281.71" y1="351.64" x2="277.38" y2="354.06"/><line x1="261.25" y1="99.38" x2="278.07" y2="169.37"/><line x1="480.00" y1="479.91" x2="480.00" y2="447.42"/><line x1="261.67" y1="288.37" x2="253.30" y2="358.24"/><line x1="301.94" y1="310.67" x2="276.73" y2="279.95"/><line x1="277.38" y1="354.06" x2="272.73" y2="355.95"/><line x1="246.28" y1="287.99" x2="213.03" y2="319.21"/><line x1="235.73" y1="275.02" x2="235.43" y2="270.21"/><line x1="242.96" y1="286.88" x2="211.96" y2="307.37"/><line x1="216.24" y1="330.10" x2="214.94" y2="326.58"/><line x1="292.77" y1="341.23" x2="289.46" y2="345.17"/><line x1="480.00" y1="64.50" x2="447.51" y2="32.02"/><line x1="213.86" y1="322.94" x2="213.03" y2="319.21"/><line x1="235.43" y1="270.21" x2="211.96" y2="169.37"/><line x1="32.16" y1="32.09" x2="64.64" y2="32.09"/><line x1="261.67" y1="288.37" x2="285.74" y2="348.67"/><line x1="230.98" y1="349.89" x2="228.33" y2="347.70"/><line x1="447.51" y1="479.91" x2="480.00" y2="447.42"/><line x1="240.25" y1="285.03" x2="238.14" y2="282.43"/><line x1="261.67" y1="288.37" x2="246.34" y2="357.17"/><line x1="301.94" y1="310.67" x2="272.72" y2="285.33"/><line x1="246.28" y1="287.99" x2="212.08" y2="311.42"/><line x1="272.73" y1="355.95" x2="267.78" y2="357.30"/><line x1="295.57" y1="336.96" x2="292.77" y2="341.23"/><line x1="32.00" y1="479.98" x2="32.00" y2="447.50"/><line x1="301.94" y1="169.37" x2="301.94" y2="310.67"/><line x1="278.07" y1="169.37" x2="278.07" y2="271.86"/><line x1="289.46" y1="345.17" x2="285.74" y2="348.67"/><line x1="211.96" y1="307.37" x2="236.64" y2="279.10"/><line x1="266.03" y1="288.02" x2="295.57" y2="336.96"/><line x1="246.34" y1="357.17" x2="243.04" y2="356.24"/><line x1="211.96" y1="169.37" x2="235.43" y2="169.37"/><line x1="262.52" y1="358.10" x2="256.95" y2="358.38"/><line x1="261.67" y1="288.37" x2="277.38" y2="354.06"/><line x1="285.74" y1="348.67" x2="281.71" y2="351.64"/><line x1="250.20" y1="288.37" x2="225.87" y2="345.29"/><line x1="238.14" y1="282.43" x2="236.64" y2="279.10"/><line x1="261.67" y1="288.37" x2="239.84" y2="355.05"/><line x1="301.94" y1="310.67" x2="266.03" y2="288.02"/><line x1="320.33" y1="169.37" x2="301.94" y2="169.37"/><line x1="32.00" y1="447.50" x2="64.49" y2="479.98"/></g></svg>