<svg xmlns="http://www.w3.org/2000/svg" width="512" height="512"><rect width="512" height="512" fill="#0a0f1a"/><text x="12" y="20" font-family="monospace" font-size="11" fill="#4a7fa5">FRONT (XZ)</text><g stroke="#00d4ff" stroke-width="0.6" opacity="0.85"><line x1="235.85" y1="101.82" x2="238.98" y2="100.60"/><line x1="283.05" y1="226.70" x2="300.16" y2="131.93"/><line x1="298.39" y1="125.30" x2="297.17" y2="122.19"/><line x1="283.05" y1="226.70" x2="285.55" y2="107.02"/><line x1="290.12" y1="342.31" x2="282.58" y2="349.32"/><line x1="236.75" y1="173.95" x2="236.13" y2="175.22"/><line x1="295.88" y1="333.41" x2="266.56" y2="356.42"/><line x1="297.17" y1="122.19" x2="295.73" y2="119.22"/><line x1="227.34" y1="347.60" x2="229.89" y2="349.64"/><line x1="269.56" y1="214.92" x2="275.83" y2="245.68"/><line x1="244.46" y1="215.67" x2="245.03" y2="238.35"/><line x1="274.26" y1="211.77" x2="272.20" y2="213.61"/><line x1="282.58" y1="349.32" x2="292.23" y2="339.55"/><line x1="217.46" y1="218.99" x2="220.78" y2="222.08"/><line x1="229.89" y1="349.64" x2="232.62" y2="351.49"/><line x1="238.14" y1="242.23" x2="239.07" y2="241.18"/><line x1="229.63" y1="226.71" x2="227.38" y2="106.77"/><line x1="236.79" y1="282.02" x2="236.16" y2="280.85"/><line x1="292.23" y1="339.55" x2="279.67" y2="351.24"/><line x1="295.88" y1="333.41" x2="274.44" y2="283.63"/><line x1="285.55" y1="107.02" x2="282.93" y2="105.13"/><line x1="295.88" y1="333.41" x2="241.75" y2="286.49"/><line x1="235.04" y1="252.79" x2="235.10" y2="250.96"/><line x1="294.62" y1="232.51" x2="299.46" y2="239.21"/><line x1="220.78" y1="222.08" x2="211.93" y2="206.60"/><line x1="236.16" y1="280.85" x2="235.67" y2="279.60"/><line x1="283.05" y1="226.70" x2="301.16" y2="203.41"/><line x1="300.22" y1="241.50" x2="300.80" y2="244.07"/><line x1="282.93" y1="105.13" x2="280.12" y2="103.44"/><line x1="283.05" y1="226.70" x2="295.73" y2="119.22"/><line x1="266.33" y1="215.70" x2="267.29" y2="238.56"/><line x1="295.88" y1="333.41" x2="251.72" y2="357.47"/><line x1="211.93" y1="206.60" x2="224.83" y2="224.65"/><line x1="266.56" y1="356.42" x2="262.95" y2="357.07"/><line x1="256.61" y1="97.82" x2="260.35" y2="97.93"/><line x1="269.56" y1="214.92" x2="266.33" y2="215.70"/><line x1="262.95" y1="357.07" x2="259.21" y2="357.46"/><line x1="235.61" y1="247.62" x2="235.67" y2="207.54"/><line x1="285.87" y1="228.25" x2="301.21" y2="246.92"/><line x1="229.63" y1="226.71" x2="217.07" y2="118.80"/><line x1="229.63" y1="226.71" x2="238.98" y2="100.60"/><line x1="295.88" y1="333.41" x2="276.63" y2="248.94"/><line x1="276.90" y1="252.79" x2="276.90" y2="275.41"/><line x1="295.88" y1="333.41" x2="269.56" y2="214.92"/><line x1="212.58" y1="131.35" x2="213.36" y2="128.02"/><line x1="295.25" y1="219.35" x2="300.79" y2="208.05"/><line x1="283.05" y1="226.70" x2="300.72" y2="135.46"/><line x1="269.89" y1="169.02" x2="266.81" y2="168.21"/><line x1="237.56" y1="211.26" x2="238.47" y2="212.33"/><line x1="276.90" y1="275.41" x2="276.63" y2="278.65"/><line x1="241.62" y1="355.59" x2="235.67" y2="279.60"/><line x1="235.04" y1="275.41" x2="235.11" y2="276.88"/><line x1="269.56" y1="214.92" x2="274.50" y2="243.01"/><line x1="480.00" y1="32.02" x2="447.51" y2="32.02"/><line x1="276.62" y1="177.64" x2="267.45" y2="98.85"/><line x1="229.63" y1="226.71" x2="212.02" y2="134.80"/><line x1="238.14" y1="242.23" x2="238.47" y2="212.33"/><line x1="229.63" y1="226.71" x2="224.92" y2="108.80"/><line x1="267.45" y1="98.85" x2="272.41" y2="170.36"/><line x1="241.20" y1="239.56" x2="242.39" y2="238.99"/><line x1="295.88" y1="333.41" x2="276.61" y2="206.51"/><line x1="263.49" y1="287.61" x2="247.14" y2="287.61"/><line x1="276.90" y1="203.09" x2="297.38" y2="330.06"/><line x1="241.81" y1="214.78" x2="243.09" y2="215.30"/><line x1="241.62" y1="355.59" x2="239.49" y2="285.07"/><line x1="300.80" y1="244.07" x2="285.87" y2="228.25"/><line x1="217.46" y1="232.51" x2="214.88" y2="235.43"/><line x1="229.63" y1="227.54" x2="235.04" y2="252.79"/><line x1="276.63" y1="248.94" x2="276.90" y2="252.79"/><line x1="212.02" y1="134.80" x2="212.58" y2="131.35"/><line x1="272.41" y1="170.36" x2="269.89" y2="169.02"/><line x1="245.92" y1="215.90" x2="247.47" y2="215.97"/><line x1="229.63" y1="226.71" x2="215.61" y2="121.75"/><line x1="229.63" y1="226.71" x2="235.85" y2="101.82"/><line x1="299.68" y1="212.25" x2="295.25" y2="219.35"/><line x1="246.48" y1="238.27" x2="263.82" y2="238.27"/><line x1="237.32" y1="243.42" x2="237.56" y2="211.26"/><line x1="276.90" y1="203.09" x2="301.43" y2="310.90"/><line x1="295.88" y1="333.41" x2="272.20" y2="213.61"/><line x1="276.90" y1="203.09" x2="276.61" y2="206.51"/><line x1="295.25" y1="219.35" x2="297.83" y2="216.02"/><line x1="211.57" y1="309.56" x2="211.68" y2="313.47"/><line x1="235.11" y1="204.66" x2="235.29" y2="249.23"/><line x1="237.56" y1="211.26" x2="238.14" y2="242.23"/><line x1="301.43" y1="310.90" x2="301.08" y2="315.05"/><line x1="241.62" y1="355.59" x2="236.16" y2="280.85"/><line x1="273.38" y1="354.35" x2="270.04" y2="355.52"/><line x1="220.61" y1="113.42" x2="222.67" y2="111.01"/><line x1="211.68" y1="313.47" x2="212.02" y2="317.25"/><line x1="243.00" y1="168.62" x2="241.71" y2="169.15"/><line x1="267.05" y1="287.37" x2="263.49" y2="287.61"/><line x1="222.67" y1="111.01" x2="224.92" y2="108.80"/><line x1="301.16" y1="142.93" x2="301.05" y2="139.13"/><line x1="241.71" y1="169.15" x2="240.50" y2="169.83"/><line x1="283.05" y1="227.53" x2="301.55" y2="306.59"/><line x1="480.00" y1="32.02" x2="480.00" y2="64.50"/><line x1="229.63" y1="226.71" x2="211.68" y2="138.39"/><line x1="301.05" y1="139.13" x2="300.72" y2="135.46"/><line x1="267.45" y1="98.85" x2="274.38" y2="172.25"/><line x1="217.16" y1="334.40" x2="218.85" y2="337.44"/><line x1="480.00" y1="479.91" x2="480.00" y2="447.42"/><line x1="241.20" y1="239.56" x2="241.81" y2="214.78"/><line x1="276.90" y1="203.09" x2="298.65" y2="326.54"/><line x1="238.98" y1="100.60" x2="242.25" y2="99.60"/><line x1="218.85" y1="337.44" x2="220.70" y2="340.28"/><line x1="236.13" y1="175.22" x2="235.66" y2="176.57"/><line x1="241.62" y1="355.59" x2="240.58" y2="285.85"/><line x1="295.73" y1="119.22" x2="294.08" y2="116.40"/><line x1="235.66" y1="176.57" x2="235.31" y2="178.01"/><line x1="447.51" y1="479.91" x2="480.00" y2="447.42"/><line x1="229.63" y1="227.54" x2="235.04" y2="203.09"/><line x1="294.08" y1="116.40" x2="292.25" y2="113.78"/><line x1="299.46" y1="239.21" x2="300.22" y2="241.50"/><line x1="245.92" y1="215.90" x2="246.48" y2="238.27"/><line x1="283.05" y1="226.70" x2="276.62" y2="177.64"/><line x1="235.51" y1="353.11" x2="238.51" y2="354.47"/><line x1="292.82" y1="231.25" x2="290.76" y2="230.11"/><line x1="224.83" y1="224.65" x2="229.63" y2="226.71"/><line x1="235.67" y1="279.60" x2="235.32" y2="278.27"/><line x1="276.60" y1="352.92" x2="273.38" y2="354.35"/><line x1="276.90" y1="203.09" x2="276.90" y2="181.14"/><line x1="283.05" y1="226.70" x2="267.45" y2="98.85"/><line x1="211.57" y1="201.42" x2="211.57" y2="142.11"/><line x1="241.62" y1="355.59" x2="236.79" y2="282.02"/><line x1="301.21" y1="246.92" x2="301.47" y2="250.04"/><line x1="229.63" y1="227.54" x2="235.04" y2="275.41"/><line x1="242.25" y1="99.60" x2="236.75" y2="173.95"/><line x1="236.05" y1="246.11" x2="236.63" y2="244.71"/><line x1="283.05" y1="227.53" x2="301.55" y2="253.44"/><line x1="283.05" y1="227.53" x2="283.05" y2="226.70"/><line x1="211.93" y1="243.18" x2="211.57" y2="248.00"/><line x1="236.16" y1="208.86" x2="236.79" y2="210.10"/><line x1="480.00" y1="479.91" x2="447.51" y2="479.91"/><line x1="224.83" y1="228.56" x2="229.63" y2="227.54"/><line x1="263.82" y1="238.27" x2="267.29" y2="238.56"/><line x1="272.20" y1="213.61" x2="269.56" y2="214.92"/><line x1="300.79" y1="208.05" x2="301.16" y2="203.41"/><line x1="229.63" y1="227.54" x2="218.85" y2="337.44"/><line x1="232.62" y1="351.49" x2="235.51" y2="353.11"/><line x1="238.47" y1="212.33" x2="239.50" y2="213.30"/><line x1="213.04" y1="238.99" x2="211.93" y2="243.18"/><line x1="229.63" y1="227.54" x2="235.04" y2="181.14"/><line x1="291.92" y1="222.24" x2="287.86" y2="224.69"/><line x1="279.67" y1="351.24" x2="276.60" y2="352.92"/><line x1="242.25" y1="99.60" x2="241.71" y2="169.15"/><line x1="242.25" y1="99.60" x2="235.11" y2="179.54"/><line x1="239.07" y1="241.18" x2="240.09" y2="240.29"/><line x1="299.46" y1="239.21" x2="292.82" y2="231.25"/><line x1="280.12" y1="103.44" x2="277.14" y2="101.95"/><line x1="224.83" y1="224.65" x2="211.57" y2="201.42"/><line x1="277.14" y1="101.95" x2="274.04" y2="100.68"/><line x1="242.39" y1="238.99" x2="243.67" y2="238.59"/><line x1="270.23" y1="239.45" x2="272.63" y2="240.93"/><line x1="211.57" y1="201.42" x2="229.63" y2="226.71"/><line x1="229.63" y1="227.54" x2="212.60" y2="320.92"/><line x1="259.21" y1="357.46" x2="255.32" y2="357.59"/><line x1="229.63" y1="227.54" x2="227.34" y2="347.60"/><line x1="263.96" y1="98.28" x2="267.45" y2="98.85"/><line x1="296.17" y1="233.91" x2="294.62" y2="232.51"/><line x1="243.09" y1="215.30" x2="244.46" y2="215.67"/><line x1="275.73" y1="209.40" x2="274.26" y2="211.77"/><line x1="301.21" y1="246.92" x2="283.05" y2="227.53"/><line x1="242.25" y1="99.60" x2="256.61" y2="97.82"/><line x1="255.32" y1="357.59" x2="251.72" y2="357.47"/><line x1="244.87" y1="356.47" x2="241.62" y2="355.59"/><line x1="242.25" y1="99.60" x2="263.16" y2="167.94"/><line x1="220.78" y1="230.22" x2="211.93" y2="243.18"/><line x1="242.25" y1="99.60" x2="237.50" y2="172.76"/><line x1="298.55" y1="237.19" x2="299.46" y2="239.21"/><line x1="236.05" y1="246.11" x2="236.16" y2="208.86"/><line x1="213.04" y1="211.25" x2="211.93" y2="206.60"/><line x1="283.05" y1="227.53" x2="301.47" y2="250.04"/><line x1="213.36" y1="128.02" x2="214.37" y2="124.82"/><line x1="211.93" y1="243.18" x2="224.83" y2="228.56"/><line x1="276.63" y1="278.65" x2="275.80" y2="281.39"/><line x1="214.37" y1="124.82" x2="215.61" y2="121.75"/><line x1="283.05" y1="226.70" x2="274.04" y2="100.68"/><line x1="235.10" y1="250.96" x2="235.11" y2="204.66"/><line x1="235.29" y1="249.23" x2="235.61" y2="247.62"/><line x1="263.16" y1="167.94" x2="247.47" y2="167.94"/><line x1="263.82" y1="238.27" x2="266.33" y2="215.70"/><line x1="301.08" y1="315.05" x2="300.50" y2="319.04"/><line x1="300.79" y1="208.05" x2="291.92" y2="222.24"/><line x1="229.63" y1="227.54" x2="217.16" y2="334.40"/><line x1="267.29" y1="238.56" x2="270.23" y2="239.45"/><line x1="229.63" y1="227.54" x2="238.51" y2="354.47"/><line x1="235.32" y1="206.14" x2="235.67" y2="207.54"/><line x1="238.47" y1="212.33" x2="239.07" y2="241.18"/><line x1="300.50" y1="319.04" x2="299.70" y2="322.87"/><line x1="260.35" y1="97.93" x2="263.96" y2="98.28"/><line x1="213.04" y1="238.99" x2="220.78" y2="230.22"/><line x1="212.60" y1="320.92" x2="213.39" y2="324.47"/><line x1="242.25" y1="99.60" x2="243.00" y2="168.62"/><line x1="242.25" y1="99.60" x2="235.31" y2="178.01"/><line x1="295.88" y1="333.41" x2="263.49" y2="287.61"/><line x1="247.14" y1="287.61" x2="245.68" y2="287.55"/><line x1="227.38" y1="106.77" x2="230.02" y2="104.93"/><line x1="235.67" y1="207.54" x2="236.05" y2="246.11"/><line x1="239.40" y1="170.66" x2="238.40" y2="171.66"/><line x1="283.05" y1="226.70" x2="287.98" y2="109.08"/><line x1="290.12" y1="342.31" x2="287.80" y2="344.85"/><line x1="300.16" y1="131.93" x2="299.39" y2="128.55"/><line x1="242.39" y1="238.99" x2="243.09" y2="215.30"/><line x1="266.81" y1="168.21" x2="263.16" y2="167.94"/><line x1="285.29" y1="347.19" x2="282.58" y2="349.32"/><line x1="229.63" y1="227.54" x2="212.02" y2="317.25"/><line x1="229.63" y1="227.54" x2="224.95" y2="345.35"/><line x1="296.17" y1="233.91" x2="297.47" y2="235.45"/><line x1="217.46" y1="218.99" x2="214.88" y2="215.38"/><line x1="239.49" y1="285.07" x2="238.47" y2="284.15"/><line x1="242.25" y1="99.60" x2="252.82" y2="97.93"/><line x1="295.88" y1="333.41" x2="275.80" y2="281.39"/><line x1="247.47" y1="215.97" x2="262.51" y2="215.97"/><line x1="212.02" y1="317.25" x2="212.60" y2="320.92"/><line x1="213.04" y1="211.25" x2="220.78" y2="222.08"/><line x1="295.88" y1="333.41" x2="242.98" y2="286.98"/><line x1="249.16" y1="98.26" x2="252.82" y2="97.93"/><line x1="300.22" y1="241.50" x2="288.44" y2="229.12"/><line x1="283.05" y1="226.70" x2="297.17" y2="122.19"/><line x1="294.15" y1="336.58" x2="266.56" y2="356.42"/><line x1="283.05" y1="226.70" x2="277.14" y2="101.95"/><line x1="295.88" y1="333.41" x2="255.32" y2="357.59"/><line x1="224.92" y1="108.80" x2="227.38" y2="106.77"/><line x1="229.63" y1="227.54" x2="215.67" y2="331.21"/><line x1="235.32" y1="206.14" x2="235.61" y2="247.62"/><line x1="480.00" y1="64.50" x2="447.51" y2="32.02"/><line x1="242.25" y1="99.60" x2="267.45" y2="98.85"/><line x1="229.63" y1="227.54" x2="241.62" y2="355.59"/><line x1="292.23" y1="339.55" x2="294.15" y2="336.58"/><line x1="295.88" y1="333.41" x2="267.05" y2="287.37"/><line x1="236.63" y1="244.71" x2="237.32" y2="243.42"/><line x1="283.05" y1="226.70" x2="301.05" y2="139.13"/><line x1="283.05" y1="226.70" x2="290.21" y2="111.34"/><line x1="290.12" y1="342.31" x2="285.29" y2="347.19"/><line x1="211.57" y1="248.00" x2="211.57" y2="309.56"/><line x1="295.88" y1="333.41" x2="294.15" y2="336.58"/><line x1="222.74" y1="342.91" x2="224.95" y2="345.35"/><line x1="236.79" y1="210.10" x2="237.56" y2="211.26"/><line x1="269.56" y1="214.92" x2="272.63" y2="240.93"/><line x1="235.11" y1="179.54" x2="235.04" y2="181.14"/><line x1="217.46" y1="218.99" x2="213.04" y2="211.25"/><line x1="229.63" y1="226.71" x2="222.67" y2="111.01"/><line x1="295.88" y1="333.41" x2="276.63" y2="278.65"/><line x1="247.47" y1="215.97" x2="263.82" y2="238.27"/><line x1="240.50" y1="169.83" x2="239.40" y2="170.66"/><line x1="295.88" y1="333.41" x2="244.30" y2="287.33"/><line x1="249.16" y1="98.26" x2="245.64" y2="98.82"/><line x1="240.09" y1="240.29" x2="241.20" y2="239.56"/><line x1="300.72" y1="135.46" x2="300.16" y2="131.93"/><line x1="300.22" y1="241.50" x2="290.76" y2="230.11"/><line x1="283.05" y1="226.70" x2="298.39" y2="125.30"/><line x1="241.81" y1="214.78" x2="242.39" y2="238.99"/><line x1="283.05" y1="226.70" x2="280.12" y2="103.44"/><line x1="295.88" y1="333.41" x2="259.21" y2="357.46"/><line x1="235.29" y1="249.23" x2="235.32" y2="206.14"/><line x1="220.70" y1="340.28" x2="222.74" y2="342.91"/><line x1="240.58" y1="285.85" x2="239.49" y2="285.07"/><line x1="274.50" y1="243.01" x2="275.83" y2="245.68"/><line x1="235.31" y1="178.01" x2="235.11" y2="179.54"/><line x1="235.04" y1="203.09" x2="235.11" y2="204.66"/><line x1="229.63" y1="226.71" x2="214.37" y2="124.82"/><line x1="275.78" y1="174.68" x2="274.38" y2="172.25"/><line x1="229.63" y1="226.71" x2="232.85" y2="103.27"/><line x1="292.25" y1="113.78" x2="290.21" y2="111.34"/><line x1="292.23" y1="339.55" x2="273.38" y2="354.35"/><line x1="267.45" y1="98.85" x2="263.16" y2="167.94"/><line x1="295.88" y1="333.41" x2="270.06" y2="286.62"/><line x1="248.23" y1="357.09" x2="244.87" y2="356.47"/><line x1="246.48" y1="238.27" x2="247.47" y2="215.97"/><line x1="235.04" y1="252.79" x2="235.04" y2="275.41"/><line x1="295.88" y1="333.41" x2="274.26" y2="211.77"/><line x1="236.63" y1="244.71" x2="236.79" y2="210.10"/><line x1="283.05" y1="226.70" x2="301.16" y2="142.93"/><line x1="283.05" y1="226.70" x2="292.25" y2="113.78"/><line x1="211.57" y1="248.00" x2="229.63" y2="227.54"/><line x1="273.38" y1="354.35" x2="294.15" y2="336.58"/><line x1="32.16" y1="32.09" x2="32.16" y2="64.58"/><line x1="274.44" y1="283.63" x2="272.52" y2="285.37"/><line x1="301.16" y1="203.41" x2="301.16" y2="142.93"/><line x1="269.56" y1="214.92" x2="270.23" y2="239.45"/><line x1="245.88" y1="168.01" x2="244.39" y2="168.24"/><line x1="239.50" y1="213.30" x2="240.61" y2="214.12"/><line x1="274.04" y1="100.68" x2="270.81" y2="99.65"/><line x1="272.63" y1="240.93" x2="274.50" y2="243.01"/><line x1="229.63" y1="226.71" x2="211.57" y2="142.11"/><line x1="229.63" y1="226.71" x2="220.61" y2="113.42"/><line x1="267.45" y1="98.85" x2="275.78" y2="174.68"/><line x1="276.90" y1="203.09" x2="299.70" y2="322.87"/><line x1="243.67" y1="238.59" x2="245.03" y2="238.35"/><line x1="269.56" y1="214.92" x2="276.63" y2="248.94"/><line x1="301.47" y1="250.04" x2="301.55" y2="253.44"/><line x1="282.58" y1="349.32" x2="279.67" y2="351.24"/><line x1="235.04" y1="203.09" x2="235.10" y2="250.96"/><line x1="229.63" y1="226.71" x2="213.36" y2="128.02"/><line x1="229.63" y1="226.71" x2="230.02" y2="104.93"/><line x1="267.45" y1="98.85" x2="266.81" y2="168.21"/><line x1="292.82" y1="231.25" x2="300.22" y2="241.50"/><line x1="276.90" y1="203.09" x2="295.88" y2="333.41"/><line x1="220.78" y1="222.08" x2="224.83" y2="224.65"/><line x1="32.00" y1="479.98" x2="64.49" y2="479.98"/><line x1="241.62" y1="355.59" x2="237.56" y2="283.12"/><line x1="269.56" y1="214.92" x2="267.29" y2="238.56"/><line x1="251.72" y1="357.47" x2="248.23" y2="357.09"/><line x1="229.63" y1="226.71" x2="218.74" y2="116.02"/><line x1="244.30" y1="287.33" x2="242.98" y2="286.98"/><line x1="299.68" y1="212.25" x2="300.79" y2="208.05"/><line x1="236.16" y1="208.86" x2="236.63" y2="244.71"/><line x1="276.90" y1="203.09" x2="300.50" y2="319.04"/><line x1="224.83" y1="228.56" x2="211.57" y2="248.00"/><line x1="295.25" y1="219.35" x2="291.92" y2="222.24"/><line x1="275.80" y1="281.39" x2="274.44" y2="283.63"/><line x1="215.61" y1="121.75" x2="217.07" y2="118.80"/><line x1="243.67" y1="238.59" x2="244.46" y2="215.67"/><line x1="241.62" y1="355.59" x2="235.32" y2="278.27"/><line x1="247.47" y1="167.94" x2="245.88" y2="168.01"/><line x1="229.63" y1="227.54" x2="235.11" y2="179.54"/><line x1="291.92" y1="222.24" x2="301.16" y2="203.41"/><line x1="229.63" y1="227.54" x2="235.11" y2="276.88"/><line x1="237.56" y1="283.12" x2="236.79" y2="282.02"/><line x1="239.07" y1="241.18" x2="239.50" y2="213.30"/><line x1="299.70" y1="322.87" x2="298.65" y2="326.54"/><line x1="276.62" y1="177.64" x2="275.78" y2="174.68"/><line x1="229.63" y1="226.71" x2="212.58" y2="131.35"/><line x1="235.04" y1="203.09" x2="235.04" y2="252.79"/><line x1="213.39" y1="324.47" x2="214.42" y2="327.90"/><line x1="267.45" y1="98.85" x2="269.89" y2="169.02"/><line x1="245.68" y1="287.55" x2="244.30" y2="287.33"/><line x1="230.02" y1="104.93" x2="232.85" y2="103.27"/><line x1="295.88" y1="333.41" x2="275.73" y2="209.40"/><line x1="262.51" y1="215.97" x2="266.33" y2="215.70"/><line x1="276.90" y1="203.09" x2="283.05" y2="226.70"/><line x1="238.40" y1="171.66" x2="237.50" y2="172.76"/><line x1="32.00" y1="479.98" x2="32.00" y2="447.50"/><line x1="252.82" y1="97.93" x2="256.61" y2="97.82"/><line x1="299.39" y1="128.55" x2="298.39" y2="125.30"/><line x1="241.62" y1="355.59" x2="238.47" y2="284.15"/><line x1="300.80" y1="244.07" x2="301.21" y2="246.92"/><line x1="243.09" y1="215.30" x2="243.67" y2="238.59"/><line x1="238.51" y1="354.47" x2="241.62" y2="355.59"/><line x1="217.46" y1="232.51" x2="220.78" y2="230.22"/><line x1="224.95" y1="345.35" x2="227.34" y2="347.60"/><line x1="242.25" y1="99.60" x2="238.40" y2="171.66"/><line x1="298.55" y1="237.19" x2="294.62" y2="232.51"/><line x1="238.47" y1="284.15" x2="237.56" y2="283.12"/><line x1="235.04" y1="181.14" x2="235.04" y2="203.09"/><line x1="299.68" y1="212.25" x2="297.83" y2="216.02"/><line x1="237.32" y1="243.42" x2="238.14" y2="242.23"/><line x1="276.90" y1="203.09" x2="301.08" y2="315.05"/><line x1="263.82" y1="238.27" x2="262.51" y2="215.97"/><line x1="235.11" y1="204.66" x2="235.32" y2="206.14"/><line x1="229.63" y1="227.54" x2="235.51" y2="353.11"/><line x1="288.44" y1="229.12" x2="285.87" y2="228.25"/><line x1="213.04" y1="238.99" x2="214.88" y2="235.43"/><line x1="242.25" y1="99.60" x2="244.39" y2="168.24"/><line x1="242.25" y1="99.60" x2="235.66" y2="176.57"/><line x1="283.05" y1="227.53" x2="276.90" y2="203.09"/><line x1="283.05" y1="226.70" x2="276.90" y2="181.14"/><line x1="276.61" y1="206.51" x2="275.73" y2="209.40"/><line x1="301.55" y1="306.59" x2="301.43" y2="310.90"/><line x1="285.29" y1="347.19" x2="287.80" y2="344.85"/><line x1="229.63" y1="227.54" x2="211.68" y2="313.47"/><line x1="229.63" y1="227.54" x2="222.74" y2="342.91"/><line x1="296.17" y1="233.91" x2="298.55" y2="237.19"/><line x1="242.25" y1="99.60" x2="245.64" y2="98.82"/><line x1="290.21" y1="111.34" x2="287.98" y2="109.08"/><line x1="242.25" y1="99.60" x2="239.40" y2="170.66"/><line x1="298.55" y1="237.19" x2="297.47" y2="235.45"/><line x1="213.04" y1="211.25" x2="214.88" y2="215.38"/><line x1="287.98" y1="109.08" x2="285.55" y2="107.02"/><line x1="294.15" y1="336.58" x2="270.04" y2="355.52"/><line x1="240.61" y1="214.12" x2="241.81" y2="214.78"/><line x1="290.76" y1="230.11" x2="288.44" y2="229.12"/><line x1="270.04" y1="355.52" x2="266.56" y2="356.42"/><line x1="229.63" y1="227.54" x2="214.42" y2="327.90"/><line x1="229.63" y1="227.54" x2="232.62" y2="351.49"/><line x1="241.75" y1="286.49" x2="240.58" y2="285.85"/><line x1="288.44" y1="229.12" x2="300.80" y2="244.07"/><line x1="211.57" y1="142.11" x2="211.68" y2="138.39"/><line x1="213.04" y1="238.99" x2="217.46" y2="232.51"/><line x1="242.25" y1="99.60" x2="263.96" y2="98.28"/><line x1="242.25" y1="99.60" x2="245.88" y2="168.01"/><line x1="275.83" y1="245.68" x2="276.63" y2="248.94"/><line x1="242.25" y1="99.60" x2="236.13" y2="175.22"/><line x1="211.68" y1="138.39" x2="212.02" y2="134.80"/><line x1="274.38" y1="172.25" x2="272.41" y2="170.36"/><line x1="245.03" y1="238.35" x2="246.48" y2="238.27"/><line x1="301.55" y1="253.44" x2="301.55" y2="306.59"/><line x1="235.10" y1="250.96" x2="235.29" y2="249.23"/><line x1="236.79" y1="210.10" x2="237.32" y2="243.42"/><line x1="295.88" y1="333.41" x2="244.87" y2="356.47"/><line x1="301.55" y1="306.59" x2="276.90" y2="203.09"/><line x1="229.63" y1="227.54" x2="211.57" y2="309.56"/><line x1="229.63" y1="227.54" x2="220.70" y2="340.28"/><line x1="272.52" y1="285.37" x2="270.06" y2="286.62"/><line x1="242.25" y1="99.60" x2="229.63" y2="227.54"/><line x1="218.74" y1="116.02" x2="220.61" y2="113.42"/><line x1="270.81" y1="99.65" x2="267.45" y2="98.85"/><line x1="242.25" y1="99.60" x2="249.16" y2="98.26"/><line x1="244.39" y1="168.24" x2="243.00" y2="168.62"/><line x1="235.11" y1="276.88" x2="241.62" y2="355.59"/><line x1="64.64" y1="32.09" x2="32.16" y2="64.58"/><line x1="297.38" y1="330.06" x2="295.88" y2="333.41"/><line x1="242.25" y1="99.60" x2="240.50" y2="169.83"/><line x1="295.88" y1="333.41" x2="276.90" y2="275.41"/><line x1="270.06" y1="286.62" x2="267.05" y2="287.37"/><line x1="295.88" y1="333.41" x2="245.68" y2="287.55"/><line x1="240.09" y1="240.29" x2="240.61" y2="214.12"/><line x1="283.05" y1="226.70" x2="299.39" y2="128.55"/><line x1="283.05" y1="226.70" x2="282.93" y2="105.13"/><line x1="290.12" y1="342.31" x2="292.23" y2="339.55"/><line x1="215.67" y1="331.21" x2="217.16" y2="334.40"/><line x1="295.88" y1="333.41" x2="262.95" y2="357.07"/><line x1="240.61" y1="214.12" x2="241.20" y2="239.56"/><line x1="242.98" y1="286.98" x2="241.75" y2="286.49"/><line x1="229.63" y1="227.54" x2="213.39" y2="324.47"/><line x1="244.46" y1="215.67" x2="245.92" y2="215.90"/><line x1="229.63" y1="227.54" x2="229.89" y2="349.64"/><line x1="241.75" y1="286.49" x2="241.62" y2="355.59"/><line x1="242.25" y1="99.60" x2="260.35" y2="97.93"/><line x1="242.25" y1="99.60" x2="247.47" y2="167.94"/><line x1="220.78" y1="230.22" x2="224.83" y2="228.56"/><line x1="292.23" y1="339.55" x2="276.60" y2="352.92"/><line x1="295.88" y1="333.41" x2="272.52" y2="285.37"/><line x1="295.88" y1="333.41" x2="241.62" y2="355.59"/><line x1="294.62" y1="232.51" x2="292.82" y2="231.25"/><line x1="245.03" y1="238.35" x2="245.92" y2="215.90"/><line x1="283.05" y1="226.70" x2="287.86" y2="224.69"/><line x1="217.07" y1="118.80" x2="218.74" y2="116.02"/><line x1="229.63" y1="226.71" x2="229.63" y2="227.54"/><line x1="283.05" y1="226.70" x2="294.08" y2="116.40"/><line x1="283.05" y1="226.70" x2="270.81" y2="99.65"/><line x1="32.16" y1="32.09" x2="64.64" y2="32.09"/><line x1="295.88" y1="333.41" x2="248.23" y2="357.09"/><line x1="211.93" y1="206.60" x2="211.57" y2="201.42"/><line x1="301.16" y1="203.41" x2="287.86" y2="224.69"/><line x1="239.50" y1="213.30" x2="240.09" y2="240.29"/><line x1="298.65" y1="326.54" x2="297.38" y2="330.06"/><line x1="214.42" y1="327.90" x2="215.67" y2="331.21"/><line x1="235.61" y1="247.62" x2="236.05" y2="246.11"/><line x1="285.87" y1="228.25" x2="283.05" y2="227.53"/><line x1="229.63" y1="226.71" x2="242.25" y2="99.60"/><line x1="295.88" y1="333.41" x2="276.90" y2="252.79"/><line x1="235.11" y1="276.88" x2="235.32" y2="278.27"/><line x1="232.85" y1="103.27" x2="235.85" y2="101.82"/><line x1="295.88" y1="333.41" x2="247.14" y2="287.61"/><line x1="276.90" y1="181.14" x2="276.62" y2="177.64"/><line x1="235.67" y1="207.54" x2="236.16" y2="208.86"/><line x1="237.50" y1="172.76" x2="236.75" y2="173.95"/><line x1="32.00" y1="447.50" x2="64.49" y2="479.98"/></g></svg>