<svg xmlns="http://www.w3.org/2000/svg" width="512" height="512"><rect width="512" height="512" fill="#0a0f1a"/><text x="12" y="20" font-family="monospace" font-size="11" fill="#4a7fa5">FRONT (XZ)</text><g stroke="#00d4ff" stroke-width="0.6" opacity="0.85"><line x1="232.30" y1="158.87" x2="213.52" y2="139.92"/><line x1="275.07" y1="148.14" x2="276.19" y2="148.93"/><line x1="213.94" y1="177.89" x2="232.37" y2="175.12"/><line x1="214.40" y1="129.06" x2="240.37" y2="146.90"/><line x1="238.03" y1="345.25" x2="250.45" y2="357.59"/><line x1="213.52" y1="139.92" x2="214.40" y2="129.06"/><line x1="271.20" y1="146.62" x2="285.59" y2="106.63"/><line x1="217.05" y1="119.87" x2="221.46" y2="112.36"/><line x1="238.81" y1="349.02" x2="240.11" y2="352.10"/><line x1="265.06" y1="357.29" x2="263.25" y2="357.52"/><line x1="285.59" y1="106.63" x2="291.72" y2="112.56"/><line x1="299.59" y1="140.56" x2="280.16" y2="154.66"/><line x1="263.25" y1="357.52" x2="261.30" y2="357.59"/><line x1="268.24" y1="146.33" x2="269.75" y2="146.40"/><line x1="237.78" y1="325.14" x2="266.71" y2="356.91"/><line x1="250.78" y1="310.64" x2="237.78" y2="325.14"/><line x1="213.52" y1="139.92" x2="232.37" y2="157.14"/><line x1="214.40" y1="129.06" x2="217.05" y2="119.87"/><line x1="271.20" y1="146.62" x2="272.56" y2="146.98"/><line x1="216.12" y1="188.35" x2="215.19" y2="185.19"/><line x1="480.00" y1="479.91" x2="447.51" y2="479.91"/><line x1="218.61" y1="193.71" x2="217.27" y2="191.20"/><line x1="232.37" y1="157.14" x2="232.57" y2="155.54"/><line x1="298.72" y1="129.53" x2="276.19" y2="148.93"/><line x1="299.59" y1="140.56" x2="280.74" y2="157.60"/><line x1="279.00" y1="152.09" x2="279.65" y2="153.33"/><line x1="238.84" y1="318.04" x2="247.33" y2="310.94"/><line x1="237.78" y1="325.14" x2="274.26" y2="349.85"/><line x1="247.09" y1="357.25" x2="240.11" y2="352.10"/><line x1="237.78" y1="325.14" x2="263.25" y2="357.52"/><line x1="261.30" y1="357.59" x2="237.78" y2="340.79"/><line x1="213.52" y1="139.92" x2="232.91" y2="154.07"/><line x1="227.63" y1="106.51" x2="235.57" y2="102.34"/><line x1="276.19" y1="148.93" x2="277.25" y2="149.88"/><line x1="235.59" y1="186.28" x2="218.61" y2="193.71"/><line x1="268.22" y1="356.38" x2="266.71" y2="356.91"/><line x1="241.86" y1="146.59" x2="243.48" y2="146.39"/><line x1="240.11" y1="352.10" x2="244.24" y2="356.22"/><line x1="296.09" y1="120.20" x2="273.86" y2="147.49"/><line x1="235.61" y1="149.47" x2="214.40" y2="129.06"/><line x1="245.22" y1="146.33" x2="245.26" y2="99.83"/><line x1="232.57" y1="155.54" x2="232.91" y2="154.07"/><line x1="298.72" y1="129.53" x2="299.59" y2="140.56"/><line x1="232.37" y1="175.12" x2="232.30" y2="172.41"/><line x1="240.37" y1="146.90" x2="241.86" y2="146.59"/><line x1="299.59" y1="140.56" x2="280.82" y2="200.47"/><line x1="247.33" y1="310.94" x2="238.04" y2="321.29"/><line x1="237.78" y1="325.14" x2="272.77" y2="352.73"/><line x1="232.91" y1="179.81" x2="232.57" y2="177.59"/><line x1="213.52" y1="169.30" x2="232.30" y2="158.87"/><line x1="214.40" y1="129.06" x2="236.62" y2="148.63"/><line x1="237.78" y1="325.14" x2="237.78" y2="340.79"/><line x1="261.30" y1="357.59" x2="250.45" y2="357.59"/><line x1="217.27" y1="191.20" x2="216.12" y2="188.35"/><line x1="213.52" y1="139.92" x2="233.99" y2="151.51"/><line x1="277.25" y1="149.88" x2="299.59" y2="140.56"/><line x1="291.72" y1="112.56" x2="296.09" y2="120.20"/><line x1="240.17" y1="315.37" x2="244.41" y2="311.83"/><line x1="233.98" y1="183.53" x2="233.38" y2="181.79"/><line x1="268.90" y1="312.03" x2="271.50" y2="313.76"/><line x1="233.39" y1="152.73" x2="233.99" y2="151.51"/><line x1="32.16" y1="32.09" x2="32.16" y2="64.58"/><line x1="296.09" y1="120.20" x2="298.72" y2="129.53"/><line x1="214.46" y1="181.70" x2="213.94" y2="177.89"/><line x1="244.24" y1="356.22" x2="241.92" y2="354.51"/><line x1="273.86" y1="147.49" x2="275.07" y2="148.14"/><line x1="269.75" y1="146.40" x2="271.20" y2="146.62"/><line x1="280.52" y1="156.08" x2="280.74" y2="157.60"/><line x1="299.59" y1="140.56" x2="278.20" y2="150.94"/><line x1="244.41" y1="311.83" x2="242.03" y2="313.31"/><line x1="237.78" y1="325.14" x2="276.12" y2="327.62"/><line x1="250.45" y1="357.59" x2="238.81" y2="349.02"/><line x1="236.36" y1="218.30" x2="223.71" y2="201.14"/><line x1="278.20" y1="150.94" x2="279.00" y2="152.09"/><line x1="237.78" y1="325.14" x2="270.78" y2="354.87"/><line x1="243.48" y1="146.39" x2="227.63" y2="106.51"/><line x1="275.07" y1="148.14" x2="298.72" y2="129.53"/><line x1="214.40" y1="129.06" x2="239.00" y2="147.36"/><line x1="277.72" y1="102.38" x2="285.59" y2="106.63"/><line x1="236.62" y1="148.63" x2="237.75" y2="147.93"/><line x1="213.52" y1="139.92" x2="235.61" y2="149.47"/><line x1="235.59" y1="186.28" x2="252.29" y2="239.92"/><line x1="240.17" y1="315.37" x2="238.84" y2="318.04"/><line x1="238.81" y1="349.02" x2="247.09" y2="357.25"/><line x1="271.50" y1="313.76" x2="273.52" y2="316.19"/><line x1="233.99" y1="151.51" x2="234.73" y2="150.42"/><line x1="232.57" y1="177.59" x2="232.37" y2="175.12"/><line x1="237.75" y1="147.93" x2="239.00" y2="147.36"/><line x1="280.74" y1="157.60" x2="280.82" y2="159.20"/><line x1="237.78" y1="325.14" x2="261.97" y2="310.64"/><line x1="244.41" y1="311.83" x2="247.33" y2="310.94"/><line x1="237.78" y1="325.14" x2="275.59" y2="344.08"/><line x1="233.38" y1="181.79" x2="232.91" y2="179.81"/><line x1="273.52" y1="316.19" x2="274.96" y2="319.30"/><line x1="234.73" y1="150.42" x2="235.61" y2="149.47"/><line x1="232.30" y1="158.87" x2="232.37" y2="157.14"/><line x1="237.78" y1="325.14" x2="268.22" y2="356.38"/><line x1="223.71" y1="201.14" x2="218.61" y2="193.71"/><line x1="214.40" y1="129.06" x2="241.86" y2="146.59"/><line x1="271.20" y1="146.62" x2="291.72" y2="112.56"/><line x1="280.82" y1="159.20" x2="280.82" y2="200.47"/><line x1="480.00" y1="32.02" x2="447.51" y2="32.02"/><line x1="261.97" y1="310.64" x2="265.72" y2="310.99"/><line x1="235.59" y1="186.28" x2="249.17" y2="235.64"/><line x1="234.73" y1="185.03" x2="233.98" y2="183.53"/><line x1="252.29" y1="239.92" x2="275.13" y2="239.92"/><line x1="268.10" y1="99.84" x2="269.75" y2="146.40"/><line x1="218.61" y1="193.71" x2="234.73" y2="185.03"/><line x1="279.65" y1="153.33" x2="280.16" y2="154.66"/><line x1="221.46" y1="112.36" x2="227.63" y2="106.51"/><line x1="237.78" y1="325.14" x2="268.90" y2="312.03"/><line x1="237.78" y1="325.14" x2="274.82" y2="348.12"/><line x1="275.26" y1="346.20" x2="274.82" y2="348.12"/><line x1="215.19" y1="185.19" x2="214.46" y2="181.70"/><line x1="274.96" y1="319.30" x2="275.83" y2="323.11"/><line x1="237.78" y1="325.14" x2="265.06" y2="357.29"/><line x1="213.52" y1="139.92" x2="232.57" y2="155.54"/><line x1="227.63" y1="106.51" x2="245.22" y2="146.33"/><line x1="275.83" y1="323.11" x2="276.12" y2="327.62"/><line x1="235.59" y1="186.28" x2="223.71" y2="201.14"/><line x1="265.72" y1="310.99" x2="268.90" y2="312.03"/><line x1="213.63" y1="173.75" x2="213.52" y2="169.30"/><line x1="274.82" y1="348.12" x2="274.26" y2="349.85"/><line x1="241.86" y1="146.59" x2="217.05" y2="119.87"/><line x1="280.16" y1="154.66" x2="280.52" y2="156.08"/><line x1="298.72" y1="129.53" x2="277.25" y2="149.88"/><line x1="238.04" y1="321.29" x2="250.78" y2="310.64"/><line x1="276.12" y1="327.62" x2="275.79" y2="341.78"/><line x1="237.78" y1="325.14" x2="273.52" y2="316.19"/><line x1="245.22" y1="146.33" x2="268.10" y2="99.84"/><line x1="249.17" y1="235.64" x2="236.36" y2="218.30"/><line x1="237.78" y1="325.14" x2="273.58" y2="351.38"/><line x1="247.09" y1="357.25" x2="244.24" y2="356.22"/><line x1="232.91" y1="179.81" x2="214.46" y2="181.70"/><line x1="272.56" y1="146.98" x2="273.86" y2="147.49"/><line x1="32.00" y1="479.98" x2="64.49" y2="479.98"/><line x1="237.78" y1="325.14" x2="261.30" y2="357.59"/><line x1="213.52" y1="139.92" x2="233.39" y2="152.73"/><line x1="233.98" y1="183.53" x2="216.12" y2="188.35"/><line x1="235.59" y1="186.28" x2="234.73" y2="185.03"/><line x1="232.30" y1="172.41" x2="232.30" y2="158.87"/><line x1="217.05" y1="119.87" x2="243.48" y2="146.39"/><line x1="296.09" y1="120.20" x2="275.07" y2="148.14"/><line x1="235.61" y1="149.47" x2="236.62" y2="148.63"/><line x1="269.75" y1="146.40" x2="277.72" y2="102.38"/><line x1="64.64" y1="32.09" x2="32.16" y2="64.58"/><line x1="275.79" y1="341.78" x2="275.59" y2="344.08"/><line x1="237.78" y1="325.14" x2="275.83" y2="323.11"/><line x1="245.26" y1="99.83" x2="256.72" y2="98.99"/><line x1="299.59" y1="140.56" x2="279.65" y2="153.33"/><line x1="237.78" y1="325.14" x2="271.84" y2="353.89"/><line x1="213.52" y1="169.30" x2="213.52" y2="139.92"/><line x1="243.48" y1="146.39" x2="221.46" y2="112.36"/><line x1="277.25" y1="149.88" x2="278.20" y2="150.94"/><line x1="240.17" y1="315.37" x2="242.03" y2="313.31"/><line x1="275.59" y1="344.08" x2="275.26" y2="346.20"/><line x1="213.94" y1="177.89" x2="213.63" y2="173.75"/><line x1="238.03" y1="345.25" x2="238.81" y2="349.02"/><line x1="216.12" y1="188.35" x2="233.38" y2="181.79"/><line x1="239.00" y1="147.36" x2="240.37" y2="146.90"/><line x1="237.78" y1="325.14" x2="275.79" y2="341.78"/><line x1="250.45" y1="357.59" x2="247.09" y2="357.25"/><line x1="233.38" y1="181.79" x2="215.19" y2="185.19"/><line x1="280.82" y1="200.47" x2="299.59" y2="200.47"/><line x1="256.72" y1="98.99" x2="268.10" y2="99.84"/><line x1="237.78" y1="325.14" x2="269.57" y2="355.70"/><line x1="243.48" y1="146.39" x2="245.22" y2="146.33"/><line x1="299.59" y1="140.56" x2="280.52" y2="156.08"/><line x1="480.00" y1="32.02" x2="480.00" y2="64.50"/><line x1="234.73" y1="185.03" x2="217.27" y2="191.20"/><line x1="250.78" y1="310.64" x2="261.97" y2="310.64"/><line x1="271.84" y1="353.89" x2="270.78" y2="354.87"/><line x1="235.59" y1="186.28" x2="275.13" y2="239.92"/><line x1="268.10" y1="99.84" x2="268.24" y2="146.33"/><line x1="480.00" y1="479.91" x2="480.00" y2="447.42"/><line x1="237.78" y1="325.14" x2="265.72" y2="310.99"/><line x1="270.78" y1="354.87" x2="269.57" y2="355.70"/><line x1="245.22" y1="146.33" x2="235.57" y2="102.34"/><line x1="232.37" y1="175.12" x2="213.63" y2="173.75"/><line x1="237.78" y1="325.14" x2="275.26" y2="346.20"/><line x1="215.19" y1="185.19" x2="232.91" y2="179.81"/><line x1="299.59" y1="140.56" x2="280.82" y2="159.20"/><line x1="238.84" y1="318.04" x2="238.04" y2="321.29"/><line x1="274.26" y1="349.85" x2="273.58" y2="351.38"/><line x1="261.30" y1="357.59" x2="238.03" y2="345.25"/><line x1="480.00" y1="64.50" x2="447.51" y2="32.02"/><line x1="235.59" y1="186.28" x2="236.36" y2="218.30"/><line x1="252.29" y1="239.92" x2="249.17" y2="235.64"/><line x1="217.27" y1="191.20" x2="233.98" y2="183.53"/><line x1="213.63" y1="173.75" x2="232.30" y2="172.41"/><line x1="291.72" y1="112.56" x2="272.56" y2="146.98"/><line x1="268.10" y1="99.84" x2="277.72" y2="102.38"/><line x1="32.16" y1="32.09" x2="64.64" y2="32.09"/><line x1="240.11" y1="352.10" x2="241.92" y2="354.51"/><line x1="447.51" y1="479.91" x2="480.00" y2="447.42"/><line x1="214.46" y1="181.70" x2="232.57" y2="177.59"/><line x1="237.78" y1="325.14" x2="271.50" y2="313.76"/><line x1="245.22" y1="146.33" x2="256.72" y2="98.99"/><line x1="269.57" y1="355.70" x2="268.22" y2="356.38"/><line x1="235.57" y1="102.34" x2="245.26" y2="99.83"/><line x1="272.56" y1="146.98" x2="296.09" y2="120.20"/><line x1="299.59" y1="140.56" x2="299.59" y2="200.47"/><line x1="32.00" y1="479.98" x2="32.00" y2="447.50"/><line x1="247.33" y1="310.94" x2="250.78" y2="310.64"/><line x1="273.58" y1="351.38" x2="272.77" y2="352.73"/><line x1="214.40" y1="129.06" x2="237.75" y2="147.93"/><line x1="237.78" y1="340.79" x2="238.03" y2="345.25"/><line x1="277.72" y1="102.38" x2="271.20" y2="146.62"/><line x1="213.52" y1="139.92" x2="234.73" y2="150.42"/><line x1="232.30" y1="172.41" x2="213.52" y2="169.30"/><line x1="266.71" y1="356.91" x2="265.06" y2="357.29"/><line x1="238.04" y1="321.29" x2="237.78" y2="325.14"/><line x1="272.77" y1="352.73" x2="271.84" y2="353.89"/><line x1="232.57" y1="177.59" x2="213.94" y2="177.89"/><line x1="237.78" y1="325.14" x2="274.96" y2="319.30"/><line x1="232.91" y1="154.07" x2="233.39" y2="152.73"/><line x1="245.22" y1="146.33" x2="268.24" y2="146.33"/><line x1="299.59" y1="140.56" x2="279.00" y2="152.09"/><line x1="244.41" y1="311.83" x2="238.84" y2="318.04"/><line x1="32.00" y1="447.50" x2="64.49" y2="479.98"/></g></svg>