<svg xmlns="http://www.w3.org/2000/svg" width="512" height="512"><rect width="512" height="512" fill="#0a0f1a"/><text x="12" y="20" font-family="monospace" font-size="11" fill="#4a7fa5">FRONT (XZ)</text><g stroke="#00d4ff" stroke-width="0.6" opacity="0.85"><line x1="262.56" y1="175.53" x2="262.70" y2="174.69"/><line x1="233.17" y1="276.45" x2="211.78" y2="282.08"/><line x1="230.07" y1="250.05" x2="229.06" y2="240.36"/><line x1="303.80" y1="248.23" x2="305.70" y2="250.01"/><line x1="283.82" y1="258.30" x2="238.40" y2="292.42"/><line x1="283.82" y1="258.30" x2="219.47" y2="318.49"/><line x1="332.04" y1="320.21" x2="331.71" y2="323.83"/><line x1="200.36" y1="339.69" x2="231.63" y2="334.91"/><line x1="283.82" y1="258.30" x2="202.30" y2="337.75"/><line x1="231.66" y1="256.64" x2="231.11" y2="255.99"/><line x1="200.36" y1="339.69" x2="218.89" y2="348.56"/><line x1="184.48" y1="354.17" x2="180.97" y2="357.20"/><line x1="200.36" y1="339.69" x2="262.18" y2="294.59"/><line x1="303.35" y1="138.80" x2="306.96" y2="148.87"/><line x1="305.70" y1="250.01" x2="307.33" y2="251.58"/><line x1="300.39" y1="296.25" x2="300.16" y2="298.49"/><line x1="288.24" y1="263.51" x2="291.97" y2="268.68"/><line x1="239.82" y1="166.97" x2="263.28" y2="173.13"/><line x1="270.35" y1="210.80" x2="268.78" y2="208.27"/><line x1="262.51" y1="353.36" x2="259.17" y2="351.15"/><line x1="231.11" y1="255.99" x2="230.45" y2="255.38"/><line x1="208.36" y1="271.26" x2="232.50" y2="258.19"/><line x1="234.75" y1="250.33" x2="236.37" y2="250.75"/><line x1="246.28" y1="136.10" x2="270.02" y2="168.50"/><line x1="208.36" y1="271.26" x2="208.13" y2="266.05"/><line x1="291.97" y1="268.68" x2="312.62" y2="257.24"/><line x1="293.51" y1="238.98" x2="278.72" y2="221.80"/><line x1="262.13" y1="295.80" x2="262.15" y2="295.17"/><line x1="264.24" y1="171.70" x2="264.86" y2="171.05"/><line x1="236.37" y1="250.75" x2="238.32" y2="240.58"/><line x1="260.12" y1="259.29" x2="283.82" y2="258.30"/><line x1="289.11" y1="179.22" x2="289.11" y2="186.32"/><line x1="328.21" y1="336.61" x2="326.80" y2="339.38"/><line x1="278.72" y1="221.80" x2="276.32" y2="218.92"/><line x1="229.76" y1="283.75" x2="226.09" y2="285.48"/><line x1="208.13" y1="266.05" x2="225.34" y2="252.91"/><line x1="262.15" y1="295.17" x2="262.18" y2="294.59"/><line x1="242.09" y1="193.67" x2="263.19" y2="193.70"/><line x1="283.82" y1="258.30" x2="244.25" y2="262.40"/><line x1="289.11" y1="186.32" x2="309.32" y2="187.42"/><line x1="283.82" y1="258.30" x2="227.94" y2="307.47"/><line x1="258.27" y1="229.10" x2="255.99" y2="226.25"/><line x1="283.82" y1="258.30" x2="212.61" y2="326.30"/><line x1="248.51" y1="333.14" x2="268.50" y2="309.49"/><line x1="200.36" y1="339.69" x2="227.32" y2="339.72"/><line x1="225.34" y1="252.91" x2="223.95" y2="252.51"/><line x1="245.81" y1="242.42" x2="240.31" y2="252.98"/><line x1="261.37" y1="123.04" x2="265.41" y2="121.85"/><line x1="297.40" y1="278.87" x2="322.19" y2="270.20"/><line x1="255.99" y1="226.25" x2="253.97" y2="223.60"/><line x1="264.10" y1="290.04" x2="265.71" y2="287.61"/><line x1="240.31" y1="252.98" x2="247.89" y2="243.39"/><line x1="208.36" y1="271.26" x2="230.45" y2="255.38"/><line x1="265.41" y1="121.85" x2="269.79" y2="121.14"/><line x1="306.56" y1="204.54" x2="287.20" y2="201.16"/><line x1="316.62" y1="350.47" x2="313.98" y2="352.12"/><line x1="279.71" y1="168.33" x2="298.31" y2="130.97"/><line x1="294.39" y1="308.62" x2="321.29" y2="346.60"/><line x1="232.96" y1="278.61" x2="225.05" y2="285.64"/><line x1="265.71" y1="287.61" x2="267.27" y2="285.22"/><line x1="260.12" y1="259.29" x2="308.69" y2="252.93"/><line x1="235.56" y1="296.65" x2="232.87" y2="300.57"/><line x1="266.23" y1="203.48" x2="260.79" y2="232.14"/><line x1="287.20" y1="201.16" x2="305.12" y2="210.15"/><line x1="245.76" y1="316.10" x2="200.36" y2="339.69"/><line x1="212.69" y1="249.09" x2="214.33" y2="247.03"/><line x1="242.87" y1="256.77" x2="256.19" y2="251.46"/><line x1="295.03" y1="273.80" x2="318.60" y2="264.74"/><line x1="242.09" y1="193.67" x2="243.86" y2="201.40"/><line x1="298.31" y1="130.97" x2="303.35" y2="138.80"/><line x1="283.82" y1="258.30" x2="241.38" y2="287.89"/><line x1="300.46" y1="293.80" x2="300.39" y2="296.25"/><line x1="289.32" y1="310.32" x2="294.20" y2="357.98"/><line x1="200.36" y1="339.69" x2="232.79" y2="333.69"/><line x1="274.47" y1="273.66" x2="275.93" y2="271.41"/><line x1="303.35" y1="138.80" x2="280.92" y2="168.39"/><line x1="281.47" y1="216.55" x2="300.76" y2="223.37"/><line x1="331.87" y1="300.16" x2="332.15" y2="306.69"/><line x1="263.72" y1="196.24" x2="264.41" y2="198.72"/><line x1="227.10" y1="250.83" x2="228.11" y2="250.46"/><line x1="275.93" y1="271.41" x2="277.43" y2="269.03"/><line x1="208.36" y1="271.26" x2="232.79" y2="259.08"/><line x1="211.63" y1="355.04" x2="209.03" y2="357.20"/><line x1="332.15" y1="306.69" x2="297.80" y2="305.45"/><line x1="300.76" y1="223.37" x2="300.54" y2="223.98"/><line x1="480.00" y1="32.02" x2="447.51" y2="32.02"/><line x1="297.95" y1="357.49" x2="294.20" y2="357.98"/><line x1="209.03" y1="357.20" x2="193.52" y2="346.15"/><line x1="260.12" y1="259.29" x2="296.48" y2="241.61"/><line x1="264.24" y1="171.70" x2="240.54" y2="154.86"/><line x1="260.12" y1="259.29" x2="269.86" y2="242.45"/><line x1="291.20" y1="309.92" x2="289.32" y2="310.32"/><line x1="266.23" y1="203.48" x2="252.20" y2="221.14"/><line x1="226.32" y1="340.90" x2="225.37" y2="342.07"/><line x1="267.16" y1="169.45" x2="268.05" y2="169.06"/><line x1="299.19" y1="244.02" x2="301.63" y2="246.23"/><line x1="285.01" y1="169.84" x2="285.84" y2="170.51"/><line x1="232.68" y1="279.60" x2="232.96" y2="278.61"/><line x1="231.02" y1="250.01" x2="232.96" y2="250.09"/><line x1="242.69" y1="144.57" x2="244.30" y2="140.10"/><line x1="238.40" y1="292.42" x2="235.56" y2="296.65"/><line x1="295.71" y1="307.73" x2="330.40" y2="330.56"/><line x1="281.47" y1="216.55" x2="278.72" y2="221.80"/><line x1="264.42" y1="306.01" x2="245.76" y2="316.10"/><line x1="240.83" y1="185.35" x2="262.51" y2="185.65"/><line x1="211.30" y1="251.36" x2="212.69" y2="249.09"/><line x1="329.66" y1="287.66" x2="300.46" y2="293.80"/><line x1="294.39" y1="308.62" x2="323.33" y2="344.38"/><line x1="262.58" y1="188.40" x2="262.82" y2="191.08"/><line x1="209.03" y1="357.20" x2="180.97" y2="357.20"/><line x1="309.94" y1="254.24" x2="311.25" y2="255.69"/><line x1="253.15" y1="247.50" x2="242.87" y2="256.77"/><line x1="260.12" y1="259.29" x2="307.33" y2="251.58"/><line x1="314.03" y1="258.93" x2="315.50" y2="260.74"/><line x1="311.25" y1="255.69" x2="291.97" y2="268.68"/><line x1="266.23" y1="203.48" x2="263.57" y2="235.38"/><line x1="301.52" y1="356.81" x2="289.32" y2="310.32"/><line x1="216.36" y1="285.29" x2="213.84" y2="284.09"/><line x1="237.84" y1="251.32" x2="239.16" y2="252.07"/><line x1="242.87" y1="256.77" x2="254.71" y2="249.36"/><line x1="295.03" y1="273.80" x2="317.03" y2="262.68"/><line x1="222.58" y1="314.64" x2="221.03" y2="316.60"/><line x1="289.32" y1="310.32" x2="297.95" y2="357.49"/><line x1="262.51" y1="176.41" x2="262.56" y2="175.53"/><line x1="213.84" y1="284.09" x2="211.78" y2="282.08"/><line x1="240.07" y1="176.45" x2="239.82" y2="166.97"/><line x1="241.02" y1="241.02" x2="243.52" y2="241.63"/><line x1="226.06" y1="251.28" x2="227.10" y2="250.83"/><line x1="309.85" y1="175.73" x2="288.65" y2="175.34"/><line x1="263.71" y1="172.39" x2="264.24" y2="171.70"/><line x1="308.67" y1="193.18" x2="307.74" y2="198.89"/><line x1="221.03" y1="316.60" x2="219.47" y2="318.49"/><line x1="299.28" y1="302.37" x2="332.15" y2="306.69"/><line x1="227.32" y1="339.72" x2="226.32" y2="340.90"/><line x1="241.30" y1="254.05" x2="242.16" y2="255.31"/><line x1="263.72" y1="196.24" x2="243.86" y2="201.40"/><line x1="227.10" y1="250.83" x2="223.24" y2="241.47"/><line x1="258.89" y1="256.43" x2="260.12" y2="259.29"/><line x1="284.10" y1="169.30" x2="285.01" y2="169.84"/><line x1="332.15" y1="306.69" x2="298.61" y2="304.01"/><line x1="246.79" y1="322.30" x2="246.47" y2="316.10"/><line x1="480.00" y1="32.02" x2="480.00" y2="64.50"/><line x1="233.13" y1="261.12" x2="233.00" y2="260.06"/><line x1="209.03" y1="357.20" x2="196.05" y2="343.82"/><line x1="274.51" y1="120.90" x2="283.88" y2="122.02"/><line x1="260.12" y1="259.29" x2="299.19" y2="244.02"/><line x1="325.24" y1="275.84" x2="327.72" y2="281.66"/><line x1="210.46" y1="328.82" x2="208.35" y2="331.23"/><line x1="260.12" y1="259.29" x2="311.25" y2="255.69"/><line x1="291.20" y1="309.92" x2="301.52" y2="356.81"/><line x1="299.05" y1="227.45" x2="298.54" y2="228.58"/><line x1="269.86" y1="242.45" x2="270.35" y2="210.80"/><line x1="266.23" y1="203.48" x2="253.97" y2="223.60"/><line x1="480.00" y1="479.91" x2="480.00" y2="447.42"/><line x1="280.52" y1="358.17" x2="275.33" y2="357.57"/><line x1="233.00" y1="260.06" x2="232.79" y2="259.08"/><line x1="229.06" y1="240.36" x2="231.02" y2="250.01"/><line x1="267.16" y1="169.45" x2="242.69" y2="144.57"/><line x1="285.72" y1="206.23" x2="283.81" y2="211.36"/><line x1="208.35" y1="331.23" x2="206.29" y2="333.52"/><line x1="331.71" y1="323.83" x2="295.71" y2="307.73"/><line x1="214.14" y1="352.88" x2="211.63" y2="355.04"/><line x1="231.02" y1="250.01" x2="232.31" y2="240.22"/><line x1="306.96" y1="148.87" x2="309.12" y2="161.18"/><line x1="307.33" y1="251.58" x2="308.69" y2="252.93"/><line x1="303.41" y1="215.69" x2="300.93" y2="222.87"/><line x1="288.29" y1="174.21" x2="288.65" y2="175.34"/><line x1="295.71" y1="307.73" x2="331.16" y2="327.27"/><line x1="281.47" y1="216.55" x2="299.91" y2="225.51"/><line x1="447.51" y1="479.91" x2="480.00" y2="447.42"/><line x1="240.83" y1="185.35" x2="262.58" y2="188.40"/><line x1="308.69" y1="252.93" x2="309.94" y2="254.24"/><line x1="288.65" y1="175.34" x2="288.91" y2="176.55"/><line x1="267.40" y1="205.83" x2="266.23" y2="203.48"/><line x1="226.09" y1="285.48" x2="231.23" y2="282.27"/><line x1="256.27" y1="348.55" x2="253.79" y2="345.48"/><line x1="229.68" y1="254.82" x2="228.79" y2="254.30"/><line x1="209.03" y1="357.20" x2="184.48" y2="354.17"/><line x1="248.61" y1="132.54" x2="251.29" y2="129.45"/><line x1="314.03" y1="258.93" x2="295.03" y2="273.80"/><line x1="311.25" y1="255.69" x2="288.24" y2="263.51"/><line x1="266.23" y1="203.48" x2="266.59" y2="238.82"/><line x1="269.86" y1="242.45" x2="266.59" y2="238.82"/><line x1="226.04" y1="240.78" x2="229.06" y2="240.36"/><line x1="223.95" y1="252.51" x2="208.63" y2="259.51"/><line x1="262.18" y1="294.59" x2="262.22" y2="294.02"/><line x1="237.84" y1="251.32" x2="241.02" y2="241.02"/><line x1="251.29" y1="129.45" x2="254.31" y2="126.84"/><line x1="299.91" y1="225.51" x2="299.51" y2="226.42"/><line x1="309.32" y1="187.42" x2="308.67" y2="193.18"/><line x1="325.16" y1="341.98" x2="323.33" y2="344.38"/><line x1="309.85" y1="175.73" x2="288.29" y2="174.21"/><line x1="299.10" y1="283.90" x2="300.12" y2="288.87"/><line x1="308.67" y1="193.18" x2="288.90" y2="191.21"/><line x1="274.62" y1="310.64" x2="259.17" y2="351.15"/><line x1="253.97" y1="223.60" x2="252.20" y2="221.14"/><line x1="225.05" y1="285.64" x2="223.95" y2="285.69"/><line x1="241.30" y1="254.05" x2="251.50" y2="245.89"/><line x1="240.83" y1="185.35" x2="242.09" y2="193.67"/><line x1="269.79" y1="121.14" x2="274.51" y2="120.90"/><line x1="305.12" y1="210.15" x2="303.41" y2="215.69"/><line x1="311.14" y1="353.58" x2="308.11" y2="354.86"/><line x1="252.20" y1="221.14" x2="248.91" y2="215.14"/><line x1="233.11" y1="277.55" x2="233.17" y2="276.45"/><line x1="235.42" y1="240.31" x2="238.32" y2="240.58"/><line x1="226.09" y1="285.48" x2="232.96" y2="278.61"/><line x1="309.12" y1="161.18" x2="309.85" y2="175.73"/><line x1="274.51" y1="120.90" x2="279.71" y2="168.33"/><line x1="291.20" y1="309.92" x2="304.90" y2="355.93"/><line x1="269.86" y1="242.45" x2="272.13" y2="213.42"/><line x1="480.00" y1="479.91" x2="447.51" y2="479.91"/><line x1="262.82" y1="191.08" x2="263.19" y2="193.70"/><line x1="223.95" y1="252.51" x2="212.69" y2="249.09"/><line x1="296.48" y1="241.61" x2="293.51" y2="238.98"/><line x1="280.92" y1="168.39" x2="282.05" y2="168.57"/><line x1="309.72" y1="181.60" x2="309.32" y2="187.42"/><line x1="331.04" y1="293.82" x2="331.87" y2="300.16"/><line x1="285.72" y1="206.23" x2="303.41" y2="215.69"/><line x1="271.31" y1="310.36" x2="268.50" y2="309.49"/><line x1="262.51" y1="176.41" x2="240.07" y2="176.45"/><line x1="200.36" y1="339.69" x2="277.43" y2="269.03"/><line x1="230.45" y1="255.38" x2="229.68" y2="254.82"/><line x1="271.10" y1="168.33" x2="265.41" y2="121.85"/><line x1="256.19" y1="251.46" x2="257.59" y2="253.82"/><line x1="262.70" y1="174.69" x2="262.94" y2="173.89"/><line x1="306.96" y1="148.87" x2="283.11" y2="168.87"/><line x1="292.89" y1="309.35" x2="311.14" y2="353.58"/><line x1="300.16" y1="298.49" x2="299.79" y2="300.53"/><line x1="312.62" y1="257.24" x2="314.03" y2="258.93"/><line x1="294.20" y1="357.98" x2="290.28" y2="358.27"/><line x1="274.62" y1="310.64" x2="271.31" y2="310.36"/><line x1="243.86" y1="201.40" x2="246.14" y2="208.56"/><line x1="240.54" y1="154.86" x2="265.56" y2="170.45"/><line x1="243.46" y1="258.45" x2="243.92" y2="260.32"/><line x1="238.32" y1="240.58" x2="237.84" y2="251.32"/><line x1="287.25" y1="310.56" x2="284.99" y2="310.64"/><line x1="226.09" y1="285.48" x2="230.54" y2="283.05"/><line x1="228.11" y1="250.46" x2="229.10" y2="250.21"/><line x1="244.25" y1="262.40" x2="244.45" y2="264.69"/><line x1="297.80" y1="305.45" x2="296.84" y2="306.68"/><line x1="226.04" y1="240.78" x2="230.07" y2="250.05"/><line x1="223.95" y1="252.51" x2="208.26" y2="262.67"/><line x1="223.95" y1="252.51" x2="225.01" y2="251.85"/><line x1="286.60" y1="171.29" x2="287.26" y2="172.18"/><line x1="244.45" y1="264.69" x2="244.52" y2="267.18"/><line x1="332.15" y1="316.43" x2="332.04" y2="320.21"/><line x1="270.60" y1="356.57" x2="266.33" y2="355.16"/><line x1="247.47" y1="327.98" x2="246.79" y2="322.30"/><line x1="200.36" y1="339.69" x2="270.25" y2="280.46"/><line x1="208.26" y1="262.67" x2="208.63" y2="259.51"/><line x1="200.36" y1="339.69" x2="198.33" y2="341.67"/><line x1="268.05" y1="169.06" x2="269.01" y2="168.75"/><line x1="247.89" y1="243.39" x2="241.30" y2="254.05"/><line x1="299.10" y1="283.90" x2="325.24" y2="275.84"/><line x1="228.92" y1="284.35" x2="229.76" y2="283.75"/><line x1="274.62" y1="310.64" x2="262.51" y2="353.36"/><line x1="225.05" y1="285.64" x2="233.11" y2="277.55"/><line x1="267.27" y1="285.22" x2="268.79" y2="282.83"/><line x1="244.30" y1="140.10" x2="246.28" y2="136.10"/><line x1="241.30" y1="254.05" x2="249.77" y2="244.54"/><line x1="232.87" y1="300.57" x2="230.33" y2="304.17"/><line x1="305.12" y1="210.15" x2="285.72" y2="206.23"/><line x1="227.09" y1="285.21" x2="226.09" y2="285.48"/><line x1="311.14" y1="353.58" x2="291.20" y2="309.92"/><line x1="233.11" y1="277.55" x2="223.95" y2="285.69"/><line x1="235.42" y1="240.31" x2="236.37" y2="250.75"/><line x1="226.09" y1="285.48" x2="232.68" y2="279.60"/><line x1="214.33" y1="247.03" x2="216.22" y2="245.23"/><line x1="309.12" y1="161.18" x2="286.60" y2="171.29"/><line x1="289.06" y1="177.84" x2="289.11" y2="179.22"/><line x1="230.33" y1="304.17" x2="227.94" y2="307.47"/><line x1="284.99" y1="310.64" x2="270.60" y2="356.57"/><line x1="329.41" y1="333.67" x2="328.21" y2="336.61"/><line x1="233.17" y1="276.45" x2="233.17" y2="262.25"/><line x1="232.79" y1="333.69" x2="231.63" y2="334.91"/><line x1="239.16" y1="252.07" x2="240.31" y2="252.98"/><line x1="262.82" y1="191.08" x2="242.09" y2="193.67"/><line x1="216.22" y1="245.23" x2="218.34" y2="243.70"/><line x1="326.80" y1="339.38" x2="325.16" y2="341.98"/><line x1="223.95" y1="252.51" x2="211.30" y2="251.36"/><line x1="254.71" y1="249.36" x2="256.19" y2="251.46"/><line x1="280.92" y1="168.39" x2="306.96" y2="148.87"/><line x1="331.04" y1="293.82" x2="300.16" y2="298.49"/><line x1="200.36" y1="339.69" x2="263.14" y2="303.40"/><line x1="271.31" y1="310.36" x2="248.51" y2="333.14"/><line x1="200.36" y1="339.69" x2="262.44" y2="292.48"/><line x1="211.78" y1="282.08" x2="210.18" y2="279.28"/><line x1="223.24" y1="241.47" x2="226.04" y2="240.78"/><line x1="200.36" y1="339.69" x2="275.93" y2="271.41"/><line x1="277.43" y1="269.03" x2="278.97" y2="266.53"/><line x1="271.10" y1="168.33" x2="261.37" y2="123.04"/><line x1="256.19" y1="251.46" x2="243.46" y2="258.45"/><line x1="268.50" y1="309.49" x2="247.47" y2="327.98"/><line x1="292.89" y1="309.35" x2="313.98" y2="352.12"/><line x1="300.54" y1="223.98" x2="300.25" y2="224.69"/><line x1="294.20" y1="357.98" x2="287.25" y2="310.56"/><line x1="210.18" y1="279.28" x2="209.04" y2="275.67"/><line x1="322.19" y1="270.20" x2="299.10" y2="283.90"/><line x1="240.54" y1="154.86" x2="264.86" y2="171.05"/><line x1="300.12" y1="288.87" x2="300.46" y2="293.80"/><line x1="217.92" y1="320.30" x2="216.36" y2="322.02"/><line x1="225.37" y1="342.07" x2="223.30" y2="344.24"/><line x1="228.11" y1="250.46" x2="226.04" y2="240.78"/><line x1="313.98" y1="352.12" x2="311.14" y2="353.58"/><line x1="285.84" y1="170.51" x2="286.60" y2="171.29"/><line x1="297.80" y1="305.45" x2="332.15" y2="316.43"/><line x1="233.17" y1="276.45" x2="213.84" y2="284.09"/><line x1="270.02" y1="168.50" x2="271.10" y2="168.33"/><line x1="232.31" y1="240.22" x2="235.42" y2="240.31"/><line x1="193.52" y1="346.15" x2="190.76" y2="348.65"/><line x1="283.82" y1="258.30" x2="221.03" y2="316.60"/><line x1="283.82" y1="258.30" x2="204.27" y2="335.69"/><line x1="200.36" y1="339.69" x2="221.14" y2="346.40"/><line x1="276.32" y1="218.92" x2="274.12" y2="216.13"/><line x1="270.60" y1="356.57" x2="274.62" y2="310.64"/><line x1="200.36" y1="339.69" x2="262.15" y2="295.17"/><line x1="300.39" y1="296.25" x2="331.04" y2="293.82"/><line x1="200.36" y1="339.69" x2="268.79" y2="282.83"/><line x1="232.96" y1="250.09" x2="234.75" y2="250.33"/><line x1="239.82" y1="166.97" x2="262.94" y2="173.89"/><line x1="200.36" y1="339.69" x2="282.17" y2="261.17"/><line x1="268.05" y1="169.06" x2="244.30" y2="140.10"/><line x1="271.10" y1="168.33" x2="279.71" y2="168.33"/><line x1="228.92" y1="284.35" x2="228.03" y2="284.83"/><line x1="220.68" y1="242.45" x2="223.24" y2="241.47"/><line x1="208.36" y1="271.26" x2="226.61" y2="253.34"/><line x1="263.14" y1="303.40" x2="262.37" y2="300.21"/><line x1="240.00" y1="160.69" x2="240.54" y2="154.86"/><line x1="262.51" y1="185.65" x2="262.51" y2="176.41"/><line x1="293.51" y1="238.98" x2="269.86" y2="242.45"/><line x1="288.91" y1="176.55" x2="289.06" y2="177.84"/><line x1="251.67" y1="341.89" x2="249.92" y2="337.77"/><line x1="219.47" y1="318.49" x2="217.92" y2="320.30"/><line x1="309.12" y1="161.18" x2="285.84" y2="170.51"/><line x1="254.31" y1="126.84" x2="257.67" y2="124.70"/><line x1="278.72" y1="221.80" x2="298.54" y2="228.58"/><line x1="284.99" y1="310.64" x2="275.33" y2="357.57"/><line x1="233.17" y1="276.45" x2="208.36" y2="271.26"/><line x1="241.43" y1="149.49" x2="242.69" y2="144.57"/><line x1="239.16" y1="252.07" x2="245.81" y2="242.42"/><line x1="283.82" y1="258.30" x2="230.33" y2="304.17"/><line x1="283.82" y1="258.30" x2="214.81" y2="323.67"/><line x1="200.36" y1="339.69" x2="228.35" y2="338.52"/><line x1="321.29" y1="346.60" x2="319.06" y2="348.63"/><line x1="263.57" y1="235.38" x2="260.79" y2="232.14"/><line x1="200.36" y1="339.69" x2="211.63" y2="355.04"/><line x1="200.36" y1="339.69" x2="262.36" y2="292.97"/><line x1="223.24" y1="241.47" x2="228.11" y2="250.46"/><line x1="200.36" y1="339.69" x2="274.47" y2="273.66"/><line x1="307.74" y1="198.89" x2="306.56" y2="204.54"/><line x1="292.89" y1="309.35" x2="316.62" y2="350.47"/><line x1="266.20" y1="308.04" x2="264.42" y2="306.01"/><line x1="480.00" y1="64.50" x2="447.51" y2="32.02"/><line x1="208.36" y1="271.26" x2="231.11" y2="255.99"/><line x1="243.86" y1="201.40" x2="265.25" y2="201.14"/><line x1="279.71" y1="168.33" x2="291.81" y2="125.38"/><line x1="293.51" y1="238.98" x2="298.54" y2="228.58"/><line x1="300.12" y1="288.87" x2="329.66" y2="287.66"/><line x1="246.47" y1="316.10" x2="245.76" y2="316.10"/><line x1="232.79" y1="259.08" x2="232.50" y2="258.19"/><line x1="251.50" y1="245.89" x2="253.15" y2="247.50"/><line x1="233.17" y1="276.45" x2="216.36" y2="285.29"/><line x1="283.82" y1="258.30" x2="244.52" y2="283.04"/><line x1="270.02" y1="168.50" x2="254.31" y2="126.84"/><line x1="232.31" y1="240.22" x2="232.96" y2="250.09"/><line x1="283.82" y1="258.30" x2="222.58" y2="314.64"/><line x1="283.81" y1="211.36" x2="281.47" y2="216.55"/><line x1="283.82" y1="258.30" x2="206.29" y2="333.52"/><line x1="204.27" y1="335.69" x2="202.30" y2="337.75"/><line x1="200.36" y1="339.69" x2="223.30" y2="344.24"/><line x1="200.36" y1="339.69" x2="262.13" y2="295.80"/><line x1="200.36" y1="339.69" x2="267.27" y2="285.22"/><line x1="263.28" y1="173.13" x2="263.71" y2="172.39"/><line x1="239.82" y1="166.97" x2="262.70" y2="174.69"/><line x1="331.87" y1="300.16" x2="299.28" y2="302.37"/><line x1="330.40" y1="330.56" x2="329.41" y2="333.67"/><line x1="208.36" y1="271.26" x2="233.00" y2="260.06"/><line x1="288.90" y1="191.21" x2="288.27" y2="196.15"/><line x1="211.63" y1="355.04" x2="198.33" y2="341.67"/><line x1="228.79" y1="254.30" x2="227.76" y2="253.80"/><line x1="208.36" y1="271.26" x2="227.76" y2="253.80"/><line x1="283.11" y1="168.87" x2="284.10" y2="169.30"/><line x1="251.67" y1="341.89" x2="271.31" y2="310.36"/><line x1="298.61" y1="304.01" x2="297.80" y2="305.45"/><line x1="254.31" y1="126.84" x2="271.10" y2="168.33"/><line x1="296.84" y1="306.68" x2="295.71" y2="307.73"/><line x1="202.30" y1="337.75" x2="200.36" y2="339.69"/><line x1="315.50" y1="260.74" x2="317.03" y2="262.68"/><line x1="196.05" y1="343.82" x2="193.52" y2="346.15"/><line x1="284.99" y1="310.64" x2="280.52" y2="358.17"/><line x1="278.72" y1="221.80" x2="299.05" y2="227.45"/><line x1="299.19" y1="244.02" x2="296.48" y2="241.61"/><line x1="231.23" y1="282.27" x2="231.82" y2="281.44"/><line x1="233.17" y1="276.45" x2="209.04" y2="275.67"/><line x1="262.28" y1="293.48" x2="262.36" y2="292.97"/><line x1="241.43" y1="149.49" x2="267.16" y2="169.45"/><line x1="283.82" y1="258.30" x2="232.87" y2="300.57"/><line x1="275.33" y1="357.57" x2="270.60" y2="356.57"/><line x1="283.82" y1="258.30" x2="216.36" y2="322.02"/><line x1="200.36" y1="339.69" x2="229.41" y2="337.32"/><line x1="321.29" y1="346.60" x2="292.89" y2="309.35"/><line x1="242.69" y1="144.57" x2="268.05" y2="169.06"/><line x1="200.36" y1="339.69" x2="214.14" y2="352.88"/><line x1="206.29" y1="333.52" x2="204.27" y2="335.69"/><line x1="244.52" y1="283.04" x2="241.38" y2="287.89"/><line x1="223.95" y1="285.69" x2="219.33" y2="285.69"/><line x1="266.20" y1="308.04" x2="246.47" y2="316.10"/><line x1="208.36" y1="271.26" x2="231.66" y2="256.64"/><line x1="331.16" y1="327.27" x2="330.40" y2="330.56"/><line x1="291.97" y1="268.68" x2="295.03" y2="273.80"/><line x1="279.71" y1="168.33" x2="283.88" y2="122.02"/><line x1="294.39" y1="308.62" x2="325.16" y2="341.98"/><line x1="300.12" y1="288.87" x2="327.72" y2="281.66"/><line x1="262.58" y1="188.40" x2="262.51" y2="185.65"/><line x1="260.12" y1="259.29" x2="305.70" y2="250.01"/><line x1="270.25" y1="280.46" x2="271.68" y2="278.13"/><line x1="251.50" y1="245.89" x2="242.16" y2="255.31"/><line x1="253.79" y1="345.48" x2="251.67" y2="341.89"/><line x1="308.11" y1="354.86" x2="304.90" y2="355.93"/><line x1="208.13" y1="266.05" x2="208.26" y2="262.67"/><line x1="295.03" y1="273.80" x2="315.50" y2="260.74"/><line x1="242.09" y1="193.67" x2="263.72" y2="196.24"/><line x1="225.01" y1="251.85" x2="226.06" y2="251.28"/><line x1="266.59" y1="238.82" x2="263.57" y2="235.38"/><line x1="283.82" y1="258.30" x2="244.52" y2="267.18"/><line x1="262.94" y1="173.89" x2="263.28" y2="173.13"/><line x1="225.70" y1="310.45" x2="224.14" y2="312.59"/><line x1="283.82" y1="258.30" x2="224.14" y2="312.59"/><line x1="262.22" y1="294.02" x2="262.28" y2="293.48"/><line x1="246.14" y1="208.56" x2="266.23" y2="203.48"/><line x1="241.02" y1="241.02" x2="239.16" y2="252.07"/><line x1="32.16" y1="32.09" x2="32.16" y2="64.58"/><line x1="200.36" y1="339.69" x2="225.37" y2="342.07"/><line x1="230.50" y1="336.12" x2="229.41" y2="337.32"/><line x1="323.33" y1="344.38" x2="321.29" y2="346.60"/><line x1="257.59" y1="253.82" x2="258.89" y2="256.43"/><line x1="331.87" y1="300.16" x2="299.79" y2="300.53"/><line x1="290.28" y1="358.27" x2="286.18" y2="358.38"/><line x1="244.52" y1="267.18" x2="244.52" y2="283.04"/><line x1="208.36" y1="271.26" x2="233.13" y2="261.12"/><line x1="288.90" y1="191.21" x2="307.74" y2="198.89"/><line x1="280.55" y1="263.91" x2="282.17" y2="261.17"/><line x1="208.36" y1="271.26" x2="228.79" y2="254.30"/><line x1="246.79" y1="322.30" x2="266.20" y2="308.04"/><line x1="208.63" y1="259.51" x2="209.27" y2="256.57"/><line x1="325.24" y1="275.84" x2="300.12" y2="288.87"/><line x1="260.12" y1="259.29" x2="293.51" y2="238.98"/><line x1="266.23" y1="203.48" x2="255.99" y2="226.25"/><line x1="268.79" y1="282.83" x2="270.25" y2="280.46"/><line x1="296.84" y1="306.68" x2="331.71" y2="323.83"/><line x1="218.34" y1="243.70" x2="220.68" y2="242.45"/><line x1="309.85" y1="175.73" x2="309.72" y2="181.60"/><line x1="303.41" y1="215.69" x2="283.81" y2="211.36"/><line x1="281.47" y1="216.55" x2="300.25" y2="224.69"/><line x1="223.95" y1="285.69" x2="233.17" y2="276.45"/><line x1="264.42" y1="306.01" x2="263.14" y2="303.40"/><line x1="246.28" y1="136.10" x2="248.61" y2="132.54"/><line x1="294.39" y1="308.62" x2="326.80" y2="339.38"/><line x1="282.05" y1="168.57" x2="283.11" y2="168.87"/><line x1="209.03" y1="357.20" x2="187.74" y2="351.32"/><line x1="260.12" y1="259.29" x2="303.80" y2="248.23"/><line x1="230.54" y1="283.05" x2="231.23" y2="282.27"/><line x1="269.86" y1="242.45" x2="266.23" y2="203.48"/><line x1="265.56" y1="170.45" x2="266.33" y2="169.91"/><line x1="208.13" y1="266.05" x2="223.95" y2="252.51"/><line x1="299.91" y1="225.51" x2="278.72" y2="221.80"/><line x1="32.00" y1="479.98" x2="64.49" y2="479.98"/><line x1="318.60" y1="264.74" x2="322.19" y2="270.20"/><line x1="309.85" y1="175.73" x2="287.83" y2="173.15"/><line x1="245.81" y1="242.42" x2="247.89" y2="243.39"/><line x1="295.71" y1="307.73" x2="294.39" y2="308.62"/><line x1="240.83" y1="185.35" x2="262.51" y2="176.41"/><line x1="329.66" y1="287.66" x2="331.04" y2="293.82"/><line x1="306.56" y1="204.54" x2="305.12" y2="210.15"/><line x1="269.01" y1="168.75" x2="270.02" y2="168.50"/><line x1="249.77" y1="244.54" x2="251.50" y2="245.89"/><line x1="294.39" y1="308.62" x2="292.89" y2="309.35"/><line x1="221.14" y1="346.40" x2="218.89" y2="348.56"/><line x1="265.25" y1="201.14" x2="246.14" y2="208.56"/><line x1="260.12" y1="259.29" x2="309.94" y2="254.24"/><line x1="291.20" y1="309.92" x2="308.11" y2="354.86"/><line x1="269.86" y1="242.45" x2="274.12" y2="216.13"/><line x1="266.23" y1="203.48" x2="258.27" y2="229.10"/><line x1="245.76" y1="316.10" x2="232.79" y2="333.69"/><line x1="309.72" y1="181.60" x2="289.11" y2="186.32"/><line x1="227.94" y1="307.47" x2="225.70" y2="310.45"/><line x1="242.87" y1="256.77" x2="243.46" y2="258.45"/><line x1="187.74" y1="351.32" x2="184.48" y2="354.17"/><line x1="295.03" y1="273.80" x2="297.40" y2="278.87"/><line x1="231.63" y1="334.91" x2="230.50" y2="336.12"/><line x1="218.34" y1="243.70" x2="225.01" y2="251.85"/><line x1="289.32" y1="310.32" x2="287.25" y2="310.56"/><line x1="266.33" y1="355.16" x2="262.51" y2="353.36"/><line x1="306.96" y1="148.87" x2="282.05" y2="168.57"/><line x1="309.85" y1="175.73" x2="289.06" y2="177.84"/><line x1="300.16" y1="298.49" x2="331.87" y2="300.16"/><line x1="274.62" y1="310.64" x2="251.67" y2="341.89"/><line x1="281.47" y1="216.55" x2="300.54" y2="223.98"/><line x1="278.97" y1="266.53" x2="280.55" y2="263.91"/><line x1="243.46" y1="258.45" x2="257.59" y2="253.82"/><line x1="283.82" y1="258.30" x2="200.36" y2="339.69"/><line x1="262.12" y1="296.45" x2="262.13" y2="295.80"/><line x1="300.25" y1="224.69" x2="299.91" y2="225.51"/><line x1="287.25" y1="310.56" x2="290.28" y2="358.27"/><line x1="209.04" y1="275.67" x2="208.36" y2="271.26"/><line x1="332.15" y1="306.69" x2="332.15" y2="316.43"/><line x1="294.39" y1="308.62" x2="328.21" y2="336.61"/><line x1="264.86" y1="171.05" x2="265.56" y2="170.45"/><line x1="288.27" y1="196.15" x2="287.20" y2="201.16"/><line x1="216.36" y1="322.02" x2="214.81" y2="323.67"/><line x1="209.03" y1="357.20" x2="190.76" y2="348.65"/><line x1="260.12" y1="259.29" x2="301.63" y2="246.23"/><line x1="269.86" y1="242.45" x2="278.72" y2="221.80"/><line x1="223.30" y1="344.24" x2="221.14" y2="346.40"/><line x1="269.86" y1="242.45" x2="267.40" y2="205.83"/><line x1="266.23" y1="203.48" x2="248.91" y2="215.14"/><line x1="226.04" y1="240.78" x2="229.10" y2="250.21"/><line x1="265.56" y1="170.45" x2="241.43" y2="149.49"/><line x1="223.95" y1="252.51" x2="218.34" y2="243.70"/><line x1="249.92" y1="337.77" x2="248.51" y2="333.14"/><line x1="286.60" y1="171.29" x2="309.85" y2="175.73"/><line x1="332.15" y1="316.43" x2="296.84" y2="306.68"/><line x1="32.00" y1="479.98" x2="32.00" y2="447.50"/><line x1="318.60" y1="264.74" x2="297.40" y2="278.87"/><line x1="190.76" y1="348.65" x2="187.74" y2="351.32"/><line x1="301.63" y1="246.23" x2="303.80" y2="248.23"/><line x1="309.85" y1="175.73" x2="287.26" y2="172.18"/><line x1="274.12" y1="216.13" x2="272.13" y2="213.42"/><line x1="274.62" y1="310.64" x2="266.33" y2="355.16"/><line x1="232.11" y1="257.37" x2="231.66" y2="256.64"/><line x1="295.71" y1="307.73" x2="329.41" y2="333.67"/><line x1="319.06" y1="348.63" x2="316.62" y2="350.47"/><line x1="244.30" y1="140.10" x2="269.01" y2="168.75"/><line x1="264.42" y1="306.01" x2="200.36" y2="339.69"/><line x1="240.83" y1="185.35" x2="262.82" y2="191.08"/><line x1="272.13" y1="213.42" x2="270.35" y2="210.80"/><line x1="227.09" y1="285.21" x2="229.76" y2="283.75"/><line x1="262.37" y1="300.21" x2="262.12" y2="296.45"/><line x1="329.66" y1="287.66" x2="300.39" y2="296.25"/><line x1="235.42" y1="240.31" x2="234.75" y2="250.33"/><line x1="226.09" y1="285.48" x2="232.31" y2="280.55"/><line x1="311.25" y1="255.69" x2="283.82" y2="258.30"/><line x1="269.01" y1="168.75" x2="246.28" y2="136.10"/><line x1="289.06" y1="177.84" x2="309.72" y2="181.60"/><line x1="329.41" y1="333.67" x2="294.39" y2="308.62"/><line x1="253.15" y1="247.50" x2="254.71" y2="249.36"/><line x1="226.61" y1="253.34" x2="225.34" y2="252.91"/><line x1="311.25" y1="255.69" x2="312.62" y2="257.24"/><line x1="269.86" y1="242.45" x2="276.32" y2="218.92"/><line x1="301.52" y1="356.81" x2="297.95" y2="357.49"/><line x1="223.95" y1="252.51" x2="210.16" y2="253.86"/><line x1="309.72" y1="181.60" x2="289.11" y2="179.22"/><line x1="271.31" y1="310.36" x2="249.92" y2="337.77"/><line x1="271.10" y1="168.33" x2="257.67" y2="124.70"/><line x1="309.85" y1="175.73" x2="288.91" y2="176.55"/><line x1="260.79" y1="232.14" x2="258.27" y2="229.10"/><line x1="274.62" y1="310.64" x2="253.79" y2="345.48"/><line x1="299.28" y1="302.37" x2="298.61" y2="304.01"/><line x1="257.67" y1="124.70" x2="261.37" y2="123.04"/><line x1="240.83" y1="185.35" x2="240.07" y2="176.45"/><line x1="262.44" y1="292.48" x2="264.10" y2="290.04"/><line x1="288.27" y1="196.15" x2="306.56" y2="204.54"/><line x1="232.50" y1="258.19" x2="232.11" y2="257.37"/><line x1="242.16" y1="255.31" x2="242.87" y2="256.77"/><line x1="264.41" y1="198.72" x2="265.25" y2="201.14"/><line x1="269.86" y1="242.45" x2="268.78" y2="208.27"/><line x1="223.95" y1="252.51" x2="216.22" y2="245.23"/><line x1="229.06" y1="240.36" x2="232.31" y2="240.22"/><line x1="265.25" y1="201.14" x2="266.23" y2="203.48"/><line x1="331.71" y1="323.83" x2="331.16" y2="327.27"/><line x1="232.96" y1="250.09" x2="235.42" y2="240.31"/><line x1="262.51" y1="176.41" x2="239.82" y2="166.97"/><line x1="200.36" y1="339.69" x2="280.55" y2="263.91"/><line x1="271.10" y1="168.33" x2="274.51" y2="120.90"/><line x1="300.93" y1="222.87" x2="300.76" y2="223.37"/><line x1="228.92" y1="284.35" x2="227.09" y2="285.21"/><line x1="220.68" y1="242.45" x2="227.10" y2="250.83"/><line x1="240.00" y1="160.69" x2="264.24" y2="171.70"/><line x1="227.09" y1="285.21" x2="228.03" y2="284.83"/><line x1="227.76" y1="253.80" x2="226.61" y2="253.34"/><line x1="243.92" y1="260.32" x2="260.12" y2="259.29"/><line x1="226.09" y1="285.48" x2="231.82" y2="281.44"/><line x1="309.12" y1="161.18" x2="285.01" y2="169.84"/><line x1="198.33" y1="341.67" x2="196.05" y2="343.82"/><line x1="226.61" y1="253.34" x2="208.13" y2="266.05"/><line x1="239.16" y1="252.07" x2="243.52" y2="241.63"/><line x1="223.95" y1="252.51" x2="209.27" y2="256.57"/><line x1="317.03" y1="262.68" x2="318.60" y2="264.74"/><line x1="231.82" y1="281.44" x2="232.31" y2="280.55"/><line x1="200.36" y1="339.69" x2="262.28" y2="293.48"/><line x1="262.36" y1="292.97" x2="262.44" y2="292.48"/><line x1="243.52" y1="241.63" x2="245.81" y2="242.42"/><line x1="200.36" y1="339.69" x2="273.06" y2="275.80"/><line x1="307.74" y1="198.89" x2="288.27" y2="196.15"/><line x1="292.89" y1="309.35" x2="319.06" y2="348.63"/><line x1="232.31" y1="280.55" x2="232.68" y2="279.60"/><line x1="209.27" y1="256.57" x2="210.16" y2="253.86"/><line x1="274.62" y1="310.64" x2="256.27" y2="348.55"/><line x1="243.86" y1="201.40" x2="264.41" y2="198.72"/><line x1="241.38" y1="287.89" x2="238.40" y2="292.42"/><line x1="246.47" y1="316.10" x2="264.42" y2="306.01"/><line x1="210.16" y1="253.86" x2="211.30" y2="251.36"/><line x1="283.88" y1="122.02" x2="291.81" y2="125.38"/><line x1="226.09" y1="285.48" x2="225.05" y2="285.64"/><line x1="243.92" y1="260.32" x2="244.25" y2="262.40"/><line x1="327.72" y1="281.66" x2="329.66" y2="287.66"/><line x1="233.17" y1="276.45" x2="219.33" y2="285.69"/><line x1="271.68" y1="278.13" x2="273.06" y2="275.80"/><line x1="270.02" y1="168.50" x2="251.29" y2="129.45"/><line x1="242.16" y1="255.31" x2="253.15" y2="247.50"/><line x1="289.11" y1="186.32" x2="288.90" y2="191.21"/><line x1="291.81" y1="125.38" x2="298.31" y2="130.97"/><line x1="283.81" y1="211.36" x2="300.93" y2="222.87"/><line x1="223.95" y1="252.51" x2="214.33" y2="247.03"/><line x1="283.82" y1="258.30" x2="208.35" y2="331.23"/><line x1="304.90" y1="355.93" x2="301.52" y2="356.81"/><line x1="219.33" y1="285.69" x2="216.36" y2="285.29"/><line x1="200.36" y1="339.69" x2="262.12" y2="296.45"/><line x1="273.06" y1="275.80" x2="274.47" y2="273.66"/><line x1="200.36" y1="339.69" x2="265.71" y2="287.61"/><line x1="263.28" y1="173.13" x2="240.00" y2="160.69"/><line x1="224.14" y1="312.59" x2="222.58" y2="314.64"/><line x1="200.36" y1="339.69" x2="278.97" y2="266.53"/><line x1="271.10" y1="168.33" x2="269.79" y2="121.14"/><line x1="300.93" y1="222.87" x2="281.47" y2="216.55"/><line x1="268.50" y1="309.49" x2="266.20" y2="308.04"/><line x1="292.89" y1="309.35" x2="291.20" y2="309.92"/><line x1="229.41" y1="337.32" x2="228.35" y2="338.52"/><line x1="220.68" y1="242.45" x2="226.06" y2="251.28"/><line x1="240.00" y1="160.69" x2="263.71" y2="172.39"/><line x1="283.11" y1="168.87" x2="309.12" y2="161.18"/><line x1="279.71" y1="168.33" x2="280.92" y2="168.39"/><line x1="299.79" y1="300.53" x2="299.28" y2="302.37"/><line x1="240.54" y1="154.86" x2="241.43" y2="149.49"/><line x1="238.32" y1="240.58" x2="241.02" y2="241.02"/><line x1="64.64" y1="32.09" x2="32.16" y2="64.58"/><line x1="228.35" y1="338.52" x2="227.32" y2="339.72"/><line x1="243.92" y1="260.32" x2="258.89" y2="256.43"/><line x1="309.12" y1="161.18" x2="284.10" y2="169.30"/><line x1="278.72" y1="221.80" x2="299.51" y2="226.42"/><line x1="284.99" y1="310.64" x2="286.18" y2="358.38"/><line x1="233.17" y1="276.45" x2="210.18" y2="279.28"/><line x1="230.07" y1="250.05" x2="231.02" y2="250.01"/><line x1="198.33" y1="341.67" x2="209.03" y2="357.20"/><line x1="241.43" y1="149.49" x2="266.33" y2="169.91"/><line x1="283.82" y1="258.30" x2="235.56" y2="296.65"/><line x1="212.61" y1="326.30" x2="210.46" y2="328.82"/><line x1="283.82" y1="258.30" x2="217.92" y2="320.30"/><line x1="299.51" y1="226.42" x2="299.05" y2="227.45"/><line x1="200.36" y1="339.69" x2="230.50" y2="336.12"/><line x1="286.18" y1="358.38" x2="280.52" y2="358.17"/><line x1="283.82" y1="258.30" x2="288.24" y2="263.51"/><line x1="218.89" y1="348.56" x2="216.56" y2="350.72"/><line x1="200.36" y1="339.69" x2="216.56" y2="350.72"/><line x1="200.36" y1="339.69" x2="262.22" y2="294.02"/><line x1="266.33" y1="169.91" x2="267.16" y2="169.45"/><line x1="200.36" y1="339.69" x2="271.68" y2="278.13"/><line x1="287.26" y1="172.18" x2="287.83" y2="173.15"/><line x1="239.82" y1="166.97" x2="240.00" y2="160.69"/><line x1="247.89" y1="243.39" x2="249.77" y2="244.54"/><line x1="216.56" y1="350.72" x2="214.14" y2="352.88"/><line x1="208.36" y1="271.26" x2="232.11" y2="257.37"/><line x1="291.97" y1="268.68" x2="314.03" y2="258.93"/><line x1="287.83" y1="173.15" x2="288.29" y2="174.21"/><line x1="283.82" y1="258.30" x2="282.17" y2="261.17"/><line x1="236.37" y1="250.75" x2="237.84" y2="251.32"/><line x1="268.78" y1="208.27" x2="267.40" y2="205.83"/><line x1="243.92" y1="260.32" x2="283.82" y2="258.30"/><line x1="229.76" y1="283.75" x2="230.54" y2="283.05"/><line x1="259.17" y1="351.15" x2="256.27" y2="348.55"/><line x1="284.99" y1="310.64" x2="274.62" y2="310.64"/><line x1="225.01" y1="251.85" x2="220.68" y2="242.45"/><line x1="283.82" y1="258.30" x2="244.45" y2="264.69"/><line x1="270.02" y1="168.50" x2="248.61" y2="132.54"/><line x1="289.11" y1="186.32" x2="308.67" y2="193.18"/><line x1="283.82" y1="258.30" x2="225.70" y2="310.45"/><line x1="283.82" y1="258.30" x2="210.46" y2="328.82"/><line x1="248.51" y1="333.14" x2="247.47" y2="327.98"/><line x1="32.16" y1="32.09" x2="64.64" y2="32.09"/><line x1="200.36" y1="339.69" x2="226.32" y2="340.90"/><line x1="246.14" y1="208.56" x2="248.91" y2="215.14"/><line x1="200.36" y1="339.69" x2="262.37" y2="300.21"/><line x1="263.19" y1="193.70" x2="263.72" y2="196.24"/><line x1="257.59" y1="253.82" x2="243.92" y2="260.32"/><line x1="200.36" y1="339.69" x2="264.10" y2="290.04"/><line x1="297.40" y1="278.87" x2="299.10" y2="283.90"/><line x1="239.82" y1="166.97" x2="262.56" y2="175.53"/><line x1="268.50" y1="309.49" x2="246.79" y2="322.30"/><line x1="290.28" y1="358.27" x2="284.99" y2="310.64"/><line x1="208.36" y1="271.26" x2="233.17" y2="262.25"/><line x1="240.31" y1="252.98" x2="241.30" y2="254.05"/><line x1="208.36" y1="271.26" x2="229.68" y2="254.82"/><line x1="322.19" y1="270.20" x2="325.24" y2="275.84"/><line x1="214.81" y1="323.67" x2="212.61" y2="326.30"/><line x1="279.71" y1="168.33" x2="303.35" y2="138.80"/><line x1="232.96" y1="278.61" x2="233.11" y2="277.55"/><line x1="233.17" y1="262.25" x2="233.13" y2="261.12"/><line x1="229.10" y1="250.21" x2="230.07" y2="250.05"/><line x1="287.20" y1="201.16" x2="285.72" y2="206.23"/><line x1="296.84" y1="306.68" x2="332.04" y2="320.21"/><line x1="32.00" y1="447.50" x2="64.49" y2="479.98"/></g></svg>